# .PCD v0.7 - Point Cloud Data file format
VERSION 0.7
FIELDS x y z rgb label
SIZE 4 4 4 4 4
TYPE F F F F U
COUNT 1 1 1 1 1
WIDTH 2255
HEIGHT 1
VIEWPOINT 0 0 0 1 0 0 0
POINTS 2255
DATA ascii
-0.194195 0.212371 0.29395 0 3
-0.193144 0.21657 0.299762 0 3
-0.199844 0.212965 0.288262 0 3
-0.195082 0.212901 0.288176 0 3
-0.19038 0.212901 0.288176 0 3
-0.185679 0.212901 0.288176 0 3
-0.197624 0.21525 0.28506 0 3
-0.192954 0.215229 0.285032 0 3
-0.188304 0.215229 0.285032 0 3
-0.183653 0.215229 0.285032 0 3
-0.179098 0.215343 0.285183 0 3
0.202642 0.211294 0.299216 0 3
0.20258 0.21611 0.299125 0 3
0.207495 0.216146 0.299175 1.2262e-38 3
0.20258 0.220991 0.299125 0 3
0.207495 0.221027 0.299175 0 3
0.208316 0.216611 0.286862 1.3368e-38 3
0.210589 0.214163 0.28362 0 3
-0.0904233 0.201867 0.299716 0 3
-0.060545 0.200089 0.297077 1.38265e-38 3
-0.0552107 0.203143 0.294478 1.44718e-38 3
-0.0502477 0.202505 0.293552 1.43807e-38 3
-0.0453595 0.202065 0.292915 1.21695e-38 3
-0.47714 0.441921 0.672419 0 3
-0.484984 0.44999 0.66811 0 3
-0.478564 0.45479 0.659266 0 3
-0.47529 0.462362 0.654757 0 3
-0.410105 0.471793 0.653024 0 3
-0.400276 0.470884 0.637372 0 3
0.333117 0.428899 0.669218 1.45655e-38 3
0.316344 0.442547 0.65706 1.23546e-38 3
0.305634 0.453282 0.657081 0 3
0.305634 0.464003 0.657081 0 3
0.305644 0.47474 0.657103 0 3
0.307892 0.48903 0.661935 1.41981e-38 3
0.32329 0.490423 0.649477 0 3
0.398554 0.478994 0.634341 1.20769e-38 3
-0.0783033 0.400139 0.640653 1.21702e-38 3
-0.0781539 0.409808 0.63943 1.39212e-38 3
-0.078155 0.420247 0.639439 1.36446e-38 3
-0.0888773 0.432086 0.641528 1.28148e-38 3
-0.0888773 0.442553 0.641528 1.27216e-38 3
-0.0995063 0.453759 0.642575 1.31843e-38 3
-0.20764 0.429862 0.688242 0 3
-0.292092 0.433113 0.675793 0 3
-0.274782 0.434208 0.660683 0 3
-0.274548 0.444609 0.66012 0 3
-0.284176 0.453556 0.657478 1.22627e-38 3
-0.548108 0.4327 0.692785 0 3
-0.561526 0.445681 0.695404 0 3
-0.548617 0.44652 0.679417 0 3
0.437615 0.412939 0.678882 1.25372e-38 3
0.423731 0.421225 0.674414 1.51186e-38 3
0.422074 0.430539 0.671777 0 3
0.414291 0.433357 0.659389 1.28138e-38 3
0.40993 0.439441 0.652447 1.17996e-38 3
0.40993 0.450086 0.652447 1.2445e-38 3
0.449857 0.45803 0.648623 1.26308e-38 3
0.459981 0.468145 0.647976 1.24461e-38 3
0.459981 0.478717 0.647976 1.23539e-38 3
0.479129 0.476783 0.631412 0 3
0.183459 0.414297 0.681113 1.42896e-38 3
0.192661 0.421233 0.674426 1.35528e-38 3
0.192503 0.431882 0.673872 1.42903e-38 3
0.181302 0.442374 0.673108 1.37371e-38 3
0.00239429 0.175446 0.288438 1.46577e-38 3
0.00719291 0.177734 0.292198 1.91752e-38 3
0.012142 0.180433 0.296636 1.72388e-38 3
0.0170626 0.181292 0.298048 1.62232e-38 3
0.0219779 0.181726 0.298761 1.53009e-38 3
0.0269542 0.182415 0.299894 1.81589e-38 3
0.0071096 0.180387 0.288814 1.5764e-38 3
0.011842 0.180695 0.289307 1.53949e-38 3
0.016717 0.182384 0.29201 1.52094e-38 3
0.0218738 0.185716 0.297346 1.63147e-38 3
0.0268118 0.186318 0.298309 1.81582e-38 3
0.0318385 0.192148 0.299812 1.51172e-38 3
-0.312593 0.42391 0.696917 0 3
-0.367788 0.475295 0.673072 0 3
-0.389475 0.480787 0.636716 0 3
-0.0119087 0.173432 0.292984 1.18918e-38 3
-0.00716195 0.174247 0.294362 1.17996e-38 3
-0.0118564 0.17743 0.2917 1.41963e-38 3
-0.00708681 0.177171 0.291274 1.3274e-38 3
-0.00231995 0.176068 0.28946 1.21677e-38 3
-0.0402222 0.186071 0.290329 1.32751e-38 3
-0.0561398 0.196791 0.299433 1.32729e-38 3
-0.0504425 0.193674 0.294691 1.39187e-38 3
-0.0451922 0.191797 0.291834 1.58558e-38 3
-0.0402807 0.191085 0.290751 1.429e-38 3
-0.0825839 0.194906 0.289381 0 3
-0.0554451 0.199181 0.295728 1.49325e-38 3
-0.050396 0.198299 0.294418 1.60402e-38 3
-0.0453625 0.197299 0.292934 1.39205e-38 3
-0.119435 0.413033 0.697752 0 3
-0.142428 0.425086 0.698852 1.44726e-38 3
-0.15242 0.432487 0.692445 1.28123e-38 3
-0.14024 0.441011 0.688116 1.31811e-38 3
-0.191991 0.44938 0.636373 1.19854e-38 3
-0.191991 0.459763 0.636373 1.19851e-38 3
-0.671422 0.460048 0.799205 0 3
-0.670109 0.472162 0.797641 0 3
-0.616418 0.473915 0.779126 0 3
-0.343658 0.401432 0.739284 0 3
-0.34146 0.41085 0.734556 0 3
-0.35317 0.422505 0.733984 0 3
-0.336458 0.428449 0.723794 0 3
-0.195945 0.213872 0.393871 0 3
-0.189527 0.213882 0.393888 0 3
-0.197069 0.214527 0.383552 0 3
-0.192167 0.216051 0.386277 1.26301e-38 3
-0.186798 0.217136 0.388217 0 3
-0.194313 0.210997 0.366548 0 3
-0.188579 0.211273 0.367027 0 3
-0.188464 0.21807 0.378835 0 3
-0.199267 0.209607 0.354097 0 3
-0.194328 0.210515 0.355631 0 3
-0.188898 0.210931 0.356334 0 3
-0.183563 0.211483 0.357266 0 3
-0.178051 0.21186 0.357902 0 3
-0.172807 0.212592 0.359139 0 3
-0.10337 0.202818 0.342628 1.37364e-38 3
-0.195688 0.205557 0.33794 0 3
-0.190312 0.205705 0.338184 0 3
-0.187652 0.208886 0.343413 0 3
-0.185303 0.21262 0.349553 0 3
-0.180578 0.213778 0.351456 0 3
-0.174864 0.213803 0.351497 0 3
-0.169102 0.213768 0.35144 0 3
-0.162956 0.21323 0.350555 0 3
-0.129877 0.206118 0.338862 0 3
-0.123825 0.205249 0.337434 0 3
-0.118675 0.205866 0.338449 0 3
-0.113651 0.206772 0.339938 0 3
-0.108614 0.207746 0.34154 1.43825e-38 3
-0.103152 0.20797 0.341908 0 3
-0.197064 0.206729 0.330989 0 3
-0.189778 0.204695 0.327733 0 3
-0.183976 0.20419 0.326924 0 3
-0.181444 0.207393 0.332052 0 3
-0.181338 0.213652 0.342073 0 3
-0.178652 0.217171 0.347708 0 3
-0.17374 0.218126 0.349236 0 3
-0.167787 0.217796 0.348708 0 3
-0.159738 0.214625 0.34363 0 3
-0.151322 0.210714 0.337369 0 3
-0.144919 0.209414 0.335288 0 3
-0.141099 0.211893 0.339257 0 3
-0.135996 0.212569 0.340339 0 3
-0.129394 0.210859 0.337601 1.19872e-38 3
-0.123468 0.210148 0.336463 0 3
-0.118113 0.210387 0.336845 0 3
-0.112984 0.211073 0.337944 0 3
-0.10826 0.212625 0.340429 0 3
-0.194725 0.209611 0.32706 0 3
-0.18819 0.208285 0.324991 0 3
-0.182342 0.207663 0.324021 0 3
-0.178039 0.208817 0.325821 0 3
-0.175927 0.212691 0.331865 0 3
-0.174411 0.217554 0.339453 0 3
-0.171526 0.220972 0.344787 0 3
-0.165426 0.22034 0.3438 0 3
-0.156974 0.216421 0.337685 0 3
-0.14839 0.212028 0.330831 0 3
-0.116857 0.213588 0.333265 1.1894e-38 3
-0.111672 0.214071 0.334019 0 3
-0.106761 0.215157 0.335713 0 3
-0.101974 0.216623 0.338 0 3
-0.193184 0.213247 0.324473 0 3
-0.187565 0.212878 0.323912 0 3
-0.182301 0.212902 0.323948 0 3
-0.177456 0.213433 0.324755 0 3
-0.172921 0.214378 0.326194 0 3
-0.169234 0.216471 0.329378 0 3
-0.167004 0.220624 0.335697 0 3
-0.161811 0.221011 0.336287 0 3
-0.152927 0.216209 0.32898 0 3
-0.144369 0.211535 0.321867 0 3
-0.136318 0.207278 0.31539 0 3
-0.114419 0.214456 0.326313 0 3
-0.107592 0.211502 0.321817 0 3
-0.101381 0.209517 0.318797 0 3
-0.187593 0.218196 0.32396 0 3
-0.182728 0.218699 0.324707 0 3
-0.177717 0.219052 0.325232 0 3
-0.172417 0.21906 0.325244 0 3
-0.16711 0.21906 0.325244 0 3
-0.161756 0.218996 0.325148 0 3
-0.155678 0.217914 0.323542 0 3
-0.149074 0.215993 0.32069 0 3
-0.14112 0.211906 0.314622 0 3
-0.134494 0.209581 0.31117 0 3
-0.18213 0.223264 0.323645 0 3
-0.177704 0.224343 0.325209 0 3
-0.172366 0.224301 0.325148 1.18003e-38 3
-0.166285 0.223258 0.323637 0 3
-0.160484 0.222537 0.322591 0 3
-0.154926 0.222114 0.321978 1.18936e-38 3
-0.145375 0.215737 0.312734 0 3
-0.137479 0.211441 0.306506 0 3
-0.18213 0.228545 0.323645 0 3
-0.11879 0.263779 0.37354 1.25375e-38 3
-0.11879 0.269873 0.37354 0 3
-0.260051 0.203684 0.375107 0 3
-0.254647 0.204258 0.376165 0 3
-0.247705 0.203596 0.374946 0 3
-0.2078 0.212851 0.39199 0 3
-0.201975 0.213454 0.393101 0 3
-0.260028 0.209785 0.375074 0 3
-0.254187 0.210015 0.375485 0 3
-0.247292 0.209364 0.374321 0 3
-0.242133 0.210187 0.375793 0 3
-0.24091 0.214559 0.383609 0 3
-0.229291 0.209657 0.374845 0 3
-0.218385 0.205158 0.3668 0 3
-0.213909 0.206615 0.369405 0 3
-0.209813 0.208534 0.372837 0 3
-0.206124 0.210985 0.377219 0 3
-0.201383 0.212476 0.379885 0 3
-0.256279 0.212792 0.369666 0 3
-0.25273 0.214903 0.373333 0 3
-0.247521 0.215671 0.374668 0 3
-0.24177 0.215995 0.37523 0 3
-0.237547 0.217736 0.378254 0 3
-0.232007 0.21833 0.379287 0 3
-0.224693 0.217242 0.377396 0 3
-0.216327 0.215046 0.373582 0 3
-0.20847 0.213244 0.370451 0 3
-0.201443 0.212208 0.368652 0 3
-0.273845 0.209204 0.353416 0 3
-0.266582 0.208036 0.351443 0 3
-0.259056 0.206607 0.349029 0 3
-0.252935 0.20626 0.348442 0 3
-0.248025 0.206906 0.349535 0 3
-0.245274 0.209426 0.353791 0 3
-0.241856 0.211485 0.357269 0 3
-0.237135 0.212478 0.358948 0 3
-0.232304 0.21342 0.360539 0 3
-0.226838 0.213812 0.361201 0 3
-0.220774 0.213648 0.360923 0 3
-0.212152 0.21093 0.356332 0 3
-0.20453 0.209082 0.353209 0 3
-0.248922 0.208582 0.342914 0 3
-0.242669 0.208018 0.341986 0 3
-0.233661 0.20501 0.337041 0 3
-0.226415 0.20344 0.33446 0 3
-0.228242 0.210146 0.345485 0 3
-0.227318 0.214596 0.352801 0 3
-0.220479 0.213547 0.351076 0 3
-0.212731 0.211538 0.347774 0 3
-0.203306 0.207706 0.341474 0 3
-0.28057 0.217018 0.347463 0 3
-0.243631 0.209624 0.335624 0 3
-0.235622 0.207394 0.332054 0 3
-0.229822 0.20705 0.331503 0 3
-0.224365 0.207006 0.331432 0 3
-0.220999 0.208935 0.334522 0 3
-0.22148 0.214692 0.343739 0 3
-0.214992 0.213818 0.342339 0 3
-0.205734 0.210068 0.336335 0 3
-0.240258 0.212122 0.330978 0 3
-0.234221 0.211547 0.33008 0 3
-0.229095 0.211787 0.330455 0 3
-0.223993 0.212061 0.330883 0 3
-0.21924 0.212688 0.33186 0 3
-0.218545 0.217382 0.339185 0 3
-0.210729 0.215053 0.335551 0 3
-0.201007 0.210603 0.328608 0 3
-0.234266 0.212097 0.322723 0 3
-0.260365 0.217173 0.322441 0 3
-0.253535 0.215837 0.320458 0 3
-0.24791 0.215492 0.319945 0 3
-0.242681 0.215484 0.319934 0 3
-0.237461 0.215484 0.319934 0 3
-0.26026 0.222344 0.322311 0 3
-0.253213 0.220784 0.32005 0 3
-0.242637 0.216017 0.31314 0 3
-0.234191 0.212983 0.308741 0 3
-0.229623 0.213419 0.309374 0 3
-0.242637 0.221127 0.31314 0 3
-0.234092 0.217928 0.308611 0 3
-0.227973 0.216897 0.30715 0 3
-0.256931 0.274207 0.379539 0 3
-0.26795 0.278977 0.377613 0 3
-0.263875 0.280802 0.371871 0 3
-0.326369 0.249749 0.459942 0 3
-0.326369 0.257254 0.459942 0 3
-0.341642 0.253804 0.440913 0 3
-0.32028 0.259818 0.451361 0 3
-0.346683 0.259388 0.438193 0 3
-0.319166 0.261564 0.430016 0 3
-0.357444 0.271004 0.433898 0 3
-0.316761 0.266555 0.426775 0 3
-0.357054 0.27778 0.433425 0 3
-0.313075 0.270336 0.42181 0 3
-0.349023 0.278445 0.423676 0 3
-0.303881 0.269077 0.409423 0 3
-0.34302 0.280449 0.416389 0 3
0.633946 0.36867 0.699981 0 3
0.627511 0.376232 0.692876 0 3
0.629491 0.38188 0.682762 0 3
0.626934 0.391424 0.679989 0 3
-0.0092869 0.201036 0.381699 0 3
-0.00305305 0.200629 0.380928 1.30914e-38 3
-0.0090301 0.201532 0.371144 1.25386e-38 3
-0.0030003 0.203271 0.374347 1.20773e-38 3
-0.0204593 0.200894 0.359177 1.29074e-38 3
-0.0148277 0.204039 0.3648 1.18932e-38 3
-0.0090301 0.207587 0.371144 1.19847e-38 3
-0.00299978 0.209342 0.374282 1.22606e-38 3
-0.0879924 0.200401 0.348141 1.29981e-38 3
-0.0827386 0.201439 0.349944 1.30896e-38 3
-0.0773488 0.202275 0.351397 1.29967e-38 3
-0.0716545 0.202385 0.351588 1.3735e-38 3
-0.0657634 0.20191 0.350763 1.45655e-38 3
-0.059821 0.201172 0.34948 1.36435e-38 3
-0.0540911 0.201069 0.349301 1.18918e-38 3
-0.0483793 0.201016 0.349208 1.32758e-38 3
-0.04259 0.200584 0.348458 1.37357e-38 3
-0.0369136 0.200632 0.348542 1.35513e-38 3
-0.0314805 0.202261 0.351372 1.18007e-38 3
-0.0260825 0.204892 0.355942 1.3829e-38 3
-0.0203851 0.206004 0.357874 1.26312e-38 3
-0.0145652 0.206273 0.358342 1.29992e-38 3
-0.00888551 0.210222 0.365202 1.51194e-38 3
-0.00298803 0.214605 0.372816 0 3
-0.0981231 0.203531 0.343832 1.63168e-38 3
-0.0928142 0.204193 0.344951 1.29989e-38 3
-0.0874171 0.204734 0.345865 0 3
-0.0823464 0.206167 0.348285 1.25364e-38 3
-0.0772609 0.207772 0.350997 1.5025e-38 3
-0.0716948 0.208239 0.351785 1.35506e-38 3
-0.0659568 0.208244 0.351794 1.37357e-38 3
-0.0360171 0.201308 0.340077 1.35524e-38 3
-0.00273032 0.201654 0.340662 0 3
-0.0980297 0.208942 0.343505 1.51183e-38 3
-0.0927279 0.209626 0.34463 1.29067e-38 3
-0.0872766 0.210039 0.345309 0 3
-0.0820899 0.211189 0.3472 1.36431e-38 3
-0.0770523 0.212923 0.35005 1.25357e-38 3
-0.0357595 0.205377 0.337645 0 3
-0.0296358 0.201203 0.330782 1.18e-38 3
-0.0816232 0.215621 0.345226 1.19836e-38 3
-0.0520844 0.234812 0.375952 1.41967e-38 3
-0.0972508 0.218402 0.340776 1.18932e-38 3
-0.0925424 0.22043 0.34394 0 3
-0.087241 0.221216 0.345168 0 3
-0.0812006 0.220109 0.343439 0 3
-0.0751528 0.218815 0.34142 0 3
-0.0583374 0.241439 0.376721 1.37343e-38 3
-0.0977279 0.212889 0.323928 1.18014e-38 3
-0.0960962 0.221302 0.33673 0 3
-0.0916983 0.22398 0.340803 0 3
-0.0865047 0.224933 0.342255 0 3
-0.0807949 0.224584 0.341723 0 3
-0.0730719 0.218172 0.331966 1.32744e-38 3
-0.0634911 0.204743 0.311533 1.42874e-38 3
-0.0861643 0.215687 0.320236 0 3
-0.08639 0.230212 0.341801 0 3
-0.0805521 0.229468 0.340696 1.28148e-38 3
-0.0694789 0.212594 0.315644 1.29056e-38 3
-0.0778736 0.263591 0.382103 1.50246e-38 3
-0.0648923 0.26771 0.379107 1.31829e-38 3
0.645572 0.40789 0.799205 0 3
0.61851 0.424349 0.781487 0 3
0.689886 0.450916 0.761748 0 3
0.201572 0.200115 0.392098 0 3
0.208578 0.2007 0.393245 0 3
0.216688 0.202282 0.396344 0 3
0.22469 0.203674 0.39907 0 3
0.22974 0.202387 0.396549 0 3
0.205485 0.204045 0.387414 0 3
0.21345 0.20563 0.390422 0 3
0.220099 0.20589 0.390917 0 3
0.223102 0.202822 0.385092 0 3
0.227749 0.201375 0.382344 1.23535e-38 3
0.232913 0.200451 0.380589 1.18914e-38 3
0.203807 0.208649 0.384251 0 3
0.209958 0.208531 0.384034 0 3
0.213888 0.206278 0.379885 0 3
0.217111 0.20349 0.37475 0 3
0.223951 0.204152 0.375969 0 3
0.231191 0.205133 0.377775 0 3
0.236752 0.204611 0.376816 1.23535e-38 3
0.240678 0.20274 0.373369 1.20769e-38 3
0.246119 0.202206 0.372385 1.24439e-38 3
0.252184 0.202197 0.372369 1.28134e-38 3
0.200802 0.211749 0.378584 1.18018e-38 3
0.206355 0.211111 0.377444 0 3
0.210972 0.20958 0.374707 0 3
0.216435 0.208951 0.373583 0 3
0.224019 0.210349 0.376082 0 3
0.231568 0.211641 0.378392 0 3
0.23681 0.210811 0.376908 0 3
0.240551 0.208722 0.373172 0 3
0.245574 0.20782 0.37156 0 3
0.251208 0.207467 0.370928 0 3
0.256615 0.206946 0.369998 0 3
0.260761 0.205456 0.367334 0 3
0.262864 0.20246 0.361977 0 3
0.207301 0.205972 0.357818 1.29978e-38 3
0.214683 0.207463 0.360409 1.18914e-38 3
0.223941 0.210641 0.365929 0 3
0.233294 0.21374 0.371313 0 3
0.237182 0.211802 0.367946 0 3
0.239443 0.208542 0.362283 0 3
0.244164 0.207531 0.360527 1.19847e-38 3
0.246757 0.204801 0.355784 0 3
0.248507 0.201513 0.350072 0 3
0.255101 0.202212 0.351287 0 3
0.263003 0.203895 0.35421 0 3
0.266622 0.202256 0.351363 0 3
0.270861 0.201147 0.349437 0 3
0.275273 0.200209 0.347807 0 3
0.230119 0.206102 0.348176 0 3
0.242056 0.211571 0.357415 0 3
0.24491 0.209029 0.353121 0 3
0.248454 0.207181 0.349998 0 3
0.254114 0.207139 0.349928 0 3
0.259802 0.207122 0.349899 0 3
0.265177 0.206862 0.34946 0 3
0.270375 0.206478 0.34881 0 3
0.275232 0.205854 0.347756 0 3
0.280482 0.205543 0.347231 0 3
0.284937 0.204674 0.345763 0 3
0.229823 0.260711 0.396693 1.22617e-38 3
0.232699 0.263117 0.390655 1.47491e-38 3
0.238218 0.268527 0.389258 1.23521e-38 3
0.254232 0.271631 0.384661 0 3
0.244507 0.274041 0.379309 0 3
0.244507 0.280229 0.379309 1.23535e-38 3
0.226826 0.279874 0.370642 1.30911e-38 3
0.26832 0.285416 0.377982 1.25383e-38 3
0.10075 0.203213 0.398167 1.34598e-38 3
0.107459 0.203615 0.398956 1.28134e-38 3
0.113719 0.20317 0.398083 1.41041e-38 3
0.12002 0.202841 0.39744 1.22613e-38 3
0.126001 0.202034 0.395859 1.47513e-38 3
0.13208 0.201456 0.394725 1.37364e-38 3
0.138054 0.200778 0.393396 1.37364e-38 3
0.144294 0.200529 0.39291 1.38286e-38 3
0.151011 0.200937 0.393709 1.41034e-38 3
0.172341 0.203366 0.398468 1.34598e-38 3
0.179384 0.203982 0.399675 1.2445e-38 3
0.185628 0.203679 0.399081 0 3
0.191172 0.202654 0.397072 0 3
0.195863 0.200821 0.393481 0 3
0.10068 0.209562 0.397887 1.19847e-38 3
0.107111 0.209443 0.397663 1.46573e-38 3
0.113405 0.209085 0.396982 1.5948e-38 3
0.119706 0.208778 0.396399 1.31833e-38 3
0.125425 0.20754 0.394048 1.38293e-38 3
0.130982 0.206167 0.391442 1.49357e-38 3
0.136326 0.204602 0.38847 1.3368e-38 3
0.141904 0.203512 0.386402 1.42896e-38 3
0.17115 0.200841 0.38133 1.27226e-38 3
0.179813 0.203605 0.386578 1.53041e-38 3
0.188179 0.205858 0.390855 0 3
0.194147 0.205425 0.390033 0 3
0.198788 0.20366 0.386682 0 3
0.105571 0.212827 0.391945 1.30903e-38 3
0.111958 0.212812 0.391919 1.24457e-38 3
0.118156 0.21246 0.391269 1.57647e-38 3
0.123754 0.211119 0.3888 1.29067e-38 3
0.129205 0.209671 0.386133 1.44747e-38 3
0.135129 0.209088 0.38506 1.40141e-38 3
0.140616 0.207912 0.382895 1.59498e-38 3
0.14605 0.206762 0.380775 1.52108e-38 3
0.15128 0.205426 0.378316 1.5764e-38 3
0.156734 0.204489 0.37659 1.39208e-38 3
0.160916 0.202026 0.372055 1.29989e-38 3
0.165835 0.200632 0.369488 1.34602e-38 3
0.175865 0.205304 0.378091 1.20769e-38 3
0.185077 0.208736 0.384412 0 3
0.192292 0.209765 0.386306 1.19854e-38 3
0.198005 0.209142 0.385159 1.2262e-38 3
0.131458 0.200212 0.357958 1.63186e-38 3
0.141682 0.206603 0.369385 1.28145e-38 3
0.147771 0.206691 0.369541 1.33669e-38 3
0.153221 0.205912 0.368149 1.29067e-38 3
0.158166 0.204539 0.365694 1.25379e-38 3
0.163752 0.204065 0.364847 1.19847e-38 3
0.171568 0.206305 0.368852 1.29067e-38 3
0.179883 0.208975 0.373625 1.24457e-38 3
0.187241 0.210392 0.376158 1.24457e-38 3
0.194284 0.211378 0.377922 0 3
0.128104 0.200795 0.348825 1.18932e-38 3
0.137417 0.20623 0.358267 1.29059e-38 3
0.145196 0.209014 0.363103 1.42889e-38 3
0.151216 0.209146 0.363332 1.31833e-38 3
0.156524 0.208321 0.361899 1.18003e-38 3
0.162183 0.208005 0.361351 1.37371e-38 3
0.169069 0.209232 0.363481 1.34598e-38 3
0.177303 0.211986 0.368266 1.19847e-38 3
0.181205 0.209549 0.364033 1.36442e-38 3
0.18287 0.204763 0.355718 1.23542e-38 3
0.1868 0.20273 0.352187 1.20776e-38 3
0.192177 0.202341 0.351511 1.3184e-38 3
0.198709 0.203156 0.352927 1.53038e-38 3
0.103985 0.203831 0.34434 1.64101e-38 3
0.109145 0.202979 0.342901 1.41974e-38 3
0.114538 0.202624 0.3423 1.25386e-38 3
0.120176 0.202713 0.34245 1.26308e-38 3
0.126787 0.204364 0.345239 1.26308e-38 3
0.134521 0.207606 0.350716 1.52108e-38 3
0.14219 0.210488 0.355585 1.42889e-38 3
0.146514 0.208386 0.352034 1.5764e-38 3
0.149913 0.205178 0.346614 1.22613e-38 3
0.155042 0.204483 0.34544 1.29996e-38 3
0.161471 0.205492 0.347145 1.31822e-38 3
0.167407 0.205827 0.347711 1.41974e-38 3
0.117079 0.202932 0.333625 1.18932e-38 3
0.122475 0.202854 0.333497 1.21698e-38 3
0.127591 0.202339 0.332649 1.36446e-38 3
0.132461 0.201491 0.331256 1.22599e-38 3
0.137265 0.200613 0.329813 0 3
0.119942 0.203987 0.326599 0 3
0.125233 0.203926 0.326502 0 3
0.129932 0.202945 0.324931 1.36431e-38 3
0.134462 0.201787 0.323076 1.48413e-38 3
0.139175 0.20098 0.321785 1.17996e-38 3
0.144187 0.20065 0.321257 1.28152e-38 3
0.149424 0.200643 0.321245 1.19847e-38 3
0.154665 0.200643 0.321245 1.39201e-38 3
0.159978 0.200733 0.321389 1.2445e-38 3
0.166407 0.202173 0.323694 1.1984e-38 3
0.172923 0.203627 0.326022 0 3
0.178498 0.203919 0.32649 1.27226e-38 3
0.182974 0.202975 0.324979 1.25379e-38 3
0.187721 0.202377 0.324021 1.30911e-38 3
0.193901 0.203313 0.32552 0 3
0.199857 0.203972 0.326575 1.32744e-38 3
0.118465 0.206739 0.322579 1.22617e-38 3
0.123706 0.206701 0.322519 0 3
0.128651 0.206193 0.321726 1.47495e-38 3
0.133338 0.205328 0.320376 1.38265e-38 3
0.137706 0.204055 0.31839 1.31825e-38 3
0.142441 0.203398 0.317366 1.1801e-38 3
0.147674 0.203474 0.317483 1.31836e-38 3
0.153914 0.204885 0.319685 1.22606e-38 3
0.190041 0.204472 0.319041 0 3
0.197236 0.206555 0.322292 0 3
0.118465 0.212002 0.322579 1.32758e-38 3
0.123688 0.211932 0.322472 1.18929e-38 3
0.128318 0.210894 0.320893 1.27212e-38 3
0.132459 0.209167 0.318265 1.47484e-38 3
0.136236 0.207015 0.314991 1.37357e-38 3
0.140027 0.205041 0.311987 1.28152e-38 3
0.144006 0.203471 0.309598 0 3
0.18323 0.202162 0.307607 1.45655e-38 3
0.189459 0.203462 0.309584 1.21684e-38 3
0.134942 0.210139 0.311998 1.41967e-38 3
0.138955 0.208523 0.309598 1.2539e-38 3
0.143551 0.207863 0.308619 0 3
0.185947 0.204647 0.303844 1.42882e-38 3
0.134942 0.21523 0.311998 1.30903e-38 3
0.138955 0.213574 0.309598 1.2078e-38 3
0.13559 0.221379 0.313498 1.29974e-38 3
0.13897 0.218649 0.309632 1.34609e-38 3
0.118857 0.233825 0.323645 1.29981e-38 3
0.1247 0.234885 0.325112 1.23524e-38 3
0.129377 0.233751 0.323542 1.36421e-38 3
0.133506 0.231755 0.32078 1.38261e-38 3
0.136646 0.228257 0.315938 1.24442e-38 3
0.139417 0.22442 0.310627 0 3
0.118857 0.239106 0.323645 1.41052e-38 3
0.124737 0.240261 0.325209 1.51186e-38 3
0.130077 0.240323 0.325293 1.55782e-38 3
0.135702 0.240888 0.326057 1.37339e-38 3
0.141048 0.240932 0.326117 1.33662e-38 3
0.143066 0.235494 0.318757 1.44744e-38 3
0.137502 0.249473 0.330382 1.53934e-38 3
0.144652 0.252544 0.334449 1.4196e-38 3
0.153362 0.258018 0.341699 1.52116e-38 3
0.159825 0.259459 0.343607 1.53967e-38 3
0.153247 0.240351 0.318301 1.37375e-38 3
0.00328147 0.201757 0.395315 1.38293e-38 3
0.029331 0.203493 0.398717 1.27244e-38 3
0.0357569 0.203042 0.397833 1.18947e-38 3
0.0421178 0.202418 0.396609 1.25408e-38 3
0.0483463 0.201408 0.39463 1.49396e-38 3
0.0545105 0.200399 0.392653 1.50322e-38 3
0.0804281 0.201129 0.394084 1.41981e-38 3
0.0879407 0.203636 0.398997 1.38293e-38 3
0.094398 0.203523 0.398775 1.2262e-38 3
0.00317824 0.201657 0.38288 1.3645e-38 3
0.0095191 0.203667 0.386695 1.28152e-38 3
0.0160286 0.206244 0.391588 1.34613e-38 3
0.0226188 0.208095 0.395103 1.19862e-38 3
0.0292096 0.209129 0.397066 1.29088e-38 3
0.0357537 0.209514 0.397797 1.24478e-38 3
0.0421254 0.208926 0.396681 1.42921e-38 3
0.0484753 0.208401 0.395683 1.35549e-38 3
0.0544466 0.206562 0.392193 1.29113e-38 3
0.0601507 0.204204 0.387715 1.24475e-38 3
0.066381 0.20391 0.387157 1.33676e-38 3
0.0735945 0.206426 0.391933 1.19851e-38 3
0.0805777 0.207945 0.394817 1.19854e-38 3
0.0877759 0.209752 0.398249 1.3645e-38 3
0.0942322 0.20966 0.398074 1.19854e-38 3
0.00312368 0.204335 0.376307 1.30914e-38 3
0.00936105 0.20649 0.380275 1.26304e-38 3
0.0157528 0.208975 0.384852 1.19851e-38 3
0.022378 0.212257 0.390896 0 3
0.0291527 0.215188 0.396293 1.1894e-38 3
0.0358681 0.216696 0.39907 1.22627e-38 3
0.0424518 0.217067 0.399754 1.30003e-38 3
0.048654 0.215649 0.397142 1.33691e-38 3
0.0541317 0.21173 0.389925 1.33702e-38 3
0.0595669 0.208486 0.383951 1.29081e-38 3
0.0660803 0.209275 0.385404 1.29074e-38 3
0.0740786 0.21422 0.394511 1.27226e-38 3
0.080862 0.215143 0.39621 0 3
0.0876886 0.216035 0.397853 0 3
0.0937064 0.214949 0.395853 1.32762e-38 3
0.0994734 0.213465 0.39312 1.34598e-38 3
0.00311523 0.209906 0.375289 0 3
0.00934037 0.212224 0.379435 0 3
0.0156537 0.2139 0.382431 1.39201e-38 3
0.0220471 0.215402 0.385117 1.23528e-38 3
0.0290391 0.220789 0.394748 0 3
0.0545875 0.219928 0.393208 1.2539e-38 3
0.0595677 0.214754 0.383957 0 3
0.0653731 0.213256 0.381279 1.35528e-38 3
0.0715485 0.21312 0.381037 1.25386e-38 3
0.078598 0.215403 0.385117 1.29996e-38 3
0.0834037 0.211652 0.378412 1.32762e-38 3
0.0885386 0.209197 0.374023 1.18932e-38 3
0.0916042 0.202485 0.362021 1.32755e-38 3
0.00311498 0.216011 0.375258 0 3
0.00934037 0.218415 0.379435 1.22606e-38 3
0.0156509 0.220101 0.382363 1.38279e-38 3
0.0219537 0.220747 0.383485 0 3
0.0283568 0.221891 0.385474 1.21666e-38 3
0.0615746 0.228465 0.396893 1.44751e-38 3
0.0649919 0.218197 0.379056 1.44747e-38 3
0.0697388 0.21379 0.3714 1.92682e-38 3
0.0744697 0.210042 0.364889 1.21698e-38 3
0.0795128 0.207665 0.360759 1.49364e-38 3
0.0843876 0.205206 0.356487 1.33676e-38 3
0.0890073 0.202483 0.351758 1.33669e-38 3
0.0937492 0.200352 0.348056 1.25379e-38 3
0.0031119 0.221914 0.374887 0 3
0.00935733 0.225014 0.380124 1.41967e-38 3
0.0155298 0.224587 0.379403 1.65012e-38 3
0.0395797 0.220624 0.372708 1.45655e-38 3
0.0724872 0.210245 0.355175 1.26308e-38 3
0.0769327 0.206621 0.349053 1.30925e-38 3
0.0822379 0.205646 0.347406 1.3552e-38 3
0.0875319 0.204771 0.345927 1.39201e-38 3
0.0930114 0.204409 0.345316 1.18925e-38 3
0.0986261 0.204369 0.345248 0 3
0.0688483 0.205195 0.337345 1.30003e-38 3
0.0736523 0.203263 0.334169 1.31847e-38 3
0.0789604 0.202893 0.33356 1.50272e-38 3
0.0843995 0.202885 0.333548 1.48421e-38 3
0.00310284 0.233466 0.373797 1.45655e-38 3
0.0603418 0.200712 0.321355 1.39215e-38 3
0.0666417 0.203946 0.326533 1.32769e-38 3
0.0721646 0.204499 0.327419 1.53974e-38 3
0.0776331 0.204833 0.327953 1.37364e-38 3
0.0829745 0.20481 0.327916 1.34588e-38 3
0.088117 0.204328 0.327145 1.62257e-38 3
0.0153451 0.240265 0.37489 1.50268e-38 3
0.0344924 0.245952 0.383764 1.54856e-38 3
0.0587416 0.200493 0.312833 1.55811e-38 3
0.065091 0.204404 0.318935 0 3
0.0710988 0.206742 0.322584 1.4291e-38 3
0.0767384 0.207761 0.324174 1.54889e-38 3
0.0822923 0.208432 0.32522 1.55811e-38 3
0.087618 0.208478 0.325293 1.6042e-38 3
0.0472847 0.25366 0.385965 1.59498e-38 3
0.0475543 0.201449 0.306521 1.39233e-38 3
0.0530922 0.203507 0.309652 1.23549e-38 3
0.0587416 0.205597 0.312833 1.49357e-38 3
0.065091 0.209607 0.318935 1.45669e-38 3
0.0710988 0.212005 0.322584 1.29996e-38 3
0.0767384 0.213051 0.324174 1.38293e-38 3
0.0822923 0.213738 0.32522 1.47506e-38 3
0.0472847 0.259958 0.385965 1.34606e-38 3
0.30379 0.193629 0.391918 0 3
0.316809 0.175995 0.356227 0 3
0.308417 0.180299 0.353272 0 3
0.315286 0.180934 0.354515 0 3
0.300362 0.184655 0.350598 0 3
0.304425 0.183655 0.3487 0 3
0.311541 0.1845 0.350304 0 3
0.30146 0.1875 0.345303 0 3
0.307118 0.187515 0.34533 0 3
0.302119 0.190005 0.339709 0 3
0.303933 0.187703 0.335592 0 3
0.191915 0.196938 0.398616 1.25383e-38 3
0.196614 0.195146 0.394989 1.26304e-38 3
0.101505 0.19874 0.355327 1.37364e-38 3
0.106064 0.196447 0.351227 1.28145e-38 3
0.109624 0.192633 0.344407 1.47506e-38 3
0.115134 0.192449 0.344079 1.28152e-38 3
0.12233 0.194971 0.348588 1.26315e-38 3
0.104005 0.198252 0.344407 1.9176e-38 3
0.109431 0.197904 0.343802 1.25379e-38 3
0.115036 0.197896 0.343788 1.29074e-38 3
0.120743 0.198055 0.344066 1.23542e-38 3
0.168139 0.199951 0.337784 1.23535e-38 3
0.170105 0.195869 0.330889 1.20769e-38 3
0.175421 0.195777 0.330733 1.23542e-38 3
0.180873 0.195837 0.330834 1.36446e-38 3
0.187165 0.196777 0.332423 1.27223e-38 3
0.193226 0.197428 0.333523 1.20758e-38 3
0.198683 0.197443 0.333548 1.36432e-38 3
0.141736 0.199333 0.327708 1.24457e-38 3
0.146596 0.198673 0.326623 1.44747e-38 3
0.151891 0.198629 0.32655 1.42896e-38 3
0.156851 0.198164 0.325785 1.41045e-38 3
0.161903 0.197841 0.325256 1.28138e-38 3
0.167228 0.197864 0.325293 1.17996e-38 3
0.172941 0.198329 0.326057 0 3
0.178578 0.198681 0.326636 1.22617e-38 3
0.184348 0.199157 0.327419 1.25379e-38 3
0.189999 0.199482 0.327953 0 3
0.195357 0.19949 0.327965 1.23524e-38 3
-0.0390323 0.182082 0.368547 1.27226e-38 3
-0.032947 0.181684 0.367741 1.37371e-38 3
-0.0281833 0.190019 0.384611 1.30918e-38 3
-0.0158761 0.192974 0.390593 1.28159e-38 3
-0.0439285 0.183432 0.359409 1.31825e-38 3
-0.0384429 0.185255 0.362982 1.22606e-38 3
-0.0326718 0.186116 0.364669 1.2907e-38 3
-0.0268749 0.187181 0.366756 1.3368e-38 3
-0.0210794 0.188869 0.370063 1.30921e-38 3
-0.015159 0.190343 0.372951 1.18936e-38 3
-0.00921809 0.193365 0.378871 0 3
-0.00307766 0.195982 0.383999 1.36446e-38 3
-0.0494279 0.187909 0.356777 1.35513e-38 3
-0.0436456 0.188076 0.357094 1.49343e-38 3
-0.0378781 0.188368 0.357649 1.53952e-38 3
-0.032197 0.189275 0.35937 1.35524e-38 3
-0.0264292 0.189962 0.360674 1.3368e-38 3
-0.0207037 0.191433 0.363466 1.2539e-38 3
-0.0151 0.195664 0.3715 1.32769e-38 3
-0.0722783 0.192575 0.354649 0 3
-0.0664073 0.19233 0.354197 0 3
-0.0605748 0.19216 0.353884 1.38279e-38 3
-0.0548274 0.192253 0.354055 1.47499e-38 3
-0.0491298 0.192562 0.354626 1.60406e-38 3
-0.0434092 0.192853 0.35516 1.61328e-38 3
-0.0376479 0.193023 0.355475 1.36435e-38 3
-0.0318701 0.193157 0.35572 1.49353e-38 3
-0.0261779 0.193984 0.357244 1.43822e-38 3
-0.0204602 0.195041 0.359191 1.28159e-38 3
-0.0148277 0.198087 0.3648 0 3
-0.0717974 0.197041 0.352289 1.41967e-38 3
-0.0657836 0.196248 0.35087 1.34591e-38 3
-0.0599309 0.19583 0.350123 1.43811e-38 3
-0.0543243 0.196212 0.350806 1.36439e-38 3
-0.0486893 0.19657 0.351446 1.44733e-38 3
-0.0430194 0.196863 0.351971 1.34591e-38 3
-0.0373282 0.197135 0.352456 1.40123e-38 3
-0.0316686 0.197703 0.353472 1.37368e-38 3
-0.0261248 0.199407 0.35652 1.50275e-38 3
-0.0934518 0.199929 0.34732 0 3
-0.0296406 0.195838 0.330836 1.29981e-38 3
-0.0238928 0.19301 0.326059 1.44736e-38 3
-0.017506 0.181923 0.30733 1.18929e-38 3
-0.0238841 0.198258 0.325941 1.18914e-38 3
-0.0174004 0.18581 0.305475 1.33666e-38 3
0.253277 0.183077 0.383215 0 3
0.203669 0.195733 0.396177 0 3
0.233145 0.193374 0.391403 1.22613e-38 3
0.23407 0.188966 0.38248 1.2168e-38 3
0.239312 0.188181 0.38089 0 3
0.245282 0.187994 0.380512 0 3
0.251529 0.188023 0.38057 0 3
0.258358 0.188474 0.381485 0 3
0.263358 0.187603 0.37972 0 3
0.229507 0.196643 0.385296 0 3
0.233702 0.1949 0.381879 1.31822e-38 3
0.239177 0.194286 0.380677 1.33666e-38 3
0.244617 0.193675 0.379479 1.27205e-38 3
0.266369 0.187206 0.366804 0 3
0.273096 0.187716 0.367804 1.18932e-38 3
0.238572 0.19999 0.379714 1.33666e-38 3
0.243674 0.199096 0.378016 0 3
0.249111 0.198514 0.376912 1.40112e-38 3
0.254647 0.198037 0.376006 1.48417e-38 3
0.258641 0.196411 0.372918 0 3
0.262005 0.194393 0.369087 0 3
0.266094 0.192991 0.366425 0 3
0.270924 0.192176 0.364878 0 3
0.27816 0.193067 0.366569 1.20776e-38 3
0.284262 0.193149 0.366725 0 3
0.287104 0.191059 0.362756 0 3
0.29096 0.189714 0.360203 1.1801e-38 3
0.293721 0.187722 0.356421 0 3
0.296472 0.185802 0.352775 1.18018e-38 3
0.295898 0.187545 0.345387 0 3
0.265373 0.199901 0.357402 0 3
0.268068 0.19759 0.353269 0 3
0.271516 0.195918 0.350281 0 3
0.275466 0.194671 0.348052 0 3
0.280138 0.193974 0.346805 0 3
0.284691 0.193224 0.345464 0 3
0.29005 0.193039 0.345134 0 3
0.295195 0.192722 0.344566 0 3
0.299868 0.192114 0.343479 0 3
0.280132 0.199628 0.346798 0 3
0.284669 0.198845 0.345437 0 3
0.289668 0.198409 0.344679 0 3
0.204125 0.197443 0.333548 1.36432e-38 3
0.209567 0.197443 0.333548 1.31822e-38 3
0.215574 0.197962 0.334424 1.18925e-38 3
0.200708 0.19949 0.327965 1.20758e-38 3
0.206185 0.199612 0.328166 1.2629e-38 3
0.30538 0.226326 0.473743 0 3
0.375875 0.231663 0.484915 0 3
0.358245 0.233247 0.472108 0 3
0.383625 0.217097 0.439418 0 3
0.322331 0.231743 0.454068 0 3
0.375854 0.223907 0.438715 0 3
0.362437 0.234179 0.431267 0 3
0.376864 0.239533 0.416121 0 3
0.0489895 0.191038 0.39988 1.26329e-38 3
0.0553498 0.190474 0.398699 1.40159e-38 3
0.0617317 0.190095 0.397905 1.98224e-38 3
0.0682083 0.190052 0.397815 1.40123e-38 3
0.074486 0.18951 0.396681 1.37371e-38 3
0.0422059 0.196356 0.397439 1.29095e-38 3
0.0483572 0.195013 0.394719 1.59538e-38 3
0.0546746 0.194576 0.393835 1.53999e-38 3
0.0609251 0.194018 0.392706 1.64112e-38 3
0.0672003 0.193638 0.391936 1.61328e-38 3
0.0736051 0.193664 0.39199 1.24464e-38 3
0.0804702 0.194801 0.394291 1.31847e-38 3
0.0880235 0.197312 0.399373 1.41059e-38 3
0.0606241 0.199435 0.390766 1.34616e-38 3
0.066878 0.199073 0.390056 1.54874e-38 3
0.0734587 0.199662 0.39121 1.46587e-38 3
0.0950627 0.197401 0.352932 1.46587e-38 3
0.0988083 0.199104 0.345886 0 3
0.0191097 0.197596 0.333807 1.3735e-38 3
0.0222301 0.17888 0.302189 1.48403e-38 3
0.0274767 0.180963 0.305708 1.74217e-38 3
0.0319876 0.183219 0.301217 1.97277e-38 3
0.0319121 0.18769 0.300506 2.15705e-38 3
0.0369587 0.188422 0.301678 1.429e-38 3
0.0423636 0.190594 0.305156 0 3
0.0480352 0.193383 0.309621 1.33698e-38 3
0.0536624 0.19548 0.312978 1.36457e-38 3
0.0368183 0.192609 0.300532 1.50275e-38 3
0.0421872 0.194759 0.303885 1.3278e-38 3
0.0476265 0.196747 0.306987 1.27248e-38 3
0.053094 0.198461 0.309663 1.33691e-38 3
0.0420938 0.199275 0.303213 1.46609e-38 3
-0.195831 0.208581 0.4366 0 3
-0.188333 0.208166 0.435732 0 3
-0.17754 0.203935 0.426875 0 3
-0.168881 0.20191 0.422636 0 3
-0.161954 0.20187 0.422554 0 3
-0.155247 0.202114 0.423064 0 3
-0.148917 0.202894 0.424696 0 3
-0.142617 0.203793 0.426579 0 3
-0.195159 0.214964 0.435102 0 3
-0.187691 0.214542 0.434247 0 3
-0.176876 0.210111 0.42528 0 3
-0.168084 0.20782 0.420642 0 3
-0.161475 0.208147 0.421304 0 3
-0.154736 0.208328 0.421671 0 3
-0.148258 0.208895 0.422818 0 3
-0.142425 0.210469 0.426004 0 3
-0.103285 0.215825 0.436845 1.22624e-38 3
-0.196951 0.216236 0.423684 0 3
-0.193987 0.220729 0.432487 0 3
-0.186971 0.220776 0.432581 1.26315e-38 3
-0.176643 0.216764 0.424719 1.27237e-38 3
-0.167744 0.214248 0.419789 0 3
-0.10227 0.220762 0.432552 1.29989e-38 3
-0.193813 0.212147 0.402796 0 3
-0.123263 0.24863 0.431924 0 3
-0.136009 0.253168 0.427686 0 3
-0.170071 0.258886 0.425614 0 3
-0.108632 0.268444 0.429799 1.36435e-38 3
-0.153409 0.267929 0.418054 0 3
-0.15113 0.270668 0.411843 0 3
-0.1281 0.271306 0.402814 0 3
-0.214086 0.205589 0.430337 0 3
-0.208992 0.207502 0.434342 1.27237e-38 3
-0.202543 0.208158 0.435714 0 3
-0.212104 0.210642 0.426353 0 3
-0.207599 0.213159 0.431448 0 3
-0.201127 0.213762 0.432668 0 3
-0.208871 0.214281 0.419854 0 3
-0.20373 0.216094 0.423407 0 3
-0.264366 0.254813 0.483805 0 3
-0.212601 0.211225 0.401046 0 3
-0.207517 0.212722 0.403888 0 3
-0.20101 0.212809 0.404053 0 3
-0.260422 0.258788 0.476587 0 3
-0.252051 0.270807 0.412054 0 3
-0.243922 0.275939 0.409693 0 3
-0.235493 0.280545 0.40668 0 3
-0.235493 0.28718 0.40668 0 3
0.487177 0.367324 0.796066 0 3
0.452785 0.373372 0.781541 0 3
0.493212 0.34792 0.728264 0 3
0.478974 0.369866 0.724701 1.60395e-38 3
0.498348 0.390168 0.718539 1.39208e-38 3
0.00363036 0.201801 0.437345 1.27234e-38 3
0.0107257 0.201047 0.435711 1.46591e-38 3
0.0178228 0.200914 0.435422 1.27237e-38 3
0.024888 0.2006 0.434741 1.35542e-38 3
0.0319661 0.200506 0.434538 0 3
0.0898639 0.220827 0.478577 1.28159e-38 3
0.00358947 0.206584 0.43242 1.35528e-38 3
0.010684 0.207347 0.434017 1.53967e-38 3
0.0177734 0.207442 0.434216 1.49364e-38 3
0.0248192 0.207118 0.433539 1.3001e-38 3
0.0318425 0.206793 0.432858 1.24486e-38 3
0.0381286 0.202667 0.42422 0 3
0.00357646 0.212865 0.430853 1.39212e-38 3
0.0106129 0.213001 0.431128 1.48435e-38 3
0.0176314 0.212813 0.430747 1.21705e-38 3
0.0245085 0.211511 0.428112 1.31854e-38 3
0.0302728 0.203313 0.411519 1.20798e-38 3
0.00987272 0.204689 0.401061 1.37371e-38 3
0.0164497 0.205106 0.401876 1.18018e-38 3
0.0229371 0.204487 0.400664 1.27244e-38 3
0.0364981 0.227127 0.40608 0 3
0.0435468 0.229357 0.410066 0 3
0.049731 0.227045 0.405933 1.3001e-38 3
0.0364192 0.233248 0.405202 1.62232e-38 3
0.044489 0.241154 0.418938 1.28138e-38 3
0.0515078 0.242017 0.420436 1.33691e-38 3
0.0581295 0.24103 0.418722 1.59513e-38 3
0.085024 0.268036 0.452802 1.53967e-38 3
0.0807218 0.261487 0.42989 1.32762e-38 3
-0.247677 0.35937 0.77883 0 3
-0.246179 0.369826 0.774118 0 3
-0.246176 0.382452 0.774108 0 3
-0.293434 0.390737 0.765596 0 3
-0.156845 0.197221 0.427419 0 3
-0.15027 0.197745 0.428555 0 3
-0.144058 0.198822 0.430888 0 3
-0.196052 0.236026 0.511518 0 3
-0.132635 0.259264 0.524769 1.26312e-38 3
-0.131419 0.26537 0.519956 1.20776e-38 3
0.135144 0.199196 0.447523 0 3
0.140599 0.196614 0.441722 0 3
0.14356 0.190966 0.429033 0 3
0.147918 0.187615 0.421504 0 3
0.154267 0.186974 0.420065 1.34598e-38 3
0.16117 0.187031 0.420194 0 3
0.119856 0.193597 0.419565 1.27223e-38 3
0.124386 0.190059 0.411898 1.24457e-38 3
0.132707 0.19238 0.416927 1.34598e-38 3
0.140527 0.193783 0.419968 1.44729e-38 3
0.147048 0.193348 0.419025 1.34598e-38 3
0.152958 0.192184 0.416502 1.39208e-38 3
0.159855 0.192305 0.416765 1.4013e-38 3
0.169302 0.19536 0.423386 1.47495e-38 3
0.11699 0.195649 0.409532 1.20769e-38 3
0.123971 0.196123 0.410523 1.25379e-38 3
0.131455 0.197303 0.412993 1.32755e-38 3
0.138761 0.198114 0.414691 1.30911e-38 3
0.145541 0.198132 0.414729 1.53949e-38 3
0.152307 0.198132 0.414729 1.45651e-38 3
0.159357 0.198485 0.415468 1.41041e-38 3
0.101543 0.198263 0.401298 1.17992e-38 3
0.10896 0.199858 0.404526 1.2629e-38 3
0.18807 0.199762 0.404331 1.25386e-38 3
-0.0622779 0.200089 0.44953 1.38275e-38 3
-0.0617005 0.2055 0.445362 1.18007e-38 3
-0.0544341 0.2055 0.445362 0 3
-0.0471581 0.205459 0.445272 1.35528e-38 3
-0.0396918 0.204421 0.443023 1.34606e-38 3
-0.0322039 0.202786 0.439479 1.50286e-38 3
-0.0249714 0.202283 0.438388 1.28159e-38 3
-0.0177882 0.201936 0.437637 1.3462e-38 3
-0.0106286 0.201571 0.436845 1.41066e-38 3
-0.00350574 0.201831 0.437411 1.40141e-38 3
-0.0249434 0.209201 0.437898 1.29081e-38 3
-0.017775 0.208921 0.437313 1.36457e-38 3
-0.0105813 0.207769 0.434901 1.38301e-38 3
-0.00346906 0.206781 0.432833 1.44743e-38 3
-0.0552186 0.223204 0.451781 1.20773e-38 3
-0.00343247 0.211588 0.428269 1.23539e-38 3
-0.0614697 0.22645 0.443697 1.26294e-38 3
-0.068338 0.232427 0.441302 1.22606e-38 3
-0.0967803 0.238744 0.439674 1.21691e-38 3
-0.0964614 0.245107 0.438226 1.46577e-38 3
-0.0529337 0.256365 0.433086 1.3368e-38 3
-0.0522057 0.259808 0.42713 0 3
0.665161 0.332918 0.776409 0 3
0.660337 0.343079 0.770778 0 3
0.660861 0.355937 0.77139 0 3
0.603743 0.357072 0.747421 0 3
0.666248 0.351448 0.735648 0 3
0.637625 0.347836 0.704043 0 3
0.637404 0.359198 0.703799 0 3
0.333576 0.180725 0.421474 0 3
0.342087 0.181592 0.423497 0 3
0.349729 0.181973 0.424385 0 3
0.358194 0.182759 0.426219 0 3
0.310615 0.186203 0.418333 0 3
0.317543 0.186264 0.418469 0 3
0.324123 0.186122 0.41815 0 3
0.330864 0.186076 0.418047 0 3
0.337984 0.186241 0.418418 0 3
0.34743 0.187656 0.421596 0 3
0.35707 0.189118 0.424882 0 3
0.309751 0.192492 0.41717 0 3
0.315946 0.192121 0.416365 0 3
0.320629 0.190864 0.413642 0 3
0.32691 0.190592 0.413052 0 3
0.335823 0.191833 0.415742 0 3
0.349193 0.195521 0.423735 0 3
0.359719 0.197505 0.428033 0 3
0.31661 0.191113 0.400037 0 3
0.501651 0.342361 0.798431 0 3
0.516945 0.348142 0.782152 0 3
0.513288 0.357236 0.72307 0 3
0.585205 0.365308 0.739407 0 3
0.546692 0.367696 0.720449 0 3
0.139328 0.209135 0.48773 0 3
0.146597 0.208156 0.485449 0 3
0.131384 0.217115 0.48778 1.25379e-38 3
0.132476 0.206416 0.463743 1.19847e-38 3
0.13275 0.235454 0.49285 1.2629e-38 3
0.167501 0.200116 0.418881 1.3551e-38 3
0.116393 0.201299 0.407443 1.49339e-38 3
0.123666 0.202322 0.409513 1.19847e-38 3
0.130644 0.202782 0.410445 1.33684e-38 3
0.137781 0.203433 0.411761 1.4474e-38 3
0.145228 0.204458 0.413837 1.47495e-38 3
0.152286 0.20487 0.41467 1.49339e-38 3
0.158822 0.204574 0.414072 1.56715e-38 3
0.160065 0.204295 0.400287 1.5396e-38 3
0.16749 0.205391 0.402435 1.45651e-38 3
0.141256 0.256777 0.422147 1.3552e-38 3
0.144528 0.257229 0.411843 1.41052e-38 3
0.143308 0.261721 0.408368 1.31825e-38 3
0.143308 0.268384 0.408368 1.59484e-38 3
0.166809 0.269948 0.400798 1.51172e-38 3
0.166809 0.276487 0.400798 1.37343e-38 3
0.167915 0.284903 0.403455 1.25354e-38 3
0.142716 0.293816 0.40668 1.38286e-38 3
0.204511 0.202686 0.491387 1.23542e-38 3
0.21016 0.200426 0.48591 1.41974e-38 3
0.218605 0.201523 0.469978 0 3
0.225833 0.201131 0.469064 0 3
0.233059 0.200763 0.468205 0 3
0.239869 0.200071 0.466593 0 3
0.223048 0.206209 0.463278 1.23539e-38 3
0.229399 0.205129 0.460853 0 3
0.234684 0.203195 0.456507 0 3
0.240583 0.201895 0.453587 0 3
0.246603 0.200771 0.451061 0 3
0.267723 0.200055 0.449452 0 3
0.275672 0.200503 0.450459 0 3
0.285662 0.202374 0.454662 0 3
0.290545 0.200623 0.450729 0 3
0.238642 0.207606 0.449926 0 3
0.24133 0.20368 0.441416 0 3
0.248012 0.203254 0.440493 0 3
0.256967 0.204662 0.443545 0 3
0.267819 0.207463 0.449615 0 3
0.239264 0.209077 0.437638 1.18925e-38 3
0.244727 0.207653 0.434658 1.28145e-38 3
0.222209 0.244603 0.495093 1.27226e-38 3
0.225089 0.209664 0.424374 0 3
0.232753 0.210333 0.425729 0 3
0.231211 0.202885 0.410653 0 3
0.201308 0.245143 0.465444 1.4013e-38 3
0.23334 0.258128 0.402762 1.21695e-38 3
0.0456093 0.32862 0.7967 0 3
0.0586344 0.341773 0.797059 0 3
0.0581358 0.35176 0.790281 1.46605e-38 3
0.00374565 0.186124 0.451235 1.33691e-38 3
0.0110613 0.185344 0.449344 1.39233e-38 3
0.0184238 0.185658 0.450105 0 3
0.00369601 0.190922 0.445255 1.26315e-38 3
0.0109365 0.190501 0.444274 1.26326e-38 3
0.0182496 0.191177 0.445851 1.42003e-38 3
0.0258289 0.193461 0.451178 1.25401e-38 3
0.0107817 0.194951 0.437987 1.35528e-38 3
0.0179864 0.195589 0.439419 1.33687e-38 3
0.0252692 0.196471 0.4414 1.45684e-38 3
0.0386854 0.198604 0.430416 1.24471e-38 3
0.0437008 0.189883 0.411515 1.39215e-38 3
0.0494495 0.186247 0.403635 0 3
0.0556378 0.184926 0.400774 1.18932e-38 3
0.0620581 0.184573 0.400009 1.51194e-38 3
0.0695668 0.187217 0.405738 1.25379e-38 3
0.0428978 0.192984 0.403954 0 3
0.0360229 0.198014 0.400793 1.2172e-38 3
0.094706 0.197659 0.400076 1.31833e-38 3
-0.018265 0.185353 0.449368 0 3
-0.010962 0.185839 0.450545 1.19861e-38 3
-0.00362842 0.186735 0.452717 1.28159e-38 3
-0.0552346 0.193776 0.451912 1.40123e-38 3
-0.0478424 0.193699 0.451733 1.29992e-38 3
-0.0403982 0.193346 0.450908 1.3645e-38 3
-0.0328977 0.192505 0.448948 1.55814e-38 3
-0.0254826 0.191826 0.447363 1.53981e-38 3
-0.0181164 0.191117 0.445711 1.46598e-38 3
-0.0108895 0.191913 0.447567 1.33691e-38 3
-0.00359055 0.192096 0.447993 0 3
-0.0548092 0.1996 0.448432 1.45665e-38 3
-0.0474336 0.199351 0.447873 1.33684e-38 3
-0.0400233 0.19884 0.446723 1.39223e-38 3
-0.0324796 0.197291 0.443242 1.38301e-38 3
-0.0251404 0.196451 0.441356 1.39223e-38 3
-0.0229275 0.19886 0.402507 1.34606e-38 3
-0.00977484 0.198488 0.401754 1.21698e-38 3
-0.0973513 0.328536 0.796497 1.36435e-38 3
-0.031875 0.349057 0.784208 1.31858e-38 3
-0.0961285 0.375738 0.786492 1.20773e-38 3
-0.0746371 0.222218 0.53874 1.62228e-38 3
-0.0304373 0.220405 0.534346 1.254e-38 3
-0.0743854 0.230229 0.536924 1.63157e-38 3
-0.0826303 0.237507 0.533596 1.23528e-38 3
-0.0820053 0.244351 0.52956 1.2446e-38 3
-0.0730876 0.252034 0.527556 1.20773e-38 3
-0.0382876 0.24962 0.522503 1.26308e-38 3
0.818722 0.300127 0.79013 0 3
0.886644 0.305332 0.770729 0 3
0.843984 0.341063 0.766249 0 3
0.207855 0.189702 0.499421 0 3
0.215934 0.189641 0.49926 1.21695e-38 3
0.224079 0.189641 0.49926 1.23542e-38 3
0.25927 0.185675 0.488819 1.21688e-38 3
0.265642 0.184561 0.485886 1.37361e-38 3
0.276305 0.186407 0.490744 1.20773e-38 3
0.206064 0.196146 0.495118 0 3
0.213314 0.195387 0.493202 1.31833e-38 3
0.22023 0.194389 0.490682 1.2262e-38 3
0.227929 0.194128 0.490023 0 3
0.236072 0.194249 0.49033 1.28148e-38 3
0.24216 0.192728 0.486489 0 3
0.248547 0.191533 0.483474 0 3
0.254181 0.18985 0.479224 0 3
0.260728 0.188928 0.476896 0 3
0.269729 0.189787 0.479065 0 3
0.216164 0.198659 0.481624 1.24457e-38 3
0.223272 0.197994 0.480012 1.24468e-38 3
0.231145 0.198028 0.480097 0 3
0.237652 0.19693 0.477432 0 3
0.241833 0.194034 0.470413 0 3
0.246255 0.191505 0.46428 0 3
0.251468 0.189723 0.45996 0 3
0.257519 0.188658 0.457379 0 3
0.265199 0.188813 0.457755 0 3
0.272027 0.188369 0.456678 0 3
0.277938 0.187331 0.454162 0 3
0.242985 0.196436 0.458115 0 3
0.248902 0.195215 0.455267 0 3
0.255252 0.194393 0.453351 0 3
0.262158 0.194031 0.452505 0 3
0.268492 0.193276 0.450745 0 3
0.275686 0.193163 0.450481 0 3
0.252407 0.199541 0.448299 0 3
0.259548 0.199408 0.448 0 3
0.232641 0.19839 0.401556 0 3
0.229069 0.22685 0.597216 1.22627e-38 3
0.297762 0.220008 0.579206 1.23531e-38 3
0.23319 0.231023 0.583156 1.33691e-38 3
0.23203 0.239341 0.580255 0 3
0.250025 0.238866 0.557068 1.18925e-38 3
0.254193 0.243246 0.546488 1.32762e-38 3
0.277293 0.248887 0.539391 0 3
0.28394 0.255748 0.53533 0 3
-0.316378 0.300744 0.791755 0 3
-0.30346 0.300744 0.791755 0 3
-0.348976 0.395396 0.750724 0 3
-0.420786 0.332177 0.874508 0 3
-0.418012 0.344162 0.868743 0 3
-0.423145 0.362736 0.879411 0 3
-0.429079 0.383905 0.862499 0 3
-0.428621 0.397551 0.861577 0 3
0.485988 0.178954 0.49227 0 3
0.468181 0.169595 0.466522 0 3
0.458726 0.163511 0.449788 0 3
0.465639 0.163362 0.449378 0 3
0.475257 0.164152 0.45155 0 3
0.47048 0.160021 0.440187 0 3
0.46362 0.155317 0.427247 0 3
0.482323 0.159189 0.437898 0 3
0.456272 0.169936 0.447382 0 3
0.468944 0.16172 0.425752 0 3
0.475006 0.161419 0.424961 0 3
0.445503 0.173052 0.436823 0 3
0.452111 0.172853 0.436322 0 3
0.456524 0.171835 0.433751 0 3
0.458869 0.170081 0.429323 0 3
0.461803 0.168595 0.425572 0 3
0.467956 0.168311 0.424854 0 3
0.474784 0.168274 0.424762 0 3
0.480248 0.167762 0.423469 0 3
0.497825 0.160083 0.404087 0 3
0.410779 0.183775 0.445541 0 3
0.414727 0.182315 0.442001 0 3
0.435942 0.176312 0.427448 0 3
0.443343 0.176482 0.42786 0 3
0.451238 0.176841 0.428729 0 3
0.454501 0.1754 0.425237 0 3
0.457439 0.17388 0.421551 0 3
0.465012 0.17414 0.422182 0 3
0.47375 0.174822 0.423836 0 3
0.479951 0.174563 0.423207 0 3
0.481438 0.17262 0.418498 0 3
0.48436 0.171239 0.415149 0 3
0.4882 0.170217 0.41267 0 3
0.489576 0.168374 0.408204 0 3
0.49057 0.166452 0.403543 0 3
0.49534 0.165844 0.40207 0 3
0.405292 0.188493 0.43959 0 3
0.412011 0.188285 0.439107 0 3
0.417013 0.187314 0.436842 0 3
0.421051 0.18595 0.43366 0 3
0.42338 0.183888 0.428852 0 3
0.425407 0.181765 0.4239 0 3
0.430373 0.180945 0.421988 0 3
0.436075 0.180455 0.420846 0 3
0.440003 0.179258 0.418054 0 3
0.445913 0.178893 0.417202 0 3
0.453558 0.179224 0.417975 0 3
0.461983 0.179849 0.419432 0 3
0.420939 0.189785 0.426379 0 3
0.422731 0.187494 0.421234 0 3
0.428609 0.18706 0.420258 0 3
0.434499 0.186645 0.419325 0 3
0.439422 0.185833 0.417502 0 3
0.445903 0.185695 0.417192 0 3
0.453558 0.186044 0.417975 0 3
0.565848 0.211862 0.582793 0 3
0.546942 0.207017 0.545004 0 3
0.524941 0.207224 0.523081 0 3
0.515824 0.212012 0.513997 0 3
0.500581 0.229485 0.515572 0 3
0.450995 0.207151 0.569833 0 3
0.482019 0.219532 0.532228 0 3
0.474459 0.224636 0.523881 0 3
0.446835 0.306254 0.842447 1.22617e-38 3
0.486666 0.319078 0.840022 0 3
0.481253 0.329083 0.83068 0 3
0.30149 0.213195 0.586458 0 3
0.391248 0.216432 0.504747 0 3
0.366793 0.224821 0.505093 0 3
0.365662 0.232343 0.503536 0 3
0.395527 0.309124 0.850342 1.26301e-38 3
0.39112 0.319399 0.840866 1.2907e-38 3
0.359382 0.385369 0.898733 0 3
-0.269374 0.203516 0.559834 0 3
-0.262905 0.244453 0.511687 0 3
-0.260021 0.250029 0.506075 0 3
-0.257834 0.256113 0.501818 0 3
-0.317176 0.231772 0.63756 0 3
-0.31713 0.248005 0.682215 0 3
-0.311569 0.237893 0.626289 0 3
-0.303587 0.241755 0.610244 0 3
-0.305528 0.25332 0.614145 0 3
1.04481 0.302475 0.871148 0 3
1.03181 0.317064 0.872182 0 3
1.0469 0.318565 0.838671 0 3
0.168902 0.205292 0.591254 0 3
0.149927 0.202348 0.556621 1.20769e-38 3
0.166853 0.212331 0.584082 1.26301e-38 3
0.180447 0.217224 0.597541 1.21698e-38 3
0.133647 0.200625 0.528175 1.30925e-38 3
0.14676 0.206963 0.544863 1.22613e-38 3
0.159833 0.212526 0.559507 1.22606e-38 3
0.17105 0.215153 0.566422 1.55796e-38 3
0.175195 0.209071 0.550411 1.29067e-38 3
0.107256 0.208197 0.525538 1.23542e-38 3
0.11391 0.204746 0.516825 0 3
0.122343 0.204747 0.516828 0 3
0.132565 0.207549 0.5239 1.26315e-38 3
0.145417 0.213878 0.539878 1.24457e-38 3
0.155891 0.216189 0.54571 1.37357e-38 3
0.164823 0.216226 0.545803 1.30903e-38 3
0.17327 0.215656 0.544365 1.32755e-38 3
0.107189 0.216635 0.525206 1.2078e-38 3
0.113951 0.213255 0.517011 1.21702e-38 3
0.123079 0.214461 0.519936 1.19862e-38 3
0.133094 0.216959 0.525991 1.26315e-38 3
0.143977 0.220482 0.534532 1.19854e-38 3
0.154388 0.222921 0.540446 0 3
0.164551 0.224759 0.544901 0 3
0.17327 0.224538 0.544365 0 3
0.10766 0.226195 0.527518 1.38301e-38 3
0.115926 0.225532 0.525971 0 3
0.124002 0.224617 0.523836 1.26315e-38 3
0.13147 0.222789 0.519573 1.20776e-38 3
0.135516 0.215735 0.503122 0 3
0.162075 0.218337 0.509191 0 3
0.108076 0.235709 0.529556 0 3
0.116232 0.234732 0.52736 1.25393e-38 3
0.123814 0.232809 0.52304 1.26308e-38 3
0.128103 0.225343 0.506266 0 3
0.143455 0.245752 0.532596 1.29063e-38 3
0.05346 0.206522 0.594798 0 3
0.0623184 0.203756 0.586831 0 3
0.071575 0.202855 0.584236 1.20776e-38 3
0.0532905 0.215541 0.592914 0 3
0.0622494 0.213094 0.586181 1.20776e-38 3
0.0703589 0.208778 0.574309 1.19854e-38 3
0.0777029 0.203472 0.559714 1.2262e-38 3
0.0858924 0.201264 0.553638 1.28152e-38 3
0.0946542 0.200689 0.552057 1.2262e-38 3
0.0534281 0.225796 0.594444 1.37371e-38 3
0.0617675 0.220934 0.581643 0 3
0.069407 0.215197 0.56654 1.30914e-38 3
0.0774604 0.211941 0.557967 1.29074e-38 3
0.0858199 0.210119 0.553171 1.29996e-38 3
0.0943795 0.209087 0.550454 1.2262e-38 3
0.053503 0.235825 0.595277 1.25386e-38 3
0.0618937 0.230895 0.582832 1.30918e-38 3
0.069091 0.223419 0.56396 1.25386e-38 3
0.0764032 0.218028 0.550352 1.18932e-38 3
0.083755 0.213872 0.539861 0 3
0.0916866 0.211846 0.534748 0 3
0.0999562 0.210886 0.532325 1.30918e-38 3
0.0837661 0.222709 0.539933 1.25386e-38 3
0.0916643 0.220518 0.534619 0 3
0.0997008 0.21901 0.530965 1.29081e-38 3
0.0997069 0.227687 0.530997 0 3
0.0043344 0.232418 0.522161 1.2539e-38 3
0.099999 0.237043 0.532553 0 3
-0.499212 0.223699 0.644269 0 3
-0.450934 0.242999 0.699855 0 3
-0.439516 0.242999 0.699855 0 3
-0.494681 0.232085 0.638421 0 3
-0.480285 0.230177 0.633174 0 3
-0.499914 0.240013 0.631871 0 3
-0.489366 0.239896 0.631562 0 3
-0.477829 0.239278 0.629936 0 3
-0.49493 0.247826 0.62557 0 3
-0.484036 0.247475 0.624684 0 3
-0.492214 0.256617 0.622137 0 3
0.164457 0.202035 0.610567 0 3
0.174843 0.202527 0.612054 1.23535e-38 3
0.181527 0.208716 0.601118 0 3
0.191216 0.208587 0.600745 1.19854e-38 3
0.143145 0.229694 0.604704 1.24471e-38 3
0.106199 0.26559 0.619392 1.32769e-38 3
0.106553 0.276613 0.621453 1.23542e-38 3
0.105145 0.185288 0.559956 1.30911e-38 3
0.114296 0.185312 0.560029 0 3
0.124207 0.186474 0.56354 0 3
0.138453 0.193536 0.584882 1.1801e-38 3
0.103406 0.19121 0.550699 0 3
0.111563 0.189801 0.546639 0 3
0.119984 0.189017 0.544382 0 3
0.12936 0.189741 0.546467 0 3
0.141402 0.194031 0.558822 0 3
0.154109 0.198657 0.572147 0 3
0.103123 0.199646 0.549188 1.32755e-38 3
0.111265 0.19819 0.545182 1.46591e-38 3
0.11948 0.197067 0.542095 1.34606e-38 3
0.128204 0.196882 0.541584 1.33684e-38 3
0.138324 0.198727 0.54666 1.21698e-38 3
0.198407 0.188045 0.517276 1.35546e-38 3
0.0634282 0.197639 0.597281 1.23542e-38 3
0.0720591 0.19463 0.588188 1.3645e-38 3
0.0815491 0.194376 0.587419 1.3645e-38 3
0.0902303 0.19245 0.581599 1.2723e-38 3
0.0968184 0.186851 0.564679 1.18932e-38 3
0.0794332 0.198668 0.572178 1.20776e-38 3
0.0870959 0.194924 0.561396 1.37371e-38 3
0.0951788 0.192744 0.555116 1.38293e-38 3
-0.769783 0.328734 0.99346 0 3
-0.746772 0.34183 0.984494 0 3
-0.719178 0.352244 0.968957 0 3
-0.718425 0.367668 0.967942 0 3
-0.730532 0.381535 0.963083 0 3
-0.743301 0.395682 0.959284 0 3
0.60685 0.168334 0.535103 0 3
0.607652 0.166166 0.528211 0 3
0.617082 0.166385 0.528907 0 3
0.626537 0.166604 0.529604 0 3
0.634343 0.166385 0.528909 0 3
0.635511 0.164455 0.522771 0 3
0.642095 0.163958 0.521192 0 3
0.600594 0.175239 0.529587 0 3
0.607503 0.174741 0.528081 0 3
0.616619 0.174883 0.52851 0 3
0.624716 0.174736 0.528065 0 3
0.633713 0.174841 0.528383 0 3
0.639293 0.174013 0.525882 0 3
0.601045 0.184018 0.529984 0 3
0.609273 0.183891 0.52962 0 3
0.617914 0.183891 0.52962 0 3
0.626631 0.183914 0.529685 0 3
0.600217 0.1924 0.529255 0 3
0.609273 0.192532 0.52962 0 3
0.617914 0.192532 0.52962 0 3
0.104182 0.191148 0.607626 0 3
0.114096 0.191148 0.607626 0 3
0.124279 0.191563 0.608944 1.23535e-38 3
0.135825 0.193862 0.616252 0 3
0.146408 0.194565 0.618488 0 3
0.155842 0.193748 0.61589 0 3
0.168251 0.196505 0.624654 1.18003e-38 3
0.177215 0.195153 0.620357 0 3
0.183187 0.190831 0.606616 1.18929e-38 3
0.192494 0.190247 0.604761 0 3
0.152779 0.199791 0.603785 1.18932e-38 3
0.182503 0.199978 0.604349 1.22613e-38 3
0.191919 0.199516 0.602952 0 3
0.0833977 0.214149 0.68074 0 3
0.0575024 0.2117 0.639775 0 3
0.0389353 0.236147 0.680119 0 3
0.044977 0.212288 0.611404 0 3
0.0351623 0.223284 0.614211 1.23542e-38 3
0.0444083 0.219453 0.603674 1.33691e-38 3
0.0351623 0.233305 0.614211 1.32755e-38 3
0.0444202 0.229363 0.603834 1.35528e-38 3
0.0251482 0.243396 0.614387 1.18018e-38 3
0.0350306 0.242415 0.611911 1.28148e-38 3
0.044417 0.239199 0.603792 0 3
0.0883823 0.262599 0.63664 1.25386e-38 3
0.0450667 0.247646 0.78722 0 3
0.057667 0.246603 0.783907 0 3
0.0704506 0.246582 0.783838 0 3
0.0825848 0.244642 0.777672 0 3
0.0532047 0.239322 0.723249 0 3
0.0293937 0.261053 0.718107 1.3184e-38 3
0.0293937 0.272769 0.718107 1.30925e-38 3
0.0173193 0.278725 0.703565 0 3
-0.220268 0.217893 0.692641 0 3
-0.228121 0.248046 0.682326 0 3
-0.203494 0.23262 0.639893 0 3
-0.397701 0.251485 0.799424 0 3
-0.384855 0.251614 0.799834 0 3
-0.393886 0.26199 0.791755 0 3
-0.381192 0.262144 0.792221 0 3
-0.366398 0.260815 0.788203 0 3
-0.351628 0.259405 0.783943 0 3
-0.338792 0.25937 0.783838 0 3
-0.326428 0.259709 0.78486 0 3
-0.318927 0.264101 0.798134 0 3
-0.349419 0.260992 0.751677 0 3
-0.346692 0.268375 0.772938 0 3
-0.337422 0.271059 0.780668 0 3
-0.326153 0.272284 0.784198 0 3
-0.316322 0.27486 0.791617 0 3
-0.304391 0.275752 0.794184 0 3
-0.346005 0.280429 0.771407 0 3
-0.337545 0.283899 0.780953 0 3
-0.327951 0.286651 0.788522 0 3
-0.31635 0.287801 0.791685 0 3
-0.303351 0.287723 0.79147 0 3
-0.540584 0.206432 0.65621 0 3
-0.53166 0.207127 0.658418 0 3
-0.526972 0.209534 0.66607 0 3
-0.533656 0.214356 0.6478 0 3
-0.524549 0.214955 0.649611 0 3
-0.518378 0.216807 0.655208 0 3
-0.52264 0.220282 0.634428 0 3
-0.513901 0.220975 0.636424 0 3
-0.507767 0.22284 0.641796 0 3
-0.520533 0.229703 0.631871 0 3
-0.510505 0.22983 0.632219 0 3
-0.501957 0.230642 0.634452 0 3
-0.519278 0.239434 0.630347 0 3
-0.508856 0.239369 0.630176 0 3
1.04694 0.263956 0.884965 0 3
1.09592 0.276183 0.877935 0 3
1.06571 0.286241 0.865043 0 3
0.438792 0.208305 0.698384 0 3
0.44578 0.201174 0.674477 0 3
0.490932 0.20164 0.676039 0 3
0.46869 0.203035 0.64541 0 3
0.246145 0.169747 0.56911 0 3
0.259858 0.172689 0.578976 0 3
0.268429 0.172128 0.577094 0 3
0.279419 0.173103 0.580364 1.19851e-38 3
0.289342 0.173375 0.581275 0 3
0.246145 0.179032 0.56911 0 3
0.259858 0.182136 0.578976 0 3
0.268393 0.181519 0.577016 1.18007e-38 3
0.278569 0.182017 0.578598 1.37368e-38 3
0.287289 0.181562 0.577152 1.23539e-38 3
0.204055 0.185507 0.510295 1.18028e-38 3
0.212632 0.185727 0.510899 1.30003e-38 3
0.217421 0.182746 0.502699 1.23542e-38 3
0.22603 0.183075 0.503606 0 3
0.200252 0.190221 0.500785 1.32769e-38 3
0.26946 0.19311 0.647442 0 3
0.201835 0.189752 0.603187 0 3
0.201756 0.199516 0.602952 1.1801e-38 3
0.211594 0.199516 0.602952 1.19854e-38 3
0.230073 0.205081 0.687577 0 3
0.26946 0.203674 0.647442 0 3
0.201649 0.209242 0.602631 1.2262e-38 3
0.21245 0.2102 0.605392 1.27234e-38 3
0.235681 0.233297 0.641754 1.41067e-38 3
-0.240569 0.225632 0.756476 0 3
-0.221168 0.218653 0.73308 0 3
-0.208627 0.218047 0.731048 0 3
-0.25663 0.241473 0.767599 0 3
-0.230688 0.240035 0.725406 0 3
-0.20197 0.264418 0.799092 0 3
-0.287352 0.27189 0.783062 0 3
-0.25906 0.256527 0.738815 0 3
-0.282974 0.280329 0.771132 0 3
-0.249992 0.259179 0.712951 0 3
-0.505109 0.228047 0.764574 0 3
-0.541377 0.251578 0.799722 0 3
-0.532195 0.260138 0.786159 0 3
-0.516496 0.271455 0.78181 0 3
-0.598772 0.259098 0.712728 0 3
-0.598695 0.270691 0.712637 0 3
-0.57297 0.281106 0.709577 0 3
-0.540584 0.195725 0.65621 0 3
-0.531234 0.196227 0.65789 0 3
-0.526468 0.198477 0.665433 0 3
-0.622012 0.220834 0.740391 0 3
-0.622012 0.232914 0.740391 0 3
-0.613462 0.241626 0.730213 0 3
-0.60089 0.248344 0.715249 0 3
0.871758 0.253154 0.897864 0 3
0.891272 0.293875 0.888115 0 3
0.83031 0.296929 0.855175 0 3
0.523689 0.16015 0.568007 0 3
0.534083 0.160489 0.569207 0 3
0.52741 0.155775 0.552489 0 3
0.50722 0.161236 0.540578 0 3
0.516567 0.161401 0.54113 0 3
0.528897 0.162477 0.544736 0 3
0.542645 0.163945 0.549659 0 3
0.562445 0.167164 0.560452 0 3
0.500381 0.167763 0.533288 0 3
0.510972 0.168386 0.535268 0 3
0.525804 0.170362 0.54155 0 3
0.540697 0.172292 0.547686 0 3
0.55142 0.172853 0.549467 0 3
0.507882 0.176048 0.532031 0 3
0.521818 0.177839 0.537444 0 3
0.539196 0.180725 0.546165 0 3
0.569009 0.187712 0.540625 0 3
0.552084 0.176652 0.508771 0 3
0.583732 0.184012 0.529967 0 3
0.594714 0.184737 0.532056 0 3
0.560927 0.18243 0.50183 0 3
0.55478 0.194198 0.511255 0 3
0.48053 0.161216 0.571788 0 3
0.402876 0.187138 0.594877 0 3
0.411183 0.186504 0.592861 0 3
0.423733 0.187778 0.596913 0 3
0.499301 0.176083 0.532138 0 3
0.452397 0.198469 0.571604 0 3
0.454439 0.221161 0.784396 0 3
0.457318 0.20003 0.709448 0 3
0.472322 0.2302 0.771794 0 3
0.451908 0.209102 0.701056 0 3
0.482128 0.229479 0.729472 0 3
0.463636 0.262617 0.931426 0 3
0.47821 0.277452 0.930214 0 3
0.473827 0.289947 0.921689 0 3
0.239536 0.223647 0.793212 0 3
0.23278 0.206198 0.731325 0 3
0.256327 0.215985 0.766037 0 3
0.280515 0.225377 0.799348 0 3
0.21544 0.238568 0.799849 0 3
0.237286 0.234366 0.78576 0 3
0.222878 0.208851 0.700216 0 3
-0.0374567 0.244792 0.921534 0 3
-0.0372397 0.258322 0.916194 0 3
-0.0219109 0.2833 0.900558 0 3
-0.187497 0.210655 0.793021 0 3
-0.175783 0.212132 0.798584 0 3
-0.183343 0.21864 0.775453 0 3
-0.174419 0.223414 0.792387 0 3
-0.195465 0.216679 0.726461 0 3
-0.18376 0.216853 0.727042 0 3
-0.176792 0.223028 0.747746 0 3
-0.194899 0.22787 0.724357 0 3
-0.181679 0.226125 0.718809 0 3
-0.205119 0.215577 0.81155 0 3
-0.296133 0.23812 0.844542 0 3
-0.279116 0.235389 0.834857 0 3
-0.207815 0.231825 0.822217 0 3
-0.29242 0.248741 0.833954 0 3
-0.268341 0.239397 0.802628 0 3
-0.290283 0.26043 0.827858 0 3
-0.438707 0.207084 0.779581 0 3
-0.428597 0.208353 0.784358 0 3
-0.457113 0.216473 0.767769 0 3
-0.449277 0.218757 0.775869 0 3
-0.432742 0.216815 0.768982 0 3
-0.424808 0.219195 0.777423 0 3
-0.422214 0.224562 0.796457 0 3
-0.480219 0.2223 0.745305 0 3
-0.462489 0.219655 0.736437 0 3
-0.452767 0.220773 0.740185 0 3
-0.442779 0.221819 0.743694 0 3
-0.438271 0.225747 0.756862 0 3
-0.432443 0.229203 0.76845 0 3
-0.42592 0.232486 0.779458 0 3
-0.420664 0.236684 0.793532 0 3
-0.498243 0.237252 0.754182 0 3
-0.480155 0.234429 0.745207 0 3
-0.462489 0.23167 0.736437 0 3
-0.452767 0.232849 0.740185 0 3
-0.442779 0.233953 0.743694 0 3
-0.438429 0.238182 0.757136 0 3
-0.435186 0.243274 0.773325 0 3
-0.426886 0.24576 0.781226 0 3
-0.418137 0.248132 0.788766 0 3
-0.408918 0.250367 0.79587 0 3
-0.466334 0.233575 0.705881 0 3
-0.460624 0.236557 0.714893 0 3
-0.453925 0.239173 0.7228 0 3
-0.448269 0.242493 0.732832 0 3
-0.438926 0.243945 0.737222 0 3
-0.433562 0.247754 0.748731 0 3
-0.429426 0.252504 0.763088 0 3
-0.42373 0.256595 0.775451 0 3
-0.416026 0.259683 0.784783 0 3
-0.406393 0.261725 0.790955 0 3
-0.431173 0.244745 0.704883 0 3
-0.42935 0.250389 0.721138 0 3
-0.423396 0.253874 0.731174 0 3
0.606769 0.20832 0.835552 0 3
0.614176 0.206229 0.827167 0 3
0.623926 0.204999 0.822232 0 3
0.63156 0.203139 0.814772 0 3
0.638988 0.201291 0.807362 0 3
0.638988 0.214464 0.807362 0 3
0.625446 0.232394 0.824235 0 3
0.60247 0.242014 0.811401 0 3
0.629144 0.247295 0.829107 0 3
0.620223 0.238657 0.800147 0 3
0.632415 0.262179 0.833418 0 3
0.666164 0.286346 0.824697 0 3
0.663887 0.298777 0.821879 0 3
-0.158021 0.210136 0.842836 0 3
-0.168435 0.219538 0.826462 0 3
-0.157956 0.223796 0.842493 0 3
-0.167297 0.231447 0.820878 0 3
-0.101275 0.233625 0.828601 0 3
-0.395662 0.205014 0.822295 0 3
-0.388772 0.208515 0.836334 0 3
-0.382961 0.212869 0.853799 0 3
-0.373697 0.215561 0.864596 0 3
-0.393022 0.216973 0.816807 0 3
-0.382246 0.218431 0.822295 0 3
-0.375051 0.222115 0.836165 0 3
-0.367809 0.226049 0.850974 0 3
-0.356602 0.227759 0.85741 0 3
-0.342872 0.227931 0.858059 0 3
-0.328349 0.227568 0.856695 0 3
-0.319536 0.231307 0.870767 0 3
-0.392873 0.230212 0.816498 0 3
-0.379768 0.230344 0.816964 0 3
-0.371129 0.233292 0.827421 0 3
-0.364912 0.238043 0.84427 0 3
-0.3535 0.239645 0.849951 0 3
-0.339329 0.239431 0.849192 0 3
-0.325526 0.239469 0.849328 0 3
-0.312867 0.240389 0.852593 0 3
-0.399336 0.239422 0.802711 0 3
-0.384961 0.23863 0.800054 0 3
-0.37425 0.240133 0.805094 0 3
-0.367451 0.244346 0.819221 0 3
-0.360885 0.249039 0.834953 0 3
-0.349775 0.250841 0.840995 0 3
-0.336773 0.251378 0.842796 0 3
-0.323427 0.251693 0.843851 0 3
-0.310299 0.252213 0.845594 0 3
-0.372084 0.251802 0.800433 0 3
-0.363242 0.25476 0.809837 0 3
-0.354024 0.257668 0.81908 0 3
-0.343342 0.259696 0.825527 0 3
-0.330103 0.259877 0.826103 0 3
-0.318179 0.261154 0.83016 0 3
-0.306698 0.262922 0.835782 0 3
-0.389283 0.280909 0.809037 0 3
-0.421505 0.204534 0.820368 0 3
-0.406405 0.203675 0.816921 0 3
-0.465338 0.213466 0.803606 0 3
-0.431286 0.216113 0.813569 0 3
-0.421486 0.217909 0.820331 0 3
-0.406251 0.216921 0.816612 0 3
-0.415516 0.228017 0.808711 0 3
-0.405771 0.229972 0.815647 0 3
-0.412752 0.239607 0.803331 0 3
0.598424 0.201043 0.862832 0 3
0.594717 0.208875 0.837778 0 3
0.584482 0.2138 0.804862 0 3
0.596793 0.22662 0.803757 0 3
0.403962 0.162467 0.69727 0 3
0.414477 0.16213 0.695823 0 3
0.425384 0.16196 0.695096 0 3
0.407776 0.170678 0.684574 0 3
0.419422 0.170872 0.685352 0 3
0.432953 0.171804 0.689092 0 3
0.445155 0.172175 0.690579 0 3
0.461778 0.174195 0.698683 0 3
0.407776 0.181847 0.684574 0 3
0.419489 0.182083 0.685462 0 3
0.434037 0.183505 0.690816 0 3
0.445925 0.18376 0.691774 0 3
0.457819 0.184004 0.692693 0 3
0.473338 0.185658 0.69892 0 3
0.48539 0.185906 0.699855 0 3
0.413595 0.195771 0.694343 0 3
0.425919 0.196229 0.695969 0 3
0.456832 0.190189 0.674548 0 3
0.434136 0.176489 0.625955 0 3
0.43301 0.171985 0.609982 0 3
0.495244 0.192284 0.681976 0 3
0.424643 0.187019 0.627018 0 3
0.419053 0.180215 0.604207 0 3
0.427077 0.179444 0.601624 0 3
0.393877 0.163001 0.699562 0 3
0.356189 0.172743 0.692858 0 3
0.364395 0.171287 0.687016 0 3
0.374553 0.170808 0.685095 0 3
0.38672 0.171246 0.686852 0 3
0.39693 0.170817 0.685131 0 3
0.326319 0.180042 0.677777 0 3
0.3286 0.175358 0.660144 0 3
0.347537 0.179577 0.676029 0 3
0.363851 0.182223 0.685991 0 3
0.373149 0.181303 0.682526 1.42896e-38 3
0.38605 0.182136 0.685662 0 3
0.396914 0.181988 0.685104 0 3
0.327367 0.191714 0.679955 0 3
0.336398 0.204354 0.87704 0 3
0.300537 0.213518 0.856403 0 3
0.311045 0.211166 0.846969 0 3
0.323186 0.210075 0.842594 0 3
0.334507 0.208563 0.836526 0 3
0.340047 0.203705 0.817043 0 3
0.306719 0.221856 0.835189 0 3
0.314278 0.217653 0.819368 0 3
0.330297 0.219414 0.825998 0 3
0.33995 0.216974 0.816811 0 3
0.195918 0.207118 0.888901 0 3
0.168625 0.223895 0.898025 0 3
0.176232 0.215289 0.863505 0 3
0.186926 0.211449 0.848105 0 3
0.198323 0.208879 0.837796 0 3
0.165592 0.234256 0.881872 0 3
0.174947 0.227705 0.85721 0 3
0.186898 0.225253 0.847978 0 3
0.198323 0.222548 0.837796 0 3
0.10697 0.246186 0.873153 0 3
0.122129 0.24804 0.879727 0 3
0.136672 0.248385 0.88095 0 3
0.14921 0.245367 0.870246 0 3
0.160694 0.241291 0.855789 0 3
0.173236 0.239328 0.848829 0 3
0.184989 0.236646 0.839315 0 3
0.197384 0.235099 0.83383 0 3
0.191602 0.241418 0.809404 0 3
0.0688312 0.218015 0.935671 0 3
0.0868141 0.240817 0.965898 0 3
0.0961096 0.240408 0.905031 0 3
0.00732294 0.205553 0.882188 1.26315e-38 3
0.0216287 0.204723 0.878625 0 3
0.0356896 0.203161 0.87192 0 3
0.0500101 0.203546 0.873572 0 3
0.00723353 0.217261 0.871416 0 3
0.0214195 0.21694 0.870127 0 3
0.0349475 0.212867 0.853789 0 3
0.047987 0.208988 0.838233 0 3
0.0657215 0.222742 0.893399 0 3
0.00696883 0.223009 0.839529 0 3
0.0209568 0.226144 0.851332 0 3
0.0345143 0.223986 0.843207 0 3
0.0475821 0.220786 0.831161 0 3
0.0623957 0.225309 0.848188 0 3
0.0797587 0.235725 0.8874 0 3
0.00673445 0.228745 0.811293 0 3
0.0203344 0.232905 0.826048 0 3
0.0338045 0.232853 0.825865 0 3
0.0468212 0.230599 0.817869 0 3
0.0615885 0.236054 0.837215 0 3
0.0783788 0.245874 0.872047 0 3
0.0927385 0.246224 0.873286 0 3
0.00671709 0.241358 0.809202 0 3
0.0200707 0.243187 0.815335 0 3
0.0334489 0.243738 0.81718 0 3
0.0460509 0.23993 0.804413 0 3
0.0589577 0.239047 0.801453 0 3
0.0742085 0.246263 0.825648 0 3
0.0894995 0.251375 0.842787 0 3
0.00676786 0.256485 0.815318 0 3
0.0202506 0.258788 0.82264 0 3
0.0328535 0.252494 0.802632 0 3
0.0495014 0.286123 0.864686 0 3
0.0349421 0.296402 0.853659 0 3
-0.0209594 0.200721 0.861449 1.23542e-38 3
-0.00696753 0.202559 0.869337 1.24464e-38 3
-0.0878468 0.2068 0.829458 0 3
-0.0743136 0.2068 0.829458 0 3
-0.0610976 0.207879 0.833785 0 3
-0.0484919 0.212248 0.851308 0 3
-0.0349311 0.214265 0.859397 0 3
-0.0209562 0.214744 0.861319 0 3
-0.00692796 0.215512 0.8644 0 3
-0.0202865 0.221485 0.833793 0 3
-0.00665534 0.22058 0.830385 0 3
-0.0200444 0.232283 0.823842 0 3
-0.0065105 0.229033 0.812313 0 3
-0.021888 0.268326 0.899617 0 3
-0.00649687 0.241779 0.810613 0 3
-0.00652714 0.256193 0.81439 0 3
-0.41386 0.303231 1.3014 0 3
-0.413651 0.324301 1.30074 0 3
-0.488986 0.370439 1.39454 0 3
1.01258 0.202201 0.93314 0 1
1.02781 0.202201 0.93314 0 1
1.01131 0.217152 0.931965 0 1
1.02531 0.235575 0.944871 0 3
1.04504 0.236551 0.948786 0 3
1.05571 0.235479 0.944484 0 3
1.0701 0.235254 0.943584 0 3
1.07107 0.232128 0.931044 0 3
0.997357 0.202201 0.93314 0 1
0.968718 0.283307 0.949844 0 3
0.924328 0.285112 0.906318 0 3
0.510374 0.171564 0.791755 0 3
0.5981 0.157267 0.725776 0 1
0.593456 0.153017 0.70616 0 1
0.506991 0.178736 0.767092 0 3
0.594886 0.1682 0.721876 0 3
0.590522 0.163725 0.702669 0 3
0.527578 0.189653 0.760683 0 3
0.589344 0.178301 0.715151 0 3
0.51525 0.192807 0.725834 0 3
0.565842 0.197507 0.700501 0 3
0.404887 0.155824 0.719117 0 3
0.420477 0.157267 0.725776 0 3
0.440475 0.160235 0.739469 0 3
0.436084 0.154408 0.71258 0 3
0.487606 0.168167 0.776077 0 3
0.444866 0.164979 0.708052 0 3
0.474938 0.171673 0.736782 0 3
0.491876 0.181079 0.726293 0 3
0.443494 0.199021 0.705869 0 3
0.463725 0.197825 0.701628 0 3
0.304261 0.207132 0.955899 0 3
0.323806 0.20969 0.967701 0 3
0.331412 0.204637 0.944383 0 3
0.342691 0.202201 0.93314 0 3
0.304363 0.21194 0.909596 0 3
0.323249 0.214625 0.921123 0 3
0.333463 0.211571 0.908012 0 3
0.331099 0.296806 0.943491 0 3
0.220893 0.202201 0.93314 0 3
0.238962 0.204637 0.944383 0 3
0.257473 0.207132 0.955899 0 3
0.273069 0.207132 0.955899 0 3
0.288665 0.207132 0.955899 0 3
0.137743 0.214998 0.992199 0 3
0.152007 0.212311 0.979797 0 3
0.163896 0.207132 0.955899 0 3
0.105793 0.232123 0.996218 0 3
0.1215 0.231083 0.991754 0 3
0.136521 0.229136 0.983399 0 3
0.150838 0.22654 0.972259 0 3
0.163421 0.222082 0.953126 0 3
0.173584 0.215397 0.924436 0 3
0.184642 0.210802 0.904713 0 3
0.102929 0.241654 0.969252 0 3
0.119338 0.242863 0.974103 0 3
0.134015 0.24068 0.965345 0 3
0.147811 0.237538 0.952746 0 3
0.159328 0.231682 0.929258 0 3
0.112419 0.243755 0.917631 0 3
0.126682 0.242398 0.912523 0 3
0.141557 0.242375 0.912435 0 3
0.155826 0.241418 0.908831 0 3
-0.135741 0.212311 0.979797 0 3
-0.188218 0.230255 0.923531 0 3
-0.111307 0.22705 0.910678 0 3
-0.111148 0.241562 0.909375 0 3
-0.112658 0.274921 0.92173 0 3
-0.314781 0.253505 1.16991 0 3
-0.318168 0.275526 1.18249 0 3
-0.335636 0.293225 1.1761 0 3
-0.308888 0.28622 1.14801 0 3
1.05287 0.191536 0.955899 0 1
1.04581 0.184776 0.922162 0 1
1.04581 0.199822 0.922162 0 1
1.06085 0.199822 0.922162 0 1
0.708671 0.141495 0.70616 0 1
0.754164 0.14817 0.739469 0 1
0.708671 0.153017 0.70616 0 1
0.730058 0.155113 0.715833 0 1
0.70311 0.165945 0.712198 0 3
0.715231 0.166061 0.712697 0 3
0.728973 0.166544 0.71477 0 3
0.750655 0.168797 0.72444 0 3
0.70349 0.177661 0.712582 0 3
0.715142 0.177667 0.712608 0 3
0.726979 0.177719 0.712815 0 3
0.745281 0.179324 0.719254 0 3
0.791885 0.187584 0.752383 0 3
0.72572 0.186045 0.700375 0 3
0.603552 0.135982 0.678647 0 1
0.614625 0.135982 0.678647 0 1
0.631162 0.13717 0.684574 0 1
0.656669 0.140232 0.699855 0 1
0.611975 0.146421 0.675722 0 1
0.628418 0.147694 0.681598 0 1
0.656669 0.151651 0.699855 0 1
0.610125 0.15697 0.673679 0 3
0.629731 0.159147 0.683022 0 3
0.655545 0.16279 0.698657 0 3
0.607629 0.173527 0.696 0 3
0.617611 0.173142 0.694456 0 3
0.632121 0.174017 0.697966 0 3
0.656801 0.174523 0.699996 0 3
0.617178 0.181022 0.681467 0 3
0.629151 0.195868 0.694687 0 3
0.587394 0.134815 0.672822 0 1
0.599576 0.151651 0.699855 0 1
0.587394 0.145793 0.672822 0 1
0.598371 0.145793 0.672822 0 1
0.598791 0.162856 0.698939 0 3
0.596828 0.159288 0.683627 0 3
0.598583 0.156826 0.67306 0 3
0.585176 0.173603 0.696307 0 3
0.594508 0.173013 0.693939 0 3
0.575582 0.185533 0.698451 0 3
0.569985 0.180162 0.678232 0 3
0.580696 0.180052 0.677817 0 3
0.514582 0.176059 0.62443 0 3
0.543951 0.193054 0.647253 0 3
0.575736 0.186255 0.624458 0 3
0.568689 0.194039 0.616814 0 3
0.63303 0.160265 0.799834 0 1
0.639554 0.158646 0.791755 0 1
0.627133 0.152485 0.761007 0 1
0.609941 0.145426 0.725776 0 1
0.621783 0.145426 0.725776 0 1
0.674106 0.141495 0.70616 0 1
0.685628 0.141495 0.70616 0 1
0.697149 0.141495 0.70616 0 1
0.63303 0.173315 0.799834 0 1
0.614717 0.164902 0.761007 0 1
0.671083 0.152331 0.702993 0 1
0.685628 0.153017 0.70616 0 1
0.697149 0.153017 0.70616 0 1
0.626426 0.180695 0.775502 0 3
0.670999 0.16378 0.702905 0 3
0.686958 0.164858 0.70753 0 3
0.631424 0.194891 0.78169 0 3
0.646064 0.174708 0.700738 0 3
0.669886 0.174957 0.701739 0 3
0.685189 0.175947 0.705708 0 3
0.619712 0.188559 0.70984 0 3
0.639795 0.191098 0.719399 0 3
0.507713 0.161917 0.80808 0 1
0.526323 0.163604 0.816498 0 1
0.534082 0.175102 0.80808 0 3
0.597403 0.186647 0.86136 0 3
0.577689 0.198753 0.853001 0 3
0.357445 0.15398 0.768468 0 3
0.357445 0.166518 0.768468 0 3
0.377382 0.169849 0.783838 0 3
0.381421 0.155824 0.719117 0 3
0.393154 0.155824 0.719117 0 3
0.348995 0.181179 0.777578 0 3
0.340968 0.170803 0.733046 0 3
0.346548 0.167715 0.719793 0 3
0.356916 0.167071 0.717029 0 3
0.366276 0.166011 0.712479 0 3
0.374908 0.164696 0.706838 0 3
0.385561 0.164322 0.70523 0 3
0.338547 0.195156 0.782755 0 3
0.331767 0.184295 0.739193 0 3
0.33368 0.178856 0.717378 0 3
0.341887 0.177045 0.710113 0 3
0.350627 0.17562 0.704396 0 3
0.331558 0.196232 0.738727 0 3
0.33028 0.188619 0.710067 0 3
0.362474 0.174511 0.870931 0 3
0.368495 0.170717 0.851997 0 3
0.37426 0.167085 0.83387 0 3
0.344438 0.186647 0.86136 0 3
0.354595 0.184618 0.851997 0 3
0.360655 0.18069 0.83387 0 3
0.362685 0.175102 0.80808 0 3
0.342069 0.19932 0.855437 0 3
0.349714 0.195787 0.840271 0 3
0.353413 0.190393 0.817124 0 3
0.110986 0.209413 1.04512 0 3
0.124712 0.203974 1.01797 0 3
0.139509 0.201359 1.00492 0 3
0.106717 0.217755 1.00492 0 3
0.123113 0.217755 1.00492 0 3
0.639564 0.15854 0.86136 0 1
0.626097 0.151864 0.825092 0 1
0.639559 0.151864 0.825092 0 1
0.646219 0.150282 0.816498 0 1
0.65954 0.150282 0.816498 0 1
0.672862 0.150282 0.816498 0 1
0.612635 0.165326 0.825092 0 1
0.619575 0.163604 0.816498 0 1
0.632897 0.163604 0.816498 0 1
0.604811 0.184618 0.851997 0 3
0.612059 0.182633 0.842836 0 3
0.609428 0.177852 0.820772 0 3
0.619575 0.176926 0.816498 0 1
0.629618 0.176009 0.812267 0 1
0.604568 0.198439 0.851656 0 3
0.610338 0.195832 0.840466 0 3
0.614668 0.192888 0.82783 0 3
0.622704 0.191208 0.820621 0 3
0.632253 0.190054 0.815667 0 3
0.641471 0.18885 0.810499 0 3
0.623791 0.178112 0.967701 0 1
0.655771 0.182621 0.992199 0 1
0.655771 0.19881 0.992199 0 1
0.66356 0.196325 0.979797 0 1
0.311868 0.180339 0.979797 0 1
0.327854 0.180339 0.979797 0 1
0.34384 0.180339 0.979797 0 1
0.359826 0.180339 0.979797 0 1
0.371172 0.178112 0.967701 0 1
0.386961 0.178112 0.967701 0 1
0.311868 0.196325 0.979797 0 3
0.327854 0.196325 0.979797 0 3
0.34384 0.196325 0.979797 0 3
0.34682 0.189229 0.944383 0 3
0.357916 0.186976 0.93314 0 3
0.364463 0.182628 0.911439 0 3
0.345574 0.195228 0.900963 0 3
0.251062 0.182621 0.992199 0 1
0.26391 0.180339 0.979797 0 1
0.279896 0.180339 0.979797 0 1
0.295882 0.180339 0.979797 0 1
0.213285 0.193901 0.967701 0 3
0.231937 0.196325 0.979797 0 3
0.247924 0.196325 0.979797 0 3
0.26391 0.196325 0.979797 0 3
0.279896 0.196325 0.979797 0 3
0.295882 0.196325 0.979797 0 3
0.203248 0.199822 0.922162 0 3
0.165919 0.178112 0.967701 0 1
0.181708 0.178112 0.967701 0 1
0.152007 0.196325 0.979797 0 3
0.165919 0.193901 0.967701 0 3
0.175219 0.186976 0.93314 0 3
0.190443 0.186976 0.93314 0 3
0.173157 0.199822 0.922162 0 3
0.188203 0.199822 0.922162 0 3
0.0985324 0.201778 1.09628 0 1
0.0939342 0.209413 1.04512 0 3
0.0939342 0.226465 1.04512 0 3
0.0912492 0.236556 1.01524 0 3
0.0475321 0.213735 1.16124 0 1
0.0650333 0.209088 1.136 0 1
0.082374 0.206101 1.11977 0 1
0.0636496 0.22278 1.11183 0 3
0.0812138 0.221211 1.104 0 3
0.0636496 0.24092 1.11183 0 3
0.0812138 0.239223 1.104 0 3
0.00770006 0.170735 0.927618 0 1
0.0238214 0.178112 0.967701 0 1
0.00761 0.183696 0.916769 0 3
0.0225677 0.183696 0.916769 0 3
0.0386556 0.189229 0.944383 0 3
0.00756575 0.197498 0.911439 0 3
0.0223068 0.196357 0.906171 0 3
0.0370915 0.196357 0.906171 0 3
-0.0652699 0.163944 0.890724 0 1
-0.0507372 0.163944 0.890724 0 1
-0.0364113 0.164881 0.895814 0 1
-0.076333 0.170717 0.851997 0 1
-0.0624321 0.170717 0.851997 0 1
-0.0498868 0.175486 0.875796 0 3
-0.0357977 0.176472 0.880716 0 3
-0.0214282 0.176472 0.880716 0 3
-0.0878468 0.179734 0.829458 0 3
-0.0747089 0.18069 0.83387 0 3
-0.0614305 0.181656 0.838329 0 3
-0.0493356 0.187678 0.866119 0 3
-0.0353999 0.188721 0.870931 0 3
-0.0211901 0.188721 0.870931 1.24457e-38 3
-0.0878468 0.193267 0.829458 0 3
-0.0743136 0.193267 0.829458 0 3
-0.0610853 0.194236 0.833618 0 3
-0.0483423 0.197746 0.84868 0 3
-0.0348571 0.199819 0.857577 0 3
-0.0976649 0.169731 0.922162 0 1
-0.08072 0.165829 0.900963 0 1
-0.00739091 0.169731 0.922162 0 1
-0.0954197 0.180528 0.900963 0 1
-0.00734769 0.183696 0.916769 0 3
-0.00726274 0.196357 0.906171 0 3
-0.119755 0.180339 0.979797 0 1
-0.135741 0.196325 0.979797 0 1
-0.112711 0.184776 0.922162 0 1
-0.112711 0.199822 0.922162 0 3
-0.276606 0.21533 1.16991 0 1
-0.257518 0.21533 1.16991 0 1
-0.291345 0.23097 1.1527 0 3
-0.272538 0.23097 1.1527 0 3
-0.253731 0.23097 1.1527 0 3
-0.23843 0.234418 1.16991 0 3
-0.291345 0.249777 1.1527 0 3
-0.264751 0.242641 1.11977 0 3
-0.246481 0.242641 1.11977 0 3
-0.231519 0.246157 1.136 0 3
-0.212984 0.246157 1.136 0 3
-0.288166 0.265654 1.14013 0 3
-0.264721 0.260881 1.11964 0 3
-0.244397 0.258705 1.1103 0 3
-0.224804 0.257015 1.10305 0 3
-0.280017 0.276217 1.10788 0 3
-0.369502 0.225423 1.22475 0 3
-0.349519 0.225423 1.22475 0 3
-0.324467 0.221955 1.2059 0 3
-0.304792 0.221955 1.2059 0 3
-0.389484 0.245406 1.22475 0 3
-0.369502 0.245406 1.22475 0 3
-0.344142 0.24163 1.2059 0 3
-0.324467 0.24163 1.2059 0 3
-0.389484 0.265388 1.22475 0 3
-0.363817 0.261306 1.2059 0 3
-0.344142 0.261306 1.2059 0 3
-0.366089 0.282735 1.21344 0 3
-0.34382 0.280718 1.20478 0 3
-0.362588 0.29964 1.20183 0 3
0.313156 0.279749 1.66774 0 1
0.333276 0.273921 1.633 0 1
0.359919 0.273921 1.633 0 1
0.386563 0.273921 1.633 0 1
0.133373 0.182614 1.08866 0 1
0.146063 0.176486 1.05213 0 1
0.163229 0.176486 1.05213 0 1
0.128897 0.193652 1.05213 0 1
0.14318 0.18983 1.03137 0 1
0.156911 0.186156 1.0114 0 1
0.0103279 0.208702 1.24419 0 1
0.0306276 0.208702 1.24419 0 1
0.0501315 0.205441 1.22475 0 1
0.855392 0.148367 0.979797 0 1
0.871378 0.148367 0.979797 0 1
0.855392 0.164353 0.979797 0 1
0.871378 0.164353 0.979797 0 1
0.814659 0.171751 0.93314 0 1
1.02732 0.359677 2.37527 0 1
1.06607 0.359677 2.37527 0 1
1.02732 0.398431 2.37527 0 1
1.06607 0.398431 2.37527 0 1
-0.270101 0.407325 3.01476 0 1
-0.220914 0.407325 3.01476 0 1
-0.270101 0.456513 3.01476 0 1
-0.220914 0.456513 3.01476 0 1
-1.29683 0.302584 2.23954 0 1
-1.26029 0.302584 2.23954 0 1
-1.29683 0.339124 2.23954 0 1
-1.26029 0.339124 2.23954 0 1
0.442977 0.238758 2.00984 0 1
0.475769 0.238758 2.00984 0 1
0.475769 0.27155 2.00984 0 1
0.0306276 0.147803 1.24419 0 1
0.0509273 0.147803 1.24419 0 1
0.0106665 0.173614 1.28498 0 1
0.0306276 0.168102 1.24419 0 1
0.0509273 0.168102 1.24419 0 1
0.0701141 0.165476 1.22475 0 1
0.0900966 0.165476 1.22475 0 1
0.0106665 0.194579 1.28498 0 1
0.0306276 0.188402 1.24419 0 1
0.0501315 0.185458 1.22475 0 1
0.0701141 0.185458 1.22475 0 1
0.0900966 0.185458 1.22475 0 1
0.501487 0.2171 2.11848 0 1
0.536051 0.2171 2.11848 0 1
0.536051 0.251664 2.11848 0 1
0.536051 0.286228 2.11848 0 1
-0.184056 0.114471 1.32854 0 1
-0.159673 0.112563 1.3064 0 1
-0.138359 0.112563 1.3064 0 1
-0.184056 0.0927953 1.32854 0 1
-0.159673 0.0912487 1.3064 0 1
-0.138359 0.0912487 1.3064 0 1
1.09939 0.131126 2.44949 0 1
1.07624 0.173807 2.48837 0 1
1.08248 0.168459 2.41181 0 1
0.307102 0.341839 0.767992 1.24457e-38 3
0.321018 0.355905 0.771321 1.41041e-38 3
0.320078 0.367411 0.769062 1.45651e-38 3
0.303568 0.375063 0.759154 1.36432e-38 3
-0.157056 0.0478223 1.28498 0 1
-0.13609 0.0478223 1.28498 0 1
-0.115125 0.0478223 1.28498 0 1
-0.13609 0.0687875 1.28498 0 1
-0.115125 0.0687875 1.28498 0 1
1.00749 0.0224421 1.07375 0 1
1.02501 0.0224421 1.07375 0 1
1.00749 0.0399611 1.07375 0 1
0.98931 0.00561553 1.22475 0 1
0.969328 0.0255981 1.22475 0 1
0.984714 0.0463041 1.24419 0 1
0.296652 0.336752 0.886551 1.3645e-38 3
0.295905 0.350332 0.884318 1.29996e-38 3
0.295905 0.36476 0.884318 0 3
0.289888 0.371478 0.866336 0 3
0.970006 0.0059899 1.3064 0 1
0.99132 0.0059899 1.3064 0 1
0.947943 0.0292549 1.39971 0 1
0.925106 0.0520921 1.39971 0 1
0.947943 0.0520921 1.39971 0 1
0.041054 0.00764668 1.66774 0 1
0.0682642 0.00764668 1.66774 0 1
0.0138437 0.0348569 1.66774 0 1
0.041054 0.0348569 1.66774 0 1
-0.0317851 0.0059899 1.3064 0 1
-0.0317851 0.0273046 1.3064 0 1
-0.0317851 0.0486193 1.3064 0 1
-0.0106479 0.0494434 1.32854 0 1
-0.0317851 0.069934 1.3064 0 1
-0.0106479 0.0711193 1.32854 0 1
-0.0941599 0.00589171 1.28498 0 1
-0.0731946 0.00589171 1.28498 0 1
-0.0720141 0.0264238 1.26425 0 1
-0.0522294 0.026857 1.28498 0 1
-0.0941599 0.0478223 1.28498 0 1
-0.0720141 0.0470509 1.26425 0 1
-0.0505713 0.0463041 1.24419 0 1
-0.0941599 0.0687875 1.28498 0 1
-0.070871 0.0666038 1.24419 0 1
-0.0505713 0.0666038 1.24419 0 1
0.208525 0.205252 0.880895 0 3
0.222853 0.205211 0.880716 0 3
0.237319 0.205294 0.881076 0 3
0.253308 0.20661 0.886724 0 3
0.268957 0.207522 0.890636 0 3
0.283876 0.207806 0.891855 0 3
0.210309 0.20722 0.831143 0 3
0.222461 0.205917 0.825914 0 3
0.234648 0.204792 0.821403 0 3
0.249232 0.205769 0.82532 0 3
0.265549 0.208002 0.834277 0 3
0.285405 0.212654 0.852937 0 3
0.210309 0.220781 0.831143 0 3
0.222205 0.219139 0.824962 0 3
0.233505 0.217132 0.817405 0 3
0.247146 0.217399 0.818412 0 3
0.262349 0.218943 0.824224 0 3
0.276849 0.219779 0.82737 0 3
0.29415 0.222656 0.838203 0 3
0.210289 0.234319 0.831064 0 3
0.222205 0.232599 0.824962 0 3
0.233462 0.230425 0.817253 0 3
0.297409 0.228334 0.809837 0 3
0.232285 0.24253 0.813132 0 3
