# .PCD v0.7 - Point Cloud Data file format
VERSION 0.7
FIELDS x y z rgb label
SIZE 4 4 4 4 4
TYPE F F F F U
COUNT 1 1 1 1 1
WIDTH 2805
HEIGHT 1
VIEWPOINT 0 0 0 1 0 0 0
POINTS 2805
DATA ascii
-0.059166 0.200268 0.29031 1.51172e-38 3
-0.0544366 0.200295 0.290349 1.44729e-38 3
-0.0498037 0.200715 0.290958 1.37353e-38 3
-0.0451218 0.201006 0.29138 0 3
-0.0498037 0.205462 0.290958 1.32747e-38 3
0.192918 0.201571 0.299278 0 3
0.198242 0.202022 0.299946 1.1984e-38 3
0.198187 0.206858 0.299863 0 3
0.195963 0.219049 0.296497 0 3
-0.0785608 0.401455 0.64276 1.25375e-38 3
-0.0261214 0.401389 0.642655 1.438e-38 3
-0.0785077 0.411663 0.642325 1.41045e-38 3
-0.0887307 0.420924 0.64047 1.46573e-38 3
-0.0887321 0.43138 0.64048 1.29992e-38 3
-0.0887307 0.441824 0.64047 1.26312e-38 3
-0.0991789 0.452267 0.640461 1.33684e-38 3
0.303133 0.207327 0.34085 0 3
0.303304 0.203706 0.334898 0 3
0.303926 0.200512 0.329646 0 3
0.303411 0.217065 0.347538 0 3
0.307269 0.215792 0.3455 0 3
0.309485 0.213433 0.341723 0 3
0.309254 0.2095 0.335425 0 3
0.308413 0.205297 0.328696 0 3
0.308531 0.201865 0.323202 0 3
0.330731 0.252218 0.393541 0 3
0.308256 0.22214 0.34661 0 3
0.313281 0.221694 0.345914 0 3
0.317754 0.220881 0.344644 0 3
0.31302 0.213806 0.333606 0 3
0.304193 0.204226 0.318658 0 3
0.328271 0.256715 0.390613 0 3
0.316829 0.225845 0.343641 0 3
0.303611 0.212659 0.323578 0 3
0.332844 0.261673 0.388512 0 3
0.00721615 0.178308 0.293142 1.88058e-38 3
0.0120839 0.179571 0.295218 1.68696e-38 3
0.0170754 0.181427 0.298271 1.63168e-38 3
0.0220605 0.182409 0.299884 1.56693e-38 3
0.0120839 0.184387 0.295218 1.54871e-38 3
0.017073 0.186268 0.29823 1.43807e-38 3
0.0220069 0.186846 0.299155 1.60388e-38 3
0.0269142 0.18703 0.299449 1.84352e-38 3
0.0317796 0.191793 0.299257 1.51172e-38 3
0.0365366 0.196002 0.298233 1.57658e-38 3
-0.00719853 0.175137 0.295866 1.22599e-38 3
-0.0169415 0.18091 0.29742 1.41034e-38 3
-0.0119358 0.178618 0.293652 1.46562e-38 3
-0.00719203 0.179802 0.295598 1.36428e-38 3
-0.0501719 0.187853 0.29311 1.29038e-38 3
-0.0451278 0.186769 0.291418 1.36421e-38 3
-0.0403854 0.186826 0.291508 1.36431e-38 3
-0.0604203 0.19484 0.296465 1.41023e-38 3
-0.0551164 0.193203 0.293974 1.39179e-38 3
-0.0500285 0.192084 0.292272 1.46555e-38 3
-0.0451263 0.191517 0.291409 1.5947e-38 3
-0.0769234 0.192555 0.285891 0 3
-0.0742492 0.197859 0.293766 0 3
-0.0639895 0.195798 0.290705 1.27212e-38 3
-0.059306 0.195994 0.290997 1.38265e-38 3
-0.0547523 0.196692 0.292033 1.5025e-38 3
-0.0500553 0.196958 0.292428 1.67767e-38 3
-0.0451906 0.196551 0.291824 1.45651e-38 3
-0.322898 0.21703 0.377029 0 3
-0.322741 0.223073 0.376845 0 3
-0.316592 0.223073 0.376845 0 3
-0.322741 0.229221 0.376845 0 3
-0.316592 0.229221 0.376845 0 3
-0.302139 0.276436 0.374174 0 3
-0.302139 0.282541 0.374174 0 3
-0.00901379 0.201168 0.370474 1.29989e-38 3
-0.00299698 0.203046 0.373933 1.23528e-38 3
-0.00871118 0.200256 0.358036 1.1984e-38 3
-0.00293933 0.205124 0.36674 1.21677e-38 3
-0.0994188 0.200534 0.348372 0 3
-0.0937348 0.200534 0.348372 0 3
-0.0880793 0.200599 0.348485 1.37357e-38 3
-0.082852 0.201715 0.350424 1.29981e-38 3
-0.077521 0.202726 0.352179 1.23521e-38 3
-0.0717796 0.202739 0.352202 1.34591e-38 3
-0.0657511 0.201873 0.350697 1.45655e-38 3
-0.0597812 0.201038 0.349248 1.36431e-38 3
-0.0540632 0.200965 0.34912 1.23531e-38 3
-0.0482788 0.200598 0.348483 1.39205e-38 3
-0.0312402 0.200717 0.34869 1.22617e-38 3
-0.0256398 0.201414 0.3499 1.39205e-38 3
-0.0199325 0.20143 0.349928 1.24453e-38 3
-0.0142325 0.201561 0.350156 1.30903e-38 3
-0.0086201 0.203943 0.354293 1.53023e-38 3
-0.00292875 0.210348 0.36542 0 3
-0.0982666 0.203829 0.344335 1.6042e-38 3
-0.0928939 0.204368 0.345247 1.33676e-38 3
-0.0874118 0.204721 0.345843 0 3
-0.0822426 0.205907 0.347846 1.24442e-38 3
-0.0771937 0.207592 0.350692 1.48413e-38 3
-0.0716934 0.208235 0.351779 1.35513e-38 3
-0.0659242 0.208141 0.35162 1.3551e-38 3
-0.0366039 0.204588 0.345618 1.35524e-38 3
-0.0978182 0.208491 0.342764 1.49357e-38 3
-0.0924261 0.208944 0.343508 1.3368e-38 3
-0.0870979 0.209609 0.344602 0 3
-0.0819328 0.210785 0.346536 1.38275e-38 3
-0.0765253 0.211466 0.347655 1.30889e-38 3
-0.0360069 0.206798 0.339981 0 3
-0.0299134 0.203088 0.333881 0 3
-0.0973923 0.213151 0.341271 1.36453e-38 3
-0.0920156 0.213595 0.341983 0 3
-0.0865525 0.213884 0.342444 1.29992e-38 3
-0.0815731 0.215489 0.345015 1.25368e-38 3
-0.0523821 0.236154 0.378101 1.41041e-38 3
-0.0217965 0.238997 0.382652 1.50254e-38 3
-0.0969321 0.217686 0.339659 0 3
-0.0917015 0.218427 0.340815 1.19851e-38 3
-0.0863611 0.218985 0.341686 0 3
-0.0811235 0.219899 0.343113 0 3
-0.0756475 0.220255 0.343668 1.17982e-38 3
-0.0693612 0.218119 0.340335 1.38257e-38 3
-0.0586872 0.200613 0.31302 1.36413e-38 3
-0.0904013 0.220812 0.335983 0 3
-0.0835178 0.217167 0.330437 0 3
-0.0741799 0.206196 0.313745 1.1984e-38 3
-0.0713673 0.203303 0.301849 1.31836e-38 3
-0.0998364 0.255965 0.371049 1.21705e-38 3
-0.0827368 0.259294 0.375874 1.25364e-38 3
-0.0704788 0.265454 0.375913 1.28134e-38 3
-0.196701 0.214698 0.395391 0 3
-0.189594 0.213958 0.394029 0 3
-0.182486 0.213165 0.392568 0 3
-0.194319 0.205024 0.366561 0 3
-0.190584 0.207468 0.37093 0 3
-0.189502 0.213055 0.380921 0 3
-0.185909 0.216104 0.38637 0 3
-0.179758 0.216287 0.386698 0 3
-0.1732 0.215977 0.386144 0 3
-0.166696 0.215713 0.385672 0 3
-0.159478 0.214468 0.383446 0 3
-0.152248 0.213106 0.381011 0 3
-0.14524 0.21195 0.378945 0 3
-0.196475 0.206975 0.359561 1.18936e-38 3
-0.191167 0.207581 0.360613 0 3
-0.186195 0.208603 0.362388 0 3
-0.183745 0.212609 0.369348 0 3
-0.183951 0.220065 0.3823 0 3
-0.179094 0.221775 0.385271 0 3
-0.172786 0.221746 0.385221 0 3
-0.166456 0.221686 0.385117 0 3
-0.159262 0.220426 0.382927 1.19854e-38 3
-0.150858 0.217319 0.37753 0 3
-0.142029 0.21331 0.370567 0 3
-0.133204 0.208951 0.362994 0 3
-0.197468 0.201863 0.341014 0 3
-0.193462 0.203501 0.343782 0 3
-0.191309 0.207244 0.350106 0 3
-0.188676 0.210683 0.355915 0 3
-0.183906 0.211878 0.357933 0 3
-0.178956 0.212937 0.359722 0 3
-0.17962 0.220974 0.373299 0 3
-0.178171 0.226884 0.383284 0 3
-0.172446 0.227582 0.384462 0 3
-0.166415 0.227913 0.385021 0 3
-0.159177 0.226552 0.382722 0 3
-0.150286 0.222631 0.376099 0 3
-0.137829 0.21287 0.359608 0 3
-0.128104 0.206647 0.349097 0 3
-0.121454 0.205036 0.346374 0 3
-0.115207 0.203982 0.344594 0 3
-0.109281 0.203416 0.343639 0 3
-0.103556 0.203183 0.343244 1.32769e-38 3
-0.199496 0.203814 0.335074 0 3
-0.192483 0.202189 0.332404 0 3
-0.188993 0.204279 0.33584 0 3
-0.187153 0.208331 0.342501 0 3
-0.185047 0.212327 0.34907 0 3
-0.181552 0.214931 0.353352 0 3
-0.176433 0.215721 0.35465 0 3
-0.17066 0.215738 0.354678 0 3
-0.1649 0.215773 0.354736 0 3
-0.162421 0.220261 0.362113 0 3
-0.164846 0.231987 0.381391 0 3
-0.151802 0.222011 0.364991 0 3
-0.140175 0.213376 0.350796 0 3
-0.133724 0.212222 0.348897 0 3
-0.127147 0.210757 0.346489 0 3
-0.120769 0.209499 0.344421 0 3
-0.114924 0.209089 0.343748 0 3
-0.109042 0.208566 0.342887 1.41988e-38 3
-0.103279 0.208225 0.342327 0 3
-0.189171 0.204041 0.326685 0 3
-0.184425 0.204689 0.327723 0 3
-0.182149 0.208199 0.333343 0 3
-0.181245 0.213542 0.341897 0 3
-0.179287 0.217942 0.348943 0 3
-0.174837 0.219504 0.351442 0 3
-0.169102 0.219502 0.35144 0 3
-0.162956 0.218949 0.350555 0 3
-0.156962 0.218566 0.349941 0 3
-0.151246 0.218558 0.349928 0 3
-0.145537 0.218558 0.349928 0 3
-0.139761 0.218454 0.349761 0 3
-0.133013 0.216756 0.347043 0 3
-0.126063 0.214564 0.343533 0 3
-0.12003 0.213802 0.342314 0 3
-0.114465 0.21384 0.342373 1.18018e-38 3
-0.108638 0.213367 0.341617 0 3
-0.102832 0.212885 0.340845 0 3
-0.188343 0.208455 0.325256 0 3
-0.183085 0.20851 0.325342 0 3
-0.178782 0.209689 0.327181 0 3
-0.176792 0.213737 0.333497 0 3
-0.176979 0.220757 0.34445 0 3
-0.174024 0.224191 0.349808 0 3
-0.168294 0.22416 0.349761 0 3
-0.161226 0.222283 0.346832 0 3
-0.152505 0.217908 0.340006 0 3
-0.145648 0.215966 0.336975 0 3
-0.118316 0.216254 0.337425 1.21698e-38 3
-0.112842 0.216314 0.337518 0 3
-0.107901 0.217455 0.339299 0 3
-0.102458 0.217651 0.339605 0 3
-0.187593 0.21291 0.32396 0 3
-0.182755 0.213433 0.324755 0 3
-0.178188 0.214313 0.326095 0 3
-0.17359 0.215208 0.327457 0 3
-0.169222 0.216455 0.329354 0 3
-0.168576 0.222701 0.338857 0 3
-0.165442 0.225972 0.343834 0 3
-0.156519 0.221287 0.336706 0 3
-0.148269 0.217249 0.330562 0 3
-0.118316 0.221759 0.337425 0 3
-0.19654 0.216407 0.321304 0 3
-0.191763 0.216934 0.322086 0 3
-0.187271 0.217821 0.323404 0 3
-0.182721 0.218691 0.324695 0 3
-0.177717 0.219052 0.325232 0 3
-0.172417 0.21906 0.325244 0 3
-0.167085 0.219028 0.325195 0 3
-0.161402 0.218517 0.324437 0 3
-0.155903 0.218228 0.324009 0 3
-0.151319 0.219246 0.32552 0 3
-0.146481 0.219957 0.326575 0 3
-0.111673 0.26356 0.391314 0 3
-0.196533 0.221641 0.321292 0 3
-0.191792 0.222222 0.322135 0 3
-0.18771 0.223621 0.324162 0 3
-0.183017 0.224351 0.32522 0 3
-0.177723 0.224367 0.325244 0 3
-0.172417 0.224367 0.325244 1.21698e-38 3
-0.167085 0.224334 0.325195 0 3
-0.161402 0.22381 0.324437 0 3
-0.155903 0.223515 0.324009 0 3
-0.151319 0.224558 0.32552 0 3
-0.146481 0.225285 0.326575 0 3
-0.159806 0.279186 0.369731 1.2723e-38 3
-0.294762 0.200357 0.380411 0 3
-0.294762 0.206564 0.380411 0 3
-0.268011 0.209918 0.386589 0 3
-0.228159 0.213951 0.394015 0 3
-0.221659 0.213882 0.393888 0 3
-0.215371 0.21402 0.394142 0 3
-0.210929 0.216057 0.397893 0 3
-0.205096 0.216752 0.399174 0 3
-0.280441 0.211333 0.377841 0 3
-0.271901 0.209503 0.374569 0 3
-0.266042 0.209702 0.374925 0 3
-0.259361 0.209247 0.374111 0 3
-0.247647 0.204611 0.365824 0 3
-0.221914 0.208473 0.372727 0 3
-0.214136 0.206834 0.369797 0 3
-0.207997 0.206729 0.36961 0 3
-0.200901 0.205639 0.36766 0 3
-0.260162 0.211049 0.366638 0 3
-0.252782 0.209888 0.364621 0 3
-0.24664 0.209724 0.364336 0 3
-0.238136 0.207494 0.360462 0 3
-0.229363 0.20491 0.355974 0 3
-0.222157 0.203628 0.353747 0 3
-0.215985 0.203253 0.353094 0 3
-0.210216 0.203244 0.35308 0 3
-0.20459 0.203378 0.353313 0 3
-0.200883 0.205483 0.356969 0 3
-0.250133 0.208665 0.352505 0 3
-0.245436 0.209565 0.354025 0 3
-0.240053 0.209909 0.354606 0 3
-0.233606 0.209316 0.353605 0 3
-0.226216 0.207827 0.35109 0 3
-0.218608 0.206055 0.348096 0 3
-0.212038 0.205194 0.346641 0 3
-0.20434 0.203163 0.34321 0 3
-0.256233 0.209988 0.345226 0 3
-0.251774 0.210972 0.346842 0 3
-0.247177 0.211882 0.348339 0 3
-0.241556 0.211936 0.348428 0 3
-0.236465 0.21247 0.349306 0 3
-0.231167 0.21284 0.349914 0 3
-0.225395 0.212781 0.349816 0 3
-0.218421 0.211553 0.347799 0 3
-0.209256 0.208083 0.342093 0 3
-0.253852 0.213618 0.342018 0 3
-0.246762 0.212318 0.339938 0 3
-0.238641 0.210052 0.33631 0 3
-0.231696 0.208738 0.334206 0 3
-0.230465 0.212633 0.340442 0 3
-0.226267 0.213916 0.342496 0 3
-0.251645 0.217292 0.339045 0 3
-0.243084 0.214617 0.334871 0 3
-0.235695 0.212878 0.332157 0 3
-0.229781 0.212421 0.331445 0 3
-0.224403 0.212449 0.331488 0 3
-0.218268 0.211744 0.330388 0 3
-0.235725 0.213419 0.324734 0 3
-0.233759 0.216505 0.32943 0 3
-0.229095 0.217179 0.330455 0 3
-0.224031 0.217497 0.330939 0 3
-0.218221 0.217088 0.330317 0 3
-0.234733 0.217796 0.323367 0 3
-0.234733 0.223072 0.323367 0 3
-0.207327 0.221973 0.321773 0 3
-0.201752 0.221616 0.321257 0 3
0.236652 0.202765 0.39729 0 3
0.204586 0.2096 0.39796 0 3
0.211686 0.210203 0.399106 0 3
0.218592 0.210583 0.399826 0 3
0.224399 0.209913 0.398555 0 3
0.228934 0.208124 0.395157 0 3
0.231049 0.204294 0.387885 1.28134e-38 3
0.234315 0.201658 0.38288 1.19836e-38 3
0.239589 0.200842 0.381332 1.39197e-38 3
0.20501 0.20988 0.386518 0 3
0.212017 0.210576 0.387801 0 3
0.216522 0.208818 0.384563 0 3
0.220903 0.207044 0.381296 0 3
0.226785 0.206735 0.380726 0 3
0.233223 0.206936 0.381097 1.19836e-38 3
0.238316 0.205963 0.379306 1.25368e-38 3
0.241586 0.203505 0.374778 1.20758e-38 3
0.246189 0.202263 0.372491 1.26286e-38 3
0.200662 0.211601 0.378321 1.23542e-38 3
0.207894 0.212685 0.380259 0 3
0.21239 0.210988 0.377225 0 3
0.217345 0.209831 0.375155 0 3
0.225149 0.211411 0.37798 0 3
0.234858 0.214647 0.383767 0 3
0.239078 0.21283 0.380518 0 3
0.241475 0.209524 0.374606 0 3
0.245665 0.207897 0.371697 0 3
0.267476 0.201485 0.360234 0 3
0.205104 0.203788 0.354025 1.29989e-38 3
0.211436 0.204326 0.354959 1.18003e-38 3
0.220072 0.207001 0.359606 0 3
0.22813 0.209008 0.363093 0 3
0.23394 0.208907 0.362916 0 3
0.232613 0.202594 0.35195 0 3
0.23991 0.203915 0.354246 1.27212e-38 3
0.253857 0.210693 0.366021 1.19854e-38 3
0.258562 0.209667 0.364237 0 3
0.262305 0.207923 0.361207 0 3
0.267194 0.207145 0.359855 0 3
0.271357 0.205848 0.357604 0 3
0.275281 0.204429 0.355139 0 3
0.27682 0.201335 0.349762 0 3
0.202588 0.201324 0.340104 1.34598e-38 3
0.207411 0.200622 0.338919 1.3551e-38 3
0.236724 0.202043 0.341318 0 3
0.243757 0.203264 0.343381 0 3
0.246481 0.200917 0.339417 0 3
0.25195 0.200862 0.339324 0 3
0.257367 0.200769 0.339167 0 3
0.275245 0.201705 0.340748 0 3
0.281352 0.202098 0.341412 0 3
0.287915 0.202798 0.342593 0 3
0.29446 0.203457 0.343708 0 3
0.299121 0.202816 0.342624 0 3
0.203229 0.201995 0.332084 1.20758e-38 3
0.20815 0.201514 0.331293 1.2813e-38 3
0.213235 0.201211 0.330796 1.2629e-38 3
0.218736 0.201307 0.330953 1.20769e-38 3
0.265725 0.200096 0.328962 0 3
0.276153 0.203832 0.335104 0 3
0.285246 0.206456 0.339418 0 3
0.293959 0.20871 0.343124 0 3
0.299986 0.209008 0.343615 1.23542e-38 3
0.200708 0.204841 0.327965 1.34591e-38 3
0.206122 0.204903 0.328065 1.4196e-38 3
0.243732 0.200614 0.321198 0 3
0.248399 0.200151 0.320458 0 3
0.253649 0.200169 0.320486 0 3
0.265725 0.205463 0.328962 0 3
0.276109 0.209266 0.33505 0 3
0.284632 0.211537 0.338687 0 3
0.295073 0.21512 0.344424 0 3
0.237772 0.255827 0.399172 0 3
0.274507 0.205355 0.320418 0 3
0.296052 0.217333 0.339109 0 3
0.232591 0.256623 0.390473 1.42889e-38 3
0.296862 0.215424 0.327785 0 3
0.232591 0.262994 0.390473 1.42882e-38 3
0.263613 0.203372 0.301952 0 3
0.267838 0.202841 0.301163 0 3
0.283798 0.203716 0.302462 0 3
0.247983 0.265384 0.384702 0 3
0.260508 0.277907 0.384661 0 3
0.243832 0.279456 0.378262 1.23535e-38 3
0.272585 0.283439 0.375364 1.27223e-38 3
0.107072 0.202881 0.397517 1.24446e-38 3
0.113405 0.202608 0.396982 1.38275e-38 3
0.119773 0.202423 0.396621 1.28145e-38 3
0.125778 0.201678 0.395159 1.48435e-38 3
0.131825 0.201066 0.393962 1.28152e-38 3
0.138019 0.200726 0.393296 1.37364e-38 3
0.144307 0.200548 0.392945 1.31822e-38 3
0.151184 0.201167 0.39416 1.35502e-38 3
0.158637 0.202471 0.396715 1.53942e-38 3
0.166273 0.203897 0.399509 1.46573e-38 3
0.192546 0.20411 0.399926 0 3
0.199104 0.204143 0.399991 0 3
0.106814 0.208863 0.396562 1.46573e-38 3
0.113118 0.208556 0.395979 1.5948e-38 3
0.119404 0.208251 0.395399 1.30911e-38 3
0.12518 0.207134 0.393278 1.33687e-38 3
0.13096 0.206133 0.391377 1.53045e-38 3
0.136665 0.205111 0.389436 1.35524e-38 3
0.143087 0.205208 0.389622 1.38286e-38 3
0.148025 0.203261 0.385924 1.55786e-38 3
0.153842 0.202629 0.384725 1.37339e-38 3
0.15927 0.201554 0.382683 1.2168e-38 3
0.164775 0.200655 0.380976 1.39208e-38 3
0.171125 0.200811 0.381274 1.29989e-38 3
0.181705 0.205748 0.390647 1.45662e-38 3
0.191305 0.209278 0.397348 0 3
0.198052 0.209557 0.397878 0 3
0.104177 0.210016 0.386769 1.36442e-38 3
0.111663 0.212251 0.390885 1.35513e-38 3
0.118038 0.212248 0.390878 1.57647e-38 3
0.123752 0.211114 0.388791 1.24464e-38 3
0.129205 0.209671 0.386133 1.41059e-38 3
0.134956 0.208821 0.384567 1.35528e-38 3
0.140373 0.207552 0.382231 1.57647e-38 3
0.145993 0.20668 0.380625 1.52098e-38 3
0.151713 0.206015 0.3794 1.59466e-38 3
0.157458 0.205433 0.378329 1.40116e-38 3
0.161231 0.202421 0.372782 1.28145e-38 3
0.1976 0.208714 0.384371 1.2262e-38 3
0.138644 0.202174 0.361466 1.33666e-38 3
0.147114 0.205772 0.367898 1.34573e-38 3
0.153559 0.206367 0.368962 1.33662e-38 3
0.158454 0.204911 0.36636 1.24457e-38 3
0.192494 0.20943 0.374439 0 3
0.129427 0.202868 0.352425 1.20773e-38 3
0.137909 0.206969 0.35955 1.29052e-38 3
0.145232 0.209065 0.363191 1.39194e-38 3
0.151625 0.209711 0.364314 1.33662e-38 3
0.15692 0.208848 0.362814 0 3
0.161559 0.207206 0.359962 1.35528e-38 3
0.166511 0.206065 0.357981 1.33677e-38 3
0.171385 0.204909 0.355972 0 3
0.176562 0.20418 0.354706 1.30911e-38 3
0.182276 0.204098 0.354563 1.25379e-38 3
0.187109 0.203065 0.352768 1.21695e-38 3
0.192216 0.202382 0.351582 1.26304e-38 3
0.198472 0.202913 0.352505 1.48428e-38 3
0.104456 0.204755 0.3459 1.58577e-38 3
0.109896 0.204377 0.345262 1.39208e-38 3
0.115239 0.203863 0.344394 1.24464e-38 3
0.120708 0.20361 0.343967 1.28152e-38 3
0.127348 0.205268 0.346767 1.23539e-38 3
0.135103 0.208504 0.352233 1.50257e-38 3
0.142468 0.210899 0.356279 1.42882e-38 3
0.146908 0.208947 0.352981 1.60402e-38 3
0.150502 0.205984 0.347976 1.18925e-38 3
0.154454 0.203708 0.344131 1.29996e-38 3
0.15923 0.20264 0.342327 1.29989e-38 3
0.164796 0.202616 0.342287 1.41974e-38 3
0.170354 0.202585 0.342234 1.21691e-38 3
0.175479 0.202056 0.341341 1.21691e-38 3
0.180298 0.201219 0.339926 1.27226e-38 3
0.185521 0.20087 0.339337 1.37368e-38 3
0.19105 0.200862 0.339324 1.27223e-38 3
0.196617 0.200893 0.339377 1.21691e-38 3
0.122457 0.202824 0.333447 1.23538e-38 3
0.127288 0.201857 0.331858 1.38275e-38 3
0.132242 0.201158 0.330708 1.29042e-38 3
0.137281 0.200636 0.329849 0 3
0.163931 0.20032 0.329331 1.29056e-38 3
0.169337 0.200358 0.329394 0 3
0.175127 0.200835 0.330178 0 3
0.180811 0.201166 0.330721 1.18929e-38 3
0.186242 0.201204 0.330784 1.24457e-38 3
0.192097 0.201685 0.331574 0 3
0.197833 0.202018 0.332122 1.27223e-38 3
0.119924 0.203957 0.32655 0 3
0.12494 0.203449 0.325737 0 3
0.12974 0.202644 0.324449 1.39183e-38 3
0.13479 0.202279 0.323864 1.48413e-38 3
0.139723 0.201772 0.323052 1.23528e-38 3
0.144425 0.20098 0.321785 1.30911e-38 3
0.149429 0.20065 0.321257 1.23528e-38 3
0.154665 0.200643 0.321245 1.37354e-38 3
0.160051 0.200825 0.321536 1.2168e-38 3
0.167672 0.203711 0.326156 1.19836e-38 3
0.175089 0.206178 0.330106 1.18929e-38 3
0.180811 0.206562 0.330721 1.28148e-38 3
0.186158 0.206507 0.330634 1.2907e-38 3
0.190647 0.205532 0.329072 1.27223e-38 3
0.195372 0.204856 0.32799 1.23535e-38 3
0.119053 0.207765 0.324179 1.30003e-38 3
0.123719 0.206724 0.322555 1.22609e-38 3
0.128632 0.206163 0.321679 1.5025e-38 3
0.133033 0.204857 0.319642 1.38265e-38 3
0.137486 0.203729 0.317882 1.29974e-38 3
0.142436 0.203391 0.317355 0 3
0.147674 0.203474 0.317483 1.29059e-38 3
0.153914 0.204885 0.319685 1.22606e-38 3
0.194709 0.203909 0.318163 0 3
0.127813 0.210065 0.319631 1.30893e-38 3
0.132243 0.208825 0.317745 1.42874e-38 3
0.136231 0.207008 0.314979 1.35506e-38 3
0.140066 0.205099 0.312075 1.29989e-38 3
0.18442 0.260573 0.396484 1.18007e-38 3
0.187089 0.200916 0.30571 1.32747e-38 3
0.127553 0.214842 0.318981 1.37343e-38 3
0.131306 0.212494 0.315495 1.52094e-38 3
0.134961 0.210169 0.312042 1.45651e-38 3
0.139284 0.209016 0.310331 1.23539e-38 3
0.186934 0.205734 0.305458 1.50257e-38 3
0.189724 0.203383 0.301967 1.17989e-38 3
0.127049 0.219178 0.317722 0 3
0.131092 0.217286 0.314979 1.39187e-38 3
0.134937 0.215222 0.311987 1.309e-38 3
0.138955 0.213574 0.309598 1.19851e-38 3
0.11592 0.222898 0.315649 1.27216e-38 3
0.121799 0.224239 0.317548 1.3551e-38 3
0.127059 0.224378 0.317744 1.18904e-38 3
0.131388 0.222927 0.31569 1.29038e-38 3
0.13515 0.22066 0.312479 1.26286e-38 3
0.13896 0.218633 0.30961 1.36446e-38 3
0.11592 0.228048 0.315649 1.32747e-38 3
0.121835 0.229488 0.317642 1.22602e-38 3
0.127717 0.230752 0.319391 1.39179e-38 3
0.133072 0.231002 0.319737 1.40101e-38 3
0.136981 0.228817 0.316714 1.23521e-38 3
0.140298 0.225838 0.31259 0 3
0.141869 0.242334 0.328015 1.3274e-38 3
0.147266 0.242408 0.328115 1.45662e-38 3
0.00328713 0.202105 0.395997 1.38293e-38 3
0.0357601 0.203061 0.397869 0 3
0.0421178 0.202418 0.396609 1.25411e-38 3
0.0483292 0.201336 0.394491 1.52144e-38 3
0.0999711 0.201641 0.395087 1.38275e-38 3
0.00318217 0.201906 0.383353 1.37368e-38 3
0.00959258 0.205239 0.38968 1.2723e-38 3
0.0161402 0.207681 0.394316 1.39215e-38 3
0.0227302 0.20912 0.397049 1.19861e-38 3
0.0292687 0.209552 0.397869 1.33702e-38 3
0.0357553 0.209523 0.397815 1.19872e-38 3
0.0421178 0.208888 0.396609 1.36467e-38 3
0.0483208 0.207737 0.394422 1.34624e-38 3
0.0540095 0.204904 0.389045 1.31861e-38 3
0.0593913 0.201626 0.38282 1.22624e-38 3
0.0652487 0.200432 0.380553 1.31836e-38 3
0.0714609 0.200441 0.38057 1.20776e-38 3
0.0778976 0.201028 0.381685 1.23549e-38 3
0.0845331 0.202003 0.383537 1.32769e-38 3
0.0913125 0.203164 0.38574 1.22613e-38 3
0.0993329 0.206758 0.392565 1.23524e-38 3
0.00311844 0.203993 0.375676 1.30914e-38 3
0.0093867 0.207056 0.381317 1.27226e-38 3
0.0157857 0.209412 0.385656 0 3
0.0224432 0.212876 0.392036 0 3
0.0292099 0.21561 0.397071 1.20776e-38 3
0.0358631 0.216666 0.399015 1.26308e-38 3
0.0423301 0.216445 0.398608 1.30925e-38 3
0.048532 0.215108 0.396146 1.2817e-38 3
0.0536611 0.209889 0.386535 1.35535e-38 3
0.0587123 0.205495 0.378443 1.27234e-38 3
0.0646184 0.204645 0.376877 1.2723e-38 3
0.0707736 0.204663 0.37691 1.24464e-38 3
0.0771328 0.205221 0.377938 0 3
0.0834705 0.205643 0.378716 0 3
0.0898989 0.206215 0.379769 1.29067e-38 3
0.0963718 0.206809 0.380863 1.40123e-38 3
0.00309268 0.208386 0.372573 0 3
0.00924746 0.210113 0.375661 1.1984e-38 3
0.015611 0.213316 0.381386 1.39201e-38 3
0.0221652 0.216556 0.387179 1.17996e-38 3
0.0538983 0.217151 0.388243 1.27234e-38 3
0.0586978 0.211617 0.37835 1.21705e-38 3
0.064249 0.209589 0.374723 1.35528e-38 3
0.0700933 0.208786 0.373288 1.28152e-38 3
0.0761773 0.208768 0.373256 1.33691e-38 3
0.0822672 0.208768 0.373256 1.30003e-38 3
0.0882127 0.208427 0.372646 1.20773e-38 3
0.0918264 0.202976 0.362899 1.34591e-38 3
0.00309245 0.214449 0.372544 0 3
0.00924746 0.216243 0.375661 1.23528e-38 3
0.0156054 0.219459 0.381249 1.39201e-38 3
0.0220423 0.221637 0.385033 0 3
0.0293609 0.229748 0.399123 1.19833e-38 3
0.0614921 0.228158 0.396361 1.41067e-38 3
0.064116 0.215256 0.373947 1.4291e-38 3
0.0685353 0.2101 0.36499 1.93611e-38 3
0.0732053 0.206476 0.358694 1.21705e-38 3
0.0788639 0.20597 0.357815 1.43832e-38 3
0.0842253 0.204811 0.355802 1.28145e-38 3
0.0890036 0.202475 0.351743 1.32747e-38 3
0.093764 0.200384 0.34811 1.19847e-38 3
0.00301683 0.215135 0.363435 0 3
0.00912071 0.219324 0.370511 1.45655e-38 3
0.0401875 0.224012 0.378432 1.42882e-38 3
0.0664525 0.209489 0.353898 1.53045e-38 3
0.0714221 0.207156 0.349956 1.25393e-38 3
0.0769076 0.206554 0.348938 1.29081e-38 3
0.0822379 0.205646 0.347406 1.33676e-38 3
0.0875319 0.204771 0.345927 1.36435e-38 3
0.0930262 0.204442 0.345371 1.19851e-38 3
0.0988879 0.204912 0.346165 0 3
0.0580312 0.205872 0.338458 1.41066e-38 3
0.0637589 0.206538 0.339553 1.30918e-38 3
0.0689404 0.205469 0.337796 1.30003e-38 3
0.074084 0.204454 0.336128 1.30003e-38 3
0.0793009 0.203768 0.334999 1.51194e-38 3
0.0847602 0.203752 0.334973 1.50264e-38 3
0.00930951 0.236204 0.378181 1.56711e-38 3
0.0608721 0.202476 0.324179 1.3645e-38 3
0.0669274 0.20482 0.327933 1.35531e-38 3
0.0724673 0.205357 0.328793 1.53048e-38 3
0.0779593 0.205694 0.329331 1.3552e-38 3
0.0833231 0.20567 0.329294 1.33666e-38 3
0.0884863 0.205185 0.328516 1.67789e-38 3
0.034573 0.246527 0.384661 1.54856e-38 3
0.0593388 0.202531 0.316013 1.5213e-38 3
0.0655724 0.205916 0.321294 1.19858e-38 3
0.071554 0.208066 0.324649 1.40145e-38 3
0.0769889 0.20844 0.325232 1.53045e-38 3
0.0822983 0.208447 0.325244 1.5396e-38 3
0.0876312 0.20851 0.325342 1.59498e-38 3
0.040397 0.250006 0.380404 1.91749e-38 3
0.0475682 0.201508 0.306611 1.35535e-38 3
0.0533564 0.20452 0.311194 1.24471e-38 3
0.0593368 0.20768 0.316003 1.50279e-38 3
0.0655724 0.211158 0.321294 1.46595e-38 3
0.071554 0.213363 0.324649 1.30925e-38 3
0.0769889 0.213746 0.325232 1.41059e-38 3
0.0822983 0.213754 0.325244 1.4474e-38 3
0.040397 0.256212 0.380404 1.86217e-38 3
0.0420869 0.204188 0.303163 1.42914e-38 3
-0.30371 0.387909 0.760054 1.1895e-38 3
-0.346542 0.392638 0.745488 0 3
-0.303439 0.399952 0.759375 0 3
-0.330002 0.399502 0.735729 0 3
-0.199804 0.147091 0.288204 0 3
-0.198727 0.149824 0.293559 0 3
-0.199797 0.151788 0.288194 0 3
-0.198727 0.154613 0.293559 0 3
-0.213057 0.149797 0.293506 0 3
-0.205411 0.147742 0.289479 0 3
-0.211307 0.153315 0.291095 0 3
-0.205091 0.152227 0.289029 0 3
-0.213741 0.159886 0.294448 0 3
-0.263658 0.181299 0.35523 0 3
-0.249756 0.192946 0.378051 0 3
-0.236001 0.163866 0.311127 0 3
-0.237381 0.168448 0.319826 0 3
-0.249756 0.199114 0.378051 0 3
-0.236001 0.168942 0.311127 0 3
-0.237381 0.173666 0.319826 0 3
-0.245131 0.187583 0.345456 0 3
0.240623 0.194256 0.393188 0 3
0.239887 0.188633 0.381806 1.17992e-38 3
0.244805 0.187628 0.379771 0 3
0.235635 0.196512 0.385037 1.28134e-38 3
0.239974 0.194933 0.381944 1.36432e-38 3
0.24486 0.193867 0.379856 1.20758e-38 3
0.271523 0.186635 0.365685 0 3
0.278682 0.187437 0.367256 0 3
0.28564 0.188073 0.368503 0 3
0.29224 0.188452 0.369246 0 3
0.298729 0.188745 0.36982 0 3
0.24397 0.199338 0.378477 0 3
0.248873 0.198324 0.376551 1.36428e-38 3
0.270769 0.192066 0.364669 0 3
0.276768 0.1921 0.364734 0 3
0.282793 0.192151 0.364829 0 3
0.288647 0.192086 0.364706 0 3
0.295672 0.192786 0.366036 0 3
0.299047 0.191126 0.362885 0 3
0.269041 0.196753 0.362343 0 3
0.275113 0.196867 0.362553 0 3
0.280707 0.196642 0.362139 0 3
0.298322 0.194763 0.348216 0 3
0.280307 0.199753 0.347014 0 3
0.285818 0.199647 0.346831 0 3
0.291384 0.199584 0.346721 0 3
0.295524 0.198565 0.344951 0 3
0.299145 0.197241 0.342651 0 3
0.21114 0.198925 0.336051 1.27212e-38 3
0.214846 0.197293 0.333295 0 3
0.219122 0.196253 0.331538 0 3
0.223738 0.195559 0.330366 1.18925e-38 3
0.260998 0.199316 0.336712 0 3
0.265483 0.198562 0.335438 0 3
0.242442 0.19861 0.326519 0 3
0.245355 0.196675 0.323338 0 3
0.248435 0.194952 0.320505 0 3
0.253649 0.19494 0.320486 0 3
0.259669 0.1992 0.303099 0 3
0.263613 0.198446 0.301952 0 3
0.269527 0.199176 0.303062 0 3
0.100509 0.196245 0.397213 1.23535e-38 3
0.100138 0.196064 0.350541 1.3552e-38 3
0.105394 0.195206 0.349008 1.29067e-38 3
0.110891 0.194858 0.348386 1.47509e-38 3
0.116646 0.194977 0.348599 1.29996e-38 3
0.123603 0.197 0.352215 1.32762e-38 3
0.130698 0.199054 0.355888 1.55811e-38 3
0.10446 0.199119 0.345914 1.88079e-38 3
0.109914 0.198775 0.345316 1.20769e-38 3
0.11558 0.198831 0.345413 1.29996e-38 3
0.121903 0.199959 0.347372 1.19854e-38 3
0.142091 0.199832 0.328529 1.25372e-38 3
0.147204 0.199497 0.327978 1.43818e-38 3
0.152573 0.19952 0.328015 1.38286e-38 3
0.158299 0.199993 0.328793 1.43807e-38 3
-0.0330268 0.182124 0.368632 1.38293e-38 3
-0.0275618 0.185829 0.37613 1.30003e-38 3
-0.0222623 0.193091 0.390828 1.37371e-38 3
-0.0161693 0.196538 0.397807 1.25393e-38 3
-0.0097122 0.197216 0.399179 1.20783e-38 3
-0.0437317 0.18261 0.357799 1.29974e-38 3
-0.0382796 0.184468 0.36144 1.18918e-38 3
-0.0324599 0.184909 0.362304 1.26301e-38 3
-0.0266853 0.185861 0.364169 1.3184e-38 3
-0.0209125 0.187374 0.367133 1.26315e-38 3
-0.0150241 0.188649 0.369631 1.20783e-38 3
-0.00909349 0.190751 0.37375 1.23549e-38 3
-0.00304675 0.194013 0.380143 1.39215e-38 3
-0.0664974 0.186804 0.354678 0 3
-0.0607106 0.186804 0.354678 1.29992e-38 3
-0.0549516 0.186898 0.354857 1.26297e-38 3
-0.0492372 0.187184 0.355401 1.36435e-38 3
-0.0434485 0.187227 0.355482 1.49343e-38 3
-0.0376868 0.187417 0.355843 1.50264e-38 3
-0.0320033 0.188136 0.357208 1.36442e-38 3
-0.0263297 0.189247 0.359316 1.34598e-38 3
-0.0206126 0.19059 0.361867 1.27237e-38 3
-0.0149718 0.194002 0.368345 1.35528e-38 3
-0.00915841 0.198254 0.376418 0 3
-0.00303681 0.199562 0.378902 1.29074e-38 3
-0.0894627 0.1922 0.353958 1.28145e-38 3
-0.0836685 0.192156 0.353877 0 3
-0.0778557 0.192059 0.3537 1.21691e-38 3
-0.071975 0.191767 0.353161 1.18003e-38 3
-0.0661979 0.191723 0.35308 0 3
-0.0604371 0.191723 0.35308 1.38279e-38 3
-0.0546764 0.191723 0.35308 1.47509e-38 3
-0.0489157 0.191723 0.35308 1.61339e-38 3
-0.0431585 0.191739 0.353109 1.65016e-38 3
-0.0374449 0.191983 0.353558 1.34591e-38 3
-0.0317415 0.192378 0.354286 1.46587e-38 3
-0.0260686 0.193174 0.355752 1.46587e-38 3
-0.0202262 0.192811 0.355084 1.2907e-38 3
-0.0145659 0.19459 0.358361 0 3
-0.0890677 0.197101 0.352395 1.45655e-38 3
-0.0834051 0.197306 0.352763 1.39197e-38 3
-0.0776789 0.197381 0.352896 1.38279e-38 3
-0.071796 0.197037 0.352282 1.42889e-38 3
-0.0657836 0.196248 0.35087 1.36435e-38 3
-0.0599011 0.195732 0.349948 1.45658e-38 3
-0.0542109 0.195802 0.350074 1.34602e-38 3
-0.0484873 0.195754 0.349988 1.40134e-38 3
-0.0426883 0.195348 0.349262 1.3368e-38 3
-0.0370274 0.195546 0.349616 1.37368e-38 3
-0.0314263 0.19619 0.350767 1.41045e-38 3
-0.0259868 0.198354 0.354636 1.57644e-38 3
-0.020215 0.198494 0.354887 1.35513e-38 3
-0.0144234 0.198475 0.354853 1.20762e-38 3
-0.0424391 0.199873 0.347223 1.41056e-38 3
-0.0367449 0.199715 0.346949 1.29992e-38 3
-0.0300061 0.198253 0.334916 1.28141e-38 3
-0.0240329 0.194143 0.327972 1.40126e-38 3
-0.0184803 0.192048 0.324434 0 3
-0.0124267 0.180977 0.30573 1.24446e-38 3
-0.00263077 0.194301 0.32824 0 3
-0.0229058 0.190137 0.31259 1.20758e-38 3
-0.00260749 0.19789 0.325336 1.24442e-38 3
-0.0661776 0.197588 0.300646 1.32744e-38 3
0.348567 0.187243 0.391936 0 3
0.35615 0.18787 0.393248 0 3
0.366287 0.189798 0.397284 0 3
0.300274 0.191388 0.387382 0 3
0.303514 0.189465 0.38349 0 3
0.304061 0.185973 0.376421 0 3
0.305316 0.183043 0.370491 0 3
0.307013 0.180487 0.365318 0 3
0.309405 0.178429 0.361153 0 3
0.313931 0.177656 0.359588 0 3
0.319772 0.177642 0.359559 0 3
0.326504 0.178113 0.360514 0 3
0.346209 0.185521 0.375507 0 3
0.36208 0.190652 0.385893 0 3
0.30287 0.187573 0.367524 0 3
0.306919 0.18639 0.365206 0 3
0.309673 0.184481 0.361465 0 3
0.313998 0.183562 0.359664 0 3
0.319772 0.183508 0.359559 0 3
0.325747 0.183569 0.359678 0 3
0.33381 0.184784 0.362059 0 3
0.348642 0.189638 0.37157 0 3
0.302836 0.18979 0.360348 0 3
0.307322 0.188934 0.358722 0 3
0.311903 0.188166 0.357264 0 3
0.318297 0.188501 0.3579 0 3
0.324267 0.188577 0.358044 0 3
0.331123 0.189156 0.359144 0 3
0.300676 0.190574 0.350964 0 3
0.308832 0.192085 0.353747 0 3
0.316029 0.192955 0.35535 0 3
0.317194 0.190178 0.350235 0 3
0.319952 0.188437 0.347028 0 3
0.325533 0.18839 0.346942 0 3
0.333602 0.18976 0.349465 0 3
0.303949 0.194728 0.348154 0 3
0.306341 0.19266 0.344456 0 3
0.306069 0.189021 0.33795 0 3
0.308803 0.187335 0.334936 0 3
0.312704 0.186403 0.333269 0 3
0.317155 0.185825 0.332236 0 3
0.323741 0.186496 0.333436 0 3
0.300383 0.194424 0.337758 0 3
0.30108 0.191365 0.332442 0 3
0.304171 0.189908 0.329912 0 3
0.308643 0.189349 0.328941 0 3
0.313933 0.189303 0.328861 0 3
0.322389 0.191135 0.332044 0 3
0.300383 0.199935 0.337758 0 3
0.301036 0.196759 0.332393 0 3
0.303386 0.194787 0.32906 0 3
0.306981 0.193668 0.32717 0 3
0.306992 0.199013 0.327182 0 3
0.308191 0.198254 0.31742 0 3
0.0553523 0.190482 0.398717 1.46602e-38 3
0.0617317 0.190095 0.397905 1.97295e-38 3
0.0682083 0.190052 0.397815 1.40123e-38 3
0.074486 0.18951 0.396681 1.44747e-38 3
0.0807977 0.189135 0.395895 1.30918e-38 3
0.0872851 0.189195 0.396023 1.25386e-38 3
0.0943036 0.19032 0.398376 1.19854e-38 3
0.0424134 0.197322 0.399393 1.27248e-38 3
0.0484556 0.19541 0.395523 1.57683e-38 3
0.0546577 0.194516 0.393713 1.5491e-38 3
0.0605637 0.192867 0.390377 1.6042e-38 3
0.0665409 0.191738 0.38809 1.61321e-38 3
0.0728894 0.191781 0.388178 1.24464e-38 3
0.0796841 0.192898 0.390439 1.34606e-38 3
0.0866494 0.194232 0.393138 1.39215e-38 3
0.0935369 0.195219 0.395137 1.31833e-38 3
0.0541874 0.19921 0.390326 1.52148e-38 3
0.0600204 0.197449 0.386874 1.33691e-38 3
0.0660124 0.196496 0.385008 1.47509e-38 3
0.0721647 0.196145 0.384319 1.44747e-38 3
0.0786637 0.196717 0.385439 1.41067e-38 3
0.085384 0.197716 0.387397 1.39223e-38 3
0.0924461 0.199314 0.390529 1.24457e-38 3
0.0952172 0.197722 0.353506 1.41052e-38 3
0.0990702 0.199631 0.346803 0 3
0.0135431 0.195856 0.330866 1.63172e-38 3
0.0173611 0.179516 0.303262 1.34591e-38 3
0.0222633 0.179147 0.30264 1.45633e-38 3
0.0276072 0.181822 0.307159 1.76058e-38 3
0.00261432 0.191569 0.314944 1.52101e-38 3
0.0270578 0.183115 0.301046 1.80664e-38 3
0.0321204 0.18398 0.302467 1.9727e-38 3
0.0377045 0.187203 0.307766 1.49357e-38 3
0.0434784 0.1905 0.313186 1.37379e-38 3
0.0505515 0.198197 0.325841 1.51208e-38 3
0.0320349 0.188412 0.301662 2.12021e-38 3
0.0371015 0.18915 0.302844 1.39212e-38 3
0.0425292 0.191339 0.306349 0 3
0.0482471 0.194236 0.310987 1.37379e-38 3
0.054249 0.197616 0.316399 1.38301e-38 3
0.036842 0.192734 0.300725 1.48431e-38 3
0.0422545 0.195069 0.30437 1.28163e-38 3
0.0477479 0.197248 0.30777 1.27237e-38 3
0.0534393 0.199752 0.311677 1.34613e-38 3
0.0420869 0.199242 0.303163 1.47524e-38 3
0.684919 0.305001 0.661 0 3
0.673478 0.381557 0.682183 0 3
0.673448 0.392669 0.682152 0 3
0.643813 0.399225 0.674426 0 3
0.364766 0.200276 0.434039 0 3
0.37163 0.200158 0.433785 0 3
0.30517 0.22617 0.473417 0 3
0.358058 0.233125 0.471861 0 3
0.327323 0.230044 0.45074 0 3
0.327186 0.237299 0.450551 0 3
0.326359 0.244032 0.449413 1.21698e-38 3
0.370705 0.239521 0.441106 0 3
0.325652 0.25082 0.448439 0 3
0.363254 0.241759 0.43224 0 3
0.302688 0.253535 0.416817 0 3
0.301855 0.253914 0.406536 1.18007e-38 3
0.47175 0.209236 0.470079 0 3
0.416747 0.228052 0.477357 0 3
0.416934 0.234035 0.444354 0 3
0.219933 0.203329 0.456809 1.21695e-38 3
0.226855 0.202855 0.455743 0 3
0.234079 0.202671 0.455331 0 3
0.239643 0.201106 0.451813 0 3
0.232966 0.209101 0.453164 0 3
0.238594 0.207565 0.449836 0 3
0.242335 0.204528 0.443255 0 3
0.248782 0.203884 0.44186 0 3
0.257339 0.204958 0.444186 0 3
0.266689 0.206587 0.447716 0 3
0.274574 0.207024 0.448665 0 3
0.239013 0.208857 0.437178 0 3
0.24452 0.207477 0.43429 1.33666e-38 3
0.214701 0.206335 0.417637 1.18018e-38 3
0.234217 0.218167 0.441584 0 3
0.226883 0.205028 0.414991 0 3
0.231061 0.202753 0.410386 0 3
0.237712 0.202715 0.410309 0 3
0.243154 0.201676 0.408206 1.27212e-38 3
0.206263 0.204772 0.401223 0 3
0.213895 0.205816 0.403269 0 3
0.221573 0.206842 0.405278 0 3
0.228614 0.207231 0.40604 0 3
0.234437 0.206524 0.404656 0 3
0.23344 0.254652 0.46897 1.24461e-38 3
0.225881 0.253809 0.453785 1.22613e-38 3
0.128148 0.199672 0.448594 1.21698e-38 3
0.133462 0.196716 0.441952 0 3
0.13725 0.191931 0.431201 0 3
0.141161 0.187774 0.421863 0 3
0.147532 0.187124 0.420402 0 3
0.154394 0.187128 0.420411 1.32755e-38 3
0.162187 0.188212 0.422847 0 3
0.170275 0.189536 0.42582 1.21702e-38 3
0.113035 0.193639 0.419657 1.28148e-38 3
0.119741 0.193412 0.419164 1.26301e-38 3
0.12643 0.193183 0.418668 1.26301e-38 3
0.132794 0.192506 0.4172 1.31833e-38 3
0.139749 0.19271 0.417642 1.37354e-38 3
0.146951 0.19322 0.418748 1.41041e-38 3
0.154225 0.193775 0.419952 1.40119e-38 3
0.162184 0.195107 0.422837 1.39212e-38 3
0.170242 0.196444 0.425736 1.39212e-38 3
0.177367 0.196643 0.426167 1.4013e-38 3
0.185808 0.19823 0.429606 1.41974e-38 3
0.101534 0.191699 0.401262 1.23535e-38 3
0.10896 0.193258 0.404526 1.25379e-38 3
0.116371 0.194615 0.407367 1.22613e-38 3
0.123302 0.195064 0.408307 1.26301e-38 3
0.130378 0.195686 0.409609 1.26301e-38 3
0.137815 0.196762 0.411862 1.32755e-38 3
0.145927 0.198658 0.415829 1.53949e-38 3
0.107847 0.197816 0.400394 1.27212e-38 3
0.115217 0.199266 0.403327 1.53949e-38 3
0.0813916 0.211295 0.474704 1.27223e-38 3
0.010737 0.201259 0.436169 1.49364e-38 3
0.0177793 0.200423 0.434359 1.24479e-38 3
0.0959684 0.216975 0.470229 1.36457e-38 3
0.00350202 0.201551 0.421885 1.2907e-38 3
0.0104813 0.203414 0.425785 1.55818e-38 3
0.017715 0.206761 0.43279 1.45683e-38 3
0.0247582 0.20661 0.432474 1.31861e-38 3
0.0315329 0.204782 0.428649 1.21716e-38 3
0.0378828 0.20136 0.421486 0 3
0.00336784 0.200448 0.40572 1.30914e-38 3
0.0100483 0.20167 0.408193 1.45676e-38 3
0.0167435 0.202096 0.409055 1.20791e-38 3
0.0240373 0.207444 0.419882 1.32783e-38 3
0.0303831 0.204054 0.413018 0 3
0.00989429 0.205137 0.401937 1.35528e-38 3
0.0165043 0.205787 0.403212 0 3
0.0231167 0.206088 0.403801 1.24482e-38 3
0.0294509 0.204325 0.400347 1.30017e-38 3
0.0294468 0.22389 0.400291 1.1984e-38 3
0.0369089 0.229684 0.41065 0 3
0.043758 0.230469 0.412054 0 3
0.0495269 0.226114 0.404267 1.34609e-38 3
0.0374069 0.239573 0.416191 1.56711e-38 3
0.045217 0.245101 0.425793 1.29059e-38 3
0.0531287 0.249633 0.433667 1.33687e-38 3
0.0597163 0.24761 0.430152 1.59502e-38 3
0.0770736 0.266093 0.44952 1.4291e-38 3
-0.396074 0.218328 0.490505 0 3
-0.389986 0.219405 0.492926 0 3
-0.381985 0.219429 0.49298 0 3
-0.373942 0.219429 0.49298 0 3
-0.365982 0.219479 0.493092 0 3
-0.359215 0.220263 0.494853 0 3
-0.352169 0.220907 0.496301 0 3
-0.346579 0.222517 0.499918 0 3
-0.396284 0.221965 0.481045 0 3
-0.391199 0.223545 0.484468 0 3
-0.385056 0.224572 0.486695 0 3
-0.375842 0.223814 0.485052 0 3
-0.367037 0.223272 0.483877 0 3
-0.358888 0.223114 0.483534 0 3
-0.34732 0.220776 0.478467 0 3
-0.335784 0.21835 0.473211 0 3
-0.324898 0.216244 0.468645 0 3
-0.31365 0.213789 0.463325 0 3
-0.305325 0.213254 0.462165 0 3
-0.308449 0.220891 0.478716 0 3
-0.31103 0.228526 0.495264 0 3
-0.305485 0.230439 0.499409 0 3
-0.396178 0.216867 0.453946 0 3
-0.399508 0.222856 0.466482 0 3
-0.396107 0.229711 0.480831 0 3
-0.388303 0.229736 0.480882 0 3
-0.38021 0.229587 0.480569 0 3
-0.36849 0.227195 0.475563 0 3
-0.356944 0.22481 0.470571 0 3
-0.348025 0.224011 0.468898 0 3
-0.334563 0.220186 0.460892 0 3
-0.320066 0.215488 0.451059 0 3
-0.30951 0.213286 0.446448 0 3
-0.301445 0.212734 0.445294 0 3
-0.396128 0.237569 0.480856 0 3
-0.388303 0.237582 0.480882 0 3
-0.38021 0.237428 0.480569 0 3
-0.36849 0.234954 0.475563 0 3
-0.356359 0.232106 0.469799 0 3
-0.338628 0.225406 0.456237 0 3
-0.321985 0.219145 0.443565 0 3
-0.31252 0.217594 0.440425 0 3
-0.305288 0.217561 0.440358 0 3
-0.3373 0.226948 0.444673 0 3
-0.353579 0.260717 0.466135 0 3
-0.32986 0.261575 0.454413 0 3
-0.316914 0.258432 0.436578 0 3
-0.302747 0.268073 0.407895 0 3
-0.302747 0.274728 0.407895 0 3
-0.302747 0.281383 0.407895 0 3
0.142672 0.214153 0.499434 1.1801e-38 3
0.125997 0.208212 0.46778 1.24461e-38 3
0.115823 0.225767 0.489284 1.2262e-38 3
0.111807 0.203885 0.441862 1.23539e-38 3
0.183801 0.203023 0.424966 1.46573e-38 3
0.192549 0.204954 0.429009 1.2723e-38 3
0.12277 0.200857 0.406548 1.21691e-38 3
0.129933 0.201679 0.408212 1.38286e-38 3
0.136631 0.201735 0.408326 1.43818e-38 3
0.143744 0.202369 0.409609 1.47495e-38 3
0.151182 0.203384 0.411664 1.51176e-38 3
0.158337 0.20395 0.412809 1.53027e-38 3
0.165917 0.204993 0.41492 1.35517e-38 3
0.173741 0.206245 0.417454 1.47495e-38 3
0.180342 0.206005 0.416968 1.5303e-38 3
0.186214 0.20498 0.414894 1.24457e-38 3
0.190177 0.202 0.408861 1.19858e-38 3
0.194957 0.200059 0.404933 1.2078e-38 3
0.173527 0.204766 0.401211 1.37364e-38 3
0.179939 0.204614 0.400912 1.23535e-38 3
0.186207 0.204314 0.400326 0 3
0.146945 0.254699 0.418731 1.2723e-38 3
0.144528 0.257229 0.411843 1.41059e-38 3
0.144477 0.263855 0.411698 1.3184e-38 3
0.155895 0.267118 0.406442 1.21687e-38 3
0.155612 0.273251 0.405702 1.34595e-38 3
0.154921 0.278628 0.403901 1.42889e-38 3
0.140438 0.282596 0.400188 1.43818e-38 3
0.140438 0.289125 0.400188 1.36442e-38 3
0.00368902 0.190561 0.444413 1.29081e-38 3
0.0109509 0.190751 0.444858 1.28159e-38 3
0.024804 0.199922 0.433273 1.40159e-38 3
0.0317792 0.199334 0.431998 0 3
0.0386732 0.198541 0.43028 1.20783e-38 3
0.0440934 0.191589 0.415212 1.39215e-38 3
0.0494732 0.186336 0.403829 0 3
0.0558087 0.185494 0.402005 0 3
0.062362 0.185477 0.401968 1.4935e-38 3
0.0689204 0.185477 0.401968 1.30911e-38 3
0.0762465 0.187364 0.406057 1.28152e-38 3
0.0430487 0.193663 0.405375 0 3
0.04909 0.19143 0.400701 1.21716e-38 3
0.0362072 0.199026 0.402843 1.21716e-38 3
-0.0322719 0.327495 0.793973 0 3
-0.0319236 0.362404 0.785405 1.30936e-38 3
-0.0968733 0.378649 0.792586 1.19851e-38 3
-0.0998439 0.202074 0.489905 0 3
-0.0911489 0.20053 0.486161 0 3
-0.0985776 0.207403 0.483692 0 3
-0.0900127 0.205864 0.480101 0 3
-0.0811271 0.203227 0.473953 1.33669e-38 3
-0.0937357 0.20472 0.459934 0 3
-0.0849884 0.201769 0.453303 0 3
-0.077421 0.201323 0.452301 1.46587e-38 3
-0.0700001 0.201204 0.452035 1.23528e-38 3
-0.0626371 0.201243 0.452123 1.4197e-38 3
-0.0551246 0.200749 0.451012 1.42903e-38 3
-0.0477013 0.200477 0.4504 1.3645e-38 3
-0.0999136 0.209444 0.453909 0 3
-0.0920905 0.208499 0.451862 1.30925e-38 3
-0.0846853 0.208419 0.451686 0 3
-0.0770657 0.207745 0.450226 0 3
-0.0696005 0.207389 0.449454 1.23538e-38 3
-0.0622843 0.207445 0.449576 1.18007e-38 3
-0.0549034 0.207272 0.449202 0 3
-0.0475538 0.207183 0.449008 1.37371e-38 3
-0.0399456 0.205728 0.445856 1.33684e-38 3
-0.0324632 0.204419 0.443018 1.50279e-38 3
-0.0252094 0.204211 0.442568 1.36457e-38 3
-0.0976172 0.211866 0.443476 1.18014e-38 3
-0.0901648 0.211358 0.442413 1.20776e-38 3
-0.0832535 0.21214 0.444049 0 3
-0.0761628 0.21257 0.444951 0 3
-0.0689134 0.212602 0.445017 0 3
-0.0621065 0.214167 0.448293 1.18014e-38 3
-0.0250229 0.209868 0.439294 1.30003e-38 3
-0.017853 0.209837 0.43923 1.31847e-38 3
-0.0105362 0.206882 0.433045 1.37379e-38 3
-0.00337419 0.201126 0.420996 1.41981e-38 3
-0.0481412 0.224574 0.454554 1.29992e-38 3
-0.0612453 0.225623 0.442077 1.29059e-38 3
-0.0896068 0.23157 0.439674 1.24457e-38 3
-0.0529826 0.256602 0.433486 1.32758e-38 3
-0.0512307 0.254956 0.419154 0 3
-0.198652 0.205058 0.49714 0 3
-0.188726 0.203105 0.492405 0 3
-0.180133 0.202476 0.49088 0 3
-0.10889 0.204048 0.49469 0 3
-0.195598 0.209892 0.489496 0 3
-0.185017 0.206989 0.482726 0 3
-0.175504 0.205077 0.478267 0 3
-0.16887 0.206506 0.4816 0 3
-0.162738 0.208719 0.486762 0 3
-0.126348 0.214351 0.499894 0 3
-0.116383 0.21107 0.492244 0 3
-0.107048 0.208531 0.486323 0 3
-0.196431 0.210223 0.472298 0 3
-0.189043 0.210576 0.473091 0 3
-0.173817 0.201859 0.453506 0 3
-0.144644 0.202452 0.454838 0 3
-0.13754 0.202919 0.455887 0 3
-0.130899 0.204163 0.458681 0 3
-0.123803 0.204803 0.460121 0 3
-0.115421 0.203264 0.456664 0 3
-0.109299 0.205766 0.462283 0 3
-0.102814 0.207903 0.467084 0 3
-0.197199 0.210522 0.456245 0 3
-0.190815 0.211698 0.458793 0 3
-0.183166 0.211509 0.458385 0 3
-0.140152 0.203354 0.440711 0 3
-0.135625 0.207429 0.449542 0 3
-0.130301 0.21068 0.456588 0 3
-0.123362 0.211555 0.458483 0 3
-0.113259 0.206767 0.448106 0 3
-0.106055 0.206977 0.448562 0 3
-0.197324 0.21017 0.439927 0 3
-0.193909 0.21433 0.448633 0 3
-0.187209 0.215041 0.450123 0 3
-0.177293 0.211966 0.443687 0 3
-0.132737 0.21019 0.439968 1.18028e-38 3
-0.127077 0.212732 0.445289 1.18025e-38 3
-0.11966 0.212463 0.444727 1.18025e-38 3
-0.111388 0.210543 0.440706 0 3
-0.103939 0.210019 0.439611 1.18936e-38 3
-0.196151 0.208473 0.421963 0 3
-0.190535 0.20987 0.424792 0 3
-0.189134 0.216191 0.437585 0 3
-0.183112 0.217519 0.440272 0 3
-0.174255 0.21545 0.436085 0 3
-0.130921 0.214395 0.43395 1.18025e-38 3
-0.126623 0.219211 0.443698 0 3
-0.118852 0.218235 0.441723 0 3
-0.110383 0.215769 0.43673 1.23546e-38 3
-0.190981 0.209681 0.410842 0 3
-0.186429 0.212129 0.415637 0 3
-0.181825 0.214701 0.420676 1.22627e-38 3
-0.1736 0.21303 0.417403 1.24471e-38 3
-0.192646 0.21087 0.400372 0 3
-0.118253 0.238647 0.439496 0 3
-0.117827 0.244933 0.437914 0 3
-0.130763 0.249493 0.433425 0 3
-0.155216 0.271086 0.42298 0 3
-0.155216 0.277987 0.42298 0 3
-0.12052 0.277548 0.422312 0 3
-0.207621 0.205909 0.499203 0 3
-0.230614 0.212724 0.496101 0 3
-0.221679 0.21192 0.494227 0 3
-0.21304 0.21135 0.492896 0 3
-0.204264 0.210593 0.49113 0 3
-0.243817 0.21122 0.474537 0 3
-0.225473 0.201734 0.453226 0 3
-0.216288 0.200079 0.449506 0 3
-0.210953 0.201992 0.453805 0 3
-0.208464 0.20687 0.464763 0 3
-0.201106 0.207101 0.465284 0 3
-0.265312 0.224038 0.485537 0 3
-0.244511 0.212827 0.46124 0 3
-0.228079 0.204829 0.443906 0 3
-0.218687 0.202836 0.439587 0 3
-0.214178 0.205389 0.445121 0 3
-0.208408 0.206871 0.448331 0 3
-0.201165 0.206944 0.44849 0 3
-0.292319 0.211389 0.442478 0 3
-0.281751 0.208906 0.43728 0 3
-0.273781 0.20827 0.43595 0 3
-0.266378 0.208044 0.435476 0 3
-0.259292 0.20806 0.435509 0 3
-0.252766 0.208537 0.436509 0 3
-0.246891 0.209596 0.438725 0 3
-0.241083 0.210776 0.441196 0 3
-0.232078 0.209148 0.437787 0 3
-0.223401 0.207722 0.434802 0 3
-0.217534 0.2089 0.437269 0 3
-0.21159 0.210082 0.439743 1.28159e-38 3
-0.203763 0.209411 0.438339 0 3
-0.298103 0.217561 0.440358 0 3
-0.290557 0.21729 0.43981 0 3
-0.282253 0.216425 0.438059 0 3
-0.274087 0.215624 0.436438 0 3
-0.266385 0.215154 0.435487 0 3
-0.259267 0.215144 0.435465 0 3
-0.252343 0.215299 0.435779 0 3
-0.24593 0.21591 0.437016 0 3
-0.238091 0.215269 0.435719 0 3
-0.229197 0.213606 0.432353 0 3
-0.221959 0.213429 0.431996 0 3
-0.215308 0.213823 0.432793 0 3
-0.205604 0.21111 0.427302 0 3
-0.281214 0.22275 0.436448 0 3
-0.273632 0.222375 0.435714 0 3
-0.265653 0.221649 0.434291 0 3
-0.258548 0.221633 0.434259 0 3
-0.251539 0.2217 0.43439 0 3
-0.245278 0.222449 0.435858 0 3
-0.237094 0.221447 0.433895 0 3
-0.238533 0.253009 0.495736 0 3
-0.281214 0.229871 0.436448 0 3
-0.273551 0.229416 0.435585 0 3
-0.26349 0.226873 0.430755 0 3
-0.248557 0.21988 0.417478 0 3
-0.238349 0.21679 0.411612 0 3
-0.239827 0.224459 0.426172 0 3
-0.231542 0.223175 0.423735 0 3
-0.219731 0.21831 0.414497 0 3
-0.210208 0.21548 0.409124 0 3
-0.200596 0.212371 0.403221 0 3
-0.207875 0.263245 0.499814 0 3
-0.288254 0.262896 0.484153 0 3
-0.286305 0.26179 0.468053 0 3
-0.246165 0.258238 0.413459 0 3
-0.244718 0.263427 0.41103 0 3
-0.243922 0.269255 0.409693 0 3
-0.255633 0.274161 0.407053 0 3
-0.269409 0.281317 0.407799 0 3
-0.22431 0.289878 0.4105 0 3
-0.420151 0.202355 0.490585 0 3
-0.417051 0.208807 0.486965 0 3
-0.410641 0.20959 0.488793 0 3
-0.416209 0.212271 0.476897 0 3
-0.410907 0.213559 0.479791 0 3
-0.405561 0.214874 0.482746 0 3
-0.400241 0.216255 0.485848 0 3
-0.402844 0.212985 0.461583 0 3
-0.402245 0.21672 0.469678 0 3
-0.401934 0.220758 0.478429 0 3
-0.401875 0.22853 0.478358 0 3
-0.400908 0.231275 0.468116 0 3
-0.402826 0.236895 0.479491 0 3
-0.404831 0.259445 0.46386 0 3
-0.40412 0.266544 0.463046 0 3
-0.402899 0.273271 0.461646 0 3
-0.402899 0.280803 0.461646 0 3
0.379521 0.178905 0.451596 0 3
0.395721 0.182989 0.461905 0 3
0.325239 0.176792 0.428612 0 3
0.364571 0.178935 0.433807 0 3
0.379932 0.182923 0.443475 0 3
0.395405 0.186815 0.452911 0 3
0.32195 0.181926 0.424277 0 3
0.332336 0.183843 0.428745 0 3
0.340129 0.184274 0.429753 0 3
0.347793 0.184621 0.430561 0 3
0.355389 0.184918 0.431253 0 3
0.364608 0.186032 0.433851 0 3
0.374161 0.18727 0.43674 0 3
0.385465 0.189323 0.441526 0 3
0.393817 0.189876 0.442816 0 3
0.313097 0.187691 0.421676 0 3
0.3216 0.188644 0.423816 0 3
0.330878 0.190001 0.426865 0 3
0.336508 0.18925 0.425178 0 3
0.342441 0.188697 0.423935 0 3
0.352721 0.190513 0.428016 0 3
0.364428 0.193015 0.433637 0 3
0.372956 0.19377 0.435333 0 3
0.376571 0.191992 0.431338 0 3
0.372465 0.186414 0.418808 0 3
0.377602 0.185581 0.416935 0 3
0.384404 0.185581 0.416935 0 3
0.312244 0.194041 0.420527 0 3
0.352192 0.1972 0.427374 0 3
0.365499 0.193178 0.418656 0 3
0.363278 0.188481 0.408478 0 3
0.369666 0.18834 0.408173 0 3
0.375225 0.18779 0.406979 0 3
-0.0922828 0.194994 0.49221 0 3
-0.0839639 0.194327 0.490526 1.26286e-38 3
-0.0823787 0.19851 0.481265 1.37343e-38 3
-0.0722484 0.192442 0.466553 1.45633e-38 3
-0.0631567 0.188037 0.455874 1.55782e-38 3
-0.055412 0.187002 0.453363 1.34602e-38 3
-0.0479807 0.186868 0.453038 1.23546e-38 3
-0.040523 0.186564 0.452301 1.50279e-38 3
-0.0331061 0.186353 0.451791 1.30918e-38 3
-0.0257177 0.186229 0.45149 1.25404e-38 3
-0.0715908 0.198233 0.462307 1.36421e-38 3
-0.0630051 0.195006 0.454779 1.65001e-38 3
-0.0553957 0.194341 0.45323 1.43822e-38 3
-0.0479757 0.194239 0.452992 1.29077e-38 3
-0.0404532 0.193609 0.451522 1.3645e-38 3
-0.0330118 0.193173 0.450504 1.56729e-38 3
-0.0256275 0.192917 0.449908 1.54896e-38 3
-0.0182162 0.192171 0.448167 1.41077e-38 3
-0.0108966 0.192039 0.447861 1.36457e-38 3
-0.00357921 0.191489 0.446578 0 3
-0.0401961 0.199698 0.448652 1.41059e-38 3
-0.0327391 0.198866 0.446783 1.37364e-38 3
-0.0253929 0.198424 0.445788 1.37379e-38 3
-0.0180042 0.197161 0.442951 1.29092e-38 3
-0.0107473 0.196615 0.441725 1.34624e-38 3
-0.00353967 0.196579 0.441643 1.22627e-38 3
-0.00321677 0.198292 0.401356 1.28155e-38 3
-0.101253 0.19682 0.49682 0 3
-0.163476 0.19829 0.445487 0 3
-0.15485 0.196568 0.441618 0 3
-0.148232 0.197349 0.443373 0 3
0.333117 0.428899 0.669218 1.41041e-38 3
0.306176 0.443347 0.658246 1.18929e-38 3
0.305634 0.453282 0.657081 0 3
0.305634 0.464003 0.657081 0 3
0.306738 0.476438 0.659454 1.18014e-38 3
0.493058 0.214524 0.564767 0 3
0.440583 0.211801 0.534634 0 3
0.424697 0.212573 0.515357 0 3
0.408295 0.233232 0.505461 0 3
0.484918 0.238468 0.516809 0 3
0.47244 0.240547 0.503511 0 3
0.230735 0.188424 0.496055 1.25393e-38 3
0.239256 0.188762 0.496944 1.1801e-38 3
0.246278 0.187933 0.494763 1.21688e-38 3
0.251643 0.185933 0.489497 1.27219e-38 3
0.225126 0.19174 0.483996 1.2078e-38 3
0.230697 0.189827 0.479167 1.29996e-38 3
0.236687 0.188372 0.475494 0 3
0.243787 0.187865 0.474214 0 3
0.248166 0.185357 0.467884 0 3
0.252411 0.182902 0.461685 0 3
0.220915 0.195903 0.474944 1.28152e-38 3
0.225895 0.193531 0.469194 0 3
0.231152 0.191543 0.464374 0 3
0.237703 0.190721 0.46238 0 3
0.244181 0.189892 0.46037 0 3
0.249386 0.188152 0.456152 0 3
0.255861 0.187443 0.454434 0 3
0.263255 0.187429 0.454399 0 3
0.270613 0.18739 0.454304 0 3
0.277121 0.18678 0.452826 0 3
0.215388 0.198557 0.463062 1.1801e-38 3
0.222951 0.198564 0.463078 0 3
0.229591 0.197776 0.461239 0 3
0.261543 0.193576 0.451444 0 3
0.267952 0.192887 0.449838 0 3
0.274903 0.192614 0.449202 0 3
0.244478 0.199041 0.447175 1.20769e-38 3
0.251494 0.198819 0.446677 0 3
0.259199 0.19914 0.447397 0 3
0.266966 0.199489 0.448182 0 3
0.274816 0.19988 0.449061 0 3
0.201204 0.199702 0.40421 1.30914e-38 3
-0.445114 0.227796 0.599707 0 3
-0.427987 0.223954 0.589592 0 3
-0.405893 0.217276 0.572012 0 3
-0.454899 0.23758 0.599707 0 3
-0.437393 0.233459 0.589304 0 3
-0.411848 0.224766 0.56736 0 3
-0.498064 0.244706 0.570688 0 3
-0.442303 0.255526 0.59592 0 3
-0.497067 0.248857 0.559093 0 3
-0.484662 0.25154 0.54514 0 3
-0.480395 0.258142 0.54034 0 3
-0.469631 0.265855 0.538109 0 3
-0.424536 0.279629 0.547895 0 3
0.475869 0.181218 0.498497 0 3
0.499327 0.180877 0.497558 0 3
0.496269 0.176893 0.4866 0 3
0.483191 0.16952 0.466316 0 3
0.46711 0.161338 0.443809 0 3
0.42767 0.182661 0.480882 0 3
0.435613 0.182701 0.480989 0 3
0.445005 0.183337 0.482664 0 3
0.453969 0.183778 0.483824 0 3
0.462095 0.183871 0.484068 0 3
0.473201 0.185126 0.487372 0 3
0.481685 0.18533 0.487911 0 3
0.486382 0.184095 0.484659 0 3
0.48575 0.180915 0.476286 0 3
0.478385 0.175366 0.461678 0 3
0.466719 0.168438 0.443438 0 3
0.463895 0.164863 0.434027 0 3
0.468942 0.16415 0.432151 0 3
0.410737 0.186383 0.470473 0 3
0.421436 0.187729 0.473872 0 3
0.430309 0.188229 0.475132 0 3
0.439591 0.188886 0.476792 0 3
0.448532 0.189377 0.47803 0 3
0.458037 0.190084 0.479817 0 3
0.468501 0.19116 0.482531 0 3
0.474279 0.190319 0.480409 0 3
0.454989 0.17961 0.453377 0 3
0.443554 0.172295 0.434912 0 3
0.451676 0.172687 0.435902 0 3
0.458271 0.172492 0.43541 0 3
0.463705 0.171874 0.433848 0 3
0.468895 0.171184 0.432108 0 3
0.475679 0.171088 0.431866 0 3
0.494955 0.15916 0.401757 0 3
0.400817 0.185898 0.450688 0 3
0.40487 0.184395 0.447043 0 3
0.412353 0.18448 0.447249 0 3
0.428746 0.188478 0.456943 0 3
0.442518 0.191207 0.46356 0 3
0.448274 0.190439 0.461698 0 3
0.446887 0.186713 0.452663 0 3
0.440672 0.181123 0.43911 0 3
0.442204 0.178845 0.433588 0 3
0.45155 0.179749 0.43578 0 3
0.457989 0.179486 0.435143 0 3
0.462555 0.178508 0.432773 0 3
0.467606 0.177744 0.430921 0 3
0.474083 0.177537 0.430417 0 3
0.479941 0.167337 0.405689 0 3
0.484961 0.166787 0.404355 0 3
0.488924 0.165893 0.402188 0 3
0.493981 0.165389 0.400967 0 3
0.400221 0.189487 0.44191 0 3
0.408261 0.189874 0.44281 0 3
0.417559 0.190821 0.44502 0 3
0.435603 0.195664 0.456315 0 3
0.445727 0.196848 0.459075 0 3
0.443175 0.192486 0.448903 0 3
0.44347 0.189483 0.441899 0 3
0.446512 0.18773 0.437812 0 3
0.450735 0.186522 0.434994 0 3
0.456024 0.185785 0.433276 0 3
0.465966 0.186938 0.435964 0 3
0.475132 0.187749 0.437855 0 3
0.482037 0.187656 0.437639 0 3
0.443987 0.193771 0.435336 0 3
0.442747 0.190188 0.427285 0 3
0.450014 0.190313 0.427566 0 3
0.461004 0.191984 0.431321 0 3
0.472939 0.193993 0.435835 0 3
0.480111 0.194018 0.43589 0 3
0.449835 0.19721 0.427396 0 3
0.457872 0.197669 0.428391 0 3
0.465617 0.197991 0.429087 0 3
0.458716 0.411995 0.67733 0 3
0.436591 0.423024 0.677293 1.41038e-38 3
0.420446 0.428877 0.669184 0 3
0.411361 0.430292 0.654725 1.29974e-38 3
0.441763 0.43934 0.652297 1.28145e-38 3
0.439578 0.447756 0.649071 0 3
0.449409 0.468145 0.647976 1.30918e-38 3
0.449409 0.478717 0.647976 1.19854e-38 3
0.482126 0.479766 0.635363 0 3
0.183829 0.415132 0.682487 1.43818e-38 3
0.193038 0.422056 0.675743 1.33684e-38 3
0.192723 0.432376 0.674643 1.48435e-38 3
0.181302 0.442374 0.673108 1.35528e-38 3
0.101602 0.44109 0.654896 1.24471e-38 3
0.134676 0.411553 0.611042 1.48435e-38 3
0.260592 0.211069 0.580611 0 3
0.259711 0.219796 0.578648 1.21698e-38 3
0.254912 0.225001 0.567955 1.26308e-38 3
0.252129 0.231711 0.561756 1.23542e-38 3
0.247334 0.236295 0.551072 0 3
0.252769 0.241883 0.543426 1.21695e-38 3
0.266812 0.24733 0.536015 0 3
0.211024 0.24223 0.507035 1.44729e-38 3
0.283857 0.255673 0.535174 0 3
0.190019 0.217021 0.596984 0 3
0.102584 0.207517 0.54632 1.30911e-38 3
0.108988 0.202845 0.534022 1.42903e-38 3
0.107768 0.209192 0.528047 1.26312e-38 3
0.115331 0.2073 0.523272 0 3
0.12376 0.207118 0.522812 0 3
0.133534 0.209066 0.52773 1.24464e-38 3
0.107211 0.21668 0.525316 1.21702e-38 3
0.11528 0.215741 0.523039 1.18014e-38 3
0.124229 0.216464 0.524791 1.25386e-38 3
0.13383 0.218158 0.528898 1.29074e-38 3
0.144674 0.221549 0.537119 1.1801e-38 3
0.155367 0.224335 0.543874 0 3
0.165898 0.226599 0.549362 0 3
0.175454 0.227367 0.551224 1.20769e-38 3
0.106655 0.224082 0.522589 1.37375e-38 3
0.115174 0.224069 0.522558 1.18936e-38 3
0.123671 0.224015 0.522434 1.2539e-38 3
0.13152 0.222872 0.519768 0 3
0.13662 0.217492 0.50722 0 3
0.106636 0.232568 0.522498 0 3
0.115147 0.232539 0.522434 1.22627e-38 3
0.12296 0.231203 0.519431 1.25386e-38 3
0.126588 0.222677 0.500277 0 3
0.113116 0.236811 0.51322 0 3
0.103272 0.199935 0.549982 1.30918e-38 3
0.115881 0.199709 0.525765 1.23542e-38 3
0.124178 0.199258 0.524577 1.2723e-38 3
-0.119319 0.412633 0.697076 0 3
-0.142082 0.424054 0.697154 1.41963e-38 3
-0.152735 0.433382 0.693878 1.24435e-38 3
-0.0592344 0.203321 0.559297 0 3
-0.0507463 0.205906 0.566409 0 3
-0.0419865 0.208295 0.57298 1.19861e-38 3
-0.0901947 0.200151 0.526927 0 3
-0.0512601 0.217326 0.572144 0 3
-0.0421106 0.218287 0.574674 0 3
-0.038438 0.2506 0.524555 1.3184e-38 3
-0.165811 0.3215 0.884385 0 3
-0.135051 0.331265 0.872106 0 3
-0.128817 0.329548 0.831855 0 3
-0.111589 0.199046 0.547537 0 3
-0.115185 0.198768 0.523287 0 3
-0.104412 0.194602 0.51232 0 3
-0.287599 0.44318 0.691501 0 3
-0.292651 0.444987 0.677084 0 3
-0.228964 0.45009 0.684849 1.18014e-38 3
-0.291496 0.454236 0.674414 0 3
-0.291496 0.465239 0.674414 1.18032e-38 3
-0.245452 0.483575 0.640408 0 3
-0.196265 0.213408 0.587044 0 3
-0.186035 0.212662 0.584992 0 3
-0.176431 0.212591 0.584798 0 3
-0.166192 0.211702 0.582352 0 3
-0.156235 0.211086 0.580659 0 3
-0.146637 0.210908 0.580167 0 3
-0.135351 0.208109 0.572468 0 3
-0.122876 0.202933 0.558229 0 3
-0.196381 0.212736 0.56006 0 3
-0.189839 0.215685 0.567823 0 3
-0.180726 0.215865 0.568299 1.1801e-38 3
-0.172876 0.217656 0.573012 0 3
-0.164373 0.218782 0.575977 0 3
-0.153687 0.216964 0.57119 0 3
-0.142782 0.21458 0.564915 0 3
-0.130257 0.209265 0.550923 0 3
-0.194055 0.200579 0.506308 0 3
-0.189572 0.204658 0.516603 0 3
-0.187763 0.212136 0.53548 0 3
-0.182156 0.215846 0.544844 0 3
-0.176842 0.220299 0.556085 1.20783e-38 3
-0.170078 0.223331 0.563739 0 3
-0.160768 0.223175 0.563345 0 3
-0.149037 0.219436 0.553907 0 3
-0.136185 0.213458 0.538816 0 3
-0.123943 0.207675 0.524219 0 3
-0.11183 0.201267 0.508044 0 3
-0.177338 0.20861 0.50575 0 3
-0.174634 0.215455 0.522345 0 3
-0.170753 0.221475 0.536939 0 3
-0.164174 0.224457 0.544171 0 3
-0.155228 0.224359 0.543932 0 3
-0.14453 0.221564 0.537155 0 3
-0.132502 0.216238 0.524243 0 3
-0.120165 0.209637 0.508241 1.26315e-38 3
-0.161134 0.217265 0.506691 0 3
-0.159005 0.225989 0.527035 0 3
-0.150701 0.226432 0.52807 0 3
-0.138181 0.22021 0.513559 0 3
-0.174733 0.241159 0.522641 0 3
-0.164412 0.246991 0.517 0 3
-0.163883 0.254605 0.515337 0 3
-0.131367 0.265265 0.51975 0 3
-0.287774 0.210287 0.578459 0 3
-0.269485 0.2036 0.560064 0 3
-0.250068 0.202674 0.557519 0 3
-0.29715 0.219679 0.578337 0 3
-0.278555 0.212685 0.559927 0 3
-0.26341 0.207942 0.547439 0 3
-0.251895 0.205831 0.541881 0 3
-0.240504 0.203671 0.536196 0 3
-0.230613 0.202667 0.533552 0 3
-0.223663 0.20427 0.537773 0 3
-0.216939 0.206219 0.542903 0 3
-0.209492 0.207617 0.546584 0 3
-0.201394 0.208466 0.548819 0 3
-0.291086 0.224439 0.566536 0 3
-0.274659 0.218719 0.552096 0 3
-0.260787 0.214714 0.541986 0 3
-0.249016 0.212218 0.535688 0 3
-0.235233 0.207764 0.524445 0 3
-0.221744 0.203244 0.513034 0 3
-0.210907 0.200894 0.507103 0 3
-0.202085 0.200351 0.505731 0 3
-0.297091 0.231163 0.560427 0 3
-0.286951 0.230363 0.558489 0 3
-0.271754 0.225318 0.546256 0 3
-0.255862 0.219335 0.531751 0 3
-0.242434 0.215118 0.521529 0 3
-0.229151 0.210728 0.510886 1.2262e-38 3
-0.216955 0.207044 0.501953 0 3
-0.294478 0.238193 0.555498 0 3
-0.282507 0.235766 0.549838 0 3
-0.260801 0.22479 0.524241 0 3
-0.241352 0.21508 0.501595 0 3
-0.297062 0.228343 0.513006 0 3
-0.290166 0.229508 0.515624 0 3
-0.281462 0.229271 0.515092 0 3
-0.267366 0.224492 0.504355 0 3
-0.299551 0.232154 0.503127 0 3
-0.292666 0.233209 0.505413 0 3
-0.281975 0.231205 0.501068 0 3
-0.443388 0.4298 0.688143 0 3
-0.436262 0.43394 0.677084 0 3
-0.436262 0.444987 0.677084 0 3
-0.476701 0.452475 0.6718 0 3
-0.476701 0.463436 0.6718 0 3
-0.306265 0.216692 0.596079 0 3
-0.386115 0.211553 0.556946 0 3
-0.37404 0.209876 0.552532 0 3
-0.369693 0.21256 0.559597 0 3
-0.368086 0.216996 0.571274 0 3
-0.362079 0.219 0.576551 0 3
-0.355904 0.221007 0.581834 0 3
-0.351391 0.224184 0.590198 0 3
-0.343812 0.225528 0.593738 0 3
-0.334168 0.225558 0.593816 0 3
-0.324392 0.225497 0.593656 0 3
-0.313042 0.224305 0.590517 0 3
-0.391242 0.218429 0.551365 0 3
-0.378472 0.216273 0.545922 0 3
-0.368511 0.215656 0.544365 0 3
-0.359608 0.215643 0.544332 0 3
-0.350726 0.215643 0.544332 0 3
-0.341845 0.215643 0.544332 0 3
-0.333219 0.215808 0.544748 0 3
-0.328307 0.218453 0.551427 0 3
-0.323485 0.221309 0.558636 0 3
-0.31928 0.224766 0.56736 0 3
-0.313876 0.227559 0.57441 0 3
-0.304017 0.227195 0.573493 0 3
-0.390608 0.221953 0.538099 0 3
-0.378531 0.220036 0.533452 0 3
-0.371188 0.220846 0.535415 0 3
-0.363419 0.221435 0.536843 0 3
-0.354682 0.221448 0.536875 0 3
-0.346008 0.221503 0.537008 0 3
-0.338558 0.222365 0.539098 0 3
-0.330731 0.223018 0.54068 0 3
-0.323271 0.223961 0.542968 0 3
-0.316668 0.225568 0.546863 0 3
-0.311071 0.228005 0.552772 0 3
-0.303888 0.229391 0.556132 0 3
-0.371889 0.219675 0.512312 0 3
-0.363792 0.219833 0.51268 0 3
-0.359436 0.222313 0.518463 0 3
-0.353688 0.22403 0.522468 0 3
-0.345307 0.224123 0.522685 0 3
-0.338136 0.225026 0.524791 0 3
-0.331776 0.22653 0.528298 0 3
-0.325349 0.228067 0.531883 0 3
-0.318835 0.229625 0.535517 0 3
-0.312153 0.231147 0.539065 0 3
-0.3045 0.232018 0.541096 0 3
-0.300419 0.235743 0.549783 0 3
-0.340511 0.22389 0.503002 0 3
-0.338544 0.228094 0.512447 0 3
-0.334373 0.230989 0.518951 0 3
-0.32577 0.230893 0.518734 0 3
-0.313816 0.228352 0.513028 0 3
-0.303235 0.2267 0.509315 0 3
0.376714 0.208183 0.599581 0 3
0.369668 0.213888 0.588366 0 3
0.378415 0.210217 0.509646 0 3
0.301809 0.22985 0.536041 0 3
0.374977 0.216547 0.505016 0 3
0.368843 0.226077 0.507916 0 3
0.368256 0.233991 0.507107 0 3
0.0536348 0.207198 0.596744 0 3
0.0619984 0.202709 0.583818 0 3
0.0536063 0.216819 0.596427 0 3
0.0619522 0.212077 0.583383 1.23542e-38 3
0.0693245 0.205709 0.565866 1.21698e-38 3
0.0772055 0.20217 0.556131 1.26308e-38 3
0.0861101 0.201774 0.555041 1.2723e-38 3
0.0947001 0.200786 0.552324 1.26308e-38 3
0.0628846 0.22493 0.592163 0 3
0.0693932 0.215154 0.566427 1.25386e-38 3
0.0772055 0.211244 0.556131 1.32762e-38 3
0.0861101 0.21083 0.555041 1.29074e-38 3
0.0946765 0.209745 0.552187 1.20776e-38 3
0.069769 0.225611 0.569495 1.19854e-38 3
0.0761483 0.2173 0.548516 1.22613e-38 3
0.0838314 0.214067 0.540354 0 3
0.0915582 0.21155 0.534 0 3
0.0994665 0.209853 0.529717 1.28152e-38 3
0.0044229 0.219777 0.532823 1.38301e-38 3
0.0910434 0.219024 0.530997 0 3
0.0990537 0.217589 0.527518 1.29074e-38 3
0.0983974 0.224697 0.524023 0 3
0.0776859 0.222884 0.500741 1.32755e-38 3
0.0974356 0.230967 0.518901 0 3
0.00433368 0.240897 0.522074 1.28148e-38 3
-0.0592344 0.194196 0.559297 0 3
-0.0507463 0.196665 0.566409 0 3
-0.0419865 0.198947 0.57298 1.23542e-38 3
-0.0977633 0.198067 0.521441 0 3
-0.385961 0.238137 0.685851 0 3
-0.36682 0.233085 0.671302 0 3
-0.35222 0.230696 0.664422 0 3
-0.342691 0.231582 0.666973 0 3
-0.397964 0.23651 0.650593 0 3
-0.379368 0.231636 0.637188 0 3
-0.365369 0.229375 0.630967 0 3
-0.351054 0.226778 0.623823 0 3
-0.336674 0.223982 0.616132 0 3
-0.322815 0.221372 0.608952 0 3
0.604799 0.166864 0.504275 0 3
0.609932 0.166021 0.50173 0 3
0.604834 0.175101 0.504304 0 3
0.610002 0.174227 0.501787 0 3
0.100657 0.214689 0.648807 1.24464e-38 3
0.192958 0.200596 0.606218 0 3
0.191477 0.208872 0.601565 1.21691e-38 3
0.10497 0.262517 0.612224 1.29074e-38 3
0.0635341 0.197969 0.598279 1.24464e-38 3
0.0707557 0.19111 0.577548 1.34606e-38 3
0.0800817 0.190878 0.576849 1.32769e-38 3
0.0701017 0.198679 0.57221 0 3
0.0783384 0.19593 0.564291 1.2262e-38 3
0.0870672 0.19486 0.561211 1.34606e-38 3
0.0951907 0.192768 0.555186 1.39215e-38 3
0.0590817 0.217515 0.657346 0 3
0.0460755 0.217472 0.626336 0 3
0.0281085 0.249639 0.68671 1.23542e-38 3
0.0355071 0.225473 0.620234 1.23542e-38 3
0.0449353 0.222057 0.610837 1.35528e-38 3
0.0281085 0.260843 0.68671 1.24464e-38 3
0.0355071 0.235593 0.620234 1.35528e-38 3
0.0449836 0.232273 0.611494 1.41988e-38 3
0.0545472 0.230526 0.606895 1.30003e-38 3
0.0721724 0.26924 0.679623 1.28152e-38 3
0.0960935 0.255484 0.619392 1.28145e-38 3
-0.0587402 0.216948 0.655634 0 3
-0.0472697 0.213455 0.645079 0 3
-0.0776961 0.220718 0.635685 0 3
-0.0350984 0.213944 0.616175 0 3
-0.0274365 0.234372 0.675009 0 3
-0.0776961 0.23109 0.635685 0 3
-0.0350984 0.223998 0.616175 0 3
-0.0274365 0.245386 0.675009 1.25393e-38 3
-0.069394 0.248884 0.655225 0 3
-0.229241 0.226889 0.685677 0 3
-0.205149 0.213461 0.645097 0 3
-0.212729 0.220928 0.636289 0 3
-0.212469 0.220277 0.605939 0 3
-0.399897 0.235141 0.710616 0 3
-0.389297 0.235743 0.712435 0 3
-0.393686 0.261857 0.791353 0 3
-0.381904 0.262634 0.793702 0 3
-0.353575 0.246774 0.710727 0 3
-0.366405 0.2644 0.76149 0 3
-0.367163 0.274246 0.789848 0 3
-0.304491 0.256099 0.704479 0 3
0.476795 0.165615 0.52646 0 3
0.486548 0.166012 0.527722 0 3
0.49633 0.166405 0.528972 0 3
0.467074 0.173784 0.525188 0 3
0.475512 0.173736 0.525044 0 3
0.485344 0.17419 0.526417 0 3
0.493678 0.1741 0.526145 0 3
0.457719 0.1787 0.514669 0 3
0.464094 0.177925 0.512437 0 3
0.471022 0.177385 0.510882 0 3
0.476821 0.176447 0.508179 0 3
0.485854 0.176717 0.508957 0 3
0.4532 0.18525 0.509588 0 3
0.460046 0.184661 0.507967 0 3
0.466316 0.183865 0.505778 0 3
0.469533 0.181914 0.500412 0 3
0.486972 0.18233 0.501555 0 3
0.496898 0.182972 0.50332 0 3
0.344485 0.210799 0.670093 0 3
0.341282 0.21967 0.663861 1.23535e-38 3
0.388211 0.204455 0.61788 0 3
0.0194808 0.326422 0.791372 1.40141e-38 3
0.0323009 0.338374 0.789133 1.38308e-38 3
0.00652435 0.349847 0.785983 1.26308e-38 3
0.204005 0.212517 0.675553 1.18925e-38 3
0.209287 0.229327 0.693044 1.26301e-38 3
0.202542 0.200293 0.605301 1.18932e-38 3
0.207063 0.238077 0.685678 0 3
0.201018 0.208587 0.600745 1.2262e-38 3
0.205685 0.247606 0.681117 0 3
0.0327419 0.251637 0.799907 0 3
0.00663874 0.26464 0.799763 0 3
0.0196891 0.264664 0.799834 0 3
0.0327154 0.264473 0.799259 0 3
0.0451058 0.260716 0.787905 0 3
0.0545446 0.245349 0.741463 0 3
0.00663172 0.277395 0.798917 0 3
0.0194528 0.274379 0.790232 0 3
0.0318977 0.270577 0.779281 0 3
0.0402898 0.244361 0.703778 0 3
0.00663172 0.29043 0.798917 1.33684e-38 3
0.0193096 0.285158 0.784416 1.29992e-38 3
0.018483 0.297452 0.750837 0 3
-0.0705961 0.24788 0.787965 0 3
-0.0574956 0.246831 0.78463 0 3
-0.0452839 0.250089 0.794989 0 3
-0.0410595 0.23852 0.720826 1.21698e-38 3
-0.0306106 0.249199 0.7531 0 3
-0.0189671 0.257957 0.779565 0 3
-0.00638243 0.263505 0.796334 0 3
-0.0178837 0.255214 0.735033 1.28152e-38 3
-0.00628134 0.272119 0.783721 1.24464e-38 3
-0.0178837 0.267206 0.735033 1.29996e-38 3
-0.00628134 0.284906 0.783721 0 3
-0.195402 0.203748 0.647678 0 3
-0.184964 0.203891 0.648131 0 3
-0.186717 0.218304 0.693947 0 3
-0.17672 0.219953 0.69919 0 3
-0.165355 0.220009 0.69937 0 3
-0.188979 0.20727 0.626387 0 3
-0.183868 0.213195 0.644292 0 3
-0.163889 0.229369 0.693171 0 3
-0.193997 0.211811 0.610031 0 3
-0.183331 0.210991 0.607668 0 3
-0.173357 0.210918 0.607458 0 3
-0.162736 0.210002 0.60482 0 3
-0.152406 0.209367 0.602993 0 3
-0.142638 0.209471 0.603291 0 3
0.837138 0.233614 0.783238 0 3
0.864918 0.234215 0.785254 0 3
0.841672 0.286272 0.787479 0 3
0.855352 0.294976 0.77657 0 3
0.588157 0.208743 0.699855 0 3
0.599576 0.208743 0.699855 0 3
0.533434 0.202183 0.611014 0 3
0.526592 0.209431 0.603177 0 3
0.404412 0.208204 0.698047 0 3
0.411451 0.206026 0.690743 0 3
0.423406 0.206359 0.691862 0 3
0.435357 0.206674 0.692918 0 3
0.317037 0.178283 0.597729 0 3
0.3409 0.174994 0.528846 0 3
0.330164 0.17784 0.51219 0 3
0.334546 0.175752 0.506177 0 3
0.323689 0.182545 0.502145 0 3
0.331174 0.182155 0.501075 0 3
-0.288319 0.257221 0.862385 0 3
-0.256749 0.240807 0.807355 0 3
-0.295281 0.264914 0.842112 0 3
-0.274746 0.25852 0.821788 0 3
-0.294473 0.265535 0.802469 0 3
-0.295112 0.279232 0.804209 0 3
-0.4619 0.208539 0.69917 0 3
-0.458523 0.208061 0.661389 0 3
-0.491711 0.209984 0.634588 0 3
-0.467661 0.204009 0.616533 0 3
-0.454578 0.202661 0.612459 0 3
-0.444907 0.202808 0.612902 0 3
-0.442336 0.206272 0.623371 0 3
-0.466073 0.222456 0.67228 0 3
-0.464571 0.212654 0.612459 0 3
-0.454515 0.212624 0.612373 0 3
-0.445039 0.212871 0.613083 0 3
-0.444361 0.217434 0.626225 0 3
-0.461654 0.231212 0.665907 0 3
-0.47268 0.24244 0.698243 0 3
-0.416579 0.242941 0.699688 0 3
-0.402856 0.241558 0.695704 0 3
-0.471084 0.221014 0.607968 0 3
-0.463067 0.221926 0.610476 0 3
-0.454484 0.2226 0.612331 0 3
-0.445039 0.222874 0.613083 0 3
-0.443078 0.226993 0.624416 0 3
-0.441814 0.231673 0.637288 0 3
-0.456805 0.245307 0.674792 0 3
-0.461988 0.254217 0.699303 0 3
-0.450241 0.254027 0.69878 0 3
-0.427503 0.247464 0.680726 0 3
-0.467362 0.229109 0.603165 0 3
-0.457234 0.228965 0.602786 0 3
-0.47992 0.266708 0.646601 0 3
-0.576631 0.208777 0.699967 0 3
-0.56494 0.208677 0.699632 0 3
-0.549765 0.20726 0.69488 0 3
-0.520239 0.200258 0.671406 0 3
-0.541 0.215112 0.683801 0 3
-0.502921 0.204181 0.649055 0 3
-0.541542 0.242667 0.698899 0 3
-0.552229 0.253741 0.697995 0 3
-0.55001 0.264064 0.695189 0 3
-0.531234 0.271606 0.685595 0 3
0.539733 0.204952 0.726908 0 3
0.555791 0.206512 0.73244 0 3
0.584561 0.212631 0.75414 0 3
0.586195 0.20056 0.711329 0 3
0.586745 0.225775 0.756957 0 3
0.586195 0.212166 0.711329 0 3
0.274449 0.220504 0.782063 0 3
0.284754 0.218619 0.775379 0 3
0.293064 0.215428 0.764062 0 3
0.21057 0.233175 0.781767 0 3
0.233642 0.230767 0.773694 0 3
0.235858 0.221015 0.740998 0 3
0.253081 0.225591 0.756338 0 3
0.271051 0.230375 0.772379 0 3
0.200316 0.220593 0.701223 0 3
0.175448 0.224441 0.796029 0 3
0.181692 0.216409 0.76754 0 3
0.19334 0.215434 0.764082 0 3
0.135854 0.23633 0.792346 0 3
0.143997 0.228731 0.766866 0 3
0.153462 0.224278 0.751937 0 3
0.162558 0.219985 0.737545 0 3
0.170601 0.214957 0.720688 0 3
0.181416 0.213845 0.716958 0 3
0.135824 0.249203 0.792172 0 3
0.143997 0.241243 0.766866 0 3
0.153462 0.236546 0.751937 1.24457e-38 3
0.162558 0.232019 0.737545 0 3
0.170601 0.226716 0.720688 0 3
0.180353 0.22422 0.712756 0 3
0.191751 0.223951 0.711899 0 3
-0.180038 0.200839 0.712318 0 3
-0.17941 0.21395 0.758818 0 3
-0.175614 0.224945 0.797816 0 3
-0.189017 0.209531 0.702495 0 3
-0.177899 0.209937 0.703856 0 3
-0.175081 0.220868 0.740506 0 3
-0.171807 0.232804 0.780524 0 3
-0.162434 0.232143 0.73794 0 3
-0.190587 0.234385 0.708329 0 3
-0.179783 0.235371 0.71131 0 3
-0.200521 0.210124 0.745251 0 3
-0.227809 0.225219 0.755093 0 3
-0.204757 0.214003 0.717488 0 3
-0.223153 0.220746 0.701712 0 3
-0.261746 0.247007 0.746473 0 3
-0.251389 0.24893 0.716937 0 3
-0.257397 0.254991 0.701431 0 3
0.547584 0.155024 0.583596 0 3
0.525954 0.146355 0.550963 0 3
0.5445 0.163619 0.580309 0 3
0.516945 0.152684 0.541525 0 3
0.534332 0.161433 0.541238 0 3
0.532112 0.158149 0.530227 0 3
0.538123 0.157377 0.527638 0 3
0.545288 0.156961 0.526245 0 3
0.553685 0.156908 0.526065 0 3
0.599827 0.160059 0.536631 0 3
0.506594 0.166943 0.530682 0 3
0.518291 0.167928 0.533812 0 3
0.528316 0.168347 0.535144 0 3
0.530867 0.16641 0.528986 0 3
0.535937 0.165311 0.525495 0 3
0.541966 0.164539 0.523039 0 3
0.551797 0.164927 0.524272 0 3
0.560545 0.164984 0.524453 0 3
0.569011 0.164957 0.524369 0 3
0.578801 0.16531 0.52549 0 3
0.58943 0.165888 0.527329 0 3
0.594183 0.16482 0.523933 0 3
0.593106 0.162188 0.515566 0 3
0.503581 0.174557 0.527526 0 3
0.513645 0.175054 0.529027 0 3
0.521217 0.174699 0.527953 0 3
0.52819 0.174158 0.526319 0 3
0.533458 0.173081 0.523064 0 3
0.539997 0.172444 0.521138 0 3
0.549958 0.172902 0.522524 0 3
0.558676 0.172962 0.522704 0 3
0.567537 0.173063 0.523011 0 3
0.578606 0.173825 0.525313 0 3
0.58943 0.174492 0.527329 0 3
0.594115 0.173349 0.523873 0 3
0.590687 0.169904 0.513464 0 3
0.590746 0.167545 0.506334 0 3
0.598562 0.16742 0.505957 0 3
0.500431 0.17896 0.515418 0 3
0.512148 0.180123 0.518767 0 3
0.521593 0.180463 0.519745 0 3
0.525943 0.179057 0.515695 0 3
0.532877 0.178561 0.514267 0 3
0.5457 0.180023 0.518479 0 3
0.59386 0.193342 0.509003 0 3
0.499721 0.328067 0.795361 0 3
0.497986 0.339859 0.792598 0 3
0.497986 0.352791 0.792598 0 3
0.497222 0.365163 0.791383 0 3
0.453673 0.374105 0.783075 0 3
0.480782 0.347524 0.727436 1.19851e-38 3
0.47898 0.358046 0.724709 0 3
0.47898 0.36987 0.724709 1.58555e-38 3
0.488493 0.379897 0.721297 1.47495e-38 3
0.486625 0.390168 0.718539 1.28134e-38 3
0.599198 0.185789 0.699414 0 3
0.583818 0.168207 0.633224 0 3
0.588157 0.197325 0.699855 0 3
0.599198 0.1972 0.699414 0 3
0.58369 0.178499 0.633085 0 3
0.542248 0.191806 0.609715 0 3
0.409481 0.205076 0.77202 0 3
0.404532 0.202578 0.718487 0 3
0.400151 0.21198 0.710706 0 3
0.458613 0.242203 0.769919 0 3
0.301948 0.209114 0.787223 0 3
0.310808 0.206468 0.777259 0 3
0.32584 0.207968 0.782908 0 3
0.345592 0.212254 0.799041 0 3
0.352616 0.208695 0.785646 0 3
0.166274 0.235221 0.885505 0 3
0.177212 0.230653 0.868307 0 3
0.191304 0.230563 0.867969 0 3
0.109431 0.251849 0.893237 0 3
0.136617 0.248284 0.880592 0 3
0.146607 0.241087 0.855066 0 3
0.153235 0.23009 0.816063 0 3
0.165683 0.228894 0.81182 0 3
0.131108 0.252062 0.845088 0 3
0.106462 0.273374 0.869007 0 3
0.12063 0.27335 0.868931 0 3
0.129823 0.263243 0.836802 0 3
-0.361228 0.240133 0.903995 0 3
-0.346132 0.239893 0.903091 0 3
-0.33588 0.243138 0.915306 0 3
-0.345316 0.254027 0.900963 0 3
-0.331473 0.254685 0.903296 0 3
-0.320056 0.257356 0.912768 0 3
-0.323864 0.273127 0.968703 0 3
-0.444109 0.209635 0.789182 0 3
-0.431746 0.210221 0.745596 0 3
-0.444401 0.222657 0.7897 0 3
-0.451457 0.208986 0.700667 0 3
-0.448026 0.212786 0.713407 0 3
-0.44224 0.21564 0.722977 0 3
-0.433261 0.217051 0.727708 0 3
-0.433863 0.223476 0.74925 0 3
-0.440178 0.233303 0.782195 0 3
-0.436314 0.23816 0.798479 0 3
-0.489556 0.227497 0.723173 0 3
-0.475812 0.226571 0.720228 0 3
-0.457907 0.223566 0.710677 0 3
-0.446847 0.223835 0.711529 0 3
-0.439276 0.225911 0.71813 0 3
-0.429473 0.226923 0.721346 0 3
-0.427776 0.232394 0.738739 0 3
-0.425874 0.238069 0.756778 0 3
-0.423027 0.243538 0.774164 0 3
-0.419808 0.249124 0.791919 0 3
-0.487507 0.238294 0.720145 0 3
-0.473737 0.237283 0.717087 0 3
-0.457515 0.23496 0.710068 0 3
-0.445933 0.234962 0.710073 0 3
-0.435753 0.235722 0.712371 0 3
-0.427256 0.237459 0.717621 0 3
-0.422456 0.241407 0.729551 0 3
-0.40008 0.24973 0.754703 0 3
-0.404503 0.260508 0.787277 0 3
-0.46641 0.245132 0.705996 0 3
-0.454997 0.245188 0.70616 0 3
-0.443333 0.24511 0.705933 0 3
-0.429639 0.243874 0.702375 0 3
-0.662405 0.209446 0.788472 0 3
-0.682163 0.237576 0.79652 0 3
-0.682555 0.250715 0.796978 0 3
-0.667453 0.249929 0.79448 0 3
0.580296 0.352866 0.764735 0 3
0.559181 0.383644 0.706525 0 3
0.535876 0.394987 0.706196 0 3
0.631444 0.170754 0.68488 0 3
0.60456 0.183948 0.692485 0 3
0.611026 0.182505 0.687051 0 3
0.605499 0.177596 0.668571 0 3
0.670909 0.169327 0.637442 0 3
0.60456 0.195247 0.692485 0 3
0.611026 0.193715 0.687051 0 3
0.605499 0.188504 0.668571 0 3
0.643403 0.172359 0.611308 0 3
0.604219 0.185615 0.622313 0 3
0.416367 0.314384 0.86481 1.23539e-38 3
0.437707 0.313462 0.825238 1.23521e-38 3
0.452713 0.318537 0.80406 0 3
0.412446 0.344016 0.802291 0 3
0.505078 0.190529 0.764197 0 3
0.565376 0.19857 0.796446 0 3
0.530314 0.193985 0.73027 0 3
0.599508 0.189494 0.713361 0 3
0.513411 0.199337 0.706993 0 3
0.32139 0.343718 0.772214 0 3
0.349095 0.358895 0.7778 0 3
0.359839 0.369586 0.773615 0 3
0.321019 0.38838 0.715246 1.41052e-38 3
0.319173 0.397749 0.711134 0 3
0.404472 0.174062 0.698149 0 3
0.408559 0.171005 0.685887 0 3
0.421888 0.171877 0.689382 0 3
0.404472 0.185453 0.698149 0 3
0.408559 0.182196 0.685887 1.18003e-38 3
0.421818 0.183094 0.689268 0 3
0.439806 0.185945 0.699999 0 3
0.447768 0.184519 0.694633 0 3
0.45846 0.184261 0.693662 0 3
0.469629 0.184203 0.693443 0 3
0.478561 0.183291 0.690009 0 3
0.488936 0.18296 0.688764 0 3
0.447786 0.19586 0.694661 0 3
0.45846 0.195579 0.693662 0 3
0.469629 0.195517 0.693443 0 3
0.478561 0.194549 0.690009 0 3
0.488936 0.194198 0.688764 0 3
0.369975 0.17391 0.697538 0 3
0.348674 0.191231 0.678241 0 3
0.339793 0.180627 0.640633 0 3
0.377676 0.194774 0.690808 0 3
0.34362 0.199364 0.668409 0 3
0.366348 0.199865 0.670087 0 3
0.242173 0.224163 0.899098 0 3
0.246555 0.215185 0.863087 0 3
0.259128 0.213938 0.858088 0 3
0.271749 0.212859 0.853757 0 3
0.281863 0.210016 0.842354 0 3
0.289815 0.205901 0.82585 0 3
0.299123 0.203072 0.814505 0 3
0.205712 0.23084 0.869009 0 3
0.253733 0.223193 0.840223 1.20776e-38 3
0.26809 0.223734 0.842261 0 3
0.277282 0.220122 0.828662 0 3
0.285106 0.21581 0.81243 0 3
0.29513 0.213473 0.803632 0 3
0.217671 0.227853 0.808131 0 3
0.237981 0.234886 0.833072 0 3
0.250616 0.233992 0.829904 0 3
0.263113 0.233068 0.826625 0 3
0.268978 0.226645 0.803846 0 3
0.234654 0.245004 0.821425 0 3
-0.366141 0.302576 1.21361 0 3
-0.344189 0.300697 1.20607 0 3
-0.385733 0.322202 1.21295 0 3
-0.396656 0.212743 0.853294 0 3
-0.387059 0.215147 0.862936 0 3
-0.376189 0.216998 0.870361 0 3
-0.365978 0.21939 0.879953 0 3
-0.394449 0.225404 0.848545 0 3
-0.384624 0.227784 0.857507 0 3
-0.375794 0.230956 0.869447 0 3
-0.365899 0.233696 0.879763 0 3
-0.398269 0.233375 0.827713 0 3
-0.386089 0.234178 0.830562 0 3
-0.375928 0.236309 0.838119 0 3
-0.367417 0.239677 0.850067 0 3
-0.363593 0.246487 0.874219 0 3
-0.358949 0.253274 0.898292 0 3
-0.397008 0.246098 0.825092 0 3
-0.384147 0.246483 0.826384 0 3
-0.375139 0.249458 0.83636 0 3
-0.36702 0.253273 0.849149 0 3
-0.361594 0.259317 0.869412 0 3
-0.353447 0.263824 0.884523 0 3
-0.339533 0.264226 0.885873 0 3
-0.325303 0.264409 0.886484 0 3
-0.309094 0.262924 0.881507 0 3
-0.391235 0.255785 0.813094 0 3
-0.378172 0.255922 0.81353 0 3
-0.366137 0.256791 0.816292 0 3
-0.358058 0.260604 0.828414 0 3
-0.343514 0.259826 0.825941 0 3
-0.329699 0.259559 0.825092 0 3
-0.316237 0.259559 0.825092 0 3
-0.30313 0.259864 0.82606 0 3
-0.373069 0.265563 0.802553 0 3
-0.365166 0.269393 0.814126 0 3
-0.358042 0.274108 0.828377 0 3
-0.343514 0.273302 0.825941 0 3
-0.329699 0.273021 0.825092 0 3
-0.315778 0.272625 0.823894 0 3
-0.364895 0.282466 0.813523 0 3
-0.35904 0.288425 0.830686 0 3
-0.346795 0.289517 0.833831 0 3
-0.333206 0.289531 0.83387 0 3
-0.319021 0.289005 0.832355 0 3
-0.337234 0.294765 0.810842 0 3
-0.326235 0.296794 0.816423 0 3
-0.310332 0.294345 0.809687 0 3
-0.4241 0.1826 0.732391 0 3
-0.443966 0.196695 0.788927 0 3
-0.430862 0.197651 0.744068 0 3
-0.418196 0.198043 0.702404 0 3
-0.556833 0.168524 0.675935 0 3
-0.564744 0.182103 0.685538 0 3
-0.546326 0.179724 0.67658 0 3
-0.576495 0.19731 0.699802 0 3
-0.562118 0.196277 0.696137 0 3
-0.548845 0.195594 0.693716 0 3
-0.53651 0.195224 0.692404 0 3
-0.509243 0.189288 0.671351 0 3
0.60824 0.204341 0.876984 0 3
0.601875 0.206639 0.828813 0 3
0.619153 0.2079 0.83387 0 3
0.632758 0.2079 0.83387 0 3
0.645601 0.207655 0.832887 0 3
0.656829 0.206911 0.829904 0 3
0.670932 0.207085 0.830601 0 3
0.684414 0.207064 0.830516 0 3
0.607151 0.217212 0.817707 0 3
0.63239 0.221377 0.833385 0 3
0.645601 0.221244 0.832887 0 3
0.656829 0.220452 0.829904 0 3
0.670137 0.220376 0.829616 0 3
0.661128 0.213108 0.802259 0 3
0.64759 0.230701 0.818231 0 3
0.617851 0.242856 0.814225 0 3
0.653403 0.246242 0.825576 0 3
0.569088 0.200627 0.861045 0 3
0.590585 0.212303 0.851529 0 3
0.57098 0.285866 0.863908 0 3
0.572726 0.293629 0.845674 0 3
0.00735165 0.206359 0.885647 1.29074e-38 3
0.0220939 0.209126 0.897522 0 3
0.00735165 0.220809 0.885647 0 3
0.0220939 0.22377 0.897522 0 3
0.00721604 0.23092 0.86931 0 3
0.00677765 0.230212 0.816498 0 3
0.0201606 0.230914 0.818986 0 3
0.0351212 0.241924 0.858034 0 3
0.0510798 0.251573 0.892258 0 3
0.0801352 0.251384 0.891588 0 3
0.0933159 0.247757 0.878724 0 3
0.00674942 0.24252 0.813096 0 3
0.0200975 0.243512 0.816423 0 3
0.033421 0.243534 0.816498 0 3
0.0468548 0.244118 0.818455 0 3
0.0625339 0.253547 0.850067 0 3
0.0791772 0.262752 0.88093 0 3
0.0934155 0.262374 0.879662 0 3
0.00670502 0.254103 0.807747 0 3
0.0197703 0.252651 0.80313 0 3
0.0458057 0.251707 0.800131 0 3
0.059408 0.254049 0.807575 0 3
0.0764186 0.26747 0.850237 0 3
0.0921331 0.272927 0.867586 0 3
-0.0921252 0.20268 0.869856 0 3
-0.077507 0.201572 0.865101 0 3
-0.063166 0.200852 0.862012 0 3
-0.0492273 0.201366 0.864217 0 3
-0.0352026 0.2018 0.866077 0 3
-0.0210772 0.20185 0.866292 1.20783e-38 3
-0.00699124 0.203248 0.872295 1.20791e-38 3
-0.0912169 0.214734 0.861279 0 3
-0.0767927 0.213699 0.857129 0 3
-0.0628626 0.213885 0.857873 0 3
-0.0492002 0.215348 0.863741 0 3
-0.0352026 0.21593 0.866077 0 3
-0.0210772 0.215984 0.866292 0 3
-0.00699124 0.21748 0.872295 0 3
-0.090802 0.227746 0.857362 0 3
-0.07568 0.224384 0.844708 0 3
-0.0617849 0.223975 0.843166 0 3
-0.0483226 0.225348 0.848335 0 3
-0.0345854 0.226027 0.850891 0 3
-0.020604 0.224951 0.846843 0 3
-0.00676974 0.224371 0.844659 0 3
-0.0879857 0.234236 0.83077 0 3
-0.0731943 0.230344 0.816964 0 3
-0.0600188 0.230936 0.819064 0 3
-0.0467504 0.231407 0.820735 0 3
-0.0334334 0.231919 0.82255 0 3
-0.0200494 0.23234 0.824045 0 3
-0.0065513 0.230468 0.817405 0 3
-0.0883468 0.248808 0.83418 0 3
-0.0722917 0.240668 0.80689 0 3
-0.0586757 0.238832 0.800734 0 3
-0.0461148 0.24147 0.809576 0 3
-0.0328524 0.241076 0.808255 0 3
-0.0195739 0.239957 0.804504 0 3
-0.00646572 0.24062 0.806726 0 3
-0.0325258 0.251735 0.800219 0 3
-0.0195238 0.252435 0.802445 0 3
-0.006463 0.253675 0.806387 0 3
-0.109648 0.20903 0.897106 0 3
-0.137092 0.220721 0.885291 0 3
-0.121725 0.219059 0.878625 0 3
-0.106309 0.216855 0.869788 0 3
-0.137019 0.235039 0.884817 0 3
-0.121546 0.23305 0.877332 0 3
-0.10599 0.230352 0.867174 0 3
-0.170306 0.235611 0.835643 0 3
-0.160931 0.242016 0.858361 0 3
-0.150382 0.247707 0.878545 0 3
-0.136855 0.249178 0.883762 0 3
-0.12037 0.244973 0.868849 0 3
-0.104457 0.240965 0.854634 0 3
-0.16735 0.244918 0.821139 0 3
-0.413809 0.200386 0.860009 0 3
-0.405366 0.203187 0.87203 0 3
-0.430026 0.202246 0.811193 0 3
-0.425494 0.206469 0.828131 0 3
-0.4181 0.209536 0.840429 0 3
-0.408173 0.211497 0.848296 0 3
-0.437574 0.212717 0.800784 0 3
-0.429598 0.215267 0.810386 0 3
-0.424748 0.219595 0.826679 0 3
-0.417152 0.222742 0.838523 0 3
-0.406643 0.224493 0.845115 0 3
-0.437423 0.225704 0.800509 0 3
-0.425492 0.226305 0.802639 0 3
-0.418165 0.229471 0.813867 0 3
-0.409904 0.232314 0.823953 0 3
-0.425472 0.23939 0.802603 0 3
-0.418165 0.242749 0.813867 0 3
-0.409826 0.245711 0.823796 0 3
-0.413771 0.253338 0.805315 0 3
-0.4043 0.255657 0.812688 0 3
-0.447059 0.157675 0.676706 0 3
-0.447059 0.168716 0.676706 0 3
-0.469296 0.18415 0.693243 0 3
-0.402779 0.174912 0.658466 0 3
-0.408295 0.182166 0.685775 0 3
-0.472429 0.179464 0.636508 0 3
-0.44551 0.173042 0.613731 0 3
-0.431623 0.171503 0.608274 0 3
-0.427271 0.173769 0.61631 0 3
-0.421801 0.175679 0.623084 0 3
-0.423578 0.180777 0.641163 0 3
-0.425658 0.186264 0.660627 0 3
-0.428326 0.192301 0.682038 0 3
-0.426424 0.196554 0.69712 0 3
-0.482943 0.1899 0.636679 0 3
-0.457387 0.183805 0.616242 0 3
-0.440481 0.180989 0.606803 0 3
-0.428395 0.180071 0.603723 0 3
-0.427914 0.184102 0.617238 0 3
-0.452615 0.199422 0.668604 0 3
-0.470787 0.195247 0.620653 0 3
-0.454393 0.19259 0.612208 0 3
-0.440418 0.190863 0.606718 0 3
-0.429913 0.190594 0.605863 0 3
0.830151 0.163316 0.75369 0 1
0.8179 0.173021 0.742567 0 1
0.84594 0.176341 0.756814 0 1
0.843604 0.173324 0.743866 0 1
0.736599 0.151651 0.699855 0 1
0.748018 0.151651 0.699855 0 1
0.712181 0.162708 0.698305 0 3
0.723924 0.162787 0.698642 0 3
0.749717 0.178169 0.670729 0 3
0.628223 0.201004 0.927618 0 3
0.639338 0.219963 0.944031 0 3
0.629245 0.23165 0.929128 0 3
0.441326 0.169849 0.783838 0 3
0.454115 0.169849 0.783838 0 3
0.462281 0.168167 0.776077 0 3
0.474943 0.168167 0.776077 0 3
0.497456 0.171564 0.791755 0 3
0.404982 0.167597 0.719286 0 3
0.416051 0.167329 0.718136 0 3
0.426431 0.166806 0.715892 0 3
0.438523 0.166963 0.716565 0 3
0.45161 0.16748 0.718785 0 3
0.469039 0.169541 0.727631 0 3
0.442306 0.175516 0.703978 0 3
0.455199 0.17606 0.70616 0 3
0.410363 0.199711 0.708317 0 3
0.417292 0.197521 0.700549 1.18003e-38 3
0.429452 0.197857 0.701742 0 3
0.441376 0.19807 0.702498 0 3
0.220504 0.331011 0.871437 1.31833e-38 3
0.237024 0.348614 0.879982 1.26301e-38 3
0.298372 0.367802 0.891692 0 3
0.253927 0.360557 0.840866 0 3
0.364593 0.169849 0.783838 0 3
0.377382 0.169849 0.783838 0 3
0.383179 0.156542 0.722431 0 3
0.394965 0.156542 0.722431 0 3
0.368074 0.184381 0.79132 0 3
0.359681 0.174071 0.747071 0 3
0.358825 0.167964 0.720865 0 3
0.36869 0.167105 0.717175 0 3
0.379695 0.166799 0.715862 0 3
0.391758 0.166963 0.716565 0 3
0.318487 0.198574 0.796465 0 3
0.328471 0.19677 0.789228 0 3
0.345931 0.199412 0.799826 0 3
0.352082 0.19558 0.784456 0 3
0.350001 0.187604 0.752464 0 3
0.349325 0.180897 0.725561 0 3
0.357362 0.178993 0.717926 0 3
0.362743 0.175922 0.705607 0 3
0.384731 0.175449 0.70371 0 3
0.399113 0.176733 0.708862 0 3
0.384224 0.186684 0.702784 1.43818e-38 3
0.399113 0.188299 0.708862 0 3
0.308017 0.20969 0.967701 0 3
0.323806 0.20969 0.967701 0 3
0.34384 0.212311 0.979797 0 3
0.342691 0.202201 0.93314 0 3
0.300871 0.220247 0.945249 0 3
0.315868 0.219951 0.943978 0 3
0.328138 0.217871 0.935053 0 3
0.315659 0.296762 0.943354 0 3
0.104704 0.213646 0.985959 0 3
0.121555 0.214998 0.992199 0 3
0.186308 0.214998 0.992199 0 3
0.104863 0.230082 0.98746 0 3
0.122089 0.232203 0.996564 0 3
0.187152 0.232233 0.996692 0 3
0.102009 0.239493 0.960586 0 3
0.120307 0.244836 0.982015 0 3
0.185252 0.245973 0.986576 0 3
0.194493 0.237597 0.952982 0 3
0.111922 0.242676 0.91357 0 3
0.126812 0.242648 0.913463 0 3
0.143967 0.246501 0.927969 0 3
0.158286 0.245229 0.92318 0 3
0.125614 0.255119 0.904833 0 3
0.111324 0.271033 0.908694 0 3
0.125569 0.269784 0.904504 0 3
-0.135741 0.212311 0.979797 0 3
-0.151617 0.228131 0.979087 0 3
-0.129586 0.217944 0.935366 0 3
-0.180633 0.240206 0.963445 0 3
-0.1569 0.228533 0.916627 0 3
-0.173504 0.245824 0.92542 0 3
-0.154572 0.239876 0.903027 0 3
-0.116817 0.285071 0.95576 0 3
-0.410366 0.395081 0.774107 0 3
-0.496411 0.398182 0.733299 0 3
-0.469732 0.397689 0.711025 0 3
-0.386668 0.136975 0.632127 0 3
-0.378969 0.144356 0.619541 0 3
-0.377025 0.149679 0.600349 0 3
-0.38007 0.154912 0.62134 0 3
-0.38829 0.1626 0.652173 0 3
-0.398446 0.16021 0.603121 0 3
-0.389173 0.160444 0.604001 0 3
-0.390642 0.165234 0.622033 0 3
-0.392299 0.128673 0.593816 0 3
-0.382611 0.128673 0.593816 0 3
-0.375769 0.129655 0.598349 0 3
-0.382716 0.1384 0.593979 0 3
-0.375394 0.139279 0.597752 0 3
-0.382822 0.148132 0.594145 0 3
0.358215 0.179497 0.895814 0 3
0.360472 0.173547 0.866119 0 3
0.374603 0.173547 0.866119 0 3
0.388734 0.173547 0.866119 0 3
0.337808 0.190841 0.880716 0 3
0.335228 0.181656 0.838329 0 3
0.345214 0.179734 0.829458 0 3
0.358747 0.179734 0.829458 0 3
0.37228 0.179734 0.829458 0 3
0.324846 0.197336 0.846921 0 3
0.329952 0.19226 0.825135 0 3
0.340055 0.190379 0.817064 0 3
0.350956 0.18907 0.811445 0 3
0.362327 0.1881 0.807283 0 3
0.252661 0.200076 0.998519 0 3
0.268952 0.200076 0.998519 0 3
0.202497 0.214998 0.992199 0 3
0.252661 0.216368 0.998519 0 3
0.265569 0.213646 0.985959 0 3
0.27644 0.20969 0.967701 0 3
0.292229 0.20969 0.967701 0 3
0.265076 0.229306 0.984129 0 3
0.265998 0.216962 0.931149 0 3
0.283818 0.218989 0.939849 0 3
0.213726 0.241765 0.969697 0 3
0.21742 0.228993 0.918471 0 3
0.228313 0.224961 0.902298 1.18925e-38 3
0.205093 0.201359 1.00492 0 3
0.221489 0.201359 1.00492 0 3
0.240974 0.203974 1.01797 0 3
0.228823 0.224965 1.0382 0 3
0.239419 0.219159 1.0114 0 3
0.204599 0.233587 1.0025 0 3
0.226805 0.239771 1.02904 0 3
0.241057 0.237273 1.01832 0 3
0.255046 0.234855 1.00795 0 3
0.123113 0.201359 1.00492 0 3
0.139509 0.201359 1.00492 0 3
0.160008 0.206658 1.03137 0 3
0.176835 0.206658 1.03137 0 3
0.191147 0.203974 1.01797 0 3
0.139509 0.217755 1.00492 0 3
0.158962 0.222024 1.02462 0 3
0.174539 0.220583 1.01797 0 3
0.14177 0.237944 1.0212 0 3
0.159123 0.238983 1.02566 0 3
0.173882 0.2363 1.01414 0 3
0.139807 0.251082 1.00707 0 3
0.157819 0.253622 1.01725 0 3
0.17221 0.250415 1.00439 0 3
-0.195946 0.209413 1.04512 0 3
-0.178894 0.209413 1.04512 0 3
-0.193367 0.223485 1.03137 0 3
-0.175386 0.222024 1.02462 0 3
-0.155617 0.217755 1.00492 0 3
-0.190582 0.236851 1.01651 0 3
-0.172931 0.2354 1.01028 0 3
0.775722 0.133584 0.725776 0 1
0.703487 0.142782 0.71258 0 1
0.715113 0.142782 0.71258 0 1
0.723451 0.142136 0.709355 0 1
0.731714 0.141495 0.70616 0 1
0.743235 0.141495 0.70616 0 1
0.775722 0.145426 0.725776 0 1
0.708671 0.153017 0.70616 0 1
0.716963 0.152331 0.702993 0 1
0.728432 0.152331 0.702993 0 1
0.787564 0.157267 0.725776 0 1
0.704679 0.163611 0.702183 0 3
0.73825 0.163435 0.701424 0 3
0.749073 0.163299 0.700843 0 3
0.77741 0.166928 0.716418 0 3
0.78701 0.195522 0.784222 0 3
0.794029 0.185985 0.700153 0 3
0.571125 0.306568 0.84331 0 3
0.584977 0.384467 0.863763 0 3
0.584272 0.39808 0.862722 0 3
0.668608 0.131155 0.71258 0 1
0.674106 0.129974 0.70616 0 1
0.685628 0.129974 0.70616 0 1
0.666065 0.144756 0.722431 0 1
0.668608 0.142782 0.71258 0 1
0.674106 0.141495 0.70616 0 1
0.685628 0.141495 0.70616 0 1
0.64582 0.166518 0.768468 0 1
0.627594 0.158737 0.732558 0 1
0.627811 0.155824 0.719117 0 3
0.639544 0.155824 0.719117 0 3
0.645356 0.154408 0.71258 0 1
0.666065 0.156542 0.722431 0 1
0.671661 0.155113 0.715833 0 1
0.674106 0.153017 0.70616 0 1
0.685628 0.153017 0.70616 0 1
0.697149 0.153017 0.70616 0 1
0.682783 0.185699 0.796978 0 3
0.622359 0.166102 0.712872 0 3
0.635925 0.166609 0.715048 0 3
0.646223 0.166257 0.713537 0 3
0.661537 0.167185 0.71752 0 3
0.671076 0.166647 0.71521 0 3
0.676502 0.165123 0.70867 0 3
0.683837 0.164108 0.704316 0 3
0.694051 0.163807 0.703021 0 3
0.636702 0.188889 0.757619 0 3
0.605942 0.17634 0.707285 0 3
0.617115 0.176236 0.706865 0 3
0.636523 0.178443 0.715721 0 3
0.647377 0.178217 0.714811 0 3
0.330953 0.312062 0.943075 0 3
0.329841 0.326349 0.939907 1.23542e-38 3
0.312603 0.339616 0.93422 1.18932e-38 3
0.326237 0.386243 0.974967 1.3184e-38 3
0.464554 0.151864 0.825092 0 1
0.478016 0.151864 0.825092 0 1
0.464554 0.165326 0.825092 0 1
0.473037 0.163604 0.816498 0 1
0.486358 0.163604 0.816498 0 1
0.311868 0.180339 0.979797 0 1
0.332004 0.182621 0.992199 0 1
0.366594 0.168738 0.916769 0 1
0.374974 0.165829 0.900963 0 1
0.389673 0.165829 0.900963 0 1
0.308017 0.193901 0.967701 0 3
0.327854 0.196325 0.979797 0 3
0.34384 0.196325 0.979797 0 3
0.359826 0.196325 0.979797 0 3
0.345574 0.180528 0.900963 0 3
0.0610517 0.196287 1.06645 0 1
0.0779214 0.194961 1.05924 0 1
0.0920923 0.188589 1.02462 0 1
-0.0656429 0.164881 0.895814 0 1
-0.0510271 0.164881 0.895814 0 1
-0.0656429 0.179497 0.895814 0 3
-0.0507372 0.178477 0.890724 0 3
-0.0645366 0.190841 0.880716 0 3
-0.0504505 0.191919 0.885692 0 3
-0.0364113 0.194113 0.895814 0 3
-0.0217955 0.194113 0.895814 1.1801e-38 3
-0.0826193 0.169731 0.922162 0 1
-0.00739091 0.169731 0.922162 0 1
-0.0965293 0.182628 0.911439 0 3
-0.0816586 0.182628 0.911439 0 3
-0.0368323 0.181572 0.906171 0 3
-0.0220475 0.181572 0.906171 0 3
-0.00734769 0.183696 0.916769 0 3
-0.0954197 0.195228 0.900963 0 3
-0.08072 0.195228 0.900963 0 3
-0.00730497 0.197498 0.911439 0 3
-0.360558 0.317461 1.1951 0 3
-0.354202 0.314037 1.1138 0 3
-0.33913 0.316935 1.12408 0 3
-0.24131 0.201778 1.09628 0 3
-0.223424 0.201778 1.09628 0 1
-0.231593 0.210818 1.05213 0 3
-0.214427 0.210818 1.05213 0 3
-0.231593 0.227985 1.05213 0 3
-0.210195 0.223485 1.03137 0 3
-0.207648 0.2374 1.01887 0 3
-0.218751 0.267607 1.07335 0 3
-0.20638 0.268994 1.01264 0 3
-0.286994 0.283544 1.00565 0 3
-0.297917 0.216949 1.1787 0 3
-0.266656 0.207584 1.12782 0 3
-0.297917 0.23618 1.1787 0 3
-0.261022 0.221211 1.104 0 3
-0.261022 0.239223 1.104 0 3
-0.250585 0.265255 1.13841 0 3
-0.317148 0.216949 1.1787 0 3
-0.317148 0.23618 1.1787 0 3
-0.389012 0.294702 1.10942 0 3
0.717719 0.146091 0.870931 0 1
0.731929 0.146091 0.870931 0 1
0.717719 0.160301 0.870931 0 1
0.731929 0.160301 0.870931 0 1
0.717719 0.174511 0.870931 0 1
0.607416 0.146907 0.875796 0 1
0.615367 0.142143 0.847392 0 1
0.629193 0.142143 0.847392 0 1
0.657229 0.145284 0.866119 0 1
0.682675 0.147733 0.880716 0 1
0.607416 0.161197 0.875796 0 1
0.601541 0.155969 0.847392 0 1
0.612059 0.15513 0.842836 0 1
0.62581 0.15513 0.842836 0 1
0.643019 0.155969 0.847392 0 1
0.664023 0.157673 0.856653 0 1
0.617769 0.178477 0.890724 0 1
0.605547 0.167085 0.83387 0 1
0.619153 0.167085 0.83387 0 1
0.632758 0.167085 0.83387 0 1
0.649819 0.167978 0.838329 0 1
0.686184 0.163604 0.816498 0 1
0.699505 0.163604 0.816498 0 1
0.617769 0.19301 0.890724 0 3
0.602343 0.179734 0.829458 0 3
0.612635 0.178788 0.825092 0 3
0.626097 0.178788 0.825092 0 3
0.642943 0.179734 0.829458 0 3
0.608599 0.195274 0.838073 0 3
0.61755 0.193792 0.831712 0 3
0.629439 0.193276 0.829497 0 3
0.642943 0.193267 0.829458 0 3
0.542026 0.148567 0.885692 0 1
0.550259 0.146907 0.875796 0 1
0.552208 0.143696 0.856653 0 1
0.566185 0.143696 0.856653 0 1
0.593126 0.146907 0.875796 0 1
0.513081 0.15854 0.86136 0 1
0.53597 0.161197 0.875796 0 1
0.550259 0.161197 0.875796 0 1
0.552208 0.157673 0.856653 0 1
0.566185 0.157673 0.856653 0 1
0.589831 0.160301 0.870931 0 1
0.515799 0.168881 0.842836 0 1
0.523917 0.167085 0.83387 0 1
0.546238 0.169794 0.847392 0 1
0.569296 0.172593 0.86136 0 1
0.589831 0.174511 0.870931 0 1
0.595108 0.167978 0.838329 0 1
0.537522 0.18069 0.83387 0 3
0.575621 0.188721 0.870931 0 3
0.595108 0.181656 0.838329 0 3
0.593901 0.194938 0.836629 0 3
0.40359 0.156526 0.93314 0 1
0.418815 0.156526 0.93314 0 1
0.404373 0.165829 0.900963 0 1
0.444626 0.17594 0.955899 0 1
0.444626 0.191536 0.955899 0 3
0.102765 0.162324 0.967701 0 1
0.120035 0.164353 0.979797 0 1
0.195088 0.160344 0.955899 0 1
0.104049 0.180339 0.979797 0 1
0.104704 0.197559 0.985959 0 3
0.0869761 0.162324 0.967701 0 1
0.00756575 0.167757 0.911439 0 1
0.0224365 0.167757 0.911439 0 1
0.00756575 0.182628 0.911439 0 3
0.0224365 0.182628 0.911439 0 3
0.0560913 0.196325 0.979797 0 3
0.00761 0.198653 0.916769 0 3
0.0225677 0.198653 0.916769 0 3
0.0135553 0.273921 1.633 0 1
0.0401987 0.273921 1.633 0 1
0.066842 0.273921 1.633 0 1
-0.294168 0.208702 1.24419 0 1
-0.273868 0.208702 1.24419 0 1
-0.253568 0.208702 1.24419 0 1
-0.237031 0.212068 1.26425 0 1
-0.329536 0.205441 1.22475 0 1
-0.309554 0.205441 1.22475 0 1
-0.355067 0.249301 1.24419 0 3
-0.375367 0.269601 1.24419 0 3
-0.355067 0.269601 1.24419 0 3
-0.329536 0.265388 1.22475 0 3
-0.304792 0.261306 1.2059 0 3
-0.348509 0.284546 1.22121 0 3
0.257583 0.154147 1.01797 0 1
0.255921 0.169654 1.0114 0 1
0.205093 0.184963 1.00492 0 1
0.221489 0.184963 1.00492 0 1
0.242549 0.188589 1.02462 0 1
0.254281 0.184963 1.00492 0 1
0.272423 0.186156 1.0114 0 1
0.220893 0.141302 0.93314 0 1
0.205668 0.156526 0.93314 0 1
0.220893 0.156526 0.93314 0 1
0.279896 0.180339 0.979797 0 1
0.295882 0.180339 0.979797 0 1
0.27644 0.193901 0.967701 0 3
0.292229 0.193901 0.967701 0 3
0.188697 0.152171 1.00492 0 1
0.139509 0.168567 1.00492 0 1
0.160008 0.173003 1.03137 0 1
0.174539 0.170756 1.01797 0 1
0.188697 0.168567 1.00492 0 1
0.123113 0.184963 1.00492 0 1
0.14318 0.18983 1.03137 0 1
0.160008 0.18983 1.03137 0 1
0.176835 0.18983 1.03137 0 1
0.191147 0.187365 1.01797 0 1
0.101082 0.111478 0.825092 0 1
0.114544 0.111478 0.825092 0 1
0.128006 0.111478 0.825092 0 1
0.149327 0.117672 0.870931 0 1
0.172013 0.113876 0.842836 0 1
0.185765 0.113876 0.842836 0 1
0.106698 0.131881 0.870931 0 1
0.120908 0.131881 0.870931 0 1
0.135118 0.131881 0.870931 0 1
0.149327 0.131881 0.870931 0 1
0.172013 0.127627 0.842836 0 1
0.185765 0.127627 0.842836 0 1
0.0655248 0.120346 0.890724 0 1
0.0741586 0.111478 0.825092 0 1
0.0876205 0.111478 0.825092 0 1
0.0655248 0.134879 0.890724 0 1
0.0800575 0.134879 0.890724 0 1
0.0924883 0.131881 0.870931 0 1
0.0364593 0.163944 0.890724 0 1
0.0364593 0.178477 0.890724 0 3
-0.180468 0.230227 1.70399 0 1
-0.156059 0.235343 1.74186 0 1
-0.13054 0.240692 1.78145 0 1
-0.180468 0.258029 1.70399 0 1
-0.156059 0.263763 1.74186 0 1
-0.13054 0.269758 1.78145 0 1
-0.184478 0.292183 1.74186 0 1
-0.156059 0.292183 1.74186 0 1
-0.127639 0.292183 1.74186 0 1
-0.482614 0.216132 1.59967 0 1
-0.438612 0.207656 1.53694 0 1
-0.413536 0.207656 1.53694 0 1
-0.482614 0.242231 1.59967 0 1
-0.430177 0.228256 1.50738 0 1
-0.482614 0.268331 1.59967 0 1
-0.454771 0.277444 1.50738 0 3
-0.203838 0.170908 1.66774 0 1
-0.285469 0.198118 1.66774 0 1
-0.203838 0.198118 1.66774 0 1
-1.78311 0.422773 4.12546 0 1
-1.7158 0.422773 4.12546 0 1
-1.7158 0.490082 4.12546 0 1
0.089746 0.200076 0.998519 0 3
0.0381955 0.202201 0.93314 0 3
0.0557429 0.210992 0.973711 0 3
0.089746 0.216368 0.998519 0 3
0.0370819 0.211087 0.905935 0 3
0.0526655 0.214354 0.919956 0 3
0.0710973 0.225193 0.966475 0 3
0.0888703 0.230389 0.988775 0 3
0.0370819 0.225868 0.905935 0 3
0.0525926 0.229046 0.918683 0 3
0.069275 0.234785 0.941704 0 3
0.0853051 0.236632 0.949109 0 3
0.0222172 0.239744 0.902532 0 3
0.0374778 0.243218 0.915607 0 3
0.0526692 0.24439 0.920021 0 3
0.0680385 0.245685 0.924895 0 3
0.0827838 0.244666 0.921057 0 3
0.0973936 0.24362 0.917122 0 3
0.0664028 0.254506 0.90266 0 3
0.101082 0.0710927 0.825092 0 1
0.101082 0.0845546 0.825092 0 1
0.114544 0.0845546 0.825092 0 1
0.101082 0.0980165 0.825092 0 1
0.114544 0.0980165 0.825092 0 1
0.128006 0.0980165 0.825092 0 1
0.0385907 0.00718788 1.56768 0 1
0.0641684 0.00718788 1.56768 0 1
0.0385907 0.0327655 1.56768 0 1
0.0641684 0.0327655 1.56768 0 1
0.0385907 0.0583432 1.56768 0 1
0.0641684 0.0583432 1.56768 0 1
-0.334132 -0.343094 2.41181 0 1
-0.385339 -0.313386 2.48837 0 1
-0.334132 -0.303743 2.41181 0 1
