# .PCD v0.7 - Point Cloud Data file format
VERSION 0.7
FIELDS x y z rgb label
SIZE 4 4 4 4 4
TYPE F F F F U
COUNT 1 1 1 1 1
WIDTH 2510
HEIGHT 1
VIEWPOINT 0 0 0 1 0 0 0
POINTS 2510
DATA ascii
-0.171495 0.439686 0.637372 1.20783e-38 3
-0.181896 0.450092 0.637381 0 3
-0.100003 0.456023 0.645781 1.31836e-38 3
-0.192611 0.461246 0.638426 0 3
-0.193231 0.47318 0.64048 0 3
-0.0944725 0.200086 0.297072 1.18921e-38 3
-0.0702863 0.200224 0.297277 1.27226e-38 3
-0.0993195 0.204933 0.297072 1.18929e-38 3
-0.0925455 0.200753 0.291013 1.29063e-38 3
-0.0600638 0.203307 0.294716 1.45651e-38 3
-0.0553805 0.203768 0.295384 1.42892e-38 3
-0.0507301 0.204449 0.29637 1.4197e-38 3
-0.0457688 0.203889 0.295558 1.25375e-38 3
-0.0991569 0.209436 0.296586 1.29059e-38 3
-0.0925423 0.205494 0.291002 1.2446e-38 3
-0.0870813 0.203825 0.288639 0 3
-0.0507455 0.209348 0.29646 1.28148e-38 3
-0.0987958 0.213495 0.295506 1.21684e-38 3
-0.092415 0.209952 0.290602 0 3
-0.0988217 0.218374 0.295583 1.26294e-38 3
-0.0928256 0.215648 0.291893 0 3
0.343398 0.428103 0.667977 0 3
0.305634 0.442562 0.657081 0 3
0.305091 0.452478 0.655914 1.18936e-38 3
0.304558 0.462369 0.654767 1.18014e-38 3
0.304558 0.473052 0.654767 0 3
0.42504 0.422526 0.676497 1.44726e-38 3
0.422067 0.430531 0.671765 0 3
0.413982 0.433035 0.658897 1.31818e-38 3
0.421949 0.440876 0.654578 0 3
0.421645 0.451231 0.654108 0 3
-0.207604 0.429788 0.688123 0 3
-0.280518 0.432268 0.674475 0 3
-0.297949 0.447403 0.664269 0 3
-0.297949 0.458241 0.664269 0 3
-0.206074 0.489313 0.648006 0 3
0.183092 0.413468 0.679751 1.40137e-38 3
0.181654 0.421225 0.674414 1.66874e-38 3
0.180953 0.430561 0.671812 1.59502e-38 3
0.180953 0.441522 0.671812 1.34609e-38 3
0.101061 0.438742 0.65141 1.30929e-38 3
0.126437 0.417264 0.619521 1.32762e-38 3
0.129986 0.439366 0.636909 1.1801e-38 3
0.133737 0.462738 0.65529 1.42889e-38 3
0.133737 0.47343 0.65529 1.29056e-38 3
0.0169115 0.179686 0.295408 1.65923e-38 3
0.0217324 0.179696 0.295424 1.58533e-38 3
0.0267093 0.180757 0.297169 1.8066e-38 3
0.0317472 0.181842 0.298952 1.945e-38 3
0.011884 0.181336 0.290333 1.60392e-38 3
0.016794 0.183224 0.293356 1.51172e-38 3
0.0216028 0.183415 0.293662 1.62221e-38 3
0.0265297 0.184357 0.29517 1.81589e-38 3
0.0316672 0.186249 0.298199 2.12032e-38 3
0.0366817 0.18701 0.299417 1.41985e-38 3
0.0265128 0.189053 0.294983 1.51165e-38 3
0.0315568 0.190448 0.297159 1.47495e-38 3
0.0366143 0.191542 0.298867 1.45673e-38 3
0.0409872 0.198853 0.295242 1.42914e-38 3
-0.0364317 0.181307 0.298073 0 3
-0.0448851 0.181035 0.289851 1.53938e-38 3
-0.0402554 0.181483 0.290569 1.41041e-38 3
-0.0553588 0.189235 0.295267 1.40109e-38 3
-0.049741 0.186239 0.290592 1.30889e-38 3
-0.0448067 0.18544 0.289345 1.41034e-38 3
-0.0402554 0.186224 0.290569 1.40109e-38 3
-0.0655999 0.195863 0.298021 1.36435e-38 3
-0.0601404 0.193937 0.295091 1.41041e-38 3
-0.0549949 0.192777 0.293326 1.34577e-38 3
-0.0499552 0.191803 0.291843 1.45644e-38 3
-0.0451248 0.191511 0.291399 1.61317e-38 3
-0.0403745 0.19153 0.291429 1.46562e-38 3
-0.0877975 0.196005 0.291013 0 3
-0.082372 0.194406 0.288639 0 3
-0.0776692 0.194422 0.288663 0 3
-0.0747924 0.199307 0.295915 0 3
-0.0648767 0.198512 0.294736 1.28137e-38 3
-0.0600557 0.198472 0.294676 1.36431e-38 3
-0.0552478 0.198472 0.294676 1.50261e-38 3
-0.0504265 0.198419 0.294597 1.6409e-38 3
-0.0454278 0.197583 0.293356 1.39197e-38 3
-0.0870813 0.199115 0.288639 1.21695e-38 3
-0.0822424 0.198802 0.288185 0 3
-0.0280933 0.409137 0.691169 1.2445e-38 3
-0.0384165 0.410229 0.674426 1.38275e-38 3
-0.0783537 0.400396 0.641065 1.29985e-38 3
-0.0783537 0.410856 0.641065 1.40123e-38 3
-0.078356 0.421327 0.641084 1.37357e-38 3
-0.0888786 0.432093 0.641538 1.29056e-38 3
-0.0891724 0.444023 0.643658 1.21684e-38 3
-0.517195 0.407668 0.728867 0 3
-0.592224 0.487639 0.780747 0 3
-0.505354 0.49025 0.764946 0 3
-0.121467 0.197281 0.363316 0 3
-0.112989 0.192927 0.355297 0 3
-0.106812 0.192244 0.354039 0 3
-0.101041 0.192253 0.354055 0 3
-0.122806 0.195889 0.350229 0 3
-0.117452 0.196493 0.351308 0 3
-0.112405 0.197696 0.35346 0 3
-0.106169 0.196827 0.351907 0 3
-0.100454 0.196879 0.351999 0 3
-0.12601 0.197667 0.343391 0 3
-0.120343 0.197561 0.343207 0 3
-0.115729 0.199258 0.346155 0 3
-0.110456 0.199937 0.347334 0 3
-0.104468 0.199324 0.34627 0 3
-0.123473 0.199176 0.336476 0 3
-0.118263 0.19965 0.337276 0 3
-0.194456 0.212247 0.390878 0 3
-0.187336 0.21141 0.389336 0 3
-0.180296 0.210607 0.387857 0 3
-0.173769 0.210366 0.387414 0 3
-0.169377 0.212789 0.391875 0 3
-0.161241 0.210514 0.387686 0 3
-0.152588 0.207351 0.38186 0 3
-0.145423 0.206027 0.379423 0 3
-0.138464 0.20489 0.377328 0 3
-0.131515 0.203662 0.375067 0 3
-0.198119 0.21567 0.385595 0 3
-0.192088 0.215963 0.386119 1.21695e-38 3
-0.185878 0.216067 0.386305 0 3
-0.179625 0.216127 0.386412 0 3
-0.173291 0.216091 0.386348 0 3
-0.16705 0.216172 0.386493 0 3
-0.159794 0.214893 0.384206 0 3
-0.152533 0.213505 0.381724 0 3
-0.144581 0.210989 0.377226 0 3
-0.132491 0.201941 0.36105 0 3
-0.197957 0.22178 0.385281 0 3
-0.192092 0.222267 0.386127 0 3
-0.185878 0.22237 0.386305 0 3
-0.179625 0.222431 0.386412 0 3
-0.173291 0.222394 0.386348 0 3
-0.167065 0.222497 0.386526 0 3
-0.159941 0.221366 0.384561 1.21702e-38 3
-0.150003 0.216088 0.375393 0 3
-0.133955 0.201184 0.349501 0 3
-0.19847 0.208768 0.35268 0 3
-0.19515 0.211406 0.357135 0 3
-0.195213 0.217983 0.368246 0 3
-0.198265 0.228421 0.38588 0 3
-0.192299 0.228813 0.386542 0 3
-0.185882 0.228678 0.386313 0 3
-0.179625 0.228736 0.386412 0 3
-0.173291 0.228698 0.386348 0 3
-0.16705 0.228784 0.386493 0 3
-0.159766 0.227391 0.384139 0 3
-0.148901 0.220581 0.372635 0 3
-0.131158 0.202566 0.342202 0 3
-0.11389 0.20165 0.340655 0 3
-0.108962 0.202822 0.342634 0 3
-0.103329 0.202739 0.342494 1.35528e-38 3
-0.19792 0.202204 0.332428 0 3
-0.191595 0.201257 0.330872 0 3
-0.18737 0.202525 0.332956 0 3
-0.187266 0.208456 0.342707 0 3
-0.187222 0.214822 0.353171 0 3
-0.18513 0.219167 0.360316 0 3
-0.188121 0.230012 0.378145 0 3
-0.179067 0.226365 0.372149 0 3
-0.1707 0.223362 0.367212 0 3
-0.172543 0.233987 0.38468 0 3
-0.166632 0.2345 0.385524 0 3
-0.146843 0.214759 0.353068 0 3
-0.132353 0.20147 0.331221 0 3
-0.1268 0.201235 0.330834 0 3
-0.122023 0.202263 0.332526 0 3
-0.117758 0.204275 0.335833 0 3
-0.113851 0.207136 0.340536 0 3
-0.108819 0.20814 0.342186 1.43822e-38 3
-0.103064 0.207792 0.341615 1.20776e-38 3
-0.194465 0.204003 0.326624 0 3
-0.18865 0.203479 0.325785 0 3
-0.183148 0.203271 0.325453 0 3
-0.17984 0.20556 0.329118 0 3
-0.180483 0.212644 0.340459 0 3
-0.179113 0.217731 0.348604 0 3
-0.17451 0.219094 0.350786 0 3
-0.168589 0.218837 0.350375 0 3
-0.161184 0.216568 0.346743 0 3
-0.151622 0.211131 0.338037 0 3
-0.142408 0.205787 0.32948 0 3
-0.135922 0.204118 0.326809 0 3
-0.131497 0.205537 0.329081 0 3
-0.126748 0.206546 0.330697 0 3
-0.121536 0.20686 0.331199 0 3
-0.117471 0.209244 0.335015 0 3
-0.113718 0.212444 0.340139 1.18936e-38 3
-0.108604 0.2133 0.34151 0 3
-0.187558 0.207586 0.3239 0 3
-0.182301 0.207617 0.323948 0 3
-0.177538 0.208229 0.324904 0 3
-0.174266 0.210682 0.328731 0 3
-0.171849 0.214359 0.334468 0 3
-0.170365 0.219476 0.342452 0 3
-0.165376 0.220274 0.343697 0 3
-0.156693 0.216034 0.337081 0 3
-0.149531 0.213659 0.333375 0 3
-0.142364 0.211096 0.329377 0 3
-0.109529 0.209964 0.327611 0 3
-0.107553 0.216754 0.338205 0 3
-0.102377 0.217479 0.339337 0 3
-0.187558 0.212871 0.3239 0 3
-0.182274 0.212871 0.3239 0 3
-0.177015 0.212902 0.323948 0 3
-0.172158 0.213433 0.324755 0 3
-0.167573 0.214346 0.326144 0 3
-0.163291 0.215719 0.328235 0 3
-0.158341 0.216272 0.329076 0 3
-0.151205 0.213775 0.325276 0 3
-0.105161 0.206723 0.314546 1.19858e-38 3
-0.171704 0.218155 0.3239 0 3
-0.166346 0.218059 0.323757 0 3
-0.159904 0.216489 0.321426 0 3
-0.153188 0.214429 0.318368 0 3
-0.147171 0.213237 0.316598 0 3
-0.137436 0.26399 0.391952 0 3
-0.101549 0.204578 0.303742 0 3
-0.165686 0.222455 0.322472 0 3
-0.159639 0.221366 0.320893 0 3
-0.153183 0.219615 0.318356 0 3
-0.147171 0.218403 0.316598 0 3
-0.143658 0.270062 0.391483 1.25386e-38 3
-0.106501 0.209527 0.303732 0 3
-0.142908 0.275006 0.38944 0 3
-0.105785 0.21304 0.301688 1.27226e-38 3
-0.141976 0.279525 0.3869 0 3
-0.105369 0.217104 0.300501 0 3
-0.148305 0.285868 0.386942 1.21695e-38 3
-0.110614 0.222697 0.301434 0 3
-0.105369 0.222007 0.300501 0 3
-0.151601 0.28648 0.379392 0 3
-0.11086 0.228121 0.302105 0 3
-0.106071 0.228423 0.302505 0 3
-0.100485 0.226954 0.30056 1.2445e-38 3
-0.22102 0.207256 0.381685 0 3
-0.216253 0.208665 0.384281 0 3
-0.211503 0.210175 0.387062 0 3
-0.205618 0.210616 0.387873 0 3
-0.201163 0.212596 0.391521 0 3
-0.23715 0.21121 0.377622 0 3
-0.230425 0.210695 0.3767 0 3
-0.222709 0.20922 0.374064 0 3
-0.214732 0.20741 0.370827 0 3
-0.208612 0.207341 0.370704 0 3
-0.205367 0.21021 0.375833 0 3
-0.202424 0.213574 0.381848 0 3
-0.266287 0.206521 0.358772 0 3
-0.263263 0.208764 0.362669 0 3
-0.260729 0.211509 0.367437 0 3
-0.23413 0.214603 0.372812 0 3
-0.228318 0.214858 0.373256 0 3
-0.222153 0.214786 0.373129 0 3
-0.214915 0.213642 0.371142 0 3
-0.208247 0.213015 0.370054 0 3
-0.204665 0.215602 0.374548 0 3
-0.201204 0.21848 0.379547 0 3
-0.262148 0.209073 0.353195 0 3
-0.258251 0.210594 0.355765 0 3
-0.257552 0.214854 0.36296 0 3
-0.224157 0.211286 0.356933 0 3
-0.217287 0.210273 0.355222 0 3
-0.210039 0.208829 0.352782 0 3
-0.203588 0.208118 0.351582 0 3
-0.224555 0.211987 0.348512 0 3
-0.213739 0.207018 0.340343 0 3
-0.20488 0.203731 0.334939 0 3
-0.220887 0.214118 0.34282 0 3
-0.213475 0.212309 0.339923 0 3
-0.201898 0.206152 0.330064 0 3
0.204709 0.209726 0.398199 0 3
0.208869 0.213831 0.393794 0 3
0.218044 0.216562 0.398824 0 3
0.224958 0.216955 0.399547 0 3
0.240847 0.202883 0.373632 1.20769e-38 3
0.2456 0.201779 0.3716 1.2168e-38 3
0.206882 0.21816 0.390048 0 3
0.217647 0.222663 0.398097 0 3
0.22407 0.222591 0.397969 0 3
0.230767 0.222788 0.398322 0 3
0.234419 0.220115 0.393543 0 3
0.235656 0.215377 0.385071 0 3
0.238525 0.212338 0.379638 0 3
0.240732 0.208878 0.373453 0 3
0.245058 0.207383 0.370779 0 3
0.250615 0.206977 0.370053 0 3
0.256076 0.206511 0.36922 0 3
0.261358 0.205926 0.368175 0 3
0.264273 0.203545 0.363918 0 3
0.267235 0.201304 0.35991 0 3
0.201486 0.205995 0.357858 1.54889e-38 3
0.206793 0.205466 0.35694 1.29067e-38 3
0.212379 0.205237 0.356541 1.22609e-38 3
0.220753 0.207642 0.36072 0 3
0.231745 0.212321 0.368848 0 3
0.232389 0.207522 0.36051 0 3
0.233462 0.203333 0.353234 0 3
0.239082 0.203212 0.353023 1.20769e-38 3
0.244222 0.202697 0.35213 0 3
0.249569 0.202374 0.351568 0 3
0.255815 0.202778 0.35227 0 3
0.260976 0.202324 0.351481 0 3
0.264673 0.200778 0.348796 0 3
0.27013 0.200604 0.348493 0 3
0.275227 0.200176 0.347749 0 3
0.28078 0.20009 0.3476 0 3
0.286451 0.20009 0.3476 0 3
0.234607 0.200236 0.338266 0 3
0.242122 0.2019 0.341077 0 3
0.248546 0.202601 0.342261 0 3
0.25419 0.202648 0.342341 0 3
0.260629 0.203314 0.343466 0 3
0.268421 0.204985 0.346289 0 3
0.275087 0.205745 0.347573 0 3
0.28078 0.205761 0.3476 0 3
0.202433 0.201204 0.330784 1.25368e-38 3
0.208423 0.201778 0.331728 1.28138e-38 3
0.215581 0.203425 0.334435 1.30896e-38 3
0.219514 0.202023 0.332131 1.22606e-38 3
0.223331 0.200584 0.329765 0 3
0.23236 0.203784 0.335026 0 3
0.237154 0.203208 0.334079 0 3
0.240532 0.201472 0.331224 0 3
0.250721 0.205392 0.337669 0 3
0.259802 0.208255 0.342376 0 3
0.200404 0.20453 0.327469 1.3551e-38 3
0.233346 0.257457 0.391741 1.48417e-38 3
0.233168 0.263646 0.391441 1.38268e-38 3
0.24322 0.267046 0.387111 1.26286e-38 3
0.143614 0.199584 0.391058 1.33673e-38 3
0.150215 0.199878 0.391633 1.38268e-38 3
0.101865 0.199445 0.356587 1.35524e-38 3
0.106113 0.196537 0.351387 1.33669e-38 3
0.109624 0.192633 0.344407 1.46584e-38 3
0.115115 0.192418 0.344022 1.28152e-38 3
0.121979 0.194411 0.347587 1.28156e-38 3
0.12927 0.196879 0.351999 1.57651e-38 3
0.137049 0.199848 0.357307 1.31822e-38 3
0.104005 0.198252 0.344407 1.8531e-38 3
0.109431 0.197904 0.343802 1.2446e-38 3
0.115036 0.197896 0.343788 1.31833e-38 3
0.120723 0.198023 0.344009 0 3
0.162118 0.199324 0.336725 1.41974e-38 3
0.166759 0.19831 0.335012 1.29067e-38 3
0.172179 0.198257 0.334922 1.18925e-38 3
0.177217 0.19778 0.334118 1.3184e-38 3
0.182363 0.197451 0.33356 1.35528e-38 3
0.187798 0.197443 0.333548 1.2907e-38 3
0.1933 0.197504 0.333651 1.23535e-38 3
0.199706 0.19846 0.335267 1.31833e-38 3
0.14207 0.199802 0.328479 1.22613e-38 3
0.146836 0.198998 0.327157 1.42896e-38 3
0.15192 0.198666 0.326611 1.45662e-38 3
0.157243 0.198658 0.326599 1.38286e-38 3
0.162571 0.198658 0.326599 1.29989e-38 3
0.167925 0.198688 0.326648 0 3
0.173664 0.199157 0.327419 0 3
0.179325 0.199512 0.328003 0 3
0.148456 0.199344 0.319165 1.22602e-38 3
0.153435 0.199048 0.318691 1.3551e-38 3
0.158995 0.199499 0.319414 1.25368e-38 3
0.164616 0.199997 0.320211 0 3
0.100689 0.203088 0.397924 1.41052e-38 3
0.107274 0.203265 0.398269 1.28134e-38 3
0.11369 0.203117 0.397981 1.36432e-38 3
0.12002 0.202841 0.39744 1.27216e-38 3
0.126001 0.202034 0.395859 1.44747e-38 3
0.132069 0.201438 0.394689 1.29996e-38 3
0.137771 0.200365 0.392589 1.37368e-38 3
0.100425 0.209031 0.39688 0 3
0.10684 0.208913 0.396657 1.46584e-38 3
0.113118 0.208556 0.395979 1.58559e-38 3
0.119414 0.20827 0.395435 1.35513e-38 3
0.125438 0.207561 0.394089 1.33684e-38 3
0.131654 0.207224 0.39345 1.49357e-38 3
0.137529 0.206408 0.3919 1.37368e-38 3
0.143136 0.205279 0.389757 1.38283e-38 3
0.147963 0.203175 0.385761 1.58551e-38 3
0.183028 0.207246 0.39349 1.47513e-38 3
0.188978 0.206732 0.392515 0 3
0.196568 0.207987 0.394897 0 3
0.104857 0.211388 0.389296 1.34598e-38 3
0.111186 0.211345 0.389217 1.32747e-38 3
0.117669 0.211584 0.389656 1.60406e-38 3
0.123928 0.211416 0.389346 1.25379e-38 3
0.131546 0.21347 0.393129 1.41981e-38 3
0.138745 0.214684 0.395365 1.34606e-38 3
0.142382 0.210523 0.387703 1.58573e-38 3
0.146097 0.206827 0.380897 1.49339e-38 3
0.175575 0.204966 0.377468 1.28152e-38 3
0.185482 0.209193 0.385254 0 3
0.192373 0.209854 0.38647 1.18932e-38 3
0.198784 0.209965 0.386674 1.26308e-38 3
0.146032 0.204258 0.365192 1.33669e-38 3
0.152874 0.205446 0.367315 1.32747e-38 3
0.157855 0.204137 0.364975 1.27223e-38 3
0.163095 0.203246 0.363383 1.18003e-38 3
0.171224 0.205892 0.368113 1.32762e-38 3
0.179391 0.208403 0.372602 1.24464e-38 3
0.18686 0.209965 0.375395 1.25386e-38 3
0.194122 0.211202 0.377606 0 3
0.12765 0.200082 0.347587 1.20776e-38 3
0.134968 0.202554 0.351881 1.28145e-38 3
0.142093 0.204546 0.355341 1.34598e-38 3
0.149228 0.206396 0.358555 1.25379e-38 3
0.155762 0.207306 0.360137 1.18003e-38 3
0.161306 0.206881 0.359397 1.3552e-38 3
0.166151 0.20562 0.357207 1.29992e-38 3
0.169637 0.20282 0.352343 1.20776e-38 3
0.175915 0.203432 0.353406 1.30918e-38 3
0.18238 0.204215 0.354766 1.24464e-38 3
0.189153 0.205283 0.356622 1.19854e-38 3
0.195664 0.206012 0.357888 1.26308e-38 3
0.104001 0.203863 0.344394 1.62261e-38 3
0.109414 0.203481 0.343748 1.40134e-38 3
0.114735 0.202972 0.342887 1.24457e-38 3
0.120142 0.202656 0.342354 1.25386e-38 3
0.126095 0.203247 0.343353 1.23542e-38 3
0.132936 0.205159 0.346583 1.44744e-38 3
0.139663 0.206747 0.349265 1.3829e-38 3
0.145562 0.207032 0.349747 1.55807e-38 3
0.150076 0.2054 0.346989 1.19847e-38 3
0.153761 0.202794 0.342587 1.29989e-38 3
0.158053 0.201142 0.339797 1.30911e-38 3
0.121956 0.201995 0.332084 1.18932e-38 3
0.127071 0.201514 0.331293 1.36446e-38 3
0.132237 0.20115 0.330696 1.27216e-38 3
0.137281 0.200636 0.329849 1.17996e-38 3
0.185149 0.200023 0.328843 1.23539e-38 3
0.191281 0.200828 0.330166 0 3
0.196999 0.201166 0.330721 1.27212e-38 3
0.119643 0.203479 0.325785 0 3
0.124737 0.203118 0.325207 0 3
0.129716 0.202607 0.324389 1.33666e-38 3
0.134457 0.201779 0.323064 1.49335e-38 3
0.139154 0.200951 0.321738 1.23528e-38 3
0.143813 0.20013 0.320423 1.32755e-38 3
0.172251 0.202835 0.324755 0 3
0.179293 0.204827 0.327944 1.26304e-38 3
0.185066 0.205296 0.328694 1.23539e-38 3
0.189843 0.204665 0.327684 1.33666e-38 3
0.194587 0.204033 0.326672 1.2168e-38 3
0.119329 0.208247 0.324931 1.27234e-38 3
0.123919 0.207058 0.323076 1.18929e-38 3
0.128655 0.2062 0.321738 1.47495e-38 3
0.133338 0.205328 0.320376 1.37343e-38 3
0.137667 0.203996 0.318299 1.3551e-38 3
0.141755 0.202418 0.315836 0 3
0.146498 0.201853 0.314955 1.30914e-38 3
0.152691 0.203257 0.317145 0 3
0.158978 0.204689 0.31938 1.46584e-38 3
0.196932 0.206237 0.321795 0 3
0.128322 0.210902 0.320905 1.309e-38 3
0.132459 0.209167 0.318265 1.4564e-38 3
0.136236 0.207015 0.314991 1.34588e-38 3
0.140066 0.205099 0.312075 1.29992e-38 3
0.184404 0.260551 0.39645 0 3
0.188741 0.202691 0.30841 1.29059e-38 3
0.134942 0.210139 0.311998 1.46573e-38 3
0.138955 0.208523 0.309598 1.23538e-38 3
0.18565 0.20432 0.303359 1.45648e-38 3
0.189549 0.203194 0.301687 0 3
0.134623 0.214721 0.311261 1.29056e-38 3
0.138413 0.212741 0.308391 1.21695e-38 3
0.134822 0.220125 0.311721 1.26286e-38 3
0.138095 0.217272 0.307682 1.3829e-38 3
0.135258 0.225939 0.312729 1.2445e-38 3
0.138105 0.222308 0.307704 0 3
0.0420993 0.202328 0.396435 1.2817e-38 3
0.0481171 0.200453 0.392759 1.48464e-38 3
0.0544208 0.200069 0.392007 1.51226e-38 3
0.0609864 0.200627 0.393101 1.30007e-38 3
0.0675382 0.201038 0.393907 1.55793e-38 3
0.0740801 0.201351 0.39452 1.41052e-38 3
0.0808098 0.202083 0.395954 1.40141e-38 3
0.0877336 0.203157 0.398057 1.37375e-38 3
0.0942099 0.203117 0.397981 1.22617e-38 3
0.00319273 0.202577 0.384625 1.33684e-38 3
0.00953597 0.204028 0.387381 1.24457e-38 3
0.0159808 0.20563 0.390422 1.33684e-38 3
0.0225022 0.207023 0.393067 1.18018e-38 3
0.0289959 0.207599 0.394161 1.2817e-38 3
0.0356765 0.209062 0.396939 1.20791e-38 3
0.041854 0.20758 0.394125 1.40155e-38 3
0.0478951 0.205906 0.390947 1.34627e-38 3
0.054185 0.20557 0.390309 1.31861e-38 3
0.060916 0.206802 0.392648 1.21705e-38 3
0.0675948 0.207639 0.394237 1.34598e-38 3
0.0739788 0.207504 0.39398 1.20769e-38 3
0.0804933 0.207727 0.394404 1.21698e-38 3
0.0874252 0.208914 0.396658 1.31843e-38 3
0.0939693 0.209075 0.396964 1.20773e-38 3
0.00312287 0.204282 0.376209 1.30914e-38 3
0.00933359 0.205884 0.37916 1.27216e-38 3
0.0156708 0.207887 0.382848 1.20762e-38 3
0.0221334 0.209938 0.386624 0 3
0.0287196 0.211991 0.390405 1.19854e-38 3
0.0353285 0.213436 0.393067 1.20776e-38 3
0.0418158 0.213815 0.393765 1.30003e-38 3
0.0480387 0.212921 0.392119 1.30925e-38 3
0.0542961 0.212373 0.391109 1.34613e-38 3
0.0610182 0.213566 0.393306 1.30925e-38 3
0.0676613 0.214282 0.394625 1.26308e-38 3
0.0739804 0.213936 0.393989 1.28145e-38 3
0.0804627 0.21408 0.394254 0 3
0.0873633 0.215233 0.396377 0 3
0.0932135 0.213818 0.393771 1.24461e-38 3
0.0990138 0.212479 0.391304 1.31833e-38 3
0.00309318 0.20842 0.372632 0 3
0.00924416 0.210038 0.375526 0 3
0.0155192 0.212062 0.379144 1.40116e-38 3
0.0219172 0.214133 0.382848 1.1984e-38 3
0.0284846 0.216574 0.387212 0 3
0.0538283 0.216869 0.387739 1.31843e-38 3
0.0589944 0.212687 0.380261 1.23546e-38 3
0.0654068 0.213366 0.381476 1.35528e-38 3
0.0717516 0.213726 0.382119 1.26294e-38 3
0.0769538 0.210896 0.377061 1.32762e-38 3
0.0832847 0.21135 0.377872 1.29999e-38 3
0.0892281 0.210826 0.376935 1.18932e-38 3
0.0926746 0.204851 0.366251 1.3552e-38 3
0.00309264 0.214462 0.372567 0 3
0.00921911 0.21558 0.374509 1.27208e-38 3
0.0154876 0.217803 0.378372 1.39194e-38 3
0.0218557 0.219762 0.381774 0 3
0.0284901 0.222934 0.387285 1.18911e-38 3
0.0610014 0.226338 0.393198 1.42907e-38 3
0.0647376 0.217343 0.377572 1.42903e-38 3
0.0697672 0.213877 0.371551 1.88072e-38 3
0.0751077 0.211842 0.368015 1.2262e-38 3
0.0808278 0.211099 0.366725 1.47517e-38 3
0.0856856 0.208362 0.36197 1.31836e-38 3
0.0897291 0.204125 0.354611 1.28145e-38 3
0.093926 0.20073 0.348712 1.21698e-38 3
0.00921308 0.221545 0.374264 1.48413e-38 3
0.0151961 0.219761 0.37125 1.60399e-38 3
0.0339438 0.223555 0.37766 1.73292e-38 3
0.0728804 0.211386 0.357102 1.24464e-38 3
0.0767509 0.206133 0.348228 1.32765e-38 3
0.0820952 0.20529 0.346803 1.33684e-38 3
0.0875285 0.204763 0.345914 1.37364e-38 3
0.0930114 0.204409 0.345316 0 3
0.0986261 0.204369 0.345248 0 3
0.00911872 0.22532 0.370431 1.89901e-38 3
0.0689863 0.205606 0.338021 1.29081e-38 3
0.0734682 0.202755 0.333334 1.30925e-38 3
0.0786288 0.202041 0.33216 1.47513e-38 3
0.0840419 0.202026 0.332135 1.47506e-38 3
0.0550914 0.200685 0.321312 1.34613e-38 3
0.0613049 0.203915 0.326484 1.37371e-38 3
0.0666552 0.203987 0.326599 1.29999e-38 3
0.0719838 0.203987 0.326599 1.5213e-38 3
0.0773125 0.203987 0.326599 1.32762e-38 3
0.0826412 0.203987 0.326599 1.36442e-38 3
0.0278943 0.243019 0.379187 1.49321e-38 3
0.0586494 0.200178 0.312342 1.54889e-38 3
0.0650985 0.204428 0.318972 1.19858e-38 3
0.0712539 0.207193 0.323287 1.44747e-38 3
0.0766708 0.207578 0.323888 1.51194e-38 3
0.0819582 0.207586 0.3239 1.54889e-38 3
0.0470122 0.252199 0.383741 1.59502e-38 3
0.0473675 0.200658 0.305317 1.4107e-38 3
0.052891 0.202736 0.308479 1.2078e-38 3
0.0586494 0.205274 0.312342 1.54889e-38 3
0.0650985 0.209632 0.318972 1.45673e-38 3
0.0712539 0.212468 0.323287 1.29996e-38 3
0.0766708 0.212863 0.323888 1.3368e-38 3
0.0819582 0.212871 0.3239 1.43818e-38 3
0.0460825 0.253348 0.376152 1.37375e-38 3
0.0460825 0.259486 0.376152 1.4936e-38 3
-0.00314809 0.200466 0.392786 1.38293e-38 3
-0.00298902 0.202507 0.37294 1.21695e-38 3
-0.0145714 0.200512 0.358494 0 3
-0.00885022 0.203452 0.363751 1.20776e-38 3
-0.00296073 0.206617 0.36941 1.18925e-38 3
-0.0936623 0.200379 0.348103 0 3
-0.0884295 0.201397 0.34987 1.30911e-38 3
-0.0831957 0.202552 0.351877 1.30903e-38 3
-0.0778851 0.203678 0.353833 1.30903e-38 3
-0.0721288 0.203725 0.353915 1.31825e-38 3
-0.0662192 0.20331 0.353193 1.45665e-38 3
-0.0602303 0.202549 0.351871 1.32747e-38 3
-0.0543322 0.201965 0.350857 0 3
-0.048419 0.201181 0.349495 1.30914e-38 3
-0.0425139 0.200225 0.347835 1.41063e-38 3
-0.0368347 0.200203 0.347797 1.29999e-38 3
-0.0314424 0.202017 0.350947 1.20783e-38 3
-0.0259438 0.203802 0.354049 1.38293e-38 3
-0.0202574 0.204713 0.355631 1.2907e-38 3
-0.0144958 0.205291 0.356635 1.29992e-38 3
-0.00881913 0.208652 0.362474 1.50264e-38 3
-0.0029605 0.212628 0.369381 0 3
-0.0980187 0.203314 0.343466 1.56733e-38 3
-0.09279 0.20414 0.344861 1.30918e-38 3
-0.0875233 0.204983 0.346285 0 3
-0.0826033 0.20681 0.349372 1.2445e-38 3
-0.0777661 0.209131 0.353292 1.44726e-38 3
-0.0722726 0.209917 0.354621 1.35513e-38 3
-0.0663356 0.20944 0.353814 1.2907e-38 3
-0.0602441 0.208337 0.351952 0 3
-0.0543549 0.207776 0.351003 0 3
-0.0484514 0.207021 0.349729 1.48421e-38 3
-0.042508 0.205872 0.347787 1.3368e-38 3
-0.0366173 0.204662 0.345744 1.31843e-38 3
-0.097781 0.208412 0.342633 1.51201e-38 3
-0.092645 0.209439 0.344322 1.33691e-38 3
-0.0873321 0.210172 0.345528 0 3
-0.0824341 0.212075 0.348656 1.33669e-38 3
-0.0774514 0.214026 0.351863 1.25364e-38 3
-0.0721699 0.215397 0.354117 1.42882e-38 3
-0.0299468 0.203315 0.334254 1.21684e-38 3
-0.0820946 0.216867 0.34722 1.20758e-38 3
-0.0766786 0.217574 0.348352 1.2168e-38 3
-0.0710106 0.217621 0.348428 1.44729e-38 3
-0.0650812 0.216806 0.347124 1.29978e-38 3
-0.0969378 0.217699 0.339679 0 3
-0.0917929 0.218645 0.341155 0 3
-0.0860426 0.218178 0.340426 0 3
-0.0801141 0.217163 0.338843 0 3
-0.0726246 0.211453 0.329934 0 3
-0.099715 0.206073 0.313557 0 3
-0.0960407 0.209214 0.318336 0 3
-0.0928514 0.21383 0.32536 0 3
-0.0836892 0.262279 0.380201 1.2445e-38 3
-0.071497 0.269289 0.381344 1.29063e-38 3
0.324852 0.177212 0.35869 0 3
0.307474 0.183171 0.358899 0 3
0.311187 0.181919 0.356445 0 3
0.31746 0.182181 0.356959 0 3
0.324845 0.183061 0.358683 0 3
0.302519 0.191742 0.353116 0 3
0.284221 0.185051 0.374556 0 3
0.290878 0.185399 0.375261 1.19854e-38 3
0.267364 0.187905 0.368174 0 3
0.273384 0.187914 0.368192 0 3
0.279836 0.188213 0.368777 0 3
0.285771 0.188159 0.368672 0 3
0.243136 0.198656 0.377182 0 3
0.247343 0.197105 0.374237 1.33666e-38 3
0.25276 0.196569 0.373219 1.42885e-38 3
0.257409 0.195475 0.371142 0 3
0.262213 0.194547 0.369379 0 3
0.267086 0.19371 0.367791 0 3
0.272093 0.193006 0.366453 0 3
0.277987 0.192947 0.366341 0 3
0.284717 0.193458 0.367312 0 3
0.272034 0.198941 0.366374 0 3
0.290076 0.191136 0.351998 0 3
0.296794 0.191765 0.353158 0 3
0.269379 0.198556 0.354996 0 3
0.2718 0.196123 0.350648 0 3
0.275776 0.19489 0.348443 0 3
0.280843 0.194462 0.347678 0 3
0.286593 0.194515 0.347772 0 3
0.292801 0.19487 0.348407 0 3
0.205861 0.199123 0.336386 1.33666e-38 3
0.211366 0.199138 0.336411 1.25368e-38 3
0.216854 0.199138 0.336411 1.17996e-38 3
0.222343 0.199138 0.336411 0 3
0.227903 0.1992 0.336516 1.18925e-38 3
-0.0329557 0.181732 0.367838 1.3829e-38 3
-0.0283196 0.190938 0.386471 1.3184e-38 3
-0.0227631 0.197434 0.399621 1.33684e-38 3
-0.0162581 0.197617 0.399991 1.30918e-38 3
-0.0436832 0.182407 0.357402 1.29052e-38 3
-0.0381271 0.183733 0.36 1.22599e-38 3
-0.0324378 0.184783 0.362058 1.26304e-38 3
-0.0266899 0.185893 0.364231 1.3645e-38 3
-0.0209868 0.188039 0.368436 1.32762e-38 3
-0.0153375 0.192584 0.377343 1.24471e-38 3
-0.00933958 0.195913 0.383865 1.19861e-38 3
-0.0550484 0.187227 0.355482 1.29063e-38 3
-0.0492484 0.187227 0.355482 1.36435e-38 3
-0.0434485 0.187227 0.355482 1.49335e-38 3
-0.037706 0.187513 0.356024 1.50264e-38 3
-0.0320527 0.188427 0.357759 1.3829e-38 3
-0.026338 0.189306 0.359428 1.3184e-38 3
-0.0205728 0.190222 0.361168 1.2723e-38 3
-0.0148973 0.193037 0.366513 1.31847e-38 3
-0.00907789 0.196511 0.373109 0 3
-0.00304179 0.19989 0.379523 1.29074e-38 3
-0.0954578 0.192644 0.354776 0 3
-0.0898273 0.192983 0.355401 1.21691e-38 3
-0.0840479 0.193027 0.355482 0 3
-0.078248 0.193027 0.355482 1.20769e-38 3
-0.0724364 0.192996 0.355424 0 3
-0.0664676 0.192504 0.354519 0 3
-0.0605711 0.192148 0.353862 1.37357e-38 3
-0.0547258 0.191896 0.353399 1.45665e-38 3
-0.0489167 0.191727 0.353087 1.53963e-38 3
-0.0431585 0.191739 0.353109 1.62261e-38 3
-0.0374479 0.191998 0.353587 1.26304e-38 3
-0.0317821 0.192624 0.354739 1.47509e-38 3
-0.0261334 0.193654 0.356636 1.47509e-38 3
-0.0203822 0.194298 0.357823 1.28152e-38 3
-0.0147176 0.196617 0.362092 0 3
-0.00894884 0.199718 0.367805 1.2262e-38 3
-0.0949621 0.197402 0.352933 0 3
-0.0894274 0.197897 0.353818 1.41967e-38 3
-0.0837821 0.198198 0.354358 1.36435e-38 3
-0.0780302 0.198274 0.354492 1.49343e-38 3
-0.0721317 0.197959 0.353929 1.40123e-38 3
-0.0662245 0.197563 0.353222 1.34591e-38 3
-0.0603114 0.197073 0.352345 1.43811e-38 3
-0.0544801 0.196775 0.351812 1.34602e-38 3
-0.048673 0.196504 0.351329 1.39212e-38 3
-0.042875 0.196203 0.35079 1.35528e-38 3
-0.0371493 0.19619 0.350767 1.38293e-38 3
-0.0315348 0.196867 0.351978 1.41056e-38 3
-0.0260295 0.19868 0.355219 1.54885e-38 3
-0.0203042 0.199371 0.356454 1.32755e-38 3
-0.0989726 0.199635 0.346809 0 3
-0.0299877 0.198131 0.33471 1.30918e-38 3
-0.023983 0.19374 0.327291 1.42889e-38 3
-0.0186651 0.193969 0.327679 0 3
-0.0344239 0.197706 0.325034 0 3
-0.023983 0.19908 0.327291 1.20747e-38 3
-0.0536594 0.195795 0.313484 0 3
-0.0630724 0.198343 0.309478 1.34577e-38 3
-0.0817772 0.199747 0.303931 0 3
-0.0760812 0.19783 0.301014 0 3
-0.0712284 0.197992 0.301261 0 3
0.373232 0.230034 0.481505 0 3
0.338498 0.225233 0.455886 0 3
0.393321 0.2185 0.442258 0 3
0.322433 0.231816 0.454212 0 3
0.375689 0.228154 0.447037 0 3
0.328477 0.245616 0.45233 1.21691e-38 3
0.352608 0.237032 0.436522 1.18932e-38 3
0.454011 0.374384 0.783658 0 3
0.441282 0.376315 0.761687 0 3
0.477359 0.356835 0.722257 0 3
0.436335 0.384384 0.753147 0 3
0.477421 0.368666 0.72235 1.55786e-38 3
0.433989 0.394539 0.749098 0 3
0.486049 0.389706 0.717688 1.309e-38 3
0.0488607 0.190536 0.398829 1.22642e-38 3
0.0552396 0.190095 0.397905 1.38315e-38 3
0.0617402 0.190121 0.39796 1.98217e-38 3
0.0684296 0.190668 0.399106 1.36424e-38 3
0.0750903 0.191047 0.399899 1.33684e-38 3
0.0483685 0.195058 0.394811 1.58609e-38 3
0.05472 0.194738 0.394163 1.52166e-38 3
0.061271 0.19512 0.394936 1.61346e-38 3
0.0675803 0.194733 0.394152 1.6315e-38 3
0.0741858 0.195192 0.395082 1.20769e-38 3
0.0808893 0.195816 0.396344 1.32765e-38 3
0.0877355 0.196666 0.398066 1.33684e-38 3
0.0942447 0.196697 0.398127 1.3552e-38 3
0.0958411 0.199017 0.355822 1.45669e-38 3
0.0988123 0.199112 0.3459 1.2446e-38 3
0.0187841 0.19423 0.328119 1.32733e-38 3
0.0223243 0.179638 0.303469 1.45633e-38 3
0.0133474 0.198346 0.326086 1.69611e-38 3
0.0421543 0.189652 0.303648 0 3
0.04825 0.194248 0.311006 1.3462e-38 3
0.0419302 0.193572 0.302034 1.30936e-38 3
0.047369 0.195683 0.305327 1.25404e-38 3
0.052891 0.197703 0.308479 1.37379e-38 3
0.0418685 0.198208 0.30159 1.46609e-38 3
-0.159255 0.373315 0.78142 1.18925e-38 3
-0.171297 0.384475 0.778203 0 3
-0.170566 0.395477 0.774883 1.18932e-38 3
0.0942924 0.213185 0.462017 1.4291e-38 3
0.00362482 0.208618 0.436678 1.3645e-38 3
0.0107429 0.208489 0.436408 1.56733e-38 3
0.0178278 0.208077 0.435545 1.40145e-38 3
0.0248575 0.207438 0.434208 1.33702e-38 3
0.0317635 0.20628 0.431784 1.22653e-38 3
0.0381088 0.202562 0.424001 0 3
0.00360482 0.214553 0.43427 1.38286e-38 3
0.0106834 0.214416 0.433992 1.43825e-38 3
0.017731 0.214015 0.433181 1.23549e-38 3
0.0246939 0.213111 0.431351 1.33702e-38 3
0.0304977 0.204823 0.414577 0 3
0.0364151 0.200169 0.405156 0 3
0.00335345 0.206183 0.403987 1.39215e-38 3
0.0100455 0.208273 0.408081 1.29996e-38 3
0.0166555 0.207672 0.406904 0 3
0.0231751 0.206609 0.404821 1.24482e-38 3
0.0296324 0.205585 0.402815 1.2172e-38 3
0.0360696 0.204818 0.401313 0 3
0.0359639 0.223803 0.400137 0 3
0.0432877 0.227992 0.407626 0 3
0.0490454 0.223915 0.400337 1.30003e-38 3
0.0371727 0.238073 0.413585 1.56711e-38 3
0.0457143 0.247796 0.430476 1.28145e-38 3
0.0530234 0.249138 0.432807 1.34613e-38 3
0.05854 0.242732 0.421679 1.55825e-38 3
0.00380308 0.271203 0.458153 0 3
0.0854333 0.269326 0.454982 1.55811e-38 3
0.00380255 0.278639 0.458089 1.52101e-38 3
0.0820908 0.265921 0.437181 1.29074e-38 3
0.0100193 0.254214 0.407017 1.6131e-38 3
-0.0924491 0.20191 0.453621 0 3
-0.0849387 0.201651 0.453038 0 3
-0.077421 0.201323 0.452301 1.50264e-38 3
-0.0699552 0.201075 0.451744 1.20758e-38 3
-0.0624751 0.200723 0.450954 1.41963e-38 3
-0.0549665 0.200173 0.449718 1.47509e-38 3
-0.0914739 0.207103 0.448836 1.29989e-38 3
-0.0843951 0.207704 0.450139 0 3
-0.0770598 0.207729 0.450191 0 3
-0.0695632 0.207278 0.449213 1.29985e-38 3
-0.0622309 0.207267 0.449191 0 3
-0.054902 0.207267 0.449191 0 3
-0.0475332 0.207093 0.448813 1.38293e-38 3
-0.0399539 0.205771 0.445949 1.32762e-38 3
-0.0324709 0.204467 0.443123 1.53967e-38 3
-0.0252069 0.204191 0.442524 1.30925e-38 3
-0.0179018 0.203226 0.440432 1.35535e-38 3
-0.0106606 0.202176 0.438158 1.45676e-38 3
-0.0957767 0.207871 0.435115 1.23542e-38 3
-0.0250204 0.209846 0.439249 1.30925e-38 3
-0.0178358 0.209635 0.438808 1.38301e-38 3
-0.0106394 0.20891 0.43729 1.33691e-38 3
-0.00349996 0.208623 0.436689 1.41066e-38 3
-0.0480644 0.224216 0.453829 1.2907e-38 3
-0.00994056 0.201854 0.408565 1.25386e-38 3
-0.00345707 0.213104 0.431338 1.27234e-38 3
-0.0612453 0.225623 0.442077 1.28137e-38 3
-0.0753961 0.23199 0.440472 1.31836e-38 3
-0.0557578 0.244806 0.402467 1.52105e-38 3
-0.171696 0.199396 0.447972 0 3
-0.164557 0.199602 0.448435 0 3
-0.149076 0.198472 0.445896 0 3
-0.138791 0.19426 0.436433 0 3
-0.134901 0.199026 0.447141 0 3
-0.293852 0.219685 0.493555 0 3
-0.25538 0.221237 0.497042 0 3
-0.232821 0.208309 0.467997 0 3
-0.216496 0.200271 0.449938 0 3
-0.209709 0.200801 0.45113 0 3
-0.202656 0.201106 0.451815 0 3
-0.29943 0.220003 0.476792 0 3
-0.292408 0.220574 0.47803 0 3
-0.28621 0.221816 0.48072 0 3
-0.288079 0.229554 0.497492 0 3
-0.258293 0.224823 0.487238 0 3
-0.240956 0.216393 0.468969 0 3
-0.224914 0.208611 0.452103 0 3
-0.213837 0.205062 0.444411 0 3
-0.207504 0.205973 0.446386 0 3
-0.201058 0.206834 0.448253 0 3
-0.29943 0.227782 0.476792 0 3
-0.292408 0.228373 0.47803 0 3
-0.28621 0.229659 0.48072 0 3
-0.288079 0.237671 0.497492 0 3
-0.265911 0.232483 0.486633 0 3
-0.243089 0.219071 0.458559 0 3
-0.228585 0.212542 0.444892 0 3
-0.220661 0.211903 0.443554 0 3
-0.212648 0.211133 0.441941 1.27234e-38 3
-0.205977 0.211686 0.443101 0 3
-0.222823 0.21426 0.433676 0 3
-0.218065 0.216562 0.438336 0 3
-0.21161 0.217277 0.439783 0 3
-0.204133 0.216957 0.439136 0 3
-0.261392 0.251656 0.493086 0 3
-0.257446 0.25578 0.48564 0 3
-0.225487 0.255481 0.485072 0 3
-0.277053 0.25268 0.46534 0 3
-0.299973 0.260397 0.465562 0 3
-0.292984 0.261749 0.454715 0 3
-0.286991 0.263662 0.445413 0 3
-0.287319 0.26454 0.43491 0 3
-0.277336 0.262198 0.419799 0 3
-0.24361 0.262234 0.409168 0 3
-0.24361 0.26891 0.409168 0 3
-0.223582 0.275585 0.409168 0 3
-0.216206 0.28135 0.407847 1.2445e-38 3
-0.216206 0.288004 0.407847 1.20758e-38 3
0.224686 0.20011 0.466682 0 3
0.219452 0.202885 0.45581 1.23557e-38 3
0.229418 0.205146 0.460891 0 3
0.23605 0.204378 0.459165 0 3
0.242529 0.203528 0.457255 0 3
0.250152 0.20366 0.457553 1.19844e-38 3
0.257376 0.203469 0.457124 0 3
0.264328 0.203081 0.456251 0 3
0.271639 0.202981 0.456027 0 3
0.228117 0.204749 0.443733 0 3
0.241366 0.209977 0.455063 0 3
0.249398 0.210489 0.456174 0 3
0.256208 0.20997 0.455049 0 3
0.263289 0.209697 0.454458 0 3
0.271318 0.210172 0.455487 0 3
0.20531 0.203726 0.426437 0 3
0.212144 0.203607 0.426189 0 3
0.222982 0.207217 0.433745 0 3
0.23721 0.213657 0.447226 0 3
0.235694 0.205957 0.431107 0 3
0.242284 0.20558 0.430319 1.29992e-38 3
0.213537 0.205216 0.415372 0 3
0.225978 0.210493 0.426051 0 3
0.225285 0.203585 0.412069 0 3
0.233861 0.20521 0.415359 0 3
0.298355 0.22867 0.462844 0 3
0.227227 0.249323 0.488515 0 3
0.206343 0.204852 0.401378 0 3
0.21381 0.205735 0.40311 0 3
0.221569 0.206839 0.405272 0 3
0.229977 0.208467 0.408462 0 3
0.298919 0.236668 0.463719 1.23524e-38 3
0.208647 0.244843 0.464875 1.29981e-38 3
0.213424 0.211929 0.402383 0 3
0.220776 0.212687 0.403821 0 3
0.227958 0.213242 0.404875 0 3
0.292716 0.245377 0.465889 1.34588e-38 3
0.203155 0.245784 0.452639 1.39208e-38 3
0.291296 0.251751 0.463628 1.20769e-38 3
0.24073 0.25901 0.404137 0 3
0.262694 0.33663 0.785065 0 3
0.295727 0.377442 0.739546 1.4935e-38 3
0.292264 0.384948 0.730887 1.36432e-38 3
0.290462 0.394426 0.72638 1.54874e-38 3
0.154899 0.20867 0.486647 0 3
0.123624 0.217464 0.488565 1.18925e-38 3
0.125008 0.206578 0.464109 1.24457e-38 3
0.109577 0.229403 0.497164 1.23542e-38 3
0.112865 0.220001 0.476788 1.25379e-38 3
0.112386 0.204941 0.44415 1.22613e-38 3
0.161147 0.200714 0.420133 1.39208e-38 3
0.169318 0.202287 0.423426 1.31829e-38 3
0.176373 0.202456 0.423779 1.42885e-38 3
0.184038 0.203284 0.425513 1.44726e-38 3
0.191501 0.203839 0.426674 1.29989e-38 3
0.198178 0.203546 0.426061 0 3
0.115796 0.200267 0.405354 1.48417e-38 3
0.123023 0.20127 0.407385 1.23535e-38 3
0.129963 0.201726 0.408307 1.3645e-38 3
0.137087 0.202408 0.409688 1.42903e-38 3
0.144925 0.204032 0.412974 1.46584e-38 3
0.152352 0.204959 0.41485 1.50261e-38 3
0.160191 0.206338 0.417642 1.53027e-38 3
0.168002 0.20757 0.420136 1.38283e-38 3
0.174938 0.207665 0.420329 1.52101e-38 3
0.181984 0.207881 0.420766 1.50257e-38 3
0.18751 0.206406 0.417781 1.31836e-38 3
0.190837 0.2027 0.410279 1.23546e-38 3
0.192959 0.204548 0.400783 0 3
0.199113 0.204153 0.400009 0 3
0.146453 0.253847 0.41733 1.24464e-38 3
0.144511 0.257198 0.411794 1.39215e-38 3
0.144494 0.263886 0.411746 1.30918e-38 3
0.156598 0.268322 0.408273 1.18929e-38 3
0.166809 0.269948 0.400798 1.5486e-38 3
0.16679 0.276457 0.400754 1.4103e-38 3
0.167298 0.283856 0.401973 1.29045e-38 3
0.16811 0.291824 0.403924 1.38261e-38 3
0.0397484 0.18963 0.442243 0 3
0.0394044 0.195142 0.438415 1.37386e-38 3
0.038846 0.199428 0.432202 1.21713e-38 3
0.0443166 0.192559 0.417315 1.44754e-38 3
0.0497294 0.187301 0.40592 0 3
0.0560964 0.186451 0.404077 0 3
0.0626835 0.186433 0.40404 1.47495e-38 3
0.0692885 0.186468 0.404115 1.24446e-38 3
0.0767325 0.188558 0.408645 1.25393e-38 3
0.0431828 0.194267 0.406638 0 3
0.0816642 0.191163 0.400141 1.27237e-38 3
0.0889659 0.192839 0.403649 1.20776e-38 3
0.0961449 0.194036 0.406155 0 3
0.0425803 0.198098 0.400964 1.26315e-38 3
0.00654075 0.33787 0.787958 1.25404e-38 3
0.0837196 0.338042 0.788359 1.1801e-38 3
0.00650927 0.349038 0.784166 1.20783e-38 3
0.083461 0.34982 0.785923 1.33691e-38 3
-0.0552836 0.193948 0.452313 1.44733e-38 3
-0.0478436 0.193704 0.451744 1.32758e-38 3
-0.0404023 0.193365 0.450954 1.44747e-38 3
-0.0329541 0.192835 0.449718 1.5213e-38 3
-0.0255684 0.192472 0.44887 1.5213e-38 3
-0.0181798 0.191786 0.447271 1.46598e-38 3
-0.0108728 0.191619 0.446881 1.36457e-38 3
-0.00357818 0.191434 0.446449 0 3
-0.0475646 0.199902 0.44911 1.39215e-38 3
-0.0401026 0.199234 0.447609 1.39215e-38 3
-0.0326705 0.19845 0.445847 1.35535e-38 3
-0.0252918 0.197634 0.444014 1.35535e-38 3
-0.0179074 0.196101 0.44057 1.32769e-38 3
-0.0106606 0.195027 0.438158 1.40145e-38 3
-0.00351255 0.195073 0.43826 1.24471e-38 3
-0.0744903 0.230553 0.537681 1.63154e-38 3
-0.0735788 0.253728 0.531102 1.18936e-38 3
-0.0384465 0.250655 0.52467 1.29074e-38 3
-0.346631 0.200255 0.467021 0 3
-0.329061 0.221705 0.498094 0 3
-0.317711 0.219479 0.493092 0 3
-0.309596 0.219429 0.49298 0 3
-0.301553 0.219429 0.49298 0 3
-0.336297 0.209069 0.453097 0 3
-0.328862 0.209042 0.453038 0 3
-0.320742 0.208569 0.452012 0 3
-0.313163 0.208433 0.451717 0 3
-0.317168 0.216186 0.468521 0 3
-0.315202 0.220152 0.477115 0 3
-0.306189 0.219272 0.475209 0 3
-0.328449 0.216162 0.45247 0 3
-0.32015 0.215545 0.451177 0 3
-0.310984 0.214301 0.448574 0 3
-0.308051 0.217396 0.455053 0 3
-0.313177 0.226472 0.47405 0 3
-0.306189 0.227026 0.475209 0 3
-0.334303 0.257585 0.460534 0 3
-0.336197 0.255131 0.443219 0 3
-0.332475 0.259458 0.438312 0 3
-0.330047 0.264662 0.435111 0 3
0.399201 0.212428 0.515007 0 3
0.38114 0.220106 0.513316 0 3
0.38114 0.228481 0.513316 0 3
-0.118046 0.205941 0.499279 1.28152e-38 3
-0.108276 0.202897 0.491899 0 3
-0.198956 0.213495 0.497899 0 3
-0.184663 0.206594 0.481804 0 3
-0.173315 0.202519 0.4723 0 3
-0.164976 0.201744 0.470494 0 3
-0.15693 0.20127 0.469389 0 3
-0.150208 0.202533 0.472335 0 3
-0.133368 0.21254 0.495672 0 3
-0.120236 0.203982 0.475712 0 3
-0.113146 0.205199 0.478552 0 3
-0.195608 0.201439 0.452563 0 3
-0.189944 0.20328 0.456699 0 3
-0.18476 0.205806 0.462373 0 3
-0.15791 0.200451 0.450344 0 3
-0.130084 0.202892 0.455826 0 3
-0.123114 0.203664 0.457561 1.21698e-38 3
-0.118099 0.20798 0.467257 0 3
-0.109915 0.206925 0.464889 0 3
-0.100671 0.20357 0.457351 0 3
-0.194745 0.207903 0.450568 0 3
-0.187326 0.207827 0.450404 0 3
-0.178416 0.206024 0.446497 0 3
-0.16914 0.203627 0.441301 0 3
-0.162696 0.204578 0.443362 0 3
-0.155439 0.204548 0.443297 0 3
-0.145802 0.201228 0.436104 0 3
-0.138352 0.200743 0.435052 0 3
-0.134901 0.206321 0.447141 0 3
-0.130084 0.210329 0.455826 1.18003e-38 3
-0.199374 0.212354 0.444497 0 3
-0.19327 0.213624 0.447156 0 3
-0.185692 0.213299 0.446475 0 3
-0.177091 0.211725 0.44318 0 3
-0.167286 0.208517 0.436466 0 3
-0.160607 0.209092 0.43767 0 3
-0.154822 0.210939 0.441536 1.18025e-38 3
-0.144634 0.206675 0.432612 0 3
-0.136644 0.205276 0.429683 0 3
-0.129952 0.20578 0.430738 1.21698e-38 3
-0.123592 0.206897 0.433076 0 3
-0.116811 0.207404 0.434138 1.18014e-38 3
-0.109759 0.207462 0.434259 0 3
-0.102684 0.207483 0.434302 0 3
-0.197251 0.217268 0.439766 0 3
-0.191149 0.218495 0.442249 0 3
-0.183317 0.217762 0.440766 0 3
-0.175013 0.216387 0.437982 0 3
-0.167001 0.21527 0.435722 0 3
-0.159895 0.215275 0.435731 0 3
-0.154093 0.217116 0.439458 0 3
-0.145505 0.21502 0.435215 0 3
-0.136672 0.212329 0.429769 0 3
-0.129872 0.212677 0.430473 1.19854e-38 3
-0.123361 0.213564 0.432269 0 3
-0.116779 0.214428 0.434017 0 3
-0.109759 0.214548 0.434259 1.22635e-38 3
-0.102674 0.214548 0.434259 1.19869e-38 3
-0.192275 0.218781 0.428671 0 3
-0.187467 0.221362 0.433728 1.24471e-38 3
-0.1797 0.220515 0.432068 1.3185e-38 3
-0.171223 0.218691 0.428495 0 3
-0.164808 0.219459 0.429999 0 3
-0.123059 0.220077 0.43121 1.18932e-38 3
-0.116457 0.220898 0.432819 0 3
-0.109445 0.220999 0.433017 1.1894e-38 3
-0.102158 0.22052 0.432079 1.25386e-38 3
-0.184991 0.217222 0.412433 0 3
-0.180397 0.219824 0.417372 0 3
-0.174419 0.220877 0.419371 1.18021e-38 3
-0.169167 0.222973 0.423351 0 3
-0.163787 0.225072 0.427336 0 3
-0.156934 0.225243 0.427661 0 3
-0.146414 0.219921 0.417557 0 3
-0.137677 0.21689 0.411802 0 3
-0.137185 0.227203 0.431382 0 3
-0.134271 0.234404 0.445054 0 3
-0.12715 0.234663 0.445546 0 3
-0.12056 0.235993 0.448071 0 3
-0.112312 0.234038 0.444359 1.29074e-38 3
-0.108549 0.268239 0.429471 1.2907e-38 3
-0.143472 0.262234 0.409168 1.1894e-38 3
-0.140717 0.263745 0.40131 0 3
0.350393 0.171846 0.43378 0 3
0.341038 0.177737 0.430902 0 3
0.348176 0.177791 0.431034 0 3
0.35496 0.177667 0.430733 0 3
0.362765 0.178049 0.431658 0 3
0.374464 0.18029 0.437093 0 3
0.395805 0.187004 0.453369 0 3
0.324317 0.183264 0.427396 0 3
0.331107 0.183163 0.427159 0 3
0.338697 0.183499 0.427944 0 3
0.347602 0.18452 0.430324 0 3
0.354951 0.18469 0.430723 0 3
0.362765 0.185091 0.431658 0 3
0.371868 0.186123 0.434063 0 3
0.390936 0.192009 0.447792 0 3
0.323926 0.190008 0.42688 0 3
0.329494 0.189206 0.425078 0 3
0.336447 0.189216 0.425101 0 3
0.344291 0.189716 0.426225 0 3
0.353328 0.190841 0.428753 0 3
0.362424 0.191954 0.431252 0 3
0.352843 0.197565 0.428165 0 3
0.7196 0.338385 0.89085 0 3
0.727528 0.316538 0.833336 0 3
0.789858 0.309008 0.813512 0 3
0.792049 0.38927 0.874553 0 3
0.199501 0.189507 0.498907 1.33687e-38 3
0.19896 0.197111 0.497553 1.34609e-38 3
0.128151 0.199677 0.448604 1.20769e-38 3
0.133911 0.197379 0.44344 0 3
0.138414 0.193558 0.434857 0 3
0.144032 0.191593 0.430441 0 3
0.149647 0.189807 0.42643 0 3
0.154932 0.187781 0.421877 1.36439e-38 3
0.162756 0.188872 0.42433 0 3
0.170726 0.190037 0.426947 1.18007e-38 3
0.178234 0.190617 0.428249 0 3
0.186746 0.192186 0.431775 0 3
0.195343 0.193726 0.435234 0 3
0.114756 0.196587 0.426045 1.30907e-38 3
0.118312 0.191104 0.414162 1.28145e-38 3
0.124594 0.190376 0.412585 1.24457e-38 3
0.132034 0.191404 0.414812 1.3552e-38 3
0.140069 0.193151 0.418598 1.4013e-38 3
0.146817 0.193044 0.418366 1.38286e-38 3
0.154388 0.193981 0.420396 1.37364e-38 3
0.163228 0.196363 0.425559 1.40134e-38 3
0.171354 0.197728 0.428518 1.45666e-38 3
0.178306 0.197684 0.428421 1.40119e-38 3
0.186076 0.198516 0.430226 1.44729e-38 3
0.193929 0.199373 0.432082 0 3
0.103088 0.194632 0.407403 1.21691e-38 3
0.109999 0.195101 0.408385 1.27212e-38 3
0.11736 0.196269 0.410828 1.21691e-38 3
0.124594 0.197109 0.412587 1.25379e-38 3
0.13173 0.197715 0.413856 1.32755e-38 3
0.138794 0.198161 0.414789 1.3184e-38 3
0.146005 0.198765 0.416053 1.5396e-38 3
0.153169 0.199254 0.417077 1.45651e-38 3
0.101318 0.197825 0.400411 1.18925e-38 3
0.108616 0.199228 0.403251 1.27212e-38 3
0.193758 0.198829 0.402443 1.23557e-38 3
0.199281 0.197793 0.400347 1.30921e-38 3
0.25482 0.338829 0.892019 1.25372e-38 3
0.253166 0.351089 0.886229 1.3552e-38 3
0.297133 0.366274 0.887987 0 3
-0.432281 0.226201 0.595508 0 3
-0.419491 0.224555 0.591176 0 3
-0.410476 0.2249 0.592085 0 3
-0.435569 0.232486 0.586847 0 3
-0.42047 0.229471 0.579236 0 3
-0.402011 0.224442 0.566542 0 3
-0.406447 0.225876 0.547611 0 3
-0.423562 0.239435 0.558395 0 3
-0.410251 0.240735 0.540847 0 3
-0.410767 0.263728 0.592504 0 3
-0.407885 0.24812 0.537728 0 3
0.458859 0.180925 0.49769 0 3
0.46431 0.162896 0.448095 0 3
0.470048 0.162352 0.446601 0 3
0.461859 0.157089 0.432122 0 3
0.433551 0.175513 0.462064 0 3
0.441545 0.175694 0.46254 0 3
0.459118 0.168303 0.443084 0 3
0.461615 0.166596 0.438588 0 3
0.461607 0.164049 0.431885 0 3
0.465191 0.162838 0.428695 0 3
0.471494 0.162599 0.428067 0 3
0.477596 0.162299 0.427277 0 3
0.494162 0.165513 0.435738 0 3
0.415249 0.184973 0.466915 0 3
0.416958 0.182389 0.460391 0 3
0.424563 0.182429 0.460492 0 3
0.431018 0.181982 0.459364 0 3
0.435106 0.180568 0.455795 0 3
0.440505 0.179737 0.453697 0 3
0.44645 0.179152 0.45222 0 3
0.450565 0.177864 0.448969 0 3
0.451182 0.175258 0.442391 0 3
0.470493 0.169223 0.427158 0 3
0.476344 0.168827 0.426158 0 3
0.485498 0.169596 0.428098 0 3
0.482139 0.166034 0.419107 0 3
0.473568 0.160802 0.4059 0 3
0.406178 0.188384 0.456715 0 3
0.412749 0.187983 0.455743 0 3
0.420119 0.187954 0.455672 0 3
0.426854 0.187646 0.454927 0 3
0.43346 0.187293 0.454071 0 3
0.43863 0.186343 0.451766 0 3
0.442167 0.184741 0.447882 0 3
0.44627 0.183424 0.444689 0 3
0.448085 0.181223 0.439354 0 3
0.45245 0.180107 0.436649 0 3
0.456766 0.179007 0.433981 0 3
0.461754 0.178199 0.432023 0 3
0.464865 0.176702 0.428394 0 3
0.463425 0.173546 0.420741 0 3
0.466935 0.172308 0.41774 0 3
0.469409 0.170729 0.413911 0 3
0.468607 0.16802 0.407344 0 3
0.470691 0.166407 0.403434 0 3
0.477124 0.166355 0.403308 0 3
0.48617 0.167203 0.405363 0 3
0.489653 0.166141 0.402789 0 3
0.401857 0.193753 0.451857 0 3
0.407036 0.192714 0.449435 0 3
0.416982 0.19393 0.45227 0 3
0.425532 0.194465 0.453517 0 3
0.431737 0.193928 0.452266 0 3
0.436934 0.192964 0.450018 0 3
0.43881 0.19059 0.444482 0 3
0.458354 0.183884 0.428842 0 3
0.464666 0.183613 0.428211 0 3
0.456188 0.177593 0.414171 0 3
0.448373 0.307308 0.845346 1.25375e-38 3
0.465885 0.314305 0.827455 0 3
0.473635 0.323873 0.81753 0 3
0.489607 0.356103 0.800038 0 3
0.4896 0.369151 0.800027 0 3
0.223686 0.181177 0.498383 1.1801e-38 3
0.207171 0.189079 0.497778 0 3
0.214839 0.18868 0.496729 0 3
0.222825 0.18858 0.496464 0 3
0.23144 0.189 0.497572 1.28156e-38 3
0.239896 0.189267 0.498273 0 3
0.247744 0.189052 0.497708 0 3
0.254524 0.188061 0.495099 1.23521e-38 3
0.260119 0.186284 0.49042 1.21688e-38 3
0.265685 0.184591 0.485963 1.31836e-38 3
0.205548 0.195655 0.493877 0 3
0.212527 0.194667 0.491384 1.26308e-38 3
0.219338 0.193602 0.488695 1.20783e-38 3
0.227161 0.193474 0.488372 0 3
0.234644 0.193075 0.487365 1.26312e-38 3
0.241074 0.191864 0.484307 0 3
0.248232 0.191291 0.482862 0 3
0.254174 0.189845 0.479211 0 3
0.260494 0.188759 0.47647 0 3
0.267553 0.188255 0.475199 0 3
0.209408 0.199709 0.484172 1.41052e-38 3
0.21525 0.197818 0.479587 1.23542e-38 3
0.222585 0.197384 0.478534 1.27234e-38 3
0.229757 0.19684 0.477215 0 3
0.235601 0.19523 0.473312 0 3
0.241151 0.193487 0.469086 0 3
0.245566 0.190968 0.46298 0 3
0.251991 0.190117 0.460917 0 3
0.258919 0.189684 0.459865 0 3
0.266371 0.189647 0.459777 0 3
0.27445 0.190047 0.460746 0 3
0.281917 0.190013 0.460664 0 3
0.216562 0.199639 0.465586 0 3
0.231719 0.199608 0.465513 0 3
0.237724 0.198282 0.46242 0 3
0.243993 0.197251 0.460015 0 3
0.251152 0.196979 0.459381 0 3
0.25771 0.196266 0.457718 0 3
0.264797 0.195984 0.45706 0 3
0.272247 0.195979 0.457048 0 3
0.279734 0.195999 0.457096 0 3
0.205596 0.196742 0.442009 1.2539e-38 3
0.200883 0.199278 0.431877 0 3
0.207797 0.199151 0.431602 1.18947e-38 3
0.214794 0.19911 0.431512 0 3
0.251465 0.21136 0.581411 1.21702e-38 3
0.223666 0.221499 0.58313 1.22627e-38 3
0.223873 0.231227 0.583671 1.18025e-38 3
0.239065 0.236931 0.57441 1.29074e-38 3
0.251328 0.240111 0.55997 0 3
0.156145 0.210741 0.579707 1.20769e-38 3
0.170714 0.217244 0.597597 1.24457e-38 3
0.100604 0.203512 0.535775 1.28159e-38 3
0.108719 0.202345 0.532703 1.46591e-38 3
0.116227 0.200305 0.527334 1.21695e-38 3
0.135195 0.202949 0.534294 1.33676e-38 3
0.148133 0.2089 0.54996 1.23535e-38 3
0.107756 0.209167 0.527985 1.31836e-38 3
0.115102 0.206887 0.52223 0 3
0.123368 0.206461 0.521154 1.19847e-38 3
0.133513 0.209032 0.527645 1.28145e-38 3
0.145562 0.214091 0.540416 1.25386e-38 3
0.106928 0.216108 0.523929 1.26308e-38 3
0.114951 0.215126 0.521547 1.24464e-38 3
0.123368 0.214964 0.521154 1.23542e-38 3
0.133428 0.217503 0.527311 1.2262e-38 3
0.144617 0.221462 0.536908 1.24464e-38 3
0.155941 0.225164 0.545882 0 3
0.165643 0.226251 0.548519 0 3
0.174477 0.226101 0.548155 1.18932e-38 3
0.105105 0.220827 0.514998 1.39223e-38 3
0.112437 0.218744 0.51014 0 3
0.119567 0.216582 0.505098 1.26312e-38 3
0.127155 0.215475 0.502518 0 3
0.135338 0.215451 0.50246 1.19854e-38 3
0.143637 0.215603 0.502814 1.20769e-38 3
0.153277 0.217641 0.507568 0 3
0.196298 0.219446 0.511777 0 3
0.105092 0.229202 0.514935 0 3
0.112437 0.227067 0.51014 1.30918e-38 3
0.119383 0.224477 0.504322 1.24464e-38 3
0.0768989 0.201367 0.553923 1.22627e-38 3
0.0853759 0.200054 0.550309 1.21705e-38 3
0.0770011 0.210684 0.554659 1.27237e-38 3
0.0851643 0.208514 0.548945 1.27237e-38 3
0.0926502 0.205256 0.540369 1.19861e-38 3
0.0913157 0.210989 0.532586 0 3
0.0994604 0.20984 0.529684 1.26315e-38 3
0.0912938 0.219626 0.532458 0 3
0.099036 0.21755 0.527424 1.28159e-38 3
0.0389663 0.22713 0.529697 0 3
0.0982346 0.224325 0.523156 0 3
0.0385511 0.23326 0.524052 1.4384e-38 3
0.0908101 0.235745 0.529637 1.18003e-38 3
0.0977163 0.231632 0.520396 0 3
0.0381435 0.239253 0.518511 0 3
0.0785377 0.233048 0.641069 1.21698e-38 3
0.0785463 0.243534 0.64114 1.24471e-38 3
0.0967786 0.247128 0.623807 0 3
0.0966409 0.25694 0.62292 1.25386e-38 3
0.096698 0.27743 0.623288 1.37354e-38 3
-0.197144 0.325586 0.895626 0 3
-0.1753 0.326723 0.860148 0 3
-0.171684 0.333727 0.842404 0 3
-0.17037 0.344812 0.835955 0 3
-0.122331 0.364216 0.882998 1.59466e-38 3
-0.181179 0.352938 0.823098 0 3
-0.29519 0.215706 0.593365 0 3
-0.287143 0.21694 0.596761 0 3
-0.294873 0.217995 0.573906 0 3
-0.28249 0.21569 0.567837 0 3
-0.270823 0.213793 0.562844 0 3
-0.258097 0.210898 0.555222 0 3
-0.25149 0.212975 0.560688 0 3
-0.26594 0.218957 0.552696 0 3
-0.253665 0.21618 0.545689 0 3
-0.24216 0.213883 0.539889 0 3
-0.232135 0.212768 0.537074 0 3
-0.299669 0.226207 0.548412 0 3
-0.28967 0.225388 0.546428 0 3
-0.280439 0.225135 0.545814 0 3
-0.271868 0.225413 0.546486 0 3
-0.260736 0.223513 0.541881 0 3
-0.249074 0.22101 0.535812 0 3
-0.236328 0.217328 0.526886 0 3
-0.225902 0.215582 0.522652 0 3
-0.217549 0.215755 0.523073 0 3
-0.212243 0.219088 0.531152 0 3
-0.205722 0.221396 0.536749 0 3
-0.293805 0.230553 0.537679 0 3
-0.284606 0.230208 0.536875 0 3
-0.275582 0.229987 0.53636 0 3
-0.262628 0.226365 0.527913 0 3
-0.24854 0.221486 0.516534 0 3
-0.238192 0.219714 0.512402 0 3
-0.229845 0.219727 0.512433 0 3
-0.222101 0.220339 0.51386 0 3
-0.211067 0.217606 0.507487 0 3
-0.293922 0.225929 0.507583 0 3
-0.295303 0.233571 0.524753 0 3
-0.280805 0.228736 0.513889 0 3
-0.268328 0.2253 0.506169 0 3
-0.284086 0.232936 0.504821 0 3
-0.27411 0.231467 0.501636 0 3
-0.28359 0.240751 0.503939 0 3
-0.275748 0.25699 0.520165 0 3
-0.238318 0.261654 0.512674 0 3
-0.313778 0.215175 0.591905 0 3
-0.30333 0.214615 0.590366 0 3
-0.34034 0.211341 0.556389 0 3
-0.332166 0.211919 0.557908 0 3
-0.325232 0.213341 0.561652 0 3
-0.318989 0.215313 0.566843 0 3
-0.315201 0.219108 0.576835 0 3
-0.308589 0.221114 0.582117 0 3
-0.388154 0.221805 0.559886 0 3
-0.377403 0.22086 0.5575 0 3
-0.367329 0.220273 0.556019 0 3
-0.358908 0.220673 0.55703 0 3
-0.349604 0.220537 0.556686 0 3
-0.340329 0.220412 0.556371 0 3
-0.331775 0.220761 0.557251 0 3
-0.322024 0.22031 0.556113 0 3
-0.395181 0.224552 0.544399 0 3
-0.386251 0.224524 0.544332 0 3
-0.37737 0.224524 0.544332 0 3
-0.368489 0.224524 0.544332 0 3
-0.35993 0.224725 0.544819 0 3
-0.355925 0.227852 0.5524 0 3
-0.34954 0.229578 0.556584 0 3
-0.340285 0.229461 0.5563 0 3
-0.331288 0.229516 0.556433 0 3
-0.321115 0.228736 0.554543 0 3
-0.30978 0.227059 0.550478 0 3
-0.371384 0.219377 0.511616 0 3
-0.379481 0.229314 0.534791 0 3
-0.367261 0.227152 0.52975 0 3
-0.35853 0.227097 0.52962 0 3
-0.349889 0.227097 0.52962 0 3
-0.344604 0.229331 0.53483 0 3
-0.341063 0.232871 0.543086 0 3
-0.323757 0.226951 0.52928 0 3
-0.322518 0.232278 0.541703 0 3
-0.319567 0.236637 0.551869 0 3
-0.306887 0.233836 0.545337 0 3
-0.342917 0.225472 0.506557 0 3
-0.397895 0.25611 0.536088 0 3
1.06708 0.30074 0.866152 0 3
1.04221 0.311662 0.857324 0 3
1.01157 0.324794 0.855069 0 3
0.527705 0.206024 0.593363 0 3
0.510019 0.210123 0.55318 0 3
0.539533 0.200946 0.52902 0 3
0.55814 0.203766 0.514351 0 3
0.542473 0.221005 0.515413 0 3
0.414327 0.207423 0.597393 0 3
0.416423 0.213252 0.586615 0 3
0.499853 0.212102 0.583453 0 3
0.493569 0.218835 0.576118 0 3
0.409504 0.204977 0.517409 0 3
0.486391 0.220713 0.557129 0 3
0.409516 0.233929 0.506973 0 3
0.56724 0.305538 0.879972 0 3
0.506182 0.332309 0.805643 0 3
0.505175 0.344766 0.80404 0 3
0.521744 0.386679 0.809394 0 3
-0.141618 0.207973 0.598977 0 3
-0.14713 0.211617 0.582117 0 3
-0.133025 0.204533 0.562632 0 3
-0.171112 0.227752 0.599593 0 3
-0.157903 0.222916 0.586859 0 3
-0.142869 0.214711 0.565261 0 3
-0.128635 0.20666 0.544064 0 3
-0.198062 0.223773 0.564854 0 3
-0.192807 0.228466 0.576701 0 3
-0.186803 0.232708 0.587408 0 3
-0.177699 0.233338 0.588999 0 3
-0.16644 0.23105 0.583222 0 3
-0.152 0.223799 0.564921 0 3
-0.136385 0.213771 0.539606 0 3
-0.121918 0.204282 0.515654 0 3
-0.197011 0.221448 0.536875 0 3
-0.188346 0.221559 0.537143 0 3
-0.181374 0.223769 0.542502 0 3
-0.179244 0.232488 0.56364 0 3
-0.174525 0.238609 0.578478 0 3
-0.164551 0.237834 0.576601 0 3
-0.14844 0.227559 0.551689 0 3
-0.131406 0.214449 0.519906 0 3
-0.156289 0.222129 0.518035 0 3
-0.152356 0.228919 0.533869 0 3
-0.118443 0.248285 0.538086 0 3
-0.155376 0.262844 0.515007 0 3
-0.370619 0.235499 0.678254 0 3
-0.336108 0.220143 0.634027 0 3
-0.322258 0.217774 0.627206 0 3
-0.313968 0.219131 0.631112 0 3
-0.334564 0.241423 0.695316 0 3
-0.359262 0.23208 0.638408 0 3
-0.331371 0.220454 0.606427 0 3
-0.300832 0.23526 0.647155 0 3
-0.319708 0.254593 0.64265 0 3
-0.509912 0.228494 0.658078 0 3
-0.503826 0.241891 0.636814 0 3
-0.524807 0.274091 0.691869 0 3
0.505946 0.225475 0.681404 0 3
0.539706 0.200808 0.606857 0 3
0.511124 0.233875 0.673577 0 3
0.333268 0.314245 0.949672 1.18932e-38 3
0.332851 0.329327 0.948484 1.29996e-38 3
0.314214 0.341367 0.939035 1.19858e-38 3
0.354693 0.336169 0.924736 1.33691e-38 3
0.325004 0.384783 0.97128 1.29999e-38 3
0.608865 0.164169 0.521864 0 3
0.617869 0.164299 0.522278 0 3
0.603591 0.171188 0.517343 0 3
0.605551 0.169375 0.511866 0 3
0.608597 0.167911 0.507442 0 3
0.621821 0.169257 0.511509 0 3
0.601504 0.179008 0.515555 0 3
0.604141 0.177313 0.510674 0 3
0.608561 0.17618 0.507412 0 3
0.621821 0.177603 0.511509 0 3
0.606557 0.186387 0.512716 0 3
0.616249 0.186789 0.513822 0 3
0.477918 0.166005 0.5277 0 3
0.488131 0.166552 0.52944 0 3
0.496939 0.166609 0.52962 0 3
0.476474 0.174087 0.526106 0 3
0.486488 0.174601 0.527658 0 3
0.495266 0.17466 0.527837 0 3
0.463677 0.177765 0.511976 0 3
0.439176 0.182873 0.503048 0 3
0.450615 0.184194 0.506682 0 3
0.458083 0.183873 0.505799 0 3
0.318822 0.208318 0.662205 1.34602e-38 3
0.32648 0.217031 0.655884 1.22617e-38 3
0.397197 0.209188 0.632182 0 3
0.391316 0.216252 0.622821 0 3
0.23807 0.213413 0.678399 0 3
0.220497 0.229225 0.692737 0 3
0.204289 0.20202 0.610521 1.19862e-38 3
0.207113 0.238135 0.685845 0 3
0.202908 0.210548 0.606394 1.21702e-38 3
0.0831733 0.355677 1.13063 0 3
0.0647305 0.374148 1.13071 0 3
0.0466017 0.395306 1.13851 0 3
-0.188092 0.207338 0.65909 0 3
-0.178242 0.208395 0.66245 0 3
-0.170673 0.212427 0.675267 0 3
-0.193943 0.212715 0.642843 0 3
-0.180412 0.209187 0.632179 0 3
-0.169267 0.208165 0.629091 0 3
-0.158841 0.207954 0.628452 0 3
-0.188859 0.217352 0.625989 0 3
-0.175894 0.214004 0.616347 0 3
-0.164656 0.212479 0.611954 0 3
-0.152649 0.209701 0.603955 0 3
-0.194688 0.222554 0.612202 0 3
-0.183891 0.22158 0.609523 0 3
-0.173322 0.220784 0.607334 0 3
-0.161739 0.218523 0.601115 0 3
-0.192572 0.230015 0.605549 0 3
-0.18241 0.229659 0.604614 0 3
-0.217652 0.215305 0.684414 0 3
-0.201502 0.210109 0.667898 0 3
-0.226545 0.224221 0.677614 0 3
-0.210647 0.219183 0.662388 0 3
-0.240826 0.238471 0.686813 0 3
-0.220806 0.229316 0.660447 0 3
-0.204301 0.223061 0.642432 0 3
-0.222456 0.230631 0.634421 0 3
-0.204886 0.222782 0.61283 0 3
-0.238916 0.258813 0.681364 0 3
-0.201025 0.228393 0.60128 0 3
-0.240465 0.2596 0.65529 0 3
-0.494852 0.214452 0.681705 0 3
-0.485232 0.215118 0.683822 0 3
-0.480847 0.218191 0.69359 0 3
-0.493496 0.220012 0.664892 0 3
-0.489824 0.223283 0.674778 0 3
-0.485123 0.226225 0.683669 0 3
-0.480847 0.229508 0.69359 0 3
-0.494701 0.226446 0.65218 0 3
-0.466099 0.218043 0.627981 0 3
-0.478147 0.228707 0.658693 0 3
-0.48847 0.239017 0.688386 0 3
-0.485178 0.242993 0.699837 0 3
-0.497791 0.233544 0.642435 0 3
-0.477792 0.228983 0.629888 0 3
-0.455541 0.223118 0.613755 0 3
-0.446753 0.223732 0.615444 0 3
-0.441086 0.225973 0.621609 0 3
-0.450335 0.236141 0.649579 0 3
-0.496415 0.243351 0.64066 0 3
-0.480944 0.240838 0.634043 0 3
-0.448334 0.229444 0.604045 0 3
-0.402359 0.243362 0.640689 0 3
-0.491397 0.267212 0.647824 0 3
0.501344 0.159368 0.534315 0 3
0.511131 0.159702 0.535435 0 3
0.560035 0.156285 0.523976 0 3
0.56666 0.155756 0.522203 0 3
0.574201 0.155491 0.521314 0 3
0.586737 0.156566 0.52492 0 3
0.595198 0.156539 0.524829 0 3
0.505961 0.166735 0.53002 0 3
0.516636 0.167392 0.532108 0 3
0.53038 0.169005 0.537235 0 3
0.542114 0.169935 0.540193 0 3
0.550211 0.169714 0.53949 0 3
0.553813 0.168136 0.534472 0 3
0.554624 0.165771 0.526957 0 3
0.560035 0.164834 0.523976 0 3
0.56666 0.164276 0.522203 0 3
0.57413 0.163976 0.52125 0 3
0.585985 0.164919 0.524247 0 3
0.59406 0.164786 0.523825 0 3
0.599557 0.163952 0.521174 0 3
0.504318 0.174813 0.528298 0 3
0.515611 0.175724 0.531051 0 3
0.529762 0.177563 0.536609 0 3
0.540986 0.178377 0.53907 0 3
0.546781 0.177403 0.536127 0 3
0.552484 0.176431 0.533189 0 3
0.55882 0.175688 0.530944 0 3
0.561731 0.173908 0.525562 0 3
0.567113 0.172934 0.522621 0 3
0.575711 0.172955 0.522685 0 3
0.585508 0.173331 0.52382 0 3
0.59094 0.172422 0.521074 0 3
0.595615 0.171322 0.517747 0 3
0.57607 0.181597 0.523011 0 3
0.586091 0.182059 0.524342 0 3
0.590958 0.180929 0.52109 0 3
0.595179 0.179637 0.517368 0 3
0.539533 0.192314 0.52902 0 3
0.595241 0.188098 0.517423 0 3
0.599493 0.186793 0.513831 0 3
0.598859 0.19497 0.513288 0 3
0.300743 0.174488 0.585005 0 3
0.366102 0.170653 0.515728 0 3
0.381692 0.173923 0.525609 0 3
0.359673 0.175923 0.506672 0 3
0.363334 0.173721 0.500329 0 3
0.376607 0.176111 0.507211 0 3
0.128673 0.18805 0.630478 0 3
0.104469 0.191676 0.609303 0 3
0.114975 0.192622 0.612311 0 3
0.12734 0.196282 0.623946 1.29074e-38 3
0.194447 0.192177 0.610894 0 3
0.130521 0.207325 0.695099 0 3
0.151124 0.204512 0.685669 0 3
0.165084 0.208005 0.697379 0 3
0.10651 0.215972 0.686535 0 3
0.148822 0.212413 0.675223 0 3
0.165011 0.219286 0.697071 0 3
0.196855 0.205069 0.651875 1.25379e-38 3
0.101908 0.228074 0.656869 1.33691e-38 3
0.192363 0.209838 0.604349 1.21698e-38 3
0.161328 0.231776 0.637572 1.21695e-38 3
0.181307 0.218259 0.60039 0 3
0.191183 0.218351 0.600642 0 3
0.105786 0.264556 0.61698 1.30918e-38 3
-0.237986 0.23528 0.788825 0 3
-0.205224 0.214491 0.719125 0 3
-0.200292 0.22203 0.7444 0 3
-0.248617 0.233934 0.743633 0 3
-0.257219 0.242735 0.733564 0 3
-0.277302 0.262381 0.755675 0 3
-0.538937 0.237455 0.796118 0 3
-0.566843 0.240251 0.763714 0 3
-0.566275 0.247028 0.746538 0 3
-0.580865 0.254921 0.734189 0 3
-0.570068 0.261938 0.720542 0 3
-0.579213 0.272466 0.717308 0 3
1.01279 0.248226 0.880386 0 3
1.03011 0.270193 0.858894 0 3
1.06708 0.286608 0.866152 0 3
0.478277 0.262312 0.930344 0 3
0.495256 0.278503 0.933738 0 3
0.491548 0.291538 0.926746 0 3
0.2895 0.163981 0.581594 0 3
0.28836 0.172787 0.579304 0 3
0.286352 0.18097 0.57527 1.24461e-38 3
0.298515 0.182669 0.580671 0 3
0.294896 0.189814 0.573632 1.22617e-38 3
0.233178 0.182241 0.501309 1.23539e-38 3
0.244151 0.18435 0.507111 1.20773e-38 3
0.252739 0.184579 0.507742 1.27223e-38 3
0.258568 0.182843 0.502966 1.22602e-38 3
0.266869 0.224868 0.797544 0 3
0.276696 0.222309 0.788466 0 3
0.293462 0.225304 0.799089 0 3
0.239135 0.236193 0.791884 0 3
0.229996 0.215521 0.722579 0 3
0.239832 0.213781 0.716743 0 3
0.254676 0.216458 0.725719 0 3
0.214044 0.23571 0.749279 0 3
0.147621 0.221661 0.786168 0 3
0.184299 0.217244 0.728353 0 3
0.18426 0.229079 0.728199 0 3
0.14514 0.238673 0.846506 0 3
0.164106 0.226715 0.804093 0 3
0.188244 0.24081 0.854086 0 3
0.00659361 0.223961 0.794326 0 3
0.00657999 0.236432 0.792686 0 3
0.0457929 0.251637 0.799907 0 3
-0.0585013 0.225097 0.798355 0 3
-0.0452104 0.223784 0.793698 0 3
-0.0580337 0.236219 0.791973 0 3
-0.045108 0.236197 0.7919 0 3
-0.0323165 0.237144 0.795072 0 3
-0.0194239 0.238118 0.79834 0 3
-0.00636189 0.236756 0.793772 0 3
-0.0580337 0.249141 0.791973 0 3
-0.045108 0.249118 0.7919 0 3
-0.0323165 0.250116 0.795072 0 3
-0.0194495 0.251474 0.799388 0 3
-0.00641048 0.251614 0.799834 0 3
-0.0316336 0.257528 0.778269 0 3
-0.0193086 0.262601 0.793601 0 3
-0.0193047 0.275493 0.79344 1.28145e-38 3
-0.00640935 0.277664 0.799693 1.2629e-38 3
-0.00641048 0.290763 0.799834 0 3
-0.209702 0.23393 0.829681 0 3
-0.292591 0.248886 0.834441 0 3
-0.279089 0.248986 0.834777 0 3
-0.261188 0.24497 0.821313 0 3
-0.287865 0.258261 0.820963 0 3
-0.295638 0.266585 0.805642 0 3
-0.295076 0.292318 0.804111 0 3
-0.369783 0.232446 0.82442 0 3
-0.365894 0.238683 0.846542 0 3
-0.354046 0.240015 0.851265 0 3
-0.336102 0.237153 0.841116 0 3
-0.320168 0.235527 0.835348 0 3
-0.310595 0.238644 0.846402 0 3
-0.348287 0.240346 0.805807 0 3
-0.339892 0.243753 0.817232 0 3
-0.328247 0.245014 0.821459 0 3
-0.317512 0.24709 0.828419 0 3
-0.306436 0.249073 0.835069 0 3
-0.346103 0.251903 0.800754 0 3
-0.336215 0.254306 0.808393 0 3
-0.326393 0.256957 0.816818 0 3
-0.316658 0.259905 0.826192 0 3
-0.302923 0.259686 0.825495 0 3
-0.347245 0.265842 0.803395 0 3
-0.336309 0.26757 0.808619 0 3
-0.326982 0.270771 0.818292 0 3
-0.315273 0.272189 0.822576 0 3
-0.351861 0.282658 0.814076 0 3
-0.339799 0.283676 0.817008 0 3
-0.327674 0.284724 0.820026 0 3
-0.313677 0.284164 0.818412 0 3
0.61733 0.211556 0.796414 0 3
0.619743 0.203803 0.76723 0 3
0.600374 0.201423 0.714391 0 3
0.600531 0.236048 0.791401 0 3
0.609606 0.234572 0.78645 0 3
0.612101 0.230677 0.77339 0 3
0.603051 0.222675 0.746564 0 3
0.604646 0.214595 0.719475 0 3
0.613773 0.249095 0.791826 0 3
0.603117 0.27016 0.778079 0 3
0.574602 0.210186 0.791256 0 3
0.526241 0.209015 0.741316 0 3
0.561134 0.217866 0.77271 0 3
0.57965 0.22011 0.780668 0 3
0.594321 0.220829 0.783217 0 3
0.599429 0.218039 0.77332 0 3
0.591059 0.210562 0.746804 0 3
0.58832 0.205353 0.728329 0 3
0.591621 0.202417 0.717914 0 3
0.585532 0.23521 0.78859 0 3
0.597301 0.216186 0.724806 0 3
0.598954 0.261185 0.789322 0 3
0.427006 0.185346 0.697746 0 3
0.436619 0.184597 0.694926 0 3
0.446011 0.183795 0.691907 0 3
0.452361 0.18181 0.684434 0 3
0.461412 0.18098 0.68131 0 3
0.485409 0.185914 0.699883 0 3
0.427074 0.196761 0.697856 0 3
0.437771 0.196452 0.69676 0 3
0.447525 0.195746 0.694255 0 3
0.452565 0.193064 0.684743 0 3
0.461412 0.192096 0.68131 0 3
0.485409 0.197333 0.699883 0 3
0.417238 0.199065 0.601591 0 3
0.343974 0.183562 0.69103 0 3
0.328724 0.169857 0.639435 0 3
0.354333 0.177457 0.668047 0 3
0.32192 0.188524 0.66864 0 3
0.320075 0.19829 0.664808 1.22617e-38 3
-0.245223 0.257725 0.970222 0 3
-0.224448 0.252169 0.949306 0 3
-0.207898 0.250888 0.944484 0 3
-0.290687 0.271662 0.963507 0 3
-0.26758 0.264365 0.937626 0 3
-0.248338 0.260231 0.922965 0 3
-0.390733 0.208635 0.785419 0 3
-0.378665 0.209047 0.786969 0 3
-0.387955 0.219875 0.779833 0 3
-0.374166 0.219251 0.77762 0 3
-0.365852 0.221903 0.787027 0 3
-0.389877 0.233751 0.783697 0 3
-0.376032 0.233094 0.781497 0 3
-0.362976 0.232899 0.780841 0 3
-0.352594 0.234466 0.786096 0 3
-0.390682 0.247047 0.785316 0 3
-0.378296 0.247325 0.786202 0 3
-0.364402 0.246603 0.783907 0 3
-0.352635 0.247321 0.786188 0 3
-0.398675 0.248853 0.752053 0 3
-0.381451 0.245663 0.742412 0 3
-0.36816 0.244879 0.740043 0 3
-0.360173 0.24769 0.748537 0 3
-0.354743 0.252518 0.76313 0 3
-0.351164 0.259063 0.78291 0 3
-0.349808 0.261283 0.752513 0 3
-0.35172 0.272267 0.784149 0 3
-0.334005 0.270703 0.744653 0 3
-0.345401 0.290507 0.79913 0 3
-0.420292 0.210604 0.792832 0 3
-0.408082 0.210979 0.794242 0 3
-0.445417 0.223166 0.791506 0 3
-0.430043 0.221896 0.787002 0 3
-0.415487 0.220984 0.783767 0 3
-0.401533 0.220344 0.781497 0 3
-0.478119 0.215862 0.72372 0 3
-0.476653 0.220649 0.739771 0 3
-0.460133 0.218535 0.732685 0 3
-0.453038 0.220905 0.740629 0 3
-0.450507 0.225691 0.756674 0 3
-0.447028 0.230257 0.771985 0 3
-0.439322 0.232849 0.780675 0 3
-0.429371 0.23437 0.785774 0 3
-0.415561 0.233813 0.783907 0 3
-0.402736 0.233793 0.783838 0 3
-0.480439 0.223261 0.709705 0 3
-0.476734 0.22701 0.721624 0 3
-0.465738 0.22739 0.722831 0 3
-0.455819 0.228329 0.725815 0 3
-0.452731 0.232831 0.740127 0 3
-0.449689 0.237604 0.7553 0 3
-0.446833 0.242747 0.771649 0 3
-0.439402 0.245631 0.780816 0 3
-0.430663 0.247934 0.788138 0 3
-0.417166 0.247556 0.786934 0 3
-0.40294 0.246707 0.784236 0 3
-0.480024 0.234637 0.709091 0 3
-0.476086 0.238459 0.720643 0 3
-0.465719 0.239174 0.722802 0 3
-0.456218 0.240381 0.726451 0 3
-0.453354 0.245243 0.741145 0 3
-0.449127 0.249615 0.754356 0 3
-0.443304 0.253321 0.765555 0 3
-0.429914 0.252792 0.763957 0 3
-0.415589 0.251665 0.760552 0 3
-0.481442 0.246933 0.711186 0 3
-0.482716 0.253702 0.730679 0 3
-0.487717 0.262821 0.756942 0 3
-0.485667 0.268516 0.773344 0 3
-0.480263 0.27261 0.785137 0 3
-0.468153 0.273018 0.786312 0 3
-0.447841 0.268532 0.77339 0 3
-0.418576 0.258261 0.743809 0 3
-0.475103 0.255133 0.701822 0 3
-0.49054 0.269928 0.742522 0 3
-0.491179 0.277124 0.762315 0 3
-0.483049 0.279618 0.769175 0 3
-0.478273 0.284238 0.781883 0 3
-0.46352 0.283019 0.77853 0 3
-0.413275 0.259449 0.713696 0 3
1.14616 0.271505 1.08898 0 3
1.15296 0.253471 1.01665 0 3
1.15391 0.266447 1.00306 0 3
0.513888 0.193853 0.777526 0 3
0.598174 0.180973 0.725866 0 3
0.526241 0.19692 0.741316 0 3
0.592325 0.19093 0.718768 0 3
0.254584 0.222191 0.891191 0 3
0.260302 0.214908 0.861978 0 3
0.268408 0.210241 0.843258 0 3
0.281917 0.210055 0.842514 0 3
0.293542 0.208549 0.836471 0 3
0.209402 0.234981 0.884599 0 3
0.21769 0.22853 0.860314 0 3
0.225612 0.2225 0.837614 0 3
0.235989 0.219441 0.826099 0 3
0.24941 0.21939 0.825908 1.18003e-38 3
0.262991 0.219479 0.826241 0 3
0.27513 0.218414 0.822232 0 3
0.286255 0.21668 0.815705 0 3
0.298731 0.216078 0.813438 0 3
0.202504 0.241197 0.855457 0 3
0.21355 0.237953 0.843952 0 3
0.225043 0.23557 0.835499 0 3
0.235978 0.232908 0.826058 0 3
0.248979 0.232463 0.824481 0 3
0.259188 0.229591 0.814293 0 3
0.218483 0.241938 0.811145 0 3
0.234359 0.244696 0.820392 0 3
0.216573 0.252941 0.804052 0 3
-0.346791 0.271882 1.09049 0 3
-0.328446 0.271425 1.08866 0 3
-0.307042 0.268244 1.0759 0 3
-0.369995 0.280296 1.05519 0 3
-0.362613 0.288109 1.0846 0 3
-0.34146 0.285222 1.07373 0 3
-0.315371 0.277675 1.04532 0 3
-0.319252 0.283051 1.0039 0 3
0.976055 0.238239 1.02247 0 3
0.967892 0.261736 1.0498 0 3
0.977305 0.286649 1.07911 0 3
0.904618 0.297717 1.05592 0 3
0.602244 0.207201 0.889259 0 3
0.606467 0.203746 0.874429 0 3
0.617521 0.202691 0.869902 0 3
0.60464 0.217355 0.871794 0 3
0.614428 0.215798 0.865545 0 3
0.625737 0.214832 0.861672 0 3
0.636696 0.213791 0.857498 0 3
0.643838 0.211541 0.848472 0 3
0.647538 0.208278 0.835386 0 3
0.653336 0.205811 0.82549 0 3
0.628427 0.224823 0.84636 0 3
0.615855 0.215588 0.811594 0 3
0.653292 0.219265 0.825434 0 3
0.628399 0.258101 0.865337 0 3
0.664771 0.275593 0.876058 0 3
0.669417 0.287744 0.828725 0 3
0.545184 0.202182 0.867719 0 3
0.580127 0.209695 0.899964 0 3
0.592291 0.208807 0.896152 0 3
0.571788 0.210498 0.844288 0 3
0.572418 0.293839 0.888004 0 3
0.342043 0.207783 0.891758 0 3
0.304097 0.206449 0.828048 0 3
0.315583 0.205134 0.822773 0 3
0.335703 0.209308 0.839516 0 3
0.354209 0.212189 0.85107 0 3
0.36326 0.209402 0.839892 0 3
0.364595 0.202531 0.812336 0 3
0.314556 0.217846 0.820095 0 3
0.337801 0.224399 0.844762 0 3
0.355732 0.227047 0.85473 0 3
0.363825 0.223452 0.841198 0 3
0.007304 0.205022 0.879906 1.2907e-38 3
0.0217996 0.206341 0.885569 0 3
0.00726177 0.218109 0.874818 0 3
0.02165 0.219274 0.879489 0 3
0.0366491 0.223231 0.895362 0 3
0.00704333 0.225392 0.848503 0 3
0.0209643 0.226224 0.851634 0 3
0.0345546 0.224247 0.844192 0 3
0.048797 0.226423 0.852381 0 3
0.0652138 0.235485 0.886497 0 3
0.0197104 0.225758 0.800697 0 3
0.0335717 0.23125 0.820179 0 3
0.0468374 0.230679 0.818151 0 3
0.0616423 0.23626 0.837947 0 3
0.0783582 0.24581 0.871817 0 3
0.0944042 0.250647 0.888972 0 3
0.0197004 0.238701 0.800292 0 3
0.0333792 0.24323 0.815477 0 3
0.0460716 0.240037 0.804774 0 3
0.0590067 0.239245 0.802119 0 3
0.0752079 0.24958 0.836767 0 3
0.093155 0.261642 0.877209 0 3
0.00665458 0.252191 0.801671 0 3
0.0198643 0.253852 0.80695 0 3
0.0328739 0.252651 0.80313 0 3
0.00670718 0.267368 0.808007 0 3
0.0198848 0.267294 0.807783 0 3
0.0328739 0.265754 0.80313 0 3
0.00664179 0.277816 0.800131 0 3
0.019811 0.279432 0.804784 0 3
-0.0933736 0.205426 0.881642 0 3
-0.0776067 0.201831 0.866214 0 3
-0.063166 0.200852 0.862012 0 3
-0.0492273 0.201366 0.864217 0 3
-0.0352026 0.2018 0.866077 0 3
-0.0210991 0.202059 0.867191 1.19854e-38 3
-0.00699387 0.203325 0.872624 1.23549e-38 3
-0.0925695 0.217918 0.87405 0 3
-0.0773064 0.215129 0.862862 0 3
-0.0631182 0.214754 0.86136 0 3
-0.0490645 0.214754 0.86136 0 3
-0.035054 0.215018 0.86242 0 3
-0.0210613 0.215821 0.865638 0 3
-0.00695901 0.216478 0.868274 0 3
-0.0905815 0.227193 0.855279 0 3
-0.0749578 0.222243 0.836648 0 3
-0.0611155 0.221548 0.83403 0 3
-0.0476511 0.222216 0.836547 0 3
-0.0340732 0.222679 0.83829 0 3
-0.0204213 0.222957 0.839333 0 3
-0.00675412 0.223854 0.84271 0 3
-0.0875571 0.233095 0.826723 0 3
-0.072668 0.228688 0.81109 0 3
-0.0325516 0.225802 0.800854 0 3
-0.019648 0.227689 0.807549 0 3
-0.0064729 0.22771 0.807622 0 3
-0.0874949 0.246409 0.826136 0 3
-0.0718426 0.239173 0.801877 0 3
-0.0718426 0.252256 0.801877 0 3
-0.0484386 0.281386 0.850371 0 3
-0.00644902 0.266255 0.804643 0 3
-0.122108 0.205368 0.881392 0 3
-0.109155 0.208089 0.893071 0 3
-0.167683 0.222985 0.894374 0 3
-0.138943 0.2237 0.897241 0 3
-0.1204 0.216675 0.869065 0 3
-0.107036 0.218339 0.875737 0 3
-0.166536 0.235952 0.888256 0 3
-0.153602 0.23837 0.897358 0 3
-0.136444 0.234053 0.881107 0 3
-0.119517 0.229161 0.86269 0 3
-0.105453 0.229185 0.862781 0 3
-0.193048 0.230212 0.816498 0 3
-0.179934 0.230479 0.817445 0 3
-0.170897 0.236427 0.83854 0 3
-0.136428 0.248399 0.881002 0 3
-0.117853 0.239851 0.850682 0 3
-0.102919 0.237418 0.842052 0 3
-0.189538 0.239106 0.801652 0 3
-0.179162 0.24277 0.813936 0 3
-0.143651 0.216144 0.927642 0 3
-0.199215 0.243708 0.977491 0 3
-0.155053 0.225842 0.905833 0 3
-0.189578 0.247095 0.930203 0 3
-0.169957 0.255589 0.906502 0 3
-0.157826 0.259968 0.922033 0 3
-0.112762 0.275176 0.922584 0 3
0.416056 0.164902 0.761007 0 3
0.441326 0.169849 0.783838 0 3
0.463383 0.173315 0.799834 0 3
0.407795 0.173797 0.745897 0 3
0.423407 0.175222 0.752011 0 3
0.445348 0.179112 0.768706 0 3
0.470854 0.184183 0.790469 0 3
0.408326 0.186209 0.746869 0 3
0.41975 0.185872 0.745516 0 3
0.428502 0.184404 0.739627 0 3
0.440476 0.184364 0.739469 0 3
0.456493 0.185975 0.745928 0 3
0.480984 0.190864 0.765537 0 3
0.49554 0.191663 0.768742 0 3
0.414221 0.195427 0.735696 0 3
0.412761 0.189254 0.712457 0 3
0.417091 0.186001 0.700211 0 3
0.417091 0.197425 0.700211 0 3
0.357445 0.166518 0.768468 0 3
0.364621 0.164105 0.757331 0 3
0.387461 0.163316 0.75369 0 3
0.399758 0.163316 0.75369 0 3
0.356426 0.185037 0.794135 0 3
0.357043 0.178855 0.767605 0 3
0.360285 0.174363 0.748325 0 3
0.370348 0.173358 0.744014 0 3
0.378754 0.171667 0.736753 0 3
0.390247 0.171435 0.735758 0 3
0.361227 0.193622 0.776599 0 3
0.363368 0.188169 0.754729 0 3
0.371776 0.186213 0.746883 0 3
0.378787 0.183703 0.736816 0 3
0.390247 0.183439 0.735758 0 3
0.393133 0.191013 0.71908 1.42896e-38 3
0.308017 0.20969 0.967701 0 3
0.327854 0.212311 0.979797 0 3
0.34384 0.212311 0.979797 0 3
0.351049 0.207132 0.955899 0 3
0.318284 0.221633 0.951197 0 3
0.334992 0.222422 0.954585 0 3
0.343197 0.217746 0.934517 0 3
0.213285 0.20969 0.967701 0 3
0.229074 0.20969 0.967701 0 3
0.244863 0.20969 0.967701 0 3
0.257473 0.207132 0.955899 0 3
0.273069 0.207132 0.955899 0 3
0.288665 0.207132 0.955899 0 3
0.213192 0.225379 0.967276 0 3
0.227397 0.223828 0.960617 0 3
0.241798 0.222656 0.955589 0 3
0.255502 0.221023 0.948582 0 3
0.26788 0.218496 0.937735 0 3
0.281944 0.217543 0.933643 0 3
0.299297 0.219094 0.940303 0 3
0.209149 0.236588 0.948935 0 3
0.223389 0.235279 0.943685 0 3
0.23549 0.232032 0.930658 0 3
0.245462 0.227207 0.911307 0 3
0.134342 0.20969 0.967701 0 3
0.150131 0.20969 0.967701 0 3
0.159994 0.202201 0.93314 0 3
0.181708 0.20969 0.967701 0 3
0.197497 0.20969 0.967701 0 3
0.138517 0.232486 0.997776 0 3
0.150391 0.225869 0.969378 0 3
0.165919 0.225478 0.967701 0 3
0.181708 0.225478 0.967701 0 3
0.197497 0.225478 0.967701 0 3
0.13862 0.248949 0.998513 0 3
0.152614 0.245258 0.983708 0 3
0.164733 0.239541 0.960779 0 3
0.178482 0.236984 0.950523 0 3
0.194531 0.237644 0.95317 0 3
0.11501 0.249373 0.938779 0 3
0.131208 0.251058 0.945122 0 3
0.148492 0.25425 0.957137 0 3
0.161908 0.250841 0.944304 0 3
0.173386 0.245283 0.923382 0 3
0.187022 0.243422 0.916377 0 3
0.1987 0.239476 0.901523 0 3
0.114387 0.263255 0.933689 0 3
0.130154 0.264339 0.937535 0 3
0.143996 0.261694 0.928155 0 3
-0.181311 0.229525 1.05924 0 3
-0.195278 0.242687 1.04156 0 3
-0.17307 0.235589 1.01109 0 3
-0.20411 0.235901 1.08866 0 3
-0.237096 0.250976 1.07713 0 3
-0.215752 0.246666 1.05863 0 3
-0.279196 0.258707 1.03765 0 3
-0.262638 0.259075 1.03913 0 3
-0.244896 0.258243 1.03579 0 3
-0.223555 0.253212 1.01561 0 3
-0.290738 0.270622 1.01877 0 3
-0.269387 0.265953 1.0012 0 3
-0.41022 0.253505 1.16991 0 3
-0.434422 0.27584 1.18384 0 3
-0.406499 0.270121 1.1593 0 3
-0.453138 0.294766 1.18228 0 3
-0.423057 0.287434 1.15287 0 3
-0.4925 0.27844 1.28498 0 3
-0.442517 0.261306 1.2059 0 3
-0.499333 0.291165 1.24961 0 3
-0.464786 0.282558 1.21267 0 3
0.939296 0.163604 0.816498 0 1
0.997098 0.168881 0.842836 0 1
0.939296 0.176926 0.816498 0 1
0.997098 0.182633 0.842836 0 1
0.838618 0.14817 0.739469 0 1
0.810065 0.161761 0.746512 0 1
0.81502 0.157999 0.729151 0 1
0.838618 0.160235 0.739469 0 1
0.801006 0.183001 0.785399 0 3
0.853653 0.190409 0.763714 0 3
0.721674 0.144092 0.719117 0 1
0.733407 0.144092 0.719117 0 1
0.752039 0.145426 0.725776 0 1
0.708671 0.153017 0.70616 0 1
0.720192 0.153017 0.70616 0 1
0.738366 0.154408 0.71258 0 1
0.76388 0.157267 0.725776 0 1
0.797885 0.161761 0.746512 0 1
0.72746 0.163582 0.702055 0 3
0.743915 0.164689 0.706806 0 3
0.781827 0.17044 0.731487 0 3
0.795612 0.170837 0.733193 0 1
0.796676 0.168531 0.723298 0 1
0.797676 0.16628 0.713634 0 1
0.64525 0.140232 0.699855 0 1
0.650858 0.138991 0.693662 0 1
0.662175 0.138991 0.693662 0 1
0.628223 0.150308 0.693662 0 1
0.636723 0.149646 0.690606 0 1
0.645148 0.14899 0.687577 0 1
0.656367 0.14899 0.687577 0 1
0.648342 0.161001 0.69098 0 3
0.642324 0.182027 0.610283 0 3
0.623487 0.157849 0.787776 0 1
0.63634 0.157849 0.787776 0 1
0.633282 0.15398 0.768468 0 1
0.64267 0.153229 0.76472 0 1
0.655146 0.153229 0.76472 0 1
0.677539 0.155505 0.776077 0 1
0.651277 0.144092 0.719117 0 1
0.623487 0.170702 0.787776 0 3
0.630009 0.169004 0.779938 0 3
0.624104 0.164105 0.757331 0 3
0.63037 0.162535 0.750084 0 3
0.633514 0.160235 0.739469 0 3
0.639546 0.158737 0.732558 0 1
0.651498 0.158737 0.732558 0 1
0.628561 0.181311 0.778145 0 3
0.625412 0.176831 0.758918 0 3
0.63074 0.174875 0.750524 0 3
0.632046 0.1719 0.737756 0 3
0.639876 0.170777 0.732937 0 3
0.650654 0.170468 0.731609 0 3
0.648995 0.16697 0.716598 0 3
0.647408 0.163614 0.702195 0 3
0.627897 0.193802 0.777324 0 3
0.610331 0.181066 0.72624 0 3
0.633605 0.184391 0.739575 0 3
0.642577 0.183507 0.73603 0 3
0.652186 0.182834 0.733332 0 3
0.654385 0.180146 0.722549 0 3
0.602688 0.190499 0.717146 0 3
0.625864 0.194057 0.730539 0 3
0.639984 0.194727 0.73306 0 3
0.658947 0.196818 0.740935 0 3
0.572653 0.182628 0.911439 0 1
0.584128 0.181572 0.906171 0 1
0.594436 0.199822 0.922162 0 3
0.469496 0.167085 0.83387 0 1
0.483101 0.167085 0.83387 0 1
0.496706 0.167085 0.83387 0 1
0.486358 0.176926 0.816498 0 3
0.494658 0.188335 0.808291 0 3
0.110986 0.209413 1.04512 0 3
0.123113 0.201359 1.00492 0 3
0.111731 0.227985 1.05213 0 3
0.123907 0.219159 1.0114 0 3
0.108678 0.238452 1.02338 0 3
0.126496 0.240584 1.03253 0 3
0.106643 0.250371 1.00422 0 3
0.124242 0.252843 1.01413 0 3
0.0586575 0.205307 1.02462 0 3
0.0758708 0.206658 1.03137 0 3
0.0914943 0.203974 1.01797 0 3
0.0748855 0.220583 1.01797 0 3
0.0914943 0.220583 1.01797 0 3
0.0408716 0.200076 0.998519 0 3
0.0391271 0.207132 0.955899 0 3
0.0568013 0.214998 0.992199 0 3
0.0369614 0.210401 0.902992 0 3
0.0529408 0.215474 0.924766 0 3
0.0708368 0.224368 0.962934 0 3
0.0887238 0.230009 0.987146 0 3
0.0522236 0.227439 0.912237 0 3
0.0701398 0.237716 0.953459 0 3
0.0871978 0.241882 0.970167 0 3
0.0821226 0.242711 0.9137 0 3
0.0982164 0.245678 0.92487 0 3
-0.743611 0.32053 1.59967 0 3
-0.717511 0.32053 1.59967 0 3
-0.743611 0.34663 1.59967 0 3
-0.717511 0.34663 1.59967 0 3
0.364533 0.15513 0.842836 0 1
0.370321 0.151864 0.825092 0 1
0.396297 0.156816 0.851997 0 1
0.358491 0.172593 0.86136 0 3
0.360655 0.167085 0.83387 0 3
0.370321 0.165326 0.825092 0 3
0.383783 0.165326 0.825092 0 3
0.334055 0.188721 0.870931 0 3
0.335228 0.181656 0.838329 0 3
0.33982 0.176926 0.816498 0 3
0.351312 0.176009 0.812267 0 3
0.370321 0.178788 0.825092 0 3
0.335626 0.195566 0.839325 0 3
0.338659 0.189598 0.813709 0 3
0.346211 0.186514 0.800474 0 3
0.043066 0.193652 1.05213 0 1
0.0598307 0.192361 1.04512 0 1
0.0768824 0.192361 1.04512 0 1
0.0933121 0.191087 1.0382 0 1
0.00783921 0.17382 0.944383 0 1
0.0233883 0.174874 0.950106 0 1
0.00770006 0.18587 0.927618 0 3
0.0228348 0.18587 0.927618 0 3
0.00765476 0.199822 0.922162 0 3
0.0227004 0.199822 0.922162 0 3
-0.295693 0.21533 1.16991 0 3
-0.272538 0.212163 1.1527 0 3
-0.253731 0.212163 1.1527 0 3
-0.234924 0.212163 1.1527 0 1
-0.287123 0.227623 1.136 0 3
-0.268588 0.227623 1.136 0 3
-0.250053 0.227623 1.136 0 3
-0.231519 0.227623 1.136 0 3
-0.216117 0.23097 1.1527 0 3
-0.281014 0.24092 1.11183 0 3
-0.261022 0.239223 1.104 0 3
-0.246481 0.242641 1.11977 0 3
-0.224997 0.239223 1.104 0 3
-0.280628 0.258705 1.1103 0 3
-0.260675 0.256893 1.10253 0 3
-0.314781 0.21533 1.16991 0 3
-0.358305 0.237969 1.18763 0 3
-0.328959 0.23097 1.1527 0 3
-0.310152 0.23097 1.1527 0 3
-0.38538 0.249777 1.1527 0 3
-0.366573 0.249777 1.1527 0 3
-0.347766 0.249777 1.1527 0 3
-0.328959 0.249777 1.1527 0 3
-0.305657 0.246157 1.136 0 3
-0.381883 0.266147 1.14224 0 3
-0.358209 0.262456 1.1264 0 3
-0.338323 0.261291 1.1214 0 3
-0.324029 0.264559 1.13543 0 3
-0.302168 0.26167 1.12303 0 3
-0.398031 0.283014 1.13514 0 3
-0.372231 0.277586 1.11337 0 3
-0.759103 0.300564 1.633 0 3
-0.732459 0.300564 1.633 0 3
-0.705816 0.300564 1.633 0 3
-0.884095 0.306959 1.66774 0 3
-0.856884 0.306959 1.66774 0 3
-0.829674 0.306959 1.66774 0 3
-0.802464 0.306959 1.66774 0 3
-0.938515 0.306959 1.66774 0 3
-0.911305 0.306959 1.66774 0 3
-0.938515 0.33417 1.66774 0 3
-0.911305 0.33417 1.66774 0 3
-1.07737 0.267168 1.45155 0 3
-1.05369 0.267168 1.45155 0 3
-1.03 0.267168 1.45155 0 3
-1.02531 0.272209 1.47894 0 3
-1.07737 0.290851 1.45155 0 3
-1.05369 0.290851 1.45155 0 3
-1.03 0.290851 1.45155 0 3
-1.02531 0.296339 1.47894 0 3
0.35041 0.167493 0.998519 0 1
0.359826 0.164353 0.979797 0 1
0.375812 0.164353 0.979797 0 1
0.311868 0.180339 0.979797 0 1
0.327854 0.180339 0.979797 0 1
0.34384 0.180339 0.979797 0 1
0.359826 0.180339 0.979797 0 1
0.353705 0.169731 0.922162 0 1
0.311868 0.196325 0.979797 0 3
0.327854 0.196325 0.979797 0 3
0.34384 0.196325 0.979797 0 3
0.351049 0.191536 0.955899 0 3
0.349592 0.182628 0.911439 0 3
0.368751 0.184776 0.922162 0 3
0.213285 0.162324 0.967701 0 1
0.213285 0.178112 0.967701 0 1
0.231937 0.180339 0.979797 0 1
0.247924 0.180339 0.979797 0 1
0.26391 0.180339 0.979797 0 1
0.279896 0.180339 0.979797 0 1
0.295882 0.180339 0.979797 0 1
0.215951 0.196325 0.979797 0 3
0.231937 0.196325 0.979797 0 3
0.244863 0.193901 0.967701 0 3
0.260651 0.193901 0.967701 0 3
0.27644 0.193901 0.967701 0 3
0.292229 0.193901 0.967701 0 3
-0.126271 0.152886 0.911439 0 1
-0.1114 0.152886 0.911439 0 1
-0.129277 0.171751 0.93314 0 1
-0.114052 0.171751 0.93314 0 1
-0.143647 0.18587 0.927618 0 3
-0.128512 0.18587 0.927618 0 3
-0.112051 0.183696 0.916769 0 1
-0.141967 0.198653 0.916769 0 3
-0.127009 0.198653 0.916769 0 3
-0.1114 0.197498 0.911439 0 3
-0.295693 0.196242 1.16991 0 1
-0.276606 0.196242 1.16991 0 1
-0.257518 0.196242 1.16991 0 1
-0.856884 0.279749 1.66774 0 1
-0.829674 0.279749 1.66774 0 1
-0.802464 0.279749 1.66774 0 1
0.600704 0.131153 0.866119 0 1
0.614835 0.131153 0.866119 0 1
0.619153 0.126269 0.83387 0 1
0.626097 0.12494 0.825092 0 1
0.600704 0.145284 0.866119 0 1
0.611457 0.144486 0.86136 0 1
0.618711 0.142915 0.851997 0 1
0.619153 0.139875 0.83387 0 1
0.626097 0.138402 0.825092 0 1
0.642943 0.139135 0.829458 0 1
0.656476 0.139135 0.829458 0 1
0.604041 0.160301 0.870931 0 1
0.611457 0.15854 0.86136 0 1
0.618711 0.156816 0.851997 0 1
0.62581 0.15513 0.842836 0 1
0.636141 0.1543 0.838329 0 1
0.642943 0.152668 0.829458 0 1
0.64287 0.149504 0.812267 0 1
0.656123 0.149504 0.812267 0 1
0.672862 0.150282 0.816498 0 1
0.604041 0.174511 0.870931 0 1
0.611457 0.172593 0.86136 0 1
0.615367 0.169794 0.847392 0 1
0.622464 0.167978 0.838329 0 1
0.622819 0.16446 0.820772 0 1
0.632897 0.163604 0.816498 0 1
0.604041 0.188721 0.870931 0 3
0.611457 0.186647 0.86136 0 3
0.618711 0.184618 0.851997 0 3
0.622464 0.181656 0.838329 0 3
0.622819 0.177852 0.820772 0 3
0.632897 0.176926 0.816498 0 3
0.634967 0.19087 0.819168 0 3
0.639029 0.188131 0.807414 0 3
0.53597 0.132618 0.875796 0 1
0.550259 0.132618 0.875796 0 1
0.561412 0.131881 0.870931 0 1
0.572441 0.131153 0.866119 0 1
0.586573 0.131153 0.866119 0 1
0.524611 0.147733 0.880716 0 1
0.53597 0.146907 0.875796 0 1
0.550259 0.146907 0.875796 0 1
0.564548 0.146907 0.875796 0 1
0.572441 0.145284 0.866119 0 1
0.586573 0.145284 0.866119 0 1
0.513125 0.163018 0.885692 0 1
0.527575 0.163018 0.885692 0 1
0.542026 0.163018 0.885692 0 1
0.562836 0.164881 0.895814 0 1
0.577452 0.164881 0.895814 0 1
0.585378 0.163018 0.885692 0 1
0.545105 0.178477 0.890724 0 1
0.588704 0.178477 0.890724 0 1
0.593126 0.175486 0.875796 0 1
0.510312 0.18069 0.83387 0 3
0.55335 0.190841 0.880716 0 3
0.592068 0.194113 0.895814 0 3
0.599828 0.191919 0.885692 0 3
0.311454 0.156175 1.03137 0 1
0.328282 0.156175 1.03137 0 1
0.347395 0.15721 1.0382 0 1
0.364333 0.15721 1.0382 0 1
0.307409 0.170756 1.01797 0 1
0.324018 0.170756 1.01797 0 1
0.33843 0.169654 1.0114 0 1
0.285308 0.160396 1.05924 0 1
0.298555 0.158258 1.04512 0 1
0.254178 0.180113 1.07375 0 1
0.271697 0.180113 1.07375 0 1
0.270676 0.168567 1.00492 0 1
0.287072 0.168567 1.00492 0 1
-0.0513204 0.136429 0.900963 0 1
-0.0982428 0.1556 0.927618 0 1
-0.0513204 0.151129 0.900963 0 1
-0.0374822 0.154685 0.922162 0 1
-0.0970938 0.168738 0.916769 0 1
-0.0821361 0.168738 0.916769 0 1
-0.0664018 0.166787 0.906171 0 1
-0.0519171 0.167757 0.911439 0 1
-0.0370464 0.167757 0.911439 0 1
-0.0221757 0.167757 0.911439 0 1
-0.00739091 0.169731 0.922162 0 1
-0.0959713 0.181572 0.906171 0 1
-0.08072 0.180528 0.900963 0 1
-0.0660202 0.180528 0.900963 0 1
-0.051617 0.181572 0.906171 0 3
-0.0368323 0.181572 0.906171 0 3
-0.0221757 0.182628 0.911439 0 3
-0.00739091 0.184776 0.922162 0 3
-0.0513204 0.195228 0.900963 0 3
-0.0366206 0.195228 0.900963 0 3
-0.0221757 0.197498 0.911439 1.22613e-38 3
-0.00734769 0.198653 0.916769 1.2262e-38 3
-0.679172 0.247278 1.633 0 1
-0.679172 0.273921 1.633 0 1
-0.652529 0.273921 1.633 0 1
-0.872867 0.228256 1.50738 0 1
-0.848273 0.228256 1.50738 0 1
-0.823679 0.228256 1.50738 0 1
0.174539 0.137538 1.01797 0 1
0.110986 0.192361 1.04512 0 1
0.123113 0.184963 1.00492 0 1
0.136021 0.132381 0.979797 0 1
0.152007 0.132381 0.979797 0 1
0.134342 0.146535 0.967701 0 1
0.150131 0.146535 0.967701 0 1
0.167993 0.148367 0.979797 0 1
0.183979 0.148367 0.979797 0 1
0.199965 0.148367 0.979797 0 1
0.134342 0.162324 0.967701 0 1
0.150131 0.162324 0.967701 0 1
0.165919 0.162324 0.967701 0 1
0.181708 0.162324 0.967701 0 1
0.197497 0.162324 0.967701 0 1
0.134342 0.178112 0.967701 0 1
0.150131 0.178112 0.967701 0 1
0.165919 0.178112 0.967701 0 1
0.181708 0.178112 0.967701 0 1
0.197497 0.178112 0.967701 0 1
0.134342 0.193901 0.967701 0 3
0.150131 0.193901 0.967701 0 3
0.160952 0.188096 0.938728 0 3
0.181708 0.193901 0.967701 0 3
0.197497 0.193901 0.967701 0 3
-0.0873844 0.111478 0.825092 0 1
-0.076333 0.115114 0.851997 0 1
-0.0873844 0.12494 0.825092 0 1
-0.076333 0.129014 0.851997 0 1
-0.0624321 0.129014 0.851997 0 1
-0.076333 0.142915 0.851997 0 1
-0.0624321 0.142915 0.851997 0 1
-0.0948745 0.194113 0.895814 0 3
-0.0802587 0.194113 0.895814 0 3
-0.0656429 0.194113 0.895814 0 3
-0.116766 0.113876 0.842836 0 1
-0.100846 0.111478 0.825092 0 1
-0.116766 0.127627 0.842836 0 1
-0.100846 0.12494 0.825092 0 1
-0.759103 0.220634 1.633 0 1
-0.732459 0.220634 1.633 0 1
-0.759103 0.247278 1.633 0 1
-0.732459 0.247278 1.633 0 1
-0.759103 0.273921 1.633 0 1
-0.732459 0.273921 1.633 0 1
-0.705816 0.273921 1.633 0 1
0.300375 0.190032 1.59967 0 1
0.319945 0.186231 1.56768 0 1
0.345522 0.186231 1.56768 0 1
0.3711 0.186231 1.56768 0 1
-0.732082 0.150187 1.26425 0 1
-0.711455 0.150187 1.26425 0 1
-0.732082 0.170814 1.26425 0 1
-0.711455 0.170814 1.26425 0 1
0.645424 0.310274 0.783202 0 3
0.664713 0.345353 0.775886 0 3
0.651836 0.357892 0.775626 0 3
0.666466 0.378864 0.793035 0 3
0.666466 0.391802 0.793035 0 3
0.654297 0.350614 0.709667 0 3
0.654297 0.362193 0.709667 0 3
0.611464 0.380314 0.700393 0 3
0.58739 0.354562 0.742168 0 3
0.570728 0.35627 0.721115 0 3
0.565423 0.364615 0.714413 0 3
0.565342 0.376217 0.71431 0 3
0.540787 0.38698 0.712668 0 3
1.31955 0.102392 4.89898 0 1
1.39948 0.102392 4.89898 0 1
1.31955 0.182322 4.89898 0 1
1.39948 0.182322 4.89898 0 1
-1.05412 -0.346374 2.75031 0 1
-1.00925 -0.346374 2.75031 0 1
-1.05412 -0.301501 2.75031 0 1
-1.00925 -0.301501 2.75031 0 1
