# .PCD v0.7 - Point Cloud Data file format
VERSION 0.7
FIELDS x y z rgb label
SIZE 4 4 4 4 4
TYPE F F F U U
COUNT 1 1 1 1 1
WIDTH 1628
HEIGHT 1
VIEWPOINT 0 0 0 1 0 0 0
POINTS 1628
DATA ascii
-0.091360 0.249494 0.578812 9671058 3
-0.052352 0.244847 0.568030 9407886 3
-0.042246 0.240410 0.557737 8355711 3
-0.032828 0.238520 0.553351 7959672 3
-0.023743 0.238520 0.553351 9275786 3
-0.014657 0.238520 0.553351 10262681 3
-0.005572 0.238520 0.553351 8815233 3
-0.098272 0.252343 0.563939 8289405 3
-0.089098 0.252586 0.564482 8553088 3
-0.051928 0.252115 0.563431 8815751 3
-0.042197 0.249281 0.557097 8814981 3
-0.032828 0.247605 0.553351 8354684 3
-0.023738 0.247551 0.553230 7894133 3
-0.014606 0.246733 0.551403 7697268 3
0.257907 0.229434 0.553351 7171696 3
0.267354 0.229745 0.554100 6973806 3
0.282122 0.234457 0.565465 6974060 3
0.293012 0.235749 0.568581 6512996 3
0.235350 0.253359 0.587778 7368303 3
0.226696 0.234430 0.543863 7500402 3
0.237535 0.236330 0.548272 7763574 3
0.246482 0.236277 0.548147 7764087 3
0.253381 0.234333 0.543639 7500150 3
0.261679 0.233773 0.542338 7302771 3
0.274141 0.236846 0.549468 7302512 3
0.283351 0.237003 0.549834 7434098 3
0.295292 0.239366 0.555314 7500151 3
0.042403 0.234431 0.588716 8355711 3
0.052144 0.234769 0.589565 8355711 3
0.013609 0.247824 0.597704 7630961 3
0.023004 0.243390 0.587011 8092539 3
0.032379 0.241431 0.582286 7895160 3
0.042086 0.242276 0.584322 8289920 3
0.051692 0.242332 0.584459 8289920 3
0.061504 0.243183 0.586511 8421504 3
0.003516 0.238679 0.553722 8223098 3
0.031211 0.241939 0.561285 8224125 3
-0.170314 0.221917 0.557290 7697783 3
-0.168515 0.228626 0.551403 7631988 3
-0.167154 0.235761 0.546951 7500402 3
-0.158416 0.236122 0.547788 8223866 3
-0.150408 0.237680 0.551403 8026487 3
-0.126365 0.243692 0.565351 8815749 3
-0.150045 0.246138 0.550073 8091510 3
-0.124619 0.249479 0.557539 8289407 3
-0.116267 0.251212 0.561411 8552579 3
-0.107676 0.252684 0.564702 8684163 3
-0.231685 0.237960 0.597578 8618624 3
-0.221129 0.237162 0.595573 8420475 3
-0.250239 0.220850 0.532648 7632240 3
-0.241493 0.220850 0.532648 8158071 3
-0.232797 0.220897 0.532761 8289405 3
-0.224767 0.221604 0.534466 7894647 3
-0.215991 0.221604 0.534466 7829108 3
-0.207915 0.222351 0.536268 7960440 3
-0.212319 0.237103 0.571846 7696754 3
-0.290952 0.241617 0.560537 7500913 3
-0.224719 0.230330 0.534352 8026233 3
-0.215257 0.229596 0.532648 8092280 3
-0.214682 0.238680 0.553724 8092026 3
0.302881 0.266909 0.699100 7566195 3
0.346673 0.265285 0.694847 5987424 3
0.357085 0.264547 0.692913 5921118 3
0.360568 0.258879 0.678068 6118497 3
0.363744 0.253337 0.663553 6710634 3
0.370346 0.250434 0.655949 6052958 3
0.379408 0.249312 0.653010 6908267 3
0.396333 0.253276 0.663393 6381921 3
0.309358 0.273958 0.687978 6842985 3
0.318648 0.272245 0.683675 7105903 3
0.322775 0.266386 0.668962 6908524 3
0.324616 0.259089 0.650637 6513255 3
0.320731 0.247832 0.622370 6644841 3
0.339456 0.254202 0.638365 6118497 3
0.353369 0.256695 0.644625 6250083 3
0.363292 0.256229 0.643454 5789786 3
0.375407 0.257291 0.646123 6645095 3
0.393098 0.262011 0.657977 6974058 3
0.330364 0.249879 0.602660 6184290 3
0.348303 0.255786 0.616906 5986911 3
-0.388071 0.211759 0.554650 6052956 3
-0.365732 0.204365 0.535283 5592916 3
-0.365444 0.209233 0.548032 5132363 3
-0.364439 0.213924 0.560321 5855575 3
-0.365008 0.219807 0.575729 6250333 3
-0.361154 0.223269 0.584796 6447712 3
-0.355413 0.225721 0.591218 6513509 3
-0.348252 0.227383 0.595573 7302510 3
-0.340579 0.228798 0.599278 7236719 3
-0.331135 0.229071 0.599994 6249824 3
-0.383804 0.208645 0.523961 5789784 3
-0.377569 0.209962 0.527267 5789784 3
-0.368912 0.209962 0.527267 5329233 3
-0.362485 0.211262 0.530531 5856088 3
-0.362824 0.216666 0.544102 5987674 3
-0.359521 0.220113 0.552760 6316128 3
-0.357130 0.224312 0.563304 6645091 3
-0.354141 0.228349 0.573441 6776677 3
-0.349721 0.231657 0.581749 6908265 3
-0.343840 0.234157 0.588027 6513507 3
-0.335444 0.235039 0.590243 5460819 3
-0.326214 0.235372 0.591077 5789786 3
-0.318615 0.236938 0.595012 6908267 3
-0.311432 0.238922 0.599994 6907752 3
-0.375044 0.217157 0.523741 5395537 3
-0.366521 0.217202 0.523850 5263951 3
-0.360341 0.218672 0.527394 6119260 3
-0.359160 0.223321 0.538608 5067342 3
-0.356139 0.227033 0.547560 6250335 3
-0.353317 0.231067 0.557290 5723989 3
-0.345863 0.232206 0.560036 6119001 3
-0.339170 0.233932 0.564199 5329231 3
-0.333511 0.236488 0.570364 5723989 3
-0.327652 0.239045 0.576531 6316128 3
-0.318916 0.239594 0.577854 6908267 3
-0.309572 0.239705 0.578122 6250335 3
-0.302170 0.241375 0.582150 6974056 3
-0.348223 0.236754 0.549254 6645345 3
-0.344631 0.240541 0.558041 5658449 3
-0.337042 0.241669 0.560658 6579552 3
-0.329014 0.242538 0.562673 5921879 3
-0.320134 0.242810 0.563304 6908776 3
-0.310119 0.242211 0.561916 6053469 3
-0.301299 0.242538 0.562673 6711399 3
-0.327030 0.250258 0.559280 6250844 3
-0.317707 0.250147 0.559032 6184540 3
0.406075 0.255359 0.698906 6447716 3
0.414545 0.253521 0.693876 5790297 3
0.425114 0.253031 0.692533 5264469 3
0.432893 0.250949 0.686835 5396055 3
0.444170 0.250949 0.686835 5329492 3
0.463910 0.255612 0.699597 5066322 3
0.482039 0.253068 0.692636 4803148 3
0.486354 0.249449 0.682729 4934734 3
0.484737 0.243018 0.665129 5460821 3
0.474147 0.232471 0.636263 5329235 3
0.414236 0.257636 0.674812 5592405 3
0.421125 0.255097 0.668164 5000527 3
0.430940 0.254415 0.666376 4737357 3
0.445809 0.256677 0.672300 4934737 3
0.455982 0.256191 0.671027 5526873 3
0.461525 0.253187 0.663160 5000529 3
0.447902 0.240051 0.628752 4868941 3
0.456507 0.239150 0.626394 4605510 3
0.464245 0.237845 0.622976 4671303 3
0.474587 0.237902 0.623124 4013373 3
0.485663 0.238317 0.624211 4276034 3
0.408648 0.265091 0.665709 6184542 3
0.419336 0.264938 0.665325 5592664 3
0.428888 0.264093 0.663204 5526871 3
0.428935 0.257582 0.646853 5790045 3
0.431069 0.252609 0.634364 5526873 3
0.434743 0.248752 0.624678 5132113 3
0.445667 0.249124 0.625614 5197906 3
0.455257 0.248752 0.624678 5132113 3
0.464932 0.248441 0.623898 5131856 3
0.476483 0.249124 0.625614 4671305 3
0.487607 0.249561 0.626709 4539206 3
0.406254 0.274404 0.661810 5263442 3
0.418219 0.275127 0.663553 5329235 3
0.424197 0.271974 0.655949 5197649 3
0.425420 0.266005 0.641552 4803148 3
0.427816 0.261039 0.629577 4934734 3
0.434743 0.259008 0.624678 4211011 3
0.445667 0.259396 0.625614 5132113 3
0.454921 0.258817 0.624217 4474183 3
0.460017 0.255950 0.617303 5132113 3
0.478993 0.260763 0.628909 4473926 3
0.489319 0.260763 0.628909 4605512 3
0.492883 0.257234 0.620398 4736844 3
0.497247 0.254257 0.613218 4276293 3
0.417150 0.292921 0.679559 5197649 3
0.432893 0.296057 0.686835 5723480 3
0.436340 0.290838 0.674727 6315615 3
0.428887 0.278792 0.646781 5592405 3
0.420957 0.267026 0.619483 5329746 3
0.421217 0.260887 0.605242 5066320 3
0.429163 0.259682 0.602447 4671562 3
0.440644 0.260622 0.604627 4277576 3
0.454201 0.262722 0.609498 5329494 3
0.465895 0.263676 0.611713 4605771 3
0.478515 0.265104 0.615024 4144707 3
0.487178 0.264325 0.613218 4736845 3
0.493383 0.262271 0.608452 4474185 3
0.421826 0.291874 0.652284 5328720 3
0.400302 0.270122 0.603673 5658198 3
0.448301 0.269186 0.601580 4144707 3
0.463655 0.272404 0.608772 5065809 3
0.475939 0.273720 0.611713 4342086 3
0.478331 0.269410 0.602082 4736844 3
0.438636 0.279199 0.601872 4868430 3
0.071710 0.249853 0.683836 8289918 3
0.082444 0.248366 0.679765 8355711 3
0.092799 0.246228 0.673915 8026233 3
0.004380 0.263331 0.689730 8881028 3
0.045993 0.243797 0.638564 8487297 3
0.053390 0.230467 0.603651 8421504 3
0.065848 0.239739 0.627936 8224123 3
0.080478 0.253337 0.663553 8487295 3
0.091372 0.253337 0.663553 8420991 3
0.004376 0.274424 0.689147 8815235 3
0.015777 0.275924 0.692913 8815235 3
0.027320 0.277617 0.697167 7895160 3
0.034655 0.248167 0.623211 8355711 3
0.063506 0.241158 0.605609 8158330 3
0.079467 0.260915 0.655223 8224123 3
0.090225 0.260915 0.655223 8026235 3
0.076186 0.260455 0.628167 8618883 3
0.089107 0.268305 0.647101 8092541 3
0.099732 0.268305 0.647101 7960955 3
0.098135 0.274465 0.636741 8289920 3
0.203998 0.235798 0.675733 7039853 3
0.221437 0.242751 0.695661 7170926 3
0.200751 0.242962 0.664976 7434611 3
0.215386 0.247229 0.676654 7105646 3
0.231498 0.252688 0.691597 7105903 3
0.210161 0.252071 0.660237 7763574 3
0.230587 0.263004 0.688874 6842472 3
0.245286 0.266688 0.698523 7237230 3
0.250552 0.260246 0.681648 7236717 3
0.261946 0.260446 0.682173 6184029 3
0.275013 0.262226 0.686835 7302510 3
0.289805 0.265445 0.695267 6842472 3
0.211005 0.263968 0.662891 7500915 3
0.229163 0.272621 0.684620 7105644 3
0.243316 0.275924 0.692913 7434609 3
0.254693 0.275924 0.692913 7499889 3
0.267703 0.277617 0.697167 7302510 3
0.278221 0.276693 0.694847 7368303 3
0.288587 0.275698 0.692346 7368816 3
0.296268 0.272309 0.683836 7500402 3
0.229813 0.284667 0.686562 8026746 3
0.237667 0.280631 0.676827 7829367 3
0.249589 0.281543 0.679028 7170924 3
0.261442 0.282304 0.680863 7499889 3
0.272622 0.282304 0.680863 7894647 3
0.283801 0.282304 0.680863 7368816 3
0.244763 0.274760 0.637425 6776166 3
0.195977 0.239554 0.686499 7171439 3
0.103584 0.245564 0.672096 8026235 3
0.114776 0.245900 0.673017 7566197 3
0.193182 0.247249 0.676708 7566454 3
0.102294 0.253404 0.663729 8618372 3
0.113644 0.254415 0.666376 8289918 3
0.124585 0.254415 0.666376 8158332 3
0.141879 0.266341 0.697613 7500915 3
0.157658 0.238257 0.624054 7500661 3
0.169042 0.239871 0.628282 7434870 3
0.180948 0.241999 0.633855 7632247 3
0.196841 0.248936 0.652025 7632247 3
0.101275 0.261669 0.657116 8749958 3
0.112211 0.262011 0.657977 7960953 3
0.123015 0.262011 0.657977 7829367 3
0.139568 0.273270 0.686249 8026746 3
0.177289 0.262393 0.658935 8553092 3
0.181135 0.252666 0.634508 7960955 3
0.196540 0.259244 0.651028 8092541 3
0.109427 0.266047 0.641653 8224125 3
0.119851 0.265799 0.641055 8355198 3
0.136912 0.279123 0.673190 8224125 3
0.148361 0.279870 0.674993 8421504 3
0.163359 0.286742 0.691567 8026748 3
0.109005 0.275515 0.639177 7960440 3
0.119720 0.276021 0.640352 8223612 3
0.133818 0.283618 0.657977 8289405 3
0.123015 0.294421 0.657977 8420991 3
-0.482987 0.206897 0.592913 4539206 3
-0.470013 0.205481 0.588855 5657687 3
-0.464499 0.207336 0.594169 5131854 3
-0.457340 0.208520 0.597562 5592405 3
-0.445933 0.207776 0.595431 5131854 3
-0.436261 0.207826 0.595573 5395026 3
-0.428008 0.208569 0.597704 6118749 3
-0.419296 0.209119 0.599278 5921370 3
-0.465046 0.217347 0.594868 4999755 3
-0.457340 0.218331 0.597562 5197647 3
-0.445933 0.217553 0.595431 5263440 3
-0.436366 0.217657 0.595716 5461332 3
-0.408380 0.218383 0.597704 6381919 3
-0.467263 0.228197 0.597704 5131854 3
-0.457019 0.227982 0.597142 4737096 3
-0.433131 0.220803 0.578338 5329233 3
-0.419801 0.218804 0.573103 5131854 3
-0.402835 0.214776 0.562551 6316128 3
0.802839 0.306766 0.970433 3881536 3
0.822596 0.308199 0.974964 3223093 3
0.822596 0.324207 0.974964 4144195 3
0.816455 0.337674 0.967685 3749439 3
0.800566 0.353563 0.967685 3486780 3
0.777572 0.309392 0.978740 3551290 3
0.793642 0.309392 0.978740 4012611 3
0.700384 0.312531 0.939854 4473672 3
0.719796 0.307637 0.925136 4407367 3
0.777572 0.325462 0.978740 4735564 3
0.786906 0.322700 0.970433 4473162 3
0.799716 0.321444 0.966657 4539466 3
0.756797 0.339422 0.972693 4341574 3
0.774048 0.339984 0.974305 4143681 3
0.777272 0.334488 0.958552 4604746 3
0.783420 0.330442 0.946959 4078915 3
0.764956 0.344677 0.943364 4407367 3
0.789353 0.364277 0.954131 4210500 3
0.136256 0.252565 0.798972 7565686 3
0.149327 0.252485 0.798718 7039342 3
0.161668 0.251283 0.794916 7104365 3
0.173513 0.249547 0.789423 7499123 3
0.185827 0.248680 0.786681 7236719 3
0.197167 0.246707 0.780441 7565682 3
0.198395 0.233096 0.737382 6645095 3
0.108772 0.262670 0.789910 7960953 3
0.122513 0.264335 0.794916 7763576 3
0.135565 0.264335 0.794916 8421252 3
0.148570 0.264251 0.794665 7368305 3
0.160852 0.263000 0.790901 7367535 3
0.173838 0.263000 0.790901 7301742 3
0.186707 0.262835 0.790407 7170926 3
0.197279 0.259669 0.780885 7302510 3
0.198935 0.245869 0.739386 7829369 3
0.111820 0.253175 0.725532 8684678 3
0.125259 0.256299 0.734485 8684678 3
0.144938 0.270521 0.775240 8816262 3
0.158801 0.272466 0.780815 7960440 3
0.173565 0.275552 0.789659 7763061 3
0.186156 0.275000 0.788076 7697781 3
0.188392 0.260215 0.745707 6974058 3
0.198299 0.257185 0.737024 7237232 3
0.132016 0.257997 0.706125 7763572 3
0.151483 0.272140 0.744836 8158073 3
0.160840 0.267366 0.731768 7631729 3
0.171755 0.265664 0.727110 7829367 3
0.183158 0.264890 0.724993 7895160 3
0.192624 0.261579 0.715930 7566454 3
0.158446 0.275221 0.720873 7895673 3
0.169762 0.274382 0.718674 7632247 3
0.155581 0.281867 0.707839 8026746 3
0.170282 0.287057 0.720873 8289920 3
0.183158 0.288698 0.724993 8224127 3
0.181114 0.297247 0.716901 7697783 3
-0.098266 0.219650 0.694847 7762547 3
-0.086616 0.219039 0.692913 8288378 3
-0.075239 0.219039 0.692913 8156792 3
-0.064514 0.221274 0.699983 7828340 3
-0.096289 0.226408 0.680863 8025206 3
-0.085180 0.226595 0.681425 8551550 3
-0.074907 0.229401 0.689861 8156792 3
-0.063581 0.229401 0.689861 9341579 3
-0.052254 0.229401 0.689861 8881028 3
-0.095074 0.234592 0.672277 7959413 3
-0.084399 0.235603 0.675176 8748929 3
-0.073830 0.237266 0.679942 9012101 3
-0.062734 0.237523 0.680678 9275786 3
-0.051349 0.236559 0.677915 8091512 3
-0.040240 0.236688 0.678285 8486270 3
-0.093891 0.242572 0.663907 8813952 3
-0.083924 0.245302 0.671380 8288378 3
-0.073293 0.246622 0.674993 8354171 3
-0.062194 0.246556 0.674812 8815235 3
-0.050908 0.245564 0.672096 8157305 3
-0.039905 0.245764 0.672644 8223098 3
-0.029569 0.251794 0.689147 8683395 3
-0.018380 0.253528 0.693893 8683395 3
-0.099168 0.239871 0.628282 8880515 3
-0.089322 0.241140 0.631605 8550782 3
-0.079473 0.242731 0.635773 8091001 3
-0.049423 0.249115 0.652493 9144200 3
-0.038975 0.250822 0.656966 9143946 3
-0.029058 0.258557 0.677226 8815235 3
-0.018144 0.261513 0.684969 8091512 3
-0.006875 0.260658 0.682729 7959924 3
-0.088233 0.248441 0.623898 8814724 3
-0.037920 0.254525 0.639177 8749188 3
-0.006819 0.269677 0.677226 8881026 3
-0.065479 0.250032 0.603028 9143946 3
-0.143901 0.219650 0.694847 7763315 3
-0.132124 0.219039 0.692913 7763572 3
-0.197760 0.227397 0.683836 7302764 3
-0.187095 0.228083 0.685898 7368557 3
-0.176073 0.228395 0.686835 7434609 3
-0.164301 0.227709 0.684773 7631988 3
-0.152350 0.226656 0.681608 7763315 3
-0.140394 0.225428 0.677915 8092280 3
-0.129264 0.225428 0.677915 7171437 3
-0.118519 0.226164 0.680127 7697268 3
-0.107908 0.227335 0.683650 7630961 3
-0.193074 0.232970 0.667631 8289405 3
-0.183379 0.234592 0.672277 7434096 3
-0.173037 0.235539 0.674993 7763574 3
-0.161955 0.235539 0.674993 7763574 3
-0.150832 0.235476 0.674812 8026487 3
-0.138780 0.233839 0.670122 7565936 3
-0.127641 0.233589 0.669404 8486784 3
-0.117466 0.235224 0.674088 7631475 3
-0.106513 0.235476 0.674812 8288891 3
-0.192203 0.242832 0.664619 7763061 3
-0.181818 0.243539 0.666554 7894647 3
-0.171513 0.244449 0.669046 7500402 3
-0.159930 0.243539 0.666554 6974058 3
-0.149503 0.244385 0.668870 7960694 3
-0.137021 0.241739 0.661628 7829108 3
-0.125991 0.241419 0.660753 7960440 3
-0.115816 0.242832 0.664619 8946821 3
-0.105153 0.243409 0.666200 8814722 3
-0.181290 0.253744 0.664619 8684163 3
-0.109292 0.239450 0.627180 8617856 3
-0.117704 0.245810 0.617291 8223866 3
-0.298021 0.215597 0.682027 8224127 3
-0.293760 0.220812 0.698523 7895162 3
-0.277874 0.217357 0.687593 8815749 3
-0.265128 0.216169 0.683836 7170408 3
-0.254040 0.216288 0.684212 7630959 3
-0.245623 0.218798 0.692152 8158073 3
-0.235624 0.220074 0.696187 8157819 3
-0.292252 0.214351 0.644604 7434611 3
-0.287250 0.218599 0.657377 7434611 3
-0.283865 0.224457 0.674993 7499889 3
-0.272782 0.224457 0.674993 7105131 3
-0.262478 0.225125 0.677002 7170408 3
-0.251701 0.225428 0.677915 7762545 3
-0.240636 0.225490 0.678099 8947589 3
-0.230438 0.226408 0.680863 7894647 3
-0.220708 0.227905 0.685364 7499889 3
-0.299066 0.222135 0.636579 7631988 3
-0.288687 0.222191 0.636741 7303025 3
-0.282204 0.225363 0.645829 7368816 3
-0.281895 0.233905 0.670309 7894647 3
-0.271611 0.234528 0.672096 7039592 3
-0.260576 0.234528 0.672096 7367787 3
-0.248808 0.233839 0.670122 6907236 3
-0.237487 0.233526 0.669224 7763315 3
-0.226499 0.233526 0.669224 7368303 3
-0.214255 0.232166 0.665325 8815751 3
-0.202789 0.231547 0.663553 7631477 3
-0.295463 0.229784 0.628909 7960953 3
-0.284352 0.229153 0.627180 8026746 3
-0.273711 0.228865 0.626394 7763574 3
-0.273361 0.237496 0.650016 7105385 3
-0.267027 0.241419 0.660753 7960694 3
-0.256178 0.241419 0.660753 7170408 3
-0.245394 0.241483 0.660928 8354682 3
-0.235474 0.242442 0.663553 7565936 3
-0.224579 0.242442 0.663553 7039338 3
-0.213064 0.241739 0.661628 7894649 3
-0.201934 0.241419 0.660753 7302512 3
-0.299769 0.235384 0.616529 7566193 3
-0.288021 0.234063 0.613069 6974569 3
-0.275524 0.232016 0.607709 7697779 3
-0.265224 0.231735 0.606971 7828854 3
-0.258215 0.234419 0.614003 7960440 3
-0.252071 0.238138 0.623743 8158073 3
-0.239625 0.235968 0.618058 8816003 3
-0.230391 0.236907 0.620520 8091510 3
-0.294766 0.241409 0.606238 7566193 3
-0.284399 0.241059 0.605359 7631986 3
-0.274127 0.240767 0.604627 7171176 3
-0.264200 0.240767 0.604627 7499889 3
0.018209 0.239679 0.799748 8222587 3
0.030994 0.237028 0.790901 7630707 3
0.005030 0.250411 0.792156 8288637 3
0.017946 0.249150 0.788169 8091258 3
0.030838 0.248758 0.786927 7565682 3
0.044064 0.250494 0.792419 7697268 3
0.057056 0.250411 0.792156 7697781 3
0.070195 0.250886 0.793661 7434609 3
0.083384 0.251363 0.795169 7697781 3
0.096933 0.252646 0.799228 7500402 3
0.004647 0.243336 0.731768 8354430 3
0.017463 0.255047 0.766985 8091258 3
0.030579 0.259479 0.780314 7763061 3
0.043622 0.260864 0.784480 7565682 3
0.056291 0.259888 0.781543 7631988 3
0.068907 0.259074 0.779097 7434609 3
0.081725 0.259155 0.779340 7368816 3
0.094993 0.260452 0.783238 8092539 3
0.004582 0.251821 0.721652 8551809 3
0.016813 0.257670 0.738412 8354430 3
0.029362 0.261460 0.749275 8026233 3
0.042367 0.265866 0.761900 7828854 3
0.054856 0.265765 0.761611 8158332 3
0.065858 0.259837 0.744623 8158332 3
0.076136 0.253354 0.726047 8289918 3
0.087325 0.251249 0.720012 7697781 3
0.098018 0.248387 0.711811 8223612 3
0.004576 0.263292 0.720617 8486016 3
0.016483 0.264509 0.723949 8354430 3
0.028411 0.264890 0.724993 8092026 3
0.040574 0.266592 0.729651 7894647 3
0.053048 0.269100 0.736514 8092539 3
0.063544 0.262502 0.718457 8158332 3
0.016039 0.268936 0.704410 9078407 3
0.027643 0.269313 0.705398 8289918 3
0.039720 0.272710 0.714297 8092539 3
-0.098864 0.237028 0.790901 8090999 3
-0.059536 0.248467 0.786007 7894133 3
-0.047250 0.251768 0.796449 7828338 3
-0.008004 0.251283 0.794916 8617602 3
-0.043497 0.243807 0.733184 8749440 3
-0.032304 0.250356 0.752877 8683649 3
-0.019992 0.250981 0.754759 8420223 3
-0.007852 0.259305 0.779791 8420223 3
-0.030080 0.244634 0.701056 8814981 3
-0.018936 0.249457 0.714877 8683395 3
-0.007330 0.254017 0.727945 8486270 3
-0.007141 0.259120 0.709200 8354682 3
-0.146322 0.229978 0.767376 7369068 3
-0.125755 0.216274 0.721652 7631988 3
-0.113906 0.216274 0.721652 7302512 3
-0.108790 0.230543 0.769261 7434096 3
-0.181857 0.224250 0.709397 7763572 3
-0.169203 0.222923 0.705201 7500402 3
-0.156917 0.221924 0.702039 7697522 3
-0.122242 0.221752 0.701497 6908265 3
-0.110966 0.222236 0.703028 7499889 3
-0.397533 0.209634 0.699494 6973031 3
-0.324098 0.206747 0.689861 6776166 3
-0.313122 0.206979 0.690634 6249308 3
-0.368138 0.217326 0.687496 6118236 3
-0.354274 0.215757 0.682532 6446687 3
-0.336378 0.211550 0.669224 7104617 3
-0.325390 0.211550 0.669224 7763061 3
-0.314402 0.211550 0.669224 7697268 3
-0.303578 0.211664 0.669585 8684165 3
-0.398525 0.209028 0.628596 7039590 3
-0.385302 0.207466 0.623898 7171176 3
-0.374035 0.206900 0.622196 6776166 3
-0.363367 0.206643 0.621422 6907238 3
-0.353164 0.206643 0.621422 6051929 3
-0.343986 0.207261 0.623280 6249822 3
-0.335504 0.208348 0.626551 7499889 3
-0.328258 0.210297 0.632410 6644066 3
-0.321451 0.212663 0.639526 7170410 3
-0.314229 0.214905 0.646269 7170924 3
-0.303149 0.214573 0.645270 7631475 3
-0.392227 0.215883 0.618663 6645345 3
-0.379258 0.214295 0.614111 6447966 3
-0.369175 0.214295 0.614111 6250335 3
-0.359092 0.214295 0.614111 6644066 3
-0.349009 0.214295 0.614111 8223612 3
-0.339843 0.214875 0.615774 7039338 3
-0.331117 0.215777 0.618358 6710886 3
-0.324329 0.218038 0.624840 6973545 3
-0.315799 0.219239 0.628282 7039338 3
-0.307955 0.221013 0.633364 7303023 3
-0.398453 0.223832 0.612618 4671301 3
-0.385115 0.221942 0.607446 6316380 3
-0.371965 0.220063 0.602302 6711138 3
-0.362163 0.220116 0.602447 7566195 3
-0.353546 0.220912 0.604627 8420991 3
-0.343619 0.220912 0.604627 8749956 3
-0.334581 0.221501 0.606238 7303023 3
-0.325968 0.222416 0.608743 7500402 3
-0.319234 0.224711 0.615024 7631475 3
-0.311661 0.226547 0.620048 6907752 3
-0.304263 0.228638 0.625771 7171437 3
-0.322211 0.229732 0.601726 6841961 3
-0.315516 0.232075 0.607862 6973545 3
-0.308002 0.233948 0.612769 7039338 3
-0.303182 0.240191 0.603179 7237230 3
-0.484809 0.207662 0.692913 4539456 3
-0.476338 0.208937 0.697167 4868934 3
-0.466051 0.209458 0.698906 6184540 3
-0.452681 0.208585 0.695993 4934216 3
-0.439911 0.207950 0.693876 5263181 3
-0.426628 0.207033 0.690815 5394513 3
-0.401535 0.200178 0.667940 7367789 3
-0.401274 0.205665 0.686249 7236203 3
-0.483624 0.204132 0.645757 4999755 3
-0.466298 0.201231 0.636579 6380894 3
-0.469125 0.207093 0.655123 7697268 3
-0.466994 0.210990 0.667452 8092026 3
-0.459956 0.212804 0.673190 5855318 3
-0.452796 0.214650 0.679028 5592146 3
-0.441798 0.214723 0.679260 6250076 3
-0.416190 0.207515 0.656459 7171176 3
-0.415176 0.212514 0.672271 7368555 3
-0.431721 0.200480 0.602890 6447201 3
-0.427996 0.203414 0.611713 6841959 3
-0.419182 0.204013 0.613513 5592146 3
-0.414498 0.206700 0.621595 6644834 3
-0.407008 0.208089 0.625771 7763315 3
-0.411029 0.209922 0.601580 6381919 3
-0.406047 0.212484 0.608922 7368814 3
-0.401595 0.215459 0.617449 6316126 3
-0.430888 0.219852 0.601726 5197647 3
-0.422735 0.220754 0.604194 5395026 3
-0.403898 0.221304 0.605698 5789782 3
0.344942 0.225539 0.796183 7104365 3
0.356203 0.224398 0.792156 5526103 3
0.369911 0.224824 0.793661 6117985 3
0.383427 0.225109 0.794665 6644584 3
0.394596 0.224042 0.790901 4999757 3
0.305335 0.238307 0.795169 6710373 3
0.319913 0.239447 0.798972 5855066 3
0.331869 0.238611 0.796183 6512228 3
0.343197 0.237404 0.792156 6182750 3
0.354410 0.236209 0.788169 6051678 3
0.366772 0.235837 0.786927 6381412 3
0.379693 0.235837 0.786927 6841961 3
0.391264 0.235026 0.784222 5986654 3
0.303315 0.249701 0.789910 6578021 3
0.318289 0.251283 0.794916 6907756 3
0.330190 0.250411 0.792156 6906474 3
0.341469 0.249150 0.788169 6445152 3
0.353852 0.248758 0.786927 6840680 3
0.366772 0.248758 0.786927 6051675 3
0.379693 0.248758 0.786927 5591124 3
0.391264 0.247902 0.784222 6052447 3
0.300849 0.260534 0.783486 7104365 3
0.316582 0.262917 0.790653 7433328 3
0.326883 0.260779 0.784222 6972266 3
0.337962 0.259399 0.780073 4142397 3
0.347416 0.256919 0.772614 4471616 3
0.359545 0.256522 0.771421 5525074 3
0.373478 0.257395 0.774046 4867144 3
0.385473 0.256919 0.772614 5656919 3
0.305775 0.266481 0.763663 5920089 3
0.315531 0.264151 0.756986 4472132 3
0.320978 0.258527 0.740870 4537155 3
0.331959 0.257610 0.738240 4867142 3
0.337822 0.252924 0.724813 4867144 3
0.349249 0.252581 0.723831 4538179 3
0.376668 0.263447 0.754968 3551543 3
0.378509 0.256299 0.734485 5327954 3
0.311111 0.272705 0.746382 6117468 3
0.318992 0.269017 0.736288 5591124 3
0.330402 0.268465 0.734776 5789271 3
0.337327 0.264436 0.723750 6512996 3
0.348400 0.263823 0.722071 5723480 3
0.362880 0.265744 0.727330 6578791 3
0.367141 0.260299 0.712426 5657946 3
0.383744 0.263670 0.721652 6250083 3
0.394345 0.262838 0.719376 6447462 3
0.398104 0.257627 0.705113 6381923 3
0.316307 0.268562 0.703430 5790297 3
0.327760 0.268483 0.703224 6119008 3
0.337789 0.267283 0.700080 5592664 3
0.204800 0.245600 0.867004 7499889 3
0.219790 0.246447 0.869991 7631729 3
0.239624 0.252289 0.890616 6644582 3
0.256923 0.254945 0.899991 6907752 3
0.265474 0.249102 0.879366 7236201 3
0.270786 0.240981 0.850697 7433328 3
0.279757 0.236752 0.835769 7302512 3
0.285278 0.230136 0.812413 7171439 3
0.295182 0.227489 0.803069 6447716 3
0.219445 0.244435 0.815617 6512996 3
0.232837 0.244435 0.815617 6973545 3
0.244483 0.242703 0.809836 7630961 3
-0.489823 0.189424 0.668695 5591892 3
-0.474596 0.187744 0.662763 5263181 3
-0.484809 0.196285 0.692913 4802628 3
-0.499469 0.199870 0.666915 4933964 3
-0.479722 0.196271 0.654905 4539458 3
-0.467233 0.195545 0.652481 3552563 3
0.623244 0.228210 0.855180 3420727 3
0.667201 0.238923 0.895325 3618617 3
0.608202 0.231196 0.816153 3881789 3
0.643526 0.239350 0.844939 3289139 3
0.601190 0.247223 0.824920 3684157 3
0.620941 0.249719 0.833249 5065552 3
0.640160 0.251899 0.840520 4078657 3
0.600422 0.279312 0.883585 4604999 3
0.601536 0.255169 0.807208 3749950 3
0.614789 0.255169 0.807208 3420472 3
0.622874 0.290756 0.874371 4736844 3
0.647196 0.282571 0.849757 4670539 3
0.654472 0.299857 0.859311 4012864 3
0.121090 0.234664 0.879366 7105131 3
0.133071 0.230408 0.863419 7303025 3
0.147963 0.231528 0.867615 6447462 3
0.105467 0.246335 0.869597 7894647 3
0.118483 0.243738 0.860431 7763574 3
0.131132 0.241021 0.850838 6776681 3
0.144358 0.239786 0.846478 7302771 3
0.159359 0.241457 0.852376 7236721 3
0.181555 0.252879 0.892697 7434098 3
0.189120 0.243738 0.860431 7170926 3
0.102813 0.254053 0.847709 7763061 3
0.115935 0.252320 0.841927 7697781 3
0.129239 0.251309 0.838553 7171696 3
0.141027 0.247829 0.826942 7697529 3
0.155271 0.248898 0.830509 7630709 3
0.170146 0.250723 0.836598 7761782 3
0.181157 0.247008 0.824202 7696500 3
0.191689 0.243201 0.811500 7565168 3
0.110584 0.253860 0.803069 7237743 3
0.123730 0.253779 0.802813 6710888 3
-0.293934 0.211259 0.791662 7301994 3
-0.286766 0.201011 0.709597 6842470 3
-0.276450 0.201986 0.713039 7499373 3
-0.268028 0.204493 0.721889 7170408 3
-0.258724 0.206527 0.729070 7500143 3
-0.262893 0.220036 0.776757 7499889 3
-0.299097 0.213146 0.711213 6645352 3
-0.282920 0.209810 0.700080 8092537 3
-0.272724 0.210814 0.703430 8223096 3
-0.263543 0.212725 0.709807 8223096 3
-0.251814 0.212662 0.709597 8223866 3
-0.239822 0.212360 0.708590 8223612 3
-0.246411 0.229319 0.765179 8552577 3
-0.243404 0.238691 0.796449 7631475 3
-0.243705 0.239227 0.756776 7960440 3
-0.239291 0.247514 0.782992 7697268 3
-0.228008 0.249233 0.788430 7368557 3
-0.214388 0.248451 0.785958 7500143 3
-0.228769 0.248921 0.748562 7763061 3
-0.305679 0.210397 0.788430 6973029 3
-0.391846 0.207291 0.731768 7105642 3
-0.382294 0.208636 0.736514 7829108 3
-0.368687 0.207783 0.733502 6710627 3
-0.349987 0.203904 0.719810 6644834 3
-0.332897 0.200726 0.708590 6184029 3
-0.321354 0.200783 0.708791 6841445 3
-0.311214 0.201754 0.712219 7236719 3
-0.301923 0.203372 0.717933 7105646 3
-0.391740 0.212725 0.709807 5789525 3
-0.381159 0.213325 0.711811 6184283 3
-0.369683 0.213448 0.712219 5920343 3
-0.360660 0.215040 0.717532 6117722 3
-0.341546 0.210520 0.702450 6512480 3
-0.307113 0.210635 0.702834 6579302 3
-0.492045 0.201880 0.756514 5197647 3
-0.410320 0.204483 0.766269 5592403 3
-0.485377 0.201237 0.710395 5855829 3
-0.479289 0.203606 0.718757 5723989 3
-0.471543 0.205372 0.724993 5000266 3
-0.459639 0.205372 0.724993 4868680 3
-0.446063 0.204605 0.722284 5591892 3
-0.430880 0.203039 0.716756 6907752 3
-0.436829 0.211622 0.747055 6051929 3
-0.420205 0.209449 0.739386 6184029 3
-0.403860 0.207291 0.731768 6315869 3
0.005382 0.212278 0.847631 8157305 3
0.019099 0.210074 0.838832 7433328 3
0.033335 0.213031 0.850639 6906986 3
0.005344 0.224598 0.841646 6775398 3
0.018928 0.221846 0.831332 7564403 3
0.032619 0.222128 0.832388 6841193 3
0.005287 0.235881 0.832695 7564914 3
0.018847 0.234482 0.827754 7959415 3
0.031962 0.231044 0.815617 7499121 3
0.048188 0.245484 0.866593 7303023 3
0.064086 0.252048 0.889764 7828854 3
0.079317 0.254039 0.896795 7302512 3
0.093639 0.252953 0.892960 7236719 3
0.005132 0.242229 0.808257 7762547 3
0.044644 0.240610 0.802852 7631986 3
0.061752 0.256947 0.857366 7500143 3
0.071509 0.242307 0.808515 7499891 3
0.088484 0.252881 0.843799 7302512 3
-0.338475 0.186965 0.746554 5393999 3
-0.330350 0.189333 0.756013 5394515 3
-0.335321 0.199685 0.797349 5789786 3
-0.387066 0.198996 0.745707 5658450 3
-0.372391 0.197705 0.740870 6119001 3
-0.355407 0.195061 0.730959 6644834 3
-0.337478 0.191693 0.718341 5591892 3
-0.325683 0.191693 0.718341 8156792 3
-0.313979 0.191749 0.718548 7697270 3
-0.303400 0.192522 0.721445 7039853 3
0.802839 0.227098 0.970433 2368297 3
0.808749 0.224318 0.958552 2763055 3
0.807875 0.219798 0.939238 2895154 3
0.803688 0.248215 0.991129 3354932 3
0.812915 0.246082 0.982612 3617334 3
0.818773 0.243032 0.970433 2631468 3
0.824488 0.240057 0.958552 2829361 3
0.816687 0.233332 0.931699 2829107 3
0.803688 0.264489 0.991129 3749690 3
0.812915 0.262216 0.982612 3815483 3
0.825782 0.261182 0.978740 3092019 3
0.834707 0.258966 0.970433 3026740 3
0.840226 0.255795 0.958552 2894643 3
0.831985 0.248629 0.931699 3157815 3
0.800549 0.279665 0.987258 2894640 3
0.812915 0.278349 0.982612 3421238 3
0.825782 0.277252 0.978740 3552570 3
0.841852 0.277252 0.978740 3486265 3
0.809712 0.293322 0.978740 3618874 3
0.825782 0.293322 0.978740 3749692 3
0.500908 0.207620 0.887197 4407882 3
0.574060 0.201814 0.805849 4013121 3
0.514061 0.217652 0.815617 4013121 3
0.527452 0.217652 0.815617 4013121 3
0.544758 0.219227 0.821519 3552570 3
0.558319 0.219256 0.821627 4407879 3
0.512023 0.230128 0.812384 4144707 3
0.549027 0.248134 0.827957 5131345 3
0.581735 0.256563 0.856085 4341829 3
0.552631 0.263446 0.833393 5131345 3
0.566111 0.257138 0.813439 4999759 3
0.551885 0.276755 0.832267 5065809 3
0.591184 0.289300 0.869991 4737098 3
0.558306 0.266765 0.802224 4802637 3
0.540844 0.284610 0.815617 5197395 3
0.220358 0.234615 1.002551 6381919 3
0.246607 0.244312 1.043989 5789525 3
0.261362 0.242102 1.034545 6315617 3
0.274719 0.238945 1.021054 6051677 3
0.287731 0.235869 1.007910 5920857 3
0.180640 0.226108 0.966200 6184290 3
0.197537 0.227297 0.971280 6250337 3
0.103040 0.246082 0.982612 6972777 3
0.118704 0.245112 0.978740 7038824 3
0.132514 0.241002 0.962328 7236717 3
0.147165 0.239134 0.954868 6776681 3
0.164225 0.241164 0.962973 6842220 3
0.179210 0.240057 0.958552 6644841 3
0.197537 0.243244 0.971280 6908265 3
0.109956 0.241934 0.906609 7630959 3
0.168550 0.240580 0.901535 6644584 3
0.188878 0.247831 0.928706 7237230 3
0.112421 0.250883 1.072069 6249824 3
0.127153 0.245344 1.048398 6315617 3
0.142459 0.242102 1.034545 6184542 3
0.158783 0.241097 1.030253 6316128 3
0.175282 0.240525 1.027808 5921372 3
-0.095061 0.204875 0.875469 5328720 3
-0.081860 0.207853 0.888193 6381408 3
-0.067875 0.209703 0.896099 6447203 3
-0.093428 0.215483 0.860431 7367787 3
-0.079602 0.216302 0.863699 7763061 3
-0.065534 0.216674 0.865185 6446433 3
-0.051328 0.216674 0.865185 6380894 3
-0.037265 0.217502 0.868489 7038824 3
-0.022941 0.216902 0.866096 7104617 3
-0.008584 0.213505 0.852532 7170410 3
-0.092918 0.228356 0.855729 7630959 3
-0.079166 0.229219 0.858962 7697268 3
-0.065151 0.229532 0.860137 8486016 3
-0.050767 0.228356 0.855729 7696754 3
-0.036692 0.228202 0.855151 8157305 3
-0.022422 0.225887 0.846478 8288891 3
-0.008492 0.225053 0.843349 8025719 3
-0.093428 0.243738 0.860431 8157305 3
-0.079301 0.243738 0.860431 7960440 3
-0.064907 0.242740 0.856908 7696754 3
-0.050491 0.241089 0.851078 7433582 3
-0.036370 0.240112 0.847631 7828340 3
-0.022294 0.238417 0.841646 7762547 3
-0.008401 0.236354 0.834362 7104617 3
-0.091069 0.251354 0.838703 8223098 3
-0.079301 0.257866 0.860431 7499889 3
-0.064780 0.256306 0.855228 7959926 3
-0.048897 0.247008 0.824202 8223098 3
-0.035493 0.247907 0.827200 7762547 3
-0.021933 0.248153 0.828021 8025719 3
-0.008197 0.243964 0.814046 8815235 3
-0.034525 0.254355 0.804634 8025719 3
-0.021293 0.254108 0.803853 7828086 3
-0.199020 0.208370 0.890403 6775398 3
-0.186386 0.210614 0.899991 6052445 3
-0.170268 0.208968 0.892960 7236717 3
-0.155105 0.208295 0.890082 7565936 3
-0.141143 0.209262 0.894216 7565934 3
-0.125121 0.207044 0.884737 6447201 3
-0.110129 0.206173 0.881012 6118490 3
-0.191335 0.214380 0.856023 7235951 3
-0.178255 0.215558 0.860728 6841959 3
-0.164972 0.216674 0.865185 7434350 3
-0.150767 0.216674 0.865185 7565682 3
-0.136514 0.216600 0.864888 7631988 3
-0.121683 0.215483 0.860431 7895160 3
-0.107556 0.215483 0.860431 7104615 3
-0.187493 0.223847 0.838832 7697270 3
-0.173428 0.223472 0.837425 7763574 3
-0.161469 0.225977 0.846812 8552831 3
-0.148866 0.227968 0.854276 7631475 3
-0.135069 0.228356 0.855729 6513509 3
-0.121018 0.228356 0.855729 6908265 3
-0.106968 0.228356 0.855729 7499373 3
-0.199859 0.235959 0.832970 7828854 3
-0.184775 0.234175 0.826673 7434098 3
-0.169632 0.232029 0.819095 7170924 3
-0.152837 0.227058 0.801546 7434861 3
-0.139410 0.226623 0.800012 6974058 3
-0.132585 0.237950 0.839997 7500404 3
-0.120813 0.241995 0.854276 7631475 3
-0.107372 0.243322 0.858962 6973029 3
-0.199859 0.249636 0.832970 7763574 3
-0.183937 0.246625 0.822924 7697268 3
-0.166156 0.240447 0.802308 8026487 3
-0.294866 0.203883 0.871227 7105642 3
-0.287865 0.209190 0.893906 6973029 3
-0.228502 0.208592 0.891353 8089977 3
-0.213486 0.208220 0.889764 7301231 3
-0.299884 0.211633 0.845056 5921111 3
-0.287560 0.212781 0.849641 7499889 3
-0.274261 0.213288 0.851663 7762547 3
-0.262958 0.215483 0.860431 7696754 3
-0.249775 0.216302 0.863699 7301994 3
-0.235999 0.216674 0.865185 6709857 3
-0.220881 0.215782 0.861623 7433069 3
-0.205320 0.214306 0.855729 7630450 3
-0.289087 0.217389 0.814631 7039592 3
-0.281571 0.222009 0.831944 7170924 3
-0.269767 0.223547 0.837706 6841445 3
-0.257303 0.224673 0.841927 6907238 3
-0.243479 0.224673 0.841927 7959924 3
-0.229655 0.224673 0.841927 7170408 3
-0.215832 0.224673 0.841927 7367276 3
-0.202008 0.224673 0.841927 7696500 3
-0.263599 0.231875 0.818553 7105131 3
-0.250733 0.232407 0.820429 7499889 3
-0.241376 0.236437 0.834655 8158073 3
-0.228427 0.237221 0.837425 7434350 3
-0.213892 0.236354 0.834362 7630959 3
-0.236312 0.244893 0.817144 7500143 3
-0.228351 0.250888 0.837146 7960694 3
-0.213536 0.249636 0.832970 7763572 3
0.761502 0.212973 0.978740 2631468 3
0.758607 0.207778 0.954868 2368297 3
0.774285 0.207778 0.954868 2236711 3
0.789963 0.207778 0.954868 2828848 3
0.786459 0.202831 0.932133 2828850 3
0.783803 0.230878 0.986583 2960433 3
0.793642 0.229043 0.978740 2763054 3
0.790570 0.249210 0.995100 3224118 3
0.751919 0.263455 0.987258 3092273 3
0.777938 0.266820 0.999865 2697774 3
0.790570 0.265548 0.995100 3026226 3
0.761502 0.277252 0.978740 2828335 3
0.777572 0.277252 0.978740 3354681 3
0.728238 0.280509 0.935986 4275267 3
0.777572 0.293322 0.978740 2959925 3
0.793642 0.293322 0.978740 3815743 3
0.719796 0.292447 0.925136 3617853 3
0.202320 0.258149 1.186352 6052958 3
0.221799 0.258149 1.186352 5460567 3
0.237677 0.254296 1.168645 5921372 3
0.256865 0.254296 1.168645 6184542 3
0.276053 0.254296 1.168645 6447201 3
0.290899 0.250556 1.151459 5657687 3
0.296714 0.239969 1.102806 5788506 3
0.102595 0.252412 1.159988 6381410 3
0.120746 0.250556 1.151459 7302512 3
0.139652 0.250556 1.151459 5855579 3
0.163363 0.258149 1.186352 6579300 3
0.182842 0.258149 1.186352 5789786 3
-0.281286 0.211650 0.972661 6315617 3
-0.260463 0.207778 0.954868 6249822 3
-0.236145 0.200445 0.921167 6051677 3
-0.278052 0.212914 0.909821 7433582 3
-0.267971 0.216845 0.926618 7301742 3
-0.250367 0.214795 0.917859 7301996 3
-0.493264 0.200445 0.921167 5198158 3
-0.465755 0.201631 0.926618 5526610 3
-0.453222 0.202831 0.932133 5262927 3
-0.422613 0.202831 0.932133 5855577 3
-0.402516 0.200445 0.921167 5921372 3
-0.490026 0.214154 0.915119 5395537 3
-0.470722 0.212225 0.906877 4869191 3
-0.468527 0.218136 0.932133 4539715 3
-0.453222 0.218136 0.932133 5328720 3
-0.437918 0.218136 0.932133 5657687 3
-0.419195 0.216371 0.924594 6052956 3
-0.402516 0.215569 0.921167 5197647 3
-0.476096 0.229708 0.917230 4934984 3
-0.588373 0.212973 0.978740 4276547 3
-0.572303 0.212973 0.978740 5329235 3
-0.552778 0.211650 0.972661 5987163 3
-0.508389 0.200445 0.921167 4803402 3
-0.588373 0.229043 0.978740 4408133 3
-0.572303 0.229043 0.978740 4539717 3
-0.556233 0.229043 0.978740 5263440 3
-0.516275 0.218913 0.935455 4869193 3
-0.520777 0.229488 0.916351 5460819 3
-0.535579 0.243032 0.970433 5460817 3
-0.504914 0.236142 0.942922 5198158 3
0.764546 0.201951 1.003836 2499370 3
0.774475 0.221270 1.016873 3355191 3
0.784198 0.235869 1.007910 3486777 3
0.754553 0.253578 1.012544 3026480 3
0.774103 0.254540 1.016384 2697772 3
0.781028 0.251397 1.003836 3224118 3
0.497645 0.167577 0.832970 3289912 3
0.489172 0.183202 0.841927 3618877 3
0.486321 0.195877 0.837019 4342086 3
0.480554 0.188235 0.804362 4605259 3
0.492809 0.187872 0.802813 4342087 3
0.434906 0.201951 1.003836 4539719 3
0.451388 0.201951 1.003836 4276547 3
0.473946 0.204574 1.016873 3684410 3
0.407162 0.221270 1.016873 5328722 3
0.423858 0.221270 1.016873 4999757 3
0.440554 0.221270 1.016873 4802378 3
0.451388 0.218433 1.003836 4671305 3
0.473946 0.221270 1.016873 4342340 3
0.410845 0.240119 1.026072 5393745 3
0.437415 0.245577 1.049396 5130573 3
0.458414 0.247614 1.058097 4670792 3
0.463043 0.240981 1.029756 5197136 3
0.469769 0.235869 1.007910 5065809 3
0.412519 0.258013 1.030253 5328722 3
0.457250 0.254662 1.016873 5789786 3
0.211955 0.250035 1.242845 5460821 3
0.239979 0.258233 1.283594 5395028 3
0.256844 0.254068 1.262890 5460821 3
0.277579 0.254068 1.262890 5131854 3
0.298315 0.254068 1.262890 5789271 3
-0.094953 0.207266 1.030253 7302510 3
-0.080146 0.212868 1.058097 7960440 3
-0.078037 0.224182 1.030253 5986650 3
-0.061121 0.224182 1.030253 6776420 3
-0.044795 0.227171 1.043989 6316128 3
-0.028607 0.235004 1.079989 6250335 3
-0.011027 0.238291 1.095094 6578019 3
-0.043072 0.234915 1.003836 7039851 3
-0.026590 0.234915 1.003836 6908267 3
-0.010198 0.237013 1.012799 7170156 3
-0.657118 0.203254 1.010312 3158062 3
-0.648903 0.205911 1.023519 3881785 3
-0.632097 0.205911 1.023519 3552822 3
-0.666323 0.228695 1.050996 4539717 3
-0.644739 0.227171 1.043989 5197647 3
-0.593325 0.155962 0.775240 3750463 3
-0.586402 0.157522 0.782992 3881536 3
-0.593325 0.168691 0.775240 3026740 3
-0.580596 0.168691 0.775240 2302504 3
-0.587508 0.179641 0.767639 3355451 3
-0.578817 0.180864 0.772865 4868433 3
-0.575755 0.183940 0.786007 5197395 3
-0.587508 0.192245 0.767639 3882048 3
-0.578817 0.193554 0.772865 2960947 3
-0.575755 0.196845 0.786007 3289652 3
-0.570327 0.199460 0.796449 4078653 3
-0.514406 0.193192 0.771421 4013371 3
-0.549333 0.191538 0.717760 3289911 3
-0.527409 0.187925 0.704221 5065809 3
-0.500275 0.195392 0.732200 5461071 3
0.958431 0.178600 0.966657 2235432 3
0.939506 0.172222 0.932133 1972258 3
0.958702 0.170195 0.921167 1841691 3
0.942560 0.194472 0.966657 2039332 3
0.924201 0.187526 0.932133 2564395 3
0.917657 0.183165 0.910456 2104612 3
0.724174 0.155555 0.841927 2236713 3
0.714935 0.150694 0.815617 2631471 3
0.756721 0.176991 0.879766 2236970 3
0.737997 0.169379 0.841927 2565678 3
0.735993 0.165813 0.824202 2105125 3
0.749526 0.165813 0.824202 2697262 3
0.774117 0.195837 0.899991 1974052 3
0.746019 0.185194 0.851078 2763568 3
0.735993 0.179345 0.824202 3355192 3
0.749526 0.179345 0.824202 2434092 3
0.779468 0.183202 0.841927 1973539 3
0.768245 0.197695 0.844787 3091509 3
0.785293 0.198498 0.848219 2038821 3
0.371992 0.215920 1.168645 3751230 3
0.369142 0.203755 1.102806 4013121 3
0.333616 0.235108 1.168645 4934223 3
0.342578 0.228293 1.134771 4869195 3
0.351035 0.221862 1.102806 4672332 3
0.007366 0.214320 1.159988 6315101 3
0.026411 0.214320 1.159988 6315099 3
0.046141 0.217543 1.177432 5854550 3
0.065969 0.219191 1.186352 5788503 3
0.007311 0.231650 1.151459 5525583 3
0.026217 0.231650 1.151459 6775650 3
0.046141 0.236875 1.177432 7170410 3
0.065969 0.238670 1.186352 6381410 3
0.007052 0.241671 1.110627 6446687 3
0.025837 0.246925 1.134771 6184283 3
0.045123 0.250556 1.151459 5986650 3
0.064503 0.252412 1.159988 6250337 3
0.084173 0.254296 1.168645 6447203 3
0.061323 0.258076 1.102806 6579559 3
0.079430 0.258076 1.102806 6776168 3
0.097537 0.258076 1.102806 6118238 3
-0.445672 0.203755 1.102806 4277058 3
-0.430597 0.205200 1.110627 3488308 3
-0.443840 0.220864 1.195408 4342847 3
-0.427565 0.221862 1.102806 4737605 3
-0.427522 0.231650 1.151459 5263949 3
-0.408617 0.250556 1.151459 5197645 3
-0.611488 0.147619 0.798972 3487290 3
-0.600112 0.167037 0.767639 3816255 3
-0.671392 0.175218 0.748740 2500395 3
-0.662174 0.176036 0.752234 3026480 3
-0.672249 0.182111 0.778194 3025965 3
-0.663538 0.183234 0.782992 3420209 3
-0.646253 0.181987 0.777662 3156785 3
-0.631511 0.181420 0.775240 3486265 3
-0.614612 0.180197 0.770014 3618877 3
-0.600112 0.179641 0.767639 3224119 3
-0.628645 0.175573 0.701068 2828847 3
-0.627046 0.178393 0.712328 2828588 3
-0.645397 0.187104 0.747110 3617588 3
-0.612716 0.192245 0.767639 3684159 3
-0.600112 0.192245 0.767639 3816255 3
-0.611472 0.188891 0.707839 3617588 3
0.738272 0.153268 0.910456 1841953 3
0.762082 0.155071 0.921167 2236711 3
0.731833 0.170195 0.921167 2828848 3
0.746957 0.170195 0.921167 2697264 3
0.762082 0.170195 0.921167 2499885 3
0.777207 0.170195 0.921167 1578529 3
0.742929 0.192100 0.954868 2894128 3
0.749467 0.189786 0.943364 3092020 3
0.755850 0.187526 0.932133 2631469 3
0.771154 0.187526 0.932133 3157815 3
0.777207 0.185320 0.921167 2960436 3
0.446605 0.119285 0.708590 3224116 3
0.458239 0.119285 0.708590 2895151 3
0.436947 0.131515 0.711811 3158326 3
0.448635 0.131515 0.711811 3092532 3
0.466686 0.133333 0.721652 2829360 3
0.490921 0.130330 0.705398 3158066 3
0.436947 0.143202 0.711811 3092533 3
0.444593 0.141912 0.705398 2960946 3
0.473228 0.147217 0.731768 3487290 3
0.467757 0.141912 0.705398 3224118 3
0.479339 0.141912 0.705398 3158323 3
0.449794 0.163825 0.752877 3684670 3
0.436947 0.154889 0.711811 3289912 3
0.448635 0.154889 0.711811 3684669 3
0.489231 0.164616 0.756514 2895153 3
0.485243 0.159232 0.731768 3092532 3
0.497258 0.159232 0.731768 3224116 3
0.499305 0.185390 0.792206 4013121 3
0.498871 0.180526 0.771421 3420984 3
0.497243 0.197578 0.788934 4210500 3
0.112604 0.214326 1.273158 4801610 3
0.135715 0.217868 1.294202 5591894 3
0.110803 0.231466 1.252787 5920859 3
0.130329 0.229629 1.242845 5329235 3
0.153167 0.233332 1.262890 4934734 3
0.107367 0.244220 1.213941 6381410 3
0.127299 0.244220 1.213941 5460821 3
0.149549 0.248066 1.233058 5197906 3
0.171142 0.250035 1.242845 5066063 3
0.191548 0.250035 1.242845 5592407 3
0.047206 0.202785 1.204603 4275518 3
0.066984 0.202785 1.204603 5327954 3
0.088118 0.205953 1.223425 5261648 3
0.090961 0.233332 1.262890 8814981 3
0.088812 0.248066 1.233058 6643812 3
-0.473327 0.175747 1.043989 3355956 3
-0.462350 0.178122 1.058097 3289909 3
-0.444977 0.178122 1.058097 3224118 3
-0.471604 0.185469 1.003836 4211265 3
-0.444977 0.195495 1.058097 4737355 3
-0.687769 0.148101 0.879766 2763568 3
-0.690575 0.159852 0.865185 3157561 3
-0.676369 0.159852 0.865185 3026739 3
-0.683027 0.172155 0.855729 3092022 3
-0.668977 0.172155 0.855729 4145221 3
-0.691185 0.177477 0.815617 2368037 3
-0.670806 0.175647 0.807208 2499625 3
-0.657553 0.175647 0.807208 2828337 3
-0.679315 0.185194 0.851078 3618623 3
-0.714251 0.150640 0.894848 2763057 3
-0.728944 0.165333 0.894848 2696751 3
-0.741383 0.176002 0.874852 2697772 3
-0.722980 0.175025 0.869991 2499883 3
-0.708696 0.175025 0.869991 3946818 3
-0.746921 0.181253 0.832970 2763567 3
-0.733244 0.181253 0.832970 2434089 3
-0.719568 0.181253 0.832970 2368550 3
0.544753 0.208881 0.782749 3355191 3
0.555003 0.207906 0.779097 4013121 3
0.513477 0.219353 0.774346 4539208 3
0.533077 0.222223 0.784480 4341829 3
0.547320 0.222778 0.786437 4078657 3
0.555351 0.220837 0.779586 4012864 3
0.574808 0.223424 0.788720 3881535 3
0.548525 0.236209 0.788169 3947071 3
0.563253 0.236961 0.790678 4210243 3
0.553131 0.245452 0.776469 4868173 3
0.579884 0.251526 0.795684 4013121 3
0.538994 0.276783 0.793187 5065809 3
0.510864 0.256149 0.734055 4934477 3
0.500846 0.245338 0.703072 4605512 3
0.452102 0.106209 0.699100 2828847 3
0.455447 0.104346 0.686835 2434349 3
0.470855 0.105269 0.692913 2236711 3
0.482232 0.105269 0.692913 2565676 3
0.455447 0.115623 0.686835 2763568 3
0.466725 0.115623 0.686835 3092019 3
0.482232 0.116646 0.692913 2631468 3
0.455447 0.126900 0.686835 2566189 3
0.466725 0.126900 0.686835 3289911 3
0.858437 0.237908 1.565984 3881535 3
0.825420 0.253481 1.505754 3552570 3
0.884149 0.263620 1.565984 3618877 3
0.825420 0.278204 1.505754 3816256 3
0.884149 0.289332 1.565984 3355451 3
0.785589 0.224442 1.477344 3157812 3
0.785589 0.248698 1.477344 2763054 3
0.747234 0.267900 1.449985 3815485 3
0.785589 0.272955 1.477344 3815742 3
0.747234 0.291708 1.449985 4605001 3
0.785589 0.297212 1.477344 3486777 3
0.300459 0.224442 1.477344 4276032 3
0.300459 0.248698 1.477344 4341825 3
0.324716 0.248698 1.477344 4408133 3
0.318702 0.267900 1.449985 5329233 3
0.342510 0.267900 1.449985 4737096 3
0.359657 0.263029 1.423622 5262931 3
-0.070382 0.180234 1.186352 5262929 3
-0.050143 0.177544 1.168645 4999755 3
-0.030500 0.174933 1.151459 5460306 3
-0.089185 0.198211 1.177432 5526610 3
-0.069331 0.196732 1.168645 4473411 3
-0.049045 0.192424 1.143054 5723732 3
-0.030058 0.191029 1.134771 4736837 3
-0.145700 0.156519 1.030253 4868171 3
-0.191410 0.168987 1.003836 6118238 3
-0.128784 0.173434 1.030253 5591124 3
-0.191410 0.185469 1.003836 6710373 3
-0.127111 0.187878 1.016873 7170926 3
-0.172714 0.150575 0.991129 4144195 3
-0.156440 0.150575 0.991129 5131090 3
-0.172714 0.166848 0.991129 5328724 3
-0.156440 0.166848 0.991129 5525848 3
-0.140167 0.166848 0.991129 5460308 3
-0.172714 0.183122 0.991129 6184031 3
-0.156440 0.183122 0.991129 6447205 3
-0.140167 0.183122 0.991129 6841959 3
-0.186625 0.196903 0.978740 5723478 3
-0.170555 0.196903 0.978740 6381410 3
-0.154485 0.196903 0.978740 5789273 3
-0.138415 0.196903 0.978740 7170924 3
-0.123893 0.199395 0.991129 7170926 3
-0.189656 0.199273 0.915780 6907754 3
-0.172601 0.196969 0.905193 6578787 3
-0.157738 0.196969 0.905193 7105131 3
-0.142876 0.196969 0.905193 7105131 3
-0.383789 0.201617 1.327105 4868684 3
-0.365093 0.203341 1.338448 5460821 3
-0.346075 0.205094 1.349986 5262929 3
-0.321141 0.203341 1.338448 5460308 3
-0.383789 0.223407 1.327105 5066063 3
-0.361999 0.223407 1.327105 5263442 3
-0.343117 0.225317 1.338448 5328720 3
-0.380564 0.243136 1.315953 4473672 3
-0.358957 0.243136 1.315953 5592407 3
-0.340209 0.245197 1.327105 5131343 3
-0.627993 0.154486 1.016873 2829610 3
-0.640530 0.170078 1.010312 4013371 3
-0.627993 0.171182 1.016873 3882298 3
-0.611297 0.171182 1.016873 4013886 3
-0.657118 0.186666 1.010312 3421236 3
-0.644689 0.187878 1.016873 4605508 3
-0.627993 0.187878 1.016873 4408129 3
-0.607353 0.186666 1.010312 4079166 3
0.509494 0.243952 0.699100 4539719 3
0.520973 0.243952 0.699100 4078914 3
0.500026 0.240294 0.629389 3881276 3
0.501659 0.251446 0.631445 4670792 3
0.503712 0.247363 0.621190 4342086 3
0.506070 0.253632 0.611713 3684669 3
0.502147 0.261632 0.606971 4342599 3
-0.803311 0.146857 0.966657 2565935 3
-0.819183 0.162729 0.966657 2501425 3
-0.877632 0.180833 0.978740 3092532 3
-0.861562 0.180833 0.978740 2763568 3
-0.824871 0.176422 0.954868 2435117 3
-0.893702 0.196903 0.978740 2697774 3
-0.826007 0.185320 0.921167 3092532 3
-0.810882 0.185320 0.921167 2763567 3
-0.831351 0.198114 0.910456 2895154 3
0.427569 0.214621 0.856989 4671051 3
0.432178 0.210024 0.838629 4802637 3
0.442939 0.208606 0.832970 4539466 3
0.459991 0.210148 0.839128 4934224 3
0.468017 0.207597 0.828940 4934224 3
0.471278 0.203137 0.811129 5328981 3
0.480554 0.201442 0.804362 4671051 3
0.492654 0.200990 0.802559 4473672 3
0.406928 0.217652 0.815617 5395028 3
0.420319 0.217652 0.815617 5000270 3
0.433711 0.217652 0.815617 4868430 3
0.445510 0.216877 0.812711 4539465 3
0.458108 0.216524 0.811391 4144707 3
0.471278 0.216455 0.811129 4473672 3
0.480249 0.214513 0.803853 4539465 3
0.511723 0.109132 0.718341 2433581 3
0.536325 0.126741 0.752877 2959923 3
0.504557 0.145854 0.724993 3421238 3
0.529050 0.165416 0.760186 3223857 3
0.569161 0.173855 0.798972 2631209 3
0.511071 0.180362 0.770719 3882046 3
0.516569 0.177897 0.760186 3421749 3
0.532616 0.179096 0.765310 3487029 3
0.503679 0.195054 0.778856 4013121 3
0.514069 0.194148 0.775240 4013121 3
0.526962 0.194209 0.775481 3552570 3
0.542211 0.195114 0.779097 3684156 3
0.429933 0.216527 1.597943 3354934 3
0.447046 0.212197 1.565984 2828848 3
0.472758 0.212197 1.565984 2763568 3
0.403696 0.242764 1.597943 4013121 3
0.421334 0.237908 1.565984 4341059 3
0.429852 0.228758 1.505754 3947329 3
0.454575 0.228758 1.505754 3618877 3
0.405129 0.253481 1.505754 4670024 3
0.429852 0.253481 1.505754 4341574 3
0.318487 0.212197 1.565984 3815483 3
0.377460 0.216527 1.597943 3421246 3
0.344198 0.237908 1.565984 3881535 3
0.377460 0.242764 1.597943 3421498 3
0.362657 0.258451 1.535279 3421497 3
0.387865 0.258451 1.535279 4934477 3
0.276202 0.200185 1.477344 3486777 3
0.223473 0.220286 1.449985 4210241 3
0.247280 0.220286 1.449985 4342086 3
0.273621 0.222344 1.463537 4276547 3
0.223473 0.244093 1.449985 4999757 3
0.247280 0.244093 1.449985 4539719 3
0.276202 0.248698 1.477344 4276545 3
0.219410 0.263029 1.423622 5658200 3
0.245012 0.265442 1.436683 5263442 3
0.268601 0.265442 1.436683 4671305 3
0.400050 0.263430 0.588716 5395026 3
0.409910 0.263554 0.588995 5197906 3
0.422863 0.265616 0.593602 4868941 3
0.437267 0.268476 0.599994 4605771 3
0.479656 0.264686 0.591525 4802638 3
0.489581 0.264802 0.591782 4408393 3
0.410008 0.273290 0.589136 5197906 3
0.424472 0.276410 0.595861 5592664 3
0.442563 0.275492 0.593881 5197395 3
0.454148 0.276609 0.596289 4802637 3
0.465039 0.277265 0.597704 5197395 3
0.467544 0.272998 0.588504 4539465 3
-0.598964 0.151569 1.118560 3223346 3
-0.580598 0.151569 1.118560 3091760 3
-0.590528 0.167541 1.102806 3881787 3
-0.572421 0.167541 1.102806 3487031 3
-0.554314 0.185648 1.102806 3684410 3
-0.577905 0.137790 1.016873 2566186 3
-0.568593 0.156519 1.030253 3355441 3
-0.544513 0.171182 1.016873 3289652 3
-0.534762 0.173434 1.030253 2631722 3
-0.527817 0.187878 1.016873 2895151 3
-0.517846 0.190350 1.030253 3684410 3
-0.787440 0.130986 0.966657 2433581 3
-0.787440 0.146857 0.966657 3157302 3
-0.726709 0.138319 0.910456 2301993 3
-0.798383 0.161730 0.960726 2829107 3
-0.754824 0.155988 0.926618 2236713 3
-0.789926 0.172222 0.932133 2764337 3
-0.774621 0.172222 0.932133 2960434 3
-0.795758 0.185320 0.921167 2895153 3
0.310674 0.105359 0.884737 3289139 3
0.325201 0.105359 0.884737 2894383 3
0.334065 0.103603 0.869991 2894643 3
0.346425 0.103030 0.865185 2434092 3
0.360631 0.103030 0.865185 2697521 3
0.374836 0.103030 0.865185 2500912 3
0.395598 0.104767 0.879766 2105127 3
0.327049 0.120566 0.889764 3815485 3
0.337819 0.119212 0.879766 3618364 3
0.350296 0.118546 0.874852 2960434 3
0.364660 0.118546 0.874852 2895154 3
0.383307 0.119885 0.884737 3487805 3
0.397833 0.119885 0.884737 3552571 3
0.330808 0.136729 0.899991 4605512 3
0.339727 0.134412 0.884737 4144707 3
0.350296 0.132910 0.874852 3552570 3
0.362634 0.132171 0.869991 2895153 3
0.379024 0.132910 0.874852 3619646 3
0.348350 0.146456 0.869991 4408133 3
0.360631 0.145647 0.865185 3816253 3
0.374836 0.145647 0.865185 3488058 3
0.391203 0.146456 0.869991 4210754 3
0.395598 0.162546 0.879766 4013632 3
0.488756 0.212473 0.796210 4671051 3
0.407842 0.224185 0.791405 4999757 3
0.424860 0.226328 0.798972 6118238 3
0.436449 0.225539 0.796183 5460308 3
0.448806 0.225180 0.794916 5065550 3
0.461858 0.225180 0.794916 5065550 3
0.474612 0.225038 0.794417 5065809 3
0.484158 0.223424 0.788720 4144707 3
0.494004 0.216392 0.763895 3815742 3
0.406438 0.236363 0.788681 5262931 3
0.422703 0.238231 0.794916 5526101 3
0.434242 0.237404 0.792156 5591894 3
0.446540 0.237028 0.790901 4341827 3
0.459526 0.237028 0.790901 5131343 3
0.472363 0.236954 0.790653 4473672 3
0.477834 0.233287 0.778417 4407879 3
0.481908 0.229147 0.764604 3881535 3
0.489231 0.226723 0.756514 3947328 3
0.406309 0.249233 0.788430 6710377 3
0.422036 0.250886 0.793661 7039342 3
0.434105 0.250332 0.791907 6052447 3
0.444296 0.248758 0.786927 5657687 3
0.457073 0.248680 0.786681 6249824 3
0.467497 0.247361 0.782508 4933964 3
0.473983 0.244085 0.772144 4605258 3
0.481028 0.241259 0.763206 4671564 3
0.486879 0.237994 0.752877 5592154 3
0.401643 0.259167 0.779376 5393747 3
0.417801 0.261269 0.785697 5591896 3
0.429892 0.260779 0.784222 5855068 3
0.440562 0.259479 0.780314 6052445 3
0.452527 0.258994 0.778856 5789273 3
0.461029 0.256609 0.771683 5131856 3
0.461333 0.249910 0.751537 5790045 3
0.472106 0.249084 0.749052 5461080 3
0.482386 0.248045 0.745930 5855325 3
0.415074 0.272380 0.780569 5789275 3
0.424347 0.270125 0.774105 5723482 3
0.425586 0.263035 0.753788 6381410 3
0.435082 0.261305 0.748831 5460308 3
0.440409 0.257235 0.737167 5197649 3
0.443532 0.252130 0.722537 5395285 3
0.458841 0.254038 0.728004 5001299 3
0.480803 0.259438 0.743481 4868943 3
0.479339 0.257731 0.705398 5461080 3
0.364852 0.216524 0.811391 5394774 3
0.382280 0.218875 0.820199 5328981 3
0.394830 0.218368 0.818300 5263188 3
0.309561 0.228369 0.806176 7236719 3
0.324781 0.229772 0.811129 6578789 3
0.334104 0.227058 0.801546 6249054 3
-0.293172 0.321525 2.699973 3026480 3
-0.244624 0.316076 2.654211 3355445 3
-0.204510 0.321525 2.699973 3749949 3
-0.283400 0.353661 2.609974 4605512 3
-0.240546 0.353661 2.609974 4079166 3
0.200199 0.237491 0.792446 7236971 3
0.254253 0.239383 0.798757 7038572 3
0.266082 0.238231 0.794916 7367537 3
0.279134 0.238231 0.794916 7828858 3
0.292186 0.238231 0.794916 7763576 3
0.208539 0.230921 0.730502 6907754 3
0.219188 0.229513 0.726047 7302512 3
0.243544 0.241862 0.765113 7104363 3
0.263408 0.248758 0.786927 7630709 3
0.276329 0.248758 0.786927 7499123 3
0.289249 0.248758 0.786927 6380642 3
0.205449 0.239316 0.719678 6710888 3
0.212954 0.234567 0.705398 6973547 3
0.223158 0.233127 0.701068 6776168 3
0.236935 0.235379 0.707839 7565686 3
0.252447 0.239062 0.718916 7368307 3
0.283402 0.256389 0.771020 7301744 3
0.237594 0.247688 0.709807 7566197 3
0.250168 0.248602 0.712426 6710375 3
0.266100 0.252622 0.723949 7565684 3
0.280131 0.254571 0.729532 6972777 3
0.246799 0.256794 0.702834 7500404 3
0.262460 0.260891 0.714046 6578789 3
0.276722 0.263306 0.720656 6578019 3
0.298687 0.272552 0.745961 5920857 3
0.205660 0.298705 0.720420 7828856 3
0.214175 0.294154 0.709443 7697783 3
0.223158 0.290682 0.701068 7500661 3
0.088011 0.249210 0.995100 6775400 3
0.050268 0.241235 0.903990 7105644 3
0.066107 0.244925 0.917820 7499891 3
0.081472 0.245819 0.921167 7038570 3
0.096597 0.245819 0.921167 7104363 3
-0.387069 0.159389 1.338448 3092019 3
-0.365093 0.159389 1.338448 3092019 3
-0.340209 0.158038 1.327105 3025969 3
-0.383789 0.179828 1.327105 2960433 3
-0.361999 0.179828 1.327105 2434089 3
-0.340209 0.179828 1.327105 2960176 3
-0.318420 0.179828 1.327105 2236453 3
-0.479068 0.160763 1.349986 3290163 3
-0.449158 0.158038 1.327105 3487542 3
-0.423777 0.156710 1.315953 3289398 3
-0.405579 0.158038 1.327105 3355191 3
-0.488597 0.178316 1.315953 3092271 3
-0.470948 0.179828 1.327105 2961196 3
-0.445384 0.178316 1.315953 2895405 3
-0.423777 0.178316 1.315953 2697261 3
-0.405579 0.179828 1.327105 2697261 3
-0.463099 0.198257 1.304987 4013884 3
-0.445384 0.199923 1.315953 3751230 3
0.300413 0.232871 0.995100 5526864 3
0.315487 0.231942 0.991129 6514018 3
0.331761 0.231942 0.991129 5527641 3
0.348034 0.231942 0.991129 5329492 3
0.367518 0.233986 0.999865 5789532 3
0.311544 0.245112 0.978740 5986904 3
0.327614 0.245112 0.978740 6448227 3
0.343684 0.245112 0.978740 5264469 3
0.362884 0.247246 0.987258 6250594 3
0.309489 0.246733 0.924594 6184544 3
0.323467 0.245819 0.921167 5592664 3
0.338592 0.245819 0.921167 5329492 3
0.368915 0.256381 0.960749 5920861 3
0.391893 0.261182 0.978740 6381410 3
0.215124 0.245112 0.978740 6250333 3
0.233206 0.247246 0.987258 6908006 3
0.250394 0.248215 0.991129 6512994 3
0.266667 0.248215 0.991129 6512226 3
0.280509 0.246082 0.982612 6775652 3
0.295474 0.245112 0.978740 6579039 3
0.204729 0.248562 0.931448 6974058 3
0.217594 0.245819 0.921167 7302510 3
0.234624 0.247831 0.928706 7171178 3
0.250794 0.248745 0.932133 7235949 3
0.266099 0.248745 0.932133 7565168 3
0.281404 0.248745 0.932133 7105385 3
0.296708 0.248745 0.932133 6447455 3
0.412107 0.167472 1.631234 2631730 3
0.448228 0.171035 1.665941 2764082 3
0.475581 0.171035 1.665941 2894900 3
0.412107 0.194255 1.631234 2763055 3
0.438890 0.194255 1.631234 2894640 3
0.465673 0.194255 1.631234 2763055 3
0.867422 0.167472 1.631234 1380639 3
0.894205 0.167472 1.631234 2170669 3
0.894205 0.194255 1.631234 1973287 3
0.920988 0.167472 1.631234 2565939 3
0.967937 0.171035 1.665941 2039080 3
0.940584 0.198388 1.665941 2236972 3
0.220845 0.127150 1.820912 2170917 3
0.250743 0.127150 1.820912 1973281 3
0.280640 0.127150 1.820912 2631471 3
0.220845 0.157047 1.820912 2828847 3
0.250743 0.157047 1.820912 2894383 3
0.226104 0.191396 1.864267 3289652 3
0.250743 0.186945 1.820912 3419958 3
0.314225 0.077178 0.894848 2368296 3
0.325201 0.076306 0.884737 2039331 3
0.335932 0.075453 0.874852 1776160 3
0.346425 0.074619 0.865185 2170918 3
0.308929 0.090322 0.879766 2631209 3
0.323374 0.090322 0.879766 2500136 3
0.335932 0.089817 0.874852 2565676 3
0.346425 0.088825 0.865185 2631469 3
0.360631 0.088825 0.865185 2171431 3
0.374836 0.088825 0.865185 2303531 3
0.395598 0.090322 0.879766 2500142 3
0.006575 0.242329 1.035515 6578273 3
0.023991 0.246582 1.053689 6513248 3
0.042669 0.254807 1.088834 6250335 3
0.056318 0.253642 1.012799 7039853 3
0.072596 0.252418 1.007910 7763063 3
-0.090547 0.220864 1.195408 6842213 3
-0.069853 0.217543 1.177432 6644834 3
-0.049406 0.212744 1.151459 6447712 3
-0.029842 0.208153 1.126607 5658196 3
-0.011344 0.208153 1.126607 6117722 3
-0.070919 0.240492 1.195408 6513248 3
-0.049772 0.233366 1.159988 5921368 3
-0.029419 0.223436 1.110627 6250335 3
-0.011183 0.223436 1.110627 6315101 3
0.488313 0.100483 0.978740 2038821 3
0.445047 0.113710 0.954868 2960434 3
0.466413 0.115114 0.966657 2039332 3
0.482285 0.115114 0.966657 2434090 3
0.439685 0.127829 0.943364 3157812 3
0.460725 0.129388 0.954868 3223605 3
0.482285 0.130986 0.966657 2697262 3
0.434670 0.146857 0.966657 3815742 3
0.450541 0.146857 0.966657 3026480 3
0.460725 0.145066 0.954868 3684410 3
0.482285 0.146857 0.966657 3026226 3
0.456173 0.164763 0.978740 4079166 3
0.407963 0.180833 0.978740 3355445 3
0.424033 0.180833 0.978740 3881789 3
0.413127 0.199395 0.991129 4276034 3
0.327318 0.126307 0.932133 3223346 3
0.343684 0.148693 0.978740 3354932 3
0.348034 0.166848 0.991129 5000270 3
0.359754 0.164763 0.978740 4342340 3
0.375823 0.164763 0.978740 4474183 3
0.364307 0.183122 0.991129 4737098 3
0.380581 0.183122 0.991129 4145218 3
0.391893 0.180833 0.978740 4079168 3
0.396854 0.199395 0.991129 4407620 3
0.008150 0.195007 1.283594 4473415 3
0.027856 0.185866 1.223425 5065550 3
0.047943 0.185866 1.223425 4407618 3
0.068031 0.185866 1.223425 4867401 3
0.088118 0.185866 1.223425 4933196 3
-0.447254 0.202785 1.204603 4803398 3
-0.451804 0.214326 1.273158 4540998 3
-0.438022 0.217868 1.294202 4409160 3
-0.448160 0.233332 1.262890 4342849 3
-0.434432 0.237158 1.283594 4671301 3
-0.416772 0.239118 1.294202 5460819 3
-0.448160 0.254068 1.262890 5526610 3
0.349455 0.210029 1.043989 4868943 3
0.352496 0.201951 1.003836 4605258 3
0.368978 0.201951 1.003836 4539719 3
0.385460 0.201951 1.003836 4605512 3
0.310449 0.236636 1.087489 5591894 3
0.315172 0.227171 1.043989 5526610 3
0.332313 0.227171 1.043989 5658711 3
0.336014 0.218433 1.003836 5395285 3
0.352496 0.218433 1.003836 4934734 3
0.368978 0.218433 1.003836 5789532 3
0.390466 0.221270 1.016873 5921118 3
0.388902 0.237013 1.012799 5657689 3
0.390909 0.254951 1.018027 5657689 3
-0.443744 0.180833 0.978740 4276804 3
-0.427674 0.180833 0.978740 4408390 3
-0.496183 0.186417 0.926618 5263953 3
-0.480969 0.186417 0.926618 4474437 3
-0.491954 0.196903 0.978740 4473924 3
-0.475884 0.196903 0.978740 4605510 3
-0.454137 0.194472 0.966657 3948609 3
-0.438265 0.194472 0.966657 3487542 3
-0.422394 0.194472 0.966657 3750460 3
-0.411604 0.196903 0.978740 4737355 3
-0.475344 0.199273 0.915780 5592916 3
-0.427734 0.198114 0.910456 5197649 3
-0.588373 0.132623 0.978740 3355702 3
-0.572303 0.132623 0.978740 3158325 3
-0.588373 0.148693 0.978740 3026737 3
-0.572303 0.148693 0.978740 2697772 3
-0.563274 0.150575 0.991129 2894890 3
-0.575903 0.165799 0.984896 4408133 3
-0.539378 0.159770 0.949081 3815994 3
-0.511397 0.155988 0.926618 3750201 3
-0.583239 0.184288 0.997442 2565929 3
-0.545996 0.177504 0.960726 3552824 3
-0.514441 0.172222 0.932133 3092530 3
-0.524093 0.180833 0.978740 2171682 3
-0.588373 0.196903 0.978740 4539717 3
-0.572303 0.196903 0.978740 3421238 3
-0.545996 0.193279 0.960726 3289652 3
-0.511397 0.186417 0.926618 4277058 3
-0.395527 0.235108 1.168645 5460817 3
-0.376339 0.235108 1.168645 5921111 3
-0.357151 0.235108 1.168645 5855066 3
-0.332993 0.231650 1.151459 5723482 3
-0.309535 0.228293 1.134771 5657687 3