# .PCD v0.7 - Point Cloud Data file format
VERSION 0.7
FIELDS x y z rgb label
SIZE 4 4 4 4 4
TYPE F F F U U
COUNT 1 1 1 1 1
WIDTH 1871
HEIGHT 1
VIEWPOINT 0 0 0 1 0 0 0
POINTS 1871
DATA ascii
0.003363 0.202199 0.529609 11644334 3
0.012043 0.201942 0.528937 11579309 3
0.020658 0.201263 0.527157 11908020 3
0.029221 0.200629 0.525498 11973813 3
0.037834 0.200546 0.525279 10855845 3
0.003348 0.209962 0.527267 10724000 3
0.012005 0.209962 0.527267 10460828 3
0.020710 0.210450 0.528492 10986918 3
0.029487 0.211162 0.530282 10921125 3
0.038226 0.211341 0.530730 11053224 3
0.046792 0.210671 0.529049 10921638 3
0.055478 0.210671 0.529049 10132635 3
0.063868 0.209699 0.526608 10330014 3
0.450095 0.202805 0.555069 4605258 3
0.454779 0.200849 0.549715 6775915 3
0.483438 0.205355 0.562046 6710126 3
0.483123 0.201377 0.551159 6710124 3
0.403363 0.202199 0.529609 5854299 3
0.453496 0.209283 0.548164 5920861 3
0.454334 0.205589 0.538489 5723227 3
0.471080 0.209098 0.547680 5986914 3
0.442261 0.208733 0.524181 6052447 3
0.448988 0.207862 0.521995 6710637 3
0.454351 0.206405 0.518335 6184291 3
0.460091 0.205170 0.515233 6052192 3
0.156050 0.202389 0.579994 10197404 3
0.189085 0.207286 0.594027 9014154 3
0.199309 0.207776 0.595431 8882053 3
0.137004 0.211912 0.579994 8355713 3
0.175096 0.211912 0.579994 9737875 3
0.131722 0.222054 0.557632 9802644 3
-0.092923 0.205433 0.588716 8224638 3
-0.082409 0.203340 0.582720 9211018 3
-0.089306 0.206726 0.565799 8093052 3
-0.079378 0.205076 0.561285 8684674 3
-0.095983 0.210292 0.550807 7896187 3
-0.084528 0.204458 0.535527 8356222 3
-0.031353 0.201772 0.528492 10986400 3
-0.022700 0.201985 0.529049 10724000 3
-0.014017 0.202028 0.529161 9408399 3
-0.005345 0.202670 0.530842 11908020 3
-0.092192 0.210671 0.529049 8620164 3
-0.005309 0.209962 0.527267 10592160 3
-0.134077 0.209318 0.599851 8157305 3
-0.123813 0.208619 0.597847 6183261 3
-0.114406 0.209368 0.599994 6184031 3
-0.104432 0.209122 0.599289 7105644 3
-0.178157 0.202133 0.553230 7237741 3
-0.168441 0.201378 0.551162 7895158 3
-0.122411 0.215962 0.591077 9473681 3
-0.113106 0.216729 0.593176 8158334 3
-0.103176 0.216330 0.592085 8619396 3
-0.196977 0.211919 0.555069 7434607 3
-0.185565 0.209327 0.548280 8422015 3
-0.173783 0.206032 0.539649 8750469 3
-0.162888 0.203490 0.532991 9802898 3
-0.152997 0.201985 0.529049 9735822 3
-0.115004 0.212012 0.555314 10132124 3
-0.105606 0.211451 0.553843 9079693 3
-0.195768 0.209962 0.527267 7960692 3
-0.188423 0.211435 0.530966 8027257 3
-0.180049 0.211839 0.531982 9014152 3
-0.168098 0.207862 0.521995 9736851 3
-0.160264 0.208821 0.524403 10197656 3
-0.151274 0.208298 0.523090 10723230 3
-0.111185 0.213787 0.536872 8816521 3
-0.101739 0.212469 0.533563 7961982 3
-0.109059 0.218346 0.526608 9079947 3
-0.224816 0.202343 0.579860 8223614 3
-0.214008 0.201133 0.576393 7959674 3
-0.233534 0.202895 0.555314 8880774 3
-0.224517 0.202985 0.555561 8880263 3
-0.216837 0.204344 0.559280 8617602 3
-0.208212 0.204894 0.560784 8486016 3
-0.216370 0.204411 0.535403 7038573 3
-0.213032 0.209781 0.549468 8419964 3
-0.204146 0.209920 0.549834 7828338 3
-0.249900 0.204665 0.513965 9407120 3
-0.211791 0.208690 0.524072 10525601 3
-0.206385 0.211975 0.532323 10327959 3
-0.495405 0.208024 0.596141 7105133 3
-0.482522 0.206698 0.592342 7039340 3
-0.473130 0.206844 0.592759 5789784 3
-0.484334 0.208819 0.571527 5262931 3
-0.470252 0.206753 0.565873 5855068 3
-0.458868 0.205814 0.563304 5000270 3
-0.457710 0.209518 0.573441 5000270 3
0.402269 0.206849 0.622042 7236978 3
0.409332 0.205269 0.617291 7893879 3
0.420088 0.205573 0.618205 7959421 3
0.428135 0.204568 0.615182 7696251 3
0.428766 0.200147 0.601889 7367538 3
0.400298 0.221626 0.635120 7236978 3
0.400193 0.215942 0.618832 5855325 3
0.403401 0.212283 0.608347 6381412 3
0.209085 0.198000 0.595431 8487808 3
0.218861 0.198000 0.595431 8816775 3
0.229262 0.198540 0.597056 8751496 3
0.217288 0.197462 0.565873 8554117 3
0.299541 0.196565 0.563304 8158334 3
0.012372 0.180696 0.543394 9736337 3
0.021280 0.180577 0.543038 11117990 3
0.091531 0.178474 0.536714 8816264 3
0.003405 0.187141 0.536296 10064789 3
0.012208 0.187101 0.536182 9802130 3
0.020940 0.186463 0.534352 10262681 3
0.029550 0.185435 0.531406 10197402 3
0.038234 0.185238 0.530842 10724000 3
0.046960 0.185277 0.530955 10526367 3
0.055855 0.185868 0.532648 10592673 3
0.064560 0.185750 0.532311 10132120 3
0.072606 0.183990 0.527267 10329239 3
0.081297 0.184068 0.527491 9802898 3
0.003382 0.194613 0.532648 10854305 3
0.012123 0.194531 0.532423 11183783 3
0.020732 0.193298 0.529049 12433850 3
0.029351 0.192851 0.527824 12171192 3
0.037969 0.192607 0.527157 11513516 3
0.046371 0.191560 0.524290 10329242 3
0.054933 0.191399 0.523850 9803157 3
0.063707 0.191921 0.525279 9934741 3
0.071895 0.190761 0.522104 10263446 3
0.080719 0.191359 0.523741 10000277 3
0.089300 0.191319 0.523631 10263710 3
0.097592 0.190721 0.521995 10197915 3
0.046168 0.199292 0.521995 9934743 3
0.054489 0.198384 0.519618 10395807 3
0.062838 0.197810 0.518114 10066842 3
0.070000 0.194080 0.508344 10921636 3
0.078187 0.193686 0.507312 9671569 3
0.087850 0.196670 0.515126 10263706 3
0.096526 0.197116 0.516295 8684676 3
-0.023164 0.179518 0.539851 11250090 3
-0.048270 0.182760 0.523741 9276554 3
-0.040229 0.185333 0.531114 9144968 3
-0.031715 0.186542 0.534580 8750210 3
-0.023016 0.187181 0.536411 8552577 3
-0.014288 0.188229 0.539415 9144200 3
-0.005412 0.187544 0.537452 8025465 3
-0.046408 0.183975 0.503532 9144968 3
-0.039469 0.190385 0.521075 8289659 3
-0.031460 0.193749 0.530282 8947589 3
-0.022782 0.193995 0.530955 9934230 3
-0.014109 0.194613 0.532648 10591646 3
-0.005363 0.194613 0.532648 10854564 3
-0.039262 0.197899 0.518347 9604747 3
-0.191338 0.187993 0.565337 8421506 3
-0.182966 0.188933 0.568164 7566706 3
-0.176317 0.191849 0.576933 8158843 3
-0.190180 0.196081 0.561916 8422017 3
-0.180751 0.195861 0.561285 8685187 3
-0.171346 0.195645 0.560667 7763572 3
-0.159462 0.192412 0.551403 8289659 3
-0.150408 0.192412 0.551403 7959924 3
-0.156845 0.198160 0.542355 9538956 3
-0.147296 0.197298 0.539995 8880513 3
-0.138460 0.197340 0.540111 8814974 3
0.435507 0.188902 0.597578 8157568 3
0.443824 0.188268 0.595573 7434358 3
0.455226 0.188942 0.597704 7500150 3
0.465039 0.188942 0.597704 7171698 3
0.474967 0.188987 0.597847 6842734 3
0.426207 0.194471 0.584818 6775915 3
0.428852 0.191366 0.575482 7368052 3
0.435289 0.190051 0.571527 7039599 3
0.446921 0.191012 0.574416 7236978 3
0.456243 0.190966 0.574280 7763836 3
0.466749 0.191408 0.575607 6974320 3
0.484655 0.194806 0.585827 7105393 3
0.491071 0.193544 0.582031 6513256 3
0.498875 0.192866 0.579994 6446950 3
0.416778 0.195161 0.559280 6117985 3
0.425961 0.195161 0.559280 5920861 3
0.435340 0.195249 0.559532 6118497 3
0.447225 0.196434 0.562928 6645354 3
0.451896 0.194467 0.557290 6973807 3
0.459922 0.193993 0.555931 7236979 3
0.469057 0.193996 0.555940 6578538 3
0.488700 0.198261 0.568164 6249573 3
0.495451 0.197235 0.565224 6644329 3
0.499785 0.195302 0.559685 5854813 3
0.496202 0.190401 0.545639 7236721 3
0.407597 0.199842 0.546959 5854299 3
0.409860 0.196620 0.538139 6052447 3
0.418695 0.196620 0.538139 6118240 3
0.431167 0.198292 0.542716 5131856 3
0.459587 0.199023 0.544715 7302261 3
0.486518 0.199063 0.544827 6052192 3
0.482137 0.193709 0.530173 6315619 3
-0.304429 0.179716 0.568519 7434611 3
-0.323581 0.178991 0.538267 6250076 3
-0.314267 0.178720 0.537452 5658196 3
-0.306961 0.179608 0.540123 5197647 3
-0.333023 0.183297 0.525279 5197134 3
-0.322370 0.182150 0.521995 5197134 3
-0.314587 0.182608 0.523305 6578787 3
-0.307277 0.183373 0.525498 7302510 3
-0.341790 0.192001 0.525498 5526099 3
-0.333023 0.191921 0.525279 6776168 3
-0.322303 0.190682 0.521886 9210509 3
-0.312045 0.189655 0.519076 10592162 3
-0.303145 0.189419 0.518431 9078923 3
-0.334223 0.196187 0.513864 7499891 3
-0.329637 0.198507 0.519940 9867923 3
-0.317998 0.196589 0.514916 8025719 3
-0.305593 0.194080 0.508344 6446433 3
0.355973 0.200623 0.669426 8157570 3
0.368232 0.201316 0.671739 9407637 3
0.390766 0.201231 0.636579 7434611 3
0.367016 0.204281 0.614321 6381923 3
0.386646 0.209451 0.629867 6381923 3
0.395695 0.208769 0.627816 6776427 3
0.181133 0.179814 0.599994 9868950 3
0.170752 0.189079 0.598137 10723746 3
0.179118 0.187555 0.593317 9539726 3
0.189623 0.188314 0.595716 9145225 3
0.139898 0.196940 0.592245 9078923 3
0.151507 0.199422 0.599709 8683395 3
0.160165 0.197953 0.595290 10394785 3
0.169296 0.197203 0.593036 10197402 3
0.178441 0.196552 0.591077 9013639 3
0.188859 0.197297 0.593317 8553088 3
0.199309 0.198000 0.595431 8882053 3
0.106920 0.183450 0.525720 7829367 3
0.118160 0.187591 0.537586 8618883 3
0.106162 0.190721 0.521995 9606291 3
0.116011 0.192846 0.527809 8289918 3
0.104403 0.195989 0.513343 9605776 3
0.113883 0.197816 0.518129 9737362 3
0.015369 0.202291 0.674993 8815749 3
0.026296 0.201103 0.671027 8881544 3
0.037887 0.204191 0.681332 9736853 3
0.049771 0.207093 0.691014 9210509 3
0.059329 0.201035 0.670803 9670292 3
0.004146 0.206396 0.652920 11117990 3
0.014981 0.207995 0.657977 10525853 3
0.025637 0.206803 0.654207 9604751 3
0.036552 0.207789 0.657327 11381676 3
0.048617 0.213374 0.674993 10065048 3
0.058167 0.207896 0.657663 10196636 3
0.068121 0.205353 0.649618 10131611 3
0.078523 0.204663 0.647438 9210507 3
0.089850 0.206262 0.652493 10131861 3
-0.094495 0.200249 0.668178 9079175 3
-0.089799 0.200724 0.634975 10395035 3
-0.079352 0.200671 0.634807 10000275 3
-0.068842 0.200416 0.634002 10263706 3
-0.058432 0.200416 0.634002 10131863 3
-0.037566 0.200163 0.633203 10986918 3
-0.027279 0.200976 0.635773 10592160 3
-0.016909 0.201795 0.638365 11381162 3
-0.006438 0.202104 0.639341 11907252 3
-0.095068 0.200284 0.602302 9145227 3
-0.085199 0.200333 0.602447 10263449 3
-0.078049 0.207626 0.624380 9276811 3
-0.195733 0.202841 0.676827 7237741 3
-0.183243 0.201327 0.671776 7303275 3
-0.192306 0.210208 0.664976 8027257 3
-0.175466 0.203344 0.643266 8422015 3
-0.136862 0.203614 0.612313 9999507 3
-0.126191 0.202622 0.609332 8420477 3
-0.116243 0.202722 0.609631 8420993 3
-0.106886 0.203966 0.613373 8816262 3
-0.280068 0.178660 0.596141 8354684 3
-0.271712 0.179607 0.599301 7301742 3
-0.284841 0.185187 0.585827 7893879 3
-0.275609 0.185447 0.586649 8156540 3
-0.267606 0.186583 0.590243 7695989 3
-0.259568 0.187780 0.594027 6512228 3
-0.250405 0.188223 0.595431 8946569 3
-0.240920 0.188451 0.596152 9210511 3
-0.299183 0.180265 0.542099 6579302 3
-0.292306 0.181522 0.545878 6645095 3
-0.285897 0.183158 0.550798 5987165 3
-0.277467 0.183564 0.552020 7105133 3
-0.274948 0.188040 0.565479 8354432 3
-0.266929 0.188936 0.568174 8419712 3
-0.262959 0.192866 0.579994 7828086 3
-0.254737 0.193856 0.582970 8749188 3
-0.245734 0.194306 0.584322 10986152 3
-0.236195 0.194351 0.584459 8618374 3
-0.227341 0.194988 0.586374 6118240 3
-0.216901 0.194261 0.584187 5656920 3
-0.203858 0.191026 0.574460 7960189 3
-0.298649 0.183373 0.525498 9736853 3
-0.290082 0.183412 0.525609 10263197 3
-0.283056 0.184457 0.528604 9736853 3
-0.278202 0.187029 0.535975 9802905 3
-0.271842 0.188723 0.540829 10000027 3
-0.271826 0.195084 0.559059 10197404 3
-0.265717 0.197365 0.565594 9407888 3
-0.259478 0.199710 0.572317 8617602 3
-0.250022 0.199663 0.572181 9407118 3
-0.240353 0.199435 0.571527 9867669 3
-0.231183 0.199619 0.572056 8946569 3
-0.202640 0.199260 0.571027 10394785 3
-0.291682 0.187522 0.513239 6052445 3
-0.280833 0.185919 0.508851 6315617 3
-0.271375 0.185166 0.506791 8749958 3
-0.269217 0.189504 0.518664 8815753 3
-0.265025 0.192648 0.527267 9276304 3
-0.297000 0.193919 0.507922 6249826 3
-0.286979 0.192789 0.504964 7105133 3
-0.277007 0.191627 0.501918 7763061 3
-0.268766 0.191627 0.501918 7697270 3
-0.262479 0.193064 0.505684 6184290 3
-0.258658 0.196468 0.514599 7105393 3
-0.250621 0.196792 0.515447 7368307 3
-0.494436 0.202291 0.674993 7105131 3
-0.483224 0.202237 0.674812 6710886 3
-0.468862 0.200831 0.670122 5526612 3
-0.457246 0.200562 0.669224 6513248 3
-0.446258 0.200562 0.669224 7039592 3
-0.435040 0.200456 0.668870 6842211 3
-0.470850 0.203195 0.642794 6381408 3
-0.461473 0.203715 0.644438 6118749 3
-0.499528 0.203914 0.613218 5986650 3
-0.491145 0.204617 0.615330 5855064 3
-0.485805 0.206643 0.621422 6051925 3
-0.476904 0.207209 0.623124 7236203 3
-0.468538 0.208036 0.625614 6578789 3
-0.458837 0.208296 0.626394 6447201 3
-0.448552 0.208296 0.626394 5987163 3
-0.471565 0.210490 0.603207 7104615 3
-0.474431 0.216312 0.619893 6512994 3
0.212785 0.178388 0.668480 6908267 3
0.232841 0.185627 0.695610 6776679 3
0.242244 0.184093 0.689861 7368816 3
0.255906 0.185788 0.696213 7434100 3
0.208631 0.176560 0.623280 6316128 3
0.219903 0.177397 0.626238 7697781 3
0.230634 0.177743 0.627458 7763576 3
0.264115 0.194843 0.687822 6973549 3
0.288665 0.196177 0.692533 7039599 3
0.295788 0.193400 0.682729 7236978 3
0.206730 0.185092 0.617603 8487810 3
0.218212 0.186236 0.621422 9672084 3
0.229823 0.187385 0.625254 8816264 3
0.254758 0.198833 0.663454 8289920 3
0.288551 0.199603 0.666025 6578791 3
0.297195 0.198076 0.660928 6973549 3
0.201902 0.190673 0.603179 9211018 3
0.212880 0.191640 0.606238 9737875 3
0.223103 0.191871 0.606971 8553603 3
0.299651 0.199719 0.600600 6973806 3
-0.179028 0.186361 0.698360 9343117 3
-0.164301 0.182736 0.684773 7896441 3
-0.152890 0.182536 0.684023 8291456 3
-0.143107 0.184401 0.691014 8553601 3
-0.132124 0.184908 0.692913 9014154 3
-0.121522 0.186095 0.697363 8356992 3
-0.187046 0.194247 0.685719 8290427 3
-0.173235 0.191427 0.675765 8422783 3
-0.159808 0.188674 0.666047 8620675 3
-0.147689 0.187175 0.660753 7370354 3
-0.137239 0.187720 0.662678 8553603 3
-0.126627 0.188119 0.664087 8355711 3
-0.117119 0.190388 0.672096 8093052 3
-0.106456 0.191056 0.674455 8619394 3
-0.164011 0.191738 0.639780 7962231 3
-0.152043 0.189911 0.633683 7633267 3
-0.140572 0.188480 0.628909 7238511 3
-0.130245 0.188480 0.628909 8158332 3
-0.120200 0.188922 0.630383 8816264 3
-0.113703 0.195548 0.652493 8619396 3
-0.103155 0.195862 0.653539 8684676 3
-0.161395 0.199017 0.629577 8159096 3
-0.150257 0.197962 0.626238 8158841 3
-0.139451 0.197222 0.623898 10132120 3
-0.129208 0.197222 0.623898 10263195 3
-0.119024 0.197321 0.624211 9013130 3
-0.109566 0.198757 0.628752 9539985 3
-0.298010 0.181996 0.682003 8486270 3
-0.295994 0.184938 0.652857 8420223 3
-0.287741 0.186537 0.658502 8354430 3
-0.282048 0.189985 0.670672 8815751 3
-0.280088 0.196330 0.693073 8947339 3
-0.268743 0.184319 0.615024 6051675 3
-0.259983 0.185272 0.618205 5789275 3
-0.251607 0.186588 0.622597 7631479 3
0.106676 0.173342 0.692160 8880774 3
0.115769 0.170006 0.678836 9933462 3
0.125259 0.167788 0.669982 7762293 3
0.132665 0.163361 0.652306 7696241 3
0.139995 0.159511 0.636930 7696754 3
0.162788 0.172588 0.689147 7828856 3
0.106648 0.184658 0.691976 8749188 3
0.114532 0.179216 0.671586 10788771 3
0.123276 0.175958 0.659376 10525599 3
0.130743 0.171550 0.642855 9735824 3
0.138790 0.168505 0.631445 8157305 3
0.148672 0.167956 0.629389 8749958 3
0.157150 0.165996 0.622042 7171439 3
0.166535 0.165175 0.618966 7302514 3
0.176134 0.164647 0.616990 7368564 3
0.184716 0.163279 0.611863 7105903 3
0.103556 0.190337 0.671917 10460574 3
0.112752 0.187287 0.661149 10263195 3
0.121234 0.183691 0.648455 9407886 3
0.129668 0.180608 0.637573 10723232 3
0.137679 0.177442 0.626394 11381162 3
0.147522 0.176912 0.624523 10526369 3
0.156490 0.175469 0.619430 8749958 3
0.164785 0.173495 0.612462 8288637 3
0.173613 0.172277 0.608161 7894649 3
0.181830 0.170617 0.602302 8553090 3
0.193972 0.172622 0.609378 8026746 3
0.102702 0.199709 0.666376 9013128 3
0.112600 0.197875 0.660259 9144714 3
0.121234 0.194338 0.648455 9013128 3
0.129668 0.191077 0.637573 9605265 3
0.137679 0.187726 0.626394 12236985 3
0.147927 0.187680 0.626238 12170424 3
0.157111 0.186377 0.621890 10130841 3
0.164548 0.183287 0.611581 10788514 3
0.172942 0.181557 0.605808 11184299 3
0.192187 0.180947 0.603772 8355711 3
0.125388 0.194893 0.616529 10197402 3
0.135545 0.194941 0.616682 10394781 3
0.146210 0.195663 0.618966 10394013 3
0.155380 0.194421 0.615036 10854564 3
0.162208 0.190579 0.602884 11644082 3
0.061086 0.172969 0.690668 8881546 3
0.071808 0.171492 0.684773 9078156 3
0.083211 0.171821 0.686087 8947850 3
0.095021 0.172814 0.690052 8420993 3
0.004388 0.184401 0.691014 9079434 3
0.015777 0.184908 0.692913 8618883 3
0.027320 0.186043 0.697167 8355713 3
0.038875 0.186559 0.699100 8882057 3
0.050353 0.186559 0.699100 9407890 3
0.060544 0.182672 0.684536 11380911 3
0.071070 0.180857 0.677733 11446704 3
0.081955 0.180323 0.675733 9868952 3
0.094891 0.183892 0.689106 8025465 3
0.004203 0.187482 0.661839 8486784 3
0.015369 0.191209 0.674993 8026233 3
0.026296 0.190085 0.671027 8552579 3
0.038356 0.195393 0.689764 8618372 3
0.050353 0.198037 0.699100 10394783 3
0.060015 0.192219 0.678560 9670292 3
0.070122 0.189424 0.668695 9209741 3
0.080202 0.187325 0.661282 9276815 3
0.092178 0.189625 0.669404 9078921 3
0.004229 0.199617 0.666070 8552577 3
0.069200 0.197768 0.659900 8683397 3
0.078607 0.194240 0.648129 9605778 3
0.091397 0.198915 0.663729 9473679 3
-0.394340 0.173772 0.693876 7959926 3
-0.384764 0.174596 0.697167 7367789 3
-0.371871 0.173920 0.694467 7959926 3
-0.354376 0.170980 0.682729 8617345 3
-0.342322 0.170560 0.681049 9209482 3
-0.331501 0.170746 0.681792 8552063 3
-0.392059 0.184093 0.689861 7762545 3
-0.384238 0.185788 0.696213 8091510 3
-0.371871 0.185322 0.694467 8025717 3
-0.355437 0.182736 0.684773 8551809 3
-0.343723 0.182486 0.683836 8749188 3
-0.332495 0.182486 0.683836 8946821 3
-0.321267 0.182486 0.683836 9144714 3
-0.309955 0.182436 0.683650 9012614 3
-0.398124 0.192871 0.680863 7368557 3
-0.386945 0.192871 0.680863 8092278 3
-0.375766 0.192871 0.680863 7763315 3
-0.364488 0.192819 0.680678 7960694 3
-0.350835 0.191467 0.675906 8223614 3
-0.338277 0.190644 0.673002 9013130 3
-0.323431 0.188433 0.665194 8684163 3
-0.304009 0.183307 0.647101 8420477 3
-0.397119 0.197976 0.660594 8552831 3
-0.367972 0.199818 0.666741 7697268 3
-0.352332 0.197191 0.657977 8026235 3
-0.336526 0.194303 0.648340 8289920 3
-0.320378 0.191022 0.637391 8553092 3
-0.306776 0.189089 0.630941 7828854 3
-0.364711 0.197166 0.623720 7895412 3
-0.499726 0.167106 0.667257 4802637 3
-0.416898 0.173677 0.693496 7104365 3
-0.425869 0.184020 0.689586 6972777 3
-0.411431 0.182637 0.684403 7301742 3
-0.405059 0.184857 0.692723 8091512 3
-0.499623 0.188978 0.667120 6381412 3
-0.498473 0.192770 0.680504 6381921 3
-0.494000 0.195420 0.689861 5987163 3
-0.484142 0.196015 0.691959 5197647 3
-0.470577 0.195101 0.688735 7039592 3
-0.458002 0.194563 0.686835 7631729 3
-0.446725 0.194563 0.686835 7631727 3
-0.432728 0.193348 0.682545 7434350 3
-0.418662 0.192036 0.677915 7368305 3
-0.407642 0.192088 0.678099 7434096 3
-0.499685 0.191557 0.639177 7170410 3
-0.492086 0.192691 0.642960 6775398 3
-0.493636 0.197536 0.659127 6841961 3
-0.415866 0.196584 0.655949 7236971 3
-0.403174 0.195651 0.652836 7565682 3
-0.494911 0.196005 0.620048 6513248 3
-0.489082 0.197765 0.625614 6907234 3
-0.480730 0.198558 0.628123 6973031 3
-0.472673 0.199510 0.631136 7301742 3
-0.558009 0.175080 0.699100 5526099 3
-0.525920 0.168478 0.672736 5328469 3
-0.505703 0.165477 0.660753 3947329 3
-0.517383 0.169490 0.635137 3486770 3
-0.514933 0.172157 0.645132 2762793 3
-0.512229 0.174850 0.655223 2499625 3
-0.508838 0.177419 0.664849 2894128 3
-0.507109 0.180692 0.677116 4539465 3
-0.545479 0.178872 0.631445 4407620 3
-0.532168 0.177889 0.627972 3354932 3
-0.522115 0.177976 0.628282 3947067 3
-0.515939 0.179416 0.633364 4078907 3
-0.512820 0.182000 0.642485 4012346 3
-0.510095 0.184835 0.652493 4341057 3
-0.503728 0.186443 0.658172 5526103 3
-0.528715 0.186978 0.623898 4670792 3
-0.519897 0.187493 0.625614 5394513 3
-0.511670 0.188245 0.628123 6644062 3
-0.505037 0.189626 0.632734 6051927 3
-0.522471 0.194893 0.616529 5130573 3
-0.512348 0.194893 0.616529 5854550 3
-0.502225 0.194893 0.616529 6249308 3
-0.018114 0.160030 0.683836 8421502 3
-0.006958 0.161719 0.691056 8816262 3
-0.075911 0.175080 0.699100 9868437 3
-0.061479 0.167056 0.667058 9736337 3
-0.049270 0.162900 0.650464 8880774 3
-0.038380 0.162016 0.646935 8420991 3
-0.027651 0.161391 0.644438 8947589 3
-0.017176 0.162397 0.648455 8553088 3
-0.006682 0.166181 0.663565 9539987 3
-0.085652 0.182851 0.685205 8223866 3
-0.071334 0.175311 0.656951 8881542 3
-0.060044 0.173853 0.651485 9144200 3
-0.048940 0.172418 0.646109 9407118 3
-0.038222 0.171928 0.644273 7894647 3
-0.027460 0.170787 0.639996 9276554 3
-0.016931 0.170568 0.639177 8881796 3
-0.006466 0.171363 0.642156 9013643 3
-0.096111 0.192515 0.679606 8026487 3
-0.081844 0.185471 0.654737 9144968 3
-0.069868 0.182274 0.643454 10065816 3
-0.059151 0.181805 0.641797 9736337 3
-0.048477 0.181295 0.639996 10394013 3
-0.037920 0.181063 0.639177 9867923 3
-0.027349 0.180557 0.637391 9341577 3
-0.016909 0.180833 0.638365 9539726 3
-0.006439 0.181156 0.639506 8157821 3
-0.080623 0.193295 0.644976 9473933 3
-0.069404 0.191557 0.639177 10394781 3
-0.058745 0.191022 0.637391 9538958 3
-0.048084 0.190248 0.634807 10920357 3
-0.037613 0.190006 0.634002 10328474 3
-0.027279 0.190537 0.635773 10262679 3
-0.016914 0.191363 0.638529 10591644 3
-0.006473 0.192646 0.642808 9144716 3
-0.098920 0.198111 0.626709 9013641 3
-0.047890 0.199860 0.632244 10789539 3
-0.780118 0.203593 0.869991 3552313 3
-0.765833 0.203593 0.869991 3815481 3
-0.765779 0.213873 0.854001 4078655 3
-0.760630 0.216398 0.864081 3552311 3
-0.749185 0.227115 0.851078 3683897 3
0.250487 0.171234 0.786927 8158334 3
0.258218 0.167860 0.771421 7566708 3
0.272225 0.168691 0.775240 7698040 3
0.292186 0.172973 0.794916 7566456 3
0.237868 0.184388 0.787923 8027773 3
0.242157 0.178030 0.760756 7303536 3
0.243596 0.170304 0.727738 8027257 3
0.252245 0.168105 0.718341 7763833 3
0.264876 0.168637 0.720617 7369078 3
0.279360 0.170254 0.727525 7894908 3
0.210270 0.195720 0.781516 7960701 3
0.222670 0.195342 0.780005 7763835 3
0.231673 0.192186 0.767405 7698040 3
0.237364 0.186750 0.745699 8158334 3
0.240323 0.179804 0.717962 7895158 3
0.250095 0.178366 0.712219 8092539 3
0.264876 0.180469 0.720617 7960444 3
0.277105 0.180728 0.721652 7302261 3
0.290105 0.181448 0.724526 7565943 3
0.271185 0.188463 0.706234 6446950 3
0.287628 0.191693 0.718341 8026494 3
0.299423 0.191693 0.718341 7303284 3
0.280946 0.198760 0.701652 7171185 3
0.111736 0.157757 0.724993 7631988 3
0.135565 0.172973 0.794916 8552577 3
0.108381 0.164567 0.703224 8158332 3
0.120130 0.164844 0.704410 7368303 3
0.148850 0.186317 0.796166 7959926 3
0.180626 0.179054 0.714968 8158334 3
0.004972 0.170378 0.782992 8421245 3
0.017828 0.170378 0.782992 9144714 3
0.030082 0.167037 0.767639 9474194 3
0.041865 0.163825 0.752877 9408401 3
0.055290 0.167037 0.767639 8882057 3
0.068228 0.167860 0.771421 7631990 3
0.079716 0.165416 0.760186 7566197 3
0.088751 0.159232 0.731768 8553092 3
0.099833 0.157757 0.724993 8224125 3
0.004499 0.165823 0.708590 8882053 3
0.016286 0.167391 0.715294 8947846 3
0.028150 0.168105 0.718341 8224127 3
0.039956 0.168153 0.718548 7960955 3
0.051948 0.168783 0.721240 7960955 3
0.063243 0.167337 0.715061 8618885 3
0.074921 0.167196 0.714457 9605780 3
0.085553 0.165076 0.705398 8553092 3
0.097135 0.165076 0.705398 8816775 3
0.004479 0.176658 0.705398 9671571 3
0.016061 0.176658 0.705398 8882055 3
0.027643 0.176658 0.705398 8618885 3
0.039225 0.176658 0.705398 8816264 3
0.050495 0.175573 0.701068 9013132 3
-0.373242 0.167037 0.767639 4341311 3
-0.360638 0.167037 0.767639 4209723 3
-0.398277 0.168879 0.721652 5986650 3
-0.381302 0.166639 0.712079 6314847 3
-0.365344 0.164715 0.703859 5985884 3
-0.389666 0.181420 0.775240 5985882 3
-0.374397 0.180197 0.770014 6512480 3
-0.360638 0.179641 0.767639 6512478 3
-0.357801 0.184682 0.789180 6907752 3
-0.349011 0.186914 0.798718 6841961 3
-0.334192 0.185966 0.794665 7302512 3
-0.318519 0.184445 0.788169 7039338 3
-0.304048 0.183522 0.784222 8092280 3
-0.328921 0.175337 0.700127 8486784 3
-0.333288 0.184100 0.735114 7433582 3
-0.332748 0.190708 0.761501 8091512 3
-0.327645 0.195114 0.779097 8223614 3
-0.314853 0.195114 0.779097 8223614 3
-0.301967 0.195054 0.778856 8618370 3
-0.300699 0.190808 0.715024 7631477 3
-0.547268 0.155596 0.715061 4342600 3
-0.535527 0.155596 0.715061 4539978 3
-0.546234 0.162265 0.745707 3749690 3
-0.504466 0.164616 0.756514 5065548 3
-0.554607 0.169581 0.724651 4407880 3
-0.526830 0.164619 0.703449 5065809 3
-0.534025 0.170608 0.729038 4012862 3
-0.528953 0.172862 0.738672 5591894 3
-0.515157 0.172304 0.736288 6118236 3
-0.504257 0.172712 0.738028 6184281 3
-0.508952 0.183121 0.782509 5459790 3
-0.529005 0.180862 0.722185 4473924 3
-0.521124 0.182252 0.727738 5592405 3
-0.502891 0.180003 0.718757 4802889 3
-0.525624 0.191488 0.717570 4539717 3
-0.516470 0.192467 0.721240 4934475 3
-0.500305 0.190818 0.715061 4408131 3
-0.789926 0.202831 0.932133 3881789 3
-0.793515 0.207778 0.954868 4342086 3
-0.787440 0.210343 0.966657 3749949 3
-0.771568 0.210343 0.966657 3882049 3
-0.728707 0.202831 0.932133 4210503 3
-0.788455 0.213591 0.912714 4934477 3
-0.789926 0.218136 0.932133 4013121 3
-0.787610 0.221794 0.947764 4013121 3
-0.777837 0.223456 0.954868 3026226 3
-0.737787 0.216311 0.924335 4473926 3
-0.788455 0.228577 0.912714 3552311 3
-0.789926 0.233440 0.932133 3355191 3
0.514117 0.111718 0.555314 5921118 3
0.523235 0.111718 0.555314 5855325 3
0.512266 0.122574 0.563304 7631737 3
0.508705 0.119564 0.549468 7236466 3
0.517727 0.119564 0.549468 7170928 3
0.526749 0.119564 0.549468 6973549 3
0.576206 0.128587 0.590937 4802378 3
0.590364 0.129565 0.595431 3947580 3
0.505603 0.127801 0.546117 8881291 3
0.509905 0.126643 0.541166 6512998 3
0.518235 0.126507 0.540587 4144448 3
0.538493 0.129239 0.552260 3420723 3
0.550588 0.129953 0.555314 3947067 3
0.561711 0.130419 0.557303 4539208 3
0.515769 0.150170 0.599634 5657946 3
0.509439 0.145549 0.581181 5460567 3
0.505603 0.136768 0.546117 8025982 3
0.509796 0.135499 0.541050 7828858 3
0.516224 0.134857 0.538489 7630709 3
0.531460 0.136500 0.545047 6314847 3
0.539472 0.136263 0.544102 3156783 3
0.513660 0.153501 0.575222 6512743 3
0.505985 0.148478 0.556397 6446950 3
0.510274 0.147081 0.551162 6446950 3
0.512016 0.145011 0.543406 6973549 3
0.515888 0.143605 0.538139 6775400 3
0.524500 0.143544 0.537909 7301742 3
0.509045 0.153040 0.540253 7828858 3
0.511060 0.151015 0.533103 8420225 3
0.517391 0.150311 0.530619 8354430 3
0.509951 0.171146 0.571069 7039087 3
0.503215 0.165836 0.553351 7499638 3
0.508169 0.164499 0.548889 6512743 3
0.506190 0.161003 0.537224 6447205 3
0.509220 0.159192 0.531183 7893881 3
0.507108 0.182878 0.578523 6907501 3
0.502987 0.171741 0.543291 7763065 3
0.502741 0.168666 0.533563 7368307 3
0.506876 0.192289 0.578258 7302259 3
0.507510 0.188989 0.568335 7039087 3
0.501443 0.183359 0.551403 7631224 3
0.507498 0.182282 0.548164 7697529 3
0.503524 0.189784 0.543871 7631736 3
0.114095 0.166690 0.828563 7829367 3
0.131169 0.171220 0.851078 8092539 3
0.146738 0.173101 0.860431 8947848 3
0.163561 0.176002 0.874852 8224125 3
0.178925 0.176991 0.879766 8421502 3
0.195567 0.179002 0.889764 7960953 3
0.159986 0.186206 0.855729 8749956 3
0.174036 0.186206 0.855729 9670544 3
0.190165 0.188263 0.865185 8355198 3
0.171001 0.196763 0.840804 8419964 3
0.186748 0.198831 0.849641 8222844 3
0.005464 0.173101 0.860431 6249306 3
0.019170 0.169379 0.841927 6447201 3
0.033718 0.173101 0.860431 6184033 3
0.047846 0.173101 0.860431 7960701 3
0.064823 0.181060 0.899991 6579300 3
0.076521 0.174058 0.865185 6579300 3
0.084213 0.161561 0.803069 7303023 3
0.097398 0.161561 0.803069 7237230 3
-0.062103 0.164945 0.819887 6842985 3
-0.048641 0.164945 0.819887 5855579 3
-0.035364 0.165813 0.824202 5987163 3
-0.021832 0.165813 0.824202 5987163 3
-0.008664 0.173101 0.860431 7039851 3
-0.008128 0.175647 0.807208 8487297 3
-0.099873 0.160737 0.798972 6184544 3
-0.086315 0.159921 0.794916 5987165 3
-0.098368 0.171234 0.786927 8223612 3
-0.084597 0.169530 0.779097 8355198 3
-0.071805 0.169530 0.779097 8224125 3
-0.059013 0.169530 0.779097 8355711 3
-0.047400 0.173855 0.798972 7566193 3
-0.034282 0.173855 0.798972 8355709 3
-0.021163 0.173855 0.798972 7960953 3
-0.097329 0.182210 0.778617 9079175 3
-0.083481 0.179918 0.768821 9079175 3
-0.070727 0.179586 0.767405 8815749 3
-0.057668 0.178168 0.761345 8750469 3
-0.046029 0.181566 0.775865 8553088 3
-0.032719 0.178448 0.762541 8421502 3
-0.087886 0.176075 0.703072 9408140 3
-0.395539 0.169379 0.841927 4604997 3
-0.385864 0.171220 0.851078 3749942 3
-0.319378 0.181060 0.899991 4868171 3
-0.365974 0.175647 0.807208 4736583 3
-0.356395 0.177477 0.815617 7302512 3
-0.346614 0.179345 0.824202 7631479 3
-0.333081 0.179345 0.824202 7631477 3
-0.316220 0.177477 0.815617 7763061 3
-0.499985 0.176991 0.879766 5131856 3
-0.456650 0.176991 0.879766 5131090 3
-0.432487 0.173101 0.860431 4341829 3
-0.413812 0.171220 0.851078 4276034 3
-0.469707 0.185194 0.851078 3618104 3
-0.446037 0.181253 0.832970 4539208 3
-0.423353 0.177477 0.815617 4275266 3
-0.409961 0.177477 0.815617 4735815 3
-0.446160 0.149310 0.742173 6776168 3
-0.474073 0.167037 0.767639 6184031 3
-0.441970 0.159979 0.735204 4736587 3
-0.425900 0.158491 0.728365 4671051 3
-0.412025 0.157757 0.724993 5263442 3
-0.497710 0.174667 0.746382 5526353 3
-0.475918 0.180340 0.770627 3814713 3
-0.444055 0.172862 0.738672 3617336 3
-0.426428 0.170662 0.729267 3946816 3
-0.411906 0.169612 0.724784 6644582 3
-0.495350 0.181565 0.724993 4473665 3
-0.483447 0.181565 0.724993 4802630 3
-0.476681 0.183543 0.732892 4538686 3
-0.474072 0.187266 0.747757 3880758 3
-0.437713 0.177501 0.708764 5327954 3
-0.410393 0.175768 0.701845 7301742 3
-0.488705 0.190873 0.715266 4473665 3
-0.479011 0.191693 0.718341 4934216 3
-0.467217 0.191693 0.718341 4078135 3
-0.454784 0.191425 0.717335 6512478 3
-0.780118 0.175025 0.869991 2368296 3
-0.792241 0.181060 0.899991 2105124 3
-0.794402 0.189309 0.869991 2038819 3
-0.780118 0.189309 0.869991 2302246 3
-0.765833 0.189309 0.869991 3223859 3
0.299532 0.165333 0.894848 7829369 3
0.238042 0.177991 0.884737 8223866 3
0.245630 0.173101 0.860431 8158332 3
0.258338 0.172155 0.855729 7829626 3
0.270908 0.171220 0.851078 7566197 3
0.284881 0.171220 0.851078 7434611 3
0.298855 0.171220 0.851078 7236978 3
0.205506 0.189309 0.869991 8552579 3
0.221018 0.190367 0.874852 9145229 3
0.228986 0.185194 0.851078 8882055 3
0.234056 0.178406 0.819887 8224638 3
0.247517 0.178406 0.819887 7764087 3
0.201176 0.199304 0.851663 8289407 3
0.226311 0.196841 0.841138 8158334 3
0.230581 0.189019 0.807714 8685189 3
-0.327165 0.178600 0.966657 5000016 3
-0.311293 0.178600 0.966657 4012864 3
-0.385887 0.192100 0.954868 3354934 3
-0.365748 0.189786 0.943364 3157553 3
-0.338041 0.183165 0.910456 3881274 3
-0.576931 0.159852 0.865185 2631209 3
-0.565852 0.160740 0.869991 3289137 3
-0.551567 0.160740 0.869991 2368548 3
-0.537283 0.160740 0.869991 3750201 3
-0.569126 0.167577 0.832970 4736587 3
-0.543877 0.164086 0.815617 3947069 3
-0.541773 0.167577 0.832970 3881274 3
-0.522537 0.165813 0.824202 4933962 3
-0.509005 0.165813 0.824202 5065550 3
-0.508714 0.175025 0.869991 5065809 3
-0.584052 0.177477 0.815617 3486518 3
-0.570661 0.177477 0.815617 4210241 3
-0.557269 0.177477 0.815617 5065548 3
-0.530486 0.177477 0.815617 5000009 3
-0.522537 0.179345 0.824202 5592146 3
-0.523496 0.193232 0.825715 4143930 3
0.040912 0.175747 1.043989 6513255 3
0.056915 0.172301 1.023519 5921632 3
0.076729 0.179334 1.065295 6052958 3
0.094220 0.179334 1.065295 6776679 3
0.006719 0.195495 1.058097 5920341 3
0.024092 0.195495 1.058097 6775398 3
0.039592 0.186666 1.010312 5526103 3
0.055820 0.185469 1.003836 6513255 3
0.091121 0.190350 1.030253 7960953 3
-0.095658 0.212597 1.262890 6842474 3
-0.074323 0.210896 1.252787 6381669 3
-0.053754 0.210896 1.252787 6118751 3
-0.034281 0.217868 1.294202 6184544 3
-0.013032 0.217868 1.294202 6513507 3
-0.199725 0.131154 0.779097 4934475 3
-0.189765 0.133142 0.790901 4276032 3
-0.199725 0.143946 0.779097 6249822 3
-0.189765 0.146127 0.790901 7301996 3
-0.176779 0.146127 0.790901 6907752 3
-0.199725 0.156738 0.779097 8223096 3
-0.188812 0.158314 0.786927 8881026 3
-0.175891 0.158314 0.786927 8684417 3
-0.126110 0.160737 0.798972 7105644 3
-0.112992 0.160737 0.798972 7040362 3
-0.195828 0.166222 0.763895 10000277 3
-0.186007 0.168691 0.775240 9276554 3
-0.174141 0.169530 0.779097 8684674 3
-0.163794 0.172099 0.790901 8553088 3
-0.152347 0.173855 0.798972 9144714 3
-0.124836 0.172099 0.790901 7829365 3
-0.111288 0.171234 0.786927 8158843 3
-0.189642 0.173118 0.739766 9539724 3
-0.177234 0.172862 0.738672 8947587 3
-0.166887 0.174728 0.746643 9013893 3
-0.159626 0.180375 0.770777 9145479 3
-0.149114 0.183007 0.782021 10197656 3
-0.137129 0.184155 0.786927 9671569 3
-0.122941 0.182275 0.778892 9276811 3
-0.110010 0.182040 0.777891 9343117 3
-0.198336 0.182095 0.727110 9211272 3
-0.184578 0.180317 0.720012 8684674 3
-0.170789 0.178264 0.711811 8947846 3
-0.159193 0.178366 0.712219 7961464 3
-0.149238 0.180469 0.720617 8158843 3
-0.137603 0.180728 0.721652 8224123 3
-0.125828 0.180833 0.722071 8619394 3
-0.116990 0.185622 0.741192 8750978 3
-0.107079 0.189621 0.757163 8619135 3
-0.194893 0.190665 0.714485 9606287 3
-0.112589 0.190350 0.713308 8422015 3
-0.101310 0.191168 0.716372 8487549 3
-0.223089 0.129862 0.771421 4868171 3
-0.210423 0.129862 0.771421 5197134 3
-0.235755 0.142528 0.771421 4472643 3
-0.223089 0.142528 0.771421 5789271 3
-0.210423 0.142528 0.771421 4999755 3
-0.263685 0.156738 0.779097 6316130 3
-0.250893 0.156738 0.779097 5525331 3
-0.234599 0.154433 0.767639 5722964 3
-0.220913 0.153680 0.763895 7236717 3
-0.209392 0.154433 0.767639 8026487 3
-0.263685 0.169530 0.779097 7763576 3
-0.250893 0.169530 0.779097 6841445 3
-0.234599 0.167037 0.767639 9209993 3
-0.220913 0.166222 0.763895 9210761 3
-0.208370 0.166222 0.763895 9013382 3
-0.289721 0.182607 0.780314 8750210 3
-0.275367 0.181591 0.775970 9605265 3
-0.259807 0.179641 0.767639 8684676 3
-0.247128 0.179586 0.767405 8552063 3
-0.233384 0.178711 0.763663 9275784 3
-0.218387 0.176721 0.755161 9868691 3
-0.203357 0.174464 0.745518 9342345 3
-0.287837 0.194148 0.775240 9671058 3
-0.273089 0.192723 0.769549 9407886 3
-0.257285 0.190379 0.760186 8749958 3
-0.243773 0.189577 0.756986 9078153 3
-0.227829 0.186697 0.745486 9802130 3
-0.213183 0.184614 0.737167 9145225 3
-0.295383 0.195050 0.730919 8552579 3
-0.287160 0.197650 0.740664 10460576 3
-0.252384 0.198996 0.745707 9210509 3
-0.239218 0.198231 0.742841 9670290 3
-0.223900 0.195506 0.732629 9736851 3
-0.209907 0.193694 0.725838 10000534 3
-0.203723 0.199554 0.704454 9013639 3
-0.659636 0.155071 0.921167 3881278 3
-0.656089 0.157857 0.937715 4604746 3
-0.640693 0.157857 0.937715 4604746 3
-0.629063 0.158807 0.943364 3486518 3
-0.613574 0.158807 0.943364 3946040 3
-0.644511 0.170195 0.921167 3420472 3
-0.637017 0.183165 0.910456 4473415 3
0.650010 0.104805 0.689861 1973539 3
0.638823 0.101238 0.666376 2302504 3
0.630352 0.114618 0.680863 5921121 3
0.625221 0.111704 0.663553 5065809 3
0.625514 0.109842 0.652493 3947328 3
0.618197 0.106729 0.634002 3026227 3
0.621063 0.105448 0.626394 2696751 3
0.631348 0.105448 0.626394 2432298 3
0.641633 0.105448 0.626394 3615802 3
0.644187 0.104198 0.618966 3550777 3
0.619173 0.125797 0.680863 4934737 3
0.609164 0.121568 0.657977 5197396 3
0.607787 0.117139 0.634002 4210501 3
0.605931 0.114814 0.621422 4144708 3
0.616134 0.114814 0.621422 3815232 3
0.623862 0.114361 0.618966 4736336 3
0.634025 0.114361 0.618966 4998736 3
0.641651 0.113910 0.616529 5130576 3
0.612801 0.140645 0.699100 6184033 3
0.607994 0.136976 0.680863 5000017 3
0.603536 0.124523 0.618966 5131602 3
0.613699 0.124523 0.618966 4868430 3
0.623862 0.124523 0.618966 4868431 3
0.634025 0.124523 0.618966 4802638 3
0.435755 0.120766 0.794916 7830907 3
0.446540 0.120156 0.790901 7501431 3
0.459526 0.120156 0.790901 7961214 3
0.474910 0.120766 0.794916 8684424 3
0.485497 0.120156 0.790901 8158081 3
0.498483 0.120156 0.790901 7565943 3
0.411741 0.134500 0.798972 7106673 3
0.418455 0.132473 0.786927 6580327 3
0.427083 0.131154 0.779097 6711913 3
0.439875 0.131154 0.779097 7434868 3
0.452667 0.131154 0.779097 7829115 3
0.470137 0.132473 0.786927 8815498 3
0.480642 0.131810 0.782992 9276049 3
0.493498 0.131810 0.782992 8815498 3
0.401499 0.143946 0.779097 7566454 3
0.412240 0.143234 0.775240 7237489 3
0.420802 0.141830 0.767639 7105903 3
0.427125 0.139774 0.756514 7960955 3
0.439546 0.139774 0.756514 8618631 3
0.454161 0.140453 0.760186 9144975 3
0.468919 0.141138 0.763895 9078925 3
0.481462 0.141138 0.763895 9012877 3
0.498871 0.142528 0.771421 7893882 3
0.402283 0.152195 0.756514 7961215 3
0.410735 0.150739 0.749275 7631736 3
0.417051 0.148606 0.738672 7895162 3
0.425168 0.147217 0.731768 8487045 3
0.437183 0.147217 0.731768 8815753 3
0.449198 0.147217 0.731768 8552581 3
0.463379 0.147908 0.735204 8222846 3
0.489231 0.152195 0.756514 8551812 3
0.404923 0.160734 0.738672 7828603 3
0.413154 0.159232 0.731768 7368818 3
0.423191 0.158491 0.728365 7500150 3
0.429162 0.156310 0.718341 8157823 3
0.440956 0.156310 0.718341 8222846 3
0.452751 0.156310 0.718341 8486019 3
0.468846 0.157757 0.724993 9011850 3
0.480750 0.157757 0.724993 6906220 3
0.499592 0.159979 0.735204 6709608 3
0.401022 0.171197 0.731556 8025982 3
0.409923 0.169908 0.726047 8355202 3
0.419658 0.169027 0.722284 8289666 3
0.425867 0.166814 0.712827 7630710 3
0.434120 0.165498 0.707205 8091261 3
0.442724 0.164382 0.702433 8222334 3
0.456175 0.165076 0.705398 8419459 3
0.468023 0.165169 0.705799 7958910 3
0.485215 0.167099 0.714046 8222080 3
0.496816 0.167058 0.713869 7762296 3
0.401659 0.178163 0.711410 8947339 3
0.409506 0.176510 0.704810 8749960 3
0.184135 0.149628 0.984896 6908265 3
0.194199 0.145066 0.954868 7697783 3
0.151793 0.165799 0.984896 6974317 3
0.160881 0.158807 0.943364 7105644 3
0.175314 0.157857 0.937715 7434607 3
0.189575 0.156917 0.932133 8355711 3
0.117239 0.178600 0.966657 7697781 3
0.128356 0.172222 0.932133 7237230 3
0.142811 0.171203 0.926618 7566195 3
0.155269 0.168216 0.910456 7895160 3
0.171213 0.169200 0.915780 8356224 3
0.185167 0.168216 0.910456 8092537 3
-0.570442 0.161842 1.065295 4407620 3
-0.572359 0.174583 1.037076 3618106 3
-0.555331 0.174583 1.037076 4144450 3
-0.561209 0.187878 1.016873 3749949 3
-0.544513 0.187878 1.016873 5394262 3
-0.511016 0.194183 1.050996 6249824 3
-0.861738 0.154486 1.016873 4735815 3
-0.856161 0.156519 1.030253 3618104 3
-0.850435 0.158606 1.043989 3355191 3
-0.833293 0.158606 1.043989 2895154 3
-0.817726 0.168987 1.003836 3026227 3
-0.801244 0.168987 1.003836 3750209 3
-0.866797 0.146857 0.966657 3092532 3
-0.861562 0.148693 0.978740 2303017 3
-0.845492 0.148693 0.978740 3289141 3
-0.882669 0.162729 0.966657 2565927 3
-0.845911 0.158807 0.943364 2895153 3
-0.840549 0.160744 0.954868 2368810 3
-0.835054 0.162729 0.966657 3552313 3
-0.829422 0.164763 0.978740 3683897 3
-0.813352 0.164763 0.978740 3157553 3
-0.851145 0.172222 0.932133 2368548 3
-0.820535 0.172222 0.932133 2894641 3
-0.814932 0.174297 0.943364 2566188 3
-0.819183 0.178600 0.966657 3289137 3
-0.813352 0.180833 0.978740 3618617 3
-0.805231 0.187526 0.932133 2631979 3
-0.809193 0.192100 0.954868 3223857 3
-0.803311 0.194472 0.966657 3815996 3
0.633588 0.098717 0.649786 2763057 3
0.628607 0.096319 0.634002 2367788 3
0.654350 0.094035 0.618966 3222579 3
0.609202 0.106098 0.782992 6382182 3
0.615899 0.105048 0.775240 6579048 3
0.628627 0.105048 0.775240 6513255 3
0.641356 0.105048 0.775240 6119010 3
0.644513 0.103511 0.763895 5395288 3
0.653866 0.103008 0.760186 5395288 3
0.656782 0.101529 0.749275 3750463 3
0.659616 0.100093 0.738672 3421497 3
0.603170 0.117776 0.775240 5526873 3
0.609860 0.116622 0.767639 6119010 3
0.619428 0.116053 0.763895 6842733 3
0.635068 0.116622 0.767639 5921631 3
0.641384 0.115490 0.760186 5461080 3
0.647578 0.114379 0.752877 5131603 3
0.647488 0.112221 0.738672 4342087 3
0.656520 0.111694 0.735204 2499882 3
0.662372 0.110655 0.728365 2631981 3
0.659005 0.108140 0.711811 2828848 3
0.600199 0.129862 0.771421 5592153 3
0.609860 0.129226 0.767639 5790046 3
0.619428 0.128595 0.763895 5592667 3
0.635068 0.129226 0.767639 6184803 3
0.641384 0.127971 0.760186 5657946 3
0.641411 0.125534 0.745707 5525848 3
0.641437 0.123187 0.731768 5065297 3
0.650412 0.122614 0.728365 3947329 3
0.653256 0.120927 0.718341 4934737 3
0.625184 0.145393 0.786927 4671564 3
0.625531 0.142528 0.771421 5329494 3
0.635068 0.141830 0.767639 5394774 3
0.623232 0.136478 0.738672 5460310 3
0.629422 0.135202 0.731768 6578021 3
0.629667 0.132721 0.718341 5854298 3
0.638533 0.132115 0.715061 5328982 3
0.623594 0.145854 0.724993 6841193 3
0.576398 0.107170 0.790901 6645606 3
0.583490 0.106098 0.782992 6185055 3
0.596346 0.106098 0.782992 6184801 3
0.514065 0.120766 0.794916 6381923 3
0.527117 0.120766 0.794916 6053985 3
0.540169 0.120766 0.794916 5922399 3
0.556043 0.121382 0.798972 5987422 3
0.566272 0.120766 0.794916 5987424 3
0.570634 0.118954 0.782992 5855836 3
0.574867 0.117196 0.771421 6447973 3
0.587533 0.117196 0.771421 6053217 3
0.506354 0.131810 0.782992 8157823 3
0.521819 0.132473 0.786927 6842474 3
0.534740 0.132473 0.786927 7171185 3
0.550426 0.133142 0.790901 7236978 3
0.563412 0.133142 0.790901 6908014 3
0.564984 0.130505 0.775240 7171185 3
0.572049 0.129226 0.767639 5921118 3
0.584653 0.129226 0.767639 6052704 3
0.514069 0.143234 0.775240 7828089 3
0.526798 0.143234 0.775240 8157054 3
0.539527 0.143234 0.775240 7565431 3
0.557778 0.144666 0.782992 6908014 3
0.564984 0.143234 0.775240 7236979 3
0.577713 0.143234 0.775240 6644329 3
0.593379 0.143946 0.779097 6052447 3
0.501652 0.152195 0.756514 7828089 3
0.521633 0.154433 0.767639 7828089 3
0.536869 0.155194 0.771421 7762810 3
0.549535 0.155194 0.771421 7829116 3
0.570634 0.157522 0.782992 7368052 3
0.577713 0.155962 0.775240 6775915 3
0.596346 0.157522 0.782992 6776170 3
0.569347 0.147217 0.731768 4999757 3
0.575979 0.145854 0.724993 4013632 3
0.514077 0.160734 0.738672 6315364 3
0.523735 0.159979 0.735204 6644841 3
0.530822 0.158491 0.728365 6250084 3
0.542781 0.158491 0.728365 4802637 3
0.562590 0.160734 0.738672 4605512 3
0.506152 0.108819 0.803069 6711915 3
0.519338 0.108819 0.803069 6580327 3
0.535268 0.109380 0.807208 5199189 3
0.548522 0.109380 0.807208 5264982 3
0.561775 0.109380 0.807208 5593432 3
0.572080 0.108819 0.803069 6579813 3
0.182920 0.145340 1.072592 4999757 3
0.193890 0.140528 1.037076 4341829 3
0.129202 0.161842 1.065295 7105903 3
0.145702 0.160749 1.058097 7434868 3
0.158783 0.156519 1.030253 7237489 3
0.172299 0.153489 1.010312 7171439 3
0.111711 0.179334 1.065295 6908524 3
0.124952 0.173434 1.030253 7040110 3
0.141868 0.173434 1.030253 7237489 3
0.109477 0.192888 1.043989 7368816 3
-0.098030 0.175369 1.294202 5657687 3
-0.076151 0.173932 1.283594 5328982 3
-0.055076 0.173932 1.283594 4605258 3
-0.095658 0.191862 1.262890 7697781 3
-0.074923 0.191862 1.262890 7105392 3
-0.054187 0.191862 1.262890 6973806 3
-0.640877 0.115954 0.855729 3683644 3
-0.644434 0.119212 0.879766 3815485 3
-0.651558 0.132171 0.869991 3157815 3
-0.651757 0.135175 0.889764 3881536 3
-0.658879 0.148101 0.879766 3223354 3
-0.644434 0.148101 0.879766 3486778 3
-0.627168 0.154723 0.837425 2829107 3
-0.616716 0.155555 0.841927 3223093 3
-0.622989 0.160740 0.869991 2236453 3
-0.614918 0.166283 0.899991 3486265 3
-0.607671 0.163235 0.811391 3684670 3
-0.616716 0.169379 0.841927 3881278 3
-0.622989 0.175025 0.869991 3223348 3
-0.635002 0.190085 0.812270 5920606 3
0.434247 0.107175 0.899991 7700089 3
0.436481 0.104181 0.874852 7239538 3
0.445863 0.103030 0.865185 7108467 3
0.457541 0.102464 0.860431 7240051 3
0.464020 0.100803 0.846478 6515815 3
0.477918 0.100803 0.846478 7041391 3
0.489172 0.100261 0.841927 6777706 3
0.417073 0.121255 0.894848 7830905 3
0.426886 0.119885 0.884737 6778987 3
0.431658 0.117236 0.865185 6713196 3
0.440991 0.115954 0.855729 7174260 3
0.447701 0.114084 0.841927 6713194 3
0.461525 0.114084 0.841927 6778987 3
0.470292 0.112871 0.832970 7962493 3
0.478874 0.111682 0.824202 8027775 3
0.489828 0.111098 0.819887 6909294 3
0.492966 0.108819 0.803069 5988192 3
0.402380 0.135948 0.894848 7895419 3
0.407753 0.132910 0.874852 7107184 3
0.417453 0.131441 0.865185 6647403 3
0.420054 0.127908 0.841927 6186852 3
0.426991 0.125877 0.828563 7172979 3
0.433711 0.123911 0.815617 7304563 3
0.403247 0.145647 0.865185 6778219 3
0.412890 0.144055 0.855729 6318438 3
0.415586 0.140224 0.832970 6712428 3
0.406231 0.155555 0.841927 6448745 3
0.404819 0.149913 0.811391 6711917 3
0.284743 0.118780 0.997442 7764087 3
0.297332 0.117286 0.984896 7500915 3
0.251989 0.135157 0.997442 8027259 3
0.268366 0.135157 0.997442 8684676 3
0.279404 0.132623 0.978740 8750469 3
0.291826 0.130986 0.966657 7303536 3
0.209877 0.145066 0.954868 8289920 3
0.225555 0.145066 0.954868 8092541 3
0.239771 0.144187 0.949081 8092539 3
0.256911 0.145066 0.954868 7763061 3
0.270937 0.144187 0.949081 7565682 3
0.286520 0.144187 0.949081 7500404 3
0.298485 0.142460 0.937715 8026748 3
0.204880 0.156917 0.932133 8092539 3
0.220185 0.156917 0.932133 8026233 3
0.235489 0.156917 0.932133 7565682 3
0.252296 0.157857 0.937715 7236971 3
0.267692 0.157857 0.937715 7697268 3
0.283089 0.157857 0.937715 7960955 3
0.298485 0.157857 0.937715 7565943 3
0.201286 0.169200 0.915780 6645091 3
0.217594 0.170195 0.921167 7237230 3
0.231358 0.169200 0.915780 7500402 3
0.247844 0.170195 0.921167 8289659 3
0.261430 0.169200 0.915780 8026744 3
0.274859 0.168216 0.910456 8092541 3
0.289808 0.168216 0.910456 8157823 3
0.213821 0.182106 0.905193 8026746 3
0.228683 0.182106 0.905193 9013643 3
0.142802 0.140214 1.177432 5658198 3
0.162134 0.140214 1.177432 6250335 3
0.181467 0.140214 1.177432 7105646 3
0.193524 0.135134 1.134771 7039342 3
0.123470 0.159546 1.177432 5658457 3
0.137628 0.153766 1.134771 5855577 3
0.156260 0.153766 1.134771 6250337 3
0.172393 0.151569 1.118560 6316130 3
0.101097 0.173656 1.143054 6053215 3
0.116465 0.168729 1.110627 7040110 3
-0.477222 0.135134 1.134771 4210752 3
-0.458590 0.135134 1.134771 4079166 3
-0.467068 0.150494 1.110627 4473926 3
-0.445672 0.149434 1.102806 4933962 3
-0.470404 0.169935 1.118560 4736585 3
-0.448833 0.168729 1.110627 4999757 3
-0.473789 0.189655 1.126607 5460310 3
-0.455291 0.189655 1.126607 4933196 3
-0.433673 0.188300 1.118560 6051164 3
-0.529843 0.139168 1.168645 3355704 3
-0.506873 0.138137 1.159988 3816253 3
-0.587407 0.158356 1.168645 3881276 3
-0.564010 0.157183 1.159988 5262931 3
-0.544964 0.157183 1.159988 3749437 3
-0.583056 0.176228 1.159988 2631209 3
-0.559863 0.174933 1.151459 2565418 3
-0.596307 0.199712 1.186352 4539208 3
-0.559863 0.193839 1.151459 3749690 3
0.292187 0.105080 1.023519 7041389 3
0.221171 0.129503 1.087489 5197396 3
0.229466 0.124323 1.043989 5131603 3
0.243362 0.122687 1.030253 6447973 3
0.258577 0.121885 1.023519 7040364 3
0.271829 0.120313 1.010312 7961466 3
0.206809 0.137790 1.016873 5789532 3
0.222064 0.136901 1.010312 7697529 3
0.238652 0.136901 1.010312 8421763 3
0.008878 0.143547 1.398200 5722713 3
0.098079 0.139802 1.361725 6578536 3
0.008427 0.158038 1.327105 4868430 3
0.030217 0.158038 1.327105 5657689 3
0.052006 0.158038 1.327105 5263442 3
0.075068 0.160763 1.349986 4473926 3
0.094783 0.156710 1.315953 4671565 3
0.008286 0.176830 1.304987 6118751 3
0.029713 0.176830 1.304987 6052958 3
0.051140 0.176830 1.304987 6579048 3
0.072566 0.176830 1.304987 7763322 3
0.008356 0.199923 1.315953 6973547 3
0.029713 0.198257 1.304987 6776681 3
0.051140 0.198257 1.304987 7171185 3
0.072566 0.198257 1.304987 6776940 3
-0.014079 0.143547 1.398200 5526103 3
-0.078732 0.158038 1.327105 5000017 3
-0.056464 0.156710 1.315953 4934224 3
-0.035453 0.159389 1.338448 5789532 3
-0.013363 0.158038 1.327105 4210500 3
-0.034567 0.176830 1.304987 5592153 3
-0.013140 0.176830 1.304987 5592407 3
-0.034567 0.198257 1.304987 6316130 3
-0.013251 0.199923 1.315953 6776681 3
-0.780678 0.141029 1.373670 3157035 3
-0.751532 0.139802 1.361725 2828586 3
-0.797794 0.158038 1.327105 3025965 3
-0.769483 0.156710 1.315953 3486770 3
-0.747877 0.156710 1.315953 3354930 3
-0.726270 0.156710 1.315953 3618104 3
-0.763071 0.176830 1.304987 3947321 3
-0.741644 0.176830 1.304987 4276286 3
0.280235 0.102319 1.186352 7040112 3
0.297460 0.101549 1.177432 6776938 3
0.202320 0.121798 1.186352 6644582 3
0.220131 0.120882 1.177432 6908013 3
0.239464 0.120882 1.177432 5526363 3
0.254962 0.119091 1.159988 6184291 3
0.274008 0.119091 1.159988 6119008 3
0.290899 0.118215 1.151459 6382434 3
0.298819 0.114023 1.110627 7370097 3
0.209125 0.133203 1.118560 5986654 3
0.199463 0.111621 1.294202 6249824 3
0.155678 0.131781 1.283594 6250335 3
0.178214 0.132870 1.294202 6775400 3
0.191548 0.127597 1.242845 7170926 3
0.114465 0.154120 1.294202 5592667 3
0.134603 0.152856 1.283594 5000527 3
0.106541 0.163228 1.204603 5263701 3
0.107420 0.128629 1.491413 5723227 3
0.131908 0.128629 1.491413 5986911 3
0.152051 0.125056 1.449985 5658459 3
0.175858 0.125056 1.449985 3947582 3
0.194269 0.121676 1.410797 4539208 3
0.009470 0.128629 1.491413 4472645 3
0.033958 0.128629 1.491413 4078657 3
0.032414 0.146157 1.423622 5788506 3
0.055789 0.146157 1.423622 5986654 3
0.080629 0.148864 1.449985 5723482 3
-0.104970 0.119523 1.385827 3684159 3
-0.192577 0.139802 1.361725 4605258 3
-0.173232 0.142277 1.385827 4999504 3
-0.147861 0.139802 1.361725 4867920 3
-0.125502 0.139802 1.361725 4275783 3
-0.102255 0.138597 1.349986 4867918 3
-0.189285 0.159389 1.338448 5592407 3
-0.167309 0.159389 1.338448 6578791 3
-0.144102 0.158038 1.327105 6644584 3
-0.121284 0.156710 1.315953 6512743 3
-0.100522 0.158038 1.327105 5262931 3
-0.187681 0.179828 1.327105 5131854 3
-0.164497 0.178316 1.315953 4933964 3
-0.163126 0.198257 1.304987 5789784 3
-0.296630 0.114458 1.327105 1513249 3
-0.274840 0.114458 1.327105 3289399 3
-0.253050 0.114458 1.327105 3618364 3
-0.237293 0.117444 1.361725 3157813 3
-0.214935 0.117444 1.361725 3092020 3
-0.296630 0.136248 1.327105 4868692 3
-0.274840 0.136248 1.327105 4736845 3
-0.253050 0.136248 1.327105 4605258 3
-0.233237 0.137413 1.338448 5328981 3
-0.211261 0.137413 1.338448 4671051 3
-0.294137 0.156710 1.315953 5657436 3
-0.274840 0.158038 1.327105 5658460 3
-0.250924 0.156710 1.315953 5000530 3
-0.231261 0.158038 1.327105 5395288 3
-0.209471 0.158038 1.327105 5328981 3
-0.294137 0.178316 1.315953 6841963 3
-0.272530 0.178316 1.315953 6184290 3
-0.248833 0.176830 1.304987 6645355 3
-0.229317 0.178316 1.315953 5592666 3
-0.207711 0.178316 1.315953 6776681 3
-0.272530 0.199923 1.315953 6447716 3
-0.250924 0.199923 1.315953 6250083 3
-0.229317 0.199923 1.315953 6250083 3
-0.207711 0.199923 1.315953 5789786 3
-0.397255 0.118474 1.373670 3815485 3
-0.371443 0.117444 1.361725 3748923 3
-0.343117 0.115437 1.338448 2762027 3
-0.329592 0.118474 1.373670 1710369 3
-0.383789 0.136248 1.327105 3289141 3
-0.361999 0.136248 1.327105 3289141 3
-0.337350 0.135103 1.315953 4012094 3
-0.315744 0.135103 1.315953 4605261 3
-0.380564 0.156710 1.315953 5723482 3
-0.358957 0.156710 1.315953 5328724 3
-0.334539 0.155404 1.304987 4868431 3
-0.313113 0.155404 1.304987 5986912 3
-0.398819 0.176830 1.304987 3025199 3
-0.380564 0.178316 1.315953 3618106 3
-0.355966 0.176830 1.304987 4605001 3
-0.334539 0.176830 1.304987 3816255 3
-0.313113 0.176830 1.304987 4605258 3
-0.427306 0.120590 1.398200 3420727 3
-0.473220 0.143547 1.398200 3551543 3
-0.438517 0.139802 1.361725 2631211 3
-0.409045 0.137413 1.338448 3618106 3
-0.496177 0.166504 1.398200 4209988 3
-0.469032 0.165031 1.385827 4736334 3
-0.431021 0.159389 1.338448 4933197 3
-0.402170 0.156710 1.315953 4077887 3
-0.483233 0.184519 1.361725 4012609 3
-0.460875 0.184519 1.361725 4275783 3
-0.420246 0.176830 1.304987 4341060 3
-0.463099 0.198257 1.304987 4341574 3
-0.553743 0.128629 1.491413 3552571 3
-0.519363 0.126225 1.463537 3881023 3
-0.533422 0.147498 1.436683 3881023 3
-0.509833 0.147498 1.436683 3552058 3
-0.523811 0.168004 1.410797 4670539 3
-0.570232 0.112551 1.304987 2500395 3
-0.567729 0.116432 1.349986 2237221 3
-0.545564 0.116432 1.349986 2763567 3
-0.548805 0.133977 1.304987 3684921 3
-0.540901 0.137413 1.338448 3487288 3
-0.537294 0.142277 1.385827 3420984 3
-0.527950 0.162161 1.361725 4341829 3
-0.570232 0.176830 1.304987 4276547 3
-0.510027 0.186137 1.373670 2828335 3
-0.570232 0.198257 1.304987 4342340 3
-0.896569 0.128629 1.491413 4275266 3
-0.847857 0.125056 1.449985 3551541 3
-0.879190 0.146157 1.423622 3157555 3
-0.855816 0.146157 1.423622 3156783 3
-0.824942 0.144840 1.410797 3222830 3
-0.855938 0.110706 1.283594 3092271 3
-0.883604 0.129655 1.262890 2696749 3
-0.862868 0.129655 1.262890 4670539 3
-0.889985 0.148004 1.242845 3091760 3
-0.855991 0.145691 1.223425 3025969 3
-0.835904 0.145691 1.223425 3288886 3
-0.891631 0.112551 1.304987 2368297 3
-0.863163 0.114458 1.327105 3223857 3
-0.877517 0.135103 1.315953 4407620 3
-0.878046 0.138597 1.349986 2829099 3
-0.870204 0.155404 1.304987 2630956 3
-0.855910 0.156710 1.315953 3486520 3
-0.841374 0.158038 1.327105 3486777 3
-0.826589 0.159389 1.338448 3684410 3
-1.483316 0.157047 1.820912 2038304 3
-1.457415 0.160787 1.864267 1973792 3
-1.426805 0.160787 1.864267 1710367 3
-1.483316 0.186945 1.820912 2696232 3
-1.457415 0.191396 1.864267 2236962 3
-1.426805 0.191396 1.864267 2828590 3
-0.087645 0.103159 1.477344 3617853 3
-0.085233 0.123909 1.436683 4670541 3
-0.061644 0.123909 1.436683 4670539 3
-0.038408 0.125056 1.449985 4210243 3
-0.083697 0.144840 1.410797 5591643 3
-0.060533 0.144840 1.410797 5065297 3
-0.037709 0.146157 1.423622 6447205 3
-0.160415 0.103159 1.477344 2302506 3
-0.134886 0.102195 1.463537 3026229 3
-0.109830 0.101249 1.449985 3355192 3
-0.199517 0.121676 1.410797 4210501 3
-0.181252 0.125056 1.449985 4144710 3
-0.156000 0.123909 1.436683 3683905 3
-0.131207 0.122783 1.423622 3749698 3
-0.490747 0.101249 1.449985 3289139 3
-0.466939 0.101249 1.449985 2763308 3
-0.443132 0.101249 1.449985 2828847 3
-0.419325 0.101249 1.449985 3881023 3
-0.486245 0.123909 1.436683 3354934 3
-0.458450 0.122783 1.423622 2697004 3
0.369056 0.056132 1.050996 4803916 3
0.386313 0.056132 1.050996 6053469 3
0.356586 0.074387 1.065295 6909546 3
0.357074 0.071006 1.016873 8027773 3
0.371359 0.070548 1.010312 7829880 3
0.385460 0.070095 1.003836 8224638 3
0.315172 0.090041 1.043989 6975339 3
0.330113 0.089444 1.037076 7303534 3
0.347140 0.089444 1.037076 7633015 3
0.300740 0.067998 1.273158 4276806 3
0.316498 0.066910 1.252787 5855838 3
0.331759 0.065856 1.233058 7105646 3
0.343882 0.064336 1.204603 7500404 3
0.306684 0.084767 1.213941 6250594 3
0.261406 0.074676 1.398200 4670794 3
0.284363 0.074676 1.398200 5592153 3
0.286832 0.069697 1.304987 4736844 3
0.213585 0.096769 1.385827 4802891 3
0.232228 0.095086 1.361725 6052445 3
0.252392 0.094266 1.349986 6841963 3
0.269904 0.092669 1.327105 6184291 3
0.358150 0.043883 1.186352 5263953 3
0.371992 0.043228 1.168645 4869195 3
0.391180 0.043228 1.168645 5526360 3
0.387249 0.040792 1.102806 5395285 3
0.352804 0.062416 1.168645 6053467 3
0.369237 0.061953 1.159988 5527891 3
0.382614 0.061049 1.143054 5133135 3
0.321629 0.083472 1.195408 6250594 3
0.336125 0.082217 1.177432 6645606 3
0.345079 0.079817 1.143054 5987674 3
0.361210 0.079238 1.134771 6120028 3
0.326311 0.098585 1.143054 6646120 3
0.141330 0.059107 1.597943 5197908 3
0.160995 0.056789 1.535279 4605771 3
0.186203 0.056789 1.535279 4802638 3
0.111675 0.082809 1.550479 5657689 3
0.135787 0.081997 1.535279 5986654 3
0.159432 0.081201 1.520373 5592667 3
0.184395 0.081201 1.520373 4671565 3
-1.375770 0.181820 3.404314 1908259 3
0.402521 0.040507 1.095094 6580327 3
0.420502 0.040507 1.095094 6184803 3
0.429472 0.039675 1.072592 5132113 3
0.435161 0.038617 1.043989 5198676 3
0.440554 0.037614 1.016873 4803918 3
0.400878 0.055758 1.043989 4605769 3
0.418020 0.055758 1.043989 4013886 3
0.423858 0.054310 1.016873 6382948 3
0.067437 0.063654 1.720862 2500136 3
0.095692 0.063654 1.720862 3158325 3
0.011300 0.095042 1.779528 5394515 3
0.040062 0.093974 1.759533 3815996 3
0.387688 0.135948 0.894848 8027005 3
0.375139 0.151506 0.899991 7895419 3
0.385485 0.149784 0.889764 7434868 3
0.397833 0.148938 0.884737 7171696 3
0.308929 0.162546 0.879766 7631736 3
0.321567 0.161638 0.874852 7237491 3
0.337819 0.162546 0.879766 6908524 3
0.350296 0.161638 0.874852 7698040 3
0.362634 0.160740 0.869991 8027005 3
0.374836 0.159852 0.865185 8026748 3
0.386904 0.158974 0.860431 8026748 3
0.396672 0.157246 0.851078 7238259 3
0.312829 0.171220 0.851078 7500663 3
0.328589 0.172155 0.855729 7040110 3
0.342639 0.172155 0.855729 7237489 3
0.356689 0.172155 0.855729 7040110 3
0.370739 0.172155 0.855729 8158334 3
0.376559 0.168473 0.837425 7105646 3
0.390309 0.168473 0.837425 7105905 3
0.395596 0.164945 0.819887 7895421 3
0.340777 0.185194 0.851078 7961212 3
0.343548 0.179345 0.824202 7895419 3
0.362809 0.182223 0.837425 8224127 3
0.370613 0.179345 0.824202 7631736 3
0.376225 0.175647 0.807208 6710634 3
0.328941 0.192250 0.821519 7566454 3
0.342998 0.192569 0.822881 7566708 3
0.348037 0.187993 0.803328 7829369 3
0.362972 0.188901 0.807208 8947596 3
0.378920 0.190254 0.812989 7434358 3
0.670686 0.068559 0.794916 6315876 3
0.683738 0.068559 0.794916 3092020 3
0.634753 0.082027 0.798972 7105646 3
0.644582 0.081611 0.794916 6974060 3
0.660989 0.082027 0.798972 7697529 3
0.667299 0.081198 0.790901 7039599 3
0.680284 0.081198 0.790901 4868944 3
0.689786 0.080790 0.786927 3684669 3
0.602369 0.094184 0.790901 6513766 3
0.612263 0.093711 0.786927 6579561 3
0.622058 0.093242 0.782992 6316130 3
0.634914 0.093242 0.782992 7236978 3
0.647770 0.093242 0.782992 6382182 3
0.654085 0.092319 0.775240 6316390 3
0.663529 0.091864 0.771421 5329495 3
0.672880 0.091414 0.767639 2829360 3
0.682140 0.090968 0.763895 2105635 3
0.665467 0.099157 0.731768 2697772 3
0.648087 0.030811 0.832970 3749949 3
0.661763 0.030811 0.832970 4079168 3
0.610304 0.044726 0.837425 6710888 3
0.614200 0.044019 0.824202 7434868 3
0.627732 0.044019 0.824202 5197649 3
0.641265 0.044019 0.824202 6184544 3
0.658262 0.044252 0.828563 6644582 3
0.664831 0.043789 0.819887 5920859 3
0.678293 0.043789 0.819887 4933966 3
0.610304 0.058475 0.837425 7500661 3
0.610984 0.057251 0.819887 7369075 3
0.624446 0.057251 0.819887 6776938 3
0.637908 0.057251 0.819887 7171439 3
0.651369 0.057251 0.819887 6710375 3
0.654550 0.056365 0.807208 6907754 3
0.664379 0.056076 0.803069 5460310 3
0.677565 0.056076 0.803069 3947071 3
0.690750 0.056076 0.803069 1512990 3
0.610304 0.072225 0.837425 6448741 3
0.614200 0.071085 0.824202 5922397 3
0.627732 0.071085 0.824202 7040110 3
0.637908 0.070712 0.819887 6776938 3
0.647977 0.070344 0.815617 6184544 3
0.651193 0.069262 0.803069 6579302 3
0.664379 0.069262 0.803069 7105392 3
0.600667 0.084617 0.824202 6054237 3
0.604653 0.083302 0.811391 6317155 3
0.617975 0.083302 0.811391 7040880 3
0.624822 0.082448 0.803069 7171698 3
0.502357 0.047521 0.889764 3157551 3
0.522908 0.048067 0.899991 1710618 3
0.559507 0.046208 0.865185 3882563 3
0.570561 0.045954 0.860431 5526873 3
0.581493 0.045703 0.855729 5066063 3
0.585938 0.044966 0.841927 5460821 3
0.599761 0.044966 0.841927 6316130 3
0.511158 0.061432 0.879766 6185053 3
0.525603 0.061432 0.879766 4738125 3
0.531096 0.060414 0.865185 4935504 3
0.542306 0.060082 0.860431 5396055 3
0.553392 0.059754 0.855729 4869711 3
0.564359 0.059429 0.851078 6250594 3
0.575206 0.059108 0.846478 6053215 3
0.582804 0.058475 0.837425 6711145 3
0.596554 0.058475 0.837425 7829369 3
0.505478 0.075034 0.869991 6580581 3
0.516891 0.074619 0.865185 7172718 3
0.522437 0.073403 0.851078 7041389 3
0.536411 0.073403 0.851078 5330771 3
0.550385 0.073403 0.851078 6120287 3
0.561308 0.073006 0.846478 7435636 3
0.575206 0.073006 0.846478 7435636 3
0.585938 0.072613 0.841927 7830394 3
0.596554 0.072225 0.837425 7500915 3
0.508463 0.087376 0.851078 7041391 3
0.516820 0.086437 0.841927 6449254 3
0.527806 0.085975 0.837425 6317668 3
0.538675 0.085517 0.832970 7041391 3
0.552351 0.085517 0.832970 6712426 3
0.566028 0.085517 0.832970 6712426 3
0.576637 0.085065 0.828563 6975598 3
0.587135 0.084617 0.824202 6514534 3
0.500306 0.099724 0.837425 6778219 3
0.505939 0.098150 0.824202 6515049 3
0.516752 0.097636 0.819887 6251877 3
0.530214 0.097636 0.819887 6712424 3
0.543675 0.097636 0.819887 4870992 3
0.557137 0.097636 0.819887 5528922 3
0.567627 0.097127 0.815617 6186082 3
0.575029 0.096126 0.807208 6316639 3
0.588282 0.096126 0.807208 7500913 3
0.478577 0.048067 0.899991 5855577 3
0.487748 0.047521 0.889764 5131854 3
0.446458 0.062485 0.894848 6975339 3
0.458530 0.062130 0.889764 6317407 3
0.470466 0.061779 0.884737 6053469 3
0.482268 0.061432 0.879766 6185055 3
0.496713 0.061432 0.879766 5592918 3
0.434247 0.077621 0.899991 6909805 3
0.441413 0.076306 0.884737 6844010 3
0.448341 0.075034 0.869991 6580838 3
0.460069 0.074619 0.865185 7370356 3
0.474274 0.074619 0.865185 5593945 3
0.488480 0.074619 0.865185 6646120 3
0.434247 0.092398 0.899991 7962493 3
0.441413 0.090832 0.884737 7436149 3
0.448341 0.089318 0.869991 7502712 3
0.460069 0.088825 0.865185 7371385 3
0.471669 0.088337 0.860431 6450537 3
0.483141 0.087854 0.855729 6778989 3
0.497192 0.087854 0.855729 6515045 3
0.440103 0.036203 0.978740 4738636 3
0.437052 0.034686 0.937715 4475466 3
0.444464 0.034074 0.921167 2764333 3
0.421400 0.051948 0.972661 6646631 3
0.421656 0.050082 0.937715 6647401 3
0.429339 0.049198 0.921167 7041391 3
0.439296 0.048626 0.910456 7041132 3
0.451619 0.048345 0.905193 5264721 3
0.466481 0.048345 0.905193 6185051 3
0.402927 0.067499 0.966657 7699062 3
0.408707 0.065873 0.943364 7238768 3
0.421656 0.065478 0.937715 6778217 3
0.429339 0.064323 0.921167 6778219 3
0.436757 0.063207 0.905193 6909805 3
0.406259 0.080875 0.937715 7238511 3
0.421656 0.080875 0.937715 8028027 3
0.426829 0.078983 0.915780 7501942 3
0.401452 0.095132 0.926618 8685187 3
0.414215 0.094572 0.921167 8553601 3
0.426829 0.094019 0.915780 7501429 3
-0.386212 0.090508 2.446850 2105638 3
-0.346037 0.090508 2.446850 2566188 3
0.317497 0.102403 0.997442 8224636 3
0.327614 0.100483 0.978740 6909294 3
0.309609 0.115829 0.972661 7895671 3
0.317686 0.113021 0.949081 8224636 3
0.329278 0.111667 0.937715 7961466 3
0.344674 0.111667 0.937715 7566708 3
0.360070 0.111667 0.937715 8224638 3
0.373232 0.111003 0.932133 8356224 3
0.383966 0.109697 0.921167 7764087 3
0.396756 0.109055 0.915780 7764087 3
0.302103 0.128604 0.949081 7764087 3
0.315772 0.127829 0.943364 7764087 3
0.325381 0.125560 0.926618 7369329 3
0.340595 0.125560 0.926618 8356224 3
0.355809 0.125560 0.926618 8224384 3
0.366684 0.124092 0.915780 7829880 3
0.379501 0.123370 0.910456 8093052 3
0.392170 0.122657 0.905193 8158845 3
0.310167 0.140774 0.926618 7566195 3
0.321575 0.139128 0.915780 7697781 3
0.336612 0.139128 0.915780 8684678 3
0.351648 0.139128 0.915780 7697783 3
0.364552 0.138319 0.910456 7763833 3
0.377307 0.137519 0.905193 8027005 3
0.310167 0.155988 0.926618 8553092 3
0.321575 0.154164 0.915780 8289920 3
0.334654 0.153268 0.910456 8684678 3
0.351648 0.154164 0.915780 7763322 3
0.362445 0.152382 0.905193 8158591 3
0.394596 0.159113 0.790901 7895421 3
0.397543 0.155194 0.771421 7894908 3
0.305237 0.172973 0.794916 7698042 3
0.383548 0.172973 0.794916 7697530 3
0.392614 0.171234 0.786927 6973807 3
0.393665 0.166222 0.763895 7499640 3
0.396536 0.162265 0.745707 8683914 3
0.382596 0.185563 0.792944 6841708 3
0.386915 0.181482 0.775504 6249573 3
0.387773 0.176089 0.752462 6183012 3
0.392582 0.172769 0.738271 7367286 3
0.324371 0.194888 0.778194 7698042 3
0.339227 0.196090 0.782992 7698042 3
0.352083 0.196090 0.782992 7697529 3
0.362343 0.194695 0.777424 8158081 3
0.372211 0.193192 0.771421 8552328 3
0.380462 0.190976 0.762571 9276053 3
0.378784 0.184076 0.735020 9406871 3
0.386317 0.181940 0.726489 9012627 3
0.391869 0.179027 0.714858 8749707 3
0.311217 0.191693 0.718341 7039599 3
0.320993 0.190495 0.713852 7894908 3
0.331762 0.189951 0.711811 7631737 3
0.354693 0.196169 0.735114 7762812 3
0.360222 0.192671 0.722003 7368056 3
0.355880 0.184284 0.690574 7367288 3
0.363635 0.182486 0.683836 8157572 3
0.374761 0.182436 0.683650 7960191 3
0.384412 0.181692 0.680863 9078925 3
0.394414 0.181151 0.678836 8486788 3
0.309884 0.195218 0.689147 5855068 3
0.319455 0.194158 0.685405 5855326 3
0.320165 0.187968 0.663553 5591641 3
0.332028 0.188518 0.665494 6512745 3
0.344511 0.189373 0.668514 6775149 3
0.359520 0.191521 0.676097 7368056 3
0.371517 0.191985 0.677733 8091777 3
0.381099 0.191209 0.674993 8749705 3
0.391024 0.190644 0.673002 9473683 3
0.309270 0.198863 0.663553 6315876 3
0.314390 0.195276 0.651584 6644329 3
0.317602 0.190779 0.636579 6907503 3
0.330603 0.192261 0.641526 8288388 3
0.375039 0.199075 0.664260 9407637 3
0.383907 0.198023 0.660753 8684167 3
0.394653 0.197971 0.660579 7434357 3
0.303076 0.198562 0.628136 7894651 3
0.305130 0.193329 0.611581 8091775 3
0.373914 0.197845 0.625867 7631990 3
0.320771 0.184976 0.585159 8880777 3
0.337461 0.188942 0.597704 8486533 3
0.347442 0.189033 0.597991 7302771 3
0.315966 0.191669 0.576393 7763065 3
0.330095 0.194417 0.584658 7105133 3
0.342379 0.195954 0.589278 6842474 3
0.308860 0.196610 0.563431 8092541 3
-1.437667 0.074263 2.007672 2170918 3
-1.576995 0.076217 2.060506 2434868 3
-1.543164 0.076217 2.060506 2698039 3
-1.509332 0.076217 2.060506 2170405 3
-2.049678 0.087765 2.372703 1052179 3
0.396854 0.069208 0.991129 8356224 3
0.350251 0.086026 0.997442 8093566 3
0.366628 0.086026 0.997442 7632501 3
0.378187 0.084944 0.984896 7961466 3
0.389459 0.083889 0.972661 8093050 3
0.395601 0.081855 0.949081 7040362 3
0.337358 0.098634 0.960726 7567222 3
0.350979 0.098032 0.954868 7829880 3
0.364435 0.097438 0.949081 8290429 3
0.377729 0.096851 0.943364 8290429 3
0.388537 0.095698 0.932133 7895671 3
-0.323367 0.160749 1.058097 4538438 3
-0.358113 0.178122 1.058097 7171186 3
-0.340740 0.178122 1.058097 6709607 3
-0.387620 0.192888 1.043989 7170926 3
-0.358528 0.186666 1.010312 6447203 3
-0.279534 0.200910 0.752877 9342095 3
-0.267013 0.200790 0.752429 9210509 3
-0.280162 0.204698 0.722613 10065820 3
-0.273857 0.208940 0.737588 9539476 3
-0.262054 0.209186 0.738455 8092028 3
-0.248829 0.208265 0.735204 8618372 3
-0.235929 0.207535 0.732629 9342608 3
-0.219119 0.203103 0.716984 9408399 3
-0.265109 0.213989 0.714026 7697017 3
-0.260520 0.220014 0.734130 8157821 3
-0.248030 0.219628 0.732842 8420991 3
-0.233412 0.217222 0.724813 9079436 3
-0.217271 0.213064 0.710939 7895673 3
-0.941397 0.212197 1.565984 4210239 3
-0.960609 0.242764 1.597943 3552822 3
-0.908136 0.242764 1.597943 4342079 3
-0.960609 0.269000 1.597943 3618615 3
-0.908136 0.269000 1.597943 4736585 3
-0.768280 0.136023 1.003836 3223606 3
-0.784762 0.152505 1.003836 3092279 3
-0.728169 0.154486 1.016873 4078657 3
-0.720835 0.156519 1.030253 3881023 3
-0.713304 0.158606 1.043989 4012609 3
-0.758555 0.150575 0.991129 3223865 3
-0.774828 0.166848 0.991129 3684418 3
-0.749073 0.164763 0.978740 2894904 3
-0.797282 0.180833 0.978740 3289912 3
-0.791101 0.183122 0.991129 2500660 3
-0.765143 0.180833 0.978740 1777191 3
-0.730803 0.176422 0.954868 2698293 3
-0.797282 0.196903 0.978740 3421498 3
-0.781213 0.196903 0.978740 2895672 3
-0.746481 0.192100 0.954868 3684418 3
-0.713403 0.187526 0.932133 3684416 3
0.535792 0.132930 0.660753 4342597 3
0.568219 0.138177 0.686835 5263188 3
0.579496 0.138177 0.686835 6052447 3
0.516273 0.144388 0.663553 4868682 3
0.522738 0.143175 0.657977 5461332 3
0.524722 0.140808 0.647101 5263699 3
0.535347 0.140808 0.647101 5658200 3
0.589844 0.152123 0.699100 5460310 3
0.575625 0.145622 0.669224 6447205 3
0.503379 0.154669 0.660928 6184544 3
0.516137 0.155242 0.663378 5987163 3
0.523290 0.154141 0.658672 5395537 3
0.526780 0.152027 0.649639 6974571 3
0.535626 0.151512 0.647438 6974060 3
0.556936 0.154474 0.660097 7302514 3
0.503473 0.162058 0.647101 7171948 3
0.513965 0.162016 0.646935 6448993 3
0.521090 0.160936 0.642622 6383202 3
0.529334 0.160238 0.639833 6711399 3
0.534298 0.158593 0.633265 6579559 3
0.509883 0.171267 0.641797 6712167 3
0.518829 0.170743 0.639833 6251362 3
0.525176 0.169402 0.634807 6842731 3
0.529059 0.167333 0.627055 6579559 3
0.508588 0.181343 0.640166 6448743 3
0.518829 0.181249 0.639833 6448743 3
0.524526 0.179602 0.634021 6382182 3
0.524306 0.176033 0.621422 6382182 3
0.508568 0.187962 0.627180 6909296 3
0.516541 0.187120 0.624370 7040112 3
0.513916 0.182546 0.609108 6382182 3
0.500208 0.191130 0.604627 6382183 3
0.492665 0.161844 0.691588 6776170 3
0.499885 0.160516 0.685914 7171185 3
0.498984 0.156696 0.669592 7171185 3
0.413178 0.173199 0.691588 8025468 3
0.420236 0.171446 0.684587 8749191 3
0.429129 0.170513 0.680863 8155771 3
0.440189 0.170467 0.680678 8945287 3
0.449532 0.169775 0.677915 9866391 3
0.463557 0.170841 0.682173 9407121 3
0.477614 0.171869 0.686278 7960189 3
0.482411 0.169594 0.677194 6842220 3
0.485517 0.166841 0.666200 6579048 3
0.489590 0.164534 0.656987 7039599 3
0.489060 0.160812 0.642128 5987676 3
0.403810 0.180369 0.675906 8354947 3
0.415580 0.180662 0.677002 8946570 3
0.424750 0.179838 0.673915 9143436 3
0.434523 0.179305 0.671917 9932182 3
0.443769 0.178586 0.669224 8287873 3
0.456222 0.179162 0.671380 8814730 3
0.469634 0.180077 0.674812 8486533 3
0.472616 0.177044 0.663444 8026495 3
0.471598 0.172683 0.647101 6776427 3
0.479143 0.171579 0.642967 6710634 3
0.483117 0.169273 0.634325 7105903 3
0.497435 0.170612 0.639341 6250848 3
0.401426 0.190337 0.671917 9408148 3
0.410696 0.189524 0.669046 9407635 3
0.416359 0.187132 0.660601 9472914 3
0.425068 0.186196 0.657297 9011850 3
0.429436 0.183451 0.647609 9341074 3
0.445360 0.185657 0.655396 8025214 3
0.460586 0.187474 0.661810 8289156 3
0.466801 0.185625 0.655281 8486533 3
0.467733 0.181805 0.641797 7960701 3
0.476687 0.181203 0.639672 8092287 3
0.482994 0.179642 0.634163 7303284 3
0.495286 0.180327 0.636579 7369075 3
0.403587 0.197038 0.657465 7434357 3
0.404741 0.192454 0.642169 8420995 3
0.409797 0.189911 0.633683 8551811 3
0.417247 0.188576 0.629228 7499640 3
0.430823 0.190006 0.634002 7433849 3
0.442465 0.190537 0.635773 7301491 3
0.452216 0.190248 0.634807 7564663 3
0.459500 0.188957 0.630501 6908013 3
0.468203 0.188294 0.628288 6908013 3
0.471773 0.185639 0.619430 7040112 3
0.487361 0.187726 0.626394 7500663 3
0.499020 0.188245 0.628123 6514538 3
0.412277 0.196538 0.621733 7828858 3
0.425653 0.198011 0.626394 8091007 3
0.435938 0.198011 0.626394 8091011 3
0.442936 0.196553 0.621781 7959421 3
0.486759 0.189757 0.600284 6250597 3