# .PCD v0.7 - Point Cloud Data file format
VERSION 0.7
FIELDS x y z rgb label
SIZE 4 4 4 4 4
TYPE F F F U U
COUNT 1 1 1 1 1
WIDTH 944
HEIGHT 1
VIEWPOINT 0 0 0 1 0 0 0
POINTS 944
DATA ascii
0.609909 0.231376 0.695800 4209990 3
0.618755 0.230416 0.692913 3025716 3
0.634000 0.231830 0.697167 2960436 3
0.619600 0.237751 0.681332 4144456 3
0.639751 0.241130 0.691014 4210503 3
0.586899 0.231312 0.695610 4078917 3
0.593705 0.229528 0.690244 5131605 3
0.520162 0.233292 0.668551 3026740 3
0.537133 0.235925 0.676097 6579561 3
0.548080 0.235858 0.675906 4539976 3
0.558272 0.235476 0.674812 4473926 3
0.565395 0.233839 0.670122 3881536 3
0.575625 0.233526 0.669224 4276294 3
0.586613 0.233526 0.669224 4012611 3
0.597601 0.233526 0.669224 3552060 3
0.514654 0.236687 0.647801 4605771 3
0.535374 0.241231 0.660237 6119008 3
0.551147 0.243409 0.666200 4408133 3
0.556618 0.241041 0.659719 6052705 3
0.562708 0.239027 0.654207 3618364 3
0.571948 0.238401 0.652493 4275781 3
0.586027 0.239779 0.656263 3617853 3
0.589450 0.236825 0.648178 2499631 3
0.516996 0.243418 0.637574 4539719 3
0.541361 0.249831 0.654370 4868169 3
0.549529 0.248666 0.651317 3420725 3
0.553460 0.245664 0.643454 3552311 3
0.306671 0.207995 0.657977 8618119 3
0.313786 0.205579 0.650333 8421252 3
0.321441 0.203663 0.644273 7763833 3
0.328894 0.201746 0.638210 6974056 3
0.302854 0.216074 0.649786 7039342 3
0.310793 0.214194 0.644130 5855579 3
0.318007 0.211953 0.637391 6645606 3
0.728018 0.239586 0.897811 2499885 3
0.753534 0.233782 0.876062 1447195 3
0.759731 0.231289 0.866721 2763055 3
0.702793 0.235959 0.832970 2236200 3
0.706208 0.232580 0.821040 2039334 3
0.704904 0.227802 0.804173 1907748 3
0.727539 0.230794 0.814735 1907235 3
0.776758 0.251443 0.839000 2301477 3
0.769345 0.258110 0.816512 3288886 3
0.605423 0.207650 0.778135 2960946 3
0.626378 0.210397 0.788430 3486778 3
0.608255 0.221457 0.781775 3224119 3
0.619930 0.221043 0.780314 2763055 3
0.606171 0.233490 0.779097 2894900 3
0.616856 0.232696 0.776445 2368810 3
0.641857 0.237224 0.791555 3882048 3
0.660989 0.239447 0.798972 4802637 3
0.669426 0.237784 0.793423 4210503 3
0.671023 0.233801 0.780134 1644576 3
0.678120 0.231848 0.773617 2565165 3
0.671408 0.225333 0.751876 2433579 3
0.603398 0.240089 0.759504 2434603 3
0.606078 0.227077 0.718341 4934226 3
0.618595 0.227342 0.719181 6250086 3
0.640883 0.231121 0.731136 3223095 3
0.644604 0.228189 0.721861 2630958 3
0.676739 0.235239 0.744163 2959923 3
0.650349 0.233591 0.702461 3486265 3
0.519397 0.209021 0.783275 3422267 3
0.531082 0.208559 0.781543 3817025 3
0.542043 0.207842 0.778856 4539978 3
0.550385 0.206177 0.772614 4276293 3
0.562375 0.205922 0.771659 4013635 3
0.577713 0.206877 0.775240 3289912 3
0.590441 0.206877 0.775240 3289911 3
0.514017 0.219583 0.775160 4474953 3
0.531082 0.221392 0.781543 3488058 3
0.542211 0.220698 0.779097 4342597 3
0.553114 0.219947 0.776445 4144961 3
0.565160 0.219674 0.775481 3618877 3
0.580587 0.220698 0.779097 4539979 3
0.593379 0.220698 0.779097 2960947 3
0.513614 0.226520 0.755839 3224886 3
0.538905 0.232067 0.774346 3553081 3
0.551244 0.231909 0.773819 3355445 3
0.562201 0.231190 0.771421 2631981 3
0.575224 0.231334 0.771900 5395288 3
0.593379 0.233490 0.779097 3026740 3
0.506729 0.235727 0.745707 5132367 3
0.523211 0.237652 0.751795 5461078 3
0.549367 0.243781 0.771184 4868943 3
0.557569 0.241847 0.765065 4145221 3
0.565477 0.239873 0.758821 3684670 3
0.576180 0.239144 0.756514 3422012 3
0.590565 0.239942 0.759039 2566705 3
0.592174 0.230852 0.730284 2829360 3
0.595140 0.227404 0.719376 3618363 3
0.553705 0.252645 0.759763 3749949 3
0.555079 0.247692 0.744867 5197909 3
0.557496 0.243408 0.731983 4079428 3
0.571853 0.244407 0.734989 4540495 3
0.580533 0.242989 0.730724 4539979 3
0.576222 0.236301 0.710612 3947841 3
0.583915 0.234704 0.705808 3947328 3
0.461858 0.212128 0.794916 5855838 3
0.474760 0.212061 0.794665 5330011 3
0.483820 0.210327 0.788169 4606286 3
0.495367 0.209737 0.785958 4605771 3
0.499025 0.205922 0.771659 3882046 3
0.404255 0.202827 0.716007 4934477 3
0.433267 0.211240 0.745707 5132115 3
0.459225 0.217743 0.768662 5724253 3
0.476623 0.219947 0.776445 5592667 3
0.481945 0.216609 0.764661 5263699 3
0.486012 0.212891 0.751537 4013632 3
0.423632 0.212509 0.709086 3749950 3
0.449330 0.219371 0.731983 2763054 3
0.463379 0.220336 0.735204 3684667 3
0.472409 0.218927 0.730502 5132367 3
0.486836 0.220027 0.734171 4211781 3
0.448111 0.224750 0.710980 6381669 3
0.468578 0.229048 0.724577 5131854 3
0.477474 0.227618 0.720052 4408644 3
0.717743 0.246642 0.984847 3158326 3
0.711095 0.228887 0.913953 2566186 3
0.791279 0.249433 0.995994 2565676 3
0.753220 0.242960 0.910456 2104616 3
0.762099 0.241040 0.903261 1512477 3
0.457539 0.209028 0.834655 4211013 3
0.467674 0.207445 0.828334 5132113 3
0.477150 0.205668 0.821236 4211013 3
0.491342 0.205964 0.822421 4474702 3
0.453611 0.220820 0.827490 6710634 3
0.451713 0.213502 0.800064 5066574 3
0.002849 0.105005 0.448706 11649973 3
0.010222 0.105062 0.448949 9938328 3
0.017775 0.106146 0.453581 11646639 3
0.025314 0.106531 0.455228 11842992 3
0.002823 0.111359 0.444658 10794664 3
0.010197 0.112153 0.447829 11583921 3
0.017862 0.114152 0.455812 11977396 3
0.025462 0.114672 0.457890 11580077 3
0.033254 0.115627 0.461702 10461087 3
0.002795 0.117470 0.440202 9346959 3
0.010180 0.119316 0.447117 10268059 3
0.017878 0.121746 0.456224 10595743 3
0.025462 0.122191 0.457890 12107191 3
0.033248 0.123185 0.461616 11579568 3
0.040977 0.123637 0.463309 11184808 3
0.002784 0.124179 0.438371 10465437 3
0.010209 0.127020 0.448398 10136985 3
0.017891 0.129331 0.456555 12043702 3
0.025388 0.129331 0.456555 11515054 3
0.032950 0.129591 0.457473 7763061 3
0.040744 0.130498 0.460676 11645102 3
0.048468 0.130930 0.462200 9803668 3
0.002757 0.130118 0.434171 10202778 3
0.010036 0.132093 0.440760 9413263 3
0.017781 0.135985 0.453745 9411730 3
0.025095 0.135249 0.451292 9080972 3
0.032634 0.135789 0.453091 11382187 3
0.040307 0.136579 0.455728 12303289 3
0.047894 0.136877 0.456723 10987429 3
0.056152 0.138752 0.462980 10197402 3
0.063858 0.138980 0.463739 10856358 3
0.071406 0.138851 0.463309 10987429 3
0.032465 0.142487 0.450746 12633537 3
0.040424 0.144482 0.457058 11382700 3
0.048034 0.144798 0.458058 10593186 3
0.056434 0.147090 0.465310 9737366 3
0.064107 0.147167 0.465551 10131611 3
0.071472 0.146594 0.463739 8289918 3
0.040617 0.152710 0.459233 15856624 3
0.048166 0.152738 0.459317 10329501 3
0.056329 0.154441 0.464440 10263197 3
0.064238 0.155127 0.466502 9473679 3
0.071684 0.154666 0.465116 10592160 3
0.079322 0.154668 0.465121 7894647 3
0.064370 0.163120 0.467458 9079175 3
0.072045 0.163120 0.467458 11381676 3
-0.032649 0.100869 0.431030 11781297 3
-0.004498 0.104538 0.446710 11518385 3
-0.071064 0.102130 0.407808 11448995 3
-0.064834 0.102869 0.410760 12568506 3
-0.058492 0.103581 0.413600 11186853 3
-0.051984 0.104148 0.415866 10265236 3
-0.045519 0.104985 0.419206 8885125 3
-0.038870 0.105620 0.421744 9609359 3
-0.032108 0.106157 0.423888 12439992 3
-0.025480 0.107558 0.429481 9941651 3
-0.018498 0.107964 0.431105 10664349 3
-0.011463 0.108375 0.432743 13688778 3
-0.004399 0.109415 0.436897 10202779 3
-0.045352 0.111456 0.417666 10727842 3
-0.038733 0.112149 0.420260 14149848 3
-0.031950 0.112564 0.421815 10335132 3
-0.025307 0.113832 0.426566 9547920 3
-0.018498 0.115043 0.431105 10861728 3
-0.011461 0.115460 0.432667 14741466 3
-0.004370 0.115820 0.434018 11451818 3
-0.018415 0.121579 0.429191 10861476 3
-0.011429 0.122226 0.431475 12503993 3
-0.004357 0.122564 0.432667 11911856 3
0.889454 0.209053 0.960726 1973289 3
0.875833 0.233824 0.999174 1841952 3
0.888931 0.232957 0.995469 2434090 3
0.889911 0.229004 0.978574 2894641 3
0.869784 0.219855 0.939480 2828596 3
0.823247 0.249210 0.995100 2104362 3
0.828411 0.245893 0.981856 1775651 3
0.830825 0.241902 0.965920 1973539 3
0.826660 0.236181 0.943076 3026740 3
0.840825 0.235811 0.941599 2763055 3
0.850869 0.234319 0.935643 2697262 3
0.811115 0.242392 0.908327 3420985 3
0.842662 0.247273 0.926618 2762542 3
0.504383 0.212973 0.978740 4277323 3
0.520453 0.212973 0.978740 4276296 3
0.523437 0.207778 0.954868 5131090 3
0.552593 0.212973 0.978740 4802380 3
0.510886 0.224832 0.960749 4540495 3
0.536523 0.229043 0.978740 4342086 3
0.552593 0.229043 0.978740 3552570 3
0.573612 0.231036 0.987258 3684670 3
0.290107 0.151447 0.695993 7829115 3
0.294980 0.148155 0.680863 5592407 3
0.289341 0.162444 0.694154 6315619 3
0.294821 0.159248 0.680496 6184031 3
0.277697 0.173688 0.693539 6709608 3
0.284426 0.170889 0.682362 6381412 3
0.292281 0.168953 0.674633 7697270 3
0.264043 0.183499 0.687635 9538193 3
0.271305 0.180815 0.677575 8946569 3
0.280072 0.179305 0.671917 8092030 3
0.289784 0.178492 0.668870 7828858 3
0.298296 0.177026 0.663378 8420993 3
0.251288 0.193661 0.683650 8355713 3
0.259893 0.191728 0.676827 7367535 3
0.267899 0.189530 0.669069 7959674 3
0.277762 0.188768 0.666376 7170158 3
0.288627 0.188718 0.666200 7038572 3
0.298296 0.187918 0.663378 7564917 3
0.229559 0.195921 0.653736 7434357 3
0.266821 0.199709 0.666376 9341327 3
0.277836 0.199762 0.666554 8091260 3
0.299487 0.199603 0.666025 7038319 3
0.971102 0.218781 1.087489 2630958 3
0.962229 0.212868 1.058097 1973287 3
0.915117 0.227171 1.043989 2762542 3
0.908043 0.221270 1.016873 2697262 3
0.924739 0.221270 1.016873 2368299 3
0.887991 0.220311 1.095094 2829111 3
0.863969 0.236636 1.087489 2433838 3
0.869745 0.233395 1.072592 2828596 3
0.854713 0.257078 1.098542 3026226 3
0.843517 0.248467 1.061745 3815232 3
0.842697 0.243200 1.039236 2301995 3
0.861905 0.243806 1.041829 1973030 3
0.880470 0.244211 1.043557 2828848 3
0.890942 0.242399 1.035813 2565675 3
0.813992 0.251397 1.003836 2236202 3
0.619584 0.208639 1.037076 4276553 3
0.640856 0.210029 1.043989 3750463 3
0.611485 0.222716 1.023519 4474702 3
0.636612 0.225666 1.037076 3947842 3
0.613846 0.240446 1.027471 3619393 3
0.643113 0.245172 1.047665 3422012 3
0.507338 0.204574 1.016873 4145221 3
0.524034 0.204574 1.016873 3750209 3
0.537242 0.203254 1.010312 5460059 3
0.557426 0.204574 1.016873 7499638 3
0.570418 0.203254 1.010312 7170673 3
0.598592 0.207266 1.030253 4737104 3
0.583244 0.218433 1.003836 4473932 3
0.407162 0.204574 1.016873 6645355 3
0.423858 0.204574 1.016873 6447975 3
0.443434 0.205911 1.023519 5197906 3
0.457250 0.204574 1.016873 4671816 3
0.470888 0.203254 1.010312 4145218 3
0.484352 0.201951 1.003836 6447973 3
0.010275 0.090791 0.451292 10595234 3
0.002874 0.098484 0.452597 10596258 3
0.010275 0.098201 0.451292 9345680 3
0.017788 0.098770 0.453908 9936022 3
0.025240 0.098770 0.453908 10790050 3
0.907020 0.206666 1.118560 2500660 3
0.938796 0.209661 1.134771 1710369 3
0.964417 0.211191 1.143054 2302246 3
0.983185 0.211191 1.143054 2367269 3
0.925385 0.225032 1.118560 2697010 3
0.957428 0.228293 1.134771 2697004 3
0.976060 0.228293 1.134771 2433062 3
0.987536 0.226651 1.126607 2367784 3
0.912351 0.239969 1.102806 2236459 3
0.937057 0.241671 1.110627 2433577 3
0.948565 0.239969 1.102806 1381144 3
0.801356 0.212744 1.151459 1579040 3
0.820262 0.212744 1.151459 1711398 3
0.833042 0.211191 1.143054 2105384 3
0.845637 0.209661 1.134771 1973539 3
0.870578 0.211191 1.143054 2828590 3
0.889346 0.211191 1.143054 2301993 3
0.895047 0.208153 1.126607 2763318 3
0.819431 0.236875 1.177432 3684416 3
0.851692 0.235108 1.168645 2302506 3
0.851810 0.229959 1.143054 1381402 3
0.870578 0.229959 1.143054 1183765 3
0.882901 0.228293 1.134771 2104612 3
0.882351 0.223436 1.110627 2434351 3
0.800099 0.256208 1.177432 4802638 3
0.819431 0.256208 1.177432 3092022 3
0.851692 0.254296 1.168645 2763568 3
0.845637 0.246925 1.134771 2303016 3
0.864269 0.246925 1.134771 2565675 3
0.870288 0.243397 1.118560 2302504 3
0.802785 0.276465 1.181384 2697261 3
0.833580 0.280297 1.197761 1249816 3
0.834662 0.268015 1.145278 2763314 3
0.839554 0.263646 1.126607 2500395 3
0.853460 0.262235 1.120579 2105378 3
0.771110 0.209661 1.134771 2499374 3
0.718233 0.223436 1.110627 4736336 3
0.736468 0.223436 1.110627 6183780 3
0.794128 0.235108 1.168645 5460570 3
0.723363 0.243397 1.118560 3157300 3
0.747065 0.245148 1.126607 3749950 3
0.730570 0.264371 1.129705 3749949 3
0.757315 0.267263 1.142065 2894640 3
0.708188 0.202330 1.095094 4867922 3
0.726168 0.202330 1.095094 4341578 3
0.733982 0.270505 1.080133 3290681 3
0.760167 0.273546 1.092276 3684669 3
0.774692 0.272347 1.087489 3026227 3
0.223523 0.144666 0.782992 9013641 3
0.238767 0.146127 0.790901 7105903 3
0.249235 0.144666 0.782992 5921632 3
0.249610 0.137777 0.745707 5855836 3
0.220220 0.155194 0.771421 7237743 3
0.228386 0.152195 0.756514 8684935 3
0.244348 0.154433 0.767639 8816524 3
0.249610 0.150021 0.745707 6908524 3
0.261854 0.150021 0.745707 7435636 3
0.274098 0.150021 0.745707 7107186 3
0.219140 0.167037 0.767639 8224638 3
0.225123 0.162265 0.745707 7698294 3
0.240807 0.164616 0.756514 7829628 3
0.248427 0.161496 0.742173 7829626 3
0.260613 0.161496 0.742173 7435636 3
0.268975 0.159232 0.731768 8027005 3
0.280990 0.159232 0.731768 8092541 3
0.286315 0.155596 0.715061 6579049 3
0.226051 0.185306 0.791847 7369075 3
0.225190 0.174561 0.745930 7500915 3
0.238431 0.175291 0.749052 7763833 3
0.248724 0.173889 0.743058 8290177 3
0.259010 0.172613 0.737608 7829880 3
0.265256 0.168879 0.721652 7829369 3
0.274507 0.167296 0.714886 6972777 3
0.283248 0.165545 0.707402 6907501 3
0.231744 0.192245 0.767639 6646124 3
0.241769 0.190216 0.759538 7369843 3
0.249170 0.186423 0.744392 8356224 3
0.258489 0.184352 0.736123 7171696 3
0.262834 0.179078 0.715061 6645095 3
0.271188 0.176869 0.706243 6577508 3
0.249049 0.198549 0.744031 6908267 3
0.250971 0.190725 0.714713 7237489 3
0.259066 0.188083 0.704810 9408401 3
0.032614 0.108364 0.586511 9474192 3
0.051488 0.107558 0.582150 9473933 3
0.060596 0.106765 0.577854 9868948 3
0.070343 0.107160 0.579994 9736853 3
0.079279 0.106372 0.575729 9671060 3
0.089721 0.107558 0.582150 13881812 3
0.022898 0.117554 0.584322 11449261 3
0.032371 0.117117 0.582150 11382187 3
0.041467 0.115825 0.575729 11578539 3
0.050920 0.115825 0.575729 10658718 3
0.059715 0.114562 0.569449 11513773 3
0.069826 0.115825 0.575729 12039608 3
0.079279 0.115825 0.575729 12565952 3
0.089721 0.117117 0.582150 10461089 3
0.049465 0.121699 0.559280 11908785 3
0.058858 0.122135 0.561285 11645870 3
0.068074 0.122135 0.561285 12500157 3
0.077290 0.122135 0.561285 11053224 3
0.087130 0.123017 0.565337 10461087 3
0.096762 0.123462 0.567386 9539474 3
0.057978 0.129385 0.552886 10264472 3
0.067515 0.130271 0.556672 11447980 3
0.076740 0.130416 0.557290 11842738 3
0.086101 0.130736 0.558658 10000536 3
0.095422 0.130940 0.559532 11250092 3
0.045231 0.128076 0.511409 10264219 3
0.056118 0.134023 0.535156 9935252 3
0.065254 0.134743 0.538032 9343370 3
0.075136 0.136648 0.545639 8883336 3
0.084705 0.137640 0.549602 9540498 3
0.094307 0.138489 0.552989 12434366 3
0.075136 0.145607 0.545639 9804695 3
0.084705 0.146664 0.549602 10330528 3
0.094078 0.147210 0.551647 11053226 3
0.403569 0.176926 1.050996 3948356 3
0.420825 0.176926 1.050996 4211781 3
0.432279 0.174583 1.037076 5396055 3
0.452302 0.175747 1.043989 3817023 3
0.469443 0.175747 1.043989 4145218 3
0.486585 0.175747 1.043989 5067090 3
0.409823 0.189106 1.023519 4935506 3
0.423858 0.187878 1.016873 4672334 3
0.446351 0.190350 1.030253 5132883 3
0.463267 0.190350 1.030253 5330260 3
0.483362 0.191611 1.037076 5263699 3
0.154605 0.115490 0.760186 8355972 3
0.148825 0.123187 0.731768 9277072 3
0.172099 0.144666 0.782992 6513509 3
0.172099 0.157522 0.782992 7565684 3
0.189437 0.187889 0.704086 6579561 3
0.071401 0.089439 0.588716 8947850 3
0.032492 0.098366 0.584322 10461087 3
0.051488 0.098000 0.582150 7697268 3
0.060820 0.097637 0.579994 6908267 3
0.070343 0.097637 0.579994 10066329 3
0.078989 0.096564 0.573621 9539985 3
0.090056 0.098366 0.584322 8487299 3
-0.201697 0.065414 0.388582 2500132 3
0.597398 0.126003 1.058097 2236710 3
0.596137 0.147359 1.087489 3552311 3
0.597398 0.143376 1.058097 2828847 3
0.542570 0.165214 1.087489 3881535 3
0.556561 0.164075 1.079989 4210754 3
0.570359 0.162951 1.072592 4143680 3
0.583971 0.161842 1.065295 4473415 3
0.589432 0.158606 1.043989 3815742 3
0.503726 0.175747 1.043989 3487290 3
0.524363 0.176926 1.050996 4013634 3
0.541619 0.176926 1.050996 4013375 3
0.562652 0.178122 1.058097 5064783 3
0.576132 0.176926 1.050996 4406853 3
0.589432 0.175747 1.043989 4473673 3
0.500390 0.191611 1.037076 5461080 3
0.520867 0.192888 1.043989 4803150 3
0.541619 0.194183 1.050996 4408393 3
0.558876 0.194183 1.050996 5722459 3
0.576132 0.194183 1.050996 6709354 3
0.593388 0.194183 1.050996 5657434 3
0.205506 0.103603 0.869991 7434358 3
0.216187 0.101904 0.855729 2104612 3
0.231502 0.102464 0.860431 2895153 3
0.245630 0.102464 0.860431 2500395 3
0.262643 0.103603 0.869991 3618876 3
0.205506 0.117887 0.869991 5855325 3
0.217375 0.116592 0.860431 6249824 3
0.228986 0.115324 0.851078 5065809 3
0.242960 0.115324 0.851078 4934736 3
0.258338 0.115954 0.855729 4013634 3
0.278475 0.118546 0.874852 1974051 3
0.205506 0.132171 0.869991 6974060 3
0.217375 0.130719 0.860431 8684163 3
0.228986 0.129298 0.851078 7894649 3
0.240347 0.127908 0.841927 7171439 3
0.254171 0.127908 0.841927 5657946 3
0.267995 0.127908 0.841927 4934736 3
0.206654 0.147274 0.874852 7895160 3
0.218576 0.145647 0.865185 9144968 3
0.226524 0.141731 0.841927 10328472 3
0.232837 0.137302 0.815617 8684163 3
0.247517 0.138021 0.819887 7039853 3
0.260979 0.138021 0.819887 7763835 3
0.284881 0.143272 0.851078 5067090 3
0.205506 0.160740 0.869991 9145740 3
0.217375 0.158974 0.860431 8618883 3
0.222928 0.153086 0.828563 7895160 3
0.298855 0.157246 0.851078 5988703 3
0.201038 0.171220 0.851078 7960955 3
0.213850 0.170294 0.846478 8092539 3
0.224114 0.167577 0.832970 7632247 3
0.203247 0.187229 0.860431 8091260 3
0.212700 0.183202 0.841927 8289920 3
0.226524 0.183202 0.841927 8487556 3
0.226524 0.197026 0.841927 7237491 3
0.195567 0.105957 0.889764 2236711 3
0.102111 0.114084 0.841927 6382180 3
0.169408 0.112871 0.832970 6974320 3
0.185053 0.114084 0.841927 7763322 3
0.177422 0.122633 0.807208 6579302 3
0.192290 0.147274 0.874852 6974058 3
-0.171082 0.051132 0.377346 2235933 3
-0.165685 0.051379 0.379173 2368037 3
-0.147198 0.053721 0.396452 6052704 3
-0.141045 0.053857 0.397458 3157553 3
-0.179003 0.057885 0.381018 6972518 3
-0.171910 0.057605 0.379173 3814452 3
-0.166087 0.057745 0.380093 3157037 3
-0.155111 0.058311 0.383820 8882316 3
-0.146826 0.060078 0.395451 7566195 3
-0.140688 0.060230 0.396452 7434350 3
-0.134519 0.060383 0.397458 10658207 3
-0.128647 0.060691 0.399486 5329744 3
-0.172328 0.063986 0.380093 7696239 3
-0.166491 0.064141 0.381018 11907506 3
-0.161019 0.064455 0.382881 10394783 3
-0.155875 0.064931 0.385710 10987944 3
-0.149912 0.065091 0.386663 8224636 3
-0.145722 0.066070 0.392477 10066581 3
-0.139979 0.066403 0.394454 9605517 3
-0.133840 0.066571 0.395451 4802628 3
-0.127994 0.066909 0.397458 7961464 3
-0.122087 0.067250 0.399486 10198424 3
-0.115528 0.067250 0.399486 13488843 3
-0.172747 0.070397 0.381018 11710123 3
-0.161413 0.070915 0.383820 11841459 3
-0.155875 0.071264 0.385710 9408140 3
-0.149912 0.071440 0.386663 13290438 3
-0.145358 0.072333 0.391496 11053475 3
-0.139628 0.072697 0.393463 11382440 3
-0.133840 0.073064 0.395451 8290169 3
-0.127994 0.073435 0.397458 10659230 3
-0.121777 0.073621 0.398469 13159878 3
-0.115234 0.073621 0.398469 11712433 3
-0.173592 0.077028 0.382881 13683656 3
-0.161413 0.077217 0.383820 13288644 3
-0.155875 0.077597 0.385710 12171446 3
-0.149912 0.077789 0.386663 15593192 3
-0.144634 0.078369 0.389548 13027265 3
-0.138930 0.078761 0.391496 12764093 3
-0.133503 0.079356 0.394454 11908784 3
-0.127347 0.079557 0.395451 10132373 3
-0.121160 0.079758 0.396452 14277332 3
-0.114651 0.079758 0.396452 14014418 3
-0.108416 0.079960 0.397458 13224902 3
-0.102149 0.080164 0.398469 10593184 3
-0.155875 0.083930 0.385710 13882315 3
-0.149542 0.083930 0.385710 11975088 3
-0.144276 0.084555 0.388582 15396324 3
-0.138238 0.084765 0.389548 13948880 3
-0.132502 0.085189 0.391496 12764093 3
-0.126390 0.085403 0.392477 13289924 3
-0.120550 0.085833 0.394454 13750475 3
-0.113787 0.085617 0.393463 12895680 3
-0.107868 0.086050 0.395451 12303543 3
0.917602 0.199395 0.991129 1117980 3
0.902521 0.119091 1.159988 3815230 3
0.928444 0.119980 1.168645 3157555 3
0.933697 0.118215 1.151459 2302246 3
0.938796 0.116502 1.134771 1051924 3
0.902521 0.138137 1.159988 2301223 3
0.928444 0.139168 1.168645 1511961 3
0.940613 0.138137 1.159988 2565163 3
0.952602 0.137121 1.151459 2565676 3
0.902521 0.157183 1.159988 2630958 3
0.928444 0.158356 1.168645 1775649 3
0.940613 0.157183 1.159988 2170407 3
0.966820 0.158356 1.168645 2236711 3
0.986008 0.158356 1.168645 2170918 3
0.914791 0.174933 1.151459 1907494 3
0.940613 0.176228 1.159988 1249564 3
0.959659 0.176228 1.159988 2236713 3
0.978705 0.176228 1.159988 2894641 3
0.901533 0.191029 1.134771 2236974 3
0.920165 0.191029 1.134771 1315872 3
0.945649 0.192424 1.143054 1381404 3
0.964417 0.192424 1.143054 1249815 3
0.983185 0.192424 1.143054 1907233 3
0.754704 0.114023 1.110627 2237223 3
0.749389 0.131327 1.102806 1973538 3
0.795506 0.136120 1.143054 2171431 3
0.749389 0.149434 1.102806 2039332 3
0.789742 0.153766 1.134771 2566189 3
0.749389 0.167541 1.102806 2697264 3
0.778460 0.169935 1.118560 2500142 3
0.796826 0.169935 1.118560 1579042 3
0.760094 0.188300 1.118560 2368045 3
0.789742 0.191029 1.134771 1513249 3
0.706408 0.109369 1.065295 3420984 3
0.701635 0.126003 1.058097 2894640 3
0.701635 0.143376 1.058097 2368296 3
0.711247 0.162951 1.072592 2170918 3
0.716152 0.181807 1.079989 2434092 3
0.601462 0.109369 1.065295 2960433 3
0.610645 0.107901 1.050996 2433838 3
0.619584 0.106472 1.037076 2697264 3
0.636612 0.106472 1.037076 3815742 3
0.657997 0.107182 1.043989 2763308 3
0.675139 0.107182 1.043989 3881535 3
0.610645 0.125157 1.050996 2170920 3
0.615508 0.122687 1.030253 2631471 3
0.636612 0.123500 1.037076 4539465 3
0.657997 0.124323 1.043989 3552570 3
0.675139 0.124323 1.043989 2697515 3
0.610645 0.142414 1.050996 2368299 3
0.611485 0.138691 1.023519 2697264 3
0.632424 0.139603 1.030253 2894641 3
0.657997 0.141464 1.043989 3420984 3
0.675139 0.141464 1.043989 2170917 3
0.606574 0.158606 1.043989 3816002 3
0.611485 0.155496 1.023519 3092022 3
0.636612 0.157555 1.037076 2894130 3
0.662414 0.159670 1.050996 2170407 3
0.684262 0.160749 1.058097 2828335 3
0.606574 0.175747 1.043989 2302763 3
0.619584 0.174583 1.037076 2499631 3
0.640856 0.175747 1.043989 2630960 3
0.662414 0.176926 1.050996 2301993 3
0.688917 0.179334 1.065295 2894130 3
0.610645 0.194183 1.050996 3881795 3
0.623715 0.192888 1.043989 2763314 3
0.645157 0.194183 1.050996 1710369 3
0.676025 0.198173 1.072592 2894130 3
0.591895 0.121798 1.186352 2697002 3
0.584792 0.116502 1.134771 1447448 3
0.510115 0.140214 1.177432 2631469 3
0.537531 0.142355 1.195408 3223606 3
0.557158 0.142355 1.195408 3420984 3
0.570293 0.136120 1.143054 4013121 3
0.584792 0.135134 1.134771 2499621 3
0.599083 0.134162 1.126607 1907484 3
0.513989 0.154888 1.143054 3684156 3
0.532757 0.154888 1.143054 3684669 3
0.551525 0.154888 1.143054 3684157 3
0.562087 0.152659 1.126607 3749949 3
0.572350 0.150494 1.110627 6578787 3
0.590585 0.150494 1.110627 5460308 3
0.513998 0.167541 1.102806 3026737 3
0.532105 0.167541 1.102806 3750462 3
-0.103284 0.059390 0.498721 4539976 3
-0.110767 0.067151 0.495565 10592673 3
-0.101985 0.066728 0.492448 7961212 3
-0.123029 0.061159 0.402567 8355963 3
-0.116419 0.061159 0.402567 8093817 3
-0.109809 0.061159 0.402567 12240057 3
-0.100096 0.073429 0.483328 8619396 3
-0.109809 0.067769 0.402567 12174267 3
-0.104002 0.068295 0.405695 10725540 3
-0.109528 0.074188 0.401534 13489357 3
-0.104002 0.074957 0.405695 13423053 3
0.813316 0.100792 1.168645 1842466 3
0.801356 0.118215 1.151459 2105638 3
0.814274 0.117352 1.143054 1579808 3
0.833042 0.117352 1.143054 1381404 3
0.858073 0.118215 1.151459 1249818 3
0.876979 0.118215 1.151459 3486267 3
0.814274 0.136120 1.143054 2960947 3
0.833042 0.136120 1.143054 3223606 3
0.851810 0.136120 1.143054 2104614 3
0.883475 0.138137 1.159988 2301995 3
0.802558 0.152659 1.126607 3223865 3
0.821056 0.152659 1.126607 3552570 3
0.845637 0.153766 1.134771 3815745 3
0.876979 0.156027 1.151459 3815234 3
0.821056 0.171157 1.126607 2894641 3
0.845637 0.172397 1.134771 2434090 3
0.870578 0.173656 1.143054 2631471 3
0.895885 0.174933 1.151459 1578270 3
0.808374 0.191029 1.134771 1447458 3
0.827006 0.191029 1.134771 2236970 3
0.839554 0.189655 1.126607 2566189 3
0.864269 0.191029 1.134771 3092020 3
0.889346 0.192424 1.143054 2631217 3
0.506001 0.124630 1.213941 3947329 3
0.538455 0.127597 1.242845 3815743 3
0.572492 0.130710 1.273158 3093302 3
0.574706 0.126593 1.233058 4013635 3
0.594952 0.126593 1.233058 3684156 3
0.581222 0.143450 1.204603 3355192 3
0.436065 0.121798 1.186352 4079427 3
0.455544 0.121798 1.186352 3289912 3
0.401382 0.136120 1.143054 4738127 3
0.423239 0.137121 1.151459 3685184 3
0.445420 0.138137 1.159988 4145990 3
0.467932 0.139168 1.168645 2303017 3
0.487120 0.139168 1.168645 3684670 3
0.420150 0.154888 1.143054 3224633 3
0.438918 0.154888 1.143054 3882818 3
0.461051 0.156027 1.151459 3750462 3
0.479957 0.156027 1.151459 3026739 3
0.498863 0.156027 1.151459 3750462 3
0.417106 0.172397 1.134771 4343114 3
0.435737 0.172397 1.134771 3356474 3
0.454369 0.172397 1.134771 4343369 3
0.462937 0.168729 1.110627 4080197 3
0.481173 0.168729 1.110627 4474185 3
0.495891 0.167541 1.102806 4276806 3
0.405356 0.185648 1.102806 4211528 3
0.482330 0.123671 1.204603 2565678 3
0.104031 0.091464 0.674993 5328981 3
0.119224 0.094731 0.699100 4013375 3
-0.094493 0.059014 0.495565 1842465 3
-0.093312 0.066311 0.489370 7237489 3
-0.084748 0.065900 0.486331 2763565 3
-0.076525 0.065696 0.484825 6711145 3
-0.068143 0.065291 0.481841 3355704 3
-0.060982 0.066105 0.487846 2303017 3
-0.053304 0.066519 0.490904 4341829 3
-0.045529 0.066939 0.494001 8881028 3
-0.037776 0.067579 0.498721 6381408 3
-0.091595 0.072978 0.480363 9737877 3
-0.083708 0.072978 0.480363 9540498 3
-0.075589 0.072755 0.478894 11120044 3
-0.067934 0.072978 0.480363 8027773 3
-0.061557 0.074814 0.492448 9606037 3
-0.053981 0.075526 0.497138 7368303 3
-0.045964 0.075767 0.498721 11315367 3
-0.097341 0.068295 0.405695 11711152 3
-0.097684 0.079404 0.471682 11711665 3
-0.089940 0.079404 0.471682 12632767 3
-0.082195 0.079404 0.471682 14606557 3
-0.074675 0.079644 0.473107 11844019 3
-0.067726 0.080618 0.478894 7962745 3
-0.061557 0.082899 0.492448 8817543 3
-0.053981 0.083689 0.497138 11580077 3
-0.045964 0.083956 0.498721 9342857 3
-0.097341 0.074957 0.405695 6908263 3
-0.091390 0.075544 0.408873 10197656 3
-0.094551 0.084353 0.456555 12632765 3
-0.087566 0.084848 0.459233 12765121 3
-0.080026 0.084848 0.459233 16449529 3
-0.072274 0.084600 0.457890 10593951 3
-0.064755 0.084600 0.457890 10594718 3
-0.089980 0.080988 0.402567 14146004 3
-0.093732 0.091053 0.452597 12962499 3
-0.086802 0.091583 0.455228 11843504 3
-0.078869 0.091053 0.452597 12172983 3
-0.070824 0.090271 0.448706 10133654 3
-0.062738 0.089248 0.443622 9542030 3
-0.054375 0.087512 0.434996 9476751 3
-0.047102 0.087270 0.433791 9016713 3
-0.039980 0.087270 0.433791 10792097 3
-0.096096 0.087150 0.400507 15462634 3
-0.089520 0.087150 0.400507 13883601 3
-0.084589 0.096531 0.443622 12961981 3
-0.077305 0.096531 0.443622 13488579 3
-0.069824 0.096259 0.442368 10068372 3
-0.061861 0.095183 0.437426 10463646 3
-0.054075 0.094132 0.432592 11582640 3
-0.046843 0.093872 0.431401 11583153 3
-0.039870 0.094132 0.432592 11451052 3
-0.004571 0.098770 0.453908 8490882 3
-0.084069 0.094997 0.405940 15002845 3
-0.078386 0.096203 0.411092 13291197 3
-0.071812 0.096439 0.412101 12764853 3
-0.065294 0.096806 0.413669 11055265 3
-0.059397 0.098287 0.419999 11977139 3
-0.052772 0.098795 0.422169 12437436 3
-0.046042 0.099230 0.424028 11122087 3
-0.039280 0.099737 0.426196 11386540 3
-0.029873 0.068230 0.503532 3552570 3
-0.038018 0.076253 0.501918 9605519 3
-0.029873 0.076498 0.503532 9342606 3
-0.021605 0.076498 0.503532 8356738 3
-0.038018 0.084494 0.501918 9803155 3
-0.046408 0.093033 0.503532 10659744 3
-0.038140 0.093033 0.503532 11843504 3
-0.132491 0.061546 0.516826 8489089 3
-0.122389 0.060744 0.510093 6909292 3
-0.121597 0.068672 0.506791 9672852 3
0.580585 0.078668 1.126607 4276036 3
0.594803 0.078106 1.118560 2828590 3
0.584792 0.097870 1.134771 2039331 3
0.599083 0.097166 1.126607 3354934 3
0.813316 0.081604 1.168645 1381404 3
0.820262 0.080404 1.151459 1578268 3
0.839167 0.080404 1.151459 1512990 3
0.858073 0.080404 1.151459 1907748 3
0.876979 0.080404 1.151459 2433579 3
0.895885 0.080404 1.151459 2696749 3
0.820262 0.099309 1.151459 1381915 3
0.833042 0.098585 1.143054 1381404 3
0.858073 0.099309 1.151459 1381404 3
0.876979 0.099309 1.151459 2104614 3
0.895885 0.099309 1.151459 2433577 3
0.631848 0.058081 1.087489 1183773 3
0.645222 0.057681 1.079989 1973036 3
0.600305 0.076468 1.095094 2236453 3
0.601462 0.074387 1.065295 1315609 3
0.623192 0.074897 1.072592 854808 3
0.636444 0.074387 1.065295 591637 3
0.649516 0.073884 1.058097 2368045 3
0.676025 0.074897 1.072592 2631469 3
0.600305 0.094448 1.095094 3420725 3
0.610645 0.090645 1.050996 5197144 3
0.623715 0.090041 1.043989 2302252 3
0.640856 0.090041 1.043989 3749952 3
0.666889 0.091257 1.058097 4276293 3
0.693636 0.092507 1.072592 2368296 3
0.914791 0.099309 1.151459 3025969 3
0.771110 0.060607 1.134771 1381150 3
0.713175 0.077006 1.102806 1118229 3
0.741729 0.078106 1.118560 1973798 3
0.771110 0.079238 1.134771 2828850 3
0.731282 0.095113 1.102806 3618364 3
0.771110 0.097870 1.134771 3618364 3
0.676961 0.058899 1.102806 1644324 3
0.699997 0.059317 1.110627 1973541 3
0.597398 0.091257 1.058097 1907745 3
0.248106 0.202291 0.674993 7960955 3
0.257597 0.201049 0.670849 9473165 3
0.289860 0.200509 0.669046 7433331 3
0.273478 0.207401 0.656099 9735826 3
0.289784 0.211438 0.668870 8880776 3
0.297432 0.209094 0.661454 9406867 3
0.284535 0.218392 0.656754 7301744 3
0.296421 0.219207 0.659207 6117985 3
0.406188 0.209516 0.699100 4868684 3
0.413970 0.219039 0.692913 5855579 3
0.422782 0.217718 0.688735 6381669 3
0.410468 0.210783 0.604047 6381410 3
0.422420 0.211803 0.606971 5131343 3
0.441898 0.216463 0.620324 5986652 3
0.456507 0.218581 0.626394 6118497 3
0.428349 0.219698 0.601304 6051929 3
0.446468 0.223832 0.612618 6315617 3
0.458095 0.224601 0.614723 6250083 3
0.475535 0.228126 0.624370 5131602 3
0.495555 0.232713 0.636925 5066323 3
0.485555 0.238264 0.624073 5066069 3
0.498152 0.239393 0.627030 5131603 3
0.354805 0.207235 0.593881 8092028 3
0.393017 0.211318 0.578366 5854296 3
0.373458 0.215020 0.563191 7498611 3
0.382970 0.215169 0.563582 7893368 3
0.392030 0.224312 0.563304 6775398 3
0.398334 0.222665 0.559169 6447203 3
0.386899 0.230504 0.555931 7893879 3
0.395587 0.230248 0.555314 7697270 3
0.379820 0.235247 0.545758 7038570 3
0.390054 0.236018 0.547547 7631477 3
0.415477 0.218123 0.596994 7564914 3
0.405251 0.222316 0.582301 6578019 3
0.416747 0.223353 0.585017 6118238 3
0.414520 0.226493 0.568782 6578789 3
0.430620 0.230106 0.577854 6052704 3
0.443704 0.231986 0.582576 5789533 3
0.459564 0.235208 0.590666 6381929 3
0.411037 0.233851 0.564003 6973547 3
0.427368 0.237784 0.573490 6776427 3
0.435489 0.237079 0.571790 5065810 3
0.450434 0.240041 0.578932 5000276 3
0.464114 0.242219 0.584187 4802640 3
0.472843 0.241778 0.583122 5526360 3
0.400364 0.236798 0.549357 6644582 3
0.416315 0.240807 0.558658 6579048 3
0.426057 0.241129 0.559405 5460568 3
0.438083 0.242703 0.563057 4079174 3
0.452406 0.245459 0.569449 4605261 3
0.461755 0.245459 0.569449 4605259 3
0.415295 0.249368 0.557290 7434611 3
0.424540 0.249423 0.557414 6381670 3
0.435242 0.250314 0.559405 4276296 3
0.445919 0.251155 0.561285 4342087 3
0.455135 0.251155 0.561285 5526361 3
0.465604 0.251833 0.562800 5131602 3
0.478283 0.253656 0.566874 3815742 3
0.492272 0.256092 0.572317 3881535 3
0.303519 0.146878 0.674993 5329233 3
0.301602 0.140808 0.647101 4605510 3
0.303198 0.157793 0.674278 6644580 3
0.307166 0.154227 0.659039 5395024 3
0.308659 0.149703 0.639706 5460821 3
0.312851 0.146742 0.627055 5263702 3
0.300766 0.167510 0.668870 6907754 3
0.307323 0.165132 0.659376 5130573 3
0.310255 0.161035 0.643015 5723482 3
0.316001 0.158619 0.633370 4868944 3
0.317202 0.154149 0.615521 5460827 3
0.307804 0.176233 0.660407 5130573 3
0.314261 0.173808 0.651317 6644841 3
0.320870 0.171622 0.643128 7369078 3
0.328054 0.169875 0.636579 7697532 3
0.369890 0.185624 0.695598 7829118 3
0.307804 0.187077 0.660407 7105135 3
0.314261 0.184502 0.651317 6052704 3
0.321693 0.182650 0.644779 5789532 3
0.327971 0.180281 0.636418 6446950 3
0.332537 0.177147 0.625353 8026495 3
0.372298 0.192388 0.679156 8552838 3
0.307965 0.198023 0.660753 7105135 3
0.315993 0.196271 0.654905 8421252 3
0.324024 0.194637 0.649452 7697529 3
0.330240 0.192050 0.640821 7170928 3
0.334302 0.188409 0.628673 7039342 3
0.342007 0.186978 0.623898 5394517 3
0.354904 0.188387 0.628598 4276293 3
0.332883 0.197888 0.626005 7895162 3
0.339472 0.195761 0.619274 6184544 3
0.352076 0.197125 0.623590 4934477 3
0.362314 0.197124 0.623588 7237489 3
0.217623 0.180733 0.543506 7433069 3
0.229962 0.183457 0.551698 7630707 3
0.202337 0.183875 0.526938 7894647 3
0.212552 0.185238 0.530842 9538958 3
0.221315 0.185277 0.530955 8552063 3
0.260766 0.182383 0.522661 6909546 3
0.275746 0.186716 0.535078 4869191 3
0.206898 0.188794 0.516720 8288891 3
0.214718 0.188212 0.515126 8618370 3
0.245704 0.192611 0.527168 9408399 3
0.253553 0.192001 0.525498 7764085 3
0.262404 0.192164 0.525945 6975339 3
0.275098 0.195042 0.533820 6843753 3
0.210350 0.192669 0.504649 8552063 3
0.221918 0.195561 0.512224 8947335 3
0.234776 0.199338 0.522115 8815749 3
0.241891 0.198143 0.518987 7895158 3
0.249421 0.197359 0.516933 8158841 3
0.258709 0.197972 0.518538 7830394 3
0.267223 0.197972 0.518538 7567735 3
0.100400 0.108772 0.588716 9803159 3
0.110481 0.109182 0.590937 7631990 3
0.100023 0.117994 0.586511 11382191 3
0.110066 0.118438 0.588716 9474194 3
0.120639 0.119335 0.593176 7499891 3
0.108435 0.126206 0.579994 9868439 3
0.117523 0.125740 0.577854 10394015 3
0.105315 0.131823 0.563304 11907254 3
0.114001 0.131176 0.560537 11380398 3
0.104190 0.139566 0.557290 13354700 3
0.112420 0.138432 0.552764 10327710 3
0.119513 0.136174 0.543745 13220294 3
0.103821 0.148189 0.555314 10263197 3
0.111780 0.146669 0.549619 9341328 3
0.119178 0.144694 0.542218 13351880 3
0.129339 0.146116 0.547547 12431805 3
0.138329 0.146116 0.547547 7039599 3
0.103821 0.157306 0.555314 11579568 3
0.111562 0.155389 0.548544 8289409 3
0.119592 0.154130 0.544102 12628925 3
0.129822 0.155685 0.549589 12958149 3
0.139304 0.156199 0.551403 8881804 3
0.148718 0.156578 0.552742 8355973 3
0.157967 0.156750 0.553351 7565944 3
0.128777 0.163383 0.545166 11971254 3
0.138329 0.164096 0.547547 7500151 3
0.148393 0.165292 0.551537 11119279 3
0.157967 0.165836 0.553351 6315366 3
0.167945 0.166722 0.556309 10194841 3
0.179632 0.169126 0.564328 7827059 3
0.191397 0.171363 0.571794 6249056 3
0.127859 0.171105 0.541279 9537424 3
0.136569 0.170884 0.540578 7434358 3
0.147398 0.173179 0.547838 9342614 3
0.157411 0.174305 0.551403 9143949 3
0.167351 0.175234 0.554339 9799826 3
0.178626 0.177393 0.561168 11905201 3
0.184027 0.174271 0.524072 9670292 3
0.173534 0.180907 0.518431 9339532 3
0.181073 0.179939 0.515658 8880264 3
0.191160 0.181478 0.520067 8223614 3
0.169638 0.185166 0.506791 10589601 3
0.167973 0.191588 0.501818 8550020 3