# .PCD v0.7 - Point Cloud Data file format
VERSION 0.7
FIELDS x y z rgb label
SIZE 4 4 4 4 4
TYPE F F F U U
COUNT 1 1 1 1 1
WIDTH 1215
HEIGHT 1
VIEWPOINT 0 0 0 1 0 0 0
POINTS 1215
DATA ascii
-0.299004 0.275950 0.594868 5329233 3
-0.201523 0.276211 0.595431 6842474 3
-0.299004 0.285717 0.594868 5921370 3
-0.290616 0.287079 0.597704 5461332 3
-0.280937 0.287217 0.597991 5132367 3
0.013604 0.267354 0.597487 7630961 3
0.013354 0.272073 0.586511 8157051 3
0.071472 0.273366 0.589299 8223614 3
0.080556 0.271375 0.585006 8618372 3
0.090056 0.271058 0.584322 9604497 3
0.099396 0.270365 0.582829 9209739 3
0.139299 0.254192 0.589710 7697017 3
0.160815 0.257638 0.597704 8157821 3
0.128913 0.262443 0.586511 8026748 3
0.138675 0.262692 0.587068 7828858 3
0.150427 0.266435 0.595431 7828603 3
0.159786 0.265741 0.593881 8092030 3
0.170224 0.266818 0.596289 7367789 3
0.180485 0.267516 0.597847 7433069 3
0.127955 0.270050 0.582150 8026746 3
0.137643 0.270305 0.582699 7960442 3
0.149680 0.274840 0.592476 8552581 3
0.159182 0.274451 0.591637 8092028 3
0.168697 0.274126 0.590937 7762547 3
0.178399 0.274126 0.590937 7630448 3
0.188058 0.274062 0.590799 7366508 3
0.197061 0.273096 0.588716 7169899 3
-0.290807 0.265948 0.641416 5987165 3
-0.294947 0.279870 0.674993 6644584 3
-0.287289 0.283246 0.683135 6578791 3
-0.280975 0.288276 0.695267 6447716 3
-0.213653 0.289866 0.699100 6316130 3
-0.201283 0.288588 0.696018 6315615 3
-0.294135 0.269870 0.626083 5658457 3
-0.280217 0.266411 0.618058 6118751 3
-0.281852 0.278035 0.645024 6381412 3
-0.279960 0.286951 0.665709 6644584 3
-0.273684 0.291915 0.677226 7171439 3
-0.265567 0.295253 0.684969 6052956 3
-0.258144 0.299692 0.695267 6118749 3
-0.246476 0.299385 0.694556 7106157 3
-0.212003 0.270004 0.626394 6974317 3
-0.201718 0.270004 0.626394 5855579 3
-0.297582 0.273862 0.612031 5527125 3
-0.289505 0.275740 0.616228 6250848 3
-0.277340 0.273720 0.611713 6513766 3
-0.271094 0.277609 0.620403 6579302 3
-0.264484 0.281415 0.628909 6315876 3
-0.254863 0.282195 0.630653 5789275 3
-0.253374 0.292427 0.653519 6907752 3
-0.247817 0.298661 0.667452 7039338 3
-0.224630 0.283244 0.632996 6710886 3
-0.208664 0.275875 0.616529 6908524 3
-0.292153 0.278731 0.600865 5724504 3
-0.283031 0.279465 0.602447 5329746 3
-0.274061 0.280409 0.604482 5395539 3
-0.263184 0.279398 0.602302 5789786 3
-0.273073 0.289287 0.602302 5724502 3
-0.392713 0.232724 0.561285 4736837 3
-0.392713 0.241939 0.561285 5921109 3
-0.385935 0.243478 0.564853 5855064 3
-0.389957 0.252072 0.584793 5921118 3
-0.394125 0.252059 0.563304 5986904 3
-0.386366 0.253034 0.565484 5263440 3
-0.388479 0.260682 0.582576 5263442 3
-0.385462 0.265187 0.592644 5065809 3
-0.319145 0.266689 0.596000 5000527 3
-0.307893 0.265425 0.593176 5000270 3
-0.300010 0.267077 0.596868 4868682 3
-0.394125 0.261307 0.563304 5460819 3
-0.385317 0.261607 0.563948 4539717 3
-0.386508 0.268877 0.579620 4342597 3
-0.382380 0.272720 0.587905 4671562 3
-0.378849 0.277199 0.597562 4605769 3
-0.367722 0.276211 0.595431 4737355 3
-0.357946 0.276211 0.595431 5263953 3
-0.348005 0.276081 0.595150 5790297 3
-0.335918 0.274191 0.591077 4671562 3
-0.327295 0.275100 0.593036 5263701 3
-0.316509 0.274191 0.591077 5526871 3
-0.307893 0.275165 0.593176 5197647 3
-0.382997 0.282829 0.588855 5132113 3
-0.374649 0.283829 0.590937 4934734 3
-0.364947 0.283829 0.590937 4934988 3
-0.355244 0.283829 0.590937 5395539 3
-0.345460 0.283762 0.590799 5264467 3
-0.334655 0.282829 0.588855 5658457 3
-0.326136 0.283829 0.590937 5197906 3
-0.317258 0.284568 0.592476 4276545 3
-0.307893 0.284904 0.593176 5658198 3
0.004207 0.263822 0.662524 8090997 3
0.014734 0.257681 0.647101 8090997 3
0.027102 0.275396 0.691589 8025204 3
0.048064 0.265733 0.667323 7762545 3
0.056267 0.253332 0.636179 7763061 3
0.065917 0.250312 0.628596 7631475 3
0.075668 0.248441 0.623898 7959672 3
0.090800 0.262575 0.659393 7433328 3
0.004418 0.288518 0.695850 7762547 3
0.014817 0.269816 0.650744 8288891 3
0.047416 0.272956 0.658317 8157303 3
0.055751 0.261357 0.630343 7960440 3
0.065490 0.258944 0.624523 8355198 3
0.075145 0.256895 0.619581 8354430 3
0.084961 0.255820 0.616990 7893879 3
0.096328 0.259149 0.625017 8486016 3
0.004042 0.274395 0.636579 7959926 3
0.014494 0.274395 0.636579 8091512 3
0.025981 0.285779 0.662989 7696754 3
0.055401 0.270004 0.626394 8157819 3
0.065490 0.269198 0.624523 8749956 3
0.075145 0.267068 0.619581 8222844 3
0.084939 0.265884 0.616835 8617856 3
0.095774 0.267861 0.621422 8354684 3
0.003883 0.273619 0.611487 7235949 3
0.053270 0.269509 0.602302 8091512 3
0.063175 0.269574 0.602447 8289407 3
0.073313 0.270484 0.604482 8157821 3
0.082999 0.269705 0.602741 7763063 3
0.093865 0.272523 0.609038 8288637 3
-0.284580 0.305214 0.766469 5658200 3
-0.272411 0.305680 0.767639 4342597 3
-0.259807 0.305680 0.767639 4342599 3
-0.244523 0.302365 0.759315 5263448 3
-0.280547 0.313295 0.755607 6447714 3
-0.269685 0.315099 0.759957 6119008 3
-0.254961 0.312346 0.753319 5461078 3
0.703097 0.306238 0.802112 3289401 3
0.725980 0.310390 0.812989 2697775 3
0.712632 0.323739 0.812989 2302506 3
0.728326 0.324785 0.815617 3816256 3
0.712632 0.337087 0.812989 3092533 3
0.600402 0.314532 0.823839 4407367 3
0.607802 0.311393 0.815617 5262676 3
0.621194 0.311393 0.815617 3552060 3
0.634585 0.311393 0.815617 2960433 3
0.643384 0.309186 0.809836 3026480 3
0.649958 0.306021 0.801546 2697515 3
0.613929 0.328059 0.823839 3881025 3
0.621194 0.324785 0.815617 3947331 3
0.634585 0.324785 0.815617 3552570 3
0.647977 0.324785 0.815617 4013375 3
0.656681 0.322483 0.809836 3026480 3
0.663119 0.319182 0.801546 2499882 3
0.692097 0.320412 0.804634 2434092 3
0.607802 0.338177 0.815617 3815745 3
0.630280 0.343123 0.827547 4144710 3
0.648087 0.345372 0.832970 3882048 3
0.661763 0.345372 0.832970 4013375 3
0.670552 0.342872 0.826942 3750203 3
0.676980 0.339289 0.818300 3750203 3
0.683274 0.335780 0.809836 3684156 3
0.694311 0.334690 0.807208 2697775 3
0.685538 0.350233 0.812519 3421495 3
0.694311 0.347944 0.807208 3553853 3
0.210245 0.252172 0.660502 6710375 3
0.203457 0.254525 0.639177 7828086 3
0.233700 0.278019 0.698175 6973547 3
0.200189 0.260763 0.628909 7433328 3
0.209936 0.260046 0.627180 7828086 3
0.219958 0.259720 0.626394 7564914 3
0.266184 0.275638 0.664786 6446687 3
0.284927 0.283424 0.683565 7170156 3
0.206883 0.266411 0.618058 7827575 3
0.216494 0.265752 0.616529 7564914 3
0.228513 0.267977 0.621690 7301742 3
0.266464 0.299120 0.693939 8092026 3
0.246862 0.265752 0.616529 7104363 3
0.258358 0.267172 0.619823 7104365 3
0.289937 0.288466 0.669224 6512226 3
0.202338 0.270484 0.604482 8156794 3
0.212364 0.270613 0.604770 7301485 3
0.239993 0.292159 0.652920 7301742 3
0.251318 0.292864 0.654497 8157051 3
0.241165 0.269509 0.602302 7170156 3
0.251054 0.269509 0.602302 7499121 3
0.343148 0.251294 0.687781 5921372 3
0.356509 0.252761 0.691794 5460308 3
0.328340 0.259806 0.680496 5460308 3
0.336768 0.257705 0.674993 5789273 3
0.348830 0.258430 0.676893 5854298 3
0.323334 0.276247 0.693727 7368816 3
0.323771 0.267208 0.671027 6118238 3
0.333889 0.266490 0.669224 6118238 3
0.345840 0.267234 0.671091 6314849 3
0.371752 0.278387 0.699100 6183264 3
0.308721 0.284667 0.686562 6447201 3
0.313608 0.278986 0.672861 5921370 3
0.322901 0.277478 0.669224 6315617 3
0.333889 0.277478 0.669224 6512996 3
0.346921 0.279123 0.673190 6775400 3
0.358933 0.279870 0.674993 6709608 3
0.372228 0.281543 0.679028 6906987 3
0.382134 0.280631 0.676827 6512998 3
0.394526 0.281543 0.679028 6249824 3
0.222707 0.285037 0.780134 7368307 3
0.232461 0.281340 0.770014 6775400 3
0.244576 0.280734 0.768355 8354430 3
0.260787 0.284658 0.779097 7828854 3
0.276429 0.287624 0.787212 7697268 3
0.292749 0.290999 0.796449 7762547 3
0.200074 0.267577 0.700850 7434611 3
0.244119 0.278439 0.729300 7565682 3
0.270573 0.294182 0.770536 7170924 3
0.283988 0.294975 0.772614 7367789 3
0.297224 0.295522 0.774046 6709344 3
0.263077 0.298333 0.749188 7104617 3
0.264052 0.297858 0.718376 6380894 3
0.157353 0.307512 0.841646 6776420 3
0.169635 0.304750 0.834087 7829369 3
0.182116 0.302732 0.828563 7499891 3
0.195720 0.302732 0.828563 7960442 3
0.180567 0.313647 0.821519 7763576 3
0.193325 0.312466 0.818425 8289407 3
0.108840 0.288791 0.790407 7368307 3
0.120675 0.286082 0.782992 7434098 3
0.134160 0.287427 0.786676 6776166 3
0.109209 0.270532 0.708590 7367535 3
0.120469 0.269694 0.706396 6841961 3
0.131880 0.269313 0.705398 7828854 3
0.148215 0.278236 0.728768 7500402 3
0.182538 0.275857 0.722537 7960440 3
0.192065 0.272541 0.713852 7828854 3
0.155489 0.281700 0.707420 6974060 3
-0.093717 0.242122 0.662678 6907752 3
-0.083543 0.244189 0.668334 7301744 3
-0.092157 0.248792 0.651647 5920859 3
-0.082295 0.251349 0.658347 6314849 3
-0.072494 0.254894 0.667631 7170156 3
-0.062248 0.257861 0.675402 7236203 3
-0.040197 0.258682 0.677552 7697522 3
-0.028838 0.256599 0.672096 7170924 3
-0.018016 0.259680 0.680167 6776166 3
-0.006916 0.262225 0.686832 6907752 3
-0.092157 0.259491 0.651647 6841961 3
-0.082295 0.262159 0.658347 7498864 3
-0.072281 0.265076 0.665672 7564914 3
-0.061662 0.266419 0.669046 7433582 3
-0.050475 0.265356 0.666376 7631729 3
-0.039408 0.264514 0.664260 7631475 3
-0.028351 0.263117 0.660753 8157819 3
-0.017516 0.263328 0.661282 7565682 3
-0.006717 0.265640 0.667090 7960440 3
-0.091541 0.268384 0.647289 7630707 3
-0.081692 0.270969 0.653524 7630450 3
-0.071184 0.271817 0.655569 7433582 3
-0.060866 0.273823 0.660407 8157305 3
-0.049630 0.271673 0.655223 7302510 3
-0.038852 0.271532 0.654884 7828340 3
-0.027881 0.269419 0.649786 7959926 3
-0.017373 0.271945 0.655880 8486270 3
-0.007020 0.289064 0.697167 7499375 3
-0.091541 0.279011 0.647289 7959415 3
-0.081692 0.281699 0.653524 7959413 3
-0.070943 0.281622 0.653347 8354684 3
-0.060137 0.281255 0.652493 7565168 3
-0.049130 0.279585 0.648620 7631475 3
-0.038222 0.277711 0.644273 8946821 3
-0.027460 0.275868 0.639996 8223098 3
-0.016926 0.275445 0.639015 8354684 3
-0.006410 0.274395 0.636579 7894133 3
-0.081380 0.291312 0.651028 8748929 3
-0.072192 0.297496 0.664849 8091510 3
-0.049663 0.293383 0.655656 7696500 3
-0.038056 0.287036 0.641471 9209482 3
-0.027314 0.284847 0.636579 8617856 3
0.660989 0.278802 0.798972 2697262 3
0.674108 0.278802 0.798972 2302506 3
0.647871 0.291920 0.798972 2631469 3
0.656399 0.289893 0.793423 2499885 3
0.667299 0.288971 0.790901 2368045 3
0.685057 0.290999 0.796449 3355451 3
0.019802 0.303479 0.869691 8223098 3
0.018966 0.304342 0.832970 8025719 3
0.032621 0.304142 0.832422 7762034 3
0.045831 0.301139 0.824202 7630448 3
0.059364 0.301139 0.824202 7039592 3
0.072896 0.301139 0.824202 6513248 3
0.086429 0.301139 0.824202 6973545 3
0.018285 0.306603 0.803069 7762032 3
0.031695 0.308787 0.808790 6906723 3
0.044959 0.308682 0.808515 7564653 3
0.058084 0.307890 0.806440 7170408 3
-0.099873 0.278802 0.798972 7235949 3
-0.086153 0.276866 0.793423 7104363 3
-0.072893 0.275986 0.790901 7433582 3
-0.077291 0.260074 0.711811 7170156 3
-0.068669 0.272226 0.745069 7301996 3
-0.057969 0.279621 0.765310 6775650 3
-0.045851 0.282381 0.772865 7434350 3
-0.031674 0.269713 0.738191 7237228 3
-0.019028 0.262460 0.718341 7630961 3
-0.007281 0.264209 0.723127 7433071 3
-0.054692 0.275671 0.722050 7302764 3
-0.106883 0.263729 0.755778 7170924 3
-0.197759 0.276794 0.724993 6315617 3
-0.194163 0.283449 0.711811 6381410 3
-0.182476 0.283449 0.711811 5855068 3
-0.168257 0.290761 0.701259 7237232 3
-0.104293 0.230570 0.660753 5789273 3
-0.114179 0.239399 0.655223 6579302 3
-0.104021 0.240788 0.659025 6381408 3
-0.102562 0.248081 0.649786 6513509 3
-0.113379 0.259087 0.650632 6579302 3
-0.102562 0.258750 0.649786 6776168 3
-0.177244 0.269419 0.649786 6512226 3
-0.167467 0.270860 0.653262 6249824 3
-0.142867 0.265020 0.639177 6974060 3
-0.132372 0.265020 0.639177 7038570 3
-0.121537 0.264279 0.637391 7105133 3
-0.110930 0.263943 0.636579 7236719 3
-0.101044 0.265430 0.640166 6906984 3
-0.191433 0.270004 0.626394 6908265 3
-0.181648 0.270750 0.628123 6776166 3
-0.171593 0.271157 0.629068 7301742 3
-0.162324 0.272939 0.633203 7236203 3
-0.152119 0.273284 0.634002 6776168 3
-0.141746 0.273353 0.634163 7039853 3
-0.131834 0.274395 0.636579 8092030 3
-0.121382 0.274395 0.636579 7170156 3
-0.110930 0.274395 0.636579 7038570 3
-0.101044 0.275941 0.640166 7301485 3
-0.199081 0.276625 0.618205 7171437 3
-0.189679 0.277721 0.620655 6841959 3
-0.180203 0.278826 0.623124 6973031 3
-0.170268 0.279313 0.624211 6511967 3
-0.161305 0.281557 0.629228 6907238 3
-0.152545 0.284486 0.635773 6249822 3
-0.142286 0.284847 0.636579 7566197 3
-0.131800 0.284775 0.636418 7367537 3
-0.120555 0.282907 0.632244 7434100 3
-0.109731 0.281769 0.629702 7959415 3
-0.184301 0.279748 0.603056 5262929 3
-0.176177 0.282599 0.609202 6775398 3
-0.166987 0.283982 0.612183 6709348 3
-0.158875 0.287490 0.619746 6973031 3
-0.151506 0.292917 0.631445 7236717 3
-0.141283 0.293217 0.632092 7697783 3
-0.157627 0.295328 0.614879 7105131 3
-0.388308 0.265568 0.798625 7039342 3
-0.371567 0.263000 0.790901 6381412 3
-0.349007 0.255978 0.769785 6314336 3
-0.331071 0.251947 0.757662 6248797 3
-0.321464 0.254187 0.764399 6249308 3
-0.314081 0.258439 0.777187 5657687 3
-0.305001 0.261596 0.786681 6183261 3
-0.384656 0.250666 0.718341 5723739 3
-0.390453 0.262493 0.752234 6315619 3
-0.385269 0.267468 0.766492 5526103 3
-0.364871 0.261861 0.750423 5460821 3
-0.360419 0.267706 0.767174 5592407 3
-0.340142 0.261794 0.750232 6314847 3
-0.324785 0.259367 0.743277 5525331 3
-0.316360 0.262502 0.752262 6118238 3
-0.308431 0.266321 0.763206 6512996 3
-0.389119 0.257607 0.705058 5394515 3
-0.385326 0.262917 0.719592 5000270 3
-0.374908 0.263901 0.722284 5657946 3
-0.370201 0.269100 0.736514 5657946 3
-0.354585 0.266452 0.729267 5987422 3
-0.341893 0.265894 0.727738 5329492 3
-0.333329 0.268621 0.735204 5591892 3
-0.321257 0.268621 0.735204 6184031 3
-0.312316 0.271341 0.742648 6052447 3
-0.303987 0.274834 0.752208 6644582 3
-0.399091 0.268105 0.702235 5854039 3
-0.392428 0.271472 0.711053 5065809 3
-0.385326 0.274732 0.719592 5855325 3
-0.374472 0.275440 0.721445 5526614 3
-0.360862 0.274099 0.717933 5658200 3
-0.346097 0.271761 0.711811 6579559 3
-0.334797 0.272076 0.712635 5329492 3
-0.328795 0.276875 0.725203 6250337 3
-0.318269 0.278082 0.728365 6578789 3
-0.307294 0.278975 0.730705 6841963 3
-0.376408 0.279916 0.702939 5460567 3
-0.369264 0.283289 0.711410 5197649 3
0.713277 0.283809 0.897811 2565678 3
0.726736 0.283310 0.896230 2763054 3
0.736102 0.281266 0.889764 2960433 3
0.733696 0.274891 0.869597 2697261 3
0.740090 0.271993 0.860431 3092019 3
0.784364 0.282865 0.894823 2499882 3
0.701543 0.271219 0.815617 2039331 3
0.714935 0.271219 0.815617 2763055 3
0.728326 0.271219 0.815617 3157813 3
0.707564 0.281676 0.807208 2302504 3
0.720818 0.281676 0.807208 2960434 3
0.734072 0.281676 0.807208 2236711 3
0.705308 0.293989 0.804634 3092533 3
0.720818 0.294930 0.807208 2171431 3
0.734072 0.294930 0.807208 2368809 3
0.448806 0.251283 0.794916 4210241 3
0.462005 0.251363 0.795169 4341827 3
0.483707 0.262030 0.787986 4473415 3
0.468366 0.247110 0.743118 4670794 3
0.462486 0.277764 0.795997 5197136 3
0.462957 0.270405 0.774909 4736583 3
0.453220 0.257637 0.738320 4473413 3
0.445723 0.246775 0.707191 4341827 3
0.400634 0.275275 0.753414 5723482 3
0.424969 0.283249 0.775240 5723482 3
0.437697 0.283249 0.775240 6118238 3
0.447390 0.281340 0.770014 4999757 3
0.441097 0.269760 0.738320 4868423 3
0.439476 0.261579 0.715930 5065548 3
0.407942 0.275857 0.722537 5855066 3
0.417367 0.274255 0.718341 5394515 3
0.426479 0.272541 0.713852 5197647 3
0.431583 0.268425 0.703072 4868169 3
0.331341 0.251283 0.794916 6710377 3
0.344393 0.251283 0.794916 5328724 3
0.398623 0.252565 0.798972 4474186 3
0.316889 0.263172 0.791418 5394517 3
0.324747 0.259074 0.779097 5328724 3
0.336390 0.258193 0.776445 5394517 3
0.348383 0.257634 0.774765 5328722 3
0.355395 0.253561 0.762516 5131602 3
0.366791 0.252786 0.760186 4803150 3
0.389808 0.259808 0.781303 4342599 3
0.305344 0.277484 0.795195 6906984 3
0.311763 0.271699 0.778617 6644584 3
0.321449 0.269105 0.771184 6118240 3
0.327984 0.264170 0.757042 6249826 3
0.334126 0.259291 0.743058 5920861 3
0.342070 0.256104 0.733926 6841961 3
0.349233 0.252570 0.723797 5066063 3
0.351937 0.246149 0.705398 4868941 3
0.370187 0.250664 0.718337 5395028 3
0.302390 0.287729 0.787501 7367535 3
0.310220 0.283076 0.774765 6841961 3
0.318611 0.279280 0.764376 7236719 3
0.319892 0.269776 0.738365 7039342 3
0.325922 0.264825 0.724813 7170673 3
0.336062 0.263445 0.721037 6644582 3
0.340854 0.258109 0.706431 6776681 3
0.310315 0.295887 0.775001 6709859 3
0.318328 0.291571 0.763697 7236719 3
0.319777 0.281798 0.738098 6908013 3
0.321747 0.273181 0.715530 6513255 3
0.328059 0.268728 0.703865 6513509 3
0.377446 0.270996 0.709807 6380642 3
0.397720 0.277000 0.725532 5591126 3
0.312660 0.298695 0.750099 6710375 3
0.312025 0.286791 0.720205 6447205 3
0.316146 0.279969 0.703072 6316130 3
0.385604 0.280111 0.703430 5327954 3
0.395820 0.279171 0.701068 5657689 3
0.304602 0.291513 0.703072 6710377 3
-0.092413 0.269037 0.851078 7301996 3
-0.079032 0.271069 0.857508 6051929 3
-0.088562 0.271219 0.815617 6512480 3
-0.075171 0.271219 0.815617 7433582 3
-0.062226 0.273181 0.821519 7236203 3
-0.049993 0.280218 0.842680 7038570 3
-0.036517 0.283011 0.851078 6380640 3
-0.023434 0.294193 0.884706 6972777 3
-0.009062 0.299276 0.899991 7367535 3
-0.060756 0.279898 0.802112 7433582 3
-0.048232 0.283693 0.812989 6776166 3
-0.034996 0.284610 0.815617 7105131 3
-0.021604 0.284610 0.815617 7301742 3
-0.008272 0.286670 0.821519 7499121 3
-0.125297 0.280071 0.885984 5855066 3
-0.107126 0.270905 0.856989 5591378 3
-0.139844 0.294618 0.885984 5986652 3
-0.119436 0.280836 0.844539 6776168 3
-0.102632 0.273022 0.821040 6183261 3
-0.256808 0.252088 0.797464 5790045 3
-0.236418 0.244541 0.773589 5790045 3
-0.290715 0.260370 0.782992 6315619 3
-0.278819 0.261269 0.785697 5526361 3
-0.266088 0.261435 0.786196 5987425 3
-0.248505 0.256609 0.771683 5987939 3
-0.228929 0.249094 0.749084 5987424 3
-0.231259 0.265916 0.799672 5329494 3
-0.298993 0.269105 0.771184 5526099 3
-0.285015 0.267868 0.767639 5394517 3
-0.273334 0.268776 0.770239 6447463 3
-0.259257 0.267301 0.766015 5197908 3
-0.242969 0.263281 0.754492 5593181 3
-0.225352 0.257310 0.737382 4803920 3
-0.222117 0.268015 0.768058 5131602 3
-0.295718 0.278681 0.762736 5855064 3
-0.283625 0.279104 0.763895 5789786 3
-0.271082 0.279104 0.763895 5263701 3
-0.258461 0.279019 0.763663 4014404 3
-0.243702 0.276499 0.756765 3356732 3
-0.226816 0.271167 0.742173 4474955 3
-0.212562 0.268554 0.735020 5921118 3
-0.209213 0.280233 0.766985 5920859 3
-0.297822 0.281361 0.736954 5329235 3
-0.292975 0.288503 0.755662 6184544 3
-0.283194 0.291204 0.762736 5329235 3
-0.271082 0.291646 0.763895 5263701 3
-0.259411 0.292629 0.766469 4539978 3
-0.246152 0.291830 0.764376 4343114 3
-0.230019 0.287354 0.752652 4605771 3
-0.212466 0.280496 0.734688 6381923 3
-0.295824 0.280111 0.703430 5262931 3
-0.290514 0.286259 0.718869 5263442 3
-0.283669 0.291352 0.731659 6052956 3
-0.227829 0.296858 0.745486 5263701 3
-0.208594 0.287227 0.721299 6118749 3
-0.275429 0.294553 0.710405 6381921 3
-0.227033 0.292314 0.705005 6447975 3
-0.387391 0.215478 0.681648 6776170 3
-0.390141 0.228279 0.686487 5526103 3
-0.377059 0.227187 0.683205 6184033 3
-0.390247 0.239615 0.686673 6380640 3
-0.379631 0.240032 0.687867 6315619 3
-0.396652 0.255008 0.697944 5656917 3
-0.393685 0.275848 0.692723 5985882 3
-0.380732 0.274708 0.689861 5789532 3
-0.349192 0.276641 0.694716 5921372 3
-0.330367 0.270566 0.679458 5855836 3
-0.315752 0.267634 0.672096 5526871 3
-0.311205 0.273333 0.686408 6447716 3
-0.304636 0.277617 0.697167 6381412 3
-0.399215 0.283078 0.682729 5064780 3
-0.386034 0.281640 0.679260 4868171 3
-0.361616 0.271673 0.655223 6316389 3
-0.363609 0.281547 0.679037 5329494 3
-0.356999 0.285172 0.687781 5987165 3
-0.331500 0.273454 0.659518 6250337 3
-0.313663 0.267478 0.645105 5921629 3
-0.301440 0.266038 0.641633 5658457 3
-0.383978 0.268004 0.621753 5591894 3
-0.394692 0.290953 0.674993 5526101 3
-0.365603 0.277296 0.643310 5460821 3
-0.346835 0.270887 0.628441 5396057 3
-0.330637 0.266154 0.617461 6053217 3
-0.315053 0.261632 0.606971 5723993 3
-0.307863 0.264012 0.612492 5658200 3
-0.304186 0.269668 0.625614 5855836 3
-0.384721 0.271532 0.606824 5855579 3
-0.373401 0.270549 0.604627 6447716 3
-0.363474 0.270549 0.604627 6316128 3
-0.353546 0.270549 0.604627 4737098 3
-0.343702 0.270615 0.604774 5461080 3
-0.334665 0.271339 0.606391 5987424 3
0.916258 0.307507 1.026072 1907748 3
0.954316 0.314497 1.049396 2434092 3
0.979602 0.317105 1.058097 2105127 3
0.961825 0.305925 1.020793 2236713 3
0.970922 0.303530 1.012799 2434092 3
0.974761 0.338834 1.071878 1907748 3
0.931121 0.340476 1.023890 2631469 3
0.535104 0.268478 0.947764 3025969 3
0.554793 0.270490 0.954868 2828588 3
0.580276 0.275139 0.971280 3289398 3
0.590925 0.288500 0.962649 3355191 3
0.590112 0.295971 0.936282 4144450 3
0.402555 0.244664 0.863699 3947842 3
0.417167 0.244918 0.864594 4276296 3
0.426940 0.242406 0.855729 3486780 3
0.440991 0.242406 0.855729 3749692 3
0.456760 0.243322 0.858962 3420985 3
0.474125 0.245008 0.864912 2631469 3
0.413387 0.248315 0.828563 4407882 3
0.428552 0.249223 0.831593 3025969 3
0.442792 0.249553 0.832695 4078915 3
0.453468 0.247915 0.827228 3552058 3
0.456346 0.242234 0.808270 3683897 3
0.497164 0.256443 0.855682 3486002 3
0.417639 0.256183 0.810415 4342086 3
0.433570 0.257743 0.815353 3947071 3
0.442788 0.255339 0.807747 3683899 3
0.481030 0.254521 0.805160 4604999 3
0.414842 0.267684 0.804988 5197395 3
0.433009 0.270779 0.814296 4868173 3
0.447102 0.271219 0.815617 3815485 3
0.460494 0.271219 0.815617 5131343 3
0.473886 0.271219 0.815617 4868171 3
0.480440 0.267413 0.804173 4999759 3
0.428289 0.281053 0.805422 5131345 3
0.447102 0.284610 0.815617 5394517 3
0.457230 0.282593 0.809836 6315617 3
0.358649 0.243738 0.860431 4013121 3
0.363285 0.237532 0.838522 3289652 3
0.382426 0.240917 0.850472 3487031 3
0.301526 0.257342 0.858684 4539206 3
0.313363 0.255498 0.852532 4078655 3
0.324387 0.253177 0.844787 5064529 3
0.333434 0.249567 0.832739 4868431 3
0.345366 0.248315 0.828563 5394775 3
0.358970 0.248315 0.828563 5131602 3
0.377093 0.251327 0.838613 4868684 3
0.398049 0.255948 0.854031 4408392 3
0.399783 0.248315 0.828563 4078917 3
0.309465 0.266144 0.841927 6841963 3
0.318202 0.261956 0.828679 6710377 3
0.320842 0.253299 0.801292 6381157 3
0.361244 0.253955 0.803367 4933964 3
0.376225 0.255169 0.807208 4276293 3
0.389230 0.255006 0.806694 4605771 3
0.307811 0.278470 0.837425 5131343 3
0.316331 0.273942 0.823807 5723482 3
0.330465 0.279665 0.987258 4342086 3
0.348034 0.280762 0.991129 4473926 3
0.361177 0.278349 0.982612 3947071 3
0.375823 0.277252 0.978740 3815232 3
0.382959 0.270931 0.956426 3092022 3
0.249245 0.279474 0.986583 4802380 3
0.261099 0.274899 0.970433 5065297 3
0.272126 0.270031 0.953247 5591896 3
0.212468 0.289701 0.966657 6184283 3
0.220952 0.280328 0.935383 5855318 3
0.232719 0.276068 0.921167 5986652 3
0.247844 0.276068 0.921167 5394262 3
0.261969 0.275019 0.917668 4999759 3
-0.288916 0.283004 0.999046 4868684 3
-0.270143 0.280543 0.990355 5855579 3
-0.250904 0.277252 0.978740 4802891 3
-0.234927 0.277361 0.979125 4868943 3
-0.221366 0.280550 0.990380 5000529 3
-0.278298 0.288404 0.962328 6118751 3
-0.260463 0.286168 0.954868 6118751 3
-0.244785 0.286168 0.954868 5395539 3
-0.232133 0.289948 0.967481 5001297 3
-0.399283 0.268953 0.949443 6116957 3
-0.390830 0.273955 0.967101 6051678 3
-0.377555 0.275857 0.973815 5656919 3
-0.367994 0.280762 0.991129 5722710 3
-0.380584 0.282236 0.941747 6644584 3
-0.373217 0.288493 0.962627 6380642 3
-0.368289 0.297273 0.991923 6249054 3
-0.301511 0.295673 0.986583 5394517 3
-0.312750 0.292109 0.924067 5526360 3
0.113052 0.248745 0.932133 4539208 3
0.110423 0.257909 0.910456 5985882 3
0.125371 0.257909 0.910456 7433328 3
0.140423 0.258099 0.911125 5197138 3
0.157096 0.260943 0.921167 5526103 3
0.109587 0.270794 0.903567 6973031 3
0.124647 0.271281 0.905193 6906984 3
0.140170 0.272566 0.909481 8222844 3
0.157096 0.276068 0.921167 7039340 3
0.191710 0.282500 0.942628 5855064 3
0.139113 0.285330 0.902622 7894649 3
0.156177 0.289490 0.915780 7105133 3
0.006198 0.260480 0.976109 4934475 3
0.022027 0.258159 0.967412 4934475 3
0.038355 0.261182 0.978740 5262929 3
0.054362 0.260882 0.977614 4407622 3
0.068907 0.255301 0.956699 4868173 3
0.085905 0.259192 0.971280 5131345 3
0.099274 0.252632 0.946698 4868173 3
0.006148 0.274256 0.968163 5591892 3
0.021883 0.272255 0.961097 4670790 3
0.037852 0.273621 0.965920 6118238 3
0.052657 0.268250 0.946959 5854298 3
0.067093 0.263873 0.931510 5196369 3
0.081145 0.259894 0.917464 5130575 3
0.095648 0.258381 0.912120 5722712 3
0.006059 0.285953 0.954149 6447201 3
0.021471 0.282614 0.943011 6118236 3
0.036747 0.281027 0.937715 7367535 3
0.052086 0.280717 0.936681 6051677 3
0.066057 0.274858 0.917131 7038573 3
0.080205 0.271774 0.906838 6841193 3
0.094547 0.270209 0.901617 6380640 3
0.005988 0.298098 0.943011 6973547 3
0.021351 0.296424 0.937715 7368305 3
0.036747 0.296424 0.937715 7433328 3
0.051492 0.292721 0.926002 5525331 3
0.065696 0.288333 0.912120 6775400 3
0.080525 0.287807 0.910456 6051677 3
-0.009957 0.263871 0.988816 5395026 3
-0.090562 0.278349 0.982612 4735815 3
-0.073478 0.274794 0.970062 4735815 3
-0.057063 0.272468 0.961852 4867403 3
-0.041995 0.277252 0.978740 5722712 3
-0.025915 0.277145 0.978360 5986652 3
-0.009794 0.275530 0.972661 4868171 3
-0.086945 0.282720 0.943364 5722964 3
-0.071455 0.282720 0.943364 5130827 3
-0.055966 0.282720 0.943364 6051677 3
-0.040646 0.283898 0.947295 5656919 3
-0.025140 0.284434 0.949081 6578021 3
-0.009560 0.284542 0.949443 5920859 3
-0.069492 0.290017 0.917447 6775398 3
-0.055966 0.298209 0.943364 7367024 3
-0.040646 0.299452 0.947295 7564403 3
-0.009517 0.298774 0.945151 7038570 3
-0.098366 0.284813 1.067293 4999757 3
-0.078362 0.276074 1.034545 4736585 3
-0.061121 0.274929 1.030253 4078655 3
-0.044205 0.274929 1.030253 4670792 3
-0.026905 0.271056 1.015739 5131343 3
-0.188361 0.318457 1.193366 4539976 3
-0.168582 0.318107 1.192055 4211013 3
-0.143864 0.307122 1.150890 4933964 3
-0.184459 0.331048 1.168645 4145218 3
-0.161978 0.324451 1.145357 4144707 3
-0.176467 0.335061 1.118010 5132115 3
-0.221811 0.310426 1.163274 5262413 3
-0.203647 0.311860 1.168645 4999755 3
-0.229440 0.313836 1.107884 4407620 3
-0.223471 0.331993 1.171981 4407620 3
-0.205083 0.333381 1.176883 4868684 3
-0.224511 0.352869 1.177432 5394515 3
-0.202067 0.347518 1.159575 5657946 3
-0.211880 0.351262 1.111191 5197395 3
0.867933 0.257624 1.028699 2368299 3
0.889628 0.259023 1.034285 1973541 3
0.891347 0.254662 1.016873 1381404 3
0.891347 0.271358 1.016873 1710369 3
0.891347 0.288054 1.016873 2170920 3
0.279001 0.317894 1.269360 4473924 3
0.241437 0.344616 1.291393 4342086 3
0.250052 0.328097 1.229494 5131854 3
0.268905 0.326478 1.223425 5592405 3
0.285936 0.323025 1.210485 4539719 3
-0.489724 0.244002 0.974305 3026480 3
-0.447724 0.230608 0.920824 3289137 3
-0.411606 0.227360 0.907855 3091762 3
-0.479101 0.254359 0.953170 4342340 3
-0.440438 0.241728 0.905839 4868169 3
-0.411712 0.251435 0.942212 5722199 3
-0.411929 0.261389 0.979514 5524821 3
-0.404071 0.266820 0.999865 4472646 3
-0.497172 0.271330 0.957833 6118238 3
-0.468385 0.263970 0.931851 4933964 3
-0.448820 0.261485 0.923079 6184031 3
-0.401098 0.260024 0.917920 6248543 3
0.895728 0.222467 0.950643 1841440 3
0.896956 0.218957 0.935643 2170917 3
0.889639 0.244996 0.978275 1907494 3
0.887442 0.240057 0.958552 1841955 3
0.892256 0.237153 0.946959 2697264 3
0.805641 0.254812 0.954868 2170917 3
0.857985 0.266188 0.997497 1973541 3
0.805641 0.270490 0.954868 2368550 3
0.857985 0.282566 0.997497 2236711 3
0.805641 0.286168 0.954868 3026480 3
0.821319 0.286168 0.954868 1907746 3
0.874363 0.298943 0.997497 1776160 3
0.908644 0.233824 0.999174 1578272 3
0.902025 0.228005 0.974305 2169637 3
0.904358 0.236253 0.943364 2434089 3
0.908644 0.266635 0.999174 1644322 3
0.902025 0.259999 0.974305 2039334 3
0.903180 0.255795 0.958552 2565678 3
0.923156 0.256975 0.962973 2039332 3
0.925050 0.283041 0.999174 1447197 3
0.925850 0.278349 0.982612 1776162 3
0.954812 0.282140 0.995994 2105125 3
0.940944 0.246588 1.053716 1710115 3
0.900040 0.252418 1.007910 1578529 3
0.908043 0.271358 1.016873 1973287 3
0.908043 0.288054 1.016873 2039334 3
0.924739 0.288054 1.016873 1973287 3
-0.089441 0.276332 1.180818 4999757 3
-0.085954 0.284188 1.134771 5262929 3
-0.067322 0.284188 1.134771 4670792 3
-0.048690 0.284188 1.134771 4670792 3
-0.030058 0.284188 1.134771 4868682 3
-0.011661 0.290021 1.158059 5066061 3
-0.109563 0.278194 1.188774 3815483 3
-0.184893 0.293359 1.171391 6053215 3
-0.165271 0.292672 1.168645 4276806 3
-0.146083 0.292672 1.168645 5000270 3
-0.125612 0.289713 1.156830 4341827 3
-0.105066 0.285494 1.139986 4736585 3
-0.122007 0.299846 1.123626 4868171 3
-0.257390 0.270441 1.242845 4736585 3
-0.242764 0.277038 1.273158 4144448 3
-0.221860 0.277038 1.273158 4013375 3
-0.202603 0.279308 1.283594 3552570 3
-0.233422 0.286477 1.224166 4605510 3
-0.214767 0.288417 1.232456 4934477 3
-0.424575 0.238291 1.095094 2960176 3
-0.410953 0.248049 1.059960 2893613 3
-0.448006 0.256766 1.025272 4274754 3
-0.450139 0.268060 1.070372 4406340 3
-0.419109 0.259722 1.037076 5261649 3
-0.615786 0.258149 1.186352 2565418 3
-0.697036 0.278962 1.192055 3157813 3
-0.681353 0.280564 1.198900 2828847 3
-0.657891 0.278962 1.192055 2960687 3
-0.628746 0.274779 1.174178 3487031 3
-0.697036 0.298534 1.192055 4012864 3
-0.674222 0.297106 1.186352 3157553 3
-0.648025 0.294057 1.174178 3025967 3
-0.613313 0.286839 1.145357 3092273 3
0.324986 0.321474 1.597943 3289398 3
0.318487 0.340756 1.565984 3552824 3
0.344198 0.340756 1.565984 4144961 3
0.306237 0.352373 1.505754 4013373 3
0.330960 0.352373 1.505754 4276545 3
0.360478 0.357123 1.526052 4802378 3
0.396979 0.393525 1.571356 4736847 3
-0.180052 0.256133 1.273158 3420984 3
-0.161778 0.260367 1.294202 2960433 3
-0.178600 0.274803 1.262890 3158326 3
-0.159148 0.277038 1.273158 3223605 3
-0.193106 0.286303 1.223425 3947841 3
-0.173018 0.286303 1.223425 4079428 3
-0.153083 0.286587 1.224639 4210500 3
-0.134886 0.290704 1.242233 4013375 3
-0.279189 0.205911 1.023519 3880255 3
-0.216208 0.210029 1.043989 4407620 3
-0.297941 0.224182 1.030253 5195855 3
-0.279189 0.222716 1.023519 5262162 3
-0.260680 0.221270 1.016873 4933966 3
-0.240856 0.218433 1.003836 5065297 3
-0.233349 0.227171 1.043989 5196883 3
-0.279189 0.239522 1.023519 5064782 3
-0.261212 0.238452 1.018950 5328724 3
-0.244083 0.238063 1.017288 5065297 3
-0.235398 0.246458 1.053159 4802125 3
-0.279189 0.256327 1.023519 5657687 3
-0.261212 0.255182 1.018950 5525331 3
-0.244083 0.254766 1.017288 3684157 3
-0.233401 0.261511 1.044222 4210501 3
-0.291589 0.269068 1.008289 5526101 3
-0.275586 0.269608 1.010312 5065550 3
-0.257857 0.268419 1.005860 5197136 3
-0.240856 0.267879 1.003836 4605258 3
-0.225554 0.269288 1.009114 4539466 3
-0.224899 0.289794 1.085958 5131345 3
-0.325566 0.214316 1.065295 3288371 3
-0.308075 0.214316 1.065295 3945788 3
-0.336196 0.227171 1.043989 3946816 3
-0.321196 0.228695 1.050996 4012094 3
-0.387620 0.244312 1.043989 3288371 3
-0.370479 0.244312 1.043989 4341060 3
-0.353338 0.244312 1.043989 4735818 3
-0.336480 0.244518 1.044871 5065299 3
-0.323097 0.247407 1.057216 5393747 3
-0.300294 0.243001 1.038389 5788246 3
-0.396696 0.256243 1.023186 4932683 3
-0.377863 0.254872 1.017709 5064269 3
-0.367269 0.259188 1.034944 5525333 3
-0.354237 0.262119 1.046646 6183264 3
-0.339340 0.263898 1.053752 5393748 3
-0.333697 0.273452 1.091900 6578021 3
-0.300294 0.260051 1.038389 6051675 3
-0.389351 0.267987 1.004241 4077374 3
-0.375269 0.269717 1.010722 5590613 3
-0.361304 0.271695 1.018136 6051677 3
-0.352606 0.278018 1.041829 6314849 3
-0.327307 0.271228 1.016384 5854298 3
-0.306784 0.267879 1.003836 6380642 3
-0.357148 0.285094 1.006423 5656917 3
-0.353047 0.295493 1.043131 6118238 3
-0.325924 0.286700 1.012091 6249826 3
-0.306784 0.284361 1.003836 5657689 3
1.013718 0.401850 2.174978 2828847 3
1.049429 0.401850 2.174978 2302504 3
1.013718 0.437561 2.174978 2763054 3
1.049429 0.437561 2.174978 2631469 3
1.085140 0.437561 2.174978 3025714 3
1.013718 0.473272 2.174978 2237223 3
1.049429 0.473272 2.174978 2895154 3
1.085140 0.473272 2.174978 2499883 3
0.942296 0.401850 2.174978 2434092 3
0.978007 0.401850 2.174978 1907746 3
0.942296 0.437561 2.174978 2763055 3
0.978007 0.437561 2.174978 2499882 3
0.906585 0.473272 2.174978 3026227 3
0.420353 0.328787 1.779528 2894130 3
0.402076 0.342439 1.702157 2762542 3
0.449571 0.358005 1.779528 2762542 3
0.402076 0.370387 1.702157 3354934 3
0.449571 0.387223 1.779528 3486265 3
0.304974 0.301388 1.631234 3091507 3
0.331757 0.301388 1.631234 2697261 3
0.358540 0.301388 1.631234 1907746 3
0.304974 0.328171 1.631234 3486265 3
0.358540 0.328171 1.631234 3289398 3
0.757376 0.414532 2.060506 2565675 3
0.791207 0.414532 2.060506 3026226 3
0.757376 0.448363 2.060506 2434089 3
0.791207 0.448363 2.060506 3355192 3
0.737738 0.469692 2.007079 3552571 3
-0.726734 0.229629 1.242845 1644574 3
-0.717720 0.233332 1.262890 2170660 3
-0.747141 0.250035 1.242845 2038819 3
-0.715379 0.246128 1.223425 3091507 3
-0.735467 0.266216 1.223425 2894383 3
-0.704373 0.262120 1.204603 4736332 3
0.618160 0.411907 2.446850 2038819 3
0.658335 0.411907 2.446850 2170409 3
0.698510 0.411907 2.446850 2105127 3
0.698510 0.452082 2.446850 2828850 3
0.698510 0.492257 2.446850 2500396 3
0.150388 0.351494 2.087979 2499623 3
0.184671 0.351494 2.087979 2499621 3
0.116106 0.385776 2.087979 2697775 3
0.150388 0.385776 2.087979 3223346 3
0.184671 0.385776 2.087979 3289139 3
-0.128864 0.235375 1.398200 2697515 3
-0.164497 0.243136 1.315953 3223605 3
-0.144102 0.245197 1.327105 2960433 3
-0.123357 0.247293 1.338448 2894383 3
-0.102255 0.249424 1.349986 2960176 3
-0.142891 0.264743 1.315953 3749949 3
-0.122312 0.266987 1.327105 3025969 3
-0.141700 0.283963 1.304987 2829101 3
-0.121284 0.286350 1.315953 3815483 3
0.723544 0.346869 2.060506 2302504 3
0.737956 0.337975 2.007672 1776159 3
0.757376 0.380700 2.060506 2697261 3
0.791207 0.380700 2.060506 2434089 3
0.304974 0.274605 1.631234 2368297 3
0.331757 0.274605 1.631234 2039332 3
0.358540 0.274605 1.631234 2960434 3
0.202050 0.253094 1.665941 2565418 3
0.224624 0.247821 1.631234 2170917 3
0.229403 0.280447 1.665941 3091762 3
0.256756 0.280447 1.665941 2894381 3
0.278190 0.274605 1.631234 2631211 3
0.014411 0.344795 2.269542 1973026 3
0.050219 0.335082 2.205611 2433838 3
0.014205 0.376601 2.237120 3025716 3
0.050219 0.371296 2.205611 3618114 3
-0.096775 0.247821 1.631234 2368296 3
-0.069992 0.247821 1.631234 2631469 3
-0.016775 0.253094 1.665941 2105124 3
-0.202695 0.132623 0.978740 1973281 3
-0.210857 0.143318 0.943364 2499370 3
-0.229107 0.160744 0.954868 2499883 3
-0.210857 0.158807 0.943364 2565163 3
-0.254080 0.183122 0.991129 2433577 3
-0.234834 0.180833 0.978740 3025714 3
-0.213429 0.176422 0.954868 3091507 3
-0.205260 0.183122 0.991129 2960176 3
-0.254080 0.199395 0.991129 3815230 3
-0.237807 0.199395 0.991129 3946816 3
-0.221534 0.199395 0.991129 4209988 3
-0.488183 0.230769 0.770014 4078653 3
-0.455966 0.221270 0.738320 4670790 3
-0.435832 0.217276 0.724993 4999759 3
-0.423928 0.217276 0.724993 5262931 3
-0.434686 0.229226 0.764867 5920861 3
-0.470927 0.234807 0.742796 4933448 3
-0.449043 0.229849 0.727110 5788503 3
-0.427734 0.224921 0.711522 6183263 3
-0.409601 0.221434 0.700491 5723480 3
-0.408183 0.233797 0.739601 6578791 3
-0.422588 0.249470 0.789180 7170673 3
-0.495074 0.253114 0.761171 5393745 3
-0.466664 0.244768 0.736073 4472897 3
-0.446219 0.240267 0.722537 4012092 3
-0.431588 0.238736 0.717933 5722710 3
-0.412030 0.234317 0.704645 5789273 3
-0.402804 0.250142 0.752234 6512998 3
-0.409631 0.262427 0.789180 6972779 3
-0.429740 0.249450 0.714858 5459538 3
-0.409749 0.244525 0.700744 6183261 3
-0.393423 0.250971 0.837425 7630709 3
-0.389825 0.257681 0.859814 7630450 3
-0.374473 0.256834 0.856989 6774371 3
-0.372058 0.265141 0.884706 7235438 3
-0.393423 0.264721 0.837425 7367537 3
-0.386845 0.269721 0.853242 7959161 3
-0.373167 0.269961 0.854001 7367278 3
-0.363385 0.273147 0.864081 6643553 3
-0.359921 0.281535 0.890616 6578789 3
-0.334558 0.272779 0.862916 6051675 3
-0.310311 0.264197 0.835769 5197138 3
-0.422817 0.225391 0.899991 4210239 3
-0.404232 0.229611 0.860431 4736583 3
-0.404509 0.238090 0.892203 5327952 3
-0.407171 0.245510 0.866687 6380640 3
-0.404730 0.252877 0.892691 6183004 3
-0.447767 0.243149 0.811324 5262676 3
-0.438181 0.245239 0.818300 5723742 3
-0.424807 0.245275 0.818418 5789275 3
-0.431764 0.257435 0.858993 6776168 3
-0.407173 0.250971 0.837425 7301744 3
-0.422107 0.257068 0.813216 8157051 3
-0.431764 0.271539 0.858993 7827829 3
-0.407173 0.264721 0.837425 7301744 3
-0.407347 0.269489 0.810415 6314847 3
-0.186625 0.132623 0.978740 1578780 3
-0.197751 0.145066 0.954868 2762542 3
-0.195368 0.158807 0.943364 2828335 3
0.738684 0.411907 2.446850 1645087 3
0.778859 0.411907 2.446850 2170917 3
0.738684 0.452082 2.446850 2368810 3
0.778859 0.452082 2.446850 2828847 3
0.738684 0.492257 2.446850 2500395 3
0.778859 0.492257 2.446850 3487031 3
-0.591662 0.247620 0.826243 4078657 3
-0.565692 0.242307 0.808515 3354934 3
-0.547655 0.240218 0.801546 3289398 3
-0.587508 0.259353 0.820443 3552311 3
-0.564778 0.255169 0.807208 3683129 3
-0.551524 0.255169 0.807208 3683644 3
-0.533666 0.252986 0.800303 4802637 3
-0.584052 0.271219 0.815617 4868169 3
0.757616 0.229342 0.915769 1973541 3
0.740545 0.248745 0.932133 2039585 3
0.755850 0.248745 0.932133 2170917 3
0.784085 0.252916 0.947764 2565675 3
0.709943 0.258480 0.912472 3288886 3
0.737042 0.262801 0.927725 2631468 3
0.771370 0.269472 0.951273 2302757 3
0.789963 0.270490 0.954868 2368550 3
0.704325 0.271298 0.905251 2236202 3
0.740545 0.279355 0.932133 2039332 3
0.762110 0.281668 0.939854 2763054 3
0.786989 0.285091 0.951273 2368550 3
0.674397 0.252632 0.946698 2828335 3
0.606031 0.279665 0.987258 3157813 3
0.683847 0.278349 0.982612 3420727 3
0.672966 0.267607 0.944689 3157300 3
0.685703 0.255037 0.900316 2499370 3
0.656300 0.282620 0.943030 3420727 3
0.648190 0.237344 0.889411 2499882 3
0.648322 0.232162 0.869991 2368296 3
0.638631 0.223762 0.838511 2565675 3
0.698998 0.239744 0.898405 3026226 3
0.655901 0.254945 0.899991 2697004 3
0.670678 0.254945 0.899991 2565418 3
0.628792 0.264533 0.882679 3091507 3
0.636057 0.261562 0.872763 2894383 3
0.663057 0.266657 0.889764 3025969 3
0.680573 0.267801 0.893581 2367786 3
0.614101 0.278936 0.882395 3090992 3
0.600667 0.260541 0.824202 3157300 3
0.627969 0.266382 0.842680 2762542 3
0.653099 0.271069 0.857508 2433579 3
0.674566 0.274071 0.867004 2170409 3
0.620767 0.277004 0.833014 3354679 3
0.634410 0.276989 0.832970 2828337 3
0.648087 0.276989 0.832970 2038821 3
0.666656 0.279037 0.839128 2828848 3
0.672822 0.275915 0.829741 2499883 3
0.681863 0.274073 0.824202 2631469 3
0.690415 0.272111 0.818300 2631469 3
0.602273 0.288375 0.826406 3617851 3
0.623846 0.292123 0.837146 3617851 3
0.634410 0.290666 0.832970 2959921 3
0.647243 0.290287 0.831886 2301993 3
0.647977 0.284610 0.815617 1841953 3
0.652089 0.280617 0.804173 2631469 3
0.692097 0.280778 0.804634 2631469 3
0.607802 0.298002 0.815617 4342086 3
0.621194 0.298002 0.815617 3355192 3
0.634585 0.298002 0.815617 2960434 3
0.638885 0.293821 0.804173 2894640 3
0.532084 0.266912 0.890616 3355443 3
0.500669 0.257827 0.815617 3881278 3
0.589087 0.261407 0.826942 3354165 3
0.581019 0.271219 0.815617 3354165 3
0.596746 0.272284 0.818822 3617851 3
0.577503 0.282888 0.810682 3551543 3
0.594410 0.298002 0.815617 3881278 3
0.206195 0.272393 0.587200 7630707 3
0.215684 0.272201 0.586788 7367535 3
0.226912 0.274126 0.590937 7565684 3
0.236003 0.273418 0.589410 8091258 3
0.245449 0.273160 0.588855 6643812 3
0.256020 0.274126 0.590937 7170926 3
0.265723 0.274126 0.590937 7763061 3
0.274007 0.272715 0.587894 7763063 3
0.281416 0.270558 0.583244 6973547 3
0.286133 0.266039 0.573504 6710375 3
0.296772 0.267140 0.575877 7039340 3
0.264724 0.282762 0.588716 7959926 3
0.441384 0.238168 0.682527 5197134 3
0.437812 0.253801 0.694640 5460308 3
0.431340 0.243700 0.666995 5262927 3
0.435309 0.263689 0.690668 4604483 3
0.436340 0.257603 0.674727 5197647 3
0.438642 0.252550 0.661491 5459540 3
0.449719 0.252672 0.661810 3815232 3
0.406188 0.278387 0.699100 5591894 3
0.417666 0.278387 0.699100 5066061 3
0.423969 0.275029 0.690668 5065548 3
0.432893 0.273503 0.686835 5328206 3
0.444170 0.273503 0.686835 4407618 3
0.444833 0.267129 0.670828 4867403 3
0.461780 0.270606 0.679559 5460055 3
0.404360 0.280631 0.676827 6316130 3
0.416824 0.281543 0.679028 6381408 3
0.426585 0.280631 0.676827 6380381 3
0.436512 0.279870 0.674993 6578271 3
0.444965 0.278226 0.671027 5723478 3
0.452108 0.275862 0.665325 3947582 3
0.472938 0.281764 0.679559 4868431 3
0.425508 0.283618 0.657977 5590863 3
0.438853 0.285270 0.661810 6644832 3
0.425508 0.294421 0.657977 5984853 3
-0.186625 0.325462 0.978740 5526360 3
-0.163657 0.312300 0.939159 5789532 3
-0.186625 0.341532 0.978740 5723739 3
-0.157401 0.315192 0.903256 6052958 3
-0.178553 0.342136 0.936410 5987165 3
-0.243301 0.300017 0.949081 4737357 3
-0.232611 0.306462 0.969472 4408392 3
-0.218764 0.309392 0.978740 5197649 3
-0.206268 0.314846 0.995994 4868682 3
-0.247167 0.301316 0.906126 5131856 3
-0.243863 0.316329 0.951273 4013635 3
-0.233045 0.322982 0.971280 5855325 3
-0.218764 0.325462 0.978740 6250337 3
-0.202695 0.325462 0.978740 6447201 3
-0.238524 0.324680 0.930447 5657947 3
-0.234834 0.341532 0.978740 5460567 3
-0.218764 0.341532 0.978740 5920859 3
-0.202695 0.341532 0.978740 5789271 3
-0.235223 0.335252 0.917569 5460568 3
-0.234834 0.357602 0.978740 5394517 3
-0.218764 0.357602 0.978740 6052445 3
-0.202695 0.357602 0.978740 6644066 3
-0.233045 0.370824 0.971280 5723739 3
-0.218764 0.373672 0.978740 5526101 3
-0.218764 0.389742 0.978740 6841961 3
-0.696985 0.233332 1.262890 2697002 3
-0.695292 0.246128 1.223425 2828590 3
-0.664816 0.242342 1.204603 2368037 3
-0.655117 0.246128 1.223425 2697002 3
-0.635029 0.246128 1.223425 2565418 3
-0.684595 0.262120 1.204603 2762797 3
-0.664816 0.262120 1.204603 3157553 3
-0.645038 0.262120 1.204603 2960174 3
-0.614942 0.266216 1.223425 3025969 3
0.005063 0.291307 0.797294 7696500 3
0.004702 0.282730 0.740539 7367789 3
0.076228 0.277533 0.726928 7368303 3
0.085271 0.268425 0.703072 7564914 3
0.097166 0.269400 0.705625 7367537 3
0.039582 0.283449 0.711811 8156790 3
0.027816 0.294305 0.709807 7828340 3
0.039582 0.295136 0.711811 7959926 3
0.262643 0.246447 0.869991 4868169 3
0.280058 0.249232 0.879826 4276032 3
0.261192 0.259290 0.865185 4604997 3
0.275493 0.259380 0.865485 4012860 3
0.291112 0.260641 0.869691 4013375 3
0.206965 0.276969 0.876170 7039340 3
0.219790 0.275015 0.869991 6249054 3
0.232306 0.272938 0.863419 6184033 3
0.245630 0.271993 0.860431 5460055 3
0.258781 0.270971 0.857198 5459540 3
0.272388 0.270507 0.855729 6709859 3
0.286341 0.270415 0.855438 5921372 3
0.297645 0.267947 0.847631 5395028 3
0.202971 0.285731 0.859259 7763063 3
0.218576 0.287701 0.865185 7170156 3
0.232781 0.287701 0.865185 6710377 3
0.246987 0.287701 0.865185 7433845 3
0.261103 0.287603 0.864888 6709607 3
0.273791 0.286023 0.860137 6117722 3
0.286341 0.284460 0.855438 5920857 3
0.296547 0.280825 0.844505 6381923 3
0.200019 0.295479 0.846765 7434098 3
0.214939 0.296884 0.850791 7301742 3
0.227748 0.295379 0.846478 6315617 3
0.242549 0.296483 0.849641 5920861 3
0.256934 0.296984 0.851078 7235951 3
0.270547 0.296590 0.849947 6906984 3
0.277535 0.289326 0.829131 7170924 3
0.286218 0.284427 0.815091 6315615 3
0.296515 0.281496 0.806694 6973547 3
0.217260 0.295035 0.807496 7236719 3
0.168184 0.269598 0.899577 6644582 3
0.108959 0.283991 0.898384 6380383 3
0.123444 0.283381 0.896455 6643812 3
0.165328 0.279539 0.884300 5986654 3
0.179702 0.279312 0.883585 6645095 3
0.195567 0.281266 0.889764 6249824 3
0.104536 0.286615 0.861916 7433328 3
0.118038 0.285046 0.857198 7235949 3
0.132523 0.285932 0.859863 7697270 3
0.149043 0.290616 0.873950 7499891 3
0.160865 0.286121 0.860431 6512996 3
0.174335 0.285046 0.857198 7368818 3
0.188087 0.284557 0.855729 7499891 3
0.101537 0.292139 0.837191 7762293 3
0.114740 0.290763 0.833249 7434098 3
0.130068 0.294492 0.843936 7499891 3
0.145143 0.296984 0.851078 7565682 3
0.159063 0.296884 0.850791 7105131 3
0.172155 0.295379 0.846478 7039853 3
0.186053 0.295379 0.846478 6644582 3
0.094349 0.284415 0.899726 6512226 3
0.035258 0.299187 0.899726 8222844 3
0.049183 0.294118 0.884479 7696500 3
0.063411 0.292758 0.880391 7170926 3
0.079004 0.297037 0.893259 7301742 3
0.092654 0.293814 0.883568 8025465 3
0.005395 0.296506 0.849707 8157305 3
0.033525 0.298523 0.855487 8090999 3
0.047326 0.296984 0.851078 8156792 3
0.061300 0.296984 0.851078 8552063 3
0.075273 0.296984 0.851078 8026233 3
0.088916 0.295881 0.847916 7696500 3
0.097489 0.293690 0.803817 7697270 3
0.196907 0.249019 0.652242 7302512 3
0.105568 0.272760 0.684969 7301742 3
0.117133 0.273503 0.686835 7236719 3
0.129986 0.276861 0.695267 8289405 3
0.142302 0.278623 0.699693 7763574 3
0.162465 0.273880 0.687781 7763065 3
0.171462 0.270261 0.678694 7434096 3
0.181610 0.268788 0.674993 6776681 3
0.185153 0.258271 0.648583 6841961 3
0.192227 0.253555 0.636741 7302512 3
0.167404 0.257979 0.622196 7763063 3
0.177885 0.258364 0.623124 7039340 3
0.188444 0.258815 0.624211 7630707 3
0.105925 0.267730 0.621116 7499891 3
0.114647 0.264325 0.613218 7499891 3
0.152641 0.260435 0.604194 7960189 3
0.172447 0.260384 0.604075 7893879 3
0.183420 0.261890 0.607568 7564914 3
0.197319 0.267202 0.619893 7959415 3
0.102840 0.269834 0.603028 7828086 3
0.191536 0.269251 0.601726 7761266 3