# .PCD v0.7 - Point Cloud Data file format
VERSION 0.7
FIELDS x y z rgb label
SIZE 4 4 4 4 4
TYPE F F F U U
COUNT 1 1 1 1 1
WIDTH 1255
HEIGHT 1
VIEWPOINT 0 0 0 1 0 0 0
POINTS 1255
DATA ascii
-0.162807 0.257273 0.596857 7106155 3
-0.151849 0.255326 0.592342 6711138 3
-0.141787 0.254721 0.590937 6842983 3
-0.132428 0.255384 0.592476 6645606 3
-0.122845 0.255686 0.593176 7106675 3
-0.173237 0.268048 0.599037 6316637 3
-0.141057 0.263062 0.587894 7304050 3
-0.131095 0.262443 0.586511 6646122 3
-0.121551 0.262629 0.586927 7040112 3
-0.172789 0.277164 0.597487 7566706 3
-0.161764 0.275100 0.593036 7303532 3
-0.151489 0.274126 0.590937 6974569 3
-0.141024 0.272651 0.587757 7040878 3
-0.130545 0.270932 0.584052 7238259 3
-0.120171 0.269175 0.580265 7566456 3
-0.151489 0.283829 0.590937 6908778 3
0.455827 0.262444 0.687407 5394774 3
0.473213 0.265871 0.696383 5328981 3
0.462294 0.270907 0.680315 6052958 3
0.479582 0.274407 0.689106 4802376 3
0.495117 0.276767 0.695031 4604997 3
0.209022 0.227261 0.595252 7895160 3
0.205953 0.233553 0.586511 7171437 3
0.203664 0.240481 0.579994 8552577 3
0.298782 0.258135 0.598858 7303025 3
0.298422 0.267645 0.598137 7171696 3
0.166227 0.222310 0.582286 7237743 3
0.176444 0.223140 0.584459 7435122 3
0.186693 0.223923 0.586511 6974571 3
0.196923 0.224608 0.588306 7960955 3
0.131373 0.238010 0.597704 7895160 3
0.139305 0.234838 0.589736 7500404 3
0.147037 0.231763 0.582016 7697270 3
0.156050 0.230958 0.579994 7500402 3
0.166035 0.231603 0.581612 7632501 3
0.176402 0.232682 0.584322 7303536 3
0.185996 0.232682 0.584322 7500915 3
0.195636 0.232736 0.584459 7566197 3
0.126839 0.239270 0.577072 7303023 3
0.138543 0.243183 0.586511 7566197 3
0.148139 0.243126 0.586374 7565684 3
0.156812 0.241657 0.582829 8026235 3
0.166227 0.241431 0.582286 7566197 3
0.176361 0.242219 0.584187 7434611 3
0.185262 0.241319 0.582016 6908524 3
0.194141 0.240481 0.579994 7368818 3
0.103821 0.239366 0.555314 7434357 3
0.137545 0.250992 0.582286 7895162 3
0.147552 0.251753 0.584052 7631477 3
0.155654 0.249370 0.578523 7762293 3
0.164470 0.248339 0.576131 9210509 3
0.172579 0.246411 0.571658 8092541 3
0.182466 0.247089 0.573231 7434868 3
0.188982 0.243360 0.564579 7565682 3
0.170748 0.253084 0.565594 8355713 3
0.181180 0.254693 0.569192 7895160 3
0.188303 0.251722 0.562551 7500402 3
-0.296996 0.250097 0.655067 6644834 3
-0.292601 0.255655 0.669624 6250076 3
-0.292789 0.265806 0.696213 6448225 3
-0.213017 0.252546 0.661481 7171946 3
-0.292031 0.256492 0.644116 5460560 3
-0.286241 0.260853 0.655067 6381919 3
-0.280241 0.265356 0.666376 6514018 3
-0.269228 0.265286 0.666200 6579811 3
-0.249325 0.256078 0.643077 5987676 3
-0.234331 0.251321 0.631130 5658711 3
-0.222287 0.249435 0.626394 5658709 3
-0.212003 0.249435 0.626394 6579809 3
-0.201668 0.249373 0.626238 6316637 3
-0.297855 0.262874 0.634002 6513507 3
-0.288322 0.263676 0.635936 5460819 3
-0.279514 0.265225 0.639672 5789784 3
-0.271926 0.268100 0.646606 5855577 3
-0.257586 0.264279 0.637391 5987676 3
-0.244701 0.261691 0.631149 6974058 3
-0.232457 0.259591 0.626083 6118749 3
-0.220523 0.257658 0.621422 5789782 3
-0.210320 0.257658 0.621422 6777190 3
-0.200067 0.257595 0.621269 6974569 3
-0.282865 0.268929 0.623898 6579300 3
-0.272621 0.268929 0.623898 6645093 3
-0.262247 0.268796 0.623590 7500402 3
-0.248791 0.265364 0.615628 6710886 3
-0.237979 0.264581 0.613813 6973545 3
-0.226238 0.262650 0.609332 7236717 3
-0.216286 0.262714 0.609481 7434609 3
-0.207592 0.264387 0.613362 7764087 3
-0.272621 0.279172 0.623898 6842474 3
-0.260760 0.277452 0.620054 6447203 3
-0.245891 0.272261 0.608452 6907754 3
-0.235326 0.271598 0.606971 6315615 3
-0.225361 0.271598 0.606971 6710373 3
-0.216024 0.272391 0.608743 7631988 3
-0.208155 0.275202 0.615024 6974060 3
-0.213022 0.278462 0.600284 6842472 3
-0.206894 0.283572 0.611299 6447714 3
0.199574 0.255430 0.699100 6908265 3
0.176006 0.265985 0.696681 7170926 3
0.177260 0.251533 0.658829 7039851 3
0.125481 0.278284 0.671168 7566454 3
0.125860 0.256590 0.618846 7500915 3
0.700593 0.307721 0.881846 3947842 3
0.773642 0.302318 0.866364 3552571 3
0.782506 0.326167 0.892704 4013122 3
0.767998 0.314234 0.860043 3092020 3
0.773967 0.310958 0.851078 3092019 3
0.767849 0.340824 0.892704 3486777 3
0.742965 0.323602 0.847594 3947841 3
0.733169 0.313464 0.821040 2697774 3
0.758991 0.358219 0.899577 4736844 3
0.731735 0.338763 0.850718 3816255 3
0.719688 0.326944 0.821040 3816255 3
0.747608 0.367395 0.886087 4868684 3
0.723863 0.348936 0.841566 4408390 3
0.734028 0.375006 0.869991 3815994 3
0.721236 0.361437 0.838511 3882046 3
-0.098868 0.243952 0.699100 7369329 3
-0.087389 0.243952 0.699100 7829880 3
-0.075932 0.244020 0.699296 7171950 3
-0.097295 0.251366 0.687978 7303536 3
-0.086234 0.252054 0.689861 6514020 3
-0.074907 0.252054 0.689861 6711399 3
-0.064383 0.255235 0.698566 6777960 3
-0.097421 0.263004 0.688874 7304052 3
-0.085822 0.262122 0.686562 7500915 3
-0.073951 0.260017 0.681049 6711399 3
-0.063460 0.262883 0.688555 7632499 3
-0.052954 0.266909 0.699100 7040360 3
-0.095330 0.268427 0.674088 6711915 3
-0.084376 0.268788 0.674993 7171950 3
-0.073751 0.270468 0.679214 7171950 3
-0.063215 0.273130 0.685898 7040362 3
-0.052341 0.275167 0.691014 6908774 3
-0.095435 0.250695 0.604627 6909294 3
-0.085744 0.251390 0.606303 6975087 3
-0.062044 0.279123 0.673190 6974569 3
-0.051433 0.281543 0.679028 7171946 3
-0.040393 0.282304 0.680863 7171948 3
-0.109886 0.242935 0.696187 6776938 3
-0.155566 0.254295 0.695993 7106157 3
-0.144581 0.255075 0.698129 6646120 3
-0.132456 0.253806 0.694656 7172718 3
-0.120149 0.251917 0.689484 6975087 3
-0.107937 0.249853 0.683836 6580329 3
-0.191433 0.239150 0.626394 6514016 3
-0.195604 0.258234 0.676379 6908778 3
-0.190696 0.266909 0.699100 5921883 3
-0.179217 0.266909 0.699100 5987163 3
-0.167465 0.266473 0.697960 6316641 3
-0.151731 0.259172 0.678836 6382434 3
-0.140394 0.258820 0.677915 6777706 3
-0.129093 0.258478 0.677018 6909292 3
-0.115661 0.253404 0.663729 6975085 3
-0.105181 0.254415 0.666376 7172466 3
-0.190670 0.248441 0.623898 6842983 3
-0.181456 0.249859 0.627458 6842985 3
-0.185721 0.271125 0.680863 6645606 3
-0.174542 0.271125 0.680863 6381921 3
-0.163363 0.271125 0.680863 6448227 3
-0.152184 0.271125 0.680863 6908778 3
-0.141005 0.271125 0.680863 7172466 3
-0.129826 0.271125 0.680863 6514534 3
-0.118551 0.270907 0.680315 7501429 3
-0.106084 0.267634 0.672096 7106673 3
-0.189163 0.256640 0.618966 7171948 3
-0.176615 0.253221 0.610719 7500913 3
-0.156556 0.270541 0.652493 6711397 3
-0.197232 0.263999 0.612462 6908776 3
-0.186946 0.263676 0.611713 6645604 3
-0.174573 0.260203 0.603656 6842983 3
-0.116809 0.264057 0.612595 7040880 3
-0.107702 0.266411 0.618058 6514534 3
-0.197475 0.274393 0.613218 6513507 3
-0.186856 0.273587 0.611416 7369327 3
-0.198541 0.285998 0.616529 6842470 3
-0.187774 0.285020 0.614421 7039849 3
-0.324006 0.232533 0.666376 6052954 3
-0.315848 0.234600 0.672300 5460819 3
-0.316686 0.243741 0.698496 5263438 3
-0.322719 0.242507 0.663729 5197388 3
-0.314912 0.244911 0.670309 6447714 3
-0.307704 0.247971 0.678686 7500143 3
-0.314634 0.247056 0.647101 5328720 3
-0.305751 0.248471 0.650808 5526612 3
-0.316437 0.250692 0.629551 5921111 3
-0.310781 0.254525 0.639177 5986652 3
-0.301133 0.255243 0.640978 6316128 3
-0.309439 0.263876 0.636418 5592407 3
-0.321440 0.266936 0.619274 5132367 3
-0.313674 0.268996 0.624054 6250594 3
0.756607 0.304117 0.914550 4211013 3
0.777207 0.306317 0.921167 4342086 3
0.792331 0.306317 0.921167 3684410 3
0.741591 0.319133 0.914550 3816255 3
0.774707 0.326767 0.936427 4013121 3
0.789420 0.326493 0.935643 3947328 3
0.795279 0.322638 0.924594 3421238 3
0.794694 0.316362 0.906609 3552570 3
0.730026 0.335736 0.918893 4013121 3
0.755850 0.340573 0.932133 3552570 3
0.784085 0.346284 0.947764 3947328 3
0.792453 0.343169 0.939238 3618106 3
0.795279 0.337819 0.924594 4210500 3
0.750240 0.360537 0.944337 4473924 3
0.774285 0.364558 0.954868 3815996 3
0.789963 0.364558 0.954868 3552824 3
0.786092 0.355712 0.931699 3355191 3
0.766001 0.383942 0.964176 4737098 3
0.780334 0.383207 0.962328 4342340 3
0.770795 0.371010 0.931699 4802891 3
0.774285 0.395914 0.954868 4144961 3
0.758750 0.380271 0.917140 4671305 3
-0.231199 0.265848 0.799465 6908524 3
-0.213579 0.260370 0.782992 7368818 3
-0.201417 0.261269 0.785697 6710377 3
-0.299864 0.269889 0.773431 5000781 3
-0.293759 0.276086 0.791190 5987676 3
-0.280141 0.275470 0.789423 6316639 3
-0.266335 0.274599 0.786927 6776677 3
-0.256081 0.277488 0.795208 6842731 3
-0.242479 0.276866 0.793423 5593434 3
-0.227150 0.274088 0.785464 5461078 3
-0.209303 0.267755 0.767313 6053215 3
-0.297851 0.269287 0.737025 5856090 3
-0.295146 0.278142 0.761260 5395539 3
-0.287660 0.283076 0.774765 5987674 3
-0.272411 0.280472 0.767639 6842983 3
-0.259649 0.280302 0.767174 6447966 3
-0.243185 0.275913 0.755161 6316639 3
-0.230088 0.275079 0.752877 6054237 3
-0.210860 0.266403 0.729134 6514788 3
-0.290741 0.274671 0.719432 5921881 3
-0.287867 0.283473 0.742488 6119262 3
-0.283039 0.291045 0.762318 6514018 3
-0.262131 0.282017 0.738672 6053465 3
-0.250003 0.282017 0.738672 6185306 3
0.108909 0.250014 0.790901 7171439 3
0.107853 0.260452 0.783238 6710888 3
0.122598 0.264517 0.795464 6842474 3
0.149375 0.265683 0.798972 6711399 3
0.162493 0.265683 0.798972 6382434 3
0.107853 0.273312 0.783238 6974060 3
0.121398 0.274861 0.787680 7171439 3
0.136213 0.278713 0.798718 7434868 3
0.147590 0.275470 0.789423 7106157 3
0.160043 0.274599 0.786927 6909292 3
0.173019 0.274685 0.787175 7303023 3
0.186823 0.275986 0.790901 7697270 3
0.195769 0.270405 0.774909 7566197 3
0.107819 0.286082 0.782992 6908267 3
0.120752 0.286262 0.783486 7631990 3
0.134880 0.288971 0.790901 7105903 3
0.146849 0.286985 0.785464 7632501 3
0.159793 0.287070 0.785697 7172718 3
0.172159 0.286180 0.783262 6185055 3
0.181329 0.280472 0.767639 6974058 3
0.187702 0.271462 0.742978 7763576 3
0.190842 0.259160 0.709309 6974058 3
0.107086 0.296903 0.777662 7500404 3
0.120302 0.298013 0.780569 7829626 3
0.132622 0.296903 0.777662 7303282 3
0.143961 0.293983 0.770014 7633017 3
0.159373 0.299182 0.783632 6777192 3
0.170323 0.295851 0.774909 7039851 3
0.173323 0.280136 0.733747 7368818 3
0.149884 0.293469 0.736974 8027259 3
0.018192 0.252565 0.798972 7302514 3
0.005040 0.263926 0.793686 7565686 3
0.017651 0.257792 0.775240 7697272 3
0.031019 0.263217 0.791555 7565943 3
0.057325 0.264660 0.795892 8026744 3
0.069622 0.261761 0.787175 7039851 3
0.083226 0.263918 0.793661 7237232 3
0.095415 0.261609 0.786718 7303025 3
0.004668 0.256550 0.735204 7434611 3
0.016904 0.259070 0.742425 7500404 3
0.030227 0.269160 0.771340 7697783 3
0.044151 0.277059 0.793978 7368818 3
0.057528 0.278713 0.798718 7303023 3
0.070306 0.277387 0.794916 7829367 3
0.083358 0.277387 0.794916 7829367 3
0.096015 0.276251 0.791661 7631990 3
0.016368 0.262653 0.718869 7829626 3
0.028969 0.270094 0.739234 7829369 3
0.042892 0.281824 0.771340 7763576 3
0.056787 0.288068 0.788430 7303025 3
0.069951 0.288971 0.790901 7763574 3
0.082937 0.288971 0.790901 7895158 3
0.095263 0.286985 0.785464 7237230 3
0.028652 0.279142 0.731142 6974571 3
0.042305 0.290459 0.760785 7237230 3
0.055290 0.293076 0.767639 7631475 3
0.068827 0.297106 0.778194 7171435 3
0.082108 0.298938 0.782992 7500913 3
0.094963 0.298938 0.782992 7435120 3
0.089590 0.294151 0.738687 7500913 3
-0.047379 0.252455 0.798625 8158073 3
-0.033702 0.248295 0.785464 7631990 3
-0.020599 0.245829 0.777662 7566197 3
-0.088803 0.236235 0.710413 7303536 3
-0.076594 0.234567 0.705398 7500915 3
-0.065388 0.235922 0.709473 7040362 3
-0.055951 0.245632 0.738672 6974056 3
-0.043541 0.244054 0.733926 7434607 3
-0.031198 0.241787 0.727110 7434611 3
-0.019204 0.241083 0.724993 7500150 3
-0.007344 0.242536 0.729363 7039853 3
-0.065142 0.246640 0.706806 6908776 3
-0.054086 0.249167 0.714046 7040362 3
-0.042422 0.249521 0.715061 6645604 3
-0.030681 0.249521 0.715061 6316387 3
-0.019061 0.251102 0.719592 6184803 3
-0.007296 0.252845 0.724587 7500661 3
-0.053431 0.257731 0.705398 6383202 3
-0.042098 0.259268 0.709606 7500913 3
-0.030404 0.258897 0.708590 6382180 3
-0.175645 0.248410 0.785828 7434611 3
-0.158105 0.241331 0.763433 6579302 3
-0.143757 0.238325 0.753923 7434098 3
-0.124571 0.225976 0.714858 6842220 3
-0.112003 0.224313 0.709597 7040110 3
-0.184184 0.255264 0.767638 6579048 3
-0.166678 0.247971 0.745707 6381923 3
-0.154434 0.247971 0.745707 6316387 3
-0.140164 0.244437 0.735080 6776681 3
-0.124217 0.237038 0.712827 6974060 3
-0.112353 0.236700 0.711811 7040110 3
-0.100981 0.237443 0.714046 7106155 3
-0.194589 0.264875 0.759061 6250337 3
-0.173948 0.252982 0.724980 5921372 3
-0.157849 0.246432 0.706207 6842985 3
-0.149238 0.251460 0.720617 6514020 3
-0.136237 0.249320 0.714485 6711399 3
-0.122134 0.244571 0.700874 6316387 3
-0.194720 0.260820 0.713852 6514018 3
-0.182476 0.260074 0.711811 5658200 3
-0.170068 0.258978 0.708809 6645352 3
-0.348579 0.252172 0.797729 5460819 3
-0.327645 0.246282 0.779097 5198158 3
-0.383859 0.262526 0.789475 5855575 3
-0.346885 0.245530 0.738365 5658711 3
-0.331771 0.243336 0.731768 5987163 3
-0.326097 0.248162 0.746281 5198160 3
-0.318928 0.252181 0.758368 5592916 3
-0.315581 0.259674 0.780899 5330514 3
-0.315624 0.252052 0.722313 5066059 3
-0.307923 0.255502 0.732200 6119260 3
-0.304494 0.262922 0.753463 5198158 3
-0.306556 0.256328 0.701559 6316126 3
-0.303575 0.263746 0.721861 5921368 3
0.304387 0.227826 0.760197 6907754 3
0.301202 0.237793 0.752241 6644580 3
0.308353 0.233849 0.739766 6841191 3
0.381611 0.250014 0.790901 6907756 3
0.301172 0.240267 0.722537 6972777 3
0.310696 0.238471 0.717139 6776168 3
0.353155 0.235379 0.707839 6447203 3
0.389297 0.251201 0.755418 6118498 3
0.373368 0.256541 0.702140 6776427 3
0.390198 0.260074 0.711811 6184544 3
0.296692 0.231562 0.772660 6578789 3
0.286296 0.246218 0.778892 7236719 3
0.296404 0.244011 0.771912 6907752 3
0.252152 0.263417 0.792156 7039853 3
0.260255 0.258546 0.777508 7105133 3
0.272737 0.258277 0.776698 6249824 3
0.283476 0.256455 0.771220 6776166 3
0.293424 0.254105 0.764151 7236717 3
0.297799 0.247318 0.743742 7762547 3
0.206536 0.267868 0.767639 8158334 3
0.213455 0.260919 0.747724 7039853 3
0.222615 0.257317 0.737401 6710888 3
0.229637 0.251741 0.721422 7237232 3
0.256060 0.266938 0.764974 7499891 3
0.254580 0.252987 0.724993 8289405 3
0.264803 0.251391 0.720420 7236717 3
0.275834 0.250666 0.718341 7434350 3
0.284065 0.247561 0.709443 7499375 3
0.294350 0.263541 0.879366 6775398 3
0.201038 0.269037 0.851078 7170926 3
0.216637 0.271069 0.857508 6578791 3
0.272311 0.270430 0.855487 6645095 3
0.284881 0.269037 0.851078 7170926 3
0.288737 0.259928 0.822264 6776168 3
0.206053 0.271219 0.815617 7631479 3
0.226004 0.279326 0.839997 7500404 3
0.252560 0.294193 0.884706 7237232 3
0.256240 0.282247 0.848781 6710888 3
0.150229 0.264002 0.880905 7040110 3
0.102765 0.267848 0.847317 7171439 3
0.124147 0.254635 0.805519 7105646 3
0.139823 0.259177 0.819887 6842731 3
0.159725 0.270066 0.854334 6382434 3
0.173951 0.270374 0.855309 6776938 3
0.181526 0.261072 0.825882 6841961 3
0.136912 0.266961 0.802813 6711145 3
0.175840 0.266029 0.800012 7237232 3
0.192662 0.271219 0.815617 8223614 3
-0.369880 0.253684 0.846478 5526099 3
-0.356225 0.253857 0.847056 5921881 3
-0.345941 0.256545 0.856023 6317407 3
-0.333595 0.257866 0.860431 6579298 3
-0.319578 0.257955 0.860728 6250333 3
-0.307241 0.259472 0.865789 5789786 3
-0.391161 0.263198 0.832609 5066574 3
-0.364598 0.254209 0.804173 5592918 3
-0.326629 0.255494 0.808236 5988442 3
-0.327088 0.266688 0.843649 6053467 3
-0.314393 0.267673 0.846765 5856090 3
-0.302124 0.269129 0.851369 6184801 3
-0.315032 0.270200 0.812554 5790295 3
-0.302746 0.271145 0.815394 6448227 3
0.502573 0.214695 0.757902 4539465 3
0.508153 0.211833 0.747802 5000016 3
0.520068 0.211686 0.747280 4210500 3
0.595884 0.226513 0.799624 3947329 3
0.578827 0.215286 0.759991 3816255 3
0.502573 0.227139 0.757902 4671052 3
0.511471 0.225575 0.752685 4276294 3
0.521613 0.224620 0.749500 3552570 3
0.567052 0.238559 0.796011 4407879 3
0.585221 0.235354 0.785315 4934223 3
0.584653 0.230057 0.767639 4013634 3
0.502098 0.233573 0.738891 5197395 3
0.519912 0.236154 0.747055 5723227 3
0.532979 0.236509 0.748181 5657434 3
0.533303 0.231321 0.731768 4407880 3
0.550813 0.233652 0.739142 4210501 3
0.567948 0.235727 0.745707 3750463 3
0.582812 0.236792 0.749074 4276807 3
0.500329 0.244839 0.736288 5065809 3
0.546115 0.260940 0.784707 5328724 3
0.526082 0.240042 0.721861 4144707 3
0.538557 0.240319 0.722696 4342086 3
0.554925 0.242285 0.728607 4474185 3
0.575969 0.246166 0.740279 3816255 3
0.509273 0.255351 0.731768 5197138 3
0.517969 0.253726 0.727110 4868171 3
0.528365 0.252987 0.724993 5131345 3
0.542609 0.254083 0.728133 4539208 3
0.506904 0.266122 0.728365 5131343 3
0.515282 0.264286 0.723338 5131341 3
0.519498 0.260445 0.712827 5197136 3
0.531696 0.260688 0.713490 4670792 3
0.581738 0.279074 0.763812 4802891 3
0.504493 0.270380 0.708193 5394767 3
0.553172 0.277295 0.726306 4407620 3
0.480137 0.281887 0.995100 5921631 3
0.497499 0.282468 0.997152 4803150 3
0.455957 0.293183 0.978275 4539978 3
0.462503 0.287272 0.958552 5000529 3
0.472457 0.283798 0.946959 4934736 3
0.470785 0.273784 0.913545 4737357 3
0.484071 0.272818 0.910322 5197906 3
0.313562 0.252953 0.892960 6184544 3
0.319636 0.246335 0.869597 5658200 3
0.302053 0.257792 0.860186 6579302 3
0.309607 0.252436 0.842313 6645095 3
0.392507 0.266211 0.842141 6250084 3
0.005555 0.247813 0.874815 7170156 3
0.005344 0.252236 0.841646 7105133 3
0.019142 0.251951 0.840696 7170926 3
0.047683 0.256988 0.857502 6579302 3
0.059462 0.247417 0.825565 6513507 3
0.073684 0.249677 0.833106 7039851 3
0.005249 0.261335 0.826714 7631479 3
0.031990 0.258048 0.816318 6908013 3
0.047582 0.270492 0.855682 6644841 3
0.058944 0.258699 0.818377 7237228 3
0.071067 0.254003 0.803522 7171437 3
0.089247 0.269037 0.851078 6974060 3
0.045065 0.269489 0.810415 7039599 3
-0.052364 0.250029 0.882636 7039340 3
-0.036237 0.239237 0.844539 6973547 3
-0.022064 0.235959 0.832970 7368303 3
-0.008449 0.237704 0.839128 7828854 3
-0.066856 0.264521 0.882636 7367789 3
-0.049746 0.251297 0.838511 7236717 3
-0.035111 0.245239 0.818300 6973545 3
-0.021640 0.244844 0.816980 7236717 3
-0.008463 0.251899 0.840520 7302510 3
-0.061779 0.257827 0.815617 7368557 3
-0.008121 0.254938 0.806477 6645095 3
-0.206355 0.243629 0.860043 7105133 3
-0.298607 0.264414 0.882280 6776427 3
-0.288272 0.268277 0.895170 6381921 3
-0.275048 0.269722 0.899991 6513505 3
-0.258057 0.267427 0.892335 6908263 3
-0.239977 0.263660 0.879766 6908263 3
-0.223732 0.261556 0.872746 7039338 3
-0.205262 0.256384 0.855487 7565684 3
-0.291923 0.272657 0.862530 6513509 3
-0.282328 0.277140 0.876712 7106157 3
-0.266813 0.275981 0.873046 7106157 3
-0.245120 0.267938 0.847602 7763574 3
-0.228427 0.264721 0.837425 7368816 3
-0.214536 0.264546 0.836871 7434098 3
-0.288318 0.270170 0.812464 6053469 3
-0.284595 0.279619 0.840880 6776681 3
-0.274640 0.283596 0.852838 6316387 3
-0.254814 0.277260 0.833785 6184801 3
0.710384 0.233783 0.876064 3093302 3
0.711835 0.229611 0.860431 3355704 3
0.733642 0.232040 0.869533 3224116 3
0.711835 0.243738 0.860431 3355704 3
0.731508 0.245600 0.867004 3224116 3
0.772241 0.254327 0.897811 3947839 3
0.728518 0.263909 0.880597 3421497 3
0.756643 0.268764 0.896795 3684667 3
0.762157 0.265555 0.886087 3355702 3
0.759513 0.259677 0.866473 3684667 3
0.711690 0.277444 0.877675 3552830 3
0.774117 0.284499 0.899991 3618615 3
0.765053 0.275901 0.872793 3486777 3
0.770843 0.272878 0.863229 3289398 3
0.717391 0.294193 0.884706 3421498 3
0.782506 0.296852 0.892704 3223605 3
0.767998 0.285992 0.860043 3618363 3
0.762645 0.278871 0.838629 3684410 3
0.782971 0.281226 0.845710 2763308 3
0.773967 0.296984 0.851078 3420984 3
0.765369 0.288477 0.826699 3815996 3
0.466643 0.202860 0.760186 4209988 3
0.475957 0.201519 0.755161 4077888 3
0.489075 0.201816 0.756273 4078402 3
0.474192 0.224839 0.793714 4737357 3
0.471074 0.217387 0.767405 4341829 3
0.478263 0.214955 0.758821 4735818 3
0.487614 0.213593 0.754014 4802125 3
0.405573 0.215282 0.718341 5197649 3
0.420024 0.216653 0.722914 5197395 3
0.434042 0.217731 0.726510 4803148 3
0.463000 0.226045 0.754252 4736844 3
0.475234 0.225973 0.754014 5525333 3
0.486879 0.225633 0.752877 4933197 3
0.401886 0.225013 0.711811 5526871 3
0.414871 0.225719 0.714046 5592666 3
0.428673 0.226818 0.717523 5329494 3
0.447258 0.230322 0.728607 5394774 3
0.461213 0.231321 0.731768 4999759 3
0.473228 0.231321 0.731768 6512998 3
0.488390 0.232822 0.736514 4671051 3
0.420916 0.263217 0.791555 6052704 3
0.435215 0.264008 0.793932 5526614 3
0.405573 0.238871 0.718341 4539976 3
0.417367 0.238871 0.718341 5855838 3
0.429410 0.239010 0.718757 4934223 3
0.447899 0.242632 0.729651 4605258 3
0.461213 0.243336 0.731768 5591896 3
0.473228 0.243336 0.731768 5855068 3
0.488390 0.244914 0.736514 5789532 3
0.401700 0.263604 0.755418 6118497 3
0.430871 0.274278 0.786007 6250337 3
0.443979 0.274403 0.786366 6776938 3
0.417367 0.250666 0.718341 6711147 3
0.431286 0.251907 0.721897 5395287 3
0.474215 0.269572 0.772523 5658459 3
0.461213 0.255351 0.731768 5131602 3
0.473228 0.255351 0.731768 5263188 3
0.486809 0.256175 0.734130 5328982 3
0.497987 0.255726 0.732842 5657946 3
0.401886 0.260074 0.711811 6316387 3
0.413573 0.260074 0.711811 6250596 3
0.421327 0.257669 0.705228 5000529 3
0.431561 0.256868 0.703037 6250596 3
0.450812 0.261337 0.715266 6184290 3
0.467502 0.264131 0.722914 5263188 3
0.482287 0.265737 0.727311 4934224 3
0.494945 0.266122 0.728365 5197395 3
0.490372 0.269012 0.704609 4604999 3
-0.198187 0.236615 0.886677 6578789 3
-0.190631 0.241597 0.852871 7368818 3
-0.182197 0.249216 0.879766 6974058 3
-0.190230 0.255063 0.851078 6973806 3
-0.172430 0.249525 0.832601 6842474 3
-0.158307 0.248815 0.830230 7237232 3
-0.196603 0.259022 0.819398 7170928 3
-0.491666 0.237733 0.890866 4210493 3
-0.491058 0.266657 0.889764 4473411 3
-0.405863 0.268282 0.895189 5789273 3
-0.469707 0.269037 0.851078 5592407 3
-0.469975 0.277444 0.877675 5592403 3
-0.461840 0.281266 0.889764 5723989 3
-0.440398 0.276969 0.876170 5197645 3
-0.423008 0.275015 0.869991 5658196 3
-0.482807 0.290904 0.874815 5263442 3
-0.476449 0.295875 0.889764 5197645 3
-0.461840 0.295875 0.889764 4802630 3
-0.440398 0.291354 0.876170 6184540 3
0.783473 0.241972 0.966200 3488060 3
0.764702 0.231487 0.924335 3816253 3
0.768169 0.228012 0.910456 2960944 3
0.783118 0.228012 0.910456 2368807 3
0.798067 0.228012 0.910456 3026737 3
0.745844 0.255812 0.958615 3289909 3
0.728705 0.244768 0.917230 3224888 3
0.782835 0.242873 0.910127 3750714 3
0.793742 0.241644 0.905522 3816253 3
0.798359 0.258003 0.910789 3487288 3
0.747871 0.285763 0.903990 3618877 3
0.762099 0.285532 0.903261 3552570 3
0.538980 0.214162 0.855154 4143427 3
0.536419 0.239602 0.897871 4407882 3
0.535268 0.215408 0.807208 4408133 3
0.505270 0.246345 0.869634 5000016 3
0.593682 0.236079 0.833393 4210500 3
0.598712 0.246204 0.821519 4736844 3
0.571220 0.266644 0.801861 4933966 3
-0.042632 0.248828 0.993574 6118238 3
-0.091282 0.264302 0.990430 6907752 3
-0.074050 0.260882 0.977614 6578273 3
-0.056996 0.256375 0.960726 7170928 3
-0.040650 0.252820 0.947402 7499891 3
-0.024400 0.245819 0.921167 7697268 3
-0.009509 0.252002 0.944337 7302764 3
-0.090824 0.279155 0.985457 6644580 3
-0.072533 0.271260 0.957585 6907238 3
-0.088614 0.288148 0.961476 7368303 3
-0.251140 0.245343 0.979659 7433580 3
-0.229373 0.239413 0.955980 6973031 3
-0.210937 0.236342 0.943721 7301742 3
-0.202539 0.244924 0.977989 6512994 3
-0.283838 0.261915 0.981486 6579298 3
-0.261862 0.256181 0.959999 5789782 3
-0.239342 0.249147 0.933638 6446685 3
-0.220075 0.244767 0.917227 6644066 3
-0.298399 0.262487 0.926618 7039849 3
-0.283185 0.262487 0.926618 6974056 3
-0.266790 0.261331 0.922534 7039849 3
-0.249801 0.259417 0.915780 6579298 3
-0.230834 0.255074 0.900447 6381408 3
-0.639716 0.204932 0.818300 2039842 3
-0.624227 0.204260 0.815617 2631979 3
-0.639716 0.218368 0.818300 2500393 3
-0.653152 0.231804 0.818300 4078657 3
-0.651010 0.244435 0.815617 3552313 3
0.504317 0.253215 1.082034 5132367 3
0.517527 0.251006 1.072592 4342599 3
0.535138 0.251006 1.072592 4605772 3
0.552514 0.250899 1.072136 4211013 3
0.566479 0.249298 1.065295 4737358 3
0.578105 0.246794 1.054595 4868943 3
0.582880 0.241596 1.032385 4210754 3
0.593248 0.238945 1.021054 4342087 3
0.510319 0.264875 1.057654 4803148 3
0.524585 0.263319 1.051440 5263699 3
0.545279 0.264986 1.058097 5263699 3
0.562652 0.264986 1.058097 4868941 3
0.573779 0.262133 1.046703 5197906 3
0.568836 0.252318 1.007510 5000270 3
0.527790 0.282297 1.057864 5132113 3
0.560426 0.290203 1.087489 5066320 3
0.578281 0.290203 1.087489 4737609 3
0.586806 0.285660 1.070467 4803148 3
0.570145 0.269478 1.009828 4802891 3
0.421903 0.246582 1.053689 4407620 3
0.449464 0.252342 1.078304 5460306 3
0.475710 0.256956 1.098019 5263438 3
0.431506 0.259258 1.035222 4539206 3
0.458414 0.264986 1.058097 5066061 3
0.475787 0.264986 1.058097 4869193 3
0.493160 0.264986 1.058097 4934988 3
0.435161 0.278595 1.043989 5920859 3
0.452302 0.278595 1.043989 5723991 3
0.469443 0.278595 1.043989 6185055 3
0.482183 0.276074 1.034545 4934734 3
0.497304 0.275043 1.030679 5000527 3
0.426662 0.289960 1.023599 5855579 3
0.448211 0.293061 1.034545 5723993 3
0.463267 0.291845 1.030253 5197649 3
0.471718 0.286700 1.012091 6645354 3
0.168399 0.255698 1.092643 5986654 3
0.178794 0.245344 1.048398 6117985 3
0.193417 0.242102 1.034545 6315876 3
0.142031 0.258311 1.031441 6052956 3
0.160901 0.261453 1.043989 6381412 3
0.176431 0.259088 1.034545 5262676 3
0.190895 0.255709 1.021054 4933966 3
0.139464 0.270271 1.012799 7039338 3
0.156721 0.271358 1.016873 7302771 3
0.173417 0.271358 1.016873 7302771 3
0.188438 0.268967 1.007910 7105392 3
0.154712 0.284361 1.003836 6908267 3
0.101367 0.226215 0.966657 6052958 3
0.118770 0.229169 0.979281 6513509 3
0.100745 0.240601 0.960726 5592405 3
0.116846 0.241276 0.963421 5855579 3
0.114230 0.251337 0.941848 6645095 3
0.112778 0.263410 0.929876 6974060 3
0.137150 0.282140 0.995994 7236717 3
0.169704 0.281887 0.995100 5921118 3
0.183708 0.278349 0.982612 5658457 3
0.199054 0.277252 0.978740 6315876 3
0.101367 0.289701 0.966657 6381921 3
0.117239 0.289701 0.966657 7631990 3
0.133110 0.289701 0.966657 6776168 3
0.148982 0.289701 0.966657 7039853 3
0.171923 0.275591 0.919574 6843499 3
0.192591 0.283798 0.946959 6776681 3
-0.394306 0.228332 0.975702 6578021 3
-0.390409 0.232491 0.928342 6184031 3
-0.376286 0.233185 0.931112 6907754 3
-0.369542 0.238704 0.953150 6381408 3
-0.387392 0.245819 0.921167 6512994 3
-0.373782 0.246819 0.924915 5657685 3
-0.354948 0.244308 0.915507 5789525 3
-0.344943 0.247921 0.929046 5986904 3
-0.353261 0.265647 0.995469 5723732 3
-0.337450 0.266068 0.997048 6447455 3
-0.319174 0.264489 0.991129 6579298 3
-0.302900 0.264489 0.991129 7171435 3
-0.395536 0.256418 0.905193 6644580 3
-0.380812 0.256512 0.905522 5592405 3
-0.367806 0.257816 0.910127 5395024 3
-0.350949 0.256418 0.905193 6908263 3
-0.337679 0.257633 0.909481 8092537 3
-0.327136 0.261138 0.921853 7105644 3
-0.315363 0.263952 0.931789 7039851 3
0.819961 0.215668 0.991129 2763054 3
0.836235 0.215668 0.991129 2631468 3
0.806042 0.228005 0.974305 3486777 3
0.808749 0.224318 0.958552 3881789 3
0.821319 0.223456 0.954868 2631468 3
0.830064 0.221605 0.946959 2960434 3
0.842402 0.220764 0.943364 2763057 3
0.806591 0.226210 0.903261 3224119 3
0.828319 0.228109 0.910846 2433838 3
0.813016 0.242960 0.910456 3026740 3
0.831293 0.243937 0.914116 2960436 3
0.847843 0.244381 0.915780 2565678 3
0.821077 0.260467 0.919484 2763567 3
0.837399 0.260848 0.920830 3355192 3
0.847843 0.259417 0.915780 2960434 3
0.888199 0.267030 0.942653 2434089 3
0.808978 0.271503 0.905934 2960944 3
0.860324 0.283522 0.946040 2565675 3
0.855762 0.277017 0.924335 2631468 3
0.858814 0.273161 0.911466 3157812 3
0.889997 0.278231 0.928384 2565675 3
0.823178 0.286143 0.905193 3092273 3
0.841391 0.287287 0.908811 3487031 3
0.312013 0.202831 0.932133 5065550 3
0.300207 0.232712 0.994420 6052954 3
0.312013 0.218136 0.932133 6249824 3
0.330281 0.220111 0.940573 5723478 3
0.363353 0.231334 0.988534 5197134 3
0.303945 0.239134 0.954868 6249308 3
0.314391 0.235220 0.939238 5656917 3
0.330281 0.235554 0.940573 3618363 3
0.350979 0.239134 0.954868 3618363 3
0.373107 0.243341 0.971665 3552313 3
0.394358 0.246654 0.984896 3683127 3
0.312597 0.249211 0.933878 4933196 3
0.330029 0.250806 0.939854 4210500 3
0.346750 0.251742 0.943364 4078914 3
0.365277 0.253853 0.951273 5460310 3
0.387515 0.258265 0.967806 5328722 3
0.308469 0.261051 0.921547 6380640 3
0.355325 0.262130 0.925357 5065550 3
0.388906 0.275139 0.971280 4736585 3
0.296708 0.202831 0.932133 5131341 3
0.265095 0.230574 0.985285 5920861 3
0.284180 0.232957 0.995469 6710886 3
0.298394 0.219375 0.937430 5722964 3
0.236021 0.250230 0.999174 5658196 3
0.248242 0.246082 0.982612 5395024 3
0.264577 0.246270 0.983362 5526614 3
0.282941 0.248215 0.991129 5855836 3
0.296192 0.245708 0.981120 5986650 3
0.202381 0.265548 0.995100 6184544 3
0.217847 0.264489 0.991129 6645093 3
0.232109 0.262216 0.982612 6316126 3
0.247460 0.261389 0.979514 5855577 3
0.266773 0.264594 0.991524 5658457 3
0.284630 0.266068 0.997048 6316130 3
0.294828 0.260612 0.976601 5723480 3
0.299047 0.250706 0.939480 5065548 3
0.215124 0.277252 0.978740 6710888 3
0.229232 0.274899 0.970433 7303023 3
0.244598 0.274263 0.968186 6052956 3
0.266667 0.280762 0.991129 6381669 3
0.282504 0.280329 0.989600 5394774 3
0.287964 0.270205 0.953863 5855579 3
0.296056 0.263470 0.930086 5855066 3
0.207348 0.282720 0.943364 6776681 3
0.222838 0.282720 0.943364 6645093 3
0.240325 0.285091 0.951273 6974060 3
0.262465 0.292355 0.975512 6578791 3
0.278237 0.292098 0.974653 6184290 3
0.284274 0.282204 0.941640 5789532 3
0.290130 0.273161 0.911466 6447716 3
0.244765 0.287576 0.909726 6315876 3
0.268303 0.297100 0.939854 6184544 3
0.274165 0.287080 0.908155 6381923 3
0.255240 0.219843 1.010312 5592407 3
0.271829 0.219843 1.010312 5526103 3
0.288417 0.219843 1.010312 5526612 3
0.209531 0.241097 1.030253 6184291 3
0.228522 0.243307 1.039697 5460821 3
0.246607 0.244312 1.043989 5395026 3
0.253484 0.234805 1.003363 5723993 3
0.206809 0.254662 1.016873 5592153 3
0.223505 0.254662 1.016873 5592407 3
0.085496 0.210343 0.966657 5855577 3
0.053526 0.225261 0.962580 6249054 3
0.069197 0.224827 0.960726 6644580 3
0.085332 0.225781 0.964804 5592405 3
0.053423 0.240601 0.960726 6644582 3
0.069197 0.240601 0.960726 5723991 3
0.084971 0.240601 0.960726 6052956 3
0.006115 0.256975 0.962973 7564914 3
0.021825 0.255795 0.958552 6775398 3
0.037737 0.256975 0.962973 6841961 3
0.053302 0.255795 0.958552 6841961 3
0.068723 0.254620 0.954149 6776679 3
0.083436 0.251742 0.943364 5855577 3
0.098517 0.250706 0.939480 7237230 3
0.020922 0.260299 0.918893 6315617 3
0.037141 0.268478 0.947764 6776168 3
0.053548 0.272786 0.962973 6908267 3
0.069624 0.273829 0.966657 7105644 3
0.085496 0.273829 0.966657 6908265 3
0.099208 0.267997 0.946066 6645093 3
0.035714 0.273127 0.911354 7039853 3
-0.190830 0.238291 1.095094 5921111 3
-0.195325 0.239720 1.024366 6644834 3
-0.180795 0.242795 1.037508 6908006 3
-0.166833 0.247350 1.056972 6315615 3
-0.191502 0.251518 1.004318 5986902 3
-0.176842 0.254149 1.014823 6644834 3
-0.161225 0.255807 1.021442 6710373 3
-0.144747 0.256327 1.023519 6316130 3
-0.129443 0.259333 1.035521 6119008 3
-0.116886 0.269585 1.076460 6052956 3
-0.190842 0.267084 1.000856 7105385 3
-0.177272 0.271469 1.017288 6710627 3
-0.161553 0.273132 1.023519 6184542 3
-0.144631 0.272912 1.022694 5921372 3
-0.126291 0.269608 1.010312 6579813 3
-0.109659 0.269500 1.009908 6974058 3
-0.196991 0.292653 1.033106 6907752 3
-0.143406 0.287250 1.014035 5329492 3
-0.125482 0.284361 1.003836 6250848 3
-0.109000 0.284361 1.003836 6908265 3
-0.484977 0.217042 0.997442 3684410 3
-0.468600 0.217042 0.997442 4210754 3
-0.495833 0.230849 0.986459 4473924 3
-0.473669 0.227977 0.974186 4671303 3
-0.454856 0.226573 0.968186 4736585 3
-0.451328 0.232957 0.995469 5985882 3
-0.430062 0.230321 0.984205 4933194 3
-0.402230 0.223826 0.956450 4735817 3
-0.498673 0.240601 0.960726 5000266 3
-0.480875 0.239593 0.956699 4671044 3
-0.463927 0.238954 0.954149 4078653 3
-0.443194 0.236253 0.943364 6776166 3
-0.425944 0.235280 0.939480 7236717 3
-0.408071 0.233877 0.933878 4539206 3
-0.487645 0.250706 0.939480 4736837 3
-0.469404 0.249211 0.933878 5328974 3
-0.455088 0.249769 0.935971 6184029 3
-0.435195 0.247199 0.926338 6118236 3
-0.417641 0.245819 0.921167 6776168 3
-0.402516 0.245819 0.921167 7105131 3
-0.497301 0.263079 0.928706 6316639 3
-0.477996 0.260865 0.920891 5789782 3
-0.460307 0.259417 0.915780 5131852 3
-0.447072 0.260467 0.919484 5395026 3
-0.432608 0.260848 0.920830 6052956 3
-0.411899 0.257356 0.908502 6447203 3
-0.488009 0.273127 0.911354 5658711 3
-0.478140 0.276068 0.921167 5592403 3
-0.466805 0.278327 0.928706 5329231 3
-0.449557 0.277095 0.924594 5921370 3
-0.432608 0.275967 0.920830 5723991 3
-0.501354 0.217042 0.997442 3487288 3
-0.565382 0.232810 0.994838 4473924 3
-0.540163 0.229043 0.978740 5000268 3
-0.524093 0.229043 0.978740 4144959 3
-0.512445 0.231036 0.987258 5000266 3
-0.532375 0.228012 0.910456 3881787 3
-0.517426 0.228012 0.910456 3684149 3
-0.519329 0.235658 0.940989 4539458 3
-0.511507 0.239226 0.955235 4803400 3
-0.501436 0.249891 0.936427 4342849 3
0.816912 0.215784 1.072592 2828335 3
0.834523 0.215784 1.072592 2697261 3
0.829410 0.210029 1.043989 3553084 3
0.824563 0.204574 1.016873 3158326 3
0.846114 0.236636 1.087489 3355191 3
0.840619 0.230241 1.058097 3158326 3
0.824563 0.221270 1.016873 3026740 3
0.849641 0.255553 1.092023 3487288 3
0.829008 0.244194 1.043484 3026739 3
0.813602 0.234803 1.003355 2960946 3
0.826994 0.266193 1.062915 3289909 3
0.806508 0.282582 1.058931 3684669 3
0.650331 0.238670 1.186352 4144710 3
0.669810 0.238670 1.186352 2959923 3
0.689288 0.238670 1.186352 3552058 3
0.631203 0.250556 1.151459 4211014 3
0.650109 0.250556 1.151459 4407880 3
0.669015 0.250556 1.151459 3947329 3
0.698188 0.254296 1.168645 3947331 3
0.576438 0.225032 1.118560 3881023 3
0.590585 0.223436 1.110627 4078915 3
0.525496 0.254296 1.168645 4802891 3
0.544684 0.254296 1.168645 4079425 3
0.563872 0.254296 1.168645 4868943 3
0.554114 0.241671 1.110627 3684157 3
0.568319 0.239969 1.102806 3420984 3
0.586426 0.239969 1.102806 3684670 3
0.404334 0.231650 1.151459 5066059 3
0.423239 0.231650 1.151459 4737094 3
0.442145 0.231650 1.151459 4210754 3
0.467932 0.235108 1.168645 5197649 3
0.423463 0.239969 1.102806 4933964 3
0.441570 0.239969 1.102806 5262929 3
0.473001 0.246925 1.134771 5394513 3
0.498863 0.250556 1.151459 4671303 3
0.495891 0.258076 1.102806 5329233 3
-0.199188 0.229959 1.143054 6118236 3
-0.188684 0.240492 1.195408 6118236 3
-0.169056 0.240492 1.195408 5197134 3
-0.149429 0.240492 1.195408 5197649 3
-0.128818 0.238670 1.186352 6381669 3
-0.181747 0.250556 1.151459 6381408 3
-0.164047 0.252412 1.159988 6381408 3
-0.145001 0.252412 1.159988 6579048 3
-0.125955 0.252412 1.159988 6118751 3
-0.106123 0.250556 1.151459 6315615 3
-0.157066 0.259906 1.110627 6776168 3
-0.141618 0.265124 1.132921 5723739 3
-0.123950 0.267137 1.141523 6184542 3
-0.103923 0.263874 1.127581 6052697 3
-0.288621 0.212868 1.058097 4737605 3
-0.271248 0.212868 1.058097 5395278 3
-0.260927 0.218781 1.087489 5197134 3
-0.299914 0.225666 1.037076 5461328 3
-0.282887 0.225666 1.037076 5395278 3
-0.265859 0.225666 1.037076 5460558 3
-0.250490 0.227171 1.043989 5196620 3
-0.208811 0.238291 1.095094 5394767 3
-0.298316 0.241401 1.031549 5921622 3
-0.277264 0.237870 1.016463 6119000 3
-0.258894 0.236336 1.009908 5986132 3
-0.244149 0.238127 1.017560 6446174 3
-0.226660 0.256124 1.094463 6512994 3
-0.295281 0.255709 1.021054 7697779 3
-0.277045 0.254358 1.015658 7434607 3
-0.490468 0.210029 1.043989 4408133 3
-0.476503 0.211439 1.050996 4276034 3
-0.456185 0.210029 1.043989 4144448 3
-0.439044 0.210029 1.043989 4407622 3
-0.421903 0.210029 1.043989 4210243 3
-0.407478 0.211439 1.050996 4408133 3
-0.467099 0.224182 1.030253 3815483 3
-0.450183 0.224182 1.030253 4539206 3
-0.433267 0.224182 1.030253 4802380 3
-0.416351 0.224182 1.030253 4868173 3
-0.402081 0.225666 1.037076 5131343 3
-0.507609 0.210029 1.043989 3618874 3
-0.570496 0.218433 1.003836 3223857 3
-0.561209 0.221270 1.016873 3750201 3
-0.544513 0.221270 1.016873 3618617 3
-0.521050 0.218433 1.003836 3421749 3
-0.979358 0.302927 1.505754 2764335 3
-0.973354 0.308867 1.535279 2829612 3
-0.967109 0.315044 1.565984 3355443 3
-0.979358 0.327650 1.505754 2172196 3
-0.992821 0.340756 1.565984 2500647 3
-0.992821 0.366468 1.565984 3092784 3
0.825639 0.219191 1.186352 3749690 3
0.832504 0.215920 1.168645 3091760 3
0.845118 0.238670 1.186352 2960176 3
0.827006 0.228293 1.134771 2894383 3
0.833557 0.225032 1.118560 2959921 3
0.851692 0.254296 1.168645 3157300 3
0.845637 0.246925 1.134771 3354679 3
0.851923 0.243397 1.118560 2894641 3
0.883637 0.277490 1.185764 3026229 3
0.872331 0.268034 1.145357 2828848 3
0.883637 0.296959 1.185764 3420985 3
0.872331 0.286839 1.145357 3092533 3
0.858171 0.233332 1.262890 3157812 3
0.803737 0.250035 1.242845 3947328 3
0.824143 0.250035 1.242845 3487031 3
0.844549 0.250035 1.242845 3223859 3
0.838341 0.242342 1.204603 3289141 3
0.824143 0.270441 1.242845 3618617 3
0.858171 0.274803 1.262890 3223859 3
0.878906 0.274803 1.262890 3486520 3
0.871528 0.266216 1.223425 3881278 3
0.811266 0.286303 1.223425 4013373 3
0.849790 0.292653 1.250558 3881789 3
0.878906 0.295539 1.262890 3552313 3
0.880314 0.289189 1.235758 3288886 3
0.891615 0.286303 1.223425 2763055 3
0.610391 0.226041 1.223425 4078404 3
0.630479 0.226041 1.223425 4604232 3
0.650566 0.226041 1.223425 4473160 3
0.670654 0.226041 1.223425 3092022 3
0.690741 0.226041 1.223425 3157304 3
0.601001 0.242342 1.204603 3881538 3
0.256756 0.307800 1.665941 4013375 3
0.278190 0.301388 1.631234 4605512 3
0.224624 0.328171 1.631234 5394262 3
0.251407 0.328171 1.631234 5263188 3
0.278190 0.328171 1.631234 4934223 3
0.054792 0.258332 1.398200 4605259 3
0.077749 0.258332 1.398200 4671564 3
0.098079 0.251593 1.361725 4802891 3
0.054792 0.281289 1.398200 5854813 3
0.077749 0.281289 1.398200 5592153 3
-0.044128 0.307800 1.665941 5262929 3
-0.016425 0.301388 1.631234 4802376 3
-0.096775 0.328171 1.631234 5986650 3
-0.071481 0.335153 1.665941 6184029 3
-0.044128 0.335153 1.665941 5065550 3
-0.016775 0.335153 1.665941 5394515 3
-0.069992 0.354954 1.631234 5197134 3
-0.370634 0.202330 1.095094 3817021 3
-0.350205 0.200925 1.087489 3552822 3
-0.398240 0.215784 1.072592 5132113 3
-0.378040 0.214316 1.065295 3882814 3
-0.360549 0.214316 1.065295 4080193 3
-0.343058 0.214316 1.065295 4737098 3
-0.321196 0.211439 1.050996 4473924 3
-0.303940 0.211439 1.050996 4671814 3
-0.390222 0.228695 1.050996 4802889 3
-0.370479 0.227171 1.043989 5066574 3
-0.353338 0.227171 1.043989 5658709 3
-0.336196 0.227171 1.043989 4473411 3
-0.319055 0.227171 1.043989 6052956 3
-0.397815 0.240119 1.026072 5196366 3
-0.387815 0.244435 1.044514 5460819 3
-0.371103 0.244723 1.045747 6119260 3
-0.350998 0.242694 1.037076 6316126 3
-0.333970 0.242694 1.037076 5591378 3
-0.316942 0.242694 1.037076 5263181 3
-0.377257 0.254463 1.016079 5526353 3
-0.365162 0.257701 1.029006 5131595 3
-0.341940 0.253019 1.010312 5789525 3
-0.326804 0.254149 1.014823 6776420 3
-0.313579 0.256966 1.026072 6908263 3
0.710829 0.205953 1.223425 2697262 3
0.710829 0.226041 1.223425 3946816 3
0.751003 0.246128 1.223425 3289399 3
0.783330 0.250035 1.242845 2499883 3
0.759228 0.262120 1.204603 4013124 3
0.791178 0.266216 1.223425 3881535 3
0.780108 0.282297 1.206306 4078657 3
0.731582 0.152505 1.003836 3223093 3
0.733918 0.173434 1.030253 2368296 3
0.731582 0.168987 1.003836 3749692 3
0.750834 0.190350 1.030253 3156785 3
0.767750 0.190350 1.030253 2499370 3
0.784666 0.190350 1.030253 3354679 3
0.215826 0.270351 1.779528 4210503 3
0.245044 0.270351 1.779528 3882049 3
0.268168 0.264343 1.739982 4144707 3
0.296736 0.264343 1.739982 4078914 3
0.206442 0.286544 1.702157 3486780 3
0.239599 0.292912 1.739982 4079428 3
0.268168 0.292912 1.739982 4473672 3
0.290286 0.286544 1.702157 4144707 3
-0.972688 0.239655 1.423622 2565937 3
-0.902565 0.239655 1.423622 2434600 3
-0.990701 0.267900 1.449985 2894900 3
-0.966893 0.267900 1.449985 2500910 3
-0.943086 0.267900 1.449985 2303786 3
-0.902565 0.263029 1.423622 2961198 3
-0.912367 0.272955 1.477344 3487027 3
-0.996062 0.286404 1.423622 2828850 3
-0.972688 0.286404 1.423622 2697775 3
-0.966893 0.291708 1.449985 2172200 3
-1.170503 0.295237 1.597943 2566188 3
0.805641 0.129388 0.954868 1841953 3
0.811423 0.127829 0.943364 2434351 3
0.826913 0.127829 0.943364 2565937 3
0.852675 0.129388 0.954868 2105127 3
0.807456 0.139946 0.921167 1907494 3
0.822581 0.139946 0.921167 2170405 3
0.868353 0.145066 0.954868 1973281 3
0.819961 0.183122 0.991129 2105125 3
0.805641 0.176422 0.954868 2236710 3
0.811423 0.174297 0.943364 2236200 3
0.807456 0.170195 0.921167 2828337 3
0.819961 0.199395 0.991129 2960434 3
0.836235 0.199395 0.991129 3157812 3
0.852508 0.199395 0.991129 2433577 3
0.755850 0.126307 0.932133 1841440 3
0.789963 0.129388 0.954868 1644061 3
0.720358 0.146857 0.966657 2762542 3
0.709935 0.141612 0.932133 2367784 3
0.725240 0.141612 0.932133 2236198 3
0.740545 0.141612 0.932133 2630956 3
0.774285 0.145066 0.954868 2170405 3
0.780445 0.143318 0.943364 2697262 3
0.795934 0.143318 0.943364 2105125 3
0.792331 0.139946 0.921167 1841701 3
0.729362 0.164763 0.978740 2697004 3
0.745432 0.164763 0.978740 2433832 3
0.761502 0.164763 0.978740 2697004 3
0.777572 0.164763 0.978740 1907745 3
0.793642 0.164763 0.978740 1710366 3
0.789963 0.160744 0.954868 1776159 3
0.795934 0.158807 0.943364 1644573 3
0.792331 0.155071 0.921167 2170407 3
0.798067 0.153268 0.910456 2696751 3
0.033637 0.200185 1.477344 3552824 3
0.009123 0.218265 1.436683 4341827 3
0.033014 0.220286 1.449985 4341827 3
0.056822 0.220286 1.449985 4210243 3
0.079163 0.216280 1.423622 4407622 3
0.009123 0.241854 1.436683 4999241 3
0.033014 0.244093 1.449985 4473413 3
0.055789 0.239655 1.423622 4933966 3
0.079163 0.239655 1.423622 5065809 3
-0.262953 0.225741 1.665941 3355702 3
-0.235600 0.225741 1.665941 2632233 3
-0.290306 0.253094 1.665941 4012864 3
-0.262953 0.253094 1.665941 3750203 3
-0.235600 0.253094 1.665941 3552822 3
-0.208246 0.253094 1.665941 4079168 3
-0.290306 0.280447 1.665941 4078655 3
-0.262953 0.280447 1.665941 4671303 3
-0.593296 0.216527 1.597943 2763308 3
-0.567060 0.216527 1.597943 3816253 3
-0.519614 0.208036 1.535279 2895151 3
-0.583791 0.228758 1.505754 3289909 3
-0.559068 0.228758 1.505754 3289909 3
-0.544822 0.233244 1.535279 3487542 3
-0.583791 0.253481 1.505754 2697774 3
-0.619533 0.216527 1.597943 2697515 3
-0.696069 0.233244 1.535279 2763565 3
-0.645770 0.242764 1.597943 3223346 3
-0.645653 0.258451 1.535279 3091507 3
-0.620445 0.258451 1.535279 2894383 3
-0.771692 0.208036 1.535279 2697262 3
-0.746484 0.208036 1.535279 2434343 3
-0.721276 0.208036 1.535279 2894383 3
-0.771692 0.233244 1.535279 2171430 3
-0.746484 0.233244 1.535279 2434343 3
-0.721276 0.233244 1.535279 2105124 3
-0.796900 0.258451 1.535279 2961716 3
-0.815341 0.200185 1.477344 2499621 3
-0.879190 0.216280 1.423622 2631979 3
-0.888111 0.272955 1.477344 3224116 3
-0.863854 0.272955 1.477344 2894892 3
-0.888111 0.297212 1.477344 2763565 3
-0.800242 0.291708 1.449985 3158066 3
-0.898963 0.214340 1.581802 2434341 3
-0.838550 0.212197 1.565984 2697261 3
-0.812838 0.212197 1.565984 2697521 3
-0.898963 0.240312 1.581802 3421234 3
-0.847315 0.233244 1.535279 3157805 3
-0.838550 0.237908 1.565984 3092273 3
-0.812838 0.237908 1.565984 2039845 3
-0.880467 0.253481 1.505754 2632233 3
-0.855744 0.253481 1.505754 2697511 3
-0.847315 0.258451 1.535279 3157551 3
-0.822107 0.258451 1.535279 2170917 3
-0.855744 0.278204 1.505754 3158064 3
-0.847315 0.283659 1.535279 3881789 3
-0.822107 0.283659 1.535279 3947328 3
-1.014508 0.244093 1.449985 2631730 3
-1.014508 0.267900 1.449985 1578529 3
0.634038 0.246447 0.869991 4013122 3
0.683580 0.243738 0.860431 3158840 3
0.697707 0.243738 0.860431 2895668 3
0.665331 0.250982 0.837461 3356221 3
0.697707 0.257866 0.860431 3422014 3
0.654505 0.260424 0.823833 3356223 3
0.654505 0.273951 0.823833 3750209 3
0.644612 0.289107 0.828503 4144707 3
-1.098988 0.241132 1.779528 2763565 3
-1.034502 0.233183 1.720862 2566956 3
-1.034502 0.261438 1.720862 2895405 3
-0.727955 0.171035 1.665941 2960685 3
-0.793139 0.194255 1.631234 2631468 3
-0.766356 0.194255 1.631234 2302244 3
-0.739573 0.194255 1.631234 2499882 3
-0.727955 0.198388 1.665941 2631722 3
-0.700602 0.198388 1.665941 2434082 3
-0.284258 0.140688 1.631234 2368296 3
-0.257475 0.167472 1.631234 2236964 3
-0.230691 0.167472 1.631234 2434343 3
-0.203908 0.167472 1.631234 2499882 3
-0.262953 0.198388 1.665941 2829360 3
-0.235600 0.198388 1.665941 2960944 3
-0.848777 0.176830 1.304987 2302246 3
-0.827351 0.176830 1.304987 2763054 3
-0.427159 0.135061 1.565984 1841953 3
-0.452871 0.160773 1.565984 2039591 3
-0.418783 0.157620 1.535279 2434603 3
-0.469199 0.182828 1.535279 2565675 3
-0.443991 0.182828 1.535279 2763055 3
-0.039065 0.078524 0.910456 2434090 3
0.316550 0.237049 0.595290 6447973 3
0.325165 0.236207 0.593176 6316389 3
0.313599 0.237198 0.572075 6118497 3
0.303826 0.254129 0.589565 7566197 3
0.305115 0.247328 0.573786 7434357 3
0.308378 0.242485 0.562551 6513255 3
0.303047 0.263133 0.588053 7237232 3
0.304828 0.256507 0.573245 7762810 3
0.308729 0.252008 0.563191 7829115 3
0.314359 0.232473 0.699100 6710377 3
0.325838 0.232473 0.699100 6052192 3
0.337317 0.232473 0.699100 6315619 3
0.305248 0.236880 0.678836 6512998 3
0.314100 0.235163 0.673915 6709608 3
0.322390 0.233156 0.668164 6578019 3
0.332468 0.232533 0.666376 6381410 3
0.359507 0.243432 0.697613 6710377 3
0.300925 0.244514 0.669224 7236721 3
0.310096 0.243090 0.665325 6183263 3
0.316016 0.239301 0.654955 6380640 3
0.317602 0.232587 0.636579 6446687 3
0.329480 0.233598 0.639347 6249826 3
0.308170 0.243846 0.638694 6643812 3
0.315041 0.241079 0.631445 6447201 3
0.321241 0.237992 0.623359 6842472 3
0.321418 0.230770 0.604444 5658200 3
0.301032 0.248441 0.623898 7170926 3
0.311198 0.248379 0.623743 6644580 3
0.314751 0.243212 0.610766 6447714 3
0.342100 0.241282 0.605920 5921119 3
0.302765 0.251613 0.606841 6645093 3
0.290450 0.243154 0.696815 7630707 3
0.297416 0.239550 0.686487 7565684 3
0.206049 0.249375 0.682527 7171437 3
0.214858 0.246622 0.674993 7500402 3
0.225940 0.246622 0.674993 7171437 3
0.239882 0.249597 0.683135 7303023 3
0.253995 0.252476 0.691014 7105642 3
0.266070 0.253170 0.692913 7434607 3
0.274129 0.250143 0.684628 7565168 3
0.280465 0.245843 0.672861 6841191 3
0.289937 0.244514 0.669224 6973547 3
0.292185 0.248081 0.649786 7171439 3
0.299454 0.245296 0.642492 7104363 3
0.285449 0.252785 0.634807 7368818 3
0.295202 0.252213 0.633370 7894649 3
0.273570 0.261814 0.631445 7434609 3
0.282376 0.260374 0.627972 6711399 3
0.290937 0.258817 0.624217 6974058 3
0.297331 0.255505 0.616228 6710886 3
0.289712 0.267933 0.621589 7106157 3
0.292731 0.261514 0.606696 7237743 3
0.290433 0.278832 0.623137 7435122 3
0.291961 0.270760 0.605098 6842985 3
-0.164784 0.090041 1.043989 2434089 3