# .PCD v0.7 - Point Cloud Data file format
VERSION 0.7
FIELDS x y z rgb label
SIZE 4 4 4 4 4
TYPE F F F U U
COUNT 1 1 1 1 1
WIDTH 1253
HEIGHT 1
VIEWPOINT 0 0 0 1 0 0 0
POINTS 1253
DATA ascii
0.358894 0.261614 0.584658 7039342 3
0.370096 0.262751 0.587200 5066063 3
0.380543 0.263309 0.588446 4934475 3
0.367256 0.270302 0.582694 7434611 3
0.375252 0.269175 0.580265 6777192 3
0.101593 0.266562 0.595716 8814981 3
0.110926 0.275230 0.593317 9012362 3
0.121824 0.277868 0.599004 9407118 3
0.110507 0.283896 0.591077 8551812 3
0.120954 0.285649 0.594726 7959672 3
0.130905 0.286056 0.595573 8486018 3
0.141697 0.288115 0.599862 8617604 3
-0.145618 0.200510 0.503532 8752261 3
-0.137989 0.201444 0.505875 7897722 3
-0.130340 0.202463 0.508436 8159870 3
-0.121720 0.202013 0.507305 8685187 3
-0.113276 0.201808 0.506791 9868948 3
-0.104913 0.201727 0.506587 9276811 3
0.509697 0.277478 0.669224 4605259 3
0.520547 0.277404 0.669046 4342086 3
0.527730 0.275420 0.664260 4670790 3
0.535792 0.273966 0.660753 4407870 3
0.546641 0.273966 0.660753 4671041 3
0.559114 0.274764 0.662678 4144698 3
0.573843 0.276619 0.667152 4933962 3
0.506624 0.280676 0.651151 6382182 3
0.511720 0.277641 0.644109 5263953 3
0.518297 0.275515 0.639177 4606023 3
0.528657 0.275445 0.639015 4868680 3
0.537094 0.274395 0.636579 3882039 3
0.549301 0.275274 0.638619 3947832 3
0.505738 0.284847 0.636579 5066320 3
0.514753 0.284054 0.634807 5000527 3
0.400252 0.244780 0.669951 4277826 3
0.421061 0.250619 0.685931 4079425 3
0.403483 0.257845 0.675360 5067342 3
0.420703 0.261658 0.685349 4540230 3
0.436604 0.264474 0.692723 5197138 3
0.446127 0.263381 0.689861 7169645 3
0.454707 0.261800 0.685719 6643812 3
0.403264 0.268788 0.674993 5921883 3
0.416824 0.270394 0.679028 5921370 3
0.431717 0.272760 0.684969 4407622 3
0.443692 0.273208 0.686095 4538436 3
0.446274 0.267994 0.673002 6578273 3
0.458062 0.268427 0.674088 4210239 3
0.471158 0.269588 0.677002 4013375 3
0.481364 0.269079 0.675725 6052958 3
0.490349 0.267926 0.672830 5131856 3
0.417300 0.267552 0.645284 4868171 3
0.436426 0.272887 0.658150 4276545 3
0.451628 0.275569 0.664619 5789784 3
0.464012 0.276446 0.666734 5921372 3
0.478525 0.278521 0.671739 4473926 3
0.485776 0.276371 0.666554 5329746 3
0.498709 0.277478 0.669224 4539978 3
0.400499 0.266949 0.619305 5131854 3
0.426381 0.277163 0.643002 5856090 3
0.450190 0.285569 0.662503 4869195 3
0.460094 0.284966 0.661104 4605512 3
0.474208 0.286938 0.665679 5592407 3
0.477643 0.282506 0.655396 4540230 3
0.490328 0.283618 0.657977 5724250 3
0.499689 0.282802 0.656084 5987424 3
0.486813 0.286009 0.639177 3947839 3
0.497181 0.285937 0.639015 5132113 3
0.210115 0.254295 0.695993 8486784 3
0.221729 0.254510 0.696581 8026233 3
0.205269 0.259594 0.679942 7236719 3
0.216785 0.260017 0.681049 6644841 3
0.230480 0.262883 0.688555 8421506 3
0.245626 0.267059 0.699494 6579300 3
0.288824 0.264547 0.692913 8354949 3
0.297497 0.262164 0.686673 10065828 3
0.202900 0.267634 0.672096 7828856 3
0.213993 0.267706 0.672277 7171185 3
0.226737 0.269735 0.677372 6710888 3
0.240194 0.272383 0.684023 6381921 3
0.252459 0.273503 0.686835 6841961 3
0.264535 0.274331 0.688915 7105133 3
0.276149 0.274633 0.689672 6381410 3
0.286290 0.273503 0.686835 5723227 3
0.295788 0.271868 0.682729 8487048 3
0.210381 0.274038 0.660928 8223614 3
0.222880 0.276080 0.665851 7303023 3
0.236069 0.278744 0.672277 6052956 3
0.249589 0.281543 0.679028 5657687 3
0.261442 0.282304 0.680863 6776168 3
0.271810 0.281464 0.678836 6381923 3
0.282572 0.281082 0.677915 6447716 3
0.291114 0.278604 0.671940 7303025 3
0.205238 0.277926 0.644772 8026233 3
0.218241 0.281038 0.651990 7368816 3
0.231048 0.283618 0.657977 7303023 3
0.246218 0.288740 0.669858 7434098 3
0.260311 0.292213 0.677915 7499891 3
0.269839 0.290488 0.673915 5855325 3
0.203509 0.286083 0.639341 7039849 3
0.215492 0.288069 0.643779 6710886 3
0.227229 0.289555 0.647101 7237232 3
0.242274 0.294936 0.659127 5592407 3
0.264467 0.295549 0.660496 6513509 3
0.200290 0.291889 0.629228 6579300 3
0.212812 0.294925 0.635773 6974060 3
0.223534 0.295299 0.636579 6842474 3
0.233868 0.295150 0.636258 7566197 3
0.242467 0.292917 0.631445 6250337 3
0.067923 0.204620 0.560036 9604749 3
0.077481 0.205584 0.562673 9341318 3
0.003382 0.203359 0.532648 8683395 3
0.067923 0.213816 0.560036 10000277 3
0.077499 0.214871 0.562800 9998994 3
0.088039 0.218090 0.571232 9998996 3
0.003337 0.209257 0.525498 11117479 3
0.011937 0.208776 0.524290 10130582 3
0.020524 0.208558 0.523741 9670542 3
0.029222 0.209262 0.525509 9144196 3
0.038677 0.213834 0.536991 9538954 3
0.048178 0.216915 0.544727 9934484 3
0.057658 0.218948 0.549834 9605776 3
0.067879 0.222866 0.559672 9276300 3
0.078060 0.225734 0.566874 10196375 3
0.088236 0.227979 0.572514 11314856 3
0.003326 0.217157 0.523741 11906995 3
0.011870 0.216165 0.521348 12235958 3
0.020388 0.215714 0.520261 13222083 3
0.029015 0.216345 0.521782 11445670 3
0.038073 0.219173 0.528604 9735824 3
0.047486 0.222614 0.536903 9867410 3
0.056312 0.222654 0.536999 8486270 3
0.067432 0.230529 0.555992 8947337 3
0.078434 0.236168 0.569593 8946567 3
0.088538 0.238191 0.574472 9670290 3
0.067172 0.238733 0.553847 9342097 3
0.077709 0.243251 0.564328 9933462 3
0.088258 0.246841 0.572657 8288637 3
0.086835 0.252110 0.563419 9999255 3
0.337317 0.243952 0.699100 7763065 3
0.348893 0.244020 0.699296 6513255 3
0.301891 0.254595 0.696815 10065315 3
0.311492 0.253100 0.692723 7697278 3
0.320475 0.251226 0.687593 6709608 3
0.329952 0.249853 0.683836 7894651 3
0.341179 0.249853 0.683836 7105392 3
0.353470 0.250606 0.685898 6382182 3
0.365432 0.251088 0.687215 5789786 3
0.395169 0.248501 0.680135 4409158 3
0.307496 0.261081 0.683836 8223876 3
0.318637 0.261010 0.683650 7499893 3
0.328428 0.259875 0.680678 6776168 3
0.338317 0.258891 0.678099 8552579 3
0.351929 0.260726 0.682907 7631990 3
0.364143 0.261445 0.684790 6053215 3
0.383231 0.266909 0.699100 6119008 3
0.391987 0.265068 0.694279 6118751 3
0.394848 0.259457 0.679583 5723993 3
0.306159 0.271125 0.680863 6184290 3
0.317252 0.271051 0.680678 7434098 3
0.327095 0.269951 0.677915 7170926 3
0.338317 0.270025 0.678099 7829369 3
0.351929 0.271939 0.682907 7368818 3
0.369216 0.276488 0.694330 6974571 3
0.380899 0.276693 0.694847 6974317 3
0.386539 0.272624 0.684628 6513509 3
0.393247 0.269518 0.676827 6052704 3
0.300925 0.277478 0.669224 6973545 3
0.311913 0.277478 0.669224 7828854 3
0.324815 0.279123 0.673190 6908265 3
0.337137 0.280177 0.675733 6842472 3
0.353953 0.284780 0.686835 6842985 3
0.363047 0.283078 0.682729 6448227 3
0.371021 0.280631 0.676827 7237743 3
0.374493 0.275020 0.663294 6579302 3
0.357682 0.281255 0.652493 6645606 3
0.388581 0.265752 0.616529 5394767 3
-0.073661 0.205628 0.589274 10525342 3
-0.068927 0.201466 0.551403 10853537 3
-0.059873 0.201466 0.551403 9931924 3
-0.050820 0.201466 0.551403 9997202 3
-0.041665 0.200980 0.550073 9405830 3
-0.032520 0.200276 0.548147 9998224 3
-0.023494 0.200057 0.547547 10065300 3
-0.014504 0.200057 0.547547 8355452 3
-0.005516 0.200145 0.547788 8750210 3
-0.077435 0.209047 0.547547 12367544 3
-0.068118 0.208049 0.544933 11445674 3
-0.059094 0.207778 0.544223 12103350 3
-0.050820 0.210519 0.551403 11840432 3
-0.041565 0.209507 0.548752 9603466 3
-0.032406 0.208547 0.546235 9407370 3
-0.023186 0.206306 0.540368 9539472 3
-0.014206 0.204752 0.536296 9145227 3
-0.005386 0.204228 0.534924 9867923 3
-0.096013 0.200510 0.503532 9343117 3
-0.089134 0.203685 0.511503 8553599 3
-0.081747 0.206235 0.517907 9474444 3
-0.074332 0.209301 0.525609 10394781 3
-0.066091 0.210539 0.528717 10591135 3
-0.058023 0.212786 0.534360 12564671 3
-0.050180 0.216808 0.544459 11051686 3
-0.041213 0.216666 0.544102 11643049 3
-0.031810 0.213516 0.536193 8683649 3
-0.005297 0.209478 0.526051 10262681 3
-0.074006 0.216976 0.523305 8816775 3
-0.065702 0.217931 0.525609 9342093 3
-0.057422 0.219267 0.528831 9407118 3
-0.049491 0.222651 0.536991 9341068 3
-0.040666 0.222602 0.536872 9801617 3
-0.013966 0.218619 0.527267 8750469 3
-0.005296 0.218069 0.525941 8552063 3
0.130703 0.232473 0.699100 8354430 3
0.142181 0.232473 0.699100 8748931 3
0.115245 0.235809 0.675765 9013130 3
0.126027 0.235224 0.674088 9406859 3
0.137687 0.236240 0.677002 10590363 3
0.149449 0.237266 0.679942 9340296 3
0.160874 0.237652 0.681049 9472652 3
0.175957 0.243039 0.696485 9077896 3
0.121483 0.237412 0.649786 10525340 3
0.133685 0.240167 0.657326 11182500 3
0.146511 0.243547 0.666577 9933203 3
0.158081 0.244514 0.669224 9867412 3
0.169568 0.245236 0.671199 9341068 3
0.182210 0.247438 0.677227 8354684 3
0.198687 0.254295 0.695993 8749442 3
0.108950 0.243907 0.638854 8551550 3
0.118532 0.242055 0.634002 10525340 3
0.129699 0.243476 0.637724 10591131 3
0.142385 0.247323 0.647801 10262166 3
0.155425 0.251208 0.657977 9209478 3
0.166710 0.251937 0.659885 9801617 3
0.178440 0.253207 0.663212 8814720 3
0.193007 0.258126 0.676097 8156792 3
0.105004 0.245182 0.615712 9998996 3
0.116993 0.249187 0.625771 10525340 3
0.128651 0.251895 0.632571 10459547 3
0.140779 0.255051 0.640498 9012101 3
0.153731 0.259157 0.650808 9538445 3
0.164843 0.259828 0.652493 8748929 3
0.176248 0.260853 0.655067 8551550 3
0.191355 0.266922 0.670309 8420477 3
0.102597 0.249441 0.601603 8091258 3
0.115466 0.256075 0.617603 9341325 3
0.127111 0.259141 0.624997 9407372 3
0.139037 0.262281 0.632571 9341579 3
0.150831 0.264751 0.638529 8946821 3
0.162140 0.266106 0.641797 8946821 3
0.172812 0.266313 0.642296 8683649 3
0.186613 0.271040 0.653696 8355198 3
0.199214 0.273606 0.659885 9144714 3
0.102422 0.258876 0.600578 8946567 3
0.114591 0.264197 0.612921 8222844 3
0.126605 0.268332 0.622513 8617602 3
0.138129 0.270887 0.628441 9538704 3
0.149799 0.273353 0.634163 9143946 3
0.160822 0.274395 0.636579 8222844 3
0.171274 0.274395 0.636579 8552577 3
0.181772 0.274465 0.636741 8289918 3
0.193556 0.276362 0.641143 7763061 3
0.112553 0.269383 0.602020 8749190 3
0.125303 0.275687 0.616109 8419966 3
0.137407 0.279735 0.625156 8617343 3
0.149157 0.282550 0.631445 8946310 3
0.159969 0.283336 0.633203 9341068 3
0.170581 0.283693 0.634002 8947337 3
0.180990 0.283693 0.634002 8289918 3
0.191498 0.283838 0.634325 8158330 3
0.134226 0.283287 0.610684 8222844 3
0.146282 0.287271 0.619274 8091258 3
0.158092 0.290285 0.625771 8814983 3
0.169211 0.291741 0.628909 8355200 3
0.179043 0.290939 0.627180 8750469 3
0.189151 0.290647 0.626551 7566193 3
0.154845 0.294388 0.612921 9538707 3
0.166990 0.298102 0.620655 8092030 3
0.177399 0.298471 0.621422 8289920 3
0.187696 0.298620 0.621733 8092539 3
0.470693 0.261988 0.787858 4541259 3
0.472676 0.256054 0.770014 4474700 3
0.480592 0.253561 0.762516 4473673 3
0.414870 0.272246 0.780185 6579559 3
0.442489 0.258450 0.740649 4607050 3
0.443532 0.252130 0.722537 4276806 3
0.452751 0.250666 0.718341 3946816 3
0.403119 0.260873 0.713996 5263699 3
0.442599 0.256575 0.702235 7170928 3
0.455536 0.257370 0.704410 8353919 3
0.421725 0.267202 0.845276 5000529 3
0.462677 0.283809 0.897811 4738127 3
0.496973 0.255924 0.809596 4079942 3
0.421914 0.272248 0.818712 5198678 3
0.454466 0.284198 0.854648 5198676 3
0.472163 0.286420 0.861332 5001556 3
0.493597 0.290715 0.874247 5330521 3
0.497452 0.284706 0.856177 4805201 3
0.447102 0.284610 0.815617 3882818 3
0.461264 0.285086 0.816980 3817025 3
0.483752 0.290535 0.832597 3817534 3
0.210667 0.247514 0.782992 7105644 3
0.223664 0.247670 0.783486 7763574 3
0.238617 0.249858 0.790407 7237230 3
0.249235 0.247514 0.782992 6645606 3
0.291879 0.251020 0.794082 8618634 3
0.299163 0.246282 0.779097 6775915 3
0.210996 0.245778 0.739111 7170924 3
0.225056 0.247898 0.745486 7631988 3
0.236748 0.247325 0.743764 7303023 3
0.258701 0.257002 0.772865 7171439 3
0.271303 0.256919 0.772614 7236979 3
0.282338 0.255426 0.768126 7433847 3
0.290492 0.251565 0.756514 7565431 3
0.205067 0.250666 0.718341 7763061 3
0.217549 0.251460 0.720617 8552577 3
0.229843 0.251967 0.722071 8026746 3
0.244589 0.254980 0.730705 6710888 3
0.257111 0.255502 0.732200 6315876 3
0.271354 0.257610 0.738240 6907501 3
0.280990 0.255351 0.731768 7368307 3
0.291900 0.254388 0.729009 7499640 3
0.236988 0.258681 0.707997 7171437 3
0.251165 0.261337 0.715266 7631736 3
0.263964 0.262385 0.718136 5986399 3
0.274574 0.261262 0.715061 5986654 3
0.286153 0.261114 0.714657 6644329 3
0.294443 0.258096 0.706396 9012881 3
0.259282 0.269313 0.705398 6184031 3
0.270864 0.269313 0.705398 6381410 3
0.281342 0.268260 0.702641 6644582 3
0.004342 0.216169 0.683836 8420223 3
0.015809 0.219487 0.694330 8814724 3
0.027396 0.220994 0.699100 7630707 3
0.038875 0.220994 0.699100 6907754 3
0.004248 0.222487 0.669069 8157051 3
0.015399 0.224903 0.676336 7301742 3
0.026842 0.227774 0.684969 9999509 3
0.038425 0.229784 0.691014 7105644 3
0.050098 0.231295 0.695557 7040362 3
-0.041248 0.219783 0.695267 9538193 3
-0.029996 0.220994 0.699100 9143946 3
-0.018518 0.220994 0.699100 8289405 3
-0.006991 0.219471 0.694279 7631729 3
-0.077089 0.205072 0.616699 9407890 3
-0.066847 0.204716 0.615628 9143949 3
-0.028962 0.224457 0.674993 8880774 3
-0.017879 0.224457 0.674993 8749956 3
-0.006797 0.224457 0.674993 7697522 3
-0.196376 0.153608 0.485928 7963512 3
-0.198963 0.157323 0.473107 7765106 3
-0.192067 0.158041 0.475266 7962744 3
-0.190955 0.163780 0.492525 7304561 3
-0.190655 0.164625 0.471771 7698292 3
-0.183914 0.165530 0.474365 9738391 3
-0.178015 0.167306 0.479454 9409680 3
-0.176984 0.174033 0.498731 7830648 3
-0.173433 0.178565 0.488725 6317409 3
0.319913 0.239447 0.798972 6643815 3
0.330719 0.237784 0.793423 6512998 3
0.321041 0.222078 0.741016 5723739 3
0.323012 0.215282 0.718341 5592154 3
0.366424 0.235613 0.786179 5328981 3
0.311299 0.245764 0.777458 6315364 3
0.310569 0.235530 0.745082 6973294 3
0.317499 0.231661 0.732842 4933713 3
0.327441 0.230191 0.728192 5197395 3
0.330261 0.223994 0.708590 4802380 3
0.346329 0.226899 0.717779 5263188 3
0.302732 0.251415 0.756062 8025984 3
0.310100 0.247389 0.743957 6512747 3
0.315481 0.242144 0.728184 4209992 3
0.325723 0.240877 0.724372 6644844 3
0.332142 0.236971 0.712625 6052447 3
0.341895 0.235629 0.708590 5986911 3
0.355371 0.236856 0.712281 6513768 3
0.300802 0.251821 0.721652 10986417 3
0.310688 0.250240 0.717121 10328487 3
0.320441 0.248671 0.712625 7170934 3
0.328133 0.245670 0.704025 5986399 3
0.361889 0.245045 0.702235 4474185 3
0.391929 0.261228 0.714968 5592664 3
0.512973 0.279093 0.882891 4673615 3
0.506382 0.267935 0.847594 5067603 3
0.508165 0.279331 0.986079 4738125 3
0.534649 0.268250 0.946959 4211789 3
0.574851 0.280270 0.989391 4606799 3
0.529981 0.298692 0.996658 4935504 3
0.534283 0.292098 0.974653 4606541 3
0.524004 0.278147 0.928104 4409419 3
0.548674 0.283012 0.944337 4870224 3
0.556629 0.279224 0.931699 4015685 3
0.509617 0.285330 0.902622 4935763 3
0.106606 0.219306 0.774183 6907752 3
0.103806 0.225922 0.753843 8026487 3
0.121617 0.236490 0.789104 8157053 3
0.104679 0.240305 0.760186 7697522 3
0.117161 0.240305 0.760186 8092028 3
0.129642 0.240305 0.760186 9407890 3
0.142124 0.240305 0.760186 8880774 3
0.154605 0.240305 0.760186 7367535 3
0.167087 0.240305 0.760186 8026235 3
0.179905 0.240755 0.761612 7105644 3
0.197811 0.247514 0.782992 6842985 3
0.109705 0.236700 0.711811 8157819 3
0.119902 0.233794 0.703072 8289407 3
0.155094 0.234643 0.705625 9078153 3
0.167524 0.235831 0.709200 7959926 3
0.184407 0.242726 0.729934 7631475 3
0.197868 0.244551 0.735421 8355198 3
0.190820 0.247485 0.709227 7828340 3
0.301004 0.228748 0.857198 4277834 3
0.314539 0.228356 0.855729 4014151 3
0.300285 0.242243 0.855151 5790815 3
0.309988 0.238900 0.843349 2829875 3
0.323289 0.238497 0.841927 3684157 3
0.304272 0.248086 0.827798 6316390 3
0.311773 0.243332 0.811935 6052705 3
0.004827 0.202860 0.760186 9341325 3
0.017367 0.203540 0.762736 9276554 3
0.029630 0.201768 0.756095 8947587 3
0.066608 0.200970 0.753104 6908263 3
0.079596 0.202554 0.759039 6579300 3
0.004662 0.207961 0.734130 9078153 3
0.016849 0.209622 0.739995 7696754 3
0.029084 0.210239 0.742173 7236717 3
0.041136 0.209557 0.739766 7170926 3
0.053425 0.210118 0.741748 6644580 3
0.066608 0.213335 0.753104 6447712 3
0.079331 0.214301 0.756514 7895158 3
0.092995 0.217204 0.766762 7170924 3
0.004563 0.215344 0.718548 7959415 3
0.016541 0.217721 0.726480 9736085 3
0.028685 0.219371 0.731983 8814983 3
0.040882 0.220336 0.735204 8551809 3
0.053173 0.221249 0.738251 10065816 3
0.066289 0.224620 0.749500 8289916 3
0.078950 0.225633 0.752877 7697779 3
0.092230 0.227903 0.760452 7763315 3
0.052034 0.228370 0.722431 6579811 3
0.065994 0.235869 0.746155 7500911 3
0.078950 0.237994 0.752877 7632497 3
0.091921 0.239583 0.757902 7763826 3
0.065025 0.244479 0.735204 7896439 3
0.074947 0.237665 0.714713 6777188 3
0.085553 0.234567 0.705398 8026485 3
0.097742 0.236033 0.709807 7762545 3
-0.044851 0.201746 0.756013 7302771 3
-0.032907 0.204663 0.766944 7434611 3
-0.020528 0.206813 0.775001 7237743 3
-0.007761 0.205671 0.770719 7237232 3
-0.054678 0.204485 0.721861 6974320 3
-0.043149 0.206029 0.727311 8947596 3
-0.031353 0.206990 0.730705 7631990 3
-0.019383 0.207291 0.731768 7566195 3
-0.007368 0.207291 0.731768 6973547 3
-0.042422 0.214299 0.715061 7828088 3
-0.030681 0.214299 0.715061 7170926 3
-0.018941 0.214299 0.715061 6513507 3
-0.007223 0.214975 0.717316 7894649 3
0.483211 0.269121 1.074607 3815742 3
0.489487 0.263013 1.050215 3749437 3
0.484705 0.277519 1.039957 3223093 3
0.487675 0.269717 1.010722 4539465 3
0.476470 0.289589 1.022289 4276294 3
0.484352 0.284361 1.003836 4671051 3
0.205650 0.218031 0.870602 4870224 3
0.222260 0.220326 0.879766 5396055 3
0.236622 0.220249 0.879459 6316130 3
0.249746 0.219095 0.874852 4606539 3
0.264392 0.219328 0.875784 4935763 3
0.283222 0.222830 0.889764 5067352 3
0.297831 0.222830 0.889764 5001557 3
0.211634 0.223547 0.837706 5922912 3
0.227366 0.225508 0.845056 5000781 3
0.243462 0.227585 0.852838 5461848 3
0.259403 0.229298 0.859259 4804177 3
0.275493 0.230960 0.865485 5395802 3
0.291012 0.232003 0.869394 5922659 3
0.209324 0.234711 0.828563 5725531 3
0.224567 0.236437 0.834655 6514020 3
0.241742 0.239880 0.846812 5198674 3
0.257899 0.241995 0.854276 5198676 3
0.272481 0.242490 0.856023 5263699 3
0.287914 0.243655 0.860137 5724252 3
0.203864 0.241838 0.806950 6119258 3
0.216069 0.240675 0.803069 6448227 3
0.232027 0.243585 0.812780 6317155 3
0.253326 0.251481 0.839128 6448741 3
0.269082 0.253344 0.845343 5789782 3
0.284785 0.254977 0.850791 6118751 3
0.296042 0.252662 0.843068 6513768 3
0.274617 0.259344 0.820415 6974060 3
0.290588 0.261594 0.827533 7302772 3
0.104859 0.216523 0.864583 5131343 3
0.121774 0.221470 0.884333 6380640 3
0.137001 0.222618 0.888921 5525333 3
0.153484 0.225391 0.899991 5394775 3
0.194272 0.221353 0.883869 5988705 3
0.117195 0.227115 0.851078 7697270 3
0.131169 0.227115 0.851078 9538707 3
0.145143 0.227115 0.851078 8881291 3
0.159117 0.227115 0.851078 5330262 3
0.173091 0.227115 0.851078 5461848 3
0.185620 0.225361 0.844505 6317670 3
0.197813 0.223472 0.837425 5660510 3
0.125704 0.231044 0.815617 6906986 3
0.139280 0.231351 0.816701 8157570 3
0.155783 0.236038 0.833249 5658200 3
0.170314 0.237221 0.837425 5132113 3
0.184002 0.237142 0.837146 4409160 3
0.196045 0.235101 0.829940 5396566 3
0.137661 0.241915 0.807208 7959421 3
0.150964 0.241994 0.807470 6578791 3
0.165182 0.243409 0.812191 6973547 3
0.180924 0.246690 0.823140 7631990 3
0.190675 0.241915 0.807208 6514018 3
0.500810 0.259940 1.037946 3026226 3
0.524585 0.263319 1.051440 3552571 3
0.507134 0.271249 1.016463 2829360 3
0.521296 0.269940 1.011559 3750981 3
0.500243 0.284026 1.002652 3948609 3
0.533798 0.284361 1.003836 4869458 3
0.548602 0.283494 1.000776 4474702 3
0.114414 0.220764 0.943364 6119262 3
0.128318 0.218070 0.931851 6052958 3
0.148393 0.225321 0.962837 5328722 3
0.170394 0.233818 0.999147 4934477 3
0.170983 0.229037 0.914550 5790813 3
0.184319 0.226968 0.906287 6119776 3
-0.199594 0.138007 0.589730 9211272 3
-0.198880 0.134146 0.535649 7962994 3
-0.195868 0.138228 0.551946 9541263 3
-0.191787 0.141913 0.566664 10000534 3
-0.187001 0.145427 0.580693 9803157 3
-0.182241 0.149339 0.596316 9802898 3
-0.195400 0.140440 0.526277 9673614 3
-0.188261 0.141569 0.530508 9540749 3
-0.182336 0.143766 0.538739 8290170 3
-0.178524 0.147937 0.554370 8553342 3
-0.172253 0.150409 0.563635 9473931 3
-0.171139 0.157920 0.591782 9276551 3
-0.162226 0.158706 0.594726 8817024 3
-0.199393 0.145685 0.514287 8687746 3
-0.193855 0.147902 0.522115 7700340 3
-0.186288 0.148705 0.524949 9145991 3
-0.178266 0.149205 0.526714 9737103 3
-0.171464 0.150828 0.532446 9211272 3
-0.165316 0.153233 0.540935 8553341 3
-0.159899 0.156627 0.552917 9277064 3
-0.157474 0.163536 0.577307 9343370 3
-0.152541 0.168559 0.595038 9014920 3
-0.143960 0.169963 0.599994 9211531 3
-0.196965 0.152252 0.508026 8490369 3
-0.190245 0.153561 0.512392 9674132 3
-0.183524 0.154990 0.517160 8751233 3
-0.177075 0.156798 0.523195 9868689 3
-0.169085 0.157357 0.525059 8882053 3
-0.161139 0.158019 0.527267 8553088 3
-0.152514 0.158052 0.527379 9079432 3
-0.144867 0.159164 0.531088 7435890 3
-0.139904 0.163556 0.545744 7698808 3
-0.141388 0.176602 0.589274 7961466 3
-0.194636 0.158695 0.502019 8095101 3
-0.187370 0.159526 0.504649 5923932 3
-0.180543 0.160825 0.508759 8225917 3
-0.174166 0.162671 0.514599 8750721 3
-0.167093 0.164023 0.518874 9408397 3
-0.160095 0.165596 0.523850 9211020 3
-0.151970 0.166117 0.525498 8618883 3
-0.143372 0.166152 0.525609 8487297 3
-0.135167 0.166676 0.527267 8882053 3
-0.127725 0.168276 0.532331 9672084 3
-0.186397 0.166940 0.502028 7699319 3
-0.179884 0.168562 0.506904 9014920 3
-0.172853 0.169831 0.510721 9211272 3
-0.165651 0.171053 0.514395 8947846 3
-0.159031 0.173039 0.520369 7895158 3
-0.151304 0.173979 0.523195 8158843 3
-0.143192 0.174562 0.524949 8158843 3
-0.135026 0.175149 0.526714 10526878 3
-0.126804 0.175740 0.528492 11119530 3
-0.118804 0.176748 0.531523 8816775 3
-0.172506 0.177859 0.509696 8553342 3
-0.165242 0.179055 0.513125 10197656 3
-0.157948 0.180347 0.516826 7434607 3
-0.150145 0.181171 0.519187 7698292 3
-0.142566 0.182380 0.522653 7699062 3
-0.134573 0.183181 0.524949 10330012 3
-0.126112 0.183412 0.525609 10461600 3
-0.118152 0.184457 0.528604 8026746 3
-0.170318 0.183865 0.503231 7303021 3
-0.163600 0.185617 0.508026 7500141 3
-0.155890 0.186372 0.510093 8553342 3
-0.147846 0.186791 0.511239 8356990 3
-0.140895 0.188723 0.516527 9081226 3
-0.133371 0.190087 0.520261 8883593 3
-0.124855 0.190127 0.520369 8487810 3
-0.116674 0.190721 0.521995 7828854 3
-0.108126 0.190761 0.522104 11052963 3
-0.100016 0.191646 0.524525 8947587 3
-0.162153 0.192243 0.503532 9079686 3
-0.154226 0.192669 0.504649 8619392 3
-0.146087 0.192863 0.505156 8817541 3
-0.138437 0.193764 0.507515 8357503 3
-0.130764 0.194748 0.510093 8225917 3
-0.122116 0.194313 0.508954 8225404 3
-0.113667 0.194155 0.508540 8750467 3
-0.105596 0.194669 0.509886 9474190 3
-0.299569 0.107785 0.460584 7830645 3
-0.293470 0.108325 0.462892 9014920 3
-0.291685 0.110529 0.472309 8948357 3
-0.287071 0.111751 0.477534 9935252 3
-0.286728 0.114752 0.490355 9606289 3
-0.279816 0.115221 0.492361 8554369 3
-0.273894 0.116138 0.496278 7765365 3
-0.296948 0.114338 0.456555 8884100 3
-0.290087 0.114589 0.457557 9212298 3
-0.283610 0.115009 0.459233 8620162 3
-0.276070 0.115009 0.459233 8422013 3
-0.270474 0.115842 0.462559 8948357 3
-0.268621 0.118372 0.472662 7566704 3
-0.261205 0.118528 0.473287 8356220 3
-0.255326 0.119413 0.476820 7304815 3
-0.254012 0.122556 0.489370 8424065 3
-0.299315 0.114160 0.427796 9737362 3
-0.296182 0.115680 0.433491 8620164 3
-0.291285 0.116568 0.436820 9081225 3
-0.288443 0.118345 0.443479 9081479 3
-0.284324 0.119676 0.448467 8093817 3
-0.278606 0.120387 0.451131 8620161 3
-0.269211 0.119505 0.447825 8158841 3
-0.262801 0.119935 0.449436 8356220 3
-0.259615 0.121903 0.456814 7895924 3
-0.254805 0.123204 0.461689 9145991 3
-0.248828 0.124004 0.464684 8357502 3
-0.242688 0.124769 0.467553 7437683 3
-0.235755 0.125164 0.469034 8030329 3
-0.229818 0.126132 0.472662 8293501 3
-0.222351 0.126299 0.473287 6976617 3
-0.216921 0.127677 0.478449 9607821 3
-0.288267 0.122458 0.432295 9344651 3
-0.282240 0.122925 0.433942 7831158 3
-0.276649 0.123610 0.436360 8949126 3
-0.270899 0.124259 0.438651 8094071 3
-0.263790 0.124303 0.438805 7961715 3
-0.259591 0.125759 0.443946 8487806 3
-0.256620 0.127911 0.451545 7566959 3
-0.252295 0.129497 0.457142 6777957 3
-0.245909 0.130089 0.459233 6713445 3
-0.241803 0.131963 0.465850 9280398 3
-0.235755 0.132866 0.469034 8754822 3
-0.229818 0.133893 0.472662 6912615 3
-0.222351 0.134070 0.473287 7701362 3
-0.216296 0.135142 0.477072 8752512 3
-0.274355 0.129690 0.432743 8291450 3
-0.269203 0.130638 0.435905 8686208 3
-0.263052 0.131140 0.437579 9474952 3
-0.257897 0.132180 0.441049 7764338 3
-0.255195 0.134574 0.449038 8817026 3
-0.250556 0.136058 0.453991 8291450 3
-0.243764 0.136429 0.455228 7964023 3
-0.239709 0.138403 0.461815 8359296 3
-0.234440 0.139782 0.466418 6781030 3
-0.229385 0.141387 0.471771 7439213 3
-0.222351 0.141841 0.473287 8030582 3
-0.215802 0.142649 0.475983 9279624 3
-0.209466 0.143663 0.479367 9673103 3
-0.207276 0.147712 0.492876 8488575 3
-0.249022 0.142634 0.451211 7239275 3
-0.241006 0.142275 0.450076 8095098 3
-0.235782 0.143594 0.454248 7898232 3
-0.232456 0.146193 0.462470 7832437 3
-0.229170 0.148993 0.471328 7174761 3
-0.222309 0.149583 0.473197 7964277 3
-0.215148 0.150008 0.474541 7765619 3
-0.207790 0.150322 0.475532 8291450 3
-0.200249 0.150522 0.476165 7568238 3
-0.230458 0.152464 0.458495 7569008 3
-0.227288 0.155445 0.467458 7831410 3
-0.220106 0.155794 0.468508 7502447 3
-0.213210 0.156378 0.470266 7041129 3
-0.205953 0.156732 0.471328 7962485 3
0.509386 0.301554 1.385827 3158066 3
0.506163 0.322256 1.377060 3618876 3
0.526038 0.320590 1.369938 3092020 3
0.537207 0.313971 1.341657 3617336 3
0.547341 0.328853 1.313119 4143421 3
0.256911 0.207778 0.954868 5394774 3
0.264524 0.201631 0.926618 4408392 3
0.210786 0.224424 0.959004 4870224 3
0.234618 0.232435 0.993237 4672845 3
0.241746 0.223931 0.956899 4934736 3
0.249219 0.216765 0.926277 5855838 3
0.262872 0.215491 0.920830 4869713 3
0.279996 0.217044 0.927469 3751232 3
0.213749 0.228695 1.050996 5001297 3
0.232567 0.230241 1.058097 6777708 3
0.258679 0.238291 1.095094 4803918 3
0.262002 0.225666 1.037076 4868941 3
0.209531 0.241097 1.030253 5198674 3
0.109477 0.227171 1.043989 5395287 3
0.124135 0.222716 1.023519 4803148 3
0.149749 0.236636 1.087489 5000781 3
0.163075 0.230241 1.058097 4539717 3
0.178042 0.227171 1.043989 5131856 3
0.195183 0.227171 1.043989 4343367 3
0.191435 0.239620 1.023940 4145988 3
0.030531 0.169530 0.779097 7171950 3
0.043323 0.169530 0.779097 7961466 3
0.030721 0.183455 0.783936 7303534 3
0.042963 0.180805 0.772614 7171948 3
0.055562 0.180526 0.771421 6777190 3
0.068228 0.180526 0.771421 6316641 3
0.004923 0.194148 0.775240 7236719 3
0.017651 0.194148 0.775240 6579041 3
0.030056 0.192080 0.766979 7039590 3
0.041928 0.188833 0.754014 6184540 3
0.054423 0.189232 0.755607 8552831 3
0.067255 0.190437 0.760418 6316126 3
0.080923 0.193261 0.771694 5723991 3
0.041393 0.198645 0.744392 8223612 3
0.053663 0.198821 0.745050 7302764 3
-0.085020 0.170378 0.782992 6908776 3
-0.073637 0.173855 0.798972 7961464 3
-0.068316 0.173465 0.741247 8422017 3
-0.059107 0.182613 0.780339 8092798 3
-0.065535 0.178078 0.711070 7567222 3
-0.055772 0.184399 0.736308 6580331 3
-0.045749 0.193123 0.771146 6842220 3
-0.033617 0.196214 0.783486 7697783 3
-0.020956 0.198134 0.791152 8158334 3
-0.007992 0.198768 0.793686 8224127 3
-0.065160 0.188666 0.706995 6843503 3
-0.055461 0.195392 0.732200 7369847 3
-0.316555 0.100815 0.463309 7435122 3
-0.311715 0.101718 0.467458 6054235 3
-0.304040 0.101718 0.467458 8225404 3
-0.311772 0.106784 0.456308 6842983 3
-0.306286 0.107488 0.459317 6448993 3
-0.340229 0.102532 0.409411 7171435 3
-0.335753 0.103222 0.412169 7698292 3
-0.329799 0.103478 0.413188 7369329 3
-0.323603 0.103666 0.413940 7500915 3
-0.317120 0.103769 0.414350 7764085 3
-0.311089 0.104027 0.415380 8553088 3
-0.305384 0.104408 0.416903 9277065 3
-0.301668 0.105502 0.421273 8552829 3
-0.303253 0.108545 0.433425 8684676 3
-0.302689 0.110947 0.443014 9804184 3
-0.302517 0.113614 0.453664 9212812 3
-0.328932 0.109972 0.412101 8685187 3
-0.322750 0.110171 0.412849 8027259 3
-0.316859 0.110481 0.414009 10330012 3
-0.311089 0.110847 0.415380 9539983 3
-0.304825 0.111049 0.416140 8750721 3
-0.300196 0.111870 0.419217 8882053 3
0.557158 0.240492 1.195408 1908007 3
0.568112 0.236875 1.177432 3749949 3
0.587444 0.236875 1.177432 3289652 3
0.533458 0.258149 1.186352 2566189 3
0.544684 0.254296 1.168645 2565678 3
0.555580 0.250556 1.151459 2631722 3
0.574486 0.250556 1.151459 5460568 3
0.502975 0.261763 1.118560 3289912 3
0.518799 0.260487 1.113106 3552571 3
0.536118 0.260022 1.111123 4078655 3
0.558323 0.261881 1.119063 4342087 3
0.005434 0.172155 0.855729 6514534 3
0.005346 0.183202 0.841927 6842985 3
0.018966 0.181253 0.832970 7961466 3
0.005141 0.189455 0.809577 7435120 3
0.018285 0.187932 0.803069 7303534 3
0.085480 0.190761 0.815156 5724250 3
-0.097698 0.124523 0.618966 7895673 3
-0.097698 0.134686 0.618966 7105133 3
-0.082249 0.143175 0.657977 7567474 3
-0.097698 0.144849 0.618966 8486533 3
-0.088037 0.145679 0.622513 8618372 3
-0.078301 0.146587 0.626394 7435120 3
-0.070374 0.151669 0.648107 8750978 3
-0.097698 0.155012 0.618966 13221321 3
-0.088037 0.155900 0.622513 10986152 3
-0.078301 0.156872 0.626394 7763572 3
-0.068401 0.157760 0.629940 7829878 3
-0.096932 0.163879 0.614111 11641776 3
-0.087386 0.164894 0.617913 8946056 3
-0.078301 0.167157 0.626394 7764087 3
-0.068364 0.168012 0.629597 7698808 3
-0.096553 0.173283 0.611713 12891329 3
-0.087065 0.174395 0.615641 9998998 3
-0.078320 0.177486 0.626551 7895673 3
-0.068289 0.178154 0.628909 8684937 3
-0.062903 0.193338 0.682511 7237492 3
-0.095435 0.181203 0.604627 13549257 3
-0.086282 0.182845 0.610105 9800849 3
-0.077912 0.186793 0.623280 7631988 3
-0.068016 0.187726 0.626394 9737112 3
-0.095068 0.190395 0.602302 11707823 3
-0.085947 0.192114 0.607737 9142917 3
-0.077603 0.196246 0.620809 8421506 3
-0.067745 0.197222 0.623898 6973294 3
-0.328559 0.101627 0.505156 8685185 3
-0.322344 0.102287 0.508436 8750980 3
-0.315019 0.102620 0.510093 8224123 3
-0.306644 0.102620 0.510093 7763572 3
-0.301212 0.103633 0.515126 9539983 3
-0.310968 0.109568 0.503532 9014152 3
-0.302700 0.109568 0.503532 9079432 3
0.213704 0.211191 1.143054 5396057 3
0.232472 0.211191 1.143054 4803920 3
0.251240 0.211191 1.143054 5460567 3
0.270008 0.211191 1.143054 4802378 3
0.288775 0.211191 1.143054 3618615 3
0.210629 0.226651 1.126607 4211783 3
0.229127 0.226651 1.126607 6711917 3
0.245856 0.225032 1.118560 7566197 3
0.264222 0.225032 1.118560 5789786 3
0.280583 0.223436 1.110627 5592407 3
0.027012 0.219191 1.186352 5461848 3
0.065969 0.219191 1.186352 4935504 3
0.084805 0.217543 1.177432 4803916 3
0.027218 0.240492 1.195408 6053983 3
0.064985 0.235108 1.168645 4738123 3
0.084173 0.235108 1.168645 5067088 3
-0.264380 0.100463 0.543745 7170926 3
-0.259050 0.101878 0.551403 4407620 3
-0.250880 0.102238 0.553351 6776681 3
-0.244385 0.103333 0.559280 2699055 3
-0.236894 0.104076 0.563304 4213834 3
-0.230129 0.105212 0.569449 3489600 3
-0.226546 0.107960 0.584322 3751741 3
-0.291795 0.103293 0.513437 8750978 3
-0.283364 0.103293 0.513437 6251613 3
-0.279516 0.105015 0.521995 3817532 3
-0.274607 0.106434 0.529049 6119262 3
-0.268644 0.107524 0.534466 7895671 3
-0.266229 0.110155 0.547547 8487549 3
-0.259050 0.110931 0.551403 6974056 3
-0.250880 0.111323 0.553351 6777192 3
-0.244385 0.112516 0.559280 5462359 3
-0.236894 0.113325 0.563304 6253415 3
-0.228467 0.113734 0.565337 8029569 3
-0.224868 0.116683 0.579994 5922908 3
-0.295382 0.109921 0.505156 9408908 3
-0.286165 0.109568 0.503532 8224889 3
-0.277898 0.109568 0.503532 7896692 3
-0.273143 0.110995 0.510093 6383712 3
-0.271852 0.113965 0.523741 5923161 3
-0.268644 0.116299 0.534466 6120027 3
-0.266229 0.119145 0.547547 6316890 3
-0.259050 0.119985 0.551403 8553342 3
-0.250880 0.120409 0.553351 7106155 3
-0.243515 0.121266 0.557290 6580838 3
-0.235202 0.121699 0.559280 7635322 3
-0.226829 0.122135 0.561285 8621704 3
-0.220779 0.123911 0.569449 9015433 3
-0.268285 0.117248 0.501020 6779241 3
-0.262049 0.118145 0.504854 6845546 3
-0.255560 0.118983 0.508436 7569008 3
-0.244984 0.126451 0.540347 7632497 3
-0.240156 0.128617 0.549602 8489089 3
-0.231889 0.129038 0.551403 8490629 3
-0.222836 0.129038 0.551403 8490116 3
-0.215882 0.130305 0.556818 8423036 3
-0.208355 0.131323 0.561168 9607310 3
-0.204225 0.134676 0.575496 10198679 3
-0.234397 0.134340 0.536423 7897721 3
-0.225107 0.134053 0.535275 8359043 3
-0.213802 0.132493 0.529049 8490371 3
-0.205116 0.132493 0.529049 8095350 3
-0.224275 0.136966 0.513258 9542546 3
-0.220441 0.139881 0.524181 8819081 3
-0.210951 0.139297 0.521995 8687237 3
-0.202423 0.139326 0.522104 8095352 3
-0.205981 0.144384 0.509696 8818821 3
-0.203375 0.150820 0.503247 9213579 3
-0.334429 0.084353 0.456555 3750462 3
-0.328851 0.084848 0.459233 5131856 3
-0.323250 0.087412 0.473107 3750460 3
-0.323923 0.085147 0.423239 3881535 3
-0.316974 0.085147 0.423239 2763054 3
-0.329818 0.092660 0.460584 7895160 3
-0.324162 0.093208 0.463309 7763833 3
-0.322276 0.094893 0.471682 3948093 3
-0.317400 0.095758 0.475983 7238509 3
-0.350463 0.088279 0.405695 6512994 3
-0.346495 0.088970 0.408873 3355443 3
-0.342464 0.089673 0.412101 3486516 3
-0.337474 0.090147 0.414282 4144446 3
-0.331549 0.090386 0.415380 5460821 3
-0.326461 0.090868 0.417596 4211011 3
-0.321318 0.091356 0.419835 3224116 3
-0.315270 0.091601 0.420963 4868941 3
-0.315135 0.093614 0.430215 7369329 3
-0.321310 0.099928 0.459233 8093052 3
-0.343360 0.094818 0.405174 7894901 3
-0.340229 0.095809 0.409411 5789525 3
-0.336307 0.096614 0.412849 7960953 3
-0.329854 0.096709 0.413257 5263953 3
-0.324514 0.097142 0.415106 4606537 3
-0.318807 0.097481 0.416555 5922399 3
-0.312800 0.097741 0.417666 7895673 3
-0.309094 0.098748 0.421968 7500913 3
0.560705 0.217868 1.294202 2632496 3
0.567875 0.212597 1.262890 2895672 3
0.588611 0.212597 1.262890 2236970 3
0.599674 0.209223 1.242845 2434602 3
0.530684 0.235230 1.273158 2302755 3
0.547140 0.233332 1.262890 3026739 3
0.554461 0.227821 1.233058 2105384 3
0.570217 0.226041 1.223425 3750211 3
0.581222 0.222563 1.204603 3420984 3
0.513959 0.258233 1.283594 3487031 3
0.526404 0.254068 1.262890 2763306 3
0.538455 0.250035 1.242845 3355702 3
0.541666 0.242342 1.204603 3552830 3
0.518049 0.270441 1.242845 2894381 3
0.521887 0.262120 1.204603 3158066 3
0.529024 0.297010 1.269176 3683127 3
0.524735 0.283437 1.211176 4473926 3
0.302002 0.201237 1.195408 4999757 3
0.309805 0.231650 1.151459 4210243 3
0.333616 0.235108 1.168645 4671051 3
0.347616 0.250556 1.151459 3224118 3
0.361682 0.265904 1.136255 4475213 3
0.105728 0.201237 1.195408 4408390 3
0.104138 0.217543 1.177432 5725020 3
0.121641 0.214320 1.159988 5001299 3
0.140687 0.214320 1.159988 4738127 3
0.158558 0.212744 1.151459 5396053 3
0.177464 0.212744 1.151459 5921883 3
0.194936 0.211191 1.143054 5329492 3
0.102595 0.233366 1.159988 4540746 3
0.119865 0.229959 1.143054 5659229 3
0.137628 0.228293 1.134771 5396055 3
0.155136 0.226651 1.126607 5132881 3
0.174892 0.228293 1.134771 5658711 3
0.192131 0.226651 1.126607 4868684 3
-0.192977 0.106299 0.631445 4671303 3
-0.182609 0.106299 0.631445 4342340 3
-0.171550 0.105872 0.628909 5591896 3
-0.161224 0.105872 0.628909 7565943 3
-0.150898 0.105872 0.628909 6250337 3
-0.140572 0.105872 0.628909 5197647 3
-0.141005 0.114618 0.680863 4408644 3
-0.129826 0.114618 0.680863 4605258 3
-0.192202 0.116198 0.628909 6579298 3
-0.181876 0.116198 0.628909 7368816 3
-0.170864 0.115733 0.626394 7697270 3
-0.160579 0.115733 0.626394 7433328 3
-0.150898 0.116198 0.628909 7697270 3
-0.140009 0.115733 0.626394 6776679 3
-0.129725 0.115733 0.626394 6842472 3
-0.127607 0.123646 0.669224 8553090 3
-0.116619 0.123646 0.669224 5395285 3
-0.192202 0.126524 0.628909 9211018 3
-0.181148 0.126018 0.626394 8882053 3
-0.170183 0.125516 0.623898 7565682 3
-0.159939 0.125516 0.623898 9735826 3
-0.149695 0.125516 0.623898 8092028 3
-0.138898 0.125018 0.621422 9145227 3
-0.129208 0.125516 0.623898 9474192 3
-0.118964 0.125516 0.623898 9605778 3
-0.108289 0.125018 0.621422 8224125 3
-0.190670 0.135759 0.623898 9276554 3
-0.180427 0.135759 0.623898 9013382 3
-0.170183 0.135759 0.623898 10197656 3
-0.159939 0.135759 0.623898 10460060 3
-0.149101 0.135221 0.621422 9342093 3
-0.139451 0.135759 0.623898 9803157 3
-0.129725 0.136302 0.626394 8092028 3
-0.118964 0.135759 0.623898 7499889 3
-0.108289 0.135221 0.621422 8026235 3
-0.193231 0.140420 0.600038 10262679 3
-0.188005 0.143962 0.615176 11381160 3
-0.179489 0.145244 0.620655 10395033 3
-0.169466 0.145388 0.621269 9737103 3
-0.158675 0.144849 0.618966 11579309 3
-0.148512 0.144849 0.618966 10197915 3
-0.138727 0.145244 0.620655 9276815 3
-0.128695 0.145424 0.621422 8486786 3
-0.118463 0.145388 0.621269 8880776 3
-0.107861 0.144849 0.618966 9670293 3
-0.176257 0.152636 0.609481 11579307 3
-0.167309 0.153608 0.613362 10263959 3
-0.157856 0.154212 0.615774 10264217 3
-0.147927 0.154402 0.616529 9934741 3
-0.138179 0.154821 0.618205 8289405 3
-0.128186 0.155012 0.618966 9407118 3
-0.117994 0.154974 0.618814 12104633 3
-0.107463 0.154440 0.616682 10195356 3
-0.153890 0.160193 0.600300 9540494 3
-0.145071 0.161348 0.604627 8026744 3
-0.136233 0.162648 0.609498 9671058 3
-0.126715 0.163279 0.611863 10394013 3
-0.117069 0.163839 0.613962 10722980 3
-0.106623 0.163279 0.611863 9931671 3
-0.134853 0.170907 0.603326 9079434 3
-0.126038 0.172399 0.608594 11579055 3
-0.116187 0.172608 0.609332 6972777 3
-0.106208 0.172651 0.609481 10589599 3
-0.134177 0.179906 0.600300 7829367 3
-0.125887 0.182172 0.607862 9539472 3
-0.116130 0.182525 0.609038 9143689 3
-0.105362 0.181203 0.604627 11773616 3
-0.104957 0.190395 0.602302 12168631 3
-0.215450 0.107163 0.636579 2302763 3
-0.204998 0.107163 0.636579 4474183 3
-0.234448 0.116666 0.631445 7436149 3
-0.224080 0.116666 0.631445 4540746 3
-0.213712 0.116666 0.631445 2105637 3
-0.203345 0.116666 0.631445 3948093 3
-0.223180 0.126524 0.628909 7896187 3
-0.213712 0.127034 0.631445 6908524 3
-0.203345 0.127034 0.631445 6842472 3
-0.215395 0.132076 0.606971 9540494 3
-0.209489 0.134686 0.618966 9013639 3
-0.200914 0.135759 0.623898 8487038 3
0.513947 0.203341 1.338448 3092271 3
0.531381 0.201617 1.327105 3289911 3
0.509591 0.223407 1.327105 3487029 3
0.526916 0.221530 1.315953 3618874 3
0.543951 0.219684 1.304987 4211013 3
0.505309 0.243136 1.315953 2236964 3
0.526916 0.243136 1.315953 2236962 3
0.500527 0.273951 1.361725 3684410 3
0.505309 0.264743 1.315953 3158066 3
0.509591 0.288776 1.327105 3223605 3
0.522525 0.283963 1.304987 3420725 3
0.426043 0.203341 1.338448 2631468 3
0.455810 0.206877 1.361725 3026226 3
0.478168 0.206877 1.361725 2960172 3
0.496212 0.205094 1.349986 2960426 3
0.426043 0.225317 1.338448 2631468 3
0.455810 0.229235 1.361725 2434090 3
0.478168 0.229235 1.361725 2894383 3
0.496212 0.227259 1.349986 2631207 3
0.426043 0.247293 1.338448 7039600 3
0.455810 0.251593 1.361725 5131092 3
0.482363 0.253800 1.373670 2960433 3
0.496212 0.249424 1.349986 2829099 3
0.400642 0.266987 1.327105 4144707 3
0.429715 0.271590 1.349986 5461081 3
0.468019 0.281289 1.398200 5263191 3
0.490977 0.281289 1.398200 6776427 3
0.426043 0.291245 1.338448 3882563 3
0.202320 0.180234 1.186352 4211011 3
0.221799 0.180234 1.186352 4474185 3
0.260756 0.180234 1.186352 3881789 3
0.215275 0.193839 1.151459 4013634 3
0.235916 0.195274 1.159988 4474183 3
0.254962 0.195274 1.159988 5131856 3
0.278128 0.198211 1.177432 4144961 3
0.105728 0.181610 1.195408 3684667 3
0.124405 0.180234 1.186352 3553083 3
0.144982 0.181610 1.195408 4079427 3
0.163363 0.180234 1.186352 4013886 3
0.182842 0.180234 1.186352 3158323 3
0.123470 0.198211 1.177432 4408392 3
0.142802 0.198211 1.177432 4211011 3
0.159733 0.195274 1.159988 3553335 3
0.177464 0.193839 1.151459 3947839 3
0.196370 0.193839 1.151459 3487288 3
-0.082947 0.136729 0.899991 4474185 3
-0.082947 0.151506 0.899991 6448227 3
-0.094467 0.160740 0.869991 6119776 3
-0.080630 0.161638 0.874852 8158843 3
-0.068170 0.166283 0.899991 8553088 3
-0.087649 0.162394 0.807208 6712167 3
-0.076770 0.167577 0.832970 7500913 3
-0.064117 0.170294 0.846478 7960951 3
-0.051902 0.176002 0.874852 8026748 3
-0.037329 0.175025 0.869991 8618632 3
-0.023045 0.175025 0.869991 8948109 3
-0.008760 0.175025 0.869991 7500913 3
-0.062103 0.178406 0.819887 7895673 3
-0.050767 0.186206 0.855729 8026237 3
-0.036517 0.185194 0.851078 8947339 3
-0.022544 0.185194 0.851078 9144975 3
-0.008570 0.185194 0.851078 7960953 3
-0.048607 0.191734 0.819316 7434098 3
-0.035575 0.194028 0.829117 8223616 3
-0.022182 0.195972 0.837425 9144975 3
-0.008419 0.195653 0.836062 8158332 3
-0.012224 0.184425 1.213941 3684410 3
-0.069366 0.139128 0.915780 5789784 3
-0.055966 0.143318 0.943364 3749949 3
-0.040477 0.143318 0.943364 2763054 3
-0.098289 0.152382 0.905193 6448743 3
-0.069366 0.154164 0.915780 7566706 3
-0.055300 0.156917 0.932133 7500661 3
-0.039995 0.156917 0.932133 7040110 3
-0.024545 0.155988 0.926618 4540230 3
-0.009330 0.155988 0.926618 5921881 3
-0.054973 0.171203 0.926618 9539733 3
-0.039294 0.169200 0.915780 7236979 3
-0.024116 0.168216 0.910456 8027005 3
-0.009168 0.168216 0.910456 7237741 3
-0.138415 0.148693 0.978740 2500396 3
-0.119361 0.145066 0.954868 1908259 3
-0.102434 0.143318 0.943364 3947841 3
-0.172714 0.166848 0.991129 5592154 3
-0.154485 0.164763 0.978740 3618877 3
-0.135039 0.160744 0.954868 3027505 3
-0.115148 0.155071 0.921167 5922399 3
-0.131824 0.172222 0.932133 6712167 3
-0.113809 0.168216 0.910456 7765114 3
-0.296658 0.096444 0.521995 4802887 3
-0.287130 0.096124 0.520261 6842983 3
-0.281392 0.097091 0.525498 5001297 3
-0.274607 0.097747 0.529049 2566188 3
-0.268644 0.098748 0.534466 2960433 3
0.090961 0.150391 1.262890 1973792 3
0.007708 0.164493 1.213941 2302506 3
0.028524 0.169757 1.252787 3421498 3
0.049094 0.169757 1.252787 3685439 3
0.070225 0.171126 1.262890 4343369 3
0.088118 0.165779 1.223425 4342340 3
0.028298 0.188816 1.242845 3027509 3
0.049094 0.190327 1.252787 3225399 3
0.068566 0.187330 1.233058 3422778 3
0.086762 0.183007 1.204603 4079679 3
0.614300 0.109806 1.273158 3026226 3
0.630081 0.108920 1.262890 855057 3
0.614300 0.130710 1.273158 4210500 3
0.635204 0.130710 1.273158 3026226 3
0.645610 0.128618 1.252787 2105124 3
0.603204 0.154120 1.294202 2500136 3
0.619335 0.152856 1.283594 1908256 3
0.635204 0.151614 1.273158 2171430 3
0.645610 0.149188 1.252787 3421497 3
0.655689 0.146838 1.233058 2565676 3
0.603204 0.175369 1.294202 2105635 3
0.619335 0.173932 1.283594 2566186 3
0.635204 0.172518 1.273158 2039844 3
0.645610 0.169757 1.252787 2105637 3
0.650566 0.165779 1.223425 2894640 3
0.609346 0.191862 1.262890 3421497 3
0.630081 0.191862 1.262890 2171428 3
0.640486 0.188816 1.242845 2039845 3
0.645523 0.184425 1.213941 2171945 3
0.543951 0.112551 1.304987 3026737 3
0.565378 0.112551 1.304987 2171171 3
0.509591 0.136248 1.327105 2104867 3
0.526916 0.135103 1.315953 3289909 3
0.548522 0.135103 1.315953 3224116 3
0.570129 0.135103 1.315953 3223859 3
0.586804 0.133977 1.304987 2105378 3
0.509591 0.158038 1.327105 3223605 3
0.526916 0.156710 1.315953 5132113 3
0.548522 0.156710 1.315953 2566186 3
0.570129 0.156710 1.315953 3158066 3
0.586804 0.155404 1.304987 3750203 3
0.513947 0.181365 1.338448 4473926 3
0.531381 0.179828 1.327105 3421497 3
0.553171 0.179828 1.327105 1974051 3
0.570129 0.178316 1.315953 1974052 3
0.586804 0.176830 1.304987 2828848 3
0.548522 0.199923 1.315953 2171431 3
0.565378 0.198257 1.304987 1513247 3
0.518206 0.111621 1.294202 3224116 3
0.581955 0.111621 1.294202 1447448 3
0.598260 0.110706 1.283594 5065809 3
0.598260 0.131781 1.283594 2105124 3
0.577185 0.195007 1.283594 1908007 3
0.598260 0.195007 1.283594 2566189 3
0.418882 0.113496 1.315953 2039331 3
0.444222 0.114458 1.327105 3618363 3
0.469995 0.115437 1.338448 1578780 3
0.483702 0.113496 1.315953 1710366 3
0.418882 0.135103 1.315953 3749949 3
0.444222 0.136248 1.327105 2960176 3
0.469995 0.137413 1.338448 2236453 3
0.487801 0.136248 1.327105 1973281 3
0.415392 0.155404 1.304987 3223605 3
0.440489 0.156710 1.315953 2434089 3
0.466012 0.158038 1.327105 3354932 3
0.487801 0.158038 1.327105 3157553 3
0.415392 0.176830 1.304987 2697261 3
0.444222 0.179828 1.327105 2894894 3
0.466012 0.179828 1.327105 3486516 3
0.487801 0.179828 1.327105 4604997 3
0.316498 0.108049 1.252787 1052436 3
0.345356 0.110706 1.283594 4474186 3
0.369460 0.111621 1.294202 1052696 3
0.313986 0.127597 1.242845 3881276 3
0.339786 0.129655 1.262890 3684669 3
0.366431 0.131781 1.283594 3421244 3
0.390709 0.132870 1.294202 3684416 3
0.313986 0.148004 1.242845 2631209 3
0.337067 0.149188 1.252787 2499883 3
0.360521 0.150391 1.262890 2828848 3
0.387507 0.152856 1.283594 3223606 3
0.311514 0.167084 1.233058 4210241 3
0.337067 0.169757 1.252787 4144708 3
0.363452 0.172518 1.273158 4078915 3
0.387507 0.173932 1.283594 2368297 3
0.306684 0.184425 1.213941 4604999 3
0.342548 0.193422 1.273158 3026226 3
0.369460 0.196619 1.294202 3552570 3
0.236109 0.108920 1.262890 1644322 3
0.254789 0.108049 1.252787 4144710 3
0.271022 0.106347 1.233058 3815996 3
0.291268 0.106347 1.233058 2302503 3
0.215373 0.129655 1.262890 2763055 3
0.234220 0.128618 1.252787 2894643 3
0.252767 0.127597 1.242845 1841442 3
0.268905 0.125604 1.223425 3289139 3
0.288992 0.125604 1.223425 3420725 3
0.217124 0.151614 1.273158 3487031 3
0.236109 0.150391 1.262890 4539465 3
0.254789 0.149188 1.252787 3223605 3
0.266820 0.144562 1.213941 2829101 3
0.288992 0.145691 1.223425 2368550 3
0.215373 0.171126 1.262890 4013375 3
0.234220 0.169757 1.252787 3815742 3
0.254789 0.169757 1.252787 4145218 3
0.266820 0.164493 1.213941 4934477 3
0.286752 0.164493 1.213941 3158066 3
0.244990 0.183007 1.204603 4079425 3
0.284546 0.183007 1.204603 3026480 3
0.194638 0.129655 1.262890 1776159 3
0.111696 0.150391 1.262890 3026226 3
0.132432 0.150391 1.262890 2302504 3
0.154412 0.151614 1.273158 3355191 3
0.173902 0.150391 1.262890 3750203 3
0.194638 0.150391 1.262890 3223859 3
0.108206 0.165779 1.223425 4078914 3
0.128293 0.165779 1.223425 3026227 3
0.150736 0.168410 1.242845 3355191 3
0.168468 0.165779 1.223425 2894894 3
0.191548 0.168410 1.242845 3618617 3
0.543951 0.091124 1.304987 1907999 3
0.565378 0.091124 1.304987 1775900 3
0.319050 0.067449 1.262890 1184282 3
0.348210 0.069121 1.294202 1644063 3
0.321644 0.088902 1.273158 1776160 3
0.348210 0.090371 1.294202 1446682 3
0.252767 0.086785 1.242845 789013 3
0.271022 0.086102 1.233058 5131856 3
0.293580 0.086785 1.242845 1710366 3
0.604471 0.087479 1.252787 3026226 3
0.620080 0.086785 1.242845 2105124 3
0.513959 0.089630 1.283594 3552824 3
0.488876 0.088902 1.273158 2697261 3
0.400642 0.070879 1.327105 3223608 3
0.418882 0.070283 1.315953 1841952 3
0.458245 0.069697 1.304987 1381914 3
0.400642 0.092669 1.327105 2499885 3
0.422432 0.092669 1.327105 3881535 3
0.448019 0.093461 1.338448 1973538 3
0.466012 0.092669 1.327105 1776159 3
0.483702 0.091890 1.315953 2499882 3
0.375669 0.070283 1.315953 1973028 3
0.378853 0.092669 1.327105 1315611 3