# .PCD v0.7 - Point Cloud Data file format
VERSION 0.7
FIELDS x y z rgb label
SIZE 4 4 4 4 4
TYPE F F F U U
COUNT 1 1 1 1 1
WIDTH 1587
HEIGHT 1
VIEWPOINT 0 0 0 1 0 0 0
POINTS 1587
DATA ascii
0.543930 0.324301 0.699100 5396057 3
0.521260 0.304362 0.656117 4869970 3
0.532033 0.315135 0.656117 5067090 3
0.548710 0.343070 0.690668 4935504 3
0.547124 0.335152 0.674727 5330262 3
0.548710 0.354410 0.690668 5330262 3
0.547124 0.346230 0.674727 4606537 3
0.543930 0.370215 0.699100 5461080 3
0.555409 0.370215 0.699100 5395285 3
0.205953 0.233553 0.586511 7763574 3
0.216242 0.234268 0.588306 7828854 3
0.227772 0.236207 0.593176 8026233 3
0.238157 0.236849 0.594788 7895160 3
0.209884 0.236755 0.571008 8223612 3
0.220820 0.238440 0.575070 8223612 3
0.230851 0.239049 0.576541 8026744 3
0.246028 0.244731 0.590243 8092541 3
0.257359 0.246300 0.594027 7763835 3
0.267807 0.246941 0.595573 7895419 3
0.209311 0.245459 0.569449 8355198 3
0.218661 0.245459 0.569449 8157819 3
0.228329 0.245801 0.570243 8026744 3
0.243277 0.251577 0.583644 8026746 3
0.255185 0.253890 0.589010 8224386 3
0.266793 0.255747 0.593317 8553351 3
0.277520 0.256658 0.595431 8421763 3
0.275304 0.245945 0.570577 7895419 3
0.280523 0.242360 0.562261 7500661 3
0.217869 0.253885 0.567386 7960440 3
0.227608 0.254359 0.568444 8487295 3
0.243560 0.261464 0.584322 8618883 3
0.255370 0.263752 0.589436 7763833 3
0.269795 0.268476 0.599994 8355972 3
0.186741 0.222154 0.557885 7171437 3
0.103454 0.229434 0.553351 7763576 3
0.186335 0.230811 0.556672 7237230 3
0.197725 0.233468 0.563079 7697781 3
0.101306 0.233568 0.541863 8289920 3
0.186542 0.240217 0.557290 8289918 3
0.197278 0.242165 0.561808 8421504 3
-0.074342 0.236825 0.594726 8487297 3
-0.064623 0.236994 0.595150 9474192 3
-0.054489 0.235428 0.591218 8684676 3
-0.045101 0.237105 0.595431 8553088 3
-0.035417 0.237728 0.596994 8618881 3
-0.081236 0.238173 0.574426 8618881 3
-0.073315 0.243183 0.586511 8882055 3
-0.063507 0.242503 0.584871 8618883 3
-0.053666 0.241431 0.582286 8355709 3
-0.044189 0.241890 0.583393 8684674 3
-0.033616 0.234937 0.566622 8026744 3
-0.024257 0.234404 0.565337 8684676 3
-0.078848 0.240325 0.557539 8684674 3
-0.070210 0.242104 0.561666 8882053 3
-0.061609 0.244569 0.567386 8618881 3
-0.261175 0.238010 0.597704 7434607 3
-0.251361 0.238010 0.597704 7763572 3
-0.241547 0.238010 0.597704 7566193 3
-0.259783 0.246503 0.594518 7566193 3
-0.220256 0.217157 0.523741 7434607 3
-0.210211 0.215674 0.520164 7631986 3
-0.299708 0.234080 0.543051 6711399 3
0.439627 0.225233 0.589941 6513507 3
0.445034 0.223088 0.584322 5725018 3
0.432084 0.236090 0.592882 5921372 3
0.420578 0.224740 0.564379 6184801 3
0.418874 0.219004 0.549974 5856606 3
0.428078 0.219093 0.550198 4870224 3
0.446798 0.223948 0.562391 5396055 3
0.422518 0.240382 0.579756 5724250 3
0.410707 0.228514 0.551132 5330262 3
0.414129 0.225451 0.543745 5264469 3
0.423057 0.225451 0.543745 4672332 3
0.436167 0.227634 0.549010 4936017 3
0.456032 0.233182 0.562391 5396055 3
0.476570 0.238847 0.576054 5526873 3
0.496998 0.244239 0.589057 5921118 3
0.410468 0.242774 0.563221 5462107 3
0.404166 0.233780 0.542355 5133142 3
0.413236 0.233874 0.542573 5461850 3
0.423057 0.234379 0.543745 5461850 3
0.434061 0.235506 0.546359 5001810 3
0.455055 0.241897 0.561186 4804431 3
0.469398 0.244569 0.567386 4935506 3
0.478714 0.244569 0.567386 4408392 3
0.490479 0.245797 0.570233 4474183 3
0.405717 0.260859 0.582970 6185830 3
0.414132 0.260132 0.581347 5725022 3
0.406434 0.249545 0.557687 6053985 3
0.459048 0.253314 0.566110 5462107 3
0.469398 0.253885 0.567386 4803918 3
0.478714 0.253885 0.567386 4408133 3
0.485616 0.252629 0.564579 4868941 3
0.485597 0.272284 0.586965 5067090 3
0.482039 0.265029 0.571326 5066320 3
-0.355244 0.225613 0.590937 6117722 3
-0.350163 0.214384 0.538372 6447714 3
-0.344972 0.216676 0.544128 6776679 3
-0.345243 0.222611 0.559032 6578787 3
-0.333829 0.221130 0.555314 7368303 3
-0.323922 0.220593 0.553964 8025717 3
-0.347548 0.221557 0.534352 6118747 3
-0.337694 0.220850 0.532648 6316126 3
-0.331280 0.222415 0.536423 6776677 3
-0.323504 0.223127 0.538139 7236971 3
-0.316922 0.224725 0.541993 6973799 3
-0.309019 0.225451 0.543745 6908006 3
-0.303200 0.227787 0.549378 6381921 3
-0.306887 0.232762 0.539995 6447712 3
0.334784 0.216650 0.592961 6646122 3
0.342053 0.215099 0.588716 6185569 3
0.354243 0.216643 0.592941 6974569 3
0.325048 0.226386 0.592961 6909296 3
0.329001 0.222476 0.582720 6382950 3
0.340469 0.223725 0.585990 7040880 3
0.353805 0.226098 0.592208 6382434 3
0.317718 0.237924 0.597487 7106675 3
0.320198 0.232599 0.584113 7106675 3
0.319422 0.225287 0.565753 7633017 3
0.324950 0.222710 0.559280 6843501 3
0.334133 0.222710 0.559280 6842731 3
0.345014 0.223811 0.562046 6316387 3
0.356803 0.225429 0.566110 6053215 3
0.383022 0.235850 0.592280 5855836 3
0.317424 0.247505 0.596933 6776940 3
0.310874 0.235137 0.567106 7303284 3
0.314228 0.230762 0.556553 7105905 3
0.324230 0.231379 0.558041 6974317 3
0.334133 0.231893 0.559280 6645352 3
0.343316 0.231893 0.559280 6447973 3
0.356011 0.234203 0.564853 6185571 3
0.382447 0.245206 0.591390 5593434 3
0.310874 0.244449 0.567106 7040113 3
0.314228 0.239900 0.556553 7303284 3
0.322646 0.239366 0.555314 7369077 3
0.331911 0.239472 0.555561 7303282 3
0.343316 0.241075 0.559280 6316387 3
0.352499 0.241075 0.559280 6119778 3
0.365285 0.243477 0.564853 6251877 3
0.392157 0.254916 0.591390 5462359 3
0.364375 0.252122 0.563444 6581610 3
0.376073 0.253773 0.567135 6055268 3
0.392770 0.258636 0.578002 5923682 3
-0.096975 0.228023 0.685719 8355450 3
-0.085552 0.227586 0.684403 8289916 3
-0.075701 0.231830 0.697167 8092537 3
-0.064040 0.231059 0.694847 7894901 3
-0.052807 0.231830 0.697167 7829108 3
-0.094341 0.232781 0.667090 8158330 3
-0.082990 0.231671 0.663907 8092537 3
-0.073335 0.235676 0.675383 8224123 3
-0.062751 0.237588 0.680863 8487038 3
-0.051572 0.237588 0.680863 8223866 3
-0.040393 0.237588 0.680863 7959924 3
-0.029686 0.241423 0.691853 7959924 3
-0.099718 0.230828 0.631766 9079432 3
-0.090049 0.232646 0.636741 9079434 3
-0.079899 0.233536 0.639177 8421502 3
-0.070146 0.236032 0.646007 8092537 3
-0.061646 0.244385 0.668870 8816003 3
-0.049971 0.241041 0.659719 8289659 3
-0.039035 0.240405 0.657977 8420475 3
-0.028396 0.241805 0.661810 8420475 3
-0.017635 0.243254 0.665774 7894647 3
-0.007039 0.255430 0.699100 7763061 3
-0.097844 0.236668 0.619893 8947589 3
-0.087644 0.236607 0.619734 8553088 3
-0.077391 0.236373 0.619120 8487297 3
-0.067459 0.237193 0.621269 8553090 3
-0.057033 0.236256 0.618814 8289918 3
-0.046324 0.233495 0.611581 8553088 3
-0.036149 0.232636 0.609332 8553088 3
-0.025802 0.229584 0.601338 8092026 3
-0.015960 0.230041 0.602534 8355200 3
-0.006837 0.259245 0.679028 8618370 3
-0.195575 0.224885 0.676281 8223612 3
-0.186593 0.227471 0.684057 8486270 3
-0.156260 0.232473 0.699100 8355452 3
-0.144905 0.232670 0.699693 8026487 3
-0.120747 0.230416 0.692913 8355709 3
-0.109038 0.229718 0.690815 8092537 3
-0.195047 0.235351 0.674455 8421245 3
-0.185721 0.237588 0.680863 8091512 3
-0.172491 0.234795 0.672861 8092280 3
-0.115250 0.230785 0.661370 8158330 3
-0.105631 0.233526 0.669224 8158330 3
-0.191894 0.242442 0.663553 8355452 3
-0.181000 0.242442 0.663553 8223096 3
-0.115402 0.221129 0.605220 8421243 3
-0.108541 0.227578 0.622871 8421243 3
-0.105763 0.231717 0.606926 8947587 3
0.277762 0.210650 0.666376 7171950 3
0.288704 0.210650 0.666376 6909294 3
0.297751 0.209319 0.662165 7105644 3
0.204720 0.225497 0.678123 7434868 3
0.216438 0.226107 0.679957 7171950 3
0.222406 0.220946 0.664435 7631475 3
0.267961 0.222538 0.669224 7500400 3
0.278133 0.221887 0.667266 7435122 3
0.288704 0.221591 0.666376 6646122 3
0.298772 0.220946 0.664435 8093052 3
0.210774 0.231063 0.662165 7764087 3
0.216233 0.225420 0.645993 7828854 3
0.239200 0.237703 0.681193 7697783 3
0.256967 0.243952 0.699100 7632247 3
0.267525 0.243115 0.696703 7105131 3
0.264639 0.230631 0.660928 7434096 3
0.276585 0.231547 0.663553 7829626 3
0.287480 0.231547 0.663553 7698810 3
0.298296 0.231486 0.663378 7566708 3
0.213021 0.244514 0.669224 7698294 3
0.222704 0.243090 0.665325 7894647 3
0.233006 0.242442 0.663553 8092541 3
0.243901 0.242442 0.663553 8487299 3
0.249052 0.236977 0.648596 8288891 3
0.257908 0.235341 0.644116 7565168 3
0.271976 0.238401 0.652493 7105646 3
0.282689 0.238401 0.652493 7435640 3
0.295956 0.240476 0.658172 7304052 3
0.214802 0.233545 0.611713 7368816 3
0.225013 0.233718 0.612166 7499889 3
0.238503 0.237138 0.621123 7368303 3
0.253285 0.241509 0.632571 8289405 3
0.265410 0.243101 0.636741 7763576 3
0.277772 0.244781 0.641143 6908526 3
0.292270 0.248154 0.649976 6908778 3
0.258001 0.246477 0.618966 7895162 3
0.270376 0.248511 0.624073 7237491 3
0.284018 0.251518 0.631624 7763833 3
0.295572 0.252529 0.634163 7895671 3
0.280052 0.249135 0.600865 7632501 3
0.292160 0.251061 0.605512 7764087 3
-0.351318 0.207396 0.656084 5790297 3
-0.340099 0.207125 0.655223 6579813 3
-0.331252 0.208326 0.659025 6250846 3
-0.319096 0.207458 0.656277 6119258 3
-0.302758 0.203715 0.644438 6119262 3
-0.397380 0.213969 0.643454 5724243 3
-0.386426 0.213754 0.642808 5921621 3
-0.337365 0.216131 0.649955 5592405 3
-0.329864 0.218228 0.656263 6118747 3
-0.316861 0.216705 0.651682 5658707 3
-0.300286 0.212547 0.639177 6250848 3
-0.390457 0.220622 0.632244 5723989 3
-0.380285 0.220743 0.632591 6184281 3
-0.333216 0.224013 0.641962 5723991 3
-0.329558 0.228791 0.655654 6052954 3
-0.314855 0.225965 0.647557 6908774 3
-0.384665 0.227576 0.622866 5855318 3
-0.343580 0.234433 0.641633 6052443 3
-0.331855 0.233596 0.639341 6974058 3
-0.330111 0.239958 0.656754 7368814 3
-0.315046 0.236741 0.647949 6711395 3
-0.349456 0.257039 0.673250 6777192 3
-0.325259 0.247056 0.647101 6908263 3
-0.309171 0.242766 0.635866 6645091 3
-0.301709 0.247096 0.620519 6908263 3
-0.304566 0.259720 0.626394 7237228 3
-0.322871 0.259903 0.602959 6580327 3
-0.300513 0.266411 0.618058 7171435 3
0.305309 0.203484 0.678973 6316641 3
0.305230 0.207017 0.654884 7434611 3
0.312632 0.204822 0.647940 7434611 3
0.325638 0.206322 0.652685 6447975 3
0.335649 0.205890 0.651317 6382182 3
0.342162 0.203404 0.643454 6447463 3
0.354829 0.204616 0.647289 5921119 3
0.367918 0.205994 0.651647 6644841 3
0.384592 0.209245 0.661932 6908013 3
0.308869 0.220366 0.662692 7631990 3
0.311748 0.214852 0.646109 7303025 3
0.322436 0.214905 0.646269 6645354 3
0.329583 0.212669 0.639546 6250596 3
0.335280 0.209666 0.630513 6316390 3
0.337967 0.205016 0.616529 6119010 3
0.355873 0.209599 0.630313 6382182 3
0.380637 0.217849 0.655123 6250594 3
0.394856 0.219777 0.660919 5790046 3
0.380425 0.206081 0.619734 5987425 3
0.307646 0.230331 0.660067 7566197 3
0.311748 0.225460 0.646109 6184544 3
0.322436 0.225516 0.646269 6645354 3
0.329583 0.223170 0.639546 6974319 3
0.330323 0.216765 0.621190 7698042 3
0.336152 0.213983 0.613218 6184803 3
0.345371 0.213458 0.611713 6974317 3
0.357338 0.214613 0.615024 6513766 3
0.368336 0.215138 0.616529 6645352 3
0.382032 0.217170 0.622351 6053217 3
0.306114 0.239968 0.656781 7500404 3
0.313931 0.237721 0.650632 7368818 3
0.326056 0.238778 0.653524 7698042 3
0.332905 0.236026 0.645993 7369077 3
0.330282 0.226936 0.621114 7238261 3
0.331780 0.221137 0.605242 7304052 3
0.375969 0.223780 0.612474 6711145 3
0.394307 0.228580 0.625614 5790043 3
0.302388 0.247699 0.648786 7040364 3
0.312227 0.247056 0.647101 7040364 3
0.324701 0.248471 0.650808 7434868 3
0.332381 0.246245 0.644976 7369077 3
0.326407 0.234352 0.613825 7106675 3
0.368576 0.229237 0.600430 6711145 3
0.383580 0.232354 0.608594 6250594 3
0.394341 0.232808 0.609782 7040110 3
0.307228 0.253555 0.636741 7895673 3
0.319797 0.255243 0.640978 7434868 3
0.318404 0.246034 0.617854 7434870 3
0.302830 0.251666 0.606971 8027005 3
0.312796 0.251666 0.606971 8092798 3
0.115255 0.202541 0.675826 7500661 3
0.103584 0.212458 0.672096 8487556 3
0.114558 0.212345 0.671739 7829626 3
0.124585 0.210650 0.666376 7369845 3
0.102702 0.221591 0.666376 8027259 3
0.113438 0.221191 0.665172 8356224 3
0.120577 0.214463 0.644941 7369843 3
0.129631 0.211953 0.637391 7829367 3
0.140608 0.212727 0.639720 7960953 3
0.162241 0.228395 0.686835 7566197 3
0.173519 0.228395 0.686835 7369075 3
0.184796 0.228395 0.686835 7106673 3
0.193180 0.225025 0.676702 7435638 3
0.100957 0.228581 0.655053 7764087 3
0.110559 0.226222 0.648291 7764087 3
0.118180 0.220578 0.632118 7896187 3
0.127523 0.218800 0.627024 7697781 3
0.136723 0.217062 0.622042 7829367 3
0.146210 0.215989 0.618966 7697783 3
0.156372 0.215989 0.618966 7369075 3
0.167115 0.216741 0.621123 7764603 3
0.181042 0.221298 0.634182 7435638 3
0.192740 0.222785 0.638441 7698040 3
0.112713 0.241480 0.660919 8158843 3
0.115551 0.225820 0.618058 8225406 3
0.125388 0.225261 0.616529 8289918 3
0.135511 0.225261 0.616529 8487297 3
0.145706 0.225373 0.616835 8618885 3
0.156993 0.227049 0.621422 8027005 3
0.167280 0.227162 0.621733 7698810 3
0.179312 0.229497 0.628123 7369845 3
0.190623 0.230705 0.631429 7763833 3
0.123474 0.231791 0.607118 8487299 3
0.134289 0.233261 0.610969 8947848 3
0.144957 0.234291 0.613665 8421502 3
0.156411 0.236373 0.619120 7829367 3
0.167196 0.237252 0.621422 7763833 3
0.177399 0.237252 0.621422 7434868 3
0.184603 0.233459 0.611487 7764087 3
0.176698 0.246477 0.618966 8092541 3
0.176698 0.256640 0.618966 7763322 3
0.093716 0.203964 0.680575 8158332 3
0.082776 0.215748 0.682503 8618885 3
0.092549 0.212458 0.672096 8816264 3
0.027330 0.231912 0.697412 8355711 3
0.037037 0.221482 0.666047 8421504 3
0.047591 0.219721 0.660753 8224127 3
0.058440 0.219721 0.660753 8487299 3
0.069694 0.221007 0.664619 8553092 3
0.080820 0.221591 0.666376 8158334 3
0.091761 0.221591 0.666376 7895160 3
0.015769 0.241669 0.692559 8684163 3
0.026872 0.239288 0.685734 8618883 3
0.036880 0.231433 0.663227 8421504 3
0.047391 0.229601 0.657977 8355711 3
0.058195 0.229601 0.657977 8289918 3
0.069198 0.230267 0.659885 8092539 3
0.079865 0.229785 0.658502 7763574 3
0.089873 0.227748 0.652664 8158332 3
0.004439 0.255430 0.699100 8355198 3
0.015918 0.255430 0.699100 8618370 3
0.027066 0.252349 0.690668 8816262 3
0.036767 0.241581 0.661196 8224125 3
0.046204 0.234381 0.641491 8355711 3
0.056302 0.232587 0.636579 8553090 3
0.066754 0.232587 0.636579 8421504 3
0.077148 0.232412 0.636100 7566195 3
0.086602 0.229784 0.628909 8289916 3
0.097262 0.230576 0.631075 8553601 3
0.004323 0.259946 0.680863 8223612 3
0.015502 0.259946 0.680863 8355198 3
0.025917 0.252499 0.661359 7697268 3
0.055834 0.241018 0.631287 8224125 3
0.065950 0.240111 0.628909 8684163 3
0.076219 0.239932 0.628441 8289407 3
0.085338 0.236607 0.619734 8750469 3
0.095991 0.237789 0.622828 8421502 3
0.055167 0.248379 0.623743 7960953 3
0.064796 0.246055 0.617907 9013128 3
0.074427 0.244366 0.613665 9736853 3
0.083139 0.240422 0.603761 8420991 3
0.064102 0.253456 0.611287 8223612 3
0.073102 0.249913 0.602741 8289405 3
-0.292980 0.200942 0.670490 6448227 3
-0.284176 0.202513 0.675733 5987674 3
-0.282725 0.209665 0.699597 5987672 3
-0.259567 0.209516 0.699100 5855575 3
-0.247195 0.208761 0.696581 6184544 3
-0.233483 0.206747 0.689861 7566197 3
-0.222218 0.206804 0.690052 7829878 3
-0.212409 0.208296 0.695031 7566195 3
-0.295001 0.205684 0.650667 5921883 3
-0.292515 0.211614 0.669426 5592405 3
-0.282723 0.212515 0.672277 5197645 3
-0.274413 0.214650 0.679028 6579298 3
-0.264767 0.215876 0.682907 7105895 3
-0.253900 0.216169 0.683836 8355709 3
-0.242606 0.216110 0.683650 8355713 3
-0.229752 0.214589 0.678836 7566197 3
-0.219022 0.214997 0.680127 7303021 3
-0.208988 0.216169 0.683836 7368303 3
-0.201475 0.220230 0.696683 7105131 3
-0.290759 0.213256 0.641310 6777192 3
-0.283566 0.215795 0.648947 7039849 3
-0.273335 0.216131 0.649955 7500400 3
-0.263553 0.216863 0.652156 7829106 3
-0.250885 0.215182 0.647101 7105895 3
-0.245181 0.219588 0.660353 7434607 3
-0.237871 0.222899 0.670309 6908265 3
-0.226802 0.222837 0.670122 7631990 3
-0.216146 0.223195 0.671199 7829365 3
-0.205400 0.223493 0.672096 7829108 3
-0.297641 0.221076 0.633546 6777192 3
-0.284067 0.218635 0.626551 7632499 3
-0.274880 0.219514 0.629068 7434607 3
-0.266290 0.220957 0.633203 7895412 3
-0.256024 0.221069 0.633526 7631727 3
-0.242857 0.218581 0.626394 6842723 3
-0.234574 0.220462 0.631785 6974310 3
-0.231987 0.228119 0.653728 7303023 3
-0.226499 0.233526 0.669224 7631986 3
-0.215511 0.233526 0.669224 7697779 3
-0.204577 0.233589 0.669404 7631729 3
-0.296506 0.230596 0.631130 6448227 3
-0.283996 0.228865 0.626394 6382432 3
-0.273643 0.228808 0.626238 7237482 3
-0.262509 0.228068 0.624211 7632240 3
-0.254095 0.229727 0.628752 7434347 3
-0.242857 0.228865 0.626394 6908516 3
-0.233332 0.229613 0.628441 7171689 3
-0.225219 0.231883 0.634654 7895158 3
-0.218959 0.236375 0.646949 8421756 3
-0.211889 0.240405 0.657977 8092791 3
-0.202257 0.241805 0.661810 8092278 3
-0.292964 0.238080 0.623590 6776677 3
-0.280628 0.236314 0.618966 6908263 3
-0.268812 0.234870 0.615182 7105642 3
-0.255446 0.231905 0.607417 7368814 3
-0.248057 0.234347 0.613813 7500400 3
-0.236476 0.232866 0.609934 8092791 3
-0.231073 0.237609 0.622357 7698033 3
-0.221626 0.238438 0.624530 7763826 3
-0.214578 0.242055 0.634002 7763826 3
-0.285156 0.241700 0.606971 7039592 3
-0.272301 0.239164 0.600600 7171435 3
-0.232959 0.239269 0.600865 7369068 3
-0.224819 0.241119 0.605512 7829619 3
-0.291095 0.256908 0.619612 7829106 3
-0.275089 0.251574 0.606748 7895158 3
-0.289646 0.265752 0.616529 7500141 3
-0.098864 0.224042 0.790901 7566704 3
-0.085879 0.224042 0.790901 7106155 3
-0.072939 0.224185 0.791405 7631986 3
-0.060518 0.226328 0.798972 7697781 3
-0.047284 0.225774 0.797013 8026746 3
-0.032290 0.213181 0.752561 8487297 3
-0.019752 0.211240 0.745707 7763574 3
-0.007412 0.208525 0.736124 8026744 3
-0.090158 0.216154 0.721249 8290169 3
-0.079367 0.219055 0.730929 8355963 3
-0.066205 0.215282 0.718341 7895158 3
-0.054757 0.216653 0.722914 7697268 3
-0.043024 0.217339 0.725203 8092026 3
-0.031243 0.218223 0.728154 7894647 3
-0.018964 0.214560 0.715930 7697522 3
-0.007123 0.212004 0.707402 8289659 3
-0.088903 0.224823 0.711213 8750721 3
-0.077978 0.227012 0.718136 7500400 3
-0.065493 0.224634 0.710612 7631729 3
-0.054180 0.226114 0.715294 8223866 3
-0.042641 0.227208 0.718757 7696752 3
-0.031107 0.229179 0.724993 7828338 3
-0.019083 0.227734 0.720420 8881542 3
-0.007233 0.227077 0.718341 8881542 3
-0.041650 0.233456 0.702057 8288889 3
-0.030681 0.237781 0.715061 7959924 3
-0.018941 0.237781 0.715061 8420991 3
-0.007153 0.236235 0.710413 8420991 3
-0.018685 0.246149 0.705398 7499889 3
-0.007103 0.246149 0.705398 8157819 3
-0.297920 0.208829 0.737196 6579552 3
-0.274658 0.200677 0.708418 6974310 3
-0.262720 0.200443 0.707593 7237228 3
-0.250678 0.200104 0.706396 7237232 3
-0.271809 0.210106 0.701068 6053207 3
-0.203957 0.211363 0.705263 7237230 3
-0.313179 0.182460 0.644109 5988701 3
-0.300363 0.181109 0.639341 5790295 3
-0.331252 0.197506 0.659025 6054748 3
-0.319096 0.196682 0.656277 5857115 3
-0.302758 0.193134 0.644438 6053467 3
0.462534 0.212438 0.796080 5592666 3
0.437227 0.213170 0.752522 4868943 3
0.432957 0.205288 0.724695 5592667 3
0.435494 0.200967 0.709443 5592153 3
0.418193 0.221982 0.740695 5987425 3
0.418575 0.215905 0.720420 6382183 3
0.423845 0.212616 0.709443 5460827 3
0.311884 0.237017 0.888183 6646122 3
0.307922 0.248403 0.876898 6711913 3
0.338921 0.250029 0.882636 6843501 3
0.338159 0.239237 0.844539 6514536 3
0.342230 0.232580 0.821040 7106673 3
0.355918 0.232716 0.821519 6382180 3
0.384769 0.242393 0.855682 6185055 3
0.300723 0.256657 0.856398 7040878 3
0.319636 0.260613 0.869597 7172977 3
0.318564 0.248632 0.829621 7040880 3
0.326578 0.244435 0.815617 6646120 3
0.300781 0.258675 0.818300 6975087 3
0.215232 0.213474 0.799959 7171696 3
0.226855 0.212060 0.794662 6908524 3
0.209870 0.220963 0.780030 7303282 3
0.211108 0.209482 0.739501 7500661 3
0.231724 0.217434 0.767572 7237489 3
0.252398 0.224617 0.792929 6908778 3
0.209260 0.233091 0.777763 7500661 3
0.209023 0.219436 0.732200 7303282 3
0.224459 0.222825 0.743508 7434868 3
0.242994 0.228782 0.763385 7171950 3
0.258460 0.231407 0.772144 6908776 3
0.207026 0.229246 0.725203 7501431 3
0.219887 0.230245 0.728365 7961212 3
0.232191 0.230588 0.729449 7632501 3
0.251253 0.237278 0.750613 7763574 3
0.283115 0.223514 0.707070 7106155 3
0.251141 0.237826 0.715197 7631990 3
0.271512 0.245632 0.738672 7237489 3
0.280317 0.242754 0.730017 7040364 3
0.205025 0.231619 0.867956 7237230 3
0.211286 0.223179 0.836329 7039851 3
0.255951 0.226246 0.847822 6842731 3
0.254653 0.213488 0.800012 6842985 3
0.273011 0.217652 0.815617 6119262 3
0.208516 0.233805 0.825365 6974317 3
0.268811 0.227489 0.803069 7106157 3
0.204593 0.242703 0.809836 7566454 3
0.289418 0.260541 0.824202 7368818 3
0.103629 0.200825 0.752561 7237230 3
0.118058 0.204414 0.766011 6974058 3
0.130260 0.216369 0.763812 7368818 3
0.147988 0.224228 0.791555 6710634 3
0.142398 0.228263 0.761655 7369077 3
0.159856 0.235561 0.786007 6973806 3
0.142792 0.221943 0.702102 7829369 3
0.157889 0.227077 0.718341 7763574 3
0.171864 0.229995 0.727572 7368818 3
0.188537 0.235909 0.746281 7566454 3
0.199124 0.233951 0.740089 7501431 3
0.069693 0.210278 0.787986 7763576 3
0.082108 0.208946 0.782992 8223614 3
0.093683 0.206129 0.772437 7960953 3
0.004588 0.204677 0.722537 7697781 3
0.016356 0.203488 0.718341 7763574 3
0.028329 0.204783 0.722914 8356224 3
0.040315 0.205372 0.724993 8158845 3
0.051889 0.204077 0.720420 7764601 3
0.063136 0.202216 0.713852 8092541 3
0.075114 0.202910 0.716301 8552579 3
0.087122 0.203488 0.718341 8224125 3
0.004536 0.214070 0.714297 8026744 3
0.016337 0.215040 0.717532 7960951 3
0.027643 0.211403 0.705398 7829878 3
0.039225 0.211403 0.705398 7829878 3
0.050807 0.211403 0.705398 7567222 3
0.062389 0.211403 0.705398 7960955 3
0.073971 0.211403 0.705398 7960442 3
0.086087 0.212725 0.709807 8553090 3
0.004682 0.233095 0.737378 8552577 3
0.016998 0.235988 0.746532 8552577 3
0.027643 0.222985 0.705398 8092539 3
0.039225 0.222985 0.705398 8158332 3
0.050807 0.222985 0.705398 8487299 3
0.062389 0.222985 0.705398 8289920 3
0.073971 0.222985 0.705398 7960955 3
0.004479 0.234567 0.705398 8157819 3
0.016052 0.234436 0.705005 8355198 3
0.004477 0.246012 0.705005 8815749 3
0.005233 0.219943 0.824202 7697781 3
0.018632 0.218368 0.818300 7303023 3
0.031962 0.217652 0.815617 7237743 3
0.045354 0.217652 0.815617 7435122 3
0.057921 0.214598 0.804173 7238257 3
-0.088562 0.217652 0.815617 7106157 3
-0.075484 0.218559 0.819015 7171950 3
-0.067460 0.237666 0.890616 7763574 3
-0.053212 0.239352 0.896934 7698292 3
-0.035471 0.220609 0.826699 7632499 3
-0.021301 0.214598 0.804173 7369329 3
-0.008220 0.217839 0.816318 7698294 3
-0.144662 0.202456 0.758672 7303532 3
-0.185587 0.205076 0.723949 6974569 3
-0.173951 0.205372 0.724993 7171948 3
-0.162142 0.205492 0.725416 7106157 3
-0.152576 0.208698 0.736733 7434609 3
-0.141312 0.209935 0.741099 7434607 3
-0.127055 0.206539 0.729112 7106153 3
-0.124836 0.224042 0.790901 6777958 3
-0.111850 0.224042 0.790901 7237739 3
-0.196001 0.215344 0.718548 7039592 3
-0.185641 0.217026 0.724159 7763574 3
-0.174660 0.218161 0.727945 7829880 3
-0.161395 0.216400 0.722071 7369329 3
-0.151327 0.218988 0.730705 7763574 3
-0.139372 0.219055 0.730929 7434609 3
-0.125178 0.215282 0.718341 7500913 3
-0.113027 0.214607 0.716086 8093050 3
-0.101154 0.214361 0.715266 7763826 3
-0.193672 0.224443 0.710010 8025719 3
-0.184524 0.227538 0.719801 7895160 3
-0.173901 0.229113 0.724784 7829365 3
-0.161301 0.228123 0.721652 8421502 3
-0.149495 0.228189 0.721861 8026744 3
-0.138083 0.228919 0.724169 7500915 3
-0.124040 0.225013 0.711811 7434607 3
-0.112003 0.224313 0.709597 8289916 3
-0.100210 0.223994 0.708590 9013380 3
-0.181709 0.235705 0.708819 8092280 3
-0.170598 0.236436 0.711017 8355452 3
-0.134926 0.235303 0.707610 7763572 3
-0.280126 0.192808 0.722520 6974569 3
-0.262795 0.188879 0.707794 7566708 3
-0.252599 0.189951 0.711811 7566708 3
-0.240912 0.189951 0.711811 7171948 3
-0.238675 0.199766 0.705201 6842472 3
-0.226141 0.198925 0.702235 6579298 3
-0.214611 0.198925 0.702235 6710886 3
0.514014 0.258013 1.030253 5330009 3
0.530930 0.258013 1.030253 5526874 3
0.540893 0.254739 1.017179 5066322 3
0.506552 0.280157 1.049846 6053987 3
0.539110 0.288352 1.080554 5922146 3
0.559479 0.289712 1.085652 5790045 3
0.527147 0.299301 1.056575 5593181 3
0.120185 0.218580 0.872793 7368816 3
0.132610 0.215483 0.860431 6842472 3
0.136943 0.214285 0.802999 7302512 3
0.157045 0.224158 0.839997 6973549 3
0.175735 0.230585 0.864081 6841961 3
0.191221 0.232162 0.869991 6973545 3
0.167247 0.232950 0.822346 7039340 3
0.183084 0.235959 0.832970 7237232 3
0.196761 0.235959 0.832970 7105646 3
0.178870 0.243889 0.813796 7500404 3
0.193295 0.245239 0.818300 7566454 3
0.039154 0.250219 0.999130 7105903 3
0.053512 0.241002 0.962328 7171696 3
0.068205 0.237153 0.946959 7106671 3
0.083436 0.236253 0.943364 7368818 3
0.096552 0.230587 0.920740 6841961 3
-0.140300 0.222607 0.888874 6317920 3
-0.117177 0.207503 0.828563 6119258 3
-0.105507 0.211379 0.844042 6843499 3
-0.146398 0.224189 0.840114 6975336 3
-0.134756 0.227829 0.853752 6646372 3
-0.115288 0.217544 0.815212 7040360 3
-0.101464 0.216606 0.811696 7106157 3
0.802076 0.222467 0.950643 3816507 3
0.802839 0.243032 0.970433 3618874 3
0.815587 0.242086 0.966657 3092530 3
0.811043 0.236142 0.942922 3158323 3
0.878408 0.225610 0.900865 3947582 3
0.809712 0.261182 0.978740 4408390 3
0.818773 0.258966 0.970433 3618874 3
0.804559 0.249612 0.935383 3816253 3
0.802839 0.274899 0.970433 3553083 3
0.801001 0.258857 0.913803 3618876 3
0.889960 0.262976 0.928344 3421498 3
0.675795 0.207646 0.887307 4473926 3
0.683455 0.268935 0.897366 4079425 3
0.654472 0.271639 0.859311 5000529 3
0.637383 0.278287 0.836874 5197908 3
0.690891 0.289181 0.869634 4869970 3
0.685022 0.280918 0.844787 4672334 3
0.691432 0.277920 0.835769 5197908 3
0.697707 0.274985 0.826942 5592153 3
0.628241 0.287839 0.824869 5395285 3
0.681001 0.299115 0.857185 4738638 3
0.675440 0.290666 0.832970 5396055 3
0.684130 0.288562 0.826942 5329494 3
0.485676 0.207336 0.885984 5067092 3
0.489330 0.217051 0.866690 5658459 3
0.478663 0.206319 0.823839 5263701 3
0.489330 0.231281 0.866690 5658459 3
0.466453 0.234034 0.826172 5132115 3
0.446339 0.244018 0.814224 6053218 3
0.510173 0.231672 0.989975 5001046 3
0.507672 0.223418 0.954705 4540493 3
0.510736 0.233332 0.931699 5724252 3
0.524913 0.263421 0.987128 5921631 3
0.510736 0.248629 0.931699 5592666 3
0.514028 0.273829 0.966657 5987424 3
0.512755 0.264970 0.935383 5526873 3
0.104777 0.233824 0.999174 6974058 3
0.119174 0.229949 0.982612 6842472 3
0.134774 0.229043 0.978740 6973545 3
0.153503 0.233080 0.995994 6710373 3
0.109550 0.226210 0.903261 7237230 3
0.155145 0.227829 0.909726 7039340 3
0.177193 0.237355 0.947764 7039342 3
0.199269 0.245377 0.979798 6710373 3
0.006905 0.254492 1.087489 6382434 3
0.024761 0.254492 1.087489 6776679 3
0.041444 0.247493 1.057583 6710888 3
0.057016 0.239949 1.025347 5856606 3
0.073241 0.237966 1.016873 6514020 3
0.089937 0.237966 1.016873 7106157 3
0.006629 0.261453 1.043989 7171439 3
0.023770 0.261453 1.043989 7763576 3
-0.074135 0.229043 0.978740 6580840 3
-0.057091 0.225202 0.962328 6251873 3
-0.040971 0.223456 0.954868 6580581 3
-0.025293 0.223456 0.954868 6580327 3
-0.054629 0.230610 0.920830 6908776 3
-0.039294 0.229345 0.915780 6908776 3
-0.024470 0.231352 0.923793 7435122 3
-0.392429 0.210167 0.898081 6446685 3
-0.373269 0.207711 0.887586 6249306 3
-0.356311 0.206330 0.881684 5921370 3
-0.389918 0.223473 0.892335 6644834 3
-0.366903 0.218493 0.872448 6184283 3
-0.348591 0.216022 0.862582 6710627 3
-0.348309 0.224988 0.898384 6448225 3
-0.334155 0.225391 0.899991 5461332 3
-0.377051 0.230267 0.862888 5723989 3
-0.337726 0.214304 0.803069 6250333 3
-0.448837 0.208968 0.892960 5263951 3
-0.434321 0.209038 0.893259 5329744 3
-0.449654 0.224037 0.894585 5133133 3
-0.434321 0.223705 0.893259 5725272 3
-0.422162 0.231698 0.868252 5199185 3
-0.415798 0.236181 0.885051 6119260 3
-0.403120 0.237272 0.889139 5987161 3
-0.487529 0.213063 0.910456 4935756 3
-0.472241 0.212910 0.909802 4869193 3
-0.423742 0.211075 0.901960 5592916 3
-0.410399 0.211831 0.905193 6250074 3
-0.497893 0.240225 0.959224 5856856 3
-0.423742 0.225884 0.901960 5987674 3
-0.408777 0.225798 0.901617 6513248 3
0.407963 0.212973 0.978740 5461080 3
0.411184 0.206519 0.949081 5000527 3
0.424196 0.205275 0.943364 5658457 3
0.439685 0.205275 0.943364 5461846 3
0.476403 0.207778 0.954868 5592153 3
0.492081 0.207778 0.954868 4868944 3
0.407963 0.229043 0.978740 5395285 3
0.411814 0.222442 0.950535 5329746 3
0.421815 0.219525 0.938068 5658457 3
0.439685 0.220764 0.943364 4803916 3
0.456427 0.221371 0.945960 5658457 3
0.493522 0.231486 0.989181 5526874 3
0.406919 0.235220 0.939238 5790295 3
0.421030 0.234490 0.936324 5921881 3
0.444246 0.238704 0.953150 5592664 3
0.400906 0.246937 0.925359 6185053 3
0.422618 0.250806 0.939854 6053469 3
0.449001 0.257076 0.963353 6184801 3
0.432685 0.262976 0.928344 6184801 3
0.460725 0.270490 0.954868 6317159 3
-0.357143 0.200445 0.921167 6052954 3
-0.344042 0.201631 0.926618 5987161 3
-0.349508 0.214312 0.984896 5789782 3
-0.335447 0.215668 0.991129 5526610 3
-0.353119 0.213141 0.910789 6185053 3
-0.340018 0.214309 0.915780 6053467 3
-0.334518 0.220598 0.942653 6382432 3
-0.323299 0.223542 0.955235 6514018 3
-0.316370 0.229904 0.982423 6908267 3
-0.327220 0.230925 0.922089 5724504 3
-0.315839 0.233706 0.933193 6579811 3
-0.315328 0.245225 0.979188 6776677 3
-0.488283 0.192518 0.884737 5395535 3
-0.476449 0.193611 0.889764 5330514 3
-0.464479 0.194718 0.894848 5263951 3
-0.442205 0.191436 0.879766 5658709 3
-0.430177 0.192518 0.884737 5000779 3
-0.595821 0.215668 0.991129 4277826 3
-0.579548 0.215668 0.991129 4277826 3
-0.563274 0.215668 0.991129 4277054 3
-0.598050 0.232810 0.994838 4606789 3
-0.572303 0.229043 0.978740 4672841 3
-0.556233 0.229043 0.978740 4738375 3
-0.514254 0.218056 0.931795 5066570 3
-0.588373 0.245112 0.978740 5001295 3
-0.572303 0.245112 0.978740 5198928 3
-0.556233 0.245112 0.978740 4606791 3
-0.540163 0.245112 0.978740 4146240 3
-0.524093 0.245112 0.978740 4936013 3
0.303050 0.201951 1.003836 6118751 3
0.336014 0.201951 1.003836 6249822 3
0.357074 0.204574 1.016873 5855577 3
0.373770 0.204574 1.016873 5921629 3
0.390466 0.204574 1.016873 5263699 3
0.368978 0.218433 1.003836 5855836 3
-0.250490 0.210029 1.043989 6250333 3
-0.234915 0.211439 1.050996 6052954 3
-0.297941 0.224182 1.030253 7434861 3
-0.292575 0.233395 1.072592 6381919 3
-0.262384 0.222716 1.023519 6908006 3
-0.248831 0.225666 1.037076 6645345 3
-0.231803 0.225666 1.037076 6776931 3
-0.292175 0.236431 1.010312 6513759 3
-0.275586 0.236431 1.010312 5855575 3
-0.258998 0.236431 1.010312 6052697 3
-0.242410 0.236431 1.010312 5987161 3
-0.225821 0.236431 1.010312 6710884 3
-0.292175 0.253019 1.010312 7171437 3
-0.275476 0.252918 1.009908 6842983 3
-0.257442 0.251499 1.004241 6645602 3
-0.242410 0.253019 1.010312 7040362 3
-0.224826 0.251904 1.005860 6711399 3
-0.215618 0.260740 1.041141 7303025 3
0.537248 0.130330 0.705398 4209473 3
0.525666 0.141912 0.705398 4539206 3
0.507071 0.154889 0.711811 4868941 3
0.523517 0.156310 0.718341 4013121 3
0.550462 0.160734 0.738672 3947328 3
0.510269 0.167627 0.716301 4671564 3
0.530245 0.170265 0.727572 4934736 3
0.548854 0.172357 0.736514 4539465 3
0.510269 0.179388 0.716301 4737357 3
0.530245 0.182211 0.727572 3882818 3
0.548854 0.184450 0.736514 3948611 3
0.507071 0.189951 0.711811 4342599 3
0.522030 0.191149 0.716301 4474955 3
0.545728 0.195423 0.732319 4342599 3
0.501798 0.199541 0.704410 4408390 3
0.202320 0.219191 1.186352 5724504 3
0.299714 0.219191 1.186352 6118749 3
0.221799 0.238670 1.186352 5855577 3
0.215275 0.250556 1.151459 6579300 3
0.241278 0.258149 1.186352 6710373 3
0.290899 0.250556 1.151459 6052956 3
0.296714 0.239969 1.102806 6710886 3
0.231089 0.265904 1.136255 7302764 3
0.253087 0.269462 1.151459 7236971 3
0.269283 0.266777 1.139986 7039851 3
0.281131 0.260414 1.112795 6513507 3
0.104927 0.219191 1.186352 5329746 3
0.143884 0.219191 1.186352 5789784 3
0.163363 0.219191 1.186352 5790297 3
0.182842 0.219191 1.186352 5921883 3
0.103361 0.235108 1.168645 5921883 3
0.122549 0.235108 1.168645 6118749 3
0.139652 0.231650 1.151459 6316128 3
0.158558 0.231650 1.151459 6250335 3
0.177464 0.231650 1.151459 6250335 3
0.199301 0.235108 1.168645 6118749 3
0.101841 0.250556 1.151459 6382434 3
0.120746 0.250556 1.151459 6447714 3
0.137628 0.246925 1.134771 6513507 3
0.156260 0.246925 1.134771 6710886 3
0.174892 0.246925 1.134771 6118749 3
0.193524 0.246925 1.134771 7105644 3
-0.055076 0.237158 1.283594 5921883 3
-0.033452 0.233332 1.262890 5856090 3
-0.012319 0.226041 1.223425 5987161 3
-0.074923 0.254068 1.262890 6383202 3
-0.052494 0.246128 1.223425 6316641 3
-0.032406 0.246128 1.223425 6908778 3
-0.012319 0.246128 1.223425 6974571 3
-0.095658 0.274803 1.262890 6119776 3
-0.072581 0.266216 1.223425 5527893 3
-0.052494 0.266216 1.223425 6317409 3
-0.032406 0.266216 1.223425 5921883 3
-0.012129 0.262120 1.204603 5658711 3
-0.391351 0.203755 1.102806 5131854 3
-0.378576 0.206666 1.118560 5329231 3
-0.355137 0.203755 1.102806 5263951 3
-0.321185 0.205200 1.110627 3947578 3
-0.318923 0.221862 1.102806 6316126 3
-0.309535 0.228293 1.134771 6512994 3
-0.756699 0.209661 1.134771 3487542 3
-0.743455 0.211191 1.143054 3618617 3
-0.724687 0.211191 1.143054 4604999 3
-0.716377 0.214320 1.159988 4736583 3
-0.722364 0.223436 1.110627 4408133 3
0.457918 0.110765 0.657977 2763054 3
0.486537 0.129166 0.699100 3684408 3
0.468721 0.121568 0.657977 4013373 3
0.498016 0.140645 0.699100 3618617 3
0.459478 0.162154 0.692913 4737357 3
0.473745 0.163149 0.697167 4605769 3
0.450624 0.174508 0.696815 4868430 3
0.459478 0.173531 0.692913 3684670 3
0.471118 0.173628 0.693300 3948611 3
0.449351 0.185424 0.694847 3815742 3
0.459478 0.184908 0.692913 4014149 3
0.471521 0.185169 0.693893 4474955 3
0.439183 0.197390 0.696815 5591896 3
0.442743 0.193938 0.684628 5131602 3
0.451487 0.192871 0.680863 4803665 3
0.465977 0.194252 0.685735 5132885 3
0.244990 0.202785 1.204603 5000268 3
0.264768 0.202785 1.204603 5526614 3
0.225211 0.222563 1.204603 5658711 3
0.244990 0.222563 1.204603 5526614 3
0.268905 0.226041 1.223425 5065552 3
0.284546 0.222563 1.204603 6052958 3
0.248818 0.246128 1.223425 6315617 3
0.268905 0.246128 1.223425 5328722 3
0.288992 0.246128 1.223425 6118751 3
0.268905 0.266216 1.223425 6381408 3
0.284546 0.262120 1.204603 6579300 3
-0.393575 0.233244 1.535279 4013632 3
-0.383403 0.242764 1.597943 4934734 3
-0.368368 0.258451 1.535279 3882300 3
-0.357166 0.269000 1.597943 4737609 3
-0.330930 0.269000 1.597943 4605771 3
-0.304693 0.269000 1.597943 4671564 3
-0.317952 0.283659 1.535279 5000527 3
0.728088 0.114701 0.846478 1775649 3
0.737997 0.114084 0.841927 2038823 3
0.743823 0.112871 0.832970 3025464 3
0.749526 0.111682 0.824202 2630960 3
0.755110 0.110519 0.815617 2763055 3
0.768501 0.110519 0.815617 2368297 3
0.728088 0.128599 0.846478 2894128 3
0.746019 0.129298 0.851078 2828337 3
0.759993 0.129298 0.851078 2894132 3
0.773967 0.129298 0.851078 2433581 3
0.796599 0.130719 0.860431 3223093 3
0.768501 0.123911 0.815617 2959921 3
0.781893 0.123911 0.815617 2499370 3
0.711835 0.144846 0.860431 2960176 3
0.736045 0.144055 0.855729 3946301 3
0.750096 0.144055 0.855729 4275267 3
0.764146 0.144055 0.855729 3288120 3
0.778196 0.144055 0.855729 3419706 3
0.796599 0.144846 0.860431 3486265 3
0.711835 0.158974 0.860431 2170917 3
0.710350 0.155555 0.841927 2434343 3
0.740090 0.158974 0.860431 2828588 3
0.758384 0.159852 0.865185 3486265 3
0.772589 0.159852 0.865185 2236200 3
0.782472 0.158974 0.860431 2565167 3
0.744563 0.181060 0.899991 3092019 3
0.725962 0.173101 0.860431 2894892 3
0.740090 0.173101 0.860431 3092273 3
0.754217 0.173101 0.860431 3486777 3
0.768344 0.173101 0.860431 2434092 3
0.782472 0.173101 0.860431 2697010 3
0.796599 0.173101 0.860431 2170666 3
0.759340 0.195837 0.899991 3552822 3
0.740090 0.187229 0.860431 3355702 3
0.737997 0.183202 0.841927 3487290 3
0.751821 0.183202 0.841927 2829361 3
0.757499 0.181253 0.832970 3026488 3
0.792246 0.186206 0.855729 2368045 3
0.748505 0.199831 0.853914 3093300 3
0.738440 0.193519 0.826942 3027254 3
0.749526 0.192878 0.824202 3290428 3
0.783125 0.197950 0.845877 2631728 3
0.674760 0.110519 0.815617 2301993 3
0.695395 0.111682 0.824202 2367786 3
0.695395 0.125215 0.824202 2696749 3
0.695395 0.138748 0.824202 3091762 3
0.627732 0.165813 0.824202 4078657 3
0.446010 0.104018 0.767639 2961461 3
0.458614 0.104018 0.767639 3158842 3
0.446010 0.116622 0.767639 3422267 3
0.454161 0.115490 0.760186 3684416 3
0.459526 0.133142 0.790901 3356472 3
0.458614 0.129226 0.767639 2960947 3
0.466643 0.127971 0.760186 3816256 3
0.459526 0.146127 0.790901 3882046 3
0.458614 0.141830 0.767639 4276806 3
0.466643 0.140453 0.760186 4079427 3
0.465564 0.136478 0.738672 4276293 3
0.464545 0.132721 0.718341 3815742 3
0.476339 0.132721 0.718341 3947582 3
0.479339 0.130330 0.705398 3421238 3
0.464215 0.160737 0.798972 3947839 3
0.467786 0.157522 0.782992 4079427 3
0.475883 0.155962 0.775240 4671564 3
0.465564 0.148606 0.738672 3749949 3
0.460322 0.143202 0.711811 4539465 3
0.472009 0.143202 0.711811 4210754 3
0.479339 0.141912 0.705398 4737096 3
0.495384 0.143202 0.711811 4802889 3
0.472511 0.172099 0.790901 5329492 3
0.480642 0.170378 0.782992 5066320 3
0.469998 0.162265 0.745707 4671051 3
0.456175 0.153494 0.705398 5000017 3
0.467757 0.153494 0.705398 5395287 3
0.479339 0.153494 0.705398 5066320 3
0.495384 0.154889 0.711811 5000781 3
0.473877 0.185620 0.793187 5000781 3
0.471018 0.179565 0.767313 5461078 3
0.460992 0.171165 0.731418 4671051 3
0.453240 0.164014 0.700860 5065810 3
0.492619 0.165647 0.707839 4539976 3
0.470693 0.197308 0.787858 5461078 3
0.454678 0.185497 0.740695 4934477 3
0.448452 0.178191 0.711522 4736587 3
0.489830 0.176265 0.703831 4276804 3
0.445299 0.198902 0.745353 5000527 3
0.440776 0.191615 0.718048 5394774 3
0.443127 0.187619 0.703072 5131345 3
0.494683 0.189682 0.710804 4737355 3
0.488037 0.198648 0.701255 4540230 3
0.401942 0.136023 1.003836 3289909 3
0.401942 0.152505 1.003836 3487290 3
0.418424 0.152505 1.003836 3882049 3
0.403569 0.176926 1.050996 5986652 3
0.407162 0.171182 1.016873 5329494 3
0.418424 0.168987 1.003836 4671565 3
0.401942 0.185469 1.003836 5526873 3
0.182842 0.160755 1.186352 5329746 3
0.199301 0.158356 1.168645 4737096 3
0.182842 0.180234 1.186352 5132367 3
0.163363 0.199712 1.186352 5987676 3
0.182842 0.199712 1.186352 5658711 3
-0.092904 0.212197 1.565984 4276547 3
-0.067192 0.212197 1.565984 4539717 3
-0.042327 0.216527 1.597943 4211265 3
-0.091082 0.233244 1.535279 4868684 3
-0.065875 0.233244 1.535279 4737096 3
-0.089331 0.253481 1.505754 4802891 3
-0.488770 0.151569 1.118560 3552824 3
-0.470404 0.151569 1.118560 4144961 3
-0.452039 0.151569 1.118560 3618363 3
-0.433673 0.151569 1.118560 3618363 3
-0.415307 0.151569 1.118560 3552824 3
-0.405634 0.154888 1.143054 3684406 3
-0.401520 0.160755 1.186352 3881787 3
-0.470404 0.169935 1.118560 3815996 3
-0.452039 0.169935 1.118560 3749690 3
-0.402695 0.172397 1.134771 5789786 3
-0.409458 0.185648 1.102806 5197649 3
-0.402695 0.191029 1.134771 4276547 3
-0.615786 0.160755 1.186352 2894381 3
-0.663540 0.191029 1.134771 3684147 3
-0.644908 0.191029 1.134771 4209721 3
-0.626276 0.191029 1.134771 4211004 3
-0.607645 0.191029 1.134771 4145218 3
0.410043 0.104767 0.879766 3618364 3
0.424488 0.104767 0.879766 3026739 3
0.438933 0.104767 0.879766 2895405 3
0.410043 0.119212 0.879766 3684670 3
0.415159 0.116592 0.860431 4079427 3
0.411211 0.111682 0.824202 3224370 3
0.424744 0.111682 0.824202 3816507 3
0.438276 0.111682 0.824202 3093302 3
0.447102 0.110519 0.815617 2830130 3
0.460494 0.110519 0.815617 3093302 3
0.424488 0.133656 0.879766 3224116 3
0.411211 0.125215 0.824202 3816507 3
0.448341 0.132171 0.869991 4342597 3
0.460069 0.131441 0.865185 3290426 3
0.472807 0.127224 0.837425 3027507 3
0.429312 0.149784 0.889764 4408390 3
0.443921 0.149784 0.889764 4013886 3
0.465209 0.147274 0.874852 3750977 3
0.466542 0.143272 0.851078 4606539 3
0.472807 0.140973 0.837425 4409158 3
0.424620 0.157246 0.851078 4868171 3
0.438594 0.157246 0.851078 5000270 3
0.460069 0.159852 0.865185 4079942 3
0.464020 0.156396 0.846478 3553853 3
0.467804 0.153086 0.828563 3553083 3
0.443414 0.173101 0.860431 5658459 3
0.460069 0.174058 0.865185 4737872 3
0.447102 0.164086 0.815617 4540748 3
0.460494 0.164086 0.815617 5132115 3
0.462625 0.189309 0.869991 5001044 3
0.461525 0.183202 0.841927 5132885 3
0.460494 0.177477 0.815617 5329494 3
0.473886 0.177477 0.815617 5329492 3
0.480300 0.199078 0.850697 5197908 3
0.478663 0.192793 0.823839 5197906 3
0.402927 0.115114 0.966657 3092532 3
0.418798 0.115114 0.966657 2434090 3
0.409398 0.108421 0.910456 3092020 3
0.402927 0.130986 0.966657 2763568 3
0.418798 0.130986 0.966657 2960693 3
0.409398 0.123370 0.910456 3157813 3
0.429401 0.150575 0.991129 3882049 3
0.434670 0.146857 0.966657 3355704 3
0.424347 0.138319 0.910456 3882048 3
0.424033 0.164763 0.978740 3882563 3
0.434670 0.162729 0.966657 4211783 3
0.450541 0.162729 0.966657 4408392 3
0.466481 0.152382 0.905193 4671564 3
0.415759 0.184288 0.997442 5197909 3
0.421400 0.179710 0.972661 4671311 3
0.432003 0.177504 0.960726 4934736 3
0.442350 0.175353 0.949081 5329492 3
0.439296 0.168216 0.910456 4934477 3
0.411184 0.190936 0.949081 5855839 3
0.424196 0.189786 0.943364 5658457 3
0.439685 0.189786 0.943364 5329746 3
0.439296 0.183165 0.910456 5789786 3
0.454245 0.183165 0.910456 4868684 3
0.439296 0.198114 0.910456 5790043 3
0.346750 0.112340 0.943364 3026739 3
0.362240 0.112340 0.943364 3092532 3
0.380581 0.134302 0.991129 3684156 3
0.315487 0.199395 0.991129 6513509 3
0.384681 0.193279 0.960726 5987424 3
0.398013 0.192100 0.954868 5526874 3
0.069663 0.149188 1.252787 4409160 3
0.028524 0.169757 1.252787 4539976 3
0.049094 0.169757 1.252787 4211011 3
0.070225 0.171126 1.262890 3817023 3
0.088812 0.167084 1.233058 4013632 3
0.069663 0.190327 1.252787 5067090 3
0.088812 0.187330 1.233058 4868941 3
-0.222445 0.211914 1.779528 4210752 3
-0.280881 0.241132 1.779528 4802637 3
-0.251663 0.241132 1.779528 4539715 3
-0.217502 0.235774 1.739982 4803402 3
-0.274639 0.264343 1.739982 4342597 3
-0.251663 0.270351 1.779528 4803400 3
-0.217502 0.264343 1.739982 4737607 3
-0.246071 0.292912 1.739982 4474433 3
-0.217502 0.292912 1.739982 4804168 3
-0.396942 0.133203 1.118560 2960683 3
-0.378576 0.133203 1.118560 3487027 3
-0.395527 0.177544 1.168645 5131854 3
-0.373552 0.176228 1.159988 4277056 3
-0.354506 0.176228 1.159988 4671814 3
-0.335460 0.176228 1.159988 4211265 3
-0.318775 0.177544 1.168645 4539978 3
-0.384063 0.191029 1.134771 5329233 3
-0.370805 0.193839 1.151459 4079677 3
-0.346799 0.191029 1.134771 5263951 3
-0.330563 0.192424 1.143054 4869193 3
-0.395534 0.116553 0.978740 3355191 3
-0.396727 0.158807 0.943364 5066061 3
-0.372267 0.155071 0.921167 4539206 3
-0.355054 0.154164 0.915780 4934475 3
-0.394351 0.173253 0.937715 4407618 3
-0.376699 0.172222 0.932133 6315617 3
-0.363558 0.173253 0.937715 5526612 3
-0.389684 0.186417 0.926618 5394513 3
-0.372267 0.185320 0.921167 6513509 3
-0.359256 0.186417 0.926618 5066061 3
-0.350259 0.189786 0.943364 5000266 3
-0.395536 0.196969 0.905193 5131595 3
-0.382887 0.198114 0.910456 5986136 3
-0.367938 0.198114 0.910456 5987163 3
-0.454137 0.115114 0.966657 3224370 3
-0.420112 0.110346 0.926618 3092273 3
-0.414714 0.113021 0.949081 2960687 3
-0.404028 0.114408 0.960726 2763054 3
-0.435327 0.125560 0.926618 3487542 3
-0.420112 0.125560 0.926618 3552822 3
-0.437918 0.141612 0.932133 4013884 3
-0.422613 0.141612 0.932133 3619128 3
-0.417243 0.145066 0.954868 3487029 3
-0.455936 0.157857 0.937715 4671814 3
-0.440540 0.157857 0.937715 5132365 3
-0.420112 0.155988 0.926618 5001549 3
-0.407308 0.156917 0.932133 5000781 3
-0.495633 0.176422 0.954868 3948093 3
-0.468527 0.172222 0.932133 5000779 3
-0.453222 0.172222 0.932133 4277056 3
-0.440540 0.173253 0.937715 4540228 3
-0.420112 0.171203 0.926618 4606537 3
-0.407308 0.172222 0.932133 4605510 3
-0.487529 0.183165 0.910456 5000781 3
-0.475344 0.184236 0.915780 4671816 3
-0.454986 0.182106 0.905193 4342849 3
-0.440124 0.182106 0.905193 4145470 3
-0.432766 0.185320 0.921167 4342849 3
-0.417641 0.185320 0.921167 4671814 3
-0.402516 0.185320 0.921167 5000268 3
-0.425261 0.196969 0.905193 4540228 3
-0.410399 0.196969 0.905193 4934473 3
-0.778014 0.154120 1.294202 2697261 3
-0.750562 0.152856 1.283594 3158064 3
-0.729486 0.152856 1.283594 2565414 3
-0.795729 0.165779 1.223425 1973026 3
-0.799264 0.175369 1.294202 2762542 3
-0.759191 0.171126 1.262890 2763054 3
-0.738456 0.171126 1.262890 2960172 3
-0.769629 0.184425 1.213941 2104612 3
-0.779927 0.191862 1.262890 2236710 3
-0.753118 0.190327 1.252787 2829101 3
-0.715379 0.185866 1.223425 3486770 3
-0.717720 0.191862 1.262890 3486768 3
-0.708411 0.195007 1.283594 3355184 3
-1.274296 0.211914 1.779528 2368297 3
-1.204031 0.204928 1.720862 2170918 3
-1.288796 0.233183 1.720862 2631468 3
-1.288868 0.238423 1.759533 2829361 3
-1.259978 0.238423 1.759533 1710369 3
-1.274787 0.258596 1.702157 2105637 3
-1.288868 0.267313 1.759533 2500396 3
-1.232286 0.261438 1.720862 2105384 3
0.735817 0.073749 0.718341 1578783 3
0.761586 0.075127 0.731768 1184025 3
0.750617 0.093242 0.782992 1841953 3
0.705754 0.084766 0.711811 1710626 3
0.724023 0.085543 0.718341 1513247 3
0.756643 0.087964 0.738672 1908005 3
0.761586 0.087142 0.731768 2434349 3
0.773601 0.087142 0.731768 1249564 3
0.764190 0.084766 0.711811 1446684 3
0.761586 0.099157 0.731768 1447454 3
0.752503 0.096453 0.711811 1841444 3
0.237677 0.119980 1.168645 2960433 3
0.256865 0.119980 1.168645 3749950 3
0.276053 0.119980 1.168645 2763314 3
0.218489 0.139168 1.168645 4210752 3
0.237677 0.139168 1.168645 3355443 3
0.253087 0.137121 1.151459 3092019 3
0.276053 0.139168 1.168645 3289912 3
0.295240 0.139168 1.168645 4013635 3
0.218489 0.158356 1.168645 4868682 3
0.237677 0.158356 1.168645 4802889 3
0.256865 0.158356 1.168645 3881535 3
0.276053 0.158356 1.168645 4145221 3
0.295240 0.158356 1.168645 4671565 3
0.202320 0.180234 1.186352 4934475 3
0.218489 0.177544 1.168645 5066061 3
0.237677 0.177544 1.168645 5066061 3
0.256865 0.177544 1.168645 5526614 3
0.276053 0.177544 1.168645 5263701 3
0.295240 0.177544 1.168645 4737355 3
0.202320 0.199712 1.186352 5921370 3
0.221799 0.199712 1.186352 5329233 3
0.280235 0.199712 1.186352 4605771 3
0.299714 0.199712 1.186352 5263699 3
0.191548 0.127597 1.242845 3421236 3
0.150736 0.148004 1.242845 3289909 3
0.171142 0.148004 1.242845 3684921 3
0.185654 0.143450 1.204603 3487542 3
0.109058 0.167084 1.233058 4145472 3
0.128293 0.165779 1.223425 4079679 3
0.148380 0.165779 1.223425 4737355 3
0.165876 0.163228 1.204603 4869195 3
0.108206 0.185866 1.223425 5132367 3
0.128293 0.185866 1.223425 4803402 3
0.146098 0.183007 1.204603 4803148 3
0.165876 0.183007 1.204603 5132367 3
-0.389194 0.103059 1.003836 2368558 3
-0.377552 0.104398 1.016873 2369579 3
-0.365604 0.105772 1.030253 2698024 3
-0.389194 0.119541 1.003836 3092020 3
-0.382520 0.122687 1.030253 3355445 3
-0.375116 0.186666 1.010312 5131852 3
-0.325566 0.196825 1.065295 5263949 3
-0.517846 0.105772 1.030253 2894381 3
-0.500930 0.122687 1.030253 3552824 3
-0.534762 0.173434 1.030253 3684921 3
-0.511121 0.171182 1.016873 4277058 3
-0.576174 0.192888 1.043989 4934727 3
-0.544513 0.187878 1.016873 5066574 3
-0.597675 0.118215 1.151459 2564646 3
-0.597675 0.137121 1.151459 3485748 3
-0.562233 0.133203 1.118560 3618104 3
-0.562233 0.151569 1.118560 3091760 3
-0.543867 0.151569 1.118560 3355443 3
-0.597675 0.174933 1.151459 3618617 3
-0.562233 0.169935 1.118560 4079166 3
-0.543867 0.169935 1.118560 4803402 3
0.225211 0.103893 1.204603 2960433 3
0.244990 0.103893 1.204603 2894640 3
0.268905 0.105516 1.223425 2894643 3
0.205433 0.123671 1.204603 3092273 3
0.225211 0.123671 1.204603 3158066 3
0.205433 0.143450 1.204603 3815994 3
-0.776004 0.136248 1.327105 2433832 3
-0.722887 0.138597 1.349986 2762797 3
-0.745053 0.160763 1.349986 2236449 3
-0.780678 0.186137 1.373670 2894633 3
-0.745053 0.182928 1.349986 3026219 3
-0.878046 0.138597 1.349986 1906465 3
-0.855880 0.138597 1.349986 1840674 3
-0.841374 0.158038 1.327105 2038821 3
-0.833715 0.160763 1.349986 2630958 3
-0.855938 0.152856 1.283594 2367784 3
-0.834863 0.152856 1.283594 2235430 3
-0.815816 0.165779 1.223425 2630958 3
-0.813788 0.173932 1.283594 2499372 3
-0.815816 0.185866 1.223425 2170918 3
0.811523 0.078810 0.767639 1117721 3
0.681673 0.071774 0.699100 2105127 3
0.675069 0.069901 0.680863 1842466 3
0.686248 0.069901 0.680863 1316122 3
0.110580 0.107205 1.535279 2434353 3
0.110580 0.132413 1.535279 3355451 3
0.135787 0.132413 1.535279 2960947 3
0.160995 0.132413 1.535279 3092019 3
0.186203 0.132413 1.535279 2960433 3
0.110580 0.157620 1.535279 3816255 3
-0.092904 0.109349 1.565984 2894641 3
-0.067192 0.109349 1.565984 2697515 3
-0.094800 0.137817 1.597943 2565675 3
-0.094800 0.164054 1.597943 3552824 3
-0.094800 0.190290 1.597943 5066063 3
-0.068563 0.190290 1.597943 4210752 3
-0.123558 0.113905 1.631234 2631468 3
-0.153540 0.143682 1.665941 2302503 3
-0.123558 0.140688 1.631234 2894894 3
-0.150342 0.167472 1.631234 3881789 3
-0.123558 0.167472 1.631234 3421238 3
-0.150342 0.194255 1.631234 4737096 3
0.757309 0.216367 0.863959 3488058 3
0.733169 0.205619 0.821040 2961716 3
0.743998 0.204888 0.818124 4014661 3
0.792246 0.214306 0.855729 3487037 3
0.754305 0.229638 0.860532 3817023 3
0.733169 0.219099 0.821040 3356474 3
0.743214 0.218091 0.817261 3619646 3
0.782365 0.225508 0.845056 3552830 3
0.777588 0.220226 0.825261 3026740 3
0.754792 0.239439 0.845254 3158840 3
0.736461 0.229406 0.809836 3685184 3
0.747325 0.228662 0.807208 3684416 3
0.739618 0.248225 0.828262 3882049 3
0.722062 0.275901 0.872793 4474185 3
0.725962 0.271993 0.860431 4210500 3
0.718666 0.264120 0.835524 4868173 3
0.703851 0.272111 0.818300 4999759 3
0.700481 0.289710 0.830230 4473673 3
0.711285 0.288562 0.826942 4736587 3
-0.389684 0.079918 0.926618 2302503 3
-0.395534 0.084413 0.978740 2368297 3
-0.379464 0.084413 0.978740 2565424 3
-0.394351 0.096271 0.937715 2368296 3
-0.393077 0.099859 0.972661 2434603 3
-0.879190 0.146157 1.423622 1774879 3
-0.800242 0.148864 1.449985 2565675 3
-0.377010 0.052979 0.444882 2170666 3
-0.365552 0.052383 0.439883 1907748 3
-0.363509 0.059273 0.437426 1841701 3
-0.358329 0.059606 0.439883 1381404 3
0.709935 0.202831 0.932133 3749690 3
0.761502 0.212973 0.978740 3486518 3
0.758607 0.207778 0.954868 4078915 3
0.774285 0.207778 0.954868 4210500 3
0.771154 0.202831 0.932133 3881789 3
0.755698 0.227297 0.971280 4078655 3
0.777572 0.229043 0.978740 4671305 3
0.786906 0.227098 0.970433 4211011 3
0.799716 0.226215 0.966657 3289909 3
0.785775 0.213786 0.913545 3290677 3
0.768129 0.247246 0.987258 3947328 3
0.780648 0.246082 0.982612 3750460 3
0.793642 0.245112 0.978740 4276804 3
0.701435 0.245767 0.920972 4145220 3
0.774231 0.265548 0.995100 4079427 3
0.787415 0.264489 0.991129 3816253 3
0.796781 0.262216 0.982612 5000527 3
0.774231 0.281887 0.995100 3882046 3
0.780648 0.278349 0.982612 4343369 3
0.793642 0.277252 0.978740 3817025 3
0.795561 0.267106 0.942922 4013121 3
0.795279 0.261914 0.924594 3882048 3
0.761502 0.293322 0.978740 4014402 3
0.758250 0.286033 0.954419 3619903 3
0.764956 0.282720 0.943364 4409162 3
0.767820 0.278147 0.928104 4079427 3
0.770993 0.273861 0.913803 3815742 3
0.783118 0.272858 0.910456 3157812 3
0.798067 0.272858 0.910456 3750462 3
0.731247 0.297100 0.939854 4474955 3
0.731493 0.291058 0.920740 3488317 3
0.732438 0.285532 0.903261 4211783 3
-0.408040 0.077621 0.899991 2171171 3
-0.440124 0.078070 0.905193 2631722 3
-0.425261 0.078070 0.905193 2566186 3
-0.402516 0.079448 0.921167 1841952 3
-0.447890 0.094572 0.921167 2565929 3
-0.432766 0.094572 0.921167 2763565 3
-0.415199 0.094019 0.915780 2631720 3
-0.407308 0.095698 0.932133 2829101 3
0.295474 0.212973 0.978740 5526614 3
0.279271 0.228934 0.978275 6316128 3
0.289379 0.224318 0.958552 6447716 3
0.217847 0.248215 0.991129 7368303 3
0.234120 0.248215 0.991129 7105131 3
0.240147 0.238058 0.950570 7237230 3
0.250794 0.233440 0.932133 6842731 3
0.266099 0.233440 0.932133 6316387 3
0.279128 0.231552 0.924594 6579559 3
0.293218 0.230694 0.921167 6382434 3
0.046490 0.219191 1.186352 5723993 3
0.085448 0.219191 1.186352 5527125 3
0.045797 0.235108 1.168645 6381923 3
0.064029 0.231650 1.151459 6448743 3
0.082935 0.231650 1.151459 6119262 3
0.007533 0.258149 1.186352 5921883 3
0.026609 0.254296 1.168645 7105644 3
0.045123 0.250556 1.151459 6908267 3
0.064029 0.250556 1.151459 6975087 3
0.082935 0.250556 1.151459 6645606 3
0.427742 0.208831 0.696815 5789533 3
0.434090 0.206409 0.688735 6249571 3
0.437501 0.202750 0.676523 5855325 3
0.443769 0.200562 0.669224 5330264 3
0.455002 0.200670 0.669585 4803918 3
0.473991 0.204113 0.681072 5000781 3
0.488611 0.205559 0.685898 5000527 3
0.413970 0.219039 0.692913 6579562 3
0.408289 0.210254 0.665125 6776687 3
0.416264 0.208777 0.660451 5328982 3
0.432439 0.211383 0.668695 5987422 3
0.436886 0.208269 0.658844 5790297 3
0.447471 0.208161 0.658502 6185055 3
0.464138 0.210820 0.666915 5461078 3
0.480843 0.213374 0.674993 5197906 3
0.491926 0.213374 0.674993 5526360 3
0.409437 0.216019 0.649619 5658460 3
0.419441 0.215679 0.648596 6513766 3
0.422028 0.211636 0.636438 6053469 3
0.431379 0.211098 0.634820 5461332 3
0.455918 0.217843 0.655103 6448227 3
0.473846 0.221191 0.665172 6316387 3
0.468941 0.213969 0.643454 5723739 3
0.495278 0.221007 0.664619 5066322 3
0.416454 0.230570 0.660753 6382182 3
0.418560 0.225853 0.647233 6053215 3
0.420413 0.221235 0.634002 6382180 3
0.431379 0.221521 0.634820 6250848 3
0.454597 0.227937 0.653206 5790297 3
0.471039 0.230737 0.661230 6185055 3
0.456507 0.218581 0.626394 6381923 3
0.472010 0.221024 0.633396 4803148 3
0.405083 0.228865 0.626394 6119262 3
0.414230 0.228238 0.624678 5592664 3
0.424170 0.228068 0.624211 6250594 3
0.439125 0.230539 0.630974 5987676 3
0.452694 0.232184 0.635478 6250848 3
0.447460 0.224329 0.613979 6447716 3
0.453422 0.222310 0.608452 6119008 3
0.409938 0.236024 0.618205 6382948 3
0.421858 0.237018 0.620809 6251364 3
0.435395 0.238852 0.625614 6513766 3
0.445892 0.238973 0.625929 5658459 3
0.442744 0.231940 0.607509 5921370 3
0.409938 0.246174 0.618205 6646120 3
0.421858 0.247211 0.620809 5659227 3
0.434201 0.248441 0.623898 5921629 3
0.441706 0.246910 0.620054 5461080 3
0.403683 0.252413 0.608772 5396566 3
0.424895 0.259257 0.625279 5988192 3
0.439453 0.261814 0.631445 5790813 3
0.437834 0.254837 0.614619 6513768 3
0.415928 0.263836 0.612083 5659740 3
0.426768 0.264325 0.613218 6382950 3
0.428903 0.259525 0.602082 5790815 3
0.497081 0.284367 0.613013 5133142 3
0.806573 0.200325 0.856023 3224119 3
0.824854 0.201356 0.860431 3092532 3
0.838982 0.201356 0.860431 2960947 3
0.806573 0.214380 0.856023 2895154 3
0.828861 0.216530 0.864610 2895153 3
0.830761 0.231255 0.866593 2960946 3
0.801248 0.240889 0.850372 3223865 3
0.517298 0.201070 0.709807 5132113 3
0.537199 0.204205 0.720873 4145218 3
0.530831 0.213480 0.712328 4803148 3
0.590102 0.283087 0.774795 5592664 3
0.578349 0.283798 0.743337 5922910 3
0.506701 0.208367 0.695267 4539719 3
0.515359 0.218613 0.691567 4737357 3
0.575644 0.200098 0.632996 3487291 3
0.588760 0.219246 0.659323 4210500 3
0.563472 0.206041 0.619612 4211014 3
0.573906 0.206134 0.619893 3750211 3
0.577175 0.221472 0.634680 4803151 3
0.581386 0.219131 0.627972 3223608 3
0.588245 0.236341 0.646853 4868944 3
0.563653 0.251352 0.631207 5065552 3
0.533623 0.252413 0.608772 5066320 3
0.507146 0.294432 0.613013 4738123 3
0.311544 0.212973 0.978740 5987165 3
0.327614 0.212973 0.978740 6118751 3
0.343684 0.212973 0.978740 5921629 3
0.380581 0.215668 0.991129 5526873 3
0.391893 0.212973 0.978740 5855839 3
0.303945 0.223456 0.954868 6645095 3
0.325117 0.227297 0.971280 5987422 3
0.343684 0.229043 0.978740 5921629 3
0.359754 0.229043 0.978740 5395287 3
0.375823 0.229043 0.978740 5921631 3
0.391893 0.229043 0.978740 5724253 3
0.313450 0.234516 0.936427 6513766 3
0.331261 0.236253 0.943364 6382950 3
0.346750 0.236253 0.943364 6448745 3
0.365277 0.238234 0.951273 6185573 3
0.382335 0.239134 0.954868 6316904 3
0.398013 0.239134 0.954868 5593434 3
0.338592 0.245819 0.921167 6120291 3
0.353716 0.245819 0.921167 6382952 3
0.365892 0.243854 0.913803 6448745 3
0.379501 0.242960 0.910456 6382950 3
0.334654 0.257909 0.910456 6909807 3
0.008150 0.216082 1.283594 6118751 3
0.028754 0.212597 1.262890 5526871 3
0.047572 0.204357 1.213941 4342597 3
0.066984 0.202785 1.204603 5330262 3
0.086762 0.202785 1.204603 5526871 3
0.007768 0.226041 1.223425 5790297 3
0.027856 0.226041 1.223425 5395026 3
0.066984 0.222563 1.204603 5264469 3
0.007649 0.242342 1.204603 6119262 3
0.027427 0.242342 1.204603 6381921 3
-0.365604 0.207266 1.030253 5197645 3
-0.348689 0.207266 1.030253 5592403 3
-0.331773 0.207266 1.030253 4803402 3
-0.314857 0.207266 1.030253 4934986 3
-0.323266 0.218433 1.003836 5987676 3
-0.308763 0.219843 1.010312 7039849 3
-0.306908 0.235010 1.004241 6579298 3
-0.308763 0.253019 1.010312 7565682 3
0.825376 0.128599 0.846478 2104614 3
0.830299 0.127224 0.837425 1644322 3
0.810727 0.144846 0.860431 3025714 3
0.820347 0.144055 0.855729 2959921 3
0.825376 0.142498 0.846478 2565165 3
0.830299 0.140973 0.837425 2170666 3
0.801000 0.159852 0.865185 3091511 3
0.815206 0.159852 0.865185 3420474 3
0.824854 0.158974 0.860431 2433577 3
0.834397 0.158105 0.855729 2696751 3
0.817189 0.152280 0.824202 1907496 3
0.822068 0.150694 0.815617 2433838 3
0.815206 0.174058 0.865185 2302506 3
0.824854 0.173101 0.860431 2763055 3
0.838982 0.173101 0.860431 2697264 3
0.834763 0.169379 0.841927 2697010 3
0.848586 0.169379 0.841927 2697264 3
0.862410 0.169379 0.841927 1644576 3
0.806296 0.186206 0.855729 2368297 3
0.815888 0.185194 0.851078 2894640 3
0.829862 0.185194 0.851078 2894641 3
0.843836 0.185194 0.851078 3092022 3
0.750617 0.106098 0.782992 2434090 3
0.763473 0.106098 0.782992 2631471 3
0.761107 0.104018 0.767639 1381661 3
0.758832 0.102018 0.752877 1908005 3
0.756643 0.100093 0.738672 1973798 3
0.773711 0.116622 0.767639 1644322 3
0.771193 0.114379 0.752877 1973541 3
0.747612 0.109132 0.718341 2105125 3
0.797157 0.133142 0.790901 1644322 3
0.786315 0.129226 0.767639 1776162 3
0.747612 0.120927 0.718341 2039332 3
0.798919 0.141830 0.767639 2105125 3
0.358150 0.121798 1.186352 2960944 3
0.319193 0.141276 1.186352 4079942 3
0.338671 0.141276 1.186352 3553598 3
0.347616 0.137121 1.151459 3749950 3
0.356050 0.133203 1.118560 3683897 3
0.319193 0.160755 1.186352 3948611 3
0.338671 0.160755 1.186352 3882049 3
0.347616 0.156027 1.151459 4276293 3
0.366522 0.156027 1.151459 3684410 3
0.385428 0.156027 1.151459 4408131 3
0.392781 0.151569 1.118560 4210754 3
0.314429 0.177544 1.168645 4408390 3
0.328710 0.174933 1.151459 4868943 3
0.337684 0.169935 1.118560 4276806 3
0.361210 0.172397 1.134771 4934477 3
0.379842 0.172397 1.134771 4342336 3
0.392781 0.169935 1.118560 3750203 3
0.309805 0.193839 1.151459 5395539 3
0.319319 0.188300 1.118560 4934734 3
0.369142 0.185648 1.102806 4737094 3
0.387249 0.185648 1.102806 5591892 3
0.373770 0.137790 1.016873 4276293 3
0.390466 0.154486 1.016873 3947582 3
0.311025 0.173434 1.030253 4934736 3
0.341418 0.180562 1.072592 4145218 3
0.396969 0.181807 1.079989 4933964 3
0.303050 0.185469 1.003836 5723993 3
0.327941 0.190350 1.030253 6250337 3
0.349455 0.192888 1.043989 4933962 3
0.371550 0.195495 1.058097 5855064 3
0.383737 0.192888 1.043989 5329235 3
0.395604 0.190350 1.030253 5723993 3