# .PCD v0.7 - Point Cloud Data file format
VERSION 0.7
FIELDS x y z rgb label
SIZE 4 4 4 4 4
TYPE F F F U U
COUNT 1 1 1 1 1
WIDTH 1085
HEIGHT 1
VIEWPOINT 0 0 0 1 0 0 0
POINTS 1085
DATA ascii
0.426294 0.248121 0.598420 6776938 3
0.435598 0.247824 0.597704 7369075 3
0.445412 0.247824 0.597704 7171696 3
0.456535 0.248537 0.599423 5921629 3
0.417565 0.258625 0.599994 6052704 3
0.424981 0.257152 0.596576 6513766 3
0.430667 0.254721 0.590937 6316389 3
0.442672 0.256053 0.594027 6513768 3
0.454685 0.257332 0.596994 6316387 3
0.465039 0.257638 0.597704 6250848 3
0.414488 0.266498 0.595573 6250335 3
0.437185 0.262512 0.586664 5790043 3
0.450716 0.264802 0.591782 5396053 3
0.461516 0.265425 0.593176 5198676 3
0.472601 0.266183 0.594868 5593436 3
0.306922 0.246941 0.595573 6315876 3
0.318671 0.248477 0.599278 6381670 3
0.302323 0.252872 0.586649 6841961 3
0.314685 0.255085 0.591782 6775915 3
0.326015 0.256354 0.594726 5789533 3
0.338195 0.258198 0.599004 6711148 3
0.307597 0.258838 0.578454 7763063 3
0.322343 0.263121 0.588027 6315619 3
0.334197 0.264865 0.591923 5986911 3
0.347861 0.267903 0.598712 5592154 3
0.303167 0.264470 0.570122 6841961 3
0.319646 0.270494 0.583107 6644584 3
0.330292 0.271375 0.585006 6447462 3
0.246318 0.215911 0.590937 9209229 3
0.256020 0.215911 0.590937 8946056 3
0.234076 0.223193 0.584597 10326427 3
0.246028 0.225348 0.590243 10063768 3
0.256020 0.225613 0.590937 8485505 3
0.265723 0.225613 0.590937 9078155 3
0.276605 0.226580 0.593469 7763063 3
0.230632 0.229366 0.575996 10326940 3
0.243624 0.232742 0.584474 10261146 3
0.254102 0.233553 0.586511 9275021 3
0.263671 0.233499 0.586374 9341325 3
0.271646 0.232087 0.582829 8815751 3
0.287714 0.237450 0.596296 7763063 3
0.226830 0.234886 0.566500 9537423 3
0.240424 0.239157 0.576800 9275021 3
0.252213 0.241375 0.582150 8683395 3
0.261771 0.241375 0.582150 8815751 3
0.269953 0.240150 0.579196 8684163 3
0.282485 0.242748 0.585460 7697270 3
0.295669 0.245715 0.592617 7631990 3
0.224040 0.241184 0.559532 11182248 3
0.236131 0.244187 0.566500 10064791 3
0.248575 0.247314 0.573752 8814981 3
0.258884 0.248166 0.575729 8749956 3
0.265664 0.245693 0.569993 7697268 3
0.278077 0.248422 0.576324 7960440 3
0.291598 0.251929 0.584459 7499891 3
0.233227 0.250371 0.559532 8946056 3
0.242850 0.250821 0.560537 8880774 3
0.252731 0.251496 0.562046 8026748 3
0.260619 0.250208 0.559169 8553090 3
0.270340 0.250710 0.560290 8092539 3
0.282825 0.253656 0.566874 8157821 3
0.293459 0.254808 0.569449 8815751 3
0.102733 0.200769 0.549494 9868691 3
0.113340 0.203617 0.557290 9013380 3
0.122686 0.203942 0.558180 9539724 3
0.111386 0.209098 0.547680 9012612 3
0.120167 0.208731 0.546717 8684415 3
0.127477 0.206037 0.539661 8158583 3
0.135025 0.204053 0.534466 8619394 3
0.139028 0.205766 0.516731 8356220 3
0.561668 0.241705 0.692663 4079942 3
0.535142 0.225720 0.646853 4342600 3
0.542204 0.224248 0.642636 4539466 3
0.566853 0.229967 0.659025 4210501 3
0.505960 0.237599 0.650298 3487807 3
0.524254 0.241102 0.659885 3882565 3
0.535651 0.241356 0.660579 3159095 3
0.530708 0.234382 0.641494 3816255 3
0.535192 0.231763 0.634325 3881536 3
0.551615 0.234315 0.641310 3947842 3
0.567368 0.236492 0.647269 3223348 3
0.507802 0.244031 0.639177 2171947 3
0.518297 0.244031 0.639177 2960947 3
0.522951 0.241336 0.632118 3223605 3
0.530891 0.240232 0.629228 3223348 3
0.546853 0.242731 0.635773 2960434 3
0.559564 0.243721 0.638365 3025969 3
0.570770 0.244031 0.639177 5985882 3
0.502554 0.251895 0.632571 4408393 3
0.516190 0.253491 0.636579 4145221 3
0.522280 0.251391 0.631306 4539466 3
0.530757 0.250500 0.629068 3420727 3
0.546166 0.252852 0.634975 3815743 3
0.557998 0.253491 0.636579 5920606 3
0.566868 0.252785 0.634807 6906986 3
0.509971 0.260763 0.628909 4211014 3
0.518866 0.260046 0.627180 4211014 3
0.528500 0.259720 0.626394 3552571 3
0.543284 0.261888 0.631624 3486778 3
0.555739 0.262874 0.634002 3749950 3
0.500363 0.265981 0.617061 4737357 3
0.517570 0.269668 0.625614 4671565 3
0.527053 0.269265 0.624678 4474186 3
0.542613 0.271923 0.630844 4671565 3
0.512213 0.277042 0.619138 4803151 3
0.524306 0.278065 0.621422 4276553 3
0.540436 0.281148 0.628313 3948356 3
0.515665 0.289144 0.623311 6053218 3
0.527053 0.289778 0.624678 5132116 3
0.426705 0.236246 0.677018 4934226 3
0.429114 0.231547 0.663553 5986914 3
0.422025 0.251192 0.687501 7039089 3
0.434201 0.227954 0.623898 4802891 3
0.479986 0.230261 0.630214 3750463 3
0.402766 0.243976 0.639035 9933729 3
0.411157 0.242736 0.635786 10262695 3
0.413713 0.238197 0.623898 9473691 3
0.422800 0.237547 0.622196 5921121 3
0.432371 0.237193 0.621269 5460567 3
0.440931 0.236314 0.618966 6776681 3
0.451206 0.236373 0.619120 6184542 3
0.463087 0.237252 0.621422 4737098 3
0.475893 0.238557 0.624840 5197649 3
0.491683 0.241271 0.631948 3881535 3
0.407945 0.251197 0.630819 8815249 3
0.410952 0.246783 0.619734 8947347 3
0.418135 0.245029 0.615330 7763325 3
0.423961 0.242582 0.609185 5986911 3
0.431238 0.241059 0.605359 5855579 3
0.440751 0.240826 0.604774 6645095 3
0.452318 0.241700 0.606971 6052958 3
0.467521 0.244439 0.613848 4342340 3
0.485061 0.248258 0.623438 4407879 3
0.404982 0.259655 0.626238 9999006 3
0.410154 0.256460 0.618531 9605016 3
0.413263 0.252160 0.608161 8355460 3
0.419070 0.249671 0.602157 7960701 3
0.469191 0.250036 0.603040 4605769 3
0.493483 0.257547 0.621153 3947841 3
0.401868 0.267861 0.621422 7301745 3
0.409543 0.266218 0.617609 8814984 3
0.410677 0.260504 0.604355 6052447 3
0.477596 0.259126 0.601157 4868943 3
0.406241 0.274130 0.612630 5591894 3
0.408010 0.268671 0.600430 6645095 3
0.490195 0.270502 0.604521 5527643 3
0.490884 0.280822 0.605371 5790815 3
0.104190 0.194467 0.557290 8881028 3
0.113619 0.194944 0.558658 8025719 3
0.150776 0.195550 0.560395 7501681 3
0.146940 0.199542 0.546138 7502194 3
0.151933 0.192143 0.503271 7501681 3
0.605761 0.258899 0.778570 3949638 3
0.623035 0.260779 0.784222 3685697 3
0.310205 0.218074 0.689861 6447714 3
0.300525 0.222242 0.668334 6513507 3
0.312834 0.223195 0.671199 7500661 3
0.324551 0.223676 0.672644 6909296 3
0.341588 0.227670 0.684655 6251113 3
0.304275 0.227808 0.652836 7960955 3
0.317558 0.229662 0.658150 7434868 3
0.330623 0.231242 0.662678 6974319 3
0.343614 0.232671 0.666773 6250084 3
0.309668 0.234493 0.641797 6974058 3
0.322946 0.236500 0.647289 6776938 3
0.334860 0.237412 0.649786 6382183 3
0.345893 0.237663 0.650471 5526109 3
0.369289 0.246138 0.673668 6447465 3
0.304521 0.240958 0.631130 7368305 3
0.312520 0.239150 0.626394 7632249 3
0.322805 0.239150 0.626394 7435640 3
0.332095 0.238436 0.624523 7040113 3
0.340734 0.237311 0.621577 4868944 3
0.353488 0.239034 0.626089 5789533 3
0.371478 0.244101 0.639361 6709608 3
0.383431 0.245031 0.641797 6249057 3
0.395084 0.245724 0.643613 7367286 3
0.302830 0.241700 0.606971 7500150 3
0.312796 0.241700 0.606971 6579561 3
0.322762 0.241700 0.606971 6381670 3
0.333055 0.241938 0.607568 6316390 3
0.351127 0.247649 0.621908 7303285 3
0.366419 0.251131 0.630653 6841708 3
0.377247 0.251446 0.631445 6380643 3
0.388694 0.252146 0.633203 6511975 3
0.398486 0.251765 0.632244 8289158 3
0.328982 0.248833 0.600138 7369078 3
0.344899 0.253286 0.610878 6119011 3
0.362045 0.258364 0.623124 5591641 3
0.372738 0.258685 0.623898 5986399 3
0.385097 0.260113 0.627343 5657689 3
0.395294 0.260046 0.627180 7038573 3
0.355511 0.263748 0.611880 6908014 3
0.368977 0.266215 0.617603 6710122 3
0.382507 0.268595 0.623124 5657687 3
0.392153 0.268195 0.622196 5986136 3
0.361930 0.271078 0.605808 7105393 3
0.379599 0.276707 0.618388 6710888 3
0.390505 0.277241 0.619581 6512994 3
0.398704 0.275875 0.616529 5197136 3
0.202033 0.200562 0.669224 8157051 3
0.214003 0.201487 0.672309 7696500 3
0.231938 0.207661 0.692912 6907754 3
0.212795 0.211326 0.668514 7763061 3
0.225667 0.213116 0.674178 8749958 3
0.297649 0.217177 0.687024 5855579 3
0.207916 0.217205 0.653185 7960953 3
0.222052 0.220594 0.663378 7828858 3
0.232272 0.219957 0.661462 9144718 3
0.246717 0.223200 0.671214 8749960 3
0.251207 0.217545 0.654207 8026237 3
0.265084 0.220149 0.662038 7894396 3
0.276151 0.220306 0.662510 7302514 3
0.286420 0.219838 0.661104 6644582 3
0.202994 0.222534 0.637724 8224125 3
0.214829 0.223956 0.641797 7960955 3
0.222255 0.220864 0.632937 8552579 3
0.271054 0.218317 0.625639 7104365 3
0.291531 0.226236 0.648332 8486786 3
0.275573 0.223914 0.612843 8814981 3
0.296850 0.232706 0.636905 6907754 3
0.105856 0.205840 0.686835 8355713 3
0.117488 0.206464 0.688915 9604500 3
0.128976 0.206747 0.689861 10129563 3
0.139879 0.206124 0.687781 8485765 3
0.150923 0.205784 0.686648 7236466 3
0.161489 0.204886 0.683650 7499891 3
0.172010 0.204050 0.680863 8355452 3
0.182546 0.203334 0.678473 8815749 3
0.191302 0.200831 0.670122 7697268 3
0.104964 0.215288 0.681049 7894649 3
0.116621 0.216169 0.683836 9406861 3
0.127849 0.216169 0.683836 9208459 3
0.138661 0.215523 0.681792 10525602 3
0.149571 0.215113 0.680496 10525601 3
0.159444 0.213374 0.674993 9473681 3
0.169525 0.212120 0.671027 8947848 3
0.179915 0.211383 0.668695 8289405 3
0.188627 0.208872 0.660753 7894901 3
0.199582 0.208984 0.661104 8552831 3
0.104623 0.225735 0.678836 9144714 3
0.115580 0.225368 0.677733 7564914 3
0.126196 0.224457 0.674993 8485759 3
0.137279 0.224457 0.674993 9012362 3
0.147490 0.223138 0.671027 7367535 3
0.175556 0.216975 0.652493 7566193 3
0.185211 0.215742 0.648786 7829619 3
0.195456 0.215294 0.647438 7698033 3
0.178579 0.218288 0.625555 6514785 3
0.191400 0.221235 0.634002 8356220 3
0.048250 0.200762 0.669892 6973296 3
0.072622 0.207548 0.692533 8288639 3
0.083301 0.205840 0.686835 7565684 3
0.094578 0.205840 0.686835 7500402 3
0.046184 0.202695 0.641210 8353666 3
0.061251 0.218919 0.692533 8024955 3
0.071788 0.216407 0.684587 6841191 3
0.082577 0.215229 0.680863 8025465 3
0.093756 0.215229 0.680863 7302510 3
0.061066 0.229593 0.690438 11181991 3
0.071495 0.226717 0.681792 11116707 3
0.082577 0.226408 0.680863 10722721 3
0.093756 0.226408 0.680863 8749956 3
0.636217 0.275960 0.872981 3422014 3
0.634228 0.269037 0.851078 3948868 3
0.618794 0.256831 0.812467 3619903 3
0.612377 0.292601 0.879918 4539978 3
0.601798 0.280918 0.844787 3881795 3
0.502441 0.220088 0.776941 3552060 3
0.502441 0.232844 0.776941 3881538 3
0.525155 0.237345 0.791958 4079428 3
0.589384 0.263000 0.790901 4277576 3
0.586287 0.255978 0.769785 4212040 3
0.528952 0.247688 0.709807 4211013 3
0.549035 0.251549 0.720873 3882818 3
0.557025 0.249824 0.715930 3751490 3
0.558564 0.245338 0.703072 3290939 3
0.435755 0.225180 0.794916 3224119 3
0.442666 0.222099 0.784040 3947331 3
0.452667 0.220698 0.779097 6710126 3
0.465315 0.220630 0.778856 3091768 3
0.475883 0.219606 0.775240 2565935 3
0.486957 0.218862 0.772614 4079428 3
0.407582 0.237028 0.790901 5065810 3
0.420305 0.236880 0.790407 5790560 3
0.429218 0.234658 0.782992 3618877 3
0.439065 0.233061 0.777662 4671054 3
0.450426 0.232334 0.775240 6183780 3
0.463012 0.232263 0.775001 7894657 3
0.473539 0.231190 0.771421 3816002 3
0.486205 0.231190 0.771421 4934737 3
0.401624 0.246359 0.779340 6052707 3
0.416105 0.247361 0.782508 5855326 3
0.424969 0.245063 0.775240 6644842 3
0.433294 0.242598 0.767440 5394262 3
0.443970 0.241551 0.764129 5460055 3
0.458474 0.242587 0.767405 6184291 3
0.467074 0.240527 0.760888 4868431 3
0.474517 0.237994 0.752877 5395287 3
0.493071 0.241021 0.762451 5066322 3
0.404235 0.252786 0.760186 5723740 3
0.418114 0.253634 0.762736 7236979 3
0.424232 0.249861 0.751391 6841708 3
0.433527 0.248120 0.746155 5460055 3
0.449527 0.250207 0.752429 5789535 3
0.454521 0.246219 0.740439 5328982 3
0.461213 0.243336 0.731768 5395288 3
0.485863 0.249833 0.751306 5987424 3
0.405648 0.258222 0.739995 6710635 3
0.416323 0.257310 0.737382 7631224 3
0.427291 0.256626 0.735421 7960444 3
0.441178 0.257684 0.738455 8223363 3
0.446485 0.253809 0.727349 5854815 3
0.409210 0.264814 0.724784 6381157 3
0.415360 0.261198 0.714886 7039342 3
0.425140 0.260001 0.711610 5920606 3
0.312329 0.208156 0.780030 5856608 3
0.321547 0.205858 0.771421 5790815 3
0.303956 0.206569 0.729218 5724252 3
0.313104 0.204721 0.722696 5329492 3
0.326446 0.205652 0.725980 4343367 3
0.368625 0.224042 0.790901 4343114 3
0.384288 0.225614 0.796449 4738387 3
0.308388 0.213325 0.711811 6447973 3
0.320166 0.213386 0.712014 6317157 3
0.347737 0.223597 0.746085 6447976 3
0.371901 0.230997 0.770777 5658976 3
0.391517 0.235178 0.784728 5198427 3
0.328756 0.222973 0.705360 6975087 3
0.350028 0.229322 0.725445 5198423 3
0.373152 0.236427 0.747919 5790562 3
0.381609 0.246240 0.740501 6447465 3
0.382913 0.251276 0.720089 5921121 3
0.215093 0.201066 0.753463 8355200 3
0.229494 0.202860 0.760186 8222846 3
0.249576 0.209232 0.784063 9275534 3
0.225123 0.211240 0.745707 8025208 3
0.246387 0.219268 0.774046 8814470 3
0.263408 0.222916 0.786927 8289407 3
0.275905 0.222575 0.785721 5526871 3
0.282160 0.217453 0.767639 5132883 3
0.292534 0.215808 0.761834 5132113 3
0.296055 0.209449 0.739386 6184803 3
0.259384 0.221375 0.738672 5987165 3
0.270401 0.220470 0.735649 5592664 3
0.278388 0.217276 0.724993 6513766 3
0.289962 0.217029 0.724169 5855325 3
0.296701 0.213325 0.711811 5986911 3
0.248130 0.223373 0.706623 8684167 3
0.266256 0.228983 0.724372 7039599 3
0.274574 0.226040 0.715061 8092287 3
0.286073 0.225849 0.714457 6907501 3
0.293544 0.222619 0.704238 6184033 3
0.003543 0.148916 0.558041 11640749 3
0.012829 0.150358 0.563444 9208458 3
0.022154 0.150863 0.565337 8816521 3
0.031458 0.150967 0.565724 8094851 3
0.003543 0.158079 0.558041 14074322 3
0.012765 0.158820 0.560658 11313322 3
0.021991 0.158962 0.561159 7763833 3
0.031172 0.158797 0.560575 8817293 3
0.003548 0.167464 0.558783 13811920 3
0.012780 0.168214 0.561285 10984357 3
0.021995 0.168214 0.561285 7499893 3
0.031218 0.168251 0.561411 10131870 3
0.003551 0.176796 0.559280 13483982 3
0.012737 0.176835 0.559405 9997977 3
0.022050 0.177868 0.562673 11184046 3
0.031323 0.178067 0.563304 13354700 3
0.003551 0.185978 0.559280 12826563 3
0.012734 0.185978 0.559280 9406608 3
0.021976 0.186479 0.560784 10064537 3
0.072211 0.182991 0.524403 9538958 3
0.052560 0.183131 0.501220 9931920 3
0.069595 0.184658 0.505400 10788771 3
0.609864 0.248809 0.993502 3026488 3
0.608449 0.259924 0.917569 4802127 3
0.658892 0.274672 0.969629 4210249 3
0.612328 0.270056 0.901106 3881536 3
0.607923 0.289804 0.916775 4671565 3
0.659034 0.299346 0.946959 4407880 3
0.661151 0.293385 0.928104 3289660 3
0.401851 0.223808 0.893671 4737355 3
0.419470 0.225391 0.899991 5131602 3
0.427538 0.221909 0.886087 5001046 3
0.438933 0.220326 0.879766 4343375 3
0.444862 0.216187 0.863241 3948869 3
0.452887 0.213292 0.851678 3685439 3
0.459057 0.209722 0.837425 4013634 3
0.473956 0.210232 0.839460 3486780 3
0.400721 0.221626 0.830509 4343116 3
0.417808 0.223472 0.837425 4344145 3
0.431558 0.223472 0.837425 4212041 3
0.444868 0.223251 0.836598 3817025 3
0.451661 0.219871 0.823933 3816256 3
0.456377 0.215706 0.808324 3223608 3
0.470073 0.215901 0.809054 3157304 3
0.494405 0.220836 0.827547 2565424 3
0.495262 0.215301 0.806808 2763314 3
0.400288 0.227274 0.802308 6186349 3
0.418141 0.229847 0.811391 4869458 3
0.430916 0.229555 0.810361 3158840 3
0.300488 0.214306 0.855729 6251877 3
0.317150 0.216085 0.862834 5857119 3
0.339990 0.221742 0.885422 5330775 3
0.381154 0.220326 0.879766 5132883 3
0.314324 0.218443 0.818580 6186084 3
0.349935 0.215542 0.807708 5264469 3
0.370613 0.219943 0.824202 5592664 3
0.384146 0.219943 0.824202 4672079 3
0.175784 0.174254 0.695800 6447714 3
0.187562 0.174584 0.697118 6448227 3
0.162956 0.184093 0.689861 8487297 3
0.174283 0.184093 0.689861 6776679 3
0.186431 0.184907 0.692912 7302512 3
0.140692 0.195963 0.691777 7302514 3
0.151506 0.195261 0.689299 7894651 3
0.160874 0.192924 0.681049 8026235 3
0.172761 0.193713 0.683836 7170924 3
0.183389 0.193082 0.681608 7038824 3
0.194736 0.193236 0.682152 7170156 3
0.600535 0.248914 1.063654 3092279 3
0.635261 0.255866 1.093364 3552060 3
0.698398 0.263764 1.053215 3156532 3
0.637815 0.270049 1.011967 3223606 3
0.679505 0.280396 1.050740 2564395 3
0.678706 0.273132 1.023519 2565165 3
0.262103 0.203174 0.868201 5461332 3
0.270438 0.202335 0.807929 4934734 3
0.270846 0.215926 0.809148 7171439 3
0.283284 0.215282 0.806734 5593434 3
0.294157 0.213559 0.800279 6186084 3
0.204784 0.178117 0.761127 6119262 3
0.221310 0.181420 0.775240 6053469 3
0.217013 0.190379 0.760186 6052958 3
0.231041 0.191662 0.765310 6184290 3
0.247708 0.194888 0.778194 6381412 3
-0.093497 0.105650 0.451463 9409678 3
-0.093970 0.113635 0.453747 8949640 3
-0.087486 0.114904 0.458813 11975605 3
-0.093987 0.121107 0.453831 11451056 3
-0.087582 0.122571 0.459317 11647152 3
-0.080588 0.123409 0.462457 9869459 3
-0.093885 0.128420 0.453340 10200987 3
-0.087486 0.129970 0.458813 10595232 3
-0.080350 0.130617 0.461096 12435386 3
-0.072968 0.130954 0.462287 11842738 3
-0.066792 0.133789 0.472294 9935254 3
-0.093716 0.135617 0.452520 9872020 3
-0.087326 0.137252 0.457974 10199956 3
-0.080261 0.138035 0.460586 14343126 3
-0.072954 0.138518 0.462200 13618124 3
-0.066059 0.139990 0.467111 9672082 3
-0.093766 0.143124 0.452761 10990503 3
-0.086818 0.143930 0.455311 9476237 3
-0.079719 0.144613 0.457473 10527132 3
-0.072446 0.145090 0.458983 12039092 3
-0.065328 0.146026 0.461942 11250601 3
-0.057776 0.146107 0.462200 10658977 3
-0.050844 0.148020 0.468251 8356222 3
-0.043837 0.150355 0.475637 10987431 3
-0.036853 0.153800 0.486535 10592673 3
-0.072221 0.152152 0.457557 10723746 3
-0.064945 0.152710 0.459233 10066840 3
-0.057459 0.152852 0.459660 12895426 3
-0.050950 0.156031 0.469221 9145225 3
-0.043936 0.158522 0.476713 11447469 3
-0.036392 0.159767 0.480456 9736851 3
-0.028922 0.162110 0.487503 11053224 3
-0.021404 0.165878 0.498834 8816773 3
-0.043835 0.165969 0.475623 9473679 3
-0.036163 0.166601 0.477434 13618122 3
-0.028389 0.166983 0.478530 10460574 3
-0.020707 0.168400 0.482589 9079945 3
-0.012937 0.170435 0.488420 11580081 3
-0.012857 0.177348 0.485392 11777458 3
-0.194885 0.100592 0.429847 11711918 3
-0.188021 0.100695 0.430290 10396572 3
-0.181768 0.101147 0.432220 10002581 3
-0.174822 0.101234 0.432592 9279885 3
-0.167719 0.101234 0.432592 8095098 3
-0.160123 0.100923 0.431263 9016200 3
-0.100474 0.105194 0.449514 11319468 3
-0.192347 0.106247 0.424249 11974575 3
-0.184567 0.105781 0.422386 11119781 3
-0.179325 0.106789 0.426411 9278604 3
-0.170581 0.105709 0.422098 8885127 3
-0.164876 0.106501 0.425261 9805202 3
-0.156389 0.105486 0.421208 11778738 3
-0.148588 0.104861 0.418712 10529439 3
-0.140682 0.104098 0.415666 9608591 3
-0.133899 0.104131 0.415797 9936784 3
-0.127283 0.104303 0.416485 11055007 3
-0.121335 0.105074 0.419564 10923421 3
-0.116644 0.107092 0.427623 9082244 3
-0.114385 0.111745 0.446200 9150090 3
-0.108281 0.113020 0.451292 10268318 3
-0.100889 0.113041 0.451374 9213581 3
-0.147921 0.111234 0.416832 9280396 3
-0.140446 0.110737 0.414970 11056805 3
-0.133899 0.110958 0.415797 10201749 3
-0.127516 0.111345 0.417249 8622458 3
-0.121435 0.112056 0.419911 10135184 3
-0.115786 0.113274 0.424476 11582632 3
-0.111478 0.116044 0.434858 11913396 3
-0.106372 0.118307 0.443335 10794405 3
-0.100889 0.120452 0.451374 9872024 3
-0.110955 0.122606 0.432818 8096375 3
-0.105032 0.124004 0.437750 9807510 3
-0.100329 0.127153 0.448868 10925223 3
-0.100329 0.134523 0.448868 9478291 3
0.702966 0.254382 1.087020 3091762 3
0.706758 0.273698 1.092883 4538185 3
0.409060 0.214316 1.065295 5396057 3
0.403569 0.228695 1.050996 4869713 3
0.420825 0.228695 1.050996 4868944 3
0.400992 0.234360 1.001464 5263701 3
0.425161 0.238698 1.020000 4934734 3
0.447300 0.241610 1.032443 5592405 3
0.478622 0.249089 1.064402 4473672 3
0.487605 0.244824 1.046179 4276547 3
0.327941 0.207266 1.030253 4738127 3
0.347140 0.208639 1.037076 7565946 3
0.359408 0.205911 1.023519 7632250 3
0.388923 0.212868 1.058097 6053217 3
0.306986 0.221270 1.016873 5000527 3
0.336804 0.230241 1.058097 5724250 3
0.347140 0.225666 1.037076 4868944 3
0.383737 0.227171 1.043989 5330264 3
0.301120 0.200665 0.997442 4869711 3
0.350251 0.217042 0.997442 6119010 3
0.304751 0.224049 0.957401 4868941 3
0.326296 0.228122 0.974805 4737357 3
0.319019 0.212605 0.908502 4935506 3
0.335644 0.213693 0.913149 3685439 3
0.377904 0.230310 0.984158 4606798 3
0.370103 0.231483 0.924319 5330521 3
0.380881 0.228841 0.913767 5264471 3
0.208605 0.190936 0.949081 6119262 3
0.224188 0.190936 0.949081 6645352 3
0.244211 0.194472 0.966657 5197906 3
0.258487 0.193279 0.960726 4474951 3
0.274261 0.193279 0.960726 6185571 3
0.231358 0.199273 0.915780 5724250 3
0.246394 0.199273 0.915780 4869195 3
0.109461 0.159921 0.794916 7567476 3
0.107819 0.170378 0.782992 8027259 3
0.121282 0.171234 0.786927 7369329 3
0.133531 0.170378 0.782992 8158845 3
0.144938 0.168691 0.775240 8356224 3
0.160852 0.172099 0.790901 7237743 3
0.104365 0.177363 0.757902 8421506 3
0.116771 0.177306 0.757662 7631990 3
0.129016 0.177038 0.756514 8026748 3
0.140424 0.175769 0.751093 7171439 3
0.151170 0.173945 0.743298 7434609 3
0.167241 0.178061 0.760889 6842472 3
0.182222 0.180526 0.771421 7434611 3
0.192937 0.178719 0.763697 5855579 3
0.100008 0.181884 0.726267 8289920 3
0.112256 0.182409 0.728365 7631990 3
0.124215 0.182409 0.728365 6710375 3
0.135311 0.181253 0.723750 7236721 3
0.146726 0.180676 0.721445 6447714 3
0.157844 0.179848 0.718136 7631988 3
0.168147 0.178270 0.711838 7303023 3
0.111190 0.192522 0.721445 8553092 3
0.122506 0.191693 0.718341 9934234 3
0.134262 0.191639 0.718136 9802648 3
0.144482 0.189578 0.710413 8487299 3
0.154396 0.187453 0.702450 7763576 3
0.119759 0.198925 0.702235 9472913 3
0.131216 0.198815 0.701845 8946057 3
0.405356 0.203755 1.102806 5658460 3
0.423463 0.203755 1.102806 3289911 3
0.451100 0.208153 1.126607 3355704 3
0.476454 0.211191 1.143054 2302503 3
0.441570 0.221862 1.102806 5592154 3
0.476454 0.229959 1.143054 3881535 3
0.466244 0.243397 1.118560 4539976 3
0.498863 0.250556 1.151459 3947582 3
0.042896 0.155194 0.771421 8158332 3
0.054489 0.152195 0.756514 9014152 3
0.068907 0.156738 0.779097 8487297 3
0.081699 0.156738 0.779097 9408401 3
0.095441 0.158314 0.786927 8684935 3
0.031310 0.173855 0.798972 8421502 3
0.043979 0.172099 0.790901 8554117 3
0.053710 0.162265 0.745707 7698292 3
0.067894 0.167037 0.767639 8289920 3
0.080498 0.167037 0.767639 8355459 3
0.094023 0.168691 0.775240 8684935 3
0.044120 0.185675 0.793423 8356738 3
0.053702 0.174481 0.745589 9277840 3
0.064572 0.170852 0.730082 7829626 3
0.077460 0.172862 0.738672 8684167 3
0.090773 0.175148 0.748438 9539733 3
0.039829 0.179378 0.716260 7765116 3
0.052856 0.183784 0.733854 7830396 3
0.062671 0.177457 0.708590 7368818 3
0.074305 0.177457 0.708590 7434611 3
0.087029 0.179706 0.717570 8224127 3
0.062832 0.189578 0.710413 7566456 3
0.073971 0.188240 0.705398 7763576 3
0.086632 0.190614 0.714297 7632247 3
0.099230 0.192301 0.720617 7500404 3
0.073971 0.199822 0.705398 8487045 3
-0.097460 0.103333 0.559280 8421763 3
-0.087963 0.102965 0.557290 9079432 3
-0.078813 0.102965 0.557290 9670540 3
-0.069663 0.102965 0.557290 7038824 3
-0.060512 0.102965 0.557290 8749956 3
-0.051546 0.103333 0.559280 9736853 3
-0.042515 0.103703 0.561285 9211022 3
-0.033299 0.103703 0.561285 8816264 3
-0.097113 0.112115 0.557290 8882055 3
-0.087651 0.111718 0.555314 8881796 3
-0.078533 0.111718 0.555314 10262677 3
-0.069663 0.112115 0.557290 8421245 3
-0.060298 0.111718 0.555314 11118504 3
-0.051546 0.112516 0.559280 9013128 3
-0.042363 0.112516 0.559280 9342608 3
-0.095750 0.119564 0.549468 12632254 3
-0.086728 0.119564 0.549468 11710895 3
-0.078256 0.120409 0.553351 10854814 3
-0.069170 0.120409 0.553351 12368823 3
-0.060085 0.120409 0.553351 11118758 3
-0.051180 0.120835 0.555314 11710895 3
-0.042212 0.121266 0.557290 11908020 3
-0.033180 0.121699 0.559280 12171194 3
-0.025166 0.127624 0.586511 10065818 3
-0.015712 0.129074 0.593176 8157821 3
-0.086145 0.127720 0.545771 12500409 3
-0.077827 0.128785 0.550320 15065566 3
-0.069170 0.129494 0.553351 11118755 3
-0.060085 0.129494 0.553351 12764094 3
-0.051124 0.129810 0.554700 12697788 3
-0.042072 0.129982 0.555437 10329242 3
-0.033055 0.130387 0.557166 10723748 3
-0.023832 0.129982 0.555437 9868439 3
-0.014762 0.130416 0.557290 9209741 3
-0.005615 0.130504 0.557666 10854566 3
-0.076253 0.135033 0.539192 11710895 3
-0.068385 0.137007 0.547071 12172214 3
-0.059808 0.137940 0.550798 11382698 3
-0.050820 0.138092 0.551403 11447980 3
-0.041775 0.138122 0.551525 10658207 3
-0.032828 0.138579 0.553351 10460576 3
-0.023748 0.138610 0.553474 10855845 3
-0.014709 0.139071 0.555314 12104631 3
-0.005551 0.138064 0.551295 12958149 3
-0.066767 0.142535 0.534127 9870229 3
-0.058711 0.144289 0.540699 11119526 3
-0.050060 0.144944 0.543157 10000534 3
-0.041195 0.145133 0.543863 9671312 3
-0.032527 0.146309 0.548272 11579055 3
-0.023701 0.147407 0.552384 11908533 3
-0.014762 0.148716 0.557290 12565182 3
-0.005598 0.148353 0.555931 12562878 3
-0.066697 0.151145 0.533563 10987940 3
-0.058433 0.152441 0.538139 10922147 3
-0.049715 0.152803 0.539415 10066840 3
-0.040929 0.153067 0.540347 9934741 3
-0.032527 0.155311 0.548272 10527393 3
-0.023701 0.156476 0.552384 12369595 3
-0.014762 0.157866 0.557290 8289407 3
-0.005598 0.157481 0.555931 12234167 3
-0.049555 0.161139 0.537679 8882566 3
-0.040929 0.161939 0.540347 8553601 3
-0.032534 0.164350 0.548393 8751750 3
-0.023780 0.166095 0.554215 9870231 3
-0.014762 0.167016 0.557290 9736851 3
-0.005611 0.167016 0.557290 12563132 3
-0.014762 0.176166 0.557290 9868952 3
-0.005613 0.176206 0.557414 14076628 3
-0.013813 0.173413 0.521494 11119017 3
-0.005511 0.182012 0.547354 13353418 3
-0.138138 0.106372 0.575729 8687495 3
-0.129160 0.106765 0.577854 8752514 3
-0.119672 0.106765 0.577854 7237743 3
-0.108188 0.104831 0.567386 7961214 3
-0.139678 0.117117 0.582150 10399393 3
-0.130120 0.117117 0.582150 8489342 3
-0.121012 0.117554 0.584322 9474703 3
-0.107410 0.113325 0.563304 11053483 3
0.733805 0.201237 1.195408 2038821 3
0.753432 0.201237 1.195408 2763055 3
0.750154 0.214320 1.159988 2434343 3
0.763544 0.212744 1.151459 1644827 3
0.750154 0.233366 1.159988 3750201 3
0.752478 0.228293 1.134771 2631209 3
0.723363 0.243397 1.118560 3223346 3
0.736468 0.241671 1.110627 4605001 3
0.716041 0.272975 1.166470 3091768 3
0.749181 0.278168 1.188663 3486267 3
0.724124 0.287728 1.148907 3289399 3
0.710829 0.205953 1.223425 2959925 3
0.736671 0.207575 1.233058 2893362 3
0.727888 0.231466 1.252787 3946818 3
0.748458 0.231466 1.252787 2038053 3
0.751003 0.226041 1.223425 3025718 3
0.771091 0.226041 1.223425 3815230 3
0.701705 0.250035 1.242845 2368556 3
0.733758 0.254068 1.262890 3025716 3
0.754494 0.254068 1.262890 2170155 3
0.769027 0.252035 1.252787 1380893 3
0.789597 0.252035 1.252787 2828590 3
0.727888 0.272605 1.252787 2236200 3
0.748458 0.272605 1.252787 3222843 3
0.756917 0.268312 1.233058 2301995 3
0.777162 0.268312 1.233058 2301991 3
0.616040 0.201237 1.195408 3026480 3
0.655295 0.201237 1.195408 3158323 3
0.674923 0.201237 1.195408 3553084 3
0.616040 0.220864 1.195408 2171428 3
0.606777 0.236875 1.177432 2894641 3
0.635668 0.240492 1.195408 3552571 3
0.655295 0.240492 1.195408 2763568 3
0.626109 0.256208 1.177432 3223606 3
0.645441 0.256208 1.177432 2631982 3
0.658854 0.258076 1.102806 2433840 3
0.610391 0.205953 1.223425 1776162 3
0.640558 0.202785 1.204603 3552822 3
0.601001 0.222563 1.204603 2499885 3
0.640558 0.222563 1.204603 1841952 3
0.660336 0.222563 1.204603 1908258 3
0.690741 0.226041 1.223425 3355451 3
0.690741 0.266216 1.223425 3816002 3
0.557158 0.201237 1.195408 1973036 3
0.506308 0.215920 1.168645 6249826 3
0.525496 0.215920 1.168645 7170673 3
0.548780 0.217543 1.177432 5130840 3
0.563872 0.215920 1.168645 3157563 3
0.502558 0.233366 1.159988 4210241 3
0.517769 0.231650 1.151459 5328469 3
0.536674 0.231650 1.151459 5723229 3
0.555580 0.231650 1.151459 6052194 3
0.587444 0.236875 1.177432 3486267 3
0.513989 0.248727 1.143054 3749949 3
0.532757 0.248727 1.143054 4012864 3
0.539706 0.243397 1.118560 3354679 3
0.591895 0.258149 1.186352 3486267 3
0.597787 0.252412 1.159988 3223608 3
0.317287 0.176926 1.050996 4145220 3
0.343772 0.181807 1.079989 3553083 3
0.366561 0.184350 1.095094 5526873 3
0.381871 0.183070 1.087489 5723739 3
0.315172 0.192888 1.043989 5132885 3
0.339095 0.196825 1.065295 4803920 3
0.361505 0.199540 1.079989 6710894 3
0.374077 0.196825 1.065295 7105395 3
0.219646 0.181807 1.079989 5857117 3
0.237378 0.181807 1.079989 5725020 3
0.248262 0.176926 1.050996 5330262 3
0.263748 0.175747 1.043989 4474953 3
0.279029 0.174583 1.037076 5000529 3
0.298031 0.175747 1.043989 3487290 3
0.210918 0.191611 1.037076 5527639 3
0.226446 0.190350 1.030253 5329746 3
0.240202 0.187878 1.016873 5461078 3
0.256898 0.187878 1.016873 5000527 3
0.275382 0.189106 1.023519 5725020 3
0.292187 0.189106 1.023519 5856606 3
0.108530 0.150640 0.894848 7238257 3
0.117835 0.158105 0.855729 6449252 3
0.127027 0.165813 0.824202 7699062 3
0.142055 0.167577 0.832970 6777960 3
0.176512 0.174747 0.803069 7040364 3
0.196761 0.181253 0.832970 5987422 3
-0.098161 0.094827 0.563304 5922399 3
-0.078813 0.093815 0.557290 9737103 3
-0.070162 0.094488 0.561285 7433328 3
-0.060946 0.094488 0.561285 7960444 3
-0.051730 0.094488 0.561285 8487299 3
-0.042668 0.094827 0.563304 7171696 3
-0.245128 0.061883 0.367602 3025967 3
-0.239092 0.061883 0.367602 5197388 3
-0.228631 0.062322 0.370209 5592407 3
-0.222553 0.062322 0.370209 4934734 3
-0.228631 0.068400 0.370209 3487029 3
-0.222553 0.068400 0.370209 5790297 3
-0.223338 0.070569 0.381947 7106671 3
-0.218131 0.070915 0.383820 8291197 3
-0.214457 0.071795 0.388582 9475470 3
-0.211222 0.072880 0.394454 6448992 3
-0.222794 0.076653 0.381018 9738645 3
-0.217067 0.076840 0.381947 9870229 3
-0.212349 0.077406 0.384763 9936021 3
-0.207562 0.077981 0.387620 8949127 3
-0.207357 0.080368 0.399486 9408397 3
-0.216607 0.085403 0.392477 10067093 3
-0.210163 0.085403 0.392477 10001045 3
-0.207357 0.086928 0.399486 6776677 3
-0.206962 0.093309 0.398725 7631986 3
0.109784 0.137519 0.905193 4211265 3
0.126105 0.154164 0.915780 5857117 3
0.147165 0.160744 0.954868 5264978 3
0.144521 0.173253 0.937715 6383459 3
0.166914 0.180833 0.978740 5725529 3
0.174271 0.187526 0.932133 6317409 3
0.194199 0.192100 0.954868 6514020 3
0.049477 0.120566 0.889764 6184031 3
0.079145 0.121255 0.894848 2631979 3
0.093837 0.121255 0.894848 3224116 3
0.047846 0.130719 0.860431 7697520 3
0.062316 0.131441 0.865185 8092539 3
0.076521 0.131441 0.865185 6052956 3
0.091740 0.132910 0.874852 5395026 3
0.020492 0.151506 0.899991 7434609 3
0.035269 0.151506 0.899991 8289916 3
0.048377 0.146456 0.869991 8289659 3
0.063012 0.147274 0.874852 8421502 3
0.076521 0.145647 0.865185 7631729 3
0.090727 0.145647 0.865185 8158332 3
0.019809 0.160740 0.869991 8158330 3
0.034093 0.160740 0.869991 8355709 3
0.047584 0.158105 0.855729 9474192 3
0.058745 0.150694 0.815617 10395292 3
0.072137 0.150694 0.815617 9736851 3
0.085529 0.150694 0.815617 9342608 3
0.098408 0.149913 0.811391 8225152 3
0.020492 0.181060 0.899991 9868948 3
0.031962 0.164086 0.815617 8224123 3
0.005715 0.195837 0.899991 8486018 3
0.020492 0.195837 0.899991 8684163 3
0.005990 0.127829 0.943364 3618876 3
0.021224 0.126307 0.932133 4276547 3
0.036312 0.125560 0.926618 6052956 3
0.065197 0.122657 0.905193 3750203 3
0.005919 0.141612 0.932133 5724252 3
0.020974 0.139946 0.921167 7303023 3
0.035679 0.138319 0.910456 7040103 3
0.005781 0.153268 0.910456 8092798 3
0.005781 0.168216 0.910456 8356224 3
0.005849 0.185320 0.921167 6645095 3
-0.068963 0.138319 0.910456 7302772 3
-0.055966 0.143318 0.943364 3354679 3
-0.040477 0.143318 0.943364 6117735 3
-0.024988 0.143318 0.943364 3815743 3
-0.009386 0.141612 0.932133 5460821 3
-0.055966 0.158807 0.943364 8026494 3
-0.040477 0.158807 0.943364 7697278 3
-0.024691 0.156917 0.932133 6381669 3
-0.009386 0.156917 0.932133 8421502 3
-0.039995 0.172222 0.932133 7894651 3
-0.024691 0.172222 0.932133 8947850 3
-0.009386 0.172222 0.932133 9737877 3
-0.024400 0.185320 0.921167 7039853 3
-0.009386 0.187526 0.932133 8750469 3
-0.130120 0.088442 0.582150 2566440 3
-0.128685 0.096919 0.575729 8225403 3
-0.119232 0.096919 0.575729 5987676 3
-0.108582 0.095862 0.569449 3158326 3
-0.143769 0.075526 0.497138 1710877 3
-0.193696 0.077535 0.460584 4934986 3
-0.185588 0.077308 0.459233 7566454 3
-0.178048 0.077308 0.459233 3816255 3
-0.171009 0.077535 0.460584 1578780 3
-0.166383 0.078928 0.468858 2498853 3
-0.161587 0.080372 0.477434 8815751 3
-0.155168 0.081114 0.481841 5131343 3
-0.150026 0.082640 0.490904 7039340 3
-0.143314 0.083424 0.495565 5198160 3
-0.135606 0.083689 0.497138 6778989 3
-0.192563 0.084600 0.457890 9475473 3
-0.183969 0.084108 0.455228 8883336 3
-0.177009 0.084353 0.456555 5988703 3
-0.170507 0.084848 0.459233 8553090 3
-0.165392 0.086111 0.466067 9407372 3
-0.161096 0.087943 0.475983 11579055 3
-0.154692 0.088752 0.480363 8487038 3
-0.148628 0.089855 0.486331 10263449 3
-0.141966 0.090700 0.490904 6514018 3
-0.135177 0.091561 0.495565 7305844 3
-0.198341 0.091317 0.453908 12369595 3
-0.190889 0.091317 0.453908 11317675 3
-0.183436 0.091317 0.453908 9608340 3
-0.175475 0.091053 0.452597 6910826 3
-0.169020 0.091583 0.455228 8225403 3
-0.163447 0.092660 0.460584 10001300 3
-0.156128 0.097537 0.484825 10329240 3
-0.148168 0.097537 0.484825 9145479 3
-0.194397 0.096806 0.444882 13290950 3
-0.188162 0.097359 0.447424 11186601 3
-0.180815 0.097359 0.447424 9739925 3
-0.172484 0.096806 0.444882 9081993 3
-0.164711 0.096531 0.443622 7897719 3
-0.118553 0.089203 0.409943 8291450 3
-0.111822 0.089203 0.409943 9410958 3
-0.197383 0.095000 0.405953 11053986 3
-0.149639 0.098679 0.421675 9345678 3
-0.140920 0.097438 0.416370 10003095 3
-0.119689 0.096854 0.413873 9935757 3
-0.234264 0.070806 0.466067 6776938 3
-0.226611 0.070806 0.466067 3355445 3
-0.220270 0.071230 0.468858 8422017 3
-0.238369 0.077308 0.459233 8225406 3
-0.230829 0.077308 0.459233 9474705 3
-0.223288 0.077308 0.459233 9539985 3
-0.217021 0.077764 0.461942 8487808 3
-0.210680 0.078226 0.464684 7763572 3
-0.203050 0.078226 0.464684 3223855 3
-0.229483 0.084353 0.456555 9869202 3
-0.221987 0.084353 0.456555 10329753 3
-0.215117 0.084600 0.457890 9014150 3
-0.208821 0.085098 0.460584 9934741 3
-0.200668 0.084848 0.459233 7829365 3
-0.224893 0.090013 0.447424 10921890 3
-0.218170 0.090271 0.448706 11250855 3
-0.212631 0.091053 0.452597 10264472 3
-0.205794 0.091317 0.453908 11579566 3
-0.207685 0.089909 0.413188 7829619 3
-0.207825 0.096259 0.442368 11711916 3
-0.201702 0.096806 0.444882 11316648 3
-0.203065 0.094542 0.403997 10790561 3
0.513989 0.117352 1.143054 3420476 3
0.510265 0.135134 1.134771 2302767 3
0.513989 0.154888 1.143054 2697013 3
0.502558 0.176228 1.159988 2894641 3
0.525496 0.177544 1.168645 2697012 3
0.502558 0.195274 1.159988 2894641 3
0.525496 0.196732 1.168645 1973030 3
0.169965 0.131327 1.102806 4671305 3
0.192131 0.134162 1.126607 4343369 3
0.190759 0.151569 1.118560 3619644 3
0.197824 0.176228 1.159988 3751228 3
0.147698 0.127729 1.072592 4341825 3
0.123329 0.137790 1.016873 3750201 3
0.146693 0.144351 1.065295 3092271 3
0.166449 0.146342 1.079989 3882300 3
0.140025 0.154486 1.016873 3816507 3
0.165309 0.162951 1.072592 5790811 3
0.171194 0.168987 1.003836 4935756 3
0.195183 0.192888 1.043989 6317666 3
0.703438 0.120882 1.177432 2697264 3
0.712062 0.119091 1.159988 1447708 3
0.703438 0.140214 1.177432 4276553 3
0.717376 0.139168 1.168645 2631982 3
0.714177 0.161982 1.195408 2697264 3
0.722770 0.159546 1.177432 2368810 3
0.742102 0.159546 1.177432 2829361 3
0.761435 0.159546 1.177432 2170918 3
0.780767 0.159546 1.177432 2104614 3
0.728246 0.180234 1.186352 3552573 3
0.747724 0.180234 1.186352 2566189 3
0.761435 0.178879 1.177432 2499883 3
0.774940 0.177544 1.168645 2169639 3
0.750154 0.195274 1.159988 1644573 3
0.769200 0.195274 1.159988 2236453 3
0.689288 0.102319 1.186352 2894643 3
0.698188 0.100792 1.168645 2236713 3
0.674923 0.122727 1.195408 3618366 3
0.684106 0.120882 1.177432 1907748 3
0.669810 0.141276 1.186352 1777189 3
0.684106 0.140214 1.177432 3092281 3
0.674923 0.161982 1.195408 1382431 3
0.694550 0.161982 1.195408 1644322 3
0.655295 0.181610 1.195408 3092532 3
0.674923 0.181610 1.195408 2434349 3
0.624454 0.111621 1.294202 2368299 3
0.645703 0.111621 1.294202 2105127 3
0.656108 0.109806 1.273158 1907746 3
0.671552 0.108920 1.262890 1776672 3
0.681299 0.107191 1.242845 2039845 3
0.680114 0.103893 1.204603 2368299 3
0.624454 0.132870 1.294202 2828850 3
0.640411 0.131781 1.283594 3289399 3
0.650817 0.129655 1.262890 1841952 3
0.655689 0.126593 1.233058 3487290 3
0.670654 0.125604 1.223425 3553084 3
0.619335 0.152856 1.283594 3157561 3
0.640411 0.152856 1.283594 3618364 3
0.640486 0.148004 1.242845 3618617 3
0.640558 0.143450 1.204603 4408392 3
0.660336 0.143450 1.204603 3487805 3
0.614300 0.172518 1.273158 2960182 3
0.635204 0.172518 1.273158 3552571 3
0.635443 0.167084 1.233058 3026480 3
0.645523 0.164493 1.213941 4737357 3
0.660336 0.163228 1.204603 1645601 3
0.609346 0.191862 1.262890 2762805 3
0.630081 0.191862 1.262890 2697264 3
0.625591 0.184425 1.213941 2960687 3
0.640558 0.183007 1.204603 2960944 3
0.699893 0.183007 1.204603 2170666 3
0.588611 0.108920 1.262890 3026227 3
0.588611 0.129655 1.262890 2763057 3
0.588611 0.150391 1.262890 2565426 3
0.588611 0.171126 1.262890 2697013 3
0.588611 0.191862 1.262890 1775657 3
0.400139 0.103100 1.195408 2367786 3
0.413454 0.101549 1.177432 4144450 3
0.400139 0.122727 1.195408 2103848 3
0.413454 0.120882 1.177432 3682876 3
0.417106 0.116502 1.134771 2894383 3
0.432603 0.115664 1.126607 2565675 3
0.451100 0.115664 1.126607 3683899 3
0.473001 0.116502 1.134771 3421238 3
0.495221 0.117352 1.143054 3684156 3
0.413454 0.140214 1.177432 3288888 3
0.417106 0.135134 1.134771 2696749 3
0.432603 0.134162 1.126607 3420985 3
0.451100 0.134162 1.126607 5197136 3
0.469598 0.134162 1.126607 4276034 3
0.491633 0.135134 1.134771 2631469 3
0.417106 0.153766 1.134771 3354934 3
0.429513 0.151569 1.118560 3223859 3
0.454369 0.153766 1.134771 3289139 3
0.473001 0.153766 1.134771 3815996 3
0.495221 0.154888 1.143054 2828848 3
0.411147 0.169935 1.118560 5328722 3
0.423463 0.167541 1.102806 4211265 3
0.454369 0.172397 1.134771 3881789 3
0.476454 0.173656 1.143054 2828847 3
0.405356 0.185648 1.102806 3552824 3
0.423463 0.185648 1.102806 4013632 3
0.454369 0.191029 1.134771 4539978 3
0.476454 0.192424 1.143054 3289398 3
0.354798 0.107191 1.242845 3619391 3
0.375205 0.107191 1.242845 1841953 3
0.392496 0.106347 1.233058 2236711 3
0.309080 0.125604 1.223425 3158326 3
0.345356 0.131781 1.283594 2764595 3
0.357637 0.128618 1.252787 3159352 3
0.375205 0.127597 1.242845 3619646 3
0.389430 0.125604 1.223425 2565678 3
0.304325 0.143450 1.204603 3355192 3
0.334392 0.148004 1.242845 3553084 3
0.354798 0.148004 1.242845 3882563 3
0.366479 0.144562 1.213941 5132116 3
0.324103 0.163228 1.204603 4145221 3
0.343882 0.163228 1.204603 4276807 3
0.380511 0.142355 1.195408 3421498 3
0.397107 0.141276 1.186352 2565165 3
0.350191 0.157183 1.159988 4079428 3
0.371992 0.158356 1.168645 5066323 3
0.391180 0.158356 1.168645 6447463 3
0.398474 0.153766 1.134771 4736587 3
0.314821 0.167541 1.102806 4474185 3
0.335289 0.168729 1.110627 3947841 3
0.358611 0.171157 1.126607 4276806 3
0.379842 0.172397 1.134771 3749949 3
0.392781 0.169935 1.118560 4999757 3
0.243119 0.122727 1.195408 2631982 3
0.282374 0.122727 1.195408 3157813 3
0.215275 0.137121 1.151459 4606799 3
0.237677 0.139168 1.168645 3553853 3
0.258796 0.140214 1.177432 2895153 3
0.280235 0.141276 1.186352 2566188 3
0.213704 0.154888 1.143054 3948868 3
0.235916 0.157183 1.159988 4409160 3
0.254962 0.157183 1.159988 3947841 3
0.274008 0.157183 1.159988 4342599 3
0.293054 0.157183 1.159988 4276806 3
0.216870 0.176228 1.159988 4211781 3
0.232472 0.173656 1.143054 3948609 3
0.251240 0.173656 1.143054 4211781 3
0.266123 0.171157 1.126607 4211013 3
0.282587 0.169935 1.118560 4342599 3
0.296714 0.167541 1.102806 3618876 3
0.207642 0.186965 1.110627 4738377 3
0.510115 0.062885 1.177432 2105637 3
0.517769 0.080404 1.151459 2631469 3
0.513989 0.098585 1.143054 3355194 3
0.634949 0.091890 1.315953 2105127 3
0.656555 0.091890 1.315953 1775908 3
0.672511 0.091124 1.304987 1841955 3
0.682561 0.089630 1.283594 2434090 3
0.593396 0.088902 1.273158 3223605 3
0.403217 0.084115 1.204603 5000017 3
0.426375 0.061953 1.159988 3026219 3
0.445420 0.061953 1.159988 1906719 3
0.467932 0.062416 1.168645 1511196 3
0.487120 0.062416 1.168645 1117717 3
0.410368 0.081604 1.168645 3618102 3
0.423239 0.080404 1.151459 1841945 3
0.442145 0.080404 1.151459 1117203 3
0.461051 0.080404 1.151459 1840672 3
0.479957 0.080404 1.151459 2696749 3
0.498863 0.080404 1.151459 1908258 3
0.417106 0.097870 1.134771 6052445 3
0.432603 0.097166 1.126607 3025714 3
0.454369 0.097870 1.134771 4209474 3
0.473001 0.097870 1.134771 4605258 3
0.495221 0.098585 1.143054 2829360 3