# .PCD v0.7 - Point Cloud Data file format
VERSION 0.7
FIELDS x y z rgb label
SIZE 4 4 4 4 4
TYPE F F F U U
COUNT 1 1 1 1 1
WIDTH 1396
HEIGHT 1
VIEWPOINT 0 0 0 1 0 0 0
POINTS 1396
DATA ascii
0.206049 0.305407 0.682527 10790060 3
0.213595 0.300261 0.671027 11119025 3
0.202578 0.311279 0.671027 10987439 3
0.285233 0.304668 0.634325 10263718 3
0.298748 0.307864 0.640978 10395304 3
0.295868 0.326831 0.657977 10461097 3
-0.129791 0.304580 0.680678 11184301 3
-0.118070 0.303180 0.677552 10789543 3
-0.135130 0.302681 0.652493 10921129 3
-0.125135 0.304430 0.656263 10921129 3
-0.116006 0.308812 0.665709 10855336 3
-0.106257 0.312282 0.673190 10921129 3
0.651364 0.413180 0.958552 8882316 3
0.653661 0.404855 0.939238 9211281 3
0.625793 0.433005 0.967685 8881546 3
0.643504 0.434235 0.970433 9145488 3
0.656872 0.432545 0.966657 9013902 3
0.661598 0.425379 0.950643 9277074 3
0.672022 0.422122 0.943364 8882316 3
0.676389 0.415294 0.928104 9013390 3
0.649013 0.454022 0.978740 9276561 3
0.659438 0.450168 0.970433 9277074 3
0.656225 0.437406 0.942922 9079695 3
0.664021 0.432402 0.932133 8553351 3
0.673832 0.428904 0.924594 8947597 3
0.638659 0.451415 0.939854 9079696 3
-0.075701 0.300511 0.697167 10658215 3
-0.064432 0.301344 0.699100 10395045 3
-0.052954 0.301344 0.699100 10987182 3
-0.041475 0.301344 0.699100 10592424 3
-0.029996 0.301344 0.699100 10987182 3
-0.085623 0.306499 0.684969 11052460 3
-0.075033 0.309204 0.691014 11118255 3
-0.064254 0.311958 0.697167 11118514 3
-0.052954 0.312823 0.699100 10592422 3
-0.041475 0.312823 0.699100 10724008 3
-0.029996 0.312823 0.699100 11052975 3
-0.018405 0.310919 0.694847 10921135 3
-0.006935 0.308185 0.688735 11118768 3
-0.095458 0.313118 0.674993 10986667 3
-0.084880 0.314990 0.679028 10855081 3
-0.074376 0.317746 0.684969 11118255 3
-0.064079 0.322523 0.695267 11184307 3
-0.052954 0.324301 0.699100 10921387 3
-0.041475 0.324301 0.699100 10789801 3
-0.029996 0.324301 0.699100 10987182 3
-0.018518 0.324301 0.699100 10921135 3
-0.006955 0.320390 0.690668 10855596 3
-0.498736 0.282304 0.680863 8552061 3
-0.487557 0.282304 0.680863 8684417 3
-0.479251 0.284006 0.684969 8684417 3
-0.472134 0.286513 0.691014 7697781 3
-0.464891 0.289064 0.697167 8487297 3
-0.454702 0.289866 0.699100 8486784 3
-0.420267 0.289866 0.699100 8815749 3
-0.408788 0.289866 0.699100 8749958 3
-0.498278 0.286786 0.665325 8223866 3
-0.483248 0.284369 0.659719 8223096 3
-0.423588 0.287994 0.668129 8749958 3
-0.429118 0.299511 0.694847 8420993 3
-0.416547 0.298677 0.692913 9013130 3
-0.492775 0.294421 0.657977 8355452 3
0.307591 0.272393 0.684048 7894908 3
0.323423 0.276324 0.693918 8092287 3
0.302217 0.278669 0.672096 9671832 3
0.313252 0.278669 0.672096 9408147 3
0.323334 0.277850 0.670122 9539733 3
0.336870 0.279956 0.675199 9605527 3
0.344268 0.276988 0.668041 9802906 3
0.306671 0.283618 0.657977 10197664 3
0.314517 0.280976 0.651846 9868699 3
0.320205 0.276644 0.641797 9605527 3
0.327075 0.273576 0.634680 9737115 3
0.333929 0.270685 0.627972 9606040 3
0.308643 0.286231 0.639672 10132130 3
0.316236 0.283622 0.633842 10066337 3
0.323619 0.280996 0.627972 10000544 3
0.331272 0.278760 0.622976 9671579 3
0.308404 0.296504 0.639177 10395302 3
0.199040 0.313731 0.787858 10855594 3
0.185484 0.325577 0.785230 10592422 3
0.194533 0.319269 0.770014 10460836 3
0.197418 0.316279 0.733747 10789803 3
0.194533 0.344554 0.770014 10921900 3
0.195023 0.324344 0.724849 10987439 3
0.475357 0.312360 0.818150 9013903 3
0.474259 0.334493 0.839997 9474454 3
0.498225 0.341466 0.857508 9079696 3
0.444251 0.336020 0.810415 9606040 3
0.474259 0.348285 0.839997 9013903 3
0.498225 0.355546 0.857508 9211282 3
0.495716 0.371280 0.829741 9539736 3
0.258558 0.294908 0.772437 10263457 3
0.267757 0.291120 0.762516 9934492 3
0.268846 0.279247 0.731418 9802906 3
0.275834 0.274255 0.718341 9868699 3
0.280628 0.267580 0.700860 9671322 3
0.226489 0.298748 0.750232 10395556 3
0.229949 0.287667 0.722403 10461095 3
0.235339 0.279969 0.703072 10460836 3
0.215506 0.295982 0.713852 10526888 3
0.223796 0.291513 0.703072 10395302 3
0.252480 0.302830 0.793187 10329509 3
0.207175 0.306626 0.770014 10724008 3
0.217678 0.303640 0.762516 10526629 3
0.205158 0.316159 0.762516 10592422 3
0.208800 0.303266 0.731418 10526629 3
0.202527 0.305802 0.709443 10789803 3
0.211647 0.302193 0.701068 10592681 3
0.200136 0.313703 0.701068 11053232 3
-0.121928 0.267135 0.699693 10197406 3
-0.109462 0.264769 0.693496 10460835 3
-0.119622 0.273354 0.686462 10723750 3
-0.107497 0.271199 0.681049 10789800 3
-0.167739 0.289866 0.699100 10723750 3
-0.155310 0.288102 0.694847 10460323 3
-0.143501 0.287300 0.692913 10855594 3
-0.131945 0.286912 0.691976 10592164 3
-0.118070 0.280931 0.677552 10526371 3
-0.105772 0.277850 0.670122 10724007 3
-0.166718 0.299511 0.694847 10854566 3
-0.152124 0.293367 0.680593 10591909 3
-0.139865 0.291111 0.675360 10262944 3
-0.129791 0.293404 0.680678 10723750 3
-0.118070 0.292056 0.677552 10986922 3
-0.105157 0.287172 0.666222 10789800 3
-0.147012 0.294307 0.657722 10328992 3
-0.135497 0.292761 0.654266 10855336 3
-0.105157 0.298111 0.666222 10789543 3
-0.285516 0.259204 0.678919 9276300 3
-0.264879 0.260836 0.683194 9802646 3
-0.248792 0.255829 0.670080 9671060 3
-0.280658 0.265751 0.667368 9605265 3
-0.259366 0.255569 0.641797 9210507 3
-0.248893 0.255634 0.641962 9539987 3
-0.243633 0.261298 0.656184 9736853 3
-0.237487 0.266490 0.669224 10000025 3
-0.226621 0.266634 0.669585 9867669 3
-0.217487 0.268934 0.675360 10131611 3
-0.209455 0.272917 0.685364 10000025 3
-0.261510 0.268305 0.647101 9802646 3
-0.250175 0.267546 0.645270 9737112 3
-0.242923 0.271278 0.654271 9605526 3
-0.237171 0.277109 0.668334 10000027 3
-0.225836 0.276666 0.667266 10263199 3
-0.214593 0.276297 0.666376 10263197 3
-0.203652 0.276297 0.666376 10394783 3
-0.599348 0.259946 0.680863 6776931 3
-0.595087 0.263003 0.688871 6644834 3
-0.582576 0.263538 0.661810 7237228 3
-0.580487 0.267584 0.671971 7368557 3
-0.586592 0.275637 0.692194 7630959 3
-0.578384 0.277150 0.695993 7828338 3
-0.579041 0.283308 0.683283 8026487 3
-0.561084 0.279946 0.675176 7565936 3
-0.563831 0.286987 0.692156 7434607 3
-0.532092 0.288262 0.695233 7829108 3
-0.510611 0.282689 0.681792 7960694 3
-0.549977 0.285270 0.661810 7829108 3
-0.543707 0.287702 0.667452 7829365 3
-0.536126 0.289527 0.671684 8092537 3
-0.512186 0.288466 0.669224 7960694 3
-0.514382 0.294421 0.657977 8289659 3
-0.503578 0.294421 0.657977 8092280 3
0.770774 0.361956 0.990657 7698040 3
0.791279 0.363906 0.995994 7764605 3
0.754868 0.378402 0.991129 8092798 3
0.758051 0.371979 0.974305 7961212 3
0.774572 0.372230 0.974964 7895673 3
0.730685 0.382032 0.959378 8027005 3
0.745795 0.381703 0.958552 7632247 3
0.704776 0.383679 0.925359 8289666 3
0.737401 0.392968 0.947764 8158334 3
-0.018518 0.255430 0.699100 10592424 3
-0.007039 0.255430 0.699100 10658217 3
-0.018518 0.266909 0.699100 10921389 3
-0.007039 0.266909 0.699100 10789803 3
-0.097165 0.273592 0.687058 10263457 3
-0.029996 0.278387 0.699100 10789803 3
-0.018405 0.276693 0.694847 10724010 3
-0.006977 0.275924 0.692913 10921389 3
-0.094719 0.277703 0.669767 10526629 3
-0.084858 0.281471 0.678853 10855594 3
-0.075701 0.289064 0.697167 10789801 3
-0.029996 0.289866 0.699100 10395045 3
-0.018405 0.288102 0.694847 10987182 3
-0.006977 0.287300 0.692913 10921389 3
-0.094046 0.286649 0.665008 10855594 3
-0.086378 0.297859 0.691014 10789801 3
-0.018405 0.299511 0.694847 10921389 3
-0.006977 0.298677 0.692913 10921389 3
-0.093994 0.297401 0.664635 11052460 3
0.566781 0.313799 0.899264 8552838 3
0.506755 0.309913 0.848219 8750731 3
0.526384 0.313308 0.857508 8684938 3
0.512305 0.327387 0.857508 9013390 3
0.532213 0.331012 0.867004 9276562 3
0.517978 0.345248 0.867004 8816011 3
0.534047 0.346437 0.869991 9079183 3
0.517978 0.359483 0.867004 9473941 3
0.280953 0.307997 0.882636 9869212 3
0.298116 0.310781 0.890616 9803419 3
0.208306 0.322200 0.881846 10658215 3
0.227369 0.328829 0.899991 10526629 3
0.263546 0.318961 0.872981 10395556 3
0.270908 0.310958 0.851078 10461349 3
0.278697 0.304207 0.832601 10263457 3
0.207423 0.313464 0.821040 10460836 3
0.235052 0.333540 0.873624 10658214 3
0.247323 0.330768 0.866364 10263457 3
0.249574 0.315624 0.826699 10461349 3
0.179364 0.334776 0.959378 10263457 3
0.155361 0.332850 0.910994 10592424 3
0.177105 0.346113 0.947295 10460838 3
0.124381 0.374516 0.903261 10987182 3
0.125314 0.392267 0.910035 10724267 3
0.154711 0.391039 0.907186 10987439 3
0.105088 0.302357 0.866473 10262944 3
0.181744 0.311832 0.893627 10329250 3
0.103938 0.313118 0.856989 10460836 3
0.117195 0.310958 0.851078 10328739 3
0.131169 0.310958 0.851078 10723497 3
0.178040 0.319849 0.875413 10724010 3
0.185053 0.307615 0.841927 10724010 3
0.103221 0.324932 0.851078 10526629 3
0.118080 0.327387 0.857508 10920876 3
0.131619 0.326048 0.854001 10855083 3
0.145143 0.324932 0.851078 11118255 3
0.156789 0.320179 0.838629 10986667 3
0.169408 0.318019 0.832970 10987182 3
0.180462 0.313464 0.821040 10921389 3
0.195480 0.315948 0.827547 10987180 3
0.102874 0.337767 0.848219 10658215 3
0.119911 0.346760 0.870801 10789803 3
0.134555 0.347654 0.873046 10789803 3
0.148368 0.346437 0.869991 10921389 3
0.159045 0.338754 0.850697 10921387 3
0.171229 0.335262 0.841927 10789803 3
0.179807 0.325757 0.818058 10987182 3
0.192041 0.323739 0.812989 10987180 3
0.107825 0.368620 0.889041 11052973 3
0.138707 0.373160 0.899991 10724010 3
0.151113 0.367395 0.886087 11184561 3
0.163224 0.361988 0.873046 10789801 3
0.138707 0.387937 0.899991 10724267 3
0.049924 0.313292 0.897811 10131870 3
0.092918 0.309201 0.886087 10328739 3
0.046143 0.303184 0.829801 10460836 3
0.062236 0.315709 0.864081 10723750 3
0.076946 0.317869 0.869991 10460323 3
0.091231 0.317869 0.869991 10592424 3
0.058011 0.307501 0.805422 10921387 3
0.073737 0.318299 0.833705 10460836 3
0.088947 0.323840 0.848219 10526629 3
0.087425 0.331988 0.833705 10395043 3
0.087425 0.345676 0.833705 11118766 3
0.600586 0.308824 0.928706 8092541 3
0.600586 0.324073 0.928706 8487299 3
0.600586 0.339321 0.928706 8618631 3
0.613108 0.337819 0.924594 8289920 3
0.625960 0.336567 0.921167 8487299 3
0.635960 0.333876 0.913803 8290177 3
0.615180 0.363185 0.951273 8684424 3
0.680971 0.378887 0.913803 8816010 3
0.658651 0.398542 0.924594 8487045 3
0.671334 0.397065 0.921167 8684425 3
0.406207 0.254019 0.763895 8816523 3
0.417352 0.253172 0.761345 8619144 3
0.402422 0.264078 0.756777 8882317 3
0.412605 0.262650 0.752685 8421766 3
0.409270 0.272785 0.746601 9342868 3
0.417669 0.270288 0.739766 9210769 3
0.416717 0.290231 0.760186 9277075 3
0.423578 0.286430 0.750232 9079696 3
0.005011 0.262427 0.789180 9933981 3
0.004577 0.251549 0.720873 10460327 3
0.017415 0.266901 0.764867 10328739 3
0.004495 0.258623 0.707839 10460327 3
0.016413 0.263385 0.720873 10789292 3
0.029973 0.279459 0.764867 10592424 3
0.016219 0.271959 0.712328 10000287 3
0.028329 0.276001 0.722914 10658217 3
0.042532 0.292018 0.764867 10724008 3
0.016016 0.280111 0.703430 9408150 3
0.027992 0.284439 0.714297 10855596 3
0.040199 0.287870 0.722914 10592422 3
0.052554 0.290553 0.729651 10263457 3
0.027739 0.293489 0.707839 10724010 3
0.039831 0.296997 0.716301 10658215 3
-0.198877 0.295875 0.889764 9671319 3
-0.183888 0.295265 0.887930 9802905 3
-0.143119 0.273107 0.821297 10131870 3
-0.130948 0.275875 0.829621 10263456 3
-0.115346 0.271219 0.815617 10197663 3
-0.194499 0.282871 0.810633 9868441 3
0.531332 0.281137 0.889357 8092800 3
0.508463 0.283011 0.851078 8224386 3
0.526384 0.285149 0.857508 7698042 3
0.502996 0.293791 0.841927 8224387 3
0.520682 0.295987 0.848219 8487558 3
0.488181 0.273329 0.864656 8092287 3
0.464479 0.273565 0.822675 8487045 3
0.494489 0.283011 0.851078 8289666 3
0.455525 0.281539 0.806815 8552839 3
0.487546 0.292814 0.839128 8750218 3
0.470425 0.295825 0.809660 9605527 3
0.361325 0.245063 0.775240 9408148 3
0.374054 0.245063 0.775240 9144978 3
0.358334 0.255657 0.768821 9605529 3
0.370387 0.255264 0.767639 8947597 3
0.382874 0.255187 0.767405 8750218 3
0.393665 0.254019 0.763895 9342355 3
0.321542 0.258982 0.742173 8947597 3
0.333927 0.259137 0.742616 8355459 3
0.349223 0.261460 0.749275 9342354 3
0.362721 0.262324 0.751751 8552838 3
0.375513 0.262638 0.752652 8487046 3
0.386131 0.261460 0.749275 8816011 3
0.316545 0.288847 0.790560 9605529 3
0.304135 0.266591 0.729646 9473941 3
0.305871 0.257952 0.706002 9802906 3
0.323858 0.263148 0.720224 9144975 3
0.341164 0.267444 0.731983 9474194 3
0.355887 0.269492 0.737588 8684424 3
0.367349 0.269017 0.736288 8684424 3
0.380108 0.269492 0.737588 9079183 3
0.396671 0.272552 0.745961 9342868 3
0.304411 0.268257 0.702632 9408148 3
0.321923 0.273330 0.715921 8947596 3
0.339677 0.278245 0.728792 8421506 3
0.355887 0.281603 0.737588 8487045 3
0.367349 0.281106 0.736288 8684424 3
0.380108 0.281603 0.737588 8816011 3
0.399440 0.286788 0.751168 9079696 3
0.342190 0.282409 0.709200 9079182 3
0.358395 0.286049 0.718341 10000284 3
0.374946 0.289725 0.727572 8816011 3
0.314661 0.312488 0.988534 9671833 3
0.382106 0.314564 0.995100 9210769 3
0.396854 0.313309 0.991129 9342357 3
0.320471 0.318366 0.957401 9935005 3
0.343684 0.325462 0.978740 9474454 3
0.356700 0.322700 0.970433 9737113 3
0.368072 0.318749 0.958552 9605527 3
0.379168 0.314894 0.946959 9605529 3
0.389999 0.311131 0.935643 9408148 3
0.262140 0.307990 0.974305 9473941 3
0.273641 0.303011 0.958552 9605527 3
0.288267 0.301846 0.954868 9474454 3
0.246128 0.323967 0.974245 10263457 3
0.254783 0.314894 0.946959 10066078 3
0.267101 0.311131 0.935643 10000285 3
0.279128 0.307457 0.924594 9474454 3
0.290874 0.303869 0.913803 10000798 3
0.216858 0.344284 0.986627 10263457 3
0.232134 0.342920 0.982719 10526629 3
0.237284 0.327748 0.939238 10329250 3
0.248766 0.322638 0.924594 10000285 3
0.262968 0.321442 0.921167 10395043 3
0.275870 0.318872 0.913803 9540247 3
0.246063 0.334149 0.914550 10263457 3
0.262968 0.336567 0.921167 10658215 3
0.121541 0.279013 0.882636 9801365 3
0.135896 0.278732 0.881748 10130843 3
0.107864 0.295739 0.889357 10262429 3
0.120220 0.290316 0.873046 10196637 3
0.117598 0.298004 0.854001 10130844 3
0.131169 0.296984 0.851078 10460323 3
0.146126 0.298997 0.856846 10526116 3
0.052897 0.300710 0.951273 10000284 3
0.068599 0.301074 0.952425 10328988 3
0.051456 0.307711 0.925359 10263456 3
0.067138 0.309964 0.932133 10394783 3
0.081776 0.307457 0.924594 10328992 3
0.095825 0.303869 0.913803 10394016 3
0.065576 0.317704 0.910456 10592162 3
0.079889 0.315194 0.903261 10328737 3
-0.125066 0.250473 0.792354 10131870 3
-0.104464 0.233504 0.738672 9737112 3
-0.190316 0.246869 0.742393 9276304 3
-0.147649 0.257492 0.774337 10000284 3
-0.197474 0.252622 0.723949 10065048 3
-0.185266 0.252185 0.722696 9605269 3
-0.145439 0.266160 0.762744 10329249 3
-0.124009 0.248326 0.711637 10000284 3
-0.112258 0.248178 0.711213 10066077 3
-0.104947 0.258951 0.742085 9934491 3
-0.199116 0.283791 0.776721 10460576 3
-0.182396 0.277749 0.760186 10197406 3
-0.169914 0.277749 0.760186 9868699 3
-0.157433 0.277749 0.760186 10000287 3
-0.138997 0.266340 0.728960 10066078 3
-0.123271 0.258463 0.707402 10000284 3
-0.111404 0.257878 0.705799 10066077 3
-0.101329 0.261790 0.716508 10197663 3
-0.189869 0.282771 0.740649 10131613 3
-0.175577 0.279381 0.731768 10131870 3
-0.162521 0.277602 0.727110 10526629 3
-0.151109 0.278573 0.729651 10461349 3
-0.138373 0.277059 0.725688 10460835 3
-0.100015 0.270006 0.707214 10329250 3
-0.184075 0.285932 0.718048 10460578 3
-0.170789 0.283449 0.711811 10065820 3
-0.159101 0.283449 0.711811 10000285 3
-0.147414 0.283449 0.711811 10592422 3
-0.133544 0.278890 0.700364 10789543 3
-0.196453 0.298616 0.720205 10394785 3
-0.180236 0.291513 0.703072 10525601 3
-0.257651 0.229513 0.726047 9671058 3
-0.246303 0.230047 0.727738 9407886 3
-0.238301 0.233922 0.739995 9145229 3
-0.226952 0.234751 0.742616 9539987 3
-0.219591 0.240033 0.759326 9078921 3
-0.208370 0.241477 0.763895 9210507 3
-0.257277 0.241083 0.724993 9539472 3
-0.246158 0.241854 0.727311 9473679 3
-0.234488 0.242134 0.728154 9013643 3
-0.220864 0.240319 0.722696 9474194 3
-0.212080 0.243863 0.733353 9539474 3
-0.202147 0.246432 0.741079 9078921 3
-0.289215 0.271816 0.778951 9342093 3
-0.255064 0.250811 0.718757 9604751 3
-0.245303 0.252914 0.724784 9473165 3
-0.231595 0.250955 0.719171 10000025 3
-0.218531 0.249521 0.715061 9802646 3
-0.207502 0.250380 0.717523 9736853 3
-0.296716 0.279621 0.765310 9999509 3
-0.265940 0.261702 0.716265 9407886 3
-0.253870 0.261382 0.715391 9999509 3
-0.247667 0.267366 0.731768 9538958 3
-0.232613 0.263918 0.722332 10263197 3
-0.218531 0.261262 0.715061 10328990 3
-0.208161 0.262994 0.719801 10130843 3
-0.208636 0.279459 0.764867 10130843 3
-0.288325 0.272389 0.713455 9407372 3
-0.272411 0.293076 0.767639 9341325 3
-0.261576 0.295071 0.772865 10459806 3
-0.249651 0.295978 0.775240 9934232 3
-0.224278 0.280182 0.733867 10394783 3
-0.218755 0.288798 0.756434 9407890 3
-0.208642 0.292027 0.764891 11579059 3
-0.217726 0.299801 0.752877 10460578 3
-0.201406 0.294023 0.738365 10657957 3
-0.207085 0.296906 0.716079 10197406 3
-0.348883 0.252393 0.798426 8749958 3
-0.346504 0.263692 0.792982 9276302 3
-0.388110 0.278539 0.798219 9342093 3
-0.369699 0.274599 0.786927 9078921 3
-0.359384 0.276604 0.792673 9079436 3
-0.318445 0.274968 0.787986 9736335 3
-0.303571 0.273226 0.782992 9144714 3
-0.396680 0.262612 0.718757 8946821 3
-0.388217 0.264890 0.724993 9013128 3
-0.395621 0.278481 0.762189 9013382 3
-0.394311 0.286625 0.784480 8816003 3
-0.382741 0.287610 0.787175 8947335 3
-0.371567 0.288971 0.790901 9276300 3
-0.361096 0.290999 0.796449 9079434 3
-0.349121 0.291920 0.798972 9671058 3
-0.324789 0.282178 0.772307 9407370 3
-0.307211 0.277749 0.760186 9735822 3
-0.391740 0.270996 0.709807 8486784 3
-0.383563 0.273476 0.716301 8881542 3
-0.375235 0.276001 0.722914 9210761 3
-0.379147 0.287988 0.754312 9013382 3
-0.324715 0.283714 0.743118 9671058 3
-0.396742 0.286259 0.718869 9210507 3
-0.388217 0.288698 0.724993 9013128 3
-0.399770 0.291661 0.703430 9013130 3
-0.389307 0.292477 0.705398 8947850 3
-0.382490 0.296167 0.714297 9013643 3
-0.497316 0.235754 0.745791 7301994 3
-0.474014 0.230381 0.728792 5525324 3
-0.466958 0.232828 0.736536 6512219 3
-0.481252 0.246335 0.779264 6644062 3
-0.487682 0.243195 0.731345 5657169 3
-0.471680 0.241153 0.725203 7696239 3
-0.461912 0.242275 0.728577 7367785 3
-0.457152 0.246154 0.740241 7762543 3
-0.485016 0.260215 0.745707 7696752 3
-0.466697 0.256871 0.736124 8354682 3
-0.480453 0.271473 0.777970 7631729 3
-0.480305 0.278802 0.798972 7960694 3
-0.451595 0.269497 0.772307 8091512 3
-0.426368 0.261794 0.750232 8749442 3
-0.489533 0.274996 0.752652 8683647 3
-0.467269 0.269287 0.737026 7500143 3
-0.446968 0.264436 0.723750 7631729 3
-0.432455 0.262838 0.719376 8618881 3
-0.421370 0.263292 0.720617 8683647 3
-0.408833 0.262838 0.719376 8552063 3
-0.498754 0.285558 0.747947 8224125 3
-0.481870 0.282856 0.740870 8355452 3
-0.465303 0.280205 0.733926 8618624 3
-0.446219 0.275857 0.722537 8158073 3
-0.429135 0.272541 0.713852 8487038 3
-0.416221 0.271761 0.711811 8749442 3
-0.402028 0.270078 0.707402 8815235 3
-0.490806 0.286049 0.718341 8486784 3
-0.479011 0.286049 0.718341 8487297 3
-0.467217 0.286049 0.718341 8618370 3
-0.452576 0.284261 0.713852 8684163 3
-0.436872 0.281693 0.707402 8684163 3
-0.424053 0.280895 0.705398 8947335 3
-0.412471 0.280895 0.705398 8683649 3
-0.400889 0.280895 0.705398 9012614 3
-0.445969 0.291661 0.703430 8223612 3
-0.432961 0.290682 0.701068 8881542 3
0.578016 0.298147 0.994838 8092287 3
0.574928 0.288404 0.962328 8224127 3
0.588028 0.287085 0.957929 8026748 3
0.528989 0.287807 0.910456 8487045 3
0.557520 0.287103 0.908229 7961214 3
0.590204 0.296017 0.936427 7895162 3
-0.070297 0.228587 0.762736 9736855 3
-0.058274 0.230568 0.769344 9671320 3
-0.092336 0.233504 0.738672 9671062 3
-0.080231 0.233573 0.738891 9934234 3
-0.068626 0.235378 0.744602 9802648 3
-0.056101 0.234130 0.740653 9802648 3
-0.043604 0.232339 0.734989 9802905 3
-0.031578 0.232649 0.735969 10197663 3
-0.021163 0.252565 0.798972 10066077 3
-0.094748 0.252049 0.757971 10197151 3
-0.079738 0.244194 0.734347 10460323 3
-0.068079 0.245632 0.738672 10328737 3
-0.055754 0.244768 0.736073 10328737 3
-0.043413 0.243336 0.731768 10000285 3
-0.032021 0.248162 0.746281 10131871 3
-0.019942 0.250356 0.752877 10263457 3
-0.007683 0.253730 0.763026 10526629 3
-0.092297 0.257653 0.738365 10658215 3
-0.079458 0.255351 0.731768 10395043 3
-0.067443 0.255351 0.731768 9934492 3
-0.055528 0.255812 0.733088 10066078 3
-0.044665 0.262717 0.752877 10066078 3
-0.031285 0.254432 0.729134 10263457 3
-0.018909 0.249099 0.713852 10066078 3
-0.007167 0.248387 0.711811 10460836 3
-0.090657 0.264982 0.725243 9868699 3
-0.080971 0.272459 0.745707 10131873 3
-0.069182 0.274260 0.750636 10066080 3
-0.056287 0.271510 0.743111 10395045 3
-0.042993 0.264782 0.724695 10263459 3
-0.030254 0.257627 0.705113 10263459 3
-0.090392 0.276081 0.723125 10329250 3
-0.079366 0.279057 0.730919 10329250 3
-0.067760 0.280693 0.735204 10460838 3
-0.055157 0.278012 0.728184 10329252 3
-0.042212 0.271651 0.711522 10329252 3
-0.030081 0.267660 0.701068 10460838 3
-0.088779 0.282813 0.710215 10658215 3
-0.078000 0.286049 0.718341 10460836 3
-0.066205 0.286049 0.718341 10921389 3
-0.054071 0.284261 0.713852 10460838 3
-0.041711 0.279969 0.703072 10526631 3
-0.064831 0.291661 0.703430 10526631 3
-0.053431 0.292477 0.705398 10658217 3
-0.041592 0.290682 0.701068 10921389 3
-0.359095 0.246287 0.821796 9078925 3
-0.351850 0.250740 0.836654 9013132 3
-0.376759 0.262689 0.830996 9078923 3
-0.357916 0.269037 0.851078 8750471 3
-0.360440 0.281941 0.891900 9013641 3
-0.333815 0.284209 0.899075 9538958 3
-0.391601 0.277180 0.833545 9473679 3
-0.367308 0.269401 0.810151 9473681 3
-0.346614 0.274073 0.824202 9605265 3
-0.335517 0.276078 0.830230 9539472 3
-0.322948 0.276989 0.832970 9473165 3
-0.306766 0.274745 0.826222 9999509 3
-0.356701 0.284855 0.816318 9276300 3
-0.339319 0.281553 0.806856 9210507 3
-0.499516 0.263413 0.878941 8092026 3
-0.404852 0.267614 0.892960 8552579 3
-0.499879 0.278047 0.879580 8026235 3
-0.421656 0.283717 0.897518 9671058 3
-0.442004 0.292417 0.879366 8618624 3
-0.413490 0.282790 0.850416 8684163 3
-0.409438 0.284247 0.814577 8881796 3
0.813462 0.302555 1.068062 6579048 3
0.802515 0.315784 1.053689 6974319 3
0.823246 0.317105 1.058097 7303284 3
0.812269 0.330018 1.043989 6382182 3
0.837116 0.333084 1.053689 6184804 3
0.815175 0.341201 1.026072 6776941 3
0.453853 0.308439 1.088834 8223874 3
0.400878 0.312877 1.043989 9013392 3
0.414238 0.310047 1.034545 8750220 3
0.429435 0.308760 1.030253 9210769 3
0.446351 0.308760 1.030253 9342355 3
0.471875 0.314497 1.049396 8947596 3
0.338573 0.301306 1.063654 9211282 3
0.359029 0.303838 1.072592 8684937 3
0.376640 0.303838 1.072592 8948109 3
0.390588 0.301015 1.062627 8355460 3
0.305756 0.303530 1.012799 9342355 3
0.329616 0.310338 1.035515 8684938 3
0.349455 0.312877 1.043989 9211282 3
0.366596 0.312877 1.043989 9277075 3
0.383737 0.312877 1.043989 8684425 3
0.339014 0.320159 1.012799 9474454 3
0.357074 0.321447 1.016873 9079696 3
0.370475 0.318613 1.007910 9474454 3
0.253240 0.303690 1.072069 9737112 3
0.202889 0.325230 1.085208 10065565 3
0.213840 0.315110 1.051440 9671319 3
0.232567 0.317105 1.058097 9605526 3
0.245418 0.311368 1.038954 9802905 3
0.255690 0.303317 1.012091 9473940 3
0.209705 0.325947 1.031111 9868698 3
0.231598 0.333084 1.053689 10066077 3
0.247648 0.331412 1.048398 10000285 3
0.254567 0.318530 1.007648 10066078 3
0.207445 0.339182 1.020000 10197663 3
0.228522 0.345732 1.039697 10197663 3
0.242203 0.340960 1.025347 9934492 3
0.146832 0.302057 1.066306 9933462 3
0.122353 0.302339 1.008828 10065820 3
0.141997 0.309043 1.031194 9999257 3
0.163300 0.317542 1.059556 9999257 3
0.184261 0.323806 1.080458 9802393 3
0.181292 0.336042 1.063046 10591394 3
0.194662 0.329138 1.041204 9736855 3
-0.116618 0.304235 1.073991 9407888 3
-0.193802 0.304604 1.016384 9605269 3
-0.181429 0.312023 1.041141 9671062 3
-0.167011 0.317105 1.058097 9737112 3
-0.149638 0.317105 1.058097 9408147 3
-0.225774 0.249483 0.880709 9539474 3
-0.208815 0.246533 0.870295 9539474 3
-0.228979 0.267690 0.893211 9604497 3
-0.207588 0.259290 0.865185 9605267 3
-0.219814 0.271054 0.857461 9605267 3
-0.202684 0.280905 0.844746 9605269 3
1.402464 0.435111 1.630510 4211265 3
1.422150 0.468366 1.653397 5987676 3
1.438445 0.456311 1.610843 4408392 3
1.439377 0.492121 1.642080 5658198 3
1.456653 0.488871 1.631234 5526614 3
0.743704 0.278595 1.043989 6579302 3
0.767914 0.281183 1.053689 6316130 3
0.714093 0.290660 1.026072 6842221 3
0.740646 0.294520 1.039697 6973806 3
0.760845 0.295736 1.043989 7039599 3
0.785214 0.298483 1.053689 7368564 3
0.417106 0.302820 1.134771 8026237 3
0.435737 0.302820 1.134771 7762810 3
0.454369 0.302820 1.134771 8092288 3
0.473001 0.302820 1.134771 8289666 3
0.482477 0.315465 1.113637 9013389 3
0.273360 0.288747 1.082034 9013132 3
0.283294 0.280980 1.052928 9013130 3
0.260152 0.291704 1.029756 9210768 3
0.273594 0.288054 1.016873 9605269 3
0.290290 0.288054 1.016873 9342354 3
0.215080 0.306995 1.150416 9210768 3
0.230787 0.302820 1.134771 9210511 3
0.249419 0.302820 1.134771 9473683 3
0.208941 0.316581 1.117576 9802906 3
0.224286 0.312397 1.102806 9408147 3
0.242393 0.312397 1.102806 9408147 3
-0.196679 0.301188 1.128655 9276302 3
-0.196322 0.319139 1.126607 9671062 3
-0.176951 0.317572 1.121075 9671319 3
-0.158188 0.316860 1.118560 9473940 3
-0.139700 0.316581 1.117576 9342095 3
-0.499701 0.249027 0.933188 7763315 3
-0.492363 0.260467 0.919484 7894901 3
-0.480085 0.262005 0.924915 7763313 3
-0.466281 0.262784 0.927665 8158071 3
-0.458683 0.267231 0.943364 8289405 3
-0.456608 0.275320 0.971917 8289405 3
-0.437175 0.273148 0.964252 8486786 3
-0.417243 0.270490 0.954868 8881546 3
-0.499092 0.271020 0.904322 6973545 3
-0.492363 0.275564 0.919484 7894899 3
-0.474317 0.273861 0.913803 8223864 3
-0.457968 0.273059 0.911125 8421243 3
-0.447727 0.275967 0.920830 8815749 3
-0.429771 0.274158 0.914793 8815749 3
-0.493264 0.291193 0.921167 8816514 3
-0.474317 0.288865 0.913803 9079175 3
-0.457968 0.288018 0.911125 7960694 3
-0.447247 0.290774 0.919844 8815749 3
-0.571268 0.253589 0.950286 7631475 3
-0.579548 0.264489 0.991129 7499889 3
-0.529698 0.248722 0.932048 7499891 3
-0.503776 0.243588 0.912808 7236719 3
-0.500177 0.265548 0.995100 8289657 3
-0.500929 0.257114 0.907650 8092026 3
-0.596960 0.275065 0.917820 8420473 3
-0.504737 0.289101 0.914550 8158330 3
-0.554211 0.239477 0.897403 7829108 3
-0.552215 0.253296 0.894170 7762545 3
-0.518333 0.244248 0.862230 7959924 3
-0.505903 0.245085 0.865185 8158073 3
-0.501301 0.249872 0.882083 8026233 3
-0.599469 0.250888 0.837146 7566447 3
-0.580682 0.248728 0.829940 7829619 3
-0.561498 0.246290 0.821806 7894901 3
-0.542574 0.243849 0.813661 7302764 3
-0.534341 0.252588 0.842820 7630957 3
-0.519111 0.251912 0.840566 7894129 3
-0.518333 0.258405 0.862230 7894131 3
-0.505903 0.259290 0.865185 8026487 3
-0.587696 0.253620 0.802308 7434350 3
-0.514601 0.270600 0.856023 8157301 3
-0.505035 0.273026 0.863699 8092026 3
-0.501775 0.277560 0.834687 8289657 3
-0.506967 0.288306 0.867004 8355198 3
-0.502890 0.294250 0.884878 8420991 3
-0.695624 0.232567 0.871510 7302764 3
-0.683163 0.233199 0.873875 6513248 3
-0.676736 0.230683 0.814344 6579041 3
-0.686103 0.238590 0.842257 7105385 3
-0.673146 0.238900 0.843349 6776418 3
-0.658634 0.238659 0.842499 7170406 3
-0.651368 0.241089 0.851078 7302762 3
-0.657312 0.248623 0.877675 6776420 3
-0.693297 0.240522 0.802559 7171178 3
-0.666016 0.245029 0.817598 5986132 3
-0.657863 0.247008 0.824202 6775648 3
-0.644759 0.247172 0.824750 6380890 3
-0.637509 0.249636 0.832970 7301992 3
-0.624041 0.249719 0.833249 7236969 3
-0.613418 0.250971 0.837425 7565936 3
-0.652105 0.253055 0.800521 5920594 3
-0.640995 0.253860 0.803069 5723729 3
-0.630239 0.254843 0.806176 6250074 3
-0.620595 0.256327 0.810871 7434350 3
-0.601438 0.253860 0.803069 7236971 3
-0.617398 0.268251 0.806694 7039592 3
-0.667762 0.210276 0.787976 6381408 3
-0.670240 0.224042 0.790901 6842213 3
-0.696881 0.237256 0.791662 6710627 3
-0.671304 0.237404 0.792156 5920341 3
-0.662078 0.238768 0.796706 5788755 3
-0.689466 0.247592 0.783238 4671044 3
-0.679793 0.248758 0.786927 6644062 3
-0.666872 0.248758 0.786927 6841184 3
-0.656431 0.249701 0.789910 6907234 3
-0.688047 0.255156 0.767313 5855318 3
-0.670215 0.253179 0.761368 6118490 3
-0.675342 0.259965 0.781775 6249304 3
-0.665830 0.261269 0.785697 6906977 3
-0.656431 0.262670 0.789910 7104613 3
-0.649810 0.265262 0.797704 7104868 3
-0.635499 0.264756 0.796183 6842210 3
-0.624018 0.265433 0.798219 6447453 3
-0.659960 0.256825 0.735991 5328972 3
-0.640749 0.253999 0.727894 5197386 3
-0.671167 0.271114 0.776941 6117720 3
-0.665830 0.274170 0.785697 6117461 3
-0.654367 0.274773 0.787426 7170406 3
-0.647539 0.277387 0.794916 7301992 3
-0.630103 0.275470 0.789423 6842211 3
-0.617522 0.275640 0.789910 6579041 3
-0.608192 0.277299 0.794665 7302764 3
-0.634136 0.258386 0.707191 6447452 3
-0.618560 0.256741 0.702688 6973797 3
-0.660538 0.279376 0.764638 6709857 3
-0.659215 0.284218 0.777891 6183254 3
-0.647445 0.284658 0.779097 6249304 3
-0.634851 0.284747 0.779340 6973029 3
-0.624970 0.286082 0.782992 7302764 3
-0.612306 0.286171 0.783238 7500143 3
-0.602269 0.287519 0.786927 7763315 3
-0.635739 0.286414 0.750188 6907236 3
-0.635006 0.291736 0.764129 7236201 3
-0.629576 0.295071 0.772865 7697522 3
-0.612007 0.292737 0.766751 6973799 3
-0.730832 0.221552 0.830230 6512994 3
-0.716659 0.221384 0.829603 6118236 3
-0.712655 0.233459 0.874852 5592146 3
-0.723505 0.228562 0.806856 6447714 3
-0.705187 0.226930 0.801096 6381408 3
-0.717297 0.235215 0.830341 6052443 3
0.110500 0.263898 1.053752 9276304 3
0.133055 0.274745 1.097063 8749960 3
0.108937 0.277220 1.038839 9605269 3
0.130039 0.286123 1.072200 9539476 3
0.107598 0.290660 1.026072 9802648 3
0.126150 0.294644 1.040135 10197406 3
0.066521 0.231297 0.923576 9605780 3
0.087421 0.247538 0.988424 9145229 3
0.035627 0.242610 0.909144 9539474 3
0.050924 0.244381 0.915780 9539987 3
0.066496 0.246370 0.923231 8750471 3
0.082565 0.249116 0.933522 9211022 3
0.020573 0.255958 0.903567 9605269 3
0.035627 0.257538 0.909144 10131611 3
0.050924 0.259417 0.915780 9868952 3
0.066496 0.261528 0.923231 9671573 3
0.083067 0.266050 0.939195 9605780 3
0.020555 0.270551 0.902757 9868441 3
0.037921 0.290009 0.967685 9539476 3
0.054224 0.292244 0.975142 9868698 3
0.065817 0.273861 0.913803 9605780 3
0.081563 0.276375 0.922193 9868952 3
0.036565 0.294959 0.933080 10263456 3
0.081086 0.289813 0.916802 10263199 3
0.097747 0.294659 0.932133 10525602 3
0.005650 0.222830 0.889764 9605267 3
0.005692 0.239224 0.896455 9868441 3
0.020462 0.239826 0.898709 9342095 3
0.005715 0.254945 0.899991 9539476 3
0.005650 0.266657 0.889764 10262944 3
0.005416 0.269644 0.852999 10394530 3
0.020442 0.283809 0.897811 10526116 3
0.019007 0.277596 0.834795 10394532 3
0.034952 0.296585 0.891900 10526629 3
0.033028 0.294097 0.842804 9473941 3
-0.023514 0.222316 0.887712 9605780 3
-0.008928 0.222047 0.886640 9342608 3
-0.023832 0.240097 0.899726 9671573 3
-0.009046 0.239739 0.898384 9474194 3
-0.038464 0.253943 0.896455 9868698 3
-0.023703 0.253488 0.894848 10000538 3
-0.009046 0.254489 0.898384 9868952 3
-0.050424 0.254724 0.849947 9408147 3
-0.035740 0.249636 0.832970 9737112 3
-0.022064 0.249636 0.832970 9737366 3
-0.008656 0.257634 0.859658 9934745 3
-0.008160 0.256183 0.810415 10131870 3
-0.038839 0.226694 0.905193 9013389 3
-0.057634 0.259242 0.971469 9013389 3
-0.039065 0.242960 0.910456 9342354 3
-0.073486 0.274825 0.970171 9671319 3
-0.054411 0.259803 0.917140 9671319 3
-0.099724 0.270977 1.082019 9210509 3
-0.063743 0.269079 1.074440 9013389 3
-0.094093 0.272440 1.020926 9539474 3
-0.076563 0.269738 1.010801 9539733 3
-0.092893 0.285515 1.007910 9407890 3
-0.175693 0.278763 1.113106 9408401 3
-0.157838 0.279508 1.116081 9145229 3
-0.139823 0.280129 1.118560 9210509 3
-0.119553 0.275736 1.101021 9473679 3
-0.175693 0.297039 1.113106 9474194 3
-0.157066 0.296377 1.110627 9342608 3
-0.138831 0.296377 1.110627 9671058 3
-0.691994 0.253642 1.012799 6184029 3
-0.684215 0.256966 1.026072 6315617 3
-0.689020 0.265303 1.059361 7302764 3
-0.680014 0.268616 1.072592 6447455 3
-0.668728 0.271181 1.082834 6447201 3
-0.660078 0.274984 1.098019 7368303 3
-0.664718 0.272726 1.021998 7763315 3
-0.651130 0.274070 1.027033 6710627 3
-0.699573 0.250403 0.999865 6118749 3
-0.697840 0.248653 0.931789 6645091 3
-0.679781 0.247648 0.928022 7105644 3
-0.679625 0.253268 0.949081 7171435 3
-0.672496 0.256492 0.961165 7171435 3
-0.666143 0.260175 0.974964 7368303 3
-0.664158 0.265787 0.995994 6907752 3
-0.659768 0.255146 0.900700 7237228 3
-0.651730 0.257816 0.910127 7500400 3
-0.633565 0.256512 0.905522 7500400 3
-0.642930 0.266559 0.940989 7565936 3
-0.642139 0.272786 0.962973 7960440 3
-0.634127 0.276183 0.974964 7696752 3
-0.620513 0.277252 0.978740 8091508 3
-0.758193 0.248097 0.990657 6184540 3
-0.733003 0.245112 0.978740 5658198 3
-0.716933 0.245112 0.978740 6053469 3
-0.701417 0.245306 0.979514 6447712 3
-0.763103 0.245046 0.918272 6512994 3
-0.713403 0.248745 0.932133 7039592 3
0.906872 0.345725 1.477344 6315879 3
0.931129 0.345725 1.477344 6184291 3
0.955385 0.345725 1.477344 6644841 3
0.979642 0.345725 1.477344 5987422 3
0.920553 0.356492 1.423482 6579049 3
0.583798 0.303826 1.298302 7697529 3
0.502819 0.302103 1.206306 8223873 3
0.530042 0.306391 1.223425 8026748 3
0.556132 0.309734 1.236776 7960955 3
0.599180 0.321953 1.285568 7698040 3
0.544919 0.323386 1.211840 8487299 3
0.570217 0.326478 1.223425 8027007 3
0.584714 0.343284 1.211840 8553351 3
0.314429 0.273484 1.168645 8617605 3
0.330244 0.270719 1.156830 7960701 3
0.347616 0.269462 1.151459 7961214 3
0.378152 0.278012 1.187996 8092541 3
0.302250 0.281336 1.123380 8355202 3
0.314821 0.276183 1.102806 7895162 3
0.339563 0.281687 1.124782 7631736 3
0.364862 0.287062 1.146244 8355972 3
0.389383 0.291327 1.163274 8421506 3
0.354483 0.297180 1.113637 8553351 3
0.217983 0.272851 1.165940 8684678 3
0.240503 0.276736 1.182543 8815751 3
0.295240 0.273484 1.168645 8354432 3
0.217983 0.291994 1.165940 9211281 3
0.238373 0.293529 1.172069 8947339 3
0.299565 0.296959 1.185764 8947339 3
0.262860 0.296956 1.112795 9078925 3
-0.288343 0.263219 1.124782 8289918 3
-0.286896 0.279820 1.195721 8355711 3
-0.260028 0.291345 1.163350 8881546 3
-0.201507 0.289595 1.156360 8815751 3
-0.228884 0.294928 1.105198 9210511 3
-0.688485 0.275540 1.177432 6644582 3
-0.665720 0.274126 1.171391 7039338 3
-0.634660 0.277363 1.185223 7302764 3
-0.601552 0.271210 1.158930 7105385 3
-0.644849 0.276183 1.102806 7565682 3
-0.626742 0.276183 1.102806 6644582 3
-0.614613 0.278896 1.113637 7697270 3
-0.796756 0.279614 1.194842 6973545 3
-0.771253 0.277497 1.185794 6841443 3
-0.746482 0.275540 1.177432 6446687 3
-0.727150 0.275540 1.177432 6973547 3
-0.707817 0.275540 1.177432 6973547 3
-0.735316 0.234915 1.003836 7171435 3
-0.725252 0.237013 1.012799 6381919 3
-0.711473 0.237966 1.016873 6447712 3
-0.732556 0.250906 1.072166 5526353 3
-0.794953 0.254662 1.016873 5460560 3
0.464198 0.274803 1.262890 7434098 3
0.484934 0.274803 1.262890 7236721 3
0.403217 0.281898 1.204603 7763061 3
0.422995 0.281898 1.204603 7697270 3
0.442774 0.281898 1.204603 8157821 3
0.462552 0.281898 1.204603 7960444 3
0.487512 0.284927 1.217543 7895162 3
-0.284824 0.214312 0.984896 8289405 3
-0.298425 0.228515 0.976484 8092028 3
-0.280092 0.226654 0.968533 8420991 3
-0.265999 0.228206 0.975166 8289405 3
-0.280535 0.242939 0.970062 8815751 3
-0.258708 0.237523 0.948437 8815751 3
-0.237471 0.231989 0.926338 8421506 3
-0.294749 0.257371 0.964456 8289407 3
-0.275416 0.254144 0.952363 8355200 3
-0.256946 0.251372 0.941977 8881544 3
-0.235196 0.244830 0.917464 8882057 3
-0.236404 0.262928 0.985281 9211022 3
-0.289961 0.268768 0.948790 9013643 3
-0.272413 0.266838 0.941977 9144716 3
-0.247926 0.257470 0.908907 9671060 3
-0.217368 0.275482 0.972491 9539476 3
-0.288303 0.282720 0.943364 9145486 3
-0.272814 0.282720 0.943364 9276815 3
-0.259482 0.285091 0.951273 9407888 3
-0.212737 0.285240 0.951772 9473683 3
-0.217666 0.286773 0.907186 9473683 3
-0.203502 0.287807 0.910456 9539733 3
-0.335447 0.215668 0.991129 7434096 3
-0.319174 0.215668 0.991129 7039340 3
-0.300995 0.214312 0.984896 7434098 3
-0.338260 0.233887 0.999440 8092026 3
-0.319684 0.232312 0.992712 8289407 3
-0.300297 0.246082 0.982612 8880774 3
-0.316364 0.262160 0.982403 8289407 3
-0.336791 0.281887 0.995100 9342095 3
-0.312443 0.274841 0.970227 9145229 3
-0.388263 0.287930 0.960749 9078921 3
-0.380229 0.293914 0.980713 9144714 3
-0.331097 0.293183 0.978275 9342095 3
-0.307287 0.285973 0.954216 9079436 3
-0.352990 0.287807 0.910456 9078921 3
-0.358528 0.219843 1.010312 7894901 3
-0.376498 0.237302 1.014035 7960694 3
-0.356230 0.234915 1.003836 8026487 3
-0.399273 0.257908 1.029832 8815749 3
-0.376649 0.254053 1.014440 8552577 3
-0.358528 0.253019 1.010312 8289405 3
-0.341940 0.253019 1.010312 8947337 3
-0.322375 0.250705 1.001070 8814981 3
-0.395053 0.271913 1.018950 8684163 3
-0.375727 0.270047 1.011958 8355198 3
-0.356230 0.267879 1.003836 8947337 3
-0.339748 0.267879 1.003836 8947337 3
-0.396825 0.289937 1.023519 8947335 3
-0.376498 0.287250 1.014035 9144714 3
-0.356230 0.284361 1.003836 8815751 3
-0.406595 0.238291 1.095094 7894901 3
-0.491673 0.271587 1.084455 7697270 3
-0.472163 0.270610 1.080554 8092030 3
-0.491127 0.269548 1.010091 8355198 3
-0.491716 0.279303 1.046646 8552577 3
-0.461803 0.271812 1.018574 8289407 3
-0.438640 0.267879 1.003836 8618374 3
-0.437846 0.277834 1.041141 8486788 3
-0.426731 0.281783 1.055936 8355198 3
-0.533827 0.256208 1.177432 8289659 3
-0.514495 0.256208 1.177432 8026233 3
-0.574544 0.267495 1.143054 6907752 3
-0.556554 0.267869 1.144654 7302512 3
-0.548777 0.273357 1.168104 7499889 3
-0.525918 0.271458 1.159988 7697268 3
-0.507349 0.271713 1.161078 7368305 3
-0.598964 0.280129 1.118560 7105385 3
-0.579837 0.279761 1.117094 7434350 3
-0.532878 0.284061 1.134261 7565682 3
-0.689902 0.264152 1.213941 6710627 3
-0.691409 0.272605 1.252787 7236969 3
-0.670840 0.272605 1.252787 7105385 3
-0.635029 0.266216 1.223425 6513248 3
-0.624703 0.270441 1.242845 7105131 3
-0.604297 0.270441 1.242845 6776166 3
-0.665756 0.282297 1.206306 7105385 3
-0.968668 0.248727 1.143054 5263179 3
-0.949901 0.248727 1.143054 6249822 3
-0.965942 0.261672 1.118172 6117720 3
-0.941189 0.259906 1.110627 5921109 3
-0.922953 0.259906 1.110627 5921111 3
1.066466 0.212868 1.058097 4737098 3
1.069388 0.210029 1.043989 4934477 3
1.049093 0.230241 1.058097 4605510 3
1.073721 0.231807 1.065295 4342340 3
1.049093 0.247614 1.058097 4737098 3
1.076510 0.249946 1.068062 2631468 3
1.056230 0.266789 1.065295 2763306 3
1.230520 0.258233 1.283594 3814967 3
1.211862 0.250035 1.242845 5658198 3
1.230520 0.279308 1.283594 3749174 3
1.211862 0.270441 1.242845 4737096 3
1.201185 0.288285 1.231895 3223857 3
1.133524 0.403903 2.007672 6118751 3
1.197185 0.414532 2.060506 4868430 3
1.133524 0.436867 2.007672 6776681 3
1.166488 0.436867 2.007672 6381669 3
1.199452 0.436867 2.007672 6315879 3
0.123470 0.236875 1.177432 8223873 3
0.139652 0.231650 1.151459 8355202 3
0.116465 0.241671 1.110627 9079182 3
0.133751 0.239969 1.102806 8815753 3
0.154028 0.243397 1.118560 9013643 3
0.176168 0.248727 1.143054 8355459 3
0.196370 0.250556 1.151459 8881803 3
0.115901 0.258648 1.105250 8881803 3
0.133932 0.258424 1.104293 8881546 3
0.155277 0.263887 1.127635 9145229 3
0.176249 0.267618 1.143579 8684424 3
0.196461 0.269587 1.151992 8816010 3
0.155277 0.282401 1.127635 7697270 3
0.176249 0.286394 1.143579 9145229 3
0.196461 0.288501 1.151992 9276815 3
0.152736 0.295991 1.109182 9342095 3
-0.481824 0.286404 1.423622 7368816 3
-0.458450 0.286404 1.423622 7434098 3
-0.435075 0.286404 1.423622 7697270 3
-0.419325 0.291708 1.449985 7434096 3
-0.402980 0.297212 1.477344 7631475 3
-0.449735 0.233366 1.159988 7368814 3
-0.430689 0.233366 1.159988 7500400 3
-0.495162 0.275540 1.177432 7434098 3
-0.474753 0.274916 1.174765 8026487 3
-0.433334 0.261558 1.117686 7434350 3
-0.466321 0.277697 1.108850 7697272 3
-0.449808 0.278746 1.113041 8223612 3
-0.572573 0.254068 1.262890 7368555 3
-0.543078 0.250035 1.242845 7302510 3
-0.522672 0.250035 1.242845 7828856 3
-0.502265 0.250035 1.242845 7894647 3
-0.574767 0.266216 1.223425 7302764 3
-0.506589 0.262120 1.204603 7631477 3
-0.807171 0.256133 1.273158 6183515 3
-0.889985 0.270441 1.242845 6447714 3
-0.877014 0.279308 1.283594 6579041 3
-0.855938 0.279308 1.283594 6907236 3
-0.834863 0.279308 1.283594 5920341 3
-1.191603 0.262537 1.304987 4868680 3
-1.168220 0.266987 1.327105 4473926 3
-1.146430 0.266987 1.327105 5065548 3
-1.124641 0.266987 1.327105 4671044 3
-1.161932 0.281289 1.398200 4736583 3
1.408195 0.314492 1.702157 4079166 3
1.413767 0.358005 1.779528 4078915 3
1.410919 0.350049 1.739982 4736844 3
1.408195 0.342439 1.702157 4671303 3
1.472204 0.387223 1.779528 4144961 3
0.917060 0.328787 1.779528 5723740 3
0.905136 0.314492 1.702157 5657946 3
0.975496 0.328787 1.779528 5263188 3
0.905136 0.342439 1.702157 5855326 3
0.933083 0.342439 1.702157 5526360 3
0.933083 0.370387 1.702157 7171185 3
0.829406 0.328787 1.779528 5394774 3
0.858624 0.328787 1.779528 5724252 3
0.887842 0.328787 1.779528 5263188 3
0.849240 0.342439 1.702157 6315876 3
0.877188 0.342439 1.702157 6315877 3
-0.277725 0.325092 1.759533 7697781 3
-0.248836 0.325092 1.759533 7434609 3
-0.217502 0.321480 1.739982 8487299 3
-0.280881 0.358005 1.779528 8553092 3
-0.254556 0.362120 1.799982 8618885 3
-0.771637 0.237158 1.283594 6249824 3
-0.744460 0.235230 1.273158 5591892 3
-0.773687 0.252035 1.252787 6381410 3
-0.741258 0.248066 1.233058 6644582 3
-0.721012 0.248066 1.233058 6710373 3
-0.700766 0.248066 1.233058 6973799 3
-0.794257 0.272605 1.252787 5459792 3
-0.755554 0.266216 1.223425 6184031 3
-0.735467 0.266216 1.223425 6381410 3
-0.709834 0.264152 1.213941 6512996 3
-1.234531 0.304560 1.648404 4145472 3
-1.261080 0.338757 1.683854 6185055 3
-1.275017 0.362507 1.665941 6513507 3
-1.247664 0.362507 1.665941 6382434 3
-1.207466 0.358691 1.648404 6710886 3
-1.386578 0.314492 1.702157 5262931 3
-1.388822 0.321480 1.739982 5131343 3
-1.330683 0.314492 1.702157 6183515 3
-1.302735 0.314492 1.702157 5395026 3
-1.330683 0.342439 1.702157 5920343 3
-1.302735 0.342439 1.702157 6052956 3
1.055317 0.173434 1.030253 4539717 3
1.058308 0.171182 1.016873 4145472 3
1.052247 0.192888 1.043989 5000268 3
1.055317 0.190350 1.030253 4934477 3
1.058308 0.187878 1.016873 5263440 3
1.174574 0.202785 1.204603 4342079 3
1.192927 0.226041 1.223425 5263440 3
1.130237 0.250035 1.242845 5132113 3
1.188369 0.258233 1.283594 4078653 3
1.130237 0.270441 1.242845 3882048 3
1.150643 0.270441 1.242845 5263440 3
-1.288317 0.246374 1.463537 4474183 3
-1.288369 0.251067 1.491413 4210500 3
-1.252581 0.267900 1.449985 4341827 3
-1.263882 0.275555 1.491413 3881274 3
-1.227702 0.272955 1.477344 5065550 3
0.722080 0.303780 1.013635 6842734 3
0.750834 0.308760 1.030253 7040112 3
0.774787 0.311591 1.039697 6513768 3
0.791858 0.328661 1.039697 6776940 3
0.748899 0.334180 1.004956 7632250 3
0.774475 0.338143 1.016873 7698042 3
0.791171 0.338143 1.016873 6908526 3
0.746085 0.349363 1.001180 7829628 3
0.774475 0.354839 1.016873 7698042 3
0.784198 0.351711 1.007910 7434868 3
0.797510 0.350289 1.003836 7698812 3
0.746085 0.365801 1.001180 8092800 3
0.774475 0.371535 1.016873 7632247 3
0.009293 0.222344 1.463537 6907754 3
0.033323 0.222344 1.463537 7302512 3
0.057894 0.224442 1.477344 7039340 3
0.082933 0.226579 1.491413 7170926 3
0.009381 0.248698 1.477344 7565684 3
0.033637 0.248698 1.477344 7763063 3
0.057894 0.248698 1.477344 7170926 3
0.082150 0.248698 1.477344 7170926 3
0.009381 0.272955 1.477344 7499891 3
0.033323 0.270404 1.463537 8223612 3
0.057353 0.270404 1.463537 7697270 3
0.081383 0.270404 1.463537 7763063 3
0.033323 0.294434 1.463537 8618370 3
0.056822 0.291708 1.449985 8486786 3
0.080629 0.291708 1.449985 8552579 3
-0.466698 0.317211 2.087979 6776168 3
-0.426725 0.313037 2.060506 6908267 3
-0.460557 0.346869 2.060506 7368305 3
-0.415784 0.337975 2.007672 7237232 3
-0.494388 0.380700 2.060506 7894649 3
-0.460557 0.380700 2.060506 7368818 3
-0.953839 0.247821 1.631234 4737096 3
-0.927056 0.247821 1.631234 6315867 3
-0.980622 0.274605 1.631234 5986650 3
-0.953839 0.274605 1.631234 6316126 3
-0.927056 0.274605 1.631234 6250074 3
-0.900272 0.274605 1.631234 6579039 3
-1.188841 0.264343 1.739982 5525583 3
-1.173309 0.267313 1.759533 5130823 3
-1.103134 0.264343 1.739982 5130825 3
-1.162996 0.286544 1.702157 4801858 3
-1.103134 0.292912 1.739982 4999239 3
-1.288796 0.261438 1.720862 3750203 3
-1.232286 0.261438 1.720862 4868171 3
-1.231088 0.267313 1.759533 4670790 3
-1.288796 0.289693 1.720862 5394774 3
-1.204031 0.289693 1.720862 4736837 3
-0.277725 0.238423 1.759533 6184544 3
-0.248836 0.238423 1.759533 6908267 3
-0.219946 0.238423 1.759533 7039340 3
-0.277725 0.267313 1.759533 6974060 3
-0.248836 0.267313 1.759533 7368305 3
-0.219946 0.267313 1.759533 7236719 3
-0.277725 0.296203 1.759533 7960442 3
-0.248836 0.296203 1.759533 7302512 3
-0.219946 0.296203 1.759533 7565684 3
-0.799676 0.230648 1.702157 5328974 3
-0.788878 0.235774 1.739982 4407872 3
-0.771728 0.258596 1.702157 6052695 3
-0.786526 0.273458 1.799982 5131341 3
-0.751954 0.289693 1.720862 6842213 3
-0.715833 0.286544 1.702157 6974060 3
-0.719153 0.299569 1.779528 6710888 3
-0.892074 0.225741 1.665941 5459538 3
-0.864721 0.225741 1.665941 5789271 3
-0.873489 0.247821 1.631234 6315101 3
-0.846706 0.247821 1.631234 6249822 3
-0.828553 0.250430 1.648404 5723989 3
-0.818725 0.255816 1.683854 4342079 3
-0.873489 0.274605 1.631234 4933448 3
-0.819923 0.274605 1.631234 6776677 3
-0.818725 0.283463 1.683854 6513246 3
-1.348051 0.243904 1.799982 4604997 3
-1.318497 0.243904 1.799982 5262927 3
-1.331685 0.264343 1.739982 4539204 3
-1.360254 0.292912 1.739982 4670790 3
-1.331685 0.292912 1.739982 4868169 3
-0.883519 0.202701 1.702157 5328722 3
-0.884411 0.209533 1.759533 5855577 3
-0.855521 0.209533 1.759533 5855318 3
-0.836025 0.211914 1.779528 5460560 3
-0.855571 0.230648 1.702157 5066061 3
-0.827624 0.230648 1.702157 5789525 3
-0.939415 0.202701 1.702157 5065802 3
-0.911467 0.202701 1.702157 5459538 3
-0.988859 0.235774 1.739982 5657939 3
-0.949738 0.233183 1.720862 5131595 3
-0.939415 0.258596 1.702157 6118488 3
-1.498369 0.202701 1.702157 5263442 3
-1.491096 0.267313 1.759533 5065550 3
-1.407159 0.273458 1.799982 4933962 3
-1.445960 0.292912 1.739982 5131343 3
-1.433317 0.296203 1.759533 4539206 3
-1.420387 0.299569 1.779528 5066061 3
-1.358044 0.214364 2.087979 3354930 3
-1.323761 0.214364 2.087979 3289137 3
-1.323761 0.248646 2.087979 5262413 3
-1.358044 0.282929 2.087979 4999241 3
-1.323761 0.282929 2.087979 5130827 3
-0.566000 0.249858 0.790407 7697520 3
-0.545960 0.246667 0.780314 7894899 3
-0.531352 0.245836 0.777685 7565166 3
-0.598370 0.265683 0.798972 7500143 3
-0.581005 0.263756 0.793175 6776420 3
-0.557754 0.259006 0.778892 6052695 3
-0.538754 0.256054 0.770014 6250074 3
-0.521358 0.253741 0.763057 6775650 3
-0.592325 0.275986 0.790901 7631729 3
-0.573395 0.273154 0.782786 6973799 3
-0.552260 0.269118 0.771220 7367785 3
-0.535291 0.266970 0.765065 6841441 3
-0.521460 0.266321 0.763206 7171178 3
-0.501742 0.262561 0.752429 7565936 3
-0.589349 0.287519 0.786927 7829108 3
-0.566715 0.282674 0.773667 7434350 3
-0.546027 0.278600 0.762516 7170406 3
-0.531558 0.277582 0.759730 7367785 3
-0.514402 0.275079 0.752877 7236971 3
-0.502041 0.275079 0.752877 8158073 3
-0.584718 0.285558 0.747947 6974058 3
-0.570386 0.284535 0.745267 7368303 3
-0.553706 0.282270 0.739334 8223612 3
-0.548523 0.285895 0.748831 8288891 3
-0.531939 0.283609 0.742842 8223096 3
-0.526764 0.287440 0.752877 8092280 3
-0.514402 0.287440 0.752877 8092026 3
-0.572131 0.279679 0.702345 7500143 3
-0.586826 0.292764 0.735204 7697522 3
-0.563929 0.287250 0.721356 7434609 3
-0.547268 0.284743 0.715061 8157819 3
-0.537216 0.285641 0.717316 8092026 3
-0.526189 0.286049 0.718341 8223098 3
-0.514395 0.286049 0.718341 7763315 3
-0.502600 0.286049 0.718341 8223866 3
-0.557341 0.295599 0.712929 8026744 3
-0.752679 0.124831 2.337290 3355184 3
-0.703798 0.122996 2.302918 2630439 3
-0.752679 0.163207 2.337290 3289648 3
-0.703798 0.160807 2.302918 4012092 3
-0.703798 0.198619 2.302918 4802378 3
-1.360029 0.114571 2.145184 3222317 3
-1.306904 0.113023 2.116195 2301217 3
-1.360029 0.149793 2.145184 3091244 3
-1.324807 0.149793 2.145184 3880760 3
-1.376396 0.182515 2.116195 4143932 3
-1.324807 0.185015 2.145184 2696486 3
-1.307496 0.187584 2.174978 3288623 3
-1.565241 0.119481 2.237120 2695203 3
-1.513398 0.121213 2.269542 3353901 3
-1.565241 0.156213 2.237120 3419696 3
-1.528510 0.156213 2.237120 4011061 3
-1.506981 0.190227 2.205611 2761764 3
-1.677025 0.114571 2.145184 3091758 3
-1.641803 0.114571 2.145184 2762797 3
-1.628895 0.116163 2.174978 3288886 3
-1.677025 0.149793 2.145184 3947067 3
-1.619617 0.147769 2.116195 3157555 3
-1.689108 0.182515 2.116195 4408129 3
-1.654362 0.182515 2.116195 3881274 3
-1.619617 0.182515 2.116195 2631209 3
-1.670108 0.103256 1.933314 4342077 3
-1.658845 0.104546 1.957480 4013114 3
-1.690985 0.168826 1.957480 2959658 3
-1.679843 0.170963 1.982258 4670790 3
-1.618385 0.196064 1.909737 5460308 3
0.240414 0.040776 1.982258 2697002 3
0.272961 0.040776 1.982258 2894633 3
0.294330 0.039284 1.909737 3881789 3
0.240414 0.073323 1.982258 4670792 3
0.272961 0.073323 1.982258 4473924 3
0.297964 0.071512 1.933314 4145218 3
0.111423 0.100666 4.893701 3618615 3
0.191773 0.100666 4.893701 3618615 3
0.111423 0.181016 4.893701 4868682 3
0.191773 0.181016 4.893701 4342338 3
-1.324807 0.220237 2.145184 2565414 3
-1.376396 0.252006 2.116195 3288623 3
-1.324807 0.255458 2.145184 5394515 3
-1.324807 0.290680 2.145184 4933964 3
-1.307496 0.294717 2.174978 4868171 3
-1.255986 0.041835 2.033746 3288369 3
-1.255196 0.042951 2.087979 3354416 3
-1.272847 0.074263 2.007672 3222576 3
-1.255986 0.075227 2.033746 2762025 3
-1.222594 0.075227 2.033746 2762279 3
-1.638704 0.046019 2.237120 3222576 3
-1.651837 0.081585 2.205611 2762797 3
-1.638704 0.082750 2.237120 3156783 3
-1.747468 0.044128 2.145184 2367519 3
-1.736028 0.044741 2.174978 1775382 3
-1.747468 0.079349 2.145184 2433312 3
-1.712247 0.079349 2.145184 2433312 3
-1.700317 0.080452 2.174978 2696486 3
-1.747468 0.114571 2.145184 2763047 3
-1.712247 0.114571 2.145184 4539456 3
-1.758600 0.147769 2.116195 4012860 3
-1.747468 0.149793 2.145184 3947321 3
-1.712247 0.149793 2.145184 4473665 3
-1.782690 0.185015 2.145184 5066061 3
-1.747468 0.185015 2.145184 3815994 3
-1.272158 0.113023 2.116195 3419696 3
-1.202667 0.113023 2.116195 4209212 3
-1.289585 0.149793 2.145184 2630693 3
-1.202667 0.147769 2.116195 3749174 3
-1.254363 0.185015 2.145184 4077885 3
-1.236074 0.187584 2.174978 3814967 3
-1.486051 0.223295 2.174978 3551280 3
-1.411142 0.217260 2.116195 4407102 3
-1.445888 0.252006 2.116195 3551795 3
-1.411142 0.252006 2.116195 3354414 3
-1.445888 0.286752 2.116195 4999239 3
-1.411142 0.286752 2.116195 3288619 3
0.381594 0.268260 0.848622 9276561 3
0.385332 0.295757 0.889411 9539734 3
0.361804 0.267559 0.804611 9013389 3
0.354569 0.296832 0.850641 9802906 3
0.310967 0.295890 0.809836 9802393 3
0.004439 0.266909 0.699100 10789803 3
0.004427 0.277617 0.697167 10395045 3
0.004427 0.289064 0.697167 10855596 3
0.015918 0.289866 0.699100 10855596 3
0.004400 0.298677 0.692913 11052975 3
0.603395 0.333718 1.250558 8290179 3
0.637183 0.340808 1.277124 7960701 3
0.661486 0.342534 1.283594 8092288 3
0.682561 0.342534 1.283594 7763322 3
0.695834 0.338736 1.269360 8026494 3
0.623928 0.354251 1.250558 8092287 3
0.650817 0.357745 1.262890 7960701 3
0.671552 0.357745 1.262890 7960701 3
0.677414 0.350059 1.235758 7960701 3
0.679121 0.382746 1.277124 8158080 3
0.680961 0.372288 1.242228 8355459 3
0.289066 0.264769 0.693496 9540247 3
0.245488 0.278387 0.699100 10526629 3
0.256548 0.277933 0.697960 10658215 3
0.261232 0.270907 0.680315 10131871 3
0.269257 0.267779 0.672460 9934751 3
0.282572 0.269951 0.677915 9803419 3
0.293703 0.269951 0.677915 9210769 3
0.232586 0.288102 0.694847 10855594 3
0.241848 0.285568 0.688735 10460836 3
0.252187 0.284473 0.686095 10329250 3
0.256779 0.277268 0.668718 10460836 3
0.264853 0.274260 0.661462 10131873 3
0.280977 0.279495 0.674088 10000285 3
0.291574 0.279044 0.673002 9671320 3
0.218540 0.295940 0.686562 10592683 3
0.226554 0.291744 0.676827 10526631 3
0.237023 0.290953 0.674993 10329250 3
0.248106 0.290953 0.674993 10526629 3
0.254565 0.285763 0.662952 10526629 3
0.261539 0.281552 0.653185 10263459 3
0.277394 0.286858 0.665494 10000285 3
0.288551 0.287087 0.666025 10263970 3
0.297038 0.284740 0.660579 10132383 3
0.221421 0.295994 0.661491 10921389 3
0.271835 0.291817 0.652156 10329250 3
0.280353 0.289555 0.647101 10197666 3
0.290154 0.288736 0.645270 10131873 3
0.299515 0.287551 0.642622 10198177 3
0.286393 0.295450 0.636905 10329252 3
0.299054 0.297643 0.641633 10263716 3