# .PCD v0.7 - Point Cloud Data file format
VERSION 0.7
FIELDS x y z rgb label
SIZE 4 4 4 4 4
TYPE F F F U U
COUNT 1 1 1 1 1
WIDTH 1314
HEIGHT 1
VIEWPOINT 0 0 0 1 0 0 0
POINTS 1314
DATA ascii
0.638714 0.377772 0.876408 8421766 3
0.620459 0.358889 0.832601 8487559 3
0.624324 0.392162 0.876408 8816524 3
0.606788 0.372560 0.832601 8947599 3
0.604006 0.393321 0.847886 9013390 3
0.678066 0.419970 0.974305 8553352 3
0.671707 0.406443 0.942922 8355462 3
0.662068 0.435967 0.974305 9013902 3
0.656225 0.421924 0.942922 8684937 3
0.653930 0.446409 0.962328 9276561 3
0.638282 0.425447 0.917140 9276562 3
0.653606 0.451081 0.939159 9408148 3
0.645838 0.435447 0.906609 8816013 3
-0.351395 0.301344 0.699100 9407372 3
-0.339917 0.301344 0.699100 9143946 3
-0.338372 0.301229 0.673190 9473681 3
-0.328196 0.302036 0.674993 9670544 3
-0.317113 0.302036 0.674993 10065048 3
-0.395594 0.303489 0.762137 8881028 3
-0.389066 0.308231 0.774046 9209993 3
-0.374397 0.306626 0.770014 9933462 3
-0.354856 0.300779 0.755332 9604497 3
-0.383408 0.316273 0.762789 9275786 3
-0.375226 0.319976 0.771719 9275532 3
-0.395885 0.269600 0.677034 8288889 3
-0.395053 0.276806 0.695129 9078405 3
-0.305481 0.278387 0.699100 9604751 3
-0.379825 0.277109 0.668334 9078407 3
-0.373759 0.280796 0.677226 9144714 3
-0.373619 0.289298 0.697731 9210507 3
-0.315031 0.288102 0.694847 9868439 3
-0.360757 0.290400 0.673711 9407886 3
-0.359916 0.298888 0.693401 9736337 3
-0.322548 0.295940 0.686562 9867669 3
-0.308691 0.293483 0.680863 9276302 3
0.452687 0.306114 0.801788 9013903 3
0.493927 0.307200 0.804634 8816264 3
0.452687 0.319278 0.801788 9277075 3
0.492379 0.319407 0.802112 9013389 3
0.492379 0.332577 0.802112 8816011 3
0.495928 0.348239 0.807893 8947599 3
0.435894 0.303587 0.795169 9474454 3
0.461735 0.303409 0.794704 9210769 3
0.475826 0.304076 0.796449 9342354 3
0.402205 0.301192 0.756368 9145235 3
0.431788 0.313660 0.787680 9408661 3
0.461735 0.316457 0.794704 9473941 3
0.472511 0.314943 0.790901 9408147 3
0.405405 0.316105 0.762385 9276821 3
0.431649 0.326488 0.787426 9276821 3
0.450381 0.330750 0.797704 8618891 3
0.460991 0.328975 0.793423 9408150 3
0.472511 0.327929 0.790901 9276562 3
0.421626 0.331535 0.769142 9803165 3
0.439065 0.335208 0.777662 9408407 3
0.450426 0.334164 0.775240 9605529 3
0.469587 0.338805 0.786007 9210771 3
0.458614 0.343492 0.767639 9671579 3
0.468073 0.341199 0.762516 9079185 3
0.238414 0.227329 0.595431 9473689 3
0.232513 0.231237 0.580693 9737372 3
0.210796 0.237784 0.573490 10592424 3
0.219509 0.237025 0.571658 10394791 3
0.230477 0.238662 0.575607 10000544 3
0.246801 0.245499 0.592097 10000544 3
0.210268 0.246580 0.572051 10657963 3
0.218711 0.245515 0.569579 10328998 3
0.229001 0.246525 0.571922 10395302 3
0.241477 0.249716 0.579325 10329763 3
0.209264 0.254751 0.569320 11053232 3
0.217869 0.253885 0.567386 10329511 3
0.227288 0.254001 0.567644 10263716 3
0.238882 0.256441 0.573098 10461095 3
0.253859 0.262192 0.585950 10395302 3
0.208743 0.263441 0.567902 10921646 3
0.217082 0.262251 0.565337 10855855 3
0.226364 0.262251 0.565337 10461095 3
0.235754 0.262370 0.565594 10461095 3
0.247617 0.265129 0.571542 10197923 3
0.004439 0.266909 0.699100 10920106 3
0.004439 0.278387 0.699100 10920106 3
0.004388 0.286513 0.691014 10855081 3
0.015874 0.289064 0.697167 10789290 3
0.027396 0.289866 0.699100 10987182 3
0.038875 0.289866 0.699100 11052973 3
0.050353 0.289866 0.699100 10723495 3
0.061832 0.289866 0.699100 10920876 3
0.073310 0.289866 0.699100 11118768 3
0.004338 0.294462 0.683135 10986667 3
0.015830 0.299692 0.695267 11052462 3
0.061456 0.299511 0.694847 11052462 3
-0.007039 0.266909 0.699100 10591913 3
-0.029898 0.277477 0.696815 10987182 3
-0.018354 0.275924 0.692913 10855596 3
-0.007020 0.277617 0.697167 11052464 3
-0.094425 0.276840 0.667684 10986671 3
-0.083767 0.277850 0.670122 10591911 3
-0.070619 0.269660 0.650368 10921387 3
-0.058985 0.265359 0.639996 10329252 3
-0.048669 0.266413 0.642536 11052975 3
-0.041108 0.287300 0.692913 10526888 3
-0.029376 0.283865 0.684628 10526631 3
-0.018035 0.282304 0.680863 11184561 3
-0.006897 0.284006 0.684969 10789290 3
-0.092571 0.282153 0.654578 10591913 3
-0.082012 0.282802 0.656084 10986669 3
-0.070323 0.279164 0.647643 10658217 3
-0.058985 0.275868 0.639996 10592424 3
-0.048557 0.276324 0.641055 11052721 3
-0.039703 0.288466 0.669224 10526890 3
-0.028715 0.288466 0.669224 10592170 3
-0.017623 0.286786 0.665325 10921389 3
-0.006761 0.289412 0.671418 10986667 3
-0.093445 0.295664 0.660753 10855344 3
-0.082357 0.294810 0.658844 10789549 3
-0.071862 0.296137 0.661810 10789549 3
-0.061515 0.298661 0.667452 10592170 3
-0.050691 0.299454 0.669224 10723756 3
-0.039703 0.299454 0.669224 10855344 3
-0.028715 0.299454 0.669224 10986928 3
-0.017522 0.295994 0.661491 10987182 3
-0.006625 0.294421 0.657977 10987180 3
-0.076466 0.293807 0.611713 11052975 3
-0.144782 0.266909 0.699100 10460578 3
-0.167739 0.278387 0.699100 9934491 3
-0.153458 0.273394 0.686562 10197663 3
-0.140169 0.269518 0.676827 10460578 3
-0.129476 0.270394 0.679028 10854566 3
-0.120832 0.276118 0.693401 10592421 3
-0.110346 0.278387 0.699100 10592422 3
-0.188396 0.286369 0.690668 10328992 3
-0.173986 0.281405 0.678694 10461089 3
-0.161003 0.278226 0.671027 10395042 3
-0.148711 0.275862 0.665325 10657957 3
-0.116399 0.276955 0.667962 10658215 3
-0.104695 0.275020 0.663294 10789803 3
-0.101877 0.278216 0.645443 10592424 3
-0.410234 0.253610 0.664268 8683647 3
-0.406107 0.257916 0.675546 8552059 3
-0.406582 0.265468 0.695328 8683645 3
-0.410011 0.264373 0.663907 8683647 3
-0.402414 0.266562 0.669404 8946819 3
-0.487636 0.276021 0.665709 8618624 3
-0.482063 0.279123 0.673190 8552831 3
-0.472271 0.279870 0.674993 8157819 3
-0.461188 0.279870 0.674993 7895160 3
-0.444861 0.276609 0.667128 8553090 3
-0.477953 0.287702 0.667452 8158332 3
-0.468234 0.288466 0.669224 8026746 3
-0.451963 0.285133 0.661491 8355711 3
-0.201514 0.254595 0.696815 10196636 3
-0.294003 0.266909 0.699100 9473165 3
-0.282524 0.266909 0.699100 9144200 3
-0.292214 0.276693 0.694847 9867923 3
-0.280024 0.275924 0.692913 9209993 3
-0.270296 0.277617 0.697167 9933716 3
-0.299158 0.283865 0.684628 9868439 3
-0.284636 0.280631 0.676827 9736853 3
-0.272782 0.279870 0.674993 9934232 3
-0.263264 0.281543 0.679028 9999255 3
-0.254320 0.284006 0.684969 9802646 3
-0.246728 0.288276 0.695267 10328990 3
-0.292312 0.288353 0.668962 9736853 3
-0.277441 0.284369 0.659719 10065818 3
-0.264382 0.281993 0.654207 9736853 3
0.868754 0.415969 1.192055 7566456 3
0.875004 0.409730 1.174178 7632249 3
0.868754 0.435541 1.192055 8355973 3
0.884075 0.433457 1.186352 8421765 3
0.894283 0.429009 1.174178 7500663 3
0.882466 0.414407 1.134212 7500661 3
0.829609 0.455113 1.192055 7961214 3
0.845118 0.452936 1.186352 7961729 3
0.864597 0.452936 1.186352 8487558 3
0.884075 0.452936 1.186352 8224386 3
0.812914 0.465133 1.168067 8487558 3
0.828679 0.463225 1.163274 8027008 3
0.860564 0.470211 1.180818 7632249 3
0.884075 0.472414 1.186352 8027007 3
0.847724 0.471667 1.137571 7961214 3
0.339200 0.260350 0.782931 9539733 3
0.342974 0.253634 0.762736 9342608 3
0.357238 0.254875 0.766469 9013132 3
0.370387 0.255264 0.767639 8881803 3
0.382991 0.255264 0.767639 9013389 3
0.395839 0.255422 0.768114 9079695 3
0.319556 0.257382 0.737588 8552839 3
0.335431 0.260304 0.745961 8618631 3
0.352720 0.264078 0.756777 9802646 3
0.366791 0.265268 0.760186 8749958 3
0.379388 0.265349 0.760418 8750217 3
0.395236 0.267626 0.766944 9276562 3
0.300890 0.263746 0.721861 9473943 3
0.314190 0.264967 0.725203 9671320 3
0.328571 0.266977 0.730705 9539733 3
0.343276 0.269100 0.736514 9605267 3
0.356515 0.269968 0.738891 8420993 3
0.370395 0.271248 0.742393 9078925 3
0.387308 0.274597 0.751559 9079183 3
0.312742 0.275598 0.721861 9408150 3
0.327141 0.277760 0.727524 9605014 3
0.341164 0.279463 0.731983 8355200 3
0.354737 0.280693 0.735204 8420993 3
0.367025 0.280859 0.735639 8881546 3
0.384308 0.284715 0.745739 8750220 3
0.307080 0.282246 0.708791 9342357 3
0.323117 0.286143 0.718576 8091775 3
0.336349 0.287367 0.721652 8684167 3
0.348298 0.287451 0.721861 9078925 3
0.361609 0.288615 0.724784 9802905 3
0.372332 0.287705 0.722499 9539736 3
0.351055 0.291744 0.703630 9605526 3
0.366948 0.295236 0.712052 9342614 3
0.004827 0.252786 0.760186 9934492 3
0.017916 0.261653 0.786851 10592421 3
0.004520 0.248387 0.711811 10591909 3
0.016519 0.253175 0.725532 10723495 3
0.029848 0.265780 0.761655 9473428 3
0.043707 0.274278 0.786007 10460578 3
0.004467 0.257012 0.703430 10460323 3
0.016161 0.259342 0.709807 10657704 3
0.028249 0.263385 0.720873 10526116 3
0.041381 0.271895 0.744163 10789541 3
0.056109 0.284630 0.779019 10855593 3
0.016117 0.270245 0.707839 10262176 3
0.028070 0.273476 0.716301 11184046 3
0.040199 0.276001 0.722914 10921127 3
0.053599 0.284113 0.744163 10592164 3
0.068419 0.295345 0.773581 10591909 3
0.016016 0.280111 0.703430 9735832 3
0.027816 0.282651 0.709807 10986669 3
0.039831 0.285237 0.716301 10460578 3
0.051739 0.286049 0.718341 10657957 3
0.065634 0.295504 0.742085 10460323 3
-0.148887 0.259650 0.780827 10065820 3
-0.134291 0.256262 0.770638 10065820 3
-0.195444 0.250026 0.716508 9934234 3
-0.195830 0.266565 0.763904 10000538 3
-0.176169 0.275032 0.788169 9671319 3
-0.161659 0.272389 0.780593 9802905 3
-0.145484 0.266243 0.762981 9934234 3
-0.130647 0.261618 0.749727 9868441 3
-0.119408 0.263986 0.756514 9934492 3
-0.111115 0.274172 0.785704 10000287 3
-0.193085 0.258630 0.707857 9736086 3
-0.198736 0.283249 0.775240 10526116 3
-0.186007 0.283249 0.775240 10197664 3
-0.175075 0.286185 0.783275 10131870 3
-0.158640 0.279880 0.766018 10131870 3
-0.144122 0.276161 0.755839 10065818 3
-0.129946 0.272459 0.745707 10065820 3
-0.117703 0.272459 0.745707 9868699 3
-0.106542 0.275257 0.753366 10066080 3
-0.185226 0.275857 0.722537 10131871 3
-0.172356 0.274255 0.718341 10131870 3
-0.157604 0.269204 0.705113 10263456 3
-0.133901 0.268106 0.702236 10591392 3
-0.130529 0.285980 0.749052 10197663 3
-0.117703 0.284702 0.745707 10855594 3
-0.106188 0.286671 0.750864 10262946 3
-0.195287 0.285089 0.715930 10526371 3
-0.180236 0.279969 0.703072 10066077 3
-0.102044 0.287331 0.721559 10328739 3
0.005146 0.256183 0.810415 10197664 3
0.019422 0.269644 0.852999 10658214 3
0.035183 0.283809 0.897811 10263456 3
0.048715 0.276935 0.876064 9934492 3
0.061510 0.269961 0.854001 10262944 3
0.074717 0.267048 0.844787 10394530 3
0.088288 0.266144 0.841927 10263199 3
0.032226 0.273456 0.822346 10263456 3
0.046319 0.276989 0.832970 10263457 3
0.059561 0.274985 0.826942 10197151 3
0.072994 0.274442 0.825310 10328737 3
0.088378 0.280254 0.842790 10131613 3
0.057773 0.279898 0.802112 9933979 3
0.072550 0.286239 0.820284 10131358 3
0.088795 0.295479 0.846765 10592164 3
0.071574 0.295678 0.809256 10592422 3
-0.020872 0.249092 0.787986 10329249 3
-0.007995 0.250987 0.793978 10197663 3
-0.033357 0.258520 0.777431 10000285 3
-0.020198 0.253561 0.762516 10066078 3
-0.007655 0.252786 0.760186 10329249 3
-0.046432 0.273108 0.782656 9934492 3
-0.031981 0.260092 0.745353 10066078 3
-0.019139 0.252130 0.722537 10197666 3
-0.007188 0.249099 0.713852 10592424 3
-0.095203 0.278270 0.761612 10000798 3
-0.085610 0.288068 0.788430 10132384 3
-0.072893 0.288971 0.790901 10395043 3
-0.059091 0.285037 0.780134 10724008 3
-0.044501 0.274064 0.750099 10329250 3
-0.031095 0.264782 0.724695 10131873 3
-0.018792 0.259209 0.709443 10395045 3
-0.007059 0.256149 0.701068 10394791 3
-0.094538 0.288742 0.756287 10066078 3
-0.081750 0.287440 0.752877 10197664 3
-0.069388 0.287440 0.752877 10724008 3
-0.056287 0.283711 0.743111 10526631 3
-0.042993 0.276680 0.724695 10527142 3
-0.030440 0.270857 0.709443 10526631 3
-0.018570 0.267660 0.701068 10460838 3
-0.091102 0.290215 0.728802 10657702 3
-0.078000 0.286049 0.718341 10658215 3
-0.065792 0.284261 0.713852 10724008 3
-0.053916 0.283449 0.711811 10395045 3
-0.041968 0.281693 0.707402 10592681 3
-0.269860 0.240388 0.760452 9671060 3
-0.258384 0.241331 0.763433 9013643 3
-0.243769 0.239290 0.756975 9342606 3
-0.233745 0.241777 0.764845 9342606 3
-0.226866 0.247984 0.784480 8421506 3
-0.214789 0.248915 0.787426 9408401 3
-0.203780 0.251283 0.794916 9539985 3
-0.296942 0.244337 0.734776 9276302 3
-0.282310 0.242134 0.728154 9472911 3
-0.269259 0.241153 0.725203 9736853 3
-0.260142 0.243768 0.733067 9473681 3
-0.248757 0.244407 0.734989 9407888 3
-0.235583 0.243265 0.731556 9078921 3
-0.222597 0.242204 0.728365 9276302 3
-0.212252 0.244060 0.733946 9736853 3
-0.206751 0.252045 0.757958 8815753 3
-0.200474 0.260047 0.782021 9211022 3
-0.290300 0.250666 0.718341 9539472 3
-0.277631 0.249879 0.716086 9144200 3
-0.265569 0.249593 0.715266 9078407 3
-0.256539 0.252261 0.722914 9210507 3
-0.245303 0.252914 0.724784 9407886 3
-0.231465 0.250814 0.718766 9868439 3
-0.216553 0.247263 0.708590 9934232 3
-0.204977 0.247333 0.708791 9868441 3
-0.285069 0.257731 0.705398 9473165 3
-0.278710 0.262653 0.718869 9538445 3
-0.269181 0.264890 0.724993 9538958 3
-0.258100 0.265737 0.727311 10131095 3
-0.246303 0.265894 0.727738 9670544 3
-0.231067 0.262165 0.717532 10657185 3
-0.215578 0.257731 0.705398 10130843 3
-0.272724 0.268562 0.703430 9735822 3
-0.261906 0.269313 0.705398 9407370 3
-0.254289 0.273579 0.716572 9604749 3
-0.254943 0.287589 0.753268 10460828 3
-0.247203 0.293076 0.767639 10000025 3
-0.234599 0.293076 0.767639 10197406 3
-0.221996 0.293076 0.767639 9473683 3
-0.202665 0.283661 0.742978 11579059 3
-0.261175 0.280111 0.703430 10262681 3
-0.255104 0.286259 0.718869 10000023 3
-0.246950 0.290553 0.729651 10131609 3
-0.228513 0.297750 0.747724 9934234 3
-0.210899 0.290400 0.729267 10263199 3
-0.242635 0.297247 0.716901 10000538 3
-0.204514 0.293221 0.707191 10328992 3
-0.335021 0.251827 0.796637 8881544 3
-0.310223 0.242661 0.767639 9539474 3
-0.362240 0.265683 0.798972 9209739 3
-0.347286 0.264287 0.794771 9472911 3
-0.307831 0.243408 0.731983 9342095 3
-0.393563 0.273226 0.782992 9078921 3
-0.380707 0.273226 0.782992 9276300 3
-0.370405 0.275123 0.788430 8420993 3
-0.348010 0.267849 0.767585 9078407 3
-0.314797 0.251391 0.720420 9670544 3
-0.302095 0.250666 0.718341 9341579 3
-0.395070 0.278093 0.761127 8486268 3
-0.391121 0.284307 0.778135 9078407 3
-0.380707 0.286082 0.782992 9407372 3
-0.362144 0.281644 0.770845 9472911 3
-0.331133 0.266852 0.730361 9406859 3
-0.314797 0.263220 0.720420 9735824 3
-0.301754 0.262165 0.717532 9275786 3
-0.395079 0.281686 0.737807 8552577 3
-0.389408 0.286426 0.750220 9209993 3
-0.385258 0.292629 0.766469 9144200 3
-0.370751 0.291120 0.762516 9407118 3
-0.353762 0.287488 0.753003 9275532 3
-0.325683 0.274255 0.718341 9078407 3
-0.308109 0.269204 0.705113 9538958 3
-0.397671 0.295728 0.742648 9078921 3
-0.319686 0.280781 0.705113 9407372 3
-0.370762 0.296167 0.714297 9341579 3
-0.331263 0.292359 0.705113 9472911 3
-0.396207 0.266593 0.843349 9737366 3
-0.381715 0.266144 0.841927 9078923 3
-0.373450 0.270165 0.854648 9341325 3
-0.338541 0.276026 0.873190 9276302 3
-0.377802 0.267413 0.804173 9539474 3
-0.686694 0.251283 0.794916 7235942 3
-0.676887 0.252493 0.798744 6840160 3
-0.680866 0.262091 0.788169 6511449 3
-0.669615 0.262754 0.790164 7498092 3
-0.669615 0.275728 0.790164 6117207 3
-0.625009 0.278981 0.799486 7302764 3
-0.677079 0.291920 0.798972 6511965 3
-0.663961 0.291920 0.798972 6842213 3
-0.644097 0.288895 0.790691 6447455 3
-0.625952 0.286531 0.784222 8025717 3
-0.614423 0.287161 0.785946 7630959 3
-0.604933 0.288791 0.790407 7500143 3
-0.613207 0.287399 0.752769 7828336 3
0.895442 0.344915 1.150890 6842221 3
0.884074 0.333498 1.112795 5592154 3
0.898627 0.372976 1.179882 7105392 3
0.874039 0.355115 1.123380 6644842 3
0.892709 0.398352 1.197937 7434357 3
0.876546 0.382708 1.150890 7302771 3
0.872331 0.399673 1.145357 7895421 3
-0.096614 0.266657 0.889764 9408147 3
-0.080752 0.262583 0.876170 9407888 3
-0.064913 0.256834 0.856989 9671060 3
-0.049395 0.249525 0.832601 9868699 3
-0.034863 0.243507 0.812519 9802906 3
-0.021382 0.241915 0.807208 10065820 3
-0.008368 0.249069 0.831077 9934234 3
-0.090447 0.263313 0.832970 10000027 3
-0.076215 0.261407 0.826942 9671062 3
-0.061982 0.258675 0.818300 9867671 3
-0.048045 0.256000 0.809836 9802906 3
-0.034392 0.253379 0.801546 10131871 3
-0.088562 0.271219 0.815617 10197663 3
-0.075171 0.271219 0.815617 10197406 3
-0.061341 0.269296 0.809836 10065820 3
-0.047553 0.266539 0.801546 10197666 3
-0.087649 0.281676 0.807208 10066078 3
-0.074396 0.281676 0.807208 9539734 3
-0.060713 0.279700 0.801546 10197151 3
-0.484937 0.235328 0.785230 7959922 3
-0.462897 0.230769 0.770014 7894899 3
-0.485794 0.242220 0.766247 7169379 3
-0.471617 0.241404 0.763663 6183253 3
-0.452479 0.237933 0.752685 8157301 3
-0.442513 0.239227 0.756777 7894901 3
-0.487315 0.255599 0.768645 7498860 3
-0.471761 0.254019 0.763895 7696750 3
-0.454665 0.251500 0.756320 8552059 3
-0.441830 0.251263 0.755607 8092280 3
-0.440936 0.258000 0.775865 8092280 3
-0.457582 0.265612 0.761172 8552061 3
-0.442494 0.264066 0.756744 8421245 3
-0.435072 0.267138 0.765547 8487038 3
-0.425876 0.269271 0.771659 8749956 3
-0.415253 0.270605 0.775481 9210507 3
-0.404523 0.271951 0.779340 8552831 3
-0.485081 0.286985 0.785464 7696752 3
-0.446728 0.271513 0.743118 8749440 3
-0.425408 0.265815 0.727524 9276554 3
-0.417591 0.268469 0.734787 8289659 3
-0.414274 0.274260 0.750636 9144714 3
-0.403393 0.275245 0.753334 8749956 3
-0.485594 0.292424 0.765932 8749958 3
-0.408139 0.274184 0.718156 8946819 3
-0.405164 0.280283 0.734130 8355198 3
-0.499980 0.291396 0.731768 8420991 3
-0.487965 0.291396 0.731768 7960955 3
-0.472920 0.289541 0.727110 8223614 3
-0.446945 0.280724 0.704970 8947335 3
-0.404577 0.291913 0.733067 8881542 3
-0.516847 0.238151 0.794647 7762545 3
-0.503300 0.244614 0.773819 6116439 3
-0.515901 0.263762 0.793192 7629678 3
-0.586586 0.286171 0.783238 7039590 3
-0.576428 0.287519 0.786927 7171176 3
-0.563865 0.287702 0.787426 7105385 3
-0.503024 0.289893 0.793423 7894133 3
-0.584084 0.279381 0.731768 7301992 3
-0.580268 0.283385 0.742256 7367787 3
-0.581454 0.290056 0.759730 7301994 3
-0.564018 0.287527 0.753104 8158071 3
-0.554489 0.289005 0.756975 8487036 3
-0.550891 0.293713 0.769308 8223094 3
-0.544265 0.296990 0.777891 7960694 3
-0.532317 0.297450 0.779097 8486784 3
-0.510874 0.299881 0.785464 8420993 3
-0.552241 0.287331 0.721559 8486268 3
-0.546287 0.290464 0.729428 8223864 3
-0.525195 0.285509 0.716984 8750208 3
-0.516208 0.287057 0.720873 8158073 3
-0.510513 0.290553 0.729651 8223866 3
-0.596678 0.249719 0.833249 7697522 3
-0.585919 0.250971 0.837425 7631729 3
-0.574284 0.251899 0.840520 6973545 3
-0.559130 0.251290 0.838489 7434096 3
-0.576858 0.260627 0.824475 7697522 3
-0.570470 0.263934 0.834937 7828340 3
-0.558803 0.264903 0.838000 6644066 3
-0.584632 0.271488 0.816426 5986904 3
-0.581839 0.276531 0.831593 6250076 3
-0.572000 0.278388 0.837177 7038824 3
-0.569312 0.283902 0.853759 6578273 3
-0.584632 0.284892 0.816426 7763315 3
-0.579153 0.288845 0.827754 7105385 3
-0.557269 0.284610 0.815617 8025719 3
-0.543875 0.291794 0.836203 8354173 3
-0.511763 0.281676 0.807208 8157303 3
-0.566135 0.295638 0.809148 7236971 3
-0.557269 0.298002 0.815617 7630961 3
0.006232 0.278014 0.981429 9605267 3
0.005740 0.270906 0.903944 9802648 3
0.022346 0.294128 0.981429 9671062 3
0.069624 0.289701 0.966657 9802648 3
0.085496 0.289701 0.966657 10065818 3
-0.462902 0.300090 1.059361 9210509 3
-0.459808 0.309722 1.093364 8552579 3
-0.421932 0.308281 1.088277 8684163 3
-0.444841 0.305096 1.018027 9210509 3
-0.409557 0.316584 1.056357 9210507 3
-0.499755 0.256512 0.905522 7894901 3
-0.487006 0.257633 0.909480 7960694 3
-0.460307 0.259417 0.915780 8355450 3
-0.466317 0.271679 0.959065 8289918 3
-0.463815 0.279665 0.987258 8421506 3
-0.441545 0.281668 0.939854 8618631 3
-0.442593 0.292562 0.976203 8749958 3
-0.492289 0.245380 0.866225 8092026 3
-0.465158 0.253858 0.896156 7368555 3
-0.486168 0.249175 0.831434 7894647 3
-0.494805 0.260929 0.870652 7960440 3
-0.487599 0.264779 0.883498 6644834 3
-0.476449 0.266657 0.889764 7829108 3
-0.462004 0.266752 0.890082 7894899 3
-0.449626 0.268085 0.894530 8487038 3
-0.433909 0.267450 0.892412 8355711 3
-0.464789 0.258529 0.817837 8158073 3
-0.477493 0.273496 0.865185 8026233 3
-0.465057 0.274541 0.868489 8618370 3
-0.449861 0.273971 0.866687 8816260 3
-0.434727 0.273402 0.864888 8947848 3
-0.413695 0.268961 0.850838 8355711 3
-0.449422 0.270788 0.814322 8881542 3
-0.442072 0.274527 0.825565 8815749 3
-0.427951 0.274164 0.824475 8947589 3
-0.419531 0.277549 0.834655 8881542 3
-0.402492 0.275269 0.827798 8684163 3
-0.497128 0.280895 0.804972 8223094 3
-0.626321 0.253579 0.895170 6908006 3
-0.693559 0.245275 0.818418 6644062 3
-0.673146 0.252746 0.843349 6512994 3
-0.655767 0.251393 0.838832 7039338 3
-0.643287 0.251899 0.840520 7039338 3
-0.630753 0.252405 0.842211 7368557 3
-0.619432 0.253431 0.845634 8025717 3
-0.680458 0.258840 0.818822 6775652 3
-0.671396 0.260541 0.824202 6644580 3
-0.653152 0.258675 0.818300 6184029 3
-0.635347 0.256908 0.812711 7105385 3
-0.625463 0.258337 0.817232 7368557 3
-0.614236 0.259262 0.820157 7105383 3
-0.666517 0.266706 0.802047 7236203 3
-0.657553 0.268422 0.807208 7434096 3
-0.642027 0.267476 0.804362 5855064 3
-0.628012 0.267132 0.803328 6513248 3
-0.622216 0.270345 0.812989 6973799 3
-0.613647 0.272467 0.819370 7960692 3
-0.609361 0.276628 0.831886 7302762 3
-0.697111 0.281594 0.806974 6511448 3
-0.666302 0.279785 0.801788 6709857 3
-0.654181 0.280232 0.803069 6513248 3
-0.638747 0.279249 0.800252 6973029 3
-0.617792 0.281676 0.807208 7763315 3
-0.609474 0.283976 0.813798 7500141 3
-0.606335 0.288845 0.827754 7236969 3
-0.718259 0.240094 0.847565 6446683 3
-0.751958 0.260873 0.870464 6709857 3
-0.715035 0.257866 0.860431 5854550 3
-0.700197 0.257604 0.859559 5196366 3
-0.762208 0.287930 0.865873 6643805 3
-0.703678 0.297622 0.814577 7037792 3
1.416595 0.423333 1.586375 4408392 3
1.424099 0.443604 1.565984 5000529 3
1.477214 0.429156 1.514980 3618102 3
1.415373 0.466440 1.556389 5394774 3
1.449811 0.469316 1.565984 4671562 3
1.475523 0.469316 1.565984 4868684 3
0.558337 0.319676 1.197937 7894909 3
0.572416 0.316585 1.186352 8355460 3
0.591895 0.316585 1.186352 8026494 3
0.538668 0.339345 1.197937 8618631 3
0.547263 0.332615 1.174178 8487046 3
0.558172 0.327701 1.156830 8552839 3
0.575574 0.326797 1.153640 8355459 3
0.552663 0.355366 1.185764 9079183 3
0.538668 0.378683 1.197937 9145229 3
0.416586 0.316585 1.186352 8487556 3
0.436065 0.316585 1.186352 7632247 3
0.402191 0.324451 1.145357 8684937 3
0.417106 0.321452 1.134771 8750728 3
0.470994 0.333213 1.176290 8881293 3
0.400305 0.341647 1.139986 9277075 3
0.481351 0.346087 1.154804 8881804 3
0.490604 0.357965 1.132396 8816010 3
0.319193 0.316585 1.186352 9144718 3
0.338671 0.316585 1.186352 8815753 3
0.358150 0.316585 1.186352 8486788 3
0.377629 0.316585 1.186352 8552581 3
0.397107 0.316585 1.186352 8223873 3
0.303952 0.320017 1.129705 9408148 3
0.334070 0.331497 1.170233 9473941 3
0.358150 0.336063 1.186352 9408148 3
0.373754 0.332615 1.174178 9210769 3
0.391180 0.331048 1.168645 8816011 3
0.387226 0.346695 1.156830 8947599 3
0.396391 0.356841 1.128841 9276561 3
0.201276 0.314951 1.180230 9276304 3
0.242438 0.318107 1.192055 9342354 3
0.263514 0.319933 1.198900 9342354 3
0.275916 0.311705 1.168067 9210768 3
0.296959 0.313675 1.175448 9079182 3
0.209125 0.316860 1.118560 9671062 3
0.225288 0.313792 1.107729 9539733 3
-0.042161 0.262216 0.982612 9276561 3
-0.025925 0.261182 0.978740 9802646 3
-0.010029 0.265787 0.995994 9802646 3
-0.075038 0.280628 0.990657 9802646 3
-0.055717 0.266040 0.939159 9473940 3
-0.039209 0.258857 0.913803 9737112 3
-0.024116 0.257909 0.910456 9868441 3
-0.009318 0.262131 0.925359 9539474 3
-0.736181 0.318107 1.192055 8026487 3
-0.705862 0.313336 1.174178 7763572 3
-0.745889 0.316860 1.118560 7565682 3
-0.734772 0.320017 1.129705 8091510 3
-0.719435 0.321452 1.134771 8288889 3
0.901807 0.332356 1.327105 6645095 3
0.945876 0.340373 1.359119 6052704 3
0.934544 0.358343 1.342836 7039853 3
0.923597 0.375935 1.327105 7566197 3
0.956592 0.380392 1.342836 7434611 3
0.983851 0.382417 1.349986 7434611 3
0.908203 0.391096 1.304987 7566197 3
0.929630 0.391096 1.304987 6974058 3
0.951056 0.391096 1.304987 7105646 3
0.588650 0.316295 1.262976 7631737 3
0.590304 0.306391 1.223425 7697530 3
0.578261 0.343173 1.285987 8158080 3
0.509954 0.346565 1.223425 8881291 3
0.530042 0.346565 1.223425 8684678 3
0.530042 0.366653 1.223425 9079182 3
0.550129 0.366653 1.223425 8816523 3
0.309080 0.306391 1.223425 8881803 3
0.329167 0.306391 1.223425 8420995 3
0.349255 0.306391 1.223425 7960444 3
0.369342 0.306391 1.223425 8420995 3
0.389430 0.306391 1.223425 8355202 3
0.228730 0.306391 1.223425 9078925 3
0.248818 0.306391 1.223425 8684167 3
0.271840 0.309734 1.236776 8947596 3
0.290426 0.307910 1.229494 8750217 3
0.225211 0.321455 1.204603 9407890 3
0.145445 0.300330 1.199226 8420995 3
0.100242 0.302452 1.133390 9210507 3
0.124405 0.316585 1.186352 9605265 3
0.145406 0.319933 1.198900 9539476 3
0.158492 0.307146 1.150981 9407890 3
0.173634 0.300642 1.126607 9802648 3
0.115644 0.312397 1.102806 9605267 3
0.135065 0.315465 1.113637 9736600 3
0.154028 0.316860 1.118560 9934234 3
0.172393 0.316860 1.118560 9868441 3
0.190759 0.316860 1.118560 9736855 3
-0.195053 0.309479 1.235758 9144718 3
-0.173018 0.306391 1.223425 9210768 3
-0.152931 0.306391 1.223425 9604499 3
-0.132844 0.306391 1.223425 9275534 3
-0.111564 0.303150 1.210485 9275532 3
-0.307793 0.372205 1.486222 9078923 3
-0.383731 0.399450 1.496876 9013128 3
-0.356597 0.396607 1.486222 9210507 3
-0.330211 0.394238 1.477344 8552579 3
-0.302059 0.389218 1.458535 9078923 3
-0.574069 0.268485 1.072069 7565936 3
-0.549685 0.265213 1.059003 7565934 3
-0.539595 0.268850 1.073523 7434348 3
-0.530448 0.273217 1.090962 7434607 3
-0.558551 0.270073 1.012057 7829108 3
-0.539127 0.286227 1.072592 7763313 3
-0.522434 0.286731 1.074480 8487295 3
-0.793959 0.313626 1.252317 6578787 3
-0.759302 0.307910 1.229494 6842472 3
-0.735467 0.306391 1.223425 6710886 3
-0.707813 0.303150 1.210485 7434096 3
-0.795729 0.326478 1.223425 7302764 3
-0.767437 0.323025 1.210485 7236971 3
-0.372712 0.234915 1.003836 7894647 3
-0.356230 0.234915 1.003836 7960440 3
-0.341821 0.236349 1.009961 8552579 3
-0.332459 0.241596 1.032385 8223612 3
-0.317743 0.243307 1.039697 8223612 3
-0.302041 0.244415 1.044427 8157819 3
-0.372712 0.251397 1.003836 8552577 3
-0.356230 0.251397 1.003836 8289407 3
-0.341821 0.252931 1.009961 8618372 3
-0.334109 0.259830 1.037508 8749958 3
-0.320527 0.262660 1.048807 8684165 3
-0.303940 0.263208 1.050996 8947337 3
-0.373315 0.268313 1.005460 8420991 3
-0.342266 0.269865 1.011275 8618372 3
-0.340885 0.282479 1.058547 8355200 3
-0.325566 0.284280 1.065295 8355200 3
-0.374847 0.285991 1.009587 8947335 3
-0.354993 0.283374 1.000351 8947337 3
-0.355258 0.297343 1.049663 9276302 3
-0.418152 0.252394 1.078526 7302510 3
-0.415799 0.268583 1.072458 8749956 3
-0.486294 0.286227 1.072592 8486786 3
-0.477760 0.291770 1.093364 8947337 3
-0.406784 0.279987 1.049206 8881542 3
-0.461556 0.288381 1.018027 8420993 3
-0.589431 0.274426 1.172671 7500400 3
-0.523645 0.280440 1.198373 7434096 3
-0.537009 0.286263 1.143054 7895158 3
-0.518241 0.286263 1.143054 8157819 3
-0.517213 0.293786 1.100917 8355711 3
-0.863462 0.303024 1.294876 5921111 3
-0.813788 0.300384 1.283594 6381662 3
-0.854206 0.320808 1.280995 6645093 3
-0.840907 0.323786 1.292887 6776166 3
-0.815816 0.326478 1.223425 7039851 3
1.789890 0.420687 1.933314 3750460 3
1.777410 0.457387 1.954496 3027509 3
1.769426 0.447257 1.911210 3750462 3
1.777410 0.489478 1.954496 2764082 3
1.768062 0.478268 1.909737 2237223 3
1.798063 0.477908 1.908299 3026226 3
0.324281 0.279308 1.283594 7631990 3
0.339786 0.274803 1.262890 7828858 3
0.366431 0.279308 1.283594 7829115 3
0.387507 0.279308 1.283594 7895162 3
0.313986 0.290848 1.242845 8092541 3
0.330800 0.287723 1.229494 9012363 3
0.353066 0.289428 1.236776 7631479 3
0.371174 0.287723 1.229494 7698040 3
0.389430 0.286303 1.223425 7960953 3
-0.050143 0.254296 1.168645 8749960 3
-0.069998 0.276113 1.179882 8815751 3
-0.050143 0.273484 1.168645 8947339 3
-0.030955 0.273484 1.168645 8684167 3
-0.012016 0.279269 1.193366 9078923 3
-0.089371 0.295486 1.179882 9078923 3
-0.067289 0.284048 1.134212 8749960 3
-0.047994 0.280129 1.118560 9276561 3
-0.029629 0.280129 1.118560 9342095 3
-0.011263 0.280129 1.118560 9210509 3
-0.586769 0.281617 1.294202 8355452 3
-0.551837 0.274803 1.262890 7236717 3
-0.539808 0.279308 1.283594 7828854 3
-0.566366 0.292335 1.249201 7763315 3
-0.522672 0.290848 1.242845 7368303 3
-0.502265 0.290848 1.242845 7894649 3
-0.635265 0.258149 1.186352 6710884 3
-0.651173 0.276113 1.179882 7302764 3
-0.625783 0.273484 1.168645 7171435 3
-0.606595 0.273484 1.168645 7237228 3
-0.670545 0.295486 1.179882 7105131 3
-0.619990 0.281336 1.123380 7829108 3
0.921267 0.406869 1.113582 7171699 3
0.903554 0.452936 1.186352 7698040 3
0.923033 0.452936 1.186352 8421763 3
0.913111 0.477411 1.198900 7961212 3
0.903554 0.491893 1.186352 8158593 3
0.218904 0.258233 1.283594 8355202 3
0.239979 0.279308 1.283594 8157823 3
0.261055 0.279308 1.283594 8486788 3
0.228146 0.285572 1.220302 9013132 3
0.254041 0.292314 1.249109 8617604 3
0.276202 0.294073 1.256626 8552581 3
0.295059 0.292314 1.249109 8749958 3
0.008150 0.258233 1.283594 8486786 3
0.007768 0.266216 1.223425 8420991 3
0.029226 0.279308 1.283594 8552577 3
0.050301 0.279308 1.283594 8092026 3
0.071377 0.279308 1.283594 8749958 3
0.007731 0.284927 1.217543 9276300 3
0.028474 0.292653 1.250558 8750210 3
0.048954 0.292337 1.249209 8750210 3
-0.368368 0.308867 1.535279 7697268 3
-0.343160 0.308867 1.535279 7960442 3
-0.317952 0.308867 1.535279 7828856 3
-0.304693 0.321474 1.597943 8092539 3
-0.393575 0.334075 1.535279 8223612 3
-0.361284 0.327650 1.505754 8026233 3
-0.336561 0.327650 1.505754 8552579 3
-0.311838 0.327650 1.505754 8618372 3
-0.361284 0.352373 1.505754 8420991 3
-0.336561 0.352373 1.505754 8486786 3
-0.311838 0.352373 1.505754 8618372 3
-0.386007 0.377096 1.505754 9078921 3
-0.361284 0.377096 1.505754 9342093 3
-0.336561 0.377096 1.505754 8618372 3
-0.478583 0.315044 1.565984 7500402 3
-0.452871 0.315044 1.565984 7697781 3
-0.427159 0.315044 1.565984 7500402 3
-0.401447 0.315044 1.565984 7697268 3
-0.494407 0.334075 1.535279 7565682 3
-0.443991 0.334075 1.535279 7828854 3
-0.418783 0.334075 1.535279 7960440 3
-0.850158 0.218781 1.087489 5789782 3
-0.856123 0.233395 1.072592 5723482 3
-0.821630 0.228695 1.050996 6513507 3
-0.884851 0.249177 1.064777 5328204 3
-0.857242 0.246268 1.052346 4736583 3
-0.856123 0.251006 1.072592 5526099 3
-0.838874 0.251114 1.073054 6316126 3
-0.835633 0.255510 1.091840 6579298 3
-0.875243 0.263764 1.053215 7434096 3
-0.856142 0.263208 1.050996 6513509 3
-0.827503 0.259637 1.036735 5131854 3
-0.805413 0.258013 1.030253 6250846 3
-0.846540 0.271839 1.018676 6052443 3
-0.826675 0.270811 1.014823 6249824 3
-0.809747 0.270722 1.014490 6118749 3
-1.325480 0.302927 1.505754 5065548 3
-1.300757 0.302927 1.505754 4604483 3
-1.350203 0.327650 1.505754 5066061 3
-1.351470 0.334075 1.535279 4801860 3
-1.326263 0.334075 1.535279 5657169 3
-0.097226 0.237158 1.283594 7960955 3
-0.076151 0.237158 1.283594 8092028 3
-0.055076 0.237158 1.283594 7828858 3
-0.034000 0.237158 1.283594 7763065 3
-0.094140 0.250035 1.242845 8092028 3
-0.072581 0.246128 1.223425 8157821 3
-0.052494 0.246128 1.223425 8223616 3
-0.032406 0.246128 1.223425 8552581 3
-0.012515 0.250035 1.242845 8355200 3
-0.092669 0.266216 1.223425 8618372 3
-0.071465 0.262120 1.204603 8618372 3
-0.031908 0.262120 1.204603 8486788 3
-0.012319 0.266216 1.223425 8618372 3
-0.091689 0.283275 1.210485 9012360 3
-0.139377 0.237158 1.283594 7697781 3
-0.118302 0.237158 1.283594 8224125 3
-0.160452 0.258233 1.283594 8618370 3
-0.139377 0.258233 1.283594 8355198 3
-0.114546 0.250035 1.242845 8026233 3
-0.181528 0.279308 1.283594 8816010 3
-0.157864 0.274803 1.262890 9144716 3
-0.134952 0.270441 1.242845 8684165 3
-0.112756 0.266216 1.223425 8749958 3
-0.179515 0.297053 1.269360 8881803 3
-0.156142 0.292314 1.249109 8946569 3
-0.134952 0.290848 1.242845 9407120 3
-0.113315 0.287723 1.229494 8814981 3
-0.675204 0.226041 1.223425 6841441 3
-0.655117 0.226041 1.223425 6315869 3
-0.695292 0.246128 1.223425 6644832 3
-0.664816 0.242342 1.204603 6512478 3
-0.645038 0.242342 1.204603 6447455 3
-0.671767 0.260367 1.294202 6513248 3
-0.695292 0.266216 1.223425 5986904 3
-0.664816 0.262120 1.204603 6841443 3
-0.625260 0.262120 1.204603 6710884 3
-0.605481 0.262120 1.204603 7368814 3
-0.687938 0.283275 1.210485 7433582 3
-0.619977 0.298395 1.275095 7763572 3
-0.738456 0.233332 1.262890 5658707 3
-0.706328 0.229629 1.242845 6184281 3
-0.759191 0.254068 1.262890 6645091 3
-0.726734 0.250035 1.242845 6448223 3
-0.779927 0.274803 1.262890 7039592 3
-0.759191 0.274803 1.262890 6710884 3
-0.726734 0.270441 1.242845 6184540 3
-0.775411 0.293828 1.255579 6447455 3
-0.739115 0.287723 1.229494 7170924 3
-0.715379 0.286303 1.223425 6907752 3
-0.878046 0.249424 1.349986 4670272 3
-0.884953 0.266987 1.327105 6381660 3
-0.863163 0.266987 1.327105 6710110 3
-0.827351 0.262537 1.304987 5855316 3
-0.805924 0.262537 1.304987 6711138 3
-0.870204 0.283963 1.304987 6644834 3
-0.855910 0.286350 1.315953 6315867 3
-0.946864 0.256046 1.385827 5526351 3
-0.900211 0.249424 1.349986 5592144 3
-0.993902 0.266987 1.327105 5658196 3
-0.975113 0.273951 1.361725 5789525 3
-0.952755 0.273951 1.361725 6644832 3
-0.914493 0.269269 1.338448 6052695 3
-0.966707 0.293755 1.349986 6118490 3
-0.936469 0.291245 1.338448 6908006 3
-0.906743 0.288776 1.327105 5921111 3
1.191456 0.209223 1.242845 5328720 3
1.192927 0.205953 1.223425 4802376 3
1.191456 0.229629 1.242845 5066574 3
1.174574 0.222563 1.204603 4934473 3
1.174574 0.242342 1.204603 5000266 3
1.192927 0.266216 1.223425 4671303 3
0.505669 0.212597 1.262890 6118498 3
0.526404 0.212597 1.262890 5723740 3
0.556109 0.216082 1.283594 5723739 3
0.526404 0.233332 1.262890 5000016 3
0.556109 0.237158 1.283594 6052958 3
0.577185 0.237158 1.283594 5986911 3
0.526404 0.254068 1.262890 6579048 3
0.556109 0.258233 1.283594 7303025 3
0.577185 0.258233 1.283594 6842220 3
0.579268 0.250035 1.242845 7236721 3
0.577185 0.279308 1.283594 7302771 3
0.579268 0.270441 1.242845 6644842 3
0.599674 0.270441 1.242845 6973807 3
0.588319 0.295392 1.262264 7500151 3
0.599674 0.290848 1.242845 7303285 3
0.492883 0.216082 1.283594 6052704 3
0.471808 0.237158 1.283594 6842474 3
0.477236 0.229629 1.242845 5921372 3
0.497642 0.229629 1.242845 5921632 3
0.450733 0.258233 1.283594 6118240 3
0.471808 0.258233 1.283594 6710888 3
0.477236 0.250035 1.242845 6645095 3
0.497642 0.250035 1.242845 7565944 3
0.408582 0.279308 1.283594 7631477 3
0.429657 0.279308 1.283594 7566197 3
0.450733 0.279308 1.283594 7566197 3
0.456830 0.270441 1.242845 7500150 3
0.477236 0.270441 1.242845 7170928 3
0.497642 0.270441 1.242845 6249571 3
0.409517 0.286303 1.223425 8158334 3
0.434293 0.289428 1.236776 7566197 3
0.456830 0.290848 1.242845 8157823 3
0.477236 0.290848 1.242845 8420995 3
-0.144102 0.223407 1.327105 7697268 3
-0.120273 0.219684 1.304987 7829369 3
-0.187681 0.245197 1.327105 7763322 3
-0.165891 0.245197 1.327105 8092539 3
-0.187681 0.266987 1.327105 8158080 3
-0.787126 0.263620 1.565984 7104613 3
-0.789163 0.280905 1.520373 6118490 3
-0.764200 0.280905 1.520373 6710627 3
-0.732129 0.278204 1.505754 7105385 3
-0.707406 0.278204 1.505754 6118490 3
-1.276215 0.248698 1.477344 4671303 3
-1.263882 0.251067 1.491413 5131852 3
-1.239394 0.251067 1.491413 5789782 3
-1.276215 0.272955 1.477344 3881276 3
-1.240258 0.270404 1.463537 5130823 3
-1.324728 0.248698 1.477344 5658457 3
-1.300471 0.248698 1.477344 5658198 3
-1.324003 0.267900 1.449985 5263953 3
-1.300196 0.267900 1.449985 4605510 3
-1.300471 0.272955 1.477344 3420723 3
-1.348984 0.297212 1.477344 4145472 3
-1.324728 0.297212 1.477344 4802889 3
-0.889954 0.321498 2.116195 6644580 3
-0.843253 0.330428 2.174978 6644580 3
-0.878964 0.366139 2.174978 6512996 3
-0.831702 0.361124 2.145184 6907752 3
-0.807542 0.366139 2.174978 7039338 3
1.367746 0.200185 1.477344 5790036 3
1.392002 0.200185 1.477344 4934727 3
1.343489 0.224442 1.477344 4408129 3
1.342417 0.220286 1.449985 5329231 3
1.343489 0.248698 1.477344 4737096 3
1.342417 0.244093 1.449985 5197647 3
1.342417 0.267900 1.449985 5329746 3
1.367746 0.297212 1.477344 3816253 3
1.374452 0.216527 1.597943 5460306 3
1.372675 0.212197 1.565984 5262927 3
1.344603 0.204035 1.505754 5328974 3
1.369326 0.204035 1.505754 4408383 3
1.374452 0.242764 1.597943 4604997 3
1.372675 0.237908 1.565984 4604997 3
1.344603 0.228758 1.505754 4078653 3
1.398387 0.263620 1.565984 5526099 3
1.369326 0.278204 1.505754 4605510 3
-0.730862 0.307531 2.269542 6512994 3
-0.768125 0.344795 2.269542 6447201 3
-0.720421 0.339869 2.237120 6447203 3
-0.782702 0.371296 2.205611 7236717 3
-0.746488 0.371296 2.205611 7170924 3
1.408195 0.202701 1.702157 4868171 3
1.436143 0.202701 1.702157 5131341 3
1.410919 0.264343 1.739982 4671305 3
1.439488 0.264343 1.739982 4736585 3
1.436143 0.258596 1.702157 4341825 3
1.413767 0.299569 1.779528 4671305 3
1.352299 0.202701 1.702157 4671305 3
1.380247 0.202701 1.702157 5197649 3
1.325213 0.235774 1.739982 4802378 3
1.380247 0.230648 1.702157 3947582 3
1.352299 0.258596 1.702157 4802891 3
1.326113 0.299569 1.779528 3684156 3
1.325213 0.292912 1.739982 4670794 3
1.353782 0.292912 1.739982 4868171 3
-0.846015 0.207205 1.739982 4999492 3
-0.836718 0.233183 1.720862 4933697 3
-0.836025 0.241132 1.779528 5526351 3
-0.836718 0.261438 1.720862 3683630 3
-0.836025 0.270351 1.779528 4342076 3
0.124399 0.229675 2.237120 5591894 3
0.161130 0.229675 2.237120 5460310 3
0.197862 0.229675 2.237120 5657687 3
0.124399 0.266407 2.237120 5855579 3
0.161130 0.266407 2.237120 6250337 3
-1.371739 0.206119 2.007672 3418926 3
-1.338775 0.206119 2.007672 4142649 3
-1.340175 0.211543 2.060506 2630180 3
-1.323761 0.214364 2.087979 3025451 3
-1.338775 0.239083 2.007672 3156526 3
-1.340175 0.245375 2.060506 3814713 3
-1.386922 0.203510 1.982258 3682868 3
-1.386922 0.236057 1.982258 4933448 3
-1.354376 0.236057 1.982258 3222319 3
-1.337446 0.265246 1.957480 4999241 3
-1.305306 0.265246 1.957480 3485491 3
-1.320934 0.293714 1.933314 4999239 3
-1.470631 0.206119 2.007672 3815994 3
-1.456338 0.208796 2.033746 3354930 3
-1.470631 0.239083 2.007672 4802889 3
-1.437667 0.239083 2.007672 4539458 3
-1.456338 0.275580 2.033746 5130825 3
-1.422946 0.275580 2.033746 5722964 3
-1.576995 0.211543 2.060506 4276545 3
-1.503595 0.206119 2.007672 2632233 3
-1.576995 0.245375 2.060506 4144700 3
-1.503595 0.239083 2.007672 5526612 3
-1.576995 0.279206 2.060506 4605251 3
-1.543164 0.279206 2.060506 4671303 3
-1.771739 0.223295 2.174978 5986652 3
-1.747468 0.255458 2.145184 4999755 3
-1.712247 0.255458 2.145184 4276286 3
-1.747468 0.290680 2.145184 2894379 3
-1.712247 0.290680 2.145184 3881528 3
-0.696724 0.207786 2.409206 4999755 3
-0.657168 0.207786 2.409206 5131856 3
-0.627261 0.211033 2.446850 4670792 3
-0.657168 0.247343 2.409206 4539465 3
-0.637217 0.255195 2.485689 5526103 3
-0.627261 0.291382 2.446850 5197649 3
-0.686599 0.303747 4.349956 4670792 3
-0.615177 0.303747 4.349956 4802378 3
-0.686599 0.375169 4.349956 5065550 3
-0.615177 0.375169 4.349956 5065552 3
-0.185337 0.130683 2.446850 4473415 3
-0.145163 0.130683 2.446850 5197649 3
-0.104988 0.130683 2.446850 4934223 3
-0.145163 0.170858 2.446850 5328981 3
-0.104988 0.170858 2.446850 5131602 3
-0.785788 0.220097 4.121011 4473413 3
-0.718125 0.220097 4.121011 4276034 3
-0.785788 0.287760 4.121011 4078655 3
-0.875058 0.209092 3.914960 3947069 3
-0.810778 0.209092 3.914960 4012862 3
-0.810778 0.273372 3.914960 4407618 3
-1.130097 0.103438 2.796400 2695975 3
-1.176011 0.149352 2.796400 3024940 3
-1.130097 0.149352 2.796400 3091244 3
-1.176011 0.195266 2.796400 3880506 3
-1.110271 0.191840 2.747341 3092012 3
-0.185337 0.010158 2.446850 2105378 3
-0.145163 0.010158 2.446850 3618617 3
-0.104988 0.010158 2.446850 2302757 3
-0.185337 0.050333 2.446850 3618874 3
-0.145163 0.050333 2.446850 3158064 3
-0.104988 0.050333 2.446850 3552824 3
-0.185337 0.090508 2.446850 3684921 3
-0.145163 0.090508 2.446850 4079166 3
-0.104988 0.090508 2.446850 3815994 3
-0.686599 0.018059 4.349956 2762795 3
-0.615177 0.018059 4.349956 2827818 3
-0.686599 0.089481 4.349956 3683897 3
-0.615177 0.089481 4.349956 3288369 3
-1.618385 0.039284 1.909737 3814967 3
-1.647296 0.040776 1.982258 5788757 3
-1.647296 0.073323 1.982258 2696486 3
-1.531666 0.207205 1.739982 4144707 3
-1.519986 0.238423 1.759533 4144961 3
-1.525375 0.243904 1.799982 4737098 3
-0.692328 0.252219 0.945151 7039338 3
-0.673589 0.251019 0.940653 6645091 3
-0.639252 0.243813 0.913651 6776677 3
-0.694271 0.262602 0.927023 7171178 3
-0.676780 0.261725 0.923925 7565936 3
-0.651267 0.257633 0.909480 7236971 3
-0.637977 0.264505 0.933741 7631475 3
-0.746652 0.249677 0.996966 6316126 3
-0.758648 0.258966 0.970433 6842470 3
-0.733345 0.255699 0.958191 7171435 3
-0.710791 0.253268 0.949081 7039849 3
-0.774621 0.264050 0.932133 7433582 3
-0.753175 0.261914 0.924594 6907754 3
-0.735259 0.260943 0.921167 6841959 3
-0.717239 0.259894 0.917464 6579298 3
-0.700887 0.259417 0.915780 6447712 3
0.812897 0.417996 1.257009 8092287 3
0.846159 0.424326 1.276046 7960701 3
0.858171 0.419951 1.262890 7697529 3
0.869315 0.415368 1.249109 7434870 3
0.885362 0.413285 1.242845 7895421 3
0.896038 0.408846 1.229494 7960955 3
0.812897 0.438634 1.257009 8158080 3
0.828167 0.435809 1.248913 8026494 3
0.840425 0.431574 1.236776 7829115 3
0.846658 0.424517 1.216554 7500663 3
0.858120 0.420347 1.204603 8092800 3
0.802685 0.442275 1.210485 8223873 3
0.818563 0.440126 1.204603 8092287 3
0.838341 0.440126 1.204603 8355972 3
0.858120 0.440126 1.204603 8092800 3
0.802685 0.462150 1.210485 8553092 3
0.818563 0.459904 1.204603 8487045 3
0.811266 0.487177 1.223425 8552838 3
0.822560 0.482025 1.210485 8355459 3
-1.699061 0.126723 2.372703 2630180 3
-1.660104 0.126723 2.372703 3484719 3
-1.621147 0.126723 2.372703 2103064 3
-1.699061 0.165680 2.372703 3749174 3
-1.660104 0.165680 2.372703 3945270 3
-1.621147 0.165680 2.372703 4537405 3
-1.747468 0.114571 2.145184 4143678 3
-1.736028 0.116163 2.174978 4209471 3
-1.747468 0.149793 2.145184 4670022 3
-1.736028 0.151873 2.174978 4209471 3
-1.758600 0.182515 2.116195 4802378 3
-1.771739 0.187584 2.174978 3486518 3
-1.531666 0.178636 1.739982 5921372 3
0.743892 0.303489 1.211840 7238261 3
0.779506 0.309734 1.236776 6119010 3
0.763789 0.323386 1.211840 7105905 3
0.799812 0.330041 1.236776 6776940 3
0.792320 0.347066 1.225191 7500663 3
-0.141461 0.268595 0.896230 9736600 3
-0.125832 0.266657 0.889764 9408148 3
-0.111223 0.266657 0.889764 9144975 3
-0.146118 0.265064 0.838511 9868441 3
-0.130092 0.260541 0.824202 10131871 3
-0.117412 0.262446 0.830230 9539736 3
-0.104123 0.263313 0.832970 9802905 3
-0.128737 0.271219 0.815617 9934492 3
-0.115346 0.271219 0.815617 10066080 3
-0.101954 0.271219 0.815617 10460836 3
-0.100581 0.280778 0.804634 9934492 3
0.133343 0.301907 0.865185 10460323 3
0.148112 0.303060 0.868489 10526116 3
0.162653 0.303584 0.869991 10460323 3
0.175600 0.301291 0.863419 10066077 3
0.189120 0.300248 0.860431 10460835 3
0.102111 0.307615 0.841927 10460835 3
0.116094 0.308037 0.843084 10724008 3
0.133114 0.315570 0.863699 10724008 3
0.148112 0.317320 0.868489 10724008 3
0.162017 0.316627 0.866593 10658215 3
0.181065 0.300986 0.823784 10724007 3
0.112336 0.311460 0.815790 10789801 3
0.132565 0.328391 0.860137 11052975 3
0.145508 0.325751 0.853222 10921389 3
0.151406 0.309186 0.809836 10855594 3
0.163017 0.306021 0.801546 10526628 3
0.111950 0.323739 0.812989 10789801 3
0.125704 0.324785 0.815617 10921389 3
0.078875 0.238291 1.095094 8749958 3
0.096855 0.238291 1.095094 8815751 3
0.057789 0.243200 1.039236 9210509 3
0.075386 0.244934 1.046646 9210507 3
0.094435 0.249868 1.067732 9144716 3
0.056294 0.253533 1.012363 9013130 3
0.073423 0.255293 1.019392 9342095 3
0.092439 0.261748 1.045166 9671058 3
0.006875 0.288927 1.082709 9802130 3
0.056294 0.270155 1.012363 9473681 3
0.073093 0.270811 1.014823 8815751 3
0.056047 0.285515 1.007910 9802905 3
0.072302 0.284361 1.003836 9868441 3
0.102111 0.266144 0.841927 10263199 3
0.116801 0.268133 0.848219 9868441 3
0.131214 0.269129 0.851369 10197406 3
0.145936 0.270507 0.855729 10000027 3
0.161300 0.272729 0.862758 9868441 3
0.103785 0.284557 0.855729 10394785 3
0.117958 0.284854 0.856620 10131613 3
0.134037 0.289200 0.869691 10197406 3
0.147548 0.287701 0.865185 10328992 3
0.161810 0.287801 0.865485 10394785 3
0.175251 0.286543 0.861702 10263456 3
0.182905 0.276717 0.832153 10395042 3
0.193670 0.272638 0.819887 10197664 3
0.103221 0.296984 0.851078 10065820 3
0.117316 0.297292 0.851960 9868186 3
0.165878 0.298002 0.815617 10789800 3
0.113920 0.242641 0.609332 10921387 3
0.182504 0.270111 0.678316 10526116 3
0.152054 0.249552 0.601872 10395045 3
0.176976 0.272730 0.657771 10723497 3
0.195540 0.284006 0.684969 10658217 3
0.172743 0.276747 0.642037 10657704 3
0.187835 0.283618 0.657977 10658217 3
0.198638 0.283618 0.657977 10724010 3
0.140718 0.247000 0.595716 10987182 3
0.138642 0.252993 0.586927 10724010 3
0.150790 0.257277 0.596868 10921135 3
0.107206 0.256584 0.573418 10723756 3
0.114672 0.252297 0.563836 11052975 3
0.123730 0.251890 0.562928 10921389 3
0.135101 0.255922 0.571937 10658217 3
-1.747468 0.008906 2.145184 2893352 3
-1.712247 0.008906 2.145184 2301215 3
-1.747468 0.044128 2.145184 2235935 3
-1.712247 0.044128 2.145184 2695973 3
-1.700317 0.044741 2.174978 3551541 3
-1.747468 0.079349 2.145184 2564900 3
-1.712247 0.079349 2.145184 3420209 3
-1.700317 0.080452 2.174978 1841693 3
0.116465 0.241671 1.110627 9013132 3
0.134700 0.241671 1.110627 8618374 3
0.152935 0.241671 1.110627 8881544 3
0.172393 0.243397 1.118560 8552579 3
0.192131 0.245148 1.126607 8749960 3
0.116208 0.259334 1.108183 8552579 3
0.134700 0.259906 1.110627 8815751 3
0.152935 0.259906 1.110627 9210509 3
0.172011 0.261183 1.116081 8684165 3
0.191703 0.263058 1.124093 8749960 3
0.122731 0.293107 1.170382 9342093 3
0.154028 0.280129 1.118560 7565686 3
0.173246 0.281514 1.124093 9407890 3
0.194034 0.284937 1.137761 9078925 3
0.462154 0.251444 0.795425 8618374 3
0.415337 0.259729 0.781064 8487558 3
0.433418 0.262917 0.790653 8881803 3
0.444296 0.261678 0.786927 8618631 3
0.457216 0.261678 0.786927 8618374 3
0.474033 0.263847 0.793449 8223873 3
0.415337 0.272553 0.781064 9211281 3
0.433418 0.275899 0.790653 9013902 3
0.444296 0.274599 0.786927 8552838 3
0.457216 0.274599 0.786927 8684424 3
0.473013 0.276278 0.791740 8881803 3
0.415382 0.285408 0.781148 9277074 3
0.433691 0.289063 0.791152 9013902 3
0.450381 0.291457 0.797704 9145488 3
0.460991 0.289893 0.793423 8881803 3
0.472813 0.289156 0.791405 9079182 3
0.413585 0.296944 0.777769 9342868 3
0.235637 0.303690 1.072069 9671319 3
0.277814 0.311507 1.099666 9276561 3
0.209430 0.308611 1.029756 9539734 3
0.223505 0.304750 1.016873 9539734 3
0.240202 0.304750 1.016873 9671320 3
0.264058 0.313244 1.045215 9473941 3
0.292955 0.326317 1.088834 9408148 3
0.259221 0.324354 1.026072 9802906 3
0.290614 0.341444 1.080133 9802906 3
0.269349 0.267662 0.767049 9671320 3
0.238502 0.273762 0.749275 10329252 3
0.249910 0.272785 0.746601 9868701 3
0.262225 0.272845 0.746763 10066080 3
0.218360 0.292032 0.764905 10460836 3
0.223065 0.282100 0.738891 10592422 3
0.236242 0.283353 0.742173 10461349 3
0.247549 0.282352 0.739549 10263457 3
0.258242 0.280775 0.735421 10197664 3
0.271512 0.282017 0.738672 9868701 3
0.276920 0.275335 0.721170 10066080 3
0.204910 0.285830 0.717790 10395043 3
0.224258 0.295805 0.742842 10592422 3
0.239094 0.299108 0.751134 10263970 3
0.241146 0.286877 0.720420 10460836 3
0.252245 0.286049 0.718341 10460836 3
0.311675 0.287391 0.693131 9802908 3
0.323403 0.287699 0.693876 9276049 3
0.334518 0.287461 0.693300 9408147 3
0.305442 0.292796 0.679270 10000287 3
0.316826 0.293010 0.679765 10065826 3
0.327095 0.292213 0.677915 9539734 3
0.340256 0.293967 0.681986 9803419 3
0.352407 0.294765 0.683836 9671579 3
0.366455 0.297050 0.689138 9342614 3
0.305388 0.293189 0.655223 10197923 3
0.317980 0.294890 0.659025 10329509 3
0.333735 0.299316 0.668915 9803165 3
0.283499 0.259669 0.680139 9802908 3
0.274365 0.262111 0.658227 9868701 3
0.207350 0.284780 0.686835 10789803 3
0.218627 0.284780 0.686835 10395302 3
0.229904 0.284780 0.686835 10526631 3
0.216679 0.255848 0.617057 10395045 3
0.297567 0.284780 0.686835 9737115 3
0.208241 0.281993 0.654207 10592681 3
0.277857 0.276447 0.641340 10000544 3
0.290521 0.289101 0.646087 10066337 3
0.932047 0.339345 1.197937 5855326 3
0.914339 0.326018 1.150890 4671052 3
0.920165 0.321452 1.134771 5789532 3
0.978515 0.335052 1.182781 5263188 3
0.912378 0.359014 1.197937 6447463 3
0.981541 0.348649 1.163350 5460568 3
0.939551 0.388585 1.113582 7368565 3
0.611373 0.316585 1.186352 8158080 3
0.630852 0.316585 1.186352 8092287 3
0.688838 0.307683 1.152993 7040112 3
0.609712 0.335150 1.183128 8223873 3
0.603424 0.321452 1.134771 8158080 3
0.622056 0.321452 1.134771 8223873 3
0.634395 0.318295 1.123626 8289666 3
0.643607 0.313792 1.107729 7697530 3
0.691698 0.319198 1.126813 7763835 3
0.869321 0.321292 1.072069 6973806 3
0.883608 0.320092 1.068062 5394774 3
0.844013 0.335829 1.062370 6315877 3
0.846551 0.330018 1.043989 5460568 3
0.863693 0.330018 1.043989 5328730 3
0.897425 0.336235 1.063654 6249571 3
0.841888 0.359819 1.082058 7302771 3
0.825410 0.345485 1.038954 6974320 3
0.835413 0.342592 1.030253 6644844 3
0.852328 0.342592 1.030253 7039602 3
0.893803 0.352271 1.059361 6578536 3
0.834341 0.374200 1.072359 7961214 3
0.814599 0.357796 1.025347 7105905 3
0.824563 0.354839 1.016873 7566457 3
0.848869 0.358048 1.026072 7039602 3
0.833113 0.383145 1.048650 7633019 3
0.832022 0.374896 1.026072 7434871 3
-1.574251 -0.038421 3.131968 1709591 3