# .PCD v0.7 - Point Cloud Data file format
VERSION 0.7
FIELDS x y z rgb label
SIZE 4 4 4 4 4
TYPE F F F U U
COUNT 1 1 1 1 1
WIDTH 1478
HEIGHT 1
VIEWPOINT 0 0 0 1 0 0 0
POINTS 1478
DATA ascii
0.210327 0.277852 0.598969 11316147 3
0.248387 0.276429 0.595902 10329509 3
0.256386 0.274518 0.591782 10592935 3
0.266793 0.275230 0.593317 10263457 3
0.278248 0.276936 0.596994 10263716 3
0.288324 0.277199 0.597562 10329509 3
0.297143 0.276277 0.595573 9803165 3
0.266729 0.284904 0.593176 10460838 3
0.277191 0.285649 0.594726 10329509 3
0.287296 0.285987 0.595431 10263716 3
0.297073 0.285987 0.595431 10263716 3
-0.559886 0.307549 0.687313 7829108 3
-0.553071 0.310054 0.692913 8223866 3
-0.535217 0.306347 0.684628 8420991 3
-0.518006 0.302856 0.676827 8157819 3
-0.505519 0.302036 0.674993 8486784 3
-0.500678 0.305849 0.683514 8947848 3
-0.519973 0.308542 0.665129 7960440 3
-0.509496 0.308812 0.665709 8092026 3
-0.504169 0.312282 0.673190 8618370 3
-0.500961 0.317251 0.683901 8289918 3
-0.500616 0.324301 0.699100 8289918 3
-0.514382 0.316028 0.657977 8092026 3
-0.512532 0.321647 0.669675 8486784 3
0.004427 0.300511 0.697167 10921389 3
0.015918 0.301344 0.699100 10921389 3
0.027396 0.301344 0.699100 11052975 3
0.038875 0.301344 0.699100 11052975 3
0.004361 0.307335 0.686835 10724010 3
0.015734 0.309204 0.691014 10855342 3
0.027320 0.311958 0.697167 11118514 3
0.038406 0.309050 0.690668 11118514 3
0.048317 0.300172 0.670828 11316147 3
0.004286 0.313118 0.674993 10855342 3
0.015649 0.318834 0.687313 11052721 3
0.027320 0.323404 0.697167 11381686 3
0.038875 0.324301 0.699100 11052721 3
0.048593 0.312964 0.674661 11184561 3
0.025935 0.317869 0.661810 10855342 3
0.036898 0.318706 0.663553 11052721 3
0.315228 0.280427 0.676336 9802648 3
0.335798 0.288561 0.695953 9605527 3
0.312040 0.278764 0.646715 9802906 3
0.343830 0.297054 0.689147 9737372 3
0.301571 0.279673 0.625017 9868958 3
0.325755 0.292159 0.652920 9737372 3
0.345110 0.299656 0.669675 9671581 3
0.339348 0.285556 0.638163 9671322 3
0.340364 0.298221 0.620901 9802908 3
-0.481179 0.266395 0.642492 7829108 3
-0.493725 0.279468 0.674022 8026744 3
-0.494275 0.286194 0.690244 8552829 3
-0.488595 0.289544 0.698325 7960694 3
-0.452573 0.288508 0.695826 8355200 3
-0.485258 0.279292 0.647940 8157819 3
-0.486859 0.286494 0.664649 8487297 3
-0.492830 0.296657 0.688226 8289659 3
-0.481885 0.296876 0.688735 8355452 3
-0.469803 0.296388 0.687602 8157821 3
-0.404413 0.289977 0.672728 8881796 3
0.404037 0.302564 0.759814 9276564 3
0.402238 0.313636 0.756430 9473943 3
0.435715 0.329563 0.794843 9473943 3
0.414657 0.326056 0.756430 9671322 3
0.448765 0.342614 0.794843 9079185 3
0.444896 0.352597 0.787989 9605529 3
-0.466526 0.300813 0.755418 8881542 3
-0.462897 0.306626 0.770014 9079175 3
-0.442931 0.301639 0.757490 8355198 3
-0.460528 0.309190 0.745707 8618370 3
-0.445377 0.307185 0.740870 8816003 3
-0.475002 0.307046 0.712328 8618374 3
-0.470191 0.311609 0.722914 8552579 3
-0.453894 0.308599 0.715930 8815749 3
-0.482309 0.315868 0.705905 8092028 3
-0.474657 0.318510 0.711811 8552579 3
-0.492167 0.326310 0.703430 8289918 3
-0.596938 0.275167 0.691014 7236199 3
-0.590806 0.277617 0.697167 7170406 3
-0.586584 0.281543 0.679028 6842213 3
-0.584010 0.285739 0.689147 7829108 3
-0.579359 0.289064 0.697167 7565936 3
-0.515297 0.279163 0.673288 8355452 3
-0.568986 0.289412 0.671418 7631729 3
-0.571171 0.296264 0.687313 7236971 3
-0.564448 0.298677 0.692913 8026487 3
-0.553071 0.298677 0.692913 7829108 3
-0.541694 0.298677 0.692913 8092026 3
-0.522490 0.294269 0.682686 8157819 3
0.241830 0.343158 0.898815 10526631 3
0.242057 0.323725 0.847916 10658215 3
0.251827 0.318474 0.834161 10592935 3
0.264705 0.317493 0.831593 10395304 3
0.274716 0.313338 0.820710 10394791 3
0.224656 0.332497 0.834984 10592424 3
0.246818 0.344288 0.864594 10526629 3
0.248267 0.327475 0.822371 10395556 3
0.256156 0.320452 0.804735 10461097 3
0.219445 0.338177 0.815617 10592170 3
-0.099335 0.303394 0.794665 10000284 3
-0.085879 0.301957 0.790901 10328992 3
-0.070749 0.305680 0.767639 10789288 3
-0.057757 0.303640 0.762516 10855596 3
-0.094459 0.313318 0.755662 10921387 3
-0.082544 0.315194 0.760186 10591909 3
-0.069599 0.313110 0.755161 10328739 3
-0.055928 0.306146 0.738365 10789803 3
-0.091801 0.316559 0.734397 11052973 3
-0.080207 0.318401 0.738672 10723497 3
-0.067642 0.316356 0.733926 10789290 3
-0.055428 0.315426 0.731768 10657963 3
-0.042599 0.309511 0.718048 10658217 3
-0.030167 0.303056 0.703072 10789803 3
-0.089860 0.321669 0.718869 10986669 3
-0.079228 0.326493 0.729651 11052462 3
-0.067443 0.327441 0.731768 10855083 3
-0.055428 0.327441 0.731768 10724008 3
-0.042599 0.321301 0.718048 10789801 3
-0.030167 0.314600 0.703072 11118766 3
-0.089860 0.333472 0.718869 11118255 3
-0.079743 0.340675 0.734397 11118255 3
-0.069442 0.349519 0.753463 10920876 3
-0.057581 0.352638 0.760186 11052973 3
-0.043392 0.339293 0.731418 11052973 3
-0.030440 0.329099 0.709443 11118766 3
-0.108330 0.262031 0.686325 10526629 3
-0.152184 0.271125 0.680863 10657957 3
-0.140585 0.270318 0.678836 10657702 3
-0.129264 0.269951 0.677915 10789288 3
-0.118133 0.269951 0.677915 10986667 3
-0.107002 0.269951 0.677915 10395043 3
-0.189536 0.288102 0.694847 10131613 3
-0.177631 0.287300 0.692913 10065820 3
-0.166254 0.287300 0.692913 10657957 3
-0.152124 0.282192 0.680593 10394785 3
-0.139865 0.280022 0.675360 10789288 3
-0.129826 0.282304 0.680863 10526118 3
-0.117944 0.280631 0.676827 10657704 3
-0.106570 0.279946 0.675176 10658217 3
-0.191390 0.285270 0.661810 10394785 3
-0.181000 0.286022 0.663553 10592164 3
-0.170105 0.286022 0.663553 10789543 3
-0.161097 0.289412 0.671418 10855336 3
-0.150872 0.290953 0.674993 10855336 3
-0.141048 0.293573 0.681072 10394530 3
-0.130357 0.294684 0.683650 10460325 3
-0.117944 0.291744 0.676827 10723497 3
-0.107257 0.292908 0.679529 10724010 3
-0.018518 0.301344 0.699100 10724010 3
-0.018405 0.310919 0.694847 10395043 3
-0.006935 0.308185 0.688735 10921387 3
-0.018347 0.321303 0.692636 10987180 3
-0.006834 0.314835 0.678694 10921387 3
-0.018131 0.328765 0.684495 11381938 3
0.648153 0.349739 1.002260 8289666 3
0.692280 0.364301 1.043989 7960701 3
0.696753 0.357796 1.025347 7500150 3
0.648153 0.366196 1.002260 8618631 3
0.692280 0.381442 1.043989 7960701 3
0.696753 0.374631 1.025347 8158080 3
0.631697 0.382652 1.002260 9144975 3
0.505478 0.303584 0.869991 8487045 3
0.523777 0.305929 0.876712 8881804 3
0.535922 0.304650 0.873046 8158081 3
0.565865 0.313292 0.897811 8487045 3
0.521993 0.319232 0.873724 8816011 3
0.540047 0.321440 0.879766 8618632 3
0.520247 0.332462 0.870801 9276562 3
0.510596 0.340328 0.854648 8881804 3
0.507993 0.356711 0.827547 9342357 3
0.524998 0.359048 0.832970 8816011 3
0.590995 0.357605 0.829621 8552838 3
0.594410 0.351568 0.815617 8684424 3
0.507993 0.370298 0.827547 9079442 3
0.524998 0.372725 0.832970 9144976 3
0.588913 0.369919 0.826699 9078925 3
0.586876 0.382166 0.823839 8684167 3
0.586876 0.395692 0.823839 8881804 3
0.594410 0.391743 0.815617 9079183 3
0.487857 0.301522 0.864081 8552838 3
0.453643 0.302361 0.827547 9079182 3
0.477321 0.308891 0.845420 9539733 3
0.498225 0.313308 0.857508 8947596 3
0.450338 0.313647 0.821519 9539734 3
0.472221 0.319324 0.836388 9079183 3
0.492828 0.323840 0.848219 9342354 3
0.445662 0.323739 0.812989 9605527 3
0.463827 0.327135 0.821519 9210769 3
0.485954 0.333056 0.836388 9342354 3
0.459011 0.337087 0.812989 8947597 3
0.477315 0.340624 0.821519 8816011 3
0.499687 0.346789 0.836388 9473943 3
0.469000 0.347944 0.807208 9079183 3
0.485707 0.350436 0.812989 9408150 3
0.469000 0.361197 0.807208 9473943 3
0.485707 0.363784 0.812989 9079444 3
0.261442 0.237588 0.680863 9737113 3
0.244566 0.243166 0.636912 9935005 3
0.253269 0.241493 0.632530 9539736 3
0.286290 0.262226 0.686835 9605529 3
0.251341 0.272292 0.683794 10197923 3
0.244134 0.253175 0.635786 9671579 3
0.249009 0.247642 0.621890 9803419 3
0.258065 0.246538 0.619120 9934494 3
0.290454 0.266965 0.670416 8947599 3
0.216811 0.268562 0.647721 10197412 3
0.225309 0.266038 0.641633 10394791 3
0.234284 0.264279 0.637391 10066337 3
0.242962 0.262348 0.632734 10526888 3
0.250001 0.258880 0.624370 9869212 3
0.258459 0.257096 0.620067 10132130 3
0.278280 0.266322 0.642316 9671322 3
0.297314 0.274148 0.661192 9473941 3
0.220828 0.299037 0.693748 10658478 3
0.218620 0.281527 0.653125 10263207 3
0.223449 0.274291 0.636338 10394791 3
0.231458 0.271430 0.629702 10197925 3
0.241313 0.270887 0.628441 10263718 3
0.248760 0.267795 0.621269 10067105 3
0.258392 0.267208 0.619906 10197923 3
0.275445 0.274048 0.635773 9803167 3
0.286319 0.274465 0.636741 10131873 3
0.299595 0.277074 0.642794 10066078 3
0.209338 0.294276 0.657651 10921135 3
0.211839 0.283185 0.632865 10657965 3
0.216413 0.275773 0.616300 10921135 3
0.223648 0.272261 0.608452 10526888 3
0.236236 0.275288 0.615218 10658476 3
0.247838 0.276966 0.618966 10395304 3
0.257302 0.276216 0.617291 10198177 3
0.267108 0.275875 0.616529 10066591 3
0.280280 0.278910 0.623311 10131871 3
0.291878 0.280219 0.626238 9935005 3
0.203084 0.295961 0.638006 11118514 3
0.206294 0.285892 0.616300 11250100 3
0.221518 0.279564 0.602660 10790060 3
0.202028 0.289890 0.603556 11052721 3
0.227289 0.277829 0.796183 10066078 3
0.271211 0.257474 0.737853 10131871 3
0.214493 0.291277 0.797213 10592424 3
0.225781 0.288971 0.790901 10395043 3
0.267271 0.291736 0.798467 10460838 3
0.275815 0.286985 0.785464 9934492 3
0.285844 0.284134 0.777662 9737113 3
0.271989 0.258802 0.708329 9671319 3
0.292077 0.266520 0.729451 9605527 3
0.259260 0.281882 0.738320 10000287 3
0.260011 0.270071 0.707383 9934751 3
0.247138 0.294005 0.738320 10526377 3
0.248330 0.281609 0.707191 10460838 3
0.222832 0.290257 0.700045 10526892 3
0.104355 0.300248 0.860431 10131613 3
0.177102 0.303867 0.870801 10460835 3
0.192727 0.305975 0.876842 10460323 3
0.103315 0.311240 0.851849 10460835 3
0.118285 0.313850 0.858993 10526628 3
0.129108 0.306073 0.837706 10592422 3
0.143582 0.307615 0.841927 10724010 3
0.157406 0.307615 0.841927 10461349 3
0.172509 0.309913 0.848219 10592422 3
0.191399 0.318165 0.870801 10657702 3
0.101439 0.319324 0.836388 10460836 3
0.116722 0.323622 0.847647 11184558 3
0.129758 0.321438 0.841927 11052973 3
0.143054 0.320257 0.838832 10724008 3
0.155889 0.318341 0.833814 10789803 3
0.167624 0.314671 0.824202 10526631 3
0.102657 0.337054 0.846426 10921387 3
0.117598 0.340070 0.854001 10658215 3
0.131169 0.338906 0.851078 10921387 3
0.140985 0.329198 0.826699 10724008 3
0.152487 0.324785 0.815617 10921389 3
0.165878 0.324785 0.815617 10855596 3
0.140020 0.340425 0.821040 10987182 3
0.152487 0.338177 0.815617 10789803 3
0.005073 0.278802 0.798972 10657702 3
0.004690 0.269888 0.738672 10526116 3
0.017391 0.279074 0.763812 10591909 3
0.030589 0.285196 0.780569 10920359 3
0.044151 0.290096 0.793978 10722980 3
0.004548 0.273476 0.716301 10855083 3
0.016566 0.277779 0.727572 10460325 3
0.028862 0.281193 0.736514 11052460 3
0.041075 0.282017 0.738672 10657957 3
0.053552 0.283863 0.743508 10592164 3
0.004495 0.281867 0.707839 10723499 3
0.016207 0.283449 0.711811 9473430 3
0.028070 0.285237 0.716301 10723495 3
0.039695 0.284261 0.713852 10789543 3
0.051269 0.283449 0.711811 10526629 3
0.065017 0.292728 0.735114 10658217 3
0.016016 0.291661 0.703430 11052975 3
0.027816 0.294305 0.709807 11052975 3
0.039336 0.293308 0.707402 10855594 3
0.050495 0.290682 0.701068 10987180 3
0.062215 0.291661 0.703430 10987182 3
0.708877 0.330902 0.995100 7565944 3
0.722321 0.329582 0.991129 7763322 3
0.702809 0.344269 0.986583 7697530 3
0.713292 0.341532 0.978740 7500151 3
0.729362 0.341532 0.978740 8026494 3
0.758573 0.347553 0.995994 7632249 3
0.702809 0.360467 0.986583 8092288 3
0.707238 0.354567 0.970433 7829116 3
0.720358 0.353187 0.966657 7829116 3
0.742556 0.356222 0.974964 8158593 3
0.768129 0.360714 0.987258 7763833 3
0.704486 0.369059 0.966657 7697529 3
0.720358 0.369059 0.966657 7960701 3
-0.687789 0.264756 0.796183 5920082 3
-0.699427 0.272183 0.780005 6380890 3
-0.675735 0.267868 0.767639 5854288 3
-0.663131 0.267868 0.767639 6117460 3
-0.654955 0.269692 0.772865 7301734 3
-0.648669 0.272380 0.780569 6709857 3
-0.646775 0.277059 0.793978 7565936 3
-0.638135 0.278981 0.799486 7104613 3
-0.649969 0.264838 0.724849 6446683 3
-0.620946 0.257731 0.705398 6972769 3
-0.617051 0.260982 0.714297 6972769 3
-0.628871 0.271135 0.742085 6446426 3
-0.634887 0.279137 0.763986 6579041 3
-0.637826 0.286082 0.782992 6316128 3
-0.624970 0.286082 0.782992 7631727 3
-0.605993 0.267824 0.701497 7170406 3
-0.605323 0.272710 0.714297 7301992 3
-0.617650 0.283762 0.743244 7367785 3
-0.628594 0.294611 0.771659 7895158 3
-0.618782 0.295978 0.775240 7500654 3
-0.608127 0.296990 0.777891 7631729 3
0.800272 0.339472 1.073895 7039599 3
0.828258 0.343769 1.087489 6447975 3
0.846114 0.343769 1.087489 6711147 3
0.847916 0.337382 1.067282 6315876 3
0.857991 0.334478 1.058097 6250083 3
0.867340 0.331412 1.048398 6381669 3
0.850172 0.318530 1.007648 6315876 3
0.819815 0.350385 1.053689 7237491 3
0.832913 0.348626 1.048398 7105392 3
0.838894 0.344019 1.034545 6776427 3
0.830076 0.333648 1.003355 7039599 3
0.872314 0.337239 1.014155 7039853 3
0.802506 0.359922 1.031441 7566454 3
0.821907 0.361005 1.034545 7763576 3
0.827954 0.356298 1.021054 6974060 3
0.888965 0.353890 1.014155 6316130 3
0.801476 0.368595 1.008828 8355713 3
0.824563 0.371535 1.016873 7368818 3
0.833844 0.368260 1.007910 7500404 3
0.888965 0.370542 1.014155 7237232 3
0.852328 0.393339 1.030253 7500402 3
0.861483 0.389827 1.021054 7763574 3
0.866942 0.384809 1.007910 7039851 3
0.729451 0.331330 1.048139 7500150 3
0.727365 0.322768 1.021054 7829116 3
0.754669 0.327340 1.035515 7631736 3
0.704363 0.336553 1.012091 7697529 3
0.758639 0.338526 1.018027 7565943 3
0.791858 0.345732 1.039697 7763835 3
0.701453 0.351711 1.007910 7763322 3
0.701453 0.368260 1.007910 7960701 3
0.369693 0.250738 0.793192 8684938 3
0.376032 0.246359 0.779340 9079183 3
0.392488 0.248678 0.786676 8947597 3
0.327755 0.251565 0.756514 9605526 3
0.341312 0.252405 0.759039 9342354 3
0.354309 0.252786 0.760186 9473941 3
0.368021 0.253634 0.762736 9276562 3
0.382407 0.254875 0.766469 8947597 3
0.397699 0.256622 0.771723 9144976 3
0.307402 0.267898 0.767725 9802906 3
0.314669 0.263430 0.754920 9473941 3
0.314375 0.253209 0.725631 9079182 3
0.330790 0.256702 0.735639 8487045 3
0.348189 0.260686 0.747055 9671060 3
0.363927 0.263197 0.754252 8815753 3
0.379972 0.265757 0.761588 8552838 3
0.395113 0.267542 0.766706 9144976 3
0.307680 0.269698 0.738152 9737113 3
0.315652 0.266200 0.728577 9737112 3
0.329342 0.267604 0.732419 9473940 3
0.345913 0.271167 0.742173 10130841 3
0.361650 0.273856 0.749532 8946567 3
0.375853 0.275245 0.753334 8947339 3
0.393068 0.278681 0.762736 8947597 3
0.310029 0.273208 0.715600 9539734 3
0.329243 0.279546 0.732200 9539474 3
0.345403 0.282936 0.741079 8618372 3
0.360455 0.285217 0.747055 8355202 3
0.373941 0.286151 0.749500 9013132 3
0.388104 0.287527 0.753104 9210769 3
0.315844 0.279702 0.702401 8026237 3
0.335867 0.286955 0.720617 8552581 3
0.351554 0.290137 0.728607 9276304 3
0.365201 0.291481 0.731983 9671320 3
0.380221 0.293800 0.737807 9013390 3
0.353937 0.294139 0.709406 9473941 3
0.262967 0.275354 0.871063 9539733 3
0.267104 0.265259 0.839128 9342357 3
0.284181 0.268375 0.848986 9737113 3
0.210582 0.277180 0.833545 10000285 3
0.218249 0.269740 0.811170 9934492 3
0.230511 0.268509 0.807470 9802905 3
0.248516 0.273739 0.823197 9605526 3
0.263741 0.275524 0.828563 9868701 3
0.279338 0.277504 0.834518 10131871 3
0.209401 0.289234 0.828867 10197666 3
0.216700 0.281050 0.805413 10329252 3
0.241749 0.279433 0.800780 10131871 3
0.256943 0.281676 0.807208 10197666 3
0.270736 0.282238 0.808818 9737115 3
0.292497 0.290666 0.832970 9934492 3
0.242151 0.293068 0.802112 10460836 3
0.255141 0.292861 0.801546 10460584 3
0.104896 0.273402 0.864888 10394015 3
0.118363 0.271718 0.859559 10065048 3
0.130460 0.267582 0.846478 10460578 3
0.144457 0.267765 0.847056 9999772 3
0.162050 0.273997 0.866770 10000284 3
0.180236 0.280144 0.886214 10066077 3
0.183084 0.263313 0.832970 10131613 3
0.103715 0.284365 0.855151 10197406 3
0.116522 0.281386 0.846193 10328990 3
0.129802 0.280062 0.842211 10328992 3
0.144457 0.281673 0.847056 10460323 3
0.159986 0.284557 0.855729 10460835 3
0.170798 0.279263 0.839807 10263456 3
0.182116 0.275524 0.828563 10263199 3
0.197159 0.277549 0.834655 10460323 3
0.116692 0.295711 0.847428 10197404 3
0.129152 0.292417 0.837991 10460323 3
0.144407 0.295479 0.846765 10592424 3
0.159117 0.296984 0.851078 10460836 3
0.196761 0.290666 0.832970 10262944 3
-0.583963 0.252009 0.797213 7960692 3
-0.566354 0.250014 0.790901 7236971 3
-0.551456 0.249150 0.788169 7828338 3
-0.535324 0.247674 0.783499 7828338 3
-0.510801 0.242147 0.766015 6972518 3
-0.569049 0.264251 0.794665 5986904 3
-0.551456 0.262091 0.788169 6841443 3
-0.535487 0.260618 0.783737 6315099 3
-0.511752 0.255198 0.767440 6249308 3
-0.566176 0.275899 0.790653 7697522 3
-0.546821 0.272720 0.781543 7039592 3
-0.531828 0.271616 0.778381 7828338 3
-0.506784 0.265199 0.759991 8025719 3
-0.590279 0.287973 0.788169 7631729 3
-0.574092 0.286354 0.783737 7434096 3
-0.554968 0.283162 0.775001 7237228 3
-0.537919 0.280904 0.768821 7500143 3
-0.524014 0.280218 0.766944 7631729 3
-0.595729 0.297177 0.778381 7368557 3
-0.569006 0.290069 0.759763 8158073 3
-0.550520 0.286936 0.751558 7829365 3
-0.522334 0.278488 0.729428 7763315 3
-0.509613 0.278082 0.728365 8092280 3
-0.591959 0.283655 0.712328 7500141 3
-0.587671 0.287276 0.721422 6974310 3
-0.576568 0.299988 0.753345 7894901 3
-0.553232 0.294157 0.738702 8223866 3
-0.528163 0.287122 0.721037 8553088 3
-0.509864 0.283530 0.712014 7894899 3
-0.500305 0.284743 0.715061 8750210 3
-0.580263 0.295350 0.712328 7763315 3
-0.577017 0.299740 0.722914 7566193 3
0.811467 0.349439 1.165987 7236979 3
0.819726 0.337090 1.124782 7105392 3
0.845637 0.340084 1.134771 7171698 3
0.864269 0.340084 1.134771 6579561 3
0.882901 0.340084 1.134771 6513768 3
-0.008045 0.278802 0.798972 10263457 3
-0.047224 0.290833 0.795997 10132384 3
-0.033249 0.283128 0.774909 10395302 3
-0.020198 0.278600 0.762516 10526631 3
-0.007506 0.272345 0.745395 10526629 3
-0.068930 0.285543 0.747907 10394530 3
-0.055170 0.278082 0.728365 10460836 3
-0.044813 0.288390 0.755366 10263459 3
-0.031679 0.281882 0.738320 10592424 3
-0.018964 0.273334 0.715930 10724010 3
-0.007167 0.271761 0.711811 10526629 3
-0.090208 0.287367 0.721652 10592421 3
-0.078671 0.288512 0.724526 10657702 3
-0.043664 0.293077 0.735991 10592424 3
-0.030719 0.285089 0.715930 10987182 3
-0.018623 0.279969 0.703072 10987182 3
-0.042599 0.297722 0.718048 10592424 3
-0.030167 0.291513 0.703072 10329252 3
-0.096782 0.272513 0.684349 10658215 3
-0.007039 0.278387 0.699100 11052973 3
-0.018518 0.289866 0.699100 10921389 3
-0.007039 0.289866 0.699100 10658215 3
-0.006997 0.299511 0.694847 10987180 3
0.005298 0.250053 0.834362 10131870 3
0.019269 0.253631 0.846301 9737112 3
0.034309 0.262382 0.875501 9868698 3
0.005251 0.261407 0.826942 10328992 3
0.019187 0.266382 0.842680 10328992 3
0.033352 0.269037 0.851078 10329250 3
0.048049 0.273147 0.864081 10000798 3
0.062662 0.275015 0.869991 10198177 3
0.076893 0.274826 0.869394 10460835 3
0.090259 0.272087 0.860728 10460578 3
0.005179 0.271219 0.815617 10460578 3
0.018842 0.275186 0.827547 10855336 3
0.032642 0.276989 0.832970 10395043 3
0.089127 0.282629 0.849931 10460578 3
0.018452 0.282795 0.810415 10657702 3
0.031962 0.284610 0.815617 9407635 3
0.045682 0.286670 0.821519 10263199 3
0.059364 0.287606 0.824202 10658214 3
0.073045 0.288192 0.825882 10131870 3
0.089922 0.299228 0.857508 10724007 3
0.057954 0.293989 0.804634 10460578 3
0.072427 0.299198 0.818892 10526628 3
-0.395276 0.252153 0.841367 8486786 3
-0.377654 0.249636 0.832970 8552579 3
-0.376190 0.262292 0.829741 9210509 3
-0.361397 0.261445 0.827064 9210509 3
-0.332260 0.270905 0.856989 9341579 3
-0.395276 0.279781 0.841367 9276300 3
-0.370928 0.272056 0.818134 9342095 3
-0.354898 0.270079 0.812191 9276302 3
-0.346614 0.274073 0.824202 9736853 3
-0.398261 0.285824 0.819095 8881542 3
-0.392867 0.295219 0.808001 8947335 3
-0.494805 0.260929 0.870652 8223094 3
-0.489509 0.265816 0.886957 7039590 3
-0.479171 0.268180 0.894848 7763313 3
-0.456722 0.263702 0.879905 8289659 3
-0.429833 0.256283 0.855151 8815749 3
-0.411437 0.253599 0.846193 8618370 3
-0.493079 0.274264 0.867615 7697268 3
-0.485540 0.278105 0.879766 8092026 3
-0.469286 0.277037 0.876387 8420991 3
-0.450650 0.274451 0.868206 8815749 3
-0.435781 0.283320 0.896262 9078921 3
-0.410040 0.275901 0.872794 9868437 3
-0.493923 0.289003 0.869100 8552577 3
-0.485540 0.292550 0.879766 9013128 3
-0.469123 0.291326 0.876084 9144714 3
-0.449107 0.287717 0.865233 8552577 3
-0.423186 0.279967 0.841927 9013128 3
-0.409362 0.279967 0.841927 9013128 3
-0.484507 0.297492 0.852532 8684163 3
-0.465926 0.294594 0.844227 8552577 3
-0.446186 0.290763 0.833249 8881542 3
-0.434244 0.291932 0.836598 8947335 3
-0.414141 0.287512 0.823933 8749956 3
-0.490311 0.298002 0.815617 8289918 3
-0.420481 0.295980 0.810084 8815749 3
-0.407837 0.296458 0.811391 8552577 3
0.433404 0.246076 0.868684 8026495 3
0.416296 0.250063 0.834394 8618632 3
0.437120 0.268133 0.848219 8684425 3
0.466711 0.277444 0.877675 8618631 3
0.449559 0.281129 0.845420 8750217 3
0.473669 0.287334 0.864081 8684424 3
0.498869 0.293820 0.883585 8618631 3
0.463440 0.295010 0.845420 8816010 3
0.342487 0.304790 1.075952 9013389 3
0.319889 0.301179 1.004956 9210769 3
0.349865 0.313244 1.045215 9144976 3
0.371550 0.317105 1.058097 9210769 3
0.381886 0.311368 1.038954 9079185 3
-0.670368 0.242910 0.857508 7236199 3
-0.653604 0.241917 0.854001 6578269 3
-0.642209 0.242910 0.857508 6381662 3
-0.630271 0.243738 0.860431 7500143 3
-0.677794 0.244435 0.815617 6183513 3
-0.690062 0.259098 0.864542 6446683 3
-0.658187 0.252320 0.841927 7038820 3
-0.635037 0.248668 0.829741 5788753 3
-0.612845 0.245239 0.818300 7565934 3
-0.600594 0.257257 0.858399 7302764 3
-0.698704 0.255678 0.808818 7038309 3
-0.681648 0.269961 0.854001 5196871 3
-0.664894 0.268856 0.850506 6315352 3
-0.632160 0.261103 0.825982 6710110 3
-0.602407 0.254269 0.804362 7631727 3
-0.685343 0.268926 0.808723 7564136 3
-0.670531 0.273720 0.823140 7368557 3
-0.645584 0.268958 0.808818 6381145 3
-0.655999 0.279037 0.839128 6841696 3
-0.634424 0.275649 0.828940 7433578 3
-0.607671 0.269813 0.811391 7565934 3
-0.644892 0.287856 0.824920 6578269 3
-0.629820 0.287160 0.822924 8025715 3
-0.601632 0.280322 0.803328 7302764 3
-0.627377 0.293215 0.802516 7630957 3
-0.616032 0.294089 0.804909 7301994 3
-0.717967 0.244738 0.863959 6447455 3
-0.702334 0.249258 0.879918 6710625 3
-0.723186 0.246212 0.821544 6315099 3
-0.762351 0.269603 0.899595 6249306 3
-0.714568 0.262892 0.877201 5722960 3
-0.731360 0.257827 0.815617 4604481 3
-0.712880 0.256000 0.809836 4670015 3
-0.708370 0.264237 0.835895 5985875 3
-0.730099 0.277723 0.878558 6709598 3
-0.700908 0.271993 0.860431 6709855 3
-0.726177 0.269296 0.809836 5591376 3
-0.705582 0.266539 0.801546 6183254 3
-0.705867 0.282452 0.849399 7565164 3
1.103726 0.307239 1.151330 2697513 3
1.106133 0.332550 1.173948 4868682 3
1.103849 0.326179 1.151459 4342338 3
1.100701 0.319772 1.128841 3750203 3
1.103849 0.345085 1.151459 4934988 3
0.956067 0.342365 1.282958 5460567 3
0.961848 0.337010 1.262890 5131345 3
0.902060 0.342900 1.210485 6513255 3
0.917455 0.341234 1.204603 6644841 3
0.937233 0.341234 1.204603 5328981 3
0.523191 0.254692 0.954419 8026494 3
0.541661 0.256015 0.959378 7631736 3
0.571418 0.262448 0.983482 7894908 3
0.501641 0.267231 0.943364 8355459 3
0.517131 0.267231 0.943364 8487045 3
0.532620 0.267231 0.943364 7697529 3
0.557413 0.271768 0.959378 7829115 3
0.592785 0.281070 0.992218 7894908 3
0.513328 0.280641 0.936427 8552839 3
0.532620 0.282720 0.943364 8355460 3
0.552704 0.285091 0.951273 8223874 3
0.570471 0.286168 0.954868 8223873 3
0.586149 0.286168 0.954868 7960701 3
0.520087 0.291193 0.921167 7960701 3
0.535212 0.291193 0.921167 8487045 3
0.550337 0.291193 0.921167 8092288 3
0.560941 0.288865 0.913803 8223874 3
0.593080 0.297459 0.940989 7434357 3
0.429196 0.264362 0.990657 8026748 3
0.443933 0.263455 0.987258 8421252 3
0.400058 0.283028 0.999130 8815500 3
0.407963 0.277252 0.978740 8815753 3
0.424033 0.277252 0.978740 8882057 3
0.440103 0.277252 0.978740 8355459 3
0.456173 0.277252 0.978740 8421253 3
0.468819 0.275242 0.971643 8223874 3
0.482578 0.265266 0.936427 7894909 3
0.405362 0.280406 0.935643 8881803 3
0.415756 0.277095 0.924594 9210769 3
0.474713 0.276068 0.921167 8355460 3
0.489838 0.276068 0.921167 8684425 3
0.499583 0.288091 0.911354 8421252 3
0.078848 0.292132 1.094720 8947337 3
0.096183 0.290203 1.087489 9276302 3
0.058141 0.296184 1.045573 9802648 3
0.073804 0.290269 1.024690 9736855 3
0.092570 0.296488 1.046646 9605269 3
-0.023456 0.236308 0.885527 9605267 3
-0.023094 0.246977 0.871864 10065820 3
-0.008570 0.241089 0.851078 9671062 3
-0.067907 0.268680 0.896515 9736855 3
-0.051812 0.261732 0.873333 9671573 3
-0.037524 0.262096 0.874548 9737112 3
-0.022934 0.259476 0.865805 10131613 3
-0.008504 0.253093 0.844505 9670807 3
-0.094467 0.275015 0.869991 10131611 3
-0.080073 0.274642 0.868809 9671062 3
-0.064509 0.269222 0.851663 10197663 3
-0.051100 0.272278 0.861332 9803159 3
-0.037524 0.276456 0.874548 10263456 3
-0.022370 0.266970 0.844539 10262944 3
-0.008387 0.263313 0.832970 10131358 3
-0.091115 0.279037 0.839128 10197404 3
-0.078175 0.282060 0.848219 10460578 3
-0.064487 0.283107 0.851369 9671319 3
-0.050683 0.284084 0.854307 10197917 3
-0.035229 0.273022 0.821040 10197663 3
-0.021604 0.271219 0.815617 10197153 3
-0.008213 0.271219 0.815617 10262944 3
-0.088562 0.284610 0.815617 10263199 3
-0.076270 0.288773 0.827547 9605014 3
-0.063094 0.290666 0.832970 9868699 3
-0.048709 0.286502 0.821040 10000797 3
-0.034996 0.284610 0.815617 10198177 3
-0.021301 0.280617 0.804173 10329252 3
-0.087649 0.294930 0.807208 10394785 3
-0.074396 0.294930 0.807208 10131358 3
-0.061142 0.294930 0.807208 10526629 3
-0.353916 0.309035 1.158059 8158334 3
-0.338283 0.312155 1.169752 8223614 3
-0.323453 0.316436 1.185794 9144716 3
-0.301840 0.314204 1.177432 8749956 3
-0.319325 0.312791 1.104195 9342095 3
-0.314808 0.326927 1.154100 9342095 3
-0.514196 0.234664 0.879366 8025717 3
-0.510429 0.239675 0.898143 7433580 3
-0.516150 0.250049 0.882708 8420475 3
-0.511292 0.254852 0.899662 8157303 3
-0.591125 0.241850 0.806990 7763315 3
-0.579164 0.242389 0.808790 7631729 3
-0.551468 0.267614 0.892960 7762543 3
-0.533961 0.266196 0.888228 7959665 3
-0.503992 0.258311 0.861916 8420473 3
-0.518871 0.265591 0.840178 6709857 3
-0.525557 0.276361 0.874247 7630959 3
-0.503992 0.272463 0.861916 7829108 3
-0.593594 0.269471 0.810361 7565936 3
-0.509500 0.274340 0.825004 7433580 3
-0.517459 0.286236 0.860776 8355452 3
-0.505903 0.287701 0.865185 8223612 3
-0.590538 0.281320 0.806189 6842213 3
-0.501089 0.283133 0.811384 8289659 3
-0.501954 0.291368 0.834984 7631729 3
0.410368 0.292672 1.168645 8683912 3
0.425214 0.289713 1.156830 8289409 3
0.437740 0.285494 1.139986 7894651 3
0.454369 0.284188 1.134771 8420740 3
0.473001 0.284188 1.134771 8026237 3
0.431458 0.299846 1.123626 8223616 3
0.007892 0.311254 1.242845 9144714 3
0.028298 0.311254 1.242845 9210507 3
0.048181 0.307910 1.229494 9276302 3
0.067751 0.305133 1.218402 9407888 3
0.027561 0.323025 1.210485 9539474 3
-0.175277 0.310390 1.239395 9407888 3
-0.161288 0.323133 1.290279 9407886 3
-0.139377 0.321459 1.283594 9342095 3
-0.177566 0.335058 1.255579 9605267 3
-0.152072 0.324644 1.216554 9671058 3
-0.176623 0.353786 1.248913 9671062 3
-0.252412 0.331518 1.323759 8420991 3
-0.293331 0.350207 1.312346 8815749 3
-0.264906 0.370737 1.389280 8749956 3
-0.233796 0.358029 1.341657 9671058 3
-0.236516 0.384479 1.357267 9473681 3
-0.207071 0.371628 1.311899 9605267 3
-0.511664 0.225472 0.900316 7170410 3
-0.505416 0.244381 0.915780 7829108 3
-0.589940 0.270600 0.955256 8157303 3
-0.552967 0.260568 0.919844 8288889 3
-0.507460 0.260467 0.919484 8026487 3
-0.598925 0.283117 0.944689 7630959 3
-0.838220 0.307240 1.226815 6513759 3
-0.819863 0.307910 1.229494 6579552 3
-0.803623 0.309430 1.235562 6974056 3
-0.839641 0.336012 1.259153 7237482 3
-0.813247 0.333666 1.250359 7500400 3
-0.837501 0.355777 1.255945 7368557 3
-0.810029 0.352794 1.245411 7565936 3
-0.764712 0.250230 0.999174 7171178 3
-0.742281 0.248215 0.991129 5328206 3
-0.762159 0.254812 0.954868 6447453 3
-0.746481 0.254812 0.954868 6644834 3
-0.730803 0.254812 0.954868 6447455 3
-0.715125 0.254812 0.954868 7104615 3
-0.711468 0.259192 0.971280 7038824 3
-0.789926 0.264050 0.932133 5657939 3
-0.740363 0.257459 0.908866 6579039 3
-0.786220 0.272759 0.910127 6249308 3
0.302641 0.280338 1.197937 8420993 3
0.319193 0.277627 1.186352 8749190 3
0.338671 0.277627 1.186352 8355202 3
0.358150 0.277627 1.186352 7763065 3
0.381623 0.280564 1.198900 8158080 3
0.338808 0.281061 1.122284 8289409 3
0.370283 0.291327 1.163274 8421252 3
0.391180 0.292672 1.168645 8421253 3
0.357235 0.299488 1.122284 8487045 3
-0.797082 0.249065 1.064302 5855064 3
-0.758521 0.242329 1.035515 7171178 3
-0.738972 0.252648 1.008828 6051929 3
-0.741519 0.259331 1.035515 6710627 3
-0.732986 0.273153 1.023599 6842213 3
-0.727592 0.294581 1.039911 7302764 3
1.453162 0.347710 1.597943 3750203 3
1.449811 0.366468 1.565984 3289650 3
1.475523 0.366468 1.565984 4013373 3
1.480997 0.361528 1.544874 3618617 3
1.418772 0.377096 1.505754 3420723 3
0.416017 0.270441 1.242845 7368565 3
0.436424 0.270441 1.242845 7631736 3
0.456830 0.270441 1.242845 7960701 3
0.492883 0.279308 1.283594 6710635 3
0.407548 0.284927 1.217543 7894911 3
0.429605 0.286303 1.223425 7763323 3
0.449692 0.286303 1.223425 7829115 3
0.469779 0.286303 1.223425 8158080 3
0.495213 0.289428 1.236776 8223361 3
0.099643 0.245148 1.126607 8881546 3
0.080353 0.261075 1.115621 9342097 3
0.098273 0.260022 1.111123 9078925 3
0.081046 0.281799 1.125230 9605267 3
0.097537 0.276183 1.102806 9276302 3
0.008150 0.279308 1.283594 8355198 3
0.007932 0.292314 1.249109 9539472 3
0.028612 0.294073 1.256626 8551809 3
0.049393 0.294962 1.260424 8880774 3
0.067694 0.284887 1.217374 9078925 3
0.122549 0.235108 1.168645 8618885 3
0.159733 0.233366 1.159988 8552838 3
0.178778 0.233366 1.159988 8158080 3
0.196370 0.231650 1.151459 8223873 3
0.118140 0.245148 1.126607 8553092 3
0.138633 0.248727 1.143054 8882057 3
0.157401 0.248727 1.143054 9144718 3
0.178778 0.252412 1.159988 8289666 3
0.194936 0.248727 1.143054 8684424 3
0.117296 0.261763 1.118560 8553092 3
0.136333 0.263058 1.124093 9211022 3
0.155136 0.263646 1.126607 9078925 3
0.173712 0.263765 1.127118 8881546 3
0.194469 0.266853 1.140312 8684424 3
0.115644 0.276183 1.102806 9407888 3
0.133751 0.276183 1.102806 8815753 3
0.151858 0.276183 1.102806 7565686 3
0.169965 0.276183 1.102806 9210768 3
0.189425 0.278169 1.110735 9473940 3
0.169965 0.294290 1.102806 9605269 3
0.187596 0.293544 1.100011 9276561 3
-0.789163 0.305868 1.520373 6316128 3
-0.764200 0.305868 1.520373 6644580 3
-0.746484 0.308867 1.535279 6709859 3
-0.714274 0.305868 1.520373 7105644 3
-0.732129 0.327650 1.505754 5920343 3
-1.374926 0.302927 1.505754 5066061 3
-1.350203 0.302927 1.505754 5329233 3
-1.325480 0.302927 1.505754 4604997 3
-1.374926 0.327650 1.505754 4605510 3
-1.350203 0.327650 1.505754 3947580 3
-1.351470 0.334075 1.535279 4933962 3
-1.326263 0.334075 1.535279 5526099 3
-1.301055 0.334075 1.535279 3881528 3
1.510219 0.301388 1.631234 4934475 3
1.510219 0.328171 1.631234 4079166 3
1.569705 0.335153 1.665941 4408131 3
1.597058 0.335153 1.665941 4868684 3
1.590569 0.328171 1.631234 4802891 3
1.510219 0.354954 1.631234 3223857 3
1.537003 0.354954 1.631234 3355443 3
1.597058 0.362507 1.665941 3815996 3
1.590569 0.354954 1.631234 4671305 3
1.032227 0.226041 1.223425 4605001 3
1.069018 0.229629 1.242845 4736585 3
1.028206 0.250035 1.242845 4933966 3
1.032227 0.246128 1.223425 3815485 3
1.069018 0.250035 1.242845 4341827 3
1.044790 0.274803 1.262890 3683899 3
1.048612 0.270441 1.242845 4341829 3
1.111160 0.425489 2.302918 5657687 3
1.148972 0.425489 2.302918 4999757 3
1.186784 0.425489 2.302918 5328724 3
1.111160 0.463300 2.302918 6118238 3
1.148972 0.463300 2.302918 6249826 3
1.186784 0.463300 2.302918 5986654 3
-0.197745 0.209661 1.134771 7763063 3
-0.194920 0.225032 1.118560 7763063 3
-0.176554 0.225032 1.118560 8289407 3
-0.158188 0.225032 1.118560 8420993 3
-0.139823 0.225032 1.118560 8158332 3
-0.121457 0.225032 1.118560 8289918 3
-0.103091 0.225032 1.118560 8092539 3
-0.193537 0.241671 1.110627 8486786 3
-0.175302 0.241671 1.110627 8881544 3
-0.158188 0.243397 1.118560 8749958 3
-0.139823 0.243397 1.118560 9078921 3
-0.121457 0.243397 1.118560 8749956 3
-0.102360 0.241671 1.110627 8815751 3
-0.193915 0.260414 1.112795 8947337 3
-0.174067 0.258076 1.102806 9144716 3
-0.156721 0.259334 1.108183 8881544 3
-0.139513 0.261183 1.116081 9013130 3
-0.121457 0.261763 1.118560 9144716 3
-0.245690 0.219191 1.186352 7302510 3
-0.221185 0.214320 1.159988 7894649 3
-0.282508 0.236875 1.177432 7500402 3
-0.263175 0.236875 1.177432 8158332 3
-0.243843 0.236875 1.177432 8223612 3
-0.221185 0.233366 1.159988 8355200 3
-0.282508 0.256208 1.177432 8224125 3
-0.261211 0.254296 1.168645 8026746 3
-0.242023 0.254296 1.168645 8355198 3
-0.216376 0.246925 1.134771 8420993 3
-0.278322 0.271458 1.159988 8750469 3
-0.257966 0.270086 1.154124 8750469 3
-0.238464 0.269462 1.151459 8881542 3
-0.217371 0.266777 1.139986 8947337 3
-0.280399 0.292672 1.168645 9276300 3
-0.259881 0.291181 1.162694 8815749 3
-0.240231 0.290504 1.159988 8947335 3
-0.207091 0.297621 1.188408 8749956 3
-0.365218 0.233332 1.262890 7303023 3
-0.308805 0.222563 1.204603 7631475 3
-0.379828 0.250035 1.242845 7237230 3
-0.359421 0.250035 1.242845 7434611 3
-0.339015 0.250035 1.242845 7697783 3
-0.368141 0.262120 1.204603 7763574 3
-0.348362 0.262120 1.204603 7960955 3
-0.336346 0.268312 1.233058 7829369 3
1.125143 0.216082 1.283594 4737098 3
1.125143 0.237158 1.283594 4802376 3
1.146219 0.237158 1.283594 4539204 3
1.106996 0.254068 1.262890 4407620 3
1.104068 0.279308 1.283594 4670794 3
1.125143 0.279308 1.283594 4670794 3
0.176753 0.216082 1.283594 6908013 3
0.197829 0.216082 1.283594 6513255 3
0.155678 0.237158 1.283594 7368818 3
0.173902 0.233332 1.262890 7302771 3
0.185654 0.222563 1.204603 7500150 3
0.146098 0.242342 1.204603 8487299 3
-0.884262 0.281617 1.294202 6118488 3
-0.848979 0.277038 1.273158 6645091 3
-0.841763 0.281617 1.294202 6381660 3
-0.859240 0.287390 1.228068 5526351 3
-0.862012 0.295246 1.261638 5855315 3
-0.829180 0.290993 1.243466 6579552 3
-0.819761 0.294950 1.260375 6842213 3
-0.812568 0.299933 1.281669 6842213 3
1.535500 0.313037 2.060506 4539465 3
1.501668 0.346869 2.060506 4868430 3
1.535500 0.346869 2.060506 3750203 3
1.569331 0.346869 2.060506 4210241 3
1.569331 0.380700 2.060506 4144448 3
-1.456338 0.308972 2.033746 5197388 3
-1.441669 0.313037 2.060506 4736583 3
-1.456338 0.342364 2.033746 5000520 3
-1.441669 0.346869 2.060506 6512994 3
-1.426609 0.351494 2.087979 5723480 3
-1.456338 0.375756 2.033746 4736834 3
-1.460891 0.385776 2.087979 6052697 3
-1.452016 0.301150 1.982258 4868423 3
-1.430249 0.321488 1.909737 5789273 3
-1.452016 0.333697 1.982258 5328974 3
-1.466005 0.361665 1.957480 4868171 3
-1.433866 0.361665 1.957480 5723732 3
-1.288369 0.226579 1.491413 4473413 3
-1.241090 0.241854 1.436683 4604483 3
-1.251958 0.248698 1.477344 4802376 3
-1.239394 0.251067 1.491413 4868169 3
-1.241090 0.265442 1.436683 3223346 3
-1.240258 0.270404 1.463537 4736069 3
-1.227702 0.272955 1.477344 4604483 3
-1.203445 0.272955 1.477344 5328206 3
-1.252581 0.291708 1.449985 5065548 3
-1.240258 0.294434 1.463537 4933446 3
-1.204967 0.291708 1.449985 4933446 3
-1.378500 0.237908 1.565984 4341827 3
-1.340481 0.240312 1.581802 4473415 3
-1.351470 0.258451 1.535279 5591894 3
-1.374926 0.278204 1.505754 5000270 3
-1.350203 0.278204 1.505754 4473926 3
-1.325480 0.278204 1.505754 3552311 3
1.105874 0.321510 2.372703 4868431 3
1.144832 0.321510 2.372703 5262931 3
1.144832 0.360467 2.372703 4736587 3
1.183789 0.360467 2.372703 5197134 3
1.111160 0.387677 2.302918 5526103 3
1.148972 0.387677 2.302918 5723478 3
-0.180893 0.225741 1.665941 6645093 3
-0.177125 0.247821 1.631234 7434609 3
-0.150342 0.247821 1.631234 6974058 3
-0.126187 0.253094 1.665941 7105646 3
-0.177125 0.274605 1.631234 7697268 3
-0.150342 0.274605 1.631234 7763574 3
-0.123558 0.274605 1.631234 7829369 3
-0.290306 0.225741 1.665941 6579302 3
-0.262953 0.225741 1.665941 6381923 3
-0.238133 0.228168 1.683854 6776166 3
-0.210486 0.228168 1.683854 6381669 3
-0.284258 0.247821 1.631234 7566197 3
-0.262953 0.253094 1.665941 7566197 3
-0.235600 0.253094 1.665941 7631988 3
-0.206054 0.250430 1.648404 7302514 3
-0.284258 0.274605 1.631234 7368305 3
-0.262953 0.280447 1.665941 7960955 3
-0.238133 0.283463 1.683854 7697781 3
-0.210486 0.283463 1.683854 7763065 3
-0.889973 0.212197 1.565984 5329233 3
-0.864261 0.212197 1.565984 4604997 3
-0.830247 0.210096 1.550479 5130573 3
-0.804790 0.210096 1.550479 5197134 3
-0.881162 0.235553 1.550479 5394767 3
-0.855704 0.235553 1.550479 5591892 3
-0.822107 0.233244 1.535279 6183515 3
-0.881162 0.261010 1.550479 6513248 3
-0.864261 0.263620 1.565984 5921111 3
-0.822107 0.258451 1.535279 5723478 3
-0.864052 0.280905 1.520373 5986904 3
-0.839089 0.280905 1.520373 6579041 3
-0.814126 0.280905 1.520373 6184542 3
-1.406632 0.216527 1.597943 4407879 3
0.835163 0.223295 2.174978 5395285 3
0.870874 0.223295 2.174978 4802376 3
0.882083 0.217260 2.116195 4604999 3
0.835163 0.259006 2.174978 5526873 3
0.847337 0.252006 2.116195 4737098 3
0.812591 0.286752 2.116195 5132115 3
0.882083 0.286752 2.116195 5263188 3
-1.362125 0.226440 2.205611 3222576 3
-1.364344 0.233004 2.269542 4274753 3
-1.327080 0.233004 2.269542 3683127 3
-1.362125 0.262654 2.205611 5197388 3
-1.344853 0.266407 2.237120 4868171 3
-1.308122 0.266407 2.237120 4671303 3
-1.362125 0.298868 2.205611 5592146 3
-1.395251 0.220237 2.145184 3880760 3
-1.360029 0.220237 2.145184 2564900 3
-1.395251 0.255458 2.145184 3683127 3
-1.360029 0.255458 2.145184 4933962 3
-1.395251 0.290680 2.145184 4538690 3
-1.341650 0.286752 2.116195 3552563 3
-1.495174 0.214364 2.087979 4276032 3
-1.460891 0.214364 2.087979 3091244 3
-1.475501 0.245375 2.060506 4539204 3
-1.460891 0.248646 2.087979 4604229 3
-1.470631 0.272047 2.007672 4934473 3
-1.456338 0.275580 2.033746 5000009 3
-1.441669 0.279206 2.060506 5393745 3
-1.509332 0.211543 2.060506 3355443 3
-1.563739 0.248646 2.087979 4539717 3
-1.509332 0.245375 2.060506 4737094 3
-1.536559 0.272047 2.007672 5395026 3
-1.503595 0.272047 2.007672 4671303 3
1.212561 0.118858 1.702157 5131852 3
1.240508 0.118858 1.702157 5460819 3
1.268456 0.118858 1.702157 5855577 3
1.210938 0.150068 1.739982 4737094 3
1.212561 0.146805 1.702157 4144959 3
1.240508 0.146805 1.702157 4210241 3
1.210938 0.178636 1.739982 4210752 3
1.212561 0.174753 1.702157 5000270 3
1.240508 0.174753 1.702157 4736587 3
0.835163 0.116163 2.174978 3618613 3
0.870874 0.116163 2.174978 3289391 3
0.882083 0.113023 2.116195 4012860 3
0.835163 0.151873 2.174978 3947578 3
0.847337 0.147769 2.116195 4671044 3
0.882083 0.147769 2.116195 4012860 3
0.835163 0.187584 2.174978 4540230 3
0.847337 0.182515 2.116195 4210239 3
0.882083 0.182515 2.116195 4407618 3
-0.599175 0.124831 2.337290 3617075 3
-0.514740 0.122996 2.302918 4275266 3
-0.599175 0.163207 2.337290 4143932 3
-0.590363 0.198619 2.302918 5196620 3
-0.514740 0.198619 2.302918 3947069 3
-1.289698 0.117799 2.205611 4734273 3
-1.271391 0.119481 2.237120 4076854 3
-1.289698 0.154013 2.205611 4011063 3
-1.271391 0.156213 2.237120 2564385 3
-1.253484 0.190227 2.205611 3420207 3
-1.360029 0.114571 2.145184 2893354 3
-1.343207 0.116163 2.174978 3353903 3
-1.307496 0.116163 2.174978 4405821 3
-1.376396 0.147769 2.116195 3222830 3
-1.343207 0.151873 2.174978 4275005 3
-1.343207 0.187584 2.174978 3682870 3
-1.486051 0.116163 2.174978 2762277 3
-1.445888 0.147769 2.116195 4275516 3
-1.450340 0.151873 2.174978 3880247 3
-1.465694 0.185015 2.145184 2235935 3
-1.450340 0.187584 2.174978 4209212 3
-1.495174 0.111516 2.087979 3683379 3
-1.460891 0.111516 2.087979 2696484 3
-1.489730 0.142012 2.033746 3618102 3
-1.456338 0.142012 2.033746 3617586 3
-1.422946 0.142012 2.033746 3880758 3
-1.489730 0.175404 2.033746 2763306 3
-1.475501 0.177712 2.060506 3025449 3
-1.441669 0.177712 2.060506 2104347 3
-1.785629 0.119481 2.237120 3223344 3
-1.748897 0.119481 2.237120 3946553 3
-1.712166 0.119481 2.237120 3551795 3
-1.760479 0.154013 2.205611 4276032 3
-1.748897 0.156213 2.237120 4143932 3
-1.796693 0.190227 2.205611 4012860 3
-1.748897 0.192944 2.237120 3618102 3
1.089543 0.359062 1.198097 5263188 3
1.081948 0.350236 1.168645 4013632 3
1.090003 0.346695 1.156830 5198160 3
1.028226 0.363991 1.151459 6250337 3
1.047131 0.363991 1.151459 5723739 3
1.066037 0.363991 1.151459 6184544 3
1.084943 0.363991 1.151459 5000270 3
1.027349 0.375663 1.129705 6710634 3
1.061209 0.381163 1.146244 6250337 3
1.012736 0.388604 1.113637 6842220 3
1.035579 0.390322 1.118560 6644841 3
-1.486051 0.223295 2.174978 2499107 3
-1.450340 0.223295 2.174978 3551284 3
-1.465694 0.255458 2.145184 3485750 3
-1.430472 0.255458 2.145184 3748663 3
-1.445888 0.286752 2.116195 4472645 3
-1.411142 0.286752 2.116195 3090990 3
0.914921 0.100666 4.893701 3355445 3
0.995270 0.100666 4.893701 3223606 3
0.914921 0.181016 4.893701 4079168 3
-0.264228 0.249005 0.681515 9867923 3
-0.250768 0.246772 0.675402 9736337 3
-0.279425 0.253674 0.664435 9999509 3
-0.269734 0.254826 0.667452 9473165 3
-0.259463 0.255502 0.669224 9802644 3
-0.249463 0.256518 0.671886 9539472 3
-0.278989 0.264171 0.663400 9867923 3
-0.267805 0.263883 0.662678 9275786 3
-0.257264 0.264232 0.663553 9473679 3
-0.246434 0.264302 0.663729 10131609 3
-0.237871 0.266922 0.670309 9933716 3
-0.235219 0.276751 0.694991 9867923 3
-0.294003 0.289866 0.699100 9473681 3
-0.277020 0.284218 0.685480 9605267 3
-0.257264 0.275127 0.663553 9868439 3
-0.244945 0.273537 0.659719 9407888 3
-0.234235 0.273679 0.660060 10065818 3
-0.225669 0.276462 0.666773 10000025 3
-0.223897 0.288276 0.695267 10460576 3
-0.213653 0.289866 0.699100 10328990 3
-0.202174 0.289866 0.699100 10328992 3
-0.292214 0.299511 0.694847 10000025 3
-0.278335 0.296876 0.688735 9605269 3
-0.264699 0.294288 0.682729 9736853 3
-0.246827 0.286553 0.664786 9868439 3
-0.231671 0.281402 0.652836 10000538 3
-0.222692 0.283618 0.657977 10329503 3
-0.210675 0.281993 0.654207 10328990 3
-0.200562 0.282879 0.656263 10394783 3
-0.210123 0.291968 0.652493 10526116 3
-0.200562 0.293655 0.656263 10328992 3
-0.828135 0.010158 2.446850 2039074 3
-0.868310 0.050333 2.446850 2894383 3
-0.828135 0.050333 2.446850 2433830 3
-0.868310 0.090508 2.446850 3354934 3
-0.828135 0.090508 2.446850 2763306 3
-1.002466 0.011209 2.699973 1973277 3
-1.091128 0.055540 2.699973 3748661 3
-1.046797 0.055540 2.699973 4341309 3
-1.097610 0.096542 2.609974 3024168 3
-1.054757 0.096542 2.609974 4076343 3
-1.011904 0.096542 2.609974 3485741 3
-1.519986 0.036195 1.759533 1775900 3
0.829048 0.326750 0.982612 6315876 3
0.826617 0.348663 0.999174 7105646 3
0.829048 0.342883 0.982612 7434611 3
0.841852 0.341532 0.978740 6710886 3
0.832399 0.360467 0.986583 7566197 3
0.841852 0.357602 0.978740 7303023 3
0.227986 0.331131 0.798625 10592424 3
0.235516 0.323464 0.780134 10724267 3
0.224912 0.339603 0.787858 10724010 3
0.223610 0.319273 0.740695 10921646 3
0.204340 0.332046 0.715796 11184561 3
-0.164131 0.300369 0.860776 9868698 3
-0.150872 0.302118 0.865789 9868699 3
-0.137503 0.303988 0.871149 9868699 3
-0.177219 0.312658 0.855729 10065820 3
-0.163169 0.312658 0.855729 10197664 3
-0.102463 0.300406 0.724522 10855596 3
-0.102236 0.311609 0.722914 10921389 3
-0.110536 0.313362 0.700305 10460838 3
-0.100042 0.316538 0.707402 10789801 3
-0.100330 0.329099 0.709443 11052460 3
-0.382401 0.302951 0.760785 9013128 3
-0.373242 0.305680 0.767639 9802644 3
-0.390712 0.302533 0.729651 9276302 3
-0.384805 0.307384 0.741351 8947337 3
-0.382401 0.315442 0.760785 9539474 3
-0.373242 0.318284 0.767639 9144716 3
-0.351282 0.310026 0.747724 9671060 3
-0.330637 0.302374 0.729267 9736851 3
-0.393166 0.326500 0.757459 9539474 3
-0.389666 0.334164 0.775240 9210509 3
-0.376938 0.334164 0.775240 9078923 3
-0.361754 0.331912 0.770014 9736853 3
-0.334741 0.318250 0.738320 9342093 3
-0.309017 0.304832 0.707191 9934230 3
-0.309017 0.316443 0.707191 9671058 3
-0.461817 0.222272 0.949809 7301996 3
-0.462122 0.230192 0.983653 7237230 3
-0.499755 0.226776 0.905522 7565682 3
-0.487887 0.228179 0.911125 7236717 3
-0.478677 0.230953 0.922201 7236971 3
-0.473285 0.235811 0.941599 7039338 3
-0.460948 0.237420 0.948022 7368303 3
-0.456504 0.243348 0.971695 8092028 3
-0.490380 0.244381 0.915780 8092280 3
-0.475518 0.244471 0.916117 8092280 3
-0.463015 0.245819 0.921167 7960440 3
-0.450221 0.247098 0.925961 8552577 3
-0.444969 0.252751 0.947143 8420993 3
-0.493264 0.260943 0.921167 7763315 3
-0.476045 0.259800 0.917131 7631729 3
-0.457631 0.257909 0.910456 8157819 3
-0.446429 0.260092 0.918161 8026233 3
-0.436502 0.263196 0.929120 8289407 3
-0.449854 0.281070 0.992218 8355200 3
-0.416083 0.296514 0.989391 9144716 3
-0.461892 0.290486 0.918933 8684163 3
-0.494584 0.240378 0.760418 6183000 3
-0.484303 0.241477 0.763895 6840930 3
-0.496998 0.254097 0.764129 7564653 3
-0.486677 0.255264 0.767639 7959924 3
-0.493838 0.264948 0.759271 8157303 3
-0.484303 0.266562 0.763895 8091510 3
-0.497601 0.272646 0.746219 8486784 3
-0.478468 0.268780 0.735639 8223098 3
-0.470531 0.271167 0.742173 7236717 3
-0.489529 0.289616 0.792665 7894647 3
-0.466984 0.291793 0.798625 8420991 3
-0.454236 0.292028 0.799266 8684163 3
-0.439979 0.291277 0.797213 9276300 3
-0.424056 0.289344 0.791920 8684163 3
-0.499253 0.278975 0.730705 8158073 3
-0.487543 0.279140 0.731136 8487038 3
-0.467890 0.274650 0.719376 7763061 3
-0.455554 0.274334 0.718548 8486784 3
-0.471716 0.291619 0.763823 8289405 3
-0.470699 0.298938 0.782992 8223866 3
-0.454726 0.296903 0.777662 8420991 3
-0.434699 0.292027 0.764891 8552577 3
-0.419292 0.290056 0.759730 8420991 3
-0.400509 0.285558 0.747947 8552577 3
-0.490247 0.285723 0.717523 8816003 3
-0.480944 0.287203 0.721240 8355198 3
-0.460763 0.282098 0.708418 8420993 3
-0.450012 0.282651 0.709807 8355198 3
-0.422322 0.295913 0.743111 9013128 3
-0.405051 0.292255 0.733926 8815749 3
-0.479801 0.291166 0.702235 7960440 3
-0.473617 0.294489 0.710251 8223614 3
-0.445087 0.291084 0.702039 8486784 3
-0.421129 0.298616 0.720205 8881542 3
-0.404533 0.295136 0.711811 9210509 3
-0.194877 0.277749 0.760186 10657957 3
-0.186158 0.283478 0.775865 10065820 3
-0.125234 0.289893 0.793423 9868699 3
-0.112031 0.289439 0.792182 10197663 3
-0.199607 0.279381 0.731768 11250094 3
-0.187592 0.279381 0.731768 10197406 3
-0.177876 0.283040 0.741351 10263199 3
-0.167780 0.286585 0.750636 10460578 3
-0.158021 0.291315 0.763026 10657702 3
-0.148385 0.297106 0.778194 10131358 3
-0.123855 0.271357 0.710752 10197151 3
-0.110837 0.299222 0.783737 10526629 3
-0.192961 0.281693 0.707402 10460578 3
-0.180832 0.280895 0.705398 10263199 3
-0.168882 0.280284 0.703865 10000027 3
-0.303669 0.249872 0.751423 9539474 3
-0.375257 0.278727 0.798757 9013128 3
-0.360401 0.277387 0.794916 9209993 3
-0.342492 0.273507 0.783799 9341579 3
-0.321632 0.266878 0.764800 9538958 3
-0.372635 0.289802 0.793175 9144714 3
-0.356779 0.287519 0.786927 9209993 3
-0.340347 0.284584 0.778892 10065302 3
-0.318516 0.276727 0.757389 9802130 3
-0.394892 0.290459 0.760785 8749956 3
-0.385846 0.293076 0.767639 9210507 3
-0.373242 0.293076 0.767639 9078921 3
-0.359890 0.292468 0.766048 9013128 3
-0.336488 0.283353 0.742173 9275532 3
-0.319391 0.279062 0.730933 9604497 3
-0.394387 0.293286 0.736514 8947335 3
-0.385924 0.296071 0.743508 8947335 3
-0.353554 0.299676 0.752561 9539472 3
-0.333746 0.293130 0.736124 9867923 3
-0.316198 0.288153 0.723625 9867923 3
-0.397848 0.298893 0.720873 8749958 3
-0.316088 0.299930 0.723374 9539472 3
-0.676082 0.216843 1.820912 4342849 3
-0.638562 0.224680 1.886728 4803402 3
-0.623537 0.249643 1.842334 5855579 3
-0.676082 0.276638 1.820912 7171435 3
-0.630960 0.283224 1.864267 7039340 3
-0.600351 0.283224 1.864267 6249826 3
-0.784007 0.222006 1.864267 7303023 3
-0.753398 0.222006 1.864267 6579298 3
-0.714285 0.219394 1.842334 5000266 3
-0.735877 0.246740 1.820912 5526612 3
-0.705979 0.246740 1.820912 5856090 3
-0.735877 0.276638 1.820912 6118749 3
-0.705979 0.276638 1.820912 6514020 3
-0.797742 0.238423 1.759533 5000009 3
-0.786526 0.243904 1.799982 6052443 3
-0.756973 0.243904 1.799982 6184542 3
-0.777589 0.270351 1.779528 5394767 3
-0.748371 0.270351 1.779528 6645093 3
-0.723699 0.289693 1.720862 6316128 3
-0.711072 0.296203 1.759533 6645095 3
-0.638757 0.214350 1.799982 5856088 3
-0.668311 0.243904 1.799982 5789782 3
-0.638757 0.243904 1.799982 6118747 3
-0.638757 0.273458 1.799982 6184540 3
-0.682182 0.296203 1.759533 6842731 3
-0.653293 0.296203 1.759533 6776679 3
-0.624403 0.296203 1.759533 7170924 3
-0.787126 0.212197 1.565984 5526612 3
-0.776953 0.216527 1.597943 5460817 3
-0.750716 0.216527 1.597943 5592403 3
-0.796900 0.233244 1.535279 6447201 3
-0.779332 0.235553 1.550479 5723478 3
-0.769105 0.240312 1.581802 4605251 3
-0.743133 0.240312 1.581802 4473665 3
-0.796900 0.258451 1.535279 4539204 3
-0.771692 0.258451 1.535279 6841959 3
-0.761414 0.263620 1.565984 5921111 3
-0.735702 0.263620 1.565984 5921111 3
-0.796900 0.283659 1.535279 6184542 3
-0.771692 0.283659 1.535279 6973545 3
-0.753875 0.286468 1.550479 5986136 3
-0.728418 0.286468 1.550479 6250335 3
-0.702960 0.286468 1.550479 6316126 3
-0.863854 0.224442 1.477344 5460560 3
-0.888111 0.248698 1.477344 6184281 3
-0.863854 0.248698 1.477344 6315867 3
-0.855816 0.263029 1.423622 6315867 3
-0.840078 0.265442 1.436683 6250074 3
-0.306448 0.240492 1.195408 7565168 3
-0.396942 0.243397 1.118560 7828854 3
-0.389711 0.250556 1.151459 7368303 3
-0.370805 0.250556 1.151459 7763574 3
-0.304127 0.258149 1.186352 8091512 3
-0.341171 0.261247 1.116355 8092539 3
-0.340666 0.275670 1.177989 8289920 3
-0.323453 0.277497 1.185794 8224127 3
-0.301560 0.275285 1.176341 8157305 3
-0.342824 0.280931 1.121765 8487299 3
-0.340829 0.295153 1.178555 8815751 3
-0.325921 0.299232 1.194842 8486786 3
-0.302414 0.295433 1.179670 8749956 3
-0.398620 0.240605 1.028149 7894133 3
-0.382520 0.241097 1.030253 7959926 3
-0.363961 0.240014 1.025623 8092026 3
-0.344863 0.238452 1.018950 8224125 3
-0.327464 0.237966 1.016873 8224125 3
-0.398620 0.257486 1.028149 8749956 3
-0.382520 0.258013 1.030253 8618370 3
-0.362340 0.255709 1.021054 8223612 3
-0.344160 0.254662 1.016873 8750469 3
-0.327464 0.254662 1.016873 8618885 3
-0.398620 0.274367 1.028149 8355198 3
-0.380801 0.273693 1.025623 8420991 3
-0.359993 0.270709 1.014440 9013128 3
-0.340433 0.268419 1.005860 8947848 3
-0.328525 0.272238 1.020168 8355713 3
-0.396020 0.289349 1.021442 8881542 3
-0.376649 0.287365 1.014440 9078921 3
-0.323015 0.284141 1.003057 9342608 3
-0.322475 0.298906 1.055180 9145229 3
-0.460536 0.238291 1.095094 7960440 3
-0.439482 0.236636 1.087489 7697268 3
-0.468271 0.241703 1.032839 7566197 3
-0.453544 0.242898 1.037946 7237230 3
-0.441445 0.245648 1.049700 7763061 3
-0.414481 0.240014 1.025623 7763315 3
-0.465396 0.257073 1.026498 7894649 3
-0.453353 0.259830 1.037508 8092028 3
-0.438506 0.261133 1.042710 7565684 3
-0.413630 0.256327 1.023519 8157819 3
-0.467638 0.275246 1.031441 8486786 3
-0.455997 0.278479 1.043557 8486786 3
-0.432217 0.274262 1.027755 8223614 3
-0.413630 0.273132 1.023519 8684163 3
-0.442556 0.286900 1.012799 8749958 3
-0.427640 0.288054 1.016873 8289407 3
-0.410944 0.288054 1.016873 8947335 3
-0.165097 0.273702 0.865838 9605780 3
-0.153040 0.277620 0.878231 10000284 3
-0.138187 0.276752 0.875486 9934492 3
-0.121226 0.270971 0.857198 9868699 3
-0.108194 0.273606 0.865534 10066331 3
-0.199202 0.276078 0.830230 9868439 3
-0.186371 0.277270 0.833815 9605267 3
-0.176621 0.283596 0.852838 10065818 3
-0.165097 0.287919 0.865838 10000538 3
-0.153635 0.293176 0.881648 10066078 3
-0.139050 0.292945 0.880953 10066080 3
-0.116560 0.274073 0.824202 10329250 3
-0.103781 0.276078 0.830230 10197917 3
-0.195695 0.284610 0.815617 9868441 3
-0.182799 0.285384 0.817833 9934234 3
-0.176256 0.296984 0.851078 9802648 3
-0.115346 0.284610 0.815617 10066077 3
-0.101954 0.284610 0.815617 10131870 3
-0.180585 0.295193 0.807929 10000027 3
-0.142319 0.298401 0.816708 10000285 3
-0.101393 0.296362 0.811129 10263456 3
-0.351923 0.280923 0.991699 8749956 3
-0.327292 0.273936 0.967032 9211020 3
-0.397141 0.272381 0.908866 9144716 3
-0.342183 0.288980 0.964252 8947335 3
-0.323175 0.286168 0.954868 9211020 3
-0.387084 0.290961 0.920435 8881544 3
-0.379384 0.296760 0.938778 9013130 3
-0.238326 0.233711 0.779834 9211022 3
-0.228723 0.237028 0.790901 9473681 3
-0.286417 0.243854 0.771415 9407372 3
-0.262601 0.233922 0.739995 9867923 3
-0.251188 0.234610 0.742173 9407372 3
-0.241519 0.237081 0.749989 9539985 3
-0.232609 0.240602 0.761127 9408399 3
-0.224960 0.245901 0.777891 8816262 3
-0.213382 0.247285 0.782269 9079434 3
-0.278749 0.239080 0.718968 9407372 3
-0.270512 0.242275 0.728577 10196888 3
-0.259682 0.243336 0.731768 9736337 3
-0.247667 0.243336 0.731768 9604751 3
-0.236412 0.244122 0.734130 9078923 3
-0.225415 0.245271 0.737588 9276302 3
-0.217896 0.250550 0.753463 9802646 3
-0.208756 0.254490 0.765310 8947337 3
-0.289643 0.250099 0.716716 10131095 3
-0.273874 0.246497 0.706396 9473165 3
-0.263101 0.247273 0.708618 9275786 3
-0.258100 0.253796 0.727311 9341579 3
-0.246373 0.254017 0.727945 9538958 3
-0.232394 0.251821 0.721652 9736853 3
-0.220545 0.251821 0.721652 9736853 3
-0.211517 0.255224 0.731404 9868439 3
-0.203292 0.260065 0.745278 9736853 3
-0.204352 0.278165 0.797147 10131613 3
-0.289732 0.261946 0.716935 9604751 3
-0.258100 0.265737 0.727311 10262681 3
-0.246303 0.265894 0.727738 9670544 3
-0.231328 0.262460 0.718341 10657187 3
-0.220931 0.264131 0.722914 10459808 3
-0.211134 0.266750 0.730082 10262429 3
-0.202454 0.271179 0.742204 9867671 3
-0.255815 0.275221 0.720873 9736337 3
-0.243826 0.275048 0.720420 10064789 3
-0.232800 0.276001 0.722914 10459806 3
-0.222990 0.278573 0.729651 10131611 3
-0.211622 0.279381 0.731768 9539476 3
-0.230025 0.284439 0.714297 10131611 3
-0.218161 0.284261 0.713852 10000025 3
-0.205850 0.283449 0.711811 10394785 3
0.270842 0.268485 1.072069 8618372 3
0.284685 0.264986 1.058097 8551811 3
0.215194 0.282359 1.058097 9276561 3
0.230435 0.279771 1.048398 9408401 3
0.244376 0.276074 1.034545 9276815 3
0.257954 0.272474 1.021054 9078923 3
0.273594 0.271358 1.016873 9143948 3
0.290290 0.271358 1.016873 9144718 3
0.210404 0.293061 1.034545 9671062 3
0.226446 0.291845 1.030253 9671319 3
0.241189 0.289239 1.021054 9342354 3
0.256898 0.288054 1.016873 9276561 3
0.103040 0.294483 0.982612 9473683 3
0.117697 0.290833 0.970433 9868441 3
0.133110 0.289701 0.966657 9999257 3
0.148982 0.289701 0.966657 10262429 3
0.164854 0.289701 0.966657 9671062 3
0.185504 0.297361 0.992218 10131358 3
0.114038 0.290203 1.087489 9868441 3
0.128267 0.282222 1.057583 9407890 3
0.148009 0.286831 1.074853 9605269 3
0.197821 0.282359 1.058097 9539734 3
0.110166 0.297597 1.050558 10000027 3
0.126618 0.295736 1.043989 10000027 3
0.143759 0.295736 1.043989 9933464 3
0.162395 0.298483 1.053689 9736855 3
0.180297 0.299482 1.057216 9736855 3
0.195183 0.295736 1.043989 9539734 3
0.268832 0.283041 0.999174 9407890 3
0.282941 0.280762 0.991129 9210511 3
0.252426 0.299446 0.999174 9671319 3
0.264376 0.294483 0.982612 9013390 3
0.279404 0.293322 0.978740 9408148 3
0.295474 0.293322 0.978740 9342355 3
0.220434 0.294992 0.933187 10131613 3
0.397896 0.255849 0.853703 8552839 3
0.391753 0.243328 0.811922 8816011 3
0.344141 0.283310 0.896230 9210771 3
0.348192 0.274891 0.869597 9013392 3
0.355969 0.269961 0.854001 9408148 3
0.365999 0.267048 0.844787 8947596 3
0.373104 0.262292 0.829741 8881803 3
0.308929 0.292550 0.879766 9671320 3
0.316124 0.285992 0.860043 9342355 3
0.319708 0.276866 0.832601 9802906 3
0.330016 0.274073 0.824202 9868699 3
0.341785 0.272667 0.819972 9737113 3