# .PCD v0.7 - Point Cloud Data file format
VERSION 0.7
FIELDS x y z rgb label
SIZE 4 4 4 4 4
TYPE F F F U U
COUNT 1 1 1 1 1
WIDTH 1374
HEIGHT 1
VIEWPOINT 0 0 0 1 0 0 0
POINTS 1374
DATA ascii
0.340830 0.305679 0.683135 9803418 3
0.358298 0.311108 0.695267 9869212 3
0.371752 0.312823 0.699100 9473943 3
0.383231 0.312823 0.699100 9539993 3
0.317979 0.305710 0.659022 10263970 3
0.333889 0.310442 0.669224 9737625 3
0.344877 0.310442 0.669224 9737626 3
0.355865 0.310442 0.669224 9803165 3
0.364716 0.308634 0.665325 10132130 3
0.366195 0.300873 0.648596 9540247 3
0.301698 0.300323 0.625279 10395302 3
0.324141 0.312046 0.649686 10658728 3
0.341057 0.317869 0.661810 9934751 3
0.352849 0.318706 0.663553 9803935 3
0.347867 0.304794 0.634588 9605786 3
0.309924 0.308559 0.621190 10461349 3
0.319455 0.307915 0.619893 10000544 3
0.328658 0.307003 0.618058 10132900 3
0.339811 0.307915 0.619893 9672349 3
0.377235 0.303512 0.732013 9474454 3
0.392409 0.305973 0.737947 9079442 3
0.369792 0.309306 0.717570 9737113 3
0.384662 0.311809 0.723378 9474200 3
0.399643 0.316733 0.707839 9606040 3
0.300539 0.276234 0.693694 9473941 3
0.306664 0.282770 0.681986 9868699 3
0.321996 0.286448 0.690857 9408148 3
0.303519 0.290953 0.674993 9934494 3
0.316570 0.292772 0.679214 10066591 3
0.330133 0.294927 0.684212 9737626 3
0.344769 0.297866 0.691031 9869212 3
0.318940 0.295780 0.661014 9935005 3
0.366741 0.292807 0.631207 9803419 3
0.370177 0.287428 0.619612 9408150 3
0.378458 0.285998 0.616529 9539734 3
0.390701 0.287558 0.619893 9276561 3
0.348953 0.296855 0.618058 9408661 3
0.352530 0.291423 0.606748 9868699 3
0.373979 0.292616 0.609231 9605529 3
0.390701 0.297736 0.619893 9408147 3
0.391323 0.290639 0.605116 9737112 3
0.256973 0.266490 0.669224 9935005 3
0.276186 0.274669 0.689764 10000544 3
0.289629 0.276693 0.694847 10000544 3
0.256973 0.277478 0.669224 10329252 3
0.271165 0.280796 0.677226 10066339 3
0.283724 0.282228 0.680678 10132130 3
0.293703 0.281082 0.677915 9802908 3
0.292437 0.290953 0.674993 10131873 3
0.269228 0.278065 0.621422 10263205 3
0.283320 0.281934 0.630071 10197925 3
0.296475 0.284632 0.636100 10066339 3
0.272777 0.281403 0.606625 10066339 3
0.293076 0.291694 0.628808 10592683 3
0.283068 0.291705 0.607335 10329511 3
0.203712 0.231012 0.580129 10658217 3
0.216479 0.234524 0.588950 9934494 3
0.212562 0.239775 0.578292 10592424 3
0.206542 0.242211 0.561916 10460584 3
0.204505 0.260598 0.582387 10592172 3
0.204106 0.248471 0.555287 10723758 3
0.210075 0.265122 0.571527 10855344 3
0.221694 0.267823 0.577348 11118768 3
0.232233 0.269050 0.579994 10395304 3
0.245534 0.273254 0.589057 10328998 3
0.257662 0.275884 0.594726 10197412 3
0.268446 0.286738 0.596994 10263718 3
0.185140 0.231611 0.581632 10197666 3
0.192141 0.228579 0.574019 10329252 3
0.184332 0.240108 0.579093 10592683 3
0.189321 0.234511 0.565594 10592683 3
0.199961 0.236109 0.569449 10460584 3
0.176158 0.251521 0.583513 10986928 3
0.183693 0.248751 0.577087 10526890 3
0.188767 0.243084 0.563939 10329511 3
0.198250 0.243358 0.564575 10790062 3
0.101403 0.266063 0.594600 10986928 3
0.111705 0.267354 0.597487 10987441 3
0.116462 0.256236 0.572639 10987182 3
0.122605 0.249601 0.557810 11118766 3
0.140333 0.265833 0.594088 10855596 3
0.175011 0.259402 0.579715 10789549 3
0.181221 0.254751 0.569320 10855855 3
0.190275 0.254359 0.568444 10921135 3
0.101403 0.275826 0.594600 11315893 3
0.111705 0.277164 0.597487 11119027 3
0.170150 0.276488 0.596028 11184307 3
0.179075 0.275165 0.593176 10921135 3
0.187838 0.273742 0.590110 11052721 3
0.090056 0.232682 0.584322 10724010 3
0.080992 0.243871 0.588171 10987180 3
0.088937 0.239265 0.577062 11052973 3
0.099243 0.241285 0.581933 10921389 3
0.071117 0.252754 0.586374 11119025 3
0.080016 0.250472 0.581080 10921387 3
0.088287 0.246920 0.572840 10987180 3
0.079501 0.258341 0.577343 11184048 3
0.087545 0.254174 0.568030 11052975 3
0.070605 0.270050 0.582150 11118768 3
0.079501 0.267820 0.577343 11315634 3
0.087545 0.263500 0.568030 11250354 3
-0.291401 0.275924 0.692913 9671058 3
-0.272439 0.268449 0.674144 9407886 3
-0.254368 0.261258 0.656084 10131609 3
-0.257721 0.276407 0.694127 9934230 3
-0.211101 0.275061 0.690748 9736855 3
-0.242585 0.270901 0.653361 9407888 3
-0.236476 0.276297 0.666376 10263197 3
-0.224760 0.275348 0.664086 10065818 3
-0.211279 0.272030 0.656084 10263199 3
-0.200349 0.271817 0.655569 10197406 3
-0.242390 0.281402 0.652836 10000025 3
-0.233495 0.283618 0.657977 10197404 3
-0.221190 0.281705 0.653538 10460576 3
-0.205523 0.275098 0.638210 10328992 3
-0.242326 0.292044 0.652664 9801876 3
-0.232518 0.293189 0.655223 10460578 3
-0.219702 0.290469 0.649144 10329249 3
-0.204123 0.283631 0.633861 10197406 3
-0.218061 0.298877 0.644293 10460835 3
-0.303623 0.276693 0.694847 10065816 3
-0.374352 0.289866 0.699100 9210507 3
-0.362874 0.289866 0.699100 8881796 3
-0.351395 0.289866 0.699100 9210507 3
-0.339917 0.289866 0.699100 9605265 3
-0.320652 0.282994 0.682527 9539474 3
-0.300726 0.275020 0.663294 10000025 3
-0.371040 0.298677 0.692913 9407888 3
-0.355362 0.295106 0.684628 9473679 3
-0.340200 0.291744 0.676827 9144714 3
-0.328196 0.290953 0.674993 8815751 3
-0.311617 0.285910 0.663294 9539474 3
-0.321631 0.295994 0.661491 9341325 3
-0.443508 0.278566 0.699548 8816003 3
-0.497477 0.288048 0.694716 8947589 3
-0.485623 0.287783 0.694077 8224123 3
-0.470980 0.285812 0.689324 8816262 3
-0.450001 0.279805 0.674836 8420991 3
-0.435854 0.277850 0.670122 8355711 3
-0.431256 0.282039 0.680224 8684163 3
-0.484809 0.298677 0.692913 8026746 3
-0.467772 0.295106 0.684628 7960953 3
-0.447378 0.289190 0.670903 8684165 3
-0.428431 0.283934 0.658709 8487297 3
-0.434531 0.295434 0.685389 8815749 3
-0.428431 0.294749 0.658709 8487299 3
0.458258 0.301124 0.788720 9211281 3
0.404347 0.302796 0.760397 8882063 3
0.427487 0.310536 0.779834 9606040 3
0.446824 0.315144 0.791405 9606040 3
0.464215 0.318157 0.798972 9408660 3
0.477333 0.318157 0.798972 9079183 3
0.427625 0.323444 0.780085 9145489 3
0.450381 0.330750 0.797704 9277075 3
0.461604 0.329412 0.794478 9277074 3
0.458614 0.318284 0.767639 9473941 3
0.477697 0.322660 0.778194 9079182 3
0.411109 0.323266 0.749957 9803419 3
0.430638 0.328774 0.762736 9079696 3
0.439433 0.326009 0.756320 9211281 3
0.446849 0.322400 0.747947 9276562 3
0.451872 0.317303 0.736124 8881803 3
0.458277 0.313418 0.727110 9013389 3
0.413573 0.318510 0.711811 9342868 3
0.425260 0.318510 0.711811 9276562 3
0.434241 0.316538 0.707402 9079183 3
0.441864 0.313703 0.701068 9342354 3
0.460657 0.318742 0.712328 9013643 3
-0.478173 0.303685 0.795425 8749440 3
-0.451250 0.303145 0.794013 8881028 3
-0.454578 0.305195 0.736072 8420991 3
-0.452595 0.312163 0.752877 8946821 3
-0.429024 0.304214 0.733707 9012614 3
-0.412025 0.300601 0.724993 8947335 3
0.735655 0.405342 1.109401 8355459 3
0.782450 0.420708 1.151459 8092287 3
0.752478 0.433243 1.134771 8355459 3
0.771110 0.433243 1.134771 8355459 3
0.789742 0.433243 1.134771 8223873 3
0.774654 0.453951 1.139986 8092287 3
0.265504 0.289807 0.793187 10263459 3
0.274947 0.286082 0.782992 10395045 3
0.287803 0.286082 0.782992 9671579 3
0.298612 0.284134 0.777662 9276821 3
0.236118 0.269313 0.705398 10591911 3
0.291139 0.277602 0.727110 9737372 3
0.296580 0.271651 0.711522 9737626 3
0.126730 0.271510 0.743111 10723499 3
0.138101 0.269888 0.738672 10328737 3
0.122506 0.274255 0.718341 10658217 3
0.134300 0.274255 0.718341 11052975 3
0.147025 0.276001 0.722914 10855594 3
0.144872 0.283655 0.712328 10789803 3
0.806161 0.413978 1.186352 7829115 3
0.825639 0.413978 1.186352 7500150 3
0.828029 0.405607 1.162363 7697530 3
0.801356 0.420708 1.151459 8487045 3
0.804149 0.412444 1.128841 8487046 3
0.800434 0.428988 1.123626 8289666 3
-0.018371 0.242011 0.693539 10000285 3
-0.006916 0.239672 0.686835 10197664 3
-0.018214 0.251241 0.687635 10263716 3
-0.006886 0.249853 0.683836 10329763 3
-0.018240 0.262902 0.688606 10592683 3
-0.006906 0.261868 0.685898 10526888 3
-0.029635 0.275029 0.690668 10855855 3
-0.018084 0.271868 0.682729 10658474 3
-0.006856 0.271125 0.680863 10987693 3
-0.097954 0.287186 0.692636 10789803 3
-0.086378 0.286513 0.691014 10723497 3
-0.075239 0.287300 0.692913 10855594 3
-0.064254 0.289064 0.697167 10592422 3
-0.029121 0.281405 0.678694 10461097 3
-0.017774 0.278226 0.671027 10790060 3
-0.006739 0.277478 0.669224 10987693 3
-0.006625 0.283618 0.657977 10856106 3
-0.006625 0.294421 0.657977 11118766 3
0.627747 0.314846 0.995994 7565943 3
0.615273 0.324618 0.976203 8158080 3
0.604669 0.334776 0.959378 8487045 3
0.642747 0.363142 0.993901 8355459 3
0.618567 0.374699 0.981429 9079182 3
0.697052 0.372477 0.935383 7829116 3
0.594016 0.305898 0.967685 7631736 3
0.539593 0.308824 0.928706 8750217 3
0.561501 0.312531 0.939854 8092287 3
0.579087 0.313699 0.943364 8355459 3
0.527695 0.316927 0.908229 8750217 3
0.554841 0.324073 0.928706 8684424 3
0.576933 0.327963 0.939854 8092287 3
0.542607 0.331840 0.908229 9013389 3
0.570089 0.339321 0.928706 8421252 3
0.592364 0.343394 0.939854 8947596 3
0.562148 0.349630 0.915769 9276561 3
0.411605 0.244686 0.774046 8355460 3
0.411605 0.257395 0.774046 8487046 3
0.423529 0.256919 0.772614 8881804 3
0.440825 0.259634 0.780780 8750217 3
0.412387 0.270617 0.775516 8947597 3
0.427083 0.271866 0.779097 8881804 3
0.443427 0.274062 0.785388 8552838 3
0.409128 0.281111 0.769388 9144976 3
0.424969 0.283249 0.775240 9013390 3
0.438392 0.283698 0.776469 9013389 3
0.409128 0.293744 0.769388 9145489 3
0.425101 0.296070 0.775481 9145489 3
0.440151 0.297637 0.779586 9211282 3
0.345931 0.252406 0.798467 9144976 3
0.354410 0.249150 0.788169 9079696 3
0.364263 0.247056 0.781543 8618891 3
0.375915 0.246282 0.779097 8750731 3
0.387265 0.245369 0.776206 8882316 3
0.397543 0.243856 0.771421 9013392 3
0.331133 0.264169 0.794417 9737113 3
0.340825 0.261596 0.786681 9408148 3
0.350770 0.259399 0.780073 9539734 3
0.361325 0.257792 0.775240 9539736 3
0.374054 0.257792 0.775240 9013390 3
0.385473 0.256919 0.772614 8881803 3
0.397543 0.256522 0.771421 8948110 3
0.346215 0.278854 0.799121 8881804 3
0.341828 0.265268 0.760186 8552839 3
0.354309 0.265268 0.760186 9539221 3
0.366791 0.265268 0.760186 8618374 3
0.379388 0.265349 0.760418 8355459 3
0.394992 0.267460 0.766469 8816524 3
0.306267 0.279468 0.764891 9606040 3
0.308457 0.270380 0.740017 9868699 3
0.312742 0.263746 0.721861 9342355 3
0.328097 0.266592 0.729651 9210256 3
0.342266 0.268308 0.734347 9472914 3
0.356410 0.269888 0.738672 8486788 3
0.368647 0.269968 0.738891 8750471 3
0.387552 0.274770 0.752032 8816523 3
0.307786 0.271231 0.710422 9079183 3
0.326575 0.277281 0.726267 9144975 3
0.340668 0.279057 0.730919 8551811 3
0.355887 0.281603 0.737588 8288639 3
0.368647 0.282100 0.738891 8881803 3
0.387552 0.287118 0.752032 8816523 3
0.319174 0.282651 0.709807 8355460 3
0.333951 0.285319 0.716508 8749190 3
0.349306 0.288282 0.723949 9276304 3
0.361925 0.288866 0.725416 9737112 3
0.380795 0.294244 0.738921 9540246 3
0.340549 0.292643 0.705799 9671320 3
0.355548 0.295478 0.712635 9605527 3
0.316751 0.314564 0.995100 9737112 3
0.328910 0.310616 0.982612 9671833 3
0.343684 0.309392 0.978740 9539993 3
0.353721 0.304204 0.962328 9144978 3
0.303802 0.317375 0.954419 9802905 3
0.315772 0.313699 0.943364 9803165 3
0.331261 0.313699 0.943364 9474200 3
0.341141 0.308624 0.928104 9539736 3
0.207852 0.323066 1.021998 9670807 3
0.232844 0.334878 1.059361 10000027 3
0.253363 0.339060 1.072592 10263456 3
0.270974 0.339060 1.072592 9868698 3
0.288585 0.339060 1.072592 9868699 3
0.232844 0.352271 1.059361 10460323 3
0.253363 0.356671 1.072592 10329250 3
0.270974 0.356671 1.072592 10197664 3
0.283294 0.350132 1.052928 9934494 3
0.290150 0.337980 1.016384 9934492 3
0.237976 0.377812 1.082709 10131358 3
0.290472 0.355061 1.017511 10329252 3
0.238370 0.396244 1.084501 10657702 3
0.229067 0.397891 1.042177 10987180 3
0.004654 0.231709 0.732996 10329252 3
0.017478 0.242661 0.767639 10592421 3
0.004584 0.240051 0.721889 10131873 3
0.016667 0.243418 0.732013 10460836 3
0.030977 0.262862 0.790488 10460835 3
0.039115 0.280111 0.703430 10657704 3
0.050807 0.280895 0.705398 10657702 3
0.062389 0.280895 0.705398 10789288 3
0.073971 0.280895 0.705398 10526116 3
0.086087 0.282651 0.709807 10724008 3
-0.338028 0.244539 0.773583 8881028 3
-0.324779 0.244128 0.772282 9078921 3
-0.387743 0.265182 0.797464 8816003 3
-0.354789 0.260219 0.782539 9538956 3
-0.324712 0.247108 0.743111 9407372 3
-0.305723 0.241741 0.726970 9736851 3
-0.396165 0.275032 0.788169 8750210 3
-0.378597 0.271712 0.778653 9408140 3
-0.361453 0.268474 0.769374 9013382 3
-0.332653 0.256030 0.733713 9144968 3
-0.316252 0.252553 0.723750 9539726 3
-0.302530 0.251027 0.719376 9407372 3
-0.394181 0.286531 0.784222 8816003 3
-0.375461 0.282140 0.772203 8881796 3
-0.358138 0.278528 0.762318 9210761 3
-0.334705 0.269731 0.738240 9342345 3
-0.316717 0.264825 0.724813 9671312 3
-0.302530 0.262838 0.719376 9473163 3
-0.390272 0.296438 0.776445 9408140 3
-0.376938 0.295978 0.775240 9210761 3
-0.352398 0.286379 0.750099 8815749 3
-0.326528 0.274966 0.720205 8947335 3
-0.309109 0.270078 0.707402 9736851 3
-0.395542 0.294145 0.738672 8947846 3
-0.360119 0.294932 0.740649 9276300 3
-0.335269 0.284177 0.713639 9605265 3
-0.317852 0.279171 0.701068 9802644 3
-0.390297 0.293221 0.707191 9210507 3
-0.571979 0.252497 0.798757 7302510 3
-0.557082 0.251692 0.796210 8091510 3
-0.522735 0.247804 0.783911 7433321 3
-0.546706 0.259833 0.781379 6117720 3
-0.512556 0.255599 0.768645 6907234 3
-0.565145 0.275397 0.789213 7763315 3
-0.534473 0.266562 0.763895 7039592 3
-0.521306 0.266243 0.762981 7236201 3
-0.574718 0.286666 0.784591 7236969 3
-0.538429 0.274723 0.751904 7434861 3
-0.510961 0.266826 0.730291 7631727 3
-0.590580 0.276794 0.724993 7763315 3
-0.584755 0.279702 0.732609 7170924 3
-0.567606 0.295841 0.774882 7763315 3
-0.532280 0.283791 0.743318 7631727 3
-0.506963 0.276635 0.724577 8355709 3
-0.555905 0.295578 0.742271 7960694 3
-0.536428 0.291615 0.732319 8026487 3
-0.520426 0.289403 0.726764 8421245 3
-0.500600 0.284911 0.715482 8553088 3
-0.515267 0.291661 0.703430 8355452 3
-0.680007 0.248836 0.787175 6907236 3
-0.690419 0.265769 0.799228 5920341 3
-0.689250 0.286082 0.782992 7301481 3
-0.676606 0.286171 0.783238 7367274 3
-0.674771 0.290925 0.796248 6051925 3
-0.644159 0.279381 0.731768 6512478 3
-0.624170 0.275857 0.722537 6446685 3
-0.608750 0.274255 0.718341 7499373 3
-0.600756 0.276001 0.722914 7828338 3
-0.610040 0.297925 0.780339 7302510 3
-0.628387 0.284261 0.713852 7367787 3
-0.607354 0.279969 0.703072 7038822 3
0.823902 0.304506 1.016058 6645355 3
0.830474 0.300843 1.003836 5790043 3
0.813992 0.317325 1.003836 6513256 3
0.892359 0.321811 1.018027 6316641 3
0.827853 0.361448 1.086957 7960701 3
0.892359 0.338526 1.018027 6250848 3
0.895839 0.356627 1.021998 6711145 3
0.875644 0.371956 1.018027 7369078 3
0.851168 0.385159 1.008828 7566457 3
0.882563 0.391743 1.026072 6382183 3
0.870323 0.374784 1.250558 6842733 3
0.899642 0.378480 1.262890 6579562 3
0.831353 0.386740 1.223425 7961214 3
0.851441 0.386740 1.223425 7434870 3
0.890856 0.395317 1.250558 7698043 3
0.635836 0.302339 1.008828 7434357 3
0.663551 0.307507 1.026072 7566197 3
0.673297 0.329118 1.041141 7960701 3
0.670729 0.344892 1.037170 8026494 3
0.647455 0.349363 1.001180 8355459 3
0.331227 0.247915 0.827228 8881293 3
0.336465 0.241915 0.807208 9079185 3
0.349606 0.241838 0.806950 9013390 3
0.359844 0.239830 0.800252 8881804 3
0.334371 0.275267 0.870788 9210771 3
0.331227 0.261497 0.827228 9144463 3
0.336250 0.255006 0.806694 9473428 3
0.342787 0.296852 0.892704 9737115 3
0.334087 0.277454 0.834370 9736600 3
0.325509 0.295809 0.847709 9671579 3
0.329870 0.287479 0.823839 9868699 3
0.337560 0.282593 0.809836 9473941 3
-0.108228 0.259477 0.865809 9473683 3
-0.108991 0.289938 0.871909 10526116 3
-0.103526 0.288998 0.828192 9934494 3
-0.116113 0.299983 0.821040 9935005 3
-0.101464 0.296569 0.811696 10263459 3
-0.380154 0.260731 0.869991 9012360 3
-0.304493 0.269625 0.899669 9276300 3
-0.399838 0.269037 0.851078 10131863 3
-0.363427 0.253393 0.801591 9275786 3
-0.340244 0.266144 0.841927 9078923 3
-0.328860 0.268133 0.848219 9013128 3
-0.319063 0.271649 0.859342 9736851 3
-0.315749 0.281266 0.889764 9408399 3
-0.376086 0.266199 0.800521 9539726 3
0.784456 0.327016 1.154411 7105905 3
0.799323 0.352527 1.176290 7763835 3
0.777006 0.370408 1.171760 7434870 3
0.777006 0.389648 1.171760 7566456 3
0.751562 0.395497 1.133390 8421252 3
0.562892 0.309414 1.092276 8552838 3
0.567536 0.302334 1.067282 8158080 3
0.524034 0.304750 1.016873 8092288 3
0.540730 0.304750 1.016873 8289667 3
0.557426 0.304750 1.016873 8289667 3
0.349562 0.311086 1.098177 8947596 3
0.395485 0.304790 1.075952 8881804 3
0.322207 0.319861 1.067293 9276562 3
0.326379 0.307290 1.025347 9408661 3
0.337378 0.302064 1.007910 9013902 3
0.300582 0.332844 1.052928 9802906 3
0.306838 0.321292 1.016384 9671320 3
0.206553 0.312963 1.104804 9539221 3
0.230999 0.321747 1.135814 9539733 3
0.253087 0.326179 1.151459 9079182 3
0.245148 0.334260 1.115340 9802905 3
0.270761 0.343522 1.146244 9868441 3
0.290899 0.345085 1.151459 9342097 3
0.264222 0.390322 1.118560 10592422 3
0.282587 0.390322 1.118560 9934494 3
0.298039 0.386543 1.107729 10526631 3
0.563593 0.311705 1.168067 8289667 3
0.568762 0.304212 1.139986 8092287 3
0.525496 0.331048 1.168645 8618632 3
0.533830 0.324451 1.145357 8026495 3
0.536925 0.315227 1.112795 8618632 3
0.550212 0.312397 1.102806 8487046 3
0.102316 0.308707 1.156830 9407888 3
0.120746 0.307273 1.151459 9934232 3
0.136909 0.301238 1.128841 9671060 3
0.194616 0.304530 1.141178 9737112 3
0.117296 0.316860 1.118560 9868441 3
0.105431 0.298534 1.192055 9473681 3
0.124405 0.297106 1.186352 9407890 3
0.143884 0.297106 1.186352 8881544 3
0.161687 0.294057 1.174178 7895162 3
0.183923 0.298863 1.193366 9474194 3
0.154028 0.298494 1.118560 9342608 3
0.172393 0.298494 1.118560 9671573 3
0.028298 0.311254 1.242845 9013643 3
0.048181 0.307910 1.229494 8750469 3
0.067311 0.303150 1.210485 9342608 3
0.086762 0.301677 1.204603 9539474 3
0.027856 0.326478 1.223425 9605526 3
0.047436 0.323025 1.210485 9145229 3
-0.052766 0.222745 0.889428 8420740 3
-0.035981 0.210008 0.838569 9407890 3
-0.023040 0.217832 0.869808 9276302 3
-0.063989 0.225436 0.844787 9407890 3
-0.049765 0.223847 0.838832 9341842 3
-0.035956 0.223623 0.837991 9407890 3
-0.022676 0.228447 0.856071 9671060 3
-0.063645 0.238023 0.840254 9736600 3
-0.049698 0.237301 0.837706 9736600 3
-0.036162 0.238741 0.842790 9868441 3
-0.022667 0.242406 0.855729 9671060 3
-0.008649 0.243322 0.858962 9407635 3
-0.087343 0.241071 0.804390 9539476 3
-0.075962 0.247008 0.824202 9736600 3
-0.062471 0.247172 0.824750 9736600 3
-0.049484 0.249975 0.834102 9605014 3
-0.036422 0.254399 0.848862 9802648 3
-0.021604 0.244435 0.815617 9736853 3
-0.008213 0.244435 0.815617 9933979 3
-0.034451 0.253815 0.802925 10460578 3
-0.386627 0.239593 0.956699 7895671 3
-0.368391 0.237960 0.950179 8618624 3
-0.348162 0.234838 0.937715 8487038 3
-0.332766 0.234838 0.937715 8289405 3
-0.313405 0.231905 0.926002 8815751 3
-0.399741 0.253655 0.950532 8750471 3
-0.381095 0.251648 0.943011 8355709 3
-0.363423 0.250142 0.937366 8947589 3
-0.346090 0.248745 0.932133 8420991 3
-0.329318 0.247642 0.928001 9276302 3
-0.310402 0.244742 0.917131 8749958 3
-0.380954 0.267032 0.942662 8750469 3
-0.361394 0.264050 0.932133 9078921 3
-0.345962 0.263952 0.931789 8881542 3
-0.327378 0.261331 0.922534 9013128 3
-0.308595 0.258287 0.911791 9144716 3
-0.387084 0.275849 0.920435 9276302 3
-0.379527 0.281452 0.939131 9276300 3
-0.361128 0.279149 0.931448 9276302 3
-0.342018 0.276068 0.921167 9342093 3
-0.324048 0.273665 0.913149 9144714 3
-0.305955 0.285763 0.903990 9408399 3
-0.416046 0.247758 0.989304 7763576 3
-0.497846 0.255950 0.959133 8288889 3
-0.496825 0.263769 0.988432 8486268 3
-0.476646 0.261601 0.980309 7960440 3
-0.421272 0.257273 0.964090 8815751 3
-0.459689 0.259069 0.914550 8157303 3
-0.464277 0.270490 0.954868 8026233 3
-0.448599 0.270490 0.954868 8552577 3
-0.432921 0.270490 0.954868 8947335 3
-0.420784 0.272786 0.962973 8881544 3
-0.401290 0.270305 0.954216 8486786 3
-0.442682 0.272858 0.910456 8684163 3
-0.427734 0.272858 0.910456 9013128 3
-0.500094 0.233888 0.933921 7500141 3
-0.571013 0.240347 0.900663 7105385 3
-0.545051 0.248745 0.932133 7894647 3
-0.527539 0.247709 0.928250 7828854 3
-0.591956 0.257816 0.910127 7894901 3
0.580191 0.301948 1.290279 7500150 3
0.562000 0.324864 1.297191 8026494 3
0.577185 0.321459 1.283594 7829115 3
0.578980 0.311099 1.242228 7960702 3
0.584060 0.303150 1.210485 7894908 3
0.509954 0.326478 1.223425 8223874 3
0.530042 0.326478 1.223425 8026494 3
0.550129 0.326478 1.223425 8355459 3
0.564185 0.323025 1.210485 7829116 3
-0.520003 0.242102 1.034545 7301996 3
-0.503211 0.242195 1.034944 7565682 3
-0.579616 0.263015 1.050225 7565936 3
-0.523484 0.252572 1.008526 8157303 3
-0.513222 0.255709 1.021054 7565166 3
-0.993902 0.310566 1.327105 6514018 3
-0.983635 0.314247 1.342836 6776166 3
-0.935953 0.327330 1.307038 6381410 3
-0.974959 0.348974 1.393461 5920857 3
-0.915556 0.343849 1.372998 6644832 3
0.582805 0.304247 1.398200 6776427 3
0.507698 0.323234 1.381236 8092539 3
0.518377 0.315921 1.349986 7829369 3
0.553815 0.323678 1.383133 8158080 3
0.582805 0.327204 1.398200 7697529 3
0.577998 0.312207 1.334116 7631736 3
0.501098 0.326817 1.304987 8223616 3
0.534912 0.334564 1.335924 7829116 3
0.556151 0.334147 1.334256 8158081 3
0.109923 0.270441 1.242845 8881546 3
0.130329 0.270441 1.242845 8881291 3
0.150736 0.270441 1.242845 8684167 3
0.176753 0.279308 1.283594 8881546 3
0.107061 0.283275 1.210485 8881546 3
0.126319 0.281898 1.204603 8683912 3
0.146098 0.281898 1.204603 8881546 3
0.165876 0.281898 1.204603 8947339 3
0.187649 0.284927 1.217543 8947339 3
0.071377 0.279308 1.283594 8157821 3
0.090961 0.274803 1.262890 8749956 3
0.050005 0.298617 1.276046 8684165 3
0.068717 0.289189 1.235758 9144716 3
0.088118 0.286303 1.223425 8815749 3
-0.493049 0.236636 1.087489 7894647 3
-0.492136 0.245143 1.047540 7368303 3
-0.482986 0.249298 1.065295 7565682 3
-0.497058 0.256019 1.022289 7631475 3
-0.491924 0.262230 1.047090 7960440 3
-0.479522 0.264875 1.057654 7170926 3
-0.457959 0.262470 1.048049 7960444 3
-0.480136 0.272726 1.021998 8355198 3
-0.463559 0.272845 1.022445 8420993 3
-0.985137 0.321468 1.477344 6710627 3
-0.943086 0.315515 1.449985 6447455 3
-0.919279 0.315515 1.449985 6184283 3
-0.990701 0.339322 1.449985 5591376 3
-0.966893 0.339322 1.449985 6841441 3
-0.931297 0.335081 1.431861 6973799 3
-0.972688 0.356527 1.423622 6513248 3
0.607515 0.204574 1.016873 5460568 3
0.649516 0.212868 1.058097 4539465 3
0.615508 0.224182 1.030253 5855326 3
0.649516 0.230241 1.058097 4868430 3
0.614771 0.247614 1.058097 6315877 3
0.638097 0.249946 1.068062 5986912 3
0.664701 0.253402 1.082834 6908013 3
0.601459 0.274779 1.097199 7565943 3
0.602583 0.267287 1.067282 7631736 3
0.614771 0.264986 1.058097 7039599 3
0.638097 0.267482 1.068062 6973807 3
0.664701 0.271181 1.082834 6842220 3
0.601087 0.276074 1.034545 7500150 3
0.615508 0.274929 1.030253 7236979 3
0.632424 0.274929 1.030253 7368564 3
0.649340 0.274929 1.030253 6908013 3
0.678635 0.280037 1.049396 7105646 3
0.602160 0.285515 1.007910 8026495 3
0.627356 0.289506 1.021998 7434357 3
0.649340 0.291845 1.030253 7565943 3
0.666255 0.291845 1.030253 7500404 3
0.689433 0.294520 1.039697 7632249 3
0.593392 0.231650 1.151459 5592153 3
0.593392 0.250556 1.151459 6513255 3
0.594740 0.298534 1.192055 7565943 3
0.599011 0.291098 1.162363 7895162 3
0.579048 0.299846 1.123626 8026494 3
-0.208811 0.220311 1.095094 7895162 3
-0.226791 0.238291 1.095094 8487299 3
-0.204520 0.233395 1.072592 8684678 3
-0.225044 0.254297 1.086657 8421252 3
-0.203564 0.249832 1.067576 9079436 3
-0.224086 0.270981 1.082034 8881544 3
-0.202620 0.266121 1.062627 8618370 3
-0.201254 0.281657 1.055465 9013128 3
-0.217586 0.297622 1.050648 9802646 3
-0.389092 0.256133 1.273158 7236717 3
-0.371206 0.258233 1.283594 7763061 3
-0.339015 0.250035 1.242845 7565682 3
-0.376837 0.268312 1.233058 7763061 3
-0.362297 0.272605 1.252787 7894647 3
-0.328584 0.262120 1.204603 8223612 3
-0.578231 0.300042 1.491413 7367789 3
-0.572776 0.321468 1.477344 8420475 3
-0.538361 0.315515 1.449985 7434607 3
-0.514554 0.315515 1.449985 7763572 3
-0.579436 0.335535 1.433803 7368814 3
-0.889973 0.315044 1.565984 6381408 3
-0.872991 0.318226 1.581802 6709859 3
-0.847020 0.318226 1.581802 6973031 3
-0.829426 0.321474 1.597943 6512478 3
-0.889973 0.340756 1.565984 6381408 3
-0.872991 0.344198 1.581802 7105385 3
-0.847020 0.344198 1.581802 7104615 3
-0.812838 0.340756 1.565984 7038824 3
-1.188571 0.305868 1.520373 4934477 3
-1.163608 0.305868 1.520373 6448227 3
-1.127697 0.302927 1.505754 5527125 3
-1.144266 0.321474 1.597943 5723480 3
-1.188571 0.330831 1.520373 6381919 3
-1.163608 0.330831 1.520373 6382432 3
-1.170503 0.347710 1.597943 6315615 3
-1.185045 0.354739 1.515862 6776677 3
1.405586 0.307800 1.665941 4013114 3
1.432939 0.307800 1.665941 4932935 3
1.487646 0.307800 1.665941 4276545 3
1.432939 0.335153 1.665941 4209725 3
1.432939 0.362507 1.665941 4275516 3
0.596137 0.200925 1.087489 5460567 3
0.578281 0.218781 1.087489 5986911 3
0.564761 0.207266 1.030253 5855325 3
0.574122 0.204574 1.016873 5131602 3
0.583244 0.201951 1.003836 4736845 3
0.578281 0.236636 1.087489 6710634 3
0.572291 0.227171 1.043989 6776427 3
0.581677 0.224182 1.030253 6184290 3
0.583244 0.218433 1.003836 6579049 3
0.598622 0.255553 1.092023 6447462 3
0.599955 0.248674 1.062627 6579048 3
0.583444 0.292794 1.097199 7894908 3
0.590522 0.287470 1.077247 7565943 3
0.594479 0.280980 1.052928 7368564 3
0.574708 0.296985 1.048398 7829115 3
0.584100 0.293061 1.034545 7960701 3
0.593248 0.289239 1.021054 7960701 3
0.611373 0.219191 1.186352 5460567 3
0.612298 0.212744 1.151459 5723739 3
0.608039 0.276113 1.179882 7434357 3
0.609053 0.268034 1.145357 6710634 3
0.600270 0.282703 1.128841 7565943 3
0.572580 0.253800 1.373670 4868430 3
0.574960 0.245197 1.327105 6513507 3
0.586804 0.241110 1.304987 6118747 3
0.553171 0.266987 1.327105 6579048 3
0.565378 0.262537 1.304987 6645095 3
0.586804 0.262537 1.304987 6250335 3
0.518377 0.293755 1.349986 6842474 3
0.565378 0.283963 1.304987 7500150 3
0.466012 0.245197 1.327105 6710375 3
0.487801 0.245197 1.327105 6316128 3
0.466012 0.266987 1.327105 6512996 3
0.487801 0.266987 1.327105 6710886 3
0.496212 0.293755 1.349986 6776679 3
1.662706 0.411907 2.446850 4539719 3
1.622531 0.452082 2.446850 4934734 3
1.662706 0.452082 2.446850 4802891 3
1.622531 0.492257 2.446850 5132113 3
1.662706 0.492257 2.446850 5000270 3
0.640411 0.216082 1.283594 5789532 3
0.630479 0.205953 1.223425 5723993 3
0.610391 0.226041 1.223425 5460567 3
0.601001 0.242342 1.204603 6250083 3
0.601001 0.262120 1.204603 6579048 3
0.603935 0.283275 1.210485 6973806 3
-1.276034 0.253481 1.505754 5460817 3
-1.263460 0.255942 1.520373 5329231 3
-1.238497 0.255942 1.520373 4868423 3
-1.275847 0.283659 1.535279 4473665 3
-1.250639 0.283659 1.535279 5197134 3
-1.213534 0.280905 1.520373 4407618 3
-1.406632 0.269000 1.597943 4869195 3
-1.459106 0.295237 1.597943 4144961 3
-1.432869 0.295237 1.597943 4671816 3
-1.406632 0.295237 1.597943 3815994 3
1.453162 0.242764 1.597943 3948091 3
1.424099 0.263620 1.565984 5067088 3
1.424099 0.289332 1.565984 4145986 3
1.449811 0.289332 1.565984 4737607 3
1.418772 0.278204 1.505754 4605508 3
0.549475 0.330428 2.174978 6645095 3
0.585186 0.330428 2.174978 6052958 3
0.534625 0.356244 2.116195 6842474 3
0.569371 0.356244 2.116195 6579300 3
0.534625 0.390990 2.116195 7302771 3
0.569371 0.390990 2.116195 7105646 3
-0.974133 0.253094 1.665941 5197386 3
-0.946780 0.253094 1.665941 5855316 3
-0.929313 0.255816 1.683854 5196618 3
-0.974133 0.280447 1.665941 6381660 3
-0.946780 0.280447 1.665941 6052695 3
-0.919427 0.280447 1.665941 6709857 3
-0.901666 0.283463 1.683854 5986134 3
1.295954 0.221038 1.631234 4933196 3
1.268821 0.253094 1.665941 5197134 3
1.269170 0.247821 1.631234 4670794 3
1.295954 0.247821 1.631234 5328724 3
1.242387 0.274605 1.631234 4209471 3
1.295954 0.274605 1.631234 4802380 3
-0.894461 0.241132 1.779528 5197388 3
-0.875188 0.243904 1.799982 4868423 3
-0.893228 0.261438 1.720862 6184283 3
-0.874584 0.264343 1.739982 5986902 3
-0.855521 0.267313 1.759533 4144698 3
-0.845634 0.273458 1.799982 4342077 3
-0.883519 0.286544 1.702157 4604481 3
-0.864973 0.289693 1.720862 5920341 3
-0.836718 0.289693 1.720862 6117718 3
-0.826631 0.296203 1.759533 5722960 3
-1.455047 0.303138 2.237120 4078653 3
-1.491778 0.339869 2.237120 5657939 3
-1.455047 0.339869 2.237120 5263181 3
-1.470767 0.371296 2.205611 4868423 3
-1.434553 0.371296 2.205611 5197388 3
0.166871 0.224680 1.886728 5789784 3
0.101255 0.246740 1.820912 6841963 3
0.131153 0.246740 1.820912 7039853 3
0.131153 0.276638 1.820912 6842474 3
0.164885 0.283224 1.864267 6908267 3
0.011429 0.214350 1.799982 6381412 3
0.040983 0.214350 1.799982 6381412 3
0.070537 0.214350 1.799982 6512998 3
0.098954 0.211914 1.779528 5920861 3
0.011173 0.238423 1.759533 6907756 3
0.040518 0.241132 1.779528 6710377 3
0.069736 0.241132 1.779528 6512998 3
0.011048 0.264343 1.739982 7236719 3
0.039182 0.261438 1.720862 7236719 3
0.068186 0.264343 1.739982 6776168 3
0.096755 0.264343 1.739982 6841961 3
0.066704 0.286544 1.702157 7302512 3
0.094651 0.286544 1.702157 7302512 3
-0.018125 0.214350 1.799982 6381669 3
-0.017717 0.238423 1.759533 6447716 3
-0.017717 0.267313 1.759533 7039853 3
-0.076355 0.299569 1.779528 8026494 3
-0.046089 0.292912 1.739982 7302771 3
-0.017520 0.292912 1.739982 7697781 3
-0.539132 0.222006 1.864267 5986652 3
-0.514649 0.224680 1.886728 6118751 3
-0.593288 0.249643 1.842334 6447203 3
-0.569741 0.252615 1.864267 6710375 3
-0.526594 0.246740 1.820912 6118238 3
-0.508523 0.252615 1.864267 6184544 3
-0.593288 0.279892 1.842334 6644580 3
-0.563039 0.279892 1.842334 7105131 3
-0.526594 0.276638 1.820912 6973545 3
-0.514649 0.286637 1.886728 7171437 3
-0.607584 0.224680 1.886728 5394515 3
-0.669540 0.255659 1.886728 5921370 3
-0.630960 0.252615 1.864267 5658198 3
-0.653786 0.279892 1.842334 6645093 3
-0.623537 0.279892 1.842334 6645093 3
-0.592445 0.278387 0.699100 7236201 3
-0.577431 0.276693 0.694847 7565936 3
-0.561044 0.274260 0.688735 6644834 3
-0.541721 0.270261 0.678694 7894647 3
-0.533742 0.271873 0.682742 7236717 3
-0.585299 0.286369 0.690668 7894901 3
-0.570774 0.284780 0.686835 7434350 3
-0.559496 0.284780 0.686835 7829108 3
-0.541721 0.281405 0.678694 7828854 3
-0.582051 0.296057 0.686835 7763572 3
-0.570774 0.296057 0.686835 7171435 3
-0.499304 0.255276 0.767675 6907238 3
-0.499382 0.261928 0.787680 7236201 3
-0.493188 0.258084 0.739601 7762545 3
-0.479503 0.257257 0.737231 7696754 3
-0.487599 0.268376 0.769093 8223096 3
-0.492183 0.278101 0.796964 8288887 3
-0.441516 0.279160 0.799998 9013128 3
-0.424182 0.276423 0.792156 8618881 3
-0.410524 0.275986 0.790901 8684417 3
-0.495350 0.264890 0.724993 7829108 3
-0.481915 0.264051 0.722696 7960440 3
-0.469370 0.263670 0.721652 8157305 3
-0.462003 0.266253 0.728722 7762545 3
-0.478060 0.282831 0.774094 8025715 3
-0.478019 0.290531 0.795169 9012610 3
-0.467038 0.291827 0.798718 9209482 3
-0.451621 0.290347 0.794665 8683649 3
-0.436496 0.288971 0.790901 8815749 3
-0.423377 0.288881 0.790653 8947846 3
-0.408461 0.287519 0.786927 8618624 3
-0.490806 0.274255 0.718341 8618881 3
-0.479011 0.274255 0.718341 8618370 3
-0.467217 0.274255 0.718341 8421245 3
-0.458688 0.276221 0.723491 8684417 3
-0.475126 0.293727 0.769344 8684417 3
-0.419544 0.290231 0.760186 8947589 3
-0.409807 0.292187 0.765310 8948100 3
-0.402538 0.296083 0.775516 8487038 3
-0.481962 0.280895 0.705398 8882053 3
-0.470381 0.280895 0.705398 8420991 3
-0.457130 0.279874 0.702833 7960951 3
-0.464956 0.299801 0.752877 8816003 3
-0.449631 0.297839 0.747947 8683647 3
-0.427713 0.291275 0.731466 8552063 3
-0.412025 0.288698 0.724993 9144200 3
-0.405311 0.292443 0.734397 9079175 3
-0.809523 0.214364 2.087979 5000268 3
-0.809523 0.248646 2.087979 5131854 3
-0.877280 0.272047 2.007672 5657939 3
-0.855281 0.275580 2.033746 6579041 3
-0.821889 0.275580 2.033746 6052443 3
-0.291760 0.226896 0.906001 8552577 3
-0.290081 0.240381 0.900789 8486786 3
-0.292980 0.257720 0.909790 9342095 3
-0.296588 0.274911 0.970474 9473681 3
-0.293195 0.287807 0.910456 9144716 3
-0.276047 0.285532 0.903261 9539474 3
1.019908 0.211033 2.446850 4144448 3
1.060083 0.211033 2.446850 4802637 3
1.019908 0.251207 2.446850 4144961 3
1.060083 0.251207 2.446850 4407879 3
1.019908 0.291382 2.446850 5263188 3
1.060083 0.291382 2.446850 5000270 3
-1.405070 0.201583 2.337290 2103838 3
-1.481822 0.239959 2.337290 3158064 3
-1.465317 0.243595 2.372703 3421236 3
-1.497843 0.274242 2.302918 3420723 3
-1.465317 0.282553 2.372703 5065802 3
-0.098864 0.250014 0.790901 10065565 3
-0.085879 0.250014 0.790901 9933979 3
-0.072893 0.250014 0.790901 9933979 3
-0.059495 0.248295 0.785464 10197151 3
-0.046984 0.250348 0.791958 9802393 3
-0.019527 0.233037 0.737196 10065820 3
-0.007204 0.226170 0.715473 10262944 3
-0.083462 0.255599 0.768645 10460323 3
-0.070663 0.254954 0.766706 10262944 3
-0.058432 0.256522 0.771421 10262944 3
-0.045921 0.257395 0.774046 10000284 3
-0.032861 0.254674 0.765864 10131871 3
-0.019018 0.238755 0.717991 9934492 3
-0.007159 0.236433 0.711008 10197664 3
-0.080766 0.259555 0.743816 10000287 3
-0.067483 0.255502 0.732200 9737115 3
-0.056133 0.258600 0.741079 10000287 3
-0.044005 0.258830 0.741737 10131873 3
-0.031457 0.255831 0.733143 10329252 3
-0.080666 0.271431 0.742894 10329252 3
-0.067780 0.268700 0.735421 10066080 3
-0.056133 0.270768 0.741079 10329252 3
-0.044005 0.271008 0.741737 10263718 3
-0.031348 0.266941 0.730606 10263716 3
-0.095569 0.291891 0.764534 10065567 3
-0.080805 0.284117 0.744173 10526631 3
-0.068099 0.282100 0.738891 10263459 3
-0.056216 0.283353 0.742173 10658476 3
-0.044030 0.283353 0.742173 10526892 3
-0.031450 0.279843 0.732978 10329513 3
-0.091208 0.290553 0.729651 10657706 3
-0.079458 0.291396 0.731768 10526631 3
-0.067463 0.291481 0.731983 10658217 3
-0.055869 0.293713 0.737588 10263718 3
-0.043676 0.293160 0.736199 10263720 3
-0.054478 0.298208 0.719220 10461097 3
-0.041972 0.293340 0.707479 10658476 3
-0.188198 0.217272 1.079989 8158334 3
-0.170466 0.217272 1.079989 8224127 3
-0.186909 0.233395 1.072592 8618885 3
-0.167011 0.230241 1.058097 9079436 3
-0.151687 0.233395 1.072592 8684678 3
-0.134077 0.233395 1.072592 8552579 3
-0.185638 0.249298 1.065295 8553092 3
-0.166595 0.246997 1.055465 8882057 3
-0.149324 0.247094 1.055878 8882057 3
-0.131052 0.245344 1.048398 9013130 3
-0.113360 0.244312 1.043989 8947337 3
-0.100944 0.256309 1.095257 9078923 3
-0.184383 0.264986 1.058097 8420991 3
-0.166240 0.263764 1.053215 9013130 3
-0.148633 0.263208 1.050996 9079182 3
-0.131322 0.263098 1.050558 9473681 3
-0.113360 0.261453 1.043989 9473681 3
-0.183997 0.281767 1.055878 9078921 3
-0.166240 0.281057 1.053215 9539474 3
-0.150024 0.283088 1.060827 9342354 3
-0.132328 0.282495 1.058607 9342095 3
-0.111868 0.274929 1.030253 9473681 3
-0.199066 0.295736 1.043989 9802644 3
-0.146930 0.294309 1.038954 9671320 3
-0.126514 0.286700 1.012091 9539476 3
0.094651 0.118858 1.702157 4473673 3
0.069736 0.153478 1.779528 5657689 3
0.094651 0.146805 1.702157 4868173 3
0.070537 0.184796 1.799982 5460310 3
0.096755 0.178636 1.739982 5460310 3
0.325305 0.321480 1.739982 7500404 3
0.361917 0.328787 1.779528 7302771 3
0.318233 0.342439 1.702157 8092541 3
0.353874 0.350049 1.739982 8224386 3
0.346181 0.370387 1.702157 8289666 3
0.382443 0.378618 1.739982 8092287 3
-0.450432 0.116163 2.174978 3947328 3
-0.479484 0.149793 2.145184 4539208 3
-0.450432 0.151873 2.174978 3750203 3
-0.479484 0.185015 2.145184 4210243 3
-0.444262 0.185015 2.145184 4670792 3
-0.554752 0.108619 2.033746 4143932 3
-0.588144 0.142012 2.033746 4670276 3
-0.547640 0.140191 2.007672 3946553 3
-0.514676 0.140191 2.007672 4407620 3
-0.588144 0.175404 2.033746 4736583 3
-0.554752 0.175404 2.033746 4407618 3
-1.771739 0.116163 2.174978 3222828 3
-1.712247 0.114571 2.145184 4077624 3
-1.758600 0.147769 2.116195 4275264 3
-1.771739 0.151873 2.174978 3880760 3
-1.736028 0.151873 2.174978 4341309 3
-1.701379 0.107227 2.007672 3025967 3
-1.735152 0.111516 2.087979 3025451 3
-1.723475 0.142012 2.033746 3552311 3
-1.701379 0.173155 2.007672 4276036 3
-1.735152 0.180081 2.087979 4012862 3
2.726690 0.195266 2.796400 5525581 3
2.723962 0.191840 2.747341 4605248 3
1.463164 0.206119 2.007672 4605512 3
1.463164 0.239083 2.007672 4408133 3
1.430200 0.272047 2.007672 4604999 3
1.463164 0.272047 2.007672 5000268 3
1.496128 0.272047 2.007672 4342338 3
-0.157026 0.314481 0.994838 9802905 3
-0.136754 0.305681 0.967000 9606039 3
-0.155096 0.326750 0.982612 10263456 3
-0.133883 0.314807 0.946698 10263969 3
-0.151257 0.334396 0.958291 10329250 3
-0.190859 0.310259 1.095257 9671060 3
-0.169993 0.305085 1.076992 9671062 3
-0.199484 0.313533 1.046179 9539474 3
-0.188971 0.324996 1.084426 9802646 3
-0.166194 0.315555 1.052926 10000027 3
-0.181440 0.329138 1.041204 9868952 3
-0.174844 0.333648 1.003355 10197917 3
-0.174844 0.350122 1.003355 10131870 3
0.020293 0.013268 3.195886 2894894 3
0.071311 0.013003 3.131968 2697254 3
0.019887 0.064426 3.131968 3026991 3
-1.522828 0.013003 3.131968 1775900 3
-1.501432 0.013268 3.195886 2235683 3
-1.522828 0.064426 3.131968 2169888 3
-1.639168 0.011019 2.654211 2893865 3
-1.667429 0.055540 2.699973 2498594 3
-1.697555 0.096542 2.609974 2695721 3
-1.654702 0.096542 2.609974 2630182 3
-1.611848 0.096542 2.609974 3353903 3
-2.486297 0.015479 3.728534 1709080 3
-2.425078 0.015479 3.728534 3090479 3
-2.486297 0.076698 3.728534 3090733 3
-1.771739 0.009030 2.174978 2367008 3
-1.736028 0.009030 2.174978 2499107 3
-1.736028 0.044741 2.174978 2367519 3
-1.771739 0.080452 2.174978 2169629 3
-1.712247 0.079349 2.145184 2893863 3
-0.684166 0.247910 0.875159 7171178 3
-0.674045 0.249483 0.880709 6776420 3
-0.669468 0.253221 0.893906 7236971 3
-0.645360 0.249574 0.881030 7565682 3
-0.644014 0.254764 0.899352 7500143 3
-0.623444 0.252414 0.891057 7565936 3
-0.699894 0.252405 0.842211 6775652 3
-0.692118 0.254632 0.849641 5393486 3
-0.679315 0.255063 0.851078 6446687 3
-0.665341 0.255063 0.851078 5986904 3
-0.648301 0.253862 0.847071 6184283 3
-0.623220 0.249391 0.832153 6644834 3
-0.687587 0.256485 0.811371 6315099 3
-0.688552 0.261919 0.828563 7038309 3
-0.675399 0.262094 0.829117 5854548 3
-0.668417 0.264721 0.837425 5986134 3
-0.657087 0.265699 0.840520 6644834 3
-0.643724 0.265880 0.841092 6710373 3
-0.619925 0.261664 0.827754 7039338 3
-0.695874 0.273058 0.821150 7630700 3
-0.695685 0.278378 0.837146 7235942 3
-0.678538 0.276989 0.832970 6775650 3
-0.665084 0.277082 0.833249 6117720 3
-0.657087 0.279500 0.840520 6710627 3
-0.643935 0.279781 0.841367 7039338 3
-0.623626 0.276898 0.832695 7565682 3
-0.604145 0.274260 0.824764 7236971 3
-0.694187 0.280413 0.803589 6643551 3
-0.699658 0.293791 0.841927 6907234 3
-0.683313 0.292711 0.838832 7170408 3
-0.665973 0.291151 0.834362 6842213 3
-0.655999 0.292814 0.839128 6644580 3
-0.641362 0.292423 0.838005 7434096 3
-0.617063 0.287512 0.823933 7434096 3
-0.677142 0.297715 0.814833 7236199 3
-0.654181 0.293417 0.803069 6513248 3
-0.640995 0.293417 0.803069 7631729 3
-0.630445 0.294649 0.806440 7302510 3
-0.623627 0.297715 0.814833 7565684 3
-0.601246 0.293324 0.802813 7960440 3
-0.735708 0.236752 0.835769 6710373 3
-0.727590 0.238590 0.842257 5526099 3
-0.717828 0.239950 0.847056 6644580 3
-0.712376 0.242832 0.857231 6841445 3
-0.719442 0.250184 0.883184 6578273 3
-0.705688 0.250449 0.884119 6315615 3
-0.744025 0.248668 0.829741 6249054 3
-0.720330 0.245239 0.818300 5986136 3
-0.720203 0.249856 0.833705 6973031 3
-0.713482 0.252320 0.841927 6776166 3
-0.736223 0.259541 0.821040 4670790 3
-0.716390 0.257260 0.813824 5393997 3
-0.731360 0.271219 0.815617 6644834 3
-0.712427 0.269125 0.809321 6315099 3
-0.726177 0.282593 0.809836 6183513 3
-0.710339 0.281586 0.806950 6051414 3
-0.700651 0.288508 0.826786 6578269 3
-0.769955 0.246654 0.984896 6447455 3
-0.755000 0.247052 0.986484 6381662 3
-0.743737 0.248653 0.931789 6644580 3
-0.724665 0.247365 0.926963 6776420 3
-0.714490 0.249124 0.933554 6315869 3
-0.717117 0.255522 0.957529 6710627 3
0.019122 -0.036944 3.011508 2960687 3
0.068568 -0.036944 3.011508 2894379 3
0.672028 0.305011 2.007672 6249824 3
0.622050 0.346869 2.060506 6447462 3
0.639064 0.337975 2.007672 6776427 3
0.606100 0.370939 2.007672 7500151 3
0.639064 0.370939 2.007672 6842221 3
1.050506 0.410509 1.176410 6645093 3
1.038584 0.424947 1.163059 7039853 3
1.070752 0.457796 1.199082 7236978 3
1.039362 0.472168 1.185732 7500663 3
1.019893 0.491636 1.185732 7500661 3
-1.519986 0.209533 1.759533 4079166 3
-1.519986 0.238423 1.759533 4408644 3
-1.712321 0.008554 2.060506 2564387 3
-1.701379 0.041299 2.007672 4275007 3
-1.712321 0.042386 2.060506 5261900 3
-1.712321 0.076217 2.060506 2301217 3
0.823247 0.314564 0.995100 6119010 3
0.836235 0.313309 0.991129 6250596 3
0.852508 0.313309 0.991129 6776938 3
0.803688 0.329582 0.991129 6447463 3
0.819961 0.329582 0.991129 6711147 3
0.836235 0.329582 0.991129 7105905 3
0.852508 0.329582 0.991129 6316389 3
0.800549 0.344504 0.987258 7565944 3
0.819961 0.345855 0.991129 6711148 3
0.836235 0.345855 0.991129 6513769 3
0.860022 0.348904 0.999865 6842733 3
0.816759 0.360714 0.987258 7829375 3
0.836235 0.362129 0.991129 6974066 3
0.816759 0.376924 0.987258 7303285 3
0.816759 0.393134 0.987258 7500663 3
0.748832 0.310803 0.983203 6118497 3
0.767604 0.344269 0.986583 7829115 3
0.777572 0.341532 0.978740 7171186 3
0.732247 0.359017 0.982612 7697532 3
0.745432 0.357602 0.978740 8158083 3
0.761502 0.357602 0.978740 7829115 3
0.770972 0.354567 0.970433 7829116 3
0.790580 0.356222 0.974964 7697530 3
0.732247 0.375150 0.982612 8092288 3
0.732933 0.367406 0.962328 7960702 3
0.742929 0.364558 0.954868 7763322 3
0.758607 0.364558 0.954868 7698042 3
0.787593 0.370824 0.971280 7500663 3
0.707325 0.369818 0.928706 7763323 3
0.725240 0.371183 0.932133 7829115 3
0.752963 0.377407 0.947764 8092800 3
0.787593 0.386771 0.971280 7500663 3
0.730026 0.380998 0.918893 8027007 3
0.781832 0.399773 0.964176 8027007 3
0.745570 0.396328 0.919457 7829628 3
0.599674 0.229629 1.242845 5460567 3
0.579268 0.250035 1.242845 6776681 3
0.590304 0.246128 1.223425 6644841 3
0.577185 0.279308 1.283594 6316130 3
0.579268 0.270441 1.242845 6644841 3
0.590304 0.266216 1.223425 6579048 3
0.591626 0.297053 1.269360 7434357 3
0.596255 0.289189 1.235758 7236978 3
0.564130 0.299446 0.999174 7894909 3
0.570912 0.294483 0.982612 7763323 3
0.584733 0.293322 0.978740 7894909 3
0.534649 0.299346 0.946959 8026494 3
0.548109 0.298209 0.943364 8421252 3
0.563598 0.298209 0.943364 8026494 3
-0.299256 0.311514 1.167351 9013641 3
-0.243013 0.313135 1.173423 9013130 3
-0.292722 0.323461 1.141863 9145229 3
-0.284648 0.336063 1.186352 9276561 3
-0.263478 0.333920 1.178786 9736855 3
-0.259869 0.348436 1.162642 9342097 3
-0.246176 0.348160 1.101380 9736600 3
-0.219056 0.317000 1.057745 9276302 3
-0.223663 0.341398 1.079989 9605780 3
-0.204004 0.338205 1.069887 9868439 3
-0.230278 0.342592 1.030253 9933979 3
-0.214202 0.343939 1.034305 9868952 3
-0.208038 0.362806 1.091041 10065818 3
-0.204016 0.373358 1.069946 10263199 3
-0.306448 0.240492 1.195408 7499889 3
-0.304127 0.258149 1.186352 8289405 3
-0.364306 0.278962 1.192055 8223612 3
-0.342923 0.277497 1.185794 7960440 3
-0.319524 0.274126 1.171391 8552577 3
-0.301279 0.275028 1.175243 8289659 3
-0.304720 0.297686 1.188669 8487295 3
-0.122679 0.302704 0.867468 10066591 3
-0.191205 0.312553 0.855442 9736602 3
-0.138666 0.320986 0.878523 10197664 3
-0.193842 0.308445 0.807893 10262944 3
-0.189170 0.323121 0.846334 10591909 3
-0.192668 0.319760 0.802999 10263199 3
-0.062751 0.315841 0.680863 10921389 3
-0.052200 0.319684 0.689147 10789803 3
-0.040860 0.319493 0.688735 10855596 3
-0.029470 0.318612 0.686835 10855596 3
-0.018193 0.318612 0.686835 11118766 3
-0.264410 0.216674 0.865185 9013128 3
-0.262691 0.229378 0.859559 8420993 3
-0.244962 0.226042 0.847056 8552579 3
-0.236630 0.231496 0.867495 8947850 3
-0.244878 0.239867 0.846765 9210509 3
-0.235440 0.244504 0.863135 9605780 3
-0.281601 0.262069 0.874454 9078925 3
-0.261272 0.256213 0.854915 9144718 3
-0.243479 0.252320 0.841927 9407890 3
-0.229655 0.252320 0.841927 9408147 3
-0.260271 0.284499 0.899991 8946569 3
-0.245494 0.284499 0.899991 9604499 3
-0.280083 0.275186 0.827547 9474192 3
-0.274321 0.283267 0.851849 9276302 3
-0.271269 0.295165 0.887628 9342095 3
-0.258237 0.296937 0.892960 9736085 3
-0.242704 0.295875 0.889764 9078155 3
-0.264820 0.286958 0.822346 10263197 3
-0.254565 0.290666 0.832970 10197404 3
-0.242669 0.292814 0.839128 9867671 3
-0.229655 0.293791 0.841927 9867671 3
-0.217445 0.295987 0.848219 9605014 3
-0.204204 0.296984 0.851078 9802393 3
-0.207754 0.296101 0.810415 10723495 3
-0.090417 0.246920 0.572840 10920876 3
-0.081235 0.247600 0.574416 10460584 3
-0.072001 0.248281 0.575996 10920876 3
-0.062978 0.250004 0.579994 10724008 3
-0.053868 0.251935 0.584474 10592422 3
-0.044415 0.252754 0.586374 10790060 3
-0.034666 0.251870 0.584322 10855855 3
-0.025136 0.252518 0.585827 10526888 3
-0.015654 0.254738 0.590978 10724521 3
-0.079432 0.251326 0.561666 10855085 3
-0.070925 0.253885 0.567386 10921389 3
-0.061581 0.253771 0.567130 10987180 3
-0.052000 0.252466 0.564213 10724010 3
-0.043770 0.258569 0.577854 10855596 3
-0.033855 0.255349 0.570657 10789803 3
-0.024339 0.253828 0.567258 10855596 3
-0.015128 0.255559 0.571127 10855594 3
-0.193770 0.266815 0.670040 10460578 3
-0.191085 0.273966 0.660753 10197406 3
-0.161647 0.279339 0.673711 10526371 3
-0.195142 0.275235 0.638529 10592164 3
-0.185603 0.276644 0.641797 10328992 3
-0.175065 0.276644 0.641797 10657957 3
-0.193613 0.283481 0.633526 10394785 3
-0.184845 0.286009 0.639177 10328992 3
-0.290635 0.239147 0.719171 9407888 3
-0.277556 0.238057 0.715893 9342093 3
-0.270277 0.242065 0.727945 10000023 3
-0.258176 0.241925 0.727525 9539472 3
-0.290217 0.250594 0.718136 9736337 3
-0.276368 0.248741 0.712827 9275786 3
-0.263464 0.247614 0.709597 8881028 3
-0.251386 0.247193 0.708391 9078921 3
-0.240721 0.248190 0.711247 9605265 3
-0.290300 0.262460 0.718341 9407372 3
-0.283925 0.267567 0.732319 9670544 3
-0.276055 0.271655 0.743508 9802130 3
-0.253188 0.260681 0.713470 10262681 3
-0.237074 0.255931 0.700471 9671058 3
-0.247203 0.280472 0.767639 10460576 3
-0.237825 0.284329 0.778194 10131611 3
-0.228008 0.288068 0.788430 10394015 3
-0.217250 0.290999 0.796449 9999257 3
-0.296651 0.269313 0.705398 9605265 3
-0.285069 0.269313 0.705398 9539472 3
-0.276937 0.272710 0.714297 9934230 3
-0.270139 0.277779 0.727572 9407886 3
-0.263082 0.283040 0.741351 9605265 3
-0.252384 0.284702 0.745707 10328988 3
-0.243346 0.288503 0.755662 10394783 3
-0.227801 0.284584 0.745395 10065820 3
-0.220889 0.291615 0.763812 9342097 3
-0.211465 0.295978 0.775240 11710645 3
-0.254193 0.285237 0.716301 10131609 3
-0.243122 0.286049 0.718341 9605265 3
-0.235829 0.291615 0.732319 10263199 3
-1.489504 0.328171 1.631234 4342338 3
-1.462720 0.328171 1.631234 4276545 3
-1.435937 0.328171 1.631234 4473922 3
-1.411783 0.335153 1.665941 4473665 3
-1.493842 0.362507 1.665941 5131852 3
-1.466489 0.362507 1.665941 4934216 3
-0.242023 0.215920 1.168645 7500400 3
-0.284648 0.238670 1.186352 7894647 3
-0.253640 0.228293 1.134771 8092026 3
-0.230008 0.223436 1.110627 8224125 3
-0.284648 0.258149 1.186352 8223612 3
-0.251815 0.245148 1.126607 8420993 3
-0.542080 0.219823 0.877759 6513507 3
-0.539760 0.233232 0.874002 7763315 3
-0.519945 0.230807 0.864912 7763061 3
-0.568391 0.253964 0.896527 7894901 3
-0.532336 0.244177 0.861981 8355452 3
-0.503421 0.237221 0.837425 8092280 3
-0.598421 0.244835 0.816951 7499889 3
-0.584437 0.244596 0.816153 7368557 3
-0.581476 0.249068 0.831074 7500143 3
-0.578161 0.253599 0.846193 7499373 3
-0.561803 0.252492 0.842499 7696239 3
-0.553550 0.255063 0.851078 7828338 3
-0.539214 0.254891 0.850506 8025717 3
-0.515978 0.250392 0.835494 7828336 3
-0.593210 0.256000 0.809836 7565682 3
-0.557089 0.257743 0.815353 7301994 3
-0.521676 0.253545 0.802072 6249306 3
-0.519632 0.259092 0.819620 6841443 3
-0.503703 0.257827 0.815617 6183511 3
-0.574023 0.266561 0.801610 5657939 3
-0.555710 0.270460 0.813334 6380892 3
-0.587813 0.280022 0.802468 6908006 3
-0.480145 0.232162 0.869991 7763315 3
-0.467650 0.233054 0.873333 7171178 3
-0.487881 0.236354 0.834362 7829108 3
-0.475290 0.236907 0.836314 7960694 3
-0.464657 0.238497 0.841927 8158073 3
-0.450833 0.238497 0.841927 7500143 3
-0.435403 0.237620 0.838832 7762545 3
-0.492427 0.245490 0.819137 7894129 3
-0.468691 0.240218 0.801546 8092278 3
-0.460572 0.242876 0.810415 8355452 3
-0.450283 0.244515 0.815884 7105385 3
-0.439176 0.245796 0.820157 8026233 3
-0.428094 0.247172 0.824750 8157303 3
-0.421118 0.251087 0.837813 8617854 3
-0.400172 0.264521 0.882636 9012612 3
-0.486836 0.256000 0.809836 8157301 3
-0.468691 0.253379 0.801546 7894647 3
-0.457585 0.254521 0.805160 7960440 3
-0.450136 0.257827 0.815617 8026233 3
-0.437032 0.257996 0.816153 8421245 3
-0.427951 0.260627 0.824475 9013382 3
-0.418273 0.263054 0.832153 8618624 3
-0.409640 0.266325 0.842499 8487038 3
-0.495322 0.266706 0.802047 7762543 3
-0.485256 0.268422 0.807208 8420473 3
-0.472003 0.268422 0.807208 8026235 3
-0.458749 0.268422 0.807208 8223612 3
-0.445496 0.268422 0.807208 8947335 3
-0.432382 0.268509 0.807470 8947589 3
-0.421024 0.269726 0.811129 8881796 3
-0.404304 0.267476 0.804362 8947589 3
-0.485256 0.281676 0.807208 8354680 3
-0.471851 0.281586 0.806950 8486016 3
-0.456397 0.280232 0.803069 8420477 3
0.038875 0.301344 0.699100 10921389 3
0.015746 0.309452 0.691567 11118768 3
0.027396 0.312823 0.699100 10921389 3
0.038875 0.312823 0.699100 10855596 3
0.049160 0.305407 0.682527 10987182 3
0.113107 0.264104 0.663232 10921389 3
0.130703 0.278387 0.699100 10987182 3
0.176002 0.245507 0.616529 10592424 3
0.184650 0.243561 0.611643 10395045 3
0.126196 0.279870 0.674993 10921389 3
0.140649 0.286742 0.691567 10658217 3
0.166291 0.256264 0.618058 10789292 3
0.176002 0.255630 0.616529 10394791 3
0.184609 0.253547 0.611506 10394791 3
0.103901 0.262614 0.609248 10987182 3
0.115223 0.265654 0.616300 10986928 3
0.124409 0.263676 0.611713 11052975 3
0.165400 0.264984 0.614747 10855085 3
0.174178 0.262997 0.610137 10591913 3
0.154540 0.273720 0.611713 11052975 3
0.162843 0.270825 0.605242 11315636 3
0.171941 0.269509 0.602302 10986671 3
0.004388 0.241130 0.691014 10395043 3
0.015847 0.242876 0.696019 10658217 3
0.004342 0.249853 0.683836 10263457 3
0.004388 0.263821 0.691014 10855083 3
0.015883 0.266321 0.697560 10460325 3
0.004349 0.272760 0.684969 10920876 3
0.015734 0.275167 0.691014 9539223 3
0.027320 0.277617 0.697167 10855083 3
0.095827 0.277112 0.695899 11052975 3
0.004300 0.280796 0.677226 10921389 3
0.015691 0.285739 0.689147 10855596 3
0.027320 0.289064 0.697167 10658217 3
0.038875 0.289866 0.699100 11052975 3
0.050353 0.289866 0.699100 11184048 3
0.061456 0.288102 0.694847 10920876 3
0.072662 0.287300 0.692913 10724010 3
0.075688 0.258754 0.624065 10789803 3
0.004227 0.286951 0.665709 11118768 3
0.015513 0.293685 0.681332 11052975 3
0.027246 0.299692 0.695267 10987182 3
0.049746 0.297710 0.690668 10789803 3
0.060027 0.292548 0.678694 11250354 3
0.069824 0.287015 0.665857 11184561 3
0.004252 0.299656 0.669675 10592424 3
0.059004 0.298516 0.667128 11184561 3
0.056892 0.298394 0.643251 11250354 3
0.063092 0.279100 0.601658 11052975 3
0.007259 0.305066 1.143185 9210769 3
0.066286 0.318107 1.192055 9539987 3
0.084571 0.313336 1.174178 9210509 3
0.025734 0.320170 1.130245 9671319 3
0.046714 0.337679 1.192055 9605780 3
0.064635 0.329268 1.162363 9737112 3
0.082935 0.326179 1.151459 9934234 3
0.099840 0.319772 1.128841 9671062 3
0.063391 0.341647 1.139986 9802905 3
0.080150 0.333498 1.112795 9736855 3
0.061879 0.351769 1.112795 10131358 3
0.702473 0.317484 1.059361 7434870 3
0.797576 0.340880 1.025105 7236979 3
0.784646 0.367419 1.052926 7565944 3
0.770833 0.353170 1.012091 7829116 3
0.751343 0.376678 1.030951 7763323 3
0.751343 0.393606 1.030951 7697529 3