# .PCD v0.7 - Point Cloud Data file format
VERSION 0.7
FIELDS x y z rgb label
SIZE 4 4 4 4 4
TYPE F F F F U
COUNT 1 1 1 1 1
WIDTH 1344
HEIGHT 1
VIEWPOINT 0 0 0 1 0 0 0
POINTS 1344
DATA ascii
-0.31846 0.0374961 0.359405 1.33709e-38 3
-0.293426 0.0351972 0.33737 1.41099e-38 3
-0.28731 0.0351229 0.336658 1.623e-38 3
-0.324329 0.043365 0.359405 1.845e-39 3
-0.317032 0.0431705 0.357794 1.37397e-38 3
-0.293426 0.0407062 0.33737 1.35567e-38 3
-0.287917 0.0407062 0.33737 1.64144e-38 3
-0.281219 0.0405348 0.335949 1.33709e-38 3
-0.336257 0.0501372 0.366 2.3971e-39 3
-0.322875 0.0490131 0.357794 1.9372e-39 3
-0.315617 0.0487943 0.356196 1.13429e-38 3
-0.293426 0.0462153 0.33737 1.28184e-38 3
-0.28731 0.0461178 0.336658 1.73364e-38 3
-0.28004 0.0458277 0.334541 1.43851e-38 3
3.72443 0.68312 4.98675 2.39637e-39 1
1.97617 0.248407 1.81336 1.65881e-39 3
-0.336257 0.0561138 0.366 2.67368e-39 3
-0.322875 0.0548556 0.357794 2.67404e-39 3
-0.315617 0.0546107 0.356196 1.27248e-38 3
-0.292191 0.0515066 0.335949 1.33709e-38 3
-0.286705 0.0515066 0.335949 1.89037e-38 3
3.72443 0.76455 4.98675 1.93539e-39 1
2.22953 0.313662 2.04585 1.56661e-39 3
2.05243 0.284484 1.85553 1.93539e-39 3
1.9469 0.265931 1.73452 2.67296e-39 3
-0.3332 0.0615259 0.362673 2.58184e-39 3
-0.321433 0.0604272 0.356196 3.78038e-39 3
-0.311446 0.0596286 0.351489 1.42925e-38 3
-0.291577 0.0568727 0.335244 1.34631e-38 3
-0.286705 0.0569924 0.335949 1.93651e-38 3
2.38526 0.36583 2.15643 1.93611e-39 3
2.13232 0.322279 1.89971 1.84356e-39 3
-0.322875 0.0665408 0.357794 4.79454e-39 3
-0.31008 0.0650815 0.349947 1.52141e-38 3
-0.291577 0.062347 0.335244 1.28177e-38 3
-0.286705 0.0624783 0.335949 2.07465e-38 3
2.52156 0.42396 2.27966 2.1205e-39 3
2.59601 0.42396 2.27966 1.8432e-39 3
-0.31008 0.070796 0.349947 1.60438e-38 3
-0.294048 0.0683961 0.338085 1.42932e-38 3
2.84692 0.520693 2.57381 1.75172e-39 3
2.79867 0.504421 2.49337 2.02831e-39 3
-0.291577 0.0732957 0.335244 1.35556e-38 3
-0.0877944 0.0770171 0.352265 2.67512e-39 3
-0.0822236 0.0771875 0.353044 2.8595e-39 3
-0.0761218 0.0768475 0.351489 1.43825e-38 3
-0.0710078 0.0775305 0.354613 3.50344e-39 3
-0.0653624 0.0777032 0.355403 4.42539e-39 3
-0.0595589 0.0777032 0.355403 2.85878e-39 3
-0.0366715 0.0784017 0.358598 3.31976e-39 3
0.837941 0.212736 0.973024 2.39602e-39 3
-1.28603 0.328899 1.39979 3.87258e-39 3
-1.26318 0.328899 1.39979 4.33464e-39 3
-0.295808 0.0784404 0.333841 1.83498e-38 3
-0.290357 0.0784404 0.333841 1.56761e-38 3
-0.281812 0.0791024 0.336658 1.95469e-38 3
-0.0877944 0.0827694 0.352265 3.50487e-39 3
-0.0822236 0.0829525 0.353044 4.24172e-39 3
-0.0762898 0.0827694 0.352265 8.75858e-39 3
-0.0711659 0.0835067 0.355403 4.51759e-39 3
-0.0653624 0.0835067 0.355403 4.1488e-39 3
-0.0592948 0.0831364 0.353827 4.88708e-39 3
-0.0537554 0.0835067 0.355403 5.44026e-39 3
-0.0365893 0.0840684 0.357794 3.78073e-39 3
0.233162 0.312454 1.3298 3.68854e-39 3
0.254877 0.312454 1.3298 3.59563e-39 3
0.276592 0.312454 1.3298 4.51759e-39 3
0.576027 0.288419 1.22751 1.65952e-39 3
0.759699 0.367593 1.56447 2.39745e-39 3
0.741621 0.347172 1.47756 1.75208e-39 3
0.765749 0.347172 1.47756 3.2265e-39 3
0.775515 0.340859 1.45069 3.50236e-39 3
0.799204 0.340859 1.45069 2.57969e-39 3
0.843543 0.225871 0.961301 1.75137e-39 3
2.80489 0.60475 2.57381 1.75208e-39 3
-0.287466 0.0786281 0.312894 1.75208e-39 3
-0.282357 0.0786281 0.312894 5.34915e-39 3
-0.294576 0.0835423 0.33245 2.03788e-38 3
-0.289147 0.0835423 0.33245 1.60449e-38 3
-0.280628 0.0842443 0.335244 1.87161e-38 3
-0.0820421 0.0885217 0.352265 4.24172e-39 3
-0.0759545 0.0881325 0.350716 9.40359e-39 3
-0.0708503 0.0889142 0.353827 9.03445e-39 3
-0.0649286 0.0887175 0.353044 9.127e-39 3
-0.058903 0.0883267 0.351489 4.88672e-39 3
-0.0532807 0.0885217 0.352265 4.61013e-39 3
-0.0477392 0.0889142 0.353827 4.33319e-39 3
-0.0422424 0.0895096 0.356196 5.80832e-39 3
-0.0365074 0.0897099 0.356993 4.14952e-39 3
0.41477 0.32339 1.2869 3.41231e-39 3
0.385981 0.286431 1.13983 2.85878e-39 3
0.456799 0.32339 1.2869 3.04317e-39 3
0.420205 0.284399 1.13174 1.84391e-39 3
0.483239 0.313284 1.24669 4.97856e-39 3
0.488337 0.30379 1.20891 1.75171e-39 3
0.508077 0.30379 1.20891 2.95026e-39 3
0.555983 0.308464 1.22751 2.30489e-39 3
0.785246 0.39314 1.56447 3.68819e-39 3
0.795201 0.38558 1.53438 3.22721e-39 3
0.789877 0.371299 1.47756 1.8432e-39 3
0.799204 0.364548 1.45069 2.30418e-39 3
0.822893 0.364548 1.45069 2.39673e-39 3
0.802793 0.345692 1.37565 2.48893e-39 3
2.85496 0.668338 2.6596 1.75172e-39 3
-0.285229 0.0830858 0.310459 2.76696e-39 3
-0.28016 0.0830858 0.310459 3.32085e-39 3
-0.285577 0.0878726 0.328346 1.91803e-38 3
-0.277135 0.0886018 0.33107 1.75175e-38 3
-0.0703822 0.0940663 0.351489 1.91763e-38 3
-0.0646426 0.0940663 0.351489 4.70161e-39 3
-0.0586446 0.0936537 0.349947 5.80868e-39 3
-0.0529302 0.0936537 0.349947 7.65259e-39 3
-0.0474237 0.0940663 0.351489 5.53209e-39 3
-0.0419614 0.094692 0.353827 6.26966e-39 3
-0.0365074 0.0955393 0.356993 5.90159e-39 3
-0.0306095 0.0953261 0.356196 6.54696e-39 3
0.276592 0.355884 1.3298 5.44026e-39 3
0.293417 0.35005 1.308 5.16367e-39 3
0.327801 0.30288 1.13174 4.5183e-39 3
0.348755 0.305043 1.13983 4.05768e-39 3
0.364763 0.30288 1.13174 4.2417e-39 3
0.377883 0.298644 1.11592 4.05732e-39 3
0.385327 0.290518 1.08555 3.13609e-39 3
0.403053 0.290518 1.08555 2.85806e-39 3
0.468596 0.323531 1.20891 3.31868e-39 3
0.453947 0.300747 1.12377 3.68818e-39 3
0.456233 0.290518 1.08555 4.0566e-39 3
0.51994 0.318702 1.19087 3.22757e-39 3
0.800951 0.427061 1.59576 3.04282e-39 3
0.795201 0.410635 1.53438 1.65989e-39 3
0.775515 0.388237 1.45069 2.94991e-39 3
0.757866 0.368156 1.37565 2.76516e-39 3
0.763312 0.35005 1.308 3.5038e-39 3
0.772015 0.344404 1.2869 2.12194e-39 3
0.793029 0.344404 1.2869 2.39853e-39 3
0.801122 0.338937 1.26648 2.67332e-39 3
0.694941 0.260403 0.973024 2.30489e-39 3
0.677768 0.248291 0.927767 3.13465e-39 3
0.70107 0.251212 0.938682 3.87258e-39 3
1.06082 0.323531 1.20891 2.48965e-39 3
1.08056 0.323531 1.20891 2.21162e-39 3
1.08388 0.318702 1.19087 2.02724e-39 3
1.10332 0.318702 1.19087 2.3031e-39 3
1.10626 0.314015 1.17335 3.04066e-39 3
1.17327 0.292507 1.09299 1.47513e-39 3
-0.283027 0.0874747 0.308062 2.21379e-39 3
-0.277996 0.0874747 0.308062 3.9655e-39 3
-0.265038 0.0899045 0.316619 1.89001e-38 3
-0.268388 0.0928522 0.327 4.60978e-39 3
-0.0699202 0.0991507 0.349182 1.807e-38 3
-0.0643591 0.0993681 0.349947 1.26304e-38 3
-0.0586446 0.0993681 0.349947 1.07872e-38 3
-0.0528144 0.0991507 0.349182 8.66674e-39 3
-0.0473195 0.0995865 0.350716 5.44026e-39 3
-0.0419614 0.10047 0.353827 6.17782e-39 3
-0.0365893 0.101596 0.357794 7.19233e-39 3
-0.0308158 0.101824 0.358598 6.5466e-39 3
0.127379 0.809141 2.84957 5.99451e-39 3
0.162317 0.755198 2.6596 6.82462e-39 3
0.284102 0.359618 1.26648 5.16475e-39 3
0.295405 0.348553 1.22751 3.59742e-39 3
0.297162 0.328347 1.15635 3.78037e-39 3
0.313771 0.325985 1.14803 4.79417e-39 3
0.327801 0.321361 1.13174 4.33391e-39 3
0.348755 0.323656 1.13983 3.78109e-39 3
0.364763 0.321361 1.13174 4.61012e-39 3
0.375259 0.314666 1.10817 3.5045e-39 3
0.385327 0.308244 1.08555 3.68927e-39 3
0.397643 0.304107 1.07098 3.87366e-39 3
0.454814 0.333176 1.17335 3.59526e-39 3
0.467104 0.328347 1.15635 3.31868e-39 3
0.472297 0.319098 1.12377 4.51758e-39 3
0.497657 0.323656 1.13983 3.04246e-39 3
0.800951 0.453119 1.59576 1.84428e-39 3
0.725446 0.397473 1.39979 3.2265e-39 3
0.636617 0.338148 1.19087 3.68747e-39 3
0.60214 0.310355 1.09299 4.05625e-39 3
0.587781 0.294233 1.03621 2.48928e-39 3
0.604701 0.294233 1.03621 1.38294e-39 3
0.638199 0.302079 1.06384 2.95026e-39 3
0.733848 0.338148 1.19087 2.85771e-39 3
0.801122 0.359618 1.26648 2.48893e-39 3
0.713875 0.290461 1.02292 3.4098e-39 3
0.70352 0.279703 0.985037 3.04101e-39 3
0.702265 0.272963 0.961301 3.50164e-39 3
0.717963 0.272963 0.961301 2.48893e-39 3
1.05325 0.353999 1.24669 2.21414e-39 3
1.04108 0.343272 1.20891 2.39853e-39 3
1.06082 0.343272 1.20891 3.04282e-39 3
1.08056 0.343272 1.20891 2.12015e-39 3
1.08388 0.338148 1.19087 2.11871e-39 3
1.10332 0.338148 1.19087 3.9637e-39 3
1.10626 0.333176 1.17335 1.93539e-39 3
1.12542 0.333176 1.17335 1.93611e-39 3
1.02522 0.279703 0.985037 2.30417e-39 3
1.14198 0.302079 1.06384 2.95026e-39 3
1.26017 0.328347 1.15635 2.1205e-39 3
1.31723 0.338148 1.19087 2.0283e-39 3
-0.275866 0.0917963 0.305701 4.24209e-39 3
-0.27509 0.093225 0.310459 1.98264e-38 3
-0.0639384 0.104396 0.34766 1.13401e-38 3
-0.0585163 0.104853 0.349182 7.83698e-39 3
-0.052699 0.104624 0.348419 8.6671e-39 3
-0.0471124 0.104853 0.349182 1.18018e-38 3
-0.0416841 0.105545 0.351489 6.82319e-39 3
-0.0365074 0.107198 0.356993 7.28417e-39 3
-0.0308852 0.107923 0.359405 7.00758e-39 3
0.162317 0.798628 2.6596 7.56291e-39 3
0.284102 0.380299 1.26648 5.71792e-39 3
0.290929 0.363013 1.20891 6.27002e-39 3
0.299331 0.349764 1.16479 6.08491e-39 3
0.33041 0.363013 1.20891 4.88637e-39 3
0.330142 0.342269 1.13983 3.78074e-39 3
0.348755 0.342269 1.13983 4.79524e-39 3
0.357163 0.332761 1.10817 4.61084e-39 3
0.362666 0.321595 1.07098 5.16438e-39 3
0.435716 0.368597 1.22751 2.67547e-39 3
0.448855 0.363013 1.20891 2.39781e-39 3
0.454814 0.352336 1.17335 3.41088e-39 3
0.460432 0.342269 1.13983 2.21269e-39 3
0.472297 0.337448 1.12377 4.70197e-39 3
0.497657 0.342269 1.13983 2.85878e-39 3
0.541183 0.323768 1.07822 2.39745e-39 3
0.530134 0.307164 1.02292 4.97893e-39 3
0.526584 0.295788 0.985037 2.30526e-39 3
0.523288 0.285224 0.949857 3.04282e-39 3
0.538799 0.285224 0.949857 2.67404e-39 3
0.55431 0.285224 0.949857 2.39709e-39 3
0.547027 0.273815 0.911863 2.76587e-39 3
0.546309 0.266209 0.886533 2.85771e-39 3
0.753294 0.357594 1.19087 2.67332e-39 3
0.706225 0.311154 1.03621 2.85735e-39 3
0.687435 0.295788 0.985037 2.48784e-39 3
0.694941 0.292181 0.973024 1.65808e-39 3
0.717963 0.288661 0.961301 2.21234e-39 3
1.02134 0.363013 1.20891 1.38438e-39 3
1.04108 0.363013 1.20891 3.0439e-39 3
1.06082 0.363013 1.20891 3.04282e-39 3
1.06443 0.357594 1.19087 1.84356e-39 3
1.06794 0.352336 1.17335 2.94955e-39 3
1.0871 0.352336 1.17335 1.751e-39 3
1.09023 0.347229 1.15635 3.1343e-39 3
0.98482 0.288661 0.961301 2.58076e-39 3
0.954517 0.275389 0.917103 1.65881e-39 3
1.00412 0.285224 0.949857 1.47441e-39 3
1.08416 0.303276 1.00997 1.84392e-39 3
1.15936 0.319451 1.06384 2.76587e-39 3
1.35693 0.363013 1.20891 2.11978e-39 3
-0.275579 0.0949689 0.299955 1.47694e-39 3
-0.270681 0.0949689 0.299955 3.59744e-39 3
-0.274024 0.0979136 0.309256 2.05647e-38 3
-0.0524699 0.109834 0.346904 8.85185e-39 3
-0.0469071 0.110073 0.34766 1.32776e-38 3
-0.0415013 0.110797 0.349947 9.49794e-39 3
-0.0366715 0.113536 0.358598 7.28525e-39 3
-0.031237 0.115088 0.363499 6.73207e-39 3
0.152172 0.789429 2.49337 8.30119e-39 3
0.270441 0.355799 1.12377 6.54661e-39 3
0.335494 0.388642 1.22751 4.88708e-39 3
0.325493 0.355799 1.12377 4.05732e-39 3
0.346282 0.358322 1.13174 5.62572e-39 3
0.352271 0.346051 1.09299 4.79487e-39 3
0.360249 0.336823 1.06384 4.24314e-39 3
0.37512 0.334592 1.05679 3.68962e-39 3
0.442156 0.377041 1.19087 3.50415e-39 3
0.454814 0.371496 1.17335 4.241e-39 3
0.473974 0.371496 1.17335 4.0566e-39 3
0.479044 0.360882 1.13983 3.13537e-39 3
0.497657 0.360882 1.13983 3.22756e-39 3
0.469336 0.328074 1.03621 3.32084e-39 3
0.480023 0.323868 1.02292 3.04425e-39 3
0.466803 0.304358 0.961301 3.50487e-39 3
0.482501 0.304358 0.961301 2.9517e-39 3
0.498198 0.304358 0.961301 5.5321e-39 3
0.507778 0.300735 0.949857 3.13501e-39 3
0.517132 0.297197 0.938682 1.75208e-39 3
0.526269 0.293741 0.927767 3.22721e-39 3
0.541419 0.293741 0.927767 4.42611e-39 3
0.547027 0.288705 0.911863 2.5822e-39 3
0.549361 0.282254 0.891486 1.75208e-39 3
0.554623 0.277601 0.876791 2.12087e-39 3
0.706225 0.328074 1.03621 1.47441e-39 3
0.686568 0.304358 0.961301 2.39672e-39 3
0.702265 0.304358 0.961301 4.79346e-39 3
0.717963 0.304358 0.961301 2.12015e-39 3
0.742607 0.30807 0.973024 1.75208e-39 3
0.777459 0.315771 0.99735 3.31941e-39 3
0.793745 0.315771 0.99735 2.02867e-39 3
0.810031 0.315771 0.99735 3.4116e-39 3
0.931062 0.355799 1.12377 3.96478e-39 3
0.991298 0.371496 1.17335 1.29218e-39 3
0.995814 0.366112 1.15635 2.30526e-39 3
1.04499 0.377041 1.19087 2.12087e-39 3
1.06443 0.377041 1.19087 1.75208e-39 3
1.08388 0.377041 1.19087 2.39673e-39 3
1.10332 0.377041 1.19087 2.12015e-39 3
0.969123 0.304358 0.961301 2.48893e-39 3
0.94367 0.287065 0.906682 3.22649e-39 3
0.969492 0.290365 0.917103 2.02795e-39 3
1.01963 0.300735 0.949857 1.93611e-39 3
1.10065 0.319769 1.00997 1.93575e-39 3
1.27905 0.366112 1.15635 2.02794e-39 3
1.39933 0.394714 1.24669 1.65916e-39 3
1.74731 0.485802 1.53438 2.2127e-39 3
-0.271496 0.0983874 0.295511 3.31941e-39 3
-0.266671 0.0983874 0.295511 4.24244e-39 3
-0.268974 0.102964 0.309256 2.09327e-38 3
-0.169341 0.0952137 0.285978 1.18993e-38 3
-0.0468052 0.115498 0.346904 1.6136e-38 3
-0.0411404 0.115498 0.346904 1.2356e-38 3
-0.0367541 0.11966 0.359405 1.03281e-38 3
-0.031237 0.121023 0.363499 9.03732e-39 3
0.350151 0.402494 1.20891 7.00866e-39 3
0.3547 0.366408 1.10052 5.16403e-39 3
0.409373 0.402494 1.20891 4.42718e-39 3
0.429114 0.402494 1.20891 3.32084e-39 3
0.448855 0.402494 1.20891 2.67367e-39 3
0.461602 0.396487 1.19087 2.85806e-39 3
0.362875 0.276715 0.831125 4.51938e-39 3
0.376447 0.276715 0.831125 4.24279e-39 3
0.394124 0.279627 0.839874 4.1506e-39 3
0.407839 0.279627 0.839874 2.39888e-39 3
0.440083 0.291919 0.876791 2.76766e-39 3
0.486476 0.312525 0.938682 2.30633e-39 3
0.495969 0.308891 0.927767 4.15024e-39 3
0.505244 0.30534 0.917103 4.88781e-39 3
0.52022 0.30534 0.917103 2.39853e-39 3
0.506109 0.288746 0.867261 4.6105e-39 3
0.531832 0.295162 0.886533 4.42611e-39 3
0.537353 0.290324 0.872 4.6105e-39 3
0.545629 0.287185 0.862573 3.13501e-39 3
0.556705 0.285641 0.857935 5.43991e-39 3
0.617168 0.308891 0.927767 4.14881e-39 3
0.632318 0.308891 0.927767 3.68783e-39 3
0.605242 0.288746 0.867261 1.93575e-39 3
0.619404 0.288746 0.867261 5.62393e-39 3
0.662364 0.301871 0.906682 3.41124e-39 3
0.692918 0.308891 0.927767 2.67404e-39 3
0.73366 0.320056 0.961301 4.05697e-39 3
0.758496 0.323959 0.973024 2.67512e-39 3
0.783946 0.327958 0.985037 3.13609e-39 3
0.800031 0.327958 0.985037 3.78147e-39 3
0.826317 0.332058 0.99735 3.68819e-39 3
0.842603 0.332058 0.99735 2.76623e-39 3
0.858889 0.332058 0.99735 3.96478e-39 3
1.0147 0.384994 1.15635 2.30526e-39 3
1.04878 0.390656 1.17335 2.58184e-39 3
0.989179 0.332058 0.99735 2.48893e-39 3
0.924565 0.30534 0.917103 3.0421e-39 3
0.908223 0.295162 0.886533 1.84356e-39 3
0.969492 0.30534 0.917103 3.59528e-39 3
0.995916 0.308891 0.927767 1.93539e-39 3
1.03514 0.316245 0.949857 2.76551e-39 3
1.11715 0.336261 1.00997 2.39672e-39 3
1.39933 0.415072 1.24669 2.12013e-39 3
1.74731 0.510858 1.53438 2.0283e-39 3
-0.270494 0.102832 0.294421 1.93576e-39 3
-0.265687 0.102832 0.294421 3.87366e-39 3
-0.274024 0.108014 0.309256 2.05632e-38 3
-0.250718 0.108857 0.311672 5.7172e-39 3
-0.180623 0.100969 0.289087 8.02067e-39 3
-0.178489 0.102454 0.293338 1.31868e-38 3
-0.171804 0.101336 0.290138 1.23606e-38 3
-0.164671 0.0998835 0.285978 1.30978e-38 3
-0.0408739 0.120378 0.344657 1.4385e-38 3
-0.0313083 0.127249 0.364329 9.95855e-39 3
0.0993489 0.126959 0.363499 6.2693e-39 3
0.105525 0.127249 0.364329 5.44026e-39 3
0.429114 0.422235 1.20891 2.95097e-39 3
0.442156 0.415933 1.19087 3.78002e-39 3
0.461602 0.415933 1.19087 3.04245e-39 3
0.481048 0.415933 1.19087 2.67439e-39 3
0.319363 0.265405 0.759886 4.14952e-39 3
0.334961 0.267957 0.767192 7.83734e-39 3
0.357811 0.275916 0.78998 3.13645e-39 3
0.370711 0.275916 0.78998 3.50559e-39 3
0.383611 0.275916 0.78998 6.36365e-39 3
0.377807 0.262901 0.752717 3.87401e-39 3
0.386453 0.260444 0.745682 4.61049e-39 3
0.398629 0.260444 0.745682 3.41303e-39 3
0.410806 0.260444 0.745682 1.66168e-39 3
0.44811 0.275916 0.78998 4.15025e-39 3
0.495341 0.296463 0.848808 7.00831e-39 3
0.523114 0.304563 0.872 3.78181e-39 3
0.531544 0.30127 0.862573 7.28525e-39 3
0.542696 0.299651 0.857935 4.88816e-39 3
0.553728 0.298048 0.853347 6.36186e-39 3
0.564643 0.296463 0.848808 3.13537e-39 3
0.566452 0.290286 0.831125 3.50415e-39 3
0.580023 0.290286 0.831125 3.96513e-39 3
0.593595 0.290286 0.831125 2.3978e-39 3
0.613558 0.293342 0.839874 3.31904e-39 3
0.647727 0.302908 0.867261 3.31905e-39 3
0.699929 0.320316 0.917103 3.96478e-39 3
0.723217 0.324041 0.927767 2.76803e-39 3
0.780753 0.335753 0.961301 3.59707e-39 3
0.801277 0.337788 0.967127 3.41233e-39 3
0.783817 0.324041 0.927767 3.22829e-39 3
0.875176 0.348344 0.99735 4.14917e-39 3
0.972892 0.348344 0.99735 1.47442e-39 3
0.920166 0.324041 0.927767 4.51723e-39 3
0.893746 0.309639 0.886533 1.75136e-39 3
0.898242 0.306236 0.876791 2.95063e-39 3
0.91256 0.306236 0.876791 2.21234e-39 3
0.926877 0.306236 0.876791 2.12015e-39 3
0.984468 0.320316 0.917103 2.2127e-39 3
1.01107 0.324041 0.927767 1.84391e-39 3
1.05065 0.331756 0.949857 2.67331e-39 3
1.07901 0.335753 0.961301 3.31868e-39 3
1.41969 0.43543 1.24669 2.8577e-39 3
-0.270494 0.10764 0.294421 3.78002e-39 3
-0.265687 0.10764 0.294421 2.39853e-39 3
-0.27509 0.113503 0.310459 1.80739e-38 3
-0.253691 0.115298 0.315368 1.07887e-38 3
-0.550635 0.291704 0.79788 1.77037e-38 3
-0.529661 0.287393 0.786089 1.0601e-38 3
-0.501518 0.285984 0.782235 2.11128e-38 3
-0.177186 0.106461 0.291197 1.30028e-38 3
-0.171182 0.10569 0.289087 1.29149e-38 3
-0.164671 0.104553 0.285978 1.25454e-38 3
0.0942721 0.134117 0.366841 1.66878e-38 3
0.0991231 0.132593 0.362673 7.00687e-39 3
0.105285 0.132895 0.363499 7.74515e-39 3
0.111474 0.133198 0.364329 5.90267e-39 3
0.250173 0.270096 0.738778 3.9662e-39 3
0.262236 0.270096 0.738778 5.7172e-39 3
0.255383 0.251469 0.687827 4.88708e-39 3
0.266615 0.251469 0.687827 4.24171e-39 3
0.28777 0.26045 0.712393 3.87293e-39 3
0.304846 0.265185 0.725345 1.07876e-38 3
0.322556 0.270096 0.738778 5.80904e-39 3
0.337747 0.27262 0.745682 4.70377e-39 3
0.349923 0.27262 0.745682 8.02317e-39 3
0.355456 0.267618 0.732 3.13681e-39 3
0.357567 0.26045 0.712393 4.51938e-39 3
0.3692 0.26045 0.712393 3.32011e-39 3
0.380833 0.26045 0.712393 2.21449e-39 3
0.392466 0.26045 0.712393 3.04461e-39 3
0.404099 0.26045 0.712393 3.13609e-39 3
0.45649 0.285984 0.782235 3.78146e-39 3
0.525988 0.320554 0.876791 5.44133e-39 3
0.528686 0.31366 0.857935 7.65403e-39 3
0.536922 0.310323 0.848808 6.1789e-39 3
0.542132 0.305449 0.835476 4.5183e-39 3
0.55288 0.303858 0.831125 4.88709e-39 3
0.569417 0.305449 0.835476 3.78074e-39 3
0.580023 0.303858 0.831125 3.04317e-39 3
0.564209 0.288816 0.78998 5.07255e-39 3
0.58288 0.291704 0.79788 3.87294e-39 3
0.620739 0.303858 0.831125 4.51759e-39 3
0.654772 0.31366 0.857935 8.02138e-39 3
0.697798 0.320554 0.876791 2.12266e-39 3
0.696801 0.31366 0.857935 3.50488e-39 3
0.703249 0.310323 0.848808 3.87366e-39 3
0.744843 0.322325 0.881635 3.59707e-39 3
0.742823 0.315356 0.862573 4.98001e-39 3
0.814117 0.339191 0.927767 3.4116e-39 3
0.788033 0.322325 0.881635 3.31941e-39 3
0.915663 0.343181 0.938682 2.85735e-39 3
0.869608 0.320554 0.876791 3.41053e-39 3
0.864916 0.31366 0.857935 6.26895e-39 3
0.902641 0.317069 0.867261 2.67332e-39 3
0.926877 0.320554 0.876791 3.04246e-39 3
0.984468 0.335292 0.917103 3.31904e-39 3
0.999444 0.335292 0.917103 2.58148e-39 3
1.01442 0.335292 0.917103 2.21233e-39 3
0.936704 0.300726 0.822557 2.21233e-39 3
0.837847 0.265185 0.725345 2.85807e-39 3
0.865427 0.270096 0.738778 2.39673e-39 3
-0.272505 0.113284 0.29661 2.58076e-39 3
-0.267662 0.113284 0.29661 4.61122e-39 3
-0.276165 0.119036 0.311672 1.98253e-38 3
-0.26399 0.120448 0.315368 4.241e-39 3
-0.25884 0.120448 0.315368 5.25587e-39 3
-0.408814 0.194097 0.508204 1.10656e-38 3
-0.400515 0.194097 0.508204 5.5346e-39 3
-0.375475 0.185813 0.486512 6.82534e-39 3
-0.360928 0.182475 0.477772 2.95277e-39 3
-0.340879 0.176146 0.461202 1.23567e-38 3
-0.323985 0.171198 0.448247 1.54006e-38 3
-0.524577 0.304733 0.79788 1.0228e-38 3
-0.501518 0.298758 0.782235 1.69618e-38 3
-0.178489 0.112034 0.293338 1.30943e-38 3
-0.172431 0.111216 0.291197 1.34681e-38 3
-0.164671 0.109223 0.285978 1.1994e-38 3
-0.505497 0.390683 1.02292 4.05805e-39 3
-0.161063 0.17717 0.463884 4.51758e-39 3
-0.151187 0.183574 0.480651 1.74257e-38 3
-0.145976 0.186953 0.489497 6.91502e-39 3
-0.137983 0.186953 0.489497 5.25515e-39 3
-0.12999 0.186953 0.489497 4.6105e-39 3
0.0870807 0.138201 0.36185 1.45673e-38 3
0.0932009 0.138515 0.362673 1.35531e-38 3
0.0982301 0.137267 0.359405 9.5887e-39 3
0.104334 0.137577 0.360217 7.65295e-39 3
0.110216 0.137577 0.360217 5.44169e-39 3
0.114547 0.135738 0.355403 3.78289e-39 3
0.232919 0.262701 0.687827 2.95313e-39 3
0.244151 0.262701 0.687827 3.96656e-39 3
0.237947 0.244765 0.640867 4.51938e-39 3
0.246433 0.242815 0.635761 8.39159e-39 3
0.255795 0.241851 0.633238 2.95206e-39 3
0.299403 0.272083 0.712393 5.44134e-39 3
0.316691 0.27703 0.725345 1.02355e-38 3
0.328535 0.27703 0.725345 2.21449e-39 3
0.334302 0.272083 0.712393 4.79668e-39 3
0.339866 0.267309 0.699895 3.50595e-39 3
0.345238 0.262701 0.687827 4.98036e-39 3
0.356469 0.262701 0.687827 4.70305e-39 3
0.367701 0.262701 0.687827 6.36329e-39 3
0.382228 0.264985 0.693809 8.66854e-39 3
0.393558 0.264985 0.693809 6.17855e-39 3
0.415732 0.272083 0.712393 3.87366e-39 3
0.469264 0.298758 0.782235 3.68962e-39 3
0.491678 0.304733 0.79788 4.79597e-39 3
0.534081 0.322469 0.844317 3.50523e-39 3
0.531011 0.312546 0.818338 4.05732e-39 3
0.544374 0.312546 0.818338 3.96513e-39 3
0.554891 0.310952 0.814163 3.41303e-39 3
0.515576 0.28216 0.738778 5.44134e-39 3
0.522799 0.279571 0.732 4.33499e-39 3
0.534753 0.279571 0.732 5.34807e-39 3
0.590009 0.301716 0.78998 3.31976e-39 3
0.608938 0.304733 0.79788 3.96585e-39 3
0.62825 0.307811 0.805939 2.67583e-39 3
0.64141 0.307811 0.805939 1.3851e-39 3
0.641609 0.301716 0.78998 1.93755e-39 3
0.595544 0.274534 0.718811 1.66096e-39 3
0.73097 0.324184 0.848808 2.39853e-39 3
0.740889 0.322469 0.844317 3.78038e-39 3
0.762748 0.325917 0.853347 4.79454e-39 3
0.772551 0.324184 0.848808 3.04246e-39 3
0.77406 0.319092 0.835476 2.0283e-39 3
0.81767 0.331231 0.867261 2.76515e-39 3
0.831832 0.331231 0.867261 3.59491e-39 3
0.845993 0.331231 0.867261 2.3031e-39 3
0.850906 0.32767 0.857935 2.58076e-39 3
0.864916 0.32767 0.857935 3.04174e-39 3
0.869575 0.324184 0.848808 1.47513e-39 3
0.892935 0.32767 0.857935 2.2127e-39 3
0.969492 0.350268 0.917103 2.30489e-39 3
0.984468 0.350268 0.917103 2.85807e-39 3
1.01107 0.35434 0.927767 1.93611e-39 3
1.01442 0.350268 0.917103 3.13393e-39 3
0.923272 0.314158 0.822557 3.41088e-39 3
0.841299 0.28216 0.738778 1.47477e-39 3
0.837847 0.27703 0.725345 1.47441e-39 3
0.865427 0.28216 0.738778 2.11979e-39 3
0.902562 0.290222 0.759886 1.38258e-39 3
-2.44347 1.05921 2.6596 3.13394e-39 3
-0.281254 0.124126 0.311672 9.12773e-39 3
-0.281666 0.126598 0.31788 1.8719e-38 3
-2.02392 0.962914 2.41782 7.83663e-39 3
-0.445487 0.216164 0.542775 7.00758e-39 3
-0.425058 0.210438 0.528397 6.64203e-39 3
-0.400515 0.202396 0.508204 6.2736e-39 3
-0.375475 0.193757 0.486512 7.01081e-39 3
-0.360928 0.190276 0.477772 3.78396e-39 3
-0.178489 0.116824 0.293338 1.74275e-38 3
-0.172431 0.115971 0.291197 1.39276e-38 3
-0.165263 0.114303 0.287007 1.21784e-38 3
-0.160577 0.114303 0.287007 1.24539e-38 3
-0.140686 0.117255 0.294421 5.25587e-39 3
-0.176213 0.184745 0.463884 1.16184e-38 3
-0.168638 0.184745 0.463884 2.21449e-39 3
-0.165885 0.190276 0.477772 1.01419e-38 3
0.0864924 0.143136 0.359405 8.66745e-39 3
0.0927792 0.143784 0.361032 1.00497e-38 3
0.0977896 0.142494 0.357794 1.43829e-38 3
0.103632 0.142494 0.357794 6.36221e-39 3
0.108986 0.141858 0.356196 5.99451e-39 3
0.113787 0.140603 0.353044 4.06055e-39 3
0.509786 0.59955 1.50543 6.45763e-39 3
0.577991 0.648493 1.62833 6.82534e-39 3
0.236995 0.254209 0.638304 7.19412e-39 3
0.245455 0.252192 0.633238 1.08809e-38 3
0.255795 0.252192 0.633238 3.9662e-39 3
0.263005 0.249225 0.625788 3.96621e-39 3
0.273223 0.249225 0.625788 6.45549e-39 3
0.317008 0.278738 0.699895 6.45584e-39 3
0.322774 0.273933 0.687827 4.98143e-39 3
0.325585 0.267027 0.670487 5.53425e-39 3
0.36938 0.267027 0.670487 9.68305e-39 3
0.380329 0.267027 0.670487 7.10086e-39 3
0.394593 0.26929 0.676169 4.05805e-39 3
0.409102 0.271591 0.681949 5.62573e-39 3
0.438998 0.283716 0.712393 3.59742e-39 3
0.471689 0.296974 0.745682 3.32083e-39 3
0.528302 0.324247 0.814163 8.20648e-39 3
0.536126 0.320971 0.805939 3.59634e-39 3
0.498893 0.291524 0.732 4.61157e-39 3
0.471883 0.26929 0.676169 1.93826e-39 3
0.480887 0.268153 0.673316 3.3212e-39 3
0.511299 0.278738 0.699895 3.59742e-39 3
0.522727 0.278738 0.699895 4.70269e-39 3
0.531824 0.277521 0.696838 5.53353e-39 3
0.533877 0.272757 0.684875 2.86022e-39 3
0.561943 0.281205 0.706088 4.42755e-39 3
0.578594 0.283716 0.712393 8.20721e-39 3
0.585003 0.281205 0.706088 4.51938e-39 3
0.588718 0.277521 0.696838 3.96585e-39 3
0.648219 0.299775 0.752717 3.68927e-39 3
0.74483 0.338044 0.848808 3.31941e-39 3
0.746774 0.332735 0.835476 3.78038e-39 3
0.760417 0.332735 0.835476 1.47513e-39 3
0.77406 0.332735 0.835476 3.68746e-39 3
0.752256 0.317762 0.79788 2.21198e-39 3
0.765285 0.317762 0.79788 1.65773e-39 3
0.732725 0.294224 0.738778 3.31725e-39 3
0.756853 0.294224 0.738778 2.48857e-39 3
0.892935 0.341679 0.857935 4.14881e-39 3
1.00412 0.378288 0.949857 1.38294e-39 3
1.01963 0.378288 0.949857 1.65952e-39 3
1.02296 0.373837 0.938682 2.1205e-39 3
1.02622 0.36949 0.927767 3.31904e-39 3
0.844881 0.299775 0.752717 2.30489e-39 3
0.833581 0.291524 0.732 3.31868e-39 3
0.845534 0.291524 0.732 5.16259e-39 3
0.865427 0.294224 0.738778 3.31833e-39 3
-2.32261 1.06707 2.57381 4.79454e-39 3
-2.20932 1.03372 2.49337 1.93632e-38 3
-2.02392 1.0024 2.41782 8.02102e-39 3
-0.454768 0.229716 0.554083 1.15266e-38 3
-0.425058 0.219067 0.528397 7.65617e-39 3
-0.400515 0.210695 0.508204 9.68555e-39 3
-0.382472 0.20546 0.495578 1.06997e-38 3
-0.374379 0.20546 0.495578 1.10681e-38 3
-0.172431 0.120727 0.291197 1.38347e-38 3
-0.166461 0.119852 0.289087 1.23635e-38 3
-0.16174 0.119852 0.289087 1.19933e-38 3
-0.159329 0.121614 0.293338 3.04425e-39 3
-0.522201 0.424091 1.02292 5.07076e-39 3
-0.171235 0.186887 0.45078 1.33702e-38 3
-0.168638 0.19232 0.463884 1.04188e-38 3
-0.161063 0.19232 0.463884 1.5397e-38 3
0.174872 0.413488 0.99735 1.00518e-38 3
0.0802619 0.148337 0.357794 9.3139e-39 3
0.0855292 0.147345 0.355403 8.57634e-39 3
0.0921537 0.14867 0.358598 7.00793e-39 3
0.097353 0.147674 0.356196 7.10013e-39 3
0.10317 0.147674 0.356196 1.42921e-38 3
0.108502 0.147018 0.354613 8.76038e-39 3
0.113535 0.146044 0.352265 5.71792e-39 3
0.244485 0.261495 0.630735 7.83949e-39 3
0.254784 0.261495 0.630735 7.74694e-39 3
0.260958 0.257425 0.620918 7.74659e-39 3
0.270046 0.256427 0.618512 4.88888e-39 3
0.277991 0.254454 0.613754 5.62608e-39 3
0.300346 0.256427 0.618512 5.81083e-39 3
0.310446 0.256427 0.618512 3.6889e-39 3
0.326881 0.261495 0.630735 4.70412e-39 3
0.438759 0.280331 0.676169 4.15059e-39 3
0.473897 0.295349 0.712393 2.85986e-39 3
0.453161 0.275659 0.6649 6.0867e-39 3
0.464019 0.275659 0.6649 3.68998e-39 3
0.474876 0.275659 0.6649 2.58471e-39 3
0.487766 0.276812 0.667682 7.19341e-39 3
0.527219 0.286399 0.690805 2.85986e-39 3
0.531596 0.282727 0.681949 4.33499e-39 3
0.553867 0.282727 0.681949 6.82427e-39 3
0.569874 0.285164 0.687827 3.50523e-39 3
0.60186 0.295349 0.712393 4.1506e-39 3
0.582298 0.280331 0.676169 3.41195e-39 3
0.578629 0.273381 0.659405 1.66024e-39 3
0.754677 0.350043 0.844317 2.95026e-39 3
0.666237 0.303478 0.732 3.68782e-39 3
0.76209 0.341021 0.822557 1.65952e-39 3
0.585413 0.257425 0.620918 3.78002e-39 3
0.671303 0.290167 0.699895 3.31869e-39 3
0.682732 0.290167 0.699895 3.22613e-39 3
0.676361 0.282727 0.681949 3.13394e-39 3
0.687497 0.282727 0.681949 3.59528e-39 3
0.710783 0.287644 0.693809 2.02651e-39 3
0.768916 0.306288 0.738778 2.02651e-39 3
1.03191 0.398543 0.961301 2.2127e-39 3
1.03514 0.393798 0.949857 2.58148e-39 3
0.83259 0.312067 0.752717 2.85806e-39 3
0.79962 0.295349 0.712393 1.75207e-39 3
0.811253 0.295349 0.712393 3.22648e-39 3
0.853363 0.306288 0.738778 4.70161e-39 3
0.881756 0.312067 0.752717 2.21198e-39 3
0.91124 0.318068 0.767192 1.8432e-39 3
0.932737 0.321156 0.774641 1.8432e-39 3
-2.40004 1.14607 2.6596 1.55814e-38 3
-2.28059 1.1091 2.57381 1.88101e-38 3
-2.02392 1.04188 2.41782 9.03588e-39 3
-0.454768 0.238764 0.554083 9.68448e-39 3
-0.433674 0.232311 0.539108 9.03947e-39 3
-0.405683 0.221819 0.514761 1.06075e-38 3
-0.384862 0.214887 0.498675 1.33737e-38 3
-0.374379 0.213553 0.495578 1.42968e-38 3
-0.422165 0.298974 0.693809 1.14333e-38 3
-0.381017 0.277274 0.643452 1.42031e-38 3
-0.167676 0.125482 0.291197 1.31e-38 3
-0.163518 0.125941 0.292264 1.17164e-38 3
-0.159329 0.126404 0.293338 3.41339e-39 3
-0.154539 0.126404 0.293338 3.59491e-39 3
-0.149749 0.126404 0.293338 4.51759e-39 3
-0.145494 0.126871 0.294421 4.6105e-39 3
-0.183787 0.199895 0.463884 9.68341e-39 3
-0.173192 0.196468 0.455931 1.76115e-38 3
0.0804423 0.154526 0.358598 9.7756e-39 3
0.0851499 0.15247 0.353827 8.76145e-39 3
0.0917414 0.153834 0.356993 9.49901e-39 3
0.0971362 0.153149 0.355403 6.54876e-39 3
0.10294 0.153149 0.355403 5.99558e-39 3
0.108743 0.153149 0.355403 9.8678e-39 3
0.113535 0.151797 0.352265 7.93062e-39 3
0.248882 0.265498 0.616123 7.56255e-39 3
0.256959 0.263463 0.611402 3.87437e-39 3
0.266942 0.263463 0.611402 7.83914e-39 3
0.275869 0.262458 0.609069 8.48414e-39 3
0.289126 0.265498 0.616123 1.10663e-38 3
0.298036 0.264477 0.613754 8.02353e-39 3
0.308058 0.264477 0.613754 5.53353e-39 3
0.319308 0.265498 0.616123 4.98071e-39 3
0.325598 0.262458 0.609069 2.95205e-39 3
0.331569 0.251882 0.584527 6.36401e-39 3
0.336188 0.248245 0.576087 3.59742e-39 3
0.344352 0.247352 0.574014 6.82319e-39 3
0.352457 0.246466 0.571957 1.84463e-39 3
0.359222 0.244711 0.567886 3.41195e-39 3
0.387817 0.257543 0.597663 1.47692e-39 3
0.442109 0.279528 0.648683 4.79597e-39 3
0.454549 0.280669 0.651331 4.24315e-39 3
0.467091 0.281819 0.654 4.33535e-39 3
0.477771 0.281819 0.654 3.59778e-39 3
0.505008 0.291373 0.676169 4.24351e-39 3
0.522694 0.295124 0.684875 4.61157e-39 3
0.527091 0.291373 0.676169 4.98036e-39 3
0.54741 0.296396 0.687827 2.49108e-39 3
0.555507 0.288924 0.670487 3.78074e-39 3
0.571257 0.291373 0.676169 6.27002e-39 3
0.565524 0.282979 0.656691 4.5183e-39 3
0.561551 0.270724 0.628252 3.22684e-39 3
0.567342 0.268609 0.623344 3.50379e-39 3
0.573044 0.266527 0.618512 4.42539e-39 3
0.576441 0.263463 0.611402 2.39709e-39 3
0.590954 0.265498 0.616123 2.67368e-39 3
0.605692 0.267564 0.620918 5.34699e-39 3
0.739876 0.301596 0.699895 3.68711e-39 3
1.01963 0.409309 0.949857 4.42539e-39 3
0.735711 0.278396 0.646057 3.04209e-39 3
0.873515 0.321327 0.745682 2.94954e-39 3
0.920087 0.333805 0.774641 3.04174e-39 3
-0.317185 0.157202 0.351489 1.85317e-38 3
-2.14237 1.08136 2.41782 1.9271e-38 3
-1.9644 1.04955 2.34671 1.16184e-38 3
-0.49238 0.268307 0.59991 9.50009e-39 3
-0.44572 0.247811 0.554083 1.02387e-38 3
-0.408317 0.23172 0.518104 1.3189e-38 3
-0.384862 0.22303 0.498675 1.37425e-38 3
-0.374379 0.221645 0.495578 1.10699e-38 3
-0.568895 0.377617 0.844317 1.89909e-38 3
-0.543603 0.369791 0.826819 1.71462e-38 3
-0.422165 0.310303 0.693809 1.94543e-38 3
-0.390464 0.294916 0.659405 1.61385e-38 3
-0.37051 0.287781 0.643452 1.44808e-38 3
-0.325842 0.260473 0.582394 1.38347e-38 3
-0.303059 0.249544 0.557958 4.70342e-39 3
-0.154539 0.131194 0.293338 6.3615e-39 3
-0.149749 0.131194 0.293338 4.70198e-39 3
0.0905262 0.157549 0.352265 8.20827e-39 3
0.0960665 0.157202 0.351489 7.28632e-39 3
0.102031 0.157549 0.352265 6.82534e-39 3
0.107546 0.157202 0.351489 8.94584e-39 3
0.264912 0.271368 0.606753 1.12504e-38 3
0.273779 0.27034 0.604454 7.10193e-39 3
0.288014 0.274499 0.613754 9.59193e-39 3
0.296894 0.273447 0.611402 2.76946e-39 3
0.305707 0.272403 0.609069 8.2994e-39 3
0.314452 0.271368 0.606753 4.79524e-39 3
0.320702 0.268307 0.59991 7.56183e-39 3
0.326812 0.265315 0.593219 4.33499e-39 3
0.329157 0.259526 0.580276 5.44205e-39 3
0.334978 0.256726 0.574014 8.2072e-39 3
0.343118 0.255805 0.571957 1.00511e-38 3
0.351199 0.254892 0.569914 1.37389e-38 3
0.359222 0.253985 0.567886 2.85986e-39 3
0.384934 0.265315 0.593219 4.98036e-39 3
0.436782 0.286625 0.640867 6.36329e-39 3
0.447247 0.286625 0.640867 4.61229e-39 3
0.461418 0.288946 0.646057 3.22864e-39 3
0.471968 0.288946 0.646057 8.85257e-39 3
0.49046 0.293702 0.656691 4.24279e-39 3
0.513872 0.301138 0.673316 4.42718e-39 3
0.522661 0.299873 0.670487 3.13645e-39 3
0.545061 0.306308 0.684875 5.44026e-39 3
0.551511 0.303701 0.679047 5.25587e-39 3
0.567428 0.306308 0.684875 7.46784e-39 3
0.562944 0.276627 0.618512 3.96477e-39 3
0.564296 0.272403 0.609069 3.87257e-39 3
0.569891 0.27034 0.604454 4.42611e-39 3
0.581966 0.271368 0.606753 4.70342e-39 3
0.591874 0.271368 0.606753 3.59707e-39 3
0.720445 0.291305 0.651331 1.93611e-39 3
0.725161 0.288946 0.646057 3.13465e-39 3
0.732744 0.287781 0.643452 3.59527e-39 3
0.728563 0.282094 0.630735 2.48892e-39 3
0.724543 0.276627 0.618512 3.41088e-39 3
0.885691 0.333503 0.745682 2.67367e-39 3
-0.317333 0.16012 0.345403 5.43775e-39 3
-0.311693 0.16012 0.345403 1.99146e-38 3
-0.311446 0.162942 0.351489 1.81647e-38 3
-0.519735 0.293553 0.633238 9.40968e-39 3
-0.482584 0.278103 0.59991 1.19908e-38 3
-0.436672 0.256859 0.554083 1.39262e-38 3
-0.399857 0.24018 0.518104 1.26351e-38 3
-0.376719 0.231173 0.498675 9.50152e-39 3
-0.595678 0.373613 0.805939 1.34684e-38 3
-0.585782 0.393487 0.848808 1.27226e-38 3
-0.549295 0.387306 0.835476 1.57647e-38 3
-0.524665 0.379361 0.818338 2.01901e-38 3
-0.31178 0.266099 0.574014 6.82319e-39 3
-0.293948 0.258655 0.557958 3.68783e-39 3
0.0958553 0.162583 0.350716 8.39374e-39 3
0.101582 0.162583 0.350716 1.75211e-38 3
0.107309 0.162583 0.350716 1.94576e-38 3
0.117985 0.161518 0.348419 1.93647e-38 3
0.255005 0.281276 0.606753 1.33709e-38 3
0.261925 0.278103 0.59991 8.39231e-39 3
0.268691 0.275002 0.593219 4.24386e-39 3
0.28365 0.28021 0.604454 7.47143e-39 3
0.299982 0.277062 0.597663 4.5201e-39 3
0.3063 0.273983 0.591022 5.07183e-39 3
0.317125 0.275002 0.593219 6.91574e-39 3
0.323208 0.271969 0.586676 6.82427e-39 3
0.327965 0.268027 0.578174 6.0867e-39 3
0.334978 0.266099 0.574014 9.4983e-39 3
0.343118 0.265145 0.571957 3.96656e-39 3
0.349949 0.263258 0.567886 1.30936e-38 3
0.357948 0.262324 0.565872 6.36329e-39 3
0.480572 0.298288 0.643452 8.2994e-39 3
0.518306 0.308231 0.6649 3.32084e-39 3
0.542732 0.316134 0.681949 4.05732e-39 3
0.557907 0.279153 0.602174 4.14916e-39 3
0.549092 0.269983 0.582394 4.42719e-39 3
0.554554 0.268027 0.578174 3.59778e-39 3
0.589632 0.28021 0.604454 7.37781e-39 3
0.599502 0.28021 0.604454 1.04213e-38 3
0.612285 0.277062 0.597663 1.93755e-39 3
0.622045 0.277062 0.597663 2.67439e-39 3
0.624784 0.273983 0.591022 2.95098e-39 3
0.632094 0.272972 0.588841 3.96441e-39 3
0.644086 0.273983 0.591022 3.78002e-39 3
0.644194 0.269983 0.582394 3.59563e-39 3
0.678465 0.28021 0.604454 2.95026e-39 3
0.701624 0.28562 0.616123 1.56661e-39 3
0.698206 0.28021 0.604454 3.41088e-39 3
0.700121 0.277062 0.597663 3.13465e-39 3
0.699402 0.272972 0.588841 2.76587e-39 3
0.706411 0.271969 0.586676 4.24172e-39 3
-0.324354 0.169428 0.353044 5.07004e-39 3
-0.315794 0.167941 0.349947 1.11557e-38 3
-0.31008 0.167941 0.349947 1.33698e-38 3
-0.543004 0.311306 0.648683 1.08841e-38 3
-0.532411 0.311306 0.648683 1.30067e-38 3
-0.521819 0.311306 0.648683 1.51258e-38 3
-0.631968 0.38483 0.801889 1.39258e-38 3
-0.618874 0.38483 0.801889 8.76252e-39 3
-0.605779 0.38483 0.801889 7.74981e-39 3
-0.595678 0.386774 0.805939 1.29142e-38 3
-0.585475 0.388737 0.81003 1.09766e-38 3
-0.575167 0.390721 0.814163 1.18947e-38 3
-0.50517 0.35129 0.732 6.54445e-39 3
-0.480005 0.341881 0.712393 1.02312e-38 3
-0.543603 0.396794 0.826819 1.91749e-38 3
-0.403813 0.32727 0.681949 2.08394e-38 3
-0.309553 0.273504 0.569914 6.27002e-39 3
0.10136 0.167941 0.349947 1.30957e-38 3
0.107309 0.16831 0.350716 8.11787e-39 3
0.112788 0.167941 0.349947 9.13131e-39 3
0.118503 0.167941 0.349947 6.82678e-39 3
0.258044 0.283634 0.591022 7.01045e-39 3
0.263787 0.279494 0.582394 7.56363e-39 3
0.279416 0.285751 0.595433 6.82678e-39 3
0.286998 0.283634 0.591022 8.39339e-39 3
0.2902 0.277468 0.578174 2.76838e-39 3
0.299641 0.277468 0.578174 8.39087e-39 3
0.312479 0.280517 0.584527 8.11357e-39 3
0.320848 0.279494 0.582394 8.94333e-39 3
0.327965 0.277468 0.578174 8.57491e-39 3
0.333778 0.274485 0.571957 6.82427e-39 3
0.343118 0.274485 0.571957 8.02353e-39 3
0.348708 0.271565 0.565872 9.22207e-39 3
0.355427 0.269652 0.561887 8.2994e-39 3
0.487381 0.256984 0.53549 3.96476e-39 3
0.529758 0.269652 0.561887 5.34914e-39 3
0.544687 0.272531 0.567886 3.69034e-39 3
0.57229 0.281549 0.586676 2.40032e-39 3
0.588359 0.284689 0.593219 2.21593e-39 3
0.607073 0.288986 0.602174 2.12374e-39 3
0.603248 0.282588 0.588841 2.21593e-39 3
0.619724 0.285751 0.595433 3.50559e-39 3
0.622479 0.282588 0.588841 2.85986e-39 3
0.62977 0.281549 0.586676 3.68854e-39 3
0.637008 0.280517 0.584527 3.13537e-39 3
0.630389 0.273504 0.569914 3.41124e-39 3
0.639696 0.273504 0.569914 4.05661e-39 3
0.65133 0.270605 0.563873 4.0566e-39 3
0.670008 0.274485 0.571957 4.51722e-39 3
0.681791 0.275472 0.574014 4.241e-39 3
0.69366 0.276467 0.576087 4.14917e-39 3
-0.32725 0.176757 0.356196 5.07004e-39 3
-0.317185 0.174421 0.351489 5.71685e-39 3
-0.311446 0.174421 0.351489 1.03277e-38 3
-0.305706 0.174421 0.351489 1.32801e-38 3
-0.301294 0.175193 0.353044 1.34652e-38 3
-0.543004 0.321899 0.648683 1.39283e-38 3
-0.584702 0.353514 0.712393 1.41131e-38 3
-0.599848 0.370033 0.745682 1.2083e-38 3
-0.641641 0.404015 0.814163 6.36472e-39 3
-0.625157 0.401965 0.81003 5.16761e-39 3
-0.618206 0.406087 0.818338 9.59372e-39 3
-0.604843 0.406087 0.818338 1.12532e-38 3
-0.594529 0.408181 0.822557 9.59156e-39 3
-0.507805 0.356698 0.718811 1.91774e-38 3
-0.491638 0.353514 0.712393 4.42395e-39 3
-0.467483 0.344291 0.693809 1.31815e-38 3
-0.540801 0.408181 0.822557 8.94118e-39 3
-0.400391 0.335538 0.676169 1.87203e-38 3
-0.367546 0.316748 0.638304 1.92785e-38 3
-0.31178 0.284845 0.574014 5.71828e-39 3
0.102791 0.16671 0.335949 1.03302e-38 3
0.112296 0.172897 0.348419 1.0422e-38 3
0.256147 0.291129 0.586676 4.06055e-39 3
0.277346 0.293285 0.591022 5.90483e-39 3
0.283844 0.290062 0.584527 9.40826e-39 3
0.288112 0.284845 0.574014 4.70449e-39 3
0.297485 0.284845 0.574014 7.00901e-39 3
0.346252 0.278828 0.561887 1.04206e-38 3
0.453165 0.256269 0.516427 6.36294e-39 3
0.463097 0.257101 0.518104 3.87401e-39 3
0.477762 0.260484 0.524921 2.85914e-39 3
0.538933 0.278828 0.561887 7.37816e-39 3
0.557931 0.283825 0.571957 8.02353e-39 3
0.571367 0.285874 0.576087 5.81048e-39 3
0.587133 0.289004 0.582394 5.62609e-39 3
0.592319 0.28691 0.578174 4.88852e-39 3
0.61061 0.291129 0.586676 1.9397e-39 3
0.613424 0.287953 0.580276 2.12301e-39 3
0.620643 0.28691 0.578174 1.9379e-39 3
0.621511 0.278828 0.561887 2.2127e-39 3
0.624094 0.275913 0.556014 3.59563e-39 3
0.616476 0.26484 0.533699 3.96441e-39 3
0.642379 0.27212 0.548371 4.79381e-39 3
0.669745 0.279813 0.563873 3.96441e-39 3
0.681361 0.280805 0.565872 1.84428e-39 3
-0.32725 0.182573 0.356196 4.33319e-39 3
-0.318589 0.180958 0.353044 6.91539e-39 3
-0.311446 0.18016 0.351489 1.33712e-38 3
-0.307059 0.180958 0.353044 1.37425e-38 3
-0.299966 0.18016 0.351489 1.4389e-38 3
-0.295529 0.180958 0.353044 1.42975e-38 3
-0.58997 0.368436 0.718811 1.00554e-38 3
-0.599848 0.382209 0.745682 9.5008e-39 3
-0.641641 0.41731 0.814163 1.18972e-38 3
-0.575495 0.382209 0.745682 6.08957e-39 3
-0.552982 0.375196 0.732 9.13202e-39 3
-0.601757 0.41731 0.814163 7.84092e-39 3
-0.59148 0.41945 0.818338 1.32783e-38 3
-0.503271 0.365147 0.712393 8.11285e-39 3
-0.478813 0.355621 0.693809 8.20326e-39 3
-0.459492 0.349542 0.681949 1.51179e-38 3
-0.440821 0.343667 0.670487 3.31725e-39 3
-0.397026 0.343667 0.670487 1.5124e-38 3
-0.367546 0.327171 0.638304 1.68811e-38 3
-0.354289 0.324575 0.633238 1.96455e-38 3
0.257092 0.301819 0.588841 1.25425e-38 3
0.275307 0.300709 0.586676 4.52189e-39 3
0.281779 0.297428 0.580276 5.81263e-39 3
0.287079 0.293164 0.571957 7.56363e-39 3
0.464606 0.266426 0.519791 2.58364e-39 3
0.479339 0.269943 0.526653 7.37745e-39 3
0.494466 0.273555 0.533699 2.67547e-39 3
0.529609 0.28302 0.552166 8.85329e-39 3
0.548108 0.288003 0.561887 7.10157e-39 3
0.561236 0.290045 0.565872 6.08707e-39 3
0.574551 0.292117 0.569914 5.16511e-39 3
0.583858 0.292117 0.569914 4.4279e-39 3
0.599588 0.295281 0.576087 6.91826e-39 3
0.60463 0.293164 0.571957 3.32407e-39 3
0.611777 0.292117 0.569914 1.11066e-39 3
0.610187 0.286992 0.559916 3.50487e-39 3
0.608652 0.282044 0.550262 3.87222e-39 3
0.609234 0.278207 0.542775 2.95026e-39 3
0.607761 0.273555 0.533699 3.41124e-39 3
0.594601 0.263848 0.514761 2.85806e-39 3
0.612892 0.268173 0.5232 4.14844e-39 3
0.636033 0.274473 0.53549 3.04245e-39 3
0.658026 0.280112 0.546493 3.50415e-39 3
-0.330198 0.190087 0.359405 1.08794e-38 3
-0.321433 0.18839 0.356196 1.20787e-38 3
-0.315617 0.18839 0.356196 1.40177e-38 3
-0.308423 0.187552 0.354613 1.42046e-38 3
-0.299966 0.1859 0.351489 1.48492e-38 3
-0.295529 0.186723 0.353044 1.30979e-38 3
-0.58997 0.380174 0.718811 1.20848e-38 3
-0.599848 0.394386 0.745682 1.18064e-38 3
-0.566494 0.380174 0.718811 1.00536e-38 3
-0.549803 0.376779 0.712393 9.40896e-39 3
-0.53817 0.376779 0.712393 8.48629e-39 3
-0.526537 0.376779 0.712393 8.76108e-39 3
-0.514904 0.376779 0.712393 1.01422e-38 3
-0.498818 0.373445 0.706088 1.02326e-38 3
-0.483013 0.370169 0.699895 1.33662e-38 3
-0.455598 0.357621 0.676169 1.04159e-38 3
-0.437147 0.351661 0.6649 1.14308e-38 3
-0.397026 0.354616 0.670487 1.08823e-38 3
-0.38286 0.351661 0.6649 1.43907e-38 3
0.457608 0.275812 0.52149 8.4838e-39 3
0.466124 0.275812 0.52149 5.16476e-39 3
0.476196 0.276717 0.5232 7.10122e-39 3
0.487939 0.278543 0.526653 1.20798e-38 3
0.503181 0.28227 0.533699 1.66203e-39 3
0.515343 0.28417 0.537293 6.73279e-39 3
0.533092 0.289036 0.546493 6.1789e-39 3
0.549544 0.293051 0.554083 6.08671e-39 3
0.60242 0.28805 0.544628 2.02831e-39 3
0.586196 0.272254 0.514761 2.76587e-39 3
0.579643 0.265404 0.501811 3.68782e-39 3
0.593436 0.267932 0.50659 4.05624e-39 3
0.613391 0.273135 0.516427 2.67367e-39 3
-0.336257 0.199551 0.366 9.86565e-39 3
-0.324329 0.195956 0.359405 1.31879e-38 3
-0.31846 0.195956 0.359405 1.36521e-38 3
-0.3098 0.194206 0.356196 1.45734e-38 3
-0.302633 0.193343 0.354613 1.55861e-38 3
-0.296842 0.193343 0.354613 1.30057e-38 3
-0.58997 0.391912 0.718811 1.19915e-38 3
-0.578232 0.391912 0.718811 1.15298e-38 3
-0.566494 0.391912 0.718811 1.05153e-38 3
-0.549803 0.388412 0.712393 9.96142e-39 3
-0.543018 0.391912 0.718811 9.22313e-39 3
-0.531281 0.391912 0.718811 1.01433e-38 3
-0.519543 0.391912 0.718811 1.15255e-38 3
-0.503271 0.388412 0.712393 8.38979e-39 3
-0.487287 0.384975 0.706088 1.36435e-38 3
-0.471584 0.381598 0.699895 1.30903e-38 3
0.461598 0.281568 0.516427 1.53066e-38 3
0.470031 0.281568 0.516427 6.36366e-39 3
0.478464 0.281568 0.516427 8.48415e-39 3
0.488478 0.282482 0.518104 9.96036e-39 3
0.500186 0.284328 0.52149 1.75495e-39 3
0.452854 0.241009 0.442039 3.68962e-39 3
0.460072 0.241009 0.442039 6.27361e-39 3
0.463439 0.239023 0.438396 7.28955e-39 3
0.471894 0.239681 0.439603 5.44564e-39 3
0.520676 0.25665 0.470726 1.93647e-39 3
0.542772 0.26365 0.483564 2.85807e-39 3
0.550669 0.26365 0.483564 6.91467e-39 3
0.561971 0.265257 0.486512 3.68782e-39 3
0.56475 0.262853 0.482103 3.78037e-39 3
0.570897 0.262061 0.480651 2.67367e-39 3
-1.14537 0.700079 1.24669 8.20827e-39 3
-0.331802 0.206475 0.367687 1.38347e-38 3
-0.325798 0.206475 0.367687 1.55893e-38 3
-0.315433 0.203659 0.362673 1.5863e-38 3
-0.303984 0.200023 0.356196 1.20819e-38 3
-0.298167 0.200023 0.356196 1.04242e-38 3
-0.292351 0.200023 0.356196 1.02398e-38 3
-0.578232 0.403649 0.718811 8.76395e-39 3
-0.524266 0.407319 0.725345 8.4827e-39 3
-0.512422 0.407319 0.725345 1.25375e-38 3
0.456105 0.258243 0.459873 4.88709e-39 3
0.453167 0.252423 0.44951 3.50415e-39 3
0.454111 0.248917 0.443267 5.07255e-39 3
0.46135 0.248917 0.443267 4.24458e-39 3
0.464715 0.24686 0.439603 6.91969e-39 3
0.471894 0.24686 0.439603 7.28955e-39 3
0.480396 0.247542 0.440818 2.03189e-39 3
0.488945 0.248228 0.442039 4.42683e-39 3
0.53308 0.266697 0.474928 2.21306e-39 3
0.540835 0.266697 0.474928 2.21341e-39 3
0.5552 0.26991 0.480651 5.90052e-39 3
0.551422 0.264337 0.470726 5.71648e-39 3
0.55583 0.262786 0.467965 4.33355e-39 3
6.00449 2.80032 4.98675 1.84463e-39 3
-1.28603 0.808912 1.39979 1.35592e-38 3
-1.12502 0.720437 1.24669 1.56804e-38 3
-1.19827 0.781491 1.35234 1.64173e-38 3
-1.0843 0.720437 1.24669 1.62296e-38 3
-0.310924 0.210539 0.364329 1.45698e-38 3
-0.302215 0.208633 0.361032 1.19911e-38 3
-0.292351 0.205839 0.356196 1.10706e-38 3
0.448596 0.265752 0.459873 6.82463e-39 3
0.456105 0.265752 0.459873 4.05805e-39 3
0.454447 0.260497 0.45078 2.67439e-39 3
0.455376 0.256869 0.444501 1.93682e-39 3
0.46135 0.256155 0.443267 5.71792e-39 3
0.464715 0.254038 0.439603 6.91897e-39 3
0.470597 0.253341 0.438396 8.85688e-39 3
0.480396 0.25474 0.440818 3.32299e-39 3
0.487594 0.25474 0.440818 1.2929e-39 3
0.525263 0.270428 0.467965 4.70414e-39 3
0.537635 0.272828 0.472118 3.87294e-39 3
0.556877 0.278598 0.482103 5.07076e-39 3
0.549801 0.271223 0.469341 6.82283e-39 3
0.55583 0.270428 0.467965 6.91503e-39 3
6.08592 2.88175 4.98675 2.76659e-39 3
6.16735 2.88175 4.98675 3.13501e-39 3
-1.40969 0.911747 1.53438 1.4483e-38 3
-1.26318 0.83177 1.39979 1.6879e-38 3
-1.30923 0.877979 1.47756 1.3557e-38 3
-1.13763 0.777227 1.308 1.53048e-38 3
-0.309511 0.215504 0.362673 1.13408e-38 3
-0.303589 0.215504 0.362673 1.20826e-38 3
-0.313823 1.82349 3.06877 1.84423e-38 3
0.447307 0.272476 0.458552 4.79741e-39 3
0.457424 0.274051 0.461202 6.82392e-39 3
0.453167 0.267103 0.44951 3.22685e-39 3
0.452854 0.262664 0.442039 1.75243e-39 3
0.458801 0.261938 0.440818 2.85842e-39 3
0.45965 0.25837 0.434812 4.61265e-39 3
0.462966 0.256275 0.431286 8.48702e-39 3
0.475146 0.259076 0.436 5.35202e-39 3
0.480951 0.25837 0.434812 1.94006e-39 3
5.72793 2.78887 4.69341 3.68854e-39 3
6.16735 2.96318 4.98675 3.5038e-39 3
6.24878 2.96318 4.98675 1.65988e-39 3
-1.26318 0.854627 1.39979 1.90917e-38 3
-1.15899 0.798586 1.308 9.77308e-39 3
-0.188574 0.132374 0.216815 1.32718e-38 3
-0.185034 0.132374 0.216815 1.14322e-38 3
-0.181493 0.132374 0.216815 1.34648e-38 3
-0.250464 0.512776 0.839874 2.01908e-38 3
-0.253945 1.80421 2.95511 2.04731e-38 3
-0.213601 1.87361 3.06877 9.41038e-39 3
-0.157435 1.80421 2.95511 1.15298e-38 3
0.438487 0.274444 0.44951 4.70414e-39 3
0.452196 0.278364 0.455931 6.82392e-39 3
0.44937 0.272144 0.445743 5.80869e-39 3
0.451603 0.269137 0.440818 7.65223e-39 3
0.45628 0.267658 0.438396 7.00794e-39 3
0.455924 0.263318 0.431286 5.62572e-39 3
0.459243 0.2612 0.427818 7.56363e-39 3
0.466229 0.2612 0.427818 6.18141e-39 3
0.471949 0.260501 0.426674 4.89032e-39 3
0.47764 0.259807 0.425536 5.81156e-39 3
0.480742 0.257745 0.422159 9.03697e-39 3
0.527961 0.271386 0.444501 4.05696e-39 3
5.72793 2.86551 4.69341 3.78002e-39 3
6.16735 3.04461 4.98675 4.79489e-39 3
-1.18035 0.819945 1.308 1.6508e-38 3
-0.196931 0.139322 0.222251 1.6131e-38 3
-0.188574 0.135915 0.216815 1.83397e-38 3
-0.185034 0.135915 0.216815 1.27222e-38 3
-0.181493 0.135915 0.216815 1.35577e-38 3
-0.177953 0.135915 0.216815 1.21773e-38 3
-0.236432 1.72471 2.75131 1.90923e-38 3
-0.20569 1.85247 2.95511 1.53123e-38 3
-0.154572 1.81879 2.90138 1.30968e-38 3
-0.111239 1.88742 3.01087 1.76162e-38 3
0.449627 0.284185 0.453341 1.84607e-39 3
0.44937 0.279423 0.445743 2.9517e-39 3
0.447891 0.274064 0.437194 9.12809e-39 3
0.447671 0.269632 0.430124 1.03266e-38 3
0.449845 0.266755 0.425536 8.76038e-39 3
0.456793 0.266755 0.425536 9.40646e-39 3
0.463742 0.266755 0.425536 9.59265e-39 3
0.469439 0.266046 0.424404 6.64168e-39 3
0.473849 0.264638 0.422159 6.27146e-39 3
0.478212 0.263245 0.419937 5.44134e-39 3
0.483796 0.262555 0.418835 6.08671e-39 3
0.49453 0.264638 0.422159 5.53173e-39 3
0.502753 0.26534 0.423278 4.42574e-39 3
-0.204548 0.145794 0.22667 1.66899e-38 3
-0.196931 0.142951 0.222251 1.88014e-38 3
-0.188574 0.139455 0.216815 2.09201e-38 3
-0.185034 0.139455 0.216815 1.22616e-38 3
-0.181493 0.139455 0.216815 1.34659e-38 3
-0.177953 0.139455 0.216815 1.29146e-38 3
-0.201662 1.5094 2.34671 1.53127e-38 3
-0.194864 1.80069 2.79958 1.55875e-38 3
-0.151812 1.83284 2.84957 1.09748e-38 3
0.411806 0.271532 0.422159 5.90446e-39 3
0.4187 0.271532 0.422159 3.69033e-39 3
0.432487 0.271532 0.422159 5.62465e-39 3
0.441718 0.272976 0.424404 9.31247e-39 3
0.448648 0.272976 0.424404 1.01433e-38 3
0.455578 0.272976 0.424404 4.70449e-39 3
0.463742 0.273704 0.425536 9.77633e-39 3
0.469439 0.272976 0.424404 7.47036e-39 3
0.473849 0.271532 0.422159 7.83914e-39 3
0.478212 0.270103 0.419937 8.66854e-39 3
0.48127 0.267987 0.416647 6.73208e-39 3
0.490636 0.269394 0.418835 5.07148e-39 3
0.494877 0.267987 0.416647 4.14952e-39 3
0.491792 0.25919 0.40297 2.21341e-39 3
-0.210644 0.151214 0.229276 1.93679e-38 3
-0.204548 0.149496 0.22667 1.79788e-38 3
-0.197481 0.14699 0.222871 1.98156e-38 3
-0.188574 0.142996 0.216815 2.21215e-38 3
-0.185034 0.142996 0.216815 1.05117e-38 3
-0.181493 0.142996 0.216815 1.32815e-38 3
-0.177953 0.142996 0.216815 1.38365e-38 3
-0.318071 0.634005 0.961301 1.96359e-38 3
0.398115 0.269168 0.408123 6.54983e-39 3
0.399668 0.26577 0.40297 8.57778e-39 3
0.402186 0.263112 0.39894 4.5201e-39 3
0.414924 0.267119 0.405015 2.85986e-39 3
0.442629 0.271951 0.412341 5.16475e-39 3
0.460062 0.278426 0.422159 5.16546e-39 3
0.466955 0.278426 0.422159 1.02355e-38 3
0.465233 0.273363 0.414483 8.11573e-39 3
0.469562 0.271951 0.412341 4.98108e-39 3
0.473847 0.270552 0.410221 5.99523e-39 3
0.479313 0.269859 0.409169 4.33391e-39 3
0.482285 0.267799 0.406046 3.31976e-39 3
0.48644 0.266443 0.40399 2.58255e-39 3
0.488094 0.263772 0.39994 4.42646e-39 3
0.490934 0.261803 0.396955 4.70377e-39 3
-0.211861 0.155854 0.230601 1.60474e-38 3
-0.2069 0.154958 0.229276 1.77015e-38 3
-0.200847 0.153197 0.22667 2.15687e-38 3
-0.188574 0.146536 0.216815 1.65005e-38 3
-0.185034 0.146536 0.216815 9.13058e-39 3
-0.181493 0.146536 0.216815 1.43882e-38 3
-0.177953 0.146536 0.216815 1.30964e-38 3
-0.318071 0.649703 0.961301 1.02319e-38 3
-0.273495 0.619831 0.917103 1.24443e-38 3
0.392726 0.267619 0.39597 6.27289e-39 3
0.396242 0.265642 0.393044 5.71792e-39 3
0.403655 0.266298 0.394015 4.24171e-39 3
0.467833 0.273733 0.405015 4.97928e-39 3
0.465005 0.268285 0.396955 4.33391e-39 3
0.472663 0.268954 0.397945 4.5183e-39 3
0.479161 0.268954 0.397945 4.33499e-39 3
0.482053 0.266957 0.39499 6.73207e-39 3
0.486097 0.265642 0.393044 2.86057e-39 3
-0.23723 0.178732 0.258214 1.49403e-38 3
-0.212393 0.162915 0.235363 1.59502e-38 3
-0.228797 0.178732 0.258214 2.04638e-38 3
-0.196032 0.156012 0.22539 1.0878e-38 3
-0.185034 0.150077 0.216815 9.03803e-39 3
-0.181493 0.150077 0.216815 1.49389e-38 3
-0.177953 0.150077 0.216815 9.7756e-39 3
0.343948 0.248217 0.358598 9.03876e-39 3
0.459293 0.271392 0.392079 4.70269e-39 3
0.465695 0.271392 0.392079 1.66023e-39 3
0.472098 0.271392 0.392079 5.25694e-39 3
0.481354 0.269406 0.38921 3.78253e-39 3
-0.238775 0.18414 0.259896 1.63215e-38 3
-0.234531 0.18414 0.259896 1.39219e-38 3
-0.23256 0.185958 0.262461 1.5764e-38 3
-0.229027 0.186571 0.263327 9.40431e-39 3
-0.224727 0.186571 0.263327 8.66746e-39 3
0.334336 0.251249 0.354613 5.16547e-39 3
0.339373 0.250692 0.353827 6.73387e-39 3
0.343626 0.249585 0.352265 1.06986e-38 3
0.376612 0.256377 0.36185 3.96728e-39 3
0.404004 0.266656 0.376358 5.81047e-39 3
0.409184 0.266029 0.375473 6.17925e-39 3
0.41434 0.265404 0.374591 6.82534e-39 3
0.423439 0.267287 0.377248 3.69069e-39 3
0.436828 0.271784 0.383596 3.04425e-39 3
0.448483 0.275091 0.388263 5.07255e-39 3
0.451527 0.273097 0.385449 4.97928e-39 3
0.461163 0.275091 0.388263 3.50415e-39 3
0.466368 0.274423 0.38732 4.1506e-39 3
0.471548 0.273758 0.386383 9.22135e-39 3
0.479018 0.274423 0.38732 4.79668e-39 3
-0.238775 0.188384 0.259896 1.33687e-38 3
-0.234531 0.188384 0.259896 9.77237e-39 3
-0.231797 0.18962 0.2616 6.63772e-39 3
-0.228274 0.190243 0.262461 7.19198e-39 3
2.36963 3.213 4.43267 1.19015e-38 3
0.33713 0.254775 0.351489 7.37924e-39 3
0.341366 0.253658 0.349947 1.10674e-38 3
0.345565 0.25255 0.348419 9.4079e-39 3
0.346712 0.249284 0.343914 6.45728e-39 3
0.363427 0.253103 0.349182 7.28704e-39 3
0.390794 0.259928 0.358598 4.88851e-39 3
0.410486 0.268995 0.371107 6.36436e-39 3
0.411758 0.265903 0.366841 7.19412e-39 3
0.428586 0.272802 0.376358 4.24386e-39 3
0.43992 0.276057 0.38085 4.1506e-39 3
0.442967 0.274095 0.378142 5.44026e-39 3
0.45893 0.280068 0.386383 5.53245e-39 3
0.462997 0.278718 0.38452 4.51938e-39 3
0.481354 0.282117 0.38921 4.3357e-39 3
-0.236464 0.190764 0.257381 1.54885e-38 3
-0.232261 0.190764 0.257381 9.58798e-39 3
-0.23256 0.194529 0.262461 9.49615e-39 3
-0.229027 0.195171 0.263327 7.28417e-39 3
-0.36937 0.788492 1.06384 2.01894e-38 3
-0.374582 0.88264 1.19087 2.02809e-38 3
2.36963 3.28538 4.43267 1.23635e-38 3
0.320792 0.252183 0.340247 7.01153e-39 3
0.331292 0.256004 0.345403 1.02373e-38 3
0.331904 0.252183 0.340247 9.59228e-39 3
0.337971 0.248474 0.335244 6.91861e-39 3
0.342726 0.247953 0.334541 8.48558e-39 3
0.349655 0.248997 0.335949 2.76873e-39 3
0.35589 0.249523 0.336658 4.79703e-39 3
0.360626 0.248997 0.335949 5.81154e-39 3
0.378051 0.257117 0.346904 4.05982e-39 3
0.386234 0.258805 0.349182 5.16689e-39 3
0.391936 0.258805 0.349182 6.73422e-39 3
0.404723 0.263416 0.355403 5.71899e-39 3
0.402459 0.25824 0.348419 3.87473e-39 3
0.432713 0.273782 0.369389 4.79597e-39 3
0.454527 0.28363 0.382676 3.50523e-39 3
0.458577 0.282276 0.38085 3.22792e-39 3
1.23347 0.739211 0.99735 4.61157e-39 3
-0.229793 0.189466 0.250119 1.48421e-38 3
-0.221542 0.185969 0.245502 1.4935e-38 3
-0.228059 0.194967 0.257381 1.17088e-38 3
-0.227526 0.198163 0.2616 1.03266e-38 3
-0.202656 0.17988 0.237464 1.25407e-38 3
-0.195291 0.176724 0.233298 9.77524e-39 3
0.318869 0.251832 0.33245 9.13131e-39 3
0.325654 0.252886 0.333841 8.02496e-39 3
0.3339 0.25502 0.336658 6.73457e-39 3
0.335855 0.252358 0.333144 9.77667e-39 3
0.340584 0.251832 0.33245 8.20935e-39 3
0.348189 0.253416 0.334541 1.00522e-38 3
0.357615 0.252358 0.333144 6.36472e-39 3
0.369221 0.256644 0.338802 6.27252e-39 3
0.37396 0.256101 0.338085 8.94691e-39 3
0.385193 0.259956 0.343174 7.93312e-39 3
0.39677 0.263929 0.348419 6.54983e-39 3
0.401583 0.263354 0.34766 5.44241e-39 3
0.413567 0.267433 0.353044 2.67618e-39 3
-0.225551 0.189977 0.245502 1.69622e-38 3
-0.218185 0.187099 0.241782 1.16159e-38 3
-0.212946 0.185972 0.240325 1.005e-38 3
-0.206534 0.183758 0.237464 1.26329e-38 3
-0.199101 0.180534 0.233298 1.07901e-38 3
-0.193033 0.178447 0.230601 8.48557e-39 3
0.329726 0.257261 0.33245 1.00543e-38 3
0.346012 0.257261 0.33245 1.19883e-38 3
0.35687 0.257261 0.33245 6.91753e-39 3
0.366112 0.259969 0.335949 7.56326e-39 3
0.371598 0.259969 0.335949 7.84092e-39 3
0.377879 0.260518 0.336658 5.44455e-39 3
0.39302 0.263295 0.340247 7.1952e-39 3
0.394372 0.260518 0.336658 7.83949e-39 3
-0.216871 0.189896 0.240325 1.2907e-38 3
-0.211039 0.188196 0.238173 9.40502e-39 3
-0.205921 0.187079 0.23676 9.68376e-39 3
-0.200272 0.185428 0.234671 1.05146e-38 3
-0.19644 0.185428 0.234671 1.31883e-38 3
1.24976 0.788069 0.99735 5.62608e-39 3
