# .PCD v0.7 - Point Cloud Data file format
VERSION 0.7
FIELDS x y z rgb label
SIZE 4 4 4 4 4
TYPE F F F F U
COUNT 1 1 1 1 1
WIDTH 884
HEIGHT 1
VIEWPOINT 0 0 0 1 0 0 0
POINTS 884
DATA ascii
-1.32627 -1.67417 1.87736 5.25515e-39 3
-1.22536 -1.49014 1.73452 3.87222e-39 3
-1.11612 -1.37527 1.69762 7.65189e-39 3
-1.0884 -1.34755 1.69762 8.29725e-39 3
-1.14955 -1.39398 1.79299 7.83556e-39 3
-1.04407 -1.33402 1.71587 5.0686e-39 3
-1.16261 -1.38021 1.81336 9.0341e-39 3
-1.07208 -1.306 1.71587 8.48021e-39 3
-1.14955 -1.33542 1.79299 8.38873e-39 3
-1.07208 -1.27798 1.71587 9.77094e-39 3
-1.17597 -1.33617 1.83421 9.49544e-39 3
-1.08374 -1.26355 1.73452 8.94118e-39 3
0.330713 0.239332 1.2869 3.41087e-39 3
-1.29544 0.388951 1.9226 1.60407e-38 3
-0.229646 0.108332 0.53549 5.44026e-39 3
-0.221645 0.108697 0.537293 3.96441e-39 3
-0.212872 0.108697 0.537293 7.83663e-39 3
-0.206181 0.109806 0.542775 3.78002e-39 3
2.02979 0.538049 2.6596 2.30382e-39 1
-1.41475 0.459062 2.09968 1.60406e-38 3
-1.38256 0.47147 2.15643 1.85299e-38 3
-1.2463 0.436109 1.9947 1.90831e-38 3
-0.24677 0.112909 0.516427 4.05733e-39 3
-0.240673 0.114015 0.52149 4.14881e-39 3
-0.235233 0.115526 0.528397 4.241e-39 3
-0.228878 0.116685 0.533699 6.45406e-39 3
-0.220902 0.117076 0.53549 4.42611e-39 3
-0.212872 0.117471 0.537293 7.46821e-39 3
-0.205482 0.118267 0.540936 3.31941e-39 3
-0.198669 0.119482 0.546493 3.87258e-39 3
0.320022 0.29074 1.3298 3.50307e-39 3
2.07322 0.581479 2.6596 2.21198e-39 1
-1.39638 0.486942 2.07242 1.6686e-38 3
-1.36413 0.499927 2.12768 1.82533e-38 3
-1.27825 0.480699 2.04585 1.99132e-38 3
-0.24677 0.121342 0.516427 4.97893e-39 3
-0.240673 0.122531 0.52149 4.70198e-39 3
-0.234456 0.123744 0.526653 4.88637e-39 3
-0.228115 0.124982 0.53192 5.44026e-39 3
-0.220163 0.1254 0.533699 4.88673e-39 3
-0.212157 0.125821 0.53549 5.07112e-39 3
-0.204788 0.126671 0.539108 4.79454e-39 3
-0.199352 0.128847 0.548371 3.68819e-39 3
-0.19238 0.130189 0.554083 5.25551e-39 3
0.320022 0.312454 1.3298 3.22648e-39 3
0.573633 0.297576 1.26648 2.39637e-39 3
0.585028 0.292926 1.24669 3.41052e-39 3
0.605385 0.292926 1.24669 2.39637e-39 3
1.62819 0.480699 2.04585 1.8432e-39 3
-1.39638 0.520783 2.07242 1.65938e-38 3
-1.34618 0.527636 2.09968 1.88987e-38 3
-1.31189 0.527636 2.09968 2.06504e-38 3
-1.33011 0.549319 2.18597 1.76069e-38 3
-0.245974 0.129356 0.514761 3.87401e-39 3
-0.23911 0.130196 0.518104 4.33391e-39 3
-0.232919 0.131476 0.5232 4.70269e-39 3
-0.226604 0.132782 0.528397 7.46856e-39 3
-0.219429 0.133668 0.53192 4.05697e-39 3
-0.211448 0.134115 0.533699 6.17747e-39 3
0.372692 0.290582 1.15635 3.78002e-39 3
0.552952 0.318256 1.26648 2.1205e-39 3
0.56467 0.313284 1.24669 2.02758e-39 3
0.585028 0.313284 1.24669 1.47441e-39 3
0.605385 0.313284 1.24669 2.11978e-39 3
0.755614 0.378305 1.50543 2.85807e-39 3
0.795201 0.38558 1.53438 2.48856e-39 3
0.741953 0.328691 1.308 1.47441e-39 3
0.789187 0.339833 1.35234 2.02831e-39 3
0.703896 0.294855 1.17335 2.21306e-39 3
0.82393 0.30379 1.20891 2.2127e-39 3
0.85665 0.308464 1.22751 1.93611e-39 3
1.17352 0.378305 1.50543 2.76551e-39 3
1.19811 0.378305 1.50543 2.85735e-39 3
1.22269 0.378305 1.50543 2.48857e-39 3
1.29618 0.39314 1.56447 2.12015e-39 3
0.94032 0.250627 0.99735 3.22613e-39 3
0.968715 0.253799 1.00997 1.56661e-39 3
-1.36103 0.540583 2.01995 1.67782e-38 3
-1.34618 0.561922 2.09968 1.93593e-38 3
-1.32938 0.569414 2.12768 2.06508e-38 3
-1.36758 0.601494 2.24755 1.53945e-38 3
-0.238337 0.138207 0.516427 5.25766e-39 3
-0.231401 0.139108 0.519791 4.24279e-39 3
-0.225856 0.140944 0.526653 6.73172e-39 3
-0.2187 0.141881 0.530153 4.70234e-39 3
0.508077 0.323531 1.20891 4.15024e-39 3
0.527818 0.323531 1.20891 3.96513e-39 3
0.535391 0.316341 1.18204 2.85662e-39 3
0.576027 0.328508 1.22751 2.94882e-39 3
0.605385 0.333641 1.24669 3.41124e-39 3
0.741621 0.395427 1.47756 3.41196e-39 3
0.765749 0.395427 1.47756 2.39637e-39 3
0.722938 0.361916 1.35234 2.11906e-39 3
0.714735 0.347204 1.29737 2.94882e-39 3
0.735921 0.347204 1.29737 3.50272e-39 3
0.71087 0.326001 1.21814 4.33391e-39 3
0.714402 0.318702 1.19087 2.02867e-39 3
0.70745 0.307238 1.14803 3.31905e-39 3
0.816561 0.328508 1.22751 2.39709e-39 3
0.811632 0.318702 1.19087 2.30489e-39 3
0.84367 0.323531 1.20891 3.59563e-39 3
0.863411 0.323531 1.20891 4.241e-39 3
0.844754 0.309464 1.15635 3.13465e-39 3
0.827652 0.29657 1.10817 3.7793e-39 3
0.801234 0.280961 1.04984 2.94954e-39 3
0.818378 0.280961 1.04984 3.04209e-39 3
1.07626 0.361916 1.35234 2.30453e-39 3
1.09835 0.361916 1.35234 2.58076e-39 3
1.12043 0.361916 1.35234 2.58148e-39 3
0.864448 0.258825 0.967127 3.78002e-39 3
0.943115 0.277312 1.03621 2.9499e-39 3
0.924034 0.266913 0.99735 2.8577e-39 3
0.923014 0.262001 0.978994 2.30417e-39 3
0.956606 0.266913 0.99735 2.30417e-39 3
0.985208 0.270292 1.00997 1.93432e-39 3
1.11457 0.300747 1.12377 1.84212e-39 3
1.1829 0.314015 1.17335 3.40945e-39 3
1.20206 0.314015 1.17335 4.14701e-39 3
1.22122 0.314015 1.17335 1.8432e-39 3
-1.41778 0.612323 2.15643 1.77924e-38 3
-1.27887 0.566398 1.9947 1.97288e-38 3
-1.29486 0.588466 2.07242 2.0743e-38 3
-1.38712 0.647312 2.27966 1.86207e-38 3
0.237114 0.383999 1.35234 5.34806e-39 3
0.246655 0.365418 1.2869 5.07147e-39 3
0.346393 0.290461 1.02292 4.61013e-39 3
0.367812 0.294233 1.03621 4.0584e-39 3
0.463744 0.325985 1.14803 2.5822e-39 3
0.493134 0.333176 1.17335 3.41195e-39 3
0.508555 0.330744 1.16479 4.14952e-39 3
0.51627 0.323656 1.13983 4.14844e-39 3
0.531089 0.321361 1.13174 2.85735e-39 3
0.578279 0.338148 1.19087 3.04246e-39 3
0.625743 0.353999 1.24669 2.21341e-39 3
0.656356 0.359618 1.26648 3.31904e-39 3
0.677037 0.359618 1.26648 3.31868e-39 3
0.686816 0.353999 1.24669 4.33175e-39 3
0.735921 0.368389 1.29737 3.68746e-39 3
0.721892 0.351255 1.23702 2.67439e-39 3
0.730762 0.345892 1.21814 3.22757e-39 3
0.717778 0.330744 1.16479 2.5822e-39 3
0.792186 0.338148 1.19087 5.71613e-39 3
0.799696 0.333176 1.17335 3.31905e-39 3
0.818857 0.333176 1.17335 2.76587e-39 3
0.814073 0.323656 1.13983 3.87222e-39 3
0.809556 0.314666 1.10817 4.1488e-39 3
0.794546 0.302079 1.06384 2.30489e-39 3
0.801234 0.298104 1.04984 2.30489e-39 3
0.818378 0.298104 1.04984 3.31904e-39 3
0.907137 0.323656 1.13983 2.85806e-39 3
1.01254 0.353999 1.24669 1.93611e-39 3
1.0329 0.353999 1.24669 2.76587e-39 3
0.880456 0.279703 0.985037 3.13429e-39 3
0.931024 0.290461 1.02292 3.04209e-39 3
0.890635 0.272963 0.961301 2.9499e-39 3
0.911826 0.274617 0.967127 2.48784e-39 3
0.874611 0.258925 0.911863 3.3176e-39 3
0.960881 0.279703 0.985037 2.76443e-39 3
1.0017 0.286784 1.00997 2.1187e-39 3
1.0725 0.302079 1.06384 2.30238e-39 3
1.15742 0.306161 1.07822 1.93432e-39 3
1.15936 0.302079 1.06384 2.02651e-39 3
1.19263 0.306161 1.07822 2.67188e-39 3
1.42155 0.359618 1.26648 2.2109e-39 3
1.54001 0.383999 1.35234 3.41053e-39 3
1.56209 0.383999 1.35234 2.39637e-39 3
1.79742 0.435691 1.53438 1.751e-39 3
-0.977412 0.357594 1.19087 3.68675e-39 3
-1.21995 0.557182 1.85553 1.92678e-38 3
0.22934 0.392768 1.308 6.6388e-39 3
0.231707 0.363013 1.20891 5.90159e-39 3
0.240515 0.347229 1.15635 5.16367e-39 3
0.245184 0.328203 1.09299 5.34806e-39 3
0.228587 0.285224 0.949857 4.33355e-39 3
0.404593 0.342269 1.13983 4.24279e-39 3
0.384733 0.311154 1.03621 2.12265e-39 3
0.417937 0.323768 1.07822 4.42719e-39 3
0.44151 0.328203 1.09299 3.59635e-39 3
0.482491 0.344731 1.14803 3.78074e-39 3
0.501237 0.344731 1.14803 2.85878e-39 3
0.508998 0.337448 1.12377 2.58148e-39 3
0.512901 0.328203 1.09299 3.31904e-39 3
0.5457 0.337448 1.12377 7.19126e-39 3
0.580399 0.347229 1.15635 2.76658e-39 3
0.636161 0.368597 1.22751 3.68782e-39 3
0.656205 0.368597 1.22751 3.59527e-39 3
0.67625 0.368597 1.22751 2.02686e-39 3
0.729986 0.386433 1.2869 1.84391e-39 3
0.705485 0.363013 1.20891 3.04245e-39 3
0.646823 0.323768 1.07822 3.22685e-39 3
0.66443 0.323768 1.07822 3.04246e-39 3
0.788604 0.374357 1.24669 3.04246e-39 3
0.739623 0.342269 1.13983 2.58148e-39 3
0.71725 0.323768 1.07822 3.96441e-39 3
0.734856 0.323768 1.07822 4.241e-39 3
0.762771 0.328203 1.09299 3.78002e-39 3
0.780618 0.328203 1.09299 3.22685e-39 3
0.777174 0.319451 1.06384 3.50343e-39 3
0.794546 0.319451 1.06384 5.07076e-39 3
0.790829 0.311154 1.03621 3.22685e-39 3
0.818378 0.315248 1.04984 2.1205e-39 3
0.835521 0.315248 1.04984 1.84391e-39 3
0.92575 0.342269 1.13983 2.95026e-39 3
0.944363 0.342269 1.13983 2.95026e-39 3
0.910923 0.323768 1.07822 3.4116e-39 3
0.904094 0.315248 1.04984 2.67368e-39 3
0.823695 0.281869 0.938682 2.48856e-39 3
0.85924 0.288661 0.961301 3.22648e-39 3
0.919238 0.303276 1.00997 1.65916e-39 3
0.849686 0.275389 0.917103 2.85735e-39 3
0.86966 0.276981 0.922404 1.47441e-39 3
0.850317 0.266209 0.886533 2.39529e-39 3
0.949163 0.292181 0.973024 2.48784e-39 3
0.965052 0.292181 0.973024 4.14701e-39 3
1.00546 0.299485 0.99735 3.68603e-39 3
1.06156 0.311154 1.03621 2.94775e-39 3
1.07848 0.311154 1.03621 1.65773e-39 3
1.08136 0.307164 1.02292 2.57969e-39 3
1.09806 0.307164 1.02292 3.31725e-39 3
1.11476 0.307164 1.02292 2.85627e-39 3
1.14616 0.311154 1.03621 2.3031e-39 3
1.17839 0.315248 1.04984 3.87042e-39 3
1.21147 0.319451 1.06384 2.39637e-39 3
1.24621 0.319451 1.06384 1.93539e-39 3
1.26359 0.319451 1.06384 2.67296e-39 3
-0.977412 0.377041 1.19087 2.6726e-39 3
-0.957966 0.377041 1.19087 4.7931e-39 3
0.250699 0.414127 1.308 5.90159e-39 3
0.251447 0.382753 1.20891 5.62465e-39 3
0.232447 0.328074 1.03621 5.80904e-39 3
0.200014 0.263143 0.831125 5.07111e-39 3
0.417246 0.355799 1.12377 4.61157e-39 3
0.401654 0.328074 1.03621 3.22756e-39 3
0.402878 0.315771 0.99735 3.87293e-39 3
0.419164 0.315771 0.99735 3.87293e-39 3
0.501237 0.363478 1.14803 4.6105e-39 3
0.508998 0.355799 1.12377 7.00759e-39 3
0.50597 0.341375 1.07822 4.79489e-39 3
0.530749 0.346051 1.09299 4.05732e-39 3
0.580399 0.366112 1.15635 7.00794e-39 3
0.599282 0.366112 1.15635 5.16367e-39 3
0.618164 0.366112 1.15635 4.9782e-39 3
0.556408 0.319769 1.00997 2.8577e-39 3
0.497353 0.277601 0.876791 4.241e-39 3
0.458739 0.248884 0.786089 4.05696e-39 3
0.47391 0.250116 0.78998 5.53173e-39 3
0.512165 0.263143 0.831125 3.31904e-39 3
0.515007 0.257773 0.814163 4.88637e-39 3
0.575262 0.280686 0.886533 3.31905e-39 3
0.603142 0.287065 0.906682 4.51759e-39 3
0.67135 0.311873 0.985037 3.96441e-39 3
0.704839 0.319769 1.00997 4.33319e-39 3
0.730579 0.323868 1.02292 3.68783e-39 3
0.756987 0.328074 1.03621 4.33319e-39 3
0.763986 0.323868 1.02292 2.30489e-39 3
0.78069 0.323868 1.02292 2.58148e-39 3
0.797394 0.323868 1.02292 3.22685e-39 3
0.814097 0.323868 1.02292 3.96441e-39 3
0.852664 0.332391 1.04984 3.31905e-39 3
0.858511 0.328074 1.03621 2.67368e-39 3
0.783817 0.293741 0.927767 4.05661e-39 3
0.81799 0.300735 0.949857 5.8998e-39 3
0.833501 0.300735 0.949857 4.60906e-39 3
0.869719 0.30807 0.973024 1.6588e-39 3
0.925093 0.321805 1.01641 3.04174e-39 3
0.854598 0.292043 0.922404 3.41052e-39 3
0.845232 0.28384 0.896494 2.58076e-39 3
0.836377 0.276084 0.872 2.02831e-39 3
0.937728 0.304358 0.961301 2.67295e-39 3
0.930992 0.297197 0.938682 3.31833e-39 3
0.883925 0.277601 0.876791 2.76515e-39 3
0.98482 0.304358 0.961301 3.04066e-39 3
1.01272 0.30807 0.973024 2.76516e-39 3
1.0954 0.328074 1.03621 1.56661e-39 3
1.07061 0.315771 0.99735 2.39637e-39 3
1.0869 0.315771 0.99735 2.76515e-39 3
1.11715 0.319769 1.00997 2.85627e-39 3
1.13364 0.319769 1.00997 1.65773e-39 3
1.15013 0.319769 1.00997 1.8432e-39 3
1.15204 0.315771 0.99735 2.39637e-39 3
1.13983 0.30807 0.973024 2.85699e-39 3
1.1282 0.300735 0.949857 2.11979e-39 3
1.14371 0.300735 0.949857 2.39637e-39 3
-0.922347 0.374149 1.12377 4.23993e-39 3
-0.879229 0.363899 1.09299 5.99165e-39 3
-0.838411 0.354195 1.06384 8.3891e-39 3
0.272058 0.435485 1.308 7.46892e-39 3
0.215644 0.320056 0.961301 6.45441e-39 3
0.200014 0.276715 0.831125 6.73063e-39 3
0.402878 0.332058 0.99735 2.30596e-39 3
0.440962 0.336261 1.00997 5.53245e-39 3
0.508998 0.374149 1.12377 4.05805e-39 3
0.50597 0.358981 1.07822 3.59742e-39 3
0.561517 0.384994 1.15635 4.97963e-39 3
0.580399 0.384994 1.15635 4.24207e-39 3
0.599282 0.384994 1.15635 3.32011e-39 3
0.539916 0.336261 1.00997 3.68818e-39 3
0.483035 0.291919 0.876791 3.41087e-39 3
0.450339 0.264324 0.79391 3.96513e-39 3
0.463304 0.264324 0.79391 3.59598e-39 3
0.476268 0.264324 0.79391 4.42502e-39 3
0.484412 0.26172 0.786089 6.26894e-39 3
0.507243 0.266981 0.801889 6.54517e-39 3
0.544985 0.279627 0.839874 2.95026e-39 3
0.570715 0.285641 0.857935 3.41124e-39 3
0.611004 0.298479 0.896494 4.60978e-39 3
0.662884 0.316245 0.949857 3.87221e-39 3
0.712314 0.332058 0.99735 4.88637e-39 3
0.7286 0.332058 0.99735 3.50343e-39 3
0.744887 0.332058 0.99735 2.2127e-39 3
0.761173 0.332058 0.99735 3.78002e-39 3
0.777459 0.332058 0.99735 2.67367e-39 3
0.793745 0.332058 0.99735 3.04246e-39 3
0.820285 0.336261 1.00997 2.76587e-39 3
0.811109 0.325946 0.978994 2.67368e-39 3
0.797731 0.314374 0.944237 2.94954e-39 3
0.822888 0.318139 0.955545 4.33248e-39 3
0.848655 0.321995 0.967127 3.04174e-39 3
0.880456 0.327958 0.985037 3.7793e-39 3
0.90211 0.329995 0.991155 3.13393e-39 3
0.924034 0.332058 0.99735 3.7793e-39 3
0.854837 0.301871 0.906682 2.95026e-39 3
0.840973 0.291919 0.876791 3.13502e-39 3
0.850616 0.290324 0.872 2.1205e-39 3
0.860155 0.288746 0.867261 2.2127e-39 3
0.874317 0.288746 0.867261 3.04246e-39 3
0.903205 0.293532 0.881635 3.04174e-39 3
0.94367 0.301871 0.906682 2.02759e-39 3
1.00412 0.316245 0.949857 3.50272e-39 3
1.0445 0.323959 0.973024 2.48856e-39 3
1.0869 0.332058 0.99735 2.30453e-39 3
1.10318 0.332058 0.99735 3.96297e-39 3
1.11947 0.332058 0.99735 2.67223e-39 3
1.12173 0.327958 0.985037 3.7793e-39 3
1.12394 0.323959 0.973024 4.14809e-39 3
1.11269 0.316245 0.949857 3.04139e-39 3
1.10196 0.308891 0.927767 1.84284e-39 3
1.04144 0.284113 0.853347 1.93539e-39 3
1.05538 0.284113 0.853347 3.41089e-39 3
-0.897077 0.381747 1.09299 3.13358e-39 3
-0.855783 0.371567 1.06384 5.06969e-39 3
-0.816634 0.361916 1.03621 7.19055e-39 3
0.22373 0.348344 0.99735 6.27037e-39 3
0.200014 0.290286 0.831125 6.17818e-39 3
0.576027 0.428731 1.22751 6.91647e-39 3
0.58704 0.422235 1.20891 3.68962e-39 3
0.606781 0.422235 1.20891 4.61193e-39 3
0.590721 0.398107 1.13983 4.51938e-39 3
0.473926 0.309639 0.886533 4.05875e-39 3
0.467619 0.296463 0.848808 3.68818e-39 3
0.445903 0.274557 0.786089 5.16367e-39 3
0.458739 0.274557 0.786089 2.58183e-39 3
0.469264 0.273211 0.782235 4.51794e-39 3
0.466045 0.264147 0.756284 5.71648e-39 3
0.492397 0.271878 0.778419 2.48928e-39 3
0.533748 0.287294 0.822557 2.12086e-39 3
0.55288 0.290286 0.831125 3.78074e-39 3
0.578504 0.296463 0.848808 5.62465e-39 3
0.625643 0.313118 0.896494 4.0566e-39 3
0.678394 0.331756 0.949857 4.05661e-39 3
0.719605 0.344043 0.985037 3.04246e-39 3
0.751776 0.344043 0.985037 2.85806e-39 3
0.767861 0.344043 0.985037 3.78002e-39 3
0.783946 0.344043 0.985037 2.2127e-39 3
0.780753 0.335753 0.961301 3.87221e-39 3
0.79645 0.335753 0.961301 4.1488e-39 3
0.812148 0.335753 0.961301 3.04102e-39 3
0.827845 0.335753 0.961301 1.84247e-39 3
0.864371 0.344043 0.985037 3.3176e-39 3
0.891462 0.348344 0.99735 3.22505e-39 3
0.907748 0.348344 0.99735 3.87042e-39 3
0.924034 0.348344 0.99735 4.05589e-39 3
0.928711 0.344043 0.985037 2.58148e-39 3
0.827335 0.30127 0.862573 3.4116e-39 3
0.836897 0.299651 0.857935 2.76623e-39 3
0.850906 0.299651 0.857935 3.41124e-39 3
0.860291 0.298048 0.853347 2.1205e-39 3
0.878926 0.299651 0.857935 2.30417e-39 3
0.883436 0.296463 0.848808 3.96369e-39 3
0.969492 0.320316 0.917103 2.8577e-39 3
0.984468 0.320316 0.917103 2.30453e-39 3
1.04761 0.335753 0.961301 3.31904e-39 3
1.07627 0.339848 0.973024 2.1205e-39 3
1.06616 0.331756 0.949857 2.30417e-39 3
0.998465 0.306236 0.876791 2.21198e-39 3
1.01278 0.306236 0.876791 1.65881e-39 3
1.0271 0.306236 0.876791 1.65845e-39 3
1.02453 0.30127 0.862573 2.30382e-39 3
1.04426 0.302908 0.867261 2.94919e-39 3
1.05842 0.302908 0.867261 3.41017e-39 3
1.06679 0.30127 0.862573 2.76552e-39 3
-0.897077 0.399594 1.09299 2.58113e-39 3
-0.855783 0.388939 1.06384 4.79311e-39 3
-0.776307 0.360128 0.985037 8.2969e-39 3
-0.741903 0.351451 0.961301 1.0694e-38 3
0.22373 0.36463 0.99735 9.22063e-39 3
0.204269 0.310323 0.848808 5.625e-39 3
0.213585 0.303858 0.831125 5.07182e-39 3
0.606781 0.441976 1.20891 3.50558e-39 3
0.428677 0.29317 0.801889 5.62608e-39 3
0.43521 0.288816 0.78998 4.97963e-39 3
0.443717 0.285984 0.782235 4.05732e-39 3
0.458739 0.287393 0.786089 4.88672e-39 3
0.460239 0.280485 0.767192 4.05696e-39 3
0.457375 0.271352 0.742214 4.61085e-39 3
0.482973 0.279142 0.763521 4.5183e-39 3
0.528302 0.297657 0.814163 2.39781e-39 3
0.54718 0.300726 0.822557 7.28417e-39 3
0.566452 0.303858 0.831125 2.85878e-39 3
0.580023 0.303858 0.831125 2.95026e-39 3
0.612743 0.31366 0.857935 4.1488e-39 3
0.693905 0.347267 0.949857 3.96441e-39 3
0.73569 0.360128 0.985037 3.96441e-39 3
0.751776 0.360128 0.985037 4.79417e-39 3
0.749358 0.351451 0.961301 3.59563e-39 3
0.755948 0.347267 0.949857 5.34735e-39 3
0.712115 0.320554 0.876791 3.41124e-39 3
0.726433 0.320554 0.876791 3.68782e-39 3
0.732699 0.317069 0.867261 4.51614e-39 3
0.74686 0.317069 0.867261 3.3176e-39 3
0.752839 0.31366 0.857935 2.21126e-39 3
0.783703 0.320554 0.876791 3.77823e-39 3
0.854351 0.343181 0.938682 2.85627e-39 3
0.901497 0.355736 0.973024 3.68711e-39 3
0.895543 0.347267 0.949857 2.85807e-39 3
0.822887 0.31366 0.857935 4.51795e-39 3
0.798271 0.299183 0.818338 3.31941e-39 3
0.841854 0.310323 0.848808 2.1205e-39 3
0.829249 0.300726 0.822557 3.87222e-39 3
0.842681 0.300726 0.822557 2.85735e-39 3
0.856113 0.300726 0.822557 4.51687e-39 3
0.878603 0.303858 0.831125 4.70161e-39 3
0.892174 0.303858 0.831125 3.135e-39 3
0.91528 0.307057 0.839874 2.0283e-39 3
0.928995 0.307057 0.839874 1.65952e-39 3
0.94271 0.307057 0.839874 1.65952e-39 3
0.946462 0.303858 0.831125 2.30417e-39 3
0.960033 0.303858 0.831125 2.02759e-39 3
0.983854 0.307057 0.839874 2.12015e-39 3
1.03573 0.318802 0.872 1.93576e-39 3
1.05573 0.320554 0.876791 3.41089e-39 3
1.07005 0.320554 0.876791 2.67332e-39 3
1.07844 0.318802 0.872 3.31833e-39 3
-0.884954 0.411801 1.07822 3.50345e-39 3
-0.773298 0.367148 0.961301 5.43955e-39 3
0.240016 0.380916 0.99735 8.85292e-39 3
0.215834 0.320771 0.839874 4.79631e-39 3
0.350428 0.258248 0.676169 5.53353e-39 3
0.428677 0.306264 0.801889 6.1789e-39 3
0.437375 0.303217 0.79391 7.56111e-39 3
0.44811 0.301716 0.78998 4.4261e-39 3
0.463304 0.303217 0.79391 3.2272e-39 3
0.471575 0.300229 0.786089 5.07111e-39 3
0.496644 0.307811 0.805939 5.5328e-39 3
0.494811 0.298758 0.782235 5.07183e-39 3
0.522965 0.307811 0.805939 3.78074e-39 3
0.52551 0.301716 0.78998 4.24172e-39 3
0.527955 0.295857 0.774641 6.17782e-39 3
0.515576 0.28216 0.738778 5.25515e-39 3
0.508796 0.272083 0.712393 4.88637e-39 3
0.502483 0.262701 0.687827 4.241e-39 3
0.505008 0.258248 0.676169 5.43954e-39 3
0.558659 0.279571 0.732 4.70233e-39 3
0.641203 0.314158 0.822557 4.33319e-39 3
0.661454 0.31743 0.831125 4.51759e-39 3
0.675026 0.31743 0.831125 3.59563e-39 3
0.688598 0.31743 0.831125 3.96441e-39 3
0.702169 0.31743 0.831125 4.14844e-39 3
0.715741 0.31743 0.831125 3.59527e-39 3
0.714429 0.310952 0.814163 2.48856e-39 3
0.679209 0.290222 0.759886 4.14808e-39 3
0.66018 0.27703 0.725345 2.85627e-39 3
0.665971 0.274534 0.718811 3.59491e-39 3
0.683869 0.27703 0.725345 2.39709e-39 3
0.702096 0.279571 0.732 2.02867e-39 3
0.720661 0.28216 0.738778 2.12086e-39 3
0.722688 0.278295 0.728657 2.95026e-39 3
0.801373 0.298758 0.782235 1.47441e-39 3
0.790885 0.290222 0.759886 4.14844e-39 3
0.803294 0.290222 0.759886 3.3194e-39 3
0.808007 0.287484 0.752717 3.87257e-39 3
0.820298 0.287484 0.752717 4.05733e-39 3
0.83259 0.287484 0.752717 2.67439e-39 3
0.844881 0.287484 0.752717 4.14952e-39 3
0.873657 0.293012 0.767192 3.50343e-39 3
0.907438 0.295857 0.774641 1.93576e-39 3
1.0301 0.331231 0.867261 2.67332e-39 3
1.05573 0.334871 0.876791 2.39673e-39 3
1.07596 0.336721 0.881635 2.39673e-39 3
-1.16141 1.98601 4.98675 8.29832e-39 3
0.188404 0.334486 0.839874 9.7738e-39 3
0.202119 0.334486 0.839874 8.20755e-39 3
0.426533 0.317762 0.79788 4.79596e-39 3
0.433066 0.313066 0.786089 3.41231e-39 3
0.443717 0.311531 0.782235 5.07147e-39 3
0.458739 0.313066 0.786089 9.03552e-39 3
0.447336 0.296974 0.745682 4.33354e-39 3
0.449021 0.290193 0.728657 7.56146e-39 3
0.49971 0.314616 0.78998 5.53281e-39 3
0.507584 0.311531 0.782235 4.70269e-39 3
0.50549 0.30263 0.759886 7.65295e-39 3
0.498893 0.291524 0.732 1.38365e-39 3
0.497163 0.283716 0.712393 5.99271e-39 3
0.491251 0.273933 0.687827 1.93611e-39 3
0.493966 0.26929 0.676169 4.88637e-39 3
0.505008 0.26929 0.676169 6.17746e-39 3
0.516049 0.26929 0.676169 3.68818e-39 3
0.570612 0.291524 0.732 2.48928e-39 3
0.647955 0.324247 0.814163 2.58148e-39 3
0.668067 0.327589 0.822557 3.87221e-39 3
0.688598 0.331002 0.831125 5.53173e-39 3
0.694931 0.327589 0.822557 7.19089e-39 3
0.701134 0.324247 0.814163 4.24064e-39 3
0.6668 0.30263 0.759886 3.31868e-39 3
0.648336 0.288874 0.725345 5.16224e-39 3
0.657193 0.287567 0.722063 2.2109e-39 3
0.648445 0.278738 0.699895 3.13394e-39 3
0.654136 0.276315 0.693809 4.42539e-39 3
0.67426 0.279966 0.702978 3.59599e-39 3
0.685739 0.279966 0.702978 2.85843e-39 3
0.700303 0.281205 0.706088 3.96441e-39 3
0.737956 0.291524 0.732 4.14881e-39 3
0.743092 0.288874 0.725345 4.70126e-39 3
0.754936 0.288874 0.725345 1.47513e-39 3
0.753088 0.283716 0.712393 1.84427e-39 3
0.764721 0.283716 0.712393 1.75243e-39 3
0.783348 0.286272 0.718811 3.13537e-39 3
0.795086 0.286272 0.718811 1.93683e-39 3
0.785591 0.278738 0.699895 3.04317e-39 3
0.800531 0.279966 0.702978 3.41124e-39 3
0.830299 0.286272 0.718811 4.05661e-39 3
0.798855 0.271591 0.681949 1.56769e-39 3
0.91497 0.30263 0.759886 4.14917e-39 3
1.15922 0.378288 0.949857 1.29111e-39 3
0.426533 0.330791 0.79788 3.59634e-39 3
0.43521 0.327515 0.78998 4.14952e-39 3
0.435184 0.318068 0.767192 6.27002e-39 3
0.449875 0.319604 0.770898 7.65259e-39 3
0.451556 0.312067 0.752717 4.05696e-39 3
0.440967 0.296673 0.715587 2.58218e-39 3
0.446643 0.292735 0.706088 4.88743e-39 3
0.48843 0.312067 0.752717 6.54696e-39 3
0.48694 0.303478 0.732 8.94369e-39 3
0.48553 0.295349 0.712393 5.43954e-39 3
0.488441 0.290167 0.699895 3.87221e-39 3
0.487052 0.282727 0.681949 4.05589e-39 3
0.493966 0.280331 0.676169 5.16295e-39 3
0.505008 0.280331 0.676169 3.78002e-39 3
0.516049 0.280331 0.676169 6.08562e-39 3
0.555328 0.295349 0.712393 5.25587e-39 3
0.622545 0.324305 0.782235 4.97928e-39 3
0.66125 0.337541 0.814163 2.1205e-39 3
0.681499 0.341021 0.822557 3.22684e-39 3
0.694931 0.341021 0.822557 3.41124e-39 3
0.680309 0.327515 0.78998 3.59563e-39 3
0.648278 0.306288 0.738778 4.51722e-39 3
0.636758 0.295349 0.712393 4.70161e-39 3
0.642653 0.292735 0.706088 3.68711e-39 3
0.648445 0.290167 0.699895 3.41052e-39 3
0.659874 0.290167 0.699895 4.05661e-39 3
0.68329 0.295349 0.712393 4.42539e-39 3
0.694923 0.295349 0.712393 2.39745e-39 3
0.685145 0.286399 0.690805 4.88673e-39 3
0.705589 0.290167 0.699895 3.68783e-39 3
0.704656 0.285164 0.687827 3.13393e-39 3
0.709769 0.282727 0.681949 3.78002e-39 3
0.714795 0.280331 0.676169 4.70233e-39 3
0.725837 0.280331 0.676169 3.22756e-39 3
0.785591 0.290167 0.699895 1.84463e-39 3
0.779917 0.28394 0.684875 3.13465e-39 3
0.781044 0.280331 0.676169 3.68783e-39 3
0.785429 0.277975 0.670487 3.31905e-39 3
0.789741 0.275659 0.6649 3.78002e-39 3
0.781072 0.268935 0.648683 1.65989e-39 3
0.885225 0.300719 0.725345 3.13502e-39 3
-0.377128 1.07444 2.49337 7.65331e-39 3
-0.35884 1.14607 2.6596 8.20648e-39 3
-0.31541 1.14607 2.6596 8.94333e-39 3
0.433066 0.338738 0.786089 5.25586e-39 3
0.452591 0.34382 0.79788 5.44133e-39 3
0.45649 0.337078 0.782235 5.90123e-39 3
0.447336 0.321327 0.745682 3.96548e-39 3
0.455257 0.318351 0.738778 7.28452e-39 3
0.467321 0.318351 0.738778 4.51865e-39 3
0.474987 0.315431 0.732 3.78073e-39 3
0.473897 0.306982 0.712393 4.79489e-39 3
0.475917 0.293863 0.681949 3.87221e-39 3
0.487052 0.293863 0.681949 3.41088e-39 3
0.493966 0.291373 0.676169 4.79417e-39 3
0.505008 0.291373 0.676169 5.90052e-39 3
0.516049 0.291373 0.676169 3.96513e-39 3
0.545585 0.301596 0.699895 2.12122e-39 3
0.616501 0.333805 0.774641 5.62465e-39 3
0.635319 0.337078 0.782235 2.85806e-39 3
0.681499 0.354453 0.822557 4.1488e-39 3
0.694931 0.354453 0.822557 4.33319e-39 3
0.701134 0.350836 0.814163 4.60978e-39 3
0.686412 0.337078 0.782235 4.70161e-39 3
0.636758 0.306982 0.712393 3.50307e-39 3
0.637016 0.301596 0.699895 2.58076e-39 3
0.642806 0.298974 0.693809 3.04174e-39 3
0.654136 0.298974 0.693809 3.41052e-39 3
0.671303 0.301596 0.699895 5.16296e-39 3
0.682732 0.301596 0.699895 2.95098e-39 3
0.688124 0.298974 0.693809 2.76659e-39 3
0.687497 0.293863 0.681949 3.22685e-39 3
0.758545 0.282979 0.656691 2.39637e-39 3
0.766115 0.281819 0.654 2.76587e-39 3
0.77048 0.279528 0.648683 2.76587e-39 3
0.774773 0.277274 0.643452 1.65988e-39 3
0.846737 0.298974 0.693809 1.2911e-39 3
0.89707 0.312563 0.725345 3.22721e-39 3
-0.333497 0.811019 1.81336 4.88673e-39 3
-0.310953 0.82988 1.85553 7.09978e-39 3
-0.354944 1.04955 2.34671 8.48307e-39 3
0.448533 0.364131 0.814163 5.8094e-39 3
0.475123 0.364131 0.814163 4.24279e-39 3
0.451556 0.33665 0.752717 2.67582e-39 3
0.451081 0.327384 0.732 4.70304e-39 3
0.463034 0.327384 0.732 5.25622e-39 3
0.458173 0.315795 0.706088 4.79489e-39 3
0.540841 0.310303 0.693809 5.34807e-39 3
0.616501 0.346455 0.774641 3.59635e-39 3
0.654571 0.360453 0.805939 1.03259e-38 3
0.688598 0.371717 0.831125 5.43954e-39 3
0.702169 0.371717 0.831125 4.241e-39 3
0.73097 0.379626 0.848808 4.33319e-39 3
0.648391 0.318615 0.712393 3.77858e-39 3
0.642806 0.310303 0.693809 3.87077e-39 3
0.642954 0.304999 0.681949 3.22648e-39 3
0.648547 0.302414 0.676169 3.04209e-39 3
0.659588 0.302414 0.676169 2.12122e-39 3
0.746212 0.280983 0.628252 2.76587e-39 3
0.741868 0.275559 0.616123 2.95062e-39 3
0.740492 0.271368 0.606753 3.68819e-39 3
0.858067 0.310303 0.693809 2.49072e-39 3
-0.355039 0.82195 1.77307 5.34806e-39 3
-0.318997 0.804081 1.73452 6.17782e-39 3
-0.290673 0.804081 1.73452 1.68725e-38 3
-0.280653 0.86018 1.85553 1.22631e-38 3
-0.336412 1.15587 2.49337 1.08812e-38 3
0.448533 0.377426 0.814163 8.66818e-39 3
0.475123 0.377426 0.814163 1.56984e-39 3
0.443194 0.342479 0.738778 3.5985e-39 3
0.557014 0.324454 0.699895 4.79489e-39 3
0.635319 0.362625 0.782235 4.05661e-39 3
0.703249 0.393487 0.848808 3.78002e-39 3
0.72482 0.397718 0.857935 8.66639e-39 3
0.637505 0.313455 0.676169 4.05517e-39 3
0.726199 0.283431 0.611402 3.41124e-39 3
0.725071 0.279153 0.602174 4.33391e-39 3
0.729399 0.277062 0.597663 3.87258e-39 3
-0.504871 0.420776 0.876791 1.66799e-38 3
-1.16141 2.39316 4.98675 1.86264e-38 3
-0.383992 0.850903 1.77307 5.62608e-39 3
-0.326056 0.781441 1.62833 5.07147e-39 3
-0.299467 0.781441 1.62833 5.80832e-39 3
-0.278562 0.797721 1.66225 6.17711e-39 3
-0.280653 0.89048 1.85553 6.17782e-39 3
0.769385 0.420776 0.876791 3.41088e-39 3
0.721746 0.29568 0.616123 5.53137e-39 3
0.725071 0.288986 0.602174 2.67367e-39 3
-0.347398 0.291129 0.586676 1.61292e-38 3
-0.338817 0.776344 1.56447 8.48521e-39 3
-0.290486 0.719882 1.45069 5.90159e-39 3
-0.266798 0.719882 1.45069 6.54624e-39 3
-0.272877 0.808031 1.62833 6.63808e-39 3
0.72482 0.425737 0.857935 1.93718e-39 3
0.769385 0.435094 0.876791 3.50343e-39 3
0.720677 0.301091 0.606753 6.26858e-39 3
0.719639 0.296581 0.597663 1.65952e-39 3
-0.339504 0.285989 0.557958 2.12954e-38 3
-0.333895 0.289021 0.563873 1.62211e-38 3
-0.314175 0.743571 1.45069 1.32801e-38 3
-0.275461 0.70511 1.37565 7.19268e-39 3
0.72482 0.439746 0.857935 8.85292e-39 3
0.73883 0.439746 0.857935 3.13572e-39 3
0.752839 0.439746 0.857935 3.87329e-39 3
0.711643 0.302936 0.591022 2.30489e-39 3
0.698027 0.293164 0.571957 2.30489e-39 3
0.715055 0.296351 0.578174 3.31976e-39 3
-0.321402 0.28707 0.542775 1.7143e-38 3
-0.357356 0.811525 1.53438 1.7798e-38 3
-0.292875 0.715242 1.35234 1.47549e-38 3
0.683786 0.300351 0.567886 4.42539e-39 3
0.685738 0.297178 0.561887 4.33355e-39 3
0.699841 0.299286 0.565872 3.96477e-39 3
-0.320313 0.29493 0.540936 2.0739e-38 3
-0.313606 0.296943 0.544628 1.96294e-38 3
-0.283273 0.713151 1.308 1.42924e-38 3
-0.270792 0.737325 1.35234 1.48445e-38 3
0.278571 0.246471 0.452057 5.4442e-39 3
0.281959 0.243029 0.445743 6.08957e-39 3
0.45628 0.239023 0.438396 2.48964e-39 3
0.465999 0.240344 0.440818 3.04281e-39 3
0.65355 0.295933 0.542775 3.50343e-39 3
0.664674 0.296943 0.544628 6.1771e-39 3
0.669001 0.29493 0.540936 2.21305e-39 3
-0.322499 0.305837 0.544628 2.13844e-38 3
0.273915 0.24961 0.444501 4.98322e-39 3
0.278844 0.247542 0.440818 8.39517e-39 3
0.285254 0.24686 0.439603 3.04675e-39 3
0.288459 0.243506 0.43363 3.50737e-39 3
0.291578 0.240242 0.427818 7.5629e-39 3
0.296182 0.238325 0.424404 1.18961e-38 3
0.338947 0.244169 0.434812 9.86707e-39 3
0.345106 0.243506 0.43363 1.10849e-39 3
0.353147 0.244169 0.434812 4.88923e-39 3
0.359268 0.243506 0.43363 8.11715e-39 3
0.361438 0.240242 0.427818 9.40717e-39 3
0.367439 0.239599 0.426674 8.57776e-39 3
0.421645 0.24686 0.439603 1.02333e-38 3
0.432397 0.248917 0.443267 5.16259e-39 3
0.437206 0.247542 0.440818 6.63737e-39 3
0.440752 0.245507 0.437194 7.65152e-39 3
0.447891 0.245507 0.437194 6.36113e-39 3
0.464715 0.24686 0.439603 4.70233e-39 3
0.471894 0.24686 0.439603 6.08562e-39 3
0.476447 0.245507 0.437194 3.13536e-39 3
0.490636 0.235197 0.418835 3.50344e-39 3
0.497475 0.235197 0.418835 3.87222e-39 3
-0.320313 0.312596 0.540936 1.95408e-38 3
-0.317946 0.319086 0.552166 1.91702e-38 3
0.270153 0.253341 0.438396 1.06072e-38 3
0.277311 0.253341 0.438396 6.27467e-39 3
0.28447 0.253341 0.438396 2.95599e-39 3
0.288459 0.250587 0.43363 2.49394e-39 3
0.292362 0.247892 0.428968 8.94691e-39 3
0.295397 0.244605 0.423278 1.05135e-38 3
0.299922 0.242674 0.419937 8.48522e-39 3
0.306779 0.242674 0.419937 1.2173e-38 3
0.312813 0.242037 0.418835 1.06972e-38 3
0.323044 0.244605 0.423278 6.45619e-39 3
0.329956 0.244605 0.423278 6.54839e-39 3
0.336868 0.244605 0.423278 5.81047e-39 3
0.345613 0.245909 0.425536 6.36436e-39 3
0.353505 0.246567 0.426674 1.16195e-38 3
0.359511 0.245909 0.425536 5.99593e-39 3
0.365485 0.245255 0.424404 8.94654e-39 3
0.430008 0.25474 0.440818 6.82319e-39 3
0.436002 0.254038 0.439603 3.68783e-39 3
0.43835 0.25127 0.434812 4.33319e-39 3
0.446667 0.251956 0.436 1.06943e-38 3
0.45132 0.250587 0.43363 7.74478e-39 3
0.461718 0.248561 0.430124 6.63916e-39 3
0.466229 0.247228 0.427818 7.92989e-39 3
0.463278 0.242037 0.418835 4.61085e-39 3
0.489351 0.241403 0.417738 1.47513e-39 3
0.496173 0.241403 0.417738 2.58148e-39 3
0.505641 0.242674 0.419937 2.1205e-39 3
-0.319231 0.320344 0.539108 1.5486e-38 3
0.54267 0.585319 0.985037 9.22564e-39 3
0.272815 0.256275 0.431286 9.77811e-39 3
0.279103 0.255584 0.430124 1.21766e-38 3
0.283831 0.253534 0.426674 8.67284e-39 3
0.29153 0.248224 0.417738 7.28667e-39 3
0.294497 0.245017 0.412341 6.27359e-39 3
0.302011 0.245652 0.413409 5.90373e-39 3
0.307963 0.245017 0.412341 6.08813e-39 3
0.317155 0.246932 0.415562 7.65473e-39 3
0.328215 0.250189 0.421045 5.62643e-39 3
0.338665 0.252858 0.425536 9.68304e-39 3
0.427753 0.256275 0.431286 2.39781e-39 3
0.440647 0.255584 0.430124 5.34698e-39 3
0.447671 0.255584 0.430124 7.19161e-39 3
0.455924 0.256275 0.431286 6.08526e-39 3
0.456793 0.252858 0.425536 3.32011e-39 3
0.457277 0.245652 0.413409 5.625e-39 3
0.470118 0.248876 0.418835 3.96548e-39 3
0.472002 0.24629 0.414483 3.135e-39 3
0.476296 0.245017 0.412341 3.78002e-39 3
0.48428 0.245652 0.413409 1.38294e-39 3
0.491031 0.245652 0.413409 1.47513e-39 3
0.500374 0.246932 0.415562 2.85806e-39 3
0.505843 0.24629 0.414483 2.48928e-39 3
0.510499 0.601404 0.985037 1.01476e-38 3
0.268461 0.259116 0.424404 1.06993e-38 3
0.274661 0.258428 0.423278 9.22637e-39 3
0.280087 0.257065 0.421045 9.41075e-39 3
0.283226 0.253717 0.415562 8.48772e-39 3
0.287022 0.251102 0.411278 1.0699e-38 3
0.292983 0.250456 0.410221 8.30189e-39 3
0.300454 0.251102 0.411278 6.5491e-39 3
0.30638 0.250456 0.410221 5.44204e-39 3
0.337764 0.259116 0.424404 5.62643e-39 3
0.437113 0.260501 0.426674 6.36185e-39 3
0.445271 0.2612 0.427818 7.92917e-39 3
0.452257 0.2612 0.427818 3.96476e-39 3
0.45437 0.258428 0.423278 4.79489e-39 3
0.456439 0.255715 0.418835 3.78109e-39 3
0.46595 0.249814 0.409169 5.53209e-39 3
0.471423 0.249175 0.408123 3.22684e-39 3
0.478087 0.249175 0.408123 6.45369e-39 3
0.484752 0.249175 0.408123 1.84391e-39 3
0.492676 0.249814 0.409169 2.21269e-39 3
0.498081 0.249175 0.408123 2.21233e-39 3
0.510499 0.617489 0.985037 1.06997e-38 3
0.264244 0.261867 0.417738 4.61372e-39 3
0.269654 0.260503 0.415562 9.22493e-39 3
0.275008 0.259154 0.413409 7.84235e-39 3
0.279585 0.257155 0.410221 9.13309e-39 3
0.291484 0.25584 0.408123 8.48664e-39 3
0.302011 0.259154 0.413409 7.47106e-39 3
0.309563 0.259827 0.414483 8.11571e-39 3
0.318816 0.261867 0.417738 1.07897e-38 3
0.328215 0.26394 0.421045 3.69139e-39 3
0.336868 0.26534 0.423278 5.62715e-39 3
0.467833 0.253892 0.405015 3.135e-39 3
0.472051 0.252609 0.40297 4.24172e-39 3
0.479843 0.253249 0.40399 5.80832e-39 3
0.487674 0.253892 0.405015 2.21305e-39 3
0.491792 0.252609 0.40297 5.53137e-39 3
0.265506 0.263177 0.409169 6.73457e-39 3
0.272187 0.263177 0.409169 1.07915e-38 3
0.270302 0.249124 0.38732 8.94654e-39 3
0.289961 0.239252 0.371972 7.748e-39 3
0.461971 0.257241 0.39994 3.87329e-39 3
0.465005 0.255321 0.396955 5.25587e-39 3
0.473845 0.256598 0.39894 1.84463e-39 3
0.475603 0.254057 0.39499 5.80868e-39 3
0.480863 0.25343 0.394015 6.17746e-39 3
0.269424 0.267119 0.405015 4.70627e-39 3
0.270478 0.244188 0.370246 9.50079e-39 3
0.275247 0.24306 0.368536 8.02638e-39 3
0.283227 0.244755 0.371107 5.53638e-39 3
0.289287 0.244755 0.371107 5.0754e-39 3
0.296035 0.245326 0.371972 6.08956e-39 3
0.303525 0.246475 0.373714 4.98285e-39 3
2.3846 1.6975 2.57381 5.71899e-39 3
2.42663 1.6975 2.57381 7.47071e-39 3
2.46866 1.6975 2.57381 6.6413e-39 3
0.457386 0.261153 0.39597 2.95133e-39 3
0.460424 0.259224 0.393044 5.99451e-39 3
0.471487 0.261803 0.396955 4.4261e-39 3
0.479679 0.259224 0.393044 7.65259e-39 3
0.486097 0.259224 0.393044 6.54624e-39 3
-0.72202 1.05736 1.56447 1.87157e-38 3
0.283356 0.245673 0.363499 1.03306e-38 3
0.288635 0.245115 0.362673 1.18979e-38 3
0.295773 0.241277 0.356993 9.50044e-39 3
0.304326 0.243455 0.360217 5.62894e-39 3
0.267872 0.575294 0.831125 1.2545e-38 3
3.12214 3.24872 4.69341 8.7618e-39 3
0.278054 0.252184 0.364329 1.06089e-38 3
0.284003 0.252184 0.364329 1.04227e-38 3
0.288635 0.251037 0.362673 1.14369e-38 3
0.293889 0.250468 0.36185 1.14365e-38 3
0.291856 0.243833 0.352265 6.0892e-39 3
0.300049 0.241171 0.348419 8.85651e-39 3
2.3846 1.78156 2.57381 5.90373e-39 3
2.42663 1.78156 2.57381 4.05983e-39 3
2.46866 1.78156 2.57381 6.82534e-39 3
-0.322252 0.308913 0.436 1.70552e-38 3
-0.301145 0.295202 0.416647 1.84374e-38 3
-0.289023 0.311466 0.439603 1.97295e-38 3
3.31728 3.53319 4.98675 1.1067e-38 3
3.02108 3.14062 4.43267 1.11603e-38 3
3.09346 3.14062 4.43267 1.01469e-38 3
3.16584 3.14062 4.43267 3.41588e-39 3
0.282712 0.25696 0.362673 8.02638e-39 3
0.285391 0.254072 0.358598 1.24507e-38 3
0.290573 0.248488 0.350716 1.0238e-38 3
0.29565 0.247943 0.349947 8.487e-39 3
-0.324023 0.317769 0.438396 1.77927e-38 3
-0.306751 0.307628 0.424404 1.89905e-38 3
-0.300621 0.308448 0.425536 1.90838e-38 3
-0.298447 0.313463 0.432455 1.91763e-38 3
-0.295388 0.317769 0.438396 1.35524e-38 3
-0.288229 0.317769 0.438396 1.31836e-38 3
3.09346 3.213 4.43267 1.06089e-38 3
3.16584 3.213 4.43267 1.08852e-38 3
0.282071 0.262286 0.36185 9.87029e-39 3
0.282849 0.257612 0.355403 7.74872e-39 3
0.289297 0.258187 0.356196 9.68448e-39 3
-0.325813 0.326723 0.440818 1.88069e-38 3
-0.307569 0.315397 0.425536 2.08352e-38 3
-0.286654 0.323152 0.436 1.3829e-38 3
-0.325813 0.333921 0.440818 1.99132e-38 3
-0.285096 0.328477 0.43363 1.58573e-38 3
3.12214 3.55528 4.69341 3.13931e-39 3
-0.326716 0.342065 0.442039 2.01902e-38 3
-0.275767 0.332845 0.430124 2.1389e-38 3
-0.278015 0.342639 0.43363 1.35524e-38 3
-0.0173153 0.663637 0.839874 1.53052e-38 3
