# .PCD v0.7 - Point Cloud Data file format
VERSION 0.7
FIELDS x y z rgb label
SIZE 4 4 4 4 4
TYPE F F F F U
COUNT 1 1 1 1 1
WIDTH 566
HEIGHT 1
VIEWPOINT 0 0 0 1 0 0 0
POINTS 566
DATA ascii
0.360704 -1.2171 5.91022 2.39637e-39 3
1.91285 -0.153906 1.67975 1.93396e-39 3
1.92007 -0.152303 1.66225 3.40909e-39 3
1.93123 -0.139713 1.85553 2.21163e-39 3
2.16334 -0.14304 1.89971 5.62179e-39 3
2.16855 -0.141357 1.87736 8.75716e-39 3
1.89264 -0.110701 1.87736 3.96334e-39 3
1.9233 -0.110701 1.87736 2.48822e-39 3
2.31085 -0.128898 2.18597 1.56626e-39 3
2.67543 -0.144762 2.45501 3.04139e-39 3
2.52156 -0.134422 2.27966 5.3452e-39 3
2.63404 -0.138376 2.34671 7.5579e-39 3
2.27151 -0.117619 1.9947 7.9274e-39 3
2.27563 -0.116167 1.97007 9.86351e-39 3
2.12423 -0.106927 1.81336 1.06014e-38 3
1.96188 -0.0829728 1.94605 1.74957e-39 3
1.96964 -0.0819731 1.9226 1.47371e-39 3
2.10235 -0.0861236 2.01995 1.74958e-39 3
2.24922 -0.0907169 2.12768 3.22578e-39 3
2.48257 -0.0986053 2.3127 2.94991e-39 3
2.76037 -0.107996 2.53295 3.68747e-39 3
3.14237 -0.119364 2.79958 7.18984e-39 3
2.12423 -0.0773155 1.81336 6.63702e-39 3
1.97042 -0.0531391 2.01995 2.48749e-39 3
1.84033 -0.0488138 1.85553 2.11835e-39 3
1.93825 -0.0505781 1.9226 1.47407e-39 3
2.01827 -0.051827 1.97007 2.85664e-39 3
2.12931 -0.0538203 2.04585 5.80618e-39 3
2.24922 -0.0559731 2.12768 4.70056e-39 3
2.41264 -0.0591266 2.24755 4.0559e-39 3
2.80489 -0.0677094 2.57381 6.6381e-39 3
2.99168 -0.0711523 2.70468 6.08456e-39 3
3.5823 -0.0839597 3.19152 6.26824e-39 3
2.10598 -0.0466443 1.77307 2.7648e-39 3
1.99568 -0.0204129 2.04585 2.30275e-39 3
1.86198 -0.0187318 1.87736 2.30383e-39 3
1.96188 -0.0194171 1.94605 2.67261e-39 3
2.06937 -0.0201545 2.01995 7.65154e-39 3
2.12931 -0.0204129 2.04585 5.8069e-39 3
2.24922 -0.0212294 2.12768 4.51652e-39 3
2.55668 -0.0237642 2.38173 5.53139e-39 3
2.99833 -0.0274518 2.75131 5.71578e-39 3
4.77051 -0.0430325 4.31286 4.88602e-39 3
4.59269 -0.0408257 4.09169 3.68748e-39 3
5.19202 -0.0454915 4.55931 3.41017e-39 3
4.18924 -0.0361864 3.62673 2.39494e-39 3
1.9301 0.0123607 1.94605 4.23993e-39 3
1.96188 0.0123607 1.94605 7.09871e-39 3
2.17973 0.0135144 2.12768 5.53139e-39 3
2.21448 0.0135144 2.12768 4.88602e-39 3
2.31085 0.0138846 2.18597 4.88602e-39 3
3.5687 0.0211162 3.3245 3.96406e-39 3
5.88363 0.0337859 5.3192 3.13502e-39 3
5.7779 0.0326961 5.14761 3.1343e-39 3
6.05735 0.0337859 5.3192 2.30274e-39 3
5.7602 0.0316743 4.98675 3.31618e-39 3
2.39152 0.0565525 2.49337 1.84285e-39 3
2.19243 0.0509769 2.24755 6.72958e-39 3
2.11025 0.0482581 2.12768 6.72993e-39 3
2.14499 0.0482581 2.12768 4.88602e-39 3
2.27056 0.0502689 2.21633 3.31869e-39 3
2.2444 0.0489103 2.15643 3.0421e-39 3
2.34294 0.0502689 2.21633 3.96441e-39 3
3.89312 0.0822582 3.62673 4.42539e-39 3
4.5764 0.0952463 4.19937 2.30489e-39 3
5.51591 0.113105 4.98675 3.59528e-39 3
5.97049 0.120645 5.3192 3.41053e-39 3
6.49002 0.129263 5.69914 1.93432e-39 3
6.58309 0.129263 5.69914 2.39458e-39 3
5.19256 0.100538 4.43267 2.20983e-39 3
5.92306 0.113105 4.98675 2.94812e-39 3
3.83508 0.230561 5.91022 3.68783e-39 3
3.00902 0.124503 3.19152 2.58113e-39 3
2.63891 0.10733 2.75131 5.43919e-39 3
2.16198 0.0864603 2.21633 5.43919e-39 3
2.11025 0.0830019 2.12768 3.87187e-39 3
2.08928 0.080846 2.07242 3.87186e-39 3
2.17973 0.0830019 2.12768 3.50308e-39 3
2.15696 0.080846 2.07242 3.41124e-39 3
2.16271 0.0798095 2.04585 3.31905e-39 3
4.62966 0.168247 4.31286 3.59563e-39 3
4.83065 0.172921 4.43267 3.87222e-39 3
5.19144 0.183092 4.69341 2.58112e-39 3
5.42772 0.188641 4.83564 2.76516e-39 3
5.86196 0.200811 5.14761 3.22506e-39 3
4.60816 0.155629 3.9894 2.21019e-39 3
4.45077 0.148218 3.79943 2.57861e-39 3
3.50996 0.11528 2.95511 2.11763e-39 3
3.55822 0.11528 2.95511 2.67153e-39 3
3.23585 0.275966 4.98675 3.22578e-39 3
2.68384 0.152257 2.75131 2.94991e-39 3
2.08248 0.116196 2.09968 3.31869e-39 3
2.03638 0.111784 2.01995 2.94991e-39 3
2.06937 0.111784 2.01995 1.93576e-39 3
2.05044 0.109024 1.97007 3.59528e-39 3
2.63581 0.137983 2.49337 2.94991e-39 3
5.35305 0.275966 4.98675 3.68747e-39 3
5.43448 0.275966 4.98675 2.48893e-39 3
5.51591 0.275966 4.98675 2.02795e-39 3
5.26808 0.259733 4.69341 2.76552e-39 3
4.54302 0.220773 3.9894 1.56626e-39 3
4.38872 0.21026 3.79943 1.93432e-39 3
3.33807 0.157695 2.84957 2.30238e-39 3
2.96153 0.137983 2.49337 1.8414e-39 3
2.51687 0.3091 4.31286 4.23921e-39 3
2.51921 0.300966 4.19937 2.02616e-39 3
3.11326 0.228734 3.19152 2.76552e-39 3
2.82622 0.204227 2.84957 2.30454e-39 3
2.51366 0.178699 2.49337 3.1343e-39 3
2.55438 0.178699 2.49337 2.30454e-39 3
2.59509 0.178699 2.49337 1.84428e-39 3
5.43448 0.357397 4.98675 1.75208e-39 3
5.51591 0.357397 4.98675 1.4755e-39 3
5.26808 0.336374 4.69341 2.39673e-39 3
4.54302 0.285918 3.9894 2.48857e-39 3
3.29154 0.204227 2.84957 2.39529e-39 3
3.01503 0.184463 2.57381 3.13106e-39 3
2.70769 0.163382 2.27966 2.67008e-39 3
2.59654 0.15455 2.15643 3.03995e-39 3
-2.82414 0.520092 5.91022 3.1325e-39 1
-2.44409 0.501517 5.69914 2.39529e-39 1
2.49234 0.484224 5.50262 2.21198e-39 3
2.44201 0.390069 4.43267 2.48821e-39 3
2.58624 0.401214 4.55931 3.22578e-39 3
2.45063 0.369539 4.19937 5.16081e-39 3
2.51921 0.369539 4.19937 3.22471e-39 3
2.65772 0.379527 4.31286 1.84105e-39 3
2.80393 0.390069 4.43267 1.84105e-39 3
2.43223 0.219414 2.49337 2.48893e-39 3
5.19144 0.413014 4.69341 1.65989e-39 3
5.26808 0.413014 4.69341 3.59528e-39 3
4.78212 0.369539 4.19937 2.67296e-39 3
4.38872 0.334345 3.79943 2.76408e-39 3
3.11554 0.234041 2.6596 1.84212e-39 3
2.96153 0.219414 2.49337 1.74921e-39 3
-2.36801 0.554942 5.3192 2.39529e-39 1
-2.13858 0.520258 4.98675 2.39637e-39 1
2.48829 0.594581 5.69914 1.9336e-39 3
2.58624 0.475665 4.55931 2.02724e-39 3
2.45063 0.438112 4.19937 3.41017e-39 3
2.51921 0.438112 4.19937 3.13251e-39 3
2.58778 0.438112 4.19937 4.51544e-39 3
2.72815 0.449953 4.31286 2.21055e-39 3
1.12799 0.12064 1.15635 3.31869e-39 3
1.16374 0.122414 1.17335 2.12015e-39 3
4.64498 0.438112 4.19937 2.30526e-39 3
4.97541 0.462452 4.43267 1.47478e-39 3
4.60816 0.416207 3.9894 2.76408e-39 3
4.6733 0.416207 3.9894 1.65773e-39 3
-2.45487 0.641802 5.3192 1.75065e-39 1
-2.36801 0.641802 5.3192 2.02759e-39 1
-2.28115 0.641802 5.3192 1.56661e-39 1
-2.05715 0.601689 4.98675 2.85735e-39 3
-1.75619 0.534835 4.43267 2.85735e-39 1
2.45063 0.506686 4.19937 3.77895e-39 3
2.45461 0.493694 4.09169 2.11943e-39 3
2.45839 0.481351 3.9894 3.04139e-39 3
2.96886 0.566296 4.69341 4.9775e-39 3
2.46541 0.45843 3.79943 1.5659e-39 3
1.1003 0.145864 1.20891 3.22399e-39 3
1.07134 0.139522 1.15635 3.2247e-39 3
1.09023 0.139522 1.15635 3.68603e-39 3
1.11188 0.137529 1.13983 2.30418e-39 3
1.14687 0.139522 1.15635 2.48857e-39 3
4.47787 0.481351 3.9894 2.12015e-39 3
4.60816 0.481351 3.9894 3.04066e-39 3
-2.54173 0.728661 5.3192 1.93396e-39 1
-2.08942 0.642936 4.69341 2.39673e-39 1
-2.13858 0.68312 4.98675 1.65881e-39 1
-1.75619 0.607218 4.43267 2.94954e-39 1
-1.68381 0.607218 4.43267 3.04246e-39 1
-1.45028 0.546496 3.9894 2.85771e-39 1
0.593816 0.240218 1.75358 3.22613e-39 3
0.602586 0.232551 1.69762 2.48857e-39 3
1.09023 0.158405 1.15635 2.76408e-39 3
1.09326 0.156142 1.13983 3.04066e-39 3
1.11188 0.156142 1.13983 3.68711e-39 3
1.13049 0.156142 1.13983 2.67296e-39 3
1.16576 0.158405 1.15635 3.31725e-39 3
1.20206 0.160734 1.17335 2.39529e-39 3
4.41273 0.546496 3.9894 2.12086e-39 3
4.54302 0.546496 3.9894 2.7648e-39 3
5.42136 0.642936 4.69341 2.30274e-39 3
-1.81552 0.582515 3.79943 1.65737e-39 1
-1.52661 0.643832 4.19937 2.57969e-39 1
-1.25922 0.556037 3.62673 1.751e-39 1
0.593816 0.268853 1.75358 3.59419e-39 3
0.609065 0.263071 1.71587 2.21054e-39 3
1.05604 0.174754 1.13983 3.40909e-39 3
1.01656 0.165308 1.07822 2.3031e-39 3
1.03417 0.165308 1.07822 2.21198e-39 3
1.05178 0.165308 1.07822 2.30345e-39 3
1.08403 0.167573 1.09299 2.58004e-39 3
1.1491 0.174754 1.13983 3.7793e-39 3
1.16962 0.172293 1.12377 2.21198e-39 3
1.12461 0.163104 1.06384 3.22685e-39 3
0.911157 0.130136 0.848808 1.75172e-39 3
-1.81552 0.644557 3.79943 2.67188e-39 1
0.600414 0.300793 1.77307 1.75028e-39 3
0.602586 0.287994 1.69762 1.84212e-39 3
1.1003 0.205086 1.20891 1.93397e-39 3
0.998956 0.182915 1.07822 1.65738e-39 3
1.01656 0.182915 1.07822 2.48821e-39 3
1.03417 0.182915 1.07822 3.04174e-39 3
1.05178 0.182915 1.07822 3.31832e-39 3
1.08403 0.185421 1.09299 2.21198e-39 3
1.13292 0.190644 1.12377 2.39529e-39 3
1.15127 0.190644 1.12377 2.39529e-39 3
1.1222 0.182915 1.07822 2.02831e-39 3
0.883203 0.141735 0.835476 1.56733e-39 3
0.911157 0.143997 0.848808 2.48928e-39 3
0.929964 0.144767 0.853347 4.51759e-39 3
0.954103 0.146332 0.862573 3.87222e-39 3
-1.67377 0.674481 3.62673 1.65773e-39 1
1.08723 0.239332 1.2869 2.30454e-39 3
1.08388 0.221471 1.19087 2.9492e-39 3
1.05952 0.208994 1.12377 2.02723e-39 3
1.09326 0.21198 1.13983 2.67296e-39 3
1.11188 0.21198 1.13983 2.58076e-39 3
1.13049 0.21198 1.13983 3.22613e-39 3
1.1829 0.218215 1.17335 2.57968e-39 3
1.20206 0.218215 1.17335 3.31725e-39 3
1.13757 0.203268 1.09299 3.9637e-39 3
1.12461 0.197848 1.06384 3.41052e-39 3
1.11232 0.192709 1.03621 3.68711e-39 3
1.11476 0.190238 1.02292 4.14809e-39 3
1.14616 0.192709 1.03621 4.97785e-39 3
2.08852 0.322578 1.73452 8.01997e-39 3
-0.877365 0.413884 2.04585 2.76407e-39 3
-0.715529 0.350902 1.73452 3.04246e-39 3
1.08723 0.260346 1.2869 3.87186e-39 3
1.07361 0.252211 1.24669 2.12015e-39 3
1.12926 0.260346 1.2869 1.47478e-39 3
1.09718 0.24833 1.22751 2.12015e-39 3
1.08388 0.240918 1.19087 3.41089e-39 3
1.10332 0.240918 1.19087 1.65917e-39 3
1.09023 0.233934 1.15635 1.751e-39 3
1.14222 0.240918 1.19087 1.751e-39 3
1.14458 0.237375 1.17335 2.39709e-39 3
1.16374 0.237375 1.17335 3.31833e-39 3
1.1829 0.237375 1.17335 2.85627e-39 3
1.20206 0.237375 1.17335 3.22469e-39 3
1.13757 0.221116 1.09299 2.30345e-39 3
1.13981 0.218128 1.07822 1.93539e-39 3
1.14198 0.21522 1.06384 4.88566e-39 3
1.12924 0.20963 1.03621 5.71506e-39 3
2.12423 0.366852 1.81336 7.37424e-39 3
2.0602 0.350902 1.73452 7.83558e-39 3
1.96065 0.329418 1.62833 7.00581e-39 3
1.98724 0.329418 1.62833 7.2824e-39 3
1.7621 0.288241 1.42479 6.45336e-39 3
1.07361 0.272568 1.24669 2.67188e-39 3
1.11723 0.268375 1.22751 1.3833e-39 3
1.13727 0.268375 1.22751 2.39602e-39 3
1.1754 0.272568 1.24669 3.04066e-39 3
1.19576 0.272568 1.24669 2.02651e-39 3
1.18111 0.260364 1.19087 3.41124e-39 3
1.1829 0.256535 1.17335 3.31832e-39 3
1.20206 0.256535 1.17335 4.33176e-39 3
1.16962 0.245695 1.12377 1.65808e-39 3
1.15542 0.238964 1.09299 4.23956e-39 3
1.20632 0.245695 1.12377 2.3031e-39 3
2.5574 0.51307 2.34671 2.3031e-39 3
2.75795 0.545137 2.49337 2.67153e-39 3
2.63404 0.51307 2.34671 4.23993e-39 3
2.27151 0.436109 1.9947 4.60908e-39 3
2.09462 0.396463 1.81336 1.051e-38 3
2.07702 0.387653 1.77307 7.46716e-39 3
1.97435 0.363424 1.66225 7.46716e-39 3
1.88376 0.342046 1.56447 7.92777e-39 3
1.77045 0.31717 1.45069 8.48094e-39 3
1.35175 0.238964 1.09299 5.80799e-39 3
1.29845 0.22655 1.03621 5.16297e-39 3
1.31537 0.22655 1.03621 5.80798e-39 3
-1.06564 0.506683 2.15643 2.11978e-39 1
-1.03043 0.506683 2.15643 3.59383e-39 1
1.23205 0.312454 1.3298 3.04174e-39 3
1.21332 0.302375 1.2869 3.13286e-39 3
1.21612 0.292926 1.24669 2.12015e-39 3
1.18111 0.27981 1.19087 2.67368e-39 3
1.1829 0.275695 1.17335 2.67295e-39 3
1.18464 0.271699 1.15635 2.48784e-39 3
1.18633 0.267818 1.13983 2.11906e-39 3
1.18797 0.264046 1.12377 3.3176e-39 3
1.27834 0.27981 1.19087 3.13286e-39 3
2.75795 0.585852 2.49337 1.65773e-39 3
2.29634 0.480699 2.04585 2.58041e-39 3
2.27151 0.468682 1.9947 3.04175e-39 3
2.09462 0.426074 1.81336 4.33286e-39 3
1.98864 0.398878 1.69762 4.79384e-39 3
1.93406 0.382597 1.62833 6.08458e-39 3
1.84754 0.360524 1.53438 6.54484e-39 3
1.73883 0.334773 1.42479 7.00617e-39 3
1.35175 0.256812 1.09299 5.53104e-39 3
1.29845 0.243471 1.03621 4.79347e-39 3
1.29851 0.24035 1.02292 6.2686e-39 3
1.29856 0.237307 1.00997 5.89982e-39 3
-2.31934 1.17942 4.69341 2.2127e-39 1
-1.00331 0.527636 2.09968 2.76515e-39 1
-0.969027 0.527636 2.09968 1.751e-39 1
1.25376 0.334169 1.3298 3.50164e-39 3
1.23433 0.32339 1.2869 1.74992e-39 3
1.21612 0.313284 1.24669 2.58076e-39 3
1.18111 0.299256 1.19087 3.13394e-39 3
1.1829 0.294855 1.17335 2.48749e-39 3
1.18464 0.290582 1.15635 2.67223e-39 3
1.18633 0.286431 1.13983 2.85663e-39 3
1.2224 0.290582 1.15635 3.87078e-39 3
1.71297 0.401003 1.59576 2.39529e-39 3
2.71724 0.626567 2.49337 3.40945e-39 3
2.63404 0.58971 2.34671 2.76516e-39 3
2.32975 0.514107 2.04585 2.39673e-39 3
1.98864 0.426599 1.69762 1.56734e-39 3
1.85822 0.39314 1.56447 1.47515e-39 3
1.33348 0.270948 1.07822 3.77967e-39 3
1.29845 0.260392 1.03621 4.33284e-39 3
1.28207 0.253799 1.00997 3.77932e-39 3
1.28233 0.250627 0.99735 2.39674e-39 3
-1.81552 1.01681 3.79943 2.30561e-39 1
-0.995216 0.577109 2.15643 2.85878e-39 3
-0.960003 0.577109 2.15643 3.68854e-39 3
1.27548 0.355884 1.3298 2.85663e-39 3
1.25535 0.344404 1.2869 2.39529e-39 3
1.23647 0.333641 1.24669 2.57968e-39 3
1.20055 0.318702 1.19087 2.02651e-39 3
1.20206 0.314015 1.17335 2.48749e-39 3
1.23945 0.318702 1.19087 3.50199e-39 3
1.56196 0.395427 1.47756 3.13321e-39 3
2.89839 0.711768 2.6596 2.1187e-39 3
2.84692 0.688808 2.57381 3.31725e-39 3
2.79867 0.667283 2.49337 2.39637e-39 3
2.75334 0.647062 2.41782 1.93611e-39 3
2.63323 0.610087 2.27966 2.39745e-39 3
2.03187 0.464197 1.73452 1.47514e-39 3
1.82248 0.410635 1.53438 2.21271e-39 3
1.57056 0.344404 1.2869 2.39673e-39 3
1.33348 0.288555 1.07822 1.8432e-39 3
1.2818 0.273757 1.02292 1.93539e-39 3
1.28233 0.266913 0.99735 1.75065e-39 3
-2.2427 1.3327 4.69341 4.79597e-39 1
-0.969027 0.596209 2.09968 2.95206e-39 3
-0.93474 0.596209 2.09968 4.14952e-39 3
3.10542 0.809141 2.84957 4.24028e-39 3
3.15195 0.809141 2.84957 3.22613e-39 3
3.19848 0.809141 2.84957 3.04174e-39 3
3.63441 0.906237 3.19152 3.22685e-39 3
2.0602 0.49252 1.73452 3.87186e-39 3
1.54955 0.365418 1.2869 2.94955e-39 3
1.31588 0.306161 1.07822 3.41052e-39 3
1.29839 0.298104 1.04984 4.14809e-39 3
1.26558 0.286784 1.00997 3.13394e-39 3
1.26604 0.283199 0.99735 2.67296e-39 3
1.2665 0.279703 0.985037 2.76587e-39 3
5.1148 1.40934 4.69341 2.11979e-39 3
5.19144 1.40934 4.69341 1.751e-39 3
5.26808 1.40934 4.69341 2.85735e-39 3
6.49002 1.71134 5.69914 4.70126e-39 3
1.36272 0.339842 1.13174 3.31833e-39 3
1.28125 0.315248 1.04984 2.48857e-39 3
1.28153 0.311154 1.03621 2.58076e-39 3
1.24976 0.299485 0.99735 3.31832e-39 3
1.25041 0.295788 0.985037 1.47441e-39 3
1.23598 0.288661 0.961301 3.13465e-39 3
1.36272 0.358322 1.13174 3.04174e-39 3
1.39107 0.360882 1.13983 1.751e-39 3
1.28153 0.328074 1.03621 1.8432e-39 3
1.24976 0.315771 0.99735 1.47441e-39 3
1.25041 0.311873 0.985037 3.59491e-39 3
1.25105 0.30807 0.973024 2.0283e-39 3
1.01254 0.415072 1.24669 5.16367e-39 3
1.06622 0.428461 1.2869 5.80904e-39 3
1.37246 0.379494 1.13983 2.02723e-39 3
1.40108 0.382225 1.14803 1.56626e-39 3
1.43011 0.384994 1.15635 1.65845e-39 3
1.26558 0.336261 1.00997 1.65845e-39 3
1.26604 0.332058 0.99735 2.11979e-39 3
1.2665 0.327958 0.985037 3.13465e-39 3
1.02419 0.449476 1.2869 6.4537e-39 3
1.06234 0.456844 1.308 7.46821e-39 3
1.23561 0.520888 1.49136 4.24172e-39 3
1.27185 0.525802 1.50543 7.28417e-39 3
1.29644 0.525802 1.50543 5.62358e-39 3
1.12926 0.449476 1.2869 4.79454e-39 3
1.15027 0.449476 1.2869 4.33356e-39 3
1.34481 0.516065 1.47756 2.67404e-39 3
1.13727 0.428731 1.22751 3.4116e-39 3
1.12277 0.415933 1.19087 3.04246e-39 3
1.15952 0.422235 1.20891 3.68783e-39 3
1.40968 0.398107 1.13983 2.02724e-39 3
1.28207 0.352753 1.00997 2.76372e-39 3
1.2462 0.560969 1.53438 3.87222e-39 3
1.25915 0.555627 1.51977 4.24172e-39 3
1.28397 0.555627 1.51977 3.78002e-39 3
1.29644 0.550385 1.50543 3.87222e-39 3
1.34642 0.560969 1.53438 2.85843e-39 3
1.37148 0.560969 1.53438 2.3971e-39 3
1.35738 0.545241 1.49136 3.04282e-39 3
1.13727 0.448775 1.22751 3.41089e-39 3
1.15732 0.448775 1.22751 2.02795e-39 3
1.36188 0.407977 1.11592 1.47406e-39 3
1.29851 0.373979 1.02292 2.11835e-39 3
1.35005 0.63486 1.66225 3.68675e-39 3
1.25915 0.580443 1.51977 3.22613e-39 3
1.29631 0.586025 1.53438 3.22648e-39 3
1.28432 0.569594 1.49136 3.13393e-39 3
1.3336 0.580443 1.51977 2.67332e-39 3
1.3456 0.574968 1.50543 1.9354e-39 3
1.32036 0.55406 1.45069 2.30454e-39 3
1.1923 0.491505 1.2869 1.75137e-39 3
1.33348 0.411801 1.07822 1.65917e-39 3
1.33307 0.40631 1.06384 2.39602e-39 3
1.29851 0.390683 1.02292 2.30274e-39 3
1.28233 0.380916 0.99735 1.8432e-39 3
1.28282 0.641943 1.61188 4.7931e-39 3
1.28322 0.629231 1.57996 4.69983e-39 3
1.2836 0.617013 1.54928 3.22434e-39 3
1.32173 0.623062 1.56447 4.05589e-39 3
1.29644 0.59955 1.50543 4.05589e-39 3
1.34642 0.61108 1.53438 1.75136e-39 3
1.3456 0.59955 1.50543 2.21235e-39 3
1.28207 0.40223 1.00997 1.74957e-39 3
1.37878 0.70381 1.69762 2.20911e-39 3
1.32211 0.661581 1.59576 2.763e-39 3
1.34817 0.661581 1.59576 2.3031e-39 3
1.28432 0.6183 1.49136 2.58076e-39 3
1.32102 0.624133 1.50543 2.48857e-39 3
1.32068 0.612575 1.47756 2.30382e-39 3
3.60647 1.22515 2.95511 1.65845e-39 3
2.24267 0.751797 1.81336 1.84212e-39 3
1.42829 0.472558 1.13983 2.11835e-39 3
1.33268 0.435251 1.04984 2.57933e-39 3
1.29856 0.418722 1.00997 2.85627e-39 3
1.4065 0.731531 1.69762 2.39422e-39 3
1.37568 0.701673 1.62833 1.75065e-39 3
1.27243 0.636703 1.47756 1.65917e-39 3
1.57869 0.747434 1.73452 2.2109e-39 3
3.04296 1.07444 2.49337 1.56626e-39 3
2.43855 0.838584 1.94605 2.76408e-39 3
1.56172 0.767416 1.71587 2.11871e-39 3
6.00449 2.2303 4.98675 3.1343e-39 3
3.60647 1.32166 2.95511 2.21162e-39 3
3.08368 1.11515 2.49337 2.02723e-39 3
1.74217 1.99934 4.31286 2.30526e-39 3
2.17725 2.31173 4.98675 9.77273e-39 3
1.7209 1.76132 3.79943 4.88565e-39 3
1.44007 1.42261 3.06877 1.56769e-39 3
0.525736 0.385289 0.831125 1.74992e-39 3
0.592364 0.393487 0.848808 1.93432e-39 3
1.79057 2.12726 4.43267 5.34771e-39 3
1.63576 1.86784 3.8921 8.66639e-39 3
1.78646 1.96362 4.09169 6.54661e-39 3
1.80694 1.91453 3.9894 4.6105e-39 3
1.4683 1.50159 3.12894 2.58184e-39 3
1.29149 1.27635 2.6596 2.12086e-39 3
1.11243 1.06363 2.21633 1.93611e-39 3
0.861468 0.797721 1.66225 2.67151e-39 3
0.517556 0.403059 0.839874 1.751e-39 3
0.578504 0.407347 0.848808 1.84177e-39 3
0.592364 0.407347 0.848808 2.11871e-39 3
0.606225 0.407347 0.848808 1.93539e-39 3
1.93296 2.47459 4.98675 3.50488e-39 3
2.30216 2.82811 5.69914 4.42576e-39 3
1.86295 2.19964 4.43267 3.04246e-39 3
2.11127 2.39961 4.83564 2.76659e-39 3
1.95345 2.14019 4.31286 2.95026e-39 3
1.7019 1.79971 3.62673 2.39745e-39 3
1.10699 1.13124 2.27966 1.56769e-39 3
0.834324 0.824865 1.66225 1.56733e-39 3
0.677876 0.649074 1.308 2.11906e-39 3
0.520271 0.430364 0.867261 5.2555e-39 3
0.517556 0.416774 0.839874 3.31868e-39 3
0.647373 0.471351 0.949857 3.22613e-39 3
0.640026 0.455098 0.917103 2.02759e-39 3
0.606225 0.421208 0.848808 2.48857e-39 3
0.633946 0.421208 0.848808 1.84356e-39 3
0.647807 0.421208 0.848808 1.47442e-39 3
4.49388 2.63957 5.3192 2.94847e-39 3
4.58074 2.63957 5.3192 1.84284e-39 3
1.93533 2.27202 4.43267 2.1205e-39 3
1.56007 1.70402 3.3245 1.93611e-39 3
1.17408 1.23929 2.41782 1.38365e-39 3
0.834324 0.852009 1.66225 2.48928e-39 3
0.666943 0.65962 1.2869 2.02686e-39 3
0.687957 0.65962 1.2869 2.48963e-39 3
0.589393 0.517676 1.00997 1.1801e-38 3
0.576686 0.492728 0.961301 9.4965e-39 3
0.631385 0.498737 0.973024 4.0566e-39 3
0.67135 0.504894 0.985037 5.53246e-39 3
0.655085 0.481134 0.938682 5.80832e-39 3
0.62621 0.449411 0.876791 4.70269e-39 3
0.620085 0.435068 0.848808 4.42611e-39 3
0.627273 0.430488 0.839874 2.67332e-39 3
4.49388 2.72643 5.3192 2.94954e-39 3
4.11847 2.40567 4.69341 3.31869e-39 3
3.75352 2.15244 4.19937 3.41089e-39 3
3.15738 1.7781 3.46904 1.93576e-39 3
2.00772 2.34441 4.43267 2.3031e-39 3
1.6279 1.83475 3.46904 1.751e-39 3
1.14422 1.20569 2.27966 1.56768e-39 3
0.689174 0.703322 1.3298 2.39672e-39 3
0.687957 0.680634 1.2869 6.7317e-39 3
0.686816 0.659364 1.24669 1.12525e-38 3
0.696294 0.64922 1.22751 8.66961e-39 3
0.637836 0.578073 1.09299 1.18014e-38 3
0.590925 0.520979 0.985037 1.27233e-38 3
0.687435 0.520979 0.985037 1.0972e-38 3
0.670413 0.496462 0.938682 1.22638e-38 3
0.640528 0.463729 0.876791 1.19872e-38 3
0.633946 0.448929 0.848808 7.28382e-39 3
4.90794 3.01424 5.69914 2.58112e-39 3
4.11847 2.48231 4.69341 2.58113e-39 3
3.10074 1.83475 3.46904 3.96406e-39 3
2.59357 1.50712 2.84957 3.50308e-39 3
2.6401 1.50712 2.84957 2.21306e-39 3
2.0801 2.41679 4.43267 1.84212e-39 3
2.15248 2.41679 4.43267 2.11906e-39 3
1.21356 1.31825 2.41782 2.02866e-39 3
0.712939 0.750038 1.37565 6.91574e-39 3
0.677037 0.690511 1.26648 1.22652e-38 3
0.686816 0.679722 1.24669 1.37425e-38 3
0.675509 0.649286 1.19087 1.494e-38 3
0.655803 0.612707 1.12377 1.08802e-38 3
0.621622 0.564964 1.03621 9.68089e-39 3
0.654845 0.478046 0.876791 1.21705e-38 3
5.001 3.1073 5.69914 3.31797e-39 3
4.45731 2.71889 4.98675 3.68711e-39 3
3.15738 1.8914 3.46904 2.11978e-39 3
2.15248 2.48917 4.43267 5.06932e-39 3
0.953513 1.06679 1.89971 1.13397e-38 3
0.712939 0.772501 1.37565 1.22642e-38 3
0.677037 0.711192 1.26648 1.22663e-38 3
0.686816 0.700079 1.24669 1.23603e-38 3
0.675509 0.668733 1.19087 1.59548e-38 3
0.655803 0.631058 1.12377 1.05117e-38 3
0.655684 0.613768 1.09299 1.02341e-38 3
0.630356 0.574424 1.02292 7.56039e-39 3
0.816314 0.613768 1.09299 9.12809e-39 3
0.634311 0.46672 0.831125 4.70198e-39 3
1.20352 0.649349 1.15635 2.02724e-39 3
1.2224 0.649349 1.15635 2.21162e-39 3
2.76748 3.29343 5.69914 1.04163e-38 3
0.953513 1.09781 1.89971 1.5119e-38 3
0.751826 0.838327 1.45069 1.30939e-38 3
0.687957 0.743677 1.2869 1.25436e-38 3
0.686816 0.720437 1.24669 1.39273e-38 3
0.665172 0.658685 1.13983 1.16181e-38 3
0.669163 0.506681 0.876791 1.84392e-39 3
1.27719 0.720437 1.24669 1.38259e-39 3
1.08136 0.591128 1.02292 2.11943e-39 3
1.12696 0.606684 1.04984 2.48821e-39 3
1.26604 0.57635 0.99735 7.56111e-39 3
1.09134 0.49051 0.848808 5.4399e-39 3
1.7412 2.06134 3.46904 1.17992e-38 3
0.984534 1.12883 1.89971 1.29088e-38 3
0.775515 0.862016 1.45069 1.34638e-38 3
0.68348 0.520998 0.876791 2.85735e-39 3
1.81645 1.05357 1.77307 2.12015e-39 3
1.15742 0.640687 1.07822 2.76552e-39 3
1.09869 0.520998 0.876791 3.13537e-39 3
1.05504 0.493863 0.831125 7.46856e-39 3
1.06861 0.493863 0.831125 6.63808e-39 3
1.2224 0.705996 1.15635 6.17747e-39 3
1.02789 0.507435 0.831125 4.33284e-39 3
1.04146 0.507435 0.831125 6.08456e-39 3
1.05504 0.507435 0.831125 3.87222e-39 3
0.714402 0.765963 1.19087 2.1205e-39 3
