# .PCD v0.7 - Point Cloud Data file format
VERSION 0.7
FIELDS x y z rgb label
SIZE 4 4 4 4 4
TYPE F F F F U
COUNT 1 1 1 1 1
WIDTH 922
HEIGHT 1
VIEWPOINT 0 0 0 1 0 0 0
POINTS 922
DATA ascii
-0.0831831 -0.0621513 0.168329 1.10631e-38 3
-0.0812919 -0.0628139 0.170124 1.32758e-38 3
-0.0933899 -0.0589055 0.16692 8.29725e-39 3
-0.0912368 -0.0592775 0.167975 7.2831e-39 3
-0.0831831 -0.0594026 0.168329 1.40134e-38 3
-0.0809467 -0.0597809 0.169401 1.36446e-38 3
-0.0781805 -0.0597809 0.169401 4.33284e-39 3
-0.0930007 -0.0559457 0.166225 9.86458e-39 3
-0.0908542 -0.0562975 0.16727 9.77239e-39 3
-0.0881228 -0.0562975 0.16727 1.36446e-38 3
-0.0853914 -0.0562975 0.16727 1.3368e-38 3
-0.083008 -0.0565346 0.167975 1.43822e-38 3
-0.0806044 -0.0567736 0.168685 1.30914e-38 3
-0.0778499 -0.0567736 0.168685 1.20773e-38 3
-0.0933899 -0.053454 0.16692 9.31141e-39 3
-0.0910451 -0.0536786 0.167622 1.21695e-38 3
-0.0883079 -0.0536786 0.167622 1.37368e-38 3
-0.0857509 -0.0537916 0.167975 1.24461e-38 3
-0.0831831 -0.0539051 0.168329 1.18929e-38 3
-0.0807752 -0.0541335 0.169042 1.06018e-38 3
-0.0781805 -0.0542485 0.169401 1.41981e-38 3
-0.0760602 -0.0547131 0.170852 1.19858e-38 3
-0.0959149 -0.0506224 0.166572 1.30914e-38 3
-0.0933899 -0.0507283 0.16692 1.56729e-38 3
-0.0910451 -0.0509415 0.167622 1.49353e-38 3
-0.0881228 -0.0508347 0.16727 1.15241e-38 3
-0.0857509 -0.0510487 0.167975 1.27226e-38 3
-0.0831831 -0.0511564 0.168329 1.27223e-38 3
-0.0807752 -0.0513732 0.169042 8.20506e-39 3
-0.0781805 -0.0514822 0.169401 1.20773e-38 3
-0.0757359 -0.0517018 0.170124 1.429e-38 3
-0.0930007 -0.0478026 0.166225 1.3829e-38 3
-0.0906642 -0.0480026 0.16692 4.79382e-39 3
-0.0877549 -0.0479024 0.166572 6.54554e-39 3
-0.0853914 -0.0481032 0.16727 1.429e-38 3
-0.317974 -0.185042 0.643452 1.53963e-38 3
-0.297859 -0.17926 0.623344 5.43919e-39 3
-0.0949241 -0.0447156 0.164851 1.46588e-38 3
-0.0924231 -0.0448082 0.165193 9.31141e-39 3
-0.0899118 -0.0449012 0.165535 4.33284e-39 3
-0.0870281 -0.0448082 0.165193 7.74408e-39 3
-0.328481 -0.174535 0.643452 1.51197e-38 3
-0.31543 -0.173139 0.638304 1.32758e-38 3
-0.301391 -0.171086 0.630735 5.80797e-39 3
-0.0994857 -0.0416792 0.1635 1.15241e-38 3
-0.0970147 -0.0417648 0.163836 1.429e-38 3
-0.0945334 -0.0418508 0.164173 1.37368e-38 3
-0.092042 -0.041937 0.164511 6.54554e-39 3
-0.0895402 -0.0420237 0.164851 4.97857e-39 3
-0.0866692 -0.041937 0.164511 4.97821e-39 3
-0.0841564 -0.0420237 0.164851 1.17085e-38 3
-0.309245 -0.159525 0.625788 1.3368e-38 3
-0.300204 -0.160153 0.628252 6.26895e-39 3
-0.100508 -0.0383802 0.160863 1.18011e-38 3
-0.271983 -0.106647 0.446992 1.55804e-38 3
-0.0968159 -0.0390094 0.1635 1.50272e-38 3
-0.0943393 -0.0390895 0.163836 8.75824e-39 3
-0.0918526 -0.0391699 0.164173 7.83628e-39 3
-0.0891717 -0.0391699 0.164173 6.4537e-39 3
-0.0864909 -0.0391699 0.164173 5.71613e-39 3
-0.08381 -0.0391699 0.164173 6.91468e-39 3
-0.317974 -0.153521 0.643452 1.2907e-38 3
-0.0799285 -0.039909 0.16727 1.10631e-38 3
-0.274666 -0.0977063 0.439603 1.25386e-38 3
-0.0978811 -0.0357534 0.160863 1.64101e-38 3
-0.0952543 -0.0357534 0.160863 1.32755e-38 3
-0.094146 -0.0363395 0.1635 6.82212e-39 3
-0.0914761 -0.0363395 0.1635 8.02102e-39 3
-0.0889886 -0.0364141 0.163836 7.83663e-39 3
-0.0863133 -0.0364141 0.163836 5.80832e-39 3
-0.083638 -0.0364141 0.163836 5.62394e-39 3
-0.0809626 -0.0364141 0.163836 1.18929e-38 3
-0.29655 -0.095251 0.462539 6.26931e-39 3
-0.277727 -0.0915365 0.444501 1.35528e-38 3
-0.0978811 -0.0331266 0.160863 1.5396e-38 3
-0.0952543 -0.0331266 0.160863 1.18007e-38 3
-0.0926275 -0.0331266 0.160863 6.82212e-39 3
-0.0900007 -0.0331266 0.160863 7.56004e-39 3
-0.0888063 -0.0336697 0.1635 8.02102e-39 3
-0.0847471 -0.0331266 0.160863 8.20541e-39 3
-0.0834666 -0.0336697 0.1635 5.53138e-39 3
-0.0807967 -0.0336697 0.1635 5.90017e-39 3
-0.284868 -0.0864452 0.455931 1.43825e-38 3
-0.0978811 -0.0304998 0.160863 1.35524e-38 3
-0.0952543 -0.0304998 0.160863 1.02334e-38 3
-0.0926275 -0.0304998 0.160863 7.74408e-39 3
-0.0900007 -0.0304998 0.160863 6.45369e-39 3
-0.0873739 -0.0304998 0.160863 9.31176e-39 3
-0.0847471 -0.0304998 0.160863 8.66639e-39 3
-0.0834666 -0.0309998 0.1635 8.11286e-39 3
-0.0807967 -0.0309998 0.1635 1.07865e-38 3
-0.299151 -0.080848 0.466596 1.18011e-38 3
-0.288161 -0.0799134 0.461202 1.4751e-38 3
-0.282262 -0.080378 0.463884 1.12475e-38 3
-0.0952543 -0.027873 0.160863 7.92811e-39 3
-0.0926275 -0.027873 0.160863 6.54589e-39 3
-0.0900007 -0.027873 0.160863 5.43991e-39 3
-0.0873739 -0.027873 0.160863 6.91504e-39 3
-0.0847471 -0.027873 0.160863 9.68019e-39 3
-0.0821203 -0.027873 0.160863 1.22617e-38 3
-0.0807967 -0.0283299 0.1635 1.48431e-38 3
-0.29484 -0.0721736 0.459873 1.66874e-38 3
-0.284057 -0.0713511 0.454632 1.2907e-38 3
-0.279017 -0.0719662 0.458552 9.12701e-39 3
-0.0952543 -0.0252462 0.160863 7.46785e-39 3
-0.0926275 -0.0252462 0.160863 5.62394e-39 3
-0.0900007 -0.0252462 0.160863 5.07041e-39 3
-0.0873739 -0.0252462 0.160863 6.08528e-39 3
-0.0847471 -0.0252462 0.160863 1.06021e-38 3
-0.0821203 -0.0252462 0.160863 1.64105e-38 3
-0.0794935 -0.0252462 0.160863 1.67793e-38 3
-0.304987 -0.0652281 0.463884 1.41981e-38 3
-0.29148 -0.0639272 0.454632 1.52123e-38 3
-0.280067 -0.0630294 0.448247 9.588e-39 3
-0.273516 -0.0632069 0.44951 7.74408e-39 3
-0.0952543 -0.0226194 0.160863 6.73064e-39 3
-0.0926275 -0.0226194 0.160863 5.62394e-39 3
-0.0900007 -0.0226194 0.160863 6.54554e-39 3
-0.0873739 -0.0226194 0.160863 1.19851e-38 3
-0.0847471 -0.0226194 0.160863 1.41056e-38 3
-0.0821203 -0.0226194 0.160863 1.77012e-38 3
-0.0794935 -0.0226194 0.160863 1.46588e-38 3
-0.278502 -0.0553985 0.445743 9.86458e-39 3
-0.0978811 -0.0199926 0.160863 8.94262e-39 3
-0.0952543 -0.0199926 0.160863 6.63845e-39 3
-0.0926275 -0.0199926 0.160863 1.01419e-38 3
-0.0900007 -0.0199926 0.160863 1.52119e-38 3
-0.0873739 -0.0199926 0.160863 1.70558e-38 3
-0.0847471 -0.0199926 0.160863 1.65949e-38 3
-0.0821203 -0.0199926 0.160863 1.53963e-38 3
-0.0794935 -0.0199926 0.160863 1.0049e-38 3
0.0223448 -0.230613 1.85553 8.11428e-39 3
-0.100508 -0.0173658 0.160863 1.18932e-38 3
-0.0978811 -0.0173658 0.160863 8.29725e-39 3
-0.0952543 -0.0173658 0.160863 1.14319e-38 3
-0.0926275 -0.0173658 0.160863 1.55807e-38 3
-0.0900007 -0.0173658 0.160863 1.77012e-38 3
-0.0873739 -0.0173658 0.160863 1.62261e-38 3
-0.0847471 -0.0173658 0.160863 1.18932e-38 3
-0.0821203 -0.0173658 0.160863 1.06947e-38 3
-0.0794935 -0.0173658 0.160863 7.00687e-39 3
-0.0768667 -0.0173658 0.160863 5.80833e-39 3
0.0228769 -0.205082 1.89971 8.11536e-39 3
0.0520395 -0.19801 1.83421 9.68304e-39 3
-0.103135 -0.014739 0.160863 1.60424e-38 3
-0.100508 -0.014739 0.160863 1.34609e-38 3
-0.0978811 -0.014739 0.160863 1.58573e-38 3
-0.0952543 -0.014739 0.160863 1.48431e-38 3
-0.0926275 -0.014739 0.160863 1.7609e-38 3
-0.0900007 -0.014739 0.160863 1.06021e-38 3
-0.0873739 -0.014739 0.160863 8.38945e-39 3
-0.0847471 -0.014739 0.160863 1.14323e-38 3
-0.0821203 -0.014739 0.160863 9.12737e-39 3
-0.0794935 -0.014739 0.160863 5.80833e-39 3
-0.212994 -0.0408411 0.445743 6.08491e-39 3
-0.00751786 -0.160672 1.75358 8.02244e-39 3
0.0223448 -0.170013 1.85553 9.49865e-39 3
0.0497521 -0.160672 1.75358 1.1528e-38 3
-0.105761 -0.0121122 0.160863 6.08527e-39 3
-0.103135 -0.0121122 0.160863 7.7448e-39 3
-0.100508 -0.0121122 0.160863 9.31212e-39 3
-0.0978811 -0.0121122 0.160863 9.4958e-39 3
-0.0952543 -0.0121122 0.160863 1.09709e-38 3
-0.0926275 -0.0121122 0.160863 1.15241e-38 3
-0.0900007 -0.0121122 0.160863 6.91432e-39 3
-0.0873739 -0.0121122 0.160863 8.482e-39 3
-0.0847471 -0.0121122 0.160863 1.06947e-38 3
-0.0821203 -0.0121122 0.160863 7.28345e-39 3
-0.225953 -0.0344279 0.457238 7.19126e-39 3
-0.00735619 -0.129197 1.71587 8.94547e-39 3
0.021837 -0.136538 1.81336 1.00522e-38 3
0.0471608 -0.12516 1.66225 1.02373e-38 3
-0.105761 -0.00948543 0.160863 6.08563e-39 3
-0.103135 -0.00948543 0.160863 6.91539e-39 3
-0.100508 -0.00948543 0.160863 6.91539e-39 3
-0.0978811 -0.00948543 0.160863 7.92847e-39 3
-0.0952543 -0.00948543 0.160863 1.0049e-38 3
-0.0926275 -0.00948543 0.160863 1.25383e-38 3
-0.0900007 -0.00948543 0.160863 1.18929e-38 3
-0.0873739 -0.00948543 0.160863 8.482e-39 3
-0.0847471 -0.00948543 0.160863 1.02337e-38 3
-0.0821203 -0.00948543 0.160863 1.12479e-38 3
-0.0794935 -0.00948543 0.160863 1.28152e-38 3
-0.00720132 -0.0990479 1.67975 9.77595e-39 3
0.021837 -0.106927 1.81336 9.22277e-39 3
-0.105761 -0.00685864 0.160863 8.11322e-39 3
-0.103135 -0.00685864 0.160863 7.74443e-39 3
-0.100508 -0.00685864 0.160863 8.29832e-39 3
-0.0978811 -0.00685864 0.160863 1.04185e-38 3
-0.0952543 -0.00685864 0.160863 1.46591e-38 3
-0.0926275 -0.00685864 0.160863 1.51201e-38 3
-0.0900007 -0.00685864 0.160863 1.67793e-38 3
-0.201102 -0.015786 0.370246 1.09713e-38 3
-0.0847471 -0.00685864 0.160863 1.15252e-38 3
-0.0821203 -0.00685864 0.160863 1.27237e-38 3
-0.0794935 -0.00685864 0.160863 1.30921e-38 3
-0.105761 -0.00423184 0.160863 1.18007e-38 3
-0.103135 -0.00423184 0.160863 7.74443e-39 3
-0.100508 -0.00423184 0.160863 8.39052e-39 3
-0.219679 -0.0094977 0.361032 1.34613e-38 3
-0.213783 -0.0094977 0.361032 1.89001e-38 3
-0.208833 -0.00954088 0.362673 1.88079e-38 3
-0.206191 -0.00969512 0.368536 1.1617e-38 3
-0.202039 -0.00978551 0.371972 1.15245e-38 3
-0.0847471 -0.00423184 0.160863 1.15252e-38 3
-0.0821203 -0.00423184 0.160863 8.48272e-39 3
-0.0794935 -0.00423184 0.160863 6.6388e-39 3
-0.113642 -0.00160504 0.160863 6.63773e-39 3
-0.108388 -0.00160504 0.160863 1.26312e-38 3
-0.105761 -0.00160504 0.160863 1.807e-38 3
-0.103135 -0.00160504 0.160863 1.68718e-38 3
-0.100508 -0.00160504 0.160863 9.58906e-39 3
-0.218198 -0.00357799 0.358598 1.0511e-38 3
-0.211866 -0.00356996 0.357794 1.37389e-38 3
-0.207888 -0.00360227 0.361032 1.78874e-38 3
-0.202451 -0.00361044 0.36185 1.6319e-38 3
-0.196542 -0.00361044 0.36185 1.41063e-38 3
-0.190633 -0.00361044 0.36185 1.1433e-38 3
-0.0821203 -0.00160504 0.160863 1.13408e-38 3
-0.0794935 -0.00160504 0.160863 1.01422e-38 3
-0.113642 0.00102175 0.160863 7.55969e-39 3
-0.111015 0.00102175 0.160863 1.23539e-38 3
-0.108388 0.00102175 0.160863 1.66874e-38 3
-0.105761 0.00102175 0.160863 1.62261e-38 3
-0.103135 0.00102175 0.160863 6.91468e-39 3
-0.100508 0.00102175 0.160863 7.92954e-39 3
-0.219183 0.00228799 0.360217 9.40502e-39 3
-0.213301 0.00228799 0.360217 1.00515e-38 3
-0.210267 0.0023194 0.365162 1.04203e-38 3
-0.204772 0.00232472 0.366 1.01433e-38 3
-0.197888 0.00231411 0.364329 1.53974e-38 3
-0.193262 0.00233006 0.366841 1.22627e-38 3
-0.0821203 0.00102175 0.160863 1.11564e-38 3
-0.0794935 0.00102175 0.160863 1.29081e-38 3
-0.0768667 0.00102175 0.160863 1.17099e-38 3
-1.44877 0.0385038 1.69762 8.02174e-39 3
-1.36305 0.0369322 1.62833 5.43954e-39 3
-1.30973 0.0361936 1.59576 1.10635e-38 3
-1.28367 0.0361936 1.59576 1.39208e-38 3
-1.25762 0.0361936 1.59576 1.15245e-38 3
-1.20741 0.0354839 1.56447 1.08791e-38 3
-1.15914 0.0348015 1.53438 1.6042e-38 3
-1.13408 0.0348015 1.53438 1.2262e-38 3
-1.26976 0.0624028 2.75131 9.5887e-39 3
-1.22483 0.0624028 2.75131 8.85078e-39 3
-1.1799 0.0624028 2.75131 1.04181e-38 3
-1.70231 0.0778143 1.9947 5.34806e-39 3
-1.42105 0.0662249 1.69762 7.83735e-39 3
-1.3643 0.0648452 1.66225 1.51201e-38 3
-1.33716 0.0648452 1.66225 1.36446e-38 3
-1.31002 0.0648452 1.66225 4.14881e-39 3
-1.23156 0.0622514 1.59576 5.62393e-39 3
-1.18186 0.0610308 1.56447 1.41981e-38 3
-1.01676 0.053665 1.37565 1.40137e-38 3
-1.26976 0.10733 2.75131 8.57455e-39 3
-1.22483 0.10733 2.75131 6.73028e-39 3
-1.1799 0.10733 2.75131 9.49615e-39 3
-1.09714 0.103752 2.6596 1.46591e-38 3
-1.55324 0.102685 1.85553 6.17782e-39 3
-1.39333 0.093946 1.69762 5.53246e-39 3
-1.36561 0.093946 1.69762 3.31905e-39 3
-1.31002 0.0919888 1.66225 3.96478e-39 3
-1.23156 0.0883092 1.59576 4.5183e-39 3
-1.18186 0.0865777 1.56447 4.6105e-39 3
-1.01676 0.0761287 1.37565 7.92954e-39 3
-1.31511 0.157695 2.84957 1.24468e-38 3
-1.26858 0.157695 2.84957 7.00687e-39 3
-1.36869 0.176618 3.19152 1.11557e-38 3
-1.13498 0.152257 2.75131 1.43825e-38 3
-1.17079 0.163536 2.95511 1.67803e-38 3
-1.01029 0.147182 2.6596 9.6834e-39 3
-1.9644 0.168187 2.34671 5.81012e-39 3
-1.52294 0.132985 1.85553 4.14952e-39 3
-1.36561 0.121667 1.69762 3.87258e-39 3
-1.33789 0.121667 1.69762 4.14917e-39 3
-1.31017 0.121667 1.69762 4.24172e-39 3
-1.36382 0.211791 2.95511 1.08794e-38 3
-1.34038 0.215787 3.01087 1.61342e-38 3
-1.43688 0.259925 3.62673 1.1894e-38 3
-1.12254 0.211791 2.95511 1.03288e-38 3
0.212841 0.197185 2.75131 1.54024e-38 3
-4.25577 0.438828 4.98675 5.16475e-39 3
-2.22632 0.234041 2.6596 6.45513e-39 3
-1.92608 0.206507 2.34671 4.61014e-39 3
-1.60459 0.175531 1.9947 3.78074e-39 3
-1.36382 0.260046 2.95511 1.56733e-38 3
-1.29164 0.255318 2.90138 2.08362e-38 3
-1.34185 0.275343 3.12894 2.01916e-38 3
-1.21905 0.260046 2.95511 1.06032e-38 3
-1.4703 0.326569 3.71107 8.57419e-39 3
0.165068 0.238008 2.70468 1.55868e-38 3
-4.17434 0.520258 4.98675 5.99416e-39 3
-2.51872 0.320159 3.06877 4.42575e-39 3
-1.22743 0.277471 2.6596 1.82547e-38 3
-1.31714 0.346839 3.3245 1.77938e-38 3
-1.18784 0.310549 2.57381 8.20541e-39 3
-1.11 0.300845 2.49337 7.19126e-39 3
-1.15991 0.32634 2.70468 1.65037e-38 3
-0.918441 0.291728 2.41782 1.86253e-38 3
-0.0156662 0.091686 0.759886 1.45726e-38 3
0.079258 0.213934 1.77307 2.03827e-38 3
-1.11 0.34156 2.49337 6.91467e-39 3
-1.02141 0.326266 2.38173 7.74515e-39 3
-0.927164 0.307885 2.24755 7.74515e-39 3
-0.957923 0.33121 2.41782 1.19854e-38 3
-0.918441 0.33121 2.41782 2.04692e-38 3
-0.0291866 0.108217 0.78998 1.39312e-38 3
0.156119 0.753787 5.50262 1.99236e-38 3
-0.0741764 0.111207 0.725345 1.43907e-38 3
-0.0408725 0.117623 0.767192 1.5407e-38 3
-0.0280747 0.116503 0.759886 1.62371e-38 3
-0.107751 0.120854 0.712393 1.04238e-38 3
-0.0936104 0.117702 0.693809 1.35606e-38 3
-0.0837372 0.119785 0.706088 1.4667e-38 3
-0.0735082 0.121943 0.718811 1.5128e-38 3
-0.0629038 0.124181 0.732 1.49439e-38 3
-0.0534003 0.130151 0.767192 1.5774e-38 3
-0.0408725 0.130151 0.767192 1.59602e-38 3
-0.0283447 0.130151 0.767192 1.66988e-38 3
-0.0961178 0.132487 0.712393 1.24554e-38 3
-0.0852459 0.133681 0.718811 1.52212e-38 3
-0.0735082 0.133681 0.718811 1.54053e-38 3
-0.0617704 0.133681 0.718811 1.56815e-38 3
-0.0509507 0.136134 0.732 1.60503e-38 3
-0.0408725 0.142679 0.767192 1.73428e-38 3
-0.0283447 0.142679 0.767192 1.80814e-38 3
-0.0150913 0.136134 0.732 2.01079e-38 3
0.124176 0.0445603 0.239604 9.31497e-39 3
-0.0728519 0.14412 0.712393 1.64194e-38 3
-0.0612189 0.14412 0.712393 1.67875e-38 3
0.123434 0.0481835 0.238173 1.01451e-38 3
-0.157783 0.187574 0.857935 1.11646e-38 3
-0.104516 0.169363 0.774641 1.28259e-38 3
-0.0728519 0.155753 0.712393 1.75243e-38 3
-0.0612189 0.155753 0.712393 1.77098e-38 3
0.0743662 0.210173 0.961301 1.55911e-38 3
0.105284 0.0474032 0.216815 1.77988e-38 3
0.130822 0.0519178 0.237464 1.65988e-38 3
-0.171793 0.201583 0.857935 1.21805e-38 3
-0.163954 0.209467 0.891486 1.15345e-38 3
-0.142244 0.199439 0.848808 1.14405e-38 3
-0.0868101 0.171993 0.732 1.50379e-38 3
-0.0596219 0.16302 0.693809 1.89991e-38 3
0.0771549 0.234341 0.99735 1.66974e-38 3
0.105284 0.0509437 0.216815 1.94608e-38 3
0.113449 0.0531084 0.226028 1.61417e-38 3
0.122339 0.0554653 0.236059 1.68768e-38 3
0.131213 0.055962 0.238173 1.73363e-38 3
0.140247 0.0564677 0.240325 1.78952e-38 3
-0.154462 0.211054 0.839874 1.30103e-38 3
-0.143774 0.215593 0.857935 1.19947e-38 3
-0.129764 0.215593 0.857935 1.23624e-38 3
-0.106586 0.198516 0.78998 1.49453e-38 3
-0.0868101 0.183946 0.732 1.57758e-38 3
-0.0709514 0.174349 0.693809 1.9831e-38 3
0.0608688 0.250627 0.99735 2.01058e-38 3
0.0771549 0.250627 0.99735 1.89087e-38 3
0.093441 0.250627 0.99735 1.76186e-38 3
0.254301 0.208856 0.831125 1.39273e-38 3
0.137363 0.0626567 0.249337 1.83505e-38 3
0.141435 0.0626567 0.249337 1.75264e-38 3
0.143268 0.0616928 0.245502 1.86331e-38 3
-0.164875 0.239922 0.896494 1.5223e-38 3
-0.147746 0.235945 0.881635 1.30096e-38 3
-0.130466 0.230844 0.862573 1.31011e-38 3
-0.106586 0.211416 0.78998 1.57744e-38 3
-0.091867 0.207311 0.774641 1.66066e-38 3
-0.0709514 0.185679 0.693809 1.77119e-38 3
0.255359 0.235945 0.881635 1.26397e-38 3
0.268273 0.234649 0.876791 1.30985e-38 3
0.267872 0.222428 0.831125 1.8903e-38 3
0.281444 0.222428 0.831125 1.72424e-38 3
0.145997 0.0688808 0.257381 1.58666e-38 3
-0.177519 0.251733 0.886533 1.31025e-38 3
-0.163954 0.253139 0.891486 1.51308e-38 3
-0.148566 0.251733 0.886533 1.44851e-38 3
-0.130466 0.244929 0.862573 1.30092e-38 3
-0.115755 0.243612 0.857935 1.59598e-38 3
-0.091867 0.219961 0.774641 1.71587e-38 3
-0.0709514 0.197008 0.693809 1.79896e-38 3
0.259663 0.254561 0.896494 1.27344e-38 3
0.145997 0.0730837 0.257381 8.39836e-39 3
0.147348 0.071696 0.252494 9.13483e-39 3
0.147277 0.0697106 0.245502 9.22705e-39 3
-0.494269 0.321595 1.07098 1.62264e-38 3
-0.175569 0.263284 0.876791 1.31954e-38 3
-0.162142 0.264738 0.881635 1.29181e-38 3
-0.147746 0.264738 0.881635 1.35631e-38 3
-0.123144 0.244478 0.814163 1.31943e-38 3
-0.113318 0.252198 0.839874 1.6513e-38 3
-0.091867 0.23261 0.774641 1.80796e-38 3
-0.0679951 0.199657 0.6649 1.95562e-38 3
0.267167 0.276981 0.922404 1.55935e-38 3
0.272769 0.267696 0.891486 1.54999e-38 3
0.145053 0.0746381 0.248561 1.06082e-38 3
0.148096 0.0721651 0.240325 1.75601e-39 3
0.163771 0.0704671 0.234671 1.47585e-39 3
-0.460288 0.315771 0.99735 1.76094e-38 3
-0.480002 0.341375 1.07822 1.97299e-38 3
-0.176539 0.279135 0.881635 1.34723e-38 3
-0.162142 0.279135 0.881635 1.24578e-38 3
-0.146131 0.276084 0.872 1.24568e-38 3
-0.1219 0.255169 0.805939 1.55914e-38 3
-0.109849 0.257773 0.814163 1.73435e-38 3
0.240729 0.263143 0.831125 1.53187e-38 3
0.147209 0.0756339 0.238886 2.67439e-39 3
0.157497 0.0749606 0.23676 1.84463e-39 3
0.160886 0.0747388 0.236059 1.84463e-39 3
0.164254 0.0745183 0.235363 2.02867e-39 3
-0.179562 0.225124 0.676169 1.5684e-38 3
-0.183826 0.282602 0.848808 1.28263e-38 3
-0.176539 0.293532 0.881635 1.38411e-38 3
-0.161251 0.291919 0.876791 1.255e-38 3
-0.146131 0.290324 0.872 1.28266e-38 3
-0.120681 0.265646 0.79788 1.53156e-38 3
-0.108739 0.268329 0.805939 1.78974e-38 3
-0.0955788 0.268329 0.805939 1.8725e-38 3
0.245851 0.282602 0.848808 1.47652e-38 3
0.143308 0.0795348 0.238886 1.68721e-38 3
0.14677 0.0792973 0.238173 3.13393e-39 3
0.150659 0.0792973 0.238173 2.21269e-39 3
0.154088 0.0790613 0.237464 2.67439e-39 3
0.157966 0.0790613 0.237464 1.75244e-39 3
0.160886 0.0785935 0.236059 1.84463e-39 3
0.164254 0.0783617 0.235363 2.49e-39 3
-0.179562 0.236165 0.676169 1.66048e-38 3
-0.175977 0.246615 0.706088 1.48553e-38 3
-0.178511 0.311369 0.891486 1.33812e-38 3
-0.156105 0.296463 0.848808 1.25497e-38 3
-0.140747 0.293342 0.839874 1.30121e-38 3
-0.120681 0.278675 0.79788 1.37482e-38 3
-0.100609 0.260444 0.745682 1.86335e-38 3
-0.0852459 0.251059 0.718811 1.8909e-38 3
-0.0741764 0.253341 0.725345 2.08433e-38 3
0.251195 0.302908 0.867261 2.00182e-38 3
0.254301 0.290286 0.831125 2.02934e-38 3
0.137363 0.0870859 0.249337 1.55903e-38 3
0.136735 0.0841918 0.241051 2.12124e-38 3
0.138991 0.0831866 0.238173 1.7892e-38 3
0.142455 0.082939 0.237464 7.37707e-39 3
0.146333 0.082939 0.237464 2.0283e-39 3
0.15021 0.082939 0.237464 2.76622e-39 3
0.154088 0.082939 0.237464 3.13501e-39 3
0.157497 0.0826929 0.23676 1.66024e-39 3
0.160411 0.082205 0.235363 2.21306e-39 3
0.163771 0.0819632 0.234671 1.38294e-39 3
0.167603 0.0819632 0.234671 1.56733e-39 3
0.19792 0.0834356 0.238886 1.75171e-39 3
0.201821 0.0834356 0.238886 1.66023e-39 3
0.208216 0.084447 0.241782 1.66096e-39 3
-0.187427 0.243087 0.6649 1.19018e-38 3
-0.182658 0.251469 0.687827 1.34691e-38 3
-0.175977 0.258145 0.706088 1.50389e-38 3
-0.157783 0.31366 0.857935 1.23649e-38 3
-0.142244 0.310323 0.848808 1.31032e-38 3
-0.120681 0.291704 0.79788 1.43007e-38 3
-0.100609 0.27262 0.745682 1.90927e-38 3
-0.0815715 0.251469 0.687827 2.09355e-38 3
0.254301 0.303858 0.831125 2.01065e-38 3
0.141013 0.102713 0.280944 1.41152e-38 3
0.142588 0.100588 0.275131 1.19979e-38 3
0.135839 0.0928993 0.254102 1.63311e-38 3
0.135667 0.0900321 0.246259 1.39326e-38 3
0.136735 0.0881281 0.241051 2.01072e-38 3
0.138577 0.0868166 0.237464 1.71537e-38 3
0.141612 0.0863029 0.236059 2.95168e-39 3
0.145038 0.0860483 0.235363 2.58147e-39 3
0.147575 0.0852935 0.233298 3.2272e-39 3
0.151385 0.0852935 0.233298 2.12229e-39 3
0.1534 0.0843075 0.230601 2.95097e-39 3
0.15537 0.083344 0.227966 2.3978e-39 3
0.204497 0.0868166 0.237464 1.9379e-39 3
-0.281608 0.295857 0.774641 1.77119e-38 3
-0.240894 0.264985 0.693809 1.65127e-38 3
-0.22564 0.260455 0.681949 1.49432e-38 3
-0.210899 0.256078 0.670487 1.07944e-38 3
-0.19995 0.256078 0.670487 1.07022e-38 3
-0.190603 0.258248 0.676169 8.859e-39 3
-0.182658 0.262701 0.687827 9.87136e-39 3
-0.175977 0.269675 0.706088 1.61435e-38 3
-0.119486 0.301716 0.78998 1.71566e-38 3
0.135132 0.0995859 0.260745 1.47627e-38 3
0.134979 0.0964344 0.252494 1.91903e-38 3
0.135667 0.0940533 0.246259 1.59627e-38 3
0.136323 0.091787 0.240325 1.36539e-38 3
0.137757 0.0901576 0.236059 1.65995e-38 3
0.141194 0.0898917 0.235363 2.12264e-39 3
0.141287 0.0875669 0.229276 3.22792e-39 3
0.143383 0.0865718 0.22667 2.21449e-39 3
0.147084 0.0865718 0.22667 2.8595e-39 3
0.150358 0.0863266 0.226028 2.12229e-39 3
0.153181 0.0858402 0.224755 1.93682e-39 3
0.155973 0.0853593 0.223496 1.75244e-39 3
0.159622 0.0853593 0.223496 2.0283e-39 3
0.20062 0.0906943 0.237464 8.66709e-39 3
0.204497 0.0906943 0.237464 8.94583e-39 3
-0.306147 0.320971 0.805939 1.81726e-38 3
-0.281608 0.308507 0.774641 1.95555e-38 3
-0.251843 0.288874 0.725345 1.8264e-38 3
-0.233627 0.281205 0.706088 1.45748e-38 3
-0.218235 0.276315 0.693809 1.05182e-38 3
-0.203368 0.271591 0.681949 9.965e-39 3
-0.192233 0.271591 0.681949 8.95085e-39 3
-0.179562 0.26929 0.676169 8.85543e-39 3
-0.164447 0.281205 0.706088 1.37482e-38 3
-0.111741 0.294224 0.738778 1.89058e-38 3
0.135575 0.104184 0.2616 1.56829e-38 3
0.134979 0.100558 0.252494 1.5317e-38 3
0.135667 0.0980746 0.246259 1.47631e-38 3
0.135913 0.0954239 0.239604 1.01494e-38 3
0.137351 0.093735 0.235363 1.7152e-38 3
0.137543 0.0913108 0.229276 7.28595e-39 3
0.142976 0.0900175 0.226028 2.58362e-39 3
0.151898 0.0887603 0.222871 1.29324e-39 3
0.155537 0.0887603 0.222871 1.66167e-39 3
0.163272 0.0890089 0.223496 1.65952e-39 3
0.194019 0.0951382 0.238886 1.47473e-38 3
0.19792 0.0951382 0.238886 7.65114e-39 3
0.20062 0.0945719 0.237464 9.68159e-39 3
5.04779 1.76534 4.43267 1.9379e-39 3
2.83231 0.962914 2.41782 1.75208e-39 3
-0.306147 0.334132 0.805939 1.89098e-38 3
-0.292987 0.334132 0.805939 1.90016e-38 3
-0.268959 0.321156 0.774641 1.90931e-38 3
-0.235713 0.295349 0.712393 1.40213e-38 3
-0.222097 0.292735 0.706088 1.10703e-38 3
-0.20872 0.290167 0.699895 1.00565e-38 3
-0.19389 0.285164 0.687827 8.67319e-39 3
-0.179562 0.280331 0.676169 1.91813e-38 3
-0.111741 0.306288 0.738778 1.86278e-38 3
0.128073 0.121614 0.293338 2.09291e-38 3
0.134553 0.10435 0.251697 1.19965e-38 3
0.132398 0.0996357 0.240325 5.91089e-39 3
0.1347 0.0984496 0.237464 6.92075e-39 3
0.134572 0.0956042 0.230601 1.49382e-38 3
0.155537 0.0923996 0.222871 1.42013e-38 3
0.199392 0.101782 0.245502 5.71324e-39 3
0.278582 0.129215 0.311672 1.52187e-38 3
4.75826 1.83773 4.43267 1.86246e-38 3
5.79678 2.20527 5.3192 5.99451e-39 3
4.90303 1.83773 4.43267 1.3858e-39 3
3.31694 1.22515 2.95511 2.30883e-39 3
2.75334 1.0024 2.41782 1.84785e-39 3
2.42535 0.870502 2.09968 1.56912e-39 3
2.27966 0.806806 1.94605 2.21413e-39 3
2.31144 0.806806 1.94605 1.93755e-39 3
-0.315714 0.358145 0.831125 1.92793e-38 3
-0.302142 0.358145 0.831125 1.91867e-38 3
-0.277028 0.34382 0.79788 2.01069e-38 3
-0.242201 0.315431 0.732 1.53113e-38 3
-0.22408 0.306982 0.712393 1.16234e-38 3
-0.20872 0.301596 0.699895 9.5033e-39 3
-0.192233 0.293863 0.681949 9.31856e-39 3
-0.178053 0.288924 0.670487 9.96249e-39 3
0.128073 0.126404 0.293338 1.48463e-38 3
0.138374 0.122793 0.284957 2.05596e-38 3
0.130443 0.10846 0.251697 1.18997e-38 3
0.130838 0.105466 0.244748 1.48531e-38 3
0.131605 0.10294 0.238886 1.52209e-38 3
0.133508 0.101422 0.235363 9.77809e-39 3
0.135355 0.0999475 0.231942 1.52155e-38 3
0.206634 0.114226 0.265076 3.31976e-39 3
0.207515 0.112359 0.260745 1.65916e-39 3
0.2077 0.110199 0.255731 4.147e-39 3
0.202777 0.105466 0.244748 9.95674e-39 3
0.291725 0.143258 0.33245 2.09352e-38 3
0.297154 0.143258 0.33245 1.15298e-38 3
0.290479 0.137528 0.319152 1.05132e-38 3
0.291034 0.135362 0.314126 9.12951e-39 3
0.296164 0.135362 0.314126 4.42646e-39 3
2.39106 0.904788 2.09968 1.90906e-38 3
2.19436 0.818618 1.89971 6.91968e-39 3
2.07702 0.764043 1.77307 1.01702e-39 3
1.04976 0.365765 0.848808 1.38401e-39 3
-0.242201 0.327384 0.732 1.7246e-38 3
-0.22408 0.318615 0.712393 1.04238e-38 3
-0.206905 0.310303 0.693809 9.50223e-39 3
-0.189002 0.299873 0.670487 8.67354e-39 3
0.128073 0.131194 0.293338 1.33734e-38 3
0.132377 0.130714 0.292264 2.0749e-38 3
0.137149 0.130714 0.292264 7.84019e-39 3
0.138374 0.127446 0.284957 1.25397e-38 3
0.127625 0.110138 0.246259 1.26351e-38 3
0.130838 0.109463 0.244748 1.42968e-38 3
0.131605 0.106841 0.238886 1.05185e-38 3
0.1347 0.106205 0.237464 1.54953e-38 3
0.136545 0.104648 0.233982 1.82594e-38 3
0.140479 0.101957 0.227966 1.76144e-38 3
0.202305 0.118554 0.265076 2.12085e-39 3
0.204594 0.117384 0.262461 3.50343e-39 3
0.208195 0.116999 0.2616 2.94989e-39 3
0.210398 0.11586 0.259052 5.53173e-39 3
0.20741 0.1098 0.245502 2.12078e-38 3
0.292388 0.15185 0.339523 2.11178e-38 3
0.349593 0.174926 0.391118 1.07915e-38 3
0.352523 0.173227 0.38732 1.32787e-38 3
0.291034 0.140492 0.314126 1.47538e-38 3
0.808878 0.383708 0.857935 3.41338e-39 3
3.89312 1.62204 3.62673 3.22899e-39 3
2.39106 0.939075 2.09968 2.01083e-38 3
1.96092 0.759252 1.69762 1.91853e-38 3
1.98864 0.759252 1.69762 1.59559e-38 3
1.0359 0.379626 0.848808 4.15167e-39 3
-0.269387 0.377426 0.814163 1.91806e-38 3
-0.22408 0.330248 0.712393 1.08837e-38 3
-0.19995 0.310821 0.670487 9.40968e-39 3
0.108862 0.115587 0.249337 1.42031e-38 3
0.112233 0.114869 0.247789 1.94604e-38 3
0.117006 0.115587 0.249337 1.18993e-38 3
0.121077 0.115587 0.249337 8.57741e-39 3
0.128818 0.115227 0.248561 1.88093e-38 3
0.131646 0.11416 0.246259 9.86957e-39 3
0.132798 0.111745 0.241051 8.95048e-39 3
0.215008 0.175714 0.37904 1.40216e-38 3
0.220151 0.174883 0.377248 1.29138e-38 3
0.141612 0.109431 0.236059 2.01966e-38 3
0.147084 0.105079 0.22667 5.62965e-39 3
0.202305 0.122883 0.265076 2.58183e-39 3
0.205949 0.122476 0.264199 3.13465e-39 3
0.20888 0.12167 0.262461 3.41159e-39 3
0.26889 0.153476 0.33107 1.13404e-38 3
0.317215 0.17406 0.375473 2.13004e-38 3
0.344049 0.181758 0.392079 1.5218e-38 3
0.352182 0.182655 0.394015 1.40173e-38 3
0.356854 0.181758 0.392079 2.49178e-39 3
0.37054 0.185402 0.39994 8.76108e-39 3
0.515956 0.222818 0.480651 2.21805e-39 3
0.504067 0.214422 0.462539 1.20862e-38 3
2.13232 0.88066 1.89971 1.72517e-38 3
1.88088 0.754852 1.62833 1.73431e-38 3
1.98864 0.786973 1.69762 1.88168e-38 3
1.025 0.389345 0.839874 2.77016e-39 3
-0.230248 0.35129 0.732 1.0515e-38 3
0.108862 0.119658 0.249337 1.87189e-38 3
0.112233 0.118915 0.247789 1.30056e-38 3
0.117006 0.119658 0.249337 1.20858e-38 3
0.121457 0.120033 0.250119 1.0977e-38 3
0.134979 0.121173 0.252494 8.76323e-39 3
0.205403 0.178928 0.372841 9.31818e-39 3
0.219115 0.180191 0.375473 1.29163e-38 3
0.223668 0.178928 0.372841 1.39294e-38 3
0.145467 0.113286 0.236059 1.19926e-38 3
0.147145 0.111634 0.232618 9.59547e-39 3
0.148348 0.109715 0.228619 1.01483e-38 3
0.150785 0.10878 0.22667 6.45726e-39 3
0.205486 0.132037 0.275131 2.21555e-39 3
0.209979 0.132037 0.275131 3.135e-39 3
0.208016 0.128062 0.266849 2.76622e-39 3
0.259182 0.156288 0.325665 5.90087e-39 3
0.345748 0.18909 0.394015 1.76136e-38 3
0.358377 0.192415 0.400945 1.40184e-38 3
0.517515 0.231363 0.482103 1.8264e-38 3
0.504067 0.221975 0.462539 1.74364e-38 3
0.493429 0.210968 0.439603 1.70687e-38 3
1.73085 0.709086 1.47756 1.49439e-38 3
1.025 0.403059 0.839874 1.78906e-38 3
0.0940458 0.125694 0.253295 1.39305e-38 3
0.0975625 0.124901 0.251697 1.77108e-38 3
0.108862 0.12373 0.249337 2.12068e-38 3
0.112934 0.12373 0.249337 1.37429e-38 3
0.117006 0.12373 0.249337 1.04249e-38 3
0.121457 0.124118 0.250119 1.15302e-38 3
0.137591 0.127721 0.257381 7.56361e-39 3
0.205884 0.18545 0.373714 1.0055e-38 3
0.212984 0.186322 0.375473 1.15323e-38 3
0.219115 0.186322 0.375473 1.20865e-38 3
0.224718 0.185885 0.374591 1.2823e-38 3
0.147209 0.118543 0.238886 1.44825e-38 3
0.149322 0.117141 0.236059 1.40216e-38 3
0.150943 0.115433 0.232618 1.71562e-38 3
0.152958 0.114102 0.229937 1.10688e-38 3
0.156713 0.114102 0.229937 7.93024e-39 3
0.211315 0.140403 0.282936 2.21519e-39 3
0.228664 0.145564 0.293338 5.71648e-39 3
0.335996 0.193611 0.390161 1.11589e-38 3
0.344049 0.194563 0.392079 1.0422e-38 3
0.354811 0.196983 0.396955 1.24507e-38 3
0.522248 0.241424 0.486512 1.86346e-38 3
0.504067 0.229528 0.462539 1.74382e-38 3
0.531654 0.238515 0.480651 1.65155e-38 3
0.513223 0.226897 0.457238 1.7252e-38 3
0.54245 0.236379 0.476346 1.66056e-38 3
0.0880677 0.140056 0.273247 2.13004e-38 3
0.0888771 0.134528 0.262461 1.51219e-38 3
0.0913598 0.131924 0.257381 1.8259e-38 3
0.0934525 0.129011 0.251697 1.48521e-38 3
0.0975625 0.129011 0.251697 1.77101e-38 3
0.112934 0.127801 0.249337 7.65653e-39 3
0.117372 0.128202 0.250119 8.21112e-39 3
0.534409 0.564088 1.10052 7.74907e-39 3
0.572528 0.548945 1.07098 1.00522e-38 3
0.205403 0.191105 0.372841 9.68518e-39 3
0.211987 0.191552 0.373714 1.61399e-38 3
0.217072 0.190659 0.371972 1.44822e-38 3
0.223668 0.191105 0.372841 1.42042e-38 3
0.226059 0.188029 0.366841 1.41109e-38 3
0.152941 0.123929 0.241782 1.43896e-38 3
0.158815 0.125449 0.244748 1.4207e-38 3
0.195376 0.143496 0.279958 4.61012e-39 3
0.199948 0.143496 0.279958 1.77948e-38 3
0.206695 0.145023 0.282936 1.31857e-38 3
0.211315 0.145023 0.282936 9.40537e-39 3
0.318715 0.193364 0.377248 2.13905e-38 3
0.339314 0.201958 0.394015 7.37886e-39 3
0.347464 0.20296 0.39597 5.07397e-39 3
0.354811 0.203465 0.396955 7.65545e-39 3
0.517673 0.236395 0.461202 1.51301e-38 3
0.537635 0.241991 0.472118 7.56754e-39 3
0.548188 0.239862 0.467965 7.65724e-39 3
0.0836057 0.144518 0.273247 1.92742e-38 3
0.0857192 0.140664 0.26596 2.11174e-38 3
0.0888771 0.138813 0.262461 1.2173e-38 3
0.0913598 0.136127 0.257381 1.87204e-38 3
0.0940458 0.133966 0.253295 1.50354e-38 3
0.0978713 0.133542 0.252494 1.81704e-38 3
0.112934 0.131873 0.249337 7.56291e-39 3
0.117372 0.132286 0.250119 7.10442e-39 3
0.122223 0.133121 0.251697 8.02567e-39 3
0.204924 0.196733 0.371972 1.15269e-38 3
0.209049 0.194916 0.368536 1.43861e-38 3
0.212612 0.192691 0.364329 1.45726e-38 3
0.221085 0.194916 0.368536 3.69174e-39 3
0.150821 0.129446 0.244748 4.61263e-39 3
0.154818 0.129446 0.244748 1.10677e-38 3
0.166475 0.135689 0.256553 1.35577e-38 3
0.195376 0.148068 0.279958 1.31854e-38 3
0.205723 0.152344 0.288043 1.76097e-38 3
0.211956 0.153452 0.290138 5.80903e-39 3
0.344417 0.211525 0.39994 9.59156e-39 3
0.35007 0.210996 0.39894 4.613e-39 3
0.517673 0.243927 0.461202 5.6034e-40 3
0.536049 0.248963 0.470726 2.40246e-39 3
0.543407 0.245345 0.463884 7.10335e-39 3
0.576103 0.256531 0.485033 6.27251e-39 3
0.0801731 0.159935 0.293338 2.0471e-38 3
0.0822419 0.154812 0.283943 2.14837e-38 3
0.0841823 0.150008 0.275131 2.0288e-38 3
0.0857192 0.145007 0.26596 2.14869e-38 3
0.0888771 0.143099 0.262461 1.10677e-38 3
0.0922526 0.141701 0.259896 1.09759e-38 3
0.0955627 0.14033 0.257381 1.00561e-38 3
0.0988093 0.138985 0.254914 1.84462e-38 3
0.112934 0.135944 0.249337 2.02838e-38 3
0.117741 0.136799 0.250906 7.93168e-39 3
0.210212 0.196398 0.360217 1.21723e-38 3
0.148189 0.134682 0.247022 3.32225e-39 3
0.150821 0.133442 0.244748 4.15237e-39 3
0.154818 0.133442 0.244748 5.3502e-39 3
0.163324 0.137231 0.251697 7.19303e-39 3
0.174594 0.143099 0.262461 5.35055e-39 3
0.182481 0.145981 0.267745 3.507e-39 3
0.193341 0.151049 0.277042 1.01429e-38 3
0.199948 0.152639 0.279958 8.75964e-39 3
0.210426 0.157048 0.288043 1.8809e-38 3
0.522216 0.257409 0.472118 2.58935e-39 3
0.529798 0.253657 0.465236 2.31169e-39 3
0.529674 0.250013 0.458552 2.95455e-39 3
0.538709 0.250733 0.459873 5.72077e-39 3
0.574357 0.26365 0.483564 5.71898e-39 3
0.575281 0.260492 0.477772 5.53315e-39 3
0.0844736 0.155035 0.276083 1.99181e-38 3
0.0928575 0.146902 0.2616 9.59406e-39 3
0.0961832 0.145471 0.259052 9.04123e-39 3
0.1891 0.226288 0.40297 7.19376e-39 3
0.206483 0.198692 0.353827 1.92703e-38 3
0.148649 0.139146 0.247789 8.66924e-39 3
0.152222 0.138715 0.247022 8.76215e-39 3
0.156741 0.139146 0.247789 7.56289e-39 3
0.170664 0.144068 0.256553 7.93024e-39 3
0.182481 0.150353 0.267745 1.21723e-38 3
0.188753 0.151882 0.270468 5.53424e-39 3
0.19718 0.155035 0.276083 1.17103e-38 3
0.203804 0.156661 0.278979 1.54906e-38 3
0.21513 0.161751 0.288043 1.82554e-38 3
1.37898 0.700079 1.24669 1.25454e-38 3
0.514698 0.2575 0.458552 1.59581e-38 3
0.528258 0.260495 0.463884 1.33762e-38 3
0.529674 0.2575 0.458552 1.09774e-38 3
0.540266 0.258989 0.461202 6.82784e-39 3
0.574357 0.271546 0.483564 4.52115e-39 3
0.578746 0.26991 0.480651 5.16473e-39 3
0.591944 0.272371 0.485033 5.25657e-39 3
0.603533 0.274037 0.488 4.51829e-39 3
0.0844736 0.159543 0.276083 2.10224e-38 3
0.0961832 0.149701 0.259052 9.59369e-39 3
0.0994448 0.148257 0.256553 2.08408e-38 3
0.102644 0.146841 0.254102 2.11146e-38 3
0.213683 0.205839 0.356196 6.64093e-39 3
0.768247 0.720437 1.24669 1.31872e-38 3
0.788604 0.720437 1.24669 1.29095e-38 3
0.808962 0.720437 1.24669 1.18014e-38 3
0.184964 0.15683 0.271388 6.91644e-39 3
0.189395 0.15683 0.271388 3.69104e-39 3
0.195155 0.157904 0.273247 1.27258e-38 3
0.200303 0.158447 0.274186 1.9088e-38 3
0.532735 0.26652 0.461202 1.34702e-38 3
0.543407 0.26807 0.463884 1.39045e-39 3
0.565785 0.275271 0.476346 7.38029e-39 3
0.568473 0.272828 0.472118 7.65401e-39 3
0.577892 0.273638 0.473519 4.14986e-39 3
0.099126 0.151958 0.255731 1.23578e-38 3
0.788604 0.740795 1.24669 1.34627e-38 3
0.808962 0.740795 1.24669 1.46587e-38 3
0.816561 0.729398 1.22751 2.08362e-38 3
0.836605 0.729398 1.22751 1.40158e-38 3
0.190693 0.162366 0.273247 8.21003e-39 3
0.195155 0.162366 0.273247 1.93668e-38 3
0.535833 0.275645 0.463884 1.78055e-38 3
0.548188 0.27807 0.467965 1.77112e-38 3
0.564101 0.282208 0.474928 6.27501e-39 3
0.563471 0.27807 0.467965 5.07361e-39 3
0.768247 0.761152 1.24669 2.30916e-39 3
0.764707 0.738087 1.20891 3.04566e-39 3
0.796517 0.749442 1.22751 1.58583e-38 3
0.816561 0.749442 1.22751 1.54888e-38 3
0.836605 0.749442 1.22751 1.90884e-38 3
0.418664 0.366269 0.59991 1.78009e-38 3
0.195825 0.167401 0.274186 1.56797e-38 3
0.198259 0.165693 0.271388 1.76126e-38 3
2.0959 1.24907 2.04585 9.87101e-39 3
1.8454 1.08253 1.77307 1.4295e-38 3
1.79459 1.03646 1.69762 1.25418e-38 3
1.61601 0.919127 1.50543 9.68269e-39 3
0.551422 0.287397 0.470726 1.62379e-38 3
0.569183 0.292575 0.479207 1.49443e-38 3
0.560186 0.284045 0.465236 6.18067e-39 3
0.530525 0.261902 0.428968 2.48927e-39 3
0.693694 0.724879 1.15635 1.36482e-38 3
0.733848 0.746517 1.19087 1.0238e-38 3
0.764707 0.757828 1.20891 6.73348e-39 3
0.796517 0.769487 1.22751 1.53984e-38 3
0.836605 0.769487 1.22751 1.53094e-38 3
0.441923 0.396958 0.633238 1.85395e-38 3
0.401304 0.35223 0.561887 1.48492e-38 3
3.7683 2.38175 3.79943 8.48772e-39 3
2.06249 1.28248 2.04585 4.15488e-39 3
1.85773 1.13674 1.81336 1.29135e-38 3
1.76687 1.06418 1.69762 1.15291e-38 3
1.75721 1.04201 1.66225 1.30032e-38 3
0.564101 0.297718 0.474928 1.64197e-38 3
0.54859 0.281784 0.44951 2.39851e-39 3
0.533393 0.27036 0.431286 2.95025e-39 3
0.55288 0.534579 0.831125 1.9733e-38 3
0.435035 0.410556 0.638304 1.85384e-38 3
0.425055 0.391752 0.609069 1.75257e-38 3
0.212373 0.171637 0.266849 1.52148e-38 3
2.12164 1.55514 2.41782 1.35642e-38 3
2.16112 1.55514 2.41782 1.08898e-38 3
2.79307 1.97383 3.06877 1.0982e-38 3
2.84318 1.97383 3.06877 1.3839e-38 3
3.1344 2.13831 3.3245 1.60499e-38 3
2.63891 1.76964 2.75131 1.26365e-38 3
2.72877 1.76964 2.75131 1.17139e-38 3
2.06249 1.31589 2.04585 3.96977e-39 3
1.81645 1.14043 1.77307 1.14383e-38 3
1.76687 1.09191 1.69762 1.2728e-38 3
0.564101 0.305473 0.474928 1.42985e-38 3
0.542185 0.281975 0.438396 3.50342e-39 3
0.595099 0.604855 0.917103 1.30056e-38 3
0.515306 0.510897 0.774641 1.53094e-38 3
0.472864 0.457586 0.693809 1.71573e-38 3
0.445458 0.420979 0.638304 1.85406e-38 3
2.79307 2.02394 3.06877 1.1533e-38 3
2.84318 2.02394 3.06877 1.51286e-38 3
3.1344 2.1926 3.3245 1.20391e-39 3
2.63891 1.81457 2.75131 7.01081e-39 3
1.85773 1.19596 1.81336 1.13461e-38 3
0.556938 0.305058 0.462539 1.4787e-39 3
0.547049 0.295632 0.448247 2.30703e-39 3
0.542185 0.289134 0.438396 3.04316e-39 3
0.542696 0.579842 0.857935 1.57715e-38 3
0.544985 0.567635 0.839874 1.36517e-38 3
0.515306 0.523547 0.774641 9.13592e-39 3
0.489904 0.485814 0.718811 1.97409e-38 3
0.480019 0.464873 0.687827 1.66963e-38 3
0.542478 0.30042 0.444501 3.41374e-39 3
0.537753 0.293871 0.434812 4.42789e-39 3
0.542696 0.593852 0.857935 1.48485e-38 3
0.556705 0.593852 0.857935 1.35606e-38 3
0.530765 0.552282 0.79788 1.60524e-38 3
0.503513 0.511372 0.738778 1.04295e-38 3
0.497163 0.493109 0.712393 1.41145e-38 3
0.531955 0.297726 0.430124 7.28667e-39 3
0.556705 0.607861 0.857935 1.57736e-38 3
0.530765 0.565311 0.79788 1.59613e-38 3
0.503513 0.523436 0.738778 1.87289e-38 3
0.497163 0.504742 0.712393 2.05678e-38 3
0.526281 0.301499 0.425536 1.0238e-38 3
0.530765 0.57834 0.79788 1.50397e-38 3
0.508218 0.540505 0.745682 1.79932e-38 3
0.501642 0.521027 0.718811 2.02015e-38 3
2.13243 1.86561 2.57381 2.13025e-38 3
0.114346 0.276988 0.373714 1.35528e-38 3
0.530765 0.591369 0.79788 1.49475e-38 3
0.508218 0.552681 0.745682 1.65184e-38 3
0.501642 0.532765 0.718811 1.90977e-38 3
2.18794 1.84803 2.49337 1.5496e-38 3
0.114346 0.28309 0.373714 1.18932e-38 3
0.497163 0.539641 0.712393 1.67932e-38 3
0.495523 0.525563 0.693809 2.00147e-38 3
0.518182 0.525563 0.693809 1.89005e-38 3
0.297592 0.289186 0.381761 2.00079e-38 3
1.89227 1.63351 2.15643 1.26369e-38 3
2.22865 1.88874 2.49337 1.50339e-38 3
0.810744 0.629581 0.831125 1.53988e-38 3
0.113813 0.287845 0.371972 1.33684e-38 3
0.489904 0.55624 0.718811 1.67013e-38 3
0.488441 0.541602 0.699895 1.83616e-38 3
0.495523 0.536893 0.693809 1.5223e-38 3
0.520429 0.551274 0.712393 1.76151e-38 3
2.02092 1.81596 2.34671 1.14379e-38 3
1.79523 1.58315 2.04585 7.6583e-39 3
1.78292 1.54357 1.9947 1.48492e-38 3
0.837887 0.643153 0.831125 1.60449e-38 3
0.477012 0.553031 0.699895 1.72534e-38 3
0.488441 0.553031 0.699895 1.62411e-38 3
0.49987 0.553031 0.699895 1.5317e-38 3
0.549887 0.594769 0.752717 1.42982e-38 3
2.17446 2.03373 2.57381 1.59562e-38 3
1.85706 1.70393 2.15643 1.60495e-38 3
1.52204 1.37056 1.73452 1.53116e-38 3
1.48577 1.31345 1.66225 7.65831e-39 3
