# .PCD v0.7 - Point Cloud Data file format
VERSION 0.7
FIELDS x y z rgb label
SIZE 4 4 4 4 4
TYPE F F F F U
COUNT 1 1 1 1 1
WIDTH 190
HEIGHT 1
VIEWPOINT 0 0 0 1 0 0 0
POINTS 190
DATA ascii
0.0368058 -0.0306522 0.334541 1.37371e-38 3
0.0425361 -0.0308462 0.336658 1.71484e-38 3
0.0369607 -0.0252954 0.335949 1.41981e-38 3
0.0426261 -0.0254024 0.33737 1.03259e-38 3
0.0369607 -0.0198096 0.335949 7.7455e-39 3
0.0370387 -0.0143539 0.336658 8.48557e-39 3
0.0428071 -0.0144454 0.338802 1.10656e-38 3
0.0480336 -0.0143539 0.336658 1.17099e-38 3
0.0371957 -0.00889404 0.338085 1.19908e-38 3
0.0428981 -0.00893188 0.339523 1.02362e-38 3
0.0481351 -0.00887523 0.33737 1.0789e-38 3
0.0534183 -0.00883786 0.335949 9.3139e-39 3
0.0430815 -0.00340214 0.340974 9.13236e-39 3
0.053531 -0.00335908 0.336658 9.68375e-39 3
0.0431737 0.0021704 0.341704 1.04242e-38 3
-0.430253 0.108812 1.04298 2.02902e-39 3
-0.410538 0.108106 1.03621 6.2693e-39 3
-0.388571 0.10672 1.02292 1.93682e-39 3
0.254127 0.0326437 0.312894 9.59014e-39 3
-3.58404 0.641802 5.3192 1.66023e-39 3
-3.49718 0.641802 5.3192 2.3056e-39 3
-3.41032 0.641802 5.3192 2.58219e-39 3
-0.41594 0.126671 1.04984 2.85914e-39 3
-0.398797 0.126671 1.04984 2.3978e-39 3
-0.386742 0.12836 1.06384 1.66167e-39 3
0.25166 0.0373865 0.309856 8.39267e-39 3
0.256222 0.0373141 0.309256 1.4384e-38 3
0.260767 0.0372419 0.308658 1.05117e-38 3
-2.9867 0.607218 4.43267 1.84463e-39 3
-2.38444 0.496814 3.62673 1.93682e-39 3
-1.42097 0.303609 2.21633 1.84463e-39 3
-0.405275 0.140127 1.02292 1.93718e-39 3
0.250687 0.0422821 0.308658 8.02424e-39 3
0.255233 0.0422004 0.308062 1.16184e-38 3
0.260264 0.0422004 0.308062 2.58292e-39 3
0.265294 0.0422004 0.308062 1.06032e-38 3
0.271899 0.0424463 0.309856 8.11321e-39 3
0.276422 0.042364 0.309256 6.36185e-39 3
-2.38444 0.556037 3.62673 1.84463e-39 3
0.250203 0.0472309 0.308062 9.03981e-39 3
0.260264 0.0472309 0.308062 1.09716e-38 3
0.265807 0.0473223 0.308658 9.12737e-39 3
0.272959 0.0476913 0.311064 8.75822e-39 3
0.279127 0.0478779 0.312282 7.56111e-39 3
0.265807 0.0523625 0.308658 1.09713e-38 3
0.274028 0.0529773 0.312282 8.57455e-39 3
0.280775 0.0532902 0.314126 4.05768e-39 3
-0.959996 0.918608 2.90138 3.87543e-39 3
-0.912618 0.918608 2.90138 4.33784e-39 3
-0.933102 0.990656 3.12894 1.06082e-38 3
-1.00737 0.965986 2.90138 3.87615e-39 3
-0.942853 0.948736 2.84957 5.44276e-39 3
-0.912618 0.965986 2.90138 3.69319e-39 3
0.0497521 0.641107 1.75358 1.69722e-38 3
0.111943 0.670584 1.83421 1.77097e-38 3
0.156263 0.738491 2.01995 1.46666e-38 3
0.204802 0.799189 2.18597 1.49428e-38 3
0.0200173 0.63486 1.66225 1.76204e-38 3
0.0526446 0.708681 1.85553 1.57736e-38 3
0.0869905 0.743251 1.94605 1.568e-38 3
0.123279 0.771475 2.01995 1.62339e-38 3
0.162431 0.801929 2.09968 1.66027e-38 3
-0.213822 0.341679 0.857935 3.78788e-39 3
0.0211171 0.698377 1.75358 1.79888e-38 3
0.0520395 0.730487 1.83421 1.67871e-38 3
0.0849193 0.756576 1.89971 1.43893e-38 3
0.121738 0.794404 1.9947 1.47588e-38 3
0.158266 0.814774 2.04585 1.90916e-38 3
-0.238071 0.371675 0.896494 1.09791e-38 3
-0.220949 0.367545 0.886533 3.41766e-39 3
-0.238238 0.424091 1.02292 1.41152e-38 3
-0.25043 0.479407 1.15635 1.78076e-38 3
-0.223451 0.462644 1.11592 2.02955e-38 3
-0.215792 0.486457 1.17335 1.81761e-38 3
-0.193782 0.479407 1.15635 1.32847e-38 3
0.0211171 0.727012 1.75358 1.81725e-38 3
0.0514482 0.751797 1.81336 1.61421e-38 3
0.0829444 0.769281 1.85553 1.4296e-38 3
0.118768 0.806806 1.94605 1.44807e-38 3
0.156263 0.837445 2.01995 1.80771e-38 3
-0.223432 0.386314 0.896494 7.56575e-39 3
-0.226616 0.419292 0.973024 1.40237e-38 3
-0.254112 0.505617 1.17335 1.88222e-38 3
-0.220369 0.474234 1.10052 2.01118e-38 3
-0.214217 0.501926 1.16479 1.86367e-38 3
-0.188324 0.484253 1.12377 1.03341e-38 3
0.077535 0.747434 1.73452 1.43875e-38 3
0.115941 0.818618 1.89971 1.70612e-38 3
-0.254941 0.457498 1.02292 8.9494e-39 3
-0.238238 0.457498 1.02292 1.95565e-38 3
-0.254112 0.524777 1.17335 1.79002e-38 3
-0.215902 0.482228 1.07822 1.90987e-38 3
-0.201012 0.488833 1.09299 1.78984e-38 3
-0.280076 0.520954 1.12377 1.4667e-38 3
-0.241332 0.48036 1.03621 1.81747e-38 3
-0.25043 0.536054 1.15635 1.52262e-38 3
-0.213023 0.49317 1.06384 1.89143e-38 3
-0.195652 0.49317 1.06384 1.55006e-38 3
-0.241332 0.497281 1.03621 1.74385e-38 3
-0.248628 0.550944 1.14803 1.56868e-38 3
-0.21022 0.503824 1.04984 1.7347e-38 3
-0.193077 0.503824 1.04984 1.53145e-38 3
1.34083 0.900956 1.87736 1.13529e-38 3
-0.241332 0.514202 1.03621 1.68861e-38 3
-0.208846 0.517562 1.04298 1.67939e-38 3
-0.186928 0.504376 1.01641 1.85409e-38 3
0.298121 0.416774 0.839874 1.27305e-38 3
1.26551 0.899853 1.81336 9.78522e-39 3
-0.194838 0.498737 0.973024 1.62403e-38 3
-0.176794 0.492728 0.961301 1.28245e-38 3
-0.167137 0.511205 0.99735 5.35199e-39 3
-0.148989 0.504894 0.985037 5.90302e-39 3
0.276514 0.439746 0.857935 1.56779e-38 3
0.290523 0.439746 0.857935 1.37418e-38 3
0.298121 0.430488 0.839874 1.28245e-38 3
1.25129 0.91902 1.79299 1.08912e-38 3
1.31 0.940147 1.83421 1.15373e-38 3
-0.197244 0.520979 0.985037 1.58712e-38 3
-0.181159 0.520979 0.985037 8.58454e-39 3
-0.165074 0.520979 0.985037 5.44525e-39 3
0.276514 0.453756 0.857935 2.13968e-38 3
0.287432 0.448929 0.848808 1.92767e-38 3
0.295016 0.439576 0.831125 1.63307e-38 3
1.19747 0.907512 1.71587 1.09834e-38 3
-0.199709 0.543777 0.99735 1.624e-38 3
-0.181159 0.537064 0.985037 9.32318e-39 3
-0.165074 0.537064 0.985037 7.84483e-39 3
-0.148989 0.537064 0.985037 8.94582e-39 3
0.276514 0.467766 0.857935 2.00167e-38 3
0.293681 0.47285 0.867261 1.50381e-38 3
0.301293 0.462789 0.848808 1.64243e-38 3
-0.17895 0.546403 0.973024 9.23169e-39 3
-0.163061 0.546403 0.973024 8.39836e-39 3
-0.148989 0.553149 0.985037 1.34634e-38 3
0.273572 0.47665 0.848808 1.63278e-38 3
0.293681 0.487012 0.867261 1.59615e-38 3
0.295016 0.46672 0.831125 1.77165e-38 3
-0.194838 0.562292 0.973024 1.6701e-38 3
-0.17895 0.562292 0.973024 1.07994e-38 3
-0.163061 0.562292 0.973024 7.66079e-39 3
-0.17895 0.578181 0.973024 1.07075e-38 3
-0.163061 0.578181 0.973024 7.4764e-39 3
0.361093 0.740795 1.24669 1.99217e-38 3
0.381451 0.740795 1.24669 8.94794e-39 3
-0.17895 0.59407 0.973024 1.11692e-38 3
-0.165074 0.601404 0.985037 7.29201e-39 3
0.340736 0.761152 1.24669 1.83544e-38 3
0.366825 0.773234 1.26648 1.35599e-38 3
0.381451 0.761152 1.24669 1.87189e-38 3
-0.165074 0.617489 0.985037 7.47641e-39 3
0.340736 0.78151 1.24669 1.63232e-38 3
0.361093 0.78151 1.24669 1.24514e-38 3
0.381451 0.78151 1.24669 2.10227e-38 3
0.315449 0.789531 1.22751 1.24474e-38 3
0.335494 0.789531 1.22751 1.4292e-38 3
0.361093 0.801868 1.24669 1.42921e-38 3
0.295405 0.809576 1.22751 2.13904e-38 3
0.315449 0.809576 1.22751 1.38296e-38 3
0.335494 0.809576 1.22751 1.01415e-38 3
0.361093 0.822225 1.24669 1.41055e-38 3
-0.469898 0.567635 0.839874 1.49432e-38 3
-0.461037 0.573674 0.848808 8.58025e-39 3
-0.447176 0.573674 0.848808 1.49442e-38 3
-0.433316 0.573674 0.848808 1.37475e-38 3
0.315449 0.82962 1.22751 1.4014e-38 3
0.335494 0.82962 1.22751 9.31136e-39 3
0.408187 0.855957 1.26648 1.9732e-38 3
-0.534224 0.642188 0.927767 1.59602e-38 3
-0.490553 0.606903 0.876791 1.77105e-38 3
-0.461037 0.587534 0.848808 1.19007e-38 3
-0.447176 0.587534 0.848808 1.559e-38 3
-0.452574 0.613647 0.886533 1.62371e-38 3
0.315449 0.849665 1.22751 1.3091e-38 3
0.335494 0.849665 1.22751 8.29686e-39 3
-0.469898 0.595064 0.839874 1.6974e-38 3
-0.456184 0.595064 0.839874 1.09805e-38 3
-0.442469 0.595064 0.839874 1.42078e-38 3
-0.437975 0.607861 0.857935 1.54081e-38 3
0.335494 0.869709 1.22751 7.92808e-39 3
-0.469898 0.608779 0.839874 1.79881e-38 3
-0.451432 0.602437 0.831125 1.31018e-38 3
-0.433249 0.67201 0.906682 1.57772e-38 3
2.63285 1.66583 2.24755 2.95455e-39 3
2.36922 1.47842 1.9947 3.0471e-39 3
2.79003 1.80417 2.38173 2.95455e-39 3
2.74693 1.75188 2.3127 3.69247e-39 3
0.143221 1.81596 2.34671 1.53995e-38 3
0.143221 1.85428 2.34671 1.30046e-38 3
3.11554 2.10152 2.6596 1.1071e-38 3
3.2679 2.17398 2.75131 1.07011e-38 3
