# .PCD v0.7 - Point Cloud Data file format
VERSION 0.7
FIELDS x y z rgb label
SIZE 4 4 4 4 4
TYPE F F F F U
COUNT 1 1 1 1 1
WIDTH 1999
HEIGHT 1
VIEWPOINT 0 0 0 1 0 0 0
POINTS 1999
DATA ascii
-0.0962636 0.411312 0.694844 1.23546e-38 3
-0.0849043 0.422537 0.69466 1.24475e-38 3
-0.0849155 0.433928 0.694751 1.13411e-38 3
-0.0849953 0.445681 0.695404 1.34616e-38 3
-0.0960322 0.455561 0.693173 1.37393e-38 3
-0.0394792 0.455502 0.693083 1.29085e-38 3
-0.0394004 0.465879 0.6917 1.32772e-38 3
-0.0721498 0.469952 0.681246 1.32772e-38 3
-0.0964353 0.225855 0.381545 1.20787e-38 3
-0.0897718 0.224758 0.379691 1.16174e-38 3
-0.0824552 0.221741 0.374595 1.15252e-38 3
-0.0755401 0.219408 0.370653 1.15255e-38 3
-0.0676444 0.213572 0.360795 1.23546e-38 3
-0.0604401 0.209015 0.353097 1.31843e-38 3
-0.0542106 0.207224 0.350072 1.2078e-38 3
-0.0964332 0.232075 0.381537 1.14333e-38 3
-0.0897718 0.230952 0.379691 1.0972e-38 3
-0.0822899 0.227396 0.373844 1.05114e-38 3
-0.0749944 0.223826 0.367976 1.0327e-38 3
-0.0673392 0.218469 0.359167 1.27241e-38 3
-0.0602773 0.214198 0.352146 1.3185e-38 3
-0.0541606 0.21274 0.349749 1.41066e-38 3
-0.048181 0.21154 0.347777 1.34616e-38 3
-0.0962242 0.237784 0.38071 1.11578e-38 3
-0.0602742 0.219932 0.352128 1.35538e-38 3
-0.0543236 0.219103 0.350801 1.41992e-38 3
-0.0483377 0.217921 0.348908 1.28163e-38 3
-0.0950143 0.240927 0.375923 1.18943e-38 3
-0.0540429 0.223665 0.348989 1.30014e-38 3
-0.0482743 0.22332 0.348451 1.26329e-38 3
-0.0591238 0.227005 0.345407 1.21716e-38 3
-0.0535429 0.227238 0.34576 1.27248e-38 3
-0.0252489 0.226453 0.344567 1.27237e-38 3
-0.0577264 0.227142 0.337243 1.2817e-38 3
-0.0528849 0.230017 0.341511 1.30936e-38 3
-0.0474353 0.230612 0.342394 1.37393e-38 3
-0.041758 0.230111 0.34165 1.3646e-38 3
-0.0362225 0.230357 0.342016 1.34616e-38 3
-0.0307111 0.230874 0.342784 1.3185e-38 3
-0.0252026 0.231649 0.343935 1.31847e-38 3
-0.0568397 0.229072 0.332064 1.37389e-38 3
-0.0515015 0.229426 0.332578 1.37389e-38 3
-0.0465399 0.23174 0.335931 1.34627e-38 3
-0.0408487 0.230553 0.334211 1.30007e-38 3
-0.228664 0.233752 0.394887 9.95784e-39 3
-0.221669 0.233172 0.393906 1.005e-38 3
-0.214993 0.232902 0.39345 9.77345e-39 3
-0.207868 0.232114 0.392118 1.02344e-38 3
-0.228214 0.239722 0.394109 9.68126e-39 3
-0.220013 0.237809 0.390963 9.40467e-39 3
-0.213606 0.237778 0.390912 9.95784e-39 3
-0.206427 0.236858 0.3894 1.07876e-38 3
-0.20231 0.238361 0.381635 1.04188e-38 3
0.0620408 0.230194 0.399898 1.64108e-38 3
0.0683732 0.229549 0.398777 1.43825e-38 3
0.0747874 0.229266 0.398286 1.29996e-38 3
0.06171 0.235456 0.397765 1.42903e-38 3
0.0679891 0.234729 0.396536 1.35528e-38 3
0.0616941 0.241884 0.397663 1.22631e-38 3
0.0680654 0.24147 0.396982 1.27237e-38 3
0.0615884 0.247947 0.396982 1.40148e-38 3
-0.134517 0.452369 0.785863 1.05107e-38 3
-0.17193 0.454181 0.727179 1.16184e-38 3
-0.170719 0.462763 0.722058 1.28163e-38 3
-0.138574 0.227489 0.395199 1.0972e-38 3
-0.171922 0.226891 0.383295 1.0511e-38 3
-0.165788 0.227055 0.383572 1.03266e-38 3
-0.160238 0.228063 0.385275 1.03266e-38 3
-0.154714 0.229192 0.387182 1.11567e-38 3
-0.149748 0.231279 0.390708 1.0788e-38 3
-0.144088 0.232431 0.392654 1.17096e-38 3
-0.136241 0.229999 0.388545 1.21705e-38 3
-0.128295 0.227154 0.383739 1.25393e-38 3
-0.121717 0.226563 0.382742 1.16174e-38 3
-0.115359 0.226342 0.382368 1.12486e-38 3
-0.109109 0.226317 0.382326 1.10653e-38 3
-0.102729 0.226007 0.381801 1.14341e-38 3
-0.197366 0.233652 0.384129 1.0972e-38 3
-0.190348 0.232735 0.382621 9.58906e-39 3
-0.183581 0.232072 0.381532 1.01422e-38 3
-0.177309 0.23201 0.38143 1.06032e-38 3
-0.171085 0.23201 0.38143 1.02344e-38 3
-0.164952 0.232136 0.381637 1.04188e-38 3
-0.159015 0.23256 0.382333 1.10645e-38 3
-0.153834 0.234169 0.384979 1.18943e-38 3
-0.149669 0.237527 0.3905 1.17099e-38 3
-0.144598 0.239683 0.394044 1.11564e-38 3
-0.13631 0.236459 0.388744 1.06954e-38 3
-0.127097 0.231236 0.380158 1.18018e-38 3
-0.120735 0.230932 0.379657 1.19861e-38 3
-0.114906 0.231666 0.380865 1.13408e-38 3
-0.108927 0.232169 0.381691 1.10653e-38 3
-0.102632 0.232015 0.381438 1.19872e-38 3
-0.195822 0.238043 0.381124 1.03266e-38 3
-0.18852 0.236682 0.378946 9.31247e-39 3
-0.181775 0.235952 0.377777 1.04188e-38 3
-0.1756 0.235937 0.377753 1.06036e-38 3
-0.169317 0.23577 0.377486 1.06032e-38 3
-0.162366 0.234627 0.375655 1.18018e-38 3
-0.119262 0.234233 0.375025 1.0788e-38 3
-0.114033 0.236074 0.377973 1.0788e-38 3
-0.10855 0.237572 0.380371 1.25408e-38 3
-0.10238 0.237655 0.380504 1.27251e-38 3
-0.193503 0.241368 0.376611 9.49686e-39 3
-0.186802 0.240652 0.375493 9.31247e-39 3
-0.180559 0.240496 0.37525 1.13408e-38 3
-0.174715 0.240881 0.37585 1.06954e-38 3
-0.168444 0.240683 0.375542 1.11564e-38 3
-0.161622 0.239652 0.373932 1.20783e-38 3
-0.12769 0.233388 0.36416 1.02355e-38 3
-0.123858 0.237431 0.370468 1.06965e-38 3
-0.117919 0.237644 0.3708 1.12489e-38 3
-0.112889 0.239811 0.374181 1.03281e-38 3
-0.107468 0.241346 0.376576 1.13429e-38 3
-0.100979 0.240526 0.375297 1.21716e-38 3
-0.192404 0.246107 0.374473 1.04188e-38 3
-0.18587 0.245547 0.37362 1.21705e-38 3
-0.179714 0.245465 0.373494 1.24471e-38 3
-0.174131 0.246187 0.374594 1.0972e-38 3
-0.168038 0.246215 0.374636 1.07876e-38 3
-0.290141 0.442231 0.790662 1.11564e-38 3
-0.246662 0.424693 0.737785 1.11564e-38 3
-0.299601 0.449921 0.720358 1.19865e-38 3
-0.298919 0.460623 0.718718 1.13411e-38 3
-0.38055 0.414263 0.740659 9.49686e-39 3
-0.378924 0.424525 0.737493 1.02344e-38 3
-0.378868 0.436494 0.737385 9.95785e-39 3
-0.311015 0.472912 0.719574 1.17096e-38 3
0.696162 0.402878 0.741946 1.00497e-38 3
0.677969 0.41129 0.735342 1.02352e-38 3
0.603144 0.413125 0.717688 1.10642e-38 3
0.671651 0.473088 0.799205 1.10642e-38 3
0.652349 0.49442 0.791605 1.06039e-38 3
0.204476 0.215977 0.397747 1.32769e-38 3
0.212002 0.217038 0.399701 1.20783e-38 3
0.2512 0.217099 0.399812 1.36467e-38 3
0.257201 0.216659 0.399002 1.15262e-38 3
0.200132 0.21774 0.389296 1.30925e-38 3
0.208746 0.220126 0.393562 1.31847e-38 3
0.218093 0.223119 0.398913 1.31847e-38 3
0.224858 0.223374 0.399368 1.38308e-38 3
0.230585 0.222612 0.398007 1.40152e-38 3
0.237233 0.222757 0.398266 1.34613e-38 3
0.243596 0.222634 0.398046 1.33698e-38 3
0.248566 0.221277 0.39562 1.36467e-38 3
0.253348 0.219826 0.393025 1.30017e-38 3
0.257782 0.218151 0.390032 1.33698e-38 3
0.261725 0.216152 0.386457 1.30932e-38 3
0.266089 0.214586 0.383657 1.254e-38 3
0.270912 0.213455 0.381635 1.18025e-38 3
0.277267 0.213554 0.381811 1.26322e-38 3
0.28371 0.213714 0.382098 1.19869e-38 3
0.288463 0.212622 0.380146 1.25393e-38 3
0.294183 0.212275 0.379525 1.21705e-38 3
0.298603 0.211022 0.377285 1.24471e-38 3
0.204565 0.22201 0.385679 1.28159e-38 3
0.212865 0.224123 0.389351 1.36457e-38 3
0.221595 0.226554 0.393575 1.29081e-38 3
0.226891 0.225436 0.391631 1.20783e-38 3
0.233376 0.225528 0.391792 1.23549e-38 3
0.240517 0.226232 0.393014 1.29081e-38 3
0.244788 0.22427 0.389607 1.29088e-38 3
0.245734 0.219439 0.381213 1.33698e-38 3
0.245025 0.213404 0.37073 1.24478e-38 3
0.250113 0.212588 0.369311 1.19869e-38 3
0.261198 0.216786 0.376605 1.27244e-38 3
0.269494 0.218531 0.379637 1.15252e-38 3
0.276002 0.21878 0.380069 1.14337e-38 3
0.281525 0.218255 0.379156 1.18947e-38 3
0.286266 0.217158 0.377252 1.23557e-38 3
0.291273 0.216306 0.375771 1.06039e-38 3
0.296369 0.215553 0.374463 1.12486e-38 3
0.210325 0.227726 0.384706 1.30003e-38 3
0.218099 0.229299 0.387364 1.23549e-38 3
0.223527 0.228389 0.385825 1.1894e-38 3
0.229023 0.227594 0.384483 1.31847e-38 3
0.279059 0.222475 0.375834 1.19869e-38 3
0.283997 0.221543 0.374261 1.10649e-38 3
0.289861 0.221358 0.373948 1.14337e-38 3
0.206686 0.229954 0.378049 1.13408e-38 3
0.215366 0.232667 0.38251 1.21705e-38 3
0.221261 0.232305 0.381914 1.30003e-38 3
0.236085 0.217273 0.357203 1.32776e-38 3
0.240444 0.215954 0.355034 1.254e-38 3
0.246973 0.216601 0.356096 1.14337e-38 3
0.258789 0.221746 0.364556 1.24471e-38 3
0.270263 0.226375 0.372166 1.24471e-38 3
0.27757 0.227387 0.373829 1.16174e-38 3
0.282672 0.226587 0.372515 1.18947e-38 3
0.28905 0.226823 0.372902 1.18947e-38 3
0.295161 0.226844 0.372936 1.20783e-38 3
0.296691 0.223414 0.367297 1.25393e-38 3
0.298139 0.22006 0.361783 1.26315e-38 3
0.206441 0.235842 0.377602 1.18018e-38 3
0.214225 0.237642 0.380483 1.1894e-38 3
0.235206 0.222271 0.355873 1.40155e-38 3
0.239664 0.221027 0.353882 1.33702e-38 3
0.245157 0.220775 0.353477 1.27248e-38 3
0.20239 0.217349 0.330714 1.25393e-38 3
0.207536 0.217087 0.330315 1.2817e-38 3
0.20243 0.222788 0.330779 1.23549e-38 3
0.207536 0.222476 0.330315 1.2817e-38 3
0.202467 0.228226 0.330839 1.22627e-38 3
0.207667 0.228009 0.330524 1.3278e-38 3
0.196326 0.421307 0.775885 1.37379e-38 3
0.166879 0.423486 0.757148 1.32762e-38 3
0.152616 0.430454 0.747792 1.30918e-38 3
0.139035 0.438304 0.740442 1.40137e-38 3
0.139394 0.451548 0.742356 1.31847e-38 3
0.12725 0.463543 0.742168 1.39226e-38 3
0.115308 0.47634 0.743241 1.54899e-38 3
0.402163 0.262221 0.497869 1.12479e-38 3
0.437451 0.259352 0.450551 9.40467e-39 3
0.407531 0.283288 0.442019 9.86565e-39 3
0.159805 0.210483 0.399636 1.23549e-38 3
0.165026 0.215308 0.396514 1.32769e-38 3
0.171722 0.215592 0.397037 1.40145e-38 3
0.177782 0.215087 0.396108 1.41988e-38 3
0.184505 0.215391 0.396667 1.32769e-38 3
0.19122 0.215665 0.397172 1.30925e-38 3
0.197577 0.215531 0.396925 1.31847e-38 3
0.154873 0.216624 0.387302 1.35535e-38 3
0.162183 0.217957 0.389684 1.34613e-38 3
0.168887 0.218404 0.390484 1.33691e-38 3
0.174697 0.217704 0.389232 1.37379e-38 3
0.181094 0.21776 0.389332 1.41988e-38 3
0.187051 0.217302 0.388513 1.34613e-38 3
0.193265 0.217161 0.388261 1.27237e-38 3
0.153764 0.221347 0.384528 1.34606e-38 3
0.160715 0.222284 0.386156 1.29996e-38 3
0.167593 0.223052 0.387491 1.21705e-38 3
0.173405 0.222398 0.386354 1.1433e-38 3
0.179936 0.22268 0.386844 1.24471e-38 3
0.18622 0.222647 0.386786 1.32769e-38 3
0.192194 0.222257 0.38611 1.20794e-38 3
0.19821 0.221939 0.385557 1.24482e-38 3
0.880813 0.440782 0.863651 9.58835e-39 3
0.880813 0.454873 0.863651 8.94298e-39 3
0.83461 0.465158 0.831653 9.31176e-39 3
0.372976 0.202875 0.397505 9.12737e-39 3
0.354943 0.216715 0.399106 1.05107e-38 3
0.360058 0.215878 0.397564 1.14326e-38 3
0.36287 0.213714 0.393578 1.00508e-38 3
0.301241 0.208586 0.37293 1.1894e-38 3
0.307961 0.209017 0.373701 1.17096e-38 3
0.319829 0.212858 0.380568 1.10638e-38 3
0.335973 0.219344 0.392164 1.11564e-38 3
0.344986 0.221019 0.395159 1.06954e-38 3
0.350422 0.220383 0.394022 1.06951e-38 3
0.356767 0.220331 0.393929 1.06029e-38 3
0.300847 0.21439 0.372443 1.07876e-38 3
0.30621 0.213891 0.371576 1.06954e-38 3
0.360076 0.209951 0.36473 1.005e-38 3
0.330033 0.215713 0.364411 1.0143e-38 3
0.336837 0.216264 0.365342 1.00515e-38 3
0.341486 0.215436 0.363944 9.40539e-39 3
0.344365 0.213539 0.360739 1.0143e-38 3
0.348947 0.212745 0.359397 9.221e-39 3
0.35406 0.212294 0.358636 1.005e-38 3
0.305462 0.221087 0.363473 1.08798e-38 3
0.309147 0.219493 0.360852 9.7731e-39 3
0.312103 0.21745 0.357493 1.06032e-38 3
0.317645 0.217252 0.357167 1.02344e-38 3
0.324775 0.218126 0.358605 9.77345e-39 3
0.332104 0.219102 0.360209 9.49759e-39 3
0.336532 0.218162 0.358664 9.3132e-39 3
0.341511 0.217606 0.35775 8.66783e-39 3
0.346798 0.217262 0.357184 8.11465e-39 3
0.352545 0.217212 0.357101 8.85258e-39 3
0.316897 0.222554 0.356326 1.07869e-38 3
0.323284 0.222949 0.356959 1.04181e-38 3
0.329855 0.223455 0.357769 1.03266e-38 3
0.334914 0.222938 0.35694 1.06961e-38 3
0.339788 0.222316 0.355945 9.49759e-39 3
0.344006 0.221294 0.354308 9.12953e-39 3
0.333818 0.228013 0.355772 1.16166e-38 3
0.337449 0.226553 0.353495 1.13401e-38 3
-0.211976 0.428038 0.838681 1.07876e-38 3
-0.236212 0.435942 0.827707 1.20783e-38 3
-0.275305 0.447139 0.823459 1.02344e-38 3
-0.205713 0.468509 0.813902 1.26315e-38 3
-0.460192 0.41736 0.81776 9.86565e-39 3
-0.47713 0.42208 0.801389 8.85078e-39 3
-0.41242 0.496229 0.887204 1.06025e-38 3
-0.480664 0.477817 0.830073 9.95784e-39 3
0.673132 0.368351 0.77103 1.04188e-38 3
0.685079 0.373723 0.75644 9.12773e-39 3
0.697385 0.391459 0.743249 8.85114e-39 3
0.539239 0.37144 0.777496 1.1617e-38 3
0.536966 0.382506 0.774219 1.2078e-38 3
0.516567 0.389285 0.76275 1.26322e-38 3
0.511406 0.397716 0.755129 1.254e-38 3
0.0829626 0.223268 0.483867 1.28163e-38 3
0.0892789 0.219389 0.475462 1.18939e-38 3
0.0981738 0.221961 0.481035 1.28159e-38 3
0.00375284 0.215986 0.452101 1.17096e-38 3
0.0110332 0.214125 0.448205 1.1433e-38 3
0.0952787 0.223032 0.46685 1.30003e-38 3
0.0110238 0.221247 0.447819 1.07876e-38 3
0.0775548 0.223474 0.452327 1.33694e-38 3
0.0850715 0.223834 0.453055 1.30003e-38 3
0.0922613 0.223345 0.452065 1.3185e-38 3
0.0775128 0.230729 0.452082 1.20783e-38 3
0.0848359 0.230585 0.4518 1.30921e-38 3
0.0915769 0.229009 0.448711 1.30921e-38 3
0.099625 0.230692 0.45201 1.23546e-38 3
0.085583 0.227703 0.419342 1.40137e-38 3
0.0921603 0.227052 0.418142 1.2723e-38 3
0.0647969 0.233606 0.417663 1.38293e-38 3
0.0698399 0.227827 0.407331 1.42903e-38 3
0.075528 0.224974 0.40223 1.36446e-38 3
0.0826267 0.226443 0.404857 1.30918e-38 3
0.0674821 0.27981 0.486091 1.50279e-38 3
0.067092 0.286078 0.483281 1.41059e-38 3
0.066984 0.293489 0.482503 1.3185e-38 3
-0.0114239 0.216653 0.469532 1.13408e-38 3
-0.0190128 0.223469 0.467764 1.13408e-38 3
-0.0112992 0.221865 0.464406 1.28159e-38 3
-0.00367092 0.218814 0.45802 1.23542e-38 3
-0.0419557 0.231362 0.468292 1.0511e-38 3
-0.0341149 0.230011 0.465558 1.27237e-38 3
-0.0264507 0.229419 0.464359 1.25393e-38 3
-0.0702644 0.231576 0.453742 1.19861e-38 3
-0.062964 0.231954 0.454482 1.18943e-38 3
-0.0557752 0.2329 0.456335 1.12497e-38 3
-0.0486423 0.234406 0.459286 1.15262e-38 3
-0.0411968 0.234679 0.459821 1.30925e-38 3
-0.0336 0.234021 0.458532 1.25393e-38 3
-0.0261215 0.234045 0.45858 1.21698e-38 3
-0.0888345 0.229575 0.435885 1.0511e-38 3
-0.0820623 0.230528 0.437696 1.11564e-38 3
-0.0751836 0.231336 0.43923 1.24471e-38 3
-0.0685169 0.233036 0.442457 1.17096e-38 3
-0.0617234 0.234653 0.445528 1.15255e-38 3
-0.054715 0.235777 0.447661 1.1895e-38 3
-0.0476086 0.236759 0.449525 1.17106e-38 3
-0.04063 0.23885 0.453495 1.08798e-38 3
-0.0333905 0.239997 0.455673 1.16174e-38 3
-0.0887881 0.236563 0.435657 1.21705e-38 3
-0.081994 0.237472 0.437332 1.21705e-38 3
-0.0750874 0.238197 0.438668 1.10642e-38 3
-0.0681636 0.239016 0.440175 1.08798e-38 3
-0.0613026 0.240273 0.442491 1.19865e-38 3
-0.0544016 0.241688 0.445096 1.14341e-38 3
-0.0831931 0.277143 0.443728 1.32772e-38 3
-0.074476 0.278851 0.435097 1.30936e-38 3
-0.0808009 0.283237 0.430968 1.27248e-38 3
-0.0383715 0.281475 0.428286 1.27241e-38 3
-0.0788111 0.283121 0.420355 1.33702e-38 3
-0.0781427 0.28752 0.41679 1.3278e-38 3
-0.181645 0.411257 0.89128 1.03266e-38 3
-0.199978 0.404076 0.84581 1.07887e-38 3
-0.198656 0.415114 0.840219 1.06043e-38 3
-0.279971 0.229561 0.497507 9.3114e-39 3
-0.27106 0.228892 0.496056 9.03517e-39 3
-0.279632 0.237391 0.496905 1.03259e-38 3
-0.27098 0.236915 0.495908 8.94369e-39 3
-0.218637 0.224698 0.470336 1.08798e-38 3
-0.212242 0.22606 0.473188 1.0788e-38 3
-0.204963 0.226547 0.474207 1.00511e-38 3
-0.295881 0.232769 0.47114 8.57383e-39 3
-0.290094 0.234304 0.474248 9.03517e-39 3
-0.286026 0.237349 0.480411 9.12736e-39 3
-0.280614 0.239419 0.4846 9.12736e-39 3
-0.275139 0.241554 0.488922 9.40395e-39 3
-0.270502 0.244573 0.495033 8.39052e-39 3
-0.257695 0.240165 0.48611 8.48271e-39 3
-0.244115 0.234734 0.475118 1.03259e-38 3
-0.233642 0.232031 0.469647 1.08791e-38 3
-0.223255 0.229234 0.463985 1.0972e-38 3
-0.215286 0.22881 0.463126 1.0511e-38 3
-0.208946 0.23015 0.46584 9.95892e-39 3
-0.202653 0.231645 0.468865 9.31355e-39 3
-0.292229 0.237488 0.465325 8.94297e-39 3
-0.284612 0.237468 0.465285 8.20541e-39 3
-0.27848 0.238719 0.467737 8.482e-39 3
-0.274549 0.241981 0.474128 9.21956e-39 3
-0.228669 0.234592 0.459651 1.11564e-38 3
-0.220626 0.234015 0.45852 1.0972e-38 3
-0.213081 0.233946 0.458385 1.06029e-38 3
-0.205759 0.234123 0.458733 1.01433e-38 3
-0.294441 0.240683 0.456977 9.21956e-39 3
-0.286032 0.239883 0.455458 9.40395e-39 3
-0.278114 0.239464 0.454662 1.01415e-38 3
-0.219846 0.240642 0.456899 1.12486e-38 3
-0.211905 0.240092 0.455854 1.15245e-38 3
-0.204407 0.240021 0.45572 9.31247e-39 3
-0.234282 0.247597 0.455979 9.86565e-39 3
-0.228231 0.249113 0.45877 1.04188e-38 3
-0.219846 0.248097 0.456899 1.11564e-38 3
-0.211905 0.247529 0.455854 1.06947e-38 3
-0.204275 0.247297 0.455425 1.04188e-38 3
-0.260102 0.27443 0.490652 1.06032e-38 3
-0.253397 0.275155 0.478004 9.86565e-39 3
-0.286963 0.28531 0.481984 9.68126e-39 3
-0.217569 0.277055 0.468039 1.0511e-38 3
-0.285476 0.291655 0.479487 1.04188e-38 3
-0.244815 0.295975 0.461814 1.0511e-38 3
-0.195224 0.217462 0.48856 9.58906e-39 3
-0.189212 0.219737 0.493672 8.94442e-39 3
-0.182629 0.221522 0.497683 9.95892e-39 3
-0.191742 0.221412 0.479846 9.31247e-39 3
-0.185192 0.222953 0.483185 1.02355e-38 3
-0.178595 0.22457 0.48669 9.77453e-39 3
-0.172389 0.226853 0.491637 1.04188e-38 3
-0.197696 0.227088 0.475339 9.68233e-39 3
-0.190002 0.227161 0.475492 1.00511e-38 3
-0.183264 0.228432 0.478153 1.09731e-38 3
-0.196258 0.233135 0.471881 8.48379e-39 3
-0.188745 0.233365 0.472346 1.03277e-38 3
-0.182114 0.234751 0.475152 9.95892e-39 3
-0.175985 0.236937 0.479577 8.85257e-39 3
-0.169184 0.238379 0.482495 9.95784e-39 3
-0.161399 0.238508 0.482756 1.1433e-38 3
-0.155496 0.241573 0.488961 1.08798e-38 3
-0.149716 0.245173 0.496246 1.11564e-38 3
-0.141787 0.245463 0.496834 1.10642e-38 3
-0.133502 0.245135 0.49617 1.07876e-38 3
-0.125642 0.245596 0.497102 9.86637e-39 3
-0.199128 0.235131 0.460707 9.31355e-39 3
-0.192545 0.236277 0.462953 1.02352e-38 3
-0.186165 0.237777 0.46589 1.01433e-38 3
-0.179826 0.239457 0.469183 8.48379e-39 3
-0.173135 0.240798 0.47181 9.68233e-39 3
-0.165166 0.240403 0.471036 1.06043e-38 3
-0.157927 0.241084 0.472372 1.08809e-38 3
-0.152181 0.244232 0.478539 1.0511e-38 3
-0.146409 0.247676 0.485287 1.04188e-38 3
-0.140456 0.251188 0.492169 1.02344e-38 3
-0.133163 0.252587 0.494909 1.07876e-38 3
-0.196972 0.240021 0.45572 1.01433e-38 3
-0.1897 0.240228 0.456112 1.11571e-38 3
-0.183241 0.241523 0.458572 1.01433e-38 3
-0.176523 0.242573 0.460566 9.77453e-39 3
-0.1701 0.24414 0.46354 1.07887e-38 3
-0.163598 0.245733 0.466565 1.10653e-38 3
-0.156931 0.247222 0.469392 1.1895e-38 3
-0.15327 0.253844 0.481964 1.22627e-38 3
-0.146009 0.254894 0.483958 1.1894e-38 3
-0.196332 0.246653 0.45424 1.12486e-38 3
-0.188535 0.246149 0.453313 1.07876e-38 3
-0.181699 0.246911 0.454714 1.0511e-38 3
-0.174624 0.247398 0.455611 1.12486e-38 3
-0.166773 0.24678 0.454474 1.06954e-38 3
-0.164722 0.255086 0.469771 1.0511e-38 3
-0.180821 0.2531 0.452516 9.49686e-39 3
-0.172912 0.252332 0.451143 1.02344e-38 3
-0.176895 0.277487 0.482056 1.11564e-38 3
-0.153285 0.286362 0.458487 1.17096e-38 3
-0.161327 0.281758 0.439632 1.16174e-38 3
-0.165849 0.284385 0.432715 1.0788e-38 3
-0.513425 0.363895 0.817543 9.58763e-39 3
-0.512732 0.376724 0.81644 7.28274e-39 3
-0.511851 0.389375 0.815038 8.38944e-39 3
-0.384341 0.252709 0.567748 7.65044e-39 3
-0.335171 0.267079 0.578816 8.48164e-39 3
-0.391701 0.263717 0.552012 9.12557e-39 3
-0.33497 0.276357 0.578469 9.40395e-39 3
-0.390757 0.272067 0.550681 9.68054e-39 3
-0.399049 0.280564 0.549727 8.66567e-39 3
-0.398396 0.28906 0.548828 7.74372e-39 3
-0.39761 0.297427 0.547745 6.3615e-39 3
0.205025 0.203263 0.474037 1.3462e-38 3
0.210856 0.201445 0.469797 1.1894e-38 3
0.217709 0.200696 0.46805 1.16174e-38 3
0.295285 0.206896 0.482508 1.50211e-38 3
0.203534 0.209463 0.47059 1.1711e-38 3
0.209003 0.207272 0.465668 1.22627e-38 3
0.214991 0.205732 0.462208 1.20791e-38 3
0.29393 0.213783 0.480294 1.5114e-38 3
0.202898 0.216463 0.46912 1.19876e-38 3
0.208061 0.213902 0.46357 1.23549e-38 3
0.214489 0.212776 0.461129 1.1894e-38 3
0.205077 0.218289 0.456921 1.43825e-38 3
0.203799 0.216468 0.438147 1.35535e-38 3
0.271287 0.207925 0.420854 1.28159e-38 3
0.280535 0.209705 0.424457 1.19862e-38 3
0.288749 0.210645 0.426361 1.15252e-38 3
0.201971 0.214101 0.419502 1.27237e-38 3
0.207376 0.212625 0.41661 1.18018e-38 3
0.213526 0.211982 0.41535 1.15248e-38 3
0.21951 0.21122 0.413856 1.17096e-38 3
0.22612 0.211087 0.413595 1.34613e-38 3
0.2323 0.210572 0.412586 1.27244e-38 3
0.236963 0.20875 0.409016 1.26322e-38 3
0.243137 0.208322 0.408178 1.30918e-38 3
0.251543 0.209778 0.411031 1.29996e-38 3
0.25857 0.210038 0.411541 1.21705e-38 3
0.266415 0.210934 0.413295 1.33691e-38 3
0.275165 0.212483 0.416332 1.36464e-38 3
0.202793 0.214574 0.407403 1.19862e-38 3
0.20933 0.21446 0.407188 1.17096e-38 3
0.216119 0.214605 0.407463 1.29081e-38 3
0.223728 0.215531 0.409221 1.38301e-38 3
0.23069 0.215798 0.409727 1.29088e-38 3
0.234641 0.213312 0.405008 1.35542e-38 3
0.240469 0.212622 0.403698 1.41981e-38 3
0.247824 0.213284 0.404954 1.37379e-38 3
0.253929 0.212863 0.404155 1.23549e-38 3
0.260901 0.213171 0.404741 1.20794e-38 3
0.269039 0.214394 0.407063 1.24478e-38 3
0.219922 0.218427 0.402259 1.22627e-38 3
0.226917 0.218844 0.403026 1.28166e-38 3
0.232588 0.217996 0.401464 1.38308e-38 3
0.23906 0.217925 0.401334 1.28159e-38 3
0.245605 0.217922 0.401328 1.26315e-38 3
0.248267 0.277075 0.468073 1.24471e-38 3
0.295344 0.26452 0.446864 1.3001e-38 3
0.24449 0.280381 0.460952 1.12486e-38 3
0.285744 0.269632 0.443281 1.31854e-38 3
0.24449 0.287901 0.460952 1.20783e-38 3
0.284546 0.275704 0.441422 1.30932e-38 3
0.254547 0.266575 0.415941 1.16174e-38 3
0.247924 0.273541 0.416214 1.25393e-38 3
0.248081 0.280509 0.416478 1.17096e-38 3
0.247761 0.286934 0.415941 1.30003e-38 3
0.264359 0.356128 0.830538 1.25393e-38 3
0.263524 0.368511 0.827915 1.32769e-38 3
0.261885 0.379643 0.822765 1.46598e-38 3
0.261475 0.392452 0.821477 1.35535e-38 3
0.140941 0.211555 0.493374 1.34613e-38 3
0.148075 0.210255 0.490342 1.33691e-38 3
0.110045 0.222237 0.499288 1.26315e-38 3
0.117453 0.220849 0.49617 1.1895e-38 3
0.125517 0.220793 0.496043 1.18028e-38 3
0.133357 0.220375 0.495104 1.35535e-38 3
0.140813 0.219406 0.492929 1.36457e-38 3
0.147733 0.217751 0.48921 1.30925e-38 3
0.196977 0.210662 0.473284 1.2633e-38 3
0.106478 0.222915 0.483104 1.21705e-38 3
0.114269 0.222738 0.482719 1.2356e-38 3
0.122563 0.223499 0.484369 1.30014e-38 3
0.131053 0.224506 0.486552 1.41066e-38 3
0.13911 0.224697 0.486965 1.41988e-38 3
0.146868 0.224412 0.486347 1.41066e-38 3
0.177752 0.213836 0.463427 1.28152e-38 3
0.186812 0.215566 0.467175 1.31847e-38 3
0.196003 0.217304 0.470943 1.28174e-38 3
0.103302 0.223913 0.468694 1.29081e-38 3
0.113158 0.228371 0.478024 1.25404e-38 3
0.122172 0.230665 0.482826 1.28166e-38 3
0.130558 0.231566 0.484713 1.20783e-38 3
0.138325 0.23133 0.484219 1.24471e-38 3
0.146407 0.231617 0.48482 1.37379e-38 3
0.172705 0.215111 0.450268 1.48435e-38 3
0.181346 0.216656 0.453504 1.31847e-38 3
0.191092 0.219351 0.459144 1.28166e-38 3
0.198665 0.219442 0.459334 1.28166e-38 3
0.17406 0.215054 0.435284 1.37379e-38 3
0.186937 0.22191 0.449161 1.33698e-38 3
0.19526 0.223046 0.45146 1.3462e-38 3
0.198089 0.218052 0.441351 1.43825e-38 3
0.107235 0.2312 0.453005 1.25393e-38 3
0.113395 0.228716 0.448137 1.37379e-38 3
0.118573 0.224674 0.440217 1.25393e-38 3
0.187408 0.249367 0.4886 1.37371e-38 3
0.165379 0.211077 0.413576 1.40145e-38 3
0.174173 0.213586 0.418493 1.36457e-38 3
0.181802 0.214531 0.420343 1.35535e-38 3
0.188635 0.214503 0.420288 1.26315e-38 3
0.195492 0.214503 0.420288 1.24471e-38 3
0.102453 0.227952 0.432804 1.39223e-38 3
0.10933 0.227567 0.432073 1.30003e-38 3
0.116856 0.228498 0.433841 1.33691e-38 3
0.18517 0.254266 0.482765 1.33684e-38 3
0.16719 0.211577 0.401713 1.30003e-38 3
0.17475 0.212801 0.404038 1.49364e-38 3
0.181696 0.213217 0.404827 1.37379e-38 3
0.189845 0.214965 0.408147 1.36457e-38 3
0.196829 0.215321 0.408822 1.31847e-38 3
0.101028 0.231744 0.426783 1.24471e-38 3
0.19132 0.259797 0.478447 1.29081e-38 3
0.18068 0.263471 0.471059 1.49357e-38 3
0.180437 0.270792 0.470425 1.44729e-38 3
-0.0930448 0.233081 0.543577 9.95785e-39 3
-0.0227008 0.257705 0.558499 1.08809e-38 3
-0.031448 0.263755 0.552091 1.14341e-38 3
-0.0584905 0.272853 0.552273 1.20794e-38 3
-0.0917921 0.27369 0.536259 1.23549e-38 3
-0.31471 0.367739 0.857617 1.0511e-38 3
-0.381059 0.378248 0.819741 1.01419e-38 3
-0.301938 0.393089 0.822812 1.02355e-38 3
0.300167 0.202313 0.490485 1.2074e-38 3
0.358845 0.203991 0.426993 1.04188e-38 3
0.371002 0.206886 0.433053 9.86565e-39 3
0.356556 0.213763 0.43267 1.20783e-38 3
0.363284 0.213568 0.432276 1.12497e-38 3
0.358267 0.206607 0.418187 1.08798e-38 3
0.362511 0.205148 0.415233 1.07876e-38 3
0.366327 0.203504 0.411906 1.13404e-38 3
0.344352 0.213263 0.41786 1.22627e-38 3
0.349295 0.212125 0.41563 1.07883e-38 3
0.355355 0.211695 0.414788 1.15252e-38 3
0.361941 0.21159 0.41458 1.19862e-38 3
0.36603 0.210054 0.411572 1.10638e-38 3
0.37168 0.209454 0.410396 1.03263e-38 3
0.372363 0.206125 0.403874 9.95749e-39 3
0.339801 0.217172 0.412338 1.08798e-38 3
0.344801 0.21609 0.410283 1.10649e-38 3
0.350715 0.21561 0.409372 1.17096e-38 3
0.357013 0.21538 0.408935 1.18018e-38 3
0.360449 0.213464 0.405297 1.18014e-38 3
0.366813 0.21332 0.405022 1.06951e-38 3
0.370858 0.211855 0.402242 9.7731e-39 3
0.394002 0.264858 0.487766 1.17096e-38 3
0.332332 0.218979 0.403274 1.1894e-38 3
0.337976 0.218374 0.402161 1.15248e-38 3
0.343588 0.217772 0.401053 1.07876e-38 3
0.349636 0.217464 0.400486 9.40467e-39 3
0.335319 0.273333 0.461751 1.20791e-38 3
0.39848 0.265228 0.448059 1.06039e-38 3
0.347152 0.285738 0.457489 1.16174e-38 3
0.385521 0.275808 0.44159 1.16174e-38 3
0.366992 0.337272 0.817676 1.25393e-38 3
0.391466 0.348646 0.813089 1.22638e-38 3
0.38713 0.357904 0.804085 1.11571e-38 3
0.387119 0.371012 0.80406 1.16181e-38 3
0.662825 0.275071 0.694342 6.73028e-39 3
0.613059 0.246009 0.620983 6.54589e-39 3
0.622465 0.245722 0.620259 6.54589e-39 3
0.607662 0.253886 0.615516 7.28345e-39 3
0.614302 0.252487 0.612126 6.45369e-39 3
0.640363 0.292641 0.682477 7.19054e-39 3
0.570415 0.254092 0.641387 7.56004e-39 3
0.5988 0.244325 0.616732 5.53174e-39 3
0.515827 0.263401 0.638584 1.00493e-38 3
0.570415 0.264557 0.641387 8.75858e-39 3
0.579337 0.250326 0.606885 7.37565e-39 3
0.596243 0.253301 0.614098 7.56076e-39 3
0.580189 0.26061 0.607777 7.00687e-39 3
0.529847 0.334086 0.843309 1.1801e-38 3
0.527323 0.346188 0.839292 1.14308e-38 3
0.518086 0.353577 0.824589 1.24432e-38 3
0.517173 0.366384 0.823137 1.44708e-38 3
0.355724 0.230275 0.581267 1.1984e-38 3
0.341907 0.236758 0.573992 1.15201e-38 3
0.3361 0.241943 0.564244 1.56657e-38 3
0.335575 0.250757 0.563362 1.43757e-38 3
0.350532 0.247272 0.517588 1.18018e-38 3
0.316431 0.248822 0.503633 1.30003e-38 3
-0.139847 0.234323 0.591484 9.86672e-39 3
-0.120198 0.234146 0.54606 1.06954e-38 3
-0.111291 0.234152 0.546073 8.94369e-39 3
-0.101853 0.232944 0.543255 8.75858e-39 3
-0.180105 0.265718 0.596974 9.95784e-39 3
-0.144978 0.226121 0.508015 1.08798e-38 3
-0.136524 0.225848 0.5074 1.16174e-38 3
-0.130263 0.229402 0.515385 1.00508e-38 3
-0.12411 0.233647 0.524923 1.14341e-38 3
-0.117891 0.238391 0.535582 1.19872e-38 3
-0.111025 0.24248 0.544768 1.12486e-38 3
-0.1018 0.24168 0.542969 1.08798e-38 3
-0.16826 0.232224 0.503278 1.10642e-38 3
-0.161317 0.234065 0.507267 1.12486e-38 3
-0.152734 0.233596 0.506252 1.21705e-38 3
-0.143566 0.232128 0.50307 1.21705e-38 3
-0.136147 0.23348 0.505999 1.0511e-38 3
-0.129884 0.237119 0.513886 1.07883e-38 3
-0.123202 0.240441 0.521085 1.11575e-38 3
-0.117633 0.246589 0.534409 1.12497e-38 3
-0.186913 0.280794 0.587756 1.12486e-38 3
-0.151969 0.240645 0.503716 1.20783e-38 3
-0.143439 0.240123 0.502623 1.24471e-38 3
-0.135323 0.240273 0.502937 1.11564e-38 3
-0.127675 0.241327 0.505144 1.03273e-38 3
-0.114202 0.273257 0.518823 1.07876e-38 3
-0.114202 0.281722 0.518823 1.11564e-38 3
0.246605 0.225068 0.592527 1.08798e-38 3
0.20487 0.231275 0.583792 1.21713e-38 3
0.211131 0.227755 0.574906 1.24471e-38 3
0.218042 0.225205 0.568468 1.24471e-38 3
0.228308 0.226187 0.570948 1.29074e-38 3
0.207399 0.232943 0.564744 1.36457e-38 3
0.24254 0.231307 0.560777 1.20794e-38 3
0.244012 0.251399 0.586296 1.28166e-38 3
0.223485 0.248764 0.558886 1.36457e-38 3
0.20326 0.255384 0.553471 1.41067e-38 3
0.327905 0.354923 0.93439 1.13415e-38 3
0.382199 0.363803 0.918322 1.28159e-38 3
0.346437 0.372554 0.903212 1.29996e-38 3
-0.414892 0.327525 0.86226 8.482e-39 3
-0.444462 0.386869 0.838425 9.03552e-39 3
-0.443824 0.399973 0.837222 9.40467e-39 3
0.501974 0.209022 0.574979 7.83699e-39 3
0.518671 0.212012 0.583205 9.03517e-39 3
0.513849 0.219468 0.577783 7.56004e-39 3
0.514654 0.234395 0.568264 6.82248e-39 3
0.546102 0.244316 0.592316 7.74371e-39 3
0.562472 0.247264 0.599463 8.57419e-39 3
0.432654 0.202909 0.558165 7.74444e-39 3
0.442845 0.203407 0.559535 7.46713e-39 3
0.454549 0.204566 0.562722 7.83663e-39 3
0.468086 0.206488 0.568008 7.28346e-39 3
0.47944 0.20739 0.570491 6.82284e-39 3
0.490049 0.207942 0.572009 7.19162e-39 3
0.432654 0.212016 0.558165 7.92883e-39 3
0.442845 0.212536 0.559535 6.17639e-39 3
0.454489 0.213719 0.562648 7.83591e-39 3
0.467065 0.215284 0.566769 8.1125e-39 3
0.477392 0.215773 0.568054 8.0203e-39 3
0.487675 0.216222 0.569238 7.56004e-39 3
0.498956 0.21709 0.571522 7.46785e-39 3
0.430299 0.21992 0.555127 9.95713e-39 3
0.439979 0.220231 0.555913 9.49543e-39 3
0.450124 0.220758 0.557245 8.85006e-39 3
0.462918 0.222538 0.561737 9.49543e-39 3
0.461889 0.231188 0.560489 1.01415e-38 3
0.424359 0.24601 0.514946 1.10642e-38 3
0.416381 0.254671 0.515471 1.1801e-38 3
0.407419 0.257419 0.504376 1.13397e-38 3
0.823948 0.347157 0.999836 7.46785e-39 3
0.840681 0.337446 0.928251 7.37565e-39 3
0.837581 0.351291 0.924828 7.37565e-39 3
0.820808 0.359043 0.906308 8.2976e-39 3
0.00574108 0.240141 0.691623 1.02344e-38 3
0.0170679 0.240741 0.693351 1.0972e-38 3
0.0286167 0.242746 0.699126 9.86565e-39 3
0.0397237 0.240928 0.69389 8.8515e-39 3
0.0506091 0.238871 0.687964 1.06032e-38 3
0.0618796 0.239048 0.688476 1.03266e-38 3
0.0742844 0.24288 0.699511 1.07876e-38 3
0.080983 0.229518 0.661029 1.03266e-38 3
0.0870811 0.217796 0.627267 1.22624e-38 3
0.0969363 0.216948 0.624824 1.33687e-38 3
0.00572354 0.250657 0.68951 1.07876e-38 3
0.0170157 0.251282 0.691229 1.0972e-38 3
0.0283542 0.251821 0.692711 1.0511e-38 3
0.0393461 0.249852 0.687294 1.08798e-38 3
0.0504128 0.249125 0.685296 1.10642e-38 3
0.0965653 0.226273 0.622433 1.29081e-38 3
0.0965126 0.236299 0.622093 1.18028e-38 3
0.016342 0.262997 0.663864 1.0511e-38 3
0.0960389 0.245239 0.61904 1.14341e-38 3
0.0161957 0.271376 0.65792 1.13408e-38 3
0.0369024 0.276403 0.644608 1.16174e-38 3
-0.093644 0.234694 0.675935 1.02355e-38 3
-0.0834773 0.237141 0.682984 1.09731e-38 3
-0.0624555 0.242044 0.697102 1.1433e-38 3
-0.0506033 0.239776 0.690573 1.06032e-38 3
-0.0390164 0.237827 0.684959 1.13408e-38 3
-0.0278888 0.238237 0.686138 1.15252e-38 3
-0.0168803 0.240894 0.693793 1.08798e-38 3
-0.00558226 0.241834 0.696498 9.95748e-39 3
-0.0828861 0.246526 0.678147 9.59086e-39 3
-0.0721747 0.247738 0.681481 9.77453e-39 3
-0.0605701 0.245767 0.676058 1.05121e-38 3
-0.0489089 0.242637 0.667449 1.06965e-38 3
-0.0372916 0.237995 0.654679 1.10642e-38 3
-0.0266002 0.237906 0.654434 1.06954e-38 3
-0.0164109 0.245202 0.674503 1.0972e-38 3
-0.00556457 0.252395 0.69429 1.05103e-38 3
-0.25205 0.219012 0.630771 9.12808e-39 3
-0.240734 0.218085 0.628099 8.94477e-39 3
-0.278067 0.233875 0.643345 8.39052e-39 3
-0.263472 0.230292 0.63349 8.66711e-39 3
-0.249946 0.227389 0.625505 9.40467e-39 3
-0.238812 0.226509 0.623084 8.66818e-39 3
-0.281707 0.268333 0.677334 8.85149e-39 3
-0.281707 0.279384 0.677334 9.31247e-39 3
0.407858 0.22657 0.684711 9.49615e-39 3
0.423909 0.229208 0.692684 1.02344e-38 3
0.407726 0.237664 0.68449 8.29761e-39 3
0.48764 0.233614 0.642629 8.85114e-39 3
0.48764 0.244099 0.642629 8.57456e-39 3
0.480456 0.250834 0.633162 9.21993e-39 3
0.379381 0.229619 0.693925 8.29833e-39 3
0.383916 0.22563 0.681871 9.49687e-39 3
0.395267 0.225759 0.682261 9.77346e-39 3
0.395267 0.23689 0.682261 8.94369e-39 3
0.125951 0.221954 0.670762 9.31176e-39 3
0.142702 0.231368 0.699214 9.68054e-39 3
0.188181 0.206199 0.623151 9.40395e-39 3
0.198018 0.205857 0.622115 1.06943e-38 3
0.107087 0.21686 0.624572 1.33687e-38 3
0.117312 0.216923 0.624752 1.15245e-38 3
0.128236 0.218166 0.628333 1.21698e-38 3
0.179089 0.217673 0.626915 1.18018e-38 3
0.187728 0.215846 0.621652 1.20783e-38 3
0.197242 0.215161 0.619678 1.09713e-38 3
0.106918 0.22669 0.623581 1.23549e-38 3
0.117308 0.227108 0.62473 1.27237e-38 3
0.128236 0.228418 0.628333 1.22627e-38 3
0.179305 0.228178 0.627673 1.21705e-38 3
0.187735 0.225997 0.621675 1.29081e-38 3
0.197242 0.225271 0.619678 1.30003e-38 3
0.106662 0.236299 0.622093 1.18018e-38 3
0.116846 0.236367 0.622272 1.18939e-38 3
0.105496 0.243753 0.615287 1.16174e-38 3
-0.231533 0.253943 0.767437 9.31247e-39 3
-0.215606 0.249995 0.755505 9.31176e-39 3
-0.299594 0.250112 0.72034 7.92954e-39 3
-0.215102 0.261708 0.753737 9.86565e-39 3
0.241168 0.206584 0.656694 1.06947e-38 3
0.208191 0.205879 0.622182 1.12464e-38 3
0.219028 0.206526 0.624138 1.17996e-38 3
0.231108 0.208234 0.629301 1.12479e-38 3
0.25687 0.221602 0.669699 1.0511e-38 3
0.207156 0.214957 0.619091 1.05103e-38 3
0.216558 0.214265 0.617097 1.1894e-38 3
0.224552 0.212304 0.611451 1.25393e-38 3
0.233094 0.211005 0.60771 1.15252e-38 3
0.243612 0.211529 0.609218 1.06032e-38 3
0.26345 0.219787 0.633001 1.12486e-38 3
0.299022 0.240053 0.691369 1.02344e-38 3
0.206797 0.224667 0.618017 9.77418e-39 3
0.215097 0.22282 0.612936 9.40539e-39 3
0.223783 0.221519 0.609355 1.03266e-38 3
0.232001 0.219885 0.604862 1.0511e-38 3
0.241156 0.219236 0.603077 9.58906e-39 3
0.252325 0.220397 0.60627 1.005e-38 3
0.205432 0.2584 0.680277 1.21705e-38 3
0.26805 0.254622 0.670332 1.12479e-38 3
0.211912 0.26375 0.665766 1.20783e-38 3
0.200397 0.198057 0.629588 1.23528e-38 3
0.21092 0.198293 0.630339 1.18911e-38 3
0.222825 0.199746 0.634956 1.06933e-38 3
0.190733 0.222763 0.708121 8.7593e-39 3
0.122126 0.235693 0.712284 1.02337e-38 3
0.192829 0.24857 0.7159 1.06032e-38 3
0.192956 0.260423 0.716374 1.27237e-38 3
-0.347825 0.312054 0.991963 8.8515e-39 3
-0.317285 0.31403 0.949023 8.8515e-39 3
-0.354133 0.335078 0.965048 8.66818e-39 3
-0.352713 0.349417 0.961179 9.86672e-39 3
-0.359702 0.371796 0.938497 8.57491e-39 3
-0.36877 0.380662 0.922871 9.03588e-39 3
0.00591649 0.212591 0.712754 8.85258e-39 3
0.0175893 0.213121 0.714533 8.76038e-39 3
0.0293043 0.213536 0.715923 9.03589e-39 3
0.0410928 0.214097 0.717805 9.03589e-39 3
0.0543785 0.22048 0.739205 9.40395e-39 3
0.00586837 0.222396 0.706957 9.86565e-39 3
0.0174539 0.223049 0.709032 9.77345e-39 3
0.0290945 0.223605 0.710798 8.6671e-39 3
0.0409424 0.224983 0.715179 8.6671e-39 3
0.0528185 0.22587 0.718 9.31247e-39 3
0.0676139 0.236653 0.752276 9.49686e-39 3
0.0830112 0.245905 0.781688 1.01422e-38 3
0.0058213 0.232054 0.701287 9.03588e-39 3
0.017385 0.233692 0.706234 8.85149e-39 3
0.0290175 0.234579 0.708917 8.8515e-39 3
0.0404589 0.233856 0.706732 1.01422e-38 3
0.0517656 0.232848 0.703686 1.08798e-38 3
0.0637016 0.234523 0.708748 1.06032e-38 3
0.0980998 0.256884 0.706638 1.1433e-38 3
0.0978354 0.26769 0.704734 1.10653e-38 3
0.0973006 0.277661 0.700881 1.09731e-38 3
-0.551432 0.31026 1.04021 5.34771e-39 3
-0.551432 0.327232 1.04021 6.08563e-39 3
-0.551432 0.344204 1.04021 5.99343e-39 3
0.602353 0.202168 0.761073 6.82284e-39 3
0.614717 0.202151 0.761007 6.54625e-39 3
0.62781 0.202369 0.761828 7.46785e-39 3
0.651306 0.205867 0.774997 6.17639e-39 3
0.676187 0.20966 0.789279 6.26931e-39 3
0.602353 0.214585 0.761073 8.11358e-39 3
0.614717 0.214567 0.761007 7.37601e-39 3
0.627355 0.214642 0.761276 6.54589e-39 3
0.643778 0.215985 0.766039 6.72956e-39 3
0.666698 0.219415 0.778204 6.91396e-39 3
0.693102 0.223842 0.793904 7.00615e-39 3
0.602353 0.227003 0.761073 7.37601e-39 3
0.614092 0.226752 0.760233 7.09943e-39 3
0.616479 0.223127 0.748079 8.02102e-39 3
0.622485 0.220927 0.740702 7.65152e-39 3
0.648901 0.225916 0.75743 7.55825e-39 3
0.679488 0.232144 0.77831 7.18946e-39 3
0.62254 0.233032 0.740768 7.65152e-39 3
0.648901 0.238274 0.75743 7.00507e-39 3
0.679488 0.244843 0.77831 6.91288e-39 3
0.640575 0.257213 0.777318 6.82212e-39 3
0.606938 0.238975 0.722202 7.92847e-39 3
0.52167 0.209666 0.789301 7.28345e-39 3
0.539423 0.211579 0.7965 7.83663e-39 3
0.55424 0.212276 0.799125 7.92883e-39 3
0.598138 0.209386 0.788247 6.63809e-39 3
0.592553 0.203065 0.764451 6.26895e-39 3
0.505378 0.215594 0.764651 8.48272e-39 3
0.537031 0.223578 0.792967 9.22028e-39 3
0.554137 0.225273 0.798977 7.56004e-39 3
0.576926 0.223998 0.794457 7.56004e-39 3
0.580744 0.220526 0.782141 7.00687e-39 3
0.585339 0.217491 0.771379 6.17711e-39 3
0.592248 0.215427 0.764057 7.09907e-39 3
0.521303 0.229589 0.769743 7.93026e-39 3
0.538162 0.231438 0.775944 8.11358e-39 3
0.550917 0.231478 0.776077 8.20541e-39 3
0.56338 0.231396 0.775803 8.94298e-39 3
0.57285 0.230116 0.77151 8.29761e-39 3
0.582977 0.229149 0.768267 7.09907e-39 3
0.592196 0.227873 0.76399 7.56004e-39 3
0.503561 0.233907 0.743547 8.57491e-39 3
0.517358 0.234662 0.745948 8.20541e-39 3
0.523983 0.232205 0.738136 8.11322e-39 3
0.53243 0.230647 0.733183 8.66675e-39 3
0.550734 0.233333 0.741724 8.48236e-39 3
0.576377 0.238947 0.759569 7.7448e-39 3
0.503542 0.246029 0.743518 8.57491e-39 3
0.517358 0.246833 0.745948 8.5742e-39 3
0.523983 0.244248 0.738136 8.20541e-39 3
0.53243 0.242609 0.733183 7.83699e-39 3
0.550734 0.245435 0.741724 6.91504e-39 3
0.576377 0.25134 0.759569 7.19162e-39 3
0.410948 0.212343 0.799376 8.02174e-39 3
0.412079 0.206377 0.776919 8.20613e-39 3
0.417274 0.202742 0.763235 8.20613e-39 3
0.488449 0.201283 0.757742 7.83591e-39 3
0.408018 0.216894 0.769261 7.37709e-39 3
0.411851 0.212398 0.753316 7.74515e-39 3
0.418748 0.209697 0.743735 7.92954e-39 3
0.429396 0.208974 0.741171 6.91467e-39 3
0.446892 0.211531 0.750241 8.11393e-39 3
0.447074 0.205976 0.730537 8.48272e-39 3
0.456629 0.204915 0.726774 8.39052e-39 3
0.474467 0.20753 0.736051 8.29833e-39 3
0.407197 0.228984 0.767715 8.57563e-39 3
0.411902 0.224717 0.753409 9.12881e-39 3
0.420855 0.222948 0.747479 8.8515e-39 3
0.427573 0.220128 0.738024 7.37637e-39 3
0.430607 0.215618 0.722903 7.09978e-39 3
0.440437 0.21466 0.719691 7.46856e-39 3
0.454329 0.215681 0.723114 7.93026e-39 3
0.468622 0.216835 0.726984 9.12953e-39 3
0.494021 0.222944 0.747466 9.12953e-39 3
0.401076 0.224092 0.712349 8.66711e-39 3
0.410599 0.222953 0.708726 8.57491e-39 3
0.420736 0.222199 0.706331 8.7593e-39 3
0.433691 0.222935 0.708668 9.40467e-39 3
0.451392 0.226008 0.718439 9.68198e-39 3
0.466207 0.227518 0.723237 7.56148e-39 3
0.484401 0.230561 0.732912 8.20685e-39 3
0.446132 0.23496 0.710067 9.95785e-39 3
0.463896 0.238131 0.719652 8.94442e-39 3
0.483526 0.242081 0.731587 7.56076e-39 3
0.429996 0.265172 0.763714 9.86565e-39 3
0.303522 0.201628 0.759039 7.83663e-39 3
0.302797 0.2135 0.757225 7.00759e-39 3
0.312153 0.211469 0.750021 7.37637e-39 3
0.323084 0.210618 0.747001 8.57491e-39 3
0.336798 0.211577 0.750402 9.12808e-39 3
0.352935 0.213937 0.758774 8.3898e-39 3
0.36657 0.214672 0.761379 8.11322e-39 3
0.382523 0.216672 0.768472 7.56076e-39 3
0.397541 0.218032 0.773296 7.65296e-39 3
0.304937 0.218535 0.732682 1.01422e-38 3
0.317784 0.219151 0.734748 9.22028e-39 3
0.332676 0.221081 0.741219 9.49687e-39 3
0.349888 0.224363 0.752222 8.29761e-39 3
0.362994 0.224879 0.753953 8.482e-39 3
0.378178 0.226606 0.759744 8.94369e-39 3
0.394708 0.229005 0.767786 9.12809e-39 3
0.300119 0.226847 0.721106 1.0511e-38 3
0.312444 0.227255 0.722402 1.06954e-38 3
0.324298 0.227302 0.722551 1.06032e-38 3
0.336965 0.227896 0.724439 1.03266e-38 3
0.349299 0.228232 0.725507 9.68126e-39 3
0.358555 0.226601 0.720323 8.7593e-39 3
0.366697 0.224391 0.713299 8.39052e-39 3
0.377953 0.224165 0.71258 8.48272e-39 3
0.38958 0.224165 0.71258 8.7593e-39 3
0.300037 0.238547 0.720909 1.06032e-38 3
0.312291 0.238924 0.722048 1.01422e-38 3
0.32159 0.237094 0.716517 1.01422e-38 3
0.331435 0.235782 0.71255 9.49687e-39 3
0.341978 0.235038 0.710303 8.94369e-39 3
0.350271 0.232847 0.703681 9.58906e-39 3
0.360669 0.232149 0.701574 9.68126e-39 3
0.375663 0.234363 0.708262 8.48272e-39 3
0.314643 0.243411 0.70104 9.68126e-39 3
0.292234 0.211379 0.795748 8.20541e-39 3
0.296371 0.205252 0.772684 8.11393e-39 3
0.278018 0.223371 0.792234 9.31104e-39 3
0.284829 0.218676 0.775582 9.68054e-39 3
0.29508 0.21691 0.769317 8.48272e-39 3
0.202012 0.238123 0.798355 8.94298e-39 3
0.213299 0.236197 0.791899 9.77346e-39 3
0.226261 0.236241 0.792046 9.31248e-39 3
0.240561 0.237601 0.796605 9.21884e-39 3
0.25438 0.238371 0.799188 1.00479e-38 3
0.264423 0.2357 0.790232 1.08769e-38 3
0.275121 0.233835 0.783979 1.16152e-38 3
0.286389 0.232597 0.77983 1.03259e-38 3
0.287516 0.22358 0.749596 1.12486e-38 3
0.293073 0.218602 0.732908 1.10642e-38 3
0.200852 0.249706 0.793771 8.482e-39 3
0.273415 0.224245 0.712833 1.06954e-38 3
0.287629 0.226278 0.719295 1.10638e-38 3
0.202907 0.235034 0.710291 1.005e-38 3
0.283784 0.234832 0.70968 1.07876e-38 3
-0.0957608 0.208121 0.783484 7.19198e-39 3
-0.083425 0.209243 0.787707 7.83735e-39 3
-0.0706716 0.209535 0.788807 7.46856e-39 3
-0.0582421 0.211132 0.794817 7.46856e-39 3
-0.0952142 0.219643 0.779012 8.39052e-39 3
-0.0822727 0.219027 0.776827 7.83735e-39 3
-0.0696986 0.219343 0.777947 8.7593e-39 3
-0.0576748 0.221917 0.787075 8.11393e-39 3
-0.094777 0.231287 0.775435 9.86565e-39 3
-0.0817813 0.230318 0.772187 1.01422e-38 3
-0.0689206 0.229446 0.769263 1.13408e-38 3
-0.0568158 0.231262 0.775353 1.01422e-38 3
-0.0451422 0.236376 0.7925 8.39052e-39 3
-0.00583297 0.217072 0.727778 9.31247e-39 3
-0.0989593 0.224707 0.714302 1.06043e-38 3
-0.0923658 0.237732 0.755707 1.09731e-38 3
-0.0796876 0.236697 0.752418 1.02344e-38 3
-0.0667086 0.23423 0.744573 1.10642e-38 3
-0.0551059 0.236572 0.752018 1.06947e-38 3
-0.0429464 0.23718 0.753952 9.68126e-39 3
-0.0308208 0.238539 0.758273 9.95784e-39 3
-0.0187581 0.242534 0.770972 9.866e-39 3
-0.00575761 0.225988 0.718376 1.05107e-38 3
-0.0984375 0.235115 0.710535 1.04199e-38 3
-0.0898381 0.243219 0.735027 1.06043e-38 3
-0.077297 0.241505 0.729846 1.08798e-38 3
-0.0651453 0.240604 0.727125 1.03266e-38 3
-0.053203 0.240248 0.726049 1.0511e-38 3
-0.0414873 0.241005 0.728337 1.06954e-38 3
-0.0295061 0.240208 0.725927 9.77345e-39 3
-0.017411 0.236793 0.715606 9.40502e-39 3
-0.00562792 0.232355 0.702195 9.77309e-39 3
-0.074215 0.243308 0.700745 1.05121e-38 3
-0.041972 0.279887 0.736846 1.01422e-38 3
-0.0419258 0.291588 0.736036 1.02344e-38 3
0.600161 0.201523 0.808292 5.71613e-39 3
0.688856 0.20047 0.804067 5.71613e-39 3
0.603095 0.215761 0.812244 6.82248e-39 3
0.685976 0.261862 0.832411 7.2831e-39 3
0.523554 0.202498 0.812201 6.26858e-39 3
0.534711 0.201708 0.809033 6.2693e-39 3
0.544535 0.200465 0.804047 4.88637e-39 3
0.558216 0.200667 0.804859 7.19126e-39 3
0.573444 0.201403 0.807812 7.19126e-39 3
0.588535 0.202059 0.810443 6.91467e-39 3
0.571135 0.213719 0.804559 6.82248e-39 3
0.58834 0.215211 0.810174 6.91467e-39 3
0.568419 0.225768 0.800733 7.83663e-39 3
-0.188482 0.213486 0.856276 6.91395e-39 3
-0.17805 0.217815 0.873637 7.00615e-39 3
-0.197256 0.221619 0.834298 7.00687e-39 3
-0.178447 0.215348 0.810689 6.82248e-39 3
-0.189439 0.225909 0.801234 7.19198e-39 3
-0.209321 0.22073 0.885327 6.26858e-39 3
-0.240112 0.237052 0.892395 7.09906e-39 3
-0.219325 0.230506 0.867755 6.45369e-39 3
-0.28257 0.250528 0.88855 6.17783e-39 3
-0.263785 0.246521 0.87434 6.8232e-39 3
-0.245142 0.242196 0.859 7.00758e-39 3
-0.226192 0.237024 0.840658 6.54589e-39 3
-0.20794 0.231964 0.822712 7.46856e-39 3
-0.296839 0.264822 0.887869 6.91539e-39 3
-0.274548 0.257501 0.863326 7.09978e-39 3
-0.255269 0.252367 0.846113 7.37637e-39 3
-0.237424 0.248145 0.831957 8.39052e-39 3
-0.220418 0.24434 0.8192 9.21956e-39 3
-0.202492 0.238958 0.801157 8.39052e-39 3
-0.291267 0.274065 0.871201 8.29832e-39 3
-0.267424 0.264539 0.840923 8.20613e-39 3
-0.248478 0.25909 0.823601 8.48271e-39 3
-0.232803 0.256624 0.815761 8.66639e-39 3
-0.215469 0.25192 0.800808 8.94297e-39 3
-0.256417 0.266807 0.806313 8.7593e-39 3
-0.255854 0.294455 0.848051 9.59014e-39 3
-0.522657 0.270817 1.08622 5.34735e-39 3
-0.506098 0.279398 1.05181 5.43954e-39 3
-0.537882 0.295166 1.04687 5.16367e-39 3
0.764856 0.208021 0.892778 5.34807e-39 3
0.723786 0.206699 0.82905 5.71613e-39 3
0.777616 0.217997 0.874368 5.62394e-39 3
0.704677 0.214411 0.807162 6.73028e-39 3
0.736727 0.22005 0.828392 6.26931e-39 3
0.781534 0.229228 0.862943 6.54589e-39 3
0.720655 0.228471 0.810321 6.73028e-39 3
0.751308 0.233898 0.829568 6.54589e-39 3
0.605564 0.185945 0.798033 4.42575e-39 3
0.610146 0.183408 0.787146 4.79454e-39 3
0.620425 0.182654 0.783907 5.34699e-39 3
0.633159 0.182637 0.783838 5.2548e-39 3
0.648818 0.183449 0.787321 4.97893e-39 3
0.602353 0.189751 0.761073 4.79454e-39 3
0.61538 0.189939 0.761828 5.34771e-39 3
0.638427 0.193151 0.774712 5.25515e-39 3
0.659554 0.195669 0.784811 5.25443e-39 3
0.409968 0.185814 0.79747 7.19126e-39 3
0.435155 0.185458 0.795941 7.00687e-39 3
0.429508 0.177746 0.762847 6.3615e-39 3
0.440889 0.177318 0.761007 7.28346e-39 3
0.455057 0.178003 0.76395 6.45334e-39 3
0.413172 0.194215 0.77898 8.20613e-39 3
0.419772 0.191429 0.767805 6.73028e-39 3
0.423479 0.187523 0.752139 7.19126e-39 3
0.435591 0.187454 0.751863 7.74371e-39 3
0.445096 0.186298 0.747226 7.00687e-39 3
0.455383 0.185522 0.744115 6.91467e-39 3
0.48131 0.190993 0.766057 7.09834e-39 3
0.420157 0.198227 0.746239 8.11322e-39 3
0.428652 0.19654 0.739886 7.74443e-39 3
0.439559 0.19602 0.73793 8.3898e-39 3
0.448891 0.194845 0.733506 7.37565e-39 3
0.463768 0.196075 0.738136 7.56004e-39 3
0.227073 0.209096 0.897394 8.20613e-39 3
0.241389 0.208815 0.896187 8.02102e-39 3
0.270967 0.209073 0.897293 8.39052e-39 3
0.278274 0.203705 0.874257 7.83734e-39 3
0.225734 0.222419 0.892105 7.46785e-39 3
0.239104 0.221322 0.887704 8.20541e-39 3
0.253294 0.221066 0.886676 8.11322e-39 3
0.267044 0.220474 0.884303 7.92882e-39 3
0.274783 0.215235 0.863287 8.20469e-39 3
0.282753 0.210679 0.845014 7.92882e-39 3
0.28991 0.205968 0.82612 7.92882e-39 3
0.2982 0.202446 0.811992 8.57491e-39 3
0.2069 0.232173 0.874028 8.39052e-39 3
0.222344 0.233416 0.878707 8.3898e-39 3
0.23721 0.233938 0.880673 9.68054e-39 3
0.251229 0.233612 0.879446 9.31176e-39 3
0.263266 0.231579 0.871793 7.92811e-39 3
0.272134 0.227109 0.854967 7.65152e-39 3
0.27883 0.221351 0.833289 7.92811e-39 3
0.286751 0.217056 0.817118 8.02102e-39 3
0.200015 0.238232 0.844942 9.58834e-39 3
0.21106 0.235179 0.834112 8.94298e-39 3
0.224604 0.23511 0.83387 8.94369e-39 3
0.238301 0.235201 0.834192 9.40395e-39 3
0.25344 0.236628 0.839252 1.04174e-38 3
0.266381 0.235962 0.836891 9.40252e-39 3
0.273616 0.230553 0.817706 8.84934e-39 3
0.109025 0.207356 0.889924 7.74515e-39 3
0.122431 0.205486 0.8819 7.92883e-39 3
0.137894 0.207101 0.888829 7.28346e-39 3
0.105545 0.214794 0.861522 7.46964e-39 3
0.120879 0.217089 0.870723 7.92882e-39 3
0.137522 0.221004 0.886429 7.28345e-39 3
0.168219 0.223356 0.895861 7.74443e-39 3
0.177783 0.231396 0.871105 9.12809e-39 3
0.191995 0.231397 0.871106 8.29832e-39 3
0.165023 0.247791 0.878843 8.482e-39 3
0.177712 0.245512 0.870761 9.86493e-39 3
0.190473 0.243661 0.864197 9.68054e-39 3
0.100821 0.245462 0.822961 9.40467e-39 3
0.117604 0.252671 0.847132 8.75858e-39 3
0.134585 0.258746 0.867497 8.94298e-39 3
0.151228 0.263076 0.882017 1.00493e-38 3
0.164926 0.261975 0.878324 9.58835e-39 3
0.176281 0.257627 0.863747 1.00486e-38 3
0.183864 0.248818 0.834211 9.03481e-39 3
0.19204 0.24197 0.811253 9.86493e-39 3
0.117564 0.266402 0.846844 1.02337e-38 3
0.183154 0.282314 0.897425 9.77274e-39 3
0.179893 0.256761 0.816195 1.09713e-38 3
0.191946 0.255082 0.810858 9.40395e-39 3
-0.0800414 0.208163 0.893389 6.54625e-39 3
-0.0648175 0.206104 0.88455 7.00723e-39 3
-0.0875741 0.206158 0.826883 7.00759e-39 3
-0.0724633 0.201651 0.808805 7.92954e-39 3
-0.0595369 0.202569 0.812488 7.37637e-39 3
-0.0469814 0.205636 0.82479 7.74443e-39 3
-0.0343675 0.210808 0.845531 7.46784e-39 3
-0.0460545 0.214771 0.808518 7.92882e-39 3
-0.0338502 0.221223 0.832805 8.11357e-39 3
-0.0205133 0.223961 0.843115 8.75894e-39 3
-0.00697733 0.231252 0.87056 8.85078e-39 3
-0.04612 0.228286 0.809667 8.29761e-39 3
-0.0329855 0.228812 0.81153 8.11357e-39 3
-0.0201685 0.233722 0.828943 8.39015e-39 3
-0.00680565 0.239416 0.849139 9.40395e-39 3
-0.0341009 0.250237 0.838971 1.01422e-38 3
-0.0199156 0.244146 0.818549 9.40502e-39 3
-0.398375 0.223183 0.957849 4.97785e-39 3
-0.372083 0.216965 0.931162 5.43918e-39 3
-0.351821 0.213882 0.917933 5.80832e-39 3
-0.334676 0.212506 0.912025 5.99271e-39 3
-0.32791 0.217897 0.935166 5.53245e-39 3
-0.389406 0.233434 0.936284 5.90052e-39 3
-0.370183 0.230971 0.926405 5.99271e-39 3
-0.351783 0.228834 0.917834 6.3615e-39 3
-0.333399 0.226518 0.908545 5.71685e-39 3
-0.314068 0.234211 0.939401 6.36221e-39 3
-0.30971 0.242811 0.973894 5.80904e-39 3
-0.389444 0.248735 0.936376 5.62393e-39 3
-0.371569 0.247008 0.929875 6.45369e-39 3
-0.354625 0.245779 0.925251 6.91539e-39 3
-0.336383 0.243502 0.916679 6.731e-39 3
-0.319914 0.242356 0.912363 6.45441e-39 3
-0.306871 0.24382 0.917876 6.17782e-39 3
-0.389225 0.263863 0.935848 7.28417e-39 3
-0.371491 0.262124 0.929679 7.28417e-39 3
-0.354148 0.260525 0.924006 7.37637e-39 3
-0.336051 0.258203 0.915773 7.92954e-39 3
-0.319491 0.256902 0.911157 7.83734e-39 3
-0.302373 0.255003 0.904422 6.27002e-39 3
-0.391882 0.281038 0.942237 7.46856e-39 3
-0.372796 0.278267 0.932946 8.29832e-39 3
-0.354975 0.276244 0.926164 7.83734e-39 3
-0.335931 0.273047 0.915445 8.20613e-39 3
-0.317163 0.269787 0.904517 8.20613e-39 3
-0.446614 0.232005 0.995712 5.62394e-39 3
-0.425082 0.229155 0.983481 4.97821e-39 3
-0.455606 0.24436 0.980108 4.5183e-39 3
-0.434112 0.241301 0.967839 4.88637e-39 3
-0.412514 0.237952 0.954404 6.54589e-39 3
-0.448231 0.256137 0.964244 6.08563e-39 3
-0.430731 0.25509 0.960302 6.4537e-39 3
-0.410731 0.252428 0.950279 6.82248e-39 3
-0.477892 0.270847 0.960617 5.71685e-39 3
-0.459999 0.269546 0.956004 6.45441e-39 3
-0.444353 0.269517 0.9559 5.99343e-39 3
-0.428571 0.2694 0.955485 6.27002e-39 3
-0.409541 0.267156 0.947526 6.6388e-39 3
-0.491194 0.285144 0.956004 5.99416e-39 3
-0.475545 0.285113 0.9559 5.90196e-39 3
-0.459949 0.285113 0.9559 6.82319e-39 3
-0.444353 0.285113 0.9559 6.6388e-39 3
-0.428757 0.285113 0.9559 7.74515e-39 3
-0.412807 0.284869 0.955081 7.09978e-39 3
0.919337 0.212311 0.979797 4.79417e-39 3
0.947162 0.214998 0.992199 4.70126e-39 3
0.903873 0.224457 0.963317 4.79417e-39 3
0.931033 0.22725 0.975304 5.80761e-39 3
0.959333 0.230223 0.988062 5.71541e-39 3
0.926438 0.241962 0.97049 6.08491e-39 3
0.959232 0.246317 0.987958 5.53174e-39 3
0.92714 0.257992 0.971226 5.71613e-39 3
0.787741 0.207132 0.955899 4.61015e-39 3
0.797866 0.212944 0.913905 5.07112e-39 3
0.775318 0.299459 0.904989 7.28274e-39 3
0.406428 0.176926 0.816498 6.2693e-39 3
0.451901 0.184618 0.851997 5.43954e-39 3
0.476153 0.188721 0.870931 5.90052e-39 3
0.490363 0.188721 0.870931 5.62394e-39 3
0.42722 0.187677 0.805465 6.26931e-39 3
0.495782 0.188763 0.810128 5.43954e-39 3
0.305635 0.188721 0.870931 7.92883e-39 3
0.30613 0.194229 0.833585 8.66639e-39 3
0.32424 0.196968 0.845342 8.20541e-39 3
0.291425 0.188721 0.870931 8.482e-39 3
0.286467 0.199477 0.856111 7.56004e-39 3
0.296168 0.196644 0.843952 7.37565e-39 3
0.295882 0.212311 0.979797 6.8232e-39 3
0.201659 0.213187 0.914951 8.02281e-39 3
0.21506 0.211684 0.908498 8.57491e-39 3
0.257349 0.209907 0.900871 8.02102e-39 3
0.200539 0.226848 0.909868 7.19198e-39 3
0.213716 0.225092 0.902824 7.46856e-39 3
0.13032 0.203411 0.938728 6.54589e-39 3
0.145636 0.203411 0.938728 7.00687e-39 3
0.161921 0.204637 0.944383 7.83663e-39 3
0.192738 0.204637 0.944383 7.19198e-39 3
0.159654 0.216964 0.931159 8.3898e-39 3
0.17018 0.211173 0.906306 8.29761e-39 3
0.185402 0.21167 0.908439 7.46856e-39 3
0.155419 0.225998 0.906458 8.29761e-39 3
0.185752 0.226919 0.910151 8.20613e-39 3
0.180096 0.254775 0.959116 8.75858e-39 3
0.00793481 0.207132 0.955899 6.45298e-39 3
0.0235309 0.207132 0.955899 7.28309e-39 3
0.00782833 0.21974 0.943072 8.29724e-39 3
0.0227862 0.215679 0.925647 8.02066e-39 3
0.0373128 0.212401 0.911576 8.11321e-39 3
0.00771214 0.231637 0.929074 8.02174e-39 3
0.0223074 0.225932 0.906195 8.20613e-39 3
0.00751759 0.240569 0.905636 8.11393e-39 3
-0.0554643 0.210992 0.973711 6.3615e-39 3
-0.0395775 0.210992 0.973711 6.54589e-39 3
-0.0235446 0.20969 0.967701 6.45298e-39 3
-0.00775589 0.20969 0.967701 6.36078e-39 3
-0.0984327 0.216557 0.929411 5.80869e-39 3
-0.053555 0.219069 0.940193 7.92882e-39 3
-0.0398185 0.22826 0.97964 8.02102e-39 3
-0.023643 0.226421 0.971748 7.65152e-39 3
-0.00765854 0.222648 0.955554 8.29689e-39 3
-0.0222843 0.228353 0.915905 8.2976e-39 3
-0.00754407 0.234678 0.941272 7.19126e-39 3
-0.263629 0.212311 0.979797 5.62393e-39 3
-0.244586 0.20969 0.967701 4.88637e-39 3
-0.228797 0.20969 0.967701 4.42539e-39 3
-0.280731 0.229208 0.983708 6.36222e-39 3
-0.257939 0.223369 0.958648 5.80869e-39 3
-0.238771 0.220118 0.944695 5.80761e-39 3
-0.223482 0.22024 0.945221 5.992e-39 3
-0.216222 0.22888 0.982301 5.71541e-39 3
-0.293125 0.242237 0.971591 6.54661e-39 3
-0.271971 0.237604 0.953011 7.28417e-39 3
-0.250567 0.232179 0.931249 6.45369e-39 3
-0.232573 0.229417 0.920171 6.26894e-39 3
-0.293229 0.244934 0.922067 6.27002e-39 3
-0.278097 0.244856 0.921776 6.45441e-39 3
-0.261015 0.242956 0.914621 7.28417e-39 3
-0.319569 0.229525 1.05924 5.16367e-39 3
-0.336736 0.234683 1.0072 5.53245e-39 3
-0.323432 0.236976 1.01704 5.53353e-39 3
-0.302316 0.233483 1.00205 6.45549e-39 3
0.871738 0.200076 0.998519 5.43991e-39 3
0.803337 0.207132 0.955899 4.70234e-39 3
0.818933 0.207132 0.955899 4.61014e-39 3
0.855392 0.212311 0.979797 4.70234e-39 3
0.826175 0.216454 0.928969 5.71613e-39 3
0.851509 0.219072 0.940206 5.90052e-39 3
0.877373 0.221732 0.951621 5.16296e-39 3
0.821834 0.226243 0.907441 5.99272e-39 3
0.853006 0.230669 0.925192 6.17711e-39 3
0.889005 0.236223 0.94747 5.71613e-39 3
0.830097 0.239163 0.900345 5.99272e-39 3
0.880791 0.249356 0.938716 5.53174e-39 3
0.860324 0.283336 0.94994 7.46785e-39 3
0.823334 0.291232 0.925774 7.37493e-39 3
0.838893 0.203974 1.01797 4.61015e-39 3
0.899487 0.202658 1.0114 4.42504e-39 3
0.899487 0.219159 1.0114 4.24065e-39 3
0.600003 0.161917 0.80808 5.07004e-39 3
0.613188 0.161917 0.80808 5.53102e-39 3
0.660414 0.170717 0.851997 5.07004e-39 3
0.674315 0.170717 0.851997 4.60943e-39 3
0.600003 0.175102 0.80808 4.70198e-39 3
0.613188 0.175102 0.80808 4.51759e-39 3
0.632897 0.176926 0.816498 4.14845e-39 3
0.646219 0.176926 0.816498 4.24065e-39 3
0.65954 0.176926 0.816498 4.51723e-39 3
0.6011 0.18863 0.809557 5.62465e-39 3
0.84027 0.30796 1.53694 5.99272e-39 3
0.865346 0.30796 1.53694 5.34735e-39 3
0.890422 0.30796 1.53694 5.99272e-39 3
0.626353 0.327208 1.633 6.91395e-39 3
0.652996 0.327208 1.633 6.1771e-39 3
0.626353 0.353851 1.633 6.91467e-39 3
0.0655248 0.178477 0.890725 6.73028e-39 3
0.050704 0.191919 0.885692 6.08563e-39 3
0.0644266 0.189775 0.875796 5.6243e-39 3
0.0800575 0.19301 0.890725 4.61014e-39 3
0.0945903 0.19301 0.890725 5.90124e-39 3
-0.087783 0.196325 0.979797 4.60978e-39 3
-0.0717969 0.196325 0.979797 4.42539e-39 3
-0.0558109 0.196325 0.979797 5.25515e-39 3
-0.0398249 0.196325 0.979797 5.07076e-39 3
-0.0238389 0.196325 0.979797 5.43882e-39 3
-0.00785284 0.196325 0.979797 5.16224e-39 3
-0.0816586 0.197498 0.911439 4.70198e-39 3
-0.0667878 0.197498 0.911439 5.16296e-39 3
-0.107812 0.203974 1.01797 4.88637e-39 3
-0.124421 0.220583 1.01797 5.71613e-39 3
-0.124248 0.236863 1.01656 6.17747e-39 3
-0.14041 0.252685 1.0135 6.17782e-39 3
-0.233426 0.302038 1.50738 4.33391e-39 3
-0.273817 0.34663 1.59967 5.16295e-39 3
-0.233426 0.326632 1.50738 5.90123e-39 3
-0.269126 0.366344 1.57226 5.43954e-39 3
-0.774492 0.302038 1.50738 4.24028e-39 3
-0.749898 0.302038 1.50738 4.24028e-39 3
-0.725304 0.302038 1.50738 3.41052e-39 3
-0.698294 0.24163 1.2059 4.33248e-39 3
-0.670201 0.253322 1.26425 4.33248e-39 3
-0.670201 0.273949 1.26425 4.241e-39 3
1.1771 0.209088 1.136 3.59384e-39 3
1.1771 0.227623 1.136 4.79238e-39 3
1.15222 0.263241 1.12977 4.14809e-39 3
1.10513 0.274554 1.10121 4.88565e-39 3
0.577009 0.156816 0.851997 4.97821e-39 3
0.59091 0.156816 0.851997 4.05697e-39 3
0.56772 0.176472 0.880716 5.992e-39 3
0.563108 0.170717 0.851997 4.70162e-39 3
0.577009 0.170717 0.851997 4.88602e-39 3
0.59091 0.170717 0.851997 5.07112e-39 3
0.57961 0.163604 0.816498 4.79454e-39 3
0.592932 0.163604 0.816498 4.97785e-39 3
0.55335 0.190841 0.880716 4.88565e-39 3
0.549207 0.184618 0.851997 4.60907e-39 3
0.563108 0.184618 0.851997 4.42539e-39 3
0.570804 0.182633 0.842836 4.05661e-39 3
0.578337 0.18069 0.83387 4.05733e-39 3
0.57961 0.176926 0.816498 4.79489e-39 3
0.592932 0.176926 0.816498 4.60978e-39 3
0.528895 0.196141 0.841793 6.0842e-39 3
0.539832 0.19513 0.837454 5.8998e-39 3
0.550971 0.19424 0.833633 5.99272e-39 3
0.560851 0.19296 0.82814 5.90052e-39 3
0.566963 0.190474 0.817471 5.80904e-39 3
0.576795 0.189323 0.812532 5.99343e-39 3
0.59091 0.189599 0.813714 4.97928e-39 3
0.735047 0.21533 1.16991 5.71541e-39 3
0.703545 0.224371 1.11977 5.07004e-39 3
0.726807 0.257346 1.18763 4.60978e-39 3
0.216446 0.212163 1.1527 6.3615e-39 3
0.235253 0.23097 1.1527 7.19162e-39 3
0.243326 0.239223 1.104 7.74515e-39 3
0.261338 0.239223 1.104 7.09978e-39 3
0.27935 0.239223 1.104 7.83663e-39 3
0.121555 0.182621 0.992199 5.71613e-39 3
0.132704 0.17594 0.955899 6.17711e-39 3
0.1483 0.17594 0.955899 6.26931e-39 3
0.165919 0.178112 0.967701 6.63809e-39 3
0.111015 0.181572 0.906171 5.90052e-39 3
0.13032 0.188096 0.938728 5.80833e-39 3
0.145636 0.188096 0.938728 6.4537e-39 3
0.161921 0.189229 0.944383 6.63809e-39 3
0.181708 0.193901 0.967701 7.28345e-39 3
0.169177 0.195228 0.900963 8.29761e-39 3
-0.0327007 0.410604 0.804522 1.23542e-38 3
-0.0477948 0.469306 0.839069 1.22627e-38 3
-0.0477891 0.482938 0.838969 1.33691e-38 3
0.0666611 0.166787 0.906171 5.80797e-39 3
0.0814458 0.166787 0.906171 6.82248e-39 3
0.0962306 0.166787 0.906171 5.53174e-39 3
0.00813318 0.196325 0.979797 5.43882e-39 3
0.0241192 0.196325 0.979797 5.71541e-39 3
0.0518763 0.181572 0.906171 5.80904e-39 3
0.0809778 0.180528 0.900963 6.17711e-39 3
0.0962306 0.181572 0.906171 5.90052e-39 3
0.0377461 0.199822 0.922162 6.82247e-39 3
-0.285469 0.306959 1.66774 4.79489e-39 3
-0.252878 0.300564 1.633 4.79489e-39 3
-0.279522 0.327208 1.633 4.6105e-39 3
0.882653 0.262964 1.56768 4.97857e-39 3
0.890422 0.257808 1.53694 5.16367e-39 3
0.882653 0.288542 1.56768 5.07076e-39 3
0.890422 0.282884 1.53694 5.34735e-39 3
0.377014 0.23479 1.39971 6.26895e-39 3
0.357843 0.244527 1.32854 6.3615e-39 3
0.379519 0.244527 1.32854 6.63809e-39 3
0.314824 0.208702 1.24419 5.992e-39 3
0.312345 0.227198 1.23439 7.19054e-39 3
0.309904 0.245406 1.22475 7.00687e-39 3
0.346111 0.257475 1.28498 6.08491e-39 3
0.367076 0.257475 1.28498 6.91468e-39 3
0.381783 0.253322 1.26425 6.17783e-39 3
0.213325 0.208702 1.24419 6.26931e-39 3
0.233625 0.208702 1.24419 6.73028e-39 3
0.253924 0.208702 1.24419 5.90089e-39 3
0.276418 0.210371 1.25414 6.45298e-39 3
0.294524 0.208702 1.24419 8.5724e-39 3
0.249957 0.225423 1.22475 6.54625e-39 3
0.274224 0.229002 1.24419 6.3615e-39 3
0.292205 0.227198 1.23439 7.83663e-39 3
0.269939 0.245406 1.22475 6.63845e-39 3
0.289922 0.245406 1.22475 5.90052e-39 3
0.0086754 0.17531 1.04512 5.53102e-39 3
0.00834173 0.184963 1.00492 5.71541e-39 3
0.0250589 0.187365 1.01797 5.8998e-39 3
0.0427789 0.192361 1.04512 6.08491e-39 3
0.0614699 0.197631 1.07375 5.53246e-39 3
-0.026305 0.181355 1.08116 6.17639e-39 3
-0.00837636 0.17531 1.04512 5.62249e-39 3
-0.096864 0.198994 1.08116 5.99271e-39 3
-0.0755757 0.18983 1.03137 5.25515e-39 3
-0.0583644 0.188589 1.02462 5.90087e-39 3
-0.0416469 0.188589 1.02462 6.08491e-39 3
-0.0247677 0.187365 1.01797 5.53102e-39 3
-0.00805419 0.184963 1.00492 5.43883e-39 3
-0.639229 0.248079 1.47894 3.31869e-39 3
-0.603709 0.243485 1.45155 4.14773e-39 3
-0.687489 0.272209 1.47894 3.41053e-39 3
-0.651075 0.267168 1.45155 3.68783e-39 3
-0.687489 0.296339 1.47894 4.05589e-39 3
-0.639237 0.285563 1.42516 3.96441e-39 3
-0.743611 0.268331 1.59967 3.04174e-39 3
-0.799086 0.277444 1.50738 2.94955e-39 3
-0.774492 0.277444 1.50738 2.67296e-39 3
-0.749898 0.277444 1.50738 3.31833e-39 3
-0.725304 0.277444 1.50738 3.50272e-39 3
-0.663891 0.168567 1.00492 3.50344e-39 3
-0.647495 0.168567 1.00492 3.41052e-39 3
-0.639295 0.170756 1.01797 2.85735e-39 3
-0.663891 0.184963 1.00492 3.04246e-39 3
-0.647495 0.184963 1.00492 2.58112e-39 3
-0.639295 0.187365 1.01797 3.41089e-39 3
1.00372 0.164852 1.08866 3.8715e-39 3
1.02149 0.164852 1.08866 3.59492e-39 3
1.00801 0.174149 1.0382 3.59384e-39 3
1.04572 0.194961 1.05924 4.3314e-39 3
0.985961 0.164852 1.08866 3.77823e-39 3
0.92947 0.17531 1.04512 4.33356e-39 3
0.934068 0.173003 1.03137 3.9637e-39 3
0.950895 0.173003 1.03137 3.8715e-39 3
0.967723 0.173003 1.03137 3.8715e-39 3
0.98455 0.173003 1.03137 4.23921e-39 3
0.905328 0.187365 1.01797 4.70162e-39 3
0.910117 0.184963 1.00492 4.33284e-39 3
0.926513 0.184963 1.00492 3.8715e-39 3
0.948993 0.186156 1.0114 3.50272e-39 3
0.965494 0.186156 1.0114 4.51579e-39 3
0.988373 0.187365 1.01797 3.31725e-39 3
0.90823 0.237387 1.56768 4.60978e-39 3
0.933808 0.237387 1.56768 3.87221e-39 3
0.922486 0.228256 1.50738 4.3332e-39 3
0.915498 0.257808 1.53694 5.53173e-39 3
0.915498 0.282884 1.53694 5.34735e-39 3
0.524566 0.237387 1.56768 5.43883e-39 3
0.50439 0.25285 1.50738 7.46713e-39 3
0.561371 0.268331 1.59967 7.65152e-39 3
0.528984 0.277444 1.50738 6.26859e-39 3
0.422484 0.22395 1.47894 5.99308e-39 3
0.407121 0.239058 1.42516 5.6243e-39 3
0.438343 0.243485 1.45155 7.00687e-39 3
0.462026 0.243485 1.45155 7.28345e-39 3
0.453626 0.262311 1.42516 5.53246e-39 3
0.485709 0.267168 1.45155 6.63737e-39 3
0.255956 0.189909 1.25414 5.80869e-39 3
0.276418 0.189909 1.25414 5.62322e-39 3
0.29688 0.189909 1.25414 6.08312e-39 3
0.00916415 0.167174 1.104 4.60907e-39 3
0.0283755 0.174549 1.1527 5.16224e-39 3
0.0486124 0.179838 1.18763 5.07076e-39 3
0.0283755 0.193356 1.1527 5.43882e-39 3
0.0486124 0.199215 1.18763 5.34735e-39 3
-0.354996 0.263763 1.74186 3.50344e-39 3
-0.354996 0.292183 1.74186 3.87222e-39 3
-0.326576 0.292183 1.74186 5.07004e-39 3
-0.504625 0.208234 1.37515 3.50199e-39 3
-0.559311 0.23479 1.39971 3.50236e-39 3
-0.500709 0.219137 1.3064 3.87042e-39 3
-0.574223 0.266203 1.32854 3.68747e-39 3
-0.732459 0.247278 1.633 3.22685e-39 3
-0.705816 0.247278 1.633 3.77967e-39 3
-0.785746 0.273921 1.633 3.31833e-39 3
0.426235 0.434783 0.678399 1.30932e-38 3
0.436875 0.445414 0.677734 1.3278e-38 3
0.436875 0.456472 0.677734 1.19872e-38 3
0.436879 0.467534 0.677741 1.35545e-38 3
1.1168 0.158066 1.16991 2.85627e-39 3
1.13589 0.158066 1.16991 2.76408e-39 3
1.15498 0.158066 1.16991 3.22434e-39 3
1.17407 0.158066 1.16991 3.31653e-39 3
1.10548 0.169562 1.11977 4.60727e-39 3
1.12375 0.169562 1.11977 4.51579e-39 3
1.17561 0.174549 1.1527 3.87042e-39 3
1.10792 0.185186 1.104 4.14701e-39 3
1.14202 0.187832 1.11977 4.2392e-39 3
1.04396 0.155742 1.1527 3.04066e-39 3
1.06277 0.155742 1.1527 3.13286e-39 3
1.08157 0.155742 1.1527 3.50272e-39 3
1.02515 0.174549 1.1527 3.68747e-39 3
1.05388 0.167174 1.104 3.50164e-39 3
1.0719 0.167174 1.104 3.59384e-39 3
1.02136 0.196242 1.16991 4.24136e-39 3
1.08991 0.185186 1.104 2.94847e-39 3
1.08621 0.168102 1.24419 3.50308e-39 3
1.07247 0.16293 1.2059 3.0421e-39 3
1.04926 0.185458 1.22475 4.05589e-39 3
1.05279 0.182605 1.2059 3.87186e-39 3
-0.383415 0.320602 1.74186 4.51795e-39 3
-0.354996 0.320602 1.74186 4.79454e-39 3
-0.383415 0.349022 1.74186 4.97893e-39 3
-0.354996 0.349022 1.74186 4.51795e-39 3
-0.383415 0.377441 1.74186 4.3332e-39 3
0.406015 0.203662 1.50738 3.96441e-39 3
0.430609 0.203662 1.50738 3.78002e-39 3
0.464128 0.207656 1.53694 4.33248e-39 3
0.498988 0.211809 1.56768 4.97785e-39 3
0.455202 0.228256 1.50738 5.16296e-39 3
0.479796 0.228256 1.50738 5.34735e-39 3
0.325965 0.19982 1.47894 4.60907e-39 3
0.350094 0.19982 1.47894 4.14701e-39 3
0.374224 0.19982 1.47894 4.79346e-39 3
0.395279 0.311484 2.3054 4.51723e-39 3
0.368503 0.359677 2.37527 5.25515e-39 3
0.368503 0.398431 2.37527 5.90052e-39 3
0.10684 0.252154 1.86628 4.33248e-39 3
0.134097 0.24629 1.82288 4.33212e-39 3
0.16774 0.252154 1.86628 4.24028e-39 3
0.198189 0.252154 1.86628 4.70126e-39 3
0.198189 0.282603 1.86628 4.51759e-39 3
-0.38846 0.207656 1.53694 3.22613e-39 3
-0.38846 0.232732 1.53694 2.85735e-39 3
-0.396229 0.262964 1.56768 4.60978e-39 3
0.491931 0.404159 0.744305 1.17103e-38 3
0.448045 0.433379 0.732124 1.33691e-38 3
0.478342 0.418098 0.706309 1.18947e-38 3
0.432317 0.441462 0.725773 1.30003e-38 3
0.420877 0.453736 0.726466 1.17096e-38 3
0.569437 0.425897 0.719483 1.22627e-38 3
0.501703 0.441422 0.70675 1.25393e-38 3
0.557353 0.449097 0.719039 1.29088e-38 3
1.20687 0.150187 1.26425 3.04066e-39 3
1.20912 0.145493 1.22475 2.76228e-39 3
1.2291 0.145493 1.22475 3.40873e-39 3
1.24908 0.165476 1.22475 2.85627e-39 3
-0.705101 0.212163 1.1527 3.1343e-39 3
-0.705101 0.23097 1.1527 3.59528e-39 3
-0.70709 0.237969 1.18763 3.41089e-39 3
-0.731951 0.246157 1.136 5.99236e-39 3
-0.713416 0.246157 1.136 4.51723e-39 3
-0.705101 0.249777 1.1527 4.241e-39 3
0.421997 0.198118 1.66774 3.59492e-39 3
0.439849 0.193991 1.633 3.41124e-39 3
0.466493 0.193991 1.633 3.31905e-39 3
-0.389484 0.245406 1.22475 3.78074e-39 3
-0.369502 0.245406 1.22475 4.5183e-39 3
-0.349519 0.245406 1.22475 4.70198e-39 3
-0.668337 0.237969 1.18763 4.05589e-39 3
-0.64896 0.237969 1.18763 3.9637e-39 3
-0.696537 0.253505 1.16991 3.59563e-39 3
-0.667487 0.249777 1.1527 4.51759e-39 3
-0.639278 0.246157 1.136 3.78002e-39 3
-0.620744 0.246157 1.136 4.60978e-39 3
-0.696169 0.272449 1.16929 3.68782e-39 3
-0.671121 0.270047 1.15898 4.05732e-39 3
-0.643122 0.266283 1.14283 4.42611e-39 3
1.43896 0.154475 1.50738 1.84212e-39 3
1.46355 0.154475 1.50738 2.85592e-39 3
1.42266 0.190032 1.59967 3.13394e-39 3
1.44876 0.190032 1.59967 3.50164e-39 3
-0.312679 0.306959 1.66774 4.60978e-39 3
-0.306165 0.327208 1.633 4.51687e-39 3
-0.332809 0.353851 1.633 4.97857e-39 3
-0.306165 0.353851 1.633 5.43882e-39 3
-0.304418 0.378324 1.62368 5.5303e-39 3
1.97862 0.251021 2.44949 3.77751e-39 3
1.93866 0.290986 2.44949 3.87043e-39 3
1.97862 0.290986 2.44949 3.40945e-39 3
1.51506 0.422773 4.12546 2.94954e-39 3
1.58237 0.422773 4.12546 3.31833e-39 3
1.51506 0.490083 4.12546 3.59491e-39 3
1.58237 0.490083 4.12546 3.9637e-39 3
0.408843 0.22313 2.17733 3.31941e-39 3
0.408843 0.258655 2.17733 3.59528e-39 3
0.444368 0.258655 2.17733 3.78039e-39 3
0.408843 0.294179 2.17733 5.53138e-39 3
-0.517465 0.229002 1.24419 3.59456e-39 3
-0.517465 0.249301 1.24419 4.05589e-39 3
-0.549344 0.265388 1.22475 4.88637e-39 3
-0.521218 0.261306 1.2059 4.79382e-39 3
-0.501543 0.261306 1.2059 4.70126e-39 3
1.55887 0.140704 1.633 2.85555e-39 1
1.58551 0.140704 1.633 2.48642e-39 1
1.53762 0.170908 1.66774 2.67188e-39 3
1.53223 0.167348 1.633 2.94955e-39 3
-0.386095 0.220634 1.633 3.22685e-39 3
-0.386095 0.247278 1.633 3.13465e-39 3
-0.3671 0.252539 1.66774 3.59599e-39 3
-0.386095 0.273921 1.633 4.14952e-39 3
-0.3671 0.279749 1.66774 4.05733e-39 3
1.99617 0.204661 2.37527 2.39458e-39 1
1.99617 0.243415 2.37527 2.85627e-39 3
1.95742 0.282169 2.37527 3.41053e-39 3
1.93746 0.27387 2.3054 3.22613e-39 3
-0.0676496 0.179838 1.18763 4.05732e-39 3
-0.0461738 0.172019 1.136 4.88637e-39 3
-0.0268607 0.167174 1.104 4.79345e-39 3
-0.00884827 0.167174 1.104 4.70018e-39 3
-0.084467 0.193356 1.1527 5.07148e-39 3
-0.0628855 0.185186 1.104 4.70269e-39 3
-0.0448731 0.185186 1.104 5.34734e-39 3
-0.13177 0.208702 1.24419 4.51687e-39 3
-0.108041 0.20228 1.2059 5.34735e-39 3
-0.15207 0.229002 1.24419 4.60978e-39 3
-0.17515 0.253322 1.26425 4.42539e-39 3
-0.147391 0.24163 1.2059 4.88637e-39 3
-0.167066 0.261306 1.2059 5.53246e-39 3
-0.171561 0.28854 1.23835 5.34806e-39 3
1.85195 0.114061 1.633 2.57969e-39 1
1.87859 0.114061 1.633 2.85735e-39 1
1.85195 0.140704 1.633 2.85627e-39 1
1.85922 0.139254 1.61616 2.94954e-39 1
1.62013 0.104284 1.49302 4.14521e-39 1
1.61375 0.102335 1.46512 3.77751e-39 1
1.66885 0.104284 1.49302 3.13286e-39 1
1.62249 0.172436 1.45155 3.31725e-39 1
1.64618 0.172436 1.45155 2.85627e-39 1
1.65756 0.111733 1.59967 3.13179e-39 1
1.64998 0.109498 1.56768 3.22326e-39 1
1.62676 0.106309 1.52201 3.68424e-39 1
1.65756 0.137833 1.59967 3.87043e-39 1
1.64998 0.135076 1.56768 2.57861e-39 1
1.67556 0.135076 1.56768 3.31545e-39 1
1.66778 0.132428 1.53694 3.59204e-39 1
1.69286 0.132428 1.53694 3.50092e-39 1
1.66778 0.157504 1.53694 3.22326e-39 1
1.6603 0.154475 1.50738 3.77751e-39 1
1.6849 0.154475 1.50738 3.40944e-39 1
-0.497165 0.229002 1.24419 3.13394e-39 3
-0.469414 0.225423 1.22475 4.14809e-39 3
-0.449432 0.225423 1.22475 4.05589e-39 3
-0.443302 0.232695 1.26425 3.31833e-39 3
-0.489397 0.245406 1.22475 4.05589e-39 3
-0.469414 0.245406 1.22475 4.60907e-39 3
-0.449432 0.245406 1.22475 4.14809e-39 3
-0.429449 0.245406 1.22475 4.14881e-39 3
-0.409467 0.245406 1.22475 3.78002e-39 3
-0.481868 0.261306 1.2059 5.53102e-39 3
1.61925 0.116488 1.66774 2.11691e-39 1
1.64646 0.116488 1.66774 2.94775e-39 1
1.6388 0.114061 1.633 3.59384e-39 1
1.66544 0.114061 1.633 2.7648e-39 1
1.64646 0.143698 1.66774 2.76228e-39 1
1.6388 0.140704 1.633 3.13286e-39 1
1.66544 0.140704 1.633 3.31797e-39 1
1.69209 0.167348 1.633 2.85735e-39 1
1.72067 0.130355 1.86628 3.03994e-39 1
1.77221 0.131926 1.88877 2.57897e-39 1
1.73052 0.158913 1.84432 2.85627e-39 1
-0.453218 0.215806 1.42516 3.13393e-39 3
-0.437928 0.219802 1.45155 3.22613e-39 3
-0.414245 0.219802 1.45155 3.41052e-39 3
-0.453218 0.239058 1.42516 3.59563e-39 3
-0.437928 0.243485 1.45155 3.87221e-39 3
-0.414245 0.243485 1.45155 4.241e-39 3
1.69022 0.130355 1.86628 2.57969e-39 1
1.65091 0.157065 1.82288 2.11871e-39 1
1.68065 0.157065 1.82288 1.93432e-39 1
1.1103 0.200376 1.08866 3.87042e-39 3
1.1103 0.218139 1.08866 4.23921e-39 3
1.1103 0.235901 1.08866 2.85735e-39 3
0.0506547 0.20617 0.884832 7.83734e-39 3
0.0641178 0.203086 0.871599 6.91539e-39 3
0.0782785 0.20293 0.870931 7.74515e-39 3
0.0929564 0.203958 0.875339 7.92954e-39 3
0.0363128 0.221183 0.887146 8.48271e-39 3
0.0495845 0.215945 0.866138 8.48271e-39 3
0.0630596 0.21372 0.857213 8.57491e-39 3
0.0768098 0.213066 0.85459 8.20613e-39 3
0.0901779 0.211716 0.849174 8.2994e-39 3
0.02199 0.237293 0.893302 9.03697e-39 3
0.0359238 0.233133 0.877641 9.49687e-39 3
0.0491826 0.228212 0.859117 8.94369e-39 3
0.062685 0.226354 0.852122 8.3898e-39 3
0.0763934 0.225779 0.849957 8.57491e-39 3
0.00725322 0.246366 0.873788 8.66711e-39 3
0.0215262 0.246555 0.874461 7.65403e-39 3
0.0352916 0.243097 0.862196 8.8515e-39 3
0.0486744 0.239726 0.85024 9.31247e-39 3
0.0621641 0.23826 0.84504 9.95713e-39 3
0.0722755 0.239849 0.804141 1.05103e-38 3
0.0867327 0.243604 0.816732 8.85078e-39 3
0.0992136 0.254761 0.809838 1.01422e-38 3
1.52818 0.304162 4.35465 2.76408e-39 3
1.59923 0.304162 4.35465 2.6726e-39 3
1.59923 0.375211 4.35465 2.85735e-39 3
1.95518 0.119887 2.23954 3.31546e-39 1
1.99172 0.119887 2.23954 3.04031e-39 1
1.95518 0.156426 2.23954 3.31653e-39 1
1.91864 0.192966 2.23954 2.57897e-39 1
2.01624 0.142239 2.65708 3.59347e-39 1
2.0596 0.142239 2.65708 3.59132e-39 1
2.0679 0.182497 2.61279 2.3013e-39 1
-0.437928 0.172436 1.45155 2.67295e-39 3
-0.414245 0.172436 1.45155 3.04174e-39 3
-0.485294 0.196119 1.45155 3.04101e-39 3
-0.461611 0.196119 1.45155 3.04174e-39 3
-0.437928 0.196119 1.45155 3.13393e-39 3
-0.414245 0.196119 1.45155 3.41052e-39 3
-0.13177 0.147803 1.24419 3.50272e-39 3
-0.11147 0.147803 1.24419 3.22685e-39 3
-0.13177 0.168102 1.24419 3.50272e-39 3
-0.11147 0.168102 1.24419 4.05661e-39 3
-0.133895 0.191441 1.26425 4.05589e-39 3
-0.11147 0.188402 1.24419 3.87222e-39 3
1.78157 0.0694561 1.86628 3.68424e-39 1
1.76988 0.0678409 1.82288 3.77572e-39 1
1.79962 0.0678409 1.82288 5.16116e-39 1
1.78157 0.0999057 1.86628 2.11619e-39 1
1.74953 0.0964607 1.80193 3.40693e-39 1
1.77893 0.0964607 1.80193 4.51508e-39 1
-0.137293 0.365695 0.886585 9.77453e-39 3
-0.13672 0.378575 0.882887 1.02344e-38 3
-0.151337 0.393532 0.884128 1.06032e-38 3
-0.491194 0.300742 0.956004 6.82284e-39 3
-0.475545 0.300709 0.9559 6.45441e-39 3
-0.459949 0.300709 0.9559 6.731e-39 3
-0.444353 0.300709 0.9559 7.28417e-39 3
-0.491194 0.31634 0.956004 6.91539e-39 3
-0.475545 0.316305 0.9559 5.80904e-39 3
-0.460153 0.316446 0.956324 6.54661e-39 3
-0.479738 0.362448 0.997026 7.83734e-39 3
-0.424456 0.37302 0.982033 1.005e-38 3
0.834715 0.201175 1.32854 4.70126e-39 3
0.856391 0.201175 1.32854 4.05589e-39 3
0.813039 0.222851 1.32854 5.34735e-39 3
0.813039 0.244527 1.32854 5.43954e-39 3
-0.108394 0.220197 0.699967 1.07887e-38 3
-0.158892 0.222376 0.672038 9.31355e-39 3
-0.146572 0.220337 0.665876 8.39159e-39 3
-0.140458 0.228051 0.689189 1.04206e-38 3
-0.119805 0.231599 0.699911 1.00511e-38 3
-0.108376 0.231581 0.699855 9.77453e-39 3
-0.169329 0.232615 0.669948 9.49687e-39 3
-0.157391 0.231136 0.665687 9.77453e-39 3
-0.146555 0.231175 0.6658 9.40575e-39 3
-0.140458 0.239296 0.689189 9.40647e-39 3
-0.119656 0.242717 0.699043 9.77453e-39 3
-0.106133 0.237969 0.685368 1.00511e-38 3
-0.172879 0.27097 0.683991 1.01433e-38 3
-0.156906 0.273734 0.663635 1.02355e-38 3
-0.108686 0.261903 0.634953 1.04188e-38 3
-0.148399 0.269134 0.627657 1.16174e-38 3
-0.387109 0.239223 1.104 3.68783e-39 3
-0.369097 0.239223 1.104 4.5183e-39 3
-0.351084 0.239223 1.104 4.24279e-39 3
1.78805 0.137833 1.59967 3.59384e-39 1
1.70975 0.163932 1.59967 2.94775e-39 1
1.76027 0.159063 1.55215 2.58004e-39 1
-0.482189 0.208234 1.37515 3.13393e-39 3
-0.459752 0.208234 1.37515 2.85735e-39 3
-0.479394 0.219137 1.3064 4.05517e-39 3
-0.458079 0.219137 1.3064 3.68711e-39 3
-0.459752 0.23067 1.37515 3.78002e-39 3
-0.436764 0.240452 1.3064 3.96441e-39 3
-0.422491 0.244527 1.32854 4.14952e-39 3
-0.400815 0.244527 1.32854 4.42539e-39 3
1.87144 0.03449 1.65018 1.84356e-39 1
1.85195 0.0607741 1.633 2.58113e-39 1
1.85195 0.0874175 1.633 2.3953e-39 1
2.00455 0.0489038 2.33981 3.0378e-39 1
2.01269 0.0481846 2.3054 4.42253e-39 1
2.0503 0.0481846 2.3054 2.67153e-39 1
2.0503 0.0857988 2.3054 3.2247e-39 1
-0.199124 0.102392 4.89898 3.40908e-39 1
-0.119194 0.102392 4.89898 2.94775e-39 1
-0.199124 0.182322 4.89898 2.85483e-39 1
-0.119194 0.182322 4.89898 2.94667e-39 1
1.28364 0.308861 1.23881 4.70018e-39 3
1.21072 0.320471 1.20643 4.51759e-39 3
1.26882 0.330478 1.2441 4.88565e-39 3
1.64449 0.0068456 1.49302 3.3169e-39 1
1.66885 0.0068456 1.49302 2.76372e-39 1
1.64449 0.0312053 1.49302 3.22398e-39 1
1.66885 0.0312053 1.49302 2.57933e-39 1
1.64449 0.0555649 1.49302 3.68496e-39 1
1.66885 0.0555649 1.49302 2.48714e-39 1
1.62013 0.0799246 1.49302 5.15865e-39 1
1.61375 0.0784306 1.46512 3.50057e-39 1
1.66885 0.0799246 1.49302 3.04031e-39 1
1.70114 0.00718788 1.56768 3.68532e-39 1
1.70114 0.0327655 1.56768 4.33033e-39 1
1.70114 0.0583432 1.56768 5.06717e-39 1
1.6244 0.00718788 1.56768 4.32961e-39 1
1.64998 0.00718788 1.56768 4.514e-39 1
1.67556 0.00718788 1.56768 3.40873e-39 1
1.6244 0.0327655 1.56768 4.4218e-39 1
1.64998 0.0327655 1.56768 4.79058e-39 1
1.67556 0.0327655 1.56768 5.62034e-39 1
1.64998 0.0583432 1.56768 4.69767e-39 1
1.67556 0.0583432 1.56768 5.15937e-39 1
1.65756 0.0856335 1.59967 4.51472e-39 1
1.64998 0.0839208 1.56768 5.15937e-39 1
1.62676 0.0814765 1.52201 5.61963e-39 1
1.66544 0.00748738 1.633 3.03959e-39 1
1.66544 0.0341307 1.633 3.77787e-39 1
1.67464 0.0601476 1.61616 4.97498e-39 1
1.87292 0.008557 1.86628 3.03995e-39 1
1.83385 0.0394765 1.88877 4.4218e-39 1
1.86466 0.0394765 1.88877 4.51508e-39 1
1.85088 0.0385477 1.84432 4.14701e-39 1
1.80833 0.0670611 1.80193 3.50236e-39 1
2.80847 0.0156258 3.40799 3.77572e-39 1
2.86407 0.0156258 3.40799 2.85341e-39 1
2.80847 0.0712294 3.40799 3.40658e-39 1
2.86407 0.0712294 3.40799 2.20732e-39 1
2.02527 0.0119798 2.61279 3.68675e-39 1
2.01624 0.0555348 2.65708 3.68531e-39 1
2.0596 0.0555348 2.65708 3.77716e-39 1
2.01624 0.0988867 2.65708 4.14629e-39 1
2.0596 0.0988867 2.65708 3.86863e-39 1
2.04212 0.0126103 2.75031 3.31545e-39 1
2.05101 0.0123929 2.70289 2.57897e-39 1
2.00691 0.0564923 2.70289 3.77751e-39 1
1.99724 0.0126103 2.75031 2.76157e-39 1
1.98723 0.0585099 2.79942 2.57861e-39 1
1.96281 0.0564923 2.70289 3.50057e-39 1
0.189088 0.225651 0.59406 1.1433e-38 3
0.19944 0.226399 0.596031 1.10649e-38 3
0.195168 0.231066 0.583263 1.21713e-38 3
0.16609 0.239818 0.581411 1.27237e-38 3
0.151053 0.206322 0.500203 1.16174e-38 3
0.171846 0.222691 0.539889 1.16174e-38 3
0.189828 0.234 0.567305 1.24482e-38 3
0.19887 0.233748 0.566694 1.19861e-38 3
0.15624 0.248726 0.580061 1.34613e-38 3
0.119896 0.261487 0.587469 1.34613e-38 3
0.10269 0.261268 0.546884 1.28159e-38 3
0.199704 0.259789 0.543789 1.4291e-38 3
0.19674 0.253416 0.512931 1.34606e-38 3
0.114133 0.272736 0.517835 1.42907e-38 3
0.0233032 0.234828 0.569312 1.25393e-38 3
0.032369 0.233222 0.565419 1.07876e-38 3
0.0413081 0.231618 0.56153 1.0511e-38 3
0.0903477 0.268712 0.582356 1.25404e-38 3
0.00444851 0.264768 0.535908 1.18018e-38 3
0.0832229 0.265026 0.536431 1.30014e-38 3
0.00446071 0.274261 0.537377 1.17096e-38 3
0.0832229 0.273778 0.536431 1.25393e-38 3
0.0975261 0.282026 0.519383 1.34606e-38 3
0.070079 0.282342 0.504797 1.2723e-38 3
-0.160625 0.209357 0.788138 6.63844e-39 3
-0.142989 0.20259 0.762662 5.71577e-39 3
-0.106549 0.204296 0.769085 7.46856e-39 3
-0.171805 0.220067 0.780514 8.02174e-39 3
-0.151226 0.209214 0.742023 8.11393e-39 3
-0.135601 0.203923 0.723255 9.77273e-39 3
-0.125336 0.206452 0.732227 9.12808e-39 3
-0.114555 0.208574 0.739752 9.40467e-39 3
-0.105983 0.215692 0.764999 8.7593e-39 3
-0.184834 0.233172 0.781757 9.49794e-39 3
-0.167627 0.22714 0.761533 9.03697e-39 3
-0.149367 0.218599 0.732899 9.59014e-39 3
-0.134061 0.213273 0.71504 9.86565e-39 3
-0.120676 0.210278 0.704999 9.95784e-39 3
-0.108714 0.209393 0.702034 1.01422e-38 3
-0.102435 0.220536 0.739392 9.77345e-39 3
-0.196503 0.244576 0.777463 9.03589e-39 3
-0.179406 0.238705 0.758799 9.31355e-39 3
-0.162188 0.231792 0.736824 9.12916e-39 3
-0.147103 0.227062 0.72179 9.40646e-39 3
-0.134015 0.224862 0.714794 1.00511e-38 3
-0.120676 0.22178 0.704999 1.01433e-38 3
-0.1971 0.242394 0.732535 9.03517e-39 3
-0.17805 0.233102 0.704453 8.66711e-39 3
-0.131617 0.232292 0.702006 1.04199e-38 3
-0.189283 0.24426 0.703485 9.49686e-39 3
-0.131617 0.243746 0.702006 1.00511e-38 3
-0.184773 0.265759 0.731054 1.01433e-38 3
-0.104998 0.275515 0.75789 1.05121e-38 3
-0.234259 0.232248 0.586248 9.31247e-39 3
-0.226534 0.253437 0.591049 9.95785e-39 3
-0.237433 0.254104 0.570882 1.01426e-38 3
-0.269657 0.258591 0.56042 1.00493e-38 3
-0.234284 0.259924 0.563309 9.77345e-39 3
-0.26685 0.264948 0.554587 9.86565e-39 3
-0.281885 0.280003 0.548628 1.06954e-38 3
-0.270044 0.285896 0.54282 1.06032e-38 3
-0.282342 0.289205 0.532605 9.68126e-39 3
-0.223013 0.299911 0.536209 1.01422e-38 3
-0.315301 0.212435 0.477266 7.55932e-39 3
-0.306469 0.211712 0.475643 8.38908e-39 3
-0.326735 0.222707 0.482653 8.29437e-39 3
-0.315241 0.220179 0.477174 1.06003e-38 3
-0.305914 0.219075 0.474782 8.1125e-39 3
-0.325665 0.224418 0.469751 1.08769e-38 3
-0.320104 0.225903 0.472858 1.29963e-38 3
-0.312044 0.225653 0.472335 1.26286e-38 3
-0.304245 0.225584 0.472191 1.1523e-38 3
-0.325059 0.231651 0.468877 1.08773e-38 3
-0.319229 0.232979 0.471565 1.18911e-38 3
-0.311107 0.232658 0.470917 1.12464e-38 3
-0.303331 0.232588 0.470773 9.58798e-39 3
-0.329174 0.236758 0.463895 7.65188e-39 3
-0.322548 0.237452 0.465254 8.29689e-39 3
-0.316558 0.238659 0.46762 7.74371e-39 3
-0.308603 0.238408 0.467127 9.03481e-39 3
-0.300432 0.237972 0.466274 9.95713e-39 3
-0.327679 0.243217 0.461787 7.09907e-39 3
-0.319663 0.242851 0.461093 6.36078e-39 3
-0.311863 0.242635 0.460683 7.37529e-39 3
-0.302743 0.241357 0.458256 8.20541e-39 3
-0.327661 0.250738 0.461763 6.08563e-39 3
-0.319663 0.250374 0.461093 6.08491e-39 3
-0.31166 0.249989 0.460385 7.46748e-39 3
-0.301951 0.248183 0.457057 8.482e-39 3
0.506691 0.0149748 3.26599 3.04066e-39 1
0.559978 0.0149748 3.26599 2.57969e-39 1
0.506691 0.0682615 3.26599 2.67188e-39 1
0.559978 0.0682615 3.26599 2.57969e-39 1
-1.85802 0.0112311 2.44949 2.57969e-39 1
-1.81806 0.0112311 2.44949 1.93432e-39 1
-1.85802 0.0511961 2.44949 1.93432e-39 1
-1.81806 0.0511961 2.44949 2.67188e-39 1
1.09253 0.200376 1.08866 3.40945e-39 3
1.0182 0.206658 1.03137 4.4236e-39 3
1.06301 0.212243 1.05924 3.40945e-39 3
1.00498 0.220583 1.01797 4.05589e-39 3
1.06301 0.229525 1.05924 4.14809e-39 3
1.06626 0.247563 1.06248 5.53102e-39 3
0.910117 0.201359 1.00492 4.24065e-39 3
0.926513 0.201359 1.00492 4.33248e-39 3
0.942909 0.201359 1.00492 4.51687e-39 3
0.959305 0.201359 1.00492 4.4236e-39 3
0.988373 0.203974 1.01797 4.05482e-39 3
0.915989 0.219159 1.0114 3.96406e-39 3
0.950895 0.223485 1.03137 4.42539e-39 3
0.975701 0.217755 1.00492 4.51687e-39 3
0.997213 0.235358 1.0101 5.34663e-39 3
0.999486 0.252413 1.0124 4.42539e-39 3
0.978056 0.267587 1.00735 5.53174e-39 3
0.973799 0.29262 1.03784 6.82248e-39 3
1.65756 -0.0187651 1.59967 3.13179e-39 1
1.64998 -0.0183898 1.56768 2.67116e-39 1
1.67556 -0.0183898 1.56768 2.85555e-39 1
0.998085 0.218592 1.18763 4.14917e-39 3
0.973225 0.209088 1.136 4.61014e-39 3
0.963822 0.203199 1.104 5.34771e-39 3
-0.45026 0.327889 1.78145 4.33319e-39 3
-0.411835 0.320602 1.74186 4.6105e-39 3
-0.45026 0.356954 1.78145 5.07148e-39 3
-0.421195 0.356954 1.78145 4.6105e-39 3
-1.96204 -0.649098 2.70289 2.39493e-39 1
-1.96204 -0.604998 2.70289 2.76371e-39 1
-1.95158 -0.615612 2.75031 2.21054e-39 1
-0.681362 0.206658 1.03137 3.50344e-39 3
-0.664535 0.206658 1.03137 2.94991e-39 3
-0.683691 0.218139 1.08866 3.1343e-39 3
-1.26474 -0.548223 1.70399 3.86971e-39 1
-1.25053 -0.554247 1.72272 2.02579e-39 1
-1.26474 -0.520421 1.70399 3.31581e-39 1
-1.25053 -0.52614 1.72272 2.30166e-39 1
-1.38036 -0.573142 1.78145 2.11871e-39 1
-1.30674 -0.554247 1.72272 3.04066e-39 1
-1.38036 -0.544076 1.78145 2.9481e-39 1
-1.30674 -0.52614 1.72272 2.76371e-39 1
-1.78168 -1.16227 2.56996 3.03994e-39 1
-1.78168 -1.12034 2.56996 2.67116e-39 1
-1.73975 -1.12034 2.56996 1.9336e-39 1
