# .PCD v0.7
VERSION 0.7
FIELDS x y z rgb label
SIZE 4 4 4 4 4
TYPE F F F U U
COUNT 1 1 1 1 1
WIDTH 1045
HEIGHT 1
VIEWPOINT 0 0 0 1 0 0 0
POINTS 1045
DATA ascii
0.738426 0.346766 0.949081 5328981 3
0.733332 0.337256 0.923054 4868941 3
0.722843 0.362349 0.949081 5263442 3
0.703266 0.375797 0.943721 6843501 3
0.722843 0.377932 0.949081 6579559 3
0.700984 0.398810 0.961852 6515049 3
0.707260 0.393515 0.949081 4541005 3
0.453907 0.171083 0.490279 4801862 3
0.433377 0.180642 0.494408 6513766 3
0.440545 0.180253 0.493344 5065809 3
0.448081 0.180027 0.492724 4539465 3
0.428799 0.190331 0.498524 5197136 3
0.432513 0.188383 0.493422 4934477 3
0.159326 0.206638 0.592170 7237230 3
0.190483 0.208819 0.598420 8749956 3
0.199546 0.208024 0.596141 8224125 3
0.149490 0.203004 0.555613 8223866 3
0.167650 0.214571 0.587271 9144198 3
0.181090 0.219167 0.599851 8815233 3
0.189758 0.217812 0.596141 8289659 3
0.189177 0.206493 0.565162 8947848 3
0.106585 0.200085 0.524072 10197917 3
0.147000 0.208594 0.546359 8881542 3
0.167056 0.223419 0.585191 8815235 3
0.190483 0.228470 0.598420 9013382 3
0.187652 0.214033 0.560607 10000536 3
0.190030 0.206611 0.541166 9803670 3
0.105244 0.206064 0.517479 8948107 3
0.112140 0.203164 0.510197 7566454 3
0.120886 0.203787 0.511760 8026746 3
0.129633 0.204330 0.513125 9079434 3
0.144033 0.213174 0.535333 8815751 3
0.155224 0.216523 0.543745 9802130 3
0.164152 0.216523 0.543745 9341579 3
0.173080 0.216523 0.543745 9737105 3
0.181145 0.215497 0.541166 9539985 3
0.187845 0.213019 0.534944 9737877 3
0.130623 0.214379 0.517041 9145229 3
0.140958 0.217224 0.523903 8618885 3
0.173080 0.225451 0.543745 8355198 3
0.052437 0.206887 0.592882 7763576 3
0.060352 0.200830 0.575526 8224127 3
0.052704 0.217725 0.595902 8420991 3
0.060496 0.210781 0.576899 8749956 3
0.068295 0.205742 0.563107 8486784 3
0.075903 0.201397 0.551214 8816260 3
0.060642 0.220787 0.578297 8355711 3
0.067160 0.211414 0.553747 9211022 3
0.074683 0.207065 0.542355 9539983 3
0.083224 0.206164 0.539995 9408397 3
0.091229 0.204235 0.534944 8816262 3
0.099500 0.203188 0.532201 9342606 3
0.060642 0.230282 0.578297 9605778 3
0.067160 0.220506 0.553747 8947850 3
0.074683 0.215970 0.542355 8420991 3
0.082446 0.213019 0.534944 8158332 3
0.090838 0.212104 0.532648 8355711 3
0.099018 0.210900 0.529624 8948361 3
0.082446 0.221802 0.534944 9210507 3
0.090416 0.219824 0.530173 8289916 3
0.098454 0.218346 0.526608 9211531 3
-0.488124 0.232533 0.666376 2434854 3
-0.481821 0.234793 0.672853 3553853 3
-0.488969 0.243868 0.698859 3355702 3
-0.404493 0.234795 0.672861 4342338 3
-0.489190 0.233536 0.639177 2434343 3
-0.475911 0.232178 0.635459 3552822 3
-0.462306 0.230596 0.631130 3093552 3
-0.449720 0.229461 0.628025 2763819 3
-0.461848 0.241179 0.660097 3092784 3
-0.467163 0.249817 0.683738 4144961 3
-0.482065 0.240476 0.629867 2236964 3
-0.470071 0.239634 0.627662 4342851 3
-0.454861 0.237078 0.620965 5132363 3
-0.439865 0.234519 0.614263 5067342 3
0.104562 0.185978 0.559280 9473681 3
0.113745 0.185978 0.559280 7631729 3
0.123536 0.186898 0.562046 8289405 3
0.138648 0.195181 0.586954 8224127 3
0.190713 0.199233 0.599141 8026746 3
0.199546 0.198236 0.596141 8355713 3
0.101176 0.188840 0.541166 7763063 3
0.109146 0.187270 0.536667 7960440 3
0.114853 0.182341 0.522540 7697268 3
0.123795 0.182877 0.524077 7302512 3
0.144578 0.199698 0.572281 7236717 3
0.107871 0.193792 0.530398 10526367 3
0.114591 0.190485 0.521348 9407888 3
0.122614 0.189655 0.519076 9538704 3
0.136039 0.196745 0.538482 9144198 3
0.191776 0.199542 0.546138 10461600 3
0.199863 0.198668 0.543745 10066842 3
0.199907 0.190215 0.520609 9475219 3
0.113833 0.197728 0.517900 8882057 3
0.121807 0.196872 0.515658 8553090 3
0.131129 0.198166 0.519047 9473933 3
0.189087 0.196403 0.514428 9343633 3
0.061274 0.194306 0.584322 8882057 3
0.069801 0.191381 0.575526 9539987 3
0.078308 0.189104 0.568680 9539987 3
0.086587 0.186821 0.561813 8816264 3
0.095380 0.185978 0.559280 8486786 3
0.068971 0.198441 0.568680 8355713 3
0.077363 0.196045 0.561813 8947848 3
0.085776 0.194210 0.556553 9934743 3
0.093347 0.191002 0.547360 10263195 3
0.083985 0.199102 0.544933 8882053 3
0.092290 0.197726 0.541166 8552577 3
0.099991 0.195411 0.534831 9473681 3
-0.540806 0.230038 0.691777 2697515 3
-0.543452 0.237588 0.680863 2236964 3
-0.532273 0.237588 0.680863 2566186 3
-0.521094 0.237588 0.680863 3355445 3
-0.503789 0.234733 0.672683 3092271 3
0.065503 0.197461 0.624653 6645352 3
0.073615 0.191871 0.606971 6842731 3
0.083805 0.192384 0.608594 7368818 3
0.093934 0.192665 0.609481 6974060 3
0.053125 0.199736 0.600653 7631990 3
0.060764 0.217178 0.687027 7500661 3
0.048148 0.222292 0.668483 7895162 3
0.036095 0.226509 0.649114 7039340 3
0.044390 0.215059 0.616300 7895162 3
0.014939 0.239725 0.656117 9276561 3
0.024406 0.227550 0.622795 8815751 3
0.034099 0.224051 0.613218 8618370 3
0.044059 0.223501 0.611713 9342093 3
0.024406 0.237776 0.622795 9145486 3
0.034099 0.234120 0.613218 9803157 3
0.044059 0.233545 0.611713 10263706 3
0.053531 0.231075 0.605242 9671571 3
0.024031 0.244188 0.613218 8421763 3
0.034015 0.243589 0.611713 8685189 3
0.043593 0.241012 0.605242 7895158 3
0.053270 0.239841 0.602302 8947848 3
0.484387 0.159631 0.532648 6118238 3
0.491984 0.159259 0.531406 4210241 3
0.471712 0.176734 0.559086 6512998 3
0.470112 0.172773 0.546553 7303025 3
0.462093 0.166645 0.527168 6184031 3
0.469456 0.166187 0.525720 5986650 3
0.482236 0.167629 0.530282 5854550 3
0.490320 0.167416 0.529609 5591378 3
0.499649 0.167629 0.530282 6447203 3
0.425961 0.185978 0.559280 5987165 3
0.435144 0.185978 0.559280 5920857 3
0.442160 0.185072 0.556553 7171435 3
0.450293 0.184659 0.555314 6381921 3
0.452831 0.182015 0.547360 6513509 3
0.456593 0.179955 0.541166 5920861 3
0.457806 0.176989 0.532247 6908267 3
0.460629 0.174745 0.525498 7500404 3
0.469456 0.174819 0.525720 6710375 3
0.482236 0.176336 0.530282 8223612 3
0.489186 0.175705 0.528385 6775652 3
0.419623 0.192257 0.550957 5197649 3
0.435144 0.195161 0.559280 4473926 3
0.441035 0.193715 0.555136 5461332 3
0.429908 0.185004 0.530173 3421236 3
0.435663 0.183760 0.526608 4276547 3
0.439336 0.181703 0.520713 3683897 3
0.441020 0.178918 0.512732 5789786 3
0.450159 0.179205 0.513553 4013375 3
0.460186 0.179828 0.515340 4605512 3
0.471556 0.180944 0.518538 5131343 3
0.424048 0.191069 0.522947 4342340 3
0.423241 0.186921 0.511593 4802891 3
0.428978 0.185767 0.508436 3815483 3
0.431581 0.183327 0.501757 3947582 3
0.416261 0.195989 0.513344 6447716 3
0.423241 0.195321 0.511593 6381923 3
0.423342 0.191565 0.501757 5789273 3
0.447595 0.202291 0.674993 7303284 3
0.458678 0.202291 0.674993 5921629 3
0.469760 0.202291 0.674993 5132113 3
0.489619 0.205984 0.687313 6053215 3
0.403809 0.207947 0.657826 5855579 3
0.464307 0.201394 0.637096 6645095 3
0.465068 0.249250 0.652849 6514534 3
0.195540 0.205281 0.684969 8354430 3
0.154271 0.203059 0.610646 8553090 3
0.168639 0.208426 0.626784 8553090 3
0.179741 0.209370 0.629624 9013128 3
0.181830 0.200284 0.602302 8684163 3
0.171531 0.209672 0.600865 7960440 3
0.181786 0.210123 0.602157 7630961 3
0.181786 0.229897 0.602157 11051684 3
-0.398806 0.237784 0.793423 5264467 3
-0.384552 0.237028 0.790901 4738123 3
-0.371567 0.237028 0.790901 5067088 3
-0.358926 0.237256 0.791662 4672332 3
-0.395919 0.248996 0.787680 4474437 3
-0.388476 0.252565 0.798972 3751228 3
-0.375358 0.252565 0.798972 3948861 3
-0.376671 0.233913 0.703430 4671816 3
-0.366143 0.234567 0.705398 4605769 3
-0.356777 0.236033 0.709807 4342597 3
-0.348280 0.238193 0.716301 4934988 3
-0.341815 0.241941 0.727572 4935502 3
-0.336116 0.246523 0.741351 4013632 3
-0.325847 0.247971 0.745707 4408390 3
-0.315676 0.249610 0.750636 4934988 3
-0.304257 0.250356 0.752877 4211265 3
-0.334653 0.248568 0.712328 4211265 3
-0.334213 0.257231 0.737155 3947328 3
-0.323733 0.258527 0.740870 4868684 3
-0.314751 0.261168 0.748438 6316128 3
-0.300310 0.259309 0.743111 6514018 3
-0.330307 0.266186 0.728538 6052447 3
-0.328980 0.275079 0.752877 8026237 3
-0.318732 0.276915 0.757902 4737096 3
-0.301233 0.272345 0.745395 3092782 3
-0.313335 0.284459 0.745069 6250335 3
0.301483 0.165721 0.585018 5920861 3
0.300247 0.174608 0.582621 4868684 3
0.313740 0.176821 0.590004 5855579 3
0.311163 0.184976 0.585159 7631736 3
0.328460 0.189410 0.599186 9342097 3
0.363164 0.173125 0.547667 5790043 3
0.303159 0.189579 0.570108 7828858 3
0.317940 0.192866 0.579994 7565943 3
0.325807 0.191892 0.577062 7434357 3
0.331175 0.189541 0.569993 9342354 3
0.325454 0.181148 0.544753 8290177 3
0.328154 0.177765 0.534580 6053215 3
0.338012 0.178335 0.536296 6645352 3
0.345196 0.177501 0.533788 7434868 3
0.349872 0.175451 0.527622 4539976 3
0.355823 0.174124 0.523631 4211011 3
0.363281 0.173580 0.521995 5000527 3
0.367220 0.171418 0.515492 5197908 3
0.385262 0.175788 0.528636 5197906 3
0.304410 0.193777 0.555314 5592407 3
0.312010 0.192839 0.552625 7237232 3
0.320373 0.192412 0.551403 7698040 3
0.327287 0.191162 0.547821 8027777 3
0.323950 0.184153 0.527732 7962241 3
0.331207 0.183373 0.525498 6975089 3
0.339693 0.183297 0.525279 7105905 3
0.344353 0.181210 0.519299 7237489 3
0.347193 0.178290 0.510931 7171696 3
0.352700 0.176845 0.506791 5066320 3
0.359425 0.176063 0.504550 2895151 3
0.364557 0.174554 0.500224 5197906 3
0.389031 0.182168 0.522046 5132113 3
0.302659 0.190326 0.520914 7698810 3
0.311857 0.190721 0.521995 6976116 3
0.318969 0.189853 0.519618 7897218 3
0.326753 0.189419 0.518431 7633276 3
0.333955 0.188679 0.516406 7106675 3
0.331624 0.182723 0.500105 6974319 3
0.356553 0.182874 0.500519 7237743 3
0.394250 0.193298 0.529049 7369075 3
0.312257 0.194210 0.508684 7633277 3
0.321043 0.194473 0.509372 7304312 3
0.327737 0.193487 0.506791 7501693 3
0.399559 0.192013 0.502930 6447716 3
0.278687 0.163616 0.577589 6184544 3
0.286257 0.162530 0.573752 5658200 3
0.276773 0.171910 0.573621 8224127 3
0.286191 0.171910 0.573621 7697781 3
0.269411 0.189396 0.599141 8684424 3
0.277817 0.188425 0.596068 8618631 3
0.275638 0.180585 0.571268 10000538 3
0.283080 0.179358 0.567386 8684678 3
0.298397 0.183039 0.579030 6842474 3
0.211596 0.191427 0.575665 8487299 3
0.212677 0.184178 0.553864 8421763 3
0.222953 0.185160 0.556818 8618885 3
0.242835 0.193728 0.582583 8026748 3
0.256990 0.197250 0.593176 6973806 3
0.266729 0.197250 0.593176 6776427 3
0.275039 0.196230 0.590110 5855836 3
0.277479 0.191234 0.575086 7434611 3
0.281043 0.187316 0.563304 8487299 3
0.292470 0.188721 0.567528 9144716 3
0.202678 0.192412 0.551403 8487810 3
0.210714 0.191487 0.548752 8685189 3
0.220303 0.191992 0.550198 9014154 3
0.230959 0.193351 0.554091 8092798 3
0.244182 0.196673 0.563613 8553349 3
0.255132 0.197990 0.567386 9869211 3
0.264448 0.197990 0.567386 8289666 3
0.265298 0.191867 0.549839 7960701 3
0.272955 0.190908 0.547092 7434100 3
0.285233 0.193140 0.553487 7565686 3
0.295292 0.193777 0.555314 7565684 3
0.204244 0.186372 0.510093 8553603 3
0.210739 0.184724 0.505582 9343119 3
0.217671 0.183570 0.502422 9211279 3
0.225877 0.183535 0.502325 7961212 3
0.237318 0.186037 0.509175 8947596 3
0.251026 0.190087 0.520261 8618374 3
0.256653 0.187952 0.514416 9013132 3
0.261390 0.185323 0.507220 8814983 3
0.268952 0.184796 0.505779 8618372 3
0.282380 0.188212 0.515126 8487299 3
0.292163 0.189069 0.517472 7698040 3
0.241934 0.191435 0.501417 8092287 3
0.250417 0.191627 0.501918 8223616 3
0.259496 0.192248 0.503545 9407120 3
0.295267 0.194022 0.508192 8421763 3
0.299863 0.191627 0.501918 7304311 3
0.289197 0.196539 0.693809 6908013 3
0.285735 0.186827 0.659525 5658459 3
0.282284 0.177831 0.627768 6184801 3
0.284824 0.173110 0.611102 6513255 3
0.274906 0.197655 0.659525 6974319 3
0.271977 0.188138 0.627768 6645354 3
0.274275 0.182801 0.609958 5263699 3
0.280567 0.180406 0.601968 4934223 3
0.260289 0.197399 0.624457 7697783 3
0.262218 0.191325 0.605242 7236978 3
0.104321 0.173283 0.611713 6447203 3
0.160246 0.192170 0.678388 7105646 3
0.114673 0.183821 0.613362 5394515 3
0.125266 0.184589 0.615926 5394515 3
0.136047 0.185500 0.618966 4934477 3
0.154371 0.195855 0.653518 7303282 3
0.160340 0.190207 0.634672 7763063 3
0.177985 0.198253 0.661520 6841961 3
0.104347 0.193418 0.611863 7105133 3
0.114814 0.194128 0.614111 7894649 3
0.125297 0.194751 0.616080 9342347 3
0.136961 0.196978 0.623124 7631475 3
0.147375 0.197222 0.623898 6184544 3
0.157150 0.196636 0.622042 7960953 3
0.165194 0.194087 0.613979 8224127 3
0.173613 0.192247 0.608161 7960955 3
0.181830 0.190395 0.602302 8486786 3
-0.216425 0.224757 0.793423 5855575 3
-0.202751 0.224042 0.790901 5131854 3
-0.224098 0.232235 0.774909 6381921 3
-0.209392 0.230057 0.767639 6842470 3
-0.233719 0.241750 0.764760 6447973 3
-0.207034 0.226307 0.715905 7039853 3
-0.291895 0.250356 0.752877 4276545 3
-0.275908 0.247108 0.743111 5460819 3
-0.262131 0.245632 0.738672 5395028 3
-0.245273 0.240984 0.724695 5921372 3
-0.231328 0.238871 0.718341 5658459 3
-0.290174 0.261168 0.748438 5723989 3
-0.275908 0.259309 0.743111 6645091 3
-0.257171 0.252883 0.724695 5921372 3
-0.290174 0.273457 0.748438 4276797 3
-0.283541 0.267869 0.701616 6448223 3
-0.442422 0.202935 0.716388 2763568 3
-0.437625 0.206217 0.727975 1447707 3
-0.421151 0.204026 0.720242 2368550 3
-0.401600 0.200176 0.706649 5855064 3
-0.483872 0.217467 0.725631 3419955 3
-0.467217 0.215282 0.718341 2498853 3
-0.447036 0.211318 0.705113 3420727 3
-0.441320 0.214162 0.714604 2566958 3
-0.433824 0.216274 0.721652 3685435 3
-0.421975 0.216274 0.721652 4013375 3
-0.413915 0.218273 0.728319 5920857 3
-0.438573 0.238156 0.794665 5131593 3
-0.423780 0.237179 0.791405 5131852 3
-0.414713 0.239447 0.798972 4803402 3
-0.495350 0.229179 0.724993 6052958 3
-0.483169 0.229048 0.724577 5065034 3
-0.467217 0.227077 0.718341 5000009 3
-0.455554 0.227142 0.718548 4539717 3
-0.445545 0.228058 0.721445 3290679 3
-0.431834 0.227077 0.718341 4211011 3
-0.421492 0.227862 0.720826 3815996 3
-0.413342 0.229912 0.727311 4868169 3
-0.403732 0.231248 0.731535 4933962 3
-0.417451 0.246437 0.779586 5658198 3
-0.408461 0.248758 0.786927 4276804 3
-0.497041 0.236229 0.710395 3092532 3
-0.492503 0.239698 0.720826 5921372 3
-0.483169 0.240945 0.724577 6118236 3
-0.467351 0.238940 0.718548 3815735 3
-0.457654 0.240042 0.721861 3618613 3
-0.447607 0.241014 0.724784 2829612 3
-0.433824 0.239972 0.721652 4737355 3
-0.426042 0.242285 0.728607 5066061 3
-0.414715 0.242657 0.729727 4868169 3
-0.484007 0.247193 0.708391 3947582 3
-0.470920 0.246432 0.706207 3947069 3
0.004923 0.206877 0.775240 7764085 3
0.017651 0.206877 0.775240 7106157 3
0.030371 0.206813 0.775001 6580327 3
0.042909 0.205922 0.771659 7369845 3
0.055837 0.206877 0.775240 6645606 3
0.004921 0.219538 0.775001 7369327 3
0.017559 0.218457 0.771184 6382434 3
0.030064 0.217321 0.767174 6645606 3
0.042284 0.215407 0.760418 7434868 3
0.055020 0.216392 0.763895 7237489 3
0.004947 0.233490 0.779097 6579298 3
0.017673 0.232624 0.776206 6579813 3
0.030212 0.231049 0.770950 6579300 3
0.042478 0.228934 0.763895 7368818 3
0.055592 0.231313 0.771831 5724252 3
0.004955 0.246667 0.780314 7631475 3
0.017739 0.246282 0.779097 8158334 3
0.030636 0.247129 0.781775 6710375 3
0.042953 0.244177 0.772437 6907756 3
0.053855 0.236365 0.747724 7434357 3
0.005038 0.263838 0.793423 6118238 3
0.017884 0.261192 0.785464 6250337 3
0.030475 0.258597 0.777662 6907754 3
0.041711 0.249432 0.750099 6973549 3
0.005038 0.276866 0.793423 8289920 3
0.017763 0.272228 0.780134 8026748 3
0.028329 0.252254 0.722894 7565684 3
0.004621 0.265912 0.727788 9144975 3
-0.007818 0.207199 0.776445 7369327 3
-0.021137 0.226046 0.797973 6513507 3
-0.007830 0.220292 0.777662 6842470 3
-0.060557 0.239601 0.799486 5789786 3
-0.034282 0.239447 0.798972 5263440 3
-0.021083 0.238536 0.795932 5855064 3
-0.007956 0.236807 0.790163 8026487 3
-0.034282 0.252565 0.798972 6972777 3
-0.021083 0.251604 0.795932 5327954 3
-0.007959 0.249858 0.790407 7959415 3
-0.046599 0.261192 0.785464 8092028 3
-0.033829 0.262178 0.788430 3486518 3
-0.021097 0.264845 0.796449 5459540 3
-0.008045 0.265683 0.798972 6775398 3
-0.032909 0.267640 0.766985 7697781 3
-0.021031 0.277059 0.793978 9342097 3
-0.008045 0.278802 0.798972 8749958 3
-0.030637 0.260884 0.714026 8948361 3
-0.020460 0.282220 0.772422 9276815 3
-0.007964 0.288971 0.790901 7763576 3
-0.184223 0.219943 0.824202 3815743 3
-0.178601 0.230137 0.862403 5460567 3
-0.167752 0.234771 0.879766 4605258 3
-0.152136 0.232977 0.873046 7105392 3
-0.135267 0.228692 0.856989 5263701 3
-0.120361 0.227115 0.851078 6513766 3
-0.108891 0.232461 0.871112 6513255 3
-0.192455 0.227218 0.802112 4473926 3
-0.181716 0.230299 0.812989 5197395 3
-0.172658 0.236168 0.833705 5987165 3
-0.161737 0.240279 0.848219 6052958 3
-0.148308 0.241089 0.851078 6579048 3
-0.133341 0.239307 0.844787 5921118 3
-0.118196 0.236752 0.835769 6908524 3
-0.103370 0.234252 0.826942 7763576 3
-0.179285 0.240388 0.802112 7171439 3
-0.173417 0.250954 0.837369 5987163 3
-0.162282 0.255063 0.851078 6381408 3
-0.148308 0.255063 0.851078 6315364 3
-0.133341 0.253177 0.844787 6447463 3
-0.118196 0.250475 0.835769 5395028 3
-0.103370 0.247829 0.826942 6184542 3
-0.186911 0.264343 0.836231 6776170 3
-0.203438 0.226263 0.847886 3750203 3
-0.262848 0.243637 0.860072 4736069 3
-0.234939 0.230131 0.812395 5197134 3
-0.295990 0.262096 0.874548 5723478 3
-0.279971 0.260552 0.869394 6118238 3
-0.248349 0.243540 0.812629 5723478 3
-0.289523 0.270415 0.855438 5658200 3
-0.272862 0.267848 0.847317 5723993 3
-0.460022 0.222432 0.833530 3618356 3
-0.451139 0.224826 0.842499 3815994 3
-0.441760 0.227115 0.851078 4999759 3
-0.452792 0.232407 0.820429 5000009 3
-0.445299 0.235569 0.831593 5987163 3
-0.432360 0.235959 0.832970 6908524 3
-0.424941 0.239486 0.845420 4605769 3
-0.412606 0.240386 0.848598 5329492 3
0.405393 0.165390 0.660407 3354934 3
0.412862 0.164049 0.655053 3223348 3
0.421852 0.163366 0.652324 2959921 3
0.431219 0.162858 0.650298 3092273 3
0.452951 0.166933 0.666566 2960944 3
0.408949 0.177779 0.666200 5723739 3
0.418108 0.177026 0.663378 6644841 3
0.427191 0.176279 0.660579 4868430 3
0.436426 0.175631 0.658150 5197908 3
0.449001 0.176326 0.660753 5197908 3
0.465530 0.178504 0.668915 5460567 3
0.410805 0.189574 0.669224 7171439 3
0.421793 0.189574 0.669224 7631736 3
0.435346 0.190698 0.673190 6711147 3
0.447595 0.191209 0.674993 5987425 3
0.458678 0.191209 0.674993 5724253 3
0.469887 0.191260 0.675176 5526614 3
0.489467 0.194638 0.687099 6250337 3
0.407324 0.198863 0.663553 6052958 3
0.418219 0.198863 0.663553 7171696 3
0.430717 0.199606 0.666032 7172466 3
0.278085 0.218788 0.873626 6908524 3
0.281818 0.210849 0.841927 7567737 3
0.206824 0.233652 0.875573 7368305 3
0.212605 0.224573 0.841552 6776681 3
0.223966 0.222137 0.832422 6842474 3
0.235210 0.219871 0.823933 7828856 3
0.247517 0.218792 0.819887 8552579 3
0.260894 0.218720 0.819620 6119008 3
0.270990 0.216040 0.809577 5988192 3
-0.334155 0.225391 0.899991 5196107 3
-0.381070 0.229772 0.811129 4672330 3
-0.367482 0.229604 0.810535 6185571 3
-0.375977 0.243738 0.860431 4802891 3
-0.363026 0.244531 0.863229 4407620 3
-0.354798 0.243340 0.811962 4737355 3
-0.350474 0.249759 0.833382 5065550 3
-0.349043 0.258845 0.863699 4933964 3
-0.335791 0.259564 0.866096 6315876 3
-0.326532 0.263568 0.879459 5066320 3
-0.310457 0.262188 0.874852 5197649 3
-0.367428 0.256183 0.810415 4145988 3
-0.356395 0.257827 0.815617 4342597 3
-0.340572 0.256000 0.809836 4277058 3
-0.338402 0.264703 0.837369 4539717 3
-0.330081 0.269129 0.851369 5592407 3
-0.317722 0.270507 0.855729 5789786 3
-0.303671 0.270507 0.855729 5789786 3
0.393419 0.163067 0.696815 2369328 3
0.350686 0.170421 0.680496 7564917 3
0.356824 0.168050 0.671027 7828603 3
0.371240 0.169602 0.677226 4210501 3
0.384205 0.170421 0.680496 4079174 3
0.391868 0.168908 0.674455 4473162 3
0.396852 0.166355 0.664260 4013121 3
0.324186 0.185613 0.695557 7040113 3
0.366485 0.178407 0.668551 10000285 3
0.381722 0.180420 0.676097 7565944 3
0.393563 0.180761 0.677372 7433847 3
0.398648 0.178064 0.667266 8092030 3
0.387784 0.194563 0.686835 7433845 3
0.397333 0.193720 0.683860 7960189 3
0.399817 0.189574 0.669224 8355202 3
0.346257 0.189302 0.631652 5130575 3
0.375241 0.199182 0.664619 6051677 3
0.398542 0.199923 0.667090 5591894 3
0.352743 0.197498 0.624770 6643814 3
0.005436 0.200325 0.856023 8553090 3
0.019741 0.202894 0.867004 7171950 3
0.034093 0.203593 0.869991 6975085 3
0.048762 0.205213 0.876913 5592918 3
0.005350 0.210993 0.842499 6908776 3
0.019524 0.214752 0.857508 8224638 3
0.033673 0.215194 0.859274 7567222 3
0.046948 0.211442 0.844292 6317670 3
0.076468 0.230719 0.864583 7895158 3
0.074068 0.237228 0.837447 6842472 3
0.074293 0.251742 0.839997 5789786 3
0.089922 0.256990 0.857508 6645093 3
-0.096893 0.208822 0.892335 5264467 3
-0.080999 0.205668 0.878855 5264467 3
-0.065041 0.200947 0.858684 5987165 3
-0.050767 0.200256 0.855729 5592407 3
-0.036856 0.201012 0.858962 8026748 3
-0.022706 0.200600 0.857198 8750471 3
-0.008617 0.200256 0.855729 8816264 3
-0.096512 0.222596 0.888832 6382180 3
-0.080574 0.218944 0.874247 5988444 3
-0.065041 0.215046 0.858684 7171437 3
-0.050767 0.214306 0.855729 5329235 3
-0.036717 0.214306 0.855729 7303023 3
-0.022582 0.213505 0.852532 7435122 3
-0.008506 0.211566 0.844787 8158845 3
-0.095871 0.235613 0.882924 7369329 3
-0.077426 0.224181 0.840082 6120030 3
-0.063136 0.222432 0.833530 6316128 3
-0.049915 0.224524 0.841367 6052958 3
-0.035425 0.220322 0.825621 7895160 3
-0.021232 0.213904 0.801571 6514020 3
-0.088854 0.231804 0.818300 7632501 3
-0.074638 0.229406 0.809836 7567222 3
-0.061360 0.229476 0.810084 7763576 3
-0.048483 0.231501 0.817232 7566197 3
-0.034895 0.230379 0.813270 7829367 3
-0.088854 0.245239 0.818300 6185055 3
-0.074116 0.241006 0.804173 4869709 3
-0.047858 0.241761 0.806694 6513509 3
-0.047858 0.255006 0.806694 7368818 3
0.610835 0.200445 0.921167 4802889 3
0.625960 0.200445 0.921167 4934224 3
0.613320 0.216446 0.924915 4473924 3
0.626889 0.215889 0.922534 3552571 3
0.634333 0.213299 0.911466 3946820 3
0.446540 0.172099 0.790901 5461597 3
0.459526 0.172099 0.790901 5526361 3
0.415407 0.167315 0.714968 4144708 3
0.441643 0.172994 0.739234 3223606 3
0.463865 0.176838 0.755662 4276294 3
0.337539 0.169530 0.779097 3356472 3
0.346879 0.167860 0.771421 3092279 3
0.395593 0.157030 0.721652 5197655 3
0.321351 0.180416 0.770950 6185055 3
0.329848 0.178168 0.761345 6053983 3
0.339568 0.176721 0.755161 5132632 3
0.350694 0.176082 0.752429 4210501 3
0.359804 0.174509 0.745707 4407620 3
0.369527 0.173326 0.740653 1775384 3
0.368319 0.167255 0.714713 3354934 3
0.375422 0.165217 0.706002 2105127 3
0.391649 0.167196 0.714457 2631730 3
0.306717 0.191838 0.766015 7565431 3
0.315718 0.189689 0.757434 7631990 3
0.322991 0.186705 0.745518 6777192 3
0.333728 0.185867 0.742173 5001299 3
0.345811 0.185812 0.741954 6908527 3
0.356410 0.184991 0.738672 7105905 3
0.365654 0.183543 0.732891 7236719 3
0.320910 0.197664 0.740715 6974317 3
0.315151 0.187028 0.700860 6711917 3
0.311544 0.212973 0.978740 4803920 3
0.327614 0.212973 0.978740 5461848 3
0.310342 0.228159 0.974964 6777708 3
0.327614 0.229043 0.978740 7436149 3
0.340767 0.227098 0.970433 6645352 3
0.349426 0.222467 0.950643 6842220 3
0.357900 0.218119 0.932063 6973807 3
0.320130 0.228314 0.911665 6382950 3
0.338434 0.230587 0.920740 7566457 3
0.212468 0.210343 0.966657 6316130 3
0.228340 0.210343 0.966657 6776681 3
0.244211 0.210343 0.966657 6053215 3
0.263334 0.212973 0.978740 5790043 3
0.279404 0.212973 0.978740 5066063 3
0.295474 0.212973 0.978740 4737098 3
0.212468 0.226215 0.966657 7763574 3
0.228340 0.226215 0.966657 6908263 3
0.244211 0.226215 0.966657 5658457 3
0.260083 0.226215 0.966657 7369075 3
0.275954 0.226215 0.966657 7566708 3
0.291826 0.226215 0.966657 6514020 3
0.207348 0.236253 0.943364 7105133 3
0.221014 0.234319 0.935643 7762293 3
0.235489 0.233440 0.932133 8487299 3
0.250794 0.233440 0.932133 7632247 3
0.268303 0.235374 0.939854 7434611 3
0.284794 0.236253 0.943364 7895162 3
0.103934 0.215668 0.991129 5854039 3
0.120207 0.215668 0.991129 6447203 3
0.129125 0.204046 0.937715 6184801 3
0.144521 0.204046 0.937715 7434357 3
0.158966 0.202831 0.932133 6578791 3
0.182984 0.212973 0.978740 5921372 3
0.196597 0.210343 0.966657 5394515 3
0.100981 0.225353 0.962973 7697270 3
0.114318 0.220580 0.942577 5921370 3
0.127741 0.217090 0.927665 5921629 3
0.145998 0.221684 0.947295 5921118 3
0.159222 0.218488 0.933638 7104880 3
0.178386 0.223287 0.954145 6316130 3
0.196597 0.226215 0.966657 6907752 3
0.100604 0.240263 0.959378 4539715 3
0.113446 0.234254 0.935383 5921629 3
0.126989 0.230953 0.922201 5922401 3
0.145726 0.236795 0.945529 5658459 3
0.159222 0.233817 0.933638 7236978 3
0.176871 0.236923 0.946040 5526360 3
0.192591 0.237153 0.946959 7237489 3
0.112636 0.247831 0.928706 7698040 3
0.126304 0.244768 0.917230 7830398 3
0.141455 0.244925 0.917820 7697529 3
0.156464 0.244830 0.917464 6710377 3
0.171029 0.244118 0.914793 7039599 3
0.111722 0.260943 0.921167 6711145 3
0.124754 0.256638 0.905969 6447973 3
0.051833 0.202831 0.932133 5395539 3
0.068775 0.207778 0.954868 6183515 3
0.084453 0.207778 0.954868 6117468 3
0.067465 0.219200 0.936681 6053215 3
0.084293 0.223033 0.953060 5789786 3
0.065173 0.226611 0.904863 5856090 3
0.082510 0.233632 0.932897 5658198 3
0.095027 0.241822 0.906192 8092537 3
0.095240 0.257278 0.908229 5131854 3
-0.138415 0.212973 0.978740 3224886 3
-0.117923 0.205275 0.943364 4276804 3
-0.157703 0.233814 0.999130 6646120 3
-0.137240 0.227098 0.970433 5396314 3
-0.115512 0.216250 0.924075 4737355 3
-0.153173 0.243032 0.970433 6053215 3
-0.133349 0.236142 0.942922 5198676 3
-0.112878 0.226145 0.903004 5526873 3
-0.272076 0.217042 0.997442 3815483 3
-0.296102 0.215175 0.919484 4867144 3
-0.270570 0.232128 0.991923 4276032 3
-0.294373 0.228928 0.914116 3682100 3
-0.293195 0.242960 0.910456 5656660 3
-0.287577 0.251108 0.940989 6971748 3
-0.269440 0.248629 0.931699 5788757 3
-0.249261 0.243854 0.913803 5394767 3
-0.231555 0.241040 0.903261 5131852 3
-0.291395 0.256326 0.904868 5656917 3
-0.396942 0.243397 1.118560 3880760 3
-0.378576 0.243397 1.118560 3551795 3
-0.341845 0.243397 1.118560 3552311 3
-0.323479 0.243397 1.118560 4604999 3
-0.321176 0.259899 1.110596 3551795 3
-0.396727 0.205275 0.943364 3684156 3
-0.385887 0.207778 0.954868 3552824 3
-0.305633 0.206519 0.949081 4210241 3
-0.384899 0.222884 0.952425 3091244 3
-0.352232 0.212605 0.908502 2959147 3
-0.336087 0.211831 0.905193 3090733 3
-0.321341 0.211908 0.905522 2893352 3
-0.309382 0.213919 0.914116 4078139 3
-0.394703 0.235048 0.938553 6183515 3
-0.370503 0.229601 0.916802 4670276 3
-0.349563 0.225798 0.901617 4340798 3
-0.320764 0.226369 0.903896 5986136 3
-0.308143 0.228012 0.910456 5328204 3
-0.303925 0.249054 0.994480 4734786 3
-0.388751 0.246681 0.924400 4933448 3
-0.368478 0.243317 0.911791 4538690 3
-0.350949 0.241556 0.905193 6578019 3
-0.336087 0.241556 0.905193 6446687 3
-0.321341 0.241644 0.905522 6249308 3
-0.308143 0.242960 0.910456 4934216 3
-0.365680 0.256326 0.904868 6052445 3
-0.349186 0.255130 0.900645 6315617 3
-0.337919 0.257816 0.910127 5986652 3
-0.321341 0.256512 0.905522 3815481 3
-0.308032 0.257816 0.910127 6381408 3
-0.432921 0.207778 0.954868 3355705 3
-0.412216 0.205275 0.943364 3947841 3
-0.432921 0.223456 0.954868 2566188 3
-0.428136 0.229290 0.979798 2960944 3
-0.406330 0.226108 0.966200 3618104 3
-0.441545 0.235374 0.939854 3093300 3
-0.427705 0.236253 0.943364 2829612 3
-0.415672 0.238234 0.951273 4276545 3
-0.455795 0.241986 0.906804 4868430 3
-0.453222 0.248745 0.932133 2960944 3
-0.441545 0.250806 0.939854 5725018 3
-0.427705 0.251742 0.943364 5461332 3
-0.412216 0.251742 0.943364 4671303 3
-0.053393 0.181060 0.899991 2695981 1
-0.068170 0.195837 0.899991 4605259 3
-0.052786 0.193611 0.889764 7697529 3
-0.038396 0.194718 0.894848 8289666 3
-0.023703 0.194718 0.894848 8816010 3
-0.009062 0.195837 0.899991 8092287 3
-0.165890 0.211439 1.050996 2237223 1
-0.183146 0.228695 1.050996 3618615 3
-0.165890 0.228695 1.050996 4408644 3
-0.182307 0.244824 1.046179 5855836 3
-0.174876 0.251323 1.003539 3816255 3
0.902418 0.150694 0.815617 1117717 1
0.915809 0.150694 0.815617 2368297 1
0.929201 0.150694 0.815617 723472 1
0.942592 0.150694 0.815617 1907235 1
0.902418 0.164086 0.815617 1183765 1
0.915809 0.164086 0.815617 1973539 1
0.938982 0.165813 0.824202 1973539 1
0.962648 0.167577 0.832970 525582 1
0.955984 0.164086 0.815617 1709858 1
0.969376 0.164086 0.815617 2565167 1
0.982767 0.164086 0.815617 1446684 1
0.902418 0.177477 0.815617 1710109 1
0.915809 0.177477 0.815617 1907233 1
0.938982 0.179345 0.824202 2499370 1
0.962648 0.181253 0.832970 2301993 1
0.955984 0.177477 0.815617 1380123 1
0.969376 0.177477 0.815617 1248539 1
0.915809 0.190869 0.815617 2170405 1
0.942793 0.193661 0.827547 2630956 1
0.962648 0.194930 0.832970 985363 1
0.976324 0.194930 0.832970 722193 1
0.990001 0.194930 0.832970 2038055 1
0.693151 0.129166 0.699100 1906459 1
0.658715 0.140645 0.699100 3222578 1
0.664263 0.139400 0.692913 3091760 1
0.666789 0.137574 0.683836 2894381 1
0.672146 0.136383 0.677915 2433060 1
0.683277 0.136383 0.677915 2432803 1
0.601323 0.152123 0.699100 3289398 3
0.652886 0.150777 0.692913 2959921 3
0.658436 0.149454 0.686835 3223348 3
0.661016 0.147513 0.677915 4144961 3
0.672146 0.147513 0.677915 2960174 3
0.683277 0.147513 0.677915 3288369 3
0.613321 0.163741 0.699693 3815742 3
0.646901 0.160668 0.686562 3486267 3
0.652534 0.159291 0.680678 4671051 3
0.655190 0.157246 0.671940 4342340 3
0.663529 0.156610 0.669224 4408133 3
0.674517 0.156610 0.669224 4736585 3
0.612801 0.175080 0.699100 4868171 3
0.635570 0.171925 0.686499 2828337 3
0.621426 0.165169 0.659525 3223095 3
0.612801 0.186559 0.699100 2894381 3
0.635503 0.186484 0.698819 3288886 3
0.615782 0.177492 0.665125 4012609 3
0.548331 0.160740 0.869991 2105378 1
0.508131 0.181060 0.899991 3751232 1
0.519762 0.175025 0.869991 3157561 1
0.534047 0.175025 0.869991 3355192 1
0.548331 0.175025 0.869991 1644827 1
0.550385 0.171220 0.851078 2434341 1
0.522437 0.185194 0.851078 4605259 3
0.548331 0.189309 0.869991 5921372 3
0.550385 0.185194 0.851078 4934475 3
0.526704 0.195563 0.835677 5328981 3
0.504383 0.180833 0.978740 2237223 1
0.520453 0.180833 0.978740 2960433 1
0.595711 0.170195 0.921167 1381651 1
0.504383 0.196903 0.978740 3487291 1
0.507759 0.192100 0.954868 2302504 1
0.510974 0.187526 0.932133 2171430 1
0.360362 0.166283 0.899991 1710366 1
0.352264 0.176991 0.879766 4802380 3
0.364660 0.176002 0.874852 4210500 3
0.330808 0.195837 0.899991 6644841 3
0.335932 0.190367 0.874852 5394775 3
0.337113 0.183202 0.841927 8289154 3
0.343548 0.179345 0.824202 3947839 3
0.323744 0.189213 0.808540 6381669 3
0.103934 0.183122 0.991129 3223348 1
0.120207 0.183122 0.991129 2039845 1
0.185300 0.183122 0.991129 2961198 1
0.199054 0.180833 0.978740 2894640 1
0.103934 0.199395 0.991129 7038572 3
0.120207 0.199395 0.991129 4802638 3
0.136480 0.199395 0.991129 5066063 3
0.152754 0.199395 0.991129 5262929 3
0.169027 0.199395 0.991129 4802380 3
0.182984 0.196903 0.978740 4342851 3
0.199054 0.196903 0.978740 4144707 3
0.021224 0.172222 0.932133 1973281 1
0.038840 0.183122 0.991129 3421238 1
0.087660 0.183122 0.991129 2564646 1
0.005849 0.185320 0.921167 3222578 3
0.020851 0.184236 0.915780 5526103 3
0.036312 0.186417 0.926618 4079168 3
0.052457 0.189786 0.943364 4736583 3
0.071387 0.199395 0.991129 5130827 3
0.086564 0.196903 0.978740 5459281 3
0.020610 0.196969 0.905193 7631990 3
0.035679 0.198114 0.910456 6776938 3
-0.085909 0.172222 0.932133 2895668 1
-0.070605 0.172222 0.932133 2828596 1
-0.085401 0.186417 0.926618 1909028 1
-0.068963 0.183165 0.910456 2434092 1
-0.039065 0.183165 0.910456 1643547 1
-0.024257 0.184236 0.915780 2433063 3
-0.009275 0.185320 0.921167 3617337 3
-0.098860 0.198114 0.910456 3224884 3
-0.083912 0.198114 0.910456 4277574 3
0.773711 0.129226 0.767639 2367267 1
0.786315 0.129226 0.767639 2302246 1
0.735817 0.132721 0.718341 2301217 1
0.747612 0.132721 0.718341 2302244 1
0.747612 0.144516 0.718341 2039072 1
0.766438 0.145854 0.724993 2104865 1
0.759406 0.156310 0.718341 1381142 1
0.600243 0.152382 0.905193 2105124 1
0.615105 0.152382 0.905193 1710367 1
0.637336 0.154164 0.915780 986903 1
0.603733 0.168216 0.910456 1513241 1
0.615105 0.167244 0.905193 1184023 1
0.629968 0.167244 0.905193 2236202 1
0.607263 0.184236 0.915780 3618617 1
0.618681 0.183165 0.910456 4276296 1
0.629968 0.182106 0.905193 3091257 1
0.679326 0.187526 0.932133 1644574 1
0.689417 0.196969 0.905193 3157813 3
0.364307 0.166848 0.991129 2038819 1
0.380581 0.166848 0.991129 1315611 1
0.348034 0.183122 0.991129 2302246 1
0.364307 0.183122 0.991129 3420472 1
0.355809 0.171203 0.926618 2631471 1
0.315487 0.199395 0.991129 4145221 3
0.331761 0.199395 0.991129 6316389 3
0.348034 0.199395 0.991129 2499882 3
0.336612 0.184236 0.915780 2959921 3
0.349603 0.183165 0.910456 3355194 3
0.321575 0.199273 0.915780 7434868 3
0.215124 0.164763 0.978740 2565676 1
0.231194 0.164763 0.978740 1841955 1
0.215124 0.180833 0.978740 2302506 1
0.231194 0.180833 0.978740 3157815 1
0.247264 0.180833 0.978740 1776673 1
0.263334 0.180833 0.978740 3486777 1
0.279404 0.180833 0.978740 2170660 1
0.299214 0.183122 0.991129 1709854 1
0.215124 0.196903 0.978740 3092020 3
0.231194 0.196903 0.978740 5131603 3
0.247264 0.196903 0.978740 2697774 3
0.263334 0.196903 0.978740 4671051 3
0.279404 0.196903 0.978740 4342086 3
0.295474 0.196903 0.978740 2894640 3
-0.273456 0.205953 1.223425 2038821 1
-0.253368 0.205953 1.223425 2565676 1
-0.293543 0.226041 1.223425 3419957 3
-0.273456 0.226041 1.223425 2368039 1
-0.253368 0.226041 1.223425 2499625 1
-0.233281 0.226041 1.223425 2631209 1
-0.213193 0.226041 1.223425 2499370 1
-0.289027 0.242342 1.204603 3551541 3
-0.269249 0.242342 1.204603 4802378 3
-0.249470 0.242342 1.204603 3683897 3
0.121748 0.152505 1.003836 2369326 1
0.138230 0.152505 1.003836 2829361 1
0.156721 0.154486 1.016873 2566188 1
0.173417 0.154486 1.016873 3157812 1
0.195183 0.158606 1.043989 2829101 1
0.105266 0.168987 1.003836 3223605 1
0.121748 0.168987 1.003836 2566189 1
0.138230 0.168987 1.003836 2632749 1
0.156721 0.171182 1.016873 2171428 1
0.173417 0.171182 1.016873 1842465 1
0.195183 0.175747 1.043989 2565927 1
0.139122 0.186666 1.010312 2105635 1
0.156721 0.187878 1.016873 3158066 1
0.173417 0.187878 1.016873 2697002 1
0.408426 0.100803 0.846478 1315357 1
0.422325 0.100803 0.846478 1841701 1
0.408426 0.156396 0.846478 2169891 1
0.489172 0.169379 0.841927 2631471 1
0.478577 0.195837 0.899991 5657947 3
0.497645 0.181253 0.832970 4736847 3
-0.264110 0.224182 1.030253 4209725 3
-0.247194 0.224182 1.030253 4867655 3
-0.238111 0.231807 1.065295 4341827 3
-0.200402 0.228695 1.050996 4012860 3
-0.259635 0.237013 1.012799 4867655 3
-0.245599 0.239541 1.023603 5459538 3
-0.236603 0.247719 1.058547 5262931 3
-0.205394 0.252078 1.077176 5394774 3
-0.297941 0.258013 1.030253 5130827 3
-0.281026 0.258013 1.030253 5723732 3
-0.259454 0.253465 1.012091 6052697 3
-0.241563 0.252136 1.006783 5197136 3
-0.238233 0.266926 1.065843 4210501 3
-0.226433 0.273818 1.093364 5000017 3
-0.204420 0.268485 1.072069 4013122 3
0.638379 0.209712 0.896137 4867918 3
0.648219 0.208147 0.889450 5263188 3
0.659311 0.207044 0.884737 5460567 3
0.666116 0.204672 0.874599 3420985 3
0.668812 0.201163 0.859608 3618366 3
0.622785 0.218944 0.874247 2761774 3
0.630104 0.216526 0.864594 4210754 3
0.637694 0.214306 0.855729 5987163 3
0.651523 0.214233 0.855438 6250337 3
0.659494 0.212278 0.847631 3815742 3
0.666420 0.210074 0.838832 2697261 3
0.670276 0.207011 0.826602 3157812 3
0.600887 0.220023 0.824504 5000270 3
0.634445 0.227193 0.851369 2960685 3
0.651304 0.228202 0.855151 2960687 3
0.653537 0.224152 0.839975 3223859 3
0.661763 0.222283 0.832970 2368550 3
0.669903 0.220461 0.826141 2368296 3
0.636611 0.241995 0.854276 5000270 3
0.651523 0.242324 0.855438 6645095 3
0.644519 0.259201 0.864888 6118751 3
0.610718 0.240313 0.801862 7039853 3
0.663826 0.281592 0.890796 6184544 3
0.648416 0.263446 0.833393 6710373 3
0.639423 0.254423 0.804850 6579298 3
0.658444 0.293816 0.883574 5000270 3
0.622872 0.298807 0.817821 5921631 3
0.622123 0.200673 0.751992 2302246 3
0.621609 0.226319 0.798939 4802891 3
0.611747 0.218126 0.770014 5066063 3
0.614235 0.214578 0.757490 5921118 3
0.618777 0.211875 0.747947 4802380 3
0.613294 0.205910 0.726893 5460308 3
0.614011 0.202216 0.713852 4473413 3
0.607317 0.233932 0.780569 7697781 3
0.617823 0.233061 0.777662 6776679 3
0.628627 0.232334 0.775240 8553092 3
0.624559 0.226250 0.754936 7302514 3
0.613294 0.217845 0.726893 6381412 3
0.602836 0.210043 0.700860 5723480 3
0.612163 0.238645 0.754936 6776679 3
0.278100 0.211342 0.791971 5922399 3
0.288981 0.209801 0.786196 7369078 3
0.296316 0.205928 0.771683 6973807 3
0.223004 0.221287 0.781174 6052445 3
0.241098 0.226230 0.798625 6907754 3
0.253519 0.225614 0.796449 7171439 3
0.267105 0.226046 0.797973 6975087 3
0.272909 0.220158 0.777187 7171696 3
0.281821 0.217191 0.766717 5592667 3
0.287033 0.211750 0.747508 4737358 3
0.294814 0.208572 0.736288 6447462 3
0.239820 0.225794 0.753414 7171439 3
0.259496 0.232334 0.775240 6579559 3
0.270308 0.230698 0.769780 7171696 3
0.279193 0.227638 0.759569 7500664 3
0.272365 0.212575 0.709309 6842734 3
0.641124 0.166283 0.899991 2565167 1
0.630258 0.177991 0.884737 2565165 1
0.626347 0.195837 0.899991 5789024 3
0.623216 0.190367 0.874852 4473162 3
0.634038 0.189309 0.869991 3947328 3
0.641198 0.187229 0.860431 2894640 3
0.655056 0.183202 0.841927 3749952 3
0.672269 0.198024 0.846193 3816256 3
0.671417 0.193769 0.828009 4145220 3
0.694067 0.131515 0.711811 1710107 1
0.617873 0.144516 0.718341 2170405 1
0.632569 0.145182 0.721652 2038821 1
0.638533 0.143856 0.715061 1972260 1
0.650273 0.143856 0.715061 1840672 1
0.659005 0.143202 0.711811 1511960 1
0.623943 0.154889 0.711811 3946816 3
0.635630 0.154889 0.711811 2630958 3
0.644389 0.154188 0.708590 3617083 3
0.653068 0.153494 0.705398 2564395 3
0.606996 0.171700 0.733707 3355445 3
0.600325 0.166509 0.711522 3289139 3
0.603016 0.164062 0.701068 2565927 3
0.632576 0.165776 0.708391 2499372 3
0.641486 0.165076 0.705398 3288888 3
0.652703 0.164984 0.705005 2894130 3
0.603213 0.182602 0.729134 3683899 3
0.603016 0.175573 0.701068 4210241 3
0.630106 0.176714 0.705625 4473160 3
0.646402 0.178012 0.710804 4538955 3
0.604044 0.191050 0.715930 3091760 3
0.608125 0.188669 0.707009 2697002 3
0.632083 0.188891 0.707839 2960176 3
-0.122345 0.180833 0.978740 3289911 1
-0.103683 0.176422 0.954868 2698542 1
-0.138415 0.196903 0.978740 5593181 1
-0.120834 0.194472 0.966657 2697772 1
-0.100615 0.186417 0.926618 2632749 1
-1.920581 -2.785294 3.479965 1578780 1
-1.977719 -2.728157 3.479965 525584 1
-1.920581 -2.728157 3.479965 1052437 1
0.211203 0.209665 0.699597 6709605 3
0.273288 0.204549 0.682527 6776940 3
0.203903 0.202495 0.640578 6974060 3
0.220244 0.207995 0.657977 8224127 3
0.239482 0.215588 0.681996 7960955 3
0.251648 0.216420 0.684628 7763576 3
0.256873 0.211467 0.668962 7566456 3
0.262646 0.207354 0.655949 8092541 3
0.213016 0.201722 0.606625 8684678 3
-1.186616 0.300782 2.525781 1709856 1
-1.145145 0.300782 2.525781 919572 1
-1.121767 0.305713 2.567187 1511707 1
-1.163918 0.347863 2.567187 1840672 1
-1.103674 0.342253 2.525781 1051156 1
-1.103674 0.383723 2.525781 1249816 1
