# .PCD v0.7
VERSION 0.7
FIELDS x y z rgb label
SIZE 4 4 4 4 4
TYPE F F F U U
COUNT 1 1 1 1 1
WIDTH 1289
HEIGHT 1
VIEWPOINT 0 0 0 1 0 0 0
POINTS 1289
DATA ascii
0.067112 0.202178 0.553351 8684676 3
0.075830 0.201202 0.550682 8816262 3
0.084648 0.200672 0.549229 9342606 3
0.075813 0.210198 0.550562 9342608 3
0.084370 0.209002 0.547428 9145227 3
0.093053 0.208319 0.545639 8289918 3
0.075830 0.219286 0.550682 8750471 3
-0.171064 0.206413 0.591525 3158325 3
-0.160586 0.205433 0.588716 4934734 3
-0.150146 0.204379 0.585695 6119008 3
-0.191476 0.217246 0.594591 5263442 3
-0.181281 0.216729 0.593176 6053217 3
-0.170655 0.215608 0.590110 5197908 3
-0.159762 0.213995 0.585695 5856606 3
-0.146809 0.209239 0.572678 5000529 3
-0.133499 0.203291 0.556397 5987422 3
-0.199251 0.224765 0.588716 6842472 3
-0.189584 0.224765 0.588716 7895162 3
-0.179918 0.224765 0.588716 6118751 3
-0.169379 0.223612 0.585695 5592407 3
-0.158576 0.221952 0.581347 5460821 3
-0.144334 0.214957 0.563026 7303284 3
-0.130102 0.207021 0.542239 6447975 3
-0.118212 0.201918 0.528872 7698040 3
-0.198471 0.222710 0.559280 6054237 3
-0.194108 0.228381 0.573521 7500400 3
-0.187734 0.232143 0.582970 8421506 3
-0.178576 0.232682 0.584322 5592407 3
-0.168982 0.232682 0.584322 6381923 3
-0.156211 0.228045 0.572678 7631990 3
-0.141285 0.219465 0.551132 8092800 3
-0.127454 0.211528 0.531200 8224384 3
-0.114836 0.204587 0.513768 8224384 3
-0.186471 0.228442 0.550957 7435120 3
-0.184691 0.237797 0.573521 7500402 3
-0.178162 0.241715 0.582970 7171437 3
-0.168982 0.242276 0.584322 7763574 3
-0.156988 0.238628 0.575526 8421504 3
-0.141617 0.229051 0.552427 7698040 3
-0.173791 0.245121 0.568666 7960953 3
-0.166047 0.247495 0.574173 8487297 3
-0.151400 0.239248 0.555041 8289918 3
-0.073006 0.194210 0.584033 6448225 3
-0.062515 0.191448 0.575729 4539717 3
-0.053332 0.192423 0.578661 6052958 3
-0.045093 0.197966 0.595331 5723993 3
-0.085825 0.189740 0.543745 9538704 3
-0.078799 0.194432 0.557191 7500402 3
-0.070765 0.197545 0.566110 7171435 3
-0.062231 0.199991 0.573122 7171437 3
-0.092192 0.193298 0.529049 7433582 3
-0.084693 0.196048 0.536574 7433582 3
-0.076731 0.198240 0.542573 8355452 3
-0.098874 0.197972 0.518538 7368303 3
-0.090774 0.198879 0.520914 7433580 3
-0.162581 0.198198 0.596028 4736585 3
-0.152063 0.197250 0.593176 5987163 3
-0.143071 0.198285 0.596289 5921883 3
-0.137406 0.199837 0.572678 6382180 3
-0.126820 0.197990 0.567386 5921372 3
-0.120926 0.197671 0.541017 6381923 3
-0.110546 0.195030 0.533788 7631988 3
-0.101093 0.193709 0.530173 6908006 3
-0.107838 0.198802 0.520713 6119262 3
0.091878 0.188448 0.596141 7040364 3
0.088818 0.191633 0.576286 8487297 3
0.085322 0.193180 0.553602 9803157 3
0.093379 0.191067 0.547547 10065816 3
0.093053 0.199360 0.545639 9013128 3
-0.071268 0.207479 0.656345 7040364 3
-0.035838 0.210792 0.604075 7895673 3
-0.035923 0.221236 0.605512 7961464 3
-0.028223 0.240330 0.657771 8685189 3
-0.045865 0.231178 0.605512 7764083 3
-0.039023 0.251130 0.657771 8619394 3
-0.029214 0.259946 0.680863 8816775 3
-0.018035 0.259946 0.680863 7435122 3
-0.177792 0.219236 0.693539 7895160 3
-0.164301 0.216466 0.684773 7961466 3
-0.188831 0.205464 0.617879 5592153 3
-0.175032 0.201262 0.605242 4736844 3
-0.198468 0.215059 0.616300 4210754 3
-0.184003 0.210097 0.602082 5131602 3
0.418412 0.204276 0.681616 6645095 3
0.436485 0.207548 0.692533 7434357 3
0.444170 0.205840 0.686835 7171185 3
0.456827 0.206464 0.688915 6842474 3
0.465966 0.205506 0.685719 5592407 3
0.497029 0.204390 0.681996 6777192 3
0.494191 0.209633 0.663160 6447716 3
0.148284 0.202185 0.674640 5395028 3
0.108235 0.200625 0.634661 7499889 3
0.151836 0.203192 0.642784 6842472 3
0.168217 0.210484 0.665851 7895162 3
0.186269 0.216975 0.652493 8749958 3
0.196983 0.216975 0.652493 9210509 3
0.473697 0.162198 0.572581 5065809 3
0.478714 0.160726 0.567386 4473926 3
0.489250 0.161128 0.568804 4342597 3
0.496677 0.160510 0.566622 4013375 3
0.466972 0.169163 0.564453 6578791 3
0.473567 0.168214 0.561285 5657687 3
0.479251 0.166983 0.557179 6381923 3
0.485369 0.165947 0.553722 5723993 3
0.490879 0.164745 0.549711 5789273 3
0.465295 0.177790 0.562426 6842220 3
0.471563 0.176678 0.558910 6710886 3
0.467861 0.171946 0.543937 7500400 3
0.466808 0.168345 0.532546 6381921 3
0.474437 0.167950 0.531298 5855066 3
0.490541 0.170516 0.539415 5657689 3
0.455950 0.176271 0.530089 6974058 3
0.460055 0.174527 0.524843 6908265 3
0.465496 0.173344 0.521285 7828856 3
0.458086 0.167505 0.503726 7631479 3
0.489240 0.175724 0.528443 6776168 3
0.451075 0.179570 0.514599 4342338 3
0.455579 0.178028 0.510181 3947067 3
0.450790 0.184445 0.504817 4802376 3
0.308055 0.169334 0.597771 5855066 3
0.306125 0.178026 0.594027 4012346 3
0.318763 0.179652 0.599450 5986652 3
0.305768 0.187560 0.593333 7499373 3
0.318002 0.189041 0.598019 8289405 3
0.380340 0.164973 0.521881 6513766 3
0.302681 0.195310 0.587343 9012614 3
0.314912 0.196928 0.592208 7828856 3
0.352403 0.181207 0.544933 6908267 3
0.353716 0.177379 0.533419 4276804 3
0.357091 0.174745 0.525498 4079168 3
0.365719 0.174745 0.525498 5986911 3
0.370712 0.173048 0.520394 5263188 3
0.375061 0.171134 0.514638 4605769 3
0.327817 0.186351 0.534031 7961214 3
0.336432 0.186266 0.533788 7500664 3
0.341280 0.184153 0.527732 7500663 3
0.362127 0.177387 0.508344 3092019 3
0.285061 0.167358 0.590799 6644841 3
0.293861 0.166847 0.588995 5197136 3
0.244158 0.168895 0.563559 7171698 3
0.255947 0.170585 0.569197 5263701 3
0.271154 0.174354 0.581774 5460567 3
0.282992 0.175774 0.586511 8815753 3
0.292760 0.175857 0.586788 8223614 3
0.256821 0.180545 0.571140 8290179 3
0.270458 0.183434 0.580280 8749960 3
0.281936 0.184712 0.584322 9539476 3
0.293037 0.185667 0.587343 9144200 3
0.267540 0.190880 0.574019 5460567 3
0.279848 0.192866 0.579994 7434100 3
0.290855 0.193856 0.582970 8947337 3
0.254211 0.197275 0.565337 10066590 3
0.281043 0.196565 0.563304 7039342 3
0.223175 0.188212 0.515126 8882314 3
0.231633 0.188212 0.515126 8290177 3
0.241234 0.189108 0.517579 9013902 3
0.250974 0.190048 0.520153 8816010 3
0.254680 0.186507 0.510462 9013389 3
0.258208 0.183067 0.501046 8486788 3
0.200329 0.191014 0.500314 9277840 3
0.208585 0.191053 0.500415 8224638 3
0.217453 0.191627 0.501918 8289918 3
0.225694 0.191627 0.501918 8684676 3
0.233982 0.191665 0.502019 8750728 3
0.242955 0.192243 0.503532 8290179 3
0.251222 0.192243 0.503532 8552839 3
0.267783 0.226619 0.799998 7171439 3
0.277205 0.223624 0.789423 6645354 3
0.286752 0.220992 0.780132 5922146 3
0.289445 0.213529 0.753788 5987424 3
0.298059 0.210867 0.744392 6513766 3
0.267699 0.239679 0.799748 7434098 3
0.275815 0.235399 0.785464 7237491 3
0.285498 0.232779 0.776721 7435385 3
0.291902 0.227823 0.760186 7237491 3
0.230773 0.229179 0.724993 7565682 3
0.244236 0.230652 0.729651 7829369 3
0.267454 0.240769 0.761655 8355713 3
0.286912 0.246748 0.780569 7566456 3
0.005044 0.225042 0.794430 7369329 3
0.005068 0.239221 0.798219 6645352 3
0.031310 0.239447 0.798972 7171696 3
0.044428 0.239447 0.798972 7633017 3
0.005022 0.250014 0.790901 7303025 3
0.018008 0.250014 0.790901 7697781 3
0.030781 0.248295 0.785464 6447973 3
0.043540 0.247514 0.782992 6908524 3
0.056787 0.249233 0.788430 7434611 3
0.005022 0.263000 0.790901 5921372 3
0.017763 0.259419 0.780134 6250335 3
0.030175 0.256054 0.770014 7632247 3
0.040801 0.243994 0.733747 6711145 3
0.004938 0.271366 0.777662 8289918 3
0.017532 0.268697 0.770014 8026746 3
0.027586 0.245642 0.703945 7961212 3
0.004889 0.281340 0.770014 9408399 3
0.016028 0.257200 0.703945 9145227 3
0.004522 0.271867 0.712086 8948361 3
-0.007989 0.224757 0.793423 7237232 3
-0.073125 0.237784 0.793423 5591894 3
-0.059984 0.237334 0.791920 6184033 3
-0.008017 0.238611 0.796183 7237232 3
-0.065515 0.224708 0.710847 6579302 3
-0.058079 0.242384 0.766764 4868173 3
-0.047250 0.251768 0.796449 7565684 3
-0.034282 0.252565 0.798972 6381669 3
-0.021163 0.252565 0.798972 5394262 3
-0.007989 0.250811 0.793423 7828603 3
-0.042476 0.238083 0.715971 8026748 3
-0.032937 0.255264 0.767639 3815742 3
-0.020613 0.258774 0.778194 4407367 3
-0.007939 0.262178 0.788430 6118240 3
-0.030563 0.248560 0.712306 7434868 3
-0.020551 0.270739 0.775865 9144975 3
-0.007884 0.273226 0.782992 8882057 3
-0.018598 0.256541 0.702140 8947850 3
-0.007607 0.276007 0.755418 8289918 3
-0.007457 0.282723 0.740522 8816773 3
-0.187867 0.207596 0.732842 4342338 3
-0.177400 0.209443 0.739365 5789786 3
-0.167475 0.212251 0.749275 5592664 3
-0.158375 0.216631 0.764739 5855838 3
-0.198046 0.217592 0.726047 6710373 3
-0.184105 0.215230 0.718165 6908265 3
-0.176094 0.219952 0.733921 7039851 3
-0.167226 0.224219 0.748160 6119008 3
-0.193491 0.224234 0.709347 7105133 3
-0.202326 0.210115 0.741737 5460308 3
-0.244175 0.239447 0.798972 5592407 3
-0.219514 0.227485 0.759059 6446433 3
-0.243454 0.238980 0.755996 5723993 3
-0.256703 0.240545 0.723374 5394515 3
-0.285075 0.256578 0.735285 5856088 3
-0.261042 0.245338 0.703072 6316387 3
-0.290135 0.262311 0.717933 3486516 3
-0.272586 0.256881 0.703072 4606021 3
-0.285879 0.270078 0.707402 6381921 3
0.518445 0.152134 0.570098 2763055 3
0.527204 0.151961 0.569449 3420984 3
0.534977 0.151514 0.567775 3487031 3
0.538442 0.149884 0.561666 3223857 3
0.546140 0.149467 0.560103 2697513 3
0.506090 0.160545 0.566745 2960433 3
0.513197 0.159860 0.564328 4736587 3
0.517906 0.158465 0.559405 3749949 3
0.528861 0.158998 0.561285 5592153 3
0.536756 0.158607 0.559906 3618617 3
0.565071 0.164163 0.579517 2894894 3
0.502885 0.165727 0.552989 4868173 3
0.507263 0.164205 0.547910 4276293 3
0.521157 0.165763 0.553109 4605258 3
0.526749 0.164672 0.549468 3092019 3
0.500043 0.170736 0.540111 5920861 3
0.510561 0.171290 0.541863 5723993 3
0.576581 0.211123 0.791152 4342087 3
0.534281 0.207672 0.733110 5526614 3
0.570835 0.216991 0.766011 5000016 3
0.574977 0.213854 0.754936 6118498 3
0.580192 0.211240 0.745707 5591643 3
0.543410 0.218539 0.729209 6579559 3
0.567948 0.223484 0.745707 6447463 3
0.108450 0.238620 0.894193 7565944 3
0.103654 0.242100 0.854648 6513509 3
0.118402 0.243573 0.859846 7303282 3
0.129250 0.237562 0.838629 6842474 3
0.140020 0.232580 0.821040 6381923 3
0.152487 0.231044 0.815617 7565684 3
0.165878 0.231044 0.815617 6645095 3
0.183246 0.236168 0.833705 6974060 3
0.198744 0.238338 0.841367 7105131 3
-0.210715 0.234357 0.878216 4605512 3
-0.288047 0.241089 0.851078 5328720 3
-0.272047 0.239307 0.844787 6118751 3
-0.257303 0.238497 0.841927 4407620 3
-0.236920 0.232072 0.819248 4341057 3
-0.295991 0.249971 0.834087 4868169 3
-0.280335 0.248233 0.828291 6118236 3
-0.264042 0.245727 0.819928 5460821 3
-0.295497 0.263225 0.832695 6381410 3
-0.280335 0.261833 0.828291 5855318 3
-0.299254 0.268018 0.805991 5000270 3
-0.126239 0.223551 0.892646 4802889 3
-0.110594 0.221571 0.884737 5263440 3
-0.182576 0.235259 0.881596 5066322 3
-0.110363 0.235604 0.882891 6250335 3
-0.168389 0.250161 0.883104 5724250 3
-0.107112 0.242731 0.856876 7368816 3
-0.176632 0.255606 0.852892 6119008 3
-0.106944 0.256399 0.855538 6184542 3
-0.284773 0.261453 1.043989 5591896 3
-0.262852 0.256784 1.025347 6052958 3
-0.243984 0.254662 1.016873 5658200 3
-0.231455 0.259331 1.035515 4803150 3
-0.222401 0.268943 1.073895 5263701 3
-0.207361 0.272347 1.087489 3224888 3
-0.383178 0.204260 0.815617 3224116 3
-0.367166 0.202813 0.809836 3092273 3
-0.390250 0.223664 0.893094 4604229 3
-0.394643 0.216595 0.811655 2697511 3
-0.382810 0.217443 0.814833 5263953 3
-0.364215 0.214373 0.803328 6052956 3
-0.356529 0.217734 0.815925 5459792 3
-0.351171 0.222835 0.835039 5656658 3
-0.341509 0.225508 0.845056 4077626 3
-0.328185 0.225887 0.846478 6709344 3
-0.317869 0.228463 0.856128 6380892 3
-0.350026 0.226915 0.801041 5262927 3
-0.342904 0.230977 0.815381 4736069 3
-0.339113 0.237704 0.839128 5393999 3
-0.327634 0.239383 0.845056 6775650 3
-0.314287 0.239786 0.846478 5986650 3
-0.300490 0.239867 0.846765 4276032 3
-0.339817 0.242165 0.808041 5789525 3
-0.333859 0.247585 0.826127 5526353 3
-0.324135 0.250554 0.836033 5987163 3
-0.310925 0.250971 0.837425 4934475 3
-0.324366 0.253724 0.802638 4737094 3
-0.319671 0.260640 0.824517 6316128 3
-0.308760 0.262877 0.831593 5592407 3
-0.313077 0.268523 0.807510 3947580 3
-0.451641 0.144683 0.577721 2368297 3
-0.439521 0.143821 0.574280 1645087 3
-0.467383 0.156260 0.585560 3223095 3
-0.455103 0.155350 0.582150 2236711 3
-0.442167 0.154172 0.577736 1908259 3
-0.456695 0.165485 0.584187 2697004 3
-0.446959 0.165432 0.583998 3355704 3
0.424907 0.161986 0.692197 2499372 3
0.423123 0.157104 0.671334 4670541 3
0.410696 0.167554 0.669046 2696749 3
0.419887 0.166841 0.666200 2499372 3
0.429114 0.166178 0.663553 2828335 3
0.448023 0.169205 0.675639 2763054 3
0.464686 0.171258 0.683836 2565675 3
0.477131 0.171695 0.685584 2763567 3
0.403483 0.180224 0.675360 8223614 3
0.419671 0.182440 0.683667 6710377 3
0.440011 0.186300 0.698129 6249571 3
0.447994 0.184864 0.692748 5591641 3
0.457454 0.184093 0.689861 5789532 3
0.465966 0.182988 0.685719 5723739 3
0.476852 0.182845 0.685184 5461080 3
0.408659 0.193767 0.684023 8026233 3
0.424783 0.196024 0.691994 7302514 3
0.470083 0.195963 0.691777 6579302 3
0.480783 0.195695 0.690832 6053215 3
0.366693 0.161375 0.689586 2960687 3
0.375994 0.160512 0.685898 2763054 3
0.386411 0.160162 0.684403 3421497 3
0.393879 0.158644 0.677915 3882049 3
0.333248 0.172969 0.690668 7302771 3
0.342676 0.172009 0.686835 7500150 3
0.346614 0.168442 0.672593 6973549 3
0.352849 0.166178 0.663553 7960442 3
0.366964 0.167649 0.669426 4341827 3
0.379362 0.168273 0.671917 3552313 3
0.388829 0.167598 0.669224 5526361 3
0.399817 0.167598 0.669224 4341829 3
0.306907 0.182136 0.682527 6513766 3
0.308368 0.164936 0.618070 7368564 3
0.324266 0.167913 0.629228 7368307 3
0.339380 0.170313 0.638223 8420993 3
0.360621 0.175552 0.657855 10131611 3
0.378956 0.179113 0.671199 7499893 3
0.390603 0.179401 0.672277 7631736 3
0.383892 0.192610 0.679942 8092028 3
0.395700 0.192924 0.681049 8092541 3
0.338556 0.185092 0.617603 5065550 3
0.350853 0.186236 0.621422 6381408 3
0.338471 0.195184 0.617449 9210507 3
0.348520 0.195133 0.617291 5987163 3
0.247355 0.202770 0.866473 7434609 3
0.221104 0.219180 0.875192 8486268 3
0.227596 0.211847 0.845912 7959926 3
0.237323 0.208196 0.831332 7828854 3
0.250220 0.207572 0.828839 7434611 3
0.265144 0.208606 0.832970 6974319 3
0.278637 0.208469 0.832422 7895421 3
0.289323 0.206343 0.823933 5988194 3
0.297786 0.202892 0.810151 6908527 3
0.202592 0.228870 0.857654 7434096 3
0.210789 0.222654 0.834362 6907236 3
0.223153 0.221330 0.829398 6775652 3
0.233217 0.218008 0.816951 8223612 3
0.245351 0.216877 0.812711 8289920 3
0.258359 0.216595 0.811655 6579559 3
0.273011 0.217652 0.815617 5987165 3
0.286403 0.217652 0.815617 6316389 3
0.295312 0.214397 0.803420 7500664 3
0.208914 0.234252 0.826942 5986650 3
0.221682 0.233399 0.823933 6710375 3
0.233904 0.232103 0.819356 6776168 3
0.244084 0.229032 0.808515 6841961 3
0.256037 0.227856 0.804362 7237232 3
0.206053 0.244435 0.815617 8092026 3
0.219445 0.244435 0.815617 6249824 3
0.232761 0.244356 0.815353 8157821 3
0.244084 0.242307 0.808515 6710375 3
0.256037 0.241062 0.804362 7763061 3
0.218308 0.256491 0.811391 8026237 3
0.230809 0.255582 0.808515 7368305 3
0.242138 0.253545 0.802070 8355200 3
0.005496 0.202539 0.865485 8684676 3
0.019885 0.204375 0.873333 7369327 3
0.034153 0.203949 0.871510 7040364 3
0.048839 0.205538 0.878301 6053983 3
0.005524 0.217878 0.869991 6974571 3
0.019962 0.219561 0.876712 7830648 3
0.034213 0.218643 0.873046 7370097 3
0.048839 0.219959 0.878301 6712424 3
0.005390 0.226537 0.848911 7830394 3
0.019741 0.231365 0.867004 7040878 3
0.033885 0.230743 0.864673 6777706 3
0.046431 0.222820 0.834984 7567735 3
0.062294 0.230800 0.864888 6974571 3
0.076101 0.229611 0.860431 7500661 3
0.090917 0.231365 0.867004 7895421 3
0.018379 0.228662 0.807208 5856090 3
0.031633 0.228662 0.807208 6448741 3
0.045208 0.230299 0.812989 7435636 3
0.059605 0.234423 0.827547 7500915 3
0.074217 0.237704 0.839128 7237489 3
0.088288 0.238497 0.841927 5526871 3
0.018367 0.241761 0.806694 6776938 3
0.058371 0.242876 0.810415 5724250 3
0.073737 0.249856 0.833705 6184801 3
0.088288 0.252320 0.841927 6645352 3
0.099917 0.246899 0.823839 6579300 3
0.071454 0.255385 0.807893 7039853 3
0.085529 0.257827 0.815617 6776681 3
-0.097517 0.210167 0.898081 5526871 3
-0.082065 0.208374 0.890421 4803148 3
-0.065990 0.203878 0.871210 5658457 3
-0.051311 0.202399 0.864888 5789786 3
-0.036919 0.201356 0.860431 7895162 3
-0.022878 0.202121 0.863699 8947850 3
-0.008712 0.202469 0.865185 8816264 3
-0.096034 0.221493 0.884426 6381923 3
-0.081027 0.220173 0.879155 6184801 3
-0.065647 0.217050 0.866687 7040112 3
-0.051311 0.216600 0.864888 6381923 3
-0.036919 0.215483 0.860431 6776679 3
-0.022878 0.216302 0.863699 7369327 3
-0.008715 0.216749 0.865485 7237489 3
-0.095302 0.234215 0.877686 6842474 3
-0.078015 0.225887 0.846478 5790043 3
-0.064139 0.225964 0.846765 6382182 3
-0.050491 0.227115 0.851078 6184544 3
-0.036493 0.226963 0.850506 7829367 3
-0.022286 0.224524 0.841367 6908778 3
-0.008387 0.222283 0.832970 6776938 3
-0.089455 0.233373 0.823839 7631990 3
-0.074638 0.229406 0.809836 7434611 3
-0.061142 0.228662 0.807208 7368564 3
-0.048939 0.233679 0.824920 7565684 3
-0.035576 0.234872 0.829131 7960442 3
-0.021577 0.230749 0.814577 6381923 3
-0.087320 0.241006 0.804173 5592407 3
-0.047889 0.241915 0.807208 6184031 3
-0.034624 0.241838 0.806950 5328724 3
-0.021265 0.240598 0.802813 6052704 3
-0.395534 0.229043 0.978740 2958377 3
-0.394008 0.244167 0.974964 4932167 3
-0.379464 0.245112 0.978740 4077624 3
-0.338853 0.254812 0.954868 6381408 3
-0.331612 0.261465 0.979798 5131856 3
-0.319174 0.264489 0.991129 4670790 3
-0.300297 0.262216 0.982612 6183515 3
0.690070 0.151447 0.695993 3091507 1
0.659387 0.163769 0.699813 4013375 3
0.667281 0.162891 0.696062 4276545 3
0.610048 0.168000 0.670828 4736845 3
0.610777 0.165218 0.659719 3289398 3
0.620970 0.165048 0.659040 3092273 3
0.672786 0.169936 0.678560 5000270 3
0.578366 0.152123 0.699100 2895154 3
0.589844 0.152123 0.699100 2565675 3
0.584624 0.173531 0.692913 3487290 3
0.569790 0.183793 0.688735 2828847 3
0.576032 0.182190 0.682729 3486777 3
0.585636 0.181692 0.680863 2303016 3
0.589801 0.179557 0.672861 2631981 3
0.588983 0.176011 0.659573 2894640 3
0.400067 0.154188 0.708590 4868944 3
0.446010 0.167037 0.767639 4737358 3
0.463155 0.168691 0.775240 5065810 3
0.475883 0.168691 0.775240 5394777 3
0.427129 0.167308 0.714939 3815743 3
0.491993 0.178037 0.760785 4670024 3
0.467367 0.199655 0.704810 6776681 3
0.208605 0.206519 0.949081 5986654 3
0.224188 0.206519 0.949081 7237230 3
0.241233 0.207778 0.954868 6184542 3
0.253816 0.205275 0.943364 6052958 3
0.269305 0.205275 0.943364 4473926 3
0.284794 0.205275 0.943364 5263699 3
0.211165 0.224827 0.960726 8420993 3
0.226939 0.224827 0.960726 6776420 3
0.242713 0.224827 0.960726 6513507 3
0.254206 0.221103 0.944815 7499891 3
0.208924 0.238048 0.950532 6447201 3
0.220694 0.233980 0.934288 7828340 3
0.102634 0.212973 0.978740 5591641 3
0.120207 0.215668 0.991129 5459541 3
0.131487 0.207778 0.954868 6381669 3
0.147165 0.207778 0.954868 7236978 3
0.159918 0.204046 0.937715 6579049 3
0.175314 0.204046 0.937715 5723480 3
0.191859 0.205275 0.943364 5526101 3
0.136480 0.231942 0.991129 5789786 3
0.152034 0.230849 0.986459 5986911 3
0.164802 0.226144 0.966356 6250083 3
0.178863 0.223885 0.956699 6644582 3
0.195018 0.224399 0.958896 7433582 3
0.100784 0.240694 0.961097 4210500 3
0.117521 0.242668 0.968981 5460568 3
0.154035 0.250297 0.999440 5592407 3
0.167198 0.245529 0.980405 7171439 3
0.180245 0.241444 0.964090 5723993 3
0.194199 0.239134 0.954868 6644580 3
0.126499 0.245146 0.918648 8026494 3
0.148012 0.256278 0.960360 7500404 3
0.161434 0.252607 0.946606 6645095 3
0.173187 0.247199 0.926338 6776681 3
0.187209 0.245640 0.920498 6579302 3
0.198903 0.241489 0.904941 6381408 3
0.070495 0.212973 0.978740 5460310 3
0.085496 0.210343 0.966657 5723482 3
0.066140 0.214894 0.918282 6118751 3
0.085535 0.226319 0.967101 5592153 3
0.066038 0.229616 0.916861 6316641 3
0.084181 0.238363 0.951791 5987422 3
-0.150717 0.207778 0.954868 4277058 3
-0.131824 0.202831 0.932133 2895151 3
-0.115148 0.200445 0.921167 4013632 3
-0.129963 0.215056 0.918974 4868941 3
-0.113768 0.212986 0.910127 5000781 3
-0.152329 0.241691 0.965079 6382180 3
-0.179879 0.251742 0.943364 4540746 3
-0.164390 0.251742 0.943364 7304052 3
-0.147682 0.249682 0.935643 5658457 3
-0.129533 0.244423 0.915937 6447714 3
-0.162433 0.264050 0.932133 6250594 3
-0.147128 0.264050 0.932133 6447973 3
-0.127704 0.255798 0.903004 7105644 3
-0.341845 0.243397 1.118560 3091760 3
-0.328167 0.246925 1.134771 3683897 3
-0.318775 0.254296 1.168645 4078657 3
-0.318923 0.258076 1.102806 4735815 3
-0.300816 0.258076 1.102806 4670024 3
1.350580 0.235108 1.168645 1907748 1
1.341403 0.256208 1.177432 1973539 1
1.301998 0.245148 1.126607 2302506 1
1.341403 0.275540 1.177432 1644574 1
1.333421 0.270009 1.153797 1644063 1
-0.206733 0.238670 1.186352 2894640 1
-0.203647 0.254296 1.168645 3684669 3
-0.282709 0.258076 1.102806 4407879 3
-0.264602 0.258076 1.102806 5263442 3
-0.262138 0.274454 1.172791 5066063 3
-0.224978 0.276113 1.179882 4934737 3
-0.201588 0.270719 1.156830 6184801 3
0.711573 0.176422 0.954868 2235170 1
0.727251 0.176422 0.954868 3156783 1
0.742929 0.176422 0.954868 3223859 1
0.771154 0.172222 0.932133 1184536 1
0.716708 0.185320 0.921167 2565929 1
0.740545 0.187526 0.932133 2303017 1
0.771154 0.187526 0.932133 3618877 1
0.582016 0.166283 0.899991 2039331 1
0.580123 0.161638 0.874852 1776670 1
0.591184 0.160740 0.869991 1184533 1
0.598815 0.158974 0.860431 1315609 1
0.511321 0.167577 0.832970 3420987 1
0.557625 0.177991 0.884737 2434092 1
0.568937 0.176991 0.879766 3223348 1
0.573713 0.174058 0.865185 3816253 1
0.587918 0.174058 0.865185 4737357 1
0.595543 0.172155 0.855729 3947329 1
0.599761 0.169379 0.841927 2367784 1
0.527452 0.177477 0.815617 5131345 3
0.564359 0.185194 0.851078 4868430 3
0.591184 0.189309 0.869991 5460567 3
0.598815 0.187229 0.860431 5328981 3
-0.052786 0.164393 0.889764 2368039 1
-0.038177 0.164393 0.889764 2105384 1
-0.023435 0.163465 0.884737 1974568 1
-0.008909 0.163465 0.884737 2302757 1
-0.068170 0.181060 0.899991 1842465 1
-0.052786 0.179002 0.889764 2499625 3
-0.038177 0.179002 0.889764 2960434 3
-0.023568 0.179002 0.889764 1579294 3
-0.008959 0.179002 0.889764 3420725 3
-0.067395 0.193611 0.889764 4276806 3
-0.052193 0.191436 0.879766 7039340 3
-0.037748 0.191436 0.879766 8355459 3
-0.023303 0.191436 0.879766 8553351 3
-0.008859 0.191436 0.879766 8553092 3
-0.213193 0.226041 1.223425 3091762 1
-0.240806 0.254068 1.262890 3486265 3
-0.293543 0.266216 1.223425 4408133 3
-0.277796 0.270441 1.242845 3815483 3
-0.257390 0.270441 1.242845 4210500 3
-0.233281 0.266216 1.223425 2960434 3
-0.249470 0.281898 1.204603 5592667 3
0.595158 0.118748 0.705398 1710620 1
0.595158 0.130330 0.705398 2105378 1
0.589384 0.159113 0.790901 3682616 1
0.595158 0.141912 0.705398 2565929 1
0.503570 0.173855 0.798972 5789022 3
0.574867 0.167860 0.771421 2498856 3
0.587533 0.167860 0.771421 2630441 3
0.513473 0.181209 0.774340 4013121 3
0.586811 0.165991 0.709309 3816256 3
0.593066 0.164495 0.702918 3223605 3
0.553792 0.194689 0.777397 2763567 3
0.506309 0.189666 0.710742 5724252 3
0.502503 0.199822 0.705398 5395285 3
0.608075 0.150640 0.894848 2106152 1
0.605469 0.146456 0.869991 1842212 1
0.612943 0.144846 0.860431 2236198 1
0.603003 0.156396 0.846478 2565165 1
0.613585 0.155555 0.841927 2827820 1
0.603845 0.166690 0.828563 2827821 1
0.603003 0.184192 0.846478 4605259 3
0.603845 0.180294 0.828563 3749437 3
0.634585 0.177477 0.815617 3025969 3
0.647977 0.177477 0.815617 3553083 3
0.654550 0.175647 0.807208 4079428 3
0.607316 0.199508 0.852532 4342086 3
0.608000 0.195233 0.834264 5196883 3
0.601536 0.188901 0.807208 4867404 3
0.610477 0.187576 0.801546 2827821 3
0.459589 0.155071 0.921167 1776413 1
0.492081 0.160744 0.954868 2960174 1
0.470663 0.174297 0.943364 2894128 1
0.498156 0.178600 0.966657 2894128 1
0.498156 0.194472 0.966657 3288886 1
-0.088005 0.160744 0.954868 2894640 1
-0.084402 0.169200 0.915780 2368809 1
-0.068564 0.167244 0.905193 1710880 1
-0.083912 0.183165 0.910456 1645086 1
-0.099438 0.199273 0.915780 3618874 3
-0.083427 0.196969 0.905193 3289911 3
-0.104963 0.162729 0.966657 3289911 1
-0.119361 0.176422 0.954868 3947841 1
-0.103683 0.176422 0.954868 3026739 1
-0.155456 0.198141 0.984896 2829358 1
-0.134220 0.190936 0.949081 5461080 1
-0.116519 0.187526 0.932133 3487288 1
-0.100023 0.185320 0.921167 3487290 1
0.617407 0.111172 0.731768 1776159 1
0.629422 0.111172 0.731768 2828590 1
0.641437 0.111172 0.731768 2367784 1
0.606740 0.118748 0.705398 2104865 1
0.641437 0.123187 0.731768 2631211 1
0.669085 0.126134 0.749275 1841953 1
0.606740 0.130330 0.705398 3091760 1
0.641437 0.135202 0.731768 3157553 1
0.665899 0.137777 0.745707 1973281 1
0.671745 0.136478 0.738672 2565418 1
0.683873 0.136478 0.738672 2893613 1
0.605427 0.159921 0.794916 3748922 1
0.606740 0.141912 0.705398 2302244 1
0.650557 0.149310 0.742173 2565416 1
0.662743 0.149310 0.742173 1841695 1
0.668591 0.147908 0.735204 789007 1
0.683873 0.148606 0.738672 1052179 1
0.692734 0.147908 0.735204 1381142 1
0.698249 0.146532 0.728365 2499623 1
0.638371 0.161496 0.742173 4341827 3
0.647488 0.160734 0.738672 3354932 3
0.659616 0.160734 0.738672 3157555 3
0.665467 0.159232 0.731768 2894383 3
0.677482 0.159232 0.731768 2302246 3
0.686290 0.158491 0.728365 2828588 3
0.691813 0.157030 0.721652 1447448 1
0.694067 0.154889 0.711811 4210500 1
0.621634 0.186973 0.798972 4144450 3
0.634753 0.186973 0.798972 3815742 3
0.640375 0.184810 0.789727 3553084 3
0.653279 0.177738 0.759504 2697515 3
0.652502 0.174201 0.744392 4737098 3
0.654266 0.171460 0.732680 3157812 3
0.662372 0.170450 0.728365 3749949 3
0.674331 0.170450 0.728365 3420985 3
0.693870 0.166529 0.711610 4342597 3
0.696091 0.164296 0.702066 4802891 3
0.629338 0.198385 0.792156 3749950 3
0.638714 0.197264 0.787679 3487291 3
0.640091 0.193765 0.773710 2303017 3
0.631460 0.183855 0.734138 4737357 3
0.651379 0.186102 0.743111 3816255 3
0.627793 0.176066 0.703034 5066323 3
0.315487 0.150575 0.991129 3157050 1
0.331761 0.150575 0.991129 2433832 1
0.315487 0.166848 0.991129 788502 1
0.331761 0.166848 0.991129 2104097 1
0.348034 0.166848 0.991129 2499623 1
0.311544 0.180833 0.978740 3092281 1
0.327614 0.180833 0.978740 2762027 1
0.339441 0.178600 0.966657 2170658 1
0.307697 0.194472 0.966657 3947842 3
0.323569 0.194472 0.966657 5657689 3
0.323467 0.185320 0.921167 3618106 3
0.102634 0.148693 0.978740 2499370 1
0.113052 0.141612 0.932133 2697262 1
0.174271 0.141612 0.932133 2894128 1
0.102634 0.164763 0.978740 2762797 1
0.164854 0.162729 0.966657 2565676 1
0.179616 0.161730 0.960726 2565675 1
0.195391 0.161730 0.960726 2368809 1
0.102634 0.180833 0.978740 3222579 1
0.136480 0.183122 0.991129 2895153 1
0.152754 0.183122 0.991129 3815743 1
0.162843 0.176422 0.954868 3157813 1
0.177439 0.175353 0.949081 2894383 1
0.193022 0.175353 0.949081 2302504 1
0.102634 0.196903 0.978740 7235952 3
0.119451 0.198141 0.984896 5525850 3
0.133110 0.194472 0.966657 4407879 3
0.148068 0.193279 0.960726 5263189 3
0.160881 0.189786 0.943364 4342087 3
0.176370 0.189786 0.943364 4012864 3
0.193022 0.190936 0.949081 3223093 3
0.072302 0.152505 1.003836 2499625 1
0.072302 0.168987 1.003836 3222576 1
0.058443 0.194183 1.050996 2894383 1
0.076210 0.195495 1.058097 2169890 1
0.093583 0.195495 1.058097 2893101 1
0.008427 0.201617 1.327105 2434092 1
0.030217 0.201617 1.327105 3223608 1
0.052006 0.201617 1.327105 2894640 1
0.030217 0.223407 1.327105 2894894 1
0.052006 0.223407 1.327105 2631722 1
0.380144 0.110519 0.815617 2105384 1
0.393536 0.110519 0.815617 2368556 1
0.316031 0.136729 0.899991 3420725 1
0.306173 0.126547 0.832970 2894894 1
0.313186 0.123911 0.815617 2960434 1
0.323211 0.122633 0.807208 3158072 1
0.349718 0.122633 0.807208 1710367 1
0.366753 0.123911 0.815617 2763567 1
0.380144 0.123911 0.815617 1250329 1
0.395596 0.124559 0.819887 855571 1
0.319781 0.146456 0.869991 2631469 1
0.319850 0.140224 0.832970 2566189 1
0.326578 0.137302 0.815617 2236970 1
0.347203 0.140224 0.832970 2302506 1
0.358970 0.139482 0.828563 1184023 1
0.370613 0.138748 0.824202 2566958 1
0.384146 0.138748 0.824202 2369579 1
0.399783 0.139482 0.828563 2697774 1
0.319781 0.160740 0.869991 2828848 1
0.328589 0.158105 0.855729 2236713 1
0.342639 0.158105 0.855729 2434092 1
0.347203 0.153900 0.832970 920853 1
0.360879 0.153900 0.832970 1776673 1
0.370613 0.152280 0.824202 1579291 1
0.380144 0.150694 0.815617 2631981 1
0.393536 0.150694 0.815617 1184023 1
0.319781 0.175025 0.869991 3420985 3
0.319850 0.167577 0.832970 3223606 3
0.333526 0.167577 0.832970 4013122 3
0.341749 0.164945 0.819887 4276294 3
0.347925 0.161561 0.803069 5395287 3
0.306173 0.181253 0.832970 6710634 3
0.318157 0.180294 0.828563 5855326 3
0.324886 0.176558 0.811391 7631736 3
0.305274 0.194357 0.830523 6250083 3
0.311871 0.190067 0.812191 6776427 3
0.320025 0.100093 0.738672 2170405 1
0.352083 0.106098 0.782992 2236711 1
0.333031 0.121382 0.798972 3486778 1
0.355639 0.159113 0.790901 4934734 3
0.368625 0.159113 0.790901 4079427 3
0.375915 0.156738 0.779097 5789533 1
0.388707 0.156738 0.779097 4933711 1
0.331341 0.172973 0.794916 4276293 3
0.340931 0.171234 0.786927 3421495 3
0.350331 0.169530 0.779097 3553081 3
0.357783 0.167037 0.767639 2631981 3
0.366791 0.165416 0.760186 3684156 3
0.368538 0.160734 0.738672 3815485 3
0.377109 0.159232 0.731768 4999759 3
0.378511 0.154889 0.711811 5657947 3
0.390198 0.154889 0.711811 5394775 3
0.319011 0.186446 0.796718 6513255 3
0.326169 0.183121 0.782508 6184542 3
0.334628 0.180750 0.772378 5987676 3
0.340615 0.177266 0.757490 5066320 3
0.347169 0.174312 0.744867 4539978 3
0.353079 0.171247 0.731768 3026226 3
0.359363 0.168559 0.720282 2631211 3
0.368086 0.167149 0.714260 3025969 3
0.303600 0.198008 0.790653 7236978 3
0.314798 0.196892 0.786196 7434357 3
0.321946 0.193432 0.772378 7171698 3
0.329868 0.190680 0.761390 6053215 3
0.330511 0.184076 0.735020 5132113 3
0.340112 0.182750 0.729727 7105905 3
0.260083 0.130986 0.966657 1842465 1
0.279404 0.132623 0.978740 2368297 1
0.202470 0.139946 0.921167 2434351 1
0.217594 0.139946 0.921167 1710628 1
0.244211 0.146857 0.966657 2434090 1
0.263334 0.148693 0.978740 2894894 1
0.282941 0.150575 0.991129 2631982 1
0.299214 0.150575 0.991129 1644837 1
0.204880 0.156917 0.932133 2763314 1
0.222838 0.158807 0.943364 2170666 1
0.244211 0.162729 0.966657 2104612 1
0.263334 0.164763 0.978740 1381144 1
0.282941 0.166848 0.991129 1973798 1
0.299214 0.166848 0.991129 1053214 1
0.209877 0.176422 0.954868 2631217 1
0.225555 0.176422 0.954868 1973538 1
0.244211 0.178600 0.966657 1842463 1
0.260083 0.178600 0.966657 2434092 1
0.279404 0.180833 0.978740 2039593 1
0.295474 0.180833 0.978740 2500144 1
0.208605 0.190936 0.949081 3289401 3
0.225555 0.192100 0.954868 4473926 3
0.245728 0.195680 0.972661 3355702 3
0.256911 0.192100 0.954868 4671565 3
0.275954 0.194472 0.966657 3947842 3
0.291826 0.194472 0.966657 3158326 3
0.203247 0.116592 0.860431 1513249 1
0.224785 0.120566 0.889764 2698289 1
0.294061 0.182223 0.837425 7302771 3
0.254982 0.197655 0.844614 7106157 3
0.265587 0.195256 0.834362 7172464 3
0.279845 0.195646 0.836033 7763835 3
0.294061 0.195972 0.837425 6579561 3
0.102111 0.114084 0.841927 2236711 1
0.113494 0.111682 0.824202 2763055 1
0.127027 0.111682 0.824202 3026229 1
0.140559 0.111682 0.824202 2038821 1
0.155731 0.112871 0.832970 1973026 1
0.171229 0.114084 0.841927 2368297 1
0.185053 0.114084 0.841927 1513249 1
0.121145 0.133656 0.879766 2763054 1
0.134084 0.132171 0.869991 3223606 1
0.148368 0.132171 0.869991 3881538 1
0.183038 0.136729 0.899991 3026227 1
0.050628 0.123370 0.910456 1973792 1
0.065576 0.123370 0.910456 2039332 1
0.080525 0.123370 0.910456 1973539 1
0.087660 0.150575 0.991129 3486520 1
0.087660 0.166848 0.991129 3485748 1
0.609257 0.115114 0.966657 2302504 1
0.609257 0.130986 0.966657 2171431 1
0.640954 0.134302 0.991129 1710626 1
0.616873 0.148693 0.978740 1645087 1
0.632943 0.148693 0.978740 2039845 1
0.616873 0.164763 0.978740 2566189 1
0.632943 0.164763 0.978740 2039845 1
0.649013 0.164763 0.978740 2368809 1
0.541584 0.111003 0.932133 2367788 1
0.563598 0.112340 0.943364 1118229 1
0.586149 0.113710 0.954868 2434089 1
0.526279 0.126307 0.932133 1249567 1
0.548109 0.127829 0.943364 2499631 1
0.570471 0.129388 0.954868 2236710 1
0.586149 0.129388 0.954868 2434089 1
0.526279 0.141612 0.932133 2433838 1
0.541584 0.141612 0.932133 1775908 1
0.570471 0.145066 0.954868 2894641 1
0.586149 0.145066 0.954868 1973538 1
0.507759 0.160744 0.954868 2499370 1
0.510974 0.156917 0.932133 2894641 1
0.526279 0.156917 0.932133 3420987 1
0.541584 0.156917 0.932133 1184284 1
0.570471 0.160744 0.954868 1841953 1
0.586149 0.160744 0.954868 1118230 1
0.514028 0.178600 0.966657 2894389 1
0.510974 0.172222 0.932133 2170666 1
0.520087 0.170195 0.921167 2697523 1
0.528989 0.168216 0.910456 3158072 1
0.550337 0.170195 0.921167 2829361 1
0.565461 0.170195 0.921167 2171177 1
0.577191 0.169200 0.915780 1710369 1
0.501641 0.189786 0.943364 3486526 1
0.480516 0.101350 0.851078 1973290 1
0.411211 0.111682 0.824202 2500396 1
0.424744 0.111682 0.824202 1776673 1
0.442939 0.112871 0.832970 2434603 1
0.482268 0.119212 0.879766 1973287 1
0.429286 0.130719 0.860431 1710366 1
0.448341 0.132171 0.869991 2105124 1
0.467823 0.133656 0.879766 2236711 1
0.482268 0.133656 0.879766 2170920 1
0.456615 0.167577 0.832970 2236713 1
0.460494 0.164086 0.815617 3421244 1
0.473886 0.164086 0.815617 2302763 1
0.487277 0.164086 0.815617 2631982 1
0.211053 0.083252 0.699100 2105127 1
0.220562 0.082515 0.692913 2499883 1
0.234010 0.083252 0.699100 3355191 1
0.220562 0.093892 0.692913 2236200 1
0.234010 0.094731 0.699100 2762797 1
0.061300 0.101350 0.851078 1841955 1
0.075273 0.101350 0.851078 1907746 1
0.088288 0.100261 0.841927 1841953 1
0.018571 0.110519 0.815617 2236713 1
0.032642 0.112871 0.832970 2170918 1
0.094376 0.121952 0.899991 2894641 1
0.005555 0.161638 0.874852 1643798 1
0.020031 0.162546 0.879766 2762025 1
0.035269 0.166283 0.899991 3354932 1
0.005555 0.176002 0.874852 3289137 3
0.020031 0.176991 0.879766 5328720 3
0.034476 0.176991 0.879766 4210241 3
0.049477 0.179002 0.889764 5395028 3
0.005555 0.190367 0.874852 7895160 3
0.020031 0.191436 0.879766 7237230 3
0.034476 0.191436 0.879766 7303023 3
0.049477 0.193611 0.889764 5066320 3
0.606740 0.072420 0.705398 1512475 1
0.606078 0.085543 0.718341 1117719 1
0.617873 0.085543 0.718341 1512477 1
0.629422 0.099157 0.731768 920338 1
0.641437 0.099157 0.731768 1973028 1
-0.053332 0.201924 0.578661 8026746 3
-0.044854 0.206638 0.592170 9079434 3
-0.070001 0.204606 0.559998 7565936 3
-0.062550 0.210473 0.576054 8092537 3
-0.054007 0.214103 0.585990 6316126 3
-0.045300 0.218512 0.598056 8158843 3
-0.083157 0.201143 0.526844 7893618 3
-0.078546 0.212048 0.555405 7039075 3
-0.073141 0.223391 0.585116 6380892 3
-0.064409 0.226468 0.593176 7039592 3
-0.055248 0.228863 0.599450 7763826 3
0.214890 0.061391 0.711811 1840926 1
0.230773 0.062528 0.724993 1775902 1
0.280990 0.063113 0.731768 986644 1
0.290291 0.062528 0.724993 1118230 1
0.206536 0.078810 0.767639 1053466 1
0.201372 0.072420 0.705398 2697262 1
0.212954 0.072420 0.705398 1117717 1
0.224536 0.072420 0.705398 2236453 1
0.247256 0.075836 0.738672 1578270 1
0.259384 0.075836 0.738672 2039074 1
0.266484 0.074432 0.724993 2170658 1
0.278388 0.074432 0.724993 2170917 1
0.290291 0.074432 0.724993 1776159 1
0.214966 0.095145 0.798972 1776673 1
0.201372 0.084002 0.705398 2499885 1
0.252245 0.085543 0.718341 2171169 1
0.266484 0.086335 0.724993 2105376 1
0.275834 0.085543 0.718341 2697004 1
0.287628 0.085543 0.718341 1842466 1
0.299423 0.085543 0.718341 1841953 1
0.212954 0.095584 0.705398 2433838 1
0.252245 0.097338 0.718341 2763306 1
0.278388 0.098239 0.724993 1973539 1
0.290291 0.098239 0.724993 2039845 1
0.103221 0.073403 0.851078 2433062 1
0.115935 0.072613 0.841927 1906719 1
0.129758 0.072613 0.841927 1644061 1
0.112312 0.083736 0.815617 2432809 1
0.125704 0.083736 0.815617 2236200 1
0.139095 0.083736 0.815617 2039334 1
0.152487 0.083736 0.815617 2236198 1
0.165878 0.083736 0.815617 2105125 1
0.179270 0.083736 0.815617 2104873 1
0.192662 0.083736 0.815617 1447458 1
0.112312 0.097127 0.815617 2762542 1
0.125704 0.097127 0.815617 2565165 1
0.139095 0.097127 0.815617 1644065 1
0.152487 0.097127 0.815617 2564649 1
0.165878 0.097127 0.815617 2499885 1
0.179270 0.097127 0.815617 1644835 1
0.192662 0.097127 0.815617 1711398 1
0.401886 0.038017 0.711811 723220 1
0.409847 0.060838 0.705398 2170920 1
0.429162 0.061955 0.718341 789778 1
0.405573 0.073749 0.718341 2302254 1
0.411741 0.095145 0.798972 1974566 1
-0.394923 0.222568 0.785697 4737096 3
-0.382620 0.222916 0.786927 4868680 3
-0.369584 0.222847 0.786681 5987161 3
-0.355333 0.222013 0.783737 5658711 3
-0.391605 0.233490 0.779097 4868941 3
-0.378813 0.233490 0.779097 5658450 3
-0.366021 0.233490 0.779097 5395278 3
-0.353563 0.233711 0.779834 5395537 3
-0.346912 0.237931 0.793915 4539715 3
-0.389546 0.244988 0.775001 4342338 3
-0.367678 0.239043 0.756195 3487281 3
-0.352223 0.236998 0.749727 3947578 3
-0.343741 0.239667 0.758169 3553335 3
-0.342246 0.247592 0.783238 3158577 3
-0.332087 0.249621 0.789659 4408131 3
-0.393986 0.252405 0.759039 3750203 3
-0.358853 0.237406 0.713936 4605510 3
-0.352116 0.249233 0.749500 5263438 3
-0.342084 0.250900 0.754516 4539719 3
-0.340437 0.259074 0.779097 3552822 3
-0.328771 0.259965 0.781775 4802889 3
-0.318828 0.262346 0.788934 3815992 3
-0.319184 0.245663 0.704006 4408133 3
-0.312997 0.249954 0.716301 5131856 3
-0.307221 0.254919 0.730530 5855577 3
-0.317028 0.273745 0.784480 6710886 3
-0.307373 0.257012 0.703430 7565684 3
-0.300394 0.260982 0.714297 3947069 3
-0.494537 0.217430 0.595096 3355443 3
-0.495178 0.223088 0.584322 2368807 3
-0.490642 0.225412 0.590409 1513752 3
-0.463283 0.213557 0.536296 2697774 3
-0.465558 0.218764 0.549371 3158323 3
-0.480560 0.230275 0.578278 3224370 3
-0.484602 0.236892 0.594895 3487031 3
-0.477076 0.238010 0.597704 3223859 3
-0.464829 0.236771 0.594591 4145220 3
-0.449325 0.233783 0.587089 4474953 3
-0.442172 0.235106 0.590409 4343878 3
-0.431944 0.234007 0.564379 3684921 3
-0.428596 0.237283 0.572281 1974303 3
-0.449715 0.247962 0.575257 2961196 3
0.102634 0.052273 0.978740 1644063 1
0.114414 0.065873 0.943364 1840926 1
0.131487 0.066676 0.954868 1775132 1
0.169027 0.085482 0.991129 1841953 1
0.180725 0.083371 0.966657 1512477 1
0.196597 0.083371 0.966657 1512477 1
0.045354 0.043561 0.815617 2038051 1
0.059364 0.057552 0.824202 2170407 1
0.079600 0.062844 0.899991 1709854 1
0.094376 0.062844 0.899991 1973281 1
0.059364 0.071085 0.824202 1907746 1
0.074464 0.072613 0.841927 2631209 1
0.089247 0.073403 0.851078 2565416 1
0.045354 0.083736 0.815617 1644316 1
0.059995 0.085517 0.832970 1710367 1
0.074464 0.086437 0.841927 2104867 1
0.088288 0.086437 0.841927 2039074 1
0.099962 0.084617 0.824202 1446168 1
0.046319 0.099194 0.832970 1578781 1
0.099962 0.098150 0.824202 1644061 1
0.329667 0.029255 0.790901 1841440 1
0.335868 0.028676 0.775240 1051928 1
0.348597 0.028676 0.775240 722710 1
0.347561 0.027583 0.745707 1117980 1
0.316682 0.042241 0.790901 1644063 1
0.319971 0.040999 0.767639 2236198 1
0.329346 0.040600 0.760186 2367786 1
0.341828 0.040600 0.760186 920089 1
0.347561 0.039827 0.745707 722712 1
0.359804 0.039827 0.745707 656917 1
0.365094 0.039083 0.731768 2235948 1
0.377109 0.039083 0.731768 1578270 1
0.390198 0.038017 0.711811 1512477 1
0.300659 0.054674 0.782992 1249564 1
0.307367 0.053602 0.767639 1446684 1
0.313818 0.052572 0.752877 2302246 1
0.326179 0.052572 0.752877 1446682 1
0.332153 0.051580 0.738672 1380639 1
0.341064 0.051098 0.731768 2565427 1
0.349810 0.050624 0.724993 1578531 1
0.361713 0.050624 0.724993 1512736 1
0.370189 0.050160 0.718341 1447197 1
0.378511 0.049704 0.711811 1249303 1
0.302195 0.062528 0.724993 1775902 1
0.314099 0.062528 0.724993 1578523 1
0.329049 0.063113 0.731768 1972258 1
0.341064 0.063113 0.731768 1117468 1
0.353079 0.063113 0.731768 657429 1
0.361713 0.062528 0.724993 657681 1
0.373617 0.062528 0.724993 1973539 1
0.381984 0.061955 0.718341 920853 1
0.390198 0.061391 0.711811 1446943 1
0.302195 0.074432 0.724993 2105378 1
0.314099 0.074432 0.724993 2368037 1
0.329049 0.075127 0.731768 1775133 1
0.344282 0.075836 0.738672 2433840 1
0.359804 0.076558 0.745707 1447456 1
0.372048 0.076558 0.745707 1447454 1
0.380666 0.075836 0.738672 1118743 1
0.389124 0.075127 0.731768 986903 1
0.393778 0.073749 0.718341 2104875 1
0.317034 0.087142 0.731768 1709854 1
0.332153 0.087964 0.738672 1709854 1
0.361325 0.092319 0.775240 2171179 1
0.377795 0.093242 0.782992 1250077 1
0.398623 0.095145 0.798972 2039591 1
0.305019 0.099157 0.731768 2105125 1
-0.443891 0.208431 0.781064 2498853 3
-0.436496 0.211057 0.790901 3815483 3
-0.423510 0.211057 0.790901 3749949 3
-0.410654 0.211123 0.791152 5065809 3
-0.401348 0.213079 0.798480 4144961 3
-0.448865 0.217453 0.767639 3881787 3
-0.442541 0.220583 0.778689 4736583 3
-0.436223 0.223902 0.790407 5131343 3
-0.419275 0.221802 0.782992 5461078 3
-0.406419 0.221802 0.782992 6579561 3
-0.492167 0.210814 0.703430 1184276 3
-0.482375 0.211584 0.706002 2105378 3
-0.476689 0.214239 0.714858 3355445 3
-0.462970 0.213325 0.711811 3092271 3
-0.437475 0.224219 0.748160 3552820 3
-0.431670 0.227635 0.759560 5789271 3
-0.423658 0.230057 0.767639 4934475 3
-0.411308 0.230199 0.768114 3816253 3
-0.402520 0.232407 0.775481 5395287 3
-0.479433 0.221815 0.701696 5789532 3
-0.472509 0.223994 0.708590 5920859 3
-0.459447 0.223301 0.706396 5329235 3
-0.450402 0.224573 0.710422 4408131 3
-0.447221 0.228916 0.724159 2631207 3
-0.439266 0.230985 0.730705 3618615 3
-0.430666 0.232822 0.736514 4408133 3
-0.424461 0.236097 0.746875 4868682 3
-0.421463 0.241404 0.763663 4210752 3
-0.407312 0.240452 0.760652 4539719 3
-0.401162 0.244312 0.772865 4079168 3
-0.468141 0.233450 0.702039 5526101 3
-0.442869 0.238463 0.717112 2960685 3
-0.438116 0.242347 0.728792 3947582 3
-0.431293 0.245271 0.737588 5000016 3
-0.424461 0.248360 0.746875 4671303 3
-0.421463 0.253942 0.763663 5131854 3
-0.405711 0.251947 0.757662 4473926 3
-0.455982 0.256149 0.701068 2829099 3
0.137628 0.041975 1.134771 1445663 1
0.158558 0.042592 1.151459 1644061 1
0.180113 0.043228 1.168645 1644316 1
0.199301 0.043228 1.168645 1906719 1
0.156260 0.060607 1.134771 2104097 1
0.177464 0.061498 1.151459 1710107 1
0.196370 0.061498 1.151459 1512475 1
0.172393 0.078106 1.118560 1841695 1
0.190759 0.078106 1.118560 2170918 1
-0.499921 0.209225 0.698129 2960174 3
-0.494895 0.200115 0.633050 2170658 3
-0.494570 0.213432 0.675176 1973538 3
-0.490110 0.216356 0.684428 3947582 3
-0.484809 0.219039 0.692913 3947582 3
-0.497654 0.211683 0.636579 3025969 3
-0.497682 0.216236 0.650272 2829361 3
-0.496577 0.225428 0.677915 3816255 3
-0.485711 0.225551 0.678285 3290163 3
-0.480437 0.228338 0.686664 3881789 3
-0.477793 0.232538 0.699296 5328981 3
-0.453313 0.231763 0.696964 3947582 3
-0.442608 0.232150 0.698129 3289650 3
-0.495639 0.221235 0.634002 2565418 3
-0.487347 0.222201 0.636768 2829361 3
-0.496577 0.236559 0.677915 2830128 3
-0.485981 0.236820 0.678662 3619128 3
-0.487118 0.242944 0.696213 3224116 3
-0.477659 0.243952 0.699100 4210500 3
-0.466181 0.243952 0.699100 3684410 3
-0.454702 0.243952 0.699100 4210752 3
-0.443224 0.243952 0.699100 2763306 3
-0.426538 0.241009 0.690668 5197647 3
-0.412893 0.239672 0.686835 4605512 3
-0.404060 0.241130 0.691014 4802637 3
-0.495639 0.231645 0.634002 2368039 3
-0.485229 0.231645 0.634002 1974051 3
-0.476203 0.232320 0.635849 2304043 3
-0.487740 0.243282 0.665851 3225397 3
-0.485595 0.247766 0.678123 2698540 3
-0.420559 0.242368 0.663351 3158062 3
-0.492277 0.240413 0.629702 1907745 3
-0.469788 0.234352 0.613826 2631981 3
-0.459497 0.234243 0.613542 3422778 3
-0.484009 0.252270 0.660758 4869963 3
-0.415068 0.243644 0.638163 4407618 3
-0.510050 0.202001 0.639015 2301476 3
-0.520146 0.212331 0.638529 2631209 3
-0.512010 0.213309 0.641471 2893613 3
-0.505673 0.224525 0.675199 2303531 3
-0.567826 0.225092 0.645054 2368296 3
-0.545479 0.220343 0.631445 2631469 3
-0.527841 0.217350 0.622866 3289398 3
-0.514890 0.216206 0.619588 3552824 3
-0.513992 0.220179 0.630974 4276547 3
-0.507977 0.222078 0.636418 3420727 3
-0.501758 0.233787 0.669971 2632751 3
-0.555884 0.230727 0.631488 3618876 3
-0.510013 0.228754 0.626089 2565927 3
-0.506049 0.231645 0.634002 2302503 3
-0.502062 0.235307 0.616329 1710620 3
-0.504008 0.241079 0.631445 2236964 3
1.264848 0.042386 2.060506 1841442 1
1.281813 0.041835 2.033746 1643293 1
1.213147 0.077233 2.087979 2104873 1
1.215029 0.075227 2.033746 1644835 1
1.232416 0.074263 2.007672 1973028 1
-1.080163 0.024779 1.204603 1182744 1
-1.060384 0.024779 1.204603 525584 1
-1.097040 0.045254 1.223425 1380121 1
-1.097040 0.065341 1.223425 459787 1
-1.097040 0.085429 1.223425 1841442 1
-0.481777 0.225741 1.665941 1381401 1
-0.454424 0.225741 1.665941 1710620 1
-0.427071 0.225741 1.665941 1842206 1
-0.498524 0.247821 1.631234 1908259 1
-0.471740 0.247821 1.631234 1907745 1
-0.444957 0.247821 1.631234 1907997 1
-0.418174 0.247821 1.631234 2434089 1
-0.444957 0.274605 1.631234 2631718 1
-0.418174 0.274605 1.631234 3289911 1
-0.204086 0.211099 0.667796 5986911 3
-0.202144 0.220961 0.698994 7368307 3
-0.232367 0.228304 0.686562 5657685 3
-0.208318 0.215111 0.646888 5987165 3
-0.239416 0.235424 0.674661 5789786 3
-0.215933 0.222633 0.638006 5000268 3
-0.297427 0.223501 0.611713 4605510 3
-0.239739 0.235918 0.645697 5527125 3
-0.216997 0.223419 0.611487 6250337 3
-0.203273 0.219441 0.600600 5658200 3
-0.275292 0.240531 0.630012 6381410 3
-0.293751 0.266680 0.698503 5921372 3
-0.265383 0.261332 0.684495 5526610 3
-0.233253 0.239850 0.628228 5856088 3
-0.270925 0.246895 0.620016 5658200 3
-0.293751 0.278149 0.698503 7631990 3
-0.258533 0.254747 0.639733 5592918 3
-0.338621 0.231587 0.696436 5197645 3
-0.393793 0.241793 0.692913 4342340 3
-0.380110 0.240334 0.688735 4473924 3
-0.365586 0.238239 0.682729 4737096 3
-0.351313 0.236179 0.676827 3947582 3
-0.337285 0.234155 0.671027 4605510 3
-0.327319 0.234910 0.673190 5131852 3
-0.320938 0.238380 0.683135 3552824 3
-0.395164 0.233788 0.639867 4013373 3
-0.378472 0.230028 0.629577 4407879 3
-0.364276 0.227617 0.622976 5526361 3
-0.353164 0.227049 0.621422 3618617 3
-0.344847 0.228298 0.624840 3487029 3
-0.335420 0.228865 0.626394 3815994 3
-0.319896 0.225178 0.616300 4408133 3
-0.307471 0.223501 0.611713 3421236 3
-0.305959 0.237948 0.651252 3947328 3
-0.312727 0.252019 0.689764 6052447 3
-0.341481 0.229403 0.600865 4934477 3
-0.335979 0.232422 0.608772 4671305 3
-0.327558 0.233545 0.611713 4737609 3
-0.312516 0.229868 0.602082 2566438 3
-1.878829 -2.445267 3.404314 1051675 1
-1.822934 -2.445267 3.404314 919319 1
-1.863443 -2.442469 3.479965 787475 1
-1.806306 -2.442469 3.479965 1511456 1
-0.298865 0.227008 0.594591 3421749 3
-0.279793 0.219698 0.575445 3158323 3
-0.260151 0.211414 0.553747 7039599 3
-0.247063 0.208049 0.544933 4736585 3
-0.210941 0.226943 0.594420 5329746 3
-0.289241 0.229147 0.575445 4342851 3
-0.267972 0.219465 0.551132 5066320 3
-0.250705 0.212500 0.533641 5395028 3
-0.234472 0.205938 0.517162 6512994 3
-0.229290 0.235500 0.591400 6250333 3
-0.210559 0.225826 0.567106 7106155 3
-0.282386 0.232940 0.561806 5395539 3
-0.260045 0.221755 0.534829 5197906 3
-0.372229 0.224156 0.587119 5131854 3
-0.352960 0.218203 0.571527 3552824 3
-0.352523 0.223885 0.586411 2829361 3
-0.348671 0.227656 0.596289 3026226 3
-0.348256 0.207967 0.522257 5066572 3
-0.343377 0.210230 0.527939 4144959 3
-0.338571 0.212655 0.534031 5000268 3
-0.332772 0.214570 0.538839 4605510 3
-0.329335 0.218153 0.547838 2434602 3
-0.328849 0.223948 0.562391 3618363 3
-0.329072 0.230574 0.579030 3947582 3
-0.327563 0.236345 0.593522 3026478 3
-0.318390 0.236771 0.594591 3224370 3
-0.307893 0.236207 0.593176 4013884 3
-0.327569 0.219924 0.530413 3092784 3
-0.323240 0.222944 0.537699 2829360 3
-0.318790 0.226049 0.545187 4868684 3
-0.315764 0.230372 0.555613 6513507 3
-0.318167 0.239031 0.576497 3092784 3
-0.316151 0.244799 0.590409 3948091 3
-0.307893 0.245947 0.593176 4408642 3
-0.315754 0.232762 0.539995 3816253 3
-0.308353 0.233874 0.542573 6579813 3
-0.305985 0.238983 0.554425 3487540 3
-0.308701 0.248497 0.576497 5264721 3
-0.303298 0.251870 0.584322 6053467 3
