# .PCD v0.7
VERSION 0.7
FIELDS x y z rgb label
SIZE 4 4 4 4 4
TYPE F F F U U
COUNT 1 1 1 1 1
WIDTH 1115
HEIGHT 1
VIEWPOINT 0 0 0 1 0 0 0
POINTS 1115
DATA ascii
-0.363471 0.211836 0.531974 4605769 3
-0.353981 0.211385 0.530842 5066320 3
-0.347110 0.212515 0.533679 2960433 3
-0.342352 0.215030 0.539995 5131602 3
-0.362621 0.220055 0.530730 3948609 3
-0.352935 0.219451 0.529274 3948609 3
-0.347553 0.221560 0.534360 3618874 3
-0.343463 0.224623 0.541746 4539976 3
-0.333631 0.223993 0.540229 2566186 3
-0.327657 0.225991 0.545047 3092530 3
-0.343463 0.233517 0.541746 4014402 3
-0.333631 0.232863 0.540229 5330262 3
-0.326874 0.234379 0.543745 3422265 3
0.145927 0.201561 0.577620 7828854 3
0.102683 0.200672 0.549229 9605265 3
0.146718 0.212189 0.580753 8881542 3
0.190483 0.218644 0.598420 7960955 3
0.199546 0.217812 0.596141 8553092 3
0.102774 0.209875 0.549715 9737362 3
0.109544 0.205640 0.538624 10395294 3
0.117876 0.204752 0.536296 9145229 3
0.127891 0.206707 0.541417 8881544 3
0.138857 0.209845 0.549637 9144968 3
0.190483 0.228470 0.598420 8881542 3
0.186789 0.213049 0.558029 9737366 3
0.187845 0.204235 0.534944 9671573 3
0.107597 0.210671 0.529049 8816775 3
0.116827 0.211657 0.531523 7895673 3
0.126412 0.213103 0.535156 8158845 3
0.136781 0.215596 0.541417 9079434 3
0.146297 0.216523 0.543745 8816003 3
0.155971 0.217564 0.546359 9934230 3
0.164511 0.216996 0.544933 9210507 3
0.172259 0.215497 0.541166 9671060 3
0.179062 0.213019 0.534944 9145229 3
0.186170 0.211119 0.530173 9671573 3
0.189253 0.205028 0.514878 9013900 3
0.193512 0.200679 0.503955 8487810 3
0.107597 0.219358 0.529049 8290945 3
0.116827 0.220384 0.531523 8751496 3
0.124659 0.218812 0.527732 8554117 3
0.135928 0.223087 0.538042 9211533 3
0.146297 0.225451 0.543745 8684676 3
0.168402 0.219358 0.529049 8487299 3
0.177088 0.219358 0.529049 8224127 3
0.032992 0.207038 0.593317 7039340 3
0.042876 0.207727 0.595290 7895162 3
0.051925 0.204865 0.587089 7895160 3
0.061034 0.203102 0.582035 8158332 3
0.033276 0.218644 0.598420 8946821 3
0.043050 0.218383 0.597704 9407888 3
0.052050 0.215022 0.588504 8420991 3
0.060422 0.210524 0.576194 8684674 3
0.068074 0.205076 0.561285 9013641 3
0.076725 0.203577 0.557179 8487297 3
0.085548 0.202805 0.555069 9079434 3
0.093809 0.200980 0.550073 8815749 3
0.085264 0.211217 0.553230 9408912 3
0.094036 0.210519 0.551403 8553088 3
0.076708 0.221824 0.557057 8618885 3
0.083868 0.216692 0.544169 8092539 3
0.090807 0.212033 0.532469 7895158 3
0.098910 0.210671 0.529049 9079686 3
0.090610 0.220297 0.531313 8093050 3
0.098910 0.219358 0.529049 8948357 3
-0.257988 0.242467 0.694847 5921372 3
-0.241521 0.237494 0.680593 5592664 3
-0.227109 0.234155 0.671027 4868941 3
-0.294003 0.255430 0.699100 3815745 3
-0.280805 0.253876 0.694847 3223606 3
-0.262333 0.247219 0.676627 4473926 3
-0.244204 0.240312 0.657722 5263953 3
-0.288288 0.261720 0.685510 5986399 3
-0.280024 0.264547 0.692913 6710377 3
-0.262333 0.258329 0.676627 5789784 3
-0.351395 0.232473 0.699100 4869193 3
-0.398124 0.237588 0.680863 4933964 3
-0.384652 0.236179 0.676827 4210241 3
-0.372526 0.235539 0.674993 4210752 3
-0.359320 0.234155 0.671027 4408131 3
-0.347366 0.233526 0.669224 4539458 3
-0.336378 0.233526 0.669224 4605508 3
-0.327319 0.234910 0.673190 4342851 3
-0.322901 0.239839 0.687313 3947582 3
-0.309995 0.249817 0.683738 5263442 3
-0.304636 0.254724 0.697167 7500150 3
0.101957 0.188987 0.597847 7170926 3
0.112174 0.189666 0.599994 7828854 3
0.104562 0.185978 0.559280 9276300 3
0.114308 0.186898 0.562046 7631988 3
0.125055 0.189196 0.568957 7631990 3
0.140760 0.198154 0.595894 8552581 3
0.102124 0.190609 0.546235 7368303 3
0.110443 0.189495 0.543043 8158332 3
0.119959 0.190447 0.545771 7763576 3
0.131245 0.193882 0.555613 7565686 3
0.110182 0.197942 0.541758 10263708 3
0.119256 0.198240 0.542573 9539987 3
0.129059 0.199623 0.546359 9473683 3
0.190085 0.188948 0.517143 9935256 3
0.195273 0.185805 0.508540 9540498 3
0.189213 0.196533 0.514769 9408912 3
0.192695 0.191592 0.501827 8816775 3
0.081895 0.188001 0.594726 7631737 3
0.091790 0.188268 0.595573 6710634 3
0.061203 0.194080 0.583644 9013641 3
0.070868 0.194306 0.584322 9737112 3
0.080462 0.194306 0.584322 9342354 3
0.089826 0.193809 0.582829 8947850 3
0.096598 0.188355 0.566427 8881544 3
0.069049 0.198665 0.569320 8355713 3
0.077552 0.196526 0.563191 9079436 3
0.085854 0.194385 0.557057 9737366 3
0.093688 0.191700 0.549361 10263195 3
0.490207 0.155919 0.520261 5131341 3
0.463138 0.163950 0.518646 6184029 3
0.473320 0.164530 0.520478 6512994 3
0.484486 0.165424 0.523308 5723732 3
0.486971 0.163375 0.516826 5855575 3
0.453474 0.168867 0.507823 7763061 3
0.462476 0.169110 0.508554 8223612 3
0.480070 0.172430 0.518538 7434350 3
0.447216 0.174760 0.500816 5262927 3
0.403264 0.202291 0.674993 5789786 3
0.415693 0.202949 0.677186 6710634 3
0.429129 0.204050 0.680863 7105393 3
0.441751 0.204719 0.683094 7500663 3
0.455447 0.205840 0.686835 7631990 3
0.462557 0.204002 0.680703 5657947 3
0.207923 0.206409 0.688735 6052445 3
0.217320 0.204610 0.682729 7500402 3
0.229280 0.205281 0.684969 6777190 3
0.239740 0.204610 0.682729 7435122 3
0.253309 0.206533 0.689147 7632249 3
0.267703 0.208937 0.697167 6711145 3
0.203270 0.201936 0.607267 8750471 3
0.214802 0.203414 0.611713 8355713 3
0.201657 0.210224 0.602447 9013643 3
0.212263 0.210934 0.604482 8684678 3
0.221387 0.210174 0.602302 8487810 3
0.161813 0.205296 0.685020 7171439 3
0.186951 0.208241 0.694847 6446435 3
0.197808 0.207662 0.692913 8157823 3
0.153752 0.202377 0.608594 8618370 3
0.163506 0.202082 0.607709 8487299 3
0.173274 0.201837 0.606971 8816264 3
0.183240 0.201837 0.606971 8750469 3
0.193205 0.201837 0.606971 7763574 3
0.162052 0.210174 0.602302 6776679 3
0.172397 0.210732 0.603900 7763574 3
0.182488 0.210934 0.604482 7434609 3
0.191719 0.210174 0.602302 8553092 3
0.161858 0.219799 0.601580 8355711 3
0.171941 0.220063 0.602302 8882055 3
0.181786 0.220010 0.602157 8684678 3
0.161858 0.229677 0.601580 8618624 3
0.171941 0.229952 0.602302 8881796 3
0.181786 0.229897 0.602157 10921125 3
0.303408 0.166779 0.588754 6315619 3
0.303292 0.176378 0.588529 4999757 3
0.318163 0.179314 0.598323 6249054 3
0.301744 0.185092 0.585526 7237230 3
0.384784 0.183431 0.580271 5724253 3
0.303850 0.190011 0.571407 7763576 3
0.347190 0.178527 0.536872 7106420 3
0.351361 0.176198 0.529868 4276807 3
0.355972 0.174197 0.523850 4144708 3
0.365719 0.174745 0.525498 5723482 3
0.371554 0.173441 0.521576 5855325 3
0.377797 0.172382 0.518393 5197649 3
0.323208 0.183731 0.526524 8224901 3
0.330099 0.182760 0.523741 6514285 3
0.337508 0.182118 0.521901 6843761 3
0.336208 0.176924 0.507017 6975089 3
0.341486 0.175359 0.502533 7105905 3
0.357769 0.179387 0.514074 4868430 3
0.366884 0.179717 0.515021 3092273 3
0.375396 0.179744 0.515097 4342338 3
0.359395 0.184332 0.504509 6776938 3
0.004973 0.221845 0.783145 7369329 3
0.057547 0.239447 0.798972 6317668 3
0.005053 0.251538 0.795722 7565684 3
0.031193 0.251625 0.795997 6316389 3
0.043381 0.246610 0.780134 6513256 3
0.055837 0.245063 0.775240 7435638 3
0.068104 0.243411 0.770014 7369329 3
0.005073 0.265683 0.798972 6315617 3
0.018065 0.263838 0.793423 6644841 3
0.030781 0.261192 0.785464 6842733 3
0.005022 0.275986 0.790901 8157823 3
0.017884 0.274088 0.785464 7632247 3
0.030029 0.267395 0.766283 7434868 3
0.004956 0.285196 0.780569 9473940 3
0.017587 0.282225 0.772437 9342865 3
0.017884 0.299881 0.785464 9541012 3
0.052218 0.288698 0.724993 7631988 3
0.064122 0.288698 0.724993 8750467 3
-0.517043 0.219644 0.775375 2565416 3
-0.566886 0.221982 0.740695 2697774 3
-0.594927 0.235616 0.745353 2368550 3
-0.595433 0.240769 0.761655 2368809 3
-0.559950 0.231278 0.731633 2894894 3
-0.552702 0.235098 0.706995 3289911 3
0.578271 0.211742 0.793472 3684156 3
0.535338 0.203498 0.718376 5263442 3
0.566011 0.227629 0.759538 6645606 3
0.598642 0.235561 0.786007 7236978 3
0.561048 0.237994 0.752877 6842474 3
0.541467 0.241618 0.726601 5789786 3
0.539308 0.252537 0.723704 5855579 3
-0.428275 0.207082 0.776006 2696232 3
-0.421382 0.209996 0.786927 4143678 3
-0.460528 0.211240 0.745707 3025969 3
-0.446562 0.210428 0.742841 2631211 3
-0.428518 0.207596 0.732842 3486777 3
-0.420845 0.209769 0.740513 5526101 3
-0.428275 0.219823 0.776006 5327952 3
-0.421382 0.222916 0.786927 5723480 3
-0.408590 0.222987 0.787175 6776427 3
-0.402004 0.226559 0.799787 4803402 3
-0.470118 0.211285 0.705005 1512987 3
-0.450574 0.212991 0.710694 4079168 3
-0.450745 0.218736 0.729866 3815483 3
-0.441841 0.220272 0.734989 3683897 3
-0.427890 0.219306 0.731768 4012862 3
-0.420450 0.221719 0.739818 5262929 3
-0.421869 0.229086 0.764399 4802378 3
-0.414484 0.231977 0.774046 4276547 3
-0.402903 0.232628 0.776219 4935504 3
-0.471844 0.223679 0.707593 5921118 3
-0.459447 0.223301 0.706396 6118751 3
-0.450271 0.224508 0.710215 4539719 3
-0.445162 0.227862 0.720826 3289141 3
-0.437226 0.229912 0.727311 4275266 3
-0.426150 0.230381 0.728792 4276036 3
-0.421060 0.234205 0.740891 5065550 3
-0.420447 0.240822 0.761822 3947582 3
-0.413852 0.244312 0.772865 5329233 3
-0.402774 0.245294 0.775970 3487540 3
-0.432361 0.239163 0.719220 4407622 3
-0.427521 0.243126 0.731136 4539206 3
-0.421292 0.246506 0.741300 4210241 3
-0.411800 0.248120 0.746155 5131856 3
-0.403517 0.250584 0.753566 3750201 3
0.647993 0.200129 0.799121 3486518 3
0.646648 0.212808 0.797464 2170660 3
0.649888 0.209629 0.785553 1511958 3
0.630404 0.220226 0.777431 5723482 3
0.626672 0.214578 0.757490 4407620 3
0.619042 0.207841 0.733707 4998987 3
0.608283 0.200329 0.707191 4210239 3
0.620482 0.239003 0.797490 6710637 3
0.638963 0.236154 0.787986 7960701 3
0.639037 0.231495 0.772437 7697270 3
0.611569 0.217233 0.724849 6644580 3
0.606595 0.251768 0.796449 6184290 3
0.621634 0.252565 0.798972 6842221 3
0.634753 0.252565 0.798972 6842480 3
0.647871 0.252565 0.798972 6513256 3
0.608516 0.265683 0.798972 6250083 3
0.621634 0.265683 0.798972 4868431 3
0.607802 0.204260 0.815617 5854813 3
0.621397 0.204327 0.815884 5854813 3
0.637700 0.205263 0.819620 4538439 3
0.645461 0.203467 0.812450 2697004 3
0.617450 0.221107 0.828563 2434089 3
0.628770 0.220307 0.825565 3157300 3
0.640848 0.219800 0.823666 3749437 3
0.645255 0.216738 0.812191 2631211 3
0.617087 0.229516 0.810225 6644841 3
0.636544 0.231757 0.818134 5657434 3
0.644003 0.229627 0.810615 5394775 3
0.647150 0.244123 0.814577 6908014 3
0.643844 0.269489 0.810415 6579310 3
0.652089 0.267413 0.804173 6579051 3
0.619192 0.283693 0.812989 5000016 3
0.634585 0.298002 0.815617 5921118 3
0.359473 0.174691 0.697547 6973294 3
0.360901 0.169970 0.678694 7894909 3
0.371117 0.169546 0.677002 4407879 3
0.381614 0.169272 0.675906 3749692 3
0.393348 0.169546 0.677002 4933196 3
0.317250 0.181642 0.680674 6974060 3
0.318315 0.176050 0.659719 6711147 3
0.328628 0.175772 0.658680 6974319 3
0.344695 0.178492 0.668870 7763065 3
0.352849 0.177073 0.663553 7960444 3
0.363841 0.177120 0.663729 10131870 3
0.378454 0.178876 0.670309 6776170 3
0.390498 0.179353 0.672096 7170928 3
0.395592 0.192871 0.680863 7828856 3
0.232306 0.216232 0.863419 7894649 3
0.241998 0.212298 0.847709 7105644 3
0.254171 0.210849 0.841927 7698292 3
0.268177 0.210993 0.842499 7237741 3
0.287034 0.214752 0.857508 7633528 3
0.297672 0.212298 0.847709 6317157 3
0.207917 0.234886 0.880199 7434098 3
0.214951 0.227051 0.850838 6841191 3
0.227672 0.225812 0.846193 6906984 3
0.238590 0.223030 0.835769 8092028 3
0.250552 0.221474 0.829940 9210507 3
0.263917 0.221255 0.829117 6710884 3
0.280311 0.223472 0.837425 5988444 3
0.294061 0.223472 0.837425 6251364 3
0.203167 0.243642 0.860092 7105133 3
0.229577 0.227809 0.804197 6446433 3
0.247924 0.232635 0.821236 7236203 3
0.260979 0.232253 0.819887 7171178 3
0.271704 0.229937 0.811711 7171948 3
-0.253769 0.247911 0.989916 6053469 3
-0.269114 0.263275 0.986583 5329233 3
-0.234101 0.243690 0.913191 5132365 3
-0.285730 0.264847 0.934947 4473411 3
-0.268376 0.262884 0.928019 4210241 3
-0.373128 0.251678 1.004956 4276032 3
-0.370914 0.261760 1.045215 5394513 3
-0.372181 0.275397 1.099666 5526101 3
-0.307592 0.266371 1.063625 5657687 3
-0.325352 0.269608 1.010315 5591376 3
-0.321875 0.281057 1.053215 5854550 3
-0.303088 0.279678 1.048049 5986652 3
-0.385887 0.239134 0.954868 4341059 3
-0.376572 0.243244 0.971280 3749688 3
-0.334832 0.240654 0.901814 6447201 3
-0.344677 0.259192 0.971280 5328720 3
-0.314141 0.247689 0.928177 5460306 3
-0.395539 0.210849 0.841927 2697765 3
-0.380312 0.210074 0.838832 1907999 3
-0.391331 0.222283 0.832970 5921622 3
-0.376280 0.221474 0.829940 5855577 3
-0.345822 0.228356 0.855729 4670024 3
-0.332720 0.229009 0.858174 6118238 3
-0.394515 0.229847 0.811391 5066059 3
-0.385331 0.232342 0.820199 5592403 3
-0.373679 0.233476 0.824202 6052956 3
-0.358850 0.232635 0.821236 4539719 3
-0.348937 0.235040 0.829726 4670794 3
-0.343362 0.240682 0.849641 5065552 3
-0.330545 0.241510 0.852564 6381410 3
-0.324709 0.247737 0.874548 5460308 3
-0.308626 0.246361 0.869691 4078653 3
-0.379369 0.242006 0.807510 4737094 3
-0.370519 0.244919 0.817232 5329744 3
-0.355708 0.243964 0.814046 5329235 3
-0.345278 0.246056 0.821025 5197395 3
-0.339676 0.251899 0.840520 6118238 3
-0.326642 0.252492 0.842499 6381669 3
-0.317182 0.256021 0.854276 4868684 3
-0.301414 0.254551 0.849369 4342338 3
-0.310984 0.253558 0.802112 5855325 3
0.414431 0.162335 0.693685 2697261 3
0.424069 0.161667 0.690832 3486777 3
0.401440 0.168278 0.671940 4538439 3
0.413240 0.168592 0.673190 3881023 3
0.426696 0.169546 0.677002 2104867 3
0.440036 0.170408 0.680442 2500134 3
0.458312 0.168908 0.674455 3092271 3
0.461073 0.165917 0.662510 2631981 3
0.400353 0.178826 0.670122 8223616 3
0.413579 0.179792 0.673743 6249571 3
0.431003 0.182486 0.683836 6381412 3
0.442110 0.182436 0.683650 5329233 3
0.451487 0.181692 0.680863 5789782 3
0.462417 0.181594 0.680496 6447716 3
0.467000 0.179067 0.671027 4474185 3
0.481785 0.180479 0.676315 6316389 3
0.405560 0.192297 0.678836 8092030 3
0.417613 0.192716 0.680315 7170673 3
0.432893 0.194563 0.686835 7105393 3
0.444293 0.194617 0.687024 7303025 3
0.457204 0.195313 0.689484 6118749 3
0.463172 0.193082 0.681608 5986911 3
0.470396 0.191467 0.675906 4737358 3
0.458161 0.182189 0.643153 6119010 3
0.456507 0.177442 0.626394 5592407 3
0.458938 0.197631 0.659443 5790046 3
0.448379 0.188633 0.629421 6119010 3
0.459293 0.188872 0.630216 5658711 3
0.435764 0.193370 0.611713 7039342 3
0.448427 0.194506 0.615307 5987165 3
0.322286 0.205188 0.876806 6382180 3
0.308328 0.210074 0.838832 7566456 3
0.321668 0.209792 0.837706 7434358 3
0.337113 0.210849 0.841927 7105392 3
0.345857 0.207798 0.829741 7237489 3
0.354523 0.204932 0.818300 6514534 3
0.305471 0.221773 0.831060 7237492 3
0.316483 0.219943 0.824202 6644841 3
0.330016 0.219943 0.824202 6118497 3
0.341088 0.218368 0.818300 6250594 3
0.326578 0.231044 0.815617 6119010 3
0.005592 0.206102 0.880709 9013641 3
0.005656 0.223071 0.890728 6382948 3
0.005561 0.233719 0.875826 8027773 3
0.019952 0.248236 0.876307 5921883 3
0.035149 0.254079 0.896934 6580329 3
0.047443 0.241685 0.853182 7040880 3
0.063746 0.250713 0.885051 6515049 3
0.078695 0.252048 0.889764 7171950 3
0.094252 0.254608 0.898804 5460819 3
0.005114 0.241380 0.805422 6579300 3
0.018583 0.244596 0.816153 6908778 3
0.032257 0.246690 0.823140 6645352 3
0.044571 0.240218 0.801546 7106673 3
0.073833 0.250183 0.834795 6842985 3
0.018379 0.255169 0.807208 8092541 3
-0.093753 0.202055 0.863419 5000527 3
-0.079907 0.202894 0.867004 4540744 3
-0.065898 0.203593 0.869991 5329235 3
-0.051613 0.203593 0.869991 5591892 3
-0.037329 0.203593 0.869991 8092026 3
-0.023045 0.203593 0.869991 8618370 3
-0.008766 0.203736 0.870602 9144716 3
-0.091419 0.210849 0.841927 6776166 3
-0.077937 0.211778 0.845634 6382434 3
-0.064862 0.214454 0.856320 7303536 3
-0.051328 0.216674 0.865185 6250335 3
-0.037265 0.217502 0.868489 7631988 3
-0.023045 0.217878 0.869991 7435122 3
-0.008773 0.218187 0.871227 8027005 3
-0.088505 0.217512 0.815091 7368816 3
-0.008355 0.221437 0.829801 6777192 3
-0.087935 0.229406 0.809836 7434611 3
-0.087320 0.241006 0.804173 5789786 3
-0.197684 0.206971 0.884426 4934475 3
-0.182197 0.205881 0.879766 5394774 3
-0.166414 0.204238 0.872746 4671565 3
-0.150767 0.202469 0.865185 6119778 3
-0.136561 0.202469 0.865185 5264978 3
-0.123295 0.204024 0.871831 5790295 3
-0.108941 0.203949 0.871510 4802637 3
-0.193383 0.216674 0.865185 4539976 3
-0.179177 0.216674 0.865185 5197395 3
-0.164293 0.215782 0.861623 3882049 3
-0.149119 0.214306 0.855729 4211783 3
-0.135069 0.214306 0.855729 5526871 3
-0.121060 0.214380 0.856023 4474437 3
-0.107411 0.215194 0.859274 5460819 3
-0.191269 0.228356 0.855729 3618874 3
-0.178566 0.230091 0.862230 5131602 3
-0.164293 0.229929 0.861623 4474185 3
-0.149119 0.228356 0.855729 6908526 3
-0.134065 0.226659 0.849369 5461078 3
-0.119670 0.225812 0.846193 6777192 3
-0.105037 0.224234 0.840283 6644580 3
-0.186436 0.236280 0.834102 5066063 3
-0.177588 0.242910 0.857508 5723993 3
-0.163954 0.243573 0.859846 6315876 3
-0.147922 0.240461 0.848862 6052958 3
-0.128737 0.231044 0.815617 6053215 3
-0.115346 0.231044 0.815617 7171696 3
-0.101954 0.231044 0.815617 7171439 3
-0.193678 0.241915 0.807208 6974060 3
-0.180424 0.241915 0.807208 5658200 3
-0.169590 0.245417 0.818892 5986652 3
-0.157158 0.247008 0.824202 6512996 3
-0.144675 0.248815 0.830230 6447203 3
-0.130525 0.247829 0.826942 6447716 3
-0.116560 0.247008 0.824202 5724250 3
-0.102289 0.245239 0.818300 5921629 3
0.311544 0.212973 0.978740 4737609 3
0.327614 0.212973 0.978740 5132885 3
0.339441 0.210343 0.966657 7040882 3
0.346750 0.205275 0.943364 5658457 3
0.311784 0.217975 0.931448 7304565 3
0.319611 0.212999 0.910185 6383463 3
0.209877 0.207778 0.954868 6316130 3
0.225555 0.207778 0.954868 6645095 3
0.238327 0.205275 0.943364 6184544 3
0.260083 0.210343 0.966657 5131856 3
0.275954 0.210343 0.966657 5658200 3
0.295474 0.212973 0.978740 5395539 3
0.208139 0.221605 0.946959 7960953 3
0.222838 0.220764 0.943364 6579302 3
0.236376 0.218957 0.935643 6381923 3
0.250794 0.218136 0.932133 7368816 3
0.266099 0.218136 0.932133 7566708 3
0.281404 0.218136 0.932133 7303534 3
0.296708 0.218136 0.932133 7172718 3
0.205501 0.234148 0.934958 6249822 3
0.215855 0.228850 0.913803 7697270 3
0.227722 0.225740 0.901386 8222844 3
0.102634 0.212973 0.978740 5721683 3
0.120207 0.215668 0.991129 6380640 3
0.136480 0.215668 0.991129 6250594 3
0.152754 0.215668 0.991129 7368814 3
0.157096 0.200445 0.921167 6447462 3
0.172220 0.200445 0.921167 5394262 3
0.196597 0.210343 0.966657 5987165 3
0.102634 0.229043 0.978740 7368303 3
0.118704 0.229043 0.978740 5657689 3
0.134774 0.229043 0.978740 6447462 3
0.150844 0.229043 0.978740 5855575 3
0.166914 0.229043 0.978740 6776427 3
0.181431 0.227098 0.970433 6644584 3
0.194948 0.224318 0.958552 7171437 3
0.100288 0.239508 0.956360 4144957 3
0.118704 0.245112 0.978740 5394774 3
0.134774 0.245112 0.978740 5724252 3
0.150844 0.245112 0.978740 5263442 3
0.165497 0.243032 0.970433 7039599 3
0.179210 0.240057 0.958552 6381157 3
0.192591 0.237153 0.946959 6645093 3
0.113052 0.248745 0.932133 7303284 3
0.128356 0.248745 0.932133 7763835 3
0.148600 0.257296 0.964176 7697783 3
0.160164 0.250620 0.939159 6513255 3
0.172157 0.245729 0.920830 6315619 3
0.185505 0.243404 0.912120 6710888 3
0.199901 0.242700 0.909480 6184542 3
0.113052 0.264050 0.932133 6250596 3
0.128356 0.264050 0.932133 7237489 3
-0.767827 0.250556 1.151459 2039332 3
-0.748921 0.250556 1.151459 2762795 3
-0.719435 0.246925 1.134771 2500136 3
-0.721723 0.254296 1.168645 1841952 3
-0.702535 0.254296 1.168645 2039844 3
-0.748921 0.269462 1.151459 2894379 3
-0.730015 0.269462 1.151459 2171171 3
-0.733674 0.278012 1.187996 3618363 3
0.907941 0.167577 0.832970 1972512 1
0.921618 0.167577 0.832970 1907746 1
0.935295 0.167577 0.832970 1973798 1
0.907941 0.181253 0.832970 1446168 1
0.921618 0.181253 0.832970 1315609 1
0.935295 0.181253 0.832970 2236970 1
0.938437 0.195585 0.835769 1447197 1
0.948971 0.194930 0.832970 2368297 1
0.708129 0.148606 0.738672 2434089 1
0.752503 0.154889 0.711811 3223348 1
0.771201 0.156310 0.718341 2959406 1
0.700434 0.168105 0.718341 4342340 3
0.703572 0.180705 0.721559 5064780 3
0.648448 0.179002 0.889764 2432803 1
0.663057 0.179002 0.889764 4209214 1
0.605469 0.189309 0.869991 5394262 3
0.612943 0.187229 0.860431 4998989 3
0.607057 0.181253 0.832970 3748920 3
0.614200 0.179345 0.824202 2433060 3
0.627732 0.179345 0.824202 1511960 3
0.661368 0.177477 0.815617 3683648 3
0.601536 0.188901 0.807208 5130573 3
0.617181 0.189636 0.810348 2762027 3
0.634176 0.190746 0.815091 4670024 3
0.639036 0.188235 0.804362 2960176 3
0.464215 0.160737 0.798972 2171430 1
0.477333 0.160737 0.798972 2829361 1
0.405573 0.156310 0.718341 5263188 3
0.415461 0.155596 0.715061 5460567 3
0.425260 0.154889 0.711811 4868430 3
0.438943 0.155596 0.715061 4408133 3
0.493498 0.170378 0.782992 5723991 3
0.407782 0.164244 0.701845 4407620 3
0.459011 0.170429 0.728274 5197649 3
0.480820 0.173994 0.743508 4671303 3
0.474543 0.179221 0.715632 3224109 3
0.040109 0.205911 1.023519 4210243 3
0.055820 0.201951 1.003836 5526360 3
0.073720 0.205911 1.023519 5395028 3
0.073241 0.221270 1.016873 5789273 3
0.088645 0.234548 1.002267 6118749 3
0.022711 0.200665 0.997442 5920859 3
0.005849 0.200445 0.921167 7566195 3
0.021224 0.202831 0.932133 7566197 3
0.038596 0.214312 0.984896 7237232 3
0.055114 0.215668 0.991129 4408392 3
0.086564 0.212973 0.978740 5919832 3
0.020544 0.211152 0.902289 7369329 3
0.035679 0.213063 0.910456 6250594 3
0.051495 0.216715 0.926061 5790045 3
0.069538 0.225933 0.965454 6250594 3
0.020776 0.228516 0.912472 7764601 3
0.035887 0.229345 0.915780 7106673 3
0.051588 0.232336 0.927725 6448743 3
0.068256 0.237328 0.947656 6119780 3
0.084453 0.239134 0.954868 5856090 3
0.020813 0.243937 0.914116 6514534 3
0.035874 0.244292 0.915447 6514536 3
0.050646 0.243049 0.910789 7107186 3
0.066009 0.244562 0.916458 6317416 3
0.081924 0.247182 0.926277 7895673 3
0.096669 0.246002 0.921853 7829365 3
-0.694777 0.204574 1.016873 986392 3
-0.678081 0.204574 1.016873 2434603 3
-0.661385 0.204574 1.016873 1907486 3
-0.653172 0.207266 1.030253 2631722 3
-0.644739 0.210029 1.043989 3486777 3
-0.644793 0.215784 1.072592 2500395 3
-0.627182 0.215784 1.072592 1579293 3
0.609164 0.121568 0.657977 1908005 1
0.641532 0.125797 0.680863 1908005 1
0.601323 0.140645 0.699100 1710369 1
0.605999 0.134061 0.666376 1184023 1
0.635882 0.138177 0.686835 1381915 1
0.605999 0.145003 0.666376 2697774 3
0.635882 0.149454 0.686835 1974051 1
0.609190 0.162638 0.694980 3947329 3
0.623767 0.160516 0.685914 2764337 3
0.623264 0.157542 0.673206 3092019 3
0.655995 0.162926 0.696213 3947580 3
0.610798 0.174508 0.696815 3683644 3
0.615024 0.172484 0.688735 5197655 3
0.617201 0.169970 0.678694 3619391 3
0.617637 0.167073 0.667128 3092273 3
0.686840 0.173486 0.692735 5065552 3
0.607135 0.184834 0.692636 3223093 3
0.606057 0.181113 0.678694 1907746 3
0.606683 0.178027 0.667128 3421497 3
0.605410 0.195649 0.690668 3289141 3
0.609333 0.193296 0.682362 2499882 3
0.606683 0.188980 0.667128 3881789 3
0.581642 0.122598 0.663553 1644833 1
0.579188 0.132930 0.660753 2565678 1
0.592537 0.133493 0.663553 2039332 1
0.568219 0.149454 0.686835 3420222 3
0.569505 0.146878 0.674993 3223095 3
0.578096 0.146247 0.672096 3355194 3
0.584117 0.145003 0.666376 3552571 3
0.592537 0.144388 0.663553 2631982 3
0.593836 0.155624 0.665008 2631981 3
0.354254 0.163465 0.884737 2434090 1
0.358649 0.158974 0.860431 1512479 1
0.364760 0.155555 0.841927 1447197 1
0.352264 0.176991 0.879766 5065297 3
0.358649 0.173101 0.860431 4604746 3
0.362809 0.168473 0.837425 5263189 3
0.362972 0.162394 0.807208 3882563 3
0.326803 0.185194 0.851078 5066063 3
0.344522 0.187229 0.860431 8026237 3
0.349060 0.182223 0.837425 4736844 3
0.351530 0.176558 0.811391 2829360 3
0.326803 0.199167 0.851078 6644582 3
0.339397 0.198361 0.847631 5657687 3
0.343070 0.192609 0.823054 6118751 3
0.199054 0.180833 0.978740 2368296 1
0.103934 0.199395 0.991129 7168875 3
0.166914 0.196903 0.978740 3420984 3
0.182984 0.196903 0.978740 4275781 3
0.199054 0.196903 0.978740 3552570 3
-0.052193 0.162546 0.879766 2433577 1
-0.038396 0.165333 0.894848 1709340 1
-0.097724 0.181060 0.899991 3289911 1
-0.052488 0.177991 0.884737 1775130 3
-0.038177 0.179002 0.889764 2301474 3
-0.023839 0.181060 0.899991 2235683 3
-0.097166 0.194718 0.894848 2566186 3
-0.082947 0.195837 0.899991 4277574 3
-0.053088 0.194718 0.894848 7170924 3
-0.038396 0.194718 0.894848 8157819 3
-0.023839 0.195837 0.899991 8420991 3
-0.272272 0.209661 1.134771 3288372 1
-0.253640 0.209661 1.134771 2039074 1
-0.238464 0.212744 1.151459 2499882 1
-0.219558 0.212744 1.151459 3157812 1
-0.299587 0.235108 1.168645 2761774 3
-0.264602 0.221862 1.102806 2959406 3
-0.253640 0.228293 1.134771 4407618 3
-0.235008 0.228293 1.134771 2894894 3
-0.216376 0.228293 1.134771 3552824 3
-0.286748 0.243397 1.118560 4341829 3
-0.430790 0.224289 1.213941 2368296 3
-0.427425 0.233332 1.262890 2236710 3
-0.406689 0.233332 1.262890 3223093 3
-0.444575 0.272605 1.252787 3091760 3
-0.416772 0.281617 1.294202 3485748 3
-0.490724 0.284165 1.214287 2631209 3
-0.574767 0.226041 1.223425 2434603 3
-0.554680 0.226041 1.223425 2040361 3
-0.560884 0.237158 1.283594 2631982 3
-0.534592 0.246128 1.223425 2368810 3
-0.539808 0.258233 1.283594 3025714 3
-0.539808 0.279308 1.283594 4144450 3
-0.741644 0.241110 1.304987 2039585 1
-0.720218 0.262537 1.304987 2302757 3
-0.763071 0.283963 1.304987 2303017 3
-0.741644 0.283963 1.304987 2631468 3
-0.720218 0.283963 1.304987 3420725 3
0.610835 0.155071 0.921167 1644573 1
0.648861 0.160744 0.954868 1973026 1
0.618107 0.172222 0.932133 1645084 1
0.641043 0.174297 0.943364 1447194 1
0.664539 0.176422 0.954868 1972512 1
0.680217 0.176422 0.954868 2761515 1
0.610835 0.185320 0.921167 2895405 1
0.625960 0.185320 0.921167 4539465 1
0.641085 0.185320 0.921167 3485751 1
0.656209 0.185320 0.921167 2761514 1
0.546184 0.149784 0.889764 1250075 1
0.546184 0.164393 0.889764 2368556 1
0.560793 0.164393 0.889764 2039845 1
0.505939 0.165813 0.824202 2763568 1
0.524998 0.167577 0.832970 2631981 1
0.533004 0.179345 0.824202 5526610 3
0.576900 0.189309 0.869991 5000779 3
0.591184 0.189309 0.869991 5987165 3
0.566527 0.195102 0.833705 3881787 3
0.581652 0.195585 0.835769 2763054 3
0.589087 0.193519 0.826942 5328724 3
0.592153 0.190144 0.812519 5064780 3
0.311025 0.173434 1.030253 1775647 1
0.327941 0.173434 1.030253 2368039 1
0.303050 0.185469 1.003836 1512987 1
0.319532 0.185469 1.003836 3157812 1
0.336014 0.185469 1.003836 3486778 1
0.352496 0.185469 1.003836 2039332 1
0.368978 0.185469 1.003836 3223605 1
0.215124 0.164763 0.978740 2039845 1
0.204880 0.172222 0.932133 1776672 1
0.226939 0.177504 0.960726 2960946 1
0.209877 0.192100 0.954868 2960946 3
0.225555 0.192100 0.954868 3947839 3
0.244211 0.194472 0.966657 3224116 3
0.263334 0.196903 0.978740 4999759 3
0.279404 0.196903 0.978740 4473672 3
0.295474 0.196903 0.978740 3092273 3
0.216658 0.179334 1.065295 2500136 1
0.240202 0.171182 1.016873 2434603 1
0.263748 0.175747 1.043989 1710109 1
0.273594 0.171182 1.016873 2104097 1
0.294109 0.173434 1.030253 1906719 1
0.253604 0.185469 1.003836 2171428 1
0.270086 0.185469 1.003836 3815485 1
0.286568 0.185469 1.003836 1973026 1
0.110956 0.178122 1.058097 3486518 1
0.199166 0.179334 1.065295 2697002 1
0.105266 0.185469 1.003836 3287088 1
0.123329 0.187878 1.016873 3158064 1
0.148716 0.199540 1.079989 2500645 1
0.165309 0.198173 1.072592 3092269 1
0.182920 0.198173 1.072592 2894894 1
0.195183 0.192888 1.043989 3354679 1
-0.084899 0.155071 0.921167 2763565 1
-0.068564 0.152382 0.905193 2895921 1
-0.024988 0.158807 0.943364 3222579 1
-0.084899 0.170195 0.921167 2040359 1
-0.068564 0.167244 0.905193 1908258 1
-0.024257 0.169200 0.915780 1709340 1
-0.083427 0.182106 0.905193 2500910 1
-0.068564 0.182106 0.905193 2236710 3
-0.009221 0.184236 0.915780 3946301 3
-0.068564 0.196969 0.905193 4276547 3
-0.009168 0.198114 0.910456 8355200 3
-0.284648 0.180234 1.186352 2170917 1
-0.257370 0.174933 1.151459 2368809 1
-0.238464 0.174933 1.151459 2171431 1
-0.219558 0.174933 1.151459 2565935 1
-0.200653 0.174933 1.151459 2829107 1
-0.276276 0.193839 1.151459 1841695 1
-0.253640 0.191029 1.134771 2763054 1
-0.238464 0.193839 1.151459 2697262 1
-0.219558 0.193839 1.151459 2170920 1
-0.073111 0.211687 0.793265 5790297 3
-0.059606 0.209996 0.786927 6514020 3
-0.047344 0.212957 0.798024 5789786 3
-0.034217 0.212808 0.797464 8158332 3
-0.020839 0.209940 0.786718 6579813 3
-0.073111 0.224712 0.793265 7105646 3
-0.059606 0.222916 0.786927 7829626 3
-0.046685 0.222916 0.786927 7434611 3
-0.033765 0.222916 0.786927 7829369 3
-0.020831 0.222778 0.786437 6710886 3
-0.007818 0.219947 0.776445 7237230 3
-0.072624 0.236154 0.787986 5197649 3
-0.059308 0.234658 0.782992 5789786 3
-0.046452 0.234658 0.782992 6118497 3
-0.033607 0.234732 0.783238 5526614 3
-0.020838 0.235763 0.786681 6052443 3
-0.007884 0.234658 0.782992 7829108 3
-0.059327 0.247592 0.783238 4670794 3
-0.046685 0.248758 0.786927 6842220 3
-0.033765 0.248758 0.786927 6644841 3
-0.020917 0.249621 0.789659 5197136 3
-0.007936 0.249150 0.788169 8288637 3
-0.058795 0.258117 0.776219 5855066 3
-0.046892 0.262835 0.790407 7829369 3
-0.033596 0.260370 0.782992 3421238 3
-0.020884 0.262178 0.788430 4999757 3
-0.008020 0.264845 0.796449 6578019 3
-0.032773 0.266533 0.763812 7435122 3
-0.020676 0.272380 0.780569 8749958 3
-0.007939 0.275123 0.788430 9144716 3
-0.031511 0.268326 0.734397 8685187 3
-0.019566 0.269888 0.738672 9342606 3
-0.007691 0.279074 0.763812 8552579 3
-0.019204 0.276794 0.724993 7633015 3
-0.007648 0.289983 0.759538 8487810 3
-1.137186 0.313037 2.060506 2103331 1
-1.103355 0.313037 2.060506 1905701 1
-1.171018 0.346869 2.060506 1512728 1
-1.137186 0.346869 2.060506 1117717 1
-1.103355 0.346869 2.060506 788502 1
-0.661385 0.154486 1.016873 1446168 1
-0.666323 0.159670 1.050996 2433062 1
-0.669388 0.168987 1.003836 1644573 1
-0.661385 0.171182 1.016873 788238 1
-0.666323 0.176926 1.050996 1446167 1
-0.649066 0.176926 1.050996 1907486 1
-0.690295 0.186666 1.010312 1183771 1
-0.673706 0.186666 1.010312 2039845 1
-0.661385 0.187878 1.016873 1249558 1
-0.661881 0.192888 1.043989 1446937 1
-0.653452 0.195495 1.058097 1644827 1
0.641327 0.107170 0.790901 1643293 1
0.696001 0.148606 0.738672 2368809 1
0.676845 0.156310 0.718341 2960687 1
0.698249 0.158491 0.728365 2500136 1
0.644888 0.186113 0.795293 3946816 3
0.608885 0.172235 0.735991 4144197 3
0.611690 0.169661 0.724993 3288886 3
0.612007 0.166509 0.711522 2565163 3
0.673225 0.164342 0.702262 4473924 3
0.608885 0.184319 0.735991 2367269 3
0.607832 0.180420 0.720420 3288371 3
0.610219 0.177671 0.709443 4210243 3
0.607832 0.192248 0.720420 2959404 3
0.610219 0.189319 0.709443 2631209 3
0.155678 0.173932 1.283594 2368297 1
0.173902 0.171126 1.262890 2763054 1
0.191548 0.168410 1.242845 2236711 1
0.134603 0.195007 1.283594 2763054 1
0.149549 0.187330 1.233058 3026480 1
0.168468 0.185866 1.223425 2960685 1
0.188555 0.185866 1.223425 3026480 1
-0.326075 0.201237 1.195408 2302504 1
-0.306448 0.201237 1.195408 2565165 1
-0.343084 0.219191 1.186352 2697004 1
-0.326075 0.220864 1.195408 2959153 1
-0.306448 0.220864 1.195408 3156532 1
-0.354506 0.233366 1.159988 2828590 3
-0.330563 0.229959 1.143054 3814715 3
-0.316414 0.233366 1.159988 3419704 3
-0.359837 0.256208 1.177432 3814713 3
-0.325806 0.245148 1.126607 3552313 3
-0.305114 0.243397 1.118560 3354679 3
-0.396594 0.274221 1.171796 4143678 3
-0.360948 0.276391 1.181068 4275518 3
-0.321902 0.260487 1.113106 4276036 3
-0.360210 0.280129 1.118560 3420207 3
-0.338099 0.277059 1.106303 5525585 3
-0.424402 0.229959 1.143054 3881789 3
-0.417833 0.236875 1.177432 3223859 3
-0.401520 0.238670 1.186352 2433832 3
-0.427522 0.250556 1.151459 3487029 3
-0.457500 0.276145 1.180017 2763306 3
-0.427522 0.269462 1.151459 3157551 3
-0.408617 0.269462 1.151459 3881274 3
-0.787960 0.211033 2.446850 1710620 1
-0.747786 0.211033 2.446850 2039332 1
-0.707611 0.211033 2.446850 2433579 1
-0.787960 0.251207 2.446850 2039331 1
-0.747786 0.251207 2.446850 1578781 1
-0.122345 0.164763 0.978740 3553083 1
-0.101214 0.156917 0.932133 3355704 1
-0.138415 0.180833 0.978740 2434343 1
-0.116519 0.172222 0.932133 3026480 1
-0.100023 0.170195 0.921167 3092533 1
-0.134220 0.190936 0.949081 5066063 1
-0.116519 0.187526 0.932133 3552824 1
-0.157738 0.196969 0.905193 4409160 3
-0.142876 0.196969 0.905193 3751482 3
-0.129511 0.199273 0.915780 3487542 3
-0.581498 0.073403 0.851078 1051928 1
-0.549603 0.071085 0.824202 2038051 1
-0.549603 0.084617 0.824202 1709086 1
-0.563135 0.098150 0.824202 722963 1
-0.555449 0.099194 0.832970 657168 1
0.660626 0.054674 0.782992 1511961 1
0.606078 0.061955 0.718341 1972512 1
0.673482 0.067530 0.782992 986133 1
0.660626 0.080386 0.782992 1972512 1
0.673482 0.080386 0.782992 2894130 1
0.615355 0.094184 0.790901 1644316 1
0.219445 0.056953 0.815617 1775647 1
0.246228 0.056953 0.815617 2105127 1
0.219445 0.070344 0.815617 1117717 1
0.232837 0.070344 0.815617 1907748 1
0.246228 0.070344 0.815617 1776162 1
-0.454702 0.209516 0.699100 2894894 3
-0.477928 0.221119 0.699494 6052704 3
-0.491492 0.218228 0.656263 2697515 3
-0.487636 0.221369 0.665709 3223857 3
-0.484952 0.225199 0.677226 2565416 3
-0.479251 0.227774 0.684969 3815996 3
-0.469279 0.228395 0.686835 4342086 3
-0.460789 0.229784 0.691014 5724252 3
-0.450678 0.230416 0.692913 4408133 3
-0.439301 0.230416 0.692913 4276547 3
-0.430551 0.231830 0.697167 2565418 3
-0.476706 0.232300 0.665709 3158064 3
-0.471010 0.234910 0.673190 2631722 3
-0.466751 0.238380 0.683135 3882046 3
-0.458002 0.239672 0.686835 3882048 3
-0.449443 0.241130 0.691014 5065550 3
-0.436652 0.240334 0.688735 3881276 3
-0.424171 0.239672 0.686835 4999759 3
-0.410425 0.238239 0.682729 5197138 3
-0.463117 0.247654 0.677817 3026737 3
-0.458002 0.250949 0.686835 3488058 3
-0.441430 0.247974 0.678694 3618104 3
-0.425171 0.237579 0.622279 3882046 3
-0.089091 0.051628 0.966657 1184025 1
-0.089091 0.067499 0.966657 1249816 1
-0.069774 0.064323 0.921167 1447708 1
-0.089091 0.083371 0.966657 2368297 1
-0.054649 0.079448 0.921167 2039332 1
0.280694 0.164795 0.581749 6184290 3
0.287309 0.163127 0.575862 4868430 3
0.242469 0.167726 0.559659 7500915 3
0.254269 0.169466 0.565465 5394515 3
0.268551 0.172680 0.576189 5591127 3
0.280694 0.174347 0.581749 8881546 3
0.287309 0.172582 0.575862 8026494 3
0.255190 0.179399 0.567514 8289666 3
0.268789 0.182302 0.576699 8355202 3
0.279656 0.183218 0.579596 9670807 3
0.286191 0.181329 0.573621 9079182 3
0.282058 0.187993 0.565337 8487045 3
0.292797 0.188933 0.568164 9276813 3
0.251550 0.195210 0.559419 10000795 3
0.204244 0.186372 0.510093 8684935 3
0.211205 0.185132 0.506699 8948107 3
0.218856 0.184569 0.505156 8553349 3
0.227748 0.185055 0.506486 8027259 3
0.238916 0.187290 0.512604 9013902 3
0.249369 0.188833 0.516826 8750471 3
0.254413 0.186312 0.509927 9210509 3
0.260015 0.184347 0.504550 9012362 3
0.267757 0.183975 0.503532 8815498 3
0.200770 0.191435 0.501417 9146256 3
0.233188 0.191014 0.500314 8948109 3
0.241402 0.191014 0.500314 8750217 3
0.250167 0.191435 0.501417 8684167 3
-0.123893 0.036661 0.991129 2169637 1
-0.140167 0.052935 0.991129 1184023 1
-0.123893 0.052935 0.991129 1117203 1
-0.106275 0.052273 0.978740 1512477 1
-0.140167 0.069208 0.991129 723471 1
-0.123893 0.069208 0.991129 1973026 1
-0.106275 0.068343 0.978740 1709854 1
0.375823 0.180833 0.978740 3026480 1
0.311544 0.196903 0.978740 5263699 3
0.327614 0.196903 0.978740 6119011 3
0.343684 0.196903 0.978740 2895154 3
0.346750 0.189786 0.943364 3355191 3
0.347582 0.182106 0.905193 3421238 3
0.357444 0.172973 0.794916 3224118 3
0.354309 0.165416 0.760186 3750460 3
0.383744 0.157030 0.721652 5723740 3
0.395593 0.157030 0.721652 4210501 3
0.343117 0.185335 0.791971 5855836 3
0.345585 0.179853 0.768543 5789786 3
0.348135 0.174797 0.746939 4802889 3
0.350318 0.169908 0.726047 4079168 3
0.360464 0.169075 0.722489 2368296 3
0.366530 0.166443 0.711240 3486265 3
0.373524 0.164382 0.702433 2368299 3
0.386683 0.165076 0.705398 2631469 3
0.397037 0.164567 0.703224 3026226 3
0.351921 0.196000 0.782632 4868941 3
0.348102 0.187043 0.746869 7829626 3
0.347603 0.180420 0.720420 6908524 3
0.358293 0.179848 0.718136 7369077 3
0.329939 0.195805 0.733747 6250337 3
0.524455 0.016269 0.790901 1117980 1
0.537440 0.016269 0.790901 2105388 1
0.550426 0.016269 0.790901 855319 1
0.546841 0.015791 0.767639 1447456 1
0.548686 0.015487 0.752877 2039334 1
0.566495 0.015637 0.760186 986646 1
0.524455 0.029255 0.790901 1381153 1
0.532066 0.028963 0.782992 1249824 1
0.544922 0.028963 0.782992 329491 1
0.541532 0.028119 0.760186 987421 1
0.548686 0.027849 0.752877 723220 1
0.550462 0.027323 0.738672 986392 1
0.562590 0.027323 0.738672 1249305 1
0.591458 0.028119 0.760186 1051926 1
0.529806 0.042672 0.798972 1117468 1
0.537440 0.042241 0.790901 131343 1
0.544922 0.041819 0.782992 658457 1
0.546841 0.040999 0.767639 1250594 1
0.559445 0.040999 0.767639 854808 1
0.550462 0.039451 0.738672 2170668 1
0.557333 0.039083 0.731768 1775651 1
0.569347 0.039083 0.731768 2170405 1
0.581362 0.039083 0.731768 1249303 1
0.593377 0.039083 0.731768 1512477 1
0.542924 0.055790 0.798972 1118238 1
0.544922 0.054674 0.782992 658457 1
0.541532 0.053082 0.760186 920859 1
0.543461 0.052071 0.745707 1381153 1
0.545318 0.051098 0.731768 1446946 1
0.552172 0.050624 0.724993 1709604 1
0.564076 0.050624 0.724993 1117719 1
0.570695 0.050160 0.718341 1775649 1
0.582490 0.050160 0.718341 1512477 1
0.594284 0.050160 0.718341 1182996 1
0.529806 0.068909 0.798972 1052185 1
0.542924 0.068909 0.798972 2500146 1
0.541532 0.065564 0.760186 1052188 1
0.543461 0.064315 0.745707 1841704 1
0.545318 0.063113 0.731768 723222 1
0.542133 0.061391 0.711811 1380893 1
0.558901 0.061955 0.718341 1775651 1
0.570695 0.061955 0.718341 2762544 1
0.582490 0.061955 0.718341 920340 1
0.594284 0.061955 0.718341 985617 1
0.558901 0.073749 0.718341 986133 1
0.570695 0.073749 0.718341 1973028 1
0.582490 0.073749 0.718341 920340 1
0.594284 0.073749 0.718341 1380375 1
0.586847 0.087964 0.738672 1972512 1
0.582490 0.085543 0.718341 1248535 1
0.594284 0.085543 0.718341 1841442 1
0.006905 0.183070 1.087489 2762795 1
0.006585 0.191611 1.037076 1972511 1
0.024255 0.196825 1.065295 2169890 1
0.041747 0.196825 1.065295 3091762 1
0.058053 0.192888 1.043989 2960433 1
0.075699 0.194183 1.050996 2368296 1
0.088784 0.185469 1.003836 3090992 1
-0.239742 0.233395 1.072592 4013114 3
-0.222131 0.233395 1.072592 3618617 3
-0.201756 0.230241 1.058097 4210500 3
-0.299907 0.257296 1.099473 4802378 3
-0.266861 0.243609 1.040985 5000270 3
-0.281607 0.258547 1.032385 5066063 3
0.366753 0.043561 0.815617 1974568 1
0.380144 0.043561 0.815617 1644833 1
0.366753 0.056953 0.815617 1710880 1
0.380144 0.056953 0.815617 2170918 1
0.366753 0.070344 0.815617 1907235 1
0.380144 0.070344 0.815617 1315608 1
0.393536 0.070344 0.815617 986644 1
-3.102566 0.100666 4.893701 1643295 1
-3.182915 0.181016 4.893701 853777 1
-3.102566 0.181016 4.893701 854549 1
-0.576829 0.238670 1.186352 1908259 3
-0.549031 0.235108 1.168645 2566703 3
-0.529843 0.235108 1.168645 2040872 3
-0.596307 0.258149 1.186352 2566188 3
-0.543867 0.243397 1.118560 1580061 3
-0.525501 0.243397 1.118560 2962227 3
-0.510655 0.254296 1.168645 3749950 3
0.122703 0.190719 0.603326 9211020 3
0.134226 0.193045 0.610684 7500404 3
0.146210 0.195663 0.618966 6776170 3
0.156372 0.195663 0.618966 8026233 3
0.165637 0.194608 0.615628 8224127 3
0.174332 0.193043 0.610678 7631990 3
0.183240 0.191871 0.606971 8684676 3
0.193205 0.191871 0.606971 7171437 3
-0.071481 0.006916 1.665941 1183771 1
-0.016425 0.006772 1.631234 854806 1
-0.016775 0.034269 1.665941 1118232 1
-0.044128 0.061622 1.665941 1907746 1
-0.016775 0.061622 1.665941 1447195 1
-0.134791 0.007388 1.779528 1841701 1
-0.100983 0.007067 1.702157 1315357 1
-0.193227 0.036606 1.779528 1183771 1
-0.134791 0.036606 1.779528 1315611 1
-0.193227 0.065824 1.779528 1380891 1
-0.134791 0.095042 1.779528 1184282 1
-0.105573 0.095042 1.779528 1052436 1
-0.397664 0.237103 0.791152 5263953 3
-0.386628 0.238307 0.795169 4869193 3
-0.395665 0.248836 0.787175 4672584 3
-0.384552 0.250014 0.790901 4080193 3
-0.374173 0.251768 0.796449 4210754 3
-0.362240 0.252565 0.798972 3882046 3
-0.347903 0.251684 0.796183 3487542 3
-0.333137 0.250411 0.792156 4408644 3
-0.319623 0.250014 0.790901 5197908 3
-0.394404 0.252673 0.759845 4408642 3
-0.344166 0.235379 0.707839 5066574 3
-0.338667 0.239713 0.720873 3881789 3
-0.332963 0.244210 0.734397 4671305 3
-0.322773 0.245632 0.738672 3684667 3
-0.306689 0.242505 0.729267 4737355 3
-0.318046 0.244788 0.701497 3881789 3
-0.310160 0.247688 0.709807 5592153 3
-0.214607 0.209314 0.894438 5197647 3
-0.210198 0.219398 0.876062 4671816 3
-0.206389 0.229546 0.860186 4145472 3
-0.292821 0.245085 0.865185 5986650 3
-0.278616 0.245085 0.865185 5855318 3
-0.244468 0.253879 0.896230 5395026 3
-0.222022 0.245337 0.866074 4474437 3
-0.201217 0.237562 0.838629 5198160 3
-0.286490 0.253684 0.846478 5658196 3
-0.272592 0.253684 0.846478 6382173 3
-0.261625 0.256559 0.856071 5131854 3
-0.241627 0.250401 0.835524 6052958 3
-0.224820 0.247008 0.824202 7171437 3
-0.208293 0.243507 0.812519 7105646 3
-0.299706 0.255169 0.807208 5591894 3
-0.287024 0.255678 0.808818 5460821 3
-0.284002 0.265259 0.839128 5789784 3
-0.268709 0.263771 0.834421 5658709 3
-0.245361 0.253792 0.802853 6777192 3
-0.227880 0.249092 0.787986 7631990 3
-0.216576 0.250987 0.793978 7434609 3
-0.204820 0.252565 0.798972 8289405 3
-0.291140 0.239562 0.720420 4474185 3
-0.278506 0.238871 0.718341 3947071 3
-0.266711 0.238871 0.718341 5329235 3
-0.253324 0.237378 0.713852 4868684 3
-0.240912 0.236700 0.711811 5724504 3
-0.229225 0.236700 0.711811 5921883 3
-0.217538 0.236700 0.711811 5855836 3
-0.203323 0.233794 0.703072 5592407 3
-0.299348 0.248387 0.711811 6447462 3
-0.287661 0.248387 0.711811 6118497 3
-0.272586 0.245338 0.703072 6447716 3
