# .PCD v0.7
VERSION 0.7
FIELDS x y z rgb label
SIZE 4 4 4 4 4
TYPE F F F U U
COUNT 1 1 1 1 1
WIDTH 1235
HEIGHT 1
VIEWPOINT 0 0 0 1 0 0 0
POINTS 1235
DATA ascii
-0.211854 0.218123 0.596994 5330264 3
-0.202874 0.219011 0.599423 5658457 3
-0.287851 0.218642 0.572678 3289648 3
-0.271839 0.213453 0.559086 2369061 3
-0.257151 0.208976 0.547360 7105392 3
-0.246524 0.207596 0.543745 5395028 3
-0.212106 0.228197 0.597704 5461850 3
-0.202874 0.228853 0.599423 6382180 3
-0.282999 0.224201 0.563026 4474435 3
-0.266138 0.217963 0.547360 5330260 3
-0.255452 0.216523 0.543745 5855325 3
-0.240837 0.211528 0.531200 6842474 3
-0.226508 0.206418 0.518368 4539465 3
-0.212029 0.237924 0.597487 5856608 3
-0.200760 0.236207 0.593176 7500661 3
-0.280315 0.231232 0.557687 4409412 3
-0.264958 0.225944 0.544933 5396053 3
-0.249559 0.220250 0.531200 7303282 3
-0.219100 0.244675 0.590110 7237743 3
-0.208917 0.244097 0.588716 7304052 3
-0.279001 0.239262 0.555072 5264467 3
0.170426 0.208321 0.596994 8092030 3
0.180917 0.209119 0.599278 7434098 3
0.149080 0.202448 0.554091 8354430 3
0.166847 0.213543 0.584457 9012362 3
0.180442 0.218383 0.597704 8222844 3
0.132846 0.200761 0.525843 9539985 3
0.172594 0.207013 0.542218 9407118 3
0.179286 0.204491 0.535614 9802646 3
0.185088 0.201238 0.527092 9474194 3
0.113317 0.205297 0.515552 7697781 3
0.121282 0.204455 0.513437 7960953 3
0.130925 0.206366 0.518237 8816262 3
0.142112 0.210329 0.528190 8816010 3
0.171259 0.214245 0.538024 9671060 3
0.178675 0.212558 0.533788 9342608 3
0.186603 0.211610 0.531406 9605780 3
0.194667 0.210895 0.529609 9277072 3
0.123263 0.216362 0.521823 9145229 3
0.131656 0.216076 0.521133 9276815 3
0.142771 0.220018 0.530641 8553351 3
0.172707 0.224965 0.542573 8618372 3
0.181029 0.224239 0.540821 8158334 3
0.187637 0.221557 0.534352 8618631 3
0.195784 0.220850 0.532648 8355972 3
-0.034686 0.204017 0.584658 7961466 3
-0.077693 0.200723 0.549371 8486268 3
-0.070453 0.205927 0.563613 7302510 3
-0.061609 0.207306 0.567386 8158332 3
-0.052821 0.209401 0.573122 6118749 3
-0.043831 0.211425 0.578661 8422015 3
-0.083584 0.202175 0.529547 7893871 3
-0.077693 0.209744 0.549371 7038563 3
-0.171855 0.207366 0.594257 3420984 3
-0.130606 0.203900 0.584322 6053215 3
-0.191267 0.217008 0.593940 6185573 3
-0.177995 0.212800 0.582423 5724252 3
-0.140719 0.214284 0.586486 5658459 3
-0.163430 0.228745 0.599141 5000268 3
-0.150866 0.224684 0.588504 7303282 3
-0.134769 0.214447 0.561690 6514538 3
-0.192530 0.238074 0.597863 8355972 3
-0.182884 0.238295 0.598420 5790043 3
-0.172851 0.238010 0.597704 6645095 3
-0.161352 0.235550 0.591525 7960953 3
-0.144344 0.224216 0.563063 8158591 3
-0.132301 0.219573 0.551403 7501433 3
-0.199251 0.244097 0.588716 7435122 3
-0.190572 0.245369 0.591782 7763833 3
-0.180344 0.244675 0.590110 7303282 3
-0.170252 0.244097 0.588716 7829367 3
-0.159762 0.242845 0.585695 8355711 3
-0.140052 0.226520 0.546322 7632249 3
-0.187027 0.250340 0.580775 7171950 3
-0.179918 0.253764 0.588716 8093052 3
-0.170252 0.253764 0.588716 8092539 3
-0.153589 0.242706 0.563063 8355711 3
-0.168982 0.261464 0.584322 7764085 3
-0.394892 0.242467 0.694847 4803402 3
-0.382417 0.241793 0.692913 5263440 3
-0.364442 0.237494 0.680593 5000270 3
-0.348302 0.234155 0.671027 4276545 3
-0.334204 0.232016 0.664897 4737096 3
-0.385819 0.234493 0.641797 4342336 3
-0.369089 0.230624 0.631207 5066059 3
-0.354047 0.227617 0.622976 4210750 3
-0.341104 0.225820 0.618058 3092271 3
-0.388775 0.234120 0.613218 5000268 3
-0.371829 0.229868 0.602082 2631718 3
-0.302618 0.264407 0.692548 5855326 3
-0.431745 0.243952 0.699100 5131852 3
-0.420267 0.243952 0.699100 4013371 3
-0.408788 0.243952 0.699100 5329746 3
-0.498736 0.248767 0.680863 3158323 3
-0.491987 0.251027 0.687049 2303014 3
-0.487118 0.254375 0.696213 2566186 3
-0.477659 0.255430 0.699100 4144961 3
-0.466181 0.255430 0.699100 3881789 3
-0.451936 0.253876 0.694847 3750203 3
-0.434049 0.250143 0.684628 3815992 3
-0.403896 0.238954 0.654005 3421488 3
-0.498566 0.254160 0.665709 4473672 3
-0.496072 0.258557 0.677226 4671305 3
-0.490497 0.261513 0.684969 4211011 3
-0.486456 0.265445 0.695267 4276804 3
-0.477659 0.266909 0.699100 3816255 3
-0.463344 0.265285 0.694847 2895153 3
-0.416523 0.244497 0.640399 3947582 3
-0.404508 0.241558 0.606613 4342599 3
-0.037366 0.209441 0.629837 8224125 3
-0.029372 0.227630 0.684536 3947069 3
-0.027142 0.220733 0.632563 7434609 3
-0.035703 0.219880 0.601801 8291197 3
-0.027450 0.233745 0.639749 8948361 3
-0.051916 0.187316 0.563304 5526873 3
-0.043537 0.191132 0.574778 5461081 3
-0.095670 0.191577 0.549010 7367535 3
-0.069415 0.193777 0.555314 7829367 3
-0.060594 0.194729 0.558041 7171950 3
-0.051801 0.196126 0.562046 7632247 3
-0.043315 0.199546 0.571846 8619142 3
-0.092819 0.194613 0.532648 7169897 3
-0.084469 0.195530 0.535156 7696493 3
-0.096322 0.192863 0.505156 7499889 3
-0.090046 0.197283 0.516733 7696239 3
-0.193216 0.199517 0.599994 5855836 3
-0.180532 0.196435 0.590724 5394774 3
-0.172774 0.197275 0.565337 4803150 3
-0.118019 0.198857 0.569872 5460821 3
-0.104846 0.191873 0.549857 7170928 3
-0.117681 0.192366 0.526498 5790813 3
-0.108581 0.191562 0.524297 7500661 3
-0.101564 0.194613 0.532648 7368307 3
-0.116853 0.199598 0.522796 7961982 3
-0.104722 0.193058 0.505667 6447716 3
-0.296519 0.265568 0.798625 5526873 3
-0.258269 0.242013 0.727788 5001299 3
-0.297937 0.257260 0.737238 5987165 3
-0.299479 0.269543 0.772437 5855066 3
-0.264389 0.248483 0.712086 6645354 3
-0.269494 0.213093 0.640821 4737355 3
-0.213550 0.209816 0.630965 6250594 3
-0.292306 0.209782 0.601180 3882046 3
-0.290791 0.215989 0.618966 4079425 3
-0.266694 0.221292 0.634163 6842474 3
-0.294870 0.221580 0.606454 4473926 3
-0.291945 0.227049 0.621422 4474185 3
-0.267710 0.232587 0.636579 4736844 3
-0.257193 0.232528 0.636418 3684156 3
-0.241091 0.227201 0.621838 4144448 3
-0.223244 0.219685 0.601269 6184803 3
-0.286227 0.259849 0.680609 5723742 3
-0.258185 0.243915 0.638874 7171439 3
-0.241091 0.237411 0.621838 5920859 3
-0.225430 0.231806 0.607158 6250083 3
-0.253257 0.239806 0.602212 7697529 3
-0.259366 0.255569 0.641797 5723991 3
-0.242094 0.248651 0.624425 6512994 3
-0.226470 0.242890 0.609958 7631990 3
0.131877 0.189666 0.599994 7631986 3
0.141728 0.189666 0.599994 7368816 3
0.135013 0.195260 0.534419 8816260 3
0.193119 0.183755 0.502930 9080715 3
0.123303 0.199292 0.521995 8947848 3
0.122465 0.190350 0.602157 9211020 3
0.152017 0.190213 0.601726 7763576 3
0.163111 0.191640 0.606238 8355459 3
0.172814 0.191362 0.605359 7829115 3
0.182532 0.191130 0.604627 8618885 3
0.192459 0.191130 0.604627 7039853 3
-0.541555 0.218982 0.692735 2698542 3
-0.546351 0.227616 0.684495 2763565 3
-0.539431 0.229453 0.690018 2829612 3
-0.505467 0.229464 0.690052 4079427 3
-0.545742 0.243599 0.698091 3026478 3
-0.508268 0.242128 0.693876 2829358 3
-0.500775 0.244029 0.699322 3355702 3
-0.525956 0.251088 0.687215 2104863 3
-0.518376 0.252894 0.692160 4276545 3
-0.506268 0.252550 0.661491 2236964 3
0.495142 0.157488 0.525498 4999757 3
0.468178 0.165735 0.524290 6380894 3
0.477386 0.165943 0.524949 5526099 3
0.484284 0.165355 0.523090 5987163 3
0.495256 0.166155 0.525620 5526101 3
0.447962 0.173183 0.520802 7630959 3
0.456038 0.173003 0.520261 7894131 3
0.464580 0.173003 0.520261 8092026 3
0.476397 0.174201 0.523861 7894647 3
0.486514 0.174745 0.525498 5987163 3
0.434592 0.176310 0.505258 6446687 3
0.446312 0.177674 0.509165 4933962 3
0.456989 0.178579 0.511760 4144446 3
0.465583 0.178652 0.511970 5789784 3
0.476911 0.179754 0.515126 3947580 3
0.423478 0.183386 0.501918 3355443 3
0.433634 0.184199 0.504144 5723480 3
0.444056 0.185093 0.506591 5855066 3
0.456989 0.186981 0.511760 5197647 3
0.465583 0.187058 0.511970 4210752 3
0.211053 0.209516 0.699100 5591894 3
0.270926 0.213891 0.676629 8224384 3
0.202338 0.201009 0.604482 8223612 3
0.211549 0.200333 0.602447 8487297 3
0.201657 0.210224 0.602447 8881544 3
0.212314 0.210985 0.604627 8618883 3
0.176617 0.209516 0.699100 7960955 3
0.171941 0.200284 0.602302 9078925 3
0.181874 0.200333 0.602447 8684165 3
0.192459 0.201058 0.604627 7894649 3
0.191490 0.209922 0.601580 8684165 3
-0.176316 0.206124 0.687781 7171185 3
-0.167108 0.208728 0.696470 7171439 3
-0.174780 0.215523 0.681792 8552581 3
-0.163731 0.215714 0.682396 7960701 3
-0.174542 0.226408 0.680863 5591896 3
-0.163363 0.226408 0.680863 5328981 3
-0.140829 0.209516 0.630062 6645352 3
-0.125702 0.201837 0.606971 3487031 3
-0.115736 0.201837 0.606971 3749437 3
-0.166859 0.213458 0.611713 5723739 3
-0.156739 0.213354 0.611416 6315876 3
-0.145294 0.211309 0.605555 6382182 3
-0.173682 0.219433 0.600577 5658459 3
-0.165565 0.221769 0.606971 6250337 3
-0.154777 0.220596 0.603761 5065809 3
-0.193959 0.229952 0.602302 7829628 3
-0.184070 0.229952 0.602302 5132115 3
-0.174181 0.229952 0.602302 6645095 3
-0.594285 0.227823 0.760186 2764335 3
-0.581804 0.227823 0.760186 2960944 3
-0.596861 0.236381 0.747776 3026737 3
-0.546475 0.225713 0.714026 1909026 3
-0.537764 0.226984 0.718048 2566188 3
-0.521406 0.225013 0.711811 2105637 3
-0.512933 0.226432 0.716301 3881535 3
-0.504339 0.227862 0.720826 4802891 3
-0.548424 0.238283 0.716572 3026737 3
-0.532861 0.236597 0.711501 2829358 3
-0.502333 0.233270 0.701497 3618617 3
-0.549188 0.250397 0.717570 2960685 3
-0.533148 0.248413 0.711885 3026737 3
0.435144 0.200806 0.708873 7302771 3
0.460543 0.206990 0.730705 7302771 3
0.471579 0.206569 0.729218 6974571 3
0.480474 0.205254 0.724577 6710884 3
0.488560 0.203665 0.718968 6513507 3
0.430239 0.210050 0.700883 5921118 3
0.450303 0.214118 0.714457 7434357 3
0.466686 0.216274 0.721652 7106157 3
0.302169 0.166098 0.586351 6118238 3
0.300082 0.174512 0.582301 5656917 3
0.310938 0.175242 0.584736 6249826 3
0.307493 0.182795 0.578258 8026235 3
0.325355 0.187620 0.593522 9474194 3
0.335704 0.187958 0.594591 6381923 3
0.358007 0.174999 0.553597 4474183 3
0.369545 0.176166 0.557290 6316641 3
0.375944 0.174887 0.553243 7237230 3
0.386564 0.175585 0.555450 6513507 3
0.379709 0.168496 0.533024 6119262 3
0.303651 0.189886 0.571033 7697783 3
0.316407 0.176112 0.529609 8290177 3
0.324827 0.175963 0.529161 5790045 3
0.334575 0.176522 0.530842 6777455 3
0.343146 0.176448 0.530619 7040882 3
0.349490 0.175260 0.527047 4343365 3
0.355897 0.174160 0.523741 4013373 3
0.361188 0.172580 0.518987 5066061 3
0.364872 0.170322 0.512197 5329746 3
0.396932 0.181113 0.544648 5394767 3
0.319696 0.181734 0.520802 8685965 3
0.327974 0.181583 0.520369 7106420 3
0.337292 0.182001 0.521565 6777710 3
0.341446 0.179680 0.514916 7304565 3
0.347756 0.178579 0.511760 7632247 3
0.321695 0.186487 0.510407 7370107 3
0.327737 0.185166 0.506791 7041140 3
0.359136 0.184199 0.504144 6579813 3
0.320650 0.194235 0.508749 7699840 3
0.326680 0.192863 0.505156 6844531 3
0.278815 0.163691 0.577854 6579302 3
0.288370 0.163729 0.577988 5855066 3
0.246823 0.170738 0.569710 7237489 3
0.257936 0.171910 0.573621 5461080 3
0.267354 0.171910 0.573621 5329235 3
0.276773 0.171910 0.573621 8815751 3
0.286980 0.172385 0.575203 8092028 3
0.284109 0.180010 0.569449 8947335 3
0.296437 0.181837 0.575227 7236717 3
0.283080 0.188674 0.567386 8420993 3
0.292396 0.188674 0.567386 8618372 3
0.200971 0.183386 0.501918 8685187 3
0.208752 0.182983 0.500816 8948361 3
0.216758 0.182800 0.500314 8948361 3
0.225063 0.182873 0.500516 7960955 3
0.235303 0.184458 0.504854 8816010 3
0.247540 0.187448 0.513036 8816010 3
0.254712 0.186531 0.510527 9144718 3
0.261434 0.185354 0.507305 8749960 3
0.269490 0.185166 0.506791 8684167 3
0.241934 0.191435 0.501417 8486788 3
0.250971 0.192050 0.503028 8552581 3
0.257785 0.190980 0.500224 8749191 3
0.280029 0.225901 0.797464 6776938 3
0.292002 0.225038 0.794417 6382180 3
0.292155 0.206690 0.729646 6842985 3
0.208867 0.232652 0.776300 6644329 3
0.209592 0.220032 0.734191 7697017 3
0.226742 0.213480 0.712328 7763576 3
0.250723 0.224479 0.749030 7368816 3
0.277812 0.237103 0.791152 7500915 3
0.291912 0.238008 0.794171 6974571 3
0.296606 0.231495 0.772437 6909292 3
0.290234 0.217233 0.724849 6645606 3
0.251925 0.226789 0.717430 8224125 3
0.282160 0.242661 0.767639 7632501 3
0.278332 0.229134 0.724849 7830394 3
0.193932 0.217453 0.767639 5920861 3
0.136197 0.239343 0.798625 5526612 3
0.147683 0.236735 0.789922 5658200 3
0.157667 0.232334 0.775240 5329233 3
0.159842 0.217944 0.727224 5197647 3
0.165603 0.210106 0.701068 7237232 3
0.136197 0.252455 0.798625 7499889 3
0.132804 0.224547 0.710340 7894647 3
-0.196788 0.217453 0.767639 4276547 3
-0.186074 0.219684 0.775516 5592407 3
-0.172961 0.219204 0.773819 5395285 3
-0.191649 0.210563 0.702594 7368307 3
-0.160561 0.215282 0.718341 6711145 3
-0.191546 0.221980 0.702217 7368052 3
-0.158159 0.223679 0.707593 7105903 3
0.632952 0.200193 0.750193 2631209 3
0.605427 0.225180 0.794916 6250083 3
0.620648 0.225969 0.797704 5723740 3
0.634753 0.226328 0.798972 4605258 3
0.640441 0.223733 0.789808 6250083 3
0.644480 0.212251 0.749275 3947069 3
0.651561 0.210563 0.743318 3947069 3
0.644938 0.204591 0.722235 3025967 3
0.641171 0.236970 0.790709 7829115 3
0.660276 0.230057 0.767639 5789271 3
0.647697 0.252497 0.798757 5855839 3
0.552917 0.202458 0.758681 3881789 3
0.591081 0.211664 0.793179 3289652 3
0.506904 0.206327 0.728365 5395285 3
0.525626 0.209016 0.737858 5855836 3
0.542217 0.210757 0.744001 5921372 3
0.586904 0.223100 0.787574 4868684 3
0.105333 0.231761 0.868489 7566454 3
0.119799 0.232162 0.869991 8487299 3
0.137262 0.237666 0.890616 7631736 3
0.153484 0.240168 0.899991 6579049 3
0.168201 0.240082 0.899669 6776427 3
0.181992 0.238795 0.894848 6447201 3
0.196546 0.238627 0.894216 6118236 3
0.104752 0.244664 0.863699 6513768 3
0.118647 0.244076 0.861623 6908013 3
0.131977 0.242574 0.856320 6513509 3
0.148112 0.246021 0.868489 6579302 3
0.161979 0.245426 0.866390 7237232 3
0.174335 0.242823 0.857198 7105131 3
0.188087 0.242406 0.855729 7105131 3
0.105515 0.260731 0.869991 6711147 3
0.118009 0.256834 0.856989 5855326 3
0.127411 0.247756 0.826699 5263442 3
0.102813 0.267972 0.847709 6908267 3
0.115935 0.266144 0.841927 7631990 3
0.126971 0.260426 0.823839 7368816 3
0.004947 0.207906 0.779097 7633015 3
0.018183 0.213105 0.798578 6909292 3
0.004923 0.219606 0.775240 7106157 3
0.017773 0.221116 0.780569 6185055 3
0.030790 0.222568 0.785697 6448227 3
0.044120 0.224756 0.793420 7303536 3
0.004949 0.233563 0.779340 6513509 3
0.017828 0.234658 0.782992 7237489 3
0.030684 0.234658 0.782992 6908524 3
0.004972 0.247514 0.782992 7697781 3
0.017850 0.247829 0.783991 7764087 3
0.031310 0.252565 0.798972 6251364 3
0.044428 0.252565 0.798972 7368818 3
0.057547 0.252565 0.798972 7566197 3
0.005022 0.263000 0.790901 6184029 3
0.018134 0.264845 0.796449 6448227 3
0.031310 0.265683 0.798972 6843501 3
0.044120 0.263838 0.793423 7105646 3
0.055444 0.255978 0.769785 7960955 3
0.005022 0.275986 0.790901 8618883 3
0.018008 0.275986 0.790901 8290431 3
0.030994 0.275986 0.790901 7106673 3
0.043979 0.275986 0.790901 6908267 3
0.004970 0.285959 0.782656 9474192 3
0.017651 0.283249 0.775240 9211533 3
0.052379 0.277646 0.727224 10066331 3
0.064319 0.289586 0.727224 8684676 3
-0.007956 0.210860 0.790163 6842983 3
-0.059881 0.223946 0.790560 7500150 3
-0.046526 0.222157 0.784247 6908267 3
-0.021150 0.226186 0.798467 6645093 3
-0.007929 0.223061 0.787438 6974058 3
-0.059881 0.236926 0.790560 5789533 3
-0.046790 0.236363 0.788681 5986911 3
-0.034108 0.238231 0.794916 5263442 3
-0.021049 0.238156 0.794665 5855066 3
-0.007956 0.236807 0.790163 7368303 3
-0.072370 0.248221 0.785230 6053217 3
-0.058776 0.245294 0.775970 4276553 3
-0.046848 0.249621 0.789659 7499891 3
-0.033946 0.250093 0.791152 6710375 3
-0.021049 0.251204 0.794665 5130575 3
-0.007959 0.249858 0.790407 7959672 3
-0.019766 0.248142 0.746221 4999759 3
-0.007891 0.260582 0.783632 6380640 3
-0.019380 0.255312 0.731656 9079436 3
-0.007891 0.273449 0.783632 8881542 3
-0.019519 0.269234 0.736882 9474451 3
-0.007970 0.289210 0.791555 8026746 3
-0.391331 0.222283 0.832970 5723991 3
-0.377654 0.222283 0.832970 6118240 3
-0.365944 0.223484 0.837471 5656920 3
-0.361363 0.229302 0.859274 5393747 3
-0.340359 0.224749 0.842211 4604483 3
-0.329482 0.226780 0.849822 6379611 3
-0.333237 0.239508 0.897518 6446174 3
-0.300825 0.226216 0.847709 6380894 3
-0.390980 0.227787 0.804120 5329746 3
-0.385184 0.232253 0.819887 5658198 3
-0.372093 0.232485 0.820705 5789786 3
-0.365316 0.236827 0.836033 5131602 3
-0.353596 0.238179 0.840804 4473415 3
-0.342083 0.239786 0.846478 5526099 3
-0.328409 0.239950 0.847056 6643555 3
-0.317722 0.242406 0.855729 5722710 3
-0.300304 0.239718 0.846240 3618615 3
-0.300895 0.251843 0.889041 5789271 3
-0.344377 0.245414 0.818884 5460821 3
-0.340244 0.252320 0.841927 4868169 3
-0.326531 0.252405 0.842211 5986652 3
-0.314287 0.253684 0.846478 5066063 3
-0.333568 0.260922 0.825408 4540230 3
-0.323488 0.263753 0.834362 6447203 3
-0.305932 0.260469 0.823976 5658459 3
-0.320926 0.275254 0.827754 4012862 3
-0.447110 0.204048 0.764638 2566958 3
-0.445431 0.209155 0.783774 2302757 3
-0.440250 0.212872 0.797704 3025967 3
-0.471680 0.205432 0.725203 2761774 3
-0.461912 0.206388 0.728577 3091507 3
-0.451920 0.207291 0.731768 2960433 3
-0.441720 0.208147 0.734787 1645084 3
-0.439056 0.212701 0.750864 2830126 3
-0.437670 0.218155 0.770118 6052958 3
-0.434302 0.222916 0.786927 5262929 3
-0.422845 0.223690 0.789659 5723993 3
-0.412088 0.224896 0.793915 7106157 3
-0.401723 0.226401 0.799228 5395537 3
-0.481219 0.216274 0.721652 3354162 3
-0.469370 0.216274 0.721652 2894128 3
-0.459111 0.217026 0.724159 3617851 3
-0.449818 0.218286 0.728365 3684156 3
-0.438116 0.218414 0.728792 4145218 3
-0.434383 0.222634 0.742873 3751228 3
-0.435528 0.229670 0.766349 5329233 3
-0.432131 0.234658 0.782992 4473411 3
-0.422186 0.236287 0.788430 4605512 3
-0.410524 0.237028 0.790901 4869195 3
-0.495066 0.229048 0.724577 5526101 3
-0.479011 0.227077 0.718341 4736585 3
-0.467351 0.227142 0.718548 5525333 3
-0.457654 0.228189 0.721861 4999759 3
-0.447736 0.229179 0.724993 3223859 3
-0.437483 0.230047 0.727738 4013884 3
-0.432960 0.234062 0.740439 4672584 3
-0.432077 0.240333 0.760276 4671562 3
-0.430115 0.246359 0.779340 4276804 3
-0.420856 0.248447 0.785946 5263188 3
-0.410524 0.250014 0.790901 4803402 3
-0.496629 0.236033 0.709807 3684410 3
-0.486344 0.236700 0.711811 6184031 3
-0.474657 0.236700 0.711811 6118238 3
-0.463102 0.236767 0.712014 4210241 3
-0.453604 0.237918 0.715473 3354932 3
-0.447091 0.240736 0.723949 2960687 3
-0.437483 0.241996 0.727738 3882296 3
-0.432960 0.246219 0.740439 4869193 3
-0.431940 0.252736 0.760035 3948093 3
-0.427985 0.257872 0.775481 5066320 3
-0.418755 0.260047 0.782021 4473926 3
-0.407357 0.260970 0.784799 4013373 3
-0.494388 0.246570 0.706604 3421495 3
-0.483872 0.247124 0.708193 3881789 3
-0.468403 0.245114 0.702433 3552824 3
-0.458928 0.246219 0.705598 4539206 3
-0.448864 0.247056 0.707997 3223857 3
-0.624606 0.213210 0.798972 2170660 3
-0.628956 0.223216 0.787986 2697772 3
-0.612114 0.221802 0.782992 2105635 3
-0.607666 0.224914 0.793978 2500395 3
-0.616441 0.231456 0.772307 2368807 3
-0.677079 0.252565 0.798972 2367784 3
-0.663961 0.252565 0.798972 1973281 3
-0.641894 0.249092 0.787986 2105378 3
-0.733244 0.222283 0.832970 2170660 3
-0.714361 0.220674 0.826942 2039072 3
-0.741516 0.234252 0.826942 2170405 3
-0.725526 0.233476 0.824202 2565418 3
-0.706895 0.231804 0.818300 2170660 3
-0.727938 0.247829 0.826942 2038819 3
-0.706895 0.245239 0.818300 1973281 3
-0.720330 0.258675 0.818300 3486778 3
0.603696 0.202880 0.810107 5921372 3
0.625473 0.205668 0.821236 5986911 3
0.635418 0.204528 0.816687 3881536 3
0.644619 0.203202 0.811391 3026480 3
0.653990 0.201982 0.806517 3815996 3
0.612033 0.214442 0.803589 3684156 3
0.631094 0.216455 0.811129 3157813 3
0.641297 0.215408 0.807208 1973538 3
0.649753 0.213829 0.801292 2434089 3
0.613804 0.241528 0.805915 6776427 3
0.628043 0.241915 0.807208 7500151 3
0.641091 0.241838 0.806950 6908014 3
0.410566 0.172104 0.687215 3881276 3
0.426838 0.174139 0.695342 2960433 3
0.410452 0.183336 0.687024 8289407 3
0.427303 0.185758 0.696100 5723739 3
0.415926 0.197212 0.696187 7960442 3
0.350875 0.170513 0.680863 6381923 3
0.360977 0.170006 0.678836 8289409 3
0.373849 0.170794 0.681986 4670794 3
0.386091 0.171258 0.683836 3815483 3
0.398517 0.171774 0.685898 5986652 3
0.314447 0.180037 0.674661 7500661 3
0.316496 0.175044 0.655949 6710888 3
0.371117 0.180662 0.677002 9802648 3
0.383892 0.181446 0.679942 7499891 3
0.397977 0.182788 0.684969 7828856 3
0.210029 0.222673 0.889139 7960442 3
0.220562 0.218643 0.873046 8223616 3
0.228883 0.213046 0.850697 7434357 3
0.239384 0.210005 0.838553 7763576 3
0.251467 0.208606 0.832970 7566195 3
0.265144 0.208606 0.832970 6974569 3
0.279845 0.209373 0.836033 7764601 3
0.294061 0.209722 0.837425 6382950 3
0.206384 0.233154 0.873708 7565684 3
0.212234 0.224181 0.840082 6776170 3
0.223966 0.222137 0.832422 6776170 3
0.234364 0.219080 0.820969 7960701 3
0.246228 0.217652 0.815617 8553090 3
0.259705 0.217723 0.815884 6645606 3
0.274531 0.218864 0.820157 5790813 3
0.289513 0.220016 0.824475 5921629 3
0.200836 0.240847 0.850223 7039340 3
0.216201 0.227628 0.803560 6973294 3
0.233904 0.232103 0.819356 5855068 3
0.244952 0.229847 0.811391 7105646 3
0.256453 0.228226 0.805669 6974058 3
0.268811 0.227489 0.803069 7566454 3
-0.209822 0.219006 0.874495 5855577 3
-0.223798 0.232965 0.873001 4868682 3
-0.201265 0.223847 0.838832 4342338 3
-0.297093 0.250901 0.837191 4276804 3
-0.283441 0.250985 0.837471 5658198 3
-0.291048 0.259262 0.820157 5396057 3
-0.278951 0.260541 0.824202 6184801 3
-0.263517 0.258675 0.818300 6316130 3
-0.411715 0.212061 0.846765 2829099 3
-0.404394 0.215570 0.860776 2631207 3
-0.407143 0.224895 0.898012 3289141 3
-0.432403 0.215489 0.807510 4342340 3
-0.424473 0.218228 0.817774 5329746 3
-0.416469 0.221107 0.828563 4540228 3
-0.402998 0.221180 0.828839 3881787 3
-0.445721 0.196413 0.784283 2302503 3
-0.473736 0.194368 0.728365 2959153 3
-0.463397 0.195050 0.730919 2893360 3
-0.454042 0.196193 0.735204 2894128 3
-0.444074 0.197127 0.738703 2434089 3
-0.653152 0.204932 0.818300 2039842 3
-0.633100 0.202813 0.809836 3026226 3
-0.622216 0.203602 0.812989 2894128 3
-0.693459 0.218368 0.818300 1315351 3
-0.677794 0.217652 0.815617 2236710 3
-0.664402 0.217652 0.815617 2565675 3
-0.641876 0.214598 0.804173 3092530 3
-0.615822 0.214721 0.804634 2302503 3
-0.691185 0.231044 0.815617 2433577 3
-0.677794 0.231044 0.815617 2170917 3
-0.655080 0.227802 0.804173 2631468 3
-0.691185 0.244435 0.815617 2367784 3
-0.672990 0.242703 0.809836 2236710 3
-0.652940 0.240218 0.801546 1447194 3
-0.694691 0.254209 0.804173 2434089 3
0.612801 0.163602 0.699100 4210243 3
0.686828 0.162109 0.692723 4671052 3
0.695510 0.161484 0.690052 4934224 3
0.656521 0.174497 0.696771 2565167 3
0.668881 0.174737 0.697731 4473160 3
0.678710 0.174319 0.696062 5065550 3
0.674886 0.170467 0.680678 5131345 3
0.605931 0.165830 0.621422 3354934 3
0.619173 0.192871 0.680863 5328724 3
0.322140 0.205095 0.876408 6908267 3
0.307607 0.209583 0.836871 6776938 3
0.318053 0.207434 0.828291 7105646 3
0.329695 0.206210 0.823401 7171950 3
0.334439 0.200937 0.802348 6711145 3
0.304354 0.220962 0.828021 7632247 3
0.314622 0.218650 0.819356 6053215 3
0.323528 0.215620 0.808001 6250848 3
0.005494 0.202469 0.865185 8882055 3
0.019699 0.202469 0.865185 6974571 3
0.033848 0.202128 0.863731 6580840 3
0.005434 0.214306 0.855729 7237741 3
0.019497 0.214454 0.856320 7962234 3
0.033848 0.216310 0.863731 7238511 3
0.046817 0.210849 0.841927 6580581 3
0.063261 0.219961 0.878310 6120030 3
0.079145 0.224103 0.894848 5329746 3
0.094308 0.225227 0.899336 4802891 3
0.033265 0.226524 0.848862 6909292 3
0.045445 0.218091 0.817261 7435636 3
0.061157 0.226587 0.849100 6843499 3
0.076813 0.231761 0.868489 7632501 3
0.090884 0.231280 0.866687 7500404 3
0.061594 0.242247 0.855167 7106673 3
0.076893 0.246277 0.869394 6711145 3
0.090228 0.243738 0.860431 5395028 3
0.044787 0.241380 0.805422 7500661 3
0.060089 0.250028 0.834277 6317157 3
0.075556 0.256021 0.854276 5987422 3
0.089828 0.256724 0.856620 6513255 3
0.074402 0.265922 0.841225 6974060 3
0.090228 0.271993 0.860431 6710888 3
-0.022667 0.200256 0.855729 8486786 3
-0.008623 0.200394 0.856320 8684676 3
-0.091419 0.210849 0.841927 5658198 3
-0.077596 0.210849 0.841927 6579302 3
-0.064031 0.211705 0.845343 6974060 3
-0.050681 0.213942 0.854276 6381921 3
-0.036717 0.214306 0.855729 6974058 3
-0.022667 0.214306 0.855729 7500915 3
-0.008617 0.214306 0.855729 7961464 3
-0.091270 0.224305 0.840549 7237232 3
-0.075515 0.218650 0.819356 6381923 3
-0.061241 0.215757 0.808515 6250083 3
-0.048760 0.219326 0.821890 5789786 3
-0.035400 0.220164 0.825028 7566195 3
-0.021424 0.215837 0.808817 6316641 3
-0.089151 0.232580 0.821040 7763576 3
-0.074638 0.229406 0.809836 6513255 3
-0.034447 0.227417 0.802813 7960955 3
-0.074638 0.242703 0.809836 4802637 3
-0.110405 0.206690 0.883225 5132113 3
-0.190555 0.213505 0.852532 4276804 3
-0.178265 0.215570 0.860776 4934736 3
-0.164349 0.215856 0.861916 4474185 3
-0.119107 0.210921 0.842211 4738127 3
-0.105776 0.211918 0.846193 5658457 3
-0.186494 0.222654 0.834362 4211011 3
-0.177093 0.228193 0.855118 6250594 3
-0.164349 0.230007 0.861916 5001299 3
-0.149938 0.229611 0.860431 6119780 3
-0.133314 0.225390 0.844614 5067092 3
-0.118908 0.224373 0.840804 6580331 3
-0.105776 0.225812 0.846193 6381923 3
-0.171101 0.234037 0.826185 5921629 3
-0.162394 0.241255 0.851663 6579561 3
-0.149938 0.243738 0.860431 6842733 3
-0.133803 0.240135 0.847709 6316389 3
-0.119066 0.238497 0.841927 7105905 3
-0.104473 0.236752 0.835769 7500404 3
-0.168997 0.244558 0.816028 5592918 3
-0.178575 0.272576 0.862276 5723993 3
-0.235972 0.230152 0.983482 5460819 3
-0.221534 0.231942 0.991129 4934734 3
-0.207069 0.233986 0.999865 5987165 3
-0.237369 0.231890 0.925941 5526099 3
-0.293195 0.257909 0.910456 5328206 3
0.508899 0.171234 0.786927 4671562 3
0.518164 0.182865 0.781415 3947578 3
0.509273 0.183262 0.731768 2565416 3
0.537527 0.188971 0.754564 2631211 3
0.566917 0.194813 0.777891 2894894 3
0.503977 0.193246 0.724159 5263442 3
0.525783 0.196960 0.738079 5526103 3
0.401886 0.154889 0.711811 5592154 3
0.417367 0.156310 0.718341 4868430 3
0.429162 0.156310 0.718341 4737357 3
0.442988 0.157030 0.721652 4540493 3
0.483822 0.167037 0.767639 4803665 3
0.411265 0.165647 0.707839 4407618 3
0.425260 0.166576 0.711811 3750203 3
0.439495 0.167548 0.715961 3421497 3
0.482795 0.179260 0.766011 4869713 3
0.499643 0.180805 0.772614 4211265 3
0.461213 0.183262 0.731768 3092019 3
0.471310 0.182519 0.728802 2961198 3
0.476339 0.179899 0.718341 2698022 3
0.494407 0.182211 0.727572 3026476 3
0.460543 0.194993 0.730705 6644841 3
0.471579 0.194596 0.729218 5724504 3
0.477718 0.192248 0.720420 5066572 3
0.488275 0.191749 0.718548 6250333 3
0.409506 0.199655 0.704810 8223614 3
0.307697 0.210343 0.966657 4804431 3
0.319623 0.207778 0.954868 5526871 3
0.300283 0.220764 0.943364 6515047 3
0.313188 0.218957 0.935643 7172979 3
0.327318 0.218136 0.932133 5987422 3
0.102634 0.212973 0.978740 5788505 3
0.152754 0.215668 0.991129 7434868 3
0.166914 0.212973 0.978740 6316389 3
0.178521 0.207778 0.954868 5461080 3
0.195391 0.209053 0.960726 6118749 3
0.102238 0.228159 0.974964 7762293 3
0.118704 0.229043 0.978740 6315617 3
0.134774 0.229043 0.978740 5790297 3
0.150844 0.229043 0.978740 5263699 3
0.166914 0.229043 0.978740 7171698 3
0.179916 0.225202 0.962328 5987424 3
0.195094 0.224485 0.959266 7565682 3
0.117239 0.242086 0.966657 5855579 3
0.131994 0.240057 0.958552 5723991 3
0.147165 0.239134 0.954868 5986911 3
0.158260 0.232404 0.927995 7302772 3
0.173315 0.232161 0.927023 6118498 3
0.189646 0.233528 0.932482 7302764 3
-0.096614 0.193611 0.889764 4145218 3
-0.082004 0.193611 0.889764 3947839 3
-0.067781 0.194718 0.894848 4539978 3
-0.053088 0.194718 0.894848 7303025 3
-0.038396 0.194718 0.894848 7960442 3
-0.023839 0.195837 0.899991 8947339 3
-0.091883 0.198024 0.846193 5132367 3
-0.077596 0.197026 0.841927 5592918 3
-0.064031 0.197825 0.845343 6053217 3
-0.050491 0.199167 0.851078 6052443 3
-0.036655 0.199916 0.854276 8026233 3
-0.138415 0.212973 0.978740 4408392 3
-0.155723 0.230878 0.986583 5790815 3
-0.136094 0.225202 0.962328 5264471 3
-0.158528 0.227829 0.909726 4606541 3
-0.144100 0.228635 0.912947 5725022 3
0.694682 0.153680 0.763895 1908259 1
0.690386 0.150021 0.745707 1315611 1
0.692734 0.147908 0.735204 2039331 1
0.695016 0.145854 0.724993 2565675 1
0.697236 0.143856 0.715061 2039845 1
0.647770 0.170378 0.782992 3288886 1
0.629167 0.162265 0.745707 2565163 1
0.656267 0.157030 0.721652 2763057 1
0.677482 0.159232 0.731768 2038821 1
0.689497 0.159232 0.731768 2696749 1
0.688640 0.156310 0.718341 2697261 1
0.694067 0.154889 0.711811 2697261 1
0.620557 0.175536 0.750099 3420727 3
0.607651 0.168541 0.720205 3749437 3
0.611573 0.166390 0.711017 3222579 1
0.625354 0.163883 0.700303 3552058 3
0.657800 0.169274 0.723338 3815491 3
0.677482 0.171247 0.731768 2959925 3
0.686127 0.170410 0.728192 3025714 3
0.679292 0.165823 0.708590 4341829 3
0.686098 0.164664 0.703638 5000016 3
0.605280 0.183228 0.731633 2631211 3
0.616334 0.182943 0.730497 3683899 3
0.638371 0.185867 0.742173 4670794 3
0.644100 0.184023 0.734807 4999759 3
0.650412 0.182409 0.728365 4736332 3
0.662565 0.182463 0.728577 4538953 3
0.677482 0.183262 0.731768 3025718 3
0.610367 0.196881 0.737781 3683897 3
0.643146 0.199534 0.747724 2631211 3
0.642957 0.195739 0.733502 3354934 3
0.647030 0.193358 0.724577 1973281 3
0.653256 0.191693 0.718341 2696749 3
0.665051 0.191693 0.718341 3223097 3
0.581642 0.133493 0.663553 2763054 1
0.592537 0.133493 0.663553 1381401 1
0.580588 0.146878 0.674993 2301991 1
0.589131 0.146247 0.672096 2762797 1
0.597601 0.145622 0.669224 2697261 1
0.573247 0.196285 0.692913 3420725 3
0.587596 0.197283 0.696436 4670792 3
0.359268 0.160737 0.798972 4868944 3
0.353852 0.171234 0.786927 2829360 3
0.361325 0.168691 0.775240 3224118 3
0.366824 0.154889 0.711811 5591124 3
0.375101 0.153494 0.705398 5723482 3
0.390198 0.154889 0.711811 5263189 3
0.340297 0.183812 0.785464 6317157 3
0.348505 0.181372 0.775037 5724252 3
0.355319 0.178404 0.762353 4408390 3
0.356099 0.172712 0.738028 4737098 3
0.361093 0.169370 0.723750 1841693 3
0.368305 0.167249 0.714685 3419955 3
0.375632 0.165309 0.706396 2960176 3
0.386575 0.165029 0.705201 3618363 3
0.395262 0.163831 0.700080 3289141 3
0.340192 0.196648 0.785220 6382180 3
0.331549 0.184654 0.737327 4868943 3
0.334246 0.179598 0.717139 7303282 3
0.337997 0.175433 0.700510 6974317 3
0.358775 0.180090 0.719102 7500404 3
0.318920 0.196438 0.736122 6776938 3
0.317063 0.188163 0.705113 7500663 3
0.397707 0.199541 0.704410 7960442 3
0.316031 0.181060 0.899991 2433832 3
0.344522 0.173101 0.860431 5000270 3
0.354751 0.171220 0.851078 4276804 3
0.355211 0.164945 0.819887 5527643 3
0.307203 0.190367 0.874852 7697783 3
0.316267 0.187229 0.860431 6513255 3
0.326803 0.185194 0.851078 5329494 3
0.338935 0.184192 0.846478 8158334 3
0.347203 0.181253 0.832970 4145472 3
0.351530 0.176558 0.811391 3619644 3
0.324279 0.197629 0.844505 6776940 3
0.333864 0.195127 0.833814 6381921 3
0.338253 0.189905 0.811500 6382434 3
-0.260927 0.218781 1.087489 3355443 3
-0.243072 0.218781 1.087489 4539976 3
-0.271248 0.230241 1.058097 3683381 3
-0.253875 0.230241 1.058097 4144959 3
-0.236502 0.230241 1.058097 4803148 3
-0.222131 0.233395 1.072592 3881789 3
-0.204520 0.233395 1.072592 3815485 3
-0.293220 0.251559 1.074956 4736585 3
-0.261275 0.238509 1.019193 4538690 3
-0.393980 0.246128 1.223425 3947321 3
-0.373893 0.246128 1.223425 2960176 3
-0.348362 0.242342 1.204603 3157300 3
-0.328584 0.242342 1.204603 3748922 3
-0.393980 0.266216 1.223425 4341311 3
-0.373893 0.266216 1.223425 4012092 3
0.721148 0.128023 0.692913 1841442 1
0.727587 0.140645 0.699100 1512477 1
0.739065 0.140645 0.699100 1907235 1
0.701498 0.151447 0.695993 3157300 1
0.716108 0.152123 0.699100 4275783 1
0.717971 0.150113 0.689861 3025716 1
0.729298 0.150113 0.689861 2696751 1
0.616901 0.156396 0.846478 1906206 1
0.641198 0.158974 0.860431 2433063 1
0.603845 0.166690 0.828563 2169888 1
0.627408 0.169379 0.841927 3419957 1
0.658946 0.174058 0.865185 2499370 1
0.673151 0.174058 0.865185 3420474 1
0.627408 0.183202 0.841927 2104863 1
0.644698 0.184192 0.846478 2565416 1
0.658596 0.184192 0.846478 3223605 1
0.668879 0.183202 0.841927 4407879 1
0.675440 0.181253 0.832970 3684156 1
0.619969 0.194690 0.831944 5065550 3
0.633163 0.194546 0.831332 3486777 3
0.642115 0.193134 0.825295 4276293 3
0.651369 0.191868 0.819887 4210754 3
0.660404 0.190590 0.814428 3157812 3
0.302103 0.175353 0.949081 2895153 1
0.317686 0.175353 0.949081 3486777 1
0.388537 0.172222 0.932133 1908256 1
0.394450 0.168216 0.910456 1645856 1
0.302103 0.190936 0.949081 4277576 3
0.315772 0.189786 0.943364 6382182 3
0.282941 0.183122 0.991129 2565163 1
0.297332 0.181970 0.984896 1973538 1
0.200306 0.198141 0.984896 3750203 3
0.216477 0.198141 0.984896 3026480 3
0.279404 0.196903 0.978740 3881535 3
0.291826 0.194472 0.966657 3421238 3
0.005815 0.169200 0.915780 2301476 1
0.005781 0.183165 0.910456 4143680 3
0.020730 0.183165 0.910456 5986652 3
0.038355 0.196903 0.978740 4474183 3
0.055114 0.199395 0.991129 5066063 3
0.005781 0.198114 0.910456 7697270 3
0.020730 0.198114 0.910456 7697781 3
0.035887 0.199273 0.915780 6777706 3
-0.122345 0.180833 0.978740 3092532 1
-0.103683 0.176422 0.954868 2895151 1
-0.138415 0.196903 0.978740 5790045 1
-0.120834 0.194472 0.966657 3618876 1
-0.103683 0.192100 0.954868 3487288 1
-0.114475 0.199273 0.915780 4539976 3
-0.171650 0.200925 1.087489 3092532 1
-0.162615 0.207266 1.030253 2303016 3
-0.179531 0.224182 1.030253 4474185 3
-0.158446 0.218433 1.003836 3751232 3
-0.191410 0.234915 1.003836 4539465 3
-0.174928 0.234915 1.003836 6645354 3
-0.295182 0.212744 1.151459 3289139 3
-0.246495 0.203755 1.102806 2039842 1
-0.231651 0.206666 1.118560 1973792 1
-0.219558 0.212744 1.151459 2828590 1
-0.200653 0.212744 1.151459 2434089 1
-0.295182 0.231650 1.151459 3025451 3
-0.228388 0.221862 1.102806 3487031 3
-0.210281 0.221862 1.102806 3157555 3
-0.766356 0.301388 1.631234 2236970 3
-0.739573 0.301388 1.631234 2040614 3
-0.712790 0.301388 1.631234 2236711 3
-0.739573 0.328171 1.631234 1974051 3
-0.712790 0.328171 1.631234 2894641 3
-0.675204 0.226041 1.223425 2236449 3
-0.655117 0.226041 1.223425 2040094 3
-0.675204 0.246128 1.223425 2960172 3
-0.655117 0.246128 1.223425 2434852 3
-0.675204 0.266216 1.223425 2236962 3
-0.665515 0.270441 1.242845 2566440 3
-0.771545 0.158974 0.860431 1053466 1
-0.765833 0.160740 0.869991 1119772 1
-0.777464 0.166283 0.899991 1513249 1
-0.797848 0.179002 0.889764 724501 1
-0.765833 0.175025 0.869991 658708 3
-0.777464 0.181060 0.899991 1644576 3
0.735817 0.120927 0.718341 1446684 1
0.754534 0.122046 0.724993 1512479 1
0.702707 0.145393 0.786927 2829101 1
0.719242 0.146127 0.790901 2171430 1
0.739699 0.147619 0.798972 2236711 1
0.752818 0.147619 0.798972 2302503 1
0.765936 0.147619 0.798972 920850 1
0.763473 0.144666 0.782992 2039845 1
0.725541 0.135202 0.731768 2236711 1
0.724023 0.132721 0.718341 1841440 1
0.722560 0.130330 0.705398 2499372 1
0.712229 0.144516 0.718341 986131 1
0.710978 0.141912 0.705398 1446682 1
0.722560 0.141912 0.705398 2236200 1
0.705754 0.154889 0.711811 2959921 1
0.560223 0.157857 0.937715 1842982 1
0.558886 0.153268 0.910456 1777189 1
0.573835 0.153268 0.910456 2039591 1
0.543937 0.168216 0.910456 2106667 1
0.543937 0.183165 0.910456 2961461 1
0.208161 0.172301 1.023519 2829612 1
0.223505 0.171182 1.016873 2434089 1
0.240202 0.171182 1.016873 2039334 1
0.256898 0.171182 1.016873 1907235 1
0.273594 0.171182 1.016873 1381404 1
0.204158 0.185469 1.003836 3421495 1
0.220640 0.185469 1.003836 2434602 1
0.237122 0.185469 1.003836 2697775 1
0.253604 0.185469 1.003836 2565678 1
0.273594 0.187878 1.016873 2368299 1
0.060895 0.184350 1.095094 3224119 1
0.023153 0.187878 1.016873 3354934 1
0.041464 0.195495 1.058097 2434343 1
0.059643 0.198173 1.072592 2829101 1
0.077254 0.198173 1.072592 2433832 1
0.095519 0.199540 1.079989 3486265 1
-0.088005 0.160744 0.954868 2500393 1
-0.071455 0.158807 0.943364 2171945 1
-0.057348 0.162729 0.966657 3026486 1
-0.041995 0.164763 0.978740 1973541 1
-0.088005 0.176422 0.954868 2697774 1
-0.071028 0.173253 0.937715 1776673 1
-0.054330 0.169200 0.915780 1578781 1
-0.039294 0.169200 0.915780 1709856 1
-0.023977 0.167244 0.905193 1314330 1
-0.009168 0.168216 0.910456 1840159 1
-0.085401 0.186417 0.926618 2237221 1
-0.069774 0.185320 0.921167 1710880 1
-0.054330 0.184236 0.915780 2499882 3
-0.038839 0.182106 0.905193 2499370 3
-0.023977 0.182106 0.905193 2564395 3
-0.009168 0.183165 0.910456 3814203 3
-0.009168 0.198114 0.910456 8289409 3
-0.781575 0.253481 1.505754 1315858 1
-0.787126 0.263620 1.565984 1579034 1
-0.776953 0.269000 1.597943 855060 1
-0.756852 0.278204 1.505754 1842463 3
-0.761414 0.289332 1.565984 1973287 3
-0.767547 0.209223 1.242845 1710109 1
-0.738456 0.212597 1.262890 2301215 1
-0.779927 0.233332 1.262890 1972511 3
-0.771637 0.237158 1.283594 1841693 3
-0.738456 0.233332 1.262890 1775898 3
-0.717720 0.233332 1.262890 2038556 3
-0.771637 0.258233 1.283594 1052690 3
-0.738456 0.254068 1.262890 2105378 3
-0.706328 0.250035 1.242845 1907484 3
-0.771637 0.279308 1.283594 2171171 3
-0.750562 0.279308 1.283594 2368807 3
-0.706328 0.270441 1.242845 3289652 3
1.108396 0.154486 1.016873 1249307 1
1.125092 0.154486 1.016873 1315100 1
1.108396 0.171182 1.016873 919572 1
1.125092 0.171182 1.016873 1512479 1
1.188077 0.195495 1.058097 1315096 1
0.801914 0.129298 0.851078 1907745 1
0.843390 0.133656 0.879766 2105637 1
0.812206 0.140224 0.832970 1776672 1
0.825882 0.140224 0.832970 1251098 1
0.822068 0.137302 0.815617 2631469 1
0.898384 0.179345 0.824202 2367784 1
0.728326 0.123911 0.815617 2565929 1
0.741718 0.123911 0.815617 1184276 1
0.755110 0.123911 0.815617 1184022 1
0.728326 0.137302 0.815617 2697772 1
0.741718 0.137302 0.815617 1645084 1
0.755110 0.137302 0.815617 2631468 1
0.784852 0.140224 0.832970 2105124 1
0.798529 0.140224 0.832970 2631981 1
0.714935 0.150694 0.815617 2302503 1
0.701543 0.164086 0.815617 2038819 1
0.841852 0.148693 0.978740 2697264 1
0.817068 0.141612 0.932133 1776159 1
0.898204 0.139946 0.921167 1250328 1
0.809712 0.164763 0.978740 1512987 1
0.825782 0.164763 0.978740 1184023 1
0.811423 0.158807 0.943364 2105127 1
0.807456 0.155071 0.921167 1907745 1
0.809712 0.180833 0.978740 1775647 1
0.825782 0.180833 0.978740 1907233 1
0.801764 0.172222 0.932133 2170918 1
0.771141 0.150575 0.991129 1841442 1
0.787415 0.150575 0.991129 1643295 1
0.720949 0.155988 0.926618 2038823 1
0.740545 0.156917 0.932133 1380639 1
0.793642 0.164763 0.978740 2170407 1
0.716708 0.170195 0.921167 2696499 1
0.749467 0.174297 0.943364 1644322 1
0.783844 0.178600 0.966657 1315611 1
0.719142 0.182106 0.905193 2499885 1
0.755850 0.187526 0.932133 3618364 1
0.771154 0.187526 0.932133 3223093 1
0.786459 0.187526 0.932133 3091507 1
0.572114 0.127908 0.841927 2236198 1
0.565759 0.147274 0.874852 2499372 1
0.564359 0.143272 0.851078 2368297 1
0.578333 0.143272 0.851078 2236710 1
0.592306 0.143272 0.851078 2368039 1
0.549305 0.165333 0.894848 2435632 1
0.554492 0.162546 0.879766 2106667 1
0.565759 0.161638 0.874852 1841955 1
0.564359 0.157246 0.851078 1776160 1
0.581493 0.158105 0.855729 1184023 1
0.585938 0.155555 0.841927 2170660 1
0.599761 0.155555 0.841927 2762797 1
0.514056 0.168473 0.837425 2698804 1
0.539342 0.172155 0.855729 2435119 1
0.547410 0.170294 0.846478 2566188 1
0.561308 0.170294 0.846478 3749949 1
0.578333 0.171220 0.851078 5131602 1
0.585938 0.169379 0.841927 2894383 1
0.593381 0.167577 0.832970 1775902 1
0.546537 0.179345 0.824202 5526612 3
0.584688 0.187229 0.860431 5131854 3
0.576637 0.180294 0.828563 5065550 3
0.590241 0.180294 0.828563 4933966 3
0.594410 0.177477 0.815617 4341057 3
0.554235 0.190869 0.815617 3881785 3
0.559663 0.188191 0.804173 4144446 3
0.570092 0.187279 0.800279 5855066 3
0.597522 0.191868 0.819887 5920859 3
0.126618 0.158606 1.043989 3092020 1
0.143759 0.158606 1.043989 1842463 1
0.163075 0.160749 1.058097 3158323 1
0.113252 0.181807 1.079989 2631471 1
0.127468 0.176926 1.050996 2631468 1
0.143759 0.175747 1.043989 2829358 1
0.158783 0.173434 1.030253 2960946 1
0.181675 0.179334 1.065295 2828848 1
0.191356 0.172301 1.023519 3026480 1
0.113252 0.199540 1.079989 3288888 1
0.126618 0.192888 1.043989 2170917 1
0.142807 0.191611 1.037076 2631979 1
0.156721 0.187878 1.016873 3816253 1
0.173417 0.187878 1.016873 3092532 1
0.187676 0.185469 1.003836 3750462 1
0.045123 0.174933 1.151459 2828847 1
0.063101 0.172397 1.134771 3026226 1
0.081733 0.172397 1.134771 2763054 1
0.044469 0.191029 1.134771 2302503 1
0.079430 0.185648 1.102806 2565676 1
0.098931 0.188300 1.118560 1973541 1
-0.698098 0.141612 0.932133 1973541 1
-0.636583 0.148693 0.978740 723471 1
-0.682793 0.156917 0.932133 986646 1
-0.659636 0.155071 0.921167 854547 1
-0.636583 0.164763 0.978740 1710620 1
-0.698098 0.172222 0.932133 1051928 1
-0.682793 0.172222 0.932133 1512475 1
-0.675530 0.174297 0.943364 1906719 1
-0.652184 0.172222 0.932133 1709086 3
-0.621574 0.172222 0.932133 1381912 3
-0.636583 0.180833 0.978740 1315860 3
-0.698098 0.187526 0.932133 2695983 3
-0.691020 0.189786 0.943364 2301991 3
-0.675530 0.189786 0.943364 2301477 3
-0.660041 0.189786 0.943364 1183512 3
-0.644552 0.189786 0.943364 1710367 3
-0.850926 0.146857 0.966657 1316640 1
-0.845492 0.148693 0.978740 592149 1
-0.839921 0.150575 0.991129 1249307 1
-0.813352 0.148693 0.978740 1248537 1
-0.807375 0.150575 0.991129 1644063 1
-0.826007 0.155071 0.921167 1447456 1
-0.850926 0.162729 0.966657 592663 1
-0.835054 0.162729 0.966657 1382180 1
-0.829422 0.164763 0.978740 1644065 1
-0.813352 0.164763 0.978740 1314328 1
-0.893702 0.180833 0.978740 788752 1
-0.766356 0.221038 1.631234 1446682 1
-0.739573 0.221038 1.631234 1447195 1
-0.727955 0.225741 1.665941 1315611 1
-0.793139 0.247821 1.631234 1512475 1
-0.766356 0.247821 1.631234 1775647 1
-0.739573 0.247821 1.631234 2236710 1
-0.712790 0.247821 1.631234 1447195 1
-0.700602 0.253094 1.665941 2499883 1
-0.766356 0.274605 1.631234 1184025 1
-0.739573 0.274605 1.631234 1381914 1
-0.712790 0.274605 1.631234 1118743 1
-0.584052 0.110519 0.815617 1183510 1
-0.570661 0.110519 0.815617 1380893 1
-0.557269 0.110519 0.815617 2301995 1
-0.580136 0.117887 0.869991 1774879 1
-0.595472 0.129298 0.851078 2104614 1
-0.594420 0.132171 0.869991 591375 1
-0.593321 0.135175 0.889764 1118230 1
-0.673324 0.104767 0.879766 1182742 1
-0.658879 0.119212 0.879766 1051926 1
-0.603733 0.111682 0.824202 1249816 1
-0.651757 0.135175 0.889764 1710369 1
-0.609446 0.129298 0.851078 1578270 1
-0.629695 0.151506 0.899991 1709856 1
-0.607930 0.149784 0.889764 920853 1
-0.600141 0.151506 0.899991 1316121 1
-0.614918 0.166283 0.899991 1249818 3
-0.791101 0.118028 0.991129 1446684 1
-0.774828 0.118028 0.991129 854547 1
-0.791101 0.134302 0.991129 920340 1
-0.765143 0.132623 0.978740 1973028 1
-0.713403 0.126307 0.932133 1578270 1
-0.781213 0.148693 0.978740 1709856 1
-0.765143 0.148693 0.978740 1183771 1
-0.749073 0.148693 0.978740 2104873 1
-0.797282 0.164763 0.978740 1117719 1
-0.781213 0.164763 0.978740 1380891 1
-0.765143 0.164763 0.978740 1250077 1
-0.739825 0.162729 0.966657 1644835 1
-0.706509 0.158807 0.943364 1512736 1
-0.780633 0.170195 0.921167 1972512 1
-0.793515 0.176422 0.954868 1446167 1
-0.797282 0.180833 0.978740 1907235 1
-0.781213 0.180833 0.978740 1381150 1
-0.746481 0.176422 0.954868 986905 1
-0.721998 0.174297 0.943364 2565426 1
-0.780633 0.185320 0.921167 919823 3
-0.793515 0.192100 0.954868 1840925 3
-0.746481 0.192100 0.954868 1710628 3
-0.721998 0.189786 0.943364 1709604 3
-0.665515 0.005160 1.242845 1447195 1
-0.635029 0.005079 1.223425 1907233 1
-0.614942 0.005079 1.223425 854545 1
-0.665515 0.025566 1.242845 1710367 1
-0.645109 0.025566 1.242845 920850 1
-0.614942 0.025167 1.223425 723214 1
-0.645109 0.045972 1.242845 1512987 1
-0.624703 0.045972 1.242845 1644573 1
-0.624110 0.047480 1.283594 1052179 1
-0.320716 0.218833 0.598935 3552309 3
-0.306951 0.216065 0.591360 4933962 3
-0.300430 0.218383 0.597704 3223857 3
-0.359312 0.228197 0.597704 3684406 3
-0.349498 0.228197 0.597704 2369059 3
-0.337915 0.227008 0.594591 4869195 3
-0.327372 0.226468 0.593176 4013886 3
-0.317632 0.226468 0.593176 3487031 3
-0.304734 0.224144 0.587089 2171167 3
-0.369034 0.225937 0.567386 4276547 3
-0.357939 0.224820 0.564579 4737096 3
-0.346173 0.223210 0.560537 5329231 3
-0.336213 0.222710 0.559280 2236960 3
-0.328648 0.223811 0.562046 4277056 3
-0.326656 0.228881 0.574778 3750712 3
-0.321739 0.232143 0.582970 3355956 3
-0.312892 0.232682 0.584322 3552822 3
-0.301753 0.231497 0.581347 4539715 3
-0.365121 0.227028 0.547547 3026737 3
-0.357855 0.228127 0.550198 3815994 3
-0.349585 0.228626 0.551403 5066061 3
-0.338894 0.227527 0.548752 3092269 3
-0.329160 0.227028 0.547547 3026476 3
-0.321720 0.228127 0.550198 5263949 3
-0.318021 0.232019 0.559585 5790295 3
-0.317218 0.238319 0.574778 2632231 3
-0.310574 0.240481 0.579994 3026991 3
-0.301051 0.240481 0.579994 3815992 3
-0.360866 0.233268 0.541166 3618874 3
-0.352895 0.233874 0.542573 4408644 3
-0.344730 0.234379 0.543745 3816507 3
-0.335802 0.234379 0.543745 4737607 3
-0.326874 0.234379 0.543745 3158575 3
-0.317946 0.234379 0.543745 3947832 3
-0.312011 0.236648 0.549010 5592657 3
-0.315166 0.246153 0.571059 4211263 3
-0.397538 0.237028 0.790901 5396307 3
-0.384674 0.237103 0.791152 5066574 3
-0.373453 0.238231 0.794916 4869195 3
-0.360401 0.238231 0.794916 5066574 3
-0.347349 0.238231 0.794916 5526614 3
-0.396165 0.249150 0.788169 4606023 3
-0.382741 0.248836 0.787175 4409158 3
-0.371567 0.250014 0.790901 3356724 3
-0.356116 0.248295 0.785464 5066574 3
-0.342139 0.247514 0.782992 3289650 3
-0.329703 0.247829 0.783991 3750714 3
-0.377980 0.250060 0.751989 5066574 3
-0.356850 0.244054 0.733926 4934988 3
-0.353407 0.250146 0.752247 4606537 3
-0.351480 0.257792 0.775240 3881789 3
-0.335179 0.255073 0.767065 3947582 3
-0.301414 0.248016 0.745841 4474183 3
-0.549279 -0.499791 3.479965 986135 1
-0.593234 -0.433031 3.404314 1709086 1
-0.549279 -0.442653 3.479965 1841444 1
0.212468 0.210343 0.966657 6381408 3
0.232648 0.214312 0.984896 7171439 3
0.248819 0.214312 0.984896 6250596 3
0.268366 0.217042 0.997442 5658459 3
0.275954 0.210343 0.966657 5263442 3
0.291826 0.210343 0.966657 5198160 3
0.212551 0.226303 0.967032 7894647 3
0.230745 0.228598 0.976840 6842474 3
0.247660 0.229410 0.980309 5921629 3
0.271918 0.222906 0.952519 7435122 3
0.284794 0.220764 0.943364 7040362 3
0.205448 0.234088 0.934718 6052697 3
