# .PCD v0.7
VERSION 0.7
FIELDS x y z rgb label
SIZE 4 4 4 4 4
TYPE F F F U U
COUNT 1 1 1 1 1
WIDTH 1199
HEIGHT 1
VIEWPOINT 0 0 0 1 0 0 0
POINTS 1199
DATA ascii
0.408542 0.180429 0.493826 5526873 3
0.445791 0.182400 0.499219 5460821 3
0.452545 0.181820 0.497633 3750203 3
0.419445 0.189802 0.497138 5592664 3
0.427607 0.189802 0.497138 4934477 3
0.435770 0.189802 0.497138 4276293 3
0.442966 0.189389 0.496056 5197395 3
0.215382 0.181639 0.497138 8750728 3
0.223955 0.181973 0.498052 8421763 3
0.206564 0.189201 0.495565 8158332 3
0.214235 0.188791 0.494490 8487038 3
0.222706 0.189090 0.495273 8553603 3
0.232491 0.190444 0.498821 8750731 3
0.295953 0.189128 0.495373 7238521 3
0.033054 0.217183 0.594420 8882055 3
0.040749 0.206709 0.565752 9276815 3
0.048877 0.201912 0.552625 8553090 3
0.057822 0.201466 0.551403 8948359 3
0.031696 0.217619 0.569997 9803157 3
0.038347 0.203267 0.532407 9934743 3
0.055769 0.203046 0.531827 8093052 3
0.065352 0.205723 0.538839 9014154 3
0.074008 0.205193 0.537452 9145227 3
0.082654 0.204752 0.536296 9211020 3
0.091032 0.203794 0.533788 8684676 3
0.099583 0.203359 0.532648 9144968 3
0.003759 0.235766 0.592067 8750471 3
0.021882 0.222352 0.558382 8290945 3
0.064501 0.211778 0.531827 8619142 3
0.073849 0.213557 0.536296 8421506 3
0.082268 0.212558 0.533788 8224125 3
0.090838 0.212104 0.532648 7829367 3
0.099583 0.212104 0.532648 9342604 3
0.074042 0.222944 0.537699 8947850 3
0.082446 0.221802 0.534944 8947848 3
0.090416 0.219824 0.530173 8027259 3
0.099373 0.220384 0.531523 8882566 3
0.091632 0.231603 0.537304 9672084 3
0.099583 0.229596 0.532648 7830648 3
-0.457159 0.205048 0.561206 3290163 3
-0.435404 0.212416 0.581372 2434854 3
-0.417125 0.208059 0.569449 2434854 3
-0.416523 0.212523 0.581665 3026478 3
-0.427934 0.218153 0.571397 4473924 3
-0.415054 0.216330 0.566622 4934475 3
-0.440971 0.219997 0.552469 3355956 3
-0.438014 0.223112 0.560290 4803148 3
-0.432973 0.225276 0.565724 4408390 3
-0.428031 0.227587 0.571527 3882300 3
-0.444819 0.231067 0.557290 3158577 3
-0.437815 0.232206 0.560036 5131602 3
-0.429576 0.232724 0.561285 3487288 3
-0.440606 0.237942 0.552012 3224370 3
-0.431066 0.237680 0.551403 3355443 3
-0.422013 0.237680 0.551403 2237475 3
0.168373 0.205812 0.589804 7894133 3
0.181090 0.209318 0.599851 7631475 3
0.190256 0.208569 0.597704 8816262 3
0.138699 0.200592 0.549010 9144200 3
0.149814 0.203445 0.556818 8419964 3
0.167650 0.214571 0.587271 8814981 3
0.180615 0.218593 0.598278 8486786 3
0.188950 0.216884 0.593602 8158334 3
0.197107 0.215150 0.588855 8618374 3
0.108329 0.203359 0.532648 10328990 3
0.117626 0.204317 0.535156 9144716 3
0.127891 0.206707 0.541417 9013130 3
0.137369 0.207596 0.543745 9276300 3
0.147713 0.209606 0.549010 9012614 3
0.166947 0.223274 0.584809 8748929 3
0.181047 0.228962 0.599709 10854564 3
0.183234 0.219774 0.575643 9013132 3
0.184508 0.210447 0.551214 10066331 3
0.191353 0.208049 0.544933 9540244 3
0.108329 0.212104 0.532648 9013643 3
0.117074 0.212104 0.532648 7895162 3
0.126412 0.213103 0.535156 8684678 3
0.136781 0.215596 0.541417 9013643 3
0.146297 0.216523 0.543745 8684163 3
0.156727 0.218620 0.549010 9670544 3
0.166464 0.219573 0.551403 9143946 3
0.174674 0.218517 0.548752 9671060 3
0.182405 0.216996 0.544933 9342608 3
0.189137 0.214484 0.538624 9408658 3
0.192638 0.208696 0.524087 9013900 3
0.107826 0.219824 0.530173 8684678 3
0.116827 0.220384 0.531523 8750217 3
0.125235 0.219824 0.530173 8882057 3
0.133656 0.219358 0.529049 9013643 3
0.142343 0.219358 0.529049 8487299 3
0.151029 0.219358 0.529049 7763063 3
0.161220 0.221424 0.534031 7630707 3
0.173171 0.225570 0.544031 8684165 3
0.182405 0.225944 0.544933 8092541 3
0.189137 0.223328 0.538624 8224127 3
0.193511 0.218286 0.526464 9079693 3
-0.474182 0.225891 0.647343 3355702 3
-0.495222 0.241323 0.691567 2895151 3
-0.413912 0.240263 0.688530 5328204 3
-0.485150 0.253348 0.693401 2697513 3
-0.430248 0.247952 0.678633 3815994 3
-0.458815 0.244622 0.640726 4013373 3
-0.472271 0.257705 0.674993 5197647 3
-0.472512 0.264032 0.691567 4079166 3
0.061814 0.196016 0.589465 8685189 3
0.068138 0.186821 0.561813 9342865 3
0.076268 0.184178 0.553864 9342608 3
0.085397 0.184253 0.554091 9211022 3
0.094703 0.184659 0.555314 8355202 3
0.050283 0.198385 0.568519 7434609 3
0.058212 0.193710 0.555122 8027259 3
0.066876 0.192412 0.551403 7961212 3
0.075564 0.191487 0.548752 8618883 3
0.083985 0.190155 0.544933 9408401 3
0.092290 0.188840 0.541166 9802646 3
0.066237 0.199542 0.546138 8750982 3
0.074520 0.197726 0.541166 8684676 3
0.083224 0.197298 0.539995 9079434 3
0.091657 0.196369 0.537452 8684165 3
0.046168 0.199292 0.521995 9343117 3
-0.351313 0.225067 0.676827 4933962 3
-0.337285 0.223138 0.671027 5723989 3
-0.325390 0.222538 0.669224 5855829 3
-0.395764 0.236179 0.676827 4605510 3
-0.379139 0.232795 0.667128 4539715 3
0.181133 0.189666 0.599994 8355452 3
0.190939 0.189621 0.599851 7565934 3
0.104331 0.185566 0.558041 9013128 3
0.113745 0.185978 0.559280 8355713 3
0.122928 0.185978 0.559280 8026748 3
0.137716 0.193869 0.583010 8487299 3
0.181133 0.199517 0.599994 8750210 3
0.190985 0.199517 0.599994 8026487 3
0.100957 0.188432 0.539995 7960440 3
0.109823 0.188432 0.539995 8026748 3
0.119256 0.189331 0.542573 7303025 3
0.129685 0.191577 0.549010 7434098 3
0.140672 0.194302 0.556818 7302510 3
0.151976 0.197106 0.564853 7499121 3
0.100265 0.195946 0.536296 9605519 3
0.109071 0.195946 0.536296 10461089 3
0.118435 0.196875 0.538839 9407888 3
0.128164 0.198240 0.542573 9539474 3
0.190112 0.197467 0.517215 9606291 3
0.488152 0.158019 0.527267 3618363 3
0.497963 0.158386 0.528492 4473673 3
0.455381 0.164224 0.519511 6052443 3
0.459433 0.162639 0.514497 5591892 3
0.470303 0.163481 0.517160 6184029 3
0.483270 0.165009 0.521995 5262929 3
0.491841 0.165009 0.521995 6644582 3
0.450340 0.174103 0.523567 6644580 3
0.454813 0.172538 0.518863 7236717 3
0.458959 0.170910 0.513965 7828854 3
0.469330 0.171616 0.516090 7960440 3
0.483270 0.173580 0.521995 6316130 3
0.414161 0.174691 0.500617 3618617 3
0.428113 0.177062 0.507411 3355445 3
0.434339 0.176207 0.504964 5987165 3
0.439960 0.175145 0.501918 4605512 3
0.447216 0.174760 0.500816 4802891 3
0.454984 0.174585 0.500314 5460821 3
0.463861 0.174835 0.501030 4671303 3
0.422635 0.183021 0.500919 3224118 3
0.430771 0.182983 0.500816 4473926 3
0.438554 0.182800 0.500314 6513509 3
0.510846 0.205443 0.685510 6184803 3
0.527740 0.207662 0.692913 7171439 3
0.532671 0.205179 0.684628 7631477 3
0.537714 0.202841 0.676827 6644582 3
0.518562 0.215229 0.680863 6710886 3
0.526601 0.213954 0.676827 6776681 3
0.125235 0.184544 0.615774 5263442 3
0.135478 0.184725 0.616378 5197906 3
0.144252 0.183016 0.610678 7631990 3
0.155312 0.184243 0.614770 8026748 3
0.104350 0.193423 0.611880 7236721 3
0.114814 0.194128 0.614111 7828856 3
0.125266 0.194702 0.615926 9211022 3
0.136047 0.195663 0.618966 7171696 3
0.145386 0.194561 0.615479 7303025 3
0.153309 0.191830 0.606841 7303023 3
0.178384 0.197530 0.624873 8092026 3
0.151616 0.199565 0.600138 8552577 3
-0.198063 0.231548 0.772614 6513509 3
-0.185721 0.231977 0.774046 6513768 3
-0.175913 0.235867 0.787026 6842733 3
-0.193326 0.238391 0.754134 8355459 3
-0.176401 0.232407 0.735204 7829626 3
-0.164330 0.232407 0.735204 6842985 3
-0.191702 0.248668 0.747802 5394774 3
-0.230035 0.238388 0.795438 5986652 3
-0.213447 0.234513 0.782508 6644580 3
-0.230035 0.251448 0.795438 7237232 3
-0.213318 0.247210 0.782033 6907752 3
-0.266858 0.250061 0.751992 4934475 3
-0.237909 0.233749 0.702938 6052956 3
-0.288995 0.260106 0.745395 6184542 3
-0.267403 0.251316 0.720205 6052956 3
-0.283576 0.267238 0.731418 3947839 3
-0.399889 0.238430 0.795578 5789784 3
-0.375121 0.239296 0.798467 5131852 3
-0.359043 0.237334 0.791920 5000268 3
-0.383271 0.241041 0.762516 4737094 3
-0.370552 0.240911 0.762106 4737348 3
-0.371107 0.249705 0.789922 4737605 3
-0.352038 0.245452 0.776469 3553081 3
-0.347240 0.251204 0.794665 3355704 3
-0.332609 0.250014 0.790901 3684667 3
-0.377246 0.234270 0.704504 4408129 3
-0.334604 0.236837 0.712223 5066572 3
-0.345879 0.253683 0.762885 3947582 3
-0.346812 0.263926 0.793686 3684410 3
-0.323825 0.256054 0.770014 4802891 3
-0.320066 0.263364 0.791997 5000270 3
-0.330532 0.263957 0.756430 5131854 3
-0.322827 0.267868 0.767639 6447716 3
-0.308152 0.266080 0.762516 6052958 3
-0.322827 0.280472 0.767639 4670790 3
-0.308152 0.278600 0.762516 3618104 3
-0.310223 0.293076 0.767639 7170924 3
0.434482 0.200500 0.707794 6644841 3
0.448635 0.201638 0.711811 6710634 3
0.419657 0.210515 0.702433 5131854 3
0.433257 0.211524 0.705799 6316130 3
0.448508 0.213265 0.711610 7171696 3
0.456820 0.211702 0.706396 6711147 3
0.467239 0.211170 0.704618 6645352 3
0.303499 0.166829 0.588930 5591896 3
0.302331 0.175820 0.586664 4605001 3
0.313979 0.176955 0.590454 6578536 3
0.310388 0.184516 0.583702 8092288 3
0.305611 0.191112 0.574717 7500151 3
0.323665 0.175333 0.527267 5921631 3
0.332392 0.175370 0.527379 6448745 3
0.341988 0.175852 0.528827 6777967 3
0.347662 0.174343 0.524290 4738125 3
0.355823 0.174124 0.523631 4342086 3
0.362377 0.173148 0.520695 4867918 3
0.366742 0.171195 0.514822 4539214 3
0.372942 0.170167 0.511730 5131862 3
0.320428 0.182150 0.521995 8488073 3
0.329068 0.182189 0.522104 6909296 3
0.338558 0.182684 0.523523 7238261 3
0.344134 0.181095 0.518969 7567224 3
0.351199 0.180347 0.516826 7171185 3
0.358063 0.179534 0.514497 4275781 3
0.364118 0.178362 0.511138 3157561 3
0.371824 0.178034 0.510197 4473675 3
0.380512 0.178179 0.510613 5460821 3
0.388578 0.178034 0.510197 5329233 3
0.311033 0.185129 0.506689 7962244 3
0.318580 0.184682 0.505465 7895936 3
0.331360 0.187213 0.512392 7304054 3
0.340466 0.187595 0.513437 7106671 3
0.348112 0.187173 0.512284 6645093 3
0.355361 0.186563 0.510613 7763065 3
0.363447 0.186410 0.510197 7039600 3
0.374650 0.187827 0.514074 7302772 3
0.382072 0.187328 0.512707 7895162 3
0.386770 0.185543 0.507823 5724504 3
0.307120 0.191014 0.500314 7501691 3
0.290514 0.164947 0.582286 5394515 3
0.268852 0.172873 0.576833 5526361 3
0.280823 0.174426 0.582016 8882057 3
0.289438 0.173861 0.580129 7828856 3
0.200117 0.188987 0.597847 8026233 3
0.277727 0.181954 0.575598 9737112 3
0.286191 0.181329 0.573621 8881546 3
0.298631 0.183183 0.579485 7170928 3
0.200836 0.199517 0.599994 8420991 3
0.210134 0.198994 0.598420 9079434 3
0.284109 0.189360 0.569449 8684167 3
0.293459 0.189360 0.569449 8815753 3
0.240948 0.188883 0.516965 8552839 3
0.254407 0.192648 0.527267 8684425 3
0.257173 0.188333 0.515460 9012877 3
0.261017 0.185059 0.506496 8683912 3
0.266899 0.183386 0.501918 8552581 3
0.298849 0.182766 0.500221 7106935 3
0.242470 0.191859 0.502526 7960704 3
0.251222 0.192243 0.503532 8156802 3
0.257684 0.190905 0.500027 9472660 3
0.267368 0.226268 0.798757 7172464 3
0.278165 0.224398 0.792156 6974317 3
0.290619 0.223972 0.790653 5263701 3
0.209316 0.233153 0.777970 6183261 3
0.228085 0.239447 0.798972 8157821 3
0.239438 0.237694 0.793123 6118236 3
0.223158 0.210106 0.701068 7434607 3
0.235930 0.211235 0.704838 6908778 3
0.275574 0.235193 0.784777 7500661 3
-0.060473 0.226160 0.798376 7171439 3
-0.046685 0.222916 0.786927 7368818 3
-0.033915 0.223906 0.790420 7697783 3
-0.008017 0.225539 0.796183 6974060 3
-0.073605 0.239343 0.798625 5526614 3
-0.059495 0.235399 0.785464 5723993 3
-0.046452 0.234658 0.782992 6250337 3
-0.033862 0.236515 0.789190 5066063 3
-0.008017 0.238611 0.796183 7236719 3
-0.083317 0.242558 0.767313 6579813 3
-0.070062 0.240305 0.760186 5855577 3
-0.057689 0.240755 0.761612 5262929 3
-0.046613 0.248369 0.785697 7565686 3
-0.034022 0.250655 0.792929 6973549 3
-0.031935 0.247499 0.744287 3288886 3
-0.020904 0.262427 0.789180 4999504 3
-0.008045 0.265683 0.798972 6249056 3
-0.007343 0.266431 0.729208 8289920 3
-0.523158 0.211811 0.747724 4408644 3
-0.506644 0.210055 0.741522 3815994 3
-0.599258 0.234658 0.782992 2368809 3
-0.586402 0.234658 0.782992 3421497 3
-0.559555 0.228934 0.763892 3356472 3
-0.531460 0.222424 0.742173 2830128 3
-0.517590 0.221703 0.739766 2171682 3
-0.506341 0.222097 0.741079 2763306 3
-0.567025 0.229282 0.725316 3224118 3
-0.538366 0.222363 0.703430 3092530 3
-0.528290 0.222985 0.705398 2631979 3
-0.519938 0.224379 0.709807 3092530 3
-0.512933 0.226432 0.716301 2040614 3
-0.509059 0.229995 0.727572 4671562 3
-0.501742 0.232136 0.734347 5855579 3
-0.503717 0.233913 0.703430 3224886 3
0.119926 0.232408 0.870913 7895419 3
0.144150 0.225561 0.845254 6644842 3
0.152487 0.217652 0.815617 6776168 3
0.165878 0.217652 0.815617 6118747 3
0.179270 0.217652 0.815617 6184542 3
0.192662 0.217652 0.815617 6907754 3
0.104320 0.243655 0.860137 6184290 3
0.117717 0.242162 0.854866 6184544 3
0.126080 0.231735 0.818058 6381669 3
0.104312 0.257758 0.860072 6513768 3
-0.453291 0.201219 0.754036 2565163 3
-0.451076 0.205858 0.771421 2565418 3
-0.414127 0.200241 0.750370 3684408 3
-0.421535 0.210072 0.787212 4474183 3
-0.499639 0.212251 0.749275 3223348 3
-0.482595 0.210186 0.741985 4012864 3
-0.473220 0.211440 0.746414 2367267 3
-0.467062 0.214237 0.756287 3420725 3
-0.453291 0.213599 0.754036 2697515 3
-0.451076 0.218524 0.771421 3815483 3
-0.436933 0.217788 0.768821 5526612 3
-0.426674 0.219001 0.773106 5395024 3
-0.421535 0.222997 0.787212 6645093 3
-0.410524 0.224042 0.790901 6184544 3
-0.494903 0.222424 0.742173 2828590 3
-0.481152 0.221703 0.739766 2960174 3
-0.470262 0.222297 0.741748 4999757 3
-0.464817 0.225565 0.752652 3487029 3
-0.450839 0.224757 0.749957 4473924 3
-0.445998 0.228587 0.762736 3289650 3
-0.434133 0.228934 0.763895 5263438 3
-0.425896 0.231272 0.771694 4868934 3
-0.416543 0.233129 0.777891 5263440 3
-0.404397 0.233490 0.779097 5066061 3
-0.492424 0.233435 0.738455 5657685 3
-0.478184 0.232407 0.735204 5329235 3
-0.468045 0.233370 0.738251 4539717 3
-0.462594 0.236785 0.749052 2763306 3
-0.448690 0.235941 0.746382 3618613 3
-0.443836 0.239942 0.759039 4671303 3
-0.433475 0.241111 0.762736 4473924 3
-0.421720 0.241551 0.764129 4144957 3
-0.413852 0.244312 0.772865 4934473 3
-0.402148 0.244913 0.774765 4012860 3
-0.499770 0.237526 0.714297 3355702 3
-0.490806 0.238871 0.718341 4605512 3
-0.482061 0.240392 0.722914 5920857 3
-0.471543 0.241083 0.724993 4539719 3
-0.460181 0.241367 0.725848 2763306 3
-0.456184 0.245632 0.738672 3421236 3
-0.445904 0.246655 0.741748 4210750 3
-0.440233 0.250356 0.752877 4473926 3
-0.427872 0.250356 0.752877 5066061 3
-0.416890 0.251187 0.755377 5855575 3
-0.492167 0.245462 0.703430 3487288 3
-0.491167 0.250850 0.718869 4144959 3
-0.483447 0.252987 0.724993 3947580 3
-0.474573 0.254612 0.729651 4671305 3
-0.455236 0.250563 0.718048 3355443 3
-0.436872 0.246849 0.707402 4736583 3
-0.486697 0.260263 0.712328 4473924 3
-0.479011 0.262460 0.718341 3355441 3
-0.464297 0.260820 0.713852 4276547 3
0.402039 0.173292 0.691959 5526103 3
0.413970 0.173531 0.692913 4209988 3
0.426766 0.174110 0.695225 3749437 3
0.440623 0.175080 0.699100 2828590 3
0.451976 0.175032 0.698906 3289398 3
0.461910 0.174449 0.696581 2565927 3
0.410681 0.183439 0.687407 8552326 3
0.427598 0.185887 0.696581 6183778 3
0.449023 0.185289 0.694340 5328981 3
0.453583 0.182536 0.684023 5855577 3
0.466725 0.183286 0.686835 5986650 3
0.478002 0.183286 0.686835 5657687 3
0.489279 0.183286 0.686835 5855325 3
0.406302 0.198093 0.699296 7960442 3
0.465225 0.193938 0.684628 6447714 3
0.471037 0.191728 0.676827 4933964 3
0.480843 0.191209 0.674993 5592153 3
0.497859 0.193515 0.683135 5790045 3
0.359560 0.174734 0.697715 7235952 3
0.359842 0.169471 0.676702 8026237 3
0.372955 0.170386 0.680355 4539206 3
0.388959 0.172530 0.688915 3289141 3
0.308721 0.183213 0.686562 7369077 3
0.340240 0.170745 0.639840 8355202 3
0.363523 0.176965 0.663150 10197406 3
0.384677 0.181817 0.681332 7565684 3
0.399062 0.183286 0.686835 7828856 3
0.239285 0.222728 0.889357 7696502 3
0.249231 0.218643 0.873046 7434100 3
0.258718 0.214621 0.856989 7500661 3
0.269901 0.212349 0.847916 7304050 3
0.283342 0.211989 0.846478 7370356 3
0.296141 0.211206 0.843349 6909294 3
0.209841 0.221653 0.830610 6512998 3
0.223527 0.221701 0.830790 6972779 3
0.233217 0.218008 0.816951 8026237 3
0.246472 0.217868 0.816426 8355713 3
0.263741 0.221107 0.828563 6251362 3
0.276341 0.220307 0.825565 6382948 3
0.289513 0.220016 0.824475 5725020 3
0.219304 0.230895 0.815091 6512228 3
0.230436 0.228662 0.807208 6052445 3
0.243690 0.228662 0.807208 6974058 3
0.256943 0.228662 0.807208 6974569 3
-0.394439 0.217878 0.869991 2697513 3
-0.399306 0.226813 0.849947 5921370 3
-0.377654 0.222283 0.832970 5395026 3
-0.382567 0.233635 0.875511 5263442 3
-0.369137 0.234235 0.877759 4670794 3
-0.357079 0.235790 0.883585 4275266 3
-0.339697 0.233811 0.876170 5919832 3
-0.320577 0.230408 0.863419 6512228 3
-0.303058 0.227895 0.854001 5986652 3
-0.395157 0.230221 0.812711 4671303 3
-0.380828 0.229627 0.810615 5658196 3
-0.362711 0.226623 0.800012 6184542 3
-0.356629 0.231196 0.816153 4737098 3
-0.347080 0.233789 0.825310 4736587 3
-0.340244 0.238497 0.841927 5855068 3
-0.326421 0.238497 0.841927 7104363 3
-0.313759 0.239383 0.845056 6314849 3
-0.389099 0.239830 0.800252 5263438 3
-0.352721 0.241915 0.807208 4539719 3
-0.344380 0.245417 0.818892 5921118 3
-0.336869 0.249817 0.833574 5263188 3
-0.326421 0.252320 0.841927 5657689 3
-0.313759 0.253258 0.845056 4867403 3
-0.326707 0.255555 0.808430 4868941 3
-0.320711 0.261489 0.827200 5263442 3
-0.309897 0.263845 0.834655 5855579 3
-0.311557 0.267219 0.803589 4408133 3
-0.301259 0.269813 0.811391 5066063 3
0.306991 0.204589 0.874247 6382182 3
0.317797 0.202330 0.864594 5986911 3
0.309260 0.210709 0.841367 7040112 3
0.316293 0.206287 0.823709 7171186 3
0.326578 0.204260 0.815617 7434098 3
0.339969 0.204260 0.815617 6974058 3
0.348403 0.201394 0.804173 6579559 3
0.304354 0.220962 0.828021 7237491 3
0.313754 0.218047 0.817096 6052705 3
0.005557 0.204803 0.875159 9211531 3
0.020109 0.206681 0.883184 7500913 3
0.034671 0.207044 0.884737 6579813 3
0.049675 0.209056 0.893333 5790297 3
0.005496 0.216749 0.865485 7303532 3
0.020039 0.220417 0.880129 8093050 3
0.034671 0.221571 0.884737 6514534 3
0.049675 0.223723 0.893333 6712167 3
0.005214 0.219129 0.821150 8158843 3
0.019434 0.227772 0.853539 6448225 3
0.033881 0.230722 0.864594 6777960 3
0.047617 0.228514 0.856320 7370097 3
0.062337 0.230960 0.865485 6646120 3
0.076946 0.232162 0.869991 7303536 3
0.091496 0.232837 0.872520 7960442 3
0.018779 0.233633 0.824758 5658709 3
0.033341 0.241008 0.850791 6185053 3
0.047118 0.240033 0.847350 7238511 3
0.061995 0.243823 0.860728 7172466 3
0.076495 0.245001 0.864888 7303025 3
0.090228 0.243738 0.860431 5460308 3
0.018519 0.243753 0.813340 7237228 3
0.032993 0.252320 0.841927 6711397 3
0.046849 0.252492 0.842499 7303536 3
0.061321 0.255150 0.851369 5790043 3
0.005104 0.254108 0.803853 7631477 3
0.018799 0.260994 0.825637 7960955 3
0.033138 0.267316 0.845634 6842474 3
0.046319 0.263313 0.832970 6908265 3
0.061829 0.271358 0.858422 7631990 3
0.077541 0.277140 0.876712 7237232 3
-0.068122 0.210464 0.899352 5790297 3
-0.052545 0.207267 0.885690 5329231 3
-0.037381 0.203878 0.871210 8289920 3
-0.022917 0.202469 0.865185 8487045 3
-0.008718 0.202610 0.865789 8618885 3
-0.067110 0.221886 0.885997 7171437 3
-0.052157 0.220173 0.879155 6710886 3
-0.037187 0.217050 0.866687 7237230 3
-0.022831 0.215856 0.861916 7895673 3
-0.008667 0.215558 0.860728 7961466 3
-0.096869 0.238065 0.892113 7171437 3
-0.077859 0.225436 0.844787 6447714 3
-0.063772 0.224673 0.841927 6381921 3
-0.049883 0.224377 0.840819 6316128 3
-0.035364 0.219943 0.824202 8092539 3
-0.021655 0.218159 0.817515 6250848 3
-0.008086 0.214304 0.803069 7106157 3
-0.089792 0.234252 0.826942 7434611 3
-0.075418 0.231804 0.818300 6974060 3
-0.021265 0.227417 0.802813 6842474 3
-0.088854 0.245239 0.818300 5592407 3
-0.021265 0.240598 0.802813 5920859 3
-0.021347 0.254760 0.805915 5196369 3
-0.008125 0.255087 0.806950 8157053 3
-0.442051 0.205809 0.879459 2894894 3
-0.425371 0.204731 0.874852 2698026 3
-0.411007 0.204731 0.874852 3290163 3
-0.433649 0.202813 0.809836 1908258 3
-0.421989 0.203602 0.812989 1710366 3
-0.411669 0.205111 0.819015 2565929 3
-0.423008 0.217878 0.869991 1579034 3
-0.408723 0.217878 0.869991 3223857 3
-0.416343 0.214048 0.802112 5263442 3
-0.409755 0.217542 0.815206 4868684 3
-0.413812 0.227115 0.851078 2894892 3
-0.406079 0.228856 0.807893 5723991 3
0.574457 0.148155 0.680863 2499625 3
0.561235 0.141982 0.652493 2828588 3
0.571948 0.141982 0.652493 3355191 3
0.567993 0.160668 0.686562 3486520 3
0.574457 0.159334 0.680863 3618106 3
0.585636 0.159334 0.680863 3486518 3
0.552029 0.174015 0.694847 3683644 3
0.551880 0.170446 0.680593 3618106 3
0.558422 0.169043 0.674993 2762797 3
0.572909 0.170054 0.679028 3749690 3
0.585636 0.170513 0.680863 3289650 3
0.506701 0.185536 0.695267 4211013 3
0.520973 0.186559 0.699100 3289398 3
0.532452 0.186559 0.699100 3223346 3
0.540621 0.185424 0.694847 3288369 3
0.547174 0.183793 0.688735 2433832 3
0.543962 0.179014 0.670828 1315351 3
0.548957 0.177073 0.663553 1907486 3
0.569893 0.180249 0.675453 3025967 3
0.585636 0.181692 0.680863 2829099 3
0.518117 0.196952 0.695267 5592666 3
0.529212 0.196833 0.694847 6381410 3
0.532671 0.193938 0.684628 5526101 3
0.537714 0.191728 0.676827 5789275 3
0.537853 0.187895 0.663294 5855066 3
0.582508 0.191841 0.677226 4802376 3
0.503570 0.173855 0.798972 6184290 3
0.516688 0.173855 0.798972 5657689 3
0.595398 0.173855 0.798972 3026480 3
0.512000 0.176324 0.753463 2960174 3
0.532606 0.179093 0.765295 3289141 3
0.572630 0.183875 0.785730 4868431 3
0.555472 0.174436 0.745395 4341827 3
0.558976 0.171752 0.733926 3025967 3
0.562165 0.169087 0.722537 4670024 3
0.563626 0.166022 0.709443 3092020 3
0.568483 0.164062 0.701068 3684157 3
0.507071 0.178264 0.711811 3157555 3
0.522030 0.179388 0.716301 3355191 3
0.535312 0.179899 0.718341 5723739 3
0.543687 0.178775 0.713852 5855066 3
0.547021 0.176075 0.703072 5064780 3
0.421023 0.162265 0.745707 5460310 3
0.450426 0.168691 0.775240 6052447 3
0.463155 0.168691 0.775240 4276807 3
0.453436 0.160734 0.738672 4013122 3
0.400067 0.165823 0.708590 3289141 3
0.411702 0.165823 0.708590 4604999 3
0.423336 0.165823 0.708590 3684157 3
0.436707 0.166485 0.711420 4144708 3
0.462212 0.171618 0.733353 4473672 3
0.477693 0.172862 0.738672 3486518 3
0.489821 0.172862 0.738672 3881787 3
0.482335 0.177762 0.709807 2499621 3
0.495384 0.178264 0.711811 2827820 3
0.444593 0.188240 0.705398 6381669 3
0.419657 0.198981 0.702433 8157823 3
0.456064 0.199773 0.705228 6316389 3
0.465273 0.198760 0.701652 6316641 3
0.343495 0.166222 0.763895 3421497 3
0.349223 0.163041 0.749275 3618876 3
0.354737 0.159979 0.735204 4539208 3
0.365094 0.159232 0.731768 4933197 3
0.373617 0.157757 0.724993 4077888 3
0.381984 0.156310 0.718341 4736332 3
0.393778 0.156310 0.718341 5262676 3
0.330768 0.178665 0.763468 6119262 3
0.334563 0.174116 0.744031 5132885 3
0.342466 0.171951 0.734776 4276804 3
0.350318 0.169908 0.726047 3815483 3
0.361713 0.169661 0.724993 3616823 3
0.371261 0.168591 0.720420 3090480 3
0.378419 0.166536 0.711637 2498856 3
0.388433 0.165823 0.708590 3025969 3
0.342219 0.190597 0.761057 5197908 3
0.337809 0.181513 0.724784 7303025 3
0.348198 0.180728 0.721652 6974058 3
0.360047 0.180728 0.721652 7434098 3
0.313189 0.192908 0.722894 7434611 3
0.102634 0.212973 0.978740 5722710 3
0.118704 0.212973 0.978740 5459540 3
0.134774 0.212973 0.978740 6447716 3
0.150844 0.212973 0.978740 7171186 3
0.164854 0.210343 0.966657 6315877 3
0.180725 0.210343 0.966657 5526614 3
0.196597 0.210343 0.966657 5855575 3
0.100981 0.225353 0.962973 7433328 3
0.118246 0.228159 0.974964 6906984 3
0.133630 0.227098 0.970433 5855325 3
0.147733 0.224318 0.958552 5329241 3
0.161494 0.221605 0.946959 6579051 3
0.176370 0.220764 0.943364 6645095 3
0.193468 0.222615 0.951273 6908517 3
0.111681 0.230610 0.920830 5986652 3
0.126151 0.229429 0.916117 6250594 3
0.142549 0.231633 0.924915 5592667 3
0.156130 0.229276 0.915507 7368567 3
0.170218 0.228012 0.910456 5987165 3
0.183703 0.226210 0.903261 6908263 3
0.110116 0.242286 0.907927 7303025 3
0.139082 0.240816 0.902419 7302772 3
-0.085401 0.201631 0.926618 4211011 3
-0.070187 0.201631 0.926618 4342851 3
-0.099621 0.214703 0.917464 5067088 3
-0.084311 0.214078 0.914793 4474437 3
-0.099041 0.228428 0.912120 5592405 3
-0.083190 0.226050 0.902622 5658198 3
-0.175647 0.200445 0.921167 3420472 3
-0.161472 0.201631 0.926618 4210500 3
-0.149803 0.206519 0.949081 4013634 3
-0.135867 0.209053 0.960726 3882816 3
-0.118637 0.206519 0.949081 4540746 3
-0.101214 0.202831 0.932133 2764335 3
-0.174620 0.214309 0.915780 5394775 3
-0.160942 0.216133 0.923576 6842220 3
-0.147790 0.219116 0.936324 6119010 3
-0.133412 0.220764 0.943364 4738125 3
-0.117749 0.220439 0.941977 5067088 3
-0.187463 0.226694 0.905193 5132113 3
-0.172601 0.226694 0.905193 4145218 3
-0.157796 0.226776 0.905522 4407620 3
-0.144923 0.229941 0.918161 5724767 3
-0.131580 0.233009 0.930410 4869970 3
-0.115113 0.230625 0.920891 5461332 3
-0.172539 0.241469 0.904868 4540230 3
-0.156889 0.240255 0.900316 7170928 3
-0.144609 0.244487 0.916175 5593436 3
-0.221021 0.200445 0.921167 4868430 3
-0.271923 0.233288 0.996881 4867653 3
-0.236582 0.215968 0.922871 5394515 3
-0.221021 0.215569 0.921167 5723739 3
-0.251670 0.231062 0.922635 5000009 3
-0.232898 0.227522 0.908502 5855579 3
-0.217188 0.226694 0.905193 6250597 3
-0.202326 0.226694 0.905193 4408393 3
-0.459814 0.212973 0.978740 2697772 3
-0.429025 0.221445 0.946275 3158323 3
-0.431396 0.231036 0.987258 3223605 3
-0.405653 0.232492 0.928344 4210241 3
-0.408467 0.243244 0.971280 6578021 3
0.857754 0.158314 0.786927 196615 1
0.870674 0.158314 0.786927 722961 1
0.815520 0.167860 0.771421 2565416 1
0.828186 0.167860 0.771421 2697004 1
0.853465 0.170378 0.782992 1907488 1
0.866321 0.170378 0.782992 1512475 1
0.870472 0.168691 0.775240 2499883 1
0.863091 0.182551 0.780073 3223348 1
0.869132 0.181141 0.774046 986386 1
0.345585 0.181060 0.899991 3026229 3
0.350296 0.176002 0.874852 4671054 3
0.362634 0.175025 0.869991 4605259 3
0.368725 0.171220 0.851078 5197395 3
0.307203 0.190367 0.874852 7303282 3
0.318014 0.188263 0.865185 6381669 3
0.326803 0.185194 0.851078 4802638 3
0.338935 0.184192 0.846478 7763323 3
0.343548 0.179345 0.824202 4210500 3
0.351530 0.176558 0.811391 3684667 3
0.324945 0.198035 0.846240 6447462 3
0.334428 0.195457 0.835221 6052447 3
0.339936 0.190850 0.815537 6513507 3
0.734141 0.130330 0.705398 2038819 1
0.700434 0.144516 0.718341 2367786 1
0.761586 0.147217 0.731768 1775647 1
0.777233 0.147908 0.735204 2499625 1
0.712229 0.156310 0.718341 2236711 1
0.795021 0.166222 0.763895 3486265 1
0.109477 0.192888 1.043989 3222065 1
0.128329 0.195495 1.058097 3025199 1
0.147698 0.198173 1.072592 2697002 1
0.165309 0.198173 1.072592 2894894 1
0.175699 0.190350 1.030253 2434600 1
-0.089091 0.178600 0.966657 3224119 1
-0.071455 0.174297 0.943364 2631981 1
-0.054330 0.169200 0.915780 2236710 1
-0.038839 0.167244 0.905193 1512475 1
-0.009330 0.171203 0.926618 2104865 1
-0.086945 0.189786 0.943364 2631981 1
-0.069774 0.185320 0.921167 2105635 1
-0.054330 0.184236 0.915780 2697004 1
-0.038839 0.182106 0.905193 3091507 3
-0.009330 0.186417 0.926618 3947069 3
-0.054330 0.199273 0.915780 6776166 3
-0.009168 0.198114 0.910456 8420993 3
-0.139285 0.181970 0.984896 1974049 1
-0.121585 0.179710 0.972661 3290426 1
-0.104963 0.178600 0.966657 2500910 1
-0.152577 0.194472 0.966657 3092019 1
-0.138415 0.196903 0.978740 5461078 1
-0.120093 0.193279 0.960726 3158840 1
-0.103683 0.192100 0.954868 3158840 1
-1.195349 0.425489 2.302918 2039585 3
-1.192615 0.438382 2.372703 2236964 3
-1.195349 0.463300 2.302918 2960687 3
-1.192615 0.477340 2.372703 3223859 3
-1.153657 0.477340 2.372703 3158325 3
-0.946780 0.307800 1.665941 1644573 3
-0.927056 0.328171 1.631234 2697261 3
-0.919427 0.335153 1.665941 2433830 3
-0.953839 0.354954 1.631234 1776673 3
-0.927056 0.354954 1.631234 2697261 3
-0.919427 0.362507 1.665941 2565414 3
1.504500 0.216082 1.283594 1710115 1
1.500969 0.212597 1.262890 920342 1
1.517956 0.209223 1.242845 1249307 1
1.504500 0.237158 1.283594 1315098 1
1.525575 0.237158 1.283594 986135 1
1.521704 0.233332 1.262890 2038823 1
1.538363 0.229629 1.242845 1051928 1
1.514326 0.246128 1.223425 2236202 1
0.630352 0.114618 0.680863 2631471 1
0.641532 0.114618 0.680863 1972260 1
0.619577 0.123646 0.669224 1776419 1
0.647159 0.126900 0.686835 1907235 1
0.630352 0.136976 0.680863 1644833 1
0.647159 0.138177 0.686835 1907745 1
0.670194 0.140645 0.699100 1578523 1
0.602753 0.146878 0.674993 2500396 3
0.619173 0.148155 0.680863 2171947 3
0.630352 0.148155 0.680863 2106152 3
0.647159 0.149454 0.686835 2171171 3
0.670194 0.152123 0.699100 1775898 3
0.681673 0.152123 0.699100 3618617 1
0.600414 0.160295 0.684969 4013375 3
0.609661 0.159771 0.682729 2500395 3
0.619173 0.159334 0.680863 2500912 3
0.630352 0.159334 0.680863 3619391 3
0.641532 0.159334 0.680863 3026739 3
0.664730 0.162268 0.693401 4342338 3
0.681673 0.163602 0.699100 4605512 3
0.693151 0.163602 0.699100 4144961 3
0.691992 0.160668 0.686562 5131602 3
0.600414 0.171541 0.684969 4539717 3
0.613328 0.172009 0.686835 4013121 3
0.620871 0.170980 0.682729 3749952 3
0.626616 0.169502 0.676827 2828850 3
0.636001 0.169043 0.674993 2697264 3
0.662972 0.173194 0.691567 3881278 3
0.681673 0.175080 0.699100 4933964 3
0.680719 0.171940 0.686562 4737098 3
0.600414 0.182788 0.684969 3618615 3
0.609661 0.182190 0.682729 2368296 3
0.619173 0.181692 0.680863 2170918 3
0.604077 0.195218 0.689147 3749688 3
0.611357 0.193938 0.684628 3420725 3
0.611897 0.190605 0.672861 5394517 3
0.191859 0.158807 0.943364 1908256 1
0.182984 0.180833 0.978740 2697772 1
0.196597 0.178600 0.966657 3223859 1
0.103934 0.199395 0.991129 6972266 3
0.166914 0.196903 0.978740 4737098 3
0.182984 0.196903 0.978740 4539976 3
0.196597 0.194472 0.966657 4079168 3
0.006293 0.166848 0.991129 2302504 1
0.022567 0.166848 0.991129 3618364 1
0.038355 0.164763 0.978740 1973539 1
0.055114 0.166848 0.991129 3026227 1
0.071387 0.166848 0.991129 2827820 1
0.005849 0.170195 0.921167 1512730 1
0.020851 0.169200 0.915780 2367784 1
0.036098 0.170195 0.921167 2762544 1
0.052143 0.173253 0.937715 2433577 1
0.071387 0.183122 0.991129 2827820 1
0.087660 0.183122 0.991129 2695975 1
0.005849 0.185320 0.921167 3618617 3
0.020974 0.185320 0.921167 5197395 3
0.036098 0.185320 0.921167 3684157 3
0.051526 0.186417 0.926618 4934224 3
0.067947 0.189786 0.943364 5657687 3
0.087660 0.199395 0.991129 5985882 3
0.005781 0.198114 0.910456 7631988 3
0.020851 0.199273 0.915780 7171439 3
0.035887 0.199273 0.915780 6842220 3
0.050924 0.199273 0.915780 4737098 3
-0.243984 0.204574 1.016873 3552570 3
-0.227288 0.204574 1.016873 4671051 3
-0.216208 0.210029 1.043989 3157812 3
-0.216208 0.227171 1.043989 4342086 3
-0.236229 0.247327 1.056875 4605258 3
0.610835 0.139946 0.921167 2302506 1
0.618107 0.156917 0.932133 2302763 1
0.633412 0.156917 0.932133 1250845 1
0.648717 0.156917 0.932133 1842465 1
0.680217 0.160744 0.954868 2565416 1
0.603733 0.168216 0.910456 1052696 1
0.633412 0.172222 0.932133 1118489 1
0.648717 0.172222 0.932133 2236711 1
0.615105 0.182106 0.905193 4934224 1
0.554793 0.145066 0.954868 2631469 1
0.586149 0.145066 0.954868 2039331 1
0.573835 0.138319 0.910456 1775647 1
0.554793 0.160744 0.954868 1315609 1
0.570471 0.160744 0.954868 1381401 1
0.565461 0.155071 0.921167 1776159 1
0.573835 0.153268 0.910456 1644574 1
0.588784 0.153268 0.910456 1578270 1
0.536523 0.180833 0.978740 2105127 1
0.543937 0.168216 0.910456 3158325 1
0.558886 0.168216 0.910456 2697261 1
0.588784 0.168216 0.910456 1315096 1
0.536523 0.196903 0.978740 2697262 3
0.231194 0.148693 0.978740 2236200 1
0.247264 0.164763 0.978740 2696235 1
0.263334 0.164763 0.978740 2104867 1
0.295474 0.164763 0.978740 1447197 1
0.200115 0.168216 0.910456 2565418 1
0.222838 0.174297 0.943364 2630442 1
0.247264 0.180833 0.978740 2894383 1
0.295474 0.180833 0.978740 2763054 1
0.212468 0.194472 0.966657 2762795 3
0.228340 0.194472 0.966657 4801610 3
0.247264 0.196903 0.978740 3749949 3
0.263334 0.196903 0.978740 4934224 3
0.279404 0.196903 0.978740 4342086 3
0.295474 0.196903 0.978740 3684410 3
1.273650 0.160755 1.186352 1709090 1
1.293129 0.160755 1.186352 590607 1
1.273828 0.177544 1.168645 1051158 1
1.293016 0.177544 1.168645 1249307 1
1.255095 0.193839 1.151459 1905952 1
1.274001 0.193839 1.151459 1578272 1
-0.282709 0.203755 1.102806 2236710 1
-0.219558 0.212744 1.151459 2762542 1
-0.200653 0.212744 1.151459 3420727 1
-0.282709 0.221862 1.102806 2039331 3
-0.282709 0.239969 1.102806 4342086 3
-0.250017 0.243397 1.118560 4013121 3
-0.229026 0.258797 1.105886 5855325 3
-0.309535 0.228293 1.134771 3223859 3
-0.362563 0.258149 1.186352 4209725 3
-0.332993 0.250556 1.151459 4078139 3
-0.309535 0.246925 1.134771 3486516 3
-0.362383 0.277490 1.185764 4340796 3
-0.334546 0.270719 1.156830 4209210 3
-0.350034 0.286839 1.145357 5196105 3
0.522908 0.107175 0.899991 1249816 1
0.552462 0.107175 0.899991 2697004 1
0.542306 0.102464 0.860431 2367270 1
0.550385 0.101350 0.851078 1511707 1
0.575402 0.120566 0.889764 1906465 1
0.582016 0.136729 0.899991 1775649 1
0.508131 0.151506 0.899991 2434603 1
0.508131 0.166283 0.899991 2105125 1
0.522908 0.166283 0.899991 2894641 1
0.567239 0.166283 0.899991 2170918 1
0.505939 0.165813 0.824202 3420985 1
0.519472 0.165813 0.824202 2763055 1
0.556433 0.173101 0.860431 3157300 1
0.576900 0.175025 0.869991 2828850 1
0.552351 0.181253 0.832970 4934223 3
0.566028 0.181253 0.832970 5986911 3
0.579704 0.181253 0.832970 5197138 3
0.599761 0.183202 0.841927 4144450 3
0.594410 0.177477 0.815617 4144707 3
0.599761 0.197026 0.841927 5985885 3
-1.072257 0.224680 1.886728 1974051 1
-1.077277 0.249643 1.842334 1118740 1
-1.034853 0.246740 1.820912 1184022 1
-1.090101 0.283224 1.864267 1118740 1
-1.059492 0.283224 1.864267 2433832 1
1.456738 0.107191 1.242845 1380639 1
1.454064 0.105516 1.223425 1051928 1
1.474151 0.105516 1.223425 1446686 1
1.494238 0.105516 1.223425 1380893 1
1.459498 0.129655 1.262890 722710 1
1.480233 0.129655 1.262890 920089 1
1.497550 0.127597 1.242845 853779 1
1.459498 0.150391 1.262890 1841191 1
1.480233 0.150391 1.262890 1379872 1
1.438763 0.171126 1.262890 1315359 1
1.459498 0.171126 1.262890 1249054 1
1.480233 0.171126 1.262890 1446433 1
1.462349 0.195007 1.283594 1710115 1
1.483424 0.195007 1.283594 1183771 1
1.480233 0.191862 1.262890 788502 1
0.537685 0.077621 0.899991 1315096 1
0.552462 0.077621 0.899991 2302506 1
0.567239 0.077621 0.899991 2499372 1
0.575402 0.076739 0.889764 1774368 1
0.522908 0.092398 0.899991 1381401 1
0.537685 0.092398 0.899991 1973026 1
0.552462 0.092398 0.899991 1907746 1
0.560793 0.091348 0.889764 2499372 1
0.568937 0.090322 0.879766 2498089 1
1.410001 0.063361 1.186352 1183771 1
1.429480 0.063361 1.186352 1183771 1
1.448958 0.063361 1.186352 986392 1
1.410001 0.082840 1.186352 1051928 1
1.448958 0.082840 1.186352 1446686 1
1.468437 0.082840 1.186352 1051928 1
1.487916 0.082840 1.186352 1183771 1
0.616873 0.052273 0.978740 2499374 1
0.632943 0.052273 0.978740 1905954 1
0.602802 0.065089 0.932133 1248024 1
0.649013 0.068343 0.978740 2169639 1
0.618107 0.080393 0.932133 2761774 1
0.062956 0.038017 0.711811 1644063 1
0.076025 0.038721 0.724993 1117717 1
0.098917 0.038366 0.718341 1315349 1
0.085553 0.049256 0.705398 1052436 1
0.098018 0.049704 0.711811 1381142 1
0.085553 0.060838 0.705398 1512987 1
0.098917 0.061955 0.718341 1907999 1
0.085553 0.072420 0.705398 1710366 1
0.098917 0.073749 0.718341 1974051 1
0.089588 0.087964 0.738672 1776672 1
1.494238 0.045254 1.223425 1183514 1
1.411915 0.064336 1.204603 1644063 1
1.491028 0.064336 1.204603 1973287 1
1.433976 0.085429 1.223425 722963 1
1.474151 0.085429 1.223425 1249307 1
0.149375 0.029554 0.798972 1774881 1
0.175611 0.029554 0.798972 1643293 1
0.109705 0.038017 0.711811 1380375 1
0.121392 0.038017 0.711811 1578272 1
0.140757 0.040210 0.752877 1249307 1
0.154605 0.040600 0.760186 1315098 1
0.168725 0.040999 0.767639 1709854 1
0.183124 0.041404 0.775240 1446682 1
0.198805 0.042029 0.786927 1578781 1
0.109705 0.049704 0.711811 2499370 1
0.121392 0.049704 0.711811 1775649 1
0.134300 0.050160 0.718341 2565165 1
0.148825 0.051098 0.731768 1249305 1
0.160840 0.051098 0.731768 2301993 1
0.176148 0.052071 0.745707 1973028 1
0.194888 0.053866 0.771421 1644576 1
0.110711 0.061955 0.718341 2368296 1
0.122506 0.061955 0.718341 2104612 1
0.134300 0.061955 0.718341 1841442 1
0.148825 0.063113 0.731768 1841442 1
0.160840 0.063113 0.731768 1841442 1
0.174486 0.063708 0.738672 920340 1
0.192986 0.065883 0.763895 1249818 1
0.112781 0.075127 0.731768 2171428 1
0.124796 0.075127 0.731768 2105378 1
0.138101 0.075836 0.738672 1051926 1
0.150229 0.075836 0.738672 2236202 1
0.162358 0.075836 0.738672 2894132 1
0.176148 0.076558 0.745707 1644065 1
0.188392 0.076558 0.745707 1775908 1
0.101716 0.087964 0.738672 2434603 1
0.059678 0.030648 0.828563 591377 1
0.059678 0.044252 0.828563 1841444 1
0.059678 0.057857 0.828563 2367786 1
0.059053 0.070712 0.819887 1973026 1
0.059678 0.085065 0.828563 2565418 1
0.073282 0.085065 0.828563 2499625 1
0.086886 0.085065 0.828563 1841695 1
1.514326 0.105516 1.223425 986135 1
1.534413 0.105516 1.223425 657170 1
1.500969 0.129655 1.262890 2432811 1
1.517956 0.127597 1.242845 1906467 1
1.563175 0.129655 1.262890 853779 1
1.500969 0.150391 1.262890 1840163 1
1.521704 0.150391 1.262890 853266 1
1.542440 0.150391 1.262890 1182231 1
1.500969 0.171126 1.262890 2695985 1
1.521704 0.171126 1.262890 1709088 1
1.500969 0.191862 1.262890 1840674 1
1.521704 0.191862 1.262890 919572 1
-0.194663 0.232408 0.870913 3618877 3
-0.186139 0.239850 0.898801 5263699 3
-0.127219 0.240057 0.899577 6317416 3
-0.111262 0.237523 0.890082 6316128 3
-0.194308 0.229406 0.809836 4803150 3
-0.184383 0.233679 0.824920 5461080 3
-0.177840 0.243255 0.858726 6250594 3
-0.166815 0.247823 0.874852 6250594 3
-0.153040 0.248781 0.878231 6775400 3
-0.138863 0.249216 0.879766 6119010 3
-0.121629 0.243629 0.860043 6843501 3
-0.104831 0.237562 0.838629 7105646 3
-0.173417 0.250954 0.837369 5987676 3
-0.162282 0.255063 0.851078 7039853 3
-0.151745 0.260974 0.870801 6709607 3
-0.138863 0.263660 0.879766 6119010 3
-0.121629 0.257750 0.860043 5396055 3
-0.104077 0.249525 0.832601 6052958 3
-0.285918 0.225436 0.844787 4999241 3
-0.271126 0.224673 0.841927 5262152 3
-0.257303 0.224673 0.841927 6380379 3
-0.244435 0.225556 0.845235 6249308 3
-0.244004 0.238711 0.894530 5131595 3
-0.224610 0.233811 0.876170 4934477 3
-0.208742 0.232162 0.869991 4013635 3
-0.292859 0.233776 0.825261 4407620 3
-0.282167 0.236168 0.833705 5986904 3
-0.271036 0.238417 0.841646 6644062 3
-0.253817 0.235266 0.830523 4604483 3
-0.235870 0.231044 0.815617 4539206 3
-0.222479 0.231044 0.815617 5723478 3
-0.209087 0.231044 0.815617 4671305 3
-0.292859 0.247326 0.825261 5459538 3
-0.282167 0.249856 0.833705 6184540 3
-0.270040 0.251309 0.838553 6250076 3
-0.250601 0.245749 0.819999 5262927 3
-0.297176 0.264721 0.837425 5394515 3
-0.283426 0.264721 0.837425 5526612 3
-0.269498 0.264546 0.836871 5658707 3
-0.249373 0.257942 0.815981 6447462 3
-1.997527 0.053689 2.609974 985363 1
-1.954674 0.053689 2.609974 1709856 1
-1.911821 0.053689 2.609974 1380891 1
-1.977746 0.099871 2.699973 1710369 1
-1.933415 0.099871 2.699973 1512479 1
1.542440 0.005243 1.262890 1249564 1
1.563175 0.005243 1.262890 789013 1
1.554501 0.005079 1.223425 2302506 1
1.542440 0.025978 1.262890 1249564 1
1.510807 0.064336 1.204603 1710115 1
0.316682 0.003283 0.790901 1183512 1
0.323139 0.003218 0.775240 1184022 1
0.335868 0.003218 0.775240 1710115 1
0.303696 0.016269 0.790901 1512477 1
0.313515 0.016107 0.782992 1380375 1
0.326371 0.016107 0.782992 1973277 1
0.300659 0.028963 0.782992 1775651 1
0.313515 0.028963 0.782992 1380375 1
0.329667 0.029255 0.790901 1644312 1
0.300659 0.041819 0.782992 1381150 1
0.316682 0.042241 0.790901 1445914 1
0.329667 0.042241 0.790901 1840925 1
0.346150 0.042672 0.798972 1643546 1
0.303696 0.055227 0.790901 1644576 1
0.316682 0.055227 0.790901 1643293 1
0.329667 0.055227 0.790901 1446167 1
0.342653 0.055227 0.790901 1972511 1
0.355639 0.055227 0.790901 2235430 1
0.368625 0.055227 0.790901 1972512 1
0.381611 0.055227 0.790901 1380374 1
0.306795 0.068909 0.798972 1776162 1
0.319913 0.068909 0.798972 1446682 1
0.333031 0.068909 0.798972 1183763 1
0.342653 0.068213 0.790901 2104095 1
0.352083 0.067530 0.782992 1511961 1
0.361325 0.066862 0.775240 1578270 1
0.377795 0.067530 0.782992 1841440 1
0.339227 0.080386 0.782992 2302244 1
0.345179 0.078810 0.767639 2630442 1
0.354309 0.078045 0.760186 2104614 1
0.374054 0.079590 0.775240 1446682 1
0.354309 0.090527 0.760186 2301995 1
-0.287870 0.312054 2.302918 2171431 1
-0.250059 0.312054 2.302918 2105384 1
-0.212247 0.312054 2.302918 1052696 1
-0.287870 0.349865 2.302918 1842212 1
-0.250059 0.387677 2.302918 2960695 1
-0.212247 0.387677 2.302918 2237740 1
0.067138 0.202831 0.932133 5789784 3
0.086027 0.211650 0.972661 5986652 3
0.066448 0.215894 0.922554 5790297 3
0.083499 0.220932 0.944083 5723991 3
0.066397 0.230866 0.921853 6317666 3
0.082442 0.233440 0.932133 5132367 3
0.096956 0.231552 0.924594 4868171 3
0.079664 0.269939 0.900718 6381923 3
0.095070 0.271705 0.906609 6184290 3
0.212468 0.210343 0.966657 6447201 3
0.228340 0.210343 0.966657 7170926 3
0.244211 0.210343 0.966657 6381669 3
0.263334 0.212973 0.978740 5723739 3
0.275954 0.210343 0.966657 5197649 3
0.291826 0.210343 0.966657 4737609 3
0.209877 0.223456 0.954868 8223866 3
0.225555 0.223456 0.954868 7237232 3
0.241233 0.223456 0.954868 6184803 3
0.256911 0.223456 0.954868 7631736 3
0.270331 0.221605 0.946959 7829369 3
0.287182 0.222615 0.951273 7435122 3
0.201015 0.229037 0.914550 6710373 3
0.215855 0.228850 0.913803 7828856 3
0.230013 0.228012 0.910456 8552581 3
0.311544 0.164763 0.978740 789265 1
0.321584 0.161730 0.960726 2434343 1
0.366657 0.160744 0.954868 2236970 1
0.377729 0.158807 0.943364 2303535 1
0.302103 0.175353 0.949081 3025967 1
0.315772 0.174297 0.943364 3487029 1
0.339441 0.178600 0.966657 3420725 1
0.344674 0.173253 0.937715 2697004 1
0.355809 0.171203 0.926618 2170920 1
0.366684 0.169200 0.915780 1842214 1
0.381720 0.169200 0.915780 1973798 1
0.302103 0.190936 0.949081 4934475 3
0.317686 0.190936 0.949081 5987676 3
0.339441 0.194472 0.966657 2434343 3
0.338592 0.185320 0.921167 3091762 3
0.313186 0.003386 0.815617 1973541 1
0.349718 0.016605 0.807208 1776162 1
0.370613 0.016954 0.824202 1051674 1
0.392407 0.017319 0.841927 1840672 1
0.349718 0.029858 0.807208 1118232 1
0.366753 0.030169 0.815617 1183771 1
0.384146 0.030487 0.824202 2169890 1
0.362972 0.043112 0.807208 2695981 1
0.376225 0.043112 0.807208 1248789 1
0.393536 0.043561 0.815617 1380374 1
0.281818 0.003495 0.841927 1313815 1
0.295642 0.003495 0.841927 1840672 1
0.299795 0.003386 0.815617 2105127 1
0.230436 0.016605 0.807208 1841701 1
0.244952 0.016691 0.811391 789267 1
0.270197 0.016605 0.807208 985363 1
0.254171 0.031143 0.841927 986646 1
2.164187 -1.487319 1.820912 1381402 1
2.194085 -1.487319 1.820912 854545 1
2.134290 -1.457421 1.820912 1644316 1
2.164187 -1.457421 1.820912 2038819 1
2.194085 -1.457421 1.820912 1183510 1
2.104392 -1.427524 1.820912 1446682 1
0.254321 0.016435 0.798972 1840672 1
0.277724 0.016269 0.790901 1578270 1
0.290710 0.016269 0.790901 1118232 1
0.251752 0.029255 0.790901 1907235 1
0.259496 0.028676 0.775240 1907237 1
0.266939 0.028119 0.760186 1117978 1
0.284953 0.028676 0.775240 789526 1
0.211726 0.042029 0.786927 2301993 1
0.238767 0.042241 0.790901 1644574 1
0.250487 0.042029 0.786927 1052437 1
0.249610 0.039827 0.745707 1776162 1
0.266939 0.040600 0.760186 1381404 1
0.284953 0.041404 0.775240 1512990 1
0.210667 0.054674 0.782992 1446684 1
0.224646 0.054949 0.786927 1710367 1
0.237567 0.054949 0.786927 1184023 1
0.250487 0.054949 0.786927 1776670 1
0.242677 0.050624 0.724993 1710367 1
0.266939 0.053082 0.760186 1052437 1
0.284953 0.054133 0.775240 1315611 1
0.209619 0.067194 0.779097 1249816 1
0.224646 0.067870 0.786927 1776162 1
0.237567 0.067870 0.786927 658192 1
0.228656 0.061955 0.718341 1118740 1
0.247256 0.063708 0.738672 1907999 1
0.272225 0.066862 0.775240 920850 1
0.293676 0.068909 0.798972 1644574 1
0.204531 0.078045 0.760186 2434090 1
0.230773 0.074432 0.724993 1316889 1
0.242677 0.074432 0.724993 2236962 1
0.274947 0.080386 0.782992 2039585 1
-0.031537 -2.661036 3.131968 1117978 1
-0.084654 -2.662870 3.195886 1774879 1
-0.032180 -2.662870 3.195886 789267 1
0.447102 0.003386 0.815617 1447194 1
0.465341 0.003422 0.824202 1380889 1
0.410646 0.017507 0.851078 1446168 1
0.420054 0.017319 0.841927 1182742 1
0.438594 0.017507 0.851078 2038053 1
0.442939 0.017135 0.832970 1380889 1
0.447102 0.016778 0.815617 1578523 1
0.465341 0.016954 0.824202 1183510 1
0.406231 0.031143 0.841927 1775133 1
0.420054 0.031143 0.841927 1577500 1
0.438594 0.031481 0.851078 919572 1
0.442939 0.030811 0.832970 1182996 1
0.447102 0.030169 0.815617 1446935 1
0.465341 0.030487 0.824202 1381144 1
0.411211 0.044019 0.824202 2038304 1
0.424744 0.044019 0.824202 1840672 1
