# .PCD v0.7
VERSION 0.7
FIELDS x y z rgb label
SIZE 4 4 4 4 4
TYPE F F F U U
COUNT 1 1 1 1 1
WIDTH 1342
HEIGHT 1
VIEWPOINT 0 0 0 1 0 0 0
POINTS 1342
DATA ascii
-0.360239 0.220553 0.553864 4473926 3
-0.354435 0.220384 0.531523 2237475 3
-0.349725 0.222944 0.537699 3289652 3
-0.306301 0.244675 0.590110 4276543 3
-0.303298 0.251870 0.584322 5790036 3
-0.296612 0.225297 0.590110 3487031 3
-0.277751 0.218095 0.571245 3355191 3
-0.258324 0.209929 0.549857 7368818 3
-0.246524 0.207596 0.543745 5526614 3
-0.211002 0.227008 0.594591 5132113 3
-0.200760 0.226468 0.593176 6578787 3
-0.287130 0.227474 0.571245 4079168 3
-0.267352 0.218957 0.549857 5131602 3
-0.253046 0.214484 0.538624 5723993 3
-0.239782 0.210601 0.528872 6381921 3
-0.225496 0.205496 0.516053 5131852 3
-0.222312 0.210504 0.528628 7631986 3
-0.218800 0.215596 0.541417 5066061 3
-0.208828 0.214484 0.538624 6842470 3
-0.201021 0.215596 0.541417 7237743 3
-0.280371 0.231278 0.557798 5987163 3
-0.259467 0.221262 0.533641 5460821 3
0.216068 0.182218 0.498721 8750728 3
0.224392 0.182327 0.499022 8487299 3
0.207219 0.189802 0.497138 8093052 3
0.215382 0.189802 0.497138 8618883 3
0.223545 0.189802 0.497138 8882055 3
0.231753 0.189839 0.497237 9408660 3
0.256964 0.190372 0.498632 9407120 3
0.147175 0.212850 0.582560 9013641 3
0.107597 0.201985 0.529049 10460574 3
0.116827 0.202930 0.531523 9013643 3
0.127013 0.205287 0.537699 8685189 3
0.137997 0.208545 0.546232 9539985 3
0.189334 0.215952 0.565631 9868952 3
0.191353 0.208049 0.544933 9540498 3
0.198915 0.206611 0.541166 9672082 3
0.107100 0.209699 0.526608 9211022 3
0.116039 0.210230 0.527939 7566454 3
0.125554 0.211657 0.531523 8421763 3
0.135841 0.214116 0.537699 9013641 3
0.145981 0.216057 0.542573 9078407 3
0.155224 0.216523 0.543745 9538958 3
0.164152 0.216523 0.543745 9341579 3
0.173080 0.216523 0.543745 9933716 3
0.182008 0.216523 0.543745 9671060 3
0.189137 0.214484 0.538624 9803157 3
0.196203 0.212558 0.533788 9079947 3
0.106875 0.217886 0.525498 8421506 3
0.115503 0.217886 0.525498 8619144 3
0.124131 0.217886 0.525498 8488326 3
0.132759 0.217886 0.525498 9145486 3
0.144762 0.223087 0.538042 9144716 3
0.155224 0.225451 0.543745 7763063 3
0.160365 0.220250 0.531200 7039340 3
0.167272 0.217886 0.525498 8420993 3
0.178385 0.220964 0.532922 7960440 3
0.186570 0.220297 0.531313 8553090 3
0.194461 0.219358 0.529049 8553349 3
0.084816 0.201072 0.550324 8948361 3
0.076691 0.212632 0.556935 8816521 3
0.084723 0.209875 0.549715 8948107 3
0.091857 0.205640 0.538624 8684676 3
0.099334 0.202850 0.531313 9276811 3
0.083013 0.214484 0.538624 8092541 3
0.090610 0.211573 0.531313 7829367 3
0.098910 0.210671 0.529049 9276811 3
0.083013 0.223328 0.538624 9211022 3
0.090610 0.220297 0.531313 8290431 3
0.098454 0.218346 0.526608 8882566 3
0.200836 0.209368 0.599994 8750471 3
0.210085 0.208769 0.598278 9408401 3
0.218861 0.207776 0.595431 8290431 3
0.207772 0.216187 0.591693 10329503 3
0.209311 0.208059 0.569449 10066840 3
0.203580 0.211119 0.530173 8750980 3
0.203148 0.219358 0.529049 9080463 3
-0.024794 0.201643 0.577854 7631986 3
-0.068817 0.201146 0.550526 7237230 3
-0.060894 0.204902 0.560807 8224125 3
-0.052438 0.207880 0.568957 6119262 3
-0.043290 0.208819 0.571527 8158591 3
-0.034165 0.210408 0.575877 7896441 3
-0.024794 0.211130 0.577854 9277324 3
-0.015345 0.211668 0.579325 9276813 3
-0.005840 0.211912 0.579994 8223614 3
-0.091382 0.200211 0.524403 7630450 3
-0.083721 0.202506 0.530413 8024436 3
-0.077531 0.209308 0.548230 7170149 3
-0.071908 0.219627 0.575257 6842213 3
-0.062492 0.219729 0.575526 6842470 3
-0.025313 0.225232 0.589940 8554371 3
-0.153592 0.209071 0.599141 6447462 3
-0.141203 0.205359 0.588504 5724504 3
-0.130606 0.203900 0.584322 6185053 3
-0.122917 0.207110 0.593522 5394513 3
-0.171064 0.216125 0.591525 5197906 3
-0.160586 0.215099 0.588716 6184801 3
-0.150146 0.213995 0.585695 5592153 3
-0.135414 0.206207 0.564379 5395539 3
-0.191021 0.226468 0.593176 8026494 3
-0.180344 0.225297 0.590110 5131602 3
-0.170252 0.224765 0.588716 5395028 3
-0.158151 0.221356 0.579788 4408133 3
-0.143303 0.213422 0.559005 7039853 3
-0.129809 0.206554 0.541017 6908778 3
-0.118212 0.201918 0.528872 7961466 3
-0.193885 0.217564 0.546359 6119008 3
-0.186214 0.219093 0.550198 7828854 3
-0.182024 0.225082 0.565238 8355713 3
-0.174665 0.227587 0.571527 5987165 3
-0.164458 0.226453 0.568680 6250337 3
-0.151047 0.220506 0.553747 7763576 3
-0.138383 0.214957 0.539812 8093052 3
-0.125747 0.208696 0.524087 7895673 3
-0.116971 0.208391 0.523323 8356224 3
-0.185317 0.227028 0.547547 7368814 3
-0.177180 0.228127 0.550198 7631988 3
-0.169337 0.229741 0.554091 7105644 3
-0.159048 0.228034 0.549974 7895162 3
-0.147246 0.223821 0.539812 8421506 3
-0.137482 0.222363 0.536296 7764087 3
-0.232345 0.239554 0.686499 4802891 3
-0.208864 0.226324 0.648583 3618363 3
-0.234108 0.241036 0.659704 5395026 3
-0.210216 0.226936 0.621114 6250337 3
-0.292046 0.255170 0.668353 5723991 3
-0.249626 0.245816 0.643853 6184540 3
-0.222995 0.229302 0.600600 5987676 3
-0.388006 0.238239 0.682729 4539715 3
-0.373539 0.236179 0.676827 5198160 3
-0.359320 0.234155 0.671027 4013373 3
-0.349425 0.234910 0.673190 3881787 3
-0.341307 0.236948 0.679028 4539717 3
-0.333046 0.239020 0.684969 4210752 3
-0.368305 0.230134 0.629867 5065032 3
-0.356886 0.229442 0.627972 3881785 3
-0.355153 0.235120 0.643513 3158577 3
-0.356278 0.243098 0.665347 4079166 3
-0.319090 0.224610 0.614747 4276547 3
-0.307471 0.223501 0.611713 4210754 3
-0.300673 0.225940 0.618388 4802891 3
-0.313073 0.243480 0.666394 4144961 3
-0.344951 0.231735 0.606971 5329231 3
-0.343931 0.237923 0.623180 4802889 3
-0.359146 0.256066 0.670702 4079168 3
-0.317076 0.233222 0.610867 2039583 3
-0.344951 0.241700 0.606971 4605508 3
-0.336937 0.243109 0.610507 3750201 3
-0.354767 0.263822 0.662524 4276545 3
-0.315048 0.241697 0.606961 3815992 3
0.362975 0.165619 0.498054 5197649 3
0.355132 0.173960 0.498524 2829358 3
0.358057 0.171442 0.491306 4802889 3
0.376050 0.168658 0.483328 4342340 3
0.384135 0.168723 0.483516 4407879 3
0.395278 0.170102 0.487467 4736844 3
0.327577 0.180493 0.494001 7172468 3
0.337087 0.181245 0.496059 6053987 3
0.341063 0.179056 0.490069 7698040 3
0.345373 0.177140 0.484825 6711399 3
0.352584 0.176764 0.483796 7500913 3
0.108186 0.192423 0.578661 9605265 3
0.117362 0.191892 0.577062 8157819 3
0.127188 0.192423 0.578661 8289918 3
0.140627 0.197966 0.595331 8355711 3
0.100700 0.187953 0.538624 8223612 3
0.109071 0.187141 0.536296 8158332 3
0.119002 0.188928 0.541417 7566195 3
0.129685 0.191577 0.549010 7303023 3
0.143948 0.198828 0.569788 7434609 3
0.100265 0.195946 0.536296 9803157 3
0.108561 0.195030 0.533788 10395294 3
0.117626 0.195530 0.535156 9605778 3
0.127891 0.197817 0.541417 9145227 3
0.195622 0.194502 0.509449 8685187 3
0.087627 0.189064 0.568560 8947848 3
0.097097 0.189327 0.569350 9013641 3
0.084983 0.192412 0.551403 9540498 3
0.093138 0.190575 0.546138 9869463 3
0.091857 0.196797 0.538624 8619396 3
-0.060298 0.184659 0.555314 4606023 3
-0.051686 0.186486 0.560807 5460567 3
-0.043762 0.192122 0.577754 5263189 3
-0.034666 0.194306 0.584322 8487297 3
-0.085418 0.188840 0.541166 9867669 3
-0.077856 0.192107 0.550526 7894901 3
-0.069415 0.193777 0.555314 7829365 3
-0.060298 0.193777 0.555314 7039851 3
-0.051686 0.195694 0.560807 8026748 3
-0.042774 0.197053 0.564702 8948109 3
-0.033738 0.198445 0.568689 8158845 3
-0.092819 0.194613 0.532648 7235692 3
-0.084469 0.195530 0.535156 7893622 3
-0.076203 0.196875 0.538839 8617854 3
-0.099533 0.199292 0.521995 6974058 3
0.005057 0.251768 0.796449 7171439 3
0.018192 0.252565 0.798972 8026748 3
0.031310 0.252565 0.798972 6513509 3
0.044428 0.265683 0.798972 7105133 3
0.057547 0.265683 0.798972 8026746 3
0.043405 0.272380 0.780569 6776166 3
-0.489686 0.216169 0.683836 2501163 3
-0.480437 0.217063 0.686664 3552570 3
-0.496951 0.220652 0.663553 2830130 3
-0.486056 0.220652 0.663553 3883075 3
-0.477953 0.221949 0.667452 2632751 3
-0.468487 0.222658 0.669585 3618363 3
-0.462561 0.225125 0.677002 5131345 3
-0.452937 0.225869 0.679239 4868169 3
-0.454204 0.232218 0.698334 4144700 3
-0.435811 0.228585 0.687407 3553074 3
-0.495509 0.230876 0.661628 3356474 3
-0.484005 0.230570 0.660753 2633008 3
-0.475925 0.231919 0.664619 2435372 3
-0.466366 0.232595 0.666554 3289399 3
-0.458719 0.234278 0.671380 3552313 3
-0.461157 0.241323 0.691567 3421236 3
-0.454702 0.243952 0.699100 4211004 3
-0.443224 0.243952 0.699100 4539969 3
-0.420267 0.243952 0.699100 4474176 3
-0.408340 0.243684 0.698334 5130825 3
-0.499382 0.238401 0.652493 1514015 3
-0.466281 0.237911 0.651151 3355705 3
-0.468550 0.244679 0.669675 2763055 3
-0.463945 0.248096 0.679028 4078915 3
-0.495646 0.232300 0.608452 2763565 3
-0.497310 0.248081 0.649786 2303017 3
-0.472243 0.240547 0.604075 4474186 3
0.482745 0.159090 0.530842 5656919 3
0.467688 0.165561 0.523741 5920089 3
0.477386 0.165943 0.524949 5722710 3
0.486514 0.166117 0.525498 6051677 3
0.495142 0.166117 0.525498 5394517 3
0.449929 0.173944 0.523090 6643812 3
0.457463 0.173544 0.521886 7367535 3
0.464580 0.173003 0.520261 7762293 3
0.474306 0.173436 0.521562 8222844 3
0.484785 0.174124 0.523631 7105135 3
0.424405 0.179012 0.513000 4407880 3
0.438692 0.181437 0.519950 4473673 3
0.442081 0.179349 0.513965 5657689 3
0.452100 0.179977 0.515767 4341829 3
0.462564 0.180758 0.518003 4012862 3
0.471556 0.180944 0.518538 5328720 3
0.480070 0.180944 0.518538 4473413 3
0.431606 0.186906 0.511552 3749950 3
0.437415 0.185805 0.508540 4670539 3
0.450159 0.187637 0.513553 6315619 3
0.462090 0.189069 0.517472 4604999 3
0.471556 0.189458 0.518538 4473411 3
0.424670 0.192166 0.503331 4802380 3
0.430340 0.191014 0.500314 4473415 3
0.444538 0.193621 0.507141 4341059 3
0.459056 0.196268 0.514074 5196366 3
0.410339 0.205840 0.686835 5985884 3
0.421732 0.205897 0.687024 6447203 3
0.434563 0.206634 0.689484 7368818 3
0.442110 0.204886 0.683650 7040112 3
0.450143 0.203443 0.678836 7040112 3
0.406771 0.215229 0.680863 5393747 3
0.146210 0.185500 0.618966 7631736 3
0.126730 0.196978 0.623124 8947848 3
0.137508 0.197765 0.625614 7763574 3
0.147927 0.197962 0.626238 7105644 3
0.157618 0.197222 0.623898 8026746 3
0.166950 0.196150 0.620507 8289407 3
0.175702 0.194561 0.615479 7894649 3
0.184626 0.193323 0.611564 8552577 3
0.193347 0.192012 0.607417 7368557 3
-0.046431 0.234550 0.782632 6447203 3
-0.033390 0.233220 0.778194 5592407 3
-0.021031 0.237950 0.793978 5855579 3
-0.069816 0.239460 0.757515 5986911 3
-0.057071 0.238179 0.753463 4342087 3
-0.045099 0.240305 0.760186 7236719 3
-0.032837 0.241924 0.765310 7105131 3
-0.020472 0.244312 0.772865 5064780 3
-0.007915 0.248467 0.786007 8090747 3
-0.019042 0.250856 0.718886 9407888 3
-0.007939 0.275123 0.788430 8814981 3
-0.190696 0.209516 0.699100 7632501 3
-0.188636 0.206195 0.652284 6842731 3
-0.173642 0.201231 0.636579 7434868 3
-0.198215 0.215675 0.648583 5592153 3
-0.181080 0.208218 0.626159 4803148 3
-0.168590 0.205524 0.618058 4079425 3
-0.157201 0.203914 0.613218 5986911 3
-0.145989 0.202330 0.608452 5592918 3
-0.137889 0.205141 0.616906 6711397 3
-0.189321 0.216169 0.619483 4868430 3
-0.175032 0.211200 0.605242 3355702 3
-0.164292 0.210174 0.602302 5132113 3
-0.195940 0.222310 0.608452 6184290 3
-0.183550 0.219441 0.600600 6118497 3
-0.539607 0.206862 0.690244 2631722 3
-0.534309 0.209225 0.698129 2565676 3
-0.550834 0.218153 0.690110 2763308 3
-0.530113 0.214356 0.678099 2105637 3
-0.524237 0.216527 0.684969 2895154 3
-0.514388 0.217117 0.686835 2566958 3
-0.501600 0.216466 0.684773 2237993 3
-0.585299 0.229669 0.690668 2236200 3
-0.566609 0.226728 0.681824 2105124 3
-0.542831 0.221591 0.666376 2697513 3
-0.531889 0.221591 0.666376 2960944 3
-0.522479 0.222242 0.668334 2829875 3
-0.510553 0.221829 0.667090 2764082 3
-0.579500 0.234086 0.670828 3157813 3
-0.557595 0.229601 0.657977 2499883 3
-0.537548 0.225720 0.646853 4144961 3
-0.527559 0.225991 0.647629 4540230 3
-0.523125 0.228701 0.655396 2039842 3
-0.516011 0.230329 0.660060 3422012 3
-0.507846 0.231547 0.663553 3290426 3
-0.586490 0.248057 0.678919 2434089 3
-0.548168 0.236341 0.646853 3158066 3
-0.524546 0.230624 0.631207 3092784 3
-0.507477 0.227617 0.622976 2763819 3
-0.508905 0.232952 0.637580 2501163 3
-0.509434 0.238092 0.651647 2237738 3
-0.541115 0.239150 0.626394 2895153 3
-0.522277 0.235297 0.616300 2368548 3
-0.508345 0.233545 0.611713 2894890 3
-0.503848 0.241002 0.631245 2829360 3
-0.506011 0.247120 0.647269 1974052 3
0.306291 0.168364 0.594349 6512996 3
0.303564 0.176537 0.589057 4604999 3
0.316479 0.178364 0.595156 5986652 3
0.303159 0.189579 0.570108 8092028 3
0.321567 0.174197 0.523850 5723739 3
0.331138 0.174708 0.525388 6711147 3
0.338558 0.174088 0.523523 6843503 3
0.344134 0.172574 0.518969 4672334 3
0.350404 0.171473 0.515658 4080197 3
0.358282 0.171191 0.514812 5592666 3
0.361611 0.168799 0.507619 4868943 3
0.318306 0.180944 0.518538 8421765 3
0.326553 0.180796 0.518114 6514538 3
0.330618 0.178399 0.511245 6514536 3
0.333830 0.175673 0.503431 7698812 3
0.341000 0.175110 0.501818 7369847 3
0.348124 0.174550 0.500215 5197906 3
0.282861 0.166067 0.586238 6842220 3
0.290582 0.164986 0.582423 4802378 3
0.277790 0.172543 0.575729 8552581 3
0.288038 0.173020 0.577324 7828856 3
0.275638 0.180585 0.571268 10263199 3
0.283080 0.179358 0.567386 8684165 3
0.298467 0.183082 0.579166 7500402 3
0.219386 0.198474 0.596857 8948107 3
0.282058 0.187993 0.565337 8486786 3
0.292797 0.188933 0.568164 8882055 3
0.277057 0.193777 0.555314 7368307 3
0.286175 0.193777 0.555314 7697270 3
0.295292 0.193777 0.555314 7631477 3
0.236124 0.185102 0.506614 8816010 3
0.251026 0.190087 0.520261 8487045 3
0.254948 0.186704 0.511000 9013132 3
0.259443 0.183942 0.503441 8684167 3
0.266899 0.183386 0.501918 8881544 3
0.241694 0.191245 0.500919 8290180 3
0.250417 0.191627 0.501918 8618119 3
0.138707 0.254945 0.899991 6381923 3
0.167134 0.253236 0.893961 7499891 3
0.178925 0.249216 0.879766 6447714 3
0.193104 0.248873 0.878558 6645093 3
0.106330 0.277140 0.876712 6710634 3
-0.174215 0.238298 0.841225 5921629 3
-0.109928 0.249115 0.879411 7434611 3
-0.170547 0.246801 0.823510 5921883 3
-0.170925 0.268647 0.896405 6580331 3
-0.111374 0.267019 0.890973 6118749 3
-0.179416 0.273860 0.866336 5329233 3
-0.189765 0.224042 0.790901 5460819 3
-0.178020 0.225614 0.796449 6052956 3
-0.181458 0.212135 0.707839 6777708 3
-0.176380 0.220309 0.735114 7303536 3
-0.172407 0.231166 0.771340 6381919 3
-0.158344 0.223941 0.708421 7632499 3
-0.203398 0.224757 0.793423 4540230 3
-0.257624 0.239755 0.799998 6447716 3
-0.239995 0.235347 0.785293 5658200 3
-0.207695 0.215237 0.718190 5987676 3
-0.295613 0.251684 0.796183 6184801 3
-0.282091 0.251283 0.794916 5460567 3
-0.267180 0.249547 0.789423 5986911 3
-0.252304 0.247668 0.783479 4736844 3
-0.214196 0.221556 0.700877 6052704 3
-0.287748 0.257712 0.775001 5000527 3
-0.272665 0.255503 0.768355 4802891 3
-0.256430 0.251947 0.757662 5657946 3
-0.241980 0.249871 0.751419 5789532 3
-0.299645 0.269692 0.772865 6382434 3
-0.283994 0.266909 0.764891 5790297 3
-0.257964 0.253662 0.726928 5460821 3
-0.297619 0.280472 0.767639 4342851 3
-0.267520 0.263256 0.720519 5658711 3
-0.298374 0.281882 0.738320 6776679 3
-0.385162 0.224398 0.792156 5066061 3
-0.385162 0.237404 0.792156 5329231 3
-0.399430 0.251204 0.794665 3947578 3
-0.380489 0.247372 0.782544 4144957 3
-0.364209 0.245063 0.775240 4210750 3
-0.358877 0.250221 0.791555 4144957 3
-0.349121 0.252565 0.798972 3815992 3
-0.336003 0.252565 0.798972 3026737 3
-0.398392 0.240042 0.721861 4868941 3
-0.394349 0.244891 0.736444 4605512 3
-0.367148 0.242894 0.730439 4868682 3
-0.346097 0.236700 0.711811 4802889 3
-0.343086 0.242841 0.730278 4868682 3
-0.337094 0.247240 0.743508 4079164 3
-0.325847 0.247971 0.745707 3552822 3
-0.319944 0.252985 0.760785 4868941 3
-0.312334 0.257002 0.772865 5066320 3
-0.300565 0.257792 0.775240 4145218 3
-0.330743 0.245663 0.704006 4079166 3
-0.331095 0.254831 0.730278 4539204 3
-0.324886 0.259448 0.743508 5394513 3
-0.315676 0.261935 0.750636 6381921 3
-0.308358 0.266259 0.763026 6447716 3
-0.323293 0.260534 0.713068 5460308 3
-0.320905 0.268326 0.734397 6907752 3
-0.319020 0.277165 0.758587 4342338 3
-0.310223 0.280472 0.767639 3487029 3
-0.317222 0.287988 0.754312 5855575 3
0.639989 0.206436 0.773587 3288886 3
0.642140 0.224326 0.791903 5394775 3
0.637033 0.218126 0.770014 4736332 3
0.622935 0.209147 0.738320 5262676 3
0.615799 0.202805 0.715930 3880255 3
0.647590 0.239343 0.798625 7697529 3
0.645405 0.233801 0.780134 6907501 3
0.617293 0.219266 0.731633 6249571 3
0.608464 0.212004 0.707402 6249056 3
0.614527 0.210106 0.701068 5525334 3
0.613432 0.262178 0.788430 5526614 3
0.252480 0.211667 0.793187 6513507 3
0.262091 0.208946 0.782992 6382180 3
0.274947 0.208946 0.782992 6645352 3
0.287803 0.208946 0.782992 7829369 3
0.298612 0.207524 0.777662 5921372 3
0.231068 0.216818 0.765400 7105385 3
0.235127 0.209247 0.738672 7236717 3
0.253922 0.214889 0.758587 7171696 3
0.269556 0.217453 0.767639 7237489 3
0.280276 0.216001 0.762516 5855836 3
0.275775 0.203445 0.718190 5592407 3
0.210716 0.234712 0.783174 6578791 3
0.211971 0.222530 0.742524 8223612 3
0.212954 0.211403 0.705398 5986904 3
0.225939 0.212725 0.709807 7499889 3
0.238264 0.213325 0.711811 6447716 3
0.249952 0.213325 0.711811 7237489 3
0.258427 0.210706 0.703072 7763833 3
0.211023 0.238395 0.893350 7236717 3
0.215706 0.227848 0.853826 6776166 3
0.227521 0.225662 0.845634 6776427 3
0.237712 0.222209 0.832695 8158332 3
0.249069 0.220164 0.825028 8487295 3
0.203247 0.243738 0.860431 6908267 3
0.216565 0.228011 0.804911 6512998 3
0.236455 0.234634 0.828291 5855064 3
-0.294448 0.232162 0.869991 4868169 3
-0.201163 0.240168 0.899991 4210243 3
-0.298575 0.238338 0.841367 4735815 3
-0.281918 0.235959 0.832970 5789273 3
-0.268242 0.235959 0.832970 5723478 3
-0.254565 0.235959 0.832970 4670790 3
-0.237439 0.232580 0.821040 5263440 3
-0.219357 0.227802 0.804173 5658196 3
-0.289250 0.244278 0.815091 4867401 3
-0.272236 0.241062 0.804362 5723480 3
-0.471775 0.203856 0.763918 2500136 3
-0.499048 0.217351 0.767282 3618104 3
-0.464900 0.207723 0.733291 2960172 3
-0.444146 0.203726 0.719181 2894892 3
-0.445887 0.210110 0.741718 2105635 3
-0.460289 0.222987 0.787175 2632751 3
-0.454236 0.226412 0.799266 4868682 3
-0.400837 0.225901 0.797464 5131856 3
-0.491609 0.210574 0.702632 1513241 3
-0.484143 0.212360 0.708590 2894381 3
-0.472509 0.212360 0.708590 3354932 3
-0.458033 0.211051 0.704221 3420723 3
-0.445337 0.210515 0.702433 4144700 3
-0.439737 0.213394 0.712042 3421234 3
-0.430109 0.214423 0.715473 4540230 3
-0.425702 0.218185 0.728026 3093298 3
-0.437392 0.230653 0.769629 5658711 3
-0.430388 0.233711 0.779834 3750203 3
-0.423510 0.237028 0.790901 4144959 3
-0.410786 0.237179 0.791405 4276545 3
-0.401467 0.239371 0.798718 6052956 3
-0.482117 0.223057 0.705625 6249054 3
-0.472509 0.223994 0.708590 5854548 3
-0.459319 0.223238 0.706198 5131341 3
-0.445463 0.222111 0.702632 5197386 3
-0.440353 0.225401 0.713039 3355694 3
-0.431594 0.226951 0.717943 4013884 3
-0.427268 0.230985 0.730705 4012860 3
-0.415875 0.231321 0.731768 4802889 3
-0.415295 0.237871 0.752488 4013632 3
-0.417451 0.246437 0.779586 4737098 3
-0.408720 0.248915 0.787426 3947580 3
-0.436542 0.235056 0.706868 3224106 3
-0.430857 0.238331 0.716716 5197899 3
-0.423928 0.241083 0.724993 5591892 3
-0.410719 0.240319 0.722696 5066061 3
-0.400413 0.256522 0.771421 4276545 3
-0.434176 0.245325 0.703036 5000519 3
-0.596481 0.212537 0.796449 2433577 3
-0.501813 0.211220 0.791513 2499623 3
-0.565338 0.209247 0.738672 1644574 3
-0.553210 0.209247 0.738672 3157813 3
-0.555669 0.214889 0.758587 3355191 3
-0.522212 0.206580 0.729257 3355445 3
-0.502203 0.203327 0.717773 4539719 3
-0.575927 0.216244 0.721548 2105378 3
-0.524320 0.209815 0.700098 2697775 3
-0.523344 0.214118 0.714457 3750462 3
-0.504985 0.211344 0.705201 3552824 3
-0.618297 0.211057 0.790901 3487031 3
-0.605311 0.211057 0.790901 1907746 3
-0.685405 0.250811 0.793423 1973287 3
-0.688933 0.260250 0.782632 1710367 3
-0.622426 0.239595 0.720519 2368299 3
-0.647454 0.256657 0.735512 2631469 3
-0.757517 0.225436 0.844787 2170920 3
-0.730402 0.221421 0.829741 1446684 3
-0.744025 0.235045 0.829741 1644061 3
-0.720330 0.231804 0.818300 2170407 3
-0.736223 0.246061 0.821040 2302246 3
-0.717969 0.244435 0.815617 2104612 3
-0.737160 0.260694 0.869868 2170920 3
-0.736223 0.259541 0.821040 2170660 3
-0.707895 0.254209 0.804173 2697264 3
-0.732028 0.273062 0.863812 1512990 3
-0.736223 0.273022 0.821040 2302246 3
-0.237998 0.248414 0.991923 4802378 3
-0.299114 0.261182 0.978740 5986136 3
-0.283498 0.261601 0.980309 5131595 3
-0.242757 0.252701 0.946959 5789782 3
-0.219192 0.243785 0.913545 3881789 3
-0.390959 0.224070 0.894718 4210500 3
-0.345221 0.205581 0.820890 6249826 3
-0.363579 0.225310 0.899669 3815483 3
-0.339032 0.218996 0.874454 4143678 3
-0.322459 0.217502 0.868489 4340798 3
-0.397677 0.225887 0.846478 5724502 3
-0.385212 0.226731 0.849641 5526612 3
-0.373287 0.227968 0.854276 4671305 3
-0.359996 0.228435 0.856023 4670792 3
-0.347722 0.229611 0.860431 4210241 3
-0.332341 0.228748 0.857198 6578273 3
-0.317722 0.228356 0.855729 6643553 3
-0.307151 0.230973 0.865534 6315101 3
-0.379549 0.228856 0.807893 5066059 3
-0.379406 0.237054 0.836834 5329746 3
-0.370133 0.239950 0.847056 4737609 3
-0.359872 0.242406 0.855729 4605512 3
-0.344530 0.241501 0.852532 5921372 3
-0.329969 0.241089 0.851078 6578789 3
-0.313659 0.239307 0.844787 5985882 3
-0.376834 0.240388 0.802112 4868680 3
-0.374004 0.247223 0.824920 4540228 3
-0.364222 0.249804 0.833530 5132365 3
-0.354068 0.252320 0.841927 5723991 3
-0.340244 0.252320 0.841927 5329235 3
-0.326311 0.252236 0.841646 6118751 3
-0.310419 0.250562 0.836062 5065550 3
-0.324448 0.253788 0.802840 4276806 3
-0.317369 0.258763 0.818580 5592664 3
-0.517329 0.215516 0.860561 2697775 3
-0.593634 0.216264 0.810415 2302246 3
-0.597005 0.222479 0.833705 2236453 3
-0.584185 0.233783 0.876064 2302503 3
-0.559633 0.229611 0.860431 2894383 3
-0.551524 0.228662 0.807208 4144961 3
-0.534494 0.227058 0.801546 3354932 3
0.603577 0.207861 0.888228 3223859 3
0.601917 0.202399 0.864888 3750203 3
0.612943 0.201356 0.860431 5591378 3
0.629452 0.202121 0.863699 4473665 3
0.642305 0.201704 0.861916 4736069 3
0.606280 0.213141 0.851078 2434343 3
0.622799 0.214016 0.854570 4144959 3
0.640979 0.215410 0.860137 5921372 3
0.637519 0.209629 0.837052 5460567 3
0.644658 0.207503 0.828563 4934224 3
0.658262 0.207503 0.828563 2236713 3
0.670367 0.207039 0.826714 3881536 3
0.617537 0.226120 0.847350 5263440 3
0.640979 0.229532 0.860137 2697515 3
0.639827 0.224181 0.840082 2368296 3
0.647873 0.222209 0.832695 2894641 3
0.658262 0.221107 0.828563 3026227 3
0.670574 0.220682 0.826970 1512988 3
0.637694 0.242406 0.855729 5395028 3
0.650243 0.241848 0.853759 6644841 3
0.641265 0.233476 0.824202 4868430 3
0.657179 0.234325 0.827200 4736844 3
0.634014 0.254977 0.850791 6381669 3
0.643432 0.253186 0.844816 6250337 3
0.637908 0.245715 0.819887 7105646 3
0.651157 0.245635 0.819620 6513255 3
0.621194 0.257827 0.815617 6381923 3
0.634585 0.257827 0.815617 6381923 3
0.005596 0.206244 0.881320 9079432 3
0.020031 0.205881 0.879766 7106157 3
0.005692 0.224505 0.896455 6711397 3
0.020389 0.224265 0.895495 8224636 3
0.005694 0.239315 0.896795 8093052 3
0.049553 0.237803 0.891129 7238257 3
0.064225 0.237952 0.891688 6646120 3
0.078836 0.237863 0.891353 7566195 3
0.005311 0.236928 0.836388 7368816 3
0.019736 0.245539 0.866788 6250848 3
0.064685 0.254404 0.898081 7106673 3
0.078836 0.252498 0.891353 7105646 3
0.005162 0.243648 0.812989 6578789 3
0.018571 0.244435 0.815617 6710888 3
0.032194 0.246204 0.821519 6974317 3
0.046312 0.249599 0.832848 7434868 3
0.063255 0.263200 0.878231 6251364 3
0.078040 0.264436 0.882354 5987165 3
0.045065 0.256183 0.810415 7105646 3
0.062191 0.272948 0.863451 7631990 3
0.078586 0.280875 0.888528 7500404 3
0.091231 0.275015 0.869991 6513255 3
-0.082592 0.209712 0.896137 4935502 3
-0.067395 0.208220 0.889764 5723993 3
-0.052786 0.208220 0.889764 4867655 3
-0.038029 0.207412 0.886308 7829369 3
-0.023527 0.207853 0.888193 8750728 3
-0.008924 0.207412 0.886308 8750467 3
-0.097340 0.224505 0.896455 6184544 3
-0.082444 0.224023 0.894530 6513509 3
-0.067395 0.222830 0.889764 7039853 3
-0.052786 0.222830 0.889764 6249824 3
-0.038029 0.221964 0.886308 7105646 3
-0.023460 0.221809 0.885690 7369845 3
-0.009062 0.225391 0.899991 7829880 3
-0.096859 0.238043 0.892028 7303025 3
-0.080294 0.232487 0.871210 6513509 3
-0.065534 0.230879 0.865185 5921372 3
-0.051722 0.232653 0.871831 6118238 3
-0.037227 0.231528 0.867615 7895162 3
-0.022723 0.228924 0.857856 6513766 3
-0.008959 0.237439 0.889764 7106157 3
-0.092047 0.240135 0.847709 7237232 3
-0.076473 0.235045 0.829741 7500404 3
-0.062429 0.233476 0.824202 7302771 3
-0.048547 0.231804 0.818300 7828856 3
-0.034996 0.231044 0.815617 7566197 3
-0.021604 0.231044 0.815617 6184801 3
-0.008272 0.232716 0.821519 7236717 3
-0.091061 0.251332 0.838629 5592405 3
-0.074616 0.242631 0.809596 5197649 3
-0.061385 0.242876 0.810415 6381669 3
-0.008102 0.241144 0.804634 7499375 3
-0.087909 0.255924 0.809596 6777192 3
-0.389684 0.216845 0.926618 3684157 3
-0.374332 0.216765 0.926277 2828590 3
-0.354287 0.213846 0.913803 2696234 3
-0.355471 0.224049 0.957401 4077885 3
-0.323893 0.228577 0.912714 5196107 3
-0.326325 0.241465 0.964176 5723478 3
-0.304240 0.252114 0.944756 4933448 3
-0.420001 0.209211 0.893996 2960944 3
-0.489671 0.209722 0.837425 3093049 3
-0.475922 0.209722 0.837425 2039585 3
-0.463880 0.210497 0.840520 2367519 3
-0.450682 0.210779 0.841646 3354416 3
-0.434673 0.209722 0.837425 2367270 3
-0.421795 0.210156 0.839160 2038819 3
-0.420671 0.216674 0.865185 2105378 3
-0.406465 0.216674 0.865185 3026991 3
-0.401652 0.221862 0.885900 2565929 3
-0.492878 0.218792 0.819887 3026739 3
-0.477700 0.218008 0.816951 2435117 3
-0.465349 0.218507 0.818822 2565929 3
-0.455025 0.220016 0.824475 4407102 3
-0.443531 0.221034 0.828291 4407104 3
-0.424746 0.218368 0.818300 5526103 3
-0.410506 0.217941 0.816701 3815485 3
-0.406771 0.223251 0.836599 3092271 3
-0.443354 0.227562 0.803328 4736583 3
-0.435337 0.230299 0.812989 6447201 3
-0.418875 0.228600 0.806990 7434098 3
-0.684793 0.229043 0.978740 3025969 3
-0.666264 0.228200 0.975142 2039842 3
-0.614262 0.215569 0.921167 2039842 3
-0.674182 0.225443 0.900199 2302504 3
-0.659111 0.230511 0.920435 3485750 3
-0.658145 0.235574 0.940653 2039074 3
-0.615592 0.225638 0.900978 2236710 3
-0.613366 0.230358 0.919824 2434089 3
-0.622068 0.242960 0.910456 2631468 3
0.348597 0.168691 0.775240 3487031 3
0.350902 0.163825 0.752877 2828848 3
0.340355 0.153494 0.705398 4868173 3
0.340196 0.183758 0.785230 5855575 3
0.335158 0.174426 0.745353 5131854 3
0.334669 0.168036 0.718048 3947328 3
0.326231 0.196006 0.782656 7236717 3
0.324976 0.187852 0.750099 6842472 3
0.323850 0.180366 0.720205 5197906 3
0.307897 0.197119 0.738672 6315615 3
0.312025 0.192191 0.720205 7039851 3
0.311544 0.212973 0.978740 4803148 3
0.323569 0.210343 0.966657 4737357 3
0.307697 0.226215 0.966657 7040110 3
0.320856 0.224318 0.958552 7764605 3
0.332524 0.221605 0.946959 6447973 3
0.338434 0.215469 0.920740 6776679 3
0.308342 0.230694 0.921167 7633017 3
0.318355 0.227048 0.906609 6580329 3
0.206107 0.204046 0.937715 6710377 3
0.222838 0.205275 0.943364 6645095 3
0.241233 0.207778 0.954868 6316641 3
0.263334 0.212973 0.978740 5855577 3
0.279404 0.212973 0.978740 5131854 3
0.295474 0.212973 0.978740 4934734 3
0.208292 0.221768 0.947656 8092028 3
0.225385 0.223288 0.954149 6908263 3
0.238327 0.220764 0.943364 5461330 3
0.255944 0.222615 0.951273 7171435 3
0.272589 0.223456 0.954868 7566195 3
0.290714 0.225353 0.962973 6974571 3
0.203668 0.232059 0.926618 6184029 3
0.217997 0.231121 0.922871 7565936 3
0.230859 0.228850 0.913803 8420991 3
0.244962 0.228012 0.910456 7566197 3
0.259911 0.228012 0.910456 7237230 3
0.277082 0.229856 0.917820 7763572 3
0.293218 0.230694 0.921167 6974058 3
0.200043 0.242873 0.910127 6184542 3
0.102634 0.212973 0.978740 6182750 3
0.118704 0.212973 0.978740 5459027 3
0.134774 0.212973 0.978740 6381412 3
0.150844 0.212973 0.978740 7434100 3
0.157096 0.200445 0.921167 6315876 3
0.172220 0.200445 0.921167 5197395 3
0.188454 0.201631 0.926618 5460567 3
0.101367 0.226215 0.966657 7630707 3
0.118246 0.228159 0.974964 6578021 3
0.134774 0.229043 0.978740 5789275 3
0.149564 0.227098 0.970433 5986654 3
0.160159 0.219773 0.939130 6513255 3
0.173239 0.216845 0.926618 6842220 3
0.189368 0.217897 0.931112 7301744 3
0.100981 0.241164 0.962973 4473926 3
0.117239 0.242086 0.966657 5263442 3
0.132549 0.241065 0.962580 5987165 3
0.148068 0.240601 0.960726 5657687 3
0.159843 0.234729 0.937277 6973806 3
0.173239 0.232059 0.926618 5986912 3
0.188454 0.232059 0.926618 6579048 3
0.113477 0.249682 0.935643 7698040 3
0.127318 0.246733 0.924594 7829369 3
0.143724 0.248855 0.932544 7434098 3
0.158559 0.248108 0.929745 6776427 3
0.172095 0.245640 0.920498 6513255 3
0.185167 0.242960 0.910456 6184290 3
0.111722 0.260943 0.921167 6711147 3
0.124842 0.256819 0.906609 6776681 3
0.154094 0.255958 0.903567 6645095 3
0.111722 0.276068 0.921167 6250596 3
0.005919 0.202831 0.932133 7434096 3
0.021741 0.207778 0.954868 7105646 3
0.069624 0.226215 0.966657 5658709 3
0.085496 0.226215 0.966657 5723991 3
0.035758 0.228516 0.912472 7304304 3
0.051000 0.229688 0.917151 6514788 3
0.067540 0.234838 0.937715 6053983 3
0.083031 0.235107 0.938787 5987163 3
0.020499 0.240255 0.900316 6645606 3
0.035472 0.241556 0.905193 6646120 3
0.097168 0.247272 0.926614 8092541 3
0.035666 0.257816 0.910127 6908778 3
0.050335 0.256418 0.905193 7435636 3
0.095568 0.258163 0.911354 5789786 3
0.096597 0.276068 0.921167 5986911 3
-0.139285 0.214312 0.984896 3882563 3
-0.119361 0.207778 0.954868 4474185 3
-0.100023 0.200445 0.921167 3290681 3
-0.190344 0.233607 0.998247 5066063 3
-0.138638 0.229413 0.980322 4606799 3
-0.114856 0.215023 0.918834 4605772 3
-0.173922 0.228428 0.912120 3684667 3
-0.173008 0.248638 0.992816 4474953 3
-0.137338 0.243205 0.971125 4803665 3
-0.113524 0.227441 0.908176 4868943 3
-0.187876 0.242088 0.907186 5394774 3
-0.174134 0.243701 0.913232 3948609 3
-0.166395 0.254812 0.954868 6909296 3
-0.149468 0.252701 0.946959 5132885 3
-0.132320 0.249682 0.935643 6447975 3
-0.113757 0.242848 0.910035 7237232 3
-0.172028 0.255567 0.902187 5856608 3
-0.163181 0.265266 0.936427 6908526 3
-0.148901 0.267231 0.943364 5987424 3
-0.131254 0.262908 0.928104 6579048 3
0.732525 0.139400 0.692913 2958894 1
0.750544 0.140645 0.699100 1577754 1
0.704630 0.152123 0.699100 4342599 1
0.712925 0.151447 0.695993 3486520 1
0.722928 0.148802 0.683836 2761514 1
0.718469 0.145622 0.669224 3025200 1
0.701304 0.162830 0.695800 4736845 3
0.641486 0.141912 0.705398 2236453 1
0.667657 0.142554 0.708590 1644063 1
0.673199 0.141275 0.702235 1710626 1
0.684729 0.141275 0.702235 2566703 1
0.667657 0.154188 0.708590 1249305 1
0.638930 0.180733 0.772307 2960433 3
0.609604 0.169082 0.722520 3486770 3
0.638930 0.193414 0.772307 3025969 3
0.613324 0.182050 0.726928 3683897 3
0.604739 0.176075 0.703072 5130575 3
0.617111 0.195183 0.731418 2170660 3
0.606495 0.188163 0.705113 2498856 3
0.616283 0.199163 0.703072 3485497 3
0.576754 0.132372 0.657977 2959404 1
0.585636 0.148155 0.680863 3157037 3
0.581642 0.144388 0.663553 3222576 3
0.587557 0.143175 0.657977 2170658 3
0.598361 0.143175 0.657977 2894383 3
0.599357 0.163067 0.696815 3288623 3
0.596579 0.159271 0.680593 4275266 3
0.595729 0.156120 0.667128 2894128 3
0.599945 0.154386 0.659719 3289141 3
0.595050 0.199706 0.666367 6446436 3
0.601323 0.140645 0.699100 3025197 1
0.641509 0.139400 0.692913 1380121 1
0.641509 0.150777 0.692913 1973028 1
0.670194 0.152123 0.699100 2039334 1
0.681673 0.152123 0.699100 3553084 1
0.693151 0.152123 0.699100 2764337 1
0.610660 0.154356 0.659593 3288888 3
0.674710 0.161931 0.691959 4276294 3
0.687208 0.162199 0.693106 4671565 3
0.609073 0.174015 0.694847 4801357 3
0.604212 0.169452 0.676627 4603978 3
0.608589 0.167598 0.669224 4735818 3
0.612801 0.186559 0.699100 3617083 3
0.613083 0.183213 0.686562 2827567 3
0.611897 0.179557 0.672861 2498856 3
0.624280 0.198037 0.699100 3156532 3
0.613534 0.191114 0.674661 4406853 3
0.480642 0.157522 0.782992 3157813 1
0.408009 0.152805 0.702235 5460568 3
0.421429 0.153494 0.705398 4802637 3
0.473539 0.167860 0.771421 4276293 3
0.498483 0.172099 0.790901 6184544 3
0.408009 0.164335 0.702235 4934224 3
0.420141 0.164571 0.703242 2895153 3
0.445113 0.169689 0.725114 3355702 3
0.487783 0.181112 0.773925 3947580 3
0.440753 0.179816 0.718011 3815996 3
0.470281 0.186865 0.746155 2829101 3
0.486305 0.188326 0.751989 3354932 3
0.489821 0.184991 0.738672 2500134 3
0.430745 0.187254 0.701707 6447716 3
0.456943 0.193468 0.724993 6381923 3
0.467361 0.192855 0.722696 5789532 3
0.476358 0.191701 0.718369 6052958 3
0.475725 0.186820 0.700080 6052704 3
0.430835 0.198817 0.701854 7039340 3
0.406188 0.140645 0.699100 2303017 1
0.417666 0.140645 0.699100 2697262 1
0.413541 0.173351 0.692195 4671051 3
0.408446 0.182440 0.683667 8026237 3
0.402482 0.196231 0.692723 8026237 3
0.412491 0.195584 0.690438 8223616 3
0.469995 0.195926 0.691648 6776940 3
0.480910 0.195747 0.691014 5658460 3
0.452645 0.199631 0.666116 5724253 3
0.408968 0.199910 0.632401 4080197 3
0.358303 0.180025 0.894848 4933711 3
0.325201 0.192518 0.884737 6645093 3
0.337819 0.191436 0.879766 5789273 3
0.357081 0.179345 0.824202 3421236 3
0.334605 0.195560 0.835664 6578789 3
0.337560 0.189516 0.809836 6512994 3
-0.193896 0.204574 1.016873 3157300 3
-0.177200 0.204574 1.016873 2236964 3
-0.141964 0.201951 1.003836 4803920 1
-0.191410 0.218433 1.003836 3091762 3
-0.176056 0.219843 1.010312 3684410 3
-0.176988 0.237682 1.015659 5987422 3
-0.162615 0.241097 1.030253 5856606 3
-0.158370 0.251277 1.003355 5790815 3
-0.238111 0.214316 1.065295 4736585 3
-0.211968 0.205911 1.023519 3223348 3
-0.259128 0.235004 1.079989 4144448 3
-0.236502 0.230241 1.058097 4276034 3
-0.210592 0.221270 1.016873 3881278 3
-0.274618 0.250690 1.071242 5657685 3
-0.252278 0.246056 1.051440 5262929 3
-0.236113 0.247206 1.056357 4933964 3
-0.210357 0.237701 1.015739 5065552 3
-0.284562 0.261260 1.043219 5657169 3
-0.263483 0.257401 1.027808 5987161 3
-0.228433 0.255946 1.021998 4210243 3
-0.211881 0.256221 1.023098 4736844 3
-0.272985 0.267063 1.000776 4736837 3
-0.337030 0.221862 1.102806 3355445 3
-0.323479 0.225032 1.118560 3289139 3
-0.305114 0.225032 1.118560 2762027 3
-0.355137 0.239969 1.102806 4078655 3
-0.337030 0.239969 1.102806 3749688 3
-0.323479 0.243397 1.118560 4209725 3
-0.305114 0.243397 1.118560 3748920 3
-0.337030 0.258076 1.102806 4472895 3
-0.322055 0.260611 1.113637 3683379 3
-0.304330 0.261091 1.115687 4933448 3
-0.365604 0.207266 1.030253 3487027 3
-0.344160 0.204574 1.016873 3947067 3
-0.336196 0.210029 1.043989 3881535 3
-0.365604 0.224182 1.030253 4013114 3
-0.353338 0.227171 1.043989 3618102 3
-0.356627 0.235178 1.004956 3355184 3
-0.350470 0.242329 1.035515 3552563 3
-0.349218 0.253775 1.084426 3880760 3
-0.329630 0.256347 1.023599 3880760 3
-0.322019 0.263882 1.053689 5656656 3
-0.305994 0.264986 1.058097 5525583 3
0.870883 0.147619 0.798972 1709858 1
0.845015 0.155962 0.775240 1775649 1
0.884001 0.160737 0.798972 986392 1
0.841088 0.165416 0.760186 986392 1
0.879177 0.170378 0.782992 460563 1
0.508616 0.153086 0.828563 2170405 1
0.524998 0.153900 0.832970 2170658 1
0.538675 0.153900 0.832970 1380626 1
0.570561 0.158974 0.860431 2631207 1
0.587918 0.159852 0.865185 1644573 1
0.530214 0.164945 0.819887 2697000 1
0.561308 0.170294 0.846478 3815735 1
0.584688 0.173101 0.860431 4737096 1
0.595543 0.172155 0.855729 4736844 1
0.530214 0.178406 0.819887 5197134 3
0.558290 0.183202 0.841927 5000009 3
0.584688 0.187229 0.860431 5395026 3
0.598815 0.187229 0.860431 5000270 3
0.528753 0.191340 0.817629 4144959 3
0.562159 0.198391 0.847761 3815481 3
0.371752 0.129166 0.699100 3946816 1
0.383231 0.129166 0.699100 3618364 1
0.394709 0.129166 0.699100 2039845 1
0.399062 0.126900 0.686835 2631982 1
0.353953 0.138177 0.686835 3814716 1
0.368462 0.139400 0.692913 3223093 1
0.383231 0.140645 0.699100 2894641 1
0.394709 0.140645 0.699100 3947842 1
0.342676 0.149454 0.686835 4670792 3
0.352407 0.148802 0.683836 4735818 3
0.355865 0.145622 0.669224 5657434 3
0.383231 0.152123 0.699100 4407367 3
0.394709 0.152123 0.699100 5592154 3
0.335165 0.162558 0.694640 4079168 3
0.342582 0.160688 0.686648 2894381 3
0.351937 0.159816 0.682923 3091507 3
0.353792 0.155698 0.665325 3091507 3
0.369157 0.157594 0.673427 3420472 3
0.387822 0.160747 0.686901 1973539 3
0.323759 0.173963 0.694640 7040110 3
0.330363 0.171471 0.684689 7171696 3
0.325713 0.163494 0.652836 7302771 3
0.338817 0.164653 0.657465 7565686 3
0.343574 0.161809 0.646109 7894651 3
0.357616 0.163378 0.652374 4539208 3
0.378058 0.167694 0.669607 4604746 3
0.396912 0.171082 0.683135 5657434 3
0.310508 0.184273 0.690534 6908524 3
0.324183 0.167870 0.629068 7434100 3
0.335861 0.168547 0.631605 8026237 3
0.348272 0.169541 0.635328 10000027 3
0.377714 0.178526 0.668998 7236721 3
0.395056 0.181446 0.679942 7433845 3
0.320288 0.170622 0.602319 6315617 3
0.337374 0.184446 0.615447 5065550 3
1.517956 0.209223 1.242845 1512736 1
1.542440 0.233332 1.262890 1842984 1
1.542440 0.254068 1.262890 1513249 1
1.542440 0.274803 1.262890 1513247 1
1.506844 0.292653 1.250558 1118232 1
1.454064 0.205953 1.223425 1315870 1
1.474151 0.205953 1.223425 986905 1
1.454064 0.226041 1.223425 1381663 1
1.497550 0.229629 1.242845 1381663 1
1.497550 0.250035 1.242845 2236972 1
1.474151 0.266216 1.223425 2302506 1
0.619229 0.149784 0.889764 2434089 1
0.602124 0.159852 0.865185 1907746 1
0.619753 0.160740 0.869991 2301477 1
0.609593 0.172155 0.855729 3025199 1
0.634038 0.175025 0.869991 2694951 1
0.666846 0.180025 0.894848 3813432 1
0.634410 0.167577 0.832970 3551544 1
0.609593 0.186206 0.855729 4670276 3
0.616901 0.184192 0.846478 4012092 3
0.663057 0.193611 0.889764 3090733 3
0.627732 0.179345 0.824202 3222578 3
0.641265 0.179345 0.824202 2763055 3
0.647977 0.177477 0.815617 3816256 3
0.650428 0.199851 0.854001 3091762 3
0.654872 0.196971 0.841691 3749952 3
0.665302 0.195972 0.837425 3882049 3
0.657615 0.189786 0.810988 2763568 3
0.182984 0.164763 0.978740 2039585 1
0.199054 0.164763 0.978740 2434603 1
0.166914 0.180833 0.978740 3092530 1
0.180725 0.178600 0.966657 3355702 1
0.196597 0.178600 0.966657 2171431 1
0.103934 0.199395 0.991129 7169645 3
0.120207 0.199395 0.991129 4933196 3
0.136480 0.199395 0.991129 5066063 3
0.150844 0.196903 0.978740 4605512 3
0.157096 0.185320 0.921167 4079425 3
0.172220 0.185320 0.921167 4342597 3
0.187345 0.185320 0.921167 2894641 3
0.105728 0.201237 1.195408 2894383 1
0.125355 0.201237 1.195408 2433832 1
0.101097 0.211191 1.143054 3419957 1
0.101841 0.231650 1.151459 5130575 3
0.101841 0.250556 1.151459 5920089 3
0.046845 0.201237 1.195408 2631728 1
0.086100 0.201237 1.195408 2499370 1
0.025837 0.209661 1.134771 2301476 1
0.045457 0.214320 1.159988 2763055 1
0.063562 0.211191 1.143054 2105124 1
0.082329 0.211191 1.143054 2302246 1
0.026809 0.236875 1.177432 5064782 3
0.045457 0.233366 1.159988 4605258 3
0.063101 0.228293 1.134771 5131856 3
0.082935 0.231650 1.151459 5197138 3
0.045797 0.254296 1.168645 6776938 3
0.063101 0.246925 1.134771 5066061 3
0.082935 0.250556 1.151459 5394515 3
-0.207892 0.168987 1.003836 2499370 1
-0.284773 0.192888 1.043989 3485751 3
-0.267631 0.192888 1.043989 2368037 3
-0.250490 0.192888 1.043989 3223346 3
-0.236502 0.195495 1.058097 2565416 1
-0.222131 0.198173 1.072592 2170660 1
0.311544 0.148693 0.978740 3223605 1
0.331761 0.150575 0.991129 2236710 1
0.312013 0.156917 0.932133 2170917 1
0.325381 0.155988 0.926618 2236449 1
0.310167 0.171203 0.926618 3881535 1
0.323467 0.170195 0.921167 2433830 1
0.338592 0.170195 0.921167 3749688 1
0.375823 0.180833 0.978740 2829101 1
0.302103 0.190936 0.949081 3882048 3
0.310167 0.186417 0.926618 6579048 3
0.321575 0.184236 0.915780 2565929 3
0.336612 0.184236 0.915780 3289650 3
0.351648 0.184236 0.915780 2565416 3
0.317858 0.196969 0.905193 7303282 3
0.364552 0.198114 0.910456 7894651 3
0.299214 0.150575 0.991129 2039591 1
0.282941 0.166848 0.991129 1775649 1
0.299214 0.166848 0.991129 657679 1
0.298485 0.157857 0.937715 1381401 1
0.212468 0.178600 0.966657 2302763 1
0.234120 0.183122 0.991129 2829107 1
0.266667 0.183122 0.991129 2368039 1
0.279404 0.180833 0.978740 1578780 1
0.295474 0.180833 0.978740 2434603 1
0.298485 0.173253 0.937715 2631982 1
0.206107 0.188649 0.937715 2828848 3
0.228340 0.194472 0.966657 4473673 3
0.247264 0.196903 0.978740 3355702 3
0.263334 0.196903 0.978740 5066063 3
0.279404 0.196903 0.978740 4407879 3
0.295474 0.196903 0.978740 3289911 3
0.180448 0.160749 1.058097 3421495 1
0.197821 0.160749 1.058097 2763308 1
0.158783 0.173434 1.030253 2434600 1
0.171194 0.168987 1.003836 2368807 1
0.109477 0.192888 1.043989 3419957 1
0.124952 0.190350 1.030253 3683899 1
0.141868 0.190350 1.030253 3289652 1
0.154712 0.185469 1.003836 2500136 1
-0.085909 0.141612 0.932133 2105638 1
-0.085909 0.156917 0.932133 2500912 1
-0.070605 0.156917 0.932133 2764337 1
-0.056649 0.160744 0.954868 2368550 1
-0.086424 0.173253 0.937715 2632496 1
-0.070605 0.172222 0.932133 2631981 1
-0.055300 0.172222 0.932133 2434341 1
-0.039995 0.172222 0.932133 1907486 1
-0.024838 0.173253 0.937715 2038819 1
-0.009557 0.175353 0.949081 2432549 1
-0.084402 0.184236 0.915780 1711649 1
-0.069366 0.184236 0.915780 2039585 3
-0.054330 0.184236 0.915780 2236449 3
-0.039294 0.184236 0.915780 2171171 3
-0.024400 0.185320 0.921167 2499882 3
-0.009386 0.187526 0.932133 3485748 3
-0.083912 0.198114 0.910456 3751230 3
-0.068963 0.198114 0.910456 4671305 3
-0.054330 0.199273 0.915780 7170410 3
-0.039294 0.199273 0.915780 8487299 3
-0.123893 0.150575 0.991129 2170917 1
-0.103683 0.145066 0.954868 2434602 1
-0.141060 0.167911 0.997442 2236710 1
-0.123893 0.166848 0.991129 2763567 1
-0.103683 0.160744 0.954868 2960947 1
-0.124683 0.184288 0.997442 2303016 1
-0.105615 0.179710 0.972661 2961461 1
-0.121585 0.195680 0.972661 3421497 1
-0.102434 0.189786 0.943364 3487805 1
-0.603460 0.152505 1.003836 1248275 1
-0.618706 0.160749 1.058097 1578005 1
-0.609571 0.162951 1.072592 1906970 1
-0.636424 0.168987 1.003836 1184025 1
-0.653452 0.178122 1.058097 1841442 1
-0.636079 0.178122 1.058097 1906718 1
0.182842 0.160755 1.186352 2039331 1
0.199301 0.158356 1.168645 2302503 1
0.160925 0.177544 1.168645 2828588 1
0.177464 0.174933 1.151459 3158066 1
0.139652 0.193839 1.151459 3289398 1
0.151858 0.185648 1.102806 3158066 1
-0.191410 0.136023 1.003836 1841701 1
-0.191410 0.152505 1.003836 1710115 1
-0.177200 0.154486 1.016873 1775647 1
-0.160504 0.154486 1.016873 3025969 1
-0.143808 0.154486 1.016873 2302504 1
-0.191410 0.168987 1.003836 3223097 1
-0.177200 0.171182 1.016873 2630956 1
-0.160504 0.171182 1.016873 3026226 1
-0.179531 0.190350 1.030253 1775902 1
-0.162615 0.190350 1.030253 3881789 1
-0.142880 0.186666 1.010312 2697774 1
-0.629695 0.121952 0.899991 2170920 1
-0.651558 0.132171 0.869991 986646 1
-0.630271 0.130719 0.860431 2631471 1
-0.609446 0.129298 0.851078 986392 1
-0.602016 0.130719 0.860431 1117721 1
-0.680975 0.149784 0.889764 1184284 1
-0.630540 0.141731 0.841927 921112 1
-0.623420 0.143272 0.851078 1447197 1
-0.609446 0.143272 0.851078 1446432 1
-0.680975 0.164393 0.889764 1250075 1
-0.637394 0.157246 0.851078 1118489 3
-0.623420 0.157246 0.851078 1775647 3
0.169216 0.200736 0.669805 8092541 3
0.155483 0.204656 0.615447 8421504 3
0.165844 0.204971 0.616396 8618372 3
0.175227 0.204112 0.613813 9013128 3
0.183908 0.202573 0.609185 8618370 3
0.193113 0.201740 0.606679 8092026 3
0.162052 0.210174 0.602302 7039338 3
0.172397 0.210732 0.603900 8289405 3
0.182049 0.210427 0.603028 8157819 3
0.191673 0.210123 0.602157 8815749 3
0.162052 0.220063 0.602302 8552831 3
0.171941 0.220063 0.602302 8815749 3
0.181351 0.219483 0.600715 8420991 3
0.162052 0.229952 0.602302 9341579 3
0.172857 0.231178 0.605512 9209993 3
0.182709 0.231064 0.605214 11117990 3
0.191169 0.229292 0.600572 9538958 3
-0.521050 0.119541 1.003836 2169637 1
-0.504568 0.119541 1.003836 2038305 1
-0.586978 0.136023 1.003836 1116943 1
-0.570496 0.136023 1.003836 1512212 1
-0.561209 0.137790 1.016873 2169888 1
-0.537532 0.136023 1.003836 854545 1
-0.521050 0.136023 1.003836 1182996 1
-0.504568 0.136023 1.003836 1446168 1
-0.583960 0.160749 1.058097 1446933 1
-0.551677 0.156519 1.030253 1973281 1
-0.527817 0.154486 1.016873 1512730 1
-0.504568 0.152505 1.003836 1183765 1
-0.574349 0.180562 1.072592 328714 1
-0.534762 0.173434 1.030253 1249558 1
-0.574349 0.198173 1.072592 1644574 3
0.509591 0.136248 1.327105 1710115 1
0.501098 0.155404 1.304987 2105386 1
0.531381 0.158038 1.327105 2039591 1
0.553171 0.179828 1.327105 2631469 1
0.522525 0.198257 1.304987 2894643 1
0.429605 0.125604 1.223425 2368810 1
0.449692 0.125604 1.223425 1842206 1
0.449692 0.145691 1.223425 1447194 1
0.422995 0.163228 1.204603 2828847 1
0.449692 0.165779 1.223425 2302757 1
0.469779 0.165779 1.223425 2236970 1
0.497642 0.168410 1.242845 1447454 1
0.442774 0.183007 1.204603 3749942 1
0.469779 0.185866 1.223425 3092019 1
-0.250904 0.100483 0.978740 2235681 1
-0.218764 0.100483 0.978740 1907745 1
-0.260463 0.113710 0.954868 2236198 1
-0.244785 0.113710 0.954868 2236451 1
-0.231935 0.115114 0.966657 2302757 1
-0.218764 0.116553 0.978740 1907488 1
-0.276141 0.129388 0.954868 2104614 1
-0.260463 0.129388 0.954868 1907233 1
-0.247807 0.130986 0.966657 2499882 1
-0.234834 0.132623 0.978740 1578781 1
-0.218764 0.132623 0.978740 1841440 1
-0.202695 0.132623 0.978740 2038821 1
-0.281519 0.139946 0.921167 2828850 1
-0.269566 0.141612 0.932133 1051924 1
-0.260463 0.145066 0.954868 2038819 1
-0.250904 0.148693 0.978740 1776160 1
-0.234834 0.148693 0.978740 2039332 1
-0.218764 0.148693 0.978740 2894130 1
-0.202695 0.148693 0.978740 2630958 1
-0.284871 0.156917 0.932133 2170918 1
-0.279550 0.162729 0.966657 3025714 1
-0.266974 0.164763 0.978740 1907233 1
-0.250904 0.164763 0.978740 2631468 1
-0.234834 0.164763 0.978740 2565675 1
-0.218764 0.164763 0.978740 2039074 1
-0.299114 0.180833 0.978740 3223605 3
-0.556233 0.100483 0.978740 1050643 1
-0.540163 0.100483 0.978740 853777 1
-0.524093 0.100483 0.978740 1512477 1
-0.508024 0.100483 0.978740 1183512 1
-0.581109 0.115114 0.966657 1381401 1
-0.572303 0.116553 0.978740 1906718 1
-0.556233 0.116553 0.978740 1906205 1
-0.540163 0.116553 0.978740 1511960 1
-0.530728 0.118028 0.991129 1445914 1
-0.588373 0.132623 0.978740 1972511 1
-0.514454 0.183122 0.991129 2039331 3
-0.684793 0.100483 0.978740 591888 1
-0.668723 0.100483 0.978740 1709854 1
-0.652653 0.100483 0.978740 2169124 1
-0.636583 0.100483 0.978740 1577504 1
-0.604443 0.100483 0.978740 855058 1
-0.698098 0.111003 0.932133 1445914 1
-0.682793 0.111003 0.932133 986133 1
-0.675530 0.112340 0.943364 723731 1
-0.660041 0.112340 0.943364 1710880 1
-0.668723 0.116553 0.978740 788752 1
-0.652653 0.116553 0.978740 1313301 1
-0.636583 0.116553 0.978740 1314332 1
-0.612852 0.115114 0.966657 1710117 1
-0.604443 0.116553 0.978740 2039080 1
-0.689885 0.124822 0.921167 1315098 1
-0.674760 0.124822 0.921167 1249303 1
-0.652413 0.129388 0.954868 1116949 1
-0.644596 0.130986 0.966657 1313815 1
-0.628724 0.130986 0.966657 1840674 1
-0.620513 0.132623 0.978740 1051674 1
-0.604443 0.132623 0.978740 1775651 1
-0.692784 0.137519 0.905193 1644322 1
-0.629386 0.139946 0.921167 1973028 1
-0.636735 0.145066 0.954868 1840672 1
-0.628724 0.146857 0.966657 1512477 1
-0.628368 0.150575 0.991129 1249307 1
-0.644511 0.155071 0.921167 1051674 1
-0.636879 0.156917 0.932133 1973028 1
-0.636735 0.160744 0.954868 657166 1
-0.621057 0.160744 0.954868 1118230 1
-0.781213 0.100483 0.978740 1512736 1
-0.765143 0.100483 0.978740 789526 1
-0.749073 0.100483 0.978740 920342 1
-0.750384 0.109697 0.921167 1512479 1
-0.739610 0.110346 0.926618 788502 1
-0.733071 0.111667 0.937715 1315357 1
-0.721998 0.112340 0.943364 1380121 1
-0.774621 0.126307 0.932133 393998 1
-0.741658 0.123370 0.910456 920342 1
-0.711761 0.123370 0.910456 1578529 1
-0.700887 0.124092 0.915780 1907235 1
-0.770038 0.140774 0.926618 1117719 1
-0.741658 0.138319 0.910456 2236202 1
-0.722509 0.137519 0.905193 1051928 1
-0.707646 0.137519 0.905193 1841701 1
-0.788705 0.159770 0.949081 1183512 1
-0.750384 0.155071 0.921167 788754 1
-0.735259 0.155071 0.921167 1644063 1
-0.720134 0.155071 0.921167 1117721 1
-0.793515 0.176422 0.954868 1906718 1
-0.777837 0.176422 0.954868 1577241 1
-0.752976 0.174297 0.943364 1577500 1
-0.737487 0.174297 0.943364 657681 1
-0.749073 0.196903 0.978740 2237224 3
-0.856195 0.101755 0.991129 1380889 1
-0.839921 0.101755 0.991129 1315098 1
-0.807375 0.101755 0.991129 1117719 1
-0.845492 0.116553 0.978740 1447195 1
-0.829422 0.116553 0.978740 1512477 1
-0.813352 0.116553 0.978740 1446686 1
-0.845492 0.132623 0.978740 1315611 1
-0.829422 0.132623 0.978740 2170407 1
-0.829422 0.148693 0.978740 1315098 1
-0.835054 0.162729 0.966657 1051928 1
-0.809193 0.176422 0.954868 1183765 1
0.208643 0.105516 1.223425 1908259 1
0.232361 0.107191 1.242845 2368297 1
0.211955 0.127597 1.242845 2237224 1
0.236109 0.129655 1.262890 1118230 1
0.208643 0.145691 1.223425 2170917 1
0.232361 0.148004 1.242845 2105124 1
0.261055 0.152856 1.283594 2434343 1
0.228730 0.165779 1.223425 1249558 1
0.261055 0.173932 1.283594 3223859 1
0.252767 0.188816 1.242845 2499882 1
0.132432 0.108920 1.262890 1972512 1
0.132432 0.129655 1.262890 1841695 1
0.150736 0.127597 1.242845 1710620 1
0.168468 0.125604 1.223425 1710109 1
0.188555 0.125604 1.223425 2039331 1
0.132432 0.150391 1.262890 2236198 1
0.150736 0.148004 1.242845 2302757 1
0.168468 0.145691 1.223425 2894383 1
0.188555 0.145691 1.223425 2434089 1
0.132432 0.171126 1.262890 2104612 1
0.150736 0.168410 1.242845 2697515 1
0.168468 0.165779 1.223425 2960176 1
0.110803 0.190327 1.252787 2696749 1
0.130329 0.188816 1.242845 2631211 1
0.147230 0.184425 1.213941 3289652 1
0.093993 0.112551 1.304987 2434092 1
0.030738 0.160763 1.349986 2499370 1
0.008572 0.182928 1.349986 2368299 1
0.030217 0.179828 1.327105 2367784 1
0.052006 0.179828 1.327105 1644061 1
0.029713 0.198257 1.304987 2433577 1
-0.636583 0.084413 0.978740 2235432 1
-0.605379 0.082354 0.954868 1051926 1
-0.682793 0.095698 0.932133 1117467 1
-0.675530 0.096851 0.943364 1249566 1
-0.612852 0.099242 0.966657 1578783 1
-0.716933 0.068343 0.978740 1906469 1
-0.709734 0.069208 0.991129 2564397 1
-0.765143 0.084413 0.978740 1183771 1
-0.747009 0.086026 0.997442 1182746 1
-0.716933 0.084413 0.978740 919574 1
-0.709734 0.085482 0.991129 1051928 1
