# .PCD v0.7
VERSION 0.7
FIELDS x y z rgb label
SIZE 4 4 4 4 4
TYPE F F F U U
COUNT 1 1 1 1 1
WIDTH 1322
HEIGHT 1
VIEWPOINT 0 0 0 1 0 0 0
POINTS 1322
DATA ascii
-0.309373 0.227557 0.596028 2039842 3
-0.329090 0.237447 0.596289 4079427 3
-0.318390 0.236771 0.594591 3290681 3
-0.306301 0.234986 0.590110 3158323 3
-0.390167 0.220850 0.532648 3093552 3
-0.385039 0.222944 0.537699 4277056 3
-0.379621 0.224965 0.542573 5197906 3
-0.368014 0.223328 0.538624 4408392 3
-0.357618 0.222363 0.536296 3355702 3
-0.349115 0.222556 0.536762 3815994 3
-0.315089 0.229880 0.554425 4605769 3
-0.316524 0.237797 0.573521 2960946 3
-0.312167 0.241715 0.582970 3553851 3
-0.315089 0.238983 0.554425 5659227 3
-0.308665 0.241075 0.559280 3553851 3
-0.303991 0.244705 0.567700 5330260 3
-0.077531 0.200307 0.548230 8158071 3
-0.069756 0.203891 0.558041 7500654 3
-0.060728 0.204344 0.559280 8158843 3
-0.052059 0.206380 0.564853 6381921 3
-0.042977 0.207306 0.567386 8421506 3
-0.033661 0.207306 0.567386 8553601 3
-0.083548 0.202088 0.529319 7762032 3
-0.077531 0.209308 0.548230 7104868 3
-0.053579 0.221952 0.581347 7303023 3
-0.043275 0.218126 0.571326 8224125 3
-0.033661 0.216621 0.567386 8685185 3
-0.025653 0.228256 0.597860 8553599 3
-0.119012 0.194543 0.532454 5921370 3
-0.110028 0.194115 0.531285 7829108 3
-0.101782 0.195030 0.533788 7433071 3
-0.113256 0.193452 0.506699 8355709 3
-0.104724 0.193061 0.505674 6382173 3
-0.153168 0.218304 0.597487 5263188 3
-0.136733 0.208214 0.569872 5329492 3
-0.192479 0.228197 0.597704 8486533 3
-0.162581 0.227557 0.596028 4868684 3
-0.146089 0.217571 0.569872 7368818 3
-0.130007 0.206869 0.541841 7500402 3
-0.195676 0.219573 0.551403 5790811 3
-0.193275 0.227400 0.571059 7566197 3
-0.187734 0.232143 0.582970 8355459 3
-0.179499 0.233885 0.587343 5460567 3
-0.172039 0.236892 0.594895 6710888 3
-0.162189 0.236771 0.594591 8026748 3
-0.142039 0.220635 0.554071 7960955 3
-0.128234 0.212823 0.534452 7960953 3
-0.112775 0.200916 0.504550 7895158 3
-0.186622 0.228626 0.551403 7632501 3
-0.184857 0.238010 0.574035 7105905 3
-0.179499 0.243528 0.587343 7632247 3
-0.298779 0.217183 0.594420 3223855 3
-0.284777 0.213995 0.585695 5197899 3
-0.293599 0.223008 0.584113 3026991 3
-0.275081 0.215998 0.565753 3552820 3
-0.260206 0.211459 0.553864 7237232 3
-0.248795 0.209507 0.548752 5065297 3
-0.202293 0.228197 0.597704 6579048 3
-0.285740 0.226373 0.568479 4540230 3
-0.268011 0.219498 0.551214 5263953 3
-0.256010 0.216996 0.544933 6118497 3
-0.241944 0.212500 0.533641 6052705 3
-0.228017 0.207794 0.521823 5197138 3
-0.216108 0.204630 0.513878 7828856 3
-0.206815 0.203787 0.511760 5329746 3
-0.200219 0.205642 0.516420 6316639 3
-0.200916 0.215483 0.541133 7238511 3
-0.298732 0.238628 0.575526 2961712 3
-0.280318 0.231234 0.557692 5067088 3
-0.261834 0.223280 0.538509 5000527 3
-0.247929 0.218812 0.527732 7434868 3
-0.292286 0.242725 0.563107 5659479 3
0.145643 0.201169 0.576497 7039340 3
0.158852 0.206024 0.590409 7170926 3
0.187302 0.205331 0.588424 8618370 3
0.138699 0.200592 0.549010 9209739 3
0.149814 0.203445 0.556818 8485505 3
0.159659 0.204344 0.559280 8880774 3
0.168842 0.204344 0.559280 8486016 3
0.174625 0.200442 0.548599 8026233 3
0.100265 0.204752 0.536296 9211018 3
0.109071 0.204752 0.536296 10263710 3
0.117876 0.204752 0.536296 9013643 3
0.127891 0.206707 0.541417 8553090 3
0.137369 0.207596 0.543745 9276813 3
0.147000 0.208594 0.546359 8880776 3
0.156310 0.209047 0.547547 8880517 3
0.164511 0.208049 0.544933 10920357 3
0.172259 0.206611 0.541166 8947335 3
0.179062 0.204235 0.534944 9539987 3
0.186092 0.202330 0.529952 9211020 3
0.108329 0.212104 0.532648 8947850 3
0.117074 0.212104 0.532648 7697783 3
0.126412 0.213103 0.535156 8355711 3
0.136781 0.215596 0.541417 9013641 3
0.146297 0.216523 0.543745 8947337 3
0.155224 0.216523 0.543745 9604497 3
0.163374 0.215497 0.541166 9143946 3
0.170278 0.213019 0.534944 9539472 3
0.177465 0.211119 0.530173 9474194 3
0.185775 0.210671 0.529049 9671571 3
0.193564 0.209699 0.526608 8750980 3
0.107100 0.218346 0.526608 9013641 3
0.116039 0.218898 0.527939 8882057 3
0.124970 0.219358 0.529049 9079434 3
0.133656 0.219358 0.529049 9408399 3
0.145061 0.223547 0.539152 8684678 3
0.155224 0.225451 0.543745 7828856 3
0.160365 0.220250 0.531200 7301742 3
0.167272 0.217886 0.525498 8881544 3
0.175974 0.217978 0.525720 8421506 3
0.052570 0.207412 0.594387 7500404 3
0.052704 0.217725 0.595902 8355711 3
0.060197 0.209741 0.574051 8816262 3
0.068123 0.205224 0.561689 8355711 3
0.076183 0.202138 0.553243 8816003 3
0.061249 0.222997 0.584085 8289918 3
0.067964 0.213947 0.560380 9211533 3
0.075865 0.210342 0.550937 9014154 3
0.083802 0.207596 0.543745 9211533 3
0.091857 0.205640 0.538624 8487297 3
0.076070 0.219981 0.552427 8618883 3
0.083405 0.215497 0.541166 8224125 3
0.091657 0.214017 0.537452 8355709 3
0.099796 0.212558 0.533788 9211018 3
0.083588 0.224875 0.542355 9079436 3
0.091229 0.221802 0.534944 8093050 3
0.099121 0.219824 0.530173 8948357 3
-0.197761 0.225806 0.647101 5263701 3
-0.188545 0.227505 0.651969 3552824 3
-0.164045 0.223299 0.639917 5855579 3
-0.146772 0.213458 0.611713 6447973 3
-0.148272 0.231480 0.663359 5658711 3
-0.196990 0.223501 0.611713 5197908 3
-0.185950 0.222310 0.608452 6184803 3
-0.175531 0.221769 0.606971 6118497 3
-0.165565 0.221769 0.606971 6118751 3
-0.183631 0.229403 0.600865 5657946 3
-0.174181 0.229952 0.602302 5789532 3
-0.233711 0.240962 0.690534 4934477 3
-0.211784 0.229488 0.657651 3815742 3
-0.291394 0.226620 0.620249 4868682 3
-0.259503 0.255367 0.698928 6053469 3
-0.228328 0.235085 0.643415 5592407 3
-0.208587 0.225178 0.616300 5789532 3
-0.235145 0.241795 0.633322 5462100 3
-0.213660 0.229868 0.602082 5855836 3
0.057171 0.214951 0.646407 8224127 3
0.048153 0.233291 0.668549 8092541 3
0.015618 0.250615 0.685920 9342865 3
0.024602 0.229375 0.627789 8948107 3
0.034368 0.225820 0.618058 8684937 3
0.044167 0.224051 0.613218 9342608 3
0.014144 0.237164 0.621190 9738393 3
0.024160 0.235384 0.616529 8684937 3
0.034283 0.235384 0.616529 9803159 3
0.044406 0.235384 0.616529 10000536 3
0.054236 0.234120 0.613218 9474192 3
0.003884 0.243589 0.611713 8619910 3
0.013928 0.243589 0.611713 7764603 3
0.023972 0.243589 0.611713 8224386 3
0.034015 0.243589 0.611713 9343119 3
-0.052042 0.228471 0.687064 5526360 3
-0.035665 0.209779 0.601172 8027259 3
-0.029853 0.242785 0.695756 7435122 3
-0.025795 0.219650 0.601172 9014154 3
-0.017834 0.246002 0.673297 9211022 3
-0.016563 0.238724 0.625279 7566706 3
-0.016563 0.248991 0.625279 8685187 3
-0.053527 0.193126 0.580775 5000270 3
-0.070069 0.195600 0.560537 7698290 3
-0.060728 0.195161 0.559280 7106155 3
-0.051801 0.196126 0.562046 7697781 3
-0.042880 0.197545 0.566110 8816264 3
-0.092819 0.194613 0.532648 7696241 3
-0.084073 0.194613 0.532648 7236201 3
-0.097901 0.196025 0.513437 7829106 3
-0.090496 0.198271 0.519321 7828338 3
-0.361688 0.231713 0.696815 4013375 3
-0.348286 0.230416 0.692913 4473924 3
-0.390184 0.239576 0.686562 4276286 3
-0.367082 0.232097 0.665129 4671303 3
-0.350313 0.228286 0.654207 4079679 3
-0.329369 0.221427 0.634550 4144961 3
-0.314850 0.218581 0.626394 5460817 3
-0.322773 0.231648 0.663841 3816246 3
-0.325761 0.241963 0.693401 4276543 3
-0.387851 0.242348 0.663294 4933444 3
-0.365578 0.235030 0.643266 3815733 3
-0.343718 0.227550 0.622795 3618613 3
-0.328364 0.224051 0.613218 3092784 3
-0.315823 0.222310 0.608452 5066061 3
-0.369253 0.241095 0.631488 3157802 3
-0.347646 0.233545 0.611713 5000007 3
-0.335803 0.232300 0.608452 3947580 3
-0.323300 0.230509 0.603761 4211011 3
-0.303138 0.264861 0.693737 6446436 3
0.101981 0.189033 0.597991 7171698 3
0.106372 0.189196 0.568957 8947339 3
0.119263 0.195000 0.586411 7894651 3
0.101658 0.189740 0.543745 7894649 3
0.110586 0.189740 0.543745 7828858 3
0.120088 0.190652 0.546359 7566197 3
0.131245 0.193882 0.555613 7631988 3
0.186674 0.194605 0.557687 8421504 3
0.189554 0.188368 0.539812 8882057 3
0.196203 0.186266 0.533788 8355970 3
0.101176 0.197726 0.541166 9538704 3
0.109306 0.196369 0.537452 10460578 3
0.119002 0.197817 0.541417 9605780 3
0.128441 0.198668 0.543745 9145227 3
0.180293 0.196797 0.538624 8553090 3
0.187439 0.195030 0.533788 10592675 3
0.188837 0.187708 0.513747 10132381 3
0.194092 0.184682 0.505465 9737875 3
0.187052 0.194288 0.508890 9606291 3
0.071959 0.187555 0.593317 6842474 3
0.081992 0.188223 0.595431 7698040 3
0.091790 0.188268 0.595573 7040110 3
0.061274 0.194306 0.584322 8816264 3
0.071051 0.194806 0.585827 9539987 3
0.080764 0.195034 0.586511 9605778 3
0.089750 0.193645 0.582335 9211279 3
0.096066 0.187316 0.563304 8619142 3
0.059759 0.198857 0.569872 8158334 3
0.067984 0.195600 0.560537 8158334 3
0.076638 0.194210 0.556553 8684676 3
0.085585 0.193777 0.555314 9540498 3
0.093347 0.191002 0.547360 9869209 3
0.084171 0.199542 0.546138 8816262 3
0.092730 0.198668 0.543745 8947848 3
0.489804 0.161416 0.538604 5328724 3
0.497273 0.160971 0.537119 4406850 3
0.470937 0.166711 0.527379 5986912 3
0.481319 0.167310 0.529274 6710634 3
0.493558 0.168522 0.533107 5723480 3
0.470937 0.175370 0.527379 7368565 3
0.481216 0.175963 0.529161 7500150 3
0.491461 0.176522 0.530842 6776168 3
0.455966 0.178179 0.510613 4934224 3
0.463971 0.178034 0.510197 4934223 3
0.473794 0.178579 0.511760 4013373 3
0.454484 0.185956 0.508954 4736845 3
0.461341 0.185354 0.507305 4407879 3
0.403264 0.202291 0.674993 5592405 3
0.417169 0.203669 0.679591 7236717 3
0.436123 0.207376 0.691959 7237232 3
0.467928 0.206371 0.688606 5921631 3
0.468923 0.201931 0.673790 5526873 3
0.488335 0.205443 0.685510 6579561 3
0.410805 0.211550 0.669224 5263442 3
0.211053 0.209516 0.699100 6117468 3
0.273288 0.204549 0.682527 6382180 3
0.204993 0.214650 0.679028 8486784 3
0.219363 0.217848 0.689147 7302764 3
0.259061 0.213269 0.674661 7040110 3
0.254093 0.200601 0.634588 8093568 3
0.200401 0.209354 0.629577 8355452 3
0.209673 0.208296 0.626394 8618881 3
0.216413 0.204939 0.616300 8947848 3
-0.225388 0.233572 0.779369 6578787 3
-0.205365 0.225633 0.752877 7368303 3
-0.293745 0.250093 0.791152 5526614 3
-0.282181 0.251363 0.795169 5986652 3
-0.270326 0.252485 0.798718 5657687 3
-0.255987 0.251283 0.794916 5987165 3
-0.235638 0.243735 0.771039 6447716 3
-0.219451 0.239880 0.758842 7565682 3
-0.201257 0.233233 0.737817 6907752 3
-0.272497 0.244054 0.733926 4802891 3
-0.259682 0.243336 0.731768 5460308 3
-0.243023 0.238774 0.718048 5526101 3
-0.229225 0.236700 0.711811 5789786 3
-0.214867 0.233794 0.703072 5921372 3
-0.208670 0.239941 0.721559 4868171 3
-0.292234 0.263022 0.753751 6185055 3
-0.272497 0.256104 0.733926 6514020 3
-0.254813 0.250563 0.718048 5789786 3
-0.288995 0.272345 0.745395 4737609 3
-0.273586 0.269410 0.705651 5921881 3
-0.399684 0.238307 0.795169 5790045 3
-0.388476 0.239447 0.798972 5066061 3
-0.399556 0.251283 0.794916 3947582 3
-0.386504 0.251283 0.794916 4473922 3
-0.373453 0.251283 0.794916 4803141 3
-0.360401 0.251283 0.794916 4606023 3
-0.347240 0.251204 0.794665 3816253 3
-0.332609 0.250014 0.790901 3750460 3
-0.319725 0.250093 0.791152 4276804 3
-0.308097 0.251204 0.794665 5658200 3
-0.392846 0.236700 0.711811 4737096 3
-0.378798 0.235234 0.707402 4934988 3
-0.341767 0.233738 0.702904 6184794 3
-0.371567 0.263000 0.790901 5329231 3
-0.358695 0.263083 0.791152 4342597 3
-0.347240 0.264251 0.794665 4145218 3
-0.332609 0.263000 0.790901 4803148 3
-0.319623 0.263000 0.790901 5395285 3
-0.305372 0.261914 0.787637 4144961 3
-0.332996 0.256294 0.734471 4210241 3
-0.349011 0.278713 0.798718 4736844 3
-0.324256 0.269055 0.771039 6250337 3
-0.314640 0.271683 0.778570 6579559 3
-0.327142 0.263636 0.721559 5854813 3
-0.332174 0.277749 0.760186 7236466 3
-0.319692 0.277749 0.760186 3618363 3
-0.307211 0.277749 0.760186 3289909 3
-0.319692 0.290231 0.760186 5920861 3
-0.307211 0.290231 0.760186 6645606 3
-0.489138 0.209516 0.699100 1973790 3
-0.477659 0.209516 0.699100 2236449 3
-0.466181 0.209516 0.699100 3552311 3
-0.454702 0.209516 0.699100 3289137 3
-0.499232 0.220383 0.697167 3355445 3
-0.489138 0.220994 0.699100 3618615 3
-0.477659 0.220994 0.699100 5592405 3
-0.471857 0.205016 0.616529 2105637 3
-0.491836 0.218381 0.656723 2039844 3
-0.497392 0.225799 0.679028 2632749 3
-0.493489 0.229163 0.689147 3158066 3
-0.487785 0.231830 0.697167 3881789 3
-0.485910 0.212431 0.608772 3487290 3
-0.478214 0.213458 0.611713 2631468 3
-0.468170 0.213458 0.611713 2303016 3
-0.460607 0.214613 0.615024 3355702 3
-0.481053 0.229164 0.656723 3422265 3
-0.486243 0.236948 0.679028 3618617 3
-0.485150 0.241963 0.693401 3881789 3
-0.431745 0.243952 0.699100 4736837 3
-0.420267 0.243952 0.699100 4407872 3
-0.408788 0.243952 0.699100 5130825 3
-0.465920 0.222427 0.608772 2105635 3
-0.460607 0.224711 0.615024 3421495 3
-0.484009 0.241421 0.660758 2303782 3
-0.496535 0.253348 0.693401 2171430 3
-0.426538 0.252349 0.690668 4144700 3
-0.407999 0.247974 0.678694 4933446 3
-0.459497 0.234243 0.613542 3618874 3
0.450683 0.202559 0.715061 7697270 3
0.463882 0.203198 0.717316 7566197 3
0.474576 0.202735 0.715682 6053215 3
0.481645 0.200783 0.708791 6316387 3
0.495525 0.201696 0.712014 5197906 3
0.456503 0.211555 0.705905 7369075 3
0.468825 0.211886 0.707009 6842733 3
0.281171 0.159642 0.563559 5262929 3
0.248194 0.178450 0.595440 7369075 3
0.242359 0.167650 0.559405 7105646 3
0.252389 0.168214 0.561285 5328981 3
0.262252 0.168629 0.562673 5460308 3
0.271795 0.168819 0.563304 8749958 3
0.281107 0.168857 0.563431 7697270 3
0.298949 0.173853 0.580101 4998987 3
0.258952 0.188942 0.597704 7894651 3
0.268765 0.188942 0.597704 8750218 3
0.277577 0.188262 0.595554 8618631 3
0.271795 0.178067 0.563304 9802646 3
0.281043 0.178067 0.563304 8814981 3
0.296345 0.181780 0.575049 7499375 3
0.206723 0.187018 0.562406 8487556 3
0.208341 0.180423 0.542573 8750728 3
0.220903 0.183457 0.551698 8554119 3
0.238541 0.190302 0.572281 8289920 3
0.255205 0.195880 0.589057 7170928 3
0.258009 0.190801 0.573784 7105393 3
0.261546 0.186603 0.561159 5526873 3
0.269853 0.185978 0.559280 7302512 3
0.279036 0.185978 0.559280 8814981 3
0.289710 0.186941 0.562173 9209739 3
0.205493 0.186743 0.535156 8356224 3
0.215754 0.188028 0.538839 8422531 3
0.213256 0.178530 0.511619 7895162 3
0.217708 0.175350 0.502506 8486788 3
0.256132 0.185238 0.530842 8223616 3
0.265018 0.185357 0.531183 7104363 3
0.204244 0.186372 0.510093 8422531 3
0.224885 0.182728 0.500119 7763322 3
0.236641 0.185507 0.507724 8882317 3
0.247785 0.187633 0.513543 8881546 3
0.208502 0.190976 0.500215 8487299 3
0.004898 0.218524 0.771421 7303282 3
0.004966 0.234367 0.782021 6447973 3
0.018015 0.237119 0.791204 7171950 3
0.005000 0.248936 0.787490 7960955 3
0.044120 0.263838 0.793423 6776427 3
0.056574 0.261192 0.785464 7829369 3
0.018124 0.277764 0.795997 7697783 3
0.030781 0.274088 0.785464 7829369 3
0.043540 0.273226 0.782992 6776427 3
0.005004 0.287906 0.787986 9276813 3
0.557763 0.204233 0.765331 4277058 3
0.509386 0.202559 0.715061 6447973 3
0.551279 0.214279 0.756434 5460821 3
0.599105 0.218126 0.770014 4539208 3
0.546235 0.224624 0.749513 6908267 3
0.597793 0.220938 0.737214 8486533 3
0.550778 0.238901 0.755747 6052704 3
-0.073637 0.213210 0.798972 6316387 3
-0.060098 0.211730 0.793423 6645095 3
-0.007867 0.208497 0.781311 6842731 3
-0.086432 0.225486 0.795997 7303536 3
-0.072893 0.224042 0.790901 6579302 3
-0.059700 0.223268 0.788169 7631990 3
-0.047344 0.226060 0.798024 7302510 3
-0.034326 0.226619 0.799998 7697270 3
-0.021049 0.225109 0.794665 6579302 3
-0.007829 0.220248 0.777508 7303023 3
-0.086717 0.239343 0.798625 5921370 3
-0.071901 0.233801 0.780134 4408133 3
-0.058325 0.230769 0.770014 5394515 3
-0.046490 0.234850 0.783632 6380640 3
-0.033935 0.237028 0.790901 5197138 3
-0.020806 0.235399 0.785464 5789275 3
-0.007857 0.233855 0.780314 7697781 3
-0.085548 0.249052 0.787858 7435122 3
-0.070968 0.243411 0.770014 6316130 3
-0.058145 0.242661 0.767639 4802637 3
-0.045541 0.242661 0.767639 7763063 3
-0.032937 0.242661 0.767639 7302514 3
-0.020685 0.246852 0.780899 5328469 3
-0.007897 0.247902 0.784222 7960701 3
-0.044876 0.251537 0.756430 8158334 3
-0.032937 0.255264 0.767639 3289652 3
-0.020904 0.262427 0.789180 5263188 3
-0.020607 0.271473 0.777970 9013643 3
-0.007731 0.280517 0.767762 8026233 3
-0.173548 0.207199 0.776445 4145990 3
-0.165102 0.212742 0.797218 5855839 3
-0.196848 0.217520 0.767876 4407618 3
-0.185779 0.219336 0.774287 5263953 3
-0.174141 0.220698 0.779097 4935504 3
-0.162464 0.222223 0.784480 5724252 3
-0.150392 0.223424 0.788720 6447462 3
-0.190500 0.222706 0.743111 6184544 3
-0.178250 0.222644 0.742907 7434868 3
-0.172425 0.231190 0.771421 6119778 3
-0.160303 0.231977 0.774046 5855325 3
-0.148303 0.233091 0.777763 6710634 3
-0.185696 0.228983 0.724372 8026748 3
-0.171667 0.226170 0.715473 7896189 3
-0.162333 0.229582 0.726267 7040880 3
-0.152808 0.233246 0.737858 4868430 3
-0.199322 0.242989 0.730724 4736583 3
-0.183309 0.237781 0.715061 5987165 3
-0.171032 0.237038 0.712827 5461848 3
-0.196340 0.251172 0.719793 5526614 3
-0.398823 0.243563 0.912714 4736583 3
-0.389397 0.247091 0.925936 4473413 3
-0.350259 0.251742 0.943364 6709605 3
-0.334770 0.251742 0.943364 6380894 3
-0.330395 0.260505 0.976203 5262413 3
-0.319174 0.264489 0.991129 5656658 3
-0.300297 0.262216 0.982612 6577760 3
-0.435174 0.204338 0.765726 2763054 3
-0.438357 0.201070 0.709807 2434089 3
-0.427908 0.201638 0.711811 2303017 3
-0.413643 0.200389 0.707402 3026740 3
-0.424846 0.211763 0.747553 5789786 3
-0.438573 0.225109 0.794665 5591892 3
-0.423644 0.224113 0.791152 6316130 3
-0.445969 0.210814 0.703430 4210752 3
-0.438357 0.212725 0.709807 3684410 3
-0.427908 0.213325 0.711811 4868430 3
-0.418846 0.214671 0.716301 3750203 3
-0.408245 0.215282 0.718341 5920859 3
-0.418172 0.227078 0.757700 3683897 3
-0.418888 0.234441 0.782269 4474183 3
-0.411957 0.237855 0.793661 5329494 3
-0.469068 0.222363 0.703430 5855577 3
-0.458799 0.222985 0.705398 5065548 3
-0.447217 0.222985 0.705398 5262927 3
-0.438357 0.224379 0.709807 3026478 3
-0.430607 0.226432 0.716301 3552822 3
-0.420039 0.227077 0.718341 4276034 3
-0.408245 0.227077 0.718341 4736583 3
-0.418172 0.239519 0.757700 4276545 3
-0.418888 0.247285 0.782269 5000781 3
-0.411957 0.250886 0.793661 3881535 3
-0.480618 0.233913 0.703430 5329235 3
-0.470381 0.234567 0.705398 5526614 3
-0.458799 0.234567 0.705398 4013373 3
-0.447217 0.234567 0.705398 2960685 3
-0.435635 0.234567 0.705398 3158062 3
-0.426703 0.236033 0.709807 4210750 3
-0.416221 0.236700 0.711811 4933448 3
-0.404533 0.236700 0.711811 4144446 3
-0.480618 0.245462 0.703430 4144961 3
-0.470381 0.246149 0.705398 4013375 3
-0.458799 0.246149 0.705398 4144959 3
-0.444471 0.244638 0.701068 3815994 3
-0.492167 0.257012 0.703430 2895153 3
-0.484975 0.259342 0.709807 3355704 3
-0.474657 0.260074 0.711811 3092532 3
-0.460102 0.258463 0.707402 3224116 3
-0.444471 0.256149 0.701068 3487029 3
-0.476018 0.272541 0.713852 2368809 3
0.508453 0.182967 0.730591 2105376 3
0.548853 0.192952 0.770463 2829099 3
0.503111 0.192914 0.722914 5789786 3
0.518113 0.194087 0.727311 6118751 3
0.580993 0.191201 0.716496 2169890 3
0.233099 0.216969 0.866364 7828854 3
0.237685 0.208514 0.832601 7631475 3
0.247038 0.204932 0.818300 7500404 3
0.263417 0.207248 0.827547 7369845 3
0.272892 0.204171 0.815259 7830909 3
0.282451 0.201442 0.804362 6185571 3
0.294721 0.200804 0.801814 6842733 3
0.201038 0.227115 0.851078 7170926 3
0.208853 0.220609 0.826699 6381923 3
0.219445 0.217652 0.815617 7237230 3
0.232837 0.217652 0.815617 7763061 3
0.246228 0.217652 0.815617 8420993 3
0.258695 0.216877 0.812711 6711145 3
0.268739 0.214246 0.802853 5988192 3
0.232761 0.230969 0.815353 6249824 3
-0.215037 0.224449 0.896230 5000268 3
-0.289523 0.242324 0.855438 5986650 3
-0.274073 0.241089 0.851078 6578273 3
-0.260099 0.241089 0.851078 4999241 3
-0.242525 0.237562 0.838629 4999755 3
-0.223140 0.231730 0.818041 5855318 3
-0.293456 0.247829 0.826942 5526099 3
-0.278951 0.247008 0.824202 5591892 3
-0.265245 0.246847 0.823666 6249824 3
-0.249262 0.244435 0.815617 5262929 3
-0.410054 0.211206 0.843349 2433832 3
-0.449703 0.217443 0.814833 3420723 3
-0.430164 0.214373 0.803328 4210754 3
-0.426752 0.219399 0.822165 5066063 3
-0.420223 0.223100 0.836033 3815742 3
-0.405684 0.222654 0.834362 2697002 3
-0.416995 0.227574 0.803367 6842733 3
-0.405999 0.228811 0.807734 4934736 3
0.611107 0.163149 0.697167 3420984 3
0.624280 0.163602 0.699100 3552573 3
0.673037 0.161529 0.690244 3815481 3
0.690457 0.162966 0.696383 4473411 3
0.602470 0.172128 0.687313 4736844 3
0.618755 0.173531 0.692913 5000019 3
0.630132 0.173531 0.692913 4078663 3
0.633839 0.171456 0.684628 2828850 3
0.606356 0.181203 0.679028 2828850 3
0.608351 0.178516 0.668962 2763057 3
0.591184 0.160843 0.687313 2829101 3
0.563055 0.170446 0.680593 2630439 3
0.569505 0.169043 0.674993 4079168 3
0.580588 0.169043 0.674993 4276545 3
0.548957 0.177073 0.663553 3090992 3
0.563142 0.178113 0.667452 2368037 3
0.579037 0.179645 0.673190 2368548 3
0.591670 0.180126 0.674993 3223605 3
0.586613 0.189574 0.669224 4605001 3
0.591134 0.187523 0.661982 2565163 3
0.611896 0.201012 0.858962 5526101 3
0.631860 0.202894 0.867004 5329235 3
0.643205 0.201986 0.863125 4934223 3
0.617323 0.212134 0.847056 2894892 3
0.637694 0.214306 0.855729 5921883 3
0.651304 0.214161 0.855151 5263442 3
0.655943 0.211135 0.843068 4802891 3
0.665302 0.209722 0.837425 3025967 3
0.671728 0.207460 0.828393 3748922 3
0.636611 0.227968 0.854276 3158066 3
0.651304 0.228202 0.855151 3026480 3
0.655943 0.224977 0.843068 3354934 3
0.665081 0.223397 0.837146 2104612 3
0.618950 0.235281 0.830576 5658200 3
0.645699 0.240158 0.847792 6776170 3
0.618950 0.248918 0.830576 6644584 3
0.649434 0.255548 0.852696 6512998 3
0.628043 0.241915 0.807208 7170159 3
0.641297 0.241915 0.807208 6776430 3
0.644740 0.273496 0.865185 5526614 3
0.658946 0.273496 0.865185 6578789 3
0.658946 0.287701 0.865185 5789273 3
0.410339 0.160732 0.686835 3355704 3
0.429118 0.163591 0.699056 2960174 3
0.419102 0.170983 0.682739 3420725 3
0.400142 0.178731 0.669767 8355970 3
0.423701 0.184192 0.690231 6644582 3
0.405343 0.192194 0.678473 8158334 3
0.427404 0.197234 0.696265 7170926 3
0.394291 0.163429 0.698360 3553083 3
0.399062 0.160732 0.686835 4474185 3
0.350875 0.170513 0.680863 7039087 3
0.357799 0.168509 0.672861 8157568 3
0.367936 0.168093 0.671199 4276034 3
0.379362 0.168273 0.671917 3618615 3
0.388829 0.167598 0.669224 5263442 3
0.399925 0.167643 0.669404 3882048 3
0.330451 0.182761 0.684870 6184542 3
0.327266 0.175044 0.655949 7171439 3
0.336255 0.174122 0.652493 7434100 3
0.376841 0.178113 0.667452 7763574 3
0.388829 0.178586 0.669224 7566197 3
0.394414 0.192297 0.678836 8026746 3
0.366347 0.194461 0.648865 6381919 3
0.005656 0.208446 0.890728 8882314 3
0.005658 0.223153 0.891057 7105903 3
0.005167 0.217150 0.813736 7829626 3
0.019855 0.232702 0.872016 6711399 3
0.034563 0.235361 0.881979 6646374 3
0.048196 0.231289 0.866721 7370097 3
0.064203 0.237872 0.891390 6711915 3
0.018256 0.227131 0.801805 6711399 3
0.031962 0.231044 0.815617 6053467 3
0.046726 0.238032 0.840287 7566454 3
0.061699 0.242659 0.856620 6711915 3
0.078148 0.250297 0.883585 7566708 3
0.094041 0.254039 0.896795 5723991 3
0.031962 0.244435 0.815617 6908265 3
0.045354 0.244435 0.815617 7236978 3
0.060048 0.249856 0.833705 6053217 3
0.074464 0.252320 0.841927 6250594 3
0.018571 0.257827 0.815617 8026748 3
0.031736 0.256000 0.809836 6579302 3
0.044886 0.255169 0.807208 7171185 3
0.058556 0.256996 0.812989 7500404 3
0.005126 0.268422 0.807208 5789784 3
0.018379 0.268422 0.807208 6776681 3
0.031411 0.266539 0.801546 6974060 3
0.005126 0.281676 0.807208 8026746 3
-0.037344 0.203676 0.870345 8158332 3
-0.023173 0.204731 0.874852 8553090 3
-0.008818 0.204949 0.875784 9145227 3
-0.090900 0.209652 0.837146 6382434 3
-0.076770 0.208606 0.832970 6382180 3
-0.063136 0.208747 0.833530 7434611 3
-0.050168 0.211778 0.845634 6052956 3
-0.037151 0.216838 0.865838 6710884 3
-0.023173 0.219095 0.874852 7829365 3
-0.008818 0.219328 0.875784 7632247 3
-0.088449 0.217374 0.814577 7171950 3
-0.047757 0.214816 0.804988 6118236 3
-0.034691 0.215757 0.808515 8224123 3
-0.021306 0.214649 0.804362 6447712 3
-0.008102 0.267567 0.804634 6118240 3
-0.008102 0.280778 0.804634 8552579 3
-0.127219 0.210517 0.899577 5922146 3
-0.107898 0.201996 0.863168 5461848 3
-0.198877 0.222830 0.889764 4672334 3
-0.180091 0.217779 0.869597 4803665 3
-0.158751 0.208503 0.832557 3816256 3
-0.142920 0.205397 0.820157 4210760 3
-0.130092 0.206410 0.824202 5001046 3
-0.117452 0.207990 0.830509 5132885 3
-0.104680 0.209722 0.837425 4672330 3
-0.195998 0.217988 0.816876 4342338 3
-0.154017 0.215548 0.807734 4737358 3
-0.142129 0.217652 0.815617 7040113 3
-0.128737 0.217652 0.815617 5461595 3
-0.115346 0.217652 0.815617 6514538 3
-0.101954 0.217652 0.815617 6777192 3
-0.142129 0.231044 0.815617 6776941 3
-0.128737 0.231044 0.815617 5197909 3
-0.115346 0.231044 0.815617 7238259 3
-0.101231 0.229406 0.809836 7171950 3
-0.142129 0.244435 0.815617 6315876 3
-0.128737 0.244435 0.815617 6184803 3
-0.115346 0.244435 0.815617 5592664 3
-0.101954 0.244435 0.815617 6052956 3
-0.398724 0.251311 1.073895 3420725 3
-0.311458 0.252035 1.076992 4012346 3
-0.372712 0.251397 1.003836 3683127 3
-0.366026 0.258311 1.031441 4933448 3
-0.363459 0.268943 1.073895 6249308 3
-0.353596 0.274984 1.098019 4011833 3
-0.324672 0.266056 1.062370 5196107 3
-0.341518 0.206138 0.880866 2828847 3
-0.335361 0.216624 0.864986 4538436 3
-0.385726 0.219099 0.821040 5920857 3
-0.386735 0.227628 0.852999 4868680 3
-0.336625 0.222283 0.832970 4341059 3
-0.325623 0.224124 0.839870 6380640 3
-0.396570 0.231044 0.815617 4802891 3
-0.383178 0.231044 0.815617 5526610 3
-0.370153 0.231273 0.816426 5460817 3
-0.362172 0.234789 0.828839 5197647 3
-0.350301 0.235959 0.832970 4078655 3
-0.336625 0.235959 0.832970 5723482 3
-0.324135 0.236827 0.836033 5657687 3
-0.315598 0.240786 0.850009 5920859 3
-0.303671 0.242406 0.855729 4078653 3
-0.376681 0.240291 0.801788 4276796 3
-0.364215 0.240752 0.803328 5658707 3
-0.352721 0.241915 0.807208 5460819 3
-0.340676 0.242777 0.810084 5658200 3
-0.328118 0.243328 0.811922 5328724 3
-0.317876 0.245715 0.819887 6249824 3
-0.307753 0.248411 0.828882 4999757 3
-0.470860 0.252171 1.077574 2039072 3
-0.439044 0.244312 1.043989 3486002 3
-0.417508 0.241767 1.033115 2762025 3
-0.455122 0.251397 1.003836 3223344 3
-0.438640 0.251397 1.003836 4078653 3
-0.422158 0.251397 1.003836 6380640 3
0.755279 0.150777 0.692913 1841695 1
0.753322 0.148155 0.680863 1315098 1
0.778033 0.150777 0.692913 1710115 1
0.780203 0.162606 0.694847 1446943 1
0.789410 0.162154 0.692913 2762803 1
0.307697 0.210343 0.966657 5396055 3
0.323569 0.210343 0.966657 5329492 3
0.339441 0.210343 0.966657 6974317 3
0.342622 0.202831 0.932133 6249826 3
0.317245 0.221794 0.947764 7435636 3
0.329812 0.219798 0.939238 6711399 3
0.334583 0.213018 0.910262 6579048 3
0.212468 0.210343 0.966657 6907752 3
0.225555 0.207778 0.954868 6907756 3
0.238327 0.205275 0.943364 5855326 3
0.256911 0.207778 0.954868 5197138 3
0.272589 0.207778 0.954868 5263442 3
0.291826 0.210343 0.966657 4408390 3
0.210687 0.224318 0.958552 8420475 3
0.223687 0.221605 0.946959 7367535 3
0.236376 0.218957 0.935643 5789532 3
0.250794 0.218136 0.932133 7763065 3
0.266099 0.218136 0.932133 7631990 3
0.281404 0.218136 0.932133 6975087 3
0.296708 0.218136 0.932133 6844014 3
0.206442 0.235220 0.939238 6907752 3
0.220185 0.233440 0.932133 7762293 3
0.229907 0.227906 0.910035 8289920 3
0.103280 0.214312 0.984896 5657687 3
0.119451 0.214312 0.984896 5921370 3
0.132294 0.209053 0.960726 5723991 3
0.145392 0.205275 0.943364 7434357 3
0.160881 0.205275 0.943364 7105392 3
0.182984 0.212973 0.978740 6118751 3
0.196597 0.210343 0.966657 5065548 3
0.150200 0.228064 0.974561 5855325 3
0.165174 0.226654 0.968533 6513255 3
0.180725 0.226215 0.966657 6316128 3
0.196597 0.226215 0.966657 7171178 3
0.103528 0.247246 0.987258 4144957 3
0.119687 0.247142 0.986844 5921883 3
0.135569 0.246558 0.984511 5789532 3
0.150029 0.243787 0.973449 5986912 3
0.162843 0.239134 0.954868 7039599 3
0.178521 0.239134 0.954868 5856090 3
0.194199 0.239134 0.954868 6974056 3
0.111722 0.245819 0.921167 7632501 3
0.127037 0.246189 0.922554 7632249 3
0.145998 0.252791 0.947295 7565944 3
0.156101 0.244262 0.915332 6513255 3
0.168903 0.241083 0.903421 6447714 3
0.193502 0.253897 0.951439 6184544 3
0.109314 0.255320 0.901314 6447973 3
0.126846 0.260943 0.921167 6316389 3
0.005849 0.200445 0.921167 7368818 3
0.051526 0.201631 0.926618 5263442 3
0.020610 0.211831 0.905193 7106157 3
0.035472 0.211831 0.905193 6382432 3
0.050731 0.213500 0.912324 5987676 3
0.071494 0.232291 0.992622 6053469 3
0.020730 0.228012 0.910456 8027259 3
0.035967 0.229856 0.917820 7370095 3
0.051571 0.232259 0.927417 6843753 3
0.069679 0.242276 0.967412 6382948 3
0.086564 0.245112 0.978740 5000779 3
0.082330 0.248405 0.930860 7566708 3
0.097139 0.247199 0.926338 7566193 3
-0.221534 0.215668 0.991129 4145220 3
-0.202695 0.212973 0.978740 4342600 3
-0.234723 0.228934 0.978275 5526612 3
-0.210759 0.220660 0.942922 4474955 3
-0.271365 0.249144 0.994838 5328972 3
-0.244142 0.238506 0.952362 6315099 3
-0.278298 0.256803 0.962328 5986134 3
-0.258305 0.252701 0.946959 5131595 3
-0.234191 0.243785 0.913545 5394767 3
0.644740 0.174058 0.865185 3090993 1
0.602124 0.188263 0.865185 5986654 3
0.612943 0.187229 0.860431 4999759 3
0.623644 0.186206 0.855729 3157553 3
0.634228 0.185194 0.851078 2828590 3
0.650873 0.199988 0.854585 3420984 3
0.649170 0.195256 0.834362 4737098 3
0.420568 0.159113 0.790901 1710616 1
0.433554 0.159113 0.790901 2105124 1
0.451096 0.160737 0.798972 4079176 1
0.401886 0.154889 0.711811 5197909 3
0.446010 0.167037 0.767639 5461081 3
0.458614 0.167037 0.767639 3750462 3
0.480970 0.178582 0.763115 4736069 3
0.456943 0.181565 0.724993 2301474 3
0.470346 0.182145 0.727311 3157037 3
0.482571 0.182252 0.727738 3355443 3
0.488134 0.179899 0.718341 2631720 3
0.456943 0.193468 0.724993 6249054 3
0.468846 0.193468 0.724993 5657685 3
0.477582 0.192193 0.720215 5987165 3
0.486044 0.190873 0.715266 6645095 3
0.357444 0.159921 0.794916 4804177 3
0.366772 0.158314 0.786927 4343369 3
0.366791 0.152934 0.760186 5328984 3
0.346150 0.173855 0.798972 3290679 3
0.350331 0.169530 0.779097 2895921 3
0.356038 0.166222 0.763895 3027509 3
0.359804 0.162265 0.745707 4276294 3
0.366808 0.159979 0.735204 3946816 3
0.373617 0.157757 0.724993 4539719 3
0.383744 0.157030 0.721652 5460819 3
0.393778 0.156310 0.718341 4736844 3
0.306795 0.186973 0.798972 6578536 3
0.317592 0.185617 0.793175 5920861 3
0.328011 0.184155 0.786927 6316387 3
0.340825 0.184097 0.786681 5856606 3
0.347336 0.180764 0.772437 5659225 3
0.353903 0.177693 0.759315 4540748 3
0.358422 0.173838 0.742841 3881535 3
0.364462 0.170950 0.730502 2565418 3
0.369490 0.167787 0.716984 3420984 3
0.378511 0.166576 0.711811 2500136 3
0.388875 0.166012 0.709397 3552824 3
0.310893 0.194450 0.776445 7368307 3
0.323139 0.194148 0.775240 7500150 3
0.333503 0.192781 0.769780 5987422 3
0.337873 0.188176 0.751391 5132367 3
0.347356 0.186642 0.745267 7237743 3
0.354120 0.183802 0.733926 7368816 3
0.361394 0.181404 0.724352 7237232 3
0.319873 0.197025 0.738320 7237232 3
0.319945 0.189874 0.711522 7040110 3
0.337223 0.193078 0.723528 7303023 3
0.074696 0.208639 1.037076 5592154 3
0.089357 0.203254 1.010312 5394517 3
0.073720 0.222716 1.023519 5526360 3
0.089357 0.219843 1.010312 5657687 3
0.089357 0.236431 1.010312 5921370 3
-0.053393 0.181060 0.899991 1973026 1
-0.053393 0.195837 0.899991 6973806 3
-0.091699 0.197629 0.844505 5067342 3
-0.077181 0.195972 0.837425 5329746 3
-0.063687 0.196763 0.840804 5461080 3
-0.050441 0.198968 0.850225 6052958 3
-0.253875 0.212868 1.058097 3815994 3
-0.230278 0.207266 1.030253 4473926 3
-0.207892 0.201951 1.003836 3815483 3
-0.288621 0.230241 1.058097 3947067 3
-0.267631 0.227171 1.043989 4078139 3
-0.247194 0.224182 1.030253 4342338 3
-0.283399 0.243134 1.038954 4736837 3
-0.259454 0.236847 1.012091 4801862 3
-0.299183 0.259088 1.034545 5130825 3
0.765162 0.135837 0.735204 1907746 1
0.780899 0.136478 0.738672 1315351 1
0.700434 0.144516 0.718341 2170405 1
0.712229 0.144516 0.718341 2697262 1
0.724023 0.144516 0.718341 1512988 1
0.742631 0.145854 0.724993 2105125 1
0.758044 0.146532 0.728365 855058 1
0.773601 0.147217 0.731768 1710109 1
0.702560 0.154188 0.708590 2368037 3
0.714195 0.154188 0.708590 3552311 3
0.762906 0.157030 0.721652 2302246 1
0.793027 0.160734 0.738672 3552311 1
0.710182 0.164891 0.704609 5394513 3
0.528572 0.163465 0.884737 1514015 1
0.534047 0.160740 0.869991 1776160 1
0.551395 0.161638 0.874852 2433832 1
0.572151 0.163465 0.884737 1513241 1
0.586678 0.163465 0.884737 1710107 1
0.505939 0.165813 0.824202 2960433 1
0.524998 0.167577 0.832970 2368037 1
0.559507 0.174058 0.865185 2631720 1
0.576900 0.175025 0.869991 3552824 1
0.594487 0.176002 0.874852 4473415 1
0.524998 0.181253 0.832970 5920859 3
0.538675 0.181253 0.832970 5131341 3
0.552351 0.181253 0.832970 5197649 3
0.594487 0.190367 0.874852 4868684 3
0.527112 0.190746 0.815091 4671044 3
0.538072 0.189890 0.811436 4144959 3
0.343610 0.165333 0.894848 3288371 1
0.346425 0.159852 0.865185 2696232 1
0.356689 0.158105 0.855729 1907745 1
0.364760 0.155555 0.841927 1711394 1
0.368673 0.151483 0.819887 1711907 1
0.334065 0.175025 0.869991 3485750 3
0.338935 0.170294 0.846478 4341057 3
0.350936 0.169379 0.841927 4605258 3
0.362809 0.168473 0.837425 5132885 3
0.318157 0.180294 0.828563 5460310 3
0.328288 0.178406 0.819887 8091260 3
0.336465 0.175647 0.807208 4144961 3
-0.384063 0.209661 1.134771 3026227 3
-0.370805 0.212744 1.151459 3157813 3
-0.309535 0.209661 1.134771 2828335 3
-0.384063 0.228293 1.134771 3157555 3
-0.370805 0.231650 1.151459 3881535 3
-0.351899 0.231650 1.151459 3223605 3
-0.328167 0.228293 1.134771 3618106 3
-0.305114 0.225032 1.118560 4276036 3
-0.389711 0.250556 1.151459 2960174 3
-0.370805 0.250556 1.151459 3486520 3
-0.346799 0.246925 1.134771 3091760 3
-0.323479 0.243397 1.118560 3815483 3
-0.397451 0.262099 1.119995 3881276 3
-0.384063 0.265557 1.134771 3486002 3
-0.365431 0.265557 1.134771 4538179 3
-0.343393 0.262948 1.123626 4604229 3
-0.472279 0.215920 1.168645 3157813 3
-0.453091 0.215920 1.168645 2566186 3
-0.421326 0.209661 1.134771 3026739 3
-0.402695 0.209661 1.134771 2302503 3
-0.491467 0.235108 1.168645 2828335 3
-0.458590 0.228293 1.134771 3749949 3
-0.439958 0.228293 1.134771 3816253 3
-0.415307 0.225032 1.118560 3289398 3
-0.402695 0.228293 1.134771 3157812 3
-0.477222 0.246925 1.134771 4933194 3
-0.452039 0.243397 1.118560 3420725 3
-0.433673 0.243397 1.118560 3420984 3
-0.415307 0.243397 1.118560 2500136 3
-0.408617 0.250556 1.151459 3157553 3
-1.290370 0.432165 2.567187 853777 1
-1.228087 0.425194 2.525781 1511961 1
-1.206069 0.432165 2.567187 1775898 1
-1.290370 0.474315 2.567187 1973028 3
-1.248219 0.474315 2.567187 2302246 3
-1.206069 0.474315 2.567187 2368546 3
0.327614 0.148693 0.978740 2959921 1
0.343684 0.148693 0.978740 3091762 1
0.359754 0.148693 0.978740 3354934 1
0.311544 0.164763 0.978740 1315096 1
0.327614 0.164763 0.978740 1710369 1
0.343684 0.164763 0.978740 2762542 1
0.359754 0.164763 0.978740 2564648 1
0.375823 0.164763 0.978740 2499625 1
0.396854 0.166848 0.991129 2368039 1
0.311544 0.180833 0.978740 3552570 1
0.327614 0.180833 0.978740 4078915 1
0.343684 0.180833 0.978740 2697262 1
0.336612 0.169200 0.915780 2696749 1
0.311544 0.196903 0.978740 4211013 3
0.327614 0.196903 0.978740 6119010 3
0.343684 0.196903 0.978740 2434089 3
0.334654 0.183165 0.910456 3947071 3
0.269305 0.143318 0.943364 2631471 1
0.295474 0.148693 0.978740 2565167 1
0.200115 0.153268 0.910456 2895154 1
0.215064 0.153268 0.910456 2039591 1
0.232719 0.155071 0.921167 2104867 1
0.253816 0.158807 0.943364 1183765 1
0.275954 0.162729 0.966657 1907233 1
0.295474 0.164763 0.978740 2236200 1
0.207348 0.174297 0.943364 2105125 1
0.222838 0.174297 0.943364 2171945 1
0.238327 0.174297 0.943364 2236711 1
0.256911 0.176422 0.954868 3684156 1
0.279404 0.180833 0.978740 2697261 1
0.295474 0.180833 0.978740 1644574 1
0.212468 0.194472 0.966657 3618363 3
0.225555 0.192100 0.954868 3947841 3
0.241233 0.192100 0.954868 4210501 3
0.260083 0.194472 0.966657 4210500 3
0.275954 0.194472 0.966657 3815742 3
0.295474 0.196903 0.978740 2697774 3
0.064029 0.174933 1.151459 3158325 1
0.082935 0.174933 1.151459 2828847 1
0.062200 0.188300 1.118560 2763567 1
0.081145 0.189655 1.126607 2960433 1
0.099643 0.189655 1.126607 3025969 1
-0.141060 0.151534 0.997442 2499882 1
-0.123893 0.150575 0.991129 2237224 1
-0.157437 0.167911 0.997442 3026740 1
-0.141060 0.167911 0.997442 3224118 1
-0.124683 0.167911 0.997442 2894900 1
-0.104963 0.162729 0.966657 2763314 1
-0.157437 0.184288 0.997442 3224119 1
-0.141060 0.184288 0.997442 2697775 1
-0.123893 0.183122 0.991129 2697521 1
-0.103683 0.176422 0.954868 3092020 1
-0.137555 0.195680 0.972661 4605772 1
-0.120093 0.193279 0.960726 2960947 1
-0.100023 0.185320 0.921167 3289912 1
0.210437 0.112871 0.832970 1974052 1
0.224114 0.112871 0.832970 2631982 1
0.240347 0.114084 0.841927 986646 1
0.212700 0.127908 0.841927 3026227 1
0.226524 0.127908 0.841927 2631468 1
-0.207892 0.136023 1.003836 2170918 1
-0.236502 0.160749 1.058097 2697262 1
-0.213363 0.156519 1.030253 2565676 1
-0.233349 0.175747 1.043989 1776159 1
-0.213363 0.173434 1.030253 2499882 1
-0.257353 0.198173 1.072592 3289650 1
-0.233349 0.192888 1.043989 2302757 1
-0.213363 0.190350 1.030253 3223346 1
-0.299587 0.158356 1.168645 2630960 1
-0.276276 0.156027 1.151459 1446943 1
-0.253640 0.153766 1.134771 1512990 1
-0.299587 0.177544 1.168645 1907235 1
-0.272272 0.172397 1.134771 1710369 1
-0.290904 0.191029 1.134771 2697261 1
-0.264602 0.185648 1.102806 2170917 1
-0.186625 0.212973 0.978740 3947842 3
-0.172714 0.215668 0.991129 3947842 3
-0.138415 0.212973 0.978740 4014149 3
-0.119361 0.207778 0.954868 3488060 3
-0.193042 0.218136 0.932133 5132632 3
-0.177738 0.218136 0.932133 4737358 3
-0.162314 0.217975 0.931448 5855839 3
-0.145397 0.215569 0.921167 6382697 3
0.135590 0.104767 0.879766 3223606 1
0.148368 0.103603 0.869991 1644316 1
0.160865 0.102464 0.860431 1973026 1
0.173091 0.101350 0.851078 2630958 1
0.187064 0.101350 0.851078 2236459 1
0.198877 0.100261 0.841927 2434351 1
0.153484 0.121952 0.899991 2104867 1
0.162653 0.117887 0.869991 2104867 1
0.174993 0.116592 0.860431 3157300 1
0.187064 0.115324 0.851078 2236713 1
0.198877 0.114084 0.841927 1447456 1
0.183038 0.136729 0.899991 2697261 1
0.189120 0.130719 0.860431 2368556 1
0.198877 0.127908 0.841927 1447454 1
0.111722 0.109697 0.921167 2829101 1
0.126846 0.109697 0.921167 2697264 1
0.101367 0.130986 0.966657 1973281 1
0.114414 0.127829 0.943364 1776159 1
0.129903 0.127829 0.943364 2631471 1
0.141971 0.124822 0.921167 2828848 1
0.102634 0.148693 0.978740 2104867 1
0.117239 0.146857 0.966657 2105124 1
0.129903 0.143318 0.943364 2434603 1
0.145392 0.143318 0.943364 2960947 1
0.157096 0.139946 0.921167 3157812 1
0.172220 0.139946 0.921167 2039585 1
0.102634 0.164763 0.978740 2762797 1
0.118704 0.164763 0.978740 1776159 1
0.133110 0.162729 0.966657 2829358 1
0.148982 0.162729 0.966657 2566188 1
0.162843 0.160744 0.954868 2302503 1
0.174271 0.156917 0.932133 2302757 1
0.187345 0.155071 0.921167 2434089 1
0.102634 0.180833 0.978740 3288369 1
0.153727 0.184288 0.997442 2763308 1
0.166914 0.180833 0.978740 3092019 1
0.180725 0.178600 0.966657 3552570 1
0.194199 0.176422 0.954868 2894383 1
0.102634 0.196903 0.978740 6578019 3
0.118704 0.196903 0.978740 5131341 3
0.133110 0.194472 0.966657 5000268 3
0.146273 0.190936 0.949081 5592407 3
0.166914 0.196903 0.978740 4539465 3
0.182984 0.196903 0.978740 4671305 3
0.196597 0.194472 0.966657 3420725 3
0.039849 0.121094 1.016873 2171171 1
0.058837 0.143376 1.058097 1776672 1
0.089937 0.154486 1.016873 3025969 1
0.076210 0.195495 1.058097 2630956 1
0.092955 0.194183 1.050996 2959406 1
0.007649 0.143450 1.204603 2368045 1
0.027427 0.143450 1.204603 1644574 1
0.047206 0.163228 1.204603 1644573 1
0.008019 0.191862 1.262890 3289139 1
0.028754 0.191862 1.262890 2894640 1
0.047943 0.185866 1.223425 2236710 1
-0.010044 0.167911 0.997442 2763047 1
-0.089645 0.179710 0.972661 2170917 1
-0.069366 0.169200 0.915780 2367784 1
-0.054973 0.171203 0.926618 1907233 1
-0.039759 0.171203 0.926618 2170660 1
-0.024257 0.169200 0.915780 1710107 1
-0.009275 0.170195 0.921167 1907484 1
-0.085401 0.186417 0.926618 2039331 1
-0.068564 0.182106 0.905193 2302504 1
-0.038839 0.182106 0.905193 2828590 3
-0.024116 0.183165 0.910456 2499623 3
-0.009275 0.185320 0.921167 3223344 3
-0.098860 0.198114 0.910456 3487288 3
-0.068963 0.198114 0.910456 4736845 3
-0.038839 0.196969 0.905193 8158334 3
-0.023977 0.196969 0.905193 8618885 3
-0.009221 0.199273 0.915780 8158332 3
-0.191410 0.136023 1.003836 1578781 1
-0.174928 0.136023 1.003836 1512987 1
-0.162615 0.139603 1.030253 2828590 1
-0.191410 0.152505 1.003836 2236711 1
-0.174928 0.152505 1.003836 1973539 1
-0.158446 0.152505 1.003836 2763054 1
-0.191410 0.168987 1.003836 2763055 1
-0.174928 0.168987 1.003836 2828848 1
-0.191410 0.185469 1.003836 2499883 1
-0.174928 0.185469 1.003836 2763055 1
0.006293 0.101755 0.991129 1776160 1
0.022285 0.100483 0.978740 2236198 1
0.055114 0.118028 0.991129 2237223 1
0.069624 0.115114 0.966657 2434089 1
0.083436 0.112340 0.943364 2631211 1
0.096597 0.109697 0.921167 2433830 1
0.071387 0.134302 0.991129 2236710 1
0.086564 0.132623 0.978740 1907488 1
0.005990 0.174297 0.943364 2104863 1
0.022010 0.178600 0.966657 2368548 1
0.037881 0.178600 0.966657 3026480 1
0.053097 0.176422 0.954868 2960434 1
0.005954 0.188649 0.937715 3289652 3
0.020851 0.184236 0.915780 5658198 3
0.036968 0.189786 0.943364 4408133 3
0.052457 0.189786 0.943364 4605259 3
0.020851 0.199273 0.915780 7631988 3
0.035679 0.198114 0.910456 7303023 3
-0.066360 0.114838 1.118560 1446937 1
-0.048690 0.116502 1.134771 2367016 1
-0.029629 0.114838 1.118560 1973030 1
-0.011104 0.113220 1.102806 2302763 1
-0.066360 0.133203 1.118560 2565163 1
-0.049406 0.137121 1.151459 1116951 1
-0.030500 0.137121 1.151459 2301227 1
-0.011946 0.141276 1.186352 1381663 1
-0.085954 0.097870 1.134771 2236200 1
-0.066360 0.096472 1.118560 1775900 1
-0.049406 0.099309 1.151459 2104867 1
-0.030500 0.099309 1.151459 1315351 1
-0.011594 0.099309 1.151459 1907745 1
0.021741 0.066676 0.954868 1511707 1
0.036968 0.065873 0.943364 2564649 1
0.006293 0.085482 0.991129 1578268 1
0.021479 0.081362 0.943364 2236198 1
0.036528 0.080393 0.932133 1907233 1
0.051223 0.079448 0.921167 1907745 1
0.066348 0.079448 0.921167 1841953 1
0.081472 0.079448 0.921167 2170660 1
0.096597 0.079448 0.921167 2565416 1
0.036968 0.096851 0.943364 2170660 1
0.051833 0.095698 0.932133 2105637 1
0.066348 0.094572 0.921167 2105124 1
0.081472 0.094572 0.921167 2697002 1
0.096597 0.094572 0.921167 1973277 1
-0.484622 0.203496 0.583165 3289658 3
-0.478674 0.205050 0.587618 3619393 3
-0.453469 0.207577 0.568127 2303786 3
-0.464365 0.217029 0.593998 1973538 3
-0.467603 0.202806 0.531200 2434603 3
-0.453956 0.200629 0.525498 2039845 3
-0.445327 0.200629 0.525498 2368556 3
-0.442868 0.203464 0.532922 1316638 3
-0.438938 0.205723 0.538839 1908773 3
-0.441597 0.211226 0.553253 2304043 3
-0.446065 0.217845 0.570589 2566186 3
-0.457069 0.228007 0.597208 2039842 3
-0.436699 0.209257 0.525498 2895668 3
-0.434118 0.212214 0.532922 3751232 3
-0.434236 0.216637 0.544031 3356474 3
-0.434358 0.221250 0.555613 3750462 3
-0.432306 0.224929 0.564853 4671562 3
-0.433650 0.230574 0.579030 3487288 3
-0.428071 0.217886 0.525498 3619644 3
-0.423366 0.219924 0.530413 3027507 3
-0.422368 0.224013 0.540277 4474955 3
-0.414178 0.224382 0.541166 4014402 3
-0.400633 0.221802 0.534944 2698540 3
0.303696 0.003283 0.790901 723474 1
0.316682 0.003283 0.790901 1445916 1
0.329667 0.003283 0.790901 1643295 1
0.342653 0.003283 0.790901 1314330 1
0.359268 0.003317 0.798972 1182996 1
0.372386 0.003317 0.798972 1117717 1
0.300659 0.016107 0.782992 2302765 1
0.313515 0.016107 0.782992 985363 1
0.326371 0.016107 0.782992 1840674 1
0.339227 0.016107 0.782992 1380123 1
0.352083 0.016107 0.782992 1578270 1
0.372386 0.016435 0.798972 657681 1
0.300659 0.028963 0.782992 789526 1
0.313515 0.028963 0.782992 2103846 1
0.326371 0.028963 0.782992 1576989 1
0.339227 0.028963 0.782992 853781 1
0.352083 0.028963 0.782992 1183514 1
0.300659 0.041819 0.782992 854806 1
0.313515 0.041819 0.782992 1445914 1
0.307897 0.039451 0.738672 1380891 1
0.335868 0.041404 0.775240 723220 1
0.311217 0.050160 0.718341 1579042 1
0.311217 0.061955 0.718341 2039593 1
0.254321 0.003317 0.798972 1511709 1
0.264738 0.003283 0.790901 1511198 1
0.274947 0.003251 0.782992 2038051 1
0.287803 0.003251 0.782992 1841440 1
0.254321 0.016435 0.798972 1972258 1
0.264738 0.016269 0.790901 1511709 1
0.274947 0.016107 0.782992 1907235 1
0.287803 0.016107 0.782992 1052437 1
0.264738 0.029255 0.790901 2301223 1
0.277724 0.029255 0.790901 1841440 1
0.287803 0.028963 0.782992 1118230 1
0.277724 0.042241 0.790901 394507 1
0.287803 0.041819 0.782992 1974052 1
0.266939 0.053082 0.760186 1381402 1
0.279420 0.053082 0.760186 2368297 1
0.283640 0.051580 0.738672 2104616 1
0.295769 0.051580 0.738672 2498602 1
0.299423 0.050160 0.718341 1381404 1
0.283640 0.063708 0.738672 1183512 1
0.295769 0.063708 0.738672 2236198 1
0.299423 0.061955 0.718341 986646 1
0.205506 0.003612 0.869991 2103844 1
0.219790 0.003612 0.869991 1116951 1
0.226524 0.003495 0.841927 1644324 1
0.237790 0.003458 0.832970 723222 1
0.246228 0.003386 0.815617 1052185 1
0.203247 0.017700 0.860431 1248535 1
0.217375 0.017700 0.860431 1709086 1
0.226524 0.017319 0.841927 1446943 1
0.237790 0.017135 0.832970 1315357 1
0.246228 0.016778 0.815617 854547 1
0.203247 0.031827 0.860431 1051926 1
0.215012 0.031481 0.851078 1249816 1
0.226524 0.031143 0.841927 1052696 1
0.237790 0.030811 0.832970 1776162 1
0.251467 0.030811 0.832970 985617 1
0.256943 0.029858 0.807208 2169891 1
0.201038 0.045455 0.851078 1513501 1
0.215012 0.045455 0.851078 1316121 1
0.224114 0.044488 0.832970 2039591 1
0.235287 0.044019 0.824202 1052439 1
0.248820 0.044019 0.824202 920338 1
0.201038 0.059429 0.851078 1645087 1
0.208222 0.057552 0.824202 1974052 1
0.221755 0.057552 0.824202 1842212 1
0.232837 0.056953 0.815617 1381404 1
0.246228 0.056953 0.815617 1315098 1
0.206053 0.070344 0.815617 1513247 1
0.219445 0.070344 0.815617 1908007 1
0.232837 0.070344 0.815617 986392 1
0.246228 0.070344 0.815617 1249305 1
0.206053 0.083736 0.815617 1052698 1
0.210437 0.099194 0.832970 2434349 1
0.219445 0.097127 0.815617 1973798 1
0.232837 0.097127 0.815617 2697264 1
0.112312 0.003386 0.815617 2300710 1
0.125704 0.003386 0.815617 1182744 1
0.139095 0.003386 0.815617 1841444 1
0.155731 0.003458 0.832970 1577502 1
0.174993 0.003572 0.860431 1050643 1
0.191221 0.003612 0.869991 1379862 1
0.102111 0.017319 0.841927 1248539 1
0.112312 0.016778 0.815617 1444633 1
0.125704 0.016778 0.815617 1511709 1
0.139095 0.016778 0.815617 1380893 1
0.152487 0.016778 0.815617 1511707 1
0.169408 0.017135 0.832970 1511448 1
0.189120 0.017700 0.860431 1511448 1
0.107913 0.032912 0.889764 1972007 1
0.113494 0.030487 0.824202 1972260 1
0.125704 0.030169 0.815617 1578272 1
0.139095 0.030169 0.815617 1512736 1
0.152487 0.030169 0.815617 1907748 1
0.169408 0.030811 0.832970 1512730 1
0.189120 0.031827 0.860431 854547 1
0.113494 0.044019 0.824202 854806 1
0.127027 0.044019 0.824202 1315870 1
0.139095 0.043561 0.815617 1644835 1
0.152487 0.043561 0.815617 1579040 1
0.169408 0.044488 0.832970 1973539 1
0.187064 0.045455 0.851078 2039332 1
0.117195 0.059429 0.851078 1578529 1
0.127027 0.057552 0.824202 789013 1
0.139095 0.056953 0.815617 1841955 1
0.154092 0.057552 0.824202 1184025 1
0.169408 0.058164 0.832970 1381404 1
0.185053 0.058790 0.841927 2499885 1
0.118483 0.074209 0.860431 1052439 1
0.131169 0.073403 0.851078 2039334 1
0.142055 0.071841 0.832970 1710367 1
0.155731 0.071841 0.832970 2104873 1
0.169408 0.071841 0.832970 1052185 1
0.185053 0.072613 0.841927 2104873 1
0.196761 0.071841 0.832970 1250075 1
0.121145 0.090322 0.879766 1907235 1
0.132610 0.088337 0.860431 2565163 1
0.145143 0.087376 0.851078 2499625 1
0.159117 0.087376 0.851078 1380893 1
0.173091 0.087376 0.851078 1973289 1
0.185053 0.086437 0.841927 2039082 1
0.196761 0.085517 0.832970 1052698 1
0.113494 -0.010111 0.824202 2366757 1
0.127027 -0.010111 0.824202 1841442 1
0.159117 -0.010441 0.851078 1644065 1
0.183038 -0.011041 0.899991 1380121 1
0.197815 -0.011041 0.899991 1380375 1
0.279579 0.212466 0.796183 5856606 3
0.291912 0.211929 0.794171 7632249 3
0.299446 0.208103 0.779834 6250083 3
0.225640 0.211725 0.747419 7368305 3
0.232613 0.207010 0.730774 7237232 3
0.262091 0.221802 0.782992 7633017 3
0.273922 0.220975 0.780073 6711145 3
0.284607 0.219339 0.774299 5987424 3
0.289303 0.213424 0.753418 5526873 3
0.283164 0.200329 0.707191 6579559 3
0.200136 0.210106 0.701068 8223614 3
0.225313 0.212135 0.707839 7434096 3
0.240878 0.215665 0.719618 7105903 3
0.270884 0.231190 0.771421 7369075 3
0.281614 0.229612 0.766156 7171698 3
0.271552 0.211941 0.707191 6645354 3
0.237791 0.224565 0.710395 8158330 3
0.252245 0.227077 0.718341 8487297 3
0.259177 0.222895 0.705113 7369075 3
0.147054 0.200508 0.669043 5132115 3
0.163677 0.207662 0.692913 7238257 3
0.175054 0.207662 0.692913 7895158 3
0.142784 0.205353 0.649619 7697783 3
0.156742 0.209757 0.663553 7106157 3
0.167637 0.209757 0.663553 7895673 3
0.178531 0.209757 0.663553 8224384 3
0.191672 0.212244 0.671418 7763574 3
0.134647 0.203707 0.612595 7631990 3
0.147597 0.207779 0.624840 8356224 3
0.158249 0.208296 0.626394 8553092 3
0.168534 0.208296 0.626394 8553092 3
0.180817 0.210624 0.633396 9079434 3
0.192178 0.211683 0.636579 8486784 3
0.172043 0.210299 0.602660 7894649 3
0.183240 0.211803 0.606971 8223612 3
