# .PCD v0.7
VERSION 0.7
FIELDS x y z rgb label
SIZE 4 4 4 4 4
TYPE F F F U U
COUNT 1 1 1 1 1
WIDTH 1124
HEIGHT 1
VIEWPOINT 0 0 0 1 0 0 0
POINTS 1124
DATA ascii
-0.689484 0.405729 0.941267 5263438 3
-0.689484 0.421184 0.941267 5461330 3
-0.663339 0.414504 0.926338 4540230 3
-0.644511 0.412190 0.921167 3553335 3
-0.629386 0.412190 0.921167 5790811 3
-0.611351 0.410237 0.916802 5067088 3
-0.696351 0.440988 0.950643 3355956 3
-0.664362 0.430376 0.927767 4934988 3
-0.640509 0.424661 0.915447 4671816 3
-0.622068 0.422346 0.910456 4540744 3
-0.604490 0.420517 0.906513 3422263 3
-0.696351 0.456597 0.950643 4539717 3
-0.667042 0.447407 0.931510 4605512 3
-0.644275 0.442278 0.920830 5526871 3
-0.625478 0.439692 0.915447 3816253 3
-0.607119 0.437295 0.910456 4080193 3
-0.718967 0.413803 0.959999 4342851 3
-0.757671 0.442979 0.989975 4606021 3
-0.721760 0.431235 0.963728 5066572 3
-0.732491 0.453705 0.978057 4079679 3
-0.739695 0.474384 0.987677 4408131 3
-0.791735 0.492710 0.991923 4276806 3
-0.446380 0.227557 0.596028 3356472 3
-0.434505 0.226468 0.593176 4738123 3
-0.424765 0.226468 0.593176 4539715 3
-0.417204 0.227656 0.596289 5131595 3
-0.443724 0.212624 0.533951 2697261 3
-0.475038 0.236994 0.595150 2631981 3
-0.461973 0.235316 0.590937 3685437 3
-0.447544 0.232857 0.584762 4672332 3
-0.423707 0.225287 0.565753 3817023 3
-0.401852 0.218457 0.548599 5000781 3
-0.475150 0.246823 0.595290 2763565 3
-0.463079 0.245605 0.592352 3817023 3
-0.435329 0.240030 0.556856 3027505 3
-0.295912 0.215099 0.588716 3552309 3
-0.287737 0.216219 0.591782 4276547 3
-0.280137 0.217866 0.596289 4737098 3
-0.221251 0.217725 0.595902 5395026 3
-0.209116 0.215304 0.589278 5329235 3
-0.202341 0.218435 0.597847 5658200 3
-0.298837 0.219807 0.575729 2104349 3
-0.286501 0.217617 0.569993 4276547 3
-0.273165 0.214494 0.561813 2829101 3
-0.258961 0.210447 0.551214 7763061 3
-0.247063 0.208049 0.544933 4868169 3
-0.237597 0.207596 0.543745 6315877 3
-0.230883 0.209606 0.549010 5921119 3
-0.230780 0.218024 0.571059 6513507 3
-0.221507 0.218126 0.571326 6053208 3
-0.213882 0.219931 0.576054 5658711 3
-0.207174 0.222891 0.583806 4934734 3
-0.291614 0.223718 0.561813 4407618 3
-0.281116 0.222710 0.559280 4210754 3
-0.266740 0.218457 0.548599 5329235 3
-0.254241 0.215497 0.541166 6447455 3
-0.240306 0.211061 0.530028 6447714 3
-0.228571 0.208298 0.523090 5131602 3
-0.218523 0.206916 0.519618 6908013 3
-0.210515 0.207432 0.520914 5526612 3
-0.201459 0.206916 0.519618 6513759 3
-0.296882 0.229880 0.554425 3947321 3
-0.286112 0.228548 0.551214 3354930 3
-0.273905 0.225944 0.544933 5000270 3
-0.260670 0.222288 0.536115 4737355 3
-0.247929 0.218812 0.527732 7763572 3
-0.238252 0.217886 0.525498 8684676 3
-0.296882 0.238983 0.554425 5394765 3
-0.286112 0.237598 0.551214 5460819 3
-0.330664 0.218908 0.599141 4078655 3
-0.320057 0.218383 0.597704 3749692 3
-0.307036 0.216125 0.591525 4539204 3
-0.387581 0.227509 0.595902 3684408 3
-0.363944 0.219166 0.574051 4276547 3
-0.348669 0.215550 0.564579 4144448 3
-0.336969 0.214007 0.560537 2368037 3
-0.328648 0.214583 0.562046 2697000 3
-0.324989 0.218325 0.571846 5592405 3
-0.317743 0.219807 0.575729 3684408 3
-0.308290 0.219807 0.575729 4407620 3
-0.389368 0.216523 0.543745 3684149 3
-0.384124 0.218620 0.549010 5460817 3
-0.376745 0.219573 0.551403 5000268 3
-0.367692 0.219573 0.551403 4408644 3
-0.355214 0.217476 0.546138 3881787 3
-0.344730 0.216523 0.543745 4802889 3
-0.332639 0.214484 0.538624 4604999 3
-0.322396 0.213557 0.536296 2565416 3
-0.316585 0.215596 0.541417 3947067 3
-0.312011 0.218620 0.549010 3881787 3
-0.307306 0.221729 0.556818 2829099 3
-0.302466 0.224929 0.564853 3486516 3
-0.388249 0.219764 0.530028 2961198 3
-0.385285 0.223087 0.538042 3947578 3
-0.384124 0.227634 0.549010 5855575 3
-0.376745 0.228626 0.551403 3948093 3
-0.367692 0.228626 0.551403 2829612 3
-0.351883 0.224320 0.541017 3290161 3
-0.340007 0.222363 0.536296 4671816 3
-0.329653 0.221323 0.533788 2697515 3
-0.320203 0.220850 0.532648 3223605 3
-0.312924 0.221890 0.535156 4407620 3
-0.307696 0.224486 0.541417 5263440 3
-0.300091 0.225451 0.543745 3289648 3
-0.300091 0.234379 0.543745 4473922 3
0.360736 0.172724 0.494981 4342087 3
0.330707 0.182218 0.498721 7369077 3
0.338896 0.182218 0.498721 6250848 3
0.346879 0.182110 0.498426 7500915 3
0.351772 0.180422 0.493808 7105646 3
0.356996 0.178976 0.489849 7302772 3
0.179799 0.207826 0.595573 7631990 3
0.190256 0.208569 0.597704 8618885 3
0.199546 0.208024 0.596141 8421506 3
0.102369 0.200057 0.547547 9736851 3
0.170385 0.218072 0.596852 8750210 3
0.179756 0.217553 0.595431 8289918 3
0.188063 0.215866 0.590814 8092541 3
0.195550 0.213450 0.584202 8487045 3
0.102706 0.209735 0.549348 9079434 3
0.110756 0.207915 0.544582 10394783 3
0.117953 0.204885 0.536644 8749956 3
0.125984 0.203624 0.533341 8947335 3
0.139037 0.210117 0.550349 9342604 3
0.148881 0.211263 0.553351 8618881 3
0.166672 0.222905 0.583844 8815749 3
0.180399 0.228142 0.597562 10723746 3
0.178221 0.213762 0.559897 9209739 3
0.181145 0.206611 0.541166 10000025 3
0.187845 0.204235 0.534944 9474194 3
0.193978 0.201482 0.527732 9408399 3
0.106697 0.208910 0.524625 8947337 3
0.116234 0.210583 0.528827 7697268 3
0.124131 0.209257 0.525498 8553090 3
0.135691 0.213879 0.537104 9079432 3
0.147675 0.218563 0.548868 8684676 3
0.156481 0.218277 0.548147 9539472 3
0.165300 0.218037 0.547547 9144714 3
0.173458 0.216996 0.544933 9604497 3
0.180916 0.215224 0.540482 9342095 3
0.185775 0.210671 0.529049 9671573 3
0.193564 0.209699 0.526608 9145740 3
0.124131 0.217886 0.525498 8553092 3
0.134723 0.221108 0.533270 9211279 3
0.146842 0.226291 0.545771 8618885 3
0.156687 0.227575 0.548868 7763063 3
0.165481 0.227277 0.548147 7631477 3
0.174711 0.227575 0.548868 8683395 3
0.183496 0.227295 0.548192 8157821 3
0.185775 0.219358 0.529049 8289920 3
0.193564 0.218346 0.526608 8684935 3
0.051915 0.204825 0.586974 7763833 3
0.052437 0.216621 0.592882 8290177 3
0.059694 0.207987 0.569250 8816262 3
0.067112 0.202178 0.553351 8750469 3
0.075996 0.201644 0.551891 8684676 3
0.084666 0.200715 0.549348 8948361 3
0.093379 0.200057 0.547547 8948361 3
0.061956 0.225570 0.590824 7896441 3
0.066876 0.210519 0.551403 9342606 3
0.075913 0.210473 0.551282 9211533 3
0.084684 0.209781 0.549468 9080461 3
0.093706 0.209781 0.549468 8422017 3
0.062490 0.237298 0.595916 8948359 3
0.067802 0.222614 0.559039 8553090 3
0.075301 0.217757 0.546844 8487810 3
0.081510 0.210601 0.528872 7961466 3
0.089618 0.209257 0.525498 7632501 3
0.097796 0.208298 0.523090 9474192 3
0.073663 0.221802 0.534944 9145227 3
0.081335 0.218812 0.527732 9145227 3
0.089618 0.217886 0.525498 8355711 3
0.097796 0.216887 0.523090 9079434 3
-0.198504 0.204663 0.586511 5329235 3
-0.188874 0.204663 0.586511 4474185 3
-0.178246 0.203524 0.583244 5526614 3
-0.167637 0.202278 0.579674 3749690 3
-0.193170 0.219167 0.599851 5592666 3
-0.182665 0.218383 0.597704 5855325 3
-0.172851 0.218383 0.597704 5789273 3
-0.162189 0.217246 0.594591 6447716 3
-0.149740 0.213417 0.584113 5197649 3
-0.135744 0.206709 0.565753 5789786 3
-0.172577 0.227834 0.596754 5394774 3
-0.160966 0.225297 0.590110 4737096 3
-0.145732 0.217039 0.568479 7040364 3
-0.131010 0.208465 0.546021 7105903 3
-0.197060 0.211347 0.530747 7040364 3
-0.194000 0.217693 0.546682 5922399 3
-0.194282 0.228585 0.574035 7763576 3
-0.189142 0.233885 0.587343 8289920 3
-0.179918 0.234431 0.588716 5526360 3
-0.170252 0.234431 0.588716 6513509 3
-0.157363 0.229726 0.576899 8026746 3
-0.141617 0.219981 0.552427 7369327 3
-0.126798 0.210440 0.528468 7764087 3
-0.114230 0.203507 0.511058 8093052 3
-0.186622 0.228626 0.551403 7237743 3
-0.184857 0.238010 0.574035 7171437 3
-0.178576 0.242276 0.584322 7171439 3
-0.168982 0.242276 0.584322 8026748 3
-0.151778 0.230709 0.556425 8026744 3
-0.136175 0.220250 0.531200 7895671 3
-0.184857 0.247435 0.574035 7237230 3
-0.178576 0.251870 0.584322 8026748 3
-0.168982 0.251870 0.584322 8158332 3
-0.151778 0.239845 0.556425 8289916 3
-0.168982 0.261464 0.584322 7895160 3
0.108016 0.192122 0.577754 9539472 3
0.118838 0.194306 0.584322 7960694 3
0.136698 0.192436 0.578700 8289920 3
0.102012 0.190401 0.545639 7499889 3
0.110876 0.190238 0.545170 7763315 3
0.118231 0.187704 0.537909 8157819 3
0.126616 0.187043 0.536017 7631477 3
0.110997 0.199407 0.545767 10328988 3
0.118231 0.196536 0.537909 9671060 3
0.126528 0.195709 0.535646 9605267 3
0.193470 0.192362 0.503844 8554371 3
0.061269 0.194289 0.584272 8684678 3
0.068138 0.186821 0.561813 9342608 3
0.076638 0.185072 0.556553 9408399 3
0.086006 0.185566 0.558041 9014154 3
0.095851 0.186898 0.562046 8290431 3
0.059477 0.197920 0.567187 8289918 3
0.067653 0.194648 0.557810 8355711 3
0.076468 0.193777 0.555314 8882055 3
0.085529 0.193650 0.554948 9277326 3
0.093257 0.190819 0.546836 9935256 3
0.060329 0.226823 0.682108 7632249 3
0.048092 0.232998 0.667709 7763833 3
0.026601 0.248014 0.678804 9145486 3
0.034729 0.228193 0.624554 8553349 3
0.044278 0.224610 0.614747 9342865 3
0.026601 0.259160 0.678804 9145486 3
0.034729 0.238448 0.624554 9671573 3
0.044278 0.234703 0.614747 10000538 3
0.054103 0.233545 0.611713 9145740 3
0.024745 0.251446 0.631445 8487556 3
-0.190300 0.196505 0.590937 5724250 3
-0.180088 0.195952 0.589272 6118751 3
-0.170246 0.195759 0.588693 4539204 3
-0.120363 0.196750 0.538496 6052958 3
-0.109843 0.193790 0.530395 7434609 3
-0.116876 0.199637 0.522898 8093052 3
-0.106793 0.196875 0.515665 6514018 3
-0.393793 0.230416 0.692913 4737094 3
-0.380110 0.229026 0.688735 5066059 3
-0.365586 0.227029 0.682729 4671301 3
-0.353408 0.226408 0.680863 4342851 3
-0.340200 0.225067 0.676827 5066574 3
-0.330158 0.225799 0.679028 5395028 3
-0.325761 0.230578 0.693401 5395028 3
-0.391165 0.233435 0.668962 5131854 3
-0.372786 0.228894 0.655949 3947578 3
-0.350206 0.221427 0.634550 4934475 3
-0.333590 0.217388 0.622976 4210752 3
-0.322555 0.216846 0.621422 3881787 3
-0.312351 0.216846 0.621422 4276545 3
-0.307215 0.220482 0.631842 4210754 3
-0.309610 0.229966 0.659022 3421238 3
-0.315909 0.243143 0.696782 4013375 3
-0.377472 0.229420 0.627913 4341057 3
-0.355783 0.222310 0.608452 5460306 3
-0.343127 0.220596 0.603761 3420977 3
0.126877 0.214525 0.678633 8026233 3
0.136552 0.212244 0.671418 9079432 3
0.148361 0.213374 0.674993 7631988 3
0.159444 0.213374 0.674993 7303025 3
0.170527 0.213374 0.674993 7368816 3
0.183800 0.215948 0.683135 8618374 3
0.196073 0.217117 0.686835 8026237 3
0.134038 0.202787 0.609829 8026746 3
0.197261 0.206074 0.619713 7895162 3
-0.399770 0.222363 0.703430 5198158 3
-0.399312 0.228716 0.723528 4671814 3
-0.396135 0.233854 0.739779 5592916 3
-0.331922 0.249497 0.789266 4013632 3
-0.329280 0.241509 0.726274 3815742 3
-0.307741 0.243336 0.731768 4408390 3
-0.308233 0.257731 0.705398 7039087 3
-0.302317 0.262653 0.718869 4342087 3
0.494110 0.157160 0.524403 5459792 3
0.461428 0.163345 0.516731 5722964 3
0.470783 0.163648 0.517688 6709605 3
0.483270 0.165009 0.521995 6051675 3
0.491841 0.165009 0.521995 5986652 3
0.413823 0.184659 0.555314 5131856 3
0.461428 0.171829 0.516731 7894133 3
0.469614 0.171720 0.516402 8026235 3
0.480070 0.172430 0.518538 6184031 3
0.455417 0.177965 0.509999 4736583 3
0.462370 0.177419 0.508436 5723991 3
0.470718 0.177419 0.508436 4210754 3
0.427158 0.184979 0.506280 4077888 3
0.454392 0.185919 0.508851 5263440 3
0.460873 0.185166 0.506791 4342851 3
-0.189650 0.208367 0.695267 7236971 3
-0.163698 0.201858 0.638562 8487297 3
-0.167713 0.220961 0.698994 8289666 3
-0.169508 0.206643 0.621422 5066061 3
-0.159304 0.206643 0.621422 5263440 3
-0.150755 0.208934 0.628313 5921118 3
-0.165565 0.211803 0.606971 6184542 3
-0.154777 0.210683 0.603761 6579300 3
-0.144513 0.210174 0.602302 5921372 3
-0.137563 0.214761 0.615447 6052704 3
-0.197044 0.233609 0.611880 7829369 3
-0.186134 0.232531 0.609056 5328981 3
-0.455166 0.209730 0.699813 3158066 3
-0.438097 0.207093 0.691014 4473672 3
-0.427924 0.207662 0.692913 2894640 3
-0.419104 0.208937 0.697167 4802891 3
-0.408788 0.209516 0.699100 3092271 3
-0.495937 0.214021 0.677041 1909028 3
-0.474912 0.209647 0.663204 2435883 3
-0.460857 0.208217 0.658680 4803402 3
-0.463360 0.214379 0.678171 5592407 3
-0.443224 0.220994 0.699100 5197906 3
-0.431745 0.220994 0.699100 2960687 3
-0.420267 0.220994 0.699100 4342340 3
-0.408788 0.220994 0.699100 4277058 3
-0.487012 0.221086 0.664857 3817025 3
-0.466400 0.216584 0.651317 3422265 3
-0.453353 0.215465 0.647954 3026991 3
-0.456062 0.221962 0.667490 5460308 3
-0.405170 0.230416 0.692913 4473924 3
-0.479955 0.228641 0.655223 2698542 3
-0.467853 0.227986 0.653347 2830126 3
-0.462096 0.230465 0.660451 2500134 3
-0.463098 0.236515 0.677788 3486518 3
-0.454519 0.243853 0.698819 4276547 3
-0.441998 0.243277 0.697167 2894894 3
-0.429118 0.242467 0.694847 5131343 3
-0.411567 0.238902 0.684628 4078655 3
-0.485649 0.231845 0.634550 2434602 3
-0.461563 0.225178 0.616300 2566956 3
-0.448083 0.223501 0.611713 3093300 3
-0.438039 0.223501 0.611713 2632233 3
-0.435057 0.227189 0.621806 3158064 3
-0.445437 0.238199 0.651940 3750203 3
-0.450412 0.246790 0.675453 3421495 3
-0.440216 0.247292 0.676827 3026480 3
-0.427940 0.246622 0.674993 3683897 3
-0.412000 0.243748 0.667128 3749690 3
-0.498302 0.233545 0.611713 1644574 3
-0.471682 0.235297 0.616301 1909026 3
-0.414961 0.231874 0.607335 3487029 3
-0.407908 0.233545 0.611713 3947580 3
-0.492061 0.240538 0.604052 3355192 3
-0.462107 0.250347 0.603790 3553851 3
-0.462107 0.260261 0.603790 1711131 3
-0.580596 0.201423 0.672096 2499882 3
-0.571559 0.202130 0.674455 2236964 3
-0.572855 0.206591 0.689340 3158066 3
-0.568696 0.209225 0.698129 1579034 3
-0.580596 0.212458 0.672096 2368296 3
-0.571559 0.213204 0.674455 1447448 3
-0.572855 0.217909 0.689340 1973792 3
-0.566956 0.220012 0.695993 2565929 3
-0.555375 0.219951 0.695800 2170917 3
-0.541694 0.219039 0.692913 1908259 3
-0.530317 0.219039 0.692913 3421498 3
-0.517086 0.218256 0.690438 1908258 3
-0.580596 0.223493 0.672096 1973538 3
-0.571403 0.224216 0.674271 3487031 3
-0.566744 0.226782 0.681986 2763308 3
-0.557053 0.227397 0.683836 2894640 3
-0.544194 0.226717 0.681792 3026226 3
-0.532129 0.226347 0.680678 3026740 3
-0.518838 0.225428 0.677915 2829361 3
-0.506203 0.224760 0.675906 2961716 3
-0.592304 0.234795 0.672861 2237223 3
-0.578114 0.233526 0.669224 2368809 3
-0.568953 0.234278 0.671380 3223859 3
-0.564286 0.236948 0.679028 3947328 3
-0.554332 0.237460 0.680496 3947328 3
-0.538767 0.235539 0.674993 2170918 3
-0.527685 0.235539 0.674993 3421497 3
-0.516602 0.235539 0.674993 2960946 3
-0.504594 0.235108 0.673758 3290681 3
-0.588182 0.244132 0.668178 3816255 3
-0.558877 0.236378 0.646955 3289909 3
-0.554157 0.238922 0.653919 3355191 3
-0.548954 0.241356 0.660579 3486777 3
-0.536130 0.240468 0.658150 2499883 3
-0.526989 0.241231 0.660237 2697262 3
-0.510095 0.238401 0.652493 2500395 3
-0.572620 0.248353 0.650500 2697774 3
-0.543753 0.240316 0.629447 3092784 3
-0.520960 0.234703 0.614747 1250067 3
-0.508345 0.233545 0.611713 1710109 3
-0.506216 0.242135 0.634211 1841953 3
-0.505229 0.246738 0.646269 2040614 3
0.607551 0.225969 0.797704 6184290 3
0.623775 0.205432 0.725203 4473413 3
0.638086 0.206208 0.727945 4210241 3
0.640372 0.203142 0.717121 3091760 3
0.607010 0.228981 0.764051 7039853 3
0.603170 0.245063 0.775240 6579302 3
0.611747 0.243411 0.770014 6513507 3
0.448961 0.201785 0.712328 7105646 3
0.464545 0.203488 0.718341 6579559 3
0.476069 0.203372 0.717933 6908263 3
0.484114 0.201812 0.712426 6316128 3
0.469741 0.212300 0.708391 6514020 3
0.477861 0.210752 0.703224 6185053 3
0.302771 0.166429 0.587518 6447716 3
0.302771 0.176075 0.587518 5197647 3
0.314310 0.177142 0.591077 6052445 3
0.308775 0.183557 0.580668 8157819 3
0.324614 0.187192 0.592170 9539472 3
0.369775 0.176276 0.557637 5592918 3
0.300096 0.187663 0.564347 7697270 3
0.323733 0.175370 0.527379 6250083 3
0.333586 0.176000 0.529274 6184803 3
0.344459 0.177122 0.532648 6975087 3
0.348133 0.174579 0.525001 4606023 3
0.351199 0.171861 0.516826 4079679 3
0.356391 0.170287 0.512093 6053469 3
0.360587 0.168321 0.506181 5328981 3
0.370436 0.169023 0.508291 5789020 3
0.312183 0.182341 0.522540 8027005 3
0.320428 0.182150 0.521995 8224386 3
0.328999 0.182150 0.521995 6777455 3
0.337224 0.181964 0.521460 7172468 3
0.338050 0.177893 0.509794 7303282 3
0.342510 0.175885 0.504039 7171950 3
0.309155 0.189069 0.517472 7369845 3
0.316089 0.188139 0.514926 8290694 3
0.322482 0.186943 0.511655 7830143 3
0.329413 0.186113 0.509382 7106675 3
0.286390 0.162605 0.574019 5131856 3
0.286390 0.172030 0.574019 8289920 3
0.283080 0.179358 0.567386 8749960 3
0.297627 0.182567 0.577536 6841963 3
0.200069 0.198756 0.597704 8487299 3
0.280036 0.186645 0.561285 8552581 3
0.289967 0.187107 0.562673 8618374 3
0.273182 0.191067 0.547547 6644584 3
0.282172 0.191067 0.547547 7565686 3
0.291686 0.191411 0.548532 7894649 3
0.215356 0.188771 0.516657 9145486 3
0.221447 0.186754 0.511138 8684678 3
0.232513 0.188927 0.517083 8158332 3
0.242585 0.190167 0.520478 8816010 3
0.252705 0.191359 0.523741 8618632 3
0.260111 0.190485 0.521348 9012877 3
0.266292 0.188798 0.516731 8947084 3
0.273923 0.188212 0.515126 8355459 3
0.216758 0.191014 0.500314 8552577 3
0.224973 0.191014 0.500314 8882055 3
0.233234 0.191053 0.500415 9013900 3
0.243250 0.192477 0.504144 8223874 3
0.252033 0.192863 0.505156 8815500 3
0.266935 0.225901 0.797464 7105131 3
0.277205 0.223624 0.789423 7171439 3
0.290513 0.223890 0.790364 5855838 3
0.200366 0.237689 0.793105 7895162 3
0.240755 0.239002 0.797488 5986652 3
0.246767 0.232334 0.775240 7499889 3
0.188648 0.226230 0.798625 7170410 3
0.148539 0.238107 0.794500 6052445 3
0.156710 0.230925 0.770536 5460819 3
0.168121 0.229233 0.764891 5132367 3
0.178381 0.226317 0.755161 7697783 3
0.114300 0.234436 0.741623 6842985 3
0.121392 0.225013 0.711811 7106157 3
0.167558 0.253879 0.896230 7303025 3
0.178194 0.248197 0.876170 6512996 3
0.183005 0.235857 0.832609 7236717 3
0.136549 0.265524 0.885984 4802891 3
0.148368 0.260731 0.869991 5066063 3
0.100619 0.262254 0.829621 7039853 3
0.111516 0.256000 0.809836 7895160 3
-0.007994 0.224900 0.793927 7105644 3
-0.007956 0.236807 0.790163 7697781 3
-0.073104 0.250737 0.793187 6382434 3
-0.059364 0.247749 0.783737 4407879 3
-0.047159 0.251283 0.794916 7303025 3
-0.034108 0.251283 0.794916 6381669 3
-0.021049 0.251204 0.794665 4670794 3
-0.007956 0.249781 0.790163 8289405 3
-0.045541 0.255264 0.767639 8355459 3
-0.033624 0.260582 0.783632 3684157 3
-0.021097 0.264845 0.796449 5196883 3
-0.031467 0.255910 0.733370 7566456 3
-0.020904 0.275385 0.789180 8947597 3
-0.020592 0.284037 0.777397 9013643 3
-0.580263 0.201785 0.712328 2697261 3
-0.577017 0.204783 0.722914 1776159 3
-0.566772 0.205372 0.724993 2434349 3
-0.507088 0.210239 0.742173 3026737 3
-0.564984 0.212135 0.707839 2434089 3
-0.556626 0.213386 0.712014 2631728 3
-0.550735 0.215657 0.719592 2434090 3
-0.538605 0.215531 0.719171 2236711 3
-0.522150 0.213630 0.712827 2500395 3
-0.512850 0.214636 0.716184 2237221 3
-0.523933 0.224420 0.748831 1777438 3
-0.506939 0.222359 0.741954 2434600 3
0.539950 0.202267 0.757966 5855325 3
0.568359 0.208113 0.779870 5000017 3
0.595618 0.213289 0.799266 2894641 3
0.505592 0.205793 0.726480 4605510 3
0.531626 0.211402 0.746281 5723993 3
0.558151 0.216950 0.765864 5592153 3
0.587793 0.223438 0.788767 4934223 3
0.592964 0.207147 0.731258 6250337 3
0.536439 0.220596 0.736072 5789786 3
0.591677 0.237950 0.793978 6776681 3
0.590441 0.245063 0.775240 6118749 3
0.004947 0.207906 0.779097 7764601 3
0.004946 0.220630 0.778856 7304052 3
0.017651 0.219606 0.775240 6185823 3
0.030380 0.219606 0.775240 6251616 3
0.043311 0.220637 0.778880 7304050 3
0.004946 0.233418 0.778856 6316387 3
0.017651 0.232334 0.775240 6974571 3
0.030380 0.232334 0.775240 6645604 3
0.004946 0.246206 0.778856 7631990 3
0.017709 0.245861 0.777763 7631990 3
0.018124 0.277764 0.795997 8026748 3
0.030994 0.275986 0.790901 7368818 3
0.043979 0.275986 0.790901 7434611 3
0.018000 0.288847 0.790560 9277072 3
-0.387259 0.227936 0.854155 5657946 3
-0.364288 0.222473 0.833681 5000016 3
-0.333644 0.220315 0.825594 4144961 3
-0.346657 0.238602 0.894123 6775652 3
-0.381070 0.229772 0.811129 5789784 3
-0.366093 0.228736 0.807470 5197395 3
-0.354434 0.229772 0.811129 4408133 3
-0.339800 0.228886 0.808001 4671305 3
-0.332870 0.233328 0.823680 5526612 3
-0.326574 0.238609 0.842322 6578273 3
-0.394773 0.243328 0.811922 5526610 3
-0.385059 0.245635 0.819620 4605512 3
-0.369786 0.244435 0.815617 5395028 3
-0.356395 0.244435 0.815617 5066063 3
-0.345485 0.246204 0.821519 5460819 3
-0.333303 0.247172 0.824750 5921370 3
-0.323165 0.249804 0.833530 6315617 3
-0.314933 0.254206 0.848219 4276034 3
-0.390980 0.254193 0.804120 4737096 3
-0.384935 0.259009 0.819356 4408133 3
-0.366567 0.255582 0.808515 3749949 3
-0.352608 0.255087 0.806950 3355704 3
-0.324532 0.253853 0.803047 4606023 3
-0.317876 0.259177 0.819887 5526614 3
-0.350660 0.266855 0.802493 3749949 3
-0.354548 0.283135 0.811391 5328981 3
-0.338034 0.280487 0.803800 6776427 3
-0.438980 0.206125 0.772422 2697515 3
-0.436496 0.211057 0.790901 3092273 3
-0.410074 0.204400 0.721559 5723991 3
-0.426297 0.218808 0.772422 5000268 3
-0.427989 0.226412 0.799266 5329231 3
-0.492139 0.221182 0.738028 3618104 3
-0.410074 0.216247 0.721559 6052956 3
-0.406480 0.220729 0.736514 4539715 3
-0.415040 0.232288 0.775084 5461071 3
-0.471361 0.223450 0.706868 4933964 3
-0.461144 0.224125 0.709004 5526614 3
-0.414866 0.252658 0.799266 4014400 3
-0.468827 0.233793 0.703069 6316130 3
-0.463505 0.236974 0.712635 3816253 3
-0.461109 0.241854 0.727311 3223859 3
-0.451263 0.242983 0.730705 3289652 3
-0.423847 0.234453 0.705056 4407620 3
-0.470083 0.245993 0.704952 3750203 3
-0.426797 0.179645 0.673190 2894383 3
-0.419349 0.181203 0.679028 2959921 3
-0.409303 0.181692 0.680863 2499370 3
-0.426797 0.190698 0.673190 2105124 3
-0.419349 0.192352 0.679028 2697262 3
-0.409303 0.192871 0.680863 1973538 3
-0.405456 0.196423 0.693401 2829101 3
0.578133 0.175010 0.698819 2894640 3
0.577634 0.171456 0.684628 4144961 3
0.585636 0.170513 0.680863 5329235 3
0.571279 0.184273 0.690534 2434343 3
0.576784 0.182428 0.683621 2762795 3
0.566393 0.193938 0.684628 3749690 3
0.576784 0.193653 0.683621 5197134 3
0.545786 0.197714 0.659719 6315615 3
0.559295 0.198665 0.662892 6907238 3
0.617655 0.207572 0.828839 5328982 3
0.634410 0.208606 0.832970 5855326 3
0.648087 0.208606 0.832970 4605259 3
0.661763 0.208606 0.832970 3026740 3
0.669300 0.206710 0.825398 3816255 3
0.614204 0.215203 0.806440 2763055 3
0.634793 0.217723 0.815884 3223606 3
0.651157 0.218720 0.819620 2039844 3
0.653966 0.215216 0.806488 2960433 3
0.622651 0.226699 0.800279 5197395 3
0.651157 0.232178 0.819620 5197395 3
0.617435 0.242956 0.810682 6776681 3
0.637908 0.245715 0.819887 7434611 3
0.600047 0.254537 0.805210 6052445 3
0.408659 0.171305 0.684023 4342086 3
0.425412 0.173557 0.693019 3617851 3
0.401180 0.184259 0.690480 7566197 3
0.408772 0.182586 0.684212 8354947 3
0.426793 0.185536 0.695268 5526360 3
0.402015 0.196003 0.691919 8092026 3
0.429145 0.198037 0.699100 7171439 3
0.224683 0.222728 0.889357 8486784 3
0.236705 0.220326 0.879766 7368564 3
0.255119 0.223808 0.893671 7434357 3
0.258714 0.214618 0.856977 7500661 3
0.266651 0.209792 0.837706 6908778 3
0.281818 0.210849 0.841927 7698040 3
0.294457 0.210005 0.838553 6777708 3
0.200948 0.227013 0.850697 7236201 3
0.212700 0.224673 0.841927 6841445 3
0.224575 0.222740 0.834685 7104366 3
0.232007 0.216877 0.812711 7828858 3
0.245113 0.216666 0.811922 8420993 3
0.261065 0.218864 0.820157 6184542 3
0.275885 0.219943 0.824202 5921883 3
0.289418 0.219943 0.824202 6250594 3
0.207116 0.232235 0.819824 6380640 3
0.223081 0.234872 0.829131 7235439 3
0.231932 0.230147 0.812450 6314849 3
0.242831 0.227856 0.804362 7038570 3
0.255626 0.227489 0.803069 7565168 3
0.218168 0.243013 0.810871 6775401 3
0.228450 0.239830 0.800252 8157053 3
0.268788 0.240654 0.802999 7038824 3
0.288476 0.246204 0.821519 7434611 3
-0.452458 0.205314 0.819824 2368296 3
-0.470710 0.220146 0.879047 1644573 3
-0.438997 0.218775 0.819824 3618617 3
-0.445571 0.229075 0.858422 4736585 3
-0.447659 0.237666 0.890616 4276032 3
-0.420800 0.229650 0.810699 7039853 3
-0.429580 0.242100 0.854648 3750201 3
-0.416869 0.242870 0.857366 5460817 3
-0.416445 0.240447 0.802308 5263951 3
-0.407837 0.243169 0.811391 5329744 3
-0.403654 0.253860 0.803069 3619128 3
-0.245188 0.218411 0.690926 5592405 3
-0.254945 0.228334 0.686652 4671305 3
-0.226251 0.212010 0.637562 6052956 3
-0.266951 0.240266 0.688539 5460819 3
-0.238211 0.223880 0.641581 7368816 3
-0.218147 0.214509 0.614725 5921370 3
-0.282170 0.227394 0.622366 5328722 3
-0.248516 0.234198 0.640989 4013373 3
-0.203461 0.229515 0.601157 6316130 3
0.617424 0.164836 0.704374 4407879 3
0.632600 0.165782 0.708418 3091507 3
0.617424 0.176401 0.704374 4210754 3
0.632600 0.177414 0.708418 4670539 3
0.625588 0.194087 0.727311 2039585 3
0.637370 0.194039 0.727129 3092273 3
0.632754 0.189091 0.708590 2631211 3
0.646402 0.189682 0.710804 3223093 3
0.403038 0.167054 0.713852 3552060 3
0.413456 0.166529 0.711610 3881023 3
0.422025 0.165309 0.706396 2960433 3
0.469095 0.178832 0.764181 2960434 3
0.495056 0.183812 0.785464 5000017 3
0.409632 0.181700 0.725532 3684157 3
0.407111 0.175478 0.700689 5328981 3
0.456811 0.181513 0.724784 2565418 3
0.462311 0.179034 0.714886 3157553 3
0.472009 0.178264 0.711811 2828586 3
0.483696 0.178264 0.711811 2565414 3
0.453539 0.192027 0.719592 6316130 3
0.463756 0.191368 0.717121 5789784 3
0.474030 0.190764 0.714858 6118747 3
0.483974 0.190060 0.712219 6579300 3
0.419422 0.198870 0.702039 8420995 3
0.330111 0.201183 0.859693 6974058 3
0.305873 0.208402 0.832153 6975089 3
0.314622 0.205197 0.819356 7105644 3
0.321067 0.200814 0.801854 7763315 3
0.302560 0.219660 0.823140 7566456 3
0.309958 0.215408 0.807208 5855577 3
0.325526 0.216951 0.812989 5921111 3
0.323289 0.238497 0.841927 5395026 3
0.307429 0.250660 0.836388 7566456 3
0.323289 0.252320 0.841927 6710886 3
0.005499 0.202682 0.866096 9080461 3
0.020109 0.206681 0.883184 7040878 3
0.034671 0.207044 0.884737 5988190 3
0.049897 0.209988 0.897316 5659227 3
0.005492 0.216608 0.864921 6448995 3
0.020317 0.223473 0.892335 7699319 3
0.049503 0.222947 0.890232 6515049 3
0.019017 0.222878 0.835202 6777960 3
0.044745 0.214729 0.804662 7106671 3
0.060619 0.224595 0.841634 6646120 3
0.059241 0.232993 0.822498 6909294 3
0.047487 0.255931 0.853975 7369327 3
0.064277 0.267450 0.892412 5593434 3
0.031962 0.257827 0.815617 6381923 3
0.045682 0.259693 0.821519 7237232 3
0.062610 0.274789 0.869276 7566454 3
0.078695 0.281266 0.889764 6645354 3
0.091189 0.274891 0.869597 6381923 3
0.005126 0.268422 0.807208 5987165 3
0.018379 0.268422 0.807208 6776681 3
0.031411 0.266539 0.801546 6842474 3
0.045065 0.269489 0.810415 6908267 3
0.058745 0.271219 0.815617 7961214 3
0.005126 0.281676 0.807208 8158334 3
0.005126 0.294930 0.807208 9408658 3
-0.094467 0.203593 0.869991 5001295 3
-0.080154 0.203523 0.869691 5593436 3
-0.065511 0.202399 0.864888 6382182 3
-0.051046 0.201356 0.860431 5986650 3
-0.036919 0.201356 0.860431 8026233 3
-0.022791 0.201356 0.860431 8684163 3
-0.008667 0.201426 0.860728 8882314 3
-0.094402 0.217728 0.869394 6842472 3
-0.079301 0.215483 0.860431 6382180 3
-0.065174 0.215483 0.860431 7369592 3
-0.051046 0.215483 0.860431 6908265 3
-0.036919 0.215483 0.860431 7303023 3
-0.022706 0.214674 0.857198 7895160 3
-0.008620 0.214380 0.856023 7895673 3
-0.093849 0.230644 0.864303 7566195 3
-0.077241 0.223647 0.838081 6119262 3
-0.062450 0.220016 0.824475 6053987 3
-0.049335 0.221915 0.831593 6250337 3
-0.035729 0.222209 0.832695 7960953 3
-0.021905 0.220682 0.826970 6448227 3
-0.008071 0.213904 0.801571 6908776 3
-0.089766 0.234183 0.826699 7566193 3
-0.075171 0.231044 0.815617 6974571 3
-0.061559 0.230221 0.812711 7500663 3
-0.048483 0.231501 0.817232 7434611 3
-0.035042 0.231347 0.816687 7697270 3
-0.021465 0.229555 0.810361 6579300 3
-0.090407 0.249528 0.832609 5592916 3
-0.075171 0.244435 0.815617 4145470 3
-0.060912 0.241006 0.804173 5132113 3
-0.047567 0.240291 0.801788 6249826 3
-0.034458 0.240675 0.803069 5460308 3
-0.021252 0.240447 0.802308 5526614 3
-0.008102 0.267567 0.804634 6052445 3
-0.008102 0.280778 0.804634 8552838 3
-0.008128 0.294930 0.807208 8421506 3
-0.398577 0.221794 0.947764 3881536 3
-0.389162 0.225353 0.962973 2631722 3
-0.378000 0.228159 0.974964 3025965 3
-0.363394 0.229043 0.978740 3223344 3
-0.390562 0.232582 0.928706 5789532 3
-0.383016 0.237355 0.947764 3947582 3
-0.373351 0.241164 0.962973 4143932 3
-0.361992 0.244167 0.974964 3551793 3
-0.347324 0.245112 0.978740 5393997 3
-0.380620 0.241522 0.905065 4868684 3
-0.353005 0.253715 0.950758 6578273 3
-0.345984 0.260175 0.974964 5526353 3
-0.331254 0.261182 0.978740 4934216 3
-0.344192 0.262602 0.927023 6249822 3
-0.330785 0.264050 0.932133 4210239 3
-0.315480 0.264050 0.932133 5921368 3
0.120207 0.215668 0.991129 5196883 3
0.135622 0.214312 0.984896 6118497 3
0.151793 0.214312 0.984896 6710634 3
0.160881 0.205275 0.943364 6513509 3
0.176370 0.205275 0.943364 5329492 3
0.197818 0.211650 0.972661 5723993 3
0.103934 0.231942 0.991129 7302514 3
0.120207 0.231942 0.991129 6447205 3
0.136535 0.232034 0.991524 5790045 3
0.153727 0.233419 0.997442 5658200 3
0.167198 0.229432 0.980405 6250083 3
0.182063 0.227890 0.973815 5855838 3
0.103247 0.246576 0.984584 4144961 3
0.118798 0.245306 0.979514 5986912 3
0.136590 0.248414 0.991923 5855838 3
0.166494 0.244496 0.976277 7105905 3
0.180795 0.242180 0.967032 5921118 3
0.197741 0.243496 0.972286 7302771 3
0.102634 0.261182 0.978740 8092541 3
0.117697 0.258966 0.970433 7698042 3
0.133162 0.258058 0.967032 7829628 3
0.149907 0.259560 0.972661 7566456 3
0.164416 0.257273 0.964090 6382182 3
0.177710 0.253655 0.950532 6644841 3
0.191859 0.251742 0.943364 6578791 3
0.114414 0.267231 0.943364 6184803 3
0.128840 0.265044 0.935643 6711145 3
0.142499 0.261914 0.924594 6382180 3
0.155840 0.258857 0.913803 6776681 3
0.113477 0.280406 0.935643 6119008 3
0.127318 0.277095 0.924594 5723993 3
0.059643 0.233395 1.072592 4868943 3
0.078327 0.236636 1.087489 5855066 3
0.096183 0.236636 1.087489 6051677 3
0.073184 0.237780 1.016079 5461078 3
0.090165 0.238568 1.019445 5987165 3
0.088749 0.251297 1.003436 5527125 3
0.037881 0.210343 0.966657 7171696 3
0.035422 0.226373 0.903915 7041389 3
0.071600 0.248958 0.994094 5922397 3
0.035416 0.241169 0.903744 6712167 3
0.084105 0.253762 0.950935 7171950 3
0.083436 0.267231 0.943364 7171696 3
0.098925 0.267231 0.943364 5855579 3
0.083125 0.281668 0.939854 5987422 3
0.098925 0.282720 0.943364 6250337 3
-0.138415 0.212973 0.978740 4211011 3
-0.120834 0.210343 0.966657 4605772 3
-0.104963 0.210343 0.966657 3751230 3
-0.157026 0.232810 0.994838 5987676 3
-0.138415 0.229043 0.978740 4803148 3
-0.114151 0.213703 0.913191 4868943 3
-0.171921 0.247077 0.986583 4079427 3
-0.148960 0.236346 0.943736 5526873 3
-0.185779 0.259999 0.974305 4079427 3
-0.165658 0.253685 0.950643 6776940 3
-0.147682 0.249682 0.935643 5461078 3
-0.129716 0.244768 0.917230 6579559 3
-0.197248 0.269803 0.952441 5526360 3
-0.184321 0.273829 0.966657 7039599 3
-0.165658 0.269293 0.950643 6710888 3
-0.145330 0.260822 0.920740 6053215 3
-0.127740 0.255871 0.903261 6974571 3
-0.453222 0.202831 0.932133 2960174 3
-0.437918 0.202831 0.932133 2632233 3
-0.417641 0.200445 0.921167 2829360 3
-0.407308 0.202831 0.932133 4013635 3
-0.411604 0.212973 0.978740 4078915 3
-0.453222 0.218136 0.932133 1841693 3
-0.437918 0.218136 0.932133 2698026 3
-0.419195 0.216371 0.924594 2829360 3
-0.405811 0.217334 0.928706 3092533 3
-0.474705 0.229037 0.914550 2368039 3
-0.466805 0.232582 0.928706 3091760 3
-0.453222 0.233440 0.932133 1644825 3
-0.434376 0.231552 0.924594 3026478 3
-0.417641 0.230694 0.921167 2828847 3
-0.402516 0.230694 0.921167 4276293 3
-0.444673 0.244053 0.914550 3026476 3
-0.429306 0.243854 0.913803 5789784 3
-0.125121 0.221571 0.884737 5329492 3
-0.110091 0.220562 0.880709 5395028 3
-0.110294 0.235456 0.882336 7170924 3
-0.193249 0.228156 0.805422 5394515 3
-0.198523 0.251600 0.888183 5789532 3
-0.108297 0.245419 0.866364 8026746 3
-0.181344 0.243149 0.811324 6908013 3
-0.110332 0.264521 0.882636 6382432 3
0.703545 0.138177 0.686835 2235430 1
0.724353 0.140020 0.695993 1972258 1
0.735780 0.140020 0.695993 1907233 1
0.750544 0.140645 0.699100 920851 1
0.703545 0.149454 0.686835 4538439 1
0.724353 0.151447 0.695993 2959407 1
0.735780 0.151447 0.695993 1183765 1
0.746429 0.163088 0.611148 2039074 1
0.650010 0.138786 0.689861 1578268 1
0.661337 0.138786 0.689861 2762542 1
0.669713 0.138177 0.686835 2170407 1
0.680990 0.138177 0.686835 1183771 1
0.692268 0.138177 0.686835 1380893 1
0.633105 0.148802 0.683836 3223093 1
0.644333 0.148802 0.683836 1841695 1
0.658436 0.149454 0.686835 1841693 1
0.666789 0.148802 0.683836 4078402 1
0.678017 0.148802 0.683836 1907748 1
0.692268 0.149454 0.686835 2499370 1
0.644333 0.160030 0.683836 4210243 3
0.653601 0.159551 0.681792 4604997 3
0.663890 0.159334 0.680863 4473413 3
0.675253 0.159377 0.681049 4473673 3
0.689245 0.160030 0.683836 4407367 3
0.672146 0.169775 0.677915 5065550 3
0.612272 0.176991 0.879766 3222325 1
0.601205 0.192518 0.884737 5065552 3
0.620734 0.181253 0.832970 2893101 3
0.672495 0.184192 0.846478 4342087 3
0.610304 0.195972 0.837425 5590873 3
0.624263 0.196038 0.837706 5328469 3
0.671824 0.197893 0.845634 3750463 3
0.675440 0.194930 0.832970 4013381 3
0.552462 0.181060 0.899991 3420987 1
0.576900 0.175025 0.869991 3618106 1
0.597827 0.176991 0.879766 4407367 1
0.511321 0.181253 0.832970 5000017 3
0.560793 0.193611 0.889764 6052707 3
0.537997 0.189864 0.811324 4012862 3
0.596554 0.195972 0.837425 4932943 3
0.357783 0.154433 0.767639 5130575 3
0.348597 0.168691 0.775240 3289911 3
0.356038 0.166222 0.763895 2697002 3
0.361526 0.163041 0.749275 5393747 3
0.370285 0.161496 0.742173 5064529 3
0.380666 0.160734 0.738672 4078917 3
0.333031 0.186973 0.798972 5921372 3
0.339081 0.183155 0.782656 5526873 3
0.340570 0.177242 0.757389 5987424 3
0.347774 0.174616 0.746165 4408133 3
0.353597 0.171498 0.732842 4539208 3
0.364988 0.171197 0.731556 2104612 3
0.371804 0.168838 0.721474 2434090 3
0.381984 0.168105 0.718341 1710367 3
0.393778 0.168105 0.718341 2565678 3
0.325971 0.195850 0.782033 7565682 3
0.328969 0.190160 0.759315 6711145 3
0.333142 0.185541 0.740870 4803150 3
0.343981 0.184829 0.738028 7303025 3
0.351437 0.182409 0.728365 6974060 3
0.363396 0.182409 0.728365 7039599 3
0.386961 0.176785 0.705905 4539466 3
0.319970 0.197085 0.738545 7369075 3
0.317063 0.188163 0.705113 7040112 3
0.335215 0.191928 0.719220 7829369 3
0.333874 0.200665 0.997442 5723740 3
0.311544 0.212973 0.978740 4606798 3
0.327614 0.212973 0.978740 5132630 3
0.306525 0.225353 0.962973 6843501 3
0.323569 0.226215 0.966657 7041140 3
0.333817 0.222467 0.950643 6580331 3
0.338434 0.215469 0.920740 5921629 3
0.235612 0.200665 0.997442 4605771 3
0.217847 0.215668 0.991129 6644842 3
0.235612 0.217042 0.997442 7368818 3
0.238327 0.205275 0.943364 6052704 3
0.256911 0.207778 0.954868 5723740 3
0.275954 0.210343 0.966657 4868944 3
0.295474 0.212973 0.978740 4474953 3
0.201574 0.231942 0.991129 7105646 3
0.218889 0.233051 0.995869 8223873 3
0.236063 0.233867 0.999355 6776679 3
0.235489 0.218136 0.932133 5921372 3
0.250794 0.218136 0.932133 7631736 3
0.268303 0.219943 0.939854 7631990 3
0.287182 0.222615 0.951273 6776938 3
0.212468 0.242086 0.966657 6052958 3
0.219213 0.232410 0.928019 7763315 3
0.206341 0.250518 0.938778 6644580 3
-0.147642 0.210029 1.043989 5065809 3
-0.199066 0.227171 1.043989 4341829 3
-0.181925 0.227171 1.043989 3947582 3
-0.164784 0.227171 1.043989 4802891 3
-0.199066 0.244312 1.043989 4605258 3
-0.180279 0.242102 1.034545 6118751 3
-0.193802 0.254540 1.016384 3553084 3
-0.257353 0.215784 1.072592 4078655 3
-0.233349 0.210029 1.043989 4078655 3
-0.216208 0.210029 1.043989 3684410 3
-0.201756 0.212868 1.058097 3157553 3
-0.260927 0.236636 1.087489 4539206 3
-0.233349 0.227171 1.043989 3881276 3
-0.216208 0.227171 1.043989 4605258 3
-0.219023 0.247493 1.057583 5592153 3
-0.219023 0.264858 1.057583 5394774 3
-0.278516 0.272474 1.021054 5197388 3
-0.267945 0.278922 1.045215 5460560 3
-0.253875 0.282359 1.058097 4144448 3
-0.234334 0.279771 1.048398 4407622 3
-0.208681 0.268897 1.007648 4736844 3
-0.394248 0.204574 1.016873 2237475 3
-0.372712 0.201951 1.003836 3553335 3
-0.356230 0.201951 1.003836 3289652 3
-0.344160 0.204574 1.016873 3881789 3
-0.336196 0.210029 1.043989 4341057 3
-0.394248 0.221270 1.016873 3421236 3
-0.372712 0.218433 1.003836 3355443 3
-0.360856 0.221270 1.016873 4868169 3
-0.353338 0.227171 1.043989 3420723 3
-0.350205 0.236636 1.087489 4078139 3
-0.356627 0.235178 1.004956 3814965 3
-0.350470 0.242329 1.035515 4078137 3
-0.340127 0.251678 1.004956 4868421 3
-0.201490 0.209247 0.738672 5921111 3
-0.252031 0.234550 0.782632 6053469 3
-0.283683 0.241526 0.764051 5658200 3
-0.293844 0.241787 0.727110 4013886 3
-0.281084 0.241083 0.724993 4671305 3
-0.291996 0.252130 0.722537 6316641 3
-0.287544 0.259968 0.711522 3289650 3
1.413889 0.226041 1.223425 1908007 1
1.413889 0.246128 1.223425 2499631 1
1.433976 0.246128 1.223425 2433840 1
1.474151 0.246128 1.223425 1710115 1
1.433976 0.266216 1.223425 393996 1
1.474151 0.266216 1.223425 920853 1
0.389916 0.166283 0.899991 2303531 1
0.356267 0.179002 0.889764 4802891 3
0.358649 0.173101 0.860431 4737358 3
0.366732 0.170294 0.846478 5132630 3
0.366753 0.164086 0.815617 4408392 3
0.325201 0.192518 0.884737 5987422 3
0.325037 0.184192 0.846478 5855577 3
0.338935 0.184192 0.846478 7894647 3
0.347203 0.181253 0.832970 3881535 3
0.353361 0.177477 0.815617 3290426 3
0.327781 0.191572 0.818622 6644064 3
0.219235 0.184288 0.997442 2368556 1
0.235612 0.184288 0.997442 2895153 1
0.247264 0.180833 0.978740 1974052 1
0.266667 0.183122 0.991129 3353915 1
0.216477 0.198141 0.984896 2302763 3
0.241233 0.192100 0.954868 3355705 3
0.263334 0.196903 0.978740 4999254 3
0.282941 0.199395 0.991129 4407882 3
0.152754 0.183122 0.991129 3684156 1
0.169027 0.183122 0.991129 3421238 1
0.136480 0.199395 0.991129 4539979 3
0.152754 0.199395 0.991129 4736844 3
0.160881 0.189786 0.943364 5131856 3
0.176370 0.189786 0.943364 4079679 3
0.196597 0.194472 0.966657 3882048 3
0.100365 0.209661 1.134771 2894128 1
0.120746 0.212744 1.151459 2959921 1
0.100365 0.228293 1.134771 5393747 3
0.120746 0.231650 1.151459 6512229 3
0.115644 0.239969 1.102806 5788505 3
-0.023839 0.166283 0.899991 1972509 1
-0.009010 0.165333 0.894848 1710107 1
-0.038616 0.181060 0.899991 3025197 3
-0.023703 0.180025 0.894848 2893611 3
-0.008959 0.179002 0.889764 3223346 3
-0.053088 0.194718 0.894848 7302510 3
-0.038177 0.193611 0.889764 8355200 3
-0.023435 0.192518 0.884737 8552579 3
-0.008959 0.193611 0.889764 8421506 3
-0.039294 0.169200 0.915780 2367269 1
-0.069366 0.184236 0.915780 2697262 3
-0.053702 0.182106 0.905193 2631468 3
-0.083912 0.198114 0.910456 4079942 3
-0.068564 0.196969 0.905193 5066322 3
-0.210281 0.203755 1.102806 3025969 1
-0.200653 0.212744 1.151459 2499370 1
-0.290904 0.228293 1.134771 2039072 3
-0.290904 0.246925 1.134771 5197134 3
-0.292240 0.266777 1.139986 4670790 3
-0.272272 0.265557 1.134771 5526099 3
-0.246374 0.257949 1.102265 5131343 3
-0.290904 0.284188 1.134771 5460560 3
-0.272272 0.284188 1.134771 5460308 3
-0.246374 0.276048 1.102265 4736587 3
-0.300816 0.203755 1.102806 3158323 3
-0.337030 0.221862 1.102806 2829101 3
-0.318923 0.221862 1.102806 3750460 3
-0.309535 0.228293 1.134771 3947580 3
-0.337030 0.239969 1.102806 3025965 3
-0.332993 0.250556 1.151459 3947580 3
-0.309535 0.246925 1.134771 4012860 3
-0.315552 0.270719 1.156830 5065548 3
-0.310958 0.285494 1.139986 5328974 3
0.391893 0.164763 0.978740 2106152 1
0.386238 0.155988 0.926618 1776419 1
0.394450 0.153268 0.910456 2171177 1
0.359754 0.180833 0.978740 2829101 1
0.357927 0.172222 0.932133 2171169 1
0.325381 0.186417 0.926618 1907745 3
0.338592 0.185320 0.921167 3815996 3
0.347582 0.182106 0.905193 3026478 3
0.317858 0.196969 0.905193 7434870 3
-0.425261 0.152382 0.905193 1315609 1
-0.401565 0.176422 0.954868 1316122 3
-0.437918 0.187526 0.932133 3026737 3
-0.412785 0.183165 0.910456 2698544 3
-0.412216 0.189786 0.943364 2895668 3
-0.411604 0.196903 0.978740 1908259 3
0.697222 0.148693 0.978740 1183514 1
0.600803 0.164763 0.978740 1908259 1
0.652842 0.161730 0.960726 2038821 1
0.656532 0.158807 0.943364 1051926 1
0.672022 0.158807 0.943364 2893362 1
0.616873 0.180833 0.978740 2170666 1
0.610065 0.174297 0.943364 1907746 1
0.603733 0.168216 0.910456 2433577 1
0.615105 0.167244 0.905193 2104612 1
0.629968 0.167244 0.905193 2038053 1
0.138230 0.152505 1.003836 2895153 1
0.154712 0.152505 1.003836 3157812 1
0.140025 0.171182 1.016873 2895153 1
0.154712 0.168987 1.003836 2500395 1
0.129202 0.196825 1.065295 2960693 1
0.140025 0.187878 1.016873 2171431 1
-0.379464 0.148693 0.978740 1710366 1
-0.382887 0.153268 0.910456 2434602 1
-0.395534 0.164763 0.978740 1316121 1
-0.379464 0.164763 0.978740 1645084 1
-0.363394 0.164763 0.978740 2960944 1
-0.347324 0.164763 0.978740 2171171 1
-0.331254 0.164763 0.978740 2434089 1
-0.315184 0.164763 0.978740 2170658 1
-0.397836 0.168216 0.910456 2500395 3
-0.395534 0.180833 0.978740 2566188 3
-0.384267 0.183122 0.991129 2895921 3
-0.363394 0.180833 0.978740 2105889 3
-0.347324 0.180833 0.978740 2237221 3
-0.331254 0.180833 0.978740 3552824 3
-0.315184 0.180833 0.978740 3486520 3
-0.856227 0.003964 0.954868 1380893 1
-0.810882 0.003824 0.921167 1184023 1
-0.866797 0.019885 0.966657 1578783 1
-0.830421 0.019406 0.943364 1841955 1
-0.830421 0.034895 0.943364 1118232 1
-0.814932 0.034895 0.943364 1446168 1
-0.888741 0.052935 0.991129 657681 1
-0.888741 0.069208 0.991129 1381404 1
0.584733 0.164763 0.978740 1776673 1
0.561642 0.178600 0.966657 2631468 1
0.577514 0.178600 0.966657 2631469 1
0.593385 0.178600 0.966657 2039334 1
0.561642 0.194472 0.966657 3157813 1
0.570471 0.192100 0.954868 2828848 1
0.570518 0.182106 0.905193 1973541 1
0.592227 0.184236 0.915780 2170918 1
-1.330683 -0.272411 1.702157 1184022 1
-1.302735 -0.272411 1.702157 1447197 1
-1.317758 -0.281593 1.759533 1315100 1
-1.361950 -0.255575 1.779528 1380889 1
-1.348051 -0.258513 1.799982 591888 1
-1.360254 -0.335602 1.739982 1775902 1
-1.317758 -0.339373 1.759533 1380123 1
-1.360254 -0.307033 1.739982 1052436 1
-1.302735 -0.300358 1.702157 1117719 1
-1.317758 -0.310483 1.759533 1644065 1
-1.303514 -0.314011 1.779528 2235432 1
