# .PCD v0.7
VERSION 0.7
FIELDS x y z rgb label
SIZE 4 4 4 4 4
TYPE F F F U U
COUNT 1 1 1 1 1
WIDTH 1387
HEIGHT 1
VIEWPOINT 0 0 0 1 0 0 0
POINTS 1387
DATA ascii
-0.486375 0.214957 0.563026 2237221 3
-0.477628 0.215181 0.563613 2368807 3
-0.481185 0.221067 0.579030 2434854 3
-0.487754 0.220644 0.554091 2500393 3
-0.479712 0.221130 0.555314 2368807 3
-0.475249 0.223318 0.560807 2829358 3
-0.468116 0.224312 0.563304 3684921 3
-0.458868 0.224312 0.563304 3487542 3
-0.461153 0.230066 0.577754 3158323 3
-0.456802 0.232682 0.584322 4211013 3
-0.447208 0.232682 0.584322 4408390 3
-0.467280 0.228626 0.551403 2632233 3
-0.458227 0.228626 0.551403 3224368 3
-0.444884 0.226443 0.546138 4211263 3
-0.434007 0.225451 0.543745 3355702 3
-0.417181 0.221262 0.533641 4605769 3
-0.404904 0.219358 0.529049 3289909 3
0.224392 0.182327 0.499022 8092801 3
0.200130 0.190824 0.499816 9212047 3
0.208087 0.190596 0.499219 8356224 3
0.215596 0.189991 0.497633 8553090 3
0.223545 0.189802 0.497138 8816264 3
0.231753 0.189839 0.497237 9080465 3
0.240633 0.190406 0.498721 8092798 3
0.257525 0.190788 0.499720 9275021 3
-0.183104 0.218908 0.599141 6381408 3
-0.171951 0.217246 0.594591 6578787 3
-0.161803 0.216729 0.593176 6643814 3
-0.191021 0.226468 0.593176 8026746 3
-0.181281 0.226468 0.593176 5394515 3
-0.171542 0.226468 0.593176 6052445 3
-0.157743 0.220786 0.578292 5130575 3
-0.146513 0.218203 0.571527 7367535 3
-0.133810 0.212920 0.557692 7697270 3
-0.188496 0.211516 0.531171 6052954 3
-0.190098 0.223663 0.561673 7829367 3
-0.185924 0.229905 0.577348 8487297 3
-0.177253 0.230958 0.579994 5460819 3
-0.165223 0.227506 0.571326 6118238 3
-0.151047 0.220506 0.553747 7763063 3
-0.137106 0.212973 0.534829 8157821 3
-0.130625 0.216791 0.544417 8289407 3
-0.169710 0.230248 0.555314 7368816 3
-0.159048 0.228034 0.549974 8158332 3
-0.145887 0.221755 0.534829 8157821 3
-0.275139 0.206753 0.565873 5197396 3
-0.264641 0.205814 0.563304 5395028 3
-0.255392 0.205814 0.563304 5789532 3
-0.290206 0.213458 0.559101 1710618 3
-0.266089 0.202113 0.529384 3552570 3
-0.255452 0.207596 0.543745 6973806 3
-0.244203 0.205640 0.538624 5066063 3
-0.234342 0.204752 0.536296 5986911 3
-0.227690 0.206707 0.541417 5657689 3
-0.238625 0.225436 0.590473 7367789 3
-0.221251 0.227509 0.595902 6052954 3
-0.208917 0.224765 0.588716 5658196 3
-0.200288 0.225936 0.591782 5789784 3
-0.275714 0.211520 0.531180 4737609 3
-0.260863 0.206665 0.518987 3618877 3
-0.251883 0.206289 0.518043 5723999 3
-0.251953 0.213557 0.536296 5987424 3
-0.240888 0.211573 0.531313 6710888 3
-0.229056 0.208740 0.524199 5197395 3
-0.216563 0.205060 0.514958 7499891 3
-0.234586 0.231151 0.580477 5197134 3
-0.293199 0.227028 0.547547 2961198 3
-0.282852 0.225944 0.544933 3750714 3
-0.270734 0.223328 0.538624 5000529 3
-0.260647 0.222268 0.536068 5000530 3
-0.247929 0.218812 0.527732 7763833 3
-0.239358 0.218898 0.527939 8487810 3
0.158265 0.205263 0.588229 7105644 3
0.185449 0.203300 0.582603 8750467 3
0.149490 0.203004 0.555613 8158332 3
0.162063 0.207420 0.567700 8881542 3
0.171680 0.207778 0.568680 8617854 3
0.177963 0.204273 0.559086 8158330 3
0.184093 0.200944 0.549974 9079693 3
0.108329 0.203359 0.532648 10328988 3
0.117074 0.203359 0.532648 9013641 3
0.127013 0.205287 0.537699 8947848 3
0.137733 0.208146 0.545187 9342606 3
0.148756 0.211086 0.552886 9342093 3
0.159305 0.213054 0.558041 9078921 3
0.168842 0.213527 0.559280 10986918 3
0.177157 0.212486 0.556553 9013128 3
0.183218 0.208976 0.547360 9672084 3
0.189869 0.206436 0.540707 9606037 3
0.107597 0.210671 0.529049 9079434 3
0.116827 0.211657 0.531523 7631988 3
0.126412 0.213103 0.535156 8421504 3
0.136129 0.214570 0.538839 8816262 3
0.146685 0.217098 0.545187 9013128 3
0.157834 0.220164 0.552886 9671058 3
0.167645 0.221130 0.555314 9013128 3
0.175907 0.220060 0.552625 9736851 3
0.181946 0.216450 0.543560 9145227 3
0.187845 0.213019 0.534944 9540244 3
0.194875 0.211119 0.530173 9342865 3
0.107597 0.219358 0.529049 8685189 3
0.115747 0.218346 0.526608 8882314 3
0.125292 0.219924 0.530413 9276815 3
0.135199 0.221890 0.535156 9211022 3
0.146374 0.225570 0.544031 8552579 3
0.157834 0.229242 0.552886 7894649 3
0.167645 0.230248 0.555314 7697270 3
0.174231 0.226950 0.547360 8355200 3
0.180293 0.223328 0.538624 8092539 3
0.187439 0.221323 0.533788 8026748 3
0.194875 0.219824 0.530173 8750730 3
0.052838 0.208466 0.597408 7895160 3
0.061418 0.204379 0.585695 8224125 3
0.069801 0.200830 0.575526 8289918 3
0.062030 0.216125 0.591525 9013382 3
0.069282 0.208716 0.571245 8816003 3
0.076812 0.203807 0.557810 8487810 3
0.003631 0.218295 0.571770 8750728 3
0.069287 0.218111 0.571288 9145479 3
0.076268 0.211459 0.553864 9408910 3
0.084171 0.208509 0.546138 8882314 3
0.091857 0.205640 0.538624 8355459 3
0.099796 0.203794 0.533788 9145227 3
0.003772 0.236570 0.594088 8816521 3
0.070235 0.230604 0.579105 8553088 3
0.075732 0.219004 0.549974 8289918 3
0.083196 0.214957 0.539812 8026748 3
0.091032 0.212558 0.533788 7829369 3
0.099121 0.211119 0.530173 8882055 3
0.079009 0.237898 0.573765 8947850 3
0.083196 0.223821 0.539812 9211020 3
0.091032 0.221323 0.533788 7829878 3
0.099121 0.219824 0.530173 9079945 3
0.091429 0.231090 0.536115 9408908 3
-0.072170 0.201466 0.577348 7500913 3
-0.063301 0.203428 0.582970 6711397 3
-0.054132 0.204954 0.587343 7763572 3
-0.044343 0.204284 0.585425 8947848 3
-0.034449 0.202628 0.580678 7895671 3
-0.071085 0.207773 0.568666 7303275 3
-0.064130 0.215790 0.590607 8355963 3
-0.054852 0.217450 0.595150 6381919 3
-0.044366 0.214005 0.585721 8421502 3
-0.034070 0.209828 0.574289 8159613 3
-0.025072 0.213494 0.584322 8883082 3
-0.083620 0.202263 0.529778 7696239 3
-0.076731 0.207148 0.542573 6512476 3
-0.072217 0.220570 0.577729 6645345 3
-0.064394 0.226414 0.593036 7369067 3
-0.054463 0.225613 0.590937 6580064 3
-0.044121 0.222391 0.582498 7895671 3
-0.033602 0.216241 0.566388 8225152 3
-0.024604 0.218925 0.573418 8357251 3
-0.015077 0.217311 0.569192 7106671 3
-0.005678 0.215306 0.563939 9013900 3
-0.005617 0.222124 0.557810 8487810 3
-0.340579 0.209119 0.599278 4408644 3
-0.310318 0.208619 0.597847 3618615 3
-0.301581 0.209368 0.599994 4210500 3
-0.337111 0.216729 0.593176 3553335 3
-0.329169 0.217918 0.596432 3882298 3
-0.321283 0.219220 0.599994 3421234 3
-0.366329 0.226468 0.593176 3158066 3
-0.356590 0.226468 0.593176 3025967 3
-0.346850 0.226468 0.593176 1907484 3
-0.334832 0.224937 0.589166 5198160 3
-0.317100 0.219362 0.574564 4080193 3
-0.315244 0.224765 0.588716 4474437 3
-0.369172 0.226022 0.567599 4144961 3
-0.347140 0.218037 0.547547 4737098 3
-0.338150 0.218037 0.547547 5263442 3
-0.332370 0.220164 0.552886 3158066 3
-0.326306 0.222216 0.558041 4539717 3
-0.319420 0.223811 0.562046 4408644 3
-0.312434 0.225429 0.566110 3751228 3
-0.303158 0.225444 0.566146 3158577 3
-0.396218 0.219358 0.529049 2434854 3
-0.336981 0.220384 0.531523 4671303 3
-0.332068 0.222944 0.537699 2500647 3
-0.326170 0.224965 0.542573 3553335 3
-0.319475 0.226535 0.546359 5198160 3
-0.311179 0.227028 0.547547 5659225 3
-0.302189 0.227028 0.547547 3027505 3
-0.324620 0.232762 0.539995 3027505 3
-0.315754 0.232762 0.539995 3553849 3
-0.306887 0.232762 0.539995 5528152 3
-0.300887 0.235001 0.545187 3225397 3
0.062646 0.198657 0.597408 8947848 3
0.071035 0.194762 0.585695 9803157 3
0.079251 0.191381 0.575526 9474705 3
0.087213 0.188171 0.565873 8882057 3
0.095129 0.185490 0.557810 8881803 3
0.077922 0.197462 0.565873 8882568 3
0.085970 0.194648 0.557810 9803159 3
0.093347 0.191002 0.547360 9671319 3
0.084360 0.199989 0.547360 9079436 3
0.092290 0.197726 0.541166 8684424 3
-0.063301 0.193856 0.582970 4342851 3
-0.054132 0.195310 0.587343 5723993 3
-0.045061 0.197822 0.594895 5657687 3
-0.094303 0.188840 0.541166 7038570 3
-0.085640 0.189331 0.542573 9670544 3
-0.079598 0.196405 0.562845 7697268 3
-0.099650 0.190945 0.522607 7302514 3
-0.092192 0.193298 0.529049 7301742 3
-0.084693 0.196048 0.536574 7827827 3
-0.076731 0.198240 0.542573 8552831 3
-0.097109 0.194439 0.509284 7039340 3
-0.090962 0.199292 0.521995 7630961 3
-0.196273 0.225687 0.678694 5658198 3
-0.184120 0.224457 0.674993 4736587 3
-0.194982 0.222633 0.638006 5131854 3
-0.180160 0.217388 0.622976 3354930 3
-0.168590 0.215672 0.618058 5657689 3
-0.168354 0.229164 0.656723 5855325 3
-0.193959 0.220063 0.602302 5526614 3
-0.154495 0.220194 0.602660 5328981 3
-0.145634 0.221769 0.606971 5987165 3
-0.294933 0.201708 0.606582 5461332 3
-0.212914 0.231669 0.696681 5592405 3
-0.292232 0.209729 0.601027 4473672 3
-0.234402 0.241674 0.692575 4802889 3
-0.215426 0.233435 0.668962 3355445 3
-0.286938 0.239925 0.656664 6974319 3
-0.225408 0.232079 0.635188 6052954 3
-0.204844 0.221137 0.605242 5460819 3
-0.237165 0.233545 0.611713 5921111 3
-0.374352 0.232473 0.699100 5197647 3
-0.362874 0.232473 0.699100 4605769 3
-0.348282 0.230413 0.692906 4013632 3
-0.398897 0.231547 0.663553 4473926 3
-0.361531 0.215750 0.618282 5197649 3
-0.333782 0.211042 0.604790 4277058 3
-0.323925 0.211090 0.604927 4342336 3
-0.310425 0.230572 0.660758 4342338 3
-0.384621 0.227550 0.622795 4407618 3
-0.370629 0.225261 0.616529 4079168 3
-0.351118 0.219395 0.600474 4934475 3
-0.384668 0.231646 0.606739 3815996 3
-0.499829 0.212608 0.639361 2566188 3
-0.495791 0.215415 0.647801 3158325 3
-0.496046 0.220250 0.662344 3158325 3
-0.493773 0.224156 0.674088 4079427 3
-0.431745 0.232473 0.699100 3157551 3
-0.420267 0.232473 0.699100 5197649 3
-0.492970 0.224765 0.644116 3355704 3
-0.494763 0.230528 0.660631 3816255 3
-0.495245 0.235925 0.676097 2172198 3
-0.434659 0.239237 0.685591 4012860 3
-0.413133 0.233435 0.668962 5197134 3
-0.499813 0.233596 0.639341 2039332 3
-0.493986 0.235826 0.645443 2236710 3
-0.468889 0.228752 0.626083 3618874 3
-0.475292 0.237073 0.648858 2895919 3
-0.487033 0.248500 0.680132 2172196 3
-0.488458 0.255075 0.698129 2830128 3
-0.477659 0.255430 0.699100 3026737 3
-0.460558 0.252349 0.690668 3618613 3
-0.444054 0.249449 0.682729 3815735 3
-0.412359 0.237643 0.650418 3486516 3
-0.497654 0.243039 0.636579 2039844 3
-0.488569 0.243721 0.638365 1776672 3
-0.467035 0.238086 0.623607 4079425 3
-0.478148 0.249215 0.652757 4474437 3
-0.487893 0.260125 0.681332 4276804 3
-0.489486 0.267098 0.699597 4539717 3
-0.461870 0.264441 0.692636 3684408 3
-0.424252 0.249035 0.652284 3947580 3
-0.451716 0.240180 0.603153 3948093 3
-0.474189 0.257781 0.647353 4408642 3
-0.486623 0.270606 0.679559 3355702 3
-0.480556 0.273503 0.686835 4934988 3
-0.469279 0.273503 0.686835 5000779 3
-0.423562 0.252937 0.635188 4606023 3
-0.455267 0.257699 0.621520 3355954 3
-0.486623 0.281764 0.679559 4277058 3
-0.480556 0.284780 0.686835 5198160 3
0.110120 0.186193 0.589008 8289405 3
0.115394 0.179358 0.567386 8882566 3
0.102823 0.182884 0.549974 9144714 3
0.110827 0.181207 0.544933 7829365 3
0.119513 0.180812 0.543745 7960951 3
0.136469 0.192113 0.577729 8487297 3
0.199352 0.180350 0.542355 8618885 3
0.101176 0.188840 0.541166 7763061 3
0.108796 0.186669 0.534944 8092537 3
0.118184 0.187630 0.537699 8026746 3
0.128164 0.189331 0.542573 7237230 3
0.141475 0.195412 0.559998 7237230 3
0.185789 0.193682 0.555041 8355970 3
0.190447 0.189255 0.542355 9013643 3
0.198485 0.188432 0.539995 8224127 3
0.100012 0.195452 0.534944 9605265 3
0.108329 0.194613 0.532648 10263195 3
0.117074 0.194613 0.532648 9802644 3
0.127013 0.196459 0.537699 9736851 3
0.137733 0.199195 0.545187 9276300 3
0.190447 0.198160 0.542355 10461089 3
0.192200 0.191051 0.522898 10197917 3
0.198702 0.189069 0.517472 9475221 3
0.189065 0.196380 0.514367 9342865 3
0.110000 0.203895 0.645008 7105392 3
0.144613 0.207983 0.657939 7500915 3
0.160287 0.214502 0.678560 7106157 3
0.169069 0.211550 0.669224 8027005 3
0.182210 0.214080 0.677226 8421504 3
0.197947 0.219193 0.693401 8223612 3
0.153913 0.202589 0.609231 8158334 3
0.168639 0.208426 0.626784 8618883 3
0.183333 0.213555 0.642209 8815749 3
0.172447 0.210792 0.604075 8223612 3
0.183240 0.211803 0.606971 8157303 3
0.080286 0.209259 0.661977 6776938 3
0.099542 0.204168 0.645871 7039853 3
0.056472 0.212321 0.638500 7566195 3
0.037546 0.235614 0.675206 7039851 3
0.044857 0.217325 0.622795 8158332 3
0.024867 0.231845 0.634550 9145227 3
0.034455 0.226387 0.619612 9013639 3
0.044406 0.225261 0.616529 9342347 3
0.053384 0.220532 0.603587 8355452 3
0.014038 0.235384 0.616529 10066588 3
0.024160 0.235384 0.616529 9079947 3
0.034283 0.235384 0.616529 9672082 3
0.044894 0.237973 0.623311 9934743 3
0.054801 0.236561 0.619612 9408397 3
0.063294 0.230443 0.603587 8619135 3
0.013928 0.243589 0.611713 7764087 3
0.023972 0.243589 0.611713 8685189 3
0.034200 0.244907 0.615024 9211533 3
0.047301 0.261512 0.656723 7763574 3
0.059700 0.268788 0.674993 8684676 3
0.067643 0.256866 0.645054 9079432 3
-0.510143 0.210706 0.666554 2434602 3
-0.510266 0.215378 0.681332 2368810 3
-0.504858 0.217871 0.689220 2565676 3
-0.544468 0.213647 0.642487 3092273 3
-0.500356 0.208454 0.626869 3224116 3
-0.513510 0.211448 0.605955 2105376 3
-0.549099 0.230570 0.660753 2763306 3
-0.532108 0.227939 0.653213 4671562 3
-0.500692 0.243988 0.699206 3619644 3
-0.548670 0.241231 0.660237 3618615 3
-0.526743 0.236258 0.646627 2171428 3
-0.510180 0.233536 0.639177 3158325 3
-0.508177 0.238174 0.623836 1447959 3
-0.509407 0.243661 0.638210 2105637 3
0.419436 0.204776 0.683283 5986652 3
0.436123 0.207376 0.691959 7499891 3
0.498016 0.209516 0.699100 5922912 3
0.425508 0.207995 0.657977 5000529 3
0.436311 0.207995 0.657977 5197909 3
0.449819 0.209253 0.661956 6711148 3
0.109972 0.239343 0.798625 5790043 3
0.120235 0.233801 0.780134 5197906 3
0.132209 0.232334 0.775240 4671305 3
0.135151 0.216647 0.722894 5526612 3
0.156146 0.230093 0.767762 4934734 3
0.175611 0.239447 0.798972 5658457 3
0.180080 0.228472 0.762352 7237232 3
0.189840 0.225202 0.751439 8355713 3
0.005073 0.239447 0.798972 6579302 3
0.005073 0.252565 0.798972 7434096 3
0.018065 0.250811 0.793423 8026744 3
0.030994 0.250014 0.790901 6052956 3
0.043677 0.248295 0.785464 7105646 3
0.056396 0.247514 0.782992 7303282 3
0.070724 0.252777 0.799641 7105903 3
0.082901 0.249906 0.790560 6513766 3
0.042668 0.255156 0.767313 6908265 3
0.051121 0.236017 0.709757 7763574 3
0.030069 0.267755 0.767313 7500402 3
-0.227842 0.236116 0.787858 6381410 3
-0.210039 0.230769 0.770014 7499891 3
-0.238378 0.246569 0.780005 6974058 3
-0.209621 0.229134 0.724849 7039851 3
-0.295726 0.243336 0.731768 4144961 3
-0.283556 0.265708 0.799044 5460819 3
-0.248397 0.244054 0.733926 6118751 3
-0.232679 0.240267 0.722537 5132113 3
-0.279969 0.263126 0.754050 6118236 3
-0.256406 0.252130 0.722537 5987161 3
-0.296598 0.268154 0.733926 3288369 3
-0.285551 0.269100 0.736514 4868169 3
-0.261028 0.256867 0.703034 6513248 3
0.450527 0.202488 0.714813 7434100 3
0.468578 0.205254 0.724577 6447462 3
0.476339 0.203488 0.718341 5921632 3
0.488416 0.203606 0.718757 5658460 3
0.455201 0.210952 0.703892 6973806 3
0.471876 0.213265 0.711610 6513768 3
0.482062 0.212605 0.709406 5855838 3
0.278624 0.163579 0.577458 6184029 3
0.285277 0.161974 0.571790 5526099 3
0.238057 0.171161 0.571119 7434868 3
0.243228 0.168251 0.561411 7434611 3
0.253297 0.168819 0.563304 5329235 3
0.263914 0.169698 0.566239 5986652 3
0.296933 0.172680 0.576189 5065548 3
0.246670 0.187070 0.591782 7302771 3
0.256990 0.187510 0.593176 7500402 3
0.257494 0.181018 0.572639 8486786 3
0.263257 0.178550 0.564830 8355198 3
0.273702 0.179317 0.567258 9868437 3
0.282058 0.178710 0.565337 8947335 3
0.294275 0.180511 0.571032 7236717 3
0.208341 0.180423 0.542573 8685705 3
0.218765 0.181682 0.546359 8355973 3
0.233916 0.186612 0.561186 7698042 3
0.252170 0.193550 0.582050 6908267 3
0.258652 0.191277 0.575213 6513509 3
0.263553 0.188035 0.565465 6052445 3
0.273702 0.188631 0.567258 7368305 3
0.282058 0.187993 0.565337 8749958 3
0.291340 0.187993 0.565337 9078923 3
0.207351 0.188432 0.539995 7961982 3
0.216217 0.188432 0.539995 8685707 3
0.227248 0.190243 0.545187 7698040 3
0.243130 0.195826 0.561186 8553349 3
0.253870 0.197010 0.564579 9934491 3
0.274141 0.191737 0.549468 6710375 3
0.285233 0.193140 0.553487 7499121 3
0.295558 0.193951 0.555813 7763063 3
0.206687 0.188601 0.516192 8619912 3
0.211353 0.185262 0.507054 9146256 3
0.216932 0.182946 0.500716 8750728 3
0.235904 0.184929 0.506142 8750217 3
0.255267 0.193298 0.529049 8750217 3
0.259178 0.189801 0.519477 9210511 3
0.264272 0.187366 0.512812 8880776 3
0.272132 0.186981 0.511760 8684165 3
0.249919 0.191245 0.500919 8618372 3
-0.059700 0.223268 0.788169 7237230 3
-0.047177 0.225262 0.795208 7237232 3
-0.034271 0.226257 0.798718 7500404 3
-0.021056 0.225180 0.794916 6907754 3
-0.008032 0.225969 0.797704 6776166 3
-0.072612 0.236116 0.787858 5000268 3
-0.058757 0.232480 0.775724 5591892 3
-0.046613 0.235469 0.785697 5855579 3
-0.033882 0.236656 0.789659 5526101 3
-0.020950 0.237028 0.790901 6118238 3
-0.008020 0.238691 0.796449 7828340 3
-0.081980 0.238663 0.754993 6908524 3
-0.065572 0.224904 0.711466 6513509 3
-0.054897 0.229106 0.724761 4539206 3
-0.046452 0.247514 0.782992 7368818 3
-0.033723 0.248447 0.785946 7105133 3
-0.020950 0.250014 0.790901 5722712 3
-0.008020 0.251768 0.796449 8419964 3
-0.033096 0.256495 0.771340 3618617 3
-0.021031 0.264023 0.793978 5131345 3
-0.031021 0.252283 0.722975 7632247 3
-0.021031 0.277059 0.793978 9342354 3
-0.008045 0.278802 0.798972 8815751 3
-0.178583 0.226328 0.798972 5723993 3
-0.199494 0.233220 0.778194 6644841 3
-0.189172 0.236287 0.788430 7171185 3
-0.178020 0.238691 0.796449 5658200 3
-0.194841 0.225798 0.714297 7302771 3
-0.195544 0.241127 0.762789 8289667 3
-0.180677 0.234367 0.704795 6118497 3
-0.399942 0.225397 0.795684 4934988 3
-0.360822 0.251577 0.795844 3421238 3
-0.329283 0.247514 0.782992 4211013 3
-0.318625 0.249233 0.788430 4474183 3
-0.389090 0.234436 0.705005 5000781 3
-0.349093 0.247093 0.743065 4934986 3
-0.344655 0.252786 0.760186 4408133 3
-0.332174 0.252786 0.760186 3816255 3
-0.311476 0.246289 0.740649 4671562 3
-0.308349 0.264468 0.795317 4407620 3
-0.324559 0.249800 0.715860 4144961 3
-0.321830 0.257007 0.736514 5921631 3
-0.308648 0.256104 0.733926 6382180 3
-0.319022 0.275467 0.789414 6249824 3
-0.305444 0.265370 0.726306 4408133 3
-0.539409 0.218391 0.770950 3881278 3
-0.521772 0.216326 0.763663 3091760 3
-0.505231 0.214626 0.757662 2960176 3
-0.521592 0.223417 0.745486 1973792 3
-0.507088 0.222424 0.742173 2631207 3
-0.519158 0.229179 0.724993 3158325 3
-0.508876 0.229912 0.727311 3421238 3
-0.501625 0.232941 0.700509 2303016 3
-0.503475 0.239287 0.719592 2763819 3
-0.501317 0.250026 0.716508 3224116 3
0.535072 0.146438 0.548752 2697004 3
0.537784 0.167519 0.591364 5131605 3
0.522261 0.151726 0.535614 2960176 3
0.505101 0.160656 0.536068 4473675 3
0.510624 0.159631 0.532648 3552571 3
0.503484 0.168915 0.534352 5986912 3
0.558806 0.204615 0.766762 3750462 3
0.584547 0.209325 0.784411 2499882 3
0.506319 0.206089 0.727524 5527643 3
0.521288 0.207291 0.731768 6119780 3
0.538516 0.209318 0.738921 4935506 3
0.547740 0.208212 0.735020 5790045 3
0.560924 0.208627 0.736483 6973806 3
0.501251 0.215852 0.720242 6251366 3
0.516772 0.212509 0.709086 5461850 3
0.545318 0.219306 0.731768 7040112 3
0.576115 0.226697 0.756430 5986911 3
0.597257 0.230057 0.767639 6907756 3
0.594039 0.224088 0.747724 7697272 3
0.502232 0.228123 0.721652 6777710 3
0.532096 0.225713 0.714026 5988194 3
0.580095 0.240769 0.761655 6052705 3
0.138128 0.239164 0.896230 7698040 3
0.151740 0.237439 0.889764 7171439 3
0.167664 0.239315 0.896795 6645093 3
0.101888 0.237974 0.840082 6447973 3
0.114702 0.235959 0.832970 6645352 3
0.126539 0.232580 0.821040 6645352 3
0.138109 0.229406 0.809836 6908267 3
0.151996 0.230299 0.812989 6974058 3
0.165878 0.231044 0.815617 6974058 3
0.179270 0.231044 0.815617 6776679 3
-0.387469 0.220089 0.824750 6316637 3
-0.392998 0.228963 0.808270 5263951 3
-0.388275 0.234117 0.826467 5921881 3
-0.394382 0.246411 0.869865 4934734 3
-0.363221 0.254603 0.898783 4999757 3
-0.341457 0.249483 0.880709 5987163 3
-0.333559 0.254489 0.898384 6250337 3
-0.314444 0.251006 0.886087 3947069 3
-0.396831 0.244596 0.816153 5329746 3
-0.386959 0.246847 0.823666 5198158 3
-0.372474 0.246212 0.821544 4934734 3
-0.359756 0.266790 0.890208 5395028 3
-0.337301 0.260731 0.869991 6053469 3
-0.321790 0.259741 0.866687 5131856 3
-0.304720 0.257342 0.858684 5262931 3
-0.392057 0.263801 0.834517 4145470 3
-0.377779 0.273297 0.864554 3355191 3
-0.321451 0.262092 0.829110 5921372 3
-0.314287 0.267582 0.846478 5591892 3
-0.300287 0.267493 0.846193 5066063 3
-0.300621 0.269242 0.809673 5262927 3
-0.315916 0.284336 0.814833 5855066 3
-0.454269 0.201653 0.755662 2236970 3
-0.450559 0.205622 0.770536 3025716 3
-0.440856 0.207006 0.775724 2105124 3
-0.432404 0.209078 0.783486 3158066 3
-0.425124 0.211861 0.793915 3684410 3
-0.491606 0.214110 0.755839 4012864 3
-0.472772 0.211240 0.745707 1907488 3
-0.460528 0.211240 0.745707 2763054 3
-0.454269 0.214060 0.755662 2566189 3
-0.444507 0.215342 0.760186 2105125 3
-0.438183 0.218411 0.771020 6052958 3
-0.432266 0.221872 0.783238 4276545 3
-0.422845 0.223690 0.789659 5987165 3
-0.411957 0.224824 0.793661 6316387 3
-0.493153 0.221638 0.739549 2697002 3
-0.478045 0.220272 0.734989 1249558 3
-0.462452 0.218605 0.729428 4407879 3
-0.451263 0.218988 0.730705 2434600 3
-0.442758 0.220729 0.736514 3685437 3
-0.437638 0.224302 0.748438 3224118 3
-0.434185 0.228962 0.763986 5066063 3
-0.432266 0.234732 0.783238 4737096 3
-0.421515 0.235911 0.787175 4670790 3
-0.410786 0.237179 0.791405 5329233 3
-0.499253 0.230985 0.730705 6315869 3
-0.487823 0.231254 0.731556 5920857 3
-0.470734 0.228786 0.723750 4604997 3
-0.456877 0.227802 0.720636 5131341 3
-0.435635 0.222985 0.705398 3552309 3
-0.426703 0.224379 0.709807 3815996 3
-0.424244 0.229350 0.725532 3947582 3
-0.425193 0.236504 0.748163 4671562 3
-0.432266 0.247592 0.783238 4737355 3
-0.422845 0.249621 0.789659 4737096 3
-0.412491 0.251212 0.794691 4868941 3
-0.493068 0.239972 0.721652 5526612 3
-0.481081 0.239903 0.721445 5460306 3
-0.464166 0.237311 0.713650 4078907 3
-0.447599 0.234768 0.706002 3618102 3
-0.411320 0.233913 0.703430 5131856 3
-0.400889 0.234567 0.705398 4605769 3
-0.493068 0.251821 0.721652 3815994 3
-0.480944 0.251677 0.721240 3618102 3
-0.460380 0.246998 0.707830 5328974 3
-0.481962 0.269313 0.705398 3881787 3
0.624859 0.205466 0.820429 5591896 3
0.644236 0.207367 0.828021 4604231 3
0.651369 0.205330 0.819887 2433063 3
0.655048 0.202308 0.807822 4077888 3
0.627732 0.219943 0.824202 3025969 3
0.641265 0.219943 0.824202 3419957 3
0.654798 0.219943 0.824202 2038305 3
0.657958 0.216530 0.811411 986131 3
0.632541 0.230299 0.812989 4999759 3
0.657455 0.234423 0.827547 5328724 3
0.020730 0.228012 0.910456 7830648 3
0.035679 0.228012 0.910456 7041132 3
0.051556 0.232191 0.927146 6646120 3
0.069871 0.242945 0.970086 6513768 3
0.087660 0.248215 0.991129 5395026 3
0.035589 0.242352 0.908176 6712167 3
0.050177 0.240797 0.902349 7501431 3
0.067465 0.249959 0.936681 6842733 3
0.081384 0.245552 0.920169 7303023 3
0.094956 0.241644 0.905522 7829367 3
-0.185321 0.224103 0.894848 5460821 3
-0.168651 0.221506 0.884479 3947841 3
-0.192988 0.230408 0.863419 4539719 3
-0.180946 0.233158 0.873724 5263442 3
-0.169878 0.237745 0.890912 4276806 3
-0.192319 0.227058 0.801546 5197395 3
-0.168415 0.230364 0.813216 5592407 3
-0.111178 0.251948 0.889411 7500915 3
-0.167835 0.242876 0.810415 5526614 3
-0.201103 0.225324 0.899726 4539719 3
-0.212110 0.235908 0.884030 4210500 3
-0.296510 0.248172 0.876084 6052443 3
-0.279100 0.245510 0.866687 6051929 3
-0.271723 0.251864 0.889114 4735815 3
-0.243495 0.238513 0.841984 4933964 3
-0.222479 0.231044 0.815617 5197136 3
-0.207605 0.229406 0.809836 4407879 3
-0.286410 0.253613 0.846240 6316130 3
-0.270683 0.251907 0.840549 6315617 3
-0.249670 0.244835 0.816951 5460308 3
-0.284855 0.266055 0.841646 6316130 3
-0.268172 0.263244 0.832752 5658200 3
-0.474872 0.236602 0.944756 2763819 3
-0.475884 0.245112 0.978740 2106140 3
-0.459814 0.245112 0.978740 2632484 3
-0.445013 0.245813 0.981539 3684919 3
-0.410674 0.244559 0.976529 6511715 3
-0.420936 0.247758 0.928434 5461332 3
-0.410234 0.260313 0.975482 6183264 3
-0.401930 0.260563 0.919824 5394517 3
-0.442071 0.213292 0.851679 1645086 3
-0.415253 0.213488 0.800012 4671564 3
-0.412928 0.219227 0.821519 5132367 3
-0.400744 0.219943 0.824202 3619379 3
-0.402118 0.239759 0.800012 5263953 3
-0.408104 0.256659 0.811922 4342597 3
-0.400490 0.260376 0.823680 4145470 3
-0.385213 0.109592 0.437605 2498604 3
-0.382255 0.115881 0.434245 1380121 3
-0.380153 0.117434 0.440064 2630958 3
-0.379324 0.119448 0.447612 1644574 3
-0.378028 0.123962 0.437605 1315609 3
-0.378666 0.126577 0.446835 2434602 3
0.659387 0.163769 0.699813 3288888 3
0.699960 0.162518 0.694467 5065297 3
0.638666 0.172762 0.689843 2302252 3
0.621615 0.182409 0.683548 3421244 3
0.602050 0.194563 0.686835 4144450 3
0.606057 0.192257 0.678694 2696749 3
0.383231 0.163602 0.699100 3749439 3
0.389948 0.161629 0.690668 2631211 3
0.399394 0.160866 0.687407 4144448 3
0.348991 0.175179 0.699494 7499891 3
0.358293 0.168742 0.673790 8157054 3
0.370332 0.169187 0.675569 4670025 3
0.386091 0.171258 0.683836 4406852 3
0.397649 0.171400 0.684403 5196368 3
0.301872 0.185937 0.696771 7500402 3
0.304344 0.180615 0.676827 6842472 3
0.307393 0.175998 0.659525 7368305 3
0.314829 0.174122 0.652493 6315615 3
0.325542 0.174122 0.652493 6644582 3
0.338198 0.175128 0.656263 7302259 3
0.343012 0.172136 0.645052 8222846 3
0.359569 0.175040 0.655935 9999257 3
0.377955 0.178640 0.669426 7367537 3
0.395296 0.181557 0.680355 7564916 3
0.385477 0.187940 0.663454 7959672 3
0.302139 0.201356 0.860431 6448743 3
0.306584 0.208886 0.834087 6909294 3
0.315563 0.205810 0.821806 6908267 3
0.320742 0.200610 0.801041 7368816 3
0.303858 0.220602 0.826673 7238259 3
0.312188 0.216958 0.813016 5921372 3
0.288012 0.201356 0.860431 7041909 3
0.267227 0.221680 0.885175 7500915 3
0.272311 0.214245 0.855487 7040878 3
0.284785 0.213069 0.850791 7633530 3
0.297041 0.211847 0.845912 6449256 3
0.214916 0.227013 0.850697 6249824 3
0.226448 0.224598 0.841646 7170410 3
0.238983 0.223397 0.837146 7960440 3
0.251467 0.222283 0.832970 8882055 3
0.265144 0.222283 0.832970 6710886 3
0.278820 0.222283 0.832970 6185571 3
0.292497 0.222283 0.832970 5988705 3
0.200711 0.240697 0.849695 6908267 3
0.214465 0.240476 0.848914 6118238 3
0.225312 0.237221 0.837425 7038824 3
0.238904 0.237064 0.836871 6380894 3
0.249231 0.233862 0.825565 6907238 3
0.261408 0.232635 0.821236 7565682 3
0.270485 0.228905 0.808068 7698040 3
0.225312 0.250971 0.837425 7039338 3
0.238188 0.250053 0.834362 8157819 3
0.250552 0.248728 0.829940 6249822 3
0.262786 0.247417 0.825565 7434096 3
0.269994 0.241734 0.806603 6316130 3
0.005528 0.203736 0.870602 9210761 3
0.020024 0.205809 0.879459 7040362 3
0.034283 0.204731 0.874852 6448741 3
0.049138 0.206792 0.883661 6250335 3
0.005658 0.223153 0.891057 7369327 3
0.005328 0.223926 0.839128 8027773 3
0.020326 0.238222 0.892701 7041132 3
0.005146 0.229570 0.810415 6842985 3
0.018571 0.231044 0.815617 5987674 3
0.032194 0.232716 0.821519 6382432 3
0.047029 0.239576 0.845737 7105903 3
0.064823 0.254945 0.899991 7040882 3
0.078842 0.252518 0.891424 6711399 3
0.090045 0.243243 0.858684 6184542 3
0.018321 0.241144 0.804634 6842985 3
0.031411 0.240218 0.801546 6579813 3
0.044743 0.241144 0.804634 7632249 3
0.060585 0.252090 0.841157 5725022 3
0.076813 0.260281 0.868489 6448227 3
0.088562 0.253103 0.844539 6514020 3
0.099578 0.246061 0.821040 6580329 3
-0.097121 0.209314 0.894438 5198676 3
-0.080859 0.205312 0.877337 5526871 3
-0.065286 0.201704 0.861916 5789786 3
-0.051240 0.202121 0.863699 5460308 3
-0.037123 0.202469 0.865185 7631990 3
-0.022917 0.202469 0.865185 8618883 3
-0.008715 0.202539 0.865485 9078407 3
-0.096893 0.223473 0.892335 6711399 3
-0.080436 0.218568 0.872746 5987676 3
-0.065286 0.215856 0.861916 7237230 3
-0.051240 0.216302 0.863699 6315617 3
-0.037123 0.216674 0.865185 7566197 3
-0.022917 0.216674 0.865185 7698040 3
-0.008727 0.217059 0.866721 7895160 3
-0.097239 0.238975 0.895520 6842985 3
-0.077712 0.225010 0.843191 5987676 3
-0.060812 0.214246 0.802853 6908265 3
-0.049338 0.221926 0.831632 6249824 3
-0.036162 0.224903 0.842789 8158334 3
-0.022064 0.222283 0.832970 6513509 3
-0.008387 0.222283 0.832970 7237743 3
-0.091703 0.239237 0.844539 7566708 3
-0.075528 0.232142 0.819495 7171437 3
-0.089766 0.247756 0.826699 5526612 3
-0.387085 0.224150 0.957833 2499625 3
-0.365887 0.220848 0.943721 3222578 3
-0.351989 0.221854 0.948022 2828590 3
-0.337676 0.222680 0.951553 3026480 3
-0.381237 0.236253 0.943364 3748922 3
-0.372685 0.246095 0.922201 4209473 3
-0.354644 0.244099 0.914724 5460308 3
-0.362184 0.260313 0.975482 6908013 3
-0.333444 0.250745 0.939627 6381410 3
-0.389259 0.262201 0.925608 4341060 3
-0.399436 0.273955 0.914116 5394262 3
-0.384848 0.274255 0.915119 5460055 3
-0.495800 0.246968 1.055339 3158316 3
-0.463356 0.239166 1.021998 2961196 3
-0.448160 0.240014 1.025623 3354930 3
-0.422087 0.234876 1.003667 4012092 3
-0.444203 0.254586 1.016567 4604999 3
-0.446018 0.272385 1.020720 5262931 3
0.570722 0.150113 0.689861 3421498 3
0.582049 0.150113 0.689861 3486777 1
0.593376 0.150113 0.689861 3487031 1
0.589844 0.163602 0.699100 3289398 3
0.586256 0.196833 0.694847 4539719 3
0.595675 0.196177 0.692533 3552311 3
0.512818 0.189533 0.632421 8420995 3
0.570747 0.198863 0.663553 5131343 3
0.508899 0.171234 0.786927 5986911 3
0.527117 0.172973 0.794916 5724252 3
0.540169 0.172973 0.794916 5263701 3
0.553220 0.172973 0.794916 5000016 3
0.582279 0.173855 0.798972 3354681 3
0.583490 0.170378 0.782992 3881278 3
0.599343 0.171234 0.786927 3552311 3
0.568089 0.155596 0.715061 3748669 3
0.571994 0.153494 0.705398 3618366 3
0.511537 0.180526 0.771421 3553084 3
0.526151 0.181197 0.774287 3223606 3
0.542724 0.182495 0.779834 3420985 3
0.569556 0.187103 0.799525 5131603 3
0.589384 0.185085 0.790901 4933966 3
0.583340 0.165009 0.705113 2960946 3
0.519603 0.186979 0.746612 2237224 3
0.549076 0.193031 0.770777 3092532 3
0.571718 0.196463 0.784480 2895153 3
0.589808 0.198213 0.791471 5921118 3
0.581652 0.176075 0.703072 3157812 3
0.591033 0.175433 0.700510 4013634 3
0.511967 0.196310 0.735639 5526874 3
0.530911 0.198882 0.745278 5855838 3
0.583741 0.188293 0.705598 2499882 3
0.579994 0.198595 0.701068 4933966 3
0.215124 0.212973 0.978740 6644580 3
0.228340 0.210343 0.966657 6974060 3
0.241233 0.207778 0.954868 6447462 3
0.256911 0.207778 0.954868 5526614 3
0.275954 0.210343 0.966657 5263442 3
0.291826 0.210343 0.966657 4934734 3
0.294953 0.201631 0.926618 4014404 3
0.212891 0.226665 0.968581 8289659 3
0.234983 0.232796 0.994781 6908267 3
0.239235 0.221605 0.946959 5526360 3
0.253816 0.220764 0.943364 7303025 3
0.267101 0.218957 0.935643 7171437 3
0.281404 0.218136 0.932133 6909292 3
0.287864 0.211634 0.904349 6777967 3
0.211572 0.241065 0.962580 6710627 3
0.224963 0.238507 0.952363 7894647 3
0.234471 0.232431 0.928104 8355200 3
0.245862 0.228850 0.913803 6907754 3
0.257857 0.226210 0.903261 7237230 3
0.200115 0.242960 0.910456 6316126 3
0.213690 0.241408 0.904638 6841959 3
0.103934 0.215668 0.991129 5722710 3
0.120207 0.215668 0.991129 5657434 3
0.136480 0.215668 0.991129 6052705 3
0.150844 0.212973 0.978740 7434357 3
0.166914 0.212973 0.978740 6710634 3
0.182984 0.212973 0.978740 5395028 3
0.199054 0.212973 0.978740 5262929 3
0.135307 0.229949 0.982612 5724252 3
0.150844 0.229043 0.978740 5592667 3
0.166914 0.229043 0.978740 6447976 3
0.182984 0.229043 0.978740 6316641 3
0.197365 0.227098 0.970433 7171178 3
0.103040 0.246082 0.982612 4604997 3
0.118704 0.245112 0.978740 5526614 3
0.134774 0.245112 0.978740 6382180 3
0.149564 0.243032 0.970433 5395287 3
0.164854 0.242086 0.966657 6908013 3
0.180725 0.242086 0.966657 5987163 3
0.196597 0.242086 0.966657 6513759 3
0.110423 0.242960 0.910456 7237489 3
0.125371 0.242960 0.910456 7566454 3
0.183171 0.240342 0.900645 6381919 3
-0.157437 0.217042 0.997442 3488058 3
-0.140167 0.215668 0.991129 4145218 3
-0.122345 0.212973 0.978740 4474183 3
-0.101214 0.202831 0.932133 3224116 3
-0.134220 0.222102 0.949081 4606539 3
-0.116196 0.217532 0.929554 4803918 3
-0.153194 0.243065 0.970565 5396566 3
-0.131957 0.233678 0.933080 5264467 3
-0.114195 0.228785 0.913545 4869709 3
-0.134975 0.254692 0.954419 6448741 3
-0.116958 0.249682 0.935643 6777192 3
-0.134431 0.269272 0.950570 6579813 3
-0.877632 0.212973 0.978740 2170920 3
-0.861562 0.212973 0.978740 1117719 3
-0.845492 0.212973 0.978740 2762542 3
-0.829422 0.212973 0.978740 1512475 3
-0.813352 0.212973 0.978740 2039074 3
0.370496 0.159921 0.794916 5329494 3
0.359268 0.173855 0.798972 3026226 3
0.356038 0.166222 0.763895 2829101 3
0.359804 0.162265 0.745707 4079168 3
0.383744 0.157030 0.721652 4999506 3
0.395593 0.157030 0.721652 5328471 3
0.342334 0.184912 0.790163 6250337 3
0.347852 0.181032 0.773583 5855579 3
0.350652 0.176061 0.752340 4013375 3
0.354545 0.171958 0.734807 4078653 3
0.357718 0.167787 0.716984 2565416 3
0.366720 0.166529 0.711610 3617337 3
0.373329 0.164296 0.702066 2959923 3
0.328528 0.197386 0.788169 7039851 3
0.337244 0.194944 0.778417 6710886 3
0.335152 0.186660 0.745340 5329233 3
0.342565 0.184068 0.734989 8026235 3
0.342242 0.177637 0.709309 7499889 3
0.362825 0.176320 0.704051 6973294 3
0.305919 0.195852 0.733926 6711399 3
-0.188198 0.217272 1.079989 3157813 1
-0.161553 0.205911 1.023519 2171431 1
-0.143808 0.204574 1.016873 5066063 1
-0.127111 0.204574 1.016873 3749949 1
-0.184383 0.230241 1.058097 3421497 3
-0.158163 0.234496 1.002043 5725531 3
-0.180028 0.258728 1.033106 4540748 3
-0.184383 0.282359 1.058097 6711915 3
-0.158399 0.267800 1.003539 5725531 3
-0.208811 0.220311 1.095094 3683129 3
-0.278783 0.236636 1.087489 4078655 3
-0.252171 0.228695 1.050996 4736583 3
-0.241395 0.235004 1.079989 4276032 3
-0.205931 0.235004 1.079989 3947329 3
-0.277618 0.253428 1.082944 4670792 3
-0.249350 0.243200 1.039236 5460306 3
-0.236140 0.247234 1.056477 4736583 3
-0.224863 0.254092 1.085782 5657687 3
-0.209090 0.256615 1.096560 5000017 3
-0.275284 0.268929 1.073841 5723482 3
-0.316414 0.233366 1.159988 3749942 3
-0.346434 0.280338 1.197937 3946551 3
-0.320285 0.274779 1.174178 4275518 3
-0.360585 0.295486 1.179882 4669763 3
-0.334546 0.289713 1.156830 5591378 3
-0.310958 0.285494 1.139986 4802376 3
-0.338458 0.295537 1.107480 5985623 3
-0.392281 0.258233 1.283594 2829101 3
-0.371206 0.258233 1.283594 3421236 3
-0.373893 0.266216 1.223425 3880760 3
-0.353805 0.266216 1.223425 4078653 3
-0.333718 0.266216 1.223425 3947321 3
-0.395934 0.287723 1.229494 4143417 3
-0.373893 0.286303 1.223425 4538175 3
-0.481859 0.250035 1.242845 3157812 3
-0.413356 0.258233 1.283594 3355191 3
-0.467033 0.262120 1.204603 3420727 3
-0.461453 0.270441 1.242845 2763054 3
-0.455507 0.279308 1.283594 3947582 3
-0.427425 0.274803 1.262890 3881276 3
-0.400234 0.270441 1.242845 3683381 3
-0.420640 0.290848 1.242845 4736583 3
0.675549 0.139774 0.756514 1644061 1
0.687970 0.139774 0.756514 2762546 1
0.620720 0.145182 0.721652 2894894 1
0.632569 0.145182 0.721652 3355191 1
0.675549 0.152195 0.756514 1446682 1
0.687970 0.152195 0.756514 788756 1
0.693689 0.150739 0.749275 2038569 1
0.618479 0.172973 0.794916 2433832 3
0.623943 0.154889 0.711811 3223605 3
0.650412 0.158491 0.728365 2565676 3
0.668591 0.159979 0.735204 1841701 3
0.680662 0.159979 0.735204 1973030 1
0.686290 0.158491 0.728365 3552060 1
0.685495 0.155596 0.715061 3091507 1
0.694067 0.154889 0.711811 4210500 1
0.609137 0.187164 0.799787 2499623 3
0.641782 0.185216 0.791462 3881536 3
0.612879 0.166746 0.712535 2894894 3
0.632569 0.168879 0.721652 4078914 3
0.646469 0.169417 0.723949 3882049 3
0.667857 0.171862 0.734397 3816004 3
0.683277 0.172712 0.738028 3683648 3
0.674897 0.164750 0.704006 4209988 3
0.691713 0.166012 0.709397 4539465 3
0.695102 0.164062 0.701068 4275781 3
0.620720 0.180728 0.721652 5328724 3
0.632569 0.180728 0.721652 4012609 3
0.646469 0.181303 0.723949 4473675 3
0.665689 0.183323 0.732013 3881795 3
0.601952 0.190388 0.713451 3552570 3
0.620542 0.192522 0.721445 2433832 3
0.629488 0.191639 0.718136 3486520 3
0.638533 0.190818 0.715061 2565676 3
0.828258 0.200925 1.087489 2697002 1
0.846114 0.200925 1.087489 2500136 1
0.863969 0.200925 1.087489 2630190 1
0.816912 0.215784 1.072592 2894381 1
0.834523 0.215784 1.072592 2368039 1
0.863969 0.218781 1.087489 1906465 1
0.366732 0.156396 0.846478 1513247 1
0.374556 0.153900 0.832970 1974052 1
0.346425 0.174058 0.865185 4868431 3
0.350936 0.169379 0.841927 3552571 3
0.364760 0.169379 0.841927 5526874 3
0.366753 0.164086 0.815617 5197908 3
0.305497 0.189309 0.869991 7632247 3
0.334065 0.189309 0.869991 5657946 3
0.335310 0.182223 0.837425 7960444 3
0.345366 0.180294 0.828563 4341827 3
0.349718 0.175647 0.807208 3092019 3
0.311591 0.198379 0.847709 6710888 3
0.321888 0.196172 0.838278 6250083 3
0.330136 0.192948 0.824503 6447203 3
0.334961 0.188057 0.803602 6052443 3
0.231194 0.180833 0.978740 2039844 1
0.247264 0.180833 0.978740 2631979 1
0.215124 0.196903 0.978740 2697515 3
0.231194 0.196903 0.978740 4211011 3
0.247264 0.196903 0.978740 2895151 3
0.096183 0.200925 1.087489 2696235 1
0.094220 0.214316 1.065295 5853785 3
0.077787 0.235004 1.079989 6183263 3
0.093583 0.230241 1.058097 5854039 3
0.073174 0.237748 1.015940 5855579 3
0.092955 0.245952 1.050996 6118236 3
-0.023839 0.166283 0.899991 1249816 1
-0.009010 0.165333 0.894848 2367270 1
-0.053088 0.180025 0.894848 2828590 3
-0.038396 0.180025 0.894848 1973538 3
-0.023568 0.179002 0.889764 1973538 3
-0.008959 0.179002 0.889764 3748920 3
-0.052488 0.192518 0.884737 7368305 3
-0.037962 0.192518 0.884737 8092539 3
-0.023303 0.191436 0.879766 8684676 3
-0.008859 0.191436 0.879766 8881026 3
-0.299587 0.215920 1.168645 3157551 3
-0.255491 0.211191 1.143054 2104863 1
-0.236724 0.211191 1.143054 1841695 1
-0.213285 0.206666 1.118560 2236198 1
-0.290904 0.228293 1.134771 3552309 3
-0.264602 0.221862 1.102806 3420723 3
-0.251815 0.226651 1.126607 4539204 3
-0.233317 0.226651 1.126607 4012864 3
-0.231651 0.243397 1.118560 4210243 3
-0.980622 0.301388 1.631234 2630958 3
-0.953839 0.301388 1.631234 1117719 3
-0.927056 0.301388 1.631234 1381144 3
-0.919427 0.307800 1.665941 2039585 3
-0.953839 0.328171 1.631234 1117719 3
-0.927056 0.328171 1.631234 3026226 3
-0.953839 0.354954 1.631234 2434092 3
-0.946780 0.362507 1.665941 3223605 3
1.521704 0.212597 1.262890 1710377 1
1.517956 0.209223 1.242845 1512739 1
1.521704 0.233332 1.262890 1841704 1
1.517956 0.229629 1.242845 920601 1
1.514326 0.226041 1.223425 591636 1
1.500969 0.254068 1.262890 1973289 1
1.521704 0.254068 1.262890 1315359 1
1.517956 0.250035 1.242845 1381152 1
1.538363 0.250035 1.242845 2828596 1
1.517956 0.270441 1.242845 2696751 1
1.563175 0.274803 1.262890 2696751 1
1.517956 0.290848 1.242845 1578270 1
1.555421 0.294073 1.256626 3223093 1
1.583910 0.295539 1.262890 1906719 1
0.716876 0.123765 0.735204 2500142 1
0.727360 0.121484 0.721652 1314328 1
0.735817 0.120927 0.718341 2432811 1
0.751057 0.121484 0.721652 1577500 1
0.762906 0.121484 0.721652 1577754 1
0.700392 0.139774 0.756514 1183260 1
0.705992 0.138437 0.749275 1315100 1
0.710208 0.134573 0.728365 2039332 1
0.717441 0.131515 0.711811 1775647 1
0.729128 0.131515 0.711811 1248535 1
0.744198 0.132115 0.715061 2038051 1
0.752503 0.131515 0.711811 1971999 1
0.702630 0.150021 0.745707 2630960 1
0.701511 0.147217 0.731768 2301993 1
0.703662 0.145182 0.721652 2302504 1
0.708976 0.143856 0.715061 2499625 1
0.710978 0.141912 0.705398 1973281 1
0.719319 0.141275 0.702235 1775133 1
0.737463 0.142554 0.708590 1840926 1
0.745723 0.141912 0.705398 1643034 1
0.702560 0.154188 0.708590 2499623 1
0.734141 0.153494 0.705398 2893614 1
0.596793 0.151506 0.899991 2566958 1
0.584688 0.144846 0.860431 2105635 1
0.595543 0.144055 0.855729 1841952 1
0.561308 0.156396 0.846478 1119510 1
0.572114 0.155555 0.841927 1381912 1
0.585938 0.155555 0.841927 2631468 1
0.599761 0.155555 0.841927 3025200 1
0.541555 0.168473 0.837425 3487290 1
0.552351 0.167577 0.832970 3356472 1
0.563033 0.166690 0.828563 4211011 1
0.573602 0.165813 0.824202 3355191 1
0.593381 0.167577 0.832970 2433063 1
0.572080 0.174747 0.803069 4867918 3
0.587540 0.188663 0.806189 5000017 3
0.127468 0.176926 1.050996 2105638 1
0.145702 0.178122 1.058097 3223605 1
0.110211 0.194183 1.050996 3551544 1
0.127468 0.194183 1.050996 2763057 1
0.143759 0.192888 1.043989 2697262 1
0.031962 0.137302 0.815617 2368039 1
0.045354 0.137302 0.815617 1907746 1
0.064086 0.149784 0.889764 2894132 1
0.005682 0.165333 0.894848 1182483 1
0.019699 0.159852 0.865185 2367270 1
0.031962 0.150694 0.815617 3683899 1
0.045354 0.150694 0.815617 2565418 1
0.059995 0.153900 0.832970 1973026 1
0.005555 0.176002 0.874852 3485237 3
0.019699 0.174058 0.865185 5393747 3
0.032642 0.167577 0.832970 4802891 3
0.047326 0.171220 0.851078 4802891 3
0.005555 0.190367 0.874852 7499889 3
0.019919 0.190367 0.874852 7499889 3
0.033718 0.187229 0.860431 7303282 3
0.048921 0.191436 0.879766 4868684 3
-0.090205 0.164763 0.978740 2697774 1
-0.074135 0.164763 0.978740 2566703 1
-0.090205 0.180833 0.978740 2631468 1
-0.071888 0.175353 0.949081 2697261 1
-0.054014 0.168216 0.910456 2170920 1
-0.039065 0.168216 0.910456 2828850 1
-0.085909 0.187526 0.932133 2960433 1
-0.069366 0.184236 0.915780 1973538 3
-0.084402 0.199273 0.915780 4211011 3
-0.068564 0.196969 0.905193 4473926 3
-0.164784 0.175747 1.043989 2302506 1
-0.143808 0.171182 1.016873 2828590 1
-0.127111 0.171182 1.016873 3091760 1
-0.109703 0.170078 1.010312 3355445 1
-0.163692 0.191611 1.037076 3289401 1
-0.143808 0.187878 1.016873 3026226 1
-0.127111 0.187878 1.016873 3092019 1
-0.109703 0.186666 1.010312 3947328 1
0.118704 0.148693 0.978740 2698802 1
0.131487 0.145066 0.954868 2697261 1
0.147165 0.145066 0.954868 3091758 1
0.162843 0.145066 0.954868 2960687 1
0.101367 0.162729 0.966657 3223606 1
0.148982 0.162729 0.966657 2697000 1
0.162843 0.160744 0.954868 2697515 1
0.182984 0.164763 0.978740 2631469 1
0.150844 0.180833 0.978740 3355445 1
0.166914 0.180833 0.978740 3158066 1
0.182984 0.180833 0.978740 3289399 1
0.103934 0.199395 0.991129 6511715 3
0.120207 0.199395 0.991129 4604748 3
0.136480 0.199395 0.991129 4934224 3
0.150844 0.196903 0.978740 5197395 3
0.166914 0.196903 0.978740 3947582 3
0.182984 0.196903 0.978740 4539465 3
0.199054 0.196903 0.978740 3026226 3
-0.988881 0.149434 1.102806 1051928 1
-0.970774 0.149434 1.102806 787986 1
-0.970774 0.167541 1.102806 1973028 1
-0.988881 0.185648 1.102806 1578270 1
-0.970774 0.185648 1.102806 1118232 1
-1.074566 0.207205 1.739982 2170407 1
-1.023258 0.202701 1.702157 2039591 1
-1.079153 0.230648 1.702157 1380121 1
-1.011333 0.241132 1.779528 1973281 1
-1.074566 0.264343 1.739982 525582 1
-1.011333 0.270351 1.779528 1512730 1
-1.374006 0.245375 2.060506 1445401 1
-1.340175 0.245375 2.060506 1182742 1
-1.371739 0.272047 2.007672 1445403 1
-1.338775 0.272047 2.007672 1445403 1
-1.305811 0.272047 2.007672 1576987 1
0.878287 0.141612 0.932133 1051926 1
0.847678 0.156917 0.932133 2367788 1
0.862983 0.156917 0.932133 2367018 1
0.878287 0.156917 0.932133 2565167 1
0.893592 0.156917 0.932133 2302506 1
0.907941 0.153900 0.832970 1380375 1
0.912797 0.168473 0.837425 788237 1
0.936563 0.170294 0.846478 1512477 1
0.918698 0.186206 0.855729 2827820 1
0.937874 0.187229 0.860431 1973279 1
0.946799 0.186206 0.855729 657421 1
0.993420 0.192518 0.884737 1315609 1
-0.837717 0.133203 1.118560 2565678 1
-0.837717 0.151569 1.118560 2038823 1
-0.837717 0.169935 1.118560 985365 1
-0.856039 0.177544 1.168645 2169639 1
-0.856039 0.196732 1.168645 1380639 1
0.414704 0.152195 0.756514 3749952 1
0.401886 0.154889 0.711811 4999504 3
0.413573 0.154889 0.711811 6117985 3
0.431139 0.157030 0.721652 5197138 3
0.495978 0.171234 0.786927 5592153 3
0.418731 0.164019 0.700883 2960174 3
0.441309 0.168239 0.718916 3420727 3
0.481028 0.178604 0.763206 4473672 3
0.498871 0.180526 0.771421 4671052 3
0.439359 0.179248 0.715740 3420727 3
0.467771 0.185867 0.742173 3288886 3
0.479675 0.185758 0.741737 3289399 3
0.487379 0.184068 0.734989 2500142 3
0.497850 0.183480 0.732639 2368810 3
0.435407 0.189281 0.709301 6447205 3
0.463379 0.196193 0.735204 5591896 3
0.475173 0.196079 0.734776 6118498 3
0.482986 0.194368 0.728365 5724253 3
0.495236 0.194482 0.728792 6447976 3
0.476228 0.172516 0.575641 7302512 3
0.480557 0.170696 0.569569 5789273 3
0.487185 0.160553 0.535724 4867918 3
0.496511 0.160725 0.536296 4671054 3
0.452206 0.169426 0.535967 6380640 3
0.454484 0.167029 0.528385 7302510 3
0.462180 0.166676 0.527267 5920857 3
0.470937 0.166711 0.527379 5920859 3
0.482338 0.167664 0.530395 6381412 3
0.493238 0.168413 0.532761 5657947 3
0.449806 0.177280 0.533122 5526101 3
0.454484 0.175705 0.528385 7170924 3
0.461114 0.174929 0.526051 7170924 3
0.470443 0.175186 0.526826 7697270 3
0.481216 0.175963 0.529161 7960442 3
0.491461 0.176522 0.530842 6250083 3
0.443171 0.179791 0.515233 5855066 3
0.453216 0.180422 0.517041 3815483 3
0.465645 0.181961 0.521453 4539206 3
0.473615 0.181734 0.520802 6052445 3
0.433371 0.184087 0.503838 5197138 3
0.447954 0.186718 0.511038 5789275 3
0.462564 0.189263 0.518003 5197138 3
0.469423 0.188601 0.516192 4868171 3
0.300935 0.165420 0.583956 6907754 3
0.309855 0.174631 0.582699 6512226 3
0.305603 0.181671 0.574703 8092026 3
0.301039 0.188253 0.566120 8092026 3
0.337293 0.182716 0.549468 5855325 3
0.345407 0.182237 0.548028 6776941 3
0.349303 0.179614 0.540140 7566456 3
0.352381 0.176709 0.531406 4605772 3
0.359734 0.176038 0.529387 4144707 3
0.365719 0.174745 0.525498 4736844 3
0.371782 0.173547 0.521897 5789786 3
0.326898 0.185828 0.532535 8290694 3
0.334575 0.185238 0.530842 6448492 3
0.341630 0.184342 0.528274 6711917 3
0.346794 0.182495 0.522981 6776940 3
0.353532 0.181545 0.520261 7368564 3
0.361250 0.181132 0.519076 5789786 3
0.367719 0.180126 0.516192 3552311 3
-0.785788 0.423086 4.121011 2171431 1
-0.718125 0.423086 4.121011 1644061 1
-0.785788 0.490749 4.121011 1710880 1
-0.768280 0.103059 1.003836 1644061 1
-0.781870 0.107182 1.043989 394507 1
-0.794953 0.121094 1.016873 854030 1
-0.799011 0.124323 1.043989 2301991 1
-0.799011 0.141464 1.043989 1709340 1
-0.799011 0.158606 1.043989 1380121 1
-0.768280 0.168987 1.003836 1907748 1
-0.792435 0.178122 1.058097 1183260 1
-0.751798 0.185469 1.003836 1315868 1
-0.797282 0.100483 0.978740 986131 1
-0.781213 0.100483 0.978740 2301477 1
-0.774828 0.101755 0.991129 1643547 1
-0.791101 0.166848 0.991129 1841440 1
-0.774828 0.166848 0.991129 2565676 1
-0.791101 0.183122 0.991129 855058 3
-0.765143 0.180833 0.978740 1644574 1
-0.749073 0.180833 0.978740 1908259 1
-0.797282 0.196903 0.978740 1841952 3
-0.781213 0.196903 0.978740 2368296 3
-0.765143 0.196903 0.978740 2236710 3
-0.749073 0.196903 0.978740 2105637 3
-0.856195 0.101755 0.991129 1642266 1
-0.839921 0.101755 0.991129 1313815 1
-0.813352 0.100483 0.978740 722191 1
-0.807375 0.183122 0.991129 2039332 3
-0.829422 0.196903 0.978740 1249815 3
-0.813352 0.196903 0.978740 1710366 3
-0.883654 0.103059 1.003836 1971747 1
-0.895130 0.121094 1.016873 1182744 1
-0.878434 0.121094 1.016873 1445403 1
-0.850690 0.119541 1.003836 1972260 1
-0.834208 0.119541 1.003836 1841444 1
-0.817726 0.119541 1.003836 787984 1
-0.801244 0.119541 1.003836 854031 1
-0.884717 0.141464 1.043989 2367788 1
-0.867576 0.141464 1.043989 1051926 1
-0.850435 0.141464 1.043989 525582 1
-0.822329 0.139603 1.030253 1051410 1
-0.816152 0.141464 1.043989 1314581 1
-0.867576 0.158606 1.043989 1447197 1
-0.850435 0.158606 1.043989 1512475 1
-0.822329 0.156519 1.030253 1117717 1
-0.805413 0.156519 1.030253 1840925 1
-0.873076 0.173434 1.030253 1118743 1
-0.845042 0.171182 1.016873 1512988 1
-0.828345 0.171182 1.016873 2039332 1
-0.889992 0.190350 1.030253 1381915 1
-0.873076 0.190350 1.030253 920850 3
-0.834208 0.185469 1.003836 1184022 3
-0.928522 0.104398 1.016873 1117719 1
-0.900136 0.103059 1.003836 1511711 1
-0.993002 0.129503 1.087489 1578272 1
-0.923823 0.122687 1.030253 1578272 1
-0.939436 0.147359 1.087489 1116951 1
-0.939436 0.165214 1.087489 1841442 1
-0.921580 0.165214 1.087489 789267 1
-0.939436 0.183070 1.087489 1118232 1
-0.923823 0.190350 1.030253 2170918 1
-0.906908 0.190350 1.030253 1381402 1
0.278610 0.224757 0.793423 6646122 3
0.290439 0.223833 0.790163 5527641 3
0.298145 0.219947 0.776445 5921629 3
0.296579 0.209820 0.740695 6250594 3
0.276255 0.235775 0.786718 7106673 3
0.287803 0.234658 0.782992 7567224 3
0.217833 0.228094 0.721559 8486268 3
0.244140 0.242454 0.766985 7763572 3
0.265768 0.250987 0.793978 7960955 3
0.278610 0.250811 0.793423 8355970 3
0.288711 0.248295 0.785464 7237232 3
0.272148 0.224043 0.708743 7172466 3
0.252190 0.250534 0.753414 8355970 3
-1.414629 0.116163 2.174978 1841693 1
-1.414629 0.151873 2.174978 657932 1
-1.445888 0.182515 2.116195 1314328 1
-1.450340 0.187584 2.174978 1841695 1
-1.414629 0.187584 2.174978 855057 1
-0.934373 0.032871 1.597943 1643293 1
-0.934373 0.059107 1.597943 1511709 1
-0.908136 0.059107 1.597943 1380375 1
-0.934373 0.085344 1.597943 1905701 1
-0.908136 0.085344 1.597943 1249307 1
-0.780633 0.018949 0.921167 1644061 1
-0.789926 0.034479 0.932133 1906719 1
-0.799443 0.050384 0.943364 721932 1
-0.783954 0.050384 0.943364 1972512 1
-0.768465 0.050384 0.943364 1051926 1
-0.771568 0.051628 0.966657 1445914 1
-0.755696 0.051628 0.966657 1774883 1
-0.799443 0.065873 0.943364 1050897 1
-0.783954 0.065873 0.943364 722445 1
-0.768465 0.065873 0.943364 1315096 1
-0.771568 0.067499 0.966657 1445914 1
-0.755696 0.067499 0.966657 2432811 1
-0.739825 0.067499 0.966657 1907237 1
-0.787440 0.083371 0.966657 1051924 1
-0.771568 0.083371 0.966657 1182996 1
-0.755696 0.083371 0.966657 1182742 1
-0.758555 0.085482 0.991129 854547 1
-0.830421 0.019406 0.943364 2170409 1
-0.871905 0.035320 0.954868 1447194 1
-0.835840 0.034479 0.932133 986644 1
-0.820535 0.034479 0.932133 1117719 1
-0.805231 0.034479 0.932133 1380889 1
-0.871905 0.050998 0.954868 1052436 1
-0.835840 0.049784 0.932133 394507 1
-0.820535 0.049784 0.932133 1183512 1
-0.814932 0.050384 0.943364 722191 1
-0.830421 0.065873 0.943364 1248537 1
-0.814932 0.065873 0.943364 1116436 1
-0.866797 0.083371 0.966657 1644065 1
-0.861562 0.084413 0.978740 787986 1
-0.845492 0.084413 0.978740 984850 1
-0.829422 0.084413 0.978740 1708573 1
-0.813352 0.084413 0.978740 1446168 1
-1.191765 0.017109 4.121011 1446168 1
-1.124102 0.017109 4.121011 985617 1
-1.191765 0.084772 4.121011 919824 1
-0.927056 0.006772 1.631234 1051409 1
-0.900272 0.006772 1.631234 1841695 1
-0.927056 0.033555 1.631234 1775132 1
-0.900272 0.033555 1.631234 1183763 1
-0.900272 0.060339 1.631234 1249558 1
-0.900272 0.087122 1.631234 1380889 1
-1.154443 0.007560 1.820912 1315096 1
-1.181930 0.038349 1.864267 1381144 1
-1.124545 0.037457 1.820912 1380121 1
-1.124545 0.067355 1.820912 1775133 1
-1.124545 0.097252 1.820912 1446168 1
-1.450340 0.009030 2.174978 855060 1
-1.486051 0.044741 2.174978 1578272 1
-1.450340 0.044741 2.174978 1117719 1
-1.450340 0.080452 2.174978 853777 1
-1.414629 0.080452 2.174978 1183765 1
-1.480835 0.203993 3.819474 1379862 1
-1.418123 0.203993 3.819474 2038821 1
-1.418123 0.266705 3.819474 2433579 1
-1.179401 -0.086140 1.909737 854295 1
-1.148045 -0.086140 1.909737 525584 1
-1.116689 -0.086140 1.909737 525841 1
-1.176746 -0.056153 1.957480 1051158 1
-1.144606 -0.024013 1.957480 1380121 1
0.280889 0.175747 1.043989 2434089 1
0.204158 0.185469 1.003836 2894641 1
0.220640 0.185469 1.003836 2828847 1
0.280889 0.192888 1.043989 3420984 1
0.296057 0.191611 1.037076 2829101 1
0.331761 0.166848 0.991129 2169891 1
0.303945 0.176422 0.954868 3881536 1
0.312013 0.172222 0.932133 2763055 1
0.323467 0.170195 0.921167 3487031 1
0.300283 0.189786 0.943364 4276294 3
0.310167 0.186417 0.926618 6316389 3
0.321575 0.184236 0.915780 2763308 3
-1.162996 -0.132672 1.702157 1183514 1
-1.135049 -0.132672 1.702157 1709854 1
-1.107101 -0.132672 1.702157 920338 1
-1.131703 -0.107052 1.739982 1183510 1
-1.103134 -0.107052 1.739982 1051926 1
-1.090101 -0.175917 1.864267 460561 1
-1.094648 -0.141928 1.820912 1052696 1
-1.064750 -0.141928 1.820912 789267 1
-1.064750 -0.112031 1.820912 1973798 1
-1.034853 -0.112031 1.820912 1184282 1
-1.181930 -0.175917 1.864267 591375 1
-1.124545 -0.171826 1.820912 855060 1
-1.120711 -0.175917 1.864267 1447456 1
-1.124545 -0.112031 1.820912 854806 1
-1.120711 -0.114698 1.864267 855060 1
