# .PCD v0.7
VERSION 0.7
FIELDS x y z rgb label
SIZE 4 4 4 4 4
TYPE F F F U U
COUNT 1 1 1 1 1
WIDTH 1283
HEIGHT 1
VIEWPOINT 0 0 0 1 0 0 0
POINTS 1283
DATA ascii
-0.192479 0.218383 0.597704 5987165 3
-0.182665 0.218383 0.597704 6710886 3
-0.172851 0.218383 0.597704 5921370 3
-0.163038 0.218383 0.597704 6645091 3
-0.151640 0.216125 0.591525 5131856 3
-0.136398 0.207705 0.568479 5461078 3
-0.196855 0.222063 0.581637 6447714 3
-0.188170 0.223088 0.584322 8552579 3
-0.178576 0.223088 0.584322 5657685 3
-0.169855 0.224241 0.587343 5855318 3
-0.159762 0.223612 0.585695 4802376 3
-0.145380 0.216515 0.567106 7566195 3
-0.131628 0.209449 0.548599 7500915 3
-0.190315 0.213557 0.536296 6053469 3
-0.184127 0.216637 0.544031 7895160 3
-0.179815 0.222351 0.558380 8421506 3
-0.172152 0.224312 0.563304 6184542 3
-0.162903 0.224312 0.563304 6316126 3
-0.152900 0.223210 0.560537 7500402 3
-0.140636 0.218457 0.548599 8422017 3
-0.175195 0.225570 0.544031 7895162 3
-0.168968 0.229242 0.552886 7960953 3
-0.160592 0.230248 0.555314 8224123 3
-0.151475 0.230248 0.555314 8026746 3
-0.140318 0.226950 0.547360 7698294 3
-0.156162 0.232762 0.539995 8290429 3
-0.147296 0.232762 0.539995 8356224 3
-0.288541 0.209741 0.574051 3289139 3
-0.273165 0.205270 0.561813 4276293 3
-0.299444 0.220253 0.576899 2367521 3
-0.281669 0.213947 0.560380 3947069 3
-0.266138 0.208976 0.547360 2828847 3
-0.254241 0.206611 0.541166 6974060 3
-0.241412 0.203291 0.532469 6052958 3
-0.206745 0.222429 0.582596 5723991 3
-0.298029 0.228640 0.574173 3486516 3
-0.277671 0.219981 0.552427 4341827 3
-0.263126 0.215497 0.541166 5197395 3
-0.249008 0.211061 0.530028 5526612 3
-0.237160 0.208298 0.523090 6974060 3
-0.225876 0.231994 0.582596 6447201 3
-0.203695 0.218464 0.548619 6842985 3
-0.297338 0.237515 0.572840 3421238 3
-0.277671 0.229051 0.552427 5657946 3
-0.258280 0.220250 0.531200 5658200 3
-0.298837 0.248166 0.575729 6053215 3
-0.277036 0.237576 0.551162 5066322 3
-0.294506 0.253885 0.567386 6447975 3
-0.396530 0.202322 0.553745 3027505 3
-0.308539 0.217183 0.594420 4671044 3
-0.394275 0.205500 0.538255 4738375 3
-0.392299 0.209158 0.547838 4408642 3
-0.383748 0.225259 0.590008 4670022 3
-0.357838 0.215489 0.564421 5263442 3
-0.345396 0.213527 0.559280 3158323 3
-0.337876 0.214583 0.562046 3156526 3
-0.334378 0.218325 0.571846 3024938 3
-0.332270 0.223216 0.584658 5459792 3
-0.324910 0.224765 0.588716 4078655 3
-0.315244 0.224765 0.588716 4341057 3
-0.396524 0.215560 0.541325 4014651 3
-0.397526 0.226247 0.568164 5329233 3
-0.387932 0.226093 0.567775 4802378 3
-0.370172 0.221054 0.555122 4078655 3
-0.358638 0.219573 0.551403 3552311 3
-0.349585 0.219573 0.551403 5329492 3
-0.340236 0.219382 0.550924 5000270 3
-0.326874 0.216523 0.543745 3024940 3
-0.319475 0.217564 0.546359 3617075 3
-0.317336 0.222351 0.558380 3618102 3
-0.318861 0.230066 0.577754 4408133 3
-0.311298 0.231497 0.581347 3947069 3
-0.398425 0.236109 0.569449 5263440 3
-0.387932 0.235415 0.567775 4539719 3
-0.366661 0.227985 0.549857 3092273 3
-0.353657 0.225451 0.543745 3552824 3
-0.344880 0.225550 0.543982 4408390 3
-0.337859 0.226832 0.547075 2894894 3
-0.324620 0.223896 0.539995 3814713 3
-0.315754 0.223896 0.539995 5196620 3
-0.309838 0.226049 0.545187 5328720 3
-0.308168 0.231519 0.558380 3092530 3
-0.306211 0.237103 0.571846 2960687 3
-0.389840 0.240170 0.557179 4145472 3
-0.383204 0.241754 0.560855 3750460 3
-0.362585 0.234379 0.543745 2895151 3
-0.350327 0.232171 0.538624 4934734 3
-0.340007 0.231168 0.536296 3618874 3
-0.331202 0.231168 0.536296 4671305 3
-0.322396 0.231168 0.536296 3618104 3
-0.315078 0.232264 0.538839 3881274 3
-0.309838 0.235001 0.545187 5592405 3
-0.302189 0.236018 0.547547 3751230 3
-0.303574 0.244370 0.566922 4803148 3
-0.458472 0.201574 0.551698 4013375 3
-0.452359 0.202895 0.555314 3158066 3
-0.445130 0.203759 0.557680 2500134 3
-0.452846 0.204016 0.534370 2762797 3
-0.457498 0.210185 0.550526 1315862 3
-0.451260 0.211497 0.553964 2697772 3
-0.440606 0.210752 0.552012 3026991 3
-0.414809 0.226350 0.592866 4934475 3
-0.443537 0.204455 0.513437 2368296 3
-0.450579 0.211725 0.531695 2697002 3
-0.448746 0.215030 0.539995 2829101 3
-0.444505 0.217291 0.545672 2829358 3
-0.404904 0.210671 0.529049 4211530 3
-0.401854 0.213668 0.536574 3290679 3
-0.402110 0.223609 0.561538 3553335 3
-0.412035 0.218532 0.527058 3750460 3
-0.400842 0.217157 0.523741 2763567 3
0.171241 0.209318 0.599851 8421506 3
0.180442 0.208569 0.597704 7894647 3
0.189758 0.208024 0.596141 8355198 3
0.199356 0.207826 0.595573 8816264 3
0.169980 0.217553 0.595431 8882055 3
0.179756 0.217553 0.595431 8420991 3
0.107373 0.201564 0.527947 10395296 3
0.146297 0.207596 0.543745 8815749 3
0.155224 0.207596 0.543745 9013128 3
0.164046 0.207462 0.543394 10789539 3
0.171296 0.205455 0.538139 9276300 3
0.179210 0.204405 0.535387 9671573 3
0.185972 0.202199 0.529609 9408401 3
0.106249 0.208031 0.522419 9079436 3
0.111866 0.202669 0.508954 7763576 3
0.119809 0.201972 0.507203 8355200 3
0.128170 0.202024 0.507334 9078921 3
0.145288 0.215030 0.539995 8947335 3
0.154154 0.215030 0.539995 9342093 3
0.162916 0.214892 0.539649 8947335 3
0.170126 0.212828 0.534466 9736851 3
0.178446 0.212286 0.533103 9539474 3
0.186405 0.211385 0.530842 9408401 3
0.191149 0.207083 0.520038 9145740 3
0.194741 0.201953 0.507155 8159359 3
0.107597 0.219358 0.529049 8487297 3
0.116283 0.219358 0.529049 8684678 3
0.125554 0.220384 0.531523 9276302 3
0.131522 0.215855 0.520602 9144714 3
0.140575 0.216634 0.522479 8815751 3
0.151735 0.220384 0.531523 7894649 3
0.160836 0.220897 0.532761 7434098 3
0.171336 0.223180 0.538267 8420993 3
0.179442 0.222273 0.536080 8026235 3
0.187039 0.220850 0.532648 8420993 3
-0.391419 0.240334 0.688735 5197134 3
-0.374569 0.236831 0.678694 5131341 3
-0.359320 0.234155 0.671027 4737096 3
-0.351047 0.236001 0.676315 4013373 3
-0.396160 0.234377 0.641479 4407620 3
-0.379596 0.230711 0.631445 5525074 3
-0.367197 0.229442 0.627972 5065034 3
-0.354047 0.227617 0.622976 4604483 3
-0.339277 0.224610 0.614747 3749688 3
-0.325813 0.222310 0.608452 3683895 3
-0.320692 0.249406 0.682612 4342340 3
0.077568 0.187316 0.563304 9539985 3
0.086817 0.187316 0.563304 9145740 3
0.047433 0.187141 0.536296 8026746 3
0.075663 0.191737 0.549468 8750469 3
0.084042 0.190282 0.545299 9408912 3
0.091657 0.187544 0.537452 9869463 3
0.055679 0.193999 0.530966 8553088 3
0.065526 0.197401 0.540277 8882057 3
0.074858 0.198625 0.543627 8750469 3
0.083100 0.197003 0.539188 9343119 3
0.091245 0.195487 0.535038 8422017 3
0.099923 0.195278 0.534466 9473679 3
-0.234422 0.230324 0.692636 5591894 3
-0.216027 0.223072 0.670828 5789786 3
-0.242207 0.238168 0.682527 6184031 3
-0.224492 0.231457 0.663294 5197136 3
-0.203796 0.220832 0.632846 4210754 3
-0.255344 0.240633 0.658600 4276034 3
-0.229411 0.225754 0.617879 5920859 3
-0.217078 0.223501 0.611713 5460308 3
-0.203774 0.219982 0.602082 6052445 3
-0.250916 0.247086 0.647181 6644580 3
-0.225249 0.231620 0.606669 5987163 3
-0.264947 0.261068 0.655607 5460560 3
0.362747 0.157342 0.497741 5592664 3
0.365824 0.155181 0.490904 6184544 3
0.362959 0.165612 0.498032 5461078 3
0.369225 0.164758 0.495467 5723993 3
0.376243 0.164271 0.494001 6645095 3
0.363752 0.174168 0.499120 4474183 3
0.370324 0.173408 0.496942 5066063 3
0.376169 0.172348 0.493904 6052958 3
0.383146 0.171840 0.492448 4144448 3
0.391308 0.171874 0.492545 4934477 3
0.322519 0.182218 0.498721 7304052 3
0.330707 0.182218 0.498721 7041139 3
0.338896 0.182218 0.498721 6579813 3
0.347084 0.182218 0.498721 7697268 3
0.355273 0.182218 0.498721 6907754 3
0.363389 0.182181 0.498622 7368818 3
0.370251 0.181532 0.496845 8224127 3
0.375060 0.179926 0.492448 6184544 3
0.382320 0.179538 0.491387 5789273 3
0.390081 0.179397 0.491001 5131343 3
0.321495 0.189802 0.497138 7369845 3
0.329723 0.189839 0.497237 5264982 3
0.339640 0.190824 0.499816 7172466 3
-0.165851 0.218508 0.691233 8027005 3
-0.198218 0.215679 0.648596 5395026 3
-0.186927 0.214941 0.646376 5329233 3
-0.187874 0.214516 0.614747 5000268 3
-0.176903 0.213458 0.611713 2894892 3
-0.166859 0.213458 0.611713 5855575 3
-0.156815 0.213458 0.611713 6316130 3
-0.146772 0.213458 0.611713 6316387 3
-0.150156 0.234422 0.671791 6119008 3
0.290514 0.174507 0.582286 8289666 3
0.200309 0.189168 0.598420 8026748 3
0.209334 0.188448 0.596141 8619142 3
0.284109 0.180010 0.569449 8684678 3
0.200069 0.198756 0.597704 8618885 3
0.209883 0.198756 0.597704 8684935 3
0.219123 0.198236 0.596141 8554119 3
0.282058 0.187993 0.565337 8421506 3
0.292797 0.188933 0.568164 8749958 3
0.216012 0.196303 0.562551 8027775 3
0.278043 0.194467 0.557290 6710375 3
0.287898 0.194944 0.558658 7433328 3
0.219033 0.184718 0.505566 8618885 3
0.226558 0.184087 0.503838 8224638 3
0.237800 0.186416 0.510211 8816523 3
0.251026 0.190087 0.520261 8816010 3
0.257807 0.188798 0.516731 8881544 3
0.201215 0.191859 0.502526 8883082 3
0.209843 0.192204 0.503431 8224127 3
0.216932 0.191168 0.500716 8486786 3
0.233188 0.191014 0.500314 9211281 3
0.241934 0.191435 0.501417 8223874 3
0.250417 0.191627 0.501918 8749191 3
0.131877 0.179814 0.599994 5263442 3
0.181133 0.189666 0.599994 8552577 3
0.190985 0.189666 0.599994 7302764 3
0.181133 0.199517 0.599994 8881542 3
0.190483 0.198994 0.598420 8158073 3
0.100265 0.187141 0.536296 7631475 3
0.108956 0.186944 0.535732 8223614 3
0.115359 0.183144 0.524843 7631477 3
0.124241 0.183535 0.525962 7434098 3
0.108607 0.195113 0.534016 10723748 3
0.115335 0.191722 0.524734 9671060 3
0.123303 0.190721 0.521995 9407888 3
0.190689 0.198412 0.543043 10658466 3
0.199391 0.198198 0.542459 9737877 3
0.113576 0.197282 0.516731 8947850 3
0.121134 0.195786 0.512812 8881544 3
0.130325 0.196951 0.515863 9473679 3
0.190401 0.197768 0.518003 9540498 3
0.193089 0.191983 0.502853 8685957 3
0.112606 0.180506 0.602302 5592407 3
0.122465 0.180463 0.602157 5592407 3
0.143007 0.181437 0.605409 7631477 3
0.112606 0.190395 0.602302 7894647 3
0.122850 0.190947 0.604047 9013641 3
0.133410 0.191871 0.606971 7895160 3
0.142996 0.191362 0.605359 6974060 3
0.152346 0.190625 0.603028 7697529 3
0.162052 0.190395 0.602302 8289666 3
0.171900 0.190350 0.602157 7895162 3
-0.225745 0.233942 0.780605 6250337 3
-0.200486 0.220272 0.734989 6842470 3
-0.291732 0.248379 0.785730 6249824 3
-0.266234 0.237158 0.750232 5394515 3
-0.247564 0.231226 0.731466 5065550 3
-0.231997 0.227734 0.720420 6316130 3
-0.215491 0.222895 0.705113 6447716 3
-0.202582 0.221440 0.700510 7237230 3
-0.293684 0.251890 0.757490 3683897 3
-0.270718 0.242460 0.729134 5197136 3
-0.251759 0.235912 0.709443 5986652 3
-0.282690 0.254432 0.729134 5855066 3
-0.261800 0.246050 0.705113 6578789 3
-0.298465 0.269842 0.738545 4341057 3
-0.291400 0.275294 0.721063 6973031 3
-0.489275 0.209575 0.699296 2302503 3
-0.499378 0.220448 0.697371 3618876 3
-0.480556 0.217117 0.686835 4342597 3
-0.472532 0.218623 0.691597 5986911 3
-0.452808 0.220074 0.696187 5460310 3
-0.491818 0.223268 0.671418 3750203 3
-0.483224 0.224396 0.674812 2697772 3
-0.467493 0.222186 0.668164 3487288 3
-0.459599 0.223683 0.672667 4934223 3
-0.455383 0.227088 0.682907 5789275 3
-0.444896 0.227459 0.684023 4473413 3
-0.441297 0.231463 0.696062 3026480 3
-0.468862 0.233839 0.670122 4474183 3
-0.462840 0.236383 0.677411 4802891 3
-0.457888 0.239612 0.686664 3749692 3
-0.431745 0.243952 0.699100 4737098 3
-0.420267 0.243952 0.699100 5064780 3
-0.406301 0.242467 0.694847 4736069 3
-0.461097 0.240787 0.659022 2566440 3
-0.465519 0.248938 0.681332 3355445 3
-0.458002 0.250949 0.686835 3486518 3
-0.441430 0.247974 0.678694 2433828 3
-0.422953 0.243748 0.667128 3487029 3
-0.422513 0.236094 0.618388 3749690 3
-0.414383 0.237252 0.621422 3419955 3
-0.558009 0.209516 0.699100 2499882 3
-0.546530 0.209516 0.699100 2565416 3
-0.535052 0.209516 0.699100 2302246 3
-0.520388 0.208241 0.694847 3091507 3
-0.558009 0.220994 0.699100 2105124 3
-0.546530 0.220994 0.699100 2763054 3
-0.531797 0.219650 0.694847 3092020 3
-0.518940 0.219039 0.692913 2236711 3
-0.512257 0.221065 0.699322 2960434 3
-0.059881 0.223946 0.790560 7434609 3
-0.046136 0.220292 0.777662 7566195 3
-0.033263 0.219606 0.775240 7763574 3
-0.020820 0.222656 0.786007 6579302 3
-0.072861 0.236926 0.790560 4802637 3
-0.058904 0.233061 0.777662 6579300 3
-0.045682 0.230769 0.770014 5526612 3
-0.033162 0.231623 0.772865 5460821 3
-0.020676 0.233932 0.780569 5855579 3
-0.008052 0.239647 0.799641 8026494 3
-0.072370 0.248221 0.785230 5987422 3
-0.058325 0.243411 0.770014 4605769 3
-0.045541 0.242661 0.767639 7237230 3
-0.033162 0.244312 0.772865 6973547 3
-0.020676 0.246748 0.780569 5460310 3
-0.007995 0.250987 0.793978 7959672 3
-0.045541 0.255264 0.767639 8158845 3
-0.033162 0.257002 0.772865 4079168 3
-0.020676 0.259564 0.780569 5394517 3
-0.007995 0.264023 0.793978 6314849 3
-0.032327 0.262904 0.753414 7369075 3
-0.020967 0.276214 0.791555 9210768 3
-0.008045 0.278802 0.798972 9342097 3
-0.020692 0.285417 0.781174 9211279 3
-0.177848 0.225397 0.795684 5593436 3
-0.187221 0.218872 0.730320 7105131 3
-0.171073 0.213681 0.712997 6842731 3
-0.174141 0.233490 0.779097 6185830 3
-0.165351 0.239283 0.798423 5789786 3
-0.196791 0.228058 0.721445 7566193 3
-0.182647 0.225224 0.712480 8421504 3
-0.164071 0.232041 0.734047 7303282 3
-0.195050 0.237781 0.715061 5000266 3
-0.183004 0.237384 0.713869 5263442 3
-0.168182 0.233087 0.700946 5066320 3
-0.397664 0.224113 0.791152 4474437 3
-0.387134 0.225546 0.796210 5197645 3
-0.395541 0.235837 0.786927 4869195 3
-0.382620 0.235837 0.786927 6053467 3
-0.391727 0.246359 0.779340 3750460 3
-0.380707 0.247514 0.782992 5131854 3
-0.370405 0.249233 0.788430 4408129 3
-0.359402 0.250587 0.792713 4473922 3
-0.333015 0.250319 0.791867 3882300 3
-0.398450 0.255264 0.767639 4474437 3
-0.385612 0.255110 0.767174 5197906 3
-0.369618 0.252786 0.760186 5329235 3
-0.361999 0.256228 0.770536 4671301 3
-0.353897 0.259564 0.780569 5658711 3
-0.342139 0.260370 0.782992 4473924 3
-0.327042 0.258597 0.777662 5921372 3
-0.311182 0.256054 0.770014 4079168 3
-0.364410 0.252987 0.724993 4342340 3
-0.364271 0.261430 0.749188 3947582 3
-0.357137 0.265268 0.760186 4144959 3
-0.351764 0.270739 0.775865 5263953 3
-0.342139 0.273226 0.782992 4539465 3
-0.327042 0.271366 0.777662 6184290 3
-0.307081 0.265156 0.759865 6710375 3
-0.348716 0.281021 0.769142 5329492 3
-0.342139 0.286082 0.782992 7763323 3
-0.329283 0.286082 0.782992 4341574 3
-0.307463 0.268640 0.703635 6446950 3
-0.329283 0.298938 0.782992 6578536 3
-0.306500 0.279315 0.701430 5328981 3
-0.558009 0.198037 0.699100 2763055 3
-0.546530 0.198037 0.699100 2039331 3
-0.531797 0.196833 0.694847 3092020 3
-0.518940 0.196285 0.692913 3617851 3
-0.504502 0.195101 0.688735 4144197 3
0.298523 0.207462 0.777431 6381923 3
0.265583 0.224757 0.793423 7369075 3
0.274874 0.221743 0.782786 6777710 3
0.284089 0.218940 0.772888 5001044 3
0.286456 0.211324 0.746004 5329494 3
0.232873 0.219253 0.731590 7763061 3
0.196763 0.238891 0.895205 6316128 3
0.120730 0.248361 0.876748 6908265 3
0.167911 0.254414 0.898116 7237232 3
0.176937 0.246447 0.869991 6513509 3
0.189712 0.244501 0.863125 6974058 3
-0.211824 0.235590 0.882838 3224116 3
-0.232053 0.240987 0.850718 5526610 3
-0.210477 0.232580 0.821040 4802889 3
-0.291212 0.257866 0.860431 5986650 3
-0.276897 0.257691 0.859846 5855579 3
-0.252649 0.247756 0.826699 5065809 3
-0.463467 0.205736 0.770962 3091507 3
-0.457843 0.208946 0.782992 2170660 3
-0.445410 0.209145 0.783737 1907488 3
-0.438851 0.212196 0.795169 3421238 3
-0.461666 0.201070 0.709807 3551795 3
-0.452209 0.202052 0.713273 2697002 3
-0.463519 0.212612 0.750550 3420725 3
-0.463032 0.218189 0.770239 2302757 3
-0.451076 0.218524 0.771421 3289141 3
-0.438683 0.218660 0.771900 5987165 3
-0.429981 0.220698 0.779097 4868684 3
-0.417319 0.220767 0.779340 6448227 3
-0.406675 0.221942 0.783486 7106157 3
-0.483063 0.211886 0.707009 2169888 3
-0.476554 0.214178 0.714657 3288110 3
-0.461138 0.212481 0.708995 4078655 3
-0.455036 0.215100 0.717732 4604999 3
-0.447997 0.217403 0.725416 4342340 3
-0.441720 0.220211 0.734787 3421236 3
-0.436171 0.223550 0.745930 3750203 3
-0.427756 0.225572 0.752674 5000270 3
-0.423658 0.230057 0.767639 4342851 3
-0.411308 0.230199 0.768114 4342851 3
-0.404025 0.233276 0.778381 4672332 3
-0.468011 0.221862 0.701845 4933966 3
-0.447617 0.223185 0.706029 5000270 3
-0.443123 0.226818 0.717523 2960944 3
-0.435588 0.229051 0.724587 3421236 3
-0.432701 0.233922 0.739995 4802376 3
-0.423683 0.235664 0.745507 4144959 3
-0.421081 0.241185 0.762970 4276545 3
-0.411308 0.242811 0.768114 5263953 3
-0.402520 0.245139 0.775481 4014400 3
-0.442495 0.238262 0.716508 3355445 3
-0.435588 0.240948 0.724587 4407618 3
-0.431293 0.245271 0.737588 5197134 3
-0.421292 0.246506 0.741300 4078653 3
-0.413031 0.248862 0.748385 5197647 3
-0.403643 0.250662 0.753800 4671303 3
-0.457518 0.245462 0.703430 4670792 3
-0.444471 0.244638 0.701068 4013375 3
-0.427902 0.159461 0.597556 1644574 3
-0.454286 0.194603 0.557680 3618617 3
-0.469718 0.198668 0.543745 3618623 3
-0.460790 0.198668 0.543745 3684157 3
-0.449525 0.198671 0.520369 2828848 3
0.333248 0.172969 0.690668 7303025 3
0.342490 0.171915 0.686462 7499891 3
0.346752 0.168509 0.672861 7499889 3
0.355865 0.167598 0.669224 7829369 3
0.371548 0.169743 0.677788 4934477 3
0.390678 0.173292 0.691959 4276547 3
0.324968 0.186061 0.697233 7303284 3
0.321957 0.178064 0.667266 6710888 3
0.333356 0.178301 0.668156 6973547 3
0.339370 0.175735 0.658538 7499891 3
0.347151 0.174213 0.652836 8224127 3
0.367101 0.178707 0.669675 9737366 3
0.384531 0.181748 0.681072 7895162 3
0.397211 0.182436 0.683650 7895162 3
0.357682 0.184835 0.652493 7170926 3
0.376054 0.188678 0.666059 7368305 3
-0.180111 0.217803 0.869691 5658457 3
-0.163732 0.215046 0.858684 3487290 3
-0.147465 0.211930 0.846240 4145220 3
-0.131918 0.209307 0.835769 5725022 3
-0.118395 0.209660 0.837177 5001299 3
-0.107818 0.216009 0.862530 6053469 3
-0.186753 0.222964 0.835524 4079427 3
-0.177210 0.228344 0.855682 5526871 3
-0.165202 0.231201 0.866390 4474185 3
-0.147435 0.225777 0.846065 6842733 3
-0.128737 0.217652 0.815617 5856608 3
-0.117033 0.220836 0.827547 6251366 3
-0.103370 0.220674 0.826942 6842474 3
-0.194124 0.229188 0.809068 5132113 3
-0.169145 0.231363 0.816743 5658200 3
-0.158623 0.235652 0.831886 7039599 3
-0.142129 0.231044 0.815617 6776940 3
-0.128737 0.231044 0.815617 5921631 3
-0.115346 0.231044 0.815617 6843503 3
-0.101954 0.231044 0.815617 7368818 3
-0.155019 0.243648 0.812989 6776427 3
-0.143157 0.246204 0.821519 6381669 3
-0.129161 0.245239 0.818300 6184803 3
-0.115346 0.244435 0.815617 5724252 3
-0.101954 0.244435 0.815617 6250337 3
-0.380974 0.218347 0.871866 3682876 3
-0.378486 0.225391 0.899991 6380130 3
-0.355374 0.220226 0.879366 4340800 3
-0.337780 0.218187 0.871227 4538690 3
-0.399440 0.219227 0.821519 3815994 3
-0.387212 0.219943 0.824202 5657685 3
-0.382056 0.224874 0.842680 5526103 3
-0.372146 0.227271 0.851663 5262162 3
-0.361726 0.229532 0.860137 4933197 3
-0.345822 0.228356 0.855729 4538436 3
-0.332475 0.228840 0.857542 5986136 3
-0.328492 0.236097 0.884737 6315101 3
-0.387360 0.233565 0.824517 6052954 3
-0.376035 0.234948 0.829398 5395028 3
-0.367891 0.238497 0.841927 5131602 3
-0.356836 0.240361 0.848509 4276036 3
-0.346061 0.242574 0.856320 4999757 3
-0.335912 0.245431 0.866407 5855064 3
-0.328376 0.250536 0.884426 5855064 3
-0.312650 0.249574 0.881030 3618356 3
-0.378966 0.241748 0.806651 4803141 3
-0.370404 0.244844 0.816980 5000779 3
-0.365924 0.250971 0.837425 5263442 3
-0.354913 0.252922 0.843936 5197649 3
-0.344060 0.255150 0.851369 4933962 3
-0.332117 0.256724 0.856620 6512994 3
-0.322795 0.260552 0.869394 5065548 3
-0.305340 0.257866 0.860431 4868169 3
-0.358029 0.259009 0.819356 3816507 3
-0.329426 0.257682 0.815157 5000527 3
-0.326421 0.266144 0.841927 5986652 3
-0.435676 0.203760 0.813621 2500136 3
-0.434582 0.209678 0.837251 2302755 3
-0.435052 0.216762 0.865534 2960685 3
-0.429478 0.214031 0.802047 3684410 3
-0.421989 0.216951 0.812989 4211265 3
-0.409961 0.217652 0.815617 4802889 3
-0.358984 0.102130 0.407808 2827567 3
-0.352288 0.102130 0.407808 1840159 3
-0.345593 0.102130 0.407808 2300710 3
-0.338897 0.102130 0.407808 2827821 3
-0.332201 0.102130 0.407808 2828335 3
-0.325505 0.102130 0.407808 1249816 3
-0.318809 0.102130 0.407808 2171947 3
-0.312114 0.102130 0.407808 2631728 3
-0.305418 0.102130 0.407808 1776162 3
-0.310266 0.110553 0.414282 2763057 3
-0.303464 0.110553 0.414282 1973028 3
0.637694 0.200256 0.855729 4868173 3
0.651523 0.200188 0.855438 3025200 3
0.614002 0.210993 0.842499 3486520 3
0.634228 0.213141 0.851078 5394775 3
0.645793 0.212349 0.847916 5591641 3
0.655727 0.211065 0.842789 4473162 3
0.661763 0.208606 0.832970 3419958 3
0.663680 0.204974 0.818468 4012095 3
0.629740 0.225508 0.845056 3157812 3
0.639958 0.224227 0.840254 1907233 3
0.648744 0.222508 0.833814 3354679 3
0.654583 0.219871 0.823933 3090993 3
0.658201 0.216610 0.811711 2499625 3
0.623164 0.236883 0.836231 5000016 3
0.655325 0.243738 0.860431 6381412 3
0.669452 0.243738 0.860431 5131090 3
0.650011 0.231769 0.818178 5855325 3
0.236597 0.205787 0.879366 6776427 3
0.244647 0.200551 0.856989 7697783 3
0.289405 0.202330 0.864594 7370874 3
0.223601 0.221656 0.885077 8289405 3
0.228004 0.212227 0.847428 7565684 3
0.237323 0.208196 0.831332 7631475 3
0.250137 0.207503 0.828563 7434096 3
0.263917 0.207641 0.829117 7238511 3
0.280501 0.209864 0.837991 7764601 3
0.297140 0.211918 0.846193 6317416 3
0.205654 0.232330 0.870619 6579039 3
0.214580 0.226659 0.849369 6841961 3
0.225925 0.224079 0.839700 6841961 3
0.234753 0.219444 0.822331 7828854 3
0.246228 0.217652 0.815617 8420991 3
0.259705 0.217723 0.815884 6250846 3
0.274622 0.218936 0.820429 5922397 3
0.290949 0.221107 0.828563 5856865 3
0.299928 0.217749 0.815981 7633019 3
0.202000 0.242243 0.855151 7499889 3
0.212277 0.238023 0.840254 6118238 3
0.223600 0.235418 0.831060 6381410 3
0.233527 0.231729 0.818036 6709605 3
0.244084 0.229032 0.808515 7038824 3
0.255141 0.227058 0.801546 7434609 3
0.220522 0.245635 0.819620 6513255 3
0.231932 0.243486 0.812450 7959672 3
0.242831 0.241062 0.804362 5920089 3
0.005590 0.206027 0.880391 9144714 3
0.020353 0.209190 0.893906 7434607 3
0.005622 0.221729 0.885369 6514020 3
0.020462 0.225070 0.898709 7764087 3
0.005472 0.229985 0.861832 8027259 3
0.020202 0.236775 0.887279 6777192 3
0.035269 0.240168 0.899991 6975085 3
0.005162 0.230299 0.812989 7303536 3
0.019450 0.241983 0.854235 5856090 3
0.034773 0.251363 0.887346 6711399 3
0.047551 0.242235 0.855122 7237489 3
0.005126 0.241915 0.807208 6579813 3
0.018379 0.241915 0.807208 6908778 3
0.031633 0.241915 0.807208 6842472 3
0.044886 0.241915 0.807208 6908267 3
0.061249 0.254851 0.850372 5921631 3
0.078148 0.264805 0.883585 5921631 3
0.093440 0.267044 0.891057 6118751 3
0.005109 0.254355 0.804634 7763574 3
0.018379 0.255169 0.807208 8289920 3
0.031411 0.253379 0.801546 6249824 3
0.075908 0.271304 0.858249 7500404 3
0.005179 0.298002 0.815617 9277072 3
-0.097496 0.210123 0.897894 5263440 3
-0.081287 0.206399 0.881979 5987676 3
-0.065534 0.202469 0.865185 5856090 3
-0.051328 0.202469 0.865185 5526099 3
-0.037408 0.204024 0.871831 7697522 3
-0.023085 0.203949 0.871510 8948100 3
-0.008766 0.203736 0.870602 8816775 3
-0.094467 0.217878 0.869991 6118751 3
-0.079549 0.216158 0.863125 6052704 3
-0.064885 0.214529 0.856620 7368816 3
-0.051613 0.217878 0.869991 6447455 3
-0.037617 0.219561 0.876712 7566193 3
-0.023303 0.220326 0.879766 7698294 3
-0.008862 0.220404 0.880077 8225152 3
-0.089495 0.219943 0.824202 7171439 3
-0.076518 0.221552 0.830230 6710634 3
-0.036532 0.227205 0.851416 7960953 3
-0.022415 0.225824 0.846240 5987676 3
-0.008478 0.224673 0.841927 6514536 3
-0.087935 0.229406 0.809836 7895162 3
-0.074396 0.228662 0.807208 7039599 3
-0.008077 0.227218 0.802112 6579559 3
-0.087935 0.242703 0.809836 5395028 3
-0.008213 0.298002 0.815617 8026746 3
-0.223070 0.233551 0.998005 5066061 3
-0.233756 0.243987 0.974245 5395028 3
-0.206039 0.230854 0.921806 4342086 3
-0.245745 0.255812 0.958615 5066574 3
-0.292980 0.257720 0.909790 5065548 3
-0.299114 0.277252 0.978740 4868171 3
-0.265354 0.259924 0.917569 5065550 3
-0.389231 0.225393 0.963144 3551541 3
-0.353119 0.213141 0.910789 3222576 3
-0.338882 0.228579 0.912722 5525585 3
-0.348458 0.262035 0.981936 6446685 3
-0.304712 0.255037 0.900316 6052697 3
0.582490 0.156310 0.718341 4078657 3
0.583576 0.153494 0.705398 3289141 3
0.503657 0.177745 0.759538 3683897 3
0.597755 0.169087 0.722537 3552313 3
0.594917 0.165009 0.705113 4473415 3
0.503597 0.185598 0.741097 3487031 3
0.536253 0.192970 0.770536 2828586 3
0.597755 0.180950 0.722537 3091762 3
0.594917 0.176586 0.705113 3552313 3
0.488612 0.168691 0.775240 5657946 3
0.406041 0.168299 0.719171 2960944 3
0.415343 0.167289 0.714858 4211014 3
0.422626 0.165545 0.707402 3092020 3
0.430353 0.164062 0.701068 2894640 3
0.463614 0.167768 0.716901 3881536 3
0.407560 0.198706 0.701462 7894649 3
0.329667 0.172099 0.790901 4145472 3
0.335868 0.168691 0.775240 2764335 3
0.335317 0.162265 0.745707 3618874 3
0.323708 0.181739 0.776603 6184540 3
0.319945 0.172819 0.738486 5725018 3
0.328480 0.170950 0.730502 5790811 3
0.339478 0.170450 0.728365 4276032 3
0.347024 0.168310 0.719219 4210239 3
0.356758 0.167337 0.715061 2565927 3
0.367141 0.166720 0.712426 3618617 3
0.375641 0.165313 0.706414 2697515 3
0.395593 0.168879 0.721652 2960685 3
0.330719 0.198702 0.793423 7500400 3
0.324766 0.187731 0.749615 6316641 3
0.323477 0.180158 0.719376 5001808 3
0.334246 0.179598 0.717139 7105646 3
0.313948 0.193375 0.724644 7369329 3
0.316146 0.187619 0.703072 7238259 3
0.300488 0.186206 0.855729 7434870 3
0.312829 0.185194 0.851078 5789532 3
0.325037 0.184192 0.846478 5658200 3
0.335310 0.182223 0.837425 8157819 3
0.312829 0.199167 0.851078 6184544 3
0.326803 0.199167 0.851078 5855836 3
0.331015 0.193462 0.826699 6315615 3
0.262968 0.200445 0.921167 4671562 3
0.278093 0.200445 0.921167 5527125 3
0.293218 0.200445 0.921167 4672845 3
0.206107 0.219442 0.937715 8092537 3
0.220277 0.218227 0.932523 6974056 3
0.228195 0.211379 0.903261 5790043 3
0.203972 0.232405 0.928001 6645091 3
0.215855 0.228850 0.913803 7697520 3
0.102634 0.212973 0.978740 6248544 3
0.118704 0.212973 0.978740 6051424 3
0.134774 0.212973 0.978740 6447462 3
0.150844 0.212973 0.978740 7368564 3
0.187345 0.200445 0.921167 5593434 3
0.102836 0.229493 0.980664 7499124 3
0.118704 0.229043 0.978740 6644329 3
0.134774 0.229043 0.978740 5066322 3
0.149564 0.227098 0.970433 5592153 3
0.161460 0.221558 0.946759 6644584 3
0.175249 0.219360 0.937366 6579048 3
0.189646 0.218217 0.932482 7171439 3
0.102879 0.245697 0.981072 4210243 3
0.118938 0.245594 0.980664 5526360 3
0.134774 0.245112 0.978740 5921372 3
0.150786 0.245017 0.978360 5723993 3
0.161780 0.237573 0.948636 7302771 3
0.175314 0.234838 0.937715 6447462 3
0.189930 0.233877 0.933878 6644841 3
0.114414 0.251742 0.943364 7500663 3
0.129368 0.250706 0.939480 8092541 3
0.144468 0.250142 0.937366 7566197 3
0.158319 0.247733 0.928342 6381923 3
0.172414 0.246095 0.922201 6710634 3
0.184365 0.241908 0.906513 6316130 3
0.110153 0.257279 0.908231 6316387 3
0.140067 0.257443 0.908811 6579300 3
0.154042 0.255871 0.903261 6184544 3
0.110423 0.272858 0.910456 6184801 3
0.036312 0.201631 0.926618 7237743 3
0.053097 0.207778 0.954868 5526360 3
0.035472 0.211831 0.905193 6383202 3
0.051444 0.216498 0.925135 6447973 3
0.070290 0.228378 0.975902 6184290 3
0.087626 0.231851 0.990740 6578787 3
0.035472 0.226694 0.905193 7304050 3
0.051444 0.231688 0.925135 6646122 3
0.069092 0.240236 0.959266 5790813 3
0.085529 0.242180 0.967032 5197906 3
0.050521 0.242449 0.908540 7369845 3
0.067163 0.248838 0.932482 6580329 3
0.082936 0.250235 0.937715 7895419 3
0.098369 0.250329 0.938068 8355459 3
0.065984 0.259513 0.916117 6975089 3
0.081413 0.260754 0.920498 7040112 3
0.095474 0.257909 0.910456 6184544 3
-0.347402 0.089203 0.409943 1314330 3
-0.338897 0.088739 0.407808 1906467 3
-0.330480 0.088279 0.405695 1249305 3
-0.322150 0.087824 0.403604 1315611 3
-0.315523 0.087824 0.403604 1974568 3
-0.307312 0.087373 0.401534 1514017 3
-0.300719 0.087373 0.401534 2236970 3
-0.345593 0.095434 0.407808 2628907 3
-0.338897 0.095434 0.407808 853264 3
-0.331018 0.095094 0.406356 1117719 3
-0.322671 0.094603 0.404258 2171431 3
-0.315523 0.094451 0.403604 1711396 3
-0.307807 0.094118 0.402181 1119259 3
-0.301785 0.094299 0.402957 1973798 3
0.771208 0.138177 0.686835 1578529 1
0.740625 0.150113 0.689861 2302246 1
0.751951 0.150113 0.689861 1710367 1
0.766656 0.150777 0.692913 1118230 1
0.767840 0.148802 0.683836 1841955 1
0.772323 0.147513 0.677915 2170920 1
0.746072 0.157800 0.674309 2039332 1
0.754483 0.157246 0.671940 2170920 1
0.759397 0.155989 0.666569 2828850 1
0.755060 0.152895 0.653347 2301993 1
0.769206 0.153577 0.656263 2367788 1
0.736620 0.159626 0.637391 3091509 1
0.741997 0.158539 0.633050 1249305 1
0.750484 0.158137 0.631445 2695983 1
0.765105 0.159021 0.634975 2235432 1
0.612801 0.140645 0.699100 2827567 1
0.607378 0.150777 0.692913 3485751 3
0.641532 0.159334 0.680863 3749952 3
0.665492 0.162454 0.694195 4669511 3
0.699771 0.162474 0.694279 4209990 3
0.610623 0.171250 0.683806 4868430 3
0.617988 0.170187 0.679559 4802897 3
0.621063 0.168000 0.670828 2500142 3
0.690885 0.174508 0.696815 5656920 3
-0.173814 0.200665 0.997442 2894894 3
-0.157437 0.200665 0.997442 2303016 3
-0.141060 0.200665 0.997442 4211783 3
-0.197751 0.207778 0.954868 4276547 3
-0.183190 0.209053 0.960726 4210500 3
-0.173814 0.217042 0.997442 4013634 3
-0.154485 0.212973 0.978740 4145218 3
-0.138415 0.212973 0.978740 4080195 3
-0.121585 0.211650 0.972661 3882046 3
-0.100023 0.200445 0.921167 3158066 3
-0.197232 0.222870 0.952363 5658200 3
-0.179879 0.220764 0.943364 4474185 3
-0.164390 0.220764 0.943364 5790045 3
-0.148901 0.220764 0.943364 6053985 3
-0.133412 0.220764 0.943364 4738125 3
-0.115552 0.216326 0.924400 5000268 3
-0.395527 0.235108 1.168645 3748920 3
-0.379169 0.236875 1.177432 3749439 3
-0.362563 0.238670 1.186352 3091507 3
-0.389711 0.250556 1.151459 3617588 3
-0.373552 0.252412 1.159988 4341060 3
-0.354506 0.252412 1.159988 3354164 3
-0.321840 0.276113 1.179882 4605001 3
-0.399901 0.282217 1.126899 5328204 3
-0.395527 0.292672 1.168645 5591629 3
-0.376339 0.292672 1.168645 3814452 3
-0.360872 0.295720 1.180818 5656917 3
-0.339564 0.294057 1.174178 5197136 3
-0.309383 0.284048 1.134212 5131856 3
-0.378576 0.298494 1.118560 5065030 3
-0.360210 0.298494 1.118560 6051927 3
-0.341845 0.298494 1.118560 6578019 3
-0.320347 0.295604 1.107729 4670792 3
-0.427522 0.231650 1.151459 4144707 3
-0.414715 0.235108 1.168645 3486520 3
-0.421326 0.246925 1.134771 3552311 3
-0.411643 0.252412 1.159988 3814967 3
-0.415899 0.274264 1.171981 3288621 3
-0.403076 0.278703 1.190949 4472893 3
-0.579842 0.143202 0.711811 2565424 1
-0.568155 0.143202 0.711811 1907748 1
-0.556467 0.143202 0.711811 2434603 1
-0.539872 0.141912 0.705398 2106152 1
-0.528290 0.141912 0.705398 2105638 1
0.005849 0.170195 0.921167 1708826 1
0.020974 0.170195 0.921167 2433060 1
0.036747 0.173253 0.937715 3289139 3
0.005815 0.184236 0.915780 3551284 3
0.020851 0.184236 0.915780 6381408 3
0.036312 0.186417 0.926618 4013373 3
0.053753 0.194472 0.966657 4210243 3
0.005781 0.198114 0.910456 7828086 3
0.020851 0.199273 0.915780 7631475 3
-0.261211 0.215920 1.168645 1973277 3
-0.219558 0.212744 1.151459 2697002 1
-0.200653 0.212744 1.151459 2302244 1
-0.276276 0.231650 1.151459 3750203 3
-0.253640 0.228293 1.134771 4868682 3
-0.295182 0.250556 1.151459 4473415 3
-0.268382 0.243397 1.118560 3618617 3
-0.290760 0.265426 1.134212 4473413 3
-0.389092 0.235230 1.273158 3288886 3
-0.371206 0.237158 1.283594 2894894 3
-0.353805 0.246128 1.223425 3486518 3
-0.333718 0.246128 1.223425 3486777 3
-0.313630 0.246128 1.223425 2434090 3
-0.353805 0.266216 1.223425 4539206 3
-0.333718 0.266216 1.223425 3618106 3
-0.390738 0.283947 1.213358 4077885 3
-0.368141 0.281898 1.204603 4143678 3
-0.348362 0.281898 1.204603 4670276 3
0.600569 0.119827 0.711811 2433577 1
0.612256 0.131515 0.711811 2564649 1
0.682140 0.141138 0.763895 2565165 1
0.694682 0.141138 0.763895 2236713 1
0.682140 0.153680 0.763895 1973541 1
0.694682 0.153680 0.763895 1973541 1
0.669085 0.163041 0.749275 2368299 1
0.668591 0.159979 0.735204 3289401 1
0.687114 0.161496 0.742173 2106156 1
0.699300 0.161496 0.742173 1841953 1
0.621292 0.179303 0.766193 4078657 3
0.641845 0.165168 0.705793 3157561 3
0.668655 0.169016 0.722235 3487809 3
0.694067 0.166576 0.711811 3814202 3
0.697089 0.164531 0.703072 4407367 3
0.627078 0.179159 0.715387 4275264 3
0.601538 0.194033 0.727110 2565418 3
0.607832 0.192248 0.720420 3223346 3
0.621806 0.192914 0.722914 2630439 3
0.637530 0.194087 0.727311 3749690 3
0.578366 0.117688 0.699100 1710109 1
0.522738 0.121568 0.657977 2236459 1
0.542661 0.123646 0.669224 2038821 1
0.553649 0.123646 0.669224 3223093 1
0.589844 0.129166 0.699100 2565418 1
0.566887 0.140645 0.699100 3223093 1
0.578366 0.140645 0.699100 3486520 1
0.589844 0.140645 0.699100 2565418 1
0.590773 0.138177 0.686835 2235684 1
0.589844 0.152123 0.699100 2960176 3
0.580588 0.146878 0.674993 3617337 3
0.580302 0.157883 0.674661 2498855 3
0.581642 0.155283 0.663553 3683130 3
0.592537 0.155283 0.663553 2368299 3
0.594070 0.172969 0.690668 4275264 3
0.513980 0.193888 0.646953 6644841 3
-0.058800 0.166848 0.991129 2434600 1
-0.073220 0.178600 0.966657 2500396 1
-0.057348 0.178600 0.966657 2039332 1
-0.041477 0.178600 0.966657 1841695 1
-0.024257 0.169200 0.915780 1972511 1
-0.009275 0.170195 0.921167 1775132 1
-0.086945 0.189786 0.943364 1776672 3
-0.070187 0.186417 0.926618 1842465 3
-0.054330 0.184236 0.915780 2828590 3
-0.038839 0.182106 0.905193 2039072 3
-0.023977 0.182106 0.905193 2565414 3
-0.009221 0.184236 0.915780 3485748 3
-0.084402 0.199273 0.915780 4145218 3
-0.069366 0.199273 0.915780 5263699 3
-0.053702 0.196969 0.905193 7499891 3
-0.038839 0.196969 0.905193 7828854 3
-0.009168 0.198114 0.910456 8553090 3
0.565759 0.132910 0.874852 3025969 1
0.568937 0.148101 0.879766 2104865 1
0.590011 0.149784 0.889764 1776159 1
0.548331 0.160740 0.869991 1052690 1
0.562616 0.160740 0.869991 1775898 1
0.583382 0.162546 0.879766 1973281 1
0.548331 0.175025 0.869991 3026480 1
0.562616 0.175025 0.869991 2433828 3
0.583382 0.176991 0.879766 3289141 3
0.546184 0.193611 0.889764 4144707 3
0.575402 0.193611 0.889764 5197395 3
0.586678 0.192518 0.884737 5526101 3
0.562228 0.193621 0.827379 3683897 3
0.590105 0.198427 0.847916 3354932 3
0.429472 0.162951 1.072592 2828848 1
0.447083 0.162951 1.072592 3092532 1
0.421124 0.170078 1.010312 1514015 1
0.440554 0.171182 1.016873 2171430 1
0.475787 0.178122 1.058097 2894894 1
0.496515 0.179334 1.065295 2236964 1
0.262968 0.139946 0.921167 3025200 1
0.281404 0.141612 0.932133 3289141 1
0.247844 0.155071 0.921167 2432298 1
0.275954 0.162729 0.966657 1445914 1
0.291826 0.162729 0.966657 2236198 1
0.230013 0.168216 0.910456 2499370 1
0.256911 0.176422 0.954868 3748923 3
0.275954 0.178600 0.966657 2235684 3
0.291826 0.178600 0.966657 2302246 3
0.230013 0.183165 0.910456 3749949 3
0.247844 0.185320 0.921167 4934224 3
0.272589 0.192100 0.954868 5000016 3
0.288267 0.192100 0.954868 3881535 3
0.230013 0.198114 0.910456 6250596 3
0.244962 0.198114 0.910456 5592666 3
-0.114892 0.160749 1.058097 2894128 1
-0.146665 0.174583 1.037076 2172200 1
-0.130501 0.175747 1.043989 2829361 1
-0.116466 0.180562 1.072592 3288886 1
-0.144747 0.189106 1.023519 2435372 1
-0.127942 0.189106 1.023519 3026740 1
-0.114121 0.194183 1.050996 2763055 1
-0.226212 0.180234 1.186352 1908258 1
-0.206733 0.180234 1.186352 2434343 1
-0.245690 0.199712 1.186352 2959404 1
-0.222835 0.196732 1.168645 1973792 1
-0.200653 0.193839 1.151459 2697513 1
0.210437 0.112871 0.832970 3091511 1
0.224114 0.112871 0.832970 2037538 1
0.235287 0.111682 0.824202 3156785 1
0.248820 0.111682 0.824202 2565416 1
0.262353 0.111682 0.824202 2236710 1
0.210437 0.126547 0.832970 3288118 1
0.234075 0.132171 0.869991 2958642 1
0.219790 0.146456 0.869991 1577500 1
0.201038 0.157246 0.851078 3026229 1
0.212592 0.181060 0.899991 4013635 3
0.212592 0.195837 0.899991 7040110 3
0.255979 0.198427 0.847916 7500400 3
0.269815 0.198364 0.847647 6778219 3
0.065284 0.225741 1.665941 2763308 1
0.090708 0.221038 1.631234 2039332 1
0.010578 0.253094 1.665941 2565163 1
0.037931 0.253094 1.665941 2631209 1
0.063924 0.247821 1.631234 2434343 1
0.090708 0.247821 1.631234 2631468 1
0.037141 0.274605 1.631234 2959404 1
0.063924 0.274605 1.631234 2631207 1
0.183038 0.107175 0.899991 1381150 1
0.197815 0.107175 0.899991 854806 1
0.198877 0.100261 0.841927 1907748 1
0.168261 0.121952 0.899991 1644573 1
0.173091 0.115324 0.851078 1907748 1
0.183084 0.112871 0.832970 1315357 1
0.196761 0.112871 0.832970 2433581 1
0.151740 0.135175 0.889764 3355445 1
0.159117 0.129298 0.851078 2894894 1
0.165878 0.123911 0.815617 2829360 1
0.179270 0.123911 0.815617 2960693 1
0.192662 0.123911 0.815617 1446686 1
0.151740 0.149784 0.889764 2960434 1
0.157406 0.141731 0.841927 2434089 1
0.165878 0.137302 0.815617 1908510 1
0.179270 0.137302 0.815617 2895154 1
0.192662 0.137302 0.815617 1314846 1
0.166349 0.164393 0.889764 3223605 1
0.171229 0.155555 0.841927 2369577 1
0.183084 0.153900 0.832970 2105638 1
0.167300 0.180025 0.894848 3749949 3
0.183038 0.181060 0.899991 3290679 3
0.193370 0.176991 0.879766 2961716 3
0.168261 0.195837 0.899991 5592153 3
0.197815 0.195837 0.899991 6119776 3
-0.167775 0.141276 1.186352 986644 1
-0.143935 0.137121 1.151459 2104873 1
-0.187254 0.160755 1.186352 1644827 1
-0.162841 0.156027 1.151459 2500395 1
-0.141849 0.153766 1.134771 2170920 1
-0.125029 0.156027 1.151459 1907233 1
-0.181747 0.174933 1.151459 3289652 1
-0.162841 0.174933 1.151459 2040614 1
-0.137853 0.167541 1.102806 1907748 1
-0.181747 0.193839 1.151459 3092273 1
0.136480 0.101755 0.991129 2104875 1
0.150844 0.100483 0.978740 2631471 1
0.134774 0.116553 0.978740 1907494 1
0.147165 0.113710 0.954868 1907748 1
0.162843 0.113710 0.954868 1841952 1
0.170218 0.108421 0.910456 2236711 1
0.117239 0.130986 0.966657 1775900 1
0.131487 0.129388 0.954868 2104612 1
0.145392 0.127829 0.943364 2434090 1
0.155269 0.123370 0.910456 2236964 1
0.134774 0.148693 0.978740 3421236 1
0.147165 0.145066 0.954868 2894894 1
0.134774 0.164763 0.978740 2500134 1
0.150844 0.164763 0.978740 2170917 1
0.134774 0.180833 0.978740 2368809 1
0.150844 0.180833 0.978740 3026226 1
0.154372 0.167244 0.905193 2762797 1
0.103934 0.199395 0.991129 6774888 3
0.120207 0.199395 0.991129 4867152 3
0.134774 0.196903 0.978740 4671564 3
0.150844 0.196903 0.978740 4539465 3
0.154372 0.182106 0.905193 4407622 3
0.155269 0.198114 0.910456 6841963 3
0.126618 0.107182 1.043989 2499370 1
0.126618 0.124323 1.043989 2235683 1
0.123329 0.154486 1.016873 3420725 1
0.108036 0.173434 1.030253 3289401 1
0.121748 0.168987 1.003836 2960434 1
0.105266 0.185469 1.003836 3222325 1
0.121748 0.185469 1.003836 2433838 1
-0.277554 0.309178 3.011508 1381142 1
-0.228108 0.309178 3.011508 1380891 1
-0.228108 0.358624 3.011508 2038819 1
-0.588513 0.321573 3.728534 1644576 1
-0.527294 0.321573 3.728534 1315611 1
-0.527294 0.382792 3.728534 1709856 1
0.458421 0.178710 0.565337 6316387 3
0.466129 0.165009 0.521995 4933962 3
0.474700 0.165009 0.521995 5920861 3
0.483270 0.165009 0.521995 5394517 3
0.491841 0.165009 0.521995 5723482 3
0.451835 0.178080 0.535527 6579302 3
0.463042 0.172430 0.518538 7565682 3
0.471654 0.172466 0.518646 7960444 3
0.481565 0.172967 0.520153 6776170 3
0.439124 0.178149 0.510527 6381412 3
0.445584 0.177383 0.508334 4868171 3
0.452644 0.176881 0.506894 4802376 3
0.462370 0.177419 0.508436 5920859 3
0.469670 0.177025 0.507305 4342340 3
0.428891 0.185730 0.508334 3355705 3
0.435910 0.185166 0.506791 4802637 3
0.444142 0.185129 0.506689 6118751 3
0.451093 0.184569 0.505156 5460819 3
0.458371 0.184161 0.504039 4539717 3
0.424332 0.192013 0.502930 5591896 3
0.432848 0.192128 0.503231 4605259 3
0.444142 0.193448 0.506689 4078914 3
0.305060 0.177407 0.591960 4671051 3
0.318327 0.179406 0.598631 6578789 3
0.300285 0.184197 0.582695 7237232 3
0.314224 0.186796 0.590915 7763063 3
0.303449 0.189760 0.570653 8025465 3
0.313078 0.179184 0.538847 9079182 3
0.316407 0.176112 0.529609 8816011 3
0.324758 0.175926 0.529049 6052705 3
0.333445 0.175926 0.529049 6579562 3
0.341197 0.175445 0.527604 6974834 3
0.345428 0.173223 0.520922 4211783 3
0.348825 0.170699 0.513333 4342851 3
0.352928 0.168633 0.507118 5723478 3
0.357838 0.167038 0.502322 6052958 3
0.338000 0.182383 0.522660 6975089 3
0.339086 0.178438 0.511357 7567483 3
0.343268 0.176275 0.505156 7369329 3
0.350510 0.192285 0.503643 7368816 3
0.357485 0.191592 0.501827 7368303 3
-0.290325 0.100666 4.893701 1380889 1
-0.209975 0.100666 4.893701 1117717 1
-0.209975 0.181016 4.893701 1446682 1
0.200115 0.003780 0.910456 919824 1
0.235489 0.003870 0.932133 1249305 1
0.263334 0.020133 0.978740 1512479 1
0.200115 0.033677 0.910456 985367 1
0.235489 0.034479 0.932133 1513247 1
0.204880 0.049784 0.932133 2367534 1
0.220185 0.049784 0.932133 1183773 1
0.241233 0.050998 0.954868 1381915 1
0.207348 0.065873 0.943364 1973030 1
0.220185 0.065089 0.932133 1907496 1
0.235489 0.065089 0.932133 1315868 1
0.207348 0.081362 0.943364 1644576 1
0.220185 0.080393 0.932133 1381150 1
0.235489 0.080393 0.932133 789013 1
0.244962 0.078524 0.910456 1644574 1
0.204880 0.095698 0.932133 2236713 1
0.169027 0.004115 0.991129 1117717 1
0.178521 0.003964 0.954868 1314328 1
0.189575 0.003870 0.932133 721678 1
0.152754 0.020388 0.991129 1315098 1
0.164854 0.019885 0.966657 1117719 1
0.178521 0.019642 0.954868 1840672 1
0.185167 0.018729 0.910456 2169124 1
0.152754 0.036661 0.991129 1249307 1
0.164854 0.035756 0.966657 1512477 1
0.178521 0.035320 0.954868 1841442 1
0.185167 0.033677 0.910456 919572 1
0.152754 0.052935 0.991129 591123 1
0.164854 0.051628 0.966657 2236202 1
0.178521 0.050998 0.954868 1841442 1
0.191859 0.050384 0.943364 1314330 1
0.152754 0.069208 0.991129 1380893 1
0.166914 0.068343 0.978740 1512477 1
0.180725 0.067499 0.966657 1775647 1
0.196597 0.067499 0.966657 788752 1
0.152754 0.085482 0.991129 2039080 1
0.166914 0.084413 0.978740 2039332 1
0.180725 0.083371 0.966657 1776160 1
0.196597 0.083371 0.966657 1644061 1
0.162843 0.098032 0.954868 2631468 1
0.178521 0.098032 0.954868 1644574 1
0.194199 0.098032 0.954868 1841955 1
0.106633 0.004222 1.016873 723735 1
0.124952 0.004277 1.030253 657427 1
0.145702 0.004393 1.058097 986644 1
0.154712 0.004167 1.003836 2368297 1
0.109477 0.021475 1.043989 855321 1
0.123329 0.020918 1.016873 1117978 1
0.138230 0.020649 1.003836 1249305 1
0.110956 0.039139 1.058097 1447456 1
0.124952 0.038109 1.030253 1907496 1
0.138230 0.037131 1.003836 1775651 1
0.110956 0.056511 1.058097 1775908 1
0.126618 0.055758 1.043989 1710115 1
0.141868 0.055024 1.030253 656916 1
0.110956 0.073884 1.058097 2039334 1
0.126618 0.072899 1.043989 1315357 1
0.138230 0.070095 1.003836 1643811 1
0.126618 0.090041 1.043989 1446684 1
0.138230 0.086577 1.003836 1052187 1
-1.535654 0.009561 2.302918 1051674 1
-1.543232 0.009850 2.372703 328716 1
-1.582189 0.048808 2.372703 919572 1
-1.543232 0.048808 2.372703 1249305 1
-1.582189 0.087765 2.372703 1248535 1
-1.543232 0.087765 2.372703 920338 1
-1.504274 0.087765 2.372703 1446682 1
-1.601972 0.009288 2.237120 1051928 1
-1.638704 0.046019 2.237120 1117721 1
-1.601972 0.046019 2.237120 1051156 1
-1.638704 0.082750 2.237120 1907235 1
-1.601972 0.082750 2.237120 2498856 1
-0.981271 0.005001 1.204603 1578268 1
-0.961492 0.005001 1.204603 722963 1
-0.987281 0.005243 1.262890 327693 1
-0.982390 0.005329 1.283594 1182491 1
-0.961492 0.024779 1.204603 459791 1
-0.956428 0.025167 1.223425 1249054 1
-0.961492 0.044558 1.204603 1249053 1
-0.981271 0.064336 1.204603 920342 1
-0.961492 0.064336 1.204603 2038569 1
-0.941714 0.064336 1.204603 1249566 1
-0.941714 0.084115 1.204603 723222 1
-0.801453 0.003780 0.910456 1381402 1
-0.805231 0.003870 0.932133 1447194 1
-0.809193 0.003964 0.954868 1643293 1
-0.809193 0.019642 0.954868 1709086 1
-0.814932 0.034895 0.943364 1644061 1
0.440623 0.163602 0.699100 4802637 3
0.402372 0.173436 0.692533 5526614 3
0.408996 0.171446 0.684587 4276547 3
0.418649 0.170798 0.682003 3881535 3
0.440623 0.175080 0.699100 2236711 3
0.452102 0.175080 0.699100 2763057 3
0.463580 0.175080 0.699100 2828847 3
0.406443 0.181546 0.680315 8421506 3
0.413019 0.179549 0.672830 6776427 3
0.429661 0.181918 0.681708 6381670 3
0.421708 0.174017 0.652102 4934226 3
0.455447 0.183286 0.686835 6250084 3
0.472454 0.185536 0.695267 6776681 3
0.409672 0.194247 0.685719 8157821 3
0.419775 0.193713 0.683836 7171185 3
0.430886 0.193661 0.683650 7631737 3
0.440308 0.192871 0.680863 6513515 3
0.451487 0.192871 0.680863 6381670 3
0.465456 0.194034 0.684969 6842474 3
0.483870 0.196952 0.695267 5723991 3
0.427781 0.198245 0.661491 6974066 3
0.436311 0.197191 0.657977 5789533 3
0.447114 0.197191 0.657977 6118751 3
-1.040397 -2.165790 3.404314 1182744 1
-1.096293 -2.109894 3.404314 2630190 1
-1.040397 -2.109894 3.404314 1511198 1
0.612943 0.130719 0.860431 1973028 1
0.604620 0.149784 0.889764 2302503 1
0.612272 0.148101 0.879766 1446682 1
0.601205 0.163465 0.884737 1578523 1
0.612272 0.162546 0.879766 2104612 1
0.612943 0.158974 0.860431 2894128 1
0.601205 0.177991 0.884737 5065552 3
0.608851 0.176002 0.874852 3947071 3
0.609593 0.172155 0.855729 3486265 1
0.601205 0.192518 0.884737 6315617 3
0.602124 0.188263 0.865185 5657689 3
0.606280 0.185194 0.851078 4605001 3
0.623644 0.186206 0.855729 3420727 3
0.603003 0.198091 0.846478 5131345 3
0.621537 0.199579 0.852838 4670794 3
0.659494 0.198361 0.847631 4933197 3
0.668879 0.197026 0.841927 3552313 3
0.315772 0.127829 0.943364 2697262 1
0.300283 0.143318 0.943364 3552571 1
0.319623 0.145066 0.954868 2499883 1
0.343684 0.148693 0.978740 2565163 1
0.307697 0.162729 0.966657 1447197 1
0.323569 0.162729 0.966657 1578781 1
0.339441 0.162729 0.966657 2367270 1
0.355312 0.162729 0.966657 2498089 1
0.371184 0.162729 0.966657 2038051 1
0.384681 0.161730 0.960726 2368297 1
0.307697 0.178600 0.966657 3158072 3
0.323569 0.178600 0.966657 3158326 1
0.339441 0.178600 0.966657 2368297 1
0.342622 0.172222 0.932133 3683644 1
0.353716 0.170195 0.921167 2367784 1
0.371023 0.171203 0.926618 1512988 1
0.393218 0.174297 0.943364 789778 1
0.303945 0.192100 0.954868 4737358 3
0.319623 0.192100 0.954868 5067350 3
0.323467 0.185320 0.921167 2960947 3
0.334654 0.183165 0.910456 3486520 3
0.349603 0.183165 0.910456 3289398 3
0.371023 0.186417 0.926618 4210500 3
0.386238 0.186417 0.926618 4934736 3
0.396756 0.184236 0.915780 4606539 3
0.044428 0.252565 0.798972 6907756 3
0.057547 0.252565 0.798972 7960702 3
0.005073 0.265683 0.798972 6052445 3
0.018192 0.265683 0.798972 6316130 3
0.031310 0.265683 0.798972 7039340 3
0.005073 0.278802 0.798972 8026748 3
0.018192 0.278802 0.798972 8092798 3
0.707225 0.141138 0.763895 1381661 1
0.707225 0.153680 0.763895 1184282 1
0.716273 0.152934 0.760186 2170918 1
0.708129 0.148606 0.738672 1512730 1
0.713526 0.147217 0.731768 2301991 1
0.722167 0.146532 0.728365 2171179 1
0.776969 0.141275 0.702235 1381402 1
0.701511 0.159232 0.731768 985616 1
0.703662 0.157030 0.721652 4275267 1
0.712229 0.156310 0.718341 1841955 1
0.714195 0.154188 0.708590 3683905 1
0.719319 0.152805 0.702235 3354683 1
0.212592 0.003736 0.899991 1446168 1
0.203247 0.017700 0.860431 1248535 1
0.227369 0.018513 0.899991 855060 1
0.212592 0.033290 0.899991 1512738 1
0.212592 0.092398 0.899991 1447197 1
0.212700 0.086437 0.841927 1775908 1
0.224114 0.085517 0.832970 2499885 1
0.237790 0.085517 0.832970 2105124 1
0.246228 0.083736 0.815617 2039585 1
0.210437 0.099194 0.832970 3157304 1
0.221755 0.098150 0.824202 2695981 1
0.235287 0.098150 0.824202 2564648 1
0.246228 0.097127 0.815617 2236451 1
0.262353 0.098150 0.824202 2302757 1
0.065963 0.207645 0.543875 9474451 3
0.074908 0.207688 0.543986 9342865 3
0.082921 0.205411 0.538024 9277072 3
0.091032 0.203794 0.533788 8882055 3
0.099562 0.203316 0.532535 9408397 3
0.075006 0.216903 0.544698 8224127 3
0.083224 0.215030 0.539995 8158334 3
0.091229 0.213019 0.534944 7829367 3
0.099583 0.212104 0.532648 9079432 3
0.075947 0.228680 0.551533 9145229 3
0.083013 0.223328 0.538624 9342606 3
0.091032 0.221323 0.533788 8224636 3
0.099121 0.219824 0.530173 8882564 3
0.091229 0.230585 0.534944 9343117 3
