# .PCD v0.7
VERSION 0.7
FIELDS x y z rgb label
SIZE 4 4 4 4 4
TYPE F F F U U
COUNT 1 1 1 1 1
WIDTH 975
HEIGHT 1
VIEWPOINT 0 0 0 1 0 0 0
POINTS 975
DATA ascii
-0.477218 0.210910 0.552427 2237993 3
-0.469841 0.211673 0.554425 2763567 3
-0.486725 0.223612 0.585696 1381914 3
-0.480174 0.217215 0.545481 1909028 3
-0.477016 0.219887 0.552192 2566958 3
-0.457612 0.215030 0.539995 4079427 3
-0.459765 0.220310 0.553253 3487290 3
-0.477109 0.233229 0.585696 2435370 3
-0.446633 0.222842 0.537452 3816253 3
-0.449739 0.228914 0.552098 4868941 3
-0.465007 0.241555 0.582583 3224370 3
-0.466156 0.247237 0.596289 4276806 3
-0.457449 0.247824 0.597704 4013634 3
-0.443007 0.245262 0.591525 2631981 3
-0.420496 0.238017 0.574051 3684921 3
-0.435824 0.235360 0.546021 4144959 3
-0.432513 0.238478 0.553253 2960687 3
-0.417894 0.235360 0.546021 2039331 3
-0.292388 0.205814 0.563304 5131343 3
-0.281748 0.204803 0.560537 3487029 3
-0.271933 0.204344 0.559280 5000779 3
-0.298818 0.213054 0.558041 4408131 3
-0.288884 0.212486 0.556553 2829099 3
-0.277771 0.210986 0.552625 3618874 3
-0.265543 0.208509 0.546138 3224116 3
-0.256680 0.208594 0.546359 7105905 3
-0.296058 0.220164 0.552886 3750714 3
-0.285469 0.219004 0.549974 4671814 3
-0.273905 0.216996 0.544933 4079425 3
-0.261890 0.214484 0.538624 5526873 3
-0.250774 0.212558 0.533788 5724250 3
-0.238173 0.209188 0.525324 6514020 3
-0.224020 0.204151 0.512673 5658198 3
-0.232224 0.238514 0.598969 6710373 3
-0.216874 0.232599 0.584113 7105903 3
-0.205822 0.230958 0.579994 6053987 3
-0.299444 0.224965 0.542573 4013882 3
-0.292563 0.226535 0.546359 2961198 3
-0.284209 0.227028 0.547547 3816507 3
-0.272609 0.224875 0.542355 5658457 3
-0.257711 0.219764 0.530028 5066320 3
-0.202421 0.226049 0.545187 7237489 3
-0.291935 0.235001 0.545187 4409158 3
-0.284209 0.236018 0.547547 6316641 3
-0.272609 0.233780 0.542355 5658457 3
-0.304429 0.207720 0.568519 4276545 3
-0.324711 0.212012 0.555314 2697000 3
-0.315593 0.212012 0.555314 5592146 3
-0.306476 0.212012 0.555314 4079418 3
-0.373717 0.228805 0.574586 4277058 3
-0.329580 0.207008 0.519848 5395537 3
-0.325365 0.209794 0.526844 5000520 3
-0.321035 0.212655 0.534031 3026478 3
-0.315078 0.214570 0.538839 4276032 3
-0.308353 0.216057 0.542573 3947578 3
-0.301534 0.217564 0.546359 3618867 3
-0.318040 0.219358 0.529049 3223857 3
-0.312267 0.221424 0.534031 5131854 3
-0.306230 0.223417 0.538839 5000266 3
-0.177875 0.203100 0.582031 4802891 3
-0.173093 0.208861 0.598540 3420723 3
-0.153168 0.208493 0.597487 5789786 3
-0.138070 0.200802 0.575445 6250337 3
-0.173267 0.218908 0.599141 6315615 3
-0.162189 0.217246 0.594591 6381662 3
-0.147518 0.210250 0.575445 4802891 3
-0.132863 0.202322 0.553747 5921372 3
-0.171951 0.227008 0.594591 4736583 3
-0.159331 0.223008 0.584113 5526353 3
-0.144334 0.214957 0.563026 7434611 3
-0.130391 0.207480 0.543441 7697783 3
-0.196299 0.230958 0.579994 7895160 3
-0.188707 0.233346 0.585990 7763322 3
-0.179918 0.234431 0.588716 6184544 3
-0.168518 0.232044 0.582720 6644580 3
-0.154680 0.225809 0.567063 7368557 3
-0.134047 0.208222 0.522898 7895160 3
-0.124602 0.206795 0.519314 7895162 3
-0.113489 0.202188 0.507744 8224127 3
-0.194307 0.227028 0.547547 7303282 3
-0.192867 0.236277 0.569854 7303536 3
-0.186776 0.240481 0.579994 6447973 3
-0.177253 0.240481 0.579994 7566454 3
-0.164412 0.235723 0.568519 8224125 3
-0.149283 0.226916 0.547279 8092539 3
-0.134047 0.216807 0.522898 7434607 3
-0.179592 0.240389 0.557687 7106157 3
-0.170647 0.240687 0.558380 8224638 3
-0.158269 0.235902 0.547279 8487297 3
0.066876 0.201466 0.551403 8553342 3
0.075746 0.200980 0.550073 8947846 3
0.084666 0.200715 0.549348 9079434 3
0.093379 0.200057 0.547547 9013641 3
0.066641 0.209781 0.549468 9145227 3
0.075464 0.209231 0.548028 9276813 3
0.084058 0.208229 0.545403 9276813 3
0.091973 0.205900 0.539303 8947848 3
0.075531 0.218423 0.548514 8618885 3
0.083013 0.214484 0.538624 8026746 3
0.091032 0.212558 0.533788 8026746 3
0.099583 0.212104 0.532648 9408397 3
0.082833 0.222842 0.537452 8947850 3
0.091032 0.221323 0.533788 8355711 3
0.099583 0.220850 0.532648 9014152 3
0.091229 0.230585 0.534944 9408401 3
-0.338240 0.227390 0.651641 3815483 3
-0.302741 0.210174 0.602302 4342851 3
-0.338437 0.242889 0.696056 4804170 3
-0.353770 0.234205 0.641008 3618354 3
-0.366978 0.233065 0.610456 2631461 3
-0.312250 0.262942 0.688711 4802891 3
-0.039668 0.222342 0.668635 8290431 3
-0.026485 0.215396 0.617268 7435122 3
-0.018394 0.242319 0.694421 8947596 3
-0.026980 0.229748 0.628808 8817289 3
-0.016957 0.233897 0.640166 9408658 3
-0.006692 0.242832 0.664619 8224127 3
-0.050575 0.182477 0.548752 5461080 3
-0.042085 0.184759 0.555613 5592918 3
-0.093060 0.186351 0.534031 7235951 3
-0.068927 0.192412 0.551403 7697781 3
-0.059585 0.191487 0.548752 7105646 3
-0.050464 0.191067 0.547547 7566197 3
-0.041879 0.192930 0.552886 8882055 3
-0.033271 0.195694 0.560807 8093050 3
-0.098223 0.188212 0.515126 7302510 3
-0.091008 0.190817 0.522257 7565168 3
-0.097542 0.195305 0.511552 7302764 3
-0.088600 0.194115 0.508436 7762545 3
-0.183365 0.199517 0.599994 5987165 3
-0.123771 0.193230 0.553747 5855577 3
-0.110762 0.186629 0.534829 5066061 3
-0.100878 0.184612 0.529049 6578791 3
-0.118727 0.194077 0.531180 5855577 3
-0.107239 0.189195 0.517818 7434609 3
-0.114581 0.195716 0.512628 7895162 3
-0.105339 0.194195 0.508644 5921368 3
-0.198208 0.204672 0.615496 6184544 3
-0.181458 0.208652 0.627463 5460308 3
-0.194344 0.210590 0.603495 4539719 3
-0.165565 0.211803 0.606971 6512994 3
-0.186854 0.223390 0.611409 5526612 3
-0.186132 0.232527 0.609047 5460821 3
0.190939 0.209318 0.599851 8355198 3
0.102346 0.200014 0.547428 9539983 3
0.169336 0.216729 0.593176 8749956 3
0.178949 0.216576 0.592759 8157819 3
0.184209 0.211442 0.578706 8092026 3
0.189197 0.206516 0.565224 8750471 3
0.197803 0.205814 0.563304 10790565 3
0.100610 0.205455 0.538139 9474190 3
0.132653 0.200469 0.525078 9277326 3
0.147087 0.208717 0.546682 9145227 3
0.155908 0.208509 0.546138 9013128 3
0.181417 0.206922 0.541981 10132122 3
0.106752 0.209017 0.524895 9079947 3
0.113223 0.205127 0.515126 7698294 3
0.121681 0.205127 0.515126 8158845 3
0.131500 0.207273 0.520514 8948361 3
0.144389 0.213700 0.536656 9013641 3
0.154721 0.215821 0.541981 9539472 3
0.164905 0.217517 0.546239 9341579 3
0.172042 0.215224 0.540483 9276300 3
0.180131 0.214291 0.538139 9474192 3
0.190778 0.216344 0.543295 9408912 3
0.107826 0.219824 0.530173 8619396 3
0.116163 0.219130 0.528499 8421763 3
0.122894 0.215714 0.520261 8882314 3
0.132402 0.217299 0.524083 9408658 3
0.144150 0.222143 0.535767 8553349 3
0.156140 0.226780 0.546951 7631477 3
0.165264 0.226978 0.547428 7893879 3
0.173268 0.225697 0.544337 8486786 3
0.182008 0.225451 0.543745 8092541 3
-0.209213 0.216402 0.684573 5855579 3
-0.210217 0.206541 0.621116 6052956 3
-0.242381 0.227799 0.652812 6513255 3
-0.231632 0.227769 0.652727 5723739 3
-0.211863 0.218437 0.625982 4671303 3
-0.290141 0.252075 0.689917 4012862 3
-0.264178 0.238844 0.653703 3552313 3
-0.248388 0.234077 0.640659 4407879 3
-0.236354 0.232587 0.636579 5789532 3
-0.226536 0.233239 0.638365 5394774 3
-0.215125 0.232236 0.635619 5460821 3
-0.204116 0.231587 0.633842 5460819 3
-0.262802 0.248276 0.650298 6710375 3
-0.248388 0.244596 0.640659 6249824 3
-0.235696 0.242362 0.634807 5395028 3
-0.226250 0.243413 0.637560 5395287 3
-0.215125 0.242672 0.635619 6316130 3
-0.204168 0.242055 0.634002 8224127 3
-0.265400 0.251303 0.631086 7500402 3
-0.256696 0.252937 0.635188 5855064 3
-0.595795 0.213954 0.676827 3025969 3
-0.595570 0.217938 0.689431 2697261 3
-0.589976 0.220074 0.696187 1973281 3
-0.580645 0.220872 0.698713 920593 3
-0.564448 0.219039 0.692913 2236453 3
-0.552919 0.218978 0.692723 2237221 3
-0.539607 0.218195 0.690244 2566186 3
-0.589102 0.222538 0.669224 3092019 3
-0.581541 0.223857 0.673190 2039331 3
-0.572015 0.224457 0.674993 2236710 3
-0.564286 0.225799 0.679028 2762797 3
-0.557976 0.227774 0.684969 3421238 3
-0.546573 0.227709 0.684773 2435370 3
-0.535041 0.227586 0.684403 3224886 3
-0.535526 0.232679 0.699719 3026480 3
-0.596418 0.232097 0.665129 1249815 3
-0.551203 0.218503 0.626170 2105124 3
-0.528433 0.213458 0.611713 3026739 3
-0.532876 0.219423 0.628808 2500136 3
-0.550957 0.231350 0.662989 4671305 3
-0.549999 0.235603 0.675176 4342086 3
-0.541247 0.236623 0.678099 2303786 3
-0.534166 0.238432 0.683283 3422524 3
-0.534643 0.243765 0.698566 2697774 3
-0.532670 0.221091 0.605116 4211013 3
-0.521321 0.229206 0.627326 3552824 3
-0.533664 0.239362 0.655123 2237223 3
-0.529636 0.242442 0.663553 1843492 3
-0.519587 0.242837 0.664635 1711907 3
-0.524237 0.250267 0.684969 1710880 3
-0.514672 0.251088 0.687215 2960433 3
-0.508281 0.253528 0.693893 2829101 3
-0.505786 0.237053 0.620901 2106407 3
-0.504008 0.241079 0.631445 1909539 3
-0.504953 0.246603 0.645916 1185562 3
-0.502267 0.250554 0.656263 1711394 3
-0.506090 0.257996 0.675755 3488060 3
-0.504229 0.262809 0.688361 4869195 3
-0.569033 0.278411 0.671473 3421497 3
-0.398301 0.237483 0.792419 5725279 3
-0.386752 0.238384 0.795425 4870222 3
-0.395665 0.248836 0.787175 4539978 3
-0.360891 0.251625 0.795997 4473924 3
-0.345595 0.250014 0.790901 3947067 3
-0.332609 0.250014 0.790901 3486516 3
-0.388476 0.265683 0.798972 4869963 3
-0.372751 0.263838 0.793423 5066572 3
-0.358581 0.263000 0.790901 4276034 3
-0.344960 0.262516 0.789447 3815481 3
-0.320672 0.253561 0.762516 4802376 3
-0.317066 0.260895 0.784572 4671044 3
-0.356385 0.264710 0.758587 4145472 3
-0.348581 0.268289 0.768845 4144446 3
-0.343128 0.274016 0.785255 4999755 3
-0.317579 0.263514 0.755161 6381410 3
-0.330048 0.256682 0.702527 4473924 3
-0.328980 0.287440 0.752877 6184544 3
-0.313980 0.285045 0.746603 6250337 3
0.482307 0.153000 0.540111 2499625 3
0.492451 0.153398 0.541515 4736332 3
0.496511 0.151919 0.536296 3881538 3
0.475405 0.162540 0.542355 5591378 3
0.494816 0.160176 0.534466 3815745 3
0.469552 0.172567 0.545903 6446174 3
0.469905 0.169462 0.536080 6183515 3
0.475743 0.168413 0.532761 5854296 3
0.486041 0.168951 0.534466 5986399 3
0.494711 0.168915 0.534352 6183778 3
0.474232 0.176597 0.531069 7565684 3
0.486041 0.177727 0.534466 7631479 3
0.494816 0.177727 0.534466 6512743 3
0.457280 0.189125 0.541981 4736585 3
0.468178 0.182951 0.524290 4670792 3
0.305157 0.167741 0.592148 6841961 3
0.303118 0.176277 0.588191 4736585 3
0.314926 0.177489 0.592236 6512998 3
0.311629 0.185253 0.586034 7960955 3
0.303333 0.189688 0.570434 7565684 3
0.341436 0.175568 0.527973 7105905 3
0.343214 0.172113 0.517583 5132116 3
0.346203 0.169417 0.509475 4145220 3
0.353774 0.169037 0.508334 4276806 3
0.360949 0.168490 0.506689 4934734 3
0.386854 0.176515 0.530820 4934477 3
0.327556 0.186203 0.533607 8225156 3
0.330099 0.182760 0.523741 6711662 3
0.336875 0.181776 0.520922 6974320 3
0.339495 0.178654 0.511973 7434870 3
0.343616 0.176453 0.505667 7105905 3
0.351563 0.176275 0.505156 5066320 3
0.359857 0.176275 0.505156 3553081 3
0.365725 0.175113 0.501827 4737096 3
0.321022 0.186097 0.509338 7501180 3
0.326680 0.184569 0.505156 7171699 3
0.357550 0.183386 0.501918 7566708 3
0.324586 0.191627 0.501918 6777968 3
0.289643 0.164452 0.580539 5525331 3
0.279783 0.173781 0.579860 8749958 3
0.288437 0.173260 0.578122 8091258 3
0.285146 0.180667 0.571527 8881803 3
0.299064 0.183448 0.580324 7303025 3
0.281617 0.187699 0.564453 8816010 3
0.289252 0.186645 0.561285 8882057 3
0.202922 0.185166 0.506791 8159359 3
0.209387 0.183539 0.502338 8883082 3
0.216758 0.182800 0.500314 8685703 3
0.250195 0.189458 0.518538 8947596 3
0.254119 0.186097 0.509338 8683914 3
0.258611 0.183353 0.501827 8683398 3
0.233329 0.191130 0.500617 9277326 3
-0.020806 0.222502 0.785464 6710886 3
-0.007884 0.221802 0.782992 6579300 3
-0.034315 0.239679 0.799748 5526612 3
-0.020664 0.233801 0.780134 6316128 3
-0.007806 0.232334 0.775240 7434096 3
-0.058814 0.245452 0.776469 4342597 3
-0.047325 0.252164 0.797704 7434611 3
-0.034218 0.252096 0.797488 6907754 3
-0.020261 0.241792 0.764891 5459540 3
-0.007706 0.241924 0.765310 8025465 3
-0.031422 0.243519 0.732319 3881789 3
-0.020094 0.252254 0.758587 4802380 3
-0.007730 0.255264 0.767639 6183261 3
-0.007574 0.262493 0.752234 8815751 3
-0.186933 0.220698 0.779097 5789786 3
-0.174141 0.220698 0.779097 5394774 3
-0.193003 0.225633 0.752877 6841959 3
-0.181959 0.227278 0.758368 7237232 3
-0.171580 0.230057 0.767639 6381923 3
-0.189642 0.233849 0.739766 8157821 3
-0.198508 0.241996 0.727738 4670790 3
-0.188473 0.244479 0.735204 5789786 3
0.150554 0.205281 0.684969 5329233 3
0.162241 0.205840 0.686835 7368818 3
0.176058 0.208852 0.696886 7828856 3
0.109532 0.203028 0.642265 7105905 3
0.177523 0.208573 0.659806 8092026 3
0.192692 0.213374 0.674993 8223612 3
-0.203275 0.224621 0.792944 4604997 3
-0.241783 0.237101 0.791143 5395028 3
-0.222070 0.230134 0.767898 6644582 3
-0.205365 0.225633 0.752877 7039340 3
-0.253916 0.237158 0.750232 5987163 3
-0.234082 0.229780 0.726893 5592407 3
-0.205970 0.225143 0.712223 7105133 3
-0.201558 0.233582 0.738921 6644580 3
-0.276828 0.247932 0.745589 5066063 3
-0.249237 0.233549 0.702337 5723993 3
-0.298392 0.257653 0.738365 6184031 3
-0.276682 0.249025 0.713639 6447716 3
-0.575600 0.200163 0.706604 1643293 3
-0.508217 0.215895 0.762138 3091758 3
-0.595939 0.210752 0.703224 1710367 3
-0.583571 0.210455 0.702235 2828337 3
-0.572041 0.210455 0.702235 1446168 3
-0.562247 0.211107 0.704410 1907999 3
-0.551610 0.211463 0.705598 2368548 3
-0.549836 0.215305 0.718417 1842206 3
-0.541309 0.223579 0.707276 3026480 3
-0.513945 0.237783 0.752208 6052445 3
-0.535702 0.237858 0.715294 2828588 3
-0.526648 0.239080 0.718968 3683897 3
-0.521572 0.242204 0.728365 3289652 3
-0.509466 0.242134 0.728154 3815996 3
-0.528440 0.246219 0.705598 3354932 3
-0.519343 0.247404 0.708995 2697515 3
-0.515290 0.251102 0.719592 4276547 3
-0.504916 0.251821 0.721652 4013373 3
-0.510598 0.260523 0.713039 2369061 3
-0.500163 0.261188 0.714858 2829612 3
0.515917 0.146116 0.547547 2960436 3
0.527912 0.146953 0.550682 3420987 3
0.505316 0.151919 0.536296 5394523 3
0.517012 0.152773 0.539311 2433838 3
0.503591 0.160176 0.534466 4078663 3
0.501878 0.168377 0.532648 5723229 3
-0.205633 0.228705 0.857036 4144961 3
-0.291212 0.243738 0.860431 5395028 3
-0.276897 0.243573 0.859846 6381408 3
-0.260099 0.241089 0.851078 4736583 3
-0.239075 0.234183 0.826699 4736585 3
-0.222479 0.231044 0.815617 5328722 3
-0.287950 0.254977 0.850791 6118751 3
-0.270970 0.252174 0.841441 6118751 3
-0.289628 0.257997 0.816156 5987165 3
-0.461611 0.204912 0.767876 2169890 3
-0.454162 0.207266 0.776698 2631211 3
-0.449243 0.210945 0.790482 2302244 3
-0.427831 0.213210 0.798972 4276806 3
-0.414713 0.213210 0.798972 5395287 3
-0.489827 0.213335 0.753104 4210493 3
-0.479769 0.214366 0.756744 2762793 3
-0.469470 0.215342 0.760186 2565416 3
-0.457128 0.215407 0.760418 1775902 3
-0.448319 0.217188 0.766706 3223346 3
-0.446164 0.222389 0.785064 5855577 3
-0.438711 0.225180 0.794916 5000268 3
-0.425660 0.225180 0.794916 6579048 3
-0.412740 0.225251 0.795169 6251366 3
-0.478184 0.220336 0.735204 3749688 3
-0.466251 0.220401 0.735421 4012860 3
-0.456050 0.221310 0.738455 3420725 3
-0.441970 0.220336 0.735204 3683899 3
-0.435820 0.223371 0.745330 3421236 3
-0.436455 0.230159 0.767980 5066059 3
-0.436223 0.236880 0.790407 4802889 3
-0.419406 0.234732 0.783238 4802637 3
-0.408461 0.235837 0.786927 4474186 3
-0.491708 0.233096 0.737382 5328206 3
-0.472125 0.229462 0.725887 4802630 3
-0.477566 0.238118 0.753268 5460306 3
-0.457398 0.234125 0.740638 2763308 3
-0.437987 0.230313 0.728577 4342597 3
-0.435193 0.235269 0.744256 4342338 3
-0.436174 0.242612 0.767486 4802889 3
-0.432131 0.247514 0.782992 4605510 3
-0.419406 0.247592 0.783238 4868943 3
-0.408461 0.248758 0.786927 4211013 3
-0.495350 0.241083 0.724993 5723478 3
-0.483033 0.240877 0.724372 5394513 3
-0.465083 0.237781 0.715061 5065802 3
-0.466700 0.244787 0.736130 3684408 3
-0.450315 0.242472 0.729169 3421236 3
-0.435331 0.240806 0.724159 3947582 3
-0.434306 0.246985 0.742740 4276545 3
-0.433270 0.253514 0.762375 4605762 3
-0.428120 0.257953 0.775724 5197645 3
-0.428190 0.265906 0.799641 4408390 3
-0.401595 0.265683 0.798972 4737355 3
-0.493068 0.251821 0.721652 4210752 3
-0.481081 0.251749 0.721445 4407872 3
-0.465750 0.249879 0.716086 5329233 3
-0.466700 0.256873 0.736130 3487029 3
-0.476359 0.269160 0.771340 4671301 3
-0.444987 0.273226 0.782992 4802627 3
-0.432131 0.273226 0.782992 4474176 3
-0.410879 0.267755 0.767313 3881787 3
-0.486344 0.260074 0.711811 4144957 3
-0.477651 0.261715 0.716301 3815992 3
-0.470191 0.264131 0.722914 2500647 3
-0.441958 0.284134 0.777662 4078905 3
-0.491488 0.268191 0.702459 5197645 3
-0.491167 0.274456 0.718869 3749940 3
-0.483447 0.276794 0.724993 3487281 3
-0.468569 0.275048 0.720420 3158577 3
-0.461275 0.277779 0.727572 4934473 3
-0.451920 0.279381 0.731768 4276797 3
0.413970 0.173531 0.692913 4538957 3
0.410904 0.183538 0.687781 8289156 3
0.425412 0.184936 0.693019 6249571 3
0.411474 0.195101 0.688735 7697529 3
0.421616 0.194563 0.686835 7302771 3
0.440937 0.198178 0.699597 7631736 3
0.463580 0.198037 0.699100 6250083 3
0.475059 0.198037 0.699100 6250083 3
0.486537 0.198037 0.699100 5855325 3
0.441184 0.199394 0.665325 6579561 3
0.450903 0.198863 0.663553 6382182 3
0.456507 0.196584 0.655949 5855838 3
0.464815 0.195548 0.652493 5592666 3
0.325569 0.174936 0.698523 7105905 3
0.332951 0.172814 0.690052 7105135 3
0.346765 0.174061 0.695031 7696502 3
0.356306 0.173152 0.691401 6578536 3
0.360403 0.169735 0.677757 7894396 3
0.379208 0.173243 0.691763 4275781 3
0.397649 0.171400 0.684403 4868431 3
0.300954 0.185372 0.694653 7501431 3
0.302561 0.179557 0.672861 6974317 3
0.308309 0.176523 0.661491 7369077 3
0.315655 0.174579 0.654207 6315619 3
0.336293 0.179872 0.674041 7038572 3
0.351259 0.181891 0.681608 7565686 3
0.355236 0.178271 0.668041 8420740 3
0.365882 0.178113 0.667452 10131613 3
0.382359 0.180722 0.677226 7565684 3
0.396998 0.182338 0.683283 7565943 3
0.398292 0.194188 0.685510 8026494 3
0.335492 0.193465 0.612014 9342093 3
0.108301 0.238291 0.892960 7434870 3
0.123048 0.238457 0.893581 7895419 3
0.105262 0.245857 0.867908 6119010 3
0.118483 0.243738 0.860431 6579559 3
0.132520 0.243573 0.859846 7105903 3
0.139999 0.232545 0.820918 6908267 3
0.195848 0.234864 0.829105 6710375 3
0.106701 0.263660 0.879766 5987424 3
0.118430 0.257750 0.860043 5855838 3
0.005006 0.223342 0.788430 7171696 3
0.018134 0.225614 0.796449 6316639 3
0.004923 0.232334 0.775240 6776681 3
0.017532 0.230769 0.770014 7237743 3
0.030287 0.231623 0.772865 6711397 3
0.043109 0.232334 0.775240 6975087 3
0.004874 0.242661 0.767639 7368305 3
0.017478 0.242661 0.767639 8223616 3
0.030082 0.242661 0.767639 6776681 3
0.042686 0.242661 0.767639 7171439 3
0.055666 0.244312 0.772865 7500404 3
0.004874 0.255264 0.767639 5526103 3
0.017478 0.255264 0.767639 6513255 3
0.028754 0.243994 0.733747 7039853 3
0.004874 0.267868 0.767639 8289666 3
0.016707 0.256042 0.733747 7829628 3
0.004658 0.268022 0.733564 9342867 3
-0.356075 0.220660 0.881100 3815485 3
-0.351485 0.232095 0.869741 4144450 3
-0.335672 0.231041 0.865789 6512480 3
-0.324709 0.233378 0.874548 6709859 3
-0.307560 0.231280 0.866687 5789271 3
-0.394904 0.230073 0.812191 4540744 3
-0.387212 0.233476 0.824202 5527123 3
-0.382188 0.238792 0.842970 6381408 3
-0.373922 0.242406 0.855729 5131343 3
-0.363996 0.245184 0.865534 4276036 3
-0.350250 0.245510 0.866687 5789273 3
-0.335672 0.245256 0.865789 6117468 3
-0.324709 0.247737 0.874548 6052445 3
-0.306400 0.244585 0.863419 4670792 3
-0.378620 0.241528 0.805915 4803400 3
-0.366456 0.242234 0.808270 5395026 3
-0.361456 0.247907 0.827200 5395028 3
-0.354957 0.252954 0.844042 6118238 3
-0.343943 0.255063 0.851078 5657685 3
-0.331208 0.256021 0.854276 7236719 3
-0.317722 0.256457 0.855729 4670792 3
-0.302537 0.255498 0.852532 4671305 3
-0.390004 0.253558 0.802112 3882814 3
-0.379228 0.255169 0.807208 4080447 3
-0.325423 0.254550 0.805252 5263181 3
-0.317358 0.258755 0.818553 5723991 3
-0.304414 0.259177 0.819887 6118751 3
-0.311060 0.266793 0.802308 3289650 3
-0.443780 0.228577 0.912714 1645084 3
-0.445261 0.237355 0.947764 3158064 3
-0.440362 0.243244 0.971280 3617588 3
-0.427674 0.245112 0.978740 4077887 3
-0.409399 0.243799 0.973497 6512229 3
-0.419340 0.246819 0.924915 5459792 3
-0.405992 0.247941 0.929120 4670024 3
-0.404238 0.256509 0.961226 5197138 3
-0.431004 0.201575 0.804896 2895153 3
-0.422667 0.203930 0.814296 2039842 3
-0.428751 0.213622 0.852999 3618874 3
-0.443070 0.214235 0.802813 3289650 3
-0.407347 0.216264 0.810415 5132883 3
-0.408424 0.224158 0.839997 3224886 3
-0.422476 0.239974 0.899264 5921370 3
-0.403272 0.227274 0.802308 4803920 3
-0.416049 0.266539 0.801546 4078914 3
0.611896 0.201012 0.858962 5394515 3
0.605256 0.212781 0.849641 3289139 3
0.620254 0.213141 0.851078 3552570 3
0.634885 0.213362 0.851960 5591896 3
0.608072 0.222654 0.834362 4342340 3
0.613061 0.233043 0.822675 5526614 3
0.641198 0.257866 0.860431 6250594 3
0.655325 0.257866 0.860431 7039599 3
0.584488 0.201287 0.860137 3618617 3
0.595543 0.200256 0.855729 3420725 3
0.567434 0.209125 0.835039 3289139 3
0.588115 0.211633 0.845056 3223346 3
0.571525 0.214096 0.802290 5592407 3
0.005528 0.203736 0.870602 9013643 3
0.020053 0.206102 0.880709 6974571 3
0.035067 0.209410 0.894848 6711395 3
0.005594 0.220642 0.881030 6514534 3
0.005272 0.221552 0.830230 7764601 3
0.020022 0.234665 0.879372 6909546 3
0.031532 0.227933 0.804634 5988444 3
0.046563 0.237205 0.837369 6843499 3
0.063261 0.248804 0.878314 7369075 3
0.079488 0.254587 0.898727 6908267 3
0.091901 0.248258 0.876387 5921118 3
0.061508 0.255931 0.853975 5987422 3
0.078869 0.267245 0.891726 6184544 3
0.075867 0.271159 0.857792 7500404 3
0.091524 0.275901 0.872793 6579302 3
-0.097550 0.210238 0.898384 5592664 3
-0.082947 0.210614 0.899991 5856090 3
-0.067376 0.208160 0.889504 5592407 3
-0.052470 0.206971 0.884426 6052445 3
-0.037748 0.205881 0.879766 7631477 3
-0.023118 0.204238 0.872746 8750471 3
-0.008715 0.202539 0.865485 8487299 3
-0.095899 0.221182 0.883184 6052704 3
-0.082182 0.223311 0.891688 6316130 3
-0.066995 0.221506 0.884479 7039851 3
-0.052193 0.220326 0.879766 5723993 3
-0.037895 0.221182 0.883184 7237232 3
-0.023337 0.220638 0.881012 8027259 3
-0.008812 0.219172 0.875159 7896187 3
-0.093912 0.230800 0.864888 7236978 3
-0.079092 0.229007 0.858167 7039853 3
-0.062471 0.220089 0.824750 6513507 3
-0.050345 0.226458 0.848617 5986911 3
-0.036856 0.229219 0.858962 7697783 3
-0.022746 0.229153 0.858715 6382434 3
-0.008327 0.220674 0.826942 7171948 3
-0.095137 0.248197 0.876170 7434611 3
-0.079576 0.244585 0.863419 7434611 3
-0.062402 0.233373 0.823840 7763576 3
-0.048939 0.233679 0.824920 7566197 3
-0.034500 0.227766 0.804048 7829369 3
-0.078406 0.254955 0.850718 4934477 3
-0.061536 0.243475 0.812413 6052958 3
-0.047643 0.240675 0.803069 5856090 3
-0.074748 0.256376 0.811029 5987424 3
0.240897 0.214382 0.756798 6908267 3
0.274821 0.221700 0.782632 6843501 3
0.282160 0.217453 0.767639 6053983 3
0.276670 0.204105 0.720519 5987165 3
0.215035 0.239523 0.799227 6775398 3
0.224574 0.222938 0.743887 6381410 3
0.227368 0.214070 0.714297 7434098 3
0.240450 0.215282 0.718341 6250083 3
0.247600 0.211318 0.705113 7434868 3
-0.126551 0.209410 0.894848 4869711 3
-0.111858 0.209410 0.894848 5395288 3
-0.178255 0.215558 0.860728 4868943 3
-0.164749 0.216381 0.864015 3816256 3
-0.146961 0.211206 0.843349 4408907 3
-0.133384 0.211633 0.845056 5593436 3
-0.121238 0.214694 0.857279 4737355 3
-0.109973 0.220326 0.879766 5328982 3
-0.179159 0.213897 0.801546 4276293 3
-0.174277 0.224565 0.841522 5066322 3
-0.164749 0.230567 0.864015 3882048 3
-0.146961 0.225053 0.843349 6579561 3
-0.132890 0.224673 0.841927 5790043 3
-0.120950 0.228227 0.855246 6908267 3
-0.108713 0.232082 0.869691 6710634 3
-0.167827 0.229560 0.810379 6447973 3
-0.158313 0.235192 0.830261 6842733 3
-0.112449 0.254828 0.899577 7763322 3
-0.185634 0.268633 0.896359 5592918 3
0.437433 0.163825 0.752877 4802637 3
0.445511 0.162265 0.745707 4210503 3
0.485497 0.172099 0.790901 4078663 3
0.406157 0.168347 0.719376 3486778 3
0.418689 0.168637 0.720617 4013121 3
0.431139 0.168879 0.721652 3025716 3
0.452022 0.172323 0.736369 3288890 3
0.431368 0.175987 0.702721 3288888 3
0.456811 0.181513 0.724784 1775649 3
0.465214 0.180158 0.719376 3223093 3
0.488974 0.184671 0.737394 3354932 3
0.456811 0.193413 0.724784 6446950 3
0.459459 0.189595 0.710477 5394262 3
0.467757 0.188240 0.705398 5592407 3
0.485385 0.190614 0.714297 6316130 3
0.453375 0.198595 0.701068 7039599 3
0.311544 0.212973 0.978740 4803150 3
0.323569 0.210343 0.966657 4934736 3
0.335301 0.207778 0.954868 7500664 3
0.307697 0.226215 0.966657 6908526 3
0.320856 0.224318 0.958552 7698812 3
0.324579 0.216311 0.924335 6711147 3
0.208605 0.206519 0.949081 6118240 3
0.224188 0.206519 0.949081 7434611 3
0.239771 0.206519 0.949081 6316130 3
0.255354 0.206519 0.949081 5460567 3
0.279404 0.212973 0.978740 5000270 3
0.295474 0.212973 0.978740 5197906 3
0.209877 0.223456 0.954868 8223614 3
0.224615 0.222525 0.950890 6645093 3
0.239771 0.222102 0.949081 6513509 3
0.255354 0.222102 0.949081 7303025 3
0.272283 0.223205 0.953797 7697781 3
0.291826 0.226215 0.966657 7040364 3
0.207271 0.236165 0.943011 6512994 3
0.216222 0.229239 0.915356 8222844 3
0.228601 0.226612 0.904868 9012360 3
0.212605 0.240182 0.900045 6973547 3
-0.259624 0.253221 1.082058 5855066 3
-0.234334 0.245344 1.048398 4868684 3
-0.212347 0.239949 1.025347 5328981 3
-0.274904 0.268558 1.072359 5986650 3
-0.246017 0.256784 1.025347 6118751 3
-0.277243 0.271228 1.016384 5000270 3
0.103934 0.215668 0.991129 6314336 3
0.136480 0.215668 0.991129 5658200 3
0.150844 0.212973 0.978740 6974317 3
0.166914 0.212973 0.978740 6513255 3
0.174271 0.202831 0.932133 5460567 3
0.189575 0.202831 0.932133 5131090 3
0.102634 0.229043 0.978740 7630709 3
0.119737 0.231036 0.987258 6578019 3
0.135307 0.229949 0.982612 5592403 3
0.150844 0.229043 0.978740 5724250 3
0.164115 0.225202 0.962328 6447462 3
0.176316 0.220696 0.943076 6447716 3
0.191647 0.220519 0.942318 7631477 3
0.115809 0.239134 0.954868 6184290 3
0.131693 0.239508 0.956360 5658711 3
0.150728 0.244923 0.977985 5592664 3
0.160806 0.236142 0.942922 7368818 3
0.174271 0.233440 0.932133 6184290 3
0.190428 0.234490 0.936324 7039340 3
0.139816 0.242088 0.907186 6908524 3
0.155893 0.243937 0.914116 6579302 3
0.171029 0.244118 0.914793 6973806 3
0.183104 0.240255 0.900316 6250337 3
0.198959 0.241556 0.905193 6578787 3
0.051526 0.201631 0.926618 5131854 3
0.050107 0.210872 0.901095 5462100 3
0.068190 0.221555 0.946744 6185569 3
0.088115 0.233146 0.996273 6052958 3
0.020507 0.225555 0.900645 8093820 3
0.035666 0.227929 0.910127 7173229 3
0.050468 0.227291 0.907579 5791322 3
0.067972 0.236342 0.943721 6514536 3
0.083941 0.237685 0.949081 5131856 3
0.099562 0.237775 0.949443 5000016 3
0.035460 0.241469 0.904868 6777958 3
0.050082 0.240342 0.900645 7238770 3
0.065600 0.243049 0.910789 6776938 3
0.080996 0.244381 0.915780 7566197 3
0.094894 0.241484 0.904925 7829115 3
0.096326 0.275293 0.918580 6250083 3
0.332887 0.186892 0.798625 6645091 3
0.335725 0.181342 0.774909 5922397 3
0.335934 0.174830 0.747080 5527643 3
0.339090 0.170256 0.727533 4342340 3
0.345217 0.167433 0.715473 4605001 3
0.360047 0.168879 0.721652 2959153 3
0.371789 0.168831 0.721445 4209992 3
0.382094 0.168153 0.718548 2302252 3
0.395593 0.168879 0.721652 2500142 3
0.318722 0.199347 0.795997 7236717 3
0.323001 0.194066 0.774909 7368816 3
0.321891 0.186069 0.742978 6053983 3
0.318950 0.177637 0.709309 5395539 3
0.395830 0.175577 0.701085 5262931 3
0.306779 0.196403 0.735991 6513766 3
0.241723 0.224997 0.898420 7828856 3
0.248707 0.218183 0.871210 7303025 3
0.261192 0.216674 0.865185 7434611 3
0.275493 0.216749 0.865485 7171696 3
0.290720 0.217510 0.868522 7369847 3
0.297240 0.211989 0.846478 6251364 3
0.219339 0.231686 0.868206 6183261 3
0.230018 0.228139 0.854915 6841961 3
0.240267 0.224598 0.841646 8026235 3
0.252897 0.223547 0.837706 8026748 3
0.267905 0.224598 0.841646 6776681 3
0.279286 0.222654 0.834362 5396057 3
0.291433 0.221474 0.829940 6251364 3
0.215750 0.241917 0.854001 6447203 3
0.228058 0.240112 0.847631 7104363 3
0.239384 0.237541 0.838553 6447203 3
0.249124 0.233761 0.825210 6973547 3
0.273011 0.231044 0.815617 7434870 3
0.236925 0.248728 0.829940 8354430 3
-0.154485 0.212973 0.978740 4342597 3
-0.131044 0.201631 0.926618 3092530 3
-0.147978 0.219395 0.937514 5855836 3
-0.158272 0.257286 0.908257 7237489 3
-0.145938 0.261914 0.924594 6052958 3
-0.130273 0.260943 0.921167 6974058 3
-0.185202 0.291087 0.971280 7040110 3
-0.141305 0.299446 0.999174 5592405 3
-0.123893 0.297035 0.991129 5592407 3
-0.100053 0.276150 0.921440 5460821 3
-0.373893 0.266216 1.223425 4012346 3
-0.353805 0.266216 1.223425 4143932 3
-0.328584 0.262120 1.204603 3552309 3
-0.395934 0.287723 1.229494 4735554 3
-0.369938 0.283275 1.210485 4077626 3
-0.348362 0.281898 1.204603 4407104 3
0.844646 0.160737 0.798972 2038819 1
0.857764 0.173855 0.798972 2565676 1
0.834619 0.164335 0.702235 2037540 1
0.846149 0.164335 0.702235 853777 1
0.864525 0.177269 0.707840 2630956 1
0.704630 0.140645 0.699100 1709856 1
0.712925 0.140020 0.695993 1183510 1
0.724353 0.140020 0.695993 2169890 1
0.727587 0.152123 0.699100 2828590 1
0.748435 0.155985 0.666554 2237221 1
0.797520 0.159230 0.680420 1775647 1
0.734441 0.159154 0.635505 1644573 1
0.744396 0.159051 0.635096 789267 1
0.105266 0.201951 1.003836 6775401 3
0.121748 0.201951 1.003836 4538953 3
0.138230 0.201951 1.003836 4934736 3
0.154712 0.201951 1.003836 4737355 3
0.121748 0.218433 1.003836 5985882 3
0.693151 0.129166 0.699100 2433581 1
0.693151 0.140645 0.699100 1907748 1
0.624918 0.146878 0.674993 2829101 1
0.647159 0.149454 0.686835 2829101 1
0.683990 0.150113 0.689861 2631468 3
0.695317 0.150113 0.689861 3486777 3
0.663180 0.159164 0.680135 4670794 3
0.664068 0.156737 0.669767 3947582 3
0.683093 0.158601 0.677733 5197649 3
0.665051 0.132721 0.718341 2302503 1
0.676845 0.132721 0.718341 2434090 1
0.688640 0.132721 0.718341 986133 1
0.687814 0.130330 0.705398 1841444 1
0.665051 0.144516 0.718341 1118483 1
0.676845 0.144516 0.718341 1710366 1
0.682379 0.143202 0.711811 2762542 1
0.690926 0.142554 0.708590 2104612 1
0.647318 0.154889 0.711811 3092273 1
0.676232 0.153494 0.705398 2762795 3
0.684729 0.152805 0.702235 4078657 1
0.522437 0.157246 0.851078 2369326 1
0.505939 0.165813 0.824202 3289660 1
0.536411 0.171220 0.851078 1776421 1
0.553392 0.172155 0.855729 2960436 1
0.570561 0.173101 0.860431 3420984 1
0.587918 0.174058 0.865185 4078914 1
0.522220 0.180294 0.828563 5591902 3
0.544467 0.183202 0.841927 6184291 3
0.561308 0.184192 0.846478 5000016 3
0.584688 0.187229 0.860431 4868430 3
0.595543 0.186206 0.855729 5526103 3
0.534612 0.193460 0.826688 4276294 3
0.556258 0.196309 0.838863 3552824 3
0.510265 0.209661 1.134771 1514270 1
0.521341 0.206666 1.118560 1578780 1
0.547528 0.209661 1.134771 2368039 1
0.574486 0.212744 1.151459 3419957 1
0.510265 0.228293 1.134771 3948611 3
0.521341 0.225032 1.118560 4934477 3
0.539706 0.225032 1.118560 5328722 3
-0.325161 0.278962 1.192055 4868423 3
-0.358842 0.294057 1.174178 4603968 3
-0.337963 0.292672 1.168645 5459792 3
-0.312423 0.286839 1.145357 5460821 3
-0.355137 0.294290 1.102806 6117207 3
0.096183 0.200925 1.087489 2433832 1
0.075194 0.210029 1.043989 5855577 3
0.093583 0.212868 1.058097 6051677 3
0.072769 0.219843 1.010312 5987163 3
0.091121 0.224182 1.030253 5985882 3
0.005781 0.168216 0.910456 2169890 1
0.020730 0.168216 0.910456 2695981 1
0.035887 0.169200 0.915780 2565678 1
0.035679 0.183165 0.910456 4275781 3
0.054767 0.198141 0.984896 5132115 3
0.035679 0.198114 0.910456 6645095 3
0.771166 0.148101 0.879766 2038305 1
0.751821 0.141731 0.841927 2367269 1
0.765644 0.155555 0.841927 2565416 1
0.785611 0.176991 0.879766 1644316 1
0.765644 0.169379 0.841927 1841693 1
0.728326 0.177477 0.815617 2236710 1
-0.498391 0.265722 0.695993 4605769 3
-0.487407 0.243164 0.610646 3619644 3
-0.484609 0.246846 0.619893 3422267 3
-0.475602 0.247455 0.621422 4540493 3
-0.465399 0.247455 0.621422 5000529 3
-0.465456 0.253033 0.635430 4277058 3
-0.478815 0.266263 0.668655 3421749 3
-0.435348 0.252074 0.607954 3027759 3
-0.453460 0.268723 0.648107 5527121 3
0.317497 0.167911 0.997442 1907999 1
0.333874 0.167911 0.997442 2697261 1
0.343684 0.164763 0.978740 2499885 1
0.359754 0.164763 0.978740 2433581 1
0.375823 0.164763 0.978740 1644063 1
0.311544 0.180833 0.978740 3158325 1
0.327614 0.180833 0.978740 3684410 1
0.343684 0.180833 0.978740 2828337 1
0.355312 0.178600 0.966657 2893878 1
0.371184 0.178600 0.966657 2565165 1
0.391893 0.180833 0.978740 1512475 1
0.311544 0.196903 0.978740 4803150 3
0.327614 0.196903 0.978740 5723993 3
0.339441 0.194472 0.966657 3026229 3
0.350979 0.192100 0.954868 2959925 3
0.349603 0.183165 0.910456 3617853 3
0.334654 0.198114 0.910456 6578536 3
0.266667 0.183122 0.991129 3223606 1
0.284743 0.184288 0.997442 2565675 1
0.299214 0.183122 0.991129 2303014 1
0.225555 0.192100 0.954868 5329494 3
0.241233 0.192100 0.954868 3158325 3
0.258487 0.193279 0.960726 4407880 3
0.279404 0.196903 0.978740 4605258 3
0.295474 0.196903 0.978740 2829358 3
0.348350 0.175025 0.869991 4144450 3
0.354751 0.171220 0.851078 4539719 3
0.330394 0.187229 0.860431 5262161 3
0.337113 0.183202 0.841927 7434098 3
0.339969 0.177477 0.815617 4408131 3
0.353361 0.177477 0.815617 3751228 3
0.366753 0.177477 0.815617 3027509 3
0.318564 0.194146 0.829621 6775398 3
0.326578 0.190869 0.815617 6841959 3
-0.091929 0.151534 0.997442 1775651 1
-0.075552 0.151534 0.997442 2434603 1
-0.089091 0.162729 0.966657 2959925 1
-0.073220 0.162729 0.966657 3289911 1
-0.056305 0.159770 0.949081 2895154 1
-0.040723 0.159770 0.949081 2895670 1
-0.024988 0.158807 0.943364 2237740 1
-0.088545 0.177504 0.960726 3289401 1
-0.071888 0.175353 0.949081 3223605 1
-0.055631 0.173253 0.937715 2368556 1
-0.039759 0.171203 0.926618 1973798 1
-0.024400 0.170195 0.921167 1907746 1
-0.009221 0.169200 0.915780 2104867 1
-0.085909 0.187526 0.932133 1184536 1
-0.070605 0.187526 0.932133 1842206 3
-0.054330 0.184236 0.915780 2104612 3
-0.039065 0.183165 0.910456 1907233 3
-0.024116 0.183165 0.910456 2828590 3
-0.009115 0.182106 0.905193 3156785 3
-0.099438 0.199273 0.915780 3421497 3
-0.054014 0.198114 0.910456 6907756 3
-0.038839 0.196969 0.905193 8814983 3
-0.156440 0.150575 0.991129 3157812 1
-0.138415 0.148693 0.978740 3158066 1
-0.120834 0.146857 0.966657 1644825 1
-0.104963 0.146857 0.966657 2433581 1
-0.154485 0.164763 0.978740 2895151 1
-0.135039 0.160744 0.954868 2763304 1
-0.119361 0.160744 0.954868 3289902 1
-0.104963 0.162729 0.966657 3617853 1
-0.154485 0.180833 0.978740 3355445 1
-0.135039 0.176422 0.954868 2961196 1
-0.118637 0.175353 0.949081 3158577 1
-0.104319 0.177504 0.960726 3553084 1
-0.135039 0.192100 0.954868 4737609 1
-0.117923 0.189786 0.943364 3421497 1
-0.100615 0.186417 0.926618 3289912 1
-0.114475 0.199273 0.915780 4408393 3
-0.359576 0.135175 0.889764 1249818 1
-0.333595 0.130719 0.860431 1841953 1
-0.302828 0.123911 0.815617 1907745 1
-0.359576 0.149784 0.889764 1447195 1
-0.333595 0.144846 0.860431 1710880 1
-0.302828 0.137302 0.815617 2303016 1
0.009561 0.204035 1.505754 2565678 1
0.035656 0.212197 1.565984 3091770 1
0.062620 0.216527 1.597943 1907496 1
0.009561 0.228758 1.505754 2828337 1
0.035656 0.237908 1.565984 3289149 1
0.062620 0.242764 1.597943 2368048 1
0.034956 0.258451 1.535279 2236202 1
0.061367 0.263620 1.565984 2762805 1
0.087079 0.263620 1.565984 3355451 1
-0.617585 0.206409 0.688735 2499370 3
-0.604605 0.205840 0.686835 1710367 3
-0.604353 0.209665 0.699597 2170917 3
-0.610527 0.215229 0.680863 1578523 3
-0.601707 0.223138 0.671027 2368039 3
-1.859091 0.119481 2.237120 1775133 1
-1.895823 0.156213 2.237120 1445914 1
-1.859091 0.156213 2.237120 1116436 1
-1.822360 0.156213 2.237120 1117203 1
-1.895823 0.192944 2.237120 853266 1
-1.859091 0.192944 2.237120 1116436 1
-1.822360 0.192944 2.237120 787471 1
0.122599 0.062962 1.702157 1314846 1
0.153892 0.064361 1.739982 1446943 1
0.182461 0.064361 1.739982 855319 1
0.122599 0.090910 1.702157 1973802 1
0.150547 0.090910 1.702157 1446943 1
-1.822360 0.009288 2.237120 2169637 1
-1.859091 0.046019 2.237120 1380121 1
-1.822360 0.046019 2.237120 1512477 1
-1.859091 0.082750 2.237120 1774879 1
-1.822360 0.082750 2.237120 1051926 1
-1.951582 0.009561 2.302918 1776162 1
-1.989394 0.047372 2.302918 657168 1
-1.951582 0.047372 2.302918 1380891 1
-1.989394 0.085184 2.302918 1446684 1
-1.951582 0.085184 2.302918 854547 1
-2.421515 -2.492623 3.819474 1644574 1
-2.484227 -2.429911 3.819474 2368810 1
-2.421515 -2.429911 3.819474 1512988 1
-0.631990 -1.558006 1.702157 1183510 1
-0.604042 -1.558006 1.702157 855571 1
-0.687885 -1.530059 1.702157 1380893 1
-0.659937 -1.530059 1.702157 1116436 1
-0.638934 -1.546872 1.720862 986131 1
