# .PCD v0.7
VERSION 0.7
FIELDS x y z rgb label
SIZE 4 4 4 4 4
TYPE F F F U U
COUNT 1 1 1 1 1
WIDTH 1253
HEIGHT 1
VIEWPOINT 0 0 0 1 0 0 0
POINTS 1253
DATA ascii
-0.782609 0.414117 0.960726 3619128 3
-0.746708 0.403248 0.935512 3553335 3
-0.782609 0.429891 0.960726 3750199 3
-0.786982 0.441186 0.985969 4013886 3
-0.776370 0.444378 0.993102 4540748 3
-0.758555 0.443495 0.991129 3816253 3
-0.797282 0.454022 0.978740 5000266 3
-0.753784 0.456877 0.984896 4145472 3
-0.758555 0.476042 0.991129 4079679 3
-0.781325 0.496444 0.999440 3815996 3
0.215382 0.181639 0.497138 8816264 3
0.224034 0.182037 0.498226 8027007 3
0.207426 0.189991 0.497633 8289916 3
0.214913 0.189389 0.496056 8750210 3
0.222881 0.189239 0.495663 8618885 3
0.232261 0.190255 0.498326 9013902 3
-0.298046 0.216650 0.592961 3486516 3
-0.284777 0.213995 0.585695 4605512 3
-0.294394 0.223612 0.585695 3420723 3
-0.274413 0.215474 0.564379 3487031 3
-0.257151 0.208976 0.547360 7039853 3
-0.245355 0.206611 0.541166 5197138 3
-0.212029 0.228114 0.597487 5658198 3
-0.200760 0.226468 0.593176 6184031 3
-0.283679 0.224740 0.564379 4276545 3
-0.266138 0.217963 0.547360 5526614 3
-0.250705 0.212500 0.533641 6776679 3
-0.237663 0.208740 0.524199 6381923 3
-0.224020 0.204151 0.512673 5723993 3
-0.211099 0.226405 0.568560 6645606 3
-0.278332 0.229595 0.553740 4803400 3
-0.259467 0.221262 0.533641 5131854 3
-0.248548 0.219358 0.529049 7960953 3
-0.299529 0.248740 0.577062 4869961 3
-0.278332 0.238687 0.553740 5263951 3
-0.394164 0.201115 0.550442 2237475 3
-0.390816 0.208368 0.545767 4802889 3
-0.376681 0.205544 0.538372 3947578 3
-0.396458 0.221534 0.580254 3750199 3
-0.379850 0.228745 0.599141 4671044 3
-0.369126 0.228197 0.597704 3026476 3
-0.359312 0.228197 0.597704 2565925 3
-0.349498 0.228197 0.597704 2697511 3
-0.320826 0.228745 0.599141 3947582 3
-0.307036 0.225837 0.591525 1117968 3
-0.387275 0.215359 0.540821 3553333 3
-0.374109 0.212920 0.534695 5329231 3
-0.367922 0.214431 0.538489 5395024 3
-0.367889 0.219691 0.551698 4670790 3
-0.361182 0.221130 0.555314 3420725 3
-0.355547 0.223318 0.560807 5262929 3
-0.347881 0.224312 0.563304 4737098 3
-0.340319 0.225429 0.566110 2368550 3
-0.336839 0.229389 0.576054 4342336 3
-0.333027 0.233346 0.585990 4210750 3
-0.324910 0.234431 0.588716 3092271 3
-0.315244 0.234431 0.588716 3421236 3
-0.304010 0.233228 0.585695 4144700 3
-0.390920 0.221276 0.533675 3553333 3
-0.380049 0.220055 0.530730 4145470 3
-0.370158 0.219358 0.529049 5987674 3
-0.361472 0.219358 0.529049 4013371 3
-0.356108 0.221424 0.534031 2368548 3
-0.352143 0.224486 0.541417 3420725 3
-0.346387 0.226535 0.546359 4670794 3
-0.339787 0.228127 0.550198 2170917 3
-0.333094 0.229741 0.554091 3486777 3
-0.327923 0.232526 0.560807 5460819 3
-0.321729 0.234724 0.566110 5658196 3
-0.319564 0.240081 0.579030 3355441 3
-0.312892 0.242276 0.584322 3618613 3
-0.300231 0.239826 0.578415 3224366 3
-0.334943 0.233780 0.542355 4473926 3
-0.326170 0.233874 0.542573 3684410 3
-0.321025 0.236648 0.549010 4013886 3
-0.313371 0.237680 0.551403 6250846 3
-0.310382 0.242416 0.562391 4342847 3
-0.308464 0.248306 0.576054 5658707 3
-0.316808 0.256860 0.574035 6448225 3
0.375985 0.168628 0.483244 5131602 3
0.381997 0.167784 0.480825 4342086 3
0.317463 0.179362 0.490904 7501433 3
0.329087 0.181325 0.496278 7304565 3
0.375985 0.176563 0.483244 5197395 3
0.158488 0.205552 0.589057 7170924 3
0.171127 0.209178 0.599450 8487038 3
0.190713 0.209071 0.599141 8553342 3
0.192153 0.200317 0.574054 8355711 3
0.138699 0.200592 0.549010 8618370 3
0.149814 0.203445 0.556818 8486784 3
0.160449 0.205355 0.562046 8684163 3
0.170057 0.205814 0.563304 8355198 3
0.179306 0.205814 0.563304 8158330 3
0.184054 0.200901 0.549857 8816262 3
0.100914 0.206076 0.539763 9211020 3
0.108263 0.203235 0.532323 10263710 3
0.115819 0.201179 0.526938 9013128 3
0.135515 0.204794 0.536406 9538956 3
0.147713 0.209606 0.549010 8815749 3
0.158178 0.211546 0.554091 8552577 3
0.167645 0.212012 0.555314 10789539 3
0.175907 0.210986 0.552625 9210507 3
0.181946 0.207525 0.543560 9803157 3
0.189619 0.206164 0.539995 9539987 3
0.197343 0.204978 0.536887 9474451 3
0.107898 0.211261 0.530530 9277072 3
0.113039 0.204793 0.514287 7566454 3
0.120492 0.203123 0.510093 8158332 3
0.134712 0.212336 0.533228 9079434 3
0.146297 0.216523 0.543745 8947335 3
0.155971 0.217564 0.546359 9671058 3
0.165300 0.218037 0.547547 9013128 3
0.172637 0.215970 0.542355 9539472 3
0.179901 0.214017 0.537452 9474194 3
0.187439 0.212558 0.533788 9737366 3
0.194875 0.211119 0.530173 9277072 3
0.108329 0.220850 0.532648 8751498 3
0.116530 0.219824 0.530173 8817291 3
0.124393 0.218346 0.526608 8684935 3
0.132759 0.217886 0.525498 8948361 3
0.144762 0.223087 0.538042 8420993 3
0.169548 0.220850 0.532648 8289407 3
0.178293 0.220850 0.532648 8157821 3
0.186170 0.219824 0.530173 8289409 3
0.194461 0.219358 0.529049 8355459 3
0.100265 0.231168 0.536296 7895673 3
0.052976 0.209011 0.598969 7764087 3
0.061881 0.205919 0.590110 8026744 3
0.071035 0.204379 0.585695 8487297 3
0.052716 0.217771 0.596028 8487295 3
0.061564 0.214505 0.587089 9079686 3
0.069335 0.208874 0.571679 8816260 3
0.075548 0.200454 0.548633 8882055 3
0.062151 0.226281 0.592687 8487295 3
0.068286 0.214958 0.563030 9737364 3
0.075781 0.210108 0.550324 9474194 3
0.083766 0.207506 0.543510 9211022 3
0.092091 0.206164 0.539995 8487297 3
0.075915 0.219531 0.551299 8750471 3
0.083224 0.215030 0.539995 8026748 3
0.091229 0.213019 0.534944 8092539 3
0.099583 0.212104 0.532648 9145227 3
0.075716 0.227985 0.549857 9407888 3
0.083405 0.224382 0.541166 9211022 3
0.091229 0.221802 0.534944 7960953 3
0.099583 0.220850 0.532648 8882568 3
0.080069 0.250638 0.581466 10459806 3
0.084744 0.237013 0.549857 7960442 3
0.091857 0.232171 0.538624 9079434 3
0.070522 0.260185 0.581466 8487297 3
0.077568 0.252059 0.563304 9867923 3
-0.127305 0.198747 0.569557 5987165 3
-0.111065 0.187141 0.536296 4671305 3
-0.118729 0.194079 0.531185 6250594 3
-0.108126 0.190761 0.522104 8027005 3
-0.113507 0.193881 0.507823 8093566 3
-0.105041 0.193646 0.507206 6316126 3
-0.173267 0.209071 0.599141 4012860 3
-0.163038 0.208569 0.597704 5395028 3
-0.151640 0.206413 0.591525 6447716 3
-0.141254 0.205433 0.588716 5855579 3
-0.191476 0.217246 0.594591 5790045 3
-0.181281 0.216729 0.593176 5723993 3
-0.170655 0.215608 0.590110 5855064 3
-0.159762 0.213995 0.585695 5987165 3
-0.146089 0.208214 0.569872 5066320 3
-0.133193 0.202825 0.555122 5592664 3
-0.191021 0.226468 0.593176 8552579 3
-0.180344 0.225297 0.590110 5723480 3
-0.169379 0.223612 0.585695 5526101 3
-0.156211 0.218642 0.572678 5526101 3
-0.142635 0.212426 0.556397 7368818 3
-0.129416 0.205929 0.539379 7500661 3
-0.197063 0.221130 0.555314 6316128 3
-0.188869 0.222216 0.558041 7631990 3
-0.183747 0.227213 0.570589 8355713 3
-0.175950 0.229260 0.575729 5460821 3
-0.164838 0.226976 0.569993 6645095 3
-0.151770 0.221562 0.556397 7697783 3
-0.138692 0.215437 0.541017 8487297 3
-0.126317 0.209642 0.526464 7829626 3
-0.113837 0.202808 0.509301 7896187 3
-0.187946 0.230248 0.555314 7566197 3
-0.179706 0.231379 0.558041 7171437 3
-0.170922 0.231893 0.559280 7039851 3
-0.160173 0.229647 0.553864 8158332 3
-0.148269 0.225374 0.543560 8289918 3
-0.137778 0.222842 0.537452 8026746 3
-0.159113 0.237161 0.550198 8224638 3
-0.486243 0.204177 0.585116 4539465 3
-0.431140 0.200883 0.575679 3553081 3
-0.468316 0.201912 0.552625 3158325 3
-0.467358 0.205481 0.562391 2565675 3
-0.462088 0.207259 0.567258 2960433 3
-0.450742 0.206328 0.564711 1645856 3
-0.433069 0.202402 0.553964 2960946 3
-0.423504 0.202178 0.553351 2368809 3
-0.415429 0.202671 0.554700 3882048 3
-0.405782 0.202402 0.553964 3027507 3
-0.477389 0.210986 0.552625 2368809 3
-0.467280 0.210519 0.551403 1447448 3
-0.458227 0.210519 0.551403 1710620 3
-0.455735 0.213595 0.559458 2960944 3
-0.447611 0.214103 0.560789 2171428 3
-0.432589 0.211263 0.553351 1974051 3
-0.423504 0.211263 0.553351 2171430 3
-0.414418 0.211263 0.553351 3684667 3
-0.402410 0.209740 0.549361 4803148 3
-0.453851 0.217476 0.546138 3487031 3
-0.455027 0.222435 0.558590 4342597 3
-0.426518 0.221917 0.557290 4934736 3
-0.415340 0.220839 0.554582 4276804 3
-0.400495 0.217719 0.546747 4540230 3
-0.451530 0.229826 0.554296 4539976 3
-0.451551 0.234564 0.565724 3421495 3
-0.437714 0.232152 0.559906 4539978 3
-0.434606 0.239632 0.555931 2829360 3
0.108193 0.192436 0.578700 9407886 3
0.113745 0.185978 0.559280 7960444 3
0.123536 0.186898 0.562046 7960701 3
0.135772 0.191132 0.574778 8289920 3
0.101160 0.188810 0.541079 8026233 3
0.108863 0.186785 0.535275 7697270 3
0.116283 0.184612 0.529049 7631477 3
0.128600 0.189975 0.544417 7499889 3
0.144270 0.199272 0.571059 7565682 3
0.193082 0.191873 0.549857 9342606 3
0.198915 0.188840 0.541166 8158332 3
0.100935 0.197255 0.539879 9605265 3
0.108863 0.195573 0.535275 10460576 3
0.116234 0.193217 0.528827 9473681 3
0.124400 0.192418 0.526638 9539472 3
0.190030 0.197726 0.541166 10461087 3
0.198192 0.197007 0.539199 10197915 3
0.197930 0.188333 0.515460 9935256 3
0.123022 0.198837 0.520802 8618370 3
0.195310 0.194192 0.508638 8553603 3
0.062810 0.199176 0.598969 9014154 3
0.071570 0.196230 0.590110 9539987 3
0.081067 0.195767 0.588716 9474194 3
0.078859 0.199837 0.572678 8816262 3
0.086587 0.196045 0.561813 9606291 3
0.094004 0.192346 0.551214 10001049 3
0.083857 0.198799 0.544102 9079947 3
0.092091 0.197298 0.539995 8685189 3
-0.394892 0.231059 0.694847 4408129 3
-0.380110 0.229026 0.688735 4737096 3
-0.367785 0.228395 0.686835 3750201 3
-0.398742 0.231457 0.663294 4210750 3
-0.384742 0.229601 0.657977 5395278 3
-0.369689 0.226992 0.650500 4671301 3
-0.351193 0.222051 0.636338 4539717 3
-0.338125 0.220343 0.631445 4079168 3
-0.325954 0.219131 0.627972 4276032 3
-0.314850 0.218581 0.626394 5197134 3
-0.328870 0.236023 0.676379 4802889 3
-0.386699 0.228779 0.626159 4473922 3
-0.371548 0.225820 0.618058 3816246 3
-0.358570 0.224051 0.613218 5526351 3
-0.347646 0.223501 0.611713 4078905 3
-0.337602 0.223501 0.611713 3486516 3
-0.327558 0.223501 0.611713 3815483 3
-0.314156 0.221137 0.605242 4077885 3
-0.391743 0.229952 0.602302 3947321 3
-0.341481 0.229403 0.600865 4473922 3
-0.332408 0.229952 0.602302 4473924 3
0.200321 0.209757 0.663553 8749958 3
0.211216 0.209757 0.663553 7303025 3
0.222111 0.209757 0.663553 7829367 3
0.233006 0.209757 0.663553 8487297 3
0.252884 0.217483 0.687991 7500402 3
0.268445 0.220994 0.699100 7237743 3
0.279924 0.220994 0.699100 8027773 3
0.201507 0.210509 0.633050 8026746 3
0.209057 0.207684 0.624554 8553090 3
0.215868 0.204423 0.614747 8684676 3
0.128804 0.200201 0.633322 9145229 3
0.160417 0.200724 0.634975 7829369 3
0.174218 0.204689 0.647520 8223616 3
0.188440 0.208665 0.660097 7763065 3
0.106511 0.207684 0.624554 8290431 3
0.152872 0.201219 0.605112 8224127 3
0.167704 0.207271 0.623311 9078923 3
0.180817 0.210624 0.633396 9013130 3
0.192178 0.211683 0.636579 8420991 3
0.181830 0.210174 0.602302 7894901 3
-0.196161 0.202901 0.641864 5987676 3
-0.190333 0.207099 0.622795 6250335 3
-0.177338 0.203914 0.613218 5197388 3
-0.166859 0.203414 0.611713 4670790 3
-0.155157 0.201262 0.605242 5986911 3
-0.146066 0.202436 0.608772 5723739 3
-0.199493 0.216169 0.619483 4342597 3
-0.184969 0.211200 0.605242 4934475 3
-0.204211 0.200257 0.668204 5131856 3
-0.210055 0.216905 0.652284 5922399 3
-0.220765 0.227615 0.652284 4934475 3
-0.298305 0.231995 0.634960 4803148 3
-0.257022 0.252926 0.692246 5855577 3
-0.221051 0.227592 0.622910 5723991 3
-0.203273 0.219441 0.600600 5592405 3
-0.293569 0.256501 0.671839 5986654 3
-0.243138 0.250015 0.654851 5395026 3
-0.290959 0.275506 0.691864 7566197 3
-0.269199 0.265257 0.666126 5263440 3
-0.234015 0.240353 0.603587 7171948 3
-0.270412 0.239447 0.798972 6381923 3
-0.248706 0.231456 0.772307 5855838 3
-0.212575 0.233555 0.779311 7500143 3
-0.258073 0.241041 0.762516 6316641 3
-0.228564 0.224363 0.709757 5330262 3
-0.240217 0.236017 0.709757 5263953 3
-0.292084 0.274512 0.786678 6710886 3
-0.252697 0.248483 0.712086 6316128 3
-0.298540 0.281340 0.770014 4013375 3
-0.294729 0.290231 0.760186 6250335 3
-0.388601 0.239524 0.799228 5000781 3
-0.388601 0.252646 0.799228 4540228 3
-0.359043 0.250336 0.791920 4606023 3
-0.385343 0.246868 0.742388 4802887 3
-0.366554 0.242501 0.729257 4539715 3
-0.355076 0.242841 0.730278 5197647 3
-0.361344 0.255764 0.769142 5000781 3
-0.357805 0.262431 0.789190 4145218 3
-0.343492 0.255133 0.731142 3947839 3
-0.352640 0.271413 0.777797 4473926 3
-0.339748 0.273794 0.749362 6578791 3
-0.345595 0.288971 0.790901 7302771 3
-0.332609 0.288971 0.790901 4342086 3
-0.315272 0.285037 0.780134 3553083 3
-0.320310 0.290791 0.761655 6249824 3
-0.309112 0.292027 0.764891 6776168 3
-0.484952 0.202960 0.677226 3026989 3
-0.488254 0.206087 0.651940 2303268 3
-0.488912 0.210990 0.667452 2434341 3
-0.486050 0.214564 0.678759 3487540 3
-0.496008 0.206643 0.621422 1712160 3
-0.485805 0.206643 0.621422 3093300 3
-0.475602 0.206643 0.621422 3026737 3
-0.462304 0.205269 0.617290 2303014 3
-0.420267 0.232473 0.699100 4539715 3
-0.408788 0.232473 0.699100 4342336 3
-0.490927 0.210299 0.602660 4276293 3
-0.481896 0.210676 0.603742 3093300 3
-0.471857 0.215138 0.616529 2763567 3
-0.466181 0.243952 0.699100 4276547 3
-0.454702 0.243952 0.699100 3881274 3
-0.440527 0.242467 0.694847 3749688 3
-0.420316 0.237494 0.680593 5197645 3
-0.422114 0.225727 0.617804 3815994 3
-0.431506 0.236431 0.647101 3552822 3
-0.420881 0.236431 0.647101 3420723 3
-0.405670 0.233788 0.639867 4276286 3
-0.400675 0.229403 0.600865 2960172 3
-0.489691 0.187726 0.626394 3159095 3
-0.471682 0.184701 0.616300 3158323 3
-0.458127 0.183326 0.611713 3684921 3
-0.477046 0.195176 0.651252 2500132 3
-0.489691 0.198011 0.626394 2237991 3
-0.479407 0.198011 0.626394 2830128 3
0.484843 0.156685 0.553122 3947071 3
0.490770 0.155685 0.549589 3354934 3
0.474186 0.162123 0.540964 6447203 3
0.479106 0.160794 0.536527 5394517 3
0.490858 0.161764 0.539763 5789275 3
0.497385 0.161008 0.537240 3947071 3
0.472132 0.167134 0.528717 6249826 3
0.485524 0.168772 0.533898 6249826 3
0.493659 0.168556 0.533216 6118238 3
0.471931 0.175740 0.528492 7368307 3
0.437231 0.180833 0.518219 4736845 3
0.441718 0.179201 0.513543 5591896 3
0.453594 0.180572 0.517472 4605001 3
0.464100 0.181357 0.519722 5065550 3
0.473123 0.181545 0.520261 5394515 3
0.427589 0.185166 0.506791 4276296 3
0.434944 0.184755 0.505667 4933966 3
0.446778 0.186228 0.509696 6118240 3
0.456896 0.186943 0.511655 6315617 3
0.460790 0.185132 0.506699 5131343 3
0.430340 0.191014 0.500314 4670794 3
0.443449 0.193146 0.505898 4801608 3
0.307846 0.169219 0.597366 6117985 3
0.305060 0.177407 0.591960 5525848 3
0.317686 0.179045 0.597426 6512743 3
0.301639 0.185028 0.585321 6906986 3
0.313583 0.186415 0.589710 8092030 3
0.305677 0.191153 0.574843 7697272 3
0.337430 0.173508 0.521779 6514538 3
0.343068 0.172039 0.517361 4080455 3
0.350404 0.171473 0.515658 4539978 3
0.358501 0.171296 0.515126 4802891 3
0.365310 0.170526 0.512812 5527125 3
0.394677 0.180084 0.541553 5921372 3
0.308104 0.175145 0.501918 8619144 3
0.317877 0.175993 0.504349 6777710 3
0.328735 0.177383 0.508334 6843503 3
0.335991 0.176809 0.506689 7041139 3
0.342510 0.175885 0.504039 6974319 3
0.350503 0.175743 0.503633 5460821 3
0.359857 0.176275 0.505156 3618874 3
0.285946 0.167878 0.592632 7171186 3
0.290861 0.165144 0.582980 4538953 3
0.268668 0.179063 0.597487 4802637 3
0.271559 0.174614 0.582642 5328982 3
0.278815 0.173179 0.577854 9144976 3
0.289844 0.174105 0.580943 7894396 3
0.254463 0.185667 0.587343 7434100 3
0.264724 0.186101 0.588716 8487046 3
0.271533 0.184163 0.582586 8421253 3
0.278815 0.182667 0.577854 9671320 3
0.288303 0.182667 0.577854 8684167 3
0.207670 0.187875 0.564985 8553090 3
0.208791 0.180812 0.543745 8553603 3
0.217719 0.180812 0.543745 8159359 3
0.226646 0.180812 0.543745 7631990 3
0.246371 0.189100 0.568666 7039342 3
0.260802 0.192866 0.579994 6908014 3
0.270018 0.192647 0.579335 5592667 3
0.274760 0.189360 0.569449 7368565 3
0.284109 0.189360 0.569449 8815753 3
0.294937 0.190314 0.572317 8617604 3
0.207351 0.188432 0.539995 8487810 3
0.217249 0.189331 0.542573 8883082 3
0.226646 0.189740 0.543745 7698294 3
0.235574 0.189740 0.543745 8750471 3
0.248078 0.192516 0.551698 9606039 3
0.260093 0.194729 0.558041 8092801 3
0.268537 0.194210 0.556553 8026495 3
0.277057 0.193777 0.555314 6644584 3
0.287580 0.194729 0.558041 7499123 3
0.297535 0.195249 0.559532 7499893 3
0.203335 0.185543 0.507823 8554628 3
0.208889 0.183103 0.501144 8948361 3
0.235274 0.184435 0.504790 9013903 3
0.249113 0.188639 0.516295 8750218 3
0.253852 0.185901 0.508803 8947339 3
0.258611 0.183353 0.501827 8880776 3
0.241934 0.191435 0.501417 8421766 3
0.250417 0.191627 0.501918 8157570 3
0.266882 0.225856 0.797304 7500661 3
0.275815 0.222502 0.785464 6645352 3
0.287803 0.221802 0.782992 5855836 3
0.222448 0.220828 0.736846 6447205 3
0.223909 0.210814 0.703430 7434098 3
0.239096 0.214070 0.714297 6645352 3
0.266912 0.227800 0.760111 7632247 3
0.286108 0.233276 0.778381 7829626 3
0.294764 0.230057 0.767639 6645352 3
0.173838 0.224042 0.790901 6513509 3
0.134880 0.237028 0.790901 5131343 3
0.141153 0.226267 0.754993 5328722 3
0.150229 0.221375 0.738672 5263699 3
0.162358 0.221375 0.738672 5197906 3
0.172265 0.218557 0.729267 7368818 3
0.184794 0.219216 0.731466 8026235 3
0.108909 0.250014 0.790901 7368818 3
0.121894 0.250014 0.790901 6908524 3
0.130422 0.241750 0.764760 7171950 3
0.131501 0.222343 0.703367 7763061 3
-0.298180 0.238023 0.840254 3947067 3
-0.295834 0.249838 0.833644 4999755 3
-0.218178 0.255063 0.851078 6908265 3
-0.292680 0.260716 0.824755 5197647 3
-0.285410 0.267445 0.804269 5263440 3
0.136815 0.236891 0.887712 6973806 3
0.104392 0.243823 0.860728 6513509 3
0.119138 0.245085 0.865185 6381669 3
0.134415 0.247055 0.872138 6644841 3
0.150672 0.250273 0.883498 6710375 3
0.166118 0.251698 0.888528 7039340 3
0.165878 0.231044 0.815617 6579302 3
0.198115 0.237583 0.838703 7303025 3
0.102066 0.252208 0.841552 6316387 3
0.113871 0.247829 0.826942 5789532 3
0.123498 0.240147 0.801308 5000016 3
0.004874 0.204849 0.767639 7632499 3
0.041677 0.200008 0.749500 7632499 3
0.054754 0.202863 0.760197 6514020 3
0.004870 0.217256 0.766944 7566708 3
0.017204 0.214047 0.755618 6317409 3
0.029067 0.210115 0.741737 6317407 3
0.040919 0.208451 0.735860 7106923 3
0.054430 0.214072 0.755705 7040878 3
0.004897 0.231119 0.771184 6249826 3
0.017523 0.230644 0.769598 7105903 3
0.031310 0.239447 0.798972 6777190 3
0.004920 0.244913 0.774765 7499893 3
0.017511 0.243120 0.769093 7960955 3
0.030994 0.250014 0.790901 6513766 3
0.043979 0.250014 0.790901 6974317 3
0.057365 0.251768 0.796449 7435897 3
0.096541 0.251625 0.795997 6908013 3
0.043540 0.260370 0.782992 6842731 3
0.056396 0.260370 0.782992 7698812 3
0.030684 0.273226 0.782992 7763576 3
0.043540 0.273226 0.782992 7039853 3
0.030684 0.286082 0.782992 9145227 3
0.043540 0.286082 0.782992 8487297 3
0.017828 0.298938 0.782992 9672852 3
-0.007888 0.209035 0.783324 6908265 3
-0.086716 0.226226 0.798610 7829367 3
-0.072164 0.221802 0.782992 6908778 3
-0.058120 0.217360 0.767313 7566454 3
-0.045099 0.215342 0.760186 7631990 3
-0.033642 0.222105 0.784063 8093052 3
-0.020957 0.224120 0.791177 6382434 3
-0.007801 0.219471 0.774765 7170924 3
-0.084441 0.233061 0.777662 5987161 3
-0.070496 0.229233 0.764891 4474437 3
-0.056460 0.223390 0.745395 5724252 3
-0.043902 0.221778 0.740016 6645095 3
-0.033406 0.233333 0.778570 5461078 3
-0.020838 0.235763 0.786681 6052958 3
-0.007852 0.233711 0.779834 7630709 3
-0.053916 0.225013 0.711811 4342086 3
-0.042493 0.226419 0.716260 6842220 3
-0.033607 0.247592 0.783238 6973806 3
-0.020838 0.248680 0.786681 5196883 3
-0.007855 0.246591 0.780073 7763065 3
-0.398871 0.234771 0.879766 5000529 3
-0.378617 0.231223 0.866473 4407880 3
-0.357815 0.227051 0.850838 4605001 3
-0.343362 0.226731 0.849641 5130316 3
-0.391862 0.236280 0.834102 4934734 3
-0.385477 0.240847 0.850225 6119008 3
-0.365924 0.237221 0.837425 5328981 3
-0.353717 0.238260 0.841092 4144448 3
-0.343943 0.241089 0.851078 5459279 3
-0.329857 0.241008 0.850791 5920341 3
-0.314287 0.239786 0.846478 6709857 3
-0.377163 0.240598 0.802813 4145218 3
-0.362955 0.239919 0.800548 5197906 3
-0.360265 0.247090 0.824475 4671305 3
-0.352552 0.251240 0.838323 5328720 3
-0.343943 0.255063 0.851078 6183000 3
-0.329747 0.254891 0.850506 6315097 3
-0.312597 0.252320 0.841927 5196618 3
-0.376926 0.253620 0.802308 3815994 3
-0.352950 0.255335 0.807734 3421749 3
-0.344937 0.259280 0.820215 4013373 3
-0.342083 0.267582 0.846478 4736583 3
-0.327858 0.267316 0.845634 6183515 3
-0.308146 0.262355 0.829940 6315615 3
-0.351139 0.267219 0.803589 3552824 3
-0.341563 0.270079 0.812191 5263442 3
-0.334404 0.275162 0.827476 4276547 3
-0.322736 0.276807 0.832422 3683895 3
-0.301678 0.270188 0.812519 4539204 3
-0.352721 0.281676 0.807208 4539719 3
-0.339577 0.281767 0.807470 5921372 3
-0.331685 0.286400 0.820747 6250337 3
-0.322841 0.290570 0.832695 6118236 3
-0.457128 0.202922 0.760418 2302763 3
-0.449841 0.205294 0.769308 2301991 3
-0.442794 0.207916 0.779133 2762795 3
-0.441307 0.213791 0.754713 3486518 3
-0.438703 0.218670 0.771935 5657687 3
-0.430666 0.221050 0.780339 5263440 3
-0.427831 0.226328 0.798972 5921370 3
-0.449497 0.224088 0.747724 4671303 3
-0.434885 0.222892 0.743731 3355443 3
-0.433270 0.228479 0.762375 5066061 3
-0.428255 0.232553 0.775970 3684408 3
-0.421250 0.235763 0.786681 4803402 3
-0.406937 0.234957 0.783991 5000779 3
-0.401595 0.239447 0.798972 6250848 3
-0.499980 0.231321 0.731768 6052958 3
-0.487965 0.231321 0.731768 5592153 3
-0.475950 0.231321 0.731768 4802380 3
-0.458083 0.228403 0.722537 4539206 3
-0.443628 0.227077 0.718341 3355443 3
-0.426484 0.224264 0.709443 3421236 3
-0.427254 0.230977 0.730681 4211263 3
-0.429361 0.238823 0.755498 4934986 3
-0.428255 0.245294 0.775970 4671816 3
-0.421515 0.248836 0.787175 4934988 3
-0.410786 0.250173 0.791405 4342849 3
-0.401595 0.252565 0.798972 4606021 3
-0.486697 0.236872 0.712328 5197649 3
-0.479011 0.238871 0.718341 4934223 3
-0.464297 0.237378 0.713852 4407620 3
-0.448487 0.235234 0.707402 3486516 3
-0.432961 0.233127 0.701068 3092271 3
0.565799 0.145320 0.580265 5197134 3
0.580842 0.146713 0.585827 4933194 3
0.555421 0.152007 0.569621 3223346 3
0.501443 0.156199 0.551403 4999504 3
0.501878 0.168377 0.532648 5986652 3
0.337671 0.175264 0.699835 7434358 3
0.341575 0.171456 0.684628 6907501 3
0.351929 0.171025 0.682907 7368052 3
0.361471 0.170238 0.679765 7829628 3
0.372830 0.170329 0.680127 4210754 3
0.385882 0.171165 0.683466 4079166 3
0.395110 0.170305 0.680034 5197395 3
0.323877 0.185436 0.694893 7500151 3
0.321890 0.178027 0.667128 6250084 3
0.331060 0.177073 0.663553 6841708 3
0.341955 0.177073 0.663553 7433845 3
0.355973 0.178640 0.669426 7763322 3
0.369520 0.179884 0.674088 10066331 3
0.384531 0.181748 0.681072 7237230 3
0.397538 0.182586 0.684212 8223614 3
0.374889 0.188093 0.663996 8157819 3
0.393805 0.192000 0.677788 7960442 3
0.334446 0.182845 0.610105 4933966 3
0.331523 0.191177 0.604774 9407890 3
0.227369 0.225391 0.899991 8749958 3
0.241974 0.225231 0.899352 7500143 3
0.253825 0.222673 0.889139 7829367 3
0.265594 0.220326 0.879766 7631990 3
0.277710 0.218493 0.872448 6908524 3
0.287914 0.215410 0.860137 7435638 3
0.208856 0.235946 0.884172 6710375 3
0.219264 0.231606 0.867908 6841961 3
0.228845 0.226975 0.850554 6841959 3
0.240267 0.224598 0.841646 7960440 3
0.252812 0.223472 0.837425 8684678 3
0.266561 0.223472 0.837425 6447716 3
0.278272 0.221846 0.831332 5922401 3
0.287824 0.218732 0.819662 6184803 3
0.298535 0.216738 0.812191 7697529 3
0.216558 0.242823 0.857198 6578789 3
0.228374 0.240444 0.848803 7104363 3
0.238031 0.236199 0.833814 5723480 3
0.247038 0.231804 0.818300 6907754 3
0.259536 0.230969 0.815353 7237232 3
0.222855 0.248233 0.828291 6446435 3
0.234441 0.246119 0.821236 8091260 3
-0.170628 0.224103 0.894848 4342338 3
-0.155936 0.224103 0.894848 4211265 3
-0.141243 0.224103 0.894848 6185571 3
-0.170339 0.238391 0.893333 4737098 3
-0.112501 0.240168 0.899991 6447716 3
-0.125774 0.251932 0.889357 6842731 3
-0.105951 0.240102 0.847594 7434609 3
-0.199770 0.249525 0.832601 7237491 3
-0.195869 0.262624 0.876307 6447975 3
-0.101656 0.243721 0.813234 6250335 3
-0.458667 0.208132 0.831074 2170658 3
-0.455277 0.212928 0.850225 1579032 3
-0.446924 0.215633 0.861028 2368807 3
-0.440984 0.219717 0.877337 3092530 3
-0.436358 0.224754 0.897449 2039844 3
-0.441524 0.213488 0.800012 3223346 3
-0.437032 0.217795 0.816153 4144959 3
-0.429947 0.221042 0.828320 4277058 3
-0.425618 0.225964 0.846765 5000527 3
-0.413812 0.227115 0.851078 2500393 3
-0.400680 0.227594 0.852871 5987424 3
-0.415673 0.226852 0.800821 6382434 3
-0.417992 0.235569 0.831593 4869195 3
-0.405007 0.235959 0.832970 5987422 3
0.622999 0.204660 0.874548 5526361 3
0.634038 0.203593 0.869991 4934224 3
0.643424 0.202055 0.863419 5131603 3
0.652863 0.200600 0.857198 3552571 3
0.624940 0.214752 0.857508 3092019 3
0.638572 0.214601 0.856908 5855326 3
0.647983 0.213069 0.850791 5657947 3
0.658596 0.211989 0.846478 4209990 3
0.634014 0.227038 0.850791 2236710 3
0.642315 0.225053 0.843349 3157813 3
0.655056 0.224673 0.841927 2959921 3
0.626991 0.238338 0.841367 5395287 3
0.632103 0.235101 0.829940 5921118 3
0.647015 0.235569 0.831593 4868431 3
0.627199 0.252236 0.841646 6776938 3
0.637803 0.250971 0.837425 7105905 3
0.651553 0.250971 0.837425 6710634 3
0.511469 0.185085 0.790901 4671051 3
0.528134 0.186383 0.796449 3684410 3
0.542924 0.186973 0.798972 3815996 3
0.515942 0.185662 0.741351 3421238 3
0.500823 0.192036 0.719626 5790043 3
0.521288 0.195277 0.731768 5724250 3
0.404724 0.163012 0.696581 4408392 3
0.413631 0.184757 0.692346 8157054 3
0.472169 0.185424 0.694847 6316389 3
0.413631 0.196124 0.692346 7631479 3
0.429145 0.198037 0.699100 7039342 3
0.463354 0.197941 0.698759 6382183 3
0.466983 0.194671 0.687215 6645354 3
0.436211 0.197146 0.657826 6843248 3
0.445244 0.196366 0.655223 5395802 3
0.451324 0.194352 0.648502 6119778 3
0.450066 0.189343 0.631790 5790811 3
0.410486 0.190956 0.604075 7105905 3
0.422420 0.191871 0.606971 7105646 3
0.309291 0.206122 0.880797 6119008 3
0.300087 0.214019 0.854585 6119780 3
0.306286 0.208683 0.833278 7434357 3
0.313186 0.204260 0.815617 7565686 3
0.326578 0.204260 0.815617 6907501 3
0.339969 0.204260 0.815617 6842472 3
0.353361 0.204260 0.815617 5987672 3
0.308669 0.214513 0.803853 5986911 3
0.326578 0.217652 0.815617 6381670 3
0.339969 0.217652 0.815617 6316130 3
0.353361 0.217652 0.815617 7237228 3
0.324495 0.229570 0.810415 6184803 3
0.005494 0.202469 0.865185 8948359 3
0.019927 0.204815 0.875210 7171948 3
0.034476 0.205881 0.879766 6842985 3
0.005494 0.216674 0.865185 7106157 3
0.020178 0.221943 0.886225 8027257 3
0.018501 0.216835 0.812554 6383200 3
0.032437 0.220887 0.827739 6909544 3
0.077000 0.232325 0.870602 7829367 3
0.092388 0.235108 0.881030 8026233 3
0.076946 0.246447 0.869991 7171696 3
0.090541 0.244585 0.863419 5855579 3
0.045065 0.242876 0.810415 7304304 3
0.060501 0.251742 0.839997 5988192 3
0.076423 0.258960 0.864081 6053217 3
0.090541 0.258761 0.863419 6118751 3
0.071166 0.254355 0.804634 6777708 3
0.084647 0.255169 0.807208 6908524 3
-0.066829 0.206469 0.882280 5855325 3
-0.051578 0.203454 0.869394 5197395 3
-0.036919 0.201356 0.860431 7500404 3
-0.022791 0.201356 0.860431 8487299 3
-0.008667 0.201426 0.860728 9211020 3
-0.097517 0.224912 0.898081 6710888 3
-0.082386 0.223867 0.893906 5921883 3
-0.066129 0.218643 0.873046 7303536 3
-0.051578 0.217728 0.869394 6447462 3
-0.036906 0.215410 0.860137 6776940 3
-0.022667 0.214306 0.855729 7434868 3
-0.008623 0.214454 0.856320 8158591 3
-0.096605 0.237418 0.889689 7171437 3
-0.077181 0.223472 0.837425 6448227 3
-0.063431 0.223472 0.837425 6579559 3
-0.049648 0.223324 0.836871 6250337 3
-0.035273 0.219373 0.822067 7961212 3
-0.021192 0.213502 0.800064 6777192 3
0.735746 0.146878 0.674993 1973539 1
0.773501 0.152123 0.699100 1315096 1
0.701163 0.162797 0.695661 4406850 3
0.767195 0.162268 0.693401 2828848 1
0.772669 0.158715 0.678219 1710367 1
0.763220 0.154547 0.660407 1051924 1
0.765787 0.152895 0.653347 1709339 1
0.740117 0.158137 0.631445 2235683 1
0.750484 0.158137 0.631445 1972511 1
0.758751 0.157700 0.629702 2104098 1
0.763915 0.156639 0.625464 1840674 1
0.647237 0.152123 0.699100 2697262 1
0.667215 0.151447 0.695993 3157553 1
0.675640 0.150777 0.692913 4078657 1
0.690070 0.151447 0.695993 2893611 1
0.626631 0.158393 0.676843 2960434 3
0.650010 0.161440 0.689861 3947582 3
0.657188 0.160427 0.685533 3749688 3
0.663890 0.159334 0.680863 4078655 3
0.675439 0.159421 0.681236 4538436 3
0.401886 0.154889 0.711811 5000529 3
0.450426 0.168691 0.775240 5461081 3
0.430791 0.168743 0.721069 3355192 3
0.472996 0.180319 0.770536 3223605 3
0.495398 0.183940 0.786007 5066063 3
0.430674 0.180533 0.720873 4144195 3
0.450812 0.183920 0.734397 3420472 3
0.465564 0.184991 0.738672 2763054 3
0.474623 0.183802 0.733926 3223605 3
0.485243 0.183262 0.731768 2828847 3
0.497258 0.183262 0.731768 2499882 3
0.433079 0.188269 0.705510 6052192 3
0.465564 0.197119 0.738672 6579048 3
0.471611 0.194609 0.729267 5461080 3
0.468946 0.188718 0.707191 5526873 3
0.202470 0.200445 0.921167 6118238 3
0.217594 0.200445 0.921167 7171439 3
0.235489 0.202831 0.932133 6842472 3
0.256911 0.207778 0.954868 6184544 3
0.275954 0.210343 0.966657 5395028 3
0.286520 0.206519 0.949081 4803148 3
0.293218 0.200445 0.921167 4606023 3
0.205034 0.218300 0.932835 7828854 3
0.222510 0.220439 0.941977 6776166 3
0.232719 0.215569 0.921167 6381921 3
0.254078 0.220992 0.944337 7435122 3
0.272589 0.223456 0.954868 7895673 3
0.287943 0.223205 0.953796 6842985 3
0.294864 0.216780 0.926338 7106671 3
0.207271 0.236165 0.943011 6315617 3
0.219308 0.232511 0.928421 7631477 3
0.134774 0.212973 0.978740 6184544 3
0.150844 0.212973 0.978740 7303025 3
0.157096 0.200445 0.921167 6841961 3
0.178521 0.207778 0.954868 5460819 3
0.189575 0.202831 0.932133 5920859 3
0.134732 0.228970 0.978432 5460821 3
0.149047 0.226313 0.967077 5460308 3
0.160881 0.220764 0.943364 7039340 3
0.176370 0.220764 0.943364 6052956 3
0.190289 0.218957 0.935643 6776166 3
0.121177 0.250219 0.999130 5855066 3
0.134199 0.244066 0.974561 5789532 3
0.149736 0.243312 0.971549 5921118 3
0.161494 0.237153 0.946959 7302512 3
0.176370 0.236253 0.943364 5789273 3
0.191859 0.236253 0.943364 7039338 3
0.109193 0.240255 0.900316 7500404 3
0.124647 0.241556 0.905193 7829115 3
0.155528 0.243366 0.911977 6841961 3
0.173113 0.247093 0.925941 6447203 3
0.186182 0.244292 0.915447 6776168 3
0.199178 0.241822 0.906191 5920859 3
0.368625 0.159113 0.790901 5132116 3
0.357444 0.172973 0.794916 3026739 3
0.356038 0.166222 0.763895 3289911 3
0.358099 0.161496 0.742173 3683897 3
0.391980 0.155596 0.715061 5658457 3
0.342439 0.184969 0.790407 5593686 3
0.342773 0.178389 0.762288 5461080 3
0.347070 0.174262 0.744655 4737357 3
0.351437 0.170450 0.728365 3947069 3
0.363396 0.170450 0.728365 3157555 3
0.371698 0.168790 0.721269 3552570 3
0.376707 0.165782 0.708418 2368807 3
0.386683 0.165076 0.705398 2368807 3
0.396817 0.164475 0.702833 2697774 3
0.357547 0.199133 0.795144 5132367 3
0.340086 0.182736 0.729671 7302771 3
-0.157437 0.200665 0.997442 3355702 3
-0.172714 0.215668 0.991129 4013375 3
-0.155456 0.214312 0.984896 4605769 3
-0.134220 0.206519 0.949081 3422012 3
-0.116519 0.202831 0.932133 4212040 3
-0.100023 0.200445 0.921167 3356474 3
-0.156280 0.231705 0.990117 5527641 3
-0.133412 0.220764 0.943364 5198936 3
-0.116484 0.218070 0.931851 4935764 3
-0.193218 0.233653 0.932981 4999504 3
-0.127556 0.225884 0.901960 5132885 3
-0.113151 0.226694 0.905193 5132115 3
-0.160522 0.245819 0.921167 7106157 3
-0.144235 0.243854 0.913803 5790813 3
-0.127740 0.241040 0.903261 6184801 3
-0.182073 0.270490 0.954868 6447203 3
-0.162357 0.263927 0.931699 6447973 3
-0.144235 0.258857 0.913803 5988192 3
-0.199066 0.210029 1.043989 3288886 3
-0.174928 0.201951 1.003836 2565675 3
-0.193896 0.221270 1.016873 3618106 3
-0.194538 0.238754 1.020239 4868684 3
-0.174858 0.234822 1.003436 6579813 3
-0.216208 0.210029 1.043989 3156783 3
-0.233349 0.227171 1.043989 4802378 3
-0.216208 0.227171 1.043989 4078653 3
-0.251548 0.245344 1.048398 5986654 3
-0.233349 0.244312 1.043989 5328724 3
-0.214252 0.242102 1.034545 5197136 3
-0.270573 0.264327 1.055465 6249822 3
-0.243337 0.253987 1.014178 4933964 3
-0.225931 0.253142 1.010801 5065297 3
-0.296710 0.290273 1.087751 4933962 3
-0.267758 0.278727 1.044484 5460817 3
-0.564471 0.218781 1.087489 3026480 3
-0.539127 0.215784 1.072592 2566186 3
-0.514469 0.212868 1.058097 2039844 3
-0.503905 0.215784 1.072592 3422267 3
-0.527817 0.221270 1.016873 2829101 3
-0.511121 0.221270 1.016873 3092530 3
-0.504248 0.225666 1.037076 3289911 3
0.720717 0.132115 0.715061 1315609 1
0.732458 0.132115 0.715061 1249816 1
0.730849 0.129745 0.702235 1907748 1
0.705754 0.143202 0.711811 2236453 1
0.717441 0.143202 0.711811 1578523 1
0.732458 0.143856 0.715061 1841953 1
0.737463 0.142554 0.708590 1118230 1
0.749098 0.142554 0.708590 2105125 1
0.710978 0.153494 0.705398 3881278 1
0.729128 0.154889 0.711811 4144450 1
0.740815 0.154889 0.711811 3223606 1
0.752503 0.154889 0.711811 3223605 1
0.789841 0.164615 0.703430 1315611 1
0.694067 0.131515 0.711811 1512730 1
0.665051 0.144516 0.718341 1644576 1
0.676845 0.144516 0.718341 2105124 1
0.685495 0.143856 0.715061 2302244 1
0.694067 0.143202 0.711811 986386 1
0.664650 0.153494 0.705398 2631468 1
0.358303 0.165333 0.894848 2171169 1
0.372995 0.165333 0.894848 1579291 1
0.385485 0.164393 0.889764 1645087 1
0.386904 0.158974 0.860431 2434349 1
0.330808 0.181060 0.899991 3289398 3
0.345585 0.181060 0.899991 3157812 3
0.354254 0.177991 0.884737 4210239 3
0.362634 0.175025 0.869991 5263953 3
0.376919 0.175025 0.869991 5396057 3
0.364852 0.163235 0.811391 5000530 3
0.316031 0.195837 0.899991 7763576 3
0.316267 0.187229 0.860431 6250083 3
0.326803 0.185194 0.851078 5460310 3
0.338935 0.184192 0.846478 7697270 3
0.349060 0.182223 0.837425 4540230 3
0.357081 0.179345 0.824202 3159091 3
0.313734 0.199744 0.853541 6250083 3
0.323181 0.196960 0.841646 6776170 3
0.332546 0.194357 0.830523 6184033 3
0.333933 0.187480 0.801134 6448227 3
0.114038 0.200925 1.087489 3486777 1
0.113252 0.217272 1.079989 7301744 3
0.121748 0.201951 1.003836 5459540 3
0.138230 0.201951 1.003836 4737355 3
0.113252 0.235004 1.079989 6248543 3
0.121748 0.218433 1.003836 5985371 3
0.112428 0.250899 1.072136 7170156 3
0.123018 0.237366 1.014306 6840680 3
0.109477 0.261453 1.043989 4341825 3
0.060895 0.202330 1.095094 2762797 1
0.078875 0.202330 1.095094 2828590 1
0.042032 0.215784 1.072592 3223348 3
0.060055 0.217272 1.079989 4999759 3
0.078327 0.218781 1.087489 5788505 3
0.095519 0.217272 1.079989 5921118 3
0.040912 0.227171 1.043989 7039853 3
0.059643 0.233395 1.072592 5131602 3
0.078327 0.236636 1.087489 5985882 3
0.095519 0.235004 1.079989 6118751 3
0.076768 0.249426 1.065843 5789271 3
0.094865 0.251006 1.072592 6316641 3
0.075039 0.260912 1.041829 5987674 3
0.092335 0.261453 1.043989 5527125 3
-0.231651 0.206666 1.118560 2827820 1
-0.213285 0.206666 1.118560 2433579 1
-0.276276 0.231650 1.151459 3157813 3
-0.253640 0.228293 1.134771 4933964 3
-0.297368 0.252412 1.159988 4868430 3
-0.268382 0.243397 1.118560 4079168 3
-0.283900 0.259163 1.107450 4802376 3
-0.376339 0.215920 1.168645 3026226 3
-0.357151 0.215920 1.168645 3420984 3
-0.376339 0.235108 1.168645 4013375 3
-0.357151 0.235108 1.168645 3552570 3
-0.340504 0.236875 1.177432 3684157 3
-0.318775 0.235108 1.168645 3815743 3
-0.384958 0.260119 1.195408 4012092 3
-0.365330 0.260119 1.195408 3289139 3
-0.345703 0.260119 1.195408 4012864 3
-0.316414 0.252412 1.159988 4078914 3
-0.345063 0.279229 1.193194 4210241 3
-0.311546 0.267281 1.142141 4342340 3
-0.361386 0.296141 1.182500 6051929 3
-0.337203 0.292014 1.166018 5855064 3
-0.300891 0.276252 1.103079 5460306 3
-0.475193 0.200925 1.087489 2763314 3
-0.489648 0.217272 1.079989 2566703 3
-0.433267 0.207266 1.030253 2236713 3
-0.421903 0.210029 1.043989 3553083 3
-0.477728 0.221270 1.016873 2237993 3
-0.467099 0.224182 1.030253 3224635 3
-0.450183 0.224182 1.030253 3684159 3
-0.439044 0.227171 1.043989 3881025 3
-0.440821 0.236084 1.008828 3157561 3
-0.431509 0.240119 1.026072 3946816 3
0.554793 0.160744 0.954868 1448224 1
0.570471 0.160744 0.954868 1381661 1
0.579087 0.158807 0.943364 2434089 1
0.594576 0.158807 0.943364 2368039 1
0.570471 0.176422 0.954868 2499883 1
0.558886 0.168216 0.910456 2302503 1
0.577191 0.169200 0.915780 2434343 1
0.595711 0.170195 0.921167 2039331 1
0.548109 0.189786 0.943364 2697521 1
0.543937 0.183165 0.910456 3026229 1
0.558886 0.183165 0.910456 3618363 1
0.580586 0.185320 0.921167 3026480 1
0.585380 0.182106 0.905193 1973538 1
0.601001 0.202785 1.204603 1774619 1
0.630479 0.205953 1.223425 2104097 1
0.640558 0.202785 1.204603 2893613 1
0.601001 0.222563 1.204603 2761768 1
0.630479 0.226041 1.223425 2696232 1
0.601001 0.242342 1.204603 5262159 3
0.630479 0.246128 1.223425 3025197 1
0.620779 0.262120 1.204603 5197138 3
-0.120834 0.162729 0.966657 3421238 1
-0.101820 0.157857 0.937715 3684156 1
-0.139285 0.181970 0.984896 3026739 1
-0.120834 0.178600 0.966657 2830128 1
-0.101820 0.173253 0.937715 2500395 1
-0.136706 0.194472 0.966657 5001044 1
-0.117923 0.189786 0.943364 3159606 3
-0.100023 0.185320 0.921167 2698544 3
-0.447254 0.202785 1.204603 2697515 1
-0.434155 0.226041 1.223425 2434089 3
-0.420640 0.229629 1.242845 2894640 3
-0.454242 0.246128 1.223425 4276547 3
-0.441046 0.250035 1.242845 3223859 3
-0.414068 0.246128 1.223425 3552313 3
-0.497658 0.279308 1.283594 4276547 3
-0.461453 0.270441 1.242845 3355445 3
-0.441046 0.270441 1.242845 3420725 3
-0.414068 0.266216 1.223425 2894379 3
-0.445565 0.293828 1.255579 3815481 3
-0.416122 0.287723 1.229494 4407102 3
-0.482986 0.179334 1.065295 1579293 1
-0.478516 0.184350 1.095094 2368810 1
-0.457338 0.183070 1.087489 1249818 1
-0.410944 0.171182 1.016873 1249815 1
-0.404762 0.175747 1.043989 1842463 1
-0.482986 0.196825 1.065295 1579808 3
-0.427640 0.187878 1.016873 2236713 3
-0.410944 0.187878 1.016873 2434602 3
-0.404762 0.192888 1.043989 2566440 3
0.661368 0.123911 0.815617 2038821 1
0.655607 0.162546 0.879766 1907235 1
0.670051 0.162546 0.879766 2368299 1
0.619753 0.175025 0.869991 2235432 1
0.641162 0.176991 0.879766 1577500 1
0.655607 0.176991 0.879766 2433579 1
0.662606 0.175025 0.869991 2368299 1
0.619753 0.189309 0.869991 4012611 3
0.634038 0.189309 0.869991 3288888 3
0.641198 0.187229 0.860431 3091507 3
0.651744 0.186206 0.855729 4013122 3
0.665794 0.186206 0.855729 3618364 3
0.714187 0.142460 0.937715 2104875 1
0.711573 0.160744 0.954868 1381150 1
0.714187 0.157857 0.937715 1184284 1
0.733978 0.158807 0.943364 1841701 1
0.749467 0.158807 0.943364 1578272 1
0.708374 0.168216 0.910456 2829107 1
0.727553 0.169200 0.915780 2368299 1
0.616873 0.148693 0.978740 2104612 1
0.617505 0.160744 0.954868 2500396 1
0.618107 0.156917 0.932133 2434602 1
0.629664 0.155988 0.926618 2499882 1
0.644878 0.155988 0.926618 1446682 1
0.656209 0.155071 0.921167 2893360 1
0.695895 0.160744 0.954868 2959155 1
0.610835 0.170195 0.921167 2368807 1
0.625960 0.170195 0.921167 2500136 1
0.641085 0.170195 0.921167 2236198 1
0.648579 0.168216 0.910456 2038053 1
0.679326 0.172222 0.932133 2959153 1
0.607263 0.184236 0.915780 2763308 1
0.622299 0.184236 0.915780 3421238 1
0.629968 0.182106 0.905193 3552058 1
0.603733 0.198114 0.910456 5526614 3
0.629968 0.196969 0.905193 4934224 3
0.327614 0.148693 0.978740 2499883 1
0.343684 0.148693 0.978740 3618364 1
0.311544 0.164763 0.978740 1578780 1
0.327614 0.164763 0.978740 2631468 1
0.343684 0.164763 0.978740 3552570 1
0.355312 0.162729 0.966657 2368296 1
0.371184 0.162729 0.966657 2368550 1
0.312013 0.172222 0.932133 3815996 1
0.323467 0.170195 0.921167 2565929 1
0.332720 0.167244 0.905193 2697261 1
0.347582 0.167244 0.905193 3157812 1
0.310167 0.186417 0.926618 6118749 3
0.321575 0.184236 0.915780 3552824 3
0.282941 0.150575 0.991129 3223095 1
0.299214 0.150575 0.991129 2631471 1
0.250394 0.166848 0.991129 2039074 1
0.282941 0.166848 0.991129 1775649 1
0.299214 0.166848 0.991129 1447197 1
0.222838 0.174297 0.943364 3026226 1
0.250394 0.183122 0.991129 3026737 1
0.266667 0.183122 0.991129 2367784 1
0.282941 0.183122 0.991129 1184023 1
0.297332 0.181970 0.984896 1118230 1
0.296708 0.172222 0.932133 2829360 1
0.204880 0.187526 0.932133 2697262 3
0.222838 0.189786 0.943364 4868430 3
0.241233 0.192100 0.954868 4276804 3
0.260083 0.194472 0.966657 4868431 3
0.279404 0.196903 0.978740 3749950 3
0.291826 0.194472 0.966657 3157812 3
0.294953 0.186417 0.926618 4803148 3
0.108036 0.156519 1.030253 2039844 1
0.124952 0.156519 1.030253 2895153 1
0.108036 0.173434 1.030253 2895153 1
0.123329 0.171182 1.016873 2303014 1
0.138230 0.168987 1.003836 2303782 1
0.154712 0.168987 1.003836 2763819 1
0.121748 0.185469 1.003836 2960433 1
0.138230 0.185469 1.003836 2106405 1
-0.053393 0.136729 0.899991 1906719 1
-0.053393 0.151506 0.899991 3551543 1
-0.038177 0.149784 0.889764 3288371 1
-0.023568 0.149784 0.889764 3683129 1
-0.008959 0.149784 0.889764 2893611 1
-0.053393 0.166283 0.899991 2631468 1
-0.037962 0.163465 0.884737 2104867 1
-0.023568 0.164393 0.889764 1380374 1
-0.008959 0.164393 0.889764 2629929 1
-0.053393 0.181060 0.899991 2697261 3
-0.037962 0.177991 0.884737 1973538 3
-0.023568 0.179002 0.889764 1973281 3
-0.009010 0.180025 0.894848 3485750 3
-0.053088 0.194718 0.894848 7171185 3
-0.037748 0.191436 0.879766 8092541 3
-0.023303 0.191436 0.879766 8684165 3
-0.008859 0.191436 0.879766 8420993 3
-0.069774 0.139946 0.921167 3026227 1
-0.086424 0.157857 0.937715 2236710 1
-0.069774 0.155071 0.921167 2697262 1
-0.085909 0.172222 0.932133 2368556 1
-0.069774 0.170195 0.921167 3026229 1
-0.084899 0.185320 0.921167 2565935 3
-0.069366 0.184236 0.915780 1973539 3
-0.068564 0.196969 0.905193 4473673 3
0.118704 0.132623 0.978740 1908258 1
0.134774 0.132623 0.978740 2631981 1
0.150844 0.180833 0.978740 3552824 1
0.166914 0.180833 0.978740 3092273 1
0.150844 0.196903 0.978740 5395028 3
0.166914 0.196903 0.978740 4539719 3
0.182984 0.196903 0.978740 3816507 3
0.194199 0.192100 0.954868 2499882 3
0.094376 0.107175 0.899991 1118230 1
0.005715 0.166283 0.899991 1906206 1
0.005715 0.181060 0.899991 2762027 3
0.005618 0.192518 0.884737 7565684 3
0.020492 0.195837 0.899991 7631988 3
1.214131 0.123671 1.204603 1512987 1
1.233909 0.123671 1.204603 1118229 1
1.233909 0.143450 1.204603 2631469 1
1.253189 0.165779 1.223425 986646 1
1.233102 0.185866 1.223425 1776160 1
1.101136 0.119980 1.168645 2104612 1
1.101136 0.139168 1.168645 987157 1
1.120324 0.139168 1.168645 1052950 1
1.139512 0.139168 1.168645 1184535 1
1.176256 0.141276 1.186352 987157 1
1.195735 0.141276 1.186352 1974052 1
1.103849 0.156027 1.151459 1118230 1
1.139512 0.158356 1.168645 1907745 1
1.176256 0.160755 1.186352 1908773 1
1.195735 0.160755 1.186352 1250329 1
1.122755 0.174933 1.151459 855057 1
1.176256 0.180234 1.186352 1776160 1
1.122755 0.193839 1.151459 2104867 1
1.176256 0.199712 1.186352 657166 1
1.062760 0.100792 1.168645 1052437 1
1.062760 0.119980 1.168645 1447708 1
1.081948 0.119980 1.168645 1118230 1
1.062760 0.139168 1.168645 855571 1
1.081948 0.139168 1.168645 1710626 1
1.043572 0.158356 1.168645 2170917 1
1.062760 0.158356 1.168645 2434603 1
1.081948 0.158356 1.168645 2039334 1
1.084943 0.156027 1.151459 1184023 1
1.043572 0.177544 1.168645 1578781 1
1.062760 0.177544 1.168645 1644576 1
1.066037 0.174933 1.151459 2170920 1
1.084943 0.174933 1.151459 1512988 1
1.087851 0.172397 1.134771 1315609 1
1.078863 0.199712 1.186352 2565678 1
1.066037 0.193839 1.151459 2301993 1
1.084943 0.193839 1.151459 1183510 1
1.103849 0.042592 1.151459 853264 1
1.139512 0.043228 1.168645 1841440 1
1.158700 0.043228 1.168645 1316122 1
1.195735 0.043883 1.186352 2303531 1
1.101136 0.062416 1.168645 2037538 1
1.024384 0.024040 1.168645 1184025 1
1.002886 0.022685 1.102806 1971745 1
1.020993 0.022685 1.102806 1182483 1
1.043572 0.043228 1.168645 1972258 1
1.062760 0.043228 1.168645 1643034 1
1.066037 0.042592 1.151459 1050643 1
1.069219 0.041975 1.134771 2300710 1
1.062760 0.062416 1.168645 1511707 1
1.081948 0.062416 1.168645 1248024 1
1.012140 0.025167 1.223425 1644576 1
1.032227 0.025167 1.223425 1776162 1
1.036125 0.024779 1.204603 1052950 1
1.032227 0.045254 1.223425 2499883 1
1.052315 0.045254 1.223425 1052950 1
1.055904 0.044558 1.204603 1315611 1
1.212376 0.004013 0.966657 1576991 1
1.228247 0.004013 0.966657 1511711 1
1.259670 0.004063 0.978740 787984 1
1.275740 0.004063 0.978740 1775902 1
1.228247 0.019885 0.966657 1774883 1
1.259670 0.020133 0.978740 1183514 1
1.275740 0.020133 0.978740 1183765 1
1.244119 0.035756 0.966657 328205 1
1.138467 0.003870 0.932133 1249307 1
1.181913 0.003964 0.954868 919574 1
1.115041 0.020133 0.978740 1445914 1
1.109949 0.018949 0.921167 2236200 1
1.152184 0.019406 0.943364 1841444 1
1.181913 0.019642 0.954868 2169641 1
1.111991 0.033677 0.910456 1117467 1
1.126940 0.033677 0.910456 1577504 1
1.082901 0.004063 0.978740 1973287 1
1.072167 0.003964 0.954868 854547 1
1.074738 0.003916 0.943364 1380121 1
1.097043 0.003780 0.910456 459787 1
1.082901 0.020133 0.978740 1710117 1
1.098971 0.020133 0.978740 1709858 1
1.090227 0.019406 0.943364 1972258 1
1.079700 0.018949 0.921167 1183510 1
1.094824 0.018949 0.921167 657681 1
1.094824 0.034074 0.921167 1578529 1
1.021486 0.004277 1.030253 1381152 1
1.052247 0.004334 1.043989 1315359 1
1.069388 0.004334 1.043989 1841701 1
1.021486 0.021193 1.030253 986903 1
1.052247 0.021475 1.043989 921110 1
0.962229 0.004393 1.058097 1248022 1
0.966540 0.004334 1.043989 1577241 1
0.983682 0.004334 1.043989 1182229 1
0.962330 0.004167 1.003836 1511196 1
0.978812 0.004167 1.003836 1314846 1
0.983682 0.021475 1.043989 1708573 1
0.962330 0.020649 1.003836 1116436 1
0.978812 0.020649 1.003836 1709856 1
0.933697 0.004780 1.151459 2039080 1
0.925385 0.004644 1.118560 1249564 1
0.971508 0.004780 1.151459 1184025 1
0.962116 0.004644 1.118560 1447454 1
0.980482 0.004644 1.118560 1381150 1
0.998848 0.023009 1.118560 1116951 1
0.935391 -0.013341 1.087489 1973541 1
0.927483 -0.012980 1.058097 1183771 1
0.908043 -0.012474 1.016873 2367020 1
0.924739 -0.012474 1.016873 1576987 1
0.966540 -0.012807 1.043989 524553 1
0.983682 -0.012807 1.043989 1774366 1
-0.684595 0.005001 1.204603 1314328 1
-0.664816 0.005001 1.204603 920338 1
-0.684595 0.024779 1.204603 1446684 1
-0.664816 0.024779 1.204603 722959 1
-0.684595 0.044558 1.204603 789267 1
-1.470518 -0.688086 1.842334 854549 1
-1.457415 -0.696277 1.864267 1644063 1
-1.410019 -0.688086 1.842334 591373 1
-1.453419 -0.650187 1.820912 854295 1
-1.474974 -0.673688 1.886728 1183512 1
-1.443995 -0.673688 1.886728 986131 1
-1.453419 -0.620289 1.820912 2104616 1
-0.498235 0.217742 0.930450 2829099 3
-0.469848 0.211831 0.905193 3223859 3
-0.460506 0.214401 0.916175 2566186 3
-0.452247 0.217666 0.930127 2434602 3
-0.454524 0.226408 0.967481 3093302 3
-0.447605 0.231036 0.987258 3092279 3
-0.432183 0.230383 0.919926 2566188 3
-0.432921 0.239134 0.954868 2368810 3
-0.417243 0.239134 0.954868 3552573 3
-0.401565 0.239134 0.954868 6578536 3
