# .PCD v0.7
VERSION 0.7
FIELDS x y z rgb label
SIZE 4 4 4 4 4
TYPE F F F U U
COUNT 1 1 1 1 1
WIDTH 1248
HEIGHT 1
VIEWPOINT 0 0 0 1 0 0 0
POINTS 1248
DATA ascii
-0.108560 0.200133 0.524199 6185571 3
-0.195676 0.219573 0.551403 5329744 3
-0.193275 0.227400 0.571059 7829880 3
-0.189694 0.234567 0.589057 8026494 3
-0.181281 0.236207 0.593176 5329235 3
-0.171542 0.236207 0.593176 6447201 3
-0.128614 0.213453 0.536034 7763322 3
-0.115594 0.205938 0.517162 7632249 3
-0.186622 0.228626 0.551403 7106925 3
-0.184857 0.238010 0.574035 7434609 3
-0.180436 0.244799 0.590409 7434609 3
-0.169782 0.243423 0.587089 8224125 3
-0.153948 0.234007 0.564379 8355709 3
-0.141668 0.229133 0.552625 7500404 3
-0.162823 0.242690 0.563026 8422015 3
0.409989 0.172931 0.495574 4210500 3
0.408530 0.180424 0.493811 5131602 3
0.421705 0.182618 0.499816 3223606 3
0.429397 0.182400 0.499219 5197395 3
0.418117 0.189201 0.495565 6381670 3
0.425330 0.188791 0.494490 5723740 3
0.437791 0.190682 0.499444 4473672 3
0.362307 0.173477 0.497138 4868941 3
0.372097 0.174239 0.499322 5328722 3
0.314774 0.182475 0.499425 7961982 3
0.319466 0.180493 0.494001 7434868 3
0.353101 0.181104 0.495672 7105644 3
0.362307 0.181639 0.497138 7303536 3
0.372097 0.182437 0.499322 8158332 3
0.380751 0.182656 0.499920 5855064 3
0.383448 0.180068 0.492837 6119262 3
0.389167 0.178976 0.489849 4934988 3
0.398537 0.179574 0.491486 3618874 3
0.312901 0.189540 0.496453 7896702 3
-0.034352 0.202053 0.579030 8487808 3
-0.068481 0.200163 0.547838 7763826 3
-0.060461 0.203445 0.556818 8026744 3
-0.083022 0.200817 0.525989 8222067 3
-0.077151 0.208282 0.545542 6908004 3
-0.037446 0.209891 0.631190 7960953 3
-0.029372 0.227630 0.684536 3947328 3
-0.027244 0.221570 0.634960 7566456 3
-0.027291 0.232391 0.636042 8751498 3
-0.017339 0.239163 0.654578 9080210 3
-0.028232 0.251208 0.657977 8225667 3
-0.059873 0.183359 0.551403 4671816 3
-0.051319 0.185160 0.556818 5658198 3
-0.043667 0.191703 0.576497 5723480 3
-0.085233 0.188432 0.539995 9933716 3
-0.077101 0.190243 0.545187 7763572 3
-0.068776 0.191992 0.550198 7435120 3
-0.059873 0.192412 0.551403 6908776 3
-0.051319 0.194302 0.556818 7829367 3
-0.042785 0.197106 0.564853 8816262 3
-0.092192 0.193298 0.529049 7630961 3
-0.083896 0.194202 0.531523 7696752 3
-0.076042 0.196459 0.537699 8355450 3
-0.099533 0.199292 0.521995 7368557 3
-0.090548 0.198384 0.519618 7762286 3
-0.196043 0.202780 0.641479 6447716 3
-0.190871 0.207684 0.624554 5395028 3
-0.179800 0.206746 0.621733 5460308 3
-0.187874 0.214516 0.614747 4276547 3
-0.195940 0.222310 0.608452 5723739 3
-0.185497 0.221769 0.606971 5921370 3
-0.193497 0.229403 0.600865 7631736 3
-0.184070 0.229952 0.602302 5460567 3
-0.174181 0.229952 0.602302 5789271 3
-0.215426 0.211467 0.668962 5592405 3
-0.244341 0.228961 0.688539 4802891 3
-0.225789 0.221841 0.667128 6118751 3
-0.206576 0.213312 0.641479 6184542 3
-0.299997 0.222827 0.638562 3684408 3
-0.294003 0.243952 0.699100 6184033 3
-0.282524 0.243952 0.699100 5921629 3
-0.269397 0.242467 0.694847 6184542 3
-0.244222 0.229530 0.657771 6579300 3
-0.227753 0.223956 0.641797 6052956 3
-0.214807 0.221472 0.634680 4737098 3
-0.201126 0.217939 0.624554 4210754 3
-0.295122 0.221769 0.606971 5461330 3
-0.286687 0.222960 0.610231 4079168 3
-0.280366 0.225940 0.618388 5723478 3
-0.291190 0.243480 0.666394 7696502 3
-0.292391 0.254030 0.695267 4802125 3
-0.280805 0.253876 0.694847 3158325 3
-0.255022 0.240330 0.657771 4342338 3
-0.230612 0.226936 0.621114 6184540 3
-0.217078 0.223501 0.611713 4934475 3
-0.207034 0.223501 0.611713 5855577 3
-0.272297 0.247203 0.647486 5789022 3
-0.280024 0.264547 0.692913 7171185 3
-0.253631 0.249760 0.654183 6119262 3
-0.228796 0.235267 0.616223 5987674 3
0.305275 0.177531 0.592376 4934477 3
0.302200 0.185372 0.586411 6974319 3
0.317321 0.171897 0.516933 5855577 3
0.327094 0.172575 0.518973 6579559 3
0.339554 0.174600 0.525063 6842733 3
0.342015 0.171511 0.515774 5394774 3
0.345568 0.169106 0.508540 3881535 3
0.369909 0.168782 0.507568 6052958 3
0.316212 0.179754 0.515126 8224384 3
0.323211 0.178946 0.512812 7105903 3
0.330750 0.178471 0.511449 6645354 3
0.335112 0.176347 0.505364 7237489 3
0.339978 0.174585 0.500314 7500404 3
0.348263 0.174620 0.500415 4210752 3
0.357337 0.175040 0.501619 3355443 3
0.309967 0.184495 0.504954 8093568 3
0.495882 0.157306 0.555314 3223346 3
0.490858 0.161764 0.539763 4802376 3
0.496617 0.160759 0.536411 3618615 3
0.473630 0.167664 0.530395 6118236 3
0.484387 0.168377 0.532648 5920857 3
0.493133 0.168377 0.532648 5723989 3
0.461602 0.175114 0.526608 7368303 3
0.470543 0.175224 0.526938 7631475 3
0.482745 0.176522 0.530842 7894647 3
0.490217 0.176075 0.529498 7566193 3
0.426730 0.176490 0.505772 3881536 3
0.435910 0.176845 0.506791 5526101 3
0.446221 0.177637 0.509061 4539204 3
0.460878 0.180099 0.516115 4736583 3
0.441036 0.183834 0.503145 6052958 3
0.453106 0.185393 0.507411 4605510 3
0.287376 0.163165 0.575996 4342086 3
0.287309 0.172582 0.575862 7895162 3
0.285146 0.180667 0.571527 8684678 3
0.200309 0.198994 0.598420 8684676 3
0.209883 0.198756 0.597704 8553090 3
0.282058 0.187993 0.565337 8749960 3
0.298842 0.192833 0.579894 8487045 3
0.252812 0.182837 0.523961 7829115 3
0.228211 0.185431 0.507515 8355970 3
0.237794 0.186410 0.510197 8816523 3
0.246874 0.186943 0.511655 8552838 3
0.252245 0.184724 0.505582 9209742 3
0.259490 0.183975 0.503532 8617605 3
0.267757 0.183975 0.503532 8486788 3
0.210096 0.192437 0.504039 8224125 3
0.217671 0.191819 0.502422 8355198 3
0.226239 0.192089 0.503129 8553090 3
0.251222 0.192243 0.503532 9077643 3
0.291622 0.191627 0.501918 8554119 3
0.200107 0.224376 0.792078 6315619 3
0.279579 0.225539 0.796183 6908524 3
0.292661 0.225546 0.796210 5658457 3
0.204635 0.227939 0.760573 6776170 3
0.208004 0.218366 0.728631 7894651 3
0.230576 0.217090 0.724372 7763315 3
0.257455 0.230507 0.769142 6579302 3
0.279170 0.238262 0.795018 7303025 3
0.281868 0.232044 0.734055 7106157 3
0.146505 0.175692 0.620218 7039342 3
0.124443 0.183377 0.611880 5526612 3
0.135279 0.184453 0.615473 5790043 3
0.143346 0.181867 0.606841 7237491 3
0.153592 0.182202 0.607961 8092028 3
0.125575 0.195184 0.617449 9079434 3
0.136418 0.196197 0.620655 7500402 3
0.145889 0.195234 0.617609 6842985 3
0.153528 0.192104 0.607709 7961466 3
0.162874 0.191362 0.605359 8487045 3
0.172563 0.191084 0.604482 7894651 3
0.181351 0.189894 0.600715 8486016 3
0.005057 0.225614 0.796449 7500915 3
0.005065 0.239067 0.797704 7039851 3
0.044428 0.239447 0.798972 7303534 3
0.005073 0.252565 0.798972 7763574 3
0.018192 0.252565 0.798972 8026746 3
0.031310 0.252565 0.798972 6249822 3
0.044120 0.250811 0.793423 6710886 3
0.056190 0.246610 0.780134 7631990 3
0.068566 0.245063 0.775240 7171439 3
0.083599 0.252011 0.797218 6710888 3
0.005073 0.265683 0.798972 6118749 3
0.018192 0.265683 0.798972 6118749 3
0.031310 0.265683 0.798972 7039338 3
0.044120 0.263838 0.793423 7039851 3
0.051812 0.239209 0.719356 8158334 3
0.005073 0.278802 0.798972 8224125 3
0.018192 0.278802 0.798972 7895160 3
0.031092 0.276866 0.793423 7960440 3
0.004972 0.286082 0.782992 9474192 3
0.017706 0.284134 0.777662 9474192 3
-0.034044 0.224757 0.793423 7895162 3
-0.021016 0.224753 0.793410 6447201 3
-0.007964 0.224042 0.790901 6578787 3
-0.047400 0.239447 0.798972 6250337 3
-0.034282 0.239447 0.798972 4999757 3
-0.021157 0.239371 0.798718 6184029 3
-0.008004 0.238231 0.794916 7762547 3
-0.069801 0.239411 0.757358 5855577 3
-0.056698 0.236620 0.748531 4736585 3
-0.047085 0.250886 0.793661 7763574 3
-0.034227 0.252164 0.797704 6512998 3
-0.021163 0.252565 0.798972 5130576 3
-0.008045 0.252565 0.798972 8091260 3
-0.019905 0.249880 0.751446 4275013 3
-0.007970 0.263217 0.791555 6314849 3
-0.019564 0.257733 0.738595 9144976 3
-0.007970 0.276214 0.791555 8289409 3
-0.007491 0.271808 0.743925 8487299 3
-0.191800 0.187875 0.663225 5131343 3
-0.196585 0.192778 0.643251 5329235 3
-0.181605 0.188199 0.627972 6644841 3
-0.172774 0.189825 0.633396 7236717 3
-0.181605 0.198510 0.627972 7368305 3
-0.169931 0.196931 0.622976 6907752 3
-0.159304 0.196440 0.621422 8486786 3
-0.220614 0.204490 0.721878 4604483 3
-0.233348 0.217163 0.724616 5854550 3
-0.290715 0.247514 0.782992 5263442 3
-0.272295 0.242558 0.767313 5921372 3
-0.238827 0.223065 0.705651 5658200 3
-0.292148 0.240392 0.722914 4539719 3
-0.281084 0.241083 0.724993 4079166 3
-0.267483 0.239562 0.720420 5263440 3
-0.294448 0.246447 0.869991 6315101 3
-0.264440 0.232615 0.821165 6315101 3
-0.241488 0.250785 0.885306 5657687 3
-0.205274 0.242352 0.855538 4803150 3
-0.287950 0.254977 0.850791 6052443 3
0.540479 0.147917 0.554297 3223346 3
0.508205 0.158305 0.558838 4473926 3
0.528355 0.153496 0.541863 2104865 3
0.506944 0.161242 0.538024 4671303 3
0.514121 0.160725 0.536296 3354930 3
0.501772 0.168341 0.532535 5855575 3
0.646210 0.212663 0.796923 2302246 3
0.622594 0.213181 0.752561 4736587 3
0.609506 0.204639 0.722403 6117468 3
0.621634 0.239447 0.798972 7039599 3
0.630345 0.237784 0.793423 7039600 3
0.641327 0.237028 0.790901 7500150 3
0.641082 0.232235 0.774909 7170926 3
0.611569 0.217233 0.724849 6644580 3
0.602369 0.250014 0.790901 6314847 3
0.632390 0.251625 0.795997 6513255 3
0.641327 0.250014 0.790901 6710634 3
0.602369 0.263000 0.790901 6578019 3
0.507322 0.204162 0.765065 5526099 3
0.524553 0.205995 0.771935 6512994 3
0.542211 0.207906 0.779097 5394774 3
0.558838 0.209343 0.784480 5460568 3
0.574050 0.210197 0.787680 4078915 3
0.504507 0.210313 0.742436 6645095 3
0.533587 0.217188 0.766706 5592153 3
0.549877 0.218660 0.771900 5329495 3
0.568515 0.220978 0.780085 6381669 3
0.541042 0.222489 0.742388 6908267 3
0.582231 0.246980 0.781303 6512996 3
0.531827 0.237316 0.713665 6249824 3
0.494919 0.204227 0.765310 5920861 3
0.451843 0.203080 0.716901 7302512 3
0.469399 0.205614 0.725848 6776170 3
0.489821 0.209247 0.738672 6447203 3
0.443352 0.210814 0.703430 7368818 3
0.452879 0.209876 0.700302 7368564 3
0.403961 0.185536 0.695267 7630709 3
0.417666 0.186559 0.699100 8025465 3
0.409224 0.194034 0.684969 8223098 3
0.426792 0.196952 0.695267 7236719 3
0.451974 0.199335 0.665129 5460821 3
0.105157 0.231374 0.867039 7434357 3
0.123709 0.239739 0.898384 7434871 3
0.138707 0.240168 0.899991 7236978 3
0.152285 0.238291 0.892960 6512998 3
0.166349 0.237439 0.889764 6842474 3
0.180958 0.237439 0.889764 6118751 3
0.195498 0.237355 0.889450 6907752 3
0.103821 0.242490 0.856023 6579302 3
0.118483 0.243738 0.860431 6316389 3
0.127862 0.235011 0.829621 5855325 3
0.103221 0.255063 0.851078 6381923 3
0.113838 0.247756 0.826699 6053217 3
0.547857 0.201910 0.806231 2433828 3
0.576074 0.207300 0.827754 3223348 3
0.580831 0.204194 0.815353 3618364 3
0.591914 0.203403 0.812191 4013122 3
0.596828 0.240022 0.800891 6974060 3
0.356615 0.173303 0.692002 6972526 3
0.359419 0.169272 0.675906 7829118 3
0.371117 0.169546 0.677002 3815745 3
0.382748 0.169775 0.677915 4407367 3
0.398651 0.171832 0.686128 5130576 3
0.318116 0.182138 0.682532 7303282 3
0.321020 0.177546 0.665325 6447462 3
0.331060 0.177073 0.663553 6710122 3
0.341955 0.177073 0.663553 7762296 3
0.353882 0.177591 0.665494 8420740 3
0.368540 0.179407 0.672300 9605527 3
0.385695 0.182298 0.683135 7236466 3
0.393478 0.191841 0.677226 7762293 3
0.394364 0.197827 0.660097 5460560 3
0.242035 0.225287 0.899577 7828856 3
0.248247 0.217779 0.869597 7894649 3
0.255917 0.212298 0.847709 7434868 3
0.268991 0.211633 0.845056 6909292 3
0.283342 0.211989 0.846478 7765116 3
0.297140 0.211918 0.846193 6646635 3
0.204768 0.231329 0.866870 7038570 3
0.212629 0.224598 0.841646 6446950 3
0.225090 0.223251 0.836598 6578791 3
0.235287 0.219943 0.824202 7828856 3
0.248902 0.220016 0.824475 8487299 3
0.263741 0.221107 0.828563 6579813 3
0.277345 0.221107 0.828563 6251877 3
0.290949 0.221107 0.828563 6185571 3
0.221977 0.233710 0.825028 6578791 3
0.232761 0.230969 0.815353 5986654 3
0.244952 0.229847 0.811391 7105644 3
0.258275 0.229847 0.811391 7237228 3
0.268739 0.227428 0.802853 7040880 3
0.299795 0.244435 0.815617 7566454 3
-0.206185 0.249333 0.995595 5263701 3
-0.237252 0.263871 0.988816 3947841 3
-0.219194 0.261696 0.980664 3882563 3
-0.202616 0.261081 0.978360 5987424 3
-0.245662 0.271460 0.958291 5000270 3
-0.385762 0.316117 1.262264 5524554 3
-0.355560 0.307910 1.229494 5327691 3
-0.330188 0.303150 1.210485 5526101 3
-0.375747 0.328097 1.229494 6577758 3
-0.353805 0.326478 1.223425 4999241 3
-0.330188 0.323025 1.210485 5460308 3
0.616824 0.207412 0.886308 3749692 3
0.618354 0.203134 0.868026 5657436 3
0.626644 0.201219 0.859846 5526361 3
0.613999 0.206343 0.823933 5723739 3
0.624446 0.205330 0.819887 5723739 3
0.631126 0.203147 0.811170 4276294 3
0.636798 0.200736 0.801546 3355191 3
0.606113 0.217047 0.813351 3092019 3
0.624446 0.218792 0.819887 2828847 3
0.635623 0.218008 0.816951 3157813 3
0.643179 0.216040 0.809577 3288886 3
0.605169 0.230043 0.812083 5460821 3
0.624651 0.232330 0.820157 6842474 3
0.641055 0.233399 0.823933 4342087 3
0.648827 0.231347 0.816687 5000017 3
0.653605 0.228331 0.806042 5855068 3
0.623450 0.245323 0.818580 6381923 3
0.624078 0.253558 0.802112 7039340 3
0.624078 0.266728 0.802112 6052958 3
0.500422 0.185805 0.793978 4342086 3
0.597645 0.169055 0.722403 2959925 3
0.596849 0.165545 0.707402 4209473 3
0.501341 0.194148 0.775240 2960174 3
0.517604 0.195483 0.780569 2236449 3
0.595826 0.180366 0.720205 3288118 3
0.596849 0.177160 0.707402 3748923 3
0.598571 0.189319 0.709443 2696234 3
0.322162 0.205110 0.876470 5921629 3
0.309260 0.210709 0.841367 7434868 3
0.319744 0.208537 0.832695 6710886 3
0.331872 0.207572 0.828839 7434098 3
0.344690 0.207097 0.826942 7236971 3
0.352923 0.204007 0.814606 6185051 3
0.304453 0.221034 0.828291 7763833 3
0.316693 0.220089 0.824750 6118749 3
0.333526 0.222283 0.832970 6447205 3
0.344690 0.220674 0.826942 6776679 3
0.315453 0.232716 0.821519 5329746 3
0.330016 0.233476 0.824202 6250337 3
0.341088 0.231804 0.818300 7171439 3
0.313186 0.244435 0.815617 6908778 3
0.005555 0.204731 0.874852 9013639 3
0.019906 0.204589 0.874247 7697781 3
0.033905 0.202469 0.865185 6448227 3
0.049841 0.209752 0.896309 5921629 3
0.005524 0.217878 0.869991 7040362 3
0.019809 0.217878 0.869991 7895671 3
0.034093 0.217878 0.869991 7435636 3
0.049524 0.223043 0.890616 6448741 3
0.005281 0.221930 0.831649 7699062 3
0.019378 0.227115 0.851078 6646374 3
0.033105 0.225436 0.844787 6448741 3
0.046991 0.225508 0.845056 7238257 3
0.061074 0.226280 0.847947 6711145 3
0.076946 0.232162 0.869991 7698040 3
0.090884 0.231280 0.866687 7829115 3
0.018490 0.230036 0.812060 6316641 3
0.032971 0.238338 0.841367 6777192 3
0.046350 0.236118 0.833530 7369327 3
0.060703 0.238741 0.842790 7303282 3
0.075685 0.242406 0.855729 7171698 3
0.089735 0.242406 0.855729 5723993 3
0.018357 0.241626 0.806244 6842985 3
0.032559 0.248999 0.830845 6448225 3
0.057954 0.241144 0.804634 6184801 3
0.073781 0.250006 0.834206 6250596 3
0.088795 0.253770 0.846765 6645095 3
0.097901 0.255169 0.807208 7039851 3
-0.097695 0.210552 0.899726 5394774 3
-0.082473 0.209410 0.894848 5789784 3
-0.067756 0.209336 0.894530 6118747 3
-0.052768 0.208147 0.889450 5920857 3
-0.037935 0.206899 0.884119 8420991 3
-0.023085 0.203949 0.871510 8421504 3
-0.008763 0.203664 0.870295 9079434 3
-0.097103 0.223958 0.894271 6315876 3
-0.081541 0.221571 0.884737 6447716 3
-0.066756 0.220715 0.881320 7237230 3
-0.052193 0.220326 0.879766 5986650 3
-0.037590 0.219404 0.876084 7368816 3
-0.022957 0.217050 0.866687 7369327 3
-0.008715 0.216749 0.865485 7764085 3
-0.096585 0.237369 0.889504 6908267 3
-0.079117 0.229078 0.858434 6250337 3
-0.063645 0.224227 0.840254 6710886 3
-0.051010 0.229446 0.859814 6512994 3
-0.036908 0.229546 0.860186 7829367 3
-0.022290 0.224564 0.841518 6579298 3
-0.008141 0.215757 0.808515 6908776 3
-0.093389 0.243637 0.860072 7829369 3
-0.077596 0.238497 0.841927 7631988 3
-0.062402 0.233373 0.823839 7829367 3
-0.047709 0.227802 0.804173 7631990 3
-0.091703 0.253103 0.844539 5395026 3
-0.077338 0.251481 0.839128 4342338 3
-0.061535 0.243470 0.812395 5723991 3
0.407442 0.157030 0.721652 4737104 3
0.454930 0.170378 0.782992 5263191 3
0.477333 0.173855 0.798972 4803151 3
0.409273 0.164844 0.704410 4538953 3
0.424037 0.166097 0.709763 3618364 3
0.479155 0.182667 0.780569 3947329 3
0.429359 0.179982 0.718672 4144450 3
0.458107 0.186896 0.746281 3157555 3
0.478278 0.190042 0.758843 2894383 3
0.434509 0.188891 0.707839 6512996 3
0.469596 0.198826 0.745069 6644584 3
0.212468 0.210343 0.966657 6578791 3
0.228340 0.210343 0.966657 7434611 3
0.244211 0.210343 0.966657 5921118 3
0.256911 0.207778 0.954868 5592153 3
0.272589 0.207778 0.954868 4737096 3
0.288267 0.207778 0.954868 5395024 3
0.214294 0.228159 0.974964 7960440 3
0.229232 0.227098 0.970433 6974058 3
0.242164 0.224318 0.958552 6184290 3
0.254783 0.221605 0.946959 7566197 3
0.267101 0.218957 0.935643 7631986 3
0.281404 0.218136 0.932133 6974569 3
0.296708 0.218136 0.932133 6778219 3
0.208924 0.238048 0.950532 6644834 3
0.221014 0.234319 0.935643 7762545 3
0.233585 0.231552 0.924594 8551811 3
0.726099 0.138177 0.686835 2434092 1
0.713626 0.136302 0.626394 1184022 1
0.791159 0.146878 0.674993 1051926 1
0.735255 0.153239 0.654816 2105124 1
0.716492 0.147176 0.628909 920591 1
0.763433 0.154590 0.660592 1709339 1
0.773028 0.154340 0.659525 1643033 1
0.796927 0.163408 0.652493 2433063 1
0.651744 0.172155 0.855729 2631471 1
0.619753 0.189309 0.869991 4736332 3
0.627070 0.187229 0.860431 3486520 3
0.627408 0.183202 0.841927 2499625 3
0.627732 0.179345 0.824202 2894641 1
0.629122 0.197564 0.844227 4736844 3
0.633584 0.194676 0.831886 3157813 3
0.627873 0.188850 0.806990 4078915 3
0.635770 0.187273 0.800252 3684156 3
0.552462 0.181060 0.899991 3158072 1
0.500669 0.177477 0.815617 5592413 3
0.548331 0.189309 0.869991 6184291 3
0.582016 0.195837 0.899991 5328981 3
0.524088 0.189651 0.810415 5262927 3
0.544774 0.192256 0.821544 3486516 3
0.357783 0.154433 0.767639 4210500 3
0.346150 0.173855 0.798972 3157812 3
0.355639 0.172099 0.790901 3224118 3
0.350902 0.163825 0.752877 2499882 3
0.356410 0.160734 0.738672 3684156 3
0.387314 0.158491 0.728365 5658206 3
0.395593 0.157030 0.721652 5460827 3
0.342633 0.185074 0.790854 5395026 3
0.336224 0.174981 0.747724 5461080 3
0.341970 0.171702 0.733713 4934223 3
0.349210 0.169370 0.723750 4407879 3
0.358911 0.168347 0.719376 2368297 3
0.370189 0.168105 0.718341 2763057 3
0.380785 0.167577 0.716086 2434351 3
0.390645 0.166767 0.712625 3092279 3
0.397600 0.164800 0.704221 2631471 3
0.336540 0.187434 0.748428 5132113 3
0.339393 0.182364 0.728184 7040110 3
0.347603 0.180420 0.720420 7236978 3
0.351795 0.176586 0.705113 7499638 3
0.330077 0.195887 0.734055 7171696 3
0.316031 0.181060 0.899991 2960687 3
0.330808 0.181060 0.899991 3092019 3
0.343610 0.180025 0.894848 3552058 3
0.356267 0.179002 0.889764 3683899 3
0.368780 0.177991 0.884737 4605259 3
0.389916 0.181060 0.899991 5000017 3
0.374556 0.167577 0.832970 4605771 3
0.311138 0.184192 0.846478 6447973 3
0.325037 0.184192 0.846478 5723739 3
0.338935 0.184192 0.846478 7960442 3
0.350936 0.183202 0.841927 4144961 3
0.322968 0.196830 0.841092 6447716 3
0.332096 0.194094 0.829398 6447201 3
0.350936 0.197026 0.841927 6381919 3
0.137350 0.200665 0.997442 5000529 3
0.120207 0.215668 0.991129 6118498 3
0.136480 0.215668 0.991129 6184803 3
0.152754 0.215668 0.991129 7566197 3
0.166914 0.212973 0.978740 6841961 3
0.182984 0.212973 0.978740 5920861 3
0.199054 0.212973 0.978740 5526103 3
0.102320 0.228340 0.975738 7630707 3
0.120207 0.231942 0.991129 6512743 3
0.135890 0.230939 0.986844 5526873 3
0.151734 0.230393 0.984511 5723993 3
0.166914 0.229043 0.978740 6841963 3
0.182984 0.229043 0.978740 6578791 3
0.197365 0.227098 0.970433 6973547 3
0.101367 0.242086 0.966657 4473672 3
0.118246 0.244167 0.974964 5855325 3
0.134827 0.245209 0.979125 6053217 3
0.151617 0.246369 0.983756 5855326 3
0.164854 0.242086 0.966657 7565686 3
0.180725 0.242086 0.966657 6447205 3
0.194948 0.240057 0.958552 6381921 3
0.042032 0.215784 1.072592 3947328 3
0.060472 0.218781 1.087489 5263188 3
0.078875 0.220311 1.095094 6051677 3
0.096855 0.220311 1.095094 5525331 3
0.059643 0.233395 1.072592 4671562 3
0.077787 0.235004 1.079989 4999757 3
0.094865 0.233395 1.072592 5788503 3
-0.124683 0.200665 0.997442 3553083 3
-0.120834 0.210343 0.966657 3553084 3
-0.100615 0.201631 0.926618 3816255 3
-0.141192 0.233637 0.998375 5000276 3
-0.116841 0.218739 0.934713 5065812 3
-0.182638 0.239877 0.957833 4342599 3
-0.165191 0.237404 0.947958 4539978 3
-0.128758 0.228012 0.910456 5066069 3
-0.113768 0.227929 0.910127 5065812 3
-0.183901 0.257371 0.964456 4408392 3
-0.166714 0.255301 0.956699 6711147 3
-0.149468 0.252701 0.946959 5855838 3
-0.132320 0.249682 0.935643 6645355 3
-0.114163 0.243716 0.913287 6513255 3
-0.191899 0.262486 0.926614 5790043 3
-0.179879 0.267231 0.943364 6579561 3
-0.164390 0.267231 0.943364 6842733 3
-0.147682 0.265044 0.935643 5790045 3
-0.128698 0.257790 0.910035 7237491 3
-0.191899 0.277700 0.926614 5921883 3
-0.179879 0.282720 0.943364 6645095 3
-0.165768 0.285091 0.951273 5723739 3
-0.199066 0.210029 1.043989 3223348 3
-0.180720 0.208639 1.037076 2697002 3
-0.162615 0.207266 1.030253 2894894 3
-0.143808 0.204574 1.016873 5394775 3
-0.196447 0.224182 1.030253 3881276 3
-0.179531 0.224182 1.030253 4144961 3
-0.162615 0.224182 1.030253 4473926 3
-0.141964 0.218433 1.003836 3224119 3
-0.197265 0.242102 1.034545 5197647 3
-0.179681 0.241298 1.031111 6052956 3
-0.164784 0.244312 1.043989 6645352 3
-0.159454 0.252997 1.010222 5790045 3
-0.225216 0.218781 1.087489 3157812 3
-0.252171 0.228695 1.050996 4539465 3
-0.234915 0.228695 1.050996 4210501 3
-0.216208 0.227171 1.043989 4276547 3
-0.252171 0.245952 1.050996 4671564 3
-0.234915 0.245952 1.050996 5000529 3
-0.216661 0.244824 1.046179 5395285 3
-0.243984 0.254662 1.016873 4737357 3
-0.227196 0.254560 1.016463 4474700 3
0.705754 0.131515 0.711811 1315357 1
0.717441 0.131515 0.711811 1907237 1
0.734141 0.130330 0.705398 2236713 1
0.773601 0.135202 0.731768 2170666 1
0.705754 0.143202 0.711811 1446686 1
0.717441 0.143202 0.711811 1249307 1
0.729128 0.143202 0.711811 2499885 1
0.734141 0.141912 0.705398 1644576 1
0.785616 0.147217 0.731768 1118232 1
0.714195 0.154188 0.708590 3946816 1
0.725829 0.154188 0.708590 3157300 1
0.734141 0.153494 0.705398 3486265 1
0.745723 0.153494 0.705398 1907233 1
0.764190 0.154889 0.711811 2630956 1
0.782995 0.156310 0.718341 2170918 1
0.794790 0.156310 0.718341 1776160 1
0.713189 0.165589 0.707593 4538953 3
0.787564 0.166576 0.711811 2499883 1
0.615355 0.146127 0.790901 2236970 1
0.628341 0.146127 0.790901 1841701 1
0.665899 0.137777 0.745707 2170920 1
0.679292 0.130920 0.708590 1052185 1
0.694067 0.131515 0.711811 657940 1
0.609202 0.157522 0.782992 2763314 1
0.618963 0.156738 0.779097 3683905 1
0.622464 0.154433 0.767639 3683905 1
0.635068 0.154433 0.767639 3289399 1
0.647672 0.154433 0.767639 2631722 1
0.660276 0.154433 0.767639 2762797 1
0.641462 0.144516 0.718341 986646 1
0.679292 0.142554 0.708590 1775908 1
0.694067 0.143202 0.711811 1118232 1
0.609202 0.170378 0.782992 2499883 1
0.618963 0.169530 0.779097 3881538 1
0.604680 0.162265 0.745707 4473421 1
0.605392 0.159232 0.731768 2762544 1
0.600569 0.154889 0.711811 2828588 1
0.612256 0.154889 0.711811 3815485 1
0.673199 0.152805 0.702235 3157815 1
0.687814 0.153494 0.705398 4407880 1
0.699396 0.153494 0.705398 3025716 1
0.618177 0.178404 0.762352 4276296 3
0.606740 0.165076 0.705398 2104095 3
0.618322 0.165076 0.705398 3552313 3
0.629904 0.165076 0.705398 2170918 3
0.684729 0.164335 0.702235 4407622 3
0.696455 0.164382 0.702433 4012609 3
0.642760 0.198513 0.792668 3486520 3
0.603016 0.175573 0.701068 5130573 3
0.601359 0.193976 0.726893 2498855 3
0.603016 0.187084 0.701068 2893611 3
0.480516 0.157246 0.851078 2302763 1
0.483968 0.153900 0.832970 2829879 1
0.442493 0.162394 0.807208 3092533 1
0.455747 0.162394 0.807208 4539725 1
0.473886 0.164086 0.815617 1777189 1
0.497645 0.167577 0.832970 3092279 1
0.005884 0.171203 0.926618 2697004 1
0.020974 0.170195 0.921167 1841695 1
0.005815 0.184236 0.915780 2697002 3
0.020851 0.184236 0.915780 5723482 3
0.005781 0.198114 0.910456 7697268 3
0.035679 0.198114 0.910456 7105646 3
-0.280399 0.215920 1.168645 2630956 3
-0.255491 0.211191 1.143054 1973026 3
-0.299587 0.235108 1.168645 1710620 3
-0.270313 0.226651 1.126607 3092020 3
-0.246495 0.221862 1.102806 4473673 3
-0.299587 0.254296 1.168645 4473926 3
-0.294609 0.287808 1.149225 6316130 3
0.658715 0.117688 0.699100 2236202 1
0.611201 0.124177 0.672096 2499374 1
0.627624 0.125252 0.677915 1446432 1
0.655788 0.128592 0.695993 2235948 1
0.613836 0.135795 0.674993 1644322 1
0.630352 0.136976 0.680863 2038569 1
0.658715 0.140645 0.699100 1907496 1
0.602753 0.146878 0.674993 3026229 1
0.611201 0.146247 0.672096 2697264 1
0.627624 0.147513 0.677915 1973287 1
0.652886 0.150777 0.692913 1775908 1
0.618869 0.159256 0.680529 3026486 3
0.622968 0.157467 0.672886 3289658 3
0.658715 0.163602 0.699100 4144710 3
0.670382 0.163648 0.699296 4802638 3
0.612801 0.175080 0.699100 4538436 3
0.624280 0.175080 0.699100 4736844 3
0.631890 0.174015 0.694847 3882049 3
0.637640 0.172484 0.688735 3223608 3
0.655104 0.174120 0.695267 2828850 3
0.670194 0.175080 0.699100 4144195 3
0.679590 0.174545 0.696964 5065550 3
0.690070 0.174302 0.695993 4868171 3
0.612801 0.186559 0.699100 3289139 3
0.624280 0.186559 0.699100 2697261 3
0.628090 0.184309 0.690668 2631469 3
0.610065 0.158807 0.943364 2433832 1
0.602802 0.172222 0.932133 1710367 1
0.618107 0.172222 0.932133 1512728 1
0.629664 0.171203 0.926618 1644316 1
0.652601 0.173253 0.937715 1249558 1
0.672022 0.174297 0.943364 3420727 1
0.695895 0.176422 0.954868 2762028 1
0.614450 0.186417 0.926618 4276034 1
0.625960 0.185320 0.921167 4670792 1
0.644878 0.186417 0.926618 3749692 1
0.660092 0.186417 0.926618 3091507 1
0.679326 0.187526 0.932133 2564649 1
0.694631 0.187526 0.932133 2630956 1
0.607263 0.199273 0.915780 5723478 3
0.622299 0.199273 0.915780 6052445 3
0.629968 0.196969 0.905193 5197138 3
0.586149 0.160744 0.954868 1909034 1
0.591016 0.157857 0.937715 2697523 1
0.553593 0.171203 0.926618 2171947 1
0.568807 0.171203 0.926618 1645605 1
0.584021 0.171203 0.926618 2171179 1
0.577191 0.184236 0.915780 1579040 1
0.599236 0.186417 0.926618 2565676 1
-0.084899 0.155071 0.921167 2896181 1
-0.089091 0.178600 0.966657 2631982 1
-0.054649 0.170195 0.921167 2302242 1
-0.039294 0.169200 0.915780 2696232 1
-0.009168 0.168216 0.910456 2170660 1
-0.085909 0.187526 0.932133 1974051 3
-0.070187 0.186417 0.926618 2171428 3
-0.054649 0.185320 0.921167 2631207 3
-0.039294 0.184236 0.915780 1906970 3
-0.009168 0.183165 0.910456 3420727 3
-0.039294 0.199273 0.915780 8355198 3
-0.009168 0.198114 0.910456 8684678 3
-0.362297 0.210896 1.252787 2302757 1
-0.339015 0.209223 1.242845 2039842 1
-0.316100 0.207575 1.233058 3420985 1
-0.379828 0.229629 1.242845 3420733 3
-0.359421 0.229629 1.242845 3025967 3
-0.328584 0.222563 1.204603 3223859 3
-0.397082 0.248066 1.233058 3486528 3
-0.368141 0.242342 1.204603 3025716 3
-0.379828 0.270441 1.242845 4012094 3
-0.359421 0.270441 1.242845 4736067 3
-0.333718 0.266216 1.223425 3289652 3
-0.385762 0.295392 1.262264 4274233 3
-0.355560 0.287723 1.229494 4275257 3
-0.330188 0.283275 1.210485 4604997 3
-0.315399 0.069374 0.412101 1776419 1
-0.308633 0.069374 0.412101 525841 1
-0.301866 0.069374 0.412101 1578529 1
-0.325505 0.075347 0.407808 1842214 1
-0.320479 0.075741 0.409943 856089 1
-0.315399 0.076140 0.412101 2236972 1
-0.308633 0.076140 0.412101 328716 1
-0.318809 0.082043 0.407808 1315870 3
-0.315399 0.082906 0.412101 1907494 3
-0.305418 0.082043 0.407808 2433579 3
0.418020 0.158606 1.043989 2368297 1
0.447083 0.162951 1.072592 2433577 1
0.464694 0.162951 1.072592 2367784 1
0.469443 0.158606 1.043989 2960693 1
0.486585 0.158606 1.043989 1118232 1
0.435161 0.175747 1.043989 2104867 1
0.446351 0.173434 1.030253 2170405 1
0.451388 0.168987 1.003836 2368810 1
0.467870 0.168987 1.003836 2368810 1
0.484352 0.168987 1.003836 2105125 1
0.064985 0.177544 1.168645 3223606 1
0.084173 0.177544 1.168645 3486778 1
0.044794 0.192424 1.143054 2434090 1
0.063101 0.191029 1.134771 3289399 1
0.081733 0.191029 1.134771 2631211 1
0.010147 0.242764 1.597943 2960176 1
0.035656 0.237908 1.565984 2894128 1
0.061367 0.237908 1.565984 2499883 1
0.009749 0.258451 1.535279 1841440 1
0.034284 0.253481 1.505754 2499370 1
-0.075171 0.123911 0.815617 1250843 1
-0.061779 0.123911 0.815617 2566188 1
-0.065174 0.144846 0.860431 3422265 1
-0.067395 0.164393 0.889764 2237221 1
-0.023839 0.166283 0.899991 2236451 1
-0.023839 0.181060 0.899991 2499623 3
-0.023839 0.195837 0.899991 8553090 3
-0.568888 0.139946 0.921167 1709854 1
-0.596981 0.162729 0.966657 1184023 1
-0.581109 0.178600 0.966657 2236711 3
-0.558345 0.176422 0.954868 1644063 3
-0.542667 0.176422 0.954868 1973030 3
-0.588373 0.196903 0.978740 3026227 3
-0.572303 0.196903 0.978740 2630958 3
-0.292026 0.061955 0.407808 1183771 1
-0.285330 0.061955 0.407808 854806 1
-0.278635 0.061955 0.407808 1578783 1
-0.292026 0.068651 0.407808 920342 1
-0.285330 0.068651 0.407808 1381404 1
-0.277191 0.068295 0.405695 920851 1
-0.298722 0.075347 0.407808 1907235 1
-0.292026 0.075347 0.407808 854547 1
-0.298722 0.082043 0.407808 2630958 3
-0.649965 0.108140 0.711811 1775649 1
-0.638278 0.108140 0.711811 1118743 1
-0.620946 0.107166 0.705398 856598 1
-0.644134 0.120927 0.718341 658706 1
-0.644134 0.132721 0.718341 1249816 1
0.733949 0.133457 0.984896 1709854 1
0.745432 0.132623 0.978740 2894128 1
0.736229 0.146857 0.966657 2170407 1
0.727251 0.160744 0.954868 1315357 1
0.738426 0.159770 0.949081 1381665 1
0.703000 0.174297 0.943364 1973026 1
0.714187 0.173253 0.937715 2960436 1
0.315487 0.134302 0.991129 1907746 1
0.331761 0.134302 0.991129 1972512 1
0.311544 0.148693 0.978740 3485750 1
0.327614 0.148693 0.978740 2959406 1
0.343684 0.148693 0.978740 3092019 1
0.311544 0.164763 0.978740 985616 1
0.317686 0.159770 0.949081 2104097 1
0.343684 0.164763 0.978740 1644573 1
0.359754 0.164763 0.978740 2895153 1
0.353716 0.155071 0.921167 2368296 1
0.366684 0.154164 0.915780 2039331 1
0.308342 0.170195 0.921167 3684410 1
0.319706 0.168216 0.910456 2236964 1
0.334654 0.168216 0.910456 3157300 1
0.349603 0.168216 0.910456 1775647 1
0.362445 0.167244 0.905193 1117972 1
0.383966 0.170195 0.921167 2105125 1
0.304757 0.183165 0.910456 5724250 3
0.169965 0.149434 1.102806 2894894 1
0.103361 0.177544 1.168645 3289399 1
0.123470 0.178879 1.177432 2697775 1
0.142802 0.178879 1.177432 3224633 1
0.164610 0.181610 1.195408 2237223 1
0.177464 0.174933 1.151459 2960174 1
0.100365 0.191029 1.134771 2959921 1
0.119865 0.192424 1.143054 3157813 1
0.137628 0.191029 1.134771 2960693 1
0.155136 0.189655 1.126607 3158325 1
0.173634 0.189655 1.126607 1710105 1
-0.071481 0.225741 1.665941 1973541 1
-0.044128 0.225741 1.665941 2303531 1
-0.016425 0.221038 1.631234 2171430 1
-0.044128 0.253094 1.665941 2369324 1
-0.016425 0.247821 1.631234 2500395 1
-0.071481 0.280447 1.665941 1841695 1
-0.490311 0.110519 0.815617 1184023 1
-0.476919 0.110519 0.815617 1117719 1
-0.463528 0.110519 0.815617 1315351 1
-0.450136 0.110519 0.815617 1249556 1
-0.490311 0.123911 0.815617 1710367 1
-0.476919 0.123911 0.815617 1512730 1
-0.463528 0.123911 0.815617 2302246 1
-0.450136 0.123911 0.815617 1315862 1
-0.460741 0.130719 0.860431 2499882 1
-0.488996 0.144846 0.860431 1052437 1
-0.480145 0.146456 0.869991 1249816 1
0.303050 0.119541 1.003836 2368556 1
0.319532 0.119541 1.003836 2697262 1
0.336014 0.119541 1.003836 2762542 1
0.371550 0.126003 1.058097 1841953 1
0.352496 0.136023 1.003836 1907746 1
0.383737 0.141464 1.043989 2368810 1
0.368978 0.152505 1.003836 3224118 1
0.395604 0.156519 1.030253 2631468 1
0.256911 0.113710 0.954868 2170409 1
0.263334 0.132623 0.978740 2236202 1
0.279404 0.132623 0.978740 2434092 1
0.299214 0.134302 0.991129 2302763 1
0.247264 0.148693 0.978740 2960436 1
0.263334 0.148693 0.978740 2170666 1
0.279404 0.148693 0.978740 1907494 1
0.295474 0.148693 0.978740 2170918 1
0.299214 0.166848 0.991129 1776160 1
0.200306 0.181970 0.984896 1907748 1
0.219235 0.184288 0.997442 2565678 1
0.234120 0.183122 0.991129 2631982 1
0.279404 0.180833 0.978740 1973030 1
0.295474 0.180833 0.978740 2762797 1
0.296708 0.172222 0.932133 2368296 1
0.216477 0.198141 0.984896 2960434 3
0.234120 0.199395 0.991129 5461080 3
0.263334 0.196903 0.978740 5197396 3
0.275954 0.194472 0.966657 4013122 3
0.291826 0.194472 0.966657 3026480 3
0.293218 0.185320 0.921167 4013886 3
-0.593328 0.081792 0.686835 1184022 1
-0.552948 0.077702 0.652493 1643547 1
-0.551425 0.079019 0.663553 1972512 1
-0.593328 0.093069 0.686835 1514270 1
-0.552948 0.088415 0.652493 1315096 1
-0.556138 0.090682 0.669224 1380375 1
0.286568 0.103059 1.003836 1578531 1
0.286568 0.119541 1.003836 2368556 1
0.204158 0.168987 1.003836 2368297 1
0.220640 0.168987 1.003836 2499631 1
0.237122 0.168987 1.003836 2302252 1
0.255240 0.170078 1.010312 2039334 1
0.270086 0.168987 1.003836 1907494 1
0.286568 0.168987 1.003836 1644322 1
0.253604 0.185469 1.003836 2237224 1
0.270086 0.185469 1.003836 2565424 1
-0.071481 0.171035 1.665941 1907746 1
-0.043209 0.167472 1.631234 1841695 1
-0.098834 0.198388 1.665941 2170409 1
-0.071481 0.198388 1.665941 1446943 1
-0.043209 0.194255 1.631234 1710880 1
-0.016425 0.194255 1.631234 1776159 1
0.416586 0.102319 1.186352 1118743 1
0.429556 0.100792 1.168645 1118743 1
0.448744 0.100792 1.168645 1775649 1
0.467932 0.100792 1.168645 985365 1
0.404334 0.118215 1.151459 2039845 1
0.423239 0.118215 1.151459 1645087 1
0.442145 0.118215 1.151459 1841442 1
0.461051 0.118215 1.151459 1840672 1
0.473001 0.116502 1.134771 1710367 1
0.491633 0.116502 1.134771 1513247 1
0.417106 0.135134 1.134771 2434603 1
0.442145 0.137121 1.151459 1973539 1
0.461051 0.137121 1.151459 2038819 1
0.473001 0.135134 1.134771 1841442 1
0.491633 0.135134 1.134771 1249305 1
0.429513 0.151569 1.118560 2499883 1
0.454369 0.153766 1.134771 1973539 1
0.473001 0.153766 1.134771 2104612 1
0.491633 0.153766 1.134771 2696751 1
0.201038 0.073403 0.851078 1512738 1
0.208222 0.071085 0.824202 1445918 1
0.206053 0.083736 0.815617 1643811 1
0.221755 0.084617 0.824202 1380639 1
0.206053 0.097127 0.815617 2433838 1
0.119991 0.116329 1.665941 1577754 1
0.147344 0.116329 1.665941 1445914 1
0.171057 0.113905 1.631234 1577502 1
0.174697 0.143682 1.665941 1446682 1
0.147344 0.171035 1.665941 2696749 1
0.171057 0.167472 1.631234 2039072 1
0.197841 0.167472 1.631234 1841440 1
0.147344 0.198388 1.665941 2368039 1
0.171057 0.194255 1.631234 2236453 1
0.010147 0.111581 1.597943 1380893 1
0.009749 0.132413 1.535279 1511709 1
0.035656 0.135061 1.565984 2366503 1
0.010147 0.164054 1.597943 1841953 1
0.010147 0.190290 1.597943 2697261 1
0.171282 0.209368 0.599994 8026235 3
0.180658 0.208819 0.598420 7893879 3
0.189758 0.208024 0.596141 8618370 3
0.199309 0.207776 0.595431 8947848 3
0.170628 0.218383 0.597704 8881544 3
0.180357 0.218280 0.597421 8288639 3
0.188638 0.216526 0.592623 8289407 3
0.194102 0.211869 0.579875 8947848 3
0.171119 0.228853 0.599423 8486786 3
0.188814 0.226468 0.593176 8947335 3
-0.040667 0.107205 1.535279 2302503 1
-0.015459 0.107205 1.535279 1710367 1
-0.041480 0.135061 1.565984 1052436 1
-0.015459 0.132413 1.535279 2367784 1
-0.015768 0.160773 1.565984 1380889 1
0.436065 0.063361 1.186352 2105638 1
0.455544 0.063361 1.186352 2104614 1
0.436065 0.082840 1.186352 1250329 1
0.455544 0.082840 1.186352 1775649 1
0.467932 0.081604 1.168645 1840421 1
0.473001 0.079238 1.134771 1644324 1
0.473001 0.097870 1.134771 1578529 1
0.491633 0.097870 1.134771 2565935 1
-0.390894 0.238721 0.894570 4999759 3
-0.350250 0.231280 0.866687 3947069 3
-0.336719 0.231761 0.868489 6710373 3
-0.323017 0.232162 0.869991 6776166 3
-0.308840 0.232243 0.870295 6380892 3
-0.388521 0.251871 0.889139 4670794 3
-0.368432 0.248172 0.876084 4604229 3
-0.349778 0.245179 0.865517 5591894 3
-0.328409 0.239950 0.847056 6184544 3
-0.317941 0.242574 0.856320 6315617 3
-0.307133 0.245170 0.865485 3749688 3
-0.393084 0.259836 0.867004 4868941 3
-0.380154 0.260731 0.869991 5855066 3
-0.365744 0.260641 0.869691 6117468 3
-0.343181 0.254498 0.849195 5657685 3
-0.327858 0.253431 0.845634 5723993 3
-0.317507 0.256283 0.855151 4408133 3
-0.300490 0.253770 0.846765 5526099 3
0.010808 0.062962 1.702157 1052439 1
0.038756 0.062962 1.702157 1512475 1
0.066704 0.062962 1.702157 1380375 1
0.094651 0.062962 1.702157 1906465 1
0.038756 0.090910 1.702157 1051158 1
0.185300 0.118028 0.991129 2565163 1
0.162843 0.129388 0.954868 2499623 1
0.162843 0.145066 0.954868 3025967 1
0.182984 0.180833 0.978740 2631468 1
0.152754 0.199395 0.991129 5065548 3
0.166914 0.196903 0.978740 3552563 3
0.182984 0.196903 0.978740 4013121 3
0.196597 0.194472 0.966657 4013124 3
-0.294394 0.223612 0.585695 3487029 3
-0.278448 0.218642 0.572678 3159091 3
-0.262659 0.213453 0.559086 7500404 3
-0.249349 0.209974 0.549974 5591378 3
-0.239258 0.209047 0.547547 5722712 3
-0.209869 0.225790 0.591400 5263951 3
-0.200877 0.226600 0.593522 5921629 3
-0.287851 0.228045 0.572678 4671816 3
-0.273165 0.223718 0.561813 5593432 3
-0.258961 0.219498 0.551214 5724504 3
-0.245894 0.215970 0.542355 6578273 3
-0.233751 0.213019 0.534944 5328724 3
-0.225057 0.213103 0.535156 7105395 3
-0.236367 0.232906 0.584885 5197908 3
-0.229290 0.235500 0.591400 6645606 3
-0.208549 0.223669 0.561690 7237741 3
-0.285760 0.235723 0.568519 5264467 3
-0.271219 0.231283 0.557810 4869963 3
-0.257151 0.226950 0.547360 7435120 3
-0.240837 0.220250 0.531200 8618883 3
-0.229623 0.217886 0.525498 8092541 3
-0.220995 0.217886 0.525498 6776940 3
-0.235003 0.241110 0.581510 8619142 3
-0.284370 0.243866 0.565753 5198674 3
-0.270608 0.239900 0.556553 5791322 3
-0.255939 0.234826 0.544782 6777958 3
0.303945 0.003964 0.954868 1840672 1
0.319623 0.003964 0.954868 1578272 1
0.335301 0.003964 0.954868 854545 1
0.355312 0.004013 0.966657 1052436 1
0.311544 0.020133 0.978740 2630442 1
-0.362578 0.235727 0.745707 5000779 3
-0.350334 0.235727 0.745707 4868682 3
-0.349712 0.243831 0.771340 3882048 3
-0.344515 0.249233 0.788430 3486518 3
-0.330323 0.248295 0.785464 4144446 3
-0.318625 0.249233 0.788430 4605510 3
-0.304529 0.248295 0.785464 5789784 3
-0.310160 0.236033 0.709807 4012862 3
-0.301236 0.238193 0.716301 5328720 3
-0.492885 0.207462 0.777431 2894894 3
-0.443359 0.208182 0.780128 2894640 3
-0.475557 0.212484 0.750099 2829099 3
-0.453252 0.207903 0.733926 2829099 3
-0.439905 0.207291 0.731768 2631468 3
-0.427890 0.207291 0.731768 2236710 3
-0.418573 0.208636 0.736514 5066063 3
-0.426059 0.218685 0.771990 4605769 3
-0.495948 0.228521 0.762516 3289139 3
-0.469565 0.221968 0.740649 4144700 3
-0.449043 0.217910 0.727110 3881785 3
-0.435832 0.217276 0.724993 4605512 3
-0.426652 0.218672 0.729651 3289652 3
-0.440985 0.232548 0.775951 5855577 3
-0.498393 0.225176 0.712328 3947582 3
-0.497259 0.235727 0.745707 5657689 3
-0.485016 0.235727 0.745707 5592403 3
-0.463743 0.231226 0.731466 5197645 3
-0.447736 0.229179 0.724993 3026478 3
-0.435832 0.229179 0.724993 3618617 3
-0.428033 0.231399 0.732013 4802891 3
-0.439876 0.244671 0.774000 4802891 3
-0.486697 0.236872 0.712328 5065809 3
-0.485167 0.241941 0.727572 5591896 3
-0.475950 0.243336 0.731768 4276545 3
-0.458083 0.240267 0.722537 2960683 3
-0.438133 0.235912 0.709443 2697513 3
-0.424416 0.234768 0.706002 3618617 3
-0.420770 0.239287 0.719592 4605510 3
-0.401315 0.234816 0.706147 4539719 3
-0.482804 0.246579 0.706629 3618363 3
-0.485167 0.253887 0.727572 2434090 3
-0.475950 0.255351 0.731768 4013375 3
-0.452441 0.249025 0.713639 3684408 3
-0.432961 0.244638 0.701068 5066063 3
-0.481157 0.263636 0.721559 3618364 3
-0.475950 0.267366 0.731768 3420984 3
-0.456366 0.213437 0.852260 1974051 3
-0.453311 0.218715 0.873333 1710879 3
-0.443151 0.220797 0.881648 3092273 3
-0.431858 0.222436 0.888193 2368548 3
-0.418012 0.222830 0.889764 3092269 3
-0.471606 0.228033 0.854518 3289911 3
-0.463977 0.231223 0.866473 3618874 3
-0.453514 0.233158 0.873724 4736844 3
-0.443923 0.235683 0.883184 4013375 3
-0.430177 0.236097 0.884737 3552820 3
-0.415651 0.236097 0.884737 6118747 3
-0.401267 0.236181 0.885051 4868943 3
-0.448597 0.237314 0.837751 4868943 3
-0.445309 0.243026 0.857917 6053217 3
-0.438217 0.246968 0.871831 4539976 3
-0.425371 0.247823 0.874852 5000779 3
-0.412594 0.248781 0.878231 5790295 3
-0.400562 0.250273 0.883498 5461078 3
-0.447675 0.243099 0.811157 4737355 3
-0.446939 0.250141 0.834655 5066322 3
-0.439696 0.253871 0.847102 5724252 3
-0.431748 0.257425 0.858962 5263699 3
-0.415233 0.255939 0.854001 4869193 3
-0.401478 0.256109 0.854570 5066572 3
-0.443233 0.253873 0.803109 4342599 3
-0.444570 0.262446 0.830230 4868943 3
-0.435854 0.265440 0.839700 3683899 3
-0.424475 0.266955 0.844493 3947580 3
0.173091 0.101350 0.851078 2302504 1
0.168261 0.121952 0.899991 2434090 1
0.171229 0.114084 0.841927 2828847 1
0.181157 0.111682 0.824202 2105127 1
0.192662 0.110519 0.815617 1183771 1
0.168261 0.136729 0.899991 2631468 1
0.173091 0.129298 0.851078 2828848 1
0.183084 0.126547 0.832970 2894643 1
0.194690 0.125215 0.824202 2433838 1
0.186757 0.184350 1.095094 2959658 1
0.187676 0.168987 1.003836 3026226 1
0.145702 0.195495 1.058097 2697775 1
0.163075 0.195495 1.058097 3157551 1
0.176863 0.191611 1.037076 2960426 1
0.209877 -0.011714 0.954868 1117719 1
0.222838 -0.011573 0.943364 1249303 1
0.238327 -0.011573 0.943364 1117719 1
0.253816 -0.011573 0.943364 986646 1
0.269305 -0.011573 0.943364 1775908 1
-0.469447 0.185920 0.588145 2235684 3
-0.430915 0.172430 0.518538 2499625 3
-0.432347 0.176490 0.530747 3354165 3
-0.445122 0.185443 0.557670 4012609 3
-0.455025 0.193550 0.582050 2565678 3
-0.455299 0.197822 0.594895 2105638 3
-0.441532 0.185402 0.531313 2236198 3
-0.430964 0.184612 0.529049 4012609 3
-0.428284 0.187238 0.536574 2960436 3
-0.436869 0.195003 0.558826 2960947 3
-0.441532 0.194126 0.531313 4078402 3
-0.430964 0.193298 0.529049 2697264 3
-0.428284 0.196048 0.536574 3289658 3
-0.383484 0.231059 0.694847 5000527 3
-0.371040 0.230416 0.692913 4934736 3
-0.357494 0.229026 0.688735 4341827 3
-0.345231 0.228395 0.686835 4671303 3
-0.333953 0.228395 0.686835 5592916 3
-0.322676 0.228395 0.686835 5131854 3
-0.317185 0.232638 0.699597 4671051 3
-0.378003 0.232097 0.665129 4276032 3
-0.355016 0.224468 0.643266 4539719 3
-0.340874 0.222135 0.636579 4473926 3
-0.328590 0.220903 0.633050 4539206 3
-0.317389 0.220343 0.631445 5131854 3
-0.307022 0.220343 0.631445 4079677 3
-0.305018 0.234760 0.672761 4342340 3
-0.303806 0.242614 0.695267 4539206 3
-0.388879 0.236353 0.646888 4934477 3
-0.365199 0.228193 0.624554 4670790 3
-0.349370 0.224610 0.614747 4144446 3
-0.337602 0.223501 0.611713 4144959 3
-0.325813 0.222310 0.608452 3684410 3
-0.315053 0.221769 0.606971 4933448 3
-0.305087 0.221769 0.606971 3750199 3
0.243362 0.021193 1.030253 986643 1
0.243362 0.038109 1.030253 1250075 1
0.253604 0.037131 1.003836 1577502 1
0.226446 0.055024 1.030253 1775649 1
0.237122 0.053613 1.003836 1446943 1
0.226446 0.071940 1.030253 1973541 1
-0.392573 0.224765 0.588716 2434603 3
-0.378771 0.228095 0.597438 4276547 3
-0.350402 0.216621 0.567386 3684408 3
-0.341086 0.216621 0.567386 2763308 3
-0.336839 0.219931 0.576054 2697513 3
-0.331311 0.222571 0.582970 5197645 3
-0.324153 0.224241 0.587343 3815994 3
-0.315244 0.224765 0.588716 3815994 3
-0.305578 0.224765 0.588716 2105376 3
-0.392091 0.218037 0.547547 4540228 3
-0.381272 0.216996 0.544933 5264467 3
-0.371513 0.216523 0.543745 5527641 3
-0.362585 0.216523 0.543745 4803151 3
-0.350327 0.214484 0.538624 3881536 3
-0.340007 0.213557 0.536296 4342340 3
-0.334364 0.215596 0.541417 4671303 3
-0.326874 0.216523 0.543745 2565929 3
-0.322597 0.219691 0.551698 3815994 3
-0.320310 0.224435 0.563613 4276545 3
-0.319564 0.230574 0.579030 2829099 3
-0.312892 0.232682 0.584322 3552822 3
-0.303298 0.232682 0.584322 4342338 3
-0.376302 0.217886 0.525498 4079418 3
-0.367674 0.217886 0.525498 5856858 3
-0.360714 0.218898 0.527939 4146501 3
-0.352785 0.219358 0.529049 2369579 3
-0.344099 0.219358 0.529049 3815742 3
-0.335413 0.219358 0.529049 4013375 3
-0.329803 0.221424 0.534031 2631720 3
-0.323925 0.223417 0.538839 2565927 3
-0.317261 0.224965 0.542573 5066063 3
-0.312011 0.227634 0.549010 6250337 3
-0.310382 0.233182 0.562391 3289650 3
-0.308464 0.238847 0.576054 3421236 3
-0.301051 0.240481 0.579994 3553335 3
-0.312011 0.236648 0.549010 5658457 3
-0.304317 0.237680 0.551403 4211011 3
-0.305790 0.246153 0.571059 4737609 3
-0.301051 0.250004 0.579994 5263699 3
0.234120 0.004115 0.991129 1512730 1
0.247264 0.004063 0.978740 1512477 1
0.260083 0.004013 0.966657 1578783 1
0.275954 0.004013 0.966657 1644322 1
0.291826 0.004013 0.966657 1380893 1
0.250394 0.020388 0.991129 1577500 1
0.263334 0.020133 0.978740 2236202 1
0.295474 0.020133 0.978740 1315100 1
0.247264 0.052273 0.978740 1840676 1
0.263334 0.052273 0.978740 1379870 1
0.231194 0.068343 0.978740 1446945 1
0.247264 0.068343 0.978740 1051160 1
0.263334 0.068343 0.978740 1774630 1
0.215124 0.084413 0.978740 1512990 1
0.260083 0.083371 0.966657 1578021 1
-0.445468 0.203107 0.582050 3355705 3
-0.445532 0.207589 0.594895 3224116 3
-0.434675 0.203153 0.556020 1710880 3
-0.437659 0.208935 0.571846 1184535 3
-0.437865 0.213616 0.584658 2960944 3
-0.433484 0.216219 0.591782 3487542 3
-0.463283 0.204752 0.536296 1908259 3
-0.452352 0.203794 0.533788 1578529 3
-0.440585 0.202414 0.530173 2499370 3
-0.432979 0.202930 0.531523 2499625 3
-0.429181 0.205287 0.537699 2763567 3
-0.422148 0.206164 0.539995 2566188 3
-0.425546 0.212282 0.556020 3026740 3
-0.428270 0.218325 0.571846 3947582 3
-0.426053 0.222063 0.581637 5526610 3
-0.418426 0.223088 0.584322 4540228 3
-0.408832 0.223088 0.584322 4672330 3
-0.401301 0.224241 0.587343 2566956 3
-0.448336 0.210671 0.529049 2763057 3
-0.439650 0.210671 0.529049 2696749 3
-0.430964 0.210671 0.529049 3354932 3
-0.422277 0.210671 0.529049 3553081 3
-0.417486 0.212655 0.534031 4013634 3
-0.412397 0.214570 0.538839 4079427 3
-0.406346 0.216057 0.542573 2960944 3
-0.400211 0.217564 0.546359 5066059 3
-0.439650 0.219358 0.529049 3881276 3
-0.428975 0.218346 0.526608 3881274 3
-0.421391 0.218898 0.527939 2960944 3
-0.411682 0.218346 0.526608 3751232 3
-0.409814 0.222018 0.535464 2764337 3
-0.471381 0.203425 0.643519 2631981 3
-0.491414 0.216932 0.686249 3289909 3
-0.454848 0.201958 0.607335 2566188 3
-0.452973 0.205634 0.618388 3750460 3
-0.462988 0.215000 0.646553 2763565 3
-0.480146 0.228200 0.686249 3289652 3
-0.444876 0.211930 0.607335 2829358 3
-0.447754 0.218192 0.625279 3684921 3
-0.465573 0.232199 0.665420 3553081 3
-0.417710 0.242467 0.694847 4737098 3
-0.400326 0.238902 0.684628 4210239 3
-0.433891 0.221385 0.605920 2830380 3
-0.432666 0.225940 0.618388 3355956 3
-0.461074 0.246561 0.674826 3553083 3
-0.441747 0.254579 0.696771 3421238 3
-0.420482 0.248767 0.680863 3750203 3
-0.416371 0.244408 0.640166 3552571 3
-0.575740 -1.493344 4.605836 1578270 1
-0.500117 -1.493344 4.605836 1907235 1
-0.575740 -1.417721 4.605836 1709856 1
