# .PCD v0.7
VERSION 0.7
FIELDS x y z rgb label
SIZE 4 4 4 4 4
TYPE F F F U U
COUNT 1 1 1 1 1
WIDTH 1294
HEIGHT 1
VIEWPOINT 0 0 0 1 0 0 0
POINTS 1294
DATA ascii
0.264833 0.181966 0.498032 8880776 3
0.271657 0.181064 0.495565 8618374 3
0.281019 0.181857 0.497735 7434868 3
0.256914 0.190334 0.498533 9209741 3
0.263521 0.189201 0.495565 9341327 3
0.271657 0.189201 0.495565 9473683 3
0.281019 0.190030 0.497735 8487299 3
-0.068627 0.200592 0.549010 7630959 3
-0.059873 0.201466 0.551403 8158330 3
-0.050820 0.201466 0.551403 6316641 3
-0.042176 0.203445 0.556818 8487297 3
-0.033180 0.204344 0.559280 8356222 3
-0.083377 0.201675 0.528238 8024687 3
-0.076776 0.207270 0.542891 7104356 3
-0.068776 0.210059 0.550198 7301992 3
-0.059873 0.210519 0.551403 7368555 3
-0.298154 0.216729 0.593176 3159091 3
-0.295912 0.224765 0.588716 3619644 3
-0.277751 0.218095 0.571245 3619646 3
-0.260797 0.211939 0.555122 7303025 3
-0.254542 0.214347 0.561428 5131602 3
-0.211002 0.227008 0.594591 5461332 3
-0.200760 0.226468 0.593176 6842985 3
-0.287130 0.227474 0.571245 4408390 3
-0.269912 0.221054 0.555122 5855838 3
-0.252992 0.214438 0.538509 6381923 3
-0.240371 0.211119 0.530173 6447716 3
-0.228017 0.207794 0.521823 5263442 3
-0.212112 0.227491 0.571288 6908778 3
-0.282328 0.232892 0.561690 5987422 3
-0.261834 0.223280 0.538509 5592153 3
-0.236008 0.242141 0.583997 8289916 3
-0.215299 0.230248 0.555314 7303536 3
-0.206181 0.230248 0.555314 7500915 3
-0.320826 0.218908 0.599141 3356470 3
-0.308627 0.217246 0.594591 4079679 3
-0.397365 0.227509 0.595902 3355441 3
-0.379007 0.222476 0.582720 4144446 3
-0.371513 0.223725 0.585990 4671303 3
-0.359872 0.222476 0.582720 2763308 3
-0.348666 0.221435 0.579994 2697772 3
-0.339143 0.221435 0.579994 2500136 3
-0.333027 0.223725 0.585990 4210752 3
-0.326603 0.225936 0.591782 4474435 3
-0.317632 0.226468 0.593176 4540228 3
-0.306301 0.225297 0.590110 1710616 3
-0.388344 0.221022 0.555041 4210239 3
-0.374111 0.218037 0.547547 4605251 3
-0.365121 0.218037 0.547547 4079164 3
-0.357855 0.219093 0.550198 4473924 3
-0.349585 0.219573 0.551403 5987163 3
-0.340531 0.219573 0.551403 5329235 3
-0.331478 0.219573 0.551403 2763565 3
-0.325591 0.221729 0.556818 4408133 3
-0.324275 0.227213 0.570589 4079166 3
-0.322671 0.232815 0.584658 3948089 3
-0.315244 0.234431 0.588716 3224366 3
-0.305578 0.234431 0.588716 3421747 3
-0.365645 0.221890 0.535156 5000007 3
-0.357618 0.222363 0.536296 2763817 3
-0.352143 0.224486 0.541417 4013371 3
-0.346387 0.226535 0.546359 4408131 3
-0.336536 0.225944 0.544933 2237221 3
-0.328446 0.226535 0.546359 3553083 3
-0.321720 0.228127 0.550198 5658457 3
-0.316449 0.230872 0.556818 5527125 3
-0.314906 0.236582 0.570589 2763815 3
-0.313071 0.242415 0.584658 3619894 3
-0.304010 0.242845 0.585695 2764587 3
-0.346387 0.235506 0.546359 4145470 3
-0.334943 0.233780 0.542355 4934734 3
-0.324620 0.232762 0.539995 2961461 3
-0.317261 0.233874 0.542573 3882048 3
-0.309019 0.234379 0.543745 6448227 3
-0.305985 0.238983 0.554425 4343617 3
-0.308701 0.248497 0.576497 5527891 3
-0.303298 0.251870 0.584322 5067342 3
0.361519 0.173099 0.496056 5263699 3
0.369297 0.172928 0.495565 4473926 3
0.354145 0.181639 0.497138 6579559 3
0.379125 0.178038 0.487280 5394515 3
0.386371 0.177690 0.486331 4868684 3
0.396051 0.178454 0.488420 3684410 3
0.146406 0.202223 0.579517 7631475 3
0.160059 0.207589 0.594895 7302512 3
0.138699 0.200592 0.549010 9144714 3
0.156922 0.213096 0.583235 8618372 3
0.171078 0.218958 0.599278 8946821 3
0.181090 0.219167 0.599851 8748929 3
0.190210 0.218331 0.597562 8158073 3
0.199356 0.217605 0.595573 8750471 3
0.108329 0.203359 0.532648 10395294 3
0.117626 0.204317 0.535156 9145229 3
0.127891 0.206707 0.541417 8815753 3
0.138029 0.208594 0.546359 9078921 3
0.157021 0.222814 0.583604 9078923 3
0.180943 0.228831 0.599365 10854816 3
0.176762 0.212012 0.555314 9341577 3
0.183038 0.208771 0.546823 9736851 3
0.107826 0.211119 0.530173 9211020 3
0.116827 0.211657 0.531523 8092541 3
0.126412 0.213103 0.535156 8223616 3
0.136781 0.215596 0.541417 8947335 3
0.146297 0.216523 0.543745 9013130 3
0.155971 0.217564 0.546359 9539472 3
0.165300 0.218037 0.547547 9407372 3
0.174290 0.218037 0.547547 9999507 3
0.182405 0.216996 0.544933 9473679 3
0.189137 0.214484 0.538624 9474192 3
0.107100 0.218346 0.526608 8619396 3
0.115503 0.217886 0.525498 8619142 3
0.124131 0.217886 0.525498 8487045 3
0.132759 0.217886 0.525498 9474192 3
0.141387 0.217886 0.525498 8816262 3
0.169548 0.220850 0.532648 8683395 3
0.178293 0.220850 0.532648 8026235 3
0.187919 0.221890 0.535156 8289920 3
0.052838 0.208466 0.597408 7829367 3
0.060197 0.200316 0.574051 7895160 3
0.052444 0.216650 0.592961 8224125 3
0.060197 0.209741 0.574051 8882055 3
0.067481 0.203291 0.556397 9079434 3
0.075564 0.200497 0.548752 8684676 3
0.052845 0.228114 0.597487 9408397 3
0.060343 0.219698 0.575445 8421502 3
0.067160 0.211414 0.553747 9079947 3
0.074683 0.207065 0.542355 9474192 3
0.083224 0.206164 0.539995 9276813 3
0.091229 0.204235 0.534944 8750469 3
0.099583 0.203359 0.532648 9408401 3
0.052716 0.237343 0.596028 9013639 3
0.058913 0.223716 0.561806 9342604 3
0.066408 0.218037 0.547547 8882055 3
0.074683 0.215970 0.542355 8882057 3
0.082833 0.214017 0.537452 7960953 3
0.091032 0.212558 0.533788 7697781 3
0.099583 0.212104 0.532648 9145227 3
0.074008 0.222842 0.537452 9407888 3
0.082654 0.222363 0.536296 9079436 3
0.090610 0.220297 0.531313 8355711 3
0.098910 0.219358 0.529049 9343119 3
0.091429 0.231090 0.536115 9605778 3
-0.106085 0.194140 0.556354 7236971 3
-0.122240 0.199819 0.546894 5855579 3
-0.111065 0.195946 0.536296 7697779 3
-0.101782 0.195030 0.533788 7302510 3
-0.115337 0.197007 0.516011 8026746 3
-0.106142 0.195675 0.512522 6381662 3
-0.143008 0.207984 0.596028 6053215 3
-0.129904 0.202804 0.581181 6645095 3
-0.119232 0.200901 0.575729 5066059 3
-0.192942 0.218908 0.599141 5000529 3
-0.181714 0.217246 0.594591 5987422 3
-0.170655 0.215608 0.590110 5921881 3
-0.160586 0.215099 0.588716 6052954 3
-0.150146 0.213995 0.585695 5132367 3
-0.135414 0.206207 0.564379 5855836 3
-0.190033 0.225297 0.590110 8158080 3
-0.179918 0.224765 0.588716 5460821 3
-0.170252 0.224765 0.588716 5658196 3
-0.159762 0.223612 0.585695 4934216 3
-0.144681 0.215474 0.564379 7105646 3
-0.130102 0.207021 0.542239 7105392 3
-0.198471 0.222710 0.559280 5856090 3
-0.190224 0.223811 0.562046 7435122 3
-0.183222 0.226563 0.568957 8487558 3
-0.174665 0.227587 0.571527 5329235 3
-0.165281 0.227587 0.571527 6381919 3
-0.152857 0.223148 0.560380 7763315 3
-0.139005 0.215924 0.542239 7763576 3
-0.128676 0.213557 0.536296 8158334 3
-0.114836 0.204587 0.513771 8158332 3
-0.194241 0.226950 0.547360 7369329 3
-0.187645 0.229880 0.554425 6908778 3
-0.180996 0.233039 0.562046 7303282 3
-0.173010 0.234724 0.566110 7040364 3
-0.162472 0.232943 0.561813 7763572 3
-0.148246 0.225341 0.543478 8355711 3
-0.174725 0.233874 0.542573 6975087 3
-0.168836 0.238132 0.552453 8224638 3
-0.162472 0.242167 0.561813 8158843 3
-0.386755 0.237471 0.680529 4342597 3
-0.358936 0.226946 0.650368 4606023 3
-0.343668 0.223956 0.641797 4869709 3
-0.333130 0.223956 0.641797 4342851 3
-0.326289 0.226522 0.649151 4211779 3
-0.330767 0.237385 0.680282 3620157 3
-0.343969 0.221137 0.605242 3553081 3
-0.332408 0.220063 0.602302 3355956 3
-0.307126 0.238855 0.653736 4211011 3
-0.455846 0.222135 0.636579 2895153 3
-0.472492 0.235650 0.675309 3355702 3
-0.476338 0.243277 0.697167 3618617 3
-0.466181 0.243952 0.699100 3815994 3
-0.454702 0.243952 0.699100 4407872 3
-0.444609 0.221769 0.606971 2961198 3
-0.434644 0.221769 0.606971 2237221 3
-0.438920 0.229206 0.627326 2829101 3
-0.461404 0.246737 0.675309 4342338 3
-0.459269 0.251643 0.688735 3355443 3
-0.446725 0.250949 0.686835 3355184 3
-0.442258 0.230509 0.603761 4540228 3
-0.433599 0.231178 0.605512 4539719 3
-0.424678 0.231735 0.606971 4736585 3
-0.416939 0.232979 0.610231 3486770 3
0.103821 0.184659 0.555314 9342093 3
0.113493 0.185566 0.558041 7302512 3
0.123536 0.186898 0.562046 8026494 3
0.140153 0.197299 0.593325 8223873 3
0.101176 0.188840 0.541166 7499889 3
0.109823 0.188432 0.539995 8552579 3
0.119830 0.190243 0.545187 7565686 3
0.131245 0.193882 0.555613 7763065 3
0.100481 0.196369 0.537452 9802644 3
0.109071 0.195946 0.536296 10394783 3
0.118435 0.196875 0.538839 9473683 3
0.128164 0.198240 0.542573 9210511 3
0.190962 0.189820 0.519527 9934745 3
0.194601 0.185166 0.506791 9541012 3
0.184565 0.191705 0.502124 9540498 3
0.069623 0.190890 0.574051 9276561 3
0.077744 0.187741 0.564579 9539987 3
0.085970 0.185490 0.557810 8750982 3
0.094703 0.184659 0.555314 8619396 3
0.068474 0.197010 0.564579 8421504 3
0.076441 0.193710 0.555122 8816262 3
0.084983 0.192412 0.551403 9737877 3
0.093138 0.190575 0.546138 9869463 3
0.083985 0.199102 0.544933 9079947 3
0.092290 0.197726 0.541166 9014154 3
0.060135 0.226092 0.679910 7631736 3
0.063303 0.200740 0.603673 9013389 3
0.037808 0.237255 0.679910 6710886 3
0.044857 0.217325 0.622795 7763576 3
0.026277 0.244992 0.670533 9079436 3
0.034270 0.225178 0.616300 8750469 3
0.043593 0.221137 0.605242 9671571 3
0.026465 0.257834 0.675331 9211022 3
0.034270 0.235297 0.616300 9671569 3
0.043824 0.232300 0.608452 9803155 3
0.014608 0.255483 0.641581 8027005 3
0.024151 0.245416 0.616300 8619142 3
0.034015 0.243589 0.611713 9342604 3
0.043593 0.241012 0.605242 7632499 3
-0.059873 0.183359 0.551403 4408644 3
-0.050820 0.183359 0.551403 5855836 3
-0.042176 0.185160 0.556818 5592407 3
-0.094960 0.190155 0.544933 7630961 3
-0.085825 0.189740 0.543745 9998996 3
-0.077267 0.190652 0.546359 8157305 3
-0.068445 0.191067 0.547547 8026487 3
-0.059742 0.191992 0.550198 7303021 3
-0.050820 0.192412 0.551403 7829880 3
-0.042176 0.194302 0.556818 9013641 3
-0.033180 0.195161 0.559280 8487295 3
-0.092819 0.194613 0.532648 7762032 3
-0.084469 0.195530 0.535156 8024688 3
-0.076568 0.197817 0.541417 8420216 3
-0.098223 0.196670 0.515126 7303021 3
-0.090174 0.197565 0.517472 7499373 3
-0.199926 0.217537 0.654183 5987422 3
-0.184094 0.211683 0.636579 5395285 3
-0.173642 0.211683 0.636579 4868682 3
-0.160519 0.208218 0.626159 5592918 3
-0.149101 0.206643 0.621422 5790043 3
-0.138898 0.206643 0.621422 7039853 3
-0.188831 0.215609 0.617879 4671562 3
-0.176903 0.213458 0.611713 3553335 3
-0.166859 0.213458 0.611713 5329233 3
-0.155157 0.211200 0.605242 6250848 3
-0.224396 0.231713 0.696815 6185055 3
-0.246506 0.242395 0.694640 5592407 3
-0.227042 0.234086 0.670828 5000270 3
-0.206576 0.223845 0.641479 4211011 3
-0.293026 0.220194 0.602660 4277574 3
-0.254725 0.250665 0.686059 5855579 3
-0.221010 0.227550 0.622795 5789786 3
-0.205353 0.221687 0.606748 5460819 3
-0.275019 0.259818 0.680529 6579300 3
-0.246721 0.242955 0.636360 5658198 3
-0.224672 0.231026 0.605116 5724504 3
-0.255239 0.241682 0.606925 7237230 3
-0.254376 0.250651 0.629447 5526612 3
-0.234607 0.240962 0.605116 5987676 3
-0.383414 0.245632 0.738672 4211265 3
-0.366559 0.242505 0.729267 4804429 3
-0.352506 0.241083 0.724993 5330775 3
-0.365820 0.258933 0.778670 5461848 3
-0.309668 0.265599 0.798718 3947580 3
-0.333745 0.247893 0.710395 3224116 3
-0.352210 0.271082 0.776850 4211011 3
-0.334752 0.277764 0.795997 6579302 3
-0.319623 0.275986 0.790901 6316130 3
-0.306541 0.275899 0.790653 6250337 3
-0.344790 0.277858 0.760484 5592407 3
-0.334208 0.290361 0.794704 4671305 3
-0.319725 0.289063 0.791152 3683897 3
-0.308194 0.290438 0.794916 4210500 3
-0.311035 0.271761 0.711811 6250337 3
0.307291 0.188495 0.596289 6973549 3
0.300427 0.193856 0.582970 8749960 3
0.310718 0.194306 0.584322 7630961 3
0.320312 0.194306 0.584322 7763061 3
0.329906 0.194306 0.584322 7105131 3
0.331087 0.189490 0.569841 8684678 3
0.312054 0.173689 0.522324 8816010 3
0.323733 0.175370 0.527379 6250597 3
0.333445 0.175926 0.529049 6580076 3
0.340411 0.175041 0.526389 6909807 3
0.345349 0.173183 0.520802 3947839 3
0.353532 0.173003 0.520261 3947582 3
0.361028 0.172503 0.518757 6118497 3
0.363233 0.169557 0.509896 5856353 3
0.370194 0.168913 0.507960 5000530 3
0.306585 0.195161 0.559280 5986652 3
0.314228 0.194210 0.556553 7829369 3
0.316526 0.190102 0.544782 7237489 3
0.321939 0.188039 0.538870 7698042 3
0.319696 0.181734 0.520802 8422280 3
0.327906 0.181545 0.520261 6580076 3
0.336172 0.181396 0.519834 6909294 3
0.338941 0.178362 0.511138 6975087 3
0.345080 0.177205 0.507823 7369075 3
0.352558 0.176774 0.506587 5592407 3
0.358415 0.175568 0.503132 3618876 3
0.303145 0.185393 0.507411 6975347 3
0.310035 0.184535 0.505065 8028037 3
0.316663 0.183570 0.502422 7501180 3
0.324586 0.183386 0.501918 6580331 3
0.334236 0.184162 0.504043 7304565 3
0.342165 0.183975 0.503532 6645352 3
0.350154 0.183829 0.503132 7631990 3
0.378641 0.189828 0.519550 7435122 3
0.303145 0.193724 0.507411 7369847 3
0.310035 0.192828 0.505065 7501690 3
0.316663 0.191819 0.502422 7633277 3
0.495462 0.160385 0.535164 4933711 3
0.466620 0.171489 0.542494 7039340 3
0.458037 0.165182 0.522540 6842474 3
0.491566 0.167842 0.530955 5723482 3
0.446181 0.175852 0.528827 6447205 3
0.448811 0.173512 0.521790 6776168 3
0.452288 0.171580 0.515982 6776681 3
0.457367 0.170317 0.512183 7631990 3
0.474017 0.173330 0.521244 8223616 3
0.488152 0.175333 0.527267 7499891 3
0.418652 0.176585 0.506046 4013375 3
0.425356 0.175922 0.504144 3750203 3
0.433544 0.175885 0.504039 5592407 3
0.441375 0.175708 0.503532 4342340 3
0.449642 0.175708 0.503532 5131343 3
0.457910 0.175708 0.503532 5395028 3
0.466177 0.175708 0.503532 5592407 3
0.430340 0.182800 0.500314 4605771 3
0.438554 0.182800 0.500314 5855068 3
0.446858 0.182836 0.500415 4670792 3
0.438554 0.191014 0.500314 4012864 3
0.446858 0.191053 0.500415 4999757 3
0.403152 0.207950 0.693876 4539206 3
0.413970 0.207662 0.692913 5920859 3
0.425584 0.207778 0.693300 5921118 3
0.440623 0.209516 0.699100 7500150 3
0.452102 0.209516 0.699100 6776938 3
0.474273 0.209169 0.697944 5987424 3
0.484375 0.208585 0.695993 6250597 3
0.408659 0.216229 0.684023 5066063 3
0.487588 0.209826 0.601306 5329233 3
0.211053 0.209516 0.699100 6184031 3
0.222531 0.209516 0.699100 7171437 3
0.240033 0.216083 0.683565 8224638 3
0.206371 0.205016 0.616529 8158845 3
0.215279 0.203865 0.613069 8750469 3
0.203715 0.212369 0.608594 8421763 3
0.213863 0.212524 0.609038 9013643 3
0.188096 0.209516 0.699100 6840934 3
0.199574 0.209516 0.699100 7893879 3
0.118205 0.219106 0.693125 7698294 3
0.150243 0.201061 0.636042 7565943 3
0.164417 0.205729 0.650808 8289920 3
0.178651 0.209898 0.663996 8618372 3
0.191045 0.211550 0.669224 8157305 3
0.194834 0.204012 0.645376 8684163 3
0.155852 0.205141 0.616906 8289918 3
0.170000 0.210108 0.631842 8684165 3
0.181726 0.211683 0.636579 8881028 3
0.191800 0.211266 0.635326 8552577 3
0.196248 0.205016 0.616529 7698292 3
0.171987 0.210230 0.602464 8091512 3
0.182532 0.210985 0.604627 7959926 3
0.192972 0.211547 0.606238 8684674 3
0.171735 0.229677 0.601580 8749956 3
0.005073 0.239447 0.798972 6381923 3
0.005073 0.252565 0.798972 7630961 3
0.018192 0.252565 0.798972 8026235 3
0.031092 0.250811 0.793423 6447714 3
0.043677 0.248295 0.785464 6908524 3
0.057595 0.252777 0.799641 7303284 3
0.005022 0.263000 0.790901 6644066 3
0.018008 0.263000 0.790901 5789275 3
0.030781 0.261192 0.785464 7303023 3
0.043540 0.260370 0.782992 6842731 3
0.056012 0.258597 0.777662 7697529 3
0.004972 0.273226 0.782992 7959926 3
0.017828 0.273226 0.782992 7763322 3
0.030475 0.271366 0.777662 7434611 3
0.004972 0.286082 0.782992 9408399 3
0.017587 0.282225 0.772437 9079183 3
0.017828 0.298938 0.782992 9737623 3
-0.191096 0.238691 0.796449 7237232 3
-0.192414 0.222985 0.705398 7105644 3
-0.183113 0.225798 0.714297 8224638 3
-0.180488 0.237791 0.752234 8355970 3
-0.176395 0.249470 0.789180 6908267 3
-0.217844 0.239343 0.798625 6908265 3
-0.202751 0.237028 0.790901 7171439 3
-0.257293 0.252565 0.798972 5921883 3
-0.239189 0.247408 0.782656 6184801 3
-0.210308 0.229885 0.727224 7369077 3
-0.292906 0.262331 0.788891 5395026 3
-0.262131 0.245632 0.738672 5526614 3
-0.242261 0.238025 0.715796 6250337 3
-0.273002 0.256578 0.735285 6052958 3
-0.297494 0.270078 0.707402 6052958 3
0.407209 0.204309 0.721240 7763065 3
0.414163 0.201926 0.712827 8223616 3
0.425260 0.201638 0.711811 8749188 3
0.437325 0.201812 0.712426 7302514 3
0.456285 0.205076 0.723949 7631479 3
0.468846 0.205372 0.724993 6776681 3
0.480612 0.205313 0.724784 6316128 3
0.490525 0.204485 0.721861 6645095 3
0.465010 0.210162 0.701255 6579300 3
0.277920 0.168914 0.596289 6381669 3
0.264724 0.176434 0.588716 4736844 3
0.274390 0.176434 0.588716 5394774 3
0.285535 0.177353 0.591782 8881803 3
0.299078 0.179651 0.599450 7960442 3
0.228841 0.173549 0.549010 7631988 3
0.243653 0.177779 0.562391 7631990 3
0.259030 0.182098 0.576054 8421765 3
0.271712 0.184284 0.582970 8224127 3
0.283394 0.185667 0.587343 9803159 3
0.295252 0.187070 0.591782 9013130 3
0.215480 0.194940 0.586230 8947850 3
0.212629 0.184136 0.553740 8684935 3
0.216686 0.179955 0.541166 8224638 3
0.225083 0.179565 0.539995 7763574 3
0.236199 0.181292 0.545187 7105646 3
0.251083 0.185679 0.558380 6974319 3
0.265181 0.189196 0.568957 5658200 3
0.277156 0.191012 0.574416 7303025 3
0.288706 0.192423 0.578661 8223614 3
0.206856 0.196379 0.562770 7960955 3
0.208791 0.189740 0.543745 7633017 3
0.214889 0.187274 0.536677 8883082 3
0.210562 0.176275 0.505156 8027259 3
0.219343 0.176667 0.506280 8289407 3
0.229516 0.178111 0.510417 10000538 3
0.240141 0.179791 0.515233 8816262 3
0.249369 0.180347 0.516826 7631990 3
0.258071 0.180498 0.517259 6578789 3
0.282495 0.191286 0.548174 7499893 3
0.297402 0.195161 0.559280 7499121 3
0.202881 0.185129 0.506689 8357253 3
0.210562 0.184569 0.505156 9145486 3
0.218856 0.184569 0.505156 8881544 3
0.228211 0.185431 0.507515 8223614 3
0.237745 0.186372 0.510093 8816262 3
0.246070 0.186335 0.509989 8882057 3
0.252544 0.184943 0.506181 9013130 3
0.258611 0.183353 0.501827 8684167 3
0.292335 0.183834 0.503145 7830396 3
0.200373 0.191056 0.500424 8949388 3
0.209212 0.191627 0.501918 8158845 3
0.217453 0.191627 0.501918 8618885 3
0.226193 0.192050 0.503028 8487299 3
0.234640 0.192204 0.503431 9276815 3
0.242176 0.191627 0.501918 8092798 3
0.250417 0.191627 0.501918 8487299 3
0.292335 0.192095 0.503145 8422533 3
0.227041 0.225293 0.795317 6446176 3
0.228229 0.214154 0.755996 7038570 3
0.234343 0.208549 0.736208 6776166 3
0.256952 0.217453 0.767639 7303536 3
0.275172 0.221983 0.783632 7369329 3
0.292749 0.225614 0.796449 6382180 3
0.243116 0.217669 0.726306 6053467 3
0.271993 0.232137 0.774580 7105903 3
0.292749 0.238691 0.796449 7500663 3
0.281625 0.242201 0.766185 6974060 3
0.148819 0.225486 0.795997 7171439 3
0.160852 0.224042 0.790901 6119010 3
0.172642 0.222502 0.785464 6710888 3
0.181252 0.217360 0.767313 6249824 3
0.187114 0.209807 0.740649 5985884 3
0.196885 0.207291 0.731768 7038059 3
0.140265 0.224844 0.750247 5197134 3
0.148825 0.219306 0.731768 5460567 3
0.156856 0.213873 0.713639 5197906 3
0.166626 0.211403 0.705398 7829369 3
0.177114 0.210106 0.701068 7631479 3
0.119132 0.244348 0.772977 6777192 3
-0.046748 0.223216 0.787986 7368557 3
-0.033596 0.221802 0.782992 7631475 3
-0.020884 0.223342 0.788430 6842472 3
-0.059686 0.236154 0.787986 5856090 3
-0.046452 0.234658 0.782992 5855318 3
-0.033596 0.234658 0.782992 5657685 3
-0.020884 0.236287 0.788430 5920857 3
-0.008020 0.238691 0.796449 8026235 3
-0.072624 0.249092 0.787986 5659227 3
-0.059308 0.247514 0.782992 4605512 3
-0.046136 0.245829 0.777662 7368814 3
-0.033492 0.246748 0.780569 6579302 3
-0.020740 0.247514 0.782992 4539208 3
-0.007995 0.250987 0.793978 7893881 3
-0.041678 0.233613 0.702527 8618883 3
-0.033390 0.258774 0.778194 3815481 3
-0.020740 0.260370 0.782992 5130575 3
-0.007939 0.262178 0.788430 6248543 3
-0.030144 0.245147 0.702527 8223612 3
-0.020613 0.271552 0.778194 9209739 3
-0.007884 0.273226 0.782992 9012103 3
-0.020491 0.282643 0.773581 8816264 3
-0.007884 0.286082 0.782992 8420993 3
-0.389260 0.234711 0.828563 5263953 3
-0.375781 0.234789 0.828839 5789786 3
-0.363978 0.235959 0.832970 5329235 3
-0.350301 0.235959 0.832970 4144961 3
-0.336625 0.235959 0.832970 5657685 3
-0.323729 0.236530 0.834984 6249308 3
-0.321013 0.244918 0.864594 6315617 3
-0.303776 0.242490 0.856023 3487031 3
-0.399302 0.246119 0.821236 4672843 3
-0.385184 0.245715 0.819887 4738123 3
-0.370391 0.244835 0.816951 5329746 3
-0.356395 0.244435 0.815617 5066574 3
-0.344238 0.245315 0.818553 5460819 3
-0.331337 0.245715 0.819887 5395026 3
-0.318300 0.246043 0.820983 6446687 3
-0.310618 0.250723 0.836598 5066063 3
-0.396699 0.257911 0.815884 4541259 3
-0.384812 0.258926 0.819095 4803918 3
-0.364684 0.254269 0.804362 4014400 3
-0.350912 0.253860 0.803069 3355956 3
-0.337726 0.253860 0.803069 3553335 3
-0.324645 0.253942 0.803328 5395026 3
-0.313061 0.255251 0.807470 5723991 3
-0.301259 0.256491 0.811391 5855577 3
-0.364097 0.267046 0.803069 4145472 3
-0.350912 0.267046 0.803069 4145472 3
-0.337726 0.267046 0.803069 4671816 3
-0.323402 0.266109 0.800252 4408131 3
-0.352721 0.281676 0.807208 5921629 3
-0.350912 0.293417 0.803069 7829369 3
-0.440835 0.207730 0.733315 1381914 3
-0.452165 0.219051 0.773282 3815742 3
-0.455170 0.215163 0.717943 4013373 3
-0.451263 0.218988 0.730705 3290163 3
-0.440835 0.219770 0.733315 4408644 3
-0.449065 0.230159 0.767980 3684410 3
-0.454383 0.239613 0.799525 5461332 3
-0.483169 0.229048 0.724577 5526101 3
-0.465750 0.226364 0.716086 5592146 3
-0.454773 0.226753 0.717316 5526610 3
-0.445033 0.227796 0.720617 2631720 3
-0.434204 0.228323 0.722284 4211265 3
-0.435327 0.235342 0.744486 3881789 3
-0.441360 0.245497 0.776611 4539976 3
-0.438711 0.251283 0.794916 3816507 3
-0.425795 0.251363 0.795169 4738123 3
-0.472008 0.235379 0.707839 5855066 3
-0.462970 0.236700 0.711811 5197134 3
-0.452829 0.237511 0.714251 3092269 3
-0.445033 0.239628 0.720617 3223857 3
-0.434204 0.240182 0.722284 4737609 3
-0.434928 0.247338 0.743804 4934477 3
-0.436245 0.255255 0.767610 4671562 3
-0.432131 0.260370 0.782992 5263953 3
-0.402959 0.250237 0.752522 4738123 3
-0.448764 0.247001 0.707839 3223855 3
-0.414836 0.247561 0.709443 4539719 3
0.555830 0.157420 0.589907 2893613 3
0.534247 0.157866 0.557290 3486518 3
0.545312 0.158422 0.559254 2302242 3
0.514119 0.163525 0.545639 5526103 3
0.525602 0.164314 0.548272 3025967 3
0.504242 0.169170 0.535156 5591896 3
0.637798 0.205729 0.770939 2500134 3
0.600989 0.218812 0.772437 5197649 3
0.636797 0.222460 0.785315 5855064 3
0.630829 0.216001 0.762516 3947582 3
0.620970 0.208488 0.735991 5395028 3
0.612007 0.201556 0.711522 4408390 3
0.613432 0.236287 0.788430 7631990 3
0.648672 0.239743 0.799959 7960442 3
0.653110 0.236592 0.789447 7236719 3
0.622935 0.221270 0.738320 6644584 3
0.602369 0.250014 0.790901 6052704 3
0.651901 0.249092 0.787986 7631477 3
0.603446 0.289488 0.792314 6184544 3
0.553386 0.202630 0.759326 4408133 3
0.587420 0.210353 0.788266 2763054 3
0.504704 0.205432 0.725203 5132115 3
0.520530 0.206990 0.730705 5790043 3
0.540449 0.210069 0.741574 5526871 3
0.570248 0.216768 0.765223 5066322 3
0.596346 0.221802 0.782992 6842220 3
0.575638 0.231500 0.772455 6513768 3
0.596346 0.234658 0.782992 6513255 3
0.527577 0.235420 0.707963 6579048 3
0.109153 0.240168 0.899991 7500661 3
0.122016 0.236457 0.886087 7763574 3
0.134555 0.232977 0.873046 7500402 3
0.146151 0.228692 0.856989 6842731 3
0.159117 0.227115 0.851078 6908524 3
0.171811 0.225436 0.844787 6447716 3
0.183699 0.223030 0.835769 6316128 3
0.195337 0.220674 0.826942 7236719 3
0.105515 0.246447 0.869991 6514538 3
0.118894 0.244585 0.863419 6974060 3
0.130650 0.240135 0.847709 6842474 3
0.139511 0.231735 0.818058 6316130 3
0.105515 0.260731 0.869991 5922401 3
0.118894 0.258761 0.863419 6053217 3
0.128772 0.250401 0.835524 4737098 3
0.136655 0.240147 0.801308 4868171 3
0.101025 0.263313 0.832970 6579048 3
0.114702 0.263313 0.832970 7566197 3
-0.213258 0.237185 0.888813 3618364 3
-0.292523 0.244835 0.864303 6184542 3
-0.281828 0.247910 0.875159 6842213 3
-0.268867 0.249216 0.879766 4473413 3
-0.243375 0.238394 0.841566 4736587 3
-0.223210 0.231804 0.818300 5526614 3
-0.209087 0.231044 0.815617 4605258 3
-0.292678 0.247172 0.824750 5197908 3
-0.282955 0.250554 0.836033 6316130 3
-0.269410 0.250723 0.836598 6184542 3
-0.251886 0.247008 0.824202 5460821 3
-0.236646 0.245239 0.818300 6776427 3
-0.288968 0.257409 0.814296 5855579 3
-0.272172 0.254209 0.804173 5131602 3
0.336214 0.174508 0.696815 7565943 3
0.344473 0.172911 0.690438 7565684 3
0.352407 0.171258 0.683836 7302512 3
0.363937 0.171400 0.684403 8026235 3
0.383352 0.175136 0.699322 4210243 3
0.393733 0.174647 0.697371 4538438 3
0.399062 0.172009 0.686835 4670025 3
0.315911 0.180875 0.677802 7434357 3
0.302236 0.167157 0.626394 6579048 3
0.316014 0.169025 0.633396 7236719 3
0.333268 0.172574 0.646696 7631477 3
0.354446 0.177874 0.666554 8618372 3
0.378438 0.184226 0.690357 9934234 3
0.303728 0.172450 0.608772 4473413 3
0.318680 0.175174 0.618388 6052445 3
0.335987 0.178985 0.631842 6972777 3
0.377648 0.195153 0.688916 7038570 3
0.312044 0.181468 0.605512 5394515 3
0.326256 0.183875 0.613542 6380894 3
0.343756 0.187935 0.627089 5064780 3
0.321222 0.190956 0.604075 8289405 3
0.332727 0.191871 0.606971 9407886 3
0.345406 0.193390 0.611775 6315615 3
0.391323 0.191285 0.605116 4803918 3
-0.112501 0.225391 0.899991 5461078 3
-0.193400 0.230900 0.865261 4474185 3
-0.112501 0.240168 0.899991 6250594 3
-0.194308 0.229406 0.809836 5197395 3
-0.183036 0.231971 0.818892 5658457 3
-0.182971 0.250274 0.883502 5855836 3
-0.124824 0.250029 0.882636 6777192 3
-0.105569 0.239237 0.844539 7435122 3
-0.179849 0.241144 0.804634 6711145 3
-0.170839 0.247223 0.824920 5921629 3
-0.326646 0.241703 0.965125 5526351 3
-0.396727 0.251742 0.943364 5262929 3
-0.381237 0.251742 0.943364 3881274 3
-0.375178 0.258232 0.967685 6380381 3
-0.366556 0.263455 0.987258 5855066 3
-0.351721 0.264489 0.991129 5723993 3
-0.333411 0.262883 0.985112 5328974 3
-0.479723 0.264986 1.058097 2631468 3
-0.449966 0.257889 1.029756 3354934 3
-0.427640 0.254662 1.016873 6052445 3
-0.410944 0.254662 1.016873 4472897 3
-0.405237 0.261760 1.045215 3946299 3
-0.479693 0.272474 1.021054 5526612 3
-0.456969 0.268967 1.007910 5657946 3
0.609421 0.200199 0.855487 5197395 3
0.631476 0.207641 0.829117 5197138 3
0.651772 0.209792 0.837706 5262929 3
0.668879 0.210849 0.841927 3289137 3
0.685240 0.211633 0.845056 4144446 3
0.612850 0.214729 0.804662 2368039 3
0.645089 0.221255 0.829117 3157553 3
0.667761 0.224298 0.840520 1710105 3
0.682703 0.224673 0.841927 2697000 3
0.640755 0.228469 0.806526 4736583 3
0.644173 0.243000 0.810829 6710375 3
0.640241 0.260125 0.822886 7236719 3
0.664862 0.264546 0.836871 6052443 3
0.655370 0.255488 0.808219 6052443 3
0.301254 0.210614 0.899991 7633017 3
0.316031 0.210614 0.899991 6382180 3
0.316135 0.201272 0.860072 6579302 3
0.305775 0.208335 0.831886 7632501 3
0.313186 0.204260 0.815617 6908013 3
0.326578 0.204260 0.815617 6973806 3
0.339969 0.204260 0.815617 6909296 3
0.353361 0.204260 0.815617 6317159 3
0.366753 0.204260 0.815617 4737357 3
0.301282 0.218732 0.819662 7829880 3
0.313186 0.217652 0.815617 6973806 3
0.326578 0.217652 0.815617 5921372 3
0.342430 0.219227 0.821519 6250594 3
0.354523 0.218368 0.818300 6448745 3
0.308969 0.227933 0.804634 5987165 3
0.327889 0.231971 0.818892 6118751 3
0.251035 0.205787 0.879366 8092541 3
0.266747 0.206775 0.883585 7566708 3
0.285460 0.209866 0.896795 7106671 3
0.222760 0.220821 0.881745 8354433 3
0.230005 0.214090 0.854866 7105135 3
0.239464 0.210074 0.838832 7763576 3
0.253157 0.210008 0.838569 7369075 3
0.272204 0.214161 0.855151 7304050 3
0.283342 0.211989 0.846478 8290177 3
0.295945 0.211065 0.842789 6842985 3
0.208574 0.220315 0.825594 6841194 3
0.227596 0.225736 0.845912 6841193 3
0.238188 0.222654 0.834362 7828086 3
0.252476 0.223175 0.836314 8420993 3
0.267995 0.224673 0.841927 6842472 3
0.280782 0.223847 0.838832 5987422 3
0.292889 0.222581 0.834087 5856090 3
0.005624 0.207267 0.885690 8947848 3
0.005654 0.222990 0.890403 6842731 3
0.005233 0.219943 0.824202 7895419 3
0.019975 0.234111 0.877294 6777192 3
0.048377 0.232162 0.869991 7041389 3
0.064147 0.237666 0.890616 6515045 3
0.079600 0.240168 0.899991 7303536 3
0.094376 0.240168 0.899991 7829369 3
0.005126 0.228662 0.807208 7763576 3
0.018379 0.228662 0.807208 6250848 3
0.031859 0.230299 0.812989 6448995 3
0.045354 0.231044 0.815617 6712428 3
0.061438 0.241633 0.852999 6909294 3
0.076946 0.246447 0.869991 6974317 3
0.091231 0.246447 0.869991 5921118 3
0.018321 0.241144 0.804634 6908265 3
0.031411 0.240218 0.801546 6974571 3
0.044743 0.241144 0.804634 6909296 3
0.058981 0.245417 0.818892 6382182 3
0.075681 0.256443 0.855682 6184290 3
0.091231 0.260731 0.869991 6052704 3
0.072427 0.258862 0.818892 7368564 3
0.087061 0.262446 0.830230 6381669 3
-0.082917 0.210539 0.899669 4737609 3
-0.067254 0.207784 0.887897 5921629 3
-0.052488 0.207044 0.884737 5526614 3
-0.038110 0.207853 0.888193 8158332 3
-0.023477 0.207412 0.886308 8618885 3
-0.008909 0.207044 0.884737 8816264 3
-0.097724 0.225391 0.899991 6579813 3
-0.082947 0.225391 0.899991 6119262 3
-0.067376 0.222764 0.889504 7435122 3
-0.052488 0.221571 0.884737 6184542 3
-0.038110 0.222436 0.888193 7631475 3
-0.023477 0.221964 0.886308 6908778 3
-0.008912 0.221649 0.885051 7763833 3
-0.097269 0.239050 0.895802 6974571 3
-0.076720 0.222137 0.832422 6514020 3
-0.062429 0.219943 0.824202 6514020 3
-0.050375 0.226590 0.849109 6184283 3
-0.036109 0.224573 0.841552 7960440 3
-0.022064 0.222283 0.832970 7368816 3
-0.008327 0.220674 0.826942 7303282 3
-0.089151 0.232580 0.821040 7435122 3
-0.074638 0.229406 0.809836 7237743 3
-0.060713 0.227058 0.801546 7764087 3
-0.008077 0.227218 0.802112 6908267 3
-0.090407 0.249528 0.832609 5856090 3
-0.074116 0.241006 0.804173 4803402 3
-0.090538 0.263578 0.833810 7040878 3
-0.484240 0.269462 1.151459 3946301 3
-0.470109 0.272227 1.163274 2959404 3
-0.453091 0.273484 1.168645 2631211 3
-0.433903 0.273484 1.168645 4012862 3
-0.414715 0.273484 1.168645 3881787 3
-0.580598 0.261763 1.118560 4078657 3
-0.573601 0.267056 1.141178 2499623 3
-0.559863 0.269462 1.151459 2236451 3
-0.540957 0.269462 1.151459 3157551 3
-0.522051 0.269462 1.151459 3617851 3
-0.503146 0.269462 1.151459 3091507 3
-0.536207 0.276183 1.102806 2433314 3
-0.553435 0.241865 1.033534 2763308 3
-0.528416 0.254951 1.018027 1644573 3
-0.542918 0.270505 1.080133 1841693 3
-0.503660 0.268485 1.072069 2960685 3
-0.509754 0.270633 1.014155 4473926 3
-0.500930 0.274929 1.030253 3157551 3
-0.488996 0.201356 0.860431 2697515 3
-0.471042 0.207572 0.828839 2828588 3
-0.459714 0.208606 0.832970 2368550 3
-0.472310 0.215548 0.807734 2104612 3
-0.465196 0.218435 0.818553 2105378 3
-0.452200 0.218650 0.819356 3289650 3
-0.438523 0.218538 0.818937 3816253 3
-0.460572 0.229570 0.810415 5395026 3
-0.448246 0.230073 0.812191 4671816 3
-0.431026 0.228019 0.804938 6316387 3
-0.463834 0.253136 0.893606 6448227 3
-0.432537 0.243767 0.860532 4408644 3
-0.404873 0.235881 0.832695 5658711 3
-0.445353 0.241838 0.806950 3816505 3
-0.430025 0.240675 0.803069 4277572 3
-0.420225 0.242629 0.809591 4671816 3
-0.414277 0.247008 0.824202 5527893 3
-0.416721 0.253788 0.802840 4409158 3
-0.411974 0.259092 0.819620 3883327 3
0.628902 0.165416 0.760186 2960685 1
0.600569 0.154889 0.711811 2894892 1
0.606740 0.153494 0.705398 2960944 1
0.617837 0.185831 0.794090 4144446 3
0.641289 0.185074 0.790854 4276547 3
0.610812 0.172780 0.738320 3158064 3
0.604044 0.167540 0.715930 4802889 3
0.608464 0.165545 0.707402 3026991 3
0.635048 0.192239 0.767615 2961198 3
0.609619 0.180950 0.722537 3882300 3
0.607085 0.176758 0.705799 5329746 3
0.615297 0.194609 0.729267 3026737 3
0.609310 0.189037 0.708386 2632233 3
0.570634 0.170378 0.782992 3552573 3
0.592375 0.172973 0.794916 2302504 3
0.507191 0.178993 0.764867 3092010 3
0.539531 0.185805 0.793978 3947067 3
0.595832 0.187110 0.799554 5328981 3
0.511967 0.184231 0.735639 2631722 3
0.531575 0.186878 0.746209 2302757 3
0.562201 0.193192 0.771421 3158066 3
0.511967 0.196310 0.735639 5197395 3
0.530589 0.198761 0.744825 5921629 3
0.454930 0.170378 0.782992 5591896 3
0.467786 0.170378 0.782992 4670539 3
0.480642 0.170378 0.782992 4999506 3
0.493498 0.170378 0.782992 5920606 3
0.400523 0.166012 0.709397 2960174 3
0.409963 0.165122 0.705598 4670792 3
0.423336 0.165823 0.708590 3288888 3
0.435600 0.166063 0.709615 4144199 3
0.456943 0.169661 0.724993 5394262 3
0.468846 0.169661 0.724993 4144446 3
0.441643 0.175486 0.700718 2696235 3
0.468846 0.181565 0.724993 3551541 3
0.485405 0.183323 0.732013 2631461 3
0.499592 0.184122 0.735204 2631207 3
0.408124 0.187448 0.702433 7630709 3
0.423104 0.188988 0.708202 8222334 3
0.441471 0.191917 0.719181 7104366 3
0.461079 0.195220 0.731556 6051678 3
0.471303 0.194482 0.728792 4670792 3
0.487521 0.196193 0.735204 5328974 3
0.499592 0.196193 0.735204 6052958 3
0.212468 0.210343 0.966657 6118497 3
0.222838 0.205275 0.943364 7434357 3
0.235489 0.202831 0.932133 6842220 3
0.253816 0.205275 0.943364 5262676 3
0.269305 0.205275 0.943364 4605512 3
0.288267 0.207778 0.954868 5329233 3
0.208948 0.222467 0.950643 7894651 3
0.221014 0.218957 0.935643 7170158 3
0.233585 0.216371 0.924594 5921118 3
0.243927 0.212162 0.906609 7368307 3
0.202376 0.230587 0.920740 6644580 3
0.215064 0.228012 0.910456 7696500 3
0.152754 0.215668 0.991129 7040110 3
0.166914 0.212973 0.978740 6316389 3
0.182984 0.212973 0.978740 5198160 3
0.196597 0.210343 0.966657 5395287 3
0.102634 0.229043 0.978740 7697270 3
0.119737 0.231036 0.987258 6316128 3
0.136480 0.231942 0.991129 5592918 3
0.151441 0.229949 0.982612 5461078 3
0.166914 0.229043 0.978740 6447975 3
0.181431 0.227098 0.970433 6645093 3
0.196597 0.226215 0.966657 7105392 3
0.101367 0.242086 0.966657 4144959 3
0.117239 0.242086 0.966657 5592664 3
0.133110 0.242086 0.966657 5395539 3
0.147733 0.240057 0.958552 5789784 3
0.162843 0.239134 0.954868 7171696 3
0.177042 0.237153 0.946959 5921629 3
0.191859 0.236253 0.943364 7171439 3
0.020974 0.200445 0.921167 7631988 3
0.038596 0.214312 0.984896 7368816 3
0.020581 0.211528 0.903896 7105642 3
0.035981 0.214866 0.918161 6908776 3
0.052689 0.221739 0.947532 5790295 3
0.020507 0.225555 0.900645 8158845 3
0.035679 0.228012 0.910456 7172716 3
0.050782 0.228707 0.913232 6514788 3
0.070099 0.243738 0.973253 6120541 3
0.035775 0.243618 0.912918 7106925 3
-0.190191 0.217042 0.997442 3881276 3
-0.157437 0.217042 0.997442 4145220 3
-0.138415 0.212973 0.978740 3882818 3
-0.119361 0.207778 0.954868 4474955 3
-0.100023 0.200445 0.921167 3947839 3
-0.187886 0.230591 0.985358 5131856 3
-0.138415 0.229043 0.978740 4343627 3
-0.118339 0.221544 0.946698 4935506 3
-0.194564 0.235280 0.939480 5197906 3
-0.127740 0.226210 0.903261 4277323 3
-0.193846 0.249780 0.936011 5263699 3
-0.173604 0.242960 0.910456 4802889 3
-0.158655 0.242960 0.910456 6645606 3
-0.143707 0.242960 0.910456 5790297 3
-0.127740 0.241040 0.903261 6382952 3
-0.173604 0.257909 0.910456 6381919 3
-0.158655 0.257909 0.910456 6645091 3
-0.143707 0.257909 0.910456 5790297 3
-0.270354 0.215668 0.991129 3289141 3
-0.254080 0.215668 0.991129 4407622 3
-0.236311 0.214312 0.984896 5065810 3
-0.222945 0.217042 0.997442 4276293 3
-0.205260 0.215668 0.991129 3881787 3
-0.284824 0.230483 0.984896 3880255 3
-0.268653 0.230483 0.984896 4999759 3
-0.250326 0.228515 0.976484 5262931 3
-0.233653 0.227890 0.973815 5065552 3
-0.221534 0.231942 0.991129 5197395 3
-0.202631 0.228970 0.978432 5723991 3
-0.292446 0.227430 0.908132 3617327 3
-0.283044 0.245112 0.978740 4801610 3
-0.263596 0.242011 0.966356 5460310 3
-0.245070 0.239413 0.955980 5986912 3
-0.226346 0.236253 0.943364 5131603 3
-0.210857 0.236253 0.943364 4539465 3
-0.289857 0.240195 0.900091 4932933 3
-0.299114 0.261182 0.978740 6183002 3
-0.282613 0.260784 0.977248 5722712 3
-0.258209 0.252607 0.946606 5065550 3
-0.239404 0.249211 0.933878 5065810 3
0.584117 0.134061 0.666376 3486778 1
0.595058 0.134061 0.666376 1578783 1
0.584117 0.145003 0.666376 2499882 1
0.595058 0.145003 0.666376 2763057 1
0.580547 0.152141 0.650126 2631469 3
0.599634 0.154306 0.659376 3420472 3
0.567221 0.162058 0.647101 4605258 3
0.577996 0.162100 0.647269 5197398 3
0.574341 0.174850 0.655223 4144708 3
0.575248 0.171906 0.644192 2236459 3
0.596522 0.192777 0.680529 4210501 3
0.521848 0.195519 0.618509 6052447 3
-0.294072 0.204574 1.016873 2828847 3
-0.275586 0.203254 1.010312 4210500 3
-0.258998 0.203254 1.010312 2894641 3
-0.240856 0.201951 1.003836 2697262 3
-0.227288 0.204574 1.016873 4407880 3
-0.294072 0.221270 1.016873 3815230 3
-0.200444 0.263263 1.051215 3684667 3
-0.343058 0.214316 1.065295 4079425 3
-0.319055 0.210029 1.043989 3750203 3
-0.339813 0.246940 1.055219 4670272 3
-0.392858 0.264986 1.058097 3354932 3
-0.382656 0.270047 1.078304 5658198 3
-0.313873 0.257207 1.027033 5459279 3
-0.373244 0.221862 1.102806 3750714 3
-0.370805 0.250556 1.151459 3815994 3
-0.351899 0.250556 1.151459 3749690 3
-0.393039 0.271763 1.161292 4934473 3
-0.339292 0.259808 1.110206 3748920 3
-0.695292 0.246128 1.223425 1973792 3
-0.696985 0.254068 1.262890 1973790 3
-0.676250 0.254068 1.262890 2039585 3
-0.666260 0.258233 1.283594 2697262 3
-0.695292 0.266216 1.223425 2960687 3
-0.675204 0.266216 1.223425 3092271 3
-0.645038 0.262120 1.204603 3355445 3
-0.625260 0.262120 1.204603 3025969 3
-0.605481 0.262120 1.204603 2302246 3
-1.493842 0.335153 1.665941 1774881 1
-1.466489 0.335153 1.665941 1380123 1
-1.439136 0.335153 1.665941 1710369 3
-1.493842 0.362507 1.665941 854547 3
-1.435937 0.354954 1.631234 1906465 3
-1.409154 0.354954 1.631234 1644061 3
-1.435937 0.381738 1.631234 2367270 3
-1.409154 0.381738 1.631234 3025969 3
0.712925 0.128592 0.695993 2170407 1
0.703545 0.138177 0.686835 1841442 1
0.717971 0.138786 0.689861 1249305 1
0.729298 0.138786 0.689861 2169639 1
0.750544 0.140645 0.699100 853777 1
0.742143 0.136976 0.680863 1314581 1
0.759931 0.138177 0.686835 854545 1
0.748236 0.134061 0.666376 1512477 1
0.711700 0.148802 0.683836 3420987 1
0.722928 0.148802 0.683836 2827821 1
0.730964 0.148155 0.680863 3419957 1
0.742143 0.148155 0.680863 2169890 1
0.746828 0.146878 0.674993 1248789 1
0.751433 0.145622 0.669224 919570 1
0.759177 0.145003 0.666376 2301995 1
0.757229 0.142576 0.655223 1380893 1
0.767987 0.142576 0.655223 1184023 1
0.762787 0.139654 0.641797 1315096 1
0.775069 0.159208 0.680326 2498604 1
0.751770 0.152228 0.650500 1643295 1
0.751891 0.150120 0.641491 1249303 1
0.756586 0.148971 0.636579 2039074 1
0.783713 0.152209 0.650418 1841440 1
0.772842 0.162848 0.650257 1315098 1
0.781578 0.162445 0.648646 2170407 1
0.703000 0.174297 0.943364 1907235 1
0.718489 0.174297 0.943364 2302504 1
0.752101 0.178600 0.966657 2105124 1
0.767972 0.178600 0.966657 3157812 1
0.793642 0.180833 0.978740 2697004 1
0.718489 0.189786 0.943364 2894640 1
0.733978 0.189786 0.943364 3421238 1
0.767972 0.194472 0.966657 2697004 1
0.793642 0.196903 0.978740 3025969 1
0.612272 0.162546 0.879766 1117978 1
0.606280 0.171220 0.851078 2763055 1
0.610304 0.168473 0.837425 2959923 1
0.644740 0.174058 0.865185 2894128 1
0.602124 0.188263 0.865185 5592154 3
0.606280 0.185194 0.851078 3618363 3
0.641232 0.183202 0.841927 2434089 3
0.629261 0.193348 0.826209 2894381 3
0.668879 0.197026 0.841927 3355445 3
0.590011 0.164393 0.889764 1710107 1
0.597827 0.162546 0.879766 1578268 1
0.583382 0.176991 0.879766 4407618 1
0.591184 0.175025 0.869991 3881278 1
0.598815 0.173101 0.860431 3749952 1
0.568937 0.191436 0.879766 5591892 3
0.583382 0.191436 0.879766 5000009 3
0.597827 0.191436 0.879766 5328722 3
0.587723 0.197626 0.844493 3684156 3
0.592115 0.190132 0.812467 5460568 3
0.349810 0.133950 0.724993 1644324 1
0.335868 0.155962 0.775240 4605518 3
0.348597 0.155962 0.775240 4802899 3
0.345913 0.149310 0.742173 5065558 3
0.328011 0.171234 0.786927 4934736 3
0.332575 0.167037 0.767639 3158840 3
0.336921 0.163041 0.749275 3618877 3
0.345913 0.161496 0.742173 3552573 3
0.349810 0.157757 0.724993 3486778 3
0.327105 0.176687 0.755014 5461850 3
0.332571 0.173080 0.739601 4672334 3
0.342368 0.171901 0.734566 4210500 3
0.347603 0.168591 0.720420 4078914 3
0.357270 0.167577 0.716086 2170660 3
0.367347 0.166814 0.712827 3025969 3
0.378619 0.166624 0.712014 2631471 3
0.391869 0.167289 0.714858 3223606 3
0.348597 0.187309 0.747931 7171185 3
0.399843 0.188985 0.708193 7170158 3
0.247264 0.180833 0.978740 2631211 1
0.263334 0.180833 0.978740 3092019 1
0.279404 0.180833 0.978740 2960176 1
0.212468 0.194472 0.966657 2829361 3
0.225555 0.192100 0.954868 3750462 3
0.238327 0.189786 0.943364 4341829 3
0.256911 0.192100 0.954868 5394262 3
0.272589 0.192100 0.954868 4407879 3
0.295474 0.196903 0.978740 3092273 3
0.149749 0.200925 1.087489 2829101 1
0.109477 0.210029 1.043989 6774888 3
0.126618 0.210029 1.043989 4077887 3
0.141868 0.207266 1.030253 5065550 3
0.154712 0.201951 1.003836 4934477 3
0.105266 0.218433 1.003836 6051677 3
0.121748 0.218433 1.003836 6249824 3
0.138230 0.218433 1.003836 5592405 3
0.078875 0.202330 1.095094 2565418 1
0.040373 0.207266 1.030253 4737098 3
0.057668 0.208639 1.037076 4934223 3
0.076729 0.214316 1.065295 5855579 3
0.094865 0.215784 1.072592 5591126 3
0.056545 0.221270 1.016873 4803148 3
0.075699 0.228695 1.050996 5856090 3
0.092955 0.228695 1.050996 5986652 3
0.073414 0.238529 1.019278 5856858 3
0.091975 0.243358 1.039911 5855577 3
0.089116 0.252336 1.007584 5461330 3
0.005849 0.170195 0.921167 2696232 1
0.022285 0.180833 0.978740 2368037 1
0.005781 0.183165 0.910456 3749690 3
0.020974 0.185320 0.921167 5920857 3
0.005781 0.198114 0.910456 7565684 3
-0.782620 0.206666 1.118560 1315872 3
-0.775331 0.209661 1.134771 1645351 3
-0.767827 0.212744 1.151459 592145 3
-0.738067 0.209661 1.134771 1118230 3
-0.730015 0.212744 1.151459 1380375 3
-0.711110 0.212744 1.151459 1643547 3
-0.786733 0.231650 1.151459 1382433 3
-0.767827 0.231650 1.151459 1250075 3
-0.727524 0.225032 1.118560 2959921 3
-0.709158 0.225032 1.118560 2301991 3
-0.711110 0.231650 1.151459 3354679 3
-0.713180 0.238670 1.186352 2302504 3
-0.779287 0.254296 1.168645 1579294 3
-0.727524 0.243397 1.118560 2697004 3
-0.709158 0.243397 1.118560 1973281 3
-0.700804 0.246925 1.134771 1973538 3
-0.798475 0.273484 1.168645 2698289 3
-0.756326 0.265426 1.134212 3092532 3
-0.727524 0.261763 1.118560 3223344 3
-0.709158 0.261763 1.118560 2368550 3
-0.868490 0.209661 1.134771 1842466 3
-0.849858 0.209661 1.134771 921878 3
-0.819352 0.206666 1.118560 1053979 3
-0.800986 0.206666 1.118560 1446943 3
-0.862356 0.231650 1.151459 1777699 3
-0.843450 0.231650 1.151459 2303531 3
-0.824544 0.231650 1.151459 2236713 3
-0.805639 0.231650 1.151459 1447456 3
-0.875227 0.254296 1.168645 1119512 3
-0.843450 0.250556 1.151459 1579294 3
-0.836851 0.254296 1.168645 1907233 3
-0.817663 0.254296 1.168645 1315868 3
-0.810573 0.258149 1.186352 1974568 3
-0.874794 0.273348 1.168067 2368810 3
0.617373 0.110301 0.655223 2893613 1
0.625221 0.122598 0.663553 2433063 1
0.638823 0.123120 0.666376 1444885 1
0.652541 0.123646 0.669224 1905952 1
0.663529 0.123646 0.669224 2103844 1
0.686248 0.125797 0.680863 1709856 1
0.608589 0.134634 0.669224 1973541 1
0.622236 0.135212 0.672096 2038819 1
0.630565 0.134634 0.669224 2104098 1
0.641553 0.134634 0.669224 2169378 1
0.655342 0.135212 0.672096 1445914 1
0.669249 0.135795 0.674993 2236200 1
0.686248 0.136976 0.680863 1644063 1
0.608589 0.145622 0.669224 3025716 1
0.622236 0.146247 0.672096 3025714 1
0.636001 0.146878 0.674993 2433063 1
0.647084 0.146878 0.674993 2235170 1
0.661016 0.147513 0.677915 3289141 1
0.672146 0.147513 0.677915 1644576 1
0.686248 0.148155 0.680863 4013124 1
0.697427 0.148155 0.680863 3092022 1
0.608436 0.162436 0.694119 2829360 3
0.616941 0.155944 0.666376 3683644 3
0.628050 0.155985 0.666554 2696234 3
0.641899 0.156695 0.669585 5130575 3
0.658167 0.157960 0.674993 4539719 3
0.669249 0.157960 0.674993 4736845 3
0.682357 0.158430 0.677002 5197396 3
0.658167 0.169043 0.674993 4933448 3
0.669249 0.169043 0.674993 5328981 3
0.354751 0.143272 0.851078 2499883 1
0.368725 0.143272 0.851078 2236972 1
0.352264 0.162546 0.879766 1578268 1
0.354751 0.157246 0.851078 1841953 1
0.368725 0.157246 0.851078 921110 1
0.382699 0.157246 0.851078 1183773 1
0.396672 0.157246 0.851078 789015 1
0.345585 0.181060 0.899991 2565163 3
0.344522 0.173101 0.860431 3947071 3
0.350936 0.169379 0.841927 4078914 3
0.330808 0.195837 0.899991 6184544 3
0.326803 0.185194 0.851078 5065297 3
0.330016 0.179345 0.824202 7828858 3
0.323289 0.197026 0.841927 6512998 3
0.332233 0.194174 0.829741 6052704 3
0.342075 0.192051 0.820667 5790043 3
0.366657 0.160744 0.954868 2499625 1
0.382335 0.160744 0.954868 1446682 1
0.348034 0.183122 0.991129 2762797 1
0.359754 0.180833 0.978740 3749692 1
0.357927 0.172222 0.932133 2434090 1
0.311544 0.196903 0.978740 4276547 3
0.327614 0.196903 0.978740 6118497 3
0.343684 0.196903 0.978740 2828847 3
0.350979 0.192100 0.954868 3486777 3
0.100365 0.191029 1.134771 2564649 1
0.120746 0.193839 1.151459 3551544 1
0.138633 0.192424 1.143054 2697004 1
0.160925 0.196732 1.168645 3223859 1
0.169965 0.185648 1.102806 2434343 1
0.188072 0.185648 1.102806 2697772 1
-0.097724 0.151506 0.899991 3223605 1
-0.065898 0.160740 0.869991 2368296 1
-0.053393 0.166283 0.899991 2499885 1
-0.038616 0.166283 0.899991 1380891 1
-0.023839 0.166283 0.899991 1248789 1
-0.053393 0.181060 0.899991 3486778 3
-0.038616 0.181060 0.899991 1973539 3
-0.023839 0.181060 0.899991 2630956 3
-0.053393 0.195837 0.899991 6908267 3
-0.123893 0.166848 0.991129 2697775 1
-0.140167 0.183122 0.991129 3092530 1
-0.117923 0.174297 0.943364 2631979 1
-0.102434 0.174297 0.943364 3684157 1
-0.140167 0.199395 0.991129 5001297 3
-0.120834 0.194472 0.966657 3882046 3
-0.102434 0.189786 0.943364 3355704 3
-0.286904 0.216082 1.283594 1841953 1
-0.293543 0.226041 1.223425 2960436 3
-0.277796 0.229629 1.242845 2301991 3
-0.265829 0.237158 1.283594 1710107 3
-0.233281 0.226041 1.223425 2631209 1
-0.209913 0.222563 1.204603 3025967 1
-0.253368 0.246128 1.223425 3552311 3
-0.233281 0.246128 1.223425 3618104 3
-0.333718 0.205953 1.223425 2499883 1
-0.313630 0.205953 1.223425 2368045 1
-0.307980 0.216082 1.283594 1644576 1
-0.373893 0.226041 1.223425 3553083 3
-0.308805 0.222563 1.204603 2500396 3
-0.481859 0.209223 1.242845 2368809 3
-0.461453 0.209223 1.242845 2236198 1
-0.474330 0.226041 1.223425 2828848 3
-0.454242 0.226041 1.223425 2894640 3
-0.434155 0.226041 1.223425 1776159 3
-0.494417 0.246128 1.223425 3684157 3
-0.474330 0.246128 1.223425 2105125 3
-0.454242 0.246128 1.223425 3881535 3
-0.434155 0.246128 1.223425 2763565 3
-0.494417 0.266216 1.223425 3091762 3
-0.474330 0.266216 1.223425 2828590 3
-0.454242 0.266216 1.223425 3354932 3
-0.434155 0.266216 1.223425 4342338 3
-0.407697 0.262120 1.204603 4013371 3
-0.518733 0.216082 1.283594 1447194 3
-0.560884 0.237158 1.283594 1974052 3
-0.522672 0.229629 1.242845 2105638 3
-0.502265 0.229629 1.242845 2894641 3
-0.572573 0.254068 1.262890 2566189 3
-0.534592 0.246128 1.223425 3092533 3
-0.514505 0.246128 1.223425 2170918 3
-0.585703 0.262120 1.204603 2499623 3
-0.565924 0.262120 1.204603 2368037 3
-0.546146 0.262120 1.204603 4144708 3
-0.526368 0.262120 1.204603 3684157 3
-0.506589 0.262120 1.204603 4012864 3
-0.743930 0.202785 1.204603 1840672 1
-0.747141 0.209223 1.242845 1644063 1
-0.724152 0.222563 1.204603 855058 3
-0.726734 0.229629 1.242845 855058 3
-0.729486 0.237158 1.283594 1578780 3
-0.715379 0.246128 1.223425 1907746 3
-0.073675 0.147769 0.972661 1907999 1
-0.090205 0.164763 0.978740 3157812 1
-0.072327 0.160744 0.954868 2237223 1
-0.089645 0.179710 0.972661 2368297 1
-0.009221 0.169200 0.915780 2103584 1
-0.084899 0.185320 0.921167 1776160 3
-0.069774 0.185320 0.921167 1841952 3
-0.009168 0.183165 0.910456 4012094 3
-0.069366 0.199273 0.915780 4342340 3
-0.038839 0.196969 0.905193 8355713 3
-0.023977 0.196969 0.905193 8026237 3
-0.009168 0.198114 0.910456 8355202 3
-0.831021 0.228758 1.505754 1315349 1
-0.838550 0.237908 1.565984 1973538 1
-0.831021 0.253481 1.505754 2236451 1
-0.838550 0.263620 1.565984 921104 1
-0.812838 0.263620 1.565984 1052950 1
-0.806298 0.278204 1.505754 2500136 3
-0.805639 0.156027 1.151459 1118230 1
-0.805639 0.174933 1.151459 1973287 1
-0.868490 0.191029 1.134771 986903 1
-0.849858 0.191029 1.134771 855319 1
-0.819352 0.188300 1.118560 1053468 1
-0.779287 0.139168 1.168645 1972512 1
-0.760099 0.139168 1.168645 1644063 1
-0.786733 0.156027 1.151459 986131 1
-0.767827 0.156027 1.151459 1249303 1
-0.760099 0.158356 1.168645 1709856 1
-0.786733 0.174933 1.151459 1249818 1
-0.767827 0.174933 1.151459 1644576 1
-0.760099 0.177544 1.168645 1447195 1
-0.752137 0.180234 1.186352 1380891 1
-0.789705 0.185648 1.102806 1381665 1
-0.782620 0.188300 1.118560 1842216 1
-0.764255 0.188300 1.118560 1513249 1
-0.767827 0.193839 1.151459 1381661 1
-0.760099 0.196732 1.168645 920851 1
