# .PCD v0.7
VERSION 0.7
FIELDS x y z rgb label
SIZE 4 4 4 4 4
TYPE F F F U U
COUNT 1 1 1 1 1
WIDTH 1374
HEIGHT 1
VIEWPOINT 0 0 0 1 0 0 0
POINTS 1374
DATA ascii
-0.656415 0.382569 0.960726 5526614 3
-0.621443 0.371104 0.931936 5000781 3
-0.652413 0.395914 0.954868 4145472 3
-0.613099 0.381218 0.919423 2303268 3
-0.633110 0.399415 0.926618 4606023 3
-0.617445 0.399123 0.925941 4803916 3
-0.193041 0.228863 0.599450 8092026 3
-0.191021 0.236207 0.593176 8289405 3
-0.181281 0.236207 0.593176 5526099 3
-0.171542 0.236207 0.593176 6644834 3
-0.163514 0.238706 0.599450 8092280 3
-0.199824 0.244799 0.590409 7369327 3
-0.191021 0.245947 0.593176 7631988 3
-0.181281 0.245947 0.593176 7237230 3
-0.171542 0.245947 0.593176 8092537 3
-0.370013 0.228745 0.599141 3289137 3
-0.359312 0.228197 0.597704 3223344 3
-0.349498 0.228197 0.597704 2565416 3
-0.339684 0.228197 0.597704 5329235 3
-0.329871 0.228197 0.597704 4671305 3
-0.320057 0.228197 0.597704 4407618 3
-0.305468 0.224684 0.588504 2960172 3
-0.375398 0.229834 0.577170 4210752 3
-0.354579 0.222710 0.559280 5395026 3
-0.345396 0.222710 0.559280 5000268 3
-0.336213 0.222710 0.559280 2894892 3
-0.330289 0.224929 0.564853 3947069 3
-0.330788 0.231777 0.582050 4013375 3
-0.324910 0.234431 0.588716 2763819 3
-0.313627 0.233228 0.585695 3947580 3
-0.301753 0.231497 0.581347 3881274 3
-0.394852 0.228626 0.551403 3947582 3
-0.358515 0.228548 0.551214 3947580 3
-0.345483 0.225944 0.544933 5000268 3
-0.335802 0.225451 0.543745 2763308 3
-0.326874 0.225451 0.543745 3158066 3
-0.321025 0.227634 0.549010 4802891 3
-0.318021 0.232019 0.559585 5329746 3
-0.318861 0.239552 0.577754 2698026 3
-0.311298 0.241042 0.581347 3552820 3
-0.301051 0.240481 0.579994 4013373 3
-0.398296 0.234379 0.543745 3882046 3
-0.389368 0.234379 0.543745 5263953 3
-0.398846 0.245718 0.570051 3948093 3
-0.345483 0.234891 0.544933 4803402 3
-0.335802 0.234379 0.543745 4539976 3
-0.326874 0.234379 0.543745 3684669 3
-0.317946 0.234379 0.543745 3552824 3
-0.310504 0.235506 0.546359 6316641 3
-0.308168 0.240687 0.558380 3817275 3
-0.307781 0.247756 0.574778 5263951 3
-0.301051 0.250004 0.579994 5131856 3
-0.307781 0.257193 0.574778 4737607 3
-0.301051 0.259527 0.579994 6119008 3
-0.295806 0.215022 0.588504 3421236 3
-0.278448 0.209239 0.572678 4868680 3
-0.285050 0.216515 0.567106 3092271 3
-0.268011 0.210447 0.551214 2961198 3
-0.256010 0.208049 0.544933 7829108 3
-0.245355 0.206611 0.541166 5262927 3
-0.212029 0.228114 0.597487 5724502 3
-0.200760 0.226468 0.593176 6447712 3
-0.280315 0.222075 0.557687 3750203 3
-0.264958 0.216996 0.544933 5263699 3
-0.253046 0.214484 0.538624 5395024 3
-0.239782 0.210601 0.528872 6447201 3
-0.229623 0.209257 0.525498 5526614 3
-0.222022 0.210230 0.527939 7697783 3
-0.214802 0.211657 0.531523 5460306 3
-0.221456 0.227454 0.571195 6711138 3
-0.218583 0.234431 0.588716 6842981 3
-0.208917 0.234431 0.588716 5987674 3
-0.200288 0.235652 0.591782 7566193 3
-0.279001 0.230148 0.555072 5921629 3
-0.259467 0.221262 0.533641 5066320 3
-0.250889 0.221424 0.534031 7763574 3
-0.239782 0.219285 0.528872 8749956 3
-0.229623 0.217886 0.525498 7697783 3
-0.222022 0.218898 0.527939 6645352 3
-0.212816 0.218346 0.526608 8553088 3
-0.203739 0.217886 0.525498 7237482 3
-0.203734 0.227515 0.548723 7171946 3
-0.204581 0.239031 0.576497 7041132 3
-0.277706 0.238150 0.552494 5000529 3
0.161238 0.209119 0.599278 7565684 3
0.199582 0.208061 0.596247 8421763 3
0.138821 0.200768 0.549493 9079173 3
0.160815 0.218383 0.597704 8420991 3
0.189562 0.217587 0.595526 8158330 3
0.108329 0.203359 0.532648 10197404 3
0.117626 0.204317 0.535156 9013643 3
0.127891 0.206707 0.541417 9145227 3
0.137369 0.207596 0.543745 9342347 3
0.155857 0.221162 0.579279 9013128 3
0.189410 0.227182 0.595047 9276300 3
0.180293 0.205640 0.538624 9671832 3
0.185713 0.201918 0.528872 9342867 3
0.107597 0.210671 0.529049 9078923 3
0.116283 0.210671 0.529049 7763574 3
0.126147 0.212655 0.534031 8618883 3
0.136781 0.215596 0.541417 9276300 3
0.146297 0.216523 0.543745 8421506 3
0.166717 0.232554 0.584002 9671060 3
0.169676 0.223810 0.562044 9275786 3
0.171450 0.214484 0.538624 9736851 3
0.177847 0.211573 0.531313 9211281 3
0.184918 0.209699 0.526608 9671832 3
0.190070 0.205914 0.517101 9013900 3
0.107371 0.218898 0.527939 9013128 3
0.116283 0.219358 0.529049 9079434 3
0.126147 0.221424 0.534031 9014154 3
0.136781 0.224486 0.541417 8882055 3
0.146297 0.225451 0.543745 8816264 3
0.167272 0.217886 0.525498 8289918 3
0.175974 0.217978 0.525720 8027005 3
0.060346 0.200810 0.575467 8421504 3
0.039703 0.201403 0.551232 9473933 3
0.048685 0.201120 0.550455 8158330 3
0.060373 0.210354 0.575729 8816260 3
0.068455 0.206222 0.564421 8816773 3
0.076268 0.202365 0.553864 8882053 3
0.061863 0.225233 0.589941 8355709 3
0.068449 0.215474 0.564379 9145740 3
0.076032 0.210803 0.552146 9211020 3
0.083405 0.206611 0.541166 9276813 3
0.091229 0.204235 0.534944 8684674 3
0.099583 0.203359 0.532648 9276815 3
0.076621 0.221573 0.556425 8289920 3
0.083013 0.214484 0.538624 7763574 3
0.091032 0.212558 0.533788 8224123 3
0.099121 0.211119 0.530173 9211020 3
0.083013 0.223328 0.538624 9342606 3
0.090610 0.220297 0.531313 8224123 3
0.098454 0.218346 0.526608 9211533 3
0.044776 0.216931 0.621665 7960953 3
0.036992 0.243058 0.665237 9209991 3
0.043593 0.231075 0.605242 9802898 3
0.053270 0.229952 0.602302 9342604 3
0.073871 0.242541 0.609082 8618883 3
-0.391419 0.240334 0.688735 5065550 3
-0.374569 0.236831 0.678694 4144448 3
-0.359320 0.234155 0.671027 4671303 3
-0.345343 0.232166 0.665325 4210752 3
-0.333528 0.231547 0.663553 4539717 3
-0.336621 0.241586 0.692321 4473922 3
-0.389816 0.230624 0.631207 4012346 3
-0.376559 0.228865 0.626394 4934216 3
-0.364276 0.227617 0.622976 5394513 3
-0.353164 0.227049 0.621422 4407620 3
-0.339277 0.224610 0.614747 3486518 3
-0.327558 0.223501 0.611713 3552822 3
-0.312516 0.219982 0.602082 4737096 3
-0.305139 0.237310 0.649507 4605508 3
-0.396723 0.232875 0.609958 4013373 3
-0.382779 0.230509 0.603761 4670792 3
-0.471678 0.202053 0.579030 4276293 3
-0.473739 0.207110 0.593522 3420984 3
-0.473193 0.204015 0.558380 2894641 3
-0.470449 0.206839 0.566110 3618364 3
-0.471678 0.211560 0.579030 2960433 3
-0.471254 0.215718 0.590409 2763054 3
-0.466156 0.217866 0.596289 1710367 3
-0.467887 0.202930 0.531523 2171431 3
-0.466722 0.206272 0.540277 1579808 3
-0.472186 0.212729 0.557191 2368809 3
-0.470449 0.216134 0.566110 1908258 3
-0.471678 0.221067 0.579030 3158326 3
-0.471254 0.225412 0.590409 2039845 3
-0.463723 0.226468 0.593176 2631471 3
-0.456366 0.227656 0.596289 2565678 3
-0.469247 0.220497 0.553724 3421497 3
-0.480125 0.230066 0.577754 3421497 3
-0.478450 0.233885 0.587343 3947841 3
-0.472350 0.235652 0.591782 3224119 3
-0.463723 0.236207 0.593176 4539468 3
-0.451637 0.234986 0.590110 4934224 3
-0.436413 0.232044 0.582720 3355191 3
-0.424849 0.230958 0.579994 4868430 3
-0.415326 0.230958 0.579994 3947328 3
-0.469902 0.244097 0.588716 2763567 3
-0.460236 0.244097 0.588716 4211013 3
-0.439347 0.238017 0.574051 3553083 3
-0.416700 0.230697 0.556397 2566186 3
-0.403906 0.228626 0.551403 3684667 3
-0.408646 0.242166 0.584057 5658200 3
-0.469902 0.253764 0.588716 3487290 3
-0.444416 0.245040 0.568479 3618874 3
-0.421868 0.237598 0.551214 2368807 3
-0.408114 0.234891 0.544933 4803148 3
-0.469902 0.263430 0.588716 3026737 3
0.162091 0.200333 0.602447 8355200 3
0.172605 0.201058 0.604627 9013128 3
0.183018 0.201593 0.606238 8684163 3
0.192693 0.201301 0.605359 7895158 3
0.171735 0.209922 0.601580 7763061 3
0.181830 0.210174 0.602302 7631475 3
0.191719 0.210174 0.602302 8947846 3
0.171531 0.219538 0.600865 8947335 3
0.181786 0.220010 0.602157 8289405 3
0.171784 0.229743 0.601753 8814981 3
0.182445 0.230729 0.604338 11117990 3
-0.222416 0.229669 0.690668 5855066 3
-0.206204 0.224368 0.674727 5395287 3
-0.247230 0.243107 0.696681 5461332 3
-0.227042 0.234086 0.670828 5197388 3
-0.206576 0.223845 0.641479 4604999 3
-0.241494 0.237645 0.650424 5395537 3
-0.218787 0.225261 0.616529 5987674 3
-0.206440 0.222860 0.609958 6052695 3
-0.256438 0.252524 0.661422 6842211 3
-0.226470 0.232875 0.609958 6119001 3
-0.484764 0.201958 0.607335 2697262 3
-0.483433 0.205634 0.618388 2829875 3
-0.480875 0.208934 0.628313 2829877 3
-0.492357 0.218612 0.657418 2368810 3
-0.499079 0.226564 0.681332 3684410 3
-0.491699 0.228332 0.686648 2894894 3
-0.478199 0.227274 0.683466 3026480 3
-0.463185 0.225428 0.677915 5395028 3
-0.472243 0.210792 0.604075 3355705 3
-0.467036 0.212940 0.610231 2434349 3
-0.468287 0.218192 0.625279 3487291 3
-0.472241 0.224966 0.644692 2368550 3
-0.491566 0.239541 0.686462 3552570 3
-0.473554 0.236179 0.676827 3684156 3
-0.468172 0.239106 0.685215 4079168 3
-0.464255 0.242944 0.696213 3684410 3
-0.431745 0.243952 0.699100 5328720 3
-0.420267 0.243952 0.699100 4868682 3
-0.406301 0.242467 0.694847 5460306 3
-0.462325 0.220711 0.604075 986646 3
-0.457017 0.222960 0.610231 3815743 3
-0.455476 0.227189 0.621806 3289652 3
-0.457109 0.233231 0.638343 2697261 3
-0.464266 0.242442 0.663553 2434089 3
-0.458746 0.245316 0.671418 3092019 3
-0.444861 0.243748 0.667128 3947582 3
-0.424225 0.238310 0.652242 2960685 3
-0.407945 0.235099 0.643454 3618102 3
-0.450003 0.229403 0.600865 4934224 3
-0.443541 0.231178 0.605512 5394774 3
-0.436978 0.232979 0.610231 4012609 3
-0.430312 0.234809 0.615024 4473672 3
-0.448705 0.250730 0.656723 4210754 3
-0.442901 0.253580 0.664189 2369061 3
-0.424345 0.241511 0.606495 5460821 3
-0.483054 0.182477 0.548752 2236964 3
-0.482361 0.185679 0.558380 1973792 3
-0.479744 0.188250 0.566110 2829099 3
-0.481185 0.192546 0.579030 2960687 3
-0.483484 0.197365 0.593522 2631468 3
-0.492064 0.191487 0.548752 2763054 3
-0.479692 0.190155 0.544933 2631468 3
-0.471976 0.190652 0.546359 3026226 3
-0.475571 0.195826 0.561186 2894894 3
-0.471509 0.197990 0.567386 2894640 3
-0.488639 0.199102 0.544933 3026739 3
-0.478646 0.198668 0.543745 3289911 3
-0.471976 0.199623 0.546359 2895154 3
0.082305 0.188942 0.597704 7763574 3
0.092119 0.188942 0.597704 7171950 3
0.061132 0.193856 0.582970 9013641 3
0.071235 0.195310 0.587343 9474192 3
0.081067 0.195767 0.588716 9605776 3
0.090489 0.195239 0.587128 9079947 3
0.096360 0.187891 0.565031 8882568 3
0.049558 0.195525 0.560321 7829367 3
0.069143 0.198936 0.570098 8158332 3
0.077451 0.196270 0.562458 8947846 3
0.085776 0.194210 0.556553 9606291 3
0.093347 0.191002 0.547360 9737877 3
0.084171 0.199542 0.546138 9145740 3
0.092290 0.197726 0.541166 8750982 3
-0.178421 0.220012 0.695993 8487299 3
-0.167329 0.220454 0.697390 8027005 3
-0.185479 0.226113 0.679973 4276032 3
-0.169795 0.220250 0.662344 5658200 3
-0.165714 0.229667 0.690661 5790043 3
-0.191916 0.219131 0.627972 5066063 3
-0.181148 0.218581 0.626394 3355443 3
-0.170864 0.218581 0.626394 5789784 3
-0.166145 0.226157 0.648107 6250594 3
-0.195463 0.221769 0.606971 5065550 3
-0.185497 0.221769 0.606971 6512994 3
-0.175531 0.221769 0.606971 6052697 3
-0.167358 0.224170 0.613542 5790297 3
-0.184070 0.229952 0.602302 5789271 3
-0.174181 0.229952 0.602302 5789525 3
-0.164292 0.229952 0.602302 4671044 3
0.409823 0.176481 0.588870 5527643 3
0.424278 0.178494 0.595589 5593434 3
0.484505 0.159670 0.532777 5591126 3
0.402384 0.182770 0.578181 7040110 3
0.418119 0.185540 0.586943 6711915 3
0.469257 0.166117 0.525498 5591127 3
0.479093 0.166536 0.526826 6314849 3
0.489905 0.167275 0.529161 5788505 3
0.452382 0.174892 0.525941 7105133 3
0.459089 0.174160 0.523741 6841963 3
0.467786 0.174197 0.523850 7499123 3
0.478992 0.175149 0.526714 7762293 3
0.488152 0.175333 0.527267 6184031 3
0.433022 0.182646 0.523415 4210241 3
0.437143 0.180796 0.518114 4473413 3
0.439198 0.178179 0.510613 6381923 3
0.448130 0.178397 0.511239 4670794 3
0.455873 0.178143 0.510510 4999759 3
0.462559 0.177492 0.508644 5788757 3
0.473794 0.178579 0.511760 3881276 3
0.405481 0.186479 0.510385 5789273 3
0.409425 0.184480 0.504914 4012862 3
0.425782 0.184383 0.504649 3749690 3
0.435648 0.185055 0.506486 4934477 3
0.447217 0.186410 0.510197 5789532 3
0.456712 0.186868 0.511449 5197136 3
0.460967 0.185204 0.506894 5197388 3
0.423991 0.191859 0.502526 5855579 3
0.433371 0.192360 0.503838 5855579 3
0.445674 0.194115 0.508436 4342340 3
0.453839 0.194037 0.508231 4737098 3
0.132068 0.180075 0.600865 5855577 3
0.141898 0.180031 0.600715 7500404 3
0.151616 0.179858 0.600138 7894649 3
0.172350 0.191977 0.640578 6249824 3
0.187835 0.197191 0.657977 7894649 3
0.132068 0.189941 0.600865 7434611 3
0.143031 0.191410 0.605512 6776681 3
0.153342 0.191871 0.606971 7500404 3
0.163308 0.191871 0.606971 7960442 3
0.173274 0.191871 0.606971 7960440 3
0.183730 0.192384 0.608594 8420991 3
0.193440 0.192104 0.607709 7302764 3
0.111746 0.179128 0.597704 6052445 3
0.121560 0.179128 0.597704 5329233 3
0.101932 0.188942 0.597704 7303536 3
0.111746 0.188942 0.597704 8026235 3
0.121560 0.188942 0.597704 9013641 3
0.194367 0.160010 0.506181 7633015 3
0.110429 0.196413 0.590661 9539474 3
0.114921 0.187901 0.565063 8157821 3
0.123000 0.186087 0.559606 7829367 3
0.138224 0.194584 0.585159 8092539 3
0.151073 0.198851 0.597991 8355711 3
0.199210 0.188648 0.567309 8684676 3
0.191820 0.173536 0.521863 8750469 3
0.194367 0.168321 0.506181 8290945 3
0.101176 0.188840 0.541166 7763063 3
0.109823 0.188432 0.539995 8355200 3
0.119256 0.189331 0.542573 7631475 3
0.129059 0.190652 0.546359 7434096 3
0.140974 0.194720 0.558015 7434350 3
0.187371 0.186198 0.533593 8684678 3
0.188845 0.179280 0.513768 8224127 3
0.195233 0.177419 0.508436 8356738 3
0.100481 0.196369 0.537452 9473681 3
0.109071 0.195946 0.536296 10328990 3
0.117876 0.195946 0.536296 9868437 3
0.127891 0.197817 0.541417 9539726 3
0.181946 0.198600 0.543560 8684937 3
0.186119 0.193656 0.530028 10000284 3
0.189608 0.188474 0.515845 9868952 3
0.195193 0.185730 0.508334 9804184 3
0.189385 0.196712 0.515238 9671830 3
-0.398169 0.237404 0.792156 4868682 3
-0.384798 0.237179 0.791405 4738377 3
-0.396165 0.249150 0.788169 4342338 3
-0.382620 0.248758 0.786927 4408642 3
-0.365925 0.246218 0.778892 4277826 3
-0.361445 0.252011 0.797218 3554103 3
-0.387674 0.256474 0.771275 4868682 3
-0.346097 0.236700 0.711811 4869193 3
-0.347674 0.246088 0.740044 4540998 3
-0.345943 0.253730 0.763026 4211263 3
-0.335430 0.255264 0.767639 3750714 3
-0.322827 0.255264 0.767639 4803148 3
-0.311542 0.256350 0.770905 4342851 3
-0.333468 0.247688 0.709807 3684919 3
-0.340124 0.261780 0.750193 3553335 3
-0.335430 0.267868 0.767639 5592664 3
-0.322827 0.267868 0.767639 6513766 3
-0.308152 0.266080 0.762516 6579813 3
-0.307263 0.276548 0.792514 5855575 3
-0.341371 0.275103 0.752943 5526612 3
-0.342139 0.286082 0.782992 7631990 3
-0.329283 0.286082 0.782992 3881535 3
-0.312162 0.282225 0.772437 2697515 3
-0.306628 0.267911 0.701726 5460821 3
-0.326023 0.295978 0.775240 5921372 3
-0.309112 0.292027 0.764891 6907752 3
-0.548113 0.201652 0.672861 2236964 3
-0.537328 0.201751 0.673190 3091762 3
-0.530839 0.203501 0.679028 3157812 3
-0.527435 0.206533 0.689147 1579293 3
-0.523181 0.209359 0.698576 2961716 3
-0.531668 0.202242 0.639778 986895 3
-0.508429 0.201359 0.636983 2368297 3
-0.510429 0.206396 0.652920 1579808 3
-0.512813 0.211809 0.670042 2764082 3
-0.511516 0.215905 0.683000 2039845 3
0.439470 0.202802 0.715921 7302512 3
0.459068 0.206327 0.728365 7105642 3
0.472540 0.206990 0.730705 7171437 3
0.482479 0.206111 0.727599 5921629 3
0.434291 0.212028 0.707483 6249824 3
0.454969 0.216337 0.721861 7631986 3
0.471859 0.218672 0.729651 7434609 3
0.303421 0.166787 0.588780 5328724 3
0.300427 0.174712 0.582970 4736587 3
0.311629 0.175631 0.586034 5789275 3
0.397064 0.175118 0.584322 5592666 3
0.300427 0.184284 0.582970 7368305 3
0.311316 0.185067 0.585446 8092287 3
0.371877 0.177278 0.560807 5263953 3
0.383042 0.178189 0.563688 7434868 3
0.305529 0.191061 0.574564 7499893 3
0.342707 0.180812 0.543745 6842220 3
0.355897 0.174160 0.523741 4539976 3
0.363661 0.173761 0.522540 5197906 3
0.369783 0.172614 0.519090 5658457 3
0.386455 0.176332 0.530272 4605769 3
0.330099 0.182760 0.523741 6842733 3
0.337782 0.182265 0.522324 7303282 3
0.342858 0.180423 0.517045 7632501 3
0.346977 0.178179 0.510613 7500915 3
0.352636 0.176813 0.506699 4868682 3
0.359713 0.176204 0.504954 3552822 3
0.366239 0.175359 0.502533 4474183 3
0.321497 0.186372 0.510093 7566457 3
0.330613 0.186791 0.511239 7237491 3
0.338593 0.186563 0.510613 7304050 3
0.358700 0.183975 0.503532 7039338 3
0.366967 0.183975 0.503532 7697781 3
0.376067 0.184383 0.504649 7697781 3
0.316345 0.191627 0.501918 7961984 3
0.329708 0.194650 0.509838 7435638 3
0.340677 0.196146 0.513756 5988192 3
0.359857 0.192863 0.505156 6974058 3
0.268765 0.169314 0.597704 6118497 3
0.278579 0.169314 0.597704 6315876 3
0.286624 0.168276 0.594038 6513509 3
0.291530 0.165524 0.584322 5723480 3
0.236360 0.169941 0.567049 7434609 3
0.254463 0.176023 0.587343 7368818 3
0.266103 0.177353 0.591782 5000017 3
0.276339 0.177688 0.592897 5460567 3
0.283793 0.176271 0.588171 8816264 3
0.289371 0.173821 0.579994 7894649 3
0.210246 0.180814 0.571991 7566195 3
0.202268 0.159686 0.505156 8487297 3
0.217409 0.164879 0.521582 7566195 3
0.244382 0.178311 0.564074 7500404 3
0.263498 0.185239 0.585990 8816010 3
0.274326 0.186057 0.588578 8552326 3
0.282796 0.185275 0.586104 9868439 3
0.289371 0.183344 0.579994 9013128 3
0.205951 0.171040 0.514356 8553090 3
0.219152 0.174833 0.525764 7631988 3
0.238212 0.182837 0.549833 6974060 3
0.257891 0.190714 0.573521 6644841 3
0.269958 0.192604 0.579206 5986399 3
0.273764 0.188674 0.567386 7236721 3
0.283080 0.188674 0.567386 8684165 3
0.294605 0.190099 0.571672 8947337 3
0.203128 0.177025 0.507305 9276813 3
0.209847 0.175676 0.503441 7960953 3
0.217453 0.175145 0.501918 8684678 3
0.225971 0.175359 0.502533 9934491 3
0.239903 0.179613 0.514722 8421255 3
0.253824 0.183569 0.526059 7894908 3
0.202922 0.185166 0.506791 8092539 3
0.209847 0.183942 0.503441 9013641 3
0.217453 0.183386 0.501918 9013643 3
0.225739 0.183423 0.502019 8223873 3
0.234927 0.184163 0.504046 8487305 3
0.248041 0.187827 0.514074 8684425 3
0.254148 0.186118 0.509396 9144718 3
0.258875 0.183539 0.502338 8486018 3
0.208544 0.191014 0.500314 8092539 3
0.216715 0.190976 0.500215 8618370 3
0.243551 0.192714 0.504767 8223873 3
0.252287 0.193058 0.505667 8684424 3
0.005047 0.225159 0.794843 7369075 3
0.005057 0.238691 0.796449 6710888 3
0.018192 0.239447 0.798972 7171950 3
0.031310 0.239447 0.798972 7040364 3
0.044428 0.239447 0.798972 7632247 3
0.005073 0.252565 0.798972 7565684 3
0.018192 0.252565 0.798972 8026235 3
0.031092 0.250811 0.793423 6645095 3
0.043979 0.250014 0.790901 7039599 3
0.056965 0.250014 0.790901 7434868 3
0.069951 0.250014 0.790901 7040110 3
0.083519 0.251768 0.796449 6118751 3
0.094764 0.246994 0.781348 6776168 3
0.005073 0.265683 0.798972 5855066 3
0.018065 0.263838 0.793423 6381923 3
0.030781 0.261192 0.785464 7171439 3
0.043540 0.260370 0.782992 6513509 3
0.005073 0.278802 0.798972 7960955 3
0.018192 0.278802 0.798972 7895162 3
0.030879 0.274968 0.787986 7434096 3
0.042953 0.269543 0.772437 7105131 3
0.005073 0.291920 0.798972 9342865 3
0.017941 0.287906 0.787986 9474194 3
0.030684 0.286082 0.782992 9407886 3
-0.213230 0.221439 0.781710 5855064 3
-0.242991 0.238286 0.795099 5065810 3
-0.217533 0.225432 0.752208 6184290 3
-0.201022 0.220861 0.736954 6776166 3
-0.225189 0.232926 0.736846 6119010 3
-0.208670 0.228094 0.721559 6974319 3
-0.247173 0.242851 0.730310 6250076 3
-0.205293 0.236059 0.709883 4539978 3
-0.277022 0.260356 0.746112 6185053 3
-0.286251 0.269760 0.738320 4079164 3
-0.286490 0.239786 0.846478 5855064 3
-0.272592 0.239786 0.846478 5066063 3
-0.261625 0.242503 0.856071 4933966 3
-0.239920 0.235011 0.829621 4539208 3
-0.297576 0.251309 0.838553 4604999 3
-0.281918 0.249636 0.832970 5789271 3
-0.267978 0.249391 0.832153 6118497 3
-0.295497 0.263225 0.832695 5263699 3
-0.280427 0.261919 0.828563 6118236 3
-0.266648 0.261748 0.828021 5395028 3
-0.286270 0.268251 0.806694 5066574 3
-0.525134 0.203080 0.716901 3552571 3
-0.530451 0.217026 0.724159 3618876 3
-0.523402 0.219052 0.730919 2697774 3
-0.517751 0.221772 0.739995 1644827 3
-0.507546 0.222625 0.742842 2500132 3
-0.501742 0.225498 0.752429 2368289 3
-0.523937 0.226105 0.715266 2434343 3
-0.514395 0.227077 0.718341 3289652 3
-0.512380 0.231495 0.732319 3815996 3
-0.504997 0.233643 0.739111 5658198 3
0.629338 0.211391 0.792156 2566189 3
0.626271 0.206102 0.772334 1710367 3
0.630847 0.203487 0.762537 2236710 3
0.608323 0.226257 0.798718 6184290 3
0.616331 0.224398 0.792156 4868173 3
0.626170 0.223268 0.788169 5000016 3
0.602864 0.206426 0.728712 5328724 3
0.622143 0.208882 0.737382 4868171 3
0.627972 0.206814 0.730082 4012862 3
0.632388 0.204367 0.721445 3947069 3
0.639448 0.202849 0.716086 3091762 3
0.620461 0.238995 0.797464 7565684 3
0.631331 0.238156 0.794665 6644841 3
0.536708 0.201053 0.753414 5790043 3
0.570745 0.208987 0.783145 5263442 3
0.589142 0.205812 0.726546 5657946 3
0.526585 0.216544 0.722550 6711915 3
0.590150 0.218113 0.727788 7960444 3
0.525750 0.228045 0.721405 6119778 3
0.582028 0.226897 0.717772 5789275 3
0.196965 0.239135 0.896121 6249822 3
0.105114 0.245510 0.866687 6447975 3
0.119097 0.245001 0.864888 6579559 3
0.129701 0.238390 0.841552 6382180 3
0.142055 0.235959 0.832970 6447716 3
0.103221 0.255063 0.851078 6184801 3
0.005216 0.219221 0.821496 7698808 3
0.034921 0.237803 0.891129 6580581 3
0.049781 0.238896 0.895224 7304050 3
0.064823 0.240168 0.899991 6711145 3
0.019671 0.244740 0.863965 5856090 3
0.034244 0.247541 0.873856 6448225 3
0.046464 0.236701 0.835588 7303536 3
0.063056 0.247998 0.875469 7105903 3
0.078196 0.250449 0.884119 7303023 3
0.091708 0.247737 0.874548 5921370 3
0.059230 0.246452 0.822346 6776940 3
0.074217 0.251481 0.839128 6776681 3
0.088947 0.254206 0.848219 5855577 3
-0.073080 0.211598 0.792929 6184542 3
-0.059105 0.208231 0.780314 6513507 3
-0.047368 0.213064 0.798423 6250335 3
-0.020933 0.210888 0.790268 6645604 3
-0.007728 0.204796 0.767440 7566708 3
-0.073080 0.224617 0.792929 7434609 3
-0.059308 0.221802 0.782992 7829367 3
-0.046481 0.221942 0.783486 7566195 3
-0.033914 0.223902 0.790407 7631990 3
-0.020599 0.220292 0.777662 6645095 3
-0.007753 0.218126 0.770014 7105646 3
-0.086127 0.237713 0.793187 5658198 3
-0.070256 0.228453 0.762288 5329233 3
-0.057408 0.227139 0.757902 5526614 3
-0.045713 0.230925 0.770536 5461078 3
-0.033039 0.230769 0.770014 5526360 3
-0.020472 0.231623 0.772865 5855326 3
-0.007915 0.235561 0.786007 7170926 3
-0.065577 0.224921 0.711522 6513766 3
-0.055265 0.230642 0.729618 5197138 3
-0.045870 0.244414 0.773187 6908267 3
-0.033439 0.246359 0.779340 6315619 3
-0.020740 0.247514 0.782992 4670539 3
-0.007995 0.250987 0.793978 8157053 3
-0.032739 0.253730 0.763026 4013375 3
-0.020613 0.258774 0.778194 5197138 3
-0.007995 0.264023 0.793978 6776170 3
-0.020613 0.271552 0.778194 9145229 3
-0.007995 0.277059 0.793978 8881544 3
-0.021054 0.290412 0.794843 9342608 3
-0.188757 0.209935 0.786700 4013121 3
-0.191571 0.211689 0.747291 4670792 3
-0.176401 0.208265 0.735204 4934477 3
-0.164330 0.208265 0.735204 5658200 3
-0.186666 0.218223 0.728154 7039340 3
-0.173951 0.217276 0.724993 7039853 3
-0.170960 0.229226 0.764867 7171439 3
-0.192898 0.223546 0.707173 7236717 3
-0.166991 0.236171 0.747110 7039853 3
-0.435337 0.216951 0.812989 4539204 3
-0.426558 0.219300 0.821792 5263442 3
-0.416747 0.221255 0.829117 4802891 3
-0.407310 0.223547 0.837706 3355443 3
-0.416175 0.227126 0.801788 6447716 3
-0.403784 0.227562 0.803328 4276545 3
-0.477751 0.206438 0.773595 3815485 3
-0.452635 0.212537 0.796449 3421238 3
-0.441234 0.213348 0.799486 3289139 3
-0.486778 0.206787 0.729988 2894379 3
-0.492791 0.214626 0.757662 3354932 3
-0.480065 0.214498 0.757209 3486518 3
-0.474219 0.217520 0.767876 2105124 3
-0.463886 0.218592 0.771659 3026226 3
-0.454860 0.220357 0.777891 3552824 3
-0.444435 0.221527 0.782021 5855066 3
-0.434439 0.222987 0.787175 5131343 3
-0.425124 0.224896 0.793915 5460819 3
-0.485307 0.223618 0.746155 2500134 3
-0.477462 0.225701 0.753104 4013375 3
-0.468762 0.227479 0.759039 3881789 3
-0.457269 0.227963 0.760652 4342597 3
-0.450386 0.230836 0.770239 3750203 3
-0.440040 0.232049 0.774287 5197136 3
-0.430115 0.233563 0.779340 4144448 3
-0.420856 0.235543 0.785946 4079679 3
-0.411957 0.237855 0.793661 4934475 3
-0.496966 0.235588 0.745267 5460819 3
-0.480440 0.233504 0.738672 5789786 3
-0.469978 0.234334 0.741300 5723993 3
-0.462043 0.236503 0.748160 3618104 3
-0.450839 0.237071 0.749957 3421749 3
-0.447503 0.241924 0.765310 4473411 3
-0.439231 0.244312 0.772865 5065550 3
-0.427985 0.245139 0.775481 4407620 3
-0.418755 0.247207 0.782021 4934475 3
-0.409879 0.249621 0.789659 4012860 3
-0.467593 0.233177 0.701219 5723991 3
-0.463642 0.237044 0.712846 5263699 3
-0.461912 0.242275 0.728577 3618617 3
-0.453513 0.244194 0.734347 3091760 3
-0.445769 0.246580 0.741522 3487029 3
-0.439708 0.250057 0.751979 4539204 3
-0.432823 0.253252 0.761588 4407620 3
-0.421851 0.254176 0.764365 4341827 3
-0.413206 0.256601 0.771659 3618615 3
-0.402395 0.257792 0.775240 4408131 3
-0.457518 0.245462 0.703430 4671305 3
-0.444471 0.244638 0.701068 3552311 3
-0.567913 0.186043 0.697167 2697261 3
-0.558009 0.186559 0.699100 3223348 3
-0.546530 0.186559 0.699100 2960176 3
-0.564448 0.196285 0.692913 3223605 3
-0.553071 0.196285 0.692913 2104867 3
-0.541694 0.196285 0.692913 1184022 3
-0.533572 0.197490 0.697167 1381914 3
-0.523573 0.198037 0.699100 3355705 3
-0.500372 0.197941 0.698759 3355705 3
-0.510261 0.198011 0.626394 2565675 3
0.601869 0.206824 0.825852 3750203 3
0.613005 0.206009 0.822598 5657946 3
0.619997 0.203867 0.814046 4934224 3
0.630693 0.203008 0.810615 4342087 3
0.614200 0.219943 0.824202 2763054 3
0.616667 0.216066 0.809673 2960434 3
0.624426 0.214168 0.802559 4144708 3
0.606631 0.243964 0.814046 6184801 3
0.613617 0.241454 0.805669 7368818 3
0.614200 0.260541 0.824202 5921629 3
0.625473 0.259603 0.821236 6118751 3
0.631126 0.256421 0.811170 7170926 3
0.638832 0.254188 0.804106 6578791 3
0.620734 0.276989 0.832970 5724250 3
0.634410 0.276989 0.832970 6052958 3
0.408659 0.171305 0.684023 4670539 3
0.408772 0.182586 0.684212 7828603 3
0.418021 0.198205 0.699693 7894396 3
0.472169 0.196833 0.694847 6382182 3
0.475546 0.193564 0.683307 5724252 3
0.427519 0.170004 0.600138 5527641 3
0.242146 0.225391 0.899991 7630709 3
0.251035 0.220226 0.879366 7697270 3
0.262643 0.217878 0.869991 7566195 3
0.274742 0.216158 0.863125 7040364 3
0.286438 0.214306 0.855729 8092800 3
0.208771 0.235851 0.883815 6842213 3
0.217313 0.229546 0.860186 6183263 3
0.228374 0.226508 0.848803 6841193 3
0.239062 0.223472 0.837425 7828856 3
0.252897 0.223547 0.837706 8421506 3
0.267905 0.224598 0.841646 6579813 3
0.280311 0.223472 0.837425 5592153 3
0.294160 0.223547 0.837706 5855836 3
0.251467 0.235959 0.832970 6973547 3
0.265056 0.235881 0.832695 7171437 3
0.273393 0.231367 0.816757 7105644 3
0.282910 0.228226 0.805669 6645352 3
0.295471 0.227711 0.803853 6185571 3
0.282088 0.240752 0.803328 7106157 3
-0.375141 0.253036 1.010379 3683381 3
-0.383305 0.270505 1.080133 5327952 3
-0.361266 0.271666 1.018027 6578019 3
-0.350223 0.276139 1.034787 4867655 3
-0.327637 0.286088 1.072069 6118238 3
0.315918 0.210539 0.899669 6711147 3
0.323642 0.206052 0.880496 6908267 3
0.330521 0.201433 0.860760 6973547 3
0.300488 0.214306 0.855729 6777710 3
0.312096 0.212642 0.849084 6974317 3
0.323289 0.210849 0.841927 6974060 3
0.334213 0.209036 0.834685 7565684 3
0.339969 0.204260 0.815617 7697783 3
0.309362 0.224598 0.841646 7566454 3
0.321243 0.223251 0.836598 5987165 3
0.327652 0.218368 0.818300 5789532 3
0.339969 0.217652 0.815617 6381923 3
0.313186 0.231044 0.815617 5526871 3
0.326578 0.231044 0.815617 6184544 3
-0.094253 0.203134 0.868026 5066574 3
-0.051046 0.201356 0.860431 5592664 3
-0.036919 0.201356 0.860431 7763574 3
-0.022894 0.202262 0.864303 9013639 3
-0.008957 0.208176 0.889575 8881542 3
-0.093355 0.215314 0.859756 5789786 3
-0.077727 0.211206 0.843349 6316128 3
-0.063837 0.211065 0.842790 7039849 3
-0.050959 0.215116 0.858962 6250335 3
-0.036919 0.215483 0.860431 7106155 3
-0.022823 0.215786 0.861639 7500911 3
-0.008909 0.221584 0.884791 8027257 3
-0.092143 0.226452 0.848593 7105644 3
-0.034883 0.216951 0.812989 8158330 3
-0.088840 0.231769 0.818178 7697781 3
-0.008071 0.292861 0.801546 8026746 3
-0.377142 0.209866 0.896795 3420727 3
-0.363709 0.210614 0.899991 2828590 3
-0.398798 0.220286 0.879605 2894894 3
-0.374051 0.214380 0.856023 3288369 3
-0.364871 0.217283 0.867615 6314849 3
-0.355048 0.220023 0.878558 4143678 3
-0.336169 0.217146 0.867070 4538688 3
-0.397009 0.225508 0.845056 5855577 3
-0.385344 0.226809 0.849931 5526610 3
-0.373922 0.228356 0.855729 4407620 3
-0.363996 0.230973 0.865534 5985884 3
-0.351225 0.231924 0.869100 4078655 3
-0.334460 0.230206 0.862662 6446685 3
-0.392998 0.228963 0.808270 4606023 3
-0.391482 0.236051 0.833293 5462100 3
-0.379801 0.237301 0.837706 5658709 3
-0.368016 0.238577 0.842211 5592405 3
-0.362780 0.244365 0.862643 4276034 3
-0.350992 0.246030 0.868522 5395026 3
-0.326972 0.238900 0.843349 6052697 3
-0.312703 0.238577 0.842211 5986650 3
-0.300388 0.239786 0.846478 4210241 3
-0.378265 0.241301 0.805160 4475462 3
-0.372711 0.246368 0.822067 5067340 3
-0.363978 0.249636 0.832970 5066574 3
-0.352891 0.251481 0.839128 5789786 3
-0.340244 0.252320 0.841927 5658711 3
-0.326421 0.252320 0.841927 6250076 3
-0.312597 0.252320 0.841927 4999755 3
-0.352721 0.255169 0.807208 3092784 3
-0.341898 0.256996 0.812989 3882046 3
-0.329939 0.258083 0.816426 4737607 3
-0.321239 0.261919 0.828563 6250333 3
-0.307737 0.262006 0.828839 5987676 3
-0.317772 0.272550 0.819620 4473922 3
-0.300682 0.269296 0.809836 5198160 3
0.699700 0.128104 0.588716 1447454 1
0.671120 0.139872 0.597698 1249815 1
0.646929 0.140190 0.559782 723982 1
0.653199 0.139566 0.557290 1514270 1
0.668779 0.140921 0.562700 1645087 1
0.516688 0.173855 0.798972 4341825 3
0.504570 0.182588 0.780233 3815994 3
0.543596 0.187205 0.799959 3158066 3
0.513494 0.189245 0.755662 3486777 3
0.538195 0.193669 0.773326 3684669 3
0.590570 0.178775 0.713852 2960433 3
0.596849 0.177160 0.707402 3684156 3
0.403721 0.155596 0.715061 5066322 3
0.415461 0.155596 0.715061 5394264 3
0.429162 0.156310 0.718341 4473675 3
0.445039 0.157757 0.724993 4276294 3
0.483822 0.167037 0.767639 5789532 3
0.400636 0.166058 0.709597 2368550 3
0.411702 0.165823 0.708590 3748669 3
0.423456 0.165870 0.708791 3223095 3
0.440219 0.167823 0.717140 2631469 3
0.469522 0.174332 0.744952 4013375 3
0.430202 0.175512 0.700822 3354934 3
0.456943 0.181565 0.724993 2565927 3
0.468846 0.181565 0.724993 3487029 3
0.481609 0.181889 0.726287 3026480 3
0.432007 0.187803 0.703762 5855066 3
0.457076 0.193525 0.725203 6974056 3
0.471027 0.194368 0.728365 6316128 3
0.480637 0.193423 0.724822 5066063 3
0.479339 0.188240 0.705398 5986911 3
0.490921 0.188240 0.705398 5461080 3
0.132294 0.209053 0.960726 6381669 3
0.146273 0.206519 0.949081 7302771 3
0.161856 0.206519 0.949081 6842474 3
0.180725 0.210343 0.966657 6250594 3
0.196597 0.210343 0.966657 5657946 3
0.103934 0.231942 0.991129 7433328 3
0.121266 0.233986 0.999865 5920859 3
0.153246 0.232690 0.994326 6118497 3
0.166914 0.229043 0.978740 6710888 3
0.181431 0.227098 0.970433 6316387 3
0.196597 0.226215 0.966657 7171185 3
0.102435 0.244637 0.976840 4802891 3
0.119834 0.247444 0.988052 5921118 3
0.167242 0.245594 0.980664 7302771 3
0.181431 0.243032 0.970433 5855838 3
0.193340 0.238076 0.950643 6842220 3
0.113052 0.248745 0.932133 7237492 3
0.127834 0.247733 0.928342 7566456 3
0.143396 0.248285 0.930410 7697529 3
0.158966 0.248745 0.932133 6776427 3
0.174271 0.248745 0.932133 6776427 3
0.188042 0.246733 0.924594 5855325 3
0.005990 0.205275 0.943364 7697783 3
0.021479 0.205275 0.943364 7369075 3
0.005779 0.212986 0.910127 9079947 3
0.020529 0.210994 0.901617 6909292 3
0.035320 0.210924 0.901314 7172466 3
0.052153 0.219481 0.937883 6119778 3
0.071465 0.232196 0.992218 5723991 3
0.088360 0.233794 0.999046 5526101 3
0.005783 0.228095 0.910789 6909292 3
0.020851 0.229345 0.915780 7830648 3
0.035462 0.226626 0.904925 7370097 3
0.051013 0.229749 0.917393 6580327 3
0.069922 0.243120 0.970785 5856090 3
0.086027 0.243590 0.972661 5395026 3
0.020610 0.241556 0.905193 6580581 3
0.079657 0.240342 0.900645 7829367 3
0.097037 0.246937 0.925359 7829369 3
-0.138415 0.212973 0.978740 3487805 3
-0.119361 0.207778 0.954868 4342599 3
-0.157026 0.232810 0.994838 5658460 3
-0.137240 0.227098 0.970433 5132630 3
-0.115392 0.216027 0.923122 4868943 3
-0.171921 0.247077 0.986583 4803148 3
-0.153173 0.243032 0.970433 5132116 3
-0.134441 0.238076 0.950643 4737358 3
0.108036 0.207266 1.030253 6512228 3
0.124952 0.207266 1.030253 4539208 3
0.105266 0.218433 1.003836 6182750 3
0.123329 0.221270 1.016873 6380642 3
0.138230 0.234915 1.003836 5460567 3
0.140731 0.255946 1.021998 5986911 3
0.155802 0.253168 1.010908 5592153 3
0.060895 0.220311 1.095094 4934223 3
0.078875 0.220311 1.095094 5197136 3
0.089937 0.204574 1.016873 5591126 3
0.056915 0.222716 1.023519 5461080 3
0.074696 0.225666 1.037076 5460308 3
0.088784 0.218433 1.003836 5591124 3
-0.189505 0.218781 1.087489 3025714 3
-0.162615 0.207266 1.030253 3026740 3
-0.184383 0.230241 1.058097 3486777 3
-0.162615 0.224182 1.030253 4013635 3
-0.181048 0.243134 1.038954 5461080 3
-0.191410 0.251397 1.003836 3619128 3
-0.284773 0.210029 1.043989 3617334 3
-0.267631 0.210029 1.043989 2631211 3
-0.260927 0.218781 1.087489 3815485 3
-0.267631 0.227171 1.043989 3683899 3
-0.260927 0.236636 1.087489 4670794 3
-0.273605 0.249765 1.067293 5131345 3
-0.248224 0.242102 1.034545 5394774 3
-0.241427 0.252770 1.080133 4605512 3
-0.204420 0.250883 1.072069 5132367 3
-0.288553 0.264924 1.057849 5723480 3
-0.257215 0.251277 1.003355 5197138 3
-0.207892 0.251397 1.003836 5461080 3
-0.297798 0.274796 1.029756 5855066 3
0.817284 0.136478 0.738672 2039332 1
0.818379 0.132721 0.718341 2039593 1
0.828607 0.152934 0.760186 2039332 1
0.817284 0.148606 0.738672 789265 1
0.818379 0.144516 0.718341 2039591 1
0.818379 0.156310 0.718341 1513501 1
0.718294 0.138437 0.749275 2104867 1
0.730596 0.138437 0.749275 2236198 1
0.725541 0.135202 0.731768 1907233 1
0.704805 0.147908 0.735204 2499625 1
0.716876 0.147908 0.735204 2499370 1
0.722167 0.146532 0.728365 2104614 1
0.727360 0.145182 0.721652 2827567 1
0.739208 0.145182 0.721652 853777 1
0.700434 0.156310 0.718341 3946816 1
0.705754 0.154889 0.711811 2762546 1
0.717441 0.154889 0.711811 4340806 1
0.725829 0.154188 0.708590 2498602 1
0.737463 0.154188 0.708590 2631469 1
0.778342 0.157757 0.724993 1644573 1
0.790245 0.157757 0.724993 1184022 1
0.794790 0.156310 0.718341 1578780 1
0.704565 0.166296 0.710612 3617855 3
0.714195 0.165823 0.708590 5196117 3
0.667299 0.146127 0.790901 2565418 1
0.635360 0.136478 0.738672 2499370 1
0.647488 0.136478 0.738672 2367786 1
0.654313 0.159113 0.790901 3552570 1
0.617407 0.147217 0.731768 2565418 1
0.617873 0.144516 0.718341 1907488 1
0.635498 0.145854 0.724993 3288888 1
0.647401 0.145854 0.724993 1577500 1
0.650273 0.143856 0.715061 2433063 1
0.668115 0.145182 0.721652 2170660 1
0.686290 0.146532 0.728365 2039074 1
0.628627 0.168691 0.775240 3552571 3
0.605392 0.159232 0.731768 3355191 1
0.606078 0.156310 0.718341 2894383 1
0.612256 0.154889 0.711811 3025967 1
0.615549 0.152805 0.702235 3486265 3
0.629904 0.153494 0.705398 3552060 3
0.641486 0.153494 0.705398 3157300 3
0.662014 0.155596 0.715061 3157555 1
0.673755 0.155596 0.715061 2433832 1
0.688640 0.156310 0.718341 2236453 1
0.623836 0.183758 0.785230 4013635 3
0.616161 0.177822 0.759865 4013122 3
0.603213 0.170630 0.729134 3223605 3
0.602291 0.167054 0.713852 3157555 3
0.612256 0.166576 0.711811 3289139 3
0.627879 0.167627 0.716301 4276036 3
0.641833 0.168202 0.718757 2368299 3
0.658741 0.169516 0.724372 2302504 3
0.662014 0.167337 0.715061 3749692 3
0.669563 0.166296 0.710612 3749692 3
0.679679 0.165917 0.708995 4539208 3
0.697236 0.167337 0.715061 4275781 3
0.632538 0.199394 0.796183 2960947 3
0.601894 0.185892 0.742271 3618877 3
0.607614 0.176912 0.706414 3881276 3
0.632569 0.180728 0.721652 4407622 3
0.642386 0.180158 0.719376 4539466 3
0.653070 0.179848 0.718136 3750209 3
0.651855 0.176329 0.704088 3486265 3
0.622143 0.196774 0.737382 2697004 3
0.624363 0.193707 0.725887 2762795 3
0.632388 0.192522 0.721445 3749692 3
0.639448 0.191092 0.716086 3092020 3
0.650089 0.190764 0.714858 3355194 3
0.621194 0.150694 0.815617 2038051 1
0.607802 0.164086 0.815617 2695981 1
0.621194 0.164086 0.815617 2498602 1
0.697707 0.173101 0.860431 2697262 1
0.607802 0.177477 0.815617 3222325 3
0.621194 0.177477 0.815617 3551290 3
0.641265 0.179345 0.824202 3157812 3
0.600276 0.192752 0.823666 5526614 3
0.607802 0.190869 0.815617 4867918 3
0.618782 0.190128 0.812450 3420472 3
0.628043 0.188901 0.807208 4144707 3
0.382699 0.157246 0.851078 1908773 1
0.370876 0.179002 0.889764 4671564 3
0.360879 0.167577 0.832970 5198676 3
0.364852 0.163235 0.811391 4211014 3
0.328918 0.194718 0.894848 7039599 3
0.332220 0.188263 0.865185 6118751 3
0.337113 0.183202 0.841927 7697272 3
0.347203 0.181253 0.832970 4473926 3
0.353361 0.177477 0.815617 3487288 3
0.336778 0.196830 0.841092 6380640 3
0.342768 0.192440 0.822331 6513507 3
0.350857 0.189516 0.809836 5592664 3
0.027218 0.220864 1.195408 2302246 1
0.045797 0.215920 1.168645 3618106 1
0.062200 0.206666 1.118560 2697004 1
0.080565 0.206666 1.118560 2500395 1
0.027218 0.240492 1.195408 5460821 3
0.046141 0.236875 1.177432 3420984 3
0.045797 0.254296 1.168645 7171696 3
-0.228388 0.203755 1.102806 3026226 1
-0.216376 0.209661 1.134771 3090992 1
-0.246495 0.221862 1.102806 4604999 3
-0.231651 0.225032 1.118560 3355445 3
-0.210281 0.221862 1.102806 3617334 3
-0.246495 0.239969 1.102806 3618617 3
-0.231651 0.243397 1.118560 4276547 3
-0.210281 0.239969 1.102806 3684410 3
-0.228388 0.258076 1.102806 5724250 3
-0.395527 0.215920 1.168645 2960944 3
-0.360210 0.206666 1.118560 3025714 3
-0.395527 0.235108 1.168645 3552824 3
-0.376339 0.235108 1.168645 3420727 3
-0.341845 0.225032 1.118560 2696234 3
-0.323479 0.225032 1.118560 3683129 3
-0.395527 0.254296 1.168645 3618102 3
-0.370805 0.250556 1.151459 3551541 3
-0.346799 0.246925 1.134771 3288369 3
-0.328167 0.246925 1.134771 4604229 3
-0.305114 0.243397 1.118560 4077887 3
-0.395527 0.273484 1.168645 3354416 3
-0.372534 0.270719 1.156830 3551795 3
-0.348393 0.266777 1.139986 3946553 3
-0.328167 0.265557 1.134771 3748920 3
-0.306495 0.262948 1.123626 4341059 3
-0.380682 0.281687 1.124782 5591378 3
-0.365431 0.284188 1.134771 3486000 3
-0.346799 0.284188 1.134771 5591378 3
-0.324944 0.281397 1.123626 4407620 3
-0.355137 0.294290 1.102806 5065034 3
0.533004 0.138748 0.824202 2959406 1
0.561308 0.142498 0.846478 2565676 1
0.554235 0.137302 0.815617 1644833 1
0.533004 0.152280 0.824202 2301474 1
0.564359 0.157246 0.851078 1973279 1
0.584688 0.158974 0.860431 1907745 1
0.582804 0.154723 0.837425 1447195 1
0.587135 0.152280 0.824202 2433579 1
0.594410 0.150694 0.815617 2761776 1
0.516966 0.179002 0.889764 2565678 1
0.514051 0.173101 0.860431 3092281 1
0.505939 0.165813 0.824202 3092022 1
0.519472 0.165813 0.824202 2302246 1
0.527452 0.164086 0.815617 1578521 1
0.543675 0.164945 0.819887 3815483 1
0.594487 0.176002 0.874852 4473926 1
0.573602 0.165813 0.824202 4144707 1
0.587135 0.165813 0.824202 2630956 1
0.594410 0.164086 0.815617 2170407 1
0.543675 0.178406 0.819887 5394515 3
0.584688 0.187229 0.860431 5066063 3
0.589105 0.184192 0.846478 5658457 3
0.590241 0.180294 0.828563 4276293 3
0.594410 0.177477 0.815617 3683644 3
0.542791 0.191556 0.818553 3618104 3
0.559157 0.188021 0.803447 3751230 3
0.590047 0.193835 0.828291 5855836 3
0.313503 0.165799 0.984896 1052179 1
0.325579 0.163739 0.972661 2696749 1
0.303945 0.176422 0.954868 3552570 1
0.319623 0.176422 0.954868 2960434 1
0.331261 0.174297 0.943364 2828848 1
0.346750 0.174297 0.943364 2697261 1
0.362240 0.174297 0.943364 1513500 1
0.386238 0.171203 0.926618 1184536 1
0.394450 0.168216 0.910456 2106407 1
0.300283 0.189786 0.943364 4013632 3
0.315772 0.189786 0.943364 5987425 3
0.329278 0.188649 0.937715 2368297 3
0.344674 0.188649 0.937715 3486777 3
0.360070 0.188649 0.937715 3881535 3
0.364552 0.183165 0.910456 5525848 3
0.321575 0.199273 0.915780 6908526 3
0.222838 0.158807 0.943364 1512736 1
0.244211 0.162729 0.966657 1973798 1
0.263334 0.164763 0.978740 1380889 1
0.204880 0.172222 0.932133 2368297 1
0.222838 0.174297 0.943364 3355451 1
0.244211 0.178600 0.966657 2434602 1
0.263334 0.180833 0.978740 2368297 1
0.282941 0.183122 0.991129 1118230 1
0.295474 0.180833 0.978740 2302504 1
0.204880 0.187526 0.932133 2565676 3
0.220185 0.187526 0.932133 4408392 3
0.238327 0.189786 0.943364 3750460 3
0.260083 0.194472 0.966657 4539465 3
0.275954 0.194472 0.966657 4144707 3
0.288267 0.192100 0.954868 3684410 3
-0.053393 0.151506 0.899991 3156786 1
-0.053393 0.166283 0.899991 2367269 1
-0.038616 0.166283 0.899991 1840672 1
-0.023839 0.166283 0.899991 2038823 1
-0.038396 0.180025 0.894848 2236198 3
-0.023839 0.181060 0.899991 3091507 3
-0.082473 0.194718 0.894848 4013886 3
-0.038396 0.194718 0.894848 7565684 3
-0.078417 0.199111 0.850838 5132365 3
-0.064183 0.198295 0.847350 5987163 3
-0.088005 0.160744 0.954868 2763308 1
-0.072327 0.160744 0.954868 2631468 1
-0.084899 0.170195 0.921167 2368807 1
-0.072327 0.176422 0.954868 1512988 1
-0.009615 0.176422 0.954868 2631469 1
-0.083912 0.183165 0.910456 2763819 1
-0.070187 0.186417 0.926618 2368296 1
-0.054014 0.183165 0.910456 2827820 3
-0.009442 0.188649 0.937715 3749437 3
-0.098289 0.196969 0.905193 3553335 3
-0.068564 0.196969 0.905193 4802891 3
-0.053702 0.196969 0.905193 7039853 3
-0.023977 0.196969 0.905193 8684165 3
0.355639 0.172099 0.790901 3223606 3
0.354309 0.165416 0.760186 4012864 3
0.356410 0.160734 0.738672 4736332 3
0.366808 0.159979 0.735204 4605259 3
0.373617 0.157757 0.724993 5460570 3
0.381984 0.156310 0.718341 5197398 3
0.393778 0.156310 0.718341 4605771 3
0.350427 0.182372 0.779309 5723740 3
0.346580 0.174016 0.743603 4078402 3
0.350318 0.169908 0.726047 4539206 3
0.356087 0.167022 0.713716 2762797 3
0.366305 0.166341 0.710804 3355194 3
0.378511 0.166576 0.711811 2236459 3
0.390198 0.166576 0.711811 2763567 3
0.341335 0.197308 0.787858 6842472 3
0.335158 0.186664 0.745353 4868684 3
0.326666 0.175525 0.700877 7566197 3
0.327470 0.169970 0.678694 7039338 3
0.336768 0.169043 0.674993 7039340 3
0.347850 0.169043 0.674993 7104880 3
0.359030 0.169089 0.675176 7762812 3
0.372933 0.170376 0.680315 5131345 3
0.387679 0.171962 0.686648 4670792 3
0.397319 0.171258 0.683836 5525848 3
0.306276 0.181761 0.681123 7302771 3
0.315263 0.163251 0.611759 7499638 3
0.334866 0.168048 0.629734 8354947 3
0.363337 0.176874 0.662809 9934234 3
0.381306 0.180224 0.675360 7302512 3
0.396779 0.182238 0.682907 8026237 3
0.166914 0.164763 0.978740 2565929 1
0.176370 0.158807 0.943364 3026480 1
0.187345 0.155071 0.921167 3223346 1
0.166914 0.180833 0.978740 3289652 1
0.182984 0.180833 0.978740 3026737 1
0.194199 0.176422 0.954868 2960687 1
0.133937 0.195680 0.972661 5460567 3
0.148068 0.193279 0.960726 4802637 3
0.161856 0.190936 0.949081 4144961 3
0.180725 0.194472 0.966657 3882046 3
0.191859 0.189786 0.943364 4144707 3
0.575619 0.142460 0.937715 2039331 1
0.591016 0.142460 0.937715 2104867 1
0.579087 0.158807 0.943364 2368296 1
0.591016 0.157857 0.937715 2104097 1
0.577514 0.178600 0.966657 2829107 1
0.579087 0.174297 0.943364 2039591 1
0.591016 0.173253 0.937715 1709854 1
0.128329 0.178122 1.058097 2828335 1
0.143759 0.175747 1.043989 3420984 1
0.109477 0.192888 1.043989 3354679 1
0.126618 0.192888 1.043989 2236711 1
0.142807 0.191611 1.037076 3157812 1
0.154712 0.185469 1.003836 4013121 1
1.009455 0.113710 0.954868 1709086 1
1.015648 0.130182 0.960726 2104614 1
1.006046 0.146857 0.966657 2038821 1
1.021917 0.146857 0.966657 1710115 1
1.006717 0.157857 0.937715 591377 1
1.080335 0.183122 0.991129 1380891 1
1.000725 0.187526 0.932133 2105125 1
0.066473 0.161982 1.195408 2170917 1
0.084173 0.158356 1.168645 1776159 1
0.046845 0.181610 1.195408 2697261 1
0.064985 0.177544 1.168645 3092019 1
0.084173 0.177544 1.168645 2171431 1
0.046141 0.198211 1.177432 2960176 1
0.064029 0.193839 1.151459 2828847 1
0.082935 0.193839 1.151459 3224118 1
-0.856195 0.150575 0.991129 1315357 1
-0.839921 0.150575 0.991129 1183260 1
-0.823648 0.150575 0.991129 1051160 1
-0.807375 0.150575 0.991129 2761776 1
-0.856195 0.166848 0.991129 1447197 1
-0.829422 0.164763 0.978740 1249564 1
-0.813352 0.164763 0.978740 1578272 1
-0.807375 0.166848 0.991129 1248537 1
0.650770 0.172969 0.690668 3156785 3
0.654500 0.170980 0.682729 3683644 3
0.656088 0.168509 0.672861 5196883 3
0.659663 0.166622 0.665325 5460057 3
0.639306 0.184273 0.690534 3683644 3
0.288727 0.165311 0.619478 7566197 3
0.293010 0.162054 0.607273 7039851 3
0.299494 0.160189 0.600284 6710375 3
0.281959 0.184358 0.650809 5789784 3
0.200972 0.199509 0.665709 5920859 3
0.247692 0.185391 0.618601 6776679 3
-1.483220 0.321614 4.605836 657681 1
-1.407596 0.321614 4.605836 1644576 1
-1.483220 0.397238 4.605836 657681 1
-1.407596 0.397238 4.605836 1578529 1
-2.186460 0.303747 4.349956 1511709 1
-2.115038 0.303747 4.349956 1116949 1
-2.186460 0.375169 4.349956 460302 1
-1.972194 0.018059 4.349956 1380889 1
-1.900772 0.018059 4.349956 1249303 1
-1.972194 0.089481 4.349956 986131 1
-1.900772 0.089481 4.349956 1117717 1
-0.782662 -0.184555 1.665941 1117719 1
-0.763430 -0.186540 1.683854 2235432 1
-0.735783 -0.186540 1.683854 1249307 1
-0.708136 -0.186540 1.683854 1578270 1
-0.782662 -0.157202 1.665941 986133 1
-0.763430 -0.158893 1.683854 853779 1
-0.735783 -0.158893 1.683854 854549 1
-0.700602 -0.157202 1.665941 1513247 1
-0.782662 -0.129849 1.665941 1445916 1
-0.782662 -0.102496 1.665941 722961 1
-0.291212 -0.194212 0.860431 2169891 1
-0.274073 -0.192101 0.851078 1380123 1
-0.254565 -0.188014 0.832970 1446167 1
-0.243479 -0.190035 0.841927 1248024 1
-0.227212 -0.188014 0.832970 1511711 1
-0.211288 -0.186034 0.824202 1445918 1
-0.291212 -0.180084 0.860431 2301223 1
-0.277085 -0.180084 0.860431 1051156 1
-0.257303 -0.176212 0.841927 1971745 1
-0.246125 -0.178127 0.851078 919057 1
-0.229655 -0.176212 0.841927 920088 1
-0.215832 -0.176212 0.841927 1906214 1
-0.291212 -0.165957 0.860431 2103844 1
-0.277085 -0.165957 0.860431 525584 1
-0.257303 -0.162388 0.841927 1445914 1
-0.229655 -0.162388 0.841927 1117721 1
-0.288047 -0.150179 0.851078 1248022 1
-0.274073 -0.150179 0.851078 1314330 1
-0.254565 -0.146984 0.832970 1380891 1
-0.298773 -0.134741 0.841927 1445914 1
-0.288047 -0.136205 0.851078 1313815 1
-0.274073 -0.136205 0.851078 1248539 1
-0.295595 -0.119631 0.832970 920593 1
-0.281918 -0.119631 0.832970 985363 1
-0.271126 -0.120917 0.841927 1841444 1
-0.289437 -0.103747 0.815617 1710366 1
-0.276045 -0.103747 0.815617 854031 1
-0.265418 -0.104839 0.824202 2038819 1
-0.323017 -0.196370 0.869991 1249818 1
-0.308732 -0.196370 0.869991 2105125 1
-0.323017 -0.182085 0.869991 1052437 1
-0.308732 -0.182085 0.869991 1512477 1
-0.319467 -0.165957 0.860431 1381402 1
-0.305340 -0.165957 0.860431 1907235 1
-0.315995 -0.150179 0.851078 1446682 1
-0.302021 -0.150179 0.851078 1314328 1
-0.316220 -0.130530 0.815617 1183510 1
-0.309271 -0.133307 0.832970 1446682 1
-0.305340 -0.250722 0.860431 2300194 1
-0.315995 -0.234022 0.851078 1578529 1
-0.302021 -0.234022 0.851078 1182229 1
-0.315995 -0.220049 0.851078 986392 1
-0.305340 -0.222467 0.860431 1380121 1
-0.308732 -0.210654 0.869991 1841440 1
-0.262653 -0.251055 0.815617 1380121 1
-0.276045 -0.237663 0.815617 1446682 1
-0.265418 -0.240165 0.824202 1972258 1
-0.278951 -0.226632 0.824202 1775649 1
-0.265418 -0.226632 0.824202 1183514 1
-0.281918 -0.215367 0.832970 1116949 1
-0.268242 -0.215367 0.832970 1446432 1
-0.288047 -0.206075 0.851078 1445914 1
-0.274073 -0.206075 0.851078 1315100 1
-0.260099 -0.206075 0.851078 2169891 1
0.207348 0.205275 0.943364 6776168 3
0.222838 0.205275 0.943364 7105646 3
0.238327 0.205275 0.943364 6447714 3
0.256911 0.207778 0.954868 5658200 3
0.275954 0.210343 0.966657 5197647 3
0.284794 0.205275 0.943364 5131852 3
0.293218 0.200445 0.921167 4211265 3
0.208948 0.222467 0.950643 7960440 3
0.221014 0.218957 0.935643 6908263 3
0.235489 0.218136 0.932133 5855577 3
0.250794 0.218136 0.932133 7434357 3
0.272875 0.223690 0.955868 7829367 3
0.286991 0.222467 0.950643 6776931 3
0.293082 0.215469 0.920740 7303536 3
0.203994 0.232431 0.928104 6710373 3
0.217594 0.230694 0.921167 7630959 3
0.230693 0.228686 0.913149 8288637 3
-0.086945 -0.398800 0.943364 1642782 1
-0.071455 -0.398800 0.943364 985104 1
-0.055300 -0.394053 0.932133 1117719 1
-0.040477 -0.398800 0.943364 1907237 1
-0.024691 -0.394053 0.932133 853779 1
-0.084899 -0.374292 0.921167 1511709 1
-0.069774 -0.374292 0.921167 1905952 1
-0.084899 -0.359167 0.921167 985365 1
-0.068963 -0.354991 0.910456 1379608 1
-0.068963 -0.340042 0.910456 985365 1
-0.054014 -0.340042 0.910456 1446168 1
-0.054649 -0.328918 0.921167 1248535 1
-0.133412 -0.398800 0.943364 2236200 1
-0.102434 -0.398800 0.943364 920342 1
-0.148901 -0.383311 0.943364 2367016 1
-0.131824 -0.378748 0.932133 1708573 1
-0.100023 -0.374292 0.921167 1972260 1
-0.145397 -0.359167 0.921167 1709340 1
-0.130273 -0.359167 0.921167 1313815 1
-0.145397 -0.344043 0.921167 919823 1
-0.143707 -0.325094 0.910456 2170656 1
0.006063 -0.466376 0.954868 1118230 1
0.021741 -0.466376 0.954868 1512988 1
0.006138 -0.456262 0.966657 657679 1
0.021224 -0.439967 0.932133 1250329 1
0.021224 -0.424662 0.932133 855058 1
0.006063 -0.419342 0.954868 1184025 1
0.021224 -0.409357 0.932133 789267 1
0.006063 -0.403664 0.954868 1183771 1
-0.156440 -0.484086 0.991129 1710367 1
-0.140167 -0.484086 0.991129 920601 1
-0.103683 -0.466376 0.954868 1052698 1
-0.154485 -0.461965 0.978740 1249564 1
-0.136706 -0.456262 0.966657 920859 1
-0.103683 -0.450698 0.954868 986905 1
-0.135039 -0.435020 0.954868 1052700 1
-0.119361 -0.435020 0.954868 1315872 1
-0.102434 -0.429778 0.943364 854806 1
-0.135039 -0.419342 0.954868 1775908 1
-0.119361 -0.419342 0.954868 986905 1
-0.102434 -0.414289 0.943364 920342 1
-0.150717 -0.403664 0.954868 1446684 1
-0.119361 -0.403664 0.954868 1118232 1
-0.040971 -0.497732 0.954868 1117978 1
-0.024691 -0.485881 0.932133 1249303 1
-0.055966 -0.476246 0.943364 1512479 1
-0.040477 -0.476246 0.943364 1578272 1
-0.024691 -0.470576 0.932133 854547 1
-0.009275 -0.465040 0.921167 986131 1
-0.088005 -0.466376 0.954868 657681 1
-0.055966 -0.460757 0.943364 1511196 1
-0.040477 -0.460757 0.943364 656400 1
-0.024988 -0.460757 0.943364 787986 1
-0.009386 -0.455271 0.932133 854547 1
-0.088005 -0.450698 0.954868 788756 1
-0.071455 -0.445268 0.943364 196622 1
-0.055300 -0.439967 0.932133 1249307 1
-0.039995 -0.439967 0.932133 1051928 1
-0.009499 -0.445268 0.943364 854547 1
-0.086945 -0.429778 0.943364 1182744 1
-0.071455 -0.429778 0.943364 1051160 1
-0.055300 -0.424662 0.932133 723220 1
-0.039995 -0.424662 0.932133 1315100 1
-0.024116 -0.414786 0.910456 1972260 1
-0.009275 -0.419666 0.921167 1051926 1
-0.086945 -0.414289 0.943364 1709088 1
-0.071455 -0.414289 0.943364 1906467 1
-0.055300 -0.409357 0.932133 1315098 1
-0.039995 -0.409357 0.932133 1315100 1
-0.024400 -0.404541 0.921167 1972260 1
-0.009499 -0.414289 0.943364 1512477 1
-0.009615 -0.403664 0.954868 1512477 1
-0.160504 -0.580140 1.016873 1118483 1
-0.143808 -0.580140 1.016873 1578783 1
-0.160504 -0.563444 1.016873 395017 1
-0.141964 -0.556220 1.003836 1052439 1
-0.158446 -0.539738 1.003836 1512987 1
-0.141964 -0.539738 1.003836 789267 1
-0.141964 -0.523256 1.003836 1578529 1
-0.158446 -0.506774 1.003836 1315609 1
-0.167011 -0.655778 1.058097 1512987 1
-0.149638 -0.655778 1.058097 919824 1
-0.162615 -0.621605 1.030253 986897 1
-0.147642 -0.629893 1.043989 854545 1
-0.162615 -0.604689 1.030253 921104 1
-2.069705 -2.974638 3.641824 723471 1
-2.009910 -2.974638 3.641824 1446167 1
-2.069705 -2.914843 3.641824 2170917 1
-2.009910 -2.914843 3.641824 789007 1
