# .PCD v0.7 - Point Cloud Data file format
VERSION 0.7
FIELDS x y z rgb label
SIZE 4 4 4 4 4
TYPE F F F F U
COUNT 1 1 1 1 1
WIDTH 2401
HEIGHT 1
VIEWPOINT 0 0 0 1 0 0 0
POINTS 2401
DATA ascii
4.02775 -0.34215 3.81947 2.85412e-39 1
3.45456 -0.280563 3.13197 1.84105e-39 1
3.50517 -0.280563 3.13197 3.22398e-39 1
3.75313 -0.261316 3.55905 1.83997e-39 1
3.35336 -0.229958 3.13197 1.74778e-39 1
3.27304 -0.221114 3.01151 3.59277e-39 1
3.25902 -0.216942 2.95469 3.49986e-39 1
3.07471 -0.201718 2.74734 1.74778e-39 1
-2.20343 0.0575537 2.44685 2.94919e-39 3
-2.09833 0.0558097 2.3727 3.41017e-39 3
-2.12436 0.0575537 2.44685 2.7648e-39 3
-2.02165 0.0558097 2.3727 3.50237e-39 3
-1.98331 0.0558097 2.3727 3.13286e-39 3
-1.68906 0.0484663 2.06051 2.6726e-39 3
-1.28406 0.0375861 1.59794 2.76516e-39 3
-1.25825 0.0375861 1.59794 2.48893e-39 3
-0.943577 0.0287769 1.22343 2.58112e-39 3
-0.92381 0.0287769 1.22343 2.7648e-39 3
-3.21437 0.102318 4.34996 3.1325e-39 3
-3.25462 0.108336 4.60584 2.48749e-39 3
-2.95694 0.108336 4.60584 3.31833e-39 3
-0.768672 0.0418573 1.77953 1.38222e-39 3
-2.1639 0.0970885 2.44685 3.04246e-39 3
-2.12436 0.0970885 2.44685 2.67332e-39 3
-2.08483 0.0970885 2.44685 2.857e-39 3
-1.98331 0.0941464 2.3727 3.13394e-39 3
-1.88777 0.0913774 2.30292 2.76516e-39 3
-1.42998 0.0706098 1.77953 3.1343e-39 3
-1.25825 0.0634047 1.59794 3.22685e-39 3
-1.23243 0.0634047 1.59794 3.41124e-39 3
-3.47787 0.182755 4.60584 3.50236e-39 3
-3.40345 0.182755 4.60584 2.76516e-39 3
-3.32904 0.182755 4.60584 2.5804e-39 3
-3.25462 0.182755 4.60584 2.67332e-39 3
-3.1802 0.182755 4.60584 3.0421e-39 3
-3.10578 0.182755 4.60584 3.31833e-39 3
-3.03136 0.182755 4.60584 3.31832e-39 3
-2.95694 0.182755 4.60584 3.50272e-39 3
-2.88252 0.182755 4.60584 3.31833e-39 3
0.224896 0.0450266 1.13477 2.39709e-39 3
0.258199 0.0477974 1.2046 2.48893e-39 3
0.277662 0.0477974 1.2046 2.58041e-39 3
0.306558 0.0493148 1.24284 2.39529e-39 3
0.354798 0.0535661 1.34999 2.67296e-39 3
-3.64446 0.230102 4.12101 3.77967e-39 3
-2.34412 0.150757 2.69997 4.24029e-39 3
-2.3005 0.150757 2.69997 3.96262e-39 3
-2.07046 0.14103 2.52578 4.05482e-39 3
-2.02965 0.14103 2.52578 3.13465e-39 3
-2.126 0.150757 2.69997 3.68854e-39 3
-3.17836 0.230102 4.12101 3.41124e-39 3
-3.47787 0.257173 4.60584 3.87186e-39 3
-3.40345 0.257173 4.60584 3.50272e-39 3
-3.0738 0.242886 4.34996 3.78074e-39 3
-3.1802 0.257173 4.60584 3.13537e-39 3
-3.10578 0.257173 4.60584 2.58184e-39 3
-3.03136 0.257173 4.60584 3.50343e-39 3
-2.79267 0.242886 4.34996 3.78002e-39 3
-2.88252 0.257173 4.60584 4.14881e-39 3
-2.09731 0.187902 2.60997 4.14881e-39 3
-2.80246 0.25623 3.55905 3.96513e-39 3
-3.47787 0.331592 4.60584 4.14845e-39 3
-3.21437 0.31317 4.34996 3.9637e-39 3
-3.14409 0.31317 4.34996 3.68711e-39 3
-3.0738 0.31317 4.34996 4.42575e-39 3
-3.00352 0.31317 4.34996 3.78074e-39 3
-2.93324 0.31317 4.34996 4.05733e-39 3
-2.86295 0.31317 4.34996 4.241e-39 3
-2.95694 0.331592 4.60584 4.0566e-39 3
-3.06268 0.352316 4.8937 4.14881e-39 3
-2.21325 0.238006 2.69997 4.241e-39 3
-2.09731 0.230072 2.60997 4.42539e-39 3
-2.05514 0.230072 2.60997 3.04317e-39 3
-2.74495 0.313735 3.55905 4.05697e-39 3
-3.47787 0.40601 4.60584 3.68819e-39 3
-3.21437 0.383454 4.34996 4.51723e-39 3
-2.57244 0.313735 3.55905 4.241e-39 3
-2.63469 0.328675 3.72853 4.1488e-39 3
-3.00352 0.383454 4.34996 3.3194e-39 3
-2.93324 0.383454 4.34996 3.78074e-39 3
-3.03136 0.40601 4.60584 3.96513e-39 3
-2.95694 0.40601 4.60584 4.05697e-39 3
-3.06268 0.431386 4.8937 4.42611e-39 3
-2.98361 0.431386 4.8937 3.78038e-39 3
-0.836399 0.143795 1.63123 5.44098e-39 3
-0.762393 0.135337 1.53528 4.15025e-39 3
-0.752338 0.138043 1.56598 5.16368e-39 3
-0.727036 0.138043 1.56598 6.26967e-39 3
-0.730973 0.143795 1.63123 6.08491e-39 3
0.479512 0.197205 2.23712 7.74623e-39 3
1.12023 0.081202 0.921167 5.80762e-39 3
-2.02965 0.263461 2.52578 4.05733e-39 3
-1.98884 0.263461 2.52578 5.34735e-39 3
-2.01296 0.272243 2.60997 4.51866e-39 3
-2.68745 0.37124 3.55905 5.07112e-39 3
-2.22533 0.314126 3.01151 5.34771e-39 3
-2.17668 0.314126 3.01151 4.88637e-39 3
-2.51493 0.37124 3.55905 4.97856e-39 3
-2.57445 0.388918 3.72853 5.43954e-39 3
-2.5142 0.388918 3.72853 5.62465e-39 3
-2.57666 0.408364 3.91496 4.8878e-39 3
-2.95694 0.480428 4.60584 5.07147e-39 3
-0.900266 0.17755 1.70216 5.81012e-39 3
-0.836399 0.170152 1.63123 5.71793e-39 3
-0.762393 0.160143 1.53528 5.44098e-39 3
-0.752338 0.163346 1.56598 5.62538e-39 3
-0.727036 0.163346 1.56598 6.08527e-39 3
-0.716055 0.166679 1.59794 7.28417e-39 3
-0.704616 0.170152 1.63123 6.36257e-39 3
0.508574 0.247493 2.3727 6.91646e-39 3
1.1015 0.098401 0.943364 4.88602e-39 3
1.11674 0.098401 0.943364 4.14845e-39 3
1.10535 0.0960857 0.921167 4.33284e-39 3
1.38 0.118366 1.13477 4.05626e-39 3
-2.07046 0.304271 2.52578 4.14952e-39 3
-1.96622 0.294762 2.44685 4.51759e-39 3
-1.92669 0.294762 2.44685 5.25515e-39 3
-2.51493 0.428745 3.55905 5.16259e-39 3
-2.70317 0.47162 3.91496 4.79417e-39 3
-2.63991 0.47162 3.91496 5.44026e-39 3
-2.71227 0.496442 4.12101 5.44134e-39 3
-0.900266 0.205052 1.70216 7.28525e-39 3
-0.836399 0.196508 1.63123 6.91611e-39 3
-0.77764 0.188648 1.56598 7.1005e-39 3
-0.752338 0.188648 1.56598 7.19198e-39 3
-0.741873 0.192498 1.59794 7.28417e-39 3
-0.730973 0.196508 1.63123 7.83626e-39 3
-0.704616 0.196508 1.63123 7.19126e-39 3
-0.298457 0.207305 1.72086 8.29975e-39 3
-0.270652 0.207305 1.72086 1.08809e-38 3
-0.242847 0.207305 1.72086 9.40467e-39 3
0.985557 0.269497 2.23712 6.91539e-39 3
2.47093 0.25493 2.11619 4.14846e-39 3
2.2069 0.224581 1.86427 2.48858e-39 3
2.23702 0.224581 1.86427 3.96406e-39 3
2.50579 0.248221 2.06051 4.05626e-39 3
-1.96622 0.334297 2.44685 6.45369e-39 3
-1.42258 0.356584 2.60997 7.56076e-39 3
-0.941187 0.243125 1.77953 7.09978e-39 3
-0.872764 0.232554 1.70216 7.1927e-39 3
-0.810042 0.222865 1.63123 7.09978e-39 3
-0.767692 0.218316 1.59794 6.54661e-39 3
-0.757329 0.222865 1.63123 7.74443e-39 3
-0.730973 0.222865 1.63123 7.46784e-39 3
-0.59919 0.222865 1.63123 8.11393e-39 3
-0.597739 0.232554 1.70216 7.37637e-39 3
-0.672587 0.274295 2.00767 7.19198e-39 3
-0.713308 0.305643 2.23712 7.28417e-39 3
-0.677162 0.305643 2.23712 8.11393e-39 3
-0.641016 0.305643 2.23712 7.10014e-39 3
-0.588068 0.297153 2.17498 7.37637e-39 3
-0.545352 0.293082 2.14518 7.37745e-39 3
-0.477954 0.274295 2.00767 7.93062e-39 3
-0.413693 0.254703 1.86427 7.83806e-39 3
-0.370345 0.24592 1.79998 1.12511e-38 3
-0.329886 0.237722 1.73998 1.44769e-38 3
-0.298457 0.23511 1.72086 1.2172e-38 3
-0.270652 0.23511 1.72086 9.7738e-39 3
-0.242847 0.23511 1.72086 8.85113e-39 3
-0.212705 0.232554 1.70216 9.31247e-39 3
-0.183211 0.230054 1.68385 1.02344e-38 3
-0.156005 0.230054 1.68385 1.01415e-38 3
-0.128798 0.230054 1.68385 1.15248e-38 3
0.30559 0.251706 1.84233 9.40575e-39 3
0.313246 0.23511 1.72086 9.40575e-39 3
0.356731 0.24592 1.79998 7.65368e-39 3
0.643772 0.356584 2.60997 8.48379e-39 3
0.685942 0.356584 2.60997 8.85149e-39 3
1.03842 0.334297 2.44685 9.22136e-39 3
0.985557 0.305643 2.23712 8.66711e-39 3
1.16338 0.314633 2.30292 7.56148e-39 3
1.61866 0.411443 3.01151 6.82355e-39 3
1.66732 0.411443 3.01151 7.65295e-39 3
1.71598 0.411443 3.01151 7.19126e-39 3
4.15566 0.48625 3.55905 3.68676e-39 3
3.31035 0.382054 2.7964 3.04139e-39 3
3.35553 0.382054 2.7964 3.22578e-39 3
3.40071 0.382054 2.7964 3.68676e-39 3
-1.42258 0.398754 2.60997 7.00759e-39 3
-1.03531 0.299066 1.95748 7.92954e-39 3
-0.912435 0.271878 1.77953 7.74515e-39 3
-0.845261 0.260057 1.70216 7.9299e-39 3
-0.80036 0.254524 1.66594 7.83663e-39 3
-0.757329 0.249221 1.63123 9.58834e-39 3
-0.730973 0.249221 1.63123 1.16163e-38 3
-0.719608 0.254524 1.66594 1.02337e-38 3
-0.59919 0.249221 1.63123 7.37565e-39 3
-0.572834 0.249221 1.63123 8.02173e-39 3
-0.570237 0.260057 1.70216 9.12808e-39 3
-0.554795 0.265836 1.73998 1.02355e-38 3
-0.564302 0.284824 1.86427 9.40575e-39 3
-0.53418 0.284824 1.86427 9.68234e-39 3
-0.542832 0.306734 2.00767 9.77453e-39 3
-0.473937 0.284824 1.86427 1.07887e-38 3
-0.418881 0.268823 1.75953 1.07876e-38 3
-0.390452 0.268823 1.75953 1.0972e-38 3
-0.362022 0.268823 1.75953 1.01437e-38 3
-0.322715 0.260057 1.70216 1.09734e-38 3
-0.292038 0.257261 1.68385 1.10645e-38 3
-0.264831 0.257261 1.68385 1.19858e-38 3
-0.237625 0.257261 1.68385 1.16152e-38 3
-0.210418 0.257261 1.68385 1.11557e-38 3
-0.179354 0.251845 1.6484 1.0695e-38 3
-0.15272 0.251845 1.6484 1.10638e-38 3
-0.0508658 0.175921 1.15146 1.17096e-38 3
0.0333662 0.249221 1.63123 1.28123e-38 3
0.0597227 0.249221 1.63123 1.3551e-38 3
0.187597 0.244135 1.59794 1.02344e-38 3
0.213416 0.244135 1.59794 1.03273e-38 3
0.254836 0.260057 1.70216 8.02281e-39 3
0.285441 0.262915 1.72086 9.40503e-39 3
0.313246 0.262915 1.72086 1.07876e-38 3
0.341051 0.262915 1.72086 1.05117e-38 3
0.377144 0.268823 1.75953 1.03277e-38 3
0.564001 0.373832 2.44685 1.03277e-38 3
0.495209 0.306734 2.00767 1.0511e-38 3
0.643071 0.373832 2.44685 1.0695e-38 3
0.747329 0.332295 2.17498 8.57598e-39 3
0.761323 0.323314 2.11619 9.22135e-39 3
0.817613 0.332295 2.17498 9.22028e-39 3
0.877119 0.341789 2.23712 9.12916e-39 3
0.940126 0.351842 2.30292 9.95964e-39 3
1.03842 0.373832 2.44685 9.59014e-39 3
1.07795 0.373832 2.44685 8.76002e-39 3
1.11749 0.373832 2.44685 9.12808e-39 3
1.08896 0.351842 2.30292 9.03661e-39 3
1.12617 0.351842 2.30292 7.65368e-39 3
1.23609 0.373832 2.44685 8.29905e-39 3
1.57 0.460101 3.01151 8.39052e-39 3
1.61866 0.460101 3.01151 8.6671e-39 3
1.60557 0.44306 2.89997 8.20613e-39 3
1.43921 0.385891 2.52578 8.29761e-39 3
1.39032 0.362504 2.3727 7.92882e-39 3
1.38316 0.341789 2.23712 6.73172e-39 3
1.34259 0.323314 2.11619 7.65368e-39 3
1.18467 0.2782 1.82091 8.482e-39 3
1.13491 0.260057 1.70216 7.65223e-39 3
1.24352 0.2782 1.82091 6.63701e-39 3
1.21636 0.265836 1.73998 7.74299e-39 3
1.24448 0.265836 1.73998 8.20397e-39 3
-1.29507 0.426701 2.52578 8.66747e-39 3
-0.925762 0.314946 1.86427 7.92991e-39 3
-0.817759 0.287559 1.70216 8.20577e-39 3
-0.773443 0.281441 1.66594 8.85114e-39 3
-0.746525 0.281441 1.66594 8.75894e-39 3
-0.719608 0.281441 1.66594 9.77309e-39 3
-0.67826 0.275578 1.63123 8.66711e-39 3
-0.651903 0.275578 1.63123 8.66675e-39 3
-0.61278 0.269954 1.59794 9.77237e-39 3
-0.586962 0.269954 1.59794 9.6809e-39 3
-0.561143 0.269954 1.59794 1.00497e-38 3
-0.546477 0.275578 1.63123 1.1433e-38 3
-0.542734 0.287559 1.70216 1.10646e-38 3
-0.515232 0.287559 1.70216 1.06965e-38 3
-0.509899 0.30063 1.77953 1.11578e-38 3
-0.522727 0.326611 1.93331 1.13419e-38 3
-0.473937 0.314946 1.86427 1.18936e-38 3
-0.414227 0.29395 1.73998 1.16174e-38 3
-0.386114 0.29395 1.73998 1.0695e-38 3
-0.358 0.29395 1.73998 1.23553e-38 3
-0.322715 0.287559 1.70216 1.14337e-38 3
-0.292038 0.284467 1.68385 1.22627e-38 3
-0.264831 0.284467 1.68385 1.19843e-38 3
-0.235097 0.281441 1.66594 1.29049e-38 3
-0.208179 0.281441 1.66594 1.26294e-38 3
-0.177486 0.275578 1.63123 1.28152e-38 3
-0.142239 0.259367 1.53528 1.28137e-38 3
-0.0981819 0.216848 1.28359 1.28141e-38 3
-0.0715755 0.20042 1.18635 1.27226e-38 3
-0.0501286 0.191706 1.13477 1.24471e-38 3
-0.0317936 0.191706 1.13477 1.34602e-38 3
-0.0134587 0.191706 1.13477 1.5025e-38 3
0.0333662 0.275578 1.63123 1.4102e-38 3
0.0597227 0.275578 1.63123 1.39201e-38 3
0.0860792 0.275578 1.63123 1.19851e-38 3
0.158543 0.264555 1.56598 9.31391e-39 3
0.183845 0.264555 1.56598 1.02344e-38 3
0.209147 0.264555 1.56598 1.1895e-38 3
0.246789 0.278479 1.6484 1.2356e-38 3
0.279303 0.284467 1.68385 1.15259e-38 3
0.303249 0.281441 1.66594 1.05117e-38 3
0.330166 0.281441 1.66594 1.00515e-38 3
0.360923 0.284467 1.68385 1.00511e-38 3
0.38813 0.284467 1.68385 1.08802e-38 3
0.429181 0.29395 1.73998 1.10638e-38 3
0.605243 0.389051 2.30292 1.17088e-38 3
0.642452 0.389051 2.30292 1.21698e-38 3
0.49167 0.281441 1.66594 1.18014e-38 3
0.524163 0.284467 1.68385 1.13404e-38 3
0.610446 0.314946 1.86427 1.14333e-38 3
0.672596 0.330693 1.95748 1.05121e-38 3
0.722281 0.339173 2.00767 9.86744e-39 3
0.754719 0.339173 2.00767 9.866e-39 3
0.852755 0.367437 2.17498 1.00511e-38 3
0.913265 0.377935 2.23712 9.68269e-39 3
1.00695 0.40084 2.3727 9.40647e-39 3
1.07795 0.413367 2.44685 9.12953e-39 3
1.11749 0.413367 2.44685 9.58978e-39 3
1.12196 0.40084 2.3727 9.40539e-39 3
1.1603 0.40084 2.3727 9.40539e-39 3
1.19863 0.40084 2.3727 8.66819e-39 3
1.27563 0.413367 2.44685 8.48379e-39 3
1.50304 0.472419 2.7964 8.94441e-39 3
1.54822 0.472419 2.7964 7.83699e-39 3
1.43921 0.426701 2.52578 7.28345e-39 3
1.39032 0.40084 2.3727 7.46785e-39 3
1.34702 0.377935 2.23712 7.37637e-39 3
0.99816 0.272737 1.61442 7.93027e-39 3
1.02424 0.272737 1.61442 7.46893e-39 3
1.11958 0.290719 1.72086 9.40467e-39 3
1.12271 0.284467 1.68385 8.85078e-39 3
1.16242 0.287559 1.70216 9.77022e-39 3
1.17712 0.284467 1.68385 9.40108e-39 3
1.21742 0.287559 1.70216 1.00457e-38 3
1.33178 0.307622 1.82091 9.76914e-39 3
-0.895641 0.345068 1.86427 8.66818e-39 3
-0.790256 0.315062 1.70216 9.12916e-39 3
-0.643792 0.265924 1.43668 8.11501e-39 3
-0.603957 0.258801 1.3982 9.40611e-39 3
-0.67826 0.301934 1.63123 9.6827e-39 3
-0.651903 0.301934 1.63123 1.005e-38 3
-0.526776 0.25426 1.37367 9.58834e-39 3
-0.504581 0.25426 1.37367 8.66674e-39 3
-0.54992 0.289857 1.56598 1.07872e-38 3
-0.535324 0.295772 1.59794 1.0972e-38 3
-0.520121 0.301934 1.63123 1.18021e-38 3
-0.50427 0.308358 1.66594 1.02355e-38 3
-0.498568 0.322063 1.73998 9.6827e-39 3
-0.481147 0.329383 1.77953 1.07876e-38 3
-0.452394 0.329383 1.77953 1.06954e-38 3
-0.388338 0.301934 1.63123 1.03266e-38 3
-0.361981 0.301934 1.63123 1.0511e-38 3
-0.335625 0.301934 1.63123 1.17096e-38 3
-0.30608 0.298822 1.61442 1.13404e-38 3
-0.279995 0.298822 1.61442 1.29074e-38 3
-0.259256 0.305113 1.6484 1.45651e-38 3
-0.235097 0.308358 1.66594 1.43796e-38 3
-0.208179 0.308358 1.66594 1.24442e-38 3
-0.177486 0.301934 1.63123 1.52108e-38 3
-0.118921 0.237588 1.28359 1.56697e-38 3
-0.0907439 0.219589 1.18635 1.46562e-38 3
-0.0613505 0.188219 1.01687 1.51186e-38 3
-0.051625 0.216311 1.16864 1.43829e-38 3
-0.0332388 0.219589 1.18635 1.44736e-38 3
-0.0136566 0.21313 1.15146 1.77891e-38 3
0.0333662 0.301934 1.63123 1.49306e-38 3
0.0597227 0.301934 1.63123 1.13401e-38 3
0.082636 0.289857 1.56598 1.22634e-38 3
0.133241 0.289857 1.56598 1.14355e-38 3
0.155434 0.284173 1.53528 1.12507e-38 3
0.18024 0.284173 1.53528 9.03696e-39 3
0.203056 0.281414 1.52037 1.125e-38 3
0.232128 0.286987 1.55048 1.1434e-38 3
0.267785 0.298822 1.61442 1.15262e-38 3
0.290871 0.295772 1.59794 1.17106e-38 3
0.313491 0.292785 1.5818 1.23557e-38 3
0.335659 0.289857 1.56598 1.19872e-38 3
0.360961 0.289857 1.56598 1.22627e-38 3
0.402357 0.301934 1.63123 1.20776e-38 3
0.527648 0.371611 2.00767 1.22617e-38 3
0.507985 0.337043 1.82091 1.35524e-38 3
0.476464 0.298822 1.61442 1.2262e-38 3
0.524163 0.311674 1.68385 1.21702e-38 3
0.557363 0.315062 1.70216 1.25397e-38 3
0.640567 0.345068 1.86427 1.17114e-38 3
0.722281 0.371611 2.00767 1.2173e-38 3
0.754719 0.371611 2.00767 1.01437e-38 3
0.689869 0.325682 1.75953 1.19872e-38 3
0.913265 0.414081 2.23712 1.02362e-38 3
0.977335 0.42626 2.30292 1.0421e-38 3
1.07795 0.452901 2.44685 1.06043e-38 3
1.11749 0.452901 2.44685 8.85258e-39 3
1.15702 0.452901 2.44685 9.12881e-39 3
1.19656 0.452901 2.44685 1.08805e-38 3
1.23609 0.452901 2.44685 9.40539e-39 3
1.27563 0.452901 2.44685 1.00508e-38 3
1.48718 0.483095 2.60997 1.05103e-38 3
1.43377 0.452901 2.44685 9.86493e-39 3
1.42866 0.439177 2.3727 9.86637e-39 3
1.00856 0.301934 1.63123 1.00508e-38 3
1.2419 0.362321 1.95748 8.20577e-39 3
1.13202 0.322063 1.73998 9.49615e-39 3
1.14739 0.318524 1.72086 9.40179e-39 3
1.17519 0.318524 1.72086 1.15201e-38 3
1.17712 0.311674 1.68385 1.14276e-38 3
1.24448 0.322063 1.73998 1.17045e-38 3
-0.757329 0.328291 1.63123 9.6827e-39 3
-0.621003 0.278902 1.38583 9.68234e-39 3
-0.573247 0.267084 1.32711 1.00515e-38 3
-0.651129 0.315159 1.56598 9.6827e-39 3
-0.625827 0.315159 1.56598 1.06032e-38 3
-0.522195 0.274051 1.36173 1.03266e-38 3
-0.500193 0.274051 1.36173 1.16174e-38 3
-0.528769 0.303038 1.50575 1.16174e-38 3
-0.514331 0.30898 1.53528 1.12486e-38 3
-0.499316 0.315159 1.56598 1.12493e-38 3
-0.493764 0.328291 1.63123 1.11578e-38 3
-0.467407 0.328291 1.63123 1.11578e-38 3
-0.465285 0.346329 1.72086 1.1894e-38 3
-0.410419 0.324906 1.61442 1.19862e-38 3
-0.372804 0.315159 1.56598 1.10642e-38 3
-0.344062 0.312039 1.55048 1.23549e-38 3
-0.31901 0.312039 1.55048 1.18943e-38 3
-0.296898 0.315159 1.56598 1.10635e-38 3
-0.274339 0.318343 1.5818 1.29992e-38 3
-0.256555 0.328291 1.63123 1.39197e-38 3
-0.232622 0.331746 1.6484 1.46562e-38 3
-0.208179 0.335276 1.66594 1.44715e-38 3
-0.141989 0.262633 1.30499 1.36431e-38 3
-0.109912 0.238757 1.18635 1.5576e-38 3
-0.0772787 0.203328 1.01031 1.51158e-38 3
-0.0613505 0.204649 1.01687 1.40134e-38 3
-0.051625 0.235193 1.16864 1.3368e-38 3
-0.0342775 0.246218 1.22343 1.40126e-38 3
-0.0142869 0.24243 1.2046 1.4747e-38 3
0.00525725 0.246218 1.22343 1.43771e-38 3
0.0314035 0.30898 1.53528 1.38265e-38 3
0.0573338 0.315159 1.56598 1.10638e-38 3
0.0677344 0.258327 1.28359 9.03696e-39 3
0.107938 0.315159 1.56598 1.01437e-38 3
0.130628 0.30898 1.53528 1.13426e-38 3
0.152445 0.303038 1.50575 1.12507e-38 3
0.18024 0.30898 1.53528 1.89033e-38 3
0.209147 0.315159 1.56598 1.71509e-38 3
0.229852 0.30898 1.53528 1.1895e-38 3
0.25718 0.312039 1.55048 1.23549e-38 3
0.285054 0.315159 1.56598 1.19861e-38 3
0.307283 0.312039 1.55048 1.30007e-38 3
0.329077 0.30898 1.53528 1.31847e-38 3
0.350447 0.30598 1.52037 1.32758e-38 3
0.390165 0.318343 1.5818 1.35524e-38 3
0.415722 0.318343 1.5818 1.36446e-38 3
0.507985 0.366464 1.82091 1.41978e-38 3
0.476464 0.324906 1.61442 1.43825e-38 3
0.553945 0.358135 1.77953 1.2262e-38 3
0.576151 0.354111 1.75953 1.31847e-38 3
0.591293 0.346329 1.72086 1.23556e-38 3
0.59303 0.331746 1.6484 1.40173e-38 3
0.63299 0.338881 1.68385 1.43857e-38 3
0.682204 0.350177 1.73998 1.19869e-38 3
0.726461 0.358135 1.77953 1.125e-38 3
0.755213 0.358135 1.77953 1.09738e-38 3
1.07795 0.492436 2.44685 1.09731e-38 3
1.11749 0.492436 2.44685 1.0327e-38 3
1.15702 0.492436 2.44685 1.08798e-38 3
1.19656 0.492436 2.44685 1.07873e-38 3
1.23609 0.492436 2.44685 1.0511e-38 3
1.4733 0.492436 2.44685 1.12493e-38 3
0.987974 0.321591 1.59794 9.4054e-39 3
1.02424 0.324906 1.61442 1.04181e-38 3
1.10741 0.342564 1.70216 1.1707e-38 3
1.14739 0.346329 1.72086 1.16127e-38 3
1.17519 0.346329 1.72086 1.17953e-38 3
1.18992 0.342564 1.70216 1.18875e-38 3
1.30236 0.366464 1.82091 1.12432e-38 3
-0.737586 0.333786 1.53528 8.48416e-39 3
-0.71278 0.333786 1.53528 9.40719e-39 3
-0.579945 0.281373 1.2942 9.6827e-39 3
-0.559034 0.281373 1.2942 9.77597e-39 3
-0.638362 0.333786 1.53528 9.2228e-39 3
-0.613556 0.333786 1.53528 1.11575e-38 3
-0.541013 0.306722 1.4108 1.06965e-38 3
-0.518218 0.306722 1.4108 1.10656e-38 3
-0.486655 0.301293 1.38583 1.12486e-38 3
-0.499636 0.324249 1.49141 1.0511e-38 3
-0.480111 0.327367 1.50575 1.06961e-38 3
-0.474013 0.340461 1.56598 1.02359e-38 3
-0.457869 0.34741 1.59794 1.00508e-38 3
-0.436504 0.350991 1.61442 1.1801e-38 3
-0.406231 0.34741 1.59794 1.18018e-38 3
-0.365495 0.333786 1.53528 1.1894e-38 3
-0.340688 0.333786 1.53528 1.36457e-38 3
-0.31901 0.33709 1.55048 1.24471e-38 3
-0.299897 0.3439 1.5818 1.1617e-38 3
-0.277138 0.34741 1.59794 1.17088e-38 3
-0.259256 0.35838 1.6484 1.10631e-38 3
-0.240208 0.370067 1.70216 1.17992e-38 3
-0.215043 0.374133 1.72086 1.04159e-38 3
-0.133114 0.265985 1.22343 1.03241e-38 3
-0.108272 0.254076 1.16864 1.05063e-38 3
-0.0782889 0.222524 1.02352 1.01379e-38 3
-0.0621577 0.223988 1.03025 7.0987e-39 3
-0.0483759 0.238085 1.09509 6.08526e-39 3
-0.0322612 0.250339 1.15146 6.82211e-39 3
-0.0149782 0.274566 1.26289 7.28309e-39 3
0.00542684 0.274566 1.26289 7.46676e-39 3
0.0280978 0.29865 1.37367 8.02065e-39 3
0.0551286 0.327367 1.50575 6.45405e-39 3
0.0688634 0.283718 1.30499 8.66818e-39 3
0.103787 0.327367 1.50575 1.21709e-38 3
0.128116 0.327367 1.50575 9.58977e-39 3
0.149569 0.32119 1.47734 6.45476e-39 3
0.176774 0.327367 1.50575 1.27255e-38 3
0.205046 0.333786 1.53528 1.29095e-38 3
0.229852 0.333786 1.53528 9.12916e-39 3
0.254659 0.333786 1.53528 1.1156e-38 3
0.276751 0.330545 1.52037 1.23542e-38 3
0.301317 0.330545 1.52037 1.3184e-38 3
0.325882 0.330545 1.52037 1.33687e-38 3
0.340529 0.32119 1.47734 1.35524e-38 3
0.36787 0.324249 1.49141 1.40123e-38 3
0.391967 0.324249 1.49141 1.45655e-38 3
0.485408 0.37829 1.73998 1.31836e-38 3
0.427935 0.315242 1.44999 1.38283e-38 3
0.541636 0.37829 1.73998 1.25372e-38 3
0.512774 0.340461 1.56598 1.22609e-38 3
0.532749 0.33709 1.55048 1.24471e-38 3
0.557801 0.33709 1.55048 1.38322e-38 3
0.63299 0.366087 1.68385 1.06972e-38 3
0.705728 0.391335 1.79998 1.17096e-38 3
0.743355 0.395885 1.82091 1.11582e-38 3
0.772776 0.395885 1.82091 1.10653e-38 3
0.977995 0.3439 1.5818 1.06039e-38 3
1.02424 0.350991 1.61442 1.09713e-38 3
1.10741 0.370067 1.70216 1.2168e-38 3
1.16014 0.37829 1.73998 1.3363e-38 3
1.18825 0.37829 1.73998 1.31771e-38 3
1.21636 0.37829 1.73998 1.2441e-38 3
-0.637256 0.290289 1.24284 1.01422e-38 3
-0.706946 0.332512 1.42362 1.03266e-38 3
-0.683944 0.332512 1.42362 1.12493e-38 3
-0.673181 0.33867 1.44999 1.05128e-38 3
-0.59469 0.309969 1.32711 1.07901e-38 3
-0.56843 0.307364 1.31595 1.01437e-38 3
-0.561318 0.315313 1.34999 9.49794e-39 3
-0.574153 0.335563 1.43668 1.0788e-38 3
-0.541013 0.329517 1.4108 1.04192e-38 3
-0.52293 0.332512 1.42362 1.0788e-38 3
-0.478191 0.318055 1.36173 1.0788e-38 3
-0.45619 0.318055 1.36173 1.07876e-38 3
-0.441872 0.323685 1.38583 1.05117e-38 3
-0.427039 0.329517 1.4108 1.06047e-38 3
-0.439913 0.358592 1.53528 1.18028e-38 3
-0.415107 0.358592 1.53528 1.21705e-38 3
-0.368617 0.33867 1.44999 1.12489e-38 3
-0.345189 0.33867 1.44999 1.19862e-38 3
-0.318809 0.335563 1.43668 1.15252e-38 3
-0.301121 0.341835 1.46354 1.18943e-38 3
-0.285479 0.351696 1.50575 1.13415e-38 3
-0.263685 0.35511 1.52037 1.1433e-38 3
-0.253911 0.377076 1.61442 1.12479e-38 3
-0.232622 0.385014 1.6484 8.11285e-39 3
-0.157813 0.294971 1.26289 6.54589e-39 3
-0.117508 0.252251 1.07999 9.03373e-39 3
-0.101457 0.255779 1.09509 1.09691e-38 3
-0.0820424 0.250523 1.07259 1.07854e-38 3
-0.0660697 0.255779 1.09509 1.15241e-38 3
-0.049768 0.263139 1.12661 1.19854e-38 3
-0.0322612 0.268944 1.15146 1.30929e-38 3
-0.0148584 0.292611 1.25279 1.26326e-38 3
0.00542684 0.294971 1.26289 1.33702e-38 3
0.0271454 0.309969 1.32711 1.25393e-38 3
0.0441029 0.281357 1.2046 1.53052e-38 3
0.0630809 0.279209 1.19541 1.34606e-38 3
0.0823956 0.279209 1.19541 1.35535e-38 3
0.10094 0.277094 1.18635 1.23546e-38 3
0.118316 0.272958 1.16864 1.22631e-38 3
0.167132 0.332512 1.42362 1.30943e-38 3
0.160883 0.281357 1.2046 1.30936e-38 3
0.192172 0.299806 1.28359 1.17092e-38 3
0.21646 0.304803 1.30499 1.21695e-38 3
0.27409 0.351696 1.50575 9.95748e-39 3
0.290053 0.341835 1.46354 9.77345e-39 3
0.349644 0.381004 1.63123 9.5887e-39 3
0.331157 0.335563 1.43668 9.127e-39 3
0.357651 0.33867 1.44999 1.13386e-38 3
0.377583 0.335563 1.43668 1.18925e-38 3
0.39006 0.326575 1.3982 1.18929e-38 3
0.391669 0.309969 1.32711 1.2907e-38 3
0.459879 0.34506 1.47734 1.42892e-38 3
0.41689 0.297369 1.27316 1.29063e-38 3
0.420372 0.285753 1.22343 1.04185e-38 3
0.713934 0.425307 1.82091 1.19865e-38 3
0.761054 0.435433 1.86427 1.0788e-38 3
1.12251 0.435433 1.86427 9.77418e-39 3
1.15264 0.435433 1.86427 9.68126e-39 3
1.18276 0.435433 1.86427 9.40432e-39 3
1.18467 0.425307 1.82091 1.06936e-38 3
1.21409 0.425307 1.82091 1.27198e-38 3
1.24352 0.425307 1.82091 1.30857e-38 3
1.47936 0.494275 2.11619 1.22566e-38 3
-0.622436 0.303152 1.21394 1.03266e-38 3
-0.598185 0.30082 1.2046 1.10642e-38 3
-0.578722 0.30082 1.2046 1.05117e-38 3
-0.546644 0.294035 1.17743 1.05117e-38 3
-0.575192 0.320546 1.28359 1.14337e-38 3
-0.56843 0.328627 1.31595 1.02355e-38 3
-0.561318 0.337126 1.34999 1.08798e-38 3
-0.579469 0.362098 1.44999 1.02344e-38 3
-0.556041 0.362098 1.44999 1.13401e-38 3
-0.532613 0.362098 1.44999 1.13408e-38 3
-0.478191 0.340057 1.36173 1.1894e-38 3
-0.45619 0.340057 1.36173 1.17092e-38 3
-0.409275 0.320546 1.28359 1.02352e-38 3
-0.388536 0.320546 1.28359 1.10653e-38 3
-0.380264 0.331412 1.32711 1.12497e-38 3
-0.352841 0.325888 1.30499 1.21705e-38 3
-0.306236 0.30082 1.2046 1.27237e-38 3
-0.251895 0.264234 1.0581 1.20783e-38 3
-0.225651 0.253939 1.01687 1.26315e-38 3
-0.209221 0.253939 1.01687 1.06029e-38 3
-0.228383 0.30082 1.2046 1.01422e-38 3
-0.251477 0.362098 1.44999 8.7593e-39 3
-0.228049 0.362098 1.44999 1.10635e-38 3
-0.155627 0.275399 1.10281 1.06947e-38 3
-0.137809 0.275399 1.10281 1.1894e-38 3
-0.118324 0.271574 1.08749 1.22627e-38 3
-0.101457 0.273473 1.09509 1.3184e-38 3
-0.0837636 0.273473 1.09509 1.19854e-38 3
-0.0660697 0.273473 1.09509 1.27237e-38 3
-0.0494125 0.279333 1.11856 1.26315e-38 3
-0.0317936 0.283381 1.13477 1.20794e-38 3
-0.0141778 0.298524 1.19541 1.26337e-38 3
0.00529864 0.307926 1.23306 1.33702e-38 3
0.0262553 0.320546 1.28359 1.45676e-38 3
0.0441029 0.30082 1.2046 1.40145e-38 3
0.0612119 0.289678 1.15999 1.32772e-38 3
0.080551 0.29184 1.16864 1.29081e-38 3
0.100181 0.294035 1.17743 1.28159e-38 3
0.116576 0.287548 1.15146 1.31847e-38 3
0.13518 0.287548 1.15146 1.33709e-38 3
0.15608 0.29184 1.16864 1.25404e-38 3
0.184606 0.307926 1.23306 1.29081e-38 3
0.209477 0.315376 1.26289 1.29999e-38 3
0.245736 0.337126 1.34999 1.32765e-38 3
0.277104 0.349166 1.3982 1.33691e-38 3
0.302395 0.352312 1.4108 1.29081e-38 3
0.32519 0.352312 1.4108 1.26312e-38 3
0.347985 0.352312 1.4108 1.28155e-38 3
0.364217 0.346076 1.38583 1.18932e-38 3
0.370227 0.331412 1.32711 1.43825e-38 3
0.366801 0.31037 1.24284 1.1156e-38 3
0.369297 0.296262 1.18635 1.18007e-38 3
0.385545 0.294035 1.17743 1.18007e-38 3
0.392757 0.28545 1.14305 1.23546e-38 3
0.405308 0.281342 1.12661 1.1156e-38 3
0.713934 0.454728 1.82091 1.21709e-38 3
0.614698 0.376025 1.50575 1.37379e-38 3
0.639027 0.376025 1.50575 1.14326e-38 3
0.676363 0.383398 1.53528 1.2078e-38 3
0.678793 0.315376 1.26289 1.04188e-38 3
0.699198 0.315376 1.26289 9.95785e-39 3
0.719603 0.315376 1.26289 9.77346e-39 3
0.740008 0.315376 1.26289 9.49759e-39 3
0.982201 0.40736 1.63123 9.03661e-39 3
1.07579 0.434518 1.73998 9.58906e-39 3
1.129 0.444393 1.77953 1.06029e-38 3
1.15775 0.444393 1.77953 1.07869e-38 3
1.30515 0.488832 1.95748 9.86314e-39 3
1.33678 0.488832 1.95748 1.08755e-38 3
-0.64205 0.322766 1.21394 9.40467e-39 3
-0.622436 0.322766 1.21394 1.02344e-38 3
-0.580329 0.310723 1.16864 1.01422e-38 3
-0.565668 0.313059 1.17743 9.86565e-39 3
-0.546644 0.313059 1.17743 1.1156e-38 3
-0.552546 0.327849 1.23306 1.14323e-38 3
-0.563693 0.346973 1.30499 1.17088e-38 3
-0.556521 0.35587 1.33845 1.13401e-38 3
-0.579469 0.385526 1.44999 1.26308e-38 3
-0.545932 0.378516 1.42362 1.29067e-38 3
-0.463889 0.335781 1.26289 1.20776e-38 3
-0.369074 0.279442 1.051 1.18014e-38 3
-0.352093 0.279442 1.051 1.1433e-38 3
-0.346747 0.289145 1.08749 9.59014e-39 3
-0.322458 0.283244 1.0653 1.00515e-38 3
-0.350556 0.325288 1.22343 1.17106e-38 3
-0.325699 0.320283 1.2046 1.11564e-38 3
-0.268991 0.28133 1.0581 1.07876e-38 3
-0.233003 0.26023 0.97874 1.00508e-38 3
-0.225651 0.270369 1.01687 1.05121e-38 3
-0.209221 0.270369 1.01687 1.11571e-38 3
-0.197932 0.277579 1.04399 1.15252e-38 3
-0.186024 0.285184 1.07259 1.01426e-38 3
-0.167546 0.283244 1.0653 1.38301e-38 3
-0.151364 0.285184 1.07259 1.26315e-38 3
-0.134033 0.285184 1.07259 1.21702e-38 3
-0.115909 0.283244 1.0653 1.17106e-38 3
-0.0993728 0.285184 1.07259 1.2356e-38 3
-0.0820424 0.285184 1.07259 1.38293e-38 3
-0.0647121 0.285184 1.07259 1.41063e-38 3
-0.0480399 0.289145 1.08749 1.20783e-38 3
-0.0313394 0.297406 1.11856 1.30929e-38 3
-0.0136566 0.306153 1.15146 1.27248e-38 3
0.00502185 0.310723 1.16864 1.41988e-38 3
0.0244515 0.317838 1.19541 1.19872e-38 3
0.0437662 0.317838 1.19541 1.26326e-38 3
0.0612119 0.308421 1.15999 1.3278e-38 3
0.080551 0.310723 1.16864 1.21716e-38 3
0.0994332 0.310723 1.16864 1.37379e-38 3
0.116576 0.306153 1.15146 1.33691e-38 3
0.13518 0.306153 1.15146 1.25404e-38 3
0.153785 0.306153 1.15146 1.25411e-38 3
0.176278 0.313059 1.17743 1.30003e-38 3
0.196782 0.31543 1.18635 1.33687e-38 3
0.229882 0.335781 1.26289 1.36457e-38 3
0.250287 0.335781 1.26289 1.29088e-38 3
0.27513 0.341285 1.28359 1.3001e-38 3
0.313879 0.362059 1.36173 1.36467e-38 3
0.335881 0.362059 1.36173 1.22627e-38 3
0.351765 0.35587 1.33845 1.15252e-38 3
0.341303 0.325288 1.22343 1.22638e-38 3
0.339831 0.306153 1.15146 1.27237e-38 3
0.34329 0.293217 1.10281 1.23542e-38 3
0.36367 0.295297 1.11063 1.04177e-38 3
0.361125 0.279442 1.051 1.04181e-38 3
0.378107 0.279442 1.051 9.68054e-39 3
0.44597 0.31543 1.18635 9.77345e-39 3
0.529296 0.358938 1.34999 1.10642e-38 3
0.551108 0.358938 1.34999 1.0972e-38 3
0.56321 0.352854 1.32711 1.01426e-38 3
0.584653 0.352854 1.32711 1.00493e-38 3
0.606095 0.352854 1.32711 1.04177e-38 3
0.638357 0.358938 1.34999 1.21698e-38 3
0.676153 0.35587 1.33845 1.13408e-38 3
0.686051 0.349889 1.31595 1.1894e-38 3
0.689921 0.341285 1.28359 1.12489e-38 3
0.704883 0.338511 1.27316 9.95785e-39 3
0.719603 0.335781 1.26289 1.09716e-38 3
0.740008 0.335781 1.26289 1.04195e-38 3
0.982201 0.433717 1.63123 1.04195e-38 3
1.07579 0.462631 1.73998 9.40503e-39 3
1.129 0.473146 1.77953 8.57456e-39 3
1.57495 0.452574 1.70216 1.08719e-38 3
-0.556234 0.279538 0.991129 1.005e-38 3
-0.554251 0.286799 1.01687 9.86565e-39 3
-0.632248 0.337153 1.19541 1.01422e-38 3
-0.622436 0.34238 1.21394 1.03266e-38 3
-0.580329 0.329605 1.16864 9.77346e-39 3
-0.561446 0.329605 1.16864 1.11564e-38 3
-0.538545 0.327163 1.15999 1.08794e-38 3
-0.523682 0.329605 1.16864 1.18925e-38 3
-0.508595 0.332083 1.17743 1.25382e-38 3
-0.508695 0.345055 1.22343 1.2262e-38 3
-0.496688 0.350532 1.24284 1.19854e-38 3
-0.476607 0.350532 1.24284 1.18925e-38 3
-0.371111 0.284949 1.01031 1.13393e-38 3
-0.359425 0.288673 1.02352 1.08791e-38 3
-0.342888 0.288673 1.02352 1.1156e-38 3
-0.32635 0.288673 1.02352 1.09734e-38 3
-0.313916 0.292497 1.03708 1.25408e-38 3
-0.345162 0.339746 1.2046 1.26326e-38 3
-0.298175 0.311035 1.10281 1.1894e-38 3
-0.248817 0.276044 0.97874 1.20783e-38 3
-0.233003 0.276044 0.97874 1.14337e-38 3
-0.224195 0.284949 1.01031 1.15262e-38 3
-0.207871 0.284949 1.01031 1.15263e-38 3
-0.194051 0.288673 1.02352 1.21705e-38 3
-0.178681 0.290573 1.03025 1.18018e-38 3
-0.163108 0.292497 1.03708 1.33691e-38 3
-0.147327 0.294447 1.04399 1.30925e-38 3
-0.130459 0.294447 1.04399 1.43825e-38 3
-0.113591 0.294447 1.04399 1.31847e-38 3
-0.0967228 0.294447 1.04399 1.42921e-38 3
-0.0798546 0.294447 1.04399 1.3645e-38 3
-0.0629865 0.294447 1.04399 1.34606e-38 3
-0.0467415 0.298426 1.0581 1.33687e-38 3
-0.0298471 0.300456 1.0653 1.29077e-38 3
-0.0130796 0.311035 1.10281 1.41063e-38 3
0.00477254 0.313241 1.11063 1.36457e-38 3
0.0228797 0.315479 1.11856 1.25404e-38 3
0.0421572 0.324758 1.15146 1.36467e-38 3
0.0607618 0.324758 1.15146 1.38315e-38 3
0.0799543 0.327163 1.15999 1.39233e-38 3
0.0986967 0.327163 1.15999 1.40141e-38 3
0.116576 0.324758 1.15146 1.30003e-38 3
0.13518 0.324758 1.15146 1.13419e-38 3
0.153785 0.324758 1.15146 1.2633e-38 3
0.174962 0.329605 1.16864 1.34613e-38 3
0.195302 0.332083 1.17743 1.42903e-38 3
0.214326 0.332083 1.17743 1.33691e-38 3
0.235118 0.334599 1.18635 1.30936e-38 3
0.250491 0.329605 1.16864 1.23556e-38 3
0.269374 0.329605 1.16864 1.36467e-38 3
0.275902 0.315479 1.11856 1.47531e-38 3
0.278085 0.298426 1.0581 1.65963e-38 3
0.295181 0.298426 1.0581 1.47531e-38 3
0.294376 0.281319 0.997442 1.46609e-38 3
0.312482 0.283122 1.00384 1.2723e-38 3
0.335147 0.288673 1.02352 1.31836e-38 3
0.351684 0.288673 1.02352 1.32762e-38 3
0.368221 0.288673 1.02352 1.3645e-38 3
0.44597 0.334599 1.18635 1.29081e-38 3
0.495148 0.356186 1.26289 1.27237e-38 3
0.532738 0.368059 1.30499 1.27237e-38 3
0.553823 0.368059 1.30499 1.29077e-38 3
0.547532 0.350532 1.24284 1.2262e-38 3
0.567613 0.350532 1.24284 1.10628e-38 3
0.661156 0.394349 1.3982 1.14323e-38 3
0.671752 0.38743 1.37367 1.13401e-38 3
0.707314 0.371152 1.31595 1.19862e-38 3
0.71066 0.362025 1.28359 1.12482e-38 3
0.675991 0.334599 1.18635 1.05107e-38 3
0.646204 0.311035 1.10281 1.09727e-38 3
0.942912 0.44167 1.56598 1.15255e-38 3
0.968215 0.44167 1.56598 1.25393e-38 3
1.41756 0.424683 1.50575 9.48896e-39 3
1.56204 0.460073 1.63123 1.02258e-38 3
-0.58574 0.286486 0.960726 9.58906e-39 3
-0.570217 0.286486 0.960726 9.77345e-39 3
-0.565095 0.291858 0.97874 9.95784e-39 3
-0.545869 0.290045 0.972661 1.07872e-38 3
-0.54022 0.295552 0.991129 1.0511e-38 3
-0.622741 0.351107 1.17743 1.12486e-38 3
-0.603716 0.351107 1.17743 1.17088e-38 3
-0.563508 0.338386 1.13477 1.11564e-38 3
-0.55319 0.343362 1.15146 1.10642e-38 3
-0.534585 0.343362 1.15146 1.12471e-38 3
-0.508503 0.338386 1.13477 1.27212e-38 3
-0.47636 0.328854 1.10281 1.26294e-38 3
-0.406956 0.291858 0.97874 1.1155e-38 3
-0.401171 0.299341 1.00384 1.15245e-38 3
-0.3825 0.297435 0.997442 1.20769e-38 3
-0.366384 0.297435 0.997442 1.14323e-38 3
-0.357091 0.303229 1.01687 1.11564e-38 3
-0.338463 0.301273 1.01031 1.17103e-38 3
-0.320074 0.299341 1.00384 1.21716e-38 3
-0.305815 0.301273 1.01031 1.32772e-38 3
-0.325153 0.338386 1.13477 1.1894e-38 3
-0.282273 0.311315 1.04399 1.20776e-38 3
-0.244237 0.286486 0.960726 1.31847e-38 3
-0.228714 0.286486 0.960726 1.26315e-38 3
-0.219938 0.295552 0.991129 1.18025e-38 3
-0.203924 0.295552 0.991129 1.10649e-38 3
-0.191547 0.301273 1.01031 1.2262e-38 3
-0.176361 0.303229 1.01687 1.33684e-38 3
-0.160976 0.305211 1.02352 1.29074e-38 3
-0.144439 0.305211 1.02352 1.35528e-38 3
-0.129595 0.309253 1.03708 1.33684e-38 3
-0.112839 0.309253 1.03708 1.29081e-38 3
-0.0960823 0.309253 1.03708 1.32769e-38 3
-0.0793258 0.309253 1.03708 1.26308e-38 3
-0.0625694 0.309253 1.03708 1.54881e-38 3
-0.0464278 0.313404 1.051 1.48431e-38 3
-0.0294465 0.313404 1.051 1.45673e-38 3
-0.0125493 0.315522 1.0581 1.56733e-38 3
0.00454681 0.315522 1.0581 1.36457e-38 3
0.0216429 0.315522 1.0581 1.40148e-38 3
0.0406623 0.331186 1.11063 1.50293e-38 3
0.0581944 0.328854 1.10281 1.38304e-38 3
0.0744402 0.32205 1.07999 1.34609e-38 3
0.0944968 0.331186 1.11063 1.27234e-38 3
0.112442 0.331186 1.11063 1.34613e-38 3
0.132263 0.335952 1.12661 1.25404e-38 3
0.152662 0.340856 1.14305 1.38308e-38 3
0.174962 0.348487 1.16864 1.40152e-38 3
0.195302 0.351107 1.17743 1.39223e-38 3
0.214326 0.351107 1.17743 1.4291e-38 3
0.235118 0.353767 1.18635 1.44754e-38 3
0.236379 0.328854 1.10281 1.53974e-38 3
0.228456 0.295552 0.991129 1.48439e-38 3
0.241414 0.291858 0.97874 1.44754e-38 3
0.254053 0.288255 0.966657 1.43843e-38 3
0.253993 0.271496 0.910456 1.43843e-38 3
0.273473 0.276315 0.926618 1.43829e-38 3
0.291899 0.279624 0.937715 1.34616e-38 3
0.305223 0.27796 0.932133 1.44751e-38 3
0.326107 0.283014 0.949081 1.3184e-38 3
0.347765 0.288255 0.966657 1.26319e-38 3
0.397757 0.315522 1.0581 1.28156e-38 3
0.420536 0.319844 1.07259 1.13404e-38 3
0.470063 0.343362 1.15146 1.18932e-38 3
0.488667 0.343362 1.15146 1.17088e-38 3
0.389768 0.263826 0.884737 1.16167e-38 3
0.464411 0.303229 1.01687 1.19851e-38 3
0.667112 0.420696 1.4108 1.12482e-38 3
0.671752 0.409625 1.37367 1.1617e-38 3
0.693947 0.409625 1.37367 1.19854e-38 3
0.709914 0.406063 1.36173 1.20783e-38 3
0.725606 0.402563 1.34999 1.25393e-38 3
0.677348 0.364822 1.22343 1.18014e-38 3
0.557693 0.291858 0.97874 1.2262e-38 3
0.539771 0.27469 0.921167 1.08794e-38 3
0.532719 0.263826 0.884737 1.19862e-38 3
0.583262 0.281309 0.943364 1.22624e-38 3
0.63687 0.299341 1.00384 1.07873e-38 3
0.657303 0.301273 1.01031 1.09727e-38 3
0.820092 0.307219 1.03025 1.12432e-38 3
0.836738 0.307219 1.03025 1.17953e-38 3
0.853384 0.307219 1.03025 1.10577e-38 3
0.919969 0.307219 1.03025 9.9503e-39 3
0.924452 0.303229 1.01687 1.10566e-38 3
0.947031 0.305211 1.02352 1.12407e-38 3
0.976331 0.309253 1.03708 9.76555e-39 3
0.999708 0.311315 1.04399 9.58008e-39 3
-0.593975 0.298348 0.949081 1.02337e-38 3
-0.57864 0.298348 0.949081 9.58906e-39 3
-0.563305 0.298348 0.949081 1.005e-38 3
-0.551312 0.300168 0.954868 9.95713e-39 3
-0.532636 0.298348 0.949081 1.04181e-38 3
-0.520456 0.300168 0.954868 1.06947e-38 3
-0.552163 0.328183 1.04399 1.01415e-38 3
-0.535295 0.328183 1.04399 1.05103e-38 3
-0.53263 0.337175 1.07259 9.95785e-39 3
-0.494959 0.323865 1.03025 1.13408e-38 3
-0.472101 0.319659 1.01687 1.12471e-38 3
-0.444135 0.311566 0.991129 1.25375e-38 3
-0.412458 0.300168 0.954868 1.12471e-38 3
-0.385284 0.291287 0.926618 1.15241e-38 3
-0.377004 0.296551 0.943364 1.03259e-38 3
-0.357455 0.293021 0.932133 1.08784e-38 3
-0.350745 0.300168 0.954868 1.30918e-38 3
-0.3437 0.307672 0.97874 1.17092e-38 3
-0.329948 0.309607 0.984896 1.30932e-38 3
-0.30822 0.303873 0.966657 1.31843e-38 3
-0.298122 0.309607 0.984896 1.41067e-38 3
-0.299141 0.328183 1.04399 1.1801e-38 3
-0.271416 0.315561 1.00384 1.32762e-38 3
-0.239823 0.296551 0.943364 1.24464e-38 3
-0.224581 0.296551 0.943364 1.20783e-38 3
-0.217189 0.307672 0.97874 1.22627e-38 3
-0.201375 0.307672 0.97874 1.17103e-38 3
-0.190319 0.315561 1.00384 1.1801e-38 3
-0.176361 0.319659 1.01687 1.37364e-38 3
-0.159931 0.319659 1.01687 1.29989e-38 3
-0.144439 0.321748 1.02352 1.50272e-38 3
-0.128743 0.323865 1.03025 1.42896e-38 3
-0.112839 0.32601 1.03708 1.24464e-38 3
-0.0960823 0.32601 1.03708 1.25393e-38 3
-0.0793258 0.32601 1.03708 1.37371e-38 3
-0.0625694 0.32601 1.03708 1.6225e-38 3
-0.0464278 0.330386 1.051 1.67792e-38 3
-0.0294465 0.330386 1.051 1.40134e-38 3
-0.0124651 0.330386 1.051 1.30918e-38 3
0.00454681 0.332618 1.0581 1.35528e-38 3
0.0219394 0.337175 1.07259 1.43825e-38 3
0.0409527 0.351625 1.11856 1.38293e-38 3
0.0581944 0.346672 1.10281 1.18932e-38 3
0.0749571 0.341858 1.08749 1.39215e-38 3
0.0894232 0.330386 1.051 1.39215e-38 3
0.092176 0.286206 0.910456 1.53045e-38 3
0.101014 0.270481 0.860431 1.34613e-38 3
0.111249 0.261848 0.83297 1.41985e-38 3
0.126729 0.266095 0.846478 1.37375e-38 3
0.149283 0.282917 0.899991 1.33684e-38 3
0.166698 0.28788 0.91578 1.53967e-38 3
0.206904 0.328183 1.04399 1.58584e-38 3
0.196292 0.28788 0.91578 1.50286e-38 3
0.203933 0.278121 0.884737 1.43832e-38 3
0.215789 0.275014 0.874851 1.45676e-38 3
0.226135 0.270481 0.860431 1.49364e-38 3
0.241363 0.271975 0.865185 1.37379e-38 3
0.256761 0.273486 0.869991 1.30918e-38 3
0.269322 0.271975 0.865185 1.46591e-38 3
0.286466 0.275014 0.874851 1.41981e-38 3
0.312835 0.286206 0.910456 1.37371e-38 3
0.327546 0.286206 0.910456 1.2262e-38 3
0.338322 0.282917 0.899991 1.29074e-38 3
0.344934 0.276559 0.879766 1.31843e-38 3
0.359149 0.276559 0.879766 1.34602e-38 3
0.371278 0.275014 0.874851 1.39212e-38 3
0.383272 0.273486 0.869991 1.31833e-38 3
0.392963 0.270481 0.860431 1.32755e-38 3
0.409113 0.271975 0.865185 1.29996e-38 3
0.423092 0.271975 0.865185 1.19858e-38 3
0.437071 0.271975 0.865185 1.18936e-38 3
0.45105 0.271975 0.865185 1.16174e-38 3
0.719405 0.420748 1.33845 1.18018e-38 3
0.48167 0.273486 0.869991 1.29078e-38 3
0.495727 0.273486 0.869991 1.14326e-38 3
0.509783 0.273486 0.869991 1.16167e-38 3
0.518084 0.270481 0.860431 1.16166e-38 3
0.556445 0.282917 0.899991 1.14323e-38 3
0.598504 0.296551 0.943364 1.0049e-38 3
0.613747 0.296551 0.943364 1.03263e-38 3
0.628989 0.296551 0.943364 1.00508e-38 3
0.660138 0.303873 0.966657 9.77418e-39 3
0.744657 0.300168 0.954868 1.18886e-38 3
0.760085 0.300168 0.954868 1.22573e-38 3
0.825871 0.319659 1.01687 1.3086e-38 3
0.842301 0.319659 1.01687 1.17953e-38 3
0.858731 0.319659 1.01687 1.31782e-38 3
0.902163 0.317597 1.01031 1.17009e-38 3
0.918487 0.317597 1.01031 1.12407e-38 3
0.928819 0.315561 1.00384 9.67335e-39 3
0.963568 0.321748 1.02352 1.124e-38 3
0.999708 0.328183 1.04399 1.15162e-38 3
1.05893 0.341858 1.08749 9.67228e-39 3
-0.622137 0.278267 0.841927 8.75858e-39 3
-0.586861 0.309926 0.937715 8.5742e-39 3
-0.575154 0.311793 0.943364 9.49651e-39 3
-0.559912 0.311793 0.943364 1.04188e-38 3
-0.541408 0.309926 0.937715 1.00493e-38 3
-0.523125 0.308082 0.932133 1.02337e-38 3
-0.508064 0.308082 0.932133 1.06025e-38 3
-0.524206 0.32758 0.991129 1.04181e-38 3
-0.514707 0.33178 1.00384 1.09713e-38 3
-0.498488 0.33178 1.00384 1.21705e-38 3
-0.476163 0.32758 0.991129 1.06954e-38 3
-0.454397 0.323486 0.97874 1.03252e-38 3
-0.427886 0.315596 0.954868 1.05096e-38 3
-0.407489 0.311793 0.943364 1.12479e-38 3
-0.385284 0.306259 0.926618 1.1801e-38 3
-0.372516 0.308082 0.932133 1.2907e-38 3
-0.35534 0.306259 0.926618 1.28145e-38 3
-0.344445 0.309926 0.937715 1.06947e-38 3
-0.339457 0.319492 0.966657 1.22624e-38 3
-0.32585 0.321476 0.972661 1.21713e-38 3
-0.306329 0.317532 0.960726 1.14319e-38 3
-0.290806 0.317532 0.960726 1.2723e-38 3
-0.287635 0.33178 1.00384 1.26308e-38 3
-0.264631 0.323486 0.97874 1.20776e-38 3
-0.238387 0.309926 0.937715 1.30918e-38 3
-0.223236 0.309926 0.937715 1.29996e-38 3
-0.21584 0.321476 0.972661 1.30003e-38 3
-0.200124 0.321476 0.972661 1.25393e-38 3
-0.186728 0.32552 0.984896 1.31833e-38 3
-0.175223 0.333921 1.01031 1.36442e-38 3
-0.158899 0.333921 1.01031 1.51194e-38 3
-0.143501 0.336089 1.01687 1.39208e-38 3
-0.127901 0.338286 1.02352 1.33676e-38 3
-0.112096 0.340511 1.03025 1.41981e-38 3
-0.0954501 0.340511 1.03025 1.35528e-38 3
-0.0788039 0.340511 1.03025 1.31833e-38 3
-0.0621577 0.340511 1.03025 1.42885e-38 3
-0.0458129 0.342766 1.03708 1.49343e-38 3
-0.0292501 0.345051 1.04399 1.43822e-38 3
-0.012382 0.345051 1.04399 1.4935e-38 3
0.00448619 0.345051 1.04399 1.41974e-38 3
0.0217902 0.352093 1.0653 1.48428e-38 3
0.0395405 0.35695 1.07999 1.39208e-38 3
0.0573861 0.359429 1.08749 1.55803e-38 3
0.0674614 0.323486 0.97874 1.39215e-38 3
0.0774654 0.300917 0.910456 1.37371e-38 3
0.0843313 0.275307 0.83297 1.51201e-38 3
0.0947655 0.266792 0.807208 1.51201e-38 3
0.107808 0.266792 0.807208 1.48439e-38 3
0.122748 0.270983 0.819887 1.38297e-38 3
0.136711 0.272409 0.824202 1.28152e-38 3
0.154921 0.281292 0.851078 1.41981e-38 3
0.174357 0.290774 0.879766 1.53045e-38 3
0.190715 0.294078 0.889764 1.57655e-38 3
0.199426 0.285954 0.865185 1.45669e-38 3
0.213405 0.285954 0.865185 1.51201e-38 3
0.224899 0.282829 0.855729 1.40145e-38 3
0.236145 0.279771 0.846478 1.36457e-38 3
0.249821 0.279771 0.846478 1.40137e-38 3
0.26068 0.276779 0.837425 1.52123e-38 3
0.275685 0.278267 0.841927 1.44747e-38 3
0.287741 0.276779 0.837425 1.40137e-38 3
0.302892 0.278267 0.841927 1.41052e-38 3
0.314803 0.276779 0.837425 1.4474e-38 3
0.328333 0.276779 0.837425 1.44744e-38 3
0.34556 0.279771 0.846478 1.41978e-38 3
0.363163 0.282829 0.855729 1.4013e-38 3
0.37906 0.284383 0.860431 1.41052e-38 3
0.392963 0.284383 0.860431 1.29056e-38 3
0.406865 0.284383 0.860431 1.2262e-38 3
0.420767 0.284383 0.860431 1.31843e-38 3
0.43467 0.284383 0.860431 1.28156e-38 3
0.446121 0.282829 0.855729 1.32765e-38 3
0.438387 0.269571 0.815617 1.23549e-38 3
0.456319 0.272409 0.824202 1.30921e-38 3
0.479735 0.278267 0.841927 1.28156e-38 3
0.498701 0.281292 0.851078 1.18932e-38 3
0.506942 0.278267 0.841927 1.26308e-38 3
0.515008 0.275307 0.83297 1.15245e-38 3
0.537036 0.279771 0.846478 1.14319e-38 3
0.550713 0.279771 0.846478 1.19851e-38 3
0.56439 0.279771 0.846478 1.2078e-38 3
0.574959 0.278267 0.841927 1.11571e-38 3
0.710861 0.336089 1.01687 1.07873e-38 3
0.727291 0.336089 1.01687 1.04185e-38 3
0.646451 0.279771 0.846478 1.07829e-38 3
0.649594 0.275307 0.83297 1.19808e-38 3
0.670183 0.278267 0.841927 1.15198e-38 3
0.815283 0.33178 1.00384 1.12421e-38 3
0.831503 0.33178 1.00384 1.12421e-38 3
0.847722 0.33178 1.00384 1.22563e-38 3
0.831944 0.319492 0.966657 1.33626e-38 3
0.837226 0.315596 0.954868 1.4192e-38 3
0.852654 0.315596 0.954868 1.29924e-38 3
0.884258 0.321476 0.972661 1.33605e-38 3
0.894418 0.319492 0.966657 1.42824e-38 3
0.939019 0.329667 0.997442 1.34527e-38 3
0.986554 0.340511 1.03025 1.29906e-38 3
1.01658 0.345051 1.04399 1.26218e-38 3
-0.567242 0.266117 0.767639 7.37565e-39 3
-0.554839 0.266117 0.767639 6.63809e-39 3
-0.526938 0.258514 0.745707 7.00615e-39 3
-0.502841 0.258514 0.745707 8.48164e-39 3
-0.486162 0.256075 0.738672 9.03482e-39 3
-0.474227 0.256075 0.738672 1.01408e-38 3
-0.50003 0.276979 0.798972 1.0233e-38 3
-0.555091 0.315628 0.910456 8.85078e-39 3
-0.54038 0.315628 0.910456 8.75823e-39 3
-0.513723 0.308454 0.889764 9.31176e-39 3
-0.499346 0.308454 0.889764 1.02337e-38 3
-0.508064 0.323142 0.932133 1.05103e-38 3
-0.408002 0.267428 0.771421 1.1155e-38 3
-0.399474 0.270089 0.779097 1.06943e-38 3
-0.386886 0.270089 0.779097 1.10635e-38 3
-0.374298 0.270089 0.779097 1.01415e-38 3
-0.363518 0.27144 0.782992 1.03263e-38 3
-0.377276 0.291871 0.841927 1.06947e-38 3
-0.359804 0.288766 0.83297 1.11557e-38 3
-0.353875 0.295043 0.851078 1.05103e-38 3
-0.365981 0.317473 0.91578 1.06943e-38 3
-0.35534 0.32123 0.926618 1.01408e-38 3
-0.340368 0.32123 0.926618 1.2262e-38 3
-0.331277 0.327036 0.943364 1.15248e-38 3
-0.31795 0.329018 0.949081 1.18936e-38 3
-0.300793 0.327036 0.943364 1.01419e-38 3
-0.28555 0.327036 0.943364 1.41981e-38 3
-0.273604 0.331024 0.954868 1.2262e-38 3
-0.252029 0.323142 0.932133 1.18007e-38 3
-0.235566 0.32123 0.926618 1.35528e-38 3
-0.220594 0.32123 0.926618 1.29074e-38 3
-0.208085 0.325077 0.937715 1.21698e-38 3
-0.195273 0.329018 0.949081 1.30918e-38 3
-0.182146 0.333055 0.960726 1.25365e-38 3
-0.171896 0.343595 0.991129 1.44733e-38 3
-0.156875 0.345783 0.997442 1.51194e-38 3
-0.142575 0.350245 1.01031 1.43822e-38 3
-0.127071 0.352519 1.01687 1.41056e-38 3
-0.111364 0.354823 1.02352 1.30918e-38 3
-0.0954501 0.357157 1.03025 1.37371e-38 3
-0.0782889 0.354823 1.02352 1.51183e-38 3
-0.0613505 0.352519 1.01687 1.52116e-38 3
-0.045214 0.354823 1.02352 1.51186e-38 3
-0.0288653 0.357157 1.03025 1.52105e-38 3
-0.0122191 0.357157 1.03025 1.41041e-38 3
0.00442716 0.357157 1.03025 1.46559e-38 3
0.0213544 0.36192 1.04399 1.41967e-38 3
0.038479 0.364349 1.051 1.41974e-38 3
0.0558352 0.36681 1.0581 1.4474e-38 3
0.0627548 0.315628 0.910456 1.42903e-38 3
0.0732091 0.298285 0.860431 1.49357e-38 3
0.0800721 0.274181 0.790901 1.4013e-38 3
0.0942795 0.2784 0.803069 1.3552e-38 3
0.107255 0.2784 0.803069 1.29067e-38 3
0.122109 0.28275 0.815617 1.39208e-38 3
0.136711 0.285726 0.824202 1.39212e-38 3
0.154921 0.295043 0.851078 1.47509e-38 3
0.177346 0.310217 0.894848 1.59498e-38 3
0.19515 0.315628 0.910456 1.50261e-38 3
0.208648 0.313803 0.905193 1.53027e-38 3
0.219468 0.308454 0.889764 1.4013e-38 3
0.226135 0.298285 0.860431 1.40145e-38 3
0.234875 0.291871 0.841927 1.2817e-38 3
0.24715 0.29031 0.837425 1.34613e-38 3
0.256564 0.285726 0.824202 1.37372e-38 3
0.269881 0.285726 0.824202 1.39215e-38 3
0.278796 0.281285 0.811391 1.44747e-38 3
0.291906 0.281285 0.811391 1.42896e-38 3
0.301888 0.2784 0.803069 1.42896e-38 3
0.314863 0.2784 0.803069 1.34602e-38 3
0.327839 0.2784 0.803069 1.42893e-38 3
0.346139 0.28275 0.815617 1.53027e-38 3
0.366963 0.288766 0.83297 1.41045e-38 3
0.380421 0.288766 0.83297 1.17081e-38 3
0.402443 0.295043 0.851078 1.2723e-38 3
0.418468 0.296655 0.855729 1.37375e-38 3
0.432295 0.296655 0.855729 1.23557e-38 3
0.443696 0.295043 0.851078 1.33687e-38 3
0.438387 0.28275 0.815617 1.2539e-38 3
0.456319 0.285726 0.824202 1.12482e-38 3
0.479735 0.291871 0.841927 1.24468e-38 3
0.490701 0.29031 0.837425 1.27223e-38 3
0.501549 0.288766 0.83297 1.24457e-38 3
0.509587 0.285726 0.824202 1.29074e-38 3
0.534149 0.291871 0.841927 1.2723e-38 3
0.547752 0.291871 0.841927 1.16163e-38 3
0.558354 0.29031 0.837425 1.06943e-38 3
0.565833 0.287238 0.828563 1.06029e-38 3
0.573155 0.28423 0.819887 1.03263e-38 3
0.586402 0.28423 0.819887 1.06947e-38 3
0.599649 0.28423 0.819887 1.06929e-38 3
0.616122 0.285726 0.824202 9.95354e-39 3
0.629439 0.285726 0.824202 1.15198e-38 3
0.636061 0.28275 0.815617 1.22581e-38 3
0.649239 0.28275 0.815617 1.23503e-38 3
0.676512 0.288766 0.83297 1.19808e-38 3
0.77211 0.323142 0.932133 1.09666e-38 3
0.80637 0.331024 0.954868 1.1151e-38 3
0.807035 0.325077 0.937715 1.14276e-38 3
0.812456 0.32123 0.926618 1.17949e-38 3
0.827428 0.32123 0.926618 1.18861e-38 3
0.873408 0.333055 0.960726 1.14247e-38 3
0.888931 0.333055 0.960726 1.20694e-38 3
0.945038 0.348 1.00384 1.28069e-38 3
0.986554 0.357157 1.03025 1.19765e-38 3
1.00984 0.359523 1.03708 1.1608e-38 3
1.01985 0.357157 1.03025 1.0963e-38 3
-0.567242 0.27852 0.767639 6.73028e-39 3
-0.526452 0.264271 0.728365 8.11322e-39 3
-0.514684 0.264271 0.728365 8.66567e-39 3
-0.507637 0.266752 0.735204 7.65152e-39 3
-0.500457 0.26928 0.742173 8.20541e-39 3
-0.486162 0.26801 0.738672 8.94298e-39 3
-0.465445 0.263047 0.724993 9.3114e-39 3
-0.487591 0.282677 0.779097 8.66639e-39 3
-0.487121 0.289889 0.798972 1.08791e-38 3
-0.502408 0.307125 0.846478 1.02341e-38 3
-0.483504 0.30384 0.837425 1.06025e-38 3
-0.469973 0.30384 0.837425 1.02337e-38 3
-0.458896 0.305474 0.841927 1.02337e-38 3
-0.408002 0.279892 0.771421 9.21993e-39 3
-0.399474 0.282677 0.779097 9.77274e-39 3
-0.386886 0.282677 0.779097 9.31212e-39 3
-0.374298 0.282677 0.779097 9.58871e-39 3
-0.359919 0.281278 0.77524 9.21993e-39 3
-0.347393 0.281278 0.77524 9.12773e-39 3
-0.338216 0.284091 0.782992 9.12737e-39 3
-0.333912 0.291375 0.803069 1.02337e-38 3
-0.345761 0.313913 0.865185 9.49651e-39 3
-0.35534 0.336202 0.926618 1.02337e-38 3
-0.340368 0.336202 0.926618 1.04181e-38 3
-0.327333 0.338203 0.932133 1.20776e-38 3
-0.312273 0.338203 0.932133 1.10638e-38 3
-0.297212 0.338203 0.932133 1.25383e-38 3
-0.280481 0.336202 0.926618 1.19854e-38 3
-0.238676 0.302224 0.83297 1.26304e-38 3
-0.220525 0.295928 0.815617 1.19851e-38 3
-0.207347 0.295928 0.815617 1.13397e-38 3
-0.194169 0.295928 0.815617 1.32758e-38 3
-0.182896 0.299043 0.824202 1.41978e-38 3
-0.192934 0.340229 0.937715 1.29985e-38 3
-0.178854 0.342278 0.943364 1.33662e-38 3
-0.166623 0.348578 0.960726 1.38279e-38 3
-0.154901 0.357347 0.984896 1.29067e-38 3
-0.141661 0.364219 1.00384 1.35524e-38 3
-0.125441 0.364219 1.00384 1.3368e-38 3
-0.109927 0.366569 1.01031 1.36446e-38 3
-0.0942105 0.368949 1.01687 1.30914e-38 3
-0.0777805 0.368949 1.01687 1.3551e-38 3
-0.0609547 0.366569 1.01031 1.43807e-38 3
-0.0449204 0.368949 1.01687 1.36428e-38 3
-0.0286766 0.371361 1.02352 1.42867e-38 3
-0.0121392 0.371361 1.02352 1.58551e-38 3
0.0042058 0.355114 0.97874 1.52087e-38 3
0.0212129 0.376279 1.03708 1.52101e-38 3
0.0377196 0.373804 1.03025 1.34598e-38 3
0.0516475 0.355114 0.97874 1.43818e-38 3
0.0620335 0.326541 0.899991 1.29996e-38 3
0.0701266 0.299043 0.824202 1.35528e-38 3
0.078877 0.282677 0.779097 1.36442e-38 3
0.0942795 0.291375 0.803069 1.41052e-38 3
0.106708 0.289889 0.798972 1.3552e-38 3
0.12085 0.292877 0.807208 1.3552e-38 3
0.133893 0.292877 0.807208 1.49357e-38 3
0.153255 0.305474 0.841927 1.33684e-38 3
0.177346 0.324675 0.894848 1.41052e-38 3
0.196292 0.33227 0.91578 1.41041e-38 3
0.209861 0.330338 0.910456 1.35506e-38 3
0.217002 0.319203 0.879766 1.39208e-38 3
0.220088 0.30384 0.837425 1.429e-38 3
0.233619 0.30384 0.837425 1.40141e-38 3
0.244534 0.300625 0.828563 1.40145e-38 3
0.252576 0.294395 0.811391 1.38293e-38 3
0.264317 0.292877 0.807208 1.38293e-38 3
0.275937 0.291375 0.803069 1.34606e-38 3
0.287438 0.289889 0.798972 1.53045e-38 3
0.297314 0.28696 0.790901 1.50272e-38 3
0.308534 0.285518 0.786927 1.44736e-38 3
0.319643 0.284091 0.782992 1.41049e-38 3
0.332294 0.284091 0.782992 1.34598e-38 3
0.343229 0.282677 0.779097 1.42892e-38 3
0.359393 0.285518 0.786927 1.31833e-38 3
0.372108 0.285518 0.786927 1.3829e-38 3
0.418468 0.310482 0.855729 1.36453e-38 3
0.432295 0.310482 0.855729 1.29088e-38 3
0.443696 0.308794 0.851078 1.36453e-38 3
0.438387 0.295928 0.815617 1.34609e-38 3
0.456319 0.299043 0.824202 1.29999e-38 3
0.47717 0.30384 0.837425 1.26312e-38 3
0.488091 0.302224 0.83297 1.18007e-38 3
0.498895 0.300625 0.828563 1.18929e-38 3
0.506919 0.297477 0.819887 1.17088e-38 3
0.52567 0.300625 0.828563 1.15241e-38 3
0.539058 0.300625 0.828563 1.14315e-38 3
0.54666 0.297477 0.819887 1.04178e-38 3
0.548422 0.291375 0.803069 1.04181e-38 3
0.555698 0.288417 0.794916 1.04185e-38 3
0.565671 0.28696 0.790901 1.09713e-38 3
0.569816 0.282677 0.779097 1.06014e-38 3
0.582404 0.282677 0.779097 1.06915e-38 3
0.600972 0.285518 0.786927 1.0506e-38 3
0.613687 0.285518 0.786927 1.14287e-38 3
0.629565 0.28696 0.790901 1.12439e-38 3
0.642344 0.28696 0.790901 1.05989e-38 3
0.697389 0.305474 0.841927 1.10595e-38 3
0.782513 0.336202 0.926618 1.05985e-38 3
0.792793 0.334224 0.921167 1.08748e-38 3
0.807677 0.334224 0.921167 1.08741e-38 3
0.822561 0.334224 0.921167 1.05053e-38 3
0.873408 0.348578 0.960726 1.03194e-38 3
0.899974 0.352908 0.972661 1.05035e-38 3
0.969908 0.373804 1.03025 1.08723e-38 3
0.993087 0.376279 1.03708 1.04102e-38 3
1.00984 0.376279 1.03708 1.05942e-38 3
1.01985 0.373804 1.03025 1.14244e-38 3
1.01643 0.366569 1.01031 1.06871e-38 3
-0.551922 0.2603 0.686835 7.37637e-39 3
-0.525988 0.269765 0.711811 8.02102e-39 3
-0.514487 0.269765 0.711811 6.91468e-39 3
-0.507601 0.27224 0.718341 8.02067e-39 3
-0.502915 0.276039 0.728365 8.38981e-39 3
-0.498097 0.279945 0.738672 9.12773e-39 3
-0.495511 0.285329 0.752877 9.40432e-39 3
-0.495252 0.292357 0.771421 8.94298e-39 3
-0.487591 0.295266 0.779097 9.03517e-39 3
-0.470323 0.292357 0.771421 9.8653e-39 3
-0.462415 0.295266 0.779097 1.00497e-38 3
-0.443212 0.290923 0.767639 1.06025e-38 3
-0.430809 0.290923 0.767639 8.75858e-39 3
-0.414343 0.288099 0.760186 1.04185e-38 3
-0.400118 0.286707 0.756514 7.74587e-39 3
-0.395538 0.292357 0.771421 9.12881e-39 3
-0.384971 0.293804 0.77524 8.85114e-39 3
-0.372445 0.293804 0.77524 1.07873e-38 3
-0.359919 0.293804 0.77524 9.6809e-39 3
-0.347393 0.293804 0.77524 9.03554e-39 3
-0.333217 0.292357 0.771421 1.08794e-38 3
-0.325565 0.296742 0.782992 1.005e-38 3
-0.3038 0.288099 0.760186 9.86565e-39 3
-0.30639 0.302798 0.798972 1.00497e-38 3
-0.293481 0.302798 0.798972 1.1617e-38 3
-0.295656 0.319077 0.841927 1.11557e-38 3
-0.266304 0.301261 0.794916 1.29996e-38 3
-0.257379 0.30592 0.807208 1.24461e-38 3
-0.241844 0.302798 0.798972 1.21691e-38 3
-0.224356 0.296742 0.782992 1.28145e-38 3
-0.201623 0.282611 0.745707 1.26294e-38 3
-0.189575 0.282611 0.745707 1.32755e-38 3
-0.175851 0.279945 0.738672 1.41045e-38 3
-0.167068 0.285329 0.752877 1.39194e-38 3
-0.157941 0.290923 0.767639 1.40112e-38 3
-0.15304 0.30592 0.807208 1.29049e-38 3
-0.141456 0.309106 0.815617 1.38279e-38 3
-0.126955 0.30592 0.807208 1.24457e-38 3
-0.141661 0.380438 1.00384 1.25372e-38 3
-0.125441 0.380438 1.00384 1.29059e-38 3
-0.109927 0.382893 1.01031 1.36442e-38 3
-0.0942105 0.385379 1.01687 1.41974e-38 3
-0.0777805 0.385379 1.01687 1.57629e-38 3
-0.0613505 0.385379 1.01687 1.53949e-38 3
-0.0449204 0.385379 1.01687 1.31804e-38 3
-0.0286766 0.387898 1.02352 1.40091e-38 3
-0.0121392 0.387898 1.02352 1.54842e-38 3
0.0042058 0.370927 0.97874 1.61296e-38 3
0.0195314 0.36188 0.954868 1.50247e-38 3
0.0349596 0.36188 0.954868 1.45662e-38 3
0.047492 0.341083 0.899991 1.52119e-38 3
0.0562178 0.309106 0.815617 1.35528e-38 3
0.0693961 0.309106 0.815617 1.43825e-38 3
0.0769625 0.288099 0.760186 1.29067e-38 3
0.0923844 0.298233 0.786927 1.42896e-38 3
0.10563 0.299739 0.790901 1.29992e-38 3
0.11901 0.301261 0.794916 1.38286e-38 3
0.131854 0.301261 0.794916 1.33684e-38 3
0.148466 0.309106 0.815617 1.34606e-38 3
0.179397 0.343054 0.905193 1.33677e-38 3
0.197446 0.349108 0.921167 1.35506e-38 3
0.192 0.315683 0.83297 1.38272e-38 3
0.205459 0.315683 0.83297 1.51183e-38 3
0.214357 0.309106 0.815617 1.41967e-38 3
0.227535 0.309106 0.815617 1.29074e-38 3
0.240713 0.309106 0.815617 1.27237e-38 3
0.24871 0.302798 0.798972 1.37372e-38 3
0.26162 0.302798 0.798972 1.23539e-38 3
0.273135 0.301261 0.794916 1.29999e-38 3
0.284535 0.299739 0.790901 1.41059e-38 3
0.29434 0.296742 0.782992 1.37372e-38 3
0.305464 0.295266 0.779097 1.39208e-38 3
0.318053 0.295266 0.779097 1.38286e-38 3
0.329004 0.293804 0.77524 1.3184e-38 3
0.338181 0.290923 0.767639 1.40137e-38 3
0.350584 0.290923 0.767639 1.42896e-38 3
0.364776 0.292357 0.771421 1.3829e-38 3
0.37724 0.292357 0.771421 1.41063e-38 3
0.425322 0.319077 0.841927 1.35542e-38 3
0.420825 0.30592 0.807208 1.32772e-38 3
0.433868 0.30592 0.807208 1.38297e-38 3
0.435681 0.298233 0.786927 1.42907e-38 3
0.455259 0.302798 0.798972 1.35531e-38 3
0.470569 0.304351 0.803069 1.18936e-38 3
0.486037 0.30592 0.807208 1.28148e-38 3
0.501666 0.307505 0.811391 1.26297e-38 3
0.522904 0.31236 0.824202 1.07858e-38 3
0.539058 0.314013 0.828563 1.1155e-38 3
0.543813 0.309106 0.815617 1.19847e-38 3
0.548422 0.304351 0.803069 1.0049e-38 3
0.552892 0.299739 0.790901 1.17085e-38 3
0.560014 0.296742 0.782992 1.0233e-38 3
0.537714 0.278631 0.735204 1.0694e-38 3
0.552185 0.279945 0.738672 1.06922e-38 3
0.589131 0.292357 0.771421 1.10599e-38 3
0.604573 0.293804 0.77524 1.02301e-38 3
0.617099 0.293804 0.77524 1.02301e-38 3
0.629625 0.293804 0.77524 9.67839e-39 3
0.658449 0.301261 0.794916 9.95497e-39 3
0.714836 0.320802 0.846478 1.00457e-38 3
0.736475 0.324308 0.855729 1.05067e-38 3
0.758592 0.327892 0.865185 9.67659e-39 3
0.79003 0.335302 0.884737 1.02301e-38 3
0.8424 0.351174 0.926618 1.05978e-38 3
0.867639 0.35538 0.937715 8.47733e-39 3
0.969908 0.39045 1.03025 1.04124e-38 3
0.993087 0.393036 1.03708 1.11496e-38 3
1.00984 0.393036 1.03708 1.1057e-38 3
1.01985 0.39045 1.03025 1.00429e-38 3
0.990861 0.37326 0.984896 1.07804e-38 3
-0.618256 0.276244 0.6991 6.72993e-39 3
-0.606961 0.276244 0.6991 6.17711e-39 3
-0.603751 0.279994 0.70859 6.26931e-39 3
-0.579198 0.273799 0.692913 6.63773e-39 3
-0.553313 0.266718 0.674993 6.82248e-39 3
-0.542407 0.266718 0.674993 7.46856e-39 3
-0.536122 0.269037 0.680863 7.74479e-39 3
-0.507533 0.271397 0.686835 9.31176e-39 3
-0.500828 0.273799 0.692913 9.77274e-39 3
-0.50071 0.279994 0.70859 1.03256e-38 3
-0.500587 0.286475 0.724993 9.31141e-39 3
-0.495758 0.29051 0.735204 9.40432e-39 3
-0.495511 0.297493 0.752877 8.7593e-39 3
-0.492824 0.303327 0.767639 8.02138e-39 3
-0.473458 0.29893 0.756514 8.57456e-39 3
-0.461235 0.29893 0.756514 8.94334e-39 3
-0.449012 0.29893 0.756514 8.48344e-39 3
-0.44105 0.301847 0.763895 8.75858e-39 3
-0.414552 0.29188 0.738672 7.83663e-39 3
-0.402617 0.29188 0.738672 8.94298e-39 3
-0.396289 0.29607 0.749275 7.74587e-39 3
-0.395538 0.304821 0.771421 8.576e-39 3
-0.386886 0.307854 0.779097 9.221e-39 3
-0.372445 0.30633 0.77524 1.01419e-38 3
-0.359919 0.30633 0.77524 9.8653e-39 3
-0.342309 0.301847 0.763895 9.21993e-39 3
-0.316089 0.289152 0.731768 1.06951e-38 3
-0.295968 0.281266 0.711811 1.0511e-38 3
-0.281904 0.278732 0.705398 9.5887e-39 3
-0.270507 0.278732 0.705398 1.00497e-38 3
-0.279234 0.300382 0.760186 1.16174e-38 3
-0.277737 0.312518 0.790901 1.14323e-38 3
-0.264959 0.312518 0.790901 1.03259e-38 3
-0.247186 0.30633 0.77524 1.27223e-38 3
-0.23466 0.30633 0.77524 1.26301e-38 3
-0.207737 0.286475 0.724993 1.1523e-38 3
-0.192459 0.281266 0.711811 1.38279e-38 3
-0.179327 0.278732 0.705398 1.38286e-38 3
-0.16793 0.278732 0.705398 1.34591e-38 3
-0.156533 0.278732 0.705398 1.33662e-38 3
-0.145135 0.278732 0.705398 1.32733e-38 3
-0.136192 0.283847 0.718341 1.34584e-38 3
-0.124585 0.283847 0.718341 1.20769e-38 3
-0.112979 0.283847 0.718341 1.29067e-38 3
-0.102311 0.286475 0.724993 1.37357e-38 3
-0.0897655 0.283847 0.718341 1.29981e-38 3
-0.0781589 0.283847 0.718341 1.34598e-38 3
-0.0677964 0.289152 0.731768 1.37354e-38 3
-0.0748637 0.386741 0.97874 1.37346e-38 3
-0.0590498 0.386741 0.97874 1.47488e-38 3
0.0124153 0.23984 0.606971 1.64072e-38 3
0.0227515 0.24555 0.621422 1.37357e-38 3
0.0362439 0.271397 0.686835 1.32755e-38 3
0.0534348 0.30633 0.77524 1.26308e-38 3
0.0679799 0.315707 0.798972 1.3184e-38 3
0.0808892 0.315707 0.798972 1.43818e-38 3
0.0923844 0.310948 0.786927 1.34598e-38 3
0.104574 0.309393 0.782992 1.41056e-38 3
0.117814 0.310948 0.786927 1.41052e-38 3
0.130529 0.310948 0.786927 1.29996e-38 3
0.148466 0.322284 0.815617 1.33684e-38 3
0.161644 0.322284 0.815617 1.32751e-38 3
0.176662 0.325677 0.824202 1.53023e-38 3
0.182303 0.312518 0.790901 1.41963e-38 3
0.193132 0.309393 0.782992 1.51179e-38 3
0.203745 0.30633 0.77524 1.42889e-38 3
0.216271 0.30633 0.77524 1.40134e-38 3
0.233419 0.312518 0.790901 1.3645e-38 3
0.246198 0.312518 0.790901 1.3184e-38 3
0.258977 0.312518 0.790901 1.33684e-38 3
0.271756 0.312518 0.790901 1.29078e-38 3
0.283105 0.310948 0.786927 1.37375e-38 3
0.292876 0.307854 0.779097 1.29996e-38 3
0.302455 0.304821 0.771421 1.37364e-38 3
0.314919 0.304821 0.771421 1.29067e-38 3
0.322615 0.300382 0.760186 1.33684e-38 3
0.331678 0.297493 0.752877 1.2539e-38 3
0.342197 0.29607 0.749275 1.23535e-38 3
0.357727 0.29893 0.756514 1.22617e-38 3
0.36995 0.29893 0.756514 1.35528e-38 3
0.384029 0.300382 0.760186 1.37386e-38 3
0.400197 0.303327 0.767639 1.22627e-38 3
0.4126 0.303327 0.767639 1.26308e-38 3
0.418843 0.29893 0.756514 1.28156e-38 3
0.433159 0.300382 0.760186 1.31843e-38 3
0.461111 0.310948 0.786927 1.23546e-38 3
0.476218 0.312518 0.790901 1.15248e-38 3
0.49908 0.318962 0.807208 1.18e-38 3
0.517457 0.322284 0.815617 1.15227e-38 3
0.536221 0.325677 0.824202 1.17081e-38 3
0.538207 0.318962 0.807208 1.18922e-38 3
0.548422 0.317326 0.803069 1.13393e-38 3
0.552892 0.312518 0.790901 1.15241e-38 3
0.560014 0.309393 0.782992 1.17081e-38 3
0.525381 0.283847 0.718341 9.77202e-39 3
0.534535 0.282551 0.715061 1.13379e-38 3
0.556249 0.287807 0.728365 1.13372e-38 3
0.570672 0.289152 0.731768 1.05067e-38 3
0.582495 0.289152 0.731768 1.09688e-38 3
0.599925 0.29188 0.738672 1.00472e-38 3
0.635855 0.303327 0.767639 9.40252e-39 3
0.661223 0.309393 0.782992 1.00472e-38 3
0.736475 0.338134 0.855729 9.58583e-39 3
0.754423 0.339992 0.860431 9.49364e-39 3
0.772571 0.341871 0.865185 1.0139e-38 3
0.808895 0.351583 0.889764 1.01379e-38 3
0.837548 0.35768 0.905193 9.21561e-39 3
0.996121 0.418099 1.0581 8.20039e-39 3
1.00642 0.415293 1.051 9.21454e-39 3
1.01658 0.412524 1.04399 1.02273e-38 3
1.0266 0.409792 1.03708 1.06879e-38 3
-0.629552 0.287539 0.6991 6.45334e-39 3
-0.602128 0.280038 0.680863 6.36115e-39 3
-0.591127 0.280038 0.680863 5.99236e-39 3
-0.590394 0.284995 0.692913 6.63845e-39 3
-0.574117 0.282495 0.686835 8.02102e-39 3
-0.553313 0.277624 0.674993 7.74443e-39 3
-0.542407 0.277624 0.674993 6.91395e-39 3
-0.533801 0.278826 0.677915 7.55968e-39 3
-0.522848 0.278826 0.677915 7.28274e-39 3
-0.509688 0.277624 0.674993 7.00687e-39 3
-0.498782 0.277624 0.674993 6.63809e-39 3
-0.485782 0.276433 0.672096 8.29797e-39 3
-0.47697 0.277624 0.674993 8.39017e-39 3
-0.47424 0.282495 0.686835 7.00723e-39 3
-0.484388 0.295453 0.718341 7.46856e-39 3
-0.479378 0.299576 0.728365 7.74515e-39 3
-0.472 0.302389 0.735204 8.20685e-39 3
-0.462292 0.303815 0.738672 7.93027e-39 3
-0.452491 0.305255 0.742173 9.21993e-39 3
-0.438422 0.303815 0.738672 8.11322e-39 3
-0.432608 0.308176 0.749275 7.19126e-39 3
-0.412605 0.302389 0.735204 6.54625e-39 3
-0.391535 0.295453 0.718341 8.76003e-39 3
-0.379929 0.295453 0.718341 8.29977e-39 3
-0.371733 0.298189 0.724993 8.11645e-39 3
-0.360019 0.298189 0.724993 8.85222e-39 3
-0.365213 0.312664 0.760186 9.31212e-39 3
-0.347864 0.308176 0.749275 1.10638e-38 3
-0.332575 0.305255 0.742173 1.05117e-38 3
-0.304699 0.29013 0.705398 1.09727e-38 3
-0.293301 0.29013 0.705398 1.12486e-38 3
-0.279387 0.287539 0.6991 1.01415e-38 3
-0.268091 0.287539 0.6991 1.17085e-38 3
-0.252291 0.282495 0.686835 1.19851e-38 3
-0.2455 0.287539 0.6991 1.06947e-38 3
-0.234204 0.287539 0.6991 1.23542e-38 3
-0.222909 0.287539 0.6991 1.31833e-38 3
-0.211613 0.287539 0.6991 1.16159e-38 3
-0.200318 0.287539 0.6991 1.19847e-38 3
-0.189022 0.287539 0.6991 1.43811e-38 3
-0.177726 0.287539 0.6991 1.18007e-38 3
-0.164958 0.284995 0.692913 1.28138e-38 3
-0.153762 0.284995 0.692913 1.2813e-38 3
-0.12888 0.257635 0.626394 1.52087e-38 3
-0.118286 0.256609 0.623898 1.49335e-38 3
-0.119121 0.282495 0.686835 1.2629e-38 3
-0.100528 0.262893 0.639177 1.27216e-38 3
-0.0898337 0.261825 0.636579 1.36435e-38 3
-0.087361 0.287539 0.6991 1.31825e-38 3
-0.0760654 0.287539 0.6991 1.29059e-38 3
-0.0647697 0.287539 0.6991 1.26283e-38 3
-0.0534741 0.287539 0.6991 1.31811e-38 3
-0.0421784 0.287539 0.6991 1.41963e-38 3
-0.00698232 0.242138 0.588716 1.59455e-38 3
0.0025298 0.242138 0.588716 1.47477e-38 3
0.0121332 0.243973 0.593176 1.62232e-38 3
0.0222224 0.249647 0.606971 1.43811e-38 3
0.0646799 0.312664 0.760186 1.28148e-38 3
0.077717 0.31573 0.767639 1.39208e-38 3
0.0901201 0.31573 0.767639 1.38286e-38 3
0.103538 0.318856 0.77524 1.35528e-38 3
0.117225 0.322044 0.782992 1.29996e-38 3
0.129876 0.322044 0.782992 1.25393e-38 3
0.150028 0.338994 0.824202 1.34613e-38 3
0.163345 0.338994 0.824202 1.28145e-38 3
0.171254 0.328617 0.798972 1.49339e-38 3
0.178693 0.318856 0.77524 1.40123e-38 3
0.244961 0.323662 0.786927 1.24464e-38 3
0.257675 0.323662 0.786927 1.43832e-38 3
0.271756 0.325297 0.790901 1.32765e-38 3
0.283105 0.323662 0.786927 1.41981e-38 3
0.291426 0.318856 0.77524 1.38293e-38 3
0.300972 0.31573 0.767639 1.37372e-38 3
0.307349 0.309658 0.752877 1.40137e-38 3
0.317985 0.308176 0.749275 1.35528e-38 3
0.328519 0.306709 0.745707 1.29999e-38 3
0.335771 0.302389 0.735204 1.32762e-38 3
0.34929 0.303815 0.738672 1.23535e-38 3
0.356185 0.299576 0.728365 1.23539e-38 3
0.356351 0.29013 0.705398 1.27237e-38 3
0.364465 0.287539 0.6991 1.26308e-38 3
0.37576 0.287539 0.6991 1.18018e-38 3
0.394094 0.292767 0.711811 1.21702e-38 3
0.332951 0.240331 0.584322 1.25397e-38 3
0.49652 0.330302 0.803069 1.15237e-38 3
0.509496 0.330302 0.803069 1.13393e-38 3
0.530635 0.335463 0.815617 1.11557e-38 3
0.538207 0.332004 0.807208 1.09713e-38 3
0.534712 0.322044 0.782992 1.13397e-38 3
0.53142 0.312664 0.760186 1.13397e-38 3
0.509104 0.292767 0.711811 1.13404e-38 3
0.506783 0.284995 0.692913 1.05099e-38 3
0.517979 0.284995 0.692913 1.06929e-38 3
0.543607 0.292767 0.711811 1.01387e-38 3
0.560201 0.295453 0.718341 1.08766e-38 3
0.571807 0.295453 0.718341 1.16141e-38 3
0.591554 0.299576 0.728365 1.04163e-38 3
0.61186 0.303815 0.738672 1.06943e-38 3
0.718721 0.350048 0.851078 1.03241e-38 3
0.724596 0.346284 0.841927 1.01397e-38 3
0.715131 0.335463 0.815617 9.49364e-39 3
0.728309 0.335463 0.815617 9.77023e-39 3
0.757263 0.3426 0.83297 9.7695e-39 3
0.79613 0.353895 0.860431 9.03194e-39 3
0.892596 0.383386 0.932133 8.38549e-39 3
0.896979 0.378876 0.921167 9.5826e-39 3
-0.613129 0.291039 0.680863 6.54518e-39 3
-0.591835 0.286064 0.669224 6.26859e-39 3
-0.581022 0.286064 0.669224 6.54589e-39 3
-0.585215 0.293592 0.686835 6.82248e-39 3
-0.57161 0.29231 0.683836 6.26858e-39 3
-0.553313 0.28853 0.674993 6.08419e-39 3
-0.542407 0.28853 0.674993 7.65187e-39 3
-0.533801 0.289779 0.677915 7.28273e-39 3
-0.520594 0.28853 0.674993 7.46784e-39 3
-0.509688 0.28853 0.674993 7.37565e-39 3
-0.498782 0.28853 0.674993 7.28417e-39 3
-0.481648 0.284847 0.666376 7.37601e-39 3
-0.470881 0.284847 0.666376 7.37673e-39 3
-0.460114 0.284847 0.666376 7.92955e-39 3
-0.465183 0.294886 0.689861 8.20649e-39 3
-0.466363 0.302892 0.70859 8.20685e-39 3
-0.465445 0.309903 0.724993 7.56148e-39 3
-0.455841 0.311344 0.728365 7.65368e-39 3
-0.446148 0.312799 0.731768 7.19198e-39 3
-0.434324 0.312799 0.731768 7.65296e-39 3
-0.422501 0.312799 0.731768 7.19126e-39 3
-0.392344 0.298835 0.6991 9.12809e-39 3
-0.381048 0.298835 0.6991 9.221e-39 3
-0.340842 0.275469 0.644438 9.12953e-39 3
-0.326399 0.27211 0.636579 1.02359e-38 3
-0.309817 0.26669 0.623898 1.00508e-38 3
-0.299736 0.26669 0.623898 9.31176e-39 3
-0.288506 0.265631 0.621422 1.06947e-38 3
-0.299886 0.286064 0.669224 9.95857e-39 3
-0.291565 0.28853 0.674993 9.95784e-39 3
-0.2831 0.291039 0.680863 1.03259e-38 3
-0.272099 0.291039 0.680863 1.04177e-38 3
-0.252321 0.281257 0.657977 1.07869e-38 3
-0.239676 0.278913 0.652493 1.18932e-38 3
-0.188534 0.281257 0.657977 1.16152e-38 3
-0.179411 0.28364 0.663553 1.26286e-38 3
-0.167272 0.281257 0.657977 1.2445e-38 3
-0.156641 0.281257 0.657977 1.22606e-38 3
-0.137898 0.265631 0.621422 1.36428e-38 3
-0.125859 0.261481 0.611713 1.30893e-38 3
-0.102104 0.251651 0.588716 1.26286e-38 3
-0.0947282 0.257458 0.602302 1.18911e-38 3
-0.0856554 0.259454 0.606971 1.29974e-38 3
-0.0779636 0.26669 0.623898 1.29056e-38 3
-0.0676137 0.265631 0.621422 1.19833e-38 3
-0.0482992 0.269916 0.631445 1.68696e-38 3
-0.0371967 0.26354 0.616529 1.6409e-38 3
-0.0260066 0.251651 0.588716 1.40112e-38 3
-0.0164327 0.250708 0.586511 1.54853e-38 3
-0.00693021 0.249773 0.584322 1.45644e-38 3
0.00252033 0.250708 0.586511 1.39197e-38 3
0.0120419 0.251651 0.588716 1.34584e-38 3
0.0217173 0.253557 0.593176 1.31818e-38 3
0.0314205 0.254521 0.595431 1.30903e-38 3
0.0413557 0.256472 0.599994 1.35524e-38 3
0.0514442 0.258452 0.604627 1.2723e-38 3
0.0607444 0.256472 0.599994 1.20776e-38 3
0.0683439 0.248844 0.58215 1.30921e-38 3
0.0755044 0.241657 0.565337 1.36457e-38 3
0.158345 0.341526 0.798972 1.35528e-38 3
0.142228 0.28364 0.663553 1.31836e-38 3
0.256387 0.334695 0.782992 1.30918e-38 3
0.269038 0.334695 0.782992 1.38293e-38 3
0.2789 0.331381 0.77524 1.32758e-38 3
0.289991 0.329749 0.771421 1.22617e-38 3
0.299504 0.326532 0.763895 1.22609e-38 3
0.307349 0.321822 0.752877 1.34598e-38 3
0.313485 0.31575 0.738672 1.39215e-38 3
0.322379 0.312799 0.731768 1.24471e-38 3
0.316457 0.296191 0.692913 1.3184e-38 3
0.327652 0.296191 0.692913 1.31833e-38 3
0.335876 0.293592 0.686835 1.25379e-38 3
0.332395 0.281257 0.657977 1.29074e-38 3
0.343026 0.281257 0.657977 1.18932e-38 3
0.342156 0.27211 0.636579 1.12479e-38 3
0.324721 0.250708 0.586511 1.21698e-38 3
0.331713 0.248844 0.58215 1.14326e-38 3
0.339856 0.247922 0.579994 1.17092e-38 3
0.477421 0.298835 0.6991 1.0049e-38 3
0.480143 0.293592 0.686835 1.03256e-38 3
0.49124 0.293592 0.686835 9.68091e-39 3
0.487375 0.284847 0.666376 1.01415e-38 3
0.50027 0.286064 0.669224 1.06021e-38 3
0.519972 0.291039 0.680863 1.00483e-38 3
0.530973 0.291039 0.680863 9.86386e-39 3
0.549136 0.294886 0.689861 9.86386e-39 3
0.57811 0.304268 0.711811 8.84971e-39 3
0.589611 0.304268 0.711811 8.75715e-39 3
0.587754 0.297507 0.695993 1.06925e-38 3
0.598999 0.297507 0.695993 9.86278e-39 3
0.594394 0.289779 0.677915 9.8617e-39 3
0.597587 0.286064 0.669224 1.04142e-38 3
0.611011 0.287292 0.672096 1.00464e-38 3
0.613965 0.28364 0.663553 1.03227e-38 3
-0.602648 0.296877 0.669224 6.82068e-39 3
-0.606961 0.310131 0.6991 7.65152e-39 3
-0.595665 0.310131 0.6991 6.73028e-39 3
-0.579198 0.307386 0.692913 6.63664e-39 3
-0.558124 0.30204 0.680863 8.57275e-39 3
-0.547123 0.30204 0.680863 8.29616e-39 3
-0.536122 0.30204 0.680863 8.48163e-39 3
-0.522848 0.300733 0.677915 9.4965e-39 3
-0.507501 0.298151 0.672096 7.56076e-39 3
-0.494519 0.296877 0.669224 7.37637e-39 3
-0.475576 0.291888 0.657977 7.56148e-39 3
-0.453512 0.28471 0.641797 6.82392e-39 3
-0.43954 0.282395 0.636579 7.10051e-39 3
-0.432773 0.28471 0.641797 7.1005e-39 3
-0.440454 0.296877 0.669224 7.28489e-39 3
-0.435221 0.300733 0.677915 7.2849e-39 3
-0.447515 0.317211 0.715061 7.65368e-39 3
-0.442017 0.321617 0.724993 7.28417e-39 3
-0.42832 0.320135 0.721652 9.40467e-39 3
-0.403639 0.310131 0.6991 7.83663e-39 3
-0.363161 0.287063 0.647101 8.8515e-39 3
-0.34697 0.282395 0.636579 7.65403e-39 3
-0.332628 0.278993 0.628909 8.94513e-39 3
-0.322467 0.278993 0.628909 9.31391e-39 3
-0.308587 0.275672 0.621422 1.005e-38 3
-0.298547 0.275672 0.621422 9.95641e-39 3
-0.288506 0.275672 0.621422 1.02337e-38 3
-0.277365 0.274582 0.618966 1.04188e-38 3
-0.143386 0.26719 0.602302 1.22606e-38 3
-0.131133 0.262148 0.590937 1.42885e-38 3
-0.120674 0.260185 0.586511 1.24446e-38 3
-0.110371 0.25825 0.58215 1.20755e-38 3
-0.10022 0.256344 0.577854 1.29038e-38 3
-0.0912197 0.257294 0.579994 1.41949e-38 3
-0.0821528 0.25825 0.58215 1.36417e-38 3
-0.0724773 0.257294 0.579994 1.17989e-38 3
-0.0535366 0.256344 0.577854 1.33666e-38 3
-0.045372 0.263141 0.593176 1.39197e-38 3
-0.0357878 0.263141 0.593176 1.27212e-38 3
-0.0258125 0.259214 0.584322 1.4196e-38 3
-0.0163714 0.259214 0.584322 1.3735e-38 3
-0.00690445 0.25825 0.58215 1.29059e-38 3
0.00252033 0.260185 0.586511 1.19854e-38 3
0.0120419 0.261163 0.588716 1.41967e-38 3
0.0216354 0.262148 0.590937 1.48406e-38 3
0.0311834 0.262148 0.590937 1.41967e-38 3
0.0408857 0.263141 0.593176 1.34602e-38 3
0.0504699 0.263141 0.593176 1.22624e-38 3
0.0600541 0.263141 0.593176 1.25393e-38 3
0.0666105 0.2517 0.567386 1.39233e-38 3
0.0752328 0.24989 0.563304 1.21723e-38 3
0.0840321 0.248994 0.561285 1.2356e-38 3
0.0937732 0.250792 0.565337 1.2356e-38 3
0.102908 0.250792 0.565337 1.27237e-38 3
0.154724 0.261163 0.588716 1.17088e-38 3
0.18326 0.261163 0.588716 1.08784e-38 3
0.200028 0.25825 0.58215 1.18003e-38 3
0.206366 0.254466 0.573621 1.22613e-38 3
0.262804 0.310131 0.6991 1.27216e-38 3
0.2741 0.310131 0.6991 1.36428e-38 3
0.285395 0.310131 0.6991 1.43811e-38 3
0.300718 0.314341 0.70859 1.32755e-38 3
0.305261 0.307386 0.692913 1.28159e-38 3
0.306949 0.298151 0.672096 1.33691e-38 3
0.313769 0.294361 0.663553 1.14319e-38 3
0.323121 0.293119 0.660753 1.19836e-38 3
0.332395 0.291888 0.657977 1.22613e-38 3
0.323969 0.275672 0.621422 1.27223e-38 3
0.32879 0.271364 0.611713 1.12471e-38 3
0.322307 0.25825 0.58215 1.14323e-38 3
0.3233 0.2517 0.567386 1.19854e-38 3
0.331267 0.250792 0.565337 1.17096e-38 3
0.344129 0.253538 0.571527 1.17096e-38 3
0.355961 0.255402 0.575729 1.06947e-38 3
0.363926 0.254466 0.573621 1.09713e-38 3
0.375948 0.256344 0.577854 1.01419e-38 3
0.394008 0.262148 0.590937 1.07873e-38 3
0.416118 0.270309 0.609332 1.01419e-38 3
0.427627 0.271364 0.611713 8.48236e-39 3
0.442699 0.274582 0.618966 8.48236e-39 3
0.459972 0.278993 0.628909 8.75895e-39 3
0.489805 0.290666 0.655223 8.02174e-39 3
0.511083 0.296877 0.669224 9.31176e-39 3
0.519675 0.295614 0.666376 9.86494e-39 3
0.525966 0.293119 0.660753 8.11322e-39 3
0.532151 0.290666 0.655223 9.31104e-39 3
0.556714 0.298151 0.672096 9.67875e-39 3
0.551019 0.289455 0.652493 9.86278e-39 3
0.57108 0.294361 0.663553 9.67731e-39 3
0.574498 0.290666 0.655223 1.09677e-38 3
0.580229 0.288254 0.649786 1.01376e-38 3
0.611011 0.298151 0.672096 9.58511e-39 3
0.613965 0.294361 0.663553 1.06915e-38 3
0.624686 0.294361 0.663553 1.00454e-38 3
0.632727 0.293119 0.660753 8.56988e-39 3
-0.606495 0.327271 0.711811 6.91323e-39 3
-0.589634 0.324322 0.705398 7.00471e-39 3
-0.578237 0.324322 0.705398 8.57275e-39 3
-0.551922 0.315787 0.686835 6.72992e-39 3
-0.543207 0.317178 0.689861 7.09942e-39 3
-0.520594 0.310343 0.674993 8.20648e-39 3
-0.498935 0.303795 0.660753 7.10014e-39 3
-0.488259 0.303795 0.660753 6.17854e-39 3
-0.465791 0.296294 0.644438 5.90196e-39 3
-0.448004 0.291496 0.634002 5.99452e-39 3
-0.429074 0.285712 0.621422 6.27146e-39 3
-0.425792 0.290321 0.631445 7.00903e-39 3
-0.425894 0.297519 0.647101 7.74659e-39 3
-0.42242 0.302519 0.657977 7.83807e-39 3
-0.417046 0.306381 0.666376 8.11393e-39 3
-0.418753 0.315787 0.686835 8.2976e-39 3
-0.407655 0.315787 0.686835 9.58906e-39 3
-0.375167 0.298753 0.649786 9.95892e-39 3
-0.357256 0.292681 0.636579 7.93062e-39 3
-0.34279 0.289155 0.628909 9.31355e-39 3
-0.331298 0.287998 0.626394 9.03661e-39 3
-0.316119 0.283463 0.616529 9.22064e-39 3
-0.302584 0.280154 0.609332 9.21956e-39 3
-0.293882 0.281248 0.611713 1.03252e-38 3
-0.283998 0.281248 0.611713 1.09706e-38 3
-0.27199 0.279068 0.606971 1.10642e-38 3
-0.139106 0.268655 0.584322 1.17085e-38 3
-0.125907 0.260868 0.567386 1.16159e-38 3
-0.115899 0.258991 0.563304 1.22591e-38 3
-0.107963 0.261816 0.569449 1.47481e-38 3
-0.0984042 0.260868 0.567386 1.51158e-38 3
-0.0889145 0.259926 0.565337 1.30882e-38 3
-0.0803604 0.261816 0.569449 1.39194e-38 3
-0.0714192 0.262772 0.571527 1.2168e-38 3
-0.0606358 0.256226 0.55729 1.29052e-38 3
-0.051086 0.253519 0.551403 1.31818e-38 3
-0.0421767 0.253519 0.551403 1.20769e-38 3
-0.0349925 0.266665 0.579994 1.28138e-38 3
-0.0254329 0.264704 0.575729 1.28138e-38 3
-0.0161306 0.264704 0.575729 1.53034e-38 3
-0.00685349 0.265681 0.577854 1.34598e-38 3
0.00250159 0.267656 0.58215 1.37368e-38 3
0.0119521 0.268655 0.584322 1.28148e-38 3
0.0214733 0.269661 0.586511 1.41048e-38 3
0.0307197 0.267656 0.58215 1.41056e-38 3
0.0391081 0.260868 0.567386 1.31836e-38 3
0.0479282 0.258991 0.563304 1.41985e-38 3
0.0564209 0.256226 0.55729 1.28159e-38 3
0.0654253 0.256226 0.55729 1.25404e-38 3
0.0746955 0.257141 0.55928 1.18032e-38 3
0.083434 0.256226 0.55729 1.27248e-38 3
0.093101 0.258063 0.561285 1.2817e-38 3
0.10217 0.258063 0.561285 1.23549e-38 3
0.111239 0.258063 0.561285 1.25393e-38 3
0.12074 0.258991 0.563304 1.13408e-38 3
0.14966 0.261816 0.569449 1.20783e-38 3
0.158861 0.261816 0.569449 1.26308e-38 3
0.170542 0.265681 0.577854 1.27223e-38 3
0.180545 0.266665 0.579994 1.23528e-38 3
0.192772 0.270675 0.588716 1.29063e-38 3
0.200028 0.267656 0.58215 1.14315e-38 3
0.205613 0.262772 0.571527 1.15237e-38 3
0.21329 0.260868 0.567386 1.40116e-38 3
0.220857 0.258991 0.563304 1.40101e-38 3
0.229135 0.258063 0.561285 1.61321e-38 3
0.233189 0.25263 0.549468 1.23535e-38 3
0.280443 0.292681 0.636579 1.29996e-38 3
0.286077 0.287998 0.626394 1.40134e-38 3
0.289256 0.281248 0.611713 1.23528e-38 3
0.299139 0.281248 0.611713 1.20758e-38 3
0.309023 0.281248 0.611713 1.22613e-38 3
0.316435 0.279068 0.606971 1.13401e-38 3
0.323732 0.276921 0.602302 1.14323e-38 3
0.330918 0.274807 0.597704 1.09713e-38 3
0.319824 0.258063 0.561285 1.08798e-38 3
0.328893 0.258063 0.561285 1.12489e-38 3
0.342877 0.261816 0.569449 1.03266e-38 3
0.355961 0.264704 0.575729 1.02337e-38 3
0.366611 0.265681 0.577854 1.10628e-38 3
0.37734 0.266665 0.579994 1.04174e-38 3
0.392527 0.270675 0.588716 1.03263e-38 3
0.405085 0.272725 0.593176 1.10649e-38 3
0.421048 0.276921 0.602302 8.66675e-39 3
0.43078 0.276921 0.602302 9.21993e-39 3
0.449149 0.282351 0.614111 8.66675e-39 3
0.466388 0.286851 0.623898 9.95749e-39 3
0.476468 0.286851 0.623898 9.03553e-39 3
0.506723 0.292681 0.636579 9.21993e-39 3
0.512839 0.290321 0.631445 8.5742e-39 3
0.518858 0.287998 0.626394 8.94226e-39 3
0.518606 0.282351 0.614111 9.49435e-39 3
0.520366 0.27799 0.604627 8.84863e-39 3
0.635615 0.327271 0.711811 1.14283e-38 3
0.647116 0.327271 0.711811 9.86134e-39 3
0.606258 0.301253 0.655223 1.05063e-38 3
0.619437 0.302519 0.657977 1.00447e-38 3
-0.534869 0.310541 0.652493 8.94153e-39 3
-0.544755 0.32264 0.677915 7.83626e-39 3
-0.550483 0.332722 0.6991 7.19161e-39 3
-0.520594 0.321249 0.674993 7.65259e-39 3
-0.496839 0.31315 0.657977 6.6388e-39 3
-0.488259 0.314471 0.660753 7.28417e-39 3
-0.469656 0.309252 0.649786 8.20685e-39 3
-0.429074 0.295753 0.621422 7.00831e-39 3
-0.420703 0.296931 0.623898 6.91611e-39 3
-0.420679 0.304203 0.639177 7.28489e-39 3
-0.405387 0.300523 0.631445 8.20685e-39 3
-0.415279 0.315804 0.663553 8.94298e-39 3
-0.411533 0.321249 0.674993 9.95713e-39 3
-0.400627 0.321249 0.674993 9.5887e-39 3
-0.375167 0.309252 0.649786 8.3916e-39 3
-0.35154 0.298119 0.626394 7.74587e-39 3
-0.340059 0.296931 0.623898 9.12916e-39 3
-0.331298 0.298119 0.626394 8.76002e-39 3
-0.316119 0.293424 0.616529 1.03266e-38 3
-0.301411 0.288875 0.606971 9.40395e-39 3
-0.291604 0.288875 0.606971 1.1155e-38 3
-0.10922 0.252643 0.530842 1.26276e-38 3
-0.102379 0.256999 0.539995 1.41949e-38 3
-0.0963105 0.26429 0.555314 1.32722e-38 3
-0.0870294 0.263356 0.553351 1.33651e-38 3
-0.0778137 0.262429 0.551403 1.19833e-38 3
-0.0693932 0.26429 0.555314 1.06933e-38 3
-0.0602072 0.263356 0.553351 1.14301e-38 3
-0.051086 0.262429 0.551403 1.17989e-38 3
-0.0421767 0.262429 0.551403 1.1155e-38 3
-0.0336227 0.26523 0.55729 1.37364e-38 3
-0.024884 0.268093 0.563304 1.3552e-38 3
-0.0158394 0.26906 0.565337 1.31833e-38 3
-0.00675381 0.271017 0.569449 1.21698e-38 3
0.002474 0.274006 0.575729 1.14319e-38 3
0.0118635 0.276036 0.579994 1.2907e-38 3
0.0212347 0.276036 0.579994 1.41056e-38 3
0.0307197 0.277062 0.58215 1.34602e-38 3
0.0388267 0.268093 0.563304 1.32758e-38 3
0.0479282 0.268093 0.563304 1.22624e-38 3
0.0560222 0.263356 0.553351 1.26315e-38 3
0.0649629 0.263356 0.553351 1.25404e-38 3
0.0744296 0.26523 0.55729 1.24489e-38 3
0.0828444 0.263356 0.553351 1.31858e-38 3
0.0921106 0.26429 0.555314 1.22638e-38 3
0.101805 0.266178 0.55928 1.20783e-38 3
0.110447 0.26523 0.55729 1.1433e-38 3
0.119451 0.26523 0.55729 1.22627e-38 3
0.139445 0.26906 0.565337 1.26312e-38 3
0.14858 0.26906 0.565337 1.25393e-38 3
0.157147 0.268093 0.563304 1.20776e-38 3
0.168062 0.271017 0.569449 1.18007e-38 3
0.177263 0.271017 0.569449 1.25372e-38 3
0.186463 0.271017 0.569449 1.2445e-38 3
0.194955 0.270035 0.567386 1.26301e-38 3
0.201928 0.267132 0.561285 1.22613e-38 3
0.210997 0.267132 0.561285 1.2445e-38 3
0.218499 0.26523 0.55729 1.34573e-38 3
0.222748 0.259686 0.545639 1.42878e-38 3
0.227599 0.255239 0.536296 1.48428e-38 3
0.234656 0.253503 0.532648 1.28152e-38 3
0.243263 0.253503 0.532648 1.2446e-38 3
0.248488 0.2501 0.525498 1.1984e-38 3
0.259592 0.252643 0.530842 1.15223e-38 3
0.297406 0.280187 0.588716 1.19833e-38 3
0.302371 0.276036 0.579994 1.18003e-38 3
0.311742 0.276036 0.579994 1.08791e-38 3
0.32351 0.278096 0.584322 1.15245e-38 3
0.335454 0.280187 0.588716 1.005e-38 3
0.333676 0.271017 0.569449 1.06039e-38 3
0.344129 0.272006 0.571527 1.19862e-38 3
0.357275 0.275017 0.577854 1.07869e-38 3
0.366611 0.275017 0.577854 1.13401e-38 3
0.375948 0.275017 0.577854 1.15245e-38 3
0.389598 0.278096 0.584322 1.14326e-38 3
0.400533 0.279138 0.586511 1.16181e-38 3
0.411551 0.280187 0.588716 1.10638e-38 3
0.419486 0.279138 0.586511 1.00497e-38 3
0.430575 0.280187 0.588716 9.49651e-39 3
0.445107 0.283383 0.595431 9.31212e-39 3
0.453006 0.28231 0.593176 1.06951e-38 3
0.488839 0.292273 0.614111 8.57456e-39 3
0.492962 0.288875 0.606971 9.31176e-39 3
0.498902 0.286653 0.602302 9.12665e-39 3
0.50475 0.284465 0.597704 9.21777e-39 3
0.501022 0.277062 0.58215 9.3096e-39 3
0.512332 0.278096 0.584322 9.49292e-39 3
0.515997 0.275017 0.577854 1.00454e-38 3
0.533204 0.279138 0.586511 1.08759e-38 3
0.635508 0.326885 0.686835 1.06904e-38 3
-0.59079 0.361784 0.735204 6.45369e-39 3
-0.578911 0.361784 0.735204 6.54661e-39 3
-0.569707 0.36349 0.738672 6.54553e-39 3
-0.557772 0.36349 0.738672 6.08455e-39 3
-0.486208 0.323781 0.657977 6.36222e-39 3
-0.469656 0.319751 0.649786 7.2849e-39 3
-0.439115 0.305793 0.621422 7.09978e-39 3
-0.366655 0.267569 0.543745 7.9299e-39 3
-0.356631 0.266643 0.541863 8.20613e-39 3
-0.345091 0.271338 0.551403 7.83663e-39 3
-0.357372 0.304585 0.618966 8.48235e-39 3
-0.346004 0.303386 0.616529 8.48271e-39 3
-0.340059 0.307012 0.623898 9.12808e-39 3
-0.329978 0.307012 0.623898 8.8515e-39 3
-0.314879 0.302196 0.614111 9.58834e-39 3
-0.297947 0.295249 0.599994 1.02334e-38 3
-0.287152 0.294122 0.597704 1.09706e-38 3
-0.253333 0.278195 0.565337 9.77309e-39 3
-0.244199 0.278195 0.565337 9.12736e-39 3
-0.234219 0.277194 0.563304 1.08791e-38 3
-0.103601 0.247781 0.503532 1.15212e-38 3
-0.0960834 0.249385 0.506791 1.29967e-38 3
-0.0908346 0.257726 0.523741 1.38261e-38 3
-0.082927 0.259461 0.527267 1.29963e-38 3
-0.0744077 0.259461 0.527267 1.22606e-38 3
-0.066788 0.263003 0.534466 1.17996e-38 3
-0.0593681 0.268502 0.545639 1.31822e-38 3
-0.0507287 0.26944 0.547547 1.23528e-38 3
-0.041447 0.266643 0.541863 1.24464e-38 3
-0.0328055 0.267569 0.543745 1.28152e-38 3
-0.0238543 0.265724 0.539995 1.29996e-38 3
-0.0151294 0.265724 0.539995 1.18014e-38 3
-0.00644895 0.267569 0.543745 1.0972e-38 3
0.00233655 0.267569 0.543745 1.20783e-38 3
0.0112787 0.271338 0.551403 1.19858e-38 3
0.0204763 0.275214 0.55928 1.11564e-38 3
0.0295129 0.275214 0.55928 1.29077e-38 3
0.0385494 0.275214 0.55928 1.27241e-38 3
0.0475859 0.275214 0.55928 1.22631e-38 3
0.0552414 0.268502 0.545639 1.20783e-38 3
0.0640575 0.268502 0.545639 1.21705e-38 3
0.0731284 0.26944 0.547547 1.17106e-38 3
0.0819754 0.26944 0.547547 1.15262e-38 3
0.0921106 0.273262 0.555314 1.06965e-38 3
0.101443 0.274235 0.55729 1.19865e-38 3
0.109667 0.272297 0.553351 1.125e-38 3
0.118607 0.272297 0.553351 1.18028e-38 3
0.127099 0.271338 0.551403 1.18018e-38 3
0.13746 0.274235 0.55729 1.3185e-38 3
0.146464 0.274235 0.55729 1.18018e-38 3
0.154918 0.273262 0.555314 1.18014e-38 3
0.165061 0.275214 0.55928 1.21695e-38 3
0.174721 0.276201 0.561285 1.29981e-38 3
0.18379 0.276201 0.561285 1.29978e-38 3
0.210243 0.275214 0.55928 1.17081e-38 3
0.216955 0.272297 0.553351 1.18911e-38 3
0.218186 0.263003 0.534466 1.1984e-38 3
0.22605 0.262109 0.532648 1.37357e-38 3
0.233071 0.260338 0.529049 1.34602e-38 3
0.241619 0.260338 0.529049 1.31825e-38 3
0.249325 0.259461 0.527267 1.39183e-38 3
0.257844 0.259461 0.527267 1.24421e-38 3
0.280532 0.273262 0.555314 1.22581e-38 3
0.287465 0.271338 0.551403 1.20755e-38 3
0.296374 0.271338 0.551403 1.1523e-38 3
0.307449 0.273262 0.555314 1.09713e-38 3
0.320974 0.277194 0.563304 1.15252e-38 3
0.342392 0.287537 0.584322 1.09727e-38 3
0.351833 0.287537 0.584322 1.17103e-38 3
0.361274 0.287537 0.584322 1.09724e-38 3
0.367969 0.285407 0.579994 1.10642e-38 3
0.375948 0.284354 0.577854 1.21698e-38 3
0.388149 0.286468 0.58215 1.18947e-38 3
0.397555 0.286468 0.58215 1.02359e-38 3
0.405454 0.285407 0.579994 9.77418e-39 3
0.414825 0.285407 0.579994 9.95749e-39 3
0.422631 0.284354 0.577854 1.1156e-38 3
0.43038 0.283309 0.575729 1.04185e-38 3
0.436473 0.281241 0.571527 9.95749e-39 3
0.44088 0.278195 0.565337 1.09716e-38 3
0.468624 0.289699 0.588716 9.12773e-39 3
0.481758 0.291894 0.593176 8.66639e-39 3
0.491342 0.291894 0.593176 8.38908e-39 3
0.500927 0.291894 0.593176 9.31104e-39 3
0.499166 0.285407 0.579994 9.21813e-39 3
0.512332 0.287537 0.584322 9.30996e-39 3
0.512217 0.282271 0.573621 1.01383e-38 3
0.525334 0.284354 0.577854 1.06922e-38 3
-0.604992 0.382645 0.752877 6.45369e-39 3
-0.584399 0.377205 0.742173 5.62465e-39 3
-0.58916 0.388245 0.763895 6.45333e-39 3
-0.501049 0.337247 0.663553 7.28309e-39 3
-0.486208 0.334413 0.657977 7.46856e-39 3
-0.366414 0.263544 0.518538 8.2976e-39 3
-0.359225 0.264419 0.520261 7.92882e-39 3
-0.356745 0.268886 0.529049 7.56004e-39 3
-0.350566 0.270715 0.532648 8.02102e-39 3
-0.344302 0.272569 0.536296 7.00758e-39 3
-0.368443 0.299211 0.588716 9.03481e-39 3
-0.347751 0.306116 0.602302 8.57419e-39 3
-0.335439 0.303779 0.597704 8.2976e-39 3
-0.323533 0.310899 0.611713 9.58835e-39 3
-0.305301 0.302624 0.595431 9.58798e-39 3
-0.291251 0.298091 0.586511 1.04177e-38 3
-0.27968 0.295874 0.58215 9.77237e-39 3
-0.264377 0.289419 0.569449 9.31248e-39 3
-0.252422 0.286296 0.563304 9.49615e-39 3
-0.243321 0.286296 0.563304 9.68054e-39 3
-0.23338 0.285269 0.561285 9.58834e-39 3
-0.22351 0.284251 0.55928 1.08791e-38 3
-0.119489 0.255097 0.501918 1.29967e-38 3
-0.111379 0.255097 0.501918 1.44704e-38 3
-0.103269 0.255097 0.501918 1.3457e-38 3
-0.0960834 0.257573 0.506791 1.25357e-38 3
-0.0902311 0.264419 0.520261 1.27212e-38 3
-0.0826487 0.267081 0.525498 1.26286e-38 3
-0.0744077 0.26798 0.527267 1.26294e-38 3
-0.0670167 0.272569 0.536296 1.44733e-38 3
-0.0595757 0.278287 0.547547 1.45655e-38 3
-0.0507287 0.278287 0.547547 1.21695e-38 3
-0.0418818 0.278287 0.547547 1.20783e-38 3
-0.0330349 0.278287 0.547547 1.1894e-38 3
-0.0241879 0.278287 0.547547 1.21705e-38 3
-0.0151294 0.274449 0.539995 1.08809e-38 3
-0.00640447 0.274449 0.539995 1.10653e-38 3
0.00230455 0.272569 0.536296 1.38301e-38 3
0.0108951 0.270715 0.532648 1.20787e-38 3
0.0195013 0.270715 0.532648 1.08802e-38 3
0.0264013 0.254282 0.500314 1.18021e-38 3
0.0345956 0.255097 0.501918 1.16177e-38 3
0.0465876 0.278287 0.547547 1.25397e-38 3
0.0516426 0.259251 0.510093 1.18943e-38 3
0.0602771 0.260951 0.513437 1.25393e-38 3
0.0711385 0.270715 0.532648 1.30014e-38 3
0.0792059 0.268886 0.529049 1.2356e-38 3
0.087754 0.268886 0.529049 1.2356e-38 3
0.0989771 0.276355 0.543745 1.17099e-38 3
0.107763 0.276355 0.543745 1.16184e-38 3
0.114952 0.272569 0.536296 1.1434e-38 3
0.123617 0.272569 0.536296 1.31858e-38 3
0.135531 0.279264 0.549468 1.13411e-38 3
0.144917 0.280247 0.551403 1.15255e-38 3
0.152219 0.277318 0.545639 1.2539e-38 3
0.161035 0.277318 0.545639 1.29992e-38 3
0.167516 0.273506 0.538139 1.31825e-38 3
0.175608 0.272569 0.536296 1.25364e-38 3
0.18969 0.26798 0.527267 1.18932e-38 3
0.196883 0.266188 0.523741 1.22617e-38 3
0.206035 0.267081 0.525498 1.26294e-38 3
0.214525 0.267081 0.525498 1.40123e-38 3
0.223767 0.26798 0.527267 1.27216e-38 3
0.229963 0.265301 0.521995 1.38279e-38 3
0.238397 0.265301 0.521995 1.43807e-38 3
0.246832 0.265301 0.521995 1.44708e-38 3
0.256979 0.267081 0.525498 1.53913e-38 3
0.265469 0.267081 0.525498 1.38239e-38 3
0.265065 0.25841 0.508436 1.189e-38 3
0.27328 0.25841 0.508436 1.12464e-38 3
0.281495 0.25841 0.508436 1.04174e-38 3
0.28971 0.25841 0.508436 1.06954e-38 3
0.330076 0.286296 0.563304 1.12489e-38 3
0.351833 0.296978 0.584322 1.08805e-38 3
0.361274 0.296978 0.584322 1.08805e-38 3
0.35997 0.28837 0.567386 1.04195e-38 3
0.358739 0.280247 0.551403 1.10642e-38 3
0.367648 0.280247 0.551403 9.86637e-39 3
0.400533 0.298091 0.586511 1.125e-38 3
0.419486 0.298091 0.586511 9.95749e-39 3
0.427362 0.296978 0.584322 1.03263e-38 3
0.428803 0.291539 0.573621 1.06951e-38 3
0.430192 0.286296 0.563304 9.03553e-39 3
0.437719 0.285269 0.561285 9.58871e-39 3
0.461681 0.294778 0.579994 9.40432e-39 3
0.474568 0.296978 0.584322 9.40396e-39 3
0.484009 0.296978 0.584322 8.20469e-39 3
0.48089 0.289419 0.569449 7.92811e-39 3
0.484802 0.286296 0.563304 8.57275e-39 3
0.501113 0.290475 0.571527 8.94082e-39 3
0.499412 0.284251 0.55928 9.3096e-39 3
0.496047 0.277318 0.545639 1.06003e-38 3
-0.359276 0.266625 0.508436 1.0049e-38 3
-0.348796 0.264905 0.505156 9.49579e-39 3
-0.349657 0.271922 0.518538 8.20505e-39 3
-0.34586 0.275572 0.525498 7.46677e-39 3
-0.334163 0.312245 0.595431 7.28382e-39 3
-0.286952 0.303027 0.577854 1.07872e-38 3
-0.274576 0.29971 0.571527 9.86493e-39 3
-0.263419 0.297538 0.567386 9.12772e-39 3
-0.253333 0.296464 0.565337 1.00497e-38 3
-0.244199 0.296464 0.565337 9.95748e-39 3
-0.176625 0.241531 0.460584 1.07869e-38 3
-0.13399 0.259875 0.495565 1.15241e-38 3
-0.125191 0.25824 0.492448 1.23528e-38 3
-0.116138 0.255827 0.487846 1.28123e-38 3
-0.108256 0.255827 0.487846 1.2996e-38 3
-0.101321 0.25824 0.492448 1.28116e-38 3
-0.093955 0.259875 0.495565 1.28137e-38 3
-0.0873297 0.264053 0.503532 1.30903e-38 3
-0.0794494 0.264905 0.505156 1.41967e-38 3
-0.071984 0.267493 0.510093 1.3735e-38 3
-0.0656674 0.275572 0.525498 1.35517e-38 3
-0.059162 0.28514 0.543745 1.38279e-38 3
-0.050552 0.286134 0.545639 1.18014e-38 3
-0.0421767 0.289156 0.551403 1.2262e-38 3
-0.0151294 0.283174 0.539995 1.12486e-38 3
-0.00640447 0.283174 0.539995 1.10642e-38 3
0.00228887 0.279321 0.532648 1.24471e-38 3
0.0107488 0.275572 0.525498 1.30003e-38 3
0.0181436 0.259875 0.495565 1.29081e-38 3
0.0261506 0.259875 0.495565 1.18943e-38 3
0.0341577 0.259875 0.495565 1.42914e-38 3
0.0424333 0.26153 0.498721 1.36457e-38 3
0.0504913 0.26153 0.498721 1.08802e-38 3
0.0585494 0.26153 0.498721 1.21705e-38 3
0.0692541 0.271922 0.518538 1.24482e-38 3
0.0776323 0.271922 0.518538 1.20794e-38 3
0.0865839 0.273735 0.521995 1.20794e-38 3
0.0989771 0.28514 0.543745 1.17106e-38 3
0.107763 0.28514 0.543745 1.2172e-38 3
0.115347 0.282201 0.538139 1.21716e-38 3
0.124469 0.283174 0.539995 1.26326e-38 3
0.133194 0.283174 0.539995 1.18954e-38 3
0.144917 0.289156 0.551403 1.2262e-38 3
0.152751 0.287134 0.547547 1.34609e-38 3
0.162165 0.288142 0.549468 1.29992e-38 3
0.166942 0.281234 0.536296 1.2446e-38 3
0.174413 0.279321 0.532648 1.22606e-38 3
0.181171 0.2765 0.527267 1.26294e-38 3
0.189053 0.275572 0.525498 1.37368e-38 3
0.196227 0.273735 0.521995 1.26304e-38 3
0.204661 0.273735 0.521995 1.32747e-38 3
0.213095 0.273735 0.521995 1.37357e-38 3
0.223016 0.275572 0.525498 1.35524e-38 3
0.225454 0.268367 0.51176 1.30911e-38 3
0.230707 0.264905 0.505156 1.24457e-38 3
0.238869 0.264905 0.505156 1.31818e-38 3
0.249445 0.267493 0.510093 1.40094e-38 3
0.250348 0.259875 0.495565 1.42842e-38 3
0.25673 0.25824 0.492448 1.25343e-38 3
0.264687 0.25824 0.492448 1.13368e-38 3
0.272643 0.25824 0.492448 1.12471e-38 3
0.2806 0.25824 0.492448 1.03259e-38 3
0.288557 0.25824 0.492448 1.06954e-38 3
0.296513 0.25824 0.492448 1.08805e-38 3
0.30447 0.25824 0.492448 1.03281e-38 3
0.30759 0.254243 0.484825 9.22028e-39 3
0.31445 0.253458 0.483328 1.04192e-38 3
0.32226 0.253458 0.483328 1.12493e-38 3
0.332119 0.255032 0.48633 1.15259e-38 3
0.342102 0.256626 0.48937 1.10656e-38 3
0.353321 0.259055 0.494001 1.04195e-38 3
0.363597 0.2607 0.497138 9.58871e-39 3
0.425518 0.286134 0.545639 1.0511e-38 3
0.446788 0.294338 0.561285 9.31248e-39 3
0.459149 0.296464 0.565337 9.49615e-39 3
0.46998 0.297538 0.567386 9.40395e-39 3
0.473995 0.294338 0.561285 8.94261e-39 3
0.483064 0.294338 0.561285 8.11285e-39 3
0.483469 0.289156 0.551403 8.01958e-39 3
0.483859 0.284154 0.541863 8.20397e-39 3
-0.35467 0.271316 0.501918 1.03255e-38 3
-0.34656 0.271316 0.501918 9.49579e-39 3
-0.341736 0.27395 0.506791 8.38944e-39 3
-0.340153 0.279375 0.516826 8.48164e-39 3
-0.178392 0.23192 0.429037 1.04181e-38 3
-0.171459 0.23192 0.429037 1.14326e-38 3
-0.164527 0.23192 0.429037 1.08794e-38 3
-0.115778 0.26289 0.48633 1.37353e-38 3
-0.107586 0.262076 0.484825 1.2351e-38 3
-0.0997523 0.262076 0.484825 1.29978e-38 3
-0.0927805 0.264533 0.48937 1.19858e-38 3
-0.0862208 0.268732 0.497138 1.26304e-38 3
-0.0781883 0.268732 0.497138 1.48421e-38 3
-0.0708304 0.271316 0.501918 1.44729e-38 3
0.00976571 0.258081 0.477434 1.21709e-38 3
0.0174798 0.258081 0.477434 1.25397e-38 3
0.0257433 0.263709 0.487846 1.22631e-38 3
0.0336256 0.263709 0.487846 1.14333e-38 3
0.041508 0.263709 0.487846 1.15255e-38 3
0.0493903 0.263709 0.487846 1.27241e-38 3
0.056918 0.262076 0.484825 1.19865e-38 3
0.0653585 0.264533 0.48937 1.16184e-38 3
0.0739588 0.267037 0.494001 1.13419e-38 3
0.0840621 0.27395 0.506791 1.25397e-38 3
0.0982945 0.291899 0.539995 1.17099e-38 3
0.106286 0.289899 0.536296 1.2172e-38 3
0.114952 0.289899 0.536296 1.2356e-38 3
0.123617 0.289899 0.536296 1.22638e-38 3
0.132282 0.289899 0.536296 1.23564e-38 3
0.14858 0.305598 0.565337 1.16177e-38 3
0.1466 0.284063 0.525498 1.26312e-38 3
0.155091 0.284063 0.525498 1.26312e-38 3
0.156241 0.271316 0.501918 1.20773e-38 3
0.160242 0.264533 0.48937 1.21684e-38 3
0.168149 0.264533 0.48937 1.31836e-38 3
0.184111 0.276636 0.51176 1.3368e-38 3
0.186291 0.267882 0.495565 1.29996e-38 3
0.199995 0.275735 0.510093 1.29992e-38 3
0.208236 0.275735 0.510093 1.30914e-38 3
0.217898 0.277543 0.513437 1.3368e-38 3
0.222545 0.273067 0.505156 1.3645e-38 3
0.238101 0.272189 0.503532 1.26294e-38 3
0.246237 0.272189 0.503532 1.22588e-38 3
0.247218 0.264533 0.48937 1.26258e-38 3
0.255125 0.264533 0.48937 1.24428e-38 3
0.261399 0.26289 0.48633 1.2351e-38 3
0.270939 0.264533 0.48937 1.24457e-38 3
0.278846 0.264533 0.48937 1.04181e-38 3
0.286753 0.264533 0.48937 1.06032e-38 3
0.29466 0.264533 0.48937 9.95857e-39 3
0.301625 0.263709 0.487846 1.125e-38 3
0.305698 0.260464 0.481841 1.04195e-38 3
0.315424 0.262076 0.484825 1.01433e-38 3
0.32226 0.261267 0.483328 1.02355e-38 3
0.332119 0.26289 0.48633 1.13422e-38 3
0.342102 0.264533 0.48937 1.1711e-38 3
0.35221 0.266197 0.492448 1.10649e-38 3
0.362446 0.267882 0.495565 9.86637e-39 3
0.370453 0.267882 0.495565 1.005e-38 3
0.382088 0.270449 0.500314 9.86565e-39 3
0.413979 0.286951 0.530842 9.5887e-39 3
0.442035 0.30018 0.555314 8.48272e-39 3
0.44626 0.29702 0.549468 8.3898e-39 3
0.45998 0.30018 0.555314 8.57419e-39 3
0.462394 0.295981 0.547547 8.57383e-39 3
0.471241 0.295981 0.547547 1.05099e-38 3
0.463868 0.285982 0.529049 9.86457e-39 3
-0.38499 0.296534 0.532648 8.94261e-39 3
-0.352411 0.277646 0.498721 8.66567e-39 3
-0.344353 0.277646 0.498721 8.0203e-39 3
-0.337369 0.278533 0.500314 7.83627e-39 3
-0.332472 0.281229 0.505156 8.75822e-39 3
-0.32431 0.281229 0.505156 8.57419e-39 3
-0.262835 0.253433 0.455228 8.8515e-39 3
-0.254003 0.251968 0.452597 9.40503e-39 3
-0.24669 0.251968 0.452597 8.7593e-39 3
-0.239377 0.251968 0.452597 9.68089e-39 3
-0.193849 0.240831 0.432592 9.31139e-39 3
-0.185833 0.239508 0.430215 1.17085e-38 3
-0.177904 0.238199 0.427865 1.21702e-38 3
-0.170991 0.238199 0.427865 1.16177e-38 3
-0.164527 0.238852 0.429037 1.21702e-38 3
-0.158901 0.240831 0.432592 1.26312e-38 3
-0.106596 0.267426 0.480363 1.25372e-38 3
-0.0988344 0.267426 0.480363 1.2262e-38 3
-0.089969 0.264184 0.474541 1.11567e-38 3
-0.0825518 0.264987 0.475983 1.2078e-38 3
-0.0748612 0.264987 0.475983 1.43818e-38 3
-0.0325494 0.236905 0.425539 1.28155e-38 3
-0.0257438 0.23755 0.426699 1.21716e-38 3
-0.0189527 0.238852 0.429037 1.19865e-38 3
-0.0121538 0.241498 0.433791 1.26308e-38 3
-0.00517353 0.242844 0.436207 1.32758e-38 3
0.00186407 0.241498 0.433791 1.29077e-38 3
0.00920446 0.25052 0.449995 1.26319e-38 3
0.0165705 0.251968 0.452597 1.22631e-38 3
0.0254265 0.268249 0.481841 1.27241e-38 3
0.0331099 0.267426 0.480363 1.20787e-38 3
0.0401327 0.262593 0.471682 1.21709e-38 3
0.0474679 0.261021 0.468858 1.18943e-38 3
0.0555423 0.263386 0.473107 1.18017e-38 3
0.0631865 0.263386 0.473107 1.20794e-38 3
0.0708307 0.263386 0.473107 1.17099e-38 3
0.0819406 0.275018 0.494001 1.20787e-38 3
0.0976212 0.298565 0.536296 1.25393e-38 3
0.106286 0.298565 0.536296 1.125e-38 3
0.114952 0.298565 0.536296 1.22649e-38 3
0.122776 0.296534 0.532648 1.23567e-38 3
0.130494 0.29453 0.529049 1.26337e-38 3
0.133625 0.283055 0.508436 1.12489e-38 3
0.13738 0.274154 0.492448 1.23553e-38 3
0.145336 0.274154 0.492448 1.22624e-38 3
0.152335 0.27244 0.48937 1.21702e-38 3
0.160242 0.27244 0.48937 1.23538e-38 3
0.168149 0.27244 0.48937 1.27226e-38 3
0.176056 0.27244 0.48937 1.2539e-38 3
0.183963 0.27244 0.48937 1.29077e-38 3
0.194299 0.275889 0.495565 1.3368e-38 3
0.204899 0.279426 0.501918 1.26304e-38 3
0.20899 0.274154 0.492448 1.23549e-38 3
0.215591 0.27244 0.48937 1.30921e-38 3
0.225613 0.275018 0.494001 1.2446e-38 3
0.23286 0.274154 0.492448 1.35517e-38 3
0.240817 0.274154 0.492448 1.23521e-38 3
0.242668 0.267426 0.480363 1.21662e-38 3
0.25043 0.267426 0.480363 1.2535e-38 3
0.258191 0.267426 0.480363 1.20747e-38 3
0.267594 0.269077 0.483328 1.18929e-38 3
0.275404 0.269077 0.483328 1.18932e-38 3
0.283213 0.269077 0.483328 1.3184e-38 3
0.288352 0.266608 0.478894 1.1894e-38 3
0.29609 0.266608 0.478894 1.01437e-38 3
0.302902 0.265795 0.477434 1.06047e-38 3
0.313483 0.268249 0.481841 1.07887e-38 3
0.321268 0.268249 0.481841 9.40611e-39 3
0.331091 0.26991 0.484825 1.01437e-38 3
0.339977 0.270748 0.48633 1.01448e-38 3
0.347835 0.270748 0.48633 9.95929e-39 3
0.355693 0.270748 0.48633 1.08805e-38 3
0.365823 0.27244 0.48937 9.95857e-39 3
0.404032 0.29453 0.529049 9.86601e-39 3
0.418232 0.298565 0.536296 1.01422e-38 3
0.432826 0.302711 0.543745 9.58906e-39 3
0.441612 0.302711 0.543745 1.01415e-38 3
0.451967 0.303766 0.545639 8.3898e-39 3
0.449812 0.296534 0.532648 7.74407e-39 3
0.458418 0.296534 0.532648 8.48164e-39 3
