# .PCD v0.7 - Point Cloud Data file format
VERSION 0.7
FIELDS x y z rgb label
SIZE 4 4 4 4 4
TYPE F F F F U
COUNT 1 1 1 1 1
WIDTH 2428
HEIGHT 1
VIEWPOINT 0 0 0 1 0 0 0
POINTS 2428
DATA ascii
0.0735048 -0.244725 2.00767 1.19747e-39 1
0.108732 -0.251166 2.06051 1.75137e-39 1
-0.0250986 -0.223762 2.11619 1.56698e-39 1
0.00909362 -0.223762 2.11619 1.74993e-39 1
-0.02265 0.0757764 1.90974 2.30561e-39 3
0.00820644 0.0757764 1.90974 1.93612e-39 3
0.0438788 0.0851187 2.14518 1.93755e-39 3
0.0819054 0.0887666 2.23712 1.47657e-39 3
0.140061 0.105316 2.65421 2.30525e-39 3
-0.0487502 0.0971543 1.73998 3.87258e-39 3
-0.020188 0.0950423 1.70216 3.41196e-39 3
0.00731443 0.0950423 1.70216 3.68854e-39 3
0.0432858 0.118161 2.11619 3.87294e-39 3
0.0843144 0.128587 2.30292 3.78074e-39 3
0.140061 0.148202 2.65421 3.13537e-39 3
0.192747 0.156141 2.7964 3.04317e-39 3
-0.0457034 0.117439 1.63123 4.42575e-39 3
-0.0193468 0.117439 1.63123 4.5183e-39 3
0.00700966 0.117439 1.63123 4.7027e-39 3
0.0348169 0.122545 1.70216 4.7027e-39 3
0.0819054 0.161059 2.23712 4.88709e-39 3
0.129119 0.176158 2.44685 4.24172e-39 3
-2.01296 0.230072 2.60997 3.50272e-39 3
-1.97079 0.230072 2.60997 3.96297e-39 3
-3.32904 0.40601 4.60584 4.05589e-39 3
-0.0457034 0.143795 1.63123 5.71649e-39 3
-0.018952 0.140861 1.59794 4.97928e-39 3
0.0058011 0.119003 1.34999 4.5183e-39 3
0.0333662 0.143795 1.63123 4.97928e-39 3
0.0609934 0.146855 1.66594 4.7027e-39 3
0.0879107 0.146855 1.66594 5.44026e-39 3
0.138792 0.143795 1.63123 4.88709e-39 3
0.168663 0.146855 1.66594 5.07112e-39 3
0.19558 0.146855 1.66594 5.43991e-39 3
0.18756 0.110435 1.25279 5.71757e-39 3
0.204529 0.108696 1.23306 5.80976e-39 3
0.867865 0.222651 2.52578 5.4399e-39 3
-2.03875 0.28163 2.69997 5.34555e-39 3
-3.21437 0.453738 4.34996 5.99056e-39 3
-3.32904 0.480428 4.60584 5.25371e-39 3
-0.0152237 0.13389 1.28359 5.71685e-39 3
0.0055158 0.13389 1.28359 5.80832e-39 3
0.0333662 0.170152 1.63123 6.73028e-39 3
0.0609934 0.173772 1.66594 6.3615e-39 3
0.0860792 0.170152 1.63123 6.54589e-39 3
0.112436 0.170152 1.63123 6.08563e-39 3
0.138792 0.170152 1.63123 5.80904e-39 3
0.165149 0.170152 1.63123 6.08527e-39 3
0.158487 0.140815 1.34999 4.97857e-39 3
0.171432 0.13389 1.28359 6.45477e-39 3
0.190609 0.132801 1.27316 6.63952e-39 3
0.209477 0.13173 1.26289 4.98e-39 3
0.21595 0.123747 1.18635 5.71829e-39 3
0.235118 0.123747 1.18635 6.73244e-39 3
0.960851 0.291689 2.7964 6.17855e-39 3
-2.08238 0.325255 2.69997 6.26751e-39 3
-2.03875 0.325255 2.69997 6.08347e-39 3
-1.99513 0.325255 2.69997 5.16151e-39 3
-2.82968 0.47162 3.91496 5.71468e-39 3
-0.0147405 0.149721 1.24284 5.80976e-39 3
0.0053407 0.149721 1.24284 6.36221e-39 3
0.0256252 0.150918 1.25279 6.17783e-39 3
0.0597227 0.196508 1.63123 5.99343e-39 3
0.0860792 0.196508 1.63123 6.45406e-39 3
0.112436 0.196508 1.63123 7.56148e-39 3
0.138792 0.196508 1.63123 8.02174e-39 3
0.165149 0.196508 1.63123 9.86565e-39 3
0.167132 0.171498 1.42362 8.29761e-39 3
0.180299 0.162627 1.34999 8.94298e-39 3
0.192172 0.154629 1.28359 7.6526e-39 3
0.202931 0.147381 1.22343 7.1927e-39 3
0.219272 0.145114 1.2046 7.00974e-39 3
0.231609 0.140782 1.16864 6.45549e-39 3
0.250491 0.140782 1.16864 7.10086e-39 3
1.19573 0.419218 3.47996 6.63952e-39 3
-2.18977 0.396204 2.89997 6.82032e-39 3
-2.14292 0.396204 2.89997 6.35969e-39 3
-1.3732 0.334297 2.44685 1.05982e-38 3
-1.33367 0.334297 2.44685 1.05982e-38 3
-0.0143977 0.165853 1.21394 8.76074e-39 3
0.00529864 0.168465 1.23306 8.94405e-39 3
0.0256252 0.17116 1.25279 7.65296e-39 3
0.0585039 0.218316 1.59794 9.40467e-39 3
0.0860792 0.222865 1.63123 9.12809e-39 3
0.112436 0.222865 1.63123 9.22136e-39 3
0.138792 0.222865 1.63123 6.64024e-39 3
0.165149 0.222865 1.63123 8.02281e-39 3
0.176774 0.205721 1.50575 8.29905e-39 3
0.205046 0.209755 1.53528 7.46929e-39 3
0.202112 0.18444 1.34999 7.56184e-39 3
0.209477 0.17254 1.26289 8.66999e-39 3
0.222698 0.167149 1.22343 8.30156e-39 3
0.235118 0.162083 1.18635 8.48415e-39 3
0.250491 0.159664 1.16864 8.94477e-39 3
0.269374 0.159664 1.16864 9.95892e-39 3
-2.27399 0.460101 3.01151 8.2958e-39 3
-2.22533 0.460101 3.01151 8.48019e-39 3
-1.31172 0.357093 2.33729 1.03216e-38 3
-1.27395 0.357093 2.33729 1.11514e-38 3
-0.0141778 0.182635 1.19541 1.0789e-38 3
0.00521649 0.185467 1.21394 1.13408e-38 3
0.0252217 0.188388 1.23306 1.13408e-38 3
0.0585039 0.244135 1.59794 9.86565e-39 3
0.0860792 0.249221 1.63123 1.06032e-38 3
0.116063 0.257261 1.68385 9.3132e-39 3
0.13596 0.244135 1.59794 9.68305e-39 3
0.161778 0.244135 1.59794 9.22136e-39 3
0.191505 0.249221 1.63123 9.59014e-39 3
0.209147 0.239252 1.56598 8.29905e-39 3
0.217083 0.22153 1.44999 9.22172e-39 3
0.223924 0.206252 1.34999 1.00515e-38 3
0.229882 0.192945 1.26289 1.00526e-38 3
0.242466 0.186916 1.22343 1.01437e-38 3
0.250491 0.178547 1.16864 9.22172e-39 3
0.269374 0.178547 1.16864 9.40575e-39 3
0.942398 0.260057 1.70216 7.65368e-39 3
0.930976 0.23005 1.50575 7.19342e-39 3
0.871506 0.209871 1.37367 7.83878e-39 3
-1.31172 0.394858 2.33729 1.23503e-38 3
-1.27395 0.394858 2.33729 1.24428e-38 3
-0.794876 0.40084 2.3727 1.08744e-38 3
-0.780181 0.413367 2.44685 1.07826e-38 3
-0.0138604 0.197429 1.16864 9.68162e-39 3
0.00502185 0.197429 1.16864 9.58942e-39 3
0.0240839 0.198913 1.17743 1.06954e-38 3
0.0585039 0.269954 1.59794 1.16174e-38 3
0.0860792 0.275578 1.63123 1.07876e-38 3
0.117324 0.287559 1.70216 1.14333e-38 3
0.144827 0.287559 1.70216 1.19865e-38 3
0.172329 0.287559 1.70216 1.14333e-38 3
0.19558 0.281441 1.66594 1.15252e-38 3
0.217862 0.275578 1.63123 1.14333e-38 3
0.23445 0.264555 1.56598 1.15259e-38 3
0.236138 0.240504 1.42362 1.05117e-38 3
0.250047 0.232065 1.37367 1.06036e-38 3
0.250287 0.213351 1.26289 1.06039e-38 3
0.262233 0.206683 1.22343 9.77454e-39 3
0.277662 0.203504 1.2046 1.02348e-38 3
0.311502 0.213351 1.26289 1.06036e-38 3
0.914895 0.287559 1.70216 9.40611e-39 3
0.942398 0.287559 1.70216 1.05132e-38 3
0.9699 0.287559 1.70216 8.11609e-39 3
0.997402 0.287559 1.70216 7.47e-39 3
0.962156 0.269954 1.59794 7.5622e-39 3
0.930976 0.254379 1.50575 7.37781e-39 3
0.974036 0.259367 1.53528 9.40611e-39 3
-1.35208 0.445934 2.40921 1.05985e-38 3
-1.29325 0.439177 2.3727 1.0968e-38 3
-1.27422 0.445934 2.40921 1.13368e-38 3
-0.540843 0.298822 1.61442 1.07818e-38 3
-0.509506 0.295772 1.59794 9.67586e-39 3
-0.483687 0.295772 1.59794 1.10592e-38 3
-0.108893 0.263506 1.42362 1.11535e-38 3
-0.0800676 0.245641 1.32711 1.05081e-38 3
-0.049768 0.20853 1.12661 1.06011e-38 3
-0.0311172 0.205572 1.11063 1.06021e-38 3
-0.0133618 0.20853 1.12661 9.95713e-39 3
0.00498465 0.214709 1.15999 1.07869e-38 3
0.0320315 0.289857 1.56598 1.14323e-38 3
0.0597227 0.301934 1.63123 1.06947e-38 3
0.0860792 0.301934 1.63123 1.08794e-38 3
0.117324 0.315062 1.70216 1.11557e-38 3
0.148045 0.322063 1.73998 1.20776e-38 3
0.176159 0.322063 1.73998 1.19858e-38 3
0.19558 0.308358 1.66594 1.2078e-38 3
0.217862 0.301934 1.63123 1.15262e-38 3
0.239234 0.295772 1.59794 1.18018e-38 3
0.249761 0.278709 1.50575 1.15252e-38 3
0.25914 0.263506 1.42362 1.19854e-38 3
0.282142 0.263506 1.42362 1.15252e-38 3
0.305144 0.263506 1.42362 1.13408e-38 3
0.295869 0.237588 1.28359 1.20783e-38 3
0.316609 0.237588 1.28359 1.2539e-38 3
0.388269 0.27345 1.47734 1.18936e-38 3
0.914895 0.315062 1.70216 1.01437e-38 3
0.942398 0.315062 1.70216 1.0237e-38 3
0.949264 0.308358 1.66594 1.06969e-38 3
0.955844 0.301934 1.63123 9.86709e-39 3
0.982201 0.301934 1.63123 9.7749e-39 3
0.987974 0.295772 1.59794 1.04203e-38 3
-1.45227 0.492436 2.44685 7.46569e-39 3
-1.41274 0.492436 2.44685 8.01778e-39 3
-1.3732 0.492436 2.44685 6.08203e-39 3
-1.31315 0.48486 2.40921 5.06932e-39 3
-1.27422 0.48486 2.40921 6.17495e-39 3
-0.585021 0.335276 1.66594 1.10581e-38 3
-0.529917 0.318343 1.5818 1.07822e-38 3
-0.494372 0.312039 1.55048 1.18882e-38 3
-0.483687 0.321591 1.59794 1.18886e-38 3
-0.509899 0.358135 1.77953 1.2257e-38 3
-0.641529 0.477514 2.3727 1.2257e-38 3
-0.212705 0.342564 1.70216 1.18896e-38 3
-0.177486 0.328291 1.63123 1.23513e-38 3
-0.14655 0.318343 1.5818 1.22581e-38 3
-0.108893 0.286508 1.42362 1.39169e-38 3
-0.0908459 0.303038 1.50575 1.37325e-38 3
-0.0617656 0.281392 1.3982 1.36406e-38 3
-0.0395272 0.283927 1.4108 1.33658e-38 3
-0.0141778 0.24058 1.19541 1.20762e-38 3
0.00513685 0.24058 1.19541 1.21684e-38 3
0.0333662 0.328291 1.63123 1.20762e-38 3
0.0597227 0.328291 1.63123 1.20762e-38 3
0.0898218 0.342564 1.70216 1.12464e-38 3
0.119931 0.350177 1.73998 1.01412e-38 3
0.148045 0.350177 1.73998 1.0049e-38 3
0.176159 0.350177 1.73998 1.14319e-38 3
0.191505 0.328291 1.63123 1.15241e-38 3
0.217862 0.328291 1.63123 1.16163e-38 3
0.239234 0.321591 1.59794 1.15245e-38 3
0.254659 0.30898 1.53528 1.13397e-38 3
0.27409 0.303038 1.50575 1.16163e-38 3
0.298419 0.303038 1.50575 1.23539e-38 3
0.335659 0.315159 1.56598 1.20776e-38 3
0.357387 0.312039 1.55048 1.30918e-38 3
0.332985 0.271689 1.34999 1.21702e-38 3
0.354798 0.271689 1.34999 1.28148e-38 3
0.37661 0.271689 1.34999 1.26312e-38 3
0.565739 0.278902 1.38583 1.15255e-38 3
0.907112 0.350177 1.73998 1.03266e-38 3
0.895429 0.335276 1.66594 1.05117e-38 3
0.922347 0.335276 1.66594 9.86709e-39 3
0.949264 0.335276 1.66594 1.01437e-38 3
0.955844 0.328291 1.63123 9.7749e-39 3
0.982201 0.328291 1.63123 8.57635e-39 3
1.00856 0.328291 1.63123 9.49831e-39 3
-1.11925 0.460083 2.11619 8.66495e-39 3
-0.836399 0.354647 1.63123 1.12446e-38 3
-0.793511 0.34741 1.59794 1.05989e-38 3
-0.752338 0.340461 1.56598 1.14283e-38 3
-0.727036 0.340461 1.56598 1.08755e-38 3
-0.544475 0.33709 1.55048 1.22577e-38 3
-0.514331 0.333786 1.53528 1.16123e-38 3
-0.484773 0.330545 1.52037 1.12428e-38 3
-0.478801 0.3439 1.5818 1.39165e-38 3
-0.498568 0.37829 1.73998 1.38236e-38 3
-0.492336 0.395885 1.82091 1.38225e-38 3
-0.568724 0.486373 2.23712 1.35459e-38 3
-0.367021 0.460083 2.11619 1.42846e-38 3
-0.286387 0.395885 1.82091 1.43775e-38 3
-0.235097 0.362193 1.66594 1.47463e-38 3
-0.199682 0.34741 1.59794 1.36406e-38 3
-0.179354 0.35838 1.6484 1.40098e-38 3
-0.149571 0.350991 1.61442 1.48381e-38 3
-0.118596 0.33709 1.55048 1.36385e-38 3
-0.0926272 0.333786 1.53528 1.40995e-38 3
-0.0652618 0.32119 1.47734 1.27172e-38 3
-0.0413917 0.32119 1.47734 1.37328e-38 3
-0.0171972 0.315242 1.44999 1.27201e-38 3
0.00590288 0.29865 1.37367 1.26286e-38 3
0.0333662 0.354647 1.63123 1.41963e-38 3
0.0637042 0.37829 1.73998 1.3551e-38 3
0.0939046 0.386888 1.77953 1.23524e-38 3
0.122657 0.386888 1.77953 1.28134e-38 3
0.148045 0.37829 1.73998 1.17992e-38 3
0.172329 0.370067 1.70216 1.29059e-38 3
0.191505 0.354647 1.63123 1.24446e-38 3
0.213416 0.34741 1.59794 1.17074e-38 3
0.23445 0.340461 1.56598 1.1062e-38 3
0.254659 0.333786 1.53528 1.13386e-38 3
0.27409 0.327367 1.50575 1.2629e-38 3
0.298419 0.327367 1.50575 1.13386e-38 3
0.329077 0.333786 1.53528 1.14308e-38 3
0.334223 0.315242 1.44999 1.17085e-38 3
0.332985 0.293501 1.34999 1.02341e-38 3
0.348784 0.288527 1.32711 1.15244e-38 3
0.364056 0.283718 1.30499 1.14315e-38 3
0.378828 0.279067 1.28359 1.12471e-38 3
0.399567 0.279067 1.28359 1.15241e-38 3
0.484754 0.306722 1.4108 1.2445e-38 3
0.507548 0.306722 1.4108 1.2907e-38 3
0.516387 0.29865 1.37367 1.11553e-38 3
0.533898 0.296053 1.36173 1.13393e-38 3
0.5559 0.296053 1.36173 1.18932e-38 3
0.572921 0.293501 1.34999 1.30007e-38 3
0.584653 0.288527 1.32711 1.34606e-38 3
0.841595 0.362193 1.66594 1.09727e-38 3
0.887393 0.370067 1.70216 1.07876e-38 3
0.895429 0.362193 1.66594 1.06039e-38 3
0.922347 0.362193 1.66594 1.00515e-38 3
0.949264 0.362193 1.66594 1.00508e-38 3
0.955844 0.354647 1.63123 9.59051e-39 3
0.982201 0.354647 1.63123 8.85294e-39 3
1.00856 0.354647 1.63123 9.03733e-39 3
0.933357 0.283718 1.30499 9.3132e-39 3
0.99594 0.296053 1.36173 9.77454e-39 3
1.00054 0.290993 1.33845 1.06969e-38 3
0.964464 0.274566 1.26289 9.68198e-39 3
1.03495 0.288527 1.32711 8.29976e-39 3
1.05639 0.288527 1.32711 1.01437e-38 3
1.03402 0.276798 1.27316 9.40647e-39 3
1.07202 0.281373 1.2942 8.02318e-39 3
1.06649 0.274566 1.26289 9.59159e-39 3
1.06122 0.26808 1.23306 6.73316e-39 3
1.03237 0.255986 1.17743 6.63989e-39 3
1.27112 0.303983 1.3982 6.64169e-39 3
1.5195 0.279067 1.28359 4.61087e-39 3
-1.35503 0.401938 1.72086 7.55789e-39 3
-1.04625 0.435433 1.86427 8.38944e-39 3
-0.775952 0.332512 1.42362 7.92775e-39 3
-0.75295 0.332512 1.42362 8.66459e-39 3
-0.729948 0.332512 1.42362 1.01383e-38 3
-0.706946 0.332512 1.42362 1.04149e-38 3
-0.752338 0.365764 1.56598 8.84862e-39 3
-0.685883 0.34506 1.47734 1.04156e-38 3
-0.662013 0.34506 1.47734 1.18904e-38 3
-0.64422 0.348346 1.49141 1.05993e-38 3
-0.620123 0.348346 1.49141 9.21633e-39 3
-0.596026 0.348346 1.49141 9.95389e-39 3
-0.577428 0.351696 1.50575 9.12413e-39 3
-0.547831 0.348346 1.49141 9.2174e-39 3
-0.533903 0.35511 1.52037 8.38692e-39 3
-0.509338 0.35511 1.52037 1.15205e-38 3
-0.475539 0.348346 1.49141 1.1796e-38 3
-0.50427 0.38911 1.66594 1.2163e-38 3
-0.477352 0.38911 1.66594 1.33612e-38 3
-0.492336 0.425307 1.82091 1.35456e-38 3
-0.537982 0.494275 2.11619 1.48356e-38 3
-0.390655 0.481268 2.06051 1.32686e-38 3
-0.295212 0.397569 1.70216 1.31771e-38 3
-0.25132 0.373228 1.59794 1.42838e-38 3
-0.225501 0.373228 1.59794 1.40069e-38 3
-0.191852 0.358592 1.53528 1.40069e-38 3
-0.167046 0.358592 1.53528 1.3914e-38 3
-0.145084 0.365764 1.56598 1.46515e-38 3
-0.118596 0.362142 1.55048 1.37303e-38 3
-0.0917279 0.35511 1.52037 1.50203e-38 3
-0.0658833 0.348346 1.49141 1.49289e-38 3
-0.0417859 0.348346 1.49141 1.42853e-38 3
-0.0175217 0.34506 1.47734 1.45633e-38 3
0.00606241 0.329517 1.4108 1.40105e-38 3
0.037246 0.425307 1.82091 1.25346e-38 3
0.0666672 0.425307 1.82091 1.32722e-38 3
0.0983762 0.435433 1.86427 1.33648e-38 3
0.12551 0.425307 1.82091 1.13372e-38 3
0.148045 0.406404 1.73998 1.17971e-38 3
0.168663 0.38911 1.66594 1.24417e-38 3
0.187597 0.373228 1.59794 1.30871e-38 3
0.209147 0.365764 1.56598 1.32726e-38 3
0.229852 0.358592 1.53528 1.35492e-38 3
0.254659 0.358592 1.53528 1.2351e-38 3
0.27409 0.351696 1.50575 1.27198e-38 3
0.298419 0.351696 1.50575 1.29049e-38 3
0.322749 0.351696 1.50575 1.29056e-38 3
0.334223 0.33867 1.44999 1.17996e-38 3
0.332985 0.315313 1.34999 1.26297e-38 3
0.342971 0.304803 1.30499 1.20758e-38 3
0.364056 0.304803 1.30499 1.14305e-38 3
0.378828 0.299806 1.28359 1.28137e-38 3
0.413112 0.309969 1.32711 1.08791e-38 3
0.442047 0.315313 1.34999 1.16156e-38 3
0.463859 0.315313 1.34999 1.25375e-38 3
0.498565 0.323685 1.38583 1.29059e-38 3
0.516387 0.320845 1.37367 1.31825e-38 3
0.533898 0.318055 1.36173 1.29989e-38 3
0.5559 0.318055 1.36173 1.27223e-38 3
0.572921 0.315313 1.34999 1.17992e-38 3
0.584653 0.309969 1.32711 1.13383e-38 3
0.601002 0.307364 1.31595 1.27208e-38 3
0.606963 0.299806 1.28359 1.18918e-38 3
0.627702 0.299806 1.28359 1.13393e-38 3
0.632879 0.292611 1.25279 1.06947e-38 3
0.604742 0.270936 1.15999 1.05103e-38 3
0.876774 0.381004 1.63123 1.03259e-38 3
0.922347 0.38911 1.66594 1.04188e-38 3
0.929487 0.381004 1.63123 9.86601e-39 3
0.936337 0.373228 1.59794 9.77346e-39 3
0.962156 0.373228 1.59794 1.10642e-38 3
0.930976 0.351696 1.50575 1.04192e-38 3
0.636762 0.228602 0.97874 1.11557e-38 3
0.862438 0.294971 1.26289 1.14323e-38 3
0.882844 0.294971 1.26289 1.10635e-38 3
0.925643 0.302284 1.2942 1.12482e-38 3
0.987354 0.315313 1.34999 1.10649e-38 3
1.00054 0.312618 1.33845 1.05121e-38 3
1.00499 0.307364 1.31595 1.04203e-38 3
1.03495 0.309969 1.32711 9.95928e-39 3
1.05639 0.309969 1.32711 1.04203e-38 3
1.06877 0.307364 1.31595 1.10656e-38 3
1.07202 0.302284 1.2942 1.01437e-38 3
1.06649 0.294971 1.26289 9.96001e-39 3
1.06122 0.288003 1.23306 8.66927e-39 3
1.02466 0.272958 1.16864 7.83915e-39 3
1.03582 0.270936 1.15999 7.37782e-39 3
1.11223 0.285753 1.22343 8.02462e-39 3
1.27102 0.320845 1.37367 7.6562e-39 3
1.40653 0.281357 1.2046 4.42827e-39 3
1.54483 0.304803 1.30499 4.52047e-39 3
-1.32461 0.411648 1.6484 7.65008e-39 3
-0.838068 0.31037 1.24284 6.91072e-39 3
-0.844806 0.320546 1.28359 7.09547e-39 3
-0.797905 0.31037 1.24284 6.54373e-39 3
-0.765671 0.30552 1.22343 9.49363e-39 3
-0.7233 0.296262 1.18635 9.12521e-39 3
-0.876843 0.36893 1.47734 9.21812e-39 3
-0.735083 0.31794 1.27316 8.48056e-39 3
-0.70308 0.312853 1.25279 7.74299e-39 3
-0.711289 0.325888 1.30499 9.12593e-39 3
-0.714004 0.337126 1.34999 8.94118e-39 3
-0.692192 0.337126 1.34999 7.2813e-39 3
-0.67038 0.337126 1.34999 8.94118e-39 3
-0.737586 0.383398 1.53528 8.01958e-39 3
-0.673181 0.362098 1.44999 8.94154e-39 3
-0.649753 0.362098 1.44999 8.29616e-39 3
-0.626325 0.362098 1.44999 1.08776e-38 3
-0.608532 0.365482 1.46354 1.06011e-38 3
-0.584885 0.365482 1.46354 1.06925e-38 3
-0.566533 0.36893 1.47734 1.14301e-38 3
-0.527727 0.358776 1.43668 1.2445e-38 3
-0.513944 0.365482 1.46354 1.27208e-38 3
-0.485757 0.362098 1.44999 1.3825e-38 3
-0.462329 0.362098 1.44999 1.32704e-38 3
-0.447183 0.36893 1.47734 1.36381e-38 3
-0.439913 0.383398 1.53528 1.2347e-38 3
-0.423409 0.391066 1.56598 1.502e-38 3
-0.383571 0.465555 1.86427 1.47441e-38 3
-0.315849 0.416028 1.66594 1.47437e-38 3
-0.271595 0.391066 1.56598 1.49289e-38 3
-0.228049 0.362098 1.44999 1.39151e-38 3
-0.200901 0.355514 1.42362 1.39143e-38 3
-0.181193 0.362098 1.44999 1.48363e-38 3
-0.140815 0.323195 1.2942 1.43735e-38 3
-0.118921 0.320546 1.28359 1.40969e-38 3
-0.117433 0.383398 1.53528 1.54809e-38 3
-0.0908459 0.376025 1.50575 1.51125e-38 3
-0.0658833 0.372444 1.49141 1.41913e-38 3
-0.0430149 0.383398 1.53528 1.31782e-38 3
-0.018573 0.391066 1.56598 1.32711e-38 3
0.00700966 0.40736 1.63123 1.57618e-38 3
0.0355906 0.434518 1.73998 1.3825e-38 3
0.0637042 0.434518 1.73998 1.31789e-38 3
0.0983762 0.465555 1.86427 1.29942e-38 3
0.12551 0.454728 1.82091 1.46533e-38 3
0.141745 0.416028 1.66594 1.52051e-38 3
0.152445 0.376025 1.50575 1.56657e-38 3
0.173439 0.36893 1.47734 1.62178e-38 3
0.197309 0.36893 1.47734 1.62196e-38 3
0.200384 0.334244 1.33845 1.52054e-38 3
0.223924 0.337126 1.34999 1.48367e-38 3
0.268919 0.36893 1.47734 1.5482e-38 3
0.292789 0.36893 1.47734 1.44697e-38 3
0.299695 0.349166 1.3982 1.52072e-38 3
0.316632 0.34304 1.37367 1.51147e-38 3
0.281944 0.28545 1.14305 1.4747e-38 3
0.300413 0.28545 1.14305 1.44708e-38 3
0.318881 0.28545 1.14305 1.37335e-38 3
0.344903 0.29184 1.16864 1.34573e-38 3
0.406227 0.325888 1.30499 1.39183e-38 3
0.427312 0.325888 1.30499 1.30889e-38 3
0.452165 0.328627 1.31595 1.2629e-38 3
0.48152 0.334244 1.33845 1.17989e-38 3
0.503146 0.334244 1.33845 1.24443e-38 3
0.529296 0.337126 1.34999 1.16152e-38 3
0.5559 0.340057 1.36173 1.03241e-38 3
0.568024 0.334244 1.33845 1.10613e-38 3
0.574908 0.325888 1.30499 1.11532e-38 3
0.518255 0.283381 1.13477 1.29052e-38 3
0.578511 0.30552 1.22343 1.26294e-38 3
0.589074 0.30082 1.2046 1.19847e-38 3
0.594811 0.294035 1.17743 1.18932e-38 3
0.604742 0.289678 1.15999 1.29067e-38 3
0.536117 0.249087 0.997442 1.22613e-38 3
0.570399 0.25728 1.03025 1.25379e-38 3
0.587045 0.25728 1.03025 1.24464e-38 3
0.636762 0.244416 0.97874 9.95569e-39 3
0.767736 0.287548 1.15146 1.02323e-38 3
0.822634 0.30082 1.2046 1.09691e-38 3
0.855255 0.30552 1.22343 1.06929e-38 3
0.910592 0.31794 1.27316 1.08784e-38 3
0.99594 0.340057 1.36173 1.09713e-38 3
1.00054 0.334244 1.33845 1.06947e-38 3
1.0135 0.331412 1.32711 1.06032e-38 3
1.05279 0.337126 1.34999 1.11564e-38 3
1.0746 0.337126 1.34999 1.06954e-38 3
1.08704 0.334244 1.33845 9.8653e-39 3
1.04608 0.315376 1.26289 1.05107e-38 3
1.05796 0.312853 1.25279 1.00511e-38 3
1.02882 0.298524 1.19541 9.77454e-39 3
1.00223 0.28545 1.14305 7.47073e-39 3
1.1277 0.315376 1.26289 8.0239e-39 3
1.20649 0.331412 1.32711 8.02318e-39 3
1.22793 0.331412 1.32711 7.93098e-39 3
1.24937 0.331412 1.32711 8.20757e-39 3
1.29273 0.337126 1.34999 7.5622e-39 3
1.15684 0.29184 1.16864 6.73173e-39 3
0.972512 0.241399 0.966657 7.56041e-39 3
1.38707 0.30082 1.2046 5.16476e-39 3
1.42851 0.30552 1.22343 4.61159e-39 3
1.54483 0.325888 1.30499 4.15061e-39 3
1.70827 0.355514 1.42362 4.51939e-39 3
-0.84474 0.325288 1.22343 1.14276e-38 3
-0.838068 0.330451 1.24284 1.10588e-38 3
-0.817986 0.330451 1.24284 1.01379e-38 3
-0.817366 0.338511 1.27316 9.86278e-39 3
-0.79037 0.335781 1.26289 9.67838e-39 3
-0.751777 0.327849 1.23306 1.07837e-38 3
-0.731853 0.327849 1.23306 1.13361e-38 3
-0.717581 0.330451 1.24284 1.02301e-38 3
-0.6975 0.330451 1.24284 9.58511e-39 3
-0.688345 0.335781 1.26289 1.00472e-38 3
-0.678889 0.341285 1.28359 9.21741e-39 3
-0.663589 0.344106 1.2942 9.49471e-39 3
-0.642678 0.344106 1.2942 8.66495e-39 3
-0.626949 0.346973 1.30499 9.21884e-39 3
-0.632205 0.362059 1.36173 8.0203e-39 3
-0.604943 0.358938 1.34999 9.49651e-39 3
-0.583131 0.358938 1.34999 1.00493e-38 3
-0.561318 0.358938 1.34999 1.03252e-38 3
-0.539506 0.358938 1.34999 1.12464e-38 3
-0.513269 0.35587 1.33845 1.1523e-38 3
-0.487477 0.352854 1.32711 1.11542e-38 3
-0.470017 0.35587 1.33845 1.20755e-38 3
-0.448391 0.35587 1.33845 1.25343e-38 3
-0.437996 0.365235 1.37367 1.39151e-38 3
-0.430921 0.378516 1.42362 1.37307e-38 3
-0.435642 0.404241 1.52037 1.33612e-38 3
-0.419217 0.412246 1.55048 1.5388e-38 3
-0.462915 0.484149 1.82091 1.41902e-38 3
-0.404072 0.484149 1.82091 1.44675e-38 3
-0.342766 0.442945 1.66594 1.38218e-38 3
-0.296898 0.416368 1.56598 1.35459e-38 3
-0.251477 0.385526 1.44999 1.2625e-38 3
-0.216047 0.365235 1.37367 1.29009e-38 3
-0.18728 0.352854 1.32711 1.52044e-38 3
-0.163074 0.346973 1.30499 1.57565e-38 3
-0.136309 0.333095 1.25279 1.46494e-38 3
-0.10747 0.308421 1.15999 1.43721e-38 3
-0.0867985 0.301716 1.13477 1.44654e-38 3
-0.0787331 0.346973 1.30499 1.42824e-38 3
-0.0576479 0.346973 1.30499 1.32686e-38 3
-0.0378235 0.358938 1.34999 1.33615e-38 3
-0.0160112 0.358938 1.34999 1.2624e-38 3
0.0058011 0.358938 1.34999 1.26254e-38 3
0.0271454 0.352854 1.32711 1.37318e-38 3
0.0477781 0.346973 1.30499 1.42846e-38 3
0.0603183 0.303918 1.14305 1.52966e-38 3
0.0823956 0.317838 1.19541 1.59412e-38 3
0.103287 0.322766 1.21394 1.6494e-38 3
0.129953 0.341285 1.28359 1.71379e-38 3
0.150693 0.341285 1.28359 1.68614e-38 3
0.175754 0.349889 1.31595 1.59412e-38 3
0.197016 0.349889 1.31595 1.43742e-38 3
0.218279 0.349889 1.31595 1.43742e-38 3
0.235582 0.344106 1.2942 1.42821e-38 3
0.256493 0.344106 1.2942 1.42828e-38 3
0.268527 0.333095 1.25279 1.47437e-38 3
0.275543 0.317838 1.19541 1.52054e-38 3
0.279901 0.301716 1.13477 1.56661e-38 3
0.29609 0.299545 1.12661 1.61285e-38 3
0.312048 0.297406 1.11856 1.6221e-38 3
0.330121 0.297406 1.11856 1.55757e-38 3
0.369297 0.31543 1.18635 1.52069e-38 3
0.430903 0.349889 1.31595 1.45622e-38 3
0.452165 0.349889 1.31595 1.50225e-38 3
0.47744 0.352854 1.32711 1.36406e-38 3
0.498882 0.352854 1.32711 1.38254e-38 3
0.524772 0.35587 1.33845 1.35492e-38 3
0.541767 0.352854 1.32711 1.42867e-38 3
0.481585 0.301716 1.13477 1.41945e-38 3
0.485838 0.293217 1.10281 1.20733e-38 3
0.464411 0.270369 1.01687 1.22577e-38 3
0.462809 0.26023 0.97874 1.31804e-38 3
0.478623 0.26023 0.97874 1.07844e-38 3
0.497547 0.261867 0.984896 1.11539e-38 3
0.52671 0.268625 1.01031 1.15223e-38 3
0.536117 0.265203 0.997442 1.09691e-38 3
0.555773 0.266903 1.00384 1.06007e-38 3
0.571992 0.266903 1.00384 1.11539e-38 3
0.562951 0.255441 0.960726 1.17067e-38 3
0.930976 0.400354 1.50575 1.44726e-38 3
0.613282 0.257017 0.966657 1.51179e-38 3
0.628901 0.257017 0.966657 1.31804e-38 3
0.652576 0.26023 0.97874 1.25347e-38 3
0.742655 0.289145 1.08749 1.15212e-38 3
0.842097 0.320283 1.2046 1.15216e-38 3
0.875022 0.325288 1.22343 1.14301e-38 3
0.908992 0.330451 1.24284 1.05085e-38 3
1.04521 0.371757 1.3982 1.09698e-38 3
1.09719 0.381989 1.43668 9.86421e-39 3
1.11022 0.378516 1.42362 9.67982e-39 3
1.13322 0.378516 1.42362 1.0233e-38 3
1.09642 0.358938 1.34999 1.08784e-38 3
1.01339 0.325288 1.22343 1.16159e-38 3
1.03316 0.325288 1.22343 1.11553e-38 3
1.02882 0.317838 1.19541 1.09713e-38 3
0.994964 0.301716 1.13477 9.40468e-39 3
1.0207 0.303918 1.14305 9.3132e-39 3
1.03916 0.303918 1.14305 9.4054e-39 3
1.16851 0.335781 1.26289 8.85222e-39 3
1.17005 0.330451 1.24284 8.66783e-39 3
1.17153 0.325288 1.22343 8.11538e-39 3
1.13796 0.310723 1.16864 8.94442e-39 3
0.956893 0.257017 0.966657 8.20578e-39 3
0.972512 0.257017 0.966657 6.73065e-39 3
-0.84474 0.345055 1.22343 9.86026e-39 3
-0.824973 0.345055 1.22343 9.76806e-39 3
-0.82453 0.353336 1.25279 9.12378e-39 3
-0.817366 0.359082 1.27316 8.20397e-39 3
-0.796795 0.359082 1.27316 1.07847e-38 3
-0.757743 0.350532 1.24284 1.10599e-38 3
-0.737662 0.350532 1.24284 1.0967e-38 3
-0.71193 0.347772 1.23306 1.12443e-38 3
-0.676038 0.339746 1.2046 1.15209e-38 3
-0.666834 0.345055 1.22343 1.17982e-38 3
-0.652161 0.347772 1.23306 1.13379e-38 3
-0.632238 0.347772 1.23306 1.01401e-38 3
-0.622112 0.353336 1.25279 9.40324e-39 3
-0.611657 0.359082 1.27316 8.38908e-39 3
-0.610955 0.371152 1.31595 1.05103e-38 3
-0.589692 0.371152 1.31595 9.95784e-39 3
-0.573247 0.374297 1.32711 1.0511e-38 3
-0.551804 0.374297 1.32711 7.74443e-39 3
-0.534895 0.377496 1.33845 9.21884e-39 3
-0.504643 0.371152 1.31595 9.67982e-39 3
-0.48338 0.371152 1.31595 9.86457e-39 3
-0.466034 0.374297 1.32711 1.10613e-38 3
-0.440855 0.371152 1.31595 1.27187e-38 3
-0.426766 0.377496 1.33845 1.32693e-38 3
-0.415801 0.38743 1.37367 1.29009e-38 3
-0.415473 0.408954 1.44999 1.31768e-38 3
-0.411077 0.428806 1.52037 1.32675e-38 3
-0.432725 0.480076 1.70216 1.28058e-38 3
-0.361981 0.460073 1.63123 1.22548e-38 3
-0.3222 0.44167 1.56598 1.15169e-38 3
-0.274905 0.408954 1.44999 1.10566e-38 3
-0.228231 0.371152 1.31595 1.13343e-38 3
-0.206969 0.371152 1.31595 1.40991e-38 3
-0.18114 0.362025 1.28359 1.48359e-38 3
-0.160401 0.362025 1.28359 1.56643e-38 3
-0.133114 0.345055 1.22343 1.41873e-38 3
-0.10747 0.327163 1.15999 1.55699e-38 3
-0.0867985 0.320051 1.13477 1.61234e-38 3
-0.067971 0.317748 1.12661 1.30835e-38 3
-0.0540449 0.345055 1.22343 1.24389e-38 3
-0.0348216 0.350532 1.24284 1.30842e-38 3
-0.0147405 0.350532 1.24284 1.4375e-38 3
0.00525725 0.345055 1.22343 1.30864e-38 3
0.0246396 0.339746 1.2046 1.27176e-38 3
0.0409527 0.315479 1.11856 1.34544e-38 3
0.0590257 0.315479 1.11856 1.55721e-38 3
0.0782161 0.320051 1.13477 1.54806e-38 3
0.0965511 0.320051 1.13477 1.53888e-38 3
0.121956 0.339746 1.2046 1.49263e-38 3
0.145909 0.350532 1.24284 1.64011e-38 3
0.174289 0.368059 1.30499 1.54795e-38 3
0.195375 0.368059 1.30499 1.64947e-38 3
0.21646 0.368059 1.30499 1.64947e-38 3
0.222698 0.345055 1.22343 1.67713e-38 3
0.238736 0.339746 1.2046 1.59416e-38 3
0.252375 0.332083 1.17743 1.63111e-38 3
0.257829 0.315479 1.11856 1.53891e-38 3
0.272016 0.311035 1.10281 1.502e-38 3
0.287808 0.30886 1.09509 1.49292e-38 3
0.305502 0.30886 1.09509 1.43764e-38 3
0.325472 0.311035 1.10281 1.45601e-38 3
0.358435 0.324758 1.15146 1.61274e-38 3
0.430903 0.371152 1.31595 1.62189e-38 3
0.452165 0.371152 1.31595 1.64955e-38 3
0.48152 0.377496 1.33845 1.60352e-38 3
0.503146 0.377496 1.33845 1.5575e-38 3
0.524772 0.377496 1.33845 1.55757e-38 3
0.347438 0.240038 0.851078 1.54828e-38 3
0.405236 0.269311 0.954868 1.51136e-38 3
0.431181 0.276044 0.97874 1.52973e-38 3
0.452653 0.279538 0.991129 1.42839e-38 3
0.462809 0.276044 0.97874 1.40083e-38 3
0.478623 0.276044 0.97874 1.37321e-38 3
0.497547 0.27778 0.984896 1.28112e-38 3
0.503951 0.272636 0.966657 1.32722e-38 3
0.516383 0.270963 0.960726 1.22581e-38 3
0.548738 0.279538 0.991129 1.3457e-38 3
0.564752 0.279538 0.991129 1.2996e-38 3
0.556127 0.267679 0.949081 1.29963e-38 3
0.571462 0.267679 0.949081 1.16134e-38 3
0.597663 0.272636 0.966657 1.20744e-38 3
0.605803 0.269311 0.954868 1.17049e-38 3
0.621231 0.269311 0.954868 1.40091e-38 3
0.636659 0.269311 0.954868 1.41935e-38 3
0.66839 0.276044 0.97874 1.39169e-38 3
0.760226 0.306716 1.08749 1.33644e-38 3
0.86156 0.339746 1.2046 1.318e-38 3
0.894789 0.345055 1.22343 1.23503e-38 3
1.08392 0.408954 1.44999 1.21666e-38 3
1.1177 0.412776 1.46354 1.10602e-38 3
1.13078 0.408954 1.44999 1.03238e-38 3
1.11298 0.394349 1.3982 1.0416e-38 3
0.993626 0.345055 1.22343 1.01386e-38 3
1.01339 0.345055 1.22343 1.06929e-38 3
1.00185 0.334599 1.18635 9.40216e-39 3
1.02882 0.337153 1.19541 9.58655e-39 3
0.973795 0.313241 1.11063 1.05096e-38 3
1.0207 0.322387 1.14305 9.40432e-39 3
1.03916 0.322387 1.14305 8.39017e-39 3
1.08131 0.329605 1.16864 7.837e-39 3
1.10019 0.329605 1.16864 7.83807e-39 3
1.08664 0.320051 1.13477 7.00831e-39 3
1.01658 0.294447 1.04399 7.1927e-39 3
0.945223 0.269311 0.954868 7.56041e-39 3
0.949078 0.266066 0.943364 7.37566e-39 3
0.947202 0.261343 0.926618 7.09871e-39 3
-0.824973 0.364822 1.22343 9.58439e-39 3
-0.763454 0.345906 1.15999 9.21741e-39 3
-0.744712 0.345906 1.15999 9.4018e-39 3
-0.731387 0.348487 1.16864 9.21705e-39 3
-0.712505 0.348487 1.16864 8.84755e-39 3
-0.673517 0.338386 1.13477 1.04145e-38 3
-0.669742 0.345906 1.15999 1.05071e-38 3
-0.651 0.345906 1.15999 1.0968e-38 3
-0.623027 0.340856 1.14305 1.03227e-38 3
-0.604558 0.340856 1.14305 1.04163e-38 3
-0.581843 0.338386 1.13477 1.04174e-38 3
-0.567621 0.340856 1.14305 1.11553e-38 3
-0.55319 0.343362 1.15146 1.04174e-38 3
-0.534585 0.343362 1.15146 1.06018e-38 3
-0.539795 0.35921 1.2046 9.86493e-39 3
-0.549944 0.379653 1.27316 9.31175e-39 3
-0.547167 0.392414 1.31595 8.66639e-39 3
-0.534895 0.399122 1.33845 1.07869e-38 3
-0.492233 0.382764 1.28359 1.1155e-38 3
-0.47539 0.385928 1.2942 1.07862e-38 3
-0.470017 0.399122 1.33845 1.11531e-38 3
-0.437182 0.389144 1.30499 1.2441e-38 3
-0.412658 0.385928 1.2942 1.42838e-38 3
-0.401706 0.395739 1.32711 1.37303e-38 3
-0.393606 0.409625 1.37367 1.40065e-38 3
-0.365008 0.402563 1.34999 1.45579e-38 3
-0.272676 0.319844 1.07259 1.42813e-38 3
-0.260702 0.326554 1.09509 1.59408e-38 3
-0.299571 0.402563 1.34999 1.43742e-38 3
-0.282632 0.409625 1.37367 1.49296e-38 3
-0.255946 0.402563 1.34999 1.46533e-38 3
-0.230166 0.395739 1.32711 1.58519e-38 3
-0.186586 0.353767 1.18635 1.4008e-38 3
-0.17539 0.370613 1.24284 1.38236e-38 3
-0.155309 0.370613 1.24284 1.61267e-38 3
-0.126212 0.345906 1.15999 1.62167e-38 3
-0.105133 0.338386 1.13477 1.78744e-38 3
-0.0855585 0.333552 1.11856 1.74142e-38 3
-0.0634092 0.313404 1.051 1.69546e-38 3
-0.0464278 0.313404 1.051 1.51133e-38 3
-0.0313394 0.333552 1.11856 1.57583e-38 3
-0.0130796 0.328854 1.10281 1.40069e-38 3
0.00442716 0.307219 1.03025 1.43782e-38 3
0.0207997 0.303229 1.01687 1.35484e-38 3
0.0372297 0.303229 1.01687 1.41927e-38 3
0.0586071 0.331186 1.11063 1.45594e-38 3
0.0770988 0.333552 1.11856 1.40065e-38 3
0.0958565 0.335952 1.12661 1.52973e-38 3
0.116576 0.343362 1.15146 1.40973e-38 3
0.136182 0.345906 1.15999 1.53873e-38 3
0.16213 0.361994 1.21394 1.57554e-38 3
0.186071 0.370613 1.24284 1.62164e-38 3
0.206152 0.370613 1.24284 1.52022e-38 3
0.211151 0.345906 1.15999 1.51104e-38 3
0.229894 0.345906 1.15999 1.36367e-38 3
0.241481 0.335952 1.12661 1.53888e-38 3
0.25242 0.326554 1.09509 1.58505e-38 3
0.262764 0.317668 1.0653 1.51143e-38 3
0.276218 0.313404 1.051 1.40076e-38 3
0.2932 0.313404 1.051 1.41931e-38 3
0.312277 0.315522 1.0581 1.33633e-38 3
0.348194 0.333552 1.11856 1.44682e-38 3
0.430903 0.392414 1.31595 1.53891e-38 3
0.378927 0.328854 1.10281 1.5481e-38 3
0.352112 0.291858 0.97874 1.56653e-38 3
0.350405 0.27796 0.932133 1.64958e-38 3
0.333687 0.253789 0.851078 1.69564e-38 3
0.343702 0.251061 0.841927 1.75078e-38 3
0.361189 0.253789 0.851078 1.78752e-38 3
0.420665 0.284739 0.954868 1.82432e-38 3
0.446995 0.291858 0.97874 1.73227e-38 3
0.462809 0.291858 0.97874 1.72309e-38 3
0.478623 0.291858 0.97874 1.7416e-38 3
0.494437 0.291858 0.97874 1.6404e-38 3
0.51346 0.293693 0.984896 1.66806e-38 3
0.529373 0.293693 0.984896 1.71416e-38 3
0.541879 0.291858 0.97874 1.57583e-38 3
0.557693 0.291858 0.97874 1.58515e-38 3
0.556127 0.283014 0.949081 1.53916e-38 3
0.56802 0.281309 0.943364 1.38243e-38 3
0.583262 0.281309 0.943364 1.28098e-38 3
0.59492 0.279624 0.937715 1.29024e-38 3
0.595801 0.273083 0.91578 1.17035e-38 3
0.596641 0.266842 0.894848 1.29016e-38 3
0.590842 0.257996 0.865185 1.4008e-38 3
0.591744 0.252418 0.846478 1.43768e-38 3
0.700018 0.291858 0.97874 1.34559e-38 3
0.881023 0.35921 1.2046 1.36399e-38 3
0.900487 0.35921 1.2046 1.3641e-38 3
0.934324 0.364822 1.22343 1.23503e-38 3
1.17427 0.449012 1.50575 1.16123e-38 3
0.973859 0.364822 1.22343 1.26254e-38 3
0.749794 0.269926 0.905193 1.19811e-38 3
0.76442 0.269926 0.905193 1.07837e-38 3
1.05293 0.364822 1.22343 9.67839e-39 3
1.0727 0.364822 1.22343 9.49508e-39 3
1.07566 0.35921 1.2046 8.20506e-39 3
1.0169 0.333552 1.11856 9.21849e-39 3
1.06541 0.343362 1.15146 8.85007e-39 3
1.02379 0.324287 1.08749 9.40396e-39 3
0.999708 0.311315 1.04399 9.12773e-39 3
0.92416 0.283014 0.949081 6.82284e-39 3
0.928243 0.279624 0.937715 6.54554e-39 3
0.937779 0.27796 0.932133 5.99236e-39 3
0.947202 0.276315 0.926618 6.26859e-39 3
0.967901 0.27796 0.932133 5.89981e-39 3
-0.69172 0.330386 1.051 9.21633e-39 3
-0.674739 0.330386 1.051 9.95497e-39 3
-0.636402 0.319659 1.01687 8.5724e-39 3
-0.619972 0.319659 1.01687 9.4018e-39 3
-0.607486 0.321748 1.02352 1.00472e-38 3
-0.610913 0.332618 1.0581 9.3096e-39 3
-0.623297 0.349131 1.11063 9.67838e-39 3
-0.60109 0.346672 1.10281 9.12521e-39 3
-0.591604 0.351625 1.11856 8.66603e-39 3
-0.57353 0.351625 1.11856 9.58763e-39 3
-0.563508 0.356721 1.13477 9.67982e-39 3
-0.545173 0.356721 1.13477 9.68018e-39 3
-0.519311 0.351625 1.11856 1.04174e-38 3
-0.501238 0.351625 1.11856 1.04174e-38 3
-0.486641 0.354155 1.12661 9.12665e-39 3
-0.468438 0.354155 1.12661 1.1062e-38 3
-0.453498 0.356721 1.13477 1.17067e-38 3
-0.411318 0.337175 1.07259 1.03238e-38 3
-0.39946 0.341858 1.08749 1.21666e-38 3
-0.436445 0.390694 1.24284 1.13357e-38 3
-0.409858 0.38459 1.22343 1.30857e-38 3
-0.39009 0.38459 1.22343 1.3731e-38 3
-0.398331 0.413676 1.31595 1.29016e-38 3
-0.377068 0.413676 1.31595 1.37303e-38 3
-0.341459 0.396996 1.26289 1.3175e-38 3
-0.288483 0.356721 1.13477 1.64015e-38 3
-0.253608 0.334881 1.0653 1.62171e-38 3
-0.236396 0.334881 1.0653 1.54795e-38 3
-0.216242 0.330386 1.051 1.48359e-38 3
-0.201971 0.334881 1.0653 1.50211e-38 3
-0.215552 0.390694 1.24284 1.36381e-38 3
-0.177189 0.354155 1.12661 1.51143e-38 3
-0.169993 0.378673 1.2046 1.38236e-38 3
-0.15053 0.378673 1.2046 1.36396e-38 3
-0.12258 0.354155 1.12661 1.37289e-38 3
-0.102172 0.346672 1.10281 1.50182e-38 3
-0.0814843 0.334881 1.0653 1.4465e-38 3
-0.0613505 0.319659 1.01687 1.44672e-38 3
-0.0446306 0.317597 1.01031 1.40083e-38 3
-0.0281251 0.315561 1.00384 1.27172e-38 3
-0.0119058 0.315561 1.00384 1.43768e-38 3
0.0042058 0.307672 0.97874 1.51158e-38 3
0.0197725 0.303873 0.966657 1.4563e-38 3
0.0353912 0.303873 0.966657 1.37325e-38 3
0.0516475 0.307672 0.97874 1.52976e-38 3
0.0691912 0.315561 1.00384 1.40076e-38 3
0.0938314 0.346672 1.10281 1.38225e-38 3
0.116576 0.361967 1.15146 1.38218e-38 3
0.136182 0.364648 1.15999 1.51107e-38 3
0.15608 0.367369 1.16864 1.52015e-38 3
0.181744 0.381608 1.21394 1.47398e-38 3
0.193845 0.367369 1.16864 1.61234e-38 3
0.205075 0.354155 1.12661 1.53859e-38 3
0.223278 0.354155 1.12661 1.59398e-38 3
0.228339 0.334881 1.0653 1.49263e-38 3
0.237474 0.323865 1.03025 1.45594e-38 3
0.25082 0.319659 1.01687 1.43764e-38 3
0.265526 0.317597 1.01031 1.28094e-38 3
0.27826 0.313551 0.997442 1.29949e-38 3
0.296263 0.315561 1.00384 1.4102e-38 3
0.310492 0.313551 0.997442 1.26261e-38 3
0.346469 0.332618 1.0581 1.27169e-38 3
0.328095 0.300168 0.954868 1.34534e-38 3
0.331399 0.289573 0.921167 1.38218e-38 3
0.323451 0.270481 0.860431 1.31768e-38 3
0.326587 0.261848 0.83297 1.43739e-38 3
0.340045 0.261848 0.83297 1.64008e-38 3
0.361189 0.267541 0.851078 1.69514e-38 3
0.405818 0.289573 0.921167 1.69503e-38 3
0.436093 0.300168 0.954868 1.72269e-38 3
0.457095 0.303873 0.966657 1.74117e-38 3
0.478623 0.307672 0.97874 1.76883e-38 3
0.494437 0.307672 0.97874 1.61227e-38 3
0.510251 0.307672 0.97874 1.63082e-38 3
0.526065 0.307672 0.97874 1.67699e-38 3
0.535189 0.303873 0.966657 1.75997e-38 3
0.550807 0.303873 0.966657 1.76007e-38 3
0.542965 0.291287 0.926618 1.65866e-38 3
0.548205 0.286206 0.910456 1.76e-38 3
0.562916 0.286206 0.910456 1.6126e-38 3
0.574287 0.284552 0.905193 1.52062e-38 3
0.578875 0.279702 0.889764 1.3269e-38 3
0.573693 0.270481 0.860431 1.15173e-38 3
0.568842 0.261848 0.83297 1.12414e-38 3
0.57922 0.260463 0.828563 1.17946e-38 3
0.586402 0.257736 0.819887 1.17953e-38 3
0.599649 0.257736 0.819887 1.17953e-38 3
0.612897 0.257736 0.819887 1.17964e-38 3
0.626144 0.257736 0.819887 1.28112e-38 3
0.716654 0.271975 0.865185 1.4008e-38 3
1.05293 0.38459 1.22343 1.21659e-38 3
1.05619 0.378673 1.2046 1.17053e-38 3
0.919969 0.323865 1.03025 1.1061e-38 3
0.822922 0.284552 0.905193 1.12457e-38 3
0.832734 0.282917 0.899991 1.03238e-38 3
0.847276 0.282917 0.899991 1.03248e-38 3
0.861817 0.282917 0.899991 1.00483e-38 3
0.902287 0.291287 0.926618 9.03482e-39 3
0.917258 0.291287 0.926618 1.0417e-38 3
0.937779 0.293021 0.932133 9.49508e-39 3
0.95284 0.293021 0.932133 8.84863e-39 3
0.967901 0.293021 0.932133 8.57169e-39 3
0.842539 0.251161 0.798972 6.72742e-39 3
-0.699315 0.342766 1.03708 9.58295e-39 3
-0.664944 0.333921 1.01031 9.86098e-39 3
-0.661421 0.340511 1.03025 1.00461e-38 3
-0.612537 0.323486 0.97874 9.77058e-39 3
-0.604276 0.32758 0.991129 9.21741e-39 3
-0.577301 0.321476 0.972661 9.31032e-39 3
-0.575893 0.329667 0.997442 8.1125e-39 3
-0.589832 0.347367 1.051 7.65152e-39 3
-0.57285 0.347367 1.051 9.6791e-39 3
-0.583271 0.364491 1.10281 7.92811e-39 3
-0.565453 0.364491 1.10281 8.8497e-39 3
-0.559454 0.372358 1.12661 8.75787e-39 3
-0.541251 0.372358 1.12661 9.21884e-39 3
-0.515628 0.367076 1.11063 1.00486e-38 3
-0.490723 0.361942 1.09509 8.29581e-39 3
-0.490168 0.375056 1.13477 1.03241e-38 3
-0.449055 0.35695 1.07999 1.12446e-38 3
-0.431605 0.35695 1.07999 1.19818e-38 3
-0.403037 0.347367 1.051 1.17971e-38 3
-0.388664 0.349714 1.0581 1.29945e-38 3
-0.371568 0.349714 1.0581 1.3547e-38 3
-0.354472 0.349714 1.0581 1.30864e-38 3
-0.361823 0.375056 1.13477 1.2441e-38 3
-0.341017 0.372358 1.12661 1.26254e-38 3
-0.342528 0.395097 1.19541 1.31771e-38 3
-0.330788 0.404357 1.22343 1.48341e-38 3
-0.288483 0.375056 1.13477 1.54795e-38 3
-0.250204 0.347367 1.051 1.59405e-38 3
-0.230134 0.342766 1.03708 1.57561e-38 3
-0.209221 0.336089 1.01687 1.54806e-38 3
-0.192791 0.336089 1.01687 1.42828e-38 3
-0.178681 0.340511 1.03025 1.58508e-38 3
-0.162035 0.340511 1.03025 1.43764e-38 3
-0.149318 0.349714 1.0581 1.40083e-38 3
-0.138786 0.367076 1.11063 1.32719e-38 3
-0.11999 0.364491 1.10281 1.28087e-38 3
-0.0986967 0.352093 1.0653 1.53873e-38 3
-0.0803906 0.347367 1.051 1.37278e-38 3
-0.0613505 0.336089 1.01687 1.41906e-38 3
-0.0446306 0.333921 1.01031 1.27176e-38 3
-0.027946 0.329667 0.997442 1.34537e-38 3
-0.0116081 0.323486 0.97874 1.37307e-38 3
0.00410322 0.315596 0.954868 1.32711e-38 3
0.0192961 0.311793 0.943364 1.39161e-38 3
0.0345384 0.311793 0.943364 1.32708e-38 3
0.044428 0.278267 0.841927 1.29924e-38 3
0.0666286 0.319492 0.966657 1.3269e-38 3
0.0843294 0.32758 0.991129 1.46516e-38 3
0.110099 0.359429 1.08749 1.47419e-38 3
0.13518 0.380571 1.15146 1.42803e-38 3
0.154924 0.38339 1.15999 1.5477e-38 3
0.173666 0.38339 1.15999 1.62142e-38 3
0.185537 0.369698 1.11856 1.49242e-38 3
0.200742 0.364491 1.10281 1.55696e-38 3
0.206904 0.345051 1.04399 1.54781e-38 3
0.215166 0.33178 1.00384 1.64015e-38 3
0.231385 0.33178 1.00384 1.48352e-38 3
0.24447 0.32758 0.991129 1.45608e-38 3
0.258846 0.32552 0.984896 1.35466e-38 3
0.271346 0.321476 0.972661 1.31782e-38 3
0.290673 0.32552 0.984896 1.18886e-38 3
0.306586 0.32552 0.984896 1.11514e-38 3
0.316527 0.319492 0.966657 1.20715e-38 3
0.316516 0.304457 0.921167 1.19793e-38 3
0.312988 0.287543 0.869991 1.18864e-38 3
0.313128 0.275307 0.83297 1.56654e-38 3
0.323149 0.272409 0.824202 1.68639e-38 3
0.336466 0.272409 0.824202 1.66773e-38 3
0.349783 0.272409 0.824202 1.86109e-38 3
0.37906 0.284383 0.860431 1.75035e-38 3
0.420701 0.304457 0.921167 1.73202e-38 3
0.451521 0.315596 0.954868 1.75035e-38 3
0.472714 0.319492 0.966657 1.68585e-38 3
0.488333 0.319492 0.966657 1.63986e-38 3
0.483078 0.306259 0.926618 1.58465e-38 3
0.49512 0.304457 0.921167 1.58472e-38 3
0.522293 0.311793 0.943364 1.61235e-38 3
0.531136 0.308082 0.932133 1.56628e-38 3
0.536614 0.302677 0.91578 1.64933e-38 3
0.548205 0.300917 0.910456 1.65851e-38 3
0.562916 0.300917 0.910456 1.63093e-38 3
0.574287 0.299178 0.905193 1.81546e-38 3
0.578875 0.294078 0.889764 1.65869e-38 3
0.567457 0.281292 0.851078 1.52966e-38 3
0.571884 0.276779 0.837425 1.36374e-38 3
0.576172 0.272409 0.824202 1.33619e-38 3
0.583348 0.269571 0.815617 1.27158e-38 3
0.593435 0.268175 0.811391 1.17027e-38 3
0.588258 0.260089 0.786927 1.08744e-38 3
0.604008 0.261403 0.790901 9.58404e-39 3
0.607581 0.257501 0.779097 1.03212e-38 3
0.614059 0.254964 0.771421 1.11499e-38 3
0.614416 0.250037 0.756514 1.17024e-38 3
0.617688 0.246465 0.745707 1.32697e-38 3
1.00578 0.386252 1.16864 1.1151e-38 3
0.980751 0.369698 1.11856 1.08748e-38 3
0.919969 0.340511 1.03025 1.18896e-38 3
0.79092 0.287543 0.869991 1.24428e-38 3
0.804976 0.287543 0.869991 1.15219e-38 3
0.819033 0.287543 0.869991 1.05074e-38 3
0.842451 0.290774 0.879766 1.17067e-38 3
0.876359 0.297458 0.899991 1.18922e-38 3
0.8909 0.297458 0.899991 1.20755e-38 3
0.926746 0.304457 0.921167 1.18911e-38 3
0.94163 0.304457 0.921167 1.15216e-38 3
0.956514 0.304457 0.921167 1.07847e-38 3
-0.775255 0.371835 1.07259 1.18886e-38 3
-0.747682 0.36681 1.0581 1.10574e-38 3
-0.684346 0.343595 0.991129 1.09659e-38 3
-0.659978 0.3393 0.97874 1.0967e-38 3
-0.636212 0.335111 0.966657 1.14283e-38 3
-0.613025 0.331024 0.954868 1.05063e-38 3
-0.590397 0.327036 0.943364 8.01778e-39 3
-0.575154 0.327036 0.943364 8.94154e-39 3
-0.553246 0.323142 0.932133 7.46785e-39 3
-0.541408 0.325077 0.937715 8.02138e-39 3
-0.529427 0.327036 0.943364 8.57419e-39 3
-0.526881 0.335111 0.966657 9.03445e-39 3
-0.524206 0.343595 0.991129 9.03481e-39 3
-0.542529 0.36681 1.0581 9.30996e-39 3
-0.559454 0.390561 1.12661 9.68054e-39 3
-0.533573 0.385021 1.11063 9.21956e-39 3
-0.494582 0.369306 1.0653 8.57383e-39 3
-0.461667 0.357157 1.03025 1.08769e-38 3
-0.439241 0.352519 1.01687 1.08751e-38 3
-0.431211 0.359523 1.03708 1.17035e-38 3
-0.414455 0.359523 1.03708 1.22577e-38 3
-0.395082 0.357157 1.03025 1.26254e-38 3
-0.388664 0.36681 1.0581 1.30857e-38 3
-0.348051 0.343595 0.991129 1.34537e-38 3
-0.323838 0.335111 0.966657 1.30864e-38 3
-0.30822 0.335111 0.966657 1.25332e-38 3
-0.292601 0.335111 0.966657 1.22559e-38 3
-0.283994 0.343595 0.991129 1.40991e-38 3
-0.284167 0.364349 1.051 1.34523e-38 3
-0.268991 0.36681 1.0581 1.50203e-38 3
-0.24689 0.359523 1.03708 1.54795e-38 3
-0.227126 0.354823 1.02352 1.45576e-38 3
-0.206538 0.348 1.00384 1.52969e-38 3
-0.186728 0.341434 0.984896 1.47452e-38 3
-0.171896 0.343595 0.991129 1.51129e-38 3
-0.131708 0.29031 0.837425 1.45608e-38 3
-0.119455 0.293448 0.846478 1.45626e-38 3
-0.129595 0.359523 1.03708 1.28109e-38 3
-0.114353 0.364349 1.051 1.36392e-38 3
-0.0948263 0.354823 1.02352 1.44672e-38 3
-0.0767833 0.348 1.00384 1.4375e-38 3
-0.0576096 0.331024 0.954868 1.40069e-38 3
-0.0421814 0.331024 0.954868 1.52054e-38 3
-0.026591 0.329018 0.949081 1.64958e-38 3
-0.0109899 0.32123 0.926618 1.50207e-38 3
0.0039584 0.319341 0.921167 1.37303e-38 3
0.0180969 0.306712 0.884737 1.36392e-38 3
0.0308246 0.291871 0.841927 1.40984e-38 3
0.0441904 0.29031 0.837425 1.49263e-38 3
0.0571102 0.287238 0.828563 1.54788e-38 3
0.0704976 0.287238 0.828563 1.52029e-38 3
0.0821465 0.281285 0.811391 1.54795e-38 3
0.11075 0.327036 0.943364 1.59383e-38 3
0.169891 0.393391 1.13477 1.73198e-38 3
0.171719 0.327036 0.943364 1.64908e-38 3
0.184736 0.323142 0.932133 1.60313e-38 3
0.199797 0.323142 0.932133 1.53866e-38 3
0.229911 0.345783 0.997442 1.44664e-38 3
0.242933 0.341434 0.984896 1.28995e-38 3
0.255631 0.337192 0.972661 1.24403e-38 3
0.269671 0.335111 0.966657 1.29938e-38 3
0.292513 0.343595 0.991129 1.25329e-38 3
0.308527 0.343595 0.991129 1.36392e-38 3
0.314585 0.333055 0.960726 1.44675e-38 3
0.295646 0.298285 0.860431 1.51136e-38 3
0.29967 0.288766 0.83297 1.6404e-38 3
0.306605 0.28275 0.815617 1.54806e-38 3
0.316486 0.279835 0.807208 1.46512e-38 3
0.326166 0.276979 0.798972 1.69547e-38 3
0.339075 0.276979 0.798972 1.73209e-38 3
0.351985 0.276979 0.798972 1.66755e-38 3
0.380421 0.288766 0.83297 1.57532e-38 3
0.402443 0.295043 0.851078 1.65823e-38 3
0.440113 0.312 0.899991 1.61209e-38 3
0.454655 0.312 0.899991 1.63975e-38 3
0.458652 0.304988 0.879766 1.72287e-38 3
0.470225 0.303285 0.874851 1.63068e-38 3
0.487082 0.304988 0.879766 1.65841e-38 3
0.501297 0.304988 0.879766 1.58465e-38 3
0.509783 0.3016 0.869991 1.57558e-38 3
0.52384 0.3016 0.869991 1.54792e-38 3
0.537897 0.3016 0.869991 1.58483e-38 3
0.555037 0.303285 0.874851 1.52037e-38 3
0.562884 0.299933 0.865185 1.44664e-38 3
0.561356 0.291871 0.841927 1.53884e-38 3
0.565833 0.287238 0.828563 1.55728e-38 3
0.57017 0.28275 0.815617 1.46512e-38 3
0.574373 0.2784 0.803069 1.47441e-38 3
0.584352 0.276979 0.798972 1.41917e-38 3
0.585316 0.27144 0.782992 1.39158e-38 3
0.597968 0.27144 0.782992 1.23492e-38 3
0.604573 0.268752 0.77524 1.15201e-38 3
0.611049 0.266117 0.767639 1.06897e-38 3
0.599925 0.256075 0.738672 1.09655e-38 3
0.584299 0.24454 0.705398 1.09648e-38 3
0.595697 0.24454 0.705398 1.08726e-38 3
0.601673 0.242357 0.6991 1.10577e-38 3
0.653834 0.258514 0.745707 1.03212e-38 3
0.685467 0.266117 0.767639 9.67623e-39 3
0.773726 0.295043 0.851078 8.47841e-39 3
0.78322 0.293448 0.846478 9.77023e-39 3
0.784181 0.288766 0.83297 1.07844e-38 3
0.789243 0.285726 0.824202 8.66388e-39 3
0.837837 0.298285 0.860431 8.01815e-39 3
0.807378 0.28275 0.815617 8.01815e-39 3
0.803811 0.276979 0.798972 1.00465e-38 3
0.80847 0.274181 0.790901 7.64937e-39 3
0.821249 0.274181 0.790901 8.10927e-39 3
-0.814911 0.400128 1.10281 9.03122e-39 3
-0.70742 0.355114 0.97874 9.30745e-39 3
-0.691606 0.355114 0.97874 9.21489e-39 3
-0.659309 0.346452 0.954868 8.38549e-39 3
-0.541521 0.291375 0.803069 8.10926e-39 3
-0.534022 0.294395 0.811391 7.55645e-39 3
-0.531937 0.300625 0.828563 7.649e-39 3
-0.50003 0.289889 0.798972 9.03301e-39 3
-0.502503 0.299043 0.824202 8.01958e-39 3
-0.491775 0.300625 0.828563 8.75787e-39 3
-0.502307 0.315656 0.869991 9.58799e-39 3
-0.48825 0.315656 0.869991 9.58727e-39 3
-0.468982 0.312188 0.860431 1.04163e-38 3
-0.465306 0.319203 0.879766 9.95569e-39 3
-0.446079 0.315656 0.869991 1.09695e-38 3
-0.427275 0.312188 0.860431 9.86421e-39 3
-0.508337 0.383906 1.0581 1.04177e-38 3
-0.403909 0.315656 0.869991 1.08776e-38 3
-0.415227 0.336202 0.926618 1.05071e-38 3
-0.393274 0.330338 0.910456 1.2073e-38 3
-0.383017 0.334224 0.921167 1.34555e-38 3
-0.368133 0.334224 0.921167 1.2902e-38 3
-0.322863 0.305474 0.841927 1.28109e-38 3
-0.291991 0.288417 0.794916 1.28102e-38 3
-0.279147 0.288417 0.794916 1.36392e-38 3
-0.263627 0.285518 0.786927 1.28098e-38 3
-0.248416 0.282677 0.779097 1.23495e-38 3
-0.233504 0.279892 0.771421 1.32708e-38 3
-0.222134 0.281278 0.77524 1.39151e-38 3
-0.209608 0.281278 0.77524 1.39143e-38 3
-0.197083 0.281278 0.77524 1.52051e-38 3
-0.183648 0.279892 0.771421 1.32686e-38 3
-0.172887 0.282677 0.779097 1.67731e-38 3
-0.164388 0.289889 0.798972 1.17971e-38 3
-0.151478 0.289889 0.798972 1.14297e-38 3
-0.144466 0.302224 0.83297 1.33648e-38 3
-0.131007 0.302224 0.83297 1.32711e-38 3
-0.118812 0.305474 0.841927 1.29953e-38 3
-0.105778 0.307125 0.846478 1.26272e-38 3
-0.0973637 0.324675 0.894848 1.32708e-38 3
-0.0833817 0.326541 0.899991 1.47448e-38 3
-0.0700479 0.33227 0.91578 1.4376e-38 3
-0.0555763 0.334224 0.921167 1.45608e-38 3
-0.0409334 0.336202 0.926618 1.59423e-38 3
-0.025658 0.33227 0.91578 1.48341e-38 3
-0.0105528 0.32283 0.889764 1.56643e-38 3
0.00373849 0.315656 0.869991 1.51114e-38 3
0.0171292 0.30384 0.837425 1.502e-38 3
0.0304967 0.302224 0.83297 1.51114e-38 3
0.0439553 0.302224 0.83297 1.66766e-38 3
0.0568096 0.299043 0.824202 1.70454e-38 3
0.0701266 0.299043 0.824202 1.64922e-38 3
0.0821465 0.294395 0.811391 1.74142e-38 3
0.0933223 0.288417 0.794916 1.91645e-38 3
0.10563 0.28696 0.790901 1.85191e-38 3
0.116642 0.282677 0.779097 1.82418e-38 3
0.12859 0.281278 0.77524 1.7412e-38 3
0.141116 0.281278 0.77524 1.66759e-38 3
0.154406 0.282677 0.779097 1.59394e-38 3
0.166994 0.282677 0.779097 1.57557e-38 3
0.200534 0.315656 0.869991 1.52029e-38 3
0.228558 0.336202 0.926618 1.47434e-38 3
0.244979 0.338203 0.932133 1.44672e-38 3
0.26004 0.338203 0.932133 1.45597e-38 3
0.28354 0.348578 0.960726 1.38222e-38 3
0.297239 0.346452 0.954868 1.5204e-38 3
0.272752 0.302224 0.83297 1.57572e-38 3
0.283198 0.299043 0.824202 1.51115e-38 3
0.293426 0.295928 0.815617 1.48349e-38 3
0.300347 0.289889 0.798972 1.70472e-38 3
0.303952 0.281278 0.77524 1.5204e-38 3
0.313375 0.27852 0.767639 1.68625e-38 3
0.325778 0.27852 0.767639 1.69532e-38 3
0.338181 0.27852 0.767639 1.63071e-38 3
0.357596 0.284091 0.782992 1.63997e-38 3
0.373987 0.28696 0.790901 1.55699e-38 3
0.411719 0.305474 0.841927 1.54777e-38 3
0.429945 0.308794 0.851078 1.63071e-38 3
0.443696 0.308794 0.851078 1.55699e-38 3
0.447715 0.302224 0.83297 1.53862e-38 3
0.456319 0.299043 0.824202 1.511e-38 3
0.464744 0.295928 0.815617 1.57554e-38 3
0.454263 0.281278 0.77524 1.5388e-38 3
0.4911 0.295928 0.815617 1.52044e-38 3
0.476953 0.279892 0.771421 1.54806e-38 3
0.487018 0.27852 0.767639 1.55724e-38 3
0.553706 0.308794 0.851078 1.48352e-38 3
0.54666 0.297477 0.819887 1.34519e-38 3
0.556992 0.295928 0.815617 1.33608e-38 3
0.564292 0.292877 0.807208 1.38222e-38 3
0.568542 0.288417 0.794916 1.40987e-38 3
0.581386 0.288417 0.794916 1.38218e-38 3
0.582404 0.282677 0.779097 1.47438e-38 3
0.594993 0.282677 0.779097 1.39151e-38 3
0.604573 0.281278 0.77524 1.31786e-38 3
0.605116 0.275816 0.760186 1.22566e-38 3
0.591554 0.264271 0.728365 1.29935e-38 3
0.60053 0.263047 0.724993 1.23478e-38 3
0.593025 0.25479 0.702235 1.17946e-38 3
0.598999 0.252525 0.695993 1.14265e-38 3
0.612969 0.253653 0.6991 1.18882e-38 3
0.647386 0.263047 0.724993 1.2073e-38 3
0.677931 0.270563 0.745707 1.17971e-38 3
0.746885 0.292877 0.807208 1.21655e-38 3
0.767844 0.295928 0.815617 1.15209e-38 3
0.781022 0.295928 0.815617 1.12454e-38 3
0.715899 0.266752 0.735204 1.05071e-38 3
0.714362 0.261835 0.721652 9.86171e-39 3
0.719392 0.259444 0.715061 1.01383e-38 3
0.730946 0.259444 0.715061 9.49292e-39 3
-0.741778 0.380438 1.00384 7.09583e-39 3
-0.70742 0.370927 0.97874 7.00291e-39 3
-0.683068 0.366348 0.966657 7.37241e-39 3
-0.540634 0.296742 0.782992 8.84718e-39 3
-0.527983 0.296742 0.782992 8.66315e-39 3
-0.515331 0.296742 0.782992 9.12413e-39 3
-0.510335 0.301261 0.794916 1.01394e-38 3
-0.490029 0.296742 0.782992 9.2174e-39 3
-0.472652 0.293804 0.77524 9.58691e-39 3
-0.457859 0.292357 0.771421 8.84899e-39 3
-0.483504 0.317371 0.837425 1.03241e-38 3
-0.4725 0.319077 0.841927 9.12413e-39 3
-0.446883 0.310725 0.819887 1.08751e-38 3
-0.450133 0.322546 0.851078 1.02305e-38 3
-0.434023 0.320802 0.846478 9.86314e-39 3
-0.413639 0.315683 0.83297 9.7713e-39 3
-0.40232 0.317371 0.837425 9.03373e-39 3
-0.386721 0.315683 0.83297 8.84754e-39 3
-0.369334 0.31236 0.824202 1.05985e-38 3
-0.356017 0.31236 0.824202 1.06915e-38 3
-0.350069 0.319077 0.841927 1.29042e-38 3
-0.336466 0.319077 0.841927 1.28116e-38 3
-0.319428 0.315683 0.83297 1.1613e-38 3
-0.291991 0.301261 0.794916 1.18893e-38 3
-0.279147 0.301261 0.794916 1.13361e-38 3
-0.261004 0.295266 0.779097 1.21644e-38 3
-0.247186 0.293804 0.77524 1.29946e-38 3
-0.233504 0.292357 0.771421 1.10588e-38 3
-0.22104 0.292357 0.771421 1.21641e-38 3
-0.208576 0.292357 0.771421 1.15191e-38 3
-0.196112 0.292357 0.771421 1.10592e-38 3
-0.183648 0.292357 0.771421 1.2073e-38 3
-0.171183 0.292357 0.771421 1.08744e-38 3
-0.160298 0.295266 0.779097 1.03238e-38 3
-0.14771 0.295266 0.779097 1.16159e-38 3
-0.13648 0.298233 0.786927 1.25368e-38 3
-0.12566 0.302798 0.798972 1.25357e-38 3
-0.113913 0.30592 0.807208 1.21666e-38 3
-0.10087 0.30592 0.807208 1.34573e-38 3
-0.0906311 0.315683 0.83297 1.41023e-38 3
-0.0797166 0.32609 0.860431 1.37318e-38 3
-0.0669173 0.331555 0.874851 1.40091e-38 3
-0.0533784 0.335302 0.884737 1.37318e-38 3
-0.039987 0.343054 0.905193 1.71405e-38 3
-0.0241073 0.32609 0.860431 1.56628e-38 3
-0.0102049 0.32609 0.860431 1.50185e-38 3
0.00361789 0.319077 0.841927 1.51111e-38 3
0.0167704 0.310725 0.819887 1.43735e-38 3
0.0300177 0.310725 0.819887 1.51111e-38 3
0.0432649 0.310725 0.819887 1.68621e-38 3
0.0559266 0.307505 0.811391 1.59391e-38 3
0.0690365 0.307505 0.811391 1.60309e-38 3
0.0808892 0.302798 0.798972 1.75053e-38 3
0.0923844 0.298233 0.786927 1.75975e-38 3
0.105099 0.298233 0.786927 1.63068e-38 3
0.116064 0.293804 0.77524 1.62146e-38 3
0.12859 0.293804 0.77524 1.60298e-38 3
0.141116 0.293804 0.77524 1.68603e-38 3
0.154406 0.295266 0.779097 1.62156e-38 3
0.166994 0.295266 0.779097 1.58479e-38 3
0.179582 0.295266 0.779097 1.58479e-38 3
0.205459 0.315683 0.83297 1.56643e-38 3
0.218918 0.315683 0.83297 1.4375e-38 3
0.232376 0.315683 0.83297 1.5665e-38 3
0.22327 0.286707 0.756514 1.54795e-38 3
0.259294 0.315683 0.83297 1.511e-38 3
0.26707 0.309106 0.815617 1.43725e-38 3
0.277359 0.30592 0.807208 1.4465e-38 3
0.284535 0.299739 0.790901 1.45583e-38 3
0.291426 0.293804 0.77524 1.39118e-38 3
0.292373 0.282611 0.745707 1.52029e-38 3
0.294602 0.273495 0.721652 1.47419e-38 3
0.306262 0.273495 0.721652 1.40966e-38 3
0.316463 0.27224 0.718341 1.47412e-38 3
0.340568 0.282611 0.745707 1.45568e-38 3
0.352616 0.282611 0.745707 1.53873e-38 3
0.384822 0.298233 0.786927 1.52029e-38 3
0.414188 0.310725 0.819887 1.54795e-38 3
0.420825 0.30592 0.807208 1.57554e-38 3
0.427261 0.301261 0.794916 1.57561e-38 3
0.425003 0.290923 0.767639 1.60327e-38 3
0.433159 0.288099 0.760186 1.47427e-38 3
0.422862 0.273495 0.721652 1.502e-38 3
0.434522 0.273495 0.721652 1.33612e-38 3
0.448248 0.274761 0.724993 1.29935e-38 3
0.455742 0.27224 0.718341 1.35441e-38 3
0.465214 0.270997 0.715061 1.51104e-38 3
0.487907 0.277329 0.731768 1.51118e-38 3
0.499731 0.277329 0.731768 1.29917e-38 3
0.550114 0.298233 0.786927 1.31779e-38 3
0.557228 0.295266 0.779097 1.40998e-38 3
0.572665 0.296742 0.782992 1.3269e-38 3
0.576666 0.292357 0.771421 1.28073e-38 3
0.589131 0.292357 0.771421 1.27155e-38 3
0.598646 0.290923 0.767639 1.25321e-38 3
0.59643 0.283964 0.749275 1.21634e-38 3
0.586102 0.273495 0.721652 1.17024e-38 3
0.597762 0.273495 0.721652 1.29006e-38 3
0.593025 0.266136 0.702235 1.30853e-38 3
0.598999 0.263771 0.695993 1.29009e-38 3
0.607545 0.262603 0.692913 1.2163e-38 3
0.613313 0.2603 0.686835 1.20719e-38 3
0.6591 0.274761 0.724993 1.21641e-38 3
0.739264 0.302798 0.798972 1.15198e-38 3
0.752173 0.302798 0.798972 1.0506e-38 3
0.765083 0.302798 0.798972 1.07833e-38 3
0.702702 0.273495 0.721652 1.13361e-38 3
0.704621 0.269765 0.711811 1.05067e-38 3
0.716122 0.269765 0.711811 1.05067e-38 3
-0.741778 0.396658 1.00384 6.54265e-39 3
-0.540634 0.309393 0.782992 9.2174e-39 3
-0.527983 0.309393 0.782992 1.00468e-38 3
-0.507716 0.304821 0.771421 9.03193e-39 3
-0.500179 0.307854 0.779097 8.38764e-39 3
-0.485177 0.30633 0.77524 9.31032e-39 3
-0.465735 0.301847 0.763895 8.48056e-39 3
-0.449012 0.29893 0.756514 8.84899e-39 3
-0.443212 0.303327 0.767639 9.12521e-39 3
-0.430809 0.303327 0.767639 1.04142e-38 3
-0.420467 0.304821 0.771421 1.08748e-38 3
-0.406002 0.303327 0.767639 1.04149e-38 3
-0.422601 0.325677 0.824202 1.04159e-38 3
-0.409284 0.325677 0.824202 8.84934e-39 3
-0.387803 0.318962 0.807208 9.67838e-39 3
-0.321697 0.273799 0.692913 1.06911e-38 3
-0.309134 0.272593 0.689861 1.1429e-38 3
-0.345118 0.315707 0.798972 9.77058e-39 3
-0.33913 0.322284 0.815617 1.01408e-38 3
-0.325952 0.322284 0.815617 1.08769e-38 3
-0.298769 0.307854 0.779097 1.0968e-38 3
-0.28618 0.307854 0.779097 1.07837e-38 3
-0.276342 0.310948 0.786927 1.08758e-38 3
-0.259712 0.30633 0.77524 1.65902e-38 3
-0.245968 0.304821 0.771421 1.40083e-38 3
-0.23236 0.303327 0.767639 1.21652e-38 3
-0.219956 0.303327 0.767639 1.10592e-38 3
-0.208576 0.304821 0.771421 1.19811e-38 3
-0.19515 0.303327 0.767639 1.1613e-38 3
-0.182747 0.303327 0.767639 1.24425e-38 3
-0.169513 0.301847 0.763895 1.11517e-38 3
-0.157171 0.301847 0.763895 1.10599e-38 3
-0.144828 0.301847 0.763895 1.16149e-38 3
-0.133791 0.304821 0.771421 1.16134e-38 3
-0.122534 0.307854 0.779097 1.24425e-38 3
-0.110495 0.309393 0.782992 1.15212e-38 3
-0.0973576 0.307854 0.779097 1.10613e-38 3
-0.0847694 0.307854 0.779097 1.14283e-38 3
-0.0721812 0.307854 0.779097 1.26265e-38 3
-0.0623864 0.322284 0.815617 1.17053e-38 3
-0.0524887 0.34377 0.869991 1.27198e-38 3
-0.0384319 0.34377 0.869991 1.46519e-38 3
-0.0227333 0.320615 0.811391 1.65851e-38 3
-0.00987924 0.329142 0.83297 1.51107e-38 3
0.00354172 0.325677 0.824202 1.5849e-38 3
0.0165111 0.318962 0.807208 1.71401e-38 3
0.0295535 0.318962 0.807208 1.57572e-38 3
0.0430396 0.322284 0.815617 1.6494e-38 3
0.0556383 0.318962 0.807208 1.65859e-38 3
0.0686807 0.318962 0.807208 1.54784e-38 3
0.0754966 0.29466 0.745707 1.57539e-38 3
0.0867193 0.29188 0.738672 1.67685e-38 3
0.10007 0.29607 0.749275 1.55696e-38 3
0.112177 0.29607 0.749275 1.63993e-38 3
0.127329 0.303327 0.767639 1.6583e-38 3
0.139732 0.303327 0.767639 1.57547e-38 3
0.152885 0.304821 0.771421 1.59398e-38 3
0.164538 0.303327 0.767639 1.51104e-38 3
0.176078 0.301847 0.763895 1.54792e-38 3
0.187506 0.300382 0.760186 1.52948e-38 3
0.199789 0.300382 0.760186 1.52962e-38 3
0.208032 0.29466 0.745707 1.47437e-38 3
0.214963 0.287807 0.728365 1.52036e-38 3
0.225681 0.286475 0.724993 1.43728e-38 3
0.236301 0.285155 0.721652 1.48334e-38 3
0.247962 0.285155 0.721652 1.52029e-38 3
0.259622 0.285155 0.721652 1.52966e-38 3
0.280324 0.29466 0.745707 1.49278e-38 3
0.269291 0.271397 0.686835 1.52029e-38 3
0.280388 0.271397 0.686835 1.48349e-38 3
0.300718 0.279994 0.70859 1.4743e-38 3
0.307987 0.276244 0.6991 1.48334e-38 3
0.325087 0.281266 0.711811 1.48341e-38 3
0.346025 0.289152 0.731768 1.44664e-38 3
0.382898 0.309393 0.782992 1.44664e-38 3
0.39555 0.309393 0.782992 1.42821e-38 3
0.412324 0.312518 0.790901 1.48341e-38 3
0.420852 0.309393 0.782992 1.51107e-38 3
0.414835 0.29607 0.749275 1.5388e-38 3
0.413106 0.286475 0.724993 1.43743e-38 3
0.417096 0.281266 0.711811 1.38218e-38 3
0.426657 0.279994 0.70859 1.28094e-38 3
0.438106 0.279994 0.70859 1.3086e-38 3
0.441563 0.275016 0.695993 1.32679e-38 3
0.450805 0.273799 0.692913 1.37278e-38 3
0.466126 0.276244 0.6991 1.38214e-38 3
0.481722 0.278732 0.705398 1.38218e-38 3
0.513956 0.29051 0.735204 1.30857e-38 3
0.525835 0.29051 0.735204 1.18875e-38 3
0.532712 0.287807 0.728365 1.20712e-38 3
0.549593 0.29051 0.735204 1.26236e-38 3
0.558848 0.289152 0.731768 1.24399e-38 3
0.570672 0.289152 0.731768 1.24399e-38 3
0.566609 0.281266 0.711811 1.23477e-38 3
0.57811 0.281266 0.711811 1.29931e-38 3
0.589611 0.281266 0.711811 1.31775e-38 3
0.585153 0.273799 0.692913 1.20712e-38 3
0.591118 0.271397 0.686835 1.12414e-38 3
0.596979 0.269037 0.680863 1.16102e-38 3
0.60798 0.269037 0.680863 1.20712e-38 3
0.613644 0.266718 0.674993 1.15183e-38 3
0.62187 0.265573 0.672096 1.15187e-38 3
0.688906 0.289152 0.731768 1.14276e-38 3
0.707341 0.29188 0.738672 1.10595e-38 3
0.699479 0.283847 0.718341 1.06904e-38 3
0.701433 0.279994 0.70859 1.04145e-38 3
-0.547123 0.280038 0.680863 6.36006e-39 3
-0.493729 0.294104 0.715061 8.11178e-39 3
-0.498097 0.303815 0.738672 7.00543e-39 3
-0.483879 0.302389 0.735204 8.94154e-39 3
-0.476474 0.305255 0.742173 9.86349e-39 3
-0.475757 0.312664 0.760186 7.92738e-39 3
-0.456821 0.308176 0.749275 8.57275e-39 3
-0.4405 0.305255 0.742173 9.49471e-39 3
-0.432608 0.308176 0.749275 9.6773e-39 3
-0.4185 0.306709 0.745707 1.0322e-38 3
-0.410359 0.309658 0.752877 1.0045e-38 3
-0.396289 0.308176 0.749275 1.13361e-38 3
-0.403489 0.323662 0.786927 1.19833e-38 3
-0.39879 0.330302 0.803069 1.06003e-38 3
-0.368793 0.31573 0.767639 1.1613e-38 3
-0.316103 0.280038 0.680863 1.17974e-38 3
-0.306434 0.281261 0.683836 1.18907e-38 3
-0.295385 0.281261 0.683836 1.1062e-38 3
-0.277076 0.27408 0.666376 1.10624e-38 3
-0.266309 0.27408 0.666376 1.04167e-38 3
-0.255542 0.27408 0.666376 1.07865e-38 3
-0.273915 0.306709 0.745707 9.95569e-39 3
-0.270897 0.317285 0.771421 1.04159e-38 3
-0.253439 0.311154 0.756514 1.16138e-38 3
-0.242386 0.312664 0.760186 1.08766e-38 3
-0.227891 0.309658 0.752877 9.40072e-39 3
-0.216769 0.311154 0.756514 1.16134e-38 3
-0.206541 0.314189 0.763895 1.2074e-38 3
-0.19515 0.31573 0.767639 1.13379e-38 3
-0.181856 0.314189 0.763895 1.17978e-38 3
-0.165477 0.306709 0.745707 1.08759e-38 3
-0.153429 0.306709 0.745707 1.189e-38 3
-0.14138 0.306709 0.745707 1.05989e-38 3
-0.128111 0.303815 0.738672 1.16134e-38 3
-0.113499 0.296815 0.721652 1.06915e-38 3
-0.101372 0.295453 0.718341 1.05993e-38 3
-0.0901791 0.296815 0.721652 1.13368e-38 3
-0.0807519 0.305255 0.742173 1.25354e-38 3
-0.0671686 0.298189 0.724993 1.15223e-38 3
-0.0551991 0.296815 0.721652 1.1707e-38 3
-0.0431414 0.294104 0.715061 1.1707e-38 3
-0.0334191 0.311154 0.756514 1.31797e-38 3
-0.0219376 0.322044 0.782992 1.35459e-38 3
-0.0095246 0.330302 0.803069 1.50207e-38 3
0.0034333 0.328617 0.798972 1.5943e-38 3
0.0160962 0.323662 0.786927 1.5943e-38 3
0.0288109 0.323662 0.786927 1.52058e-38 3
0.041318 0.322044 0.782992 1.56657e-38 3
0.0509143 0.303815 0.738672 1.3914e-38 3
0.0597491 0.288829 0.702235 1.54806e-38 3
0.0701517 0.284995 0.692913 1.4926e-38 3
0.0817089 0.286261 0.695993 1.69528e-38 3
0.0950669 0.292767 0.711811 1.70454e-38 3
0.108541 0.298189 0.724993 1.54788e-38 3
0.121949 0.302389 0.735204 1.63078e-38 3
0.133828 0.302389 0.735204 1.41877e-38 3
0.147088 0.305255 0.742173 1.4004e-38 3
0.157586 0.302389 0.735204 1.54792e-38 3
0.168673 0.300976 0.731768 1.49267e-38 3
0.178825 0.298189 0.724993 1.44664e-38 3
0.190539 0.298189 0.724993 1.42821e-38 3
0.201321 0.296815 0.721652 1.38218e-38 3
0.212004 0.295453 0.718341 1.44672e-38 3
0.223611 0.295453 0.718341 1.52951e-38 3
0.235218 0.295453 0.718341 1.58483e-38 3
0.245697 0.294104 0.715061 1.57572e-38 3
0.252636 0.288829 0.702235 1.5204e-38 3
0.255948 0.280038 0.680863 1.49281e-38 3
0.266949 0.280038 0.680863 1.55728e-38 3
0.27795 0.280038 0.680863 1.4375e-38 3
0.288951 0.280038 0.680863 1.42828e-38 3
0.297366 0.277624 0.674993 1.43735e-38 3
0.305638 0.275251 0.669224 1.48356e-38 3
0.338125 0.294104 0.715061 1.45594e-38 3
0.348089 0.292767 0.711811 1.40987e-38 3
0.35959 0.292767 0.711811 1.40062e-38 3
0.374496 0.295453 0.718341 1.37289e-38 3
0.386103 0.295453 0.718341 1.31764e-38 3
0.390543 0.29013 0.705398 1.29002e-38 3
0.407447 0.294104 0.715061 1.26247e-38 3
0.409647 0.287539 0.6991 1.31775e-38 3
0.411752 0.281261 0.683836 1.17953e-38 3
0.422801 0.281261 0.683836 1.3547e-38 3
0.43385 0.281261 0.683836 1.33623e-38 3
0.437261 0.276433 0.672096 1.3914e-38 3
0.448121 0.276433 0.672096 1.28069e-38 3
0.45898 0.276433 0.672096 1.40062e-38 3
0.469839 0.276433 0.672096 1.32704e-38 3
0.49124 0.282495 0.686835 1.22573e-38 3
0.500144 0.281261 0.683836 1.18875e-38 3
0.524947 0.288829 0.702235 1.28087e-38 3
0.541147 0.291443 0.70859 1.25311e-38 3
0.552596 0.291443 0.70859 1.20701e-38 3
0.556491 0.287539 0.6991 1.27158e-38 3
0.557825 0.282495 0.686835 1.28087e-38 3
0.568923 0.282495 0.686835 1.31779e-38 3
0.574977 0.280038 0.680863 1.29935e-38 3
0.583441 0.278826 0.677915 1.25329e-38 3
0.591832 0.277624 0.674993 1.17042e-38 3
0.602738 0.277624 0.674993 1.17031e-38 3
0.613644 0.277624 0.674993 1.15191e-38 3
0.632733 0.281261 0.683836 1.10577e-38 3
0.708779 0.309658 0.752877 1.09655e-38 3
0.720943 0.309658 0.752877 1.04131e-38 3
0.699479 0.295453 0.718341 1.00443e-38 3
-0.572657 0.287292 0.672096 5.34663e-39 3
-0.559396 0.286064 0.669224 5.34555e-39 3
-0.550938 0.287292 0.672096 5.52994e-39 3
-0.547123 0.291039 0.680863 7.28274e-39 3
-0.536122 0.291039 0.680863 6.45298e-39 3
-0.527414 0.29231 0.683836 7.65152e-39 3
-0.532647 0.301527 0.705398 6.08347e-39 3
-0.503054 0.297507 0.695993 7.74335e-39 3
-0.489633 0.296191 0.692913 8.75715e-39 3
-0.478437 0.296191 0.692913 8.11178e-39 3
-0.484388 0.30706 0.718341 7.65152e-39 3
-0.472781 0.30706 0.718341 7.46748e-39 3
-0.4633 0.308475 0.721652 7.1909e-39 3
-0.462292 0.31575 0.738672 7.83627e-39 3
-0.448242 0.314268 0.735204 9.12593e-39 3
-0.434324 0.312799 0.731768 8.84934e-39 3
-0.422501 0.312799 0.731768 9.58511e-39 3
-0.408767 0.311344 0.728365 1.04145e-38 3
-0.398854 0.312799 0.731768 1.14283e-38 3
-0.38703 0.312799 0.731768 1.26279e-38 3
-0.368322 0.30706 0.718341 1.11535e-38 3
-0.373866 0.321822 0.752877 1.13368e-38 3
-0.324284 0.28853 0.674993 1.17971e-38 3
-0.312033 0.287292 0.672096 1.08755e-38 3
-0.301173 0.287292 0.672096 1.14301e-38 3
-0.283026 0.28008 0.655223 1.1062e-38 3
-0.267954 0.275469 0.644438 1.02334e-38 3
-0.256486 0.27434 0.641797 9.12736e-39 3
-0.246117 0.27434 0.641797 1.09713e-38 3
-0.245822 0.286064 0.669224 1.06947e-38 3
-0.233017 0.28364 0.663553 1.10624e-38 3
-0.222296 0.28364 0.663553 9.95605e-39 3
-0.234421 0.314268 0.735204 9.58655e-39 3
-0.222542 0.314268 0.735204 9.95533e-39 3
-0.207737 0.309903 0.724993 1.06925e-38 3
-0.202588 0.320283 0.749275 1.09691e-38 3
-0.19515 0.328133 0.767639 1.05081e-38 3
-0.175851 0.31575 0.738672 1.17974e-38 3
-0.163916 0.31575 0.738672 1.19815e-38 3
-0.152701 0.317247 0.742173 1.24425e-38 3
-0.14138 0.318757 0.745707 1.18893e-38 3
-0.128111 0.31575 0.738672 1.20744e-38 3
-0.111951 0.304268 0.711811 1.06925e-38 3
-0.0999959 0.302892 0.70859 1.17989e-38 3
-0.0889494 0.304268 0.711811 1.18904e-38 3
-0.077802 0.305658 0.715061 1.25364e-38 3
-0.0650602 0.300175 0.702235 1.13386e-38 3
-0.0537139 0.300175 0.702235 1.10628e-38 3
-0.0418052 0.296191 0.692913 1.10628e-38 3
-0.031302 0.302892 0.70859 1.24446e-38 3
-0.0201262 0.30706 0.718341 1.28116e-38 3
-0.00919454 0.331381 0.77524 1.37335e-38 3
0.00333133 0.331381 0.77524 1.25361e-38 3
0.0157017 0.328133 0.767639 1.28116e-38 3
0.0267915 0.312799 0.731768 1.28116e-38 3
0.0354661 0.287292 0.672096 1.33644e-38 3
0.0463254 0.287292 0.672096 1.40083e-38 3
0.0574313 0.28853 0.674993 1.36385e-38 3
0.0689316 0.291039 0.680863 1.4282e-38 3
0.0817089 0.297507 0.695993 1.58469e-38 3
0.0942105 0.301527 0.705398 1.57557e-38 3
0.108541 0.309903 0.724993 1.51104e-38 3
0.121949 0.314268 0.735204 1.43732e-38 3
0.133828 0.314268 0.735204 1.43739e-38 3
0.145707 0.314268 0.735204 1.45579e-38 3
0.155397 0.309903 0.724993 1.48349e-38 3
0.165578 0.30706 0.718341 1.45586e-38 3
0.17478 0.302892 0.70859 1.41899e-38 3
0.186229 0.302892 0.70859 1.48356e-38 3
0.198576 0.304268 0.711811 1.42831e-38 3
0.208185 0.301527 0.705398 1.40069e-38 3
0.220576 0.302892 0.70859 1.45594e-38 3
0.230979 0.301527 0.705398 1.52047e-38 3
0.239145 0.297507 0.695993 1.55739e-38 3
0.247096 0.293592 0.686835 1.61267e-38 3
0.255948 0.291039 0.680863 1.56657e-38 3
0.265794 0.289779 0.677915 1.56661e-38 3
0.276747 0.289779 0.677915 1.46523e-38 3
0.285231 0.287292 0.672096 1.42838e-38 3
0.294825 0.286064 0.669224 1.38214e-38 3
0.303048 0.28364 0.663553 1.40062e-38 3
0.312445 0.282443 0.660753 1.37303e-38 3
0.323121 0.282443 0.660753 1.27165e-38 3
0.31771 0.268832 0.628909 1.42828e-38 3
0.322688 0.264581 0.618966 1.33612e-38 3
0.32879 0.261481 0.611713 1.35456e-38 3
0.341341 0.26354 0.616529 1.30857e-38 3
0.391363 0.293592 0.686835 1.20722e-38 3
0.402461 0.293592 0.686835 1.16116e-38 3
0.406428 0.28853 0.674993 1.17971e-38 3
0.417334 0.28853 0.674993 1.10592e-38 3
0.42458 0.286064 0.669224 1.25332e-38 3
0.429882 0.282443 0.660753 1.34544e-38 3
0.442424 0.28364 0.663553 1.28087e-38 3
0.451234 0.282443 0.660753 1.25314e-38 3
0.46191 0.282443 0.660753 1.27176e-38 3
0.480699 0.287292 0.672096 1.17964e-38 3
0.491558 0.287292 0.672096 1.23488e-38 3
0.504583 0.28853 0.674993 1.18875e-38 3
0.515489 0.28853 0.674993 1.29013e-38 3
0.526395 0.28853 0.674993 1.28084e-38 3
0.537301 0.28853 0.674993 1.18871e-38 3
0.545855 0.287292 0.672096 1.20715e-38 3
0.556714 0.287292 0.672096 1.17031e-38 3
0.567573 0.287292 0.672096 1.12425e-38 3
0.578433 0.287292 0.672096 1.07822e-38 3
0.589292 0.287292 0.672096 1.18889e-38 3
0.600151 0.287292 0.672096 1.13343e-38 3
0.641286 0.301527 0.705398 1.20722e-38 3
0.683471 0.31575 0.738672 1.17956e-38 3
0.695406 0.31575 0.738672 1.13343e-38 3
0.687872 0.30706 0.718341 1.19808e-38 3
0.686876 0.301527 0.705398 1.05975e-38 3
-0.572657 0.298151 0.672096 5.71541e-39 3
-0.559396 0.296877 0.669224 5.99092e-39 3
-0.550938 0.298151 0.672096 7.65152e-39 3
-0.542407 0.299437 0.674993 7.00615e-39 3
-0.5315 0.299437 0.674993 6.08491e-39 3
-0.522848 0.300733 0.677915 7.1909e-39 3
-0.51863 0.30469 0.686835 6.36006e-39 3
-0.507533 0.30469 0.686835 7.09762e-39 3
-0.494267 0.303359 0.683836 8.20541e-39 3
-0.483218 0.303359 0.683836 8.66495e-39 3
-0.495994 0.318666 0.718341 7.83627e-39 3
-0.484388 0.318666 0.718341 7.28309e-39 3
-0.472781 0.318666 0.718341 7.376e-39 3
-0.4633 0.320135 0.721652 7.56076e-39 3
-0.457971 0.324623 0.731768 7.09906e-39 3
-0.446148 0.324623 0.731768 7.74443e-39 3
-0.430303 0.321617 0.724993 9.12592e-39 3
-0.41666 0.320135 0.721652 9.49399e-39 3
-0.403142 0.318666 0.718341 1.06915e-38 3
-0.39334 0.320135 0.721652 1.03223e-38 3
-0.378194 0.317211 0.715061 1.0968e-38 3
-0.361686 0.312925 0.705398 1.02316e-38 3
-0.338105 0.30204 0.680863 1.07829e-38 3
-0.320144 0.295614 0.666376 1.06904e-38 3
-0.308066 0.294361 0.663553 1.12435e-38 3
-0.297345 0.294361 0.663553 1.18893e-38 3
-0.281846 0.289455 0.652493 1.01383e-38 3
-0.266856 0.28471 0.641797 1.02316e-38 3
-0.25544 0.283548 0.639177 1.01412e-38 3
-0.243127 0.281252 0.634002 1.13393e-38 3
-0.230089 0.277877 0.626394 1.04174e-38 3
-0.219092 0.27677 0.623898 1.00486e-38 3
-0.207359 0.274582 0.618966 1.04174e-38 3
-0.195045 0.271364 0.611713 1.01412e-38 3
-0.181614 0.266166 0.599994 1.0049e-38 3
-0.195092 0.30204 0.680863 1.03245e-38 3
-0.169364 0.277877 0.626394 1.09698e-38 3
-0.158608 0.27677 0.623898 1.22599e-38 3
-0.149122 0.277877 0.626394 1.2351e-38 3
-0.140122 0.280118 0.631445 1.28109e-38 3
-0.145135 0.312925 0.705398 1.21644e-38 3
-0.125273 0.293119 0.660753 1.11517e-38 3
-0.124016 0.317211 0.715061 1.16134e-38 3
-0.111445 0.314341 0.70859 1.07854e-38 3
-0.0973529 0.306032 0.689861 1.06018e-38 3
-0.0877528 0.311521 0.702235 1.25364e-38 3
-0.0774484 0.315769 0.711811 1.09698e-38 3
-0.0659474 0.315769 0.711811 1.08784e-38 3
-0.0537139 0.311521 0.702235 1.10635e-38 3
-0.0425584 0.312925 0.705398 1.12475e-38 3
-0.0315879 0.317211 0.715061 1.22617e-38 3
-0.0199433 0.315769 0.711811 1.12475e-38 3
-0.00844226 0.315769 0.711811 1.14319e-38 3
0.00295144 0.30469 0.686835 1.10628e-38 3
0.0136887 0.296877 0.669224 1.15237e-38 3
0.0243974 0.295614 0.666376 1.23521e-38 3
0.0351643 0.295614 0.666376 1.31807e-38 3
0.0459312 0.295614 0.666376 1.27194e-38 3
0.0571848 0.298151 0.672096 1.2718e-38 3
0.0686332 0.300733 0.677915 1.36378e-38 3
0.0799326 0.30204 0.680863 1.43728e-38 3
0.092543 0.307386 0.692913 1.62167e-38 3
0.104665 0.310131 0.6991 1.45579e-38 3
0.119152 0.318666 0.718341 1.42824e-38 3
0.128984 0.314341 0.70859 1.44675e-38 3
0.140433 0.314341 0.70859 1.4559e-38 3
0.149182 0.308752 0.695993 1.4559e-38 3
0.158316 0.30469 0.686835 1.52044e-38 3
0.16794 0.30204 0.680863 1.4559e-38 3
0.178941 0.30204 0.680863 1.47437e-38 3
0.191609 0.30469 0.686835 1.35459e-38 3
0.201821 0.303359 0.683836 1.37314e-38 3
0.21287 0.303359 0.683836 1.39158e-38 3
0.226891 0.307386 0.692913 1.37314e-38 3
0.238087 0.307386 0.692913 1.32704e-38 3
0.244947 0.30204 0.680863 1.36381e-38 3
0.255948 0.30204 0.680863 1.44679e-38 3
0.264648 0.299437 0.674993 1.4008e-38 3
0.275554 0.299437 0.674993 1.43771e-38 3
0.284012 0.296877 0.669224 1.43771e-38 3
0.288657 0.290666 0.655223 1.42835e-38 3
0.295534 0.287063 0.647101 1.52969e-38 3
0.303481 0.28471 0.641797 1.40076e-38 3
0.313928 0.275672 0.621422 1.41913e-38 3
0.318907 0.271364 0.611713 1.46526e-38 3
0.323732 0.26719 0.602302 1.38225e-38 3
0.336049 0.269261 0.606971 1.41924e-38 3
0.348558 0.271364 0.611713 1.26254e-38 3
0.361264 0.273501 0.616529 1.21655e-38 3
0.377165 0.277877 0.626394 1.12446e-38 3
0.41026 0.294361 0.663553 1.11517e-38 3
0.413965 0.289455 0.652493 1.12436e-38 3
0.419267 0.285882 0.644438 1.11514e-38 3
0.435051 0.289455 0.652493 1.17956e-38 3
0.447458 0.290666 0.655223 1.29013e-38 3
0.454243 0.288254 0.649786 1.28091e-38 3
0.468631 0.290666 0.655223 1.27176e-38 3
0.48531 0.294361 0.663553 1.26254e-38 3
0.498142 0.295614 0.666376 1.18878e-38 3
0.504614 0.293119 0.660753 1.18886e-38 3
0.510978 0.290666 0.655223 1.17949e-38 3
0.523756 0.291888 0.657977 1.15183e-38 3
0.529934 0.289455 0.652493 1.13347e-38 3
0.538234 0.288254 0.649786 1.17034e-38 3
0.544217 0.285882 0.644438 1.17035e-38 3
0.563911 0.290666 0.655223 1.17971e-38 3
0.579346 0.293119 0.660753 1.14283e-38 3
0.587543 0.291888 0.657977 1.07822e-38 3
0.618981 0.30204 0.680863 1.198e-38 3
0.676266 0.318666 0.718341 1.14265e-38 3
0.561634 0.260185 0.586511 1.22573e-38 3
-0.591127 0.313041 0.680863 6.17567e-39 3
-0.567783 0.306381 0.666376 6.91323e-39 3
-0.557016 0.306381 0.666376 7.74371e-39 3
-0.548584 0.30769 0.669224 7.46713e-39 3
-0.537771 0.30769 0.669224 6.17639e-39 3
-0.526958 0.30769 0.669224 6.26858e-39 3
-0.51836 0.309011 0.672096 6.72884e-39 3
-0.511895 0.311686 0.677915 6.91323e-39 3
-0.500941 0.311686 0.677915 7.28309e-39 3
-0.489988 0.311686 0.677915 9.3114e-39 3
-0.474923 0.309011 0.672096 9.03373e-39 3
-0.487057 0.324322 0.705398 6.72884e-39 3
-0.46112 0.314408 0.683836 8.66602e-39 3
-0.477159 0.333331 0.724993 8.20505e-39 3
-0.465445 0.333331 0.724993 7.56004e-39 3
-0.453731 0.333331 0.724993 7.65187e-39 3
-0.437962 0.330273 0.718341 8.75822e-39 3
-0.42832 0.331795 0.721652 8.94153e-39 3
-0.414748 0.330273 0.718341 8.66495e-39 3
-0.401301 0.328765 0.715061 9.49471e-39 3
-0.389748 0.328765 0.715061 1.05085e-38 3
-0.373083 0.324322 0.705398 1.04159e-38 3
-0.361686 0.324322 0.705398 9.67838e-39 3
-0.338105 0.313041 0.680863 1.05071e-38 3
-0.317442 0.303795 0.660753 1.0506e-38 3
-0.304199 0.301253 0.655223 1.17967e-38 3
-0.293612 0.301253 0.655223 1.16123e-38 3
-0.277226 0.29508 0.641797 1.07829e-38 3
-0.263615 0.291496 0.634002 1.06915e-38 3
-0.25235 0.290321 0.631445 9.4018e-39 3
-0.241175 0.289155 0.628909 9.2174e-39 3
-0.230089 0.287998 0.626394 9.58763e-39 3
-0.218222 0.285712 0.621422 9.68054e-39 3
-0.205733 0.282351 0.614111 9.95712e-39 3
-0.194286 0.280154 0.609332 1.07865e-38 3
-0.181614 0.27586 0.599994 9.2192e-39 3
-0.172581 0.276921 0.602302 1.03255e-38 3
-0.166696 0.283463 0.616529 1.01412e-38 3
-0.156735 0.283463 0.616529 1.06011e-38 3
-0.146773 0.283463 0.616529 1.19833e-38 3
-0.137353 0.284583 0.618966 1.28116e-38 3
-0.128367 0.286851 0.623898 1.23506e-38 3
-0.12069 0.292681 0.636579 1.17049e-38 3
-0.110855 0.293876 0.639177 1.17056e-38 3
-0.106161 0.310343 0.674993 1.00472e-38 3
-0.0952547 0.310343 0.674993 1.05096e-38 3
-0.0862065 0.317178 0.689861 1.13386e-38 3
-0.0764065 0.322868 0.702235 1.06933e-38 3
-0.0647697 0.321426 0.6991 1.05099e-38 3
-0.052536 0.315787 0.686835 1.04177e-38 3
-0.0414385 0.315787 0.686835 1.18003e-38 3
-0.030341 0.315787 0.686835 1.11557e-38 3
-0.0192435 0.315787 0.686835 1.00497e-38 3
-0.00811047 0.314408 0.683836 9.40467e-39 3
0.00286352 0.306381 0.666376 9.95784e-39 3
0.0134586 0.302519 0.657977 1.10635e-38 3
0.023989 0.301253 0.655223 1.23528e-38 3
0.0350153 0.305083 0.663553 1.21677e-38 3
0.0457366 0.305083 0.663553 1.24432e-38 3
0.0571848 0.309011 0.672096 1.26276e-38 3
0.0686332 0.311686 0.677915 1.40083e-38 3
0.0799326 0.313041 0.680863 1.38207e-38 3
0.0917313 0.315787 0.686835 1.51114e-38 3
0.102829 0.315787 0.686835 1.6033e-38 3
0.114934 0.318582 0.692913 1.53877e-38 3
0.123937 0.313041 0.680863 1.37299e-38 3
0.134938 0.313041 0.680863 1.41909e-38 3
0.145938 0.313041 0.680863 1.43742e-38 3
0.156939 0.313041 0.680863 1.51107e-38 3
0.167213 0.311686 0.677915 1.47434e-38 3
0.178167 0.311686 0.677915 1.43753e-38 3
0.190772 0.314408 0.683836 1.36378e-38 3
0.201821 0.314408 0.683836 1.44679e-38 3
0.211944 0.313041 0.680863 1.46523e-38 3
0.224901 0.315787 0.686835 1.41002e-38 3
0.238087 0.318582 0.692913 1.33626e-38 3
0.243887 0.311686 0.677915 1.39158e-38 3
0.25484 0.311686 0.677915 1.37314e-38 3
0.260162 0.305083 0.663553 1.34555e-38 3
0.273199 0.30769 0.669224 1.26272e-38 3
0.281605 0.305083 0.663553 1.33648e-38 3
0.282742 0.29508 0.641797 1.38239e-38 3
0.296198 0.287998 0.626394 1.43771e-38 3
0.297975 0.280154 0.609332 1.41005e-38 3
0.306628 0.279068 0.606971 1.41002e-38 3
0.314 0.276921 0.602302 1.46533e-38 3
0.322492 0.27586 0.599994 1.36381e-38 3
0.333464 0.276921 0.602302 1.36381e-38 3
0.343195 0.276921 0.602302 1.29938e-38 3
0.35429 0.27799 0.604627 1.24421e-38 3
0.368325 0.281248 0.611713 1.18889e-38 3
0.382694 0.284583 0.618966 1.18889e-38 3
0.395824 0.286851 0.623898 1.18889e-38 3
0.409164 0.289155 0.628909 1.0967e-38 3
0.426172 0.293876 0.639177 1.13357e-38 3
0.440092 0.296294 0.644438 1.08741e-38 3
0.446827 0.293876 0.639177 1.15191e-38 3
0.462822 0.297519 0.647101 1.17027e-38 3
0.483262 0.303795 0.660753 1.15183e-38 3
0.496031 0.305083 0.663553 1.18878e-38 3
0.496239 0.298753 0.649786 1.21644e-38 3
0.496438 0.292681 0.636579 1.17964e-38 3
0.508792 0.293876 0.639177 1.18886e-38 3
0.519119 0.293876 0.639177 1.17967e-38 3
0.528979 0.287998 0.626394 1.25332e-38 3
0.532707 0.284583 0.618966 1.16123e-38 3
0.510348 0.262772 0.571527 1.12439e-38 3
-0.591127 0.324042 0.680863 6.08419e-39 3
-0.565377 0.315804 0.663553 7.18982e-39 3
-0.554656 0.315804 0.663553 7.65152e-39 3
-0.546249 0.317148 0.666376 8.20469e-39 3
-0.528732 0.31315 0.657977 6.63737e-39 3
-0.509538 0.307974 0.647101 6.08419e-39 3
-0.499082 0.307974 0.647101 7.83519e-39 3
-0.488627 0.307974 0.647101 7.09762e-39 3
-0.466603 0.300523 0.631445 9.86457e-39 3
-0.461989 0.304203 0.639177 8.85042e-39 3
-0.448004 0.30174 0.634002 7.5586e-39 3
-0.430784 0.296931 0.623898 8.11177e-39 3
-0.422386 0.298119 0.626394 8.11285e-39 3
-0.460117 0.332722 0.6991 7.65187e-39 3
-0.38817 0.28776 0.604627 8.02102e-39 3
-0.374068 0.284465 0.597704 8.66639e-39 3
-0.415111 0.324042 0.680863 8.38944e-39 3
-0.40411 0.324042 0.680863 8.85042e-39 3
-0.414748 0.34188 0.718341 8.11178e-39 3
-0.372394 0.315804 0.663553 1.02323e-38 3
-0.361673 0.315804 0.663553 9.77058e-39 3
-0.348002 0.31315 0.657977 8.57203e-39 3
-0.273817 0.262429 0.551403 9.86133e-39 3
-0.288779 0.306707 0.644438 1.03216e-38 3
-0.273859 0.30174 0.634002 1.17049e-38 3
-0.261498 0.299316 0.628909 1.04149e-38 3
-0.251336 0.299316 0.628909 9.03301e-39 3
-0.24021 0.298119 0.626394 1.1061e-38 3
-0.230089 0.298119 0.626394 1.00479e-38 3
-0.216504 0.293424 0.616529 9.95713e-39 3
-0.202555 0.28776 0.604627 1.00497e-38 3
-0.192044 0.286653 0.602302 9.40359e-39 3
-0.180233 0.283383 0.595431 1.07865e-38 3
-0.170613 0.283383 0.595431 9.127e-39 3
-0.164751 0.289999 0.609332 1.06943e-38 3
-0.154905 0.289999 0.609332 1.09709e-38 3
-0.146773 0.293424 0.616529 1.11535e-38 3
-0.137353 0.294584 0.618966 1.11524e-38 3
-0.128367 0.296931 0.623898 1.15212e-38 3
-0.119236 0.299316 0.628909 1.189e-38 3
-0.109074 0.299316 0.628909 1.13379e-38 3
-0.10094 0.30545 0.641797 9.77129e-39 3
-0.0928533 0.31315 0.657977 1.10631e-38 3
-0.0847137 0.32264 0.677915 1.1062e-38 3
-0.0737604 0.32264 0.677915 1.17996e-38 3
-0.0614764 0.315804 0.663553 1.07865e-38 3
-0.0499092 0.310541 0.652493 1.01412e-38 3
-0.0393666 0.310541 0.652493 1.01412e-38 3
0.00280387 0.310541 0.652493 1.0511e-38 3
0.0132911 0.309252 0.649786 1.02337e-38 3
0.0237899 0.309252 0.649786 1.01401e-38 3
0.0348675 0.314471 0.660753 1.10613e-38 3
0.0455436 0.314471 0.660753 1.1523e-38 3
0.0564578 0.315804 0.663553 1.2168e-38 3
0.0654253 0.26523 0.55729 1.46533e-38 3
0.0744296 0.26523 0.55729 1.48363e-38 3
0.0831381 0.26429 0.555314 1.37299e-38 3
0.0921106 0.26429 0.555314 1.38214e-38 3
0.134938 0.324042 0.680863 1.38236e-38 3
0.145307 0.32264 0.677915 1.41909e-38 3
0.15626 0.32264 0.677915 1.53888e-38 3
0.160943 0.310541 0.652493 1.49278e-38 3
0.172927 0.31315 0.657977 1.46523e-38 3
0.189942 0.324042 0.680863 1.39147e-38 3
0.201821 0.325457 0.683836 1.49289e-38 3
0.206764 0.300523 0.631445 1.44679e-38 3
0.23193 0.321249 0.674993 1.31782e-38 3
0.239736 0.317148 0.666376 1.36392e-38 3
0.241263 0.30545 0.641797 1.50221e-38 3
0.247574 0.300523 0.631445 1.36399e-38 3
0.257776 0.300523 0.631445 1.2996e-38 3
0.273493 0.306707 0.644438 1.3457e-38 3
0.278181 0.300523 0.631445 1.31797e-38 3
0.276136 0.28776 0.604627 1.2257e-38 3
0.283714 0.285555 0.599994 1.32708e-38 3
0.287894 0.280187 0.588716 1.40083e-38 3
0.299659 0.28231 0.593176 1.37318e-38 3
0.309243 0.28231 0.593176 1.36399e-38 3
0.318827 0.28231 0.593176 1.38236e-38 3
0.32966 0.283383 0.595431 1.51143e-38 3
0.339281 0.283383 0.595431 1.36396e-38 3
0.348901 0.283383 0.595431 1.25343e-38 3
0.35989 0.284465 0.597704 1.35484e-38 3
0.37239 0.286653 0.602302 1.25343e-38 3
0.385084 0.288875 0.606971 1.23499e-38 3
0.397976 0.291132 0.611713 1.19811e-38 3
0.415985 0.296931 0.623898 1.17967e-38 3
0.432965 0.30174 0.634002 1.16113e-38 3
0.441422 0.300523 0.631445 1.15191e-38 3
0.451624 0.300523 0.631445 1.17949e-38 3
0.471329 0.306707 0.644438 1.17027e-38 3
0.48574 0.309252 0.649786 1.13347e-38 3
0.486152 0.302966 0.636579 1.17035e-38 3
0.477046 0.291132 0.611713 1.17042e-38 3
0.498616 0.298119 0.626394 1.22573e-38 3
0.508737 0.298119 0.626394 1.10592e-38 3
0.510687 0.293424 0.616529 1.0967e-38 3
0.50475 0.284465 0.597704 1.08748e-38 3
0.504775 0.279138 0.586511 1.12436e-38 3
0.49587 0.26429 0.555314 1.06907e-38 3
0.497782 0.260594 0.547547 1.0506e-38 3
0.501369 0.257888 0.541863 1.10581e-38 3
-0.562992 0.325148 0.660753 7.09906e-39 3
-0.549995 0.323781 0.657977 7.56004e-39 3
-0.539364 0.323781 0.657977 7.74443e-39 3
-0.513626 0.31453 0.639177 7.37493e-39 3
-0.499223 0.311984 0.634002 7.00579e-39 3
-0.477383 0.304585 0.618966 7.00542e-39 3
-0.461905 0.301015 0.611713 7.83519e-39 3
-0.44167 0.294122 0.597704 7.55968e-39 3
-0.428739 0.291894 0.593176 7.83627e-39 3
-0.419155 0.291894 0.593176 8.01958e-39 3
-0.409571 0.291894 0.593176 8.48055e-39 3
-0.398477 0.290792 0.590937 7.74407e-39 3
-0.388929 0.290792 0.590937 8.94261e-39 3
-0.379381 0.290792 0.590937 8.57491e-39 3
-0.368443 0.289699 0.588716 8.85078e-39 3
-0.357587 0.288614 0.586511 9.49615e-39 3
-0.34811 0.288614 0.586511 9.12665e-39 3
-0.338709 0.305793 0.621422 8.9401e-39 3
-0.293704 0.273262 0.555314 9.95353e-39 3
-0.284731 0.273262 0.555314 9.67766e-39 3
-0.270955 0.268502 0.545639 1.13357e-38 3
-0.264908 0.271338 0.551403 1.16116e-38 3
-0.257814 0.273262 0.555314 1.23495e-38 3
-0.269495 0.307012 0.623898 1.18896e-38 3
-0.25635 0.303386 0.616529 1.18896e-38 3
-0.248344 0.305793 0.621422 1.09677e-38 3
-0.237362 0.304585 0.618966 1.12446e-38 3
-0.226466 0.303386 0.616529 9.77129e-39 3
-0.212324 0.297529 0.604627 1.03252e-38 3
-0.199474 0.293004 0.595431 9.58762e-39 3
-0.189854 0.293004 0.595431 1.04181e-38 3
-0.179551 0.291894 0.593176 1.01412e-38 3
-0.169966 0.291894 0.593176 9.03481e-39 3
-0.161606 0.294122 0.597704 1.02333e-38 3
-0.153118 0.296384 0.602302 9.95676e-39 3
-0.14394 0.297529 0.604627 1.09698e-38 3
-0.134171 0.297529 0.604627 1.12461e-38 3
-0.12537 0.299844 0.609332 1.03245e-38 3
-0.117351 0.304585 0.618966 1.04174e-38 3
-0.105679 0.299844 0.609332 1.06936e-38 3
-0.0962083 0.301015 0.611713 1.02334e-38 3
0.0027579 0.31582 0.641797 9.5887e-39 3
0.0131277 0.31582 0.641797 9.86493e-39 3
0.0235941 0.317119 0.644438 1.01412e-38 3
0.0342888 0.319751 0.649786 1.12464e-38 3
0.044237 0.31582 0.641797 1.18003e-38 3
0.0554345 0.26944 0.547547 1.11546e-38 3
0.0647342 0.271338 0.551403 1.21662e-38 3
0.0741657 0.273262 0.555314 1.29034e-38 3
0.0831381 0.273262 0.555314 1.40083e-38 3
0.0921106 0.273262 0.555314 1.33619e-38 3
0.101443 0.274235 0.55729 1.3363e-38 3
0.172252 0.272297 0.553351 1.37299e-38 3
0.182482 0.274235 0.55729 1.29924e-38 3
0.224199 0.321083 0.652493 1.2808e-38 3
0.236418 0.309478 0.628909 1.41913e-38 3
0.242681 0.304585 0.618966 1.43775e-38 3
0.251687 0.303386 0.616529 1.32722e-38 3
0.266903 0.309478 0.628909 1.32729e-38 3
0.273766 0.305793 0.621422 1.29953e-38 3
0.277339 0.288614 0.586511 1.27187e-38 3
0.280512 0.282271 0.573621 1.23503e-38 3
0.293 0.285407 0.579994 1.12446e-38 3
0.306918 0.289699 0.588716 1.1429e-38 3
0.31643 0.289699 0.588716 1.32718e-38 3
0.327172 0.290792 0.590937 1.25332e-38 3
0.33672 0.290792 0.590937 1.40083e-38 3
0.346268 0.290792 0.590937 1.36406e-38 3
0.355816 0.290792 0.590937 1.30875e-38 3
0.365364 0.290792 0.590937 1.17967e-38 3
0.376332 0.291894 0.593176 1.22577e-38 3
0.385916 0.291894 0.593176 1.25343e-38 3
0.401585 0.296384 0.602302 1.26265e-38 3
0.422697 0.304585 0.618966 1.25332e-38 3
0.430994 0.303386 0.616529 1.29942e-38 3
0.440956 0.303386 0.616529 1.28091e-38 3
0.454496 0.305793 0.621422 1.21637e-38 3
0.479768 0.31582 0.641797 1.12425e-38 3
0.439682 0.283309 0.575729 1.14269e-38 3
0.457392 0.288614 0.586511 1.11517e-38 3
0.472174 0.291894 0.593176 9.76878e-39 3
0.48917 0.296384 0.602302 1.0322e-38 3
0.498902 0.296384 0.602302 1.05985e-38 3
0.502831 0.293004 0.595431 1.06904e-38 3
0.504775 0.288614 0.586511 1.08751e-38 3
0.495686 0.278195 0.565337 1.05985e-38 3
0.497635 0.274235 0.55729 1.08755e-38 3
0.497782 0.26944 0.547547 1.11521e-38 3
0.499641 0.265724 0.539995 1.13357e-38 3
-0.562992 0.335824 0.660753 7.1909e-39 3
-0.547694 0.333013 0.655223 8.11321e-39 3
-0.526101 0.326189 0.641797 6.73028e-39 3
-0.495426 0.313347 0.616529 6.72956e-39 3
-0.477938 0.308489 0.606971 9.12593e-39 3
-0.459231 0.302624 0.595431 7.37421e-39 3
-0.447908 0.301478 0.593176 7.09762e-39 3
-0.43667 0.30034 0.590937 7.0987e-39 3
-0.425516 0.299211 0.588716 7.74407e-39 3
-0.416004 0.299211 0.588716 8.84934e-39 3
-0.406492 0.299211 0.588716 8.48056e-39 3
-0.396979 0.299211 0.588716 8.11285e-39 3
-0.388929 0.30034 0.590937 9.03481e-39 3
-0.377955 0.299211 0.588716 7.74515e-39 3
-0.367063 0.298091 0.586511 7.83734e-39 3
-0.357587 0.298091 0.586511 8.3898e-39 3
-0.349419 0.299211 0.588716 8.20541e-39 3
-0.28659 0.275399 0.541863 1.17045e-38 3
-0.27498 0.272569 0.536296 1.14287e-38 3
-0.263607 0.269797 0.530842 1.16123e-38 3
-0.256771 0.271639 0.534466 1.33623e-38 3
-0.250702 0.274449 0.539995 1.29016e-38 3
-0.246222 0.279264 0.549468 1.18889e-38 3
-0.248523 0.303779 0.597704 1.25343e-38 3
-0.238865 0.303779 0.597704 1.07826e-38 3
-0.228336 0.302624 0.595431 1.27194e-38 3
-0.217887 0.301478 0.593176 1.08773e-38 3
-0.205963 0.298091 0.586511 1.01412e-38 3
-0.195025 0.295874 0.58215 1.12479e-38 3
-0.185619 0.295874 0.58215 9.86457e-39 3
-0.176871 0.296978 0.584322 9.2192e-39 3
-0.168057 0.298091 0.586511 1.09709e-38 3
-0.159777 0.30034 0.590937 1.07865e-38 3
-0.150798 0.301478 0.593176 9.58798e-39 3
-0.141751 0.302624 0.595431 1.02323e-38 3
-0.0963105 0.282235 0.555314 1.15248e-38 3
-0.0870294 0.281237 0.553351 1.0695e-38 3
-0.0780887 0.281237 0.553351 1.10638e-38 3
0.0130209 0.323537 0.636579 1.04177e-38 3
0.0234015 0.324858 0.639177 1.06943e-38 3
0.0451663 0.269797 0.530842 1.09709e-38 3
0.0535617 0.268886 0.529049 1.14312e-38 3
0.0633948 0.274449 0.539995 1.25364e-38 3
0.0736434 0.280247 0.551403 1.25354e-38 3
0.0828444 0.281237 0.553351 1.26272e-38 3
0.0917851 0.281237 0.553351 1.29953e-38 3
0.119878 0.284251 0.55928 1.3825e-38 3
0.127099 0.280247 0.551403 1.4008e-38 3
0.141431 0.273506 0.538139 1.50221e-38 3
0.150126 0.273506 0.538139 1.42846e-38 3
0.160476 0.276355 0.543745 1.44675e-38 3
0.170445 0.278287 0.547547 1.55731e-38 3
0.181835 0.282235 0.555314 1.46519e-38 3
0.190807 0.282235 0.555314 1.36374e-38 3
0.229954 0.310899 0.611713 1.35459e-38 3
0.238904 0.309689 0.609332 1.47448e-38 3
0.246828 0.307298 0.604627 1.41005e-38 3
0.264776 0.317092 0.623898 1.38254e-38 3
0.274857 0.317092 0.623898 1.41009e-38 3
0.276304 0.296978 0.584322 1.318e-38 3
0.276461 0.287329 0.565337 1.20744e-38 3
0.28663 0.28837 0.567386 1.17067e-38 3
0.302371 0.294778 0.579994 1.17992e-38 3
0.311742 0.294778 0.579994 1.21662e-38 3
0.322307 0.295874 0.58215 1.29942e-38 3
0.331713 0.295874 0.58215 1.27187e-38 3
0.339856 0.294778 0.579994 1.32719e-38 3
0.347938 0.293691 0.577854 1.30875e-38 3
0.352078 0.289419 0.569449 1.30875e-38 3
0.35738 0.286296 0.563304 1.25343e-38 3
0.366482 0.286296 0.563304 1.25343e-38 3
0.375583 0.286296 0.563304 1.27187e-38 3
0.388201 0.282235 0.555314 1.25332e-38 3
0.421063 0.299211 0.588716 1.30857e-38 3
0.419535 0.291539 0.573621 1.31779e-38 3
0.421091 0.286296 0.563304 1.35474e-38 3
0.430192 0.286296 0.563304 1.2902e-38 3
0.44734 0.291539 0.573621 1.23506e-38 3
0.465127 0.296978 0.584322 1.17974e-38 3
0.474568 0.296978 0.584322 1.11517e-38 3
0.491342 0.301478 0.593176 1.04142e-38 3
0.500927 0.301478 0.593176 1.07829e-38 3
0.484802 0.286296 0.563304 9.67659e-39 3
0.49587 0.282235 0.555314 9.7695e-39 3
0.492614 0.275399 0.541863 8.94082e-39 3
-0.483994 0.315848 0.602302 8.66602e-39 3
-0.467076 0.311062 0.593176 8.75714e-39 3
-0.452352 0.307567 0.586511 7.09798e-39 3
-0.442875 0.307567 0.586511 7.5586e-39 3
-0.433399 0.307567 0.586511 7.74407e-39 3
-0.42234 0.306419 0.584322 8.48092e-39 3
-0.411364 0.30528 0.58215 8.75714e-39 3
-0.396069 0.300807 0.573621 8.66495e-39 3
-0.3868 0.300807 0.573621 8.57383e-39 3
-0.381727 0.30415 0.579994 8.66602e-39 3
-0.372356 0.30415 0.579994 7.74479e-39 3
-0.361645 0.303027 0.577854 7.74479e-39 3
-0.348451 0.29971 0.571527 8.57419e-39 3
-0.345522 0.30528 0.58215 7.19126e-39 3
-0.293315 0.282201 0.538139 1.00472e-38 3
-0.281716 0.279321 0.532648 1.11524e-38 3
-0.270351 0.2765 0.527267 1.11524e-38 3
-0.260953 0.275572 0.525498 1.14287e-38 3
-0.252462 0.275572 0.525498 1.16123e-38 3
-0.24562 0.277434 0.529049 1.17038e-38 3
-0.237876 0.278374 0.530842 1.21648e-38 3
-0.192382 0.27465 0.523741 1.07851e-38 3
-0.183307 0.273735 0.521995 1.09698e-38 3
-0.177236 0.277434 0.529049 1.09702e-38 3
-0.176437 0.290178 0.553351 1.06021e-38 3
-0.170508 0.295397 0.563304 1.0049e-38 3
-0.161407 0.295397 0.563304 1.04177e-38 3
-0.151759 0.294338 0.561285 1.06932e-38 3
-0.0959701 0.290178 0.553351 1.08798e-38 3
-0.0870294 0.290178 0.553351 1.10638e-38 3
-0.0772696 0.287134 0.547547 1.02341e-38 3
-0.0681842 0.286134 0.545639 1.20765e-38 3
-0.058552 0.282201 0.538139 1.11557e-38 3
-0.0493484 0.279321 0.532648 1.09709e-38 3
-0.0404669 0.277434 0.529049 1.06029e-38 3
-0.0238543 0.283174 0.539995 1.06943e-38 3
0.0102665 0.263206 0.501918 1.04177e-38 3
0.0183762 0.263206 0.501918 1.07854e-38 3
0.0266568 0.264905 0.505156 1.14305e-38 3
0.0352739 0.268367 0.51176 1.0323e-38 3
0.044266 0.272825 0.520261 1.07854e-38 3
0.052672 0.272825 0.520261 1.21695e-38 3
0.0619007 0.2765 0.527267 1.21684e-38 3
0.0711385 0.279321 0.532648 1.1523e-38 3
0.0808447 0.283174 0.539995 1.309e-38 3
0.0895696 0.283174 0.539995 1.33648e-38 3
0.10928 0.289156 0.551403 1.2168e-38 3
0.117775 0.288142 0.549468 1.29056e-38 3
0.124041 0.282201 0.538139 1.26276e-38 3
0.132282 0.281234 0.536296 1.24421e-38 3
0.140466 0.280274 0.534466 1.41938e-38 3
0.149612 0.281234 0.536296 1.43768e-38 3
0.159369 0.283174 0.539995 1.58512e-38 3
0.169261 0.28514 0.543745 1.5759e-38 3
0.180554 0.289156 0.551403 1.55739e-38 3
0.190133 0.290178 0.553351 1.55739e-38 3
0.200491 0.292243 0.55729 1.42824e-38 3
0.223833 0.312245 0.595431 1.48349e-38 3
0.235243 0.314638 0.599994 1.44675e-38 3
0.244002 0.313437 0.597704 1.44682e-38 3
0.255611 0.315848 0.602302 1.4102e-38 3
0.273766 0.325875 0.621422 1.39161e-38 3
0.268869 0.308723 0.588716 1.45622e-38 3
0.271243 0.300807 0.573621 1.3364e-38 3
0.273499 0.293287 0.55928 1.28123e-38 3
0.282535 0.293287 0.55928 1.20747e-38 3
0.289504 0.291207 0.555314 1.19833e-38 3
0.298476 0.291207 0.555314 1.17982e-38 3
0.310755 0.294338 0.561285 1.2535e-38 3
0.319824 0.294338 0.561285 1.16127e-38 3
0.331267 0.296464 0.565337 1.05063e-38 3
0.341635 0.297538 0.567386 1.14287e-38 3
0.345791 0.293287 0.55928 1.27198e-38 3
0.352311 0.291207 0.555314 1.32719e-38 3
0.361283 0.291207 0.555314 1.2441e-38 3
0.361288 0.284154 0.541863 1.2441e-38 3
0.36375 0.279321 0.532648 1.27176e-38 3
0.368595 0.2765 0.527267 1.21644e-38 3
0.375848 0.275572 0.525498 1.25332e-38 3
0.397684 0.28514 0.543745 1.25332e-38 3
0.416595 0.292243 0.55729 1.31786e-38 3
0.42712 0.293287 0.55928 1.29942e-38 3
0.436156 0.293287 0.55928 1.29031e-38 3
0.445193 0.293287 0.55928 1.39172e-38 3
0.461617 0.292243 0.55729 1.15205e-38 3
0.464016 0.288142 0.549468 1.05067e-38 3
0.471241 0.287134 0.547547 1.08755e-38 3
0.480088 0.287134 0.547547 1.08751e-38 3
-0.465314 0.319436 0.590937 7.28201e-39 3
-0.447325 0.313521 0.579994 7.5586e-39 3
-0.436338 0.312364 0.577854 7.65079e-39 3
-0.422326 0.308944 0.571527 7.65187e-39 3
-0.410099 0.306705 0.567386 8.85006e-39 3
-0.398047 0.304499 0.563304 8.57275e-39 3
-0.375788 0.301248 0.55729 8.66602e-39 3
-0.316151 0.266197 0.492448 9.12772e-39 3
-0.308194 0.266197 0.492448 8.66674e-39 3
-0.302138 0.267882 0.495565 8.2976e-39 3
-0.28739 0.285019 0.527267 9.86313e-39 3
-0.277935 0.284063 0.525498 1.01386e-38 3
-0.267648 0.282169 0.521995 1.11524e-38 3
-0.259213 0.282169 0.521995 1.08758e-38 3
-0.250779 0.282169 0.521995 1.1429e-38 3
-0.24562 0.285982 0.529049 1.09677e-38 3
-0.208028 0.270449 0.500314 9.77093e-39 3
-0.201231 0.272189 0.503532 1.09688e-38 3
-0.193095 0.272189 0.503532 1.16152e-38 3
-0.186761 0.27484 0.508436 1.06007e-38 3
-0.178546 0.27484 0.508436 1.09695e-38 3
-0.170885 0.275735 0.510093 1.02319e-38 3
-0.164791 0.279375 0.516826 9.77093e-39 3
-0.158004 0.282169 0.521995 1.07851e-38 3
-0.147602 0.278456 0.515126 9.95568e-39 3
-0.140667 0.281231 0.520261 1.05089e-38 3
-0.132261 0.281231 0.520261 9.86457e-39 3
-0.122633 0.278456 0.515126 1.10624e-38 3
-0.11246 0.27395 0.506791 9.67945e-39 3
-0.103601 0.272189 0.503532 1.03263e-38 3
-0.0957735 0.273067 0.505156 1.17092e-38 3
-0.0867717 0.270449 0.500314 1.05107e-38 3
-0.0749122 0.286951 0.530842 1.11553e-38 3
-0.066788 0.28891 0.534466 1.25372e-38 3
-0.0581524 0.28891 0.534466 1.21687e-38 3
-0.0493484 0.287927 0.532648 1.10624e-38 3
-0.0404669 0.285982 0.529049 1.10627e-38 3
-0.032027 0.286951 0.530842 1.14322e-38 3
-0.02345 0.286951 0.530842 1.13397e-38 3
-0.0146251 0.282169 0.521995 1.06021e-38 3
-0.00599128 0.273067 0.505156 1.06021e-38 3
0.00214308 0.269588 0.498721 1.05103e-38 3
0.0101366 0.267882 0.495565 1.01412e-38 3
0.0182592 0.269588 0.498721 1.06936e-38 3
0.0263172 0.269588 0.498721 1.11539e-38 3
0.0344851 0.270449 0.500314 1.15216e-38 3
0.0428426 0.272189 0.503532 1.23524e-38 3
0.0511428 0.273067 0.505156 1.18e-38 3
0.0598844 0.275735 0.510093 1.18918e-38 3
0.0681261 0.275735 0.510093 1.12464e-38 3
0.0768687 0.277543 0.513437 1.24453e-38 3
0.0857267 0.279375 0.516826 1.33666e-38 3
0.0940772 0.279375 0.516826 1.27219e-38 3
0.105206 0.286951 0.530842 1.18936e-38 3
0.11417 0.287927 0.532648 1.21695e-38 3
0.122776 0.287927 0.532648 1.18918e-38 3
0.131382 0.287927 0.532648 1.24446e-38 3
0.140466 0.28891 0.534466 1.23513e-38 3
0.149102 0.28891 0.534466 1.41016e-38 3
0.157737 0.28891 0.534466 1.49292e-38 3
0.166942 0.289899 0.536296 1.55746e-38 3
0.178667 0.29495 0.545639 1.46526e-38 3
0.189464 0.298066 0.551403 1.59426e-38 3
0.19978 0.30018 0.555314 1.56653e-38 3
0.222985 0.320646 0.593176 1.62178e-38 3
0.237059 0.326836 0.604627 1.51118e-38 3
0.244937 0.324332 0.599994 1.40994e-38 3
0.256598 0.326836 0.604627 1.35477e-38 3
0.269488 0.330667 0.611713 1.41005e-38 3
0.268869 0.318235 0.588716 1.48381e-38 3
0.272526 0.301248 0.55729 1.27194e-38 3
0.280532 0.30018 0.555314 1.29038e-38 3
0.286457 0.29702 0.549468 1.23503e-38 3
0.294302 0.295981 0.547547 1.29956e-38 3
0.304213 0.29702 0.549468 1.21648e-38 3
0.311996 0.295981 0.547547 1.25336e-38 3
0.316417 0.291899 0.539995 1.28102e-38 3
0.325142 0.291899 0.539995 1.05989e-38 3
0.329325 0.287927 0.532648 1.05067e-38 3
0.33228 0.283112 0.523741 1.06904e-38 3
0.337357 0.2803 0.518538 1.17967e-38 3
0.340105 0.275735 0.510093 1.17045e-38 3
0.348347 0.275735 0.510093 1.20733e-38 3
0.360107 0.278456 0.515126 1.21655e-38 3
0.363646 0.27484 0.508436 1.22577e-38 3
0.371861 0.27484 0.508436 1.21655e-38 3
0.402279 0.290896 0.538139 1.26265e-38 3
0.422592 0.299119 0.553351 1.23499e-38 3
0.431533 0.299119 0.553351 1.34562e-38 3
0.438922 0.298066 0.551403 1.29953e-38 3
0.447832 0.298066 0.551403 1.26272e-38 3
0.455138 0.29702 0.549468 1.21659e-38 3
0.459183 0.293926 0.543745 9.7695e-39 3
0.461558 0.289899 0.536296 1.03223e-38 3
0.467024 0.287927 0.532648 1.06911e-38 3
-0.458394 0.324092 0.58215 6.82211e-39 3
-0.437601 0.315873 0.567386 8.02066e-39 3
-0.426887 0.314732 0.565337 7.28309e-39 3
-0.384226 0.302711 0.543745 8.11177e-39 3
-0.335227 0.276765 0.497138 6.63772e-39 3
-0.327195 0.276765 0.497138 8.94261e-39 3
-0.31516 0.273294 0.490904 1.0049e-38 3
-0.308194 0.274154 0.492448 8.20504e-39 3
-0.302138 0.275889 0.495565 8.48163e-39 3
-0.294131 0.275889 0.495565 9.40359e-39 3
-0.286124 0.275889 0.495565 8.02102e-39 3
-0.281683 0.279426 0.501918 8.38908e-39 3
-0.279852 0.285839 0.513437 8.94153e-39 3
-0.272449 0.286779 0.515126 9.40215e-39 3
-0.259852 0.282139 0.506791 9.2174e-39 3
-0.250852 0.281229 0.505156 9.30996e-39 3
-0.241909 0.280324 0.503532 1.11542e-38 3
-0.23154 0.277646 0.498721 1.08776e-38 3
-0.222068 0.275889 0.495565 1.08776e-38 3
-0.212047 0.273294 0.490904 1.03252e-38 3
-0.204116 0.273294 0.490904 1.06014e-38 3
-0.196184 0.273294 0.490904 1.11542e-38 3
-0.188252 0.273294 0.490904 1.16152e-38 3
-0.183192 0.277646 0.498721 1.07851e-38 3
-0.175134 0.277646 0.498721 1.0323e-38 3
-0.16761 0.278533 0.500314 1.01386e-38 3
-0.159526 0.278533 0.500314 1.04145e-38 3
-0.151442 0.278533 0.500314 1.10602e-38 3
-0.144746 0.281229 0.505156 1.11531e-38 3
-0.13747 0.283055 0.508436 1.09698e-38 3
-0.129255 0.283055 0.508436 1.00486e-38 3
-0.120649 0.282139 0.506791 1.03248e-38 3
-0.111737 0.280324 0.503532 1.03248e-38 3
-0.102939 0.278533 0.500314 1.16166e-38 3
-0.0945534 0.277646 0.498721 1.19858e-38 3
-0.0862208 0.276765 0.497138 1.11557e-38 3
-0.0779409 0.275889 0.495565 1.10631e-38 3
-0.0701559 0.276765 0.497138 1.15241e-38 3
-0.0579546 0.296534 0.532648 1.27208e-38 3
-0.0490149 0.29453 0.529049 1.14308e-38 3
-0.0399273 0.290603 0.521995 1.1523e-38 3
-0.0314932 0.290603 0.521995 1.24453e-38 3
-0.0227557 0.286779 0.515126 1.18921e-38 3
-0.00595288 0.279426 0.501918 1.09702e-38 3
0.00213628 0.276765 0.497138 1.11557e-38 3
0.0101046 0.275018 0.494001 1.07858e-38 3
0.0181436 0.275889 0.495565 1.2168e-38 3
0.0261506 0.275889 0.495565 1.27205e-38 3
0.0342661 0.276765 0.497138 1.29041e-38 3
0.0424333 0.277646 0.498721 1.1523e-38 3
0.0504913 0.277646 0.498721 1.27223e-38 3
0.0587364 0.278533 0.500314 1.22599e-38 3
0.0668202 0.278533 0.500314 1.23528e-38 3
0.074904 0.278533 0.500314 1.25364e-38 3
0.0829878 0.278533 0.500314 1.33669e-38 3
0.105924 0.297546 0.534466 1.27233e-38 3
0.113783 0.295528 0.530842 1.18014e-38 3
0.12236 0.295528 0.530842 1.22617e-38 3
0.131382 0.296534 0.532648 1.13397e-38 3
0.139988 0.296534 0.532648 1.29981e-38 3
0.148091 0.295528 0.530842 1.39179e-38 3
0.156138 0.29453 0.529049 1.37317e-38 3
0.164686 0.29453 0.529049 1.45611e-38 3
0.179292 0.304828 0.547547 1.44682e-38 3
0.246828 0.336606 0.604627 1.53898e-38 3
0.258594 0.339225 0.609332 1.41931e-38 3
0.269488 0.34055 0.611713 1.47448e-38 3
0.271559 0.309152 0.555314 1.40098e-38 3
0.275644 0.303766 0.545639 1.3825e-38 3
0.279589 0.298565 0.536296 1.44693e-38 3
0.288255 0.298565 0.536296 1.3731e-38 3
0.293166 0.278533 0.500314 1.36395e-38 3
0.299337 0.276765 0.497138 1.23499e-38 3
0.309334 0.278533 0.500314 1.26268e-38 3
0.317418 0.278533 0.500314 1.2074e-38 3
0.325501 0.278533 0.500314 1.15212e-38 3
0.333585 0.278533 0.500314 1.18896e-38 3
0.341669 0.278533 0.500314 1.21659e-38 3
0.352002 0.280324 0.503532 1.24424e-38 3
0.357836 0.278533 0.500314 1.20737e-38 3
0.364755 0.277646 0.498721 1.23506e-38 3
0.369285 0.275018 0.494001 1.2074e-38 3
0.416702 0.303766 0.545639 1.23503e-38 3
0.424041 0.302711 0.543745 1.27187e-38 3
0.426897 0.298565 0.536296 1.35484e-38 3
0.477925 0.309152 0.555314 1.07833e-38 3
