# .PCD v0.7 - Point Cloud Data file format
VERSION 0.7
FIELDS x y z rgb label
SIZE 4 4 4 4 4
TYPE F F F F U
COUNT 1 1 1 1 1
WIDTH 2386
HEIGHT 1
VIEWPOINT 0 0 0 1 0 0 0
POINTS 2386
DATA ascii
-0.986559 -0.787599 2.3727 1.74921e-39 1
-1.13183 -0.797601 2.52578 1.38187e-39 1
-1.05692 -0.772676 2.44685 1.47406e-39 1
-0.986559 -0.749262 2.3727 8.29412e-40 1
-0.986559 -0.710925 2.3727 2.21234e-39 1
-3.35324 -0.425095 4.74541 2.48714e-39 1
-0.121364 -0.246108 2.74734 3.22651e-39 1
-0.068555 -0.21919 2.44685 3.59529e-39 1
0.674688 -0.304959 3.40431 1.93468e-39 1
0.729692 -0.304959 3.40431 2.21163e-39 1
0.784697 -0.304959 3.40431 1.84321e-39 1
0.821836 -0.298471 3.33188 2.39638e-39 1
0.894707 -0.304959 3.40431 1.84285e-39 1
0.537838 -0.216942 2.95469 2.58077e-39 1
0.674688 -0.249955 3.40431 2.58041e-39 1
0.729692 -0.249955 3.40431 3.13358e-39 1
0.784697 -0.249955 3.40431 2.0276e-39 1
0.821836 -0.244636 3.33188 2.21199e-39 1
0.894707 -0.249955 3.40431 3.04211e-39 1
0.705355 -0.203811 3.55905 2.57969e-39 1
-2.46979 -0.121462 2.95469 2.48677e-39 3
-2.56813 -0.131377 3.19589 2.85771e-39 3
-2.56892 -0.134114 3.26247 2.85735e-39 3
-3.55229 -0.0405003 4.60584 3.22505e-39 3
-1.76275 0.0144152 1.95748 2.76658e-39 3
-1.57374 0.0131047 1.77953 2.95026e-39 3
-3.77431 0.036038 4.8937 2.85735e-39 3
-3.69524 0.036038 4.8937 3.04174e-39 3
-0.34523 0.0134095 1.82091 6.26859e-39 3
-0.377216 0.0160169 2.17498 6.36115e-39 3
-0.384833 0.018019 2.44685 7.00688e-39 3
-0.611527 0.036038 4.8937 8.11251e-39 3
-0.172944 0.0288304 3.91496 6.63668e-39 3
-2.07382 0.0541682 2.30292 3.22685e-39 3
-1.73112 0.046043 1.95748 3.59563e-39 3
-1.94227 0.0526206 2.23712 3.50272e-39 3
-3.93245 0.115107 4.8937 3.59635e-39 3
-3.85338 0.115107 4.8937 2.85806e-39 3
-3.77431 0.115107 4.8937 3.04246e-39 3
-3.69524 0.115107 4.8937 2.95026e-39 3
-3.61617 0.115107 4.8937 3.22685e-39 3
-3.5371 0.115107 4.8937 3.22721e-39 3
-3.0738 0.102318 4.34996 3.1343e-39 3
-2.84544 0.0969326 4.12101 3.68783e-39 3
-2.63991 0.092086 3.91496 3.41124e-39 3
-2.57666 0.092086 3.91496 3.50415e-39 3
-2.72238 0.102318 4.34996 3.68854e-39 3
-2.6521 0.102318 4.34996 4.42539e-39 3
-0.374651 0.0428307 1.82091 6.26823e-39 3
-0.322715 0.0400374 1.70216 6.0842e-39 3
-0.315809 0.0428307 1.82091 5.34699e-39 3
-0.373172 0.0558097 2.3727 5.99308e-39 3
-0.345298 0.0575537 2.44685 5.90089e-39 3
-0.315627 0.0594103 2.52578 6.26895e-39 3
-0.405682 0.0877009 3.72853 7.00688e-39 3
-0.068555 0.0575537 2.44685 7.19021e-39 3
-0.0281409 0.0558097 2.3727 6.72851e-39 3
0.009896 0.0541682 2.30292 8.48059e-39 3
0.0471052 0.0541682 2.30292 1.1984e-38 3
0.0855728 0.0549767 2.33729 1.65945e-38 3
0.129119 0.0575537 2.44685 1.41045e-38 3
0.168654 0.0575537 2.44685 1.23514e-38 3
0.251397 0.0694989 2.95469 9.67877e-39 3
0.344658 0.0800748 3.40431 8.48094e-39 3
0.427547 0.0856614 3.64182 7.37495e-39 3
0.49797 0.0877009 3.72853 6.08493e-39 3
0.558213 0.0877009 3.72853 5.53175e-39 3
0.618457 0.0877009 3.72853 5.07077e-39 3
0.6787 0.0877009 3.72853 4.14845e-39 3
0.816727 0.0969326 4.12101 3.78003e-39 3
0.932385 0.102318 4.34996 3.78041e-39 3
1.128 0.115107 4.8937 3.87188e-39 3
-2.20343 0.0970885 2.44685 3.22649e-39 3
-2.03661 0.0913774 2.30292 3.04174e-39 3
-1.9994 0.0913774 2.30292 3.8715e-39 3
-3.70636 0.172602 4.34996 3.77823e-39 3
-4.01152 0.194177 4.8937 3.59563e-39 3
-3.93245 0.194177 4.8937 3.7811e-39 3
-3.85338 0.194177 4.8937 3.59635e-39 3
-3.77431 0.194177 4.8937 4.1488e-39 3
-3.69524 0.194177 4.8937 4.14916e-39 3
-3.61617 0.194177 4.8937 3.68819e-39 3
-3.32904 0.182755 4.60584 4.05769e-39 3
-3.0738 0.172602 4.34996 4.05625e-39 3
-2.84544 0.163517 4.12101 4.05661e-39 3
-2.63991 0.155342 3.91496 3.68854e-39 3
-2.57666 0.155342 3.91496 3.87365e-39 3
-2.5134 0.155342 3.91496 3.68962e-39 3
-2.45015 0.155342 3.91496 3.31976e-39 3
-2.51252 0.163517 4.12101 4.241e-39 3
-0.331756 0.0517805 1.30499 5.07004e-39 3
-0.31067 0.0517805 1.30499 4.88637e-39 3
-0.289585 0.0517805 1.30499 4.70162e-39 3
-0.3222 0.0621366 1.56598 5.89873e-39 3
-0.322715 0.0675398 1.70216 6.26859e-39 3
-0.315809 0.0722519 1.82091 5.53174e-39 3
-0.397247 0.10022 2.52578 8.02138e-39 3
-0.356437 0.10022 2.52578 4.88673e-39 3
-0.315627 0.10022 2.52578 4.70198e-39 3
-0.327666 0.119494 3.01151 6.08492e-39 3
-0.0707665 0.10022 2.52578 8.11359e-39 3
-0.0281409 0.0941464 2.3727 8.02175e-39 3
0.0101959 0.0941464 2.3727 9.95715e-39 3
0.0516638 0.10022 2.52578 9.03627e-39 3
0.0924738 0.10022 2.52578 1.22621e-38 3
0.140061 0.105316 2.65421 9.12668e-39 3
0.1861 0.107132 2.69997 7.28276e-39 3
0.256232 0.119494 3.01151 6.36116e-39 3
0.352317 0.138081 3.47996 5.90126e-39 3
0.574516 0.194177 4.8937 5.62395e-39 3
0.653585 0.194177 4.8937 5.99273e-39 3
0.558213 0.147944 3.72853 6.17784e-39 3
0.811724 0.194177 4.8937 5.71578e-39 3
0.838394 0.182755 4.60584 7.46713e-39 3
0.912813 0.182755 4.60584 7.56041e-39 3
0.62159 0.115068 2.89997 1.14319e-38 3
0.668446 0.115068 2.89997 1.09706e-38 3
1.52335 0.194177 4.8937 3.50453e-39 3
-2.19289 0.14103 2.52578 3.22613e-39 3
-3.69524 0.273247 4.8937 4.70198e-39 3
-3.61617 0.273247 4.8937 4.05697e-39 3
-3.32904 0.257173 4.60584 4.24244e-39 3
-3.0738 0.242886 4.34996 3.87366e-39 3
-2.70317 0.218597 3.91496 4.42575e-39 3
-2.77886 0.230102 4.12101 4.1488e-39 3
-2.57666 0.218597 3.91496 4.42611e-39 3
-2.5134 0.218597 3.91496 4.33391e-39 3
-2.45015 0.218597 3.91496 4.14952e-39 3
-2.38689 0.218597 3.91496 4.51759e-39 3
-2.32363 0.218597 3.91496 4.60978e-39 3
-0.331756 0.0728657 1.30499 4.97856e-39 3
-0.305577 0.0716712 1.28359 6.08491e-39 3
-0.289585 0.0728657 1.30499 5.90089e-39 3
-0.2685 0.0728657 1.30499 7.74408e-39 3
-0.322715 0.0950423 1.70216 6.91468e-39 3
-0.480415 0.190085 3.40431 9.49651e-39 3
-0.326148 0.145731 2.60997 1.02352e-38 3
-0.29377 0.150757 2.69997 6.91611e-39 3
-0.157466 0.145731 2.60997 9.40432e-39 3
-0.101732 0.128587 2.30292 6.73173e-39 3
-0.0696432 0.138792 2.48569 8.20577e-39 3
-0.0273132 0.128587 2.30292 1.00497e-38 3
0.0108537 0.14103 2.52578 1.03274e-38 3
0.0561957 0.153402 2.74734 1.10649e-38 3
0.100586 0.153402 2.74734 9.77349e-39 3
0.15303 0.161924 2.89997 7.92849e-39 3
0.211644 0.171449 3.07056 1.17099e-38 3
0.277584 0.182164 3.26247 7.46894e-39 3
0.360324 0.198725 3.55905 6.73029e-39 3
0.574516 0.273247 4.8937 7.56005e-39 3
0.653585 0.273247 4.8937 7.10015e-39 3
0.732655 0.273247 4.8937 6.086e-39 3
0.811724 0.273247 4.8937 5.25552e-39 3
0.838394 0.257173 4.60584 6.91396e-39 3
0.912813 0.257173 4.60584 6.54625e-39 3
0.62159 0.161924 2.89997 6.1782e-39 3
0.656292 0.15898 2.84724 6.08492e-39 3
1.20707 0.273247 4.8937 5.90017e-39 3
1.28614 0.273247 4.8937 7.37495e-39 3
1.32384 0.264966 4.74541 9.03519e-39 3
1.44428 0.273247 4.8937 8.11431e-39 3
1.52335 0.273247 4.8937 5.62502e-39 3
1.60242 0.273247 4.8937 5.71506e-39 3
1.68149 0.273247 4.8937 5.16189e-39 3
1.73141 0.257173 4.60584 4.88674e-39 3
1.70551 0.242886 4.34996 3.13537e-39 3
1.77579 0.242886 4.34996 4.5183e-39 3
-3.61617 0.352316 4.8937 5.16296e-39 3
-2.97861 0.296687 4.12101 4.33464e-39 3
-2.76642 0.281853 3.91496 4.42683e-39 3
-2.70317 0.281853 3.91496 3.59563e-39 3
-2.63991 0.281853 3.91496 3.78002e-39 3
-2.57666 0.281853 3.91496 4.24172e-39 3
-2.5134 0.281853 3.91496 5.16367e-39 3
-2.33347 0.268431 3.72853 4.88709e-39 3
-2.1699 0.25623 3.55905 4.97928e-39 3
-2.02055 0.245089 3.40431 5.62393e-39 3
-1.96555 0.245089 3.40431 5.34771e-39 3
-2.7464 0.352316 4.8937 5.99272e-39 3
-0.613864 0.31317 4.34996 8.11358e-39 3
-0.349444 0.201323 2.7964 7.83807e-39 3
-0.304262 0.201323 2.7964 6.91611e-39 3
-0.165754 0.197791 2.74734 9.31212e-39 3
-0.109806 0.178954 2.48569 8.29797e-39 3
-0.0783486 0.201323 2.7964 9.86565e-39 3
-0.033166 0.201323 2.7964 9.58871e-39 3
0.0122351 0.204984 2.84724 9.40504e-39 3
0.0615991 0.21681 3.01151 1.00508e-38 3
0.110257 0.21681 3.01151 8.39091e-39 3
0.172158 0.234877 3.26247 1.051e-38 3
0.229656 0.239875 3.33188 9.31285e-39 3
0.289653 0.245089 3.40431 8.39089e-39 3
0.344658 0.245089 3.40431 1.02341e-38 3
0.38301 0.234877 3.26247 8.75895e-39 3
0.653585 0.352316 4.8937 7.2849e-39 3
0.732655 0.352316 4.8937 7.46893e-39 3
0.811724 0.352316 4.8937 6.36259e-39 3
0.390485 0.15444 2.14518 7.65224e-39 3
0.425146 0.15444 2.14518 7.46856e-39 3
0.493615 0.165796 2.30292 6.91576e-39 3
0.564001 0.176158 2.44685 7.28382e-39 3
0.643772 0.187902 2.60997 6.54554e-39 3
1.0553 0.28908 4.01534 6.54554e-39 3
1.24819 0.322118 4.47424 7.74444e-39 3
1.40051 0.34164 4.74541 6.45478e-39 3
1.43374 0.331592 4.60584 7.56113e-39 3
1.50816 0.331592 4.60584 9.86422e-39 3
1.58258 0.331592 4.60584 9.58799e-39 3
-3.21437 0.383454 4.34996 4.70198e-39 3
-2.82968 0.345108 3.91496 4.42611e-39 3
-2.76642 0.345108 3.91496 3.68854e-39 3
-2.70317 0.345108 3.91496 4.51759e-39 3
-2.77886 0.363272 4.12101 4.60942e-39 3
-2.57666 0.345108 3.91496 4.6105e-39 3
-2.39372 0.328675 3.72853 4.88709e-39 3
-2.13056 0.300094 3.40431 5.34807e-39 3
-2.07556 0.300094 3.40431 5.80904e-39 3
-1.78741 0.265468 3.01151 6.36222e-39 3
-1.61456 0.246506 2.7964 4.98e-39 3
-1.56937 0.246506 2.7964 5.25587e-39 3
-2.66734 0.431386 4.8937 5.90124e-39 3
-2.58827 0.431386 4.8937 5.71613e-39 3
-0.848736 0.431386 4.8937 9.22028e-39 3
-0.769666 0.431386 4.8937 9.22028e-39 3
-0.631403 0.39441 4.47424 7.92919e-39 3
-0.559111 0.39441 4.47424 8.57563e-39 3
-0.425966 0.345108 3.91496 8.8515e-39 3
-0.362711 0.345108 3.91496 8.20613e-39 3
-0.285195 0.328675 3.72853 8.48272e-39 3
-0.178264 0.260459 2.95469 7.28346e-39 3
-0.150386 0.300094 3.40431 8.20613e-39 3
-0.0997164 0.313735 3.55905 1.41988e-38 3
-0.0386937 0.28759 3.26247 9.40432e-39 3
0.0160221 0.328675 3.72853 9.40397e-39 3
0.0744919 0.321031 3.64182 1.03266e-38 3
0.139838 0.336691 3.81947 8.29871e-39 3
0.196752 0.328675 3.72853 8.75968e-39 3
0.239863 0.306763 3.47996 8.39124e-39 3
0.29609 0.306763 3.47996 7.74587e-39 3
0.360324 0.313735 3.55905 6.63845e-39 3
0.375194 0.281721 3.19589 7.28417e-39 3
0.653585 0.431386 4.8937 7.5604e-39 3
0.732655 0.431386 4.8937 7.10051e-39 3
0.811724 0.431386 4.8937 7.37674e-39 3
0.395908 0.191727 2.17498 8.11358e-39 3
0.43105 0.191727 2.17498 7.65368e-39 3
0.508574 0.209157 2.3727 6.63917e-39 3
0.591739 0.226301 2.56719 7.74515e-39 3
0.654683 0.233972 2.65421 8.57455e-39 3
0.935376 0.313735 3.55905 7.55969e-39 3
1.04016 0.328675 3.72853 7.37602e-39 3
1.15542 0.345108 3.91496 7.00831e-39 3
1.35409 0.383454 4.34996 7.1927e-39 3
1.42437 0.383454 4.34996 7.00687e-39 3
1.49466 0.383454 4.34996 7.09943e-39 3
-3.47787 0.480428 4.60584 4.70162e-39 3
-3.40345 0.480428 4.60584 5.25443e-39 3
-2.97861 0.429857 4.12101 4.51759e-39 3
-2.91203 0.429857 4.12101 5.34806e-39 3
-2.84544 0.429857 4.12101 6.54553e-39 3
-2.77886 0.429857 4.12101 6.26894e-39 3
-2.71227 0.429857 4.12101 6.3615e-39 3
-2.18557 0.355099 3.40431 5.34807e-39 3
-2.13056 0.355099 3.40431 6.6388e-39 3
-1.98908 0.340303 3.26247 6.45513e-39 3
-1.78741 0.314126 3.01151 5.62573e-39 3
-1.61456 0.291689 2.7964 5.71792e-39 3
-1.56937 0.291689 2.7964 5.81012e-39 3
-0.474013 0.163346 1.56598 8.02174e-39 3
-0.761276 0.418835 4.01534 9.40467e-39 3
-0.714725 0.429857 4.12101 8.7593e-39 3
-0.684148 0.453738 4.34996 8.94369e-39 3
-0.597273 0.441475 4.23239 8.85114e-39 3
-0.51497 0.429857 4.12101 9.03625e-39 3
-0.405682 0.388918 3.72853 9.03589e-39 3
-0.362711 0.408364 3.91496 8.48272e-39 3
-0.285195 0.388918 3.72853 8.94369e-39 3
-0.205391 0.355099 3.40431 8.57347e-39 3
-0.164708 0.388918 3.72853 8.85078e-39 3
-0.107013 0.398404 3.81947 9.31176e-39 3
-0.0452999 0.398404 3.81947 9.31213e-39 3
0.0181872 0.441475 4.23239 9.4958e-39 3
0.0865717 0.441475 4.23239 9.3125e-39 3
0.217463 0.429857 4.12101 9.22137e-39 3
0.276765 0.418835 4.01534 9.68199e-39 3
0.540721 0.480428 4.60584 1.04185e-38 3
0.615139 0.480428 4.60584 9.77381e-39 3
0.355227 0.247493 2.3727 8.57564e-39 3
0.390485 0.223761 2.14518 7.56149e-39 3
0.437122 0.230064 2.20561 8.66819e-39 3
0.541385 0.263461 2.52578 8.39161e-39 3
0.601601 0.272243 2.60997 1.01433e-38 3
0.665971 0.28163 2.69997 7.65295e-39 3
0.839929 0.333358 3.19589 7.74444e-39 3
1.14965 0.429857 4.12101 7.46821e-39 3
1.1004 0.388918 3.72853 6.73172e-39 3
1.16065 0.388918 3.72853 7.1927e-39 3
1.22089 0.388918 3.72853 6.91575e-39 3
1.49466 0.453738 4.34996 7.28418e-39 3
-2.71227 0.496442 4.12101 5.80904e-39 3
-2.18557 0.410104 3.40431 5.62465e-39 3
-2.13056 0.410104 3.40431 6.54661e-39 3
-1.90951 0.377296 3.13197 6.54661e-39 3
-1.78741 0.362784 3.01151 6.45441e-39 3
-1.73875 0.362784 3.01151 6.1771e-39 3
-0.558104 0.200689 1.66594 7.83663e-39 3
-0.520121 0.196508 1.63123 1.01422e-38 3
-0.464719 0.184949 1.53528 9.68126e-39 3
-0.439913 0.184949 1.53528 9.03517e-39 3
-0.441051 0.196508 1.63123 8.94226e-39 3
-0.78131 0.496442 4.12101 7.28345e-39 3
-0.581555 0.496442 4.12101 1.02344e-38 3
-0.465926 0.449162 3.72853 9.40467e-39 3
-0.396248 0.438716 3.64182 9.22028e-39 3
-0.337405 0.438716 3.64182 9.77346e-39 3
-0.278563 0.438716 3.64182 9.49615e-39 3
-0.209955 0.419218 3.47996 1.00486e-38 3
-0.160878 0.438716 3.64182 9.77202e-39 3
-0.112501 0.483713 4.01534 1.15241e-38 3
-0.047623 0.483713 4.01534 1.07873e-38 3
0.321164 0.258422 2.14518 8.39196e-39 3
0.33734 0.244997 2.03375 8.76075e-39 3
0.601601 0.314413 2.60997 9.95749e-39 3
0.654683 0.319742 2.65421 1.18018e-38 3
0.791472 0.362784 3.01151 8.94298e-39 3
0.809014 0.349348 2.89997 7.1005e-39 3
0.796844 0.325255 2.69997 7.74587e-39 3
0.786245 0.304271 2.52578 9.12808e-39 3
0.80121 0.294762 2.44685 9.12773e-39 3
-2.24057 0.465109 3.40431 6.91539e-39 3
-2.01072 0.4279 3.13197 6.731e-39 3
-1.96012 0.4279 3.13197 6.54661e-39 3
-1.90951 0.4279 3.13197 7.00759e-39 3
-0.611939 0.227607 1.66594 8.3898e-39 3
-0.585021 0.227607 1.66594 8.29689e-39 3
-0.558104 0.227607 1.66594 8.20541e-39 3
-0.531187 0.227607 1.66594 8.39052e-39 3
-0.493764 0.222865 1.63123 7.56076e-39 3
-0.467407 0.222865 1.63123 9.77346e-39 3
-0.441051 0.222865 1.63123 8.3898e-39 3
-0.423518 0.227607 1.66594 6.82319e-39 3
-0.396601 0.227607 1.66594 1.03284e-38 3
-0.369683 0.227607 1.66594 1.45716e-38 3
-0.335625 0.222865 1.63123 1.34634e-38 3
-0.302957 0.218316 1.59794 3.96548e-39 3
-0.271595 0.21395 1.56598 7.65403e-39 3
-0.376324 0.411443 3.01151 1.005e-38 3
-0.31553 0.396204 2.89997 9.95784e-39 3
-0.268674 0.396204 2.89997 1.02344e-38 3
-0.272232 0.48625 3.55905 9.86493e-39 3
-0.205391 0.465109 3.40431 1.11553e-38 3
-0.160878 0.497558 3.64182 9.21956e-39 3
0.356731 0.24592 1.79998 1.00508e-38 3
0.576512 0.319329 2.33729 1.09731e-38 3
0.791472 0.411443 3.01151 9.6809e-39 3
0.728113 0.356584 2.60997 9.86637e-39 3
0.394442 0.164577 1.2046 9.68198e-39 3
-1.7501 0.427236 2.7964 7.46856e-39 3
-0.638856 0.254524 1.66594 8.57491e-39 3
-0.611939 0.254524 1.66594 7.83663e-39 3
-0.585021 0.254524 1.66594 9.127e-39 3
-0.558104 0.254524 1.66594 9.12736e-39 3
-0.542734 0.260057 1.70216 7.83734e-39 3
-0.441051 0.249221 1.63123 8.2994e-39 3
-0.423518 0.254524 1.66594 1.08798e-38 3
-0.388338 0.249221 1.63123 9.31427e-39 3
-0.361981 0.249221 1.63123 1.40184e-38 3
-0.328775 0.244135 1.59794 1.54921e-38 3
-0.291076 0.234561 1.53528 1.39233e-38 3
-0.263685 0.232284 1.52037 1.14351e-38 3
-0.23682 0.23005 1.50575 1.06972e-38 3
-0.225501 0.244135 1.59794 1.04195e-38 3
-0.212705 0.260057 1.70216 1.02344e-38 3
-0.243409 0.341789 2.23712 1.03266e-38 3
-0.226694 0.373832 2.44685 9.22028e-39 3
-0.206521 0.412504 2.69997 1.04181e-38 3
-0.162896 0.412504 2.69997 9.40395e-39 3
0.352678 0.271878 1.77953 9.95857e-39 3
0.372954 0.265836 1.73998 1.11571e-38 3
0.449143 0.2782 1.82091 1.08812e-38 3
0.442543 0.257261 1.68385 1.12493e-38 3
0.45507 0.249221 1.63123 1.08812e-38 3
0.481427 0.249221 1.63123 1.02359e-38 3
0.658746 0.323314 2.11619 9.95892e-39 3
0.406964 0.189883 1.24284 1.07887e-38 3
0.413905 0.18404 1.2046 9.40611e-39 3
0.44014 0.186916 1.22343 9.77489e-39 3
0.637983 0.192945 1.26289 9.03696e-39 3
0.680334 0.199377 1.30499 8.94297e-39 3
0.689921 0.196109 1.28359 8.94513e-39 3
0.976181 0.254524 1.66594 8.2072e-39 3
1.0031 0.254524 1.66594 6.91718e-39 3
0.701605 0.173371 1.13477 7.93098e-39 3
0.628808 0.151426 0.991129 7.65368e-39 3
0.644822 0.151426 0.991129 7.56148e-39 3
-0.651903 0.275578 1.63123 8.94333e-39 3
-0.625547 0.275578 1.63123 1.05103e-38 3
-0.611939 0.281441 1.66594 1.09709e-38 3
-0.585021 0.281441 1.66594 1.11553e-38 3
-0.558104 0.281441 1.66594 1.12482e-38 3
-0.531187 0.281441 1.66594 1.005e-38 3
-0.493764 0.275578 1.63123 1.03263e-38 3
-0.365008 0.228064 1.34999 1.01437e-38 3
-0.372062 0.247247 1.46354 1.06032e-38 3
-0.355052 0.251957 1.49141 1.03281e-38 3
-0.344062 0.261935 1.55048 9.86851e-39 3
-0.31901 0.261935 1.55048 1.12514e-38 3
-0.28825 0.256849 1.52037 1.39237e-38 3
-0.261149 0.254379 1.50575 1.09741e-38 3
-0.232352 0.24958 1.47734 1.16192e-38 3
-0.204621 0.244958 1.44999 1.13419e-38 3
-0.199682 0.269954 1.59794 1.23556e-38 3
-0.181262 0.281441 1.66594 1.15252e-38 3
-0.168703 0.307622 1.82091 1.05107e-38 3
-0.153567 0.339173 2.00767 1.13401e-38 3
-0.121128 0.339173 2.00767 1.14323e-38 3
-0.0960798 0.367437 2.17498 1.13408e-38 3
0.411565 0.264555 1.56598 1.04195e-38 3
0.424143 0.256849 1.52037 1.08805e-38 3
0.481427 0.275578 1.63123 1.04195e-38 3
0.399567 0.216848 1.28359 1.09731e-38 3
0.400605 0.206683 1.22343 1.11578e-38 3
0.413905 0.203504 1.2046 1.13426e-38 3
0.433368 0.203504 1.2046 1.09734e-38 3
0.44597 0.20042 1.18635 1.09745e-38 3
0.465139 0.20042 1.18635 1.11571e-38 3
0.530685 0.203504 1.2046 1.04199e-38 3
0.503657 0.186306 1.10281 9.95856e-39 3
0.597173 0.213351 1.26289 9.86601e-39 3
0.617578 0.213351 1.26289 1.04199e-38 3
0.603892 0.20195 1.19541 1.01437e-38 3
0.680334 0.220462 1.30499 1.08805e-38 3
0.70142 0.220462 1.30499 1.03277e-38 3
0.81793 0.24958 1.47734 9.40683e-39 3
0.919905 0.272737 1.61442 9.13096e-39 3
0.955844 0.275578 1.63123 8.29976e-39 3
1.0031 0.281441 1.66594 8.11573e-39 3
0.701605 0.191706 1.13477 6.45657e-39 3
0.628808 0.16744 0.991129 6.45585e-39 3
0.644822 0.16744 0.991129 6.45549e-39 3
0.686922 0.174049 1.03025 7.74623e-39 3
1.13768 0.281441 1.66594 7.56148e-39 3
1.15234 0.278479 1.6484 8.48379e-39 3
1.15467 0.272737 1.61442 8.76002e-39 3
1.1569 0.267227 1.5818 8.48415e-39 3
-0.67826 0.301934 1.63123 1.04181e-38 3
-0.651903 0.301934 1.63123 1.06032e-38 3
-0.625547 0.301934 1.63123 1.08791e-38 3
-0.611939 0.308358 1.66594 1.15241e-38 3
-0.585021 0.308358 1.66594 1.06021e-38 3
-0.546477 0.301934 1.63123 1.18018e-38 3
-0.509506 0.295772 1.59794 1.26315e-38 3
-0.483687 0.295772 1.59794 1.09716e-38 3
-0.467407 0.301934 1.63123 1.26312e-38 3
-0.358821 0.245641 1.32711 1.16184e-38 3
-0.361915 0.263506 1.42362 1.16166e-38 3
-0.348415 0.270894 1.46354 1.13411e-38 3
-0.334137 0.278709 1.50575 1.16188e-38 3
-0.312816 0.281414 1.52037 1.18943e-38 3
-0.285479 0.278709 1.50575 1.32772e-38 3
-0.256222 0.27345 1.47734 1.26319e-38 3
-0.228049 0.268386 1.44999 1.18018e-38 3
-0.199091 0.261132 1.4108 1.1801e-38 3
-0.174722 0.258801 1.3982 1.10635e-38 3
-0.173864 0.295772 1.59794 1.13404e-38 3
-0.1577 0.315062 1.70216 1.13408e-38 3
-0.142598 0.345068 1.86427 1.15248e-38 3
-0.112476 0.345068 1.86427 1.12486e-38 3
-0.0886891 0.371611 2.00767 1.15259e-38 3
0.415722 0.292785 1.5818 1.18932e-38 3
0.420065 0.278709 1.50575 1.15252e-38 3
0.372718 0.233756 1.26289 1.22635e-38 3
0.393123 0.233756 1.26289 1.08812e-38 3
0.394442 0.222967 1.2046 1.12497e-38 3
0.413905 0.222967 1.2046 1.00515e-38 3
0.433368 0.222967 1.2046 8.57635e-39 3
0.449375 0.221265 1.19541 8.39304e-39 3
0.465139 0.219589 1.18635 9.22136e-39 3
0.484307 0.219589 1.18635 1.09731e-38 3
0.507319 0.221265 1.19541 1.14341e-38 3
0.518714 0.217938 1.17743 1.12497e-38 3
0.503657 0.204125 1.10281 1.10653e-38 3
0.521475 0.204125 1.10281 1.11575e-38 3
0.558976 0.211574 1.14305 1.06965e-38 3
0.577445 0.211574 1.14305 1.07887e-38 3
0.595913 0.211574 1.14305 1.02355e-38 3
0.614382 0.211574 1.14305 1.09731e-38 3
0.753918 0.252049 1.36173 9.95928e-39 3
0.803881 0.261132 1.4108 1.15266e-38 3
0.908525 0.286987 1.55048 9.86673e-39 3
0.982201 0.301934 1.63123 1.04206e-38 3
1.05241 0.315062 1.70216 1.06983e-38 3
0.689942 0.20129 1.08749 9.77489e-39 3
0.670276 0.190695 1.03025 8.11537e-39 3
0.745801 0.207041 1.11856 8.11465e-39 3
0.81017 0.219589 1.18635 7.28489e-39 3
1.14034 0.301934 1.63123 7.65296e-39 3
1.12561 0.278709 1.50575 7.56183e-39 3
1.14994 0.278709 1.50575 8.76038e-39 3
1.44896 0.289857 1.56598 8.02246e-39 3
1.06451 0.195849 1.0581 5.1644e-39 3
1.11165 0.20129 1.08749 5.62537e-39 3
-0.685883 0.29732 1.47734 1.15245e-38 3
-0.704616 0.328291 1.63123 1.05103e-38 3
-0.67826 0.328291 1.63123 1.15244e-38 3
-0.625827 0.315159 1.56598 1.06954e-38 3
-0.625547 0.328291 1.63123 1.06025e-38 3
-0.59919 0.328291 1.63123 1.00504e-38 3
-0.572834 0.328291 1.63123 9.40467e-39 3
-0.430015 0.258327 1.28359 1.02341e-38 3
-0.399453 0.252127 1.25279 1.15255e-38 3
-0.379211 0.252127 1.25279 1.28148e-38 3
-0.361864 0.254161 1.26289 1.21695e-38 3
-0.344235 0.256227 1.27316 1.12479e-38 3
-0.334543 0.26484 1.31595 1.18922e-38 3
-0.318636 0.269367 1.33845 1.32751e-38 3
-0.304826 0.276455 1.37367 1.05099e-38 3
-0.301121 0.294541 1.46354 1.39201e-38 3
-0.277474 0.294541 1.46354 1.2629e-38 3
-0.251477 0.291814 1.44999 1.38283e-38 3
-0.217959 0.278902 1.38583 1.36442e-38 3
-0.195567 0.278902 1.38583 1.29956e-38 3
-0.170164 0.274051 1.36173 1.3641e-38 3
-0.170386 0.315159 1.56598 1.31822e-38 3
-0.154345 0.335276 1.66594 1.21698e-38 3
-0.121128 0.40405 2.00767 1.24471e-38 3
-0.0786108 0.358135 1.77953 1.41059e-38 3
-0.0476905 0.342564 1.70216 1.33669e-38 3
-0.020188 0.342564 1.70216 1.38283e-38 3
0.170038 0.256227 1.27316 1.37371e-38 3
0.189072 0.254161 1.26289 1.35535e-38 3
0.40749 0.312039 1.55048 1.2723e-38 3
0.370227 0.267084 1.32711 1.17088e-38 3
0.372718 0.254161 1.26289 1.16174e-38 3
0.380838 0.246218 1.22343 9.86637e-39 3
0.385545 0.236962 1.17743 9.86673e-39 3
0.404569 0.236962 1.17743 1.125e-38 3
0.43006 0.24058 1.19541 1.20798e-38 3
0.44597 0.238757 1.18635 1.25418e-38 3
0.465139 0.238757 1.18635 1.12515e-38 3
0.484307 0.238757 1.18635 1.07894e-38 3
0.503476 0.238757 1.18635 9.49866e-39 3
0.518714 0.236962 1.17743 1.18028e-38 3
0.510852 0.225114 1.11856 1.04199e-38 3
0.528925 0.225114 1.11856 1.11575e-38 3
0.558976 0.230043 1.14305 1.03277e-38 3
0.577445 0.230043 1.14305 1.06039e-38 3
0.591595 0.228376 1.13477 1.06043e-38 3
0.60993 0.228376 1.13477 1.12497e-38 3
0.753918 0.274051 1.36173 1.16188e-38 3
0.789653 0.278902 1.38583 1.18028e-38 3
0.882318 0.303038 1.50575 1.08798e-38 3
1.0249 0.342564 1.70216 1.10653e-38 3
1.22559 0.398936 1.98226 1.08816e-38 3
1.25762 0.398936 1.98226 9.6827e-39 3
0.738275 0.228376 1.13477 1.00508e-38 3
0.779195 0.235193 1.16864 9.95857e-39 3
0.81017 0.238757 1.18635 9.77346e-39 3
1.12858 0.324906 1.61442 8.20613e-39 3
0.875022 0.246218 1.22343 8.8515e-39 3
0.923654 0.254161 1.26289 7.37637e-39 3
0.944059 0.254161 1.26289 7.10086e-39 3
1.03994 0.274051 1.36173 7.83807e-39 3
1.06195 0.274051 1.36173 7.6544e-39 3
1.00527 0.254161 1.26289 7.28561e-39 3
0.853585 0.211516 1.051 7.5622e-39 3
1.44896 0.315159 1.56598 7.1927e-39 3
1.13983 0.231735 1.15146 6.73065e-39 3
1.15843 0.231735 1.15146 6.91612e-39 3
1.2506 0.246218 1.22343 7.10051e-39 3
1.29053 0.250126 1.24284 6.17855e-39 3
1.33175 0.254161 1.26289 6.45513e-39 3
1.55248 0.291814 1.44999 5.16439e-39 3
1.70198 0.315159 1.56598 4.98001e-39 3
1.75258 0.315159 1.56598 5.71649e-39 3
1.81417 0.321591 1.59794 5.5321e-39 3
1.83999 0.321591 1.59794 5.07041e-39 3
1.86581 0.321591 1.59794 4.42575e-39 3
1.89163 0.321591 1.59794 4.88673e-39 3
2.53908 0.414683 2.06051 4.97856e-39 3
-0.637575 0.288527 1.32711 1.01422e-38 3
-0.595931 0.279067 1.28359 1.11557e-38 3
-0.626548 0.303983 1.3982 1.11557e-38 3
-0.603957 0.303983 1.3982 1.14323e-38 3
-0.638362 0.333786 1.53528 9.95784e-39 3
-0.579469 0.315242 1.44999 1.0511e-38 3
-0.600525 0.340461 1.56598 9.40467e-39 3
-0.575222 0.340461 1.56598 1.05117e-38 3
-0.54992 0.340461 1.56598 1.06965e-38 3
-0.423079 0.274566 1.26289 1.14323e-38 3
-0.384089 0.261893 1.2046 1.01415e-38 3
-0.370323 0.265985 1.22343 1.06021e-38 3
-0.35612 0.270207 1.24284 1.18918e-38 3
-0.344235 0.276798 1.27316 1.13386e-38 3
-0.361915 0.30951 1.42362 1.26286e-38 3
-0.318636 0.290993 1.33845 1.2168e-38 3
-0.304826 0.29865 1.37367 1.31822e-38 3
-0.295596 0.31235 1.43668 1.36414e-38 3
-0.269907 0.30951 1.42362 1.56689e-38 3
-0.23617 0.296053 1.36173 1.42871e-38 3
-0.208723 0.288527 1.32711 1.31818e-38 3
-0.18728 0.288527 1.32711 1.82486e-38 3
-0.164444 0.286102 1.31595 1.87082e-38 3
-0.148162 0.296053 1.36173 1.48385e-38 3
-0.148045 0.34741 1.59794 1.33669e-38 3
-0.102695 0.370067 1.70216 1.51194e-38 3
-0.0364092 0.17919 0.824202 1.60399e-38 3
-0.0233379 0.181096 0.83297 1.64072e-38 3
-0.0112563 0.20634 0.949081 1.74207e-38 3
0.0058011 0.293501 1.34999 1.32747e-38 3
0.0266929 0.283718 1.30499 1.3829e-38 3
0.131027 0.281373 1.2942 1.41034e-38 3
0.150693 0.279067 1.28359 1.47491e-38 3
0.16599 0.270207 1.24284 1.17096e-38 3
0.184606 0.26808 1.23306 1.09716e-38 3
0.195302 0.255986 1.17743 1.07869e-38 3
0.212727 0.254076 1.16864 1.03259e-38 3
0.214858 0.202656 0.932133 1.53012e-38 3
0.235526 0.207598 0.954868 1.41045e-38 3
0.395736 0.327367 1.50575 1.43822e-38 3
0.312048 0.243187 1.11856 1.32762e-38 3
0.330121 0.243187 1.11856 1.1894e-38 3
0.353241 0.246711 1.13477 1.27248e-38 3
0.371576 0.246711 1.13477 1.24478e-38 3
0.398575 0.252194 1.15999 1.2172e-38 3
0.423593 0.255986 1.17743 1.23564e-38 3
0.442617 0.255986 1.17743 1.18968e-38 3
0.461642 0.255986 1.17743 1.18972e-38 3
0.480666 0.255986 1.17743 1.19887e-38 3
0.503476 0.257925 1.18635 1.11582e-38 3
0.514843 0.254076 1.16864 1.14341e-38 3
0.510852 0.243187 1.11856 1.10653e-38 3
0.528925 0.243187 1.11856 1.10653e-38 3
0.558976 0.248512 1.14305 1.13415e-38 3
0.577445 0.248512 1.14305 1.04195e-38 3
0.591595 0.246711 1.13477 1.14337e-38 3
0.605542 0.244936 1.12661 1.04199e-38 3
0.741031 0.290993 1.33845 1.19861e-38 3
0.756193 0.288527 1.32711 1.18943e-38 3
0.740008 0.274566 1.26289 1.13401e-38 3
0.748343 0.270207 1.24284 1.21705e-38 3
1.21027 0.425577 1.95748 1.0144e-38 3
1.21161 0.415197 1.90974 9.77489e-39 3
0.771833 0.257925 1.18635 1.05117e-38 3
0.791001 0.257925 1.18635 1.12489e-38 3
0.822634 0.261893 1.2046 1.005e-38 3
1.10578 0.3439 1.5818 1.03259e-38 3
0.875022 0.265985 1.22343 9.12737e-39 3
0.894789 0.265985 1.22343 9.40467e-39 3
0.900487 0.261893 1.2046 1.01422e-38 3
0.949155 0.270207 1.24284 8.94369e-39 3
0.92518 0.257925 1.18635 9.58979e-39 3
0.923363 0.252194 1.15999 7.46929e-39 3
0.847894 0.226974 1.04399 8.20577e-39 3
0.897419 0.222524 1.02352 8.48344e-39 3
0.913956 0.222524 1.02352 8.20686e-39 3
1.16693 0.279067 1.28359 8.11502e-39 3
1.18767 0.279067 1.28359 8.11502e-39 3
1.20841 0.279067 1.28359 7.83807e-39 3
1.15684 0.254076 1.16864 7.37602e-39 3
1.23083 0.265985 1.22343 7.46893e-39 3
1.2506 0.265985 1.22343 7.10051e-39 3
1.31135 0.274566 1.26289 7.7448e-39 3
1.33175 0.274566 1.26289 7.00759e-39 3
1.44541 0.293501 1.34999 7.00759e-39 3
1.66861 0.333786 1.53528 6.63845e-39 3
1.76253 0.34741 1.59794 5.1644e-39 3
1.78835 0.34741 1.59794 5.0722e-39 3
1.81417 0.34741 1.59794 4.88673e-39 3
1.83999 0.34741 1.59794 4.88673e-39 3
1.86581 0.34741 1.59794 4.42683e-39 3
1.93103 0.354647 1.63123 4.05805e-39 3
1.95739 0.354647 1.63123 4.33356e-39 3
2.07 0.370067 1.70216 5.07148e-39 3
2.53908 0.447975 2.06051 4.97856e-39 3
2.71528 0.472863 2.17498 4.60978e-39 3
-0.606724 0.294971 1.26289 9.86673e-39 3
-0.577013 0.290289 1.24284 1.005e-38 3
-0.556931 0.290289 1.24284 1.07869e-38 3
-0.520332 0.281357 1.2046 1.06947e-38 3
-0.455335 0.255779 1.09509 1.19861e-38 3
-0.437641 0.255779 1.09509 1.24471e-38 3
-0.425904 0.259407 1.11063 1.18932e-38 3
-0.416828 0.265046 1.13477 1.25393e-38 3
-0.528769 0.351696 1.50575 1.27237e-38 3
-0.385749 0.268944 1.15146 1.23542e-38 3
-0.361823 0.265046 1.13477 1.32747e-38 3
-0.359101 0.277094 1.18635 1.36428e-38 3
-0.367796 0.299806 1.28359 1.42878e-38 3
-0.378044 0.326575 1.3982 1.34577e-38 3
-0.390301 0.358592 1.53528 1.54845e-38 3
-0.365495 0.358592 1.53528 1.44693e-38 3
-0.340688 0.358592 1.53528 1.43768e-38 3
-0.309808 0.351696 1.50575 1.55764e-38 3
-0.274905 0.33867 1.44999 1.34562e-38 3
-0.224459 0.302284 1.2942 1.42871e-38 3
-0.203548 0.302284 1.2942 1.46559e-38 3
-0.182637 0.302284 1.2942 1.64958e-38 3
-0.161726 0.302284 1.2942 1.80599e-38 3
-0.137408 0.294971 1.26289 1.54813e-38 3
-0.0954501 0.240634 1.03025 1.53009e-38 3
-0.0748637 0.228602 0.97874 1.53941e-38 3
-0.0565747 0.21902 0.937715 1.47502e-38 3
-0.0411771 0.217716 0.932133 1.63129e-38 3
-0.0261162 0.217716 0.932133 2.0457e-38 3
-0.0112563 0.221675 0.949081 1.78791e-38 3
0.00407835 0.221675 0.949081 1.42885e-38 3
0.0266929 0.304803 1.30499 1.26308e-38 3
0.0473833 0.302284 1.2942 1.21712e-38 3
0.110116 0.302284 1.2942 1.45683e-38 3
0.131027 0.302284 1.2942 1.42907e-38 3
0.150693 0.299806 1.28359 1.10631e-38 3
0.16599 0.290289 1.24284 1.29999e-38 3
0.181744 0.283538 1.21394 1.29077e-38 3
0.195302 0.27501 1.17743 1.32776e-38 3
0.208069 0.266981 1.14305 1.28166e-38 3
0.204182 0.240634 1.03025 1.43832e-38 3
0.216554 0.235977 1.01031 1.41056e-38 3
0.214858 0.217716 0.932133 1.31825e-38 3
0.229918 0.217716 0.932133 1.41974e-38 3
0.250954 0.223027 0.954868 1.45669e-38 3
0.291245 0.243842 1.04399 1.2262e-38 3
0.325472 0.25758 1.10281 1.30003e-38 3
0.34089 0.255779 1.09509 1.503e-38 3
0.358583 0.255779 1.09509 1.26322e-38 3
0.387105 0.263139 1.12661 1.25404e-38 3
0.417318 0.270936 1.15999 1.24482e-38 3
0.43606 0.270936 1.15999 1.31858e-38 3
0.458196 0.272958 1.16864 1.16188e-38 3
0.477079 0.272958 1.16864 1.17121e-38 3
0.503476 0.277094 1.18635 1.09745e-38 3
0.514843 0.272958 1.16864 1.11575e-38 3
0.507229 0.259407 1.11063 1.15262e-38 3
0.490394 0.242228 1.03708 1.17106e-38 3
0.627702 0.299806 1.28359 1.0972e-38 3
0.648442 0.299806 1.28359 1.15252e-38 3
0.555375 0.248819 1.0653 1.04195e-38 3
0.568719 0.247138 1.0581 1.03273e-38 3
0.677348 0.285753 1.22343 1.2539e-38 3
0.708181 0.290289 1.24284 1.37371e-38 3
0.740008 0.294971 1.26289 1.17092e-38 3
0.748343 0.290289 1.24284 1.22627e-38 3
0.768424 0.290289 1.24284 1.10653e-38 3
0.764244 0.281357 1.2046 1.16188e-38 3
0.771833 0.277094 1.18635 1.05121e-38 3
0.791001 0.277094 1.18635 1.08798e-38 3
0.822634 0.281357 1.2046 1.12475e-38 3
1.07326 0.358592 1.53528 1.11564e-38 3
0.875022 0.285753 1.22343 1.0972e-38 3
0.881023 0.281357 1.2046 1.11557e-38 3
0.848285 0.265046 1.13477 1.00493e-38 3
0.949155 0.290289 1.24284 1.00511e-38 3
0.92518 0.277094 1.18635 8.94514e-39 3
0.916573 0.268944 1.15146 9.58979e-39 3
0.865198 0.248819 1.0653 1.03266e-38 3
0.859036 0.242228 1.03708 9.03517e-39 3
0.847722 0.234464 1.00384 9.68126e-39 3
0.869515 0.235977 1.01031 8.66711e-39 3
0.880161 0.234464 1.00384 7.74587e-39 3
0.890671 0.23297 0.997442 7.10051e-39 3
0.895381 0.23004 0.984896 7.2849e-39 3
1.14997 0.290289 1.24284 7.83807e-39 3
1.17005 0.290289 1.24284 7.00831e-39 3
1.19013 0.290289 1.24284 7.83807e-39 3
1.24989 0.299806 1.28359 8.02067e-39 3
1.27063 0.299806 1.28359 7.92847e-39 3
1.29137 0.299806 1.28359 7.09907e-39 3
1.31211 0.299806 1.28359 7.00688e-39 3
1.37803 0.309969 1.32711 6.36187e-39 3
1.4236 0.315313 1.34999 6.26967e-39 3
1.55248 0.33867 1.44999 5.8094e-39 3
1.70198 0.365764 1.56598 5.44098e-39 3
1.72728 0.365764 1.56598 5.5321e-39 3
1.75258 0.365764 1.56598 6.08528e-39 3
1.77789 0.365764 1.56598 5.90089e-39 3
1.83999 0.373228 1.59794 5.99308e-39 3
1.86581 0.373228 1.59794 4.33464e-39 3
1.93103 0.381004 1.63123 5.0722e-39 3
1.95739 0.381004 1.63123 5.25659e-39 3
2.07 0.397569 1.70216 4.79525e-39 3
2.19284 0.415641 1.77953 5.07148e-39 3
2.57237 0.481268 2.06051 4.88709e-39 3
-0.617175 0.31037 1.24284 8.20721e-39 3
-0.561446 0.29184 1.16864 9.58906e-39 3
-0.534585 0.287548 1.15146 1.10642e-38 3
-0.508503 0.283381 1.13477 9.49615e-39 3
-0.457048 0.264234 1.0581 1.15245e-38 3
-0.442945 0.266031 1.0653 1.1433e-38 3
-0.425733 0.266031 1.0653 1.06032e-38 3
-0.414155 0.269701 1.07999 1.21698e-38 3
-0.393988 0.267853 1.07259 1.07873e-38 3
-0.376658 0.267853 1.07259 1.11564e-38 3
-0.352093 0.26246 1.051 1.27223e-38 3
-0.330673 0.258984 1.03708 1.36435e-38 3
-0.388536 0.320546 1.28359 1.44726e-38 3
-0.367796 0.320546 1.28359 1.54853e-38 3
-0.340688 0.383398 1.53528 1.56661e-38 3
-0.309808 0.376025 1.50575 1.55753e-38 3
-0.219029 0.315376 1.26289 1.44711e-38 3
-0.195471 0.31037 1.24284 1.52987e-38 3
-0.169993 0.30082 1.2046 1.75071e-38 3
-0.148249 0.296262 1.18635 1.79659e-38 3
-0.112096 0.25728 1.03025 1.64929e-38 3
-0.0906776 0.244416 0.97874 1.58504e-38 3
-0.0717257 0.234171 0.937715 1.48381e-38 3
-0.0565747 0.234171 0.937715 1.58537e-38 3
-0.0414236 0.234171 0.937715 1.75096e-38 3
-0.0261162 0.232777 0.932133 1.72305e-38 3
-0.0111885 0.235582 0.943364 1.51132e-38 3
0.00405378 0.235582 0.943364 1.23538e-38 3
0.0237271 0.289678 1.15999 1.06958e-38 3
0.0462369 0.315376 1.26289 1.20808e-38 3
0.0677344 0.320546 1.28359 1.28184e-38 3
0.088474 0.320546 1.28359 1.2173e-38 3
0.109214 0.320546 1.28359 1.30021e-38 3
0.131027 0.323195 1.2942 1.30928e-38 3
0.150693 0.320546 1.28359 1.35531e-38 3
0.164683 0.307926 1.23306 1.21705e-38 3
0.178969 0.298524 1.19541 1.32765e-38 3
0.190994 0.287548 1.15146 1.1895e-38 3
0.187536 0.25728 1.03025 1.20791e-38 3
0.20153 0.253939 1.01687 1.22642e-38 3
0.216554 0.252301 1.01031 1.31847e-38 3
0.232878 0.252301 1.01031 1.21698e-38 3
0.249202 0.252301 1.01031 1.44754e-38 3
0.265526 0.252301 1.01031 1.2633e-38 3
0.287413 0.25728 1.03025 1.35535e-38 3
0.304059 0.25728 1.03025 1.26308e-38 3
0.322829 0.258984 1.03708 1.27237e-38 3
0.34185 0.260711 1.04399 1.30936e-38 3
0.363565 0.264234 1.0581 1.18028e-38 3
0.405308 0.281342 1.12661 1.24482e-38 3
0.429694 0.28545 1.14305 1.30936e-38 3
0.451458 0.287548 1.15146 1.18032e-38 3
0.470063 0.287548 1.15146 1.13433e-38 3
0.488667 0.287548 1.15146 1.08823e-38 3
0.507272 0.287548 1.15146 1.2172e-38 3
0.483238 0.264234 1.0581 1.26326e-38 3
0.457095 0.241399 0.966657 1.17106e-38 3
0.450469 0.230039 0.921167 1.07883e-38 3
0.465352 0.230039 0.921167 1.10642e-38 3
0.477428 0.228694 0.91578 1.12493e-38 3
0.49512 0.230039 0.921167 1.02352e-38 3
0.510003 0.230039 0.921167 1.0511e-38 3
0.708181 0.31037 1.24284 1.07876e-38 3
0.728262 0.31037 1.24284 1.17088e-38 3
0.68327 0.283381 1.13477 1.11557e-38 3
0.722548 0.29184 1.16864 1.06032e-38 3
0.741431 0.29184 1.16864 1.1433e-38 3
0.771833 0.296262 1.18635 1.0143e-38 3
0.75661 0.283381 1.13477 1.10638e-38 3
0.780601 0.28545 1.14305 1.13401e-38 3
0.86883 0.31037 1.24284 1.14323e-38 3
0.86156 0.30082 1.2046 1.0788e-38 3
0.823979 0.281342 1.12661 1.11557e-38 3
0.836166 0.279333 1.11856 1.01415e-38 3
0.854239 0.279333 1.11856 1.02352e-38 3
0.884955 0.283381 1.13477 9.86709e-39 3
0.884071 0.277352 1.11063 8.94442e-39 3
0.853585 0.26246 1.051 9.58906e-39 3
0.859036 0.258984 1.03708 9.31176e-39 3
0.853191 0.252301 1.01031 9.22028e-39 3
0.858439 0.249087 0.997442 8.94369e-39 3
0.880161 0.250683 1.00384 9.49651e-39 3
0.879467 0.245953 0.984896 5.90196e-39 3
0.868082 0.238455 0.954868 6.82392e-39 3
0.883511 0.238455 0.954868 7.46929e-39 3
1.13405 0.30082 1.2046 7.46929e-39 3
1.11908 0.29184 1.16864 6.63952e-39 3
1.17297 0.30082 1.2046 7.46749e-39 3
1.29181 0.325888 1.30499 5.62358e-39 3
1.43224 0.355514 1.42362 7.74408e-39 3
1.45525 0.355514 1.42362 6.72993e-39 3
1.50562 0.362098 1.44999 6.91432e-39 3
1.52905 0.362098 1.44999 6.54589e-39 3
1.55248 0.362098 1.44999 5.99307e-39 3
1.57591 0.362098 1.44999 7.00723e-39 3
1.72728 0.391066 1.56598 6.54626e-39 3
1.71822 0.383398 1.53528 5.25552e-39 3
1.74303 0.383398 1.53528 6.26967e-39 3
1.80319 0.391066 1.56598 5.34771e-39 3
1.86581 0.399047 1.59794 5.53318e-39 3
1.93103 0.40736 1.63123 4.61122e-39 3
1.99904 0.416028 1.66594 4.88781e-39 3
2.07 0.425072 1.70216 6.27146e-39 3
2.19284 0.444393 1.77953 5.44098e-39 3
-0.510959 0.242074 0.910456 9.95713e-39 3
-0.554251 0.270369 1.01687 1.06947e-38 3
-0.517653 0.26023 0.97874 1.01415e-38 3
-0.521391 0.270369 1.01687 1.15252e-38 3
-0.504961 0.270369 1.01687 9.77345e-39 3
-0.494959 0.273926 1.03025 1.11564e-38 3
-0.478313 0.273926 1.03025 1.06947e-38 3
-0.464724 0.275741 1.03708 1.18932e-38 3
-0.447968 0.275741 1.03708 1.18932e-38 3
-0.434086 0.277579 1.04399 1.13404e-38 3
-0.417218 0.277579 1.04399 1.10638e-38 3
-0.411318 0.285184 1.07259 1.17092e-38 3
-0.386055 0.279442 1.051 1.12482e-38 3
-0.366613 0.277579 1.04399 1.20776e-38 3
-0.342888 0.272136 1.02352 1.29981e-38 3
-0.322139 0.268625 1.01031 1.33662e-38 3
-0.301919 0.265203 0.997442 1.40105e-38 3
-0.168692 0.236573 0.889764 1.25343e-38 3
-0.154316 0.236573 0.889764 1.34552e-38 3
-0.186586 0.31543 1.18635 1.59426e-38 3
-0.163697 0.308421 1.15999 1.67688e-38 3
-0.143889 0.306153 1.15146 1.77808e-38 3
-0.110641 0.270369 1.01687 1.75975e-38 3
-0.0906776 0.26023 0.97874 1.66773e-38 3
-0.0717257 0.249322 0.937715 1.67717e-38 3
-0.0565747 0.249322 0.937715 1.70493e-38 3
-0.0414236 0.249322 0.937715 1.73231e-38 3
-0.0259617 0.246372 0.926618 1.7784e-38 3
-0.0110553 0.247838 0.932133 1.43775e-38 3
0.00398182 0.246372 0.926618 1.29077e-38 3
0.0209356 0.272136 1.02352 1.31861e-38 3
0.0437662 0.317838 1.19541 1.30028e-38 3
0.0630809 0.317838 1.19541 1.34641e-38 3
0.0811566 0.313059 1.17743 1.3279e-38 3
0.10094 0.31543 1.18635 1.36474e-38 3
0.122901 0.322766 1.21394 1.30006e-38 3
0.141419 0.320283 1.2046 1.41063e-38 3
0.147287 0.293217 1.10281 1.35535e-38 3
0.137911 0.244922 0.921167 1.29081e-38 3
0.156477 0.250824 0.943364 1.22638e-38 3
0.178159 0.26023 0.97874 1.52141e-38 3
0.198946 0.266903 1.00384 1.31865e-38 3
0.215166 0.266903 1.00384 1.41077e-38 3
0.231385 0.266903 1.00384 1.33691e-38 3
0.25082 0.270369 1.01687 1.34624e-38 3
0.265526 0.268625 1.01031 1.2633e-38 3
0.28368 0.270369 1.01687 1.24471e-38 3
0.30011 0.270369 1.01687 1.29992e-38 3
0.31654 0.270369 1.01687 1.32758e-38 3
0.335147 0.272136 1.02352 1.29999e-38 3
0.351684 0.272136 1.02352 1.41988e-38 3
0.375586 0.277579 1.04399 1.20783e-38 3
0.408806 0.289145 1.08749 1.38301e-38 3
0.451458 0.306153 1.15146 1.30932e-38 3
0.470063 0.306153 1.15146 1.18032e-38 3
0.488667 0.306153 1.15146 1.22653e-38 3
0.47909 0.289145 1.08749 1.17121e-38 3
0.483238 0.28133 1.0581 1.06965e-38 3
0.451521 0.253883 0.954868 1.16192e-38 3
0.447834 0.24349 0.91578 1.17103e-38 3
0.462631 0.24349 0.91578 1.17103e-38 3
0.474652 0.242074 0.910456 1.16181e-38 3
0.486534 0.240675 0.905193 1.14337e-38 3
0.492617 0.236573 0.889764 1.18025e-38 3
0.504129 0.235236 0.884737 1.03273e-38 3
0.566426 0.257017 0.966657 1.18932e-38 3
0.612281 0.270369 1.01687 1.12479e-38 3
0.663161 0.285184 1.07259 1.08791e-38 3
0.680491 0.285184 1.07259 1.13401e-38 3
0.727728 0.297406 1.11856 1.14326e-38 3
0.740512 0.295297 1.11063 1.06032e-38 3
0.758457 0.295297 1.11063 9.58906e-39 3
0.776401 0.295297 1.11063 1.05103e-38 3
0.756776 0.28133 1.0581 1.06029e-38 3
0.773872 0.28133 1.0581 1.05103e-38 3
0.818624 0.291167 1.09509 9.40395e-39 3
0.808064 0.28133 1.0581 8.94442e-39 3
0.848081 0.289145 1.08749 8.29941e-39 3
0.859682 0.28715 1.07999 8.57564e-39 3
0.847894 0.277579 1.04399 9.7731e-39 3
0.853384 0.273926 1.03025 9.77274e-39 3
0.853191 0.268625 1.01031 1.00493e-38 3
0.847641 0.261867 0.984896 9.95713e-39 3
0.863554 0.261867 0.984896 9.31212e-39 3
0.863181 0.257017 0.966657 9.03589e-39 3
0.868082 0.253883 0.954868 8.02138e-39 3
0.883511 0.253883 0.954868 7.00723e-39 3
0.996121 0.28133 1.0581 7.00759e-39 3
1.01322 0.28133 1.0581 7.09978e-39 3
1.03031 0.28133 1.0581 7.46785e-39 3
1.29181 0.346973 1.30499 7.28346e-39 3
1.4822 0.385526 1.44999 6.54518e-39 3
1.56353 0.400354 1.50575 6.63773e-39 3
1.5579 0.3928 1.47734 7.28346e-39 3
1.7109 0.424865 1.59794 7.28345e-39 3
1.70198 0.416368 1.56598 6.45406e-39 3
1.69341 0.408204 1.53528 6.36186e-39 3
-0.528744 0.258287 0.91578 1.14323e-38 3
-0.513947 0.258287 0.91578 9.21992e-39 3
-0.502087 0.259806 0.921167 1.15248e-38 3
-0.495955 0.264473 0.937715 1.12479e-38 3
-0.495644 0.272636 0.966657 1.0511e-38 3
-0.489082 0.27778 0.984896 1.0511e-38 3
-0.482268 0.283122 1.00384 1.11557e-38 3
-0.472101 0.286799 1.01687 9.40395e-39 3
-0.458649 0.288673 1.02352 1.18936e-38 3
-0.442112 0.288673 1.02352 1.08791e-38 3
-0.425575 0.288673 1.02352 1.27234e-38 3
-0.409037 0.288673 1.02352 1.0972e-38 3
-0.403037 0.296423 1.051 1.06029e-38 3
-0.380942 0.292497 1.03708 1.23546e-38 3
-0.36179 0.290573 1.03025 1.22617e-38 3
-0.319889 0.269311 0.954868 1.27208e-38 3
-0.310134 0.274329 0.972661 1.41027e-38 3
-0.272422 0.253834 0.899991 1.41949e-38 3
-0.260879 0.256785 0.910456 1.29031e-38 3
-0.249064 0.259806 0.921167 1.17031e-38 3
-0.213031 0.252383 0.894848 1.06879e-38 3
-0.195226 0.248129 0.879766 1.15176e-38 3
-0.179 0.245372 0.869991 1.06893e-38 3
-0.168692 0.250949 0.889764 1.17964e-38 3
-0.154316 0.250949 0.889764 1.25329e-38 3
-0.139939 0.250949 0.889764 1.41906e-38 3
-0.162493 0.324758 1.15146 1.52033e-38 3
-0.143889 0.324758 1.15146 1.51997e-38 3
-0.10784 0.279538 0.991129 1.56607e-38 3
-0.0906776 0.276044 0.97874 1.46479e-38 3
-0.07046 0.259806 0.921167 1.50185e-38 3
-0.0555763 0.259806 0.921167 1.26222e-38 3
-0.0406926 0.259806 0.921167 1.13314e-38 3
-0.025658 0.258287 0.91578 9.58043e-39 3
-0.0108614 0.258287 0.91578 1.05996e-38 3
0.00393525 0.258287 0.91578 1.17092e-38 3
0.0202731 0.279538 0.991129 1.27241e-38 3
0.0421572 0.324758 1.15146 1.23564e-38 3
0.0607618 0.324758 1.15146 1.29092e-38 3
0.0719588 0.294447 1.04399 1.36467e-38 3
0.0822472 0.272636 0.966657 1.15259e-38 3
0.0938123 0.261343 0.926618 1.19861e-38 3
0.108144 0.259806 0.921167 1.27226e-38 3
0.121597 0.256785 0.910456 1.3184e-38 3
0.133971 0.252383 0.894848 1.28159e-38 3
0.151018 0.256785 0.910456 1.13419e-38 3
0.170691 0.264473 0.937715 1.31858e-38 3
0.196428 0.279538 0.991129 1.41999e-38 3
0.212442 0.279538 0.991129 1.35535e-38 3
0.231385 0.283122 1.00384 1.41066e-38 3
0.249202 0.284949 1.01031 1.35535e-38 3
0.263824 0.283122 1.00384 1.27244e-38 3
0.27826 0.281319 0.997442 1.38301e-38 3
0.288856 0.276044 0.97874 1.47495e-38 3
0.30467 0.276044 0.97874 1.51183e-38 3
0.326608 0.281319 0.997442 1.41063e-38 3
0.340555 0.279538 0.991129 1.53052e-38 3
0.354326 0.27778 0.984896 1.33691e-38 3
0.379794 0.284949 1.01031 1.43832e-38 3
0.409322 0.294447 1.04399 1.20783e-38 3
0.43195 0.298426 1.0581 1.18947e-38 3
0.449046 0.298426 1.0581 1.15277e-38 3
0.453875 0.290573 1.03025 1.19887e-38 3
0.446995 0.276044 0.97874 1.29095e-38 3
0.43052 0.256785 0.910456 1.20798e-38 3
0.432654 0.249531 0.884737 1.09727e-38 3
0.446949 0.249531 0.884737 1.12493e-38 3
0.45105 0.244017 0.865185 1.03273e-38 3
0.459947 0.24135 0.855729 1.02352e-38 3
0.473774 0.24135 0.855729 1.16181e-38 3
0.4876 0.24135 0.855729 1.10649e-38 3
0.501426 0.24135 0.855729 1.08791e-38 3
0.58932 0.276044 0.97874 1.07862e-38 3
0.620651 0.283122 1.00384 1.07862e-38 3
0.620948 0.276044 0.97874 1.15237e-38 3
0.628901 0.272636 0.966657 1.14315e-38 3
0.715152 0.302514 1.07259 1.0511e-38 3
0.742655 0.306716 1.08749 9.77418e-39 3
0.651623 0.262899 0.932133 1.08791e-38 3
0.746686 0.294447 1.04399 9.12773e-39 3
0.763554 0.294447 1.04399 1.06025e-38 3
0.790968 0.298426 1.0581 1.13401e-38 3
0.808064 0.298426 1.0581 1.05117e-38 3
0.842233 0.3046 1.07999 9.22137e-39 3
0.853794 0.302514 1.07259 8.66783e-39 3
0.842279 0.292497 1.03708 8.94334e-39 3
0.847807 0.288673 1.02352 9.77274e-39 3
0.858731 0.286799 1.01687 8.02102e-39 3
0.910641 0.298426 1.0581 8.66639e-39 3
0.827139 0.266066 0.943364 8.48236e-39 3
0.837337 0.264473 0.937715 8.94334e-39 3
0.857624 0.266066 0.943364 8.75895e-39 3
0.872866 0.266066 0.943364 7.46821e-39 3
0.945038 0.283122 1.00384 8.66711e-39 3
0.94909 0.279538 0.991129 7.00759e-39 3
0.95304 0.276044 0.97874 7.92882e-39 3
0.956893 0.272636 0.966657 6.63809e-39 3
0.960652 0.269311 0.954868 7.19054e-39 3
1.5392 0.424683 1.50575 7.28274e-39 3
-0.528744 0.273083 0.91578 1.1156e-38 3
-0.513947 0.273083 0.91578 1.06954e-38 3
-0.502087 0.27469 0.921167 1.30918e-38 3
-0.495955 0.279624 0.937715 1.16166e-38 3
-0.4837 0.281309 0.943364 1.02344e-38 3
-0.468458 0.281309 0.943364 1.10642e-38 3
-0.494959 0.307219 1.03025 1.16174e-38 3
-0.478313 0.307219 1.03025 1.04185e-38 3
-0.461667 0.307219 1.03025 1.06954e-38 3
-0.447968 0.309253 1.03708 1.04192e-38 3
-0.422811 0.303229 1.01687 1.17096e-38 3
-0.406381 0.303229 1.01687 1.09716e-38 3
-0.395082 0.307219 1.03025 1.10638e-38 3
-0.34862 0.283014 0.949081 9.68054e-39 3
-0.319721 0.271496 0.910456 1.20758e-38 3
-0.301505 0.268375 0.899991 1.15223e-38 3
-0.288622 0.269926 0.905193 1.24432e-38 3
-0.270865 0.266842 0.894848 1.1429e-38 3
-0.253509 0.263826 0.884737 9.39964e-39 3
-0.23787 0.262344 0.879766 9.7677e-39 3
-0.22117 0.259429 0.869991 1.34552e-38 3
-0.205969 0.257996 0.865185 1.41924e-38 3
-0.190935 0.256578 0.860431 1.41002e-38 3
-0.176066 0.255176 0.855729 1.11506e-38 3
-0.162239 0.255176 0.855729 8.8461e-39 3
-0.149228 0.256578 0.860431 1.05975e-38 3
-0.135326 0.256578 0.860431 7.00147e-39 3
-0.126281 0.266842 0.894848 7.46029e-39 3
-0.123854 0.295552 0.991129 9.02473e-39 3
-0.0996412 0.273083 0.91578 1.09608e-38 3
-0.0838637 0.269926 0.905193 1.26211e-38 3
-0.0696407 0.271496 0.910456 1.28073e-38 3
-0.0549301 0.271496 0.910456 1.32683e-38 3
-0.039987 0.269926 0.905193 1.11485e-38 3
-0.0252156 0.268375 0.899991 1.36399e-38 3
-0.0105528 0.265325 0.889764 1.05088e-38 3
0.0038674 0.268375 0.899991 1.08798e-38 3
0.0181997 0.265325 0.889764 1.1433e-38 3
0.0331409 0.269926 0.905193 1.17096e-38 3
0.0477665 0.269926 0.905193 1.26319e-38 3
0.0627548 0.271496 0.910456 1.31847e-38 3
0.0774654 0.271496 0.910456 1.21709e-38 3
0.0885714 0.260879 0.874851 1.18936e-38 3
0.102707 0.260879 0.874851 1.19851e-38 3
0.115551 0.257996 0.865185 1.32755e-38 3
0.12953 0.257996 0.865185 1.39215e-38 3
0.145113 0.260879 0.874851 1.49364e-38 3
0.160143 0.262344 0.879766 1.53048e-38 3
0.182563 0.27469 0.921167 1.41063e-38 3
0.198615 0.276315 0.926618 1.46595e-38 3
0.216144 0.279624 0.937715 1.47517e-38 3
0.229918 0.27796 0.932133 1.46595e-38 3
0.240681 0.273083 0.91578 1.47517e-38 3
0.256981 0.27469 0.921167 1.37379e-38 3
0.271865 0.27469 0.921167 1.74221e-38 3
0.290162 0.27796 0.932133 1.65913e-38 3
0.320484 0.291858 0.97874 1.52108e-38 3
0.338413 0.293693 0.984896 1.38297e-38 3
0.343524 0.284739 0.954868 1.31851e-38 3
0.358952 0.284739 0.954868 1.26315e-38 3
0.37438 0.284739 0.954868 1.23553e-38 3
0.389808 0.284739 0.954868 1.21713e-38 3
0.395588 0.27796 0.932133 1.21731e-38 3
0.410649 0.27796 0.932133 1.23567e-38 3
0.420701 0.27469 0.921167 1.23557e-38 3
0.420736 0.265325 0.889764 1.23557e-38 3
0.423092 0.257996 0.865185 1.20791e-38 3
0.43467 0.256578 0.860431 1.07883e-38 3
0.443696 0.253789 0.851078 1.15259e-38 3
0.452529 0.251061 0.841927 1.18025e-38 3
0.463639 0.249718 0.837425 1.04203e-38 3
0.47717 0.249718 0.837425 1.04203e-38 3
0.496006 0.252418 0.846478 1.07876e-38 3
0.554654 0.27469 0.921167 1.19854e-38 3
0.605134 0.291858 0.97874 1.23524e-38 3
0.598504 0.281309 0.943364 1.16149e-38 3
0.613747 0.281309 0.943364 1.22602e-38 3
0.614189 0.27469 0.921167 1.09713e-38 3
0.614611 0.268375 0.899991 1.0972e-38 3
0.629153 0.268375 0.899991 1.05107e-38 3
0.751697 0.313404 1.051 1.14326e-38 3
0.795368 0.324287 1.08749 1.04185e-38 3
0.812939 0.324287 1.08749 9.12773e-39 3
0.892489 0.348487 1.16864 9.31248e-39 3
0.911371 0.348487 1.16864 7.93027e-39 3
0.930253 0.348487 1.16864 8.29905e-39 3
0.949136 0.348487 1.16864 9.31212e-39 3
0.968018 0.348487 1.16864 8.38945e-39 3
0.972387 0.343362 1.15146 8.66604e-39 3
0.875161 0.303229 1.01687 7.55969e-39 3
0.827139 0.281309 0.943364 8.29761e-39 3
0.842381 0.281309 0.943364 8.48236e-39 3
0.837444 0.27469 0.921167 7.6526e-39 3
0.872866 0.281309 0.943364 8.57456e-39 3
0.898939 0.284739 0.954868 8.75895e-39 3
0.937226 0.291858 0.97874 8.94334e-39 3
0.918593 0.281309 0.943364 8.66639e-39 3
0.922718 0.27796 0.932133 6.4537e-39 3
0.885095 0.262344 0.879766 6.82176e-39 3
0.89931 0.262344 0.879766 7.92811e-39 3
1.56353 0.449012 1.50575 6.2693e-39 3
-0.567242 0.241311 0.767639 1.00493e-38 3
-0.533902 0.232205 0.738672 9.67982e-39 3
-0.546738 0.289573 0.921167 1.10642e-38 3
-0.558118 0.303873 0.966657 1.0972e-38 3
-0.513947 0.28788 0.91578 9.77309e-39 3
-0.502087 0.289573 0.921167 1.20776e-38 3
-0.498943 0.296551 0.943364 9.3114e-39 3
-0.4837 0.296551 0.943364 1.23542e-38 3
-0.468458 0.296551 0.943364 1.08791e-38 3
-0.488531 0.319659 1.01687 1.06954e-38 3
-0.472101 0.319659 1.01687 1.06954e-38 3
-0.407985 0.286206 0.910456 9.95784e-39 3
-0.420144 0.305761 0.972661 1.01422e-38 3
-0.394624 0.298348 0.949081 1.10642e-38 3
-0.359671 0.282917 0.899991 9.49651e-39 3
-0.349142 0.286206 0.910456 9.49615e-39 3
-0.326831 0.279702 0.889764 1.13401e-38 3
-0.312455 0.279702 0.889764 1.24457e-38 3
-0.296394 0.278121 0.884737 1.22606e-38 3
-0.283702 0.279702 0.889764 1.41045e-38 3
-0.2663 0.276559 0.879766 1.17067e-38 3
-0.249284 0.273486 0.869991 1.42882e-38 3
-0.232642 0.270481 0.860431 1.37346e-38 3
-0.217545 0.269003 0.855729 1.2812e-38 3
-0.202611 0.267541 0.851078 1.24432e-38 3
-0.18886 0.267541 0.851078 1.21669e-38 3
-0.174162 0.266095 0.846478 1.2813e-38 3
-0.160485 0.266095 0.846478 1.07847e-38 3
-0.146808 0.266095 0.846478 1.23521e-38 3
-0.133131 0.266095 0.846478 7.28022e-39 3
-0.120104 0.267541 0.851078 9.39963e-39 3
-0.106934 0.269003 0.855729 1.42824e-38 3
-0.0921008 0.266095 0.846478 1.2714e-38 3
-0.0784239 0.266095 0.846478 1.09619e-38 3
-0.0669173 0.275014 0.874851 8.1957e-39 3
-0.052782 0.275014 0.874851 7.82835e-39 3
-0.0384319 0.273486 0.869991 7.46065e-39 3
-0.0243751 0.273486 0.869991 1.58526e-38 3
-0.0102613 0.271975 0.865185 1.44743e-38 3
0.00375937 0.275014 0.874851 1.30006e-38 3
0.0178947 0.275014 0.874851 1.12479e-38 3
0.032392 0.278121 0.884737 1.27216e-38 3
0.046687 0.278121 0.884737 1.42907e-38 3
0.0613286 0.279702 0.889764 1.2723e-38 3
0.0748542 0.276559 0.879766 1.2723e-38 3
0.0875927 0.271975 0.865185 1.26304e-38 3
0.101572 0.271975 0.865185 1.12464e-38 3
0.114288 0.269003 0.855729 1.23528e-38 3
0.128114 0.269003 0.855729 1.38279e-38 3
0.142721 0.270481 0.860431 1.41045e-38 3
0.156623 0.270481 0.860431 1.46577e-38 3
0.171468 0.271975 0.865185 1.42896e-38 3
0.188572 0.276559 0.879766 1.65016e-38 3
0.205091 0.279702 0.889764 1.52101e-38 3
0.217002 0.276559 0.879766 1.43818e-38 3
0.231216 0.276559 0.879766 1.44744e-38 3
0.251073 0.282917 0.899991 1.51204e-38 3
0.270275 0.28788 0.91578 1.54856e-38 3
0.286748 0.289573 0.921167 1.52065e-38 3
0.310772 0.298348 0.949081 1.42871e-38 3
0.320284 0.293021 0.932133 1.46577e-38 3
0.335344 0.293021 0.932133 1.21705e-38 3
0.350405 0.293021 0.932133 1.30003e-38 3
0.361167 0.289573 0.921167 1.28159e-38 3
0.371678 0.286206 0.910456 1.35546e-38 3
0.377607 0.279702 0.889764 1.29095e-38 3
0.387579 0.276559 0.879766 1.33702e-38 3
0.401793 0.276559 0.879766 1.19869e-38 3
0.413684 0.275014 0.874851 1.3001e-38 3
0.423092 0.271975 0.865185 1.33698e-38 3
0.43467 0.270481 0.860431 1.29088e-38 3
0.443696 0.267541 0.851078 1.28174e-38 3
0.452529 0.264664 0.841927 1.1711e-38 3
0.458733 0.260463 0.828563 1.18036e-38 3
0.472121 0.260463 0.828563 1.14337e-38 3
0.485508 0.260463 0.828563 1.20791e-38 3
0.488556 0.255065 0.811391 1.16167e-38 3
0.506919 0.257736 0.819887 1.26301e-38 3
0.520166 0.257736 0.819887 1.06018e-38 3
0.533413 0.257736 0.819887 1.13383e-38 3
0.532715 0.251161 0.798972 1.07869e-38 3
0.548422 0.252449 0.803069 1.06032e-38 3
0.601498 0.270481 0.860431 1.10638e-38 3
0.565671 0.248624 0.790901 1.07873e-38 3
0.57845 0.248624 0.790901 1.10642e-38 3
0.812939 0.341858 1.08749 1.06029e-38 3
0.892489 0.367369 1.16864 9.77346e-39 3
0.911371 0.367369 1.16864 1.0143e-38 3
0.930253 0.367369 1.16864 9.8653e-39 3
0.949136 0.367369 1.16864 9.8653e-39 3
0.968018 0.367369 1.16864 1.03263e-38 3
0.893545 0.332618 1.0581 1.02334e-38 3
0.811897 0.296551 0.943364 1.03256e-38 3
0.754423 0.270481 0.860431 8.85114e-39 3
0.776863 0.273486 0.869991 7.6526e-39 3
0.79092 0.273486 0.869991 7.7448e-39 3
0.814021 0.276559 0.879766 7.56041e-39 3
0.857128 0.286206 0.910456 8.11358e-39 3
0.892596 0.293021 0.932133 8.48272e-39 3
0.886549 0.286206 0.910456 8.85115e-39 3
0.87088 0.276559 0.879766 8.66676e-39 3
0.847026 0.264664 0.841927 6.72957e-39 3
0.833735 0.256393 0.815617 8.11322e-39 3
0.846913 0.256393 0.815617 8.20541e-39 3
0.860091 0.256393 0.815617 7.37565e-39 3
-0.718916 0.308082 0.932133 6.26859e-39 3
-0.579645 0.253714 0.767639 3.8715e-39 3
-0.52125 0.233143 0.705398 4.70126e-39 3
-0.509852 0.233143 0.705398 8.75858e-39 3
-0.485338 0.227008 0.686835 6.4537e-39 3
-0.491485 0.235262 0.711811 6.3615e-39 3
-0.533316 0.261403 0.790901 7.74444e-39 3
-0.548225 0.275307 0.83297 8.38981e-39 3
-0.602012 0.309926 0.937715 7.92811e-39 3
-0.576505 0.304457 0.921167 7.74443e-39 3
-0.558337 0.302677 0.91578 7.46892e-39 3
-0.522165 0.290774 0.879766 1.09731e-38 3
-0.496787 0.284383 0.860431 1.06029e-38 3
-0.499346 0.294078 0.889764 1.06029e-38 3
-0.458896 0.278267 0.841927 9.03481e-39 3
-0.445293 0.278267 0.841927 9.77202e-39 3
-0.446079 0.287543 0.869991 9.86422e-39 3
-0.432022 0.287543 0.869991 1.14315e-38 3
-0.393894 0.270983 0.819887 1.06025e-38 3
-0.376703 0.268175 0.811391 9.68126e-39 3
-0.354411 0.261403 0.790901 9.68054e-39 3
-0.343366 0.262729 0.794916 1.11557e-38 3
-0.3427 0.272409 0.824202 1.08791e-38 3
-0.327658 0.270983 0.819887 1.20776e-38 3
-0.319428 0.275307 0.83297 1.24457e-38 3
-0.305969 0.275307 0.83297 1.29992e-38 3
-0.302154 0.284383 0.860431 1.36442e-38 3
-0.289844 0.285954 0.865185 1.22606e-38 3
-0.277398 0.287543 0.869991 1.19847e-38 3
-0.249481 0.272409 0.824202 1.1155e-38 3
-0.236164 0.272409 0.824202 1.24457e-38 3
-0.222847 0.272409 0.824202 1.25379e-38 3
-0.210638 0.27385 0.828563 1.08776e-38 3
-0.199361 0.276779 0.837425 1.17078e-38 3
-0.18583 0.276779 0.837425 1.30921e-38 3
-0.171383 0.275307 0.83297 1.47513e-38 3
-0.158769 0.276779 0.837425 1.0694e-38 3
-0.145238 0.276779 0.837425 1.11546e-38 3
-0.131708 0.276779 0.837425 1.20769e-38 3
-0.118177 0.276779 0.837425 1.7792e-38 3
-0.103539 0.27385 0.828563 1.77909e-38 3
-0.0896771 0.272409 0.824202 1.73277e-38 3
-0.0759603 0.270983 0.819887 1.86149e-38 3
-0.0637138 0.275307 0.83297 1.97184e-38 3
-0.0505239 0.276779 0.837425 2.10094e-38 3
-0.0371922 0.278267 0.841927 1.67702e-38 3
-0.0238452 0.281292 0.851078 2.19364e-38 3
-0.010094 0.281292 0.851078 1.24453e-38 3
0.00369741 0.284383 0.860431 1.57669e-38 3
0.0177953 0.287543 0.869991 1.36439e-38 3
0.032576 0.294078 0.889764 1.12457e-38 3
0.0469523 0.294078 0.889764 1.53963e-38 3
0.0613286 0.294078 0.889764 1.31829e-38 3
0.0748542 0.290774 0.879766 1.25372e-38 3
0.0875927 0.285954 0.865185 1.12464e-38 3
0.101014 0.284383 0.860431 1.36428e-38 3
0.114288 0.282829 0.855729 1.55782e-38 3
0.128818 0.284383 0.860431 1.58537e-38 3
0.142721 0.284383 0.860431 1.47463e-38 3
0.154921 0.281292 0.851078 1.48392e-38 3
0.168672 0.281292 0.851078 1.64079e-38 3
0.182423 0.281292 0.851078 1.64069e-38 3
0.194065 0.278267 0.841927 1.62225e-38 3
0.203296 0.272409 0.824202 1.58562e-38 3
0.214357 0.269571 0.815617 1.62253e-38 3
0.227535 0.269571 0.815617 1.60424e-38 3
0.258195 0.289149 0.874851 1.47481e-38 3
0.270818 0.287543 0.869991 1.56657e-38 3
0.291349 0.294078 0.889764 1.70501e-38 3
0.316516 0.304457 0.921167 1.49321e-38 3
0.331399 0.304457 0.921167 1.29996e-38 3
0.346283 0.304457 0.921167 1.19876e-38 3
0.356967 0.300917 0.910456 1.30929e-38 3
0.36323 0.294078 0.889764 1.15262e-38 3
0.313485 0.24414 0.738672 1.16184e-38 3
0.32542 0.24414 0.738672 1.21705e-38 3
0.376417 0.272409 0.824202 1.28166e-38 3
0.389734 0.272409 0.824202 1.28166e-38 3
0.418468 0.282829 0.855729 1.26322e-38 3
0.423048 0.276779 0.837425 1.26322e-38 3
0.429685 0.272409 0.824202 1.23564e-38 3
0.440682 0.270983 0.819887 1.2172e-38 3
0.440104 0.262729 0.794916 1.18947e-38 3
0.446154 0.258789 0.782992 1.08805e-38 3
0.456523 0.257501 0.779097 1.12493e-38 3
0.453323 0.248835 0.752877 1.1156e-38 3
0.452437 0.241858 0.731768 1.15234e-38 3
0.46644 0.242994 0.735204 1.21691e-38 3
0.471676 0.239619 0.724993 1.1523e-38 3
0.48339 0.239619 0.724993 1.12479e-38 3
0.537399 0.260089 0.786927 1.0511e-38 3
0.53663 0.253714 0.767639 1.09716e-38 3
0.551738 0.254964 0.771421 1.08794e-38 3
0.561437 0.253714 0.767639 1.15248e-38 3
0.576666 0.254964 0.771421 1.15245e-38 3
0.642976 0.278267 0.841927 1.08798e-38 3
0.649594 0.275307 0.83297 1.005e-38 3
0.677467 0.281292 0.851078 1.005e-38 3
0.730944 0.297458 0.899991 9.03554e-39 3
0.876449 0.349714 1.0581 9.9575e-39 3
0.78717 0.308082 0.932133 8.94299e-39 3
0.732472 0.281292 0.851078 8.94299e-39 3
0.738199 0.278267 0.841927 1.00497e-38 3
0.713445 0.26407 0.798972 8.66783e-39 3
0.757263 0.275307 0.83297 8.66675e-39 3
0.804976 0.287543 0.869991 8.29797e-39 3
0.819033 0.287543 0.869991 7.56041e-39 3
0.852024 0.294078 0.889764 8.11358e-39 3
0.837837 0.284383 0.860431 7.37566e-39 3
0.815877 0.272409 0.824202 7.37566e-39 3
0.803811 0.26407 0.798972 8.57384e-39 3
0.80847 0.261403 0.790901 7.65153e-39 3
0.813037 0.258789 0.782992 8.20506e-39 3
-0.592048 0.266117 0.767639 4.88637e-39 3
-0.537489 0.246763 0.711811 4.14881e-39 3
-0.525988 0.246763 0.711811 8.5742e-39 3
-0.514487 0.246763 0.711811 1.07869e-38 3
-0.49622 0.243444 0.702235 1.01422e-38 3
-0.491485 0.246763 0.711811 9.6809e-39 3
-0.482176 0.24789 0.715061 1.03259e-38 3
-0.464263 0.24454 0.705398 9.77274e-39 3
-0.469795 0.253682 0.731768 8.85078e-39 3
-0.462292 0.256075 0.738672 9.40467e-39 3
-0.450357 0.256075 0.738672 8.94405e-39 3
-0.442597 0.258514 0.745707 1.21716e-38 3
-0.461302 0.276979 0.798972 9.40467e-39 3
-0.448393 0.276979 0.798972 1.2539e-38 3
-0.435483 0.276979 0.798972 9.49615e-39 3
-0.38703 0.253682 0.731768 9.86422e-39 3
-0.427097 0.288766 0.83297 1.07851e-38 3
-0.413639 0.288766 0.83297 1.24457e-38 3
-0.372445 0.268752 0.77524 9.31176e-39 3
-0.376703 0.281285 0.811391 9.86565e-39 3
-0.358027 0.276979 0.798972 9.95713e-39 3
-0.343366 0.275573 0.794916 1.2723e-38 3
-0.335634 0.279835 0.807208 1.12479e-38 3
-0.317679 0.275573 0.794916 1.2723e-38 3
-0.30639 0.276979 0.798972 1.25368e-38 3
-0.28618 0.270089 0.779097 1.17081e-38 3
-0.273592 0.270089 0.779097 1.24457e-38 3
-0.279052 0.288766 0.83297 1.24464e-38 3
-0.265593 0.288766 0.83297 1.07869e-38 3
-0.249481 0.285726 0.824202 1.17088e-38 3
-0.233704 0.28275 0.815617 1.23535e-38 3
-0.220525 0.28275 0.815617 1.49343e-38 3
-0.202085 0.275573 0.794916 1.46577e-38 3
-0.191182 0.2784 0.803069 1.51201e-38 3
-0.180991 0.28275 0.815617 1.4291e-38 3
-0.167812 0.28275 0.815617 1.33684e-38 3
-0.155444 0.28423 0.819887 1.11557e-38 3
-0.142197 0.28423 0.819887 1.29999e-38 3
-0.128949 0.28423 0.819887 1.51208e-38 3
-0.115702 0.28423 0.819887 1.35531e-38 3
-0.10087 0.279835 0.807208 1.27226e-38 3
-0.0878281 0.279835 0.807208 1.52101e-38 3
-0.0744022 0.2784 0.803069 1.46537e-38 3
-0.0620632 0.281285 0.811391 1.83397e-38 3
-0.0492082 0.28275 0.815617 1.55742e-38 3
-0.0364092 0.285726 0.824202 1.81553e-38 3
-0.0234627 0.29031 0.837425 1.90791e-38 3
-0.00993207 0.29031 0.837425 1.34591e-38 3
0.00361789 0.291871 0.841927 1.33694e-38 3
0.0174084 0.295043 0.851078 1.39183e-38 3
0.0318521 0.3016 0.869991 1.47473e-38 3
0.0459089 0.3016 0.869991 1.65019e-38 3
0.0599657 0.3016 0.869991 1.11553e-38 3
0.0740225 0.3016 0.869991 1.0049e-38 3
0.0871114 0.298285 0.860431 1.25382e-38 3
0.100462 0.296655 0.855729 1.19833e-38 3
0.114288 0.296655 0.855729 1.58544e-38 3
0.128818 0.298285 0.860431 1.77862e-38 3
0.142721 0.298285 0.860431 1.76904e-38 3
0.153255 0.291871 0.841927 1.64955e-38 3
0.165966 0.29031 0.837425 1.52065e-38 3
0.179497 0.29031 0.837425 1.68675e-38 3
0.188 0.28275 0.815617 1.68657e-38 3
0.195082 0.274181 0.790901 1.447e-38 3
0.205783 0.27144 0.782992 1.94522e-38 3
0.22064 0.274181 0.790901 1.51183e-38 3
0.233419 0.274181 0.790901 1.61299e-38 3
0.203963 0.227146 0.655223 1.81553e-38 3
0.264317 0.279835 0.807208 1.87064e-38 3
0.298931 0.3016 0.869991 1.85238e-38 3
0.306184 0.295043 0.851078 1.38279e-38 3
0.319935 0.295043 0.851078 1.30939e-38 3
0.326587 0.288766 0.83297 1.503e-38 3
0.332961 0.28275 0.815617 1.44765e-38 3
0.319513 0.261 0.752877 1.42921e-38 3
0.33328 0.262261 0.756514 1.60445e-38 3
0.350584 0.266117 0.767639 1.5491e-38 3
0.361217 0.264819 0.763895 1.26326e-38 3
0.37724 0.267428 0.771421 1.20794e-38 3
0.389704 0.267428 0.771421 1.30939e-38 3
0.394397 0.262261 0.756514 1.29106e-38 3
0.398912 0.257289 0.742173 1.25408e-38 3
0.41286 0.258514 0.745707 1.23557e-38 3
0.415027 0.252502 0.728365 1.16174e-38 3
0.420922 0.249027 0.718341 1.21713e-38 3
0.428597 0.246763 0.711811 1.08798e-38 3
0.440098 0.246763 0.711811 1.25393e-38 3
0.449555 0.245647 0.70859 1.08791e-38 3
0.461004 0.245647 0.70859 1.04181e-38 3
0.472453 0.245647 0.70859 1.09713e-38 3
0.486102 0.246763 0.711811 1.005e-38 3
0.502168 0.249027 0.718341 9.58906e-39 3
0.516142 0.250175 0.721652 9.7731e-39 3
0.535201 0.253682 0.731768 9.40432e-39 3
0.560111 0.259751 0.749275 9.95857e-39 3
0.622883 0.28275 0.815617 1.03274e-38 3
0.642756 0.285726 0.824202 1.04195e-38 3
0.656073 0.285726 0.824202 9.221e-39 3
0.66939 0.285726 0.824202 1.02352e-38 3
0.68997 0.288766 0.83297 8.11466e-39 3
0.696024 0.285726 0.824202 7.56113e-39 3
0.701952 0.28275 0.815617 7.74552e-39 3
0.715131 0.28275 0.815617 9.31285e-39 3
0.728309 0.28275 0.815617 9.3132e-39 3
0.757263 0.288766 0.83297 9.12881e-39 3
0.770722 0.288766 0.83297 8.66748e-39 3
0.784181 0.288766 0.83297 8.48201e-39 3
0.789243 0.285726 0.824202 7.74444e-39 3
0.80256 0.285726 0.824202 7.46894e-39 3
0.790901 0.276979 0.798972 7.37674e-39 3
0.787734 0.27144 0.782992 8.48201e-39 3
0.792461 0.268752 0.77524 8.02067e-39 3
0.752812 0.251333 0.724993 7.46749e-39 3
-0.544044 0.255938 0.705398 5.25515e-39 3
-0.532647 0.255938 0.705398 7.09906e-39 3
-0.525988 0.258264 0.711811 9.95713e-39 3
-0.514487 0.258264 0.711811 9.95713e-39 3
-0.489633 0.251408 0.692913 1.06951e-38 3
-0.482709 0.253653 0.6991 9.77274e-39 3
-0.47566 0.255938 0.705398 9.86493e-39 3
-0.456046 0.251408 0.692913 9.12701e-39 3
-0.439022 0.248114 0.683836 9.68054e-39 3
-0.427973 0.248114 0.683836 8.94369e-39 3
-0.432016 0.257096 0.70859 8.7593e-39 3
-0.414935 0.253653 0.6991 1.11571e-38 3
-0.407276 0.255938 0.705398 1.18014e-38 3
-0.399477 0.258264 0.711811 1.14323e-38 3
-0.391535 0.260634 0.718341 1.15245e-38 3
-0.383447 0.263047 0.724993 1.14315e-38 3
-0.393599 0.27852 0.767639 1.30903e-38 3
-0.405021 0.295928 0.815617 1.10628e-38 3
-0.391843 0.295928 0.815617 1.11557e-38 3
-0.365345 0.285518 0.786927 1.06029e-38 3
-0.350867 0.284091 0.782992 1.16167e-38 3
-0.334867 0.281278 0.77524 1.21698e-38 3
-0.323945 0.282677 0.779097 1.06025e-38 3
-0.312913 0.284091 0.782992 1.35528e-38 3
-0.303295 0.28696 0.790901 1.29989e-38 3
-0.299595 0.295928 0.815617 1.13393e-38 3
-0.286417 0.295928 0.815617 1.26304e-38 3
-0.273239 0.295928 0.815617 1.19854e-38 3
-0.26006 0.295928 0.815617 1.18936e-38 3
-0.246882 0.295928 0.815617 1.40137e-38 3
-0.231294 0.292877 0.807208 1.33676e-38 3
-0.210651 0.282677 0.779097 1.59484e-38 3
-0.198063 0.282677 0.779097 1.53952e-38 3
-0.187339 0.285518 0.786927 1.50279e-38 3
-0.176397 0.288417 0.794916 1.24471e-38 3
-0.165231 0.291375 0.803069 1.21698e-38 3
-0.15304 0.292877 0.807208 1.35528e-38 3
-0.140723 0.294395 0.811391 1.29081e-38 3
-0.127613 0.294395 0.811391 1.33691e-38 3
-0.114503 0.294395 0.811391 1.43825e-38 3
-0.100353 0.291375 0.803069 1.43822e-38 3
-0.0873777 0.291375 0.803069 1.45655e-38 3
-0.0740226 0.289889 0.798972 1.40119e-38 3
-0.0614267 0.291375 0.803069 1.39183e-38 3
-0.0484511 0.291375 0.803069 1.36421e-38 3
-0.0356585 0.292877 0.807208 1.40109e-38 3
-0.0229713 0.297477 0.819887 1.55782e-38 3
-0.00972407 0.297477 0.819887 1.35517e-38 3
0.00354172 0.299043 0.824202 1.30918e-38 3
0.0168587 0.299043 0.824202 1.24432e-38 3
0.0308246 0.305474 0.841927 1.64065e-38 3
0.044428 0.305474 0.841927 1.7976e-38 3
0.0586621 0.308794 0.851078 1.75154e-38 3
0.0724133 0.308794 0.851078 1.54878e-38 3
0.0861645 0.308794 0.851078 1.51194e-38 3
0.0988414 0.305474 0.841927 1.38272e-38 3
0.112445 0.305474 0.841927 1.47473e-38 3
0.126048 0.305474 0.841927 1.75085e-38 3
0.139651 0.305474 0.841927 1.8796e-38 3
0.152435 0.30384 0.837425 1.74153e-38 3
0.16249 0.297477 0.819887 1.42846e-38 3
0.173916 0.294395 0.811391 1.37332e-38 3
0.183229 0.288417 0.794916 1.56679e-38 3
0.193132 0.284091 0.782992 1.53002e-38 3
0.203745 0.281278 0.77524 1.71466e-38 3
0.204144 0.265505 0.731768 1.65927e-38 3
0.208185 0.255938 0.705398 1.74199e-38 3
0.203963 0.237733 0.655223 1.90751e-38 3
0.21189 0.234786 0.647101 1.85216e-38 3
0.240213 0.253653 0.6991 1.84301e-38 3
0.251508 0.253653 0.6991 1.43807e-38 3
0.262804 0.253653 0.6991 1.51222e-38 3
0.2741 0.253653 0.6991 1.76111e-38 3
0.29325 0.260634 0.718341 1.65044e-38 3
0.304857 0.260634 0.718341 1.24475e-38 3
0.330091 0.271857 0.749275 1.97313e-38 3
0.347181 0.275816 0.760186 1.503e-38 3
0.357727 0.274484 0.756514 1.26326e-38 3
0.368172 0.273164 0.752877 1.3001e-38 3
0.380336 0.273164 0.752877 1.33702e-38 3
0.379721 0.264271 0.728365 1.2633e-38 3
0.382593 0.258264 0.711811 1.29092e-38 3
0.394094 0.258264 0.711811 1.38301e-38 3
0.401941 0.255938 0.705398 1.30918e-38 3
0.407827 0.252525 0.695993 1.24471e-38 3
0.419072 0.252525 0.695993 1.25393e-38 3
0.430318 0.252525 0.695993 1.15248e-38 3
0.443534 0.253653 0.6991 1.24464e-38 3
0.45687 0.25479 0.702235 1.1801e-38 3
0.468216 0.25479 0.702235 1.13401e-38 3
0.486102 0.258264 0.711811 1.16174e-38 3
0.497603 0.258264 0.711811 1.02344e-38 3
0.516142 0.261835 0.721652 1.06954e-38 3
0.532712 0.264271 0.728365 9.6809e-39 3
0.549593 0.266752 0.735204 8.94442e-39 3
0.566794 0.26928 0.742173 9.68198e-39 3
0.636061 0.295928 0.815617 1.08805e-38 3
0.656073 0.299043 0.824202 9.3132e-39 3
0.66939 0.299043 0.824202 1.00508e-38 3
0.661808 0.289889 0.798972 1.02352e-38 3
0.629736 0.270563 0.745707 1.04196e-38 3
0.596349 0.251408 0.692913 8.94442e-39 3
0.599585 0.248114 0.683836 9.68199e-39 3
0.641446 0.260634 0.718341 7.56149e-39 3
0.653053 0.260634 0.718341 7.37709e-39 3
0.683471 0.26801 0.738672 7.56149e-39 3
0.632729 0.243855 0.672096 7.6526e-39 3
0.720943 0.273164 0.752877 7.56005e-39 3
0.733108 0.273164 0.752877 6.2704e-39 3
0.752508 0.275816 0.760186 7.37674e-39 3
0.779935 0.281278 0.77524 8.29798e-39 3
0.792461 0.281278 0.77524 8.20506e-39 3
-0.509611 0.250415 0.660753 7.46785e-39 3
-0.501049 0.251476 0.663553 9.40395e-39 3
-0.507533 0.2603 0.686835 1.07869e-38 3
-0.500828 0.262603 0.692913 8.57419e-39 3
-0.487476 0.261447 0.689861 8.85078e-39 3
-0.476329 0.261447 0.689861 8.75858e-39 3
-0.471413 0.264948 0.6991 9.03481e-39 3
-0.456046 0.262603 0.692913 1.03255e-38 3
-0.439022 0.259163 0.683836 1.09713e-38 3
-0.427973 0.259163 0.683836 1.03266e-38 3
-0.432016 0.268545 0.70859 1.00497e-38 3
-0.422479 0.269765 0.711811 1.06039e-38 3
-0.403639 0.264948 0.6991 1.1433e-38 3
-0.399477 0.269765 0.711811 1.11557e-38 3
-0.391535 0.27224 0.718341 1.06025e-38 3
-0.373083 0.267335 0.705398 1.06021e-38 3
-0.361686 0.267335 0.705398 1.18925e-38 3
-0.353473 0.269765 0.711811 1.04181e-38 3
-0.345109 0.27224 0.718341 1.06947e-38 3
-0.346208 0.282611 0.745707 1.21698e-38 3
-0.334159 0.282611 0.745707 1.15245e-38 3
-0.331584 0.290923 0.767639 1.15245e-38 3
-0.307136 0.279945 0.738672 1.07872e-38 3
-0.289735 0.274761 0.724993 1.1801e-38 3
-0.278021 0.274761 0.724993 1.07862e-38 3
-0.268796 0.277329 0.731768 1.3184e-38 3
-0.259396 0.279945 0.738672 1.2262e-38 3
-0.259712 0.293804 0.77524 1.21705e-38 3
-0.25218 0.299739 0.790901 1.29085e-38 3
-0.223591 0.279945 0.738672 1.19862e-38 3
-0.211656 0.279945 0.738672 1.25386e-38 3
-0.206541 0.289504 0.763895 1.33676e-38 3
-0.19515 0.290923 0.767639 1.36435e-38 3
-0.185475 0.295266 0.779097 1.13401e-38 3
-0.173751 0.296742 0.782992 1.18018e-38 3
-0.162727 0.299739 0.790901 1.3184e-38 3
-0.150709 0.301261 0.794916 1.18932e-38 3
-0.137866 0.301261 0.794916 1.33691e-38 3
-0.125022 0.301261 0.794916 1.23549e-38 3
-0.112178 0.301261 0.794916 1.47513e-38 3
-0.0988327 0.299739 0.790901 1.47502e-38 3
-0.0860538 0.299739 0.790901 1.38293e-38 3
-0.0729066 0.298233 0.786927 1.39215e-38 3
-0.0601919 0.298233 0.786927 1.43825e-38 3
-0.0472399 0.296742 0.782992 1.48428e-38 3
-0.0347625 0.298233 0.786927 1.2446e-38 3
-0.0222717 0.301261 0.794916 1.29074e-38 3
-0.00938029 0.299739 0.790901 1.19851e-38 3
0.00341588 0.301261 0.794916 1.2539e-38 3
0.0162597 0.301261 0.794916 1.31818e-38 3
0.0301757 0.31236 0.824202 1.19822e-38 3
0.0434926 0.31236 0.824202 1.66856e-38 3
0.0586621 0.322546 0.851078 1.36417e-38 3
0.0757048 0.337207 0.889764 1.35506e-38 3
0.0900811 0.337207 0.889764 1.33669e-38 3
0.0999158 0.322546 0.851078 1.39194e-38 3
0.113053 0.320802 0.846478 1.29956e-38 3
0.126048 0.319077 0.841927 1.55735e-38 3
0.140406 0.320802 0.846478 1.64926e-38 3
0.151624 0.315683 0.83297 1.55714e-38 3
0.161644 0.309106 0.815617 1.35459e-38 3
0.172133 0.304351 0.803069 1.44711e-38 3
0.18048 0.296742 0.782992 1.41945e-38 3
0.189345 0.290923 0.767639 1.35484e-38 3
0.199789 0.288099 0.760186 1.60402e-38 3
0.204144 0.277329 0.731768 1.51168e-38 3
0.206326 0.264948 0.6991 1.60363e-38 3
0.198968 0.242238 0.639177 1.76018e-38 3
0.205933 0.238347 0.628909 1.76025e-38 3
0.23193 0.255812 0.674993 1.60345e-38 3
0.242836 0.255812 0.674993 1.35499e-38 3
0.253742 0.255812 0.674993 1.8626e-38 3
0.264648 0.255812 0.674993 1.70576e-38 3
0.255714 0.237394 0.626394 1.40148e-38 3
0.296691 0.264948 0.6991 1.50286e-38 3
0.307987 0.264948 0.6991 2.11139e-38 3
0.337355 0.279945 0.738672 1.46609e-38 3
0.34929 0.279945 0.738672 1.34624e-38 3
0.357849 0.277329 0.731768 1.30003e-38 3
0.367953 0.276039 0.728365 1.28159e-38 3
0.367748 0.267335 0.705398 1.26326e-38 3
0.365958 0.258036 0.680863 1.33698e-38 3
0.378605 0.259163 0.683836 1.42907e-38 3
0.389654 0.259163 0.683836 1.40137e-38 3
0.400703 0.259163 0.683836 1.32765e-38 3
0.413558 0.2603 0.686835 1.26308e-38 3
0.426526 0.261447 0.689861 1.24464e-38 3
0.439609 0.262603 0.692913 1.25382e-38 3
0.450805 0.262603 0.692913 1.29074e-38 3
0.459965 0.261447 0.689861 1.14323e-38 3
0.475299 0.263771 0.695993 1.15252e-38 3
0.490909 0.266136 0.702235 1.19862e-38 3
0.509104 0.269765 0.711811 1.10642e-38 3
0.527802 0.273495 0.721652 1.0511e-38 3
0.54448 0.276039 0.728365 1.06039e-38 3
0.56412 0.279945 0.738672 9.86637e-39 3
0.576055 0.279945 0.738672 9.68198e-39 3
0.63599 0.302798 0.798972 9.77418e-39 3
0.642344 0.299739 0.790901 1.0143e-38 3
0.617688 0.282611 0.745707 8.76002e-39 3
0.590378 0.264948 0.6991 9.95929e-39 3
0.593722 0.261447 0.689861 1.06047e-38 3
0.594394 0.256919 0.677915 1.01437e-38 3
0.632739 0.268545 0.70859 9.49795e-39 3
0.644188 0.268545 0.70859 8.48236e-39 3
0.624551 0.255812 0.674993 8.85114e-39 3
0.630026 0.253626 0.669224 9.68199e-39 3
0.714077 0.282611 0.745707 8.39089e-39 3
0.733108 0.285329 0.752877 6.73209e-39 3
0.752508 0.288099 0.760186 7.46893e-39 3
0.779935 0.293804 0.77524 8.11358e-39 3
-0.500828 0.273799 0.692913 9.40395e-39 3
-0.487476 0.272593 0.689861 9.31176e-39 3
-0.476329 0.272593 0.689861 8.29689e-39 3
-0.467241 0.273799 0.692913 9.40359e-39 3
-0.452045 0.271397 0.686835 1.05089e-38 3
-0.435221 0.267873 0.677915 1.05103e-38 3
-0.422439 0.266718 0.674993 1.06954e-38 3
-0.411533 0.266718 0.674993 1.24468e-38 3
-0.407655 0.271397 0.686835 1.09727e-38 3
-0.396558 0.271397 0.686835 1.23549e-38 3
-0.388871 0.273799 0.692913 1.18932e-38 3
-0.377676 0.273799 0.692913 1.12479e-38 3
-0.36648 0.273799 0.692913 1.14323e-38 3
-0.311218 0.23984 0.606971 1.16166e-38 3
-0.304957 0.242661 0.614111 1.00493e-38 3
-0.298547 0.24555 0.621422 1.33684e-38 3
-0.289656 0.246528 0.623898 1.0049e-38 3
-0.278466 0.24555 0.621422 1.12479e-38 3
-0.266312 0.243617 0.616529 1.03259e-38 3
-0.25635 0.243617 0.616529 1.15248e-38 3
-0.250331 0.247514 0.626394 1.20776e-38 3
-0.24021 0.247514 0.626394 1.43825e-38 3
-0.230089 0.247514 0.626394 1.18932e-38 3
-0.2455 0.276244 0.6991 1.18932e-38 3
-0.234204 0.276244 0.6991 1.20783e-38 3
-0.224917 0.278732 0.705398 1.14341e-38 3
-0.221502 0.289152 0.731768 1.20783e-38 3
-0.209678 0.289152 0.731768 1.2723e-38 3
-0.202588 0.29607 0.749275 1.29989e-38 3
-0.193256 0.300382 0.760186 1.12461e-38 3
-0.184557 0.30633 0.77524 1.24464e-38 3
-0.172887 0.307854 0.779097 1.35531e-38 3
-0.16191 0.310948 0.786927 1.39215e-38 3
-0.149195 0.310948 0.786927 1.16166e-38 3
-0.137169 0.312518 0.790901 1.15252e-38 3
-0.123765 0.310948 0.786927 1.40145e-38 3
-0.111051 0.310948 0.786927 1.35528e-38 3
-0.0978444 0.309393 0.782992 1.30918e-38 3
-0.0856213 0.310948 0.786927 1.3645e-38 3
-0.0725421 0.309393 0.782992 1.44747e-38 3
-0.059593 0.307854 0.779097 1.32765e-38 3
-0.0470048 0.307854 0.779097 1.34598e-38 3
-0.0342463 0.30633 0.77524 1.0694e-38 3
-0.0218285 0.307854 0.779097 1.34602e-38 3
-0.00919454 0.30633 0.77524 1.5396e-38 3
0.00329867 0.303327 0.767639 1.43825e-38 3
0.0156251 0.301847 0.763895 1.35528e-38 3
0.0257102 0.277483 0.702235 1.47499e-38 3
0.0368911 0.276244 0.6991 1.34591e-38 3
0.0568096 0.325677 0.824202 1.41027e-38 3
0.0724133 0.336297 0.851078 1.4196e-38 3
0.0871114 0.339992 0.860431 1.35513e-38 3
0.101014 0.339992 0.860431 1.47499e-38 3
0.114916 0.339992 0.860431 1.45651e-38 3
0.126048 0.332681 0.841927 1.35481e-38 3
0.139651 0.332681 0.841927 1.62185e-38 3
0.150822 0.3274 0.828563 1.47434e-38 3
0.163345 0.325677 0.824202 1.28076e-38 3
0.172133 0.317326 0.803069 1.40094e-38 3
0.178693 0.30633 0.77524 1.59473e-38 3
0.187506 0.300382 0.760186 1.22602e-38 3
0.191426 0.287807 0.728365 1.29056e-38 3
0.193304 0.273799 0.692913 1.47477e-38 3
0.200943 0.269037 0.680863 1.52998e-38 3
0.195772 0.248508 0.628909 1.46544e-38 3
0.203482 0.24555 0.621422 1.38257e-38 3
0.213522 0.24555 0.621422 1.33637e-38 3
0.223563 0.24555 0.621422 1.50264e-38 3
0.233604 0.24555 0.621422 1.73342e-38 3
0.245593 0.247514 0.626394 1.39226e-38 3
0.255714 0.247514 0.626394 1.13408e-38 3
0.279239 0.259994 0.657977 1.2262e-38 3
0.292326 0.262197 0.663553 2.25883e-38 3
0.319282 0.276244 0.6991 1.22635e-38 3
0.34765 0.29051 0.735204 1.21716e-38 3
0.357849 0.289152 0.731768 1.33691e-38 3
0.362889 0.283847 0.718341 1.18936e-38 3
0.358071 0.271397 0.686835 1.19861e-38 3
0.365958 0.269037 0.680863 1.18947e-38 3
0.376959 0.269037 0.680863 1.18014e-38 3
0.38796 0.269037 0.680863 1.18932e-38 3
0.398961 0.269037 0.680863 1.29074e-38 3
0.411752 0.270212 0.683836 1.26308e-38 3
0.422801 0.270212 0.683836 1.28152e-38 3
0.435753 0.271397 0.686835 1.29992e-38 3
0.448819 0.272593 0.689861 1.24464e-38 3
0.457948 0.271397 0.686835 1.23542e-38 3
0.466997 0.270212 0.683836 1.1617e-38 3
0.530246 0.286475 0.724993 1.06032e-38 3
0.566794 0.293264 0.742173 1.03274e-38 3
0.576055 0.29188 0.738672 1.16181e-38 3
0.567787 0.276244 0.6991 1.06039e-38 3
0.573958 0.273799 0.692913 1.02352e-38 3
0.58002 0.271397 0.686835 9.40611e-39 3
0.591118 0.271397 0.686835 1.00515e-38 3
0.594394 0.267873 0.677915 9.59051e-39 3
0.60798 0.269037 0.680863 9.49831e-39 3
0.616301 0.267873 0.677915 1.03266e-38 3
0.619213 0.264439 0.669224 9.49651e-39 3
0.624686 0.262197 0.663553 9.68199e-39 3
0.635408 0.262197 0.663553 9.49724e-39 3
0.7942 0.322284 0.815617 9.40576e-39 3
0.815877 0.325677 0.824202 7.92991e-39 3
-0.444251 0.277624 0.674993 1.10631e-38 3
-0.433345 0.277624 0.674993 1.01422e-38 3
-0.358633 0.270625 0.657977 9.68126e-39 3
-0.348002 0.270625 0.657977 1.16174e-38 3
-0.307641 0.246777 0.599994 9.95713e-39 3
-0.302584 0.250618 0.609332 1.33684e-38 3
-0.296196 0.253578 0.616529 1.09713e-38 3
-0.286235 0.253578 0.616529 9.77345e-39 3
-0.276273 0.253578 0.616529 1.16184e-38 3
-0.264231 0.251597 0.611713 1.12486e-38 3
-0.254347 0.251597 0.611713 1.13401e-38 3
-0.247362 0.25458 0.618966 1.13393e-38 3
-0.237362 0.25458 0.618966 1.22613e-38 3
-0.227361 0.25458 0.618966 1.32755e-38 3
-0.218222 0.255591 0.621422 1.20776e-38 3
-0.196803 0.282495 0.686835 1.17088e-38 3
-0.199721 0.303815 0.738672 1.32758e-38 3
-0.188676 0.305255 0.742173 1.31833e-38 3
-0.180973 0.312664 0.760186 9.31104e-39 3
-0.169513 0.314189 0.763895 1.41056e-38 3
-0.158719 0.317285 0.771421 1.18007e-38 3
-0.146979 0.318856 0.77524 1.29074e-38 3
-0.135122 0.320442 0.779097 1.5397e-38 3
-0.122534 0.320442 0.779097 1.45673e-38 3
-0.109946 0.320442 0.779097 1.37371e-38 3
-0.0973576 0.320442 0.779097 1.41981e-38 3
-0.0847694 0.320442 0.779097 1.26308e-38 3
-0.0721812 0.320442 0.779097 1.53974e-38 3
-0.059298 0.318856 0.77524 1.30003e-38 3
-0.0467721 0.318856 0.77524 1.40145e-38 3
-0.0339105 0.31573 0.767639 1.30003e-38 3
-0.0215075 0.31573 0.767639 1.35535e-38 3
-0.00901601 0.312664 0.760186 1.40137e-38 3
0.0031299 0.299576 0.728365 1.41981e-38 3
0.0146934 0.295453 0.718341 1.51194e-38 3
0.0252572 0.283739 0.689861 1.41967e-38 3
0.0360856 0.281261 0.683836 1.47499e-38 3
0.0469297 0.280038 0.680863 1.50264e-38 3
0.0576799 0.278826 0.677915 1.28138e-38 3
0.112445 0.346284 0.841927 1.61306e-38 3
0.126048 0.346284 0.841927 1.5208e-38 3
0.136711 0.338994 0.824202 1.4653e-38 3
0.148466 0.335463 0.815617 1.49281e-38 3
0.158345 0.328617 0.798972 1.70479e-38 3
0.164538 0.31573 0.767639 1.78788e-38 3
0.136212 0.243052 0.590937 1.61331e-38 3
0.166493 0.277624 0.674993 1.47513e-38 3
0.175883 0.275251 0.669224 1.39204e-38 3
0.183558 0.270625 0.657977 1.17978e-38 3
0.194212 0.256609 0.623898 1.45633e-38 3
0.202678 0.25458 0.618966 1.25372e-38 3
0.213522 0.255591 0.621422 1.56718e-38 3
0.222679 0.25458 0.618966 1.29996e-38 3
0.233604 0.255591 0.621422 1.58591e-38 3
0.24658 0.25867 0.628909 1.24471e-38 3
0.257776 0.259713 0.631445 1.18939e-38 3
0.267979 0.259713 0.631445 1.01419e-38 3
0.244642 0.2284 0.555314 2.15741e-38 3
0.369672 0.300976 0.731768 1.53041e-38 3
0.367748 0.29013 0.705398 1.22617e-38 3
0.37576 0.287539 0.6991 1.18018e-38 3
0.378605 0.281261 0.683836 1.29999e-38 3
0.38796 0.280038 0.680863 1.37368e-38 3
0.398961 0.280038 0.680863 1.34598e-38 3
0.411752 0.281261 0.683836 1.41974e-38 3
0.420963 0.280038 0.680863 1.3368e-38 3
0.431964 0.280038 0.680863 1.30911e-38 3
0.444899 0.281261 0.683836 1.31833e-38 3
0.453966 0.280038 0.680863 1.25379e-38 3
0.462954 0.278826 0.677915 1.27223e-38 3
0.473907 0.278826 0.677915 1.29996e-38 3
0.515915 0.29013 0.705398 1.11564e-38 3
0.563976 0.280038 0.680863 1.00508e-38 3
0.574977 0.280038 0.680863 9.77418e-39 3
0.585978 0.280038 0.680863 1.06039e-38 3
0.594394 0.278826 0.677915 1.00515e-38 3
0.600151 0.276433 0.672096 9.5905e-39 3
0.6084 0.275251 0.669224 8.94442e-39 3
0.616578 0.27408 0.666376 8.66783e-39 3
0.614275 0.26837 0.652493 9.3132e-39 3
0.624817 0.26837 0.652493 8.76003e-39 3
-0.341419 0.267756 0.626394 7.74515e-39 3
-0.321025 0.259454 0.606971 1.15252e-38 3
-0.310016 0.258452 0.604627 1.04181e-38 3
-0.303766 0.261481 0.611713 1.02337e-38 3
-0.296196 0.26354 0.616529 1.15252e-38 3
-0.286235 0.26354 0.616529 1.13411e-38 3
-0.276273 0.26354 0.616529 1.14341e-38 3
-0.265267 0.262506 0.614111 1.18947e-38 3
-0.255345 0.262506 0.614111 1.09716e-38 3
-0.247362 0.264581 0.618966 1.15241e-38 3
-0.238303 0.265631 0.621422 1.29074e-38 3
-0.227361 0.264581 0.618966 1.21698e-38 3
-0.219968 0.267756 0.626394 1.53048e-38 3
-0.196934 0.311344 0.728365 1.29077e-38 3
-0.186031 0.312799 0.731768 1.24464e-38 3
-0.177526 0.318757 0.745707 1.18932e-38 3
-0.165477 0.318757 0.745707 1.29996e-38 3
-0.154904 0.321822 0.752877 1.29074e-38 3
-0.144125 0.324947 0.760186 1.44747e-38 3
-0.133791 0.329749 0.771421 1.52126e-38 3
-0.121327 0.329749 0.771421 1.31843e-38 3
-0.108329 0.328133 0.767639 1.47517e-38 3
-0.0959258 0.328133 0.767639 1.39219e-38 3
-0.0839342 0.329749 0.771421 1.41063e-38 3
-0.0714701 0.329749 0.771421 1.4291e-38 3
-0.0587167 0.328133 0.767639 1.33691e-38 3
-0.0458639 0.324947 0.760186 1.3645e-38 3
-0.0332584 0.321822 0.752877 1.34613e-38 3
-0.0210939 0.321822 0.752877 1.55818e-38 3
-0.00884427 0.318757 0.745707 1.40152e-38 3
0.00314452 0.312799 0.731768 1.4107e-38 3
0.0147611 0.308475 0.721652 1.7148e-38 3
0.0254817 0.297507 0.695993 1.42896e-38 3
0.0364035 0.294886 0.689861 1.43825e-38 3
0.0471346 0.29231 0.683836 1.39215e-38 3
0.0576799 0.289779 0.677915 1.44744e-38 3
0.0677533 0.286064 0.669224 1.46577e-38 3
0.0775717 0.282443 0.660753 1.40116e-38 3
0.0850192 0.27211 0.636579 1.53931e-38 3
0.100679 0.259454 0.606971 1.65902e-38 3
0.125246 0.249773 0.584322 1.83397e-38 3
0.134186 0.248844 0.58215 1.61317e-38 3
0.160768 0.261481 0.611713 1.53037e-38 3
0.179833 0.260463 0.609332 1.567e-38 3
0.189678 0.260463 0.609332 1.44733e-38 3
0.199523 0.260463 0.609332 1.29081e-38 3
0.209368 0.260463 0.609332 1.53048e-38 3
0.217521 0.258452 0.604627 1.51201e-38 3
0.22729 0.258452 0.604627 1.26315e-38 3
0.243777 0.236534 0.553351 1.11557e-38 3
0.255426 0.239068 0.55928 8.75894e-39 3
0.262587 0.237373 0.555314 1.06954e-38 3
0.356351 0.301527 0.705398 1.50264e-38 3
0.364465 0.298835 0.6991 1.54878e-38 3
0.365958 0.291039 0.680863 1.34602e-38 3
0.373709 0.28853 0.674993 1.29078e-38 3
0.381328 0.286064 0.669224 1.28152e-38 3
0.392141 0.286064 0.669224 1.30918e-38 3
0.560359 0.28364 0.663553 1.01426e-38 3
0.575961 0.286064 0.669224 1.09724e-38 3
0.586774 0.286064 0.669224 1.11571e-38 3
0.597587 0.286064 0.669224 9.95893e-39 3
0.605811 0.284847 0.666376 1.07887e-38 3
0.616578 0.284847 0.666376 1.0143e-38 3
0.606691 0.275469 0.644438 8.76003e-39 3
0.617104 0.275469 0.644438 8.75895e-39 3
0.80256 0.352311 0.824202 9.68199e-39 3
-0.31365 0.271364 0.611713 1.04188e-38 3
-0.304957 0.272429 0.614111 1.11564e-38 3
-0.296196 0.273501 0.616529 1.30925e-38 3
-0.286235 0.273501 0.616529 1.18025e-38 3
-0.276273 0.273501 0.616529 1.09734e-38 3
-0.266312 0.273501 0.616529 1.08812e-38 3
-0.258385 0.275672 0.621422 1.1433e-38 3
-0.250331 0.277877 0.626394 1.38293e-38 3
-0.24021 0.277877 0.626394 1.23542e-38 3
-0.229172 0.27677 0.623898 1.24471e-38 3
-0.221742 0.280118 0.631445 1.10642e-38 3
-0.183459 0.320135 0.721652 1.20787e-38 3
-0.175851 0.327685 0.738672 1.26315e-38 3
-0.163916 0.327685 0.738672 1.28159e-38 3
-0.152701 0.329238 0.742173 1.36457e-38 3
-0.14071 0.329238 0.742173 1.2262e-38 3
-0.128718 0.329238 0.742173 1.43825e-38 3
-0.116176 0.327685 0.738672 1.34609e-38 3
-0.102786 0.323113 0.728365 1.53048e-38 3
-0.0905966 0.321617 0.724993 1.33687e-38 3
-0.0811364 0.330806 0.745707 1.38297e-38 3
-0.069752 0.333987 0.752877 1.46598e-38 3
-0.0575875 0.333987 0.752877 1.4291e-38 3
-0.0454229 0.333987 0.752877 1.30918e-38 3
-0.0380096 0.381699 0.860431 1.45676e-38 3
-0.020893 0.330806 0.745707 1.36467e-38 3
-0.00880236 0.329238 0.742173 1.28173e-38 3
0.00314452 0.324623 0.731768 1.49364e-38 3
0.0148294 0.321617 0.724993 1.41059e-38 3
0.0255954 0.310131 0.6991 1.41067e-38 3
0.0362439 0.30469 0.686835 1.3001e-38 3
0.0453522 0.291888 0.657977 1.34609e-38 3
0.0649765 0.28471 0.641797 1.44744e-38 3
0.073538 0.277877 0.626394 1.47495e-38 3
0.0820185 0.272429 0.614111 1.55775e-38 3
0.0901729 0.26719 0.602302 1.63157e-38 3
0.0991419 0.26515 0.597704 1.46562e-38 3
0.107568 0.262148 0.590937 1.38261e-38 3
0.116238 0.260185 0.586511 1.56689e-38 3
0.12478 0.25825 0.58215 1.57597e-38 3
0.134186 0.25825 0.58215 1.53938e-38 3
0.144128 0.259214 0.584322 1.71487e-38 3
0.154724 0.261163 0.588716 1.62268e-38 3
0.164856 0.262148 0.590937 1.40123e-38 3
0.176401 0.26515 0.597704 1.12457e-38 3
0.186771 0.266166 0.599994 1.2078e-38 3
0.195715 0.26515 0.597704 1.22638e-38 3
0.205373 0.26515 0.597704 1.15255e-38 3
0.213401 0.263141 0.593176 1.19847e-38 3
0.222144 0.262148 0.590937 1.19858e-38 3
0.231692 0.262148 0.590937 1.2078e-38 3
0.242154 0.263141 0.593176 1.48435e-38 3
0.250788 0.262148 0.590937 1.30918e-38 3
0.255426 0.248105 0.55928 1.37375e-38 3
0.263521 0.247222 0.55729 1.16174e-38 3
0.271559 0.246345 0.555314 1.30921e-38 3
0.587543 0.291888 0.657977 1.06961e-38 3
0.603244 0.294361 0.663553 1.14344e-38 3
0.611374 0.293119 0.660753 1.08812e-38 3
0.606691 0.285882 0.644438 9.77418e-39 3
0.617104 0.285882 0.644438 9.31212e-39 3
-0.295035 0.282351 0.614111 1.1433e-38 3
-0.285112 0.282351 0.614111 1.07887e-38 3
-0.27519 0.282351 0.614111 1.21716e-38 3
-0.266312 0.283463 0.616529 1.1433e-38 3
-0.258385 0.285712 0.621422 1.12486e-38 3
-0.250331 0.287998 0.626394 1.04181e-38 3
-0.24021 0.287998 0.626394 1.23535e-38 3
-0.163916 0.33962 0.738672 1.38301e-38 3
-0.153429 0.342855 0.745707 1.18018e-38 3
-0.14071 0.34123 0.742173 1.25404e-38 3
-0.124016 0.328765 0.715061 1.33684e-38 3
-0.111445 0.32579 0.70859 1.36457e-38 3
-0.0986567 0.321426 0.6991 1.36457e-38 3
-0.0869728 0.319998 0.695993 1.41056e-38 3
-0.0792495 0.334881 0.728365 1.39219e-38 3
-0.068436 0.33962 0.738672 1.39223e-38 3
-0.0567687 0.34123 0.742173 1.39219e-38 3
-0.0443567 0.338026 0.735204 1.52126e-38 3
-0.0380096 0.395602 0.860431 1.54896e-38 3
-0.0221592 0.363634 0.790901 1.32783e-38 3
-0.00876084 0.33962 0.738672 1.44772e-38 3
0.0126108 0.283463 0.616529 1.43825e-38 3
0.0251464 0.315787 0.686835 1.6503e-38 3
0.0362439 0.315787 0.686835 1.44758e-38 3
0.0465251 0.310343 0.674993 1.41074e-38 3
0.0639285 0.290321 0.631445 1.53967e-38 3
0.073245 0.286851 0.623898 1.52105e-38 3
0.0888066 0.272725 0.593176 1.52087e-38 3
0.097651 0.270675 0.588716 1.42882e-38 3
0.105968 0.267656 0.58215 1.51186e-38 3
0.114102 0.264704 0.575729 1.49339e-38 3
0.122503 0.262772 0.571527 1.32736e-38 3
0.132706 0.264704 0.575729 1.22613e-38 3
0.143592 0.267656 0.58215 1.47516e-38 3
0.154144 0.269661 0.586511 1.44747e-38 3
0.17573 0.273762 0.595431 1.41052e-38 3
0.185351 0.273762 0.595431 1.34613e-38 3
0.203048 0.271696 0.590937 1.50296e-38 3
0.212596 0.271696 0.590937 1.87168e-38 3
0.222144 0.271696 0.590937 1.77941e-38 3
0.231692 0.271696 0.590937 1.41985e-38 3
0.242154 0.272725 0.593176 1.23553e-38 3
0.250788 0.271696 0.590937 1.15252e-38 3
0.260336 0.271696 0.590937 1.28141e-38 3
0.259128 0.260868 0.567386 1.69633e-38 3
0.263521 0.256226 0.55729 1.29996e-38 3
0.269647 0.253519 0.551403 1.19861e-38 3
0.278556 0.253519 0.551403 1.08794e-38 3
0.285455 0.251747 0.547547 1.22609e-38 3
0.293276 0.250869 0.545639 1.05103e-38 3
-0.267364 0.294584 0.618966 1.21709e-38 3
-0.263615 0.30174 0.634002 1.03266e-38 3
-0.253371 0.30174 0.634002 1.06954e-38 3
-0.110943 0.33572 0.705398 1.25408e-38 3
-0.0982182 0.331243 0.695993 1.25393e-38 3
-0.0869728 0.331243 0.695993 1.39204e-38 3
-0.0413041 0.256999 0.539995 1.43829e-38 3
-0.0325792 0.256999 0.539995 1.54896e-38 3
-0.0238543 0.256999 0.539995 1.24471e-38 3
-0.0150774 0.256116 0.538139 1.24489e-38 3
-0.00638246 0.256116 0.538139 1.42006e-38 3
0.00231247 0.256116 0.538139 1.40155e-38 3
0.0110454 0.256999 0.539995 1.48435e-38 3
0.0582878 0.274006 0.575729 1.42903e-38 3
0.0683439 0.277062 0.58215 1.45651e-38 3
0.0786268 0.280187 0.588716 1.41027e-38 3
0.087156 0.277062 0.58215 1.44718e-38 3
0.0951472 0.273003 0.573621 1.29056e-38 3
0.10328 0.270035 0.567386 1.3829e-38 3
0.111239 0.267132 0.561285 1.36435e-38 3
0.119878 0.266178 0.55928 1.36435e-38 3
0.128915 0.266178 0.55928 1.37368e-38 3
0.140972 0.272006 0.571527 1.29077e-38 3
0.183952 0.281244 0.590937 1.30006e-38 3
0.190622 0.277062 0.58215 1.40173e-38 3
0.200028 0.277062 0.58215 1.73345e-38 3
0.211003 0.279138 0.586511 1.63197e-38 3
0.222985 0.28231 0.593176 2.00993e-38 3
0.231692 0.281244 0.590937 1.03262e-38 3
0.268701 0.261508 0.549468 1.15244e-38 3
0.272793 0.256999 0.539995 1.36449e-38 3
0.28446 0.259686 0.545639 1.47502e-38 3
0.293276 0.259686 0.545639 1.32762e-38 3
-0.217675 0.230718 0.468858 1.14341e-38 3
-0.25544 0.31453 0.639177 1.04188e-38 3
-0.108023 0.337982 0.686835 1.07898e-38 3
-0.0969259 0.337982 0.686835 1.32776e-38 3
-0.0413041 0.265724 0.539995 1.38304e-38 3
-0.0325792 0.265724 0.539995 1.38301e-38 3
-0.0238543 0.265724 0.539995 1.27241e-38 3
-0.0150774 0.264811 0.538139 1.12504e-38 3
-0.00638246 0.264811 0.538139 1.25411e-38 3
0.00230455 0.263904 0.536296 1.47531e-38 3
0.0109697 0.263904 0.536296 1.36453e-38 3
0.0196349 0.263904 0.536296 1.40137e-38 3
0.0283 0.263904 0.536296 1.33691e-38 3
0.0373489 0.266643 0.541863 1.53052e-38 3
0.0467511 0.270386 0.549468 1.39233e-38 3
0.0564209 0.274235 0.55729 1.51204e-38 3
0.0654253 0.274235 0.55729 1.4013e-38 3
0.0752328 0.277194 0.563304 1.38279e-38 3
0.0924383 0.274235 0.55729 1.29989e-38 3
0.101443 0.274235 0.55729 1.36446e-38 3
0.10928 0.271338 0.551403 1.33676e-38 3
0.117363 0.26944 0.547547 1.31836e-38 3
0.127548 0.272297 0.553351 1.4013e-38 3
0.153293 0.242327 0.492448 1.26322e-38 3
0.191486 0.274235 0.55729 1.41995e-38 3
0.186926 0.225322 0.45789 1.40144e-38 3
0.199968 0.223362 0.453908 1.04188e-38 3
0.204341 0.220171 0.447424 1.29081e-38 3
0.21157 0.220171 0.447424 1.38293e-38 3
0.240817 0.242327 0.492448 1.46584e-38 3
0.270924 0.263904 0.536296 1.4842e-38 3
0.282492 0.266643 0.541863 1.39201e-38 3
0.291247 0.266643 0.541863 1.19843e-38 3
-0.363789 0.239729 0.471682 8.3898e-39 3
-0.207614 0.235474 0.463309 1.1711e-38 3
-0.19895 0.234089 0.460584 1.11582e-38 3
-0.190389 0.23272 0.45789 1.19872e-38 3
-0.18299 0.23272 0.45789 1.1895e-38 3
-0.167216 0.231367 0.455228 1.21716e-38 3
-0.122373 0.230029 0.452597 1.20787e-38 3
-0.113745 0.227401 0.447424 1.06043e-38 3
-0.103557 0.221084 0.434996 1.12497e-38 3
-0.097613 0.223568 0.439883 1.31858e-38 3
-0.0920571 0.227401 0.447424 1.30014e-38 3
-0.0853154 0.228707 0.449995 1.06965e-38 3
-0.0413041 0.274449 0.539995 1.51222e-38 3
-0.0325792 0.274449 0.539995 1.41988e-38 3
-0.0238543 0.274449 0.539995 1.30007e-38 3
-0.0150258 0.272569 0.536296 1.36478e-38 3
-0.0063389 0.271639 0.534466 1.32787e-38 3
0.00229668 0.271639 0.534466 1.46609e-38 3
0.0109323 0.271639 0.534466 1.41063e-38 3
0.0195678 0.271639 0.534466 1.37375e-38 3
0.0283 0.272569 0.536296 1.53974e-38 3
0.0372201 0.274449 0.539995 1.37379e-38 3
0.0462641 0.276355 0.543745 1.47531e-38 3
0.0558249 0.280247 0.551403 1.50286e-38 3
0.0649629 0.281237 0.553351 1.35524e-38 3
0.0744296 0.283239 0.55729 1.3829e-38 3
0.0831381 0.282235 0.555314 1.32758e-38 3
0.0921106 0.282235 0.555314 1.37371e-38 3
0.101083 0.282235 0.555314 1.41056e-38 3
0.108897 0.279264 0.549468 1.31843e-38 3
0.116954 0.277318 0.545639 1.21698e-38 3
0.144881 0.249499 0.490904 1.39215e-38 3
0.152813 0.249499 0.490904 1.32776e-38 3
0.160242 0.248719 0.48937 1.21727e-38 3
0.170205 0.240454 0.473107 1.27237e-38 3
0.176781 0.23901 0.470266 1.21702e-38 3
0.185839 0.231367 0.455228 1.39219e-38 3
0.192077 0.230029 0.452597 1.25397e-38 3
0.198816 0.229367 0.451292 1.30928e-38 3
0.202032 0.224831 0.442368 1.32765e-38 3
0.209179 0.224831 0.442368 1.32762e-38 3
0.286457 0.279264 0.549468 1.47495e-38 3
0.293276 0.277318 0.545639 1.35509e-38 3
0.286753 0.248719 0.48937 1.2445e-38 3
-0.38319 0.245136 0.467458 7.74443e-39 3
-0.379031 0.247351 0.471682 8.75858e-39 3
-0.372532 0.248098 0.473107 9.03517e-39 3
-0.360531 0.245136 0.467458 9.58834e-39 3
-0.358326 0.24885 0.474541 1.01415e-38 3
-0.271238 0.233297 0.444882 1.12482e-38 3
-0.253264 0.230029 0.438651 1.17096e-38 3
-0.179835 0.235978 0.449995 1.26326e-38 3
-0.172565 0.235978 0.449995 1.14348e-38 3
-0.165294 0.235978 0.449995 1.29103e-38 3
-0.158478 0.236658 0.451292 1.33705e-38 3
-0.151624 0.237342 0.452597 1.26322e-38 3
-0.144311 0.237342 0.452597 1.3184e-38 3
-0.1386 0.240118 0.45789 1.22624e-38 3
-0.12202 0.236658 0.451292 1.24482e-38 3
-0.11246 0.231979 0.442368 1.14358e-38 3
-0.103557 0.228112 0.434996 1.42003e-38 3
-0.0973396 0.230029 0.438651 1.33694e-38 3
-0.0917949 0.233961 0.446149 1.3278e-38 3
-0.0848279 0.23463 0.447424 1.21702e-38 3
-0.0833115 0.251903 0.480363 1.61367e-38 3
-0.0238543 0.283174 0.539995 1.40155e-38 3
-0.0150258 0.281234 0.536296 1.3278e-38 3
-0.0063389 0.280274 0.534466 1.2817e-38 3
0.00229668 0.280274 0.534466 1.49375e-38 3
0.0109697 0.281234 0.536296 1.2817e-38 3
0.0196349 0.281234 0.536296 1.4107e-38 3
0.0283 0.281234 0.536296 1.44747e-38 3
0.0370922 0.282201 0.538139 1.39219e-38 3
0.045945 0.283174 0.539995 1.38311e-38 3
0.0554345 0.287134 0.547547 1.45691e-38 3
0.064507 0.288142 0.549468 1.35531e-38 3
0.0741657 0.291207 0.555314 1.43822e-38 3
0.0831381 0.291207 0.555314 1.36453e-38 3
0.0921106 0.291207 0.555314 1.37382e-38 3
0.101083 0.291207 0.555314 1.4291e-38 3
0.108516 0.287134 0.547547 1.39212e-38 3
0.129017 0.257431 0.490904 1.34588e-38 3
0.136949 0.257431 0.490904 1.33673e-38 3
0.144881 0.257431 0.490904 1.25386e-38 3
0.152813 0.257431 0.490904 1.46598e-38 3
0.159247 0.255032 0.48633 1.29081e-38 3
0.165562 0.252678 0.481841 1.24475e-38 3
0.168676 0.24587 0.468858 1.28155e-38 3
0.173141 0.241531 0.460584 1.2262e-38 3
0.178484 0.238722 0.455228 1.26315e-38 3
0.1853 0.23803 0.453908 1.26315e-38 3
0.191524 0.236658 0.451292 1.32772e-38 3
0.197676 0.235302 0.448706 1.35538e-38 3
0.201463 0.231325 0.441122 1.18936e-38 3
0.20859 0.231325 0.441122 1.25386e-38 3
0.213314 0.228748 0.436207 1.41048e-38 3
0.220362 0.228748 0.436207 1.28134e-38 3
0.235274 0.236658 0.451292 1.36413e-38 3
0.243267 0.237342 0.452597 1.28127e-38 3
0.254254 0.240822 0.459233 1.33666e-38 3
0.263996 0.24296 0.463309 1.31825e-38 3
0.278064 0.24885 0.474541 1.28137e-38 3
0.324465 0.26153 0.498721 1.10638e-38 3
0.360272 0.237342 0.452597 1.07869e-38 3
0.367584 0.237342 0.452597 1.11557e-38 3
0.374897 0.237342 0.452597 1.1155e-38 3
-0.380916 0.251189 0.464684 7.83663e-39 3
-0.377893 0.254206 0.470266 9.77273e-39 3
-0.369186 0.253445 0.468858 8.2976e-39 3
-0.355229 0.248972 0.460584 8.482e-39 3
-0.327131 0.244655 0.452597 1.05099e-38 3
-0.259962 0.224538 0.41538 1.07872e-38 3
-0.259624 0.236454 0.437426 1.13404e-38 3
-0.253264 0.237117 0.438651 1.17096e-38 3
-0.248263 0.239126 0.442368 1.17096e-38 3
-0.18657 0.242552 0.448706 1.10653e-38 3
-0.178808 0.241859 0.447424 1.15262e-38 3
-0.171578 0.241859 0.447424 1.17114e-38 3
-0.165294 0.243249 0.449995 1.16195e-38 3
-0.158936 0.244655 0.452597 1.28173e-38 3
-0.151624 0.244655 0.452597 1.17096e-38 3
-0.14515 0.246077 0.455228 1.15245e-38 3
-0.1386 0.247516 0.45789 1.20787e-38 3
-0.131587 0.248242 0.459233 1.1434e-38 3
-0.123443 0.246795 0.456555 1.12504e-38 3
-0.113745 0.241859 0.447424 1.374e-38 3
-0.105312 0.239126 0.442368 1.37393e-38 3
-0.099857 0.243249 0.449995 1.35538e-38 3
-0.0933913 0.245364 0.453908 1.17106e-38 3
-0.0860573 0.245364 0.453908 1.23549e-38 3
0.0109323 0.28891 0.534466 1.39233e-38 3
0.046104 0.292909 0.541863 1.36467e-38 3
0.0554345 0.295981 0.547547 1.42003e-38 3
0.0642815 0.295981 0.547547 1.46602e-38 3
0.0921106 0.30018 0.555314 1.33702e-38 3
0.128614 0.264533 0.48937 1.25368e-38 3
0.136521 0.264533 0.48937 1.33673e-38 3
0.144881 0.265363 0.490904 1.33684e-38 3
0.153777 0.267037 0.494001 1.52126e-38 3
0.159743 0.263709 0.487846 1.38301e-38 3
0.165214 0.248242 0.459233 1.29077e-38 3
0.171128 0.246077 0.455228 1.32758e-38 3
0.17694 0.24395 0.451292 1.24468e-38 3
0.184232 0.24395 0.451292 1.18014e-38 3
0.190426 0.242552 0.448706 1.49368e-38 3
0.197111 0.241859 0.447424 1.38301e-38 3
0.200897 0.237783 0.439883 1.32772e-38 3
0.208004 0.237783 0.439883 1.28155e-38 3
0.212721 0.235141 0.434996 1.3829e-38 3
0.218536 0.233842 0.432592 1.29059e-38 3
0.226778 0.235141 0.434996 1.4103e-38 3
0.235113 0.236454 0.437426 1.2996e-38 3
0.247716 0.241859 0.447424 1.47484e-38 3
0.263996 0.250446 0.463309 1.27212e-38 3
0.279759 0.258081 0.477434 1.25368e-38 3
0.2866 0.257297 0.475983 1.32744e-38 3
0.297912 0.260464 0.481841 1.30903e-38 3
0.314404 0.267882 0.495565 1.36449e-38 3
0.321394 0.267037 0.494001 1.2446e-38 3
0.32226 0.261267 0.483328 1.27226e-38 3
0.329053 0.260464 0.481841 1.08787e-38 3
0.335806 0.259665 0.480363 1.18007e-38 3
0.344304 0.248972 0.460584 1.07876e-38 3
0.349689 0.247516 0.45789 1.11564e-38 3
0.356046 0.246795 0.456555 1.0972e-38 3
0.360272 0.244655 0.452597 1.12486e-38 3
-0.371007 0.251968 0.452597 9.40395e-39 3
-0.371204 0.257171 0.461942 8.85078e-39 3
-0.352122 0.254172 0.456555 9.21884e-39 3
-0.339792 0.25052 0.449995 8.20505e-39 3
-0.330621 0.249088 0.447424 1.15244e-38 3
-0.321555 0.247673 0.444882 1.19858e-38 3
-0.271227 0.229423 0.412101 1.0511e-38 3
-0.251297 0.223541 0.401534 8.94333e-39 3
-0.258901 0.242844 0.436207 9.49723e-39 3
-0.251853 0.242844 0.436207 1.18018e-38 3
-0.245489 0.243522 0.437426 1.17096e-38 3
-0.205557 0.238199 0.427865 1.12497e-38 3
-0.167703 0.254172 0.456555 1.18039e-38 3
-0.160327 0.254172 0.456555 1.20794e-38 3
-0.145573 0.254172 0.456555 1.24471e-38 3
-0.138196 0.254172 0.456555 1.22635e-38 3
-0.131587 0.255662 0.459233 1.16195e-38 3
-0.123443 0.254172 0.456555 1.36482e-38 3
-0.113098 0.247673 0.444882 1.09741e-38 3
-0.105312 0.246274 0.442368 1.29092e-38 3
0.0467511 0.305898 0.549468 1.52151e-38 3
0.0558249 0.306975 0.551403 1.36478e-38 3
0.0647342 0.306975 0.551403 1.49371e-38 3
0.0744296 0.310252 0.55729 1.5858e-38 3
0.0828444 0.30806 0.553351 1.37386e-38 3
0.134421 0.268249 0.481841 1.5119e-38 3
0.143087 0.26991 0.484825 1.35524e-38 3
0.153293 0.274154 0.492448 1.41063e-38 3
0.158264 0.269077 0.483328 1.34613e-38 3
0.164048 0.265795 0.477434 1.32769e-38 3
0.16425 0.254172 0.456555 1.30925e-38 3
0.170632 0.252698 0.453908 1.34609e-38 3
0.17694 0.251242 0.451292 1.2539e-38 3
0.184232 0.251242 0.451292 1.29077e-38 3
0.190426 0.249802 0.448706 1.25393e-38 3
0.19655 0.248379 0.446149 1.26315e-38 3
0.200897 0.24489 0.439883 1.29085e-38 3
0.208004 0.24489 0.439883 1.28159e-38 3
0.212721 0.242169 0.434996 1.41985e-38 3
0.218536 0.240831 0.432592 1.53959e-38 3
0.225525 0.240831 0.432592 1.50261e-38 3
0.231874 0.240168 0.431401 1.47473e-38 3
0.239504 0.240831 0.432592 1.50232e-38 3
0.278064 0.264184 0.474541 1.45633e-38 3
0.283157 0.261804 0.470266 1.42874e-38 3
0.295187 0.265795 0.477434 1.39201e-38 3
0.30759 0.26991 0.484825 1.18929e-38 3
0.315424 0.26991 0.484825 1.37368e-38 3
0.3164 0.264184 0.474541 1.30914e-38 3
0.324068 0.264184 0.474541 1.36442e-38 3
0.333758 0.265795 0.477434 1.22617e-38 3
0.337358 0.262593 0.471682 1.13401e-38 3
0.337856 0.257171 0.461942 1.20776e-38 3
0.361316 0.252698 0.453908 1.07876e-38 3
0.35374 0.228821 0.411019 1.10635e-38 3
