# .PCD v0.7 - Point Cloud Data file format
VERSION 0.7
FIELDS x y z rgb label
SIZE 4 4 4 4 4
TYPE F F F F U
COUNT 1 1 1 1 1
WIDTH 1967
HEIGHT 1
VIEWPOINT 0 0 0 1 0 0 0
POINTS 1967
DATA ascii
-1.20579 -0.634628 2.89997 5.62393e-39 1
-1.19548 -0.744999 3.40431 4.70234e-39 1
-1.17004 -0.675313 3.33188 4.97856e-39 1
-1.22204 -0.6491 3.47996 4.79417e-39 1
-1.24982 -0.606347 3.55905 4.79417e-39 1
0.802135 -0.480418 3.47996 5.53355e-39 1
0.858362 -0.480418 3.47996 6.36259e-39 1
1.52106 -0.379277 2.74734 3.22794e-39 1
1.48718 -0.360314 2.60997 3.31834e-39 1
1.48002 -0.34869 2.52578 2.85772e-39 1
1.40733 -0.322669 2.33729 3.1343e-39 1
1.42385 -0.317924 2.30292 3.04211e-39 1
0.681058 -0.360162 2.95469 5.71866e-39 1
0.788292 -0.389563 3.19589 6.82393e-39 1
1.58812 -0.360162 2.95469 3.68784e-39 1
1.49484 -0.329114 2.69997 3.04283e-39 1
1.48718 -0.318143 2.60997 3.22614e-39 1
1.48002 -0.30788 2.52578 3.2265e-39 1
1.42866 -0.289221 2.3727 3.31869e-39 1
1.4451 -0.284904 2.33729 2.85772e-39 1
1.50533 -0.289221 2.3727 2.94991e-39 1
0.668446 -0.306636 2.89997 6.36403e-39 1
0.757378 -0.324674 3.07056 7.5615e-39 1
1.53037 -0.301061 2.84724 4.24101e-39 1
1.4695 -0.28065 2.65421 3.59565e-39 1
1.4628 -0.271449 2.56719 2.95027e-39 1
1.45652 -0.262831 2.48569 3.31869e-39 1
1.40733 -0.24714 2.33729 3.59528e-39 1
1.42385 -0.243505 2.30292 3.31869e-39 1
1.46105 -0.243505 2.30292 3.04139e-39 1
0.633318 -0.264682 2.95469 8.11395e-39 1
0.668446 -0.25978 2.89997 7.74661e-39 1
0.742813 -0.269772 3.01151 9.31322e-39 1
0.853161 -0.203306 2.26954 9.58908e-39 1
0.877119 -0.200402 2.23712 8.57565e-39 1
1.6504 -0.275061 3.07056 4.05698e-39 1
1.49484 -0.241864 2.69997 3.68784e-39 1
1.48718 -0.233802 2.60997 3.87223e-39 1
1.52935 -0.233802 2.60997 3.78039e-39 1
1.38664 -0.206296 2.30292 3.31941e-39 1
1.40321 -0.203306 2.26954 3.31869e-39 1
1.43988 -0.203306 2.26954 3.31869e-39 1
0.645497 -0.221114 3.01151 7.19236e-39 1
0.694155 -0.221114 3.01151 1.0143e-38 1
0.742813 -0.221114 3.01151 1.17096e-38 1
0.685017 -0.183014 3.19589 9.86567e-39 3
0.707766 -0.175837 3.07056 1.30925e-38 3
0.92434 -0.179354 3.13197 2.28645e-38 3
0.886313 -0.163049 2.84724 2.28638e-38 3
1.62095 -0.218724 3.81947 8.29762e-39 1
1.8155 -0.235992 4.12101 8.11251e-39 1
1.93295 -0.24237 4.23239 6.73174e-39 1
2.00134 -0.24237 4.23239 5.80978e-39 1
0.707766 -0.126225 3.07056 1.11568e-38 3
0.98334 -0.136967 3.33188 2.27727e-38 3
0.919759 -0.121462 2.95469 2.28642e-38 3
0.949582 -0.119212 2.89997 2.31415e-38 3
0.943994 -0.112938 2.74734 2.2772e-38 3
0.988384 -0.112938 2.74734 2.06526e-38 3
1.01497 -0.110991 2.69997 1.4752e-38 3
1.18074 -0.123797 3.01151 1.36453e-38 3
1.27857 -0.128749 3.13197 1.11564e-38 3
0.98334 -0.0831327 3.33188 2.08373e-38 3
0.937446 -0.0751391 3.01151 2.24972e-38 3
0.949582 -0.0723562 2.89997 1.99143e-38 3
0.996438 -0.0723562 2.89997 1.88076e-38 3
1.02433 -0.0710406 2.84724 1.77945e-38 3
1.03277 -0.068548 2.74734 1.85321e-38 3
1.22797 -0.0781447 3.13197 2.11125e-38 3
1.42063 -0.0868274 3.47996 1.76094e-38 3
1.62095 -0.0952984 3.81947 1.13397e-38 3
1.76895 -0.100186 4.01534 1.09706e-38 3
1.88208 -0.102822 4.12101 8.85187e-39 3
1.94867 -0.102822 4.12101 8.2065e-39 3
0.108931 -0.00717193 0.815617 1.14326e-38 3
0.122109 -0.00717193 0.815617 1.27234e-38 3
0.135287 -0.00717193 0.815617 1.40152e-38 3
1.07481 -0.0320235 3.64182 1.65045e-38 3
0.994841 -0.0281022 3.19589 1.65974e-38 3
1.00544 -0.0270002 3.07056 1.50286e-38 3
1.16973 -0.029935 3.40431 1.28149e-38 3
1.14975 -0.0281022 3.19589 1.2355e-38 3
1.05122 -0.0245895 2.7964 1.15252e-38 3
1.33475 -0.029935 3.40431 1.19862e-38 3
1.52211 -0.032786 3.72853 1.19862e-38 3
1.62095 -0.0335856 3.81947 1.2078e-38 3
1.72473 -0.0344253 3.91496 1.22624e-38 3
1.93295 -0.0372165 4.23239 1.57665e-38 3
2.00134 -0.0372165 4.23239 2.27734e-38 3
0.108931 0.00600633 0.815617 7.65296e-39 3
0.122109 0.00600633 0.815617 8.20577e-39 3
0.135287 0.00600633 0.815617 8.85222e-39 3
0.81444 0.032949 4.47424 9.221e-39 3
1.21352 0.0320337 4.34996 1.4107e-38 3
1.1004 0.0274575 3.72853 1.69655e-38 3
1.10789 0.0262094 3.55905 1.58591e-38 3
1.22089 0.0274575 3.72853 1.41989e-38 3
1.45426 0.031168 4.23239 1.34617e-38 3
1.40845 0.0288304 3.91496 1.30007e-38 3
1.09015 0.0213558 2.89997 1.22631e-38 3
1.36441 0.025627 3.47996 1.17089e-38 3
1.48671 0.0268189 3.64182 1.13404e-38 3
1.58235 0.0274575 3.72853 1.01422e-38 3
1.68266 0.0281272 3.81947 9.8653e-39 3
1.78798 0.0288304 3.91496 8.94334e-39 3
1.94867 0.0303478 4.12101 8.48309e-39 3
0.876774 0.0120127 1.63123 4.88674e-39 3
0.722505 0.00961012 1.30499 3.87223e-39 3
0.686391 0.00887088 1.2046 4.33284e-39 3
0.655436 0.00823725 1.11856 4.33321e-39 3
0.628608 0.0076881 1.04399 3.87258e-39 3
0.597663 0.00711861 0.966657 3.78039e-39 3
0.577626 0.00670474 0.910456 4.14917e-39 3
0.683557 0.0969326 4.12101 8.48236e-39 3
0.81444 0.105241 4.47424 8.57456e-39 3
0.574734 0.0682118 2.89997 9.40432e-39 3
1.1759 0.105241 4.47424 1.0327e-38 3
1.24819 0.105241 4.47424 1.06958e-38 3
1.12724 0.08984 3.81947 1.3001e-38 3
1.16065 0.0877009 3.72853 1.19869e-38 3
1.25067 0.08984 3.81947 1.07869e-38 3
1.45426 0.0995524 4.23239 1.06025e-38 3
1.40845 0.092086 3.91496 1.09713e-38 3
1.13208 0.0708354 3.01151 9.77275e-39 3
1.39542 0.0837145 3.55905 1.05103e-38 3
1.48671 0.0856614 3.64182 1.00497e-38 3
1.54555 0.0856614 3.64182 8.85115e-39 3
1.6044 0.0856614 3.64182 8.57456e-39 3
1.66324 0.0856614 3.64182 9.12702e-39 3
2.05693 0.102318 4.34996 8.20686e-39 3
2.01525 0.0969326 4.12101 6.82392e-39 3
2.08184 0.0969326 4.12101 6.36186e-39 3
0.887393 0.0400374 1.70216 6.08527e-39 3
0.825199 0.0361122 1.53528 6.36186e-39 3
0.722505 0.0306953 1.30499 5.80797e-39 3
0.686391 0.0283342 1.2046 5.90017e-39 3
0.646204 0.0259397 1.10281 5.1626e-39 3
0.628608 0.0245563 1.04399 5.2548e-39 3
0.597663 0.0227373 0.966657 4.97857e-39 3
0.551954 0.0204636 0.869991 4.70198e-39 3
0.536221 0.0193865 0.824202 4.79418e-39 3
0.615769 0.0198034 0.841927 3.68783e-39 3
0.629372 0.0198034 0.841927 3.87258e-39 3
-1.76625 0.182755 4.60584 5.99416e-39 3
-1.59784 0.172602 4.34996 5.81048e-39 3
-1.61741 0.182755 4.60584 5.99524e-39 3
0.021029 0.194177 4.8937 8.29905e-39 3
0.81444 0.177533 4.47424 8.85079e-39 3
0.969863 0.194177 4.8937 8.57456e-39 3
1.1759 0.177533 4.47424 9.77311e-39 3
1.2849 0.182755 4.60584 1.08791e-38 3
1.35932 0.182755 4.60584 1.26319e-38 3
1.28282 0.163517 4.12101 1.10646e-38 3
1.34941 0.163517 4.12101 1.06025e-38 3
1.45426 0.167937 4.23239 9.58836e-39 3
1.48258 0.163517 4.12101 9.68055e-39 3
1.11072 0.117239 2.95469 9.21993e-39 3
1.39542 0.14122 3.55905 9.31141e-39 3
1.48671 0.144504 3.64182 9.58835e-39 3
1.14584 0.107132 2.69997 8.482e-39 3
1.43727 0.129451 3.26247 8.20541e-39 3
1.48998 0.129451 3.26247 7.2831e-39 3
1.19435 0.10022 2.52578 7.28382e-39 3
0.890461 0.0722519 1.82091 7.37637e-39 3
0.85989 0.0675398 1.70216 6.17711e-39 3
0.800393 0.0609183 1.53528 5.62429e-39 3
0.765185 0.0564879 1.42362 6.36115e-39 3
0.722505 0.0517805 1.30499 6.36115e-39 3
0.697116 0.0485443 1.22343 6.17639e-39 3
0.695159 0.0470732 1.18635 5.16296e-39 3
0.628608 0.0414244 1.04399 6.4537e-39 3
0.615769 0.0334068 0.841927 4.14952e-39 3
-1.76625 0.257173 4.60584 4.98037e-39 3
-1.59784 0.242886 4.34996 5.1644e-39 3
-1.52756 0.242886 4.34996 5.44099e-39 3
0.158915 0.168152 3.01151 6.82536e-39 3
0.168654 0.136623 2.44685 8.02282e-39 3
0.170821 0.112101 2.00767 7.74659e-39 3
0.20326 0.112101 2.00767 9.40612e-39 3
0.235699 0.112101 2.00767 8.94514e-39 3
0.360599 0.150757 2.69997 8.85294e-39 3
0.669856 0.249825 4.47424 8.02246e-39 3
1.1759 0.249825 4.47424 9.68019e-39 3
1.45426 0.236321 4.23239 1.02341e-38 3
1.00603 0.156141 2.7964 1.0049e-38 3
0.981135 0.145731 2.60997 9.86458e-39 3
0.787158 0.112101 2.00767 9.86458e-39 3
0.799107 0.109299 1.95748 8.66567e-39 3
0.830735 0.109299 1.95748 8.75787e-39 3
0.932284 0.118161 2.11619 7.92739e-39 3
0.966476 0.118161 2.11619 7.74444e-39 3
0.822772 0.0971543 1.73998 6.63809e-39 3
0.765797 0.0874389 1.56598 6.63737e-39 3
0.732499 0.0809619 1.44999 6.45298e-39 3
0.742183 0.0794899 1.42362 5.71613e-39 3
0.713308 0.0741008 1.32711 7.37493e-39 3
0.6881 0.069396 1.24284 6.54481e-39 3
0.697116 0.0683116 1.22343 6.54409e-39 3
0.716883 0.0683116 1.22343 5.992e-39 3
4.16545 0.242886 4.34996 3.68747e-39 3
4.0128 0.230102 4.12101 3.13394e-39 3
3.52311 0.198725 3.55905 3.13394e-39 3
2.81334 0.156141 2.7964 3.31832e-39 3
2.85852 0.156141 2.7964 3.50307e-39 3
5.21971 0.242886 4.34996 2.39709e-39 3
5.28999 0.242886 4.34996 2.94991e-39 3
-1.87664 0.352316 4.8937 5.2566e-39 3
-1.59784 0.31317 4.34996 4.51903e-39 3
-1.52756 0.31317 4.34996 5.1644e-39 3
-0.19765 0.322118 4.47424 1.06965e-38 3
-0.125358 0.322118 4.47424 1.04206e-38 3
-0.040376 0.245089 3.40431 1.05117e-38 3
0.0146289 0.245089 3.40431 1.05117e-38 3
0.0865717 0.304706 4.23239 9.86674e-39 3
0.143334 0.281853 3.91496 9.96001e-39 3
0.129119 0.176158 2.44685 9.40576e-39 3
0.149914 0.156585 2.17498 1.00511e-38 3
0.170821 0.14454 2.00767 9.40612e-39 3
0.20326 0.14454 2.00767 8.76075e-39 3
0.41783 0.25623 3.55905 8.94478e-39 3
0.475335 0.25623 3.55905 7.83843e-39 3
0.586124 0.281853 3.91496 8.48344e-39 3
0.702032 0.304706 4.23239 9.40432e-39 3
0.8638 0.34164 4.74541 1.07869e-38 3
0.816727 0.296687 4.12101 9.77274e-39 3
0.883312 0.296687 4.12101 1.04181e-38 3
0.990418 0.28908 4.01534 1.00493e-38 3
1.08307 0.296687 4.12101 1.06943e-38 3
1.41599 0.296687 4.12101 9.49652e-39 3
1.48258 0.296687 4.12101 9.68019e-39 3
0.754719 0.14454 2.00767 9.95677e-39 3
0.730932 0.134216 1.86427 9.95713e-39 3
0.639286 0.112741 1.56598 9.95713e-39 3
0.664588 0.112741 1.56598 1.03252e-38 3
0.703969 0.115042 1.59794 9.95641e-39 3
0.729788 0.115042 1.59794 9.95713e-39 3
0.712014 0.108405 1.50575 9.95713e-39 3
0.66017 0.0971906 1.34999 8.94226e-39 3
0.648442 0.0924108 1.28359 8.75787e-39 3
0.658388 0.0909203 1.26289 8.29761e-39 3
0.668019 0.0894771 1.24284 8.20469e-39 3
0.6881 0.0894771 1.24284 8.66567e-39 3
0.697116 0.088079 1.22343 8.20362e-39 3
0.728262 0.0894771 1.24284 7.55968e-39 3
4.60706 0.352316 4.8937 3.41053e-39 3
3.94622 0.296687 4.12101 3.1343e-39 3
4.0128 0.296687 4.12101 3.31833e-39 3
3.69087 0.268431 3.72853 3.50272e-39 3
3.58061 0.25623 3.55905 3.31832e-39 3
4.00193 0.281853 3.91496 3.41088e-39 3
5.87217 0.352316 4.8937 3.41124e-39 3
5.95124 0.352316 4.8937 3.1343e-39 3
-2.43013 0.431386 4.8937 6.3615e-39 3
-2.21276 0.40601 4.60584 5.99343e-39 3
-1.79757 0.431386 4.8937 5.0722e-39 3
-1.52756 0.383454 4.34996 4.79561e-39 3
-0.224952 0.328675 3.72853 9.31356e-39 3
-0.119272 0.238006 2.69997 1.00511e-38 3
-0.0797731 0.250988 2.84724 1.02359e-38 3
-0.040376 0.300094 3.40431 1.07883e-38 3
0.0134586 0.276087 3.13197 1.04199e-38 3
0.0615991 0.265468 3.01151 1.08809e-38 3
0.110257 0.265468 3.01151 1.06043e-38 3
0.129119 0.215693 2.44685 1.09716e-38 3
0.154198 0.197205 2.23712 1.04185e-38 3
0.185056 0.191727 2.17498 1.00508e-38 3
0.233151 0.203005 2.30292 1.04195e-38 3
0.408544 0.306763 3.47996 1.07883e-38 3
0.475335 0.313735 3.55905 1.0143e-38 3
0.586124 0.345108 3.91496 1.00508e-38 3
0.66603 0.353957 4.01534 9.86565e-39 3
0.750142 0.363272 4.12101 1.07876e-38 3
0.738944 0.328675 3.72853 1.07869e-38 3
0.799187 0.328675 3.72853 1.06025e-38 3
0.85943 0.328675 3.72853 1.12471e-38 3
0.742813 0.265468 3.01151 1.06018e-38 3
0.823131 0.276087 3.13197 1.0694e-38 3
0.929505 0.293709 3.33188 1.22613e-38 3
0.754719 0.176979 2.00767 9.86494e-39 3
0.613983 0.138043 1.56598 9.58835e-39 3
0.591931 0.127818 1.44999 9.58835e-39 3
0.572921 0.119003 1.34999 9.49615e-39 3
0.584653 0.116986 1.32711 9.77274e-39 3
0.595994 0.115036 1.30499 9.31176e-39 3
0.606963 0.11315 1.28359 9.58835e-39 3
0.617578 0.111325 1.26289 1.0233e-38 3
0.618046 0.107846 1.22343 9.77238e-39 3
0.637814 0.107846 1.22343 8.66639e-39 3
0.657581 0.107846 1.22343 8.20469e-39 3
0.677348 0.107846 1.22343 8.85042e-39 3
0.697116 0.107846 1.22343 9.49435e-39 3
4.44892 0.431386 4.8937 3.31833e-39 3
4.26164 0.40601 4.60584 3.9637e-39 3
4.33606 0.40601 4.60584 3.59563e-39 3
3.94622 0.363272 4.12101 3.78002e-39 3
4.0128 0.363272 4.12101 3.59563e-39 3
3.87542 0.345108 3.91496 3.50344e-39 3
4.14597 0.363272 4.12101 3.68783e-39 3
5.00241 0.431386 4.8937 3.41124e-39 3
5.87217 0.431386 4.8937 3.41124e-39 3
5.95124 0.431386 4.8937 4.05661e-39 3
-0.26379 0.296992 2.84724 7.01156e-39 3
-0.206521 0.28163 2.69997 8.57708e-39 3
-0.160135 0.276857 2.65421 8.39341e-39 3
-0.115296 0.272243 2.60997 9.68379e-39 3
-0.0797731 0.296992 2.84724 9.96001e-39 3
-0.0357173 0.314126 3.01151 1.01444e-38 3
0.0134586 0.326691 3.13197 9.77454e-39 3
0.064063 0.326691 3.13197 1.02355e-38 3
0.114668 0.326691 3.13197 1.07887e-38 3
0.129119 0.255228 2.44685 1.16167e-38 3
0.163543 0.247493 2.3727 1.10635e-38 3
0.20188 0.247493 2.3727 1.09716e-38 3
0.247723 0.255228 2.44685 1.04185e-38 3
0.353548 0.314126 3.01151 1.1156e-38 3
0.510115 0.398404 3.81947 1.09716e-38 3
0.601153 0.418835 4.01534 1.14326e-38 3
0.702032 0.441475 4.23239 1.13415e-38 3
0.8638 0.494987 4.74541 1.00508e-38 3
0.940474 0.494987 4.74541 1.07876e-38 3
0.839444 0.379874 3.64182 1.12471e-38 3
0.702296 0.296992 2.84724 1.1523e-38 3
0.734938 0.291689 2.7964 1.15241e-38 3
0.794305 0.296992 2.84724 1.22609e-38 3
0.810824 0.286571 2.74734 1.14312e-38 3
0.855214 0.286571 2.74734 1.07865e-38 3
0.899604 0.286571 2.74734 1.13401e-38 3
1.01524 0.308199 2.95469 1.07876e-38 3
1.17371 0.340303 3.26247 1.06947e-38 3
0.684513 0.189937 1.82091 1.03259e-38 3
0.613983 0.163346 1.56598 1.00486e-38 3
0.591931 0.151246 1.44999 9.68054e-39 3
0.572921 0.140815 1.34999 9.31212e-39 3
0.584653 0.138429 1.32711 9.22028e-39 3
0.525877 0.120107 1.15146 8.66639e-39 3
0.544481 0.120107 1.15146 8.20541e-39 3
0.563086 0.120107 1.15146 8.66567e-39 3
0.590372 0.1219 1.16864 8.85006e-39 3
0.609255 0.1219 1.16864 7.83663e-39 3
0.637654 0.123747 1.18635 8.20469e-39 3
0.677348 0.127614 1.22343 8.20505e-39 3
2.02797 0.37124 3.55905 7.92739e-39 3
3.88431 0.453738 4.34996 4.88565e-39 3
3.74646 0.429857 4.12101 4.51759e-39 3
3.81305 0.429857 4.12101 4.70198e-39 3
3.87963 0.429857 4.12101 3.96441e-39 3
3.94622 0.429857 4.12101 4.14952e-39 3
4.0128 0.429857 4.12101 4.1488e-39 3
4.30602 0.453738 4.34996 3.87222e-39 3
-0.3154 0.410104 3.40431 6.92152e-39 3
-0.213896 0.336871 2.7964 8.02643e-39 3
-0.160135 0.319742 2.65421 7.93388e-39 3
-0.119272 0.325255 2.69997 8.58068e-39 3
-0.0797731 0.342996 2.84724 9.50156e-39 3
-0.0371459 0.377296 3.13197 1.01448e-38 3
0.0134586 0.377296 3.13197 1.01448e-38 3
0.0628069 0.369898 3.07056 1.06979e-38 3
0.114668 0.377296 3.13197 1.07887e-38 3
0.175821 0.401379 3.33188 1.09727e-38 3
0.224871 0.393016 3.26247 1.15266e-38 3
0.208188 0.294762 2.44685 1.18947e-38 3
0.247723 0.294762 2.44685 1.17096e-38 3
0.353548 0.362784 3.01151 1.24464e-38 3
0.522868 0.47162 3.91496 1.1433e-38 3
0.601153 0.483713 4.01534 1.06032e-38 3
0.768002 0.401379 3.33188 1.07865e-38 3
0.623005 0.304271 2.52578 1.03255e-38 3
0.663815 0.304271 2.52578 1.04174e-38 3
0.75322 0.325255 2.69997 1.0233e-38 3
0.757655 0.309259 2.56719 1.01415e-38 3
0.786245 0.304271 2.52578 1.02337e-38 3
0.840614 0.309259 2.56719 1.03263e-38 3
0.927718 0.325255 2.69997 9.77418e-39 3
1.08342 0.362784 3.01151 9.68198e-39 3
0.795515 0.25493 2.11619 1.05103e-38 3
1.04065 0.319742 2.65421 1.05103e-38 3
1.16234 0.342996 2.84724 1.03259e-38 3
1.20834 0.342996 2.84724 1.03259e-38 3
1.25435 0.342996 2.84724 1.01415e-38 3
0.525877 0.138712 1.15146 9.95713e-39 3
0.544481 0.138712 1.15146 9.68054e-39 3
0.563086 0.138712 1.15146 9.40395e-39 3
0.590372 0.140782 1.16864 9.03517e-39 3
0.609255 0.140782 1.16864 8.57491e-39 3
0.637654 0.142915 1.18635 7.74479e-39 3
0.677348 0.147381 1.22343 7.37565e-39 3
3.67988 0.496442 4.12101 4.51759e-39 3
3.55914 0.47162 3.91496 5.07076e-39 3
3.4499 0.449162 3.72853 4.79417e-39 3
3.68565 0.47162 3.91496 4.97856e-39 3
3.7489 0.47162 3.91496 5.07076e-39 3
3.81216 0.47162 3.91496 4.7027e-39 3
-0.260396 0.465109 3.40431 6.7375e-39 3
-0.152387 0.345081 2.52578 7.93532e-39 3
-0.10809 0.334297 2.44685 7.84348e-39 3
-0.0827834 0.40368 2.95469 8.76507e-39 3
-0.0371459 0.4279 3.13197 8.85619e-39 3
0.0134586 0.4279 3.13197 1.00544e-38 3
0.0628069 0.41951 3.07056 1.00544e-38 3
0.114668 0.4279 3.13197 1.06979e-38 3
0.172158 0.445729 3.26247 1.13433e-38 3
0.220282 0.436633 3.19589 1.12511e-38 3
0.20188 0.324167 2.3727 1.13433e-38 3
0.247723 0.334297 2.44685 1.08812e-38 3
0.316974 0.36888 2.69997 1.18947e-38 3
0.454668 0.465109 3.40431 1.12493e-38 3
0.551804 0.305643 2.23712 1.20773e-38 3
0.58795 0.305643 2.23712 1.18932e-38 3
0.642452 0.314633 2.30292 1.26308e-38 3
0.679661 0.314633 2.30292 1.12479e-38 3
0.716871 0.314633 2.30292 1.0972e-38 3
0.776931 0.324167 2.3727 1.04185e-38 3
0.896794 0.356584 2.60997 1.13415e-38 3
1.08342 0.411443 3.01151 1.08805e-38 3
1.07033 0.389 2.84724 1.06947e-38 3
1.05859 0.36888 2.69997 1.06025e-38 3
1.16234 0.389 2.84724 1.06947e-38 3
1.30311 0.41951 3.07056 1.03259e-38 3
1.40794 0.436633 3.19589 1.04181e-38 3
0.576768 0.17254 1.26289 1.06947e-38 3
0.578511 0.167149 1.22343 1.01415e-38 3
0.580149 0.162083 1.18635 9.58834e-39 3
0.599317 0.162083 1.18635 9.58834e-39 3
0.618486 0.162083 1.18635 1.01415e-38 3
0.657581 0.167149 1.22343 9.21956e-39 3
3.0949 0.465109 3.40431 5.34735e-39 3
3.14991 0.465109 3.40431 4.88637e-39 3
3.20491 0.465109 3.40431 5.25515e-39 3
3.25992 0.465109 3.40431 4.88637e-39 3
3.4656 0.48625 3.55905 4.51866e-39 3
3.52311 0.48625 3.55905 4.88709e-39 3
-0.152387 0.385891 2.52578 7.65946e-39 3
-0.10809 0.373832 2.44685 7.65909e-39 3
-0.068555 0.373832 2.44685 8.94946e-39 3
-0.037904 0.48827 3.19589 9.2257e-39 3
0.0134586 0.478505 3.13197 9.68595e-39 3
0.0628069 0.469122 3.07056 1.06079e-38 3
0.114668 0.478505 3.13197 1.07912e-38 3
0.165272 0.478505 3.13197 1.14359e-38 3
0.207574 0.460101 3.01151 1.116e-38 3
0.180055 0.323314 2.11619 1.1989e-38 3
0.208609 0.314806 2.06051 1.2634e-38 3
0.241901 0.314806 2.06051 1.15266e-38 3
0.282631 0.323314 2.11619 1.14344e-38 3
0.334928 0.341789 2.23712 1.03281e-38 3
0.519504 0.478505 3.13197 1.21716e-38 3
0.593863 0.498442 3.26247 1.22627e-38 3
0.752002 0.498442 3.26247 1.28137e-38 3
0.551804 0.341789 2.23712 1.23538e-38 3
0.58795 0.341789 2.23712 1.35528e-38 3
0.60676 0.332295 2.17498 1.29077e-38 3
0.660242 0.341789 2.23712 1.22627e-38 3
0.696389 0.341789 2.23712 1.16174e-38 3
0.75408 0.351842 2.30292 1.1801e-38 3
0.85409 0.379766 2.48569 1.18947e-38 3
1.02433 0.435004 2.84724 1.13419e-38 3
1.07033 0.435004 2.84724 1.15252e-38 3
1.05859 0.412504 2.69997 1.17088e-38 3
1.12155 0.419741 2.74734 1.19854e-38 3
1.3563 0.48827 3.19589 1.05103e-38 3
0.627538 0.202756 1.32711 1.05103e-38 3
0.607775 0.189883 1.24284 9.77273e-39 3
0.627856 0.189883 1.24284 9.86493e-39 3
0.647938 0.189883 1.24284 1.06021e-38 3
0.858881 0.244135 1.59794 1.0049e-38 3
2.49706 0.427236 2.7964 6.3615e-39 3
2.54224 0.427236 2.7964 5.34735e-39 3
2.58742 0.427236 2.7964 4.88637e-39 3
2.63261 0.427236 2.7964 4.88636e-39 3
2.67779 0.427236 2.7964 5.53173e-39 3
2.72297 0.427236 2.7964 5.44026e-39 3
2.6727 0.412504 2.69997 4.6105e-39 3
3.28223 0.498442 3.26247 4.88709e-39 3
3.33494 0.498442 3.26247 4.79418e-39 3
2.29358 0.332295 2.17498 4.79418e-39 3
1.42091 0.202756 1.32711 4.97893e-39 3
1.39507 0.196109 1.28359 5.53282e-39 3
-0.62054 0.472419 2.7964 5.81698e-39 3
-0.503437 0.413367 2.44685 6.64495e-39 3
-0.449845 0.40084 2.3727 6.46416e-39 3
-0.147625 0.413367 2.44685 1.21781e-38 3
-0.0960798 0.367437 2.17498 9.22533e-39 3
-0.0562503 0.339173 2.00767 9.13169e-39 3
0.145863 0.357506 2.11619 1.116e-38 3
0.162488 0.322628 1.90974 1.19894e-38 3
0.155434 0.259367 1.53528 1.29113e-38 3
0.18024 0.259367 1.53528 1.22656e-38 3
0.209147 0.264555 1.56598 1.1989e-38 3
0.239234 0.269954 1.59794 1.07898e-38 3
0.276332 0.281441 1.66594 1.18032e-38 3
0.419197 0.389051 2.30292 1.23556e-38 3
0.51726 0.440924 2.60997 1.17092e-38 3
0.544032 0.372612 2.20561 1.3829e-38 3
0.579669 0.372612 2.20561 1.29074e-38 3
0.615306 0.372612 2.20561 1.22624e-38 3
0.660242 0.377935 2.23712 1.28155e-38 3
0.696389 0.377935 2.23712 1.19861e-38 3
0.75408 0.389051 2.30292 1.24464e-38 3
1.0964 0.472419 2.7964 1.12479e-38 3
1.12155 0.464131 2.74734 1.13401e-38 3
1.00067 0.357506 2.11619 1.15245e-38 3
0.814677 0.281441 1.66594 1.11557e-38 3
0.807244 0.269954 1.59794 1.07869e-38 3
0.833063 0.269954 1.59794 1.13393e-38 3
0.858881 0.269954 1.59794 1.06018e-38 3
1.83985 0.489916 2.89997 9.31212e-39 3
1.81932 0.472419 2.7964 8.11321e-39 3
1.93356 0.489916 2.89997 8.38944e-39 3
1.90969 0.472419 2.7964 9.3114e-39 3
2.13298 0.426701 2.52578 7.00651e-39 3
2.10586 0.413367 2.44685 7.00687e-39 3
2.14539 0.413367 2.44685 6.82248e-39 3
2.18493 0.413367 2.44685 6.36186e-39 3
2.29622 0.426701 2.52578 5.71613e-39 3
2.41493 0.440924 2.60997 5.80832e-39 3
2.4571 0.440924 2.60997 5.90052e-39 3
2.49927 0.440924 2.60997 6.3615e-39 3
2.54144 0.440924 2.60997 5.90088e-39 3
2.58361 0.440924 2.60997 6.08563e-39 3
2.62578 0.440924 2.60997 4.97964e-39 3
2.22329 0.367437 2.17498 4.88673e-39 3
1.56353 0.254379 1.50575 4.97857e-39 3
1.37615 0.220462 1.30499 4.88637e-39 3
1.3099 0.206683 1.22343 4.61014e-39 3
1.30922 0.203504 1.2046 5.07112e-39 3
1.28902 0.197429 1.16864 5.16296e-39 3
1.36921 0.206683 1.22343 4.60978e-39 3
3.29238 0.489916 2.89997 4.14844e-39 3
-0.560487 0.467511 2.52578 5.63404e-39 3
-0.488182 0.439177 2.3727 8.67614e-39 3
-0.436614 0.42626 2.30292 1.05226e-38 3
-0.367021 0.391698 2.11619 1.97385e-38 3
-0.300358 0.353484 1.90974 2.03824e-38 3
-0.138941 0.42626 2.30292 1.88166e-38 3
-0.0886891 0.371611 2.00767 2.22231e-38 3
-0.0498582 0.329383 1.77953 2.1577e-38 3
0.0340761 0.308358 1.66594 1.12515e-38 3
0.0597227 0.301934 1.63123 1.15273e-38 3
0.0860792 0.301934 1.63123 1.26344e-38 3
0.088474 0.237588 1.28359 1.21734e-38 3
0.108326 0.235656 1.27316 1.31879e-38 3
0.117439 0.214709 1.15999 1.28184e-38 3
0.136182 0.214709 1.15999 1.2911e-38 3
0.180299 0.249877 1.34999 1.18972e-38 3
0.202112 0.249877 1.34999 1.23582e-38 3
0.227852 0.25426 1.37367 1.31872e-38 3
0.237545 0.241547 1.30499 1.24486e-38 3
0.256493 0.239551 1.2942 1.24482e-38 3
0.601601 0.483095 2.60997 1.21698e-38 3
0.544032 0.408249 2.20561 1.25393e-38 3
0.579669 0.408249 2.20561 1.29081e-38 3
0.590361 0.391698 2.11619 1.2723e-38 3
0.650943 0.408249 2.20561 1.2539e-38 3
0.696389 0.414081 2.23712 1.3368e-38 3
1.15702 0.452901 2.44685 1.08791e-38 3
1.00763 0.381391 2.06051 9.95713e-39 3
0.841595 0.308358 1.66594 1.08791e-38 3
0.850418 0.301934 1.63123 1.06021e-38 3
0.858881 0.295772 1.59794 9.68018e-39 3
0.867006 0.289857 1.56598 9.40431e-39 3
1.35198 0.439177 2.3727 9.86493e-39 3
1.43377 0.452901 2.44685 9.86565e-39 3
1.51284 0.452901 2.44685 9.58906e-39 3
1.55237 0.452901 2.44685 8.7593e-39 3
1.59191 0.452901 2.44685 1.04177e-38 3
1.68407 0.467511 2.52578 9.86457e-39 3
1.78237 0.483095 2.60997 9.40359e-39 3
2.16191 0.483095 2.60997 8.85078e-39 3
2.00371 0.439177 2.3727 7.83627e-39 3
2.04204 0.439177 2.3727 7.46784e-39 3
2.08038 0.439177 2.3727 7.00687e-39 3
2.11872 0.439177 2.3727 6.45441e-39 3
2.15705 0.439177 2.3727 7.09906e-39 3
2.19539 0.439177 2.3727 5.62393e-39 3
2.30353 0.452901 2.44685 6.91467e-39 3
2.34307 0.452901 2.44685 6.45369e-39 3
2.54144 0.483095 2.60997 6.45369e-39 3
2.58361 0.483095 2.60997 6.45441e-39 3
1.37615 0.241547 1.30499 5.16296e-39 3
1.28975 0.222967 1.2046 5.43954e-39 3
1.25146 0.21313 1.15146 5.25515e-39 3
1.27006 0.21313 1.15146 5.07076e-39 3
1.28867 0.21313 1.15146 5.80832e-39 3
1.32678 0.216311 1.16864 5.53102e-39 3
2.81748 0.452901 2.44685 5.62321e-39 3
-0.449845 0.477514 2.3727 1.799e-38 3
-0.399405 0.463469 2.30292 2.20394e-38 3
-0.300358 0.38434 1.90974 2.24061e-38 3
-0.256966 0.366464 1.82091 2.28645e-38 3
-0.203842 0.328291 1.63123 2.28645e-38 3
-0.177486 0.328291 1.63123 2.2956e-38 3
-0.151129 0.328291 1.63123 2.25894e-38 3
-0.130198 0.342564 1.70216 2.23142e-38 3
-0.102695 0.342564 1.70216 2.24061e-38 3
-0.0751929 0.342564 1.70216 2.24972e-38 3
-0.0466758 0.335276 1.66594 2.24972e-38 3
-0.0197585 0.335276 1.66594 2.22217e-38 3
0.00700966 0.328291 1.63123 2.17611e-38 3
0.0258319 0.254161 1.26289 1.30025e-38 3
0.045867 0.252127 1.25279 1.21727e-38 3
0.0640589 0.244309 1.21394 1.22645e-38 3
0.0836731 0.244309 1.21394 1.16188e-38 3
0.10171 0.24058 1.19541 1.35549e-38 3
0.116576 0.231735 1.15146 1.45687e-38 3
0.133221 0.228376 1.13477 1.41077e-38 3
0.151556 0.228376 1.13477 1.38326e-38 3
0.195375 0.262633 1.30499 1.27266e-38 3
0.220129 0.267084 1.32711 1.33709e-38 3
0.235582 0.260462 1.2942 1.28177e-38 3
0.252322 0.256227 1.27316 1.2817e-38 3
0.564001 0.492436 2.44685 1.35535e-38 3
0.603536 0.492436 2.44685 1.25408e-38 3
0.643071 0.492436 2.44685 1.24471e-38 3
0.682606 0.492436 2.44685 1.15252e-38 3
0.72214 0.492436 2.44685 1.18932e-38 3
0.761675 0.492436 2.44685 1.28155e-38 3
1.15702 0.492436 2.44685 1.14319e-38 3
1.00763 0.414683 2.06051 1.2078e-38 3
0.878999 0.350177 1.73998 1.1617e-38 3
0.850418 0.328291 1.63123 1.14319e-38 3
0.841703 0.315159 1.56598 1.18007e-38 3
0.850006 0.30898 1.53528 1.14326e-38 3
0.874812 0.30898 1.53528 1.06032e-38 3
1.09239 0.375189 1.86427 9.95784e-39 3
1.46699 0.477514 2.3727 9.12808e-39 3
1.50533 0.477514 2.3727 9.31248e-39 3
1.54367 0.477514 2.3727 8.75822e-39 3
1.582 0.477514 2.3727 9.68018e-39 3
1.67097 0.492436 2.44685 8.66603e-39 3
1.98198 0.463469 2.30292 7.92846e-39 3
2.01919 0.463469 2.30292 7.19126e-39 3
2.0564 0.463469 2.30292 7.28345e-39 3
2.09361 0.463469 2.30292 7.65224e-39 3
2.06994 0.450227 2.23712 7.56004e-39 3
2.10609 0.450227 2.23712 7.74443e-39 3
2.20524 0.463469 2.30292 7.37565e-39 3
2.3826 0.492436 2.44685 7.74443e-39 3
1.35359 0.258327 1.28359 5.90052e-39 3
1.27021 0.238757 1.18635 5.99272e-39 3
1.23332 0.228376 1.13477 5.90052e-39 3
1.23377 0.225114 1.11856 5.80833e-39 3
1.23421 0.221943 1.10281 5.62394e-39 3
1.25203 0.221943 1.10281 5.34663e-39 3
1.34566 0.235193 1.16864 5.34663e-39 3
-0.300358 0.415197 1.90974 2.28645e-38 3
-0.240208 0.370067 1.70216 2.28645e-38 3
-0.203842 0.354647 1.63123 2.28645e-38 3
-0.170386 0.340461 1.56598 2.31397e-38 3
-0.139504 0.327367 1.50575 2.28645e-38 3
-0.113002 0.32119 1.47734 2.28645e-38 3
-0.0944797 0.340461 1.56598 2.29567e-38 3
-0.0735931 0.362193 1.66594 2.28645e-38 3
-0.0466758 0.362193 1.66594 2.27723e-38 3
-0.0193468 0.354647 1.63123 2.26805e-38 3
0.00686661 0.34741 1.59794 2.27738e-38 3
0.0240839 0.255986 1.17743 2.24064e-38 3
0.0431081 0.255986 1.17743 2.01015e-38 3
0.0594504 0.244936 1.12661 1.21713e-38 3
0.0776534 0.244936 1.12661 1.26322e-38 3
0.0965511 0.246711 1.13477 1.41996e-38 3
0.11406 0.244936 1.12661 1.43832e-38 3
0.131318 0.243187 1.11856 1.44754e-38 3
0.149391 0.243187 1.11856 1.53052e-38 3
0.192172 0.279067 1.28359 1.46598e-38 3
0.212911 0.279067 1.28359 1.35545e-38 3
0.231751 0.276798 1.27316 1.2817e-38 3
0.248285 0.272369 1.25279 1.30921e-38 3
0.268527 0.272369 1.25279 1.2907e-38 3
1.00763 0.447975 2.06051 1.22617e-38 3
0.878999 0.37829 1.73998 1.0511e-38 3
0.850418 0.354647 1.63123 1.14319e-38 3
0.841703 0.340461 1.56598 1.15241e-38 3
0.833659 0.327367 1.50575 1.19858e-38 3
0.857988 0.327367 1.50575 1.15248e-38 3
1.09239 0.405311 1.86427 1.09709e-38 3
1.4916 0.486373 2.23712 1.02334e-38 3
1.9773 0.472863 2.17498 7.74443e-39 3
1.95805 0.460083 2.11619 7.74443e-39 3
1.89008 0.436489 2.00767 8.2976e-39 3
1.87445 0.425577 1.95748 8.75858e-39 3
1.52486 0.340461 1.56598 7.92882e-39 3
1.21425 0.250339 1.15146 5.99272e-39 3
1.21498 0.246711 1.13477 7.56004e-39 3
1.2157 0.243187 1.11856 5.62394e-39 3
1.2164 0.239762 1.10281 4.51759e-39 3
1.2004 0.233193 1.07259 5.34735e-39 3
1.21773 0.233193 1.07259 4.51687e-39 3
1.45418 0.274566 1.26289 4.33248e-39 3
1.43976 0.26808 1.23306 4.88566e-39 3
-0.32407 0.481268 2.06051 2.28645e-38 3
-0.240208 0.397569 1.70216 2.28645e-38 3
-0.195689 0.365764 1.56598 2.28645e-38 3
-0.163833 0.351696 1.50575 2.28645e-38 3
-0.136872 0.34506 1.47734 2.28645e-38 3
-0.110909 0.33867 1.44999 2.28645e-38 3
-0.0874812 0.33867 1.44999 2.29567e-38 3
-0.0691775 0.365764 1.56598 2.28645e-38 3
-0.0447706 0.373228 1.59794 2.2773e-38 3
-0.018952 0.373228 1.59794 2.29567e-38 3
0.00647046 0.351696 1.50575 2.2589e-38 3
0.0237271 0.270936 1.15999 2.27738e-38 3
0.0427864 0.272958 1.16864 1.74261e-38 3
0.0550907 0.243842 1.04399 1.53974e-38 3
0.0719588 0.243842 1.04399 1.33684e-38 3
0.0925281 0.254003 1.08749 1.26308e-38 3
0.10934 0.252251 1.07999 1.44744e-38 3
0.12679 0.252251 1.07999 1.52119e-38 3
0.14424 0.252251 1.07999 1.36457e-38 3
0.186071 0.290289 1.24284 1.38297e-38 3
0.202931 0.285753 1.22343 1.53034e-38 3
0.217598 0.279209 1.19541 1.55796e-38 3
0.236913 0.279209 1.19541 1.47499e-38 3
0.252375 0.27501 1.17743 1.59488e-38 3
0.376001 0.381004 1.63123 1.41981e-38 3
0.443948 0.254003 1.08749 1.20776e-38 3
0.850418 0.381004 1.63123 1.18932e-38 3
0.841703 0.365764 1.56598 1.23528e-38 3
0.867006 0.365764 1.56598 1.20762e-38 3
0.91996 0.259407 1.11063 5.99271e-39 3
0.912032 0.252251 1.07999 7.28309e-39 3
1.92386 0.494275 2.11619 7.37565e-39 3
1.60995 0.406404 1.73998 7.0987e-39 3
1.15177 0.285753 1.22343 6.82248e-39 3
1.10262 0.268944 1.15146 7.00723e-39 3
1.01658 0.243842 1.04399 6.73028e-39 3
0.956893 0.22578 0.966657 7.09978e-39 3
0.905442 0.210209 0.899991 5.90088e-39 3
0.889317 0.203202 0.869991 5.53318e-39 3
0.903374 0.203202 0.869991 5.25659e-39 3
1.19665 0.265046 1.13477 4.97964e-39 3
1.21498 0.265046 1.13477 4.79489e-39 3
1.2157 0.26126 1.11856 5.71613e-39 3
1.2164 0.25758 1.10281 5.43954e-39 3
1.2004 0.250523 1.07259 5.34735e-39 3
1.21773 0.250523 1.07259 5.07076e-39 3
1.50266 0.304803 1.30499 4.97821e-39 3
1.43976 0.288003 1.23306 4.88565e-39 3
1.44828 0.285753 1.22343 4.70198e-39 3
1.44546 0.281357 1.2046 4.88637e-39 3
-0.240208 0.425072 1.70216 2.28645e-38 3
-0.195689 0.391066 1.56598 2.28645e-38 3
-0.163833 0.376025 1.50575 2.28645e-38 3
-0.136872 0.36893 1.47734 2.28645e-38 3
-0.110909 0.362098 1.44999 2.29567e-38 3
-0.0944797 0.391066 1.56598 2.28645e-38 3
-0.0705893 0.399047 1.59794 2.27723e-38 3
-0.0447706 0.399047 1.59794 2.2773e-38 3
-0.018573 0.391066 1.56598 2.17585e-38 3
0.00623081 0.362098 1.44999 1.83469e-38 3
0.0223997 0.273473 1.09509 1.79792e-38 3
0.0374731 0.255599 1.02352 2.23128e-38 3
0.0533136 0.252301 1.01031 2.28645e-38 3
0.0700898 0.253939 1.01687 2.26801e-38 3
0.0865198 0.253939 1.01687 1.75172e-38 3
0.10295 0.253939 1.01687 1.26304e-38 3
0.11938 0.253939 1.01687 1.51186e-38 3
0.13581 0.253939 1.01687 1.41045e-38 3
0.15224 0.253939 1.01687 1.47499e-38 3
0.167582 0.252301 1.01031 1.44729e-38 3
0.1851 0.253939 1.01687 1.56704e-38 3
0.215525 0.271574 1.08749 1.65916e-38 3
0.22229 0.258984 1.03708 1.64079e-38 3
0.229911 0.249087 0.997442 1.55796e-38 3
0.260989 0.264234 1.0581 1.41978e-38 3
0.278085 0.264234 1.0581 1.40137e-38 3
0.467207 0.31037 1.24284 1.31847e-38 3
0.420536 0.267853 1.07259 1.19854e-38 3
0.43195 0.264234 1.0581 1.19854e-38 3
0.461519 0.271574 1.08749 1.20773e-38 3
1.27312 0.465555 1.86427 1.08769e-38 3
0.928352 0.28545 1.14305 8.85042e-39 3
0.926531 0.279333 1.11856 6.82211e-39 3
0.924788 0.273473 1.09509 7.46748e-39 3
0.942482 0.273473 1.09509 6.82175e-39 3
1.58184 0.434518 1.73998 6.17711e-39 3
1.132 0.30552 1.22343 6.27002e-39 3
1.10019 0.29184 1.16864 6.54661e-39 3
1.0271 0.267853 1.07259 6.54733e-39 3
0.941274 0.241399 0.966657 7.92882e-39 3
0.8909 0.224751 0.899991 6.08491e-39 3
0.885095 0.2197 0.879766 7.74444e-39 3
0.889317 0.217259 0.869991 5.5321e-39 3
0.903374 0.217259 0.869991 5.71649e-39 3
0.982962 0.232777 0.932133 5.6243e-39 3
1.18076 0.275399 1.10281 6.17711e-39 3
1.2157 0.279333 1.11856 5.53174e-39 3
1.23377 0.279333 1.11856 4.7027e-39 3
1.26999 0.283381 1.13477 4.88709e-39 3
1.34688 0.296262 1.18635 4.79418e-39 3
1.36605 0.296262 1.18635 4.60978e-39 3
1.43976 0.307926 1.23306 4.70126e-39 3
1.45968 0.307926 1.23306 4.70198e-39 3
1.46804 0.30552 1.22343 4.88637e-39 3
1.48781 0.30552 1.22343 4.88709e-39 3
-0.529427 0.250824 0.943364 1.23538e-38 3
-0.208179 0.442945 1.66594 2.28645e-38 3
-0.170386 0.416368 1.56598 2.28645e-38 3
-0.145084 0.416368 1.56598 2.28645e-38 3
-0.122227 0.424865 1.59794 2.28645e-38 3
-0.0964079 0.424865 1.59794 2.28645e-38 3
-0.0735931 0.442945 1.66594 2.28645e-38 3
-0.0466758 0.442945 1.66594 2.24043e-38 3
-0.018573 0.416368 1.56598 2.25883e-38 3
0.00623081 0.385526 1.44999 1.85317e-38 3
0.0258319 0.335781 1.26289 1.9638e-38 3
0.0365183 0.265203 0.997442 2.30493e-38 3
0.050697 0.255441 0.960726 2.30489e-38 3
0.0678857 0.261867 0.984896 2.27723e-38 3
0.0837991 0.261867 0.984896 2.29567e-38 3
0.0984738 0.258614 0.972661 1.32747e-38 3
0.114189 0.258614 0.972661 1.438e-38 3
0.129103 0.257017 0.966657 1.52108e-38 3
0.145621 0.258614 0.972661 1.48417e-38 3
0.160341 0.257017 0.966657 1.5486e-38 3
0.175959 0.257017 0.966657 1.40109e-38 3
0.195193 0.261867 0.984896 1.61306e-38 3
0.213795 0.265203 0.997442 1.46562e-38 3
0.227019 0.261867 0.984896 1.35513e-38 3
0.238434 0.257017 0.966657 1.2446e-38 3
0.250954 0.253883 0.954868 1.3368e-38 3
0.266383 0.253883 0.954868 1.43822e-38 3
0.288856 0.26023 0.97874 1.41056e-38 3
0.312482 0.266903 1.00384 1.37375e-38 3
0.328701 0.266903 1.00384 1.46591e-38 3
0.3494 0.270369 1.01687 1.37371e-38 3
0.370644 0.273926 1.03025 1.37379e-38 3
0.395088 0.279442 1.051 1.29081e-38 3
0.409322 0.277579 1.04399 1.2262e-38 3
0.423368 0.275741 1.03708 1.26308e-38 3
0.446032 0.279442 1.051 1.33676e-38 3
0.472527 0.285184 1.07259 1.29981e-38 3
0.831619 0.484149 1.82091 1.24428e-38 3
0.86104 0.484149 1.82091 1.2902e-38 3
0.850006 0.408204 1.53528 1.25336e-38 3
0.874812 0.408204 1.53528 1.29953e-38 3
1.0031 0.442945 1.66594 1.37321e-38 3
0.835487 0.325288 1.22343 1.11513e-38 3
0.842097 0.320283 1.2046 1.13365e-38 3
0.772433 0.28715 1.07999 1.15209e-38 3
0.921624 0.301716 1.13477 9.40251e-39 3
0.907094 0.291167 1.09509 1.14308e-38 3
0.912032 0.28715 1.07999 7.18982e-39 3
0.923115 0.285184 1.07259 7.46641e-39 3
1.0169 0.297406 1.11856 7.19054e-39 3
1.11458 0.320283 1.2046 6.91431e-39 3
1.05304 0.297406 1.11856 6.82248e-39 3
0.973742 0.270369 1.01687 5.90088e-39 3
0.941274 0.257017 0.966657 5.16367e-39 3
0.90126 0.242074 0.910456 6.63809e-39 3
0.870425 0.230038 0.865185 5.34735e-39 3
0.884404 0.230038 0.865185 5.89944e-39 3
0.903374 0.231316 0.869991 6.36115e-39 3
0.960102 0.242074 0.910456 5.25515e-39 3
1.21498 0.301716 1.13477 5.80832e-39 3
1.23332 0.301716 1.13477 5.34734e-39 3
1.30855 0.31543 1.18635 5.80904e-39 3
-0.535001 0.261343 0.926618 1.08802e-38 3
-0.520029 0.261343 0.926618 1.18014e-38 3
-0.502087 0.259806 0.921167 1.18932e-38 3
-0.487203 0.259806 0.921167 1.18007e-38 3
-0.382165 0.249531 0.884737 7.83735e-39 3
-0.357763 0.242676 0.860431 5.1644e-39 3
-0.336466 0.237457 0.841927 4.42792e-39 3
-0.322863 0.237457 0.841927 5.62754e-39 3
-0.170386 0.44167 1.56598 2.28645e-38 3
-0.145084 0.44167 1.56598 2.28645e-38 3
-0.122227 0.450684 1.59794 2.28645e-38 3
-0.0964079 0.450684 1.59794 2.28645e-38 3
-0.0735931 0.469862 1.66594 2.28645e-38 3
-0.0466758 0.469862 1.66594 2.26808e-38 3
-0.0197585 0.469862 1.66594 2.19429e-38 3
0.00647046 0.424683 1.50575 2.26801e-38 3
0.0258319 0.356186 1.26289 2.29571e-38 3
0.0421572 0.324758 1.15146 2.26805e-38 3
0.0500824 0.267679 0.949081 2.15738e-38 3
0.065816 0.269311 0.954868 2.28645e-38 3
0.0807518 0.267679 0.949081 2.31411e-38 3
0.0960865 0.267679 0.949081 1.29992e-38 3
0.111421 0.267679 0.949081 1.6131e-38 3
0.126756 0.267679 0.949081 1.5947e-38 3
0.142091 0.267679 0.949081 1.52105e-38 3
0.157425 0.267679 0.949081 1.44729e-38 3
0.173813 0.269311 0.954868 1.53934e-38 3
0.191578 0.272636 0.966657 1.6131e-38 3
0.209787 0.276044 0.97874 1.47491e-38 3
0.222815 0.272636 0.966657 1.40134e-38 3
0.238434 0.272636 0.966657 1.41981e-38 3
0.247931 0.266066 0.943364 1.46587e-38 3
0.263173 0.266066 0.943364 1.40123e-38 3
0.281811 0.269311 0.954868 1.36446e-38 3
0.30467 0.276044 0.97874 1.41056e-38 3
0.3225 0.27778 0.984896 1.34606e-38 3
0.342724 0.281319 0.997442 1.28152e-38 3
0.370644 0.290573 1.03025 1.34613e-38 3
0.389855 0.292497 1.03708 1.30003e-38 3
0.409322 0.294447 1.04399 1.34613e-38 3
0.423368 0.292497 1.03708 1.28152e-38 3
0.440124 0.292497 1.03708 1.28145e-38 3
0.472527 0.302514 1.07259 1.20762e-38 3
0.470521 0.290573 1.03025 1.34573e-38 3
0.755607 0.450684 1.59794 1.4286e-38 3
0.781425 0.450684 1.59794 1.37318e-38 3
0.833659 0.424683 1.50575 1.23492e-38 3
0.857988 0.424683 1.50575 1.23506e-38 3
0.899618 0.43301 1.53528 1.15201e-38 3
0.982201 0.460073 1.63123 1.20719e-38 3
0.808587 0.350532 1.24284 1.26258e-38 3
0.80317 0.339746 1.2046 1.26254e-38 3
0.81017 0.334599 1.18635 1.2257e-38 3
0.754983 0.3046 1.07999 1.24417e-38 3
0.772433 0.3046 1.07999 1.10584e-38 3
0.867675 0.334599 1.18635 1.15194e-38 3
0.929074 0.350532 1.24284 1.0506e-38 3
0.980275 0.362025 1.28359 1.05985e-38 3
1.03495 0.374297 1.32711 1.05989e-38 3
0.896791 0.317748 1.12661 1.05071e-38 3
0.908458 0.315479 1.11856 9.3096e-39 3
0.894582 0.3046 1.07999 9.21704e-39 3
0.899623 0.300456 1.0653 8.57167e-39 3
0.916836 0.300456 1.0653 8.48056e-39 3
1.03497 0.315479 1.11856 6.91323e-39 3
0.957312 0.286799 1.01687 7.37457e-39 3
0.937226 0.276044 0.97874 7.65152e-39 3
0.95304 0.276044 0.97874 6.17747e-39 3
0.922718 0.262899 0.932133 5.71613e-39 3
0.937779 0.262899 0.932133 6.08419e-39 3
0.889317 0.245372 0.869991 6.17639e-39 3
0.903374 0.245372 0.869991 4.42467e-39 3
0.971397 0.259806 0.921167 5.992e-39 3
-0.523125 0.27796 0.932133 1.31843e-38 3
-0.505058 0.276315 0.926618 1.18929e-38 3
-0.490086 0.276315 0.926618 1.19851e-38 3
-0.477942 0.27796 0.932133 1.11553e-38 3
-0.427668 0.27469 0.921167 1.04177e-38 3
-0.407985 0.271496 0.910456 9.95641e-39 3
-0.369635 0.255176 0.855729 8.11358e-39 3
-0.351962 0.252418 0.846478 4.51939e-39 3
-0.324263 0.241955 0.811391 4.15205e-39 3
-0.303295 0.235845 0.790901 4.70523e-39 3
-0.290516 0.235845 0.790901 4.42721e-39 3
-0.0525145 0.0995677 0.333899 2.28645e-38 3
-0.0418138 0.0997805 0.334612 2.28645e-38 3
-0.0372023 0.101959 0.341918 2.28645e-38 3
-0.0316778 0.101959 0.341918 2.28645e-38 3
-0.0263837 0.102857 0.34493 2.28645e-38 3
-0.0211364 0.104468 0.350332 2.28645e-38 3
-0.0155455 0.104938 0.351907 2.28645e-38 3
0.0258319 0.376591 1.26289 2.28645e-38 3
0.0421572 0.343362 1.15146 2.27723e-38 3
0.0461654 0.260879 0.874851 2.28645e-38 3
0.061679 0.266842 0.894848 2.27723e-38 3
0.0774654 0.271496 0.910456 2.25883e-38 3
0.0938123 0.276315 0.926618 2.19426e-38 3
0.109432 0.27796 0.932133 1.54867e-38 3
0.124492 0.27796 0.932133 1.53023e-38 3
0.139553 0.27796 0.932133 1.48428e-38 3
0.154614 0.27796 0.932133 1.5119e-38 3
0.169675 0.27796 0.932133 1.52105e-38 3
0.186962 0.281309 0.943364 1.47484e-38 3
0.203429 0.283014 0.949081 1.45648e-38 3
0.217446 0.281309 0.943364 1.39212e-38 3
0.234099 0.283014 0.949081 1.3645e-38 3
0.246446 0.279624 0.937715 1.34606e-38 3
0.261597 0.279624 0.937715 1.33684e-38 3
0.281811 0.284739 0.954868 1.2907e-38 3
0.281776 0.269926 0.905193 1.3368e-38 3
0.298125 0.271496 0.910456 1.28152e-38 3
0.312835 0.271496 0.910456 1.34606e-38 3
0.325652 0.269926 0.905193 1.30918e-38 3
0.340278 0.269926 0.905193 1.35528e-38 3
0.388597 0.295552 0.991129 1.26319e-38 3
0.399553 0.291858 0.97874 1.34606e-38 3
0.415367 0.291858 0.97874 1.37364e-38 3
0.431181 0.291858 0.97874 1.29981e-38 3
0.458457 0.299341 1.00384 1.22599e-38 3
0.493663 0.311315 1.04399 1.19818e-38 3
0.580149 0.353767 1.18635 1.21659e-38 3
0.637983 0.376591 1.26289 1.22588e-38 3
0.755927 0.432382 1.44999 1.27208e-38 3
0.81793 0.44054 1.47734 1.29034e-38 3
0.8418 0.44054 1.47734 1.26272e-38 3
0.899618 0.457816 1.53528 1.37328e-38 3
0.788506 0.370613 1.24284 1.23485e-38 3
0.771833 0.353767 1.18635 1.23488e-38 3
0.779195 0.348487 1.16864 1.11503e-38 3
0.81017 0.353767 1.18635 1.15191e-38 3
0.81696 0.348487 1.16864 1.20722e-38 3
0.86156 0.35921 1.2046 1.29938e-38 3
0.867675 0.353767 1.18635 1.32708e-38 3
0.959535 0.382764 1.28359 1.21648e-38 3
0.980275 0.382764 1.28359 1.06897e-38 3
1.03495 0.395739 1.32711 1.05071e-38 3
1.05639 0.395739 1.32711 1.04141e-38 3
1.05987 0.389144 1.30499 9.49291e-39 3
0.913482 0.328854 1.10281 1.06915e-38 3
0.893545 0.315522 1.0581 1.00472e-38 3
0.892549 0.309253 1.03708 9.77058e-39 3
0.980751 0.333552 1.11856 9.86349e-39 3
1.0169 0.333552 1.11856 9.03409e-39 3
0.917062 0.295552 0.991129 9.77094e-39 3
0.921412 0.291858 0.97874 9.95533e-39 3
0.937226 0.291858 0.97874 7.5586e-39 3
0.837837 0.256578 0.860431 6.17711e-39 3
0.922718 0.27796 0.932133 7.19126e-39 3
0.87526 0.259429 0.869991 7.74371e-39 3
0.889317 0.259429 0.869991 7.65152e-39 3
0.898383 0.257996 0.865185 7.28274e-39 3
0.907349 0.256578 0.860431 6.26858e-39 3
-0.523125 0.293021 0.932133 1.17085e-38 3
-0.496248 0.286206 0.910456 1.22617e-38 3
-0.481538 0.286206 0.910456 1.2445e-38 3
-0.477942 0.293021 0.932133 1.10631e-38 3
-0.465653 0.294775 0.937715 1.07869e-38 3
-0.453216 0.296551 0.943364 1.15241e-38 3
-0.420252 0.284552 0.905193 1.06943e-38 3
-0.389852 0.273486 0.869991 9.58763e-39 3
-0.363673 0.264664 0.841927 7.28382e-39 3
-0.335634 0.25375 0.807208 4.98037e-39 3
-0.314486 0.247374 0.786927 4.88962e-39 3
-0.27547 0.225814 0.718341 4.24353e-39 3
-0.272617 0.233306 0.742173 5.44244e-39 3
-0.0716 0.109394 0.347996 2.31415e-38 3
-0.0634397 0.105187 0.334612 2.29567e-38 3
-0.0576636 0.104517 0.332481 2.28645e-38 3
-0.0522915 0.104517 0.332481 2.28645e-38 3
-0.0468201 0.104296 0.331776 2.28645e-38 3
-0.0416359 0.104739 0.333188 2.28645e-38 3
-0.0372023 0.107484 0.341918 2.28645e-38 3
-0.0316778 0.107484 0.341918 2.28645e-38 3
-0.0263837 0.108431 0.34493 2.28645e-38 3
-0.0208105 0.108431 0.34493 2.28645e-38 3
-0.0154414 0.109883 0.34955 2.28645e-38 3
-0.00970691 0.10891 0.346457 2.28645e-38 3
-0.00409096 0.108431 0.34493 2.28645e-38 3
0.00157964 0.115557 0.367602 2.28645e-38 3
0.0421572 0.361967 1.15146 2.28645e-38 3
0.0454044 0.270481 0.860431 2.28645e-38 3
0.0593067 0.270481 0.860431 2.28645e-38 3
0.0736135 0.271975 0.865185 2.28645e-38 3
0.0905959 0.2813 0.894848 2.2956e-38 3
0.108144 0.289573 0.921167 1.51194e-38 3
0.123028 0.289573 0.921167 1.41985e-38 3
0.138728 0.291287 0.926618 1.3462e-38 3
0.153699 0.291287 0.926618 1.33698e-38 3
0.168671 0.291287 0.926618 1.44751e-38 3
0.184736 0.293021 0.932133 1.41981e-38 3
0.199797 0.293021 0.932133 1.46591e-38 3
0.216144 0.294775 0.937715 1.40137e-38 3
0.232689 0.296551 0.943364 1.39215e-38 3
0.240681 0.28788 0.91578 1.3645e-38 3
0.253993 0.286206 0.910456 1.34606e-38 3
0.258195 0.275014 0.874851 1.45665e-38 3
0.272331 0.275014 0.874851 1.34602e-38 3
0.283301 0.271975 0.865185 1.26304e-38 3
0.29728 0.271975 0.865185 1.38286e-38 3
0.306184 0.267541 0.851078 1.37368e-38 3
0.321684 0.269003 0.855729 1.2907e-38 3
0.38374 0.307672 0.97874 1.30911e-38 3
0.399553 0.307672 0.97874 1.36442e-38 3
0.410239 0.303873 0.966657 1.4013e-38 3
0.425858 0.303873 0.966657 1.35513e-38 3
0.446995 0.307672 0.97874 1.36435e-38 3
0.474676 0.315561 1.00384 1.24457e-38 3
0.51743 0.332618 1.0581 1.26304e-38 3
0.618046 0.38459 1.22343 1.22606e-38 3
0.79406 0.46441 1.47734 1.33669e-38 3
0.81793 0.46441 1.47734 1.2445e-38 3
0.857988 0.473341 1.50575 1.12461e-38 3
0.722548 0.367369 1.16864 1.30875e-38 3
0.539955 0.267541 0.851078 1.29034e-38 3
0.553706 0.267541 0.851078 1.29034e-38 3
0.669309 0.315561 1.00384 1.24421e-38 3
0.786341 0.361967 1.15146 1.22577e-38 3
0.804946 0.361967 1.15146 1.27176e-38 3
1.07783 0.417182 1.32711 1.04149e-38 3
1.04608 0.396996 1.26289 1.02305e-38 3
1.00185 0.372936 1.18635 1.13368e-38 3
0.847641 0.309607 0.984896 1.05071e-38 3
0.940446 0.337175 1.07259 9.12521e-39 3
0.852654 0.300168 0.954868 8.47984e-39 3
0.889785 0.307672 0.97874 9.03301e-39 3
0.894418 0.303873 0.966657 8.29437e-39 3
0.898939 0.300168 0.954868 9.86098e-39 3
0.914367 0.300168 0.954868 9.49291e-39 3
0.833259 0.269003 0.855729 7.83519e-39 3
0.85174 0.270481 0.860431 9.12665e-39 3
0.865642 0.270481 0.860431 7.83591e-39 3
0.884404 0.271975 0.865185 8.85006e-39 3
0.893447 0.270481 0.860431 8.48128e-39 3
0.902391 0.269003 0.855729 8.0203e-39 3
-0.48223 0.292416 0.884737 1.31825e-38 3
-0.460136 0.287543 0.869991 1.29981e-38 3
-0.464129 0.299178 0.905193 1.25372e-38 3
-0.427275 0.284383 0.860431 1.1523e-38 3
-0.439964 0.302677 0.91578 1.1984e-38 3
-0.388789 0.276779 0.837425 1.08776e-38 3
-0.343987 0.253714 0.767639 9.58798e-39 3
-0.331584 0.253714 0.767639 7.28382e-39 3
-0.275902 0.219312 0.663553 5.16476e-39 3
-0.272099 0.225034 0.680863 4.15206e-39 3
-0.262238 0.226016 0.683836 5.62503e-39 3
-0.265079 0.238515 0.721652 5.35096e-39 3
-0.0797023 0.11871 0.359171 1.68733e-38 3
-0.0629021 0.109656 0.331776 2.28645e-38 3
-0.0575414 0.109656 0.331776 2.28645e-38 3
-0.0521808 0.109656 0.331776 2.28645e-38 3
-0.0317471 0.113255 0.342666 2.28645e-38 3
-0.0263837 0.114004 0.34493 2.28645e-38 3
-0.0208105 0.114004 0.34493 2.28645e-38 3
0.00769989 0.124418 0.376438 2.28645e-38 3
0.0139498 0.125931 0.381018 2.28645e-38 3
0.058345 0.279771 0.846478 2.28645e-38 3
0.0712516 0.276779 0.837425 2.2956e-38 3
0.0847822 0.276779 0.837425 2.28634e-38 3
0.102136 0.287543 0.869991 1.66878e-38 3
0.116193 0.287543 0.869991 1.29099e-38 3
0.13025 0.287543 0.869991 1.43865e-38 3
0.149283 0.297458 0.899991 1.41095e-38 3
0.167679 0.304457 0.921167 1.52141e-38 3
0.181495 0.302677 0.91578 1.47527e-38 3
0.194022 0.299178 0.905193 1.45673e-38 3
0.207449 0.297458 0.899991 1.41988e-38 3
0.22199 0.297458 0.899991 1.40137e-38 3
0.227384 0.285954 0.865185 1.29996e-38 3
0.241363 0.285954 0.865185 1.3184e-38 3
0.249821 0.279771 0.846478 1.29989e-38 3
0.293658 0.311793 0.943364 1.43818e-38 3
0.3089 0.311793 0.943364 1.41967e-38 3
0.286211 0.275307 0.83297 1.48421e-38 3
0.293426 0.269571 0.815617 1.44733e-38 3
0.306605 0.269571 0.815617 1.35513e-38 3
0.38374 0.323486 0.97874 1.31825e-38 3
0.385112 0.311793 0.943364 1.33669e-38 3
0.390934 0.304457 0.921167 1.36435e-38 3
0.401099 0.300917 0.910456 1.37357e-38 3
0.415809 0.300917 0.910456 1.26294e-38 3
0.43052 0.300917 0.910456 1.3368e-38 3
0.450469 0.304457 0.921167 1.24464e-38 3
0.444438 0.290774 0.879766 1.1523e-38 3
0.79406 0.48828 1.47734 1.29077e-38 3
0.548205 0.300917 0.910456 1.16145e-38 3
0.509587 0.272409 0.824202 1.29963e-38 3
0.517457 0.269571 0.815617 1.11535e-38 3
0.530635 0.269571 0.815617 1.16149e-38 3
0.543813 0.269571 0.815617 1.26286e-38 3
0.556992 0.269571 0.815617 1.19822e-38 3
0.57017 0.269571 0.815617 1.16127e-38 3
1.00185 0.392104 1.18635 1.1429e-38 3
0.853005 0.32758 0.991129 1.1429e-38 3
0.793671 0.299178 0.905193 9.2174e-39 3
0.808297 0.299178 0.905193 8.84862e-39 3
0.868082 0.315596 0.954868 8.29545e-39 3
0.823271 0.294078 0.889764 1.0968e-38 3
0.819033 0.287543 0.869991 1.25346e-38 3
0.814979 0.281292 0.851078 8.47876e-39 3
0.828731 0.281292 0.851078 7.92667e-39 3
0.847086 0.282829 0.855729 7.28202e-39 3
0.865642 0.284383 0.860431 8.20397e-39 3
0.884404 0.285954 0.865185 7.83555e-39 3
0.888565 0.282829 0.855729 8.29689e-39 3
-0.397203 0.232 0.669224 1.18929e-38 3
-0.38639 0.232 0.669224 1.14323e-38 3
-0.380454 0.235013 0.677915 1.2446e-38 3
-0.372728 0.237065 0.683836 1.17996e-38 3
-0.361679 0.237065 0.683836 1.17996e-38 3
-0.364974 0.246763 0.711811 1.18007e-38 3
-0.373866 0.261 0.752877 1.08787e-38 3
-0.35156 0.253682 0.731768 1.06021e-38 3
-0.330471 0.246763 0.711811 9.86457e-39 3
-0.292389 0.2262 0.652493 9.49543e-39 3
-0.274972 0.220683 0.636579 8.02138e-39 3
-0.272439 0.227146 0.655223 4.70378e-39 3
-0.266309 0.231013 0.666376 5.3506e-39 3
-0.25446 0.230034 0.663553 5.16765e-39 3
-0.249014 0.235013 0.677915 4.88962e-39 3
-0.0674058 0.113573 0.327612 1.99146e-38 3
-0.0621125 0.113573 0.327612 2.2127e-38 3
0.0137822 0.1305 0.376438 2.28645e-38 3
0.0196752 0.129257 0.372853 2.28645e-38 3
0.0659607 0.268752 0.77524 2.28645e-38 3
0.0765907 0.262261 0.756514 2.28645e-38 3
0.0859089 0.253682 0.731768 2.2405e-38 3
0.0991219 0.257289 0.742173 1.39248e-38 3
0.107055 0.24789 0.715061 1.4205e-38 3
0.115961 0.242357 0.6991 1.41113e-38 3
0.125574 0.239154 0.689861 1.37397e-38 3
0.137326 0.240212 0.692913 1.38322e-38 3
0.148521 0.240212 0.692913 1.41074e-38 3
0.159014 0.239154 0.689861 1.44747e-38 3
0.201179 0.28275 0.815617 1.39215e-38 3
0.214357 0.28275 0.815617 1.38293e-38 3
0.231147 0.287238 0.828563 1.41974e-38 3
0.241974 0.28423 0.819887 1.48428e-38 3
0.243736 0.27144 0.782992 1.41967e-38 3
0.264317 0.279835 0.807208 1.50257e-38 3
0.275937 0.2784 0.803069 1.4196e-38 3
0.281689 0.27144 0.782992 1.4196e-38 3
0.29434 0.27144 0.782992 1.36428e-38 3
0.337353 0.298285 0.860431 1.33666e-38 3
0.343702 0.291871 0.841927 1.22606e-38 3
0.317985 0.259751 0.749275 1.38279e-38 3
0.370909 0.291871 0.841927 1.33669e-38 3
0.384512 0.291871 0.841927 1.25372e-38 3
0.398115 0.291871 0.841927 1.1523e-38 3
0.379107 0.268752 0.77524 1.2907e-38 3
0.391633 0.268752 0.77524 1.40134e-38 3
0.404159 0.268752 0.77524 1.22617e-38 3
0.414632 0.267428 0.771421 1.3368e-38 3
0.527362 0.312 0.899991 1.18003e-38 3
0.49627 0.285726 0.824202 1.1062e-38 3
0.504278 0.28275 0.815617 1.06018e-38 3
0.517457 0.28275 0.815617 1.17081e-38 3
0.530635 0.28275 0.815617 9.86493e-39 3
0.532715 0.276979 0.798972 1.16159e-38 3
0.540113 0.274181 0.790901 1.13386e-38 3
0.552892 0.274181 0.790901 1.12457e-38 3
0.549033 0.266117 0.767639 1.06915e-38 3
0.564202 0.267428 0.771421 1.08759e-38 3
0.836991 0.343595 0.991129 8.94082e-39 3
0.748749 0.3016 0.869991 9.21776e-39 3
0.758592 0.299933 0.865185 1.06003e-38 3
0.755866 0.293448 0.846478 1.11535e-38 3
0.757263 0.288766 0.83297 1.01394e-38 3
0.79613 0.298285 0.860431 1.04159e-38 3
0.819033 0.3016 0.869991 1.09691e-38 3
0.810574 0.293448 0.846478 9.03302e-39 3
0.824251 0.293448 0.846478 8.01922e-39 3
0.85174 0.298285 0.860431 7.74264e-39 3
0.865642 0.298285 0.860431 7.46677e-39 3
0.884404 0.299933 0.865185 7.46713e-39 3
0.888565 0.296655 0.855729 7.37493e-39 3
-0.388893 0.237733 0.655223 1.11553e-38 3
-0.378306 0.237733 0.655223 1.17085e-38 3
-0.377189 0.243855 0.672096 1.0049e-38 3
-0.371107 0.247035 0.680863 1.08776e-38 3
-0.360106 0.247035 0.680863 1.20762e-38 3
-0.347161 0.253653 0.6991 1.07854e-38 3
-0.335865 0.253653 0.6991 1.07854e-38 3
-0.330471 0.258264 0.711811 1.02323e-38 3
-0.31897 0.258264 0.711811 9.40324e-39 3
-0.307469 0.258264 0.711811 7.19126e-39 3
-0.269062 0.234786 0.647101 5.44063e-39 3
-0.260761 0.236742 0.652493 5.07329e-39 3
-0.247129 0.23382 0.644438 5.34952e-39 3
-0.0665702 0.117393 0.32355 2.28652e-38 3
0.0136509 0.135281 0.372853 2.28645e-38 3
0.0193981 0.133376 0.367602 2.28645e-38 3
0.0252783 0.133064 0.366741 2.28645e-38 3
0.0619723 0.264271 0.728365 2.28645e-38 3
0.0737408 0.264271 0.728365 2.29567e-38 3
0.0847212 0.261835 0.721652 2.2405e-38 3
0.095501 0.259444 0.715061 1.39262e-38 3
0.106568 0.258264 0.711811 1.34692e-38 3
0.115961 0.253653 0.6991 1.38362e-38 3
0.12613 0.251408 0.692913 1.30965e-38 3
0.137326 0.251408 0.692913 1.35567e-38 3
0.148521 0.251408 0.692913 1.36468e-38 3
0.158316 0.249202 0.686835 1.41985e-38 3
0.169414 0.249202 0.686835 1.50279e-38 3
0.182109 0.251408 0.692913 1.51204e-38 3
0.204144 0.265505 0.731768 1.54889e-38 3
0.215967 0.265505 0.731768 1.52119e-38 3
0.227791 0.265505 0.731768 1.40137e-38 3
0.237395 0.263047 0.724993 1.41045e-38 3
0.242377 0.255938 0.705398 1.50261e-38 3
0.253774 0.255938 0.705398 1.39197e-38 3
0.278996 0.26928 0.742173 1.37353e-38 3
0.279083 0.258264 0.711811 1.46577e-38 3
0.286675 0.25479 0.702235 1.3735e-38 3
0.299364 0.255938 0.705398 1.31818e-38 3
0.310761 0.255938 0.705398 1.31818e-38 3
0.326572 0.259444 0.715061 1.15227e-38 3
0.381698 0.292877 0.807208 1.26294e-38 3
0.375391 0.27852 0.767639 1.27216e-38 3
0.387794 0.27852 0.767639 1.26297e-38 3
0.398245 0.277162 0.763895 1.29067e-38 3
0.410587 0.277162 0.763895 1.20765e-38 3
0.420877 0.275816 0.760186 1.12475e-38 3
0.435272 0.277162 0.763895 1.18007e-38 3
0.477922 0.295928 0.815617 1.32755e-38 3
0.4911 0.295928 0.815617 1.18925e-38 3
0.493987 0.289889 0.798972 1.06947e-38 3
0.506896 0.289889 0.798972 1.04181e-38 3
0.519806 0.289889 0.798972 1.1801e-38 3
0.522061 0.284091 0.782992 1.16159e-38 3
0.529418 0.281278 0.77524 1.0417e-38 3
0.53142 0.275816 0.760186 1.12461e-38 3
0.530819 0.26928 0.742173 9.86314e-39 3
0.542811 0.26928 0.742173 9.67875e-39 3
0.554802 0.26928 0.742173 1.16156e-38 3
0.718721 0.308794 0.851078 9.40216e-39 3
0.660661 0.27852 0.767639 9.86313e-39 3
0.707758 0.292877 0.807208 9.30996e-39 3
0.803651 0.326541 0.899991 9.12557e-39 3
0.818193 0.326541 0.899991 9.30996e-39 3
0.832734 0.326541 0.899991 9.58691e-39 3
0.819033 0.315656 0.869991 9.86313e-39 3
0.819433 0.310482 0.855729 1.08773e-38 3
0.833259 0.310482 0.855729 7.65044e-39 3
0.856446 0.313913 0.865185 8.11214e-39 3
0.870425 0.313913 0.865185 8.57311e-39 3
0.884404 0.313913 0.865185 8.48164e-39 3
-0.387272 0.247285 0.652493 1.14319e-38 3
-0.37673 0.247285 0.652493 1.15241e-38 3
-0.377189 0.254714 0.672096 1.06021e-38 3
-0.382757 0.266136 0.702235 1.11542e-38 3
-0.37141 0.266136 0.702235 1.17996e-38 3
-0.368322 0.27224 0.718341 1.20755e-38 3
-0.351873 0.268545 0.70859 1.1061e-38 3
-0.335865 0.264948 0.6991 1.06925e-38 3
-0.294846 0.249363 0.657977 1.05089e-38 3
-0.284215 0.249363 0.657977 8.02102e-39 3
-0.0765512 0.121865 0.321557 2.29564e-38 3
-0.0709188 0.121119 0.319589 2.28645e-38 3
0.0188667 0.135499 0.357531 2.28645e-38 3
0.0244204 0.134272 0.354295 2.28645e-38 3
0.0730612 0.273495 0.721652 2.29567e-38 3
0.0839475 0.270997 0.715061 2.2405e-38 3
0.0933693 0.264948 0.6991 1.4111e-38 3
0.1042 0.263771 0.695993 1.33781e-38 3
0.114428 0.261447 0.689861 1.28235e-38 3
0.123937 0.258036 0.680863 1.41121e-38 3
0.134353 0.256919 0.677915 1.42035e-38 3
0.14468 0.255812 0.674993 1.47546e-38 3
0.155587 0.255812 0.674993 1.48446e-38 3
0.166493 0.255812 0.674993 1.46595e-38 3
0.177399 0.255812 0.674993 1.40152e-38 3
0.188305 0.255812 0.674993 1.44762e-38 3
0.202706 0.2603 0.686835 1.3645e-38 3
0.221578 0.269765 0.711811 1.45676e-38 3
0.230979 0.267335 0.705398 1.34598e-38 3
0.235998 0.2603 0.686835 1.43818e-38 3
0.247096 0.2603 0.686835 1.49353e-38 3
0.258193 0.2603 0.686835 1.43822e-38 3
0.271674 0.262603 0.692913 1.49343e-38 3
0.279164 0.259163 0.683836 1.53012e-38 3
0.2877 0.256919 0.677915 1.5854e-38 3
0.303916 0.261447 0.689861 1.36431e-38 3
0.317863 0.263771 0.695993 1.34588e-38 3
0.339676 0.27224 0.718341 1.29978e-38 3
0.359529 0.278631 0.735204 1.28134e-38 3
0.376714 0.282611 0.745707 1.27216e-38 3
0.390623 0.283964 0.749275 1.22599e-38 3
0.400811 0.282611 0.745707 1.309e-38 3
0.408965 0.279945 0.738672 1.2445e-38 3
0.418924 0.278631 0.735204 1.29981e-38 3
0.432835 0.279945 0.738672 1.05089e-38 3
0.462212 0.290923 0.767639 1.16152e-38 3
0.474615 0.290923 0.767639 1.04174e-38 3
0.487018 0.290923 0.767639 1.05096e-38 3
0.504366 0.293804 0.77524 1.17085e-38 3
0.516892 0.293804 0.77524 1.08787e-38 3
0.509249 0.282611 0.745707 9.68018e-39 3
0.51638 0.279945 0.738672 1.04177e-38 3
0.528315 0.279945 0.738672 9.12665e-39 3
0.54025 0.279945 0.738672 1.05096e-38 3
0.552185 0.279945 0.738672 9.86493e-39 3
0.56412 0.279945 0.738672 1.02337e-38 3
0.576055 0.279945 0.738672 9.58763e-39 3
0.635791 0.285329 0.752877 8.57347e-39 3
0.596349 0.262603 0.692913 9.12665e-39 3
0.624114 0.269765 0.711811 9.03481e-39 3
0.665882 0.282611 0.745707 9.12665e-39 3
0.629936 0.262603 0.692913 8.66603e-39 3
0.762609 0.31236 0.824202 8.20469e-39 3
0.784181 0.315683 0.83297 7.83591e-39 3
0.797639 0.315683 0.83297 7.46713e-39 3
0.824251 0.320802 0.846478 7.09835e-39 3
0.856446 0.327892 0.865185 7.37493e-39 3
0.865642 0.32609 0.860431 7.56004e-39 3
-0.380924 0.253601 0.641797 1.02334e-38 3
-0.370554 0.253601 0.641797 1.14319e-38 3
-0.369264 0.259994 0.657977 1.10631e-38 3
-0.381048 0.276244 0.6991 1.29059e-38 3
-0.369752 0.276244 0.6991 1.18918e-38 3
-0.368322 0.283847 0.718341 1.36414e-38 3
-0.34107 0.271397 0.686835 1.19822e-38 3
-0.305829 0.251539 0.636579 1.22588e-38 3
-0.0759276 0.126026 0.318938 2.26801e-38 3
-0.0702025 0.125007 0.31636 2.28645e-38 3
0.0062684 0.121093 0.306455 2.28645e-38 3
0.0243104 0.139366 0.352699 2.28645e-38 3
0.0298077 0.138431 0.350332 2.28645e-38 3
0.072394 0.282551 0.715061 2.28645e-38 3
0.0917313 0.271397 0.686835 1.37426e-38 3
0.10238 0.270212 0.683836 1.43915e-38 3
0.112936 0.269037 0.680863 1.36529e-38 3
0.1234 0.267873 0.677915 1.26362e-38 3
0.132067 0.263313 0.666376 1.38355e-38 3
0.142833 0.263313 0.666376 1.40173e-38 3
0.152949 0.262197 0.663553 1.44762e-38 3
0.165778 0.265573 0.672096 1.49361e-38 3
0.176637 0.265573 0.672096 1.44762e-38 3
0.185901 0.263313 0.666376 1.49371e-38 3
0.198356 0.265573 0.672096 1.33698e-38 3
0.213804 0.271397 0.686835 1.29081e-38 3
0.222945 0.269037 0.680863 1.46587e-38 3
0.227999 0.262197 0.663553 1.3552e-38 3
0.234741 0.257828 0.652493 1.37368e-38 3
0.245284 0.257828 0.652493 1.27226e-38 3
0.276747 0.267873 0.677915 1.41956e-38 3
0.285231 0.265573 0.672096 1.54849e-38 3
0.298654 0.267873 0.677915 1.36431e-38 3
0.315063 0.272593 0.689861 1.41956e-38 3
0.342822 0.286475 0.724993 1.43807e-38 3
0.361225 0.29188 0.738672 1.309e-38 3
0.378516 0.29607 0.749275 1.33669e-38 3
0.396311 0.300382 0.760186 1.16138e-38 3
0.40662 0.29893 0.756514 1.2168e-38 3
0.41683 0.297493 0.752877 1.19833e-38 3
0.424909 0.29466 0.745707 1.18918e-38 3
0.420922 0.283847 0.718341 1.19833e-38 3
0.428597 0.281266 0.711811 1.26286e-38 3
0.440098 0.281266 0.711811 1.1062e-38 3
0.46426 0.289152 0.731768 1.08776e-38 3
0.476084 0.289152 0.731768 1.08787e-38 3
0.487907 0.289152 0.731768 1.06018e-38 3
0.499731 0.289152 0.731768 1.06025e-38 3
0.506818 0.286475 0.724993 1.15245e-38 3
0.513774 0.283847 0.718341 9.49507e-39 3
0.520605 0.281266 0.711811 1.01412e-38 3
0.539462 0.285155 0.721652 1.04174e-38 3
0.551122 0.285155 0.721652 9.68054e-39 3
0.53563 0.271397 0.686835 9.86493e-39 3
0.546728 0.271397 0.686835 1.03245e-38 3
0.554335 0.264439 0.669224 8.57312e-39 3
0.575961 0.264439 0.669224 9.58763e-39 3
0.607545 0.273799 0.692913 7.37493e-39 3
0.665882 0.29466 0.745707 7.55932e-39 3
0.677931 0.29466 0.745707 8.85042e-39 3
0.643981 0.275016 0.695993 7.74371e-39 3
0.661103 0.277483 0.702235 8.0203e-39 3
0.823935 0.339992 0.860431 9.12665e-39 3
0.837837 0.339992 0.860431 6.82176e-39 3
0.922718 0.368325 0.932133 6.82248e-39 3
-0.379369 0.262893 0.639177 1.11542e-38 3
-0.369042 0.262893 0.639177 1.10638e-38 3
-0.312655 0.23593 0.573621 1.22606e-38 3
-0.30118 0.234214 0.569449 1.32747e-38 3
-0.300728 0.241232 0.586511 1.17978e-38 3
-0.290164 0.240331 0.584322 1.20744e-38 3
-0.280723 0.240331 0.584322 1.05993e-38 3
0.00130412 0.124823 0.303485 2.28645e-38 3
0.00623181 0.125309 0.304666 2.28645e-38 3
0.0296749 0.14345 0.348772 2.2956e-38 3
0.0355477 0.144414 0.351118 2.29567e-38 3
0.0831878 0.291443 0.70859 2.25894e-38 3
0.0917313 0.282495 0.686835 1.50326e-38 3
0.101935 0.280038 0.680863 1.37451e-38 3
0.111962 0.277624 0.674993 1.39313e-38 3
0.121818 0.275251 0.669224 1.31912e-38 3
0.130952 0.271767 0.660753 1.31901e-38 3
0.137565 0.263971 0.641797 1.37418e-38 3
0.157658 0.262893 0.639177 1.5029e-38 3
0.169368 0.265057 0.644438 1.40159e-38 3
0.179781 0.265057 0.644438 1.36471e-38 3
0.190979 0.266152 0.647101 1.37386e-38 3
0.206556 0.272919 0.663553 1.30932e-38 3
0.269064 0.260765 0.634002 1.40119e-38 3
0.29357 0.27408 0.666376 1.56711e-38 3
0.312311 0.281261 0.683836 1.42885e-38 3
0.346025 0.300976 0.731768 1.38268e-38 3
0.362937 0.305255 0.742173 1.25357e-38 3
0.378516 0.308176 0.749275 1.1984e-38 3
0.398245 0.314189 0.763895 1.27212e-38 3
0.410587 0.314189 0.763895 1.25368e-38 3
0.420877 0.312664 0.760186 1.19836e-38 3
0.405595 0.292767 0.711811 1.14305e-38 3
0.417096 0.292767 0.711811 1.29963e-38 3
0.420943 0.287539 0.6991 1.17989e-38 3
0.432239 0.287539 0.6991 1.24442e-38 3
0.443534 0.287539 0.6991 1.02323e-38 3
0.467348 0.295453 0.718341 1.15241e-38 3
0.478955 0.295453 0.718341 1.09709e-38 3
0.453146 0.272919 0.663553 1.18007e-38 3
0.458044 0.269493 0.655223 1.11553e-38 3
0.478645 0.275251 0.669224 9.21884e-39 3
0.511308 0.287539 0.6991 9.12665e-39 3
0.532106 0.292767 0.711811 8.94226e-39 3
0.536294 0.288829 0.702235 9.67983e-39 3
0.526395 0.277624 0.674993 1.00479e-38 3
0.532709 0.275251 0.669224 1.1062e-38 3
0.543522 0.275251 0.669224 1.05089e-38 3
0.56867 0.271767 0.660753 9.40395e-39 3
0.579346 0.271767 0.660753 8.94369e-39 3
0.661103 0.288829 0.702235 7.92882e-39 3
0.681619 0.292767 0.711811 6.3615e-39 3
0.69312 0.292767 0.711811 7.37565e-39 3
-0.332898 0.253557 0.593176 1.12475e-38 3
-0.310381 0.243415 0.569449 1.26294e-38 3
-0.29793 0.240788 0.563304 1.16145e-38 3
-0.293045 0.244303 0.571527 1.25357e-38 3
-0.281754 0.242533 0.567386 1.26272e-38 3
0.00130412 0.129727 0.303485 2.28645e-38 3
0.0349984 0.147768 0.345692 2.28645e-38 3
0.0381421 0.138878 0.324893 2.26816e-38 3
0.0933693 0.298835 0.6991 1.47564e-38 3
0.10238 0.29231 0.683836 1.40217e-38 3
0.111481 0.287292 0.672096 1.43926e-38 3
0.120276 0.282443 0.660753 1.38366e-38 3
0.124641 0.268832 0.628909 1.41121e-38 3
0.134263 0.267756 0.626394 1.31894e-38 3
0.143238 0.265631 0.621422 1.27266e-38 3
0.153279 0.265631 0.621422 1.40163e-38 3
0.165287 0.268832 0.628909 1.43858e-38 3
0.174747 0.267756 0.626394 1.31865e-38 3
0.18561 0.268832 0.628909 1.32787e-38 3
0.207601 0.271008 0.634002 1.3462e-38 3
0.247785 0.259454 0.606971 1.30914e-38 3
0.257592 0.259454 0.606971 1.28141e-38 3
0.272684 0.264581 0.618966 1.2629e-38 3
0.319282 0.298835 0.6991 1.27216e-38 3
0.281557 0.254521 0.595431 1.309e-38 3
0.291177 0.254521 0.595431 1.2813e-38 3
0.300798 0.254521 0.595431 1.29059e-38 3
0.364465 0.298835 0.6991 1.33669e-38 3
0.37576 0.298835 0.6991 1.30903e-38 3
0.387056 0.298835 0.6991 1.23524e-38 3
0.398352 0.298835 0.6991 1.2168e-38 3
0.409647 0.298835 0.6991 1.11528e-38 3
0.420943 0.298835 0.6991 1.16145e-38 3
0.432239 0.298835 0.6991 1.17989e-38 3
0.443534 0.298835 0.6991 1.14308e-38 3
0.45483 0.298835 0.6991 1.06943e-38 3
0.466126 0.298835 0.6991 1.11553e-38 3
0.445593 0.278913 0.652493 1.05099e-38 3
0.456136 0.278913 0.652493 1.02334e-38 3
0.476608 0.284847 0.666376 1.06021e-38 3
0.495814 0.289779 0.677915 9.49579e-39 3
0.508971 0.291039 0.680863 1.01408e-38 3
0.515489 0.28853 0.674993 1.08784e-38 3
0.521896 0.286064 0.669224 8.66567e-39 3
0.530442 0.284847 0.666376 9.95641e-39 3
0.543522 0.286064 0.669224 1.01408e-38 3
0.540477 0.278913 0.652493 9.67946e-39 3
0.53758 0.27211 0.636579 9.86493e-39 3
0.545647 0.271008 0.634002 9.40395e-39 3
0.781022 0.348641 0.815617 7.00687e-39 3
0.7942 0.348641 0.815617 7.37565e-39 3
-0.413276 0.248105 0.55928 1.0323e-38 3
-0.328429 0.245475 0.553351 1.18e-38 3
-0.318363 0.24461 0.551403 1.18929e-38 3
-0.299949 0.237097 0.534466 1.1523e-38 3
-0.291313 0.237097 0.534466 1.17992e-38 3
-0.292666 0.245475 0.553351 1.19825e-38 3
-0.285745 0.247222 0.55729 1.1706e-38 3
-0.274785 0.245475 0.553351 1.33648e-38 3
0.0338044 0.148122 0.333899 2.27727e-38 3
0.0376732 0.142355 0.320898 2.24061e-38 3
0.042858 0.142355 0.320898 1.40195e-38 3
0.0941564 0.278993 0.628909 1.476e-38 3
0.103901 0.277877 0.626394 1.31022e-38 3
0.11267 0.274582 0.618966 1.42986e-38 3
0.120293 0.269261 0.606971 1.27291e-38 3
0.129099 0.26719 0.602302 1.42957e-38 3
0.137771 0.26515 0.597704 1.32798e-38 3
0.147993 0.266166 0.599994 1.46627e-38 3
0.157688 0.266166 0.599994 1.47549e-38 3
0.170651 0.271364 0.611713 1.35564e-38 3
0.181243 0.272429 0.614111 1.36478e-38 3
0.191918 0.273501 0.616529 1.23571e-38 3
0.201088 0.272429 0.614111 1.32783e-38 3
0.210186 0.271364 0.611713 1.33705e-38 3
0.217521 0.268221 0.604627 1.38301e-38 3
0.233454 0.264142 0.595431 1.19862e-38 3
0.24124 0.262148 0.590937 1.21705e-38 3
0.250788 0.262148 0.590937 1.25386e-38 3
0.265342 0.26719 0.602302 1.14319e-38 3
0.272974 0.26515 0.597704 1.27226e-38 3
0.279432 0.262148 0.590937 1.18921e-38 3
0.290075 0.263141 0.593176 1.1707e-38 3
0.303103 0.266166 0.599994 1.2445e-38 3
0.320157 0.272429 0.614111 1.30914e-38 3
0.369168 0.30469 0.686835 1.31836e-38 3
0.380266 0.30469 0.686835 1.21684e-38 3
0.391363 0.30469 0.686835 1.29978e-38 3
0.406022 0.307386 0.692913 1.28123e-38 3
0.417218 0.307386 0.692913 1.08773e-38 3
0.424656 0.30469 0.686835 1.13383e-38 3
0.435753 0.30469 0.686835 1.06011e-38 3
0.446851 0.30469 0.686835 1.03255e-38 3
0.442424 0.294361 0.663553 1.05099e-38 3
0.438288 0.28471 0.641797 1.03255e-38 3
0.445011 0.282395 0.636579 1.03255e-38 3
0.457154 0.283548 0.639177 1.0049e-38 3
0.471329 0.285882 0.644438 1.0049e-38 3
0.498142 0.295614 0.666376 9.58798e-39 3
0.504614 0.293119 0.660753 1.07862e-38 3
0.510978 0.290666 0.655223 8.66567e-39 3
0.510877 0.28471 0.641797 9.58763e-39 3
0.523392 0.285882 0.644438 8.29689e-39 3
0.527294 0.282395 0.636579 8.38908e-39 3
0.528979 0.277877 0.626394 8.11322e-39 3
0.534821 0.275672 0.621422 7.92882e-39 3
0.542708 0.274582 0.618966 7.56076e-39 3
-0.401797 0.249998 0.543745 1.15223e-38 3
-0.369219 0.251747 0.547547 1.06007e-38 3
-0.344302 0.246574 0.536296 1.01408e-38 3
-0.333353 0.244896 0.532648 1.15241e-38 3
-0.325855 0.245732 0.534466 1.01412e-38 3
-0.316141 0.244896 0.532648 1.07858e-38 3
-0.305457 0.243242 0.529049 1.09709e-38 3
-0.29393 0.240801 0.523741 1.04181e-38 3
-0.285467 0.240801 0.523741 1.10617e-38 3
-0.281716 0.244896 0.532648 1.2535e-38 3
-0.282726 0.253519 0.551403 1.24435e-38 3
0.0376732 0.14754 0.320898 2.12129e-38 3
0.042858 0.14754 0.320898 1.25458e-38 3
0.0930355 0.285712 0.621422 1.33777e-38 3
0.103487 0.286851 0.623898 1.30086e-38 3
0.112226 0.283463 0.616529 1.22707e-38 3
0.118006 0.273762 0.595431 1.37433e-38 3
0.126664 0.271696 0.590937 1.30972e-38 3
0.135191 0.269661 0.586511 1.39266e-38 3
0.145212 0.270675 0.588716 1.365e-38 3
0.154724 0.270675 0.588716 1.29117e-38 3
0.164856 0.271696 0.590937 1.245e-38 3
0.175064 0.272725 0.593176 1.30032e-38 3
0.200302 0.281248 0.611713 1.29092e-38 3
0.20616 0.27586 0.599994 1.22635e-38 3
0.21503 0.274807 0.597704 1.34609e-38 3
0.223833 0.273762 0.595431 1.29996e-38 3
0.233454 0.273762 0.595431 1.23546e-38 3
0.239433 0.269661 0.586511 1.23549e-38 3
0.248909 0.269661 0.586511 1.1894e-38 3
0.261322 0.272725 0.593176 1.13401e-38 3
0.269884 0.271696 0.590937 1.11553e-38 3
0.277339 0.269661 0.586511 1.34602e-38 3
0.286815 0.269661 0.586511 1.26294e-38 3
0.304269 0.276921 0.602302 1.17989e-38 3
0.322688 0.284583 0.618966 1.16159e-38 3
0.38555 0.302519 0.657977 1.18914e-38 3
0.402954 0.30769 0.669224 1.2168e-38 3
0.413767 0.30769 0.669224 1.08776e-38 3
0.435753 0.315787 0.686835 1.11542e-38 3
0.431703 0.305083 0.663553 1.03255e-38 3
0.442424 0.305083 0.663553 1.02334e-38 3
0.449338 0.302519 0.657977 1.08787e-38 3
0.424312 0.279068 0.606971 1.06947e-38 3
0.422652 0.271696 0.590937 9.03517e-39 3
0.445654 0.280154 0.609332 9.49615e-39 3
0.479768 0.29508 0.641797 9.58834e-39 3
0.490137 0.29508 0.641797 9.03517e-39 3
0.494428 0.291496 0.634002 9.31176e-39 3
0.498616 0.287998 0.626394 8.3898e-39 3
0.512839 0.290321 0.631445 9.12737e-39 3
0.518858 0.287998 0.626394 8.20541e-39 3
0.52478 0.285712 0.621422 1.01415e-38 3
0.518365 0.276921 0.602302 6.82248e-39 3
0.536348 0.281248 0.611713 7.74515e-39 3
-0.383921 0.24198 0.508436 1.02319e-38 3
-0.375706 0.24198 0.508436 9.40179e-39 3
-0.36512 0.240418 0.505156 9.49471e-39 3
-0.345453 0.238114 0.500314 9.95568e-39 3
-0.337369 0.238114 0.500314 1.0417e-38 3
-0.349377 0.252643 0.530842 1.06014e-38 3
-0.339649 0.25179 0.529049 1.01412e-38 3
-0.327779 0.249263 0.523741 1.03255e-38 3
-0.319316 0.249263 0.523741 1.11546e-38 3
-0.311897 0.2501 0.525498 1.15234e-38 3
-0.300383 0.247607 0.520261 1.17078e-38 3
-0.29101 0.246787 0.518538 1.19843e-38 3
-0.282632 0.246787 0.518538 1.28134e-38 3
-0.274253 0.246787 0.518538 1.1613e-38 3
-0.269444 0.2501 0.525498 1.20747e-38 3
0.0378282 0.153353 0.322219 1.69802e-38 3
0.0430344 0.153353 0.322219 1.29157e-38 3
0.0915818 0.291132 0.611713 1.23625e-38 3
0.101466 0.291132 0.611713 1.15327e-38 3
0.110486 0.288875 0.606971 1.18079e-38 3
0.117559 0.28231 0.593176 1.24511e-38 3
0.125246 0.278096 0.584322 1.29121e-38 3
0.132706 0.274006 0.575729 1.2728e-38 3
0.142532 0.275017 0.577854 1.36493e-38 3
0.152432 0.276036 0.579994 1.24507e-38 3
0.16301 0.278096 0.584322 1.31876e-38 3
0.235031 0.274006 0.575729 1.25393e-38 3
0.246144 0.276036 0.579994 1.13401e-38 3
0.259357 0.280187 0.588716 1.18932e-38 3
0.268869 0.280187 0.588716 1.32758e-38 3
0.278381 0.280187 0.588716 1.16163e-38 3
0.290075 0.28231 0.593176 1.30903e-38 3
0.312687 0.294584 0.618966 1.29981e-38 3
0.323969 0.295753 0.621422 1.07869e-38 3
0.420982 0.315804 0.663553 1.09698e-38 3
0.428075 0.31315 0.657977 1.06943e-38 3
0.449338 0.31315 0.657977 1.06021e-38 3
0.459969 0.31315 0.657977 1.03259e-38 3
0.408769 0.272006 0.571527 1.00493e-38 3
0.413477 0.26906 0.565337 9.49615e-39 3
0.460879 0.293424 0.616529 9.58834e-39 3
0.467162 0.291132 0.611713 9.86493e-39 3
0.473348 0.288875 0.606971 8.20541e-39 3
0.483155 0.288875 0.606971 9.21956e-39 3
0.492962 0.288875 0.606971 8.57419e-39 3
0.510687 0.293424 0.616529 9.95713e-39 3
0.512576 0.288875 0.606971 8.66639e-39 3
0.514408 0.284465 0.597704 8.02102e-39 3
0.516185 0.280187 0.588716 7.65296e-39 3
0.483859 0.257888 0.541863 6.45441e-39 3
-0.385872 0.246198 0.500314 9.21848e-39 3
-0.380217 0.247781 0.503532 9.58726e-39 3
-0.370889 0.246987 0.501918 1.06943e-38 3
-0.360469 0.245414 0.498721 1.0049e-38 3
-0.351292 0.244635 0.497138 9.31139e-39 3
-0.343259 0.244635 0.497138 1.0694e-38 3
-0.334166 0.243861 0.495565 1.10627e-38 3
-0.326159 0.243861 0.495565 1.04174e-38 3
-0.322231 0.246987 0.501918 1.02341e-38 3
-0.324523 0.255165 0.518538 1.08787e-38 3
-0.316144 0.255165 0.518538 1.1523e-38 3
-0.309818 0.256867 0.521995 1.26283e-38 3
-0.2984 0.254323 0.516826 1.15226e-38 3
-0.289095 0.253487 0.515126 1.1523e-38 3
-0.278937 0.25183 0.51176 1.30889e-38 3
-0.270668 0.25183 0.51176 1.189e-38 3
-0.2624 0.25183 0.51176 1.23513e-38 3
0.0379845 0.159215 0.32355 1.78143e-38 3
0.0430344 0.15856 0.322219 1.26384e-38 3
0.0894846 0.294122 0.597704 1.2822e-38 3
0.0991419 0.294122 0.597704 1.24529e-38 3
0.108799 0.294122 0.597704 1.30972e-38 3
0.116675 0.289699 0.588716 1.26344e-38 3
0.124318 0.285407 0.579994 1.33723e-38 3
0.130783 0.279203 0.567386 1.30957e-38 3
0.13995 0.279203 0.567386 1.24507e-38 3
0.158786 0.25101 0.510093 1.32794e-38 3
0.165946 0.249385 0.506791 1.22642e-38 3
0.173015 0.247781 0.503532 1.27244e-38 3
0.179993 0.246198 0.500314 1.18014e-38 3
0.188077 0.246198 0.500314 1.33684e-38 3
0.196161 0.246198 0.500314 1.23546e-38 3
0.247059 0.286468 0.58215 1.25386e-38 3
0.257422 0.287537 0.584322 1.18929e-38 3
0.266863 0.287537 0.584322 1.26304e-38 3
0.274257 0.285407 0.579994 1.35524e-38 3
0.295674 0.297529 0.604627 1.21695e-38 3
0.325259 0.307012 0.623898 1.09713e-38 3
0.315355 0.257726 0.523741 1.12464e-38 3
0.323818 0.257726 0.523741 1.1339e-38 3
0.33228 0.257726 0.523741 1.07865e-38 3
0.341886 0.25859 0.525498 1.05099e-38 3
0.350376 0.25859 0.525498 1.16163e-38 3
0.388201 0.273262 0.555314 1.05103e-38 3
0.397173 0.273262 0.555314 9.95712e-39 3
0.397684 0.267569 0.543745 9.49615e-39 3
0.400902 0.263904 0.536296 8.85078e-39 3
0.404032 0.260338 0.529049 8.75858e-39 3
0.395222 0.249385 0.506791 8.2976e-39 3
0.40211 0.248581 0.505156 9.49615e-39 3
0.410272 0.248581 0.505156 9.68054e-39 3
0.504725 0.299844 0.609332 8.94297e-39 3
0.482645 0.281241 0.571527 9.40431e-39 3
0.481339 0.275214 0.55928 9.40431e-39 3
0.486897 0.273262 0.555314 7.56076e-39 3
0.480534 0.264811 0.538139 7.19198e-39 3
0.490916 0.265724 0.539995 6.6388e-39 3
0.504863 0.268502 0.545639 8.7593e-39 3
-0.380217 0.255917 0.503532 9.127e-39 3
-0.370889 0.255097 0.501918 1.05103e-38 3
-0.359324 0.252667 0.497138 9.12772e-39 3
-0.35018 0.251868 0.495565 1.19847e-38 3
-0.341094 0.251073 0.494001 9.77237e-39 3
-0.331024 0.249499 0.490904 1.22617e-38 3
-0.322082 0.248719 0.48937 9.95676e-39 3
-0.318152 0.251868 0.495565 1.05107e-38 3
-0.316148 0.256743 0.505156 9.58798e-39 3
-0.307986 0.256743 0.505156 1.13386e-38 3
-0.301771 0.25841 0.508436 1.29038e-38 3
-0.292606 0.257573 0.506791 1.1706e-38 3
-0.285341 0.25841 0.508436 1.19825e-38 3
-0.276229 0.257573 0.506791 1.18904e-38 3
-0.267176 0.256743 0.505156 1.20747e-38 3
-0.256531 0.254282 0.500314 1.05085e-38 3
0.0430344 0.163766 0.322219 1.3005e-38 3
0.0482406 0.163766 0.322219 1.23607e-38 3
0.095497 0.292611 0.575729 1.38344e-38 3
0.105576 0.294778 0.579994 1.31876e-38 3
0.114947 0.294778 0.579994 1.41088e-38 3
0.122058 0.289419 0.569449 1.30028e-38 3
0.131258 0.289419 0.569449 1.34642e-38 3
0.140459 0.289419 0.569449 1.245e-38 3
0.164879 0.255917 0.503532 1.29092e-38 3
0.170818 0.252667 0.497138 1.16181e-38 3
0.178284 0.251868 0.495565 1.38301e-38 3
0.186291 0.251868 0.495565 1.2262e-38 3
0.194915 0.252667 0.497138 1.2539e-38 3
0.203594 0.253472 0.498721 1.27234e-38 3
0.254418 0.264419 0.520261 1.10638e-38 3
0.261953 0.263544 0.518538 1.13404e-38 3
0.27123 0.264419 0.520261 1.10635e-38 3
0.279636 0.264419 0.520261 1.12479e-38 3
0.31326 0.264419 0.520261 1.1523e-38 3
0.321666 0.264419 0.520261 1.10631e-38 3
0.327893 0.262674 0.516826 1.09709e-38 3
0.338478 0.264419 0.520261 9.49579e-39 3
0.346884 0.264419 0.520261 1.06021e-38 3
0.357667 0.266188 0.523741 9.40359e-39 3
0.366129 0.266188 0.523741 9.77273e-39 3
0.377114 0.26798 0.527267 1.03259e-38 3
0.384339 0.267081 0.525498 9.77273e-39 3
0.390211 0.265301 0.521995 8.11321e-39 3
0.385785 0.256743 0.505156 8.20541e-39 3
0.384037 0.250284 0.492448 8.02102e-39 3
0.389544 0.248719 0.48937 9.03517e-39 3
0.397451 0.248719 0.48937 9.31176e-39 3
0.504725 0.309689 0.609332 8.94297e-39 3
0.482645 0.290475 0.571527 9.68089e-39 3
0.474559 0.280247 0.551403 8.02137e-39 3
0.465441 0.269797 0.530842 8.29832e-39 3
0.477254 0.271639 0.534466 8.20613e-39 3
0.489229 0.273506 0.538139 6.91539e-39 3
-0.351513 0.255032 0.48633 1.09716e-38 3
-0.342591 0.254243 0.484825 1.09713e-38 3
-0.331677 0.251903 0.480363 9.86528e-39 3
-0.324912 0.252678 0.481841 1.12482e-38 3
-0.316154 0.251903 0.480363 1.08798e-38 3
-0.306512 0.250367 0.477434 1.10631e-38 3
-0.314121 0.263206 0.501918 9.95568e-39 3
-0.306012 0.263206 0.501918 1.01397e-38 3
-0.296004 0.26153 0.498721 1.25357e-38 3
-0.281683 0.263206 0.501918 1.11528e-38 3
-0.273573 0.263206 0.501918 1.21669e-38 3
-0.263772 0.26153 0.498721 1.04159e-38 3
0.042858 0.16828 0.320898 1.29121e-38 3
0.0480429 0.16828 0.320898 1.32798e-38 3
0.0889561 0.281234 0.536296 1.32798e-38 3
0.10328 0.297538 0.567386 1.32794e-38 3
0.107763 0.28514 0.543745 1.36471e-38 3
0.117363 0.287134 0.547547 1.35542e-38 3
0.131258 0.29862 0.569449 1.38308e-38 3
0.140972 0.29971 0.571527 1.33705e-38 3
0.16974 0.259055 0.494001 1.29088e-38 3
0.177163 0.25824 0.492448 1.32769e-38 3
0.185704 0.259055 0.494001 1.33684e-38 3
0.194299 0.259875 0.495565 1.33687e-38 3
0.202306 0.259875 0.495565 1.2539e-38 3
0.210313 0.259875 0.495565 1.25386e-38 3
0.21971 0.26153 0.498721 1.21695e-38 3
0.228496 0.262366 0.500314 1.23546e-38 3
0.244388 0.271024 0.516826 1.20773e-38 3
0.252738 0.271024 0.516826 1.20765e-38 3
0.261089 0.271024 0.516826 1.19854e-38 3
0.27123 0.272825 0.520261 1.28152e-38 3
0.279636 0.272825 0.520261 1.15245e-38 3
0.325942 0.308723 0.588716 1.17092e-38 3
0.294491 0.271024 0.516826 1.19858e-38 3
0.302842 0.271024 0.516826 1.07872e-38 3
0.310169 0.270133 0.515126 1.07872e-38 3
0.318492 0.270133 0.515126 1.17092e-38 3
0.325743 0.269247 0.513437 1.17092e-38 3
0.335138 0.270133 0.515126 1.07865e-38 3
0.345736 0.271922 0.518538 1.06021e-38 3
0.357667 0.27465 0.523741 1.05099e-38 3
0.366129 0.27465 0.523741 9.40359e-39 3
0.377114 0.2765 0.527267 8.85077e-39 3
0.381777 0.273735 0.521995 8.94297e-39 3
0.375203 0.263206 0.501918 9.21956e-39 3
0.383313 0.263206 0.501918 1.00493e-38 3
0.376925 0.253458 0.483328 8.3898e-39 3
0.384734 0.253458 0.483328 8.482e-39 3
0.392544 0.253458 0.483328 9.03517e-39 3
0.405358 0.256626 0.48937 9.49615e-39 3
0.516581 0.320783 0.611713 8.482e-39 3
0.467968 0.28514 0.543745 8.85078e-39 3
0.476754 0.28514 0.543745 8.48235e-39 3
0.47563 0.279321 0.532648 8.29832e-39 3
-0.324705 0.254206 0.470266 9.77309e-39 3
-0.320962 0.257297 0.475983 1.01419e-38 3
-0.315187 0.25887 0.478894 1.02333e-38 3
-0.306512 0.258081 0.477434 8.84969e-39 3
-0.287407 0.248242 0.459233 8.66494e-39 3
-0.285986 0.260464 0.481841 1.10606e-38 3
-0.275656 0.258081 0.477434 1.15212e-38 3
-0.239377 0.244655 0.452597 1.20758e-38 3
-0.228759 0.24117 0.446149 1.12457e-38 3
0.0426831 0.172756 0.319589 1.43847e-38 3
0.0478468 0.172756 0.319589 1.40152e-38 3
0.081683 0.266197 0.492448 1.4384e-38 3
0.0976212 0.289899 0.536296 1.37379e-38 3
0.0975963 0.266197 0.492448 1.39223e-38 3
0.105553 0.266197 0.492448 1.43825e-38 3
0.11351 0.266197 0.492448 1.43825e-38 3
0.110995 0.243249 0.449995 1.37379e-38 3
0.170277 0.267882 0.495565 1.35542e-38 3
0.177163 0.266197 0.492448 1.28159e-38 3
0.18512 0.266197 0.492448 1.32769e-38 3
0.192471 0.265363 0.490904 1.33691e-38 3
0.199154 0.263709 0.487846 1.18018e-38 3
0.205755 0.262076 0.484825 1.25386e-38 3
0.214252 0.26289 0.48633 1.32762e-38 3
0.227045 0.268732 0.497138 1.29077e-38 3
0.238869 0.273067 0.505156 1.2907e-38 3
0.248635 0.27484 0.508436 1.28141e-38 3
0.25685 0.27484 0.508436 1.16166e-38 3
0.287841 0.273067 0.505156 1.19861e-38 3
0.296961 0.27395 0.506791 1.23549e-38 3
0.307138 0.275735 0.510093 1.10642e-38 3
0.318492 0.278456 0.515126 1.07872e-38 3
0.325743 0.277543 0.513437 1.1156e-38 3
0.334039 0.277543 0.513437 1.00493e-38 3
0.345736 0.2803 0.518538 1.06947e-38 3
0.357667 0.283112 0.523741 1.04177e-38 3
0.353137 0.273067 0.505156 9.77237e-39 3
0.358983 0.271316 0.501918 1.00493e-38 3
0.364755 0.269588 0.498721 9.40431e-39 3
0.368124 0.266197 0.492448 9.68054e-39 3
0.371408 0.26289 0.48633 1.06947e-38 3
0.368954 0.255742 0.473107 1.21698e-38 3
0.376598 0.255742 0.473107 1.20776e-38 3
0.387757 0.258081 0.477434 9.95713e-39 3
0.400353 0.261267 0.483328 9.77273e-39 3
0.53758 0.344108 0.636579 9.40395e-39 3
0.467968 0.293926 0.543745 7.46784e-39 3
0.486897 0.30018 0.555314 9.31211e-39 3
-0.307178 0.247673 0.444882 9.03552e-39 3
-0.294141 0.242844 0.436207 9.77237e-39 3
-0.278426 0.247673 0.444882 9.86277e-39 3
-0.264049 0.247673 0.444882 1.25364e-38 3
-0.258329 0.249088 0.447424 1.2351e-38 3
-0.247405 0.252698 0.453908 1.22602e-38 3
-0.238001 0.25052 0.449995 1.15234e-38 3
-0.228759 0.248379 0.446149 1.15226e-38 3
0.0421668 0.175768 0.315723 1.52108e-38 3
0.047268 0.175768 0.315723 1.49346e-38 3
0.0796785 0.267426 0.480363 1.52112e-38 3
0.0874399 0.267426 0.480363 1.41048e-38 3
0.0934808 0.262593 0.471682 1.40134e-38 3
0.0975752 0.253433 0.455228 1.42896e-38 3
0.102838 0.248379 0.446149 1.42892e-38 3
0.110361 0.249088 0.447424 1.37371e-38 3
0.120341 0.254915 0.45789 1.40141e-38 3
0.131984 0.263386 0.473107 1.41077e-38 3
0.153293 0.274154 0.492448 1.41996e-38 3
0.16125 0.274154 0.492448 1.40148e-38 3
0.16974 0.275018 0.494001 1.41992e-38 3
0.177163 0.274154 0.492448 1.28166e-38 3
0.184539 0.273294 0.490904 1.37386e-38 3
0.191272 0.271591 0.487846 1.4568e-38 3
0.197921 0.26991 0.484825 1.45676e-38 3
0.203238 0.266608 0.478894 1.34613e-38 3
0.210976 0.266608 0.478894 1.26308e-38 3
0.221422 0.26991 0.484825 1.22624e-38 3
0.238869 0.281229 0.505156 1.25382e-38 3
0.247031 0.281229 0.505156 1.24453e-38 3
0.256019 0.282139 0.506791 1.2262e-38 3
0.265065 0.283055 0.508436 1.21705e-38 3
0.27328 0.283055 0.508436 1.24471e-38 3
0.283272 0.276765 0.497138 1.16174e-38 3
0.286753 0.27244 0.48937 1.12497e-38 3
0.29466 0.27244 0.48937 1.13415e-38 3
0.310325 0.279426 0.501918 1.15252e-38 3
0.319459 0.280324 0.503532 1.07869e-38 3
0.320383 0.274154 0.492448 1.1617e-38 3
0.326288 0.27244 0.48937 1.06029e-38 3
0.334195 0.27244 0.48937 1.15245e-38 3
0.337878 0.269077 0.483328 1.15245e-38 3
0.343567 0.267426 0.480363 1.10638e-38 3
0.351328 0.267426 0.480363 1.10638e-38 3
0.35909 0.267426 0.480363 9.49615e-39 3
0.358064 0.261021 0.468858 9.95713e-39 3
0.364548 0.260241 0.467458 9.49615e-39 3
0.372101 0.260241 0.467458 9.40395e-39 3
0.376285 0.257932 0.463309 8.75858e-39 3
0.386055 0.259467 0.466067 9.58834e-39 3
0.408162 0.269077 0.483328 8.94297e-39 3
0.545647 0.352959 0.634002 1.04181e-38 3
