# .PCD v0.7 - Point Cloud Data file format
VERSION 0.7
FIELDS x y z rgb label
SIZE 4 4 4 4 4
TYPE F F F F U
COUNT 1 1 1 1 1
WIDTH 2388
HEIGHT 1
VIEWPOINT 0 0 0 1 0 0 0
POINTS 2388
DATA ascii
0.272045 -0.305048 0.477434 9.02874e-39 5
0.279759 -0.305048 0.477434 6.1721e-39 5
0.248773 -0.306684 0.492448 7.54788e-39 5
0.249664 -0.298243 0.478894 6.81104e-39 5
0.257402 -0.298243 0.478894 8.28868e-39 5
0.265139 -0.298243 0.478894 8.84328e-39 5
0.271218 -0.29643 0.475983 1.00411e-38 5
0.279759 -0.297334 0.477434 9.0273e-39 5
0.28401 -0.293752 0.471682 4.69625e-39 5
0.232205 -0.308426 0.508436 3.31225e-39 5
0.250348 -0.300618 0.495565 7.36278e-39 5
0.251976 -0.293195 0.483328 4.87671e-39 5
0.258986 -0.292293 0.481841 3.86435e-39 5
0.265953 -0.291397 0.480363 6.26143e-39 5
0.272877 -0.290506 0.478894 9.94712e-39 5
0.278064 -0.287865 0.474541 9.76345e-39 5
0.28401 -0.286131 0.471682 6.9086e-39 5
0.232962 -0.301189 0.510093 4.41287e-39 5
0.243884 -0.294475 0.498721 7.73192e-39 5
0.249558 -0.291688 0.494001 4.3239e-39 5
0.252756 -0.28627 0.484825 2.48356e-39 5
0.260589 -0.28627 0.484825 2.39029e-39 5
0.267594 -0.285386 0.483328 7.36635e-39 5
0.274556 -0.284508 0.481841 1.05903e-38 5
0.285731 -0.280197 0.474541 3.95761e-39 5
0.226937 -0.295838 0.515126 5.79652e-39 5
0.232205 -0.291996 0.508436 9.3893e-39 5
0.238869 -0.290113 0.505156 6.80961e-39 5
0.243884 -0.286417 0.498721 2.57182e-39 5
0.250348 -0.284604 0.495565 2.29809e-39 5
0.253541 -0.279301 0.48633 2.66902e-39 5
0.261399 -0.279301 0.48633 1.92895e-39 5
0.268423 -0.278436 0.484825 7.08834e-39 5
0.274556 -0.276723 0.481841 1.07755e-38 5
0.281476 -0.275874 0.480363 8.4727e-39 5
0.287473 -0.274192 0.477434 4.23456e-39 5
0.215433 -0.306683 0.549468 3.95476e-39 5
0.219686 -0.30036 0.538139 4.59942e-39 5
0.232286 -0.294292 0.527267 9.66696e-39 5
0.238397 -0.291349 0.521995 7.08548e-39 5
0.24042 -0.283781 0.508436 2.29596e-39 5
0.245448 -0.280143 0.501918 2.11443e-39 5
0.251942 -0.278359 0.498721 2.0233e-39 5
0.254331 -0.272289 0.487846 2.57503e-39 5
0.262213 -0.272289 0.487846 3.58562e-39 5
0.269256 -0.271443 0.48633 9.48329e-39 5
0.274556 -0.268937 0.481841 9.7613e-39 5
0.281476 -0.268112 0.480363 5.98449e-39 5
0.288352 -0.267293 0.478894 2.66867e-39 5
0.202993 -0.29267 0.539995 6.16674e-39 5
0.210268 -0.290666 0.536296 7.08369e-39 5
0.218933 -0.290666 0.536296 8.09748e-39 5
0.232286 -0.285773 0.527267 7.82233e-39 5
0.239997 -0.284814 0.525498 4.50543e-39 5
0.244388 -0.280114 0.516826 1.9286e-39 5
0.248635 -0.275566 0.508436 1.37793e-39 5
0.255925 -0.266064 0.490904 3.8622e-39 5
0.263857 -0.266064 0.490904 9.11413e-39 5
0.270095 -0.264406 0.487846 1.04049e-38 5
0.274556 -0.261152 0.481841 9.30211e-39 5
0.281476 -0.260351 0.480363 4.23599e-39 5
0.288352 -0.259555 0.478894 2.02509e-39 5
0.202993 -0.283946 0.539995 7.36207e-39 5
0.210991 -0.28297 0.538139 9.29531e-39 5
0.218933 -0.282001 0.536296 9.75522e-39 5
0.224523 -0.27819 0.529049 8.92618e-39 5
0.232286 -0.277253 0.527267 4.22706e-39 5
0.240805 -0.277253 0.527267 2.66366e-39 5
0.246832 -0.274481 0.521995 2.66652e-39 5
0.249445 -0.268222 0.510093 2.02223e-39 5
0.25673 -0.258944 0.492448 7.54681e-39 5
0.264687 -0.258944 0.492448 1.07737e-38 5
0.270939 -0.257326 0.48937 9.2996e-39 5
0.275404 -0.254149 0.483328 3.497e-39 5
0.283213 -0.254149 0.483328 1.37972e-39 5
0.209495 -0.284036 0.55729 7.9113e-39 5
0.216955 -0.282028 0.553351 7.63472e-39 5
0.218933 -0.273336 0.536296 6.34362e-39 5
0.233861 -0.270556 0.530842 4.6884e-39 5
0.242438 -0.270556 0.530842 3.6771e-39 5
0.249445 -0.25998 0.510093 5.61285e-39 5
0.255193 -0.257464 0.505156 8.09891e-39 5
0.25673 -0.250987 0.492448 9.20598e-39 5
0.264687 -0.250987 0.492448 8.56275e-39 5
0.270939 -0.249419 0.48937 3.9569e-39 5
0.277114 -0.24787 0.48633 2.76122e-39 5
0.28586 -0.248642 0.487846 1.19712e-39 5
0.209495 -0.275031 0.55729 6.52802e-39 5
0.216191 -0.272126 0.551403 8.18789e-39 5
0.219686 -0.26558 0.538139 8.83291e-39 5
0.226822 -0.263767 0.534466 7.91095e-39 5
0.243263 -0.26287 0.532648 8.83612e-39 5
0.25754 -0.243797 0.494001 5.33805e-39 5
0.263857 -0.242269 0.490904 3.12785e-39 5
0.270939 -0.241512 0.48937 2.85412e-39 5
0.277114 -0.240012 0.48633 1.84285e-39 5
0.16507 -0.31946 0.669224 6.07526e-39 5
0.221803 -0.294305 0.616529 8.27902e-39 5
0.215433 -0.262293 0.549468 7.44925e-39 5
0.218186 -0.255132 0.534466 7.81804e-39 5
0.22605 -0.254264 0.532648 8.46377e-39 5
0.234656 -0.254264 0.532648 8.83398e-39 5
0.25685 -0.242706 0.508436 4.04874e-39 5
0.258355 -0.236562 0.495565 3.22184e-39 5
0.264687 -0.235074 0.492448 2.11656e-39 5
0.270939 -0.233605 0.48937 1.28859e-39 5
0.277978 -0.232877 0.487846 1.75065e-39 5
0.154919 -0.309971 0.672096 4.78668e-39 5
0.165778 -0.309971 0.672096 3.40266e-39 5
0.174392 -0.306031 0.663553 5.3377e-39 5
0.214373 -0.287742 0.623898 8.55561e-39 5
0.222679 -0.285468 0.618966 8.73892e-39 5
0.214679 -0.252529 0.547547 7.26559e-39 5
0.217444 -0.245658 0.532648 9.56904e-39 5
0.225284 -0.244825 0.530842 7.63293e-39 5
0.234656 -0.245658 0.532648 9.57011e-39 5
0.251869 -0.245658 0.532648 6.16138e-39 5
0.256119 -0.24155 0.523741 3.21648e-39 5
0.25685 -0.234491 0.508436 1.93147e-39 5
0.259175 -0.22928 0.497138 1.65523e-39 5
0.264687 -0.227117 0.492448 1.84105e-39 5
0.270939 -0.225698 0.48937 1.28788e-39 5
0.143444 -0.297834 0.669224 2.57183e-39 5
0.154257 -0.297834 0.669224 1.74599e-39 5
0.16507 -0.297834 0.669224 2.20661e-39 5
0.169368 -0.286803 0.644438 2.38851e-39 5
0.177588 -0.283305 0.636579 7.27024e-39 5
0.219623 -0.284462 0.639177 9.66231e-39 5
0.222679 -0.275467 0.618966 8.92439e-39 5
0.210268 -0.238675 0.536296 8.92511e-39 5
0.224523 -0.23545 0.529049 9.56904e-39 5
0.233861 -0.236248 0.530842 8.83219e-39 5
0.242438 -0.236248 0.530842 8.83219e-39 5
0.249325 -0.234657 0.527267 6.99078e-39 5
0.256119 -0.233087 0.523741 3.67711e-39 5
0.259175 -0.221248 0.497138 2.11729e-39 5
0.263032 -0.217791 0.48937 1.84105e-39 5
0.270939 -0.217791 0.48937 1.74885e-39 5
0.124478 -0.293288 0.683836 5.80119e-39 5
0.135527 -0.293288 0.683836 6.62487e-39 5
0.145307 -0.290748 0.677915 3.40122e-39 5
0.154919 -0.288253 0.672096 2.85125e-39 5
0.163671 -0.284588 0.663553 2.02258e-39 5
0.169368 -0.27639 0.644438 5.52174e-39 5
0.176869 -0.271914 0.634002 7.63902e-39 5
0.219686 -0.2308 0.538139 9.66195e-39 5
0.226822 -0.229225 0.534466 9.56976e-39 5
0.236264 -0.23001 0.536296 9.29425e-39 5
0.249325 -0.226138 0.527267 7.54504e-39 5
0.255266 -0.223876 0.521995 5.06076e-39 5
0.264582 -0.224625 0.523741 3.03782e-39 5
0.258355 -0.212541 0.495565 2.118e-39 5
0.261399 -0.20858 0.48633 2.39495e-39 5
0.130162 -0.295126 0.715061 5.0647e-39 5
0.136121 -0.283476 0.686835 7.5479e-39 5
0.146576 -0.282239 0.683836 3.58419e-39 5
0.155587 -0.278589 0.674993 2.84804e-39 5
0.164367 -0.275032 0.666376 4.59977e-39 5
0.168674 -0.264888 0.641797 6.62667e-39 5
0.177588 -0.262734 0.636579 8.09858e-39 5
0.232373 -0.225988 0.547547 9.84634e-39 5
0.242919 -0.22758 0.551403 1.03077e-38 5
0.246618 -0.222871 0.539995 1.04932e-38 5
0.250167 -0.218353 0.529049 8.83578e-39 5
0.258715 -0.218353 0.529049 5.89052e-39 5
0.267263 -0.218353 0.529049 2.11586e-39 5
0.259175 -0.205183 0.497138 1.56591e-39 5
0.261399 -0.200722 0.48633 2.11908e-39 5
0.126691 -0.276011 0.695993 2.66903e-39 5
0.136721 -0.273579 0.689861 5.52281e-39 5
0.147219 -0.272379 0.686835 6.90109e-39 5
0.15626 -0.268842 0.677915 6.62558e-39 5
0.167213 -0.268842 0.677915 7.64045e-39 5
0.170774 -0.257686 0.649786 7.36173e-39 5
0.178313 -0.253479 0.639177 8.55848e-39 5
0.257422 -0.231725 0.584322 1.1047e-38 5
0.251828 -0.21867 0.551403 1.06786e-38 5
0.255343 -0.214146 0.539995 8.74322e-39 5
0.264068 -0.214146 0.539995 4.50687e-39 5
0.274687 -0.215633 0.543745 2.48392e-39 5
0.138552 -0.265947 0.6991 2.2077e-39 5
0.148521 -0.263594 0.692913 3.67997e-39 5
0.157625 -0.260141 0.683836 4.60048e-39 5
0.168674 -0.260141 0.683836 5.24408e-39 5
0.175883 -0.254582 0.669224 8.37445e-39 5
0.187497 -0.255675 0.672096 9.57156e-39 5
0.201821 -0.260141 0.683836 9.93854e-39 5
0.259357 -0.223956 0.588716 1.19694e-38 5
0.257263 -0.214288 0.563304 1.25229e-38 5
0.263521 -0.212001 0.55729 7.82306e-39 5
0.271559 -0.211249 0.555314 3.86365e-39 5
0.280532 -0.211249 0.555314 2.57719e-39 5
0.149182 -0.25352 0.695993 2.48606e-39 5
0.159014 -0.251286 0.689861 2.20804e-39 5
0.176637 -0.244815 0.672096 7.1759e-39 5
0.18912 -0.246935 0.677915 9.47792e-39 5
0.202706 -0.250184 0.686835 1.09516e-38 5
0.246144 -0.211267 0.579994 9.93963e-39 5
0.255515 -0.211267 0.579994 1.32594e-38 5
0.256341 -0.204451 0.561285 1.14165e-38 5
0.264462 -0.203721 0.55928 6.53482e-39 5
0.273499 -0.203721 0.55928 4.23529e-39 5
0.283548 -0.204451 0.561285 2.11836e-39 5
0.291572 -0.203721 0.55928 2.21199e-39 5
0.159014 -0.24014 0.689861 1.74957e-39 5
0.17016 -0.24014 0.689861 3.31297e-39 5
0.178167 -0.235982 0.677915 8.46699e-39 5
0.190772 -0.238043 0.683836 1.05839e-38 5
0.203599 -0.24014 0.689861 1.0674e-38 5
0.200491 -0.193992 0.55729 1.09509e-38 5
0.209495 -0.193992 0.55729 1.01222e-38 5
0.23906 -0.196085 0.563304 1.19669e-38 5
0.248162 -0.196085 0.563304 1.29824e-38 5
0.253614 -0.193304 0.555314 9.84993e-39 5
0.263521 -0.193992 0.55729 7.45892e-39 5
0.272526 -0.193992 0.55729 3.50022e-39 5
0.284568 -0.196085 0.563304 2.30419e-39 5
0.292617 -0.195383 0.561285 2.21199e-39 5
0.158316 -0.227989 0.686835 1.74992e-39 5
0.169414 -0.227989 0.686835 2.57611e-39 5
0.178167 -0.225028 0.677915 6.25607e-39 5
0.191609 -0.227989 0.686835 1.123e-38 5
0.201821 -0.226993 0.683836 1.15956e-38 5
0.201928 -0.186314 0.561285 1.17803e-38 5
0.209495 -0.184988 0.55729 1.14119e-38 5
0.217725 -0.184332 0.555314 1.07658e-38 5
0.226697 -0.184332 0.555314 1.16888e-38 5
0.234837 -0.18368 0.553351 1.28888e-38 5
0.243777 -0.18368 0.553351 1.22449e-38 5
0.250945 -0.182391 0.549468 8.74572e-39 5
0.259823 -0.182391 0.549468 4.32749e-39 5
0.267761 -0.181754 0.547547 1.84249e-39 5
0.282535 -0.185648 0.55928 2.48786e-39 5
0.286457 -0.182391 0.549468 2.48786e-39 5
0.156939 -0.215006 0.680863 1.84212e-39 5
0.16794 -0.215006 0.680863 2.94596e-39 5
0.175883 -0.21133 0.669224 3.30939e-39 5
0.188305 -0.213152 0.674993 1.00343e-38 5
0.209495 -0.175983 0.55729 1.19647e-38 5
0.215433 -0.173513 0.549468 1.15949e-38 5
0.225101 -0.174124 0.551403 1.30714e-38 5
0.233189 -0.173513 0.549468 1.27966e-38 5
0.242067 -0.173513 0.549468 9.29568e-39 5
0.248331 -0.171706 0.543745 5.33663e-39 5
0.257116 -0.171706 0.543745 2.20949e-39 5
0.265902 -0.171706 0.543745 1.84249e-39 5
0.27954 -0.17474 0.553351 2.30203e-39 5
0.27123 -0.16429 0.520261 1.93468e-39 5
0.279636 -0.16429 0.520261 1.47227e-39 5
0.167213 -0.203121 0.677915 2.3013e-39 5
0.175883 -0.200517 0.669224 2.66867e-39 5
0.208014 -0.165799 0.553351 1.2793e-38 5
0.214679 -0.16406 0.547547 1.34384e-38 5
0.224311 -0.164635 0.549468 1.36239e-38 5
0.233189 -0.164635 0.549468 1.252e-38 5
0.242067 -0.164635 0.549468 6.99114e-39 5
0.246618 -0.161797 0.539995 2.7555e-39 5
0.254465 -0.161241 0.538139 2.30169e-39 5
0.262259 -0.160689 0.536296 2.21235e-39 5
0.268915 -0.149908 0.500314 2.39315e-39 5
0.16298 -0.187303 0.660753 2.94812e-39 5
0.167986 -0.181187 0.639177 2.02617e-39 5
0.208752 -0.157414 0.555314 1.33437e-38 5
0.214679 -0.155213 0.547547 1.38976e-38 5
0.223526 -0.155213 0.547547 1.43614e-38 5
0.232373 -0.155213 0.547547 1.34406e-38 5
0.24038 -0.154672 0.545639 8.92546e-39 5
0.244929 -0.152023 0.536296 5.3377e-39 5
0.253594 -0.152023 0.536296 2.57684e-39 5
0.260475 -0.150989 0.532648 2.67297e-39 5
0.261953 -0.14699 0.518538 2.39603e-39 5
0.260831 -0.141824 0.500314 1.93432e-39 5
0.268915 -0.141824 0.500314 2.30203e-39 5
0.175449 -0.168115 0.628909 1.7485e-39 5
0.184868 -0.167442 0.626394 2.48464e-39 5
0.208752 -0.148442 0.555314 1.36185e-38 5
0.215433 -0.146879 0.549468 1.28824e-38 5
0.223526 -0.146366 0.547547 1.49146e-38 5
0.232373 -0.146366 0.547547 1.43622e-38 5
0.24038 -0.145856 0.545639 9.93926e-39 5
0.244929 -0.143358 0.536296 5.89052e-39 5
0.252728 -0.142869 0.534466 2.85306e-39 5
0.261953 -0.138611 0.518538 3.59349e-39 5
0.261667 -0.134169 0.501918 3.03852e-39 5
0.268915 -0.13374 0.500314 1.47191e-39 5
0.174747 -0.157322 0.626394 2.57934e-39 5
0.184131 -0.156695 0.623898 3.31654e-39 5
0.195715 -0.150116 0.597704 1.29774e-38 5
0.208752 -0.139469 0.555314 1.41706e-38 5
0.216191 -0.138487 0.551403 1.47241e-38 5
0.224311 -0.138001 0.549468 1.60192e-38 5
0.23401 -0.138487 0.551403 1.5283e-38 5
0.242067 -0.138001 0.549468 1.16899e-38 5
0.245771 -0.135156 0.538139 7.1809e-39 5
0.253594 -0.134693 0.536296 3.40552e-39 5
0.2637 -0.131101 0.521995 3.13107e-39 5
0.269439 -0.129803 0.516826 3.12999e-39 5
0.194971 -0.139925 0.595431 1.21487e-38 5
0.201207 -0.131429 0.55928 1.45379e-38 5
0.208752 -0.130497 0.555314 1.43546e-38 5
0.216955 -0.130036 0.553351 1.42617e-38 5
0.225101 -0.129578 0.551403 1.63861e-38 5
0.234837 -0.130036 0.553351 1.64801e-38 5
0.242067 -0.129123 0.549468 1.22416e-38 5
0.247471 -0.127336 0.541863 8.00888e-39 5
0.254465 -0.126461 0.538139 3.31297e-39 5
0.262824 -0.12226 0.520261 2.9456e-39 5
0.198159 -0.139309 0.636579 4.78345e-39 5
0.18852 -0.125992 0.575729 1.17807e-38 5
0.197822 -0.125992 0.575729 1.45401e-38 5
0.208752 -0.121525 0.555314 1.40787e-38 5
0.217725 -0.121525 0.555314 1.45383e-38 5
0.225896 -0.121095 0.553351 1.64769e-38 5
0.234837 -0.121095 0.553351 1.78623e-38 5
0.242919 -0.120669 0.551403 1.37168e-38 5
0.249196 -0.119407 0.545639 9.57226e-39 5
0.254465 -0.117766 0.538139 4.78667e-39 5
0.262824 -0.113854 0.520261 3.4055e-39 5
0.18561 -0.127469 0.628909 3.04139e-39 5
0.196561 -0.127983 0.631445 4.32355e-39 5
0.18852 -0.11669 0.575729 1.23338e-38 5
0.197822 -0.11669 0.575729 1.39865e-38 5
0.202654 -0.114172 0.563304 1.58287e-38 5
0.210243 -0.113356 0.55928 1.48152e-38 5
0.21928 -0.113356 0.55928 1.46319e-38 5
0.228316 -0.113356 0.55928 1.5278e-38 5
0.236508 -0.112953 0.55729 1.85066e-38 5
0.243777 -0.112154 0.553351 1.50057e-38 5
0.251828 -0.11176 0.551403 1.07683e-38 5
0.258012 -0.110591 0.545639 4.13915e-39 5
0.260475 -0.107958 0.532648 3.31404e-39 5
0.269081 -0.107958 0.532648 3.95976e-39 5
0.186359 -0.11778 0.631445 3.04104e-39 5
0.197357 -0.118257 0.634002 3.95549e-39 5
0.197822 -0.107388 0.575729 1.84123e-38 5
0.202654 -0.10507 0.563304 1.92406e-38 5
0.211756 -0.10507 0.563304 1.80431e-38 5
0.220857 -0.10507 0.563304 1.83201e-38 5
0.229135 -0.104693 0.561285 1.52769e-38 5
0.237353 -0.10432 0.55928 1.87825e-38 5
0.244642 -0.10358 0.555314 1.53734e-38 5
0.252718 -0.103214 0.553351 1.24257e-38 5
0.259823 -0.102489 0.549468 7.54825e-39 5
0.260475 -0.099352 0.532648 3.03674e-39 5
0.269081 -0.099352 0.532648 3.59134e-39 5
0.186359 -0.107578 0.631445 2.30097e-39 5
0.196561 -0.107578 0.631445 3.77037e-39 5
0.207601 -0.108013 0.634002 1.15041e-38 5
0.207752 -0.103009 0.604627 1.71212e-38 5
0.203386 -0.096315 0.565337 1.83193e-38 5
0.21252 -0.096315 0.565337 1.77676e-38 5
0.221655 -0.096315 0.565337 1.84133e-38 5
0.229959 -0.0959686 0.563304 1.61989e-38 5
0.238204 -0.0956246 0.561285 1.97966e-38 5
0.245512 -0.094944 0.55729 1.79545e-38 5
0.253614 -0.0946073 0.555314 1.26094e-38 5
0.261659 -0.094273 0.553351 8.83613e-39 5
0.260475 -0.0907458 0.532648 2.75981e-39 5
0.269081 -0.0907458 0.532648 3.1318e-39 5
0.196561 -0.0973751 0.631445 3.95548e-39 5
0.207601 -0.0977694 0.634002 1.04899e-38 5
0.210186 -0.0943322 0.611713 1.67513e-38 5
0.204123 -0.0874965 0.567386 1.92409e-38 5
0.21329 -0.0874965 0.567386 1.84123e-38 5
0.222458 -0.0874965 0.567386 1.95204e-38 5
0.231625 -0.0874965 0.567386 1.68446e-38 5
0.238204 -0.0865557 0.561285 2.04416e-38 5
0.247272 -0.0865557 0.561285 1.99828e-38 5
0.255426 -0.0862466 0.55928 1.3715e-38 5
0.266365 -0.086867 0.563304 9.38824e-39 5
0.269647 -0.0850318 0.551403 3.958e-39 5
0.20511 -0.0864752 0.626394 1.08601e-38 5
0.209368 -0.0841199 0.609332 1.57372e-38 5
0.205613 -0.0789008 0.571527 1.91491e-38 5
0.214847 -0.0789008 0.571527 1.83215e-38 5
0.224081 -0.0789008 0.571527 2.01679e-38 5
0.232467 -0.0786138 0.569449 1.73996e-38 5
0.23906 -0.0777655 0.563304 2.09941e-38 5
0.247272 -0.0774868 0.561285 2.22873e-38 5
0.256341 -0.0774868 0.561285 1.44511e-38 5
0.269271 -0.0786138 0.569449 1.02148e-38 5
0.277463 -0.078329 0.567386 4.32391e-39 5
0.199523 -0.0742747 0.609332 8.74144e-39 5
0.20616 -0.0731363 0.599994 1.39876e-38 5
0.207125 -0.0701786 0.575729 2.00718e-38 5
0.216427 -0.0701786 0.575729 1.84151e-38 5
0.225729 -0.0701786 0.575729 1.9802e-38 5
0.235031 -0.0701786 0.575729 1.78612e-38 5
0.240793 -0.0691615 0.567386 1.95172e-38 5
0.249058 -0.0689119 0.565337 2.22877e-38 5
0.257263 -0.068664 0.563304 1.66631e-38 5
0.271243 -0.0699216 0.573621 1.15948e-38 5
0.283628 -0.0706985 0.579994 7.36422e-39 5
0.197221 -0.063686 0.602302 9.38643e-39 5
0.20616 -0.063442 0.599994 1.3988e-38 5
0.208659 -0.0613273 0.579994 2.02576e-38 5
0.217225 -0.061101 0.577854 1.86081e-38 5
0.226562 -0.061101 0.577854 1.59524e-38 5
0.235899 -0.061101 0.577854 1.54771e-38 5
0.243439 -0.0606533 0.573621 1.82261e-38 5
0.24996 -0.0599941 0.567386 2.21969e-38 5
0.257263 -0.0595624 0.563304 1.95207e-38 5
0.272241 -0.0608763 0.575729 1.16867e-38 5
0.284683 -0.0615552 0.58215 8.19219e-39 5
0.295186 -0.0617849 0.584322 3.40694e-39 5
0.196465 -0.0537476 0.599994 5.51924e-39 5
0.205373 -0.0535425 0.597704 1.33426e-38 5
0.209434 -0.0521492 0.58215 1.88707e-38 5
0.21803 -0.0519561 0.579994 1.75061e-38 5
0.227401 -0.0519561 0.579994 1.52278e-38 5
0.236772 -0.0519561 0.579994 1.51202e-38 5
0.244334 -0.051574 0.575729 1.68439e-38 5
0.24996 -0.0508266 0.567386 2.23795e-38 5
0.257263 -0.0504609 0.563304 2.09973e-38 5
0.268295 -0.0508266 0.567386 1.26997e-38 5
0.280512 -0.0513851 0.573621 9.84885e-39 5
0.28978 -0.0513851 0.573621 3.95869e-39 5
0.196465 -0.0440533 0.599994 6.9036e-39 5
0.205373 -0.0438852 0.597704 1.41735e-38 5
0.210216 -0.0429026 0.584322 1.58268e-38 5
0.218841 -0.0427432 0.58215 1.88772e-38 5
0.228247 -0.0427432 0.58215 1.77974e-38 5
0.237653 -0.0427432 0.58215 1.66832e-38 5
0.245235 -0.0424277 0.577854 1.75796e-38 5
0.250869 -0.0418106 0.569449 2.20089e-38 5
0.258192 -0.0415087 0.565337 2.12746e-38 5
0.267327 -0.0415087 0.565337 1.36213e-38 5
0.279488 -0.0419632 0.571527 1.12296e-38 5
0.28663 -0.0416591 0.567386 3.40302e-39 5
0.29473 -0.0415087 0.565337 2.85557e-39 5
0.195715 -0.0342278 0.597704 4.78452e-39 5
0.204592 -0.0340977 0.595431 1.31625e-38 5
0.211003 -0.0335868 0.586511 1.54595e-38 5
0.218841 -0.0333371 0.58215 1.7768e-38 5
0.228247 -0.0333371 0.58215 1.84309e-38 5
0.237653 -0.0333371 0.58215 1.7052e-38 5
0.246144 -0.0332136 0.579994 1.74871e-38 5
0.251785 -0.0327288 0.571527 2.10859e-38 5
0.258192 -0.0323743 0.565337 2.26579e-38 5
0.267327 -0.0323743 0.565337 1.58347e-38 5
0.278472 -0.0326098 0.569449 1.15948e-38 5
0.28663 -0.0324916 0.567386 6.62701e-39 5
0.29473 -0.0323743 0.565337 2.94669e-39 5
0.195715 -0.0245705 0.597704 3.12536e-39 5
0.205373 -0.0245705 0.597704 1.28867e-38 5
0.219657 -0.0240204 0.584322 1.74878e-38 5
0.228247 -0.0239311 0.58215 1.75911e-38 5
0.237653 -0.0239311 0.58215 1.70401e-38 5
0.245235 -0.0237545 0.577854 1.76697e-38 5
0.250869 -0.0234089 0.569449 1.96994e-38 5
0.257263 -0.0231563 0.563304 2.33018e-38 5
0.26541 -0.0230733 0.561285 1.82315e-38 5
0.276461 -0.0232399 0.565337 1.15934e-38 5
0.285595 -0.0232399 0.565337 6.7167e-39 5
0.29367 -0.0231563 0.563304 3.22256e-39 5
0.20616 -0.0149702 0.599994 1.21487e-38 5
0.219657 -0.0145792 0.584322 1.66552e-38 5
0.228247 -0.014525 0.58215 1.64751e-38 5
0.237653 -0.014525 0.58215 1.66588e-38 5
0.245235 -0.0144178 0.577854 1.63807e-38 5
0.251785 -0.01426 0.571527 1.88682e-38 5
0.257263 -0.0140548 0.563304 2.24696e-38 5
0.266365 -0.0140548 0.563304 1.97977e-38 5
0.277463 -0.0141566 0.567386 1.35277e-38 5
0.285595 -0.0141055 0.565337 9.93925e-39 5
0.29367 -0.0140548 0.563304 2.75836e-39 5
0.190419 -0.00537895 0.611713 4.14486e-39 5
0.199523 -0.00535802 0.609332 5.42917e-39 5
0.20616 -0.0052759 0.599994 1.3071e-38 5
0.22048 -0.00515734 0.586511 1.68396e-38 5
0.227401 -0.00510004 0.579994 1.61974e-38 5
0.236772 -0.00510004 0.579994 1.72087e-38 5
0.245235 -0.00508122 0.577854 1.61074e-38 5
0.251785 -0.00502558 0.571527 1.82225e-38 5
0.257263 -0.00495327 0.563304 2.09923e-38 5
0.266365 -0.00495327 0.563304 2.05338e-38 5
0.276461 -0.00497116 0.565337 1.30667e-38 5
0.283548 -0.00493552 0.561285 1.21494e-38 5
0.290534 -0.00490039 0.55729 7.82554e-39 5
-2.06392 0.0339181 4.60584 2.02723e-39 3
-1.82819 0.031168 4.23239 2.48893e-39 3
-1.75981 0.031168 4.23239 2.3049e-39 3
-1.64691 0.0303478 4.12101 3.04282e-39 3
-1.87664 0.036038 4.8937 3.96441e-39 3
-0.305764 0.018019 2.44685 3.22721e-39 3
-0.250568 0.016959 2.30292 3.50416e-39 3
-0.207263 0.0164745 2.23712 3.68747e-39 3
-0.171117 0.0164745 2.23712 3.78002e-39 3
-0.131222 0.0160169 2.17498 3.4116e-39 3
-0.0960798 0.0160169 2.17498 3.78003e-39 3
0.166626 0.00466889 0.634002 4.79202e-39 3
0.176869 0.00466889 0.634002 4.23956e-39 3
0.191918 0.00454022 0.616529 5.15865e-39 5
0.200302 0.00450475 0.611713 1.01286e-38 5
0.205373 0.00440158 0.597704 1.50965e-38 5
0.219657 0.00430304 0.584322 1.61978e-38 5
0.225729 0.00423976 0.575729 1.59226e-38 5
0.235031 0.00423976 0.575729 1.80456e-38 5
0.24255 0.00420881 0.571527 1.97973e-38 5
0.250869 0.00419351 0.569449 1.82289e-38 5
0.257263 0.00414825 0.563304 1.82268e-38 5
0.26541 0.00413339 0.561285 1.9426e-38 5
0.274479 0.00413339 0.561285 1.83208e-38 5
0.283548 0.00413339 0.561285 1.40827e-38 5
0.281518 0.0039766 0.539995 1.18746e-38 5
-1.48356 0.0472236 2.00767 3.50236e-39 3
-1.31613 0.0428307 1.82091 2.67296e-39 3
-1.25747 0.0418573 1.77953 1.65666e-39 3
-1.22871 0.0418573 1.77953 1.28859e-39 3
-1.19996 0.0418573 1.77953 2.02795e-39 3
-3.03136 0.108336 4.60584 1.93612e-39 3
-2.64569 0.0969326 4.12101 2.85736e-39 3
-2.22741 0.0837145 3.55905 2.76552e-39 3
-1.98908 0.0767383 3.26247 2.6726e-39 3
-1.65974 0.0657757 2.7964 3.68747e-39 3
-1.50692 0.0613907 2.60997 2.76515e-39 3
-1.46475 0.0613907 2.60997 2.48857e-39 3
-1.42258 0.0613907 2.60997 2.76552e-39 3
-1.33588 0.0594103 2.52578 2.94991e-39 3
-1.21658 0.0558097 2.3727 2.48965e-39 3
-1.21506 0.0575537 2.44685 3.31905e-39 3
-1.17553 0.0575537 2.44685 2.76552e-39 3
-2.01954 0.102318 4.34996 2.94955e-39 3
-2.12647 0.111619 4.74541 2.39602e-39 3
-1.93266 0.105241 4.47424 3.1343e-39 3
-1.75981 0.0995524 4.23239 2.58112e-39 3
-1.78808 0.105241 4.47424 2.67404e-39 3
-1.76625 0.108336 4.60584 2.21234e-39 3
-0.305764 0.0575537 2.44685 3.596e-39 3
-0.0960798 0.0511589 2.17498 5.80832e-39 3
0.166626 0.0149127 0.634002 5.16044e-39 3
0.176869 0.0149127 0.634002 4.8842e-39 3
0.187113 0.0149127 0.634002 5.5303e-39 3
0.193441 0.0146168 0.621422 5.6182e-39 3
0.202678 0.0145591 0.618966 1.21537e-38 5
0.205373 0.0140589 0.597704 1.61099e-38 5
0.218841 0.0136931 0.58215 1.64819e-38 5
0.224081 0.0134432 0.571527 1.84233e-38 5
0.233316 0.0134432 0.571527 2.07342e-38 5
0.241668 0.0133943 0.569449 2.13838e-38 5
0.250869 0.0133943 0.569449 2.33195e-38 5
0.257263 0.0132498 0.563304 2.29434e-38 5
0.26541 0.0132023 0.561285 1.88757e-38 5
0.274479 0.0132023 0.561285 2.18238e-38 5
0.283548 0.0132023 0.561285 1.89683e-38 5
0.283473 0.0127897 0.543745 1.38068e-38 5
0.289245 0.0126579 0.538139 1.09552e-38 5
0.394827 0.0162984 0.692913 3.04246e-39 5
0.409647 0.0164439 0.6991 3.9637e-39 3
0.417218 0.0162984 0.692913 3.50272e-39 3
0.428414 0.0162984 0.692913 2.58076e-39 3
0.431964 0.016015 0.680863 3.22613e-39 3
0.442965 0.016015 0.680863 2.94919e-39 3
-1.92669 0.0970885 2.44685 2.58113e-39 3
-1.82997 0.0941464 2.3727 1.84356e-39 3
-1.64233 0.0863009 2.17498 1.47478e-39 3
-1.48356 0.0796624 2.00767 2.3049e-39 3
-1.34747 0.0739722 1.86427 2.95026e-39 3
-1.28671 0.0722519 1.82091 2.48821e-39 3
-1.22871 0.0706098 1.77953 2.94919e-39 3
-1.19996 0.0706098 1.77953 2.0276e-39 3
-2.95694 0.182755 4.60584 2.3049e-39 3
-2.5791 0.163517 4.12101 2.02795e-39 3
-2.1699 0.14122 3.55905 3.1343e-39 3
-1.93636 0.129451 3.26247 2.76551e-39 3
-1.61456 0.110958 2.7964 2.8577e-39 3
-1.46475 0.103561 2.60997 3.22685e-39 3
-1.42258 0.103561 2.60997 3.1343e-39 3
-1.21506 0.0970885 2.44685 2.85843e-39 3
-1.17553 0.0970885 2.44685 3.41124e-39 3
-1.45407 0.124273 3.13197 3.04246e-39 3
-2.12647 0.188293 4.74541 3.13394e-39 3
-1.93266 0.177533 4.47424 2.58148e-39 3
-1.80869 0.172602 4.34996 2.85771e-39 3
-0.305764 0.0970885 2.44685 4.88673e-39 3
-0.243409 0.0887666 2.23712 4.88673e-39 3
0.177588 0.0252588 0.636579 5.43665e-39 3
0.187113 0.0251565 0.634002 6.26642e-39 3
0.196561 0.0250551 0.631445 7.64504e-39 3
0.204293 0.0247556 0.623898 1.34444e-38 5
0.203817 0.0235366 0.593176 1.49139e-38 5
0.211797 0.0233596 0.588716 1.72241e-38 5
0.217225 0.0229287 0.577854 2.35051e-38 5
0.222458 0.0225133 0.567386 2.32324e-38 5
0.230789 0.022432 0.565337 2.27714e-38 5
0.239923 0.022432 0.565337 2.26792e-38 5
0.249058 0.022432 0.565337 2.25884e-38 5
0.255426 0.0221917 0.55928 2.27725e-38 5
0.264462 0.0221917 0.55928 2.35023e-38 5
0.272526 0.0221127 0.55729 2.10002e-38 5
0.282535 0.0221917 0.55928 2.24731e-38 5
0.287465 0.0218791 0.551403 1.70326e-38 5
0.291247 0.0215006 0.541863 1.3348e-38 5
0.302093 0.0216504 0.545639 8.65531e-39 5
0.38796 0.0270159 0.680863 4.60728e-39 5
0.409647 0.0277396 0.6991 4.14808e-39 3
0.420943 0.0277396 0.6991 4.33248e-39 3
0.432239 0.0277396 0.6991 4.14809e-39 3
0.42824 0.026783 0.674993 3.22613e-39 3
-1.7254 0.124913 2.23712 2.76551e-39 3
-1.64233 0.121443 2.17498 3.31869e-39 3
-1.56375 0.118161 2.11619 3.41089e-39 3
-1.45112 0.112101 2.00767 3.31869e-39 3
-1.31734 0.104094 1.86427 3.31905e-39 3
-1.25729 0.101673 1.82091 2.95063e-39 3
-1.19996 0.0993624 1.77953 2.3971e-39 3
-3.03136 0.257173 4.60584 2.67404e-39 3
-2.95694 0.257173 4.60584 2.85808e-39 3
-2.38689 0.218597 3.91496 3.22721e-39 3
-2.1124 0.198725 3.55905 3.22757e-39 3
-1.67435 0.161924 2.89997 2.85878e-39 3
-1.56937 0.156141 2.7964 2.76623e-39 3
-1.97312 0.264966 4.74541 4.51795e-39 3
-0.305764 0.136623 2.44685 5.43991e-39 3
0.177588 0.0355443 0.636579 6.6334e-39 3
0.187113 0.0354004 0.634002 7.09401e-39 3
0.198968 0.0356893 0.639177 8.19891e-39 3
0.200302 0.0341558 0.611713 1.1698e-38 5
0.203817 0.0331208 0.593176 1.79691e-38 5
0.211797 0.0328718 0.588716 2.25849e-38 5
0.217225 0.0322653 0.577854 2.24044e-38 5
0.221655 0.0315664 0.565337 2.22207e-38 5
0.229959 0.0314528 0.563304 2.24044e-38 5
0.23906 0.0314528 0.563304 2.24966e-38 5
0.248162 0.0314528 0.563304 2.23125e-38 5
0.255426 0.0312282 0.55928 2.26817e-38 5
0.264462 0.0312282 0.55928 2.33235e-38 5
0.272526 0.031117 0.55729 2.22041e-38 5
0.28153 0.031117 0.55729 2.21973e-38 5
0.286457 0.0306803 0.549468 2.08118e-38 5
0.290243 0.0301513 0.539995 1.36221e-38 5
0.302093 0.0304665 0.545639 1.12325e-38 5
0.398961 0.0380169 0.680863 5.16296e-39 3
0.413558 0.0383504 0.686835 5.62393e-39 3
0.424656 0.0383504 0.686835 5.80761e-39 3
-1.7254 0.161059 2.23712 3.50308e-39 3
-1.64233 0.156585 2.17498 3.87186e-39 3
-1.56375 0.152353 2.11619 2.67368e-39 3
-1.52956 0.152353 2.11619 3.41089e-39 3
-1.42272 0.148344 2.06051 2.67404e-39 3
-1.17329 0.125268 1.73998 3.22721e-39 3
-1.19845 0.131094 1.82091 2.58184e-39 3
-2.79267 0.31317 4.34996 3.41125e-39 3
-2.38689 0.281853 3.91496 3.87294e-39 3
-2.32363 0.281853 3.91496 3.68854e-39 3
-2.26038 0.281853 3.91496 4.6105e-39 3
0.184332 0.0475701 0.660753 8.56841e-39 3
0.192571 0.0469755 0.652493 8.01523e-39 3
0.200606 0.0463955 0.644438 1.31785e-38 3
0.20188 0.0443863 0.616529 2.1569e-38 5
0.204592 0.0428674 0.595431 2.26771e-38 5
0.212596 0.0425438 0.590937 2.25874e-38 5
0.21803 0.041756 0.579994 2.24037e-38 5
0.222458 0.0408482 0.567386 2.23129e-38 5
0.229959 0.0405544 0.563304 2.24962e-38 5
0.23906 0.0405544 0.563304 2.23125e-38 5
0.248162 0.0405544 0.563304 2.24958e-38 5
0.255426 0.0402647 0.55928 2.30487e-38 5
0.264462 0.0402647 0.55928 2.30487e-38 5
0.272526 0.0401214 0.55729 2.34072e-38 5
0.280532 0.0399791 0.555314 2.09966e-38 5
0.285455 0.03942 0.547547 2.0532e-38 5
0.289245 0.0387427 0.538139 1.38047e-38 5
0.298968 0.0388763 0.539995 1.17857e-38 5
0.304542 0.0384782 0.534466 8.01566e-39 5
0.312112 0.0383473 0.532648 5.992e-39 3
0.316414 0.0378326 0.525498 5.62393e-39 3
1.08919 0.0805294 1.11856 4.14845e-39 3
1.33635 0.0971906 1.34999 3.68676e-39 3
1.24053 0.0887726 1.23306 7.09765e-39 3
1.22196 0.0860619 1.19541 1.17996e-38 3
-1.7254 0.197205 2.23712 3.87258e-39 3
-1.68925 0.197205 2.23712 3.04247e-39 3
-1.70173 0.203005 2.30292 3.13466e-39 3
-1.61696 0.197205 2.23712 3.68819e-39 3
-1.49536 0.186545 2.11619 3.4116e-39 3
-1.42272 0.181636 2.06051 3.5038e-39 3
-1.2571 0.164337 1.86427 4.24136e-39 3
-1.19845 0.160516 1.82091 3.78039e-39 3
-1.06953 0.146855 1.66594 3.96478e-39 3
-2.72238 0.383454 4.34996 4.24136e-39 3
-2.38689 0.345108 3.91496 4.24136e-39 3
-2.32363 0.345108 3.91496 3.87294e-39 3
-2.26038 0.345108 3.91496 3.68854e-39 3
-0.480415 0.300094 3.40431 5.80976e-39 3
0.186696 0.0589929 0.669224 1.05949e-38 3
0.192571 0.0575181 0.652493 1.53926e-38 3
0.20511 0.0552174 0.626394 2.29566e-38 5
0.20616 0.0528902 0.599994 2.31406e-38 5
0.214212 0.052488 0.595431 2.31409e-38 5
0.218841 0.0513172 0.58215 2.24959e-38 5
0.223267 0.0501976 0.569449 2.25892e-38 5
0.229959 0.0496559 0.563304 2.2865e-38 5
0.238204 0.0494779 0.561285 2.23118e-38 5
0.246389 0.0493012 0.55928 2.23118e-38 5
0.254517 0.0491258 0.55729 2.30487e-38 5
0.262587 0.0489516 0.555314 2.28633e-38 5
0.271559 0.0489516 0.555314 2.24806e-38 5
0.27954 0.0487786 0.553351 1.97934e-38 5
0.28446 0.0480987 0.545639 1.97937e-38 5
0.289245 0.0474376 0.538139 1.46351e-38 5
0.29794 0.0474376 0.538139 1.11421e-38 5
0.304542 0.0471138 0.534466 8.20005e-39 5
0.312112 0.0469535 0.532648 6.26823e-39 3
0.320719 0.0469535 0.532648 6.26859e-39 3
1.38624 0.125494 1.42362 3.87294e-39 3
1.33635 0.119003 1.34999 3.68676e-39 3
1.24053 0.108696 1.23306 4.05519e-39 3
1.2506 0.107846 1.22343 9.4951e-39 3
1.29053 0.109558 1.24284 1.29067e-38 3
1.34448 0.101503 1.15146 3.68747e-39 3
1.25256 0.0932726 1.0581 3.77967e-39 3
1.32331 0.0972137 1.10281 3.04139e-39 3
1.36028 0.0986024 1.11856 3.96334e-39 3
-1.76154 0.233351 2.23712 3.59528e-39 3
-1.58918 0.214928 2.06051 2.85843e-39 3
-1.73894 0.240214 2.30292 2.95063e-39 3
-1.70173 0.240214 2.30292 4.24136e-39 3
-1.66452 0.240214 2.30292 3.78038e-39 3
-1.58081 0.233351 2.23712 3.78074e-39 3
-1.46117 0.220737 2.11619 3.78074e-39 3
-1.3538 0.209418 2.00767 4.24172e-39 3
-1.19845 0.189937 1.82091 3.96478e-39 3
-1.04725 0.170152 1.63123 4.88637e-39 3
-1.00006 0.166679 1.59794 4.6105e-39 3
-0.974241 0.166679 1.59794 5.80904e-39 3
-0.929454 0.163346 1.56598 4.97928e-39 3
-0.904152 0.163346 1.56598 4.42575e-39 3
-0.460227 0.17755 1.70216 6.17927e-39 3
-0.452394 0.18562 1.77953 6.3633e-39 3
-0.596667 0.302492 2.89997 7.92954e-39 3
-0.530174 0.291689 2.7964 7.19198e-39 3
-0.522299 0.314126 3.01151 7.37709e-39 3
-0.53542 0.355099 3.40431 7.83879e-39 3
-0.480415 0.355099 3.40431 7.56148e-39 3
-0.326148 0.272243 2.60997 8.48271e-39 3
0.185901 0.0695088 0.666376 1.82492e-38 3
0.192571 0.0680607 0.652493 2.20336e-38 3
0.20511 0.0653383 0.626394 2.30492e-38 5
0.208557 0.0633123 0.606971 2.31414e-38 5
0.215854 0.0625845 0.599994 2.30488e-38 5
0.219657 0.0609499 0.584322 2.29569e-38 5
0.223267 0.0593984 0.569449 2.31417e-38 5
0.229959 0.0587574 0.563304 2.30488e-38 5
0.238204 0.0585468 0.561285 2.30487e-38 5
0.246389 0.0583377 0.55928 2.20363e-38 5
0.254517 0.0581301 0.55729 2.29561e-38 5
0.263521 0.0581301 0.55729 2.2949e-38 5
0.272526 0.0581301 0.55729 1.9058e-38 5
0.27954 0.0577193 0.553351 1.93306e-38 5
0.28446 0.0569149 0.545639 1.82293e-38 5
0.288255 0.0559403 0.536296 1.36242e-38 5
0.29692 0.0559403 0.536296 1.01305e-38 5
0.304542 0.0557494 0.534466 6.5416e-39 5
0.313178 0.0557494 0.534466 5.89873e-39 3
1.36324 0.148496 1.42362 4.51903e-39 3
1.37375 0.147158 1.4108 5.0722e-39 3
1.25013 0.13173 1.26289 4.60979e-39 3
1.27054 0.13173 1.26289 4.97822e-39 3
1.27045 0.129639 1.24284 5.62288e-39 3
1.30086 0.130677 1.25279 9.95679e-39 3
1.31062 0.129639 1.24284 1.15238e-38 3
1.27991 0.124691 1.19541 1.22617e-38 3
1.27013 0.1219 1.16864 1.051e-38 3
1.27947 0.120997 1.15999 8.85008e-39 3
1.28867 0.120107 1.15146 7.28311e-39 3
1.26091 0.115848 1.11063 5.16261e-39 3
1.22666 0.111119 1.0653 3.68819e-39 3
1.35444 0.120997 1.15999 4.05626e-39 3
1.37318 0.120997 1.15999 3.59528e-39 3
1.34221 0.116675 1.11856 3.50236e-39 3
1.36028 0.116675 1.11856 3.59456e-39 3
-1.62247 0.248221 2.06051 3.50308e-39 3
-1.63213 0.25493 2.11619 2.95063e-39 3
-1.79163 0.28583 2.3727 3.41268e-39 3
-1.80808 0.294762 2.44685 3.41268e-39 3
-1.76855 0.294762 2.44685 4.33391e-39 3
-1.72902 0.294762 2.44685 4.241e-39 3
-1.54467 0.269497 2.23712 4.97856e-39 3
-1.42698 0.25493 2.11619 4.6105e-39 3
-1.17121 0.214373 1.77953 4.79489e-39 3
-1.04725 0.196508 1.63123 4.14881e-39 3
-1.00006 0.192498 1.59794 4.51759e-39 3
-0.974241 0.192498 1.59794 6.08563e-39 3
-0.876843 0.17797 1.47734 5.07148e-39 3
-0.852973 0.17797 1.47734 5.16367e-39 3
-0.690379 0.349348 2.89997 5.99416e-39 3
-0.643523 0.349348 2.89997 6.36294e-39 3
-0.575357 0.336871 2.7964 6.73172e-39 3
-0.49483 0.314413 2.60997 6.27146e-39 3
-0.484992 0.336871 2.7964 6.64132e-39 3
-0.439809 0.336871 2.7964 7.6544e-39 3
-0.424983 0.362784 3.01151 7.28561e-39 3
-0.326148 0.314413 2.60997 8.48271e-39 3
0.171486 0.0786033 0.652493 1.67752e-38 3
0.185901 0.0802757 0.666376 2.29541e-38 3
0.195835 0.0799355 0.663553 2.34165e-38 3
0.199784 0.0773147 0.641797 2.32333e-38 5
0.20511 0.0754592 0.626394 2.30499e-38 5
0.210186 0.0736906 0.611713 2.30496e-38 5
0.219657 0.070391 0.584322 2.31414e-38 5
0.224081 0.0688496 0.571527 2.30495e-38 5
0.229959 0.067859 0.563304 2.29577e-38 5
0.238204 0.0676157 0.561285 2.3325e-38 5
0.246389 0.0673742 0.55928 2.28651e-38 5
0.254517 0.0671345 0.55729 1.95407e-38 5
0.263521 0.0671345 0.55729 1.61138e-38 5
0.272526 0.0671345 0.55729 1.76697e-38 5
0.278556 0.0664253 0.551403 1.93324e-38 5
0.28446 0.065731 0.545639 1.65716e-38 5
0.287271 0.0643849 0.534466 1.18782e-38 5
0.2949 0.0641659 0.532648 8.56669e-39 5
0.303506 0.0641659 0.532648 4.79274e-39 5
0.312112 0.0641659 0.532648 3.8715e-39 3
0.319631 0.0639484 0.530842 3.7793e-39 3
1.40146 0.176306 1.46354 4.97893e-39 3
1.38624 0.171498 1.42362 4.70342e-39 3
1.25013 0.152135 1.26289 4.05841e-39 3
1.28087 0.153372 1.27316 4.14989e-39 3
1.28062 0.150918 1.25279 4.24209e-39 3
1.30086 0.150918 1.25279 4.42541e-39 3
1.31062 0.149721 1.24284 4.42541e-39 3
1.27991 0.144006 1.19541 5.43883e-39 3
1.27968 0.141841 1.17743 5.53139e-39 3
1.29871 0.141841 1.17743 4.79382e-39 3
1.3079 0.140782 1.16864 5.43919e-39 3
1.31695 0.139739 1.15999 4.97821e-39 3
1.3357 0.139739 1.15999 4.70198e-39 3
1.37481 0.141841 1.17743 3.87186e-39 3
1.39383 0.141841 1.17743 3.68747e-39 3
1.43442 0.144006 1.19541 5.16261e-39 3
1.44273 0.142915 1.18635 4.97821e-39 3
-1.66633 0.289122 2.11619 4.05661e-39 3
-1.82997 0.324167 2.3727 4.1488e-39 3
-1.84762 0.334297 2.44685 4.42575e-39 3
-1.86641 0.345081 2.52578 4.24244e-39 3
-1.76855 0.334297 2.44685 4.24172e-39 3
-1.72902 0.334297 2.44685 4.88637e-39 3
-1.63828 0.324167 2.3727 4.97856e-39 3
-1.46662 0.297153 2.17498 4.79489e-39 3
-1.19845 0.248779 1.82091 5.07148e-39 3
-1.09278 0.232554 1.70216 5.43919e-39 3
-1.02089 0.222865 1.63123 5.25551e-39 3
-0.954756 0.21395 1.56598 4.88673e-39 3
-0.911229 0.209755 1.53528 4.70342e-39 3
-0.821956 0.1945 1.42362 4.88673e-39 3
-0.798954 0.1945 1.42362 4.97893e-39 3
-0.591753 0.339603 2.48569 8.29905e-39 3
-0.569676 0.350738 2.56719 8.29905e-39 3
-0.596667 0.396204 2.89997 8.7593e-39 3
-0.511893 0.36888 2.69997 8.02282e-39 3
-0.484992 0.382054 2.7964 8.20757e-39 3
0.171486 0.0891459 0.652493 2.29548e-38 3
0.182028 0.0891459 0.652493 2.34162e-38 3
0.195008 0.0902743 0.660753 2.2956e-38 5
0.199784 0.0876845 0.641797 2.29571e-38 5
0.20511 0.0855801 0.626394 2.30489e-38 5
0.211841 0.0842323 0.616529 2.32326e-38 5
0.219657 0.0798321 0.584322 2.32332e-38 5
0.223267 0.0778001 0.569449 2.31418e-38 5
0.229135 0.0766846 0.561285 2.29577e-38 5
0.238204 0.0766846 0.561285 2.32336e-38 5
0.246389 0.0764108 0.55928 2.32332e-38 5
0.254517 0.0761388 0.55729 2.35062e-38 5
0.263521 0.0761388 0.55729 1.61128e-38 5
0.272526 0.0761388 0.55729 1.8225e-38 5
0.27954 0.0756008 0.553351 1.72148e-38 5
0.286457 0.0750702 0.549468 1.39037e-38 5
0.286294 0.0727722 0.532648 9.57834e-39 5
0.2939 0.0725255 0.530842 4.51401e-39 5
0.302477 0.0725255 0.530842 3.77966e-39 5
0.310003 0.0722805 0.529049 3.41124e-39 3
0.311192 0.0706106 0.516826 2.95026e-39 3
0.319543 0.0706106 0.516826 3.78002e-39 3
1.40146 0.199953 1.46354 5.71685e-39 3
1.37375 0.192748 1.4108 5.1644e-39 3
1.32493 0.182863 1.33845 5.0722e-39 3
1.28087 0.173943 1.27316 4.33428e-39 3
1.28062 0.17116 1.25279 4.70307e-39 3
1.30086 0.17116 1.25279 5.07113e-39 3
1.29014 0.167149 1.22343 4.51795e-39 3
1.27991 0.163321 1.19541 5.43919e-39 3
1.28938 0.162083 1.18635 5.07076e-39 3
1.31854 0.163321 1.19541 5.25515e-39 3
1.33785 0.163321 1.19541 4.97857e-39 3
1.33676 0.160865 1.17743 4.33319e-39 3
1.35578 0.160865 1.17743 4.97856e-39 3
1.38522 0.162083 1.18635 4.51759e-39 3
1.40439 0.162083 1.18635 4.79382e-39 3
1.42356 0.162083 1.18635 4.88602e-39 3
1.42119 0.159664 1.16864 5.16224e-39 3
1.50758 0.167149 1.22343 4.97821e-39 3
-1.66633 0.323314 2.11619 6.4537e-39 3
-2.01296 0.398754 2.60997 5.25515e-39 3
-1.97079 0.398754 2.60997 5.34807e-39 3
-1.92862 0.398754 2.60997 4.42647e-39 3
-1.8256 0.385891 2.52578 5.07076e-39 3
-1.72902 0.373832 2.44685 4.60978e-39 3
-1.63828 0.362504 2.3727 4.79417e-39 3
-1.46662 0.332295 2.17498 4.97893e-39 3
-1.19845 0.2782 1.82091 5.43991e-39 3
-1.09278 0.260057 1.70216 4.97893e-39 3
-1.02089 0.249221 1.63123 5.6243e-39 3
-0.974241 0.244135 1.59794 5.71757e-39 3
-0.929454 0.239252 1.56598 5.34879e-39 3
-0.904152 0.239252 1.56598 5.43991e-39 3
-0.665722 0.427236 2.7964 6.45585e-39 3
-0.62054 0.427236 2.7964 7.1005e-39 3
-0.607924 0.45142 2.95469 8.48272e-39 3
-0.560184 0.45142 2.95469 8.48344e-39 3
-0.484992 0.427236 2.7964 8.66855e-39 3
0.186696 0.102245 0.669224 2.314e-38 5
0.195008 0.10095 0.660753 2.28645e-38 5
0.204293 0.0953197 0.623898 2.27727e-38 5
0.210186 0.093458 0.611713 2.29567e-38 5
0.218841 0.0889414 0.58215 2.31414e-38 5
0.221655 0.0863727 0.565337 2.29578e-38 5
0.229959 0.086062 0.563304 2.30496e-38 5
0.238204 0.0857535 0.561285 2.29577e-38 5
0.247272 0.0857535 0.561285 2.32336e-38 5
0.255426 0.0854473 0.55928 2.28648e-38 5
0.264462 0.0854473 0.55928 1.77794e-38 5
0.273499 0.0854473 0.55928 1.6385e-38 5
0.28153 0.0851432 0.55729 1.41767e-38 5
0.287465 0.0842438 0.551403 9.66911e-39 5
0.286294 0.0813784 0.532648 5.25051e-39 5
0.289968 0.0800175 0.523741 4.42468e-39 5
0.296448 0.0794858 0.520261 4.24136e-39 5
0.303844 0.0792226 0.518538 4.14917e-39 3
0.308141 0.0781871 0.51176 3.13501e-39 3
0.322738 0.0797508 0.521995 3.31941e-39 3
1.98412 0.405513 2.65421 8.38764e-39 3
2.02701 0.405513 2.65421 8.01958e-39 3
2.14252 0.419741 2.74734 8.57204e-39 3
2.30841 0.44306 2.89997 8.84899e-39 3
0.811897 0.144128 0.943364 9.21777e-39 3
0.827139 0.144128 0.943364 9.49508e-39 3
0.842381 0.144128 0.943364 7.65189e-39 3
1.35253 0.219498 1.43668 4.88673e-39 3
1.35096 0.215543 1.4108 5.25552e-39 3
1.3376 0.209871 1.37367 4.33463e-39 3
1.23029 0.189883 1.24284 5.53318e-39 3
1.26038 0.191402 1.25279 5.0722e-39 3
1.24091 0.185467 1.21394 4.79633e-39 3
1.25083 0.18404 1.2046 5.0722e-39 3
1.24164 0.179889 1.17743 5.0722e-39 3
1.25125 0.178547 1.16864 5.80869e-39 3
1.27013 0.178547 1.16864 5.90088e-39 3
1.28902 0.178547 1.16864 4.97857e-39 3
1.29821 0.177224 1.15999 5.25515e-39 3
1.31695 0.177224 1.15999 4.42539e-39 3
1.3357 0.177224 1.15999 4.51759e-39 3
1.35444 0.177224 1.15999 4.79417e-39 3
1.37318 0.177224 1.15999 5.16296e-39 3
1.39192 0.177224 1.15999 4.70162e-39 3
1.41067 0.177224 1.15999 5.34735e-39 3
1.47305 0.182635 1.19541 5.71541e-39 3
1.41667 0.173371 1.13477 5.07004e-39 3
-2.06638 0.472419 2.7964 5.07112e-39 3
-1.88645 0.440924 2.60997 5.90088e-39 3
-1.78479 0.426701 2.52578 6.08491e-39 3
-1.68948 0.413367 2.44685 5.62358e-39 3
-1.59995 0.40084 2.3727 5.62394e-39 3
-1.19845 0.307622 1.82091 5.80869e-39 3
-1.09278 0.287559 1.70216 5.34771e-39 3
-1.04262 0.281441 1.66594 5.80869e-39 3
-0.994538 0.275578 1.63123 5.44099e-39 3
-0.938842 0.267227 1.5818 5.44135e-39 3
-0.961864 0.281441 1.66594 6.26967e-39 3
-0.690379 0.489916 2.89997 1.02355e-38 3
0.176637 0.113543 0.672096 2.31404e-38 3
0.185901 0.112576 0.666376 2.28649e-38 5
0.190193 0.10887 0.644438 2.28645e-38 5
0.191918 0.104155 0.616529 2.28645e-38 5
0.197982 0.102145 0.604627 2.28645e-38 5
0.203048 0.0998319 0.590937 2.28649e-38 5
0.210216 0.0987144 0.584322 2.29574e-38 5
0.214847 0.0965528 0.571527 2.29574e-38 5
0.220066 0.0948225 0.561285 2.30492e-38 5
0.229135 0.0948225 0.561285 2.29574e-38 5
0.238204 0.0948225 0.561285 2.29578e-38 5
0.247272 0.0948225 0.561285 2.29571e-38 5
0.256341 0.0948225 0.561285 2.305e-38 5
0.266365 0.0951635 0.563304 2.10106e-38 5
0.274479 0.0948225 0.561285 1.60195e-38 5
0.282535 0.0944838 0.55928 1.30728e-38 5
0.289504 0.0938137 0.555314 9.76417e-39 5
0.288255 0.0906009 0.536296 7.55935e-39 5
0.287088 0.0876009 0.518538 8.76111e-39 5
0.286916 0.0850658 0.503532 8.39233e-39 5
0.300856 0.0867392 0.513437 6.63953e-39 3
0.30614 0.0858944 0.508436 5.16368e-39 3
1.39564 0.362404 2.14518 4.05625e-39 3
1.63619 0.377935 2.23712 1.07833e-38 3
1.67233 0.377935 2.23712 1.0968e-38 3
1.89831 0.419928 2.48569 1.06003e-38 3
2.22043 0.481008 2.84724 1.0323e-38 3
2.30841 0.489916 2.89997 1.01394e-38 3
1.01339 0.206683 1.22343 9.30996e-39 3
1.00185 0.20042 1.18635 8.84899e-39 3
0.976629 0.191706 1.13477 9.31033e-39 3
0.915367 0.17637 1.04399 8.2047e-39 3
0.873971 0.165347 0.97874 6.73029e-39 3
1.04997 0.191706 1.13477 5.80833e-39 3
1.24937 0.224199 1.32711 6.54661e-39 3
1.29273 0.228064 1.34999 6.73064e-39 3
1.24989 0.216848 1.28359 6.54661e-39 3
1.27063 0.216848 1.28359 6.73136e-39 3
1.23083 0.206683 1.22343 6.17855e-39 3
1.22196 0.20195 1.19541 5.25695e-39 3
1.23187 0.20042 1.18635 4.97965e-39 3
1.23237 0.197429 1.16864 5.16368e-39 3
1.25125 0.197429 1.16864 4.51795e-39 3
1.27013 0.197429 1.16864 4.97893e-39 3
1.27947 0.195966 1.15999 4.88673e-39 3
1.29821 0.195966 1.15999 5.16296e-39 3
1.31695 0.195966 1.15999 4.97857e-39 3
1.3357 0.195966 1.15999 5.25515e-39 3
1.35444 0.195966 1.15999 4.70198e-39 3
1.38343 0.197429 1.16864 4.88637e-39 3
1.39192 0.195966 1.15999 5.25515e-39 3
1.41067 0.195966 1.15999 4.60978e-39 3
1.47305 0.20195 1.19541 5.0704e-39 3
1.41667 0.191706 1.13477 5.80796e-39 3
-1.59995 0.439177 2.3727 5.25552e-39 3
-1.19845 0.337043 1.82091 5.99308e-39 3
-1.11707 0.322063 1.73998 6.08528e-39 3
-1.08895 0.322063 1.73998 5.07113e-39 3
-1.0157 0.308358 1.66594 5.90197e-39 3
-0.988781 0.308358 1.66594 5.90196e-39 3
0.172927 0.121789 0.657977 2.28652e-38 5
0.178313 0.118309 0.639177 2.28645e-38 5
0.183952 0.10938 0.590937 2.28645e-38 3
0.187144 0.105787 0.571527 2.28645e-38 3
0.200491 0.103152 0.55729 2.29571e-38 5
0.206555 0.101704 0.549468 2.29571e-38 5
0.214679 0.101349 0.547547 2.28649e-38 5
0.225896 0.102423 0.553351 2.30492e-38 5
0.238204 0.103891 0.561285 2.29574e-38 5
0.247272 0.103891 0.561285 2.28652e-38 5
0.256341 0.103891 0.561285 2.2589e-38 5
0.276461 0.104641 0.565337 1.60227e-38 5
0.28663 0.105021 0.567386 1.34445e-38 5
0.290243 0.0999506 0.539995 1.6055e-38 5
0.297436 0.096619 0.521995 1.27532e-38 5
1.29095 0.386476 2.08798 1.55173e-38 3
1.34259 0.391698 2.11619 1.07195e-38 3
1.37678 0.391698 2.11619 9.59877e-39 3
1.39216 0.386476 2.08798 4.98251e-39 3
1.40714 0.381391 2.06051 6.45477e-39 3
1.40349 0.371611 2.00767 8.47984e-39 3
1.43593 0.371611 2.00767 1.07833e-38 3
1.48744 0.376438 2.03375 1.07847e-38 3
1.50081 0.371611 2.00767 1.05081e-38 3
1.5736 0.381391 2.06051 1.10613e-38 3
2.0354 0.483095 2.60997 1.07847e-38 3
1.03316 0.226451 1.22343 7.92703e-39 3
0.923115 0.198532 1.07259 7.65117e-39 3
0.880161 0.185806 1.00384 7.74408e-39 3
0.873971 0.181161 0.97874 7.74408e-39 3
1.04997 0.210041 1.13477 8.29725e-39 3
1.22855 0.241547 1.30499 7.28346e-39 3
1.27082 0.245641 1.32711 7.74444e-39 3
1.24989 0.237588 1.28359 8.20541e-39 3
1.27063 0.237588 1.28359 7.19198e-39 3
1.22129 0.224695 1.21394 7.37637e-39 3
1.21271 0.219589 1.18635 5.90196e-39 3
1.22261 0.217938 1.17743 7.00759e-39 3
1.22324 0.214709 1.15999 6.6388e-39 3
1.25125 0.216311 1.16864 6.08599e-39 3
1.26073 0.214709 1.15999 5.99343e-39 3
1.27947 0.214709 1.15999 5.71649e-39 3
1.32772 0.219589 1.18635 5.99344e-39 3
1.33676 0.217938 1.17743 5.6243e-39 3
1.35578 0.217938 1.17743 5.62393e-39 3
1.35444 0.214709 1.15999 5.43954e-39 3
1.38343 0.216311 1.16864 4.97856e-39 3
1.39192 0.214709 1.15999 4.33319e-39 3
1.41067 0.214709 1.15999 4.70198e-39 3
1.4509 0.217938 1.17743 6.2693e-39 3
1.41667 0.210041 1.13477 9.86493e-39 3
-1.25729 0.366464 1.82091 6.17855e-39 3
-1.21375 0.362252 1.79998 6.17747e-39 3
-1.19845 0.366464 1.82091 7.19162e-39 3
-1.18278 0.370775 1.84233 6.45406e-39 3
-1.1396 0.366464 1.82091 6.17747e-39 3
-1.11018 0.366464 1.82091 6.17747e-39 3
-1.08076 0.366464 1.82091 7.00759e-39 3
-1.08934 0.37971 1.88673 7.56004e-39 3
-1.2039 0.431725 2.14518 7.09943e-39 3
0.164236 0.118481 0.588716 2.28645e-38 3
0.172451 0.117597 0.584322 2.28645e-38 3
0.174097 0.112557 0.55928 2.28645e-38 3
0.181835 0.111759 0.555314 2.28642e-38 3
0.190807 0.111759 0.555314 2.28645e-38 3
0.196986 0.110196 0.547547 2.28645e-38 3
0.202296 0.108302 0.538139 2.28645e-38 3
0.209551 0.107563 0.534466 2.28645e-38 3
0.218186 0.107563 0.534466 2.30489e-38 5
0.236508 0.112156 0.55729 2.30492e-38 5
0.246389 0.112557 0.55928 2.28652e-38 5
0.255426 0.112557 0.55928 2.27723e-38 5
0.266365 0.113367 0.563304 2.30478e-38 5
0.278472 0.114603 0.569449 1.56597e-38 5
0.287672 0.114603 0.569449 1.44691e-38 5
0.290243 0.108676 0.539995 1.6987e-38 5
1.25742 0.409298 2.03375 1.18417e-38 5
1.25762 0.398936 1.98226 9.26778e-39 3
1.27352 0.393949 1.95748 8.34436e-39 3
1.30515 0.393949 1.95748 9.89117e-39 3
1.32028 0.389085 1.93331 9.50117e-39 3
1.30325 0.375189 1.86427 1.21687e-38 3
1.31768 0.370775 1.84233 1.39205e-38 3
1.34745 0.370775 1.84233 1.29992e-38 3
1.4104 0.37971 1.88673 1.00479e-38 3
1.49492 0.393949 1.95748 8.66423e-39 3
1.62832 0.420212 2.08798 8.84863e-39 3
1.00185 0.238757 1.18635 9.86314e-39 3
0.863941 0.202025 1.00384 8.6646e-39 3
0.858157 0.196974 0.97874 8.29654e-39 3
0.89638 0.202025 1.00384 8.38873e-39 3
1.04997 0.228376 1.13477 8.02067e-39 3
1.20841 0.258327 1.28359 9.12737e-39 3
1.22915 0.258327 1.28359 8.94298e-39 3
1.24989 0.258327 1.28359 7.37493e-39 3
1.24013 0.252127 1.25279 7.37565e-39 3
1.20265 0.24058 1.19541 7.19126e-39 3
1.19461 0.235193 1.16864 7.00723e-39 3
1.18691 0.230043 1.14305 6.8232e-39 3
1.20538 0.230043 1.14305 6.63845e-39 3
1.22385 0.230043 1.14305 7.00759e-39 3
1.24232 0.230043 1.14305 6.45441e-39 3
1.26079 0.230043 1.14305 6.27002e-39 3
1.34814 0.24243 1.2046 6.3615e-39 3
1.36761 0.24243 1.2046 5.71613e-39 3
1.37648 0.24058 1.19541 5.99236e-39 3
1.37481 0.236962 1.17743 6.17711e-39 3
1.38343 0.235193 1.16864 5.90052e-39 3
1.38169 0.231735 1.15146 5.25515e-39 3
1.40029 0.231735 1.15146 4.79417e-39 3
1.4189 0.231735 1.15146 4.97856e-39 3
1.39643 0.225114 1.11856 4.70197e-39 3
-1.3349 0.420323 1.93331 5.16476e-39 3
-1.22787 0.395885 1.82091 4.33356e-39 3
-1.19845 0.395885 1.82091 6.08456e-39 3
-1.18278 0.400543 1.84233 5.6243e-39 3
-1.1396 0.395885 1.82091 6.17747e-39 3
-1.09742 0.391335 1.79998 6.82248e-39 3
-1.06834 0.391335 1.79998 7.19126e-39 3
-1.10262 0.415197 1.90974 9.40395e-39 3
0.142008 0.12517 0.575729 2.28649e-38 3
0.150757 0.124711 0.573621 2.28645e-38 3
0.158285 0.123356 0.567386 2.28645e-38 3
0.172862 0.120731 0.555314 2.28645e-38 3
0.200232 0.115803 0.532648 2.28645e-38 3
0.20813 0.115411 0.530842 2.27723e-38 3
0.234837 0.120304 0.553351 2.30492e-38 3
0.243777 0.120304 0.553351 2.28652e-38 3
0.252718 0.120304 0.553351 2.35081e-38 5
0.262587 0.120731 0.555314 2.25886e-38 5
0.272526 0.121161 0.55729 1.60363e-38 5
0.285595 0.12291 0.565337 1.77088e-38 5
0.291572 0.121593 0.55928 1.66161e-38 5
0.288255 0.116596 0.536296 1.77214e-38 5
1.22559 0.430964 1.98226 1.30359e-38 5
1.18276 0.405311 1.86427 9.35819e-39 5
1.17106 0.391335 1.79998 8.90114e-39 5
0.855837 0.279067 1.28359 8.43834e-39 3
0.891186 0.283718 1.30499 9.05565e-39 3
1.07326 0.333786 1.53528 1.06954e-38 3
0.933357 0.283718 1.30499 1.29999e-38 3
1.30151 0.386888 1.77953 1.37372e-38 3
1.3612 0.395885 1.82091 1.3552e-38 3
1.42373 0.405311 1.86427 1.2168e-38 3
1.62832 0.453948 2.08798 1.06007e-38 3
0.7999 0.214127 0.984896 9.21777e-39 3
0.800706 0.210161 0.966657 9.86422e-39 3
0.826529 0.212788 0.97874 1.01397e-38 3
0.842343 0.212788 0.97874 9.77095e-39 3
0.858157 0.212788 0.97874 9.95534e-39 3
0.89638 0.218244 1.00384 9.77094e-39 3
0.936615 0.223988 1.03025 9.03446e-39 3
1.20746 0.283718 1.30499 8.48128e-39 3
1.19859 0.276798 1.27316 8.0203e-39 3
1.22915 0.279067 1.28359 8.1125e-39 3
1.24989 0.279067 1.28359 7.55825e-39 3
1.23029 0.270207 1.24284 6.36078e-39 3
1.19354 0.257925 1.18635 6.45298e-39 3
1.17704 0.250339 1.15146 6.3615e-39 3
1.17831 0.246711 1.13477 7.00687e-39 3
1.18804 0.244936 1.12661 6.54589e-39 3
1.20624 0.244936 1.12661 6.1771e-39 3
1.22445 0.244936 1.12661 6.3615e-39 3
1.23377 0.243187 1.11856 5.90052e-39 3
1.3079 0.254076 1.16864 6.2693e-39 3
1.36761 0.261893 1.2046 5.53174e-39 3
1.35578 0.255986 1.17743 6.54518e-39 3
1.36455 0.254076 1.16864 6.17675e-39 3
1.36308 0.250339 1.15146 6.36115e-39 3
1.3716 0.248512 1.14305 5.53174e-39 3
1.39007 0.248512 1.14305 5.62393e-39 3
1.39833 0.246711 1.13477 6.2693e-39 3
1.32095 0.230041 1.0581 5.53174e-39 3
-1.15559 0.420418 1.79998 6.086e-39 3
-1.1137 0.415641 1.77953 6.08491e-39 3
-1.02662 0.393294 1.68385 7.00687e-39 3
-0.999413 0.393294 1.68385 6.08563e-39 3
-0.0738123 0.285753 1.22343 1.52094e-38 3
-0.0161504 0.318055 1.36173 1.53002e-38 3
0.11226 0.122329 0.523741 2.32318e-38 3
0.123195 0.124834 0.534466 2.31404e-38 3
0.13746 0.130165 0.55729 2.28649e-38 3
0.146464 0.130165 0.55729 2.29563e-38 3
0.154918 0.129703 0.555314 2.29563e-38 3
0.227599 0.125262 0.536296 2.31407e-38 3
0.233861 0.123988 0.530842 2.30496e-38 3
0.245771 0.125692 0.538139 2.28649e-38 3
0.259823 0.128338 0.549468 2.30471e-38 5
0.269647 0.12879 0.551403 1.84374e-38 5
0.28153 0.130165 0.55729 1.7905e-38 5
0.290534 0.130165 0.55729 1.86415e-38 5
0.290243 0.126125 0.539995 2.00187e-38 5
0.2949 0.124409 0.532648 2.09374e-38 5
0.701605 0.265046 1.13477 1.38625e-38 5
0.71476 0.263139 1.12661 1.06478e-38 5
0.732964 0.263139 1.12661 8.90116e-39 5
0.740512 0.259407 1.11063 9.36211e-39 5
0.747849 0.255779 1.09509 1.1277e-38 3
0.776401 0.259407 1.11063 8.76649e-39 3
0.777797 0.254003 1.08749 1.03256e-38 3
0.748582 0.239061 1.02352 1.03263e-38 3
0.755247 0.235977 1.01031 1.06025e-38 3
0.766625 0.234464 1.00384 9.8635e-39 3
0.763273 0.228602 0.97874 9.12665e-39 3
0.783987 0.23004 0.984896 9.31104e-39 3
0.780271 0.224395 0.960726 9.77202e-39 3
0.790941 0.223027 0.954868 9.67875e-39 3
0.816325 0.22578 0.966657 1.00468e-38 3
0.831944 0.22578 0.966657 9.67803e-39 3
0.847562 0.22578 0.966657 9.95462e-39 3
0.873971 0.228602 0.97874 1.06e-38 3
0.9126 0.234464 1.00384 1.05085e-38 3
1.08131 0.272958 1.16864 1.0694e-38 3
1.14284 0.283538 1.21394 1.15241e-38 3
1.18076 0.288003 1.23306 1.06025e-38 3
1.21021 0.290289 1.24284 1.0233e-38 3
1.18333 0.279209 1.19541 1.0233e-38 3
1.16701 0.270936 1.15999 7.83663e-39 3
1.15998 0.265046 1.13477 7.00687e-39 3
1.16984 0.263139 1.12661 6.26859e-39 3
1.18804 0.263139 1.12661 7.00615e-39 3
1.19763 0.26126 1.11856 7.37493e-39 3
1.2157 0.26126 1.11856 7.74371e-39 3
1.23377 0.26126 1.11856 7.65187e-39 3
1.29821 0.270936 1.15999 6.08455e-39 3
1.37821 0.283538 1.21394 6.2693e-39 3
1.35578 0.27501 1.17743 6.72993e-39 3
1.35444 0.270936 1.15999 5.89981e-39 3
1.32414 0.26126 1.11856 6.08456e-39 3
1.34221 0.26126 1.11856 6.3615e-39 3
1.34113 0.25758 1.10281 6.54625e-39 3
1.37836 0.26126 1.11856 6.54733e-39 3
1.32095 0.247138 1.0581 5.44026e-39 3
-1.14246 0.444393 1.77953 5.99452e-39 3
-1.05383 0.420501 1.68385 6.63809e-39 3
-1.00501 0.411648 1.6484 6.91468e-39 3
-0.978373 0.411648 1.6484 7.28417e-39 3
-1.05134 0.454728 1.82091 7.1927e-39 3
-0.58875 0.383398 1.53528 9.95893e-39 3
-0.479352 0.325888 1.30499 9.77418e-39 3
-0.458267 0.325888 1.30499 9.4054e-39 3
-0.0998183 0.325888 1.30499 1.23528e-38 3
-0.0761933 0.315376 1.26289 1.29049e-38 3
-0.0540449 0.30552 1.22343 1.44715e-38 3
-0.0342775 0.30552 1.22343 1.43782e-38 3
-0.0146244 0.307926 1.23306 1.5208e-38 3
0.00502185 0.29184 1.16864 1.47473e-38 3
0.0256252 0.312853 1.25279 1.47473e-38 3
0.045867 0.312853 1.25279 1.35492e-38 3
0.0677344 0.320546 1.28359 1.25346e-38 3
0.0899486 0.325888 1.30499 1.19818e-38 3
0.111967 0.328627 1.31595 1.0968e-38 3
0.101093 0.127383 0.510093 2.28623e-38 3
0.110778 0.129065 0.516826 2.35098e-38 3
0.122776 0.133016 0.532648 2.314e-38 3
0.135057 0.136736 0.547547 2.2956e-38 3
0.144409 0.137216 0.549468 2.31397e-38 3
0.154918 0.138676 0.555314 2.314e-38 3
0.259823 0.137216 0.549468 2.32329e-38 3
0.268701 0.137216 0.549468 1.90841e-38 5
0.280532 0.138676 0.555314 1.6064e-38 5
0.291572 0.139666 0.55928 1.88252e-38 5
0.294302 0.136736 0.547547 2.09378e-38 5
0.2949 0.133016 0.532648 2.17632e-38 5
0.701605 0.283381 1.13477 1.51471e-38 5
0.71476 0.281342 1.12661 1.22083e-38 5
0.732964 0.281342 1.12661 9.63441e-39 5
0.735297 0.275399 1.10281 8.90043e-39 5
0.732482 0.267853 1.07259 1.25681e-38 5
0.749812 0.267853 1.07259 1.0887e-38 3
0.756776 0.264234 1.0581 9.86709e-39 3
0.743721 0.253939 1.01687 1.00508e-38 3
0.755247 0.252301 1.01031 9.86565e-39 3
0.761742 0.249087 0.997442 1.00493e-38 3
0.763273 0.244416 0.97874 1.01408e-38 3
0.783987 0.245953 0.984896 1.05096e-38 3
0.780271 0.239918 0.960726 1.05085e-38 3
0.795794 0.239918 0.960726 1.17063e-38 3
0.816325 0.241399 0.966657 1.2074e-38 3
0.831944 0.241399 0.966657 1.17975e-38 3
0.827139 0.235582 0.943364 1.17975e-38 3
0.842381 0.235582 0.943364 1.03227e-38 3
0.889785 0.244416 0.97874 1.05081e-38 3
0.928819 0.250683 1.00384 1.07851e-38 3
0.921412 0.244416 0.97874 1.0233e-38 3
0.937226 0.244416 0.97874 9.77202e-39 3
1.20068 0.307926 1.23306 9.67983e-39 3
1.18333 0.298524 1.19541 8.85006e-39 3
1.14164 0.283381 1.13477 8.94298e-39 3
1.15998 0.283381 1.13477 9.12737e-39 3
1.16984 0.281342 1.12661 8.11322e-39 3
1.18804 0.281342 1.12661 7.19126e-39 3
1.18913 0.277352 1.11063 7.56004e-39 3
1.20708 0.277352 1.11063 7.28345e-39 3
1.24265 0.281342 1.12661 6.63809e-39 3
1.28867 0.287548 1.15146 6.54589e-39 3
1.36761 0.30082 1.2046 6.26931e-39 3
1.36605 0.296262 1.18635 5.8998e-39 3
1.32499 0.283381 1.13477 5.80761e-39 3
1.32414 0.279333 1.11856 5.2548e-39 3
1.17443 0.244416 0.97874 4.97857e-39 3
1.19025 0.244416 0.97874 6.73064e-39 3
1.07206 0.217259 0.869991 5.34807e-39 3
1.22188 0.244416 0.97874 5.71685e-39 3
-1.00501 0.438282 1.6484 5.80869e-39 3
-0.978373 0.438282 1.6484 6.73136e-39 3
-1.05134 0.484149 1.82091 6.36294e-39 3
-0.492233 0.341285 1.28359 9.7749e-39 3
-0.460178 0.333095 1.25279 8.85222e-39 3
-0.423016 0.320283 1.2046 8.38981e-39 3
-0.160742 0.3928 1.47734 5.44026e-39 3
-0.120904 0.346973 1.30499 6.08491e-39 3
-0.0998183 0.346973 1.30499 7.37528e-39 3
-0.0761933 0.335781 1.26289 8.6653e-39 3
-0.0540449 0.325288 1.22343 1.03241e-38 3
-0.0342775 0.325288 1.22343 1.02308e-38 3
-0.0146244 0.327849 1.23306 1.08762e-38 3
0.00505961 0.313059 1.17743 1.08758e-38 3
0.0237271 0.308421 1.15999 9.5851e-39 3
0.0427864 0.310723 1.16864 8.57095e-39 3
0.0616687 0.310723 1.16864 7.83374e-39 3
0.0830294 0.320283 1.2046 7.27985e-39 3
0.105746 0.330451 1.24284 6.63412e-39 3
0.100765 0.135184 0.508436 2.34158e-38 3
0.110778 0.137415 0.516826 2.3508e-38 3
0.123195 0.142105 0.534466 2.34159e-38 3
0.13183 0.142105 0.534466 2.35077e-38 3
0.142905 0.144572 0.543745 2.33236e-38 3
0.264982 0.144072 0.541863 2.04681e-38 3
0.275644 0.145076 0.545639 1.58825e-38 5
0.290534 0.148174 0.55729 1.79065e-38 5
0.294302 0.145583 0.547547 2.03868e-38 5
0.29692 0.142592 0.536296 2.13955e-38 5
0.303506 0.141622 0.532648 2.19472e-38 5
0.313178 0.142105 0.534466 2.1397e-38 5
0.641202 0.275741 1.03708 2.22242e-38 5
0.671295 0.28133 1.0581 2.26815e-38 5
0.688391 0.28133 1.0581 1.98364e-38 5
0.705487 0.28133 1.0581 1.03719e-38 5
0.712949 0.277579 1.04399 9.72261e-39 5
0.724984 0.275741 1.03708 1.20855e-38 3
0.741741 0.275741 1.03708 9.95785e-39 3
0.72951 0.265203 0.997442 1.04195e-38 3
0.740907 0.263524 0.991129 1.00493e-38 3
0.747459 0.26023 0.97874 9.77274e-39 3
0.75385 0.257017 0.966657 9.86494e-39 3
0.769469 0.257017 0.966657 9.58763e-39 3
0.775513 0.253883 0.954868 1.06922e-38 3
0.795794 0.255441 0.960726 1.18896e-38 3
0.816325 0.257017 0.966657 1.23499e-38 3
0.821798 0.253883 0.954868 1.17045e-38 3
0.827139 0.250824 0.943364 1.20737e-38 3
0.842381 0.250824 0.943364 1.15205e-38 3
0.868082 0.253883 0.954868 1.15205e-38 3
0.917062 0.263524 0.991129 1.18896e-38 3
0.910037 0.257017 0.966657 1.19833e-38 3
0.925656 0.257017 0.966657 1.07862e-38 3
0.95304 0.26023 0.97874 1.0233e-38 3
1.20168 0.322766 1.21394 1.00486e-38 3
1.16701 0.308421 1.15999 9.03482e-39 3
1.14341 0.297406 1.11856 8.29725e-39 3
1.16148 0.297406 1.11856 8.20506e-39 3
1.18804 0.299545 1.12661 7.74408e-39 3
1.18076 0.293217 1.10281 7.46785e-39 3
1.19858 0.293217 1.10281 6.54589e-39 3
1.24265 0.299545 1.12661 7.46821e-39 3
-0.492233 0.362025 1.28359 9.95785e-39 3
-0.471494 0.362025 1.28359 9.12809e-39 3
-0.433008 0.347772 1.23306 8.94298e-39 3
-0.409858 0.345055 1.22343 9.30996e-39 3
-0.184612 0.41667 1.47734 9.95965e-39 3
-0.141989 0.368059 1.30499 8.94513e-39 3
-0.120904 0.368059 1.30499 7.28561e-39 3
-0.0998183 0.368059 1.30499 5.99307e-39 3
-0.0774424 0.362025 1.28359 6.54624e-39 3
-0.0540449 0.345055 1.22343 6.54588e-39 3
-0.0342775 0.345055 1.22343 6.5448e-39 3
-0.0146244 0.347772 1.23306 6.4526e-39 3
0.00502185 0.329605 1.16864 6.81994e-39 3
0.0233807 0.322387 1.14305 7.00362e-39 3
0.0409527 0.315479 1.11856 6.54336e-39 3
0.0566 0.302514 1.07259 6.17422e-39 3
0.0691912 0.283122 1.00384 7.00218e-39 3
0.0854106 0.283122 1.00384 7.18656e-39 3
0.10163 0.283122 1.00384 8.29256e-39 3
0.0934603 0.14481 0.513437 2.32335e-38 3
0.102767 0.146248 0.518538 2.268e-38 3
0.113398 0.149213 0.529049 2.22193e-38 3
0.122776 0.150228 0.532648 2.20357e-38 3
0.130937 0.149719 0.530842 2.17598e-38 3
0.273737 0.152827 0.541863 1.53307e-38 5
0.286457 0.154972 0.549468 1.71732e-38 5
0.293276 0.153892 0.545639 1.91014e-38 5
0.295906 0.150741 0.534466 2.03857e-38 5
0.303506 0.150228 0.532648 2.10292e-38 5
0.311054 0.149719 0.530842 2.04786e-38 5
0.320719 0.150228 0.532648 1.83635e-38 5
0.593997 0.270963 0.960726 2.20405e-38 5
0.60952 0.270963 0.960726 2.31403e-38 5
0.625042 0.270963 0.960726 2.19486e-38 5
0.669309 0.283122 1.00384 1.27586e-38 5
0.685528 0.283122 1.00384 1.22965e-38 5
0.701747 0.283122 1.00384 1.27284e-38 3
0.708879 0.279538 0.991129 1.07876e-38 3
0.702657 0.270963 0.960726 1.06943e-38 3
0.722613 0.272636 0.966657 1.10624e-38 3
0.738231 0.272636 0.966657 1.16149e-38 3
0.749225 0.270963 0.960726 1.10628e-38 3
0.769469 0.272636 0.966657 1.05096e-38 3
0.780271 0.270963 0.960726 1.08766e-38 3
0.800706 0.272636 0.966657 1.28109e-38 3
0.816325 0.272636 0.966657 1.29024e-38 3
0.821798 0.269311 0.954868 1.31793e-38 3
0.822186 0.264473 0.937715 1.23495e-38 3
0.837337 0.264473 0.937715 1.18886e-38 3
0.862821 0.267679 0.949081 1.19808e-38 3
0.917062 0.279538 0.991129 1.06907e-38 3
0.898939 0.269311 0.954868 1.08766e-38 3
0.914367 0.269311 0.954868 1.01408e-38 3
0.929795 0.269311 0.954868 1.01408e-38 3
0.956893 0.272636 0.966657 8.2047e-39 3
0.984668 0.276044 0.97874 8.11286e-39 3
1.00048 0.276044 0.97874 9.12737e-39 3
1.10617 0.300456 1.0653 7.83699e-39 3
1.14679 0.306716 1.08749 9.40432e-39 3
1.13289 0.298426 1.0581 7.92919e-39 3
1.16574 0.302514 1.07259 7.09943e-39 3
-0.48338 0.392414 1.31595 8.75787e-39 3
-0.439936 0.373578 1.25279 9.77058e-39 3
-0.330788 0.364822 1.22343 3.8715e-39 3
-0.326317 0.382764 1.28359 3.87258e-39 3
-0.236912 0.343362 1.15146 7.19306e-39 3
-0.195327 0.307219 1.03025 1.45684e-38 3
-0.178681 0.307219 1.03025 2.1483e-38 3
-0.186586 0.353767 1.18635 2.23135e-38 3
-0.145389 0.307219 1.03025 2.19451e-38 3
-0.143889 0.343362 1.15146 2.16689e-38 3
-0.133114 0.364822 1.22343 2.01026e-38 3
-0.113347 0.364822 1.22343 1.93647e-38 3
-0.0555763 0.27469 0.921167 1.41985e-38 3
-0.0402195 0.271496 0.910456 9.31283e-39 3
-0.025809 0.27469 0.921167 6.17781e-39 3
-0.0109253 0.27469 0.921167 6.36005e-39 3
0.00480663 0.333552 1.11856 6.72774e-39 3
0.0190664 0.27796 0.932133 7.18765e-39 3
0.0343316 0.279624 0.937715 6.81706e-39 3
0.0510099 0.288255 0.966657 8.38293e-39 3
0.0654171 0.283014 0.949081 1.13321e-38 3
0.0797847 0.279624 0.937715 1.7606e-38 3
0.0949358 0.279624 0.937715 2.24945e-38 3
0.0947023 0.15514 0.520261 2.30487e-38 3
0.103798 0.156178 0.523741 2.27725e-38 3
0.113783 0.158296 0.530842 2.29579e-38 3
0.123195 0.159376 0.534466 2.31413e-38 3
0.131382 0.158834 0.532648 2.25895e-38 3
0.215888 0.136144 0.456555 2.2958e-38 3
0.224574 0.136942 0.459233 2.1014e-38 3
0.265469 0.156702 0.525498 1.55101e-38 5
0.282492 0.161582 0.541863 1.52418e-38 5
0.292258 0.162143 0.543745 1.62524e-38 5
0.2939 0.158296 0.530842 1.71707e-38 5
0.299432 0.156702 0.525498 1.74466e-38 5
0.307923 0.156702 0.525498 1.68034e-38 5
0.319631 0.158296 0.530842 1.2849e-38 5
0.413767 0.199561 0.669224 1.52382e-38 5
0.48229 0.226686 0.760186 2.00158e-38 5
0.530635 0.243215 0.815617 1.7077e-38 5
0.567457 0.253789 0.851078 1.138e-38 5
0.611099 0.266842 0.894848 1.26563e-38 5
0.640191 0.273083 0.91578 1.18043e-38 3
0.65884 0.27469 0.921167 1.09713e-38 3
0.673724 0.27469 0.921167 1.08777e-38 3
0.696805 0.27796 0.932133 1.13376e-38 3
0.720443 0.281309 0.943364 1.16134e-38 3
0.726927 0.27796 0.932133 1.15223e-38 3
0.746431 0.279624 0.937715 1.19833e-38 3
0.761582 0.279624 0.937715 1.2535e-38 3
0.776733 0.279624 0.937715 1.39169e-38 3
0.78717 0.27796 0.932133 1.29024e-38 3
0.797484 0.276315 0.926618 1.21652e-38 3
0.802954 0.273083 0.91578 1.23496e-38 3
0.822561 0.27469 0.921167 1.24421e-38 3
0.8424 0.276315 0.926618 1.28105e-38 3
0.899974 0.290045 0.972661 1.27194e-38 3
0.888108 0.281309 0.943364 1.05081e-38 3
0.903351 0.281309 0.943364 9.40216e-39 3
0.929795 0.284739 0.954868 9.58763e-39 3
0.945223 0.284739 0.954868 8.85043e-39 3
0.960652 0.284739 0.954868 8.29797e-39 3
0.820908 0.239473 0.803069 7.56113e-39 3
0.864933 0.24839 0.83297 7.28347e-39 3
1.0257 0.290045 0.972661 7.74444e-39 3
1.11038 0.309253 1.03708 8.57456e-39 3
-0.512973 0.403504 1.28359 1.02323e-38 3
-0.500437 0.410229 1.30499 1.03245e-38 3
-0.479352 0.410229 1.30499 1.05081e-38 3
-0.443484 0.396996 1.26289 1.02305e-38 3
-0.334859 0.367369 1.16864 4.69874e-39 3
-0.306818 0.356721 1.13477 3.68711e-39 3
-0.297095 0.367369 1.16864 4.42503e-39 3
-0.291254 0.38459 1.22343 3.23045e-39 3
-0.248216 0.351625 1.11856 1.06083e-38 3
-0.202641 0.309607 0.984896 2.03788e-38 3
-0.184409 0.305761 0.972661 2.22206e-38 3
-0.168693 0.305761 0.972661 2.20362e-38 3
-0.181098 0.361967 1.15146 2.22206e-38 3
-0.145389 0.323865 1.03025 2.22206e-38 3
-0.128743 0.323865 1.03025 2.25894e-38 3
-0.10784 0.311566 0.991129 2.25897e-38 3
-0.0848446 0.28788 0.91578 2.29574e-38 3
-0.0692381 0.284552 0.905193 2.30489e-38 3
-0.0549301 0.286206 0.910456 2.2589e-38 3
-0.03953 0.2813 0.894848 2.06536e-38 3
-0.0247883 0.278121 0.884737 1.51215e-38 3
-0.0104343 0.276559 0.879766 7.9277e-39 3
0.00382345 0.279702 0.889764 7.5582e-39 3
0.0185153 0.284552 0.905193 7.4635e-39 3
0.0331409 0.284552 0.905193 1.23459e-38 3
0.0483252 0.28788 0.91578 1.8336e-38 3
0.0634931 0.289573 0.921167 2.2304e-38 3
0.0783768 0.289573 0.921167 2.25845e-38 3
0.092176 0.286206 0.910456 2.34146e-38 3
0.096302 0.166309 0.529049 2.14789e-38 3
0.104497 0.165749 0.527267 2.24012e-38 3
0.113783 0.166873 0.530842 2.35097e-38 3
0.123195 0.168012 0.534466 2.35097e-38 3
0.215888 0.14352 0.456555 2.30473e-38 3
0.224574 0.144362 0.459233 2.11059e-38 3
0.282492 0.170337 0.541863 1.2665e-38 5
0.291247 0.170337 0.541863 1.22101e-38 5
0.292907 0.166309 0.529049 1.26693e-38 5
0.299432 0.165193 0.525498 1.43238e-38 5
0.307923 0.165193 0.525498 1.4416e-38 5
0.320719 0.16744 0.532648 1.03727e-38 5
0.399003 0.197701 0.628909 6.23355e-39 5
0.410814 0.198498 0.631445 8.34686e-39 5
0.435051 0.205115 0.652493 1.12888e-38 5
0.502077 0.231115 0.735204 1.21874e-38 3
0.567216 0.255065 0.811391 1.23557e-38 3
0.612037 0.269003 0.855729 1.14315e-38 3
0.632779 0.271975 0.865185 1.14294e-38 3
0.646758 0.271975 0.865185 1.29034e-38 3
0.687319 0.282917 0.899991 1.33641e-38 3
0.69785 0.2813 0.894848 1.34573e-38 3
0.70426 0.278121 0.884737 1.28116e-38 3
0.730944 0.282917 0.899991 1.36406e-38 3
0.749794 0.284552 0.905193 1.26261e-38 3
0.77791 0.289573 0.921167 1.30864e-38 3
0.783575 0.286206 0.910456 1.39162e-38 3
0.798285 0.286206 0.910456 1.34555e-38 3
0.822561 0.289573 0.921167 1.19808e-38 3
0.8424 0.291287 0.926618 1.18889e-38 3
0.888931 0.302009 0.960726 1.07826e-38 3
0.877536 0.293021 0.932133 1.06911e-38 3
0.892596 0.293021 0.932133 1.11532e-38 3
0.907657 0.293021 0.932133 1.03241e-38 3
0.911863 0.289573 0.921167 8.57348e-39 3
0.795691 0.248624 0.790901 8.94262e-39 3
0.80847 0.248624 0.790901 7.92919e-39 3
0.813037 0.246137 0.782992 7.65225e-39 3
0.825688 0.246137 0.782992 7.28347e-39 3
-0.332379 0.38339 1.15999 4.42359e-39 3
-0.286087 0.349714 1.0581 3.68818e-39 3
-0.245745 0.319492 0.966657 4.70305e-39 3
-0.216747 0.300917 0.910456 7.20313e-39 3
-0.202036 0.300917 0.910456 1.55991e-38 3
-0.196463 0.315596 0.954868 2.11204e-38 3
-0.181035 0.315596 0.954868 2.25894e-38 3
-0.165607 0.315596 0.954868 2.2405e-38 3
-0.15788 0.33178 1.00384 2.2773e-38 3
-0.142575 0.333921 1.01031 2.26808e-38 3
-0.126251 0.333921 1.01031 2.28645e-38 3
-0.102642 0.311793 0.943364 2.29563e-38 3
-0.0848446 0.302677 0.91578 2.30482e-38 3
-0.0684468 0.295758 0.894848 2.23124e-38 3
-0.0539884 0.295758 0.894848 2.24978e-38 3
-0.0386466 0.289149 0.874851 2.24974e-38 3
-0.0243751 0.287543 0.869991 2.12978e-38 3
-0.0102613 0.285954 0.865185 1.3275e-38 3
0.00378049 0.290774 0.879766 8.57234e-39 3
0.0184089 0.297458 0.899991 1.14272e-38 3
0.0327622 0.295758 0.894848 1.20704e-38 3
0.0480442 0.300917 0.910456 1.46485e-38 3
0.0623921 0.299178 0.905193 1.64006e-38 3
0.076575 0.297458 0.899991 1.68645e-38 3
0.0986346 0.179092 0.541863 1.81574e-38 3
0.105563 0.176047 0.532648 2.05544e-38 3
0.114559 0.176647 0.534466 2.23086e-38 3
0.123617 0.177252 0.536296 2.24934e-38 3
0.22197 0.150022 0.453908 1.92601e-38 3
0.231315 0.151338 0.45789 1.51136e-38 3
0.264208 0.167501 0.506791 1.38524e-38 3
0.288255 0.177252 0.536296 1.05513e-38 5
0.289968 0.173103 0.523741 9.35781e-39 5
0.298431 0.173103 0.523741 1.1751e-38 5
0.306893 0.173103 0.523741 1.20265e-38 5
0.317479 0.174268 0.527267 9.63693e-39 5
0.325998 0.174268 0.527267 5.59001e-39 5
0.365264 0.190286 0.575729 5.40703e-39 5
0.387384 0.196797 0.595431 7.24303e-39 5
0.39852 0.197549 0.597704 1.06363e-38 5
0.416118 0.201392 0.609332 1.20902e-38 3
0.53663 0.253714 0.767639 1.20783e-38 3
0.571443 0.26407 0.798972 1.27223e-38 3
0.587349 0.265424 0.803069 1.28134e-38 3
0.588258 0.260089 0.786927 1.29045e-38 3
0.636136 0.275307 0.83297 1.38258e-38 3
0.671009 0.284383 0.860431 1.45622e-38 3
0.684912 0.284383 0.860431 1.41935e-38 3
0.702675 0.285954 0.865185 1.37321e-38 3
0.716654 0.285954 0.865185 1.42853e-38 3
0.77791 0.304457 0.921167 1.47448e-38 3
0.783575 0.300917 0.910456 1.33619e-38 3
0.798285 0.300917 0.910456 1.40995e-38 3
0.832353 0.308082 0.932133 1.4192e-38 3
0.857624 0.311793 0.943364 1.17964e-38 3
0.888931 0.317532 0.960726 1.16123e-38 3
0.877536 0.308082 0.932133 1.15201e-38 3
0.892596 0.308082 0.932133 1.05989e-38 3
0.699479 0.237421 0.718341 1.03234e-38 3
0.861204 0.287543 0.869991 9.58727e-39 3
0.750223 0.246465 0.745707 9.58799e-39 3
0.86063 0.278267 0.841927 7.65225e-39 3
0.801021 0.254964 0.771421 7.83664e-39 3
-0.283577 0.293448 0.846478 1.03227e-38 3
-0.274349 0.298285 0.860431 8.75642e-39 3
-0.361842 0.414412 1.19541 6.81816e-39 3
-0.287635 0.348 1.00384 4.51903e-39 3
-0.271416 0.348 1.00384 4.23956e-39 3
-0.247271 0.337192 0.972661 6.45837e-39 3
-0.225942 0.329018 0.949081 1.23823e-38 3
-0.210607 0.329018 0.949081 1.77221e-38 3
-0.198889 0.335111 0.966657 2.10296e-38 3
-0.18791 0.343595 0.991129 2.23135e-38 3
-0.172991 0.345783 0.997442 2.25894e-38 3
-0.15788 0.348 1.00384 2.2773e-38 3
-0.141661 0.348 1.00384 2.28645e-38 3
-0.123854 0.343595 0.991129 2.32319e-38 3
-0.102028 0.325077 0.937715 2.31404e-38 3
-0.0843513 0.315628 0.910456 2.26804e-38 3
-0.0676734 0.306712 0.884737 2.28655e-38 3
-0.052782 0.303285 0.874851 2.28659e-38 3
-0.0380096 0.298285 0.860431 2.28662e-38 3
-0.0239755 0.296655 0.855729 2.2773e-38 3
-0.010094 0.295043 0.851078 2.25882e-38 3
0.00365722 0.295043 0.851078 2.29559e-38 3
0.017697 0.299933 0.865185 2.34176e-38 3
0.0315021 0.298285 0.860431 1.63164e-38 3
0.0459089 0.3016 0.869991 1.31771e-38 3
0.0596344 0.299933 0.865185 1.28072e-38 3
0.0736135 0.299933 0.865185 1.26235e-38 3
0.091141 0.190484 0.549468 1.42827e-38 3
0.0996692 0.189818 0.547547 1.32685e-38 3
0.106652 0.186556 0.538139 1.40061e-38 3
0.115347 0.186556 0.538139 1.49298e-38 3
0.22197 0.157356 0.453908 1.95331e-38 3
0.231315 0.158737 0.45789 1.57586e-38 3
0.247394 0.164509 0.474541 1.46595e-38 3
0.281506 0.181565 0.523741 1.23751e-38 3
0.289002 0.18096 0.521995 8.7099e-39 3
0.296448 0.180359 0.520261 8.62096e-39 5
0.303844 0.179761 0.518538 1.01854e-38 5
0.311192 0.179168 0.516826 8.62493e-39 5
0.318492 0.178579 0.515126 6.04918e-39 5
0.331172 0.18096 0.521995 7.05864e-39 5
0.369137 0.196695 0.567386 8.70953e-39 5
0.378305 0.196695 0.567386 1.12709e-38 3
0.400533 0.203326 0.586511 1.24511e-38 3
0.526311 0.261 0.752877 1.15245e-38 3
0.551738 0.267428 0.771421 1.18925e-38 3
0.566995 0.268752 0.77524 1.2168e-38 3
0.57104 0.264819 0.763895 1.24428e-38 3
0.586243 0.266117 0.767639 1.30882e-38 3
0.629504 0.279835 0.807208 1.31797e-38 3
0.642546 0.279835 0.807208 1.30875e-38 3
0.66939 0.285726 0.824202 1.33641e-38 3
0.701159 0.293448 0.846478 1.38243e-38 3
0.78717 0.323142 0.932133 1.28091e-38 3
0.788157 0.317473 0.91578 1.24392e-38 3
0.812456 0.32123 0.926618 1.33612e-38 3
0.832353 0.323142 0.932133 1.35474e-38 3
0.765406 0.291871 0.841927 1.29953e-38 3
0.779009 0.291871 0.841927 1.24428e-38 3
0.673178 0.24789 0.715061 1.29038e-38 3
0.684731 0.24789 0.715061 1.12439e-38 3
0.69312 0.246763 0.711811 1.16141e-38 3
0.704621 0.246763 0.711811 1.06007e-38 3
0.729384 0.251333 0.724993 9.86386e-39 3
0.758659 0.257289 0.742173 8.85043e-39 3
0.770651 0.257289 0.742173 9.0341e-39 3
-0.290516 0.28696 0.790901 1.13354e-38 3
-0.279147 0.288417 0.794916 1.10588e-38 3
-0.273239 0.295928 0.815617 8.84754e-39 3
-0.26006 0.295928 0.815617 8.20361e-39 3
-0.260447 0.312188 0.860431 5.98912e-39 3
-0.283994 0.359609 0.991129 4.79417e-39 3
-0.26798 0.359609 0.991129 5.07183e-39 3
-0.244237 0.348578 0.960726 1.19134e-38 3
-0.224581 0.342278 0.943364 1.34011e-38 3
-0.209339 0.342278 0.943364 1.82742e-38 3
-0.197669 0.348578 0.960726 2.02938e-38 3
-0.185561 0.355114 0.97874 2.24975e-38 3
-0.169747 0.355114 0.97874 2.26808e-38 3
-0.154901 0.357347 0.984896 2.28642e-38 3
-0.138119 0.355114 0.97874 2.2956e-38 3
-0.119322 0.346452 0.954868 2.31407e-38 3
-0.0990619 0.330338 0.910456 2.28648e-38 3
-0.0824342 0.32283 0.889764 2.28656e-38 3
-0.0669173 0.31742 0.874851 2.29578e-38 3
-0.0521987 0.313913 0.865185 2.29578e-38 3
-0.0378019 0.310482 0.855729 2.31411e-38 3
-0.0235888 0.305474 0.841927 2.31418e-38 3
-0.00993207 0.30384 0.837425 2.32329e-38 3
0.00361789 0.305474 0.841927 2.32333e-38 3
0.0174084 0.308794 0.851078 2.31407e-38 3
0.0308246 0.305474 0.841927 2.30492e-38 3
0.0441904 0.30384 0.837425 2.32318e-38 3
0.0580313 0.305474 0.841927 2.35073e-38 3
0.0720219 0.307125 0.846478 2.05574e-38 3
0.0792714 0.284091 0.782992 1.28108e-38 3
0.07804 0.212008 0.584322 1.25321e-38 3
0.0917851 0.200771 0.553351 1.24424e-38 3
0.100371 0.200064 0.551403 1.18907e-38 3
0.107019 0.195925 0.539995 1.27186e-38 3
0.115347 0.195251 0.538139 1.26268e-38 3
0.221329 0.164214 0.452597 1.85179e-38 3
0.230641 0.165651 0.456555 1.56646e-38 3
0.246647 0.171656 0.473107 1.45662e-38 3
0.279636 0.188765 0.520261 1.36449e-38 3
0.288042 0.188765 0.520261 1.29106e-38 3
0.294491 0.187519 0.516826 1.23661e-38 3
0.300856 0.186289 0.513437 1.30222e-38 3
0.308141 0.18568 0.51176 8.98543e-39 3
0.31641 0.18568 0.51176 7.70654e-39 5
0.328979 0.18814 0.518538 9.16512e-39 5
0.339606 0.189394 0.521995 1.2002e-38 3
0.365077 0.198665 0.547547 1.30064e-38 3
0.376558 0.200064 0.551403 1.2356e-38 3
0.480143 0.249202 0.686835 1.15252e-38 3
0.546355 0.277162 0.763895 1.19854e-38 3
0.561437 0.27852 0.767639 1.20758e-38 3
0.565523 0.274484 0.756514 1.2167e-38 3
0.569493 0.270563 0.745707 1.13376e-38 3
0.573351 0.266752 0.735204 1.24425e-38 3
0.571807 0.260634 0.718341 1.21655e-38 3
0.58075 0.259444 0.715061 1.28109e-38 3
0.592303 0.259444 0.715061 1.38243e-38 3
0.606627 0.260634 0.718341 1.37318e-38 3
0.724596 0.305474 0.841927 1.48367e-38 3
0.666529 0.275816 0.760186 1.44679e-38 3
0.6596 0.26801 0.738672 1.29017e-38 3
0.63841 0.25479 0.702235 1.23499e-38 3
0.632733 0.248114 0.683836 1.29953e-38 3
0.640983 0.247035 0.680863 1.26276e-38 3
0.669447 0.253653 0.6991 1.23513e-38 3
0.683796 0.25479 0.702235 1.06003e-38 3
0.701433 0.257096 0.70859 1.04163e-38 3
0.722692 0.260634 0.718341 1.0233e-38 3
0.748024 0.265505 0.731768 1.0049e-38 3
-0.316074 0.299739 0.790901 1.23503e-38 3
-0.300262 0.296742 0.782992 1.15205e-38 3
-0.28618 0.295266 0.779097 1.10588e-38 3
-0.272238 0.293804 0.77524 1.03212e-38 3
-0.259712 0.293804 0.77524 9.40072e-39 3
-0.245968 0.292357 0.771421 7.55825e-39 3
-0.23236 0.290923 0.767639 5.52958e-39 3
-0.236164 0.31236 0.824202 4.60978e-39 3
-0.243338 0.341083 0.899991 9.22891e-39 3
-0.236968 0.353264 0.932133 1.33085e-38 3
-0.221907 0.353264 0.932133 1.58875e-38 3
-0.208085 0.35538 0.937715 1.90081e-38 3
-0.195273 0.359687 0.949081 2.02013e-38 3
-0.18327 0.366348 0.966657 2.27727e-38 3
-0.166623 0.364101 0.960726 2.28645e-38 3
-0.150179 0.36188 0.954868 2.30482e-38 3
-0.133127 0.35752 0.943364 2.32326e-38 3
-0.113773 0.345049 0.910456 2.2773e-38 3
-0.095188 0.331555 0.874851 2.28659e-38 3
-0.0797166 0.32609 0.860431 2.29578e-38 3
-0.0650989 0.322546 0.851078 2.29571e-38 3
-0.0513477 0.322546 0.851078 2.28649e-38 3
-0.0375964 0.322546 0.851078 2.28649e-38 3
-0.0232144 0.314013 0.828563 2.29563e-38 3
-0.00977525 0.31236 0.824202 2.29567e-38 3
0.00354172 0.31236 0.824202 2.29567e-38 3
0.0169479 0.314013 0.828563 2.29571e-38 3
0.0301757 0.31236 0.824202 2.305e-38 3
0.0423774 0.304351 0.803069 2.29578e-38 3
0.055353 0.304351 0.803069 2.30496e-38 3
0.0584388 0.2603 0.686835 2.30485e-38 3
0.0752328 0.213483 0.563304 2.35084e-38 3
0.0825526 0.208973 0.551403 1.34573e-38 3
0.0914619 0.208973 0.551403 1.25379e-38 3
0.0996692 0.207512 0.547547 1.34613e-38 3
0.106652 0.203946 0.538139 1.309e-38 3
0.220691 0.171033 0.451292 1.80555e-38 3
0.229304 0.172024 0.453908 1.57568e-38 3
0.30614 0.19269 0.508436 1.19858e-38 3
0.314355 0.19269 0.508436 1.22663e-38 3
0.324679 0.193949 0.51176 1.236e-38 3
0.337357 0.196518 0.518538 1.20823e-38 3
0.352744 0.200501 0.529049 1.30014e-38 3
0.362517 0.201181 0.530842 1.2356e-38 3
0.589489 0.31236 0.824202 1.18007e-38 3
0.558698 0.289504 0.763895 1.18925e-38 3
0.557444 0.282611 0.745707 1.14297e-38 3
0.561472 0.278631 0.735204 1.20751e-38 3
0.573351 0.278631 0.735204 1.17975e-38 3
0.554018 0.263771 0.695993 1.18893e-38 3
0.565263 0.263771 0.695993 1.16127e-38 3
0.579082 0.264948 0.6991 1.25339e-38 3
0.595697 0.267335 0.705398 1.37321e-38 3
0.607094 0.267335 0.705398 1.45608e-38 3
0.615718 0.266136 0.702235 1.46523e-38 3
0.627064 0.266136 0.702235 1.40998e-38 3
0.613644 0.255812 0.674993 1.24414e-38 3
0.619213 0.253626 0.669224 1.17967e-38 3
0.614275 0.247285 0.652493 1.08755e-38 3
0.649161 0.256919 0.677915 1.04163e-38 3
0.6688 0.2603 0.686835 1.03241e-38 3
0.688963 0.263771 0.695993 9.86314e-39 3
0.719392 0.270997 0.715061 9.86386e-39 3
-0.312913 0.309393 0.782992 1.14283e-38 3
-0.297289 0.30633 0.77524 1.18893e-38 3
-0.283361 0.304821 0.771421 1.17042e-38 3
-0.26312 0.29607 0.749275 1.069e-38 3
-0.245149 0.289152 0.731768 9.12378e-39 3
-0.23224 0.287807 0.728365 7.8334e-39 3
-0.216444 0.282551 0.715061 5.25264e-39 3
-0.226622 0.312518 0.790901 4.15024e-39 3
-0.219383 0.320615 0.811391 1.18201e-38 3
-0.228797 0.355624 0.899991 1.29448e-38 3
-0.211821 0.351583 0.889764 1.60712e-38 3
-0.200868 0.35768 0.905193 1.87337e-38 3
-0.184114 0.353592 0.894848 2.0479e-38 3
-0.18327 0.381967 0.966657 2.27727e-38 3
-0.169747 0.386741 0.97874 2.28649e-38 3
-0.153933 0.386741 0.97874 2.30475e-38 3
-0.133127 0.372763 0.943364 2.28645e-38 3
-0.110559 0.349597 0.884737 2.30503e-38 3
-0.0926013 0.336297 0.851078 2.29578e-38 3
-0.0780023 0.332681 0.841927 2.28649e-38 3
-0.0630431 0.325677 0.824202 2.28649e-38 3
-0.0497262 0.325677 0.824202 2.28649e-38 3
-0.0354756 0.317326 0.803069 2.29563e-38 3
-0.0222717 0.314105 0.794916 2.29567e-38 3
-0.00938029 0.312518 0.790901 2.32322e-38 3
0.00341588 0.314105 0.794916 2.28649e-38 3
0.0161775 0.312518 0.790901 2.29563e-38 3
0.0285243 0.307854 0.779097 2.29563e-38 3
0.0411125 0.307854 0.779097 2.29563e-38 3
0.0585029 0.228334 0.577854 2.30485e-38 3
0.0744296 0.220209 0.55729 2.29567e-38 3
0.0828444 0.218652 0.553351 2.32322e-38 3
0.0908223 0.216359 0.547547 2.26801e-38 3
0.0989771 0.214856 0.543745 2.28642e-38 3
0.10739 0.214113 0.541863 2.28649e-38 3
0.221329 0.17884 0.452597 1.80556e-38 3
0.230641 0.180404 0.456555 1.53895e-38 3
0.304165 0.199608 0.505156 1.36446e-38 3
0.313338 0.200254 0.506791 1.29092e-38 3
0.32257 0.200905 0.508436 1.30929e-38 3
0.335138 0.203548 0.515126 1.30921e-38 3
0.34804 0.206262 0.521995 1.30903e-38 3
0.357667 0.206952 0.523741 1.20773e-38 3
0.372356 0.210471 0.532648 1.20783e-38 3
0.558698 0.301847 0.763895 1.19851e-38 3
0.554802 0.293264 0.742173 1.17985e-38 3
0.558848 0.289152 0.731768 1.2168e-38 3
0.550107 0.278732 0.705398 1.2351e-38 3
0.539627 0.267873 0.677915 1.21659e-38 3
0.548208 0.266718 0.674993 1.20737e-38 3
0.559114 0.266718 0.674993 1.2073e-38 3
0.567573 0.265573 0.672096 1.15198e-38 3
0.57351 0.263313 0.666376 1.17027e-38 3
0.576912 0.259994 0.657977 1.17942e-38 3
0.587543 0.259994 0.657977 1.25318e-38 3
0.585866 0.254644 0.644438 1.28102e-38 3
0.591411 0.252566 0.639177 1.2073e-38 3
0.59446 0.249511 0.631445 1.09677e-38 3
0.599825 0.247514 0.626394 1.07855e-38 3
0.648878 0.263313 0.666376 1.06018e-38 3
0.659645 0.263313 0.666376 1.00486e-38 3
-0.322341 0.318856 0.77524 1.13361e-38 3
-0.300878 0.309658 0.752877 1.13361e-38 3
-0.281936 0.302389 0.735204 1.18893e-38 3
-0.268796 0.300976 0.731768 1.15205e-38 3
-0.253419 0.296815 0.721652 1.04142e-38 3
-0.238463 0.292767 0.711811 9.40036e-39 3
-0.224917 0.29013 0.705398 7.2813e-39 3
-0.211613 0.287539 0.6991 5.53066e-39 3
-0.0979233 0.370166 0.899991 2.29567e-38 3
-0.0780023 0.346284 0.841927 2.28645e-38 3
-0.0604959 0.325297 0.790901 2.2956e-38 3
-0.0465417 0.317285 0.771421 2.28649e-38 3
-0.0327855 0.305255 0.742173 2.28645e-38 3
-0.0214025 0.314189 0.763895 2.30489e-38 3
-0.00888659 0.308176 0.749275 2.30492e-38 3
0.00321975 0.308176 0.749275 2.30489e-38 3
0.0151092 0.303815 0.738672 2.28645e-38 3
0.0270442 0.303815 0.738672 2.28645e-38 3
0.0570298 0.231686 0.563304 2.28645e-38 3
0.0656589 0.230032 0.55928 2.28645e-38 3
0.0744296 0.229213 0.55729 2.28645e-38 3
0.083434 0.229213 0.55729 2.28645e-38 3
0.0908223 0.225206 0.547547 2.28645e-38 3
0.099322 0.224421 0.545639 2.28645e-38 3
0.222615 0.187235 0.455228 1.6677e-38 3
0.231315 0.18833 0.45789 1.55753e-38 3
0.303187 0.207102 0.503532 1.29981e-38 3
0.332947 0.210486 0.51176 1.28148e-38 3
0.342335 0.211177 0.513437 1.28148e-38 3
0.352945 0.21257 0.516826 1.23542e-38 3
0.367358 0.216137 0.525498 1.18932e-38 3
0.383571 0.220578 0.536296 1.18007e-38 3
0.400465 0.225206 0.547547 1.18003e-38 3
0.534535 0.294104 0.715061 1.18914e-38 3
0.546089 0.294104 0.715061 1.24439e-38 3
0.521896 0.275251 0.669224 1.29963e-38 3
0.525966 0.271767 0.660753 1.31807e-38 3
0.519119 0.262893 0.639177 1.35481e-38 3
0.533804 0.265057 0.644438 1.4469e-38 3
0.544217 0.265057 0.644438 1.42853e-38 3
0.550101 0.262893 0.639177 1.41009e-38 3
0.555891 0.260765 0.634002 1.36392e-38 3
0.568436 0.261825 0.636579 1.27173e-38 3
0.564943 0.255591 0.621422 1.26251e-38 3
0.574983 0.255591 0.621422 1.26258e-38 3
0.556324 0.243052 0.590937 1.14287e-38 3
0.565872 0.243052 0.590937 9.95462e-39 3
0.57542 0.243052 0.590937 1.00475e-38 3
-0.331584 0.328133 0.767639 1.04145e-38 3
-0.319181 0.328133 0.767639 1.05989e-38 3
-0.295201 0.31575 0.738672 1.04145e-38 3
-0.276739 0.308475 0.721652 1.15205e-38 3
-0.265079 0.308475 0.721652 1.08759e-38 3
-0.251105 0.305658 0.715061 1.06911e-38 3
-0.233164 0.297507 0.695993 9.30888e-39 3
-0.218998 0.293592 0.686835 7.00615e-39 3
-0.0979233 0.384707 0.899991 2.34152e-38 3
-0.0780023 0.359887 0.841927 2.314e-38 3
-0.0630431 0.352311 0.824202 2.32319e-38 3
-0.0083662 0.301527 0.705398 2.30496e-38 3
0.00311541 0.309903 0.724993 2.30492e-38 3
0.0158572 0.331381 0.77524 2.28645e-38 3
0.050331 0.212505 0.497138 2.28645e-38 3
0.0583635 0.212505 0.497138 2.28645e-38 3
0.087754 0.226145 0.529049 2.28645e-38 3
0.222615 0.19459 0.455228 1.56646e-38 3
0.231315 0.195728 0.45789 1.51165e-38 3
0.242256 0.198632 0.464684 1.57619e-38 3
0.303187 0.215238 0.503532 1.29992e-38 3
0.340105 0.218043 0.510093 1.29981e-38 3
0.350631 0.219472 0.513437 1.26297e-38 3
0.364909 0.22313 0.521995 1.21687e-38 3
0.377114 0.225384 0.527267 1.25372e-38 3
0.386936 0.226145 0.529049 1.2445e-38 3
0.486549 0.26669 0.623898 1.17985e-38 3
0.498616 0.267756 0.626394 1.19822e-38 3
0.504699 0.265631 0.621422 1.189e-38 3
0.518858 0.267756 0.626394 1.24428e-38 3
0.531103 0.268832 0.628909 1.3641e-38 3
0.543447 0.269916 0.631445 1.42864e-38 3
0.566135 0.271008 0.634002 1.28102e-38 3
0.558296 0.262506 0.614111 1.25339e-38 3
0.553037 0.255493 0.597704 1.22577e-38 3
0.554233 0.251651 0.588716 1.2074e-38 3
0.563745 0.251651 0.588716 1.12454e-38 3
0.57542 0.2526 0.590937 1.00475e-38 3
-0.339002 0.3356 0.756514 1.06915e-38 3
-0.317573 0.326147 0.735204 1.17978e-38 3
-0.305694 0.326147 0.735204 1.13368e-38 3
-0.28318 0.314341 0.70859 1.11524e-38 3
-0.2669 0.308752 0.695993 1.08755e-38 3
-0.254523 0.307386 0.692913 1.04145e-38 3
-0.244409 0.308752 0.695993 9.3096e-39 3
-0.0559471 0.175872 0.396452 2.33239e-38 3
-0.0489222 0.173673 0.391496 2.3508e-38 3
-0.0232137 0.170686 0.384763 2.34148e-38 3
-0.0169969 0.170686 0.384763 2.35073e-38 3
-0.0108067 0.171107 0.38571 2.28637e-38 3
-0.00457462 0.171107 0.38571 2.2958e-38 3
0.0139268 0.30204 0.680863 2.28649e-38 3
0.0249277 0.30204 0.680863 2.28645e-38 3
0.048933 0.214411 0.483328 2.28645e-38 3
0.056918 0.215075 0.484825 2.28645e-38 3
0.0647515 0.215075 0.484825 2.28645e-38 3
0.0721383 0.213752 0.481841 2.28645e-38 3
0.0794348 0.212444 0.478894 2.28645e-38 3
0.0877089 0.213752 0.481841 2.28645e-38 3
0.0954942 0.213752 0.481841 2.28645e-38 3
0.104242 0.215743 0.48633 2.28645e-38 3
0.110049 0.211797 0.477434 2.28645e-38 3
0.117405 0.211153 0.475983 2.28645e-38 3
0.12434 0.209877 0.473107 2.28645e-38 3
0.132786 0.211153 0.475983 2.2956e-38 3
0.221329 0.200778 0.452597 1.37321e-38 3
0.231315 0.203127 0.45789 1.36414e-38 3
0.241539 0.20553 0.463309 1.34573e-38 3
0.303187 0.223374 0.503532 1.18007e-38 3
0.341216 0.227024 0.51176 1.21684e-38 3
0.352945 0.229272 0.516826 1.19833e-38 3
0.364909 0.231564 0.521995 1.19833e-38 3
0.375848 0.233118 0.525498 1.27208e-38 3
0.384339 0.233118 0.525498 1.18911e-38 3
0.395484 0.234694 0.529049 1.18911e-38 3
0.467162 0.271364 0.611713 1.18911e-38 3
0.469707 0.26719 0.602302 1.11535e-38 3
0.473969 0.264142 0.595431 1.10613e-38 3
0.491059 0.268221 0.604627 1.13379e-38 3
0.506697 0.271364 0.611713 1.09691e-38 3
0.516581 0.271364 0.611713 1.22599e-38 3
0.524416 0.270309 0.609332 1.31807e-38 3
0.534261 0.270309 0.609332 1.33648e-38 3
0.531215 0.259214 0.584322 1.24428e-38 3
0.530754 0.254466 0.573621 1.22584e-38 3
0.542007 0.255402 0.575729 1.09688e-38 3
0.557458 0.25825 0.58215 1.1061e-38 3
-0.316096 0.324322 0.705398 1.08755e-38 3
-0.304699 0.324322 0.705398 1.07837e-38 3
-0.289391 0.319998 0.695993 1.01383e-38 3
-0.273287 0.314408 0.683836 1.07847e-38 3
-0.262238 0.314408 0.683836 1.17053e-38 3
-0.250097 0.313041 0.680863 1.12439e-38 3
-0.0913736 0.176469 0.38382 1.22998e-38 3
-0.0815696 0.182277 0.396452 1.79072e-38 3
-0.075164 0.182277 0.396452 1.93751e-38 3
-0.0231568 0.176469 0.38382 2.23137e-38 3
-0.0169138 0.176038 0.382881 2.23137e-38 3
-0.0107274 0.176038 0.382881 2.22211e-38 3
-0.00451897 0.175181 0.381018 2.27733e-38 3
0.0161504 0.202816 0.441122 2.28645e-38 3
0.0234096 0.203965 0.443622 2.2773e-38 3
0.0310167 0.206895 0.449995 2.28645e-38 3
0.0378524 0.204544 0.444882 2.28645e-38 3
0.0458216 0.208091 0.452597 2.28645e-38 3
0.0539135 0.211142 0.459233 2.28645e-38 3
0.0631865 0.217521 0.473107 2.28645e-38 3
0.0701945 0.215567 0.468858 2.28645e-38 3
0.0770777 0.213648 0.464684 2.28645e-38 3
0.0866426 0.218844 0.475983 2.28645e-38 3
0.092921 0.215567 0.468858 2.28645e-38 3
0.0998984 0.214284 0.466067 2.28645e-38 3
0.107749 0.214924 0.467458 2.28645e-38 3
0.114618 0.213648 0.464684 2.28645e-38 3
0.120694 0.211142 0.459233 2.2773e-38 3
0.131587 0.216866 0.471682 2.28645e-38 3
0.133575 0.208091 0.452597 2.2956e-38 3
0.140482 0.207491 0.451292 2.2773e-38 3
0.148201 0.208091 0.452597 2.2773e-38 3
0.154177 0.206302 0.448706 2.30475e-38 3
0.16189 0.206895 0.449995 2.14859e-38 3
0.166765 0.203965 0.443622 2.24071e-38 3
0.181581 0.19672 0.427865 1.94477e-38 3
0.187981 0.196184 0.426699 1.74127e-38 3
0.217556 0.204544 0.444882 1.32715e-38 3
0.229971 0.209301 0.455228 1.34566e-38 3
0.239414 0.211142 0.459233 1.33655e-38 3
0.252007 0.215567 0.468858 1.29978e-38 3
0.273503 0.227128 0.494001 1.2813e-38 3
0.283272 0.22857 0.497138 1.25372e-38 3
0.292233 0.229298 0.498721 1.21695e-38 3
0.302216 0.230768 0.501918 1.17085e-38 3
0.311323 0.23151 0.503532 1.22606e-38 3
0.324679 0.235293 0.51176 1.2813e-38 3
0.332947 0.235293 0.51176 1.25372e-38 3
0.341216 0.235293 0.51176 1.25372e-38 3
0.352945 0.237622 0.516826 1.24443e-38 3
0.364909 0.239998 0.521995 1.23524e-38 3
0.374591 0.240801 0.523741 1.16145e-38 3
0.383054 0.240801 0.523741 1.17989e-38 3
0.39283 0.241609 0.525498 1.18907e-38 3
0.456464 0.274807 0.597704 1.17067e-38 3
0.457392 0.269661 0.586511 1.1062e-38 3
0.466869 0.269661 0.586511 1.15223e-38 3
0.478136 0.270675 0.588716 1.14301e-38 3
0.48221 0.267656 0.58215 1.11535e-38 3
0.471241 0.251747 0.547547 1.06003e-38 3
0.480088 0.251747 0.547547 1.22599e-38 3
0.485539 0.249998 0.543745 1.19829e-38 3
0.510271 0.258063 0.561285 1.17975e-38 3
0.513815 0.255317 0.555314 1.14283e-38 3
0.530309 0.258991 0.563304 1.06922e-38 3
-0.313274 0.332722 0.6991 1.12446e-38 3
-0.299306 0.329778 0.692913 1.05993e-38 3
-0.284336 0.325457 0.683836 1.11524e-38 3
-0.270921 0.32264 0.677915 1.1061e-38 3
-0.259967 0.32264 0.677915 1.05985e-38 3
-0.102769 0.180897 0.380093 1.09078e-38 3
-0.0952408 0.178301 0.374637 1.14693e-38 3
-0.0883423 0.176611 0.371086 1.21161e-38 3
-0.0845504 0.181338 0.381018 1.41401e-38 3
-0.0167906 0.180897 0.380093 2.16697e-38 3
-0.0106493 0.180897 0.380093 2.21293e-38 3
-0.00447542 0.17959 0.377346 2.29573e-38 3
0.00787015 0.18312 0.384763 2.30489e-38 3
0.0140869 0.18312 0.384763 2.28645e-38 3
0.0229545 0.207027 0.434996 2.28645e-38 3
0.0299829 0.207027 0.434996 2.28645e-38 3
0.0365043 0.204191 0.429037 2.28645e-38 3
0.0434364 0.204191 0.429037 2.28645e-38 3
0.0507859 0.205883 0.432592 2.28645e-38 3
0.0577755 0.205883 0.432592 2.28645e-38 3
0.0838394 0.219205 0.460584 2.28645e-38 3
0.0912813 0.219205 0.460584 2.28645e-38 3
0.0981458 0.217923 0.45789 2.28645e-38 3
0.118949 0.215404 0.452597 2.2773e-38 3
0.126262 0.215404 0.452597 2.28645e-38 3
0.132049 0.212942 0.447424 2.28645e-38 3
0.137704 0.210536 0.442368 2.25894e-38 3
0.145675 0.211732 0.444882 2.23146e-38 3
0.151145 0.209353 0.439883 2.27727e-38 3
0.158252 0.209353 0.439883 2.07512e-38 3
0.164436 0.208184 0.437426 1.91904e-38 3
0.17139 0.199812 0.419835 1.91708e-38 3
0.178174 0.199812 0.419835 1.77854e-38 3
0.185454 0.200349 0.420963 1.64915e-38 3
0.192256 0.200349 0.420963 1.52969e-38 3
0.205693 0.207027 0.434996 1.4008e-38 3
0.21391 0.208184 0.437426 1.38257e-38 3
0.229971 0.216656 0.455228 1.42871e-38 3
0.238714 0.217923 0.45789 1.47481e-38 3
0.252007 0.223143 0.468858 1.53016e-38 3
0.274369 0.235854 0.495565 1.35506e-38 3
0.283272 0.236602 0.497138 1.29974e-38 3
0.292233 0.237356 0.498721 1.26294e-38 3
0.30125 0.238114 0.500314 1.25372e-38 3
0.310325 0.238877 0.501918 1.29974e-38 3
0.324679 0.243561 0.51176 1.39194e-38 3
0.332947 0.243561 0.51176 1.34591e-38 3
0.341216 0.243561 0.51176 1.25364e-38 3
0.352945 0.245973 0.516826 1.22599e-38 3
0.364909 0.248432 0.521995 1.29042e-38 3
0.374591 0.249263 0.523741 1.27198e-38 3
0.381777 0.248432 0.521995 1.2351e-38 3
0.391516 0.249263 0.523741 1.2351e-38 3
0.4496 0.280187 0.588716 1.29041e-38 3
0.453992 0.277062 0.58215 1.17067e-38 3
0.450014 0.26906 0.565337 1.16145e-38 3
0.457497 0.268093 0.563304 1.14301e-38 3
0.445268 0.250942 0.527267 1.10613e-38 3
0.452265 0.2501 0.525498 1.06925e-38 3
0.460755 0.2501 0.525498 1.06003e-38 3
0.470826 0.250942 0.527267 9.03266e-39 3
0.482595 0.252643 0.530842 9.49256e-39 3
0.491172 0.252643 0.530842 1.05078e-38 3
-0.295385 0.336506 0.683836 9.67802e-39 3
-0.284336 0.336506 0.683836 9.49291e-39 3
-0.116752 0.189803 0.38571 9.03337e-39 3
-0.108384 0.186135 0.378257 9.31463e-39 3
-0.101294 0.184354 0.374637 1.10822e-38 3
-0.0879256 0.181745 0.369336 1.22987e-38 3
-0.0819581 0.181745 0.369336 1.25774e-38 3
-0.0166693 0.185687 0.377346 2.34169e-38 3
-0.0105979 0.186135 0.378257 2.34169e-38 3
0.00163729 0.187494 0.381018 2.33254e-38 3
0.00779356 0.187494 0.381018 2.31407e-38 3
0.013916 0.187039 0.380093 2.28645e-38 3
0.0196285 0.18304 0.371968 2.29563e-38 3
0.0361085 0.208835 0.424386 2.29567e-38 3
0.0425048 0.206595 0.419835 2.28645e-38 3
0.0494207 0.20715 0.420963 2.2773e-38 3
0.0566795 0.208835 0.424386 2.28645e-38 3
0.0662287 0.217684 0.442368 2.28645e-38 3
0.0819121 0.221437 0.449995 2.28645e-38 3
0.0924679 0.212286 0.431401 2.28645e-38 3
0.0997129 0.212873 0.432592 2.28645e-38 3
0.110361 0.220171 0.447424 2.28645e-38 3
0.115284 0.215854 0.438651 2.28645e-38 3
0.134661 0.212873 0.432592 2.21302e-38 3
0.137843 0.20715 0.420963 2.21302e-38 3
0.143105 0.204947 0.416485 2.22224e-38 3
0.162171 0.212286 0.431401 1.72615e-38 3
0.167352 0.201728 0.409943 1.61324e-38 3
0.176283 0.204403 0.41538 1.55746e-38 3
0.183481 0.204947 0.416485 1.631e-38 3
0.189706 0.204403 0.41538 1.56657e-38 3
0.20177 0.209973 0.426699 1.47455e-38 3
0.211546 0.212873 0.432592 1.43786e-38 3
0.241539 0.227988 0.463309 1.4102e-38 3
0.255062 0.233515 0.474541 1.41945e-38 3
0.276116 0.245414 0.498721 1.38257e-38 3
0.283272 0.244635 0.497138 1.34573e-38 3
0.291305 0.244635 0.497138 1.29956e-38 3
0.300291 0.245414 0.498721 1.29963e-38 3
0.309334 0.246198 0.500314 1.30885e-38 3
0.323621 0.25101 0.510093 1.2812e-38 3
0.331863 0.25101 0.510093 1.2813e-38 3
0.340105 0.25101 0.510093 1.2813e-38 3
0.352945 0.254323 0.516826 1.31804e-38 3
0.364909 0.256867 0.521995 1.30885e-38 3
0.374591 0.257726 0.523741 1.28112e-38 3
0.381777 0.256867 0.521995 1.29956e-38 3
0.441304 0.284354 0.577854 1.21662e-38 3
0.439294 0.277194 0.563304 1.18896e-38 3
0.42823 0.259461 0.527267 1.25357e-38 3
0.435283 0.25859 0.525498 1.22595e-38 3
0.435015 0.253487 0.515126 1.20755e-38 3
0.441885 0.252656 0.513437 1.15227e-38 3
0.450181 0.252656 0.513437 1.11542e-38 3
0.458476 0.252656 0.513437 9.86422e-39 3
0.465247 0.25183 0.51176 8.57276e-39 3
0.473516 0.25183 0.51176 9.03374e-39 3
-0.302471 0.343061 0.674993 9.12448e-39 3
-0.115613 0.194122 0.381947 9.77273e-39 3
-0.107347 0.190407 0.374637 8.11573e-39 3
-0.100572 0.18905 0.371968 1.02463e-38 3
-0.0875128 0.186831 0.367602 1.08221e-38 3
-0.0815733 0.186831 0.367602 1.09194e-38 3
0.00161761 0.191323 0.376438 2.33247e-38 3
0.00769989 0.191323 0.376438 2.35084e-38 3
0.0137822 0.191323 0.376438 2.28645e-38 3
0.0194438 0.187271 0.368467 2.29563e-38 3
0.0251019 0.185093 0.364182 2.31404e-38 3
0.0425048 0.213379 0.419835 2.28645e-38 3
0.0494207 0.213952 0.420963 2.27727e-38 3
0.0949897 0.209448 0.412101 2.28645e-38 3
0.10273 0.211676 0.416485 2.28645e-38 3
0.109459 0.211676 0.416485 2.28645e-38 3
0.116188 0.211676 0.416485 2.28645e-38 3
0.146075 0.197494 0.388582 1.63435e-38 5
0.150118 0.194597 0.382881 1.44109e-38 3
0.158632 0.197494 0.388582 1.62293e-38 3
0.171285 0.205129 0.403604 1.62225e-38 3
0.178728 0.206192 0.405695 1.62192e-38 3
0.183854 0.204602 0.402567 1.62189e-38 3
0.195898 0.210556 0.414282 1.64962e-38 3
0.206414 0.214529 0.422098 1.6221e-38 3
0.216147 0.21746 0.427865 1.50225e-38 3
0.239414 0.233402 0.459233 1.45626e-38 3
0.258191 0.244142 0.480363 1.41016e-38 3
0.276999 0.254282 0.500314 1.3641e-38 3
0.283272 0.252667 0.497138 1.39176e-38 3
0.291305 0.252667 0.497138 1.43778e-38 3
0.300291 0.253472 0.498721 1.39176e-38 3
0.309334 0.254282 0.500314 1.4102e-38 3
0.324679 0.260099 0.51176 1.5209e-38 3
0.331863 0.259251 0.510093 1.48413e-38 3
0.341216 0.260099 0.51176 1.39183e-38 3
0.35529 0.264419 0.520261 1.33648e-38 3
0.364909 0.265301 0.521995 1.35488e-38 3
0.374591 0.266188 0.523741 1.30875e-38 3
0.380508 0.264419 0.520261 1.25343e-38 3
0.390211 0.265301 0.521995 1.30875e-38 3
0.431745 0.287329 0.565337 1.34562e-38 3
0.399097 0.260099 0.51176 1.33641e-38 3
0.404721 0.25841 0.508436 1.21659e-38 3
0.406339 0.254282 0.500314 1.189e-38 3
0.415751 0.255097 0.501918 1.08769e-38 3
0.426596 0.256743 0.505156 1.17992e-38 3
0.436165 0.257573 0.506791 1.13386e-38 3
0.444353 0.257573 0.506791 1.12471e-38 3
0.452541 0.257573 0.506791 1.06025e-38 3
0.46073 0.257573 0.506791 1.03256e-38 3
-0.0993918 0.192771 0.367602 1.00569e-38 3
-0.0934523 0.192771 0.367602 1.08063e-38 3
-0.0869008 0.191423 0.365031 1.0082e-38 3
-0.0813823 0.192319 0.366741 9.99883e-39 3
0.0245873 0.187062 0.356716 2.25886e-38 3
0.133819 0.19506 0.371968 1.66193e-38 5
0.13884 0.19368 0.369336 1.57917e-38 5
0.144467 0.193225 0.368467 1.45031e-38 3
0.166982 0.206333 0.393463 1.59459e-38 3
0.173339 0.206333 0.393463 1.74189e-38 3
0.178798 0.205301 0.391496 1.88933e-38 3
0.190358 0.211106 0.402567 1.83405e-38 3
0.202592 0.21725 0.414282 1.8249e-38 3
0.212091 0.220162 0.419835 1.71433e-38 3
0.268915 0.262366 0.500314 1.51147e-38 3
0.276999 0.262366 0.500314 1.48377e-38 3
0.283272 0.2607 0.497138 1.36403e-38 3
0.292233 0.26153 0.498721 1.45622e-38 3
0.30125 0.262366 0.500314 1.61296e-38 3
0.310325 0.263206 0.501918 1.69593e-38 3
0.325743 0.269247 0.513437 1.65913e-38 3
0.332947 0.268367 0.51176 1.50239e-38 3
0.342335 0.269247 0.513437 1.40098e-38 3
0.35529 0.272825 0.520261 1.40098e-38 3
0.363696 0.272825 0.520261 1.40087e-38 3
0.373343 0.273735 0.521995 1.54845e-38 3
0.367093 0.263206 0.501918 1.53002e-38 3
0.374004 0.262366 0.500314 1.42867e-38 3
0.37846 0.259875 0.495565 1.33648e-38 3
0.379266 0.255032 0.48633 1.35492e-38 3
0.391994 0.25824 0.492448 1.29956e-38 3
0.39995 0.25824 0.492448 1.31807e-38 3
0.409194 0.259055 0.494001 1.2812e-38 3
0.422507 0.262366 0.500314 1.20744e-38 3
0.430591 0.262366 0.500314 1.14301e-38 3
0.438674 0.262366 0.500314 1.08776e-38 3
0.446758 0.262366 0.500314 1.06018e-38 3
-0.105828 0.199648 0.369336 1.01412e-38 3
-0.0975597 0.195048 0.360826 9.77633e-39 3
-0.0917297 0.195048 0.360826 9.69204e-39 3
0.131939 0.198245 0.366741 1.57024e-38 5
0.137542 0.197782 0.365884 1.56091e-38 5
0.143454 0.197782 0.365884 1.48737e-38 5
0.149366 0.197782 0.365884 1.5133e-38 3
0.156007 0.19871 0.367602 1.51183e-38 3
0.17359 0.205463 0.380093 2.07372e-38 3
0.202592 0.223943 0.414282 1.90777e-38 3
0.212091 0.226945 0.419835 1.84319e-38 3
0.231275 0.239804 0.443622 1.81557e-38 3
0.267207 0.268732 0.497138 1.67738e-38 3
0.276999 0.270449 0.500314 1.55757e-38 3
0.283272 0.268732 0.497138 1.49303e-38 3
0.292233 0.269588 0.498721 1.61288e-38 3
0.30125 0.270449 0.500314 1.64983e-38 3
0.309334 0.270449 0.500314 1.62225e-38 3
0.320489 0.273067 0.505156 1.51161e-38 3
0.328651 0.273067 0.505156 1.41945e-38 3
0.340105 0.275735 0.510093 1.37332e-38 3
0.348347 0.275735 0.510093 1.41023e-38 3
0.356588 0.275735 0.510093 1.45622e-38 3
0.362469 0.27395 0.506791 1.51158e-38 3
0.370453 0.267882 0.495565 1.46555e-38 3
0.374901 0.265363 0.490904 1.39179e-38 3
0.374613 0.259665 0.480363 1.33648e-38 3
0.383551 0.260464 0.481841 1.36414e-38 3
0.393759 0.262076 0.484825 1.30885e-38 3
0.399121 0.260464 0.481841 1.27198e-38 3
0.41456 0.265363 0.490904 1.26276e-38 3
0.419859 0.263709 0.487846 1.27208e-38 3
0.426413 0.26289 0.48633 1.18918e-38 3
-0.221473 0.296534 0.532648 1.37343e-38 3
-0.105331 0.20465 0.367602 1.13401e-38 3
-0.0955776 0.196797 0.353495 1.13408e-38 3
-0.0900694 0.197242 0.354295 1.04235e-38 3
-0.0830299 0.194167 0.348772 1.04278e-38 3
0.132872 0.205615 0.369336 1.42298e-38 5
0.137864 0.204171 0.366741 1.48737e-38 5
0.149366 0.203694 0.365884 1.6056e-38 3
0.155278 0.203694 0.365884 1.63175e-38 3
0.161567 0.204171 0.366741 1.68664e-38 3
0.166324 0.202746 0.364182 1.79709e-38 3
0.171411 0.201808 0.362496 1.84319e-38 3
0.182281 0.200878 0.360826 1.88918e-38 3
0.275066 0.284905 0.51176 1.63114e-38 3
0.276116 0.277646 0.498721 1.64962e-38 3
0.284175 0.277646 0.498721 1.59441e-38 3
0.292233 0.277646 0.498721 1.53906e-38 3
0.30125 0.278533 0.500314 1.52069e-38 3
0.30737 0.276765 0.497138 1.49317e-38 3
0.316407 0.277646 0.498721 1.43789e-38 3
0.323435 0.276765 0.497138 1.50243e-38 3
0.333585 0.278533 0.500314 1.53931e-38 3
0.342764 0.279426 0.501918 1.44708e-38 3
0.349753 0.278533 0.500314 1.48392e-38 3
0.351106 0.273294 0.490904 1.53002e-38 3
0.361303 0.275018 0.494001 1.46548e-38 3
0.362425 0.26991 0.484825 1.41027e-38 3
0.36798 0.268249 0.481841 1.33648e-38 3
0.370072 0.264184 0.474541 1.29038e-38 3
0.377739 0.264184 0.474541 1.35492e-38 3
0.387757 0.265795 0.477434 1.35495e-38 3
0.393074 0.264184 0.474541 1.29963e-38 3
0.397131 0.261804 0.470266 1.2812e-38 3
0.404729 0.261804 0.470266 1.19833e-38 3
