# .PCD v0.7 - Point Cloud Data file format
VERSION 0.7
FIELDS x y z rgb label
SIZE 4 4 4 4 4
TYPE F F F F U
COUNT 1 1 1 1 1
WIDTH 1924
HEIGHT 1
VIEWPOINT 0 0 0 1 0 0 0
POINTS 1924
DATA ascii
0.766434 -0.601227 2.74734 3.13537e-39 1
0.825303 -0.611963 2.7964 3.22757e-39 1
0.870486 -0.611963 2.7964 3.41124e-39 1
0.75322 -0.547236 2.69997 3.04317e-39 1
0.840309 -0.577086 2.84724 3.59635e-39 1
0.886313 -0.577086 2.84724 3.68783e-39 1
4.17577 -0.705327 3.47996 5.5321e-39 1
4.232 -0.705327 3.47996 6.27002e-39 1
0.766434 -0.512447 2.74734 3.13537e-39 1
0.810824 -0.512447 2.74734 3.31976e-39 1
0.855214 -0.512447 2.74734 3.41124e-39 1
4.57123 -0.730237 3.91496 5.62429e-39 1
4.31115 -0.67929 3.64182 5.6243e-39 1
4.27067 -0.663852 3.55905 5.53174e-39 1
4.32818 -0.663852 3.55905 5.71685e-39 1
0.766434 -0.468057 2.74734 3.68819e-39 1
0.810824 -0.468057 2.74734 2.95026e-39 1
0.919759 -0.503382 2.95469 3.68783e-39 1
1.06828 -0.555818 3.26247 3.22685e-39 1
4.57123 -0.666981 3.91496 5.99308e-39 1
4.31115 -0.620448 3.64182 6.26967e-39 1
4.36999 -0.620448 3.64182 5.34771e-39 1
4.42883 -0.620448 3.64182 5.25551e-39 1
0.75322 -0.416363 2.69997 3.13501e-39 1
0.840309 -0.439073 2.84724 3.59491e-39 1
1.10789 -0.548842 3.55905 3.87186e-39 1
1.22089 -0.574977 3.72853 3.41124e-39 1
4.21317 -0.548842 3.55905 5.62465e-39 1
3.6845 -0.47351 3.07056 4.6105e-39 1
4.14 -0.524979 3.40431 4.42575e-39 1
0.728113 -0.360314 2.60997 3.68783e-39 1
0.888788 -0.415746 3.01151 3.9637e-39 1
5.00582 -0.635847 4.60584 6.91646e-39 1
4.49381 -0.554329 4.01534 6.45549e-39 1
4.02999 -0.469974 3.40431 5.62465e-39 1
3.75819 -0.432376 3.13197 4.79489e-39 1
0.716176 -0.312928 2.56719 2.76587e-39 1
0.85587 -0.353492 2.89997 2.94918e-39 1
4.59995 -0.515908 4.23239 5.99451e-39 1
4.66833 -0.515908 4.23239 5.71864e-39 1
4.49381 -0.489451 4.01534 5.90267e-39 1
0.967499 -0.312422 2.95469 2.11978e-39 1
0.978321 -0.301061 2.84724 2.85735e-39 1
0.954879 -0.28065 2.65421 2.58148e-39 1
4.36405 -0.424573 4.01534 1.0422e-38 3
4.42893 -0.424573 4.01534 9.68269e-39 3
4.17282 -0.394247 3.72853 9.49829e-39 3
0.967499 -0.264682 2.95469 1.93611e-39 1
0.978321 -0.255057 2.84724 2.85807e-39 1
0.923572 -0.229969 2.56719 2.67368e-39 1
4.11258 -0.334003 3.72853 1.4201e-38 3
3.80997 -0.304959 3.40431 1.33712e-38 3
0.978321 -0.209053 2.84724 3.04282e-39 3
0.923572 -0.18849 2.56719 2.02867e-39 3
4.11258 -0.27376 3.72853 1.00518e-38 3
4.73671 -0.24237 4.23239 7.93024e-39 3
4.55868 -0.229941 4.01534 7.74621e-39 3
-0.685883 -0.0129907 1.47734 3.04355e-39 3
-0.0812504 -0.0255002 2.89997 4.05697e-39 3
-0.0154775 -0.0114751 1.30499 3.87294e-39 3
0.00634837 -0.0129907 1.47734 3.68927e-39 3
0.0533859 -0.0229502 2.60997 3.78146e-39 3
0.130304 -0.0312957 3.55905 3.78146e-39 3
0.337307 -0.0430316 4.8937 4.33391e-39 3
0.416377 -0.0430316 4.8937 3.96478e-39 3
0.10295 -0.00894162 1.01687 3.5038e-39 3
0.120951 -0.00905928 1.03025 3.78074e-39 3
0.137597 -0.00905928 1.03025 3.96369e-39 3
0.162812 -0.00956257 1.08749 3.50343e-39 3
0.185537 -0.00983579 1.11856 4.05697e-39 3
0.206561 -0.00997833 1.13477 4.05697e-39 3
0.243231 -0.00997833 1.13477 3.87222e-39 3
0.261566 -0.00997833 1.13477 4.14881e-39 3
0.284017 -0.0101251 1.15146 3.78002e-39 3
0.293975 -0.00983579 1.11856 4.42395e-39 3
0.312048 -0.00983579 1.11856 3.7793e-39 3
0.355515 -0.0105924 1.2046 4.24028e-39 3
0.374978 -0.0105924 1.2046 4.1488e-39 3
0.400605 -0.0107579 1.22343 3.87078e-39 3
0.599339 -0.014649 1.66594 4.05624e-39 3
0.65409 -0.0153001 1.73998 4.42574e-39 3
0.697708 -0.0156478 1.77953 4.60834e-39 3
0.710317 -0.0153001 1.73998 5.06932e-39 3
0.738431 -0.0153001 1.73998 4.51687e-39 3
0.766544 -0.0153001 1.73998 4.42539e-39 3
-1.76736 0.0262094 3.55905 4.24173e-39 3
-0.874812 0.0134095 1.82091 3.5038e-39 3
-0.685883 0.0108794 1.47734 3.04427e-39 3
-0.342766 0.0122682 1.66594 4.88854e-39 3
-0.315849 0.0122682 1.66594 5.16584e-39 3
-0.315809 0.0134095 1.82091 5.1662e-39 3
-0.456099 0.0213558 2.89997 4.98217e-39 3
-0.409243 0.0213558 2.89997 4.42899e-39 3
-0.0398866 0.0104838 1.42362 5.16332e-39 3
-0.0154775 0.00961012 1.30499 5.16296e-39 3
0.00560773 0.00961012 1.30499 5.34771e-39 3
0.0266929 0.00961012 1.30499 4.88673e-39 3
0.10295 0.00748841 1.01687 4.05661e-39 3
0.11938 0.00748841 1.01687 4.97857e-39 3
0.137597 0.00758694 1.03025 4.79346e-39 3
0.154243 0.00758694 1.03025 4.51759e-39 3
0.185537 0.00823725 1.11856 4.60978e-39 3
0.206561 0.00835663 1.13477 3.8733e-39 3
0.246808 0.00847952 1.15146 4.1488e-39 3
0.261566 0.00835663 1.13477 4.70198e-39 3
0.279901 0.00835663 1.13477 4.97856e-39 3
0.281894 0.00789873 1.07259 5.16188e-39 3
0.299224 0.00789873 1.07259 4.79381e-39 3
0.355515 0.00887088 1.2046 5.43918e-39 3
0.374978 0.00887088 1.2046 4.79417e-39 3
0.400605 0.00900949 1.22343 4.60942e-39 3
0.577138 0.011306 1.53528 5.2555e-39 3
0.613983 0.0115321 1.56598 5.53137e-39 3
0.680091 0.0122682 1.66594 4.9782e-39 3
0.722378 0.0125349 1.70216 5.0704e-39 3
0.766544 0.0128135 1.73998 4.79417e-39 3
-2.5092 0.115107 4.8937 2.49073e-39 3
-1.9441 0.092086 3.91496 3.50488e-39 3
-1.4468 0.0708354 3.01151 3.59744e-39 3
-1.16501 0.115107 4.8937 5.90305e-39 3
-0.394889 0.0418573 1.77953 5.99525e-39 3
-0.328775 0.0375861 1.59794 5.7183e-39 3
-0.315849 0.0391855 1.66594 6.4555e-39 3
-0.301773 0.0409271 1.73998 6.73281e-39 3
-0.351847 0.0526206 2.23712 5.99452e-39 3
-0.409243 0.0682118 2.89997 5.71794e-39 3
-0.444747 0.0837145 3.55905 6.54625e-39 3
-0.405682 0.0877009 3.72853 7.00723e-39 3
-0.426718 0.108336 4.60584 7.00723e-39 3
-0.3523 0.108336 4.60584 6.63845e-39 3
-0.0430149 0.0361122 1.53528 6.26931e-39 3
-0.0160112 0.0317538 1.34999 6.2693e-39 3
0.0058011 0.0317538 1.34999 5.99308e-39 3
0.0266929 0.0306953 1.30499 6.36186e-39 3
0.0540885 0.0347494 1.47734 5.90088e-39 3
0.120951 0.0242332 1.03025 5.992e-39 3
0.137597 0.0242332 1.03025 6.17567e-39 3
0.1563 0.0245563 1.04399 5.53102e-39 3
0.185537 0.0263103 1.11856 6.08419e-39 3
0.261566 0.0266916 1.13477 5.34735e-39 3
0.279901 0.0266916 1.13477 5.53174e-39 3
0.298236 0.0266916 1.13477 6.36078e-39 3
0.326021 0.0274884 1.16864 5.80796e-39 3
0.558167 0.0334858 1.42362 5.53137e-39 3
0.62675 0.0361122 1.53528 5.62357e-39 3
0.707008 0.0391855 1.66594 5.25479e-39 3
0.766544 0.0409271 1.73998 5.16295e-39 3
-2.5092 0.194177 4.8937 3.78147e-39 3
-2.04642 0.163517 4.12101 4.24281e-39 3
-1.24408 0.194177 4.8937 7.56077e-39 3
-1.16501 0.194177 4.8937 7.10087e-39 3
-0.599142 0.107132 2.69997 7.10087e-39 3
-0.366136 0.0706098 1.77953 7.10015e-39 3
-0.34523 0.0722519 1.82091 7.37746e-39 3
-0.387994 0.0887666 2.23712 7.46929e-39 3
-0.559757 0.14122 3.55905 8.02175e-39 3
-0.502252 0.14122 3.55905 7.19126e-39 3
-0.465926 0.147944 3.72853 8.29761e-39 3
-0.405682 0.147944 3.72853 7.65224e-39 3
-0.345439 0.147944 3.72853 8.02102e-39 3
-0.285195 0.147944 3.72853 7.74444e-39 3
-0.0457034 0.0647257 1.63123 8.94298e-39 3
-0.0182088 0.0609183 1.53528 7.37565e-39 3
0.00611753 0.0564879 1.42362 6.08563e-39 3
0.0266929 0.0517805 1.30499 6.8232e-39 3
0.0521216 0.0564879 1.42362 6.27002e-39 3
0.118051 0.0887666 2.23712 6.27002e-39 3
0.143252 0.0425593 1.07259 7.1891e-39 3
0.167464 0.0443833 1.11856 6.82068e-39 3
0.763976 0.182755 4.60584 6.36006e-39 3
1.04893 0.194177 4.8937 6.17711e-39 3
1.128 0.194177 4.8937 5.80832e-39 3
1.20707 0.194177 4.8937 6.17711e-39 3
0.511653 0.0517805 1.30499 6.17674e-39 3
0.551108 0.0535661 1.34999 5.99235e-39 3
0.651557 0.0609183 1.53528 5.25515e-39 3
-1.16501 0.273247 4.8937 8.11358e-39 3
-0.489222 0.218597 3.91496 8.94226e-39 3
-0.405682 0.208188 3.72853 8.48128e-39 3
-0.345439 0.208188 3.72853 8.0203e-39 3
0.0307995 0.0840759 1.50575 6.91504e-39 3
0.118051 0.124913 2.23712 8.8515e-39 3
0.154198 0.124913 2.23712 9.12772e-39 3
0.190344 0.124913 2.23712 8.11322e-39 3
0.454338 0.0705152 1.26289 6.26786e-39 3
0.490568 0.0728657 1.30499 6.26858e-39 3
0.503265 0.0716712 1.28359 6.91431e-39 3
0.532738 0.0728657 1.30499 6.54552e-39 3
2.07684 0.273247 4.8937 6.63772e-39 3
-1.69183 0.331592 4.60584 5.72119e-39 3
-1.61741 0.331592 4.60584 7.01013e-39 3
-1.16501 0.352316 4.8937 1.06029e-38 3
-0.0562503 0.14454 2.00767 8.29833e-39 3
0.145863 0.152353 2.11619 7.37565e-39 3
0.180055 0.152353 2.11619 6.91467e-39 3
0.214247 0.152353 2.11619 7.65187e-39 3
0.503265 0.0924108 1.28359 6.72992e-39 3
5.14943 0.31317 4.34996 6.08491e-39 3
5.52675 0.331592 4.60584 5.43954e-39 3
5.28999 0.31317 4.34996 4.97856e-39 3
0.114772 0.191727 2.17498 8.8515e-39 3
0.145863 0.186545 2.11619 9.03517e-39 3
0.180055 0.186545 2.11619 8.39016e-39 3
0.214247 0.186545 2.11619 8.94261e-39 3
0.248439 0.186545 2.11619 8.75822e-39 3
0.290482 0.191727 2.17498 9.49507e-39 3
0.344779 0.203005 2.30292 9.21812e-39 3
0.969863 0.431386 4.8937 8.47876e-39 3
0.987231 0.40601 4.60584 9.3096e-39 3
4.63448 0.345108 3.91496 6.17711e-39 3
5.87217 0.431386 4.8937 5.90052e-39 3
5.28999 0.383454 4.34996 5.99271e-39 3
-0.157222 0.37124 3.55905 9.95784e-39 3
-0.0562503 0.209418 2.00767 9.86673e-39 3
-0.0197585 0.173772 1.66594 9.58978e-39 3
0.00715881 0.173772 1.66594 9.86565e-39 3
0.0340761 0.173772 1.66594 9.49686e-39 3
0.0682545 0.194459 1.86427 9.68126e-39 3
0.11167 0.220737 2.11619 9.03589e-39 3
0.145863 0.220737 2.11619 8.66639e-39 3
0.180055 0.220737 2.11619 8.66674e-39 3
0.214247 0.220737 2.11619 8.1132e-39 3
0.248439 0.220737 2.11619 7.92846e-39 3
0.290482 0.226869 2.17498 8.66602e-39 3
0.325624 0.226869 2.17498 9.21812e-39 3
0.381988 0.240214 2.30292 8.84898e-39 3
0.491472 0.28163 2.69997 9.86205e-39 3
0.646576 0.340303 3.26247 1.04145e-38 3
2.041 0.408364 3.91496 8.11429e-39 3
2.10426 0.408364 3.91496 8.29868e-39 3
1.85897 0.340303 3.26247 7.46856e-39 3
4.26164 0.480428 4.60584 7.37637e-39 3
5.28999 0.453738 4.34996 6.1771e-39 3
-3.03248 0.428745 3.55905 4.70234e-39 3
-2.84563 0.410104 3.40431 5.80833e-39 3
-0.10325 0.281564 2.33729 1.03277e-38 3
-0.0609378 0.262011 2.17498 9.86672e-39 3
-0.0221107 0.224581 1.86427 8.8515e-39 3
0.00731443 0.205052 1.70216 8.11393e-39 3
0.0348169 0.205052 1.70216 8.11501e-39 3
0.0819054 0.269497 2.23712 9.4983e-39 3
0.0918178 0.209609 1.73998 1.11557e-38 3
0.142024 0.248221 2.06051 1.04177e-38 3
0.166551 0.23581 1.95748 1.04177e-38 3
0.198178 0.23581 1.95748 1.11553e-38 3
0.229806 0.23581 1.95748 1.04177e-38 3
0.30757 0.277423 2.30292 1.04181e-38 3
0.325624 0.262011 2.17498 1.07865e-38 3
0.381988 0.277423 2.30292 1.01401e-38 3
0.459765 0.304271 2.52578 1.15226e-38 3
0.526028 0.319742 2.65421 1.02305e-38 3
0.712187 0.262011 2.17498 9.03481e-39 3
0.640567 0.224581 1.86427 8.85113e-39 3
1.57 0.362784 3.01151 7.83698e-39 3
1.50304 0.336871 2.7964 7.93062e-39 3
1.44501 0.314413 2.60997 8.11501e-39 3
1.48718 0.314413 2.60997 9.22136e-39 3
1.63859 0.336871 2.7964 9.22028e-39 3
2.12098 0.349348 2.89997 8.11357e-39 3
2.43882 0.393016 3.26247 7.65259e-39 3
2.84746 0.449162 3.72853 7.376e-39 3
3.05309 0.47162 3.91496 7.09942e-39 3
3.11635 0.47162 3.91496 7.56004e-39 3
3.1796 0.47162 3.91496 7.92954e-39 3
3.24286 0.47162 3.91496 7.65295e-39 3
3.14868 0.449162 3.72853 8.29832e-39 3
1.70601 0.238795 1.98226 7.65295e-39 3
-2.96509 0.475445 3.47996 5.25515e-39 3
-2.84563 0.465109 3.40431 4.88601e-39 3
-0.214727 0.48625 3.55905 1.17106e-38 3
-0.100257 0.310073 2.26954 1.15262e-38 3
-0.0617961 0.301338 2.20561 1.17099e-38 3
-0.0261591 0.301338 2.20561 1.0972e-38 3
0.00934622 0.297153 2.17498 1.15252e-38 3
0.0444882 0.297153 2.17498 1.10653e-38 3
0.0674515 0.251706 1.84233 1.10653e-38 3
0.0918178 0.237722 1.73998 1.1156e-38 3
0.121279 0.240393 1.75953 1.12482e-38 3
0.149708 0.240393 1.75953 1.10645e-38 3
0.198178 0.267438 1.95748 1.12489e-38 3
0.229806 0.267438 1.95748 1.12489e-38 3
0.30757 0.314633 2.30292 1.0972e-38 3
0.349925 0.319329 2.33729 1.08794e-38 3
0.399618 0.329154 2.40921 1.11557e-38 3
0.438545 0.329154 2.40921 1.09691e-38 3
0.492629 0.339603 2.48569 1.11517e-38 3
0.716871 0.314633 2.30292 9.76985e-39 3
0.625334 0.260915 1.90974 9.95568e-39 3
0.640567 0.254703 1.86427 1.08784e-38 3
1.50304 0.382054 2.7964 8.85149e-39 3
1.44501 0.356584 2.60997 8.7593e-39 3
1.43921 0.345081 2.52578 8.02173e-39 3
1.52935 0.356584 2.60997 8.11393e-39 3
1.62571 0.36888 2.69997 7.92954e-39 3
2.48801 0.48625 3.55905 8.6653e-39 3
2.00005 0.382054 2.7964 8.57383e-39 3
1.90888 0.356584 2.60997 8.48163e-39 3
1.95105 0.356584 2.60997 8.20505e-39 3
2.49153 0.445729 3.26247 8.11285e-39 3
3.00556 0.48625 3.55905 7.92954e-39 3
1.797 0.285267 2.08798 8.11393e-39 3
1.90701 0.297153 2.17498 7.46856e-39 3
2.18493 0.334297 2.44685 7.56076e-39 3
1.87323 0.281513 2.06051 8.20577e-39 3
1.8112 0.267438 1.95748 7.83735e-39 3
1.84282 0.267438 1.95748 7.09978e-39 3
-0.372062 0.2236 1.46354 1.25523e-38 3
-0.100257 0.346743 2.26954 1.14333e-38 3
-0.0617961 0.336975 2.20561 1.1433e-38 3
-0.0257958 0.332295 2.17498 1.27234e-38 3
0.00873932 0.310717 2.03375 1.2262e-38 3
0.0415994 0.310717 2.03375 1.06958e-38 3
0.0637042 0.265836 1.73998 1.12489e-38 3
0.0918178 0.265836 1.73998 1.24464e-38 3
0.121279 0.268823 1.75953 1.22627e-38 3
0.149708 0.268823 1.75953 1.18021e-38 3
0.182233 0.275003 1.79998 1.22631e-38 3
0.226969 0.295373 1.93331 1.20787e-38 3
0.294574 0.336975 2.20561 1.26319e-38 3
0.334928 0.341789 2.23712 1.29999e-38 3
0.376452 0.346743 2.26954 1.32751e-38 3
0.419197 0.351842 2.30292 1.28127e-38 3
0.449792 0.346743 2.26954 1.36399e-38 3
0.357084 0.254524 1.66594 1.42842e-38 3
0.399578 0.232284 1.52037 1.30856e-38 3
0.677044 0.332295 2.17498 1.30864e-38 3
0.657403 0.306734 2.00767 1.26276e-38 3
0.672596 0.299066 1.95748 1.12464e-38 3
0.804827 0.341789 2.23712 1.02344e-38 3
1.55871 0.44306 2.89997 9.03588e-39 3
1.44501 0.398754 2.60997 9.68161e-39 3
1.43921 0.385891 2.52578 8.85113e-39 3
1.48002 0.385891 2.52578 1.0511e-38 3
1.57152 0.398754 2.60997 8.75858e-39 3
1.66934 0.412504 2.69997 8.02066e-39 3
2.02727 0.44306 2.89997 9.12628e-39 3
1.8065 0.385891 2.52578 9.31139e-39 3
1.73535 0.362504 2.3727 9.31139e-39 3
1.72152 0.351842 2.30292 8.57383e-39 3
1.99323 0.398754 2.60997 7.65187e-39 3
2.7551 0.498442 3.26247 7.8377e-39 3
2.10586 0.373832 2.44685 7.83734e-39 3
2.14539 0.373832 2.44685 6.36221e-39 3
1.62599 0.2782 1.82091 6.8232e-39 3
1.65541 0.2782 1.82091 7.00759e-39 3
1.57495 0.260057 1.70216 7.28382e-39 3
1.51986 0.246652 1.61442 6.91539e-39 3
-0.661577 0.413367 2.44685 1.89141e-38 3
-0.372062 0.247247 1.46354 1.72568e-38 3
-0.315936 0.224199 1.32711 1.71639e-38 3
-0.31027 0.236209 1.3982 1.8729e-38 3
-0.287679 0.236209 1.3982 1.75258e-38 3
-0.436614 0.389051 2.30292 1.33705e-38 3
-0.157466 0.440924 2.60997 1.32772e-38 3
-0.098825 0.377935 2.23712 1.28159e-38 3
-0.0592908 0.357506 2.11619 1.33687e-38 3
-0.0265328 0.377935 2.23712 1.30003e-38 3
0.00873932 0.343577 2.03375 1.24468e-38 3
0.037246 0.307622 1.82091 1.35535e-38 3
0.0623193 0.287559 1.70216 1.34616e-38 3
0.0898218 0.287559 1.70216 1.32765e-38 3
0.118613 0.290719 1.72086 1.26311e-38 3
0.15141 0.30063 1.77953 1.30003e-38 3
0.182233 0.304086 1.79998 1.37375e-38 3
0.226969 0.326611 1.93331 1.37379e-38 3
0.282631 0.357506 2.11619 1.3368e-38 3
0.325624 0.367437 2.17498 1.38283e-38 3
0.365848 0.372612 2.20561 1.4103e-38 3
0.40722 0.377935 2.23712 1.47473e-38 3
0.287367 0.244958 1.44999 1.49299e-38 3
0.310795 0.244958 1.44999 1.4837e-38 3
0.334223 0.244958 1.44999 1.49288e-38 3
0.360993 0.247247 1.46354 1.48366e-38 3
0.388269 0.24958 1.47734 1.61267e-38 3
0.416064 0.251957 1.49141 1.63107e-38 3
0.440162 0.251957 1.49141 1.53895e-38 3
0.624964 0.339173 2.00767 1.46519e-38 3
0.657403 0.339173 2.00767 1.30871e-38 3
0.656191 0.322628 1.90974 1.30892e-38 3
0.687047 0.322628 1.90974 1.20783e-38 3
0.735851 0.330693 1.95748 1.23553e-38 3
1.02331 0.440924 2.60997 1.19858e-38 3
1.14158 0.472419 2.7964 1.19861e-38 3
1.50304 0.472419 2.7964 1.17096e-38 3
1.49484 0.456129 2.69997 1.0695e-38 3
1.43921 0.426701 2.52578 9.58906e-39 3
1.48002 0.426701 2.52578 1.005e-38 3
1.52083 0.426701 2.52578 1.02337e-38 3
1.61369 0.440924 2.60997 1.13393e-38 3
1.71296 0.456129 2.69997 1.17985e-38 3
1.8867 0.489916 2.89997 1.17982e-38 3
1.82454 0.440924 2.60997 1.01397e-38 3
1.8065 0.426701 2.52578 1.03252e-38 3
1.68431 0.389051 2.30292 9.95604e-39 3
1.67233 0.377935 2.23712 9.31139e-39 3
1.86865 0.413367 2.44685 8.66602e-39 3
2.10586 0.413367 2.44685 8.57455e-39 3
1.9615 0.377935 2.23712 9.77381e-39 3
1.47195 0.278479 1.6484 8.66747e-39 3
1.58184 0.29395 1.73998 8.75967e-39 3
1.57495 0.287559 1.70216 8.94406e-39 3
1.47426 0.264555 1.56598 8.75966e-39 3
1.49956 0.264555 1.56598 6.731e-39 3
-0.701111 0.452901 2.44685 2.24979e-38 3
-0.492336 0.337043 1.82091 2.23142e-38 3
-0.361915 0.263506 1.42362 2.22231e-38 3
-0.315936 0.245641 1.32711 2.14881e-38 3
-0.315911 0.263506 1.42362 2.10285e-38 3
-0.292909 0.263506 1.42362 2.13015e-38 3
-0.272383 0.265924 1.43668 2.07455e-38 3
-0.315809 0.337043 1.82091 1.42907e-38 3
-0.286387 0.337043 1.82091 1.35535e-38 3
-0.256966 0.337043 1.82091 1.38304e-38 3
-0.212705 0.315062 1.70216 1.37382e-38 3
-0.173864 0.295772 1.59794 1.47516e-38 3
-0.142239 0.284173 1.53528 1.54889e-38 3
-0.106948 0.258801 1.3982 1.45673e-38 3
-0.0858907 0.263506 1.42362 1.43836e-38 3
-0.0804389 0.337043 1.82091 1.40141e-38 3
-0.0522324 0.345068 1.86427 1.41985e-38 3
-0.0221107 0.345068 1.86427 1.44758e-38 3
0.00782474 0.337043 1.82091 1.46595e-38 3
0.0337174 0.305113 1.6484 1.31843e-38 3
0.0603513 0.305113 1.6484 1.41059e-38 3
0.0898218 0.315062 1.70216 1.33676e-38 3
0.114828 0.308358 1.66594 1.4197e-38 3
0.138792 0.301934 1.63123 1.37364e-38 3
0.165149 0.301934 1.63123 1.3552e-38 3
0.191505 0.301934 1.63123 1.4013e-38 3
0.209147 0.289857 1.56598 1.44725e-38 3
0.217083 0.268386 1.44999 1.46569e-38 3
0.223924 0.249877 1.34999 1.39179e-38 3
0.226233 0.230045 1.24284 1.38243e-38 3
0.242466 0.226451 1.22343 1.40994e-38 3
0.262233 0.226451 1.22343 1.52051e-38 3
0.305899 0.245641 1.32711 1.43757e-38 3
0.341826 0.256511 1.38583 1.47444e-38 3
0.38464 0.270894 1.46354 1.5849e-38 3
0.416064 0.276054 1.49141 1.5665e-38 3
0.436009 0.27345 1.47734 1.49285e-38 3
0.455581 0.270894 1.46354 1.59433e-38 3
0.483749 0.27345 1.47734 1.46544e-38 3
0.656191 0.353484 1.90974 1.38279e-38 3
0.687047 0.353484 1.90974 1.3185e-38 3
0.735851 0.362321 1.95748 1.25397e-38 3
0.807873 0.381391 2.06051 1.3185e-38 3
1.06548 0.483095 2.60997 1.25404e-38 3
1.23416 0.483095 2.60997 1.20794e-38 3
1.27633 0.483095 2.60997 1.16184e-38 3
1.3185 0.483095 2.60997 1.14333e-38 3
1.40759 0.499753 2.69997 1.26315e-38 3
1.45121 0.499753 2.69997 1.26315e-38 3
1.49484 0.499753 2.69997 1.20783e-38 3
1.48718 0.483095 2.60997 1.19865e-38 3
1.43377 0.452901 2.44685 1.10642e-38 3
1.52083 0.467511 2.52578 1.1156e-38 3
1.56164 0.467511 2.52578 1.22609e-38 3
1.65586 0.483095 2.60997 1.32736e-38 3
1.75658 0.499753 2.69997 1.17971e-38 3
1.78237 0.483095 2.60997 1.16127e-38 3
1.76569 0.467511 2.52578 1.07844e-38 3
1.69701 0.439177 2.3727 1.07858e-38 3
1.63619 0.414081 2.23712 1.15234e-38 3
1.67233 0.414081 2.23712 1.06021e-38 3
2.10586 0.452901 2.44685 9.31247e-39 3
1.90701 0.402579 2.17498 9.12916e-39 3
1.50361 0.311674 1.68385 9.31355e-39 3
1.59961 0.325682 1.75953 8.76074e-39 3
1.60995 0.322063 1.73998 8.29905e-39 3
1.53569 0.301934 1.63123 9.49759e-39 3
1.49956 0.289857 1.56598 9.77381e-39 3
-0.590409 0.414683 2.06051 2.2956e-38 3
-0.460227 0.342564 1.70216 2.31397e-38 3
-0.406231 0.321591 1.59794 2.31397e-38 3
-0.372804 0.315159 1.56598 2.28645e-38 3
-0.334137 0.303038 1.50575 2.25894e-38 3
-0.295596 0.289137 1.43668 2.25894e-38 3
-0.272383 0.289137 1.43668 2.29571e-38 3
-0.301773 0.350177 1.73998 2.05603e-38 3
-0.273659 0.350177 1.73998 1.45676e-38 3
-0.240208 0.342564 1.70216 1.43843e-38 3
-0.18637 0.300152 1.49141 1.51204e-38 3
-0.167046 0.30898 1.53528 1.53048e-38 3
-0.134337 0.291814 1.44999 1.4291e-38 3
-0.106002 0.278902 1.38583 1.37382e-38 3
-0.0726767 0.24243 1.2046 1.46602e-38 3
-0.0596358 0.271689 1.34999 1.43829e-38 3
-0.0378235 0.271689 1.34999 1.39215e-38 3
-0.0197585 0.335276 1.66594 1.48442e-38 3
0.00715881 0.335276 1.66594 1.48438e-38 3
0.0320315 0.315159 1.56598 1.54878e-38 3
0.0573338 0.315159 1.56598 1.67778e-38 3
0.0898218 0.342564 1.70216 1.63157e-38 3
0.114828 0.335276 1.66594 1.64076e-38 3
0.107452 0.254161 1.26289 1.53941e-38 3
0.117439 0.233451 1.15999 1.52112e-38 3
0.13518 0.231735 1.15146 1.52094e-38 3
0.151556 0.228376 1.13477 1.61295e-38 3
0.169891 0.228376 1.13477 1.51157e-38 3
0.190994 0.231735 1.15146 1.48395e-38 3
0.209599 0.231735 1.15146 1.48377e-38 3
0.235118 0.238757 1.18635 1.44675e-38 3
0.266396 0.250126 1.24284 1.44671e-38 3
0.295869 0.258327 1.28359 1.52965e-38 3
0.327342 0.267084 1.32711 1.55731e-38 3
0.377583 0.289137 1.43668 1.46512e-38 3
0.408287 0.294541 1.46354 1.40984e-38 3
0.431934 0.294541 1.46354 1.39158e-38 3
0.447222 0.289137 1.43668 1.27187e-38 3
0.479228 0.294541 1.46354 1.23513e-38 3
0.640567 0.375189 1.86427 1.23538e-38 3
0.670689 0.375189 1.86427 1.32783e-38 3
0.735851 0.393949 1.95748 1.24486e-38 3
0.930278 0.477514 2.3727 1.1527e-38 3
1.11749 0.492436 2.44685 1.19872e-38 3
1.12196 0.477514 2.3727 1.22635e-38 3
1.1603 0.477514 2.3727 1.26326e-38 3
1.19863 0.477514 2.3727 1.20787e-38 3
1.27563 0.492436 2.44685 1.27241e-38 3
1.43377 0.492436 2.44685 1.28163e-38 3
1.51284 0.492436 2.44685 1.27226e-38 3
1.71051 0.492436 2.44685 1.20758e-38 3
1.6471 0.463469 2.30292 1.18003e-38 3
1.63619 0.450227 2.23712 1.12475e-38 3
1.67233 0.450227 2.23712 1.05107e-38 3
2.10586 0.492436 2.44685 9.31211e-39 3
1.85547 0.425891 2.11619 8.76038e-39 3
1.51995 0.342564 1.70216 9.31355e-39 3
1.58184 0.350177 1.73998 8.29976e-39 3
1.59226 0.346329 1.72086 8.20685e-39 3
1.53569 0.328291 1.63123 8.94477e-39 3
1.53017 0.321591 1.59794 8.29832e-39 3
-0.590409 0.447975 2.06051 2.28645e-38 3
-0.460227 0.370067 1.70216 2.28645e-38 3
-0.406231 0.34741 1.59794 2.28645e-38 3
-0.372804 0.340461 1.56598 2.28645e-38 3
-0.304826 0.29865 1.37367 2.28645e-38 3
-0.282632 0.29865 1.37367 2.28645e-38 3
-0.255946 0.293501 1.34999 2.26801e-38 3
-0.282912 0.354647 1.63123 2.31411e-38 3
-0.256555 0.354647 1.63123 1.73335e-38 3
-0.206534 0.318188 1.46354 1.43843e-38 3
-0.174722 0.303983 1.3982 1.48457e-38 3
-0.132083 0.263924 1.21394 1.4107e-38 3
-0.108272 0.254076 1.16864 1.5674e-38 3
-0.0928542 0.263924 1.21394 1.51208e-38 3
-0.0689633 0.248512 1.14305 1.52126e-38 3
-0.0504945 0.248512 1.14305 1.51201e-38 3
-0.0320257 0.248512 1.14305 1.52123e-38 3
-0.0168845 0.30951 1.42362 1.53974e-38 3
0.00634837 0.32119 1.47734 1.48435e-38 3
0.0314035 0.333786 1.53528 1.60406e-38 3
0.0556639 0.330545 1.52037 1.64072e-38 3
0.0879107 0.362193 1.66594 1.82497e-38 3
0.112436 0.354647 1.63123 1.70511e-38 3
0.105746 0.270207 1.24284 1.67763e-38 3
0.115725 0.248512 1.14305 1.56707e-38 3
0.134193 0.248512 1.14305 1.65909e-38 3
0.150466 0.244936 1.12661 1.70497e-38 3
0.168669 0.244936 1.12661 1.80646e-38 3
0.188226 0.246711 1.13477 1.7143e-38 3
0.206561 0.246711 1.13477 1.75103e-38 3
0.224896 0.246711 1.13477 1.84308e-38 3
0.254287 0.257925 1.18635 1.75085e-38 3
0.291097 0.274566 1.26289 1.8062e-38 3
0.324591 0.286102 1.31595 1.77858e-38 3
0.364217 0.301293 1.38583 1.67731e-38 3
0.404507 0.315242 1.44999 1.48381e-38 3
0.412652 0.303983 1.3982 1.40105e-38 3
0.416643 0.290993 1.33845 1.42892e-38 3
0.557363 0.370067 1.70216 1.24457e-38 3
0.640567 0.405311 1.86427 1.33691e-38 3
0.670689 0.405311 1.86427 1.23571e-38 3
0.735851 0.425577 1.95748 1.35549e-38 3
1.05785 0.486373 2.23712 1.12497e-38 3
1.03486 0.460083 2.11619 1.19872e-38 3
1.06905 0.460083 2.11619 1.15255e-38 3
0.610567 0.239762 1.10281 1.19865e-38 3
0.628386 0.239762 1.10281 1.21709e-38 3
0.655436 0.243187 1.11856 1.29085e-38 3
0.714328 0.257925 1.18635 1.17092e-38 3
0.968215 0.340461 1.56598 1.21695e-38 3
1.129 0.386888 1.77953 1.22609e-38 3
1.15775 0.386888 1.77953 1.25368e-38 3
1.33862 0.436489 2.00767 1.28127e-38 3
1.37106 0.436489 2.00767 1.30896e-38 3
1.18992 0.370067 1.70216 1.29992e-38 3
1.14289 0.34741 1.59794 1.28148e-38 3
1.1687 0.34741 1.59794 1.23538e-38 3
1.3007 0.37829 1.73998 1.23546e-38 3
1.80665 0.447975 2.06051 9.95892e-39 3
1.51995 0.370067 1.70216 1.04203e-38 3
1.54745 0.370067 1.70216 1.04203e-38 3
1.59226 0.374133 1.72086 1.08809e-38 3
1.55185 0.35838 1.6484 1.05121e-38 3
1.53017 0.34741 1.59794 1.06032e-38 3
1.7731 0.395885 1.82091 9.86565e-39 3
2.25067 0.486373 2.23712 8.02102e-39 3
2.1632 0.460083 2.11619 7.74443e-39 3
2.1974 0.460083 2.11619 8.48199e-39 3
-0.606366 0.494275 2.11619 2.28645e-38 3
-0.481147 0.415641 1.77953 2.28645e-38 3
-0.414694 0.381004 1.63123 2.28645e-38 3
-0.380413 0.373228 1.59794 2.28645e-38 3
-0.340688 0.358592 1.53528 2.28645e-38 3
-0.285133 0.323685 1.38583 2.28645e-38 3
-0.258172 0.318055 1.36173 2.28645e-38 3
-0.26627 0.358592 1.53528 2.28645e-38 3
-0.25132 0.373228 1.59794 2.24975e-38 3
-0.225501 0.373228 1.59794 1.37404e-38 3
-0.159097 0.297369 1.27316 1.37393e-38 3
-0.127154 0.272958 1.16864 1.40162e-38 3
-0.10747 0.270936 1.15999 1.47527e-38 3
-0.0907439 0.277094 1.18635 1.41992e-38 3
-0.0710374 0.27501 1.17743 1.39226e-38 3
-0.0520131 0.27501 1.17743 1.42903e-38 3
-0.0327427 0.272958 1.16864 1.50268e-38 3
-0.0153496 0.302284 1.2942 1.5213e-38 3
0.00560773 0.304803 1.30499 1.62268e-38 3
0.0280978 0.320845 1.37367 1.73306e-38 3
0.0556639 0.35511 1.52037 1.73284e-38 3
0.0843225 0.373228 1.59794 1.64976e-38 3
0.107938 0.365764 1.56598 1.66823e-38 3
0.104914 0.288003 1.23306 1.69604e-38 3
0.115725 0.266981 1.14305 1.52112e-38 3
0.133221 0.265046 1.13477 1.62239e-38 3
0.149391 0.26126 1.11856 1.66827e-38 3
0.167464 0.26126 1.11856 1.76936e-38 3
0.186872 0.263139 1.12661 1.84297e-38 3
0.205075 0.263139 1.12661 1.64029e-38 3
0.223278 0.263139 1.12661 1.7694e-38 3
0.248636 0.270936 1.15999 1.8062e-38 3
0.273455 0.277094 1.18635 1.65869e-38 3
0.292623 0.277094 1.18635 1.74178e-38 3
0.311792 0.277094 1.18635 1.68678e-38 3
0.341303 0.285753 1.22343 1.53934e-38 3
0.366801 0.290289 1.24284 1.49339e-38 3
0.416643 0.312618 1.33845 1.50279e-38 3
0.438269 0.312618 1.33845 1.40152e-38 3
0.527526 0.358592 1.53528 1.43836e-38 3
0.586853 0.381004 1.63123 1.44758e-38 3
0.700811 0.435433 1.86427 1.47527e-38 3
0.565071 0.26126 1.11856 1.32754e-38 3
0.579008 0.259407 1.11063 1.29999e-38 3
0.55742 0.242228 1.03708 1.17092e-38 3
0.56667 0.239061 1.02352 1.23553e-38 3
0.602911 0.247138 1.0581 1.23553e-38 3
0.637229 0.254003 1.08749 1.26319e-38 3
0.673509 0.26126 1.11856 1.22624e-38 3
0.733496 0.277094 1.18635 1.24468e-38 3
0.801223 0.294971 1.26289 1.2446e-38 3
0.835098 0.299806 1.28359 1.26304e-38 3
0.884849 0.309969 1.32711 1.29059e-38 3
0.921917 0.315313 1.34999 1.23528e-38 3
0.943729 0.315313 1.34999 1.13404e-38 3
0.965542 0.315313 1.34999 1.19861e-38 3
0.938795 0.299806 1.28359 1.19861e-38 3
0.796349 0.248819 1.0653 1.16177e-38 3
0.980275 0.299806 1.28359 1.2539e-38 3
1.82128 0.494275 2.11619 1.15252e-38 3
1.59657 0.425307 1.82091 1.12497e-38 3
1.48761 0.38911 1.66594 1.12497e-38 3
1.51453 0.38911 1.66594 1.13419e-38 3
1.57495 0.397569 1.70216 1.13419e-38 3
1.55185 0.385014 1.6484 1.14341e-38 3
1.53017 0.373228 1.59794 1.16184e-38 3
1.5884 0.381004 1.63123 1.14341e-38 3
1.76155 0.415641 1.77953 1.20783e-38 3
1.79031 0.415641 1.77953 1.06032e-38 3
1.81906 0.415641 1.77953 9.40395e-39 3
1.72987 0.38911 1.66594 8.02102e-39 3
1.83486 0.406404 1.73998 8.29761e-39 3
1.86298 0.406404 1.73998 8.29761e-39 3
2.37262 0.481268 2.06051 9.12773e-39 3
2.40591 0.481268 2.06051 8.66639e-39 3
2.4392 0.481268 2.06051 7.74443e-39 3
-0.636212 0.241399 0.966657 3.87583e-39 3
-0.442341 0.434518 1.73998 2.28645e-38 3
-0.388338 0.40736 1.63123 2.28645e-38 3
-0.340688 0.383398 1.53528 2.28645e-38 3
-0.287679 0.349166 1.3982 2.28645e-38 3
-0.255946 0.337126 1.34999 2.28645e-38 3
-0.165607 0.238455 0.954868 2.28645e-38 3
-0.151697 0.303152 1.21394 1.41081e-38 3
-0.12811 0.294035 1.17743 1.41999e-38 3
-0.109086 0.294035 1.17743 1.44758e-38 3
-0.0900616 0.294035 1.17743 1.49364e-38 3
-0.0710374 0.294035 1.17743 1.53052e-38 3
-0.051625 0.29184 1.16864 1.48435e-38 3
-0.0348216 0.31037 1.24284 1.52112e-38 3
-0.0152237 0.320546 1.28359 1.53952e-38 3
0.00542684 0.315376 1.26289 1.5119e-38 3
0.0258319 0.315376 1.26289 1.56711e-38 3
0.0462369 0.315376 1.26289 1.65905e-38 3
0.0630809 0.298524 1.19541 1.52994e-38 3
0.0817714 0.296262 1.18635 1.58515e-38 3
0.0994332 0.29184 1.16864 1.48399e-38 3
0.11406 0.281342 1.12661 1.55789e-38 3
0.131318 0.279333 1.11856 1.60384e-38 3
0.146257 0.273473 1.09509 1.72334e-38 3
0.160582 0.267853 1.07259 1.64022e-38 3
0.180383 0.271574 1.08749 1.67709e-38 3
0.193914 0.266031 1.0653 1.73248e-38 3
0.211127 0.266031 1.0653 1.61274e-38 3
0.239756 0.279333 1.11856 1.66805e-38 3
0.243892 0.264234 1.0581 1.70501e-38 3
0.260989 0.264234 1.0581 1.61306e-38 3
0.270767 0.25728 1.03025 1.58562e-38 3
0.276498 0.24751 0.991129 1.65023e-38 3
0.292513 0.24751 0.991129 1.52123e-38 3
0.273861 0.2197 0.879766 1.54896e-38 3
0.312835 0.227364 0.910456 1.61346e-38 3
0.327546 0.227364 0.910456 1.5858e-38 3
0.459927 0.260711 1.04399 1.40134e-38 3
0.467446 0.255599 1.02352 1.44743e-38 3
0.493663 0.260711 1.04399 1.3368e-38 3
0.494062 0.252301 1.01031 1.3368e-38 3
0.510386 0.252301 1.01031 1.44743e-38 3
0.523334 0.250683 1.00384 1.4197e-38 3
0.510123 0.23701 0.949081 1.33684e-38 3
0.525458 0.23701 0.949081 1.27233e-38 3
0.54409 0.238455 0.954868 1.17099e-38 3
0.637229 0.271574 1.08749 1.14333e-38 3
0.673509 0.279333 1.11856 1.18014e-38 3
0.722548 0.29184 1.16864 1.1617e-38 3
0.752664 0.296262 1.18635 1.06021e-38 3
0.808587 0.31037 1.24284 1.22624e-38 3
0.828668 0.31037 1.24284 1.10638e-38 3
0.862438 0.315376 1.26289 1.01419e-38 3
0.667516 0.238455 0.954868 1.10642e-38 3
0.903249 0.315376 1.26289 1.19861e-38 3
0.753507 0.25728 1.03025 1.19861e-38 3
0.760151 0.253939 1.01687 1.13408e-38 3
0.776581 0.253939 1.01687 1.2078e-38 3
0.787895 0.252301 1.01031 1.19861e-38 3
0.814732 0.255599 1.02352 1.23546e-38 3
1.56715 0.454728 1.82091 1.26312e-38 3
1.43026 0.40736 1.63123 1.12497e-38 3
1.45662 0.40736 1.63123 1.15252e-38 3
1.49858 0.411648 1.6484 1.12486e-38 3
1.55802 0.420501 1.68385 1.13408e-38 3
1.58523 0.420501 1.68385 1.12486e-38 3
1.53017 0.399047 1.59794 1.06954e-38 3
1.55598 0.399047 1.59794 1.19861e-38 3
1.61476 0.40736 1.63123 1.13408e-38 3
1.79031 0.444393 1.77953 1.17088e-38 3
1.77863 0.434518 1.73998 1.10635e-38 3
1.72987 0.416028 1.66594 1.17088e-38 3
1.75678 0.416028 1.66594 1.10635e-38 3
1.7837 0.416028 1.66594 1.02337e-38 3
1.84998 0.425072 1.70216 8.3898e-39 3
1.79925 0.40736 1.63123 7.65152e-39 3
1.82561 0.40736 1.63123 9.3114e-39 3
1.85197 0.40736 1.63123 8.85078e-39 3
1.87832 0.40736 1.63123 9.21956e-39 3
1.90468 0.40736 1.63123 8.94298e-39 3
2.15557 0.454728 1.82091 9.03517e-39 3
-0.618509 0.227524 0.855729 3.32157e-39 3
-0.851207 0.320283 1.2046 3.59744e-39 3
-0.15535 0.0889676 0.334612 2.28645e-38 5
-0.149943 0.0889676 0.334612 2.28645e-38 5
-0.146731 0.0903185 0.339693 2.28645e-38 5
-0.177783 0.249322 0.937715 2.28645e-38 3
-0.162632 0.249322 0.937715 2.28645e-38 3
-0.147481 0.249322 0.937715 2.24972e-38 3
-0.144955 0.308421 1.15999 1.51222e-38 3
-0.126212 0.308421 1.15999 1.41999e-38 3
-0.10747 0.308421 1.15999 1.47517e-38 3
-0.09214 0.320283 1.2046 1.51208e-38 3
-0.0710374 0.313059 1.17743 1.50279e-38 3
-0.051625 0.310723 1.16864 1.54889e-38 3
-0.0332388 0.31543 1.18635 1.59488e-38 3
-0.0138604 0.310723 1.16864 1.59473e-38 3
0.00509794 0.31543 1.18635 1.41959e-38 3
0.0242663 0.31543 1.18635 1.49321e-38 3
0.044792 0.325288 1.22343 1.6498e-38 3
0.0645594 0.325288 1.22343 1.7143e-38 3
0.0843268 0.325288 1.22343 1.76954e-38 3
0.100181 0.313059 1.17743 1.55764e-38 3
0.112442 0.295297 1.11063 1.67767e-38 3
0.129468 0.293217 1.10281 1.57608e-38 3
0.145241 0.289145 1.08749 1.751e-38 3
0.160582 0.285184 1.07259 1.89844e-38 3
0.176702 0.283244 1.0653 1.64036e-38 3
0.20361 0.297406 1.11856 1.53902e-38 3
0.221683 0.297406 1.11856 1.71426e-38 3
0.190715 0.236573 0.889764 1.66827e-38 3
0.2256 0.26023 0.97874 1.58544e-38 3
0.241414 0.26023 0.97874 1.62261e-38 3
0.229925 0.232608 0.874851 1.53048e-38 3
0.256981 0.244922 0.921167 1.50286e-38 3
0.273473 0.246372 0.926618 1.40144e-38 3
0.270818 0.231316 0.869991 1.42907e-38 3
0.283301 0.230038 0.865185 1.34605e-38 3
0.309239 0.239292 0.899991 1.41059e-38 3
0.323781 0.239292 0.899991 1.44736e-38 3
0.344258 0.24349 0.91578 1.41963e-38 3
0.359055 0.24349 0.91578 1.69622e-38 3
0.409798 0.266903 1.00384 1.56718e-38 3
0.428766 0.268625 1.01031 1.47502e-38 3
0.450908 0.272136 1.02352 1.41041e-38 3
0.464411 0.270369 1.01687 1.44715e-38 3
0.480841 0.270369 1.01687 1.49321e-38 3
0.494062 0.268625 1.01031 1.45637e-38 3
0.500696 0.263524 0.991129 1.42874e-38 3
0.507082 0.258614 0.972661 1.43803e-38 3
0.49512 0.244922 0.921167 1.38275e-38 3
0.510003 0.244922 0.921167 1.28148e-38 3
0.524887 0.244922 0.921167 1.2262e-38 3
0.603691 0.273926 1.03025 1.20787e-38 3
0.673509 0.297406 1.11856 1.2078e-38 3
0.711923 0.306153 1.15146 1.26308e-38 3
0.752664 0.31543 1.18635 1.28148e-38 3
0.771833 0.31543 1.18635 1.21695e-38 3
0.791001 0.31543 1.18635 1.22624e-38 3
0.822634 0.320283 1.2046 1.25404e-38 3
0.651623 0.247838 0.932133 1.22627e-38 3
0.682944 0.253883 0.954868 1.18018e-38 3
0.72951 0.265203 0.997442 1.16174e-38 3
0.722613 0.257017 0.966657 1.15252e-38 3
0.738231 0.257017 0.966657 1.09716e-38 3
0.75385 0.257017 0.966657 1.15255e-38 3
0.774248 0.258614 0.972661 1.14323e-38 3
0.794901 0.26023 0.97874 1.14319e-38 3
0.800706 0.257017 0.966657 1.1523e-38 3
0.905785 0.285184 1.07259 1.1523e-38 3
1.05293 0.325288 1.22343 1.08791e-38 3
1.34613 0.408204 1.53528 1.0972e-38 3
1.37093 0.408204 1.53528 1.06032e-38 3
1.49858 0.438282 1.6484 1.11567e-38 3
1.57495 0.452574 1.70216 1.10642e-38 3
1.58523 0.447708 1.68385 1.13408e-38 3
1.38624 0.378516 1.42362 1.13408e-38 3
1.63344 0.424865 1.59794 1.07862e-38 3
1.62607 0.416368 1.56598 9.58798e-39 3
1.65138 0.416368 1.56598 1.0049e-38 3
1.67668 0.416368 1.56598 1.05099e-38 3
1.60564 0.3928 1.47734 9.95677e-39 3
1.54222 0.371757 1.3982 9.86349e-39 3
-0.664313 0.248129 0.879766 4.79418e-39 3
-0.6255 0.238741 0.846478 4.61087e-39 3
-0.605279 0.236187 0.837425 3.87475e-39 3
-0.650923 0.259806 0.921167 4.15169e-39 3
-0.806916 0.329605 1.16864 3.41449e-39 3
-0.16337 0.0927879 0.328988 2.2956e-38 5
-0.158387 0.0929832 0.329681 2.2956e-38 5
-0.155018 0.0941728 0.333899 2.28645e-38 5
-0.148988 0.0937729 0.332481 2.2773e-38 5
-0.144228 0.0941728 0.333899 2.28645e-38 5
-0.13708 0.0929832 0.329681 2.28645e-38 5
-0.111621 0.0939724 0.333188 2.28645e-38 5
-0.102158 0.0951876 0.337497 2.28645e-38 5
-0.095674 0.0941728 0.333899 2.28645e-38 5
-0.342766 0.469862 1.66594 2.28645e-38 3
-0.291076 0.43301 1.53528 2.28645e-38 3
-0.147327 0.294447 1.04399 2.17614e-38 3
-0.124642 0.281319 0.997442 1.51222e-38 3
-0.109222 0.283122 1.00384 1.5213e-38 3
-0.0942105 0.286799 1.01687 1.60424e-38 3
-0.0767833 0.283122 1.00384 1.43825e-38 3
-0.0590498 0.276044 0.97874 1.48424e-38 3
-0.0432359 0.276044 0.97874 1.44743e-38 3
-0.0284904 0.286799 1.01687 1.63168e-38 3
-0.0128979 0.306716 1.08749 1.59462e-38 3
0.00467311 0.306716 1.08749 1.6315e-38 3
0.0228797 0.315479 1.11856 1.52087e-38 3
0.0415462 0.320051 1.13477 1.56678e-38 3
0.0598812 0.320051 1.13477 1.58522e-38 3
0.0770988 0.315479 1.11856 1.55749e-38 3
0.0951718 0.315479 1.11856 1.81575e-38 3
0.107852 0.300456 1.0653 1.63139e-38 3
0.123386 0.296423 1.051 1.74199e-38 3
0.147287 0.311035 1.10281 1.69568e-38 3
0.158412 0.298426 1.0581 1.61285e-38 3
0.175508 0.298426 1.0581 1.6037e-38 3
0.1851 0.286799 1.01687 1.51161e-38 3
0.193973 0.276044 0.97874 1.66852e-38 3
0.178542 0.234931 0.83297 1.62239e-38 3
0.194065 0.237457 0.841927 1.64094e-38 3
0.206558 0.236187 0.837425 1.54892e-38 3
0.220088 0.236187 0.837425 1.43836e-38 3
0.231147 0.233688 0.828563 1.53048e-38 3
0.249821 0.238741 0.846478 1.53045e-38 3
0.263498 0.238741 0.846478 1.49346e-38 3
0.277175 0.238741 0.846478 1.4658e-38 3
0.29728 0.244017 0.865185 1.42892e-38 3
0.323781 0.253834 0.899991 1.53952e-38 3
0.346283 0.259806 0.921167 1.50254e-38 3
0.359055 0.258287 0.91578 1.51165e-38 3
0.378275 0.261343 0.926618 1.58548e-38 3
0.420625 0.279538 0.991129 1.46573e-38 3
0.442237 0.283122 1.00384 1.49328e-38 3
0.449806 0.27778 0.984896 1.50221e-38 3
0.454291 0.270963 0.960726 1.62207e-38 3
0.461323 0.266066 0.943364 1.50221e-38 3
0.476566 0.266066 0.943364 1.54838e-38 3
0.483078 0.261343 0.926618 1.39183e-38 3
0.492224 0.258287 0.91578 1.31814e-38 3
0.507021 0.258287 0.91578 1.32747e-38 3
0.515785 0.255301 0.905193 1.30918e-38 3
0.580766 0.279538 0.991129 1.26315e-38 3
0.664023 0.311035 1.10281 1.27233e-38 3
0.701605 0.320051 1.13477 1.24468e-38 3
0.741431 0.329605 1.16864 1.23538e-38 3
0.771833 0.334599 1.18635 1.29063e-38 3
0.791001 0.334599 1.18635 1.26308e-38 3
0.81017 0.334599 1.18635 1.10642e-38 3
0.829338 0.334599 1.18635 1.13401e-38 3
0.848506 0.334599 1.18635 1.14323e-38 3
0.854724 0.329605 1.16864 1.1433e-38 3
0.736247 0.27778 0.984896 1.16174e-38 3
0.75216 0.27778 0.984896 1.13404e-38 3
0.75385 0.272636 0.966657 1.11564e-38 3
0.774248 0.274329 0.972661 1.11557e-38 3
0.794901 0.276044 0.97874 1.08787e-38 3
0.800706 0.272636 0.966657 1.12464e-38 3
0.858731 0.286799 1.01687 1.1062e-38 3
0.923115 0.302514 1.07259 1.17085e-38 3
1.1073 0.356186 1.26289 1.13408e-38 3
1.27123 0.401519 1.42362 1.06954e-38 3
1.34307 0.41667 1.47734 1.06947e-38 3
1.36694 0.41667 1.47734 1.03259e-38 3
1.39081 0.41667 1.47734 1.00493e-38 3
0.767409 0.218649 0.77524 1.13401e-38 3
0.779935 0.218649 0.77524 1.00493e-38 3
0.796403 0.219737 0.779097 1.0694e-38 3
1.02916 0.279538 0.991129 1.02334e-38 3
1.33175 0.356186 1.26289 1.08784e-38 3
1.37433 0.362025 1.28359 1.18929e-38 3
1.39507 0.362025 1.28359 1.0233e-38 3
-0.656931 0.259429 0.869991 4.88638e-39 3
-0.61881 0.249718 0.837425 3.96514e-39 3
-0.60206 0.24839 0.83297 3.78255e-39 3
-0.601397 0.253789 0.851078 4.42864e-39 3
-0.587645 0.253789 0.851078 4.15241e-39 3
-0.573894 0.253789 0.851078 3.96803e-39 3
-0.16337 0.0981035 0.328988 2.28645e-38 5
-0.157393 0.097693 0.327612 2.28645e-38 5
-0.154033 0.0989349 0.331776 2.28645e-38 5
-0.148358 0.0987257 0.331075 2.28645e-38 5
-0.143312 0.0989349 0.331776 2.28645e-38 5
-0.102158 0.100641 0.337497 2.28645e-38 5
-0.0960838 0.0999941 0.335329 2.28645e-38 5
-0.0791577 0.106372 0.356716 2.28645e-38 3
-0.0733941 0.106372 0.356716 2.28645e-38 3
-0.215143 0.338386 1.13477 2.28645e-38 3
-0.130459 0.311315 1.04399 1.35549e-38 3
-0.0839342 0.230036 0.771421 1.44743e-38 3
-0.0704292 0.226686 0.760186 1.47516e-38 3
-0.0581466 0.226686 0.760186 1.45665e-38 3
-0.0562379 0.27796 0.932133 1.53945e-38 3
-0.0416732 0.281309 0.943364 1.52098e-38 3
-0.0264309 0.281309 0.943364 1.57626e-38 3
-0.0116081 0.291858 0.97874 1.63136e-38 3
0.00431364 0.299341 1.00384 1.76029e-38 3
0.0213544 0.311315 1.04399 1.66809e-38 3
0.0739303 0.319844 1.07259 1.65902e-38 3
0.088827 0.311315 1.04399 1.64983e-38 3
0.105695 0.311315 1.04399 1.61303e-38 3
0.120951 0.307219 1.03025 1.60377e-38 3
0.13581 0.303229 1.01687 1.5209e-38 3
0.150288 0.299341 1.00384 1.55775e-38 3
0.162345 0.291858 0.97874 1.55789e-38 3
0.171719 0.281309 0.943364 1.58562e-38 3
0.16421 0.247075 0.828563 1.55807e-38 3
0.174822 0.243215 0.815617 1.57654e-38 3
0.188985 0.244488 0.819887 1.43829e-38 3
0.204372 0.247075 0.828563 1.53977e-38 3
0.217759 0.247075 0.828563 1.53977e-38 3
0.228726 0.244488 0.819887 1.65034e-38 3
0.241974 0.244488 0.819887 1.71484e-38 3
0.255221 0.244488 0.819887 1.64101e-38 3
0.294698 0.268375 0.899991 1.63157e-38 3
0.266375 0.231175 0.77524 1.69622e-38 3
0.270855 0.224506 0.752877 1.62239e-38 3
0.342256 0.271496 0.910456 1.696e-38 3
0.361167 0.27469 0.921167 1.55771e-38 3
0.380527 0.27796 0.932133 1.51161e-38 3
0.412787 0.290045 0.972661 1.38272e-38 3
0.425858 0.288255 0.966657 1.50225e-38 3
0.441477 0.288255 0.966657 1.57568e-38 3
0.446081 0.281309 0.943364 1.64007e-38 3
0.447834 0.273083 0.91578 1.52033e-38 3
0.462631 0.273083 0.91578 1.49285e-38 3
0.471908 0.269926 0.905193 1.49303e-38 3
0.483738 0.268375 0.899991 1.39179e-38 3
0.501159 0.269926 0.905193 1.29059e-38 3
0.501297 0.262344 0.879766 1.29992e-38 3
0.506967 0.257996 0.865185 1.26304e-38 3
0.518084 0.256578 0.860431 1.25386e-38 3
0.681841 0.328854 1.10281 1.29074e-38 3
0.71994 0.338386 1.13477 1.33684e-38 3
0.760313 0.348487 1.16864 1.29992e-38 3
0.779195 0.348487 1.16864 1.2907e-38 3
0.798077 0.348487 1.16864 1.29074e-38 3
0.81696 0.348487 1.16864 1.1617e-38 3
0.835842 0.348487 1.16864 1.22617e-38 3
0.82995 0.338386 1.13477 1.18007e-38 3
0.780422 0.311315 1.04399 1.12479e-38 3
0.756921 0.295552 0.991129 1.08791e-38 3
0.749225 0.286486 0.960726 1.13401e-38 3
0.764748 0.286486 0.960726 1.06947e-38 3
0.789964 0.290045 0.972661 1.10631e-38 3
0.800706 0.288255 0.966657 1.14308e-38 3
0.847722 0.299341 1.00384 1.17085e-38 3
0.910641 0.315522 1.0581 1.07865e-38 3
1.1073 0.376591 1.26289 1.0695e-38 3
1.18504 0.395739 1.32711 1.00504e-38 3
1.27112 0.41694 1.3982 1.10642e-38 3
1.29371 0.41694 1.3982 1.06032e-38 3
1.17005 0.370613 1.24284 1.08802e-38 3
1.15351 0.35921 1.2046 1.02344e-38 3
0.7296 0.223432 0.749275 9.5887e-39 3
0.748873 0.225591 0.756514 9.68054e-39 3
0.761096 0.225591 0.756514 9.68054e-39 3
0.784692 0.228908 0.767639 9.03445e-39 3
0.801021 0.230036 0.771421 9.86457e-39 3
0.971397 0.27469 0.921167 9.95641e-39 3
1.11779 0.311315 1.04399 1.01412e-38 3
-0.589517 0.256393 0.815617 3.69036e-39 3
-0.576338 0.256393 0.815617 4.06022e-39 3
-0.162008 0.102557 0.326247 2.28645e-38 5
-0.154168 0.100876 0.320898 2.28645e-38 5
-0.152418 0.103202 0.328299 2.28645e-38 5
-0.1465 0.102771 0.326928 2.28645e-38 5
-0.120583 0.0948507 0.301731 2.28645e-38 5
-0.0934523 0.115557 0.367602 2.28645e-38 3
-0.0851152 0.112392 0.357531 2.28645e-38 3
-0.0791577 0.112136 0.356716 2.28645e-38 3
-0.0733941 0.112136 0.356716 2.28645e-38 3
-0.0676305 0.112136 0.356716 2.28645e-38 3
-0.0811364 0.234417 0.745707 1.6225e-38 3
-0.0687603 0.233306 0.742173 1.61331e-38 3
-0.054695 0.224783 0.715061 1.62246e-38 3
-0.0425584 0.221745 0.705398 1.65912e-38 3
-0.0375964 0.267541 0.851078 1.75121e-38 3
-0.0238452 0.267541 0.851078 1.68653e-38 3
-0.00863859 0.228965 0.728365 1.70472e-38 3
0.0031299 0.228965 0.728365 1.72305e-38 3
0.0151092 0.232205 0.738672 1.76929e-38 3
0.0273018 0.234417 0.745707 1.72334e-38 3
0.0397289 0.236671 0.752877 1.58526e-38 3
0.0518934 0.236671 0.752877 1.51161e-38 3
0.0732091 0.270481 0.860431 1.47481e-38 3
0.0871114 0.270481 0.860431 1.47488e-38 3
0.106887 0.286206 0.910456 1.52105e-38 3
0.121597 0.286206 0.910456 1.48424e-38 3
0.136308 0.286206 0.910456 1.52119e-38 3
0.144307 0.273486 0.869991 1.55814e-38 3
0.153255 0.264664 0.841927 1.53974e-38 3
0.163345 0.259092 0.824202 1.53977e-38 3
0.171254 0.251161 0.798972 1.52133e-38 3
0.187026 0.255065 0.811391 1.4752e-38 3
0.204372 0.260463 0.828563 1.5213e-38 3
0.217759 0.260463 0.828563 1.53985e-38 3
0.228726 0.257736 0.819887 1.59506e-38 3
0.241974 0.257736 0.819887 1.6687e-38 3
0.253892 0.256393 0.815617 1.49346e-38 3
0.26707 0.256393 0.815617 1.71455e-38 3
0.280248 0.256393 0.815617 1.54856e-38 3
0.263261 0.230035 0.731768 1.56693e-38 3
0.275085 0.230035 0.731768 1.52987e-38 3
0.333687 0.267541 0.851078 1.55753e-38 3
0.347438 0.267541 0.851078 1.59423e-38 3
0.361189 0.267541 0.851078 1.56668e-38 3
0.391983 0.279702 0.889764 1.54802e-38 3
0.441477 0.303873 0.966657 1.66748e-38 3
0.451521 0.300168 0.954868 1.69507e-38 3
0.458561 0.294775 0.937715 1.73191e-38 3
0.470892 0.293021 0.932133 1.5938e-38 3
0.463864 0.279702 0.889764 1.5388e-38 3
0.478241 0.279702 0.889764 1.54831e-38 3
0.501159 0.284552 0.905193 1.38257e-38 3
0.495727 0.273486 0.869991 1.35506e-38 3
0.506967 0.271975 0.865185 1.3274e-38 3
0.506942 0.264664 0.841927 1.26294e-38 3
0.612794 0.311566 0.991129 1.20762e-38 3
0.628808 0.311566 0.991129 1.18007e-38 3
0.707513 0.341858 1.08749 1.35524e-38 3
0.745801 0.351625 1.11856 1.30914e-38 3
0.788752 0.346672 1.10281 1.1984e-38 3
0.806571 0.346672 1.10281 1.20773e-38 3
0.740907 0.311566 0.991129 1.26304e-38 3
0.729229 0.300168 0.954868 1.29074e-38 3
0.70186 0.282917 0.899991 1.20773e-38 3
0.708261 0.279702 0.889764 1.21698e-38 3
0.722637 0.279702 0.889764 1.1801e-38 3
0.737014 0.279702 0.889764 1.04167e-38 3
0.826529 0.307672 0.97874 1.07865e-38 3
1.08689 0.396996 1.26289 1.08787e-38 3
1.1636 0.417182 1.32711 1.06025e-38 3
1.16529 0.410229 1.30499 1.0511e-38 3
1.18638 0.410229 1.30499 1.03266e-38 3
1.14997 0.390694 1.24284 1.06954e-38 3
1.13405 0.378673 1.2046 1.03266e-38 3
1.08664 0.356721 1.13477 1.06954e-38 3
0.876359 0.282917 0.899991 1.11564e-38 3
0.707839 0.224783 0.715061 1.0511e-38 3
0.709671 0.221745 0.705398 9.49615e-39 3
0.711454 0.218789 0.695993 9.49615e-39 3
0.729181 0.220751 0.702235 9.12737e-39 3
0.897487 0.267541 0.851078 8.75859e-39 3
-0.16903 0.105628 0.319589 2.20387e-38 5
-0.163532 0.105413 0.318938 2.2773e-38 5
-0.158702 0.105628 0.319589 2.28645e-38 5
-0.151072 0.103931 0.314455 2.28645e-38 5
-0.145407 0.103515 0.313197 2.28645e-38 5
-0.0676305 0.117899 0.356716 2.2773e-38 3
-0.0620081 0.118168 0.357531 2.2773e-38 3
-0.0561032 0.117899 0.356716 2.24972e-38 3
-0.103752 0.242994 0.735204 2.19465e-38 3
-0.0781589 0.237421 0.718341 1.62239e-38 3
-0.065649 0.234198 0.70859 1.63157e-38 3
-0.0530009 0.229016 0.692913 1.71441e-38 3
-0.0412575 0.226016 0.683836 1.89851e-38 3
-0.029947 0.224059 0.677915 1.99989e-38 3
-0.0189936 0.224059 0.677915 1.75074e-38 3
-0.00829151 0.231061 0.6991 1.98095e-38 3
0.00310105 0.238515 0.721652 1.93496e-38 3
0.0148984 0.240734 0.728365 1.74156e-38 3
0.0266669 0.240734 0.728365 1.5943e-38 3
0.0382574 0.239619 0.724993 1.50239e-38 3
0.049513 0.237421 0.718341 1.47491e-38 3
0.0600183 0.233143 0.705398 1.54874e-38 3
0.0692327 0.226016 0.683836 1.54878e-38 3
0.0799326 0.225034 0.680863 1.41988e-38 3
0.0909336 0.225034 0.680863 1.38301e-38 3
0.123394 0.272409 0.824202 1.49368e-38 3
0.135287 0.269571 0.815617 1.48453e-38 3
0.143967 0.261403 0.790901 1.53063e-38 3
0.156746 0.261403 0.790901 1.48453e-38 3
0.170385 0.262729 0.794916 1.51219e-38 3
0.178693 0.256226 0.77524 1.52141e-38 3
0.204372 0.27385 0.828563 1.41077e-38 3
0.217759 0.27385 0.828563 1.49378e-38 3
0.22993 0.272409 0.824202 1.53052e-38 3
0.244534 0.27385 0.828563 1.48431e-38 3
0.234362 0.248835 0.752877 1.48417e-38 3
0.239614 0.241858 0.731768 1.6592e-38 3
0.251438 0.241858 0.731768 1.52069e-38 3
0.262037 0.240734 0.728365 1.58504e-38 3
0.275085 0.241858 0.731768 1.63103e-38 3
0.292373 0.246465 0.745707 1.63096e-38 3
0.304422 0.246465 0.745707 1.75986e-38 3
0.31647 0.246465 0.745707 1.58476e-38 3
0.338181 0.253714 0.767639 1.54781e-38 3
0.368656 0.266792 0.807208 1.54748e-38 3
0.398115 0.278267 0.841927 1.65805e-38 3
0.455831 0.308082 0.932133 1.59351e-38 3
0.429945 0.281292 0.851078 1.63057e-38 3
0.446121 0.282829 0.855729 1.66762e-38 3
0.459947 0.282829 0.855729 1.52962e-38 3
0.471199 0.281292 0.851078 1.51143e-38 3
0.479735 0.278267 0.841927 1.41945e-38 3
0.480424 0.270983 0.819887 1.31804e-38 3
0.481078 0.26407 0.798972 1.37343e-38 3
0.504278 0.269571 0.815617 1.29981e-38 3
0.517457 0.269571 0.815617 1.47509e-38 3
0.566011 0.287543 0.869991 1.40134e-38 3
0.573693 0.284383 0.860431 1.26304e-38 3
0.540113 0.261403 0.790901 1.20762e-38 3
0.558534 0.26407 0.798972 1.17996e-38 3
0.583348 0.269571 0.815617 1.14308e-38 3
0.596526 0.269571 0.815617 1.14308e-38 3
0.502418 0.222136 0.672096 1.17085e-38 3
0.506752 0.219312 0.663553 1.19851e-38 3
0.504643 0.213875 0.647101 1.17085e-38 3
0.504672 0.209545 0.634002 1.11553e-38 3
0.629625 0.256226 0.77524 1.11553e-38 3
0.579082 0.231061 0.6991 1.13393e-38 3
0.674717 0.26407 0.798972 1.14315e-38 3
0.757162 0.290774 0.879766 1.06943e-38 3
1.14421 0.431314 1.30499 1.12479e-38 3
1.1277 0.417401 1.26289 1.08798e-38 3
1.09512 0.398136 1.2046 1.04188e-38 3
1.11458 0.398136 1.2046 1.06032e-38 3
1.11686 0.392104 1.18635 1.10642e-38 3
1.15351 0.398136 1.2046 1.12486e-38 3
0.95304 0.323486 0.97874 1.17103e-38 3
0.671068 0.224059 0.677915 1.17096e-38 3
0.684986 0.225034 0.680863 1.07876e-38 3
0.689987 0.223094 0.674993 1.04181e-38 3
0.700894 0.223094 0.674993 1.01419e-38 3
-0.166649 0.109231 0.315087 2.15803e-38 5
-0.158999 0.107501 0.310096 2.25894e-38 5
-0.154294 0.107714 0.310711 2.2773e-38 5
-0.148978 0.107501 0.310096 2.28649e-38 3
-0.142277 0.106239 0.306455 2.28645e-38 3
-0.0618668 0.123663 0.356716 2.2956e-38 3
-0.0561032 0.123663 0.356716 2.2405e-38 3
-0.0503396 0.123663 0.356716 2.18532e-38 3
-0.0653533 0.24454 0.705398 1.55782e-38 3
-0.0530009 0.240212 0.692913 1.66831e-38 3
-0.0412575 0.237065 0.683836 1.66802e-38 3
-0.029947 0.235013 0.677915 1.68632e-38 3
-0.0188306 0.232995 0.672096 1.8428e-38 3
-0.0080752 0.236035 0.680863 1.88861e-38 3
0.00303121 0.24454 0.705398 1.77815e-38 3
0.0145598 0.246763 0.711811 1.54802e-38 3
0.0262999 0.249027 0.718341 1.52076e-38 3
0.0373919 0.245647 0.70859 1.48421e-38 3
0.0481867 0.242357 0.6991 1.51197e-38 3
0.0581836 0.237065 0.683836 1.58573e-38 3
0.0686332 0.235013 0.677915 1.45669e-38 3
0.0792435 0.234 0.674993 1.48435e-38 3
0.0897628 0.232995 0.672096 1.4752e-38 3
0.0997658 0.231013 0.666376 1.53052e-38 3
0.110533 0.231013 0.666376 1.59506e-38 3
0.12957 0.246763 0.711811 1.5213e-38 3
0.141071 0.246763 0.711811 1.63204e-38 3
0.151198 0.24454 0.705398 1.40159e-38 3
0.161143 0.242357 0.6991 1.42925e-38 3
0.172439 0.242357 0.6991 1.34627e-38 3
0.187075 0.246763 0.711811 1.41077e-38 3
0.200398 0.249027 0.718341 1.52141e-38 3
0.212004 0.249027 0.718341 1.46598e-38 3
0.223611 0.249027 0.718341 1.53045e-38 3
0.233079 0.246763 0.711811 1.72384e-38 3
0.242377 0.24454 0.705398 1.61274e-38 3
0.251508 0.242357 0.6991 1.80592e-38 3
0.265172 0.24454 0.705398 1.80596e-38 3
0.2741 0.242357 0.6991 1.85202e-38 3
0.285395 0.242357 0.6991 1.86116e-38 3
0.27126 0.221583 0.639177 1.75039e-38 3
0.281588 0.221583 0.639177 1.63053e-38 3
0.289552 0.219789 0.634002 1.92548e-38 3
0.301014 0.220683 0.636579 1.77783e-38 3
0.403051 0.285726 0.824202 1.71329e-38 3
0.416368 0.285726 0.824202 1.62124e-38 3
0.434256 0.288766 0.83297 1.57539e-38 3
0.418758 0.270089 0.779097 1.65848e-38 3
0.427096 0.267428 0.771421 1.52962e-38 3
0.411202 0.250175 0.721652 1.41009e-38 3
0.420922 0.249027 0.718341 1.58533e-38 3
0.469111 0.270089 0.779097 1.67753e-38 3
0.49148 0.275573 0.794916 1.61306e-38 3
0.504323 0.275573 0.794916 1.32747e-38 3
0.553706 0.295043 0.851078 1.34591e-38 3
0.555384 0.288766 0.83297 1.28138e-38 3
0.556992 0.28275 0.815617 1.29052e-38 3
0.523792 0.259751 0.749275 1.27198e-38 3
0.528315 0.256075 0.738672 1.22588e-38 3
0.49797 0.236035 0.680863 1.12464e-38 3
0.493938 0.229063 0.660753 1.07865e-38 3
0.504614 0.229063 0.660753 1.17996e-38 3
0.502567 0.223407 0.644438 1.21677e-38 3
0.504672 0.219789 0.634002 1.22606e-38 3
0.519119 0.221583 0.639177 1.20762e-38 3
0.53601 0.22433 0.647101 1.14315e-38 3
0.560359 0.230034 0.663553 1.15237e-38 3
0.623958 0.251333 0.724993 1.13393e-38 3
0.635672 0.251333 0.724993 1.07876e-38 3
0.6596 0.256075 0.738672 1.0143e-38 3
0.711828 0.27144 0.782992 1.01422e-38 3
1.04997 0.393391 1.13477 1.03266e-38 3
1.11686 0.411272 1.18635 1.12482e-38 3
0.665308 0.232995 0.672096 1.14337e-38 3
0.673277 0.232 0.669224 1.07873e-38 3
0.678293 0.230034 0.663553 1.06947e-38 3
0.691946 0.231013 0.666376 1.07876e-38 3
-0.163685 0.112289 0.309483 2.13044e-38 5
-0.15744 0.111408 0.307056 2.24975e-38 5
-0.151587 0.110757 0.30526 2.27727e-38 3
-0.147229 0.11119 0.306455 2.29563e-38 3
-0.0558488 0.128839 0.355098 2.26816e-38 3
-0.0501113 0.128839 0.355098 2.18522e-38 3
-0.0641966 0.251408 0.692913 1.49321e-38 3
-0.052536 0.249202 0.686835 1.65898e-38 3
-0.0410781 0.247035 0.680863 1.76022e-38 3
-0.029947 0.245966 0.677915 1.82461e-38 3
-0.0188306 0.243855 0.672096 1.93503e-38 3
-0.00804025 0.245966 0.677915 1.91648e-38 3
0.00300414 0.253653 0.6991 1.72323e-38 3
0.0144939 0.257096 0.70859 1.60366e-38 3
0.0260608 0.258264 0.711811 1.6409e-38 3
0.0372234 0.255938 0.705398 1.429e-38 3
0.0479726 0.252525 0.695993 1.43829e-38 3
0.0579307 0.247035 0.680863 1.46595e-38 3
0.0683374 0.244906 0.674993 1.53967e-38 3
0.0799326 0.247035 0.680863 1.53974e-38 3
0.0901497 0.244906 0.674993 1.53974e-38 3
0.0989239 0.239739 0.660753 1.59506e-38 3
0.108683 0.237733 0.655223 1.49364e-38 3
0.118773 0.236742 0.652493 1.6135e-38 3
0.129315 0.236742 0.652493 1.54907e-38 3
0.139858 0.236742 0.652493 1.45683e-38 3
0.162295 0.238732 0.657977 1.49375e-38 3
0.174392 0.240755 0.663553 1.44765e-38 3
0.188305 0.244906 0.674993 1.55821e-38 3
0.199211 0.244906 0.674993 1.44751e-38 3
0.210117 0.244906 0.674993 1.37371e-38 3
0.219134 0.242813 0.669224 1.52108e-38 3
0.255714 0.227273 0.626394 1.88868e-38 3
0.265835 0.227273 0.626394 1.84244e-38 3
0.275956 0.227273 0.626394 1.82403e-38 3
0.286077 0.227273 0.626394 1.76872e-38 3
0.296198 0.227273 0.626394 1.81471e-38 3
0.306319 0.227273 0.626394 1.74091e-38 3
0.387794 0.27852 0.767639 1.69492e-38 3
0.412324 0.28696 0.790901 1.5845e-38 3
0.404665 0.273164 0.752877 1.55699e-38 3
0.41683 0.273164 0.752877 1.42813e-38 3
0.409316 0.260634 0.718341 1.52051e-38 3
0.411484 0.25479 0.702235 1.5115e-38 3
0.411752 0.248114 0.683836 1.46548e-38 3
0.420963 0.247035 0.680863 1.33651e-38 3
0.439609 0.251408 0.692913 1.31825e-38 3
0.444899 0.248114 0.683836 1.29981e-38 3
0.487907 0.265505 0.731768 1.29052e-38 3
0.486102 0.258264 0.711811 1.24428e-38 3
0.49312 0.255938 0.705398 1.30875e-38 3
0.486969 0.247035 0.680863 1.30878e-38 3
0.49797 0.247035 0.680863 1.15212e-38 3
0.50027 0.242813 0.669224 1.1707e-38 3
0.504614 0.239739 0.660753 1.08769e-38 3
0.502567 0.23382 0.644438 1.21677e-38 3
0.504672 0.230033 0.634002 1.22599e-38 3
0.512839 0.229106 0.631445 1.17996e-38 3
0.523042 0.229106 0.631445 1.18918e-38 3
0.590378 0.253653 0.6991 1.12471e-38 3
0.607094 0.255938 0.705398 1.14315e-38 3
0.618491 0.255938 0.705398 1.10635e-38 3
0.629889 0.255938 0.705398 1.07872e-38 3
0.647116 0.258264 0.711811 1.06032e-38 3
0.724479 0.284091 0.782992 1.0972e-38 3
0.662464 0.242813 0.669224 1.02355e-38 3
0.664755 0.239739 0.660753 1.02352e-38 3
0.661476 0.234786 0.647101 9.95821e-39 3
-0.168352 0.117058 0.308873 1.67119e-38 5
-0.161767 0.115915 0.305856 2.00194e-38 5
-0.155609 0.115016 0.303485 2.16725e-38 5
-0.150414 0.114794 0.302898 2.24064e-38 3
-0.145802 0.115016 0.303485 2.28645e-38 3
-0.0496609 0.133367 0.351907 1.85317e-38 3
-0.0438764 0.133068 0.351118 1.59466e-38 3
-0.0747309 0.2603 0.686835 1.60363e-38 3
-0.0653533 0.267335 0.705398 1.6498e-38 3
-0.052536 0.2603 0.686835 1.63136e-38 3
-0.0409003 0.256919 0.677915 1.6866e-38 3
-0.0289445 0.24832 0.655223 1.74178e-38 3
-0.0179816 0.243231 0.641797 1.80621e-38 3
-0.00767478 0.245241 0.647101 1.63107e-38 3
0.0135727 0.251476 0.663553 1.58548e-38 3
0.0245016 0.253626 0.669224 1.56729e-38 3
0.0364035 0.261447 0.689861 1.43829e-38 3
0.0473414 0.2603 0.686835 1.46595e-38 3
0.0559834 0.249363 0.657977 1.56736e-38 3
0.0634171 0.237394 0.626394 1.64115e-38 3
0.0738333 0.238347 0.628909 1.51208e-38 3
0.0945361 0.239308 0.631445 1.46598e-38 3
0.104739 0.239308 0.631445 1.60428e-38 3
0.260623 0.232739 0.614111 1.72262e-38 3
0.273766 0.235509 0.621422 1.87013e-38 3
0.283806 0.235509 0.621422 1.78726e-38 3
0.293847 0.235509 0.621422 1.71351e-38 3
0.305098 0.236448 0.623898 1.85169e-38 3
0.325555 0.244232 0.644438 1.84247e-38 3
0.337356 0.245241 0.647101 1.7873e-38 3
0.37576 0.264948 0.6991 1.67681e-38 3
0.387056 0.264948 0.6991 1.66777e-38 3
0.394827 0.262603 0.692913 1.58497e-38 3
0.397234 0.256919 0.677915 1.52058e-38 3
0.401239 0.252546 0.666376 1.45619e-38 3
0.408529 0.250415 0.660753 1.39187e-38 3
0.417444 0.249363 0.657977 1.3551e-38 3
0.429882 0.250415 0.660753 1.20758e-38 3
0.431455 0.245241 0.647101 1.26279e-38 3
0.441911 0.245241 0.647101 1.32718e-38 3
0.456136 0.247285 0.652493 1.34548e-38 3
0.453453 0.240277 0.634002 1.27172e-38 3
0.467482 0.242238 0.639177 1.22573e-38 3
0.506752 0.251476 0.663553 1.24432e-38 3
0.506737 0.246259 0.649786 1.21666e-38 3
0.549637 0.251476 0.663553 1.27216e-38 3
0.57002 0.255812 0.674993 1.16159e-38 3
0.585978 0.258036 0.680863 1.18925e-38 3
0.602215 0.2603 0.686835 9.67982e-39 3
0.61874 0.262603 0.692913 9.67982e-39 3
0.63556 0.264948 0.6991 9.77346e-39 3
0.652684 0.267335 0.705398 1.07876e-38 3
0.654079 0.250415 0.660753 9.6827e-39 3
0.645684 0.243231 0.641797 9.86709e-39 3
-0.711406 0.336297 0.851078 1.00493e-38 3
-0.181922 0.124504 0.315087 9.82172e-39 5
-0.174375 0.122775 0.310711 1.15662e-38 5
-0.167362 0.121331 0.307056 1.41391e-38 5
-0.161767 0.120857 0.305856 1.65268e-38 5
-0.150124 0.119457 0.302314 2.17636e-38 3
-0.0490002 0.137203 0.347225 1.56733e-38 3
-0.04339 0.137203 0.347225 1.61303e-38 3
-0.0604518 0.257828 0.652493 1.57618e-38 3
-0.0167463 0.236178 0.597704 1.54827e-38 3
0.0217999 0.23528 0.595431 1.56736e-38 3
0.0453522 0.259994 0.657977 1.57658e-38 3
0.0530839 0.246528 0.623898 1.65037e-38 3
0.0626651 0.244579 0.618966 1.60428e-38 3
0.072666 0.244579 0.618966 1.46609e-38 3
0.092303 0.243617 0.616529 1.46598e-38 3
0.102264 0.243617 0.616529 1.6135e-38 3
0.224687 0.236178 0.597704 1.6127e-38 3
0.232569 0.234389 0.593176 1.70454e-38 3
0.242154 0.234389 0.593176 1.63071e-38 3
0.255611 0.237995 0.602302 1.6951e-38 3
0.270545 0.242661 0.614111 1.67663e-38 3
0.281572 0.243617 0.616529 1.63064e-38 3
0.291533 0.243617 0.616529 1.61224e-38 3
0.302686 0.244579 0.618966 1.55688e-38 3
0.318992 0.249511 0.631445 1.60287e-38 3
0.329194 0.249511 0.631445 1.68588e-38 3
0.336681 0.247514 0.626394 1.65826e-38 3
0.361252 0.257828 0.652493 1.64926e-38 3
0.378097 0.262197 0.663553 1.61252e-38 3
0.395522 0.266718 0.674993 1.51129e-38 3
0.39125 0.256758 0.649786 1.37317e-38 3
0.401749 0.256758 0.649786 1.33651e-38 3
0.415697 0.258906 0.655223 1.20747e-38 3
0.428075 0.259994 0.657977 1.24446e-38 3
0.431455 0.255697 0.647101 1.27201e-38 3
0.441911 0.255697 0.647101 1.26265e-38 3
0.456136 0.257828 0.652493 1.37314e-38 3
0.449811 0.248508 0.628909 1.40069e-38 3
0.459972 0.248508 0.628909 1.34552e-38 3
0.457392 0.231755 0.586511 1.26276e-38 3
0.466869 0.231755 0.586511 1.26276e-38 3
0.581801 0.262197 0.663553 1.10628e-38 3
0.60798 0.269037 0.680863 1.00486e-38 3
0.62441 0.271397 0.686835 9.86493e-39 3
0.646856 0.276244 0.6991 9.95749e-39 3
0.522214 0.211913 0.536296 1.10656e-38 3
-0.170982 0.125309 0.304666 8.99412e-39 3
-0.167035 0.126045 0.306455 1.23946e-38 5
-0.0486764 0.14187 0.34493 1.51186e-38 3
-0.0431032 0.14187 0.34493 1.53931e-38 3
-0.0252473 0.235069 0.571527 1.35492e-38 3
-0.0160129 0.235069 0.571527 1.4564e-38 3
-0.00677846 0.235069 0.571527 1.53952e-38 3
0.00246494 0.23593 0.573621 1.54874e-38 3
0.0119076 0.239438 0.58215 1.55796e-38 3
0.0213137 0.239438 0.58215 1.58573e-38 3
0.0309498 0.241232 0.586511 1.53048e-38 3
0.0405783 0.242138 0.588716 1.48435e-38 3
0.05105 0.246777 0.599994 1.45669e-38 3
0.0621736 0.252584 0.614111 1.50286e-38 3
0.071535 0.250618 0.609332 1.49364e-38 3
0.0810648 0.249647 0.606971 1.48446e-38 3
0.0908719 0.249647 0.606971 1.47524e-38 3
0.101466 0.251597 0.611713 1.48442e-38 3
0.111349 0.251597 0.611713 1.45676e-38 3
0.243074 0.244901 0.595431 1.53855e-38 3
0.252695 0.244901 0.595431 1.52004e-38 3
0.265342 0.247726 0.602302 1.55692e-38 3
0.276136 0.248683 0.604627 1.5938e-38 3
0.284806 0.247726 0.602302 1.54777e-38 3
0.294537 0.247726 0.602302 1.511e-38 3
0.309023 0.251597 0.611713 1.51089e-38 3
0.318907 0.251597 0.611713 1.52008e-38 3
0.33008 0.252584 0.614111 1.54777e-38 3
0.337356 0.250618 0.609332 1.56628e-38 3
0.351302 0.253578 0.616529 1.4281e-38 3
0.373012 0.261825 0.636579 1.40973e-38 3
0.381746 0.260765 0.634002 1.40994e-38 3
0.39199 0.260765 0.634002 1.30878e-38 3
0.402234 0.260765 0.634002 1.33655e-38 3
0.422747 0.267257 0.649786 1.21662e-38 3
0.427919 0.263971 0.641797 1.22584e-38 3
0.445593 0.26837 0.652493 1.23499e-38 3
0.444456 0.255591 0.621422 1.27172e-38 3
0.430192 0.231686 0.563304 1.27198e-38 3
0.439294 0.231686 0.563304 1.27198e-38 3
0.448395 0.231686 0.563304 1.20755e-38 3
0.6084 0.275251 0.669224 9.86493e-39 3
0.491172 0.218335 0.530842 9.21956e-39 3
0.499749 0.218335 0.530842 9.58942e-39 3
0.510055 0.219078 0.532648 8.57491e-39 3
0.522214 0.220578 0.536296 8.66783e-39 3
-0.0430085 0.147119 0.344172 1.44726e-38 3
-0.0375301 0.147443 0.34493 1.48421e-38 3
-0.0244443 0.236534 0.553351 1.4197e-38 3
-0.015614 0.238217 0.55729 1.42903e-38 3
-0.0066332 0.239068 0.55928 1.44751e-38 3
0.0024206 0.240788 0.563304 1.46587e-38 3
0.0116056 0.242533 0.567386 1.3368e-38 3
0.0207731 0.242533 0.567386 1.33684e-38 3
0.030493 0.247008 0.577854 1.43829e-38 3
0.0401258 0.248844 0.58215 1.35531e-38 3
0.0502794 0.2526 0.590937 1.34609e-38 3
0.0607444 0.256472 0.599994 1.40145e-38 3
0.0701699 0.255493 0.597704 1.41066e-38 3
0.0798272 0.255493 0.597704 1.41074e-38 3
0.0891443 0.254521 0.595431 1.51208e-38 3
0.111349 0.261481 0.611713 1.37371e-38 3
0.138831 0.257458 0.602302 1.41063e-38 3
0.270906 0.253557 0.593176 1.46494e-38 3
0.278381 0.251651 0.588716 1.45579e-38 3
0.284683 0.248844 0.58215 1.42828e-38 3
0.293 0.247922 0.579994 1.44664e-38 3
0.304627 0.249773 0.584322 1.41888e-38 3
0.314068 0.249773 0.584322 1.42806e-38 3
0.324721 0.250708 0.586511 1.44657e-38 3
0.339281 0.254521 0.595431 1.39129e-38 3
0.351575 0.256472 0.599994 1.39129e-38 3
0.37868 0.268832 0.628909 1.35456e-38 3
0.387286 0.267756 0.626394 1.31789e-38 3
0.397407 0.267756 0.626394 1.36406e-38 3
0.440956 0.26354 0.616529 1.23485e-38 3
0.413651 0.236534 0.553351 1.05071e-38 3
0.422592 0.236534 0.553351 1.14297e-38 3
0.434604 0.238217 0.55729 1.13379e-38 3
0.442035 0.237373 0.555314 1.10617e-38 3
0.491172 0.226912 0.530842 1.06021e-38 3
0.501449 0.227684 0.532648 1.11557e-38 3
0.511796 0.228461 0.534466 1.06029e-38 3
0.522214 0.229243 0.536296 9.22028e-39 3
-0.0428203 0.152012 0.342666 1.35528e-38 3
-0.0374476 0.15268 0.344172 1.40137e-38 3
-0.0236909 0.237909 0.536296 1.42903e-38 3
-0.0152875 0.242053 0.545639 1.3645e-38 3
-0.00651683 0.243752 0.549468 1.32765e-38 3
0.00238627 0.246345 0.555314 1.29996e-38 3
0.0114808 0.248994 0.561285 1.45669e-38 3
0.0205497 0.248994 0.561285 1.40141e-38 3
0.0299406 0.2517 0.567386 1.43829e-38 3
0.0393935 0.253538 0.571527 1.41985e-38 3
0.0495318 0.25825 0.58215 1.34609e-38 3
0.0598275 0.262148 0.590937 1.46598e-38 3
0.069903 0.264142 0.595431 1.52134e-38 3
0.0792225 0.263141 0.593176 1.38311e-38 3
0.087156 0.25825 0.58215 1.45687e-38 3
0.0972853 0.260185 0.586511 1.45673e-38 3
0.106762 0.260185 0.586511 1.53041e-38 3
0.128114 0.26515 0.597704 1.39219e-38 3
0.127548 0.245475 0.553351 1.37368e-38 3
0.135057 0.2429 0.547547 1.40119e-38 3
0.141431 0.238726 0.538139 1.41041e-38 3
0.150126 0.238726 0.538139 1.39179e-38 3
0.160476 0.241213 0.543745 1.44697e-38 3
0.26007 0.252616 0.569449 1.28058e-38 3
0.266365 0.24989 0.563304 1.31761e-38 3
0.273499 0.248105 0.55928 1.32697e-38 3
0.278556 0.24461 0.551403 1.34541e-38 3
0.288481 0.245475 0.553351 1.39136e-38 3
0.297422 0.245475 0.553351 1.47434e-38 3
0.315275 0.252616 0.569449 1.48359e-38 3
0.337995 0.263141 0.593176 1.40062e-38 3
0.352927 0.26719 0.602302 1.44661e-38 3
0.374172 0.275672 0.621422 1.34537e-38 3
0.385743 0.27677 0.623898 1.2902e-38 3
0.394253 0.275672 0.621422 1.27176e-38 3
0.390898 0.237097 0.534466 1.06911e-38 3
0.396825 0.235489 0.530842 1.04159e-38 3
0.405402 0.235489 0.530842 1.05081e-38 3
0.418232 0.237909 0.536296 1.06933e-38 3
0.426897 0.237909 0.536296 9.86457e-39 3
0.4447 0.2429 0.547547 1.05096e-38 3
0.50316 0.237097 0.534466 9.49615e-39 3
0.511796 0.237097 0.534466 8.57419e-39 3
-0.0481462 0.156862 0.341173 1.25408e-38 3
-0.0427268 0.157204 0.341918 1.28159e-38 3
-0.0372837 0.157548 0.342666 1.254e-38 3
-0.041591 0.249998 0.543745 1.31858e-38 3
-0.032136 0.244896 0.532648 1.2539e-38 3
-0.0235298 0.244896 0.532648 1.24464e-38 3
-0.0149745 0.245732 0.534466 1.29081e-38 3
-0.00636061 0.246574 0.536296 1.24482e-38 3
0.00235289 0.251747 0.547547 1.34613e-38 3
0.0113587 0.255317 0.555314 1.39215e-38 3
0.0204035 0.256226 0.55729 1.3184e-38 3
0.0296186 0.258063 0.561285 1.35524e-38 3
0.0388267 0.258991 0.563304 1.31843e-38 3
0.0482756 0.260868 0.567386 1.29999e-38 3
0.0580743 0.263734 0.573621 1.3184e-38 3
0.087156 0.267656 0.58215 1.51208e-38 3
0.0972853 0.269661 0.586511 1.41988e-38 3
0.1249 0.249133 0.541863 1.40126e-38 3
0.13183 0.245732 0.534466 1.38265e-38 3
0.14611 0.240801 0.523741 1.52998e-38 3
0.154572 0.240801 0.523741 1.56668e-38 3
0.268701 0.25263 0.549468 1.18868e-38 3
0.267263 0.243242 0.529049 1.17953e-38 3
0.27396 0.241609 0.525498 1.22552e-38 3
0.281506 0.240801 0.523741 1.30842e-38 3
0.287088 0.238409 0.518538 1.48359e-38 3
0.351784 0.236841 0.515126 1.22563e-38 3
0.357754 0.235293 0.51176 1.1335e-38 3
0.366022 0.235293 0.51176 1.10584e-38 3
0.374291 0.235293 0.51176 1.06904e-38 3
0.378846 0.233008 0.506791 1.17971e-38 3
0.385785 0.232256 0.505156 1.06929e-38 3
0.393947 0.232256 0.505156 1.06011e-38 3
0.408701 0.236064 0.513437 1.03245e-38 3
0.431133 0.244066 0.530842 9.86457e-39 3
0.441205 0.244896 0.532648 9.03517e-39 3
0.449812 0.244896 0.532648 9.58906e-39 3
-0.0428203 0.163085 0.342666 1.30939e-38 3
-0.0374476 0.163802 0.344172 1.18954e-38 3
-0.0233708 0.25179 0.529049 1.43825e-38 3
-0.0148227 0.25179 0.529049 1.46595e-38 3
-0.00629592 0.252643 0.530842 1.32783e-38 3
0.00230455 0.255239 0.536296 1.29092e-38 3
0.0111221 0.258784 0.543745 1.32769e-38 3
0.0200468 0.260594 0.547547 1.30918e-38 3
0.0293036 0.26429 0.555314 1.35528e-38 3
0.0386876 0.267132 0.561285 1.35531e-38 3
0.0641556 0.228619 0.480363 1.30014e-38 3
0.071917 0.228619 0.480363 1.33691e-38 3
0.0794348 0.22792 0.478894 1.34613e-38 3
0.0871725 0.22792 0.478894 1.34609e-38 3
0.0954942 0.229322 0.481841 1.50264e-38 3
0.105886 0.23511 0.494001 1.42892e-38 3
0.121128 0.2501 0.525498 1.39197e-38 3
0.130055 0.250942 0.527267 1.46559e-38 3
0.13628 0.246787 0.518538 1.4931e-38 3
0.142302 0.242768 0.510093 1.49292e-38 3
0.149087 0.240418 0.505156 1.52973e-38 3
0.156743 0.239645 0.503532 1.58504e-38 3
0.168149 0.232905 0.48937 1.44682e-38 3
0.173347 0.229322 0.481841 1.51132e-38 3
0.181133 0.229322 0.481841 1.48366e-38 3
0.18719 0.227225 0.477434 1.45593e-38 3
0.194904 0.227225 0.477434 1.40062e-38 3
0.205755 0.230742 0.484825 1.35448e-38 3
0.217631 0.23511 0.494001 1.40058e-38 3
0.227768 0.237356 0.498721 1.30839e-38 3
0.257844 0.250942 0.527267 1.34541e-38 3
0.266363 0.250942 0.527267 1.26258e-38 3
0.272134 0.248432 0.521995 1.27172e-38 3
0.275968 0.24436 0.513437 1.27158e-38 3
0.279679 0.240418 0.505156 1.39147e-38 3
0.284175 0.237356 0.498721 1.27165e-38 3
0.28409 0.230742 0.484825 1.31775e-38 3
0.323435 0.236602 0.497138 1.40073e-38 3
0.334654 0.238877 0.501918 1.32697e-38 3
0.350631 0.24436 0.513437 1.29938e-38 3
0.357754 0.243561 0.51176 1.25328e-38 3
0.36483 0.242768 0.510093 1.14265e-38 3
0.371861 0.24198 0.508436 1.12428e-38 3
0.377623 0.240418 0.505156 1.10592e-38 3
0.385785 0.240418 0.505156 1.10606e-38 3
0.391422 0.238877 0.501918 1.03237e-38 3
0.398255 0.238114 0.500314 9.95568e-39 3
0.423947 0.248432 0.521995 1.0049e-38 3
0.432381 0.248432 0.521995 9.31176e-39 3
0.440815 0.248432 0.521995 9.03589e-39 3
0.449249 0.248432 0.521995 9.03589e-39 3
-0.0429142 0.168991 0.343418 1.2727e-38 3
-0.0373655 0.168991 0.343418 1.29113e-38 3
-0.0399273 0.256867 0.521995 1.26326e-38 3
-0.0313886 0.256013 0.520261 1.26319e-38 3
-0.0231363 0.257726 0.523741 1.28159e-38 3
-0.0147232 0.25859 0.525498 1.3001e-38 3
-0.00625353 0.259461 0.527267 1.23578e-38 3
0.0022734 0.260338 0.529049 1.31858e-38 3
0.0108951 0.262109 0.532648 1.33694e-38 3
0.0195013 0.262109 0.532648 1.37379e-38 3
0.0283 0.263904 0.536296 1.32765e-38 3
0.0406221 0.234939 0.477434 1.27233e-38 3
0.0483362 0.234939 0.477434 1.37375e-38 3
0.0563942 0.23638 0.480363 1.26319e-38 3
0.0641556 0.23638 0.480363 1.22642e-38 3
0.071917 0.23638 0.480363 1.29092e-38 3
0.0794348 0.235657 0.478894 1.34609e-38 3
0.0871725 0.235657 0.478894 1.30914e-38 3
0.0954942 0.237108 0.481841 1.31829e-38 3
0.103598 0.237839 0.483328 1.41956e-38 3
0.114228 0.243861 0.495565 1.49321e-38 3
0.12748 0.254323 0.516826 1.45633e-38 3
0.133625 0.250195 0.508436 1.43771e-38 3
0.140925 0.248581 0.505156 1.48374e-38 3
0.148131 0.246987 0.501918 1.49288e-38 3
0.161758 0.243091 0.494001 1.45601e-38 3
0.167625 0.240062 0.487846 1.47437e-38 3
0.173347 0.237108 0.481841 1.43742e-38 3
0.180577 0.23638 0.480363 1.44671e-38 3
0.186621 0.234225 0.475983 1.35459e-38 3
0.193723 0.233515 0.474541 1.31771e-38 3
0.202002 0.234225 0.475983 1.36378e-38 3
0.210976 0.235657 0.478894 1.31768e-38 3
0.221422 0.238576 0.484825 1.34537e-38 3
0.229255 0.238576 0.484825 1.34544e-38 3
0.248635 0.250195 0.508436 1.37321e-38 3
0.262824 0.256013 0.520261 1.29034e-38 3
0.266798 0.25183 0.51176 1.26265e-38 3
0.270644 0.247781 0.503532 1.3363e-38 3
0.274369 0.243861 0.495565 1.4192e-38 3
0.27972 0.241567 0.490904 1.28101e-38 3
0.282342 0.237108 0.481841 1.26254e-38 3
0.287473 0.234939 0.477434 1.2625e-38 3
0.29429 0.234225 0.475983 1.2625e-38 3
0.301981 0.234225 0.475983 1.22555e-38 3
0.31445 0.237839 0.483328 1.27162e-38 3
0.329376 0.243091 0.494001 1.30853e-38 3
0.348347 0.25101 0.510093 1.22555e-38 3
0.35428 0.249385 0.506791 1.19797e-38 3
0.361299 0.248581 0.505156 1.11492e-38 3
0.367093 0.246987 0.501918 1.18875e-38 3
0.372813 0.245414 0.498721 1.10584e-38 3
0.379662 0.244635 0.497138 1.05067e-38 3
0.387694 0.244635 0.497138 9.67766e-39 3
0.395727 0.244635 0.497138 9.21812e-39 3
0.418369 0.253487 0.515126 9.31103e-39 3
0.421151 0.250195 0.508436 9.21955e-39 3
0.435015 0.253487 0.515126 9.58834e-39 3
-0.0426337 0.173399 0.341173 1.09767e-38 3
-0.0371212 0.173399 0.341173 1.116e-38 3
-0.0316088 0.173399 0.341173 1.17121e-38 3
-0.030576 0.257573 0.506791 1.3001e-38 3
-0.0226811 0.260951 0.513437 1.34613e-38 3
-0.0143853 0.260951 0.513437 1.32776e-38 3
-0.00610953 0.26181 0.515126 1.30032e-38 3
0.00218483 0.25841 0.508436 1.40162e-38 3
0.0102665 0.255097 0.501918 1.27248e-38 3
0.0174267 0.241915 0.475983 1.30929e-38 3
0.0251939 0.242653 0.477434 1.30929e-38 3
0.032908 0.242653 0.477434 1.39219e-38 3
0.0406221 0.242653 0.477434 1.36453e-38 3
0.0483362 0.242653 0.477434 1.35531e-38 3
0.0563942 0.244142 0.480363 1.29081e-38 3
0.0641556 0.244142 0.480363 1.30939e-38 3
0.0721383 0.244893 0.481841 1.20794e-38 3
0.0794348 0.243395 0.478894 1.29077e-38 3
0.0949102 0.243395 0.478894 1.37361e-38 3
0.102648 0.243395 0.478894 1.40105e-38 3
0.110049 0.242653 0.477434 1.48388e-38 3
0.117763 0.242653 0.477434 1.47466e-38 3
0.127026 0.245649 0.483328 1.56686e-38 3
0.134836 0.245649 0.483328 1.48381e-38 3
0.143531 0.247175 0.48633 1.45604e-38 3
0.149531 0.244142 0.480363 1.44697e-38 3
0.156812 0.243395 0.478894 1.4192e-38 3
0.164549 0.243395 0.478894 1.44671e-38 3
0.171762 0.242653 0.477434 1.46501e-38 3
0.179476 0.242653 0.477434 1.47427e-38 3
0.185493 0.240454 0.473107 1.44679e-38 3
0.192556 0.239729 0.471682 1.36381e-38 3
0.200782 0.240454 0.473107 1.38221e-38 3
0.209058 0.241182 0.474541 1.34537e-38 3
0.217384 0.241915 0.475983 1.35463e-38 3
0.225074 0.241915 0.475983 1.29942e-38 3
0.241576 0.251073 0.494001 1.30882e-38 3
0.254373 0.255917 0.503532 1.40105e-38 3
0.261667 0.255097 0.501918 1.51176e-38 3
0.266362 0.251868 0.495565 1.41942e-38 3
0.270939 0.248719 0.48937 1.41012e-38 3
0.276256 0.246409 0.484825 1.40087e-38 3
0.281476 0.244142 0.480363 1.28109e-38 3
0.287473 0.242653 0.477434 1.36399e-38 3
0.29429 0.241915 0.475983 1.34548e-38 3
0.301066 0.241182 0.474541 1.29927e-38 3
0.310616 0.242653 0.477434 1.27158e-38 3
0.317362 0.241915 0.475983 1.24392e-38 3
0.327041 0.243395 0.478894 1.15176e-38 3
0.345339 0.251073 0.494001 1.24399e-38 3
0.355565 0.252667 0.497138 1.20704e-38 3
0.362446 0.251868 0.495565 1.17946e-38 3
0.369285 0.251073 0.494001 1.15194e-38 3
0.377267 0.251073 0.494001 1.15205e-38 3
0.385248 0.251073 0.494001 1.08766e-38 3
0.389544 0.248719 0.48937 1.02319e-38 3
0.411599 0.257573 0.506791 9.95604e-39 3
0.391886 0.240454 0.473107 9.68053e-39 3
0.377842 0.227401 0.447424 9.95604e-39 3
0.382883 0.226108 0.444882 1.01412e-38 3
0.383534 0.222319 0.437426 9.31211e-39 3
0.390601 0.222319 0.437426 9.4965e-39 3
0.398783 0.222942 0.438651 9.22028e-39 3
-0.195595 0.159767 0.304666 1.05114e-38 3
-0.0423569 0.17775 0.338958 1.0976e-38 3
-0.0368802 0.17775 0.338958 1.0976e-38 3
-0.0306085 0.17325 0.330376 1.18972e-38 3
-0.0301852 0.262366 0.500314 1.19876e-38 3
-0.022031 0.26153 0.498721 1.14341e-38 3
-0.0140626 0.263206 0.501918 1.23553e-38 3
-0.00595288 0.263206 0.501918 1.30943e-38 3
0.0021029 0.256626 0.48937 1.38319e-38 3
0.00991688 0.254243 0.484825 1.3185e-38 3
0.0251939 0.250367 0.477434 1.32776e-38 3
0.032808 0.249606 0.475983 1.43822e-38 3
0.0406221 0.250367 0.477434 1.50275e-38 3
0.0480433 0.24885 0.474541 1.51197e-38 3
0.0710453 0.24885 0.474541 1.36457e-38 3
0.086119 0.248098 0.473107 1.41048e-38 3
0.11196 0.23803 0.453908 1.50239e-38 3
0.118607 0.236658 0.451292 1.36403e-38 3
0.125177 0.235302 0.448706 1.37325e-38 3
0.132807 0.235978 0.449995 1.46537e-38 3
0.153067 0.245136 0.467458 1.42838e-38 3
0.16062 0.245136 0.467458 1.46515e-38 3
0.169692 0.247351 0.471682 1.47427e-38 3
0.177314 0.247351 0.471682 1.46515e-38 3
0.183827 0.24587 0.468858 1.50203e-38 3
0.190831 0.245136 0.467458 1.52969e-38 3
0.198978 0.24587 0.468858 1.38218e-38 3
0.207174 0.246608 0.470266 1.44671e-38 3
0.215419 0.247351 0.471682 1.40987e-38 3
0.223041 0.247351 0.471682 1.35477e-38 3
0.233475 0.250367 0.477434 1.41027e-38 3
0.244166 0.253458 0.483328 1.33658e-38 3
0.253541 0.255032 0.48633 1.35506e-38 3
0.261399 0.255032 0.48633 1.3274e-38 3
0.268423 0.254243 0.484825 1.26283e-38 3
0.275404 0.253458 0.483328 1.29963e-38 3
0.2866 0.249606 0.475983 1.25346e-38 3
0.293398 0.24885 0.474541 1.29949e-38 3
0.300156 0.248098 0.473107 1.29016e-38 3
0.3078 0.248098 0.473107 1.22555e-38 3
0.314494 0.247351 0.471682 1.17946e-38 3
0.323089 0.248098 0.473107 1.24399e-38 3
0.337878 0.253458 0.483328 1.20711e-38 3
0.350009 0.256626 0.48937 1.27158e-38 3
0.356801 0.255827 0.487846 1.22555e-38 3
0.363551 0.255032 0.48633 1.24406e-38 3
0.371408 0.255032 0.48633 1.1796e-38 3
0.378092 0.254243 0.484825 1.05985e-38 3
0.381205 0.251133 0.478894 1.02308e-38 3
0.372743 0.235978 0.449995 1.05092e-38 3
0.370433 0.230029 0.438651 9.95604e-39 3
0.377521 0.230029 0.438651 1.04181e-38 3
0.382465 0.228748 0.436207 1.01419e-38 3
0.389513 0.228748 0.436207 9.68125e-39 3
-0.220667 0.172756 0.319589 1.07869e-38 3
-0.211616 0.169641 0.313824 1.11557e-38 3
-0.203287 0.166964 0.308873 1.13397e-38 3
-0.196744 0.165657 0.306455 1.06943e-38 3
-0.0477302 0.182831 0.338226 1.13447e-38 3
-0.0422654 0.182831 0.338226 1.1438e-38 3
-0.0368802 0.183226 0.338958 1.18057e-38 3
-0.0205274 0.251189 0.464684 1.34624e-38 3
-0.0130194 0.251189 0.464684 1.38304e-38 3
0.0020642 0.259665 0.480363 1.37382e-38 3
0.0171658 0.253445 0.468858 1.41981e-38 3
0.0247413 0.253445 0.468858 1.37371e-38 3
0.0323168 0.253445 0.468858 1.41963e-38 3
0.0402539 0.255742 0.473107 1.36431e-38 3
0.0478981 0.255742 0.473107 1.4197e-38 3
0.0618779 0.250446 0.463309 1.30907e-38 3
0.0669856 0.241859 0.447424 1.29992e-38 3
0.101966 0.239126 0.442368 1.52076e-38 3
0.109423 0.239804 0.443622 1.40105e-38 3
0.116591 0.239804 0.443622 1.44707e-38 3
0.123061 0.238452 0.441122 1.35488e-38 3
0.131298 0.240485 0.444882 1.42856e-38 3
0.140888 0.244655 0.452597 1.4009e-38 3
0.149497 0.246795 0.456555 1.38239e-38 3
0.158258 0.248972 0.460584 1.51129e-38 3
0.166188 0.249707 0.461942 1.5849e-38 3
0.175203 0.251936 0.466067 1.52036e-38 3
0.181652 0.250446 0.463309 1.47444e-38 3
0.18858 0.249707 0.461942 1.61274e-38 3
0.196624 0.250446 0.463309 1.39147e-38 3
0.204109 0.250446 0.463309 1.39147e-38 3
0.212855 0.251936 0.466067 1.31778e-38 3
0.220385 0.251936 0.466067 1.37325e-38 3
0.22928 0.253445 0.468858 1.35502e-38 3
0.238283 0.254972 0.471682 1.31825e-38 3
0.245904 0.254972 0.471682 1.23542e-38 3
0.256617 0.258081 0.477434 1.25375e-38 3
0.265953 0.259665 0.480363 1.25368e-38 3
0.273714 0.259665 0.480363 1.1706e-38 3
0.2866 0.257297 0.475983 1.29038e-38 3
0.293398 0.256517 0.474541 1.29956e-38 3
0.298353 0.254206 0.470266 1.31789e-38 3
0.304125 0.252688 0.467458 1.29938e-38 3
0.309828 0.251189 0.464684 1.18875e-38 3
0.317336 0.251189 0.464684 1.198e-38 3
0.331735 0.256517 0.474541 1.20711e-38 3
0.341472 0.258081 0.477434 1.21641e-38 3
0.353497 0.261267 0.483328 1.19797e-38 3
0.35909 0.259665 0.480363 1.18882e-38 3
0.365729 0.25887 0.478894 1.10584e-38 3
0.376925 0.261267 0.483328 1.16127e-38 3
0.357259 0.237783 0.439883 1.01397e-38 3
0.368369 0.235796 0.436207 1.00482e-38 3
0.375417 0.235796 0.436207 1.10624e-38 3
0.382465 0.235796 0.436207 1.01412e-38 3
-0.218438 0.176123 0.31636 1.16152e-38 3
-0.210771 0.174014 0.312572 1.22613e-38 3
-0.203287 0.171954 0.308873 1.18003e-38 3
-0.19636 0.170275 0.305856 1.13393e-38 3
-0.190673 0.169613 0.304666 1.11553e-38 3
-0.0477302 0.188296 0.338226 1.22678e-38 3
-0.0421743 0.18789 0.337497 1.27287e-38 3
-0.0365636 0.187083 0.336048 1.37422e-38 3
-0.0354385 0.257932 0.463309 1.22653e-38 3
-0.0277882 0.256414 0.460584 1.17114e-38 3
-0.0202273 0.254915 0.45789 1.22631e-38 3
-0.0127916 0.254172 0.456555 1.30925e-38 3
-0.00536791 0.251968 0.452597 1.37379e-38 3
0.00200276 0.259467 0.466067 1.38304e-38 3
0.00944883 0.257171 0.461942 1.37364e-38 3
0.0167154 0.254172 0.456555 1.46577e-38 3
0.0351558 0.230029 0.413188 1.38265e-38 3
0.0417218 0.229423 0.412101 1.49332e-38 3
0.100546 0.242844 0.436207 1.41023e-38 3
0.107594 0.242844 0.436207 1.37346e-38 3
0.114642 0.242844 0.436207 1.40112e-38 3
0.128738 0.242844 0.436207 1.40108e-38 3
0.142834 0.242844 0.436207 1.30874e-38 3
0.152863 0.247673 0.444882 1.34552e-38 3
0.163773 0.253433 0.455228 1.39143e-38 3
0.172129 0.254915 0.45789 1.45597e-38 3
0.179004 0.254172 0.456555 1.43757e-38 3
0.186381 0.254172 0.456555 1.44679e-38 3
0.193757 0.254172 0.456555 1.40991e-38 3
0.201134 0.254172 0.456555 1.40991e-38 3
0.207905 0.253433 0.455228 1.40998e-38 3
0.216519 0.254915 0.45789 1.38247e-38 3
0.224574 0.255662 0.459233 1.35513e-38 3
0.231315 0.254915 0.45789 1.29077e-38 3
0.252007 0.261021 0.468858 1.25393e-38 3
0.261935 0.263386 0.473107 1.30914e-38 3
0.271218 0.264987 0.475983 1.29981e-38 3
0.278064 0.264184 0.474541 1.20762e-38 3
0.285731 0.264184 0.474541 1.1707e-38 3
0.293398 0.264184 0.474541 1.18904e-38 3
0.296572 0.260241 0.467458 1.05989e-38 3
0.298774 0.255662 0.459233 1.17049e-38 3
0.304409 0.254172 0.456555 1.25346e-38 3
0.333342 0.259467 0.466067 1.18882e-38 3
0.34189 0.260241 0.467458 1.25336e-38 3
0.349443 0.260241 0.467458 1.29023e-38 3
0.352311 0.241498 0.433791 1.09684e-38 3
0.35932 0.241498 0.433791 1.06929e-38 3
0.365317 0.240831 0.432592 1.11542e-38 3
0.373338 0.241498 0.433791 1.11546e-38 3
