# .PCD v0.7 - Point Cloud Data file format
VERSION 0.7
FIELDS x y z rgb label
SIZE 4 4 4 4 4
TYPE F F F F U
COUNT 1 1 1 1 1
WIDTH 1776
HEIGHT 1
VIEWPOINT 0 0 0 1 0 0 0
POINTS 1776
DATA ascii
-0.992497 -0.751542 1.82091 1.38007e-39 1
-0.542972 0.136623 2.44685 2.85735e-39 3
-0.488182 0.132483 2.3727 2.58076e-39 3
-0.463903 0.136623 2.44685 2.67368e-39 3
-0.452659 0.145731 2.60997 2.58184e-39 3
-0.410489 0.145731 2.60997 2.39673e-39 3
-0.460398 0.182164 3.26247 2.02724e-39 3
2.25844 0.121443 2.17498 3.1343e-39 3
2.32872 0.121443 2.17498 2.39818e-39 3
2.29997 0.118161 2.11619 2.49038e-39 3
2.30304 0.116585 2.08798 2.02832e-39 3
2.33932 0.115051 2.06051 2.39673e-39 3
2.43674 0.118161 2.11619 3.04174e-39 3
-0.716932 0.21681 3.01151 2.76552e-39 3
-0.542972 0.176158 2.44685 2.48928e-39 3
-0.503437 0.176158 2.44685 3.04246e-39 3
-0.49483 0.187902 2.60997 2.95098e-39 3
-0.502955 0.20878 2.89997 2.76587e-39 3
-0.64814 0.296687 4.12101 2.76552e-39 3
-0.690597 0.352316 4.8937 2.85772e-39 3
-0.611527 0.352316 4.8937 2.58041e-39 3
-0.532458 0.352316 4.8937 3.1343e-39 3
-0.453388 0.352316 4.8937 2.21234e-39 3
2.29997 0.152353 2.11619 2.67476e-39 3
2.27274 0.148344 2.06051 3.50345e-39 3
2.47012 0.15444 2.14518 3.31833e-39 3
-0.716932 0.265468 3.01151 3.31905e-39 3
-0.560487 0.222651 2.52578 3.41124e-39 3
-0.537 0.230072 2.60997 3.41124e-39 3
-0.714725 0.363272 4.12101 3.22685e-39 3
-0.769666 0.431386 4.8937 3.41089e-39 3
2.33417 0.186545 2.11619 2.76624e-39 3
2.33678 0.184058 2.08798 2.67332e-39 3
2.33932 0.181636 2.06051 3.41089e-39 3
2.43674 0.186545 2.11619 3.04174e-39 3
2.4008 0.223761 2.14518 3.96406e-39 3
2.37052 0.217794 2.08798 3.59528e-39 3
2.50443 0.226869 2.17498 2.48857e-39 3
2.57534 0.230064 2.20561 3.78002e-39 3
2.50513 0.220737 2.11619 3.68783e-39 3
2.50546 0.217794 2.08798 4.05589e-39 3
2.40255 0.25493 2.11619 4.60799e-39 3
2.47012 0.258422 2.14518 4.60727e-39 3
2.4392 0.248221 2.06051 3.68603e-39 3
2.47249 0.248221 2.06051 4.60799e-39 3
1.05241 0.260057 1.70216 7.1927e-39 3
1.465 0.489916 2.89997 7.00795e-39 3
1.04109 0.284467 1.68385 7.83699e-39 3
0.903197 0.240504 1.42362 8.85114e-39 3
1.12003 0.264555 1.56598 8.0203e-39 3
1.14533 0.264555 1.56598 7.92846e-39 3
1.21941 0.275578 1.63123 6.82211e-39 3
0.761323 0.391698 2.11619 9.49687e-39 3
0.795515 0.391698 2.11619 8.7593e-39 3
0.852755 0.402579 2.17498 9.12916e-39 3
0.799078 0.245641 1.32711 8.94226e-39 3
0.880195 0.263506 1.42362 8.57347e-39 3
0.919923 0.268386 1.44999 7.83591e-39 3
1.01882 0.289857 1.56598 8.29761e-39 3
1.16014 0.322063 1.73998 8.20397e-39 3
1.12003 0.289857 1.56598 9.95569e-39 3
1.14533 0.289857 1.56598 8.20397e-39 3
1.23224 0.305113 1.6484 9.40251e-39 3
1.24577 0.301934 1.63123 9.40251e-39 3
1.36455 0.216311 1.16864 7.83304e-39 3
1.38343 0.216311 1.16864 7.27986e-39 3
-1.04393 0.29732 1.47734 2.94991e-39 3
-0.994538 0.328291 1.63123 3.87222e-39 3
-0.968181 0.328291 1.63123 3.96441e-39 3
0.741288 0.414683 2.06051 9.40467e-39 3
0.684513 0.366464 1.82091 9.68054e-39 3
0.713934 0.366464 1.82091 9.5887e-39 3
0.863899 0.425891 2.11619 9.31176e-39 3
1.31516 0.492436 2.44685 9.77058e-39 3
1.3547 0.492436 2.44685 9.49399e-39 3
1.31222 0.463469 2.30292 9.86277e-39 3
0.955844 0.328291 1.63123 9.77058e-39 3
0.873067 0.291814 1.44999 9.49399e-39 3
0.896495 0.291814 1.44999 9.49399e-39 3
0.946207 0.300152 1.49141 1.05085e-38 3
1.01882 0.315159 1.56598 9.77058e-39 3
1.16014 0.350177 1.73998 1.05071e-38 3
1.13768 0.335276 1.66594 1.0322e-38 3
1.14034 0.328291 1.63123 9.03158e-39 3
1.12003 0.315159 1.56598 1.06915e-38 3
1.14533 0.315159 1.56598 1.00461e-38 3
1.27243 0.342564 1.70216 9.58546e-39 3
1.24577 0.328291 1.63123 9.40107e-39 3
1.29919 0.335276 1.66594 9.7695e-39 3
1.38707 0.24243 1.2046 7.00471e-39 3
1.38522 0.238757 1.18635 6.82032e-39 3
1.38343 0.235193 1.16864 7.37314e-39 3
-1.02006 0.32119 1.47734 4.14845e-39 3
-0.996194 0.32119 1.47734 4.24065e-39 3
-0.991022 0.327367 1.50575 4.42539e-39 3
-1.06953 0.362193 1.66594 3.68747e-39 3
-0.960842 0.333786 1.53528 3.50308e-39 3
-0.974241 0.34741 1.59794 3.59563e-39 3
-0.968181 0.354647 1.63123 4.70198e-39 3
-0.941825 0.354647 1.63123 4.42539e-39 3
-0.955271 0.370067 1.70216 4.33356e-39 3
-0.756872 0.447975 2.06051 5.80977e-39 3
-0.624909 0.386888 1.77953 6.3615e-39 3
-0.610021 0.395885 1.82091 7.0987e-39 3
-0.640148 0.436489 2.00767 7.55968e-39 3
0.741288 0.447975 2.06051 1.06025e-38 3
0.923039 0.472863 2.17498 1.03255e-38 3
1.17163 0.460083 2.11619 1.14287e-38 3
0.949264 0.362193 1.66594 1.21662e-38 3
0.899618 0.333786 1.53528 1.23513e-38 3
0.873067 0.315242 1.44999 1.17056e-38 3
0.896495 0.315242 1.44999 1.2351e-38 3
0.93728 0.32119 1.47734 1.17978e-38 3
0.970304 0.324249 1.49141 1.09673e-38 3
1.06543 0.34741 1.59794 1.03205e-38 3
1.06942 0.340461 1.56598 1.10574e-38 3
1.07326 0.333786 1.53528 1.198e-38 3
1.08741 0.330545 1.52037 1.15201e-38 3
1.12287 0.333786 1.53528 1.13365e-38 3
1.25874 0.366087 1.68385 1.05989e-38 3
1.19594 0.340461 1.56598 9.21596e-39 3
1.27212 0.354647 1.63123 9.95389e-39 3
1.35493 0.370067 1.70216 9.76914e-39 3
2.08471 0.436489 2.00767 1.10602e-38 3
2.11715 0.436489 2.00767 1.04149e-38 3
2.14959 0.436489 2.00767 1.13379e-38 3
1.36761 0.261893 1.2046 7.37314e-39 3
1.34566 0.254076 1.16864 8.11106e-39 3
1.18733 0.221079 1.01687 7.83447e-39 3
1.34333 0.246711 1.13477 6.35934e-39 3
1.25273 0.226974 1.04399 6.81889e-39 3
1.38 0.246711 1.13477 5.15937e-39 3
-0.873443 0.309969 1.32711 4.33284e-39 3
-0.966693 0.351696 1.50575 4.60978e-39 3
-0.960842 0.358592 1.53528 3.87222e-39 3
-0.936035 0.358592 1.53528 4.1488e-39 3
-0.968181 0.381004 1.63123 4.05661e-39 3
-0.941825 0.381004 1.63123 4.05697e-39 3
-0.915468 0.381004 1.63123 4.24172e-39 3
-0.927769 0.397569 1.70216 4.97857e-39 3
-0.920272 0.406404 1.73998 4.51759e-39 3
-0.745032 0.435433 1.86427 6.17747e-39 3
-0.71491 0.435433 1.86427 6.08635e-39 3
-0.684789 0.435433 1.86427 6.27074e-39 3
-0.639442 0.425307 1.82091 6.2693e-39 3
-0.610021 0.425307 1.82091 6.54589e-39 3
-0.5806 0.425307 1.82091 6.82247e-39 3
-0.60771 0.468928 2.00767 6.82211e-39 3
0.898092 0.494275 2.11619 1.08776e-38 3
0.903131 0.381004 1.63123 1.19818e-38 3
0.874812 0.358592 1.53528 1.21662e-38 3
0.819295 0.326575 1.3982 1.21662e-38 3
0.819924 0.318055 1.36173 1.18896e-38 3
0.841926 0.318055 1.36173 1.07836e-38 3
0.89506 0.329517 1.4108 1.02298e-38 3
0.917855 0.329517 1.4108 1.04138e-38 3
1.00396 0.351696 1.50575 1.1796e-38 3
1.05884 0.362142 1.55048 1.05971e-38 3
1.07326 0.358592 1.53528 1.05049e-38 3
1.09807 0.358592 1.53528 1.12425e-38 3
1.13399 0.362142 1.55048 1.16116e-38 3
1.24535 0.38911 1.66594 1.11503e-38 3
1.18409 0.362142 1.55048 1.09659e-38 3
1.17427 0.351696 1.50575 1.06889e-38 3
1.2221 0.358592 1.53528 1.00454e-38 3
0.863941 0.234464 1.00384 1.23488e-38 3
0.858157 0.228602 0.97874 1.19811e-38 3
0.873971 0.228602 0.97874 9.95317e-39 3
0.889785 0.228602 0.97874 1.04138e-38 3
0.905598 0.228602 0.97874 1.04134e-38 3
0.921412 0.228602 0.97874 1.0506e-38 3
2.10063 0.487685 2.08798 9.21597e-39 3
2.07892 0.475018 2.03375 8.01778e-39 3
2.0075 0.45156 1.93331 8.57096e-39 3
1.96592 0.435433 1.86427 8.47841e-39 3
1.92722 0.420418 1.79998 8.47876e-39 3
1.9563 0.420418 1.79998 9.21633e-39 3
1.16839 0.243842 1.04399 9.03194e-39 3
1.32678 0.272958 1.16864 8.38657e-39 3
1.30666 0.265046 1.13477 8.47984e-39 3
1.18733 0.237509 1.01687 8.29581e-39 3
1.25256 0.247138 1.0581 8.94082e-39 3
1.26966 0.247138 1.0581 7.65008e-39 3
1.36028 0.26126 1.11856 7.92559e-39 3
1.37836 0.26126 1.11856 7.37242e-39 3
-0.916328 0.331412 1.32711 4.14845e-39 3
-0.865545 0.320546 1.28359 4.70162e-39 3
-0.858886 0.325888 1.30499 4.05661e-39 3
-0.985648 0.383398 1.53528 4.14881e-39 3
-0.960842 0.383398 1.53528 4.14881e-39 3
-0.954756 0.391066 1.56598 4.42539e-39 3
-0.968181 0.40736 1.63123 4.79418e-39 3
-0.941825 0.40736 1.63123 4.51795e-39 3
-0.915468 0.40736 1.63123 4.14917e-39 3
-0.908029 0.416028 1.66594 4.14881e-39 3
-0.881112 0.416028 1.66594 4.60978e-39 3
-0.872764 0.425072 1.70216 4.79489e-39 3
-0.757127 0.454728 1.82091 6.54625e-39 3
-0.695363 0.434518 1.73998 5.99308e-39 3
-0.71491 0.465555 1.86427 6.27074e-39 3
-0.684789 0.465555 1.86427 6.45514e-39 3
-0.662555 0.471164 1.88673 7.37565e-39 3
-0.610021 0.454728 1.82091 8.02102e-39 3
-0.5806 0.454728 1.82091 7.09906e-39 3
-0.544843 0.449501 1.79998 7.00687e-39 3
0.242466 0.30552 1.22343 1.03259e-38 3
0.833659 0.376025 1.50575 1.02294e-38 3
0.811189 0.355514 1.42362 1.01372e-38 3
0.797922 0.340057 1.36173 1.03216e-38 3
0.78576 0.325888 1.30499 1.05982e-38 3
0.813626 0.328627 1.31595 1.12436e-38 3
0.827931 0.325888 1.30499 1.14276e-38 3
0.841999 0.323195 1.2942 1.09659e-38 3
0.966779 0.362098 1.44999 1.17034e-38 3
1.02829 0.376025 1.50575 1.15183e-38 3
1.07326 0.383398 1.53528 1.12421e-38 3
1.09807 0.383398 1.53528 1.09659e-38 3
1.14533 0.391066 1.56598 1.11503e-38 3
1.27243 0.425072 1.70216 1.10581e-38 3
1.17249 0.383398 1.53528 1.07815e-38 3
1.13078 0.362098 1.44999 1.05042e-38 3
0.896791 0.281342 1.12661 1.09666e-38 3
0.883223 0.271574 1.08749 1.14279e-38 3
0.926531 0.279333 1.11856 1.10577e-38 3
0.847722 0.250683 1.00384 1.02276e-38 3
0.875161 0.253939 1.01687 1.02276e-38 3
0.880161 0.250683 1.00384 9.67515e-39 3
0.89638 0.250683 1.00384 9.0305e-39 3
0.924452 0.253939 1.01687 9.1227e-39 3
0.928819 0.250683 1.00384 9.49076e-39 3
0.921412 0.244416 0.97874 8.47661e-39 3
1.95216 0.47691 1.90974 9.30781e-39 3
1.89078 0.454728 1.82091 8.10926e-39 3
1.79497 0.425072 1.70216 7.46389e-39 3
1.82248 0.425072 1.70216 8.20146e-39 3
1.81062 0.416028 1.66594 8.93974e-39 3
1.34944 0.30552 1.22343 8.10927e-39 3
1.15302 0.25728 1.03025 8.47876e-39 3
1.16966 0.25728 1.03025 8.75499e-39 3
1.15589 0.250683 1.00384 7.7412e-39 3
1.18733 0.253939 1.01687 7.65008e-39 3
1.23586 0.260711 1.04399 8.38657e-39 3
1.26966 0.264234 1.0581 7.00363e-39 3
1.36028 0.279333 1.11856 6.72705e-39 3
1.37836 0.279333 1.11856 6.26607e-39 3
-0.858149 0.330451 1.24284 3.68711e-39 3
-0.838068 0.330451 1.24284 3.68747e-39 3
-0.974241 0.424865 1.59794 4.60978e-39 3
-0.968181 0.433717 1.63123 5.25515e-39 3
-0.941825 0.433717 1.63123 5.25587e-39 3
-0.915468 0.433717 1.63123 4.79489e-39 3
-0.908029 0.442945 1.66594 5.16296e-39 3
-0.862755 0.433717 1.63123 5.53174e-39 3
-0.854194 0.442945 1.66594 5.16367e-39 3
-0.827277 0.442945 1.66594 5.25587e-39 3
-0.85493 0.473146 1.77953 5.5321e-39 3
-0.865519 0.495676 1.86427 6.26966e-39 3
-0.835397 0.495676 1.86427 5.80761e-39 3
-0.786548 0.484149 1.82091 6.17639e-39 3
-0.73992 0.473146 1.77953 5.99236e-39 3
-0.695363 0.462631 1.73998 7.92919e-39 3
-0.698285 0.484149 1.82091 6.54733e-39 3
-0.668863 0.484149 1.82091 8.20686e-39 3
-0.646965 0.489845 1.84233 1.17085e-38 3
-0.610021 0.484149 1.82091 1.3645e-38 3
-0.573926 0.478584 1.79998 1.26308e-38 3
-0.544843 0.478584 1.79998 8.85114e-39 3
-0.0735931 0.442945 1.66594 8.3898e-39 3
0.229852 0.408204 1.53528 9.49687e-39 3
0.254659 0.408204 1.53528 1.06947e-38 3
0.268919 0.3928 1.47734 1.02341e-38 3
0.250287 0.335781 1.26289 1.0233e-38 3
0.266396 0.330451 1.24284 1.09706e-38 3
0.286477 0.330451 1.24284 1.08773e-38 3
0.74988 0.452574 1.70216 1.06003e-38 3
0.716534 0.344106 1.2942 1.05049e-38 3
0.737445 0.344106 1.2942 1.09659e-38 3
0.777636 0.352854 1.32711 1.05049e-38 3
0.772879 0.341285 1.28359 1.17035e-38 3
0.787166 0.338511 1.27316 1.13347e-38 3
0.807737 0.338511 1.27316 1.15191e-38 3
0.835098 0.341285 1.28359 1.09659e-38 3
0.80317 0.320283 1.2046 1.1334e-38 3
0.862438 0.335781 1.26289 1.03202e-38 3
1.0426 0.396541 1.49141 1.05967e-38 3
1.06669 0.396541 1.49141 1.05967e-38 3
1.04121 0.378516 1.42362 1.10574e-38 3
1.27243 0.452574 1.70216 1.11496e-38 3
1.08721 0.378516 1.42362 1.09652e-38 3
1.00101 0.341285 1.28359 1.06886e-38 3
0.871706 0.291167 1.09509 9.49004e-39 3
0.877132 0.28715 1.07999 9.67515e-39 3
0.853384 0.273926 1.03025 9.67515e-39 3
0.842322 0.265203 0.997442 1.01347e-38 3
0.880881 0.272136 1.02352 9.95137e-39 3
0.891591 0.270369 1.01687 1.02287e-38 3
0.908021 0.270369 1.01687 9.21489e-39 3
0.930494 0.272136 1.02352 1.02283e-38 3
0.934811 0.268625 1.01031 1.07815e-38 3
0.939019 0.265203 0.997442 9.49004e-39 3
1.70295 0.442945 1.66594 8.20074e-39 3
1.72987 0.442945 1.66594 8.20002e-39 3
1.75678 0.442945 1.66594 7.09439e-39 3
1.6438 0.408204 1.53528 6.63413e-39 3
1.39507 0.341285 1.28359 5.89693e-39 3
1.30855 0.31543 1.18635 6.17352e-39 3
-0.845148 0.450684 1.59794 5.99272e-39 3
-0.836399 0.460073 1.63123 5.34735e-39 3
-0.810042 0.460073 1.63123 4.42611e-39 3
-0.80036 0.469862 1.66594 5.34771e-39 3
-0.807818 0.490745 1.73998 5.6243e-39 3
-0.779704 0.490745 1.73998 4.70126e-39 3
-0.75159 0.490745 1.73998 5.53102e-39 3
-0.723477 0.490745 1.73998 6.36115e-39 3
-0.695363 0.490745 1.73998 6.82284e-39 3
0.254836 0.480076 1.70216 1.03263e-38 3
0.270575 0.460073 1.63123 1.09716e-38 3
0.268919 0.41667 1.47734 1.08795e-38 3
0.25439 0.362025 1.28359 1.1523e-38 3
0.266396 0.350532 1.24284 1.07851e-38 3
0.286477 0.350532 1.24284 1.18911e-38 3
0.31654 0.286799 1.01687 1.11542e-38 3
0.479674 0.345055 1.22343 9.95569e-39 3
0.453394 0.313241 1.11063 1.03238e-38 3
0.446032 0.296423 1.051 1.03238e-38 3
0.456881 0.292497 1.03708 9.8617e-39 3
0.473637 0.292497 1.03708 1.14283e-38 3
0.490394 0.292497 1.03708 1.10595e-38 3
0.57149 0.329605 1.16864 9.67659e-39 3
0.590372 0.329605 1.16864 9.67659e-39 3
0.751521 0.394349 1.3982 1.05056e-38 3
0.71066 0.362025 1.28359 1.23488e-38 3
0.737445 0.365017 1.2942 1.18868e-38 3
0.740008 0.356186 1.26289 1.17949e-38 3
0.760413 0.356186 1.26289 1.17949e-38 3
0.756418 0.345055 1.22343 1.26247e-38 3
0.770168 0.34238 1.21394 1.22548e-38 3
0.743664 0.322387 1.14305 1.15183e-38 3
0.715152 0.302514 1.07259 1.23481e-38 3
0.732482 0.302514 1.07259 1.24403e-38 3
0.79328 0.320051 1.13477 1.15176e-38 3
1.01821 0.401519 1.42362 1.05964e-38 3
1.02262 0.394349 1.3982 1.16102e-38 3
1.06421 0.401519 1.42362 1.14265e-38 3
0.996613 0.368059 1.30499 1.14261e-38 3
0.872312 0.315479 1.11856 1.03198e-38 3
0.847986 0.300456 1.0653 1.04116e-38 3
0.865198 0.300456 1.0653 1.24399e-38 3
0.842301 0.286799 1.01687 1.02272e-38 3
0.858731 0.286799 1.01687 9.76555e-39 3
0.880881 0.288673 1.02352 1.03187e-38 3
0.897419 0.288673 1.02352 1.05964e-38 3
0.908021 0.286799 1.01687 1.00436e-38 3
0.918487 0.284949 1.01031 9.95174e-39 3
0.917062 0.279538 0.991129 1.10577e-38 3
0.961258 0.283122 1.00384 1.10556e-38 3
1.70295 0.469862 1.66594 8.66172e-39 3
1.62607 0.44167 1.56598 6.90928e-39 3
1.619 0.43301 1.53528 6.44902e-39 3
1.55248 0.408954 1.44999 7.18659e-39 3
1.37256 0.356186 1.26289 7.83268e-39 3
-0.828245 0.466973 1.56598 5.1626e-39 3
-0.819329 0.476503 1.59794 5.34735e-39 3
-0.810042 0.48643 1.63123 5.99272e-39 3
-0.783686 0.48643 1.63123 5.16332e-39 3
-0.773443 0.496779 1.66594 5.99308e-39 3
-0.124773 0.48643 1.63123 1.15245e-38 3
-0.10051 0.496779 1.66594 9.49615e-39 3
0.254659 0.457816 1.53528 9.58871e-39 3
0.268919 0.44054 1.47734 1.05099e-38 3
0.272242 0.409625 1.37367 9.95605e-39 3
0.27513 0.382764 1.28359 1.04167e-38 3
0.305899 0.395739 1.32711 1.06925e-38 3
0.302622 0.343362 1.15146 1.10606e-38 3
0.30011 0.303229 1.01687 1.14294e-38 3
0.320705 0.307219 1.03025 1.11528e-38 3
0.361109 0.328854 1.10281 1.11528e-38 3
0.395645 0.343362 1.15146 1.17052e-38 3
0.452832 0.35921 1.2046 1.14283e-38 3
0.472295 0.35921 1.2046 1.10613e-38 3
0.443948 0.324287 1.08749 9.95425e-39 3
0.446032 0.313404 1.051 1.01379e-38 3
0.456881 0.309253 1.03708 1.10592e-38 3
0.464411 0.303229 1.01687 1.09662e-38 3
0.483983 0.305211 1.02352 1.25339e-38 3
0.52095 0.317668 1.0653 1.23499e-38 3
0.58169 0.343362 1.15146 1.22581e-38 3
0.583144 0.333552 1.11856 1.18889e-38 3
0.6189 0.343362 1.15146 1.27176e-38 3
0.682682 0.367695 1.23306 1.14261e-38 3
0.725454 0.379653 1.27316 1.19782e-38 3
0.740008 0.376591 1.26289 1.18871e-38 3
0.75433 0.373578 1.25279 1.17017e-38 3
0.739095 0.356468 1.19541 1.15173e-38 3
0.709655 0.333552 1.11856 1.24392e-38 3
0.688391 0.315522 1.0581 1.21626e-38 3
0.678001 0.303229 1.01687 1.18871e-38 3
0.694431 0.303229 1.01687 1.14261e-38 3
0.710861 0.303229 1.01687 1.20715e-38 3
0.746686 0.311315 1.04399 1.27162e-38 3
0.818093 0.333552 1.11856 1.19782e-38 3
0.860759 0.343362 1.15146 1.15183e-38 3
0.854239 0.333552 1.11856 1.0873e-38 3
0.793011 0.303229 1.01687 1.1334e-38 3
0.847986 0.317668 1.0653 1.21637e-38 3
0.871125 0.319844 1.07259 1.05035e-38 3
0.870566 0.313404 1.051 1.17017e-38 3
0.87003 0.307219 1.03025 1.17027e-38 3
0.880881 0.305211 1.02352 1.09652e-38 3
0.891591 0.303229 1.01687 1.08733e-38 3
0.913956 0.305211 1.02352 9.85954e-39 3
0.9126 0.299341 1.00384 9.95246e-39 3
0.905598 0.291858 0.97874 1.01358e-38 3
0.921412 0.291858 0.97874 9.95102e-39 3
1.70295 0.496779 1.66594 9.95138e-39 3
1.59419 0.457816 1.53528 8.66064e-39 3
1.58786 0.449012 1.50575 1.05046e-38 3
1.55248 0.432382 1.44999 1.13343e-38 3
-0.798954 0.447523 1.42362 4.88637e-39 3
-0.775952 0.447523 1.42362 5.1626e-39 3
-0.75295 0.447523 1.42362 5.62358e-39 3
-0.757493 0.46441 1.47734 6.54589e-39 3
-0.747731 0.473341 1.50575 6.73029e-39 3
-0.105133 0.356721 1.13477 1.06018e-38 3
-0.0849518 0.349131 1.11063 1.07851e-38 3
-0.0674855 0.351625 1.11856 1.07862e-38 3
0.245049 0.46441 1.47734 9.49543e-39 3
0.263939 0.45581 1.44999 1.02319e-38 3
0.277104 0.439531 1.3982 1.2445e-38 3
0.284456 0.417182 1.32711 1.16152e-38 3
0.311173 0.424375 1.34999 1.11535e-38 3
0.293975 0.351625 1.11856 1.05985e-38 3
0.280043 0.315561 1.00384 1.16127e-38 3
0.296263 0.315561 1.00384 1.14276e-38 3
0.320705 0.323865 1.03025 1.15198e-38 3
0.351215 0.337175 1.07259 1.2073e-38 3
0.389911 0.356721 1.13477 1.13343e-38 3
0.44597 0.372936 1.18635 1.20715e-38 3
0.409322 0.328183 1.04399 1.18886e-38 3
0.423368 0.32601 1.03708 1.26261e-38 3
0.428766 0.317597 1.01031 1.30864e-38 3
0.433893 0.309607 0.984896 1.32701e-38 3
0.436093 0.300168 0.954868 1.24403e-38 3
0.46572 0.309607 0.984896 1.23481e-38 3
0.497271 0.319659 1.01687 1.3086e-38 3
0.557112 0.346672 1.10281 1.2441e-38 3
0.57493 0.346672 1.10281 1.29016e-38 3
0.592749 0.346672 1.10281 1.373e-38 3
0.61929 0.351625 1.11856 1.29924e-38 3
0.675991 0.372936 1.18635 1.15173e-38 3
0.711326 0.381608 1.21394 1.20704e-38 3
0.725317 0.378673 1.2046 1.19782e-38 3
0.711923 0.361967 1.15146 1.27158e-38 3
0.662345 0.328183 1.04399 1.21626e-38 3
0.653089 0.315561 1.00384 1.2808e-38 3
0.625222 0.294775 0.937715 1.16095e-38 3
0.640373 0.294775 0.937715 1.21637e-38 3
0.659473 0.296551 0.943364 1.20715e-38 3
0.674716 0.296551 0.943364 1.15173e-38 3
0.715832 0.307672 0.97874 1.09641e-38 3
0.722613 0.303873 0.966657 1.12418e-38 3
0.629439 0.259092 0.824202 1.10574e-38 3
0.629504 0.25375 0.807208 1.11503e-38 3
0.750927 0.296551 0.943364 1.12425e-38 3
0.847894 0.328183 1.04399 1.25325e-38 3
0.870566 0.330386 1.051 1.17946e-38 3
0.80637 0.300168 0.954868 1.1979e-38 3
0.842343 0.307672 0.97874 1.17031e-38 3
0.869019 0.311566 0.991129 1.10581e-38 3
0.902163 0.317597 1.01031 1.04134e-38 3
0.906787 0.313551 0.997442 9.0305e-39 3
0.899974 0.305761 0.972661 9.21489e-39 3
0.921412 0.307672 0.97874 8.84503e-39 3
0.955135 0.313551 0.997442 9.5826e-39 3
0.977477 0.315561 1.00384 8.93723e-39 3
0.933835 0.296551 0.943364 1.00436e-38 3
0.984668 0.307672 0.97874 1.10574e-38 3
1.60077 0.492275 1.56598 1.06875e-38 3
1.62607 0.492275 1.56598 1.01354e-38 3
1.65138 0.492275 1.56598 9.95138e-39 3
-1.09798 0.470525 1.42362 2.58113e-39 3
-1.11554 0.48828 1.47734 3.77895e-39 3
-1.05198 0.470525 1.42362 3.22578e-39 3
-1.0106 0.462122 1.3982 4.24136e-39 3
-1.00597 0.470525 1.42362 4.05626e-39 3
-0.918035 0.49767 1.50575 4.79418e-39 3
-0.860605 0.479238 1.44999 5.34663e-39 3
-0.76623 0.438625 1.32711 5.34663e-39 3
-0.720368 0.424244 1.28359 5.34735e-39 3
-0.699629 0.424244 1.28359 4.70162e-39 3
-0.667939 0.417401 1.26289 4.42576e-39 3
-0.637256 0.410776 1.24284 4.97821e-39 3
-0.627129 0.417401 1.26289 5.43954e-39 3
-0.626949 0.431314 1.30499 5.71649e-39 3
-0.451441 0.492931 1.49141 7.37493e-39 3
-0.427344 0.492931 1.49141 7.37458e-39 3
-0.382795 0.49767 1.50575 7.55825e-39 3
-0.358466 0.49767 1.50575 8.29689e-39 3
-0.334137 0.49767 1.50575 8.02102e-39 3
-0.309808 0.49767 1.50575 9.03589e-39 3
-0.188162 0.49767 1.50575 9.95713e-39 3
-0.118324 0.359429 1.08749 9.21956e-39 3
-0.100753 0.359429 1.08749 1.06007e-38 3
-0.0826083 0.35695 1.07999 9.58583e-39 3
-0.0660697 0.361942 1.09509 9.86314e-39 3
0.0511909 0.462122 1.3982 1.07869e-38 3
0.0586071 0.367076 1.11063 9.86494e-39 3
0.245049 0.48828 1.47734 1.14305e-38 3
0.263939 0.479238 1.44999 1.17978e-38 3
0.282142 0.470525 1.42362 1.21666e-38 3
0.294437 0.454015 1.37367 1.2535e-38 3
0.347078 0.49767 1.50575 1.21655e-38 3
0.293975 0.369698 1.11856 1.17042e-38 3
0.280043 0.33178 1.00384 1.14269e-38 3
0.296263 0.33178 1.00384 1.23481e-38 3
0.31654 0.336089 1.01687 1.22548e-38 3
0.337351 0.340511 1.03025 1.29002e-38 3
0.368546 0.354505 1.07259 1.19775e-38 3
0.420486 0.369698 1.11856 1.23463e-38 3
0.38374 0.323486 0.97874 1.28087e-38 3
0.399553 0.323486 0.97874 1.39144e-38 3
0.405236 0.315596 0.954868 1.42824e-38 3
0.418115 0.313683 0.949081 1.29917e-38 3
0.43345 0.313683 0.949081 1.28995e-38 3
0.457095 0.319492 0.966657 1.24392e-38 3
0.490895 0.33178 1.00384 1.27158e-38 3
0.507115 0.33178 1.00384 1.22559e-38 3
0.530131 0.336089 1.01687 1.25311e-38 3
0.546561 0.336089 1.01687 1.31764e-38 3
0.570399 0.340511 1.03025 1.32686e-38 3
0.619658 0.359429 1.08749 1.23467e-38 3
0.637229 0.359429 1.08749 1.17009e-38 3
0.532719 0.292416 0.884737 1.33612e-38 3
0.556445 0.297458 0.899991 1.35456e-38 3
0.577626 0.300917 0.910456 1.22559e-38 3
0.592337 0.300917 0.910456 1.22541e-38 3
0.610597 0.302677 0.91578 1.2347e-38 3
0.629073 0.304457 0.921167 1.14261e-38 3
0.63279 0.299178 0.905193 1.19797e-38 3
0.643694 0.297458 0.899991 1.21626e-38 3
0.615769 0.278267 0.841927 1.17939e-38 3
0.626007 0.276779 0.837425 1.15183e-38 3
0.629439 0.272409 0.824202 1.1979e-38 3
0.632765 0.268175 0.811391 1.25329e-38 3
0.642546 0.266792 0.807208 1.19804e-38 3
0.658985 0.268175 0.811391 1.21641e-38 3
0.763026 0.304457 0.921167 1.1979e-38 3
0.796654 0.311793 0.943364 1.13343e-38 3
0.811897 0.311793 0.943364 1.08733e-38 3
0.767067 0.289149 0.874851 1.069e-38 3
0.885034 0.32758 0.991129 1.03212e-38 3
0.895381 0.32552 0.984896 9.30709e-39 3
0.894418 0.319492 0.966657 9.67587e-39 3
0.933076 0.32758 0.991129 8.84611e-39 3
0.955135 0.329667 0.997442 9.4922e-39 3
0.977477 0.33178 1.00384 9.76843e-39 3
0.8909 0.297458 0.899991 9.30745e-39 3
0.885095 0.290774 0.879766 1.03212e-38 3
0.94163 0.304457 0.921167 9.76699e-39 3
1.33285 0.424244 1.28359 1.00436e-38 3
-1.00288 0.424125 1.22343 2.67369e-39 3
-1.12098 0.493527 1.42362 2.3971e-39 3
-1.09798 0.493527 1.42362 3.77895e-39 3
-1.05198 0.493527 1.42362 3.1343e-39 3
-1.0106 0.484714 1.3982 3.77967e-39 3
-1.00597 0.493527 1.42362 4.05626e-39 3
-0.965417 0.484714 1.3982 3.2265e-39 3
-0.942826 0.484714 1.3982 3.87186e-39 3
-0.76623 0.460067 1.32711 4.97785e-39 3
-0.720368 0.444983 1.28359 4.70198e-39 3
-0.688345 0.437806 1.26289 3.50452e-39 3
-0.647066 0.424125 1.22343 5.16296e-39 3
-0.617648 0.4176 1.2046 4.51759e-39 3
-0.598185 0.4176 1.2046 4.88637e-39 3
-0.578722 0.4176 1.2046 5.80833e-39 3
-0.534585 0.399176 1.15146 5.71649e-39 3
-0.449829 0.348 1.00384 6.2693e-39 3
-0.407489 0.327036 0.943364 5.80833e-39 3
-0.412658 0.448661 1.2942 7.46713e-39 3
-0.391747 0.448661 1.2942 6.63737e-39 3
-0.370836 0.448661 1.2942 8.84899e-39 3
-0.347057 0.444983 1.28359 6.63629e-39 3
-0.337379 0.460067 1.32711 8.66568e-39 3
-0.315936 0.460067 1.32711 8.48128e-39 3
-0.289585 0.452399 1.30499 7.65152e-39 3
-0.264098 0.444983 1.28359 7.83663e-39 3
-0.243359 0.444983 1.28359 8.20542e-39 3
-0.219029 0.437806 1.26289 7.65189e-39 3
-0.198624 0.437806 1.26289 7.92847e-39 3
-0.178219 0.437806 1.26289 8.29689e-39 3
-0.152882 0.424125 1.22343 8.66639e-39 3
-0.114353 0.364349 1.051 9.31068e-39 3
-0.097372 0.364349 1.051 1.00472e-38 3
-0.0803906 0.364349 1.051 1.06911e-38 3
-0.0642719 0.369306 1.0653 1.21677e-38 3
-0.0480399 0.377 1.08749 9.95641e-39 3
0.0217902 0.369306 1.0653 9.40396e-39 3
0.0390026 0.369306 1.0653 9.7731e-39 3
0.0577874 0.379636 1.09509 9.03589e-39 3
0.0754813 0.379636 1.09509 1.04181e-38 3
0.0951718 0.387771 1.11856 1.01415e-38 3
0.100344 0.343595 0.991129 1.10628e-38 3
0.120951 0.357157 1.03025 9.77237e-39 3
0.254513 0.484714 1.3982 1.22581e-38 3
0.267549 0.467999 1.34999 1.23499e-38 3
0.279715 0.452399 1.30499 1.22566e-38 3
0.311173 0.467999 1.34999 1.28091e-38 3
0.275902 0.387771 1.11856 1.33612e-38 3
0.254053 0.335111 0.966657 1.29013e-38 3
0.269671 0.335111 0.966657 1.36378e-38 3
0.288856 0.3393 0.97874 1.38207e-38 3
0.30467 0.3393 0.97874 1.45583e-38 3
0.3225 0.341434 0.984896 1.34509e-38 3
0.338413 0.341434 0.984896 1.34509e-38 3
0.345631 0.333055 0.960726 1.31754e-38 3
0.344258 0.317473 0.91578 1.33597e-38 3
0.359055 0.317473 0.91578 1.35456e-38 3
0.37605 0.319341 0.921167 1.31754e-38 3
0.390934 0.319341 0.921167 1.2714e-38 3
0.408219 0.32123 0.926618 1.24378e-38 3
0.42571 0.323142 0.932133 1.26222e-38 3
0.44341 0.325077 0.937715 1.22548e-38 3
0.466949 0.331024 0.954868 1.22559e-38 3
0.491366 0.337192 0.972661 1.24392e-38 3
0.51671 0.343595 0.991129 1.2069e-38 3
0.532724 0.343595 0.991129 1.30839e-38 3
0.548738 0.343595 0.991129 1.28998e-38 3
0.564752 0.343595 0.991129 1.40991e-38 3
0.566426 0.335111 0.966657 1.33612e-38 3
0.520946 0.299933 0.865185 1.24385e-38 3
0.534925 0.299933 0.865185 1.31761e-38 3
0.551954 0.3016 0.869991 1.29935e-38 3
0.569173 0.303285 0.874851 1.27158e-38 3
0.583308 0.303285 0.874851 1.15173e-38 3
0.597443 0.303285 0.874851 1.17031e-38 3
0.598211 0.296655 0.855729 1.15198e-38 3
0.602166 0.291871 0.841927 1.08733e-38 3
0.612476 0.29031 0.837425 1.05968e-38 3
0.619382 0.287238 0.828563 1.1057e-38 3
0.622883 0.28275 0.815617 1.10574e-38 3
0.632765 0.281285 0.811391 1.07811e-38 3
0.642546 0.279835 0.807208 1.06893e-38 3
0.655589 0.279835 0.807208 1.09666e-38 3
0.679133 0.28423 0.819887 1.13347e-38 3
0.699707 0.287238 0.828563 1.12414e-38 3
0.716888 0.288766 0.83297 9.85847e-39 3
0.726482 0.287238 0.828563 9.4904e-39 3
0.739869 0.287238 0.828563 1.03216e-38 3
0.757263 0.288766 0.83297 1.06907e-38 3
0.852328 0.319341 0.921167 1.02298e-38 3
0.888108 0.327036 0.943364 1.09673e-38 3
0.908825 0.329018 0.949081 1.08751e-38 3
0.929795 0.331024 0.954868 9.03158e-39 3
0.85174 0.298285 0.860431 9.21597e-39 3
0.847026 0.291871 0.841927 9.49184e-39 3
0.833735 0.28275 0.815617 8.47733e-39 3
0.785543 0.262261 0.756514 1.05964e-38 3
-1.00288 0.443892 1.22343 3.13467e-39 3
-0.99287 0.498405 1.37367 4.51723e-39 3
-0.720368 0.465723 1.28359 4.60979e-39 3
-0.699629 0.465723 1.28359 4.88637e-39 3
-0.637111 0.437063 1.2046 4.14917e-39 3
-0.617648 0.437063 1.2046 4.97929e-39 3
-0.598185 0.437063 1.2046 4.60979e-39 3
-0.55319 0.417781 1.15146 5.25515e-39 3
-0.484691 0.378788 1.04399 5.53174e-39 3
-0.449829 0.364219 1.00384 4.97856e-39 3
-0.402638 0.338203 0.932133 5.62394e-39 3
-0.392247 0.342278 0.943364 5.1626e-39 3
-0.409858 0.443892 1.22343 7.00651e-39 3
-0.384089 0.437063 1.2046 6.72993e-39 3
-0.382269 0.458211 1.26289 6.63773e-39 3
-0.370836 0.469572 1.2942 8.38909e-39 3
-0.344235 0.461936 1.27316 8.20398e-39 3
-0.323664 0.461936 1.27316 7.92811e-39 3
-0.315936 0.48151 1.32711 7.37493e-39 3
-0.289585 0.473485 1.30499 8.29689e-39 3
-0.264098 0.465723 1.28359 7.55969e-39 3
-0.235633 0.450938 1.24284 7.74444e-39 3
-0.182279 0.38133 1.051 7.09871e-39 3
-0.162035 0.373804 1.03025 7.37565e-39 3
-0.169993 0.437063 1.2046 9.21885e-39 3
-0.146036 0.424016 1.16864 9.86314e-39 3
-0.112839 0.376279 1.03708 1.11535e-38 3
-0.0960823 0.376279 1.03708 1.07847e-38 3
-0.0798546 0.378788 1.04399 9.76915e-39 3
-0.0634092 0.38133 1.051 1.15223e-38 3
-0.0464278 0.38133 1.051 1.0233e-38 3
-0.0294465 0.38133 1.051 9.49579e-39 3
-0.0121392 0.371361 1.02352 8.94298e-39 3
0.00439822 0.371361 1.02352 8.0203e-39 3
0.0209356 0.371361 1.02352 1.01412e-38 3
0.0377196 0.373804 1.03025 1.05103e-38 3
0.0547258 0.376279 1.03708 8.38981e-39 3
0.0729313 0.383906 1.0581 9.31176e-39 3
0.0931752 0.39733 1.09509 1.05096e-38 3
0.0990892 0.355114 0.97874 1.0878e-38 3
0.116358 0.359609 0.991129 1.05085e-38 3
0.137597 0.373804 1.03025 1.1429e-38 3
0.1851 0.368949 1.01687 1.29931e-38 3
0.191578 0.350729 0.966657 1.41902e-38 3
0.202204 0.342278 0.943364 1.30828e-38 3
0.217446 0.342278 0.943364 1.26236e-38 3
0.207668 0.305474 0.841927 1.31768e-38 3
0.244979 0.338203 0.932133 1.38239e-38 3
0.26004 0.338203 0.932133 1.3731e-38 3
0.255342 0.313913 0.865185 1.4743e-38 3
0.263498 0.307125 0.846478 1.35441e-38 3
0.289703 0.321007 0.884737 1.28984e-38 3
0.318388 0.336202 0.926618 1.33597e-38 3
0.331399 0.334224 0.921167 1.32679e-38 3
0.338322 0.326541 0.899991 1.29917e-38 3
0.356967 0.330338 0.910456 1.22541e-38 3
0.371678 0.330338 0.910456 1.27144e-38 3
0.381947 0.326541 0.899991 1.17917e-38 3
0.396489 0.326541 0.899991 1.21608e-38 3
0.415809 0.330338 0.910456 1.21612e-38 3
0.43052 0.330338 0.910456 1.19782e-38 3
0.450469 0.334224 0.921167 1.17027e-38 3
0.465352 0.334224 0.921167 1.1886e-38 3
0.510251 0.355114 0.97874 1.21619e-38 3
0.51957 0.350729 0.966657 1.18853e-38 3
0.528662 0.346452 0.954868 1.25311e-38 3
0.537535 0.342278 0.943364 1.19786e-38 3
0.512631 0.31742 0.874851 1.25321e-38 3
0.512452 0.308794 0.851078 1.29002e-38 3
0.526204 0.308794 0.851078 1.22548e-38 3
0.542905 0.310482 0.855729 1.22559e-38 3
0.559791 0.312188 0.860431 1.20715e-38 3
0.573693 0.312188 0.860431 1.10577e-38 3
0.587595 0.312188 0.860431 1.15191e-38 3
0.591744 0.307125 0.846478 1.13354e-38 3
0.602166 0.305474 0.841927 1.13354e-38 3
0.612476 0.30384 0.837425 1.14269e-38 3
0.622677 0.302224 0.83297 1.10577e-38 3
0.619655 0.294395 0.811391 1.05964e-38 3
0.629504 0.292877 0.807208 1.13343e-38 3
0.632761 0.288417 0.794916 1.05967e-38 3
0.648899 0.289889 0.798972 1.03212e-38 3
0.668631 0.292877 0.807208 1.04131e-38 3
0.681673 0.292877 0.807208 9.95138e-39 3
0.698315 0.294395 0.811391 1.08733e-38 3
0.711425 0.294395 0.811391 1.04131e-38 3
0.724535 0.294395 0.811391 1.00447e-38 3
0.741487 0.295928 0.815617 9.5844e-39 3
0.766644 0.300625 0.828563 9.5844e-39 3
0.801228 0.308794 0.851078 9.67659e-39 3
0.866799 0.328429 0.905193 9.86134e-39 3
0.881424 0.328429 0.905193 8.1107e-39 3
0.807378 0.295928 0.815617 8.1107e-39 3
0.820557 0.295928 0.815617 8.6628e-39 3
0.80847 0.28696 0.790901 8.93867e-39 3
-1.04865 0.49457 1.30499 3.50345e-39 3
-1.02757 0.49457 1.30499 3.1343e-39 3
-0.699629 0.486462 1.28359 4.97856e-39 3
-0.637111 0.456526 1.2046 5.44026e-39 3
-0.617648 0.456526 1.2046 4.70342e-39 3
-0.580329 0.442898 1.16864 5.71649e-39 3
-0.545173 0.430061 1.13477 5.07076e-39 3
-0.511997 0.417946 1.10281 6.17639e-39 3
-0.487315 0.412142 1.08749 6.17783e-39 3
-0.42277 0.370927 0.97874 5.25551e-39 3
-0.412107 0.375623 0.991129 5.71578e-39 3
-0.391142 0.370927 0.97874 6.63773e-39 3
-0.380079 0.375623 0.991129 5.16296e-39 3
-0.355076 0.366348 0.966657 5.34699e-39 3
-0.410388 0.442898 1.16864 5.2548e-39 3
-0.391506 0.442898 1.16864 7.00652e-39 3
-0.372624 0.442898 1.16864 5.25516e-39 3
-0.343488 0.430061 1.13477 7.09907e-39 3
-0.370836 0.490483 1.2942 8.02067e-39 3
-0.349925 0.490483 1.2942 6.54517e-39 3
-0.329014 0.490483 1.2942 6.45334e-39 3
-0.264098 0.486462 1.28359 7.2831e-39 3
-0.231951 0.463659 1.22343 8.66676e-39 3
-0.20892 0.456526 1.2046 8.85043e-39 3
-0.158899 0.382893 1.01031 9.58835e-39 3
-0.142575 0.382893 1.01031 9.49543e-39 3
-0.128743 0.39045 1.03025 1.09695e-38 3
-0.112839 0.393036 1.03708 1.02319e-38 3
-0.0960823 0.393036 1.03708 1.04163e-38 3
-0.0793258 0.393036 1.03708 1.05085e-38 3
-0.0629865 0.395656 1.04399 1.00475e-38 3
-0.0461183 0.395656 1.04399 9.31032e-39 3
-0.0294465 0.398311 1.051 9.12593e-39 3
-0.0120604 0.385379 1.01687 9.2192e-39 3
0.00436966 0.385379 1.01687 8.1125e-39 3
0.0206655 0.382893 1.01031 9.86386e-39 3
0.0372297 0.385379 1.01687 9.86314e-39 3
0.0540105 0.387898 1.02352 1.00475e-38 3
0.0714823 0.393036 1.03708 1.00486e-38 3
0.088827 0.395656 1.04399 1.06011e-38 3
0.0990892 0.370927 0.97874 1.07847e-38 3
0.114903 0.370927 0.97874 1.16134e-38 3
0.134069 0.380438 1.00384 1.29031e-38 3
0.150288 0.380438 1.00384 1.18875e-38 3
0.1644 0.375623 0.991129 1.3453e-38 3
0.171719 0.35752 0.943364 1.33615e-38 3
0.184736 0.353264 0.932133 1.34523e-38 3
0.197446 0.349108 0.921167 1.30835e-38 3
0.194065 0.319077 0.841927 1.19782e-38 3
0.207668 0.319077 0.841927 1.16109e-38 3
0.216613 0.31236 0.824202 1.08737e-38 3
0.22993 0.31236 0.824202 1.14261e-38 3
0.244534 0.314013 0.828563 1.18857e-38 3
0.257922 0.314013 0.828563 1.08712e-38 3
0.271309 0.314013 0.828563 1.10549e-38 3
0.290852 0.320802 0.846478 1.11478e-38 3
0.306184 0.322546 0.851078 1.15165e-38 3
0.319935 0.322546 0.851078 1.14244e-38 3
0.344934 0.333418 0.879766 1.19775e-38 3
0.367405 0.341083 0.899991 1.19761e-38 3
0.375473 0.335302 0.884737 1.16066e-38 3
0.394223 0.339134 0.894848 1.21605e-38 3
0.408681 0.339134 0.894848 1.21616e-38 3
0.420736 0.337207 0.889764 1.20704e-38 3
0.437598 0.339134 0.894848 1.14261e-38 3
0.457283 0.343054 0.905193 1.17939e-38 3
0.469196 0.341083 0.899991 1.21623e-38 3
0.489362 0.345049 0.910456 1.20704e-38 3
0.476377 0.32609 0.860431 1.26236e-38 3
0.464744 0.309106 0.815617 1.17027e-38 3
0.477922 0.309106 0.815617 1.20712e-38 3
0.512452 0.322546 0.851078 1.11485e-38 3
0.526204 0.322546 0.851078 1.17939e-38 3
0.539955 0.322546 0.851078 1.17956e-38 3
0.559791 0.32609 0.860431 1.08744e-38 3
0.580068 0.329713 0.869991 1.15198e-38 3
0.597443 0.331555 0.874851 1.13354e-38 3
0.601498 0.32609 0.860431 1.11517e-38 3
0.608711 0.322546 0.851078 1.13354e-38 3
0.612476 0.317371 0.837425 1.10588e-38 3
0.626007 0.317371 0.837425 1.1151e-38 3
0.616461 0.30592 0.807208 1.17953e-38 3
0.62308 0.302798 0.798972 1.14265e-38 3
0.626402 0.298233 0.786927 1.11499e-38 3
0.639116 0.298233 0.786927 1.069e-38 3
0.658449 0.301261 0.794916 9.30673e-39 3
0.671292 0.301261 0.794916 9.39965e-39 3
0.677261 0.298233 0.786927 1.00443e-38 3
0.689975 0.298233 0.786927 9.30673e-39 3
0.70269 0.298233 0.786927 9.39893e-39 3
0.711828 0.296742 0.782992 8.93831e-39 3
0.724479 0.296742 0.782992 9.2149e-39 3
0.740834 0.298233 0.786927 9.03122e-39 3
0.765083 0.302798 0.798972 8.84755e-39 3
0.781982 0.304351 0.803069 9.21705e-39 3
0.771227 0.295266 0.779097 8.38729e-39 3
0.791693 0.298233 0.786927 7.83412e-39 3
-0.637111 0.475989 1.2046 4.88709e-39 3
-0.60829 0.468777 1.18635 4.33464e-39 3
-0.571794 0.45499 1.15146 5.07112e-39 3
-0.533573 0.438855 1.11063 5.80833e-39 3
-0.511997 0.435765 1.10281 5.34663e-39 3
-0.494179 0.435765 1.10281 4.14952e-39 3
-0.450954 0.412524 1.04399 5.07112e-39 3
-0.412107 0.391637 0.991129 6.26859e-39 3
-0.386313 0.381967 0.966657 6.17675e-39 3
-0.363954 0.375022 0.949081 5.25515e-39 3
-0.355076 0.381967 0.966657 5.62358e-39 3
-0.357091 0.401809 1.01687 6.26859e-39 3
-0.340661 0.401809 1.01687 6.36115e-39 3
-0.324231 0.401809 1.01687 6.45406e-39 3
-0.301919 0.394131 0.997442 6.36115e-39 3
-0.283994 0.391637 0.991129 6.36115e-39 3
-0.330788 0.483427 1.22343 6.54517e-39 3
-0.228383 0.475989 1.2046 8.85115e-39 3
-0.18351 0.418099 1.0581 9.40396e-39 3
-0.147481 0.370531 0.937715 9.31176e-39 3
-0.13233 0.370531 0.937715 8.66567e-39 3
-0.123854 0.391637 0.991129 8.20469e-39 3
-0.110641 0.401809 1.01687 8.94226e-39 3
-0.0942105 0.401809 1.01687 9.12665e-39 3
-0.0782889 0.404435 1.02352 8.38909e-39 3
-0.0617515 0.404435 1.02352 8.11214e-39 3
-0.045214 0.404435 1.02352 8.84934e-39 3
-0.0284904 0.401809 1.01687 9.12593e-39 3
-0.0118299 0.394131 0.997442 9.6791e-39 3
0.00428616 0.394131 0.997442 8.01958e-39 3
0.0202731 0.391637 0.991129 9.58655e-39 3
0.0362872 0.391637 0.991129 9.21777e-39 3
0.0526344 0.394131 0.997442 1.03238e-38 3
0.0691912 0.396658 1.00384 1.06007e-38 3
0.0812442 0.377309 0.954868 1.16152e-38 3
0.0978659 0.381967 0.966657 1.12446e-38 3
0.113485 0.381967 0.966657 1.14287e-38 3
0.129103 0.381967 0.966657 1.28098e-38 3
0.142957 0.377309 0.954868 1.37303e-38 3
0.156477 0.372763 0.943364 1.2992e-38 3
0.167679 0.363992 0.921167 1.18875e-38 3
0.178366 0.355624 0.899991 1.03202e-38 3
0.186477 0.34377 0.869991 1.19793e-38 3
0.196174 0.336297 0.851078 1.04127e-38 3
0.207668 0.332681 0.841927 1.07815e-38 3
0.215479 0.323972 0.819887 1.10595e-38 3
0.227535 0.322284 0.815617 1.16113e-38 3
0.240713 0.322284 0.815617 1.24389e-38 3
0.253892 0.322284 0.815617 1.18857e-38 3
0.268468 0.323972 0.819887 1.17924e-38 3
0.286211 0.329142 0.83297 1.22541e-38 3
0.293426 0.322284 0.815617 1.20697e-38 3
0.309832 0.325677 0.824202 1.15173e-38 3
0.337353 0.339992 0.860431 1.28066e-38 3
0.371678 0.359759 0.910456 1.17917e-38 3
0.373364 0.347633 0.879766 1.28051e-38 3
0.401099 0.359759 0.910456 1.23441e-38 3
0.415809 0.359759 0.910456 1.16084e-38 3
0.43052 0.359759 0.910456 1.16091e-38 3
0.445231 0.359759 0.910456 1.08726e-38 3
0.459941 0.359759 0.910456 1.30846e-38 3
0.469196 0.355624 0.899991 1.19782e-38 3
0.457448 0.336297 0.851078 1.19782e-38 3
0.427096 0.304821 0.771421 1.24392e-38 3
0.437406 0.303327 0.767639 1.20715e-38 3
0.454263 0.30633 0.77524 1.19793e-38 3
0.504231 0.330902 0.837425 1.11496e-38 3
0.520546 0.332681 0.841927 1.12418e-38 3
0.537036 0.334479 0.846478 1.07815e-38 3
0.553706 0.336297 0.851078 1.0506e-38 3
0.576863 0.341871 0.865185 9.4922e-39 3
0.590842 0.341871 0.865185 9.86098e-39 3
0.588562 0.332681 0.841927 1.00454e-38 3
0.602166 0.332681 0.841927 1.01376e-38 3
0.602805 0.325677 0.824202 9.0305e-39 3
0.616122 0.325677 0.824202 9.85991e-39 3
0.629439 0.325677 0.824202 1.17949e-38 3
0.619917 0.314105 0.794916 1.14265e-38 3
0.626402 0.310948 0.786927 1.11499e-38 3
0.66939 0.325677 0.824202 1.1612e-38 3
0.655123 0.312518 0.790901 9.95282e-39 3
0.664546 0.310948 0.786927 1.0045e-38 3
0.677261 0.310948 0.786927 1.05982e-38 3
0.686525 0.309393 0.782992 1.11506e-38 3
0.699176 0.309393 0.782992 1.08741e-38 3
0.708286 0.307854 0.779097 1.09655e-38 3
0.720874 0.307854 0.779097 9.30709e-39 3
0.740834 0.310948 0.786927 8.66244e-39 3
0.749781 0.309393 0.782992 8.20218e-39 3
0.758639 0.307854 0.779097 8.2951e-39 3
0.763629 0.304821 0.771421 7.74192e-39 3
-0.60829 0.487946 1.18635 4.61015e-39 3
-0.571794 0.473594 1.15146 4.97893e-39 3
-0.526111 0.450411 1.09509 4.70198e-39 3
-0.511997 0.453583 1.10281 4.60978e-39 3
-0.438584 0.402555 0.97874 5.62466e-39 3
-0.469744 0.447284 1.08749 5.25551e-39 3
-0.458542 0.453583 1.10281 5.992e-39 3
-0.414455 0.426549 1.03708 7.00615e-39 3
-0.397698 0.426549 1.03708 5.8998e-39 3
-0.375962 0.420973 1.02352 8.75787e-39 3
-0.357091 0.418239 1.01687 5.2548e-39 3
-0.338463 0.415541 1.01031 6.54554e-39 3
-0.322139 0.415541 1.01031 7.09871e-39 3
-0.303855 0.412877 1.00384 8.29725e-39 3
-0.283994 0.407651 0.991129 7.55933e-39 3
-0.320764 0.487946 1.18635 7.74372e-39 3
-0.200607 0.435195 1.0581 8.85114e-39 3
-0.169747 0.402555 0.97874 9.8653e-39 3
-0.145736 0.381117 0.926618 9.03517e-39 3
-0.131542 0.383386 0.932133 8.0203e-39 3
-0.118599 0.390357 0.949081 8.38909e-39 3
-0.106492 0.402555 0.97874 8.482e-39 3
-0.0912479 0.405087 0.984896 9.03517e-39 3
-0.0758114 0.407651 0.991129 8.66568e-39 3
-0.0590498 0.402555 0.97874 9.03482e-39 3
-0.0435078 0.405087 0.984896 9.49543e-39 3
-0.0277691 0.407651 0.991129 1.01394e-38 3
-0.0113945 0.395146 0.960726 1.04149e-38 3
0.00412839 0.395146 0.960726 1.05071e-38 3
0.0196512 0.395146 0.960726 1.0322e-38 3
0.035611 0.400055 0.972661 1.07829e-38 3
0.0519723 0.405087 0.984896 1.08751e-38 3
0.0678857 0.405087 0.984896 1.16131e-38 3
0.076575 0.370166 0.899991 1.16134e-38 3
0.0911165 0.370166 0.899991 1.13365e-38 3
0.105658 0.370166 0.899991 1.25343e-38 3
0.118834 0.365959 0.889764 1.15191e-38 3
0.11381 0.312664 0.760186 1.17953e-38 3
0.145928 0.361847 0.879766 1.14265e-38 3
0.158363 0.357827 0.869991 8.84646e-39 3
0.168672 0.350048 0.851078 8.75427e-39 3
0.180462 0.346284 0.841927 1.02294e-38 3
0.192 0.3426 0.83297 1.02294e-38 3
0.204372 0.340788 0.828563 1.13357e-38 3
0.217759 0.340788 0.828563 1.05989e-38 3
0.22993 0.338994 0.824202 1.12435e-38 3
0.241974 0.337219 0.819887 1.14261e-38 3
0.253892 0.335463 0.815617 1.18853e-38 3
0.26707 0.335463 0.815617 1.15169e-38 3
0.283198 0.338994 0.824202 1.21619e-38 3
0.287438 0.328617 0.798972 1.34534e-38 3
0.309832 0.338994 0.824202 1.44675e-38 3
0.337353 0.353895 0.860431 1.44672e-38 3
0.355159 0.357827 0.869991 1.55717e-38 3
0.386388 0.37447 0.910456 1.511e-38 3
0.401099 0.37447 0.910456 1.47423e-38 3
0.406359 0.365959 0.889764 1.37289e-38 3
0.411386 0.357827 0.869991 1.33612e-38 3
0.411719 0.346284 0.841927 1.32693e-38 3
0.425322 0.346284 0.841927 1.22559e-38 3
0.434256 0.3426 0.83297 1.19793e-38 3
0.4126 0.31573 0.767639 1.29016e-38 3
0.420877 0.312664 0.760186 1.33623e-38 3
0.431067 0.311154 0.756514 1.11496e-38 3
0.447615 0.314189 0.763895 1.17017e-38 3
0.478636 0.326948 0.794916 1.18871e-38 3
0.501666 0.333725 0.811391 1.22559e-38 3
0.522904 0.338994 0.824202 1.17035e-38 3
0.530635 0.335463 0.815617 1.04138e-38 3
0.543813 0.335463 0.815617 1.15212e-38 3
0.556992 0.335463 0.815617 9.3096e-39 3
0.573155 0.337219 0.819887 1.00461e-38 3
0.589489 0.338994 0.824202 1.15212e-38 3
0.602805 0.338994 0.824202 1.10595e-38 3
0.616122 0.338994 0.824202 9.58404e-39 3
0.629439 0.338994 0.824202 1.09663e-38 3
0.649594 0.3426 0.83297 1.06889e-38 3
0.656073 0.338994 0.824202 1.05046e-38 3
0.683786 0.346284 0.841927 1.06904e-38 3
0.658449 0.326948 0.794916 1.10588e-38 3
0.667902 0.325297 0.790901 1.09666e-38 3
0.701952 0.335463 0.815617 1.0229e-38 3
0.715131 0.335463 0.815617 1.02294e-38 3
0.699176 0.322044 0.782992 1.00454e-38 3
0.708286 0.320442 0.779097 9.95246e-39 3
0.720874 0.320442 0.779097 1.05064e-38 3
0.752173 0.328617 0.798972 8.57024e-39 3
0.727943 0.312664 0.760186 8.75499e-39 3
0.740225 0.312664 0.760186 7.27987e-39 3
-0.599211 0.499545 1.16864 4.05698e-39 3
-0.480025 0.413204 0.966657 4.42576e-39 3
-0.476163 0.423665 0.991129 4.05697e-39 3
-0.460149 0.423665 0.991129 5.43954e-39 3
-0.438584 0.418369 0.97874 5.99343e-39 3
-0.469744 0.464855 1.08749 6.08491e-39 3
-0.439952 0.452291 1.0581 7.37457e-39 3
-0.431605 0.461649 1.07999 6.82176e-39 3
-0.403037 0.449255 1.051 6.72956e-39 3
-0.386055 0.449255 1.051 7.46713e-39 3
-0.354787 0.431865 1.01031 6.26895e-39 3
-0.338463 0.431865 1.01031 7.46749e-39 3
-0.320074 0.429097 1.00384 7.28346e-39 3
-0.301919 0.426363 0.997442 7.74408e-39 3
-0.280445 0.418369 0.97874 8.02031e-39 3
-0.26798 0.423665 0.991129 8.1125e-39 3
-0.251966 0.423665 0.991129 8.75787e-39 3
-0.211974 0.440389 1.03025 7.65224e-39 3
-0.181035 0.408165 0.954868 7.56076e-39 3
-0.163612 0.403247 0.943364 8.7593e-39 3
-0.145736 0.396089 0.926618 8.66639e-39 3
-0.130764 0.396089 0.926618 7.83591e-39 3
-0.117179 0.400833 0.937715 9.40395e-39 3
-0.102028 0.400833 0.937715 8.48272e-39 3
-0.0853437 0.393759 0.921167 8.75931e-39 3
-0.0665455 0.371884 0.869991 8.94226e-39 3
-0.0507955 0.359887 0.841927 1.04163e-38 3
-0.0360299 0.348641 0.815617 1.04159e-38 3
-0.0226161 0.345047 0.807208 1.11521e-38 3
-0.0095737 0.345047 0.807208 1.16127e-38 3
0.00338155 0.336377 0.786927 1.24407e-38 3
0.0158572 0.331381 0.77524 1.21641e-38 3
0.0283831 0.331381 0.77524 1.18886e-38 3
0.0430396 0.348641 0.815617 1.19808e-38 3
0.0529109 0.328133 0.767639 1.12439e-38 3
0.0656357 0.329749 0.771421 1.14283e-38 3
0.078877 0.33303 0.779097 1.04145e-38 3
0.0914652 0.33303 0.779097 1.03216e-38 3
0.102023 0.326532 0.763895 9.67623e-39 3
0.112716 0.321822 0.752877 9.12341e-39 3
0.126093 0.324947 0.760186 9.39999e-39 3
0.153255 0.359887 0.841927 9.95389e-39 3
0.163345 0.352311 0.824202 9.30887e-39 3
0.174822 0.348641 0.815617 1.00464e-38 3
0.188 0.348641 0.815617 1.33651e-38 3
0.201179 0.348641 0.815617 1.07833e-38 3
0.214357 0.348641 0.815617 1.04138e-38 3
0.228726 0.350466 0.819887 1.02294e-38 3
0.241974 0.350466 0.819887 1.10584e-38 3
0.253892 0.348641 0.815617 1.04127e-38 3
0.26707 0.348641 0.815617 1.21648e-38 3
0.277359 0.345047 0.807208 1.22573e-38 3
0.283105 0.336377 0.786927 1.17953e-38 3
0.291426 0.331381 0.77524 1.29942e-38 3
0.303952 0.331381 0.77524 1.39151e-38 3
0.329529 0.345047 0.807208 1.37296e-38 3
0.357305 0.359887 0.841927 1.39133e-38 3
0.383272 0.371884 0.869991 1.46512e-38 3
0.384512 0.359887 0.841927 1.40987e-38 3
0.377803 0.341526 0.798972 1.35456e-38 3
0.390713 0.341526 0.798972 1.39147e-38 3
0.403622 0.341526 0.798972 1.28091e-38 3
0.416531 0.341526 0.798972 1.14269e-38 3
0.404665 0.321822 0.752877 1.17034e-38 3
0.410903 0.317247 0.742173 1.14269e-38 3
0.418924 0.314268 0.735204 1.13347e-38 3
0.430803 0.314268 0.735204 1.15187e-38 3
0.466788 0.331381 0.77524 1.15191e-38 3
0.484107 0.334695 0.782992 1.1151e-38 3
0.504323 0.339792 0.794916 1.07822e-38 3
0.519806 0.341526 0.798972 1.04142e-38 3
0.532715 0.341526 0.798972 1.08758e-38 3
0.545624 0.341526 0.798972 9.86278e-39 3
0.558534 0.341526 0.798972 1.03234e-38 3
0.571443 0.341526 0.798972 1.11524e-38 3
0.602805 0.352311 0.824202 1.02305e-38 3
0.622677 0.356059 0.83297 9.30781e-39 3
0.642976 0.359887 0.841927 9.12342e-39 3
0.671009 0.367797 0.860431 9.21525e-39 3
0.677467 0.363799 0.851078 9.21525e-39 3
0.691218 0.363799 0.851078 7.92487e-39 3
0.70497 0.363799 0.851078 8.10926e-39 3
0.688774 0.348641 0.815617 9.30745e-39 3
0.701952 0.348641 0.815617 9.4e-39 3
0.700536 0.341526 0.798972 9.12413e-39 3
0.713445 0.341526 0.798972 8.75607e-39 3
0.668383 0.314268 0.735204 8.01815e-39 3
0.731797 0.338076 0.790901 8.75571e-39 3
0.744576 0.338076 0.790901 8.93974e-39 3
0.757354 0.338076 0.790901 8.6628e-39 3
0.762432 0.334695 0.782992 8.10963e-39 3
-0.559625 0.469387 1.0581 3.78002e-39 3
-0.486632 0.421026 0.949081 4.97893e-39 3
-0.471297 0.421026 0.949081 4.61123e-39 3
-0.461557 0.426192 0.960726 4.88673e-39 3
-0.448788 0.428823 0.966657 5.07148e-39 3
-0.441342 0.436914 0.984896 5.71684e-39 3
-0.457048 0.469387 1.0581 5.53173e-39 3
-0.434086 0.463129 1.04399 6.17566e-39 3
-0.417218 0.463129 1.04399 8.29616e-39 3
-0.403037 0.466237 1.051 8.75787e-39 3
-0.386055 0.466237 1.051 6.91396e-39 3
-0.354787 0.448189 1.01031 6.45334e-39 3
-0.338463 0.448189 1.01031 7.28345e-39 3
-0.320074 0.445316 1.00384 8.02102e-39 3
-0.301919 0.44248 0.997442 6.3615e-39 3
-0.280445 0.434183 0.97874 6.72956e-39 3
-0.258176 0.423593 0.954868 7.92811e-39 3
-0.242748 0.423593 0.954868 8.38908e-39 3
-0.22732 0.423593 0.954868 8.57347e-39 3
-0.206847 0.413508 0.932133 7.1909e-39 3
-0.179 0.38594 0.869991 8.11321e-39 3
-0.163131 0.381699 0.860431 8.29832e-39 3
-0.150886 0.38594 0.869991 9.12808e-39 3
-0.144878 0.408643 0.921167 8.66639e-39 3
-0.129995 0.408643 0.921167 8.1125e-39 3
-0.108716 0.38594 0.869991 8.66603e-39 3
-0.0936189 0.381699 0.860431 9.58835e-39 3
-0.0797166 0.381699 0.860431 1.03252e-38 3
-0.0637138 0.369518 0.83297 1.00472e-38 3
-0.0467721 0.343907 0.77524 1.00461e-38 3
-0.0356585 0.358089 0.807208 1.04145e-38 3
-0.0226161 0.358089 0.807208 1.10592e-38 3
-0.00947601 0.354435 0.798972 1.19793e-38 3
0.00338155 0.349092 0.786927 1.19793e-38 3
0.0158572 0.343907 0.77524 1.17031e-38 3
0.0282432 0.342213 0.771421 1.17034e-38 3
0.0393505 0.330806 0.745707 1.04138e-38 3
0.0513992 0.330806 0.745707 1.02305e-38 3
0.0679799 0.354435 0.798972 1.00464e-38 3
0.0843313 0.369518 0.83297 9.21668e-39 3
0.0977899 0.369518 0.83297 8.8479e-39 3
0.111249 0.369518 0.83297 8.57024e-39 3
0.122109 0.361819 0.815617 9.49291e-39 3
0.133893 0.358089 0.807208 9.67838e-39 3
0.143967 0.350855 0.790901 9.58654e-39 3
0.152135 0.340536 0.767639 9.77093e-39 3
0.164538 0.340536 0.767639 1.02308e-38 3
0.176942 0.340536 0.767639 1.189e-38 3
0.193132 0.347346 0.782992 1.18889e-38 3
0.207861 0.350855 0.790901 1.41016e-38 3
0.22064 0.350855 0.790901 1.08748e-38 3
0.238232 0.358089 0.807208 1.02301e-38 3
0.249986 0.356253 0.803069 8.84754e-39 3
0.260291 0.352636 0.794916 1.05071e-38 3
0.266375 0.343907 0.77524 1.189e-38 3
0.273485 0.33723 0.760186 1.08751e-38 3
0.278996 0.329238 0.742173 1.03212e-38 3
0.288255 0.326147 0.735204 1.23488e-38 3
0.298732 0.324623 0.731768 1.17031e-38 3
0.296691 0.310131 0.6991 1.27162e-38 3
0.302583 0.30469 0.686835 1.33615e-38 3
0.319282 0.310131 0.6991 1.24407e-38 3
0.333556 0.312925 0.705398 1.19793e-38 3
0.354536 0.321617 0.724993 1.22559e-38 3
0.36625 0.321617 0.724993 1.19782e-38 3
0.381496 0.324623 0.731768 1.15191e-38 3
0.389678 0.321617 0.724993 1.10592e-38 3
0.399542 0.320135 0.721652 1.11513e-38 3
0.403759 0.314341 0.70859 1.06904e-38 3
0.407827 0.308752 0.695993 1.11514e-38 3
0.402954 0.296877 0.669224 1.0506e-38 3
0.412006 0.295614 0.666376 9.58439e-39 3
0.422773 0.295614 0.666376 8.47804e-39 3
0.428075 0.291888 0.657977 9.86098e-39 3
0.49251 0.327685 0.738672 9.4018e-39 3
0.453146 0.294361 0.663553 8.01922e-39 3
0.465841 0.295614 0.666376 1.03241e-38 3
0.509104 0.315769 0.711811 1.07847e-38 3
0.525381 0.318666 0.718341 1.13368e-38 3
0.568268 0.33723 0.760186 1.05071e-38 3
0.629439 0.365628 0.824202 1.0968e-38 3
0.671009 0.381699 0.860431 1.02305e-38 3
0.677467 0.37755 0.851078 9.49291e-39 3
0.691218 0.37755 0.851078 9.03193e-39 3
0.70497 0.37755 0.851078 7.37169e-39 3
0.601673 0.310131 0.6991 7.5568e-39 3
0.635672 0.321617 0.724993 7.74228e-39 3
0.647386 0.321617 0.724993 6.91396e-39 3
0.650071 0.317211 0.715061 7.09727e-39 3
0.710273 0.340536 0.767639 7.55825e-39 3
0.729832 0.343907 0.77524 7.46569e-39 3
0.742357 0.343907 0.77524 7.92667e-39 3
-0.608125 0.458596 0.997442 3.96478e-39 3
-0.592009 0.458596 0.997442 3.50415e-39 3
-0.561585 0.447202 0.972661 6.08599e-39 3
-0.545869 0.447202 0.972661 4.51759e-39 3
-0.520456 0.439021 0.954868 4.88565e-39 3
-0.498943 0.433732 0.943364 4.70198e-39 3
-0.4837 0.433732 0.943364 4.79454e-39 3
-0.471297 0.436361 0.949081 3.78038e-39 3
-0.458743 0.439021 0.954868 6.08492e-39 3
-0.446034 0.441715 0.960726 6.08527e-39 3
-0.444135 0.455693 0.991129 6.45369e-39 3
-0.453981 0.483218 1.051 6.73028e-39 3
-0.434086 0.479997 1.04399 6.82212e-39 3
-0.417218 0.479997 1.04399 7.0987e-39 3
-0.403037 0.483218 1.051 7.37494e-39 3
-0.388664 0.486483 1.0581 6.36043e-39 3
-0.369074 0.483218 1.051 6.63773e-39 3
-0.336294 0.461535 1.00384 7.56004e-39 3
-0.312072 0.449997 0.97874 7.83735e-39 3
-0.290806 0.441715 0.960726 6.26823e-39 3
-0.273604 0.439021 0.954868 7.92739e-39 3
-0.255066 0.433732 0.943364 8.29689e-39 3
-0.239823 0.433732 0.943364 8.20541e-39 3
-0.214255 0.41379 0.899991 8.20541e-39 3
-0.190935 0.395602 0.860431 7.92882e-39 3
-0.173226 0.387094 0.841927 8.57455e-39 3
-0.157924 0.382976 0.83297 7.56004e-39 3
-0.146019 0.387094 0.841927 8.7593e-39 3
-0.137594 0.402232 0.874851 7.46785e-39 3
-0.123459 0.402232 0.874851 8.66459e-39 3
-0.10409 0.382976 0.83297 9.40215e-39 3
-0.0896771 0.378945 0.824202 9.6791e-39 3
-0.0755647 0.374997 0.815617 9.95569e-39 3
-0.0623864 0.374997 0.815617 1.1429e-38 3
-0.0467721 0.356433 0.77524 9.95317e-39 3
-0.0347625 0.361807 0.786927 1.05975e-38 3
-0.0219376 0.359998 0.782992 1.1334e-38 3
-0.00928649 0.359998 0.782992 1.18871e-38 3
0.00336464 0.359998 0.782992 1.19797e-38 3
0.0159361 0.358207 0.779097 1.11499e-38 3
0.0282432 0.354677 0.771421 1.05982e-38 3
0.0401146 0.349512 0.760186 8.4784e-39 3
0.0539691 0.359998 0.782992 9.40215e-39 3
0.0666203 0.359998 0.782992 9.12556e-39 3
0.0800721 0.363634 0.790901 8.11141e-39 3
0.092851 0.363634 0.790901 9.4018e-39 3
0.10563 0.363634 0.790901 9.67874e-39 3
0.100622 0.309011 0.672096 1.02323e-38 3
0.126093 0.349512 0.760186 1.03245e-38 3
0.128403 0.324322 0.705398 1.00464e-38 3
0.1398 0.324322 0.705398 1.02308e-38 3
0.152572 0.327271 0.711811 1.02301e-38 3
0.164073 0.327271 0.711811 1.05982e-38 3
0.178825 0.333331 0.724993 1.15187e-38 3
0.195983 0.342855 0.745707 1.17027e-38 3
0.212072 0.349512 0.760186 1.28091e-38 3
0.226554 0.352939 0.767639 1.07826e-38 3
0.238957 0.352939 0.767639 9.77058e-39 3
0.25136 0.352939 0.767639 9.95497e-39 3
0.263763 0.352939 0.767639 9.58691e-39 3
0.264497 0.338026 0.735204 9.3096e-39 3
0.272537 0.333331 0.724993 1.05063e-38 3
0.281644 0.330273 0.718341 1.08737e-38 3
0.287966 0.324322 0.705398 1.16113e-38 3
0.291486 0.315787 0.686835 1.15187e-38 3
0.298654 0.311686 0.677915 1.20708e-38 3
0.313681 0.315787 0.686835 1.29942e-38 3
0.330578 0.321426 0.6991 1.2073e-38 3
0.341874 0.321426 0.6991 1.1796e-38 3
0.350044 0.318582 0.692913 1.29935e-38 3
0.367748 0.324322 0.705398 1.08737e-38 3
0.379146 0.324322 0.705398 1.08748e-38 3
0.39231 0.32579 0.70859 1.05071e-38 3
0.386281 0.311686 0.677915 1.18896e-38 3
0.393824 0.309011 0.672096 1.05989e-38 3
0.396182 0.302519 0.657977 1.05067e-38 3
0.401749 0.298753 0.649786 9.67659e-39 3
0.412248 0.298753 0.649786 1.05063e-38 3
0.424508 0.299998 0.652493 9.76878e-39 3
0.431455 0.297519 0.647101 9.6773e-39 3
0.441911 0.297519 0.647101 8.75643e-39 3
0.46191 0.303795 0.660753 8.94118e-39 3
0.482771 0.310343 0.674993 9.49364e-39 3
0.495814 0.311686 0.677915 1.03227e-38 3
0.50027 0.30769 0.669224 9.95389e-39 3
0.510687 0.283463 0.616529 9.03157e-39 3
0.520648 0.283463 0.616529 7.92558e-39 3
0.534821 0.285712 0.621422 8.10962e-39 3
0.592522 0.305083 0.663553 7.09834e-39 3
0.603244 0.305083 0.663553 7.19126e-39 3
0.710273 0.352939 0.767639 7.37457e-39 3
0.729832 0.356433 0.77524 7.09762e-39 3
-0.563365 0.477755 1.00384 4.60978e-39 3
-0.54022 0.471707 0.991129 4.79346e-39 3
-0.498943 0.448974 0.943364 4.79418e-39 3
-0.4837 0.448974 0.943364 3.68819e-39 3
-0.468458 0.448974 0.943364 4.79454e-39 3
-0.455963 0.451695 0.949081 5.25587e-39 3
-0.446034 0.457238 0.960726 5.62501e-39 3
-0.444135 0.471707 0.991129 7.00687e-39 3
-0.439241 0.483959 1.01687 5.25515e-39 3
-0.422811 0.483959 1.01687 6.63808e-39 3
-0.406381 0.483959 1.01687 7.0987e-39 3
-0.395082 0.490327 1.03025 6.82176e-39 3
-0.375962 0.487122 1.02352 6.82141e-39 3
-0.331277 0.448974 0.943364 8.66639e-39 3
-0.312273 0.443629 0.932133 7.28345e-39 3
-0.302616 0.451695 0.949081 6.08527e-39 3
-0.287281 0.451695 0.949081 6.63737e-39 3
-0.263948 0.43841 0.921167 7.74299e-39 3
-0.246168 0.433312 0.910456 8.38908e-39 3
-0.228797 0.428332 0.899991 7.46713e-39 3
-0.204838 0.409504 0.860431 7.0065e-39 3
-0.184842 0.396435 0.83297 7.55968e-39 3
-0.167812 0.388176 0.815617 6.72992e-39 3
-0.154634 0.388176 0.815617 6.63772e-39 3
-0.141456 0.388176 0.815617 7.37565e-39 3
-0.126955 0.384174 0.807208 8.57347e-39 3
-0.113913 0.384174 0.807208 9.4018e-39 3
-0.0988327 0.376413 0.790901 9.77058e-39 3
-0.0835228 0.365342 0.767639 9.03337e-39 3
-0.0711197 0.365342 0.767639 1.07847e-38 3
-0.0587167 0.365342 0.767639 1.0968e-38 3
-0.0463136 0.365342 0.767639 1.14279e-38 3
-0.0340776 0.367142 0.771421 1.17034e-38 3
-0.0211958 0.360047 0.756514 1.1334e-38 3
-0.00867896 0.34827 0.731768 1.20722e-38 3
0.00310105 0.343455 0.721652 1.07815e-38 3
0.014968 0.34827 0.731768 1.22566e-38 3
0.0270442 0.351555 0.738672 1.0967e-38 3
0.0397289 0.358316 0.752877 1.00464e-38 3
0.0513992 0.354904 0.745707 9.95568e-39 3
0.0600183 0.33572 0.705398 8.94189e-39 3
0.0701517 0.329778 0.692913 1.06011e-38 3
0.0779004 0.315804 0.663553 9.31032e-39 3
0.0886217 0.315804 0.663553 1.01394e-38 3
0.099343 0.315804 0.663553 1.00479e-38 3
0.111481 0.31987 0.672096 1.03237e-38 3
0.121818 0.318503 0.669224 1.06911e-38 3
0.132067 0.317148 0.666376 1.13361e-38 3
0.143444 0.318503 0.669224 1.25343e-38 3
0.156939 0.324042 0.680863 1.2718e-38 3
0.175574 0.338772 0.711811 1.29016e-38 3
0.187075 0.338772 0.711811 1.2625e-38 3
0.200398 0.34188 0.718341 1.22563e-38 3
0.212004 0.34188 0.718341 1.03205e-38 3
0.21287 0.325457 0.683836 1.0322e-38 3
0.237395 0.345045 0.724993 1.05081e-38 3
0.249109 0.345045 0.724993 9.6791e-39 3
0.256081 0.338772 0.711811 9.21812e-39 3
0.266371 0.337239 0.70859 9.4018e-39 3
0.272881 0.331243 0.695993 9.21561e-39 3
0.279164 0.325457 0.683836 9.58475e-39 3
0.28646 0.321249 0.674993 1.11513e-38 3
0.294825 0.318503 0.669224 1.13357e-38 3
0.305638 0.318503 0.669224 1.17045e-38 3
0.321954 0.324042 0.680863 1.09673e-38 3
0.337355 0.328325 0.689861 1.0322e-38 3
0.350044 0.329778 0.692913 1.14279e-38 3
0.366099 0.334214 0.702235 1.06904e-38 3
0.37576 0.332722 0.6991 9.67659e-39 3
0.387056 0.332722 0.6991 8.94082e-39 3
0.381328 0.318503 0.669224 9.49399e-39 3
0.390472 0.317148 0.666376 9.95425e-39 3
0.39288 0.310541 0.652493 8.47876e-39 3
0.398442 0.306707 0.644438 8.93974e-39 3
0.407179 0.30545 0.641797 9.6773e-39 3
0.415845 0.304203 0.639177 9.86205e-39 3
0.42968 0.306707 0.644438 1.02312e-38 3
0.441911 0.307974 0.647101 9.21812e-39 3
0.463867 0.315804 0.663553 8.94118e-39 3
0.480699 0.31987 0.672096 8.01886e-39 3
0.495814 0.32264 0.677915 9.21633e-39 3
0.488137 0.304203 0.639177 1.10602e-38 3
0.508684 0.292273 0.614111 1.03223e-38 3
0.518606 0.292273 0.614111 9.67694e-39 3
0.528529 0.292273 0.614111 9.58475e-39 3
0.542708 0.294584 0.618966 9.30852e-39 3
0.561588 0.299316 0.628909 8.20469e-39 3
0.567193 0.296931 0.623898 6.08491e-39 3
0.652684 0.33572 0.705398 6.91467e-39 3
-0.572248 0.487721 0.991129 4.88781e-39 3
-0.529427 0.464217 0.943364 4.241e-39 3
-0.502087 0.453294 0.921167 5.992e-39 3
-0.498943 0.464217 0.943364 6.2693e-39 3
-0.4837 0.464217 0.943364 4.88673e-39 3
-0.465653 0.461437 0.937715 6.27002e-39 3
-0.455963 0.46703 0.949081 5.90124e-39 3
-0.440628 0.46703 0.949081 8.11357e-39 3
-0.438584 0.481625 0.97874 7.09978e-39 3
-0.425429 0.484654 0.984896 5.90124e-39 3
-0.383017 0.453294 0.921167 5.90052e-39 3
-0.363853 0.448023 0.910456 6.3615e-39 3
-0.345129 0.442873 0.899991 6.26859e-39 3
-0.319568 0.428111 0.869991 6.82176e-39 3
-0.260626 0.365213 0.742173 6.73028e-39 3
-0.248634 0.365213 0.742173 5.80832e-39 3
-0.262798 0.405579 0.824202 5.80869e-39 3
-0.249481 0.405579 0.824202 6.54517e-39 3
-0.233704 0.401354 0.815617 7.28201e-39 3
-0.220525 0.401354 0.815617 6.63772e-39 3
-0.207347 0.401354 0.815617 6.91359e-39 3
-0.194169 0.401354 0.815617 7.65116e-39 3
-0.180991 0.401354 0.815617 9.03445e-39 3
-0.162727 0.389192 0.790901 8.02029e-39 3
-0.146979 0.381485 0.77524 8.11249e-39 3
-0.134453 0.381485 0.77524 8.2958e-39 3
-0.124391 0.389192 0.790901 8.66315e-39 3
-0.111612 0.389192 0.790901 9.30816e-39 3
-0.0988327 0.389192 0.790901 9.21668e-39 3
-0.0796198 0.360093 0.731768 1.02316e-38 3
-0.067481 0.358418 0.728365 1.09691e-38 3
-0.0559729 0.360093 0.731768 8.66279e-39 3
-0.0445659 0.36349 0.738672 1.0229e-38 3
-0.0324777 0.361784 0.735204 1.22559e-38 3
-0.0203126 0.356759 0.724993 1.14261e-38 3
-0.00851971 0.353486 0.718341 1.069e-38 3
0.00299079 0.342489 0.695993 1.0506e-38 3
0.0140489 0.337982 0.686835 1.20726e-38 3
0.0262999 0.353486 0.718341 1.07818e-38 3
0.0372234 0.347117 0.705398 9.58474e-39 3
0.0455436 0.325148 0.660753 9.40215e-39 3
0.0559834 0.323781 0.657977 9.49434e-39 3
0.0657854 0.319751 0.649786 9.86348e-39 3
0.0762842 0.319751 0.649786 1.07851e-38 3
0.0871447 0.321083 0.652493 1.12446e-38 3
0.0976873 0.321083 0.652493 1.08762e-38 3
0.110064 0.326525 0.663553 1.21659e-38 3
0.120276 0.325148 0.660753 1.24406e-38 3
0.130952 0.325148 0.660753 1.34548e-38 3
0.142833 0.327915 0.666376 1.30864e-38 3
0.154257 0.329316 0.669224 1.2625e-38 3
0.163671 0.326525 0.663553 1.27172e-38 3
0.170774 0.319751 0.649786 1.31775e-38 3
0.181273 0.319751 0.649786 1.33615e-38 3
0.191772 0.319751 0.649786 1.13343e-38 3
0.201435 0.31843 0.647101 1.0506e-38 3
0.206764 0.310726 0.631445 1.01372e-38 3
0.217845 0.311984 0.634002 1.02305e-38 3
0.233767 0.319751 0.649786 9.6791e-39 3
0.249441 0.326525 0.663553 9.5869e-39 3
0.265794 0.333593 0.677915 1.01383e-38 3
0.27795 0.335043 0.680863 8.8479e-39 3
0.28646 0.332155 0.674993 1.00472e-38 3
0.294825 0.329316 0.669224 9.95425e-39 3
0.306949 0.330729 0.672096 1.00454e-38 3
0.321954 0.335043 0.680863 1.00461e-38 3
0.343407 0.34556 0.702235 9.6791e-39 3
0.357963 0.348688 0.70859 1.00468e-38 3
0.371091 0.350273 0.711811 1.02301e-38 3
0.379146 0.347117 0.705398 1.03237e-38 3
0.390543 0.347117 0.705398 9.40323e-39 3
0.381328 0.329316 0.669224 1.0233e-38 3
0.388818 0.326525 0.663553 1.03248e-38 3
0.39288 0.321083 0.652493 9.67946e-39 3
0.398442 0.317119 0.644438 8.57239e-39 3
0.405517 0.31453 0.639177 9.3096e-39 3
0.415845 0.31453 0.639177 1.01397e-38 3
0.42968 0.317119 0.644438 9.95569e-39 3
0.443744 0.319751 0.649786 9.03373e-39 3
0.463867 0.326525 0.663553 9.58691e-39 3
0.476608 0.327915 0.666376 9.67911e-39 3
0.489457 0.329316 0.669224 1.00475e-38 3
0.479768 0.31582 0.641797 1.06925e-38 3
0.467162 0.301015 0.611713 1.07837e-38 3
0.48917 0.296384 0.602302 1.09673e-38 3
0.500828 0.297529 0.604627 1.0506e-38 3
0.512576 0.298682 0.606971 1.05982e-38 3
0.522383 0.298682 0.606971 1.0506e-38 3
0.536348 0.301015 0.611713 8.38657e-39 3
0.550533 0.303386 0.616529 8.11178e-39 3
0.545462 0.295249 0.599994 6.63809e-39 3
0.542681 0.288614 0.586511 7.37565e-39 3
-0.54467 0.479459 0.943364 4.15025e-39 3
-0.510959 0.462734 0.910456 4.70162e-39 3
-0.479521 0.447136 0.879766 5.8998e-39 3
-0.45508 0.437309 0.860431 5.43954e-39 3
-0.441177 0.437309 0.860431 5.80904e-39 3
-0.457436 0.468178 0.921167 5.80904e-39 3
-0.453216 0.479459 0.943364 6.17782e-39 3
-0.440628 0.482365 0.949081 5.90124e-39 3
-0.375795 0.442168 0.869991 6.6388e-39 3
-0.3427 0.418896 0.824202 5.16367e-39 3
-0.325952 0.414532 0.815617 6.3615e-39 3
-0.284609 0.377205 0.742173 5.71541e-39 3
-0.276549 0.382645 0.752877 6.54517e-39 3
-0.260626 0.377205 0.742173 6.45369e-39 3
-0.248634 0.377205 0.742173 6.3615e-39 3
-0.254753 0.406072 0.798972 5.90124e-39 3
-0.241844 0.406072 0.798972 6.45298e-39 3
-0.228934 0.406072 0.798972 8.01958e-39 3
-0.216025 0.406072 0.798972 6.63808e-39 3
-0.201064 0.401971 0.790901 6.72884e-39 3
-0.188285 0.401971 0.790901 7.92738e-39 3
-0.172031 0.394011 0.77524 8.11177e-39 3
-0.150561 0.371917 0.731768 8.57275e-39 3
-0.131371 0.352169 0.692913 8.84969e-39 3
-0.117067 0.343061 0.674993 1.05996e-38 3
-0.121927 0.394011 0.77524 1.07826e-38 3
-0.109401 0.394011 0.77524 1.05989e-38 3
-0.0959258 0.390148 0.767639 9.67694e-39 3
-0.0747309 0.34908 0.686835 9.86205e-39 3
-0.0620018 0.340129 0.669224 9.7695e-39 3
-0.0482992 0.320928 0.631445 9.12377e-39 3
-0.0376413 0.317092 0.623898 1.05975e-38 3
-0.0274514 0.315834 0.621422 9.58259e-39 3
-0.0175501 0.318361 0.626394 1.16105e-38 3
-0.0078699 0.337247 0.663553 9.86061e-39 3
0.00283936 0.335824 0.660753 1.03216e-38 3
0.0134586 0.334413 0.657977 9.5833e-39 3
0.023989 0.333013 0.655223 1.06896e-38 3
0.0345757 0.333013 0.655223 9.67693e-39 3
0.0447877 0.33025 0.649786 1.12453e-38 3
0.0550581 0.328885 0.647101 1.08766e-38 3
0.0647113 0.324858 0.639177 1.09684e-38 3
0.0747337 0.323537 0.636579 1.07836e-38 3
0.0853662 0.324858 0.639177 1.12443e-38 3
0.0964813 0.327532 0.644438 1.15209e-38 3
0.106894 0.327532 0.644438 1.18882e-38 3
0.117306 0.327532 0.644438 1.26243e-38 3
0.128246 0.328885 0.647101 1.39151e-38 3
0.138702 0.328885 0.647101 1.32697e-38 3
0.151664 0.334413 0.657977 1.31775e-38 3
0.158305 0.326189 0.641797 1.28084e-38 3
0.165954 0.320928 0.631445 1.28084e-38 3
0.176156 0.320928 0.631445 1.33615e-38 3
0.187113 0.322227 0.634002 1.39147e-38 3
0.196561 0.320928 0.631445 1.23488e-38 3
0.205933 0.319639 0.628909 1.10574e-38 3
0.215231 0.318361 0.626394 9.86062e-39 3
0.225352 0.318361 0.626394 9.95389e-39 3
0.234534 0.317092 0.623898 9.58654e-39 3
0.24658 0.319639 0.628909 9.95389e-39 3
0.270884 0.337247 0.663553 9.58546e-39 3
0.281605 0.337247 0.663553 9.30995e-39 3
0.288657 0.333013 0.655223 1.00472e-38 3
0.303048 0.337247 0.663553 1.05071e-38 3
0.316451 0.340129 0.669224 9.40179e-39 3
0.330085 0.343061 0.674993 9.68018e-39 3
0.343956 0.346044 0.680863 1.04167e-38 3
0.354957 0.346044 0.680863 1.03237e-38 3
0.365958 0.346044 0.680863 1.03245e-38 3
0.376959 0.346044 0.680863 1.02341e-38 3
0.381328 0.340129 0.669224 1.01419e-38 3
0.388818 0.337247 0.663553 1.07876e-38 3
0.39288 0.331626 0.652493 1.02341e-38 3
0.398442 0.327532 0.644438 9.86457e-39 3
0.407179 0.326189 0.641797 9.40251e-39 3
0.417549 0.326189 0.641797 9.5869e-39 3
0.426172 0.324858 0.639177 9.127e-39 3
0.443744 0.33025 0.649786 9.12593e-39 3
0.46191 0.335824 0.660753 9.40252e-39 3
0.472586 0.335824 0.660753 1.01408e-38 3
0.483262 0.335824 0.660753 1.11542e-38 3
0.47394 0.322227 0.634002 1.02316e-38 3
0.460844 0.30034 0.590937 1.09677e-38 3
0.470392 0.30034 0.590937 1.07829e-38 3
0.47994 0.30034 0.590937 1.0967e-38 3
0.491342 0.301478 0.593176 1.01372e-38 3
0.50475 0.303779 0.597704 9.21524e-39 3
0.514408 0.303779 0.597704 9.21524e-39 3
0.546232 0.310899 0.611713 7.6508e-39 3
-0.52567 0.477444 0.910456 4.42683e-39 3
-0.493736 0.461351 0.879766 3.77967e-39 3
-0.468982 0.451211 0.860431 5.8998e-39 3
-0.445293 0.441508 0.841927 5.53174e-39 3
-0.43169 0.441508 0.841927 6.08492e-39 3
-0.413639 0.436811 0.83297 6.63845e-39 3
-0.455963 0.497699 0.949081 5.34843e-39 3
-0.386721 0.436811 0.83297 6.17711e-39 3
-0.369334 0.432213 0.824202 6.73028e-39 3
-0.334867 0.406537 0.77524 6.3615e-39 3
-0.322341 0.406537 0.77524 5.53137e-39 3
-0.300878 0.39481 0.752877 6.36114e-39 3
-0.288714 0.39481 0.752877 5.5303e-39 3
-0.276549 0.39481 0.752877 6.82176e-39 3
-0.260626 0.389196 0.742173 5.80833e-39 3
-0.247461 0.38736 0.738672 6.45369e-39 3
-0.240056 0.39481 0.752877 7.09906e-39 3
-0.227891 0.39481 0.752877 7.46748e-39 3
-0.217821 0.398643 0.760186 7.65187e-39 3
-0.203562 0.39481 0.752877 7.28309e-39 3
-0.177726 0.366609 0.6991 7.46641e-39 3
-0.157968 0.347968 0.663553 8.20397e-39 3
-0.0952547 0.353967 0.674993 1.2719e-38 3
-0.0795483 0.333823 0.636579 9.8624e-39 3
-0.0684283 0.329801 0.628909 9.49327e-39 3
-0.0582668 0.329801 0.628909 9.30816e-39 3
-0.0482992 0.331131 0.631445 9.95353e-39 3
-0.0373438 0.324587 0.618966 1.00443e-38 3
-0.0271284 0.322041 0.614111 9.95173e-39 3
-0.0172737 0.323309 0.616529 1.17045e-38 3
-0.00739959 0.327173 0.623898 1.0506e-38 3
0.0027244 0.332471 0.634002 1.15212e-38 3
0.0129682 0.332471 0.634002 1.0506e-38 3
0.0232121 0.332471 0.634002 1.17031e-38 3
0.033729 0.335185 0.639177 1.12428e-38 3
0.0440564 0.335185 0.639177 1.16141e-38 3
0.0543839 0.335185 0.639177 1.18914e-38 3
0.0639285 0.331131 0.631445 1.1245e-38 3
0.073538 0.328482 0.626394 1.10595e-38 3
0.0843336 0.331131 0.631445 1.12439e-38 3
0.0956937 0.335185 0.639177 1.08758e-38 3
0.10559 0.333823 0.636579 1.11506e-38 3
0.124641 0.329801 0.628909 1.18864e-38 3
0.134803 0.329801 0.628909 1.19789e-38 3
0.147331 0.335185 0.639177 1.27158e-38 3
0.15389 0.327173 0.623898 1.17016e-38 3
0.16397 0.327173 0.623898 1.29002e-38 3
0.175449 0.329801 0.628909 1.27158e-38 3
0.186359 0.331131 0.631445 1.33612e-38 3
0.196561 0.331131 0.631445 1.29002e-38 3
0.205933 0.329801 0.628909 1.28084e-38 3
0.214373 0.327173 0.623898 1.07811e-38 3
0.222679 0.324587 0.618966 1.07829e-38 3
0.231764 0.323309 0.616529 1.06911e-38 3
0.242681 0.324587 0.618966 1.08755e-38 3
0.254695 0.327173 0.623898 1.17974e-38 3
0.267979 0.331131 0.631445 1.0784e-38 3
0.282742 0.336559 0.641797 1.14305e-38 3
0.29676 0.340749 0.649786 1.07851e-38 3
0.313769 0.347968 0.663553 1.03241e-38 3
0.32449 0.347968 0.663553 1.04163e-38 3
0.340991 0.353967 0.674993 9.95677e-39 3
0.354957 0.357045 0.680863 9.67946e-39 3
0.369168 0.360177 0.686835 1.0233e-38 3
0.380266 0.360177 0.686835 8.66674e-39 3
0.379706 0.349449 0.666376 9.03589e-39 3
0.388818 0.347968 0.663553 9.68233e-39 3
0.389633 0.339341 0.647101 9.866e-39 3
0.39519 0.335185 0.639177 1.03263e-38 3
0.405517 0.335185 0.639177 9.3114e-39 3
0.471676 0.380187 0.724993 1.02323e-38 3
0.405807 0.297538 0.567386 9.03446e-39 3
-0.510959 0.492155 0.910456 5.25551e-39 3
-0.445293 0.455111 0.841927 6.73028e-39 3
-0.427097 0.450269 0.83297 5.62465e-39 3
-0.405021 0.440889 0.815617 6.08563e-39 3
-0.365213 0.410925 0.760186 5.80904e-39 3
-0.35293 0.410925 0.760186 5.90052e-39 3
-0.334159 0.403098 0.745707 6.3615e-39 3
-0.32211 0.403098 0.745707 6.08491e-39 3
-0.320753 0.416998 0.771421 6.45297e-39 3
-0.300878 0.406974 0.752877 5.99235e-39 3
-0.287332 0.405027 0.749275 7.09762e-39 3
-0.256796 0.377905 0.6991 6.63772e-39 3
-0.2455 0.377905 0.6991 5.99272e-39 3
-0.236314 0.381309 0.705398 7.0065e-39 3
-0.224917 0.381309 0.705398 6.82103e-39 3
-0.21352 0.381309 0.705398 8.20397e-39 3
-0.200318 0.377905 0.6991 8.57275e-39 3
-0.184091 0.368046 0.680863 8.75714e-39 3
-0.0887514 0.339962 0.628909 1.04141e-38 3
-0.0795483 0.344108 0.636579 9.21703e-39 3
-0.0692628 0.344108 0.636579 8.7557e-39 3
-0.0582668 0.339962 0.628909 1.0968e-38 3
-0.0481052 0.339962 0.628909 8.93937e-39 3
-0.0373438 0.334587 0.618966 1.10595e-38 3
-0.026813 0.328103 0.606971 1.11517e-38 3
-0.0170059 0.328103 0.606971 1.21655e-38 3
-0.00731219 0.33327 0.616529 1.17049e-38 3
0.00269171 0.338603 0.626394 1.15216e-38 3
0.0128641 0.339962 0.628909 1.16127e-38 3
0.0229335 0.338603 0.626394 1.21641e-38 3
0.0334559 0.342715 0.634002 1.23492e-38 3
0.0438773 0.344108 0.636579 1.17978e-38 3
0.0541628 0.344108 0.636579 1.26283e-38 3
0.0634171 0.338603 0.626394 1.10609e-38 3
0.072666 0.334587 0.618966 1.10595e-38 3
0.0807518 0.326836 0.604627 1.09673e-38 3
0.0941564 0.339962 0.628909 1.11513e-38 3
0.110055 0.30018 0.555314 1.37299e-38 3
0.118607 0.299119 0.553351 1.26243e-38 3
0.127548 0.299119 0.553351 1.43753e-38 3
0.150884 0.330667 0.611713 1.40987e-38 3
0.161398 0.331963 0.614111 1.31768e-38 3
0.172675 0.334587 0.618966 1.34534e-38 3
0.184131 0.337254 0.623898 1.40065e-38 3
0.193441 0.335915 0.621422 1.39143e-38 3
0.203482 0.335915 0.621422 1.3637e-38 3
0.210186 0.330667 0.611713 1.35459e-38 3
0.217521 0.326836 0.604627 1.38243e-38 3
0.22729 0.326836 0.604627 1.29945e-38 3
0.237978 0.328103 0.606971 1.20737e-38 3
0.27 0.28891 0.534466 1.12464e-38 3
0.365958 0.368046 0.680863 8.94261e-39 3
0.380266 0.371275 0.686835 9.21992e-39 3
0.391363 0.371275 0.686835 8.94369e-39 3
0.392141 0.361755 0.669224 9.49722e-39 3
0.38644 0.346929 0.641797 1.00504e-38 3
0.39519 0.345513 0.639177 1.09716e-38 3
0.431703 0.358689 0.663553 1.0049e-38 3
0.350874 0.271316 0.501918 1.06933e-38 3
0.357836 0.270449 0.500314 1.01408e-38 3
0.368273 0.272189 0.503532 9.12665e-39 3
0.376409 0.272189 0.503532 8.94153e-39 3
0.384545 0.272189 0.503532 8.11177e-39 3
0.393947 0.273067 0.505156 9.49327e-39 3
0.40211 0.273067 0.505156 1.06918e-38 3
0.415751 0.271316 0.501918 9.95353e-39 3
0.423861 0.271316 0.501918 1.00436e-38 3
0.431971 0.271316 0.501918 1.02283e-38 3
-0.405021 0.454067 0.815617 6.6388e-39 3
-0.37061 0.429462 0.771421 6.36221e-39 3
-0.358146 0.429462 0.771421 5.90087e-39 3
-0.342309 0.425272 0.763895 6.08491e-39 3
-0.331584 0.427357 0.767639 7.37565e-39 3
-0.323945 0.433736 0.779097 5.99235e-39 3
-0.269753 0.37578 0.674993 6.54552e-39 3
-0.256635 0.372568 0.669224 7.09905e-39 3
-0.245822 0.372568 0.669224 5.99307e-39 3
-0.229133 0.363254 0.652493 6.63809e-39 3
-0.139001 0.348723 0.626394 9.30995e-39 3
-0.12537 0.339225 0.609332 9.58618e-39 3
-0.11332 0.332751 0.597704 1.189e-38 3
-0.102489 0.328984 0.590937 1.10584e-38 3
-0.0925914 0.327748 0.588716 1.11506e-38 3
-0.0859887 0.339225 0.609332 9.21631e-39 3
-0.0773473 0.344588 0.618966 8.94117e-39 3
-0.0660413 0.33791 0.606971 1.00475e-38 3
-0.0558016 0.335311 0.602302 1.01386e-38 3
-0.0469733 0.341886 0.614111 1.09684e-38 3
-0.0369061 0.34055 0.611713 1.05063e-38 3
-0.0266067 0.335311 0.602302 1.18896e-38 3
-0.0168751 0.335311 0.602302 1.16134e-38 3
-0.00714345 0.335311 0.602302 1.03227e-38 3
0.00262862 0.34055 0.611713 1.11539e-38 3
0.0126607 0.344588 0.618966 1.20737e-38 3
0.021967 0.334026 0.599994 1.35474e-38 3
0.0696383 0.330231 0.593176 1.15198e-38 3
0.0768924 0.320518 0.575729 1.12432e-38 3
0.083434 0.310252 0.55729 1.07826e-38 3
0.0914619 0.306975 0.551403 1.17031e-38 3
0.100726 0.30806 0.553351 1.502e-38 3
0.10928 0.306975 0.551403 1.71412e-38 3
0.11819 0.306975 0.551403 1.34541e-38 3
0.126653 0.305898 0.549468 1.40065e-38 3
0.158294 0.335311 0.602302 1.41913e-38 3
0.170651 0.34055 0.611713 1.38225e-38 3
0.183401 0.345956 0.621422 1.33612e-38 3
0.192677 0.344588 0.618966 1.36377e-38 3
0.202678 0.344588 0.618966 1.31761e-38 3
0.207752 0.336606 0.604627 1.39151e-38 3
0.205346 0.291575 0.523741 1.37317e-38 3
0.213095 0.290603 0.521995 1.33633e-38 3
0.22227 0.291575 0.523741 1.21655e-38 3
0.231507 0.292553 0.525498 1.26272e-38 3
0.238397 0.290603 0.521995 1.09677e-38 3
0.243584 0.286779 0.515126 1.09673e-38 3
0.266363 0.293538 0.527267 1.14305e-38 3
0.272134 0.290603 0.521995 1.10613e-38 3
0.321268 0.268249 0.481841 9.03552e-39 3
0.329053 0.268249 0.481841 9.31139e-39 3
0.336839 0.268249 0.481841 1.04167e-38 3
0.346758 0.26991 0.484825 1.06936e-38 3
0.361303 0.275018 0.494001 1.01408e-38 3
0.371629 0.276765 0.497138 1.04174e-38 3
0.380871 0.277646 0.498721 1.0233e-38 3
0.390172 0.278533 0.500314 1.06007e-38 3
0.396987 0.277646 0.498721 9.76985e-39 3
0.407642 0.279426 0.501918 1.0323e-38 3
0.413103 0.277646 0.498721 9.86169e-39 3
0.421161 0.277646 0.498721 1.06897e-38 3
0.429219 0.277646 0.498721 9.5833e-39 3
