# .PCD v0.7 - Point Cloud Data file format
VERSION 0.7
FIELDS x y z rgb label
SIZE 4 4 4 4 4
TYPE F F F F U
COUNT 1 1 1 1 1
WIDTH 2218
HEIGHT 1
VIEWPOINT 0 0 0 1 0 0 0
POINTS 2218
DATA ascii
-0.925762 -0.588706 1.86427 5.25515e-39 1
-0.895641 -0.588706 1.86427 4.97856e-39 1
-0.674751 -0.668261 2.11619 3.78002e-39 1
-0.585202 -0.61051 1.93331 3.96441e-39 1
-0.590409 -0.650675 2.06051 3.68819e-39 1
-0.883682 -0.533194 1.77953 5.90052e-39 1
-0.817759 -0.510011 1.70216 5.34735e-39 1
-0.790256 -0.510011 1.70216 5.34735e-39 1
-0.771497 -0.690016 2.30292 3.59528e-39 1
-0.656994 -0.617382 2.06051 3.68783e-39 1
-0.600017 -0.593937 1.98226 4.241e-39 1
-0.590409 -0.617382 2.06051 3.4116e-39 1
-0.873753 -0.498773 1.75953 6.08563e-39 1
-0.817759 -0.482509 1.70216 5.99271e-39 1
-0.781759 -0.477321 1.68385 5.25515e-39 1
-0.718655 -0.608094 2.14518 3.96441e-39 1
-0.616439 -0.548035 1.93331 3.68783e-39 1
-0.578065 -0.541352 1.90974 4.241e-39 1
-0.540616 -0.534829 1.88673 4.05661e-39 1
-0.510131 -0.534829 1.88673 4.14881e-39 1
-0.80036 -0.445326 1.66594 6.17711e-39 1
-0.773443 -0.445326 1.66594 5.53173e-39 1
-0.771136 -0.460007 1.72086 5.43954e-39 1
-0.672587 -0.536674 2.00767 4.241e-39 1
-0.58743 -0.492478 1.84233 3.78002e-39 1
-0.564302 -0.498341 1.86427 4.241e-39 1
-0.540616 -0.504345 1.88673 4.05625e-39 1
-0.510131 -0.504345 1.88673 3.96406e-39 1
-0.468361 -0.492478 1.84233 3.87258e-39 1
-0.80036 -0.418408 1.66594 5.53174e-39 1
-0.773443 -0.418408 1.66594 5.99272e-39 1
-0.825569 -0.46271 1.84233 5.62393e-39 1
-0.624545 -0.468219 1.86427 4.3332e-39 1
-0.573926 -0.452073 1.79998 3.87222e-39 1
-0.551178 -0.45733 1.82091 3.87186e-39 1
-0.53418 -0.468219 1.86427 3.68747e-39 1
-0.504058 -0.468219 1.86427 3.77967e-39 1
-0.457594 -0.452073 1.79998 3.31869e-39 1
-0.433494 -0.45733 1.82091 4.05661e-39 1
-0.547209 -0.448782 1.90974 3.31869e-39 1
-0.516352 -0.448782 1.90974 4.24065e-39 1
-0.468361 -0.432943 1.84233 3.41089e-39 1
-0.443815 -0.438097 1.86427 3.59563e-39 1
0.908675 -0.30788 2.52578 9.86459e-39 1
0.971343 -0.285489 2.69997 1.10631e-38 1
1.11273 -0.26707 2.52578 7.92884e-39 1
1.32443 -0.306636 2.89997 7.65298e-39 1
1.27671 -0.285489 2.69997 5.62395e-39 1
1.04329 -0.25978 2.89997 1.45669e-38 1
0.981135 -0.233802 2.60997 1.30918e-38 1
1.27757 -0.25978 2.89997 9.12739e-39 1
1.37537 -0.269772 3.01151 8.02176e-39 1
1.27671 -0.241864 2.69997 7.65189e-39 1
1.8678 -0.34215 3.81947 7.19019e-39 1
1.92951 -0.34215 3.81947 5.43847e-39 1
2.20649 -0.379139 4.23239 5.07041e-39 1
-1.1709 -0.338174 4.60584 4.88852e-39 3
-1.05304 -0.348422 4.74541 5.71685e-39 3
1.08342 -0.221114 3.01151 2.28645e-38 1
1.05122 -0.20532 2.7964 1.80696e-38 1
1.32671 -0.221114 3.01151 1.051e-38 1
1.45958 -0.234651 3.19589 9.49689e-39 1
1.57552 -0.244636 3.33188 6.63738e-39 1
1.78092 -0.267393 3.64182 7.55789e-39 1
1.92951 -0.280437 3.81947 5.98985e-39 1
2.041 -0.287448 3.91496 4.14774e-39 1
2.33807 -0.319386 4.34996 4.14845e-39 1
1.78092 -0.208551 3.64182 8.84791e-39 1
1.92951 -0.218724 3.81947 6.63631e-39 1
1.99122 -0.218724 3.81947 5.25481e-39 1
2.33807 -0.249102 4.34996 3.87295e-39 1
1.05972 -0.139945 3.40431 1.44737e-38 3
1.02555 -0.128749 3.13197 1.76087e-38 3
1.07615 -0.128749 3.13197 2.14812e-38 3
1.12676 -0.128749 3.13197 2.04671e-38 3
1.09015 -0.119212 2.89997 1.64101e-38 3
1.02331 -0.107291 2.60997 1.58573e-38 3
1.06548 -0.107291 2.60997 1.64105e-38 3
1.20834 -0.117045 2.84724 2.12047e-38 3
1.43727 -0.134114 3.26247 2.29574e-38 3
1.55477 -0.139945 3.40431 8.94407e-39 3
1.02555 -0.0781447 3.13197 1.52112e-38 3
1.16973 -0.0849399 3.40431 1.54885e-38 3
1.17371 -0.0814007 3.26247 1.5396e-38 3
1.17736 -0.0781447 3.13197 1.41056e-38 3
1.13701 -0.0723562 2.89997 1.16167e-38 3
1.18386 -0.0723562 2.89997 1.13404e-38 3
1.25394 -0.0737214 2.95469 1.07876e-38 3
1.53309 -0.0868274 3.47996 1.01423e-38 3
1.62544 -0.0888008 3.55905 1.09713e-38 3
1.68294 -0.0888008 3.55905 1.03256e-38 3
1.78092 -0.0908659 3.64182 1.13397e-38 3
1.88357 -0.0930294 3.72853 1.24457e-38 3
1.89861 -0.0908659 3.64182 7.56006e-39 3
2.21501 -0.102822 4.12101 3.87223e-39 3
1.1925 -0.0320235 3.64182 1.4935e-38 3
1.16973 -0.029935 3.40431 1.44747e-38 3
1.12676 -0.0275402 3.13197 1.429e-38 3
1.11072 -0.0259813 2.95469 1.28152e-38 3
1.20389 -0.0270002 3.07056 1.11557e-38 3
1.56793 -0.0312957 3.55905 8.85223e-39 3
1.62544 -0.0312957 3.55905 8.57421e-39 3
1.68294 -0.0312957 3.55905 8.29797e-39 3
1.78092 -0.0320235 3.64182 6.17747e-39 3
1.83977 -0.0320235 3.64182 6.17712e-39 3
1.85546 -0.0312957 3.55905 4.97786e-39 3
2.10426 -0.0344253 3.91496 4.5176e-39 3
1.8848 -0.029935 3.40431 4.42575e-39 3
2.02797 -0.0312957 3.55905 4.14917e-39 3
2.29403 -0.0344253 3.91496 4.42468e-39 3
0.021029 0.036038 4.8937 6.73172e-39 3
0.100099 0.036038 4.8937 6.731e-39 3
0.180162 0.0131047 1.77953 5.99416e-39 3
1.1925 0.0268189 3.64182 1.12482e-38 3
1.2229 0.0262094 3.55905 1.18011e-38 3
1.19868 0.0245365 3.33188 1.20776e-38 3
1.11072 0.0217588 2.95469 1.03263e-38 3
1.20389 0.0226121 3.07056 1.06021e-38 3
1.33184 0.0240253 3.26247 9.58836e-39 3
1.32918 0.0230643 3.13197 9.49616e-39 3
1.49976 0.0250699 3.40431 9.03626e-39 3
1.58932 0.025627 3.47996 8.11358e-39 3
1.64554 0.025627 3.47996 7.56041e-39 3
1.74045 0.0262094 3.55905 7.55969e-39 3
1.79795 0.0262094 3.55905 6.82248e-39 3
1.85546 0.0262094 3.55905 5.99236e-39 3
2.00406 0.0274575 3.72853 5.62358e-39 3
1.3547 0.018019 2.44685 4.79454e-39 3
1.39423 0.018019 2.44685 4.88673e-39 3
1.27446 0.0160169 2.17498 4.97821e-39 3
0.636562 0.00686437 0.932133 3.96406e-39 3
0.667516 0.0070318 0.954868 3.87186e-39 3
0.674716 0.00694708 0.943364 3.96406e-39 3
0.689958 0.00694708 0.943364 3.96406e-39 3
0.696805 0.00686437 0.932133 3.77967e-39 3
0.642976 0.00620008 0.841927 3.31833e-39 3
0.021029 0.115107 4.8937 7.83807e-39 3
0.100099 0.115107 4.8937 7.28489e-39 3
0.245314 0.0837145 3.55905 6.82284e-39 3
0.208188 0.0575537 2.44685 6.36186e-39 3
0.176159 0.0409271 1.73998 7.56149e-39 3
0.176774 0.0354177 1.50575 7.2849e-39 3
0.168667 0.0297052 1.26289 7.7448e-39 3
0.186071 0.0292336 1.24284 8.02102e-39 3
0.206152 0.0292336 1.24284 7.83591e-39 3
1.31481 0.0944472 4.01534 1.05107e-38 3
1.53736 0.105241 4.47424 1.06025e-38 3
1.48258 0.0969326 4.12101 1.06029e-38 3
1.40162 0.0877009 3.72853 8.85115e-39 3
1.46186 0.0877009 3.72853 8.29725e-39 3
1.45292 0.0837145 3.55905 8.48164e-39 3
1.51043 0.0837145 3.55905 8.20578e-39 3
1.56793 0.0837145 3.55905 8.02139e-39 3
1.58932 0.0818542 3.47996 7.92847e-39 3
1.64554 0.0818542 3.47996 8.57384e-39 3
1.78092 0.0856614 3.64182 6.36115e-39 3
1.79795 0.0837145 3.55905 6.72956e-39 3
1.85546 0.0837145 3.55905 6.72957e-39 3
1.91296 0.0837145 3.55905 6.0842e-39 3
1.27501 0.0541682 2.30292 5.90052e-39 3
1.27473 0.0526206 2.23712 5.80832e-39 3
1.06699 0.0428307 1.82091 5.80833e-39 3
1.09641 0.0428307 1.82091 5.16296e-39 3
0.636562 0.0219252 0.932133 4.79418e-39 3
0.667516 0.02246 0.954868 4.33284e-39 3
0.674716 0.0221894 0.943364 4.88637e-39 3
0.689958 0.0221894 0.943364 4.42539e-39 3
0.696805 0.0219252 0.932133 4.60978e-39 3
0.695311 0.0214153 0.910456 3.68783e-39 3
0.021029 0.194177 4.8937 6.82464e-39 3
0.100099 0.194177 4.8937 6.91611e-39 3
0.391884 0.182755 4.60584 7.09943e-39 3
0.240216 0.0941464 2.3727 6.08636e-39 3
0.18024 0.0609183 1.53528 6.54733e-39 3
0.174289 0.0517805 1.30499 6.54733e-39 3
0.186071 0.0493148 1.24284 7.46856e-39 3
0.763976 0.182755 4.60584 8.20469e-39 3
1.39278 0.177533 4.47424 9.21993e-39 3
1.4717 0.155342 3.91496 9.31176e-39 3
1.49752 0.151553 3.81947 9.6809e-39 3
1.48671 0.144504 3.64182 9.49615e-39 3
1.03842 0.0970885 2.44685 8.5742e-39 3
1.01454 0.0913774 2.30292 7.92811e-39 3
1.05175 0.0913774 2.30292 7.65188e-39 3
1.08896 0.0913774 2.30292 7.37494e-39 3
1.74045 0.14122 3.55905 7.00615e-39 3
1.19863 0.0941464 2.3727 6.54445e-39 3
1.20059 0.0913774 2.30292 6.63737e-39 3
1.2378 0.0913774 2.30292 6.0842e-39 3
1.23858 0.0887666 2.23712 6.54445e-39 3
1.27473 0.0887666 2.23712 6.54409e-39 3
1.11904 0.0757764 1.90974 6.08347e-39 3
1.14989 0.0757764 1.90974 6.54445e-39 3
3.65823 0.194177 4.8937 3.96441e-39 3
3.7373 0.194177 4.8937 4.14881e-39 3
3.59187 0.182755 4.60584 4.241e-39 3
3.66629 0.182755 4.60584 4.05661e-39 3
0.021029 0.273247 4.8937 6.45477e-39 3
0.100099 0.273247 4.8937 5.90124e-39 3
0.179168 0.273247 4.8937 6.91575e-39 3
0.258238 0.273247 4.8937 8.57456e-39 3
0.327086 0.264966 4.74541 8.39017e-39 3
0.380687 0.249825 4.47424 8.75895e-39 3
0.440397 0.242886 4.34996 7.83807e-39 3
0.525271 0.249825 4.47424 7.74587e-39 3
0.615139 0.257173 4.60584 7.37709e-39 3
0.669856 0.249825 4.47424 7.74515e-39 3
0.721533 0.242886 4.34996 9.31104e-39 3
0.8638 0.264966 4.74541 9.40251e-39 3
0.959024 0.249825 4.47424 9.03446e-39 3
1.03132 0.249825 4.47424 9.12737e-39 3
0.965658 0.218597 3.91496 9.03517e-39 3
1.00382 0.213266 3.81947 9.03445e-39 3
1.04016 0.208188 3.72853 8.94298e-39 3
1.02704 0.194309 3.47996 8.75859e-39 3
1.18896 0.213266 3.81947 9.31176e-39 3
1.53496 0.218597 3.91496 9.68019e-39 3
1.48671 0.203346 3.64182 8.85078e-39 3
0.949411 0.124913 2.23712 9.12665e-39 3
0.802198 0.101673 1.82091 8.20469e-39 3
0.812718 0.0993624 1.77953 8.75787e-39 3
0.881541 0.104094 1.86427 8.38909e-39 3
1.03486 0.118161 2.11619 8.38836e-39 3
1.13014 0.124913 2.23712 8.57204e-39 3
1.20059 0.128587 2.30292 7.92739e-39 3
1.20243 0.124913 2.23712 6.91323e-39 3
1.23858 0.124913 2.23712 7.74227e-39 3
1.27473 0.124913 2.23712 7.2813e-39 3
1.20738 0.115051 2.06051 7.2813e-39 3
1.24067 0.115051 2.06051 7.65008e-39 3
3.65823 0.273247 4.8937 4.70198e-39 3
3.7373 0.273247 4.8937 4.79417e-39 3
3.59187 0.257173 4.60584 4.70198e-39 3
3.89544 0.273247 4.8937 5.71613e-39 3
1.51487 0.0840759 1.50575 2.85807e-39 3
1.51016 0.0824895 1.47734 2.85735e-39 3
1.50562 0.0809619 1.44999 3.22649e-39 3
1.50125 0.0794899 1.42362 2.67332e-39 3
1.37433 0.0716712 1.28359 2.94991e-39 3
-2.19292 0.352316 4.8937 4.79562e-39 3
-2.11385 0.352316 4.8937 4.61123e-39 3
-2.03478 0.352316 4.8937 5.44135e-39 3
-0.0580405 0.352316 4.8937 1.02337e-38 3
0.021029 0.352316 4.8937 1.00493e-38 3
0.100099 0.352316 4.8937 9.58835e-39 3
0.179168 0.352316 4.8937 8.75858e-39 3
0.258238 0.352316 4.8937 9.68054e-39 3
0.327086 0.34164 4.74541 9.77274e-39 3
0.380687 0.322118 4.47424 9.12809e-39 3
0.452979 0.322118 4.47424 8.7593e-39 3
0.540721 0.331592 4.60584 8.76002e-39 3
0.615139 0.331592 4.60584 8.76074e-39 3
0.651249 0.31317 4.34996 8.57491e-39 3
0.702032 0.304706 4.23239 9.95713e-39 3
0.81444 0.322118 4.47424 1.03245e-38 3
0.862101 0.31317 4.34996 1.05089e-38 3
0.818679 0.274978 3.81947 9.7713e-39 3
0.880392 0.274978 3.81947 9.58691e-39 3
0.898286 0.262189 3.64182 1.02323e-38 3
0.894707 0.245089 3.40431 9.77129e-39 3
0.872018 0.212719 2.95469 1.01408e-38 3
1.03717 0.239875 3.33188 1.09706e-38 3
1.1395 0.250536 3.47996 1.04181e-38 3
1.27974 0.245089 3.40431 1.09713e-38 3
1.33475 0.245089 3.40431 9.49615e-39 3
1.48671 0.262189 3.64182 9.31176e-39 3
0.949411 0.161059 2.23712 9.31104e-39 3
0.74988 0.122545 1.70216 1.00486e-38 3
0.701169 0.110531 1.53528 1.06018e-38 3
0.804885 0.122545 1.70216 1.03252e-38 3
1.00763 0.148344 2.06051 9.12593e-39 3
1.13014 0.161059 2.23712 9.58691e-39 3
1.16629 0.161059 2.23712 8.8497e-39 3
1.20243 0.161059 2.23712 8.75715e-39 3
1.23858 0.161059 2.23712 1.01401e-38 3
1.23932 0.156585 2.17498 9.67911e-39 3
1.20738 0.148344 2.06051 8.66423e-39 3
1.24067 0.148344 2.06051 8.57204e-39 3
3.50009 0.352316 4.8937 6.54589e-39 3
3.57916 0.352316 4.8937 5.80832e-39 3
3.65823 0.352316 4.8937 5.62393e-39 3
3.32204 0.31317 4.34996 5.25515e-39 3
3.21378 0.296687 4.12101 5.34735e-39 3
3.28037 0.296687 4.12101 4.97856e-39 3
3.97451 0.352316 4.8937 5.07076e-39 3
4.52799 0.352316 4.8937 3.77967e-39 3
3.68565 0.281853 3.91496 3.78039e-39 3
4.68613 0.352316 4.8937 2.85951e-39 3
1.60762 0.115042 1.59794 4.05661e-39 3
1.51016 0.10636 1.47734 3.87222e-39 3
1.47825 0.102492 1.42362 3.68783e-39 3
1.50125 0.102492 1.42362 3.31869e-39 3
1.37433 0.0924108 1.28359 3.1343e-39 3
1.47802 0.0924108 1.28359 3.41124e-39 3
-2.01954 0.383454 4.34996 5.44099e-39 3
-1.75433 0.345108 3.91496 4.79562e-39 3
-1.4705 0.300094 3.40431 4.98001e-39 3
-1.87664 0.431386 4.8937 4.4272e-39 3
-0.13711 0.431386 4.8937 1.10628e-38 3
-0.0580405 0.431386 4.8937 1.13386e-38 3
0.021029 0.431386 4.8937 1.07862e-38 3
0.0942104 0.40601 4.60584 1.06025e-38 3
0.168629 0.40601 4.60584 1.06947e-38 3
0.258238 0.431386 4.8937 1.05103e-38 3
0.317466 0.40601 4.60584 1.01415e-38 3
0.370113 0.383454 4.34996 1.02337e-38 3
0.428494 0.37309 4.23239 1.0972e-38 3
0.510681 0.383454 4.34996 1.0511e-38 3
0.580965 0.383454 4.34996 1.02355e-38 3
0.601153 0.353957 4.01534 1.07876e-38 3
0.649379 0.345108 3.91496 1.10635e-38 3
0.750142 0.363272 4.12101 1.07865e-38 3
0.795785 0.353957 4.01534 9.6791e-39 3
0.799187 0.328675 3.72853 1.06933e-38 3
0.839444 0.321031 3.64182 1.09691e-38 3
0.898286 0.321031 3.64182 1.10602e-38 3
0.914589 0.306763 3.47996 1.13379e-38 3
0.809014 0.255636 2.89997 1.12457e-38 3
0.810824 0.242181 2.74734 1.07854e-38 3
0.902726 0.255636 2.89997 1.14308e-38 3
0.967499 0.260459 2.95469 1.06018e-38 3
0.960851 0.246506 2.7964 1.00493e-38 3
1.00603 0.246506 2.7964 1.00493e-38 3
1.09015 0.255636 2.89997 1.02337e-38 3
1.33475 0.300094 3.40431 8.94334e-39 3
1.48671 0.321031 3.64182 9.49651e-39 3
1.12642 0.233972 2.65421 9.49615e-39 3
0.718635 0.143795 1.63123 9.21956e-39 3
0.701169 0.135337 1.53528 9.40324e-39 3
0.804885 0.150047 1.70216 9.31104e-39 3
1.70177 0.306763 3.47996 9.67982e-39 3
1.61449 0.281721 3.19589 9.58799e-39 3
1.13389 0.191727 2.17498 8.66639e-39 3
1.16903 0.191727 2.17498 8.482e-39 3
1.20417 0.191727 2.17498 7.37493e-39 3
1.23932 0.191727 2.17498 7.09834e-39 3
1.27446 0.191727 2.17498 7.65044e-39 3
1.3096 0.191727 2.17498 7.83483e-39 3
1.56164 0.222651 2.52578 7.09834e-39 3
3.34195 0.431386 4.8937 5.8998e-39 3
3.42102 0.431386 4.8937 5.62393e-39 3
3.2942 0.40601 4.60584 6.45369e-39 3
3.36862 0.40601 4.60584 5.99272e-39 3
3.25176 0.383454 4.34996 5.80832e-39 3
2.98984 0.345108 3.91496 5.80832e-39 3
2.26155 0.255636 2.89997 5.71613e-39 3
2.22596 0.246506 2.7964 4.88637e-39 3
2.27115 0.246506 2.7964 5.43954e-39 3
4.05358 0.431386 4.8937 4.97856e-39 3
3.43263 0.345108 3.91496 4.70126e-39 3
2.68914 0.265468 3.01151 4.42467e-39 3
3.38966 0.328675 3.72853 4.05553e-39 3
3.4499 0.328675 3.72853 4.42539e-39 3
3.51014 0.328675 3.72853 3.87258e-39 3
3.57039 0.328675 3.72853 4.05805e-39 3
1.53403 0.13023 1.47734 3.87222e-39 3
1.50125 0.125494 1.42362 3.68783e-39 3
1.74654 0.143795 1.63123 2.95026e-39 3
2.65175 0.203005 2.30292 3.1343e-39 3
-1.81759 0.408364 3.91496 5.44063e-39 3
-1.46195 0.340303 3.26247 5.43991e-39 3
-1.40923 0.340303 3.26247 5.0722e-39 3
-0.62054 0.291689 2.7964 6.92188e-39 3
-0.44137 0.223761 2.14518 8.30302e-39 3
-0.42414 0.233351 2.23712 9.04021e-39 3
0.019792 0.480428 4.60584 1.15241e-38 3
0.0889765 0.453738 4.34996 1.17085e-38 3
0.15926 0.453738 4.34996 1.15241e-38 3
0.243047 0.480428 4.60584 1.0049e-38 3
0.299829 0.453738 4.34996 1.08787e-38 3
0.350633 0.429857 4.12101 1.07872e-38 3
0.40652 0.418835 4.01534 1.0695e-38 3
0.471398 0.418835 4.01534 1.08798e-38 3
0.550388 0.429857 4.12101 1.11567e-38 3
0.571828 0.398404 3.81947 1.18018e-38 3
0.618457 0.388918 3.72853 1.07876e-38 3
0.712635 0.408364 3.91496 1.08794e-38 3
0.775891 0.408364 3.91496 1.08787e-38 3
0.780601 0.379874 3.64182 1.11553e-38 3
0.839444 0.379874 3.64182 1.13386e-38 3
0.898286 0.379874 3.64182 1.19836e-38 3
0.914589 0.36299 3.47996 1.1523e-38 3
0.809014 0.302492 2.89997 1.08776e-38 3
0.796844 0.28163 2.69997 1.10628e-38 3
0.870486 0.291689 2.7964 1.15241e-38 3
0.884094 0.28163 2.69997 1.04181e-38 3
0.927718 0.28163 2.69997 1.06025e-38 3
0.954879 0.276857 2.65421 1.06947e-38 3
1.03277 0.286571 2.74734 1.05103e-38 3
1.25303 0.333358 3.19589 1.02344e-38 3
1.45292 0.37124 3.55905 1.01422e-38 3
1.12642 0.276857 2.65421 9.49651e-39 3
0.74988 0.17755 1.70216 9.68054e-39 3
0.701169 0.160143 1.53528 9.40359e-39 3
0.804885 0.17755 1.70216 9.95677e-39 3
0.981791 0.209418 2.00767 9.12737e-39 3
1.04092 0.214928 2.06051 8.02102e-39 3
1.10324 0.220737 2.11619 7.65295e-39 3
1.13744 0.220737 2.11619 8.66711e-39 3
1.20417 0.226869 2.17498 8.85078e-39 3
1.23932 0.226869 2.17498 9.03481e-39 3
1.27446 0.226869 2.17498 8.66567e-39 3
1.38664 0.240214 2.30292 7.55969e-39 3
1.56164 0.263461 2.52578 7.83663e-39 3
1.65586 0.272243 2.60997 7.74443e-39 3
1.69803 0.272243 2.60997 7.56004e-39 3
2.6103 0.408364 3.91496 7.92882e-39 3
3.2942 0.480428 4.60584 7.74443e-39 3
3.36862 0.480428 4.60584 6.45369e-39 3
3.25176 0.453738 4.34996 5.80832e-39 3
2.21469 0.302492 2.89997 5.53174e-39 3
2.0354 0.272243 2.60997 5.90052e-39 3
1.94772 0.255228 2.44685 5.07076e-39 3
1.98725 0.255228 2.44685 5.90052e-39 3
2.02679 0.255228 2.44685 5.80832e-39 3
1.94477 0.240214 2.30292 5.71541e-39 3
2.13928 0.259279 2.48569 5.25443e-39 3
2.17945 0.259279 2.48569 4.88565e-39 3
2.45325 0.286571 2.74734 5.25443e-39 3
2.41297 0.276857 2.65421 5.53102e-39 3
2.37534 0.26778 2.56719 5.53174e-39 3
2.58642 0.286571 2.74734 4.42575e-39 3
3.4081 0.37124 3.55905 4.33464e-39 3
3.63063 0.388918 3.72853 4.15025e-39 3
2.32872 0.226869 2.17498 3.50415e-39 3
2.77795 0.255228 2.44685 3.78002e-39 3
2.65175 0.240214 2.30292 3.68783e-39 3
-1.81759 0.47162 3.91496 4.51939e-39 3
-1.46195 0.393016 3.26247 5.90053e-39 3
-1.40923 0.393016 3.26247 5.25659e-39 3
-0.548242 0.277423 2.30292 5.54147e-39 3
-0.511033 0.277423 2.30292 5.63475e-39 3
-0.383571 0.224581 1.86427 7.56833e-39 3
-0.315849 0.200689 1.66594 9.22497e-39 3
-0.315809 0.219358 1.82091 1.00529e-38 3
0.0842935 0.496442 4.12101 1.1801e-38 3
0.284048 0.496442 4.12101 1.17085e-38 3
0.341642 0.483713 4.01534 1.14319e-38 3
0.38669 0.460117 3.81947 1.18939e-38 3
0.448402 0.460117 3.81947 1.0695e-38 3
0.510115 0.460117 3.81947 1.15248e-38 3
0.558213 0.449162 3.72853 1.1617e-38 3
0.590345 0.428745 3.55905 1.15252e-38 3
0.6787 0.449162 3.72853 1.22624e-38 3
0.721759 0.438716 3.64182 1.10631e-38 3
0.729692 0.410104 3.40431 1.09698e-38 3
0.784697 0.410104 3.40431 1.06932e-38 3
0.821836 0.401379 3.33188 9.77237e-39 3
0.823131 0.377296 3.13197 9.40359e-39 3
0.794305 0.342996 2.84724 9.49543e-39 3
0.770283 0.314413 2.60997 1.02337e-38 3
0.826224 0.319742 2.65421 1.09713e-38 3
0.884094 0.325255 2.69997 1.02341e-38 3
0.911994 0.319742 2.65421 1.06954e-38 3
0.954879 0.319742 2.65421 1.03259e-38 3
1.01497 0.325255 2.69997 1.04181e-38 3
1.25303 0.384996 3.19589 1.08791e-38 3
1.45292 0.428745 3.55905 1.03259e-38 3
1.12642 0.319742 2.65421 1.04181e-38 3
0.884474 0.241856 2.00767 9.86493e-39 3
0.949352 0.241856 2.00767 9.40359e-39 3
0.981791 0.241856 2.00767 9.86493e-39 3
1.01423 0.241856 2.00767 1.01422e-38 3
1.07421 0.248221 2.06051 8.75858e-39 3
1.13744 0.25493 2.11619 8.94297e-39 3
1.20417 0.262011 2.17498 8.3898e-39 3
1.27473 0.269497 2.23712 8.11321e-39 3
1.34943 0.277423 2.30292 8.02174e-39 3
1.42866 0.28583 2.3727 7.5604e-39 3
1.56164 0.304271 2.52578 8.02138e-39 3
1.60245 0.304271 2.52578 8.29832e-39 3
1.64326 0.304271 2.52578 8.66711e-39 3
1.80021 0.325255 2.69997 7.56076e-39 3
3.08061 0.496442 4.12101 7.65224e-39 3
1.99323 0.314413 2.60997 7.46785e-39 3
1.90818 0.294762 2.44685 7.00687e-39 3
1.7313 0.262011 2.17498 7.56004e-39 3
1.7187 0.25493 2.11619 7.56004e-39 3
1.7529 0.25493 2.11619 6.63809e-39 3
1.8626 0.265701 2.20561 5.62321e-39 3
1.98198 0.277423 2.30292 5.34663e-39 3
2.17945 0.299441 2.48569 4.79345e-39 3
2.37009 0.319742 2.65421 5.16224e-39 3
2.37276 0.314413 2.60997 5.25515e-39 3
2.45586 0.319742 2.65421 4.97856e-39 3
2.63261 0.336871 2.7964 5.90052e-39 3
2.88377 0.362784 3.01151 4.79454e-39 3
3.31492 0.410104 3.40431 4.70234e-39 3
4.07939 0.496442 4.12101 4.51795e-39 3
2.32588 0.265701 2.20561 4.5183e-39 3
2.29682 0.258422 2.14518 4.05732e-39 3
2.29997 0.25493 2.11619 3.68782e-39 3
3.08443 0.336871 2.7964 4.241e-39 3
3.12962 0.336871 2.7964 3.96441e-39 3
2.46929 0.262011 2.17498 4.79417e-39 3
2.14665 0.224581 1.86427 4.60978e-39 3
-1.52551 0.465109 3.40431 4.97893e-39 3
-1.4705 0.465109 3.40431 5.34879e-39 3
-0.442341 0.237722 1.73998 1.32902e-38 3
-0.405222 0.232554 1.70216 9.69568e-39 3
-0.45724 0.281513 2.06051 1.6426e-38 3
-0.350217 0.232554 1.70216 1.05236e-38 3
-0.285479 0.205721 1.50575 9.32113e-39 3
-0.256222 0.20184 1.47734 9.50336e-39 3
-0.25132 0.218316 1.59794 1.0515e-38 3
0.475335 0.48625 3.55905 1.26312e-38 3
0.498829 0.455213 3.33188 1.19858e-38 3
0.530106 0.436633 3.19589 1.07872e-38 3
0.593863 0.445729 3.26247 1.11553e-38 3
0.674688 0.465109 3.40431 1.18914e-38 3
0.699289 0.445729 3.26247 1.27212e-38 3
0.736655 0.436633 3.19589 1.2629e-38 3
0.568034 0.314633 2.30292 1.18929e-38 3
0.605243 0.314633 2.30292 1.24468e-38 3
0.642452 0.314633 2.30292 1.18932e-38 3
0.679661 0.314633 2.30292 1.11564e-38 3
0.72757 0.319329 2.33729 1.0972e-38 3
0.813927 0.339603 2.48569 1.20783e-38 3
0.815267 0.324167 2.3727 1.16174e-38 3
0.853604 0.324167 2.3727 1.10635e-38 3
0.919814 0.334297 2.44685 1.16166e-38 3
1.18074 0.411443 3.01151 1.03266e-38 3
1.38975 0.465109 3.40431 1.00493e-38 3
0.923039 0.297153 2.17498 1.06947e-38 3
0.884474 0.274295 2.00767 1.06025e-38 3
0.949352 0.274295 2.00767 9.95677e-39 3
0.981791 0.274295 2.00767 9.58834e-39 3
1.01423 0.274295 2.00767 9.95713e-39 3
1.07421 0.281513 2.06051 9.86493e-39 3
1.13744 0.289122 2.11619 1.04181e-38 3
1.20417 0.297153 2.17498 9.68054e-39 3
1.35198 0.324167 2.3727 9.40395e-39 3
1.39032 0.324167 2.3727 9.86493e-39 3
1.4733 0.334297 2.44685 1.02337e-38 3
1.56164 0.345081 2.52578 9.21956e-39 3
1.60245 0.345081 2.52578 9.21992e-39 3
1.64326 0.345081 2.52578 8.57491e-39 3
1.80021 0.36888 2.69997 8.11321e-39 3
1.99323 0.356584 2.60997 6.91467e-39 3
1.90818 0.334297 2.44685 7.74371e-39 3
1.8887 0.324167 2.3727 8.0203e-39 3
1.65174 0.277857 2.03375 7.37493e-39 3
1.54422 0.254703 1.86427 7.0987e-39 3
1.65306 0.267438 1.95748 6.17639e-39 3
1.87187 0.297153 2.17498 6.72956e-39 3
2.08038 0.324167 2.3727 5.62321e-39 3
2.11872 0.324167 2.3727 6.08419e-39 3
2.12486 0.319329 2.33729 5.80796e-39 3
2.264 0.334297 2.44685 5.25515e-39 3
2.54183 0.36888 2.69997 5.90052e-39 3
2.88377 0.411443 3.01151 5.16332e-39 3
3.31492 0.465109 3.40431 4.97929e-39 3
3.36993 0.465109 3.40431 5.07112e-39 3
3.58061 0.48625 3.55905 4.24172e-39 3
2.96439 0.396204 2.89997 4.42611e-39 3
2.80357 0.36888 2.69997 5.25587e-39 3
2.35911 0.305643 2.23712 4.88709e-39 3
2.36152 0.301338 2.20561 4.70197e-39 3
2.29997 0.289122 2.11619 4.42539e-39 3
2.54012 0.314633 2.30292 4.51722e-39 3
2.57733 0.314633 2.30292 4.14844e-39 3
2.11653 0.254703 1.86427 3.59491e-39 3
2.14665 0.254703 1.86427 4.70126e-39 3
-0.572174 0.323314 2.11619 1.64292e-38 3
-0.537982 0.323314 2.11619 1.90074e-38 3
-0.50379 0.323314 2.11619 1.87294e-38 3
-0.45724 0.314806 2.06051 2.02031e-38 3
-0.350217 0.260057 1.70216 1.90953e-38 3
-0.285479 0.23005 1.50575 1.83577e-38 3
-0.242496 0.213618 1.3982 1.83577e-38 3
-0.219905 0.213618 1.3982 1.78035e-38 3
-0.225501 0.244135 1.59794 1.20848e-38 3
-0.407685 0.498442 3.26247 1.25436e-38 3
0.106592 0.191402 1.25279 1.21716e-38 3
0.126834 0.191402 1.25279 1.11567e-38 3
0.154492 0.201052 1.31595 1.15248e-38 3
0.177243 0.202756 1.32711 1.17088e-38 3
0.202112 0.206252 1.34999 1.30921e-38 3
0.227852 0.209871 1.37367 1.26304e-38 3
0.250047 0.209871 1.37367 1.23535e-38 3
0.387945 0.299066 1.95748 1.30889e-38 3
0.419573 0.299066 1.95748 1.23506e-38 3
0.410183 0.271878 1.77953 1.29045e-38 3
0.327342 0.202756 1.32711 1.33673e-38 3
0.541533 0.314806 2.06051 1.33687e-38 3
0.574826 0.314806 2.06051 1.27233e-38 3
0.641902 0.332295 2.17498 1.16166e-38 3
0.706481 0.346743 2.26954 1.19861e-38 3
0.765335 0.357093 2.33729 1.24471e-38 3
0.803099 0.357093 2.33729 1.20783e-38 3
0.828498 0.351842 2.30292 1.14323e-38 3
0.878628 0.357093 2.33729 1.1801e-38 3
1.18074 0.460101 3.01151 1.1894e-38 3
1.33184 0.498442 3.26247 1.15252e-38 3
0.874458 0.314806 2.06051 1.05103e-38 3
0.862363 0.299066 1.95748 9.68018e-39 3
0.933898 0.291771 1.90974 9.40359e-39 3
0.964755 0.291771 1.90974 1.06021e-38 3
1.07421 0.314806 2.06051 1.08787e-38 3
1.16903 0.332295 2.17498 1.02334e-38 3
1.31365 0.362504 2.3727 9.2192e-39 3
1.39423 0.373832 2.44685 9.31139e-39 3
1.43377 0.373832 2.44685 9.49615e-39 3
1.4733 0.373832 2.44685 9.95713e-39 3
1.51284 0.373832 2.44685 1.01415e-38 3
1.60245 0.385891 2.52578 8.39016e-39 3
1.59191 0.373832 2.44685 1.00497e-38 3
1.63144 0.373832 2.44685 8.75894e-39 3
2.21469 0.44306 2.89997 8.11285e-39 3
2.0354 0.398754 2.60997 6.36078e-39 3
1.94772 0.373832 2.44685 6.54517e-39 3
1.63057 0.306734 2.00767 7.00615e-39 3
1.52605 0.281473 1.84233 7.74371e-39 3
1.67398 0.302851 1.98226 6.82211e-39 3
1.87187 0.332295 2.17498 7.65187e-39 3
1.9615 0.341789 2.23712 6.17674e-39 3
2.0266 0.346743 2.26954 7.0065e-39 3
2.00515 0.336975 2.20561 6.45333e-39 3
1.95805 0.323314 2.11619 6.54553e-39 3
1.99224 0.323314 2.11619 5.90052e-39 3
2.02644 0.323314 2.11619 5.62393e-39 3
1.52486 0.239252 1.56598 5.53174e-39 3
2.87068 0.44306 2.89997 5.43954e-39 3
2.81334 0.427236 2.7964 5.71613e-39 3
2.75995 0.412504 2.69997 4.97856e-39 3
2.71012 0.398754 2.60997 4.7027e-39 3
2.46474 0.357093 2.33729 4.97856e-39 3
2.42997 0.346743 2.26954 5.80832e-39 3
2.39715 0.336975 2.20561 5.16259e-39 3
2.54012 0.351842 2.30292 4.70161e-39 3
2.43415 0.332295 2.17498 5.25479e-39 3
2.11653 0.284824 1.86427 4.70161e-39 3
-0.482485 0.284467 1.68385 2.02013e-38 3
-0.455278 0.284467 1.68385 2.14874e-38 3
-0.537982 0.357506 2.11619 2.21313e-38 3
-0.490532 0.348098 2.06051 2.22231e-38 3
-0.404072 0.307622 1.82091 2.23139e-38 3
-0.350217 0.287559 1.70216 2.23142e-38 3
-0.285479 0.254379 1.50575 2.20391e-38 3
-0.219029 0.213351 1.26289 2.18554e-38 3
-0.212322 0.228064 1.34999 2.15792e-38 3
-0.18728 0.224199 1.32711 2.07487e-38 3
-0.171657 0.232065 1.37367 1.76126e-38 3
-0.177486 0.275578 1.63123 1.38319e-38 3
-0.259079 0.472419 2.7964 1.4568e-38 3
0.114828 0.281441 1.66594 1.25418e-38 3
0.13596 0.269954 1.59794 1.14358e-38 3
0.123862 0.206683 1.22343 1.38319e-38 3
0.147076 0.211644 1.25279 1.25404e-38 3
0.177243 0.224199 1.32711 1.19865e-38 3
0.207477 0.234119 1.38583 1.29077e-38 3
0.227852 0.232065 1.37367 1.19854e-38 3
0.247873 0.230048 1.36173 1.29989e-38 3
0.267549 0.228064 1.34999 1.4103e-38 3
0.286888 0.226115 1.33845 1.53927e-38 3
0.300801 0.220462 1.30499 1.32733e-38 3
0.314035 0.215085 1.27316 1.29981e-38 3
0.478564 0.307622 1.82091 1.32758e-38 3
0.574826 0.348098 2.06051 1.2446e-38 3
0.624554 0.357506 2.11619 1.30918e-38 3
0.696389 0.377935 2.23712 1.3184e-38 3
0.813927 0.419928 2.48569 1.2262e-38 3
0.896794 0.440924 2.60997 1.22624e-38 3
0.866737 0.407007 2.40921 1.2078e-38 3
0.905663 0.407007 2.40921 1.1617e-38 3
0.852036 0.339173 2.00767 1.1156e-38 3
0.821298 0.314946 1.86427 1.1801e-38 3
0.533726 0.197429 1.16864 1.2262e-38 3
0.544481 0.194525 1.15146 1.09709e-38 3
0.627856 0.209964 1.24284 1.1062e-38 3
1.20059 0.389051 2.30292 1.05099e-38 3
1.31516 0.413367 2.44685 1.05099e-38 3
1.3547 0.413367 2.44685 1.09709e-38 3
1.43921 0.426701 2.52578 9.86457e-39 3
1.48002 0.426701 2.52578 1.06029e-38 3
1.57152 0.440924 2.60997 1.06025e-38 3
1.61369 0.440924 2.60997 9.77273e-39 3
1.55237 0.413367 2.44685 9.49615e-39 3
1.54367 0.40084 2.3727 9.12736e-39 3
1.04412 0.264555 1.56598 9.127e-39 3
1.09125 0.269954 1.59794 9.95604e-39 3
2.27115 0.472419 2.7964 9.2192e-39 3
2.09217 0.426701 2.52578 8.29724e-39 3
1.88921 0.377935 2.23712 7.92846e-39 3
1.95326 0.383413 2.26954 7.83627e-39 3
1.93387 0.372612 2.20561 6.54553e-39 3
2.0266 0.383413 2.26954 5.80796e-39 3
2.00515 0.372612 2.20561 6.91431e-39 3
1.85764 0.339173 2.00767 6.45333e-39 3
1.75507 0.314946 1.86427 6.45333e-39 3
1.41468 0.24958 1.47734 6.26895e-39 3
1.43855 0.24958 1.47734 5.71613e-39 3
2.50027 0.426701 2.52578 6.17711e-39 3
2.71633 0.456129 2.69997 5.62393e-39 3
2.75995 0.456129 2.69997 5.80832e-39 3
2.71012 0.440924 2.60997 5.80832e-39 3
2.62123 0.419928 2.48569 5.71613e-39 3
2.42997 0.383413 2.26954 5.43954e-39 3
2.39715 0.372612 2.20561 5.25515e-39 3
2.61709 0.40084 2.3727 5.25479e-39 3
2.43415 0.367437 2.17498 5.71577e-39 3
2.11653 0.314946 1.86427 5.80724e-39 3
2.14665 0.314946 1.86427 6.08383e-39 3
-0.462589 0.298822 1.61442 2.2222e-38 3
-0.43205 0.295772 1.59794 2.24979e-38 3
-0.406231 0.295772 1.59794 2.2773e-38 3
-0.291254 0.226451 1.22343 2.28645e-38 3
-0.271486 0.226451 1.22343 2.28645e-38 3
-0.261951 0.235656 1.27316 2.28645e-38 3
-0.24138 0.235656 1.27316 2.2773e-38 3
-0.204207 0.217938 1.17743 2.25894e-38 3
-0.185183 0.217938 1.17743 2.26816e-38 3
-0.18114 0.237588 1.28359 2.25894e-38 3
-0.160401 0.237588 1.28359 2.23128e-38 3
-0.144395 0.245641 1.32711 1.8625e-38 3
-0.134337 0.268386 1.44999 1.31847e-38 3
-0.119782 0.289857 1.56598 1.32769e-38 3
0.0744402 0.199901 1.07999 1.31876e-38 3
0.0931752 0.202697 1.09509 1.30954e-38 3
0.152445 0.278709 1.50575 1.18968e-38 3
0.176774 0.278709 1.50575 1.18957e-38 3
0.205046 0.284173 1.53528 1.22638e-38 3
0.229852 0.284173 1.53528 1.17106e-38 3
0.227852 0.25426 1.37367 1.25393e-38 3
0.247873 0.252049 1.36173 1.14326e-38 3
0.265262 0.247741 1.33845 1.33673e-38 3
0.286888 0.247741 1.33845 1.29063e-38 3
0.300801 0.241547 1.30499 1.31829e-38 3
0.311502 0.233756 1.26289 1.37371e-38 3
0.428714 0.301934 1.63123 1.32765e-38 3
0.546084 0.362321 1.95748 1.24468e-38 3
0.624554 0.391698 2.11619 1.32762e-38 3
0.696389 0.414081 2.23712 1.24464e-38 3
0.971343 0.499753 2.69997 1.25393e-38 3
0.968614 0.439177 2.3727 1.29081e-38 3
0.874458 0.381391 2.06051 1.28152e-38 3
0.718635 0.301934 1.63123 1.00493e-38 3
0.537739 0.217938 1.17743 1.0511e-38 3
0.556763 0.217938 1.17743 1.13401e-38 3
0.57149 0.216311 1.16864 1.10638e-38 3
0.941785 0.345068 1.86427 1.17085e-38 3
1.27563 0.452901 2.44685 1.08784e-38 3
1.31516 0.452901 2.44685 1.04177e-38 3
1.3984 0.467511 2.52578 1.02333e-38 3
1.43921 0.467511 2.52578 9.68018e-39 3
1.58209 0.499753 2.69997 9.95713e-39 3
1.50533 0.439177 2.3727 8.20541e-39 3
0.998842 0.284173 1.53528 1.01415e-38 3
1.02365 0.284173 1.53528 1.03259e-38 3
1.04845 0.284173 1.53528 1.06021e-38 3
1.11707 0.295772 1.59794 9.49578e-39 3
1.24448 0.322063 1.73998 8.57383e-39 3
2.20408 0.483095 2.60997 9.03481e-39 3
2.10586 0.452901 2.44685 8.75822e-39 3
1.9615 0.414081 2.23712 9.03481e-39 3
1.99765 0.414081 2.23712 8.482e-39 3
2.00515 0.408249 2.20561 7.74407e-39 3
1.76702 0.353484 1.90974 6.08455e-39 3
1.34024 0.263506 1.42362 6.63737e-39 3
1.36324 0.263506 1.42362 5.992e-39 3
1.39896 0.265924 1.43668 5.53174e-39 3
2.15301 0.402579 2.17498 6.63809e-39 3
2.62578 0.483095 2.60997 5.62394e-39 3
2.75995 0.499753 2.69997 5.53174e-39 3
2.80357 0.499753 2.69997 6.3615e-39 3
2.79894 0.491283 2.65421 6.1771e-39 3
2.61981 0.452901 2.44685 5.53173e-39 3
2.83663 0.483095 2.60997 5.80832e-39 3
2.69888 0.452901 2.44685 5.62357e-39 3
2.57733 0.42626 2.30292 6.45333e-39 3
2.46929 0.402579 2.17498 5.62249e-39 3
-0.883682 0.358135 1.77953 4.70199e-39 3
-0.457869 0.321591 1.59794 2.2773e-38 3
-0.427686 0.318343 1.5818 2.29563e-38 3
-0.432725 0.342564 1.70216 2.29563e-38 3
-0.291254 0.246218 1.22343 2.29563e-38 3
-0.271486 0.246218 1.22343 2.29563e-38 3
-0.253701 0.248157 1.23306 2.29563e-38 3
-0.233778 0.248157 1.23306 2.28645e-38 3
-0.201182 0.233451 1.15999 2.28645e-38 3
-0.182439 0.233451 1.15999 2.28645e-38 3
-0.178219 0.254161 1.26289 2.28645e-38 3
-0.157813 0.254161 1.26289 2.25883e-38 3
-0.139661 0.258327 1.28359 2.26808e-38 3
-0.120904 0.262633 1.30499 1.41059e-38 3
-0.10151 0.267084 1.32711 1.49357e-38 3
-0.0800676 0.267084 1.32711 1.45662e-38 3
-0.058625 0.267084 1.32711 1.34591e-38 3
0.0400936 0.220391 1.09509 1.42914e-38 3
0.0577874 0.220391 1.09509 1.36467e-38 3
0.0744402 0.217351 1.07999 1.43843e-38 3
0.0931752 0.220391 1.09509 1.29092e-38 3
0.113245 0.225114 1.11856 1.30025e-38 3
0.131318 0.225114 1.11856 1.23578e-38 3
0.201103 0.303038 1.50575 1.42006e-38 3
0.203869 0.274051 1.36173 1.35545e-38 3
0.218279 0.26484 1.31595 1.27241e-38 3
0.239541 0.26484 1.31595 1.38297e-38 3
0.263014 0.267084 1.32711 1.31843e-38 3
0.284456 0.267084 1.32711 1.26312e-38 3
0.293464 0.256227 1.27316 1.32769e-38 3
0.301768 0.246218 1.22343 1.32772e-38 3
0.304863 0.233451 1.15999 1.18939e-38 3
0.546084 0.393949 1.95748 1.37375e-38 3
0.624554 0.425891 2.11619 1.37368e-38 3
0.696389 0.450227 2.23712 1.44736e-38 3
0.874458 0.414683 2.06051 1.1617e-38 3
0.718635 0.328291 1.63123 1.22617e-38 3
0.650175 0.286508 1.42362 1.22627e-38 3
0.556763 0.236962 1.17743 1.2078e-38 3
0.567257 0.233451 1.15999 1.26312e-38 3
0.627856 0.250126 1.24284 1.18018e-38 3
0.669181 0.258327 1.28359 1.13401e-38 3
0.814358 0.258327 1.28359 1.00493e-38 3
0.849016 0.262633 1.30499 8.66639e-39 3
0.932251 0.281392 1.3982 9.58834e-39 3
0.990207 0.291814 1.44999 1.23542e-38 3
1.07326 0.30898 1.53528 9.77237e-39 3
1.14289 0.321591 1.59794 1.09709e-38 3
1.27259 0.350177 1.73998 1.06943e-38 3
1.50885 0.346329 1.72086 8.38944e-39 3
1.50361 0.338881 1.68385 8.57383e-39 3
1.8252 0.40405 2.00767 8.57383e-39 3
1.31723 0.286508 1.42362 8.94261e-39 3
1.29321 0.276455 1.37367 8.85042e-39 3
1.30397 0.274051 1.36173 8.66603e-39 3
1.32597 0.274051 1.36173 8.3898e-39 3
1.34797 0.274051 1.36173 7.65224e-39 3
2.31687 0.463469 2.30292 7.00687e-39 3
-1.14779 0.370067 1.70216 1.08776e-38 3
-1.09645 0.362193 1.66594 9.77129e-39 3
-1.06953 0.362193 1.66594 8.38801e-39 3
-0.873753 0.382541 1.75953 4.15026e-39 3
-0.817759 0.370067 1.70216 4.79742e-39 3
-0.757329 0.354647 1.63123 4.06274e-39 3
-0.701734 0.340461 1.56598 4.34258e-39 3
-0.453244 0.3439 1.5818 2.28645e-38 3
-0.419217 0.33709 1.55048 2.28645e-38 3
-0.382795 0.327367 1.50575 2.28645e-38 3
-0.358466 0.327367 1.50575 2.28645e-38 3
-0.299571 0.293501 1.34999 2.28645e-38 3
-0.259839 0.274566 1.26289 2.28645e-38 3
-0.231951 0.265985 1.22343 2.2773e-38 3
-0.204207 0.255986 1.17743 2.28645e-38 3
-0.198624 0.274566 1.26289 2.28645e-38 3
-0.178219 0.274566 1.26289 2.2956e-38 3
-0.155309 0.270207 1.24284 2.26801e-38 3
-0.135227 0.270207 1.24284 2.28645e-38 3
-0.117003 0.274566 1.26289 2.26794e-38 3
-0.0981819 0.279067 1.28359 1.53041e-38 3
-0.0774424 0.279067 1.28359 1.44733e-38 3
-0.0461183 0.226974 1.04399 1.49343e-38 3
0.0216429 0.230041 1.0581 1.44743e-38 3
0.038739 0.230041 1.0581 1.32765e-38 3
0.0558352 0.230041 1.0581 1.48438e-38 3
0.0729313 0.230041 1.0581 1.45669e-38 3
0.0894232 0.228498 1.051 1.51201e-38 3
0.10934 0.234801 1.07999 1.55821e-38 3
0.12679 0.234801 1.07999 1.3924e-38 3
0.168667 0.274566 1.26289 1.37386e-38 3
0.19376 0.281373 1.2942 1.38301e-38 3
0.218279 0.286102 1.31595 1.41985e-38 3
0.239541 0.286102 1.31595 1.37368e-38 3
0.263014 0.288527 1.32711 1.34609e-38 3
0.284456 0.288527 1.32711 1.47517e-38 3
0.298315 0.281373 1.2942 1.39226e-38 3
0.306558 0.270207 1.24284 1.37379e-38 3
0.29609 0.244936 1.12661 1.21705e-38 3
0.309835 0.241462 1.11063 1.16174e-38 3
0.624554 0.460083 2.11619 1.17081e-38 3
0.677044 0.472863 2.17498 1.3551e-38 3
0.718635 0.354647 1.63123 1.2907e-38 3
0.518255 0.246711 1.13477 1.29985e-38 3
0.53659 0.246711 1.13477 1.20773e-38 3
0.558976 0.248512 1.14305 1.17085e-38 3
0.569136 0.244936 1.12661 1.2078e-38 3
0.57493 0.239762 1.10281 1.18932e-38 3
0.689921 0.279067 1.28359 1.30925e-38 3
0.756418 0.265985 1.22343 1.21702e-38 3
0.776185 0.265985 1.22343 1.18936e-38 3
0.808587 0.270207 1.24284 1.11564e-38 3
0.855837 0.279067 1.28359 1.16174e-38 3
0.906291 0.288527 1.32711 1.05103e-38 3
1.01364 0.315242 1.44999 8.66639e-39 3
1.03706 0.315242 1.44999 9.77202e-39 3
1.14533 0.340461 1.56598 9.3114e-39 3
1.21941 0.354647 1.63123 7.83518e-39 3
1.9615 0.486373 2.23712 8.29617e-39 3
1.34457 0.327367 1.50575 8.29689e-39 3
1.3182 0.315242 1.44999 8.02066e-39 3
1.30537 0.306722 1.4108 8.57383e-39 3
1.29321 0.29865 1.37367 8.38944e-39 3
1.28168 0.290993 1.33845 8.38944e-39 3
1.29226 0.288527 1.32711 7.74443e-39 3
1.3137 0.288527 1.32711 7.46856e-39 3
2.25067 0.486373 2.23712 7.46821e-39 3
-0.766856 0.259407 1.11063 9.95568e-39 3
-0.738437 0.255779 1.09509 1.05089e-38 3
-0.720743 0.255779 1.09509 1.06933e-38 3
-0.723281 0.263139 1.12661 1.04163e-38 3
-0.700042 0.26126 1.11856 9.12557e-39 3
-0.645106 0.247138 1.0581 8.57419e-39 3
-0.773443 0.38911 1.66594 3.69793e-39 3
-0.504058 0.435433 1.86427 2.27723e-38 3
-0.423518 0.38911 1.66594 2.28645e-38 3
-0.372804 0.365764 1.56598 2.28645e-38 3
-0.354594 0.373228 1.59794 2.28645e-38 3
-0.3222 0.365764 1.56598 2.28645e-38 3
-0.231951 0.285753 1.22343 2.28645e-38 3
-0.20892 0.281357 1.2046 2.28645e-38 3
-0.205244 0.304803 1.30499 2.28645e-38 3
-0.178219 0.294971 1.26289 2.28645e-38 3
-0.157813 0.294971 1.26289 2.28645e-38 3
-0.135227 0.290289 1.24284 2.28645e-38 3
-0.115146 0.290289 1.24284 2.26801e-38 3
-0.0772787 0.235977 1.01031 1.6964e-38 3
-0.0609547 0.235977 1.01031 1.48421e-38 3
-0.0449204 0.237509 1.01687 1.2629e-38 3
-0.0288653 0.240634 1.03025 1.41967e-38 3
-0.0123 0.242228 1.03708 1.33669e-38 3
0.00445648 0.242228 1.03708 1.34602e-38 3
0.0213544 0.243842 1.04399 1.41048e-38 3
0.0382225 0.243842 1.04399 1.41048e-38 3
0.0547258 0.242228 1.03708 1.6686e-38 3
0.071012 0.240634 1.03025 1.558e-38 3
0.0870853 0.239061 1.02352 1.58555e-38 3
0.10295 0.237509 1.01687 1.57636e-38 3
0.11938 0.237509 1.01687 1.48438e-38 3
0.13581 0.237509 1.01687 1.52133e-38 3
0.153235 0.239061 1.02352 1.45669e-38 3
0.209477 0.294971 1.26289 1.34598e-38 3
0.21595 0.277094 1.18635 1.38283e-38 3
0.235118 0.277094 1.18635 1.4197e-38 3
0.258199 0.281357 1.2046 1.41063e-38 3
0.277662 0.281357 1.2046 1.34616e-38 3
0.288256 0.272958 1.16864 1.31847e-38 3
0.307138 0.272958 1.16864 1.27248e-38 3
0.291245 0.243842 1.04399 1.35535e-38 3
0.355515 0.281357 1.2046 1.37375e-38 3
0.380838 0.285753 1.22343 1.20769e-38 3
0.400605 0.285753 1.22343 1.06014e-38 3
0.67471 0.34506 1.47734 1.36431e-38 3
0.540507 0.266981 1.14305 1.37361e-38 3
0.558976 0.266981 1.14305 1.36439e-38 3
0.569136 0.263139 1.12661 1.18932e-38 3
0.57091 0.255779 1.09509 1.11557e-38 3
0.668019 0.290289 1.24284 1.18929e-38 3
0.71066 0.299806 1.28359 1.23535e-38 3
0.748343 0.290289 1.24284 1.10635e-38 3
0.756418 0.285753 1.22343 1.27223e-38 3
0.776185 0.285753 1.22343 1.18918e-38 3
0.795953 0.285753 1.22343 1.07865e-38 3
0.828668 0.290289 1.24284 1.17085e-38 3
0.876577 0.299806 1.28359 1.13397e-38 3
0.912272 0.304803 1.30499 1.07865e-38 3
0.949176 0.309969 1.32711 1.06021e-38 3
0.970619 0.309969 1.32711 1.01412e-38 3
0.992062 0.309969 1.32711 9.03481e-39 3
1.0135 0.309969 1.32711 9.95676e-39 3
0.954092 0.285753 1.22343 9.21956e-39 3
0.973859 0.285753 1.22343 9.58834e-39 3
1.3192 0.34506 1.47734 9.21884e-39 3
1.27112 0.326575 1.3982 9.127e-39 3
1.29371 0.326575 1.3982 8.75787e-39 3
1.27091 0.315313 1.34999 8.57347e-39 3
1.28168 0.312618 1.33845 7.55968e-39 3
1.3033 0.312618 1.33845 7.19126e-39 3
1.93771 0.457205 1.95748 7.46784e-39 3
-0.813654 0.287548 1.15146 1.22606e-38 3
-0.79505 0.287548 1.15146 1.17074e-38 3
-0.748911 0.277352 1.11063 1.16152e-38 3
-0.730967 0.277352 1.11063 1.04167e-38 3
-0.723281 0.281342 1.12661 1.00475e-38 3
-0.690182 0.275399 1.10281 9.6791e-39 3
-0.640776 0.26246 1.051 8.482e-39 3
-0.623795 0.26246 1.051 5.43919e-39 3
-0.558118 0.241399 0.966657 4.0577e-39 3
-0.505086 0.224751 0.899991 4.51939e-39 3
-0.108384 0.0944604 0.378257 2.25879e-38 3
-0.414694 0.40736 1.63123 2.28645e-38 3
-0.388338 0.40736 1.63123 2.28645e-38 3
-0.361981 0.40736 1.63123 2.28645e-38 3
-0.251477 0.362098 1.44999 2.28645e-38 3
-0.205244 0.325888 1.30499 2.28645e-38 3
-0.184159 0.325888 1.30499 2.28645e-38 3
-0.157813 0.315376 1.26289 2.28645e-38 3
-0.137408 0.315376 1.26289 2.28645e-38 3
-0.115146 0.31037 1.24284 2.28645e-38 3
-0.0758114 0.24751 0.991129 2.26801e-38 3
-0.0597973 0.24751 0.991129 1.58573e-38 3
-0.0443445 0.250683 1.00384 1.43818e-38 3
-0.0283066 0.252301 1.01031 1.33676e-38 3
-0.0119826 0.252301 1.01031 1.39201e-38 3
0.00439822 0.255599 1.02352 1.44729e-38 3
0.0210734 0.25728 1.03025 1.42885e-38 3
0.0377196 0.25728 1.03025 1.38275e-38 3
0.0540105 0.255599 1.02352 1.46566e-38 3
0.0696376 0.252301 1.01031 1.6131e-38 3
0.0848666 0.249087 0.997442 1.72363e-38 3
0.100344 0.24751 0.991129 1.54849e-38 3
0.116358 0.24751 0.991129 1.47495e-38 3
0.130717 0.244416 0.97874 1.63175e-38 3
0.146531 0.244416 0.97874 1.5209e-38 3
0.161336 0.242898 0.972661 1.5576e-38 3
0.178159 0.244416 0.97874 1.59459e-38 3
0.193973 0.244416 0.97874 1.68689e-38 3
0.207197 0.241399 0.966657 1.558e-38 3
0.222815 0.241399 0.966657 1.38297e-38 3
0.24447 0.24751 0.991129 1.26308e-38 3
0.265526 0.252301 1.01031 1.34613e-38 3
0.285534 0.255599 1.02352 1.34613e-38 3
0.30011 0.253939 1.01687 1.28159e-38 3
0.31654 0.253939 1.01687 1.33687e-38 3
0.335147 0.255599 1.02352 1.41974e-38 3
0.650175 0.355514 1.42362 1.30889e-38 3
0.627538 0.331412 1.32711 1.26279e-38 3
0.617578 0.315376 1.26289 1.31807e-38 3
0.565071 0.279333 1.11856 1.32733e-38 3
0.57091 0.273473 1.09509 1.2445e-38 3
0.657581 0.30552 1.22343 1.28134e-38 3
0.6881 0.31037 1.24284 1.19836e-38 3
0.708181 0.31037 1.24284 1.18904e-38 3
0.728262 0.31037 1.24284 1.15212e-38 3
0.73665 0.30552 1.22343 1.27201e-38 3
0.733496 0.296262 1.18635 1.23513e-38 3
0.741431 0.29184 1.16864 1.24435e-38 3
0.749132 0.287548 1.15146 1.15226e-38 3
0.81572 0.30552 1.22343 1.16148e-38 3
0.848749 0.31037 1.24284 1.09691e-38 3
0.86883 0.31037 1.24284 1.06007e-38 3
0.933357 0.325888 1.30499 1.11542e-38 3
0.954442 0.325888 1.30499 1.17996e-38 3
0.944059 0.315376 1.26289 9.77129e-39 3
0.934324 0.30552 1.22343 1.02323e-38 3
0.872312 0.279333 1.11856 9.31211e-39 3
1.23796 0.340057 1.36173 5.99272e-39 3
1.25996 0.340057 1.36173 7.37565e-39 3
1.27091 0.337126 1.34999 7.28346e-39 3
1.87445 0.488832 1.95748 7.19126e-39 3
1.90608 0.488832 1.95748 6.73028e-39 3
1.93771 0.488832 1.95748 6.45369e-39 3
-0.775255 0.285184 1.07259 1.1984e-38 3
-0.728006 0.273926 1.03025 1.13386e-38 3
-0.740594 0.285184 1.07259 1.07854e-38 3
-0.728252 0.28715 1.07999 1.23528e-38 3
-0.725819 0.293217 1.10281 1.05089e-38 3
-0.718115 0.297406 1.11856 1.12464e-38 3
-0.666706 0.283244 1.0653 9.86349e-39 3
-0.632289 0.275741 1.03708 7.83663e-39 3
-0.603542 0.270369 1.01687 5.62358e-39 3
-0.502307 0.231316 0.869991 4.0577e-39 3
-0.482884 0.228774 0.860431 3.87403e-39 3
-0.444556 0.216858 0.815617 4.33573e-39 3
-0.118961 0.0944145 0.355098 2.18507e-38 3
-0.113224 0.0944145 0.355098 2.28645e-38 3
-0.107243 0.0942009 0.354295 2.28645e-38 3
-0.102915 0.0954973 0.359171 2.28645e-38 3
-0.0971121 0.0954973 0.359171 2.28645e-38 3
-0.361981 0.433717 1.63123 2.28645e-38 3
-0.251477 0.385526 1.44999 2.28645e-38 3
-0.197313 0.371757 1.3982 2.28645e-38 3
-0.160742 0.3928 1.47734 2.28645e-38 3
-0.118921 0.341285 1.28359 2.27723e-38 3
-0.0739395 0.257017 0.966657 2.29567e-38 3
-0.0569155 0.250824 0.943364 1.54885e-38 3
-0.0416732 0.250824 0.943364 1.6225e-38 3
-0.026591 0.252344 0.949081 1.57633e-38 3
-0.011325 0.253883 0.954868 1.37353e-38 3
0.00405378 0.250824 0.943364 1.438e-38 3
0.0200197 0.26023 0.97874 1.40105e-38 3
0.0365183 0.265203 0.997442 1.42871e-38 3
0.0523013 0.263524 0.991129 1.48395e-38 3
0.0654171 0.252344 0.949081 1.44707e-38 3
0.0797847 0.249322 0.937715 1.43771e-38 3
0.0949358 0.249322 0.937715 1.36395e-38 3
0.109432 0.247838 0.932133 1.43785e-38 3
0.124492 0.247838 0.932133 1.47477e-38 3
0.139553 0.247838 0.932133 1.65884e-38 3
0.153699 0.246372 0.926618 1.75082e-38 3
0.169675 0.247838 0.932133 1.73249e-38 3
0.184736 0.247838 0.932133 1.576e-38 3
0.199797 0.247838 0.932133 1.64069e-38 3
0.216144 0.249322 0.937715 1.4842e-38 3
0.231295 0.249322 0.937715 1.44736e-38 3
0.262143 0.265203 0.997442 1.44747e-38 3
0.28185 0.268625 1.01031 1.48438e-38 3
0.30011 0.270369 1.01687 1.32765e-38 3
0.31654 0.270369 1.01687 1.41063e-38 3
0.335147 0.272136 1.02352 1.41978e-38 3
0.378927 0.293217 1.10281 1.35531e-38 3
0.36583 0.270369 1.01687 1.29999e-38 3
0.37736 0.266903 1.00384 1.45676e-38 3
0.393579 0.266903 1.00384 1.33684e-38 3
0.744992 0.433717 1.63123 1.43789e-38 3
0.638357 0.358938 1.34999 1.39169e-38 3
0.617578 0.335781 1.26289 1.18882e-38 3
0.618046 0.325288 1.22343 1.25332e-38 3
0.609255 0.310723 1.16864 1.17971e-38 3
0.637654 0.31543 1.18635 1.39179e-38 3
0.666928 0.320283 1.2046 1.30882e-38 3
0.686391 0.320283 1.2046 1.36406e-38 3
0.705854 0.320283 1.2046 1.38247e-38 3
0.714328 0.31543 1.18635 1.29945e-38 3
0.722548 0.310723 1.16864 1.17042e-38 3
0.71994 0.301716 1.13477 1.21655e-38 3
0.688391 0.28133 1.0581 1.19811e-38 3
0.791001 0.31543 1.18635 1.21655e-38 3
0.835487 0.325288 1.22343 1.11513e-38 3
0.86883 0.330451 1.24284 1.29953e-38 3
0.888911 0.330451 1.24284 1.2996e-38 3
0.908992 0.330451 1.24284 1.0968e-38 3
0.914557 0.325288 1.22343 1.0968e-38 3
0.879364 0.306153 1.15146 1.13368e-38 3
0.82516 0.28133 1.0581 1.03241e-38 3
0.842343 0.26023 0.97874 1.05081e-38 3
1.46069 0.442945 1.66594 7.28202e-39 3
1.72495 0.495676 1.86427 7.56004e-39 3
1.75507 0.495676 1.86427 7.46785e-39 3
-0.615148 0.240038 0.851078 1.12468e-38 3
-0.598146 0.238741 0.846478 1.16152e-38 3
-0.716071 0.292497 1.03708 1.06011e-38 3
-0.718344 0.300456 1.0653 1.06933e-38 3
-0.705934 0.302514 1.07259 1.05089e-38 3
-0.683919 0.300456 1.0653 8.94154e-39 3
-0.653372 0.294447 1.04399 9.03373e-39 3
-0.57171 0.264473 0.937715 6.91467e-39 3
-0.549973 0.261343 0.926618 6.08456e-39 3
-0.502307 0.245372 0.869991 4.97966e-39 3
-0.477636 0.240038 0.851078 4.33465e-39 3
-0.431084 0.223066 0.790901 5.2566e-39 3
-0.129263 0.0992518 0.351907 2.2773e-38 3
-0.123578 0.0992518 0.351907 2.24961e-38 3
-0.117892 0.0992518 0.351907 1.91781e-38 3
-0.112458 0.0994753 0.352699 2.28645e-38 3
-0.10652 0.0992518 0.351907 2.28645e-38 3
-0.101518 0.0999254 0.354295 2.29567e-38 3
-0.0960111 0.100152 0.355098 2.28645e-38 3
-0.0898661 0.0996999 0.353495 2.28645e-38 3
-0.0877187 0.103922 0.368467 2.28645e-38 3
-0.0819581 0.104168 0.369336 2.28645e-38 3
-0.0759906 0.104168 0.369336 2.28645e-38 3
-0.0638065 0.114422 0.405695 2.28645e-38 3
-0.0565194 0.112959 0.400507 2.28645e-38 3
-0.136872 0.41667 1.47734 2.30489e-38 3
-0.0981819 0.362025 1.28359 2.26801e-38 3
-0.0555763 0.259806 0.921167 1.66867e-38 3
-0.0404547 0.258287 0.91578 1.46569e-38 3
-0.0255088 0.256785 0.910456 1.55782e-38 3
-0.0108614 0.258287 0.91578 1.48399e-38 3
0.00393525 0.258287 0.91578 1.60384e-38 3
0.0185153 0.255301 0.905193 1.63147e-38 3
0.0339253 0.261343 0.926618 1.5115e-38 3
0.0491881 0.262899 0.932133 1.51161e-38 3
0.0638688 0.261343 0.926618 1.43786e-38 3
0.0783768 0.259806 0.921167 1.59444e-38 3
0.0932605 0.259806 0.921167 1.53913e-38 3
0.108144 0.259806 0.921167 1.49306e-38 3
0.122308 0.258287 0.91578 1.41934e-38 3
0.137105 0.258287 0.91578 1.47444e-38 3
0.151018 0.256785 0.910456 1.64015e-38 3
0.166698 0.258287 0.91578 1.59412e-38 3
0.182563 0.259806 0.921167 1.42838e-38 3
0.197446 0.259806 0.921167 1.48395e-38 3
0.214858 0.262899 0.932133 1.41034e-38 3
0.229918 0.262899 0.932133 1.42885e-38 3
0.257228 0.276044 0.97874 1.48424e-38 3
0.280043 0.283122 1.00384 1.558e-38 3
0.298174 0.284949 1.01031 1.43822e-38 3
0.314498 0.284949 1.01031 1.47509e-38 3
0.330822 0.284949 1.01031 1.64112e-38 3
0.358718 0.294447 1.04399 1.37375e-38 3
0.349925 0.274329 0.972661 1.42903e-38 3
0.348332 0.261343 0.926618 1.38301e-38 3
0.359055 0.258287 0.91578 1.26312e-38 3
0.369529 0.255301 0.905193 1.32758e-38 3
0.744992 0.460073 1.63123 1.20733e-38 3
0.627538 0.374297 1.32711 1.25325e-38 3
0.580149 0.334599 1.18635 1.27158e-38 3
0.52046 0.290573 1.03025 1.28084e-38 3
0.523334 0.283122 1.00384 1.2441e-38 3
0.539554 0.283122 1.00384 1.08748e-38 3
0.61929 0.315479 1.11856 1.14269e-38 3
0.6466 0.320051 1.13477 1.28098e-38 3
0.664935 0.320051 1.13477 1.33623e-38 3
0.693318 0.324758 1.15146 1.27162e-38 3
0.654199 0.298426 1.0581 1.44682e-38 3
0.645141 0.286799 1.01687 1.29023e-38 3
0.661571 0.286799 1.01687 1.15187e-38 3
0.705487 0.298426 1.0581 1.2625e-38 3
0.786341 0.324758 1.15146 1.29016e-38 3
0.855255 0.345055 1.22343 1.28094e-38 3
0.875022 0.345055 1.22343 1.17034e-38 3
0.894789 0.345055 1.22343 1.08737e-38 3
0.886843 0.334599 1.18635 1.17034e-38 3
0.808064 0.298426 1.0581 1.09662e-38 3
0.793011 0.286799 1.01687 1.16134e-38 3
0.788949 0.279538 0.991129 9.67874e-39 3
0.831944 0.272636 0.966657 1.01394e-38 3
0.847562 0.272636 0.966657 9.49471e-39 3
0.852654 0.269311 0.954868 8.94226e-39 3
-0.622137 0.251061 0.841927 1.0694e-38 3
-0.611823 0.252418 0.846478 1.26304e-38 3
-0.598146 0.252418 0.846478 1.08787e-38 3
-0.655314 0.283014 0.949081 1.05099e-38 3
-0.664129 0.293693 0.984896 1.09709e-38 3
-0.673636 0.305211 1.02352 1.02334e-38 3
-0.636304 0.295552 0.991129 1.06011e-38 3
-0.604974 0.288255 0.966657 9.49471e-39 3
-0.533383 0.260879 0.874851 8.85006e-39 3
-0.510689 0.256578 0.860431 7.19091e-39 3
-0.475869 0.245775 0.824202 5.53283e-39 3
-0.457734 0.243215 0.815617 4.97965e-39 3
-0.418405 0.228908 0.767639 4.70451e-39 3
-0.134346 0.104468 0.350332 2.2773e-38 3
-0.127544 0.103542 0.347225 2.2773e-38 3
-0.121934 0.103542 0.347225 2.2773e-38 3
-0.116841 0.104003 0.348772 2.17589e-38 3
-0.111206 0.104003 0.348772 2.28645e-38 3
-0.105336 0.103772 0.347996 2.28645e-38 3
-0.100834 0.104938 0.351907 2.28645e-38 3
-0.0957939 0.10565 0.354295 2.28645e-38 3
-0.0767143 0.111184 0.372853 2.28645e-38 3
-0.0549729 0.116162 0.389548 2.28645e-38 3
-0.0481992 0.115018 0.38571 2.28645e-38 3
-0.160742 0.44054 1.47734 2.28645e-38 3
-0.136872 0.44054 1.47734 2.28645e-38 3
-0.0998183 0.389144 1.30499 2.28645e-38 3
-0.0549301 0.271496 0.910456 2.29553e-38 3
-0.03953 0.266842 0.894848 1.42882e-38 3
-0.0241073 0.256578 0.860431 1.60388e-38 3
-0.0104932 0.263826 0.884737 1.55771e-38 3
0.00380185 0.263826 0.884737 1.63136e-38 3
0.0174084 0.253789 0.851078 1.64054e-38 3
0.0308246 0.251061 0.841927 1.55753e-38 3
0.046687 0.263826 0.884737 1.6498e-38 3
0.0623921 0.269926 0.905193 1.52072e-38 3
0.0770176 0.269926 0.905193 1.52054e-38 3
0.0916432 0.269926 0.905193 1.59426e-38 3
0.105658 0.268375 0.899991 1.55742e-38 3
0.119513 0.266842 0.894848 1.62196e-38 3
0.133971 0.266842 0.894848 1.57582e-38 3
0.14843 0.266842 0.894848 1.54813e-38 3
0.161963 0.265325 0.889764 1.73249e-38 3
0.175343 0.263826 0.884737 1.52058e-38 3
0.189638 0.263826 0.884737 1.44707e-38 3
0.213586 0.276315 0.926618 1.37346e-38 3
0.227214 0.27469 0.921167 1.46569e-38 3
0.24353 0.276315 0.926618 1.5119e-38 3
0.263173 0.281309 0.943364 1.45662e-38 3
0.28354 0.286486 0.960726 1.41052e-38 3
0.297239 0.284739 0.954868 1.56725e-38 3
0.303417 0.276315 0.926618 1.34602e-38 3
0.336298 0.291858 0.97874 1.37375e-38 3
0.335344 0.27796 0.932133 1.42907e-38 3
0.344258 0.273083 0.91578 1.36457e-38 3
0.356967 0.271496 0.910456 1.22627e-38 3
0.367405 0.268375 0.899991 1.42903e-38 3
0.381947 0.268375 0.899991 1.36435e-38 3
0.389768 0.263826 0.884737 1.34584e-38 3
0.413406 0.269926 0.905193 1.50236e-38 3
0.435585 0.27469 0.921167 1.49289e-38 3
0.435112 0.265325 0.889764 1.4375e-38 3
0.449488 0.265325 0.889764 1.42835e-38 3
0.458652 0.262344 0.879766 1.32704e-38 3
0.472867 0.262344 0.879766 1.26265e-38 3
0.476377 0.256578 0.860431 1.36406e-38 3
0.490279 0.256578 0.860431 1.31779e-38 3
0.504181 0.256578 0.860431 1.27176e-38 3
0.506942 0.251061 0.841927 1.28084e-38 3
0.515008 0.24839 0.83297 1.38214e-38 3
0.539955 0.253789 0.851078 1.37303e-38 3
0.559791 0.256578 0.860431 1.20719e-38 3
0.628989 0.281309 0.943364 1.23488e-38 3
0.722584 0.315522 1.0581 1.29942e-38 3
0.804946 0.343362 1.15146 1.31775e-38 3
0.848506 0.353767 1.18635 1.21637e-38 3
0.867675 0.353767 1.18635 1.18868e-38 3
0.790968 0.315522 1.0581 1.20704e-38 3
0.776581 0.303229 1.01687 1.0873e-38 3
0.772935 0.295552 0.991129 9.76734e-39 3
0.779087 0.291858 0.97874 9.67622e-39 3
0.785087 0.288255 0.966657 1.01379e-38 3
0.831944 0.288255 0.966657 9.40072e-39 3
0.847562 0.288255 0.966657 9.77058e-39 3
0.803651 0.268375 0.899991 9.40252e-39 3
0.782228 0.256578 0.860431 9.03337e-39 3
0.933835 0.281309 0.943364 7.19017e-39 3
0.949078 0.281309 0.943364 6.72919e-39 3
-0.612261 0.260463 0.828563 9.77237e-39 3
-0.595722 0.259092 0.824202 1.18932e-38 3
-0.582405 0.259092 0.824202 9.86421e-39 3
-0.639803 0.291287 0.926618 1.18007e-38 3
-0.647831 0.302009 0.960726 1.14319e-38 3
-0.678068 0.323865 1.03025 1.05099e-38 3
-0.609309 0.298348 0.949081 1.05089e-38 3
-0.566508 0.284552 0.905193 1.0694e-38 3
-0.51331 0.264664 0.841927 8.20541e-39 3
-0.491775 0.260463 0.828563 6.91504e-39 3
-0.4476 0.2437 0.77524 4.79527e-39 3
-0.435074 0.2437 0.77524 4.97965e-39 3
-0.410359 0.236671 0.752877 4.61231e-39 3
-0.14127 0.111123 0.353495 2.27727e-38 3
-0.132566 0.10867 0.345692 2.28645e-38 3
-0.126701 0.108431 0.34493 2.28645e-38 3
-0.110224 0.10867 0.345692 2.28645e-38 3
-0.0480808 0.120952 0.384763 2.28645e-38 3
-0.0998183 0.410229 1.30499 2.2773e-38 3
-0.0393054 0.279702 0.889764 1.59491e-38 3
-0.0232144 0.260463 0.828563 1.52101e-38 3
-0.00998547 0.264664 0.841927 1.48403e-38 3
0.00361789 0.264664 0.841927 1.5854e-38 3
0.0167704 0.257736 0.819887 1.62221e-38 3
0.0300177 0.257736 0.819887 1.62214e-38 3
0.0446681 0.266095 0.846478 1.61292e-38 3
0.0596344 0.271975 0.865185 1.55757e-38 3
0.0748542 0.276559 0.879766 1.76018e-38 3
0.089069 0.276559 0.879766 1.68628e-38 3
0.102707 0.275014 0.874851 1.61267e-38 3
0.116193 0.273486 0.869991 1.49292e-38 3
0.13025 0.273486 0.869991 1.62199e-38 3
0.142721 0.270481 0.860431 1.67724e-38 3
0.155767 0.269003 0.855729 1.6127e-38 3
0.16776 0.266095 0.846478 1.56675e-38 3
0.181437 0.266095 0.846478 1.47477e-38 3
0.203933 0.278121 0.884737 1.47495e-38 3
0.218228 0.278121 0.884737 1.51183e-38 3
0.229925 0.275014 0.874851 1.65934e-38 3
0.24406 0.275014 0.874851 1.43807e-38 3
0.271865 0.289573 0.921167 1.54871e-38 3
0.281776 0.284552 0.905193 1.6409e-38 3
0.289703 0.278121 0.884737 1.45655e-38 3
0.298931 0.273486 0.869991 1.46587e-38 3
0.325652 0.284552 0.905193 1.53967e-38 3
0.332588 0.278121 0.884737 1.38304e-38 3
0.348854 0.279702 0.889764 1.41988e-38 3
0.359149 0.276559 0.879766 1.41059e-38 3
0.373364 0.276559 0.879766 1.29981e-38 3
0.385413 0.275014 0.874851 1.41038e-38 3
0.404063 0.278121 0.884737 1.37335e-38 3
0.428032 0.284552 0.905193 1.40087e-38 3
0.432654 0.278121 0.884737 1.51143e-38 3
0.425322 0.264664 0.841927 1.43768e-38 3
0.438925 0.264664 0.841927 1.38239e-38 3
0.452529 0.264664 0.841927 1.36406e-38 3
0.466132 0.264664 0.841927 1.2719e-38 3
0.424909 0.234417 0.745707 1.3824e-38 3
0.488091 0.261848 0.83297 1.27176e-38 3
0.49627 0.259092 0.824202 1.4008e-38 3
0.504278 0.256393 0.815617 1.20708e-38 3
0.517457 0.256393 0.815617 1.30849e-38 3
0.504366 0.2437 0.77524 1.29938e-38 3
0.519463 0.244913 0.779097 1.07811e-38 3
0.529418 0.2437 0.77524 1.13343e-38 3
0.541944 0.2437 0.77524 1.05957e-38 3
0.763554 0.328183 1.04399 1.21623e-38 3
0.760151 0.319659 1.01687 1.33601e-38 3
0.747459 0.307672 0.97874 1.26232e-38 3
0.75385 0.303873 0.966657 1.13332e-38 3
0.769469 0.303873 0.966657 9.95173e-39 3
0.775513 0.300168 0.954868 9.67623e-39 3
0.735975 0.259092 0.824202 9.86278e-39 3
0.741487 0.256393 0.815617 9.95497e-39 3
0.804976 0.273486 0.869991 8.94082e-39 3
0.814508 0.271975 0.865185 1.00472e-38 3
0.918593 0.296551 0.943364 9.12521e-39 3
0.911863 0.289573 0.921167 9.2174e-39 3
0.885095 0.276559 0.879766 8.11105e-39 3
0.889317 0.273486 0.869991 7.55824e-39 3
0.903374 0.273486 0.869991 7.6508e-39 3
0.917431 0.273486 0.869991 7.00615e-39 3
-0.583439 0.266792 0.807208 1.19854e-38 3
-0.567472 0.265424 0.803069 1.04181e-38 3
-0.554496 0.265424 0.803069 1.12479e-38 3
-0.624831 0.306259 0.926618 1.04181e-38 3
-0.664944 0.333921 1.01031 1.10635e-38 3
-0.605639 0.311793 0.943364 1.13397e-38 3
-0.53264 0.281292 0.851078 9.86421e-39 3
-0.450357 0.24414 0.738672 8.5742e-39 3
-0.432304 0.240734 0.728365 7.46821e-39 3
-0.420536 0.240734 0.728365 5.25624e-39 3
-0.38546 0.227008 0.686835 4.88782e-39 3
-0.14866 0.118168 0.357531 2.29563e-38 3
-0.138457 0.114508 0.346457 2.28645e-38 3
-0.131694 0.113504 0.343418 2.28645e-38 3
-0.125869 0.113255 0.342666 2.28645e-38 3
-0.10974 0.113753 0.344172 2.28645e-38 3
-0.0393054 0.294078 0.889764 1.5213e-38 3
-0.0220478 0.260089 0.786927 1.52116e-38 3
-0.00919454 0.256226 0.77524 1.45655e-38 3
0.00333133 0.256226 0.77524 1.45655e-38 3
0.0158572 0.256226 0.77524 1.3735e-38 3
0.0286669 0.258789 0.782992 1.47473e-38 3
0.041318 0.258789 0.782992 1.53927e-38 3
0.0550705 0.26407 0.798972 1.54842e-38 3
0.0701266 0.272409 0.824202 1.74181e-38 3
0.0871114 0.284383 0.860431 1.75078e-38 3
0.101014 0.284383 0.860431 1.54817e-38 3
0.112445 0.278267 0.841927 1.63132e-38 3
0.126048 0.278267 0.841927 1.52072e-38 3
0.141169 0.281292 0.851078 1.64058e-38 3
0.154921 0.281292 0.851078 1.58519e-38 3
0.163345 0.272409 0.824202 1.52994e-38 3
0.175737 0.270983 0.819887 1.48403e-38 3
0.192 0.275307 0.83297 1.36431e-38 3
0.205459 0.275307 0.83297 1.45655e-38 3
0.213246 0.268175 0.811391 1.4103e-38 3
0.22176 0.262729 0.794916 1.40109e-38 3
0.232246 0.260089 0.786927 1.36421e-38 3
0.247448 0.262729 0.794916 1.42874e-38 3
0.26707 0.269571 0.815617 1.39194e-38 3
0.280248 0.269571 0.815617 1.34591e-38 3
0.311259 0.285954 0.865185 1.41056e-38 3
0.321684 0.282829 0.855729 1.41066e-38 3
0.337353 0.284383 0.860431 1.35535e-38 3
0.355159 0.287543 0.869991 1.40137e-38 3
0.369215 0.287543 0.869991 1.46577e-38 3
0.376989 0.282829 0.855729 1.42882e-38 3
0.390815 0.282829 0.855729 1.21677e-38 3
0.385674 0.269571 0.815617 1.27198e-38 3
0.398852 0.269571 0.815617 1.31804e-38 3
0.403622 0.26407 0.798972 1.24432e-38 3
0.416531 0.26407 0.798972 1.38261e-38 3
0.39149 0.240734 0.728365 1.46569e-38 3
0.407045 0.242994 0.735204 1.23521e-38 3
0.424909 0.246465 0.745707 1.32729e-38 3
0.44329 0.250037 0.756514 1.2535e-38 3
0.464489 0.254964 0.771421 1.25343e-38 3
0.476953 0.254964 0.771421 1.43771e-38 3
0.487018 0.253714 0.767639 1.37314e-38 3
0.499421 0.253714 0.767639 1.29938e-38 3
0.514346 0.254964 0.771421 1.28109e-38 3
0.52681 0.254964 0.771421 1.23499e-38 3
0.53663 0.253714 0.767639 1.17956e-38 3
0.546355 0.252477 0.763895 1.14261e-38 3
0.558698 0.252477 0.763895 1.19779e-38 3
0.57104 0.252477 0.763895 1.27154e-38 3
0.594993 0.257501 0.779097 1.15173e-38 3
0.607581 0.257501 0.779097 1.18871e-38 3
0.692522 0.287543 0.869991 1.198e-38 3
0.706579 0.287543 0.869991 1.15198e-38 3
0.7208 0.266792 0.807208 1.00472e-38 3
0.733843 0.266792 0.807208 1.07829e-38 3
0.754665 0.269571 0.815617 8.84754e-39 3
0.796897 0.279771 0.846478 9.7695e-39 3
0.806216 0.278267 0.841927 9.2174e-39 3
0.837837 0.284383 0.860431 9.67731e-39 3
0.85174 0.284383 0.860431 9.03193e-39 3
0.856233 0.281292 0.851078 9.86169e-39 3
0.86063 0.278267 0.841927 8.93974e-39 3
0.846913 0.269571 0.815617 8.66423e-39 3
-0.580447 0.2784 0.803069 1.07869e-38 3
-0.564576 0.276979 0.798972 1.06025e-38 3
-0.540634 0.27144 0.782992 1.14323e-38 3
-0.583406 0.299933 0.865185 1.19851e-38 3
-0.566298 0.298285 0.860431 1.22617e-38 3
-0.546392 0.295043 0.851078 1.06943e-38 3
-0.485177 0.268752 0.77524 1.0233e-38 3
-0.409767 0.232995 0.672096 9.6809e-39 3
-0.402361 0.235013 0.677915 7.65368e-39 3
-0.38639 0.232 0.669224 6.08528e-39 3
-0.372394 0.230034 0.663553 4.51939e-39 3
-0.146321 0.121995 0.351907 2.2956e-38 3
-0.129984 0.117506 0.338958 2.2956e-38 3
-0.12397 0.117 0.337497 2.2956e-38 3
-0.118517 0.117 0.337497 2.28645e-38 3
-0.113064 0.117 0.337497 2.28645e-38 3
-0.108311 0.117761 0.339693 2.28645e-38 3
-0.0339776 0.127138 0.366741 2.28645e-38 3
-0.0276633 0.125376 0.361659 2.23128e-38 3
-0.0367965 0.288766 0.83297 1.49371e-38 3
-0.0218285 0.270089 0.779097 1.41981e-38 3
-0.00905999 0.264819 0.763895 1.47513e-38 3
0.00329867 0.266117 0.767639 1.39208e-38 3
0.0155493 0.263534 0.760186 1.53027e-38 3
0.0278319 0.263534 0.760186 1.50257e-38 3
0.039164 0.257289 0.742173 1.39208e-38 3
0.0497411 0.250175 0.721652 1.65009e-38 3
0.0614012 0.250175 0.721652 1.55767e-38 3
0.072726 0.249027 0.718341 1.59426e-38 3
0.0947655 0.279835 0.807208 1.51143e-38 3
0.107808 0.279835 0.807208 1.59459e-38 3
0.12085 0.279835 0.807208 1.40101e-38 3
0.133893 0.279835 0.807208 1.54845e-38 3
0.146935 0.279835 0.807208 1.45619e-38 3
0.158345 0.276979 0.798972 1.48399e-38 3
0.171254 0.276979 0.798972 1.47481e-38 3
0.185108 0.2784 0.803069 1.44729e-38 3
0.198084 0.2784 0.803069 1.38275e-38 3
0.206817 0.272804 0.786927 1.44729e-38 3
0.216271 0.268752 0.77524 1.32733e-38 3
0.22767 0.267428 0.771421 1.48399e-38 3
0.240134 0.267428 0.771421 1.54856e-38 3
0.252598 0.267428 0.771421 1.47481e-38 3
0.265062 0.267428 0.771421 1.44726e-38 3
0.273485 0.263534 0.760186 1.38279e-38 3
0.306605 0.28275 0.815617 1.39208e-38 3
0.300972 0.266117 0.767639 1.40137e-38 3
0.308834 0.262261 0.756514 1.37368e-38 3
0.317985 0.259751 0.749275 1.51186e-38 3
0.330091 0.259751 0.749275 1.41038e-38 3
0.323616 0.245647 0.70859 1.51168e-38 3
0.335065 0.245647 0.70859 1.34573e-38 3
0.346514 0.245647 0.70859 1.29052e-38 3
0.384029 0.263534 0.760186 1.2813e-38 3
0.385095 0.256075 0.738672 1.22606e-38 3
0.382593 0.246763 0.711811 1.34591e-38 3
0.399542 0.250175 0.721652 1.41045e-38 3
0.415027 0.252502 0.728365 1.13386e-38 3
0.434886 0.257289 0.742173 1.23528e-38 3
0.459957 0.264819 0.763895 1.32744e-38 3
0.476953 0.267428 0.771421 1.1429e-38 3
0.484642 0.264819 0.763895 1.21662e-38 3
0.496985 0.264819 0.763895 1.28109e-38 3
0.511824 0.266117 0.767639 1.31797e-38 3
0.52167 0.264819 0.763895 1.26268e-38 3
0.526311 0.261 0.752877 1.15205e-38 3
0.533347 0.258514 0.745707 1.18886e-38 3
0.537714 0.254873 0.735204 1.25329e-38 3
0.547025 0.253682 0.731768 1.17027e-38 3
0.558848 0.253682 0.731768 1.15176e-38 3
0.568017 0.252502 0.728365 1.18878e-38 3
0.59643 0.259751 0.749275 1.14269e-38 3
0.623452 0.266117 0.767639 1.11503e-38 3
0.629682 0.263534 0.760186 1.17953e-38 3
0.606627 0.249027 0.718341 1.17964e-38 3
0.685467 0.266117 0.767639 1.19822e-38 3
0.70478 0.268752 0.77524 1.08759e-38 3
0.724479 0.27144 0.782992 8.57096e-39 3
0.740834 0.272804 0.786927 9.40072e-39 3
0.789243 0.285726 0.824202 8.57096e-39 3
0.751165 0.267428 0.771421 9.12413e-39 3
0.748873 0.262261 0.756514 9.03193e-39 3
0.753813 0.259751 0.749275 7.7412e-39 3
0.765919 0.259751 0.749275 8.10998e-39 3
0.838182 0.279835 0.807208 8.38657e-39 3
-0.602695 0.295928 0.815617 1.04181e-38 3
-0.574554 0.288417 0.794916 1.14323e-38 3
-0.558874 0.28696 0.790901 1.17088e-38 3
-0.54335 0.285518 0.786927 1.12479e-38 3
-0.552861 0.297477 0.819887 1.15241e-38 3
-0.560143 0.308794 0.851078 1.06021e-38 3
-0.44485 0.251408 0.692913 1.17092e-38 3
-0.396785 0.230033 0.634002 9.86493e-39 3
-0.385666 0.23576 0.649786 8.75895e-39 3
-0.369042 0.231911 0.639177 8.39089e-39 3
-0.152007 0.127681 0.351907 2.19476e-38 3
-0.143737 0.125426 0.345692 2.28645e-38 3
-0.116509 0.120377 0.331776 2.28645e-38 3
-0.111148 0.120377 0.331776 2.28645e-38 3
-0.106012 0.120633 0.332481 2.28645e-38 3
-0.0275361 0.130616 0.359996 2.14877e-38 3
-0.0217695 0.130917 0.360826 1.32819e-38 3
-0.0317328 0.260634 0.718341 1.41999e-38 3
-0.0215075 0.27852 0.767639 1.40137e-38 3
-0.00884427 0.270563 0.745707 1.57658e-38 3
0.00320442 0.270563 0.745707 1.41059e-38 3
0.0148984 0.264271 0.728365 1.48428e-38 3
0.0262999 0.260634 0.718341 1.41049e-38 3
0.0375618 0.258264 0.711811 1.45665e-38 3
0.0484028 0.25479 0.702235 1.54885e-38 3
0.0597491 0.25479 0.702235 1.51176e-38 3
0.0704635 0.252525 0.695993 1.51161e-38 3
0.0806338 0.249202 0.686835 1.45633e-38 3
0.0968274 0.263047 0.724993 1.39201e-38 3
0.106568 0.258264 0.711811 1.32751e-38 3
0.115961 0.253653 0.6991 1.50261e-38 3
0.127256 0.253653 0.6991 1.438e-38 3
0.138552 0.253653 0.6991 1.47488e-38 3
0.152572 0.258264 0.711811 1.3919e-38 3
0.182303 0.28696 0.790901 1.45651e-38 3
0.195082 0.28696 0.790901 1.32744e-38 3
0.204759 0.282677 0.779097 1.38279e-38 3
0.213106 0.277162 0.763895 1.30896e-38 3
0.22327 0.274484 0.756514 1.44711e-38 3
0.23324 0.271857 0.749275 1.41027e-38 3
0.244178 0.270563 0.745707 1.44729e-38 3
0.255013 0.26928 0.742173 1.47491e-38 3
0.263261 0.265505 0.731768 1.45655e-38 3
0.275085 0.265505 0.731768 1.32751e-38 3
0.288255 0.266752 0.735204 1.29063e-38 3
0.300134 0.266752 0.735204 1.36435e-38 3
0.296691 0.253653 0.6991 1.36432e-38 3
0.305261 0.251408 0.692913 1.53023e-38 3
0.313681 0.249202 0.686835 1.31818e-38 3
0.324778 0.249202 0.686835 1.37357e-38 3
0.340354 0.252525 0.695993 1.36439e-38 3
0.354753 0.25479 0.702235 1.28148e-38 3
0.366099 0.25479 0.702235 1.23539e-38 3
0.379146 0.255938 0.705398 1.25379e-38 3
0.399542 0.261835 0.721652 1.27226e-38 3
0.416966 0.265505 0.731768 1.31836e-38 3
0.436957 0.270563 0.745707 1.2907e-38 3
0.464489 0.279892 0.771421 1.14319e-38 3
0.481699 0.282677 0.779097 1.19844e-38 3
0.487018 0.27852 0.767639 1.17992e-38 3
0.496985 0.277162 0.763895 1.25368e-38 3
0.509328 0.277162 0.763895 1.18918e-38 3
0.519138 0.275816 0.760186 1.19836e-38 3
0.521298 0.270563 0.745707 1.17996e-38 3
0.525835 0.266752 0.735204 1.14297e-38 3
0.535201 0.265505 0.731768 1.08758e-38 3
0.54448 0.264271 0.728365 1.03223e-38 3
0.556249 0.264271 0.728365 1.0045e-38 3
0.560201 0.260634 0.718341 9.95317e-39 3
0.569196 0.259444 0.715061 1.07829e-38 3
0.58075 0.259444 0.715061 9.21525e-39 3
0.592303 0.259444 0.715061 1.0506e-38 3
0.606627 0.260634 0.718341 8.38621e-39 3
0.618233 0.260634 0.718341 8.10926e-39 3
0.635672 0.263047 0.724993 1.17056e-38 3
0.675533 0.274484 0.756514 1.06915e-38 3
0.715405 0.285518 0.786927 1.0784e-38 3
0.731797 0.28696 0.790901 1.15212e-38 3
0.748355 0.288417 0.794916 9.49291e-39 3
0.761199 0.288417 0.794916 9.03229e-39 3
0.762432 0.284091 0.782992 8.75535e-39 3
0.807378 0.295928 0.815617 1.17056e-38 3
0.746668 0.26928 0.742173 1.03227e-38 3
0.758659 0.26928 0.742173 8.01778e-39 3
-0.574554 0.301261 0.794916 9.03517e-39 3
-0.556065 0.298233 0.786927 1.19854e-38 3
-0.546095 0.299739 0.790901 1.05103e-38 3
-0.533316 0.299739 0.790901 1.07865e-38 3
-0.442345 0.254714 0.672096 1.18003e-38 3
-0.424203 0.250415 0.660753 1.0695e-38 3
-0.353613 0.219809 0.579994 1.02337e-38 3
-0.337983 0.215812 0.569449 1.05103e-38 3
-0.326409 0.214254 0.565337 9.12773e-39 3
-0.14834 0.13015 0.343418 2.17639e-38 3
-0.142168 0.129582 0.341918 2.25894e-38 3
-0.0274729 0.13612 0.359171 1.95545e-38 3
-0.0339105 0.290923 0.767639 1.3739e-38 3
-0.0215075 0.290923 0.767639 1.5858e-38 3
-0.00863859 0.276039 0.728365 1.53059e-38 3
0.0031299 0.276039 0.728365 1.47517e-38 3
0.0146934 0.27224 0.718341 1.45669e-38 3
0.0253689 0.262603 0.692913 1.47513e-38 3
0.0364035 0.261447 0.689861 1.58584e-38 3
0.0471346 0.259163 0.683836 1.54889e-38 3
0.0581836 0.259163 0.683836 1.32762e-38 3
0.0689316 0.258036 0.680863 1.16166e-38 3
0.0795866 0.256919 0.677915 1.40137e-38 3
0.0901497 0.255812 0.674993 1.37375e-38 3
0.098096 0.24832 0.655223 1.87157e-38 3
0.10559 0.241254 0.636579 1.45662e-38 3
0.115406 0.240277 0.634002 1.49343e-38 3
0.123648 0.236448 0.623898 1.34591e-38 3
0.133198 0.235509 0.621422 1.38279e-38 3
0.142672 0.234579 0.618966 1.45647e-38 3
0.172439 0.264948 0.6991 1.36424e-38 3
0.18539 0.267335 0.705398 1.37357e-38 3
0.20607 0.279945 0.738672 1.49339e-38 3
0.215967 0.277329 0.731768 1.29041e-38 3
0.234362 0.285329 0.752877 1.48413e-38 3
0.241875 0.279945 0.738672 1.46566e-38 3
0.24458 0.269765 0.711811 1.58555e-38 3
0.253774 0.267335 0.705398 1.48413e-38 3
0.265172 0.267335 0.705398 1.35506e-38 3
0.256897 0.24832 0.655223 1.37343e-38 3
0.270884 0.251476 0.663553 1.36421e-38 3
0.282803 0.252546 0.666376 1.39183e-38 3
0.294825 0.253626 0.669224 1.34573e-38 3
0.305638 0.253626 0.669224 1.31818e-38 3
0.317809 0.254714 0.672096 1.21684e-38 3
0.332955 0.258036 0.680863 1.22617e-38 3
0.345458 0.259163 0.683836 1.39212e-38 3
0.354957 0.258036 0.680863 1.41978e-38 3
0.365958 0.258036 0.680863 1.36442e-38 3
0.385336 0.263771 0.695993 1.41056e-38 3
0.403759 0.268545 0.70859 1.2723e-38 3
0.417096 0.269765 0.711811 1.20783e-38 3
0.462212 0.290923 0.767639 1.18932e-38 3
0.479314 0.293804 0.77524 1.12479e-38 3
0.48229 0.288099 0.760186 1.12479e-38 3
0.489817 0.285329 0.752877 1.13408e-38 3
0.501981 0.285329 0.752877 1.10635e-38 3
0.511686 0.283964 0.749275 1.04181e-38 3
0.513956 0.278631 0.735204 1.13401e-38 3
0.523378 0.277329 0.731768 1.09709e-38 3
0.532712 0.276039 0.728365 1.05096e-38 3
0.536987 0.27224 0.718341 1.02319e-38 3
0.538709 0.267335 0.705398 1.07851e-38 3
0.550107 0.267335 0.705398 9.30996e-39 3
0.554018 0.263771 0.695993 8.84863e-39 3
0.555389 0.259163 0.683836 9.3096e-39 3
0.554335 0.253626 0.669224 7.83447e-39 3
0.565148 0.253626 0.669224 9.30852e-39 3
0.57108 0.251476 0.663553 8.84755e-39 3
0.576912 0.249363 0.657977 1.03227e-38 3
0.613313 0.2603 0.686835 8.94082e-39 3
0.726355 0.302798 0.798972 7.65008e-39 3
0.739264 0.302798 0.798972 8.20326e-39 3
0.748355 0.301261 0.794916 9.77058e-39 3
0.757354 0.299739 0.790901 1.02312e-38 3
0.786012 0.30592 0.807208 1.08769e-38 3
0.799055 0.30592 0.807208 1.06925e-38 3
0.803811 0.302798 0.798972 1.02316e-38 3
-0.442628 0.247514 0.626394 1.16166e-38 3
-0.432507 0.247514 0.626394 1.04181e-38 3
-0.46112 0.270212 0.683836 1.14319e-38 3
-0.436722 0.262197 0.663553 1.08787e-38 3
-0.426 0.262197 0.663553 1.18936e-38 3
-0.339771 0.220209 0.55729 1.06947e-38 3
-0.328429 0.218652 0.553351 1.03259e-38 3
-0.316137 0.216359 0.547547 9.68019e-39 3
-0.172951 0.14225 0.359996 9.08524e-39 3
-0.16637 0.141599 0.358349 1.12886e-38 3
-0.0212987 0.300382 0.760186 1.35535e-38 3
-0.00863859 0.287807 0.728365 1.51215e-38 3
0.00311541 0.286475 0.724993 1.63201e-38 3
0.0148294 0.286475 0.724993 1.35531e-38 3
0.0249277 0.269037 0.680863 1.41981e-38 3
0.0353145 0.264439 0.669224 1.37379e-38 3
0.0461275 0.264439 0.669224 1.40141e-38 3
0.0566981 0.263313 0.666376 1.33691e-38 3
0.0671791 0.262197 0.663553 1.41067e-38 3
0.0775717 0.261091 0.660753 1.43829e-38 3
0.0871447 0.257828 0.652493 1.39219e-38 3
0.0956937 0.252566 0.639177 1.33687e-38 3
0.104318 0.248508 0.628909 1.40137e-38 3
0.113567 0.246528 0.623898 1.4474e-38 3
0.12267 0.244579 0.618966 1.33676e-38 3
0.132149 0.243617 0.616529 1.43811e-38 3
0.141553 0.242661 0.614111 1.47491e-38 3
0.151476 0.242661 0.614111 1.31818e-38 3
0.161398 0.242661 0.614111 1.35513e-38 3
0.191609 0.271397 0.686835 1.47495e-38 3
0.202706 0.271397 0.686835 1.46566e-38 3
0.213804 0.271397 0.686835 1.38272e-38 3
0.222945 0.269037 0.680863 1.53023e-38 3
0.233946 0.269037 0.680863 1.40116e-38 3
0.244947 0.269037 0.680863 1.35506e-38 3
0.255948 0.269037 0.680863 1.45637e-38 3
0.251632 0.253601 0.641797 1.37335e-38 3
0.26308 0.254644 0.644438 1.3457e-38 3
0.27807 0.258906 0.655223 1.30889e-38 3
0.291093 0.261091 0.660753 1.30885e-38 3
0.304337 0.263313 0.666376 1.41031e-38 3
0.316451 0.264439 0.669224 1.33669e-38 3
0.328668 0.265573 0.672096 1.31825e-38 3
0.353169 0.276244 0.6991 1.32758e-38 3
0.358071 0.271397 0.686835 1.3274e-38 3
0.359702 0.264439 0.669224 1.27208e-38 3
0.368939 0.263313 0.666376 1.31825e-38 3
0.376501 0.261091 0.660753 1.22613e-38 3
0.387177 0.261091 0.660753 1.16166e-38 3
0.396182 0.259994 0.657977 1.1801e-38 3
0.432239 0.276244 0.6991 1.08791e-38 3
0.443534 0.276244 0.6991 1.08791e-38 3
0.473869 0.287807 0.728365 9.31283e-39 3
0.487907 0.289152 0.731768 1.0511e-38 3
0.497406 0.287807 0.728365 1.13401e-38 3
0.506818 0.286475 0.724993 1.01412e-38 3
0.518532 0.286475 0.724993 1.09713e-38 3
0.532712 0.287807 0.728365 1.07865e-38 3
0.522604 0.276244 0.6991 1.06018e-38 3
0.526844 0.272593 0.689861 9.86386e-39 3
0.54037 0.273799 0.692913 9.95641e-39 3
0.549136 0.272593 0.689861 1.10628e-38 3
0.552975 0.269037 0.680863 1.04177e-38 3
0.554335 0.264439 0.669224 8.66567e-39 3
0.560359 0.262197 0.663553 9.77058e-39 3
0.63556 0.276244 0.6991 9.30996e-39 3
0.703377 0.300382 0.760186 9.95497e-39 3
0.688906 0.289152 0.731768 8.11106e-39 3
0.749781 0.309393 0.782992 8.20325e-39 3
0.762432 0.309393 0.782992 8.29581e-39 3
0.775083 0.309393 0.782992 8.29545e-39 3
-0.442137 0.251597 0.611713 1.03259e-38 3
-0.432254 0.251597 0.611713 1.17088e-38 3
-0.42237 0.251597 0.611713 1.10635e-38 3
-0.422386 0.257635 0.626394 1.18007e-38 3
-0.436722 0.272919 0.663553 1.09709e-38 3
-0.321331 0.211177 0.513437 1.22617e-38 3
-0.320388 0.216137 0.525498 1.10631e-38 3
-0.32161 0.222868 0.541863 9.40324e-39 3
-0.309641 0.220578 0.536296 1.03259e-38 3
-0.175937 0.145721 0.354295 9.06399e-39 3
-0.170212 0.145721 0.354295 6.601e-39 3
-0.164488 0.145721 0.354295 8.34731e-39 3
-0.158763 0.145721 0.354295 1.87341e-38 3
-0.0216134 0.317285 0.771421 1.33709e-38 3
-0.00829151 0.287539 0.6991 1.32765e-38 3
0.00297756 0.284995 0.692913 1.14326e-38 3
0.0126607 0.25458 0.618966 1.26312e-38 3
0.0230256 0.25867 0.628909 1.53967e-38 3
0.033321 0.259713 0.631445 1.51201e-38 3
0.044237 0.263971 0.641797 1.2539e-38 3
0.0548315 0.265057 0.644438 1.24479e-38 3
0.0652439 0.265057 0.644438 1.41074e-38 3
0.0753463 0.263971 0.641797 1.42918e-38 3
0.0853662 0.262893 0.639177 1.40141e-38 3
0.0949188 0.260765 0.634002 1.38308e-38 3
0.104318 0.25867 0.628909 1.51204e-38 3
0.11267 0.25458 0.618966 1.27223e-38 3
0.121233 0.251597 0.611713 1.3645e-38 3
0.131117 0.251597 0.611713 1.29074e-38 3
0.141553 0.252584 0.614111 1.33673e-38 3
0.150297 0.250618 0.609332 1.48417e-38 3
0.158906 0.248683 0.604627 1.41974e-38 3
0.166743 0.245835 0.597704 1.5303e-38 3
0.247345 0.270625 0.657977 1.36435e-38 3
0.26308 0.265057 0.644438 1.38257e-38 3
0.275763 0.267257 0.649786 1.3457e-38 3
0.28987 0.270625 0.657977 1.3457e-38 3
0.303048 0.272919 0.663553 1.27198e-38 3
0.313769 0.272919 0.663553 1.24442e-38 3
0.32449 0.272919 0.663553 1.23528e-38 3
0.340991 0.277624 0.674993 1.17085e-38 3
0.347405 0.27408 0.666376 1.26294e-38 3
0.358172 0.27408 0.666376 1.30903e-38 3
0.367375 0.272919 0.663553 1.1523e-38 3
0.368722 0.266152 0.647101 1.18918e-38 3
0.377617 0.265057 0.644438 1.14315e-38 3
0.395824 0.256609 0.623898 1.30918e-38 3
0.40111 0.253578 0.616529 1.15245e-38 3
0.412696 0.25458 0.618966 1.06025e-38 3
0.440092 0.265057 0.644438 1.06954e-38 3
0.478046 0.281261 0.683836 1.18014e-38 3
0.49124 0.282495 0.686835 1.14323e-38 3
0.49797 0.280038 0.680863 9.3114e-39 3
0.511193 0.281261 0.683836 9.40324e-39 3
0.522242 0.281261 0.683836 1.04181e-38 3
0.542772 0.286261 0.695993 1.05099e-38 3
0.551566 0.284995 0.692913 1.0049e-38 3
0.552975 0.280038 0.680863 1.00493e-38 3
0.646856 0.287539 0.6991 8.66459e-39 3
0.658152 0.287539 0.6991 8.5724e-39 3
0.694242 0.298189 0.724993 8.57204e-39 3
0.6688 0.282495 0.686835 7.83591e-39 3
-0.44738 0.264581 0.618966 9.40395e-39 3
-0.437379 0.264581 0.618966 1.07869e-38 3
-0.427378 0.264581 0.618966 1.01415e-38 3
-0.422386 0.267756 0.626394 1.08787e-38 3
-0.334007 0.222389 0.520261 1.07865e-38 3
-0.316148 0.215932 0.505156 1.12475e-38 3
-0.31722 0.228461 0.534466 1.12471e-38 3
-0.17554 0.151104 0.353495 9.42018e-39 3
-0.169446 0.150764 0.352699 6.23221e-39 3
-0.163379 0.150425 0.351907 9.72845e-39 3
-0.020406 0.144577 0.338226 1.18043e-38 3
-0.0190762 0.291039 0.680863 1.40159e-38 3
-0.00821813 0.296191 0.692913 1.27244e-38 3
0.00292577 0.291039 0.680863 1.21713e-38 3
0.0124636 0.260463 0.609332 1.40145e-38 3
0.0251464 0.293592 0.686835 1.30921e-38 3
0.0334559 0.271008 0.634002 1.40141e-38 3
0.0440564 0.273221 0.639177 1.3001e-38 3
0.0546068 0.27434 0.641797 1.18947e-38 3
0.0647113 0.273221 0.639177 1.3923e-38 3
0.0747337 0.27211 0.636579 1.21713e-38 3
0.0941564 0.268832 0.628909 1.35546e-38 3
0.103076 0.265631 0.621422 1.23557e-38 3
0.111349 0.261481 0.611713 1.33684e-38 3
0.119368 0.257458 0.602302 1.3184e-38 3
0.129099 0.257458 0.602302 1.40137e-38 3
0.139367 0.258452 0.604627 1.27226e-38 3
0.148563 0.257458 0.602302 1.31832e-38 3
0.157086 0.255493 0.597704 1.26301e-38 3
0.164856 0.2526 0.590937 1.3368e-38 3
0.197098 0.245198 0.573621 1.43811e-38 3
0.206366 0.245198 0.573621 1.6225e-38 3
0.263725 0.265631 0.621422 1.33655e-38 3
0.279308 0.271008 0.634002 1.38257e-38 3
0.291915 0.273221 0.639177 1.31811e-38 3
0.30473 0.275469 0.644438 1.28134e-38 3
0.31257 0.273221 0.639177 1.25372e-38 3
0.3269 0.276608 0.647101 1.19851e-38 3
0.337356 0.276608 0.647101 1.27216e-38 3
0.353657 0.281257 0.657977 1.33669e-38 3
0.362764 0.28008 0.655223 1.23524e-38 3
0.3657 0.27434 0.641797 1.15227e-38 3
0.371502 0.271008 0.634002 1.20758e-38 3
0.475968 0.291039 0.680863 1.14323e-38 3
0.484861 0.289779 0.677915 9.31176e-39 3
0.487375 0.284847 0.666376 9.86421e-39 3
0.496031 0.28364 0.663553 1.01401e-38 3
0.508909 0.284847 0.666376 1.04177e-38 3
0.541974 0.291039 0.680863 9.68054e-39 3
0.548208 0.28853 0.674993 9.31176e-39 3
0.542738 0.28008 0.655223 9.77274e-39 3
0.624686 0.28364 0.663553 7.83591e-39 3
0.630068 0.281257 0.657977 8.8497e-39 3
-0.450945 0.27677 0.623898 9.68054e-39 3
-0.440864 0.27677 0.623898 9.95713e-39 3
-0.425696 0.273501 0.616529 9.31176e-39 3
-0.327479 0.226284 0.510093 9.77237e-39 3
-0.315131 0.223374 0.503532 1.07865e-38 3
-0.181251 0.156816 0.353495 5.62934e-39 3
-0.17554 0.156816 0.353495 8.94912e-39 3
-0.169446 0.156462 0.352699 6.2189e-39 3
-0.161564 0.154376 0.347996 8.99197e-39 3
-0.0202312 0.148757 0.335329 1.34638e-38 3
-0.014845 0.149076 0.336048 1.34627e-38 3
-0.0095174 0.150693 0.339693 1.24486e-38 3
-0.0080752 0.30204 0.680863 1.2172e-38 3
0.00292577 0.30204 0.680863 1.32776e-38 3
0.0136887 0.296877 0.669224 1.42918e-38 3
0.024294 0.294361 0.663553 1.18947e-38 3
0.034721 0.291888 0.657977 1.22627e-38 3
0.0453522 0.291888 0.657977 1.31858e-38 3
0.0543839 0.283548 0.639177 1.2172e-38 3
0.0641874 0.281252 0.634002 1.19876e-38 3
0.0786268 0.261163 0.588716 1.38315e-38 3
0.0881389 0.261163 0.588716 1.30017e-38 3
0.097651 0.261163 0.588716 1.22642e-38 3
0.107568 0.262148 0.590937 1.27237e-38 3
0.117559 0.263141 0.593176 1.33684e-38 3
0.127143 0.263141 0.593176 1.32762e-38 3
0.137771 0.26515 0.597704 1.32765e-38 3
0.147429 0.26515 0.597704 1.37375e-38 3
0.155896 0.263141 0.593176 1.34606e-38 3
0.162404 0.25825 0.58215 1.30914e-38 3
0.167453 0.2517 0.567386 1.25382e-38 3
0.175983 0.250792 0.565337 1.23538e-38 3
0.194955 0.2517 0.567386 1.26304e-38 3
0.204123 0.2517 0.567386 1.27226e-38 3
0.211756 0.24989 0.563304 1.31836e-38 3
0.236772 0.257294 0.579994 1.29989e-38 3
0.247059 0.25825 0.58215 1.41041e-38 3
0.256465 0.25825 0.58215 1.51172e-38 3
0.306319 0.277877 0.626394 1.30903e-38 3
0.333225 0.283548 0.639177 1.19851e-38 3
0.343552 0.283548 0.639177 1.20762e-38 3
0.358357 0.278993 0.628909 1.15212e-38 3
0.364131 0.275672 0.621422 1.15212e-38 3
0.370715 0.259214 0.584322 1.16152e-38 3
0.378743 0.25825 0.58215 1.02323e-38 3
0.389598 0.259214 0.584322 9.12593e-39 3
0.386074 0.250792 0.565337 1.02334e-38 3
0.389582 0.247222 0.55729 9.3114e-39 3
0.398587 0.247222 0.55729 9.12701e-39 3
0.406146 0.246345 0.555314 9.77129e-39 3
0.415118 0.246345 0.555314 9.77058e-39 3
0.488495 0.277877 0.626394 8.57419e-39 3
0.51679 0.27677 0.623898 9.58835e-39 3
-0.345087 0.235293 0.51176 9.12736e-39 3
-0.335721 0.234526 0.510093 1.0049e-38 3
-0.179228 0.160713 0.34955 6.64313e-39 3
-0.17358 0.160713 0.34955 6.08925e-39 3
-0.166816 0.159644 0.347225 8.23605e-39 3
-0.0149411 0.155507 0.338226 1.30932e-38 3
-0.00793717 0.30769 0.669224 1.42925e-38 3
0.00287576 0.30769 0.669224 1.24486e-38 3
0.0134586 0.302519 0.657977 1.31854e-38 3
0.0746955 0.257141 0.55928 1.39237e-38 3
0.083434 0.256226 0.55729 1.27252e-38 3
0.0924383 0.256226 0.55729 1.14337e-38 3
0.102537 0.258991 0.563304 1.38308e-38 3
0.112448 0.260868 0.567386 1.30918e-38 3
0.119451 0.256226 0.55729 1.33684e-38 3
0.128 0.255317 0.555314 1.39215e-38 3
0.13746 0.256226 0.55729 1.2723e-38 3
0.147514 0.258063 0.561285 1.31843e-38 3
0.157147 0.258991 0.563304 1.34606e-38 3
0.164473 0.256226 0.55729 1.3184e-38 3
0.173478 0.256226 0.55729 1.24457e-38 3
0.182482 0.256226 0.55729 1.3829e-38 3
0.192859 0.258063 0.561285 1.29992e-38 3
0.201928 0.258063 0.561285 1.32758e-38 3
0.209495 0.256226 0.55729 1.15248e-38 3
0.21928 0.257141 0.55928 1.18932e-38 3
0.229135 0.258063 0.561285 1.20773e-38 3
0.239923 0.259926 0.565337 1.29059e-38 3
0.249058 0.259926 0.565337 1.31822e-38 3
0.267327 0.259926 0.565337 1.2629e-38 3
0.271559 0.255317 0.555314 1.17996e-38 3
0.28153 0.256226 0.55729 1.20765e-38 3
0.29473 0.259926 0.565337 1.15241e-38 3
0.383015 0.270675 0.588716 1.00468e-38 3
0.385285 0.265681 0.577854 1.11535e-38 3
0.388201 0.255317 0.555314 9.77129e-39 3
0.397173 0.255317 0.555314 1.00475e-38 3
0.406146 0.255317 0.555314 1.16152e-38 3
0.415118 0.255317 0.555314 1.00479e-38 3
0.421104 0.253519 0.551403 1.01412e-38 3
0.434604 0.256226 0.55729 9.49615e-39 3
0.445193 0.257141 0.55928 8.85078e-39 3
0.460812 0.260868 0.567386 8.57419e-39 3
0.468283 0.259926 0.565337 9.40395e-39 3
0.491879 0.262772 0.571527 9.95569e-39 3
0.497482 0.260868 0.567386 9.40179e-39 3
0.512217 0.263734 0.573621 8.84934e-39 3
0.512106 0.258991 0.563304 8.57419e-39 3
0.546022 0.266665 0.579994 8.29761e-39 3
-0.341736 0.241197 0.506791 1.03259e-38 3
-0.330341 0.238877 0.501918 1.05096e-38 3
-0.317148 0.23511 0.494001 1.06021e-38 3
-0.186122 0.167483 0.351907 9.77239e-39 3
-0.17725 0.164525 0.345692 9.03519e-39 3
-0.171665 0.164525 0.345692 6.73281e-39 3
-0.165349 0.163802 0.344172 8.40279e-39 3
-0.0152038 0.163802 0.344172 1.30939e-38 3
-0.00968548 0.164525 0.345692 1.29095e-38 3
0.00282743 0.31315 0.657977 1.30939e-38 3
0.0831381 0.26429 0.555314 1.22642e-38 3
0.0914619 0.262429 0.551403 1.14341e-38 3
0.101083 0.26429 0.555314 1.31854e-38 3
0.110055 0.26429 0.555314 1.23542e-38 3
0.117775 0.261508 0.549468 1.39215e-38 3
0.125334 0.258784 0.543745 1.52123e-38 3
0.144917 0.262429 0.551403 1.25393e-38 3
0.153827 0.262429 0.551403 1.24464e-38 3
0.162736 0.262429 0.551403 1.28152e-38 3
0.171043 0.261508 0.549468 1.2907e-38 3
0.180554 0.262429 0.551403 1.21695e-38 3
0.190133 0.263356 0.553351 1.32758e-38 3
0.19978 0.26429 0.555314 1.32765e-38 3
0.204403 0.258784 0.543745 1.29996e-38 3
0.210991 0.256116 0.538139 1.1617e-38 3
0.218933 0.255239 0.536296 1.29077e-38 3
0.245512 0.26523 0.55729 1.34591e-38 3
0.251828 0.262429 0.551403 1.40119e-38 3
0.261659 0.263356 0.553351 1.2445e-38 3
0.2706 0.263356 0.553351 1.25382e-38 3
0.280532 0.26429 0.555314 1.18921e-38 3
0.381066 0.272006 0.571527 1.01394e-38 3
0.380578 0.26523 0.55729 1.02316e-38 3
0.385467 0.262429 0.551403 9.77129e-39 3
0.392992 0.261508 0.549468 1.03237e-38 3
0.397684 0.258784 0.543745 1.07854e-38 3
0.409312 0.260594 0.547547 1.11542e-38 3
0.413818 0.257888 0.541863 1.10631e-38 3
0.428504 0.261508 0.549468 1.01412e-38 3
0.438922 0.262429 0.551403 8.57383e-39 3
0.449414 0.263356 0.553351 9.03481e-39 3
0.458355 0.263356 0.553351 8.85042e-39 3
0.468953 0.26429 0.555314 7.92846e-39 3
0.484802 0.268093 0.563304 1.00479e-38 3
0.492133 0.267132 0.561285 1.00472e-38 3
0.501202 0.267132 0.561285 9.77129e-39 3
0.508448 0.266178 0.55928 8.482e-39 3
0.508406 0.261508 0.549468 9.12737e-39 3
-0.334166 0.243861 0.495565 9.77237e-39 3
-0.32513 0.243091 0.494001 1.08784e-38 3
-0.30745 0.235657 0.478894 1.14308e-38 3
-0.193988 0.175136 0.355906 1.18914e-38 3
-0.18529 0.172394 0.350332 1.10628e-38 3
-0.170162 0.168621 0.342666 9.13062e-39 3
-0.163552 0.167522 0.340431 7.74661e-39 3
-0.0153048 0.170487 0.346457 1.36471e-38 3
-0.00972843 0.170865 0.347225 1.39248e-38 3
0.091141 0.270386 0.549468 1.2817e-38 3
0.100726 0.272297 0.553351 1.3278e-38 3
0.108516 0.26944 0.547547 1.32769e-38 3
0.114952 0.263904 0.536296 1.32765e-38 3
0.130494 0.260338 0.529049 1.44751e-38 3
0.139514 0.26122 0.530842 1.35538e-38 3
0.148091 0.26122 0.530842 1.36457e-38 3
0.158821 0.264811 0.538139 1.35531e-38 3
0.168094 0.265724 0.539995 1.20776e-38 3
0.176211 0.264811 0.538139 1.41056e-38 3
0.184906 0.264811 0.538139 1.29077e-38 3
0.196299 0.268502 0.545639 1.21705e-38 3
0.201603 0.263904 0.536296 1.26315e-38 3
0.214525 0.25859 0.525498 1.22624e-38 3
0.22227 0.257726 0.523741 1.18932e-38 3
0.240805 0.259461 0.527267 1.1523e-38 3
0.248488 0.25859 0.525498 1.29067e-38 3
0.260475 0.262109 0.532648 1.27226e-38 3
0.272793 0.265724 0.539995 1.20765e-38 3
0.283473 0.267569 0.543745 1.30896e-38 3
0.354989 0.268502 0.545639 1.10606e-38 3
0.366241 0.263904 0.536296 9.95532e-39 3
0.374906 0.263904 0.536296 9.5869e-39 3
0.382262 0.263003 0.534466 1.08773e-38 3
0.388248 0.26122 0.530842 1.06936e-38 3
0.400902 0.263904 0.536296 1.05089e-38 3
0.409567 0.263904 0.536296 9.95677e-39 3
0.421116 0.265724 0.539995 9.77165e-39 3
0.431329 0.266643 0.541863 9.12628e-39 3
0.438566 0.265724 0.539995 9.03409e-39 3
0.445754 0.264811 0.538139 9.67982e-39 3
0.451347 0.263003 0.534466 9.49579e-39 3
0.463144 0.264811 0.538139 9.12593e-39 3
0.467024 0.262109 0.532648 9.49399e-39 3
0.474018 0.26122 0.530842 9.03373e-39 3
0.476139 0.257726 0.523741 8.2976e-39 3
0.482986 0.256867 0.521995 7.56004e-39 3
-0.329989 0.248719 0.48937 1.18918e-38 3
-0.322082 0.248719 0.48937 1.12464e-38 3
-0.304655 0.241182 0.474541 1.06011e-38 3
-0.206788 0.187271 0.368467 1.12457e-38 3
-0.184876 0.177657 0.34955 1.1707e-38 3
-0.174553 0.173022 0.340431 1.08784e-38 3
-0.16832 0.172273 0.338958 1.10635e-38 3
-0.162142 0.171531 0.337497 1.01412e-38 3
-0.0210423 0.177261 0.348772 1.41081e-38 3
-0.015407 0.177261 0.348772 1.34638e-38 3
-0.00972843 0.176475 0.347225 1.36482e-38 3
0.138109 0.267081 0.525498 1.27248e-38 3
0.144181 0.262674 0.516826 1.30007e-38 3
0.182399 0.269797 0.530842 1.36453e-38 3
0.191625 0.270715 0.532648 1.24475e-38 3
0.198879 0.268886 0.529049 1.21705e-38 3
0.207427 0.268886 0.529049 1.2539e-38 3
0.210985 0.262674 0.516826 1.22624e-38 3
0.216478 0.259251 0.510093 1.19854e-38 3
0.226937 0.26181 0.515126 1.17088e-38 3
0.235261 0.26181 0.515126 1.15241e-38 3
0.241203 0.259251 0.510093 1.18014e-38 3
0.247831 0.257573 0.506791 1.20773e-38 3
0.324679 0.260099 0.51176 1.09677e-38 3
0.329715 0.257573 0.506791 1.15216e-38 3
0.362542 0.276355 0.543745 1.07851e-38 3
0.361292 0.268886 0.529049 1.10617e-38 3
0.371094 0.269797 0.530842 1.06932e-38 3
0.379671 0.269797 0.530842 1.13383e-38 3
0.388248 0.269797 0.530842 9.49506e-39 3
0.398174 0.270715 0.532648 1.06011e-38 3
0.406781 0.270715 0.532648 9.95677e-39 3
0.415387 0.270715 0.532648 1.06932e-38 3
0.42544 0.271639 0.534466 9.5869e-39 3
0.431133 0.269797 0.530842 1.02323e-38 3
0.43971 0.269797 0.530842 9.6791e-39 3
0.45532 0.268886 0.529049 8.57275e-39 3
0.463868 0.268886 0.529049 9.67838e-39 3
0.466118 0.265301 0.521995 8.57275e-39 3
0.459244 0.256743 0.505156 8.2976e-39 3
-0.323558 0.240118 0.45789 1.13404e-38 3
-0.324912 0.252678 0.481841 1.05089e-38 3
-0.317127 0.252678 0.481841 1.06007e-38 3
-0.212242 0.192771 0.367602 1.21666e-38 3
-0.206303 0.192771 0.367602 1.16145e-38 3
-0.173797 0.17775 0.338958 1.15237e-38 3
-0.166876 0.176224 0.336048 1.18925e-38 3
-0.0213755 0.185793 0.354295 1.29085e-38 3
-0.0157222 0.186637 0.355906 1.2633e-38 3
-0.00997164 0.186637 0.355906 1.28188e-38 3
0.183511 0.267493 0.510093 1.32772e-38 3
0.203306 0.271922 0.518538 1.18014e-38 3
0.20756 0.266625 0.508436 1.18936e-38 3
0.215077 0.265762 0.506791 1.18932e-38 3
0.22399 0.266625 0.508436 1.18932e-38 3
0.238869 0.264905 0.505156 1.10631e-38 3
0.265139 0.251133 0.478894 1.24446e-38 3
0.315402 0.2607 0.497138 1.17971e-38 3
0.323435 0.2607 0.497138 1.11521e-38 3
0.383571 0.281234 0.536296 1.0417e-38 3
0.389568 0.279321 0.532648 1.06014e-38 3
0.398174 0.279321 0.532648 1.01401e-38 3
0.411191 0.2765 0.527267 9.95677e-39 3
0.41971 0.2765 0.527267 9.3114e-39 3
0.426793 0.275572 0.525498 9.77129e-39 3
0.435283 0.275572 0.525498 9.77129e-39 3
0.440815 0.273735 0.521995 8.85042e-39 3
0.444801 0.271024 0.516826 9.58798e-39 3
0.454653 0.271922 0.518538 9.86457e-39 3
0.461503 0.271024 0.516826 9.49615e-39 3
-0.315285 0.235796 0.436207 1.03259e-38 3
-0.308237 0.235796 0.436207 1.03255e-38 3
-0.307178 0.240485 0.444882 1.01408e-38 3
-0.306077 0.245364 0.453908 1.1062e-38 3
-0.298743 0.245364 0.453908 1.11542e-38 3
-0.288897 0.243249 0.449995 1.06011e-38 3
-0.200651 0.193266 0.357531 1.18911e-38 3
-0.19224 0.190655 0.352699 1.06925e-38 3
-0.179274 0.183226 0.338958 1.07855e-38 3
-0.171569 0.180877 0.334612 1.11546e-38 3
-0.159394 0.179345 0.331776 1.19854e-38 3
-0.0271614 0.191952 0.355098 1.3645e-38 3
-0.0214727 0.192388 0.355906 1.42907e-38 3
-0.0157939 0.193266 0.357531 1.36467e-38 3
-0.0100172 0.193266 0.357531 1.30943e-38 3
0.158264 0.261267 0.483328 1.34613e-38 3
0.162619 0.233842 0.432592 1.35531e-38 3
0.1987 0.27395 0.506791 1.39212e-38 3
0.20756 0.27484 0.508436 1.2078e-38 3
0.215077 0.27395 0.506791 1.15244e-38 3
0.223265 0.27395 0.506791 1.11557e-38 3
0.235078 0.268732 0.497138 1.17092e-38 3
0.24311 0.268732 0.497138 1.1617e-38 3
0.262729 0.256517 0.474541 1.1339e-38 3
0.306641 0.261267 0.483328 1.1429e-38 3
0.309671 0.257297 0.475983 1.29052e-38 3
0.398174 0.287927 0.532648 1.15241e-38 3
0.408441 0.283112 0.523741 1.05099e-38 3
0.414133 0.281231 0.520261 9.58798e-39 3
0.422539 0.281231 0.520261 1.01412e-38 3
0.4281 0.279375 0.516826 9.12592e-39 3
0.435015 0.278456 0.515126 8.48164e-39 3
0.436165 0.27395 0.506791 8.48164e-39 3
0.450181 0.277543 0.513437 8.85042e-39 3
-0.328466 0.242169 0.434996 9.127e-39 3
-0.321437 0.242169 0.434996 9.68089e-39 3
-0.315285 0.242844 0.436207 9.5887e-39 3
-0.308237 0.242844 0.436207 1.08776e-38 3
-0.304582 0.24558 0.441122 1.00479e-38 3
-0.300845 0.248379 0.446149 1.06011e-38 3
-0.292802 0.247673 0.444882 1.11542e-38 3
-0.280827 0.243522 0.437426 1.15226e-38 3
-0.197494 0.195912 0.351907 1.17067e-38 3
-0.178117 0.187486 0.336771 1.15227e-38 3
-0.163714 0.183539 0.329681 1.14308e-38 3
-0.157393 0.182387 0.327612 1.18929e-38 3
-0.0270388 0.196797 0.353495 1.47509e-38 3
-0.021424 0.197689 0.355098 1.48431e-38 3
-0.0157222 0.198138 0.355906 1.40148e-38 3
0.142536 0.254915 0.45789 1.24482e-38 3
0.144038 0.24489 0.439883 1.25393e-38 3
0.149052 0.241498 0.433791 1.33691e-38 3
0.156061 0.241498 0.433791 1.21705e-38 3
0.162171 0.240168 0.431401 1.31843e-38 3
0.168677 0.239508 0.430215 1.31836e-38 3
0.176112 0.240168 0.431401 1.25379e-38 3
0.207684 0.27244 0.48937 1.33684e-38 3
0.215591 0.27244 0.48937 1.20783e-38 3
0.231405 0.27244 0.48937 1.12486e-38 3
0.245904 0.262593 0.471682 1.309e-38 3
0.251255 0.260241 0.467458 1.29981e-38 3
0.258808 0.260241 0.467458 1.07862e-38 3
0.267158 0.261021 0.468858 1.08794e-38 3
0.308733 0.264184 0.474541 1.10617e-38 3
0.390828 0.284905 0.51176 1.03263e-38 3
0.407366 0.284905 0.51176 9.86493e-39 3
0.415635 0.284905 0.51176 9.68054e-39 3
0.419788 0.282139 0.506791 9.40359e-39 3
0.429366 0.283055 0.508436 8.48128e-39 3
