# .PCD v0.7 - Point Cloud Data file format
VERSION 0.7
FIELDS x y z rgb label
SIZE 4 4 4 4 4
TYPE F F F F U
COUNT 1 1 1 1 1
WIDTH 2194
HEIGHT 1
VIEWPOINT 0 0 0 1 0 0 0
POINTS 2194
DATA ascii
-0.866338 -0.672984 1.93331 1.65738e-39 1
-0.856242 -0.690022 1.98226 1.01201e-39 1
-0.899659 -0.66643 2.00767 1.47299e-39 1
-0.878482 -0.675085 2.03375 1.47299e-39 1
-0.899659 -0.633991 2.00767 1.19711e-39 1
-0.86722 -0.633991 2.00767 9.20889e-40 1
-1.02321 -0.617382 2.06051 1.38079e-39 1
-0.866338 -0.579272 1.93331 1.93539e-39 1
-0.835101 -0.579272 1.93331 1.01308e-39 1
-1.00992 -0.576504 2.03375 1.56518e-39 1
-1.78027 -0.605083 2.40921 1.38079e-39 1
-1.85553 -0.64476 2.56719 1.01201e-39 1
-1.87554 -0.666617 2.65421 1.93396e-39 1
-1.78027 -0.566156 2.40921 2.21019e-39 1
-1.76855 -0.575002 2.44685 1.56482e-39 1
-1.87554 -0.623731 2.65421 1.84105e-39 1
-1.72713 -0.511492 2.33729 1.01236e-39 1
-1.71496 -0.519241 2.3727 1.47406e-39 1
-1.81405 -0.561802 2.56719 1.47226e-39 1
-1.65311 -0.453424 2.23712 2.2109e-39 1
-1.61696 -0.453424 2.23712 1.93504e-39 1
-1.62982 -0.411401 2.20561 1.56553e-39 1
-1.57204 -0.405687 2.17498 1.28967e-39 1
-0.564302 -0.016393 1.86427 2.12015e-39 3
-0.53418 -0.016393 1.86427 2.39673e-39 3
-0.62266 -0.0202501 2.30292 2.48856e-39 3
-0.686391 -0.0237416 2.69997 2.30454e-39 3
-0.789778 -0.0312957 3.55905 1.751e-39 3
-0.732273 -0.0312957 3.55905 2.2109e-39 3
-0.769666 -0.0430316 4.8937 2.58113e-39 3
-0.594423 0.0137287 1.86427 3.0421e-39 3
-0.551178 0.0134095 1.82091 3.1343e-39 3
-0.521757 0.0134095 1.82091 3.5038e-39 3
-0.492336 0.0134095 1.82091 3.5038e-39 3
-0.947873 0.0274575 3.72853 2.58292e-39 3
-0.827386 0.0274575 3.72853 3.78002e-39 3
-0.767143 0.0274575 3.72853 3.31833e-39 3
-0.706899 0.0274575 3.72853 3.04174e-39 3
-0.678989 0.0288304 3.91496 2.94991e-39 3
-0.769666 0.036038 4.8937 2.95027e-39 3
-0.0229296 0.0142372 1.93331 3.87222e-39 3
0.00851807 0.0145977 1.98226 3.31976e-39 3
0.0385922 0.0138942 1.88673 3.04281e-39 3
0.0735048 0.0147848 2.00767 2.21306e-39 3
-2.71227 0.0969326 4.12101 3.59563e-39 3
-3.14175 0.115107 4.8937 3.78002e-39 3
-3.06268 0.115107 4.8937 3.59528e-39 3
-2.82547 0.115107 4.8937 3.04246e-39 3
-2.7464 0.115107 4.8937 3.50272e-39 3
-2.51043 0.108336 4.60584 3.68747e-39 3
-2.43601 0.108336 4.60584 3.31941e-39 3
-0.594423 0.0438505 1.86427 3.04246e-39 3
-0.551178 0.0428307 1.82091 3.41089e-39 3
-0.521757 0.0428307 1.82091 3.68783e-39 3
-0.492336 0.0428307 1.82091 3.31941e-39 3
-0.981064 0.0969326 4.12101 3.59635e-39 3
-0.827386 0.0877009 3.72853 3.59563e-39 3
-0.706899 0.0877009 3.72853 3.59563e-39 3
-0.678989 0.092086 3.91496 3.4116e-39 3
-0.769666 0.115107 4.8937 4.05697e-39 3
-0.0221107 0.0438505 1.86427 4.61158e-39 3
0.00801104 0.0438505 1.86427 3.59635e-39 3
0.0376842 0.0433346 1.84233 4.15025e-39 3
0.0690768 0.0443788 1.88673 4.05697e-39 3
-2.77886 0.163517 4.12101 4.14952e-39 3
-2.24057 0.13508 3.40431 3.59563e-39 3
-2.18557 0.13508 3.40431 3.59563e-39 3
-2.98361 0.194177 4.8937 3.31905e-39 3
-2.90454 0.194177 4.8937 3.87222e-39 3
-2.82547 0.194177 4.8937 4.05625e-39 3
-2.7464 0.194177 4.8937 3.41052e-39 3
-2.51043 0.182755 4.60584 3.50272e-39 3
-2.43601 0.182755 4.60584 3.68819e-39 3
-0.5806 0.0722519 1.82091 4.05661e-39 3
-0.526682 0.0690407 1.73998 4.05661e-39 3
-0.498568 0.0690407 1.73998 4.24136e-39 3
-0.914479 0.163517 4.12101 4.42611e-39 3
-0.8055 0.155342 3.91496 4.42539e-39 3
-0.742244 0.155342 3.91496 4.05697e-39 3
-0.0223771 0.0748634 1.88673 4.79561e-39 3
0.00810756 0.0748634 1.88673 4.33463e-39 3
0.0381328 0.0739722 1.86427 4.15025e-39 3
0.0716672 0.0776708 1.95748 3.32049e-39 3
-2.24057 0.190085 3.40431 4.0566e-39 3
-1.93339 0.168152 3.01151 3.96405e-39 3
-2.5791 0.230102 4.12101 4.33248e-39 3
-2.98361 0.273247 4.8937 3.87222e-39 3
-2.90454 0.273247 4.8937 3.59563e-39 3
-2.82547 0.273247 4.8937 4.24028e-39 3
-2.7464 0.273247 4.8937 3.96441e-39 3
-2.66734 0.273247 4.8937 3.96441e-39 3
-0.914479 0.230102 4.12101 4.33284e-39 3
-0.847895 0.230102 4.12101 4.79346e-39 3
-0.0232162 0.109299 1.95748 5.44026e-39 3
0.0084116 0.109299 1.95748 5.34879e-39 3
0.0390628 0.106633 1.90974 4.70342e-39 3
0.0735048 0.112101 2.00767 4.98001e-39 3
-2.90454 0.352316 4.8937 4.33391e-39 3
-2.82547 0.352316 4.8937 4.60978e-39 3
-2.7464 0.352316 4.8937 4.42539e-39 3
-2.66734 0.352316 4.8937 3.68783e-39 3
0.00830775 0.139187 1.93331 6.08635e-39 3
0.0390628 0.137489 1.90974 4.42683e-39 3
-2.82547 0.431386 4.8937 4.6105e-39 3
-2.58485 0.40601 4.60584 5.16296e-39 3
-2.51043 0.40601 4.60584 4.97856e-39 3
-0.31553 0.255636 2.89997 8.20649e-39 3
-0.234007 0.222651 2.52578 7.00794e-39 3
-0.199637 0.230072 2.60997 7.19198e-39 3
-0.0265328 0.197205 2.23712 8.8515e-39 3
0.00885431 0.181636 2.06051 9.21956e-39 3
0.0415994 0.179277 2.03375 8.57419e-39 3
0.344779 0.203005 2.30292 8.66495e-39 3
0.376452 0.200063 2.26954 8.66495e-39 3
0.413122 0.200063 2.26954 8.01886e-39 3
0.477471 0.212374 2.40921 7.46568e-39 3
0.568913 0.233972 2.65421 8.57275e-39 3
1.29911 0.242181 2.74734 8.66423e-39 3
1.3435 0.242181 2.74734 9.03301e-39 3
2.55125 0.431386 4.8937 8.94082e-39 3
-0.409243 0.302492 2.89997 8.11393e-39 3
-0.337394 0.28163 2.69997 9.03553e-39 3
-0.274817 0.263461 2.52578 8.482e-39 3
-0.234007 0.263461 2.52578 8.57419e-39 3
-0.187159 0.255228 2.44685 9.31067e-39 3
-0.141015 0.243799 2.33729 9.03481e-39 3
-0.104814 0.247493 2.3727 8.29796e-39 3
-0.0645224 0.240214 2.30292 9.03517e-39 3
-0.0265328 0.233351 2.23712 9.22028e-39 3
0.344779 0.240214 2.30292 1.04163e-38 3
0.371074 0.233351 2.23712 1.05071e-38 3
0.40722 0.233351 2.23712 1.04145e-38 3
0.456406 0.240214 2.30292 1.09684e-38 3
0.524466 0.255228 2.44685 1.0784e-38 3
1.29911 0.286571 2.74734 9.40107e-39 3
1.3435 0.286571 2.74734 9.40144e-39 3
1.92951 0.398404 3.81947 9.30888e-39 3
2.20649 0.441475 4.23239 1.01383e-38 3
2.69885 0.480428 4.60584 8.57024e-39 3
2.6192 0.453738 4.34996 7.83447e-39 3
2.15159 0.36299 3.47996 8.29617e-39 3
1.94807 0.320286 3.07056 6.54445e-39 3
1.95927 0.314126 3.01151 7.37349e-39 3
-1.6901 0.362784 3.01151 7.37637e-39 3
-1.37669 0.304271 2.52578 7.65223e-39 3
-0.542972 0.294762 2.44685 9.12809e-39 3
-0.502955 0.349348 2.89997 9.86528e-39 3
-0.410489 0.314413 2.60997 9.2192e-39 3
-0.368318 0.314413 2.60997 8.66602e-39 3
-0.326148 0.314413 2.60997 1.0049e-38 3
-0.274817 0.304271 2.52578 1.02323e-38 3
-0.226694 0.294762 2.44685 9.5869e-39 3
-0.17615 0.277423 2.30292 1.04163e-38 3
-0.138941 0.277423 2.30292 1.01394e-38 3
-0.104814 0.28583 2.3727 1.07847e-38 3
-0.0675003 0.290228 2.40921 1.00479e-38 3
-0.0281409 0.28583 2.3727 1.00482e-38 3
0.00862728 0.241856 2.00767 9.58654e-39 3
0.0410661 0.241856 2.00767 1.11517e-38 3
0.330211 0.265701 2.20561 1.11524e-38 3
0.365848 0.265701 2.20561 1.04149e-38 3
0.40722 0.269497 2.23712 1.07833e-38 3
0.449792 0.273403 2.26954 1.00454e-38 3
0.508574 0.28583 2.3727 1.11521e-38 3
1.29911 0.330961 2.74734 1.05993e-38 3
1.3435 0.330961 2.74734 1.10602e-38 3
-2.03875 0.36888 2.69997 6.6388e-39 3
-1.92862 0.356584 2.60997 5.90232e-39 3
-1.76855 0.334297 2.44685 6.73172e-39 3
-1.62731 0.314633 2.30292 7.46856e-39 3
-1.48119 0.293082 2.14518 7.37601e-39 3
-1.50852 0.305643 2.23712 6.73064e-39 3
-1.39279 0.289122 2.11619 7.46821e-39 3
-1.85554 0.465109 3.40431 8.02102e-39 3
-1.80053 0.465109 3.40431 7.65223e-39 3
-1.07237 0.382054 2.7964 8.11645e-39 3
-0.898785 0.334297 2.44685 9.13096e-39 3
-0.85925 0.334297 2.44685 9.03768e-39 3
-0.819716 0.334297 2.44685 9.40646e-39 3
-0.805348 0.345081 2.52578 9.49866e-39 3
-0.705682 0.356584 2.60997 1.04185e-38 3
-0.621341 0.356584 2.60997 1.0511e-38 3
-0.57917 0.356584 2.60997 1.17088e-38 3
-0.503437 0.334297 2.44685 1.06029e-38 3
-0.463903 0.334297 2.44685 1.11549e-38 3
-0.424368 0.334297 2.44685 1.10624e-38 3
-0.384833 0.334297 2.44685 1.07851e-38 3
-0.345298 0.334297 2.44685 1.10617e-38 3
-0.305764 0.334297 2.44685 1.14294e-38 3
-0.266229 0.334297 2.44685 1.25357e-38 3
-0.213359 0.314633 2.30292 1.27198e-38 3
-0.171117 0.305643 2.23712 1.33648e-38 3
-0.134971 0.305643 2.23712 1.34566e-38 3
-0.101732 0.314633 2.30292 1.28112e-38 3
-0.0645224 0.314633 2.30292 1.18896e-38 3
-0.0273132 0.314633 2.30292 1.2351e-38 3
0.00782474 0.248779 1.82091 1.21662e-38 3
0.0363995 0.243125 1.77953 1.2718e-38 3
0.065152 0.243125 1.77953 1.11499e-38 3
0.330211 0.301338 2.20561 1.21662e-38 3
0.365848 0.301338 2.20561 1.17974e-38 3
0.401485 0.301338 2.20561 1.1613e-38 3
0.449792 0.310073 2.26954 1.33644e-38 3
0.508574 0.324167 2.3727 1.32722e-38 3
1.29796 0.362627 2.65421 1.08755e-38 3
1.79795 0.48625 3.55905 1.01379e-38 3
-2.01296 0.398754 2.60997 6.3615e-39 3
-1.93849 0.392217 2.56719 5.34914e-39 3
-1.75329 0.362504 2.3727 7.10086e-39 3
-1.66452 0.351842 2.30292 5.25695e-39 3
-1.5369 0.332295 2.17498 5.62465e-39 3
-1.48119 0.327743 2.14518 6.27002e-39 3
-1.42698 0.323314 2.11619 6.54625e-39 3
-1.39279 0.323314 2.11619 4.88673e-39 3
-1.14246 0.271878 1.77953 6.6388e-39 3
-1.70709 0.478505 3.13197 7.65295e-39 3
-0.886968 0.385891 2.52578 9.95964e-39 3
-0.846158 0.385891 2.52578 9.86708e-39 3
-0.503437 0.373832 2.44685 1.06021e-38 3
-0.463903 0.373832 2.44685 1.23531e-38 3
-0.411508 0.362504 2.3727 1.20758e-38 3
-0.362196 0.351842 2.30292 1.29967e-38 3
-0.324987 0.351842 2.30292 1.26276e-38 3
-0.279555 0.341789 2.23712 1.31804e-38 3
-0.243409 0.341789 2.23712 1.26276e-38 3
-0.201506 0.332295 2.17498 1.15201e-38 3
-0.161868 0.323314 2.11619 1.20737e-38 3
-0.127675 0.323314 2.11619 1.23492e-38 3
-0.0768639 0.265836 1.73998 1.2718e-38 3
-0.0482145 0.262915 1.72086 1.29945e-38 3
-0.0199709 0.257261 1.68385 1.37332e-38 3
0.00731443 0.260057 1.70216 1.47463e-38 3
0.0333662 0.249221 1.63123 1.43768e-38 3
0.0585039 0.244135 1.59794 1.38229e-38 3
0.0843225 0.244135 1.59794 1.45611e-38 3
0.31689 0.362504 2.3727 1.22577e-38 3
0.334928 0.341789 2.23712 1.23499e-38 3
0.371074 0.341789 2.23712 1.37335e-38 3
0.401485 0.336975 2.20561 1.29038e-38 3
0.449792 0.346743 2.26954 1.30878e-38 3
0.508574 0.362504 2.3727 1.3641e-38 3
0.54691 0.362504 2.3727 1.32711e-38 3
1.29796 0.405513 2.65421 1.18889e-38 3
1.36396 0.412504 2.69997 1.20733e-38 3
-1.85318 0.367437 2.17498 5.25552e-39 3
-2.06292 0.433696 2.56719 7.37565e-39 3
-2.126 0.456129 2.69997 6.45514e-39 3
-1.88715 0.413367 2.44685 6.36294e-39 3
-1.84762 0.413367 2.44685 5.90268e-39 3
-1.65311 0.377935 2.23712 6.91647e-39 3
-1.52956 0.357506 2.11619 5.71792e-39 3
-1.49536 0.357506 2.11619 5.34842e-39 3
-1.35158 0.330693 1.95748 6.27002e-39 3
-1.3538 0.339173 2.00767 5.44026e-39 3
-1.19845 0.307622 1.82091 6.63845e-39 3
-1.11707 0.29395 1.73998 7.65332e-39 3
-1.02718 0.472419 2.7964 1.05125e-38 3
-0.85925 0.413367 2.44685 1.05128e-38 3
-0.380158 0.191706 1.13477 1.09723e-38 3
-0.337375 0.178753 1.0581 1.0511e-38 3
-0.503437 0.413367 2.44685 1.17081e-38 3
-0.449845 0.40084 2.3727 1.14312e-38 3
-0.387994 0.377935 2.23712 1.19843e-38 3
-0.351847 0.377935 2.23712 1.24446e-38 3
-0.306932 0.367437 2.17498 1.19829e-38 3
-0.257485 0.348098 2.06051 1.24428e-38 3
-0.224193 0.348098 2.06051 1.2535e-38 3
-0.1909 0.348098 2.06051 1.23503e-38 3
-0.149727 0.330693 1.95748 1.28116e-38 3
-0.112476 0.314946 1.86427 1.27183e-38 3
-0.0786108 0.30063 1.77953 1.25336e-38 3
-0.0482145 0.290719 1.72086 1.37321e-38 3
-0.020188 0.287559 1.70216 1.37325e-38 3
0.00700966 0.275578 1.63123 1.25336e-38 3
0.0333662 0.275578 1.63123 1.4192e-38 3
0.0585039 0.269954 1.59794 1.46523e-38 3
0.0843225 0.269954 1.59794 1.36392e-38 3
0.114828 0.281441 1.66594 1.42853e-38 3
0.15141 0.30063 1.77953 1.34555e-38 3
0.214247 0.357506 2.11619 1.54838e-38 3
0.248439 0.357506 2.11619 1.47463e-38 3
0.282631 0.357506 2.11619 1.37321e-38 3
0.316824 0.357506 2.11619 1.22573e-38 3
0.365848 0.372612 2.20561 1.1612e-38 3
0.401485 0.372612 2.20561 1.14283e-38 3
0.443366 0.377935 2.23712 1.22581e-38 3
0.479512 0.377935 2.23712 1.27194e-38 3
0.515658 0.377935 2.23712 1.40083e-38 3
0.559801 0.383413 2.26954 1.47455e-38 3
0.507879 0.290719 1.72086 1.43775e-38 3
0.535684 0.290719 1.72086 1.42853e-38 3
0.517954 0.267227 1.5818 1.35481e-38 3
0.512454 0.251957 1.49141 1.38254e-38 3
0.526522 0.247247 1.46354 1.33648e-38 3
0.550169 0.247247 1.46354 1.29963e-38 3
0.558167 0.240504 1.42362 1.31807e-38 3
0.553823 0.220462 1.30499 1.34573e-38 3
1.11749 0.413367 2.44685 1.32711e-38 3
1.15702 0.413367 2.44685 1.38236e-38 3
1.23516 0.426701 2.52578 1.31786e-38 3
1.3185 0.440924 2.60997 1.30864e-38 3
-1.87928 0.408249 2.20561 5.99272e-39 3
-1.84364 0.408249 2.20561 6.26858e-39 3
-1.86041 0.420082 2.26954 6.91467e-39 3
-1.82374 0.420082 2.26954 5.53246e-39 3
-1.8683 0.439177 2.3727 4.61122e-39 3
-1.7254 0.414081 2.23712 6.45585e-39 3
-1.68925 0.414081 2.23712 6.36329e-39 3
-1.46478 0.366907 1.98226 6.36329e-39 3
-1.34747 0.345068 1.86427 7.4682e-39 3
-1.27192 0.333169 1.79998 8.66711e-39 3
-1.24284 0.333169 1.79998 7.92954e-39 3
-1.21375 0.333169 1.79998 8.02174e-39 3
-1.15805 0.325682 1.75953 7.56076e-39 3
-1.11707 0.322063 1.73998 8.29905e-39 3
-1.04262 0.308358 1.66594 8.76038e-39 3
-1.33824 0.483095 2.60997 8.85258e-39 3
-1.29607 0.483095 2.60997 9.59014e-39 3
-0.46916 0.226451 1.22343 1.1894e-38 3
-0.435775 0.219589 1.18635 1.06043e-38 3
-0.387268 0.204125 1.10281 1.22631e-38 3
-0.349745 0.193238 1.04399 1.28148e-38 3
-0.328497 0.190695 1.03025 1.12479e-38 3
-0.311851 0.190695 1.03025 1.0511e-38 3
-0.412358 0.402579 2.17498 1.13383e-38 3
-0.256222 0.27345 1.47734 1.23524e-38 3
-0.195471 0.230045 1.24284 1.4103e-38 3
-0.190509 0.249877 1.34999 1.41942e-38 3
-0.163074 0.241547 1.30499 1.40098e-38 3
-0.160742 0.27345 1.47734 1.38254e-38 3
-0.154345 0.308358 1.66594 1.40098e-38 3
-0.127428 0.308358 1.66594 1.4286e-38 3
-0.10051 0.308358 1.66594 1.52072e-38 3
-0.0768639 0.322063 1.73998 1.40087e-38 3
-0.0482145 0.318524 1.72086 1.45619e-38 3
-0.020188 0.315062 1.70216 1.33626e-38 3
0.00708345 0.305113 1.6484 1.47463e-38 3
0.0337174 0.305113 1.6484 1.59434e-38 3
0.0603513 0.305113 1.6484 1.42831e-38 3
0.0869853 0.305113 1.6484 1.46533e-38 3
0.113619 0.305113 1.6484 1.44697e-38 3
0.141745 0.308358 1.66594 1.40087e-38 3
0.170476 0.311674 1.68385 1.43768e-38 3
0.199832 0.315062 1.70216 1.46537e-38 3
0.229832 0.318524 1.72086 1.45615e-38 3
0.257637 0.318524 1.72086 1.63129e-38 3
0.288613 0.322063 1.73998 1.62199e-38 3
0.347627 0.353484 1.90974 1.6037e-38 3
0.43105 0.402579 2.17498 1.42849e-38 3
0.466192 0.402579 2.17498 1.41009e-38 3
0.494467 0.397064 2.14518 1.4469e-38 3
0.508241 0.381391 2.06051 1.52987e-38 3
0.514457 0.362321 1.95748 1.45619e-38 3
0.525193 0.329383 1.77953 1.42853e-38 3
0.547721 0.325682 1.75953 1.44697e-38 3
0.53414 0.301934 1.63123 1.47463e-38 3
0.527526 0.284173 1.53528 1.46541e-38 3
0.536551 0.276054 1.49141 1.34562e-38 3
0.555359 0.27345 1.47734 1.3457e-38 3
0.621523 0.261132 1.4108 1.39172e-38 3
1.15702 0.452901 2.44685 1.4008e-38 3
1.1603 0.439177 2.3727 1.3547e-38 3
1.27597 0.467511 2.52578 1.28094e-38 3
-1.79769 0.450227 2.23712 5.07148e-39 3
-1.76154 0.450227 2.23712 6.73172e-39 3
-1.7254 0.450227 2.23712 7.00831e-39 3
-1.64233 0.437721 2.17498 6.08635e-39 3
-1.48356 0.40405 2.00767 7.74479e-39 3
-1.41484 0.393949 1.95748 7.19198e-39 3
-1.28671 0.366464 1.82091 8.66711e-39 3
-1.24284 0.362252 1.79998 8.02174e-39 3
-1.21375 0.362252 1.79998 9.12809e-39 3
-1.18467 0.362252 1.79998 7.19198e-39 3
-1.11707 0.350177 1.73998 6.82392e-39 3
-0.488927 0.246218 1.22343 1.2168e-38 3
-0.448153 0.235193 1.16864 1.18911e-38 3
-0.410873 0.225114 1.11856 1.14319e-38 3
-0.366613 0.210106 1.04399 1.18003e-38 3
-0.340661 0.204649 1.01687 1.17985e-38 3
-0.324231 0.204649 1.01687 1.11539e-38 3
-0.311851 0.207342 1.03025 1.20765e-38 3
-0.358969 0.252127 1.25279 1.09706e-38 3
-0.344235 0.256227 1.27316 1.27212e-38 3
-0.303962 0.29732 1.47734 1.49324e-38 3
-0.235633 0.250126 1.24284 1.38257e-38 3
-0.20892 0.24243 1.2046 1.2074e-38 3
-0.189456 0.24243 1.2046 1.41027e-38 3
-0.171311 0.244309 1.21394 1.41934e-38 3
-0.148249 0.238757 1.18635 1.37321e-38 3
-0.137408 0.254161 1.26289 1.38243e-38 3
-0.120904 0.262633 1.30499 1.46541e-38 3
-0.117433 0.30898 1.53528 1.44697e-38 3
-0.0964079 0.321591 1.59794 1.47463e-38 3
-0.0735931 0.335276 1.66594 1.4469e-38 3
-0.0466758 0.335276 1.66594 1.49299e-38 3
-0.0199709 0.338881 1.68385 1.66802e-38 3
0.00700966 0.328291 1.63123 1.50225e-38 3
0.0330222 0.324906 1.61442 1.52987e-38 3
0.0579129 0.318343 1.5818 1.53909e-38 3
0.0843225 0.321591 1.59794 1.51143e-38 3
0.110141 0.321591 1.59794 1.318e-38 3
0.13596 0.321591 1.59794 1.40087e-38 3
0.163446 0.324906 1.61442 1.52065e-38 3
0.191505 0.328291 1.63123 1.56668e-38 3
0.213416 0.321591 1.59794 1.60366e-38 3
0.23445 0.315159 1.56598 1.69568e-38 3
0.259752 0.315159 1.56598 1.62192e-38 3
0.290871 0.321591 1.59794 1.49288e-38 3
0.310356 0.315159 1.56598 1.5482e-38 3
0.360923 0.338881 1.68385 1.47445e-38 3
0.410183 0.358135 1.77953 1.52987e-38 3
0.429181 0.350177 1.73998 1.53909e-38 3
0.467688 0.358135 1.77953 1.51143e-38 3
0.53123 0.362252 1.79998 1.52987e-38 3
0.547721 0.354111 1.75953 1.46533e-38 3
0.539762 0.331746 1.6484 1.5759e-38 3
0.527526 0.30898 1.53528 1.61278e-38 3
0.531489 0.29732 1.47734 1.50228e-38 3
0.560649 0.300152 1.49141 1.44711e-38 3
0.568503 0.291814 1.44999 1.39179e-38 3
0.5559 0.274051 1.36173 1.3457e-38 3
1.01454 0.463469 2.30292 1.34562e-38 3
1.08896 0.463469 2.30292 1.41002e-38 3
1.12617 0.463469 2.30292 1.52987e-38 3
1.16338 0.463469 2.30292 1.47455e-38 3
1.27563 0.492436 2.44685 1.57586e-38 3
-1.64233 0.472863 2.17498 9.49651e-39 3
-1.56375 0.460083 2.11619 9.77346e-39 3
-1.48931 0.447975 2.06051 9.77274e-39 3
-1.41868 0.436489 2.00767 9.49687e-39 3
-1.38624 0.436489 2.00767 9.77345e-39 3
-1.2571 0.405311 1.86427 8.57491e-39 3
-1.22698 0.405311 1.86427 7.83735e-39 3
-0.488927 0.265985 1.22343 1.14287e-38 3
-0.3925 0.222524 1.02352 1.1429e-38 3
-0.378436 0.223988 1.03025 1.13383e-38 3
-0.352513 0.218244 1.00384 1.25361e-38 3
-0.336294 0.218244 1.00384 1.23503e-38 3
-0.324231 0.221079 1.01687 1.45626e-38 3
-0.307801 0.221079 1.01687 1.49321e-38 3
-0.358969 0.272369 1.25279 1.53927e-38 3
-0.336039 0.270207 1.24284 1.50239e-38 3
-0.315958 0.270207 1.24284 1.41931e-38 3
-0.295877 0.270207 1.24284 1.51158e-38 3
-0.275795 0.270207 1.24284 1.41942e-38 3
-0.25776 0.272369 1.25279 1.42864e-38 3
-0.231951 0.265985 1.22343 1.46548e-38 3
-0.20892 0.261893 1.2046 1.39176e-38 3
-0.189456 0.261893 1.2046 1.48395e-38 3
-0.171311 0.263924 1.21394 1.66809e-38 3
-0.154086 0.26808 1.23306 1.50225e-38 3
-0.137408 0.274566 1.26289 1.576e-38 3
-0.119904 0.281373 1.2942 1.46537e-38 3
-0.0989934 0.281373 1.2942 1.49299e-38 3
-0.0891318 0.32119 1.47734 1.46541e-38 3
-0.0684925 0.33709 1.55048 1.46533e-38 3
-0.0457034 0.354647 1.63123 1.6865e-38 3
-0.0197585 0.362193 1.66594 1.63114e-38 3
0.00686661 0.34741 1.59794 1.49299e-38 3
0.0323551 0.3439 1.5818 1.37321e-38 3
0.0567661 0.33709 1.55048 1.50228e-38 3
0.0818179 0.33709 1.55048 1.5115e-38 3
0.105822 0.333786 1.53528 1.43786e-38 3
0.13596 0.34741 1.59794 1.50239e-38 3
0.161778 0.34741 1.59794 1.48377e-38 3
0.187597 0.34741 1.59794 1.53898e-38 3
0.195465 0.318188 1.46354 1.52058e-38 3
0.219112 0.318188 1.46354 1.66791e-38 3
0.242759 0.318188 1.46354 1.49267e-38 3
0.263939 0.315242 1.44999 1.49281e-38 3
0.284731 0.31235 1.43668 1.6588e-38 3
0.322749 0.327367 1.50575 1.63114e-38 3
0.357387 0.33709 1.55048 1.67728e-38 3
0.382439 0.33709 1.55048 1.4376e-38 3
0.437835 0.362193 1.66594 1.39158e-38 3
0.464753 0.362193 1.66594 1.48377e-38 3
0.49167 0.362193 1.66594 1.42846e-38 3
0.507783 0.354647 1.63123 1.51143e-38 3
0.523239 0.34741 1.59794 1.50207e-38 3
0.549058 0.34741 1.59794 1.45597e-38 3
0.54171 0.327367 1.50575 1.57597e-38 3
0.571535 0.330545 1.52037 1.5854e-38 3
0.563287 0.31235 1.43668 1.48392e-38 3
0.551108 0.293501 1.34999 1.32719e-38 3
0.56321 0.288527 1.32711 1.45626e-38 3
0.985557 0.486373 2.23712 1.46537e-38 3
1.0217 0.486373 2.23712 1.51143e-38 3
0.898976 0.386888 1.77953 1.43768e-38 3
0.927729 0.386888 1.77953 1.41924e-38 3
0.978725 0.395885 1.82091 1.46541e-38 3
1.08376 0.425577 1.95748 1.39172e-38 3
1.20582 0.460083 2.11619 1.37335e-38 3
-1.33666 0.462992 1.98226 7.83735e-39 3
-0.420018 0.245479 1.051 1.38247e-38 3
-0.40035 0.243842 1.04399 1.38236e-38 3
-0.378436 0.240634 1.03025 1.32711e-38 3
-0.36179 0.240634 1.03025 1.39165e-38 3
-0.336294 0.234464 1.00384 1.50214e-38 3
-0.322139 0.235977 1.01031 1.52051e-38 3
-0.307801 0.237509 1.01687 1.50221e-38 3
-0.342528 0.279209 1.19541 1.42856e-38 3
-0.320764 0.277094 1.18635 1.38239e-38 3
-0.301596 0.277094 1.18635 1.32704e-38 3
-0.286773 0.281357 1.2046 1.38236e-38 3
-0.263259 0.277094 1.18635 1.38236e-38 3
-0.244091 0.277094 1.18635 1.49299e-38 3
-0.221565 0.272958 1.16864 1.51147e-38 3
-0.202683 0.272958 1.16864 1.45615e-38 3
-0.183801 0.272958 1.16864 1.50228e-38 3
-0.168695 0.279209 1.19541 1.57604e-38 3
-0.15053 0.281357 1.2046 1.47459e-38 3
-0.133114 0.285753 1.22343 1.48377e-38 3
-0.11424 0.288003 1.23306 1.52065e-38 3
-0.0935797 0.285753 1.22343 1.49292e-38 3
-0.0726767 0.281357 1.2046 1.48377e-38 3
-0.0536259 0.283538 1.21394 1.4931e-38 3
-0.0342775 0.285753 1.22343 1.4008e-38 3
-0.0128089 0.252251 1.07999 1.47441e-38 3
0.00473893 0.25758 1.10281 1.52976e-38 3
0.0271454 0.309969 1.32711 1.43782e-38 3
0.0502928 0.320845 1.37367 1.41023e-38 3
0.0751237 0.332512 1.42362 1.50239e-38 3
0.101829 0.34506 1.47734 1.38261e-38 3
0.128116 0.351696 1.50575 1.35488e-38 3
0.153925 0.35511 1.52037 1.576e-38 3
0.170227 0.33867 1.44999 1.63114e-38 3
0.193655 0.33867 1.44999 1.8522e-38 3
0.213136 0.332512 1.42362 1.76004e-38 3
0.236138 0.332512 1.42362 1.82461e-38 3
0.241571 0.309969 1.32711 1.81539e-38 3
0.263014 0.309969 1.32711 1.7233e-38 3
0.3137 0.341835 1.46354 1.66802e-38 3
0.350447 0.35511 1.52037 1.54824e-38 3
0.375013 0.35511 1.52037 1.56664e-38 3
0.411565 0.365764 1.56598 1.83401e-38 3
0.436868 0.365764 1.56598 1.45597e-38 3
0.46217 0.365764 1.56598 1.52051e-38 3
0.49742 0.373228 1.59794 1.57579e-38 3
0.523239 0.373228 1.59794 1.59423e-38 3
0.538077 0.365764 1.56598 1.56661e-38 3
0.563379 0.365764 1.56598 1.52065e-38 3
0.571535 0.35511 1.52037 1.56682e-38 3
0.529296 0.315313 1.34999 1.57611e-38 3
0.528335 0.302284 1.2942 1.58523e-38 3
0.53167 0.292611 1.25279 1.51143e-38 3
0.538977 0.285753 1.22343 1.36396e-38 3
0.590372 0.272958 1.16864 1.33648e-38 3
0.618486 0.277094 1.18635 1.37328e-38 3
0.668019 0.290289 1.24284 1.27194e-38 3
0.661836 0.279209 1.19541 1.27205e-38 3
0.670908 0.27501 1.17743 1.37339e-38 3
0.624225 0.248819 1.0653 1.44726e-38 3
-0.428649 0.267853 1.07259 1.37314e-38 3
-0.40576 0.264234 1.0581 1.48367e-38 3
-0.380942 0.258984 1.03708 1.39158e-38 3
-0.364186 0.258984 1.03708 1.37314e-38 3
-0.338463 0.252301 1.01031 1.31768e-38 3
-0.322139 0.252301 1.01031 1.38214e-38 3
-0.307801 0.253939 1.01687 1.43742e-38 3
-0.299141 0.260711 1.04399 1.37299e-38 3
-0.31133 0.287548 1.15146 1.37299e-38 3
-0.292726 0.287548 1.15146 1.40065e-38 3
-0.274121 0.287548 1.15146 1.52054e-38 3
-0.255516 0.287548 1.15146 1.44679e-38 3
-0.236912 0.287548 1.15146 1.35459e-38 3
-0.221565 0.29184 1.16864 1.43764e-38 3
-0.195392 0.281342 1.12661 1.2625e-38 3
-0.179776 0.28545 1.14305 1.37314e-38 3
-0.164919 0.29184 1.16864 1.17031e-38 3
-0.147134 0.294035 1.17743 1.46548e-38 3
-0.130066 0.298524 1.19541 1.44704e-38 3
-0.112468 0.303152 1.21394 1.52987e-38 3
-0.09214 0.30082 1.2046 1.55746e-38 3
-0.0715755 0.296262 1.18635 1.47455e-38 3
-0.0508658 0.287548 1.15146 1.44697e-38 3
-0.0313394 0.279333 1.11856 1.56675e-38 3
-0.0126347 0.266031 1.0653 1.751e-38 3
0.00464088 0.269701 1.07999 1.67731e-38 3
0.0220907 0.269701 1.07999 1.44704e-38 3
0.044792 0.30552 1.22343 1.39172e-38 3
0.0645594 0.30552 1.22343 1.32711e-38 3
0.088474 0.320546 1.28359 1.35477e-38 3
0.112916 0.331412 1.32711 1.42849e-38 3
0.134358 0.331412 1.32711 1.55739e-38 3
0.153204 0.325888 1.30499 1.8061e-38 3
0.171432 0.320546 1.28359 1.80606e-38 3
0.189072 0.315376 1.26289 1.64933e-38 3
0.21118 0.31794 1.27316 1.64015e-38 3
0.229882 0.315376 1.26289 1.71394e-38 3
0.250287 0.315376 1.26289 1.80624e-38 3
0.319675 0.372444 1.49141 1.72341e-38 3
0.353883 0.383398 1.53528 1.55753e-38 3
0.378689 0.383398 1.53528 1.5021e-38 3
0.354798 0.337126 1.34999 1.60348e-38 3
0.370227 0.331412 1.32711 1.6126e-38 3
0.391669 0.331412 1.32711 1.66791e-38 3
0.413112 0.331412 1.32711 1.65862e-38 3
0.449802 0.34304 1.37367 1.57568e-38 3
0.480425 0.349166 1.3982 1.59412e-38 3
0.512163 0.355514 1.42362 1.52051e-38 3
0.535165 0.355514 1.42362 1.5021e-38 3
0.503265 0.320546 1.28359 1.45612e-38 3
0.507369 0.31037 1.24284 1.46523e-38 3
0.515184 0.303152 1.21394 1.50211e-38 3
0.514843 0.29184 1.16864 1.4653e-38 3
0.57326 0.283381 1.13477 1.30885e-38 3
0.583144 0.279333 1.11856 1.2812e-38 3
0.601217 0.279333 1.11856 1.25364e-38 3
0.61929 0.279333 1.11856 1.16159e-38 3
0.594872 0.260711 1.04399 1.17074e-38 3
0.599745 0.255599 1.02352 1.18911e-38 3
0.612281 0.253939 1.01687 1.22599e-38 3
-0.465092 0.297406 1.11856 1.17031e-38 3
-0.428649 0.285184 1.07259 1.12407e-38 3
-0.403037 0.279442 1.051 1.14247e-38 3
-0.380942 0.275741 1.03708 1.16098e-38 3
-0.359425 0.272136 1.02352 1.09644e-38 3
-0.327886 0.26023 0.97874 1.4282e-38 3
-0.312072 0.26023 0.97874 1.41884e-38 3
-0.303855 0.266903 1.00384 1.53877e-38 3
-0.295205 0.273926 1.03025 1.33604e-38 3
-0.31133 0.306153 1.15146 1.4098e-38 3
-0.292726 0.306153 1.15146 1.44664e-38 3
-0.2644 0.295297 1.11063 1.45586e-38 3
-0.246455 0.295297 1.11063 1.40984e-38 3
-0.228511 0.295297 1.11063 1.31771e-38 3
-0.203355 0.285184 1.07259 1.31782e-38 3
-0.188608 0.289145 1.08749 1.37314e-38 3
-0.177189 0.299545 1.12661 1.3547e-38 3
-0.163697 0.308421 1.15999 1.76958e-38 3
-0.146036 0.310723 1.16864 1.31789e-38 3
-0.12811 0.313059 1.17743 1.35477e-38 3
-0.111603 0.320283 1.2046 1.5576e-38 3
-0.0914366 0.317838 1.19541 1.52991e-38 3
-0.0715755 0.31543 1.18635 1.52994e-38 3
-0.0512426 0.308421 1.15999 1.54845e-38 3
-0.0315649 0.299545 1.12661 1.55767e-38 3
-0.0127212 0.285184 1.07259 1.54831e-38 3
0.00460909 0.285184 1.07259 1.60366e-38 3
0.0216429 0.28133 1.0581 1.41016e-38 3
0.0379694 0.275741 1.03708 1.4286e-38 3
0.0550907 0.277579 1.04399 1.35466e-38 3
0.0719588 0.277579 1.04399 1.67738e-38 3
0.0876582 0.273926 1.03025 1.69575e-38 3
0.123862 0.325288 1.22343 1.68639e-38 3
0.143629 0.325288 1.22343 1.83372e-38 3
0.163396 0.325288 1.22343 1.83361e-38 3
0.180346 0.320283 1.2046 1.93503e-38 3
0.21118 0.338511 1.27316 1.71387e-38 3
0.229882 0.335781 1.26289 1.72316e-38 3
0.250287 0.335781 1.26289 1.79706e-38 3
0.266396 0.330451 1.24284 1.5021e-38 3
0.350447 0.404241 1.52037 1.46533e-38 3
0.375013 0.404241 1.52037 1.41002e-38 3
0.342971 0.346973 1.30499 1.38214e-38 3
0.364056 0.346973 1.30499 1.50189e-38 3
0.378828 0.341285 1.28359 1.53873e-38 3
0.399567 0.341285 1.28359 1.58479e-38 3
0.420307 0.341285 1.28359 1.6216e-38 3
0.441046 0.341285 1.28359 1.64015e-38 3
0.461786 0.341285 1.28359 1.75075e-38 3
0.474743 0.335781 1.26289 1.46501e-38 3
0.495148 0.335781 1.26289 1.43746e-38 3
0.515553 0.335781 1.26289 1.3914e-38 3
0.507319 0.317838 1.19541 1.40984e-38 3
0.51103 0.308421 1.15999 1.44686e-38 3
0.687685 0.400354 1.50575 1.40094e-38 3
0.565071 0.297406 1.11856 1.2813e-38 3
0.566945 0.289145 1.08749 1.23524e-38 3
0.55742 0.275741 1.03708 1.25379e-38 3
0.570399 0.273926 1.03025 1.1801e-38 3
0.583208 0.272136 1.02352 1.20776e-38 3
0.595851 0.270369 1.01687 1.24443e-38 3
0.608331 0.268625 1.01031 1.2813e-38 3
0.620651 0.266903 1.00384 1.32729e-38 3
0.613282 0.257017 0.966657 1.26268e-38 3
0.621231 0.253883 0.954868 1.34562e-38 3
-0.694943 0.230037 0.815617 8.11322e-39 3
-0.681764 0.230037 0.815617 8.20506e-39 3
-0.668586 0.230037 0.815617 4.60907e-39 3
-0.662307 0.232458 0.824202 6.36115e-39 3
-0.437406 0.256785 0.910456 1.26265e-38 3
-0.422695 0.256785 0.910456 1.13361e-38 3
-0.468438 0.317748 1.12661 1.17942e-38 3
-0.425733 0.300456 1.0653 1.57575e-38 3
-0.40035 0.294447 1.04399 1.66799e-38 3
-0.361775 0.27778 0.984896 1.69564e-38 3
-0.331277 0.266066 0.943364 1.66799e-38 3
-0.314142 0.264473 0.937715 1.74167e-38 3
-0.297212 0.262899 0.932133 1.64011e-38 3
-0.28384 0.264473 0.937715 1.58494e-38 3
-0.268689 0.264473 0.937715 1.49281e-38 3
-0.261364 0.272636 0.966657 1.56653e-38 3
-0.245745 0.272636 0.966657 1.39125e-38 3
-0.233003 0.276044 0.97874 1.45576e-38 3
-0.219938 0.279538 0.991129 1.24389e-38 3
-0.206538 0.283122 1.00384 1.24396e-38 3
-0.192791 0.286799 1.01687 1.41913e-38 3
-0.177513 0.288673 1.02352 1.41913e-38 3
-0.166414 0.298426 1.0581 1.6404e-38 3
-0.155627 0.311035 1.10281 1.52976e-38 3
-0.137809 0.311035 1.10281 1.42846e-38 3
-0.121705 0.315479 1.11856 1.49299e-38 3
-0.108272 0.329605 1.16864 1.44697e-38 3
-0.0893895 0.329605 1.16864 1.38254e-38 3
-0.0715755 0.334599 1.18635 1.26272e-38 3
-0.0524072 0.334599 1.18635 1.32726e-38 3
-0.0327427 0.329605 1.16864 1.318e-38 3
-0.0136566 0.324758 1.15146 1.32719e-38 3
0.004948 0.324758 1.15146 1.42853e-38 3
0.0235526 0.324758 1.15146 1.48385e-38 3
0.0377196 0.290573 1.03025 1.45612e-38 3
0.0547258 0.292497 1.03708 1.40991e-38 3
0.0793664 0.324758 1.15146 1.6772e-38 3
0.0865198 0.286799 1.01687 1.76011e-38 3
0.118316 0.329605 1.16864 1.76004e-38 3
0.137198 0.329605 1.16864 1.75064e-38 3
0.153785 0.324758 1.15146 1.93496e-38 3
0.172389 0.324758 1.15146 1.90733e-38 3
0.163366 0.27778 0.984896 1.75064e-38 3
0.209599 0.324758 1.15146 1.59408e-38 3
0.206904 0.294447 1.04399 1.48359e-38 3
0.223772 0.294447 1.04399 1.29945e-38 3
0.231385 0.283122 1.00384 1.30864e-38 3
0.25082 0.286799 1.01687 1.41913e-38 3
0.27256 0.292497 1.03708 1.64951e-38 3
0.358088 0.362025 1.28359 1.81535e-38 3
0.378828 0.362025 1.28359 1.86138e-38 3
0.393123 0.356186 1.26289 1.83372e-38 3
0.406964 0.350532 1.24284 1.61245e-38 3
0.420372 0.345055 1.22343 1.5755e-38 3
0.433368 0.339746 1.2046 1.55706e-38 3
0.42658 0.320051 1.13477 1.54781e-38 3
0.403936 0.290573 1.03025 1.44654e-38 3
0.399553 0.276044 0.97874 1.52962e-38 3
0.388648 0.258287 0.91578 1.54806e-38 3
0.396489 0.253834 0.899991 1.44675e-38 3
0.41103 0.253834 0.899991 1.33641e-38 3
0.425572 0.253834 0.899991 1.23503e-38 3
0.478623 0.276044 0.97874 1.29052e-38 3
0.523907 0.292497 1.03708 1.17067e-38 3
0.566945 0.306716 1.08749 1.22602e-38 3
0.553752 0.290573 1.03025 1.14315e-38 3
0.56667 0.288673 1.02352 1.28152e-38 3
0.575683 0.284949 1.01031 1.15237e-38 3
0.588212 0.283122 1.00384 1.2168e-38 3
0.600581 0.281319 0.997442 1.17056e-38 3
0.620651 0.283122 1.00384 1.38254e-38 3
0.60952 0.270963 0.960726 1.25347e-38 3
0.617466 0.267679 0.949081 1.23495e-38 3
0.628989 0.266066 0.943364 1.23495e-38 3
-0.723187 0.24839 0.83297 5.62393e-39 3
-0.702258 0.245775 0.824202 5.80797e-39 3
-0.688941 0.245775 0.824202 5.90017e-39 3
-0.675624 0.245775 0.824202 6.4537e-39 3
-0.662307 0.245775 0.824202 6.91396e-39 3
-0.461377 0.252418 0.846478 1.09662e-38 3
-0.45508 0.256578 0.860431 9.95317e-39 3
-0.436382 0.253789 0.851078 1.10602e-38 3
-0.418086 0.251061 0.841927 1.0968e-38 3
-0.40018 0.24839 0.83297 1.17052e-38 3
-0.378665 0.243215 0.815617 1.17985e-38 3
-0.361718 0.240708 0.807208 1.30885e-38 3
-0.356017 0.245775 0.824202 1.14269e-38 3
-0.412107 0.295552 0.991129 1.53895e-38 3
-0.396093 0.295552 0.991129 1.54813e-38 3
-0.380079 0.295552 0.991129 1.42828e-38 3
-0.34652 0.281309 0.943364 1.62196e-38 3
-0.329294 0.279624 0.937715 1.61267e-38 3
-0.314142 0.279624 0.937715 1.6033e-38 3
-0.297212 0.27796 0.932133 1.69543e-38 3
-0.28384 0.279624 0.937715 1.43742e-38 3
-0.26551 0.276315 0.926618 1.33608e-38 3
-0.253538 0.279624 0.937715 1.30842e-38 3
-0.238387 0.279624 0.937715 1.28984e-38 3
-0.224581 0.281309 0.943364 1.54813e-38 3
-0.209339 0.281309 0.943364 1.3086e-38 3
-0.192934 0.279624 0.937715 1.48374e-38 3
-0.182146 0.286486 0.960726 1.48381e-38 3
-0.170815 0.293693 0.984896 1.77869e-38 3
-0.15788 0.299341 1.00384 1.59416e-38 3
-0.141661 0.299341 1.00384 1.59416e-38 3
-0.125441 0.299341 1.00384 1.52047e-38 3
-0.108526 0.297435 0.997442 1.58501e-38 3
-0.0912479 0.293693 0.984896 1.49299e-38 3
-0.0758114 0.295552 0.991129 1.39179e-38 3
-0.0647121 0.319844 1.07259 1.29974e-38 3
-0.0473818 0.319844 1.07259 1.35506e-38 3
-0.0300515 0.319844 1.07259 1.3641e-38 3
-0.0127212 0.319844 1.07259 1.32719e-38 3
0.00448619 0.311315 1.04399 1.49299e-38 3
0.0213544 0.311315 1.04399 1.47441e-38 3
0.0377196 0.307219 1.03025 1.54802e-38 3
0.0543658 0.307219 1.03025 1.88904e-38 3
0.0700898 0.303229 1.01687 1.94432e-38 3
0.0827581 0.290045 0.972661 1.74145e-38 3
0.0984738 0.290045 0.972661 1.79674e-38 3
0.120951 0.307219 1.03025 1.72298e-38 3
0.137597 0.307219 1.03025 1.6677e-38 3
0.137911 0.27469 0.921167 1.64015e-38 3
0.151902 0.273083 0.91578 1.52019e-38 3
0.167679 0.27469 0.921167 1.45576e-38 3
0.191578 0.288255 0.966657 1.29013e-38 3
0.207197 0.288255 0.966657 1.44704e-38 3
0.227019 0.293693 0.984896 1.54824e-38 3
0.247605 0.299341 1.00384 1.66788e-38 3
0.265526 0.301273 1.01031 1.62171e-38 3
0.336052 0.35921 1.2046 1.78755e-38 3
0.355515 0.35921 1.2046 1.7967e-38 3
0.374978 0.35921 1.2046 1.75993e-38 3
0.382667 0.348487 1.16864 1.76e-38 3
0.38434 0.333552 1.11856 1.6861e-38 3
0.380661 0.315522 1.0581 1.71369e-38 3
0.38226 0.303229 1.01687 1.62156e-38 3
0.38374 0.291858 0.97874 1.5387e-38 3
0.389808 0.284739 0.954868 1.51107e-38 3
0.388648 0.273083 0.91578 1.4743e-38 3
0.387579 0.262344 0.879766 1.50211e-38 3
0.401793 0.262344 0.879766 1.61299e-38 3
0.404642 0.255176 0.855729 1.31818e-38 3
0.450469 0.27469 0.921167 1.33676e-38 3
0.465352 0.27469 0.921167 1.35524e-38 3
0.532724 0.295552 0.991129 1.2262e-38 3
0.548738 0.295552 0.991129 1.1801e-38 3
0.550807 0.288255 0.966657 1.16167e-38 3
0.566426 0.288255 0.966657 1.18925e-38 3
0.58566 0.290045 0.972661 1.29052e-38 3
0.612794 0.295552 0.991129 1.20748e-38 3
0.60952 0.286486 0.960726 1.22599e-38 3
0.613747 0.281309 0.943364 1.13368e-38 3
0.621501 0.27796 0.932133 1.13365e-38 3
0.636562 0.27796 0.932133 1.22581e-38 3
-0.760931 0.270481 0.860431 7.19126e-39 3
-0.715575 0.259092 0.824202 7.28274e-39 3
-0.694943 0.256393 0.815617 6.36043e-39 3
-0.688941 0.259092 0.824202 7.00615e-39 3
-0.675624 0.259092 0.824202 7.65009e-39 3
-0.665811 0.260463 0.828563 8.66423e-39 3
-0.638902 0.255065 0.811391 1.12446e-38 3
-0.608533 0.264664 0.841927 1.06003e-38 3
-0.576338 0.256393 0.815617 1.11542e-38 3
-0.56316 0.256393 0.815617 1.08769e-38 3
-0.544312 0.25375 0.807208 1.05993e-38 3
-0.53127 0.25375 0.807208 9.4922e-39 3
-0.488731 0.266095 0.846478 1.2441e-38 3
-0.477636 0.267541 0.851078 1.06889e-38 3
-0.456442 0.263249 0.837425 1.47455e-38 3
-0.440556 0.261848 0.83297 1.1335e-38 3
-0.422601 0.259092 0.824202 1.07837e-38 3
-0.409284 0.259092 0.824202 1.05993e-38 3
-0.391843 0.256393 0.815617 1.07847e-38 3
-0.370937 0.251161 0.798972 1.13379e-38 3
-0.358027 0.251161 0.798972 1.16134e-38 3
-0.345118 0.251161 0.798972 1.21655e-38 3
-0.3427 0.259092 0.824202 1.43764e-38 3
-0.381602 0.300168 0.954868 1.50218e-38 3
-0.370694 0.303873 0.966657 1.48363e-38 3
-0.340368 0.291287 0.926618 1.61281e-38 3
-0.325397 0.291287 0.926618 1.34544e-38 3
-0.310425 0.291287 0.926618 1.57586e-38 3
-0.295453 0.291287 0.926618 1.30842e-38 3
-0.280481 0.291287 0.926618 1.2163e-38 3
-0.259371 0.284552 0.905193 1.43768e-38 3
-0.241948 0.2813 0.894848 1.38236e-38 3
-0.228797 0.282917 0.899991 1.60363e-38 3
-0.216747 0.286206 0.910456 1.54835e-38 3
-0.200868 0.284552 0.905193 1.4286e-38 3
-0.179 0.273486 0.869991 1.36406e-38 3
-0.169656 0.2813 0.894848 1.38243e-38 3
-0.161664 0.293021 0.932133 1.48367e-38 3
-0.145736 0.291287 0.926618 1.63096e-38 3
-0.129234 0.28788 0.91578 1.72312e-38 3
-0.120796 0.303873 0.966657 1.72305e-38 3
-0.10583 0.305761 0.972661 1.74167e-38 3
-0.0901144 0.305761 0.972661 1.52072e-38 3
-0.0743987 0.305761 0.972661 1.36428e-38 3
-0.0494658 0.257736 0.819887 1.28148e-38 3
-0.0362186 0.257736 0.819887 1.36435e-38 3
-0.0277691 0.311566 0.991129 1.46551e-38 3
-0.0120604 0.319659 1.01687 1.69579e-38 3
0.00436966 0.319659 1.01687 1.74174e-38 3
0.0202731 0.311566 0.991129 1.8245e-38 3
0.0358336 0.307672 0.97874 1.75975e-38 3
0.0516475 0.307672 0.97874 1.63986e-38 3
0.0674614 0.307672 0.97874 1.74135e-38 3
0.0807518 0.298348 0.949081 1.60305e-38 3
0.0927151 0.28788 0.91578 1.58465e-38 3
0.113485 0.303873 0.966657 1.5293e-38 3
0.129103 0.303873 0.966657 1.55703e-38 3
0.144722 0.303873 0.966657 1.58494e-38 3
0.162345 0.307672 0.97874 1.53866e-38 3
0.171719 0.296551 0.943364 1.67695e-38 3
0.186962 0.296551 0.943364 1.62178e-38 3
0.200993 0.294775 0.937715 1.61281e-38 3
0.218764 0.298348 0.949081 1.70476e-38 3
0.236971 0.302009 0.960726 1.75057e-38 3
0.257228 0.307672 0.97874 1.78744e-38 3
0.271346 0.305761 0.972661 1.75053e-38 3
0.320951 0.341858 1.08749 1.87964e-38 3
0.338522 0.341858 1.08749 1.74138e-38 3
0.34185 0.328183 1.04399 1.59405e-38 3
0.287741 0.263249 0.837425 1.78752e-38 3
0.296515 0.259092 0.824202 1.72291e-38 3
0.309832 0.259092 0.824202 1.56625e-38 3
0.326587 0.261848 0.83297 1.511e-38 3
0.380527 0.293021 0.932133 1.60327e-38 3
0.359237 0.266095 0.846478 1.52962e-38 3
0.359318 0.256393 0.815617 1.48374e-38 3
0.372496 0.256393 0.815617 1.32722e-38 3
0.379741 0.252449 0.803069 1.2168e-38 3
0.379107 0.2437 0.77524 1.1801e-38 3
0.384029 0.238968 0.760186 1.2539e-38 3
0.390623 0.235538 0.749275 1.30921e-38 3
0.393319 0.230035 0.731768 1.29074e-38 3
0.410903 0.233306 0.742173 1.25386e-38 3
0.479735 0.264664 0.841927 1.20776e-38 3
0.562951 0.302009 0.960726 1.11557e-38 3
0.582045 0.303873 0.966657 1.26301e-38 3
0.60894 0.309607 0.984896 1.29978e-38 3
0.602131 0.298348 0.949081 1.29056e-38 3
0.60644 0.293021 0.932133 1.10617e-38 3
0.610597 0.28788 0.91578 1.17989e-38 3
0.618164 0.284552 0.905193 1.21666e-38 3
0.604821 0.271975 0.865185 1.08755e-38 3
-0.829527 0.304457 0.921167 6.3615e-39 3
-0.760931 0.284383 0.860431 6.72956e-39 3
-0.723187 0.275307 0.83297 8.20505e-39 3
-0.705974 0.27385 0.828563 8.94118e-39 3
-0.692586 0.27385 0.828563 8.2951e-39 3
-0.679199 0.27385 0.828563 9.12486e-39 3
-0.642032 0.26407 0.798972 9.58511e-39 3
-0.622768 0.261403 0.790901 1.17971e-38 3
-0.600885 0.257501 0.779097 1.16123e-38 3
-0.591238 0.258789 0.782992 1.05985e-38 3
-0.587398 0.262729 0.794916 9.6773e-39 3
-0.565936 0.258789 0.782992 9.12521e-39 3
-0.545108 0.254964 0.771421 7.09691e-39 3
-0.557354 0.266792 0.807208 6.17387e-39 3
-0.538758 0.26407 0.798972 7.27986e-39 3
-0.497269 0.269571 0.815617 1.00454e-38 3
-0.51351 0.285954 0.865185 1.13357e-38 3
-0.496787 0.284383 0.860431 1.18882e-38 3
-0.48825 0.287543 0.869991 1.10566e-38 3
-0.456442 0.276779 0.837425 1.27165e-38 3
-0.431378 0.269571 0.815617 1.33623e-38 3
-0.393599 0.253714 0.767639 1.04138e-38 3
-0.381196 0.253714 0.767639 1.04159e-38 3
-0.366994 0.252477 0.763895 1.00479e-38 3
-0.354652 0.252477 0.763895 9.12521e-39 3
-0.342309 0.252477 0.763895 1.09677e-38 3
-0.333217 0.254964 0.771421 1.2073e-38 3
-0.323945 0.257501 0.779097 1.22566e-38 3
-0.329383 0.272409 0.824202 1.19797e-38 3
-0.345129 0.297458 0.899991 1.23488e-38 3
-0.34652 0.311793 0.943364 1.06904e-38 3
-0.317873 0.299178 0.905193 1.09673e-38 3
-0.303247 0.299178 0.905193 1.06904e-38 3
-0.285323 0.295758 0.894848 1.22577e-38 3
-0.270865 0.295758 0.894848 1.2812e-38 3
-0.247907 0.285954 0.865185 1.24439e-38 3
-0.230114 0.281292 0.851078 1.39183e-38 3
-0.216362 0.281292 0.851078 1.30885e-38 3
-0.202611 0.281292 0.851078 1.35495e-38 3
-0.190935 0.284383 0.860431 1.38261e-38 3
-0.177033 0.284383 0.860431 1.48395e-38 3
-0.157924 0.275307 0.83297 1.52991e-38 3
-0.141456 0.269571 0.815617 1.66806e-38 3
-0.128278 0.269571 0.815617 1.57561e-38 3
-0.115099 0.269571 0.815617 1.68617e-38 3
-0.0993344 0.262729 0.794916 1.56632e-38 3
-0.0856213 0.260089 0.786927 1.46512e-38 3
-0.0732749 0.261403 0.790901 1.32719e-38 3
-0.060803 0.262729 0.794916 1.33655e-38 3
-0.0479592 0.262729 0.794916 1.32744e-38 3
-0.0351155 0.262729 0.794916 1.29045e-38 3
-0.0220478 0.260089 0.786927 1.4008e-38 3
-0.00987924 0.275307 0.83297 1.85231e-38 3
0.0035794 0.275307 0.83297 1.72294e-38 3
0.0172212 0.278267 0.841927 1.70443e-38 3
0.0308246 0.278267 0.841927 1.76886e-38 3
0.0449109 0.281292 0.851078 1.65833e-38 3
0.0586621 0.281292 0.851078 1.71362e-38 3
0.0724133 0.281292 0.851078 1.60302e-38 3
0.0861645 0.281292 0.851078 1.73209e-38 3
0.0957526 0.269571 0.815617 1.82432e-38 3
0.112445 0.278267 0.841927 1.76908e-38 3
0.118409 0.261403 0.790901 1.53884e-38 3
0.145928 0.290774 0.879766 1.5571e-38 3
0.146935 0.266792 0.807208 1.7689e-38 3
0.155958 0.260089 0.786927 1.85195e-38 3
0.196292 0.302677 0.91578 1.73234e-38 3
0.216144 0.309926 0.937715 1.6677e-38 3
0.228558 0.306259 0.926618 1.66759e-38 3
0.247931 0.311793 0.943364 1.80588e-38 3
0.261597 0.309926 0.937715 1.77823e-38 3
0.244534 0.27385 0.828563 1.83354e-38 3
0.253892 0.269571 0.815617 1.74149e-38 3
0.262961 0.265424 0.803069 1.76e-38 3
0.274529 0.26407 0.798972 1.73216e-38 3
0.285979 0.262729 0.794916 1.75057e-38 3
0.300347 0.26407 0.798972 1.63075e-38 3
0.314863 0.265424 0.803069 1.75071e-38 3
0.327839 0.265424 0.803069 1.61249e-38 3
0.330641 0.257501 0.779097 1.5481e-38 3
0.343229 0.257501 0.779097 1.36396e-38 3
0.357596 0.258789 0.782992 1.30885e-38 3
0.372108 0.260089 0.786927 1.33677e-38 3
0.379107 0.256226 0.77524 1.2539e-38 3
0.387794 0.253714 0.767639 1.19858e-38 3
0.394397 0.250037 0.756514 1.15255e-38 3
0.40662 0.250037 0.756514 1.18014e-38 3
0.420877 0.251251 0.760186 1.18936e-38 3
0.431067 0.250037 0.756514 1.10635e-38 3
0.44329 0.250037 0.756514 1.18014e-38 3
0.49627 0.272409 0.824202 1.16163e-38 3
0.537897 0.287543 0.869991 1.26304e-38 3
0.598504 0.311793 0.943364 1.22609e-38 3
0.592337 0.300917 0.910456 1.24461e-38 3
0.607047 0.300917 0.910456 1.18003e-38 3
0.604194 0.292416 0.884737 1.17067e-38 3
0.601498 0.284383 0.860431 1.2351e-38 3
0.6154 0.284383 0.860431 1.27176e-38 3
-0.769386 0.3016 0.869991 7.19054e-39 3
-0.734915 0.293448 0.846478 6.82068e-39 3
-0.721238 0.293448 0.846478 7.46605e-39 3
-0.707561 0.293448 0.846478 8.57204e-39 3
-0.697655 0.295043 0.851078 9.58511e-39 3
-0.648651 0.279835 0.807208 9.49292e-39 3
-0.61654 0.27144 0.782992 7.64828e-39 3
-0.603889 0.27144 0.782992 8.29437e-39 3
-0.591238 0.27144 0.782992 7.09583e-39 3
-0.584431 0.274181 0.790901 5.71397e-39 3
-0.565936 0.27144 0.782992 6.17495e-39 3
-0.545108 0.267428 0.771421 8.57204e-39 3
-0.530033 0.266117 0.767639 8.10998e-39 3
-0.52018 0.267428 0.771421 9.4e-39 3
-0.505227 0.266117 0.767639 9.1227e-39 3
-0.512939 0.276979 0.798972 1.18871e-38 3
-0.53042 0.3016 0.869991 1.21644e-38 3
-0.51351 0.299933 0.865185 1.29953e-38 3
-0.502307 0.3016 0.869991 1.33637e-38 3
-0.505086 0.312 0.899991 1.41913e-38 3
-0.471573 0.299933 0.865185 1.30842e-38 3
-0.422574 0.276979 0.798972 1.13332e-38 3
-0.371733 0.251333 0.724993 9.95173e-39 3
-0.366812 0.256075 0.738672 9.95389e-39 3
-0.35997 0.259751 0.749275 1.03245e-38 3
-0.347864 0.259751 0.749275 1.04142e-38 3
-0.335758 0.259751 0.749275 1.02298e-38 3
-0.328365 0.263534 0.760186 8.84683e-39 3
-0.316082 0.263534 0.760186 9.76878e-39 3
-0.305281 0.264819 0.763895 1.06915e-38 3
-0.291517 0.263534 0.760186 1.17978e-38 3
-0.281972 0.266117 0.767639 1.15212e-38 3
-0.273592 0.270089 0.779097 1.07836e-38 3
-0.285118 0.295043 0.851078 1.1245e-38 3
-0.271367 0.295043 0.851078 1.18911e-38 3
-0.257616 0.295043 0.851078 1.23538e-38 3
-0.242547 0.293448 0.846478 1.26304e-38 3
-0.227639 0.291871 0.841927 1.3735e-38 3
-0.211759 0.288766 0.83297 1.33662e-38 3
-0.197251 0.287238 0.828563 1.41963e-38 3
-0.181938 0.28423 0.819887 1.5025e-38 3
-0.167812 0.28275 0.815617 1.44704e-38 3
-0.150709 0.275573 0.794916 1.40069e-38 3
-0.137169 0.274181 0.790901 1.51132e-38 3
-0.123147 0.27144 0.782992 1.5204e-38 3
-0.110495 0.27144 0.782992 1.59391e-38 3
-0.0968756 0.268752 0.77524 1.47416e-38 3
-0.0839342 0.267428 0.771421 1.4375e-38 3
-0.0714701 0.267428 0.771421 1.35474e-38 3
-0.0590059 0.267428 0.771421 1.32726e-38 3
-0.0465417 0.267428 0.771421 1.37335e-38 3
-0.0344167 0.270089 0.779097 1.40105e-38 3
-0.0215075 0.266117 0.767639 1.41005e-38 3
-0.0095737 0.279835 0.807208 1.59405e-38 3
0.00331492 0.267428 0.771421 1.96244e-38 3
0.0157791 0.267428 0.771421 1.77801e-38 3
0.0282432 0.267428 0.771421 1.68589e-38 3
0.0405079 0.266117 0.767639 1.66745e-38 3
0.0529109 0.266117 0.767639 1.71351e-38 3
0.065314 0.266117 0.767639 1.79648e-38 3
0.0780999 0.267428 0.771421 1.74127e-38 3
0.0901201 0.266117 0.767639 1.74131e-38 3
0.102523 0.266117 0.767639 1.71376e-38 3
0.114366 0.264819 0.763895 1.68617e-38 3
0.12923 0.270089 0.779097 1.75979e-38 3
0.141818 0.270089 0.779097 1.76883e-38 3
0.148496 0.259751 0.749275 1.85191e-38 3
0.157586 0.254873 0.735204 1.63075e-38 3
0.225885 0.317473 0.91578 1.72291e-38 3
0.270767 0.357157 1.03025 1.62142e-38 3
0.287413 0.357157 1.03025 1.79663e-38 3
0.30011 0.352519 1.01687 1.70458e-38 3
0.308527 0.343595 0.991129 1.72309e-38 3
0.260291 0.275573 0.794916 1.7139e-38 3
0.273135 0.275573 0.794916 1.81514e-38 3
0.281689 0.27144 0.782992 1.61231e-38 3
0.29434 0.27144 0.782992 1.70461e-38 3
0.305464 0.270089 0.779097 1.66781e-38 3
0.316478 0.268752 0.77524 1.46505e-38 3
0.321057 0.262261 0.756514 1.35466e-38 3
0.334898 0.263534 0.760186 1.318e-38 3
0.352311 0.267428 0.771421 1.17071e-38 3
0.370247 0.27144 0.782992 1.23542e-38 3
0.375391 0.266117 0.767639 1.15248e-38 3
0.387794 0.266117 0.767639 1.26319e-38 3
0.400197 0.266117 0.767639 1.29085e-38 3
0.4126 0.266117 0.767639 1.20787e-38 3
0.42293 0.264819 0.763895 1.28156e-38 3
0.428994 0.261 0.752877 1.1617e-38 3
0.439048 0.259751 0.749275 1.07873e-38 3
0.476218 0.274181 0.790901 1.06943e-38 3
0.49908 0.279835 0.807208 1.19836e-38 3
0.512122 0.279835 0.807208 1.20766e-38 3
0.522471 0.2784 0.803069 1.19851e-38 3
0.56439 0.293448 0.846478 1.17085e-38 3
0.578067 0.293448 0.846478 1.22613e-38 3
0.558534 0.276979 0.798972 1.20758e-38 3
0.538475 0.261 0.752877 1.30885e-38 3
-0.736646 0.302224 0.83297 8.29581e-39 3
-0.715575 0.299043 0.824202 8.20362e-39 3
-0.702258 0.299043 0.824202 8.20218e-39 3
-0.685334 0.297477 0.819887 8.29437e-39 3
-0.672087 0.297477 0.819887 8.01779e-39 3
-0.645325 0.291375 0.803069 8.84755e-39 3
-0.61654 0.284091 0.782992 6.72669e-39 3
-0.603889 0.284091 0.782992 5.62142e-39 3
-0.591238 0.284091 0.782992 7.37349e-39 3
-0.581495 0.285518 0.786927 7.46569e-39 3
-0.560333 0.281278 0.77524 8.47912e-39 3
-0.542436 0.27852 0.767639 9.12413e-39 3
-0.530033 0.27852 0.767639 8.84719e-39 3
-0.52018 0.279892 0.771421 1.04138e-38 3
-0.505227 0.27852 0.767639 1.1335e-38 3
-0.500179 0.282677 0.779097 1.22559e-38 3
-0.524095 0.30384 0.837425 1.22563e-38 3
-0.53042 0.315656 0.869991 1.28098e-38 3
-0.510689 0.312188 0.860431 1.198e-38 3
-0.499531 0.313913 0.865185 1.19797e-38 3
-0.448393 0.289889 0.798972 1.30849e-38 3
-0.389748 0.259444 0.715061 1.38218e-38 3
-0.378194 0.259444 0.715061 1.27162e-38 3
-0.364974 0.258264 0.711811 1.07815e-38 3
-0.356716 0.260634 0.718341 1.04145e-38 3
-0.3467 0.261835 0.721652 9.67802e-39 3
-0.33504 0.261835 0.721652 1.11517e-38 3
-0.327913 0.265505 0.731768 1.09673e-38 3
-0.320584 0.26928 0.742173 1.12439e-38 3
-0.313043 0.273164 0.752877 1.05071e-38 3
-0.3038 0.275816 0.760186 1.11532e-38 3
-0.291517 0.275816 0.760186 1.06933e-38 3
-0.279234 0.275816 0.760186 1.05089e-38 3
-0.270897 0.279892 0.771421 1.01401e-38 3
-0.258433 0.279892 0.771421 1.18918e-38 3
-0.247186 0.281278 0.77524 1.23535e-38 3
-0.241844 0.289889 0.798972 1.18932e-38 3
-0.233704 0.295928 0.815617 1.16163e-38 3
-0.222847 0.299043 0.824202 1.12471e-38 3
-0.208433 0.297477 0.819887 1.3735e-38 3
-0.192167 0.292877 0.807208 1.37353e-38 3
-0.177297 0.289889 0.798972 1.33651e-38 3
-0.164388 0.289889 0.798972 1.45615e-38 3
-0.148449 0.284091 0.782992 1.42835e-38 3
-0.134453 0.281278 0.77524 1.48367e-38 3
-0.121927 0.281278 0.77524 1.64026e-38 3
-0.109401 0.281278 0.77524 1.71376e-38 3
-0.0968756 0.281278 0.77524 1.6032e-38 3
-0.0839342 0.279892 0.771421 1.62171e-38 3
-0.0714701 0.279892 0.771421 1.62189e-38 3
-0.0573119 0.271857 0.749275 1.60348e-38 3
-0.0447771 0.26928 0.742173 1.50214e-38 3
-0.0323259 0.265505 0.731768 1.47448e-38 3
-0.0205024 0.265505 0.731768 1.51129e-38 3
-0.00892931 0.273164 0.752877 1.62164e-38 3
0.00328257 0.277162 0.763895 1.58447e-38 3
0.0157017 0.27852 0.767639 1.95325e-38 3
0.0282432 0.279892 0.771421 1.79656e-38 3
0.0407074 0.279892 0.771421 1.84269e-38 3
0.0529109 0.27852 0.767639 1.72266e-38 3
0.065314 0.27852 0.767639 1.76883e-38 3
0.0773379 0.277162 0.763895 1.70429e-38 3
0.088387 0.273164 0.752877 1.69518e-38 3
0.10007 0.271857 0.749275 1.63993e-38 3
0.109556 0.265505 0.731768 1.68603e-38 3
0.121949 0.266752 0.735204 1.72284e-38 3
0.138376 0.275816 0.760186 1.77797e-38 3
0.143021 0.261835 0.721652 1.75035e-38 3
0.152572 0.258264 0.711811 1.76893e-38 3
0.159717 0.251408 0.692913 1.76901e-38 3
0.292513 0.359609 0.991129 1.54784e-38 3
0.262082 0.305474 0.841927 1.52948e-38 3
0.26162 0.289889 0.798972 1.58494e-38 3
0.274529 0.289889 0.798972 1.59423e-38 3
0.281689 0.284091 0.782992 1.67713e-38 3
0.29434 0.284091 0.782992 1.6588e-38 3
0.305464 0.282677 0.779097 1.63111e-38 3
0.308834 0.274484 0.756514 1.4836e-38 3
0.312013 0.266752 0.735204 1.35474e-38 3
0.323892 0.266752 0.735204 1.30885e-38 3
0.335771 0.266752 0.735204 1.21691e-38 3
0.356007 0.273164 0.752877 1.18925e-38 3
0.36995 0.274484 0.756514 1.18932e-38 3
0.384029 0.275816 0.760186 1.21702e-38 3
0.400197 0.27852 0.767639 1.27241e-38 3
0.414632 0.279892 0.771421 1.32769e-38 3
0.425003 0.27852 0.767639 1.26312e-38 3
0.433159 0.275816 0.760186 1.29996e-38 3
0.445442 0.275816 0.760186 1.36453e-38 3
0.457725 0.275816 0.760186 1.24461e-38 3
0.467737 0.274484 0.756514 1.09706e-38 3
0.47996 0.274484 0.756514 1.18003e-38 3
0.458928 0.255938 0.705398 1.08795e-38 3
0.470325 0.255938 0.705398 1.03263e-38 3
0.451234 0.239739 0.660753 9.86458e-39 3
0.454243 0.23576 0.649786 1.10628e-38 3
0.478645 0.242813 0.669224 1.33662e-38 3
-0.698581 0.310725 0.819887 8.01779e-39 3
-0.667851 0.302798 0.798972 8.01707e-39 3
-0.6583 0.304351 0.803069 8.20218e-39 3
-0.642032 0.302798 0.798972 7.28022e-39 3
-0.619639 0.298233 0.786927 7.83339e-39 3
-0.592048 0.290923 0.767639 8.29545e-39 3
-0.591238 0.296742 0.782992 8.57204e-39 3
-0.590395 0.302798 0.798972 7.649e-39 3
-0.565936 0.296742 0.782992 8.75535e-39 3
-0.524441 0.281272 0.742173 8.84683e-39 3
-0.540634 0.296742 0.782992 9.49148e-39 3
-0.533316 0.299739 0.790901 1.21644e-38 3
-0.520537 0.299739 0.790901 1.15183e-38 3
-0.507758 0.299739 0.790901 1.05035e-38 3
-0.494979 0.299739 0.790901 1.19793e-38 3
-0.4822 0.299739 0.790901 1.17953e-38 3
-0.464727 0.296742 0.782992 1.11503e-38 3
-0.4476 0.293804 0.77524 1.14265e-38 3
-0.38546 0.2603 0.686835 1.31764e-38 3
-0.382757 0.266136 0.702235 1.28069e-38 3
-0.374771 0.268545 0.70859 1.33608e-38 3
-0.363322 0.268545 0.70859 1.22563e-38 3
-0.353473 0.269765 0.711811 1.33641e-38 3
-0.345109 0.27224 0.718341 1.32719e-38 3
-0.33504 0.273495 0.721652 1.29031e-38 3
-0.327913 0.277329 0.731768 1.08748e-38 3
-0.320584 0.281272 0.742173 9.67659e-39 3
-0.313043 0.285329 0.752877 1.11535e-38 3
-0.3038 0.288099 0.760186 1.12464e-38 3
-0.291517 0.288099 0.760186 1.04167e-38 3
-0.279234 0.288099 0.760186 9.6791e-39 3
-0.269569 0.290923 0.767639 1.16152e-38 3
-0.258433 0.292357 0.771421 1.02323e-38 3
-0.247186 0.293804 0.77524 1.08791e-38 3
-0.238198 0.298233 0.786927 1.18003e-38 3
-0.227772 0.301261 0.794916 1.1984e-38 3
-0.217133 0.304351 0.803069 1.1155e-38 3
-0.202085 0.301261 0.794916 1.23521e-38 3
-0.188285 0.299739 0.790901 1.37339e-38 3
-0.173751 0.296742 0.782992 1.36414e-38 3
-0.1611 0.296742 0.782992 1.47459e-38 3
-0.15304 0.30592 0.807208 1.35456e-38 3
-0.139998 0.30592 0.807208 1.60348e-38 3
-0.120732 0.290923 0.767639 1.40977e-38 3
-0.108329 0.290923 0.767639 1.73224e-38 3
-0.0959258 0.290923 0.767639 1.88893e-38 3
-0.0839342 0.292357 0.771421 1.69539e-38 3
-0.0711197 0.290923 0.767639 1.7416e-38 3
-0.0562357 0.278631 0.735204 1.73231e-38 3
-0.043539 0.273495 0.721652 1.64933e-38 3
-0.0320266 0.274761 0.724993 1.48338e-38 3
-0.0203126 0.274761 0.724993 1.54788e-38 3
-0.00880236 0.281272 0.742173 1.52933e-38 3
0.00323523 0.285329 0.752877 1.84269e-38 3
0.0155493 0.288099 0.760186 1.74128e-38 3
0.0281048 0.290923 0.767639 1.55696e-38 3
0.0407074 0.292357 0.771421 1.63071e-38 3
0.0529109 0.290923 0.767639 1.7044e-38 3
0.0649954 0.289504 0.763895 1.79659e-38 3
0.0754966 0.282611 0.745707 1.60302e-38 3
0.0843326 0.27224 0.718341 1.63068e-38 3
0.0959391 0.27224 0.718341 1.58454e-38 3
0.103282 0.261447 0.689861 1.66759e-38 3
0.113429 0.259163 0.683836 1.67681e-38 3
0.125574 0.261447 0.689861 1.67667e-38 3
0.137326 0.262603 0.692913 1.65823e-38 3
0.148521 0.262603 0.692913 1.80585e-38 3
0.156939 0.258036 0.680863 1.63993e-38 3
0.165778 0.254714 0.672096 1.59376e-38 3
0.175134 0.252546 0.666376 1.68592e-38 3
0.185901 0.252546 0.666376 1.5477e-38 3
0.192571 0.247285 0.652493 1.56628e-38 3
0.201435 0.245241 0.647101 1.52026e-38 3
0.21189 0.245241 0.647101 1.49281e-38 3
0.246824 0.27224 0.718341 1.41002e-38 3
0.269559 0.283964 0.749275 1.41013e-38 3
0.289991 0.292357 0.771421 1.31793e-38 3
0.295184 0.285329 0.752877 1.41013e-38 3
0.300134 0.278631 0.735204 1.29031e-38 3
0.310555 0.277329 0.731768 1.43778e-38 3
0.320879 0.276039 0.728365 1.25365e-38 3
0.32807 0.27224 0.718341 1.12461e-38 3
0.342822 0.274761 0.724993 1.28145e-38 3
0.364665 0.282611 0.745707 1.26308e-38 3
0.378516 0.283964 0.749275 1.19858e-38 3
0.398245 0.289504 0.763895 1.22624e-38 3
0.4126 0.290923 0.767639 1.32762e-38 3
0.42293 0.289504 0.763895 1.22617e-38 3
0.431067 0.286707 0.756514 1.20773e-38 3
0.439048 0.283964 0.749275 1.14326e-38 3
0.44477 0.279945 0.738672 1.3368e-38 3
0.440098 0.269765 0.711811 1.39212e-38 3
0.44753 0.267335 0.705398 1.15248e-38 3
0.417549 0.243231 0.641797 1.2539e-38 3
0.427919 0.243231 0.641797 1.14323e-38 3
0.436499 0.242238 0.639177 1.06029e-38 3
0.445011 0.241254 0.636579 1.10638e-38 3
-0.589634 0.278732 0.705398 7.09511e-39 3
-0.578237 0.278732 0.705398 8.75463e-39 3
-0.556807 0.273799 0.692913 9.30852e-39 3
-0.518101 0.259994 0.657977 9.21705e-39 3
-0.505347 0.258906 0.655223 7.92703e-39 3
-0.527891 0.276244 0.6991 7.83519e-39 3
-0.516596 0.276244 0.6991 8.57096e-39 3
-0.477583 0.261091 0.660753 6.81852e-39 3
-0.468885 0.262197 0.663553 1.16116e-38 3
-0.502915 0.287807 0.728365 1.20726e-38 3
-0.48662 0.285155 0.721652 9.67443e-39 3
-0.472781 0.283847 0.718341 1.01347e-38 3
-0.50268 0.309393 0.782992 1.29928e-38 3
-0.441468 0.278732 0.705398 1.373e-38 3
-0.418753 0.271397 0.686835 1.21641e-38 3
-0.405875 0.270212 0.683836 1.19797e-38 3
-0.394826 0.270212 0.683836 1.22555e-38 3
-0.38546 0.271397 0.686835 1.4375e-38 3
-0.379354 0.275016 0.695993 1.28991e-38 3
-0.369752 0.276244 0.6991 1.25311e-38 3
-0.361686 0.278732 0.705398 1.2625e-38 3
-0.350288 0.278732 0.705398 1.32708e-38 3
-0.341972 0.281266 0.711811 1.31786e-38 3
-0.33198 0.282551 0.715061 1.29942e-38 3
-0.320426 0.282551 0.715061 1.21655e-38 3
-0.313163 0.286475 0.724993 1.12439e-38 3
-0.298683 0.283847 0.718341 1.15223e-38 3
-0.292443 0.289152 0.731768 9.95605e-39 3
-0.285964 0.29466 0.745707 1.12464e-38 3
-0.271331 0.29188 0.738672 1.00479e-38 3
-0.259396 0.29188 0.738672 1.04167e-38 3
-0.248634 0.293264 0.742173 9.58691e-39 3
-0.240056 0.297493 0.752877 1.21687e-38 3
-0.233504 0.304821 0.771421 1.1523e-38 3
-0.223239 0.307854 0.779097 1.1429e-38 3
-0.213843 0.312518 0.790901 1.06011e-38 3
-0.200054 0.310948 0.786927 1.17056e-38 3
-0.180973 0.300382 0.760186 1.35492e-38 3
-0.167875 0.29893 0.756514 1.35488e-38 3
-0.156408 0.300382 0.760186 1.51143e-38 3
-0.144125 0.300382 0.760186 1.43757e-38 3
-0.133135 0.303327 0.767639 1.41909e-38 3
-0.120732 0.303327 0.767639 1.49271e-38 3
-0.108329 0.303327 0.767639 1.64926e-38 3
-0.0959258 0.303327 0.767639 1.64e-38 3
-0.0835228 0.303327 0.767639 1.73227e-38 3
-0.069752 0.297493 0.752877 1.6493e-38 3
-0.0557125 0.287807 0.728365 1.65844e-38 3
-0.0433393 0.283847 0.718341 1.68606e-38 3
-0.031879 0.285155 0.721652 1.66759e-38 3
-0.020219 0.285155 0.721652 1.82432e-38 3
-0.0085986 0.286475 0.724993 1.73216e-38 3
0.00315929 0.29051 0.735204 1.5016e-38 3
0.0151808 0.293264 0.742173 1.75979e-38 3
0.0278319 0.300382 0.760186 1.53855e-38 3
0.0405079 0.303327 0.767639 1.62153e-38 3
0.0521441 0.29893 0.756514 1.69529e-38 3
0.0631472 0.293264 0.742173 1.44636e-38 3
0.0695363 0.271397 0.686835 1.35427e-38 3
0.0782319 0.263313 0.666376 1.57554e-38 3
0.0893792 0.264439 0.669224 1.54777e-38 3
0.100192 0.264439 0.669224 1.56628e-38 3
0.111005 0.264439 0.669224 1.61234e-38 3
0.121818 0.264439 0.669224 1.65833e-38 3
0.133774 0.266718 0.674993 1.63075e-38 3
0.145307 0.267873 0.677915 1.60312e-38 3
0.155587 0.266718 0.674993 1.58469e-38 3
0.165778 0.265573 0.672096 1.52008e-38 3
0.172927 0.259994 0.657977 1.6399e-38 3
0.185113 0.262197 0.663553 1.68599e-38 3
0.191772 0.256758 0.649786 1.87049e-38 3
0.198159 0.251539 0.636579 1.86138e-38 3
0.206764 0.249511 0.631445 1.73252e-38 3
0.233946 0.269037 0.680863 1.53909e-38 3
0.251508 0.276244 0.6991 1.44704e-38 3
0.267582 0.281266 0.711811 1.35488e-38 3
0.279083 0.281266 0.711811 1.29034e-38 3
0.300134 0.29051 0.735204 1.18893e-38 3
0.310555 0.289152 0.731768 1.29034e-38 3
0.320879 0.287807 0.728365 1.26279e-38 3
0.32807 0.283847 0.718341 1.309e-38 3
0.342822 0.286475 0.724993 1.21691e-38 3
0.364665 0.29466 0.745707 1.19854e-38 3
0.378516 0.29607 0.749275 1.28152e-38 3
0.398245 0.301847 0.763895 1.26308e-38 3
0.410587 0.301847 0.763895 1.25379e-38 3
0.397709 0.283847 0.718341 1.19851e-38 3
0.426942 0.29607 0.749275 1.27216e-38 3
0.434886 0.293264 0.742173 1.18007e-38 3
0.424735 0.278732 0.705398 1.22617e-38 3
0.432239 0.276244 0.6991 1.18003e-38 3
0.397407 0.247514 0.626394 1.1894e-38 3
0.407528 0.247514 0.626394 1.23546e-38 3
0.42444 0.251539 0.636579 1.15259e-38 3
0.432965 0.250521 0.634002 1.0143e-38 3
0.441422 0.249511 0.631445 1.15259e-38 3
-0.545412 0.26837 0.652493 9.8617e-39 3
-0.534869 0.26837 0.652493 7.83339e-39 3
-0.524326 0.26837 0.652493 8.10998e-39 3
-0.513784 0.26837 0.652493 8.47876e-39 3
-0.492971 0.262893 0.639177 8.75643e-39 3
-0.4564 0.259713 0.631445 9.21525e-39 3
-0.448004 0.260765 0.634002 1.51154e-38 3
-0.500587 0.298189 0.724993 1.13347e-38 3
-0.465183 0.283739 0.689861 1.17949e-38 3
-0.454037 0.283739 0.689861 1.23474e-38 3
-0.439022 0.281261 0.683836 1.25325e-38 3
-0.426112 0.280038 0.680863 1.19793e-38 3
-0.415111 0.280038 0.680863 1.27172e-38 3
-0.40411 0.280038 0.680863 1.36381e-38 3
-0.394826 0.281261 0.683836 1.22545e-38 3
-0.38546 0.282495 0.686835 1.27154e-38 3
-0.376012 0.283739 0.689861 1.19782e-38 3
-0.36648 0.284995 0.692913 1.24396e-38 3
-0.358457 0.287539 0.6991 1.2441e-38 3
-0.348718 0.288829 0.702235 1.25332e-38 3
-0.340425 0.291443 0.70859 1.19808e-38 3
-0.328976 0.291443 0.70859 1.17045e-38 3
-0.317527 0.291443 0.70859 1.0968e-38 3
-0.31172 0.296815 0.721652 1.0968e-38 3
-0.275902 0.272919 0.663553 1.13379e-38 3
-0.265181 0.272919 0.663553 9.95497e-39 3
-0.25446 0.272919 0.663553 1.06933e-38 3
-0.268796 0.300976 0.731768 1.06933e-38 3
-0.258179 0.302389 0.735204 9.5869e-39 3
-0.224196 0.275251 0.669224 1.09698e-38 3
-0.242386 0.312664 0.760186 1.14308e-38 3
-0.231226 0.314189 0.763895 1.22599e-38 3
-0.218884 0.314189 0.763895 1.13368e-38 3
-0.192459 0.292767 0.711811 1.07847e-38 3
-0.180958 0.292767 0.711811 1.19833e-38 3
-0.171011 0.295453 0.718341 1.28123e-38 3
-0.155135 0.287539 0.6991 1.2996e-38 3
-0.143839 0.287539 0.6991 1.40094e-38 3
-0.132544 0.287539 0.6991 1.63132e-38 3
-0.12234 0.29013 0.705398 1.69575e-38 3
-0.110943 0.29013 0.705398 1.65866e-38 3
-0.10045 0.292767 0.711811 1.75071e-38 3
-0.0897655 0.295453 0.718341 1.69529e-38 3
-0.0781589 0.295453 0.718341 1.65852e-38 3
-0.0653533 0.29013 0.705398 1.70461e-38 3
-0.0534741 0.287539 0.6991 1.65848e-38 3
-0.0353857 0.241232 0.586511 1.66766e-38 3
-0.0308828 0.287539 0.6991 1.74142e-38 3
-0.0197636 0.29013 0.705398 1.7783e-38 3
-0.00844226 0.292767 0.711811 1.69529e-38 3
0.00295144 0.282495 0.686835 1.79681e-38 3
0.0141732 0.284995 0.692913 1.90744e-38 3
0.0253689 0.284995 0.692913 1.40966e-38 3
0.0401146 0.312664 0.760186 1.48342e-38 3
0.0473414 0.282495 0.686835 1.28051e-38 3
0.0579307 0.280038 0.680863 1.31754e-38 3
0.0666146 0.270625 0.657977 1.44668e-38 3
0.0772458 0.270625 0.657977 1.44661e-38 3
0.0882478 0.271767 0.660753 1.50185e-38 3
0.0989239 0.271767 0.660753 1.56625e-38 3
0.110064 0.272919 0.663553 1.54774e-38 3
0.1213 0.27408 0.666376 1.64922e-38 3
0.132631 0.275251 0.669224 1.51093e-38 3
0.144059 0.276433 0.672096 1.54777e-38 3
0.154257 0.275251 0.669224 1.47398e-38 3
0.162295 0.270625 0.657977 1.31728e-38 3
0.166626 0.260765 0.634002 1.44639e-38 3
0.193441 0.255591 0.621422 1.66777e-38 3
0.202678 0.25458 0.618966 1.58497e-38 3
0.227999 0.272919 0.663553 1.4653e-38 3
0.24076 0.275251 0.669224 1.47466e-38 3
0.255948 0.280038 0.680863 1.41927e-38 3
0.266949 0.280038 0.680863 1.29953e-38 3
0.27795 0.280038 0.680863 1.30878e-38 3
0.264776 0.256609 0.623898 1.29031e-38 3
0.273766 0.255591 0.621422 1.29042e-38 3
0.283806 0.255591 0.621422 1.31818e-38 3
0.293847 0.255591 0.621422 1.23524e-38 3
0.300312 0.252584 0.614111 1.24453e-38 3
0.378516 0.308176 0.749275 1.30911e-38 3
0.398245 0.314189 0.763895 1.28152e-38 3
0.37576 0.287539 0.6991 1.3829e-38 3
0.387056 0.287539 0.6991 1.31829e-38 3
0.398352 0.287539 0.6991 1.35506e-38 3
0.406022 0.284995 0.692913 1.34588e-38 3
0.417218 0.284995 0.692913 1.3552e-38 3
0.388841 0.25867 0.628909 1.25383e-38 3
0.397407 0.257635 0.626394 1.2539e-38 3
0.407528 0.257635 0.626394 1.15259e-38 3
0.422721 0.260765 0.634002 1.22635e-38 3
0.429487 0.25867 0.628909 1.1156e-38 3
0.439649 0.25867 0.628909 1.22624e-38 3
-0.509467 0.271008 0.634002 7.00363e-39 3
-0.499223 0.271008 0.634002 6.91144e-39 3
-0.487008 0.269916 0.631445 8.10998e-39 3
-0.467382 0.264581 0.618966 8.84718e-39 3
-0.459196 0.265631 0.621422 1.0045e-38 3
-0.452749 0.267756 0.626394 1.37325e-38 3
-0.444405 0.268832 0.628909 1.31797e-38 3
-0.432507 0.267756 0.626394 1.15187e-38 3
-0.427516 0.271008 0.634002 1.46537e-38 3
-0.440454 0.286064 0.669224 1.61285e-38 3
-0.433345 0.28853 0.674993 1.41927e-38 3
-0.422439 0.28853 0.674993 1.17034e-38 3
-0.415111 0.291039 0.680863 1.20719e-38 3
-0.405875 0.29231 0.683836 1.15187e-38 3
-0.394826 0.29231 0.683836 1.38225e-38 3
-0.383777 0.29231 0.683836 1.52987e-38 3
-0.371107 0.291039 0.680863 1.43771e-38 3
-0.360106 0.291039 0.680863 1.31789e-38 3
-0.35063 0.29231 0.683836 1.24421e-38 3
-0.339581 0.29231 0.683836 1.2074e-38 3
-0.329973 0.293592 0.686835 1.07833e-38 3
-0.318875 0.293592 0.686835 9.58511e-39 3
-0.254298 0.251651 0.588716 1.09691e-38 3
-0.242959 0.249773 0.584322 1.07854e-38 3
-0.235273 0.251651 0.588716 1.04167e-38 3
-0.224696 0.261481 0.611713 1.02323e-38 3
-0.249658 0.334695 0.782992 1.03245e-38 3
-0.237007 0.334695 0.782992 1.11539e-38 3
-0.19341 0.28853 0.674993 1.17067e-38 3
-0.182504 0.28853 0.674993 1.09706e-38 3
-0.152789 0.27434 0.641797 1.16148e-38 3
-0.144192 0.277755 0.649786 1.11532e-38 3
-0.11643 0.262506 0.614111 1.15209e-38 3
-0.106508 0.262506 0.614111 1.41931e-38 3
-0.0755555 0.258452 0.604627 1.71383e-38 3
-0.065033 0.255493 0.597704 1.58483e-38 3
-0.0549561 0.253557 0.593176 1.93521e-38 3
-0.0452007 0.2526 0.590937 1.4281e-38 3
-0.0353857 0.250708 0.586511 1.40966e-38 3
-0.0258125 0.249773 0.584322 1.46498e-38 3
-0.0163714 0.249773 0.584322 1.61245e-38 3
-0.00695617 0.250708 0.586511 1.62167e-38 3
0.00252033 0.250708 0.586511 1.56639e-38 3
0.0119076 0.248844 0.58215 2.02744e-38 3
0.0213932 0.249773 0.584322 2.0367e-38 3
0.0310662 0.251651 0.588716 1.90762e-38 3
0.0407314 0.2526 0.590937 1.62182e-38 3
0.0506618 0.254521 0.595431 1.5481e-38 3
0.0639285 0.269916 0.631445 1.75111e-38 3
0.0756564 0.275469 0.644438 1.87092e-38 3
0.0860688 0.275469 0.644438 1.51129e-38 3
0.09688 0.276608 0.647101 1.40973e-38 3
0.10823 0.278913 0.652493 1.52948e-38 3
0.119269 0.28008 0.655223 1.54792e-38 3
0.130952 0.282443 0.660753 1.4465e-38 3
0.141628 0.282443 0.660753 1.32665e-38 3
0.15103 0.28008 0.655223 1.75071e-38 3
0.160768 0.261481 0.611713 1.61245e-38 3
0.166743 0.255493 0.597704 1.49253e-38 3
0.176401 0.255493 0.597704 1.59398e-38 3
0.187489 0.257458 0.602302 1.43743e-38 3
0.197221 0.257458 0.602302 1.42831e-38 3
0.207752 0.258452 0.604627 1.52973e-38 3
0.247574 0.269916 0.631445 1.49303e-38 3
0.259605 0.261481 0.611713 1.32722e-38 3
0.269488 0.261481 0.611713 1.318e-38 3
0.278285 0.260463 0.609332 1.26276e-38 3
0.28813 0.260463 0.609332 1.20755e-38 3
0.295674 0.258452 0.604627 1.29974e-38 3
0.306628 0.259454 0.606971 1.32747e-38 3
0.318907 0.261481 0.611713 1.21691e-38 3
0.33008 0.262506 0.614111 1.33676e-38 3
0.361252 0.278913 0.652493 1.27223e-38 3
0.383597 0.258452 0.604627 1.0788e-38 3
0.40111 0.26354 0.616529 1.18025e-38 3
0.415985 0.26669 0.623898 1.09727e-38 3
0.416118 0.260463 0.609332 1.12486e-38 3
0.425963 0.260463 0.609332 1.18014e-38 3
-0.511222 0.266166 0.599994 9.67839e-39 3
-0.48441 0.262148 0.590937 9.58511e-39 3
-0.473076 0.261163 0.588716 8.38657e-39 3
-0.472445 0.266166 0.599994 8.38621e-39 3
-0.471789 0.271364 0.611713 7.5568e-39 3
-0.453056 0.266166 0.599994 9.49255e-39 3
-0.453794 0.272429 0.614111 1.21655e-38 3
-0.449156 0.275672 0.621422 1.36396e-38 3
-0.442628 0.277877 0.626394 1.03202e-38 3
-0.429074 0.275672 0.621422 1.14269e-38 3
-0.424082 0.278993 0.628909 1.06893e-38 3
-0.424141 0.285882 0.644438 1.34562e-38 3
-0.426112 0.30204 0.680863 1.07815e-38 3
-0.415111 0.30204 0.680863 1.10581e-38 3
-0.315069 0.235489 0.530842 1.3363e-38 3
-0.271282 0.259214 0.584322 9.12593e-39 3
-0.261841 0.259214 0.584322 9.86313e-39 3
-0.249606 0.256344 0.577854 1.04167e-38 3
-0.238509 0.254466 0.573621 1.07854e-38 3
-0.230083 0.255402 0.575729 1.06943e-38 3
-0.223243 0.25825 0.58215 1.1155e-38 3
-0.213045 0.257294 0.579994 1.08787e-38 3
-0.202177 0.255402 0.575729 1.20773e-38 3
-0.198719 0.263141 0.593176 1.13397e-38 3
-0.189854 0.264142 0.595431 1.13386e-38 3
-0.135074 0.2517 0.567386 9.58798e-39 3
-0.122509 0.264142 0.595431 1.17067e-38 3
-0.112889 0.264142 0.595431 1.27208e-38 3
-0.103662 0.26515 0.597704 1.2719e-38 3
-0.0943652 0.266166 0.599994 1.38222e-38 3
-0.0846709 0.266166 0.599994 1.62171e-38 3
-0.0749765 0.266166 0.599994 1.5387e-38 3
-0.065033 0.26515 0.597704 1.34519e-38 3
-0.0551651 0.264142 0.595431 1.49278e-38 3
-0.0452007 0.262148 0.590937 1.48341e-38 3
-0.0353857 0.260185 0.586511 1.4281e-38 3
-0.0256213 0.257294 0.579994 1.51107e-38 3
-0.0162501 0.257294 0.579994 1.64937e-38 3
-0.00687888 0.257294 0.579994 1.32668e-38 3
0.00250159 0.25825 0.58215 1.44675e-38 3
0.0118635 0.257294 0.579994 1.41906e-38 3
0.0213932 0.259214 0.584322 1.50203e-38 3
0.0310662 0.261163 0.588716 1.75089e-38 3
0.0407314 0.262148 0.590937 1.82457e-38 3
0.0502794 0.262148 0.590937 1.73256e-38 3
0.0626651 0.274582 0.618966 1.45611e-38 3
0.0744312 0.281252 0.634002 1.52072e-38 3
0.084675 0.281252 0.634002 1.30867e-38 3
0.0956937 0.283548 0.639177 1.51132e-38 3
0.106456 0.28471 0.641797 1.67706e-38 3
0.11828 0.288254 0.649786 1.76922e-38 3
0.127719 0.285882 0.644438 1.63096e-38 3
0.138131 0.285882 0.644438 1.62174e-38 3
0.148563 0.26719 0.602302 1.4465e-38 3
0.164236 0.261163 0.588716 1.59405e-38 3
0.173748 0.261163 0.588716 1.8061e-38 3
0.183952 0.262148 0.590937 1.63111e-38 3
0.1935 0.262148 0.590937 1.36392e-38 3
0.202284 0.261163 0.588716 1.46519e-38 3
0.211797 0.261163 0.588716 1.52969e-38 3
0.223833 0.264142 0.595431 1.49289e-38 3
0.233454 0.264142 0.595431 1.4008e-38 3
0.244937 0.266166 0.599994 1.43771e-38 3
0.253659 0.26515 0.597704 1.27187e-38 3
0.263317 0.26515 0.597704 1.25343e-38 3
0.271936 0.264142 0.595431 1.19815e-38 3
0.281557 0.264142 0.595431 1.25354e-38 3
0.291177 0.264142 0.595431 1.30885e-38 3
0.304627 0.259214 0.584322 1.25372e-38 3
0.314068 0.259214 0.584322 1.18925e-38 3
0.324721 0.260185 0.586511 1.16159e-38 3
0.331713 0.25825 0.58215 1.1155e-38 3
0.343674 0.260185 0.586511 1.13401e-38 3
0.349227 0.257294 0.579994 1.11557e-38 3
0.358598 0.257294 0.579994 1.09716e-38 3
0.367969 0.257294 0.579994 1.08805e-38 3
0.380156 0.259214 0.584322 1.03274e-38 3
0.394008 0.262148 0.590937 1.0143e-38 3
-0.503506 0.271696 0.590937 9.2174e-39 3
-0.488428 0.268655 0.584322 8.01886e-39 3
-0.478987 0.268655 0.584322 7.83447e-39 3
-0.4678 0.267656 0.58215 7.1891e-39 3
-0.458394 0.267656 0.58215 7.37313e-39 3
-0.457492 0.272725 0.593176 8.93902e-39 3
-0.446218 0.271696 0.590937 1.14279e-38 3
-0.445067 0.276921 0.602302 1.16113e-38 3
-0.449156 0.285712 0.621422 1.15194e-38 3
-0.442628 0.287998 0.626394 1.07811e-38 3
-0.434244 0.289155 0.628909 1.05049e-38 3
-0.429254 0.292681 0.636579 1.05971e-38 3
-0.429443 0.299998 0.652493 1.14279e-38 3
-0.415438 0.297519 0.647101 1.11521e-38 3
-0.420626 0.309011 0.672096 9.4e-39 3
-0.306492 0.244066 0.530842 9.49219e-39 3
-0.296909 0.243242 0.529049 1.01379e-38 3
-0.294561 0.272725 0.593176 8.66603e-39 3
-0.282834 0.270675 0.588716 9.67982e-39 3
-0.269273 0.266665 0.579994 8.94225e-39 3
-0.259901 0.266665 0.579994 1.20762e-38 3
-0.245084 0.260868 0.567386 1.14308e-38 3
-0.235065 0.259926 0.565337 1.1062e-38 3
-0.22593 0.259926 0.565337 9.95569e-39 3
-0.216796 0.259926 0.565337 9.95533e-39 3
-0.206915 0.258991 0.563304 1.17996e-38 3
-0.195701 0.256226 0.55729 1.05099e-38 3
-0.174586 0.251747 0.547547 1.06011e-38 3
-0.162333 0.246574 0.536296 1.0417e-38 3
-0.153144 0.245732 0.534466 1.02334e-38 3
-0.147529 0.250869 0.545639 1.07876e-38 3
-0.139687 0.25263 0.549468 1.04192e-38 3
-0.130809 0.25263 0.549468 1.01415e-38 3
-0.121931 0.25263 0.549468 1.10631e-38 3
-0.113451 0.253519 0.551403 1.08776e-38 3
-0.106798 0.258991 0.563304 1.20755e-38 3
-0.100591 0.266665 0.579994 1.22581e-38 3
-0.0925914 0.270675 0.588716 1.40076e-38 3
-0.0837087 0.272725 0.593176 1.44664e-38 3
-0.0749765 0.27586 0.599994 1.47427e-38 3
-0.065033 0.274807 0.597704 1.35452e-38 3
-0.0551651 0.273762 0.595431 1.3637e-38 3
-0.0448622 0.269661 0.586511 1.51118e-38 3
-0.0352536 0.268655 0.584322 1.59416e-38 3
-0.0251554 0.261816 0.569449 1.35445e-38 3
-0.0158968 0.260868 0.567386 1.37282e-38 3
-0.00670504 0.259926 0.565337 1.50185e-38 3
0.00246494 0.263734 0.573621 1.49285e-38 3
0.0116903 0.262772 0.571527 1.50203e-38 3
0.0210786 0.264704 0.575729 1.72323e-38 3
0.0307197 0.267656 0.58215 1.62189e-38 3
0.0402755 0.268655 0.584322 1.631e-38 3
0.0486279 0.262772 0.571527 1.56653e-38 3
0.0566224 0.257141 0.55928 1.38225e-38 3
0.061693 0.241609 0.525498 1.59448e-38 3
0.0708974 0.244066 0.530842 1.54845e-38 3
0.0797447 0.244896 0.532648 1.60366e-38 3
0.091141 0.25263 0.549468 1.43753e-38 3
0.112857 0.261816 0.569449 1.49256e-38 3
0.121176 0.259926 0.565337 1.61252e-38 3
0.130783 0.260868 0.567386 1.52047e-38 3
0.143592 0.267656 0.58215 1.39133e-38 3
0.152998 0.267656 0.58215 1.71401e-38 3
0.161803 0.266665 0.579994 1.64937e-38 3
0.171174 0.266665 0.579994 1.60338e-38 3
0.181216 0.267656 0.58215 1.59423e-38 3
0.190622 0.267656 0.58215 1.40073e-38 3
0.197822 0.264704 0.575729 1.32701e-38 3
0.205613 0.262772 0.571527 1.45604e-38 3
0.217225 0.265681 0.577854 1.25321e-38 3
0.229956 0.269661 0.586511 1.27176e-38 3
0.242154 0.272725 0.593176 1.3825e-38 3
0.251738 0.272725 0.593176 1.24425e-38 3
0.262316 0.273762 0.595431 1.33637e-38 3
0.269884 0.271696 0.590937 1.33626e-38 3
0.279432 0.271696 0.590937 1.29946e-38 3
0.311456 0.283463 0.616529 1.30878e-38 3
0.301255 0.265681 0.577854 1.29049e-38 3
0.297422 0.254415 0.553351 1.23528e-38 3
0.3233 0.260868 0.567386 1.1801e-38 3
0.332467 0.260868 0.567386 1.17088e-38 3
0.337961 0.258063 0.561285 1.21702e-38 3
0.34703 0.258063 0.561285 1.12493e-38 3
0.35867 0.259926 0.565337 1.14337e-38 3
0.37734 0.266665 0.579994 1.16188e-38 3
-0.501613 0.280187 0.588716 6.26786e-39 3
-0.477733 0.272006 0.571527 7.00471e-39 3
-0.471943 0.274006 0.575729 7.83447e-39 3
-0.462641 0.274006 0.575729 8.20217e-39 3
-0.446768 0.270035 0.567386 9.58475e-39 3
-0.439192 0.271017 0.569449 1.0322e-38 3
-0.436338 0.275017 0.577854 9.12305e-39 3
-0.43999 0.283383 0.595431 1.37328e-38 3
-0.443871 0.292273 0.614111 1.31789e-38 3
-0.433949 0.292273 0.614111 1.07815e-38 3
-0.434244 0.299316 0.628909 9.95173e-39 3
-0.424082 0.299316 0.628909 1.28109e-38 3
-0.434879 0.314471 0.660753 9.76842e-39 3
-0.314065 0.245164 0.515126 1.02298e-38 3
-0.305741 0.245164 0.515126 1.05063e-38 3
-0.305457 0.25179 0.529049 9.30816e-39 3
-0.296909 0.25179 0.529049 1.03227e-38 3
-0.290322 0.253503 0.532648 8.84862e-39 3
-0.282677 0.254368 0.534466 1.01401e-38 3
-0.284731 0.26429 0.555314 1.02334e-38 3
-0.277729 0.266178 0.55928 9.3114e-39 3
-0.270625 0.268093 0.563304 1.13386e-38 3
-0.261524 0.268093 0.563304 1.11539e-38 3
-0.254251 0.270035 0.567386 1.06936e-38 3
-0.242449 0.267132 0.561285 1.06936e-38 3
-0.232546 0.266178 0.55928 9.5869e-39 3
-0.22351 0.266178 0.55928 9.6791e-39 3
-0.215242 0.267132 0.561285 8.66423e-39 3
-0.204705 0.26523 0.55729 1.04167e-38 3
-0.195701 0.26523 0.55729 1.07865e-38 3
-0.186035 0.26429 0.555314 9.31211e-39 3
-0.174586 0.260594 0.547547 9.58798e-39 3
-0.162333 0.255239 0.536296 9.58798e-39 3
-0.152623 0.253503 0.532648 1.02337e-38 3
-0.147017 0.258784 0.543745 1.06032e-38 3
-0.139198 0.260594 0.547547 9.95713e-39 3
-0.129897 0.259686 0.545639 1.25386e-38 3
-0.120243 0.257888 0.541863 1.10631e-38 3
-0.113053 0.261508 0.549468 1.14308e-38 3
-0.105658 0.26523 0.55729 1.29041e-38 3
-0.0966532 0.26523 0.55729 1.33648e-38 3
-0.0870294 0.263356 0.553351 1.50221e-38 3
-0.0786445 0.26523 0.55729 1.52962e-38 3
-0.0724773 0.276036 0.579994 1.59426e-38 3
-0.0615114 0.26906 0.565337 1.60352e-38 3
-0.052377 0.26906 0.565337 1.3269e-38 3
-0.0442 0.275017 0.577854 1.41899e-38 3
-0.0344816 0.272006 0.571527 1.36367e-38 3
-0.0247948 0.267132 0.561285 1.33601e-38 3
-0.0157259 0.267132 0.561285 1.40055e-38 3
-0.00665698 0.267132 0.561285 1.49274e-38 3
0.00243814 0.270035 0.567386 1.47441e-38 3
0.0116056 0.270035 0.567386 1.56664e-38 3
0.0209247 0.272006 0.571527 1.52058e-38 3
0.0311834 0.281244 0.590937 1.58508e-38 3
0.0410412 0.283383 0.595431 1.6588e-38 3
0.0627457 0.254368 0.534466 1.6498e-38 3
0.0794744 0.252643 0.530842 1.45619e-38 3
0.0886525 0.254368 0.534466 1.50211e-38 3
0.0989771 0.258784 0.543745 1.67717e-38 3
0.109667 0.263356 0.553351 1.74156e-38 3
0.119028 0.26429 0.555314 1.51111e-38 3
0.128 0.26429 0.555314 1.53891e-38 3
0.137951 0.266178 0.55928 1.53891e-38 3
0.148045 0.268093 0.563304 1.55735e-38 3
0.157147 0.268093 0.563304 1.53884e-38 3
0.166248 0.268093 0.563304 1.55728e-38 3
0.177263 0.271017 0.569449 1.58508e-38 3
0.194251 0.26906 0.565337 1.42846e-38 3
0.200491 0.26523 0.55729 1.45612e-38 3
0.208752 0.26429 0.555314 1.34552e-38 3
0.220066 0.267132 0.561285 1.24421e-38 3
0.230789 0.26906 0.565337 1.29956e-38 3
0.239923 0.26906 0.565337 1.29963e-38 3
0.254572 0.275017 0.577854 1.447e-38 3
0.262938 0.274006 0.575729 1.28098e-38 3
0.276304 0.278096 0.584322 1.28109e-38 3
0.301044 0.258784 0.543745 1.11557e-38 3
0.335556 0.26523 0.55729 1.2078e-38 3
0.34456 0.26523 0.55729 1.09727e-38 3
0.353565 0.26523 0.55729 1.15259e-38 3
0.369137 0.270035 0.567386 1.1711e-38 3
-0.459294 0.270386 0.549468 7.37421e-39 3
-0.452002 0.271338 0.551403 8.29545e-39 3
-0.441538 0.270386 0.549468 9.12377e-39 3
-0.412402 0.257726 0.523741 8.93866e-39 3
-0.397296 0.253487 0.515126 1.06904e-38 3
-0.453794 0.302196 0.614111 1.07836e-38 3
-0.443871 0.302196 0.614111 1.17052e-38 3
-0.333112 0.243091 0.494001 9.67659e-39 3
-0.327195 0.244635 0.497138 9.86134e-39 3
-0.32431 0.248581 0.505156 9.3078e-39 3
-0.318201 0.250195 0.508436 1.04141e-38 3
-0.309986 0.250195 0.508436 1.05067e-38 3
-0.304739 0.252656 0.513437 1.00457e-38 3
-0.303407 0.25859 0.525498 1.01394e-38 3
-0.294916 0.25859 0.525498 9.95497e-39 3
-0.28739 0.259461 0.527267 9.95497e-39 3
-0.279812 0.260338 0.529049 1.01401e-38 3
-0.271264 0.260338 0.529049 9.31032e-39 3
-0.274785 0.272297 0.553351 9.95568e-39 3
-0.265844 0.272297 0.553351 1.04163e-38 3
-0.258732 0.274235 0.55729 1.17067e-38 3
-0.251517 0.276201 0.561285 1.02326e-38 3
-0.241583 0.275214 0.55928 1.03248e-38 3
-0.232546 0.275214 0.55928 9.03373e-39 3
-0.22351 0.275214 0.55928 1.02323e-38 3
-0.21371 0.274235 0.55729 8.38764e-39 3
-0.20398 0.273262 0.555314 1.17996e-38 3
-0.195007 0.273262 0.555314 9.68054e-39 3
-0.186035 0.273262 0.555314 9.40431e-39 3
-0.173374 0.267569 0.543745 8.20505e-39 3
-0.161779 0.263003 0.534466 9.31139e-39 3
-0.152623 0.262109 0.532648 1.03255e-38 3
-0.146508 0.266643 0.541863 1.06025e-38 3
-0.139198 0.26944 0.547547 1.22617e-38 3
-0.128998 0.266643 0.541863 1.2262e-38 3
-0.119417 0.264811 0.538139 1.20762e-38 3
-0.112265 0.268502 0.545639 1.14305e-38 3
-0.104175 0.270386 0.549468 1.3457e-38 3
-0.0952967 0.270386 0.549468 1.45622e-38 3
-0.084347 0.263904 0.536296 1.52987e-38 3
-0.0756818 0.263904 0.536296 1.55742e-38 3
-0.0677124 0.266643 0.541863 1.55742e-38 3
-0.058552 0.264811 0.538139 1.51132e-38 3
-0.0403306 0.259461 0.527267 1.44668e-38 3
-0.0317046 0.25859 0.525498 1.46508e-38 3
-0.0236101 0.263003 0.534466 1.38218e-38 3
-0.0147728 0.259461 0.527267 1.46519e-38 3
-0.00625353 0.259461 0.527267 1.4192e-38 3
0.00242934 0.278195 0.565337 1.48363e-38 3
0.0116478 0.280218 0.569449 1.45611e-38 3
0.0212347 0.285407 0.579994 1.37325e-38 3
0.0314205 0.293004 0.595431 1.41931e-38 3
0.0410412 0.293004 0.595431 1.41002e-38 3
0.0508552 0.294122 0.597704 1.48381e-38 3
0.0605125 0.294122 0.597704 1.38243e-38 3
0.0706579 0.260338 0.529049 1.48395e-38 3
0.0792059 0.260338 0.529049 1.49307e-38 3
0.0880514 0.26122 0.530842 1.49296e-38 3
0.0972881 0.263003 0.534466 1.60352e-38 3
0.106652 0.264811 0.538139 1.78773e-38 3
0.116145 0.266643 0.541863 1.82457e-38 3
0.1249 0.266643 0.541863 1.86156e-38 3
0.134119 0.267569 0.543745 1.69572e-38 3
0.143904 0.26944 0.547547 1.6221e-38 3
0.153287 0.270386 0.549468 1.6865e-38 3
0.163311 0.272297 0.553351 1.56661e-38 3
0.197677 0.270386 0.549468 1.30871e-38 3
0.206555 0.270386 0.549468 1.31797e-38 3
0.216191 0.271338 0.551403 1.32722e-38 3
0.225896 0.272297 0.553351 1.2535e-38 3
0.236508 0.274235 0.55729 1.24443e-38 3
0.24996 0.279203 0.567386 1.28116e-38 3
0.259128 0.279203 0.567386 1.20733e-38 3
0.328541 0.268502 0.545639 1.12482e-38 3
0.336186 0.267569 0.543745 1.20791e-38 3
0.344971 0.267569 0.543745 1.12493e-38 3
0.360007 0.272297 0.553351 1.23564e-38 3
-0.45384 0.270715 0.532648 6.82211e-39 3
-0.449824 0.273506 0.538139 8.11178e-39 3
-0.447277 0.277318 0.545639 7.2813e-39 3
-0.432434 0.273506 0.538139 9.49219e-39 3
-0.408305 0.263544 0.518538 9.03086e-39 3
-0.392136 0.25841 0.508436 1.06904e-38 3
-0.380217 0.255917 0.503532 9.30816e-39 3
-0.359324 0.252667 0.497138 8.57131e-39 3
-0.35018 0.251868 0.495565 7.64864e-39 3
-0.342173 0.251868 0.495565 1.15209e-38 3
-0.333112 0.251073 0.494001 1.33651e-38 3
-0.327195 0.252667 0.497138 9.40072e-39 3
-0.322231 0.255097 0.501918 1.06911e-38 3
-0.317171 0.257573 0.506791 8.66315e-39 3
-0.309986 0.25841 0.508436 9.8617e-39 3
-0.304739 0.260951 0.513437 1.00472e-38 3
-0.301384 0.265301 0.521995 9.30996e-39 3
-0.29295 0.265301 0.521995 1.02323e-38 3
-0.284516 0.265301 0.521995 1.03245e-38 3
-0.275164 0.264419 0.520261 1.17992e-38 3
-0.2624 0.260099 0.51176 1.06925e-38 3
-0.254131 0.260099 0.51176 1.02319e-38 3
-0.245862 0.260099 0.51176 1.21673e-38 3
-0.229271 0.280247 0.551403 1.0878e-38 3
-0.220362 0.280247 0.551403 9.21812e-39 3
-0.212952 0.282235 0.555314 8.20325e-39 3
-0.145827 0.291539 0.573621 1.0049e-38 3
-0.12236 0.280247 0.551403 9.31031e-39 3
-0.0939777 0.275399 0.541863 1.35474e-38 3
-0.0832072 0.268886 0.529049 1.41002e-38 3
-0.0746591 0.268886 0.529049 1.28094e-38 3
-0.0661111 0.268886 0.529049 1.46526e-38 3
-0.0573692 0.26798 0.527267 1.39158e-38 3
-0.0488499 0.26798 0.527267 1.34548e-38 3
-0.0400609 0.266188 0.523741 1.31764e-38 3
-0.0315986 0.266188 0.523741 1.27158e-38 3
-0.0232139 0.267081 0.525498 1.751e-38 3
-0.0145282 0.263544 0.518538 1.46533e-38 3
-0.00617042 0.264419 0.520261 1.43775e-38 3
0.0314205 0.302624 0.595431 1.37332e-38 3
0.0410412 0.302624 0.595431 1.41012e-38 3
0.0581788 0.251868 0.495565 1.33644e-38 3
0.0668202 0.254282 0.500314 1.38254e-38 3
0.0756289 0.256743 0.505156 1.36399e-38 3
0.087165 0.267081 0.525498 1.52991e-38 3
0.096302 0.268886 0.529049 1.53905e-38 3
0.10485 0.268886 0.529049 1.66798e-38 3
0.114559 0.271639 0.534466 1.76929e-38 3
0.12236 0.269797 0.530842 1.82468e-38 3
0.130937 0.269797 0.530842 1.55753e-38 3
0.139514 0.269797 0.530842 1.46551e-38 3
0.148091 0.269797 0.530842 1.60363e-38 3
0.157737 0.271639 0.534466 1.49292e-38 3
0.166373 0.271639 0.534466 1.43771e-38 3
0.173822 0.269797 0.530842 1.41002e-38 3
0.182399 0.269797 0.530842 1.34555e-38 3
0.190976 0.269797 0.530842 1.34566e-38 3
0.198879 0.268886 0.529049 1.2996e-38 3
0.208838 0.270715 0.532648 1.25357e-38 3
0.214525 0.267081 0.525498 1.20755e-38 3
0.219013 0.252667 0.497138 1.23524e-38 3
0.225613 0.251073 0.494001 1.43793e-38 3
0.23213 0.249499 0.490904 1.27198e-38 3
0.237089 0.246409 0.484825 1.2535e-38 3
0.270396 0.241182 0.474541 1.27223e-38 3
0.311054 0.269797 0.530842 1.21698e-38 3
0.320719 0.270715 0.532648 1.14326e-38 3
0.33158 0.272569 0.536296 1.23557e-38 3
0.340246 0.272569 0.536296 1.19869e-38 3
0.356231 0.278287 0.547547 1.10656e-38 3
-0.450774 0.277434 0.529049 9.49471e-39 3
-0.442226 0.277434 0.529049 7.74227e-39 3
-0.422276 0.275572 0.525498 1.08751e-38 3
-0.399055 0.265762 0.506791 1.10592e-38 3
-0.388353 0.264053 0.503532 1.07818e-38 3
-0.376585 0.26153 0.498721 1.12443e-38 3
-0.367357 0.2607 0.497138 7.83482e-39 3
-0.355935 0.25824 0.492448 8.01921e-39 3
-0.344726 0.255827 0.487846 8.29437e-39 3
-0.337896 0.256626 0.48937 1.2351e-38 3
-0.328961 0.255827 0.487846 9.40072e-39 3
-0.324108 0.25824 0.492448 9.03193e-39 3
-0.319162 0.2607 0.497138 9.12377e-39 3
-0.313118 0.262366 0.500314 9.95389e-39 3
-0.304062 0.26153 0.498721 9.8617e-39 3
-0.297902 0.263206 0.501918 9.67839e-39 3
-0.291662 0.264905 0.505156 9.77058e-39 3
-0.282588 0.264053 0.503532 1.01394e-38 3
-0.273573 0.263206 0.501918 1.17989e-38 3
-0.263772 0.26153 0.498721 1.08769e-38 3
-0.255714 0.26153 0.498721 1.08758e-38 3
-0.247656 0.26153 0.498721 1.27201e-38 3
-0.238082 0.259875 0.495565 1.12453e-38 3
-0.230075 0.259875 0.495565 1.14297e-38 3
-0.221367 0.259055 0.494001 1.02319e-38 3
-0.212047 0.257431 0.490904 1.02326e-38 3
-0.223756 0.282201 0.538139 1.05099e-38 3
-0.172222 0.24587 0.468858 7.55968e-39 3
-0.164155 0.245136 0.467458 8.20541e-39 3
-0.156602 0.245136 0.467458 7.376e-39 3
-0.151308 0.24885 0.474541 9.58798e-39 3
-0.146753 0.254243 0.484825 1.08787e-38 3
-0.140222 0.256626 0.48937 9.77129e-39 3
-0.131903 0.255827 0.487846 9.49506e-39 3
-0.124408 0.256626 0.48937 9.31031e-39 3
-0.115778 0.255032 0.48633 9.49471e-39 3
-0.0832072 0.277434 0.529049 1.30871e-38 3
-0.0744077 0.2765 0.527267 1.23492e-38 3
-0.0652296 0.273735 0.521995 1.2441e-38 3
-0.0566068 0.272825 0.520261 1.4008e-38 3
-0.0482007 0.272825 0.520261 1.25328e-38 3
-0.0314932 0.273735 0.521995 1.2625e-38 3
-0.0229825 0.272825 0.520261 1.3547e-38 3
-0.0143383 0.268367 0.51176 1.38243e-38 3
-0.0060696 0.268367 0.51176 1.25346e-38 3
0.0331099 0.251903 0.480363 1.35484e-38 3
0.0408713 0.251903 0.480363 1.48395e-38 3
0.048933 0.253458 0.483328 1.29045e-38 3
0.0576317 0.257431 0.490904 1.39183e-38 3
0.0666074 0.26153 0.498721 1.4009e-38 3
0.0756289 0.264905 0.505156 1.34559e-38 3
0.0865839 0.273735 0.521995 1.42849e-38 3
0.0956557 0.275572 0.525498 1.45604e-38 3
0.103452 0.273735 0.521995 1.51129e-38 3
0.115323 0.262366 0.500314 1.58512e-38 3
0.122623 0.2607 0.497138 1.57604e-38 3
0.130656 0.2607 0.497138 1.45611e-38 3
0.138688 0.2607 0.497138 1.41927e-38 3
0.150544 0.267493 0.510093 1.52991e-38 3
0.160882 0.271024 0.516826 1.44693e-38 3
0.169232 0.271024 0.516826 1.63118e-38 3
0.177583 0.271024 0.516826 1.58519e-38 3
0.185322 0.270133 0.515126 1.46541e-38 3
0.190512 0.265762 0.506791 1.5208e-38 3
0.19679 0.263206 0.501918 1.36414e-38 3
0.202948 0.2607 0.497138 1.37357e-38 3
0.208335 0.257431 0.490904 1.37368e-38 3
0.216266 0.257431 0.490904 1.40134e-38 3
0.222109 0.255032 0.48633 1.36431e-38 3
0.228548 0.253458 0.483328 1.17989e-38 3
0.234907 0.251903 0.480363 1.33662e-38 3
0.241926 0.251133 0.478894 1.27208e-38 3
0.267158 0.24587 0.468858 1.20769e-38 3
0.319631 0.278374 0.530842 1.29081e-38 3
0.329325 0.279321 0.532648 1.16181e-38 3
0.336785 0.278374 0.530842 1.09727e-38 3
0.348911 0.281234 0.536296 1.19872e-38 3
-0.381226 0.241859 0.447424 8.47984e-39 3
-0.376146 0.243249 0.449995 8.47876e-39 3
-0.368875 0.243249 0.449995 9.40072e-39 3
-0.411236 0.276636 0.51176 8.10926e-39 3
-0.395218 0.271316 0.501918 8.75498e-39 3
-0.384643 0.269588 0.498721 1.08748e-38 3
-0.376585 0.269588 0.498721 9.76985e-39 3
-0.324912 0.260464 0.481841 9.58511e-39 3
-0.318106 0.261267 0.483328 9.8617e-39 3
-0.317148 0.267037 0.494001 8.4784e-39 3
-0.31113 0.268732 0.497138 9.67694e-39 3
-0.302138 0.267882 0.495565 1.04149e-38 3
-0.295065 0.268732 0.497138 9.6773e-39 3
-0.287946 0.269588 0.498721 1.02316e-38 3
-0.279888 0.269588 0.498721 1.05993e-38 3
-0.270967 0.268732 0.497138 9.76985e-39 3
-0.262103 0.267882 0.495565 1.05074e-38 3
-0.254096 0.267882 0.495565 1.22584e-38 3
-0.246089 0.267882 0.495565 1.17049e-38 3
-0.236584 0.266197 0.492448 1.11521e-38 3
-0.228628 0.266197 0.492448 1.13368e-38 3
-0.219292 0.264533 0.48937 1.08762e-38 3
-0.208775 0.261267 0.483328 9.31067e-39 3
-0.199733 0.259665 0.480363 8.11285e-39 3
-0.188502 0.254972 0.471682 7.83626e-39 3
-0.181427 0.255742 0.473107 8.29724e-39 3
-0.173783 0.255742 0.473107 8.57383e-39 3
-0.165141 0.254206 0.470266 8.02065e-39 3
-0.157543 0.254206 0.470266 8.29724e-39 3
-0.151308 0.256517 0.474541 1.1523e-38 3
-0.144958 0.25887 0.478894 1.06011e-38 3
-0.136386 0.257297 0.475983 1.06929e-38 3
-0.128306 0.256517 0.474541 1.07851e-38 3
-0.122872 0.261267 0.483328 1.06929e-38 3
-0.114357 0.259665 0.480363 1.05089e-38 3
-0.106596 0.259665 0.480363 1.07851e-38 3
-0.0907944 0.25887 0.478894 1.16116e-38 3
-0.0846092 0.263709 0.487846 1.39172e-38 3
-0.0318114 0.285019 0.527267 1.3363e-38 3
-0.0145765 0.281231 0.520261 1.43786e-38 3
0.032808 0.257297 0.475983 1.34573e-38 3
0.0404986 0.257297 0.475983 1.33651e-38 3
0.0486328 0.259665 0.480363 1.31814e-38 3
0.0565677 0.260464 0.481841 1.34573e-38 3
0.0657696 0.266197 0.492448 1.36399e-38 3
0.0868735 0.283112 0.523741 1.41934e-38 3
0.0937678 0.278456 0.515126 1.53905e-38 3
0.0985258 0.268732 0.497138 1.55742e-38 3
0.106558 0.268732 0.497138 1.56671e-38 3
0.113868 0.267037 0.494001 1.46541e-38 3
0.121466 0.266197 0.492448 1.56682e-38 3
0.129423 0.266197 0.492448 1.51136e-38 3
0.137813 0.267037 0.494001 1.49292e-38 3
0.146721 0.268732 0.497138 1.52061e-38 3
0.154753 0.268732 0.497138 1.47448e-38 3
0.163304 0.269588 0.498721 1.6127e-38 3
0.17246 0.271316 0.501918 1.4376e-38 3
0.17942 0.269588 0.498721 1.39161e-38 3
0.186291 0.267882 0.495565 1.42853e-38 3
0.194299 0.267882 0.495565 1.3457e-38 3
0.201033 0.266197 0.492448 1.29052e-38 3
0.206394 0.26289 0.48633 1.28152e-38 3
0.214252 0.26289 0.48633 1.35531e-38 3
0.220059 0.260464 0.481841 1.47509e-38 3
0.227844 0.260464 0.481841 1.40134e-38 3
0.240456 0.257297 0.475983 1.34591e-38 3
0.246647 0.255742 0.473107 1.21677e-38 3
0.253525 0.254972 0.471682 1.29974e-38 3
0.255754 0.249707 0.461942 1.21677e-38 3
0.260909 0.247516 0.45789 1.22606e-38 3
0.266747 0.246077 0.455228 1.15245e-38 3
0.273308 0.245364 0.453908 1.24471e-38 3
0.282278 0.246795 0.456555 1.1894e-38 3
0.290502 0.247516 0.45789 1.07883e-38 3
-0.376918 0.246274 0.442368 9.58511e-39 3
-0.369771 0.246274 0.442368 9.67694e-39 3
-0.361602 0.24558 0.441122 8.01742e-39 3
-0.357495 0.247673 0.444882 8.57095e-39 3
-0.382944 0.270748 0.48633 9.21632e-39 3
-0.376255 0.271591 0.487846 8.94009e-39 3
-0.325251 0.25052 0.449995 1.21669e-38 3
-0.308053 0.248379 0.446149 1.04152e-38 3
-0.300845 0.248379 0.446149 1.05071e-38 3
-0.293636 0.248379 0.446149 9.21632e-39 3
-0.305314 0.271591 0.487846 1.01383e-38 3
-0.297432 0.271591 0.487846 1.06911e-38 3
-0.290454 0.27244 0.48937 1.01383e-38 3
-0.284324 0.274154 0.492448 1.1429e-38 3
-0.275501 0.273294 0.490904 1.05074e-38 3
-0.26757 0.273294 0.490904 9.49219e-39 3
-0.25802 0.271591 0.487846 1.22573e-38 3
-0.25092 0.27244 0.48937 1.04145e-38 3
-0.243774 0.273294 0.490904 1.00457e-38 3
-0.232922 0.26991 0.484825 1.13365e-38 3
-0.224394 0.269077 0.483328 9.58474e-39 3
-0.215918 0.268249 0.481841 9.40035e-39 3
-0.207494 0.267426 0.480363 9.21776e-39 3
-0.188502 0.262593 0.471682 9.95712e-39 3
-0.181427 0.263386 0.473107 7.83626e-39 3
-0.173783 0.263386 0.473107 9.127e-39 3
-0.165639 0.262593 0.471682 8.48055e-39 3
-0.157071 0.261021 0.468858 1.12464e-38 3
-0.150851 0.263386 0.473107 1.01397e-38 3
-0.134345 0.261021 0.468858 1.25357e-38 3
-0.113314 0.264987 0.475983 1.08773e-38 3
-0.105624 0.264987 0.475983 1.05071e-38 3
-0.0970482 0.262593 0.471682 1.27176e-38 3
-0.0896972 0.263386 0.473107 1.26258e-38 3
-0.0823017 0.264184 0.474541 1.24424e-38 3
-0.0746343 0.264184 0.474541 1.2351e-38 3
0.0322204 0.260241 0.467458 1.3458e-38 3
0.0396549 0.259467 0.466067 1.33666e-38 3
0.055375 0.262593 0.471682 1.41949e-38 3
0.0631865 0.263386 0.473107 1.41931e-38 3
0.0708307 0.263386 0.473107 1.4009e-38 3
0.0794348 0.266608 0.478894 1.45633e-38 3
0.0907815 0.277646 0.498721 1.52994e-38 3
0.0975963 0.274154 0.492448 1.65891e-38 3
0.105553 0.274154 0.492448 1.60373e-38 3
0.11351 0.274154 0.492448 1.45637e-38 3
0.121466 0.274154 0.492448 1.50232e-38 3
0.129017 0.273294 0.490904 1.4837e-38 3
0.136949 0.273294 0.490904 1.5298e-38 3
0.145336 0.274154 0.492448 1.53905e-38 3
0.153293 0.274154 0.492448 1.4653e-38 3
0.16227 0.275889 0.495565 1.46519e-38 3
0.170818 0.276765 0.497138 1.57586e-38 3
0.176608 0.273294 0.490904 1.52983e-38 3
0.184539 0.273294 0.490904 1.56682e-38 3
0.192471 0.273294 0.490904 1.47473e-38 3
0.198536 0.270748 0.48633 1.47495e-38 3
0.204489 0.268249 0.481841 1.30921e-38 3
0.212274 0.268249 0.481841 1.24475e-38 3
0.219384 0.267426 0.480363 1.37382e-38 3
0.227146 0.267426 0.480363 1.34613e-38 3
0.23206 0.264184 0.474541 1.28148e-38 3
0.237567 0.261804 0.470266 1.41045e-38 3
0.239414 0.255662 0.459233 1.35513e-38 3
0.246834 0.255662 0.459233 1.18914e-38 3
0.251306 0.252698 0.453908 1.27208e-38 3
0.257892 0.251968 0.452597 1.2445e-38 3
0.265205 0.251968 0.452597 1.19844e-38 3
0.272518 0.251968 0.452597 1.26304e-38 3
0.279831 0.251968 0.452597 1.20783e-38 3
0.287144 0.251968 0.452597 1.08805e-38 3
