# .PCD v0.7 - Point Cloud Data file format
VERSION 0.7
FIELDS x y z rgb label
SIZE 4 4 4 4 4
TYPE F F F F U
COUNT 1 1 1 1 1
WIDTH 2164
HEIGHT 1
VIEWPOINT 0 0 0 1 0 0 0
POINTS 2164
DATA ascii
0.0562096 -0.211949 1.53528 1.38187e-39 1
-1.6903 -0.337926 3.19589 1.10599e-39 1
-1.62401 -0.275061 3.07056 2.02795e-39 1
-1.54412 -0.269772 3.01151 2.39673e-39 1
-0.10809 0.176158 2.44685 4.60906e-39 3
-0.068555 0.176158 2.44685 4.14881e-39 3
-0.0290203 0.176158 2.44685 2.95063e-39 3
0.0101959 0.17082 2.3727 3.04246e-39 3
0.0471052 0.165796 2.30292 3.22721e-39 3
0.0774781 0.152353 2.11619 2.85843e-39 3
0.0983762 0.134216 1.86427 2.85843e-39 3
0.12551 0.131094 1.82091 2.67332e-39 3
0.148045 0.125268 1.73998 2.76515e-39 3
0.172329 0.122545 1.70216 2.39709e-39 3
0.19558 0.119937 1.66594 2.95026e-39 3
-0.206521 0.238006 2.69997 6.17711e-39 3
-0.111577 0.222651 2.52578 6.17639e-39 3
-0.068555 0.215693 2.44685 4.60978e-39 3
-0.0290203 0.215693 2.44685 4.97893e-39 3
0.0105145 0.215693 2.44685 5.4399e-39 3
0.0485326 0.209157 2.3727 5.07148e-39 3
0.0819054 0.197205 2.23712 5.62394e-39 3
0.11167 0.186545 2.11619 4.88709e-39 3
0.128498 0.164337 1.86427 5.53174e-39 3
0.15862 0.164337 1.86427 4.51759e-39 3
0.188741 0.164337 1.86427 4.42539e-39 3
0.204272 0.153382 1.73998 3.68783e-39 3
0.222497 0.146855 1.66594 3.87221e-39 3
0.244218 0.143795 1.63123 3.78002e-39 3
0.240511 0.127818 1.44999 3.59528e-39 3
0.25914 0.125494 1.42362 3.31833e-39 3
0.267549 0.119003 1.34999 2.48857e-39 3
0.284456 0.116986 1.32711 3.41052e-39 3
0.305899 0.116986 1.32711 3.50272e-39 3
0.321886 0.115036 1.30499 2.6726e-39 3
0.342971 0.115036 1.30499 3.7793e-39 3
-0.976364 0.494987 4.74541 8.94334e-39 3
-0.89969 0.494987 4.74541 7.55969e-39 3
-0.31553 0.302492 2.89997 6.63845e-39 3
-0.250145 0.28163 2.69997 6.17747e-39 3
-0.119272 0.28163 2.69997 6.36113e-39 3
-0.0756469 0.28163 2.69997 7.65223e-39 3
-0.0320224 0.28163 2.69997 7.92919e-39 3
0.0120166 0.291689 2.7964 7.37637e-39 3
0.0571992 0.291689 2.7964 7.83735e-39 3
0.102382 0.291689 2.7964 7.28417e-39 3
0.147564 0.291689 2.7964 7.65296e-39 3
0.192747 0.291689 2.7964 6.08599e-39 3
0.214904 0.263461 2.52578 5.99379e-39 3
0.255714 0.263461 2.52578 6.73028e-39 3
0.38301 0.340303 3.26247 6.73028e-39 3
0.227334 0.17755 1.70216 4.70269e-39 3
0.254836 0.17755 1.70216 5.07148e-39 3
0.276332 0.173772 1.66594 5.99272e-39 3
0.263939 0.151246 1.44999 2.95026e-39 3
0.272242 0.143286 1.37367 6.17639e-39 3
0.284456 0.138429 1.32711 5.25479e-39 3
0.300801 0.136121 1.30499 5.80796e-39 3
0.321886 0.136121 1.30499 5.16188e-39 3
-0.31553 0.349348 2.89997 8.20757e-39 3
-0.250145 0.325255 2.69997 8.85222e-39 3
-0.0756469 0.325255 2.69997 8.75858e-39 3
0.302819 0.428745 3.55905 4.98036e-39 3
0.282339 0.205052 1.70216 6.3615e-39 3
0.309841 0.205052 1.70216 1.35535e-38 3
0.267549 0.162627 1.34999 6.54589e-39 3
0.284456 0.159871 1.32711 6.63844e-39 3
0.305899 0.159871 1.32711 6.1771e-39 3
1.9358 0.224581 1.86427 2.85592e-39 3
1.96592 0.224581 1.86427 2.21055e-39 3
-1.29607 0.356584 2.60997 8.7593e-39 3
-1.13991 0.324167 2.3727 8.39017e-39 3
-1.13599 0.334297 2.44685 8.48272e-39 3
-1.09646 0.334297 2.44685 8.2994e-39 3
-1.05692 0.334297 2.44685 7.28525e-39 3
-1.01739 0.334297 2.44685 7.93062e-39 3
-0.771497 0.314633 2.30292 9.58906e-39 3
-0.693494 0.297153 2.17498 1.00508e-38 3
-0.658352 0.297153 2.17498 9.95857e-39 3
-1.0198 0.48625 3.55905 1.00508e-38 3
-0.31553 0.396204 2.89997 9.86709e-39 3
-0.250145 0.36888 2.69997 1.03273e-38 3
-0.206521 0.36888 2.69997 9.95748e-39 3
0.267549 0.18444 1.34999 7.74515e-39 3
0.284456 0.181314 1.32711 7.28417e-39 3
0.295869 0.175369 1.28359 7.46856e-39 3
1.81906 0.243125 1.77953 3.0421e-39 3
1.9358 0.254703 1.86427 3.04174e-39 3
1.87656 0.243125 1.77953 2.58077e-39 3
1.67668 0.21395 1.56598 2.30454e-39 3
1.34814 0.164577 1.2046 1.84356e-39 3
1.36761 0.164577 1.2046 2.12015e-39 3
-1.6275 0.44306 2.89997 8.57419e-39 3
-1.42258 0.398754 2.60997 7.28417e-39 3
-1.29413 0.373832 2.44685 8.11501e-39 3
-1.2546 0.373832 2.44685 8.20613e-39 3
-1.17824 0.362504 2.3727 9.03589e-39 3
-1.13991 0.362504 2.3727 8.39052e-39 3
-1.10157 0.362504 2.3727 8.29832e-39 3
-1.09646 0.373832 2.44685 8.66818e-39 3
-1.05692 0.373832 2.44685 8.02281e-39 3
-0.886968 0.385891 2.52578 1.04188e-38 3
-0.846158 0.385891 2.52578 1.0143e-38 3
-0.805348 0.385891 2.52578 1.06043e-38 3
-0.764538 0.385891 2.52578 1.02352e-38 3
-0.897422 0.478505 3.13197 1.07883e-38 3
-0.279008 0.460101 3.01151 1.09727e-38 3
0.245736 0.206252 1.34999 9.03696e-39 3
0.25439 0.196109 1.28359 8.48344e-39 3
0.284456 0.202756 1.32711 9.22136e-39 3
0.728309 0.124611 0.815617 4.33356e-39 3
0.991508 0.145886 0.954868 2.58148e-39 3
1.03211 0.149533 0.97874 2.48928e-39 3
1.04792 0.149533 0.97874 3.31905e-39 3
1.32868 0.18404 1.2046 2.67332e-39 3
1.34814 0.18404 1.2046 3.31905e-39 3
1.28832 0.173371 1.13477 3.22649e-39 3
1.30666 0.173371 1.13477 3.0421e-39 3
1.38522 0.181252 1.18635 3.04066e-39 3
-1.72121 0.489916 2.89997 1.02334e-38 3
-1.61456 0.472419 2.7964 9.49579e-39 3
-1.29413 0.413367 2.44685 8.94477e-39 3
-1.21658 0.40084 2.3727 9.77381e-39 3
-1.17824 0.40084 2.3727 8.39016e-39 3
-0.737586 0.259367 1.53528 9.31176e-39 3
-1.06917 0.389051 2.30292 9.31176e-39 3
-1.06323 0.40084 2.3727 9.03625e-39 3
-1.05692 0.413367 2.44685 9.58942e-39 3
-1.01739 0.413367 2.44685 1.03266e-38 3
-1.02718 0.472419 2.7964 1.03263e-38 3
-0.886968 0.426701 2.52578 1.11564e-38 3
-0.846158 0.426701 2.52578 1.11571e-38 3
-0.805348 0.426701 2.52578 1.12493e-38 3
0.38731 0.489916 2.89997 9.5905e-39 3
0.279107 0.314946 1.86427 9.59014e-39 3
0.309228 0.314946 1.86427 9.86708e-39 3
0.237545 0.220462 1.30499 9.40647e-39 3
0.25439 0.216848 1.28359 9.22136e-39 3
0.284456 0.224199 1.32711 9.77453e-39 3
0.697389 0.142234 0.841927 5.34735e-39 3
0.716888 0.140721 0.83297 4.79453e-39 3
0.715131 0.137789 0.815617 5.16332e-39 3
0.979562 0.15937 0.943364 2.85878e-39 3
1.03211 0.165347 0.97874 3.68818e-39 3
1.04792 0.165347 0.97874 2.76587e-39 3
1.06374 0.165347 0.97874 3.31905e-39 3
1.10723 0.169586 1.00384 3.0421e-39 3
1.18418 0.178753 1.0581 3.41089e-39 3
1.28832 0.191706 1.13477 2.67332e-39 3
1.30666 0.191706 1.13477 2.85771e-39 3
1.30607 0.188968 1.11856 3.41088e-39 3
1.40439 0.20042 1.18635 3.77859e-39 3
-1.29413 0.452901 2.44685 1.0511e-38 3
-0.743465 0.268386 1.44999 1.04181e-38 3
-0.720037 0.268386 1.44999 1.04181e-38 3
-0.709753 0.27345 1.47734 1.05103e-38 3
-1.03862 0.414081 2.23712 1.11557e-38 3
-1.03196 0.42626 2.30292 1.11557e-38 3
-1.0249 0.439177 2.3727 1.12486e-38 3
-1.01739 0.452901 2.44685 1.13408e-38 3
0.248985 0.345068 1.86427 1.12504e-38 3
0.244218 0.301934 1.63123 1.08809e-38 3
0.240511 0.268386 1.44999 1.11564e-38 3
0.25914 0.263506 1.42362 1.02362e-38 3
0.25863 0.241547 1.30499 1.01433e-38 3
0.284456 0.245641 1.32711 1.03273e-38 3
0.305899 0.245641 1.32711 9.95892e-39 3
0.327342 0.245641 1.32711 1.09731e-38 3
0.348784 0.245641 1.32711 9.59014e-39 3
0.420065 0.278709 1.50575 9.5905e-39 3
0.537407 0.337043 1.82091 9.86709e-39 3
0.683786 0.155837 0.841927 6.73064e-39 3
0.68997 0.154179 0.83297 5.80904e-39 3
0.703429 0.154179 0.83297 5.99272e-39 3
0.709341 0.152556 0.824202 6.63809e-39 3
0.715131 0.150967 0.815617 5.99308e-39 3
0.7942 0.150967 0.815617 5.16332e-39 3
0.807378 0.150967 0.815617 4.79454e-39 3
0.820557 0.150967 0.815617 4.42683e-39 3
1.03211 0.181161 0.97874 4.88709e-39 3
1.0772 0.183454 0.991129 4.70198e-39 3
1.10723 0.185806 1.00384 4.79418e-39 3
1.13804 0.188219 1.01687 3.77967e-39 3
1.16966 0.190695 1.03025 3.96406e-39 3
1.18631 0.190695 1.03025 3.77967e-39 3
1.20295 0.190695 1.03025 4.3332e-39 3
1.23586 0.193238 1.04399 3.22649e-39 3
-1.13991 0.477514 2.3727 1.04174e-38 3
-1.03862 0.450227 2.23712 1.0233e-38 3
-1.03196 0.463469 2.30292 9.67982e-39 3
-1.05692 0.492436 2.44685 1.08791e-38 3
0.00666265 0.312039 1.55048 1.0789e-38 3
0.150693 0.258327 1.28359 1.14341e-38 3
0.217862 0.328291 1.63123 1.11578e-38 3
0.23445 0.315159 1.56598 1.03263e-38 3
0.236138 0.286508 1.42362 1.0695e-38 3
0.245736 0.271689 1.34999 1.09731e-38 3
0.25863 0.262633 1.30499 1.02355e-38 3
0.279715 0.262633 1.30499 9.86637e-39 3
0.305899 0.267084 1.32711 1.04195e-38 3
0.327342 0.267084 1.32711 9.86672e-39 3
0.348784 0.267084 1.32711 9.40467e-39 3
0.370227 0.267084 1.32711 1.10653e-38 3
0.481427 0.328291 1.63123 9.95857e-39 3
0.306605 0.164145 0.815617 9.6809e-39 3
0.678465 0.175088 0.869991 6.54733e-39 3
0.677467 0.171282 0.851078 5.90196e-39 3
0.683786 0.16944 0.841927 7.6526e-39 3
0.697389 0.16944 0.841927 6.731e-39 3
0.710993 0.16944 0.841927 6.6388e-39 3
0.724596 0.16944 0.841927 6.91539e-39 3
0.784181 0.167638 0.83297 6.54625e-39 3
0.797639 0.167638 0.83297 6.17747e-39 3
0.811098 0.167638 0.83297 5.99272e-39 3
0.824557 0.167638 0.83297 4.70234e-39 3
0.847026 0.16944 0.841927 4.42683e-39 3
1.03211 0.196974 0.97874 4.14988e-39 3
1.12161 0.204649 1.01687 4.14881e-39 3
1.13804 0.204649 1.01687 4.05661e-39 3
1.16966 0.207342 1.03025 4.14881e-39 3
1.1709 0.204649 1.01687 4.60978e-39 3
1.20295 0.207342 1.03025 4.79382e-39 3
1.23586 0.210106 1.04399 4.14881e-39 3
-1.00977 0.472863 2.17498 1.11535e-38 3
-0.161205 0.37829 1.73998 1.08798e-38 3
0.0772299 0.318188 1.46354 1.30021e-38 3
0.0990259 0.31235 1.43668 1.19861e-38 3
0.115861 0.296053 1.36173 1.17096e-38 3
0.134358 0.288527 1.32711 1.18939e-38 3
0.153204 0.283718 1.30499 1.1894e-38 3
0.168667 0.274566 1.26289 1.19872e-38 3
0.186071 0.270207 1.24284 1.16174e-38 3
0.204529 0.26808 1.23306 1.13404e-38 3
0.224452 0.26808 1.23306 1.18028e-38 3
0.244375 0.26808 1.23306 1.15252e-38 3
0.266396 0.270207 1.24284 1.1433e-38 3
0.279815 0.263924 1.21394 1.04188e-38 3
0.299429 0.263924 1.21394 1.02344e-38 3
0.348784 0.288527 1.32711 1.13401e-38 3
0.420065 0.327367 1.50575 1.16174e-38 3
0.513522 0.37829 1.73998 1.18018e-38 3
0.306605 0.177324 0.815617 9.95784e-39 3
0.710022 0.197943 0.910456 7.00831e-39 3
0.692522 0.189145 0.869991 6.73172e-39 3
0.706579 0.189145 0.869991 6.54733e-39 3
0.720636 0.189145 0.869991 6.36293e-39 3
0.787477 0.185033 0.851078 5.25551e-39 3
0.801228 0.185033 0.851078 5.43991e-39 3
0.797639 0.181096 0.83297 5.34771e-39 3
0.811098 0.181096 0.83297 5.43991e-39 3
0.824557 0.181096 0.83297 5.34771e-39 3
0.847026 0.183044 0.841927 4.79561e-39 3
1.15447 0.221079 1.01687 2.76587e-39 3
1.1709 0.221079 1.01687 3.13465e-39 3
1.17211 0.218244 1.00384 4.14917e-39 3
-0.511997 0.25758 1.10281 1.18878e-38 3
0.0521216 0.332512 1.42362 1.06032e-38 3
0.0744469 0.329517 1.4108 1.06954e-38 3
0.0955206 0.323685 1.38583 1.08798e-38 3
0.113881 0.312618 1.33845 1.08794e-38 3
0.134358 0.309969 1.32711 1.06025e-38 3
0.153204 0.304803 1.30499 1.12482e-38 3
0.170038 0.297369 1.27316 1.26308e-38 3
0.186071 0.290289 1.24284 1.23542e-38 3
0.204529 0.288003 1.23306 1.17088e-38 3
0.224452 0.288003 1.23306 1.13401e-38 3
0.240586 0.283538 1.21394 1.18014e-38 3
0.2602 0.283538 1.21394 1.19858e-38 3
0.275543 0.279209 1.19541 1.13401e-38 3
0.292623 0.277094 1.18635 1.20776e-38 3
0.348784 0.309969 1.32711 1.13386e-38 3
0.412139 0.34506 1.47734 1.04177e-38 3
0.481427 0.381004 1.63123 1.0788e-38 3
0.566828 0.425307 1.82091 1.09713e-38 3
0.639871 0.397569 1.70216 1.02344e-38 3
0.319783 0.190502 0.815617 1.02337e-38 3
0.724732 0.212653 0.910456 7.1005e-39 3
0.739443 0.212653 0.910456 8.02174e-39 3
0.801228 0.198785 0.851078 5.71649e-39 3
0.797639 0.194555 0.83297 5.2566e-39 3
0.811098 0.194555 0.83297 5.62538e-39 3
0.86063 0.196647 0.841927 3.78147e-39 3
1.13967 0.234464 1.00384 3.78002e-39 3
1.15589 0.234464 1.00384 4.79418e-39 3
-0.472101 0.253939 1.01687 1.40966e-38 3
-0.461667 0.25728 1.03025 1.45594e-38 3
-0.445021 0.25728 1.03025 1.35456e-38 3
-0.434086 0.260711 1.04399 1.18864e-38 3
0.0278535 0.340057 1.36173 1.06933e-38 3
0.0498555 0.340057 1.36173 1.18007e-38 3
0.0724877 0.34304 1.37367 1.2446e-38 3
0.0938594 0.340057 1.36173 1.13397e-38 3
0.114863 0.337126 1.34999 1.14315e-38 3
0.134358 0.331412 1.32711 1.12475e-38 3
0.155801 0.331412 1.32711 1.12475e-38 3
0.171432 0.320546 1.28359 1.21695e-38 3
0.189072 0.315376 1.26289 1.06933e-38 3
0.206152 0.31037 1.24284 1.06011e-38 3
0.224452 0.307926 1.23306 1.13379e-38 3
0.236913 0.298524 1.19541 1.15226e-38 3
0.254287 0.296262 1.18635 1.10617e-38 3
0.269374 0.29184 1.16864 1.17989e-38 3
0.288256 0.29184 1.16864 1.14308e-38 3
0.307138 0.29184 1.16864 1.18907e-38 3
0.328472 0.294035 1.17743 1.16148e-38 3
0.436009 0.36893 1.47734 1.07869e-38 3
0.507783 0.40736 1.63123 9.03481e-39 3
0.557363 0.425072 1.70216 1.1062e-38 3
0.584866 0.425072 1.70216 9.6791e-39 3
0.612368 0.425072 1.70216 1.08776e-38 3
0.724732 0.227364 0.910456 8.11394e-39 3
0.739443 0.227364 0.910456 7.28417e-39 3
1.15447 0.253939 1.01687 4.97857e-39 3
-0.887753 0.266903 1.00384 1.09641e-38 3
-0.829103 0.3928 1.47734 1.54795e-38 3
-0.472101 0.270369 1.01687 1.29892e-38 3
-0.455671 0.270369 1.01687 1.43717e-38 3
-0.439241 0.270369 1.01687 1.52029e-38 3
-0.417391 0.266903 1.00384 1.52951e-38 3
-0.396093 0.263524 0.991129 1.52018e-38 3
-0.0786108 0.473146 1.77953 1.26276e-38 3
-0.0371824 0.352854 1.32711 1.16131e-38 3
-0.0157398 0.352854 1.32711 1.22577e-38 3
0.00560773 0.346973 1.30499 1.1429e-38 3
0.0266929 0.346973 1.30499 1.189e-38 3
0.0485879 0.352854 1.32711 1.17992e-38 3
0.0700305 0.352854 1.32711 1.24446e-38 3
0.0922549 0.35587 1.33845 1.16148e-38 3
0.113881 0.35587 1.33845 1.06014e-38 3
0.134358 0.352854 1.32711 1.07865e-38 3
0.154492 0.349889 1.31595 1.22588e-38 3
0.163396 0.325288 1.22343 1.29027e-38 3
0.18756 0.333095 1.25279 1.28102e-38 3
0.206152 0.330451 1.24284 1.17967e-38 3
0.224452 0.327849 1.23306 1.05989e-38 3
0.236913 0.317838 1.19541 1.19808e-38 3
0.254287 0.31543 1.18635 1.16123e-38 3
0.269374 0.310723 1.16864 1.21659e-38 3
0.288256 0.310723 1.16864 1.24432e-38 3
0.307138 0.310723 1.16864 1.24414e-38 3
0.328472 0.313059 1.17743 1.24424e-38 3
0.350129 0.31543 1.18635 1.16138e-38 3
0.369297 0.31543 1.18635 1.18904e-38 3
0.50272 0.408204 1.53528 1.19822e-38 3
0.527526 0.408204 1.53528 1.189e-38 3
0.612368 0.452574 1.70216 1.11524e-38 3
0.662215 0.385526 1.44999 9.95569e-39 3
0.701605 0.301716 1.13477 9.12557e-39 3
0.764244 0.320283 1.2046 8.75679e-39 3
0.749132 0.306153 1.15146 8.4802e-39 3
0.745801 0.297406 1.11856 8.94154e-39 3
0.715832 0.26023 0.97874 8.20541e-39 3
0.7138 0.253883 0.954868 8.02102e-39 3
0.711866 0.247838 0.932133 7.56005e-39 3
0.70186 0.239292 0.899991 7.37602e-39 3
0.684912 0.228774 0.860431 6.36186e-39 3
0.698814 0.228774 0.860431 7.00687e-39 3
-0.876515 0.279538 0.991129 8.66063e-39 3
-0.849745 0.276044 0.97874 9.85917e-39 3
-0.823636 0.272636 0.966657 1.05049e-38 3
-0.822054 0.294447 1.04399 1.13332e-38 3
-0.685356 0.30886 1.09509 1.71372e-38 3
-0.686875 0.317748 1.12661 1.67677e-38 3
-0.668672 0.317748 1.12661 1.70432e-38 3
-0.75346 0.368059 1.30499 1.61216e-38 3
-0.829103 0.41667 1.47734 1.61227e-38 3
-0.805233 0.41667 1.47734 1.53848e-38 3
-0.479196 0.281319 0.997442 1.25289e-38 3
-0.460149 0.279538 0.991129 1.29895e-38 3
-0.449829 0.283122 1.00384 1.43717e-38 3
-0.43361 0.283122 1.00384 1.52937e-38 3
-0.412107 0.279538 0.991129 1.48327e-38 3
-0.391142 0.276044 0.97874 1.4832e-38 3
-0.375328 0.276044 0.97874 1.55681e-38 3
-0.0660697 0.30886 1.09509 1.33626e-38 3
-0.0483759 0.30886 1.09509 1.29927e-38 3
-0.030898 0.311035 1.10281 1.36388e-38 3
-0.0142869 0.339746 1.2046 1.23488e-38 3
0.00517637 0.339746 1.2046 1.41016e-38 3
0.0252217 0.347772 1.23306 1.28116e-38 3
0.0477781 0.368059 1.30499 1.29038e-38 3
0.0688634 0.368059 1.30499 1.22584e-38 3
0.0907044 0.371152 1.31595 1.17982e-38 3
0.111967 0.371152 1.31595 1.17992e-38 3
0.133229 0.371152 1.31595 1.25372e-38 3
0.145909 0.350532 1.24284 1.31797e-38 3
0.163396 0.345055 1.22343 1.31757e-38 3
0.183164 0.345055 1.22343 1.40969e-38 3
0.201358 0.34238 1.21394 1.40984e-38 3
0.219272 0.339746 1.2046 1.29016e-38 3
0.231609 0.329605 1.16864 1.28091e-38 3
0.250491 0.329605 1.16864 1.2624e-38 3
0.265412 0.324758 1.15146 1.2902e-38 3
0.286121 0.327163 1.15999 1.28105e-38 3
0.304863 0.327163 1.15999 1.3547e-38 3
0.326021 0.329605 1.16864 1.41924e-38 3
0.347496 0.332083 1.17743 1.33633e-38 3
0.36652 0.332083 1.17743 1.21648e-38 3
0.406964 0.350532 1.24284 1.24414e-38 3
0.527526 0.43301 1.53528 1.22577e-38 3
0.644757 0.412776 1.46354 9.4018e-39 3
0.67471 0.41667 1.47734 9.95461e-39 3
0.718927 0.428806 1.52037 1.02305e-38 3
0.627702 0.362025 1.28359 1.07829e-38 3
0.657581 0.345055 1.22343 1.05056e-38 3
0.647019 0.329605 1.16864 8.75499e-39 3
0.656109 0.324758 1.15146 8.85006e-39 3
0.674713 0.324758 1.15146 1.06929e-38 3
0.664023 0.311035 1.10281 8.94118e-39 3
0.681841 0.311035 1.10281 9.86278e-39 3
0.675862 0.300456 1.0653 9.67767e-39 3
0.657303 0.284949 1.01031 8.84827e-39 3
0.678001 0.286799 1.01687 8.11178e-39 3
0.685528 0.283122 1.00384 8.48056e-39 3
0.692865 0.279538 0.991129 9.03446e-39 3
0.708879 0.279538 0.991129 7.46749e-39 3
0.706994 0.272636 0.966657 9.31104e-39 3
0.7138 0.269311 0.954868 9.40288e-39 3
0.703491 0.259806 0.921167 9.58763e-39 3
0.678465 0.245372 0.869991 7.83627e-39 3
0.684912 0.242676 0.860431 6.82212e-39 3
0.698814 0.242676 0.860431 6.17675e-39 3
0.754153 0.256785 0.910456 8.8497e-39 3
0.958294 0.320051 1.13477 8.29616e-39 3
-0.915712 0.303229 1.01687 1.13332e-38 3
-0.887753 0.299341 1.00384 9.85882e-39 3
-0.860501 0.295552 0.991129 8.75355e-39 3
-0.833931 0.291858 0.97874 9.30636e-39 3
-0.833366 0.309253 1.03708 9.95137e-39 3
-0.81661 0.309253 1.03708 1.06879e-38 3
-0.799853 0.309253 1.03708 1.13325e-38 3
-0.77286 0.305211 1.02352 1.41895e-38 3
-0.761299 0.307219 1.03025 1.50175e-38 3
-0.73024 0.301273 1.01031 1.48323e-38 3
-0.691606 0.291858 0.97874 1.52922e-38 3
-0.667449 0.288255 0.966657 1.52926e-38 3
-0.750269 0.348487 1.16864 1.57539e-38 3
-0.649045 0.309253 1.03708 1.55696e-38 3
-0.696902 0.340856 1.14305 1.40022e-38 3
-0.726136 0.364822 1.22343 1.20654e-38 3
-0.717581 0.370613 1.24284 1.27108e-38 3
-0.829103 0.44054 1.47734 1.22501e-38 3
-0.458743 0.284739 0.954868 1.38186e-38 3
-0.443315 0.284739 0.954868 1.40951e-38 3
-0.427886 0.284739 0.954868 1.47405e-38 3
-0.428121 0.295552 0.991129 1.50167e-38 3
-0.406956 0.291858 0.97874 1.51075e-38 3
-0.377004 0.281309 0.943364 1.5199e-38 3
-0.361762 0.281309 0.943364 1.63046e-38 3
-0.359327 0.319844 1.07259 1.55695e-38 3
-0.328497 0.307219 1.03025 1.61224e-38 3
-0.316009 0.311315 1.04399 1.48323e-38 3
-0.305246 0.317668 1.0653 1.43728e-38 3
-0.30029 0.331186 1.11063 1.62185e-38 3
-0.290589 0.340856 1.14305 1.48363e-38 3
-0.143501 0.303229 1.01687 1.2629e-38 3
-0.127071 0.303229 1.01687 1.04163e-38 3
-0.112839 0.309253 1.03708 1.07865e-38 3
-0.0960823 0.309253 1.03708 1.18914e-38 3
-0.0803906 0.313404 1.051 1.22577e-38 3
-0.0634092 0.313404 1.051 1.52047e-38 3
-0.0467415 0.315522 1.0581 1.47427e-38 3
-0.0296454 0.315522 1.0581 1.502e-38 3
-0.0127212 0.319844 1.07259 1.46519e-38 3
0.00487629 0.338386 1.13477 1.36392e-38 3
0.0235526 0.343362 1.15146 1.40995e-38 3
0.0473833 0.385928 1.2942 1.29009e-38 3
0.0688634 0.389144 1.30499 1.46519e-38 3
0.0907044 0.392414 1.31595 1.34544e-38 3
0.112916 0.395739 1.32711 1.28102e-38 3
0.134358 0.395739 1.32711 1.32697e-38 3
0.143629 0.364822 1.22343 1.41891e-38 3
0.163396 0.364822 1.22343 1.51997e-38 3
0.183164 0.364822 1.22343 1.62131e-38 3
0.196782 0.353767 1.18635 1.63975e-38 3
0.214326 0.351107 1.17743 1.44639e-38 3
0.229894 0.345906 1.15999 1.56635e-38 3
0.246808 0.343362 1.15146 1.57557e-38 3
0.263475 0.340856 1.14305 1.31761e-38 3
0.284017 0.343362 1.15146 1.31782e-38 3
0.304863 0.345906 1.15999 1.39147e-38 3
0.328472 0.351107 1.17743 1.29924e-38 3
0.352801 0.356468 1.19541 1.33612e-38 3
0.386883 0.370613 1.24284 1.29002e-38 3
0.406964 0.370613 1.24284 1.2808e-38 3
0.448397 0.389144 1.30499 1.32693e-38 3
0.615359 0.432382 1.44999 1.17953e-38 3
0.638787 0.432382 1.44999 1.10581e-38 3
0.668404 0.436423 1.46354 1.05982e-38 3
0.725975 0.457816 1.53528 1.05989e-38 3
0.617578 0.376591 1.26289 1.01383e-38 3
0.618046 0.364822 1.22343 8.84718e-39 3
0.637814 0.364822 1.22343 9.03014e-39 3
0.637654 0.353767 1.18635 9.76735e-39 3
0.637504 0.343362 1.15146 1.05064e-38 3
0.656109 0.343362 1.15146 1.01397e-38 3
0.615846 0.313404 1.051 1.12468e-38 3
0.641437 0.317668 1.0653 9.95569e-39 3
0.663161 0.319844 1.07259 1.07847e-38 3
0.66679 0.313404 1.051 1.04152e-38 3
0.661571 0.303229 1.01687 9.86134e-39 3
0.678001 0.303229 1.01687 9.95425e-39 3
0.685528 0.299341 1.00384 9.49435e-39 3
0.692865 0.295552 0.991129 9.3114e-39 3
0.708879 0.295552 0.991129 7.2831e-39 3
0.715832 0.291858 0.97874 9.30996e-39 3
0.722613 0.288255 0.966657 7.92703e-39 3
0.720443 0.281309 0.943364 8.29689e-39 3
0.678465 0.259429 0.869991 7.74372e-39 3
0.692522 0.259429 0.869991 9.03446e-39 3
0.739443 0.271496 0.910456 7.65081e-39 3
0.781412 0.281309 0.943364 7.37386e-39 3
0.958294 0.338386 1.13477 8.94154e-39 3
1.12312 0.389144 1.30499 9.03337e-39 3
1.14421 0.389144 1.30499 9.30852e-39 3
1.20548 0.402563 1.34999 9.30781e-39 3
1.18638 0.389144 1.30499 8.38585e-39 3
1.18767 0.382764 1.28359 1.04142e-38 3
1.13405 0.35921 1.2046 7.7412e-39 3
1.05603 0.328854 1.10281 7.2813e-39 3
0.965104 0.295552 0.991129 7.55825e-39 3
0.968854 0.291858 0.97874 7.28166e-39 3
0.984668 0.291858 0.97874 6.54517e-39 3
1.0987 0.315522 1.0581 5.53102e-39 3
-0.915712 0.319659 1.01687 9.30564e-39 3
-0.887753 0.315561 1.00384 8.29149e-39 3
-0.849745 0.307672 0.97874 1.15183e-38 3
-0.833931 0.307672 0.97874 1.10577e-38 3
-0.818117 0.307672 0.97874 9.58223e-39 3
-0.833366 0.32601 1.03708 1.13343e-38 3
-0.81661 0.32601 1.03708 1.22552e-38 3
-0.799853 0.32601 1.03708 1.23459e-38 3
-0.757998 0.315561 1.00384 1.28058e-38 3
-0.746564 0.317597 1.01031 1.33587e-38 3
-0.73024 0.317597 1.01031 1.30821e-38 3
-0.691606 0.307672 0.97874 1.32654e-38 3
-0.663354 0.302009 0.960726 1.29895e-38 3
-0.643881 0.300168 0.954868 1.04073e-38 3
-0.599223 0.286206 0.910456 1.04992e-38 3
-0.577794 0.282917 0.899991 1.21587e-38 3
-0.569801 0.286206 0.910456 1.24356e-38 3
-0.555091 0.286206 0.910456 1.19746e-38 3
-0.54038 0.286206 0.910456 1.22509e-38 3
-0.551312 0.300168 0.954868 1.22509e-38 3
-0.732375 0.410229 1.30499 1.38182e-38 3
-0.4837 0.296551 0.943364 1.33576e-38 3
-0.450502 0.294775 0.937715 1.31743e-38 3
-0.435351 0.294775 0.937715 1.43728e-38 3
-0.407985 0.286206 0.910456 1.39108e-38 3
-0.384336 0.279702 0.889764 1.40948e-38 3
-0.348197 0.263249 0.837425 1.48305e-38 3
-0.331125 0.260463 0.828563 1.52908e-38 3
-0.319428 0.261848 0.83297 1.47383e-38 3
-0.314329 0.269003 0.855729 1.42774e-38 3
-0.300503 0.269003 0.855729 1.34487e-38 3
-0.319889 0.300168 0.954868 1.33554e-38 3
-0.316023 0.311566 0.991129 1.35409e-38 3
-0.305815 0.317597 1.01031 1.33572e-38 3
-0.29716 0.32601 1.03708 1.47416e-38 3
-0.290006 0.337175 1.07259 1.4559e-38 3
-0.272676 0.337175 1.07259 1.43753e-38 3
-0.253608 0.334881 1.0653 1.55753e-38 3
-0.182279 0.330386 1.051 1.22577e-38 3
-0.163108 0.32601 1.03708 1.27187e-38 3
-0.138119 0.307672 0.97874 1.18893e-38 3
-0.122305 0.307672 0.97874 1.2719e-38 3
-0.10082 0.291287 0.926618 1.189e-38 3
-0.0942105 0.319659 1.01687 1.24425e-38 3
-0.0793258 0.32601 1.03708 1.29938e-38 3
-0.0625694 0.32601 1.03708 1.50189e-38 3
-0.0458129 0.32601 1.03708 1.57547e-38 3
-0.0290564 0.32601 1.03708 1.49249e-38 3
-0.012382 0.328183 1.04399 1.45572e-38 3
0.00457774 0.334881 1.0653 1.5665e-38 3
0.0217902 0.334881 1.0653 1.49267e-38 3
0.0427864 0.367369 1.16864 1.56625e-38 3
0.0616687 0.367369 1.16864 1.43714e-38 3
0.080551 0.367369 1.16864 1.52937e-38 3
0.10094 0.372936 1.18635 1.55706e-38 3
0.135507 0.420748 1.33845 1.45558e-38 3
0.141419 0.378673 1.2046 1.40008e-38 3
0.160883 0.378673 1.2046 1.56581e-38 3
0.177613 0.372936 1.18635 1.74081e-38 3
0.196782 0.372936 1.18635 1.65783e-38 3
0.212727 0.367369 1.16864 1.7134e-38 3
0.226537 0.359325 1.14305 1.64897e-38 3
0.241481 0.354155 1.12661 1.68581e-38 3
0.259684 0.354155 1.12661 1.51086e-38 3
0.279901 0.356721 1.13477 1.3453e-38 3
0.300413 0.359325 1.14305 1.41913e-38 3
0.323606 0.364648 1.15999 1.44664e-38 3
0.36107 0.38459 1.22343 1.51111e-38 3
0.380838 0.38459 1.22343 1.38203e-38 3
0.400605 0.38459 1.22343 1.33601e-38 3
0.427045 0.390694 1.24284 1.43735e-38 3
0.532738 0.410229 1.30499 1.39133e-38 3
0.519209 0.38459 1.22343 1.45586e-38 3
0.538977 0.38459 1.22343 1.4375e-38 3
0.558744 0.38459 1.22343 1.48359e-38 3
0.578511 0.38459 1.22343 1.22559e-38 3
0.598279 0.38459 1.22343 1.18889e-38 3
0.618046 0.38459 1.22343 1.18889e-38 3
0.618486 0.372936 1.18635 1.2625e-38 3
0.628137 0.367369 1.16864 1.16098e-38 3
0.61929 0.351625 1.11856 1.14261e-38 3
0.637363 0.351625 1.11856 1.21655e-38 3
0.595851 0.319659 1.01687 1.00461e-38 3
0.608331 0.317597 1.01031 9.6773e-39 3
0.628711 0.319659 1.01687 9.12413e-39 3
0.640979 0.317597 1.01031 9.95389e-39 3
0.648929 0.313551 0.997442 1.0322e-38 3
0.678001 0.319659 1.01687 9.8617e-39 3
0.694431 0.319659 1.01687 8.94082e-39 3
0.738231 0.303873 0.966657 8.20362e-39 3
0.735685 0.296551 0.943364 7.09906e-39 3
0.724732 0.286206 0.910456 6.91396e-39 3
0.76617 0.296551 0.943364 7.46605e-39 3
0.853384 0.323865 1.03025 8.57168e-39 3
1.01727 0.378673 1.2046 8.38729e-39 3
1.05293 0.38459 1.22343 8.84719e-39 3
1.0727 0.38459 1.22343 8.66244e-39 3
1.14619 0.403504 1.28359 8.38477e-39 3
1.11223 0.38459 1.22343 8.10854e-39 3
1.11458 0.378673 1.2046 9.86098e-39 3
1.11686 0.372936 1.18635 8.01779e-39 3
1.05603 0.346672 1.10281 8.75643e-39 3
0.959034 0.309607 0.984896 8.01922e-39 3
0.933835 0.296551 0.943364 7.92703e-39 3
0.943394 0.294775 0.937715 5.34519e-39 3
0.994268 0.305761 0.972661 6.17495e-39 3
1.06978 0.323865 1.03025 6.08312e-39 3
1.25104 0.372936 1.18635 6.08312e-39 3
-0.915712 0.336089 1.01687 1.08737e-38 3
-0.876515 0.32758 0.991129 1.09652e-38 3
-0.849745 0.323486 0.97874 1.02262e-38 3
-0.833931 0.323486 0.97874 1.06879e-38 3
-0.818117 0.323486 0.97874 1.05042e-38 3
-0.828184 0.333921 1.01031 1.11499e-38 3
-0.81186 0.333921 1.01031 1.11499e-38 3
-0.800702 0.336089 1.01687 1.23474e-38 3
-0.779212 0.333921 1.01031 1.27154e-38 3
-0.729924 0.319492 0.966657 1.22537e-38 3
-0.705594 0.315596 0.954868 1.18853e-38 3
-0.681851 0.311793 0.943364 1.17931e-38 3
-0.662617 0.309926 0.937715 1.19779e-38 3
-0.628644 0.300917 0.910456 1.22527e-38 3
-0.621156 0.304457 0.921167 1.14211e-38 3
-0.599223 0.300917 0.910456 1.27129e-38 3
-0.577794 0.297458 0.899991 1.34494e-38 3
-0.547519 0.289149 0.874851 1.262e-38 3
-0.53042 0.287543 0.869991 1.46494e-38 3
-0.516363 0.287543 0.869991 1.48334e-38 3
-0.50795 0.290774 0.879766 1.42799e-38 3
-0.477636 0.281292 0.851078 1.38189e-38 3
-0.463884 0.281292 0.851078 1.32657e-38 3
-0.452593 0.282829 0.855729 1.37264e-38 3
-0.448571 0.289149 0.874851 1.34508e-38 3
-0.434436 0.289149 0.874851 1.4004e-38 3
-0.422662 0.290774 0.879766 1.39118e-38 3
-0.403909 0.287543 0.869991 1.36352e-38 3
-0.385568 0.284383 0.860431 1.33587e-38 3
-0.365639 0.279771 0.846478 1.40951e-38 3
-0.344513 0.27385 0.828563 1.50167e-38 3
-0.325952 0.269571 0.815617 1.42774e-38 3
-0.312773 0.269571 0.815617 1.29874e-38 3
-0.301164 0.270983 0.819887 1.32647e-38 3
-0.290963 0.27385 0.828563 1.29892e-38 3
-0.306794 0.302677 0.91578 1.29877e-38 3
-0.297212 0.308082 0.932133 1.35412e-38 3
-0.290806 0.317532 0.960726 1.47412e-38 3
-0.276982 0.319492 0.966657 1.50193e-38 3
-0.274941 0.336089 1.01687 1.40987e-38 3
-0.258511 0.336089 1.01687 1.36374e-38 3
-0.266289 0.369698 1.11856 1.31782e-38 3
-0.248216 0.369698 1.11856 1.45615e-38 3
-0.219184 0.352093 1.0653 1.36396e-38 3
-0.203355 0.354505 1.07259 1.40065e-38 3
-0.184759 0.352093 1.0653 1.41906e-38 3
-0.153933 0.323486 0.97874 1.45601e-38 3
-0.138119 0.323486 0.97874 1.40987e-38 3
-0.111822 0.295758 0.894848 1.38236e-38 3
-0.0973637 0.295758 0.894848 1.26261e-38 3
-0.0863597 0.308082 0.932133 1.2441e-38 3
-0.0782889 0.338286 1.02352 1.1885e-38 3
-0.0617515 0.338286 1.02352 1.37264e-38 3
-0.0449204 0.336089 1.01687 1.34487e-38 3
-0.0286766 0.338286 1.02352 1.4738e-38 3
-0.0122191 0.340511 1.03025 1.4555e-38 3
0.00445648 0.342766 1.03708 1.48327e-38 3
0.0213544 0.345051 1.04399 1.46476e-38 3
0.0367524 0.33178 1.00384 1.41845e-38 3
0.0536598 0.336089 1.01687 1.34491e-38 3
0.0674614 0.323486 0.97874 1.44639e-38 3
0.0822472 0.319492 0.966657 1.4555e-38 3
0.0972655 0.317532 0.960726 1.46454e-38 3
0.112101 0.315596 0.954868 1.42759e-38 3
0.127529 0.315596 0.954868 1.52894e-38 3
0.141235 0.311793 0.943364 1.54716e-38 3
0.157425 0.313683 0.949081 1.61166e-38 3
0.190036 0.345051 1.04399 1.52894e-38 3
0.206904 0.345051 1.04399 1.56599e-38 3
0.228339 0.352093 1.0653 1.61198e-38 3
0.250667 0.359429 1.08749 1.59369e-38 3
0.273945 0.367076 1.11063 1.40044e-38 3
0.298236 0.375056 1.13477 1.31779e-38 3
0.321226 0.380571 1.15146 1.40062e-38 3
0.339831 0.380571 1.15146 1.42806e-38 3
0.353241 0.375056 1.13477 1.45576e-38 3
0.371576 0.375056 1.13477 1.41888e-38 3
0.395645 0.380571 1.15146 1.39108e-38 3
0.44014 0.404357 1.22343 1.37264e-38 3
0.479674 0.404357 1.22343 1.48327e-38 3
0.470063 0.380571 1.15146 1.47405e-38 3
0.461519 0.359429 1.08749 1.47405e-38 3
0.492779 0.369698 1.11856 1.40951e-38 3
0.496661 0.359429 1.08749 1.4187e-38 3
0.528925 0.369698 1.11856 1.37274e-38 3
0.554925 0.375056 1.13477 1.33612e-38 3
0.57326 0.375056 1.13477 1.30849e-38 3
0.591595 0.375056 1.13477 1.28995e-38 3
0.601217 0.369698 1.11856 1.36367e-38 3
0.610567 0.364491 1.10281 1.40987e-38 3
0.594872 0.345051 1.04399 1.24414e-38 3
0.595851 0.336089 1.01687 1.07829e-38 3
0.612281 0.336089 1.01687 9.76914e-39 3
0.628711 0.336089 1.01687 9.86133e-39 3
0.640979 0.333921 1.01031 9.49219e-39 3
0.653089 0.33178 1.00384 9.30781e-39 3
0.673627 0.333921 1.01031 9.4e-39 3
0.685528 0.33178 1.00384 9.67731e-39 3
0.747459 0.323486 0.97874 8.66459e-39 3
0.75385 0.319492 0.966657 8.20541e-39 3
0.760085 0.315596 0.954868 7.74371e-39 3
0.785087 0.319492 0.966657 8.11106e-39 3
0.913482 0.364491 1.10281 7.74084e-39 3
0.972387 0.380571 1.15146 9.21562e-39 3
1.05293 0.404357 1.22343 9.49184e-39 3
1.0727 0.404357 1.22343 9.0305e-39 3
1.09246 0.404357 1.22343 8.47625e-39 3
1.09512 0.398136 1.2046 8.29294e-39 3
1.0977 0.392104 1.18635 8.66172e-39 3
1.08401 0.380571 1.15146 8.20146e-39 3
1.05603 0.364491 1.10281 7.46426e-39 3
0.913092 0.309926 0.937715 6.45154e-39 3
0.928243 0.309926 0.937715 7.09655e-39 3
0.943394 0.309926 0.937715 6.63485e-39 3
0.958546 0.309926 0.937715 7.00363e-39 3
0.997591 0.317532 0.960726 7.09655e-39 3
-0.903972 0.348 1.00384 1.01358e-38 3
-0.854873 0.335111 0.966657 1.02262e-38 3
-0.819031 0.327036 0.943364 1.05942e-38 3
-0.803789 0.327036 0.943364 1.09637e-38 3
-0.719224 0.298285 0.860431 1.03191e-38 3
-0.733535 0.310217 0.894848 8.84502e-39 3
-0.772014 0.333055 0.960726 7.46245e-39 3
-0.761161 0.335111 0.966657 1.14254e-38 3
-0.727578 0.327036 0.943364 1.12403e-38 3
-0.712335 0.327036 0.943364 1.13332e-38 3
-0.692919 0.325077 0.937715 1.14261e-38 3
-0.665807 0.319341 0.921167 1.13329e-38 3
-0.621668 0.304988 0.879766 1.22548e-38 3
-0.607454 0.304988 0.879766 1.17928e-38 3
-0.603409 0.310217 0.894848 1.26215e-38 3
-0.575789 0.303285 0.874851 1.17928e-38 3
-0.529137 0.285726 0.824202 1.18832e-38 3
-0.507802 0.281285 0.811391 1.24367e-38 3
-0.497269 0.28275 0.815617 1.40047e-38 3
-0.491775 0.287238 0.828563 1.40047e-38 3
-0.475869 0.285726 0.824202 1.30846e-38 3
-0.437239 0.270089 0.779097 1.29906e-38 3
-0.446883 0.28423 0.819887 1.27133e-38 3
-0.440556 0.288766 0.83297 1.29899e-38 3
-0.427097 0.288766 0.83297 1.25303e-38 3
-0.413639 0.288766 0.83297 1.24381e-38 3
-0.404483 0.291871 0.841927 1.31757e-38 3
-0.386721 0.288766 0.83297 1.32668e-38 3
-0.373263 0.288766 0.83297 1.40044e-38 3
-0.345118 0.276979 0.798972 1.37274e-38 3
-0.332209 0.276979 0.798972 1.32668e-38 3
-0.317679 0.275573 0.794916 1.28044e-38 3
-0.304835 0.275573 0.794916 1.29888e-38 3
-0.293481 0.276979 0.798972 1.3081e-38 3
-0.286417 0.28275 0.815617 1.31732e-38 3
-0.282053 0.291871 0.841927 1.32654e-38 3
-0.285323 0.310217 0.894848 1.27133e-38 3
-0.282151 0.323142 0.932133 1.26218e-38 3
-0.263948 0.319341 0.921167 1.2992e-38 3
-0.247608 0.317473 0.91578 1.29006e-38 3
-0.232811 0.317473 0.91578 1.19793e-38 3
-0.248536 0.36192 1.04399 1.2441e-38 3
-0.22862 0.357157 1.03025 1.18878e-38 3
-0.206538 0.348 1.00384 1.24403e-38 3
-0.185561 0.3393 0.97874 1.50203e-38 3
-0.167652 0.335111 0.966657 1.52962e-38 3
-0.152033 0.335111 0.966657 1.45579e-38 3
-0.116311 0.285726 0.824202 1.52015e-38 3
-0.105778 0.293448 0.846478 1.40055e-38 3
-0.0921008 0.293448 0.846478 1.44664e-38 3
-0.0829053 0.310217 0.894848 1.40044e-38 3
-0.0721578 0.327036 0.943364 1.37274e-38 3
-0.0590498 0.3393 0.97874 1.51089e-38 3
-0.0432359 0.3393 0.97874 1.71336e-38 3
-0.0277691 0.343595 0.991129 1.91612e-38 3
-0.0120604 0.352519 1.01687 1.72269e-38 3
0.00431364 0.348 1.00384 1.61224e-38 3
0.0202731 0.343595 0.991129 1.49227e-38 3
0.0362872 0.343595 0.991129 1.50149e-38 3
0.0547258 0.359523 1.03708 1.57521e-38 3
0.0696376 0.350245 1.01031 1.46462e-38 3
0.0837991 0.341434 0.984896 1.50149e-38 3
0.0949358 0.325077 0.937715 1.60287e-38 3
0.109432 0.323142 0.932133 1.56589e-38 3
0.123756 0.32123 0.926618 1.57503e-38 3
0.137911 0.319341 0.921167 1.62106e-38 3
0.151902 0.317473 0.91578 1.69471e-38 3
0.164771 0.313803 0.905193 1.61191e-38 3
0.18044 0.315628 0.910456 1.72255e-38 3
0.197446 0.319341 0.921167 1.56585e-38 3
0.240641 0.36192 1.04399 1.50149e-38 3
0.257509 0.36192 1.04399 1.48334e-38 3
0.278085 0.36681 1.0581 1.2992e-38 3
0.285534 0.354823 1.02352 1.29924e-38 3
0.30011 0.352519 1.01687 1.28998e-38 3
0.302778 0.337192 0.972661 1.31757e-38 3
0.318493 0.337192 0.972661 1.2992e-38 3
0.334209 0.337192 0.972661 1.28977e-38 3
0.356569 0.343595 0.991129 1.33565e-38 3
0.363383 0.335111 0.966657 1.28966e-38 3
0.379002 0.335111 0.966657 1.29906e-38 3
0.409798 0.348 1.00384 1.36342e-38 3
0.426018 0.348 1.00384 1.51086e-38 3
0.442237 0.348 1.00384 1.42788e-38 3
0.452653 0.343595 0.991129 1.46472e-38 3
0.474676 0.348 1.00384 1.44625e-38 3
0.497271 0.352519 1.01687 1.41873e-38 3
0.565071 0.387771 1.11856 1.34523e-38 3
0.583144 0.387771 1.11856 1.42813e-38 3
0.592749 0.382309 1.10281 1.40966e-38 3
0.578004 0.36192 1.04399 1.44664e-38 3
0.571992 0.348 1.00384 1.34534e-38 3
0.580766 0.343595 0.991129 1.2441e-38 3
0.58932 0.3393 0.97874 1.20722e-38 3
0.605134 0.3393 0.97874 1.27176e-38 3
0.620948 0.3393 0.97874 1.27187e-38 3
0.636762 0.3393 0.97874 1.2073e-38 3
0.652576 0.3393 0.97874 1.1151e-38 3
0.672594 0.341434 0.984896 1.07815e-38 3
0.667516 0.331024 0.954868 1.10581e-38 3
0.700018 0.3393 0.97874 1.14269e-38 3
0.715832 0.3393 0.97874 1.06893e-38 3
0.731645 0.3393 0.97874 9.1227e-39 3
0.747459 0.3393 0.97874 8.84755e-39 3
0.75385 0.335111 0.966657 9.03373e-39 3
0.769469 0.335111 0.966657 7.92846e-39 3
0.785087 0.335111 0.966657 7.74299e-39 3
0.853384 0.357157 1.03025 9.21597e-39 3
0.9313 0.382309 1.10281 9.67624e-39 3
1.03673 0.4176 1.2046 9.03087e-39 3
1.05619 0.4176 1.2046 8.84611e-39 3
1.09246 0.424125 1.22343 8.75391e-39 3
1.07853 0.411272 1.18635 8.1993e-39 3
1.06541 0.399176 1.15146 8.29221e-39 3
1.03821 0.382309 1.10281 8.9383e-39 3
0.897941 0.325077 0.937715 8.29365e-39 3
0.902287 0.32123 0.926618 9.21597e-39 3
0.928243 0.325077 0.937715 7.55753e-39 3
0.943394 0.325077 0.937715 6.81924e-39 3
0.958546 0.325077 0.937715 6.63341e-39 3
0.985499 0.329018 0.949081 7.00291e-39 3
-0.870492 0.350729 0.966657 9.30492e-39 3
-0.814644 0.334224 0.921167 1.08708e-38 3
-0.772496 0.32283 0.889764 1.00411e-38 3
-0.758119 0.32283 0.889764 9.3964e-39 3
-0.707561 0.307125 0.846478 1.09644e-38 3
-0.693884 0.307125 0.846478 8.66063e-39 3
-0.669353 0.302224 0.83297 1.04127e-38 3
-0.645592 0.297477 0.819887 8.84359e-39 3
-0.619374 0.291375 0.803069 8.84431e-39 3
-0.606398 0.291375 0.803069 9.49039e-39 3
-0.63581 0.312188 0.860431 8.20038e-39 3
-0.595722 0.299043 0.824202 9.85954e-39 3
-0.582405 0.299043 0.824202 1.1241e-38 3
-0.575142 0.302224 0.83297 1.07797e-38 3
-0.57703 0.310482 0.855729 1.08715e-38 3
-0.536804 0.295928 0.815617 1.06871e-38 3
-0.520912 0.294395 0.811391 1.24374e-38 3
-0.492492 0.285518 0.786927 1.20683e-38 3
-0.479777 0.285518 0.786927 1.30835e-38 3
-0.467062 0.285518 0.786927 1.22548e-38 3
-0.454348 0.285518 0.786927 1.27158e-38 3
-0.435074 0.281278 0.77524 1.18853e-38 3
-0.431084 0.28696 0.790901 1.22537e-38 3
-0.433636 0.297477 0.819887 1.1885e-38 3
-0.424837 0.300625 0.828563 1.15169e-38 3
-0.409284 0.299043 0.824202 1.26225e-38 3
-0.395967 0.299043 0.824202 1.25289e-38 3
-0.376703 0.294395 0.811391 1.23449e-38 3
-0.363593 0.294395 0.811391 1.19768e-38 3
-0.341632 0.28696 0.790901 1.2253e-38 3
-0.328853 0.28696 0.790901 1.25293e-38 3
-0.316074 0.28696 0.790901 1.14229e-38 3
-0.303295 0.28696 0.790901 1.18839e-38 3
-0.290516 0.28696 0.790901 1.21605e-38 3
-0.280572 0.289889 0.798972 1.28055e-38 3
-0.273239 0.295928 0.815617 1.21601e-38 3
-0.26006 0.295928 0.815617 1.30817e-38 3
-0.256223 0.307125 0.846478 1.34512e-38 3
-0.25495 0.32283 0.889764 1.31757e-38 3
-0.240573 0.32283 0.889764 1.28998e-38 3
-0.224919 0.321007 0.884737 1.12418e-38 3
-0.233003 0.355114 0.97874 1.20722e-38 3
-0.217189 0.355114 0.97874 1.17956e-38 3
-0.201375 0.355114 0.97874 1.24399e-38 3
-0.158769 0.30384 0.837425 1.35445e-38 3
-0.142945 0.299043 0.824202 1.36352e-38 3
-0.128949 0.297477 0.819887 1.40033e-38 3
-0.115099 0.295928 0.815617 1.53848e-38 3
-0.10409 0.302224 0.83297 1.41866e-38 3
-0.0916056 0.305474 0.841927 1.52e-38 3
-0.0788501 0.308794 0.851078 1.52922e-38 3
-0.0676734 0.321007 0.884737 1.55678e-38 3
-0.0562379 0.338203 0.932133 1.67652e-38 3
-0.0411771 0.338203 0.932133 1.66719e-38 3
-0.0259617 0.336202 0.926618 1.60262e-38 3
-0.0116081 0.355114 0.97874 1.65805e-38 3
0.00405378 0.342278 0.943364 1.55681e-38 3
0.0192961 0.342278 0.943364 1.68588e-38 3
0.0308246 0.305474 0.841927 1.50142e-38 3
0.0446681 0.307125 0.846478 1.59365e-38 3
0.0650231 0.342278 0.943364 1.51071e-38 3
0.0802654 0.342278 0.943364 1.5199e-38 3
0.0943707 0.338203 0.932133 1.58443e-38 3
0.106887 0.330338 0.910456 1.68574e-38 3
0.1202 0.326541 0.899991 1.63042e-38 3
0.133971 0.324675 0.894848 1.70407e-38 3
0.149283 0.326541 0.899991 1.72248e-38 3
0.158363 0.315656 0.869991 1.70414e-38 3
0.17242 0.315656 0.869991 1.83318e-38 3
0.189638 0.321007 0.884737 1.72262e-38 3
0.203933 0.321007 0.884737 1.54759e-38 3
0.232689 0.342278 0.943364 1.50171e-38 3
0.255631 0.352908 0.972661 1.38222e-38 3
0.268017 0.348578 0.960726 1.24403e-38 3
0.273473 0.336202 0.926618 1.18871e-38 3
0.288445 0.336202 0.926618 1.25325e-38 3
0.305223 0.338203 0.932133 1.27165e-38 3
0.322201 0.340229 0.937715 1.29913e-38 3
0.343524 0.346452 0.954868 1.31739e-38 3
0.354627 0.342278 0.943364 1.35427e-38 3
0.365466 0.338203 0.932133 1.26218e-38 3
0.404611 0.359609 0.991129 1.28973e-38 3
0.415367 0.355114 0.97874 1.28959e-38 3
0.431181 0.355114 0.97874 1.34498e-38 3
0.436093 0.346452 0.954868 1.40948e-38 3
0.457095 0.350729 0.966657 1.46472e-38 3
0.466949 0.346452 0.954868 1.48327e-38 3
0.513701 0.368949 1.01687 1.38203e-38 3
0.583144 0.405844 1.11856 1.23445e-38 3
0.585815 0.383906 1.0581 1.3359e-38 3
0.571992 0.364219 1.00384 1.30842e-38 3
0.573506 0.355114 0.97874 1.26247e-38 3
0.58932 0.355114 0.97874 1.25328e-38 3
0.590375 0.346452 0.954868 1.07815e-38 3
0.577626 0.330338 0.910456 1.03216e-38 3
0.621231 0.346452 0.954868 9.58367e-39 3
0.640565 0.348578 0.960726 1.02294e-38 3
0.656088 0.348578 0.960726 9.67479e-39 3
0.629153 0.326541 0.899991 9.76734e-39 3
0.666683 0.338203 0.932133 1.05967e-38 3
0.698372 0.346452 0.954868 1.05038e-38 3
0.7138 0.346452 0.954868 9.95066e-39 3
0.738231 0.350729 0.966657 7.73976e-39 3
0.75385 0.350729 0.966657 7.92667e-39 3
0.760085 0.346452 0.954868 8.29689e-39 3
0.775513 0.346452 0.954868 8.48056e-39 3
0.800706 0.350729 0.966657 9.40072e-39 3
0.826529 0.355114 0.97874 9.1227e-39 3
0.886677 0.373804 1.03025 9.85955e-39 3
0.980751 0.405844 1.11856 8.75284e-39 3
1.0282 0.417781 1.15146 8.56808e-39 3
0.961929 0.383906 1.0581 9.49076e-39 3
0.979025 0.383906 1.0581 8.47661e-39 3
0.98284 0.378788 1.04399 8.9383e-39 3
0.887315 0.336202 0.926618 8.47769e-39 3
0.902287 0.336202 0.926618 6.17316e-39 3
0.922718 0.338203 0.932133 5.89765e-39 3
0.949078 0.342278 0.943364 7.649e-39 3
0.958546 0.340229 0.937715 7.83231e-39 3
-0.829527 0.349108 0.921167 9.85701e-39 3
-0.75266 0.322546 0.851078 1.01325e-38 3
-0.708121 0.309106 0.815617 1.05942e-38 3
-0.694943 0.309106 0.815617 1.11481e-38 3
-0.651238 0.295266 0.779097 1.05035e-38 3
-0.641843 0.296742 0.782992 9.58259e-39 3
-0.626061 0.295266 0.779097 1.00439e-38 3
-0.613473 0.295266 0.779097 8.93614e-39 3
-0.603889 0.296742 0.782992 9.12125e-39 3
-0.588297 0.295266 0.779097 8.75427e-39 3
-0.590395 0.302798 0.798972 9.12305e-39 3
-0.56312 0.295266 0.779097 1.13343e-38 3
-0.547807 0.293804 0.77524 9.95029e-39 3
-0.537944 0.295266 0.779097 1.0228e-38 3
-0.525356 0.295266 0.779097 9.95137e-39 3
-0.517921 0.298233 0.786927 9.58151e-39 3
-0.505206 0.298233 0.786927 1.00403e-38 3
-0.487591 0.295266 0.779097 9.85701e-39 3
-0.477378 0.296742 0.782992 1.07797e-38 3
-0.464727 0.296742 0.782992 9.02977e-39 3
-0.454348 0.298233 0.786927 1.02269e-38 3
-0.439425 0.296742 0.782992 1.09637e-38 3
-0.431084 0.299739 0.790901 1.18857e-38 3
-0.422574 0.302798 0.798972 9.48896e-39 3
-0.409665 0.302798 0.798972 1.14261e-38 3
-0.390774 0.298233 0.786927 1.12403e-38 3
-0.378059 0.298233 0.786927 1.19761e-38 3
-0.363518 0.296742 0.782992 1.06853e-38 3
-0.349121 0.295266 0.779097 1.05949e-38 3
-0.336533 0.295266 0.779097 1.06875e-38 3
-0.325565 0.296742 0.782992 1.18853e-38 3
-0.312913 0.296742 0.782992 1.09634e-38 3
-0.300262 0.296742 0.782992 1.17009e-38 3
-0.287611 0.296742 0.782992 1.13318e-38 3
-0.276342 0.298233 0.786927 1.15155e-38 3
-0.263627 0.298233 0.786927 1.25292e-38 3
-0.249658 0.296742 0.782992 1.40029e-38 3
-0.23466 0.293804 0.77524 1.34501e-38 3
-0.238676 0.315683 0.83297 1.32672e-38 3
-0.224026 0.314013 0.828563 1.28991e-38 3
-0.211759 0.315683 0.83297 1.40058e-38 3
-0.219297 0.349108 0.921167 1.20701e-38 3
-0.204413 0.349108 0.921167 1.24389e-38 3
-0.166943 0.307505 0.811391 1.27147e-38 3
-0.154634 0.309106 0.815617 1.43724e-38 3
-0.13928 0.304351 0.803069 1.51086e-38 3
-0.12566 0.302798 0.798972 1.50149e-38 3
-0.112178 0.301261 0.794916 1.42767e-38 3
-0.101393 0.307505 0.811391 1.58433e-38 3
-0.0896771 0.31236 0.824202 1.69496e-38 3
-0.0775851 0.317371 0.837425 1.48284e-38 3
-0.064747 0.320802 0.846478 1.57503e-38 3
-0.0510701 0.320802 0.846478 1.79627e-38 3
-0.0380096 0.32609 0.860431 1.74095e-38 3
-0.0241073 0.32609 0.860431 1.69496e-38 3
-0.00987924 0.315683 0.83297 1.63972e-38 3
0.00356046 0.314013 0.828563 1.50149e-38 3
0.0184089 0.341083 0.899991 1.51986e-38 3
0.0306598 0.317371 0.837425 1.64893e-38 3
0.0441904 0.317371 0.837425 1.41837e-38 3
0.0550705 0.302798 0.798972 1.39079e-38 3
0.0686807 0.30592 0.807208 1.41845e-38 3
0.0866354 0.324308 0.855729 1.50142e-38 3
0.102136 0.329713 0.869991 1.55677e-38 3
0.116193 0.329713 0.869991 1.56596e-38 3
0.13025 0.329713 0.869991 1.55663e-38 3
0.144307 0.329713 0.869991 1.58418e-38 3
0.158363 0.329713 0.869991 1.59347e-38 3
0.17242 0.329713 0.869991 1.63964e-38 3
0.187519 0.331555 0.874851 1.58433e-38 3
0.19833 0.32609 0.860431 1.57518e-38 3
0.214591 0.329713 0.869991 1.61234e-38 3
0.228647 0.329713 0.869991 1.48352e-38 3
0.240037 0.32609 0.860431 1.31768e-38 3
0.253939 0.32609 0.860431 1.32701e-38 3
0.283414 0.345049 0.910456 1.17045e-38 3
0.299868 0.347067 0.91578 1.25332e-38 3
0.318388 0.351174 0.926618 1.4008e-38 3
0.314737 0.331555 0.874851 1.23459e-38 3
0.327045 0.329713 0.869991 1.31743e-38 3
0.346883 0.335302 0.884737 1.39125e-38 3
0.361178 0.335302 0.884737 1.36352e-38 3
0.386388 0.345049 0.910456 1.40033e-38 3
0.410649 0.353264 0.932133 1.28977e-38 3
0.42571 0.353264 0.932133 1.23452e-38 3
0.440771 0.353264 0.932133 1.39118e-38 3
0.455831 0.353264 0.932133 1.42806e-38 3
0.488333 0.366348 0.966657 1.25296e-38 3
0.6285 0.406496 1.07259 1.19793e-38 3
0.574947 0.36188 0.954868 1.13343e-38 3
0.562916 0.345049 0.910456 1.21641e-38 3
0.545888 0.32609 0.860431 1.11503e-38 3
0.559791 0.32609 0.860431 1.0967e-38 3
0.555384 0.315683 0.83297 1.03216e-38 3
0.568842 0.315683 0.83297 1.01361e-38 3
0.588562 0.319077 0.841927 1.03205e-38 3
0.629229 0.333418 0.879766 9.30672e-39 3
0.590376 0.30592 0.807208 9.95101e-39 3
0.616122 0.31236 0.824202 8.93687e-39 3
0.629439 0.31236 0.824202 8.84611e-39 3
0.710022 0.345049 0.910456 7.18802e-39 3
0.724732 0.345049 0.910456 8.66495e-39 3
0.691218 0.322546 0.851078 8.0203e-39 3
0.70497 0.322546 0.851078 8.20326e-39 3
0.688774 0.309106 0.815617 7.18731e-39 3
0.694716 0.30592 0.807208 8.29294e-39 3
0.666529 0.288099 0.760186 7.46318e-39 3
0.635615 0.269765 0.711811 7.27806e-39 3
0.653053 0.27224 0.718341 8.20002e-39 3
0.683471 0.279945 0.738672 9.02978e-39 3
0.933076 0.375623 0.991129 9.49076e-39 3
0.887315 0.351174 0.926618 1.01361e-38 3
0.902287 0.351174 0.926618 9.58367e-39 3
0.917258 0.351174 0.926618 7.74048e-39 3
0.937779 0.353264 0.932133 7.37241e-39 3
-0.766411 0.336297 0.851078 1.18842e-38 3
-0.692447 0.309393 0.782992 1.16077e-38 3
-0.676414 0.307854 0.779097 1.26218e-38 3
-0.663826 0.307854 0.779097 1.11485e-38 3
-0.641661 0.303327 0.767639 1.04113e-38 3
-0.635488 0.30633 0.77524 1.05045e-38 3
-0.619893 0.304821 0.771421 1.03205e-38 3
-0.607429 0.304821 0.771421 9.58151e-39 3
-0.58916 0.301847 0.763895 1.08733e-38 3
-0.571245 0.29893 0.756514 1.07815e-38 3
-0.564475 0.301847 0.763895 1.14269e-38 3
-0.544169 0.297493 0.752877 1.13332e-38 3
-0.517089 0.289152 0.731768 1.11499e-38 3
-0.505265 0.289152 0.731768 1.07822e-38 3
-0.498097 0.29188 0.738672 1.06893e-38 3
-0.495511 0.297493 0.752877 1.05957e-38 3
-0.49042 0.301847 0.763895 1.16091e-38 3
-0.478077 0.301847 0.763895 1.05953e-38 3
-0.470323 0.304821 0.771421 1.00436e-38 3
-0.460126 0.30633 0.77524 1.04138e-38 3
-0.449827 0.307854 0.779097 1.08733e-38 3
-0.435074 0.30633 0.77524 1.1241e-38 3
-0.42465 0.307854 0.779097 1.06875e-38 3
-0.414122 0.309393 0.782992 1.04127e-38 3
-0.401471 0.309393 0.782992 1.14276e-38 3
-0.377495 0.300382 0.760186 1.05031e-38 3
-0.365213 0.300382 0.760186 1.10534e-38 3
-0.349537 0.297493 0.752877 1.07783e-38 3
-0.337372 0.297493 0.752877 1.19779e-38 3
-0.323651 0.29607 0.749275 1.24392e-38 3
-0.320753 0.304821 0.771421 1.25314e-38 3
-0.309815 0.30633 0.77524 1.22541e-38 3
-0.297289 0.30633 0.77524 1.29006e-38 3
-0.284764 0.30633 0.77524 1.22545e-38 3
-0.273592 0.307854 0.779097 1.17009e-38 3
-0.259712 0.30633 0.77524 1.28987e-38 3
-0.244763 0.303327 0.767639 1.48323e-38 3
-0.23236 0.303327 0.767639 1.40944e-38 3
-0.219956 0.303327 0.767639 1.3543e-38 3
-0.210651 0.307854 0.779097 1.39125e-38 3
-0.199053 0.309393 0.782992 1.42813e-38 3
-0.200432 0.332681 0.841927 1.52955e-38 3
-0.173751 0.309393 0.782992 1.52951e-38 3
-0.1611 0.309393 0.782992 1.53855e-38 3
-0.149948 0.312518 0.790901 1.54774e-38 3
-0.13648 0.310948 0.786927 1.62146e-38 3
-0.123765 0.310948 0.786927 1.49224e-38 3
-0.111612 0.312518 0.790901 1.64883e-38 3
-0.0998412 0.315707 0.798972 1.63042e-38 3
-0.0873777 0.317326 0.803069 1.60276e-38 3
-0.0755647 0.322284 0.815617 1.53823e-38 3
-0.0633767 0.3274 0.828563 1.52908e-38 3
-0.0492082 0.322284 0.815617 1.58425e-38 3
-0.0360299 0.322284 0.815617 1.63961e-38 3
-0.0232144 0.3274 0.828563 1.46458e-38 3
-0.0095737 0.318962 0.807208 1.56603e-38 3
0.00331492 0.304821 0.771421 1.58436e-38 3
0.0158572 0.30633 0.77524 1.66737e-38 3
0.0306598 0.330902 0.837425 1.51064e-38 3
0.0421612 0.315707 0.798972 1.54745e-38 3
0.0537006 0.307854 0.779097 1.45529e-38 3
0.0659607 0.30633 0.77524 1.52908e-38 3
0.081304 0.317326 0.803069 1.45536e-38 3
0.0999158 0.336297 0.851078 1.45536e-38 3
0.115551 0.341871 0.865185 1.49231e-38 3
0.13025 0.34377 0.869991 1.60276e-38 3
0.144307 0.34377 0.869991 1.69482e-38 3
0.158363 0.34377 0.869991 1.74095e-38 3
0.173383 0.345691 0.874851 1.74106e-38 3
0.186477 0.34377 0.869991 1.72262e-38 3
0.194065 0.332681 0.841927 1.63972e-38 3
0.205459 0.329142 0.83297 1.53855e-38 3
0.216613 0.325677 0.824202 1.40966e-38 3
0.22993 0.325677 0.824202 1.35452e-38 3
0.243247 0.325677 0.824202 1.28087e-38 3
0.262082 0.332681 0.841927 1.23492e-38 3
0.294698 0.355624 0.899991 1.23499e-38 3
0.318388 0.366146 0.926618 1.26254e-38 3
0.314737 0.345691 0.874851 1.3269e-38 3
0.321684 0.338134 0.855729 1.36356e-38 3
0.343007 0.345691 0.874851 1.26218e-38 3
0.357143 0.345691 0.874851 1.29902e-38 3
0.375473 0.349597 0.884737 1.27126e-38 3
0.405818 0.363992 0.921167 1.2253e-38 3
0.420701 0.363992 0.921167 1.31768e-38 3
0.435585 0.363992 0.921167 1.26225e-38 3
0.455831 0.368325 0.932133 1.20694e-38 3
0.576318 0.368325 0.932133 1.23485e-38 3
0.545888 0.339992 0.860431 1.15191e-38 3
0.541925 0.329142 0.83297 1.07826e-38 3
0.555384 0.329142 0.83297 1.12435e-38 3
0.568842 0.329142 0.83297 1.0874e-38 3
0.588562 0.332681 0.841927 1.03209e-38 3
0.602166 0.332681 0.841927 9.86061e-39 3
0.590376 0.318962 0.807208 9.76734e-39 3
0.606545 0.320615 0.811391 9.12198e-39 3
0.610171 0.315707 0.798972 9.21489e-39 3
0.629504 0.318962 0.807208 8.6628e-39 3
0.656073 0.325677 0.824202 7.46605e-39 3
0.635921 0.309393 0.782992 7.37493e-39 3
0.648572 0.309393 0.782992 6.72849e-39 3
0.641964 0.300382 0.760186 6.63485e-39 3
0.618233 0.283847 0.718341 7.18767e-39 3
0.624114 0.281266 0.711811 9.03122e-39 3
0.624265 0.276244 0.6991 1.16127e-38 3
0.63556 0.276244 0.6991 9.21453e-39 3
0.652684 0.278732 0.705398 9.76734e-39 3
0.682528 0.286475 0.724993 9.58295e-39 3
0.871838 0.359759 0.910456 9.49004e-39 3
0.886549 0.359759 0.910456 8.10782e-39 3
0.90126 0.359759 0.910456 8.29329e-39 3
-0.705098 0.322044 0.782992 9.94813e-39 3
-0.67887 0.31573 0.767639 1.06857e-38 3
-0.666467 0.31573 0.767639 1.14236e-38 3
-0.629382 0.303815 0.738672 1.05949e-38 3
-0.614548 0.302389 0.735204 9.7659e-39 3
-0.605512 0.303815 0.738672 1.00436e-38 3
-0.593577 0.303815 0.738672 9.306e-39 3
-0.589991 0.308176 0.749275 8.93722e-39 3
-0.569707 0.303815 0.738672 1.20733e-38 3
-0.552559 0.300976 0.731768 1.17956e-38 3
-0.540736 0.300976 0.731768 1.15187e-38 3
-0.524015 0.298189 0.724993 1.09644e-38 3
-0.50994 0.296815 0.721652 1.10566e-38 3
-0.49828 0.296815 0.721652 1.07811e-38 3
-0.491147 0.299576 0.728365 1.07811e-38 3
-0.483879 0.302389 0.735204 1.14251e-38 3
-0.476474 0.305255 0.742173 1.22548e-38 3
-0.468928 0.308176 0.749275 1.11499e-38 3
-0.461235 0.311154 0.756514 1.14269e-38 3
-0.451191 0.312664 0.760186 1.14269e-38 3
-0.438909 0.312664 0.760186 1.31768e-38 3
-0.420502 0.308176 0.749275 1.22559e-38 3
-0.412342 0.311154 0.756514 9.95173e-39 3
-0.402061 0.312664 0.760186 1.02294e-38 3
-0.376968 0.302389 0.735204 1.06886e-38 3
-0.361693 0.299576 0.728365 1.28998e-38 3
-0.35156 0.300976 0.731768 1.31757e-38 3
-0.339736 0.300976 0.731768 1.253e-38 3
-0.334159 0.306709 0.745707 1.23474e-38 3
-0.323651 0.308176 0.749275 1.17938e-38 3
-0.320753 0.317285 0.771421 1.17009e-38 3
-0.308289 0.317285 0.771421 1.29009e-38 3
-0.297289 0.318856 0.77524 1.3269e-38 3
-0.283361 0.317285 0.771421 1.2163e-38 3
-0.272238 0.318856 0.77524 1.22541e-38 3
-0.257166 0.31573 0.767639 1.31735e-38 3
-0.243569 0.314189 0.763895 1.39104e-38 3
-0.231226 0.314189 0.763895 1.34491e-38 3
-0.219956 0.31573 0.767639 1.41873e-38 3
-0.210651 0.320442 0.779097 1.16991e-38 3
-0.199053 0.322044 0.782992 1.50175e-38 3
-0.194169 0.335463 0.815617 1.45561e-38 3
-0.172887 0.320442 0.779097 1.50167e-38 3
-0.160298 0.320442 0.779097 1.53852e-38 3
-0.148449 0.322044 0.782992 1.53848e-38 3
-0.135798 0.322044 0.782992 1.51071e-38 3
-0.123147 0.322044 0.782992 1.56596e-38 3
-0.111051 0.323662 0.786927 1.53819e-38 3
-0.0988327 0.325297 0.790901 1.66719e-38 3
-0.0860538 0.325297 0.790901 1.55667e-38 3
-0.0732749 0.325297 0.790901 1.55674e-38 3
-0.0601919 0.323662 0.786927 1.60291e-38 3
-0.0467721 0.318856 0.77524 1.54741e-38 3
-0.0340776 0.317285 0.771421 1.63972e-38 3
-0.0215075 0.31573 0.767639 1.54759e-38 3
-0.00892931 0.309658 0.752877 1.57518e-38 3
0.00318923 0.305255 0.742173 1.61206e-38 3
0.0152531 0.306709 0.745707 1.61198e-38 3
0.0275643 0.309658 0.752877 1.49213e-38 3
0.0403103 0.314189 0.763895 1.71333e-38 3
0.0521441 0.311154 0.756514 1.67649e-38 3
0.0640579 0.309658 0.752877 1.59355e-38 3
0.0758578 0.308176 0.749275 1.45532e-38 3
0.0871303 0.305255 0.742173 1.38164e-38 3
0.095501 0.294104 0.715061 1.65826e-38 3
0.107055 0.294104 0.715061 1.75028e-38 3
0.12859 0.318856 0.77524 1.72255e-38 3
0.12613 0.284995 0.692913 1.90694e-38 3
0.136721 0.283739 0.689861 1.75028e-38 3
0.178542 0.3426 0.83297 1.64897e-38 3
0.188 0.335463 0.815617 1.54759e-38 3
0.1822 0.303815 0.738672 1.60302e-38 3
0.194135 0.303815 0.738672 1.48338e-38 3
0.201321 0.296815 0.721652 1.38203e-38 3
0.212004 0.295453 0.718341 1.32686e-38 3
0.223611 0.295453 0.718341 1.27162e-38 3
0.235218 0.295453 0.718341 1.23488e-38 3
0.278796 0.333725 0.811391 1.20722e-38 3
0.296515 0.338994 0.824202 1.18875e-38 3
0.306605 0.335463 0.815617 1.15162e-38 3
0.331883 0.348156 0.846478 1.17931e-38 3
0.349336 0.351961 0.855729 1.26218e-38 3
0.359237 0.348156 0.846478 1.17913e-38 3
0.370909 0.346284 0.841927 1.26229e-38 3
0.415809 0.37447 0.910456 1.17009e-38 3
0.435585 0.378876 0.921167 1.21623e-38 3
0.450469 0.378876 0.921167 1.21623e-38 3
0.577626 0.37447 0.910456 1.09662e-38 3
0.547752 0.346284 0.841927 1.13357e-38 3
0.555384 0.3426 0.83297 9.76806e-39 3
0.562855 0.338994 0.824202 1.05971e-38 3
0.576172 0.338994 0.824202 1.06893e-38 3
0.551738 0.317285 0.771421 1.03219e-38 3
0.566995 0.318856 0.77524 9.39891e-39 3
0.579521 0.318856 0.77524 8.84539e-39 3
0.589131 0.317285 0.771421 8.29294e-39 3
0.601595 0.317285 0.771421 8.38585e-39 3
0.605116 0.312664 0.760186 7.09691e-39 3
0.617399 0.312664 0.760186 6.91396e-39 3
0.606142 0.300976 0.731768 7.00615e-39 3
0.601112 0.292767 0.711811 7.92667e-39 3
0.612613 0.292767 0.711811 7.00471e-39 3
0.612969 0.287539 0.6991 7.92559e-39 3
0.624265 0.287539 0.6991 7.92559e-39 3
0.63556 0.287539 0.6991 9.49183e-39 3
0.646856 0.287539 0.6991 9.39964e-39 3
0.670118 0.292767 0.711811 9.49076e-39 3
0.694242 0.298189 0.724993 9.02978e-39 3
0.861505 0.363892 0.884737 8.38405e-39 3
-0.705098 0.334695 0.782992 1.10556e-38 3
-0.67887 0.328133 0.767639 1.07793e-38 3
-0.641317 0.31575 0.738672 1.12407e-38 3
-0.61488 0.308475 0.721652 8.8443e-39 3
-0.608831 0.311344 0.728365 1.04123e-38 3
-0.59156 0.308475 0.721652 9.3982e-39 3
-0.561778 0.298835 0.6991 9.39892e-39 3
-0.570871 0.309903 0.724993 1.12425e-38 3
-0.55658 0.308475 0.721652 1.15201e-38 3
-0.537489 0.304268 0.711811 1.0874e-38 3
-0.523608 0.302892 0.70859 1.08733e-38 3
-0.503054 0.297507 0.695993 1.11488e-38 3
-0.494004 0.298835 0.6991 1.15176e-38 3
-0.482709 0.298835 0.6991 1.01358e-38 3
-0.477812 0.302892 0.70859 1.13343e-38 3
-0.472781 0.30706 0.718341 1.15173e-38 3
-0.465445 0.309903 0.724993 1.12407e-38 3
-0.460121 0.314268 0.735204 1.04123e-38 3
-0.450357 0.31575 0.738672 1.00439e-38 3
-0.438422 0.31575 0.738672 1.17949e-38 3
-0.422501 0.312799 0.731768 1.29927e-38 3
-0.408767 0.311344 0.728365 1.15176e-38 3
-0.395161 0.309903 0.724993 1.17942e-38 3
-0.383447 0.309903 0.724993 1.13343e-38 3
-0.361686 0.301527 0.705398 1.08733e-38 3
-0.350288 0.301527 0.705398 1.16095e-38 3
-0.341972 0.304268 0.711811 1.15162e-38 3
-0.33504 0.308475 0.721652 1.30846e-38 3
-0.32338 0.308475 0.721652 1.22566e-38 3
-0.31172 0.308475 0.721652 1.05967e-38 3
-0.311545 0.320283 0.749275 1.11488e-38 3
-0.298013 0.318757 0.745707 1.08733e-38 3
-0.280619 0.312799 0.731768 1.19786e-38 3
-0.266307 0.309903 0.724993 1.13332e-38 3
-0.253419 0.308475 0.721652 1.17009e-38 3
-0.244008 0.311344 0.728365 1.46479e-38 3
-0.233325 0.312799 0.731768 1.20658e-38 3
-0.222542 0.314268 0.735204 1.64915e-38 3
-0.216769 0.323377 0.756514 1.43717e-38 3
-0.209608 0.331381 0.77524 1.37267e-38 3
-0.197083 0.331381 0.77524 1.44639e-38 3
-0.174208 0.312799 0.731768 1.34494e-38 3
-0.16869 0.324947 0.760186 1.49245e-38 3
-0.160298 0.33303 0.779097 1.4648e-38 3
-0.148449 0.334695 0.782992 1.40944e-38 3
-0.135798 0.334695 0.782992 1.43703e-38 3
-0.123147 0.334695 0.782992 1.60287e-38 3
-0.111051 0.336377 0.786927 1.695e-38 3
-0.098336 0.336377 0.786927 1.67659e-38 3
-0.0847694 0.33303 0.779097 1.56596e-38 3
-0.0721812 0.33303 0.779097 1.5844e-38 3
-0.0587167 0.328133 0.767639 1.63979e-38 3
-0.0452056 0.320283 0.749275 1.55674e-38 3
-0.0329417 0.318757 0.745707 1.51993e-38 3
-0.0205987 0.314268 0.735204 1.70432e-38 3
-0.0085986 0.309903 0.724993 1.7595e-38 3
0.00311541 0.309903 0.724993 1.65815e-38 3
0.0148984 0.311344 0.728365 1.76882e-38 3
0.0266669 0.311344 0.728365 1.69503e-38 3
0.0387963 0.314268 0.735204 1.71347e-38 3
0.0504384 0.312799 0.731768 1.82403e-38 3
0.0622619 0.312799 0.731768 1.72262e-38 3
0.0740854 0.312799 0.731768 1.62128e-38 3
0.0847212 0.308475 0.721652 1.55677e-38 3
0.0946368 0.302892 0.70859 1.52919e-38 3
0.106086 0.302892 0.70859 1.53834e-38 3
0.118069 0.304268 0.711811 1.51061e-38 3
0.125574 0.294886 0.689861 1.52919e-38 3
0.136121 0.293592 0.686835 1.6306e-38 3
0.147867 0.294886 0.689861 1.5661e-38 3
0.164822 0.305658 0.715061 1.57532e-38 3
0.177185 0.30706 0.718341 1.56614e-38 3
0.188791 0.30706 0.718341 1.54777e-38 3
0.199483 0.305658 0.715061 1.48334e-38 3
0.211036 0.305658 0.715061 1.40055e-38 3
0.22259 0.305658 0.715061 1.42828e-38 3
0.232025 0.302892 0.70859 1.32701e-38 3
0.237038 0.294886 0.689861 1.28098e-38 3
0.281689 0.334695 0.782992 1.16109e-38 3
0.297314 0.338076 0.790901 1.12407e-38 3
0.310093 0.338076 0.790901 1.25314e-38 3
0.334704 0.350466 0.819887 1.22545e-38 3
0.347952 0.350466 0.819887 1.2347e-38 3
0.357456 0.346835 0.811391 1.15173e-38 3
0.374446 0.350466 0.819887 1.14251e-38 3
0.389734 0.352311 0.824202 1.15173e-38 3
0.416194 0.363799 0.851078 1.11488e-38 3
0.591379 0.398447 0.932133 1.10577e-38 3
0.541925 0.356059 0.83297 1.02294e-38 3
0.549538 0.352311 0.824202 9.58403e-39 3
0.562855 0.352311 0.824202 9.58367e-39 3
0.523792 0.320283 0.749275 9.30636e-39 3
0.530819 0.317247 0.742173 8.75426e-39 3
0.542811 0.317247 0.742173 8.38404e-39 3
0.554802 0.317247 0.742173 8.84431e-39 3
0.572218 0.320283 0.749275 8.93723e-39 3
0.584324 0.320283 0.749275 8.2011e-39 3
0.59643 0.320283 0.749275 7.83339e-39 3
0.608537 0.320283 0.749275 6.91396e-39 3
0.579082 0.298835 0.6991 6.17639e-39 3
0.590378 0.298835 0.6991 6.35971e-39 3
0.601673 0.298835 0.6991 6.91288e-39 3
0.612969 0.298835 0.6991 7.1891e-39 3
0.624265 0.298835 0.6991 8.11106e-39 3
0.63556 0.298835 0.6991 8.20289e-39 3
0.646856 0.298835 0.6991 8.4784e-39 3
0.664081 0.301527 0.705398 8.20146e-39 3
0.681619 0.304268 0.711811 7.8316e-39 3
0.705956 0.309903 0.724993 8.38405e-39 3
-0.712221 0.350855 0.790901 1.0779e-38 3
-0.685591 0.343907 0.77524 9.7659e-39 3
-0.641317 0.327685 0.738672 8.47624e-39 3
-0.606495 0.315769 0.711811 1.11503e-38 3
-0.576647 0.306032 0.689861 1.08733e-38 3
-0.56302 0.30469 0.686835 9.58259e-39 3
-0.493232 0.277877 0.626394 1.05982e-38 3
-0.471789 0.271364 0.611713 1.06904e-38 3
-0.446218 0.262148 0.590937 9.5833e-39 3
-0.43667 0.262148 0.590937 1.01358e-38 3
-0.450528 0.289455 0.652493 1.04123e-38 3
-0.455157 0.299437 0.674993 1.07811e-38 3
-0.446174 0.300733 0.677915 1.10563e-38 3
-0.433345 0.299437 0.674993 1.16094e-38 3
-0.447515 0.317211 0.715061 9.95137e-39 3
-0.442017 0.321617 0.724993 9.12161e-39 3
-0.432304 0.323113 0.728365 1.14254e-38 3
-0.418589 0.321617 0.724993 1.09637e-38 3
-0.406875 0.321617 0.724993 1.07793e-38 3
-0.389748 0.317211 0.715061 1.18857e-38 3
-0.37141 0.311521 0.702235 9.94993e-39 3
-0.35063 0.303359 0.683836 1.08733e-38 3
-0.342573 0.306032 0.689861 1.14251e-38 3
-0.334373 0.308752 0.695993 1.24392e-38 3
-0.327494 0.312925 0.705398 1.2163e-38 3
-0.314679 0.311521 0.702235 9.85989e-39 3
-0.303332 0.311521 0.702235 1.05967e-38 3
-0.294629 0.314341 0.70859 1.12407e-38 3
-0.278145 0.308752 0.695993 1.25314e-38 3
-0.263388 0.30469 0.686835 1.20708e-38 3
-0.252291 0.30469 0.686835 1.2624e-38 3
-0.242256 0.306032 0.689861 1.48345e-38 3
-0.231109 0.306032 0.689861 1.70447e-38 3
-0.223908 0.311521 0.702235 1.68592e-38 3
-0.21352 0.312925 0.705398 1.42785e-38 3
-0.207737 0.321617 0.724993 1.67685e-38 3
-0.197855 0.324623 0.731768 1.35423e-38 3
-0.171598 0.299437 0.674993 1.40955e-38 3
-0.159318 0.296877 0.669224 1.36345e-38 3
-0.146009 0.291888 0.657977 1.38196e-38 3
-0.106508 0.272429 0.614111 1.4465e-38 3
-0.0965856 0.272429 0.614111 1.59391e-38 3
-0.103267 0.324623 0.731768 1.55699e-38 3
-0.0978444 0.347346 0.782992 1.49231e-38 3
-0.0799936 0.326147 0.735204 1.6951e-38 3
-0.0665524 0.318666 0.718341 1.54763e-38 3
-0.0532364 0.308752 0.695993 1.58443e-38 3
-0.043539 0.320135 0.721652 1.3448e-38 3
-0.031879 0.320135 0.721652 1.63982e-38 3
-0.0201262 0.318666 0.718341 1.65826e-38 3
-0.00848081 0.317211 0.715061 1.69489e-38 3
0.00307273 0.317211 0.715061 1.6212e-38 3
0.0146934 0.318666 0.718341 1.57521e-38 3
0.0264211 0.320135 0.721652 1.63057e-38 3
0.0382574 0.321617 0.724993 1.65823e-38 3
0.0499714 0.321617 0.724993 1.65826e-38 3
0.0614012 0.320135 0.721652 1.55685e-38 3
0.0730612 0.320135 0.721652 1.56607e-38 3
0.0839475 0.317211 0.715061 1.53841e-38 3
0.093788 0.311521 0.702235 1.44632e-38 3
0.103282 0.306032 0.689861 1.44621e-38 3
0.113926 0.30469 0.686835 1.48309e-38 3
0.124478 0.303359 0.683836 1.46479e-38 3
0.134938 0.30204 0.680863 1.42799e-38 3
0.146576 0.303359 0.683836 1.44643e-38 3
0.160427 0.308752 0.695993 1.45561e-38 3
0.173992 0.312925 0.705398 1.47409e-38 3
0.186229 0.314341 0.70859 1.48331e-38 3
0.197678 0.314341 0.70859 1.46501e-38 3
0.208185 0.312925 0.705398 1.32679e-38 3
0.219582 0.312925 0.705398 1.33612e-38 3
0.228917 0.310131 0.6991 1.44679e-38 3
0.237038 0.306032 0.689861 1.34552e-38 3
0.247096 0.30469 0.686835 1.26258e-38 3
0.262804 0.310131 0.6991 1.29938e-38 3
0.2741 0.310131 0.6991 1.40069e-38 3
0.322871 0.350855 0.790901 1.28094e-38 3
0.33565 0.350855 0.790901 1.24414e-38 3
0.346678 0.349092 0.786927 1.31771e-38 3
0.372496 0.361819 0.815617 1.16098e-38 3
0.385674 0.361819 0.815617 1.11492e-38 3
0.390713 0.354435 0.798972 1.22555e-38 3
0.387794 0.340536 0.767639 1.17031e-38 3
0.366099 0.311521 0.702235 1.12421e-38 3
0.372435 0.307386 0.692913 1.10581e-38 3
0.378605 0.303359 0.683836 1.07811e-38 3
0.389654 0.303359 0.683836 1.10563e-38 3
0.400703 0.303359 0.683836 1.17938e-38 3
0.411752 0.303359 0.683836 1.18868e-38 3
0.528467 0.369518 0.83297 1.08733e-38 3
0.536221 0.365628 0.824202 1.11503e-38 3
0.549538 0.365628 0.824202 1.0506e-38 3
0.556992 0.361819 0.815617 1.01372e-38 3
0.518827 0.329238 0.742173 8.5688e-39 3
0.525835 0.326147 0.735204 1.06893e-38 3
0.537714 0.326147 0.735204 1.06889e-38 3
0.549593 0.326147 0.735204 1.05038e-38 3
0.566794 0.329238 0.742173 1.05049e-38 3
0.576055 0.327685 0.738672 9.85954e-39 3
0.58799 0.327685 0.738672 7.92487e-39 3
0.599925 0.327685 0.738672 7.37386e-39 3
0.573958 0.307386 0.692913 6.9136e-39 3
0.585153 0.307386 0.692913 7.37494e-39 3
0.596349 0.307386 0.692913 6.0842e-39 3
0.607545 0.307386 0.692913 7.18946e-39 3
0.624265 0.310131 0.6991 6.91323e-39 3
0.63556 0.310131 0.6991 6.45225e-39 3
0.646856 0.310131 0.6991 6.72812e-39 3
0.664081 0.312925 0.705398 8.29365e-39 3
0.681619 0.315769 0.711811 7.83196e-39 3
-0.699442 0.363634 0.790901 8.8443e-39 3
-0.679796 0.359998 0.782992 8.93722e-39 3
-0.629382 0.33962 0.738672 1.03201e-38 3
-0.579198 0.318582 0.692913 8.93793e-39 3
-0.465314 0.271696 0.590937 8.84646e-39 3
-0.455766 0.271696 0.590937 8.56951e-39 3
-0.44454 0.270675 0.588716 8.56915e-39 3
-0.435028 0.270675 0.588716 9.7659e-39 3
-0.449825 0.292681 0.636579 9.6737e-39 3
-0.43776 0.291496 0.634002 9.2138e-39 3
-0.431006 0.293876 0.639177 1.06879e-38 3
-0.424141 0.296294 0.644438 1.07804e-38 3
-0.410351 0.293876 0.639177 8.75247e-39 3
-0.395185 0.290321 0.631445 9.58151e-39 3
-0.389696 0.293876 0.639177 9.58151e-39 3
-0.376297 0.291496 0.634002 1.24389e-38 3
-0.384745 0.306381 0.666376 1.18857e-38 3
-0.373978 0.306381 0.666376 1.11481e-38 3
-0.371107 0.313041 0.680863 1.23467e-38 3
-0.357002 0.310343 0.674993 1.2347e-38 3
-0.344611 0.309011 0.672096 1.01343e-38 3
-0.336641 0.311686 0.677915 1.06875e-38 3
-0.327104 0.313041 0.680863 1.0596e-38 3
-0.316103 0.313041 0.680863 1.05971e-38 3
-0.303781 0.311686 0.677915 1.00439e-38 3
-0.292827 0.311686 0.677915 1.00425e-38 3
-0.279455 0.309011 0.672096 1.17931e-38 3
-0.268595 0.309011 0.672096 1.45579e-38 3
-0.257736 0.309011 0.672096 1.43742e-38 3
-0.246877 0.309011 0.672096 1.40051e-38 3
-0.237035 0.310343 0.674993 1.58476e-38 3
-0.225158 0.309011 0.672096 1.69532e-38 3
-0.214299 0.309011 0.672096 1.67674e-38 3
-0.203439 0.309011 0.672096 1.58461e-38 3
-0.190132 0.305083 0.663553 1.69532e-38 3
-0.17642 0.299998 0.652493 1.71379e-38 3
-0.159882 0.289155 0.628909 1.55706e-38 3
-0.148528 0.286851 0.623898 1.34501e-38 3
-0.135215 0.280154 0.609332 1.30821e-38 3
-0.127352 0.284583 0.618966 1.23452e-38 3
-0.11643 0.282351 0.614111 1.25307e-38 3
-0.106092 0.281248 0.611713 1.22545e-38 3
-0.0962083 0.281248 0.611713 1.22545e-38 3
-0.0876948 0.285712 0.621422 1.21605e-38 3
-0.0865879 0.318582 0.692913 1.37267e-38 3
-0.0753922 0.318582 0.692913 1.42784e-38 3
-0.0636334 0.315787 0.686835 1.50153e-38 3
-0.0518537 0.311686 0.677915 1.57529e-38 3
-0.0423676 0.322868 0.702235 1.4922e-38 3
-0.0314443 0.327271 0.711811 1.49231e-38 3
-0.0200343 0.328765 0.715061 1.49242e-38 3
-0.00844226 0.327271 0.711811 1.56599e-38 3
0.00305876 0.327271 0.711811 1.59354e-38 3
0.0145598 0.327271 0.711811 1.47387e-38 3
0.0260608 0.327271 0.711811 1.44646e-38 3
0.0373919 0.32579 0.70859 1.40955e-38 3
0.0488408 0.32579 0.70859 1.40026e-38 3
0.0608404 0.328765 0.715061 1.44639e-38 3
0.0717388 0.32579 0.70859 1.36338e-38 3
0.0824417 0.322868 0.702235 1.43714e-38 3
0.092543 0.318582 0.692913 1.48331e-38 3
0.10238 0.314408 0.683836 1.48327e-38 3
0.112936 0.313041 0.680863 1.40948e-38 3
0.123937 0.313041 0.680863 1.39111e-38 3
0.134353 0.311686 0.677915 1.40973e-38 3
0.145307 0.311686 0.677915 1.2992e-38 3
0.15626 0.311686 0.677915 1.20704e-38 3
0.169414 0.315787 0.686835 1.29924e-38 3
0.180511 0.315787 0.686835 1.22548e-38 3
0.194163 0.319998 0.695993 1.26232e-38 3
0.205409 0.319998 0.695993 1.29002e-38 3
0.217621 0.321426 0.6991 1.19797e-38 3
0.226891 0.318582 0.692913 1.20733e-38 3
0.237038 0.317178 0.689861 1.23499e-38 3
0.247096 0.315787 0.686835 1.16123e-38 3
0.262804 0.321426 0.6991 1.17049e-38 3
0.2741 0.321426 0.6991 1.1335e-38 3
0.30155 0.33962 0.738672 1.069e-38 3
0.333964 0.361807 0.786927 1.17971e-38 3
0.344945 0.359998 0.782992 1.19804e-38 3
0.357596 0.359998 0.782992 1.2625e-38 3
0.370247 0.359998 0.782992 1.1979e-38 3
0.371746 0.349512 0.760186 1.17942e-38 3
0.353169 0.321426 0.6991 1.18875e-38 3
0.358071 0.315787 0.686835 1.05045e-38 3
0.364374 0.311686 0.677915 1.16109e-38 3
0.373709 0.310343 0.674993 1.12421e-38 3
0.384616 0.310343 0.674993 1.17942e-38 3
0.395522 0.310343 0.674993 1.16098e-38 3
0.406428 0.310343 0.674993 1.17027e-38 3
0.412006 0.306381 0.666376 1.08733e-38 3
0.417444 0.302519 0.657977 1.05957e-38 3
0.530635 0.374997 0.815617 1.05049e-38 3
0.543813 0.374997 0.815617 1.04138e-38 3
0.545624 0.367344 0.798972 1.03216e-38 3
0.547363 0.359998 0.782992 9.85989e-39 3
0.533347 0.342855 0.745707 9.95209e-39 3
0.545395 0.342855 0.745707 8.75319e-39 3
0.552185 0.33962 0.738672 1.05042e-38 3
0.566794 0.34123 0.742173 1.01354e-38 3
0.573351 0.338026 0.735204 1.05049e-38 3
0.58523 0.338026 0.735204 1.03216e-38 3
0.591554 0.334881 0.728365 8.66351e-39 3
0.559114 0.310343 0.674993 8.29545e-39 3
0.57002 0.310343 0.674993 7.00508e-39 3
0.580926 0.310343 0.674993 7.46605e-39 3
0.596979 0.313041 0.680863 7.46605e-39 3
0.61874 0.318582 0.692913 7.18946e-39 3
0.63556 0.321426 0.6991 6.63665e-39 3
0.646856 0.321426 0.6991 6.82032e-39 3
0.664081 0.324322 0.705398 7.46461e-39 3
-0.490258 0.279138 0.586511 8.29256e-39 3
-0.480781 0.279138 0.586511 1.02283e-38 3
-0.469546 0.278096 0.584322 9.67478e-39 3
-0.460105 0.278096 0.584322 1.02287e-38 3
-0.452352 0.279138 0.586511 1.06896e-38 3
-0.441223 0.278096 0.584322 1.00436e-38 3
-0.431781 0.278096 0.584322 1.06879e-38 3
-0.427121 0.281244 0.590937 9.85773e-39 3
-0.437379 0.294584 0.618966 9.58186e-39 3
-0.430784 0.296931 0.623898 1.13336e-38 3
-0.422386 0.298119 0.626394 1.0412e-38 3
-0.412265 0.298119 0.626394 1.01343e-38 3
-0.402144 0.298119 0.626394 1.17938e-38 3
-0.392023 0.298119 0.626394 1.23474e-38 3
-0.383436 0.299316 0.628909 1.29927e-38 3
-0.373275 0.299316 0.628909 1.31764e-38 3
-0.367541 0.302966 0.636579 1.23467e-38 3
-0.361666 0.306707 0.644438 1.16091e-38 3
-0.363212 0.317148 0.666376 1.2347e-38 3
-0.352445 0.317148 0.666376 1.17013e-38 3
-0.344611 0.31987 0.672096 1.13321e-38 3
-0.336641 0.32264 0.677915 1.07797e-38 3
-0.327104 0.324042 0.680863 1.17942e-38 3
-0.316103 0.324042 0.680863 1.00436e-38 3
-0.303781 0.32264 0.677915 9.95137e-39 3
-0.291565 0.321249 0.674993 1.22548e-38 3
-0.27826 0.318503 0.669224 1.63096e-38 3
-0.267447 0.318503 0.669224 1.40969e-38 3
-0.257736 0.31987 0.672096 1.4559e-38 3
-0.246877 0.31987 0.672096 1.49267e-38 3
-0.236017 0.31987 0.672096 1.63082e-38 3
-0.225158 0.31987 0.672096 1.51093e-38 3
-0.214299 0.31987 0.672096 1.60305e-38 3
-0.201708 0.317148 0.666376 1.51089e-38 3
-0.157354 0.294584 0.618966 1.39111e-38 3
-0.144498 0.288875 0.606971 1.28969e-38 3
-0.13213 0.283383 0.595431 1.31746e-38 3
-0.122509 0.283383 0.595431 1.1792e-38 3
-0.112889 0.283383 0.595431 1.1886e-38 3
-0.103662 0.284465 0.597704 1.09648e-38 3
-0.094005 0.284465 0.597704 1.1702e-38 3
-0.0936402 0.315804 0.663553 1.17931e-38 3
-0.0829189 0.315804 0.663553 1.25292e-38 3
-0.0721977 0.315804 0.663553 1.33572e-38 3
-0.0193283 0.328325 0.689861 1.45558e-38 3
-0.00832869 0.334214 0.702235 1.48309e-38 3
0.00300414 0.332722 0.6991 1.46461e-38 3
0.0142362 0.331243 0.695993 1.3726e-38 3
0.0252572 0.328325 0.689861 1.39115e-38 3
0.0360856 0.325457 0.683836 1.40033e-38 3
0.0469297 0.324042 0.680863 1.36356e-38 3
0.0574313 0.321249 0.674993 1.36356e-38 3
0.067465 0.317148 0.666376 1.25292e-38 3
0.0779004 0.315804 0.663553 1.31746e-38 3
0.0897628 0.31987 0.672096 1.26214e-38 3
0.101056 0.321249 0.674993 1.31743e-38 3
0.111962 0.321249 0.674993 1.31743e-38 3
0.122868 0.321249 0.674993 1.39122e-38 3
0.133774 0.321249 0.674993 1.2992e-38 3
0.144059 0.31987 0.672096 1.28084e-38 3
0.154919 0.31987 0.672096 1.10592e-38 3
0.166493 0.321249 0.674993 1.14287e-38 3
0.178167 0.32264 0.677915 1.03223e-38 3
0.189942 0.324042 0.680863 1.0967e-38 3
0.201821 0.325457 0.683836 1.22577e-38 3
0.213804 0.326885 0.686835 1.05071e-38 3
0.224901 0.326885 0.686835 1.07847e-38 3
0.235998 0.326885 0.686835 1.03238e-38 3
0.247096 0.326885 0.686835 1.08762e-38 3
0.260478 0.329778 0.692913 1.00464e-38 3
0.269291 0.326885 0.686835 1.08755e-38 3
0.275554 0.321249 0.674993 1.08762e-38 3
0.280417 0.314471 0.660753 1.06007e-38 3
0.287454 0.310541 0.652493 1.00464e-38 3
0.295534 0.307974 0.647101 1.05067e-38 3
0.30473 0.306707 0.644438 1.16116e-38 3
0.332955 0.324042 0.680863 1.22563e-38 3
0.343956 0.324042 0.680863 1.17038e-38 3
0.350387 0.31987 0.672096 1.12421e-38 3
0.359702 0.318503 0.669224 1.12428e-38 3
0.368939 0.317148 0.666376 1.05053e-38 3
0.381328 0.318503 0.669224 1.03201e-38 3
0.392141 0.318503 0.669224 1.27165e-38 3
0.402954 0.318503 0.669224 1.23485e-38 3
0.41026 0.315804 0.663553 1.17038e-38 3
0.417444 0.31315 0.657977 1.19786e-38 3
0.50941 0.372649 0.782992 1.11499e-38 3
0.522061 0.372649 0.782992 1.04127e-38 3
0.504445 0.351555 0.738672 9.49183e-39 3
0.452366 0.307974 0.647101 1.02287e-38 3
0.513774 0.34188 0.718341 8.93793e-39 3
0.511308 0.332722 0.6991 9.76734e-39 3
0.517979 0.329778 0.692913 9.21381e-39 3
0.561472 0.349905 0.735204 9.95101e-39 3
0.568017 0.34665 0.728365 1.07815e-38 3
0.582495 0.34827 0.731768 1.0967e-38 3
0.588816 0.345045 0.724993 9.4922e-39 3
0.540477 0.310541 0.652493 8.01779e-39 3
0.55565 0.31315 0.657977 7.46533e-39 3
0.566281 0.31315 0.657977 7.74192e-39 3
0.591832 0.321249 0.674993 8.01886e-39 3
0.60798 0.324042 0.680863 7.55789e-39 3
0.629936 0.329778 0.692913 7.00543e-39 3
0.646856 0.332722 0.6991 7.2813e-39 3
-0.486612 0.286468 0.58215 9.67514e-39 3
-0.477206 0.286468 0.58215 9.95101e-39 3
-0.466068 0.285407 0.579994 1.20712e-38 3
-0.458394 0.286468 0.58215 1.17942e-38 3
-0.450664 0.287537 0.584322 1.09648e-38 3
-0.441223 0.287537 0.584322 9.67406e-39 3
-0.431781 0.287537 0.584322 9.85809e-39 3
-0.427121 0.290792 0.590937 1.05031e-38 3
-0.432254 0.301015 0.611713 1.14258e-38 3
-0.425696 0.303386 0.616529 1.23477e-38 3
-0.417378 0.304585 0.618966 1.1886e-38 3
-0.412265 0.30824 0.626394 1.19782e-38 3
-0.402144 0.30824 0.626394 1.24389e-38 3
-0.392023 0.30824 0.626394 1.2347e-38 3
-0.383436 0.309478 0.628909 1.27158e-38 3
-0.371782 0.30824 0.626394 1.21626e-38 3
-0.363113 0.309478 0.628909 1.14247e-38 3
-0.357256 0.313252 0.636579 1.1886e-38 3
-0.360147 0.325148 0.660753 1.30839e-38 3
-0.34947 0.325148 0.660753 1.37285e-38 3
-0.338794 0.325148 0.660753 1.26232e-38 3
-0.330911 0.327915 0.666376 1.33608e-38 3
-0.321512 0.329316 0.669224 1.31764e-38 3
-0.312033 0.330729 0.672096 1.31764e-38 3
-0.299886 0.329316 0.669224 1.39143e-38 3
-0.289073 0.329316 0.669224 1.48352e-38 3
-0.275902 0.326525 0.663553 1.48345e-38 3
-0.267447 0.329316 0.669224 1.46505e-38 3
-0.257736 0.330729 0.672096 1.37281e-38 3
-0.246877 0.330729 0.672096 1.382e-38 3
-0.236017 0.330729 0.672096 1.28058e-38 3
-0.224196 0.329316 0.669224 1.43721e-38 3
-0.213383 0.329316 0.669224 1.57546e-38 3
-0.200006 0.325148 0.660753 1.35423e-38 3
-0.184655 0.317119 0.644438 1.4465e-38 3
-0.167355 0.304585 0.618966 1.6677e-38 3
-0.154905 0.299844 0.609332 1.28048e-38 3
-0.143386 0.296384 0.602302 1.26214e-38 3
-0.13213 0.293004 0.595431 1.45583e-38 3
-0.122045 0.291894 0.593176 1.28998e-38 3
-0.112461 0.291894 0.593176 1.26236e-38 3
-0.102877 0.291894 0.593176 1.17946e-38 3
-0.0932929 0.291894 0.593176 1.22555e-38 3
0.00299079 0.342489 0.695993 1.45554e-38 3
0.0142362 0.342489 0.695993 1.40951e-38 3
0.0251464 0.337982 0.686835 1.44646e-38 3
0.035619 0.332155 0.674993 1.43724e-38 3
0.0453522 0.323781 0.657977 1.38203e-38 3
0.0559834 0.323781 0.657977 1.26222e-38 3
0.0649765 0.31582 0.641797 1.21623e-38 3
0.0747337 0.313252 0.636579 1.27154e-38 3
0.0843336 0.310726 0.631445 1.21626e-38 3
0.0956937 0.31453 0.639177 1.28998e-38 3
0.108683 0.322427 0.655223 1.31764e-38 3
0.120786 0.326525 0.663553 1.37296e-38 3
0.130952 0.325148 0.660753 1.2808e-38 3
0.141033 0.323781 0.657977 1.18882e-38 3
0.1504 0.321083 0.652493 1.16145e-38 3
0.162295 0.323781 0.657977 1.09698e-38 3
0.171486 0.321083 0.652493 1.03252e-38 3
0.181273 0.319751 0.649786 1.01404e-38 3
0.195835 0.326525 0.663553 1.06007e-38 3
0.209215 0.330729 0.672096 1.02334e-38 3
0.220075 0.330729 0.672096 9.49543e-39 3
0.232934 0.333593 0.677915 1.01412e-38 3
0.244947 0.335043 0.680863 1.04167e-38 3
0.259331 0.339471 0.689861 1.03245e-38 3
0.266949 0.335043 0.680863 9.5869e-39 3
0.274371 0.330729 0.672096 9.49578e-39 3
0.27126 0.31453 0.639177 1.04181e-38 3
0.279308 0.311984 0.634002 1.05096e-38 3
0.290729 0.313252 0.636579 9.67909e-39 3
0.302243 0.31453 0.639177 1.04152e-38 3
0.31257 0.31453 0.639177 1.05067e-38 3
0.328257 0.319751 0.649786 1.01383e-38 3
0.343026 0.323781 0.657977 1.11517e-38 3
0.355149 0.325148 0.660753 1.06911e-38 3
0.365825 0.325148 0.660753 1.08755e-38 3
0.379706 0.327915 0.666376 1.04134e-38 3
0.392141 0.329316 0.669224 1.09655e-38 3
0.402954 0.329316 0.669224 1.10584e-38 3
0.412006 0.327915 0.666376 1.05053e-38 3
0.419206 0.325148 0.660753 1.01358e-38 3
0.426284 0.322427 0.655223 1.078e-38 3
0.438706 0.323781 0.657977 9.85917e-39 3
0.460959 0.332155 0.674993 9.67622e-39 3
0.456136 0.321083 0.652493 1.01368e-38 3
0.482771 0.332155 0.674993 9.95209e-39 3
0.493677 0.332155 0.674993 9.76769e-39 3
0.50027 0.329316 0.669224 9.85917e-39 3
0.474577 0.305793 0.621422 9.67478e-39 3
0.47152 0.297529 0.604627 9.58295e-39 3
0.591554 0.358418 0.728365 9.39928e-39 3
0.572105 0.321083 0.652493 8.29365e-39 3
0.597587 0.329316 0.669224 7.649e-39 3
0.618981 0.335043 0.680863 7.83339e-39 3
0.646856 0.344018 0.6991 8.01778e-39 3
-0.497869 0.296978 0.584322 1.20719e-38 3
-0.477733 0.290475 0.571527 1.19797e-38 3
-0.473685 0.293691 0.577854 1.13339e-38 3
-0.464348 0.293691 0.577854 1.15169e-38 3
-0.455011 0.293691 0.577854 1.11478e-38 3
-0.448988 0.295874 0.58215 1.08719e-38 3
-0.441223 0.296978 0.584322 1.08719e-38 3
-0.431781 0.296978 0.584322 1.09641e-38 3
-0.423922 0.298091 0.586511 1.13336e-38 3
-0.435657 0.313347 0.616529 1.1518e-38 3
-0.427378 0.314586 0.618966 1.11488e-38 3
-0.417378 0.314586 0.618966 1.19782e-38 3
-0.410623 0.317092 0.623898 1.22541e-38 3
-0.400542 0.317092 0.623898 1.28991e-38 3
-0.390462 0.317092 0.623898 1.17935e-38 3
-0.381902 0.318361 0.626394 1.21626e-38 3
-0.371782 0.318361 0.626394 1.25314e-38 3
-0.361661 0.318361 0.626394 1.34534e-38 3
-0.352952 0.319639 0.628909 1.20704e-38 3
-0.352705 0.328885 0.647101 1.24374e-38 3
-0.34367 0.33025 0.649786 1.3359e-38 3
-0.333171 0.33025 0.649786 1.39133e-38 3
-0.325373 0.333013 0.655223 1.36374e-38 3
-0.316108 0.334413 0.657977 1.41895e-38 3
-0.278367 0.327532 0.644438 1.54795e-38 3
-0.265767 0.324858 0.639177 1.36345e-38 3
-0.260761 0.331626 0.652493 1.32668e-38 3
-0.231059 0.334413 0.657977 9.76337e-39 3
-0.218591 0.331626 0.652493 1.29902e-38 3
-0.154305 0.308489 0.606971 1.23438e-38 3
-0.13064 0.299211 0.588716 1.36374e-38 3
-0.120674 0.298091 0.586511 1.28076e-38 3
-0.111616 0.299211 0.588716 1.27154e-38 3
-0.101721 0.298091 0.586511 1.27161e-38 3
-0.0922446 0.298091 0.586511 1.36381e-38 3
-0.0543387 0.298091 0.586511 1.52008e-38 3
-0.0355187 0.299211 0.588716 1.63067e-38 3
-0.0261047 0.30034 0.590937 1.53844e-38 3
-0.0165567 0.30034 0.590937 1.60305e-38 3
-0.00706197 0.302624 0.595431 1.50178e-38 3
0.0325339 0.313347 0.616529 1.4649e-38 3
0.0424954 0.313347 0.616529 1.511e-38 3
0.0530839 0.317092 0.623898 1.36356e-38 3
0.0636718 0.319639 0.628909 1.32675e-38 3
0.0738333 0.319639 0.628909 1.38218e-38 3
0.0826669 0.314586 0.618966 1.24396e-38 3
0.0926678 0.314586 0.618966 1.26236e-38 3
0.104318 0.319639 0.628909 1.2808e-38 3
0.11448 0.319639 0.628909 1.22548e-38 3
0.125144 0.320928 0.631445 1.31775e-38 3
0.136447 0.323537 0.636579 1.26265e-38 3
0.145549 0.320928 0.631445 1.13379e-38 3
0.156382 0.322227 0.634002 1.18911e-38 3
0.166626 0.322227 0.634002 9.95748e-39 3
0.17336 0.315834 0.621422 1.07865e-38 3
0.179136 0.308489 0.606971 1.04177e-38 3
0.187489 0.306116 0.602302 1.02341e-38 3
0.194971 0.302624 0.595431 9.86457e-39 3
0.203817 0.301478 0.593176 1.15241e-38 3
0.212596 0.30034 0.590937 1.16152e-38 3
0.253742 0.343061 0.674993 9.86349e-39 3
0.24658 0.319639 0.628909 1.11553e-38 3
0.25882 0.322227 0.634002 1.03263e-38 3
0.267979 0.320928 0.631445 9.21992e-39 3
0.275956 0.318361 0.626394 9.31139e-39 3
0.288384 0.320928 0.631445 1.06028e-38 3
0.301014 0.323537 0.636579 1.02326e-38 3
0.31257 0.324858 0.639177 9.21668e-39 3
0.3269 0.328885 0.647101 9.7695e-39 3
0.34159 0.333013 0.655223 9.40107e-39 3
0.355149 0.335824 0.660753 9.95424e-39 3
0.362764 0.333013 0.655223 9.58582e-39 3
0.373351 0.333013 0.655223 9.03157e-39 3
0.387177 0.335824 0.660753 1.11499e-38 3
0.397853 0.335824 0.660753 1.09662e-38 3
0.398442 0.327532 0.644438 9.30744e-39 3
0.403869 0.323537 0.636579 8.56843e-39 3
0.412477 0.322227 0.634002 1.02269e-38 3
0.42444 0.323537 0.636579 9.39819e-39 3
0.449338 0.334413 0.657977 9.12197e-39 3
0.452366 0.328885 0.647101 9.49111e-39 3
0.455296 0.323537 0.636579 8.84574e-39 3
0.477221 0.331626 0.652493 9.76769e-39 3
0.466388 0.317092 0.623898 9.58258e-39 3
0.472702 0.314586 0.618966 9.49039e-39 3
0.469707 0.306116 0.602302 8.84502e-39 3
0.472174 0.301478 0.593176 9.306e-39 3
0.481758 0.301478 0.593176 9.39856e-39 3
0.537828 0.306116 0.602302 8.10926e-39 3
0.603244 0.337247 0.663553 7.1873e-39 3
-0.470859 0.295397 0.563304 1.13343e-38 3
-0.466795 0.29862 0.569449 1.10566e-38 3
-0.457594 0.29862 0.569449 1.16094e-38 3
-0.448393 0.29862 0.569449 1.24388e-38 3
-0.439192 0.29862 0.569449 1.19775e-38 3
-0.434734 0.301913 0.575729 1.17009e-38 3
-0.419266 0.297538 0.567386 1.11485e-38 3
-0.410099 0.297538 0.567386 1.15172e-38 3
-0.439115 0.325875 0.621422 1.14247e-38 3
-0.429074 0.325875 0.621422 1.18857e-38 3
-0.417378 0.324587 0.618966 1.20701e-38 3
-0.407377 0.324587 0.618966 1.22545e-38 3
-0.397376 0.324587 0.618966 1.04105e-38 3
-0.358633 0.345044 0.657977 1.27151e-38 3
-0.350951 0.347968 0.663553 1.29906e-38 3
-0.34023 0.347968 0.663553 1.2992e-38 3
-0.32674 0.345044 0.657977 1.37281e-38 3
-0.281797 0.318296 0.606971 1.33608e-38 3
-0.110783 0.306419 0.584322 1.40062e-38 3
-0.090549 0.301913 0.575729 1.4281e-38 3
-0.0525667 0.297538 0.567386 1.35423e-38 3
-0.0433993 0.297538 0.567386 1.45568e-38 3
-0.0343563 0.29862 0.569449 1.53855e-38 3
-0.0258125 0.306419 0.584322 1.6583e-38 3
-0.0164327 0.307567 0.586511 1.60298e-38 3
-0.00700867 0.309888 0.590937 1.5477e-38 3
0.0025298 0.308723 0.588716 1.50174e-38 3
0.0524569 0.323309 0.616529 1.34501e-38 3
0.0621736 0.322041 0.614111 1.51107e-38 3
0.0720961 0.322041 0.614111 1.63085e-38 3
0.0804413 0.315848 0.602302 1.47419e-38 3
0.100679 0.318296 0.606971 1.26247e-38 3
0.110916 0.319535 0.609332 1.26247e-38 3
0.11891 0.314638 0.599994 1.2902e-38 3
0.131117 0.320783 0.611713 1.1613e-38 3
0.141553 0.322041 0.614111 1.13372e-38 3
0.152072 0.323309 0.616529 1.07854e-38 3
0.161398 0.322041 0.614111 1.13397e-38 3
0.170651 0.320783 0.611713 1.08787e-38 3
0.175064 0.311062 0.593176 1.09716e-38 3
0.183952 0.309888 0.590937 1.14326e-38 3
0.19205 0.307567 0.586511 9.95677e-39 3
0.200775 0.306419 0.584322 1.10628e-38 3
0.210216 0.306419 0.584322 1.12475e-38 3
0.22048 0.307567 0.586511 1.14319e-38 3
0.231692 0.309888 0.590937 1.1617e-38 3
0.249721 0.320783 0.611713 1.07872e-38 3
0.263725 0.325875 0.621422 9.40431e-39 3
0.270545 0.322041 0.614111 1.05107e-38 3
0.281572 0.323309 0.616529 1.01415e-38 3
0.298586 0.331131 0.631445 1.03252e-38 3
0.310039 0.332471 0.634002 9.21812e-39 3
0.324221 0.336559 0.641797 9.40251e-39 3
0.337356 0.339341 0.647101 8.94261e-39 3
0.352177 0.3436 0.655223 8.57275e-39 3
0.358267 0.339341 0.647101 9.49471e-39 3
0.367205 0.337944 0.644438 8.94117e-39 3
0.377617 0.337944 0.644438 9.86133e-39 3
0.38644 0.336559 0.641797 9.76913e-39 3
0.397407 0.328482 0.626394 1.03205e-38 3
0.407528 0.328482 0.626394 9.67478e-39 3
0.417649 0.328482 0.626394 9.58258e-39 3
0.436499 0.335185 0.639177 9.76698e-39 3
0.445011 0.333823 0.636579 1.05045e-38 3
0.449811 0.329801 0.628909 9.39891e-39 3
0.454496 0.325875 0.621422 9.30672e-39 3
0.462701 0.324587 0.618966 1.05045e-38 3
0.470841 0.323309 0.616529 9.39819e-39 3
0.477046 0.320783 0.611713 8.75319e-39 3
0.473969 0.312245 0.595431 9.03013e-39 3
0.48359 0.312245 0.595431 9.12197e-39 3
0.493211 0.312245 0.595431 9.12197e-39 3
0.491616 0.30528 0.58215 9.3982e-39 3
0.506661 0.303027 0.577854 9.39856e-39 3
0.515997 0.303027 0.577854 8.93758e-39 3
-0.414376 0.26289 0.48633 1.02269e-38 3
-0.411631 0.266197 0.492448 1.05035e-38 3
-0.451033 0.303407 0.561285 1.17016e-38 3
-0.441965 0.303407 0.561285 1.26232e-38 3
-0.429814 0.301248 0.55729 1.23463e-38 3
-0.390937 0.285982 0.529049 1.26236e-38 3
-0.377291 0.282169 0.521995 1.24392e-38 3
-0.364003 0.278456 0.515126 1.24388e-38 3
-0.353355 0.276636 0.51176 1.22545e-38 3
-0.342846 0.27484 0.508436 1.21623e-38 3
-0.348002 0.355675 0.657977 1.28998e-38 3
-0.254902 0.268732 0.497138 1.23467e-38 3
-0.243972 0.284063 0.525498 8.84286e-39 3
-0.235481 0.284063 0.525498 1.08701e-38 3
-0.108357 0.308944 0.571527 1.42831e-38 3
-0.0885947 0.304499 0.563304 1.3453e-38 3
-0.0518158 0.302324 0.55928 1.4375e-38 3
-0.0429326 0.303407 0.561285 1.47427e-38 3
-0.0339855 0.304499 0.563304 1.63082e-38 3
-0.0252473 0.308944 0.571527 1.55688e-38 3
-0.0163105 0.314686 0.58215 1.5844e-38 3
-0.00698232 0.318235 0.588716 1.52004e-38 3
0.0025298 0.318235 0.588716 1.53862e-38 3
0.0381407 0.299119 0.553351 1.49245e-38 3
0.0666105 0.306705 0.567386 1.6216e-38 3
0.0746955 0.302324 0.55928 1.58483e-38 3
0.0855655 0.308944 0.571527 1.36381e-38 3
0.097651 0.318235 0.588716 1.29942e-38 3
0.105576 0.313521 0.579994 1.29023e-38 3
0.113684 0.310076 0.573621 1.2257e-38 3
0.12478 0.314686 0.58215 1.17971e-38 3
0.136212 0.319436 0.590937 1.15208e-38 3
0.14576 0.319436 0.590937 1.16138e-38 3
0.14966 0.30782 0.569449 1.10624e-38 3
0.161803 0.313521 0.579994 1.07865e-38 3
0.169915 0.311216 0.575729 1.19851e-38 3
0.178561 0.310076 0.573621 1.09716e-38 3
0.187829 0.310076 0.573621 1.04177e-38 3
0.196378 0.308944 0.571527 1.04177e-38 3
0.206366 0.310076 0.573621 1.09709e-38 3
0.216427 0.311216 0.575729 1.20773e-38 3
0.228247 0.314686 0.58215 1.10638e-38 3
0.242154 0.320646 0.593176 1.10638e-38 3
0.257592 0.328103 0.606971 1.17092e-38 3
0.267399 0.328103 0.606971 1.05107e-38 3
0.278285 0.32938 0.609332 9.49614e-39 3
0.293847 0.335915 0.621422 1.06025e-38 3
0.305098 0.337254 0.623898 1.01412e-38 3
0.318992 0.341333 0.631445 9.49471e-39 3
0.33187 0.344108 0.636579 9.68018e-39 3
0.343552 0.345513 0.639177 1.0049e-38 3
0.35388 0.345513 0.639177 8.94153e-39 3
0.361258 0.342715 0.634002 1.02323e-38 3
0.371502 0.342715 0.634002 1.07847e-38 3
0.381746 0.342715 0.634002 1.0784e-38 3
0.384212 0.335915 0.621422 1.11521e-38 3
0.391148 0.33327 0.616529 1.04138e-38 3
0.40111 0.33327 0.616529 9.12232e-39 3
0.401585 0.325579 0.602302 1.06896e-38 3
0.403556 0.319436 0.590937 9.95137e-39 3
0.434415 0.335915 0.621422 1.0228e-38 3
0.437511 0.330667 0.611713 1.05967e-38 3
0.443927 0.328103 0.606971 9.85917e-39 3
0.453734 0.328103 0.606971 1.05053e-38 3
0.465344 0.32938 0.609332 1.10584e-38 3
0.478917 0.331963 0.614111 1.04131e-38 3
0.475778 0.323094 0.597704 8.38476e-39 3
0.485436 0.323094 0.597704 8.56915e-39 3
0.468953 0.30018 0.555314 8.29185e-39 3
0.476236 0.299119 0.553351 8.75282e-39 3
0.486897 0.30018 0.555314 8.4766e-39 3
-0.413093 0.26991 0.484825 9.85773e-39 3
-0.405259 0.26991 0.484825 1.14254e-38 3
-0.397426 0.26991 0.484825 1.11485e-38 3
-0.384827 0.266608 0.478894 1.1886e-38 3
-0.395993 0.285839 0.513437 1.20697e-38 3
-0.38643 0.284905 0.51176 1.37292e-38 3
-0.375706 0.283055 0.508436 1.22548e-38 3
-0.366302 0.282139 0.506791 1.16094e-38 3
-0.356958 0.281229 0.505156 1.20708e-38 3
-0.348796 0.281229 0.505156 1.09644e-38 3
-0.339539 0.280324 0.503532 1.19782e-38 3
-0.332472 0.281229 0.505156 1.22548e-38 3
-0.330711 0.286779 0.515126 1.13314e-38 3
-0.287032 0.276765 0.497138 1.23459e-38 3
-0.260454 0.274154 0.492448 1.25314e-38 3
-0.251706 0.273294 0.490904 1.09637e-38 3
-0.252462 0.292553 0.525498 1.08701e-38 3
-0.243156 0.291575 0.523741 9.76518e-39 3
-0.234694 0.291575 0.523741 1.52029e-38 3
-0.226231 0.291575 0.523741 1.27136e-38 3
-0.0864187 0.305898 0.549468 1.29005e-38 3
-0.0599952 0.306975 0.551403 1.13339e-38 3
-0.051086 0.306975 0.551403 1.3086e-38 3
-0.0423258 0.30806 0.553351 1.28091e-38 3
-0.0252473 0.318178 0.571527 1.54777e-38 3
-0.0160129 0.318178 0.571527 1.59369e-38 3
0.0369652 0.298565 0.536296 1.40958e-38 3
0.0456303 0.298565 0.536296 1.40958e-38 3
0.0558249 0.306975 0.551403 1.44657e-38 3
0.0651933 0.309152 0.555314 1.52947e-38 3
0.07042 0.293538 0.527267 1.54802e-38 3
0.0789392 0.293538 0.527267 1.45601e-38 3
0.0895696 0.300624 0.539995 1.33637e-38 3
0.0959778 0.293538 0.527267 1.29034e-38 3
0.104497 0.293538 0.527267 1.27183e-38 3
0.119451 0.310252 0.55729 1.27187e-38 3
0.129842 0.3136 0.563304 1.23502e-38 3
0.144409 0.305898 0.549468 1.1707e-38 3
0.153827 0.306975 0.551403 1.0878e-38 3
0.164473 0.310252 0.55729 1.10627e-38 3
0.173478 0.310252 0.55729 1.14315e-38 3
0.184451 0.3136 0.563304 1.07869e-38 3
0.195664 0.317021 0.569449 1.02333e-38 3
0.206366 0.319344 0.573621 1.05099e-38 3
0.216427 0.320518 0.575729 1.07865e-38 3
0.229098 0.325302 0.584322 1.11564e-38 3
0.244937 0.334026 0.599994 1.1156e-38 3
0.255611 0.335311 0.602302 1.10638e-38 3
0.264326 0.334026 0.599994 1.12482e-38 3
0.270906 0.330231 0.593176 1.0511e-38 3
0.285905 0.336606 0.604627 1.03263e-38 3
0.297975 0.339225 0.609332 1.02337e-38 3
0.311456 0.343232 0.616529 9.68018e-39 3
0.32656 0.348723 0.626394 9.86529e-39 3
0.340771 0.352959 0.634002 1.00493e-38 3
0.351014 0.352959 0.634002 1.03248e-38 3
0.358357 0.350124 0.628909 9.95605e-39 3
0.370004 0.351536 0.631445 9.12629e-39 3
0.37868 0.350124 0.628909 1.02319e-38 3
0.384212 0.345956 0.621422 1.04152e-38 3
0.386582 0.339225 0.609332 1.09673e-38 3
0.394891 0.33791 0.606971 1.03223e-38 3
0.395501 0.330231 0.593176 1.19815e-38 3
0.399039 0.325302 0.584322 1.10584e-38 3
0.427492 0.332751 0.597704 1.00425e-38 3
0.435487 0.331486 0.595431 1.00436e-38 3
0.446806 0.332751 0.597704 8.93758e-39 3
0.461751 0.336606 0.604627 9.49183e-39 3
0.477046 0.34055 0.611713 8.93865e-39 3
0.470392 0.328984 0.590937 8.0167e-39 3
0.47994 0.328984 0.590937 7.9245e-39 3
0.476891 0.320518 0.575729 9.03085e-39 3
0.464016 0.305898 0.549468 9.85917e-39 3
0.472894 0.305898 0.549468 8.75282e-39 3
