# .PCD v0.7 - Point Cloud Data file format
VERSION 0.7
FIELDS x y z rgb label
SIZE 4 4 4 4 4
TYPE F F F F U
COUNT 1 1 1 1 1
WIDTH 2373
HEIGHT 1
VIEWPOINT 0 0 0 1 0 0 0
POINTS 2373
DATA ascii
-1.14475 -0.764786 3.91496 1.01236e-39 1
-1.5201 -0.702228 3.91496 1.93324e-39 1
-1.34146 -0.780253 4.34996 2.30417e-39 1
-1.14475 -0.702228 3.91496 2.58076e-39 1
-1.44772 -0.609209 3.72853 1.28823e-39 1
-1.53426 -0.673336 4.12101 1.37935e-39 1
-1.64116 -0.752552 4.60584 1.38114e-39 1
-1.66553 -0.799587 4.8937 2.30382e-39 1
-1.49396 -0.752552 4.60584 1.75065e-39 1
-1.27085 -0.673336 4.12101 2.02795e-39 1
-1.14475 -0.639669 3.91496 1.38186e-39 1
-1.20244 -0.710744 4.34996 1.28895e-39 1
-1.19957 -0.752552 4.60584 2.11799e-39 1
-1.06342 -0.710744 4.34996 1.65773e-39 1
-1.05238 -0.752552 4.60584 1.38114e-39 1
-1.03995 -0.799587 4.8937 1.28823e-39 1
-1.44772 -0.54963 3.72853 1.47226e-39 1
-1.53426 -0.607485 4.12101 1.47154e-39 1
-1.64116 -0.678954 4.60584 1.10456e-39 1
-1.49396 -0.678954 4.60584 1.28967e-39 1
-1.34146 -0.641235 4.34996 8.29049e-40 1
-1.205 -0.607485 4.12101 1.01308e-39 1
-1.20244 -0.641235 4.34996 1.56553e-39 1
-1.13293 -0.641235 4.34996 1.74957e-39 1
-1.06342 -0.641235 4.34996 1.74992e-39 1
-0.99391 -0.641235 4.34996 1.38114e-39 1
-0.978778 -0.678954 4.60584 1.74921e-39 1
-1.5201 -0.514553 3.91496 1.01201e-39 1
-1.53426 -0.541635 4.12101 1.47154e-39 1
-1.64116 -0.605357 4.60584 1.28895e-39 1
-1.58734 -0.643191 4.8937 1.38186e-39 1
-1.42036 -0.605357 4.60584 1.28967e-39 1
-1.30829 -0.588061 4.47424 1.75065e-39 1
-1.20244 -0.571726 4.34996 1.38114e-39 1
-1.13293 -0.571726 4.34996 1.10456e-39 1
-1.00745 -0.541635 4.12101 1.84176e-39 1
-0.941599 -0.541635 4.12101 1.38114e-39 1
-0.924401 -0.571726 4.34996 2.02651e-39 1
-1.689 -0.502217 4.34996 1.1964e-39 1
-1.71476 -0.531759 4.60584 1.74849e-39 1
-1.19957 -0.531759 4.60584 1.28967e-39 1
-1.06342 -0.502217 4.34996 2.3031e-39 1
-1.78835 -0.384563 4.60584 1.56697e-39 1
-1.43094 -0.330401 4.8937 2.02651e-39 1
-1.19957 -0.310965 4.60584 1.93576e-39 1
-1.50914 -0.252203 4.8937 2.2109e-39 1
-1.34677 -0.237368 4.60584 2.57897e-39 1
-1.10231 -0.218121 4.23239 1.75137e-39 1
-1.92021 -0.0122504 3.40431 2.39673e-39 3
-1.2625 -0.00853817 2.3727 1.56625e-39 3
-1.15461 -0.00805027 2.23712 3.41052e-39 3
-1.11886 -0.00805027 2.23712 2.39709e-39 3
-1.08311 -0.00805027 2.23712 2.94954e-39 3
-1.11084 -0.00853817 2.3727 3.13393e-39 3
-1.10646 -0.00880498 2.44685 3.22541e-39 3
-1.13852 -0.00939198 2.60997 2.39637e-39 3
-1.50914 -0.01761 4.8937 3.22505e-39 3
-1.27454 -0.01761 4.8937 3.40944e-39 3
-1.19635 -0.01761 4.8937 3.68567e-39 3
-1.2625 0.0293759 2.3727 3.0421e-39 3
-1.0922 0.0262001 2.11619 2.76515e-39 3
-1.1031 0.0273071 2.20561 3.04174e-39 3
-1.06786 0.0273071 2.20561 2.85735e-39 3
-1.00432 0.026559 2.14518 3.22685e-39 3
-1.13852 0.0323134 2.60997 3.31905e-39 3
-1.64116 0.0570237 4.60584 2.95063e-39 3
-1.56756 0.0570237 4.60584 3.1343e-39 3
-1.49396 0.0570237 4.60584 3.13394e-39 3
-1.34146 0.0538557 4.34996 3.59383e-39 3
-0.772996 0.0346215 2.7964 3.04246e-39 3
-1.27454 0.0605877 4.8937 3.31832e-39 3
-0.765662 0.0387761 3.13197 2.57968e-39 3
0.0873337 0.010098 0.815617 4.79345e-39 3
-1.05619 0.0516411 1.82091 3.22505e-39 3
-0.98144 0.0493459 1.73998 3.8715e-39 3
-1.0922 0.0600153 2.11619 4.14808e-39 3
-1.07288 0.0608374 2.14518 3.41052e-39 3
-1.06786 0.0625512 2.20561 3.8715e-39 3
-1.01827 0.0616824 2.17498 3.50308e-39 3
-0.956937 0.0600153 2.11619 3.41124e-39 3
-1.4684 0.116872 4.12101 4.88637e-39 3
-1.48047 0.123365 4.34996 3.22685e-39 3
-1.41096 0.123365 4.34996 4.33248e-39 3
-1.34146 0.123365 4.34996 5.34663e-39 3
-0.81768 0.0793059 2.7964 5.25515e-39 3
-0.772996 0.0793059 2.7964 4.60978e-39 3
-0.765662 0.0888226 3.13197 4.60907e-39 3
0.0873337 0.0231309 0.815617 4.70126e-39 3
-0.833381 0.0588429 1.32711 3.87222e-39 3
-2.81872 0.204219 4.60584 4.51687e-39 3
-1.06062 0.0789029 1.77953 3.04102e-39 3
-1.03218 0.0789029 1.77953 3.77715e-39 3
-0.98144 0.0771495 1.73998 4.2392e-39 3
-0.97531 0.0789029 1.77953 4.14809e-39 3
-0.946875 0.0789029 1.77953 4.14809e-39 3
-1.0922 0.0938305 2.11619 4.79417e-39 3
-1.07288 0.0951159 2.14518 4.1488e-39 3
-1.0386 0.0951159 2.14518 4.241e-39 3
-0.990752 0.0938305 2.11619 4.51795e-39 3
-0.956937 0.0938305 2.11619 4.88673e-39 3
-1.06736 0.108492 2.44685 4.70198e-39 3
-1.17516 0.12399 2.7964 4.88637e-39 3
-1.45754 0.173586 3.91496 5.16296e-39 3
-1.4684 0.182723 4.12101 5.62394e-39 3
-1.48047 0.192874 4.34996 5.80833e-39 3
-1.41096 0.192874 4.34996 5.62393e-39 3
-1.50914 0.216983 4.8937 4.88601e-39 3
-1.27195 0.192874 4.34996 5.16332e-39 3
2.08796 0.216983 4.8937 3.77966e-39 3
-0.969627 0.0908248 1.50575 3.87222e-39 3
-0.89399 0.0858708 1.42362 3.50344e-39 3
-0.887376 0.087461 1.44999 4.05625e-39 3
-1.06062 0.107338 1.77953 3.77931e-39 3
-1.03218 0.107338 1.77953 4.88566e-39 3
-1.00375 0.107338 1.77953 4.4236e-39 3
-1.07284 0.118072 1.95748 4.79202e-39 3
-1.06827 0.1211 2.00767 4.60834e-39 3
-1.0922 0.127646 2.11619 4.79417e-39 3
-1.05838 0.127646 2.11619 4.88637e-39 3
-1.0386 0.129394 2.14518 4.51759e-39 3
-0.990752 0.127646 2.11619 5.25552e-39 3
-0.956937 0.127646 2.11619 4.97893e-39 3
-1.26502 0.174922 2.89997 3.87258e-39 3
-1.43062 0.205343 3.40431 5.25515e-39 3
-1.86195 0.277817 4.60584 4.79345e-39 3
-1.78835 0.277817 4.60584 4.97857e-39 3
-1.71476 0.277817 4.60584 5.07041e-39 3
-1.74373 0.295181 4.8937 5.80833e-39 3
-1.66553 0.295181 4.8937 5.34735e-39 3
-1.58734 0.295181 4.8937 4.79417e-39 3
2.08796 0.295181 4.8937 4.97784e-39 3
2.16615 0.295181 4.8937 4.14809e-39 3
3.04664 0.236145 3.91496 2.7648e-39 3
3.1092 0.236145 3.91496 2.58041e-39 3
-1.1233 0.129871 1.70216 3.41124e-39 3
-1.02899 0.121919 1.59794 3.87222e-39 3
-0.945567 0.114886 1.50575 4.05661e-39 3
-0.958366 0.119481 1.56598 4.33284e-39 3
-1.06062 0.135774 1.77953 5.34663e-39 3
-1.05619 0.138931 1.82091 3.8715e-39 3
-1.13243 0.153181 2.00767 4.70018e-39 3
-1.2261 0.170687 2.23712 4.14665e-39 3
-1.19036 0.170687 2.23712 5.80689e-39 3
-1.15461 0.170687 2.23712 5.25515e-39 3
-1.15177 0.175707 2.30292 5.07076e-39 3
-1.11497 0.175707 2.30292 4.79418e-39 3
-1.06255 0.173161 2.26954 5.43991e-39 3
-0.970046 0.163673 2.14518 4.79454e-39 3
-1.31367 0.229771 3.01151 4.42683e-39 3
-1.82802 0.331892 4.34996 5.07076e-39 3
-1.86195 0.351415 4.60584 5.16188e-39 3
-1.78835 0.351415 4.60584 4.51759e-39 3
-1.82193 0.373378 4.8937 4.60978e-39 3
-1.74373 0.373378 4.8937 5.43954e-39 3
-1.66553 0.373378 4.8937 5.25515e-39 3
2.08796 0.373378 4.8937 4.97785e-39 3
1.39976 0.124459 1.63123 3.13394e-39 3
1.45617 0.127108 1.66594 2.94847e-39 3
1.48279 0.127108 1.66594 2.85627e-39 3
1.47796 0.124459 1.63123 3.31725e-39 3
1.47333 0.121919 1.59794 3.22505e-39 3
1.44009 0.117138 1.53528 3.13394e-39 3
1.3581 0.108619 1.42362 3.41017e-39 3
1.32081 0.103897 1.36173 2.76372e-39 3
1.39095 0.107641 1.4108 1.93432e-39 3
1.46634 0.111665 1.46354 3.03995e-39 3
1.5327 0.114886 1.50575 3.77751e-39 3
-1.17607 0.16056 1.73998 4.88637e-39 3
-1.0994 0.153728 1.66594 5.16296e-39 3
-1.05043 0.150525 1.63123 4.88637e-39 3
-1.00346 0.147453 1.59794 5.25515e-39 3
-0.998298 0.150525 1.63123 4.42504e-39 3
-1.08528 0.168028 1.82091 4.70126e-39 3
-1.16451 0.185262 2.00767 4.88565e-39 3
-1.26185 0.206435 2.23712 5.53102e-39 3
-1.34105 0.225788 2.44685 7.28202e-39 3
-1.34395 0.233072 2.52578 7.37421e-39 3
-1.30359 0.233072 2.52578 5.80796e-39 3
-1.24318 0.229372 2.48569 5.62393e-39 3
-1.20346 0.229372 2.48569 4.42539e-39 3
-1.3577 0.267601 2.89997 5.44026e-39 3
-1.36179 0.277893 3.01151 5.71649e-39 3
-1.70778 0.361261 3.91496 6.27074e-39 3
-1.93555 0.425013 4.60584 7.00687e-39 3
-1.97832 0.451576 4.8937 6.91431e-39 3
-1.90013 0.451576 4.8937 5.25515e-39 3
-1.82193 0.451576 4.8937 5.71613e-39 3
-1.74373 0.451576 4.8937 5.34735e-39 3
0.086459 0.0875784 0.949081 6.17855e-39 3
0.524002 0.451576 4.8937 6.08527e-39 3
0.6022 0.451576 4.8937 6.91396e-39 3
0.680397 0.451576 4.8937 6.63737e-39 3
0.758595 0.451576 4.8937 7.09834e-39 3
1.42955 0.153728 1.66594 4.05589e-39 3
1.55545 0.164209 1.77953 4.79346e-39 3
1.58389 0.164209 1.77953 4.05482e-39 3
1.50941 0.153728 1.66594 3.40944e-39 3
1.50403 0.150525 1.63123 3.59491e-39 3
1.49887 0.147453 1.59794 3.22613e-39 3
1.42277 0.137623 1.49141 3.31869e-39 3
1.39352 0.132573 1.43668 3.13358e-39 3
1.42959 0.1338 1.44999 2.85736e-39 3
1.48017 0.136325 1.47734 2.67188e-39 3
1.5327 0.138946 1.50575 2.2109e-39 3
1.65207 0.147453 1.59794 2.57933e-39 3
1.6776 0.147453 1.59794 3.59348e-39 3
1.73862 0.150525 1.63123 2.48713e-39 3
-1.17607 0.188364 1.73998 5.62393e-39 3
-1.0994 0.180349 1.66594 5.16296e-39 3
-1.05043 0.176591 1.63123 4.70198e-39 3
-1.02436 0.176591 1.63123 5.99272e-39 3
-0.998298 0.176591 1.63123 5.99236e-39 3
-1.22808 0.223063 2.06051 5.2548e-39 3
-1.2976 0.242182 2.23712 4.7931e-39 3
-1.42467 0.273432 2.52578 5.53138e-39 3
-1.58939 0.31394 2.89997 5.71469e-39 3
-1.6665 0.339055 3.13197 6.36006e-39 3
-1.61645 0.339055 3.13197 5.99235e-39 3
-1.56641 0.339055 3.13197 5.80832e-39 3
-1.40404 0.31394 2.89997 6.73028e-39 3
-1.66627 0.38529 3.55905 6.45441e-39 3
-1.77033 0.423819 3.91496 5.90088e-39 3
-1.89753 0.47091 4.34996 6.91611e-39 3
-1.93555 0.498611 4.60584 7.09906e-39 3
0.086459 0.102744 0.949081 6.73244e-39 3
1.67972 0.21191 1.95748 4.97857e-39 3
1.62952 0.201819 1.86427 4.60907e-39 3
1.58389 0.192645 1.77953 3.68711e-39 3
1.61232 0.192645 1.77953 3.7793e-39 3
1.47333 0.172987 1.59794 4.05589e-39 3
1.41239 0.163007 1.50575 2.85771e-39 3
1.4504 0.16459 1.52037 3.77967e-39 3
1.4747 0.16459 1.52037 3.87151e-39 3
1.48458 0.163007 1.50575 3.59528e-39 3
1.48017 0.159932 1.47734 3.04139e-39 3
1.56275 0.166204 1.53528 3.22578e-39 3
1.65207 0.172987 1.59794 4.70019e-39 3
-1.07278 0.206969 1.66594 4.7931e-39 3
-1.04616 0.206969 1.66594 4.97857e-39 3
-1.26101 0.255988 2.06051 4.51795e-39 3
-1.60921 0.335432 2.69997 4.33356e-39 3
-1.56607 0.335432 2.69997 5.6243e-39 3
-1.8402 0.405314 3.26247 5.34735e-39 3
-1.83289 0.486377 3.91496 6.82248e-39 3
-1.77033 0.486377 3.91496 7.37601e-39 3
-1.70778 0.486377 3.91496 8.02174e-39 3
0.294085 0.486377 3.91496 7.83807e-39 3
0.0869862 0.118629 0.954868 8.02174e-39 3
1.62072 0.226222 1.82091 4.05446e-39 3
1.61232 0.221081 1.77953 3.9637e-39 3
1.44387 0.194551 1.56598 3.59492e-39 3
1.38575 0.183539 1.47734 3.77895e-39 3
1.40935 0.183539 1.47734 3.77895e-39 3
1.28723 0.164874 1.32711 3.87186e-39 3
1.24513 0.156896 1.26289 3.87186e-39 3
1.3763 0.170659 1.37367 3.31797e-39 3
1.62654 0.198521 1.59794 3.41017e-39 3
-1.04616 0.23359 1.66594 5.25587e-39 3
-0.998298 0.228723 1.63123 4.33391e-39 3
-1.89233 0.457446 3.26247 6.73064e-39 3
-0.607309 0.228723 1.63123 8.48271e-39 3
-0.581244 0.228723 1.63123 8.11393e-39 3
0.310125 0.477335 3.40431 9.21992e-39 3
0.31052 0.406619 2.89997 9.31248e-39 3
0.356859 0.406619 2.89997 9.31248e-39 3
0.418706 0.422258 3.01151 9.49615e-39 3
1.41556 0.215269 1.53528 4.60907e-39 3
1.33535 0.199613 1.42362 5.34628e-39 3
1.3581 0.199613 1.42362 4.42432e-39 3
1.44661 0.209118 1.49141 4.24065e-39 3
1.24513 0.177076 1.26289 3.68747e-39 3
1.26531 0.177076 1.26289 4.33212e-39 3
-0.964107 0.239801 1.53528 7.92954e-39 3
-0.921506 0.23519 1.50575 8.02174e-39 3
-0.848493 0.222361 1.42362 8.39052e-39 3
-0.783034 0.21086 1.34999 7.7448e-39 3
-1.22092 0.42172 2.69997 8.02102e-39 3
-1.10179 0.394512 2.52578 8.11322e-39 3
-0.658087 0.244597 1.56598 8.57419e-39 3
-0.545744 0.21086 1.34999 8.48235e-39 3
-0.515288 0.207286 1.32711 8.6671e-39 3
-0.494082 0.207286 1.32711 8.02173e-39 3
-0.472876 0.207286 1.32711 7.4682e-39 3
-0.162241 0.191092 1.22343 8.8515e-39 3
-0.142691 0.191092 1.22343 8.48271e-39 3
-0.0312552 0.23519 1.50575 1.005e-38 3
-0.0071944 0.23519 1.50575 9.31176e-39 3
0.0178991 0.249589 1.59794 9.77274e-39 3
0.159674 0.42172 2.69997 1.02344e-38 3
0.183803 0.382183 2.44685 1.00493e-38 3
0.216148 0.370602 2.3727 1.06025e-38 3
0.254062 0.370602 2.3727 1.0511e-38 3
0.291976 0.370602 2.3727 1.10642e-38 3
0.32989 0.370602 2.3727 1.01415e-38 3
0.391533 0.394512 2.52578 1.08798e-38 3
0.514949 0.47038 3.01151 1.0327e-38 3
1.45078 0.291187 1.86427 6.54625e-39 3
1.44614 0.284416 1.82091 5.99308e-39 3
1.71446 0.330537 2.11619 6.91504e-39 3
1.65862 0.313586 2.00767 6.63845e-39 3
1.58389 0.277952 1.77953 4.33248e-39 3
1.61232 0.277952 1.77953 4.60943e-39 3
1.67891 0.284416 1.82091 3.77967e-39 3
1.61416 0.268788 1.72086 4.24029e-39 3
1.64166 0.268788 1.72086 5.1626e-39 3
1.18667 0.191092 1.22343 4.24065e-39 3
1.20622 0.191092 1.22343 4.51723e-39 3
1.13858 0.174712 1.11856 3.50236e-39 3
-0.871242 0.24511 1.42362 7.28417e-39 3
-0.818722 0.236509 1.37367 7.92954e-39 3
-0.756933 0.224684 1.30499 7.46857e-39 3
-0.708133 0.269621 1.56598 8.94262e-39 3
-0.588888 0.232432 1.34999 9.03481e-39 3
-0.557701 0.228492 1.32711 9.31211e-39 3
-0.518905 0.221001 1.28359 9.12808e-39 3
-0.498394 0.221001 1.28359 8.94441e-39 3
-0.470175 0.217436 1.26289 8.66782e-39 3
-0.449995 0.217436 1.26289 8.39123e-39 3
-0.429815 0.217436 1.26289 1.0143e-38 3
-0.18179 0.210641 1.22343 9.77309e-39 3
-0.162241 0.210641 1.22343 9.95784e-39 3
-0.136302 0.201209 1.16864 1.06032e-38 3
-0.117628 0.201209 1.16864 1.06032e-38 3
-0.0947132 0.192586 1.11856 1.04188e-38 3
-0.0768394 0.192586 1.11856 1.02344e-38 3
-0.0565424 0.184672 1.07259 1.00508e-38 3
-0.0442528 0.2074 1.2046 1.06032e-38 3
-0.0262141 0.217436 1.26289 1.02341e-38 3
-0.00634082 0.228492 1.32711 1.0511e-38 3
0.0162417 0.249649 1.44999 1.10638e-38 3
0.043433 0.275123 1.59794 1.06029e-38 3
0.0704037 0.280855 1.63123 1.02344e-38 3
0.0964696 0.280855 1.63123 1.08791e-38 3
0.117634 0.269621 1.56598 1.07865e-38 3
0.142657 0.269621 1.56598 1.07869e-38 3
0.158189 0.254359 1.47734 1.05107e-38 3
0.155406 0.217436 1.26289 1.06951e-38 3
0.170099 0.210641 1.22343 1.20776e-38 3
0.186731 0.2074 1.2046 1.08798e-38 3
0.20598 0.2074 1.2046 1.0511e-38 3
0.374058 0.140427 0.815617 7.56112e-39 3
1.42099 0.320977 1.86427 6.63737e-39 3
1.88436 0.408516 2.3727 6.63845e-39 3
1.92228 0.408516 2.3727 6.73064e-39 3
1.74828 0.364352 2.11619 6.91468e-39 3
1.54869 0.299578 1.73998 4.97857e-39 3
1.47796 0.280855 1.63123 4.51759e-39 3
1.41556 0.264334 1.53528 4.51723e-39 3
1.44009 0.264334 1.53528 4.70163e-39 3
1.64166 0.296286 1.72086 5.25444e-39 3
1.18667 0.210641 1.22343 5.16296e-39 3
1.20622 0.210641 1.22343 5.07041e-39 3
1.06012 0.182176 1.0581 4.60943e-39 3
0.983954 0.166432 0.966657 5.25408e-39 3
1.02753 0.168513 0.97874 4.79346e-39 3
-0.964107 0.288867 1.53528 6.82248e-39 3
-0.840672 0.25846 1.37367 6.3615e-39 3
-0.818722 0.25846 1.37367 7.28345e-39 3
-0.678849 0.272818 1.44999 8.482e-39 3
-0.61046 0.254003 1.34999 9.58835e-39 3
-0.53368 0.230191 1.22343 1.04181e-38 3
-0.51413 0.230191 1.22343 1.06947e-38 3
-0.494581 0.230191 1.22343 9.86565e-39 3
-0.482572 0.233844 1.24284 9.9582e-39 3
-0.462712 0.233844 1.24284 9.95892e-39 3
-0.442852 0.233844 1.24284 9.95892e-39 3
-0.422992 0.233844 1.24284 1.01433e-38 3
-0.409635 0.237616 1.26289 9.68234e-39 3
-0.260815 0.249698 1.32711 1.08791e-38 3
-0.239608 0.249698 1.32711 1.16166e-38 3
-0.214762 0.245537 1.30499 1.06025e-38 3
-0.187654 0.237616 1.26289 9.68054e-39 3
-0.162241 0.230191 1.22343 9.86565e-39 3
-0.136302 0.219884 1.16864 1.06032e-38 3
-0.112587 0.21046 1.11856 1.01422e-38 3
-0.0920823 0.204614 1.08749 1.06954e-38 3
-0.0707732 0.193845 1.03025 9.86565e-39 3
-0.0536052 0.191327 1.01687 1.05121e-38 3
-0.0373563 0.191327 1.01687 9.86565e-39 3
-0.0253949 0.230191 1.22343 9.86493e-39 3
-0.00603401 0.237616 1.26289 1.03266e-38 3
0.0148653 0.249698 1.32711 1.0511e-38 3
0.0425643 0.294644 1.56598 1.0511e-38 3
0.0689669 0.300657 1.59794 9.03589e-39 3
0.0926109 0.294644 1.56598 1.02337e-38 3
0.115328 0.288867 1.53528 1.00493e-38 3
0.134582 0.277966 1.47734 1.09713e-38 3
0.139734 0.245537 1.30499 1.07869e-38 3
0.15055 0.230191 1.22343 1.06029e-38 3
0.167482 0.226649 1.2046 1.05103e-38 3
0.183902 0.223215 1.18635 1.10642e-38 3
0.199831 0.219884 1.16864 1.08798e-38 3
0.218505 0.219884 1.16864 1.06043e-38 3
0.227014 0.21046 1.11856 1.00511e-38 3
0.222626 0.191327 1.01687 1.02355e-38 3
0.364826 0.155076 0.824202 9.12808e-39 3
0.374058 0.15346 0.815617 9.03589e-39 3
0.387091 0.15346 0.815617 8.48236e-39 3
1.3564 0.334823 1.77953 6.72956e-39 3
1.92228 0.44643 2.3727 6.26931e-39 3
1.96019 0.44643 2.3727 6.91468e-39 3
1.4519 0.306921 1.63123 5.80833e-39 3
1.39102 0.288867 1.53528 5.53174e-39 3
1.26655 0.25846 1.37367 4.97821e-39 3
1.22407 0.245537 1.30499 4.88602e-39 3
1.16712 0.230191 1.22343 4.79382e-39 3
1.13353 0.219884 1.16864 5.5321e-39 3
1.11881 0.21351 1.13477 5.53138e-39 3
1.06012 0.199084 1.0581 4.05626e-39 3
0.996254 0.184152 0.97874 4.05554e-39 3
1.01189 0.184152 0.97874 5.07005e-39 3
0.921442 0.15346 0.815617 4.70018e-39 3
-0.464023 0.202321 0.991129 9.58763e-39 3
-0.51314 0.231643 1.13477 9.12665e-39 3
-0.525469 0.245898 1.2046 9.21956e-39 3
-0.51413 0.24974 1.22343 9.31176e-39 3
-0.486972 0.245898 1.2046 9.68054e-39 3
-0.475032 0.24974 1.22343 1.02344e-38 3
-0.455482 0.24974 1.22343 1.04188e-38 3
-0.435933 0.24974 1.22343 1.01422e-38 3
-0.416383 0.24974 1.22343 1.13408e-38 3
-0.396834 0.24974 1.22343 1.0511e-38 3
-0.254909 0.199792 0.97874 9.12772e-39 3
-0.236315 0.197325 0.966657 9.77274e-39 3
-0.22363 0.199792 0.97874 1.00497e-38 3
-0.264115 0.253704 1.24284 1.08794e-38 3
-0.256468 0.266389 1.30499 1.04192e-38 3
-0.235615 0.266389 1.30499 1.04188e-38 3
-0.214762 0.266389 1.30499 1.04181e-38 3
-0.19391 0.266389 1.30499 1.09713e-38 3
-0.162241 0.24974 1.22343 1.01415e-38 3
-0.136302 0.238558 1.16864 1.07876e-38 3
-0.112587 0.228334 1.11856 1.11564e-38 3
-0.088399 0.213111 1.04399 1.01422e-38 3
-0.069854 0.207576 1.01687 9.95784e-39 3
-0.051595 0.199792 0.97874 1.15262e-38 3
-0.0364106 0.202321 0.991129 9.58906e-39 3
-0.0253949 0.24974 1.22343 1.01415e-38 3
-0.00645015 0.275575 1.34999 1.04188e-38 3
0.0175411 0.319667 1.56598 9.95785e-39 3
0.0425643 0.319667 1.56598 1.005e-38 3
0.0675876 0.319667 1.56598 1.06954e-38 3
0.090795 0.313399 1.53528 1.13401e-38 3
0.11311 0.307372 1.50575 1.18932e-38 3
0.134582 0.301573 1.47734 1.1801e-38 3
0.144552 0.275575 1.34999 1.1617e-38 3
0.155406 0.257796 1.26289 1.08794e-38 3
0.167482 0.245898 1.2046 1.06025e-38 3
0.181157 0.238558 1.16864 1.13408e-38 3
0.199831 0.238558 1.16864 1.01422e-38 3
0.212172 0.231643 1.13477 9.95892e-39 3
0.220708 0.221991 1.08749 1.0143e-38 3
0.222626 0.207576 1.01687 1.11571e-38 3
0.389966 0.266389 1.30499 1.0511e-38 3
0.410819 0.266389 1.30499 9.95784e-39 3
0.364826 0.168246 0.824202 9.95784e-39 3
0.374058 0.166493 0.815617 8.94405e-39 3
0.387091 0.166493 0.815617 1.04188e-38 3
1.39587 0.49948 2.44685 8.3898e-39 3
1.43497 0.49948 2.44685 7.83663e-39 3
1.4294 0.484344 2.3727 8.48236e-39 3
1.96019 0.484344 2.3727 7.28346e-39 3
1.69071 0.40983 2.00767 6.63809e-39 3
1.49308 0.355186 1.73998 6.54589e-39 3
1.39673 0.326191 1.59794 6.2693e-39 3
1.29057 0.295988 1.44999 5.99272e-39 3
1.2446 0.28041 1.37367 5.43954e-39 3
1.20322 0.266389 1.30499 5.1626e-39 3
1.16579 0.253704 1.24284 5.43919e-39 3
1.13175 0.242172 1.18635 5.2548e-39 3
1.13353 0.238558 1.16864 5.34771e-39 3
1.11881 0.231643 1.13477 5.2548e-39 3
1.1207 0.228334 1.11856 4.97821e-39 3
1.15508 0.231643 1.13477 4.23957e-39 3
0.921442 0.166493 0.815617 4.14773e-39 3
-0.536421 0.215431 0.97874 8.94153e-39 3
-0.511196 0.211467 0.960726 8.66603e-39 3
-0.483968 0.206401 0.937715 9.49543e-39 3
-0.468984 0.206401 0.937715 1.06936e-38 3
-0.445988 0.202759 0.921167 1.09706e-38 3
-0.441661 0.207645 0.943364 1.09706e-38 3
-0.442583 0.215431 0.97874 9.86421e-39 3
-0.494581 0.269289 1.22343 9.77273e-39 3
-0.475032 0.269289 1.22343 1.06947e-38 3
-0.455482 0.269289 1.22343 9.86565e-39 3
-0.429226 0.265146 1.2046 1.02344e-38 3
-0.403766 0.261129 1.18635 1.04188e-38 3
-0.373491 0.253449 1.15146 1.0511e-38 3
-0.289176 0.206401 0.937715 1.15245e-38 3
-0.274192 0.206401 0.937715 1.16163e-38 3
-0.259208 0.206401 0.937715 1.06021e-38 3
-0.244224 0.206401 0.937715 1.14326e-38 3
-0.22924 0.206401 0.937715 1.05103e-38 3
-0.22363 0.215431 0.97874 1.13404e-38 3
-0.241148 0.249776 1.13477 1.0511e-38 3
-0.244255 0.273564 1.24284 1.06954e-38 3
-0.224395 0.273564 1.24284 1.02341e-38 3
-0.214762 0.287242 1.30499 1.05107e-38 3
-0.184676 0.273564 1.24284 1.06947e-38 3
-0.162241 0.269289 1.22343 1.14323e-38 3
-0.130461 0.246207 1.11856 9.77346e-39 3
-0.105081 0.229794 1.04399 1.07876e-38 3
-0.0861029 0.223825 1.01687 1.03266e-38 3
-0.0629095 0.201573 0.91578 1.10642e-38 3
-0.048276 0.201573 0.91578 1.15262e-38 3
-0.0359554 0.215431 0.97874 1.16174e-38 3
-0.0203159 0.215431 0.97874 1.21698e-38 3
-0.00584545 0.269289 1.22343 1.16174e-38 3
0.0175411 0.34469 1.56598 1.0972e-38 3
0.0425643 0.34469 1.56598 1.0972e-38 3
0.0662623 0.337932 1.53528 1.16174e-38 3
0.0890489 0.331433 1.50575 1.17088e-38 3
0.110976 0.32518 1.47734 1.17096e-38 3
0.13209 0.319158 1.44999 1.16174e-38 3
0.144552 0.297147 1.34999 1.1617e-38 3
0.157954 0.282533 1.28359 1.13415e-38 3
0.167482 0.265146 1.2046 1.06025e-38 3
0.181157 0.257232 1.16864 1.04188e-38 3
0.199831 0.257232 1.16864 9.77346e-39 3
0.215292 0.253449 1.15146 1.00511e-38 3
0.233691 0.253449 1.15146 1.06039e-38 3
0.255853 0.257232 1.16864 1.15259e-38 3
0.306556 0.287242 1.30499 1.11568e-38 3
0.327408 0.287242 1.30499 1.0511e-38 3
0.321472 0.265146 1.2046 1.10638e-38 3
0.34072 0.265146 1.2046 1.10642e-38 3
0.359969 0.265146 1.2046 1.0972e-38 3
0.373472 0.261129 1.18635 1.08798e-38 3
0.424595 0.282533 1.28359 1.0143e-38 3
0.364826 0.181416 0.824202 1.06032e-38 3
0.374058 0.179526 0.815617 9.49651e-39 3
0.387091 0.179526 0.815617 9.58906e-39 3
1.3688 0.34469 1.56598 7.00687e-39 3
1.22265 0.30236 1.37367 6.17711e-39 3
1.16299 0.282533 1.28359 4.60978e-39 3
1.14593 0.273564 1.24284 4.79417e-39 3
1.14757 0.269289 1.22343 4.97821e-39 3
1.13175 0.261129 1.18635 4.24065e-39 3
1.15071 0.261129 1.18635 5.07112e-39 3
1.15221 0.257232 1.16864 5.25515e-39 3
1.13694 0.249776 1.13477 5.07041e-39 3
1.15508 0.249776 1.13477 5.80761e-39 3
1.19046 0.253449 1.15146 4.88565e-39 3
0.990992 0.195847 0.889764 4.51652e-39 3
0.921442 0.179526 0.815617 5.16188e-39 3
0.934475 0.179526 0.815617 5.06969e-39 3
-0.673577 0.21495 0.910456 7.83663e-39 3
-0.55206 0.231071 0.97874 8.75822e-39 3
-0.529798 0.228218 0.966657 8.66603e-39 3
-0.505 0.224069 0.949081 8.75786e-39 3
-0.483968 0.221385 0.937715 8.75787e-39 3
-0.466192 0.220068 0.932133 9.31176e-39 3
-0.440802 0.21495 0.910456 1.01415e-38 3
-0.409585 0.206544 0.874851 9.86493e-39 3
-0.416549 0.217479 0.921167 1.01415e-38 3
-0.411512 0.222719 0.943364 9.49471e-39 3
-0.475032 0.288839 1.22343 9.95785e-39 3
-0.448475 0.284395 1.2046 1.01422e-38 3
-0.404343 0.267908 1.13477 1.04188e-38 3
-0.370118 0.256746 1.08749 1.08791e-38 3
-0.347909 0.253229 1.07259 1.00493e-38 3
-0.287455 0.220068 0.932133 1.04181e-38 3
-0.27256 0.220068 0.932133 1.06947e-38 3
-0.257665 0.220068 0.932133 1.17088e-38 3
-0.24277 0.220068 0.932133 1.16166e-38 3
-0.226527 0.218765 0.926618 1.23542e-38 3
-0.220869 0.228218 0.966657 1.21698e-38 3
-0.20799 0.231071 0.97874 1.12486e-38 3
-0.240438 0.288839 1.22343 1.0972e-38 3
-0.224395 0.293424 1.24284 9.86565e-39 3
-0.204536 0.293424 1.24284 9.58871e-39 3
-0.18179 0.288839 1.22343 9.68054e-39 3
-0.152697 0.271848 1.15146 1.09713e-38 3
-0.108717 0.220068 0.932133 8.02174e-39 3
-0.0938224 0.220068 0.932133 1.02337e-38 3
-0.077543 0.216207 0.91578 1.01415e-38 3
-0.0621822 0.213707 0.905193 1.0972e-38 3
-0.0479953 0.21495 0.910456 1.06954e-38 3
-0.0334469 0.21495 0.910456 1.06954e-38 3
-0.0182615 0.207704 0.879766 1.13408e-38 3
-0.0040664 0.200931 0.851078 1.16174e-38 3
0.0103183 0.217479 0.921167 1.18014e-38 3
0.0366934 0.318719 1.34999 1.27237e-38 3
0.0625811 0.342327 1.44999 1.16174e-38 3
0.0857508 0.342327 1.44999 1.06954e-38 3
0.10892 0.342327 1.44999 1.24471e-38 3
0.129689 0.336103 1.42362 1.15252e-38 3
0.144552 0.318719 1.34999 1.15259e-38 3
0.157954 0.303044 1.28359 1.15259e-38 3
0.167482 0.284395 1.2046 1.35549e-38 3
0.181157 0.275906 1.16864 1.125e-38 3
0.196892 0.271848 1.15146 1.15259e-38 3
0.218505 0.275906 1.16864 1.08809e-38 3
0.244477 0.284395 1.2046 1.0789e-38 3
0.285703 0.308095 1.30499 1.23557e-38 3
0.321472 0.284395 1.2046 1.07883e-38 3
0.316383 0.264081 1.11856 9.77418e-39 3
0.334257 0.264081 1.11856 1.11564e-38 3
0.352131 0.264081 1.11856 1.07876e-38 3
0.392429 0.280086 1.18635 1.04188e-38 3
0.361026 0.192559 0.815617 1.1156e-38 3
0.370202 0.190574 0.807208 1.11568e-38 3
0.387091 0.192559 0.815617 9.40432e-39 3
1.2674 0.342327 1.44999 6.08491e-39 3
1.12405 0.298156 1.26289 8.57455e-39 3
1.12607 0.293424 1.24284 6.54589e-39 3
1.12802 0.288839 1.22343 7.00687e-39 3
1.14757 0.288839 1.22343 5.99272e-39 3
1.14916 0.284395 1.2046 4.51723e-39 3
1.15071 0.280086 1.18635 5.53066e-39 3
1.16967 0.280086 1.18635 5.43883e-39 3
1.15366 0.271848 1.15146 5.71541e-39 3
1.17206 0.271848 1.15146 6.0842e-39 3
1.17321 0.267908 1.13477 5.16296e-39 3
1.19134 0.267908 1.13477 4.79382e-39 3
1.17541 0.260362 1.10281 4.70163e-39 3
1.14466 0.249807 1.0581 4.70163e-39 3
1.07445 0.231071 0.97874 4.88602e-39 3
0.990992 0.210065 0.889764 4.88602e-39 3
0.961505 0.200931 0.851078 4.42432e-39 3
0.954358 0.196656 0.83297 4.60871e-39 3
-0.545245 0.243665 0.966657 7.56004e-39 3
-0.523337 0.240693 0.954868 6.73028e-39 3
-0.501958 0.237793 0.943364 7.37565e-39 3
-0.472647 0.23084 0.91578 8.57419e-39 3
-0.463434 0.233572 0.926618 9.31247e-39 3
-0.438254 0.228172 0.905193 9.40467e-39 3
-0.431269 0.232198 0.921167 9.77274e-39 3
-0.416549 0.232198 0.921167 1.01415e-38 3
-0.401829 0.232198 0.921167 1.0049e-38 3
-0.396438 0.237793 0.943364 1.00486e-38 3
-0.395665 0.246711 0.97874 9.68126e-39 3
-0.440609 0.286041 1.13477 9.12773e-39 3
-0.416441 0.281955 1.11856 9.59014e-39 3
-0.367101 0.259695 1.03025 9.77345e-39 3
-0.346085 0.256323 1.01687 1.10638e-38 3
-0.329836 0.256323 1.01687 9.21956e-39 3
-0.285754 0.233572 0.926618 9.68054e-39 3
-0.27256 0.234962 0.932133 1.15245e-38 3
-0.26235 0.239234 0.949081 1.06947e-38 3
-0.251762 0.243665 0.966657 9.77273e-39 3
-0.230621 0.237793 0.943364 1.11557e-38 3
-0.212981 0.234962 0.932133 1.02337e-38 3
-0.200473 0.237793 0.943364 9.49687e-39 3
-0.207947 0.266714 1.0581 9.40467e-39 3
-0.220889 0.308388 1.22343 1.09727e-38 3
-0.20134 0.308388 1.22343 1.15252e-38 3
-0.166208 0.281955 1.11856 1.1894e-38 3
-0.13485 0.256323 1.01687 1.17088e-38 3
-0.108717 0.234962 0.932133 1.14326e-38 3
-0.0938224 0.234962 0.932133 1.2723e-38 3
-0.077543 0.23084 0.91578 1.21698e-38 3
-0.0621822 0.228172 0.905193 1.31847e-38 3
-0.0477179 0.228172 0.905193 1.22627e-38 3
-0.0319604 0.219298 0.869991 1.21705e-38 3
-0.017476 0.212224 0.841927 1.30925e-38 3
-0.00397988 0.209966 0.83297 1.21705e-38 3
0.00943069 0.212224 0.841927 1.22627e-38 3
0.0250378 0.232198 0.921167 1.23549e-38 3
0.0545061 0.318336 1.26289 1.22627e-38 3
0.0784838 0.334523 1.32711 1.18018e-38 3
0.10694 0.358852 1.42362 1.17096e-38 3
0.12298 0.34029 1.34999 1.29081e-38 3
0.144552 0.34029 1.34999 1.31854e-38 3
0.160587 0.328947 1.30499 1.33698e-38 3
0.170099 0.308388 1.22343 1.39237e-38 3
0.178493 0.290248 1.15146 1.30943e-38 3
0.196892 0.290248 1.15146 1.3001e-38 3
0.218505 0.29458 1.16864 1.22638e-38 3
0.244477 0.303644 1.2046 1.2633e-38 3
0.263726 0.303644 1.2046 1.29088e-38 3
0.287396 0.308388 1.22343 1.19869e-38 3
0.293201 0.29458 1.16864 1.28159e-38 3
0.298509 0.281955 1.11856 1.18025e-38 3
0.28034 0.249833 0.991129 1.18947e-38 3
0.296177 0.249833 0.991129 1.20783e-38 3
0.312015 0.249833 0.991129 1.11564e-38 3
0.350004 0.266714 1.0581 1.07876e-38 3
0.357304 0.203473 0.807208 1.11564e-38 3
0.370202 0.203473 0.807208 1.1433e-38 3
0.383101 0.203473 0.807208 1.03263e-38 3
0.395999 0.203473 0.807208 9.12773e-39 3
0.665812 0.234962 0.932133 9.12881e-39 3
0.727826 0.240693 0.954868 8.66675e-39 3
1.12196 0.323555 1.28359 7.37565e-39 3
1.10621 0.313283 1.24284 8.02102e-39 3
1.10847 0.308388 1.22343 7.37529e-39 3
1.12802 0.308388 1.22343 6.63737e-39 3
1.14757 0.308388 1.22343 6.82176e-39 3
1.16712 0.308388 1.22343 7.55933e-39 3
1.16841 0.303644 1.2046 4.70126e-39 3
1.18766 0.303644 1.2046 5.53138e-39 3
1.18862 0.299043 1.18635 5.16224e-39 3
1.17206 0.290248 1.15146 5.80725e-39 3
1.19046 0.290248 1.15146 5.99272e-39 3
1.20886 0.290248 1.15146 5.53138e-39 3
1.17541 0.277984 1.10281 5.71578e-39 3
1.1294 0.263158 1.04399 4.88602e-39 3
1.07445 0.246711 0.97874 4.60943e-39 3
1.03818 0.234962 0.932133 4.33285e-39 3
1.04069 0.232198 0.921167 5.71506e-39 3
-0.513544 0.244047 0.910456 8.66639e-39 3
-0.461437 0.225678 0.841927 7.83663e-39 3
-0.447984 0.225678 0.841927 8.75858e-39 3
-0.464498 0.241241 0.899991 1.03259e-38 3
-0.463434 0.248379 0.926618 8.94441e-39 3
-0.438254 0.242636 0.905193 8.7593e-39 3
-0.421354 0.241241 0.899991 9.77346e-39 3
-0.393407 0.2332 0.869991 9.31176e-39 3
-0.379506 0.2332 0.869991 9.77202e-39 3
-0.369712 0.23582 0.879766 9.31176e-39 3
-0.36383 0.241241 0.899991 8.39052e-39 3
-0.349448 0.241241 0.899991 9.49794e-39 3
-0.355498 0.255951 0.954868 1.17106e-38 3
-0.348746 0.26235 0.97874 1.00511e-38 3
-0.333107 0.26235 0.97874 1.03266e-38 3
-0.317467 0.26235 0.97874 1.01422e-38 3
-0.28077 0.244047 0.910456 1.0695e-38 3
-0.269353 0.246918 0.921167 1.0972e-38 3
-0.267208 0.259111 0.966657 1.01422e-38 3
-0.248692 0.255951 0.954868 1.08802e-38 3
-0.227876 0.249857 0.932133 1.17088e-38 3
-0.2033 0.2385 0.889764 1.13401e-38 3
-0.18488 0.2332 0.869991 1.13408e-38 3
-0.183191 0.249857 0.932133 1.21705e-38 3
-0.191039 0.283622 1.0581 1.18947e-38 3
-0.184082 0.299829 1.11856 1.16181e-38 3
-0.151098 0.272572 1.01687 1.22627e-38 3
-0.129793 0.26235 0.97874 1.25393e-38 3
-0.10681 0.245474 0.91578 1.27237e-38 3
-0.0916405 0.244047 0.910456 1.2723e-38 3
-0.076206 0.241241 0.899991 1.29074e-38 3
-0.0614715 0.239863 0.894848 1.25393e-38 3
-0.0471725 0.239863 0.894848 1.30925e-38 3
-0.0306004 0.223277 0.83297 1.20783e-38 3
-0.0171081 0.220926 0.824202 1.30007e-38 3
-0.00389696 0.218625 0.815617 1.18018e-38 3
0.00913598 0.218625 0.815617 1.23549e-38 3
0.0224023 0.220926 0.824202 1.22627e-38 3
0.0397574 0.246918 0.921167 1.15252e-38 3
0.0723522 0.327938 1.22343 1.21705e-38 3
0.0948662 0.338516 1.26289 1.26312e-38 3
0.120896 0.355729 1.32711 1.31843e-38 3
0.139734 0.3498 1.30499 1.35542e-38 3
0.157954 0.344066 1.28359 1.38308e-38 3
0.157773 0.304174 1.13477 1.30939e-38 3
0.13193 0.228131 0.851078 1.28174e-38 3
0.145529 0.228131 0.851078 1.26322e-38 3
0.149386 0.214163 0.798972 1.2817e-38 3
0.147139 0.194333 0.724993 1.2633e-38 3
0.155838 0.1908 0.711811 1.3923e-38 3
0.164226 0.187393 0.6991 1.35546e-38 3
0.17232 0.184105 0.686835 1.27237e-38 3
0.184917 0.185735 0.692913 1.254e-38 3
0.20698 0.19615 0.731768 1.21713e-38 3
0.243729 0.218625 0.815617 1.06951e-38 3
0.259465 0.220926 0.824202 1.14326e-38 3
0.275535 0.223277 0.83297 1.0972e-38 3
0.285805 0.220926 0.824202 1.19862e-38 3
0.295861 0.218625 0.815617 1.28156e-38 3
0.308894 0.218625 0.815617 1.2262e-38 3
0.347993 0.218625 0.815617 1.11571e-38 3
0.357304 0.216371 0.807208 1.17088e-38 3
0.366425 0.214163 0.798972 1.17088e-38 3
0.379192 0.214163 0.798972 1.14323e-38 3
0.387999 0.212 0.790901 1.26304e-38 3
0.400637 0.212 0.790901 1.14319e-38 3
0.439938 0.225678 0.841927 1.14326e-38 3
0.533941 0.244047 0.910456 9.58871e-39 3
0.548489 0.244047 0.910456 8.11322e-39 3
0.590503 0.255951 0.954868 8.94226e-39 3
0.620905 0.26235 0.97874 9.12737e-39 3
0.670047 0.276158 1.03025 9.03482e-39 3
0.68651 0.276158 1.03025 9.31141e-39 3
0.667824 0.26235 0.97874 9.8653e-39 3
0.675025 0.259111 0.966657 9.31212e-39 3
0.665812 0.249857 0.932133 9.31176e-39 3
0.672699 0.246918 0.921167 8.75967e-39 3
0.687418 0.246918 0.921167 7.92991e-39 3
0.702138 0.246918 0.921167 7.6526e-39 3
0.734131 0.252868 0.943364 6.82212e-39 3
0.767704 0.259111 0.966657 7.74408e-39 3
0.79294 0.26235 0.97874 7.92847e-39 3
0.829312 0.269077 1.00384 8.38981e-39 3
1.08635 0.333143 1.24284 6.73028e-39 3
1.08892 0.327938 1.22343 7.00687e-39 3
1.10847 0.327938 1.22343 7.19054e-39 3
1.12802 0.327938 1.22343 7.19054e-39 3
1.14757 0.327938 1.22343 6.82176e-39 3
1.16712 0.327938 1.22343 6.36079e-39 3
1.18667 0.327938 1.22343 5.89981e-39 3
1.18766 0.322892 1.2046 6.82176e-39 3
1.20691 0.322892 1.2046 5.07004e-39 3
1.20758 0.318 1.18635 4.70126e-39 3
1.20823 0.313254 1.16864 4.88637e-39 3
1.22691 0.313254 1.16864 4.88637e-39 3
1.22726 0.308647 1.15146 4.88602e-39 3
1.21007 0.299829 1.11856 5.53103e-39 3
1.22794 0.299829 1.11856 5.90017e-39 3
-0.510292 0.249878 0.879766 9.31211e-39 3
-0.464893 0.234097 0.824202 1.01422e-38 3
-0.451723 0.234097 0.824202 1.02344e-38 3
-0.438552 0.234097 0.824202 9.03589e-39 3
-0.429908 0.236587 0.83297 9.68126e-39 3
-0.430331 0.244386 0.860431 9.03697e-39 3
-0.414306 0.243051 0.855729 9.40575e-39 3
-0.402833 0.244386 0.860431 9.40467e-39 3
-0.380717 0.239131 0.841927 7.19126e-39 3
-0.325291 0.211802 0.745707 8.29761e-39 3
-0.311889 0.210798 0.742173 1.06025e-38 3
-0.307312 0.215914 0.760186 1.16174e-38 3
-0.299527 0.219105 0.771421 1.18028e-38 3
-0.310115 0.236587 0.83297 1.09734e-38 3
-0.324415 0.258595 0.910456 1.10653e-38 3
-0.317244 0.264752 0.932133 1.10649e-38 3
-0.30235 0.264752 0.932133 9.95785e-39 3
-0.26979 0.248482 0.874851 1.13408e-38 3
-0.261658 0.254162 0.894848 1.24471e-38 3
-0.26077 0.267942 0.943364 1.19861e-38 3
-0.24277 0.264752 0.932133 1.1894e-38 3
-0.212684 0.247102 0.869991 1.12479e-38 3
-0.190323 0.236587 0.83297 1.21698e-38 3
-0.177013 0.236587 0.83297 1.13408e-38 3
-0.160292 0.231658 0.815617 1.3646e-38 3
-0.150393 0.236587 0.83297 1.18025e-38 3
-0.143175 0.247102 0.869991 1.14337e-38 3
-0.133731 0.255623 0.899991 1.17103e-38 3
-0.11935 0.255623 0.899991 1.21705e-38 3
-0.104968 0.255623 0.899991 1.2539e-38 3
-0.0905872 0.255623 0.899991 1.45669e-38 3
-0.076206 0.255623 0.899991 1.29996e-38 3
-0.0600979 0.248482 0.874851 1.24471e-38 3
-0.0458622 0.247102 0.869991 1.26315e-38 3
-0.0306004 0.236587 0.83297 1.23549e-38 3
-0.0171986 0.235335 0.828563 1.1894e-38 3
-0.00389696 0.231658 0.815617 1.23549e-38 3
0.00913598 0.231658 0.815617 1.22624e-38 3
0.0221689 0.231658 0.815617 1.15252e-38 3
0.0352019 0.231658 0.815617 1.26315e-38 3
0.0492611 0.236587 0.83297 1.33691e-38 3
0.0639316 0.24173 0.851078 1.38297e-38 3
0.0775312 0.24173 0.851078 1.19858e-38 3
0.088253 0.234097 0.824202 1.254e-38 3
0.101423 0.234097 0.824202 1.22635e-38 3
0.114593 0.234097 0.824202 1.2633e-38 3
0.123852 0.22693 0.798972 1.18032e-38 3
0.133887 0.222392 0.782992 1.14337e-38 3
0.135554 0.205918 0.724993 1.2356e-38 3
0.144464 0.202174 0.711811 1.28174e-38 3
0.153055 0.198564 0.6991 1.29092e-38 3
0.161345 0.19508 0.686835 1.26326e-38 3
0.17232 0.19508 0.686835 1.41988e-38 3
0.183295 0.19508 0.686835 1.19869e-38 3
0.19599 0.196807 0.692913 1.05114e-38 3
0.21466 0.204029 0.718341 1.08794e-38 3
0.246491 0.222392 0.782992 1.17096e-38 3
0.264289 0.22693 0.798972 1.23549e-38 3
0.277056 0.22693 0.798972 1.08794e-38 3
0.286895 0.224638 0.790901 1.25386e-38 3
0.30259 0.22693 0.798972 1.24468e-38 3
0.318608 0.22927 0.807208 1.16163e-38 3
0.33496 0.231658 0.815617 1.19858e-38 3
0.347993 0.231658 0.815617 1.19858e-38 3
0.353658 0.22693 0.798972 1.11557e-38 3
0.366425 0.22693 0.798972 1.23542e-38 3
0.367928 0.22019 0.77524 1.2262e-38 3
0.380316 0.22019 0.77524 1.06943e-38 3
0.392704 0.22019 0.77524 1.17085e-38 3
0.417493 0.22693 0.798972 1.19858e-38 3
0.479153 0.252718 0.889764 1.16167e-38 3
0.49337 0.252718 0.889764 1.08795e-38 3
0.519392 0.258595 0.910456 1.1617e-38 3
0.527804 0.255623 0.899991 1.14323e-38 3
0.542185 0.255623 0.899991 1.06947e-38 3
0.556566 0.255623 0.899991 9.21885e-39 3
0.605761 0.271209 0.954868 8.5742e-39 3
0.636545 0.27799 0.97874 9.31141e-39 3
0.652184 0.27799 0.97874 9.4036e-39 3
0.659579 0.274558 0.966657 9.49651e-39 3
0.666793 0.271209 0.954868 9.49651e-39 3
0.673834 0.267942 0.943364 9.31104e-39 3
0.672699 0.261637 0.921167 8.02138e-39 3
0.687418 0.261637 0.921167 8.66676e-39 3
0.693973 0.258595 0.910456 8.75787e-39 3
0.725391 0.264752 0.932133 8.38873e-39 3
0.758342 0.271209 0.954868 7.55969e-39 3
0.79294 0.27799 0.97874 7.83628e-39 3
0.829312 0.285118 1.00384 8.02067e-39 3
0.988069 0.327047 1.15146 7.46785e-39 3
1.02149 0.331928 1.16864 5.53174e-39 3
1.04016 0.331928 1.16864 5.99272e-39 3
1.10847 0.347487 1.22343 7.37493e-39 3
1.1835 0.364577 1.28359 6.72956e-39 3
1.20401 0.364577 1.28359 8.38909e-39 3
1.18565 0.353003 1.24284 1.07862e-38 3
1.18667 0.347487 1.22343 7.83556e-39 3
1.20622 0.347487 1.22343 7.09835e-39 3
1.20691 0.342141 1.2046 8.20469e-39 3
1.20758 0.336957 1.18635 5.62321e-39 3
1.22654 0.336957 1.18635 5.90052e-39 3
1.26466 0.342141 1.2046 5.34735e-39 3
1.34603 0.358696 1.26289 4.79418e-39 3
1.36621 0.358696 1.26289 3.87186e-39 3
-0.473083 0.244691 0.815617 9.31247e-39 3
-0.447017 0.244691 0.815617 1.06947e-38 3
-0.438552 0.247267 0.824202 9.49615e-39 3
-0.425382 0.247267 0.824202 9.21956e-39 3
-0.421077 0.252584 0.841927 9.12808e-39 3
-0.407624 0.252584 0.841927 1.10642e-38 3
-0.39417 0.252584 0.841927 1.06947e-38 3
-0.368819 0.244691 0.815617 1.04181e-38 3
-0.325291 0.223717 0.745707 1.23542e-38 3
-0.311889 0.222657 0.742173 1.09716e-38 3
-0.304357 0.225869 0.752877 1.10649e-38 3
-0.296605 0.229174 0.763895 1.10653e-38 3
-0.294453 0.237276 0.790901 1.26322e-38 3
-0.281815 0.237276 0.790901 1.06961e-38 3
-0.277589 0.244691 0.815617 1.18018e-38 3
-0.264556 0.244691 0.815617 1.26315e-38 3
-0.265343 0.258136 0.860431 1.16174e-38 3
-0.263161 0.270004 0.899991 1.08798e-38 3
-0.24878 0.270004 0.899991 1.16174e-38 3
-0.224096 0.258136 0.860431 1.16174e-38 3
-0.203634 0.249897 0.83297 1.15245e-38 3
-0.186358 0.244691 0.815617 1.17088e-38 3
-0.173325 0.244691 0.815617 1.13408e-38 3
-0.15864 0.242168 0.807208 1.30003e-38 3
-0.144254 0.239697 0.798972 1.33691e-38 3
-0.132843 0.242168 0.807208 1.23549e-38 3
-0.122469 0.247267 0.824202 1.38304e-38 3
-0.112863 0.25533 0.851078 1.27237e-38 3
-0.0992636 0.25533 0.851078 1.24464e-38 3
-0.0895578 0.266936 0.889764 1.2262e-38 3
-0.0744935 0.263936 0.879766 1.23542e-38 3
-0.0600979 0.262462 0.874851 1.27237e-38 3
-0.0453582 0.258136 0.860431 1.35535e-38 3
-0.0306004 0.249897 0.83297 1.23549e-38 3
-0.0171986 0.248575 0.828563 1.27237e-38 3
-0.00391737 0.245972 0.819887 1.28159e-38 3
0.00923215 0.247267 0.824202 1.22627e-38 3
0.0220541 0.243423 0.811391 1.2907e-38 3
0.034839 0.242168 0.807208 1.32758e-38 3
0.0487426 0.247267 0.824202 1.30918e-38 3
0.0619127 0.247267 0.824202 1.42903e-38 3
0.0750828 0.247267 0.824202 1.41063e-38 3
0.0821964 0.230297 0.767639 1.24471e-38 3
0.0973252 0.237276 0.790901 1.3462e-38 3
0.109963 0.237276 0.790901 1.22642e-38 3
0.121375 0.234903 0.782992 1.37393e-38 3
0.123969 0.217503 0.724993 1.34624e-38 3
0.13309 0.213548 0.711811 1.35546e-38 3
0.141884 0.209735 0.6991 1.32776e-38 3
0.15037 0.206056 0.686835 1.13415e-38 3
0.161345 0.206056 0.686835 1.25404e-38 3
0.17232 0.206056 0.686835 1.26326e-38 3
0.183295 0.206056 0.686835 1.26322e-38 3
0.19427 0.206056 0.686835 1.27234e-38 3
0.205245 0.206056 0.686835 1.2078e-38 3
0.226139 0.215508 0.718341 1.11571e-38 3
0.249041 0.225869 0.752877 1.21713e-38 3
0.268826 0.232578 0.77524 1.23557e-38 3
0.278457 0.230297 0.767639 1.19858e-38 3
0.293602 0.232578 0.77524 1.29078e-38 3
0.30905 0.234903 0.782992 1.30918e-38 3
0.331506 0.242168 0.807208 1.23539e-38 3
0.344405 0.242168 0.807208 1.20773e-38 3
0.353658 0.239697 0.798972 1.23542e-38 3
0.355541 0.232578 0.77524 1.29074e-38 3
0.357315 0.225869 0.752877 1.29996e-38 3
0.369346 0.225869 0.752877 1.29074e-38 3
0.388854 0.230297 0.767639 1.40137e-38 3
0.421797 0.242168 0.807208 1.10631e-38 3
0.45832 0.25533 0.851078 1.04178e-38 3
0.477105 0.258136 0.860431 1.08794e-38 3
0.501885 0.263936 0.879766 1.0972e-38 3
0.527804 0.270004 0.899991 1.04181e-38 3
0.542185 0.270004 0.899991 1.05096e-38 3
0.556566 0.270004 0.899991 1.01408e-38 3
0.598463 0.283016 0.943364 9.49615e-39 3
0.628686 0.290004 0.966657 9.67983e-39 3
0.652184 0.293629 0.97874 9.21993e-39 3
0.659579 0.290004 0.966657 8.39125e-39 3
0.65876 0.283016 0.943364 9.40432e-39 3
0.657979 0.276357 0.921167 9.4036e-39 3
0.614832 0.252584 0.841927 9.95677e-39 3
0.628285 0.252584 0.841927 9.31141e-39 3
0.608997 0.239697 0.798972 8.57312e-39 3
0.669592 0.258136 0.860431 7.46605e-39 3
0.740286 0.279647 0.932133 7.92703e-39 3
0.79294 0.293629 0.97874 8.38909e-39 3
0.808579 0.293629 0.97874 7.74444e-39 3
0.824219 0.293629 0.97874 6.91432e-39 3
0.599899 0.209735 0.6991 8.29725e-39 3
0.589999 0.202503 0.674993 7.92847e-39 3
0.600785 0.202503 0.674993 7.09871e-39 3
1.14423 0.378876 1.26289 6.82068e-39 3
1.44387 0.469807 1.56598 7.92739e-39 3
1.46889 0.469807 1.56598 1.09706e-38 3
1.40935 0.443214 1.47734 9.95606e-39 3
1.28723 0.398141 1.32711 1.03241e-38 3
1.20622 0.367036 1.22343 7.46677e-39 3
1.22577 0.367036 1.22343 7.37457e-39 3
1.24532 0.367036 1.22343 6.36078e-39 3
-0.433984 0.257724 0.815617 1.02337e-38 3
-0.425382 0.260437 0.824202 9.12736e-39 3
-0.407624 0.266038 0.841927 1.13401e-38 3
-0.381852 0.257724 0.815617 1.09713e-38 3
-0.327839 0.229088 0.724993 1.10638e-38 3
-0.317726 0.230153 0.728365 1.25393e-38 3
-0.306087 0.230153 0.728365 1.1156e-38 3
-0.295824 0.231229 0.731768 1.05117e-38 3
-0.284131 0.231229 0.731768 1.2817e-38 3
-0.272438 0.231229 0.731768 1.17106e-38 3
-0.263205 0.23341 0.738672 1.09727e-38 3
-0.253796 0.235633 0.745707 1.20783e-38 3
-0.246576 0.240209 0.760186 1.16174e-38 3
-0.234429 0.240209 0.760186 1.18028e-38 3
-0.23849 0.257724 0.815617 1.11575e-38 3
-0.225457 0.257724 0.815617 1.18018e-38 3
-0.210234 0.255067 0.807208 1.20776e-38 3
-0.197336 0.255067 0.807208 1.13401e-38 3
-0.180711 0.249914 0.790901 1.3184e-38 3
-0.168073 0.249914 0.790901 1.31843e-38 3
-0.155435 0.249914 0.790901 1.1433e-38 3
-0.142797 0.249914 0.790901 1.24471e-38 3
-0.130159 0.249914 0.790901 1.31847e-38 3
-0.121193 0.257724 0.815617 1.34613e-38 3
-0.112863 0.268929 0.851078 1.25397e-38 3
-0.0992636 0.268929 0.851078 1.2262e-38 3
-0.0895578 0.281153 0.889764 1.29074e-38 3
-0.0744935 0.277994 0.879766 1.41067e-38 3
-0.0604355 0.277994 0.879766 1.33691e-38 3
-0.0429958 0.257724 0.815617 1.16174e-38 3
-0.0299629 0.257724 0.815617 1.23549e-38 3
-0.0167554 0.255067 0.807208 1.26315e-38 3
-0.00381743 0.252464 0.798972 1.30003e-38 3
0.00899543 0.253759 0.803069 1.21698e-38 3
0.0216063 0.251183 0.794916 1.25364e-38 3
0.0339636 0.248658 0.786927 1.34566e-38 3
0.0463054 0.247415 0.782992 1.23535e-38 3
0.0600174 0.252464 0.798972 1.3645e-38 3
0.0750828 0.260437 0.824202 1.38297e-38 3
0.0776299 0.229088 0.724993 1.43832e-38 3
0.0892148 0.229088 0.724993 1.29088e-38 3
0.1008 0.229088 0.724993 1.29088e-38 3
0.111353 0.226986 0.718341 1.254e-38 3
0.121715 0.224923 0.711811 1.33698e-38 3
0.130713 0.220906 0.6991 1.25393e-38 3
0.139395 0.217031 0.686835 1.35542e-38 3
0.15037 0.217031 0.686835 1.35542e-38 3
0.161345 0.217031 0.686835 1.48453e-38 3
0.17232 0.217031 0.686835 1.36467e-38 3
0.229206 0.218951 0.692913 1.11571e-38 3
0.242424 0.220906 0.6991 1.18947e-38 3
0.258206 0.224923 0.711811 1.23546e-38 3
0.272053 0.226986 0.718341 1.27234e-38 3
0.291556 0.23341 0.738672 1.17092e-38 3
0.318377 0.244965 0.77524 1.22624e-38 3
0.327522 0.242564 0.767639 1.27226e-38 3
0.33649 0.240209 0.760186 1.10631e-38 3
0.345285 0.237899 0.752877 1.01408e-38 3
0.347297 0.231229 0.731768 1.08784e-38 3
0.35899 0.231229 0.731768 1.18925e-38 3
0.381376 0.237899 0.752877 1.2723e-38 3
0.40112 0.242564 0.767639 1.31836e-38 3
0.439223 0.257724 0.815617 1.13401e-38 3
0.471919 0.268929 0.851078 1.13404e-38 3
0.490854 0.271885 0.860431 1.14326e-38 3
0.504603 0.271885 0.860431 1.04181e-38 3
0.518353 0.271885 0.860431 1.0694e-38 3
0.556566 0.284385 0.899991 1.12472e-38 3
0.598463 0.29809 0.943364 1.07869e-38 3
0.613537 0.29809 0.943364 1.08784e-38 3
0.644132 0.305451 0.966657 1.03263e-38 3
0.643685 0.29809 0.943364 1.03274e-38 3
0.569553 0.257724 0.815617 8.66675e-39 3
0.517854 0.229088 0.724993 9.21921e-39 3
0.529439 0.229088 0.724993 9.95749e-39 3
0.572848 0.242564 0.767639 9.68019e-39 3
0.585115 0.242564 0.767639 9.58655e-39 3
0.621764 0.252464 0.798972 1.1429e-38 3
0.668646 0.266038 0.841927 1.05993e-38 3
0.682099 0.266038 0.841927 8.94226e-39 3
0.673816 0.257724 0.815617 8.85115e-39 3
0.588728 0.220906 0.6991 7.37602e-39 3
0.579213 0.213289 0.674993 8.66675e-39 3
0.579999 0.209674 0.663553 8.20578e-39 3
0.590602 0.209674 0.663553 7.37602e-39 3
0.601205 0.209674 0.663553 7.09835e-39 3
1.43296 0.466821 1.47734 7.74408e-39 3
1.32965 0.419347 1.32711 7.37493e-39 3
-0.347789 0.238465 0.718341 1.06947e-38 3
-0.33631 0.238465 0.718341 1.06029e-38 3
-0.310585 0.228006 0.686835 1.1617e-38 3
-0.303604 0.231046 0.695993 1.09727e-38 3
-0.293789 0.232077 0.6991 1.11571e-38 3
-0.285164 0.234168 0.705398 1.1433e-38 3
-0.271447 0.232077 0.6991 1.0972e-38 3
-0.269915 0.240673 0.724993 1.20794e-38 3
-0.25833 0.240673 0.724993 1.00508e-38 3
-0.246746 0.240673 0.724993 1.19862e-38 3
-0.239598 0.245214 0.738672 1.19861e-38 3
-0.227794 0.245214 0.738672 1.07883e-38 3
-0.215991 0.245214 0.738672 1.16181e-38 3
-0.214296 0.257353 0.77524 1.1894e-38 3
-0.205987 0.262552 0.790901 1.23542e-38 3
-0.193349 0.262552 0.790901 1.23542e-38 3
-0.178904 0.259927 0.782992 1.2723e-38 3
-0.166392 0.259927 0.782992 1.21702e-38 3
-0.153881 0.259927 0.782992 1.11564e-38 3
-0.141369 0.259927 0.782992 1.21705e-38 3
-0.128857 0.259927 0.782992 1.20783e-38 3
-0.116346 0.259927 0.782992 1.30003e-38 3
-0.11165 0.279491 0.841927 1.31847e-38 3
-0.0981962 0.279491 0.841927 1.38301e-38 3
-0.0820946 0.270757 0.815617 1.36457e-38 3
-0.0690617 0.270757 0.815617 1.31847e-38 3
-0.0560287 0.270757 0.815617 1.23557e-38 3
-0.0429958 0.270757 0.815617 1.33691e-38 3
-0.0293514 0.265231 0.798972 1.41988e-38 3
-0.0162527 0.259927 0.782992 1.32769e-38 3
-0.00375989 0.261233 0.786927 1.25393e-38 3
0.00885913 0.262552 0.790901 1.34606e-38 3
0.0213891 0.261233 0.786927 1.37332e-38 3
0.0331312 0.25483 0.767639 1.47455e-38 3
0.045176 0.253587 0.763895 1.27223e-38 3
0.0565549 0.249929 0.752877 1.37375e-38 3
0.0648443 0.236297 0.711811 1.32765e-38 3
0.0755318 0.234168 0.705398 1.31847e-38 3
0.0868035 0.234168 0.705398 1.3001e-38 3
0.0980753 0.234168 0.705398 1.45684e-38 3
0.109347 0.234168 0.705398 1.35542e-38 3
0.119542 0.232077 0.6991 1.32765e-38 3
0.12842 0.228006 0.686835 1.41989e-38 3
0.136991 0.224075 0.674993 1.40152e-38 3
0.147777 0.224075 0.674993 1.29088e-38 3
0.157208 0.222159 0.669224 1.35546e-38 3
0.167902 0.222159 0.669224 1.35546e-38 3
0.22137 0.222159 0.669224 1.18947e-38 3
0.2361 0.226023 0.680863 1.21713e-38 3
0.251351 0.230024 0.692913 1.2539e-38 3
0.262423 0.230024 0.692913 1.18936e-38 3
0.275937 0.232077 0.6991 1.19869e-38 3
0.289695 0.234168 0.705398 1.21702e-38 3
0.300967 0.234168 0.705398 1.21695e-38 3
0.312238 0.234168 0.705398 1.30907e-38 3
0.32351 0.234168 0.705398 1.3458e-38 3
0.327408 0.22901 0.689861 1.33666e-38 3
0.341439 0.231046 0.695993 1.10628e-38 3
0.352561 0.231046 0.695993 1.15245e-38 3
0.368597 0.234168 0.705398 1.13401e-38 3
0.405437 0.249929 0.752877 1.21698e-38 3
0.398317 0.238465 0.718341 1.07873e-38 3
0.409796 0.238465 0.718341 1.15248e-38 3
0.473391 0.267966 0.807208 1.06947e-38 3
0.486289 0.267966 0.807208 1.00486e-38 3
0.499188 0.267966 0.807208 1.1155e-38 3
0.512087 0.267966 0.807208 1.18932e-38 3
0.465055 0.237376 0.715061 1.01412e-38 3
0.480873 0.239564 0.721652 1.06951e-38 3
0.48569 0.236297 0.711811 9.68199e-39 3
0.497064 0.236297 0.711811 9.68091e-39 3
0.508438 0.236297 0.711811 9.8653e-39 3
0.519813 0.236297 0.711811 9.49651e-39 3
0.541024 0.240673 0.724993 9.12737e-39 3
0.557773 0.242922 0.731768 8.94082e-39 3
0.597381 0.25483 0.767639 9.95353e-39 3
0.668646 0.279491 0.841927 9.30888e-39 3
0.682099 0.279491 0.841927 9.86314e-39 3
0.598948 0.240673 0.724993 9.77274e-39 3
0.583518 0.230024 0.692913 8.85115e-39 3
0.579213 0.224075 0.674993 8.85115e-39 3
0.579999 0.220277 0.663553 8.85115e-39 3
0.585639 0.218426 0.657977 8.20578e-39 3
0.596153 0.218426 0.657977 8.20434e-39 3
-0.464236 0.238981 0.686835 8.482e-39 3
-0.447375 0.235877 0.677915 8.94297e-39 3
-0.413284 0.22331 0.641797 9.22028e-39 3
-0.403028 0.22331 0.641797 8.48344e-39 3
-0.321263 0.23088 0.663553 1.12479e-38 3
-0.317384 0.235877 0.677915 1.18018e-38 3
-0.309229 0.237937 0.683836 1.15252e-38 3
-0.302261 0.241096 0.692913 1.06951e-38 3
-0.291189 0.241096 0.692913 1.21702e-38 3
-0.282618 0.243248 0.6991 1.20783e-38 3
-0.269044 0.241096 0.692913 1.24471e-38 3
-0.254593 0.237937 0.683836 1.26326e-38 3
-0.25596 0.249943 0.718341 1.09727e-38 3
-0.244482 0.249943 0.718341 1.3001e-38 3
-0.233003 0.249943 0.718341 9.95857e-39 3
-0.219511 0.247671 0.711811 1.2633e-38 3
-0.208137 0.247671 0.711811 1.20791e-38 3
-0.19499 0.24544 0.705398 1.38301e-38 3
-0.187089 0.249943 0.718341 1.20776e-38 3
-0.18952 0.269741 0.77524 1.17088e-38 3
-0.178904 0.272438 0.782992 1.19854e-38 3
-0.166392 0.272438 0.782992 1.23549e-38 3
-0.152357 0.269741 0.77524 1.32769e-38 3
-0.139969 0.269741 0.77524 1.38293e-38 3
-0.127582 0.269741 0.77524 1.40137e-38 3
-0.112957 0.264503 0.760186 1.30925e-38 3
-0.101798 0.267096 0.767639 1.32776e-38 3
-0.0913225 0.272438 0.782992 1.41985e-38 3
-0.0796069 0.27519 0.790901 1.34609e-38 3
-0.0676523 0.277998 0.798972 1.35542e-38 3
-0.0548853 0.277998 0.798972 1.45684e-38 3
-0.0421183 0.277998 0.798972 1.50286e-38 3
-0.0290549 0.27519 0.790901 1.41059e-38 3
-0.0162527 0.272438 0.782992 1.32762e-38 3
-0.00377887 0.27519 0.790901 1.35528e-38 3
0.00885913 0.27519 0.790901 1.34598e-38 3
0.0208649 0.267096 0.767639 1.44708e-38 3
0.0331312 0.267096 0.767639 1.47474e-38 3
0.0449567 0.264503 0.760186 1.41974e-38 3
0.0525152 0.243248 0.6991 1.43825e-38 3
0.0636863 0.243248 0.6991 1.3184e-38 3
0.074195 0.241096 0.692913 1.37372e-38 3
0.0852672 0.241096 0.692913 1.36453e-38 3
0.0963394 0.241096 0.692913 1.35546e-38 3
0.105544 0.236903 0.680863 1.26322e-38 3
0.116423 0.236903 0.680863 1.28156e-38 3
0.125127 0.232853 0.669224 1.34606e-38 3
0.135821 0.232853 0.669224 1.30925e-38 3
0.146514 0.232853 0.669224 1.33691e-38 3
0.153278 0.227032 0.652493 1.28166e-38 3
0.163704 0.227032 0.652493 1.36464e-38 3
0.196622 0.22894 0.657977 1.21705e-38 3
0.207136 0.22894 0.657977 1.34613e-38 3
0.23306 0.233853 0.672096 1.24479e-38 3
0.243799 0.233853 0.672096 1.254e-38 3
0.252373 0.231862 0.666376 1.29088e-38 3
0.260801 0.229906 0.660753 1.28156e-38 3
0.27136 0.229906 0.660753 1.26312e-38 3
0.277239 0.22609 0.649786 1.29992e-38 3
0.304022 0.238981 0.686835 1.30914e-38 3
0.314997 0.238981 0.686835 1.19854e-38 3
0.320352 0.234861 0.674993 1.21695e-38 3
0.336947 0.238981 0.686835 1.21698e-38 3
0.347922 0.238981 0.686835 1.2262e-38 3
0.365306 0.243248 0.6991 1.10635e-38 3
0.381588 0.24655 0.70859 1.05107e-38 3
0.394696 0.247671 0.711811 1.06029e-38 3
0.400608 0.244339 0.702235 1.0143e-38 3
0.413684 0.24544 0.705398 1.10635e-38 3
0.432753 0.249943 0.718341 1.12475e-38 3
0.440193 0.247671 0.711811 1.10628e-38 3
0.451567 0.247671 0.711811 1.06018e-38 3
0.454675 0.243248 0.6991 1.03263e-38 3
0.467935 0.244339 0.702235 9.31212e-39 3
0.472796 0.241096 0.692913 9.03554e-39 3
0.483868 0.241096 0.692913 1.0049e-38 3
0.499359 0.243248 0.6991 1.00497e-38 3
0.51513 0.24544 0.705398 9.77274e-39 3
0.531187 0.247671 0.711811 8.66639e-39 3
0.557773 0.254615 0.731768 9.49543e-39 3
0.585893 0.26196 0.752877 9.3096e-39 3
0.64775 0.28379 0.815617 9.67875e-39 3
0.660783 0.28379 0.815617 9.12737e-39 3
0.568427 0.234861 0.674993 8.75895e-39 3
0.495857 0.201061 0.577854 7.92919e-39 3
0.510745 0.203312 0.584322 8.20578e-39 3
0.520082 0.203312 0.584322 7.6526e-39 3
0.529419 0.203312 0.584322 8.29797e-39 3
-0.468345 0.252168 0.692913 8.94298e-39 3
-0.406618 0.229798 0.631445 8.11393e-39 3
-0.329348 0.225257 0.618966 1.08794e-38 3
-0.322003 0.227052 0.623898 1.12482e-38 3
-0.315808 0.229798 0.631445 1.2262e-38 3
-0.309461 0.232612 0.639177 1.21698e-38 3
-0.317384 0.24671 0.677915 1.23542e-38 3
-0.309229 0.248865 0.683836 1.13408e-38 3
-0.303604 0.253289 0.695993 1.19854e-38 3
-0.292483 0.253289 0.695993 1.32765e-38 3
-0.281362 0.253289 0.695993 1.11564e-38 3
-0.276382 0.259045 0.711811 1.14326e-38 3
-0.265008 0.259045 0.711811 1.19872e-38 3
-0.25596 0.261422 0.718341 1.20794e-38 3
-0.242259 0.259045 0.711811 1.12493e-38 3
-0.233003 0.261422 0.718341 1.26322e-38 3
-0.219511 0.259045 0.711811 1.17099e-38 3
-0.208137 0.259045 0.711811 1.20783e-38 3
-0.193249 0.25442 0.6991 1.29999e-38 3
-0.182078 0.25442 0.6991 1.30918e-38 3
-0.170907 0.25442 0.6991 1.32758e-38 3
-0.1672 0.266308 0.731768 1.41056e-38 3
-0.164745 0.282129 0.77524 1.36442e-38 3
-0.152357 0.282129 0.77524 1.29077e-38 3
-0.139969 0.282129 0.77524 1.26312e-38 3
-0.122721 0.271381 0.745707 1.38297e-38 3
-0.108734 0.266308 0.731768 1.33691e-38 3
-0.0979567 0.268821 0.738672 1.4752e-38 3
-0.0895318 0.279363 0.767639 1.42903e-38 3
-0.0788109 0.28495 0.782992 1.29996e-38 3
-0.0676523 0.290765 0.798972 1.41067e-38 3
-0.0548853 0.290765 0.798972 1.49368e-38 3
-0.0416929 0.287828 0.790901 1.30925e-38 3
-0.0160918 0.282129 0.77524 1.33691e-38 3
-0.00370405 0.282129 0.77524 1.41066e-38 3
0.0089041 0.289289 0.794916 1.25379e-38 3
0.0193474 0.259045 0.711811 1.40116e-38 3
0.030173 0.25442 0.6991 1.41023e-38 3
0.0406188 0.249956 0.686835 1.48424e-38 3
0.0507044 0.245646 0.674993 1.3645e-38 3
0.0536306 0.214248 0.588716 1.34606e-38 3
0.0625674 0.212649 0.584322 1.32762e-38 3
0.207136 0.239454 0.657977 1.4568e-38 3
0.21765 0.239454 0.657977 1.32776e-38 3
0.232064 0.243547 0.669224 1.30932e-38 3
0.24485 0.245646 0.674993 1.37372e-38 3
0.253451 0.243547 0.669224 1.37375e-38 3
0.260801 0.240464 0.660753 1.26312e-38 3
0.27136 0.240464 0.660753 1.25393e-38 3
0.281918 0.240464 0.660753 1.23542e-38 3
0.287622 0.236473 0.649786 1.26301e-38 3
0.291948 0.231667 0.636579 1.34598e-38 3
0.296617 0.220038 0.604627 1.26294e-38 3
0.343817 0.239454 0.657977 1.13401e-38 3
0.354331 0.239454 0.657977 1.18014e-38 3
0.379184 0.248865 0.683836 1.12479e-38 3
0.390111 0.248865 0.683836 1.06021e-38 3
0.399295 0.247782 0.680863 1.13404e-38 3
0.408399 0.24671 0.677915 1.20783e-38 3
0.421054 0.247782 0.680863 1.01422e-38 3
0.431934 0.247782 0.680863 1.06032e-38 3
0.442814 0.247782 0.680863 1.10638e-38 3
0.461723 0.252168 0.692913 1.04185e-38 3
0.468648 0.249956 0.686835 1.07873e-38 3
0.483868 0.252168 0.692913 1.04192e-38 3
0.49494 0.252168 0.692913 1.04185e-38 3
0.51053 0.25442 0.6991 9.68162e-39 3
0.526401 0.256712 0.705398 9.49687e-39 3
0.552608 0.263842 0.724993 7.83699e-39 3
0.569466 0.266308 0.731768 9.21885e-39 3
0.575778 0.263842 0.724993 9.95605e-39 3
0.592852 0.266308 0.731768 9.31176e-39 3
0.557641 0.245646 0.674993 9.31212e-39 3
0.497694 0.211074 0.579994 9.95749e-39 3
0.510745 0.212649 0.584322 9.21993e-39 3
0.518149 0.211859 0.58215 8.29797e-39 3
0.523558 0.210295 0.577854 8.02102e-39 3
0.627731 0.243547 0.669224 7.56041e-39 3
0.641164 0.244592 0.672096 7.37602e-39 3
0.660407 0.247782 0.680863 7.1927e-39 3
0.671287 0.247782 0.680863 8.20577e-39 3
0.676286 0.245646 0.674993 7.00687e-39 3
-0.329348 0.235147 0.618966 1.06954e-38 3
-0.319457 0.235147 0.618966 1.18014e-38 3
-0.321263 0.252086 0.663553 1.07876e-38 3
-0.330251 0.267983 0.705398 1.10635e-38 3
-0.316131 0.265591 0.6991 1.15245e-38 3
-0.30496 0.265591 0.6991 1.09706e-38 3
-0.296436 0.267983 0.705398 1.1801e-38 3
-0.285164 0.267983 0.705398 1.19861e-38 3
-0.276382 0.27042 0.711811 1.21716e-38 3
-0.265008 0.27042 0.711811 1.12497e-38 3
-0.253634 0.27042 0.711811 1.09731e-38 3
-0.244482 0.2729 0.718341 1.27248e-38 3
-0.246576 0.288798 0.760186 1.13419e-38 3
-0.234429 0.288798 0.760186 1.33691e-38 3
-0.211991 0.275427 0.724993 1.2262e-38 3
-0.196763 0.27042 0.711811 1.30918e-38 3
-0.180467 0.26324 0.692913 1.32762e-38 3
-0.166448 0.258662 0.680863 1.36446e-38 3
-0.143123 0.237969 0.626394 1.36428e-38 3
-0.133114 0.237969 0.626394 1.41038e-38 3
-0.152357 0.294516 0.77524 1.3184e-38 3
-0.132121 0.278001 0.731768 1.40145e-38 3
-0.113033 0.260931 0.686835 1.39223e-38 3
-0.100298 0.256432 0.674993 1.40145e-38 3
-0.0887471 0.254241 0.669224 1.32762e-38 3
-0.0780534 0.254241 0.669224 1.2262e-38 3
-0.0765154 0.288798 0.760186 1.37372e-38 3
-0.0676523 0.303532 0.798972 1.39215e-38 3
-0.00314377 0.249968 0.657977 1.33702e-38 3
0.0158232 0.221161 0.58215 1.65949e-38 3
0.0252193 0.221986 0.584322 1.45651e-38 3
0.0345563 0.221986 0.584322 1.41981e-38 3
0.0522554 0.21792 0.573621 1.38293e-38 3
0.0614215 0.21792 0.573621 1.35528e-38 3
0.070847 0.218722 0.575729 1.41985e-38 3
0.0797535 0.21792 0.573621 1.29095e-38 3
0.234064 0.256432 0.674993 1.32769e-38 3
0.24485 0.256432 0.674993 1.38293e-38 3
0.253451 0.254241 0.669224 1.40123e-38 3
0.260801 0.251022 0.660753 1.25382e-38 3
0.27251 0.252086 0.663553 1.23539e-38 3
0.283113 0.252086 0.663553 1.20755e-38 3
0.293716 0.252086 0.663553 1.18904e-38 3
0.288812 0.223655 0.588716 1.25368e-38 3
0.295993 0.221986 0.584322 1.27194e-38 3
0.30533 0.221986 0.584322 1.17078e-38 3
0.363319 0.248922 0.655223 1.19854e-38 3
0.383414 0.255332 0.672096 1.03259e-38 3
0.395853 0.256432 0.674993 1.04174e-38 3
0.404893 0.255332 0.672096 1.13386e-38 3
0.412096 0.253159 0.666376 9.5869e-39 3
0.42455 0.254241 0.669224 1.18918e-38 3
0.440897 0.257542 0.677915 1.13386e-38 3
0.449782 0.256432 0.674993 1.08784e-38 3
0.460568 0.256432 0.674993 1.03259e-38 3
0.471354 0.256432 0.674993 1.06029e-38 3
0.418938 0.222818 0.586511 1.09713e-38 3
0.426712 0.221986 0.584322 1.05103e-38 3
0.521701 0.265591 0.6991 1.05107e-38 3
0.542561 0.27042 0.711811 9.68054e-39 3
0.553935 0.27042 0.711811 9.86494e-39 3
0.460622 0.220342 0.579994 9.31176e-39 3
0.542181 0.254241 0.669224 9.8653e-39 3
0.470446 0.216336 0.569449 1.02341e-38 3
0.484835 0.218722 0.575729 8.482e-39 3
0.499544 0.221161 0.58215 8.66639e-39 3
0.510745 0.221986 0.584322 8.5742e-39 3
0.520082 0.221986 0.584322 8.66639e-39 3
0.527451 0.221161 0.58215 8.57419e-39 3
0.538756 0.221986 0.584322 9.12809e-39 3
0.599547 0.242826 0.639177 8.48344e-39 3
0.61226 0.243821 0.641797 7.19306e-39 3
0.646356 0.253159 0.666376 6.73208e-39 3
0.662644 0.255332 0.672096 8.66783e-39 3
0.664823 0.252086 0.663553 7.6526e-39 3
-0.353318 0.247978 0.626394 1.13408e-38 3
-0.336578 0.243116 0.614111 1.04188e-38 3
-0.320481 0.238441 0.602302 1.0972e-38 3
-0.30731 0.235721 0.595431 1.15248e-38 3
-0.303567 0.240289 0.606971 1.14326e-38 3
-0.195643 0.208036 0.525498 1.14341e-38 3
-0.188511 0.209441 0.529049 1.33702e-38 3
-0.234429 0.300945 0.760186 1.37371e-38 3
-0.211991 0.287012 0.724993 1.34606e-38 3
-0.196763 0.281794 0.711811 1.30918e-38 3
-0.165794 0.252011 0.636579 1.35528e-38 3
-0.148384 0.240289 0.606971 1.56725e-38 3
-0.137618 0.238441 0.602302 1.49335e-38 3
-0.128986 0.240289 0.606971 1.62232e-38 3
-0.11837 0.238441 0.602302 1.34598e-38 3
-0.109588 0.240289 0.606971 1.35535e-38 3
-0.10067 0.242167 0.611713 1.37379e-38 3
-0.0908951 0.242167 0.611713 1.24468e-38 3
-0.0811204 0.242167 0.611713 1.29074e-38 3
-0.0702481 0.238441 0.602302 1.32751e-38 3
-0.060161 0.236621 0.597704 1.33684e-38 3
-0.0457236 0.213775 0.539995 1.20776e-38 3
-0.0119946 0.228762 0.577854 1.37389e-38 3
-0.00273072 0.226258 0.571527 1.37389e-38 3
0.00640186 0.226258 0.571527 1.33687e-38 3
0.0155913 0.227087 0.573621 1.40137e-38 3
0.0247574 0.227087 0.573621 1.62257e-38 3
0.0336767 0.225435 0.569449 1.29996e-38 3
0.0511317 0.222203 0.561285 1.37372e-38 3
0.0601006 0.222203 0.561285 1.40137e-38 3
0.0695682 0.223807 0.565337 1.40141e-38 3
0.0783191 0.223002 0.563304 1.27248e-38 3
0.24485 0.267218 0.674993 1.23535e-38 3
0.252373 0.263807 0.666376 1.24443e-38 3
0.254362 0.255122 0.644438 1.14294e-38 3
0.267968 0.258311 0.652493 1.03227e-38 3
0.27383 0.254076 0.641797 9.30708e-39 3
0.275067 0.24601 0.621422 7.83123e-39 3
0.279452 0.241224 0.609332 6.81636e-39 3
0.284533 0.22961 0.579994 6.35429e-39 3
0.289512 0.226258 0.571527 6.81419e-39 3
0.299738 0.227087 0.573621 7.09114e-39 3
0.314667 0.231323 0.584322 6.44686e-39 3
0.326441 0.233062 0.588716 6.54085e-39 3
0.360224 0.249978 0.631445 5.98876e-39 3
0.376385 0.254076 0.641797 5.8962e-39 3
0.378876 0.248974 0.628909 5.98804e-39 3
0.388926 0.248974 0.628909 7.37097e-39 3
0.398975 0.248974 0.628909 6.63341e-39 3
0.419124 0.255122 0.644438 7.27985e-39 3
0.442159 0.262689 0.663553 8.38657e-39 3
0.394287 0.228762 0.577854 1.04163e-38 3
0.405015 0.22961 0.579994 9.49543e-39 3
0.412754 0.228762 0.577854 1.06933e-38 3
0.418897 0.227087 0.573621 1.07854e-38 3
0.521701 0.276762 0.6991 1.0417e-38 3
0.532872 0.276762 0.6991 8.48164e-39 3
0.458923 0.228762 0.577854 1.08787e-38 3
0.468156 0.228762 0.577854 1.06951e-38 3
0.473893 0.227087 0.573621 1.0511e-38 3
0.486624 0.228762 0.577854 1.01415e-38 3
0.499544 0.230463 0.58215 1.01415e-38 3
0.510745 0.231323 0.584322 1.02337e-38 3
0.518149 0.230463 0.58215 9.68054e-39 3
0.521634 0.227921 0.575729 7.46784e-39 3
0.530833 0.227921 0.575729 8.85114e-39 3
0.544033 0.22961 0.579994 9.31284e-39 3
0.541273 0.224618 0.567386 7.65404e-39 3
0.65422 0.262689 0.663553 7.1927e-39 3
-0.276862 0.208055 0.505156 1.16181e-38 3
-0.26879 0.208055 0.505156 1.07883e-38 3
-0.260718 0.208055 0.505156 1.0143e-38 3
-0.245203 0.215709 0.523741 1.15252e-38 3
-0.23526 0.214276 0.520261 1.11564e-38 3
-0.226947 0.214276 0.520261 1.24471e-38 3
-0.216476 0.212161 0.515126 1.12486e-38 3
-0.206884 0.210774 0.51176 1.10653e-38 3
-0.199357 0.211465 0.513437 1.15262e-38 3
-0.191153 0.211465 0.513437 1.17106e-38 3
-0.18538 0.214276 0.520261 1.21716e-38 3
-0.177657 0.21499 0.521995 1.21705e-38 3
-0.169882 0.215709 0.523741 1.30003e-38 3
-0.166526 0.222403 0.539995 1.24464e-38 3
-0.157897 0.222403 0.539995 1.16166e-38 3
-0.150305 0.223948 0.543745 1.28152e-38 3
-0.143611 0.227102 0.551403 1.27237e-38 3
-0.136725 0.230346 0.55928 1.5119e-38 3
-0.132521 0.238878 0.579994 1.43811e-38 3
-0.124173 0.24066 0.584322 1.54874e-38 3
-0.113986 0.238878 0.579994 1.53038e-38 3
-0.103189 0.23539 0.571527 1.35535e-38 3
-0.0927031 0.232003 0.563304 1.2723e-38 3
-0.0843085 0.233685 0.567386 1.29989e-38 3
-0.0752421 0.233685 0.567386 1.31847e-38 3
-0.0661757 0.233685 0.567386 1.44747e-38 3
-0.0562935 0.230346 0.55928 1.29074e-38 3
-0.0452554 0.220126 0.534466 1.29074e-38 3
-0.0367151 0.220126 0.534466 1.49357e-38 3
-0.0203282 0.227904 0.553351 1.4291e-38 3
-0.0116091 0.230346 0.55928 1.30936e-38 3
-0.00276095 0.237996 0.577854 1.29092e-38 3
0.00640186 0.23539 0.571527 1.30925e-38 3
0.0154779 0.234534 0.569449 1.44754e-38 3
0.0245773 0.234534 0.569449 1.32762e-38 3
0.0418627 0.229527 0.55729 1.41981e-38 3
0.0505877 0.228713 0.555314 1.37372e-38 3
0.0596728 0.229527 0.55729 1.40137e-38 3
0.0688228 0.230346 0.55928 1.45669e-38 3
0.077483 0.229527 0.55729 1.37379e-38 3
0.0860817 0.228713 0.555314 1.37389e-38 3
0.254842 0.237121 0.575729 1.38228e-38 3
0.264041 0.237121 0.575729 2.10155e-38 3
0.275354 0.231172 0.561285 1.9264e-38 3
0.283308 0.230346 0.55928 1.99076e-38 3
0.293292 0.231172 0.561285 2.01835e-38 3
0.305547 0.233685 0.567386 1.99987e-38 3
0.31807 0.236253 0.573621 1.99062e-38 3
0.335848 0.24247 0.588716 1.89849e-38 3
0.350526 0.246172 0.597704 1.84303e-38 3
0.360077 0.246172 0.597704 1.87981e-38 3
0.375358 0.249988 0.606971 1.86119e-38 3
0.382095 0.248065 0.602302 1.75949e-38 3
0.387251 0.245236 0.595431 1.3906e-38 3
0.392291 0.24247 0.588716 1.01264e-38 3
0.395747 0.238878 0.579994 6.99462e-39 3
0.408038 0.24066 0.584322 4.78481e-39 3
0.414283 0.238878 0.579994 4.23523e-39 3
0.417368 0.23539 0.571527 5.24902e-39 3
0.518971 0.280421 0.680863 6.637e-39 3
0.441543 0.233685 0.567386 9.67983e-39 3
0.452248 0.234534 0.569449 9.67983e-39 3
0.459675 0.233685 0.567386 1.02334e-38 3
0.468742 0.233685 0.567386 1.11542e-38 3
0.486624 0.237996 0.577854 1.06018e-38 3
0.497694 0.238878 0.579994 9.12665e-39 3
0.508846 0.239766 0.58215 9.58763e-39 3
0.518149 0.239766 0.58215 9.40324e-39 3
0.517826 0.23539 0.571527 1.00486e-38 3
0.526959 0.23539 0.571527 8.20505e-39 3
0.536091 0.23539 0.571527 9.12736e-39 3
0.534837 0.227102 0.551403 7.83987e-39 3
-0.4249 0.21753 0.508436 7.92882e-39 3
-0.410118 0.214055 0.500314 6.54589e-39 3
-0.402123 0.214055 0.500314 7.00722e-39 3
-0.394128 0.214055 0.500314 6.91539e-39 3
-0.387371 0.214741 0.501918 7.92954e-39 3
-0.299489 0.209373 0.48937 9.40467e-39 3
-0.29167 0.209373 0.48937 8.66818e-39 3
-0.289274 0.213373 0.498721 1.06965e-38 3
-0.281305 0.213373 0.498721 9.68233e-39 3
-0.276862 0.216127 0.505156 1.03273e-38 3
-0.26879 0.216127 0.505156 1.09727e-38 3
-0.260718 0.216127 0.505156 1.14337e-38 3
-0.251027 0.214741 0.501918 1.0511e-38 3
-0.243006 0.214741 0.501918 9.77346e-39 3
-0.234986 0.214741 0.501918 1.17096e-38 3
-0.224804 0.212696 0.497138 1.0972e-38 3
-0.218246 0.214055 0.500314 1.06032e-38 3
-0.211603 0.215432 0.503532 1.15252e-38 3
-0.202905 0.214741 0.501918 1.1895e-38 3
-0.194885 0.214741 0.501918 1.18028e-38 3
-0.186864 0.214741 0.501918 1.27241e-38 3
-0.180581 0.216826 0.506791 1.29081e-38 3
-0.178849 0.22483 0.525498 1.28156e-38 3
-0.168194 0.221852 0.518538 1.33684e-38 3
-0.16315 0.226349 0.529049 1.2539e-38 3
-0.154696 0.226349 0.529049 1.19858e-38 3
-0.147237 0.227889 0.532648 1.25393e-38 3
-0.141616 0.232636 0.543745 1.30925e-38 3
-0.132927 0.232636 0.543745 1.18014e-38 3
-0.125989 0.235913 0.551403 1.26304e-38 3
-0.118852 0.239283 0.55928 1.43814e-38 3
-0.109915 0.239283 0.55928 1.3645e-38 3
-0.0981729 0.232636 0.543745 1.39219e-38 3
-0.0783327 0.203645 0.475983 1.30914e-38 3
-0.0807957 0.232636 0.543745 1.4474e-38 3
-0.072107 0.232636 0.543745 1.41059e-38 3
-0.0634184 0.232636 0.543745 1.46584e-38 3
-0.0551125 0.234263 0.547547 1.86228e-38 3
-0.0451015 0.227889 0.532648 1.52116e-38 3
-0.0365902 0.227889 0.532648 1.44744e-38 3
-0.0286639 0.232636 0.543745 1.48438e-38 3
-0.0201149 0.234263 0.547547 1.41999e-38 3
-0.0114054 0.235085 0.549468 1.32787e-38 3
-0.0026722 0.239283 0.55928 1.42921e-38 3
0.00626467 0.239283 0.55928 1.4384e-38 3
0.0151475 0.238432 0.55729 1.49364e-38 3
0.0241384 0.239283 0.55928 1.50282e-38 3
0.0329576 0.238432 0.55729 1.50279e-38 3
0.0412751 0.235085 0.549468 1.52123e-38 3
0.0500552 0.235085 0.549468 1.35528e-38 3
0.0592511 0.236747 0.553351 1.48435e-38 3
0.0680932 0.236747 0.553351 1.51201e-38 3
0.0766645 0.235913 0.551403 1.37379e-38 3
0.084582 0.233447 0.545639 1.38301e-38 3
0.10154 0.214055 0.500314 1.39223e-38 3
0.108495 0.212023 0.495565 1.4752e-38 3
0.115319 0.210029 0.490904 1.29081e-38 3
0.122778 0.209373 0.48937 1.36457e-38 3
0.131007 0.210029 0.490904 1.26322e-38 3
0.139288 0.21069 0.492448 1.29092e-38 3
0.19256 0.227116 0.530842 9.30493e-39 3
0.207369 0.234263 0.547547 1.1703e-38 3
0.208114 0.225587 0.527267 1.9819e-38 3
0.21654 0.225587 0.527267 2.16647e-38 3
0.234437 0.235085 0.549468 2.20349e-38 3
0.244936 0.236747 0.553351 2.19423e-38 3
0.255584 0.238432 0.55729 2.18483e-38 3
0.26449 0.238432 0.55729 2.14788e-38 3
0.272425 0.237586 0.555314 2.13852e-38 3
0.281299 0.237586 0.555314 2.21202e-38 3
0.290172 0.237586 0.555314 2.13805e-38 3
0.30011 0.238432 0.55729 2.11954e-38 3
0.310118 0.239283 0.55928 2.12862e-38 3
0.320199 0.240141 0.561285 2.14699e-38 3
0.329168 0.240141 0.561285 2.11929e-38 3
0.340578 0.241875 0.565337 2.10082e-38 3
0.360009 0.249068 0.58215 2.06379e-38 3
0.369312 0.249068 0.58215 2.07266e-38 3
0.377212 0.248145 0.579994 2.05404e-38 3
0.379453 0.243634 0.569449 2.09081e-38 3
0.388552 0.243634 0.569449 2.07248e-38 3
0.402037 0.246321 0.575729 2.02638e-38 3
0.409731 0.245419 0.573621 1.90668e-38 3
0.411362 0.241005 0.563304 1.65779e-38 3
0.503712 0.28879 0.674993 1.23394e-38 3
0.514497 0.28879 0.674993 7.64034e-39 3
0.439949 0.241875 0.565337 5.43234e-39 3
0.447367 0.241005 0.563304 5.24904e-39 3
0.463702 0.240141 0.561285 7.28201e-39 3
0.477808 0.242751 0.567386 9.49471e-39 3
0.488645 0.243634 0.569449 9.58655e-39 3
0.499561 0.244523 0.571527 9.67983e-39 3
0.506844 0.243634 0.569449 9.3114e-39 3
0.512218 0.241875 0.565337 9.86493e-39 3
0.519377 0.241005 0.563304 8.482e-39 3
0.52418 0.235085 0.549468 9.03661e-39 3
0.520184 0.22945 0.536296 8.48344e-39 3
-0.423525 0.224924 0.506791 6.82248e-39 3
-0.408812 0.221343 0.498721 7.37637e-39 3
-0.400842 0.221343 0.498721 9.22028e-39 3
-0.394128 0.22205 0.500314 6.36221e-39 3
-0.386134 0.22205 0.500314 8.94442e-39 3
-0.379351 0.222762 0.501918 9.3132e-39 3
-0.374936 0.224924 0.506791 9.221e-39 3
-0.374102 0.229378 0.516826 8.20721e-39 3
-0.28385 0.217193 0.48937 1.00511e-38 3
-0.277766 0.218558 0.492448 1.00511e-38 3
-0.269897 0.218558 0.492448 9.03697e-39 3
-0.260391 0.217193 0.48937 9.3132e-39 3
-0.252571 0.217193 0.48937 9.77418e-39 3
-0.244751 0.217193 0.48937 1.02344e-38 3
-0.236931 0.217193 0.48937 1.03266e-38 3
-0.229111 0.217193 0.48937 1.04188e-38 3
-0.221985 0.217873 0.490904 1.21705e-38 3
-0.214141 0.217873 0.490904 1.22627e-38 3
-0.209582 0.221343 0.498721 1.23549e-38 3
-0.201613 0.221343 0.498721 1.3278e-38 3
-0.193643 0.221343 0.498721 1.25404e-38 3
-0.185674 0.221343 0.498721 1.23549e-38 3
-0.178844 0.222762 0.501918 1.12486e-38 3
-0.174173 0.227129 0.51176 1.41059e-38 3
-0.168194 0.230138 0.518538 1.43825e-38 3
-0.160975 0.231672 0.521995 1.34609e-38 3
-0.152634 0.231672 0.521995 1.18939e-38 3
-0.144293 0.231672 0.521995 1.25393e-38 3
-0.136864 0.233227 0.525498 1.19872e-38 3
-0.128467 0.233227 0.525498 1.21713e-38 3
-0.116931 0.227129 0.51176 1.38301e-38 3
-0.108753 0.227129 0.51176 1.35528e-38 3
-0.0999225 0.225655 0.508436 1.19854e-38 3
-0.0859386 0.211251 0.475983 1.3184e-38 3
-0.0783327 0.211251 0.475983 1.19847e-38 3
-0.0709425 0.211895 0.477434 1.41967e-38 3
-0.0706355 0.2364 0.532648 1.42896e-38 3
-0.0556844 0.211895 0.477434 1.68711e-38 3
-0.0547298 0.241325 0.543745 1.65023e-38 3
-0.0460411 0.241325 0.543745 1.33676e-38 3
-0.0381472 0.24646 0.555314 1.41056e-38 3
-0.0286639 0.241325 0.543745 1.43829e-38 3
-0.0201149 0.243013 0.547547 1.43843e-38 3
-0.0114054 0.243865 0.549468 1.39241e-38 3
-0.00259798 0.241325 0.543745 1.53066e-38 3
0.00617644 0.244724 0.551403 1.35545e-38 3
0.0151475 0.247337 0.55729 1.43843e-38 3
0.0240525 0.247337 0.55729 1.4291e-38 3
0.0312875 0.234803 0.529049 1.49364e-38 3
0.0411308 0.243013 0.547547 1.52123e-38 3
0.0493624 0.24049 0.541863 1.46591e-38 3
0.058021 0.24049 0.541863 1.50279e-38 3
0.0669111 0.241325 0.543745 1.56736e-38 3
0.0750783 0.239661 0.539995 1.4936e-38 3
0.083707 0.239661 0.539995 1.4291e-38 3
0.101217 0.221343 0.498721 1.35545e-38 3
0.108495 0.219942 0.495565 1.33702e-38 3
0.115319 0.217873 0.490904 1.30003e-38 3
0.12355 0.218558 0.492448 1.30918e-38 3
0.131834 0.219248 0.494001 1.29074e-38 3
0.14017 0.219942 0.495565 1.2262e-38 3
0.173246 0.232447 0.523741 1.04141e-38 3
0.181615 0.232447 0.523741 1.12407e-38 3
0.190622 0.233227 0.525498 2.06488e-38 3
0.202415 0.237207 0.534466 2.27732e-38 3
0.207416 0.233227 0.525498 2.23122e-38 3
0.215091 0.232447 0.523741 2.2588e-38 3
0.224965 0.234012 0.527267 2.24033e-38 3
0.235772 0.2364 0.532648 2.26792e-38 5
0.244283 0.2364 0.532648 2.26788e-38 5
0.255401 0.238837 0.538139 2.24944e-38 5
0.26491 0.239661 0.539995 2.19398e-38 5
0.275438 0.241325 0.543745 2.1938e-38 5
0.285117 0.242166 0.545639 2.18447e-38 5
0.293836 0.242166 0.545639 2.13827e-38 5
0.302555 0.242166 0.545639 2.19341e-38 5
0.313458 0.243865 0.549468 2.18411e-38 5
0.314513 0.238019 0.536296 2.12873e-38 5
0.323083 0.238019 0.536296 2.09174e-38 5
0.3422 0.245589 0.553351 2.16532e-38 5
0.35354 0.247337 0.55729 2.07298e-38 5
0.365043 0.24911 0.561285 2.1096e-38 5
0.375358 0.250006 0.563304 2.09099e-38 5
0.381613 0.24822 0.55928 2.10006e-38 3
0.39195 0.24911 0.561285 2.11847e-38 3
0.399487 0.24822 0.55928 2.13676e-38 3
0.514497 0.299576 0.674993 1.99861e-38 3
0.525283 0.299576 0.674993 1.89745e-38 3
0.526983 0.294498 0.663553 1.8237e-38 3
0.477808 0.251817 0.567386 3.77137e-39 3
0.486875 0.251817 0.567386 5.15647e-39 3
0.494151 0.250908 0.565337 5.8962e-39 3
0.501374 0.250006 0.563304 7.1891e-39 3
0.503136 0.24646 0.555314 8.29653e-39 3
0.5102 0.245589 0.553351 8.48056e-39 3
0.513598 0.243013 0.547547 8.11177e-39 3
0.511614 0.238019 0.536296 8.75787e-39 3
-0.400842 0.229312 0.498721 9.58906e-39 3
-0.383682 0.228584 0.497138 7.83807e-39 3
-0.373368 0.227142 0.494001 7.1005e-39 3
-0.365474 0.227142 0.494001 7.74587e-39 3
-0.35758 0.227142 0.494001 7.93062e-39 3
-0.29167 0.225012 0.48937 9.40467e-39 3
-0.282087 0.223615 0.48633 1.11564e-38 3
-0.269298 0.219524 0.477434 9.49831e-39 3
-0.261669 0.219524 0.477434 9.12881e-39 3
-0.2525 0.218194 0.474541 1.09727e-38 3
-0.244917 0.218194 0.474541 1.06951e-38 3
-0.237334 0.218194 0.474541 1.1894e-38 3
-0.231152 0.219524 0.477434 1.18018e-38 3
-0.227688 0.223615 0.48633 1.20783e-38 3
-0.219917 0.223615 0.48633 1.28159e-38 3
-0.208265 0.219524 0.477434 1.1895e-38 3
-0.205652 0.225012 0.48937 1.24482e-38 3
-0.200337 0.227861 0.495565 1.19872e-38 3
-0.190013 0.225012 0.48937 1.25404e-38 3
-0.182193 0.225012 0.48937 1.22634e-38 3
-0.17547 0.226427 0.492448 1.50286e-38 3
-0.170824 0.230782 0.501918 1.8993e-38 3
-0.164918 0.233779 0.508436 1.62264e-38 3
-0.158857 0.236855 0.515126 1.30928e-38 3
-0.150625 0.236855 0.515126 1.32765e-38 3
-0.140545 0.233779 0.508436 1.26326e-38 3
-0.130723 0.230782 0.501918 1.44772e-38 3
-0.121921 0.229312 0.498721 1.42914e-38 3
-0.112873 0.227142 0.494001 1.35535e-38 3
-0.104321 0.225718 0.490904 1.33691e-38 3
-0.0941166 0.220195 0.478894 1.33691e-38 3
-0.0859386 0.218857 0.475983 1.33684e-38 3
-0.0785716 0.219524 0.477434 1.2262e-38 3
-0.0709425 0.219524 0.477434 1.34602e-38 3
-0.0640951 0.222234 0.483328 1.33691e-38 3
-0.0556844 0.219524 0.477434 1.41056e-38 3
-0.0486487 0.222234 0.483328 1.42903e-38 3
-0.0409254 0.222234 0.483328 1.42903e-38 3
-0.0381472 0.255333 0.555314 1.6042e-38 3
-0.0292737 0.255333 0.555314 1.41988e-38 3
-0.0198375 0.248289 0.539995 1.45691e-38 3
-0.0112866 0.250014 0.543745 1.47535e-38 3
-0.00258006 0.248289 0.539995 1.43861e-38 3
0.00600722 0.246589 0.536296 1.38322e-38 3
0.0143798 0.243256 0.529049 1.39233e-38 3
0.0228336 0.243256 0.529049 1.33691e-38 3
0.0312875 0.243256 0.529049 1.41981e-38 3
0.0408452 0.250014 0.543745 1.4291e-38 3
0.0486885 0.245747 0.534466 1.45676e-38 3
0.0564581 0.242437 0.527267 1.50279e-38 3
0.0648835 0.242437 0.527267 1.41059e-38 3
0.0718571 0.237637 0.516826 1.48442e-38 3
0.0790718 0.23454 0.510093 1.44751e-38 3
0.0850075 0.228584 0.497138 1.45687e-38 3
0.092365 0.227142 0.494001 1.44765e-38 3
0.100259 0.227142 0.494001 1.41077e-38 3
0.115825 0.243256 0.529049 1.29092e-38 3
0.114958 0.225012 0.48937 1.49364e-38 3
0.12394 0.227142 0.494001 1.46598e-38 3
0.132251 0.227861 0.495565 1.54874e-38 3
0.14017 0.227861 0.495565 1.40134e-38 3
0.148559 0.228584 0.497138 1.25375e-38 3
0.159027 0.232271 0.505156 1.15201e-38 3
0.169283 0.235307 0.51176 1.48377e-38 3
0.179811 0.238424 0.518538 2.29555e-38 3
0.187476 0.237637 0.516826 2.2404e-38 3
0.205349 0.239216 0.520261 2.25877e-38 3
0.212954 0.238424 0.518538 2.26795e-38 5
0.22124 0.238424 0.518538 2.25877e-38 5
0.226526 0.235307 0.51176 2.2588e-38 5
0.234703 0.235307 0.51176 2.2588e-38 5
0.248567 0.240816 0.523741 2.26795e-38 5
0.25954 0.243256 0.529049 2.25866e-38 5
0.269817 0.244911 0.532648 2.28621e-38 5
0.278328 0.244911 0.532648 2.23082e-38 5
0.284902 0.243256 0.529049 2.20302e-38 5
0.293355 0.243256 0.529049 2.19362e-38 5
0.302832 0.244081 0.530842 2.19344e-38 5
0.309218 0.242437 0.527267 2.18415e-38 5
0.316578 0.241624 0.525498 2.18411e-38 5
0.327171 0.243256 0.529049 2.1839e-38 5
0.337908 0.244911 0.532648 2.15606e-38 5
0.347601 0.245747 0.534466 2.17436e-38 5
0.364858 0.251762 0.547547 2.10046e-38 5
0.374919 0.252645 0.549468 2.11864e-38 5
0.383699 0.252645 0.549468 2.10925e-38 5
0.396654 0.255333 0.555314 2.09992e-38 5
0.503712 0.310362 0.674993 2.11825e-38 5
0.514497 0.310362 0.674993 2.11821e-38 5
0.525283 0.310362 0.674993 2.0629e-38 3
0.531487 0.307709 0.669224 2.02598e-38 3
0.492373 0.259007 0.563304 1.06785e-38 3
0.496021 0.256242 0.55729 4.69226e-39 3
0.492654 0.250014 0.543745 3.77534e-39 3
0.489446 0.244081 0.530842 4.23812e-39 3
0.496247 0.243256 0.529049 7.00218e-39 3
-0.358546 0.204127 0.429037 7.74515e-39 3
-0.35169 0.204127 0.429037 8.20613e-39 3
-0.377687 0.232832 0.48937 8.57563e-39 3
-0.36757 0.231386 0.48633 7.1927e-39 3
-0.358685 0.230669 0.484825 6.82392e-39 3
-0.346645 0.227848 0.478894 8.20721e-39 3
-0.338992 0.227848 0.478894 9.31355e-39 3
-0.276927 0.227153 0.477434 1.18025e-38 3
-0.258274 0.217855 0.45789 9.86673e-39 3
-0.24663 0.214098 0.449995 1.05121e-38 3
-0.23944 0.214098 0.449995 1.0327e-38 3
-0.233591 0.215336 0.452597 1.18936e-38 3
-0.227675 0.216588 0.455228 1.19862e-38 3
-0.227 0.223073 0.468858 1.17096e-38 3
-0.222169 0.225777 0.474541 1.11564e-38 3
-0.214586 0.225777 0.474541 1.19861e-38 3
-0.205756 0.224416 0.471682 1.26319e-38 3
-0.198818 0.225094 0.473107 1.25404e-38 3
-0.191837 0.225777 0.474541 1.2817e-38 3
-0.184255 0.225777 0.474541 1.18957e-38 3
-0.17884 0.228547 0.480363 1.25404e-38 3
-0.17329 0.231386 0.48633 1.27248e-38 3
-0.166553 0.232832 0.48937 1.41988e-38 3
-0.159732 0.234296 0.492448 1.3646e-38 3
-0.152824 0.235779 0.495565 1.43847e-38 3
-0.145828 0.237281 0.498721 1.40155e-38 3
-0.136987 0.235779 0.495565 1.39233e-38 3
-0.127454 0.232832 0.48937 1.43854e-38 3
-0.118892 0.231386 0.48633 1.2817e-38 3
-0.111815 0.232832 0.48937 1.38301e-38 3
-0.103995 0.232832 0.48937 1.38304e-38 3
-0.0941166 0.227848 0.478894 1.4752e-38 3
-0.0859386 0.226463 0.475983 1.30918e-38 3
-0.0785716 0.227153 0.477434 1.3645e-38 3
-0.0736365 0.235779 0.495565 1.33691e-38 3
-0.0665603 0.238802 0.501918 1.31847e-38 3
-0.0612903 0.250021 0.525498 1.32762e-38 3
-0.0536128 0.253423 0.532648 1.43829e-38 3
-0.0470207 0.264207 0.555314 1.39215e-38 3
-0.0199752 0.258702 0.543745 1.44765e-38 3
-0.0112866 0.258702 0.543745 1.45694e-38 3
-0.00258006 0.256918 0.539995 1.56768e-38 3
0.00600722 0.255158 0.536296 1.4846e-38 3
0.0144777 0.253423 0.532648 1.42928e-38 3
0.0226804 0.250021 0.525498 1.53063e-38 3
0.0308703 0.248354 0.521995 1.41067e-38 3
0.0401482 0.254288 0.534466 1.44754e-38 3
0.0469268 0.245086 0.515126 1.53974e-38 3
0.0555234 0.246709 0.518538 1.50279e-38 3
0.0638092 0.246709 0.518538 1.49357e-38 3
0.0709209 0.242691 0.510093 1.5213e-38 3
0.07856 0.241121 0.506791 1.43832e-38 3
0.0836793 0.232832 0.48937 1.50297e-38 3
0.091214 0.232107 0.487846 1.47531e-38 3
0.0990094 0.232107 0.487846 1.44765e-38 3
0.107812 0.234296 0.492448 1.44765e-38 3
0.11319 0.22925 0.481841 1.53052e-38 3
0.121638 0.230669 0.484825 1.57662e-38 3
0.129385 0.230669 0.484825 1.678e-38 3
0.136709 0.229958 0.483328 1.67789e-38 3
0.146696 0.233562 0.490904 1.16141e-38 3
0.158007 0.238802 0.501918 1.34555e-38 3
0.166028 0.238802 0.501918 2.31402e-38 3
0.177461 0.243484 0.51176 2.27728e-38 3
0.186859 0.245086 0.515126 2.2404e-38 3
0.196383 0.246709 0.518538 2.2588e-38 5
0.202655 0.244283 0.513437 2.24958e-38 5
0.209486 0.242691 0.510093 2.28643e-38 5
0.216228 0.241121 0.506791 2.23122e-38 5
0.233939 0.242691 0.510093 2.24966e-38 5
0.244479 0.245086 0.515126 2.25877e-38 5
0.257798 0.250021 0.525498 2.26795e-38 5
0.267092 0.250863 0.527267 2.2771e-38 5
0.276448 0.25171 0.529049 2.26788e-38 5
0.282989 0.250021 0.525498 2.2771e-38 5
0.290412 0.249185 0.523741 2.23082e-38 5
0.298781 0.249185 0.523741 2.20298e-38 5
0.312385 0.246709 0.518538 2.21195e-38 5
0.321736 0.247529 0.520261 2.22099e-38 5
0.348792 0.255158 0.536296 2.1561e-38 5
0.358589 0.256035 0.538139 2.15595e-38 5
0.372306 0.259604 0.545639 2.1189e-38 5
0.392479 0.261425 0.549468 2.09088e-38 5
0.531487 0.318403 0.669224 2.09045e-38 5
0.476933 0.259604 0.545639 1.98907e-38 3
0.477725 0.250863 0.527267 1.69456e-38 3
0.482899 0.249185 0.523741 1.30752e-38 3
-0.355623 0.209262 0.425539 8.94297e-39 3
-0.348823 0.209262 0.425539 8.2994e-39 3
-0.33736 0.229192 0.466067 1.01433e-38 3
-0.276137 0.227836 0.463309 1.14341e-38 3
-0.25952 0.220025 0.447424 8.85222e-39 3
-0.25237 0.220025 0.447424 9.40575e-39 3
-0.243828 0.218774 0.444882 1.0511e-38 3
-0.236719 0.218774 0.444882 1.20783e-38 3
-0.22961 0.218774 0.444882 1.21698e-38 3
-0.223772 0.220025 0.447424 1.20783e-38 3
-0.219127 0.222568 0.452597 1.11567e-38 3
-0.215634 0.226496 0.460584 1.16174e-38 3
-0.208275 0.226496 0.460584 1.23549e-38 3
-0.208265 0.234782 0.477434 1.21705e-38 3
-0.200636 0.234782 0.477434 1.25404e-38 3
-0.194191 0.236223 0.480363 1.27255e-38 3
-0.186515 0.236223 0.480363 1.21741e-38 3
-0.17884 0.236223 0.480363 1.245e-38 3
-0.171164 0.236223 0.480363 1.40166e-38 3
-0.163488 0.236223 0.480363 1.49378e-38 3
-0.155812 0.236223 0.480363 1.503e-38 3
-0.149051 0.237681 0.483328 1.4662e-38 3
-0.141327 0.237681 0.483328 1.32787e-38 3
-0.133604 0.237681 0.483328 1.37393e-38 3
-0.125109 0.236223 0.480363 1.35553e-38 3
-0.117433 0.236223 0.480363 1.25404e-38 3
-0.11112 0.239157 0.48633 1.35545e-38 3
-0.103349 0.239157 0.48633 1.38311e-38 3
-0.0946958 0.236949 0.481841 1.36467e-38 3
-0.0862006 0.234782 0.477434 1.36464e-38 3
-0.0785716 0.234782 0.477434 1.40152e-38 3
-0.0727161 0.240652 0.48937 1.41077e-38 3
-0.0665603 0.246822 0.501918 1.37389e-38 3
-0.0612903 0.258418 0.525498 1.23553e-38 3
-0.0256824 0.343788 0.6991 1.51219e-38 3
-0.0112866 0.267391 0.543745 1.5307e-38 3
-0.00259798 0.267391 0.543745 1.47549e-38 3
0.00604865 0.265547 0.539995 1.55847e-38 3
0.0146774 0.265547 0.539995 1.55836e-38 3
0.022989 0.261934 0.532648 1.6136e-38 3
0.0310775 0.258418 0.525498 1.55818e-38 3
0.0389517 0.254995 0.518538 1.45676e-38 3
0.0466201 0.251662 0.51176 1.53974e-38 3
0.0540905 0.248415 0.505156 1.53045e-38 3
0.0617641 0.246822 0.501918 1.44747e-38 3
0.068901 0.243698 0.495565 1.48442e-38 3
0.0768197 0.243698 0.495565 1.43832e-38 3
0.0836793 0.240652 0.48937 1.48453e-38 3
0.091499 0.240652 0.48937 1.44765e-38 3
0.0987019 0.239157 0.48633 1.39233e-38 3
0.106473 0.239157 0.48633 1.42921e-38 3
0.112154 0.234782 0.477434 1.55818e-38 3
0.12015 0.2355 0.478894 1.67803e-38 3
0.130598 0.240652 0.48937 1.55814e-38 3
0.134631 0.234069 0.475983 1.55793e-38 3
0.147157 0.242165 0.492448 1.33633e-38 3
0.154057 0.240652 0.48937 2.16626e-38 3
0.161877 0.240652 0.48937 2.2219e-38 3
0.169697 0.240652 0.48937 2.24044e-38 3
0.183243 0.248415 0.505156 2.24044e-38 5
0.191315 0.248415 0.505156 2.24962e-38 5
0.195601 0.243698 0.495565 2.2404e-38 5
0.202878 0.242929 0.494001 2.25888e-38 5
0.210109 0.242165 0.492448 2.25891e-38 5
0.215941 0.239902 0.487846 2.23126e-38 5
0.224435 0.240652 0.48937 2.22204e-38 5
0.238976 0.247616 0.503532 2.24047e-38 5
0.250241 0.250842 0.510093 2.23122e-38 5
0.264421 0.256695 0.521995 2.24962e-38 5
0.272762 0.256695 0.521995 2.24044e-38 5
0.279241 0.254995 0.518538 2.25877e-38 5
0.287527 0.254995 0.518538 2.26792e-38 5
0.372306 0.268323 0.545639 2.18372e-38 5
0.36696 0.258418 0.525498 2.12815e-38 5
0.514497 0.331933 0.674993 2.1368e-38 5
0.525283 0.331933 0.674993 2.08137e-38 5
0.536069 0.331933 0.674993 2.11818e-38 5
0.464349 0.271157 0.551403 2.04428e-38 5
0.462431 0.260164 0.529049 2.06272e-38 5
0.46153 0.254995 0.518538 1.989e-38 5
0.462164 0.250842 0.510093 1.96145e-38 5
0.470315 0.250842 0.510093 1.89713e-38 3
-0.351799 0.213739 0.420963 8.57419e-39 3
-0.345072 0.213739 0.420963 7.37673e-39 3
-0.340174 0.214894 0.423239 9.03697e-39 3
-0.335223 0.216062 0.425539 9.03589e-39 3
-0.332033 0.218437 0.430215 8.20613e-39 3
-0.345066 0.23181 0.456555 8.02246e-39 3
-0.33777 0.23181 0.456555 9.49759e-39 3
-0.327609 0.2298 0.452597 1.14341e-38 3
-0.313137 0.224607 0.442368 7.83842e-39 3
-0.273819 0.227174 0.447424 1.17106e-38 3
-0.263656 0.224607 0.442368 1.07887e-38 3
-0.256587 0.224607 0.442368 8.66854e-39 3
-0.248117 0.223345 0.439883 9.58906e-39 3
-0.241088 0.223345 0.439883 1.11564e-38 3
-0.234059 0.223345 0.439883 1.24464e-38 3
-0.22703 0.223345 0.439883 1.15245e-38 3
-0.221244 0.224607 0.442368 1.12486e-38 3
-0.214175 0.224607 0.442368 1.17096e-38 3
-0.208283 0.225883 0.444882 1.18939e-38 3
-0.203487 0.22848 0.449995 1.32772e-38 3
-0.204524 0.238057 0.468858 1.27237e-38 3
-0.19942 0.240942 0.474541 1.34624e-38 3
-0.193007 0.242411 0.477434 1.25422e-38 3
-0.186515 0.243898 0.480363 1.10678e-38 3
-0.177749 0.242411 0.477434 1.50318e-38 3
-0.16807 0.239491 0.471682 1.46627e-38 3
-0.160533 0.239491 0.471682 1.30024e-38 3
-0.15028 0.235239 0.463309 1.22649e-38 3
-0.142036 0.233856 0.460584 1.27266e-38 3
-0.134677 0.233856 0.460584 1.1528e-38 3
-0.128833 0.23664 0.466067 1.20798e-38 3
-0.122848 0.239491 0.471682 1.32787e-38 3
-0.115311 0.239491 0.471682 1.19879e-38 3
-0.109757 0.243898 0.480363 1.29099e-38 3
-0.103349 0.246928 0.48633 1.24489e-38 3
-0.0961754 0.248472 0.48937 1.39237e-38 3
-0.0883556 0.248472 0.48937 1.3278e-38 3
-0.0805359 0.248472 0.48937 1.3278e-38 3
-0.0727161 0.248472 0.48937 1.42925e-38 3
-0.1023 0.391679 0.771421 1.43847e-38 3
-0.0890951 0.387858 0.763895 1.44769e-38 3
-0.0256824 0.354959 0.6991 1.50297e-38 3
-0.013432 0.328557 0.647101 1.44772e-38 3
-0.00277118 0.294485 0.579994 1.45705e-38 3
0.00626467 0.283967 0.55928 1.34642e-38 3
0.0149874 0.279968 0.551403 1.37407e-38 3
0.023632 0.27801 0.547547 1.3924e-38 3
0.031716 0.272298 0.536296 1.38311e-38 3
0.0394745 0.266815 0.525498 1.55818e-38 3
0.0460185 0.256487 0.505156 1.60428e-38 3
0.0537438 0.254843 0.501918 1.70562e-38 3
0.0609822 0.251617 0.495565 1.66874e-38 3
0.0680397 0.248472 0.48937 1.48442e-38 3
0.0758595 0.248472 0.48937 1.5674e-38 3
0.0831595 0.246928 0.48633 1.52141e-38 3
0.0903694 0.245404 0.483328 1.36467e-38 3
0.0980926 0.245404 0.483328 1.41999e-38 3
0.104525 0.242411 0.477434 1.39233e-38 3
0.112154 0.242411 0.477434 1.49364e-38 3
0.12015 0.243153 0.478894 1.45676e-38 3
0.128986 0.245404 0.483328 1.44744e-38 3
0.136709 0.245404 0.483328 1.41027e-38 3
0.143546 0.243898 0.480363 1.56671e-38 3
0.151222 0.243898 0.480363 2.29558e-38 3
0.156972 0.240942 0.474541 2.27725e-38 3
0.164554 0.240942 0.474541 2.29565e-38 5
0.172137 0.240942 0.474541 2.26799e-38 5
0.17972 0.240942 0.474541 2.24959e-38 5
0.189601 0.243898 0.480363 2.29576e-38 5
0.196074 0.242411 0.477434 2.24044e-38 5
0.203703 0.242411 0.477434 2.21282e-38 5
0.211332 0.242411 0.477434 2.27728e-38 5
0.218961 0.242411 0.477434 2.29576e-38 5
0.232983 0.24925 0.490904 2.24044e-38 5
0.24623 0.254843 0.501918 2.26806e-38 5
0.260086 0.260691 0.513437 2.2404e-38 5
0.269173 0.261549 0.515126 2.24044e-38 5
0.275591 0.25984 0.51176 2.25877e-38 5
0.293462 0.240942 0.474541 2.20306e-38 5
0.369729 0.275124 0.541863 2.21152e-38 5
0.455538 0.279968 0.551403 2.09048e-38 5
0.460874 0.267713 0.527267 2.08105e-38 5
0.452539 0.258152 0.508436 2.05336e-38 5
0.45622 0.255662 0.503532 2.04414e-38 5
0.464266 0.255662 0.503532 1.98907e-38 5
0.470798 0.254843 0.501918 1.96141e-38 5
0.477289 0.254028 0.500314 1.90617e-38 5
-0.350856 0.219875 0.419835 7.83663e-39 3
-0.345072 0.220466 0.420963 7.28525e-39 3
-0.339257 0.22106 0.422098 8.02281e-39 3
-0.333411 0.221657 0.423239 7.46964e-39 3
-0.330218 0.22408 0.427865 8.94369e-39 3
-0.327609 0.237032 0.452597 8.94513e-39 3
-0.263287 0.225311 0.430215 1.19872e-38 3
-0.255012 0.22408 0.427865 1.20783e-38 3
-0.249538 0.225311 0.430215 9.31247e-39 3
-0.241338 0.22408 0.427865 1.00497e-38 3
-0.235789 0.225311 0.430215 1.29081e-38 3
-0.228915 0.225311 0.430215 1.12486e-38 3
-0.22204 0.225311 0.430215 1.14323e-38 3
-0.208854 0.218702 0.417596 1.20783e-38 3
-0.214175 0.231676 0.442368 1.20783e-38 3
-0.197085 0.220466 0.420963 1.11564e-38 3
-0.188333 0.21812 0.416485 1.20783e-38 3
-0.181678 0.21812 0.416485 1.18028e-38 3
-0.175023 0.21812 0.416485 1.22645e-38 3
-0.191837 0.248525 0.474541 1.245e-38 3
-0.184255 0.248525 0.474541 1.31883e-38 3
-0.169482 0.238411 0.455228 1.38322e-38 3
-0.158521 0.232992 0.444882 1.2911e-38 3
-0.148874 0.229087 0.437426 1.33727e-38 3
-0.141885 0.229087 0.437426 1.36489e-38 3
-0.133404 0.226556 0.432592 1.31876e-38 3
-0.125452 0.224694 0.429037 1.26344e-38 3
-0.116365 0.220466 0.420963 1.45691e-38 3
-0.108472 0.21812 0.416485 1.37389e-38 3
-0.101278 0.216966 0.414282 1.20794e-38 3
-0.0946581 0.216966 0.414282 1.29092e-38 3
-0.102081 0.251574 0.480363 1.3278e-38 3
-0.0967803 0.257903 0.492448 1.28177e-38 3
-0.0889113 0.257903 0.492448 1.27252e-38 3
-0.0810424 0.257903 0.492448 1.34624e-38 3
-0.115194 0.406006 0.77524 1.32787e-38 3
-0.103318 0.408026 0.779097 1.33705e-38 3
-0.0895318 0.402026 0.767639 1.49364e-38 3
-0.0410473 0.213576 0.407808 1.37375e-38 3
-0.0371856 0.369429 0.705398 1.39223e-38 3
-0.0256824 0.36613 0.6991 1.47517e-38 3
-0.014011 0.353505 0.674993 1.46609e-38 3
-0.00301701 0.330698 0.631445 1.68743e-38 3
0.00679887 0.317881 0.606971 1.44772e-38 3
0.0163709 0.315435 0.602302 1.41084e-38 3
0.0252193 0.30602 0.584322 1.55829e-38 3
0.0328407 0.290827 0.555314 1.48453e-38 3
0.0402857 0.280867 0.536296 1.50297e-38 3
0.0472375 0.271567 0.518538 1.49364e-38 3
0.0537438 0.262863 0.501918 1.76101e-38 3
0.0609822 0.259536 0.495565 1.64108e-38 3
0.0676171 0.254699 0.48633 1.65034e-38 3
0.074923 0.253127 0.483328 1.54892e-38 3
0.0811435 0.248525 0.474541 1.46602e-38 3
0.0887263 0.248525 0.474541 1.34624e-38 3
0.0963091 0.248525 0.474541 1.44765e-38 3
0.104525 0.25004 0.477434 1.50297e-38 3
0.111475 0.248525 0.474541 1.41999e-38 3
0.119058 0.248525 0.474541 1.3278e-38 3
0.125124 0.245549 0.468858 1.34609e-38 3
0.131826 0.244087 0.466067 1.33633e-38 3
0.135248 0.237032 0.452597 1.94485e-38 3
0.141662 0.23567 0.449995 2.26796e-38 3
0.148852 0.23567 0.449995 2.29566e-38 5
0.156945 0.237032 0.452597 2.29569e-38 5
0.164653 0.237719 0.453908 2.28647e-38 5
0.171906 0.237719 0.453908 2.2681e-38 5
0.18506 0.245549 0.468858 2.26799e-38 5
0.194297 0.247774 0.473107 2.28647e-38 5
0.201857 0.247774 0.473107 2.28647e-38 5
0.210051 0.248525 0.474541 2.29569e-38 5
0.218296 0.24928 0.475983 2.28647e-38 5
0.22798 0.251574 0.480363 2.29565e-38 5
0.238583 0.254699 0.48633 2.30487e-38 5
0.244834 0.253127 0.483328 2.2497e-38 5
0.241636 0.234995 0.448706 2.24959e-38 5
0.277471 0.241215 0.460584 2.2771e-38 5
0.283996 0.240508 0.459233 2.29539e-38 5
0.29392 0.242643 0.463309 2.28603e-38 5
0.3349 0.245549 0.468858 2.19283e-38 5
0.342391 0.245549 0.468858 2.17414e-38 5
0.357379 0.23567 0.449995 2.1368e-38 5
0.359406 0.232332 0.443622 2.11829e-38 5
0.443389 0.256291 0.48937 2.0258e-38 5
0.449803 0.255493 0.487846 2.03506e-38 5
0.463948 0.254699 0.48633 1.95223e-38 5
0.482487 0.256291 0.48937 1.90617e-38 5
-0.349918 0.225977 0.418712 7.56004e-39 3
-0.344147 0.226583 0.419835 7.37637e-39 3
-0.338345 0.227192 0.420963 7.19198e-39 3
-0.332513 0.227805 0.422098 7.9299e-39 3
-0.256248 0.225977 0.418712 1.24482e-38 3
-0.249557 0.225977 0.418712 1.18939e-38 3
-0.244172 0.227192 0.420963 1.1433e-38 3
-0.238729 0.22842 0.423239 1.06954e-38 3
-0.23134 0.227805 0.422098 1.07876e-38 3
-0.219276 0.222409 0.412101 1.15252e-38 3
-0.212691 0.222409 0.412101 1.15245e-38 3
-0.203429 0.219521 0.406749 1.25386e-38 3
-0.203812 0.227192 0.420963 1.08791e-38 3
-0.193957 0.223586 0.414282 9.58834e-39 3
-0.185375 0.221245 0.409943 9.12736e-39 3
-0.176972 0.218952 0.405695 1.1433e-38 3
-0.171377 0.220093 0.407808 1.14341e-38 3
-0.16486 0.220093 0.407808 1.30943e-38 3
-0.158344 0.220093 0.407808 1.30957e-38 3
-0.152622 0.221245 0.409943 1.39255e-38 3
-0.147617 0.223586 0.414282 1.37415e-38 3
-0.140997 0.223586 0.414282 1.5401e-38 3
-0.13993 0.232825 0.431401 1.44787e-38 3
-0.132308 0.231549 0.429037 1.47549e-38 3
-0.12443 0.229662 0.425539 1.48471e-38 3
-0.111566 0.217824 0.403604 1.4385e-38 3
-0.104847 0.217264 0.402567 1.34631e-38 3
-0.0996956 0.220093 0.407808 1.28181e-38 3
-0.0894519 0.211289 0.391496 1.35556e-38 3
-0.0815648 0.207146 0.38382 1.18957e-38 3
-0.0761785 0.209197 0.38762 1.33702e-38 3
-0.0696399 0.208166 0.38571 1.31858e-38 3
-0.0628572 0.206135 0.381947 1.33702e-38 3
-0.0573132 0.208166 0.38571 1.29099e-38 3
-0.0529766 0.215601 0.399486 1.39237e-38 3
-0.0461225 0.213423 0.395451 1.51215e-38 3
-0.0398035 0.213423 0.395451 1.49364e-38 3
-0.0643682 0.41027 0.760186 1.5674e-38 3
-0.0527329 0.414292 0.767639 1.6503e-38 3
-0.0371856 0.380701 0.705398 1.71491e-38 3
-0.0256824 0.377302 0.6991 1.45687e-38 3
-0.014011 0.364291 0.674993 1.63211e-38 3
-0.00311757 0.352148 0.652493 1.73364e-38 3
0.00707302 0.340789 0.631445 1.46616e-38 3
0.0168906 0.335379 0.621422 1.4846e-38 3
0.0259952 0.32506 0.602302 1.44765e-38 3
0.0345563 0.315357 0.584322 1.54907e-38 3
0.0420122 0.301841 0.55928 1.54907e-38 3
0.0472375 0.279853 0.518538 1.57672e-38 3
0.06022 0.264111 0.48937 1.45676e-38 3
0.0663802 0.257669 0.477434 1.34609e-38 3
0.0735607 0.256108 0.474541 1.24468e-38 3
0.0778412 0.245685 0.455228 1.38304e-38 3
0.0856131 0.247121 0.45789 1.50297e-38 3
0.0940296 0.250046 0.463309 1.52141e-38 3
0.101433 0.250046 0.463309 1.52141e-38 3
0.108836 0.250046 0.463309 1.37389e-38 3
0.115556 0.248575 0.460584 1.43843e-38 3
0.121486 0.245685 0.455228 1.48438e-38 3
0.126553 0.241473 0.447424 1.43782e-38 3
0.132943 0.240101 0.444882 2.18474e-38 3
0.139261 0.238745 0.442368 2.34175e-38 3
0.146329 0.238745 0.442368 2.27729e-38 5
0.15427 0.240101 0.444882 2.28651e-38 5
0.162301 0.241473 0.447424 2.27725e-38 5
0.168487 0.240101 0.444882 2.27722e-38 5
0.177106 0.242165 0.448706 2.29562e-38 5
0.190838 0.250788 0.464684 2.31406e-38 5
0.195937 0.247846 0.459233 2.29569e-38 5
0.202681 0.247121 0.45789 2.28647e-38 5
0.208777 0.245685 0.455228 2.26807e-38 5
0.217314 0.247121 0.45789 2.27725e-38 5
0.237552 0.238072 0.441122 2.2864e-38 5
0.248095 0.241473 0.447424 2.2404e-38 5
0.259696 0.245685 0.455228 2.2404e-38 5
0.26697 0.245685 0.455228 2.25873e-38 5
0.275044 0.246401 0.456555 2.25884e-38 5
0.28234 0.246401 0.456555 2.2587e-38 5
0.289635 0.246401 0.456555 2.31383e-38 5
0.297799 0.247121 0.45789 2.30447e-38 5
0.302462 0.244973 0.453908 2.28593e-38 5
0.30882 0.244265 0.452597 2.20281e-38 5
0.316052 0.244265 0.452597 2.23965e-38 5
0.320506 0.242165 0.448706 2.23912e-38 5
0.329564 0.243561 0.451292 2.3307e-38 5
0.337749 0.244265 0.452597 2.34892e-38 5
0.344981 0.244265 0.452597 2.34917e-38 5
0.352213 0.244265 0.452597 2.20155e-38 5
0.355337 0.241473 0.447424 2.19219e-38 5
0.360427 0.240101 0.444882 2.10917e-38 5
0.400803 0.238745 0.442368 2.08112e-38 5
0.404444 0.236738 0.438651 2.06272e-38 5
-0.348984 0.232048 0.417596 8.7593e-39 3
-0.342312 0.232048 0.417596 7.92882e-39 3
-0.337438 0.233292 0.419835 8.85078e-39 3
-0.33073 0.233292 0.419835 7.46856e-39 3
-0.257625 0.233919 0.420963 1.17106e-38 3
-0.249557 0.232668 0.418712 1.15255e-38 3
-0.242866 0.232668 0.418712 1.18939e-38 3
-0.228833 0.225435 0.405695 9.95784e-39 3
-0.221204 0.224273 0.403604 1.0511e-38 3
-0.213107 0.222552 0.400507 1.35535e-38 3
-0.204614 0.220298 0.396452 1.3645e-38 3
-0.186285 0.213803 0.384763 1.18932e-38 3
-0.179256 0.212758 0.382881 9.03517e-39 3
-0.183454 0.225435 0.405695 9.58835e-39 3
-0.173378 0.220858 0.397458 1.24471e-38 3
-0.167879 0.221984 0.399486 1.30014e-38 3
-0.161496 0.221984 0.399486 1.28177e-38 3
-0.155908 0.223123 0.401534 1.27269e-38 3
-0.150262 0.224273 0.403604 1.38333e-38 3
-0.143813 0.224273 0.403604 1.4479e-38 3
-0.137364 0.224273 0.403604 1.34656e-38 3
-0.138783 0.237754 0.427865 1.29117e-38 3
-0.131229 0.236462 0.425539 1.41088e-38 3
-0.123092 0.233919 0.420963 1.35549e-38 3
-0.111566 0.224273 0.403604 1.30021e-38 3
-0.104847 0.223696 0.402567 1.31868e-38 3
-0.0979107 0.222552 0.400507 1.26351e-38 3
-0.086427 0.210188 0.378257 1.1805e-38 3
-0.0803827 0.210188 0.378257 1.30943e-38 3
-0.0761785 0.215391 0.38762 1.39233e-38 3
-0.0696399 0.21433 0.38571 1.42921e-38 3
-0.0630109 0.212758 0.382881 1.24482e-38 3
-0.0573132 0.21433 0.38571 1.31865e-38 3
-0.0519171 0.217545 0.391496 1.30021e-38 3
-0.0456612 0.217545 0.391496 1.48449e-38 3
-0.0386328 0.213279 0.38382 1.54903e-38 3
-0.0324996 0.213279 0.38382 1.69654e-38 3
-0.0529927 0.428659 0.771421 1.50286e-38 3
-0.0375236 0.395536 0.711811 1.6413e-38 3
-0.0145114 0.388473 0.6991 1.56758e-38 3
-0.00325312 0.378339 0.680863 1.48471e-38 3
0.00730879 0.362575 0.652493 1.54914e-38 3
0.017163 0.350879 0.631445 1.55836e-38 3
0.0259952 0.334684 0.602302 1.53985e-38 3
0.0345563 0.324694 0.584322 1.40155e-38 3
0.0417142 0.308574 0.555314 1.53992e-38 3
0.0697559 0.250051 0.449995 1.56736e-38 3
0.0765068 0.248623 0.447424 1.59509e-38 3
0.0851154 0.252959 0.455228 1.55825e-38 3
0.0923896 0.252959 0.455228 1.46609e-38 3
0.100247 0.254438 0.45789 1.49375e-38 3
0.106938 0.252959 0.455228 1.51219e-38 3
0.113552 0.251497 0.452597 1.46609e-38 3
0.118725 0.24721 0.444882 1.49364e-38 3
0.125123 0.245813 0.442368 1.4931e-38 3
0.132192 0.245813 0.442368 2.34158e-38 3
0.138478 0.244432 0.439883 2.30495e-38 5
0.145507 0.244432 0.439883 2.29569e-38 5
0.152536 0.244432 0.439883 2.29576e-38 5
0.158674 0.243067 0.437426 2.26814e-38 5
0.163382 0.239719 0.431401 2.28658e-38 5
0.169807 0.23906 0.430215 2.28658e-38 5
0.193106 0.251497 0.452597 2.26811e-38 5
0.197484 0.247914 0.446149 2.2681e-38 5
0.204032 0.24721 0.444882 2.28662e-38 5
0.237552 0.245121 0.441122 2.28651e-38 5
0.247388 0.247914 0.446149 2.27732e-38 5
0.258943 0.252226 0.453908 2.23133e-38 5
0.266197 0.252226 0.453908 2.23129e-38 5
0.274245 0.252959 0.455228 2.22211e-38 5
0.281519 0.252959 0.455228 2.25877e-38 5
0.288793 0.252959 0.455228 2.28614e-38 5
0.301588 0.251497 0.452597 1.21579e-38 5
0.307045 0.250051 0.449995 9.57792e-39 5
0.314236 0.250051 0.449995 8.47229e-39 5
0.317774 0.24721 0.444882 8.37972e-39 5
0.326739 0.248623 0.447424 1.18698e-38 5
0.342016 0.249335 0.448706 1.85011e-38 5
0.349185 0.249335 0.448706 1.82302e-38 5
0.353318 0.24721 0.444882 1.98911e-38 5
0.356378 0.244432 0.439883 2.08134e-38 5
0.357383 0.240381 0.432592 2.2747e-38 5
0.361301 0.238405 0.429037 2.23757e-38 5
0.383972 0.239719 0.431401 2.08123e-38 5
0.393031 0.241047 0.433791 2.07194e-38 5
0.401074 0.241716 0.434996 2.06272e-38 5
0.518073 0.26611 0.478894 1.7955e-38 5
