# .PCD v0.7 - Point Cloud Data file format
VERSION 0.7
FIELDS x y z rgb label
SIZE 4 4 4 4 4
TYPE F F F U U
COUNT 1 1 1 1 1
WIDTH 1467
HEIGHT 1
VIEWPOINT 0 0 0 1 0 0 0
POINTS 1467
DATA ascii
0.426879 0.306208 0.660097 5592407 3
0.440009 0.307811 0.663553 5000270 3
0.450903 0.307811 0.663553 5723993 3
0.430508 0.319742 0.665709 6052445 3
0.443769 0.321430 0.669224 5921370 3
0.451487 0.338199 0.680863 5394515 3
0.102185 0.248439 0.599186 7697783 3
0.101184 0.255747 0.593317 8289920 3
0.111295 0.256597 0.595290 7697783 3
0.120639 0.255686 0.593176 7631990 3
0.130040 0.255023 0.591637 7763576 3
0.139655 0.254842 0.591218 8026748 3
0.151329 0.258198 0.599004 8158334 3
0.110873 0.265363 0.593036 8224125 3
0.120184 0.264424 0.590937 8026746 3
0.129551 0.263740 0.589410 7829367 3
0.139130 0.263554 0.588995 9079947 3
0.150001 0.265681 0.593746 8750728 3
0.053066 0.248774 0.599994 7895158 3
0.051874 0.252813 0.586511 8289918 3
0.061999 0.254849 0.591234 9078921 3
0.072596 0.258010 0.598568 8749958 3
0.082188 0.257273 0.596857 9078923 3
0.091747 0.256597 0.595290 7763063 3
0.050491 0.255448 0.570878 8421502 3
0.059988 0.255975 0.572056 8092539 3
0.059988 0.265368 0.572056 8947848 3
-0.191021 0.236207 0.593176 8421245 3
-0.182233 0.237447 0.596289 7960694 3
-0.172935 0.238125 0.597991 7697268 3
-0.190300 0.245019 0.590937 7631729 3
-0.181068 0.245657 0.592476 7105385 3
-0.171624 0.246064 0.593459 7828854 3
-0.163077 0.247883 0.597847 7499889 3
-0.197672 0.251753 0.584052 8684674 3
-0.186302 0.249370 0.578523 8026487 3
-0.178000 0.251057 0.582438 7894901 3
-0.169695 0.252932 0.586788 8092026 3
-0.161269 0.254842 0.591218 7828854 3
-0.152715 0.256781 0.595716 7565936 3
-0.143960 0.258625 0.599994 8091512 3
-0.134108 0.258625 0.599994 8551552 3
-0.124228 0.258563 0.599851 9011079 3
-0.113671 0.256964 0.596141 8617345 3
-0.103735 0.256597 0.595290 8419962 3
-0.182882 0.254116 0.567902 8026487 3
-0.172932 0.253200 0.565855 8289405 3
-0.166041 0.256914 0.574154 7697268 3
-0.158795 0.260492 0.582150 7763063 3
-0.120115 0.259527 0.579994 8155770 3
-0.112320 0.263582 0.589057 8813952 3
-0.103074 0.264675 0.591498 8156790 3
0.510119 0.261348 0.684536 4210500 3
0.513718 0.268593 0.674503 5131856 3
0.542426 0.277617 0.697167 4210754 3
0.532935 0.284006 0.684969 4802637 3
0.552364 0.288276 0.695267 3881278 3
0.542725 0.294462 0.683135 4539466 3
0.520842 0.293354 0.655591 4670539 3
0.416301 0.266036 0.696815 5263699 3
0.425347 0.264547 0.692913 5790043 3
0.459864 0.264769 0.693496 5987422 3
0.486537 0.266909 0.699100 5461078 3
0.487641 0.261348 0.684536 4671562 3
0.481318 0.252148 0.660438 4934223 3
0.409020 0.272624 0.684628 6316387 3
0.417950 0.271125 0.680863 5329492 3
0.431717 0.272760 0.684969 5197906 3
0.445515 0.274331 0.688915 5263699 3
0.457708 0.274861 0.690244 5461078 3
0.472559 0.276922 0.695421 5197906 3
0.477742 0.273354 0.686462 5263699 3
0.483581 0.270318 0.678836 4474183 3
0.478019 0.261189 0.655912 4868430 3
0.472461 0.252464 0.634002 5328981 3
0.423291 0.278464 0.671601 5395028 3
0.439712 0.281922 0.679942 5723993 3
0.454210 0.284006 0.684969 5132113 3
0.463809 0.283001 0.682545 4474183 3
0.471667 0.281006 0.677733 5526871 3
0.480586 0.279721 0.674633 5263699 3
0.474481 0.269945 0.651056 5000016 3
0.466792 0.259720 0.626394 4868430 3
0.479669 0.261131 0.629798 4671051 3
0.418490 0.286207 0.663983 5921370 3
0.439712 0.293086 0.679942 5592405 3
0.448811 0.291744 0.676827 6053215 3
0.457268 0.290059 0.672918 5461078 3
0.445987 0.276229 0.640834 5263699 3
0.443788 0.268531 0.622976 5329492 3
0.452772 0.267795 0.621269 4934223 3
0.457430 0.264589 0.613831 5065809 3
0.462734 0.261887 0.607562 5131603 3
0.473848 0.262518 0.609025 4144708 3
0.407103 0.289025 0.645916 5395026 3
0.426879 0.295370 0.660097 5197647 3
0.440009 0.296916 0.663553 5197649 3
0.439770 0.289585 0.647169 5395285 3
0.430557 0.276830 0.618663 5066574 3
0.437473 0.274793 0.614111 5132881 3
0.447556 0.274793 0.614111 5460567 3
0.453763 0.272466 0.608910 5000016 3
0.458618 0.269444 0.602157 4210500 3
0.447447 0.284807 0.613962 5065809 3
0.453205 0.282116 0.608161 4407879 3
0.457519 0.278662 0.600715 4605258 3
0.447447 0.294887 0.613962 5526360 3
0.453205 0.292101 0.608161 4671051 3
0.457519 0.288525 0.600715 5131856 3
0.105328 0.260919 0.683412 8749958 3
0.197430 0.264041 0.691588 6974056 3
0.176267 0.277836 0.697715 7763574 3
0.182069 0.269468 0.676702 7368814 3
0.188948 0.263565 0.661877 7303023 3
0.196165 0.258750 0.649786 7105131 3
0.169639 0.261422 0.630501 7500402 3
0.179537 0.260763 0.628909 7895160 3
0.189863 0.260763 0.628909 7368818 3
0.163469 0.261890 0.607568 7829367 3
0.176481 0.266475 0.618205 8158334 3
0.185853 0.265364 0.615628 7895162 3
0.195478 0.264710 0.614111 7302771 3
0.162130 0.269639 0.602593 8421506 3
0.173274 0.271598 0.606971 8553092 3
0.182753 0.270877 0.605359 7960955 3
0.192459 0.270549 0.604627 7500661 3
0.004359 0.262122 0.686562 8289405 3
0.015553 0.260798 0.683094 7960953 3
0.027102 0.264044 0.691597 8158330 3
0.094275 0.261384 0.684628 8486786 3
0.004249 0.266490 0.669224 8157819 3
0.015237 0.266490 0.669224 7960953 3
0.026317 0.267421 0.671562 8026744 3
0.037590 0.269184 0.675989 8618624 3
0.045549 0.251827 0.632401 8158330 3
0.054704 0.246297 0.618513 7960951 3
0.064162 0.243648 0.611863 8355452 3
0.074481 0.244544 0.614111 8223612 3
0.084922 0.245577 0.616706 8289407 3
0.004109 0.268305 0.647101 8486784 3
0.014681 0.267343 0.644779 8421504 3
0.024915 0.263614 0.635786 8421502 3
0.034684 0.258621 0.623743 8487038 3
0.044333 0.255209 0.615514 9013639 3
0.063267 0.250155 0.603326 8552577 3
0.073615 0.251666 0.606971 7828854 3
0.083359 0.250998 0.605359 8815751 3
0.092673 0.249315 0.601299 8223614 3
0.615864 0.289210 0.791555 4473924 3
0.607177 0.280205 0.733926 4012095 3
0.613477 0.277602 0.727110 3946818 3
0.612007 0.271651 0.711522 3223095 3
0.618322 0.269313 0.705398 3815745 3
0.611690 0.288698 0.724993 4078917 3
0.612007 0.283333 0.711522 3552573 3
0.614527 0.279171 0.701068 3092020 3
-0.041178 0.253601 0.694094 8486270 3
-0.099020 0.239513 0.627343 8815235 3
-0.089150 0.240673 0.630383 9209741 3
-0.082034 0.250554 0.656263 8946569 3
-0.069656 0.244915 0.641494 8617602 3
-0.059188 0.245183 0.642196 8881028 3
-0.050504 0.254560 0.666756 8552063 3
-0.039928 0.256950 0.673017 8420475 3
-0.029470 0.262226 0.686835 8354682 3
-0.018416 0.265445 0.695267 9013382 3
-0.007039 0.266909 0.699100 8092026 3
-0.098233 0.247827 0.622357 8815235 3
-0.087992 0.247763 0.622196 8946569 3
-0.077679 0.247455 0.621422 8420223 3
-0.067476 0.247455 0.621422 8551809 3
-0.057632 0.249006 0.625316 8946821 3
-0.048845 0.256786 0.644853 8749442 3
-0.038660 0.259491 0.651647 8486268 3
-0.006685 0.264373 0.663907 7960440 3
-0.096177 0.252646 0.609332 8420477 3
-0.086173 0.252646 0.609332 8551809 3
-0.076150 0.252584 0.609185 8288637 3
-0.065907 0.251666 0.606971 8222844 3
-0.056618 0.254712 0.614316 9078407 3
-0.048458 0.265258 0.639752 8815235 3
-0.038390 0.268305 0.647101 8025717 3
-0.006575 0.270755 0.653010 8158073 3
-0.292749 0.212800 0.582423 6776420 3
-0.286653 0.215405 0.589554 7631475 3
-0.277755 0.216013 0.591218 6908265 3
-0.269958 0.217553 0.595431 7104615 3
-0.260182 0.217553 0.595431 8485755 3
-0.251785 0.218751 0.598712 8946306 3
-0.295914 0.217657 0.570098 6118236 3
-0.286227 0.217409 0.569449 6513248 3
-0.279172 0.219211 0.574168 7171435 3
-0.274326 0.222933 0.583918 7566706 3
-0.266914 0.224765 0.588716 7500143 3
-0.258587 0.225936 0.591782 7039592 3
-0.250109 0.227060 0.594726 7828338 3
-0.240629 0.227329 0.595431 7499889 3
-0.230963 0.227438 0.595716 7895162 3
-0.222770 0.229071 0.599994 7434609 3
-0.292388 0.224312 0.563304 8026487 3
-0.283139 0.224312 0.563304 7236971 3
-0.274570 0.224869 0.564702 6710884 3
-0.266258 0.225682 0.566745 7500400 3
-0.260566 0.228857 0.574716 6315869 3
-0.254857 0.232252 0.583244 7434350 3
-0.248871 0.235652 0.591782 7236971 3
-0.239096 0.235594 0.591637 7368303 3
-0.229110 0.235316 0.590937 7960955 3
-0.219408 0.235316 0.590937 6974058 3
-0.209755 0.235372 0.591077 7631986 3
-0.200760 0.236207 0.593176 7631727 3
-0.290624 0.232152 0.559906 6776420 3
-0.281116 0.231893 0.559280 6447455 3
-0.271933 0.231893 0.559280 7763315 3
-0.262751 0.231893 0.559280 6315869 3
-0.254193 0.232464 0.560658 8223866 3
-0.246092 0.233512 0.563187 7500143 3
-0.241680 0.238279 0.574683 7170924 3
-0.234390 0.240481 0.579994 8026233 3
-0.225025 0.240650 0.580401 7828854 3
-0.217815 0.243240 0.586649 8092539 3
-0.209459 0.244731 0.590243 8026744 3
-0.200002 0.245019 0.590937 8224123 3
-0.290560 0.241292 0.559782 7500143 3
-0.280054 0.240164 0.557166 7894647 3
-0.269945 0.239313 0.555191 8354684 3
-0.259908 0.238467 0.553230 8157305 3
-0.249996 0.237680 0.551403 7828854 3
-0.242281 0.239000 0.554465 8026233 3
-0.236682 0.242593 0.562800 8157819 3
-0.206878 0.251287 0.582970 7829365 3
-0.288434 0.248650 0.555687 7434096 3
-0.277157 0.246733 0.551403 7039340 3
-0.495101 0.203868 0.584232 3090992 3
-0.457993 0.200227 0.573796 5920859 3
-0.460891 0.205725 0.589554 5197134 3
-0.458061 0.208848 0.598503 5657685 3
-0.479819 0.202940 0.555437 6249056 3
-0.472269 0.203617 0.557290 6709094 3
-0.463119 0.203617 0.557290 6710377 3
-0.454070 0.203662 0.557414 6118497 3
-0.446709 0.204482 0.559659 6184031 3
-0.443061 0.207072 0.566745 6117722 3
-0.441086 0.210572 0.576324 6907236 3
-0.441020 0.215155 0.588870 7236971 3
-0.436377 0.217663 0.595733 6579041 3
-0.403662 0.215860 0.590799 4802376 3
-0.471458 0.208364 0.545758 5722710 3
-0.464114 0.209093 0.547667 4867401 3
-0.456619 0.209781 0.549468 5394517 3
-0.447597 0.209781 0.549468 5394517 3
-0.438672 0.209827 0.549589 5987163 3
-0.433265 0.211593 0.554215 5920857 3
-0.426518 0.212767 0.557290 6776420 3
-0.417368 0.212767 0.557290 6118747 3
-0.409356 0.213360 0.558843 6053208 3
-0.416774 0.222207 0.582016 4868421 3
-0.405803 0.221435 0.579994 5131593 3
-0.465077 0.214384 0.538372 5196620 3
-0.459396 0.215868 0.542099 4868171 3
-0.455625 0.218326 0.548272 5394517 3
-0.445453 0.217754 0.546836 5657687 3
-0.435519 0.217278 0.545639 5921370 3
-0.429001 0.218521 0.548760 6381919 3
-0.426424 0.221868 0.557166 6118747 3
-0.415888 0.221130 0.555314 4934727 3
-0.407044 0.221279 0.555687 5000520 3
-0.404932 0.225178 0.565479 4539456 3
-0.458670 0.220148 0.530955 4933962 3
-0.452640 0.221463 0.534127 4276032 3
-0.449332 0.224188 0.540699 4933964 3
-0.439129 0.223514 0.539073 6250337 3
-0.425603 0.221086 0.533216 4868680 3
-0.418020 0.221707 0.534715 5395024 3
-0.418790 0.226880 0.547192 4737348 3
-0.403897 0.223609 0.539303 5526864 3
-0.445673 0.231168 0.536296 5855579 3
-0.435842 0.230626 0.535038 5000268 3
-0.409050 0.230379 0.534466 5263949 3
0.528597 0.265077 0.797149 4211011 3
0.508146 0.254786 0.730149 4934734 3
0.522096 0.274098 0.750193 4803402 3
0.546841 0.280472 0.767639 4802637 3
0.563253 0.282381 0.772865 4868431 3
0.577713 0.283249 0.775240 4736844 3
0.590441 0.283249 0.775240 3881789 3
0.539107 0.270245 0.707839 4079168 3
0.560871 0.275221 0.720873 4276545 3
0.583451 0.280385 0.734397 3683897 3
0.598975 0.282017 0.738672 4472645 3
0.562351 0.281867 0.707839 3881278 3
0.584543 0.287057 0.720873 4209473 3
0.599787 0.288698 0.724993 4077888 3
0.577614 0.295350 0.712328 3552058 3
0.279069 0.231763 0.696964 6052445 3
0.290027 0.231376 0.695800 6907756 3
0.268600 0.244092 0.699502 6315615 3
0.275999 0.240531 0.689299 8222844 3
0.283801 0.237588 0.680863 6512226 3
0.294980 0.237588 0.680863 6972266 3
0.279542 0.255082 0.698146 6841445 3
0.284188 0.249106 0.681792 5788246 3
0.294980 0.248767 0.680863 4011065 3
0.207350 0.262226 0.686835 7434096 3
0.216036 0.259118 0.678694 7499375 3
0.228666 0.260813 0.683135 7630707 3
0.243392 0.264630 0.693131 6973547 3
0.255825 0.265722 0.695993 6776168 3
0.267252 0.265722 0.695993 5328722 3
0.277605 0.264697 0.693308 5328722 3
0.285040 0.261081 0.683836 4406850 3
0.295382 0.260300 0.681792 4341057 3
0.204512 0.255846 0.642492 7564914 3
0.215188 0.255997 0.642872 7434098 3
0.237475 0.269300 0.676281 7434098 3
0.250263 0.271125 0.680863 6315617 3
0.261442 0.271125 0.680863 6512996 3
0.272475 0.270979 0.680496 6578789 3
0.281354 0.268788 0.674993 5459538 3
0.292437 0.268788 0.674993 5591124 3
0.200089 0.260633 0.628596 6512996 3
0.208837 0.258685 0.623898 7434098 3
0.217891 0.257279 0.620507 6644582 3
0.227858 0.257030 0.619906 7170926 3
0.251250 0.271298 0.654318 6973547 3
0.265482 0.274911 0.663032 6841191 3
0.273404 0.271962 0.655921 6841961 3
0.288476 0.276080 0.665851 6118238 3
0.295790 0.272743 0.657804 6315617 3
0.203379 0.261900 0.607591 7565684 3
0.212314 0.260622 0.604627 7894649 3
0.276585 0.286022 0.663553 7039340 3
-0.298915 0.211576 0.636258 8223612 3
-0.285496 0.209396 0.629702 7959924 3
-0.274055 0.208557 0.627180 8222583 3
-0.279175 0.220748 0.663841 7893618 3
-0.280221 0.230578 0.693401 7960440 3
-0.295463 0.219458 0.628909 8157819 3
-0.284282 0.218800 0.627024 7499373 3
-0.271139 0.216527 0.620507 7367274 3
-0.225066 0.243881 0.698897 7565682 3
-0.207179 0.236559 0.677915 7960440 3
-0.200260 0.241641 0.692480 7434096 3
-0.243405 0.220063 0.602302 7697268 3
-0.233629 0.220169 0.602593 7237230 3
-0.226627 0.223015 0.610381 7237230 3
-0.218091 0.224545 0.614568 7566193 3
-0.210320 0.227049 0.621422 7105642 3
-0.200117 0.227049 0.621422 7434350 3
-0.212970 0.229126 0.600138 8289659 3
-0.204390 0.230562 0.603900 7500141 3
0.211660 0.248680 0.786681 7564914 3
0.223664 0.247670 0.783486 7762293 3
0.245756 0.232087 0.734191 7302510 3
0.247009 0.222363 0.703430 7302510 3
0.259282 0.222985 0.705398 7565682 3
0.270864 0.222985 0.705398 7302764 3
0.282446 0.222985 0.705398 7039338 3
0.297737 0.225798 0.714297 6644584 3
0.205158 0.253561 0.762516 7170926 3
0.217146 0.252941 0.760652 7170924 3
0.234196 0.257965 0.775760 7235949 3
0.250096 0.261269 0.785697 7828086 3
0.243197 0.241600 0.726546 7894649 3
0.247009 0.233913 0.703430 7434096 3
0.258482 0.233844 0.703224 6973545 3
0.268822 0.232799 0.700080 7368557 3
0.203430 0.263840 0.756095 7302510 3
0.214092 0.261698 0.749957 7302510 3
0.231041 0.267056 0.765310 6775652 3
0.241841 0.265120 0.759763 7499121 3
0.241819 0.252092 0.722430 7697270 3
0.249598 0.248036 0.710804 6907754 3
0.259219 0.246090 0.705228 6776166 3
0.208050 0.266279 0.728792 7302764 3
0.221952 0.268621 0.735204 7104617 3
0.232393 0.266750 0.730082 7630448 3
0.238553 0.260389 0.712672 7433328 3
0.249598 0.259706 0.710804 7302512 3
0.259946 0.258391 0.707205 7302512 3
0.268822 0.255788 0.700080 7368303 3
0.105705 0.242661 0.767639 7499121 3
0.103270 0.249384 0.749957 7894133 3
0.114013 0.245996 0.739766 7696500 3
0.125164 0.244054 0.733926 8157051 3
0.135940 0.241787 0.727110 7828338 3
0.148050 0.242068 0.727955 7499375 3
0.164707 0.249186 0.749361 7170156 3
0.181329 0.255264 0.767639 7301742 3
0.193932 0.255264 0.767639 6709607 3
0.101716 0.257760 0.738672 6973545 3
0.113811 0.257684 0.738455 7302512 3
0.124979 0.255726 0.732842 7302512 3
0.135940 0.253726 0.727110 6842213 3
0.147621 0.253285 0.725848 7434096 3
0.164656 0.261408 0.749126 7105131 3
0.180444 0.266562 0.763895 7302512 3
0.192986 0.266562 0.763895 6381410 3
0.101209 0.268543 0.734989 8157819 3
0.112781 0.267366 0.731768 7697270 3
0.124001 0.265664 0.727110 6907754 3
0.134689 0.263220 0.720420 7434350 3
0.146222 0.262689 0.718968 7368557 3
0.161795 0.268954 0.736113 7170924 3
0.176938 0.273681 0.749052 7499889 3
0.188392 0.272459 0.745707 8026235 3
0.199161 0.270456 0.740226 6645093 3
0.123070 0.275519 0.721652 8947850 3
0.134072 0.273789 0.717121 7895162 3
0.145469 0.273081 0.715266 8026746 3
0.159918 0.277779 0.727572 7697781 3
0.172855 0.279381 0.731768 7368816 3
0.184226 0.278407 0.729218 7631988 3
0.194574 0.276102 0.723180 7171435 3
0.144562 0.283048 0.710804 8289918 3
0.157941 0.286143 0.718576 8092539 3
0.170466 0.287367 0.721652 7895160 3
0.004879 0.242898 0.768390 8288376 3
0.017785 0.246920 0.781115 7894131 3
0.057346 0.251684 0.796183 7763574 3
0.070306 0.251283 0.794916 7763574 3
0.083358 0.251283 0.794916 7499889 3
0.094422 0.246102 0.778527 7170926 3
0.004784 0.250518 0.753366 8091510 3
0.017330 0.253099 0.761127 8420475 3
0.030380 0.257792 0.775240 7434096 3
0.043122 0.257872 0.775481 7368816 3
0.056115 0.259074 0.779097 7829365 3
0.069144 0.259965 0.781775 7500402 3
0.082057 0.260209 0.782508 8157819 3
0.092994 0.254969 0.766751 7631477 3
0.004647 0.255351 0.731768 7565936 3
0.016676 0.255578 0.732419 8026487 3
0.029076 0.258905 0.741954 7434096 3
0.041087 0.257836 0.738891 7631988 3
0.053696 0.260145 0.745507 7631986 3
0.067688 0.267056 0.765310 7434607 3
0.080425 0.267626 0.766944 7434096 3
0.090798 0.261240 0.748644 7039338 3
0.004587 0.263944 0.722403 8092537 3
0.016216 0.260223 0.712219 7960951 3
0.028150 0.262460 0.718341 7895160 3
0.039968 0.262612 0.718757 8158332 3
0.052447 0.266053 0.728174 7631986 3
0.066073 0.272951 0.747055 7895158 3
0.078572 0.273762 0.749275 8092280 3
0.089964 0.271020 0.741768 7697268 3
0.039049 0.268105 0.702235 7829108 3
0.050652 0.268490 0.703242 8026998 3
0.064143 0.276886 0.725232 7960951 3
0.076136 0.277196 0.726047 8026487 3
0.087686 0.276029 0.722988 8355198 3
-0.164731 0.217031 0.686562 7632499 3
-0.152352 0.215467 0.681616 7697779 3
-0.143621 0.219223 0.693496 7566193 3
-0.179021 0.232218 0.698334 7763572 3
-0.162843 0.225687 0.678694 7171435 3
-0.150996 0.224640 0.675546 7895158 3
-0.190436 0.243619 0.698146 7236717 3
-0.173144 0.235684 0.675407 7763574 3
-0.155793 0.226579 0.649314 7237230 3
-0.142794 0.222929 0.638854 6973545 3
-0.131300 0.221235 0.634002 7236717 3
-0.129424 0.236853 0.678757 8025717 3
-0.189961 0.227105 0.621577 7368303 3
-0.180427 0.227954 0.623898 7828854 3
-0.170141 0.227897 0.623743 8157821 3
-0.159304 0.227049 0.621422 7960953 3
-0.149138 0.227105 0.621577 7894647 3
-0.139451 0.227954 0.623898 7105131 3
-0.129563 0.228580 0.625614 7630961 3
-0.119440 0.228865 0.626394 8617856 3
-0.109182 0.228923 0.626551 8815235 3
-0.100912 0.233591 0.639327 8157051 3
-0.194708 0.230840 0.604627 7631729 3
-0.185273 0.231455 0.606238 7368557 3
-0.175617 0.231848 0.607267 7763061 3
-0.166859 0.233545 0.611713 7499889 3
-0.157316 0.234291 0.613665 6579300 3
-0.148549 0.236373 0.619120 7960953 3
-0.139279 0.237902 0.623124 8289407 3
-0.129563 0.238852 0.625614 8091260 3
-0.119113 0.238495 0.624678 8288380 3
-0.108720 0.238197 0.623898 8683136 3
-0.164332 0.239899 0.602447 7828854 3
-0.155112 0.240944 0.605070 8158330 3
-0.146880 0.243769 0.612166 8486784 3
-0.138727 0.247150 0.620655 8814981 3
-0.129047 0.248133 0.623124 8682884 3
-0.118317 0.247091 0.620507 7893622 3
-0.107861 0.246477 0.618966 8288378 3
-0.153848 0.248833 0.600138 7829108 3
-0.144584 0.249851 0.602593 8026233 3
-0.136031 0.252340 0.608594 7959672 3
-0.126530 0.253324 0.610969 7432817 3
-0.116328 0.252954 0.610076 8025208 3
-0.106182 0.252646 0.609332 8354171 3
0.608067 0.261850 0.873724 3420984 3
0.626717 0.263660 0.879766 4210500 3
0.643881 0.264779 0.883498 3881789 3
0.668539 0.268861 0.897120 4079168 3
0.603390 0.274071 0.867004 4803151 3
0.617399 0.273971 0.866687 3223605 3
0.630535 0.273496 0.865185 3355445 3
0.652211 0.276665 0.875210 3684410 3
0.670051 0.278105 0.879766 2894894 3
0.608824 0.284198 0.854648 4342086 3
0.629452 0.287207 0.863699 4276547 3
0.652442 0.291138 0.875520 4802891 3
0.684548 0.298880 0.898801 4605512 3
0.611545 0.292814 0.839128 4736844 3
0.627408 0.293791 0.841927 3749949 3
0.650921 0.298230 0.854648 4342340 3
0.639252 0.293989 0.804634 4801610 3
-0.373663 0.209130 0.697812 7434607 3
-0.359368 0.207492 0.692346 7697779 3
-0.343723 0.204941 0.683836 7565934 3
-0.326659 0.201344 0.671832 6908004 3
-0.325668 0.207749 0.693204 6973029 3
-0.397310 0.220994 0.699100 6249306 3
-0.372599 0.219960 0.695826 5921370 3
-0.359368 0.218859 0.692346 6645091 3
-0.343723 0.216169 0.683836 7039849 3
-0.325597 0.211685 0.669649 6973799 3
-0.379651 0.204423 0.614747 6118490 3
-0.367733 0.203414 0.611713 5854548 3
-0.390333 0.221978 0.667538 6380379 3
-0.396211 0.231830 0.697167 5591376 3
-0.374263 0.232417 0.698932 5987163 3
-0.360675 0.231064 0.694863 6316126 3
-0.340655 0.225368 0.677733 6184540 3
-0.323552 0.221281 0.665442 6907752 3
-0.387757 0.213422 0.611611 5723478 3
-0.377163 0.213111 0.610719 5592146 3
-0.363740 0.211140 0.605070 6380892 3
-0.351007 0.209469 0.600284 7301481 3
-0.343619 0.210985 0.604627 6907236 3
-0.364884 0.230707 0.661145 7170924 3
-0.365586 0.238239 0.682729 7829367 3
-0.352938 0.237272 0.679957 8026487 3
-0.334947 0.232533 0.666376 7697522 3
-0.322009 0.231100 0.662270 8157819 3
-0.498274 0.203861 0.680233 4605771 3
-0.479611 0.200725 0.669767 5262929 3
-0.474315 0.203167 0.677915 4934216 3
-0.464569 0.203774 0.679942 4342079 3
-0.451237 0.202800 0.676691 5723478 3
-0.429503 0.203030 0.677458 4802376 3
-0.492518 0.207886 0.657634 4737098 3
-0.475240 0.205090 0.648786 4276034 3
-0.454425 0.200603 0.634594 5131341 3
-0.448102 0.207319 0.655840 5986650 3
-0.446258 0.211550 0.669224 4868682 3
-0.441804 0.214726 0.679270 5329233 3
-0.428924 0.213865 0.676545 6184029 3
-0.482847 0.205385 0.617639 4210754 3
-0.486835 0.211523 0.636100 4934477 3
-0.480658 0.213418 0.641797 4144961 3
-0.470120 0.213418 0.641797 4539206 3
-0.428520 0.208557 0.627180 7170924 3
-0.412975 0.205941 0.619311 6645093 3
-0.400556 0.204790 0.615850 5658198 3
-0.427554 0.224254 0.674384 5328720 3
-0.470559 0.219250 0.628313 5394513 3
-0.462421 0.220288 0.631287 6644580 3
-0.447666 0.218149 0.625156 6908006 3
-0.431480 0.215196 0.616693 5065802 3
-0.414712 0.211803 0.606971 4802376 3
-0.402319 0.210533 0.603331 5855577 3
0.704914 0.262182 0.925540 3882048 3
0.762325 0.293639 0.979798 3421497 3
0.700912 0.284775 0.900865 3421238 3
0.726769 0.289178 0.914794 2960946 3
0.751377 0.292916 0.926618 2828847 3
-0.072641 0.223268 0.788169 8091258 3
-0.058979 0.220573 0.778653 7104365 3
-0.045794 0.218660 0.771900 7367537 3
-0.033429 0.220698 0.779097 7630707 3
-0.020637 0.220698 0.779097 7104363 3
-0.007893 0.222055 0.783886 7499375 3
-0.098030 0.235026 0.784222 7762545 3
-0.085020 0.234658 0.782992 7630959 3
-0.071917 0.233855 0.780314 7762547 3
-0.058578 0.231768 0.773349 7696502 3
-0.045333 0.229005 0.764129 7564917 3
-0.032947 0.230128 0.767876 8025467 3
-0.020434 0.231190 0.771421 7828086 3
-0.007768 0.231190 0.771421 7565168 3
-0.097695 0.247056 0.781543 8486266 3
-0.084597 0.246282 0.779097 8157301 3
-0.071561 0.245444 0.776445 7894131 3
-0.058486 0.244085 0.772144 7301742 3
-0.045319 0.241477 0.763895 8419712 3
-0.032777 0.241477 0.763895 8025208 3
-0.020234 0.241477 0.763895 6972777 3
-0.007666 0.240671 0.761345 8288891 3
-0.096907 0.257792 0.775240 8025717 3
-0.084178 0.257792 0.775240 8552061 3
-0.071449 0.257792 0.775240 8552061 3
-0.058721 0.257792 0.775240 8222844 3
-0.044933 0.251856 0.757389 8156794 3
-0.032130 0.249010 0.748831 8485759 3
-0.019659 0.246796 0.742173 8420477 3
-0.007475 0.246869 0.742393 8486270 3
-0.092066 0.257007 0.736514 7894133 3
-0.080207 0.257760 0.738672 8157303 3
-0.068079 0.257760 0.738672 8157303 3
-0.055951 0.257760 0.738672 7762293 3
-0.043541 0.256104 0.733926 8025719 3
-0.031398 0.255351 0.731768 8486270 3
-0.019383 0.255351 0.731768 7762547 3
-0.007368 0.255351 0.731768 8157819 3
-0.099207 0.256306 0.701497 8880774 3
-0.088728 0.259342 0.709807 8814983 3
-0.078275 0.263385 0.720873 8749442 3
-0.066818 0.264890 0.724993 8683649 3
-0.053244 0.256832 0.702938 8749188 3
-0.030542 0.260074 0.711811 8552061 3
-0.019095 0.263385 0.720873 8157819 3
-0.007444 0.270094 0.739234 8092026 3
-0.125670 0.225539 0.796183 6973545 3
-0.112418 0.225180 0.794916 7039338 3
-0.165393 0.239343 0.798625 7631729 3
-0.150808 0.237028 0.790901 7894899 3
-0.137779 0.236954 0.790653 7368555 3
-0.124248 0.235911 0.787175 7631475 3
-0.111815 0.236954 0.790653 7434096 3
-0.183053 0.225725 0.714064 7303021 3
-0.151039 0.250398 0.792116 7763315 3
-0.112536 0.251546 0.795749 8355198 3
-0.197317 0.240545 0.723374 8158073 3
-0.149428 0.239933 0.721536 7565936 3
-0.140849 0.245632 0.738672 7368557 3
-0.133101 0.253992 0.763812 7894901 3
-0.122364 0.257792 0.775240 8157819 3
-0.109635 0.257792 0.775240 7499889 3
-0.123348 0.247001 0.707839 8354684 3
-0.113783 0.251549 0.720873 8288891 3
-0.103188 0.254612 0.729651 8222844 3
-0.295712 0.225614 0.796449 6907238 3
-0.283530 0.226328 0.798972 6775652 3
-0.290807 0.234732 0.783238 7433582 3
-0.279256 0.235837 0.786927 7894131 3
-0.270091 0.239163 0.798024 8091510 3
-0.298627 0.243482 0.770239 6841959 3
-0.286597 0.244008 0.771900 7170924 3
-0.276477 0.246282 0.779097 7565936 3
-0.265507 0.247984 0.784480 7960694 3
-0.253494 0.248836 0.787175 7829108 3
-0.241785 0.250093 0.791152 7565936 3
-0.229811 0.251204 0.794665 8158073 3
-0.210478 0.243920 0.771623 7500141 3
-0.280005 0.240158 0.722210 8026233 3
-0.275559 0.246796 0.742173 7434096 3
-0.266873 0.250075 0.752032 7500143 3
-0.255664 0.251194 0.755399 7565936 3
-0.237875 0.245632 0.738672 7828854 3
-0.224296 0.244054 0.733926 7894647 3
-0.210275 0.241787 0.727110 7565936 3
-0.273965 0.246579 0.706629 7302510 3
-0.268409 0.252261 0.722914 7434096 3
-0.257057 0.252770 0.724372 7829108 3
-0.242012 0.249521 0.715061 7500143 3
0.411741 0.213210 0.798972 4539466 3
0.408882 0.224757 0.793423 4802637 3
0.423518 0.225614 0.796449 4539976 3
0.419653 0.236512 0.789180 5526101 3
0.437978 0.239447 0.798972 4407620 3
0.403385 0.239799 0.758587 6249822 3
0.423667 0.244312 0.772865 5789273 3
0.443776 0.248467 0.786007 5657689 3
0.462749 0.251768 0.796449 5328982 3
0.413031 0.250550 0.753463 4407620 3
0.429730 0.253099 0.761127 4670794 3
0.453523 0.259564 0.780569 5328982 3
0.471035 0.262178 0.788430 5132116 3
0.483098 0.261700 0.786993 4671565 3
0.456029 0.240601 0.723543 5000529 3
0.464545 0.238871 0.718341 4803148 3
0.410465 0.261288 0.748781 6315617 3
0.427255 0.264066 0.756744 5394515 3
0.441680 0.265268 0.760186 5790043 3
0.453100 0.264648 0.758410 4868943 3
0.446339 0.253726 0.727110 5526873 3
0.454061 0.251391 0.720420 4605769 3
0.463087 0.249879 0.716086 4803148 3
0.474300 0.249593 0.715266 5526871 3
0.489680 0.251460 0.720617 4934734 3
0.402580 0.268326 0.734397 6513509 3
0.415705 0.269017 0.736288 6250337 3
0.428550 0.269492 0.737588 5724504 3
0.438345 0.268077 0.733713 5329492 3
0.441495 0.262781 0.719219 5790043 3
0.450555 0.261188 0.714858 5921629 3
0.460063 0.259928 0.711410 5329492 3
0.468023 0.257878 0.705799 5263699 3
0.483696 0.260074 0.711811 5000781 3
0.401886 0.271761 0.711811 5723993 3
0.411011 0.270078 0.707402 5723993 3
0.442134 0.267824 0.701497 5395285 3
0.455670 0.269015 0.704618 4803148 3
0.477056 0.268031 0.702039 5329492 3
0.398623 0.213210 0.798972 4539466 3
0.398623 0.226328 0.798972 5592154 3
0.378874 0.235328 0.785230 4868431 3
0.386783 0.232334 0.775240 4868430 3
0.396819 0.230769 0.770014 4671051 3
0.321504 0.234582 0.742085 5920861 3
0.340801 0.239583 0.757902 6117985 3
0.359133 0.243576 0.770536 6710635 3
0.371533 0.243411 0.770014 5921118 3
0.382991 0.242661 0.767639 5789532 3
0.385331 0.236365 0.747724 5197649 3
0.315437 0.233270 0.701497 7433330 3
0.339435 0.242174 0.728274 6052705 3
0.356410 0.245632 0.738672 6118497 3
0.368538 0.245632 0.738672 6250083 3
0.378221 0.244054 0.733926 5592407 3
0.391648 0.244914 0.736514 5592405 3
0.345906 0.250163 0.716901 6710377 3
0.364038 0.254612 0.729651 5986654 3
0.377109 0.255351 0.731768 6184544 3
0.389124 0.255351 0.731768 6184542 3
0.353155 0.258623 0.707839 6315619 3
0.369138 0.261715 0.716301 5592407 3
0.384415 0.264131 0.722914 6184801 3
0.377446 0.270996 0.709807 5789786 3
0.390198 0.271761 0.711811 6710888 3
0.364597 0.224573 0.841552 5855064 3
0.369191 0.219099 0.821040 5526614 3
0.377450 0.216109 0.809836 4736844 3
0.386747 0.213897 0.801546 4539465 3
0.341726 0.252098 0.889943 5525585 3
0.336962 0.238390 0.841552 5657685 3
0.344690 0.234252 0.826942 5986652 3
0.354523 0.231804 0.818300 5986654 3
0.364153 0.229406 0.809836 5328981 3
0.376225 0.228662 0.807208 5394775 3
0.386747 0.227058 0.801546 5526361 3
0.325793 0.265633 0.886347 7105131 3
0.323145 0.252208 0.841552 5920343 3
0.331113 0.247829 0.826942 6250076 3
0.341088 0.245239 0.818300 6315617 3
0.350857 0.242703 0.809836 5591641 3
0.362972 0.241915 0.807208 5921119 3
0.376225 0.241915 0.807208 4934224 3
0.361177 0.262216 0.982612 5526099 3
0.369522 0.256803 0.962328 5788757 3
0.333090 0.281887 0.995100 6645093 3
0.345043 0.278349 0.982612 6447201 3
0.353721 0.272603 0.962328 5394513 3
0.323913 0.290009 0.967685 6710886 3
0.335143 0.286033 0.954419 6447201 3
0.152774 0.239056 0.895824 6908267 3
0.123219 0.268173 0.894823 7368305 3
0.152830 0.268572 0.896156 6776168 3
0.129154 0.264904 0.838006 7959672 3
0.149514 0.277140 0.876712 7433328 3
0.167080 0.282501 0.893671 7499373 3
0.183038 0.284499 0.899991 7630707 3
0.187688 0.269933 0.853914 7828086 3
0.196761 0.263313 0.832970 7696500 3
0.005524 0.232162 0.869991 7565682 3
0.019899 0.233219 0.873951 6644580 3
0.034671 0.236097 0.884737 6776679 3
0.005454 0.243322 0.858962 7499373 3
0.019598 0.243823 0.860728 7039338 3
0.033905 0.245085 0.865185 7697268 3
0.049050 0.249872 0.882083 7500404 3
0.063107 0.248197 0.876170 6578787 3
0.076946 0.246447 0.869991 7434096 3
0.094148 0.254327 0.897811 7039338 3
0.005226 0.246655 0.823023 7565166 3
0.019345 0.254632 0.849641 8091510 3
0.032864 0.251332 0.838629 7565682 3
0.045655 0.246061 0.821040 6973547 3
0.058329 0.242703 0.809836 7236717 3
0.071393 0.241915 0.807208 7368303 3
0.084647 0.241915 0.807208 7894647 3
0.098304 0.242912 0.810535 7565682 3
0.031797 0.256491 0.811391 6907752 3
0.044930 0.255419 0.808001 7303023 3
-0.090118 0.221474 0.829940 7170410 3
-0.076088 0.220307 0.825565 6709605 3
-0.063048 0.222122 0.832369 6643812 3
-0.038454 0.239160 0.896215 7105131 3
-0.022917 0.230879 0.865185 8092026 3
-0.008715 0.230960 0.865485 7368303 3
-0.087009 0.226990 0.801308 8683647 3
-0.394935 0.209674 0.785721 4671555 3
-0.373242 0.204849 0.767639 5066312 3
-0.373419 0.212108 0.794843 5526350 3
-0.383231 0.209147 0.738320 5987163 3
-0.362112 0.204077 0.720420 6776931 3
-0.349272 0.203488 0.718341 5592143 3
-0.337478 0.203488 0.718341 6447453 3
-0.334213 0.208817 0.737155 6907234 3
-0.341848 0.221613 0.782326 7696750 3
-0.334725 0.225468 0.795932 6052697 3
-0.319623 0.224042 0.790901 7105385 3
-0.306638 0.224042 0.790901 7565168 3
-0.390518 0.212061 0.707593 6316126 3
-0.323850 0.214070 0.714297 6841441 3
-0.317923 0.218049 0.727572 6644062 3
-0.322551 0.229861 0.766985 6579039 3
-0.315345 0.233855 0.780314 7500143 3
-0.303099 0.234293 0.781775 6775652 3
-0.387020 0.221676 0.701255 4934216 3
-0.307033 0.230789 0.730084 7630446 3
-0.310223 0.242661 0.767639 7368303 3
-0.388221 0.233913 0.703430 6908006 3
-0.426978 0.200490 0.751305 4671555 3
-0.418662 0.202433 0.758587 4934986 3
-0.412574 0.205606 0.770478 4803400 3
-0.406565 0.209021 0.783275 5066574 3
-0.422246 0.210467 0.742978 5657937 3
-0.406480 0.208636 0.736514 4934473 3
-0.406206 0.214889 0.758587 4868680 3
-0.400889 0.211403 0.705398 5986902 3
-0.412241 0.222861 0.705005 6512476 3
-0.466181 0.186559 0.699100 4342340 3
-0.454702 0.186559 0.699100 4276034 3
-0.443224 0.186559 0.699100 4802891 3
-0.431745 0.186559 0.699100 4802891 3
-0.488222 0.193134 0.681792 4802891 3
-0.476378 0.192871 0.680863 4736583 3
-0.468004 0.194034 0.684969 4473665 3
-0.457877 0.194510 0.686648 4539206 3
-0.444774 0.193713 0.683836 5263440 3
-0.432250 0.193134 0.681792 5723993 3
-0.422334 0.193720 0.683861 5197136 3
-0.402138 0.185296 0.618283 5526612 3
-0.438817 0.198260 0.627180 6052697 3
-0.561768 0.200168 0.750099 3421498 3
-0.596956 0.203488 0.718341 3289650 3
-0.592681 0.206103 0.727572 3684408 3
-0.584084 0.207291 0.731768 4211011 3
-0.572069 0.207291 0.731768 3487290 3
-0.560054 0.207291 0.731768 3947841 3
-0.537764 0.203405 0.718048 4474185 3
-0.594374 0.218672 0.729651 4013371 3
-0.584084 0.219306 0.731768 5263440 3
-0.572069 0.219306 0.731768 4276806 3
-0.549553 0.215194 0.718048 5461080 3
-0.585592 0.227244 0.718869 4211265 3
-0.578676 0.229179 0.724993 5263440 3
-0.559688 0.226315 0.715930 5263699 3
-0.671081 0.203438 0.762352 3091760 3
-0.603655 0.201785 0.712328 3487031 3
-0.617134 0.210106 0.701068 3618104 3
-0.607530 0.214851 0.716901 4012864 3
-0.602483 0.217276 0.724993 4012862 3
0.511158 0.220326 0.879766 4342087 3
0.513819 0.215386 0.860043 3158325 3
0.597827 0.249216 0.879766 4079427 3
0.582702 0.256990 0.857508 3816255 3
0.500669 0.257827 0.815617 4211014 3
0.514061 0.257827 0.815617 4342599 3
0.531269 0.259693 0.821519 4276804 3
0.558789 0.266382 0.842680 4211011 3
0.582702 0.271069 0.857508 4539978 3
0.570212 0.279037 0.839128 4342599 3
0.585938 0.279967 0.841927 3750463 3
0.587525 0.287797 0.824750 3684156 3
0.346091 0.272293 1.087273 5592916 3
0.350930 0.262557 1.048398 5987163 3
0.366596 0.261453 1.043989 6052443 3
0.325135 0.287401 1.076992 6381921 3
0.330711 0.277251 1.038954 6118749 3
0.344857 0.274929 1.030253 5987163 3
0.352327 0.267751 1.003355 6249822 3
0.304280 0.285515 1.007910 6776168 3
0.319532 0.284361 1.003836 6447714 3
-0.153715 0.220911 0.882103 6250074 3
-0.136045 0.215856 0.861916 6973545 3
-0.121683 0.215483 0.860431 6578787 3
-0.194122 0.231761 0.868489 7697268 3
-0.179489 0.231280 0.866687 7565166 3
-0.164293 0.229929 0.861623 7105383 3
-0.147465 0.225824 0.846240 7763313 3
-0.132401 0.223847 0.838832 7236717 3
-0.118390 0.223397 0.837146 8355198 3
-0.104123 0.222283 0.832970 6973031 3
-0.190039 0.240847 0.850225 7697268 3
-0.169126 0.231337 0.816651 7368557 3
-0.153917 0.228662 0.807208 7434348 3
-0.139677 0.227058 0.801546 7171176 3
-0.101883 0.230883 0.815050 7565168 3
-0.187817 0.251827 0.840283 6842472 3
-0.143074 0.259541 0.821040 6973799 3
-0.127825 0.256000 0.809836 8092280 3
-0.417974 0.189666 0.757341 4934986 3
-0.415534 0.194340 0.776006 5132365 3
-0.414221 0.199855 0.798024 5658711 3
-0.496374 0.189319 0.709443 4342338 3
-0.481694 0.188135 0.705005 5197647 3
-0.582411 0.194755 0.777662 3618877 3
-0.567868 0.194148 0.775240 3355705 3
-0.551397 0.192840 0.770014 4342086 3
-0.523158 0.187258 0.747724 3815996 3
-0.504697 0.184991 0.738672 4802889 3
-0.534193 0.194609 0.729267 3947842 3
-0.515883 0.192248 0.720420 3815742 3
0.455987 0.200672 0.857508 4408644 3
0.482723 0.206075 0.880597 4671303 3
0.409021 0.212298 0.847709 4276293 3
0.405320 0.203454 0.812395 4802638 3
0.414660 0.201510 0.804634 4736845 3
0.441932 0.208132 0.831077 4342597 3
0.468499 0.214035 0.854648 4803148 3
0.493301 0.218813 0.873724 5197395 3
0.427871 0.214721 0.804634 4605769 3
0.455578 0.221778 0.831077 4671305 3
0.478901 0.226352 0.848219 4407622 3
0.490834 0.225436 0.844787 4539466 3
0.492189 0.219846 0.823839 4342599 3
0.454167 0.234694 0.828503 4670792 3
0.475349 0.238497 0.841927 4539208 3
0.478663 0.233373 0.823839 4473673 3
0.487277 0.231044 0.815617 4737358 3
0.457557 0.242876 0.810415 4802380 3
0.473886 0.244435 0.815617 4144708 3
0.484170 0.256183 0.810415 4737104 3
0.181011 0.226573 0.968186 6052705 3
0.166158 0.244002 0.974305 6184544 3
0.180725 0.242086 0.966657 5657689 3
0.197436 0.243120 0.970785 5723993 3
0.136472 0.264472 0.991068 6513507 3
0.141980 0.245834 0.921226 6710886 3
0.172558 0.246300 0.922971 6381410 3
0.193246 0.253561 0.950180 6184544 3
0.111316 0.259995 0.917820 7039338 3
0.126846 0.260943 0.921167 6579302 3
0.141868 0.260754 0.920498 6974060 3
0.155326 0.258003 0.910789 6776168 3
0.172606 0.261528 0.923231 6973547 3
0.189225 0.263562 0.930410 6710888 3
0.140170 0.272566 0.909480 7105133 3
0.173315 0.277823 0.927023 7301996 3
0.189575 0.279355 0.932133 7236719 3
-0.291212 0.201356 0.860431 6315615 3
-0.277181 0.201426 0.860728 6250074 3
-0.265513 0.203313 0.868793 5723732 3
-0.257069 0.208023 0.888921 6315615 3
-0.299278 0.211206 0.843349 7630961 3
-0.286009 0.211633 0.845056 7565168 3
-0.272592 0.211989 0.846478 7236201 3
-0.259749 0.212854 0.849931 8288891 3
-0.248578 0.215265 0.859559 6906984 3
-0.238476 0.218948 0.874265 6709859 3
-0.229157 0.223867 0.893906 7105385 3
-0.290389 0.218368 0.818300 7828340 3
-0.279151 0.220101 0.824793 7433582 3
-0.269228 0.223100 0.836033 7828338 3
-0.256187 0.223699 0.838278 7104617 3
-0.246210 0.227193 0.851369 6512480 3
-0.233500 0.228435 0.856023 7170408 3
-0.221413 0.230483 0.863699 6776418 3
-0.207588 0.230879 0.865185 7894901 3
-0.274466 0.229722 0.810952 7301994 3
-0.265418 0.233476 0.824202 6051927 3
-0.252138 0.233710 0.825029 7104615 3
-0.242258 0.237301 0.837706 7301996 3
-0.229655 0.238497 0.841927 7499373 3
-0.217445 0.240279 0.848219 8092278 3
-0.204204 0.241089 0.851078 8618881 3
-0.258613 0.240675 0.803069 7236199 3
-0.245831 0.241071 0.804390 7301994 3
-0.239220 0.247907 0.827200 7696752 3
-0.223510 0.245569 0.819398 8420473 3
-0.208071 0.243248 0.811655 7829619 3
-0.200035 0.249856 0.833705 7829365 3
-0.395794 0.204293 0.872981 6052695 3
-0.303776 0.200325 0.856023 6447203 3
-0.390174 0.207990 0.830509 5658447 3
-0.379674 0.209722 0.837425 5460558 3
-0.365924 0.209722 0.837425 6184283 3
-0.350887 0.208955 0.834362 6841445 3
-0.336625 0.208606 0.832970 7104617 3
-0.323165 0.208747 0.833530 7959924 3
-0.313759 0.211633 0.845056 7170408 3
-0.363407 0.213897 0.801546 5526353 3
-0.349576 0.213488 0.800012 6644834 3
-0.342782 0.217512 0.815091 6907236 3
-0.326319 0.215478 0.807470 6446687 3
-0.314581 0.216524 0.811391 7038822 3
-0.304530 0.218875 0.820199 7170408 3
1.117820 0.258149 1.186352 1249816 3
1.106483 0.246925 1.134771 2894641 3
1.148405 0.280338 1.197937 1973538 3
1.144908 0.274779 1.174178 2170918 3
1.135610 0.268034 1.145357 2368556 3
1.175673 0.296959 1.185764 2236713 3
0.504963 0.200445 0.921167 4013375 3
0.532620 0.205275 0.943364 3618363 3
0.561642 0.210343 0.966657 3553084 3
0.514547 0.213273 0.911354 3157812 3
0.544079 0.219141 0.936427 3552570 3
0.573165 0.224511 0.959378 3224118 3
0.581234 0.291567 0.972883 3882049 3
0.251989 0.217042 0.997442 5526103 3
0.201495 0.231851 0.990740 6184033 3
0.216226 0.230216 0.983756 5855064 3
0.228340 0.226215 0.966657 6447201 3
0.247780 0.229521 0.980785 5591894 3
0.213705 0.243496 0.972286 5986650 3
0.228340 0.242086 0.966657 5986136 3
0.249490 0.247319 0.987550 5657689 3
0.214294 0.260175 0.974964 7302510 3
0.225366 0.254598 0.954066 6249308 3
0.238578 0.252007 0.944357 6118240 3
0.204880 0.264050 0.932133 7038824 3
0.217529 0.260865 0.920891 7367276 3
0.231794 0.259906 0.917504 6972779 3
0.267413 0.281547 0.993901 7235949 3
0.204880 0.279355 0.932133 7499375 3
0.222009 0.281668 0.939854 7564655 3
0.238327 0.282720 0.943364 7038572 3
0.255944 0.285091 0.951273 7564914 3
0.270331 0.283798 0.946959 6775398 3
0.282546 0.280488 0.935916 6776168 3
0.205475 0.219843 1.010312 5526103 3
0.220640 0.218433 1.003836 5855066 3
0.237122 0.218433 1.003836 5789273 3
0.273594 0.221270 1.016873 5328724 3
0.274789 0.239006 1.021315 5723227 3
0.294683 0.292276 1.095257 6381412 3
0.290290 0.288054 1.016873 7039340 3
0.110211 0.228695 1.050996 5592407 3
0.126618 0.227171 1.043989 5526614 3
0.178042 0.227171 1.043989 5855579 3
0.187676 0.218433 1.003836 5065809 3
0.109477 0.244312 1.043989 6250337 3
0.126042 0.243200 1.039236 6710888 3
0.142807 0.242694 1.037076 6579300 3
0.160568 0.243806 1.041829 5855575 3
0.171583 0.235450 1.006119 6579302 3
0.109027 0.260378 1.039697 6513509 3
0.126618 0.261453 1.043989 6513509 3
0.143759 0.261453 1.043989 6382434 3
0.155300 0.252352 1.007648 6513507 3
0.108036 0.274929 1.030253 6908267 3
0.122749 0.270082 1.012091 6447716 3
-0.082948 0.238291 1.095094 5657687 3
-0.063200 0.231807 1.065295 6841445 3
-0.045400 0.230241 1.058097 6118236 3
-0.080228 0.247868 1.059186 6578789 3
-0.061577 0.242898 1.037946 6841445 3
-0.045277 0.246940 1.055219 6381408 3
-0.093719 0.254662 1.016873 6972777 3
-0.076962 0.254458 1.016058 7564914 3
-0.059461 0.251005 1.002267 6710373 3
-0.187798 0.214312 0.984896 6644064 3
-0.181956 0.223313 0.954256 7367785 3
-0.158315 0.212605 0.908502 7038820 3
-0.194055 0.234665 0.937022 7630959 3
-0.175719 0.230789 0.921547 7105383 3
-0.122150 0.244723 0.977183 6446433 3
-0.463015 0.200445 0.921167 4014400 3
-0.447890 0.200445 0.921167 3882296 3
-0.432766 0.200445 0.921167 4211516 3
-0.454381 0.211550 0.903990 5593686 3
-0.442682 0.213063 0.910456 5264719 3
-0.431193 0.214786 0.917820 6119511 3
-0.583377 0.190367 0.874852 4079168 3
-0.556575 0.186206 0.855729 2763308 3
-0.542525 0.186206 0.855729 2697261 3
-0.528475 0.186206 0.855729 3816253 3
-0.591285 0.188901 0.807208 4013122 3
-0.586397 0.191635 0.818892 4144448 3
-0.576668 0.192878 0.824202 4802378 3
-0.677079 0.173855 0.798972 3487031 3
-0.657255 0.172099 0.790901 3750203 3
-0.650843 0.173855 0.798972 3618874 3
-0.690198 0.186973 0.798972 3158064 3
-0.677079 0.186973 0.798972 2500134 3
-0.659350 0.185675 0.793423 2236962 3
-0.644269 0.185085 0.790901 2697772 3
-0.685405 0.198702 0.793423 4012860 3
-0.670240 0.198071 0.790901 4934475 3
-0.652736 0.196709 0.785464 5856088 3
-0.642255 0.197452 0.788430 6316641 3
-0.635907 0.196439 0.736124 2697000 3
-0.620129 0.195277 0.731768 2697515 3
-0.612058 0.196543 0.736514 4079166 3
-0.620946 0.199822 0.705398 3552311 3
-0.605623 0.198595 0.701068 2960172 3
1.018989 0.281289 1.398200 2434092 3
1.037123 0.273951 1.361725 1643546 3
1.059481 0.273951 1.361725 2236710 3
1.081839 0.273951 1.361725 2302504 3
1.019395 0.291245 1.338448 1644061 3
1.041371 0.291245 1.338448 2631468 3
1.054335 0.288776 1.327105 3026739 3
1.076125 0.288776 1.327105 2895154 3
1.064132 0.315044 1.565984 3158066 3
1.068474 0.308867 1.535279 3092019 3
1.007139 0.347710 1.597943 3750203 3
1.059612 0.347710 1.597943 3618615 3
1.064132 0.340756 1.565984 3421238 3
0.060895 0.220311 1.095094 8288637 3
0.077254 0.215784 1.072592 6447205 3
0.092955 0.211439 1.050996 5328981 3
0.006954 0.238291 1.095094 7303023 3
0.024934 0.238291 1.095094 6381921 3
0.042616 0.236636 1.087489 6052443 3
0.059643 0.233395 1.072592 6447203 3
0.076210 0.230241 1.058097 6052958 3
0.092955 0.228695 1.050996 5526614 3
0.006449 0.237667 1.015596 6447712 3
0.024041 0.247094 1.055878 6645091 3
0.041447 0.247510 1.057654 6118749 3
0.058418 0.245849 1.050558 6644580 3
0.075194 0.244312 1.043989 7303025 3
0.092335 0.244312 1.043989 7105646 3
0.056068 0.252512 1.008289 6710886 3
0.073756 0.256453 1.024021 6710888 3
0.091121 0.258013 1.030253 6381923 3
0.073610 0.272726 1.021998 6908267 3
0.091121 0.274929 1.030253 6908267 3
-0.191410 0.201951 1.003836 7367789 3
-0.174928 0.201951 1.003836 7236203 3
-0.145700 0.207266 1.030253 6512994 3
-0.130501 0.210029 1.043989 6447455 3
-0.118909 0.220311 1.095094 6776166 3
-0.150656 0.231807 1.065295 7368303 3
-0.133164 0.231807 1.065295 8486268 3
-0.166030 0.246159 1.051883 6579041 3
-0.155167 0.256764 1.097199 7039338 3
-0.135939 0.254492 1.087489 7301994 3
-0.110869 0.255709 1.021054 6841191 3
-0.211968 0.205911 1.023519 6644580 3
-0.275586 0.219843 1.010312 5657685 3
-0.258998 0.219843 1.010312 6250076 3
-0.242410 0.219843 1.010312 5789525 3
-0.225821 0.219843 1.010312 6513248 3
-0.209233 0.219843 1.010312 6381662 3
0.420319 0.150694 0.815617 4407879 3
0.411211 0.165813 0.824202 4013375 3
0.438594 0.171220 0.851078 4144707 3
0.473139 0.179002 0.889764 4078657 3
0.415586 0.181253 0.832970 3223605 3
0.438594 0.185194 0.851078 3815742 3
0.457541 0.187229 0.860431 3487031 3
0.438594 0.199167 0.851078 4276804 3
0.130329 0.229629 1.242845 4605258 3
0.150736 0.229629 1.242845 4802637 3
0.128293 0.246128 1.223425 5065809 3
0.148380 0.246128 1.223425 5197395 3
0.168468 0.246128 1.223425 5197649 3
0.188555 0.246128 1.223425 5460819 3
0.007154 0.208153 1.126607 5460306 3
0.025468 0.206666 1.118560 5855066 3
0.044149 0.208153 1.126607 5393745 3
0.062200 0.206666 1.118560 5196368 3
0.079430 0.203755 1.102806 4933966 3
0.007154 0.226651 1.126607 6184542 3
0.025288 0.223436 1.110627 5920857 3
0.043216 0.221862 1.102806 6841961 3
-0.085335 0.208153 1.126607 5395028 3
-0.066837 0.208153 1.126607 5394515 3
-0.048340 0.208153 1.126607 5460308 3
-0.030726 0.214320 1.159988 4802637 3
-0.011680 0.214320 1.159988 5789273 3
-0.084726 0.225032 1.118560 6842474 3
-0.065889 0.223436 1.110627 5920089 3
-0.047994 0.225032 1.118560 5789273 3
-0.030726 0.233366 1.159988 6579302 3
-0.011680 0.233366 1.159988 6512996 3
-0.030058 0.246925 1.134771 5658198 3
-0.011510 0.248727 1.143054 6052443 3
-0.029329 0.259118 1.107257 6381921 3
-0.119746 0.203755 1.102806 4999755 3
-0.105349 0.211191 1.143054 4802889 3
-0.105349 0.229959 1.143054 6710373 3
-0.121457 0.243397 1.118560 8288891 3
-0.109339 0.258149 1.186352 6644580 3
-0.122231 0.263431 1.125690 7301996 3
-0.104508 0.265361 1.133936 6315101 3
-0.248243 0.205200 1.110627 5657687 3
-0.295182 0.231650 1.151459 6907752 3
-0.266479 0.223436 1.110627 6776166 3
-0.248243 0.223436 1.110627 6710373 3
-0.206733 0.258149 1.186352 7499373 3
-0.894415 0.215920 1.168645 2961716 3
-0.875227 0.215920 1.168645 2764337 3
-0.856039 0.215920 1.168645 3618876 3
-0.836851 0.215920 1.168645 2828847 3
-0.817663 0.215920 1.168645 3355191 3
-0.825919 0.221862 1.102806 3487291 3
-0.807812 0.221862 1.102806 3421497 3
-0.812595 0.228293 1.134771 4144450 3
0.007154 0.189655 1.126607 4999755 3
0.025651 0.189655 1.126607 5328720 3
0.044149 0.189655 1.126607 4670022 3
0.063101 0.191029 1.134771 4998989 3
0.080565 0.188300 1.118560 5723480 3
-0.085954 0.191029 1.134771 5460819 3
-0.067322 0.191029 1.134771 5526614 3
-0.049406 0.193839 1.151459 4342086 3
-0.030726 0.195274 1.159988 4736845 3
-0.011680 0.195274 1.159988 4868684 3
-0.142880 0.170078 1.010312 4473411 3
-0.128784 0.173434 1.030253 5131602 3
-0.191410 0.185469 1.003836 6643812 3
-0.174928 0.185469 1.003836 5985882 3
-0.159468 0.186666 1.010312 5526099 3
-0.142880 0.186666 1.010312 5986650 3
-0.129637 0.191611 1.037076 4999755 3
-0.323748 0.212597 1.262890 4737096 3
-0.307980 0.216082 1.283594 4276036 3
-0.365218 0.233332 1.262890 4737096 3
-0.339015 0.229629 1.242845 4408129 3
-0.313630 0.226041 1.223425 6249822 3
-0.393980 0.246128 1.223425 4605510 3
-0.373893 0.246128 1.223425 5592405 3
-0.359421 0.250035 1.242845 5855577 3
-0.333718 0.246128 1.223425 5987163 3
-0.387919 0.262120 1.204603 5657939 3
-0.467033 0.202785 1.204603 3815996 3
-0.414068 0.226041 1.223425 5263701 3
-0.400234 0.229629 1.242845 5000270 3
-0.427476 0.242342 1.204603 5724504 3
-0.414068 0.246128 1.223425 5066320 3
-0.480145 0.146456 0.869991 3289648 3
-0.481925 0.151506 0.899991 3487027 3
-0.467148 0.151506 0.899991 3618615 3
-0.452371 0.151506 0.899991 3487027 3
-0.437594 0.151506 0.899991 3421488 3
-0.474869 0.158974 0.860431 4276545 3
-0.465861 0.160740 0.869991 3026737 3
-0.467148 0.166283 0.899991 3487288 3
-0.465861 0.175025 0.869991 3948609 3
-0.460741 0.187229 0.860431 3751741 3
0.362657 0.233244 1.535279 2960693 3
0.387865 0.233244 1.535279 3421498 3
0.318487 0.263620 1.565984 4736583 3
0.337449 0.258451 1.535279 5132115 3
0.362657 0.258451 1.535279 4014151 3
0.387865 0.258451 1.535279 3618623 3
-0.382041 0.180234 1.186352 2829101 3
-0.362563 0.180234 1.186352 2236964 3
-0.337963 0.177544 1.168645 2434343 3
-0.318775 0.177544 1.168645 5329235 3
-0.304127 0.180234 1.186352 2763308 3
-0.395527 0.196732 1.168645 5066063 3
-0.379169 0.198211 1.177432 4868430 3
-0.359837 0.198211 1.177432 5526612 3
-0.337963 0.196732 1.168645 5066059 3
-0.316414 0.195274 1.159988 5066061 3
-0.472580 0.138319 0.910456 4408133 3
-0.457631 0.138319 0.910456 3750199 3
-0.464277 0.145066 0.954868 3553074 3
-0.427734 0.153268 0.910456 3553074 3
-0.412785 0.153268 0.910456 2500645 3
-0.457631 0.168216 0.910456 3421749 3
-0.442682 0.168216 0.910456 3947578 3
-0.427734 0.168216 0.910456 4145210 3
-0.412785 0.168216 0.910456 3618613 3
-0.478140 0.185320 0.921167 4276804 3
-0.463015 0.185320 0.921167 4079679 3
-0.442682 0.183165 0.910456 4145470 3
-0.432766 0.185320 0.921167 4737347 3
-0.412785 0.183165 0.910456 4210750 3
-0.472580 0.198114 0.910456 3356470 3
-0.412785 0.198114 0.910456 4803141 3
-0.869009 0.180234 1.186352 2566958 3
-0.844025 0.185648 1.102806 2763565 3
-0.862356 0.193839 1.151459 2961716 3
-0.843450 0.193839 1.151459 2829875 3
-0.836851 0.196732 1.168645 3290681 3
-0.830052 0.199712 1.186352 3158325 3
-0.443840 0.161982 1.195408 2697772 3
-0.424213 0.161982 1.195408 2829358 3
-0.404585 0.161982 1.195408 3158064 3
-0.437166 0.178879 1.177432 2566186 3
-0.420999 0.180234 1.186352 2368807 3
-0.401520 0.180234 1.186352 3552824 3
-0.440478 0.199712 1.186352 4408644 3
-0.414715 0.196732 1.168645 4276804 3
-0.798475 0.215920 1.168645 3749949 3
-0.735384 0.203755 1.102806 3815742 3
-0.782620 0.225032 1.118560 3552313 3
-0.764255 0.225032 1.118560 2894640 3
-0.735384 0.221862 1.102806 3749949 3
-0.764255 0.243397 1.118560 3684410 3
-0.982390 0.173932 1.283594 2697261 3
-0.916253 0.165779 1.223425 2763567 3
-0.936341 0.185866 1.223425 2500395 3
-0.902157 0.183007 1.204603 2697774 3
-0.387275 0.207776 0.595431 5723991 3
-0.392481 0.215049 0.588578 5263440 3
-0.380494 0.213744 0.585006 5592405 3
-0.372459 0.214648 0.587482 5131341 3
-0.365120 0.216013 0.591218 6579041 3
-0.357946 0.217553 0.595431 7433580 3
-0.345470 0.215866 0.590814 7038311 3
-0.335444 0.215657 0.590243 6775652 3
-0.325293 0.215353 0.589410 7170924 3
-0.315170 0.215049 0.588578 7171439 3
-0.302877 0.213198 0.583513 7631475 3
-0.395184 0.220823 0.578390 4802630 3
-0.383914 0.219807 0.575729 5921368 3
-0.374461 0.219807 0.575729 5592403 3
-0.367892 0.221544 0.580280 6908263 3
-0.361031 0.223193 0.584597 7434350 3
-0.353909 0.224765 0.588716 6250076 3
-0.343276 0.224134 0.587063 5723478 3
-0.332080 0.223088 0.584322 7499891 3
-0.320696 0.221850 0.581080 7368564 3
-0.307444 0.219204 0.574149 6447203 3
-0.397974 0.226502 0.568804 5789523 3
-0.389075 0.226759 0.569449 8026487 3
-0.378779 0.226194 0.568030 6842470 3
-0.369956 0.226502 0.568804 6974056 3
-0.363848 0.228531 0.573900 6842470 3
-0.357116 0.230267 0.578258 6973799 3
-0.351268 0.232682 0.584322 7434350 3
-0.340643 0.231980 0.582561 7236717 3
-0.327573 0.229524 0.576393 7500404 3
-0.316871 0.228631 0.574149 7236978 3
-0.303693 0.225841 0.567144 7565682 3
-0.391424 0.221562 0.534364 5724242 3
-0.383467 0.222034 0.535504 6908003 3
-0.385594 0.228505 0.551110 6973797 3
-0.380431 0.230863 0.556797 7960692 3
-0.363118 0.237477 0.572748 5987161 3
-0.358440 0.240650 0.580401 6710627 3
-0.352419 0.243070 0.586238 6381662 3
-0.339227 0.240541 0.580139 6249822 3
-0.323996 0.236378 0.570098 7171439 3
-0.314277 0.236109 0.569449 6908267 3
-0.301922 0.233782 0.563836 6973545 3
-0.399338 0.229840 0.533216 5724755 3
-0.382603 0.235711 0.546836 6315866 3
-0.373053 0.235351 0.545999 6184281 3
-0.362715 0.246607 0.572113 6118747 3
-0.358525 0.250239 0.580539 5855318 3
-0.353744 0.253645 0.588441 6315869 3
-0.340412 0.250940 0.582165 7105131 3
-0.323996 0.245738 0.570098 6184544 3
-0.314277 0.245459 0.569449 6842472 3
-0.301922 0.243039 0.563836 7105385 3
-0.301149 0.251651 0.562393 7236971 3
-0.593276 0.223295 2.174978 2631469 3
-0.557565 0.223295 2.174978 2696749 3
-0.521854 0.223295 2.174978 2894383 3
-0.593276 0.259006 2.174978 3158326 3
-0.542496 0.252006 2.116195 2894381 3
-0.507750 0.252006 2.116195 3289650 3
-0.876079 0.145691 1.223425 2368809 3
-0.869578 0.148004 1.242845 2170917 3
-0.862868 0.150391 1.262890 2434090 3
-0.896166 0.165779 1.223425 2237221 3
-0.876079 0.165779 1.223425 2763565 3
-0.855991 0.165779 1.223425 3355191 3
-0.849172 0.168410 1.242845 2762542 3
-0.862600 0.183007 1.204603 2435372 3
-0.842822 0.183007 1.204603 3026739 3
-0.835904 0.185866 1.223425 3684156 3
1.404901 0.412259 1.544874 2894900 3
1.418007 0.449828 1.587956 2894640 3
1.453162 0.452657 1.597943 2631469 3
1.459057 0.446433 1.575971 1512990 3
1.418103 0.426341 1.505044 2302506 3
1.474845 0.469100 1.565265 2960434 3
1.046841 0.302115 1.290992 2303017 3
1.011476 0.318845 1.273158 2566188 3
1.031860 0.318685 1.272516 2434602 3
1.018975 0.335338 1.256626 2895153 3
1.092368 0.388015 1.294705 2894894 3
0.924455 0.317073 1.188180 3487291 3
0.936554 0.302097 1.132060 2566440 3
0.950714 0.300697 1.126813 2763306 3
0.996386 0.334532 1.180945 3289650 3
0.969398 0.351169 1.171760 3421495 3
-0.980622 0.167472 1.631234 1775133 3
-0.953839 0.167472 1.631234 2960176 3
-0.927056 0.167472 1.631234 2697261 3
-0.980622 0.194255 1.631234 2367784 3
-0.998562 0.182828 1.535279 3025716 3
-0.986846 0.190290 1.597943 3025714 3
-0.386598 0.163465 0.884737 4605510 3
-0.369981 0.162546 0.879766 5131602 3
-0.361631 0.165333 0.894848 4342086 3
-0.386598 0.177991 0.884737 4408131 3
-0.369981 0.176991 0.879766 3947328 3
-0.361631 0.180025 0.894848 4736844 3
-0.344967 0.179002 0.889764 4605512 3
-0.359872 0.186206 0.855729 5131343 3
-0.355536 0.191436 0.879766 5591892 3
-0.341091 0.191436 0.879766 5920857 3
-0.332246 0.194718 0.894848 5855064 3
-0.301140 0.193611 0.889764 5395026 3
-0.371517 0.198968 0.850225 4868169 3
-0.352174 0.195972 0.837425 4999757 3
-0.339676 0.196697 0.840520 6315869 3
-0.326642 0.197160 0.842499 5393995 3
-0.317182 0.199916 0.854276 6973029 3
-0.467099 0.088856 1.030253 1776672 3
-0.009442 0.219442 0.937715 6381408 3
-0.041841 0.244211 0.975142 7039338 3
-0.024400 0.230694 0.921167 6447201 3
-0.009275 0.230694 0.921167 6907752 3
-0.056649 0.254812 0.954868 6841961 3
-0.093627 0.255686 0.593176 8091510 3
-0.083888 0.255686 0.593176 9078153 3
-0.074114 0.255566 0.592897 9143946 3
-0.063925 0.253764 0.588716 8880774 3
-0.054855 0.256551 0.595182 8552063 3
-0.092684 0.262751 0.587200 7696754 3
-0.082907 0.262321 0.586238 7894647 3
-0.072737 0.260372 0.581882 8618372 3
-0.062745 0.258569 0.577854 8355198 3
-0.091421 0.268680 0.579196 9341579 3
-0.081683 0.267934 0.577589 8618370 3
-0.071671 0.265972 0.573360 8420991 3
-0.247639 0.212454 0.907855 6578789 3
-0.236233 0.215649 0.921508 6841959 3
-0.224159 0.218630 0.934247 7105385 3
-0.213382 0.223408 0.954661 6052697 3
-0.202461 0.228779 0.977614 6644834 3
-0.218056 0.227600 0.908811 7105385 3
-0.204626 0.229272 0.915487 7696754 3
0.300201 0.230416 0.692913 6184033 3
0.308005 0.239020 0.684969 6182750 3
0.324052 0.242614 0.695267 6183264 3
0.306159 0.248767 0.680863 4931654 3
0.321199 0.251794 0.689147 6182751 3
0.336384 0.254724 0.697167 4867403 3
0.304182 0.258267 0.676467 4866374 3
0.311001 0.254755 0.667266 4406593 3
0.321358 0.254281 0.666025 4209214 3
0.329663 0.252268 0.660753 4473413 3
0.356329 0.263987 0.691447 5592407 3
0.301656 0.267137 0.670849 4933194 3
0.309600 0.264514 0.664260 6578019 3
0.318814 0.263117 0.660753 5985882 3
0.329663 0.263117 0.660753 5855066 3
0.340422 0.263048 0.660579 6316130 3
0.349884 0.262011 0.657977 6118751 3
0.360688 0.262011 0.657977 6316130 3
0.367270 0.259034 0.650500 5658200 3
0.394275 0.270223 0.678597 6513509 3
0.303646 0.270123 0.651485 6447203 3
0.312632 0.268653 0.647940 6447716 3
0.323689 0.269001 0.648779 6316130 3
0.330585 0.265979 0.641491 6316130 3
0.338506 0.263943 0.636579 5592153 3
0.349937 0.264683 0.638365 6710634 3
0.359868 0.264279 0.637391 6908267 3
0.369862 0.263943 0.636579 6645095 3
0.381479 0.264751 0.638529 6447716 3
0.397869 0.268740 0.648150 5329235 3
0.355527 0.271430 0.629702 6381669 3
0.386646 0.281843 0.629867 7039851 3
0.304974 0.221038 1.631234 3618106 3
0.331757 0.221038 1.631234 3419957 3
0.358540 0.221038 1.631234 3289399 3
0.304974 0.247821 1.631234 3684156 3
0.331757 0.247821 1.631234 3157553 3
0.358540 0.247821 1.631234 3157812 3
1.081948 0.215920 1.168645 1973287 3
1.039100 0.203755 1.102806 2631471 3
1.081948 0.235108 1.168645 2039080 3
1.069219 0.228293 1.134771 1841953 3
1.087851 0.246925 1.134771 1447194 3