# .PCD v0.7 - Point Cloud Data file format
VERSION 0.7
FIELDS x y z rgb label
SIZE 4 4 4 4 4
TYPE F F F U U
COUNT 1 1 1 1 1
WIDTH 1128
HEIGHT 1
VIEWPOINT 0 0 0 1 0 0 0
POINTS 1128
DATA ascii
-0.192518 0.319742 0.665709 6381412 3
-0.181526 0.319632 0.665481 6841963 3
-0.182547 0.332418 0.669224 6447463 3
-0.171559 0.332418 0.669224 6908267 3
-0.160571 0.332418 0.669224 6908265 3
0.503601 0.309204 0.691014 4671051 3
0.516363 0.310054 0.692913 3684157 3
0.521430 0.306347 0.684628 5328471 3
0.529741 0.304662 0.680863 4802125 3
0.540920 0.304662 0.680863 4407620 3
0.552099 0.304662 0.680863 3683897 3
0.563278 0.304662 0.680863 3815742 3
0.585036 0.310273 0.693401 3815742 3
0.304533 0.264424 0.590937 6973799 3
0.316786 0.266569 0.595733 6380640 3
0.307566 0.268308 0.578395 7433328 3
0.325730 0.275643 0.594206 7762293 3
0.335704 0.275821 0.594591 6841193 3
0.344563 0.275100 0.593036 7170158 3
0.353645 0.274591 0.591940 5591127 3
0.200836 0.268476 0.599994 8156792 3
0.210134 0.267772 0.598420 7433328 3
0.296965 0.266338 0.595215 7039338 3
0.206195 0.272393 0.587200 7565168 3
0.299172 0.269300 0.580534 6841959 3
-0.015799 0.266885 0.596437 8288891 3
-0.005898 0.262078 0.585695 7565168 3
-0.025569 0.276429 0.595902 7630707 3
-0.015590 0.273032 0.588578 8420477 3
-0.005876 0.270682 0.583513 9012614 3
0.101957 0.257699 0.597847 7763061 3
0.112121 0.258502 0.599709 7894647 3
0.121040 0.256537 0.595150 7434096 3
0.129551 0.254063 0.589410 7763061 3
0.139097 0.253823 0.588855 7762293 3
0.171282 0.258625 0.599994 7630196 3
0.101957 0.267516 0.597847 7697270 3
0.112147 0.268412 0.599851 8355198 3
0.120898 0.265996 0.594451 7631988 3
0.129551 0.263740 0.589410 8223612 3
0.138706 0.262751 0.587200 8420993 3
0.148556 0.263121 0.588027 8222844 3
0.159221 0.264802 0.591782 8354430 3
0.169336 0.265425 0.593176 7762295 3
0.179118 0.265488 0.593317 7103853 3
0.190531 0.267838 0.598568 7433071 3
0.101160 0.275165 0.593176 9210509 3
0.110612 0.274451 0.591637 7894647 3
0.119845 0.273354 0.589272 8224125 3
0.128553 0.271312 0.584871 7894647 3
0.136815 0.268680 0.579196 8223614 3
0.146392 0.268802 0.579460 8683395 3
0.157474 0.271505 0.585286 8222844 3
0.168062 0.273096 0.588716 8025467 3
0.177770 0.273160 0.588855 8025467 3
0.188102 0.274126 0.590937 7038570 3
0.197758 0.274062 0.590799 7630961 3
0.100778 0.283829 0.590937 7959672 3
0.110455 0.283762 0.590799 8289405 3
0.119676 0.282630 0.588441 8092539 3
0.176402 0.280652 0.584322 7630709 3
0.023158 0.254721 0.590937 7959672 3
0.032860 0.254721 0.590937 7564914 3
0.042593 0.254903 0.591360 8025719 3
0.052864 0.257638 0.597704 8223612 3
0.062678 0.257638 0.597704 8552581 3
0.072491 0.257638 0.597704 8091001 3
0.082305 0.257638 0.597704 8091512 3
0.092119 0.257638 0.597704 7828340 3
0.003709 0.261403 0.584187 7367789 3
0.013255 0.260492 0.582150 7763061 3
0.022818 0.260553 0.582286 8026233 3
0.032492 0.261464 0.584322 8354684 3
0.041979 0.260796 0.582829 8157303 3
0.051753 0.261833 0.585148 7499889 3
0.061518 0.262505 0.586649 8749958 3
0.071603 0.264176 0.590383 8946567 3
0.081895 0.266119 0.594726 8025719 3
0.092009 0.267134 0.596994 8222844 3
0.003695 0.269926 0.581882 8223098 3
0.013160 0.268119 0.577988 8289405 3
0.022723 0.268988 0.579860 8486784 3
0.032148 0.268182 0.578122 8486270 3
0.041930 0.270050 0.582150 8288889 3
0.051488 0.270050 0.582150 7763061 3
0.061061 0.270113 0.582286 7828856 3
0.071067 0.271820 0.585965 8617345 3
0.081278 0.273804 0.590243 8617856 3
0.091097 0.274191 0.591077 9407118 3
0.090755 0.282829 0.588855 7893879 3
0.533374 0.284240 0.685533 3749690 3
0.540920 0.282304 0.680863 4539465 3
0.512190 0.296264 0.687313 4802125 3
0.545436 0.295934 0.686548 3815742 3
0.563556 0.299573 0.694991 4210500 3
-0.271251 0.248064 0.598283 6052958 3
-0.290895 0.257885 0.598278 5856090 3
-0.279735 0.256658 0.595431 5921372 3
-0.270023 0.256719 0.595573 5987165 3
-0.288074 0.265112 0.592476 5921370 3
-0.278609 0.265363 0.593036 6184542 3
-0.267984 0.264486 0.591077 6118751 3
-0.259196 0.265425 0.593176 6447716 3
-0.249457 0.265425 0.593176 6908267 3
-0.241150 0.267012 0.596722 5987161 3
-0.294804 0.272073 0.586511 5593434 3
-0.264860 0.270995 0.584187 5921118 3
-0.254378 0.270050 0.582150 5329235 3
-0.246955 0.272405 0.587226 5658198 3
-0.202293 0.277265 0.597704 6776679 3
-0.294804 0.281703 0.586511 5725020 3
-0.277841 0.284051 0.591400 4868682 3
0.635064 0.311867 0.783177 3223348 3
0.664839 0.313782 0.787986 3552313 3
0.673482 0.311794 0.782992 2498856 3
0.603323 0.302374 0.729267 3552570 3
0.611690 0.300601 0.724993 4342086 3
0.627601 0.302533 0.729651 2631211 3
0.672306 0.318012 0.766985 2696749 3
0.614394 0.307895 0.714297 2829101 3
0.207350 0.273503 0.686835 7170926 3
0.211112 0.264101 0.663225 7368305 3
0.229135 0.272587 0.684536 7302510 3
0.298754 0.274594 0.689574 6972779 3
0.291735 0.258352 0.648786 6643815 3
0.217963 0.269989 0.651161 7631475 3
0.240094 0.283496 0.683738 7039338 3
0.257122 0.277639 0.669611 6644582 3
0.256589 0.265702 0.640821 6775652 3
0.266425 0.265020 0.639177 7762547 3
0.277700 0.265767 0.640978 6578019 3
0.287782 0.265359 0.639996 6314849 3
0.297909 0.265020 0.639177 6512228 3
0.205009 0.263999 0.612462 7696500 3
0.214855 0.263741 0.611863 8025719 3
0.245641 0.288063 0.668288 7565684 3
0.251884 0.282753 0.655970 7500404 3
0.255151 0.274675 0.637230 6643812 3
0.264268 0.273284 0.634002 6643812 3
0.275445 0.274048 0.635773 6578019 3
0.286174 0.274325 0.636418 7301744 3
0.295497 0.273284 0.634002 6972779 3
0.107448 0.277617 0.697167 7236717 3
0.119224 0.278387 0.699100 7828340 3
0.188096 0.278387 0.699100 7104363 3
0.197167 0.275029 0.690668 6512226 3
0.112429 0.273344 0.659253 8223612 3
0.128842 0.285739 0.689147 8355198 3
0.140923 0.287300 0.692913 8092026 3
0.153235 0.289064 0.697167 7763063 3
0.164134 0.288102 0.694847 8025465 3
0.171942 0.282192 0.680593 7367537 3
0.171044 0.263589 0.635725 7827829 3
0.174086 0.252846 0.609816 6841191 3
0.196443 0.269800 0.650706 7959672 3
0.198594 0.258685 0.623898 7302512 3
0.181221 0.258750 0.600284 7104365 3
0.194535 0.263433 0.611148 7762295 3
0.050168 0.277361 0.696524 7762545 3
0.055059 0.247892 0.622519 7763061 3
0.064382 0.244484 0.613962 7566195 3
0.073992 0.242937 0.610076 8026487 3
0.091819 0.265523 0.666794 7302510 3
0.004415 0.288276 0.695267 7236203 3
0.015918 0.289866 0.699100 8091512 3
0.027396 0.289866 0.699100 7565168 3
0.038638 0.288102 0.694847 7564914 3
0.049021 0.282198 0.680608 8552061 3
0.054342 0.254755 0.614421 8157819 3
0.063634 0.251606 0.606824 7894649 3
0.073137 0.250032 0.603028 8223098 3
0.083199 0.250515 0.604194 8354684 3
0.094163 0.253324 0.610969 8420477 3
0.014886 0.281812 0.653787 7959926 3
-0.092663 0.260915 0.655223 6776166 3
-0.081948 0.261053 0.655569 7499891 3
-0.027989 0.259761 0.652324 7565682 3
-0.017293 0.259977 0.652868 7763315 3
-0.092277 0.270541 0.652493 7170924 3
-0.081563 0.270541 0.652493 7499121 3
-0.052780 0.288918 0.696815 7170926 3
-0.039791 0.278099 0.670721 7828088 3
-0.027094 0.261814 0.631445 7762547 3
-0.016808 0.263095 0.634534 8420475 3
-0.006897 0.284006 0.684969 8025719 3
-0.096782 0.294987 0.684352 7762293 3
-0.080889 0.278930 0.647101 7762293 3
-0.073684 0.292506 0.678597 7828086 3
-0.062726 0.293367 0.680593 7434098 3
-0.050827 0.289243 0.671027 7039340 3
-0.016680 0.271436 0.629715 8025719 3
-0.114299 0.261190 0.655913 6907754 3
-0.103017 0.259896 0.652664 6447201 3
-0.136199 0.272682 0.657656 7105135 3
-0.124416 0.270541 0.652493 7039342 3
-0.113703 0.270541 0.652493 7302512 3
-0.102990 0.270541 0.652493 6447203 3
-0.197038 0.263741 0.611863 6381408 3
-0.187679 0.264710 0.614111 6907752 3
-0.177596 0.264710 0.614111 6907752 3
-0.168135 0.265692 0.616390 7367789 3
-0.174503 0.293417 0.680709 7039338 3
-0.144042 0.277782 0.644438 7368307 3
-0.133393 0.277641 0.644109 7762810 3
-0.121909 0.275585 0.639341 7170158 3
-0.111839 0.276644 0.641797 7367537 3
-0.106189 0.289991 0.672761 7038570 3
-0.195511 0.271664 0.607118 7171435 3
-0.186719 0.273387 0.610969 6776420 3
-0.176903 0.273720 0.611713 7630961 3
-0.167024 0.273991 0.612319 6511967 3
-0.159424 0.278274 0.621890 7039340 3
-0.151013 0.281629 0.629389 7170926 3
-0.142214 0.284703 0.636258 7499891 3
-0.130738 0.282479 0.631287 7170926 3
-0.119919 0.281415 0.628909 7170926 3
-0.109292 0.280641 0.627180 7235949 3
-0.173640 0.278530 0.600430 5855064 3
-0.166008 0.282317 0.608594 6314847 3
-0.156399 0.283010 0.610088 6973547 3
-0.149818 0.289654 0.624410 6907754 3
-0.116640 0.283764 0.611713 7631477 3
-0.105748 0.281504 0.606841 7433328 3
-0.156320 0.292880 0.609782 7105133 3
-0.147964 0.296194 0.616682 7565684 3
-0.114543 0.288525 0.600715 7236719 3
-0.264212 0.260344 0.653788 4933962 3
-0.265022 0.272201 0.683565 5855577 3
-0.265224 0.251666 0.606971 6184544 3
-0.255258 0.251666 0.606971 6052445 3
-0.248687 0.255149 0.615371 6184029 3
-0.242255 0.259075 0.624840 6184029 3
-0.248000 0.276949 0.667947 6908778 3
-0.245219 0.286513 0.691014 6317155 3
-0.234780 0.287624 0.693694 5592918 3
-0.262556 0.259000 0.600865 6250337 3
-0.253295 0.259620 0.602302 6841961 3
-0.246142 0.262538 0.609073 7236717 3
-0.239682 0.266475 0.618205 6249822 3
-0.229814 0.266803 0.618966 6842472 3
-0.219057 0.266081 0.617291 6908778 3
-0.208562 0.265623 0.616228 6776679 3
-0.236946 0.273467 0.611148 7368814 3
-0.205429 0.271598 0.606971 6842472 3
-0.292013 0.288459 0.600577 5329233 3
-0.266252 0.300346 0.786681 4869709 3
-0.278819 0.312871 0.785697 4474951 3
-0.265419 0.312283 0.784222 5066574 3
-0.249585 0.308626 0.775037 5264467 3
-0.235755 0.307186 0.771421 5527125 3
-0.222270 0.306057 0.768587 6578787 3
-0.208434 0.304282 0.764129 6249308 3
-0.200887 0.312048 0.783632 5460308 3
-0.230088 0.312163 0.752877 6316128 3
-0.218449 0.313200 0.755377 6907752 3
-0.206420 0.313766 0.756744 6512480 3
0.335264 0.253876 0.694847 6381410 3
0.345708 0.253170 0.692913 5526101 3
0.359277 0.254724 0.697167 5328722 3
0.321908 0.263689 0.690668 6972779 3
0.329417 0.260658 0.682729 6381410 3
0.337683 0.258405 0.676827 5855066 3
0.347850 0.257705 0.674993 5788505 3
0.367746 0.264032 0.691567 5920092 3
0.387681 0.262156 0.686652 5460308 3
0.302541 0.258483 0.649116 6906986 3
0.320379 0.264408 0.663996 6776168 3
0.327222 0.261169 0.655860 5920857 3
0.335035 0.258885 0.650126 6380640 3
0.348420 0.260915 0.655223 6314849 3
0.359273 0.260984 0.655396 6644584 3
0.371394 0.261943 0.657804 5460310 3
0.380695 0.260915 0.655223 5985882 3
0.394832 0.263167 0.660879 5065552 3
0.308404 0.265020 0.639177 6512996 3
0.318817 0.264953 0.639015 6381408 3
0.328054 0.263943 0.636579 6183515 3
0.340414 0.265430 0.640166 6578021 3
0.352000 0.266244 0.642128 6381412 3
0.365164 0.268168 0.646769 6381412 3
0.372894 0.266106 0.641797 6380643 3
0.383431 0.266106 0.641797 6314850 3
0.316476 0.264710 0.614111 6841443 3
0.331969 0.269095 0.624285 6709605 3
0.344928 0.271226 0.629228 6512998 3
0.357865 0.273215 0.633842 6381157 3
0.366879 0.272182 0.631445 5393494 3
0.378393 0.273009 0.633364 6446182 3
0.335218 0.273631 0.611514 6446433 3
0.350419 0.277721 0.620655 5459540 3
0.360967 0.277996 0.621269 5591126 3
0.369791 0.276966 0.618966 6446182 3
0.688327 0.302333 0.866407 2302504 3
0.670838 0.315026 0.862211 3289141 3
0.625520 0.313562 0.821297 3289139 3
0.669452 0.328503 0.860431 3157553 3
0.683115 0.328280 0.859846 2960174 3
0.690124 0.324932 0.851078 3552313 3
0.698892 0.322530 0.844787 3223348 3
0.695089 0.314532 0.823839 2433832 3
0.665293 0.320228 0.804173 2828590 3
0.208906 0.270941 0.776445 6249308 3
0.221310 0.270521 0.775240 6183515 3
0.234039 0.270521 0.775240 6447203 3
0.251961 0.276214 0.791555 6381410 3
0.200863 0.272768 0.746554 7039338 3
0.209516 0.268154 0.733926 7631475 3
0.220915 0.267366 0.731768 7630707 3
0.232930 0.267366 0.731768 8749188 3
0.251485 0.274504 0.751306 8026746 3
0.278290 0.289561 0.792514 7434609 3
0.201944 0.270078 0.707402 7301996 3
0.212954 0.269313 0.705398 7631475 3
0.224536 0.269313 0.705398 7302510 3
0.240627 0.274456 0.718869 7631988 3
0.263077 0.286032 0.749188 7302510 3
0.251739 0.285476 0.716901 7039338 3
0.262799 0.296445 0.714968 6907754 3
0.198374 0.274003 0.785220 7038570 3
0.194473 0.281255 0.769780 7697270 3
0.109396 0.270996 0.709807 7039338 3
0.121392 0.271761 0.711811 6578273 3
0.135645 0.277000 0.725532 7762547 3
0.151777 0.284922 0.746281 6972777 3
0.165480 0.287440 0.752877 7696500 3
0.177788 0.287354 0.752652 7828856 3
0.189293 0.286065 0.749275 7631477 3
0.198021 0.280993 0.735992 8486270 3
0.132337 0.281867 0.707839 8025719 3
0.145680 0.285237 0.716301 8157051 3
0.157889 0.286049 0.718341 7301742 3
0.169684 0.286049 0.718341 7499891 3
0.178136 0.280781 0.705113 7105133 3
0.104932 0.301907 0.865185 7236971 3
0.119138 0.301907 0.865185 7368303 3
0.133297 0.301803 0.864888 7499889 3
0.104392 0.314484 0.860728 7368557 3
0.119593 0.317320 0.868489 7170924 3
0.133071 0.315467 0.863419 8157819 3
0.145263 0.311216 0.851785 7368305 3
0.004939 0.271446 0.777891 8157051 3
0.017739 0.271866 0.779097 7696500 3
0.004874 0.280472 0.767639 7499121 3
0.017473 0.280387 0.767405 7762293 3
0.029954 0.279276 0.764365 7894133 3
0.042936 0.282118 0.772144 7762547 3
0.004828 0.290319 0.760418 7564914 3
0.017377 0.291384 0.763206 7630707 3
0.029531 0.287703 0.753566 6841445 3
0.042544 0.292102 0.765088 6973031 3
0.056165 0.297715 0.779791 7564653 3
0.064309 0.277602 0.727110 8026233 3
0.075546 0.275048 0.720420 7434609 3
0.086043 0.270857 0.709443 7171689 3
0.097135 0.269313 0.705398 7105131 3
0.004609 0.289055 0.725890 7762293 3
0.016373 0.286360 0.719121 7959672 3
0.027894 0.283449 0.711811 7828340 3
0.039336 0.281693 0.707402 7959926 3
-0.196299 0.306459 0.878231 5987165 3
-0.181435 0.305710 0.876084 6316130 3
-0.165258 0.302431 0.866687 6053215 3
-0.150197 0.300766 0.861916 5789786 3
-0.194457 0.317869 0.869991 6381923 3
-0.184444 0.325404 0.890616 6052958 3
-0.166423 0.318892 0.872793 6052958 3
-0.146648 0.307478 0.841552 5789786 3
-0.130525 0.302140 0.826942 6512994 3
-0.198558 0.315948 0.827547 6052704 3
-0.191871 0.327736 0.858422 5921372 3
-0.177480 0.327189 0.856989 6579302 3
-0.161083 0.322530 0.844787 6381923 3
-0.114528 0.309186 0.809836 6513505 3
-0.100195 0.306021 0.801546 6315615 3
-0.192455 0.319407 0.802112 6316130 3
-0.184383 0.328489 0.824920 6710634 3
0.005261 0.275531 0.828584 7302514 3
0.020144 0.294193 0.884706 7105135 3
0.031746 0.282687 0.810107 8025719 3
0.046166 0.289710 0.830230 7828340 3
0.060480 0.293014 0.839700 8617602 3
0.057840 0.293409 0.803047 7367276 3
-0.033420 0.259006 0.778892 6906727 3
-0.020535 0.257792 0.775240 7038570 3
-0.007833 0.258674 0.777891 7696500 3
-0.033682 0.273925 0.784996 7301742 3
-0.020333 0.267868 0.767639 7301742 3
-0.007782 0.269692 0.772865 7499891 3
-0.060518 0.291920 0.798972 7235949 3
-0.047151 0.290385 0.794771 7367789 3
-0.031417 0.267524 0.732200 7236203 3
-0.019759 0.272552 0.745961 7697268 3
-0.007625 0.276673 0.757242 6973545 3
-0.058904 0.296903 0.777662 7170156 3
-0.043671 0.281043 0.736122 7631477 3
-0.030858 0.274575 0.719181 7171178 3
-0.019515 0.281277 0.736733 6973799 3
-0.007552 0.286337 0.749989 6842213 3
-0.080293 0.294460 0.739463 7565684 3
-0.055748 0.293077 0.735991 7696500 3
-0.041553 0.278910 0.700412 7170926 3
-0.007083 0.280111 0.703430 7763315 3
-0.076768 0.293139 0.706995 7038570 3
-0.065772 0.295894 0.713639 7828856 3
0.167441 0.283112 0.895605 6643555 3
0.178740 0.277817 0.878855 6973294 3
0.189382 0.272370 0.861623 6381157 3
0.199507 0.266988 0.844596 6841191 3
0.152894 0.298124 0.896527 7696500 3
0.160765 0.285942 0.859895 6577762 3
0.173032 0.282915 0.850791 7630709 3
0.186053 0.281481 0.846478 7828088 3
0.198824 0.279894 0.841705 8025465 3
0.146186 0.299120 0.857198 7499121 3
0.157009 0.293051 0.839807 7499121 3
0.168511 0.289128 0.828563 7367537 3
0.181457 0.288082 0.825565 6906984 3
0.192931 0.285007 0.816755 7367535 3
0.152487 0.298002 0.815617 7630707 3
0.166475 0.299074 0.818553 8288380 3
0.179563 0.298489 0.816951 7499121 3
0.189009 0.292353 0.800155 7630707 3
0.022138 0.307352 0.972286 7499893 3
0.037797 0.304891 0.964499 7302512 3
0.035551 0.301668 0.907186 7894649 3
0.051037 0.305204 0.917820 7565684 3
0.066643 0.307678 0.925259 7170156 3
0.082382 0.309736 0.931448 7433071 3
0.096597 0.306317 0.921167 7894133 3
-0.094467 0.275015 0.869991 7301996 3
-0.080182 0.275015 0.869991 6116957 3
-0.065400 0.272938 0.863419 6511462 3
-0.051046 0.271993 0.860431 7367024 3
-0.036919 0.271993 0.860431 7104106 3
-0.022998 0.274462 0.868239 7433328 3
-0.009031 0.283519 0.896893 7104363 3
-0.091419 0.279967 0.841927 6578273 3
-0.077596 0.279967 0.841927 7104365 3
-0.063772 0.279967 0.841927 7038060 3
-0.049412 0.276963 0.832892 6774887 3
-0.089495 0.287606 0.824202 7302510 3
-0.075962 0.287606 0.824202 6906984 3
-0.062429 0.287606 0.824202 7433330 3
-0.048547 0.285546 0.818300 7367535 3
-0.087935 0.295890 0.809836 6710373 3
-0.073874 0.292861 0.801546 7236719 3
-0.196299 0.277620 0.878231 4934477 3
-0.182071 0.277912 0.879155 5066063 3
-0.167041 0.276925 0.876033 5658457 3
-0.127219 0.284368 0.899577 6184542 3
-0.109523 0.276969 0.876170 5197134 3
-0.195204 0.290411 0.873333 5592407 3
-0.181117 0.290815 0.874548 5395028 3
-0.166246 0.289923 0.871866 5790043 3
-0.156832 0.299276 0.899991 6053215 3
-0.137762 0.290232 0.872793 6447714 3
-0.120774 0.283982 0.854001 6842472 3
-0.105600 0.280918 0.844787 6446687 3
-0.132831 0.293660 0.841552 5987163 3
-0.116947 0.288562 0.826942 7236717 3
-0.103027 0.287606 0.824202 7499889 3
-0.115725 0.298982 0.818300 6710373 3
-0.101954 0.298002 0.815617 7105131 3
-0.249736 0.245147 0.775504 5460567 3
-0.232464 0.240452 0.760652 5461081 3
-0.223759 0.244588 0.773736 5066322 3
-0.292176 0.261678 0.786927 6776168 3
-0.281205 0.263505 0.792419 5789786 3
-0.268623 0.263926 0.793686 6184544 3
-0.249422 0.257556 0.774531 5658460 3
-0.233527 0.254097 0.764129 5526873 3
-0.223504 0.256999 0.772854 5592666 3
-0.291633 0.274088 0.785464 5328720 3
-0.278819 0.274170 0.785697 6052956 3
-0.265255 0.273486 0.783737 5724504 3
-0.249348 0.270192 0.774299 5790815 3
-0.232464 0.265430 0.760652 4869713 3
-0.222203 0.268118 0.768355 4868941 3
-0.290715 0.286082 0.782992 5657685 3
-0.278819 0.287070 0.785697 5921883 3
-0.265255 0.286354 0.783737 4869709 3
-0.249498 0.283076 0.774765 3290938 3
-0.234599 0.280472 0.767639 4738125 3
-0.222064 0.280559 0.767876 5592664 3
-0.211863 0.283782 0.776698 6118749 3
-0.202201 0.288188 0.788757 5526360 3
-0.289269 0.297450 0.779097 5395026 3
-0.277515 0.298567 0.782021 5461846 3
-0.250431 0.296903 0.777662 3685435 3
-0.236922 0.295978 0.775240 4803402 3
-0.223434 0.294975 0.772614 5789784 3
-0.211139 0.295522 0.774046 6644580 3
-0.265938 0.285220 0.716260 5263953 3
-0.229406 0.295369 0.712374 6447714 3
-0.369435 0.224990 0.711740 7828858 3
-0.379327 0.235562 0.708391 5920861 3
-0.371961 0.238295 0.716607 6579302 3
-0.392625 0.248247 0.711410 6118238 3
-0.377514 0.246012 0.705005 6118240 3
-0.383764 0.266423 0.763497 5460821 3
-0.332609 0.275986 0.790901 6447203 3
-0.320739 0.276949 0.793661 6841961 3
-0.307124 0.276423 0.792156 5394513 3
-0.353071 0.256648 0.702433 5855579 3
-0.371561 0.279209 0.764181 5263442 3
-0.330938 0.287519 0.786927 6315617 3
-0.319121 0.288518 0.789659 6184031 3
-0.306446 0.288791 0.790407 6841445 3
-0.392714 0.298293 0.781303 5526612 3
-0.329283 0.298938 0.782992 6644582 3
-0.316627 0.299126 0.783486 4670790 3
-0.321601 0.293077 0.735991 5789786 3
-0.304892 0.288698 0.724993 4868171 3
-0.214706 0.268180 0.894848 5067092 3
-0.286453 0.255169 0.807208 6052445 3
-0.272605 0.254613 0.805451 5197649 3
-0.235999 0.273496 0.865185 4934736 3
-0.221871 0.273591 0.865485 4605258 3
-0.209543 0.276072 0.873333 5065809 3
-0.232231 0.283107 0.851369 5461078 3
-0.219445 0.284655 0.856023 3947328 3
-0.207304 0.287307 0.863999 5921118 3
-0.226095 0.289237 0.828875 5263442 3
-0.219445 0.298710 0.856023 5592153 3
-0.363354 0.203360 0.678560 5131090 3
-0.380678 0.218043 0.689764 6841963 3
-0.374352 0.220994 0.699100 7368307 3
-0.385274 0.232137 0.698091 6644584 3
-0.362976 0.244020 0.699296 5987165 3
-0.385295 0.255075 0.698129 5788503 3
-0.374248 0.255359 0.698906 5262929 3
-0.361464 0.254437 0.696383 5395028 3
-0.360360 0.265059 0.694256 6250083 3
-0.379062 0.284780 0.686835 5460821 3
-0.367785 0.284780 0.686835 5658200 3
-0.375268 0.293095 0.679961 5789786 3
-0.339925 0.273631 0.634807 5855579 3
-0.324778 0.269708 0.625706 6250596 3
-0.302668 0.259557 0.602157 6053469 3
0.651601 0.300694 1.061493 3551544 3
0.675737 0.303709 1.072136 4670025 3
0.688339 0.301518 1.064402 3156785 3
0.620842 0.303106 1.011386 3024946 3
0.653640 0.310805 1.037076 3617337 3
0.655889 0.303956 1.014223 5064783 3
0.427613 0.251050 0.886242 4342599 3
0.422299 0.253669 0.846426 3882049 3
0.400190 0.253558 0.802112 4407880 3
0.428287 0.262714 0.831077 4078915 3
0.457961 0.272243 0.861221 3618877 3
0.476421 0.274734 0.869100 4079942 3
0.482654 0.270234 0.854866 4144707 3
0.472921 0.257302 0.813957 4999757 3
0.432314 0.270345 0.812989 4079428 3
0.462220 0.280389 0.843194 3882048 3
0.470904 0.277350 0.834054 4210754 3
0.442869 0.281915 0.807893 5657946 3
-0.058530 0.279474 0.986583 5393747 3
-0.041995 0.277252 0.978740 5591126 3
-0.026151 0.279665 0.987258 5722710 3
-0.009984 0.280874 0.991524 5262159 3
-0.088344 0.287272 0.958552 5459538 3
-0.071728 0.283798 0.946959 5195856 3
-0.055508 0.280406 0.935643 5920092 3
-0.040495 0.282847 0.943785 5854298 3
-0.026020 0.294398 0.982329 6709605 3
-0.010044 0.298927 0.997442 5985882 3
-0.194204 0.265638 0.937741 4737098 3
-0.186722 0.270209 0.901617 4408131 3
-0.140691 0.298147 0.994838 5132367 3
-0.122345 0.293322 0.978740 5131343 3
-0.105373 0.290833 0.970433 5854296 3
-0.147641 0.295686 0.935383 5921883 3
-0.341469 0.300374 1.060364 5460310 3
-0.392394 0.303317 1.012091 6709346 3
-0.372712 0.300843 1.003836 5985882 3
-0.361490 0.305286 1.018659 6117470 3
-0.337697 0.314274 1.048650 5920859 3
-0.392941 0.245510 0.866687 6051164 3
-0.391459 0.258761 0.863419 7498611 3
-0.380716 0.261116 0.871277 6643302 3
-0.395688 0.275886 0.872746 7695736 3
-0.378054 0.273496 0.865185 6972267 3
-0.363600 0.273309 0.864594 6841963 3
-0.345473 0.270234 0.854866 6578789 3
-0.321488 0.262122 0.829205 5723480 3
-0.300682 0.256000 0.809836 5591894 3
-0.388639 0.285046 0.857198 6577509 3
-0.370774 0.282161 0.848525 6906987 3
-0.348912 0.275891 0.829668 6512998 3
-0.330696 0.272111 0.818300 5789786 3
-0.311491 0.267163 0.803420 6315617 3
-0.365375 0.291781 0.836168 5591896 3
-0.376834 0.293068 0.802112 5460308 3
-0.365974 0.294930 0.807208 5592407 3
-0.352167 0.294466 0.805941 6513509 3
0.763600 0.216264 0.810415 2893362 3
0.793330 0.220836 0.827547 2170407 3
0.755110 0.231044 0.815617 1248024 3
0.779743 0.234423 0.827547 1116949 3
0.714275 0.253715 0.846579 1907746 3
0.726301 0.248321 0.828584 2104612 3
0.754375 0.253177 0.844787 1906718 3
0.765644 0.252320 0.841927 2432549 3
0.779468 0.252320 0.841927 1971745 3
0.793292 0.252320 0.841927 2432809 3
0.721470 0.270310 0.855106 2302506 3
0.746019 0.269037 0.851078 2170407 3
0.765735 0.271069 0.857508 2433063 3
0.776625 0.269961 0.854001 2433063 3
0.787941 0.269037 0.851078 2959407 3
0.795986 0.267048 0.844787 2696749 3
0.701806 0.287801 0.865485 1908005 3
0.774117 0.299276 0.899991 2499372 3
0.770815 0.292417 0.879366 2630958 3
0.776882 0.289300 0.869991 2959407 3
0.785189 0.287114 0.863419 2498856 3
0.796599 0.286121 0.860431 1775647 3
0.581019 0.217652 0.815617 3026227 3
0.596550 0.218435 0.818553 2763057 3
0.590241 0.234711 0.828563 3355192 3
0.502180 0.266562 0.889450 3749949 3
0.515969 0.266142 0.888048 3618106 3
0.593381 0.249636 0.832970 2697264 3
0.597453 0.271374 0.858474 3486265 3
0.584253 0.259262 0.820157 2894643 3
0.573570 0.267741 0.805160 3947331 3
0.541192 0.263455 0.987258 3289912 3
0.550089 0.259999 0.974305 2631471 3
0.562081 0.258159 0.967412 3223095 3
0.585670 0.261601 0.980309 3024946 3
0.509718 0.271534 0.958552 3289398 3
0.523437 0.270490 0.954868 3355705 3
0.531683 0.266761 0.941705 3355192 3
0.533930 0.260318 0.918960 2762542 3
0.580143 0.275076 0.971058 4077888 3
0.562973 0.282407 0.942318 3353911 3
0.553178 0.284867 0.901157 3881023 3
0.310293 0.260133 0.974809 4144448 3
0.308199 0.245705 0.920740 3946816 3
0.316844 0.240786 0.902308 4407622 3
0.347582 0.241556 0.905193 3618363 3
0.362445 0.241556 0.905193 3749692 3
0.305118 0.271534 0.958552 4605512 3
0.308970 0.261474 0.923042 4407622 3
0.303945 0.286168 0.954868 4079425 3
0.318261 0.284949 0.950799 4342340 3
0.101367 0.257958 0.966657 5064523 3
0.117239 0.257958 0.966657 5525331 3
0.133110 0.257958 0.966657 5196620 3
0.151952 0.263100 0.985927 4537925 3
0.111722 0.260943 0.921167 6511967 3
0.129047 0.265470 0.937146 6775398 3
0.150347 0.276338 0.975512 5919832 3
0.167964 0.278996 0.984896 5590613 3
0.112383 0.277702 0.926618 7104104 3
0.128648 0.279988 0.934247 6906986 3
0.146339 0.284562 0.949508 7762036 3
0.162165 0.284976 0.950890 6906727 3
0.177507 0.284542 0.949443 6117985 3
0.113729 0.296424 0.937715 6709859 3
0.129174 0.296535 0.938068 7236203 3
0.161144 0.298696 0.944902 7696243 3
0.071966 0.266635 0.999174 4605512 3
0.086172 0.259999 0.974305 5327952 3
0.006326 0.282219 0.996273 4998989 3
0.022285 0.277252 0.978740 5262929 3
0.038355 0.277252 0.978740 6381410 3
0.054425 0.277252 0.978740 6118497 3
0.069896 0.274899 0.970433 5197138 3
0.084623 0.271033 0.956787 5130575 3
0.097133 0.262391 0.926277 5459281 3
0.006326 0.298577 0.996273 6446435 3
0.022267 0.293096 0.977985 6380640 3
0.037881 0.289701 0.966657 7697270 3
0.053753 0.289701 0.966657 5526103 3
0.068471 0.284902 0.950643 6710122 3
0.083374 0.282510 0.942662 7038059 3
0.097711 0.279251 0.931789 7037543 3
0.051833 0.294659 0.932133 6447203 3
0.067694 0.297100 0.939854 6578019 3
0.083783 0.299452 0.947295 6906727 3
0.099075 0.298663 0.944798 6906727 3
-0.182091 0.307855 1.153640 4210752 3
-0.167542 0.316145 1.184704 4605510 3
-0.145207 0.309989 1.161636 4934477 3
-0.129494 0.318246 1.192578 4736583 3
-0.109600 0.317340 1.189182 4999755 3
-0.178177 0.319772 1.128841 4342338 3
-0.158188 0.316860 1.118560 4802889 3
-0.138469 0.313792 1.107729 4999757 3
-0.242137 0.312006 1.169194 4868171 3
-0.224511 0.314204 1.177432 5065548 3
-0.202067 0.309439 1.159575 5000268 3
-0.226212 0.336063 1.186352 4473924 3
-0.202553 0.329268 1.162363 4868682 3
-0.200471 0.344772 1.150416 5724504 3
-0.386691 0.304892 1.142536 6446436 3
-0.365938 0.303241 1.136347 5920606 3
-0.352028 0.307386 1.151880 5789022 3
-0.381300 0.319139 1.126607 6051677 3
-0.377737 0.334483 1.116081 5789273 3
-0.491467 0.311860 1.168645 5591127 3
-0.471424 0.311295 1.166528 4801610 3
-0.440363 0.303098 1.135814 4472384 3
-0.427522 0.307273 1.151459 5722453 3
-0.406566 0.305731 1.145681 5196369 3
-0.468334 0.315465 1.113637 5591127 3
-0.451838 0.316719 1.118064 5788503 3
-0.431182 0.315040 1.112136 5195337 3
-0.421326 0.321452 1.134771 6577762 3
-0.400703 0.319862 1.129158 5985371 3
-0.408040 0.240168 0.899991 5196368 3
-0.420817 0.245170 0.865485 6446433 3
-0.408723 0.246447 0.869991 6381412 3
-0.441186 0.254732 0.849974 5131605 3
-0.423008 0.260731 0.869991 7564403 3
-0.408723 0.260731 0.869991 7301745 3
-0.437292 0.275015 0.869991 7499891 3
-0.423609 0.275406 0.871227 7301745 3
-0.417719 0.281068 0.889139 7498870 3
-0.444704 0.294203 0.884737 7105133 3
-0.426873 0.291943 0.877941 7828858 3
-0.410583 0.290616 0.873950 6512229 3
0.630218 0.221557 0.884681 2631469 3
0.600402 0.206319 0.823839 1512990 3
0.607802 0.204260 0.815617 2631471 3
0.621194 0.204260 0.815617 2236713 3
0.634585 0.204260 0.815617 2565678 3
0.643384 0.202813 0.809836 1776673 3
0.649958 0.200736 0.801546 2237224 3
0.618945 0.237330 0.889355 3354934 3
0.608796 0.218008 0.816951 2763057 3
0.621194 0.217652 0.815617 2565678 3
0.634585 0.217652 0.815617 2170920 3
0.647977 0.217652 0.815617 1842466 3
0.661368 0.217652 0.815617 1842466 3
0.669552 0.215972 0.809321 2763055 3
0.609298 0.248005 0.875493 3223093 3
0.606054 0.235569 0.831593 3618364 3
0.620734 0.235959 0.832970 2434092 3
0.631895 0.235024 0.829668 2763057 3
0.636673 0.231804 0.818300 2433838 3
0.647977 0.231044 0.815617 2565937 3
0.611407 0.263288 0.878523 2565163 3
0.609494 0.250638 0.836314 2631469 3
0.629740 0.253258 0.845056 3092020 3
0.642315 0.252746 0.843349 2236713 3
0.659951 0.254206 0.848219 2499631 3
0.671151 0.253177 0.844787 2434353 3
0.677047 0.250230 0.834952 3223867 3
0.679906 0.246299 0.821836 1973541 3
0.605263 0.262534 0.830509 3355192 3
0.624053 0.264721 0.837425 2828848 3
0.635471 0.263753 0.834362 2236711 3
0.652878 0.265259 0.839128 2368299 3
0.668879 0.266144 0.841927 1579042 3
0.682703 0.266144 0.841927 2697523 3
0.697483 0.266509 0.843084 2236972 3
0.603308 0.275278 0.827826 3618364 3
0.623846 0.278378 0.837146 2697262 3
0.632103 0.275982 0.829940 2828848 3
0.652478 0.278866 0.838613 1973539 3
0.680314 0.284754 0.856320 2960182 3
0.646573 0.289987 0.831024 2367784 3
0.609604 0.262760 1.049206 2433581 3
0.603840 0.253122 1.010722 3156786 3
0.639724 0.260991 1.042145 3156785 3
0.679545 0.270015 1.078177 3288371 3
0.683730 0.264780 1.057275 3288369 3
0.631598 0.274570 1.028908 3288372 3
0.675174 0.285867 1.071242 3222578 3
0.679670 0.280464 1.050996 3551543 3
0.681370 0.274204 1.027536 3025969 3
0.690995 0.271358 1.016873 3223348 3
0.675426 0.288536 1.018574 3683899 3
0.299962 0.224424 0.896131 4406853 3
0.206053 0.257827 0.815617 6446174 3
0.222655 0.261598 0.827547 6248795 3
0.237790 0.263313 0.832970 5722964 3
0.267549 0.280152 0.886242 5986652 3
0.206053 0.271219 0.815617 7170410 3
0.218663 0.270252 0.812711 7564655 3
0.232769 0.271140 0.815381 7170410 3
0.251467 0.276989 0.832970 7105133 3
0.265322 0.277175 0.833530 6447716 3
0.277325 0.289107 0.828503 6513507 3
-0.241997 0.236410 0.943992 6118751 3
-0.255595 0.250050 0.937022 5263442 3
-0.237543 0.247273 0.926618 5131856 3
-0.222495 0.247458 0.927311 4605772 3
-0.212821 0.254086 0.952148 3816256 3
-0.283565 0.277762 0.980541 5000016 3
-0.255595 0.265435 0.937022 5789784 3
-0.236582 0.261426 0.922871 4802637 3
-0.220132 0.259894 0.917464 5066322 3
-0.205520 0.260467 0.919484 4408392 3
-0.278711 0.288832 0.963757 6315876 3
-0.249620 0.274255 0.915119 6053469 3
-0.231051 0.270113 0.901295 5592664 3
-0.201603 0.270312 0.901960 5067092 3
-0.468217 0.241164 0.962973 3223344 3
-0.466145 0.248488 0.992218 4407620 3
-0.468217 0.256975 0.962973 4801608 3
-0.452179 0.256846 0.962490 4670792 3
-0.477137 0.268902 0.949263 5394517 3
-0.466575 0.278191 0.928250 6512228 3
0.317609 0.202210 0.864081 3748669 3
0.304261 0.216997 0.866473 3486265 3
0.316486 0.215633 0.861028 3881023 3
0.334065 0.217878 0.869991 3223606 3
0.325671 0.236438 0.886015 4539206 3
0.312329 0.251959 0.889450 4539206 3
0.325433 0.250803 0.885369 4078653 3
0.343488 0.253398 0.894530 4078655 3
0.356267 0.252048 0.889764 3552311 3
0.364017 0.247386 0.873308 4012862 3
0.357081 0.233476 0.824202 3749690 3
0.367959 0.231804 0.818300 3750203 3
0.385705 0.234423 0.827547 3684156 3
0.312440 0.266657 0.889764 4802889 3
0.328333 0.267704 0.893259 4934216 3
0.343488 0.268085 0.894530 4539204 3
0.356267 0.266657 0.889764 5131345 3
0.364017 0.261725 0.873308 5591896 3
0.354523 0.245239 0.818300 6184033 3
0.364153 0.242703 0.809836 5263188 3
0.373586 0.240218 0.801546 4078915 3
0.391026 0.242876 0.810415 3618877 3
0.307203 0.276552 0.874852 5789784 3
0.324065 0.278700 0.881648 6907752 3
0.339608 0.279578 0.884426 6841959 3
0.352264 0.278105 0.879766 6184033 3
0.350562 0.265860 0.841029 6579048 3
0.353361 0.257827 0.815617 5131602 3
0.361607 0.254209 0.804173 4868430 3
0.300053 0.298083 0.896405 6447714 3
0.313472 0.296852 0.892704 6447714 3
0.324630 0.293687 0.883184 5723478 3
0.338415 0.293067 0.881320 5394513 3
0.352388 0.292654 0.880077 5855068 3
0.366980 0.292767 0.880417 5591896 3
0.348403 0.267413 0.804173 5197138 3
0.344059 0.299845 0.859274 6973547 3
0.343397 0.287479 0.823839 6249824 3
0.348403 0.280617 0.804173 5986654 3
0.335199 0.293821 0.804173 7104617 3
0.325970 0.301948 1.290279 4144450 3
0.303205 0.321459 1.283594 4736835 3
0.317203 0.314443 1.255579 5065550 3
0.330800 0.307910 1.229494 4078917 3
0.349255 0.306391 1.223425 4538953 3
0.303205 0.342534 1.283594 5328204 3
0.324281 0.342534 1.283594 4933964 3
0.334226 0.331496 1.242228 5065297 3
-0.097226 0.300384 1.283594 5065550 3
-0.077023 0.303826 1.298302 5262161 3
-0.094140 0.311254 1.242845 4539206 3
-0.073733 0.311254 1.242845 4802380 3
-0.052754 0.307910 1.229494 4802380 3
-0.032406 0.306391 1.223425 4933964 3
-0.286615 0.300081 1.282300 5196883 3
-0.290055 0.302750 1.208888 4473673 3
-0.283614 0.317772 1.268873 4473673 3
-0.249470 0.301677 1.204603 4736587 3
-0.229474 0.301391 1.203462 4868169 3
-0.448833 0.241671 1.110627 3354934 3
-0.439958 0.246925 1.134771 3683897 3
-0.475202 0.264433 1.129969 3157555 3
-0.438969 0.264959 1.132220 3419955 3
-0.425586 0.268241 1.146244 3618104 3
-0.408806 0.269587 1.151992 4013121 3
-0.443373 0.286394 1.143579 5459792 3
-0.427522 0.288368 1.151459 5327952 3
-0.408806 0.288501 1.151992 4999504 3
0.650412 0.158491 0.728365 1380893 3
0.653192 0.174385 0.745178 1512990 3
0.656520 0.172051 0.735204 1446943 3
0.678008 0.174474 0.745560 2039080 3
0.669426 0.198702 0.793423 1578781 3
0.679034 0.197707 0.789447 1447197 3
0.668187 0.190904 0.762286 1447195 3
0.671105 0.188212 0.751537 1644061 3
0.682863 0.188052 0.750898 2565167 3
0.665730 0.198946 0.745518 1709854 3
0.676808 0.198605 0.744239 2235432 3
0.659812 0.235108 1.168645 2302504 3
0.669015 0.231650 1.151459 2565676 3
0.687921 0.231650 1.151459 2170918 3
0.659812 0.254296 1.168645 2105125 3
0.669015 0.250556 1.151459 1973539 3
0.687921 0.250556 1.151459 2302504 3
0.646784 0.276113 1.179882 3223606 3
0.653141 0.270719 1.156830 2631469 3
0.669015 0.269462 1.151459 2434092 3
0.687921 0.269462 1.151459 2170405 3
0.615028 0.289654 1.156594 3618363 3
0.622056 0.284188 1.134771 3487291 3
0.640687 0.284188 1.134771 2631471 3
-0.161778 0.260367 1.294202 3158066 3
-0.199335 0.274803 1.262890 4013121 3
-0.181528 0.279308 1.283594 3486777 3
-0.157864 0.274803 1.262890 3947069 3
-0.193201 0.286444 1.224027 4934477 3
-0.174381 0.288557 1.233058 4144961 3
-0.151690 0.283979 1.213495 4868171 3
-0.135151 0.291276 1.244676 4407872 3
-0.117705 0.298870 1.277124 4473665 3
-0.350130 0.258233 1.283594 3881787 3
-0.329055 0.258233 1.283594 3289650 3
-0.305476 0.256133 1.273158 4144707 3
-0.348402 0.281931 1.204741 5393748 3
-0.341391 0.292886 1.251554 5394515 3
-0.316100 0.288557 1.233058 4934223 3
-0.304190 0.296688 1.267801 5460568 3
-0.357151 0.235108 1.168645 2565165 3
-0.337963 0.235108 1.168645 4209988 3
-0.368098 0.248727 1.143054 3814462 3
-0.357151 0.254296 1.168645 4077634 3
-0.337963 0.254296 1.168645 4670539 3
-0.301840 0.256208 1.177432 5131856 3
-0.392597 0.271458 1.159988 5065552 3
-0.373726 0.271584 1.160529 5591127 3
-0.362774 0.277789 1.187044 5261908 3
-0.392417 0.290370 1.159455 5525850 3
-0.371328 0.288774 1.153082 6643561 3
-0.363614 0.297967 1.189790 5920608 3
-1.374006 0.414532 2.060506 2302755 3
-1.305811 0.403903 2.007672 2236449 3
-1.374006 0.448363 2.060506 2500134 3
-1.305811 0.436867 2.007672 2368550 3
-1.374006 0.482195 2.060506 2763308 3
-1.340175 0.482195 2.060506 2960687 3
0.014623 0.425489 2.302918 2959921 3
0.052435 0.425489 2.302918 3552313 3
0.092981 0.438382 2.372703 3486520 3
0.014623 0.463300 2.302918 3157300 3
0.052435 0.463300 2.302918 3025969 3
0.092981 0.477340 2.372703 3486518 3
-0.165891 0.223407 1.327105 2762793 3
-0.141700 0.219684 1.304987 2829612 3
-0.174778 0.258332 1.398200 3421236 3
-0.151821 0.258332 1.398200 3223857 3
-0.186104 0.264743 1.315953 2762797 3
-0.151821 0.281289 1.398200 3092271 3
-0.144102 0.288776 1.327105 3683895 3
-0.124421 0.293755 1.349986 3618102 3
-0.102255 0.293755 1.349986 3025969 3
-0.244754 0.216082 1.283594 3288886 3
-0.265829 0.237158 1.283594 3091507 3
-0.242764 0.235230 1.273158 3880508 3
-0.225527 0.239118 1.294202 3683130 3
-0.286904 0.258233 1.283594 4275781 3
-0.263668 0.256133 1.273158 3420727 3
-0.240806 0.254068 1.262890 4406850 3
-0.221860 0.256133 1.273158 3946301 3
-0.204277 0.260367 1.294202 3157555 3
-0.298202 0.270441 1.242845 5065809 3
-0.284572 0.277038 1.273158 5262676 3
-0.261541 0.274803 1.262890 5394515 3
-0.236984 0.270441 1.242845 4012862 3
-0.218310 0.272605 1.252787 3815483 3
-0.261282 0.295246 1.261638 4802378 3
-0.236752 0.290564 1.241631 4999755 3
-0.213193 0.286303 1.223425 4276034 3
0.416122 0.454518 2.699973 2565678 3
0.445105 0.439367 2.609974 2236970 3
0.487958 0.439367 2.609974 2302252 3
0.416122 0.498849 2.699973 2828847 3
0.445105 0.482221 2.609974 3157812 3
0.487958 0.482221 2.609974 3092533 3
0.015066 0.360467 2.372703 2235430 3
0.054023 0.360467 2.372703 1907235 3
0.092981 0.360467 2.372703 2039334 3
0.015066 0.399425 2.372703 2433062 3
0.054023 0.399425 2.372703 3157300 3
0.092981 0.399425 2.372703 4013122 3
-0.201331 0.216280 1.423622 2697262 3
-0.233184 0.248698 1.477344 3025714 3
-0.205059 0.244093 1.449985 3157555 3
-0.226767 0.265442 1.436683 3354934 3
-0.208928 0.272955 1.477344 3223093 3
0.634038 0.175025 0.869991 1972258 3
0.620254 0.185194 0.851078 2104098 3
0.607802 0.177477 0.815617 1709854 3
0.628043 0.175647 0.807208 1578781 3
0.602486 0.193462 0.826699 2565163 3
0.607802 0.190869 0.815617 2170405 3
0.621194 0.190869 0.815617 2170918 3
0.630087 0.189516 0.809836 2631469 3
0.641297 0.188901 0.807208 1974052 3
0.548522 0.308183 0.807208 4012862 3
0.561775 0.308183 0.807208 3947071 3
0.571670 0.306383 0.802493 4078657 3
0.546773 0.320412 0.804634 5394515 3
0.561775 0.321437 0.807208 5065552 3
0.571368 0.319390 0.802070 4539208 3
0.546773 0.333623 0.804634 4473413 3
0.561775 0.334690 0.807208 4802380 3
0.548522 0.347944 0.807208 6249054 3
0.557834 0.345503 0.801546 5065809 3
0.748851 0.300999 0.905175 2302763 3
0.764923 0.301476 0.906609 2236200 3
0.730755 0.314470 0.901186 2566189 3
0.780445 0.329188 0.943364 1842466 3
0.783059 0.323863 0.928104 2828335 3
0.796432 0.323106 0.925934 2235430 3
0.720725 0.331458 0.907186 2960174 3
0.750356 0.338098 0.925359 2302503 3
0.758825 0.335128 0.917230 3092019 3
0.768169 0.332653 0.910456 3090993 3
0.783118 0.332653 0.910456 3288118 3
0.525130 0.302346 0.791920 5328722 3
0.506768 0.312048 0.783632 4868171 3
0.528134 0.317152 0.796449 4670792 3
0.524888 0.328200 0.791555 5459538 3
0.567701 0.330425 0.796922 4934223 3
0.525524 0.341610 0.792514 6117468 3
0.550166 0.332900 0.772307 4605771 3
0.511328 0.302429 0.701616 4670539 3
0.544537 0.308184 0.714968 4736587 3
0.560518 0.310534 0.720420 4144450 3
0.583576 0.304059 0.705398 4078914 3
0.595158 0.304059 0.705398 3289398 3
0.503597 0.331615 0.741097 5656917 3
0.463865 0.300910 0.755662 5262931 3
0.482354 0.304753 0.765310 5394515 3
0.465918 0.306506 0.739234 5656919 3
0.495372 0.317609 0.766011 6906984 3
0.478011 0.318613 0.739164 5196366 3
0.493954 0.317592 0.709757 5000016 3
0.660989 0.200092 0.798972 1907746 3
0.669426 0.211730 0.793423 2434090 3
0.666327 0.206726 0.774675 2039591 3
0.666962 0.203047 0.760888 2302504 3
0.644977 0.225318 0.795403 2434349 3
0.644347 0.220630 0.778856 2236713 3
0.654085 0.219606 0.775240 2039332 3
0.664555 0.218862 0.772614 1710369 3
0.675782 0.218391 0.770950 2434090 3
0.682140 0.216392 0.763895 2630441 3
0.697622 0.217308 0.767127 2762028 3
0.670131 0.233490 0.779097 1381404 3
0.670890 0.246561 0.779980 1644063 3
0.603345 0.276432 0.792182 2959921 3
0.506513 0.260452 0.783238 4604231 3
0.521819 0.261678 0.786927 3420727 3
0.535251 0.261928 0.787680 3223093 3
0.556043 0.265683 0.798972 3288886 3
0.503835 0.271866 0.779097 4538436 3
0.514710 0.270858 0.776206 4670794 3
0.520687 0.267382 0.766247 3815485 3
0.537059 0.269283 0.771694 3617851 3
0.554318 0.271531 0.778135 3355192 3
0.570994 0.273398 0.783486 3288886 3
0.589384 0.275986 0.790901 3157300 3
0.506881 0.272540 0.745930 5394517 3
0.528452 0.277435 0.759326 4473415 3
0.547524 0.280823 0.768598 4539466 3
0.556716 0.279104 0.763895 4341829 3
0.569258 0.279104 0.763895 4078657 3
0.587925 0.282042 0.771935 2631211 3
0.533459 0.279463 0.731983 3947071 3
0.547878 0.280693 0.735204 4341829 3
0.521760 0.285089 0.715930 4078657 3
0.533791 0.285237 0.716301 4078657 3
0.547106 0.286049 0.718341 3815483 3
0.558583 0.285887 0.717933 4276034 3
0.565507 0.283449 0.711811 4341829 3
0.520146 0.295926 0.713716 4670539 3
0.528045 0.293801 0.708590 3552313 3
0.535763 0.291668 0.703448 3025969 3
0.584326 0.298783 0.720606 3749949 3
0.473522 0.268854 0.949094 3618876 3
0.498156 0.273829 0.966657 3420727 3
0.472796 0.274953 0.917447 3025714 3
0.497536 0.280406 0.935643 3486778 3
0.498510 0.272540 0.909396 3684669 3
0.314772 0.312801 0.896405 6447714 3
0.328129 0.311510 0.892704 6644580 3
0.336175 0.305502 0.875486 6776166 3
0.310153 0.308299 0.843799 7170924 3
0.325509 0.309727 0.847709 7565682 3
0.329870 0.301006 0.823839 7499373 3
0.467786 0.247514 0.782992 4407622 3
0.410838 0.265100 0.797218 4736844 3
0.463560 0.265309 0.797845 5065548 3
0.462871 0.257634 0.774765 5131856 3
0.471657 0.255503 0.768355 4867918 3
0.491196 0.259155 0.779340 4209988 3
0.417966 0.274278 0.786007 5921118 3
0.449358 0.277727 0.795892 5658200 3
0.456653 0.274261 0.785958 5657685 3
0.456122 0.266413 0.763468 5066063 3
0.462854 0.263114 0.754014 4736587 3
0.481365 0.266508 0.763742 4604746 3
0.424607 0.283008 0.774580 5986652 3
0.446540 0.288971 0.790901 6184029 3
0.462749 0.290999 0.796449 4802887 3
0.477333 0.291920 0.798972 4539717 3
0.463540 0.275902 0.755131 5197138 3
0.461890 0.267758 0.732842 5460310 3
0.479425 0.270867 0.741351 4933194 3
0.494486 0.272459 0.745707 4604999 3
0.425164 0.279378 0.731761 5328722 3
0.454161 0.290231 0.760186 4736585 3
0.472996 0.294182 0.770536 4670792 3
0.468300 0.283674 0.743013 4210241 3
0.498831 0.294496 0.771359 5328722 3
0.367266 0.249092 0.787986 4934224 3
0.380418 0.249233 0.788430 5000017 3
0.351931 0.260258 0.782656 5920861 3
0.349608 0.249432 0.750099 5855325 3
0.356410 0.245632 0.738672 5526360 3
0.381081 0.253992 0.763812 4210500 3
0.340627 0.264336 0.757515 5789275 3
0.335675 0.251316 0.720205 6907756 3
0.343450 0.248387 0.711811 5065552 3
0.359658 0.251549 0.720873 5328724 3
0.391419 0.265041 0.759538 4802380 3
0.334597 0.282178 0.772307 6314847 3
0.326873 0.265598 0.726928 7367537 3
0.327689 0.256881 0.703072 6710375 3
0.386219 0.265370 0.726306 5920861 3
0.324053 0.296814 0.777431 7433582 3
0.321891 0.283661 0.742978 7235951 3
0.318950 0.270806 0.709309 6380643 3
0.392989 0.273705 0.716901 5460310 3