# .PCD v0.7 - Point Cloud Data file format
VERSION 0.7
FIELDS x y z rgb label
SIZE 4 4 4 4 4
TYPE F F F U U
COUNT 1 1 1 1 1
WIDTH 1606
HEIGHT 1
VIEWPOINT 0 0 0 1 0 0 0
POINTS 1606
DATA ascii
0.100020 0.179687 0.491795 9211018 3
0.109540 0.182088 0.498367 9868948 3
0.116393 0.180033 0.492741 9803155 3
0.187665 0.178566 0.488728 10264221 3
0.195566 0.178454 0.488420 9277072 3
0.216025 0.165808 0.498622 8883084 3
0.216002 0.167623 0.480363 9212049 3
0.223889 0.167623 0.480363 8817802 3
0.231776 0.167623 0.480363 9673109 3
0.239663 0.167623 0.480363 9212301 3
0.215341 0.174973 0.478894 9014670 3
0.222736 0.174607 0.477890 9146254 3
0.230363 0.174440 0.477434 8751750 3
0.238202 0.174440 0.477434 8554371 3
-0.383773 0.206643 0.621422 5921622 3
-0.373570 0.206643 0.621422 6842470 3
-0.373853 0.211241 0.605359 7171688 3
-0.364442 0.211547 0.606238 6447453 3
-0.353975 0.211241 0.605359 6249822 3
-0.343619 0.210985 0.604627 6644580 3
0.345054 0.177982 0.593881 8290945 3
0.355310 0.178236 0.594726 7633017 3
0.365682 0.178532 0.595716 7567224 3
0.366132 0.188545 0.596449 7107186 3
0.391208 0.162371 0.513649 7106675 3
0.397127 0.169730 0.510417 6383209 3
0.003547 0.167390 0.558538 9408910 3
0.012689 0.167016 0.557290 10197913 3
0.022001 0.168255 0.561424 10000534 3
0.031087 0.167542 0.559046 10131863 3
0.040147 0.167050 0.557401 9867921 3
0.092119 0.179128 0.597704 10000534 3
0.003525 0.175503 0.555191 10592671 3
0.012569 0.174498 0.552012 9737362 3
0.021661 0.174729 0.552742 9540496 3
0.030689 0.174460 0.551891 9540496 3
0.039585 0.173732 0.549589 9276811 3
0.003464 0.181403 0.545521 10066327 3
0.012351 0.180382 0.542451 9474703 3
0.021285 0.180617 0.543157 10461598 3
0.030080 0.179878 0.540935 9738645 3
0.038537 0.177917 0.535038 10197913 3
0.003394 0.186502 0.534466 10395803 3
0.012141 0.186066 0.533216 9606287 3
0.020873 0.185868 0.532648 10001815 3
0.029606 0.185789 0.532423 9672850 3
0.038089 0.184535 0.528827 9803666 3
0.046255 0.182495 0.522981 9737873 3
0.054186 0.180314 0.516731 9934995 3
0.062476 0.179754 0.515126 9408651 3
0.070387 0.178368 0.511155 13947857 3
0.077356 0.175145 0.501918 10395035 3
0.086475 0.176942 0.507068 10197913 3
0.003371 0.193954 0.530842 10461596 3
0.012059 0.193503 0.529609 9672850 3
0.020728 0.193258 0.528937 9607057 3
0.029307 0.192567 0.527047 10133914 3
0.037707 0.191280 0.523523 10987940 3
0.045787 0.189147 0.517688 10856354 3
0.053470 0.186301 0.509896 9277322 3
0.061465 0.185166 0.506791 9540494 3
0.003310 0.199045 0.521348 9803668 3
0.011819 0.198177 0.519076 10198426 3
0.020367 0.198424 0.519722 10527391 3
0.028930 0.198630 0.520261 9869459 3
0.037472 0.198630 0.520261 10066838 3
0.045787 0.197647 0.517688 10198424 3
0.053470 0.194673 0.509896 9935254 3
0.210187 0.169559 0.598568 10262168 3
0.220539 0.169963 0.599994 9803159 3
0.229185 0.169075 0.596857 9737364 3
0.235959 0.166933 0.589299 9145227 3
0.209386 0.178704 0.596289 9671571 3
0.219697 0.179128 0.597704 9342865 3
0.229511 0.179128 0.597704 9211020 3
0.239439 0.179214 0.597991 10328990 3
0.208592 0.187780 0.594027 8948361 3
0.225995 0.167126 0.502587 8751498 3
-0.093955 0.168620 0.595252 8882053 3
-0.063925 0.166768 0.588716 9408397 3
-0.054575 0.167741 0.592148 9276554 3
-0.092772 0.176147 0.587757 8684674 3
-0.082215 0.174226 0.581347 9013639 3
-0.072300 0.173340 0.578390 9342604 3
-0.062515 0.172543 0.575729 9868948 3
-0.053332 0.173421 0.578661 9079175 3
-0.043700 0.172902 0.576930 9671312 3
-0.033945 0.171479 0.572181 9408138 3
-0.024523 0.171283 0.571527 8881794 3
-0.015060 0.170391 0.568552 9474703 3
-0.005664 0.168593 0.562551 10132633 3
-0.092230 0.184712 0.584322 9868948 3
-0.042812 0.178670 0.565210 10131863 3
-0.033247 0.177154 0.560413 8815231 3
-0.023912 0.176166 0.557290 9474444 3
-0.014762 0.176166 0.557290 9672080 3
-0.005610 0.176127 0.557166 10001047 3
-0.092274 0.176082 0.529520 9276811 3
-0.067501 0.179565 0.539995 9342604 3
-0.059926 0.183519 0.551885 9868948 3
-0.051362 0.185317 0.557290 10132120 3
-0.042166 0.185114 0.556681 9934484 3
-0.032477 0.182037 0.547428 8288887 3
-0.023412 0.181442 0.545639 9671823 3
-0.014459 0.181522 0.545878 9672082 3
-0.005530 0.182636 0.549229 10329499 3
-0.091573 0.183373 0.525498 9539983 3
-0.082945 0.183373 0.525498 8882053 3
-0.074317 0.183373 0.525498 9803155 3
-0.050531 0.191320 0.548272 10066070 3
-0.041549 0.191410 0.548531 10394781 3
-0.031708 0.186502 0.534466 7828338 3
-0.022986 0.186941 0.535724 9934741 3
-0.014209 0.187181 0.536411 9803668 3
-0.005416 0.187704 0.537909 10395292 3
-0.091573 0.192001 0.525498 9408397 3
-0.082754 0.191560 0.524290 8882053 3
-0.074084 0.191399 0.523850 9868948 3
-0.031493 0.193954 0.530842 9078407 3
-0.022884 0.194864 0.533333 10329501 3
-0.014157 0.195278 0.534466 10395805 3
-0.005379 0.195195 0.534239 9408397 3
-0.114379 0.169923 0.599851 8487038 3
-0.104106 0.169234 0.597421 8750467 3
-0.199768 0.176892 0.590243 6841959 3
-0.190300 0.177100 0.590937 6710884 3
-0.182019 0.178494 0.595589 7763315 3
-0.172893 0.179171 0.597847 7959922 3
-0.143445 0.179171 0.597847 7632499 3
-0.134108 0.179814 0.599994 7961466 3
-0.124198 0.179729 0.599709 7500913 3
-0.113509 0.178405 0.595290 9211018 3
-0.103342 0.177729 0.593036 8553088 3
-0.197580 0.184540 0.583780 6907752 3
-0.188874 0.185404 0.586511 7368814 3
-0.179244 0.185404 0.586511 8487295 3
-0.169654 0.185447 0.586649 9013639 3
-0.160586 0.186101 0.588716 8355709 3
-0.150920 0.186101 0.588716 8026744 3
-0.141354 0.186233 0.589136 8356224 3
-0.133089 0.188223 0.595431 7962234 3
-0.123283 0.188179 0.595290 8289916 3
-0.113053 0.187422 0.592897 8487295 3
-0.102541 0.186014 0.588441 9079432 3
-0.194855 0.191448 0.575729 8289405 3
-0.185235 0.191275 0.575208 7895158 3
-0.173360 0.188631 0.567258 8355709 3
-0.163087 0.187528 0.563939 8289916 3
-0.152900 0.186397 0.560537 7960951 3
-0.143471 0.186104 0.559659 9342606 3
-0.112536 0.180696 0.543394 9013639 3
-0.101186 0.176463 0.530665 9342604 3
-0.192730 0.198710 0.569449 8815749 3
-0.182470 0.197723 0.566622 8026746 3
-0.149162 0.190819 0.546836 8092539 3
-0.139543 0.189947 0.544337 9013641 3
-0.129180 0.187874 0.538396 7698294 3
-0.119030 0.185828 0.532535 8620164 3
-0.109936 0.185238 0.530842 9276811 3
-0.100520 0.183956 0.527168 9408397 3
-0.139543 0.198884 0.544337 8224125 3
-0.129180 0.196714 0.538396 8356224 3
-0.119030 0.194572 0.532535 8422785 3
-0.109936 0.193954 0.530842 9605776 3
-0.100520 0.192611 0.527168 8947846 3
-0.269305 0.156898 0.553874 6776166 3
-0.274730 0.169336 0.565031 6776420 3
-0.277822 0.177227 0.591360 7038822 3
-0.271053 0.179171 0.597847 8156790 3
-0.262051 0.179729 0.599709 6708576 3
-0.250465 0.178490 0.595573 7958643 3
-0.242184 0.179600 0.599278 7828336 3
-0.208672 0.176228 0.588027 6051675 3
-0.292388 0.178067 0.563304 7039851 3
-0.284614 0.178995 0.566239 6645093 3
-0.278162 0.180845 0.572091 6907752 3
-0.277689 0.186847 0.591077 6841445 3
-0.269064 0.187600 0.593459 5196107 3
-0.261051 0.188852 0.597421 5392203 3
-0.249516 0.187555 0.593317 4734784 3
-0.240629 0.188223 0.595431 6117720 3
-0.228956 0.186677 0.590540 7038822 3
-0.216397 0.184240 0.582829 8551809 3
-0.206587 0.184025 0.582150 8092028 3
-0.296580 0.184176 0.553860 7302510 3
-0.292060 0.187107 0.562673 6579300 3
-0.283971 0.187867 0.564959 6842472 3
-0.278095 0.190192 0.571952 6315615 3
-0.276580 0.195767 0.588716 5065548 3
-0.267669 0.196321 0.590383 4538177 3
-0.259074 0.197157 0.592897 4932165 3
-0.247581 0.195767 0.588716 7762032 3
-0.237247 0.195217 0.587063 7171178 3
-0.225289 0.193228 0.581080 8354682 3
-0.212688 0.190488 0.572840 8420223 3
-0.203842 0.191012 0.574416 7236719 3
-0.293377 0.197231 0.565210 6776166 3
-0.283139 0.196565 0.563304 7697268 3
-0.275572 0.197773 0.566764 6776166 3
-0.210903 0.198215 0.568030 8223098 3
-0.201851 0.198485 0.568804 8749958 3
0.149291 0.157695 0.590937 6574672 3
0.159941 0.158634 0.594456 7101533 3
0.101863 0.169199 0.597297 10263706 3
0.110481 0.167398 0.590937 9606289 3
0.120184 0.167398 0.590937 8684415 3
0.129886 0.167398 0.590937 6774361 3
0.139163 0.166887 0.589135 8745580 3
0.147620 0.165524 0.584322 8875626 3
0.157693 0.166028 0.586104 9930117 3
0.169136 0.167834 0.592476 11115937 3
0.179075 0.168032 0.593176 11640480 3
0.188814 0.168032 0.593176 11375760 3
0.198601 0.168072 0.593317 9734535 3
0.119283 0.175774 0.586511 8881542 3
0.128883 0.175733 0.586374 7958382 3
0.137579 0.174550 0.582428 9009781 3
0.145483 0.172582 0.575862 8483437 3
0.156342 0.174146 0.581080 10458515 3
0.167905 0.176270 0.588166 8816262 3
0.178399 0.177100 0.590937 9736076 3
0.188102 0.177100 0.590937 11838882 3
0.198320 0.177561 0.592476 9801869 3
0.101450 0.188047 0.594874 10198167 3
0.109602 0.185317 0.586238 10329753 3
0.118396 0.184025 0.582150 10658205 3
0.127955 0.184025 0.582150 9538697 3
0.136408 0.182547 0.577473 9867662 3
0.144421 0.180708 0.571658 10196626 3
0.155587 0.182799 0.578273 9605517 3
0.166847 0.184755 0.584459 9211531 3
0.177521 0.185883 0.588027 8488578 3
0.187395 0.186101 0.588716 8816003 3
0.197572 0.186583 0.590243 9013639 3
0.116483 0.190456 0.572744 10263960 3
0.125477 0.189835 0.570878 9606030 3
0.133668 0.188171 0.565873 9803409 3
0.142310 0.187316 0.563304 9606030 3
0.152314 0.188250 0.566110 9276811 3
0.161571 0.188205 0.565977 9343117 3
0.171096 0.188461 0.566745 8488578 3
0.180564 0.188631 0.567258 8750980 3
0.189365 0.188121 0.565724 9408910 3
0.122958 0.195210 0.559419 9277324 3
0.132259 0.195380 0.559906 8882566 3
0.141325 0.195205 0.559405 9803668 3
0.151389 0.196345 0.562673 9672082 3
0.176608 0.193608 0.554828 9803668 3
0.179023 0.186629 0.534829 8949129 3
0.184580 0.183424 0.525645 8225406 3
0.185836 0.176423 0.505582 9014154 3
0.128773 0.186236 0.509718 9539983 3
0.203136 0.151981 0.606864 8881026 3
0.217082 0.154821 0.618205 8158332 3
0.228133 0.155435 0.620655 8487556 3
0.238443 0.155513 0.620965 8224638 3
0.247131 0.154570 0.617202 8816773 3
0.279864 0.168148 0.671418 8750980 3
0.287368 0.166113 0.663294 8093050 3
0.295946 0.164825 0.658150 7500913 3
0.200933 0.160189 0.600284 7826796 3
0.213450 0.162211 0.607862 9670544 3
0.225179 0.163481 0.612618 9145486 3
0.233926 0.162569 0.609202 9014154 3
0.283872 0.174850 0.655223 8948361 3
0.295481 0.175355 0.657116 8948361 3
-0.190696 0.175080 0.699100 7829106 3
-0.178648 0.174524 0.696878 8289657 3
-0.158047 0.164965 0.658708 8421245 3
-0.143452 0.160729 0.641797 8618370 3
-0.107436 0.154402 0.616529 8552577 3
-0.109818 0.174243 0.695756 8026744 3
-0.192711 0.177826 0.666376 7499371 3
-0.181674 0.177733 0.666025 8750208 3
-0.169342 0.176279 0.660579 8684928 3
-0.155959 0.173457 0.650004 8816260 3
-0.141254 0.168642 0.631961 8684676 3
-0.128604 0.165713 0.620984 8750467 3
-0.117013 0.163760 0.613665 8486784 3
-0.105770 0.161974 0.606971 9210507 3
-0.103186 0.174453 0.653736 8947846 3
-0.193272 0.179146 0.632410 7697522 3
-0.183349 0.179597 0.634002 8288887 3
-0.172939 0.179597 0.634002 8487036 3
-0.162079 0.179099 0.632244 8816514 3
-0.151013 0.178290 0.629389 8487295 3
-0.139003 0.176166 0.621890 8553090 3
-0.125927 0.172247 0.608057 8816260 3
-0.164095 0.180290 0.601580 8158071 3
-0.153959 0.179988 0.600572 8290170 3
0.301217 0.162703 0.695259 7829880 3
0.307247 0.159900 0.683283 7764087 3
0.314518 0.157918 0.674812 8422015 3
0.324029 0.157157 0.671562 8027255 3
0.329757 0.154672 0.660942 7962232 3
0.330181 0.149937 0.640706 7304304 3
0.341006 0.150071 0.641281 7370095 3
0.387803 0.151904 0.649114 5790813 3
0.387724 0.147811 0.631624 7238259 3
0.307804 0.165390 0.660407 8619394 3
0.315821 0.163923 0.654549 7370097 3
0.319638 0.160444 0.640659 7567476 3
0.326154 0.158499 0.632891 7764855 3
0.332596 0.156639 0.625464 7501681 3
0.366608 0.158020 0.630979 7172466 3
0.369976 0.155089 0.619274 6909294 3
0.383271 0.156365 0.624370 7435638 3
0.399090 0.158577 0.633203 7039851 3
0.306591 0.175539 0.657804 7962234 3
0.315741 0.174626 0.654384 8028027 3
0.318255 0.170224 0.637889 7830648 3
0.324429 0.167998 0.629545 7896441 3
0.332095 0.166658 0.624523 7435890 3
0.340649 0.165830 0.621422 7501683 3
0.349813 0.165339 0.619581 7304050 3
0.355338 0.163204 0.611581 7172466 3
0.365469 0.163244 0.611730 7435638 3
0.383174 0.166574 0.624211 6514536 3
0.397483 0.168293 0.630653 6908778 3
0.343027 0.172107 0.607562 8093566 3
0.349447 0.170373 0.601442 6711913 3
0.358717 0.170087 0.600430 7106673 3
0.373145 0.172195 0.607874 7633017 3
0.393819 0.177001 0.624840 7896187 3
0.339000 0.179945 0.600430 8290945 3
0.383237 0.182229 0.608050 7501429 3
0.394435 0.182792 0.609929 7369843 3
-0.223762 0.162606 0.694847 7367789 3
-0.211762 0.162154 0.692913 9144198 3
-0.221094 0.171940 0.686562 8355709 3
-0.208079 0.170513 0.680863 8421245 3
-0.200526 0.173653 0.693401 8157301 3
-0.289335 0.183597 0.688001 7171439 3
-0.270447 0.178584 0.669216 6776420 3
-0.229929 0.165257 0.619274 6973799 3
-0.221402 0.166491 0.623898 7565682 3
-0.213593 0.168411 0.631093 7631986 3
-0.213856 0.177215 0.664087 7829878 3
-0.205291 0.179257 0.671739 7631729 3
-0.273508 0.177310 0.625929 7828340 3
-0.260303 0.175337 0.618966 7762547 3
-0.252204 0.176784 0.624073 7828338 3
-0.241839 0.176698 0.623768 7959922 3
-0.226348 0.172693 0.609631 8815235 3
-0.217929 0.173962 0.614111 8486786 3
-0.209080 0.174995 0.617757 8289405 3
-0.202024 0.177711 0.627343 8290429 3
0.117580 0.136850 0.628909 8422015 3
0.127906 0.136850 0.628909 8684674 3
0.107663 0.147737 0.631306 8684674 3
0.117580 0.147176 0.628909 9408910 3
0.127906 0.147176 0.628909 8553599 3
0.138198 0.147139 0.628752 8619135 3
0.147559 0.146186 0.624678 9145479 3
0.157618 0.146003 0.623898 8552831 3
0.168452 0.146516 0.626089 8749958 3
0.180899 0.148293 0.633683 8684163 3
0.191187 0.148203 0.633296 8157819 3
0.105954 0.155593 0.621287 9145225 3
0.116384 0.155900 0.622513 8224123 3
0.127746 0.157305 0.628123 9079173 3
0.138198 0.157463 0.628752 8750207 3
0.146581 0.155405 0.620538 9012863 3
0.152935 0.151604 0.605359 8486521 3
0.164110 0.152754 0.609952 8024434 3
0.176698 0.155012 0.618966 5327695 3
0.184773 0.153280 0.612049 5523789 3
0.191446 0.150623 0.601442 8418935 3
0.103765 0.162369 0.608452 9803155 3
0.114173 0.162965 0.610684 10066327 3
0.126923 0.166537 0.624073 9473931 3
0.137544 0.166992 0.625777 8749178 3
0.142477 0.160958 0.603164 5852744 3
0.172857 0.161584 0.605512 9997202 3
0.182270 0.161117 0.603761 12758963 3
0.191214 0.160304 0.600715 9995138 3
0.004380 0.150113 0.689861 8487295 3
0.015918 0.152123 0.699100 8816260 3
0.084038 0.150777 0.692913 8947848 3
0.004287 0.158009 0.675199 8750467 3
0.015683 0.161194 0.688809 8882053 3
0.038921 0.163796 0.699930 8553088 3
0.049826 0.161888 0.691777 9210507 3
0.061031 0.161484 0.690052 8749956 3
0.072916 0.162722 0.695342 9671058 3
0.093381 0.158697 0.678141 8224636 3
0.098235 0.149161 0.637391 8684674 3
0.038193 0.172009 0.686835 8750210 3
0.050077 0.174120 0.695267 9999507 3
0.061456 0.174015 0.694847 9473163 3
0.072662 0.173531 0.692913 9670542 3
0.083034 0.171456 0.684628 9209991 3
0.091339 0.166118 0.663312 9671569 3
0.096661 0.157069 0.627180 9014152 3
0.095681 0.165668 0.620815 9606289 3
0.092716 0.170413 0.601580 9868948 3
-0.470699 0.170378 0.782992 3947582 3
-0.453310 0.168691 0.775240 3881276 3
-0.442773 0.169530 0.779097 4802891 3
-0.408461 0.171234 0.786927 4540230 3
-0.446951 0.178875 0.764365 4802378 3
-0.438821 0.180695 0.772144 4868684 3
-0.432404 0.183350 0.783486 5460819 3
-0.423377 0.185027 0.790653 4540230 3
-0.408590 0.184213 0.787175 6119776 3
-0.436974 0.182041 0.726893 4737096 3
-0.420039 0.179899 0.718341 4999757 3
-0.406963 0.179334 0.716086 5723480 3
-0.404728 0.183655 0.733340 5855064 3
-0.413079 0.193192 0.771421 5592403 3
-0.404798 0.195308 0.779870 5856088 3
-0.458659 0.198189 0.742681 4802891 3
-0.400638 0.199659 0.748189 6579298 3
0.555409 0.140645 0.699100 5462361 3
0.543930 0.152123 0.699100 5593947 3
0.555409 0.152123 0.699100 5462361 3
0.566887 0.152123 0.699100 5791326 3
0.514947 0.161710 0.691014 5593693 3
0.527740 0.162154 0.692913 5527900 3
0.535865 0.161176 0.688735 5462361 3
0.558803 0.158068 0.675453 5001297 3
0.581447 0.161273 0.689147 6119778 3
0.518562 0.170513 0.680863 6054244 3
0.516108 0.166125 0.663341 6186600 3
0.221310 0.155962 0.775240 9079947 3
0.234039 0.155962 0.775240 7829880 3
0.251752 0.159113 0.790901 8027257 3
0.212795 0.172099 0.790901 8421506 3
0.221310 0.168691 0.775240 7829367 3
0.234039 0.168691 0.775240 8487297 3
0.246767 0.168691 0.775240 7829365 3
0.259496 0.168691 0.775240 8290431 3
0.272225 0.168691 0.775240 8290431 3
0.287803 0.170378 0.782992 7171950 3
0.226742 0.166697 0.712328 8158073 3
0.240450 0.168105 0.718341 8026746 3
0.252245 0.168105 0.718341 8618883 3
0.264039 0.168105 0.718341 8816775 3
0.288848 0.176036 0.752234 8685189 3
-0.007039 0.140645 0.699100 8881796 3
-0.028838 0.146247 0.672096 8157819 3
-0.017803 0.146247 0.672096 8618624 3
-0.006826 0.147513 0.677915 9013382 3
-0.052631 0.162606 0.694847 8684415 3
-0.039796 0.156980 0.670803 8289659 3
-0.028374 0.154752 0.661282 9013382 3
-0.017727 0.156610 0.669224 8421245 3
-0.006739 0.156610 0.669224 8421243 3
-0.063277 0.171940 0.686562 9276552 3
-0.050966 0.168509 0.672861 9013380 3
-0.096029 0.181203 0.679028 8553599 3
-0.085109 0.181692 0.680863 9211272 3
-0.073930 0.181692 0.680863 9606030 3
-0.061654 0.178516 0.668962 9539724 3
-0.191702 0.160737 0.798972 7829108 3
-0.192414 0.153494 0.705398 8882053 3
-0.191702 0.173855 0.798972 8750210 3
-0.178583 0.173855 0.798972 8223866 3
-0.139228 0.173855 0.798972 8816003 3
-0.124836 0.172099 0.790901 8092537 3
-0.111850 0.172099 0.790901 8289916 3
-0.196088 0.168228 0.718869 7697520 3
-0.193371 0.176522 0.754312 8092280 3
-0.186716 0.182111 0.778194 7171178 3
-0.175012 0.183234 0.782992 8289659 3
-0.162156 0.183234 0.782992 8355709 3
-0.149300 0.183234 0.782992 8223866 3
-0.107836 0.178442 0.762516 8553088 3
-0.149771 0.181113 0.723190 9144968 3
-0.143239 0.188130 0.751208 8749442 3
-0.102182 0.180950 0.722537 9474701 3
-0.353229 0.156738 0.779097 5723991 3
-0.340437 0.156738 0.779097 6381923 3
-0.324417 0.155194 0.771421 5657687 3
-0.311751 0.155194 0.771421 6907754 3
-0.395541 0.171234 0.786927 5263440 3
-0.382620 0.171234 0.786927 6118490 3
-0.366021 0.169530 0.779097 5592657 3
-0.348034 0.167037 0.767639 6842472 3
-0.335430 0.167037 0.767639 6645095 3
-0.321252 0.166222 0.763895 6842474 3
-0.308709 0.166222 0.763895 8026235 3
-0.397538 0.185085 0.790901 5395026 3
-0.384552 0.185085 0.790901 5526353 3
-0.369012 0.183812 0.785464 6316126 3
-0.351388 0.181372 0.775037 6644580 3
-0.336980 0.180471 0.771184 5789784 3
-0.321744 0.179039 0.765065 6447714 3
-0.308709 0.178765 0.763895 6250335 3
-0.397538 0.198071 0.790901 6382432 3
-0.385894 0.198762 0.793661 6052956 3
-0.372156 0.198385 0.792156 5855577 3
-0.352190 0.194541 0.776806 5987163 3
-0.332174 0.190379 0.760186 6776681 3
-0.333287 0.198475 0.792514 6250594 3
-0.320197 0.188464 0.706241 6710373 3
-0.313441 0.191420 0.717316 7105646 3
0.029362 0.138437 0.749275 8882055 3
0.004520 0.143202 0.711811 7895160 3
0.016207 0.143202 0.711811 8026746 3
0.028022 0.143856 0.715061 8289918 3
0.039762 0.143856 0.715061 8553090 3
0.051503 0.143856 0.715061 8618883 3
0.063243 0.143856 0.715061 8882055 3
0.027894 0.154889 0.711811 9013639 3
0.039402 0.154188 0.708590 8750467 3
0.051037 0.154188 0.708590 9539985 3
0.062389 0.153494 0.705398 8487297 3
0.073639 0.152805 0.702235 8421504 3
0.027690 0.165358 0.706604 8487295 3
0.088751 0.171247 0.731768 8815749 3
-0.007368 0.135202 0.731768 8158073 3
-0.046452 0.157522 0.782992 8486784 3
-0.033596 0.157522 0.782992 8684163 3
-0.020740 0.157522 0.782992 9078921 3
-0.097876 0.170378 0.782992 8487806 3
-0.084178 0.168691 0.775240 8290170 3
-0.070749 0.167037 0.767639 9211272 3
-0.057027 0.163825 0.752877 8355452 3
-0.042229 0.154889 0.711811 8552577 3
-0.093176 0.174436 0.745395 10066581 3
-0.078690 0.169591 0.724695 9079685 3
-0.064986 0.165009 0.705113 8026485 3
-0.088682 0.177671 0.709443 9013893 3
-0.076124 0.175573 0.701068 9277065 3
-0.590005 0.121568 0.657977 2960434 3
-0.579202 0.132372 0.657977 2828590 3
-0.568398 0.132372 0.657977 2960174 3
-0.583098 0.146878 0.674993 3420725 3
-0.562320 0.144388 0.663553 2565416 3
-0.525185 0.143175 0.657977 3750460 3
-0.518741 0.144388 0.663553 3092273 3
-0.512186 0.145622 0.669224 2828847 3
-0.501198 0.145622 0.669224 3815230 3
-0.593328 0.160732 0.686835 3552313 3
-0.578571 0.159771 0.682729 3618617 3
-0.562457 0.158390 0.676827 2894894 3
-0.546619 0.157032 0.671027 2500393 3
-0.534162 0.156610 0.669224 3421495 3
-0.523174 0.156610 0.669224 3552824 3
-0.515222 0.157538 0.673190 2763054 3
-0.508541 0.158905 0.679028 2630956 3
-0.511092 0.163281 0.697731 3420474 3
-0.589781 0.170980 0.682729 3486520 3
-0.576989 0.170513 0.680863 3223605 3
-0.565810 0.170513 0.680863 3289911 3
-0.551344 0.169502 0.676827 3026737 3
-0.535601 0.168050 0.671027 3355704 3
-0.523174 0.167598 0.669224 2960944 3
-0.515222 0.168592 0.673190 3092020 3
-0.508541 0.170054 0.679028 2763057 3
-0.507920 0.173653 0.693401 3091509 3
-0.588169 0.181692 0.680863 3026227 3
-0.576989 0.181692 0.680863 3158326 3
-0.562457 0.180615 0.676827 3289911 3
-0.549850 0.180126 0.674993 2829358 3
-0.535601 0.179067 0.671027 2829358 3
-0.526275 0.179645 0.673190 2631979 3
-0.519690 0.181203 0.679028 3026227 3
-0.512990 0.182788 0.684969 4407882 3
-0.509287 0.185536 0.695267 5789022 3
-0.585497 0.188414 0.665129 3092022 3
-0.553218 0.188579 0.665709 3092530 3
-0.548381 0.190698 0.673190 3355956 3
-0.538767 0.191209 0.674993 4013632 3
-0.530839 0.192352 0.679028 3487288 3
-0.521094 0.192871 0.680863 3355192 3
-0.516120 0.195218 0.689147 4078915 3
-0.510679 0.197490 0.697167 4341574 3
-0.531357 0.199509 0.665709 3487542 3
-0.621706 0.125797 0.680863 2368299 3
-0.638359 0.140645 0.699100 2960434 3
-0.605264 0.135795 0.674993 2763054 3
-0.638359 0.152123 0.699100 2236710 3
-0.615882 0.149454 0.686835 1973538 3
-0.604605 0.149454 0.686835 2433830 3
-0.626880 0.163602 0.699100 2434090 3
-0.607979 0.161629 0.690668 3749692 3
-0.626880 0.175080 0.699100 2697262 3
-0.607979 0.172969 0.690668 3026227 3
-0.602663 0.182697 0.684628 2960434 3
0.103221 0.143272 0.851078 7566195 3
0.115935 0.155555 0.841927 7566708 3
0.134084 0.160740 0.869991 7697779 3
0.153484 0.166283 0.899991 7960951 3
0.112312 0.164086 0.815617 8553601 3
0.127027 0.165813 0.824202 8947846 3
0.143582 0.169379 0.841927 9013639 3
0.164480 0.176991 0.879766 8553601 3
-0.094467 0.146456 0.869991 7303534 3
-0.080182 0.146456 0.869991 7237743 3
-0.068170 0.151506 0.899991 7303021 3
-0.053393 0.151506 0.899991 8158332 3
-0.038616 0.151506 0.899991 8092539 3
-0.023839 0.151506 0.899991 7960953 3
-0.009062 0.151506 0.899991 8026746 3
-0.089495 0.152280 0.824202 7895669 3
-0.076770 0.153900 0.832970 7369327 3
-0.063094 0.153900 0.832970 7763572 3
-0.048897 0.152280 0.824202 7302510 3
-0.035364 0.152280 0.824202 8157819 3
-0.021832 0.152280 0.824202 7434096 3
-0.087649 0.162394 0.807208 7961462 3
-0.074396 0.162394 0.807208 8618881 3
-0.061142 0.162394 0.807208 8224123 3
-0.282248 0.127971 0.760186 6578787 3
-0.263374 0.124939 0.742173 6052956 3
-0.251188 0.124939 0.742173 6974058 3
-0.242449 0.126741 0.752877 6777190 3
-0.296167 0.141138 0.763895 5197136 3
-0.279534 0.139102 0.752877 6184029 3
-0.259682 0.135202 0.731768 6316126 3
-0.246515 0.134573 0.728365 6710884 3
-0.233470 0.133950 0.724993 7105642 3
-0.221566 0.133950 0.724993 7368816 3
-0.231057 0.147619 0.798972 6776681 3
-0.296167 0.153680 0.763895 6710375 3
-0.280884 0.152195 0.756514 6710373 3
-0.259682 0.147217 0.731768 6974056 3
-0.245373 0.145854 0.724993 7105896 3
-0.230272 0.143856 0.715061 6908006 3
-0.218531 0.143856 0.715061 6710373 3
-0.205850 0.143202 0.711811 8816262 3
-0.215737 0.159113 0.790901 7829369 3
-0.204820 0.160737 0.798972 7894647 3
-0.296167 0.166222 0.763895 7960440 3
-0.282248 0.165416 0.760186 7499889 3
-0.260901 0.159979 0.735204 7237228 3
-0.246515 0.158491 0.728365 6710884 3
-0.230272 0.155596 0.715061 7105131 3
-0.218531 0.155596 0.715061 9078921 3
-0.203996 0.153494 0.705398 9473933 3
-0.200723 0.170378 0.782992 7960694 3
-0.296167 0.178765 0.763895 7171178 3
-0.282260 0.177905 0.760219 6908006 3
-0.260760 0.171958 0.734807 6842470 3
-0.242394 0.167601 0.716190 7500400 3
-0.202868 0.164163 0.701497 8421245 3
-0.299428 0.193414 0.772307 7434348 3
-0.274994 0.185486 0.740649 7039592 3
-0.253248 0.178721 0.713639 7829367 3
-0.237276 0.175573 0.701068 8224123 3
-0.273724 0.188402 0.706008 7171176 3
-0.344967 0.149784 0.889764 5197134 3
-0.394439 0.160740 0.869991 4606023 3
-0.380154 0.160740 0.869991 5395285 3
-0.378486 0.166283 0.899991 4868171 3
-0.351586 0.160740 0.869991 7104363 3
-0.398646 0.164945 0.819887 8552061 3
-0.383178 0.164086 0.815617 6908004 3
-0.499985 0.148101 0.879766 4342336 3
-0.485540 0.148101 0.879766 3618615 3
-0.471095 0.148101 0.879766 4079166 3
-0.467148 0.151506 0.899991 5591894 3
-0.423008 0.146456 0.869991 4473665 3
-0.418012 0.149784 0.889764 4408383 3
-0.486324 0.158105 0.855729 5066063 3
-0.474869 0.158974 0.860431 4802889 3
-0.458224 0.158105 0.855729 4474437 3
-0.446614 0.158974 0.860431 4276547 3
-0.430123 0.158105 0.855729 5065550 3
-0.418359 0.158974 0.860431 4736067 3
-0.404232 0.158974 0.860431 5394765 3
-0.465955 0.164945 0.819887 4671305 3
-0.452493 0.164945 0.819887 5000268 3
-0.434482 0.163235 0.811391 4737609 3
-0.416840 0.161561 0.803069 5132113 3
-0.403654 0.161561 0.803069 7170924 3
-0.443211 0.174747 0.803069 4671303 3
-0.430025 0.174747 0.803069 4737609 3
0.501341 0.117776 0.775240 4606541 3
0.511537 0.117196 0.771421 4607569 3
0.524203 0.117196 0.771421 4211783 3
0.504087 0.127971 0.760186 5923429 3
0.516569 0.127971 0.760186 5462107 3
0.595398 0.160737 0.798972 5461595 3
0.557333 0.147217 0.731768 5132885 3
0.553820 0.143202 0.711811 5593432 3
0.571994 0.141912 0.705398 5462361 3
0.599787 0.145854 0.724993 5132883 3
0.514085 0.153494 0.705398 5264982 3
0.530445 0.154889 0.711811 5856865 3
0.537248 0.153494 0.705398 5001556 3
0.583576 0.153494 0.705398 5725020 3
0.049477 0.135175 0.889764 7960955 3
0.061973 0.130719 0.860431 7434098 3
0.076101 0.130719 0.860431 8157821 3
0.091231 0.132171 0.869991 7105644 3
0.005464 0.144846 0.860431 8355452 3
0.019591 0.144846 0.860431 8223612 3
0.032299 0.138748 0.824202 8158332 3
0.045354 0.137302 0.815617 7961212 3
0.058745 0.137302 0.815617 8486784 3
0.072137 0.137302 0.815617 8355198 3
0.087348 0.140224 0.832970 7697781 3
0.005179 0.150694 0.815617 8224125 3
0.018571 0.150694 0.815617 8618883 3
0.044886 0.149140 0.807208 8816262 3
0.058140 0.149140 0.807208 8618883 3
0.072137 0.150694 0.815617 8816262 3
0.085529 0.150694 0.815617 8685189 3
0.098920 0.150694 0.815617 7961466 3
0.084647 0.162394 0.807208 8882055 3
0.097901 0.162394 0.807208 8947848 3
-0.280164 0.132171 0.869991 6842985 3
-0.257303 0.127908 0.841927 6382434 3
-0.238353 0.125215 0.824202 7171437 3
-0.224820 0.125215 0.824202 6842474 3
-0.211288 0.125215 0.824202 5920859 3
-0.204204 0.129298 0.851078 6447201 3
-0.251886 0.138748 0.824202 6842983 3
-0.235870 0.137302 0.815617 6974058 3
-0.222479 0.137302 0.815617 6710886 3
-0.209087 0.137302 0.815617 7434096 3
-0.222479 0.150694 0.815617 6579559 3
-0.209087 0.150694 0.815617 6841959 3
0.814500 0.119212 0.879766 2763567 3
0.824314 0.118546 0.874852 2500142 3
0.834019 0.117887 0.869991 2236972 3
0.848304 0.117887 0.869991 2829361 3
0.862588 0.117887 0.869991 2960687 3
0.876872 0.117887 0.869991 2565675 3
0.814500 0.133656 0.879766 3026739 3
0.824314 0.132910 0.874852 3158325 3
0.834019 0.132171 0.869991 3618877 3
0.838982 0.130719 0.860431 2763567 3
0.843836 0.129298 0.851078 2960433 3
0.848586 0.127908 0.841927 2960433 3
0.862410 0.127908 0.841927 3420984 3
0.833225 0.151506 0.899991 4605769 3
0.857848 0.150640 0.894848 3487288 3
0.853043 0.147274 0.874852 2829360 3
0.808676 0.137302 0.815617 2697261 3
0.822068 0.137302 0.815617 2960433 3
0.808676 0.150694 0.815617 3815742 3
0.753491 0.112273 0.828563 3486777 3
0.753491 0.125877 0.828563 3618363 3
0.750711 0.149784 0.889764 4803148 3
0.760579 0.149140 0.807208 3684921 3
0.798529 0.153900 0.832970 3618615 3
0.795285 0.150694 0.815617 3947839 3
0.773832 0.162394 0.807208 4342338 3
0.787086 0.162394 0.807208 3553081 3
0.713292 0.132623 0.978740 5067349 3
0.720358 0.146857 0.966657 4211783 3
0.745432 0.148693 0.978740 4409160 3
0.708374 0.153268 0.910456 5199187 3
0.731833 0.155071 0.921167 4672334 3
0.764956 0.158807 0.943364 4409160 3
0.780445 0.158807 0.943364 4606023 3
0.386178 0.112273 0.828563 5789784 3
0.305497 0.132171 0.869991 6315615 3
0.319781 0.132171 0.869991 8552063 3
0.330394 0.130719 0.860431 7368303 3
0.340777 0.129298 0.851078 6645093 3
0.354751 0.129298 0.851078 6382434 3
0.364760 0.127908 0.841927 6645606 3
0.370613 0.125215 0.824202 6842985 3
0.374296 0.122004 0.803069 6185055 3
0.302950 0.138748 0.824202 8158073 3
0.316483 0.138748 0.824202 7171435 3
0.330016 0.138748 0.824202 6842985 3
0.343548 0.138748 0.824202 6185055 3
0.361110 0.135190 0.803069 6645606 3
0.374296 0.135190 0.803069 7303534 3
0.309958 0.149140 0.807208 7237230 3
0.323211 0.149140 0.807208 7303534 3
0.309958 0.162394 0.807208 7434609 3
0.323211 0.162394 0.807208 7435120 3
0.242146 0.121952 0.899991 7763315 3
0.245630 0.116592 0.860431 7171948 3
0.275398 0.117236 0.865185 6776681 3
0.219790 0.132171 0.869991 7434607 3
0.239394 0.135175 0.889764 6645091 3
0.239062 0.127224 0.837425 7303536 3
0.265144 0.126547 0.832970 7237743 3
0.278820 0.126547 0.832970 6250848 3
0.215012 0.143272 0.851078 6974569 3
0.231502 0.144846 0.860431 7435122 3
0.239062 0.140973 0.837425 7501429 3
0.247517 0.138021 0.819887 6909292 3
0.260979 0.138021 0.819887 6777192 3
0.277345 0.139482 0.828563 7303534 3
0.284919 0.136591 0.811391 7500400 3
0.227369 0.166283 0.899991 8159359 3
0.231502 0.158974 0.860431 7895419 3
0.242960 0.157246 0.851078 7895673 3
0.246228 0.150694 0.815617 7698294 3
0.259620 0.150694 0.815617 7566706 3
0.273011 0.150694 0.815617 7238257 3
0.281997 0.148376 0.803069 7764087 3
0.296704 0.149140 0.807208 7039851 3
0.217375 0.173101 0.860431 8553603 3
0.219445 0.164086 0.815617 7829626 3
0.274441 0.164945 0.819887 7961466 3
0.287902 0.164945 0.819887 8619396 3
0.299795 0.164086 0.815617 8158845 3
0.024092 0.143376 1.058097 6907752 3
0.039849 0.137790 1.016873 6907752 3
0.056545 0.137790 1.016873 8749188 3
0.073241 0.137790 1.016873 7499893 3
0.091121 0.139603 1.030253 7236719 3
0.006542 0.156519 1.030253 8289659 3
-0.170555 0.132623 0.978740 5921372 3
-0.154485 0.132623 0.978740 6841959 3
-0.140167 0.134302 0.991129 6118749 3
-0.116519 0.141612 0.932133 7040362 3
-0.104963 0.146857 0.966657 7303536 3
0.626347 0.107175 0.899991 5724250 3
0.637460 0.106563 0.894848 4671564 3
0.641162 0.104767 0.879766 4738127 3
0.655607 0.104767 0.879766 4935504 3
0.619229 0.120566 0.889764 5066320 3
0.630258 0.119885 0.884737 4671564 3
0.655607 0.119212 0.879766 4803920 3
0.612272 0.133656 0.879766 3816253 3
0.623216 0.132910 0.874852 4738127 3
0.670678 0.166283 0.899991 4869458 3
0.662606 0.160740 0.869991 5396057 3
0.676891 0.160740 0.869991 5198674 3
0.661763 0.153900 0.832970 4672845 3
0.654550 0.149140 0.807208 4212294 3
0.667804 0.149140 0.807208 3948609 3
0.537685 0.107175 0.899991 4934734 3
0.522666 0.118546 0.874852 4540230 3
0.505478 0.132171 0.869991 5527641 3
0.508463 0.129298 0.851078 5198674 3
0.508463 0.143272 0.851078 5198674 3
0.522437 0.143272 0.851078 5658457 3
0.494494 0.118028 0.991129 5526871 3
0.489099 0.113021 0.949081 5395287 3
0.466413 0.130986 0.966657 5921883 3
0.498638 0.127064 0.937715 5198674 3
0.495670 0.141612 0.932133 5988190 3
0.243546 0.107795 0.905193 6250074 3
0.234120 0.134302 0.991129 6645091 3
0.250394 0.134302 0.991129 6908006 3
0.291826 0.130986 0.966657 6448227 3
0.215124 0.148693 0.978740 7500400 3
0.228340 0.146857 0.966657 7171948 3
0.209877 0.160744 0.954868 8158330 3
0.222838 0.158807 0.943364 7041132 3
0.202470 0.170195 0.921167 7829878 3
0.215064 0.168216 0.910456 8093050 3
0.200115 0.183165 0.910456 8158330 3
0.215064 0.183165 0.910456 8290429 3
-0.319174 0.118028 0.991129 5000781 3
-0.303792 0.127829 0.943364 5198160 3
-0.385887 0.145066 0.954868 4802891 3
-0.308143 0.138319 0.910456 5987163 3
-0.387392 0.155071 0.921167 5526360 3
-0.367938 0.153268 0.910456 4539206 3
-0.461453 0.148004 1.242845 3947839 3
-0.455507 0.152856 1.283594 4671562 3
-0.461453 0.168410 1.242845 4934734 3
-0.437574 0.167084 1.233058 5197906 3
-0.470653 0.184425 1.213941 5000268 3
-0.447254 0.183007 1.204603 5000268 3
-0.477222 0.135134 1.134771 3618877 3
-0.452039 0.133203 1.118560 3553083 3
-0.439958 0.135134 1.134771 3882046 3
-0.475830 0.159546 1.177432 4013634 3
-0.456498 0.159546 1.177432 4868941 3
-0.420999 0.180234 1.186352 5197647 3
-0.489661 0.112340 0.943364 4078907 3
-0.474172 0.112340 0.943364 3881528 3
-0.499137 0.126307 0.932133 4539717 3
-0.486729 0.127064 0.937715 4473411 3
-0.471333 0.127064 0.937715 4144446 3
-0.467125 0.130182 0.960726 4210239 3
-0.493264 0.139946 0.921167 4737096 3
-0.480969 0.140774 0.926618 4276032 3
-0.465755 0.140774 0.926618 3552309 3
-0.453222 0.141612 0.932133 3749942 3
-0.443194 0.143318 0.943364 4737094 3
-0.427705 0.143318 0.943364 4474183 3
-0.417243 0.145066 0.954868 4408392 3
-0.401565 0.145066 0.954868 4671051 3
-0.454986 0.152382 0.905193 4144446 3
-0.412785 0.153268 0.910456 4277058 3
-0.402516 0.155071 0.921167 4671562 3
-0.781213 0.116553 0.978740 1907233 3
-0.765143 0.116553 0.978740 1578268 3
-0.749073 0.116553 0.978740 2104867 3
-0.733003 0.116553 0.978740 2368039 3
-0.749073 0.132623 0.978740 2434089 3
-0.733003 0.132623 0.978740 2565675 3
-0.781213 0.148693 0.978740 2039842 3
-0.755696 0.146857 0.966657 2895151 3
-0.739825 0.146857 0.966657 2631981 3
-0.723953 0.146857 0.966657 2697261 3
0.954341 0.100483 0.978740 2039331 3
0.970411 0.100483 0.978740 2368037 3
0.986481 0.100483 0.978740 2565418 3
0.904358 0.112340 0.943364 2368560 3
0.919847 0.112340 0.943364 3947841 3
0.935336 0.112340 0.943364 2960687 3
0.950825 0.112340 0.943364 2499882 3
0.990174 0.130986 0.966657 2631469 3
0.873992 0.100483 0.978740 2696749 3
0.857922 0.116553 0.978740 3289141 3
0.822581 0.109697 0.921167 3618106 3
0.837705 0.109697 0.921167 4012864 3
0.852830 0.109697 0.921167 3092022 3
0.878287 0.111003 0.932133 2434351 3
0.831459 0.146857 0.966657 2697261 3
0.852903 0.152382 0.905193 4605769 3
0.600803 0.100483 0.978740 5592153 3
0.600803 0.116553 0.978740 5197649 3
0.609257 0.115114 0.966657 4539719 3
0.625129 0.115114 0.966657 5000529 3
0.641000 0.115114 0.966657 4869971 3
0.656872 0.115114 0.966657 5395287 3
0.609257 0.130986 0.966657 5395028 3
0.625129 0.130986 0.966657 5001299 3
0.641000 0.130986 0.966657 4935764 3
0.615105 0.122657 0.905193 5132885 3
0.695895 0.145066 0.954868 4606798 3
0.641085 0.155071 0.921167 5593434 3
0.656209 0.155071 0.921167 5067092 3
0.663528 0.153268 0.910456 4869458 3
0.678477 0.153268 0.910456 4277576 3
0.693425 0.153268 0.910456 4869711 3
0.633630 0.168216 0.910456 5527900 3
0.648579 0.168216 0.910456 6185830 3
0.663528 0.168216 0.910456 5659229 3
0.648579 0.183165 0.910456 5264728 3
0.663528 0.183165 0.910456 6317159 3
0.536523 0.100483 0.978740 3488060 3
0.584733 0.100483 0.978740 5197396 3
0.510874 0.114408 0.960726 4474953 3
0.523437 0.113710 0.954868 3948609 3
0.532620 0.112340 0.943364 2961714 3
0.528989 0.108421 0.910456 3882818 3
0.514034 0.127064 0.937715 4869709 3
0.520087 0.124822 0.921167 4935504 3
0.525931 0.122657 0.905193 5198676 3
0.593385 0.130986 0.966657 5329235 3
0.502010 0.139128 0.915780 5922397 3
0.586149 0.145066 0.954868 5329492 3
0.212324 0.107182 1.043989 6052447 3
0.229466 0.107182 1.043989 6316130 3
0.212324 0.124323 1.043989 6118240 3
0.227946 0.123500 1.037076 5592407 3
0.240202 0.121094 1.016873 5197647 3
0.255240 0.120313 1.010312 6052697 3
0.210918 0.140528 1.037076 6512996 3
0.227946 0.140528 1.037076 6513507 3
0.141737 0.119980 1.168645 6776679 3
0.158558 0.118215 1.151459 5657685 3
0.172393 0.114838 1.118560 5657939 3
0.188072 0.113220 1.102806 5131341 3
0.103361 0.139168 1.168645 6644584 3
0.122549 0.139168 1.168645 6513509 3
0.139652 0.137121 1.151459 6052956 3
0.151858 0.131327 1.102806 6710373 3
0.115644 0.149434 1.102806 7171439 3
0.133751 0.149434 1.102806 6842472 3
-0.092669 0.125604 1.223425 6579300 3
-0.073733 0.127597 1.242845 6908006 3
-0.055076 0.131781 1.283594 6973545 3
-0.031908 0.143450 1.204603 7171437 3
-0.012129 0.143450 1.204603 6776679 3
-0.768280 0.103059 1.003836 2762542 3
-0.751798 0.103059 1.003836 1841440 3
-0.754666 0.105772 1.030253 1907235 3
-0.744865 0.121094 1.016873 2763054 3
-0.735316 0.136023 1.003836 2433832 3
-0.737750 0.139603 1.030253 2828590 3
0.935465 0.110706 1.283594 3157813 3
0.956541 0.110706 1.283594 3420985 3
0.931790 0.105516 1.223425 3355191 3
0.951878 0.105516 1.223425 3092019 3
0.971965 0.105516 1.223425 3289909 3
0.976790 0.103893 1.204603 3421238 3
0.996569 0.103893 1.204603 3026226 3
0.494501 0.102319 1.186352 3815996 3
0.404334 0.118215 1.151459 4802378 3
0.429556 0.119980 1.168645 5789273 3
0.405356 0.131327 1.102806 5393745 3
0.435737 0.135134 1.134771 6051675 3
0.498863 0.156027 1.151459 6316128 3
0.409517 0.105516 1.223425 4802378 3
0.429605 0.105516 1.223425 4802378 3
0.449692 0.105516 1.223425 5328722 3
0.469779 0.125604 1.223425 5065550 3
0.482330 0.143450 1.204603 5197647 3
-0.160452 0.110706 1.283594 5131341 3
-0.139377 0.110706 1.283594 4868171 3
-0.116393 0.108920 1.262890 6512998 3
-0.160452 0.131781 1.283594 5789786 3
-0.134952 0.127597 1.242845 5921118 3
-0.114546 0.127597 1.242845 6118751 3
-0.181528 0.152856 1.283594 5987163 3
-0.155358 0.148004 1.242845 6974058 3
-0.130800 0.143450 1.204603 6118238 3
-0.213082 0.116432 1.349986 5658198 3
-0.296630 0.136248 1.327105 4999504 3
-0.274840 0.136248 1.327105 5263440 3
-0.261929 0.141029 1.373670 5460819 3
-0.235248 0.138597 1.349986 5855577 3
-0.213082 0.138597 1.349986 5658198 3
-0.274840 0.158038 1.327105 5723991 3
-0.257413 0.160763 1.349986 5198160 3
-0.235248 0.160763 1.349986 5789786 3
-0.209471 0.158038 1.327105 6710373 3
-0.393980 0.105516 1.223425 3684410 3
-0.373893 0.105516 1.223425 4144961 3
-0.365218 0.108920 1.262890 3749690 3
-0.353805 0.125604 1.223425 4408133 3
-0.344483 0.129655 1.262890 5460308 3
-0.348362 0.143450 1.204603 5855579 3
-0.328584 0.163228 1.204603 5066063 3
-0.492738 0.114458 1.327105 2434089 3
-0.463099 0.112551 1.304987 3223859 3
-0.441672 0.112551 1.304987 3026480 3
-0.488597 0.135103 1.315953 3750203 3
-0.463099 0.133977 1.304987 3815996 3
-0.445384 0.135103 1.315953 4276545 3
0.682923 0.105570 0.779097 3486777 3
0.695715 0.105570 0.779097 3552570 3
0.672880 0.116622 0.767639 3355191 3
0.685484 0.116622 0.767639 3223605 3
0.650707 0.127353 0.756514 4474185 3
0.663128 0.127353 0.756514 4539978 3
0.678829 0.127971 0.760186 4474185 3
0.691310 0.127971 0.760186 4737357 3
0.674108 0.147619 0.798972 3948607 3
0.687226 0.147619 0.798972 4211011 3
0.666347 0.140453 0.760186 4342597 3
0.678829 0.140453 0.760186 4211013 3
0.694682 0.141138 0.763895 4342599 3
0.647672 0.154433 0.767639 4211779 3
0.660276 0.154433 0.767639 5000527 3
0.679542 0.155962 0.775240 3947839 3
0.685484 0.154433 0.767639 3158325 3
0.698088 0.154433 0.767639 3421497 3
0.611690 0.157757 0.724993 6119778 3
0.660276 0.167037 0.767639 5264471 3
0.679542 0.168691 0.775240 5988194 3
0.685484 0.167037 0.767639 4605772 3
0.691310 0.165416 0.760186 5197909 3
0.665051 0.156310 0.718341 4013634 3
0.699193 0.183234 0.782992 5461595 3
0.601318 0.109349 1.565984 4210500 3
0.639826 0.111581 1.597943 4735815 3
0.677082 0.105143 1.505754 4671565 3
0.627029 0.135061 1.565984 4802378 3
0.677082 0.129866 1.505754 4737098 3
0.665150 0.157620 1.535279 5000270 3
0.677082 0.154589 1.505754 5394513 3
0.652359 0.179312 1.505754 5263440 3
0.891347 0.104398 1.016873 2828590 3
0.812269 0.141464 1.043989 3881789 3
0.899680 0.147359 1.087489 3421236 3
0.869244 0.139603 1.030253 2894894 3
0.863438 0.136023 1.003836 3420984 3
0.801581 0.156519 1.030253 3488058 3
0.818497 0.156519 1.030253 3224888 3
0.835413 0.156519 1.030253 3355702 3
0.852328 0.156519 1.030253 3487542 3
0.869244 0.156519 1.030253 3421238 3
-0.529430 0.202960 0.677226 3224116 3
-0.524237 0.205281 0.684969 3026226 3
-0.520703 0.208367 0.695267 4013122 3
-0.526682 0.212969 0.673711 2960687 3
-0.521094 0.215229 0.680863 4013122 3
-0.512990 0.216527 0.684969 4078402 3
-0.509287 0.219783 0.695267 4341829 3
0.903554 0.121798 1.186352 3092271 3
0.909256 0.119980 1.168645 3881789 3
0.942512 0.121798 1.186352 3750460 3
0.947632 0.119980 1.168645 3684408 3
0.966820 0.119980 1.168645 2894894 3
0.971508 0.118215 1.151459 3223346 3
0.948565 0.113220 1.102806 3618104 3
0.912351 0.131327 1.102806 3618615 3
0.930458 0.131327 1.102806 3486518 3
0.839924 0.131327 1.102806 3684667 3
0.858031 0.131327 1.102806 3749949 3
0.888654 0.133203 1.118560 3618876 3
0.894245 0.131327 1.102806 3881789 3
0.876138 0.149434 1.102806 4079427 3
0.894245 0.149434 1.102806 3882046 3
1.117820 0.043883 1.186352 2960433 3
1.133327 0.042281 1.143054 2104873 3
1.152095 0.042281 1.143054 1249824 3
1.162378 0.041975 1.134771 1776168 3
1.101176 0.059317 1.110627 2039332 3
1.135518 0.060171 1.126607 1973287 3
1.197076 0.062416 1.168645 2631732 3
1.147742 0.058899 1.102806 1776168 3
1.101136 0.081604 1.168645 3026229 3
1.176256 0.082840 1.186352 2368297 3
1.143746 0.079238 1.134771 2302506 3
1.162378 0.079238 1.134771 2302765 3
1.147742 0.077006 1.102806 1710375 3
1.182504 0.096472 1.118560 1446946 3
1.012140 0.045254 1.223425 1841953 3
1.003319 0.067449 1.262890 3026740 3
1.012140 0.065341 1.223425 1973539 3
1.016347 0.064336 1.204603 2170407 3
1.012140 0.085429 1.223425 3157813 3
1.016347 0.084115 1.204603 2301991 3
0.600803 0.036203 0.978740 2631471 3
0.600803 0.052273 0.978740 3420987 3
0.616873 0.052273 0.978740 3618364 3
0.600803 0.068343 0.978740 3092022 3
0.616873 0.068343 0.978740 3552570 3
0.632943 0.068343 0.978740 2960434 3
0.600803 0.084413 0.978740 3618364 3
0.616873 0.084413 0.978740 3289652 3
0.632943 0.084413 0.978740 2960433 3
0.649013 0.084413 0.978740 3158325 3
0.665082 0.084413 0.978740 2369579 3
0.637336 0.078983 0.915780 2500396 3
0.648579 0.078524 0.910456 3224119 3
0.609257 0.099242 0.966657 5329233 3
0.625129 0.099242 0.966657 5066063 3
0.641000 0.099242 0.966657 4671564 3
0.656872 0.099242 0.966657 4606541 3
0.633630 0.093473 0.910456 3487805 3
0.648579 0.093473 0.910456 4539979 3
0.659692 0.092932 0.905193 2829361 3
0.674555 0.092932 0.905193 2566188 3
0.584733 0.036203 0.978740 3947077 3
0.568663 0.052273 0.978740 3224119 3
0.584733 0.052273 0.978740 3749698 3
0.523726 0.068773 0.984896 4407879 3
0.536523 0.068343 0.978740 3684410 3
0.552593 0.068343 0.978740 3355704 3
0.568663 0.068343 0.978740 3750209 3
0.584733 0.068343 0.978740 3289147 3
0.527041 0.085482 0.991129 4079428 3
0.543314 0.085482 0.991129 3750462 3
0.552593 0.084413 0.978740 2829360 3
0.568663 0.084413 0.978740 2171431 3
0.584733 0.084413 0.978740 2828850 3
0.514028 0.099242 0.966657 4211528 3
0.539115 0.098032 0.954868 2961714 3
0.554793 0.098032 0.954868 2895153 3
0.606574 0.038617 1.043989 3749950 3
0.640907 0.037614 1.016873 2894643 3
0.657603 0.054310 1.016873 3355194 3
0.696926 0.056132 1.050996 3355192 3
0.674299 0.071006 1.016873 3158326 3
-0.271477 0.201643 0.577854 6118236 3
-0.263390 0.202721 0.580943 6051929 3
-0.255209 0.203805 0.584052 6841445 3
-0.243913 0.202389 0.579994 7763315 3
-0.234390 0.202389 0.579994 7434350 3
-0.223068 0.200769 0.575352 8749438 3
-0.291275 0.205031 0.561159 7367789 3
-0.281116 0.204344 0.559280 7170924 3
-0.273403 0.205448 0.562301 7236717 3
-0.266559 0.207306 0.567386 7237230 3
-0.256547 0.206745 0.565850 7236203 3
-0.245482 0.205261 0.561790 7895160 3
-0.235747 0.204817 0.560575 7763572 3
-0.206961 0.203662 0.557414 8486268 3
-0.279497 0.212297 0.556059 7039340 3
-0.270966 0.212767 0.557290 7434098 3
-0.263106 0.213816 0.560036 7237230 3
-0.252615 0.212725 0.557179 7566193 3
-0.253805 0.207862 0.521995 7170926 3
-0.257924 0.218619 0.549007 7368816 3
1.191456 0.045972 1.242845 2039331 3
1.174574 0.044558 1.204603 2762544 3
1.135017 0.064336 1.204603 2302504 3
1.172839 0.065341 1.223425 2960434 3
1.192927 0.065341 1.223425 2301991 3
1.154796 0.084115 1.204603 2499883 3
1.192927 0.085429 1.223425 2301991 3
0.623827 0.027533 1.338448 2960433 3
0.645803 0.027533 1.338448 3420727 3
0.685352 0.028257 1.373670 3354164 3
0.623827 0.049509 1.338448 3749949 3
0.645803 0.049509 1.338448 3157553 3
0.685352 0.050811 1.373670 3156783 3
0.695701 0.049935 1.349986 3486518 3
0.634949 0.070283 1.315953 3419957 3
0.656555 0.070283 1.315953 3156786 3
0.608231 0.091124 1.304987 5131345 3
0.139165 0.027299 1.327105 3618366 3
0.141565 0.049935 1.349986 3684159 3
0.119399 0.072101 1.349986 3684156 3
0.139165 0.070879 1.327105 3749437 3
0.117376 0.092669 1.327105 4671051 3
0.098954 0.036606 1.779528 3946816 3
0.040518 0.065824 1.779528 3092019 3
0.069736 0.065824 1.779528 3486520 3
0.094651 0.062962 1.702157 3946816 3
0.010808 0.090910 1.702157 3552571 3
1.181913 0.035320 0.954868 1907237 3
1.169077 0.049784 0.932133 1249054 3
0.873992 0.036203 0.978740 3025200 3
0.890062 0.036203 0.978740 2828590 3
0.885055 0.052935 0.991129 3024946 3
0.885055 0.069208 0.991129 3222579 3
0.890062 0.068343 0.978740 2301223 3
0.885055 0.085482 0.991129 2565163 3
0.890062 0.084413 0.978740 2367786 3
0.884031 0.082354 0.954868 2367788 3
0.847678 0.095698 0.932133 2762544 3
0.852830 0.094572 0.921167 2828598 3
0.899709 0.098032 0.954868 3026490 3
0.940188 0.039675 1.072592 1840672 3
0.941436 0.037614 1.016873 2104612 3
0.941436 0.071006 1.016873 3157302 3
0.990414 0.042592 1.151459 2104873 3
0.980482 0.059741 1.118560 2827567 3
0.980482 0.078106 1.118560 2827821 3
0.990414 0.099309 1.151459 3223348 3
0.966672 0.095113 1.102806 2697004 3
1.000948 0.043883 1.186352 1973541 3
1.020427 0.063361 1.186352 1907235 3
1.081948 0.062416 1.168645 2696235 3
1.020427 0.082840 1.186352 2169891 3
0.977616 0.026404 1.283594 1907496 3
0.982583 0.025978 1.262890 2434092 3
0.987393 0.025566 1.242845 2697264 3
0.992053 0.025167 1.223425 2236711 3
0.996569 0.024779 1.204603 2236711 3
0.977616 0.047480 1.283594 2104875 3
0.982583 0.046714 1.262890 2039334 3
0.987393 0.045972 1.242845 1513247 3
0.992053 0.045254 1.223425 2039845 3
0.977616 0.068555 1.283594 2433838 3
0.982583 0.067449 1.262890 2828850 3
0.992053 0.065341 1.223425 3026227 3
0.977616 0.089630 1.283594 2302506 3
0.982583 0.088185 1.262890 3092020 3
0.971965 0.085429 1.223425 2960946 3
0.992053 0.085429 1.223425 3026226 3
1.056729 0.029827 1.449985 2367788 3
1.060891 0.029285 1.423622 1183773 3
1.009115 0.053634 1.449985 2565676 3
1.056729 0.053634 1.449985 2367786 3
1.080537 0.053634 1.449985 1249053 3
1.032922 0.077442 1.449985 3092022 3
1.056729 0.077442 1.449985 2828337 3
1.060891 0.076034 1.423622 2630960 3
1.014142 0.099408 1.423622 3223608 3
1.502007 0.050333 2.446850 2828596 3
1.542182 0.050333 2.446850 2631471 3
1.582356 0.050333 2.446850 1644063 3
0.653156 0.006772 1.631234 2499882 3
0.667053 0.034269 1.665941 3091760 3
0.679939 0.033555 1.631234 3420985 3
0.667053 0.061622 1.665941 3815481 3
0.679939 0.060339 1.631234 3815485 3
0.667053 0.088976 1.665941 4209725 3
0.610993 0.007224 1.739982 2368550 3
0.639562 0.007224 1.739982 2631979 3
0.668131 0.007224 1.739982 2631981 3
0.624879 0.036606 1.779528 2500136 3
0.654097 0.036606 1.779528 2698026 3
0.683315 0.036606 1.779528 2697772 3
0.624879 0.065824 1.779528 4342338 3
0.654097 0.065824 1.779528 3487542 3
0.653606 0.062962 1.702157 3882046 3
0.625658 0.090910 1.702157 4013375 3
0.653606 0.090910 1.702157 4210500 3
0.525287 0.007224 1.739982 2500396 3
0.553855 0.007224 1.739982 2434602 3
0.582424 0.007224 1.739982 1710109 3
0.525287 0.035792 1.739982 2697775 3
0.553855 0.035792 1.739982 2763567 3
0.582424 0.035792 1.739982 2960176 3
0.513867 0.062962 1.702157 3355704 3
0.541815 0.062962 1.702157 3882049 3
0.582424 0.064361 1.739982 3618106 3
0.485920 0.007067 1.702157 1973798 3
0.430024 0.035014 1.702157 2630958 3
0.457972 0.035014 1.702157 3026229 3
0.485920 0.035014 1.702157 3684670 3
0.430024 0.062962 1.702157 3486778 3
0.457972 0.062962 1.702157 4013635 3
0.485920 0.062962 1.702157 3882048 3
0.457972 0.090910 1.702157 3815742 3
0.420875 0.006916 1.665941 3025718 3
0.448228 0.006916 1.665941 1315357 3
0.420875 0.088976 1.665941 4211013 3
0.465673 0.087122 1.631234 3420984 3
0.492456 0.087122 1.631234 3749949 3
0.304974 0.006772 1.631234 2894130 3
0.331757 0.006772 1.631234 3025716 3
0.358540 0.006772 1.631234 3091509 3
0.385323 0.006772 1.631234 3091511 3
0.358540 0.033555 1.631234 3223093 3
0.393522 0.034269 1.665941 3420474 3
0.358540 0.060339 1.631234 3092019 3
0.393522 0.061622 1.665941 3552571 3
0.385323 0.087122 1.631234 4342086 3
0.134603 0.005329 1.283594 3157813 3
0.150736 0.005160 1.242845 3025969 3
0.168468 0.005079 1.223425 3354164 3
0.191548 0.005160 1.242845 2960176 3
0.148380 0.025167 1.223425 3683644 3
0.165876 0.024779 1.204603 3156785 3
0.185654 0.024779 1.204603 3618363 3
0.150736 0.045972 1.242845 3815232 3
0.165876 0.044558 1.204603 3419958 3
0.185654 0.044558 1.204603 3223606 3
0.155678 0.068555 1.283594 4078402 3
0.168468 0.065341 1.223425 3486520 3
0.188555 0.065341 1.223425 4342087 3
0.134603 0.089630 1.283594 4671052 3
0.150736 0.086785 1.242845 4933966 3
0.168468 0.085429 1.223425 4342340 3
0.188555 0.085429 1.223425 3881535 3
0.138503 0.006501 1.565984 3289399 3
0.138503 0.032213 1.565984 3552570 3
0.112791 0.057925 1.565984 3552824 3
0.135787 0.056789 1.535279 3684156 3
0.110580 0.081997 1.535279 4145472 3
-0.575740 0.019121 4.605836 3025714 3
-0.500117 0.019121 4.605836 3025716 3
-0.575740 0.094745 4.605836 3815485 3
-0.787960 0.050333 2.446850 2170660 3
-0.747786 0.050333 2.446850 2960174 3
-0.707611 0.050333 2.446850 2433830 3
-0.787960 0.090508 2.446850 3881278 3
-0.396629 0.176066 0.659780 4473924 3
-0.389167 0.182736 0.684773 4868169 3
-0.385588 0.186441 0.698660 5526353 3
-0.384744 0.181299 0.640009 5526612 3
-0.381536 0.184835 0.652493 5131341 3
-0.370822 0.184835 0.652493 6447201 3
-0.399632 0.193932 0.647101 4342851 3
-0.362793 0.191314 0.638365 6645093 3
-0.389963 0.199608 0.631445 5066572 3
-0.378359 0.198958 0.629389 5592405 3
-0.351728 0.195641 0.618896 6315615 3
-0.494425 0.121094 1.016873 3420723 3
-0.484014 0.122687 1.030253 4210752 3
-0.468684 0.127729 1.072592 4211014 3
-0.477728 0.137790 1.016873 4079166 3
-0.461032 0.137790 1.016873 4013632 3
-0.438640 0.136023 1.003836 4408392 3
-0.422158 0.136023 1.003836 4013635 3
-0.560355 0.111003 0.932133 2500136 3
-0.545051 0.111003 0.932133 3355191 3
-0.536129 0.112340 0.943364 3552570 3
-0.520639 0.112340 0.943364 2697261 3
-0.505150 0.112340 0.943364 3355445 3
-0.574023 0.129388 0.954868 3355445 3
-0.545051 0.126307 0.932133 3092273 3
-0.536129 0.127829 0.943364 2960687 3
-0.520639 0.127829 0.943364 4079168 3
-0.517426 0.138319 0.910456 4210752 3
-0.502478 0.138319 0.910456 4013373 3
0.003256 0.204206 0.512812 9606291 3
0.011626 0.203330 0.510613 9737875 3
0.020171 0.204966 0.514722 10001047 3
0.028739 0.205804 0.516826 9606287 3
0.037141 0.205339 0.515658 9343115 3
0.045439 0.204582 0.513756 9672080 3
0.053252 0.202219 0.507823 9606289 3
0.675812 -0.017788 1.449985 2631469 3
0.699619 -0.017788 1.449985 3157300 3
0.513867 -0.020881 1.702157 2171431 3
0.541815 -0.020881 1.702157 2368809 3
0.569763 -0.020881 1.702157 2368297 3
0.597711 -0.020881 1.702157 1776159 3
0.704165 -0.019211 1.565984 2828850 3
0.639826 -0.019603 1.597943 2960434 3
0.652741 -0.019211 1.565984 3223608 3
0.678453 -0.019211 1.565984 2499633 3
0.459908 0.144976 0.578893 5923680 3
0.493004 0.146336 0.584322 5066323 3
0.448904 0.153966 0.576965 5463131 3
0.452213 0.151896 0.569206 4936785 3
0.458421 0.150863 0.565337 6317670 3
0.474823 0.153160 0.573942 5725022 3
0.488902 0.154632 0.579460 5395288 3
0.441078 0.157272 0.555191 5463131 3
0.448702 0.156750 0.553351 5462361 3
0.461160 0.157905 0.557427 5001299 3
0.476686 0.160045 0.564982 4408392 3
0.434612 0.160628 0.535975 6120037 3
0.447030 0.161939 0.540347 6711915 3
0.404035 0.164156 0.519296 6909553 3
0.415746 0.165423 0.523305 6251624 3
0.428187 0.166924 0.528051 6645869 3
0.439448 0.167914 0.531183 6316390 3
0.413087 0.172902 0.519957 5527900 3
0.426658 0.174967 0.526165 5725022 3
0.436867 0.175598 0.528063 6316389 3
0.422325 0.114701 0.846478 5526871 3
0.436223 0.114701 0.846478 5856606 3
0.411211 0.125215 0.824202 5264467 3
0.429262 0.126547 0.832970 5461848 3
0.496713 0.133656 0.879766 5461846 3
0.404819 0.136591 0.811391 5856604 3
0.422520 0.138021 0.819887 5988703 3
0.452568 0.143272 0.851078 5922651 3
0.471669 0.144846 0.860431 6120030 3
0.485796 0.144846 0.860431 5790811 3
0.499923 0.144846 0.860431 5922397 3
0.429240 0.149140 0.807208 6646120 3
0.442493 0.149140 0.807208 6251362 3
0.379693 0.119552 0.786927 5066574 3
0.346150 0.134500 0.798972 5856090 3
0.377795 0.131810 0.782992 7041132 3
0.328011 0.145393 0.786927 7237741 3
0.340931 0.145393 0.786927 7040364 3
0.357444 0.146869 0.794916 7171950 3
0.370496 0.146869 0.794916 7500913 3
0.379693 0.145393 0.786927 7435120 3
0.396599 0.146869 0.794916 6777706 3
0.324747 0.156738 0.779097 7435120 3
0.337539 0.156738 0.779097 7237743 3
0.355639 0.159113 0.790901 6711399 3
0.357783 0.154433 0.767639 7171948 3
0.372211 0.155194 0.771421 7040362 3
0.398623 0.160737 0.798972 7435890 3
0.300659 0.170378 0.782992 8027259 3
0.316682 0.172099 0.790901 7171948 3
0.318410 0.166222 0.763895 6777190 3
0.312651 0.157030 0.721652 7435122 3
0.323012 0.156310 0.718341 7698294 3
0.330261 0.154188 0.708590 7303534 3
0.341895 0.154188 0.708590 7961462 3
0.390650 0.170378 0.782992 7041132 3
0.399511 0.168691 0.775240 7304304 3
0.305133 0.178335 0.762059 8290429 3
0.305234 0.171367 0.732284 8027257 3
0.390198 0.166576 0.711811 7567476 3
0.399397 0.165545 0.707402 7632501 3
0.495978 0.119552 0.786927 5197906 3
0.486205 0.129862 0.771421 6119008 3
0.494004 0.128595 0.763895 5330521 3
0.409651 0.146869 0.794916 6711913 3
0.446540 0.146127 0.790901 6382434 3
0.459526 0.146127 0.790901 6777192 3
0.472511 0.146127 0.790901 6317159 3
0.475883 0.143234 0.775240 5922401 3
0.481462 0.141138 0.763895 5264728 3
0.479956 0.137124 0.742173 5593947 3
0.489821 0.136478 0.738672 5462361 3
0.497258 0.135202 0.731768 5199189 3
0.403506 0.157522 0.782992 7238257 3
0.416362 0.157522 0.782992 7369843 3
0.420802 0.154433 0.767639 7106671 3
0.429198 0.152934 0.760186 6579813 3
0.433267 0.150021 0.745707 5461332 3
0.441308 0.148606 0.738672 6646124 3
0.453436 0.148606 0.738672 6053987 3
0.408198 0.167037 0.767639 7764855 3
0.416717 0.165416 0.760186 7106671 3
0.421023 0.162265 0.745707 6579813 3
0.417367 0.156310 0.718341 6382180 3
0.425260 0.154889 0.711811 6711917 3
0.407331 0.164062 0.701068 7303282 3
0.218489 0.081604 1.168645 3947328 3
0.239464 0.082217 1.177432 4407622 3
0.256865 0.081604 1.168645 4473672 3
0.212156 0.097870 1.134771 5394517 3
0.251240 0.098585 1.143054 5066063 3
0.440623 0.140645 0.699100 5593434 3
0.444170 0.138177 0.686835 6317157 3
0.438152 0.132930 0.660753 6119778 3
0.449001 0.132930 0.660753 6185571 3
0.486537 0.140645 0.699100 6251623 3
0.425347 0.150777 0.692913 6317157 3
0.414704 0.143175 0.657977 6711915 3
0.425508 0.143175 0.657977 5461332 3
0.427333 0.140229 0.644438 5790297 3
0.436120 0.139654 0.641797 5263699 3
0.446657 0.139654 0.641797 5198676 3
0.489279 0.149454 0.686835 5396314 3
0.400710 0.148782 0.635773 7040364 3
0.411360 0.148859 0.636100 5723991 3
0.417036 0.147176 0.628909 5657685 3
0.427470 0.147213 0.629068 4079166 3
0.439343 0.147732 0.631287 6119778 3
0.448014 0.147176 0.628909 6318440 3
0.487364 0.156495 0.668733 6383463 3
0.408764 0.158297 0.632086 7697268 3
0.417036 0.157502 0.628909 6447714 3
0.427470 0.157542 0.629068 5987676 3
0.439343 0.158097 0.631287 6185571 3
0.448014 0.157502 0.628909 5989475 3
0.457080 0.157069 0.627180 6449256 3
0.494698 0.166250 0.663841 5791326 3
0.407121 0.167998 0.629545 7566195 3
0.415368 0.167157 0.626394 7368816 3
0.426828 0.167618 0.628123 7237743 3
0.437688 0.167828 0.628909 6711915 3
0.447902 0.167786 0.628752 6910577 3
0.453466 0.166043 0.622220 6712426 3
0.456343 0.163415 0.612373 6053983 3
0.497625 0.174356 0.653373 6251364 3
0.402873 0.176473 0.622976 6514020 3
0.412071 0.176033 0.621422 7566708 3
0.422275 0.176033 0.621422 7764087 3
0.432478 0.176033 0.621422 6777708 3
0.402488 0.181905 0.606971 8158845 3
0.413659 0.182436 0.608743 7172464 3
0.111696 0.108920 1.262890 6052704 3
0.128293 0.105516 1.223425 5065809 3
0.148380 0.105516 1.223425 5855579 3
0.165876 0.103893 1.204603 5262929 3
0.108206 0.125604 1.223425 6249826 3
0.126319 0.123671 1.204603 6052704 3
0.092452 0.110706 1.283594 5526101 3
0.029226 0.131781 1.283594 6249824 3
0.050301 0.131781 1.283594 5525331 3
0.071377 0.131781 1.283594 5986650 3
0.088118 0.125604 1.223425 6447203 3
0.007649 0.143450 1.204603 6645093 3
0.027427 0.143450 1.204603 5986650 3
0.047206 0.143450 1.204603 7301996 3
0.066984 0.143450 1.204603 6841191 3
0.195183 0.107182 1.043989 5855068 3
0.160901 0.124323 1.043989 8355452 3
0.175699 0.122687 1.030253 7368303 3
0.192615 0.122687 1.030253 6710375 3
0.143759 0.141464 1.043989 6776166 3
0.154712 0.136023 1.003836 6776420 3
0.171194 0.136023 1.003836 7105385 3
0.187676 0.136023 1.003836 6578789 3
0.118704 0.148693 0.978740 6842472 3
0.134774 0.148693 0.978740 7368816 3
0.152754 0.150575 0.991129 7039849 3
0.169027 0.150575 0.991129 6908263 3
0.185300 0.150575 0.991129 6842472 3
0.199054 0.148693 0.978740 6710373 3
0.128356 0.156917 0.932133 7829369 3
0.147165 0.160744 0.954868 7763572 3
0.162843 0.160744 0.954868 8026998 3
0.180725 0.162729 0.966657 8289916 3
0.196597 0.162729 0.966657 7894901 3
0.172220 0.170195 0.921167 7632499 3
0.187345 0.170195 0.921167 7631986 3
0.185167 0.183165 0.910456 8158330 3
0.338671 0.121798 1.186352 5987163 3
0.352804 0.119980 1.168645 5592407 3
0.366522 0.118215 1.151459 5131602 3
0.385428 0.118215 1.151459 4802378 3
0.387249 0.131327 1.102806 6381410 3
0.732228 0.146127 0.790901 3356472 3
0.797157 0.146127 0.790901 3092019 3
0.703792 0.152934 0.760186 3224118 3
0.716273 0.152934 0.760186 3750201 3
0.784171 0.159113 0.790901 3750462 3
0.781371 0.155962 0.775240 3684669 3
0.778681 0.152934 0.760186 4211013 3
0.713526 0.159232 0.731768 3093302 3
0.753718 0.165416 0.760186 3027766 3
0.766199 0.165416 0.760186 2698801 3
0.707202 0.181987 0.777662 6053218 3
0.737549 0.171245 0.731761 3818052 3
0.712049 0.196090 0.782992 5921632 3
-0.190230 0.129298 0.851078 6710373 3
-0.176256 0.129298 0.851078 6974060 3
-0.160537 0.127908 0.841927 6776938 3
-0.146714 0.127908 0.841927 6645095 3
-0.135811 0.130719 0.860431 7302510 3
-0.123035 0.132171 0.869991 7237230 3
-0.195695 0.137302 0.815617 7565936 3
-0.186183 0.140224 0.832970 7236971 3
-0.172506 0.140224 0.832970 6842474 3
-0.157158 0.138748 0.824202 6513766 3
-0.142129 0.137302 0.815617 7171439 3
-0.130092 0.138748 0.824202 7499889 3
-0.117800 0.140224 0.832970 7895160 3
-0.104123 0.140224 0.832970 6975339 3
-0.195695 0.150694 0.815617 7434350 3
-0.184223 0.152280 0.824202 7631729 3
-0.168912 0.150694 0.815617 7039849 3
-0.155520 0.150694 0.815617 7303023 3
-0.142129 0.150694 0.815617 7697268 3
-0.128737 0.150694 0.815617 7763572 3
-0.115346 0.150694 0.815617 7895158 3
-0.103027 0.152280 0.824202 7895669 3
-0.182304 0.164086 0.815617 8289659 3
-0.168912 0.164086 0.815617 7895158 3
-0.155520 0.164086 0.815617 8355452 3
-0.142129 0.164086 0.815617 7960694 3
-0.128737 0.164086 0.815617 7895158 3
-0.115346 0.164086 0.815617 8026744 3
-0.100903 0.162394 0.807208 7829876 3
-0.167171 0.175647 0.807208 9079432 3
-0.153917 0.175647 0.807208 8355452 3
-0.093719 0.137790 1.016873 6513509 3
-0.077023 0.137790 1.016873 7237230 3
-0.060327 0.137790 1.016873 6447714 3
-0.044795 0.141464 1.043989 6316128 3
-0.028027 0.143376 1.058097 6579300 3
-0.026590 0.152505 1.003836 7237230 3
-0.010374 0.156519 1.030253 7237230 3
-0.547001 0.052935 0.991129 2236710 3
-0.549366 0.067499 0.966657 2630958 3
-0.533495 0.067499 0.966657 2960434 3
-0.530728 0.069208 0.991129 2960434 3
-0.568888 0.079448 0.921167 2433577 3
-0.549366 0.083371 0.966657 1907233 3
-0.533495 0.083371 0.966657 1775647 3
-0.589701 0.098032 0.954868 2104612 3
-0.567107 0.096851 0.943364 2433832 3
-0.551618 0.096851 0.943364 2762797 3
-0.536129 0.096851 0.943364 2170405 3
-0.533495 0.099242 0.966657 2828335 3
-0.502125 0.096271 0.937715 3683897 3