# .PCD v0.7 - Point Cloud Data file format
VERSION 0.7
FIELDS x y z rgb label
SIZE 4 4 4 4 4
TYPE F F F U U
COUNT 1 1 1 1 1
WIDTH 1598
HEIGHT 1
VIEWPOINT 0 0 0 1 0 0 0
POINTS 1598
DATA ascii
0.107597 0.201985 0.529049 9803157 3
0.116283 0.201985 0.529049 8684676 3
0.125261 0.202456 0.530282 9408399 3
0.134109 0.202670 0.530842 8947848 3
0.142765 0.202584 0.530619 8487297 3
0.150552 0.201347 0.527379 8093052 3
0.159716 0.201985 0.529049 8224384 3
0.168402 0.201985 0.529049 8290947 3
0.177088 0.201985 0.529049 9079695 3
0.185697 0.201900 0.528827 9079693 3
0.193197 0.200672 0.525609 8290431 3
0.107212 0.209918 0.527157 10263708 3
0.115503 0.209257 0.525498 9539985 3
0.124131 0.209257 0.525498 8750469 3
0.132704 0.209170 0.525279 8882055 3
0.140445 0.207862 0.521995 9408399 3
0.149015 0.207862 0.521995 8618883 3
0.157553 0.207819 0.521886 7895419 3
0.165605 0.207172 0.520261 8421763 3
0.174147 0.207172 0.520261 8553351 3
0.182576 0.207044 0.519940 8948107 3
0.106517 0.217157 0.523741 9868950 3
0.114853 0.216659 0.522540 9408399 3
0.123613 0.216976 0.523305 9342606 3
0.132759 0.217886 0.525498 8882055 3
-0.192709 0.228470 0.598420 7236717 3
-0.183213 0.228881 0.599497 7170924 3
-0.105512 0.211263 0.553351 7499889 3
-0.186261 0.230321 0.578395 7302510 3
-0.179244 0.233553 0.586511 6973545 3
-0.112608 0.216523 0.543745 8289405 3
-0.103726 0.216618 0.543982 7895160 3
-0.195032 0.227874 0.549589 8223866 3
-0.187159 0.229284 0.552989 7302762 3
-0.179464 0.231067 0.557290 8354684 3
-0.171154 0.232206 0.560036 8486270 3
-0.162467 0.232935 0.561795 8420477 3
-0.131608 0.227429 0.548514 8025717 3
-0.120598 0.223711 0.539547 8288889 3
-0.110310 0.220850 0.532648 7828854 3
-0.101564 0.220850 0.532648 8552831 3
-0.193042 0.234481 0.543982 8684417 3
-0.185846 0.236692 0.549111 7631727 3
-0.178235 0.238573 0.553474 7894133 3
-0.170125 0.239951 0.556672 8486270 3
-0.160771 0.239632 0.555931 8486270 3
-0.151107 0.238784 0.553964 8354684 3
-0.141449 0.237839 0.551771 8617343 3
-0.130749 0.234891 0.544933 8223096 3
0.211040 0.200808 0.549602 8487808 3
0.220932 0.201600 0.551771 8356222 3
0.232241 0.203572 0.557166 7764087 3
0.239897 0.202313 0.553722 7500915 3
0.203408 0.202243 0.529725 8224638 3
0.080906 0.191800 0.524949 8224384 3
0.090073 0.192975 0.528164 8026746 3
0.099604 0.194655 0.532761 8421504 3
0.071715 0.198837 0.520802 7895419 3
0.080367 0.199085 0.521453 8158593 3
0.089263 0.199834 0.523415 8487045 3
-0.005704 0.206968 0.566463 8487297 3
-0.096405 0.211217 0.553230 7565168 3
-0.087358 0.211305 0.553460 7893620 3
-0.095415 0.218037 0.547547 8025719 3
-0.086843 0.219093 0.550198 8485757 3
-0.078085 0.219869 0.552147 9012101 3
-0.092819 0.220850 0.532648 9538958 3
0.022989 0.204712 0.586649 8487297 3
0.032822 0.205966 0.590243 8750469 3
0.042563 0.206208 0.590937 8553090 3
0.052539 0.207286 0.594027 8487297 3
0.062603 0.208321 0.596994 8684676 3
0.082288 0.208525 0.597578 8290431 3
0.091768 0.207776 0.595431 8882568 3
0.003743 0.215380 0.589484 8487810 3
0.013199 0.211810 0.579715 8487810 3
0.022326 0.208155 0.569710 8224125 3
0.031897 0.209584 0.573621 9408399 3
0.041670 0.211384 0.578548 9211020 3
0.052045 0.214999 0.588441 8158332 3
0.061274 0.213494 0.584322 7631988 3
0.021995 0.214292 0.561285 7895158 3
0.031211 0.214292 0.561285 8158330 3
0.040473 0.214537 0.561925 8224123 3
0.050514 0.218055 0.571140 7960694 3
0.057190 0.208217 0.545371 7894647 3
0.064251 0.202256 0.529759 8487295 3
0.098806 0.201772 0.528492 9934745 3
0.012706 0.222216 0.558041 8553090 3
0.021912 0.222660 0.559156 8882053 3
0.030989 0.221917 0.557290 8684674 3
0.063694 0.209127 0.525171 9737362 3
0.071478 0.206700 0.519076 9540498 3
0.079917 0.206486 0.518538 9277072 3
0.088689 0.207088 0.520050 11645109 3
0.098267 0.209301 0.525609 11974328 3
0.012352 0.224938 0.542508 8750469 3
0.021589 0.228428 0.550924 9079432 3
0.030269 0.225700 0.544345 8947846 3
0.063521 0.217157 0.523741 9934741 3
0.097816 0.216931 0.523195 9342608 3
0.401371 0.164597 0.494981 6514020 3
0.410553 0.165021 0.496257 7500913 3
0.420697 0.165808 0.498622 7435120 3
0.429323 0.165977 0.499132 7105644 3
0.409056 0.169180 0.484825 6842985 3
0.417988 0.169574 0.485955 6579559 3
0.429809 0.171104 0.490338 5987676 3
0.406539 0.176050 0.481841 6776938 3
0.414611 0.176118 0.482028 6448743 3
0.425884 0.177519 0.485860 6053985 3
-0.213535 0.232344 0.698713 6710375 3
-0.289480 0.240199 0.688346 7302510 3
-0.273963 0.236559 0.677915 6250076 3
-0.262904 0.236623 0.678099 5722960 3
-0.252865 0.237652 0.681049 6973029 3
-0.242476 0.238432 0.683283 7499891 3
-0.228451 0.235539 0.674993 6841959 3
-0.217368 0.235539 0.674993 7499375 3
-0.206286 0.235539 0.674993 7368303 3
-0.299578 0.250494 0.685591 6052443 3
-0.286103 0.248566 0.680315 6052697 3
-0.271684 0.245630 0.672277 6709857 3
-0.261770 0.246689 0.675176 6775648 3
-0.251566 0.247557 0.677552 7565166 3
-0.236298 0.243290 0.665874 6973031 3
-0.222692 0.240405 0.657977 6578787 3
-0.211889 0.240405 0.657977 6841445 3
-0.201669 0.241102 0.659885 7236203 3
-0.299578 0.261751 0.685591 8026235 3
-0.286333 0.259946 0.680863 7828854 3
-0.273523 0.258405 0.676827 7236199 3
-0.261699 0.257705 0.674993 7235942 3
-0.250617 0.257705 0.674993 6775650 3
-0.234044 0.251799 0.659525 7631729 3
-0.209108 0.235885 0.617842 7566193 3
-0.277600 0.262856 0.660097 7302510 3
-0.268159 0.264232 0.663553 7170406 3
-0.257264 0.264232 0.663553 6907234 3
0.170619 0.188932 0.597671 9013128 3
0.174142 0.182345 0.576834 8224125 3
0.182135 0.180877 0.572191 7763574 3
0.148914 0.184048 0.553474 9670544 3
0.158527 0.184659 0.555314 9671058 3
0.167237 0.184211 0.553964 8685189 3
0.176138 0.184007 0.553351 8487299 3
0.185716 0.184497 0.554824 8355713 3
0.111701 0.191654 0.549229 9013639 3
0.119930 0.190401 0.545639 8618883 3
0.128861 0.190360 0.545521 9276813 3
0.137339 0.189699 0.543627 9145229 3
0.145445 0.188635 0.540578 9144714 3
0.154890 0.189331 0.542573 8750469 3
0.164152 0.189740 0.543745 8684935 3
0.173494 0.190195 0.545047 8618885 3
0.183081 0.190859 0.546951 8223873 3
0.192313 0.191109 0.547667 8750471 3
0.108698 0.195278 0.534466 8947846 3
0.117474 0.195278 0.534466 8224125 3
0.126873 0.196243 0.537107 8355711 3
0.136363 0.197213 0.539763 8816264 3
0.144293 0.195946 0.536296 8684165 3
0.153460 0.196409 0.537563 8553092 3
0.162460 0.196620 0.538139 8422533 3
0.171296 0.196620 0.538139 8816523 3
0.180988 0.197555 0.540699 9539733 3
0.189824 0.197511 0.540578 8750471 3
0.199044 0.197853 0.541515 8750982 3
0.148361 0.202291 0.674993 8684417 3
0.158507 0.201103 0.671027 8947589 3
0.169069 0.200562 0.669224 9079432 3
0.100172 0.205459 0.649955 8223866 3
0.111596 0.206855 0.654370 8091510 3
0.122532 0.207179 0.655396 8486266 3
0.133889 0.208105 0.658325 8881796 3
0.145847 0.209757 0.663553 8553090 3
0.155836 0.208546 0.659719 9276813 3
0.107687 0.209976 0.631445 8750467 3
0.004323 0.204050 0.680863 8355711 3
0.015490 0.203886 0.680315 8882053 3
0.026338 0.201423 0.672096 8947846 3
0.037373 0.201423 0.672096 8881542 3
0.048125 0.200244 0.668164 9079432 3
0.004268 0.212458 0.672096 8422017 3
0.015287 0.212234 0.671387 8487810 3
0.025383 0.204753 0.647721 8355711 3
0.035588 0.202311 0.639996 8355711 3
0.045897 0.201436 0.637230 8553088 3
0.056074 0.200416 0.634002 8816260 3
0.066501 0.200467 0.634163 9079432 3
0.077641 0.202365 0.640166 9079432 3
0.088902 0.204086 0.645611 8553088 3
0.004225 0.221242 0.665325 8093052 3
0.034402 0.205725 0.618663 8684676 3
0.044232 0.204212 0.614111 9145225 3
0.054760 0.205883 0.619138 8618881 3
0.065214 0.206798 0.621890 8750467 3
0.076487 0.209712 0.630653 8618881 3
0.086973 0.210029 0.631605 8487810 3
0.097688 0.210773 0.633842 8882055 3
0.072875 0.209672 0.600865 8158332 3
-0.097993 0.207662 0.692913 7171437 3
-0.086616 0.207662 0.692913 6776938 3
-0.075239 0.207662 0.692913 6316641 3
-0.041465 0.209466 0.698932 7698292 3
-0.029772 0.207950 0.693876 8224636 3
-0.018354 0.207662 0.692913 7961466 3
-0.006912 0.205736 0.686487 8093052 3
-0.096289 0.215229 0.680863 8552577 3
-0.085109 0.215229 0.680863 7303282 3
-0.073971 0.215347 0.681236 7500404 3
-0.064079 0.219783 0.695267 8421245 3
-0.052954 0.220994 0.699100 8684415 3
-0.041475 0.220994 0.699100 8947846 3
-0.029285 0.215755 0.682527 9013639 3
-0.017933 0.214009 0.677002 9014154 3
-0.006822 0.214183 0.677552 7764087 3
-0.095049 0.223493 0.672096 8157819 3
-0.084263 0.224156 0.674088 7697783 3
-0.073373 0.224703 0.675733 7960953 3
-0.063302 0.228395 0.686835 8750210 3
-0.052025 0.228395 0.686835 8421245 3
-0.040504 0.227029 0.682729 8421502 3
-0.028871 0.223748 0.672861 8618881 3
-0.017727 0.222538 0.669224 8290431 3
-0.006739 0.222538 0.669224 8422017 3
-0.095330 0.235224 0.674088 7959924 3
-0.084880 0.236948 0.679028 7631475 3
-0.073930 0.237588 0.680863 8289405 3
-0.062751 0.237588 0.680863 8618370 3
-0.051267 0.236179 0.676827 8750210 3
-0.039351 0.231457 0.663294 8618624 3
-0.072667 0.244514 0.669224 9144200 3
-0.061679 0.244514 0.669224 8946821 3
-0.050105 0.241689 0.661491 8355198 3
-0.061679 0.255502 0.669224 9473933 3
-0.131510 0.206698 0.689697 7236978 3
-0.119687 0.205840 0.686835 7237232 3
-0.108470 0.205954 0.687215 6579302 3
-0.188956 0.218978 0.692723 6645352 3
-0.175169 0.216002 0.683308 6776427 3
-0.161955 0.213374 0.674993 6908267 3
-0.151321 0.214009 0.677002 7500404 3
-0.140814 0.214938 0.679942 6842474 3
-0.129826 0.215229 0.680863 7171439 3
-0.118647 0.215229 0.680863 7434611 3
-0.107468 0.215229 0.680863 6841961 3
-0.199069 0.228902 0.688361 7171439 3
-0.185721 0.226408 0.680863 7829369 3
-0.173929 0.225614 0.678473 6907756 3
-0.161217 0.223434 0.671917 7631475 3
-0.149583 0.222538 0.669224 7039338 3
-0.138595 0.222538 0.669224 7105133 3
-0.127983 0.223195 0.671199 6908267 3
-0.117466 0.224156 0.674088 7631990 3
-0.106227 0.223794 0.673002 7434096 3
-0.195784 0.236240 0.677002 7368303 3
-0.184369 0.235858 0.675906 6776679 3
-0.172021 0.234155 0.671027 7302512 3
-0.160528 0.233464 0.669046 7565682 3
-0.148986 0.232595 0.666554 7631729 3
-0.138595 0.233526 0.669224 8355200 3
-0.127641 0.233589 0.669404 8420993 3
-0.117119 0.234528 0.672096 7763061 3
-0.106084 0.234528 0.672096 7631475 3
-0.189985 0.240030 0.656951 7434096 3
-0.178728 0.239399 0.655223 7236717 3
-0.168014 0.239462 0.655396 7367535 3
-0.157709 0.240156 0.657297 8288889 3
-0.144675 0.236492 0.647269 8288889 3
-0.134534 0.237351 0.649618 7894133 3
-0.122693 0.235099 0.643454 7960440 3
-0.183173 0.241824 0.633396 7170924 3
-0.173960 0.243484 0.637744 7368303 3
-0.167969 0.250157 0.655223 7762547 3
0.289498 0.169963 0.599994 8421502 3
0.297784 0.169075 0.596857 8289916 3
0.269731 0.179772 0.599851 9342865 3
0.278513 0.179086 0.597562 8750471 3
0.287296 0.178447 0.595431 8553090 3
0.296299 0.177982 0.593881 8026746 3
0.236337 0.186583 0.590243 8487808 3
0.249574 0.189273 0.598750 9145740 3
0.257559 0.187925 0.594489 8685189 3
0.265660 0.186759 0.590799 8487556 3
0.274390 0.186101 0.588716 8684678 3
0.284123 0.186144 0.588855 8553090 3
0.294693 0.186715 0.590661 8158332 3
0.299738 0.183861 0.581632 8487295 3
0.230638 0.191542 0.576011 8356222 3
0.242996 0.193856 0.582970 8356224 3
0.250944 0.192609 0.579221 8224638 3
0.254499 0.188205 0.565977 8421763 3
0.262842 0.187528 0.563939 8092541 3
0.272593 0.187867 0.564959 8289920 3
0.284045 0.189317 0.569320 8421504 3
0.290820 0.187657 0.564328 8421504 3
0.297402 0.185978 0.559280 8224638 3
0.202993 0.192712 0.552260 8487810 3
0.213755 0.194251 0.556672 8224636 3
0.224343 0.195513 0.560290 8356222 3
0.235647 0.197275 0.565337 8553603 3
0.244819 0.197186 0.565084 8093052 3
0.252389 0.195861 0.561285 8421763 3
0.278552 0.194822 0.558309 8487556 3
0.279973 0.189578 0.543279 8158845 3
0.284511 0.186702 0.535038 8027005 3
0.243573 0.197913 0.541679 7500661 3
0.250763 0.196578 0.538024 8224386 3
0.254494 0.192713 0.527447 8684937 3
0.258818 0.189538 0.518757 8421763 3
0.262240 0.185925 0.508868 8224384 3
0.270697 0.185995 0.509061 8421763 3
0.280271 0.186805 0.511277 8355970 3
0.219699 0.193606 0.507102 7895673 3
0.231160 0.196268 0.514074 7698294 3
0.242292 0.198472 0.519848 7961466 3
0.250046 0.197854 0.518230 8750728 3
0.253682 0.194126 0.508463 8092798 3
0.257832 0.191014 0.500314 7763835 3
0.266632 0.191435 0.501417 7829626 3
0.275140 0.191627 0.501918 8619142 3
0.284007 0.192050 0.503028 7763322 3
0.372319 0.153637 0.575729 7434609 3
0.306050 0.168231 0.593881 8355709 3
0.314608 0.167596 0.591637 7961212 3
0.323101 0.166965 0.589410 7369075 3
0.332387 0.166768 0.588716 7763833 3
0.341172 0.166339 0.587200 7632247 3
0.353762 0.158998 0.561285 8355711 3
0.371960 0.151401 0.534466 7500404 3
0.304107 0.176852 0.590110 8618881 3
0.312981 0.176393 0.588578 8685189 3
0.320687 0.175323 0.585006 8290431 3
0.329906 0.175118 0.584322 7829880 3
0.336536 0.173589 0.579221 7632501 3
0.336395 0.168747 0.563066 7697781 3
0.343239 0.167575 0.559156 7566195 3
0.351244 0.167016 0.557290 7434609 3
0.357621 0.165731 0.553002 7763574 3
0.358643 0.162089 0.540849 7895160 3
0.361416 0.159396 0.531862 7105644 3
0.368113 0.158519 0.528937 7236719 3
0.375529 0.157986 0.527157 7236719 3
0.382095 0.157126 0.524290 6908267 3
0.390376 0.156995 0.523850 7105646 3
0.304958 0.181287 0.573490 8619396 3
0.312444 0.180175 0.569969 7895673 3
0.320344 0.179358 0.567386 7698294 3
0.328029 0.178471 0.564579 7961466 3
0.333109 0.176254 0.557566 8356222 3
0.338406 0.174267 0.551282 8027257 3
0.346314 0.173694 0.549468 7698294 3
0.351730 0.171931 0.543892 7631988 3
0.354639 0.169061 0.534811 7500915 3
0.359053 0.167029 0.528385 7369329 3
0.366874 0.166641 0.527157 6842474 3
0.373409 0.165700 0.524181 7171439 3
0.376135 0.163149 0.516112 7565684 3
0.382383 0.162205 0.513125 8092541 3
0.385520 0.160010 0.506181 7566195 3
0.393033 0.159686 0.505156 6908778 3
0.306516 0.185937 0.559156 7829880 3
0.314644 0.185317 0.557290 7435122 3
0.323580 0.185194 0.556922 7566708 3
0.327631 0.182359 0.548397 7895673 3
0.332624 0.180187 0.541863 8027259 3
0.341374 0.180109 0.541630 7895673 3
0.347190 0.178527 0.536872 7697781 3
0.365719 0.174745 0.525498 7434868 3
0.372478 0.173872 0.522873 6842474 3
0.374431 0.170846 0.513774 6776681 3
0.379275 0.169243 0.508954 6579302 3
0.330338 0.187784 0.538139 8027259 3
0.337582 0.186903 0.535614 8158843 3
0.345634 0.186502 0.534466 8355709 3
0.351055 0.184737 0.529406 7040364 3
0.357091 0.183373 0.525498 7040364 3
0.364879 0.182951 0.524290 7566454 3
0.372010 0.182228 0.522217 7632247 3
0.372303 0.178263 0.510853 7171696 3
0.375613 0.175885 0.504039 6908524 3
0.359759 0.188872 0.516933 7304052 3
0.369237 0.189380 0.518325 7040880 3
0.371842 0.186419 0.510221 7633017 3
0.375159 0.183938 0.503431 7435638 3
0.358700 0.192243 0.503532 7041393 3
0.365355 0.191398 0.501320 6909294 3
0.373658 0.191435 0.501417 7040880 3
-0.069778 0.202038 0.757107 6447973 3
-0.057827 0.203727 0.763433 6448741 3
-0.077182 0.201353 0.710804 6842731 3
-0.066246 0.203614 0.718785 6382434 3
-0.054931 0.205432 0.725203 7631986 3
-0.043186 0.206208 0.727945 7238257 3
-0.030866 0.203781 0.719376 7961466 3
-0.018909 0.202216 0.713852 8224638 3
-0.007117 0.200223 0.706814 7698294 3
-0.064855 0.210892 0.703691 7303021 3
-0.053506 0.211702 0.706396 7631727 3
-0.306638 0.211057 0.790901 4868682 3
-0.355688 0.222235 0.784521 4670792 3
-0.334104 0.216593 0.764604 5065552 3
-0.326023 0.219606 0.775240 5262931 3
-0.314366 0.220357 0.777891 4539465 3
-0.302061 0.220698 0.779097 6512994 3
-0.393563 0.234658 0.782992 4013373 3
-0.377884 0.232918 0.777187 3947580 3
-0.357702 0.228184 0.761390 4342340 3
-0.335105 0.221510 0.739122 4933966 3
-0.318456 0.218414 0.728792 4868173 3
-0.309186 0.220336 0.735204 4670792 3
-0.387747 0.243856 0.771421 4276545 3
-0.372230 0.242003 0.765558 3947582 3
-0.348912 0.234770 0.742679 4605769 3
-0.329564 0.229783 0.726901 5132113 3
-0.315335 0.228123 0.721652 5855579 3
-0.302530 0.227404 0.719376 6776681 3
-0.390767 0.258520 0.777431 4868682 3
-0.370311 0.253260 0.761611 5131856 3
-0.347859 0.246219 0.740439 4934734 3
-0.327586 0.240267 0.722537 5723993 3
-0.314883 0.239628 0.720617 5987165 3
-0.301411 0.238331 0.716716 7895160 3
-0.360991 0.250613 0.718190 4144959 3
-0.354315 0.254285 0.728712 5131856 3
-0.347441 0.258066 0.739549 4934734 3
-0.325033 0.250165 0.716907 5000270 3
-0.309541 0.247193 0.708391 5658198 3
-0.350837 0.263636 0.721559 5855579 3
-0.341597 0.265664 0.727110 5329492 3
-0.320540 0.258315 0.706997 5658198 3
-0.320905 0.270231 0.707803 7763574 3
-0.441760 0.227115 0.851078 4408133 3
-0.431018 0.228831 0.857508 3684408 3
-0.422467 0.231865 0.868879 4210752 3
-0.422079 0.239748 0.898420 4408131 3
-0.437009 0.238497 0.841927 4934477 3
-0.424758 0.239383 0.845056 4737096 3
-0.408549 0.238023 0.840254 4802889 3
-0.431114 0.248917 0.830570 4342338 3
0.451997 0.139597 0.557414 5855579 3
0.465086 0.140789 0.562173 5461080 3
0.481902 0.143040 0.571164 4474955 3
0.417025 0.146116 0.547547 7171439 3
0.426297 0.146213 0.547910 6710886 3
0.439714 0.147698 0.553474 6842474 3
0.451395 0.148551 0.556672 6316130 3
0.461149 0.148749 0.557414 6250594 3
0.473145 0.149649 0.560784 5921631 3
0.489722 0.151935 0.569353 5395285 3
0.404153 0.153631 0.542338 7105646 3
0.418397 0.155616 0.549348 7566197 3
0.426393 0.155244 0.548032 6645606 3
0.441176 0.157306 0.555314 7237489 3
0.450293 0.157306 0.555314 7237489 3
0.460535 0.157691 0.556672 6645352 3
0.471456 0.158289 0.558783 6777192 3
0.484418 0.159537 0.563187 6184542 3
0.404928 0.159336 0.531663 6974317 3
0.416661 0.160493 0.535524 7040364 3
0.439133 0.165653 0.552742 6580329 3
0.448702 0.165836 0.553351 6842731 3
0.457788 0.165836 0.553351 6514020 3
0.469263 0.166685 0.556183 6250333 3
0.482352 0.168064 0.560784 5723732 3
0.496228 0.169660 0.566110 4473411 3
0.427783 0.163457 0.517083 6382432 3
0.439137 0.164530 0.520478 6448225 3
0.459717 0.168952 0.534468 6447712 3
0.490508 0.176892 0.559585 5789271 3
0.484385 0.183757 0.552599 6447714 3
0.454054 0.185781 0.508473 5264467 3
0.467318 0.187755 0.513878 5198674 3
0.106882 0.173677 0.693496 7960951 3
0.104481 0.180906 0.677915 8684417 3
0.115580 0.180857 0.677733 8552061 3
0.126196 0.180126 0.674993 8618370 3
0.137429 0.180323 0.675733 9144968 3
0.150964 0.183286 0.686835 9276554 3
0.162241 0.183286 0.686835 8618624 3
0.174574 0.184401 0.691014 8092537 3
0.186081 0.184561 0.691612 7500915 3
0.191814 0.179305 0.671917 8553088 3
0.103584 0.190388 0.672096 6709855 3
0.114619 0.190388 0.672096 6380379 3
0.125654 0.190388 0.672096 7565166 3
0.136877 0.190649 0.673017 7500143 3
0.150964 0.194563 0.686835 7829108 3
0.162241 0.194563 0.686835 7302764 3
0.170959 0.191693 0.676702 7368814 3
0.178413 0.187843 0.663113 7763574 3
0.181686 0.180287 0.636438 7960951 3
0.191400 0.179597 0.634002 8224377 3
0.102267 0.198863 0.663553 6250074 3
0.113162 0.198863 0.663553 6973027 3
0.124057 0.198863 0.663553 8354682 3
0.135097 0.199077 0.664268 8355452 3
0.177705 0.197942 0.660480 8881542 3
0.180193 0.189169 0.631207 8750467 3
0.189103 0.187726 0.626394 9211272 3
0.159338 0.199373 0.630704 8816262 3
0.164143 0.192853 0.610076 9144714 3
0.026835 0.171497 0.684790 7895671 3
0.073169 0.174743 0.697751 8290429 3
0.084038 0.173531 0.692913 8750467 3
0.095415 0.173531 0.692913 8027257 3
0.026603 0.181156 0.678853 8356222 3
0.038648 0.185473 0.695031 8224125 3
0.049826 0.184605 0.691777 8158843 3
0.061015 0.184093 0.689861 8356222 3
0.071868 0.182889 0.685349 8356222 3
0.082242 0.180955 0.678099 8684674 3
0.093731 0.181643 0.680678 8947846 3
0.004390 0.195856 0.691401 7698294 3
0.015553 0.193506 0.683102 8553601 3
0.026352 0.190491 0.672460 8684674 3
0.037697 0.192036 0.677915 9145227 3
0.048683 0.191467 0.675906 8356222 3
0.059700 0.191209 0.674993 8093050 3
0.070745 0.191106 0.674633 8355709 3
0.081187 0.189625 0.669404 8750467 3
0.092549 0.190388 0.672096 8421243 3
0.058938 0.199709 0.666376 8355709 3
0.069437 0.198447 0.662165 8026744 3
0.079488 0.196418 0.655396 8223866 3
0.091132 0.198340 0.661810 7566447 3
-0.186747 0.209238 0.835494 5920608 3
-0.169750 0.205274 0.819662 5854815 3
-0.156080 0.204996 0.818553 6053217 3
-0.141855 0.203867 0.814046 6579561 3
-0.127535 0.202353 0.808001 6776940 3
-0.195695 0.217652 0.815617 7236978 3
-0.181958 0.217240 0.814072 8486533 3
-0.157795 0.220836 0.827547 7697529 3
-0.145153 0.222283 0.832970 6382182 3
-0.132448 0.223926 0.839128 6776940 3
0.516411 0.137868 0.589135 4672079 3
0.521786 0.136742 0.584322 4145990 3
0.531380 0.136742 0.584322 4409162 3
0.541486 0.136871 0.584876 4869195 3
0.502886 0.146420 0.584658 4540748 3
0.513277 0.146646 0.585560 4935506 3
0.518523 0.145421 0.580668 5197908 3
0.524421 0.144419 0.576670 4802637 3
0.524236 0.141808 0.566244 4671305 3
0.526855 0.140033 0.559156 4802891 3
0.533894 0.139474 0.556922 4670790 3
0.533678 0.137069 0.547322 4144446 3
0.535182 0.135180 0.539775 4472643 3
0.506175 0.154098 0.577458 6316130 3
0.509084 0.152134 0.570098 4341829 3
0.517620 0.151892 0.569192 4604231 3
0.520702 0.150087 0.562426 4407620 3
0.526855 0.149214 0.559156 3946299 3
0.532594 0.148256 0.555566 3288623 3
0.528064 0.144520 0.541564 2893865 3
0.500862 0.161862 0.571397 4736585 3
0.508620 0.161347 0.569579 3288369 3
0.519509 0.161826 0.571268 3814202 3
0.522696 0.159931 0.564579 3419955 3
0.528874 0.159002 0.561298 4472643 3
0.528373 0.156130 0.551162 5459792 3
0.526133 0.152850 0.539584 5920343 3
0.506662 0.170042 0.567386 4275264 3
0.515746 0.169965 0.567130 4472132 3
0.520230 0.168403 0.561916 4670022 3
0.528279 0.168028 0.560667 4472643 3
0.528373 0.165180 0.551162 4736583 3
0.504265 0.178509 0.564702 5065550 3
0.524981 0.176127 0.557166 6118238 3
0.504265 0.187781 0.564702 6184542 3
0.510584 0.186702 0.561455 6052958 3
0.504190 0.181094 0.544591 5591894 3
0.249466 0.158826 0.678694 7631990 3
0.259119 0.157918 0.674812 7763576 3
0.269111 0.157282 0.672096 8026233 3
0.277481 0.155786 0.665702 7697522 3
0.283580 0.153176 0.654549 8026744 3
0.288890 0.150347 0.642458 7895412 3
0.296251 0.148746 0.635619 7369327 3
0.234141 0.175179 0.699494 8289918 3
0.248390 0.169236 0.675765 7631990 3
0.257939 0.168228 0.671739 8092541 3
0.266821 0.166885 0.666376 7697783 3
0.274285 0.164796 0.658035 8092539 3
0.278201 0.160814 0.642135 8092537 3
0.285015 0.158737 0.633842 8289916 3
0.292687 0.157267 0.627972 8158332 3
0.201980 0.178539 0.669046 8092791 3
0.212059 0.177779 0.666200 8355709 3
0.221467 0.176559 0.661628 8092539 3
0.231665 0.176054 0.659733 8289918 3
0.236936 0.172016 0.644604 8026748 3
0.248414 0.172638 0.646935 7960955 3
0.258037 0.171972 0.644438 8487299 3
0.266366 0.170530 0.639035 8421504 3
0.271280 0.167094 0.626159 8092537 3
0.280196 0.166284 0.623124 8026744 3
0.288426 0.165139 0.618832 8092539 3
0.297259 0.164404 0.616079 8224377 3
0.205264 0.182671 0.644853 8158330 3
0.216272 0.183026 0.646109 7895160 3
0.226236 0.182506 0.644273 7566195 3
0.232647 0.179295 0.632937 7237230 3
0.241433 0.178110 0.628752 7895160 3
0.250812 0.177442 0.626394 8553090 3
0.260840 0.177267 0.625777 8158330 3
0.263500 0.172288 0.608201 7960951 3
0.270833 0.170617 0.602302 7631988 3
0.279983 0.170167 0.600715 7697781 3
0.202759 0.190900 0.636983 8422015 3
0.214226 0.191803 0.639996 8158332 3
0.224166 0.191318 0.638378 7895160 3
0.230185 0.187680 0.626238 7763572 3
0.237565 0.185415 0.618681 8026744 3
0.245954 0.184091 0.614263 7961466 3
0.256922 0.184725 0.616378 8422015 3
0.262480 0.181569 0.605848 8619394 3
-0.188184 0.197026 0.841927 6250083 3
-0.173086 0.195585 0.835769 6579562 3
-0.159413 0.195646 0.836033 6447975 3
-0.143828 0.193151 0.825368 5725020 3
-0.129286 0.191683 0.819095 5856865 3
-0.113284 0.187458 0.801041 6250597 3
0.311913 0.145622 0.669224 7303534 3
0.314829 0.141982 0.652493 7171689 3
0.305677 0.148256 0.633526 7895412 3
0.312520 0.146587 0.626394 7303275 3
0.348565 0.158285 0.676379 7828854 3
0.369589 0.162650 0.695031 7763576 3
0.346582 0.147956 0.632244 7631990 3
0.385217 0.159667 0.682288 6776938 3
0.301333 0.156404 0.624523 7961205 3
0.310040 0.155627 0.621422 8092790 3
0.321600 0.156286 0.624055 7566193 3
0.352849 0.166178 0.663553 7895162 3
0.362471 0.165596 0.661230 7368818 3
0.355374 0.157633 0.629431 7303025 3
0.392181 0.169043 0.674993 7500404 3
0.302394 0.161741 0.606098 8224376 3
0.312289 0.161711 0.605987 7434609 3
0.093101 0.167037 0.767639 7237230 3
0.057547 0.186973 0.798972 7829878 3
0.065963 0.174534 0.745814 8027257 3
0.075436 0.168347 0.719376 7500400 3
0.087098 0.168057 0.718136 7434607 3
0.098465 0.167337 0.715061 7764085 3
0.004830 0.190495 0.760652 7698294 3
0.017359 0.190933 0.762402 8158845 3
0.038995 0.175620 0.701255 7434609 3
0.050579 0.175865 0.702235 7698292 3
0.062109 0.175865 0.702235 8093050 3
0.004557 0.191531 0.717732 7764087 3
0.016045 0.188047 0.704678 7764085 3
-0.084597 0.169530 0.779097 5790045 3
-0.072527 0.171234 0.786927 5921629 3
-0.059606 0.171234 0.786927 5921883 3
-0.098462 0.184331 0.787679 7303285 3
-0.084597 0.182322 0.779097 7171699 3
-0.071783 0.182266 0.778856 7303284 3
-0.058757 0.181533 0.775724 6842731 3
-0.046496 0.183408 0.783737 6646124 3
-0.097665 0.195667 0.781302 6250084 3
-0.083893 0.193491 0.772614 6053218 3
-0.071097 0.193192 0.771421 6580329 3
-0.058235 0.192541 0.768821 6580329 3
-0.045514 0.192128 0.767174 6251623 3
-0.032638 0.190495 0.760652 7040882 3
-0.020321 0.192128 0.767174 7369075 3
-0.007655 0.190379 0.760186 7566195 3
-0.090652 0.193525 0.725203 7171699 3
-0.079182 0.194599 0.729228 7500663 3
-0.044401 0.199722 0.748428 5725020 3
-0.031444 0.195563 0.732842 6317157 3
-0.019260 0.194033 0.727110 7040110 3
-0.007254 0.192248 0.720420 7434609 3
-0.099758 0.199822 0.705398 7171439 3
-0.088201 0.199878 0.705598 7040110 3
-0.271126 0.183202 0.841927 4934988 3
-0.257303 0.183202 0.841927 6053985 3
-0.212280 0.192518 0.884737 5657687 3
-0.282389 0.195256 0.834362 4868682 3
-0.268331 0.194995 0.833249 4934988 3
-0.255927 0.195972 0.837425 5461848 3
-0.242341 0.196105 0.837991 4935506 3
-0.230819 0.198024 0.846193 5921370 3
-0.215832 0.197026 0.841927 5460821 3
-0.202008 0.197026 0.841927 5723993 3
0.300659 0.157522 0.782992 7763576 3
0.313515 0.157522 0.782992 7631990 3
0.306451 0.147908 0.735204 7566195 3
0.318523 0.147908 0.735204 7566708 3
0.315560 0.158491 0.728365 7895158 3
0.315769 0.152805 0.702235 7631986 3
0.368538 0.160734 0.738672 7303275 3
0.370189 0.156310 0.718341 7434096 3
0.375101 0.153494 0.705398 7566197 3
-0.087649 0.162394 0.807208 6513255 3
-0.074396 0.162394 0.807208 6579302 3
-0.023839 0.181060 0.899991 6776681 3
-0.009010 0.180025 0.894848 7105903 3
-0.050491 0.185194 0.851078 6646124 3
-0.037123 0.188263 0.865185 6382182 3
-0.022917 0.188263 0.865185 6645095 3
-0.008712 0.188263 0.865185 6908524 3
-0.035902 0.195808 0.836725 6579561 3
-0.670861 0.308867 1.535279 4276547 3
-0.658566 0.315044 1.565984 4013121 3
-0.632854 0.315044 1.565984 3684156 3
-0.607142 0.315044 1.565984 4078914 3
-0.645653 0.334075 1.535279 4671052 3
-0.620445 0.334075 1.535279 5132115 3
-0.607142 0.340756 1.565984 4671305 3
0.511469 0.146127 0.790901 6053983 3
0.524455 0.146127 0.790901 5987676 3
0.540169 0.146869 0.794916 5329492 3
0.556043 0.147619 0.798972 5328981 3
0.566272 0.146869 0.794916 5789020 3
0.570634 0.144666 0.782992 5263442 3
0.558363 0.138437 0.749275 4934734 3
0.590441 0.143234 0.775240 5066320 3
0.597257 0.141830 0.767639 5066320 3
0.501341 0.155962 0.775240 6777706 3
0.511537 0.155194 0.771421 7237743 3
0.524203 0.155194 0.771421 6250594 3
0.536869 0.155194 0.771421 6250083 3
0.544174 0.153680 0.763895 6052705 3
0.540885 0.149310 0.742173 6316389 3
0.550462 0.148606 0.738672 6184801 3
0.578976 0.152934 0.760186 5132113 3
0.580192 0.150021 0.745707 5066320 3
0.586847 0.148606 0.738672 4868943 3
0.501652 0.164616 0.756514 6514020 3
0.511602 0.163825 0.752877 6250848 3
0.523963 0.163825 0.752877 5987422 3
0.526206 0.160734 0.738672 6645354 3
0.538334 0.160734 0.738672 6513766 3
0.540268 0.157757 0.724993 5855836 3
0.562590 0.160734 0.738672 4934734 3
0.569347 0.159232 0.731768 5263699 3
0.581362 0.159232 0.731768 5329494 3
0.593377 0.159232 0.731768 5263702 3
0.502248 0.172965 0.739111 6579813 3
0.518516 0.174355 0.745050 5922399 3
0.523582 0.172000 0.734989 6580331 3
0.532691 0.171050 0.730929 6513766 3
0.535937 0.168301 0.719181 6579559 3
0.557333 0.171247 0.731768 5724250 3
0.565723 0.170157 0.727110 6119008 3
0.575979 0.169661 0.724993 5000527 3
0.587883 0.169661 0.724993 5395287 3
0.596004 0.168591 0.720420 4869458 3
0.598571 0.166022 0.709443 5790815 3
0.523091 0.192782 0.769785 7237230 3
0.523368 0.188334 0.752022 7105903 3
0.513050 0.180366 0.720205 6382180 3
0.020492 0.166283 0.899991 6710634 3
0.063724 0.163465 0.884737 7631990 3
0.077811 0.162546 0.879766 6776681 3
0.092777 0.163465 0.884737 7039340 3
0.005618 0.177991 0.884737 6644841 3
0.020031 0.176991 0.879766 6842220 3
0.034093 0.175025 0.869991 7171439 3
0.047846 0.173101 0.860431 7171439 3
0.061635 0.172155 0.855729 7039851 3
0.076101 0.173101 0.860431 7237230 3
0.090228 0.173101 0.860431 7697268 3
0.005524 0.189309 0.869991 7500404 3
0.019809 0.189309 0.869991 7039853 3
0.033718 0.187229 0.860431 7303023 3
0.047584 0.186206 0.855729 7500402 3
0.061300 0.185194 0.851078 7632501 3
0.075685 0.186206 0.855729 7435122 3
0.087348 0.181253 0.832970 7895160 3
0.046511 0.195739 0.836428 8355711 3
-0.184459 0.215920 1.168645 6118751 3
-0.162841 0.212744 1.151459 6381923 3
-0.141849 0.209661 1.134771 6776681 3
-0.119746 0.203755 1.102806 7105392 3
-0.181747 0.231650 1.151459 6119778 3
-0.162841 0.231650 1.151459 6381923 3
-0.280399 0.215920 1.168645 6184033 3
-0.206733 0.219191 1.186352 6447973 3
-0.282709 0.221862 1.102806 7565684 3
-0.264602 0.221862 1.102806 7236719 3
-0.200653 0.231650 1.151459 6908524 3
0.608516 0.134500 0.798972 5658200 3
0.621634 0.134500 0.798972 5460821 3
0.628341 0.133142 0.790901 3750463 3
0.647871 0.134500 0.798972 3684670 3
0.660989 0.134500 0.798972 3947842 3
0.609860 0.141830 0.767639 5263701 3
0.622464 0.141830 0.767639 4408139 3
0.654313 0.146127 0.790901 4014151 3
0.604680 0.150021 0.745707 5263702 3
0.628902 0.152934 0.760186 5461597 3
0.605392 0.159232 0.731768 5461595 3
0.617407 0.159232 0.731768 5198678 3
-0.025764 0.163739 0.972661 6447203 3
-0.009794 0.163739 0.972661 6973545 3
-0.075073 0.183122 0.991129 6908265 3
-0.058065 0.180833 0.978740 7105646 3
-0.040971 0.176422 0.954868 6315619 3
-0.024400 0.170195 0.921167 6512996 3
-0.009275 0.170195 0.921167 6908267 3
-0.071455 0.189786 0.943364 6776679 3
-0.055966 0.189786 0.943364 6513768 3
-0.039294 0.184236 0.915780 6644841 3
0.739699 0.121382 0.798972 3816507 3
0.752818 0.121382 0.798972 3816507 3
0.765936 0.121382 0.798972 3487031 3
0.739699 0.134500 0.798972 3882300 3
0.752818 0.134500 0.798972 3487542 3
0.758199 0.133142 0.790901 3684408 3
0.779054 0.134500 0.798972 3947580 3
0.739699 0.147619 0.798972 3553335 3
0.752818 0.147619 0.798972 3421236 3
0.765936 0.147619 0.798972 3750201 3
0.779054 0.147619 0.798972 3947067 3
0.752818 0.160737 0.798972 4802889 3
0.765936 0.160737 0.798972 4342338 3
0.779054 0.160737 0.798972 4539204 3
0.752818 0.173855 0.798972 4013373 3
0.765936 0.173855 0.798972 3750201 3
0.789672 0.186383 0.796449 3947071 3
0.206536 0.116622 0.767639 6776168 3
0.201595 0.126134 0.749275 7301742 3
0.213898 0.126134 0.749275 7105133 3
0.202565 0.139102 0.752877 7631477 3
0.214926 0.139102 0.752877 6908267 3
0.230614 0.141138 0.763895 7368818 3
0.272225 0.143234 0.775240 7566195 3
0.202565 0.151464 0.752877 7895162 3
0.214926 0.151464 0.752877 7763576 3
0.227288 0.151464 0.752877 7697781 3
0.254321 0.160737 0.798972 8816262 3
0.259496 0.155962 0.775240 7895160 3
0.268241 0.153680 0.763895 7697781 3
0.201595 0.163041 0.749275 7631990 3
0.213898 0.163041 0.749275 7829367 3
0.222999 0.160734 0.738672 7500402 3
0.232930 0.159232 0.731768 7829365 3
0.252010 0.163825 0.752877 7697781 3
0.259384 0.160734 0.738672 7895160 3
0.262834 0.155596 0.715061 7631990 3
0.272089 0.154188 0.708590 8026748 3
0.283724 0.154188 0.708590 8684163 3
0.296701 0.154889 0.711811 8618370 3
0.201898 0.175607 0.750400 7895160 3
0.213134 0.174718 0.746601 8092539 3
0.221832 0.171958 0.734807 8158330 3
0.231109 0.169908 0.726047 8487295 3
0.242677 0.169661 0.724993 8026746 3
0.249443 0.166237 0.710361 7829367 3
0.211808 0.185812 0.741954 8422015 3
0.220426 0.182856 0.730150 8684928 3
0.224411 0.176559 0.705005 8487038 3
0.247227 0.176320 0.704051 7631988 3
-0.236502 0.160749 1.058097 5328724 3
-0.222131 0.162951 1.072592 5328724 3
-0.208811 0.166370 1.095094 5197138 3
-0.298713 0.184350 1.095094 5197136 3
-0.274964 0.180562 1.072592 8025468 3
-0.257353 0.180562 1.072592 6775401 3
-0.227288 0.171182 1.016873 6380642 3
-0.214776 0.174583 1.037076 6051677 3
-0.201756 0.178122 1.058097 5986652 3
-0.288621 0.195495 1.058097 5986650 3
-0.271248 0.195495 1.058097 5525331 3
-0.227288 0.187878 1.016873 6052445 3
-0.210592 0.187878 1.016873 6578789 3
0.829862 0.115324 0.851078 3157812 3
0.843836 0.115324 0.851078 3223348 3
0.871784 0.115324 0.851078 3026226 3
0.829862 0.129298 0.851078 4342340 3
0.834763 0.127908 0.841927 3749692 3
0.876548 0.130005 0.855729 2631981 3
0.885758 0.129298 0.851078 2830130 3
0.812910 0.138021 0.819887 3420984 3
0.839559 0.140224 0.832970 2960433 3
0.871784 0.143272 0.851078 3158325 3
0.885758 0.143272 0.851078 2106407 3
0.812910 0.151483 0.819887 3552570 3
0.830721 0.152280 0.824202 2631981 3
0.871784 0.157246 0.851078 3487290 3
0.876233 0.155555 0.841927 3356474 3
0.800339 0.162394 0.807208 3749949 3
0.830721 0.165813 0.824202 3486777 3
0.867071 0.170294 0.846478 3092532 3
0.817189 0.179345 0.824202 3815742 3
0.848586 0.183202 0.841927 3815742 3
0.835056 0.193884 0.828503 3552313 3
0.490451 0.108264 0.798972 5921370 3
0.490451 0.121382 0.798972 6447714 3
0.490451 0.134500 0.798972 6513507 3
0.472511 0.146127 0.790901 7368816 3
0.485497 0.146127 0.790901 6711399 3
0.498483 0.146127 0.790901 6843499 3
0.467786 0.157522 0.782992 6579813 3
0.480642 0.157522 0.782992 6645606 3
0.488612 0.155962 0.775240 6974571 3
0.401139 0.159232 0.731768 7303025 3
0.437697 0.168691 0.775240 7303282 3
0.475883 0.168691 0.775240 6579813 3
0.474517 0.163825 0.752877 7237743 3
0.486879 0.163825 0.752877 7237230 3
0.437745 0.176312 0.753414 7106157 3
0.476285 0.186563 0.797218 7237743 3
0.493242 0.178489 0.762717 7236717 3
0.489821 0.172862 0.738672 6777190 3
0.421069 0.176507 0.704795 7237230 3
0.482009 0.196647 0.785218 7697781 3
0.456615 0.112871 0.832970 6513255 3
0.467804 0.112273 0.828563 7039087 3
0.478874 0.111682 0.824202 6578791 3
0.482254 0.109380 0.807208 5987165 3
0.447701 0.127908 0.841927 7631990 3
0.456615 0.126547 0.832970 7039853 3
0.465341 0.125215 0.824202 6052704 3
0.476367 0.124559 0.819887 5460567 3
0.482254 0.122633 0.807208 5921370 3
0.450121 0.142498 0.846478 7302510 3
0.456615 0.140224 0.832970 6842474 3
0.467804 0.139482 0.828563 6118497 3
0.476367 0.138021 0.819887 6645352 3
0.487277 0.137302 0.815617 6118749 3
0.445307 0.154723 0.837425 6645093 3
0.456615 0.153900 0.832970 7237230 3
0.462905 0.151483 0.819887 6974317 3
0.471430 0.149913 0.811391 6711147 3
0.405487 0.175025 0.869991 7303536 3
0.448341 0.175025 0.869991 8026235 3
0.462625 0.175025 0.869991 7895160 3
0.466542 0.171220 0.851078 7171437 3
0.460494 0.164086 0.815617 6908524 3
0.469000 0.162394 0.807208 6316387 3
0.469000 0.175647 0.807208 7369075 3
0.482254 0.175647 0.807208 7106157 3
0.499056 0.190254 0.812989 6974571 3
0.232837 0.110519 0.815617 6250337 3
0.230436 0.122633 0.807208 7105133 3
0.254171 0.141731 0.841927 7039340 3
0.265144 0.153900 0.832970 6842472 3
0.278820 0.153900 0.832970 7171437 3
0.192662 0.110519 0.815617 6052958 3
0.181157 0.125215 0.824202 6974060 3
0.163561 0.147274 0.874852 6975339 3
0.167624 0.138748 0.824202 7040364 3
0.109153 0.166283 0.899991 7170926 3
0.138707 0.166283 0.899991 7303025 3
0.151740 0.164393 0.889764 7566197 3
0.152487 0.150694 0.815617 7368818 3
0.102663 0.170294 0.846478 7960440 3
0.117195 0.171220 0.851078 8553090 3
0.131169 0.171220 0.851078 8158332 3
0.145143 0.171220 0.851078 8289918 3
0.100745 0.130182 0.960726 5658711 3
0.114414 0.127829 0.943364 6118749 3
0.145392 0.127829 0.943364 6184542 3
0.113052 0.141612 0.932133 6118751 3
0.128356 0.141612 0.932133 5723991 3
0.142811 0.140774 0.926618 6381921 3
0.157096 0.139946 0.921167 6514020 3
0.182984 0.148693 0.978740 6316641 3
0.187345 0.139946 0.921167 7369329 3
0.110423 0.153268 0.910456 6184031 3
0.125371 0.153268 0.910456 7368818 3
0.140320 0.153268 0.910456 6777192 3
0.154372 0.152382 0.905193 6974571 3
0.124647 0.167244 0.905193 7763576 3
0.084971 0.130182 0.960726 5198160 3
0.006215 0.148693 0.978740 7105903 3
0.022010 0.146857 0.966657 5790043 3
0.037881 0.146857 0.966657 5526871 3
0.053753 0.146857 0.966657 6118497 3
0.067947 0.143318 0.943364 5724250 3
0.081955 0.140774 0.926618 5790043 3
0.097747 0.141612 0.932133 6184544 3
0.005884 0.155988 0.926618 6710888 3
0.021098 0.155988 0.926618 6119008 3
0.036528 0.156917 0.932133 6184544 3
0.050924 0.154164 0.915780 6249824 3
0.065197 0.152382 0.905193 6381923 3
0.080060 0.152382 0.905193 6842474 3
0.094922 0.152382 0.905193 6645095 3
0.005748 0.167244 0.905193 6447462 3
0.035472 0.167244 0.905193 8289920 3
0.050335 0.167244 0.905193 8618885 3
-0.011027 0.148389 1.095094 5723991 3
-0.064072 0.164075 1.079989 5920859 3
-0.045095 0.159670 1.050996 6249824 3
-0.027653 0.158606 1.043989 5460308 3
-0.010374 0.156519 1.030253 6381408 3
-0.079608 0.176926 1.050996 7171435 3
-0.062352 0.176926 1.050996 6578789 3
-0.044205 0.173434 1.030253 6973547 3
-0.096219 0.192888 1.043989 6710888 3
0.715009 0.107175 0.899991 3552824 3
0.744563 0.107175 0.899991 3355191 3
0.759340 0.107175 0.899991 2894640 3
0.774117 0.107175 0.899991 2960434 3
0.765644 0.100261 0.841927 3618615 3
0.708928 0.111682 0.824202 3947329 3
0.722460 0.111682 0.824202 3684156 3
0.743823 0.112871 0.832970 3815994 3
0.765644 0.114084 0.841927 3355441 3
0.747325 0.109380 0.807208 3948093 3
0.760579 0.109380 0.807208 3487542 3
0.773832 0.109380 0.807208 3092273 3
0.708928 0.125215 0.824202 4013375 3
0.722460 0.125215 0.824202 4144961 3
0.743823 0.126547 0.832970 3552822 3
0.765644 0.127908 0.841927 3355441 3
0.701543 0.137302 0.815617 3618874 3
0.714935 0.137302 0.815617 4606023 3
0.728326 0.137302 0.815617 4013886 3
0.741718 0.137302 0.815617 3882298 3
0.701543 0.150694 0.815617 4211781 3
0.714935 0.150694 0.815617 4606023 3
0.728326 0.150694 0.815617 4277058 3
0.741718 0.150694 0.815617 4539715 3
0.701543 0.164086 0.815617 5132883 3
0.730146 0.167577 0.832970 4868941 3
0.751821 0.169379 0.841927 4277058 3
0.730146 0.181253 0.832970 5001299 3
0.787086 0.175647 0.807208 4078653 3
0.685455 0.107175 0.899991 4210500 3
0.692275 0.105957 0.889764 3618363 3
0.670678 0.121952 0.899991 4407879 3
0.662606 0.117887 0.869991 4210500 3
0.655056 0.114084 0.841927 4276293 3
0.654798 0.111682 0.824202 4802891 3
0.661368 0.110519 0.815617 4802637 3
0.674760 0.110519 0.815617 4407879 3
0.695395 0.111682 0.824202 4078914 3
0.611570 0.136729 0.899991 5461080 3
0.626347 0.136729 0.899991 5131602 3
0.655901 0.136729 0.899991 5131856 3
0.648322 0.132171 0.869991 4276547 3
0.627732 0.125215 0.824202 4408133 3
0.634585 0.123911 0.815617 3684410 3
0.641297 0.122633 0.807208 4408392 3
0.661368 0.123911 0.815617 4211013 3
0.674760 0.123911 0.815617 3882048 3
0.695395 0.125215 0.824202 4211013 3
0.619753 0.146456 0.869991 5723480 3
0.634038 0.146456 0.869991 5921372 3
0.607802 0.137302 0.815617 5263442 3
0.688152 0.137302 0.815617 3882048 3
0.681057 0.149140 0.807208 3685184 3
0.681057 0.162394 0.807208 4869458 3
0.694311 0.175647 0.807208 5198678 3
0.556433 0.102464 0.860431 4342600 3
0.570561 0.102464 0.860431 4803665 3
0.516752 0.111098 0.819887 5329492 3
0.544467 0.114084 0.841927 5000529 3
0.564359 0.115324 0.851078 4145220 3
0.511397 0.123269 0.811391 6447973 3
0.541555 0.127224 0.837425 4737355 3
0.558290 0.127908 0.841927 6053215 3
0.506152 0.135190 0.803069 6053469 3
0.524719 0.136591 0.811391 5658711 3
0.543675 0.138021 0.819887 5921372 3
0.557137 0.138021 0.819887 5197395 3
0.582804 0.140973 0.837425 5394774 3
0.514061 0.190869 0.815617 7237230 3
0.291826 0.115114 0.966657 6579302 3
0.202470 0.124822 0.921167 6381923 3
0.284794 0.127829 0.943364 6710888 3
0.278093 0.139946 0.921167 6908267 3
0.293218 0.155071 0.921167 6513507 3
0.241278 0.141276 1.186352 5329235 3
0.260756 0.141276 1.186352 5789786 3
0.202320 0.160755 1.186352 6184542 3
0.221799 0.160755 1.186352 6250848 3
0.237677 0.158356 1.168645 5856090 3
-0.216376 0.135134 1.134771 3880509 3
-0.282508 0.159546 1.177432 3223093 3
-0.248243 0.150494 1.110627 4276036 3
-0.213285 0.151569 1.118560 4275781 3
-0.297368 0.176228 1.159988 4407367 3
-0.365330 0.142355 1.195408 3487031 3
-0.345703 0.142355 1.195408 3750203 3
-0.359837 0.159546 1.177432 3025967 3
-0.337963 0.158356 1.168645 3618104 3
-0.357151 0.177544 1.168645 4407620 3
-0.337963 0.177544 1.168645 4406850 3
-0.354506 0.195274 1.159988 5065809 3
-0.323479 0.188300 1.118560 5262929 3
0.640954 0.101755 0.991129 3553083 3
0.649013 0.100483 0.978740 3355704 3
0.665082 0.100483 0.978740 3421497 3
0.616873 0.116553 0.978740 5000529 3
0.656872 0.115114 0.966657 4868941 3
0.672743 0.115114 0.966657 4868941 3
0.680217 0.113710 0.954868 4473672 3
0.687511 0.112340 0.943364 4078914 3
0.686459 0.109697 0.921167 3618363 3
0.641043 0.127829 0.943364 4539976 3
0.656532 0.127829 0.943364 5066320 3
0.672022 0.127829 0.943364 4078914 3
0.687511 0.127829 0.943364 4342086 3
0.672022 0.143318 0.943364 4539719 3
0.507338 0.104398 1.016873 4671562 3
0.530930 0.105772 1.030253 4539465 3
0.533798 0.103059 1.003836 4802637 3
0.564761 0.105772 1.030253 4342087 3
0.507338 0.121094 1.016873 5131854 3
0.534446 0.123500 1.037076 5329494 3
0.507338 0.137790 1.016873 5723991 3
0.534446 0.140528 1.037076 5131602 3
0.504065 0.153489 1.010312 6710886 3
0.434906 0.103059 1.003836 4802891 3
0.451388 0.103059 1.003836 5394774 3
0.467870 0.103059 1.003836 6053218 3
0.487477 0.103724 1.010312 5329494 3
0.437712 0.120313 1.010312 5987165 3
0.451388 0.119541 1.003836 5986911 3
0.470888 0.120313 1.010312 5723739 3
0.490642 0.121094 1.016873 5066063 3
0.434906 0.136023 1.003836 6052958 3
0.451388 0.136023 1.003836 5658200 3
0.467870 0.136023 1.003836 6315617 3
0.487477 0.136901 1.010312 6052956 3
0.434906 0.152505 1.003836 7171437 3
0.415759 0.102403 0.997442 5394515 3
0.413127 0.118028 0.991129 5395028 3
0.410529 0.133457 0.984896 5855579 3
0.407963 0.148693 0.978740 6776681 3
0.448513 0.151534 0.997442 6118749 3
0.464890 0.151534 0.997442 6842472 3
0.481267 0.151534 0.997442 6645093 3
0.400455 0.161730 0.960726 6316387 3
0.429401 0.166848 0.991129 6579813 3
0.445674 0.166848 0.991129 6842983 3
0.461948 0.166848 0.991129 7237743 3
0.472243 0.164763 0.978740 7368814 3
0.494494 0.166848 0.991129 7039849 3
0.492081 0.160744 0.954868 7236719 3
0.416229 0.177504 0.960726 7303536 3
0.432003 0.177504 0.960726 7237743 3
0.439685 0.174297 0.943364 7106157 3
0.449755 0.172222 0.932133 6710884 3
0.476403 0.176422 0.954868 6579298 3
0.480365 0.172222 0.932133 7170926 3
0.454245 0.183165 0.910456 7566193 3
0.396854 0.101755 0.991129 5723480 3
0.329674 0.117286 0.984896 5987163 3
0.345845 0.117286 0.984896 5526099 3
0.359754 0.116553 0.978740 5394515 3
0.380581 0.118028 0.991129 5723480 3
0.396854 0.118028 0.991129 5789786 3
0.303945 0.129388 0.954868 5790297 3
0.323569 0.130986 0.966657 6316128 3
0.343684 0.132623 0.978740 6316128 3
0.355312 0.130986 0.966657 6579302 3
0.371184 0.130986 0.966657 6118751 3
0.387055 0.130986 0.966657 5789786 3
0.300283 0.143318 0.943364 6908265 3
0.315772 0.143318 0.943364 7237230 3
0.335301 0.145066 0.954868 7171437 3
0.350979 0.145066 0.954868 6776681 3
0.364435 0.144187 0.949081 7039853 3
0.380018 0.144187 0.949081 6447716 3
0.312013 0.156917 0.932133 6777192 3
0.331261 0.158807 0.943364 7435122 3
0.346750 0.158807 0.943364 7171696 3
0.360070 0.157857 0.937715 6908524 3
0.375467 0.157857 0.937715 6579561 3
0.342622 0.172222 0.932133 7500404 3
0.357927 0.172222 0.932133 7105646 3
0.373232 0.172222 0.932133 7303025 3
0.393218 0.174297 0.943364 7171439 3
0.342622 0.187526 0.932133 7763576 3
0.007591 0.122727 1.195408 4736844 3
0.007206 0.135134 1.134771 4737098 3
0.026026 0.136120 1.143054 4736844 3
0.062647 0.152659 1.126607 5198423 3
0.082935 0.156027 1.151459 5395285 3
-0.090547 0.122727 1.195408 4605771 3
-0.050903 0.121798 1.186352 3881789 3
-0.031664 0.122727 1.195408 4276545 3
-0.012037 0.122727 1.195408 4341825 3
-0.088519 0.139168 1.168645 5197906 3
-0.068818 0.138137 1.159988 5460821 3
-0.049406 0.137121 1.151459 5263442 3
-0.030500 0.137121 1.151459 5329235 3
-0.011510 0.136120 1.143054 4868682 3
-0.086581 0.154888 1.143054 5132367 3
-0.067322 0.153766 1.134771 4868684 3
-0.047994 0.151569 1.118560 5131856 3
-0.029629 0.151569 1.118560 5658200 3
-0.085335 0.171157 1.126607 5789784 3
-0.438022 0.132870 1.294202 2237221 3
-0.403436 0.128618 1.252787 2960176 3
-0.434432 0.152856 1.283594 3158066 3
-0.403436 0.149188 1.252787 3354932 3
-0.427425 0.171126 1.262890 2697515 3
-0.400234 0.168410 1.242845 2893613 3
-0.424005 0.190327 1.252787 3947328 3
0.311514 0.106347 1.233058 4671054 3
0.343882 0.103893 1.204603 4802378 3
0.387507 0.110706 1.283594 5526101 3
0.300740 0.130710 1.273158 5263701 3
0.311514 0.126593 1.233058 5329495 3
0.369342 0.125604 1.223425 5329235 3
0.303205 0.152856 1.283594 5132113 3
0.208643 0.105516 1.223425 4671562 3
0.236109 0.108920 1.262890 5131602 3
0.256844 0.108920 1.262890 5197138 3
0.279836 0.109806 1.273158 5066574 3
0.298315 0.108920 1.262890 3816002 3
0.218904 0.131781 1.283594 5461078 3
0.228730 0.125604 1.223425 5197138 3
0.248818 0.125604 1.223425 5065297 3
0.279836 0.130710 1.273158 5460819 3
0.208643 0.145691 1.223425 5197647 3
0.225211 0.143450 1.204603 5921372 3
0.113527 0.110706 1.283594 4408390 3
0.133508 0.109806 1.273158 4079168 3
0.148380 0.105516 1.223425 4013375 3
0.169794 0.106347 1.233058 4539206 3
0.188555 0.105516 1.223425 4605769 3
0.110803 0.128618 1.252787 4737609 3
0.127299 0.124630 1.213941 4671301 3
0.148380 0.125604 1.223425 5329235 3
0.171142 0.127597 1.242845 5526099 3
0.191548 0.127597 1.242845 5329233 3
0.146098 0.143450 1.204603 4934475 3
0.165876 0.143450 1.204603 5723732 3
0.185654 0.143450 1.204603 5592146 3
-0.091243 0.103893 1.204603 3487290 3
-0.074323 0.108049 1.252787 3487291 3
-0.053754 0.108049 1.252787 3749949 3
-0.033724 0.109806 1.273158 3289650 3
-0.012820 0.109806 1.273158 4868171 3
-0.071465 0.123671 1.204603 4671565 3
-0.146083 0.100792 1.168645 3683644 3
-0.164047 0.119091 1.159988 4079168 3
-0.146083 0.119980 1.168645 4012864 3
-0.129801 0.122727 1.195408 3421238 3
-0.197745 0.135134 1.134771 4341060 3
-0.179113 0.135134 1.134771 4209988 3
-0.161652 0.136120 1.143054 4079168 3
-0.142884 0.136120 1.143054 4276032 3
-0.127849 0.140214 1.177432 3881274 3
-0.108517 0.140214 1.177432 4802889 3
-0.196322 0.152659 1.126607 4736332 3
-0.179113 0.153766 1.134771 5262931 3
-0.160481 0.153766 1.134771 5658200 3
-0.142884 0.154888 1.143054 6380894 3
-0.125955 0.157183 1.159988 5394513 3
-0.108517 0.159546 1.177432 5395026 3
-0.194920 0.169935 1.118560 5657689 3
-0.179113 0.172397 1.134771 5723480 3
-0.161652 0.173656 1.143054 5591892 3
-0.143935 0.174933 1.151459 5591892 3
-0.125955 0.176228 1.159988 5789271 3
-0.106123 0.174933 1.151459 5723991 3
-0.192174 0.185648 1.102806 5789786 3
-0.176554 0.188300 1.118560 6973545 3
-0.161652 0.192424 1.143054 6908006 3
-0.143935 0.193839 1.151459 6447203 3
-0.125955 0.195274 1.159988 6579300 3
-0.101639 0.185648 1.102806 6710886 3
0.186614 0.100093 0.738672 6316128 3
0.172855 0.111172 0.731768 6250337 3
0.185738 0.111694 0.735204 6841959 3
0.167902 0.128595 0.763895 7303025 3
0.175313 0.124939 0.742173 6447203 3
0.189293 0.126134 0.749275 7301996 3
0.158451 0.143946 0.779097 7368816 3
0.168725 0.141830 0.767639 7105131 3
0.178701 0.139774 0.756514 7828856 3
0.191122 0.139774 0.756514 8026235 3
0.147866 0.159113 0.790901 7499889 3
0.157667 0.155962 0.775240 7697268 3
0.169556 0.155194 0.771421 8618370 3
0.179568 0.152934 0.760186 9210509 3
0.192986 0.153680 0.763895 8815751 3
0.104679 0.165416 0.760186 7500402 3
0.117161 0.165416 0.760186 7631988 3
0.132209 0.168691 0.775240 7960953 3
0.144224 0.167860 0.771421 7960440 3
0.156121 0.167037 0.767639 8026487 3
0.167087 0.165416 0.760186 8421245 3
0.176991 0.163041 0.749275 8092026 3
0.190203 0.163825 0.752877 7894647 3
0.110269 0.167433 0.715473 7829365 3
0.123894 0.170009 0.726480 7829365 3
0.136891 0.171348 0.732200 8223866 3
0.150229 0.172862 0.738672 8684417 3
0.162358 0.172862 0.738672 8487038 3
0.174538 0.172913 0.738891 8552577 3
0.189358 0.175404 0.749532 8355198 3
0.120539 0.177010 0.706806 8157819 3
0.133117 0.178314 0.712014 8421504 3
0.146902 0.180894 0.722313 8289659 3
0.160794 0.183208 0.731556 7960694 3
0.172051 0.182409 0.728365 7697522 3
0.186409 0.184787 0.737858 8026744 3
0.199684 0.185867 0.742173 7763574 3
0.008084 0.109806 1.273158 4670539 3
0.093216 0.111621 1.294202 4671564 3
0.029226 0.131781 1.283594 5196883 3
0.050301 0.131781 1.283594 4736845 3
0.070225 0.129655 1.262890 4277321 3
0.090961 0.129655 1.262890 5066322 3
0.047572 0.144562 1.213941 4605772 3
0.069111 0.148004 1.242845 4540495 3
0.090961 0.150391 1.262890 4409160 3
0.919726 0.060749 0.869991 3355702 3
0.905441 0.075034 0.869991 2039585 3
0.919726 0.075034 0.869991 2895151 3
0.905441 0.089318 0.869991 2828847 3
0.919726 0.089318 0.869991 2171428 3
0.763058 0.044019 0.824202 2301223 3
0.776591 0.044019 0.824202 2959155 3
0.737997 0.058790 0.841927 2894641 3
0.751821 0.058790 0.841927 3025714 3
0.765644 0.058790 0.841927 3354679 3
0.755110 0.056953 0.815617 3485497 3
0.768501 0.056953 0.815617 1577502 3
0.790123 0.057552 0.824202 2236202 3
0.737997 0.072613 0.841927 3223093 3
0.747800 0.072225 0.837425 2368039 3
0.761550 0.072225 0.837425 2762797 3
0.755110 0.070344 0.815617 3157300 3
0.768501 0.070344 0.815617 2894130 3
0.781893 0.070344 0.815617 2894643 3
0.724174 0.086437 0.841927 2499370 3
0.737997 0.086437 0.841927 2367784 3
0.751821 0.086437 0.841927 2236453 3
0.765644 0.086437 0.841927 3157553 3
0.767096 0.085065 0.828563 2499625 3
0.793292 0.086437 0.841927 2565163 3
0.798529 0.085517 0.832970 3420985 3
0.726283 0.098669 0.828563 2894383 3
0.743823 0.099194 0.832970 3487031 3
0.767096 0.098669 0.828563 4210752 3
0.768501 0.097127 0.815617 3026737 3
0.798529 0.099194 0.832970 2565675 3
0.809147 0.047521 0.889764 2236200 3
0.894265 0.058164 0.832970 2763565 3
0.803656 0.071085 0.824202 2697262 3
0.807908 0.085065 0.828563 2960433 3
0.817189 0.084617 0.824202 2762797 3
0.830721 0.084617 0.824202 2368039 3
0.853235 0.085517 0.832970 2368296 3
0.812206 0.099194 0.832970 2565676 3
0.830721 0.098150 0.824202 2433832 3
0.835459 0.097127 0.815617 2763054 3
0.366431 0.068555 1.283594 4077887 3
0.387507 0.068555 1.283594 3156785 3
0.324103 0.084115 1.204603 4210243 3
0.349255 0.085429 1.223425 4801610 3
0.387507 0.089630 1.283594 4605001 3
0.797510 0.037131 1.003836 2434089 3
0.781028 0.053613 1.003836 2960433 3
0.781028 0.070095 1.003836 3092019 3
0.797510 0.070095 1.003836 3026739 3
0.797510 0.086577 1.003836 3224118 3
0.787938 0.047480 1.283594 2829360 3
0.724712 0.068555 1.283594 3684156 3
0.745787 0.068555 1.283594 2828848 3
0.766863 0.068555 1.283594 2697521 3
0.751003 0.065341 1.223425 2237224 3
0.724712 0.089630 1.283594 3749949 3
0.745787 0.089630 1.283594 3947329 3
0.754494 0.088185 1.262890 3158326 3
0.751003 0.085429 1.223425 2697775 3
0.513904 0.056789 1.535279 3750203 3
0.539112 0.056789 1.535279 3487288 3
0.564319 0.056789 1.535279 2895151 3
0.513904 0.081997 1.535279 3618615 3
0.539112 0.081997 1.535279 3552822 3
0.678477 0.018729 0.910456 3289660 3
0.632943 0.036203 0.978740 2631469 3
0.618107 0.034479 0.932133 2631982 3
0.648579 0.033677 0.910456 3092019 3
0.671334 0.034074 0.921167 3157812 3
0.686459 0.034074 0.921167 2829361 3
0.649013 0.052273 0.978740 2566189 3
0.633412 0.049784 0.932133 2434603 3
0.648717 0.049784 0.932133 3224118 3
0.664021 0.049784 0.932133 2763565 3
0.679326 0.049784 0.932133 2763567 3
0.694631 0.049784 0.932133 2763567 3
0.657228 0.069208 0.991129 3092279 3
0.656872 0.067499 0.966657 3224119 3
0.656532 0.065873 0.943364 2566188 3
0.664021 0.065089 0.932133 3289909 3
0.679326 0.065089 0.932133 3618876 3
0.694631 0.065089 0.932133 3618876 3
0.657228 0.085482 0.991129 3684670 3
0.665082 0.084413 0.978740 3816256 3
0.664539 0.082354 0.954868 4013634 3
0.672022 0.081362 0.943364 3684669 3
0.679326 0.080393 0.932133 3158325 3
0.694631 0.080393 0.932133 3224118 3
0.672743 0.099242 0.966657 3553083 3
0.680217 0.098032 0.954868 3947841 3
0.687511 0.096851 0.943364 3158326 3
0.686459 0.094572 0.921167 3421498 3
0.649516 0.021766 1.058097 2500395 3
0.666889 0.039139 1.058097 2895154 3
0.666255 0.055024 1.030253 2763567 3
0.666255 0.071940 1.030253 3224118 3
0.657603 0.087702 1.016873 4013634 3
0.510265 0.023343 1.134771 2960436 3
0.528896 0.023343 1.134771 2828847 3
0.510265 0.041975 1.134771 2499631 3
0.510265 0.060607 1.134771 3420987 3
0.536674 0.061498 1.151459 3420987 3
0.502975 0.078106 1.118560 3815743 3
0.528896 0.079238 1.134771 3355451 3
0.563872 0.081604 1.168645 4210501 3
0.479957 0.023686 1.151459 3223606 3
0.491633 0.023343 1.134771 3289658 3
0.494501 0.043883 1.186352 3486778 3
0.491633 0.041975 1.134771 2500144 3
0.475022 0.063361 1.186352 3486520 3
0.473001 0.060607 1.134771 3815485 3
0.491633 0.060607 1.134771 3947329 3
0.454369 0.079238 1.134771 4276036 3
0.466244 0.078106 1.118560 4473415 3
0.484610 0.078106 1.118560 4276293 3
0.435737 0.097870 1.134771 4933964 3
0.441570 0.095113 1.102806 5526101 3
0.497642 0.025566 1.242845 2565418 3
0.489867 0.045254 1.223425 3157555 3
0.469779 0.065341 1.223425 2960176 3
0.464198 0.088185 1.262890 4999757 3
0.462552 0.084115 1.204603 4276036 3
0.917602 0.004115 0.991129 1248024 3
0.922202 0.004063 0.978740 2498091 3
0.938272 0.004063 0.978740 2432809 3
0.954341 0.004063 0.978740 1907235 3
0.910816 0.019885 0.966657 2103331 3
0.926688 0.019885 0.966657 2761776 3
0.966422 0.020388 0.991129 2367788 3
0.915387 0.035320 0.954868 1972260 3
0.966422 0.052935 0.991129 2038823 3
0.966422 0.069208 0.991129 2499372 3
0.981804 0.065873 0.943364 2105635 3
0.982695 0.085482 0.991129 2565418 3
0.998968 0.085482 0.991129 2433832 3
0.943578 0.079448 0.921167 2302503 3
0.813992 0.020649 1.003836 2435117 3
0.863693 0.021475 1.043989 2237740 3
0.880834 0.021475 1.043989 2631471 3
0.897975 0.021475 1.043989 1973541 3
0.896402 0.020649 1.003836 2169891 3
0.846551 0.038617 1.043989 2435117 3
0.863693 0.038617 1.043989 2698289 3
0.880834 0.038617 1.043989 2302763 3
0.863438 0.037131 1.003836 2170920 3
0.807867 0.054310 1.016873 2500395 3
0.824563 0.054310 1.016873 2631728 3
0.841259 0.054310 1.016873 2171177 3
0.846956 0.053613 1.003836 2039332 3
0.824563 0.071006 1.016873 2303017 3
0.830474 0.070095 1.003836 2894900 3
0.846956 0.070095 1.003836 2763055 3
0.890062 0.020133 0.978740 2629675 3
0.894945 0.019885 0.966657 2432298 3
0.857922 0.036203 0.978740 1973539 3
0.852675 0.035320 0.954868 2697004 3
0.847678 0.034479 0.932133 2235684 3
0.862983 0.034479 0.932133 2432296 3
0.878287 0.034479 0.932133 3090226 3
0.831459 0.051628 0.966657 1513501 3
0.826913 0.050384 0.943364 2500396 3
0.822581 0.049198 0.921167 2236711 3
0.893592 0.049784 0.932133 1972776 3
0.801764 0.065089 0.932133 2368810 3
0.803688 0.085482 0.991129 2960947 3
0.805641 0.082354 0.954868 2434089 3
0.801764 0.080393 0.932133 2236711 3
0.701583 0.018949 0.921167 2566707 3
0.718489 0.034895 0.943364 3158072 3
0.771141 0.036661 0.991129 2763055 3
0.727251 0.050998 0.954868 2697261 3
0.727251 0.066676 0.954868 3092019 3
0.718489 0.081362 0.943364 2763054 3
0.761502 0.084413 0.978740 3092019 3
0.799716 0.083371 0.966657 2631469 3
0.701583 0.094572 0.921167 3289399 3
0.733978 0.096851 0.943364 3947329 3
0.767972 0.099242 0.966657 3881535 3
0.783844 0.099242 0.966657 3289398 3
0.789963 0.098032 0.954868 3223606 3
0.786459 0.095698 0.932133 3420727 3
0.611570 0.033290 0.899991 2303017 3
0.626347 0.033290 0.899991 2960946 3
0.542306 0.017700 0.860431 2368297 3
0.556433 0.017700 0.860431 2434090 3
0.576900 0.017896 0.869991 2171431 3
0.054307 0.051261 1.385827 4012862 3
0.008427 0.070879 1.327105 3354165 3
0.031005 0.072728 1.361725 4012095 3
0.053363 0.072728 1.361725 4670025 3
0.030475 0.093461 1.338448 3551544 3
0.052006 0.092669 1.327105 4078402 3
0.073176 0.091890 1.315953 3684670 3
0.097234 0.094266 1.349986 3486777 3
-0.199383 0.207551 0.777763 6250335 3
-0.164113 0.211469 0.792446 8749705 3
-0.107697 0.203220 0.761535 7105905 3
-0.188109 0.207863 0.733784 5592405 3
-0.177621 0.209705 0.740287 6513255 3
-0.165064 0.209194 0.738486 6446950 3
-0.150593 0.205986 0.727159 6776170 3
-0.198969 0.218605 0.729428 5987676 3
-0.183750 0.214815 0.716783 7303025 3
-0.170064 0.212420 0.708791 7105392 3
-0.159101 0.213325 0.711811 6907756 3
-0.147209 0.213029 0.710822 6776168 3
-0.293652 0.211057 0.790901 5197647 3
-0.281735 0.211861 0.793915 5000268 3
-0.270326 0.213142 0.798718 5132367 3
-0.256069 0.212196 0.795169 5198674 3
-0.244021 0.213076 0.798467 4935504 3
-0.227932 0.210327 0.788169 5461080 3
-0.213119 0.208495 0.781302 5197906 3
-0.289269 0.220698 0.779097 7105131 3
-0.277427 0.221457 0.781775 5263440 3
-0.265919 0.222568 0.785697 5460819 3
-0.253575 0.223058 0.787426 5592916 3
-0.242560 0.224831 0.793686 5197906 3
-0.224193 0.219606 0.775240 4868943 3
-0.209027 0.217074 0.766303 5592664 3
-0.297115 0.220336 0.735204 5328722 3
-0.285212 0.220467 0.735639 5788757 3
-0.278461 0.224767 0.749989 5131341 3
-0.270671 0.228587 0.762736 5920857 3
-0.259411 0.229706 0.766469 5921370 3
-0.246374 0.229285 0.765065 5921368 3
-0.237174 0.232582 0.776065 6316128 3
-0.220670 0.228683 0.763057 6447973 3
-0.290300 0.227077 0.718341 7763061 3
-0.278506 0.227077 0.718341 8158073 3
-0.267712 0.227929 0.721037 6512994 3
-0.258474 0.230245 0.728365 6513509 3
-0.246515 0.230245 0.728365 6908267 3
-0.231610 0.227354 0.719219 6249824 3
-0.234465 0.242522 0.767201 5921372 3
-0.226952 0.248078 0.784777 6513509 3
-0.284594 0.234176 0.704221 6841959 3
-0.272493 0.233714 0.702834 6118490 3
-0.264362 0.236767 0.712014 6644580 3
-0.253753 0.237781 0.715061 5328722 3
-0.241808 0.237580 0.714457 7105646 3
-0.225765 0.233127 0.701068 6578789 3
-0.595238 0.208036 1.535279 3354930 3
-0.570030 0.208036 1.535279 2434341 3
-0.534345 0.204035 1.505754 2171682 3
-0.595238 0.233244 1.535279 2762795 3
-0.559068 0.228758 1.505754 2960685 3
-0.559068 0.253481 1.505754 4144961 3
-0.559068 0.278204 1.505754 4276293 3
0.158272 0.069697 1.304987 4012609 3
0.179699 0.069697 1.304987 3749949 3
0.115419 0.091124 1.304987 3092020 3
0.136846 0.091124 1.304987 3749437 3
0.179699 0.091124 1.304987 3552824 3
0.396532 0.165973 0.499120 7171950 3
0.380758 0.174451 0.499929 6514020 3
0.383523 0.172009 0.492933 6711399 3
0.391155 0.171806 0.492351 6645606 3
0.395363 0.170139 0.487572 7632501 3
0.399935 0.168690 0.483422 6250848 3
0.377835 0.181257 0.496091 6908778 3
0.379565 0.178244 0.487846 6448227 3
0.386747 0.177863 0.486804 6119262 3
0.392607 0.176902 0.484174 7040364 3
0.398627 0.176050 0.481841 8092798 3
-0.672006 0.216527 1.597943 3750462 3
-0.632854 0.212197 1.565984 4143678 3
-0.672006 0.242764 1.597943 3487290 3
-0.632854 0.237908 1.565984 3354162 3
-0.698243 0.269000 1.597943 3618874 3
-0.658566 0.263620 1.565984 3618876 3
-0.632854 0.263620 1.565984 2959404 3
-0.607142 0.263620 1.565984 3354932 3
-0.684278 0.289332 1.565984 4144959 3
-0.658566 0.289332 1.565984 3947328 3
-0.632854 0.289332 1.565984 4802637 3
-0.607142 0.289332 1.565984 4210500 3
-0.294520 0.207848 0.829940 5131854 3
-0.280335 0.207434 0.828291 4803402 3
-0.265506 0.206479 0.824475 4474951 3
-0.253135 0.207434 0.828291 5593434 3
-0.238353 0.206410 0.824202 5198678 3
-0.224820 0.206410 0.824202 6579561 3
-0.214412 0.209462 0.836388 5987163 3
-0.202008 0.210849 0.841927 5723739 3