# .PCD v0.7 - Point Cloud Data file format
VERSION 0.7
FIELDS x y z rgb label
SIZE 4 4 4 4 4
TYPE F F F U U
COUNT 1 1 1 1 1
WIDTH 958
HEIGHT 1
VIEWPOINT 0 0 0 1 0 0 0
POINTS 958
DATA ascii
-0.094077 0.256915 0.596028 8158330 3
-0.083989 0.255994 0.593892 7829367 3
-0.054878 0.256658 0.595431 7566195 3
-0.044984 0.255990 0.593881 8355711 3
-0.035199 0.255747 0.593317 8617854 3
-0.025548 0.256658 0.595431 9013382 3
-0.015690 0.255326 0.592342 8487297 3
-0.051975 0.252343 0.563939 8224125 3
-0.042562 0.251437 0.561916 8026746 3
-0.033368 0.251678 0.562454 8289918 3
-0.024886 0.259527 0.579994 8618370 3
-0.015285 0.258215 0.577062 8684417 3
0.042744 0.246064 0.593459 8487295 3
0.012599 0.238520 0.553351 8290431 3
0.021680 0.238467 0.553230 7961464 3
0.030662 0.237680 0.551403 8224636 3
0.039619 0.237107 0.550073 7829365 3
0.048839 0.238023 0.552200 8158330 3
0.062203 0.255686 0.593176 8290429 3
0.092340 0.258257 0.599141 8684417 3
0.012555 0.246733 0.551403 8224125 3
0.021604 0.246679 0.551282 8224123 3
0.400144 0.234487 0.588855 6776681 3
0.400144 0.244155 0.588855 6842474 3
0.410199 0.244385 0.589410 6513509 3
0.418302 0.243469 0.587200 5592153 3
0.407345 0.246480 0.571818 6052447 3
0.412010 0.243686 0.565337 5262676 3
0.405749 0.254866 0.569579 7039342 3
0.298206 0.238010 0.597704 6513509 3
0.269411 0.248420 0.599141 7237489 3
0.277851 0.247176 0.596141 8224384 3
0.287228 0.246823 0.595290 7434611 3
0.296018 0.246005 0.593317 7039853 3
0.268063 0.256964 0.596141 7105903 3
0.276797 0.255990 0.593881 7763576 3
0.285465 0.255023 0.591637 9211022 3
0.294900 0.254781 0.591077 7894647 3
0.229677 0.267645 0.598137 7434609 3
0.258225 0.266701 0.596028 7763833 3
0.264669 0.263375 0.588594 7500661 3
0.273426 0.262505 0.586649 7105903 3
0.283924 0.263307 0.588441 7303282 3
0.291736 0.261649 0.584736 6710886 3
0.282926 0.272010 0.586374 7763833 3
0.291667 0.271185 0.584597 7237230 3
-0.105770 0.241700 0.606971 7763572 3
-0.192456 0.275932 0.665494 6974058 3
-0.181770 0.276297 0.666376 7105644 3
-0.106156 0.252584 0.609185 6842213 3
-0.194645 0.274535 0.636905 6776931 3
-0.185699 0.276787 0.642128 7105642 3
-0.177523 0.280528 0.650808 7303023 3
-0.117403 0.265400 0.615712 7368303 3
-0.107682 0.266362 0.617943 8947589 3
-0.194645 0.284993 0.636905 6842210 3
-0.185699 0.287330 0.642128 6579041 3
-0.177523 0.291214 0.650808 6908267 3
-0.164923 0.287871 0.643339 6579300 3
-0.196091 0.282468 0.608920 6973282 3
-0.027439 0.244156 0.639506 7632247 3
-0.017685 0.254897 0.667638 7501431 3
-0.006856 0.259946 0.680863 7500663 3
-0.095298 0.240422 0.603761 7303534 3
-0.086201 0.242721 0.609533 7500661 3
-0.078419 0.249813 0.627343 8092541 3
-0.068289 0.250437 0.628909 7631990 3
-0.057978 0.250500 0.629068 7039851 3
-0.047841 0.251510 0.631605 7434609 3
-0.037718 0.253170 0.635773 7499889 3
-0.027321 0.253555 0.636741 7829367 3
-0.017530 0.263538 0.661809 8290177 3
-0.006769 0.267706 0.672277 7632247 3
-0.095298 0.250335 0.603761 7039849 3
-0.085760 0.251436 0.606415 7697781 3
-0.077679 0.257658 0.621422 8026748 3
-0.067078 0.256139 0.617757 8289920 3
-0.056351 0.253510 0.611416 8355711 3
-0.046032 0.251977 0.607720 7763574 3
-0.036922 0.258046 0.622357 8618370 3
-0.026624 0.257279 0.620507 8421504 3
-0.076189 0.262722 0.609498 7895162 3
-0.065673 0.260702 0.604813 7960955 3
0.754007 0.326520 0.893671 4801610 3
0.774117 0.328829 0.899991 4998987 3
0.788894 0.328829 0.899991 4604229 3
0.791254 0.323749 0.886087 3880506 3
0.787967 0.316583 0.866473 4341059 3
0.344520 0.216650 0.592961 6776679 3
0.358254 0.219096 0.599655 6710884 3
0.344101 0.226111 0.592240 6841961 3
0.353551 0.225936 0.591782 6184544 3
0.362241 0.225297 0.590110 6579300 3
0.308020 0.238010 0.597704 7171185 3
0.316854 0.237276 0.595861 6776168 3
0.324015 0.235372 0.591077 7236717 3
0.334905 0.236207 0.593176 6184029 3
0.342863 0.234986 0.590110 6315617 3
0.352631 0.235039 0.590243 6644582 3
0.360881 0.234104 0.587894 6645093 3
0.370617 0.234157 0.588027 6842472 3
0.380717 0.234431 0.588716 6053215 3
0.390383 0.234431 0.588716 6908265 3
0.306776 0.246823 0.595290 7302510 3
0.315352 0.245889 0.593036 8092026 3
0.324015 0.245077 0.591077 7631475 3
0.334905 0.245947 0.593176 7499889 3
0.343750 0.245309 0.591637 6447203 3
0.353046 0.245019 0.590937 6578791 3
0.360881 0.243757 0.587894 6315617 3
0.370617 0.243812 0.588027 6842470 3
0.380717 0.244097 0.588716 6710886 3
0.390383 0.244097 0.588716 5987163 3
0.305687 0.255686 0.593176 7697522 3
0.315352 0.255626 0.593036 7894647 3
0.324015 0.254781 0.591077 7565682 3
0.334826 0.255626 0.593036 7565682 3
0.341575 0.253409 0.587894 7236719 3
0.351307 0.253467 0.588027 7038573 3
0.360371 0.253051 0.587063 5526101 3
0.368282 0.251870 0.584322 5592146 3
0.377788 0.251811 0.584187 6184540 3
0.386865 0.251476 0.583410 5526612 3
0.305326 0.265112 0.592476 7170924 3
0.314461 0.264613 0.591360 8092537 3
0.321664 0.262567 0.586788 7566193 3
0.333485 0.264300 0.590661 7302510 3
0.333956 0.257194 0.574781 6249822 3
0.348122 0.260735 0.582695 5328722 3
0.358449 0.261290 0.583933 6315615 3
0.304175 0.273804 0.590243 7434096 3
0.314089 0.273998 0.590661 7566193 3
0.321664 0.272201 0.586788 7829367 3
0.204450 0.234676 0.642296 7368818 3
0.217503 0.237412 0.649786 6908267 3
0.244722 0.254633 0.696918 6514020 3
0.251560 0.239364 0.655127 7041132 3
0.266624 0.243294 0.665885 7171950 3
0.289414 0.253687 0.694330 6842985 3
0.294965 0.239672 0.655970 6776938 3
0.297909 0.233536 0.639177 6711399 3
0.201913 0.242178 0.634325 6908778 3
0.213952 0.244031 0.639177 6184801 3
0.221197 0.240498 0.629924 6711913 3
0.227512 0.236314 0.618966 6382434 3
0.237675 0.236314 0.618966 5724502 3
0.248576 0.237018 0.620809 6908778 3
0.259928 0.238080 0.623590 6777192 3
0.268097 0.236256 0.618814 7171696 3
0.275741 0.234120 0.613218 6974317 3
0.285877 0.234175 0.613362 6842985 3
0.294582 0.233094 0.610532 6908524 3
0.210462 0.250374 0.628752 6975087 3
0.219140 0.248508 0.624066 6843499 3
0.225728 0.244544 0.614111 6053469 3
0.235811 0.244544 0.614111 6777190 3
0.247292 0.245934 0.617603 7369329 3
0.258897 0.247333 0.621116 7303536 3
0.266258 0.244726 0.614568 7500661 3
0.272474 0.241295 0.605952 8027005 3
0.280722 0.239841 0.602302 7632247 3
0.289777 0.239152 0.600572 6776938 3
0.210462 0.260697 0.628752 6777708 3
0.218597 0.258113 0.622519 7238257 3
0.225728 0.254627 0.614111 7040364 3
0.235811 0.254627 0.614111 7435120 3
0.247292 0.256075 0.617603 7435122 3
0.258897 0.257532 0.621116 7369329 3
0.264774 0.253396 0.611142 7040110 3
0.220927 0.284497 0.660016 7698810 3
0.212010 0.260249 0.603761 7369843 3
0.221440 0.259682 0.602447 7303536 3
0.232901 0.261444 0.606535 7566706 3
0.245594 0.264387 0.613362 7435122 3
0.255853 0.264581 0.613813 7566708 3
0.261771 0.260443 0.604211 7961212 3
0.242096 0.270549 0.604627 7237741 3
0.251357 0.269834 0.603028 7698294 3
0.076583 0.230711 0.631445 7894901 3
0.087132 0.231192 0.632761 7434096 3
0.004324 0.260017 0.681049 7698294 3
0.015570 0.261081 0.683836 8027259 3
0.026718 0.260300 0.681792 8290429 3
0.036939 0.253616 0.664282 7829878 3
0.046358 0.245729 0.643626 7632499 3
0.055848 0.241079 0.631445 7961464 3
0.066033 0.240413 0.629702 8224123 3
0.076487 0.240776 0.630653 7697781 3
0.086711 0.240413 0.629702 8553090 3
0.097492 0.241509 0.632571 7697781 3
0.004300 0.269661 0.677186 7500915 3
0.015549 0.271939 0.682907 7369329 3
0.026631 0.270615 0.679583 8290429 3
0.036330 0.260163 0.653334 8027257 3
0.045630 0.252275 0.633526 8224636 3
0.055401 0.249435 0.626394 8422015 3
0.065328 0.248074 0.622976 8487295 3
0.075368 0.247455 0.621422 8816262 3
0.085550 0.247394 0.621269 8553090 3
0.095396 0.246477 0.618966 8092539 3
0.004136 0.270042 0.651290 7566708 3
0.015386 0.280186 0.675755 7895673 3
0.053298 0.249858 0.602610 8158330 3
0.063634 0.251606 0.606824 7960951 3
0.073331 0.250695 0.604627 8356224 3
0.083258 0.250695 0.604627 8684674 3
0.093163 0.250634 0.604482 8487295 3
0.414545 0.242128 0.693876 6250335 3
0.426647 0.242531 0.695031 6250335 3
0.437331 0.242128 0.693876 6118749 3
0.448606 0.242065 0.693694 5986652 3
0.485733 0.243548 0.697944 4341829 3
0.497324 0.243613 0.698129 5065552 3
0.420676 0.243867 0.667452 6447714 3
0.443314 0.250465 0.685510 6447714 3
0.459478 0.253170 0.692913 6381923 3
0.469429 0.252403 0.690815 5658200 3
0.481568 0.252821 0.691959 6052958 3
0.493609 0.253170 0.692913 5065809 3
0.499903 0.250621 0.685939 4539979 3
0.407067 0.234370 0.613875 6447714 3
0.445889 0.250519 0.656173 6118751 3
0.478002 0.262226 0.686835 5197906 3
0.489279 0.262226 0.686835 5724252 3
0.499885 0.261874 0.685914 5066323 3
0.497788 0.255030 0.667987 4342599 3
0.418078 0.239216 0.600732 5921629 3
0.453467 0.253485 0.636564 5132115 3
0.491794 0.268715 0.674812 5000530 3
0.497788 0.265998 0.667987 5329495 3
0.499587 0.261204 0.655949 6053217 3
0.471774 0.268406 0.647343 6710635 3
0.388666 0.240216 0.688396 6974056 3
0.301038 0.253876 0.694847 6776938 3
0.318371 0.241084 0.659834 6579813 3
0.333889 0.244514 0.669224 6710888 3
0.340860 0.227189 0.621806 6316126 3
0.347629 0.224963 0.615712 6842470 3
0.396020 0.235714 0.645138 6710884 3
0.301661 0.230840 0.604627 6382180 3
0.310764 0.230229 0.603028 6842220 3
0.319435 0.229346 0.600715 6776166 3
0.330649 0.230287 0.603179 6841959 3
0.339572 0.229624 0.601442 6578787 3
0.107746 0.243952 0.699100 6645093 3
0.100563 0.238401 0.652493 7631988 3
0.116015 0.248555 0.680282 7171950 3
0.193632 0.247825 0.678285 7566195 3
0.197298 0.238783 0.653538 6974060 3
0.109796 0.245801 0.643813 7106157 3
0.148852 0.258557 0.677226 7566706 3
0.161801 0.261513 0.684969 7171435 3
0.173519 0.262226 0.686835 6447455 3
0.184128 0.261278 0.684352 7499889 3
0.184635 0.246929 0.646769 7631988 3
0.193112 0.244220 0.639672 7434609 3
0.105558 0.246477 0.618966 7764087 3
0.116676 0.248511 0.624073 7829880 3
0.178210 0.263756 0.662358 7895160 3
0.183876 0.256489 0.644109 6710886 3
0.190784 0.251652 0.631961 6974058 3
0.199438 0.249497 0.626551 7303536 3
0.102716 0.249730 0.602302 8289916 3
0.112309 0.249073 0.600715 7961464 3
0.189426 0.275127 0.663553 7039851 3
0.192515 0.264406 0.637695 7632501 3
0.197954 0.257852 0.621890 6645606 3
0.195036 0.264111 0.612721 7040878 3
0.524432 0.228972 0.688571 4737096 3
0.515752 0.220430 0.662884 4802891 3
0.518381 0.216975 0.652493 4802638 3
0.506395 0.242467 0.694847 5131603 3
0.510189 0.238902 0.684628 5263442 3
0.514944 0.235930 0.676112 4671303 3
0.510095 0.228776 0.655612 4605512 3
0.514097 0.225806 0.647101 3486777 3
0.528333 0.227360 0.651553 3815742 3
0.500583 0.245433 0.671739 4737357 3
0.505653 0.242574 0.663914 5460819 3
0.505189 0.237237 0.649308 5329233 3
0.508453 0.233835 0.639996 4473411 3
0.524644 0.236396 0.647005 5065550 3
0.502327 0.251808 0.659547 4539976 3
0.505189 0.247898 0.649308 5592918 3
0.509883 0.245031 0.641797 5329235 3
0.555878 0.261725 0.685523 5657687 3
0.505960 0.258954 0.650298 5197906 3
0.511851 0.256555 0.644273 5789786 3
0.520421 0.255569 0.641797 4737098 3
0.509883 0.266106 0.641797 5329235 3
0.545529 0.278945 0.672761 4605512 3
0.004952 0.259320 0.779834 6908265 3
0.004874 0.267868 0.767639 7697781 3
0.004518 0.259968 0.711522 8158845 3
0.016144 0.259062 0.709041 7895673 3
0.030269 0.282220 0.772422 7500913 3
0.043979 0.288971 0.790901 7829878 3
-0.098505 0.301668 0.907186 7105644 3
-0.083248 0.300363 0.903261 7236971 3
-0.086564 0.327748 0.939238 6381408 3
-0.071789 0.330723 0.947764 7434609 3
-0.054411 0.320037 0.917140 6579041 3
0.303696 0.237028 0.790901 6381923 3
0.316884 0.237179 0.791405 6381410 3
0.303696 0.250014 0.790901 7303025 3
0.315588 0.249150 0.788169 7237232 3
0.330300 0.250494 0.792419 7368818 3
0.340841 0.248692 0.786718 6052704 3
0.352083 0.247514 0.782992 6710634 3
0.372698 0.252777 0.799641 7237492 3
0.300659 0.260370 0.782992 7566708 3
0.312442 0.259479 0.780314 7434611 3
0.326991 0.260864 0.784480 7039853 3
0.335186 0.257269 0.773667 6381669 3
0.344866 0.255033 0.766944 6776427 3
0.352598 0.251565 0.756514 5592667 3
0.369964 0.254973 0.766762 6579561 3
0.384759 0.256443 0.771184 6250337 3
0.395003 0.254883 0.766492 6710886 3
0.393289 0.245941 0.739601 5855575 3
0.312316 0.261460 0.749275 7237232 3
0.318864 0.256825 0.735992 7039853 3
0.318093 0.246849 0.707402 7105392 3
0.329055 0.246360 0.706002 6250596 3
0.349637 0.252862 0.724635 6513766 3
0.366808 0.256550 0.735204 6184544 3
0.382487 0.258993 0.742204 6513509 3
0.384745 0.252478 0.723534 6908263 3
0.391013 0.248906 0.713297 6974056 3
-0.145929 0.250971 0.837425 7105644 3
-0.132179 0.250971 0.837425 6513507 3
-0.119392 0.253010 0.844227 6776679 3
-0.107781 0.258405 0.862230 6579300 3
-0.177290 0.270615 0.856071 6579813 3
-0.160944 0.266818 0.844060 6118747 3
-0.144385 0.261919 0.828563 6776679 3
-0.130824 0.262006 0.828839 6908778 3
-0.118711 0.265349 0.839412 6711145 3
-0.107011 0.270615 0.856071 6514020 3
-0.149938 0.286121 0.860431 7105644 3
-0.135905 0.286319 0.861028 6842985 3
-0.125952 0.296158 0.890616 6908524 3
-0.112501 0.299276 0.899991 7040878 3
0.293770 0.226401 0.799228 5789782 3
0.280558 0.239447 0.798972 6381919 3
0.292559 0.238536 0.795932 5855575 3
0.210667 0.247514 0.782992 6579048 3
0.227463 0.251877 0.796795 6184544 3
0.253193 0.251444 0.795425 6579300 3
0.280558 0.252565 0.798972 7368557 3
0.292559 0.251604 0.795932 7237230 3
0.209207 0.243693 0.732842 7303025 3
0.225296 0.248162 0.746281 7368818 3
0.240094 0.250820 0.754275 7631988 3
0.260384 0.258674 0.777891 7302764 3
0.273751 0.259237 0.779586 7039851 3
0.289159 0.261596 0.786681 7303023 3
0.206310 0.252185 0.722696 7039853 3
0.219961 0.254248 0.728607 7368818 3
0.233751 0.256251 0.734347 7895162 3
0.256558 0.267458 0.766464 7566195 3
0.273664 0.271951 0.779340 7566195 3
0.287537 0.272973 0.782269 7106157 3
0.283959 0.258050 0.739501 7566708 3
0.296976 0.258812 0.741687 7566195 3
0.264039 0.262460 0.718341 7171950 3
0.619194 0.203773 0.763606 2434603 3
0.608486 0.212569 0.750400 3487291 3
0.624666 0.213891 0.755066 3223605 3
0.614109 0.226968 0.757335 2763568 3
0.621934 0.242454 0.766985 4144708 3
0.542531 0.203234 0.761588 4079168 3
0.554858 0.203169 0.761345 3289652 3
0.569103 0.203794 0.763686 2960434 3
0.593013 0.207778 0.778617 3289401 3
0.588353 0.201795 0.756195 3157815 3
0.595630 0.200069 0.749727 3355705 3
0.508129 0.206826 0.730124 4276034 3
0.542531 0.215739 0.761588 4210241 3
0.551196 0.214246 0.756320 4933964 3
0.563783 0.214311 0.756548 4210500 3
0.590260 0.219538 0.775001 3552571 3
0.588353 0.214211 0.756195 3552830 3
0.597238 0.212952 0.751751 2829361 3
0.500699 0.238082 0.794417 3880506 3
0.500073 0.220548 0.735911 3815485 3
0.507352 0.218479 0.729009 3748922 3
0.531398 0.223560 0.745961 4538438 3
0.542343 0.223024 0.744173 3814715 3
0.550956 0.221574 0.739334 4276034 3
0.570161 0.224354 0.748612 3815996 3
0.572864 0.220661 0.736288 3421244 3
0.586691 0.221317 0.738476 2500142 3
0.502232 0.228123 0.721652 5262676 3
0.517369 0.229582 0.726267 4933711 3
0.530516 0.230113 0.727945 4670024 3
0.537934 0.228189 0.721861 5065550 3
0.552172 0.229179 0.724993 4276545 3
0.557025 0.226315 0.715930 4868430 3
0.566498 0.225407 0.713058 4737104 3
0.507946 0.237108 0.713039 4867918 3
0.520979 0.237713 0.714858 5131345 3
0.522056 0.232956 0.700553 4736585 3
0.577138 0.236677 0.711741 4407880 3
0.499558 0.206142 0.772483 4539206 3
0.487444 0.213519 0.753751 4472645 3
0.493028 0.210617 0.743508 3947071 3
0.498628 0.207863 0.733784 4407622 3
0.457216 0.235837 0.786927 5197906 3
0.468521 0.235026 0.784222 5395539 3
0.481100 0.234881 0.783737 4933962 3
0.487444 0.225895 0.753751 4933196 3
0.493028 0.222825 0.743508 4078402 3
0.407458 0.242220 0.766247 5987161 3
0.414597 0.239082 0.756320 5592403 3
0.433752 0.242854 0.768251 5987161 3
0.450426 0.245063 0.775240 5526612 3
0.454668 0.240573 0.761034 5790297 3
0.451307 0.232407 0.735204 5658200 3
0.466398 0.233922 0.739995 4933964 3
0.479956 0.234610 0.742173 4341059 3
0.491711 0.234405 0.741522 4868173 3
0.492532 0.229123 0.724813 5197138 3
0.401155 0.243346 0.731798 5460817 3
0.403953 0.237918 0.715473 6381919 3
0.419291 0.239972 0.721652 6776679 3
0.429536 0.239080 0.718968 6052956 3
0.436947 0.236700 0.711811 5789784 3
0.448635 0.236700 0.711811 6512996 3
0.460586 0.236835 0.712219 5722710 3
0.476339 0.238871 0.718341 4802380 3
0.484946 0.237311 0.713650 4736587 3
0.493142 0.235629 0.708590 4341829 3
0.412999 0.248042 0.710822 7500402 3
0.473657 0.249254 0.714297 5723480 3
0.483308 0.248188 0.711240 4604999 3
0.020406 0.239164 0.896230 6118747 3
0.034919 0.237784 0.891057 6250333 3
0.064477 0.238886 0.895189 5723993 3
0.074841 0.225812 0.846193 5987165 3
0.087963 0.223847 0.838832 5987424 3
0.005608 0.250164 0.883115 6842985 3
0.019504 0.242659 0.856620 7171435 3
0.034286 0.247838 0.874904 6974056 3
0.050046 0.254945 0.899991 6381410 3
0.063916 0.251378 0.887400 6052958 3
0.075248 0.241008 0.850791 6842474 3
0.088407 0.238820 0.843068 6974317 3
0.005521 0.260602 0.869561 6842985 3
0.019491 0.256545 0.856023 7237228 3
0.033778 0.258321 0.861950 6908263 3
0.049781 0.268293 0.895224 7960442 3
0.019741 0.274076 0.867021 7302510 3
0.033022 0.266375 0.842659 7105131 3
0.091524 0.275901 0.872793 7039849 3
0.018335 0.267772 0.805252 7237230 3
0.032005 0.271579 0.816701 7039853 3
0.049281 0.294704 0.886242 6974060 3
0.079563 0.299138 0.899577 6776679 3
0.089210 0.282891 0.850718 6974056 3
0.099578 0.273022 0.821040 6776679 3
0.018229 0.279378 0.800624 8026746 3
0.032430 0.288773 0.827547 7368816 3
0.089888 0.299115 0.857185 7368814 3
0.098190 0.282509 0.809596 6908265 3
-0.277206 0.255795 0.958552 6118747 3
-0.260463 0.254812 0.954868 5723991 3
-0.298850 0.262884 0.928019 5987161 3
-0.278246 0.257909 0.910456 5789525 3
-0.242963 0.268478 0.947764 6644580 3
-0.482770 0.233431 0.874747 3354932 3
-0.446037 0.222283 0.832970 3684410 3
-0.426168 0.219099 0.821040 3421495 3
-0.497655 0.241089 0.851078 3881787 3
-0.480106 0.239307 0.844787 3881274 3
-0.457931 0.235045 0.829741 4210241 3
-0.483464 0.254949 0.850697 3881274 3
-0.457931 0.248668 0.829741 4144448 3
-0.444570 0.248815 0.830230 4408390 3
-0.497432 0.268916 0.850697 3683895 3
-0.478480 0.266144 0.841927 3815481 3
0.102663 0.211989 0.846478 5592666 3
0.117560 0.213805 0.853729 5723478 3
0.134599 0.218715 0.873333 5986650 3
0.152811 0.224401 0.896040 5855066 3
0.101531 0.223397 0.837146 6382182 3
0.114284 0.221474 0.829940 5789271 3
0.128166 0.221915 0.831593 6249824 3
0.142673 0.223251 0.836599 6644584 3
0.161336 0.230282 0.862947 5986652 3
0.179635 0.235702 0.883255 5921370 3
0.101531 0.237142 0.837146 6776940 3
0.113798 0.234100 0.826406 7171437 3
0.125704 0.231044 0.815617 6184544 3
0.139187 0.231196 0.816153 6250083 3
0.155844 0.236130 0.833574 6579302 3
0.171465 0.238824 0.843084 6381923 3
0.189904 0.244749 0.863999 6118751 3
0.108301 0.267614 0.892960 6645352 3
0.115359 0.251068 0.837747 6842472 3
0.150532 0.241301 0.805160 6973806 3
0.166156 0.244844 0.816980 6776427 3
0.184063 0.250971 0.837425 6316130 3
0.102066 0.266025 0.841552 6513766 3
0.113059 0.259541 0.821040 6382434 3
0.124656 0.255677 0.808817 7764087 3
0.055469 0.249815 0.997516 5855064 3
0.069331 0.241065 0.962580 5197649 3
0.095089 0.227092 0.906783 5263701 3
0.006116 0.257021 0.963144 6842985 3
0.050831 0.243937 0.914116 6118238 3
0.064918 0.270118 0.901314 8158334 3
0.081472 0.276068 0.921167 7434609 3
0.095070 0.271705 0.906609 6645352 3
0.005722 0.284863 0.901145 6842472 3
0.051223 0.291193 0.921167 6907754 3
0.066348 0.291193 0.921167 6578789 3
0.080185 0.286591 0.906609 7302510 3
-0.067638 0.223630 0.892960 5789271 3
-0.082275 0.238223 0.892704 5394513 3
-0.066638 0.234771 0.879766 6447201 3
-0.052717 0.237129 0.888602 6907238 3
-0.095330 0.248698 0.877941 6974058 3
-0.080658 0.247910 0.875159 7368303 3
-0.066638 0.249216 0.879766 7302764 3
-0.051795 0.247312 0.873046 7763061 3
-0.037912 0.250297 0.883585 7302510 3
-0.023755 0.254039 0.896795 6645093 3
-0.093590 0.258311 0.861916 6513507 3
-0.079412 0.258228 0.861639 6973799 3
-0.067159 0.265720 0.886640 6973799 3
-0.051980 0.262583 0.876170 6973799 3
-0.037912 0.264805 0.883585 6776677 3
-0.023208 0.262583 0.876170 7105642 3
-0.008968 0.266912 0.890616 6513505 3
-0.096382 0.280591 0.887628 7039851 3
-0.081666 0.280103 0.886087 6973799 3
-0.067159 0.280278 0.886640 6908263 3
-0.051980 0.276969 0.876170 6908006 3
-0.036771 0.270905 0.856989 7302764 3
-0.022214 0.265101 0.838629 7236971 3
-0.008387 0.263313 0.832970 7105644 3
-0.068170 0.299276 0.899991 7303021 3
-0.052170 0.292417 0.879366 7302764 3
-0.036237 0.280836 0.844539 7302764 3
-0.021748 0.273022 0.821040 6842472 3
-0.008190 0.270460 0.813334 7237230 3
-0.036127 0.293811 0.841984 7303023 3
-0.034712 0.295584 0.808999 8421504 3
-0.294072 0.254662 1.016873 5592403 3
-0.279885 0.256966 1.026072 4868682 3
-0.269017 0.262807 1.049396 5131343 3
-0.256266 0.267482 1.068062 5987165 3
-0.258071 0.268642 1.006695 6315617 3
-0.254178 0.282697 1.059361 6184544 3
-0.508227 0.211724 0.845420 3486516 3
-0.576668 0.233476 0.824202 2960685 3
-0.511629 0.241089 0.851078 3815994 3
-0.580885 0.248815 0.830230 3487029 3
-0.596479 0.263313 0.832970 3815994 3
-0.582802 0.263313 0.832970 3421238 3
-0.565007 0.261407 0.826942 3749949 3
-0.584052 0.271219 0.815617 2763306 3
0.800771 0.202411 0.864937 2498093 3
0.810727 0.201356 0.860431 3023665 3
0.821755 0.200600 0.857198 1971745 3
0.833556 0.200054 0.854866 2433577 3
0.808579 0.222673 0.889139 1842214 3
0.803572 0.213582 0.852838 1840674 3
0.817282 0.213505 0.852532 2103844 3
0.829305 0.212998 0.850506 2959921 3
0.835909 0.211139 0.843084 1974052 3
0.815541 0.239315 0.896795 3289660 3
0.804148 0.223847 0.838832 2564395 3
0.817101 0.223623 0.837991 2170405 3
0.801212 0.236752 0.835769 2696749 3
0.762252 0.203501 0.869597 2303017 3
0.768344 0.201356 0.860431 1644833 3
0.791488 0.203676 0.870345 1973287 3
0.768069 0.223630 0.892960 2894383 3
0.779929 0.222830 0.889764 2237224 3
0.794538 0.222830 0.889764 2237740 3
0.793312 0.214594 0.856881 2170155 3
0.719744 0.232162 0.869991 2697262 3
0.734028 0.232162 0.869991 2696749 3
0.754093 0.233956 0.876712 2170660 3
0.770367 0.234528 0.878855 3420985 3
0.773961 0.231289 0.866721 2960693 3
0.798900 0.230274 0.862916 3289149 3
0.793292 0.224673 0.841927 2630960 3
0.721083 0.242100 0.854648 3486520 3
0.740090 0.243738 0.860431 3486518 3
0.735012 0.237532 0.838522 3223348 3
0.742199 0.235444 0.831152 2697262 3
0.790893 0.246361 0.869691 2829107 3
0.788830 0.241361 0.852039 2170666 3
0.793292 0.238497 0.841927 2170407 3
0.715658 0.254206 0.848219 3420725 3
0.732045 0.255063 0.851078 3618617 3
0.744785 0.254641 0.849671 3749692 3
0.740382 0.248481 0.829117 2038819 3
0.761550 0.250971 0.837425 2828850 3
0.769659 0.249145 0.831332 2763316 3
0.780700 0.248315 0.828563 2763057 3
0.791430 0.247417 0.825565 2565163 3
0.707989 0.265259 0.839128 3486520 3
0.724174 0.266144 0.841927 3354932 3
0.727316 0.262292 0.829741 3157553 3
0.736236 0.260627 0.824475 3025967 3
0.753491 0.261919 0.828563 3552313 3
0.761573 0.260034 0.822598 2763057 3
0.772525 0.259177 0.819887 2565678 3
0.713297 0.281129 0.845420 4736587 3
0.721337 0.278871 0.838629 4604999 3
0.730146 0.276989 0.832970 3289139 3
0.741117 0.275982 0.829940 3618104 3
0.753244 0.275433 0.828291 3947071 3
0.718071 0.296984 0.851078 4539208 3
0.732045 0.296984 0.851078 3485748 3
0.740504 0.294789 0.844787 4077885 3
0.746322 0.291642 0.835769 3814713 3
0.752017 0.288562 0.826942 4143680 3
0.757594 0.285546 0.818300 4605001 3
0.552208 0.210517 0.899577 4144195 3
0.544030 0.201996 0.863168 4144448 3
0.535882 0.218627 0.872981 3485751 3
0.532446 0.211566 0.844787 4012094 3
0.536586 0.207798 0.829741 4078655 3
0.527958 0.229515 0.860072 4341829 3
0.519243 0.219846 0.823839 4735817 3
0.513376 0.250297 0.883585 4737098 3
0.523454 0.248197 0.876170 4276804 3
0.511100 0.235857 0.832609 4933964 3
0.504776 0.226871 0.800886 4735815 3
0.210205 0.223805 0.956360 5592405 3
0.231194 0.229043 0.978740 4539719 3
0.247264 0.229043 0.978740 4539976 3
0.262186 0.228044 0.974472 6316128 3
0.259911 0.213063 0.910456 5526871 3
0.274859 0.213063 0.910456 4934736 3
0.287018 0.211011 0.901690 4671303 3
0.202933 0.231222 0.923274 4473922 3
0.225555 0.239134 0.954868 4934473 3
0.240701 0.238607 0.952762 4868682 3
0.245600 0.228606 0.912828 6907752 3
0.200263 0.243139 0.911125 5987163 3
0.217594 0.245819 0.921167 6447714 3
0.230776 0.243766 0.913474 7500400 3
0.110494 0.246582 1.053689 5000017 3
0.128329 0.247614 1.058097 5592153 3
0.145702 0.247614 1.058097 6118236 3
0.161580 0.245344 1.048398 5591892 3
0.174862 0.239949 1.025347 5657687 3
0.188438 0.235869 1.007910 6052704 3
-0.076905 0.237600 1.015307 4539719 3
-0.062939 0.248267 1.060892 4802376 3
-0.047124 0.257015 1.098271 4802376 3
-0.027290 0.241097 1.030253 4473926 3
-0.010469 0.243307 1.039697 4737355 3
-0.026722 0.252648 1.008828 6316130 3
-0.010285 0.255807 1.021442 5001297 3
-0.086209 0.218896 0.935383 5263442 3
-0.083557 0.227048 0.906609 6907754 3
-0.057703 0.243585 0.972641 6446433 3
-0.042784 0.249716 0.997124 5657687 3
-0.039525 0.245819 0.921167 6447201 3
-0.024804 0.249891 0.936427 6447714 3
-0.009660 0.256015 0.959378 6448741 3
-0.009363 0.263392 0.929810 6514020 3
-0.105373 0.227098 0.970433 4407879 3
-0.121306 0.243032 0.970433 6052958 3
-0.101567 0.234254 0.935383 6579302 3
-0.137787 0.259999 0.974305 6250333 3
-0.120834 0.257958 0.966657 6184544 3
-0.101567 0.249612 0.935383 6118751 3
-0.130995 0.262389 0.926272 6842472 3
-0.114986 0.260576 0.919871 6842474 3
-0.547863 0.213273 0.911352 2631207 3
-0.537715 0.244002 0.974305 2631209 3
-0.517623 0.242086 0.966657 2500136 3
-0.539379 0.246157 0.922434 4079679 3
-0.547273 0.256975 0.962973 3618615 3
0.799716 0.210343 0.966657 2697264 3
0.792453 0.219798 0.939238 3157555 3
0.776709 0.211319 0.903004 2894641 3
0.762082 0.230694 0.921167 3223606 3
0.764923 0.227048 0.906609 2959921 3
0.041464 0.230241 1.058097 4934475 3
0.006629 0.244312 1.043989 4738125 3
0.023751 0.244111 1.043131 4671562 3
0.040192 0.240014 1.025623 4342338 3
0.056387 0.237302 1.014035 5328720 3
0.072302 0.234915 1.003836 4802891 3
0.091226 0.241376 1.031441 4802637 3
0.006470 0.255182 1.018950 5198160 3
0.023153 0.254662 1.016873 5197647 3
0.039498 0.252418 1.007910 6579298 3
0.089199 0.252572 1.008526 5395028 3
-0.299587 0.254296 1.168645 3289398 3
-0.289605 0.264371 1.129705 5197649 3
-0.272272 0.265557 1.134771 4276547 3
-0.261566 0.273855 1.170233 4605510 3
-0.249297 0.279322 1.115340 4868684 3
-0.242352 0.293069 1.170233 5724250 3
-0.249297 0.297635 1.115340 5658200 3
-0.382041 0.258149 1.186352 4277058 3
-0.357151 0.254296 1.168645 4671303 3
-0.337963 0.254296 1.168645 4539719 3
-0.318775 0.254296 1.168645 4341827 3
-0.378121 0.274779 1.174178 4934984 3
-0.346628 0.265426 1.134212 5000266 3
-0.323479 0.261763 1.118560 4671303 3
-0.305114 0.261763 1.118560 5197136 3
-0.367033 0.285434 1.139745 5132106 3
0.710350 0.169379 0.841927 2499883 3
0.735993 0.165813 0.824202 2433838 3
0.740090 0.187229 0.860431 3420985 3
0.737997 0.183202 0.841927 2236970 3
0.768344 0.187229 0.860431 1973800 3
0.531575 0.179002 0.889764 3684410 3
0.519472 0.165813 0.824202 3026478 3
0.531575 0.193611 0.889764 3289398 3
0.505939 0.179345 0.824202 3618363 3
0.519472 0.179345 0.824202 2960687 3
0.493160 0.212868 1.058097 5197906 3
0.479024 0.231807 1.065295 4013373 3
0.480182 0.224182 1.030253 4473922 3
0.462534 0.249839 1.067605 5131593 3
0.463483 0.241210 1.030734 4933962 3
0.483388 0.234448 1.001838 4605508 3
0.484610 0.206666 1.118560 3487291 3
0.484610 0.225032 1.118560 4079427 3
0.495891 0.221862 1.102806 4342597 3
0.477784 0.239969 1.102806 4144959 3
0.448522 0.273348 1.168067 5066320 3
0.461051 0.269462 1.151459 4868682 3
0.475175 0.266777 1.139986 4605508 3
0.580583 0.267900 1.449985 4210754 3
0.593401 0.263029 1.423622 3815742 3
0.509161 0.291708 1.449985 4210493 3
0.523278 0.286404 1.423622 4671044 3
0.546652 0.286404 1.423622 4210754 3
-0.686006 0.301388 1.631234 3486520 3
-0.659223 0.301388 1.631234 3749949 3
-0.632440 0.301388 1.631234 3092532 3
-0.605657 0.301388 1.631234 3487288 3
-0.686006 0.328171 1.631234 3289141 3
-0.659223 0.328171 1.631234 3486777 3
-0.605657 0.328171 1.631234 4408390 3
-0.659223 0.354954 1.631234 3684410 3
0.587353 0.269000 1.597943 3288623 3
0.508643 0.295237 1.597943 4604231 3
0.534879 0.295237 1.597943 4472643 3
0.549894 0.289332 1.565984 4012860 3
0.564319 0.283659 1.535279 3947321 3
0.589527 0.283659 1.535279 4013375 3
0.456169 0.269000 1.597943 3947071 3
0.482406 0.269000 1.597943 3289141 3
0.421334 0.289332 1.565984 4275781 3
0.447046 0.289332 1.565984 4210243 3
0.472758 0.289332 1.565984 4539206 3
0.087079 0.263620 1.565984 4078914 3
0.010147 0.295237 1.597943 4276293 3
0.036383 0.295237 1.597943 4605258 3
0.061367 0.289332 1.565984 4408133 3
0.087079 0.289332 1.565984 4211011 3
-0.659223 0.247821 1.631234 2631468 3
-0.632440 0.247821 1.631234 2631979 3
-0.605657 0.247821 1.631234 3289909 3
-0.686006 0.274605 1.631234 2829101 3
-0.659223 0.274605 1.631234 2303016 3
-0.632440 0.274605 1.631234 2830128 3
-0.605657 0.274605 1.631234 2566956 3
0.625658 0.230648 1.702157 3025197 3
0.653606 0.230648 1.702157 2959921 3
0.625658 0.258596 1.702157 3419955 3
0.653606 0.258596 1.702157 3486520 3
0.681554 0.258596 1.702157 2895154 3
0.569763 0.230648 1.702157 3421238 3
0.597711 0.230648 1.702157 2828588 3
0.537225 0.270351 1.779528 3091762 3
0.566443 0.270351 1.779528 3223348 3
0.595661 0.270351 1.779528 3157812 3
0.597711 0.258596 1.702157 3552311 3
0.541815 0.286544 1.702157 3683127 3
0.569763 0.286544 1.702157 4078657 3
0.241351 0.212197 1.565984 4012862 3
0.211411 0.233244 1.535279 4079166 3
0.241351 0.237908 1.565984 4012860 3
0.272513 0.242764 1.597943 4012092 3
0.215639 0.263620 1.565984 4539717 3
0.246276 0.269000 1.597943 4933448 3
0.272513 0.269000 1.597943 4209212 3
0.220040 0.295237 1.597943 5131341 3
0.246276 0.295237 1.597943 5131341 3
0.272513 0.295237 1.597943 5262927 3
0.298750 0.295237 1.597943 5591892 3
0.112791 0.212197 1.565984 2829107 3
0.112791 0.237908 1.565984 3420985 3
0.138503 0.237908 1.565984 3684157 3
0.112791 0.263620 1.565984 3684156 3
0.138503 0.263620 1.565984 4341829 3
0.164215 0.263620 1.565984 3947071 3
0.189927 0.263620 1.565984 3880506 3
0.112791 0.289332 1.565984 4342340 3
0.138503 0.289332 1.565984 4276036 3
0.167566 0.295237 1.597943 4275781 3
0.193803 0.295237 1.597943 4670794 3
0.090708 0.221038 1.631234 3223093 3
0.065284 0.253094 1.665941 3421238 3
0.090708 0.247821 1.631234 3552570 3
0.010578 0.280447 1.665941 4144448 3
0.037141 0.274605 1.631234 4342851 3
0.063924 0.274605 1.631234 3553335 3
-0.427425 0.254068 1.262890 3947580 3
-0.468895 0.274803 1.262890 4737355 3
-0.434155 0.266216 1.223425 4145472 3
-0.414068 0.266216 1.223425 4079166 3
-0.438532 0.289189 1.235758 4013886 3
0.108206 0.125604 1.223425 1908258 3
0.128293 0.125604 1.223425 1645084 3
0.148380 0.125604 1.223425 2236451 3
0.168468 0.125604 1.223425 2433577 3
0.109923 0.148004 1.242845 3026740 3
0.128293 0.145691 1.223425 2763308 3
0.148380 0.145691 1.223425 2171169 3
0.176753 0.152856 1.283594 3289652 3
0.134603 0.173932 1.283594 2894894 3
0.155678 0.173932 1.283594 3223344 3
0.510533 0.212868 1.058097 4211011 3
0.583244 0.201951 1.003836 3223605 3
0.500390 0.225666 1.037076 4276545 3
0.517418 0.225666 1.037076 4276547 3
0.547845 0.224182 1.030253 3815996 3
0.550280 0.218433 1.003836 4276034 3
0.465821 0.233887 0.999440 4934473 3
0.492226 0.230878 0.986583 4210754 3
0.413127 0.248215 0.991129 4604999 3
0.433186 0.250403 0.999865 5262927 3
0.448886 0.250004 0.998271 5986904 3
0.450401 0.242011 0.966356 4934473 3
0.461608 0.239593 0.956699 5000268 3
0.464843 0.233332 0.931699 5131343 3
0.474713 0.230694 0.921167 4999757 3
0.485922 0.228850 0.913803 4933962 3
0.430230 0.246329 0.923079 5263438 3
0.552593 0.212973 0.978740 3748920 3
0.568663 0.212973 0.978740 4604999 3
0.504383 0.229043 0.978740 4473672 3
0.511726 0.225202 0.962328 4473672 3
0.523437 0.223456 0.954868 3815483 3
0.539115 0.223456 0.954868 2893611 3
0.554793 0.223456 0.954868 4209471 3
0.556629 0.218034 0.931699 4473160 3
0.507261 0.231744 0.925359 5197134 3
0.526279 0.233440 0.932133 6052445 3
0.541584 0.233440 0.932133 4670792 3
0.552384 0.231552 0.924594 3946816 3
0.529510 0.243200 0.911354 5197649 3
0.541639 0.241934 0.906609 4013121 3
0.401130 0.238053 0.892067 6118236 3
0.416600 0.230408 0.863419 5460821 3
0.422939 0.226216 0.847709 4933966 3
0.433878 0.224673 0.841927 5460308 3
0.447701 0.224673 0.841927 5329233 3
0.472102 0.229822 0.861221 4934475 3
0.498869 0.235790 0.883585 5263442 3
0.406231 0.238497 0.841927 5987424 3
0.416982 0.236752 0.835769 5197395 3
0.429262 0.235959 0.832970 4802891 3
0.442939 0.235959 0.832970 4934475 3
0.459991 0.237704 0.839128 5066061 3
0.486242 0.243962 0.861221 5131856 3
0.405961 0.252153 0.841367 5790046 3
0.412578 0.247829 0.826942 5263188 3
0.421702 0.245239 0.818300 5723993 3
0.433711 0.244435 0.815617 6514020 3
0.447102 0.244435 0.815617 5592918 3
0.459482 0.243898 0.813824 5263699 3
0.410965 0.260385 0.823709 6908013 3
0.413534 0.253665 0.802451 6513509 3
0.307077 0.209222 0.835429 5263438 3
0.314826 0.218792 0.819887 5395028 3
0.339449 0.226230 0.847761 5591894 3
0.358649 0.229611 0.860431 5920859 3
0.381514 0.234992 0.880597 5920857 3
0.308368 0.227489 0.803069 6447716 3
0.327371 0.231605 0.817598 6249824 3
0.346061 0.235183 0.830230 5394515 3
0.363547 0.237704 0.839128 5591894 3
0.378583 0.238497 0.841927 5394515 3
0.392407 0.238497 0.841927 5789786 3
0.335392 0.241144 0.804634 6184031 3
0.349946 0.242073 0.807734 6381412 3
0.377846 0.251829 0.840287 6578791 3
0.398438 0.256198 0.854866 5789532 3
0.398025 0.260768 0.824920 7171699 3
0.292839 0.204731 0.874852 5066061 3
0.255364 0.224023 0.894530 5394513 3
0.268613 0.222830 0.889764 5263442 3
0.278427 0.219057 0.874701 5329231 3
0.282967 0.211709 0.845358 5395026 3
0.290853 0.207434 0.828291 5197645 3
0.240441 0.238477 0.893653 6644580 3
0.249574 0.233298 0.874247 6184029 3
0.258265 0.228291 0.855487 6381921 3
0.269721 0.226120 0.847350 5263438 3
0.279012 0.222436 0.833545 5460819 3
0.286872 0.218008 0.816951 6184540 3
0.299893 0.217723 0.815884 5723989 3
0.211222 0.253302 0.894193 5921370 3
0.225846 0.253236 0.893961 5921368 3
0.234816 0.247227 0.872746 6447203 3
0.246818 0.244918 0.864594 6512996 3
0.255473 0.239718 0.846240 6381921 3
0.266833 0.237463 0.838278 6447714 3
0.275986 0.233561 0.824503 5987163 3
0.282361 0.227783 0.804106 5987161 3
0.200099 0.253871 0.847102 6710886 3
0.216114 0.256370 0.855438 6645091 3
0.228909 0.254977 0.850791 6512996 3
0.241565 0.253599 0.846193 6512996 3
0.251315 0.249485 0.832467 6052958 3
0.260474 0.245239 0.818300 6250335 3
0.270904 0.242548 0.809321 5987163 3
0.242286 0.253699 0.802559 5921372 3
0.268725 0.253779 0.802813 7105385 3
0.122283 0.237784 0.793423 7302771 3
0.134966 0.237179 0.791405 7631737 3
0.134880 0.250014 0.790901 6776681 3
0.147866 0.250014 0.790901 6973806 3
0.160751 0.249858 0.790407 6841708 3
0.170875 0.245754 0.777424 6908013 3
0.181608 0.243034 0.768821 6514020 3
0.196599 0.245997 0.778194 6185055 3
0.109972 0.265568 0.798625 6710886 3
0.120235 0.259419 0.780134 6184542 3
0.132209 0.257792 0.775240 6908267 3
0.144938 0.257792 0.775240 9013389 3
0.156604 0.256054 0.770014 10395043 3
0.166895 0.252496 0.759315 7434357 3
0.175005 0.246363 0.740870 6974058 3
0.187222 0.246432 0.741079 7566708 3
0.198395 0.245203 0.737382 7171439 3
0.100565 0.254842 0.730310 7895160 3
0.122260 0.250163 0.716901 7106157 3
0.136415 0.254612 0.729651 6974317 3
0.149791 0.257007 0.736514 7105905 3
0.163421 0.259448 0.743508 7368818 3
0.175005 0.258527 0.740870 7631988 3
0.186614 0.257760 0.738672 7105646 3
0.196212 0.254478 0.729267 7303025 3
0.131151 0.256306 0.701497 6777706 3
0.146202 0.262653 0.718869 7171696 3
0.160375 0.266592 0.729651 6974571 3
0.171755 0.265664 0.727110 7105642 3
0.183158 0.264890 0.724993 7171439 3
0.192624 0.261579 0.715930 7368816 3