# .PCD v0.7 - Point Cloud Data file format
VERSION 0.7
FIELDS x y z rgb label
SIZE 4 4 4 4 4
TYPE F F F U U
COUNT 1 1 1 1 1
WIDTH 1411
HEIGHT 1
VIEWPOINT 0 0 0 1 0 0 0
POINTS 1411
DATA ascii
-0.340579 0.248477 0.599278 5921111 3
-0.330266 0.248121 0.598420 5723480 3
-0.320057 0.247824 0.597704 4933196 3
-0.310096 0.247707 0.597421 6840934 3
-0.337111 0.255686 0.593176 5328974 3
-0.327372 0.255686 0.593176 5262929 3
-0.316808 0.255023 0.591637 5262161 3
-0.306659 0.254661 0.590799 5788246 3
-0.323693 0.262443 0.586511 6051929 3
-0.313185 0.261709 0.584871 5590867 3
-0.302100 0.260431 0.582016 6248543 3
-0.307444 0.266338 0.574149 6511969 3
0.445412 0.228197 0.597704 5131856 3
0.455226 0.228197 0.597704 4605769 3
0.402167 0.230112 0.577869 7369329 3
0.400217 0.223718 0.561813 7237232 3
0.407596 0.222710 0.559280 5526614 3
0.416778 0.222710 0.559280 6184544 3
0.423884 0.221624 0.556553 5658457 3
0.434180 0.222216 0.558041 4539976 3
0.444327 0.222710 0.559280 5658457 3
0.465057 0.228381 0.573521 4803148 3
0.479829 0.230958 0.579994 4211013 3
0.489352 0.230958 0.579994 3816255 3
0.493868 0.228640 0.574173 4013632 3
0.498480 0.226453 0.568680 3882046 3
0.423884 0.230762 0.556553 5263699 3
0.453053 0.227061 0.547628 5000527 3
0.471875 0.231893 0.559280 5526873 3
0.481058 0.231893 0.559280 5132113 3
0.490241 0.231893 0.559280 4671562 3
0.465070 0.237598 0.551214 5067090 3
0.473246 0.237161 0.550198 4540744 3
0.062678 0.228197 0.597704 9144714 3
0.071893 0.226315 0.592775 8815749 3
0.080764 0.223923 0.586511 8486016 3
0.090394 0.223923 0.586511 8354430 3
0.076097 0.229133 0.552625 8881542 3
0.084909 0.228428 0.550924 8420991 3
0.093163 0.226503 0.546281 9145229 3
0.074778 0.234076 0.543043 9934741 3
0.083512 0.233568 0.541863 9737364 3
-0.112760 0.225775 0.591360 7829365 3
-0.104206 0.228306 0.597991 8026744 3
-0.152534 0.236938 0.595012 7763572 3
-0.141188 0.234322 0.588441 6974056 3
-0.129941 0.231497 0.581347 7368814 3
-0.120115 0.230958 0.579994 7829365 3
-0.110592 0.230958 0.579994 8158073 3
-0.101262 0.231399 0.581101 7895158 3
-0.189276 0.243700 0.587757 7435118 3
-0.178576 0.242276 0.584322 7763572 3
-0.168982 0.242276 0.584322 8026744 3
-0.158980 0.241657 0.582829 7828854 3
-0.149202 0.241319 0.582016 8487295 3
-0.138808 0.239871 0.578523 7829365 3
-0.128509 0.238387 0.574943 7828854 3
-0.119123 0.238495 0.575203 8288891 3
-0.110184 0.239594 0.577854 8288889 3
-0.192511 0.245181 0.568804 6908776 3
-0.182923 0.244847 0.568030 7369325 3
-0.175275 0.247215 0.573523 6908517 3
-0.168393 0.250992 0.582286 7237230 3
-0.159314 0.251753 0.584052 8092028 3
-0.148684 0.250004 0.579994 7500400 3
-0.119433 0.248584 0.576699 8551552 3
-0.110592 0.250004 0.579994 8946306 3
-0.191123 0.252684 0.564702 7106155 3
0.358371 0.219167 0.599851 6249824 3
0.366902 0.218383 0.597704 6645095 3
0.376716 0.218383 0.597704 6447714 3
0.387548 0.218958 0.599278 6250848 3
0.355647 0.227275 0.595290 7697268 3
0.364123 0.226468 0.593176 7631475 3
0.373862 0.226468 0.593176 6710886 3
0.383602 0.226468 0.593176 7566195 3
0.394463 0.227114 0.594868 6777192 3
0.308269 0.217421 0.545999 7631990 3
0.325426 0.223036 0.560099 7763061 3
0.344048 0.229319 0.575877 7171437 3
0.354800 0.230159 0.577988 6908265 3
0.365221 0.230747 0.579465 6908265 3
0.367760 0.226453 0.568680 6974058 3
0.378127 0.227071 0.570233 7500400 3
0.392325 0.229905 0.577348 7500915 3
0.300731 0.220850 0.532648 8224384 3
0.311273 0.222132 0.535740 7303536 3
0.332410 0.230696 0.556395 7500402 3
0.344702 0.232829 0.561538 7500402 3
0.356236 0.234351 0.565210 7039338 3
0.363386 0.232985 0.561916 6841959 3
0.373114 0.233299 0.562673 7763315 3
0.382781 0.233561 0.563304 6316126 3
0.392030 0.233561 0.563304 6645606 3
0.361285 0.240811 0.558667 8420477 3
0.364682 0.237057 0.549957 8091510 3
0.376527 0.238843 0.554100 7697522 3
0.380157 0.235456 0.546244 7368814 3
-0.242473 0.219220 0.599994 6052954 3
-0.232011 0.218644 0.598420 6119001 3
-0.250353 0.227281 0.595307 6316639 3
-0.240344 0.227060 0.594726 5724502 3
-0.229655 0.226149 0.592342 6447455 3
-0.219979 0.226201 0.592476 6579041 3
-0.210600 0.226576 0.593459 6908006 3
-0.281429 0.238541 0.599037 6316128 3
-0.269958 0.237105 0.595431 6974058 3
-0.260182 0.237105 0.595431 5723991 3
-0.249753 0.236488 0.593881 6119260 3
-0.240344 0.236825 0.594726 6777190 3
-0.229655 0.235875 0.592342 6710627 3
-0.219408 0.235316 0.590937 6776420 3
-0.210352 0.236041 0.592759 7434607 3
-0.202874 0.238695 0.599423 5526610 3
-0.298154 0.245947 0.593176 6643812 3
-0.289928 0.247237 0.596289 6776681 3
-0.274895 0.242611 0.585130 6316641 3
-0.259417 0.237242 0.572181 5526612 3
-0.252398 0.239496 0.577619 5789784 3
-0.245734 0.242276 0.584322 6974569 3
-0.237360 0.243528 0.587343 7040362 3
-0.226499 0.242226 0.584202 6908006 3
-0.216750 0.242051 0.583780 6645091 3
-0.208232 0.243298 0.586788 7566193 3
-0.200002 0.245019 0.590937 7106155 3
-0.295912 0.253764 0.588716 5788503 3
-0.286988 0.254422 0.590243 7171439 3
-0.271787 0.249366 0.578514 6580327 3
-0.256256 0.243631 0.565210 6579813 3
-0.246199 0.242864 0.563431 6710886 3
-0.217519 0.241834 0.561040 7500400 3
-0.210663 0.244569 0.567386 7697779 3
-0.201347 0.244569 0.567386 7303534 3
-0.291528 0.259527 0.579994 7499375 3
-0.281290 0.258869 0.578523 6908776 3
-0.244385 0.250258 0.559280 6842472 3
-0.216983 0.250428 0.559659 6908774 3
-0.209903 0.252969 0.565337 7566706 3
-0.200124 0.252343 0.563939 7698294 3
-0.296589 0.265062 0.571397 6906984 3
-0.286227 0.264158 0.569449 6841959 3
0.525181 0.209071 0.599141 3552570 3
0.535141 0.209119 0.599278 3223859 3
0.555366 0.209324 0.599867 4079427 3
0.515344 0.218908 0.599141 4539468 3
0.523922 0.218383 0.597704 4473672 3
0.505507 0.228745 0.599141 4605258 3
0.514108 0.228197 0.597704 4539465 3
0.518505 0.225837 0.591525 4342340 3
0.531355 0.227179 0.595038 4342340 3
0.506209 0.225736 0.566879 3487288 3
0.245392 0.205433 0.588716 8881544 3
0.254401 0.204904 0.587200 8749958 3
0.264414 0.205192 0.588027 8092541 3
0.274922 0.205831 0.589857 7105131 3
0.216342 0.215049 0.588578 9341579 3
0.225213 0.214293 0.586511 8683649 3
0.234078 0.213596 0.584602 8683395 3
0.240754 0.211034 0.577589 8814981 3
0.246050 0.207503 0.567926 8355200 3
0.221888 0.220618 0.577854 8551809 3
0.231376 0.220618 0.577854 7498864 3
0.254710 0.208644 0.546492 8553090 3
0.238700 0.211385 0.530842 7763574 3
0.236297 0.217886 0.525498 7697781 3
0.291985 0.220850 0.532648 7039853 3
0.141694 0.209318 0.599851 9342347 3
0.150571 0.207975 0.596000 8749956 3
0.159559 0.206940 0.593036 8420993 3
0.168697 0.206208 0.590937 9802646 3
0.178399 0.206208 0.590937 9078923 3
0.188236 0.206356 0.591360 9473683 3
0.122025 0.219220 0.599994 8224125 3
0.131814 0.219115 0.599709 8026487 3
0.140650 0.217553 0.595431 8223866 3
0.150391 0.217501 0.595290 9209993 3
0.159559 0.216677 0.593036 8815751 3
0.168697 0.215911 0.590937 8815751 3
0.121996 0.229016 0.599851 7829365 3
0.131342 0.228142 0.597562 7566193 3
0.140650 0.227329 0.595431 9013382 3
0.150391 0.227275 0.595290 9408140 3
0.159484 0.226309 0.592759 8355200 3
0.167003 0.223349 0.585006 8420995 3
0.141694 0.238865 0.599851 8026487 3
0.150929 0.237898 0.597421 8223866 3
0.159596 0.236207 0.593176 8224125 3
-0.098790 0.232290 0.698549 6777190 3
-0.083564 0.222298 0.668501 7304050 3
-0.068637 0.210199 0.632118 6909805 3
-0.057789 0.208505 0.627024 7567735 3
-0.046862 0.205731 0.618681 8093052 3
-0.036703 0.205723 0.618657 8224636 3
-0.029470 0.228395 0.686835 8750980 3
-0.096975 0.239282 0.685719 7435373 3
-0.083092 0.231955 0.664720 6975339 3
-0.068549 0.220295 0.631306 7172977 3
-0.057775 0.218746 0.626869 7501942 3
-0.046804 0.215619 0.617907 7895673 3
-0.036680 0.215750 0.618283 8027257 3
-0.029214 0.237588 0.680863 7698292 3
-0.018035 0.237588 0.680863 7960953 3
-0.006815 0.236179 0.676827 7960953 3
-0.091374 0.236069 0.646109 7830129 3
-0.078986 0.230869 0.631877 7435890 3
-0.067560 0.227332 0.622196 7962493 3
-0.057231 0.226882 0.620965 7633528 3
-0.045890 0.221359 0.605848 8093052 3
-0.035831 0.220671 0.603966 8224636 3
-0.028471 0.242442 0.663553 8553601 3
-0.017680 0.243867 0.667452 7895673 3
-0.006699 0.243090 0.665325 8224638 3
-0.095281 0.230467 0.603651 8027257 3
-0.088211 0.238138 0.623743 7435118 3
-0.077641 0.237135 0.621116 7698294 3
-0.066945 0.235384 0.616529 8027257 3
-0.056781 0.235212 0.616079 8290429 3
-0.045668 0.230185 0.602912 8158843 3
-0.035657 0.229466 0.601027 6908776 3
-0.055431 0.239499 0.601442 8092537 3
-0.289430 0.212281 0.638378 6447966 3
-0.266348 0.202692 0.609543 6776677 3
-0.244052 0.200816 0.603900 6052956 3
-0.234532 0.201156 0.604921 5461078 3
-0.228697 0.204825 0.615956 5921370 3
-0.219816 0.205980 0.619430 5723991 3
-0.215587 0.211817 0.636983 5461332 3
-0.216046 0.223091 0.670886 5527125 3
-0.209734 0.228209 0.686278 6447714 3
-0.299187 0.230272 0.659900 6579298 3
-0.281600 0.224880 0.644446 6579298 3
-0.253600 0.210427 0.603028 6316126 3
-0.244052 0.210732 0.603900 5921370 3
-0.234418 0.210985 0.604627 5723989 3
-0.225692 0.212114 0.607862 6579041 3
-0.216339 0.212731 0.609631 5855064 3
-0.209547 0.216049 0.619138 6514020 3
-0.211977 0.229698 0.658252 6711399 3
-0.206014 0.235229 0.674103 7500402 3
-0.290686 0.234257 0.641150 6710884 3
-0.271972 0.227411 0.622412 6052954 3
-0.254471 0.221085 0.605098 6645091 3
-0.223094 0.219538 0.600865 6513248 3
-0.213789 0.220116 0.602447 7829108 3
-0.206284 0.222692 0.609498 7697781 3
-0.291945 0.237252 0.621422 6974058 3
-0.203362 0.229403 0.600865 7237228 3
-0.298377 0.244366 0.613665 6512996 3
0.535670 0.196866 0.622771 4210500 3
0.530530 0.191325 0.605242 3947582 3
0.537841 0.190395 0.602302 3026480 3
0.547730 0.190395 0.602302 3289399 3
0.576169 0.196729 0.622338 3552571 3
0.308844 0.217117 0.686835 7237491 3
0.322069 0.218438 0.691014 6316387 3
0.334331 0.219039 0.692913 7303284 3
0.345425 0.218859 0.692346 7039600 3
0.352407 0.216169 0.683836 6710634 3
0.369216 0.219487 0.694330 7105644 3
0.378608 0.218329 0.690668 7105896 3
0.387784 0.217117 0.686835 7565936 3
0.396569 0.215761 0.682545 7039338 3
0.367746 0.229968 0.691567 7434609 3
0.383231 0.232473 0.699100 7303021 3
0.392322 0.231067 0.694872 7039592 3
0.365775 0.209344 0.629545 6710373 3
0.374229 0.208296 0.626394 6776170 3
0.385575 0.208871 0.628123 6908013 3
0.396384 0.209132 0.628909 6118751 3
0.369608 0.228438 0.654642 6776420 3
0.351213 0.210934 0.604482 6184029 3
0.359836 0.210174 0.602302 6381412 3
0.369904 0.210275 0.602593 7237232 3
0.382557 0.211803 0.606971 7105646 3
0.394631 0.212940 0.610231 5724504 3
0.397958 0.219272 0.600138 6448227 3
0.268445 0.220994 0.699100 7960440 3
0.278221 0.219650 0.694847 7960440 3
0.288824 0.219039 0.692913 8355711 3
0.298390 0.217718 0.688735 8684678 3
0.229843 0.228334 0.686652 8750469 3
0.234720 0.203267 0.611270 7894647 3
0.251369 0.200535 0.603056 7763061 3
0.266846 0.204815 0.615926 7566197 3
0.278258 0.205775 0.618814 8355713 3
0.287496 0.205117 0.616835 8092798 3
0.201324 0.209878 0.601453 9407888 3
0.102897 0.211049 0.667639 8618883 3
0.112211 0.207995 0.657977 8421504 3
0.123015 0.207995 0.657977 8092537 3
0.137018 0.212969 0.673711 8882568 3
0.100407 0.216640 0.651485 8487297 3
0.133996 0.202724 0.609637 8289916 3
0.142205 0.200189 0.602014 8158330 3
0.125608 0.215515 0.617609 8816262 3
0.133477 0.211908 0.607273 8289916 3
0.114510 0.223784 0.612485 8553088 3
0.102422 0.229294 0.600577 8947335 3
0.113397 0.231568 0.606535 9276813 3
0.124409 0.243589 0.611713 8158330 3
0.133318 0.241534 0.606552 8684674 3
0.135847 0.256264 0.618058 8684674 3
-0.196583 0.214883 0.679765 5921370 3
-0.185018 0.214415 0.678285 7039338 3
-0.177447 0.218811 0.692194 6776166 3
-0.167182 0.220261 0.696780 6776166 3
-0.195467 0.224760 0.675906 5658198 3
-0.184120 0.224457 0.674993 4933962 3
-0.176788 0.229322 0.689625 5855066 3
-0.167739 0.232473 0.699100 7170924 3
-0.156174 0.232344 0.698713 7631988 3
-0.143581 0.230544 0.693300 8553088 3
-0.191085 0.230570 0.660753 6776679 3
-0.180236 0.230570 0.660753 6512994 3
-0.169902 0.231272 0.662763 7499891 3
-0.166254 0.241793 0.692913 8881542 3
-0.153738 0.240013 0.687813 8618883 3
-0.139265 0.234655 0.672460 8092537 3
-0.130542 0.238899 0.684620 7763574 3
-0.121217 0.242734 0.695610 7303023 3
-0.108888 0.240727 0.689861 6711395 3
-0.197668 0.224271 0.613819 6842985 3
-0.190958 0.228298 0.624840 6447714 3
-0.181148 0.228865 0.626394 7171437 3
-0.170864 0.228865 0.626394 7302510 3
-0.163919 0.233627 0.639425 7894649 3
-0.163363 0.248767 0.680863 7960440 3
-0.149903 0.245039 0.670660 7105644 3
-0.129862 0.229107 0.627055 6842470 3
-0.124162 0.237914 0.651161 7566195 3
-0.115630 0.242442 0.663553 7105644 3
-0.103242 0.238984 0.654088 7237739 3
-0.194763 0.230905 0.604797 7895673 3
-0.190724 0.238264 0.624073 7566193 3
-0.181148 0.239150 0.626394 7697779 3
-0.170821 0.239091 0.626238 7434350 3
-0.160397 0.238880 0.625685 6842470 3
-0.156556 0.249115 0.652493 7566193 3
-0.193959 0.239841 0.602302 7500913 3
-0.186048 0.242418 0.608772 7368814 3
-0.175960 0.242291 0.608452 7237228 3
-0.163789 0.239107 0.600458 7368557 3
-0.384024 0.219960 0.695826 4867401 3
-0.366603 0.216420 0.684628 5261902 3
-0.359916 0.219193 0.693401 5328720 3
-0.382207 0.230289 0.692533 6380640 3
-0.364501 0.226355 0.680703 6051418 3
-0.349801 0.224098 0.673915 5920089 3
-0.342915 0.226863 0.682229 5328720 3
-0.333953 0.228395 0.686835 5987161 3
-0.307283 0.217499 0.654070 6448223 3
-0.390233 0.239606 0.686648 4736583 3
-0.377407 0.238625 0.683836 6314847 3
-0.361857 0.235809 0.675765 6380383 3
-0.346816 0.233156 0.668164 6446433 3
-0.334947 0.232533 0.666376 5459538 3
-0.323835 0.232410 0.666025 6710627 3
-0.310423 0.230570 0.660753 5592403 3
-0.395764 0.247292 0.676827 5461071 3
-0.381355 0.245173 0.671027 5855064 3
-0.369342 0.244514 0.669224 4933194 3
-0.354122 0.241626 0.661319 4801351 3
-0.337114 0.237298 0.649473 6182750 3
-0.323920 0.235458 0.644438 5985882 3
-0.313259 0.235398 0.644273 6249822 3
-0.301517 0.234493 0.641797 6513505 3
-0.390093 0.254702 0.667128 5526864 3
-0.377107 0.253337 0.663553 5197388 3
-0.365372 0.252755 0.662029 4210241 3
-0.338485 0.241336 0.632118 5196368 3
-0.325462 0.239391 0.627024 5985625 3
-0.313674 0.238257 0.624054 6314847 3
-0.304414 0.239031 0.626083 6710375 3
-0.348583 0.244245 0.613362 5328974 3
-0.338926 0.244544 0.614111 7039340 3
-0.328843 0.244544 0.614111 6183263 3
-0.317827 0.243828 0.612313 6248797 3
-0.306425 0.242760 0.609631 6314847 3
-0.422989 0.222426 0.703630 5394765 3
-0.414455 0.224058 0.708791 5197899 3
-0.404193 0.224823 0.711213 5131595 3
-0.422989 0.233979 0.703630 5723730 3
-0.414337 0.235629 0.708590 5132106 3
-0.401012 0.234640 0.705615 4868169 3
-0.443224 0.220994 0.699100 5065550 3
-0.431745 0.220994 0.699100 4605251 3
-0.431745 0.232473 0.699100 4802630 3
-0.431745 0.243952 0.699100 5065802 3
-0.417710 0.242467 0.694847 5394765 3
-0.402727 0.240334 0.688735 4868934 3
-0.427924 0.253170 0.692913 5131595 3
-0.411567 0.250143 0.684628 6250076 3
-0.406877 0.258405 0.676827 5789525 3
0.555409 0.209516 0.699100 4671311 3
0.563438 0.208241 0.694847 5131862 3
0.576766 0.208937 0.697167 3750463 3
0.589844 0.209516 0.699100 4079427 3
0.501462 0.208132 0.658412 4605258 3
0.516273 0.209757 0.663553 4408393 3
0.530265 0.210990 0.667452 4605518 3
0.542661 0.211550 0.669224 4408139 3
0.553649 0.211550 0.669224 3947842 3
0.551805 0.206742 0.654014 3684670 3
0.510983 0.218392 0.656754 5132116 3
0.527168 0.220652 0.663553 4539725 3
0.538062 0.220652 0.663553 4868944 3
0.533615 0.214486 0.645008 4474186 3
0.522670 0.205998 0.619483 4145221 3
0.520592 0.201262 0.605242 3947328 3
0.527952 0.200284 0.602302 4013375 3
0.508588 0.223387 0.640166 4803150 3
0.517512 0.222704 0.638210 5066322 3
0.518021 0.218499 0.626159 4737358 3
0.513215 0.212259 0.608277 4605772 3
0.518063 0.210174 0.602302 3223606 3
0.548528 0.210480 0.603179 3881535 3
0.505159 0.227617 0.622976 5132115 3
0.508580 0.224610 0.614747 5461080 3
0.510655 0.221137 0.605242 5329495 3
0.536558 0.219538 0.600865 4079168 3
0.549184 0.220647 0.603900 3684156 3
0.500717 0.231075 0.605242 4407879 3
0.462806 0.199297 0.665001 4407367 3
0.453478 0.190779 0.636579 4999759 3
0.439343 0.199558 0.631287 5789020 3
0.446782 0.198260 0.627180 5460057 3
0.456507 0.198011 0.626394 5526101 3
0.429632 0.209754 0.699895 5000016 3
0.405010 0.214298 0.677915 7039342 3
0.414907 0.213663 0.675906 7039599 3
0.422930 0.212120 0.671027 6381669 3
0.448864 0.219412 0.694094 5987422 3
0.469558 0.218435 0.691005 6184291 3
0.477401 0.202511 0.640630 4473926 3
0.405491 0.208505 0.627024 7171696 3
0.413713 0.207466 0.623898 5197395 3
0.424063 0.207518 0.624054 5394774 3
0.435938 0.208296 0.626394 6973294 3
0.444890 0.207674 0.624523 5920606 3
0.451653 0.206081 0.619734 6710375 3
0.465062 0.207524 0.624073 6118751 3
0.485142 0.211817 0.636983 5855325 3
0.406827 0.214086 0.613513 6711145 3
0.420298 0.215831 0.618513 6184801 3
0.434093 0.217656 0.623743 5328981 3
0.441478 0.216257 0.619734 4934223 3
0.450983 0.215936 0.618814 5986652 3
0.459441 0.215138 0.616529 6052958 3
0.474729 0.217505 0.623311 5460567 3
0.492810 0.221024 0.633396 5132115 3
0.411664 0.221344 0.605808 5658711 3
0.425720 0.223501 0.611713 6381923 3
0.435871 0.223556 0.611863 6842474 3
0.447447 0.224323 0.613962 5920861 3
0.455851 0.223501 0.611713 6118497 3
0.468417 0.224711 0.615024 5921372 3
0.484963 0.227739 0.623311 6184801 3
0.497646 0.228865 0.626394 5000527 3
0.408404 0.229459 0.601010 6448741 3
0.420688 0.230784 0.604482 4934988 3
0.429060 0.229952 0.602302 5131856 3
0.438740 0.229842 0.602014 5329235 3
0.467499 0.229403 0.600865 4605769 3
0.481056 0.231178 0.605512 4473926 3
0.494825 0.232979 0.610231 4276547 3
0.061591 0.208702 0.696383 7829108 3
0.038141 0.216826 0.685914 8816264 3
0.048408 0.212458 0.672096 7828854 3
0.059443 0.212458 0.672096 8815749 3
0.071111 0.214363 0.678123 8684676 3
0.081846 0.213324 0.674836 9079434 3
0.092549 0.212458 0.672096 8158591 3
0.004272 0.223748 0.672861 7763063 3
0.015237 0.222538 0.669224 7566454 3
0.026073 0.221242 0.665325 7763833 3
0.036372 0.217505 0.654088 8026748 3
0.047083 0.217375 0.653696 8355198 3
0.058195 0.218798 0.657977 8026233 3
0.068998 0.218798 0.657977 8947848 3
0.079572 0.218169 0.656084 8553090 3
0.090225 0.217883 0.655223 9079436 3
0.004261 0.234155 0.671027 7895162 3
0.015061 0.230828 0.661491 8158591 3
0.025538 0.227405 0.651682 7304052 3
0.035443 0.222418 0.637391 8027005 3
0.045862 0.222191 0.636741 8026233 3
0.056546 0.223099 0.639341 8749956 3
0.067301 0.223956 0.641797 8553090 3
0.077621 0.223327 0.639996 8553090 3
0.087994 0.222985 0.639015 8881544 3
0.098110 0.222135 0.636579 9078921 3
0.004165 0.239664 0.655949 7500661 3
0.065950 0.229784 0.628909 8289918 3
0.075748 0.228193 0.624554 7829367 3
0.083906 0.222632 0.609332 8683395 3
-0.219663 0.215410 0.718766 6053469 3
-0.207167 0.214690 0.716364 7106157 3
-0.293559 0.249935 0.790653 6250337 3
-0.279168 0.248680 0.786681 6184542 3
-0.265003 0.247514 0.782992 6251362 3
-0.238304 0.233925 0.740004 6316639 3
-0.216080 0.223505 0.707043 6908265 3
0.619449 0.220872 0.779709 4079428 3
0.609319 0.208636 0.736514 4474185 3
0.667864 0.224232 0.791571 3684669 3
0.694786 0.208882 0.737382 3486265 3
0.660381 0.230093 0.767762 3881787 3
0.683112 0.217276 0.724993 2960176 3
-0.138267 0.224765 0.793454 6053469 3
-0.124311 0.223100 0.787574 6645606 3
-0.112418 0.225180 0.794916 6645604 3
-0.147625 0.213630 0.712827 6710886 3
-0.136623 0.214733 0.716508 6908778 3
-0.125719 0.216212 0.721445 6514020 3
-0.113724 0.215929 0.720500 7303534 3
-0.106505 0.225701 0.753104 7895671 3
-0.158382 0.223994 0.708590 6710886 3
-0.146293 0.223301 0.706396 6118749 3
-0.135810 0.225150 0.712247 7171437 3
-0.125178 0.227077 0.718341 7303023 3
-0.112675 0.225658 0.713852 8093050 3
-0.100665 0.225013 0.711811 7237741 3
-0.134624 0.234777 0.706029 7763574 3
-0.124536 0.237646 0.714657 7434609 3
-0.111498 0.234899 0.706396 6777190 3
-0.290715 0.243322 0.858962 4606021 3
-0.288160 0.253481 0.894823 6119258 3
-0.289437 0.244435 0.815617 5329746 3
-0.276045 0.244435 0.815617 6053469 3
-0.260762 0.242675 0.809744 6447712 3
-0.227212 0.249636 0.832970 6447712 3
-0.213536 0.249636 0.832970 6316380 3
-0.349121 0.226328 0.798972 5657939 3
-0.360401 0.238231 0.794916 5987414 3
-0.346143 0.237404 0.792156 5592657 3
-0.332505 0.236954 0.790653 6579298 3
-0.318425 0.236139 0.787936 6052956 3
-0.333908 0.224675 0.710742 5592914 3
-0.358581 0.250014 0.790901 5987415 3
-0.345486 0.249935 0.790653 5987415 3
-0.330732 0.248603 0.786437 5723991 3
-0.314853 0.246282 0.779097 5526614 3
-0.305207 0.248848 0.787212 6250594 3
0.729408 0.210244 0.787856 3815232 3
0.736559 0.225367 0.795579 3552060 3
0.712595 0.210566 0.743330 3420984 3
0.741921 0.215541 0.760889 2829101 3
0.721549 0.233571 0.779367 3025714 3
0.702589 0.219643 0.732892 3487031 3
0.411741 0.213210 0.798972 6316130 3
0.424071 0.212814 0.797488 7039600 3
0.422104 0.205483 0.770014 6908013 3
0.433406 0.204849 0.767639 5394515 3
0.441566 0.202808 0.759991 5460310 3
0.489401 0.201950 0.756777 6184033 3
0.407582 0.224042 0.790901 8158334 3
0.419066 0.223242 0.788076 6579302 3
0.403526 0.208525 0.736124 6447714 3
0.413154 0.207291 0.731768 5789784 3
0.423809 0.206629 0.729428 5789275 3
0.433517 0.205553 0.725631 5986654 3
0.441341 0.203665 0.718968 5394517 3
0.459068 0.206327 0.728365 6710377 3
0.472540 0.206990 0.730705 7236721 3
0.485243 0.207291 0.731768 7170159 3
0.407442 0.216274 0.721652 7105642 3
0.416658 0.214917 0.717121 6710634 3
0.425392 0.213392 0.712032 5592153 3
0.448508 0.213265 0.711610 5328981 3
0.458369 0.212420 0.708791 6381669 3
0.472009 0.213325 0.711811 6973294 3
0.483696 0.213325 0.711811 4933711 3
0.464885 0.221617 0.701068 5592154 3
0.200697 0.211995 0.794417 8026233 3
0.211529 0.209801 0.786196 8552831 3
0.220294 0.205928 0.771683 8486786 3
0.282712 0.205250 0.769142 8552579 3
0.200824 0.225180 0.794916 7763061 3
0.210236 0.221348 0.781389 8223866 3
0.225968 0.224228 0.791555 8420993 3
0.241203 0.226328 0.798972 8026237 3
0.254321 0.226328 0.798972 8026235 3
0.251903 0.213180 0.752557 8289918 3
0.254144 0.205020 0.723750 7368816 3
0.266487 0.205374 0.725001 8486784 3
0.297682 0.219606 0.775240 7302510 3
0.212795 0.237028 0.790901 7763315 3
0.222707 0.233801 0.780134 8947337 3
0.234039 0.232334 0.775240 7631479 3
0.246767 0.232334 0.775240 7368305 3
0.249421 0.223314 0.745140 7566195 3
0.254144 0.216903 0.723750 7500402 3
0.265333 0.216337 0.721861 8092026 3
0.278388 0.217276 0.724993 9276300 3
0.290291 0.217276 0.724993 8223866 3
0.210998 0.247902 0.784222 8355198 3
0.246767 0.245063 0.775240 7499891 3
0.249211 0.235350 0.744514 8289918 3
0.249120 0.224264 0.709443 7566195 3
0.257690 0.221617 0.701068 7236717 3
0.004923 0.206877 0.775240 7171439 3
0.017474 0.204796 0.767440 7368818 3
0.029900 0.203606 0.762981 7368303 3
0.054876 0.203317 0.761900 9998224 3
0.068827 0.207666 0.778194 9143685 3
0.082678 0.210397 0.788430 8025206 3
0.096596 0.212537 0.796449 7170410 3
0.004684 0.208946 0.737608 7499891 3
0.016426 0.204367 0.721445 7894649 3
0.028150 0.203488 0.718341 7697268 3
0.039900 0.203259 0.717532 7170410 3
0.075594 0.204205 0.720873 8354684 3
0.088494 0.206692 0.729651 8749956 3
0.004671 0.220470 0.735649 8289407 3
0.016502 0.217213 0.724784 8420993 3
0.028264 0.216151 0.721240 8092026 3
0.039729 0.214118 0.714457 7697268 3
0.050481 0.210048 0.700874 8552061 3
0.074329 0.212428 0.708819 7368303 3
0.086875 0.214671 0.716301 7237230 3
0.098244 0.213817 0.713451 7237230 3
0.004660 0.232009 0.733945 8355200 3
0.016281 0.226040 0.715061 8158334 3
0.027873 0.224840 0.711266 7960955 3
-0.073125 0.211730 0.793423 6908778 3
-0.059907 0.211057 0.790901 7632501 3
-0.046907 0.210990 0.790653 7237741 3
-0.033765 0.209996 0.786927 7369329 3
-0.020702 0.208559 0.781543 7566708 3
-0.007843 0.207842 0.778856 6776681 3
-0.099021 0.224398 0.792156 6842985 3
-0.085879 0.224042 0.790901 7171950 3
-0.072641 0.223268 0.788169 6908778 3
-0.059606 0.222916 0.786927 6974571 3
-0.046496 0.222013 0.783737 7829878 3
-0.033243 0.219471 0.774765 6842985 3
-0.020198 0.216001 0.762516 7303023 3
-0.007618 0.214311 0.756547 7566197 3
-0.094566 0.226723 0.756514 6908778 3
-0.084121 0.232178 0.774718 6711399 3
-0.072187 0.234732 0.783238 6777192 3
-0.059533 0.235547 0.785958 6645606 3
-0.045766 0.231190 0.771421 6513505 3
-0.033069 0.230980 0.770719 6908265 3
-0.020069 0.227067 0.757662 8289918 3
-0.007606 0.226388 0.755399 8486786 3
-0.088978 0.225013 0.711811 7304050 3
-0.077291 0.225013 0.711811 6909292 3
-0.066017 0.226432 0.716301 6909292 3
-0.054411 0.227077 0.718341 7171950 3
-0.044475 0.236977 0.749659 7435120 3
-0.032648 0.240527 0.760888 6974569 3
-0.019877 0.237211 0.750400 8486784 3
-0.007513 0.235872 0.746165 9078407 3
-0.019137 0.240245 0.722473 7697781 3
-0.007358 0.242996 0.730744 8618370 3
0.543452 0.200286 0.799748 4209473 3
0.510950 0.205622 0.770536 6841194 3
0.537885 0.211231 0.791555 6709607 3
0.500483 0.208636 0.736514 5591641 3
0.542929 0.220991 0.780128 5460310 3
0.595127 0.207903 0.733926 4671565 3
0.442074 0.196090 0.782992 6512998 3
0.454930 0.196090 0.782992 5262931 3
0.467786 0.196090 0.782992 4868173 3
0.480642 0.196090 0.782992 5855068 3
0.496925 0.197452 0.788430 6710377 3
0.446077 0.199249 0.746654 5262931 3
0.457213 0.198761 0.744825 7039342 3
0.472247 0.199948 0.749275 5723482 3
0.353361 0.204260 0.815617 6908524 3
0.366753 0.204260 0.815617 7040112 3
0.380144 0.204260 0.815617 7500150 3
0.394746 0.204888 0.818124 6447716 3
0.351108 0.216264 0.810415 7040110 3
0.162651 0.200286 0.799748 6973547 3
0.148708 0.212258 0.795403 7696500 3
0.158451 0.207906 0.779097 7565682 3
0.174246 0.211553 0.792761 7960953 3
0.188670 0.213142 0.798718 7565682 3
0.100444 0.206629 0.729428 7828854 3
0.112981 0.207659 0.733067 8092539 3
0.128311 0.213130 0.752379 6513507 3
0.143082 0.216793 0.765310 7631988 3
0.156650 0.218189 0.770239 7303023 3
0.173106 0.223100 0.787574 7368816 3
0.187772 0.225180 0.794916 8289918 3
0.108049 0.210106 0.701068 8289918 3
0.121480 0.213480 0.712328 7763572 3
0.140637 0.225440 0.752234 8224123 3
0.160502 0.236512 0.789180 8093050 3
0.166279 0.239144 0.756514 8487808 3
0.004995 0.197014 0.786681 6974317 3
0.017647 0.194098 0.775037 6842474 3
0.030230 0.193192 0.771421 6907752 3
0.043245 0.194761 0.777687 7499375 3
0.041665 0.199948 0.749275 7762547 3
0.050495 0.198595 0.701068 8419962 3
-0.073498 0.199714 0.797464 6711399 3
-0.060211 0.199076 0.794916 6974571 3
-0.047145 0.199013 0.794665 6975339 3
-0.033925 0.198008 0.790653 7303536 3
-0.020851 0.197138 0.787175 7369329 3
-0.007961 0.198008 0.790653 7105646 3
-0.156160 0.224426 0.896137 5461078 3
-0.139307 0.221031 0.882583 6908524 3
-0.123513 0.218723 0.873366 6053469 3
-0.104418 0.209196 0.835327 6185055 3
-0.151765 0.232408 0.870913 6382180 3
-0.135411 0.228935 0.857897 7106157 3
-0.115950 0.218792 0.819887 6777192 3
-0.101042 0.215706 0.808324 6777192 3
-0.199859 0.249636 0.832970 6974058 3
-0.183310 0.245785 0.820121 7039853 3
-0.390191 0.223630 0.892960 4407620 3
-0.374185 0.222830 0.889764 4933964 3
-0.356799 0.221108 0.882891 5065802 3
-0.344004 0.222207 0.887279 5526353 3
-0.381741 0.224688 0.841984 5789273 3
-0.358974 0.219227 0.821519 5328722 3
-0.349149 0.221552 0.830230 5197134 3
-0.336625 0.222283 0.832970 5000009 3
-0.326252 0.224557 0.841493 6250333 3
-0.327116 0.235108 0.881030 6316126 3
-0.368117 0.230001 0.811935 6710627 3
-0.338385 0.227933 0.804634 6315615 3
-0.328550 0.230299 0.812989 5526099 3
-0.317192 0.231754 0.818124 5460817 3
-0.317722 0.242406 0.855729 6184540 3
-0.303671 0.242406 0.855729 5527123 3
-0.312458 0.241528 0.805915 5723991 3
-0.301853 0.243648 0.812989 6447714 3
0.776993 0.203623 0.870117 3355192 3
0.760063 0.213161 0.851156 3684669 3
0.728705 0.200677 0.801308 4078915 3
0.729806 0.235408 0.882153 3882048 3
0.760063 0.227136 0.851156 3816255 3
0.728705 0.213834 0.801308 3947329 3
0.757626 0.249514 0.880819 4079425 3
0.756587 0.214015 0.914525 3290679 3
0.771154 0.233440 0.932133 4211013 3
0.786459 0.233440 0.932133 4145220 3
0.706522 0.247549 0.927652 4079679 3
0.768169 0.242960 0.910456 3618876 3
0.795937 0.246937 0.925359 4211011 3
0.640324 0.201082 0.859259 5329233 3
0.661462 0.203242 0.868489 4934475 3
0.676891 0.203593 0.869991 4342338 3
0.685953 0.202055 0.863419 4210239 3
0.618170 0.212425 0.848219 4473926 3
0.634664 0.213288 0.851663 5066061 3
0.657814 0.216302 0.863699 4276545 3
0.670608 0.215856 0.861916 3947582 3
0.680326 0.214458 0.856336 4013632 3
0.687275 0.212261 0.847565 4211011 3
0.628198 0.235326 0.881846 4342340 3
0.669452 0.229611 0.860431 3618876 3
0.681567 0.228935 0.857897 3816255 3
0.664831 0.218792 0.819887 4342599 3
0.269723 0.179752 0.768114 6710375 3
0.286912 0.182667 0.780569 6841961 3
0.214518 0.199674 0.797304 7236717 3
0.222505 0.195197 0.779425 6973547 3
0.228327 0.189410 0.756320 7039340 3
0.239649 0.188548 0.752877 7039340 3
0.252087 0.188605 0.753104 6579302 3
0.265649 0.189459 0.756514 7171439 3
0.282802 0.192683 0.769388 6907754 3
0.296674 0.193491 0.772614 7302512 3
0.225409 0.199249 0.746654 7631479 3
0.236312 0.198112 0.742393 7631477 3
0.249610 0.198996 0.745707 8487299 3
0.260156 0.197705 0.740870 7237232 3
0.188023 0.200188 0.855438 7236971 3
0.100325 0.207161 0.827200 8748929 3
0.112869 0.205274 0.819662 8749442 3
0.125704 0.204260 0.815617 8025719 3
0.138109 0.202813 0.809836 7893879 3
0.150819 0.202026 0.806694 8288637 3
0.178980 0.203930 0.814296 6973545 3
0.194764 0.206489 0.824517 6776166 3
0.110800 0.214721 0.804634 7433582 3
0.125299 0.216951 0.812989 7301996 3
0.139095 0.217652 0.815617 7367535 3
0.178127 0.242876 0.810415 7961464 3
0.192538 0.244278 0.815091 7895158 3
0.836997 0.207778 0.954868 3289398 3
0.822581 0.200445 0.921167 3420985 3
0.809446 0.224511 0.959378 4276806 3
0.831459 0.226215 0.966657 3815996 3
0.826525 0.220660 0.942922 3355191 3
0.801764 0.233440 0.932133 3553081 3
0.804005 0.229708 0.917230 3947839 3
0.804005 0.244768 0.917230 3487288 3
0.604620 0.193611 0.889764 4868171 3
0.606280 0.185194 0.851078 5197649 3
0.627070 0.187229 0.860431 4868171 3
0.681538 0.194718 0.894848 3815483 3
0.696231 0.194718 0.894848 4144448 3
0.697707 0.187229 0.860431 3881789 3
0.606280 0.199167 0.851078 4802891 3
0.622584 0.199916 0.854276 5329233 3
0.692493 0.199851 0.854001 4539976 3
-0.008760 0.189309 0.869991 6710886 3
-0.050626 0.199700 0.853352 7040878 3
-0.034635 0.188901 0.807208 7172464 3
-0.021549 0.190379 0.813526 7369329 3
-0.008305 0.193006 0.824750 7435122 3
-0.191900 0.201631 0.926618 6579302 3
-0.179879 0.205275 0.943364 5789271 3
-0.164390 0.205275 0.943364 6842472 3
-0.151641 0.209053 0.960726 6447716 3
-0.138415 0.212973 0.978740 6776938 3
-0.191547 0.216446 0.924915 6710888 3
-0.176686 0.216845 0.926618 6776166 3
-0.161472 0.216845 0.926618 6908265 3
-0.148188 0.219707 0.938850 6447973 3
-0.137469 0.227478 0.972054 6251364 3
-0.188351 0.227767 0.909481 6645093 3
-0.174118 0.228686 0.913149 6447716 3
-0.179832 0.251676 0.943118 6579559 3
-0.207114 0.201631 0.926618 6513509 3
-0.294909 0.214309 0.915780 5198160 3
-0.279873 0.214309 0.915780 5790297 3
-0.266991 0.216052 0.923231 6185055 3
-0.272192 0.233519 0.997867 5329746 3
-0.221021 0.215569 0.921167 6316128 3
-0.205896 0.215569 0.921167 6118749 3
-0.282567 0.231552 0.924594 6119776 3
-0.267478 0.231633 0.924915 5198674 3
-0.217188 0.226694 0.905193 5987163 3
-0.202326 0.226694 0.905193 5987165 3
-0.288088 0.251555 0.942662 5725018 3
-0.270862 0.249941 0.936615 5725018 3
-0.205162 0.264362 0.990657 6513507 3
-0.285160 0.264318 0.933080 6448741 3
-0.275101 0.269472 0.951273 6053983 3
-0.269646 0.280027 0.988534 6710884 3
-0.221428 0.280628 0.990657 5723993 3
-0.395534 0.212973 0.978740 3223346 3
-0.359256 0.201631 0.926618 4012860 3
-0.344042 0.201631 0.926618 4671303 3
-0.328828 0.201631 0.926618 4539717 3
-0.385887 0.223456 0.954868 4144446 3
-0.362547 0.218831 0.935106 4801862 3
-0.342018 0.215569 0.921167 4539204 3
-0.326893 0.215569 0.921167 5460819 3
-0.310515 0.214703 0.917464 5461332 3
-0.334647 0.225722 0.901314 6381919 3
-0.326893 0.230694 0.921167 6382432 3
-0.312001 0.230866 0.921853 5263951 3
-0.300175 0.233440 0.932133 5659479 3
-0.320648 0.241122 0.903567 6316639 3
-0.307587 0.242522 0.908811 6316639 3
-0.300480 0.248998 0.933080 5790293 3
0.805450 0.175025 0.869991 2697774 3
0.834019 0.175025 0.869991 3092530 3
0.848304 0.189309 0.869991 3026480 3
0.862588 0.189309 0.869991 3157555 3
0.867236 0.187229 0.860431 2433832 3
0.801040 0.192250 0.821519 3092273 3
0.817189 0.192878 0.824202 3026480 3
0.836797 0.194289 0.830230 2631468 3
0.710923 0.180025 0.894848 4012346 3
0.709401 0.176002 0.874852 4013375 3
0.744563 0.181060 0.899991 3553081 3
0.784852 0.167577 0.832970 2829360 3
0.702890 0.192518 0.884737 4144446 3
0.744563 0.195837 0.899991 3750460 3
0.765644 0.183202 0.841927 3289401 3
0.771176 0.181253 0.832970 2763057 3
0.776591 0.179345 0.824202 2499883 3
0.798529 0.181253 0.832970 2894640 3
0.749195 0.192793 0.823839 3618366 3
0.744515 0.188191 0.804173 2038823 3
0.758153 0.188299 0.804634 3354681 3
0.779374 0.190254 0.812989 3223605 3
0.649013 0.196903 0.978740 5066322 3
0.665082 0.196903 0.978740 4802637 3
0.681152 0.196903 0.978740 4671051 3
0.697222 0.196903 0.978740 4473672 3
0.695895 0.192100 0.954868 4144448 3
0.505478 0.175025 0.869991 5461078 3
0.528572 0.177991 0.884737 5131602 3
0.549305 0.180025 0.894848 4802637 3
0.563998 0.180025 0.894848 5131856 3
0.578690 0.180025 0.894848 5197649 3
0.505715 0.184192 0.846478 5855068 3
0.534047 0.189309 0.869991 4933966 3
0.568937 0.191436 0.879766 5855066 3
0.583382 0.191436 0.879766 4473413 3
0.595543 0.186206 0.855729 4539719 3
0.500669 0.190869 0.815617 6446435 3
0.514061 0.190869 0.815617 4604229 3
0.531269 0.192250 0.821519 4933194 3
0.548525 0.193580 0.827200 6183261 3
0.565665 0.194805 0.832437 4868171 3
0.591306 0.198831 0.849641 5197136 3
0.438933 0.176991 0.879766 5592407 3
0.453378 0.176991 0.879766 5263442 3
0.465209 0.176002 0.874852 5592667 3
0.482268 0.176991 0.879766 5000276 3
0.496713 0.176991 0.879766 4737358 3
0.404693 0.195837 0.899991 5395285 3
0.410043 0.191436 0.879766 5789784 3
0.419772 0.189309 0.869991 6250335 3
0.422325 0.184192 0.846478 5000270 3
0.436223 0.184192 0.846478 4802891 3
0.445307 0.182223 0.837425 5000017 3
0.454199 0.180294 0.828563 5263191 3
0.472807 0.182223 0.837425 6184291 3
0.489172 0.183202 0.841927 6250337 3
0.424620 0.199167 0.851078 5329235 3
0.438594 0.199167 0.851078 6316130 3
0.450291 0.198165 0.846796 5263189 3
0.446151 0.190463 0.813882 7763325 3
0.455747 0.188901 0.807208 5197396 3
0.469306 0.189024 0.807734 5131856 3
0.487277 0.190869 0.815617 5855068 3
0.194462 0.177991 0.884737 5789784 3
0.104932 0.188263 0.865185 6051675 3
0.134084 0.189309 0.869991 7170924 3
0.147548 0.188263 0.865185 6907752 3
0.158257 0.184192 0.846478 6512996 3
0.172155 0.184192 0.846478 6512996 3
0.186053 0.184192 0.846478 7170924 3
0.102663 0.198091 0.846478 7959672 3
0.143054 0.196301 0.838832 6841959 3
0.155991 0.195256 0.834362 7368305 3
0.171414 0.197238 0.842835 7697270 3
-0.093719 0.204574 1.016873 5526614 3
-0.077023 0.204574 1.016873 5131854 3
-0.059938 0.203254 1.010312 5724504 3
-0.043072 0.201951 1.003836 6842985 3
-0.010239 0.204574 1.016873 5723991 3
-0.093115 0.219843 1.010312 6514020 3
-0.076526 0.219843 1.010312 6514020 3
-0.059938 0.219843 1.010312 6580327 3
-0.126291 0.203254 1.010312 5263440 3
-0.109703 0.203254 1.010312 6118751 3
-0.127111 0.221270 1.016873 6645606 3
-0.110415 0.221270 1.016873 5921883 3
-0.126106 0.236084 1.008828 6777192 3
-0.109917 0.236891 1.012279 6250846 3
-0.297941 0.207266 1.030253 4539976 3
-0.277376 0.204574 1.016873 4408392 3
-0.257338 0.201951 1.003836 3881789 3
-0.240856 0.201951 1.003836 5131856 3
-0.294072 0.221270 1.016873 5921883 3
-0.277376 0.221270 1.016873 5066320 3
-0.260680 0.221270 1.016873 6052956 3
-0.243984 0.221270 1.016873 6710886 3
-0.262362 0.239502 1.023435 6579298 3
-0.274768 0.252268 1.007311 5527123 3
-0.265408 0.259281 1.035315 7105896 3
-0.276265 0.270271 1.012799 6382432 3
-0.267945 0.278922 1.045215 6119001 3
-0.253875 0.282359 1.058097 6250335 3
-0.230167 0.274796 1.029756 6776681 3
-0.257338 0.284361 1.003836 7105896 3
-0.243006 0.286900 1.012799 6645093 3
0.504963 0.170195 0.921167 4737358 3
0.572239 0.181970 0.984896 4605769 3
0.573971 0.177504 0.960726 4211013 3
0.592227 0.169200 0.915780 3355702 3
0.573835 0.198114 0.910456 5131343 3
0.489004 0.200925 1.087489 4934734 3
0.429435 0.207266 1.030253 5855579 3
0.452302 0.210029 1.043989 5329492 3
0.475787 0.212868 1.058097 5461078 3
0.493160 0.212868 1.058097 5329233 3
0.034476 0.162546 0.879766 5197136 3
0.048921 0.162546 0.879766 5131341 3
0.064452 0.165333 0.894848 4934477 3
0.005650 0.179002 0.889764 5263440 3
0.020144 0.177991 0.884737 6184544 3
0.034476 0.176991 0.879766 6973547 3
0.048921 0.176991 0.879766 7236717 3
0.063012 0.176002 0.874852 7631475 3
0.079145 0.180025 0.894848 7039340 3
0.093837 0.180025 0.894848 6973547 3
0.005524 0.189309 0.869991 6974058 3
0.019591 0.187229 0.860431 7697783 3
0.033905 0.188263 0.865185 6907754 3
0.048110 0.188263 0.865185 7499889 3
0.061973 0.187229 0.860431 7630961 3
0.076521 0.188263 0.865185 7433582 3
0.090727 0.188263 0.865185 7762293 3
0.005284 0.194738 0.832153 7237230 3
0.018680 0.191995 0.820429 7434611 3
0.032633 0.194872 0.832725 6841961 3
0.047326 0.199167 0.851078 6907752 3
0.061300 0.199167 0.851078 6972516 3
0.075273 0.199167 0.851078 9011331 3
0.089217 0.199100 0.850791 7959413 3
-0.188987 0.183122 0.991129 4737098 3
-0.172714 0.183122 0.991129 5789271 3
-0.156440 0.183122 0.991129 6644580 3
-0.186625 0.196903 0.978740 5723480 3
-0.170555 0.196903 0.978740 5921370 3
-0.154485 0.196903 0.978740 6052958 3
-0.140167 0.199395 0.991129 5592407 3
-0.293195 0.168216 0.910456 3421236 3
-0.278246 0.168216 0.910456 3684921 3
-0.293195 0.183165 0.910456 4211265 3
-0.278246 0.183165 0.910456 4671816 3
-0.221534 0.199395 0.991129 5131856 3
-0.205260 0.199395 0.991129 5000016 3
-0.294909 0.199273 0.915780 4606023 3
-0.279873 0.199273 0.915780 4934988 3
-0.350259 0.174297 0.943364 2960687 3
-0.334770 0.174297 0.943364 2960687 3
-0.311769 0.170195 0.921167 4408133 3
-0.384267 0.199395 0.991129 2960687 3
-0.346090 0.187526 0.932133 4079168 3
-0.330785 0.187526 0.932133 4473926 3
-0.309945 0.184236 0.915780 5066063 3
-0.309945 0.199273 0.915780 5658711 3
-0.554314 0.203755 1.102806 2762027 3
-0.536207 0.203755 1.102806 3025199 3
-0.525501 0.206666 1.118560 3223859 3
-0.522051 0.212744 1.151459 3092784 3
-0.554314 0.221862 1.102806 3222576 3
0.106541 0.202785 1.204603 4802637 3
0.126319 0.202785 1.204603 4802637 3
0.146098 0.202785 1.204603 5065552 3
0.165876 0.202785 1.204603 5197649 3
0.188555 0.205953 1.223425 4737096 3
0.146098 0.222563 1.204603 6052447 3
0.165876 0.222563 1.204603 6316128 3
0.188555 0.226041 1.223425 5987163 3
0.185654 0.242342 1.204603 6908265 3
-0.193896 0.171182 1.016873 4605258 3
-0.181925 0.175747 1.043989 3421238 3
-0.164784 0.175747 1.043989 4671303 3
-0.141964 0.185469 1.003836 4736585 3
-0.128784 0.190350 1.030253 4473924 3
-0.114892 0.195495 1.058097 4671305 3
-0.274964 0.180562 1.072592 4276293 3
-0.243984 0.171182 1.016873 4408133 3
-0.227288 0.171182 1.016873 4013121 3
-0.210592 0.171182 1.016873 4605258 3
-0.281026 0.190350 1.030253 4539978 3
-0.260680 0.187878 1.016873 4078914 3
-0.240856 0.185469 1.003836 4868684 3
-0.224374 0.185469 1.003836 4605258 3
-0.207892 0.185469 1.003836 5131602 3
-0.577905 0.171182 1.016873 1710618 3
-0.561209 0.171182 1.016873 2631720 3
-0.544513 0.171182 1.016873 2368550 3
-0.594601 0.187878 1.016873 2039585 3
-0.577905 0.187878 1.016873 2236964 3
-0.561209 0.187878 1.016873 2171171 3
-0.544513 0.187878 1.016873 2631720 3
-0.556738 0.198173 1.072592 2762025 3
0.662955 0.164075 1.079989 3750462 3
0.680687 0.164075 1.079989 3158066 3
0.631848 0.183070 1.087489 3948611 3
0.627901 0.176926 1.050996 3685439 3
0.636612 0.174583 1.037076 3224118 3
0.653640 0.174583 1.037076 3618874 3
0.616208 0.185469 1.003836 4474185 3
0.632690 0.185469 1.003836 3816253 3
0.692280 0.192888 1.043989 3553081 3
-0.106123 0.174933 1.151459 3618617 3
-0.158188 0.188300 1.118560 4408131 3
-0.143935 0.193839 1.151459 4342851 3
-0.121457 0.188300 1.118560 5000781 3
-0.104585 0.191029 1.134771 4342338 3
-0.675204 0.185866 1.223425 2105376 3
-0.655117 0.185866 1.223425 2236964 3
-0.635029 0.185866 1.223425 2564646 3
-0.624703 0.188816 1.242845 3222578 3
-0.604297 0.188816 1.242845 2697004 3
-0.636079 0.160749 1.058097 2171430 3
-0.627182 0.162951 1.072592 2434343 3
-0.662403 0.180562 1.072592 3223605 3
-0.627598 0.175747 1.043989 2434343 3
-0.610457 0.175747 1.043989 2368548 3
-0.627598 0.192888 1.043989 2828847 3
0.674923 0.161982 1.195408 3026227 3
0.630852 0.180234 1.186352 3749949 3
0.645441 0.178879 1.177432 3947328 3
0.654925 0.176228 1.159988 3026739 3
0.679000 0.177544 1.168645 2763568 3
0.668266 0.169935 1.118560 3685439 3
0.611373 0.199712 1.186352 5000270 3
0.621436 0.196732 1.168645 4868941 3
0.631203 0.193839 1.151459 4539976 3
0.622640 0.185648 1.102806 4934736 3
0.513980 0.160755 1.186352 3486778 3
0.525496 0.158356 1.168645 3420472 3
0.540650 0.157183 1.159988 3749952 3
0.568112 0.159546 1.177432 4078914 3
0.517769 0.174933 1.151459 5000016 3
0.536674 0.174933 1.151459 4407879 3
0.563872 0.177544 1.168645 3289650 3
0.596413 0.181610 1.195408 4144957 3
0.506594 0.189655 1.126607 5460567 3
0.528896 0.191029 1.134771 5066063 3
0.555580 0.193839 1.151459 5263438 3
0.591895 0.199712 1.186352 4868682 3
0.455544 0.160755 1.186352 3289658 3
0.461051 0.174933 1.151459 4342600 3
0.483512 0.176228 1.159988 4342599 3
0.498863 0.174933 1.151459 4473672 3
0.451100 0.189655 1.126607 4935506 3
0.476454 0.192424 1.143054 4737357 3
0.491633 0.191029 1.134771 4868943 3
0.342622 0.126307 0.932133 4013634 3
0.312013 0.141612 0.932133 3749942 3
0.327318 0.141612 0.932133 4144959 3
0.346750 0.143318 0.943364 3947841 3
0.327318 0.156917 0.932133 5395028 3
0.346750 0.158807 0.943364 4474953 3
0.308342 0.185320 0.921167 6710375 3
0.305497 0.117887 0.869991 3881789 3
0.310674 0.163465 0.884737 4868684 3
0.323374 0.162546 0.879766 5724250 3
0.302139 0.173101 0.860431 6316130 3
0.316267 0.173101 0.860431 6710888 3
0.337819 0.176991 0.879766 6184801 3
0.360362 0.181060 0.899991 6512996 3
0.302950 0.179345 0.824202 6973547 3
0.323289 0.183202 0.841927 6315617 3
0.337113 0.183202 0.841927 6052443 3
0.362634 0.189309 0.869991 6316128 3
0.389916 0.195837 0.899991 5987422 3
0.337436 0.189446 0.809538 6184540 3
0.367486 0.198498 0.848219 6711399 3
0.382699 0.199167 0.851078 5592664 3
0.385309 0.193462 0.826699 5000270 3
0.394605 0.191387 0.817833 5855577 3
0.358540 0.221038 1.631234 4144707 3
0.385323 0.221038 1.631234 3223605 3
0.358540 0.247821 1.631234 4407879 3
0.385323 0.247821 1.631234 3684410 3
0.358540 0.274605 1.631234 5329235 3
0.393522 0.280447 1.665941 4934477 3
0.312242 0.208036 1.535279 5196883 3
0.312242 0.233244 1.535279 4276036 3
0.312242 0.258451 1.535279 5262931 3
0.337449 0.283659 1.535279 6645095 3
0.369910 0.289332 1.565984 6513507 3
0.150736 0.168410 1.242845 4210754 3
0.171142 0.168410 1.242845 3420472 3
0.197829 0.173932 1.283594 3618106 3
0.108206 0.185866 1.223425 4211011 3
0.128293 0.185866 1.223425 4342340 3
0.148380 0.185866 1.223425 4210754 3
0.168468 0.185866 1.223425 5065809 3
0.188555 0.185866 1.223425 4868684 3
-0.089861 0.160755 1.186352 3815996 3
-0.087218 0.174933 1.151459 5197649 3
-0.069331 0.177544 1.168645 4868943 3
-0.085954 0.191029 1.134771 5395028 3
-0.068312 0.193839 1.151459 5658459 3
-0.050143 0.196732 1.168645 5461078 3
-0.199335 0.171126 1.262890 3816253 3
-0.112756 0.165779 1.223425 3881789 3
-0.193106 0.185866 1.223425 5197647 3
-0.173018 0.185866 1.223425 4408133 3
-0.152931 0.185866 1.223425 4079679 3
-0.132844 0.185866 1.223425 4539976 3
-0.593296 0.216527 1.597943 2500136 3
-0.540823 0.242764 1.597943 3223344 3
-0.504295 0.237908 1.565984 2368037 3
-0.583791 0.253481 1.505754 3420725 3
-0.570030 0.258451 1.535279 3684410 3
-0.555718 0.263620 1.565984 2829101 3
-0.519614 0.258451 1.535279 3421238 3
-0.696069 0.208036 1.535279 2631468 3
-0.670861 0.208036 1.535279 2697262 3
-0.658566 0.212197 1.565984 2828850 3
-0.632854 0.212197 1.565984 2499883 3
-0.619533 0.216527 1.597943 2895153 3
-0.657960 0.228758 1.505754 2697261 3
-0.658566 0.237908 1.565984 2697262 3
-0.632854 0.237908 1.565984 2960176 3
-0.619533 0.242764 1.597943 2171171 3
-0.698461 0.111682 0.824202 2235434 3
-0.692215 0.112871 0.832970 1972260 3
-0.671396 0.111682 0.824202 1446684 3
-0.657863 0.111682 0.824202 1447195 3
-0.644331 0.111682 0.824202 1644574 3
-0.630798 0.111682 0.824202 2236710 3
-0.610836 0.110519 0.815617 1973279 3
-0.603733 0.111682 0.824202 1841693 3
-0.602893 0.114084 0.841927 1381401 3
-0.699658 0.127908 0.841927 2367534 3
-0.678538 0.126547 0.832970 1710115 3
-0.664862 0.126547 0.832970 2302763 3
-0.644331 0.125215 0.824202 2039845 3
-0.630798 0.125215 0.824202 2500396 3
-0.617265 0.125215 0.824202 2368297 3
-0.603733 0.125215 0.824202 2105124 3
-0.602893 0.127908 0.841927 2302504 3
-0.693289 0.143272 0.851078 1249818 3
-0.651185 0.140224 0.832970 2303017 3
-0.630798 0.138748 0.824202 1315868 3
-0.617265 0.138748 0.824202 1710369 3
-0.610156 0.140224 0.832970 2105125 3
-0.691185 0.150694 0.815617 2170666 3
-0.623832 0.153900 0.832970 1644833 3
-0.610156 0.153900 0.832970 2566189 3
-0.637509 0.167577 0.832970 2302506 3
-0.617265 0.165813 0.824202 2236711 3
-0.717969 0.110519 0.815617 1116951 3
-0.704577 0.110519 0.815617 1971749 3
-0.717969 0.123911 0.815617 2170409 3
-0.704577 0.123911 0.815617 1709604 3
-0.705891 0.126547 0.832970 2432558 3
-0.704577 0.137302 0.815617 1907748 3
-0.713482 0.141731 0.841927 1578018 3
-0.707263 0.143272 0.851078 854295 3
-0.707263 0.157246 0.851078 1117978 3
0.276928 0.103603 0.869991 4408131 3
0.284881 0.101350 0.851078 3881789 3
0.294484 0.119212 0.879766 3750201 3
0.255455 0.150640 0.894848 5592407 3
0.268613 0.149784 0.889764 4934477 3
0.283222 0.149784 0.889764 5920857 3
0.299532 0.150640 0.894848 5986652 3
0.226070 0.165333 0.894848 6316130 3
0.240762 0.165333 0.894848 5855068 3
0.256923 0.166283 0.899991 6052443 3
0.271700 0.166283 0.899991 5789784 3
0.284840 0.165333 0.894848 5855579 3
0.299532 0.165333 0.894848 5855066 3
0.210176 0.179002 0.889764 6776679 3
0.226070 0.180025 0.894848 6513509 3
0.240762 0.180025 0.894848 5855068 3
0.255455 0.180025 0.894848 6052443 3
0.270147 0.180025 0.894848 6316128 3
0.284840 0.180025 0.894848 6250337 3
0.202137 0.186206 0.855729 7039592 3
0.216187 0.186206 0.855729 6578789 3
0.230237 0.186206 0.855729 6710377 3
0.244287 0.186206 0.855729 6512994 3
0.256934 0.185194 0.851078 5723991 3
0.270908 0.185194 0.851078 7171439 3
0.284881 0.185194 0.851078 6250337 3
0.289418 0.179345 0.824202 6381923 3
0.201038 0.199167 0.851078 8158073 3
0.214939 0.199100 0.850791 7631475 3
0.226682 0.197163 0.842514 7170928 3
0.236611 0.193963 0.828839 6841959 3
0.253326 0.196371 0.839128 6842472 3
0.266035 0.195585 0.835769 7171439 3
0.275619 0.192692 0.823407 6974060 3
0.278093 0.109697 0.921167 4080195 3
0.266099 0.126307 0.932133 3684667 3
0.278093 0.124822 0.921167 3618874 3
0.293218 0.124822 0.921167 3552822 3
0.258408 0.137519 0.905193 3881789 3
0.273271 0.137519 0.905193 4803148 3
0.293218 0.139946 0.921167 3815994 3
0.244962 0.153268 0.910456 5394515 3
0.650817 0.129655 1.262890 3026226 3
0.671552 0.129655 1.262890 3026227 3
0.670654 0.125604 1.223425 3026226 3
0.625041 0.149188 1.252787 3618613 3
0.650817 0.150391 1.262890 3420984 3
0.671552 0.150391 1.262890 4078402 3
0.670654 0.145691 1.223425 3223606 3
0.620080 0.168410 1.242845 3618613 3
0.650817 0.171126 1.262890 5000016 3
0.671552 0.171126 1.262890 4407879 3
0.660336 0.163228 1.204603 3092019 3
0.625591 0.184425 1.213941 3881789 3
0.556109 0.131781 1.283594 3618106 3
0.572492 0.130710 1.273158 3354934 3
0.505669 0.150391 1.262890 3618364 3
0.526404 0.150391 1.262890 3552571 3
0.542763 0.149188 1.252787 3618364 3
0.558861 0.148004 1.242845 3946816 3
0.570217 0.145691 1.223425 3289401 3
0.590304 0.145691 1.223425 3750203 3
0.502109 0.163228 1.204603 3749950 3
-0.043209 0.167472 1.631234 3552824 3
-0.016425 0.167472 1.631234 3026737 3
-0.098834 0.198388 1.665941 3751232 3
-0.069992 0.194255 1.631234 3553598 3
-0.043209 0.194255 1.631234 3816255 3
-0.016425 0.194255 1.631234 3158325 3
0.531381 0.114458 1.327105 2763055 3
0.543951 0.112551 1.304987 2499882 3
0.574960 0.114458 1.327105 2828847 3
0.509591 0.136248 1.327105 4013124 3
0.531381 0.136248 1.327105 3026227 3
0.543951 0.133977 1.304987 2565675 3
0.237790 0.071841 0.832970 3289652 3
0.254171 0.072613 0.841927 3223859 3
0.281818 0.072613 0.841927 3486520 3
0.289418 0.071085 0.824202 2894894 3
0.299795 0.070344 0.815617 2368809 3
0.280039 0.090322 0.879766 3289909 3
0.281818 0.086437 0.841927 3815485 3
0.289418 0.084617 0.824202 3158323 3
0.292497 0.099194 0.832970 3684410 3
0.304974 0.140688 1.631234 2894383 3
0.331757 0.140688 1.631234 2301991 3
0.358540 0.140688 1.631234 2697262 3
0.385323 0.140688 1.631234 2368296 3
0.331757 0.167472 1.631234 3420472 3
0.358540 0.167472 1.631234 2828848 3
0.385323 0.167472 1.631234 3092019 3
0.331757 0.194255 1.631234 3486265 3
0.358540 0.194255 1.631234 3157813 3
0.385323 0.194255 1.631234 3815742 3
-0.282277 0.108920 1.262890 2039331 3
-0.277796 0.127597 1.242845 2368550 3
-0.253368 0.125604 1.223425 2763306 3
-0.273456 0.145691 1.223425 3223605 3
-0.249470 0.143450 1.204603 2895151 3
-0.233281 0.145691 1.223425 2829361 3
-0.298202 0.168410 1.242845 2631209 3
-0.273456 0.165779 1.223425 2697261 3
-0.249470 0.163228 1.204603 2763567 3
-0.229692 0.163228 1.204603 2895154 3
-0.213193 0.165779 1.223425 4013634 3
-0.209913 0.183007 1.204603 3684410 3
-0.591190 0.143682 1.665941 2697261 3
-0.578873 0.167472 1.631234 2171171 3
-0.563837 0.171035 1.665941 2236451 3
-0.578873 0.194255 1.631234 2104865 3
-0.552090 0.194255 1.631234 2828072 3
-0.525307 0.194255 1.631234 2170658 3
-0.696069 0.132413 1.535279 1578270 3
-0.670861 0.132413 1.535279 2039334 3
-0.645653 0.132413 1.535279 1841953 3
-0.632854 0.135061 1.565984 1841440 3
-0.607142 0.135061 1.565984 1776159 3
-0.696069 0.157620 1.535279 1973026 3
-0.670861 0.157620 1.535279 2105125 3
-0.645653 0.157620 1.535279 2565676 3
-0.620445 0.157620 1.535279 2105125 3
-0.696069 0.182828 1.535279 1710366 3
-0.670861 0.182828 1.535279 2302504 3
-0.645653 0.182828 1.535279 1776162 3
-0.620445 0.182828 1.535279 2499883 3
-0.607142 0.186485 1.565984 1776673 3
-0.776953 0.137817 1.597943 2368550 3
-0.750716 0.137817 1.597943 2301477 3
-0.796900 0.157620 1.535279 1775902 3
-0.771692 0.157620 1.535279 2105378 3
-0.746484 0.157620 1.535279 1973792 3
-0.721276 0.157620 1.535279 1906719 3
-0.732129 0.179312 1.505754 2170658 3
-0.707406 0.179312 1.505754 1644061 3
-0.698461 0.098150 0.824202 1116436 3
-0.684928 0.098150 0.824202 2432809 3
-0.664402 0.097127 0.815617 1709854 3
-0.651010 0.097127 0.815617 1907745 3
-0.637619 0.097127 0.815617 1512990 3
-0.624227 0.097127 0.815617 1578780 3
-0.610836 0.097127 0.815617 2039070 3
-0.603733 0.098150 0.824202 1775898 3
-0.717969 0.097127 0.815617 1840161 3
-0.704577 0.097127 0.815617 1510426 3
1.162037 0.113905 1.631234 2960434 3
1.188821 0.113905 1.631234 2367784 3
1.135254 0.140688 1.631234 2302506 3
1.162037 0.140688 1.631234 2697262 3
1.135254 0.167472 1.631234 2631469 3
1.162037 0.167472 1.631234 2565676 3
1.135254 0.194255 1.631234 2697264 3
0.223473 0.101249 1.449985 2368810 3
0.227689 0.127416 1.477344 3355705 3
0.247280 0.125056 1.449985 2631982 3
0.227689 0.151672 1.477344 3224119 3
0.251946 0.151672 1.477344 3618876 3
0.223473 0.172671 1.449985 3881023 3
0.247280 0.172671 1.449985 3420725 3
0.193803 0.111581 1.597943 2566188 3
0.193803 0.137817 1.597943 2895153 3
0.167566 0.164054 1.597943 2829612 3
0.193803 0.164054 1.597943 2303016 3
0.138503 0.186485 1.565984 3026991 3
0.157899 0.179312 1.505754 3487542 3
-0.686006 0.113905 1.631234 1644061 3
-0.605657 0.140688 1.631234 1776159 3
0.300659 0.208946 0.782992 7960442 3
0.315692 0.210397 0.788430 7960440 3
0.331980 0.212537 0.796449 6974058 3
0.359112 0.213118 0.798625 6974319 3
0.368625 0.211057 0.790901 6973807 3
0.381611 0.211057 0.790901 6447462 3
0.397365 0.212537 0.796449 6579302 3
0.310411 0.219606 0.775240 7763315 3
0.323139 0.219606 0.775240 6974058 3
0.340533 0.222656 0.786007 7237489 3
0.355639 0.224042 0.790901 7105905 3
0.366091 0.222502 0.785464 7039599 3
0.377795 0.221802 0.782992 8881803 3
0.393363 0.223342 0.788430 6447462 3
0.302195 0.217276 0.724993 7171437 3
0.312118 0.215905 0.720420 7632247 3
0.325068 0.216653 0.722914 7500663 3
0.337906 0.217276 0.724993 7631736 3
0.352057 0.218672 0.729651 7236979 3
0.377398 0.226697 0.756430 7039600 3
0.376862 0.219163 0.731289 6250337 3
0.378619 0.213386 0.712014 6842985 3
0.393330 0.215037 0.717523 6974569 3
-0.486294 0.215784 1.072592 2434343 3
-0.416351 0.207266 1.030253 3947071 3
-0.490468 0.227171 1.043989 3289652 3
-0.473327 0.227171 1.043989 4473926 3
-0.456185 0.227171 1.043989 3749949 3
-0.427640 0.221270 1.016873 4539208 3