# .PCD v0.7 - Point Cloud Data file format
VERSION 0.7
FIELDS x y z rgb label
SIZE 4 4 4 4 4
TYPE F F F U U
COUNT 1 1 1 1 1
WIDTH 1803
HEIGHT 1
VIEWPOINT 0 0 0 1 0 0 0
POINTS 1803
DATA ascii
0.100757 0.264369 0.590814 6909292 3
0.110066 0.263430 0.588716 7633528 3
0.119760 0.263492 0.588855 7238511 3
0.108435 0.269050 0.579994 7633017 3
0.117659 0.268367 0.578523 8093820 3
0.052780 0.267027 0.596754 7369329 3
0.081316 0.264239 0.590524 7895160 3
0.091768 0.266435 0.595431 7106925 3
0.023512 0.278328 0.599994 8355713 3
0.052377 0.274713 0.592203 7829367 3
0.061547 0.272266 0.586927 6908265 3
0.070605 0.270050 0.582150 7434611 3
0.080388 0.270806 0.583780 7631988 3
0.090394 0.272073 0.586511 7369329 3
0.099489 0.270620 0.583378 7435636 3
0.023512 0.288179 0.599994 10197404 3
0.477840 0.248967 0.577589 7565431 3
0.482542 0.246525 0.571922 7696503 3
0.486819 0.243962 0.565977 6117471 3
0.403567 0.265746 0.593892 6578536 3
0.464455 0.251212 0.561411 5262678 3
0.468343 0.262609 0.566110 8289156 3
0.307728 0.257393 0.597137 7631224 3
0.301195 0.261525 0.584459 6644329 3
0.312762 0.263183 0.588166 7959421 3
0.323862 0.264362 0.590799 8222593 3
0.333198 0.264073 0.590153 7631228 3
0.387929 0.268420 0.599867 6445669 3
0.394279 0.266059 0.594591 5789020 3
0.309999 0.270430 0.582970 7236466 3
0.320312 0.271058 0.584322 7433847 3
0.330061 0.271185 0.584597 9012879 3
0.342215 0.273225 0.588995 8486537 3
0.354468 0.275230 0.593317 7433081 3
0.365507 0.276211 0.595431 6840942 3
0.375284 0.276211 0.595431 7038321 3
0.384969 0.276146 0.595290 6774634 3
0.210587 0.238809 0.599709 7107954 3
0.218914 0.237162 0.595573 6646631 3
0.229511 0.238010 0.597704 7041389 3
0.238699 0.237388 0.596141 7305333 3
0.248491 0.237393 0.596152 7633017 3
0.234516 0.242845 0.585695 7436151 3
0.244187 0.242900 0.585827 7304052 3
0.256088 0.245083 0.591093 7500663 3
0.268129 0.247237 0.596289 7895421 3
0.277851 0.247176 0.596141 8421252 3
0.287503 0.247060 0.595861 8946569 3
0.217478 0.244131 0.566369 7633019 3
0.229419 0.246975 0.572966 6580331 3
0.239704 0.247882 0.575070 7238261 3
0.249431 0.248166 0.575729 7501431 3
0.264278 0.253336 0.587724 7764603 3
0.275039 0.254364 0.590110 8224386 3
0.284123 0.253823 0.588855 8881544 3
0.296372 0.256053 0.594027 8157051 3
0.245206 0.253255 0.565977 6908014 3
0.260514 0.259240 0.579353 6842733 3
0.269390 0.258629 0.577988 7105905 3
0.279848 0.259527 0.579994 7171185 3
0.290855 0.260859 0.582970 9210511 3
0.274760 0.264158 0.569449 6447463 3
0.285672 0.265611 0.572581 5854813 3
0.297860 0.268119 0.577988 7236466 3
-0.124257 0.238922 0.599994 6513505 3
-0.114106 0.238295 0.598420 6052958 3
-0.104156 0.238010 0.597704 7369329 3
-0.121922 0.244097 0.588716 6513507 3
-0.112573 0.244789 0.590383 6710375 3
-0.103391 0.246005 0.593317 7631988 3
-0.151571 0.254857 0.591254 7171437 3
-0.139161 0.250004 0.579994 6908265 3
-0.129608 0.249946 0.579860 7631990 3
-0.119672 0.249082 0.577854 8092541 3
-0.110491 0.249774 0.579460 8684165 3
-0.101493 0.251051 0.582423 7960953 3
-0.197534 0.261160 0.583644 8420742 3
-0.188879 0.262450 0.586527 8486537 3
-0.182665 0.267451 0.597704 7960702 3
-0.166787 0.258067 0.576732 5986654 3
-0.153449 0.251722 0.562551 6973549 3
-0.143888 0.251155 0.561285 6776170 3
-0.136019 0.253667 0.566898 7697272 3
-0.127922 0.256092 0.572317 6512994 3
-0.118795 0.256675 0.573621 8552579 3
-0.109654 0.257324 0.575070 8486270 3
-0.100396 0.257798 0.576131 8157051 3
-0.183418 0.264213 0.569568 10460838 3
0.003950 0.227284 0.622067 9211529 3
0.072007 0.250889 0.686673 7961466 3
0.082938 0.249853 0.683836 6447714 3
0.091933 0.243928 0.667621 8158073 3
0.099561 0.236026 0.645993 6579811 3
0.003927 0.236141 0.618513 7896439 3
0.014213 0.238317 0.624211 7699060 3
0.026706 0.260187 0.681495 8356990 3
0.059176 0.255443 0.669069 7238511 3
0.069879 0.254415 0.666376 7633269 3
0.080735 0.254149 0.665679 7172464 3
0.089159 0.247200 0.647480 7303021 3
0.098210 0.243287 0.637230 6908778 3
0.003932 0.246600 0.619274 8751748 3
0.014205 0.248441 0.623898 7633780 3
0.024449 0.248441 0.623898 7370095 3
0.034788 0.249124 0.625614 7699060 3
0.045139 0.249561 0.626709 7041132 3
0.055891 0.251639 0.631928 7501683 3
0.067078 0.254723 0.639672 7435890 3
0.078442 0.257549 0.646769 6974571 3
0.087883 0.254140 0.638210 7500400 3
0.097837 0.252785 0.634807 6514020 3
0.003947 0.257723 0.621577 8093818 3
0.014205 0.258685 0.623898 8094077 3
0.024449 0.258685 0.623898 7764855 3
0.034684 0.258621 0.623743 8093820 3
0.044758 0.257658 0.621422 7764855 3
0.054989 0.257787 0.621733 7369327 3
0.065753 0.259984 0.627030 6974571 3
0.077206 0.263943 0.636579 7697781 3
0.087414 0.263208 0.634807 6645091 3
0.097173 0.261422 0.630501 7304050 3
0.003871 0.262779 0.609631 8225406 3
0.013983 0.264710 0.614111 8094077 3
0.024072 0.264775 0.614263 7633269 3
0.034292 0.265818 0.616682 8159613 3
0.044582 0.266803 0.618966 7567222 3
0.054159 0.263948 0.612343 6908778 3
0.064025 0.263178 0.610556 6776679 3
0.076276 0.271089 0.628909 6447203 3
0.086106 0.269537 0.625309 8026746 3
0.094908 0.265439 0.615803 7961980 3
0.003855 0.271664 0.607118 7763833 3
0.013867 0.272523 0.609038 8158591 3
0.023694 0.270549 0.604627 7895419 3
0.033638 0.270681 0.604921 7895673 3
0.043866 0.272523 0.609038 7369329 3
0.003812 0.278462 0.600284 8026237 3
0.013760 0.280342 0.604338 8816264 3
0.033372 0.278394 0.600138 7105903 3
0.043350 0.279199 0.601872 7632499 3
0.003816 0.288667 0.601010 11051432 3
0.013760 0.290265 0.604338 10262429 3
0.033372 0.288248 0.600138 8684678 3
0.043381 0.289287 0.602302 7960953 3
0.003826 0.299321 0.602593 10129561 3
-0.074714 0.218383 0.597704 7499373 3
-0.044761 0.215911 0.590937 8487036 3
-0.035058 0.215911 0.590937 9013890 3
-0.025356 0.215911 0.590937 8948097 3
-0.015657 0.215962 0.591077 9013892 3
-0.074697 0.228142 0.597562 7302762 3
-0.064639 0.227275 0.595290 7959922 3
-0.054528 0.225880 0.591637 8354935 3
-0.044761 0.225613 0.590937 9539723 3
-0.035058 0.225613 0.590937 8948608 3
-0.025362 0.225667 0.591077 8948608 3
-0.015720 0.226576 0.593459 8159096 3
-0.094342 0.238010 0.597704 7106157 3
-0.084528 0.238010 0.597704 7105385 3
-0.054657 0.236152 0.593036 9473161 3
-0.044761 0.235316 0.590937 8421755 3
-0.035066 0.235372 0.591077 7961713 3
-0.025524 0.236881 0.594868 8225139 3
-0.015885 0.238811 0.599714 8224887 3
-0.093983 0.246882 0.595431 6777192 3
-0.084187 0.246823 0.595290 7829365 3
-0.074131 0.245889 0.593036 9408140 3
-0.064166 0.245019 0.590937 8816003 3
-0.054463 0.245019 0.590937 8158071 3
-0.044645 0.244385 0.589410 9211272 3
-0.034926 0.244097 0.588716 9211780 3
-0.025338 0.244847 0.590524 8619643 3
-0.092814 0.253467 0.588027 8685189 3
-0.082985 0.252935 0.586793 8816260 3
-0.072501 0.250004 0.579994 8421502 3
-0.062978 0.250004 0.579994 8750210 3
-0.053467 0.250062 0.580129 7763315 3
-0.044095 0.250933 0.582150 8487806 3
-0.034449 0.250295 0.580668 8159096 3
-0.024903 0.250180 0.580401 8093303 3
-0.015676 0.255097 0.591809 8948612 3
-0.092360 0.261833 0.585148 8684165 3
-0.082255 0.260260 0.581632 9671573 3
-0.071704 0.256675 0.573621 8881542 3
-0.062300 0.256734 0.573752 8815235 3
-0.053074 0.257678 0.575862 8288889 3
-0.043881 0.259228 0.579325 8289916 3
-0.034322 0.258869 0.578523 8027255 3
-0.024875 0.259410 0.579733 8028024 3
-0.015668 0.264684 0.591519 7699060 3
-0.091887 0.270050 0.582150 8947339 3
-0.081462 0.267209 0.576025 8749958 3
-0.071182 0.264158 0.569449 8486016 3
-0.061847 0.264218 0.569579 8946308 3
-0.052699 0.265244 0.571790 8486270 3
-0.043609 0.267072 0.575729 8684674 3
-0.034156 0.267072 0.575729 7764083 3
-0.024783 0.267937 0.577594 8488576 3
-0.015569 0.272654 0.587763 8093818 3
-0.006013 0.277002 0.597137 7895160 3
-0.006004 0.286399 0.596289 9342093 3
-0.064478 0.244125 0.699597 7829106 3
-0.094726 0.219272 0.600138 8093052 3
-0.085138 0.219958 0.602014 7434096 3
-0.006089 0.220951 0.604733 10132120 3
-0.094726 0.229126 0.600138 7435122 3
-0.085138 0.229842 0.602014 7105385 3
-0.006118 0.231989 0.607636 7961462 3
-0.006195 0.244984 0.615218 8159096 3
-0.015917 0.249146 0.600893 8224887 3
-0.006234 0.256711 0.619138 7961717 3
-0.006121 0.262016 0.607862 8356220 3
-0.006060 0.269317 0.601872 8290429 3
-0.234829 0.202768 0.581080 9473933 3
-0.253286 0.204117 0.558658 8882053 3
-0.245649 0.205401 0.562173 10000277 3
-0.239329 0.207930 0.569094 9867921 3
-0.237416 0.214648 0.587482 8684417 3
-0.255887 0.200927 0.526277 9144200 3
-0.249506 0.202763 0.531088 7960440 3
-0.250186 0.210679 0.551822 8947850 3
-0.245377 0.214394 0.561551 9078923 3
-0.241095 0.218877 0.573294 9802644 3
-0.239211 0.225990 0.591923 9867923 3
-0.263108 0.201849 0.506894 9998996 3
-0.257288 0.203832 0.511875 10327961 3
-0.252030 0.206409 0.518346 9473165 3
-0.246674 0.209083 0.525059 8815749 3
-0.242443 0.212938 0.534742 8421506 3
-0.241009 0.219633 0.551555 8355200 3
-0.237546 0.224929 0.564853 8486784 3
-0.236599 0.233135 0.585460 9604751 3
-0.232196 0.238485 0.598896 9472650 3
-0.239409 0.218944 0.528051 9276815 3
-0.238135 0.225962 0.544978 8289407 3
-0.233750 0.230460 0.555826 7368303 3
-0.232503 0.238545 0.575323 8288891 3
-0.230645 0.246659 0.594895 8683134 3
-0.222666 0.248658 0.599714 8025717 3
-0.231281 0.237057 0.549957 9605265 3
-0.225316 0.240325 0.557539 7959926 3
-0.222030 0.246850 0.572676 7498860 3
-0.215851 0.250591 0.581357 8091512 3
-0.210903 0.256176 0.594312 8288639 3
-0.218260 0.251901 0.562950 8880513 3
-0.211720 0.255159 0.570233 7696754 3
-0.203053 0.256035 0.572191 8354433 3
-0.388698 0.166507 0.477164 5855316 3
-0.381391 0.173891 0.498326 6184029 3
-0.388698 0.174341 0.477164 5461071 3
-0.374536 0.178801 0.489370 7171435 3
-0.370501 0.180752 0.494710 7434609 3
-0.364229 0.181675 0.497237 6907752 3
-0.357912 0.182618 0.499816 7498862 3
0.486210 0.215755 0.682527 5262937 3
0.491926 0.213374 0.674993 5132632 3
0.463710 0.232538 0.699296 4999759 3
0.472994 0.226002 0.679639 5460059 3
0.478018 0.223138 0.671027 5394525 3
0.486294 0.221887 0.667266 4473934 3
0.496587 0.221591 0.666376 5000530 3
0.402876 0.241963 0.693401 5724250 3
0.438321 0.242677 0.695446 5330521 3
0.443929 0.239541 0.686462 4539976 3
0.448811 0.236179 0.676827 5328724 3
0.458555 0.235476 0.674812 9276049 3
0.466001 0.233655 0.669592 9473432 3
0.466654 0.228589 0.655074 7302009 3
0.476896 0.228343 0.654370 5197144 3
0.488276 0.228641 0.655223 4407882 3
0.403264 0.246622 0.674993 5921629 3
0.414572 0.246756 0.675360 5724767 3
0.429013 0.248699 0.680678 5395288 3
0.434538 0.245507 0.671940 5460567 3
0.442354 0.243734 0.667090 8157823 3
0.450903 0.242442 0.663553 10591909 3
0.457813 0.240350 0.657826 10854315 3
0.465423 0.238713 0.653347 10393766 3
0.476896 0.239087 0.654370 9802143 3
0.488276 0.239399 0.655223 7039091 3
0.407432 0.253404 0.663729 6842733 3
0.419887 0.254348 0.666200 6711148 3
0.427757 0.252536 0.661454 6711148 3
0.435056 0.250485 0.656084 6052447 3
0.445244 0.250157 0.655223 8486533 3
0.453283 0.248666 0.651317 8683914 3
0.459669 0.246357 0.645270 9473430 3
0.472337 0.247443 0.648115 9605018 3
0.482848 0.247376 0.647940 7565946 3
0.494254 0.247761 0.648947 3618363 3
0.406067 0.256555 0.644273 6775917 3
0.415044 0.255569 0.641797 6446952 3
0.426786 0.256292 0.643613 7039087 3
0.439158 0.257349 0.646269 6841708 3
0.450349 0.257681 0.647101 6446950 3
0.461093 0.257748 0.647269 6841710 3
0.473555 0.258750 0.649786 7104880 3
0.482848 0.258015 0.647940 6579049 3
0.492848 0.257681 0.647101 6315876 3
0.409900 0.262808 0.633842 8682633 3
0.418718 0.261814 0.631445 8815500 3
0.430280 0.262543 0.633203 7894396 3
0.442923 0.263881 0.636431 7368052 3
0.462653 0.269283 0.649459 6841708 3
0.403469 0.268929 0.623898 9472660 3
0.411364 0.267401 0.620355 9473430 3
0.419157 0.265884 0.616835 9144465 3
0.432478 0.267861 0.621422 8420740 3
0.420789 0.270549 0.604627 7368054 3
0.320901 0.217646 0.688508 6448745 3
0.336211 0.220270 0.696810 6317416 3
0.300925 0.222538 0.669224 6776941 3
0.311830 0.222479 0.669046 6579561 3
0.321527 0.221591 0.666376 5987939 3
0.331500 0.220946 0.664435 6053732 3
0.345336 0.222834 0.670113 5724250 3
0.300925 0.233526 0.669224 6052192 3
0.311748 0.233403 0.668870 7630710 3
0.320165 0.231547 0.663553 6908016 3
0.331060 0.231547 0.663553 6118757 3
0.343047 0.232287 0.665672 5723739 3
0.355961 0.233589 0.669404 5855579 3
0.369721 0.235351 0.674455 5723993 3
0.384412 0.237588 0.680863 5987422 3
0.309027 0.242252 0.663032 11248558 3
0.316146 0.239399 0.655223 10064799 3
0.325039 0.238033 0.651485 7960450 3
0.336787 0.238778 0.653524 6908014 3
0.348604 0.239525 0.655569 5657947 3
0.363265 0.242122 0.662678 6579049 3
0.374639 0.242442 0.663553 7500663 3
0.389052 0.244654 0.669607 7237491 3
0.308404 0.244031 0.639177 11445937 3
0.318007 0.243349 0.637391 11709113 3
0.328975 0.243721 0.638365 7894398 3
0.340933 0.244781 0.641143 6842223 3
0.354362 0.246802 0.646437 8750220 3
0.368977 0.249508 0.653524 8618634 3
0.381794 0.250880 0.657116 6776430 3
0.395388 0.252672 0.661810 6579561 3
0.301486 0.248816 0.624840 10985386 3
0.312520 0.249435 0.626394 11051181 3
0.323696 0.250124 0.628123 9276051 3
0.335355 0.251131 0.630653 6775919 3
0.347107 0.252146 0.633203 8420744 3
0.360056 0.253947 0.637724 7499388 3
0.372894 0.255569 0.641797 6709872 3
0.383530 0.255634 0.641962 7631226 3
0.395590 0.256620 0.644438 7631226 3
0.300720 0.249913 0.602741 10130844 3
0.315784 0.254070 0.612769 8223361 3
0.329798 0.257153 0.620204 7696767 3
0.344410 0.260502 0.628282 9341592 3
0.357595 0.262610 0.633364 8157319 3
0.369768 0.263876 0.636418 7499389 3
0.378774 0.262874 0.634002 8485769 3
0.389184 0.262874 0.634002 9603737 3
0.399594 0.262874 0.634002 8945805 3
0.321681 0.260756 0.604938 7959421 3
0.335823 0.264066 0.612618 9472662 3
0.352558 0.269164 0.624443 7762046 3
0.366879 0.272182 0.631445 8156549 3
0.376205 0.271430 0.629702 9603995 3
0.384996 0.270343 0.627180 9933215 3
0.394700 0.269937 0.626238 8814732 3
0.355767 0.273991 0.612319 7631228 3
0.371167 0.277996 0.621269 7893632 3
0.378741 0.276081 0.616990 9999006 3
0.385266 0.273522 0.611270 9143697 3
0.207696 0.206262 0.652493 6712424 3
0.219095 0.206909 0.654542 6843753 3
0.285939 0.216851 0.685992 5659486 3
0.203772 0.212876 0.640166 7503223 3
0.215436 0.214022 0.643613 8292226 3
0.224396 0.212499 0.639035 7371126 3
0.235365 0.212931 0.640331 6844782 3
0.249781 0.216309 0.650492 6054498 3
0.265411 0.220420 0.662854 6909807 3
0.277836 0.221650 0.666554 6515049 3
0.289937 0.222538 0.669224 6711917 3
0.202119 0.221575 0.634975 7964287 3
0.213680 0.222758 0.638365 7240053 3
0.223197 0.221800 0.635619 7305846 3
0.233690 0.221854 0.635773 7240051 3
0.245250 0.222873 0.638694 6713194 3
0.261075 0.227525 0.652025 6515817 3
0.275203 0.230390 0.660237 7633528 3
0.289552 0.233216 0.668334 5329494 3
0.201303 0.231064 0.632410 7700602 3
0.212219 0.231645 0.634002 7173747 3
0.243510 0.231704 0.634163 7567987 3
0.255605 0.233239 0.638365 7305331 3
0.268836 0.235650 0.644962 7633528 3
0.285149 0.240476 0.658172 7763576 3
0.297195 0.241483 0.660928 9341328 3
0.200189 0.240111 0.628909 7700602 3
0.210515 0.240111 0.628909 7765884 3
0.219631 0.238795 0.625464 6910573 3
0.229325 0.238197 0.623898 7634550 3
0.239450 0.238080 0.623590 7633780 3
0.247899 0.236373 0.619120 6976366 3
0.260647 0.238739 0.625316 7699321 3
0.276290 0.243476 0.637724 8881803 3
0.288592 0.245031 0.641797 11644083 3
0.299054 0.244968 0.641633 11973048 3
0.206025 0.245095 0.615496 7963263 3
0.268008 0.246335 0.618608 10066590 3
0.280544 0.248441 0.623898 10262944 3
0.289994 0.247763 0.622196 10722980 3
0.184895 0.204740 0.647681 7106155 3
0.172372 0.213039 0.640659 7567476 3
0.181680 0.211629 0.636418 8686468 3
0.191449 0.210879 0.634163 7107952 3
0.120483 0.224877 0.644438 7304050 3
0.130662 0.224186 0.642458 6645606 3
0.139672 0.221744 0.635459 6974571 3
0.149233 0.220455 0.631766 7435636 3
0.160863 0.222191 0.636741 7238770 3
0.171886 0.222929 0.638854 7896952 3
0.180945 0.221180 0.633842 8029308 3
0.190628 0.220343 0.631445 7897979 3
0.109452 0.234493 0.641797 6120289 3
0.119990 0.234493 0.641797 7041391 3
0.129798 0.233182 0.638210 7304563 3
0.138759 0.230660 0.631306 6975598 3
0.148558 0.229784 0.628909 7042159 3
0.159365 0.230480 0.630813 8358019 3
0.170538 0.231587 0.633842 8357502 3
0.180261 0.230711 0.631445 7765365 3
0.190102 0.230074 0.629702 7108206 3
0.108123 0.242055 0.634002 5988703 3
0.118562 0.242116 0.634163 7304052 3
0.148001 0.239210 0.626551 7042672 3
0.158924 0.240171 0.629068 8555911 3
0.169893 0.241079 0.631445 7764853 3
0.180261 0.241079 0.631445 7633267 3
0.190580 0.241018 0.631287 8160640 3
0.108123 0.252464 0.634002 7567735 3
0.118532 0.252464 0.634002 8291460 3
0.128230 0.251070 0.630501 8619912 3
0.137818 0.249686 0.627024 8621191 3
0.147375 0.248441 0.623898 7634807 3
0.158092 0.249187 0.625771 7305331 3
0.169211 0.250437 0.628909 7830648 3
0.180034 0.251131 0.630653 9738645 3
0.189580 0.250063 0.627972 8225663 3
0.198695 0.248568 0.624217 7766395 3
0.107551 0.261486 0.630653 7699321 3
0.118054 0.261814 0.631445 8291460 3
0.128067 0.261091 0.629702 8554632 3
0.137784 0.259917 0.626869 7107952 3
0.146790 0.257658 0.621422 8818824 3
0.157896 0.259141 0.624997 7238768 3
0.169211 0.260763 0.628909 8356224 3
0.180080 0.261552 0.630813 9869463 3
0.103138 0.260685 0.604774 7765884 3
0.113479 0.261632 0.606971 8752781 3
0.123117 0.260938 0.605359 7765116 3
0.132544 0.259933 0.603028 7897468 3
0.143802 0.262408 0.608772 8160124 3
0.031151 0.251283 0.794916 7566195 3
0.043897 0.249547 0.789423 7105644 3
0.056679 0.248758 0.786927 7763315 3
0.070176 0.250819 0.793449 9275271 3
0.018056 0.263704 0.793019 7631986 3
0.030674 0.260289 0.782749 7895158 3
0.043030 0.257320 0.773819 7368814 3
0.055562 0.256522 0.771421 7697268 3
0.005057 0.277922 0.796449 9671312 3
0.017859 0.273702 0.784357 8618881 3
0.029935 0.266562 0.763895 7829365 3
0.041782 0.262198 0.751391 7829365 3
0.053710 0.260215 0.745707 8355198 3
0.069694 0.274969 0.787989 6316128 3
0.083471 0.277764 0.795997 6908265 3
0.095923 0.275986 0.790901 7828854 3
0.016126 0.258769 0.708239 9343115 3
0.029495 0.274996 0.752652 9277322 3
0.040995 0.269365 0.737239 9540494 3
0.052616 0.266910 0.730521 8815749 3
0.062497 0.258178 0.706622 9277326 3
0.039470 0.270996 0.709807 8488576 3
0.051103 0.270883 0.709510 7237739 3
-0.199229 0.217775 0.688915 9538443 3
-0.190550 0.220826 0.698566 9933201 3
-0.195784 0.225125 0.677002 9209478 3
-0.185018 0.225551 0.678285 8288889 3
-0.177003 0.229601 0.690463 9012612 3
-0.167786 0.232538 0.699296 9407370 3
-0.192711 0.232533 0.666376 9473163 3
-0.181818 0.232595 0.666554 8552061 3
-0.172622 0.234974 0.673373 8421245 3
-0.163187 0.237331 0.680127 9605519 3
-0.153309 0.239345 0.685898 9078921 3
-0.144885 0.244125 0.699597 9013128 3
-0.191085 0.241419 0.660753 8946819 3
-0.180284 0.241483 0.660928 8881796 3
-0.170694 0.243282 0.665851 8487295 3
-0.161260 0.245564 0.672096 8289916 3
-0.150225 0.245564 0.672096 8947335 3
-0.139079 0.245369 0.671562 7763061 3
-0.125965 0.241368 0.660614 7500404 3
-0.105455 0.221108 0.605161 6250594 3
-0.196798 0.245852 0.643947 9077892 3
-0.187962 0.248146 0.649955 8946819 3
-0.177983 0.249115 0.652493 9538956 3
-0.167270 0.249115 0.652493 8026744 3
-0.156475 0.248986 0.652156 8355709 3
-0.143021 0.244294 0.639867 7434609 3
-0.105455 0.231044 0.605161 6908778 3
-0.196191 0.255634 0.641962 9012614 3
-0.186367 0.256620 0.644438 9473163 3
-0.175786 0.256620 0.644438 9079175 3
-0.164739 0.255897 0.642622 8158584 3
-0.152756 0.253521 0.636655 8224123 3
-0.136232 0.242705 0.609493 6513505 3
-0.195390 0.265088 0.639341 9341327 3
-0.185555 0.266038 0.641633 7960440 3
-0.174351 0.265020 0.639177 8158073 3
-0.162944 0.263545 0.635619 7763826 3
-0.193758 0.273284 0.634002 8486533 3
-0.183349 0.273284 0.634002 6118238 3
-0.172559 0.272683 0.632609 7697781 3
-0.184070 0.279398 0.602302 8289154 3
0.623589 0.205506 0.685719 3684157 3
0.632762 0.204830 0.683466 4539979 3
0.636862 0.202565 0.675906 3421495 3
0.647084 0.202291 0.674993 2500647 3
0.605083 0.218211 0.690295 4209471 3
0.607345 0.214999 0.680135 3748922 3
0.608589 0.211550 0.669224 4933711 3
0.619412 0.211494 0.669046 5263702 3
0.624239 0.209428 0.662510 4738125 3
0.601630 0.224038 0.673735 4472645 3
0.605043 0.221242 0.665325 4209988 3
0.614327 0.220652 0.663553 4934736 3
0.601681 0.230876 0.661628 4473672 3
0.608215 0.229244 0.656951 3355191 3
0.511833 0.205840 0.686835 5461078 3
0.513889 0.202212 0.674727 5724504 3
0.525720 0.202501 0.675695 5132113 3
0.501524 0.212744 0.673002 4343114 3
0.510381 0.211834 0.670122 4474185 3
0.522505 0.212289 0.671562 5461078 3
0.540188 0.214938 0.679942 4342086 3
0.552099 0.215229 0.680863 4473160 3
0.559940 0.213954 0.676827 5656920 3
0.570941 0.213912 0.676696 5066063 3
0.507528 0.221591 0.666376 4605771 3
0.518608 0.221650 0.666554 5461078 3
0.533242 0.223195 0.671199 6579048 3
0.544990 0.223493 0.672096 4999504 3
0.554392 0.222837 0.670122 4209474 3
0.564789 0.222598 0.669404 5262929 3
0.581537 0.224824 0.676097 4868684 3
0.594232 0.225428 0.677915 4802378 3
0.500608 0.229362 0.657290 4934737 3
0.514094 0.230570 0.660753 5724250 3
0.528015 0.231919 0.664619 7237489 3
0.540352 0.232533 0.666376 6512998 3
0.549687 0.231855 0.664435 4538439 3
0.560303 0.231734 0.664087 3881278 3
0.578096 0.234528 0.672096 3618617 3
0.589131 0.234528 0.672096 4012864 3
0.596497 0.233095 0.667987 4473415 3
0.500608 0.240154 0.657290 4078915 3
0.514094 0.241419 0.660753 4474183 3
0.526472 0.242122 0.662678 6185571 3
0.536502 0.241739 0.661628 4342086 3
0.541803 0.239283 0.654905 5327955 3
0.548963 0.237727 0.650646 5196369 3
0.505431 0.248017 0.649618 4539976 3
0.514097 0.247056 0.647101 4145988 3
0.521765 0.245664 0.643454 4408392 3
0.527991 0.243661 0.638210 3618364 3
0.537094 0.243039 0.636579 4604746 3
0.540606 0.239958 0.628510 3552571 3
0.534115 0.232636 0.609332 5132116 3
0.544119 0.232636 0.609332 4276806 3
0.500508 0.256163 0.643291 4605769 3
0.506383 0.253814 0.637391 5132115 3
0.513072 0.251960 0.632734 4737357 3
0.518346 0.249497 0.626551 5263189 3
0.532094 0.251131 0.630653 4538953 3
0.536175 0.248227 0.623359 3881536 3
0.527952 0.239841 0.602302 3882049 3
0.536424 0.239209 0.600715 4606541 3
0.206453 0.261933 0.874002 6380894 3
0.212605 0.252208 0.841552 5460819 3
0.238447 0.265601 0.886242 6974060 3
0.241297 0.253317 0.845254 6316641 3
0.262008 0.260100 0.867886 5790295 3
0.203575 0.272432 0.861818 7434098 3
0.207423 0.259541 0.821040 7171696 3
-0.253900 0.204941 0.683836 8684928 3
-0.242672 0.204941 0.683836 9209991 3
-0.232335 0.205731 0.686470 10525338 3
-0.224819 0.209225 0.698129 10787229 3
-0.245138 0.208709 0.660237 8552829 3
-0.237234 0.211326 0.668514 9867921 3
-0.227594 0.212573 0.672460 10656154 3
-0.219022 0.214997 0.680127 10787740 3
-0.209618 0.216821 0.685898 9735306 3
-0.240032 0.205873 0.619107 8816514 3
-0.237871 0.213042 0.640666 8816001 3
-0.231432 0.216865 0.652164 10328472 3
-0.223811 0.219897 0.661282 10392982 3
-0.216205 0.223255 0.671380 9603720 3
-0.206286 0.224457 0.674993 9407111 3
-0.236943 0.213257 0.611139 7960692 3
-0.235758 0.221575 0.634975 8092278 3
-0.227352 0.223561 0.640666 9078405 3
-0.220035 0.226862 0.650126 8946306 3
-0.211724 0.229423 0.657465 9209732 3
-0.202843 0.231609 0.663729 8880767 3
-0.233557 0.220101 0.602407 8947587 3
-0.231789 0.228095 0.624285 8946817 3
-0.223970 0.230598 0.631136 8420475 3
-0.216995 0.234254 0.641143 8617854 3
-0.208227 0.236250 0.646606 9801869 3
-0.200089 0.239213 0.654716 9078403 3
-0.234101 0.230528 0.603811 9012612 3
-0.230568 0.237089 0.620996 8749438 3
-0.223577 0.240537 0.630026 8486268 3
-0.215232 0.242793 0.635936 8881796 3
-0.205887 0.244093 0.639341 9538443 3
-0.226467 0.242888 0.609952 9012612 3
-0.221576 0.248636 0.624388 9604749 3
-0.214362 0.252210 0.633364 8684163 3
-0.205103 0.253621 0.636905 8683136 3
-0.219031 0.255915 0.617217 8420223 3
-0.212696 0.260569 0.628441 8026237 3
-0.204272 0.263008 0.634325 8814983 3
-0.206000 0.262359 0.608657 8881291 3
-0.201877 0.270217 0.626888 6709354 3
-0.287266 0.177063 0.590814 7698032 3
-0.274270 0.174961 0.583801 6513758 3
-0.259010 0.171210 0.571283 7697520 3
-0.245437 0.168335 0.561689 7039592 3
-0.233794 0.166609 0.555931 8421502 3
-0.224416 0.166424 0.555314 8487549 3
-0.284110 0.184712 0.584322 6974309 3
-0.272992 0.183687 0.581080 5856086 3
-0.260192 0.181414 0.573890 7236969 3
-0.246645 0.178431 0.564453 9670540 3
-0.235993 0.177390 0.561159 8552059 3
-0.225466 0.176363 0.557912 7762543 3
-0.298513 0.169761 0.510510 7762032 3
-0.288952 0.169071 0.508436 7301992 3
-0.283966 0.171097 0.514528 7038820 3
-0.281045 0.174529 0.524850 7894899 3
-0.278588 0.178476 0.536718 7566187 3
-0.282822 0.187107 0.562673 7039589 3
-0.273952 0.187359 0.563431 8421756 3
-0.265656 0.188035 0.565465 7829619 3
-0.257185 0.188631 0.567258 8158071 3
-0.247032 0.187993 0.565337 9407368 3
-0.238191 0.188342 0.566388 10788764 3
-0.236032 0.194218 0.584057 9933712 3
-0.296338 0.176845 0.506791 10196373 3
-0.288017 0.176845 0.506791 8485755 3
-0.282918 0.178882 0.512628 8025715 3
-0.277553 0.180871 0.518328 7959922 3
-0.273524 0.183883 0.526961 8025458 3
-0.275365 0.191168 0.547838 9341575 3
-0.268163 0.192455 0.551525 8289659 3
-0.260716 0.193650 0.554948 7631986 3
-0.253625 0.195205 0.559405 8223866 3
-0.245316 0.195905 0.561411 9012612 3
-0.237277 0.196883 0.564213 9275784 3
-0.293489 0.183386 0.501918 9932433 3
-0.285878 0.183791 0.503028 9275271 3
-0.279191 0.184832 0.505875 9998994 3
-0.272368 0.185843 0.508644 9604749 3
-0.267723 0.188452 0.515785 9800845 3
-0.266097 0.193426 0.529399 8748157 3
-0.261266 0.196328 0.537341 8025717 3
-0.256966 0.199845 0.546968 8487295 3
-0.276786 0.191474 0.501518 9538443 3
-0.269684 0.192282 0.503633 9275271 3
-0.263538 0.193843 0.507724 10327191 3
-0.260541 0.197899 0.518346 10064789 3
0.663201 0.205756 0.771039 3356470 3
0.699751 0.213030 0.798295 3816255 3
0.606896 0.212014 0.748439 5065810 3
0.644778 0.220778 0.779376 3947328 3
0.659816 0.221530 0.782033 3618874 3
0.643146 0.211811 0.747724 3421238 3
0.635236 0.205288 0.724695 3486777 3
0.640739 0.203259 0.717532 3092022 3
0.616149 0.218860 0.730278 4210754 3
0.626913 0.218432 0.728852 4473413 3
0.625732 0.213937 0.713852 4341574 3
0.634405 0.212914 0.710439 3552060 3
0.603851 0.221924 0.702039 5591892 3
0.517434 0.208231 0.780314 5263440 3
0.540917 0.212422 0.796017 5131854 3
0.507188 0.211431 0.746382 5789784 3
0.537300 0.218699 0.772040 4539976 3
0.562750 0.223779 0.789972 4276804 3
0.547684 0.212882 0.751502 5329495 3
0.535093 0.203405 0.718048 5000529 3
0.542133 0.201638 0.711811 5000270 3
0.568188 0.206869 0.730278 5394774 3
0.587021 0.209309 0.738891 5657947 3
0.506947 0.213273 0.711637 4737358 3
0.515420 0.211953 0.707230 5329495 3
0.568089 0.214299 0.715061 5394775 3
0.579830 0.214299 0.715061 4868431 3
0.589722 0.213630 0.712827 3815742 3
0.410304 0.212466 0.796183 5329492 3
0.415510 0.208518 0.781389 5988190 3
0.423529 0.206177 0.772614 6119262 3
0.435541 0.205858 0.771421 5461332 3
0.446561 0.205102 0.768587 5592407 3
0.456377 0.203850 0.763895 5066063 3
0.464131 0.201768 0.756095 4013375 3
0.499540 0.206134 0.772455 6118236 3
0.409522 0.225109 0.794665 5592664 3
0.416124 0.221675 0.782544 5987676 3
0.423529 0.218862 0.772614 5724504 3
0.435541 0.218524 0.771421 6118751 3
0.444801 0.216863 0.765558 6250337 3
0.449794 0.213271 0.752877 6118497 3
0.457638 0.211186 0.745518 5526360 3
0.468051 0.210364 0.742616 7171439 3
0.484405 0.212187 0.749052 6776168 3
0.494486 0.211240 0.745707 6645093 3
0.405282 0.235690 0.786437 6382180 3
0.411485 0.231909 0.773819 6381923 3
0.421450 0.230411 0.768821 6447716 3
0.433406 0.230057 0.767639 7171439 3
0.442252 0.228118 0.761171 6973806 3
0.441308 0.221375 0.738672 6645354 3
0.450392 0.219889 0.733713 6776940 3
0.454725 0.216221 0.721474 6908013 3
0.464545 0.215282 0.718341 6776681 3
0.477849 0.215964 0.720617 6644841 3
0.488837 0.215592 0.719376 6315876 3
0.499928 0.215282 0.718341 5790046 3
0.402652 0.239364 0.757209 6710888 3
0.409270 0.236010 0.746601 8092541 3
0.419028 0.234610 0.742173 7763835 3
0.429441 0.233646 0.739122 6513768 3
0.435150 0.230245 0.728365 6644844 3
0.445558 0.229447 0.725838 6776940 3
0.451981 0.226691 0.717121 6645352 3
0.462424 0.226040 0.715061 6841959 3
0.475660 0.226753 0.717316 6776170 3
0.487857 0.226948 0.717933 6644329 3
0.494831 0.224761 0.711017 6973809 3
0.409567 0.241224 0.725416 5724250 3
0.424922 0.243195 0.731345 6184801 3
0.433135 0.241083 0.724993 6711148 3
0.443502 0.240251 0.722489 5461850 3
0.449794 0.237311 0.713650 6185571 3
0.456565 0.234768 0.706002 5526871 3
0.476664 0.233258 0.701462 5131090 3
0.418954 0.244704 0.701255 5593436 3
0.431069 0.245045 0.702235 5067349 3
0.370733 0.212264 0.795425 6579813 3
0.398623 0.213210 0.798972 6250848 3
0.358477 0.225830 0.797213 5921629 3
0.368742 0.224113 0.791152 6909294 3
0.383427 0.225109 0.794665 6843501 3
0.394722 0.224113 0.791152 5329492 3
0.332821 0.239296 0.798467 5922146 3
0.341363 0.236136 0.787923 6317159 3
0.351442 0.234231 0.781567 6514536 3
0.354860 0.228177 0.761368 6251623 3
0.377207 0.234293 0.781775 6251623 3
0.392000 0.235469 0.785697 6646122 3
0.311040 0.226948 0.717933 5593436 3
0.320075 0.225013 0.711811 6250596 3
0.368801 0.233670 0.739199 5988451 3
0.397181 0.243634 0.770719 6382950 3
0.384563 0.240484 0.723192 6052956 3
0.399157 0.242134 0.728154 6052956 3
0.293345 0.276188 0.921567 4145988 3
0.101841 0.251653 0.839700 7697268 3
0.117155 0.254977 0.850791 6381921 3
0.115935 0.266144 0.841927 6841961 3
0.129758 0.266144 0.841927 6184031 3
0.143779 0.266509 0.843084 6709859 3
0.161647 0.273314 0.864610 6775652 3
0.178925 0.278105 0.879766 7564655 3
0.193370 0.278105 0.879766 8025719 3
0.114324 0.276078 0.830230 7894649 3
0.128378 0.276989 0.832970 8026748 3
0.142055 0.276989 0.832970 7895673 3
0.155731 0.276989 0.832970 7763574 3
0.170660 0.279037 0.839128 7368303 3
0.183699 0.277920 0.835769 6381408 3
-0.060385 0.212741 0.797213 7236717 3
-0.046921 0.211057 0.790901 8091512 3
-0.033935 0.211057 0.790901 8026233 3
-0.073263 0.225180 0.794916 9539476 3
-0.060192 0.225109 0.794665 8157819 3
-0.046936 0.224113 0.791152 9407372 3
-0.034108 0.225180 0.794916 9473679 3
-0.072893 0.237028 0.790901 8947337 3
-0.059907 0.237028 0.790901 8157819 3
-0.046951 0.237179 0.791405 9275786 3
-0.034282 0.239447 0.798972 10131863 3
-0.086812 0.252732 0.799499 8420477 3
-0.072277 0.247902 0.784222 6973799 3
-0.059308 0.247514 0.782992 7829108 3
-0.046642 0.248527 0.786196 8223866 3
-0.034108 0.251283 0.794916 8289659 3
-0.021130 0.252164 0.797704 8355452 3
-0.071449 0.257792 0.775240 7697522 3
-0.059536 0.261372 0.786007 7697522 3
-0.078523 0.252347 0.723158 8025715 3
-0.057068 0.262904 0.753414 7434348 3
-0.047296 0.278190 0.797218 9014405 3
-0.020941 0.275866 0.790560 7763313 3
-0.007939 0.275123 0.788430 9012612 3
-0.188812 0.209996 0.786927 8224123 3
-0.175947 0.210062 0.787175 8026746 3
-0.164915 0.212502 0.796318 8158330 3
-0.198430 0.219268 0.774046 8617852 3
-0.186644 0.220357 0.777891 8223866 3
-0.174195 0.220767 0.779340 8092026 3
-0.162689 0.222531 0.785568 8487297 3
-0.195444 0.214733 0.716508 9537927 3
-0.186236 0.217721 0.726480 8617595 3
-0.175629 0.219371 0.731983 8617856 3
-0.164330 0.220336 0.735204 8420993 3
-0.153679 0.222391 0.742062 8289918 3
-0.149354 0.234742 0.783275 9013641 3
-0.138572 0.238319 0.795208 8026746 3
-0.126191 0.239601 0.799486 6907754 3
-0.182641 0.225216 0.712453 8551548 3
-0.173150 0.228123 0.721652 8683647 3
-0.161814 0.228849 0.723949 7762547 3
-0.151289 0.230927 0.730522 8552577 3
-0.146614 0.243061 0.768906 8158334 3
-0.136530 0.247670 0.783486 7829626 3
-0.125080 0.250502 0.792446 6908265 3
-0.156961 0.233515 0.702235 7960440 3
-0.147257 0.236448 0.711053 8947335 3
-0.135080 0.235571 0.708418 6710888 3
-0.132348 0.252554 0.759489 7303282 3
-0.125845 0.265126 0.797294 8422017 3
-0.135429 0.247842 0.710248 6710888 3
-0.137091 0.274522 0.786706 6908524 3
-0.218168 0.201317 0.754404 7565166 3
-0.212255 0.207650 0.778135 7104613 3
-0.201417 0.209668 0.785697 8158583 3
-0.299566 0.201785 0.712328 7500400 3
-0.229225 0.201638 0.711811 10590363 3
-0.217538 0.201638 0.711811 8287606 3
-0.207928 0.203673 0.718996 9209478 3
-0.204212 0.212073 0.748649 9341318 3
-0.214312 0.210162 0.701255 9997967 3
-0.204403 0.211825 0.706806 10392982 3
-0.399926 0.160044 0.599742 7762810 3
-0.396981 0.160726 0.567386 4670792 3
-0.388723 0.161165 0.568934 6512226 3
-0.390197 0.165759 0.585153 6775398 3
-0.387275 0.168671 0.595431 7301742 3
-0.399068 0.167016 0.557290 6775398 3
-0.390875 0.167426 0.558658 7038570 3
-0.382127 0.167613 0.559280 6841191 3
-0.379519 0.170567 0.569139 6972518 3
-0.373089 0.171910 0.573621 7235692 3
-0.398429 0.164564 0.520588 7564657 3
-0.395640 0.166995 0.528278 7893879 3
-0.391924 0.169135 0.535046 8091260 3
-0.392273 0.173167 0.547800 5853785 3
-0.385799 0.174305 0.551403 8025208 3
-0.378582 0.175155 0.554091 7498864 3
-0.372118 0.176404 0.558041 6775652 3
-0.362872 0.176363 0.557912 7433582 3
-0.353317 0.176166 0.557290 8683647 3
-0.386225 0.171489 0.515706 8223614 3
-0.383723 0.174197 0.523850 8814981 3
-0.378293 0.175669 0.528278 9735826 3
-0.373948 0.177727 0.534466 8222587 3
-0.366111 0.178184 0.535839 7104106 3
-0.359698 0.179373 0.539415 6315101 3
-0.351068 0.179488 0.539763 7630961 3
-0.339066 0.177842 0.534811 7565166 3
-0.326666 0.175893 0.528952 6973027 3
-0.311466 0.172289 0.518114 7565166 3
-0.378110 0.176175 0.504870 7434609 3
-0.372585 0.177492 0.508644 8551809 3
-0.370192 0.180395 0.516965 8748931 3
-0.368912 0.183990 0.527267 7762036 3
-0.360331 0.184029 0.527379 8419966 3
-0.352860 0.184651 0.529161 7367535 3
-0.320836 0.181284 0.519511 6578271 3
-0.307785 0.178659 0.511991 6840932 3
-0.353386 0.184540 0.505078 7235690 3
-0.350096 0.187215 0.512399 7630450 3
-0.348082 0.190721 0.521995 7170156 3
-0.338665 0.190246 0.520695 7303023 3
-0.325728 0.187717 0.513774 7697522 3
-0.314253 0.185919 0.508851 6841443 3
-0.303862 0.184682 0.505465 10327963 3
-0.342935 0.191627 0.501918 8419964 3
-0.335434 0.192050 0.503028 7631477 3
-0.327503 0.192243 0.503532 7303023 3
-0.319171 0.192204 0.503431 7171178 3
-0.309971 0.191627 0.501918 9473931 3
-0.301007 0.191168 0.500716 8354684 3
0.436347 0.199347 0.795997 5264467 3
0.443470 0.196709 0.785464 5790297 3
0.441462 0.190285 0.759811 5855579 3
0.452124 0.189525 0.756777 5131343 3
0.470489 0.191948 0.766452 5065550 3
0.472247 0.199948 0.749275 4736585 3
0.365164 0.219398 0.876062 5329233 3
0.367787 0.212599 0.848914 5066059 3
0.373576 0.208060 0.830790 6710888 3
0.382387 0.205466 0.820429 6908265 3
0.399651 0.207434 0.828291 6711397 3
0.347555 0.231632 0.868006 4605259 3
0.348715 0.223251 0.836598 5723993 3
0.356964 0.219871 0.823933 6381919 3
0.364408 0.216260 0.810402 6776681 3
0.387358 0.214235 0.802813 6842985 3
0.330594 0.254780 0.899408 5132885 3
0.336438 0.248197 0.876170 5263701 3
0.340181 0.240667 0.849589 5855839 3
0.341873 0.232338 0.820184 6250596 3
0.347925 0.227489 0.803069 6316387 3
0.322052 0.262583 0.876170 5527643 3
0.333501 0.260291 0.868522 5592664 3
0.332171 0.248622 0.829586 6777455 3
-0.390339 0.172009 0.686835 5395024 3
-0.390877 0.183538 0.687781 6381662 3
-0.373078 0.185924 0.696720 5921111 3
-0.359168 0.184653 0.691959 7630959 3
-0.350424 0.186043 0.697167 7500143 3
-0.339917 0.186559 0.699100 4473665 3
-0.399163 0.188093 0.663996 7697522 3
-0.396095 0.197432 0.696964 6842211 3
-0.371964 0.196774 0.694640 5723730 3
-0.352282 0.192257 0.678694 7960692 3
-0.341307 0.192352 0.679028 6644832 3
-0.333046 0.194034 0.684969 6513759 3
-0.324639 0.195747 0.691014 6579552 3
-0.316083 0.197490 0.697167 6842213 3
-0.305481 0.198037 0.699100 5920857 3
-0.386983 0.198340 0.661810 6709855 3
-0.376909 0.198758 0.663204 7170406 3
-0.363135 0.197191 0.657977 7038820 3
-0.350313 0.196062 0.654207 7104613 3
0.750096 0.200256 0.855729 3157812 3
0.764146 0.200256 0.855729 2368299 3
0.701411 0.208196 0.831332 3027507 3
0.713889 0.207855 0.829970 2237989 3
0.757416 0.216398 0.864081 3553853 3
0.776882 0.217878 0.869991 3815745 3
0.788563 0.217161 0.867129 3881025 3
0.749607 0.202772 0.809673 3223095 3
0.776048 0.206266 0.823626 2762542 3
0.786340 0.205422 0.820256 3289141 3
0.640005 0.210246 0.898420 4473675 3
0.634709 0.203809 0.870913 5723229 3
0.641198 0.201356 0.860431 5985885 3
0.609181 0.214161 0.855151 4079428 3
0.616901 0.211989 0.846478 3552573 3
0.631014 0.212061 0.846765 3749950 3
0.648202 0.213141 0.851078 4143680 3
0.659494 0.212278 0.847631 4406339 3
0.669105 0.210921 0.842211 4670025 3
0.686393 0.211989 0.846478 5263189 3
0.699823 0.211847 0.845912 4605771 3
0.611801 0.219084 0.820983 4078914 3
0.642543 0.225133 0.843649 4078655 3
0.645855 0.221517 0.830101 4867403 3
0.641714 0.215548 0.807734 3815230 3
0.661154 0.217582 0.815353 4210501 3
0.671264 0.216524 0.811391 4737357 3
0.675030 0.213502 0.800064 3751230 3
0.534235 0.209262 0.894216 5656660 3
0.543486 0.207192 0.885369 6051418 3
0.541577 0.215194 0.859274 4802376 3
0.544467 0.210849 0.841927 5986136 3
0.560365 0.211633 0.845056 4736583 3
0.575799 0.212208 0.847350 4605512 3
0.598611 0.215410 0.860137 4605771 3
0.591908 0.226963 0.850506 4276804 3
0.598780 0.224305 0.840549 4145218 3
0.597522 0.218792 0.819887 4473673 3
-0.093461 0.201426 0.860728 7697021 3
-0.079739 0.202469 0.865185 8354433 3
-0.065603 0.202682 0.866096 6908006 3
-0.092351 0.212998 0.850506 7235447 3
-0.077596 0.210849 0.841927 9012881 3
-0.062849 0.207798 0.829741 5657685 3
-0.049993 0.211038 0.842680 4998987 3
-0.038388 0.224060 0.894676 7434096 3
-0.090001 0.221188 0.828867 7103861 3
-0.074492 0.215688 0.808257 8025984 3
-0.022936 0.231070 0.865900 5395026 3
-0.088280 0.230307 0.813016 11249073 3
-0.021330 0.228109 0.805255 6645091 3
-0.008533 0.240046 0.847396 7303534 3
-0.087117 0.240447 0.802308 9867672 3
-0.021481 0.243037 0.810952 7105385 3
-0.008305 0.247172 0.824750 7763826 3
-0.008160 0.256183 0.810415 8157819 3
-0.087151 0.266898 0.802623 8091510 3
-0.047929 0.268650 0.807893 7829619 3
-0.034996 0.271219 0.815617 8092791 3
-0.021604 0.271219 0.815617 5789525 3
-0.008154 0.269296 0.809836 7499375 3
-0.034635 0.281676 0.807208 8422268 3
-0.184310 0.208268 0.889966 6842983 3
-0.124331 0.205738 0.879155 7040364 3
-0.108676 0.203454 0.869394 6382180 3
-0.169091 0.204477 0.816482 7631986 3
-0.168481 0.221282 0.883585 6645093 3
-0.154941 0.222673 0.889139 7039851 3
-0.138187 0.219254 0.875486 8486786 3
-0.121683 0.215483 0.860431 9210509 3
-0.107115 0.214601 0.856908 7434100 3
-0.161469 0.225977 0.846812 7763574 3
-0.148866 0.227968 0.854276 8355711 3
-0.134977 0.228202 0.855151 7565684 3
-0.119670 0.225812 0.846193 9210509 3
-0.105173 0.224524 0.841367 8551812 3
-0.157158 0.233476 0.824202 7500402 3
-0.144675 0.235183 0.830230 7368816 3
-0.130998 0.235101 0.829940 7828856 3
-0.117177 0.234711 0.828563 8157821 3
-0.103164 0.233785 0.825295 7564916 3
-0.114120 0.241838 0.806950 8223614 3
-0.100385 0.240675 0.803069 8091258 3
-0.115271 0.257661 0.815091 7105131 3
-0.100547 0.254269 0.804362 6315101 3
-0.117684 0.276717 0.832153 6841959 3
-0.101398 0.269740 0.811170 6973029 3
-0.126965 0.280692 0.804390 6448227 3
-0.116484 0.287419 0.823666 6512994 3
-0.100876 0.281600 0.806990 6973029 3
0.514034 0.204046 0.937715 6313056 3
0.532620 0.205275 0.943364 6641762 3
0.541584 0.202831 0.932133 6575966 3
0.553593 0.201631 0.926618 8220277 3
0.565461 0.200445 0.921167 7431275 3
0.591016 0.204046 0.937715 7300713 3
0.568480 0.211075 0.901960 5525331 3
0.583068 0.210994 0.901617 6446174 3
0.599165 0.211451 0.903567 7498860 3
-0.025925 0.212973 0.978740 6053469 3
-0.009917 0.214312 0.984896 5658711 3
-0.055737 0.219860 0.939504 6447201 3
-0.041477 0.226215 0.966657 6250335 3
-0.025605 0.226215 0.966657 6119262 3
-0.009775 0.227181 0.970785 6383202 3
-0.025400 0.240143 0.958896 6448227 3
-0.009674 0.240601 0.960726 6580581 3
-0.009285 0.246065 0.922089 3488310 3
0.705460 0.175025 0.869991 2105384 3
0.711835 0.173101 0.860431 1381661 3
0.700291 0.184192 0.846478 2368810 3
0.702793 0.181253 0.832970 2368809 3
0.750096 0.186206 0.855729 2434090 3
0.765644 0.183202 0.841927 2894132 3
0.701411 0.194546 0.831332 2631979 3
0.723770 0.196916 0.841458 1908256 3
0.771146 0.198442 0.847977 2959925 3
0.749607 0.189478 0.809673 2695981 3
0.415759 0.200665 0.997442 5987163 3
0.408707 0.205275 0.943364 5724502 3
0.414215 0.200445 0.921167 5329746 3
0.434451 0.202831 0.932133 5658711 3
0.452449 0.204046 0.937715 5592918 3
0.470663 0.205275 0.943364 6249824 3
0.489099 0.206519 0.949081 6905193 3
0.498638 0.204046 0.937715 6181472 3
0.443535 0.215119 0.919242 6250846 3
0.467845 0.219442 0.937715 5329746 3
0.479309 0.217656 0.930084 5460568 3
0.399382 0.200665 0.997442 6974060 3
0.383005 0.217042 0.997442 6118498 3
0.389459 0.211650 0.972661 5066322 3
0.395601 0.206519 0.949081 5658711 3
0.379255 0.231134 0.987677 5724253 3
0.380502 0.222385 0.950290 5986911 3
0.390718 0.219360 0.937366 5526612 3
0.390686 0.211030 0.901769 4539969 3
0.356700 0.243032 0.970433 5658459 3
0.367933 0.239966 0.958191 6250084 3
0.367806 0.230047 0.918583 5855326 3
0.337544 0.256517 0.961256 7237491 3
0.344546 0.250142 0.937366 3947841 3
0.354039 0.246043 0.922007 4473673 3
0.303945 0.270490 0.954868 5592407 3
0.315676 0.267149 0.943076 4539719 3
0.325048 0.262219 0.925669 4803148 3
0.306448 0.274372 0.915507 5395539 3
0.316955 0.270510 0.902622 5132883 3
0.368106 0.234360 1.001464 5921631 3
-0.190191 0.200665 0.997442 5263699 3
-0.197751 0.207778 0.954868 4013884 3
-0.183190 0.209053 0.960726 5132113 3
-0.163406 0.204046 0.937715 5329746 3
-0.145397 0.200445 0.921167 7171950 3
-0.177738 0.218136 0.932133 6842985 3
-0.160416 0.215427 0.920558 5790297 3
-0.142885 0.211844 0.905249 7435122 3
-0.222945 0.200665 0.997442 5724504 3
-0.206568 0.200665 0.997442 6250335 3
-0.284871 0.202831 0.932133 5592405 3
-0.266395 0.200445 0.921167 5592657 3
-0.212135 0.206519 0.949081 5132365 3
-0.295421 0.194472 0.966657 5723993 3
-0.286627 0.199395 0.991129 6842981 3
-0.270354 0.199395 0.991129 6382430 3
-0.254080 0.199395 0.991129 5528152 3
-0.237807 0.199395 0.991129 4869709 3
-0.248348 0.198114 0.910456 6645602 3
-0.299085 0.155194 0.771421 5526353 3
-0.287837 0.155962 0.775240 5197134 3
-0.291895 0.163825 0.752877 6775650 3
-0.279534 0.163825 0.752877 6117722 3
-0.287576 0.173580 0.741737 6776417 3
-0.272972 0.172051 0.735204 6249304 3
-0.263463 0.173740 0.742425 6907238 3
-0.257676 0.178168 0.761342 7170926 3
-0.285043 0.184122 0.735204 8421494 3
-0.270366 0.182364 0.728184 7829105 3
-0.257277 0.181565 0.724993 8881026 3
-0.248934 0.184199 0.735512 8025719 3
-0.246084 0.191374 0.764163 6907238 3
-0.235467 0.192956 0.770478 7433580 3
-0.225102 0.194935 0.778381 6908006 3
-0.214653 0.197075 0.786927 7368555 3
-0.201732 0.197075 0.786927 5658450 3
-0.292988 0.193468 0.724993 6250586 3
-0.280844 0.193303 0.724372 7368806 3
-0.265493 0.190818 0.715061 7500140 3
-0.253753 0.190818 0.715061 9012612 3
-0.243616 0.192083 0.719801 8946821 3
-0.234216 0.194087 0.727311 9012101 3
-0.224100 0.195681 0.733283 8222583 3
-0.237883 0.199102 0.702860 8156790 3
0.685455 0.166283 0.899991 3551290 3
0.677666 0.179002 0.889764 3287091 3
0.673151 0.174058 0.865185 3617083 3
0.679844 0.172155 0.855729 2762544 3
0.666846 0.194718 0.894848 6313567 3
0.658946 0.188263 0.865185 6905704 3
0.651553 0.182223 0.837425 4735305 3
0.668879 0.183202 0.841927 3288888 3
0.690124 0.185194 0.851078 2894643 3
0.650428 0.199851 0.854001 5261649 3
0.659494 0.198361 0.847631 5853785 3
0.669105 0.197092 0.842211 6643561 3
0.686162 0.198024 0.846193 3486778 3
0.696294 0.196960 0.841646 2303016 3
-0.054187 0.233332 1.262890 4868943 3
-0.033452 0.233332 1.262890 3881789 3
-0.092669 0.246128 1.223425 6644317 3
-0.072581 0.246128 1.223425 4605510 3
-0.052494 0.246128 1.223425 4473926 3
-0.032406 0.246128 1.223425 3552824 3
-0.012319 0.246128 1.223425 3026478 3
-0.386504 0.146869 0.794916 5658450 3
-0.369699 0.145393 0.786927 6382173 3
-0.358581 0.146127 0.790901 5987674 3
-0.349121 0.147619 0.798972 5395539 3
-0.393563 0.157522 0.782992 6645091 3
-0.378813 0.156738 0.779097 5263692 3
-0.364209 0.155962 0.775240 5987415 3
-0.353229 0.156738 0.779097 5723989 3
-0.338751 0.155962 0.775240 7434609 3
-0.326023 0.155962 0.775240 5789786 3
-0.313294 0.155962 0.775240 5658198 3
-0.399309 0.162265 0.745707 6841959 3
-0.396506 0.166222 0.763895 5986652 3
-0.385846 0.167037 0.767639 8355452 3
-0.373242 0.167037 0.767639 8421243 3
-0.358879 0.166222 0.763895 7697522 3
-0.346337 0.166222 0.763895 7697268 3
-0.332174 0.165416 0.760186 6710375 3
-0.319692 0.165416 0.760186 5066063 3
-0.305727 0.164616 0.756514 6710884 3
-0.397848 0.168697 0.720873 6052954 3
-0.388444 0.169760 0.725416 5723478 3
-0.381169 0.171850 0.734347 7170156 3
-0.373829 0.174046 0.743731 7433580 3
-0.365517 0.175923 0.751751 6183513 3
-0.353703 0.176187 0.752877 4933448 3
-0.341341 0.176187 0.752877 5393745 3
-0.328980 0.176187 0.752877 6051675 3
-0.316618 0.176187 0.752877 6644582 3
-0.302175 0.174981 0.747727 7829365 3
-0.387317 0.175754 0.701792 5066059 3
-0.379761 0.177610 0.709200 5131852 3
-0.375344 0.181097 0.723125 7565168 3
-0.367389 0.183049 0.730919 8815235 3
-0.358737 0.184774 0.737807 6775652 3
-0.348882 0.185978 0.742616 7236717 3
-0.339607 0.187590 0.749052 9276300 3
-0.325847 0.186752 0.745707 7763061 3
-0.313603 0.186752 0.745707 7171437 3
-0.300201 0.186035 0.742841 7237481 3
-0.388539 0.187868 0.704006 5723732 3
-0.330473 0.187714 0.703430 4473922 3
-0.329106 0.193708 0.725890 5394513 3
-0.323351 0.197472 0.739995 6841959 3
-0.310745 0.197183 0.738911 5789782 3
-0.484870 0.103703 0.561285 6579298 3
-0.477365 0.104076 0.563304 5065802 3
-0.469806 0.104452 0.565337 4933962 3
-0.460524 0.104452 0.565337 3289137 3
-0.451242 0.104452 0.565337 6118238 3
-0.445174 0.105212 0.569449 6841959 3
-0.440631 0.106372 0.575729 6314847 3
-0.440904 0.108772 0.588716 4735558 3
-0.479712 0.111718 0.555314 5526610 3
-0.472269 0.112115 0.557290 4605251 3
-0.464773 0.112516 0.559280 5855064 3
-0.455590 0.112516 0.559280 8026233 3
-0.446407 0.112516 0.559280 9539474 3
-0.438791 0.112919 0.561285 6578273 3
-0.429576 0.112919 0.561285 9012103 3
-0.435987 0.117117 0.582150 9340814 3
-0.476334 0.119985 0.551403 4539204 3
-0.468931 0.120409 0.553351 5855318 3
-0.463119 0.121266 0.557290 8684163 3
-0.453969 0.121266 0.557290 9144200 3
-0.444819 0.121266 0.557290 8551809 3
-0.437224 0.121699 0.559280 7433069 3
-0.429576 0.122135 0.561285 8748677 3
-0.426474 0.123911 0.569449 8420226 3
-0.429623 0.127624 0.586511 6381412 3
-0.461093 0.127330 0.544102 6315869 3
-0.458939 0.129239 0.552260 7960440 3
-0.452359 0.129953 0.555314 7170410 3
-0.444326 0.130271 0.556672 4143421 3
-0.435668 0.130416 0.557290 7827829 3
-0.428717 0.131088 0.560162 9669779 3
-0.425429 0.132935 0.568054 9209742 3
-0.426842 0.136366 0.582714 7763322 3
-0.426803 0.139480 0.596022 5724250 3
-0.449965 0.132975 0.530971 6052443 3
-0.454744 0.137042 0.547212 7894131 3
-0.449272 0.138122 0.551525 8485755 3
-0.441773 0.138610 0.553474 6379613 3
-0.434123 0.139071 0.555314 8418942 3
-0.426141 0.139442 0.556797 9538193 3
-0.422365 0.141237 0.563962 8880776 3
-0.422709 0.144520 0.577072 6973806 3
-0.422475 0.147752 0.589977 5855836 3
-0.442077 0.144820 0.542691 8354169 3
-0.435614 0.145639 0.545758 9012103 3
-0.428052 0.146116 0.547547 8550528 3
-0.419246 0.146180 0.547788 9011849 3
-0.416272 0.148325 0.555826 7697272 3
-0.413741 0.150728 0.564830 5065809 3
-0.410692 0.153048 0.573523 4539719 3
-0.409409 0.156150 0.585148 6710888 3
-0.402908 0.157363 0.589694 4342086 3
-0.426331 0.151305 0.534127 9538445 3
-0.421694 0.152803 0.539415 8419196 3
-0.413281 0.152967 0.539995 6906727 3
-0.410658 0.155328 0.548330 6578019 3
-0.410778 0.158856 0.560784 7565684 3
-0.405384 0.160365 0.566110 5723478 3
-0.404624 0.165546 0.552384 7367535 3
0.628660 0.167911 0.997442 3879225 3
0.605519 0.177504 0.960726 4931652 3
0.629011 0.179710 0.972661 4209214 3
0.657228 0.183122 0.991129 4077374 3
0.673501 0.183122 0.991129 4735818 3
0.676922 0.179710 0.972661 4736334 3
0.692892 0.179710 0.972661 4736334 3
0.687511 0.174297 0.943364 4933197 3
0.601827 0.192100 0.954868 7563372 3
0.621293 0.193279 0.960726 6642783 3
0.641000 0.194472 0.966657 4142651 3
0.660952 0.195680 0.972661 4604232 3
0.668616 0.193279 0.960726 4736847 3
0.680217 0.192100 0.954868 4867918 3
0.683394 0.188649 0.937715 4735818 3
0.686459 0.185320 0.921167 4800328 3
0.652372 0.199273 0.915780 4539466 3
0.667408 0.199273 0.915780 4670025 3
0.481267 0.167911 0.997442 7958382 3
0.497644 0.167911 0.997442 6444115 3
0.475213 0.181970 0.984896 6446172 3
0.491384 0.181970 0.984896 7563113 3
0.429401 0.199395 0.991129 5723991 3
0.434670 0.194472 0.966657 5789784 3
0.445047 0.192100 0.954868 5987163 3
0.460725 0.192100 0.954868 6118236 3
0.482285 0.194472 0.966657 7103336 3
0.498156 0.194472 0.966657 8547962 3
-0.189285 0.225317 1.338448 3092784 3
-0.173232 0.233292 1.385827 4803148 3
-0.104970 0.233292 1.385827 4342336 3
-0.168751 0.249424 1.349986 4869963 3
-0.104970 0.256046 1.385827 5393995 3
-0.141700 0.262537 1.304987 4407880 3
-0.292575 0.180562 1.072592 4737605 3
-0.274964 0.180562 1.072592 5461846 3
-0.260927 0.183070 1.087489 6053469 3
-0.223663 0.181807 1.079989 5395028 3
-0.294072 0.187878 1.016873 3355954 3
-0.282887 0.191611 1.037076 3554101 3
-0.265859 0.191611 1.037076 4540998 3
-0.248831 0.191611 1.037076 3949120 3
-0.231803 0.191611 1.037076 4277058 3
-0.214776 0.191611 1.037076 4868682 3
0.783435 0.184911 0.790159 3157561 3
0.717093 0.166496 0.711466 3552062 3
0.774650 0.198961 0.794455 4276036 3
0.767083 0.193755 0.773667 3684159 3
0.668607 0.199806 0.748740 3552573 3
0.668156 0.196066 0.734725 4078404 3
0.641486 0.199822 0.705398 3881023 3
0.652345 0.199600 0.704618 3289399 3
-0.059993 0.212418 1.398200 3617851 3
-0.036386 0.208692 1.373670 3355191 3
-0.013593 0.205094 1.349986 3092019 3
-0.080090 0.227259 1.349986 3684408 3
-0.055993 0.219684 1.304987 3552571 3
-0.034567 0.219684 1.304987 4342340 3
-0.013140 0.219684 1.304987 3553081 3
-0.080786 0.251593 1.361725 4013375 3
-0.013140 0.241110 1.304987 3552822 3
-0.476824 0.108634 0.715061 5066313 3
-0.467217 0.109132 0.718341 5263440 3
-0.466113 0.111694 0.735204 3816507 3
-0.451920 0.111172 0.731768 3619896 3
-0.473064 0.119552 0.786927 7040362 3
-0.456741 0.118215 0.702235 5197645 3
-0.455422 0.120927 0.718341 4869193 3
-0.443628 0.120927 0.718341 5330514 3
-0.431834 0.120927 0.718341 5987674 3
-0.444507 0.127971 0.760186 6447716 3
-0.445211 0.129745 0.702235 5987422 3
-0.437606 0.130920 0.708590 5527125 3
-0.427908 0.131515 0.711811 6184542 3
-0.425900 0.134573 0.728365 5132367 3
-0.432026 0.140453 0.760186 6710884 3
-0.421591 0.141138 0.763895 7500400 3
-0.419275 0.144666 0.782992 8289405 3
-0.424053 0.141912 0.705398 5855577 3
-0.418121 0.143856 0.715061 5395539 3
-0.417828 0.147908 0.735204 7105642 3
-0.411553 0.150021 0.745707 6184540 3
-0.409049 0.153680 0.763895 6907752 3
-0.404397 0.156738 0.779097 6052958 3
-0.414337 0.154188 0.708590 5921883 3
-0.412025 0.157757 0.724993 6579298 3
-0.405757 0.159979 0.735204 5723989 3
-0.403394 0.166107 0.709807 5197645 3
-0.472271 0.102547 0.674993 5724502 3
-0.467230 0.103890 0.683836 5592657 3
-0.459923 0.103381 0.614111 5130827 3
-0.466298 0.107163 0.636579 6644582 3
-0.461473 0.108486 0.644438 5790297 3
-0.464266 0.111704 0.663553 4671814 3
-0.457246 0.112658 0.669224 4737094 3
-0.458002 0.115623 0.686835 4803141 3
-0.460680 0.116198 0.628909 6710375 3
-0.452170 0.116666 0.631445 5329233 3
-0.449045 0.118579 0.641797 4606023 3
-0.442131 0.119559 0.647101 4737096 3
-0.444359 0.123120 0.666376 5723991 3
-0.439023 0.124712 0.674993 5724504 3
-0.441189 0.121171 0.602302 8749958 3
-0.448552 0.126018 0.626394 5066574 3
-0.443591 0.127548 0.634002 6119262 3
-0.436717 0.128589 0.639177 4671303 3
-0.442477 0.133493 0.663553 6908265 3
-0.437139 0.135212 0.672096 5987422 3
-0.439301 0.139400 0.692913 6382180 3
-0.429826 0.140020 0.695993 5329492 3
-0.432965 0.131566 0.604627 5527125 3
-0.438267 0.136302 0.626394 5658711 3
-0.431434 0.137402 0.631445 4276547 3
-0.433297 0.141393 0.649786 6908013 3
-0.433418 0.145003 0.666376 6382182 3
-0.433546 0.148802 0.683836 5197908 3
-0.426039 0.150113 0.689861 5526614 3
-0.420267 0.152123 0.699100 5395028 3
-0.428977 0.143480 0.613116 5263953 3
-0.425963 0.145895 0.623438 7368564 3
-0.420752 0.147659 0.630974 4539466 3
-0.416806 0.149967 0.640835 6315876 3
-0.422334 0.155891 0.666151 5657946 3
-0.418442 0.158561 0.677560 5197395 3
-0.413122 0.160820 0.687215 5855066 3
-0.409033 0.163700 0.699520 7039851 3
-0.421834 0.150990 0.602906 7040110 3
-0.418262 0.153309 0.612166 6447462 3
-0.416255 0.156330 0.624230 5921119 3
-0.411537 0.158460 0.632734 5460310 3
-0.418443 0.165292 0.660014 5460310 3
-0.416640 0.168955 0.674641 6118240 3
-0.411203 0.171305 0.684023 7236978 3
-0.401616 0.172009 0.686835 5921370 3
-0.401444 0.164708 0.617217 7367537 3
-0.401985 0.169201 0.634054 7631477 3
-0.411474 0.177800 0.666277 8157821 3
-0.410669 0.182298 0.683135 7499891 3
-0.402833 0.183841 0.688915 7499889 3
-0.403329 0.195393 0.689764 6513248 3
0.703000 0.174297 0.943364 3484984 3
-0.186430 0.202092 1.491413 3814967 3
-0.137455 0.202092 1.491413 3683129 3
-0.184671 0.224442 1.477344 5130573 3
-0.137455 0.226579 1.491413 7499891 3
-0.109830 0.220286 1.449985 4145472 3
-0.157444 0.244093 1.449985 6184031 3
-0.133637 0.244093 1.449985 3947069 3
-0.157444 0.267900 1.449985 4473672 3
-0.133637 0.267900 1.449985 3419955 3
-0.290904 0.153766 1.134771 4737609 3
-0.282508 0.159546 1.177432 4868682 3
-0.267193 0.161982 1.195408 5262929 3
-0.284714 0.168729 1.110627 4409158 3
-0.272272 0.172397 1.134771 7434609 3
-0.255491 0.173656 1.143054 6841961 3
-0.238464 0.174933 1.151459 5460821 3
-0.226212 0.180234 1.186352 5658711 3
-0.248243 0.186965 1.110627 6184544 3
-0.214820 0.189655 1.126607 5000781 3
-0.205179 0.198211 1.177432 4211011 3
-0.398240 0.145340 1.072592 4672330 3
-0.388614 0.148389 1.095094 4672841 3
-0.370634 0.148389 1.095094 3488569 3
-0.380020 0.155496 1.023519 4540998 3
-0.370479 0.158606 1.043989 4475716 3
-0.358113 0.160749 1.058097 4607820 3
-0.345407 0.162951 1.072592 4080193 3
-0.332349 0.165214 1.087489 5000781 3
-0.314494 0.165214 1.087489 5658709 3
-0.344160 0.171182 1.016873 4672843 3
-0.329604 0.172301 1.023519 4145988 3
-0.316942 0.174583 1.037076 4803402 3
-0.303940 0.176926 1.050996 5856088 3
-0.323266 0.185469 1.003836 4342086 3
-0.308763 0.186666 1.010312 5000527 3
-0.493337 0.078883 0.582150 3157555 3
-0.490140 0.086199 0.567386 5197647 3
-0.486108 0.087146 0.573621 4407618 3
-0.481987 0.088114 0.579994 7170926 3
-0.474220 0.088442 0.582150 6644582 3
-0.468142 0.089104 0.586511 6447203 3
-0.467263 0.090805 0.597704 6447714 3
-0.486614 0.094827 0.563304 5395024 3
-0.480825 0.095515 0.567386 5723732 3
-0.476690 0.096564 0.573621 6381408 3
-0.467272 0.096564 0.573621 4407618 3
-0.459537 0.096919 0.575729 4736585 3
-0.458512 0.098734 0.586511 4933962 3
-0.452270 0.099479 0.590937 4801862 3
-0.389684 0.110346 0.926618 3882298 3
-0.382887 0.123370 0.910456 4408642 3
-0.395534 0.132623 0.978740 4211265 3
-0.372267 0.139946 0.921167 3882300 3
-0.386715 0.151534 0.997442 4342851 3
-0.363558 0.157857 0.937715 5723989 3
-0.361137 0.163739 0.972661 5395278 3
-0.351721 0.166848 0.991129 4540226 3
-0.352382 0.175353 0.949081 5460560 3
-0.343036 0.178600 0.966657 5000266 3
-0.337584 0.184288 0.997442 5131852 3
-0.334770 0.189786 0.943364 5526099 3
-0.319281 0.189786 0.943364 4473926 3
-0.311293 0.194472 0.966657 4605258 3
-0.308143 0.198114 0.910456 8881546 3
-0.388794 0.105957 0.889764 3948607 3
-0.393423 0.113474 0.837425 4342597 3
-0.381715 0.114084 0.841927 4869709 3
-0.384426 0.119212 0.879766 3685689 3
-0.391331 0.126547 0.832970 4540230 3
-0.377654 0.126547 0.832970 4343619 3
-0.369880 0.128599 0.846478 4343619 3
-0.367914 0.132910 0.874852 4803402 3
-0.377283 0.135190 0.803069 6185823 3
-0.364097 0.135190 0.803069 6317407 3
-0.360146 0.138748 0.824202 5725018 3
-0.354068 0.141731 0.841927 7303282 3
-0.349643 0.145647 0.865185 4211265 3
-0.337726 0.148376 0.803069 5460821 3
-0.329612 0.150694 0.815617 5131854 3
-0.341091 0.162546 0.879766 6118488 3
-0.319378 0.195837 0.899991 7828856 3
-0.488996 0.102464 0.860431 5065548 3
-0.480145 0.103603 0.869991 4407872 3
-0.465861 0.103603 0.869991 5460819 3
-0.456650 0.104767 0.879766 3354932 3
-0.434876 0.103030 0.865185 3552311 3
-0.416073 0.101904 0.855729 3158066 3
-0.488996 0.116592 0.860431 7960440 3
-0.477493 0.117236 0.865185 5789525 3
-0.465861 0.117887 0.869991 6184542 3
-0.454099 0.118546 0.874852 5197649 3
-0.432487 0.116592 0.860431 5000270 3
-0.416073 0.115954 0.855729 4473926 3
-0.489671 0.127224 0.837425 5789273 3
-0.483681 0.129298 0.851078 7631475 3
-0.472274 0.130005 0.855729 8223866 3
-0.458224 0.130005 0.855729 7960440 3
-0.446614 0.130719 0.860431 6645093 3
-0.427786 0.129298 0.851078 5395026 3
-0.409362 0.127908 0.841927 5658711 3
-0.473390 0.140224 0.832970 8487297 3
-0.464657 0.141731 0.841927 8421245 3
-0.450833 0.141731 0.841927 8157819 3
-0.441760 0.143272 0.851078 6052956 3
-0.418684 0.140224 0.832970 6185053 3
-0.400744 0.138748 0.824202 5000779 3
-0.421159 0.149913 0.811391 7566195 3
-0.405735 0.149140 0.807208 6513505 3
-0.525603 0.101350 0.851078 5001297 3
-0.514425 0.101904 0.855729 5132367 3
-0.503124 0.102464 0.860431 5788503 3
-0.528475 0.115954 0.855729 4474951 3
-0.514425 0.115954 0.855729 5527123 3
-0.500374 0.115954 0.855729 6710375 3
-0.498736 0.081080 0.680863 4407879 3
-0.491834 0.081792 0.686835 3355705 3
-0.494436 0.091464 0.674993 4605258 3
-0.483354 0.091464 0.674993 3684667 3
-0.489138 0.094731 0.699100 4474183 3
-0.477659 0.094731 0.699100 4342338 3
-0.468170 0.092933 0.611713 5131341 3
-0.472905 0.095931 0.631445 5130573 3
-0.472055 0.097905 0.644438 5657687 3
-0.469197 0.099543 0.655223 6185055 3
0.527041 0.150575 0.991129 8415601 3
0.539897 0.149628 0.984896 8285559 3
0.552593 0.148693 0.978740 5457749 3
0.514021 0.167911 0.997442 7494497 3
0.523726 0.165799 0.984896 9006970 3
0.536523 0.164763 0.978740 8744828 3
0.549161 0.163739 0.972661 8219513 3
0.561642 0.162729 0.966657 8548476 3
0.570471 0.160744 0.954868 4536383 3
0.589745 0.161730 0.960726 3813173 3
0.507555 0.181970 0.984896 7297635 3
0.514028 0.178600 0.966657 7099492 3
0.526648 0.177504 0.960726 9336713 3
0.539115 0.176422 0.954868 9995154 3
0.551431 0.175353 0.949081 9008510 3
0.563598 0.174297 0.943364 8482420 3
0.575619 0.173253 0.937715 8220275 3
0.504682 0.190936 0.949081 7692401 3
0.520265 0.190936 0.949081 7956343 3
0.535848 0.190936 0.949081 8877443 3
0.548109 0.189786 0.943364 8285557 3
0.560223 0.188649 0.937715 8811383 3
0.572193 0.187526 0.932133 8022896 3
0.507338 0.137790 1.016873 8613744 3
0.524034 0.137790 1.016873 8548211 3
0.500834 0.152505 1.003836 8482669 3
0.517316 0.152505 1.003836 8021095 3
0.486585 0.141464 1.043989 7232353 3
0.493849 0.138691 1.023519 8547952 3
0.453293 0.165214 1.087489 8351861 3
0.452302 0.158606 1.043989 8154482 3
0.463267 0.156519 1.030253 7891308 3
0.477044 0.155496 1.023519 6246483 3
0.484352 0.152505 1.003836 7035739 3
0.438482 0.184350 1.095094 4800579 3
0.441041 0.178122 1.058097 7497579 3
0.446351 0.173434 1.030253 6971489 3
0.460239 0.172301 1.023519 8484215 3
0.473946 0.171182 1.016873 8418681 3
0.426551 0.196825 1.065295 5328206 3
0.435161 0.192888 1.043989 4933448 3
0.446351 0.190350 1.030253 5919830 3
0.457250 0.187878 1.016873 7104104 3
0.467870 0.185469 1.003836 7828340 3
-0.014079 0.143547 1.398200 2828847 3
-0.013954 0.165031 1.385827 2697262 3
-0.059993 0.189461 1.398200 3946816 3
-0.036386 0.186137 1.373670 4276036 3
-0.013712 0.184519 1.361725 2763055 3
-0.562320 0.079019 0.663553 2697004 3
-0.569488 0.083252 0.699100 3552311 3
-0.558009 0.083252 0.699100 2762795 3
-0.532273 0.081080 0.680863 3158066 3
-0.521094 0.081080 0.680863 3487031 3
-0.505519 0.080381 0.674993 1710109 3
-0.569488 0.094731 0.699100 3947069 3
-0.558009 0.094731 0.699100 3552311 3
-0.527685 0.091464 0.674993 3947580 3
-0.516602 0.091464 0.674993 5855066 3
-0.501198 0.090682 0.669224 5657687 3
-0.227406 0.112551 1.304987 6381669 3
-0.211261 0.115437 1.338448 2434089 3
-0.229317 0.135103 1.315953 4342340 3
-0.214935 0.139802 1.361725 3092019 3
-0.233237 0.159389 1.338448 4211011 3
-0.216821 0.163583 1.373670 4210500 3
-0.237293 0.184519 1.361725 4145218 3
-0.282277 0.108920 1.262890 5723991 3
-0.261541 0.108920 1.262890 2829099 3
-0.244754 0.110706 1.283594 4473926 3
-0.282277 0.129655 1.262890 3947321 3
-0.261541 0.129655 1.262890 4210493 3
-0.244754 0.131781 1.283594 4539717 3
-0.280019 0.149188 1.252787 4736069 3
-0.263668 0.151614 1.273158 5855066 3
-0.246776 0.154120 1.294202 4277058 3
-0.251404 0.164493 1.213941 4999757 3
-0.242764 0.172518 1.273158 3816507 3
-0.223678 0.195007 1.283594 3487288 3
-0.382866 0.108049 1.252787 3092532 3
-0.359421 0.107191 1.242845 1907746 3
-0.339015 0.107191 1.242845 1973538 3
-0.331774 0.111621 1.294202 2500136 3
-0.305476 0.109806 1.273158 2236962 3
-0.393980 0.125604 1.223425 4013884 3
-0.368141 0.123671 1.204603 3158323 3
-0.348362 0.123671 1.204603 2565675 3
-0.326380 0.130710 1.273158 4144446 3
-0.305476 0.130710 1.273158 6052697 3
-0.308805 0.143450 1.204603 3355956 3
-0.300588 0.149188 1.252787 2894379 3
-0.398501 0.101549 1.177432 1973790 3
-0.392597 0.119091 1.159988 3158575 3
-0.323605 0.121798 1.186352 3092273 3
-0.384063 0.135134 1.134771 3883068 3
-0.368098 0.136120 1.143054 3816507 3
-0.354506 0.138137 1.159988 3684921 3
-0.335460 0.138137 1.159988 3026991 3
-0.321172 0.140214 1.177432 4079425 3
-0.355137 0.149434 1.102806 3619128 3
-0.339420 0.150494 1.110627 6119262 3
-0.321185 0.150494 1.110627 5329746 3
-0.307309 0.152659 1.126607 3684921 3
-0.302950 0.168729 1.110627 5000779 3
-0.433903 0.100792 1.168645 3223859 3
-0.417833 0.101549 1.177432 4144959 3
-0.475830 0.120882 1.177432 3487288 3
-0.453091 0.119980 1.168645 3750460 3
-0.433903 0.119980 1.168645 3290163 3
-0.411643 0.119091 1.159988 3487540 3
-0.430597 0.132259 1.110627 3158323 3
-0.418295 0.134162 1.126607 4277572 3
-0.402695 0.135134 1.134771 4540998 3
-0.086022 0.101249 1.449985 2303268 3
-0.062215 0.101249 1.449985 6842474 3
-0.038055 0.100320 1.436683 5000270 3
-0.086022 0.125056 1.449985 5000268 3
-0.062215 0.125056 1.449985 4868171 3
-0.038055 0.123909 1.436683 2960174 3
-0.014206 0.121676 1.410797 3882048 3
-0.086022 0.148864 1.449985 3750201 3
-0.062215 0.148864 1.449985 3223346 3
-0.037709 0.146157 1.423622 2368037 3
-0.085233 0.171087 1.436683 3552309 3
-0.061084 0.169531 1.423622 3881278 3
-0.037370 0.168004 1.410797 3618106 3
-0.083697 0.191168 1.410797 2697000 3
-0.111902 0.103159 1.477344 2895154 3
-0.111902 0.127416 1.477344 4342086 3
-0.186430 0.153117 1.491413 3486520 3
-0.110856 0.150255 1.463537 3158066 3
-0.184671 0.175929 1.477344 3814967 3
-0.137455 0.177604 1.491413 3354164 3
-0.109830 0.172671 1.449985 3421238 3
-0.108822 0.194676 1.436683 2829101 3
-0.188223 0.105143 1.505754 4802380 3
-0.163500 0.105143 1.505754 2565925 3
-0.138777 0.105143 1.505754 2039331 3
-0.190050 0.131127 1.520373 2631211 3
-0.163500 0.129866 1.505754 2499875 3
-0.138777 0.129866 1.505754 3289398 3
-0.163500 0.154589 1.505754 3092012 3
-0.138777 0.154589 1.505754 2236451 3
-0.163500 0.179312 1.505754 3156783 3
-0.203178 0.100320 1.436683 2302503 3
-0.206975 0.126225 1.463537 3092273 3
-0.206975 0.150255 1.463537 3552824 3
-0.205059 0.172671 1.449985 4144446 3
-0.226767 0.194676 1.436683 3684156 3
-0.206975 0.198315 1.463537 4144446 3
-0.509613 0.086737 0.728365 2303016 3
-0.511826 0.093711 0.786927 3026226 3
-0.486324 0.087854 0.855729 4276034 3
-0.477493 0.088825 0.865185 2434341 3
-0.463287 0.088825 0.865185 2434343 3
-0.451576 0.089318 0.869991 1906718 3
-0.434876 0.088825 0.865185 1972511 3
-0.418359 0.088337 0.860431 2564649 3
-0.528096 0.085517 0.832970 1447454 3
-0.525603 0.087376 0.851078 2302506 3
-0.511629 0.087376 0.851078 2894383 3
-0.500374 0.087854 0.855729 2959406 3
-0.522537 0.098150 0.824202 3684669 3
-0.086022 0.077442 1.449985 1052947 3
-0.062215 0.077442 1.449985 2697515 3
-0.014206 0.098513 1.410797 2303016 3
-0.179589 0.053142 1.436683 1776413 3
-0.158916 0.054136 1.463537 3618363 3
-0.136158 0.054646 1.477344 1841953 3
-0.182946 0.078165 1.463537 2039585 3
-0.161943 0.079654 1.491413 4605510 3
-0.137455 0.079654 1.491413 1644574 3
-0.110856 0.078165 1.463537 1447454 3
-0.209471 0.049089 1.327105 1248022 3
-0.207711 0.070283 1.315953 1315096 3
-0.207711 0.091890 1.315953 1841953 3
-0.280019 0.046340 1.252787 4342087 3
-0.259449 0.046340 1.252787 1512988 3
-0.242764 0.047094 1.273158 1053464 3
-0.225527 0.047872 1.294202 1447197 3
-0.280019 0.066910 1.252787 2303016 3
-0.259449 0.066910 1.252787 4145220 3
-0.242764 0.067998 1.273158 1908258 3
-0.223678 0.068555 1.283594 5065810 3
-0.280019 0.087479 1.252787 4342340 3
-0.259449 0.087479 1.252787 1907999 3
-0.242764 0.088902 1.273158 1973792 3
-0.223678 0.089630 1.283594 1776159 3
-0.305476 0.067998 1.273158 3026739 3
-0.365218 0.088185 1.262890 2367786 3
-0.347284 0.088902 1.273158 1446682 3
-0.331774 0.090371 1.294202 1249815 3
-0.305476 0.088902 1.273158 3158066 3
0.007768 0.246128 1.223425 2368548 3
0.008499 0.203341 1.338448 2697262 3
0.030217 0.201617 1.327105 4013634 3
0.008356 0.221530 1.315953 3947328 3
0.008427 0.245197 1.327105 3750203 3
0.029713 0.241110 1.304987 4539979 3
0.029963 0.264743 1.315953 4671564 3
0.051140 0.262537 1.304987 7435648 3
0.048634 0.219032 0.874599 5462357 3
0.062619 0.217728 0.869394 6777960 3
0.076153 0.215633 0.861028 5789784 3
0.020475 0.239967 0.899238 6317155 3
0.033718 0.229611 0.860431 6186082 3
0.047312 0.227051 0.850838 6120030 3
0.060968 0.225887 0.846478 5460558 3
0.074867 0.225887 0.846478 10129812 3
0.089158 0.226887 0.850225 5855066 3
0.005458 0.243491 0.859559 6908778 3
0.019273 0.239786 0.846478 6382948 3
0.033296 0.240682 0.849641 6449252 3
0.046976 0.239307 0.844787 6908776 3
0.060620 0.238417 0.841646 9143939 3
0.074091 0.237301 0.837706 10654614 3
0.088616 0.239383 0.845056 7169129 3
0.005328 0.251481 0.839128 6842983 3
0.018960 0.249567 0.832739 6909546 3
0.032588 0.249223 0.831593 6777960 3
0.045819 0.246940 0.823976 6711138 3
0.058842 0.244835 0.816951 7433833 3
0.072445 0.245478 0.819095 8680824 3
0.087204 0.249223 0.831593 7497579 3
0.005179 0.257827 0.815617 7763574 3
0.018247 0.253328 0.801385 7303023 3
0.085390 0.257409 0.814296 6775139 3
0.099771 0.260043 0.822627 8354684 3
0.005126 0.268422 0.807208 7566193 3
0.070916 0.266626 0.801805 7433582 3
0.085529 0.271219 0.815617 7236203 3
0.099636 0.273181 0.821519 8092026 3
0.006176 0.211650 0.972661 5659225 3
0.022010 0.210343 0.966657 6053983 3
0.006122 0.225614 0.964090 5791322 3
0.021553 0.221523 0.946606 6580838 3
0.036583 0.218463 0.933533 6449254 3
0.051584 0.217090 0.927665 6647403 3
0.067847 0.220439 0.941977 6053985 3
0.006047 0.238507 0.952363 7435636 3
0.021360 0.234937 0.938109 7106671 3
0.035552 0.227202 0.907223 5792094 3
0.005912 0.248472 0.931111 6316641 3
0.008800 0.119523 1.385827 2368550 3
0.031005 0.117444 1.361725 3684410 3
0.052006 0.114458 1.327105 2302503 3
0.073176 0.113496 1.315953 2631468 3
0.008722 0.141029 1.373670 2566188 3
0.031005 0.139802 1.361725 4013634 3
0.052006 0.136248 1.327105 2697774 3
0.008647 0.162161 1.361725 2434090 3
0.030738 0.160763 1.349986 3158323 3
0.052006 0.158038 1.327105 2830130 3
0.008572 0.182928 1.349986 3618364 3
0.030475 0.181365 1.338448 4079425 3
0.031005 0.072728 1.361725 4473924 3
0.052451 0.071485 1.338448 2960687 3
0.073176 0.070283 1.315953 3947328 3
0.008800 0.096769 1.385827 2565927 3
0.031005 0.095086 1.361725 3750201 3
0.052451 0.093461 1.338448 3355445 3
0.073796 0.092669 1.327105 5526360 3
0.610065 0.205275 0.943364 7037541 3
0.625554 0.205275 0.943364 7761264 3
0.644928 0.206519 0.949081 6183263 3
0.652601 0.204046 0.937715 4144710 3
0.620051 0.213535 0.912472 6841961 3
0.632044 0.212529 0.908176 4605772 3
0.652886 0.196285 0.692913 4342086 3
0.664263 0.196285 0.692913 3750203 3
0.681889 0.198100 0.699322 2499882 3