# .PCD v0.7 - Point Cloud Data file format
VERSION 0.7
FIELDS x y z rgb label
SIZE 4 4 4 4 4
TYPE F F F U U
COUNT 1 1 1 1 1
WIDTH 1222
HEIGHT 1
VIEWPOINT 0 0 0 1 0 0 0
POINTS 1222
DATA ascii
0.304968 0.245369 0.591782 8222844 3
0.315426 0.245947 0.593176 8222844 3
0.324322 0.245309 0.591637 8420223 3
0.335546 0.246418 0.594312 8289405 3
0.348606 0.248774 0.599994 8223612 3
0.358457 0.248774 0.599994 8355198 3
0.300929 0.251706 0.583943 9275786 3
0.312981 0.253704 0.588578 7762293 3
0.321512 0.252813 0.586511 7828856 3
0.332076 0.253526 0.588166 7763063 3
0.344238 0.255384 0.592476 7566195 3
0.354383 0.255686 0.593176 7368303 3
0.363178 0.255023 0.591637 7039340 3
0.374399 0.256053 0.594027 6776168 3
0.387276 0.258135 0.598858 5855068 3
0.311809 0.262382 0.586374 7893881 3
0.320387 0.261525 0.584459 8486019 3
0.331998 0.263121 0.588027 8223616 3
0.342053 0.263430 0.588716 7039851 3
0.351719 0.263430 0.588716 6776679 3
0.360371 0.262690 0.587063 7697783 3
0.368282 0.261464 0.584322 5921372 3
0.378938 0.262199 0.585965 5263188 3
0.390383 0.263430 0.588716 5066063 3
0.309563 0.270050 0.582150 8025467 3
0.319196 0.270113 0.582286 7697017 3
0.330756 0.271756 0.585827 7828858 3
0.339898 0.271375 0.585006 8552577 3
0.349993 0.271756 0.585827 7039853 3
0.358191 0.270682 0.583513 6381923 3
0.366828 0.269988 0.582016 5263442 3
0.375252 0.269175 0.580265 5460567 3
0.387470 0.271058 0.584322 7105646 3
0.398757 0.272214 0.586814 5328720 3
0.484565 0.237960 0.597578 4802378 3
0.495196 0.238354 0.598568 6315619 3
0.475422 0.248121 0.598420 5658198 3
0.464271 0.257212 0.596716 5395026 3
0.471145 0.255626 0.593036 6514020 3
0.477719 0.253944 0.589135 6842472 3
0.483523 0.251929 0.584459 4737098 3
0.494967 0.252872 0.586649 5197136 3
0.402521 0.265057 0.592352 6118236 3
0.184453 0.200547 0.525283 8288639 3
0.195577 0.203144 0.532083 9473679 3
0.104982 0.205552 0.516192 10326939 3
0.113223 0.205127 0.515126 9669779 3
0.121134 0.204206 0.512812 10197404 3
0.129262 0.203745 0.511655 9079434 3
0.137215 0.203082 0.509989 8946567 3
0.144793 0.201972 0.507203 9670290 3
0.152165 0.200712 0.504039 14012630 3
0.194915 0.211162 0.530282 9341325 3
0.237326 0.200145 0.547788 10393756 3
0.265124 0.215424 0.589606 7695219 3
0.204530 0.203359 0.532648 8684674 3
0.213367 0.203446 0.532876 8881796 3
0.224699 0.205812 0.539073 9538958 3
0.236707 0.208594 0.546359 9340814 3
0.260317 0.221024 0.578917 10458526 3
0.275751 0.225880 0.591637 10589599 3
0.286007 0.226309 0.592759 10063768 3
0.203793 0.211341 0.530730 9934230 3
0.211924 0.210761 0.529274 8355200 3
0.223692 0.213700 0.536656 9078153 3
0.235319 0.216289 0.543157 9406607 3
0.247638 0.219301 0.550720 10788261 3
0.264717 0.226167 0.567963 9932182 3
0.280773 0.231722 0.581912 10393502 3
0.294695 0.235208 0.590666 9472913 3
0.234306 0.224237 0.540817 7696503 3
0.247582 0.228292 0.550595 7893882 3
0.262978 0.233945 0.564231 7630196 3
0.276661 0.237742 0.573389 8486018 3
0.290992 0.241829 0.583244 8420223 3
0.273211 0.244075 0.566239 7762293 3
0.286330 0.247377 0.573900 8222844 3
0.296743 0.257660 0.575821 7762293 3
0.201857 0.191155 0.574847 7304561 3
0.207997 0.188171 0.565873 7370608 3
0.203486 0.193180 0.553602 7436147 3
0.209247 0.190155 0.544933 7304302 3
0.206331 0.196327 0.537337 7369327 3
0.214142 0.195404 0.534811 9210507 3
0.226750 0.198759 0.543994 10065302 3
0.532324 0.220941 0.698932 4605261 3
0.516970 0.230687 0.693728 4868181 3
0.518398 0.216982 0.652514 4605259 3
0.516848 0.211953 0.637391 3815743 3
0.535694 0.215321 0.647520 2894643 3
0.550665 0.217032 0.652664 4013124 3
0.557104 0.226012 0.647691 3157561 3
0.503158 0.226715 0.620507 6776170 3
0.516295 0.228017 0.624073 5394262 3
0.528500 0.228865 0.626394 4736332 3
0.540273 0.229497 0.628123 5197144 3
0.564501 0.235297 0.643997 4209990 3
0.500588 0.231015 0.605087 6906986 3
0.516368 0.233660 0.612014 5591126 3
0.530431 0.235442 0.616682 4144195 3
0.516327 0.239038 0.600284 5065297 3
0.540112 0.245365 0.616174 4078657 3
0.544712 0.257658 0.621422 5328722 3
0.198230 0.207568 0.656626 8092280 3
0.162585 0.200943 0.604283 9276300 3
0.174076 0.202772 0.609782 9013128 3
0.186125 0.205016 0.616529 8881796 3
0.196248 0.205016 0.616529 9605776 3
0.117091 0.181995 0.575729 9011079 3
0.127514 0.183391 0.580144 8157051 3
0.100768 0.179229 0.538983 10786978 3
0.110203 0.180187 0.541863 9208712 3
0.121486 0.183796 0.552719 12433596 3
0.132912 0.187107 0.562673 8815749 3
0.142782 0.187937 0.565171 8684163 3
0.199372 0.198062 0.595619 8224636 3
0.124602 0.184068 0.527491 9605265 3
0.134109 0.185238 0.530842 8552831 3
0.158180 0.182837 0.523961 8223612 3
0.195875 0.194648 0.557810 7633269 3
0.106855 0.191965 0.525399 10524319 3
0.115117 0.191359 0.523741 9801878 3
0.123716 0.191359 0.523741 9802644 3
0.132233 0.191240 0.523415 9539726 3
0.139198 0.189028 0.517361 9670544 3
0.147420 0.188679 0.516406 7828086 3
0.153993 0.186372 0.510093 9407372 3
0.162401 0.186410 0.510197 8947335 3
0.177025 0.193229 0.528859 8420477 3
0.189660 0.197340 0.540111 8486784 3
0.199129 0.197938 0.541746 8027257 3
0.106273 0.199500 0.522540 12300730 3
0.114471 0.198837 0.520802 9801365 3
0.122894 0.198630 0.520261 10394783 3
0.131302 0.198427 0.519729 8553090 3
0.137383 0.194946 0.510613 9604497 3
0.145559 0.194669 0.509886 11315115 3
0.152657 0.193058 0.505667 10196123 3
0.160441 0.192437 0.504039 9472400 3
0.168970 0.192725 0.504795 9538193 3
0.657339 0.233490 0.779097 3421244 3
0.671420 0.233939 0.780595 4079174 3
0.630869 0.236365 0.747724 3683905 3
0.652490 0.239799 0.758587 4342346 3
0.696726 0.251260 0.794843 3684670 3
0.612930 0.236960 0.712594 3947588 3
0.670166 0.254235 0.764543 3947329 3
0.642928 0.255945 0.733469 3618364 3
0.698548 0.272973 0.782269 3354934 3
0.689517 0.282122 0.772156 3025969 3
0.687794 0.276336 0.756320 3617336 3
0.405440 0.209130 0.697812 5724504 3
0.412506 0.218264 0.690463 6645352 3
0.404574 0.225186 0.677186 5723993 3
0.417950 0.226408 0.680863 6381923 3
0.434350 0.229163 0.689147 6644841 3
0.401214 0.234342 0.671562 7631988 3
0.415917 0.236432 0.677552 5066063 3
0.423718 0.234592 0.672277 4933966 3
0.439242 0.237012 0.679214 6052192 3
0.453459 0.238625 0.683836 5854298 3
0.464686 0.238625 0.683836 5723227 3
0.475785 0.238560 0.683650 5263191 3
0.485024 0.237588 0.680863 8091525 3
0.494727 0.236880 0.678836 8815249 3
0.496555 0.222704 0.638210 4209992 3
0.404115 0.240532 0.658325 8157819 3
0.418219 0.242442 0.663553 7039340 3
0.431635 0.243867 0.667452 6183263 3
0.443769 0.244514 0.669224 5261902 3
0.454757 0.244514 0.669224 5657689 3
0.465745 0.244514 0.669224 5197398 3
0.473831 0.243026 0.665150 7039091 3
0.479783 0.240535 0.658332 9670560 3
0.480131 0.235405 0.644293 9078421 3
0.495663 0.227954 0.623898 5065552 3
0.406171 0.246039 0.644438 6643812 3
0.420444 0.248219 0.650147 6380642 3
0.434485 0.250157 0.655223 6051675 3
0.445244 0.250157 0.655223 6776170 3
0.455883 0.250092 0.655053 6973294 3
0.460636 0.246875 0.646627 6250086 3
0.464404 0.243287 0.637230 7696767 3
0.468564 0.240058 0.628771 8025732 3
0.474357 0.237787 0.622822 7697021 3
0.479929 0.235503 0.616841 7170673 3
0.482802 0.232016 0.607709 5526103 3
0.488292 0.229903 0.602174 5328722 3
0.400710 0.253170 0.635773 6117468 3
0.412931 0.254267 0.638529 7104365 3
0.425473 0.255503 0.641633 5591894 3
0.434451 0.254591 0.639341 5591894 3
0.446543 0.255503 0.641633 5657434 3
0.453715 0.253623 0.636912 4539466 3
0.458340 0.250437 0.628909 6512745 3
0.466099 0.249065 0.625464 9341844 3
0.471202 0.246364 0.618681 8420740 3
0.476291 0.243769 0.612166 5262931 3
0.480820 0.241001 0.605214 6645095 3
0.402778 0.258241 0.622828 5197138 3
0.418718 0.261814 0.631445 5657687 3
0.430389 0.262610 0.633364 5657687 3
0.453336 0.257915 0.622042 4671052 3
0.460008 0.255945 0.617291 6908013 3
0.465683 0.253517 0.611434 6579302 3
0.469640 0.250276 0.603616 5723991 3
0.401228 0.260813 0.605070 5592407 3
0.420424 0.266688 0.618699 5395026 3
0.435938 0.270004 0.626394 5921118 3
0.446222 0.270004 0.626394 5658459 3
0.459759 0.260203 0.603656 6184544 3
0.313294 0.208806 0.696730 8420225 3
0.313092 0.205123 0.648893 8682885 3
0.324547 0.205631 0.650500 7104366 3
0.335334 0.205696 0.650705 7367537 3
0.360487 0.214298 0.677915 6447203 3
0.379602 0.218902 0.692480 7368303 3
0.393503 0.220319 0.696964 6710886 3
0.399526 0.217370 0.687635 7039851 3
0.302089 0.208195 0.626089 8814471 3
0.316316 0.210826 0.634002 8486018 3
0.326809 0.210879 0.634163 8025467 3
0.348461 0.217908 0.655300 8157821 3
0.368640 0.223622 0.672483 7368303 3
0.382543 0.225307 0.677552 7105131 3
0.390603 0.223554 0.672277 7171437 3
0.313383 0.219184 0.628123 8748677 3
0.324102 0.219458 0.628909 8946056 3
0.337231 0.221298 0.634182 8420223 3
0.353681 0.225141 0.645195 7433582 3
0.377741 0.233464 0.669046 7697268 3
0.387278 0.232595 0.666554 6841959 3
0.308155 0.225669 0.617644 9932951 3
0.320243 0.227049 0.621422 8814470 3
0.332264 0.228298 0.624840 8946567 3
0.343902 0.229217 0.627356 8420477 3
0.366508 0.237180 0.649151 7959926 3
0.378027 0.237721 0.650632 7368303 3
0.388510 0.237599 0.650298 7368303 3
0.300654 0.230070 0.602610 9143435 3
0.314476 0.232979 0.610231 8354432 3
0.326160 0.234175 0.613362 9077894 3
0.336808 0.234577 0.614415 9077894 3
0.355302 0.240261 0.629303 7565168 3
0.367343 0.241384 0.632244 7696752 3
0.377536 0.241263 0.631928 5393999 3
0.392563 0.244156 0.639506 5920089 3
0.309649 0.239269 0.600865 8551809 3
0.320279 0.239841 0.602302 8683138 3
0.330168 0.239841 0.602302 7894133 3
0.348440 0.245754 0.617149 8157305 3
0.362494 0.248441 0.623898 7171178 3
0.372925 0.248566 0.624211 6644066 3
0.387226 0.251194 0.630813 6183261 3
0.370264 0.250094 0.603179 7368305 3
0.386333 0.254151 0.612962 6907754 3
0.233245 0.208831 0.696815 6381919 3
0.242923 0.207326 0.691793 7303532 3
0.256774 0.200407 0.668706 7633015 3
0.286134 0.205728 0.686460 7697270 3
0.213021 0.211550 0.669224 7566193 3
0.233986 0.201231 0.636579 6580579 3
0.246072 0.202576 0.640835 7895669 3
0.262772 0.207453 0.656263 7631986 3
0.269625 0.204479 0.646853 7829367 3
0.278055 0.202880 0.641797 8223614 3
0.288230 0.202626 0.640991 8683397 3
0.275794 0.211683 0.636579 7038570 3
0.282943 0.219572 0.629234 7695989 3
0.289634 0.216846 0.621422 9669010 3
0.299987 0.216954 0.621733 9997975 3
0.281402 0.220596 0.603761 8484736 3
0.290823 0.220223 0.602741 10853284 3
0.722893 0.251283 0.794916 3618366 3
0.733389 0.250411 0.792156 4078915 3
0.702487 0.261596 0.786681 3881535 3
0.712049 0.260370 0.782992 3946816 3
0.724905 0.260370 0.782992 3684157 3
0.701526 0.269188 0.771421 3354679 3
0.713974 0.269105 0.771184 2894383 3
0.723765 0.247823 0.874852 3355453 3
0.718559 0.241253 0.851656 3158590 3
0.706660 0.241606 0.806176 3882049 3
0.715535 0.253299 0.801292 3749949 3
0.500329 0.208572 0.736288 4670543 3
0.511664 0.208265 0.735204 7038837 3
0.523735 0.208265 0.735204 4407628 3
0.535495 0.208144 0.734776 5000530 3
0.543424 0.206572 0.729228 3289912 3
0.501949 0.221375 0.738672 4473164 3
0.513927 0.221310 0.738455 5065047 3
0.523735 0.220336 0.735204 4341835 3
0.535495 0.220208 0.734776 4539725 3
0.542781 0.218286 0.728365 4934737 3
0.509125 0.231254 0.731556 4933972 3
0.517212 0.229513 0.726047 4670802 3
0.525032 0.227734 0.720420 3947331 3
0.531667 0.225531 0.713451 5065812 3
0.507794 0.237038 0.712827 5328732 3
0.515401 0.235168 0.707205 4012872 3
0.208172 0.206569 0.729218 10920100 3
0.218869 0.205372 0.724993 9077896 3
0.229911 0.204605 0.722284 10065302 3
0.239019 0.202276 0.714064 8486784 3
0.205660 0.215905 0.720420 8814724 3
0.216800 0.215221 0.718136 7170410 3
0.226773 0.213510 0.712426 6776420 3
0.293004 0.219306 0.731768 8158332 3
0.496340 0.210149 0.787501 3487291 3
0.499490 0.206113 0.772378 3552571 3
0.497131 0.200061 0.749695 4078404 3
0.404092 0.208817 0.737155 5855836 3
0.423806 0.212636 0.750636 5724250 3
0.440353 0.214695 0.757902 5329492 3
0.470092 0.222895 0.786851 5263701 3
0.490142 0.226186 0.798467 4605771 3
0.491546 0.220925 0.779895 5197396 3
0.498718 0.218457 0.771184 3420985 3
0.498739 0.213057 0.752121 3354681 3
0.405229 0.215100 0.717732 6316387 3
0.432765 0.217090 0.724372 4802891 3
0.462516 0.225808 0.753463 5855325 3
0.479418 0.227963 0.760652 5000016 3
0.496274 0.229987 0.767405 5723227 3
0.496498 0.224393 0.748742 5196883 3
0.431803 0.222363 0.703430 6184544 3
0.463605 0.232521 0.735563 5197395 3
0.484549 0.236855 0.749275 7302259 3
0.488730 0.232983 0.737026 6709608 3
0.495090 0.230313 0.728577 4934226 3
0.456634 0.234804 0.706109 6512743 3
0.473896 0.237646 0.714657 6906986 3
0.481783 0.235763 0.708995 6644842 3
0.497646 0.237781 0.715061 7368826 3
0.316682 0.211057 0.790901 7564917 3
0.329667 0.211057 0.790901 8355202 3
0.310411 0.219606 0.775240 7631477 3
0.320961 0.218126 0.770014 6578789 3
0.385319 0.218775 0.772307 5065810 3
0.381685 0.209807 0.740649 4803150 3
0.384215 0.204677 0.722537 5461846 3
0.331762 0.213325 0.711811 7696503 3
0.343450 0.213325 0.711811 6644331 3
0.355137 0.213325 0.711811 5460057 3
0.364552 0.212004 0.707402 5460567 3
0.377663 0.212847 0.710215 5921372 3
0.393778 0.215282 0.718341 5987165 3
0.251866 0.182856 0.685224 7039851 3
0.261970 0.182059 0.682237 6973549 3
0.245219 0.197820 0.698334 8027257 3
0.251989 0.194201 0.685556 7699062 3
0.258492 0.190695 0.673180 7303025 3
0.244507 0.199357 0.665203 7567987 3
0.286343 0.198076 0.660928 9275535 3
0.209683 0.198021 0.626425 7764085 3
0.213787 0.192456 0.608821 7370097 3
0.293123 0.198806 0.628909 8814471 3
0.143036 0.204162 0.765065 9604246 3
0.154841 0.203169 0.761345 8026237 3
0.167036 0.202799 0.759957 7368818 3
0.178541 0.201700 0.755839 7237232 3
0.121655 0.202074 0.713351 7300980 3
0.140757 0.213271 0.752877 6445671 3
0.153119 0.213271 0.752877 6709095 3
0.165480 0.213271 0.752877 6776168 3
0.177683 0.213082 0.752208 7829367 3
0.187334 0.210055 0.741522 8026748 3
0.196885 0.207291 0.731768 10459295 3
0.173667 0.220336 0.735204 8618881 3
0.183965 0.218232 0.728184 7368816 3
0.195062 0.217276 0.724993 7762295 3
0.787105 0.248118 0.990740 3223348 3
0.772797 0.259578 0.972730 3289652 3
0.761502 0.277252 0.978740 3618364 3
0.764115 0.272454 0.961802 3553081 3
0.755850 0.294659 0.932133 4013124 3
0.514403 0.199207 0.795438 3947329 3
0.512211 0.193447 0.772437 2828337 3
0.521633 0.192245 0.767639 3354683 3
0.534237 0.192245 0.767639 2630706 3
0.566220 0.199058 0.794843 2960436 3
0.509273 0.195277 0.731768 3420222 3
0.524669 0.196543 0.736514 2631471 3
0.538334 0.197119 0.738672 2369579 3
0.401724 0.215856 0.861916 6053217 3
0.415159 0.215483 0.860431 6119010 3
0.429435 0.215558 0.860728 6053732 3
0.451030 0.219185 0.875210 5001297 3
0.462334 0.217741 0.869444 4607050 3
0.471669 0.215483 0.860431 5264982 3
0.493301 0.218813 0.873724 4605771 3
0.408154 0.225736 0.845912 4474186 3
0.417808 0.223472 0.837425 5197909 3
0.417934 0.216417 0.810988 4803918 3
0.425413 0.213488 0.800012 4080706 3
0.447102 0.217652 0.815617 3817023 3
0.463827 0.219227 0.821519 4079427 3
0.475445 0.218368 0.818300 3881536 3
0.487277 0.217652 0.815617 5263448 3
0.498409 0.216670 0.811935 4145221 3
0.003801 0.149903 0.598568 10001047 3
0.013189 0.154578 0.579259 8224123 3
0.023109 0.157363 0.589694 8487295 3
0.033158 0.159123 0.596289 9474703 3
0.042938 0.159084 0.596141 9342095 3
0.052701 0.159009 0.595861 12563132 3
0.003379 0.150763 0.532216 10658207 3
0.012352 0.153679 0.542508 10000277 3
0.021637 0.156409 0.552147 9079432 3
0.031813 0.162065 0.572113 8158843 3
0.041901 0.164795 0.581749 9210509 3
0.052045 0.166692 0.588446 14010835 3
0.003341 0.157688 0.526165 10131095 3
0.012043 0.158522 0.528945 10855586 3
0.021044 0.160935 0.536999 12895426 3
0.030676 0.165329 0.551660 9343117 3
0.040113 0.166906 0.556922 11250605 3
0.050221 0.170174 0.567827 14077140 3
0.061781 0.176565 0.589151 11511214 3
0.072233 0.178490 0.595573 8814470 3
0.003338 0.166155 0.525620 9868948 3
0.012005 0.166676 0.527267 11842740 3
0.020662 0.166676 0.527267 10657953 3
0.029469 0.167524 0.529952 7895160 3
0.038711 0.169898 0.537460 11184297 3
0.048728 0.174160 0.550941 13354700 3
0.058507 0.176368 0.557929 9866391 3
0.003291 0.172330 0.518237 10659747 3
0.011912 0.173979 0.523195 10000534 3
0.020524 0.174160 0.523741 8618370 3
0.029197 0.174599 0.525059 9803157 3
0.037993 0.175407 0.527491 12895169 3
0.047313 0.177884 0.534940 9801876 3
0.057406 0.182038 0.547430 9011080 3
0.081263 0.175333 0.527267 10325142 3
0.090167 0.175815 0.528717 10194330 3
0.003226 0.177276 0.508026 9804949 3
0.011643 0.178434 0.511343 9935254 3
0.020120 0.179164 0.513437 10000534 3
0.028686 0.180015 0.515874 10132122 3
0.037356 0.180982 0.518646 10000023 3
0.046362 0.182918 0.524195 9013128 3
0.055620 0.185083 0.530398 11906995 3
0.063231 0.181925 0.521348 12958141 3
0.071641 0.181545 0.520261 12825526 3
0.080552 0.182380 0.522653 11246501 3
0.089601 0.183337 0.525396 10983846 3
0.099583 0.185868 0.532648 10392220 3
0.003208 0.184569 0.505156 9608340 3
0.011527 0.184979 0.506280 9672850 3
0.019860 0.185166 0.506791 10526878 3
0.028119 0.184755 0.505667 11119015 3
0.036377 0.184532 0.505055 10394267 3
0.044339 0.183167 0.501320 9803157 3
0.052814 0.184016 0.503643 9869461 3
0.061292 0.184644 0.505361 9933201 3
0.070013 0.185767 0.508436 13221822 3
0.079086 0.187487 0.513142 10655645 3
0.088414 0.189422 0.518438 11511216 3
0.098703 0.192893 0.527939 12366012 3
0.003197 0.192243 0.503532 8949129 3
0.011465 0.192243 0.503532 9672598 3
0.019732 0.192243 0.503532 9672598 3
0.027938 0.191819 0.502422 11316396 3
0.036072 0.191206 0.500816 10263195 3
0.052539 0.191284 0.501020 9474192 3
0.061094 0.192321 0.503736 10066327 3
0.069786 0.193487 0.506791 10000277 3
0.078489 0.194434 0.509270 11052197 3
0.087796 0.196549 0.514812 10854053 3
0.097614 0.199338 0.522115 11708593 3
0.589208 0.207937 0.888553 3354681 3
0.507253 0.218643 0.873046 4737358 3
0.515836 0.216232 0.863419 4276553 3
0.512889 0.209246 0.835524 4276553 3
0.518478 0.206016 0.822625 4145221 3
0.327810 0.208705 0.891836 5197395 3
0.345461 0.225310 0.899669 7039342 3
0.358303 0.224103 0.894848 8222080 3
0.370098 0.222362 0.887897 8814983 3
0.381826 0.220715 0.881320 5723991 3
0.391091 0.217815 0.869741 6119776 3
0.363363 0.223813 0.838703 5658200 3
0.383629 0.227667 0.853148 5000527 3
0.390572 0.223623 0.837991 3684156 3
0.352034 0.230176 0.812554 6644584 3
0.367885 0.231757 0.818134 4999759 3
0.380897 0.231501 0.817232 6841708 3
0.394966 0.231883 0.818580 7236979 3
0.401452 0.201631 0.926618 4802889 3
0.414215 0.200445 0.921167 5132113 3
0.429339 0.200445 0.921167 3947328 3
0.470663 0.205275 0.943364 4868684 3
0.480365 0.202831 0.932133 4868684 3
0.408520 0.212605 0.908502 6119008 3
0.420227 0.210994 0.901617 5526873 3
0.435972 0.211451 0.903567 5855836 3
0.455418 0.213613 0.912808 4737355 3
0.474540 0.215491 0.920830 6053469 3
0.486797 0.214231 0.915447 4474953 3
0.499091 0.213063 0.910456 4409419 3
-0.156807 0.100815 0.463309 12436155 3
-0.151896 0.102637 0.471682 11910324 3
-0.144587 0.102947 0.473107 10791584 3
-0.136819 0.102947 0.473107 11382949 3
-0.129442 0.103259 0.474541 10264986 3
-0.123903 0.105172 0.483328 10001814 3
-0.115611 0.104848 0.481841 12502715 3
-0.108032 0.105172 0.483328 10727072 3
-0.192045 0.102850 0.439498 10988195 3
-0.184990 0.102940 0.439883 11316648 3
-0.177768 0.102940 0.439883 10921890 3
-0.170967 0.103195 0.440970 13948116 3
-0.165503 0.104314 0.445753 11908531 3
-0.158664 0.104631 0.447106 10856609 3
-0.152797 0.105650 0.451463 12240057 3
-0.146226 0.106261 0.454074 9476751 3
-0.140375 0.107490 0.459325 11646891 3
-0.133492 0.108023 0.461603 11317156 3
-0.126425 0.108463 0.463481 10462365 3
-0.120742 0.110222 0.470997 10593951 3
-0.114119 0.111304 0.475623 9673616 3
-0.106714 0.111728 0.477434 9016965 3
-0.176775 0.109547 0.437426 12237750 3
-0.169623 0.109567 0.437502 13092805 3
-0.162894 0.109874 0.438728 12566974 3
-0.156403 0.110376 0.440735 11515053 3
-0.150521 0.111379 0.444738 10727072 3
-0.144549 0.112413 0.448868 9674382 3
-0.138470 0.113471 0.453091 11581611 3
-0.131817 0.114152 0.455812 12304053 3
-0.124923 0.114694 0.457974 10067093 3
-0.118337 0.115606 0.461616 8159096 3
-0.112876 0.117816 0.470443 10791843 3
-0.106189 0.118979 0.475084 10793124 3
-0.136764 0.119421 0.447511 12962753 3
-0.130300 0.120236 0.450566 12369333 3
-0.123479 0.120800 0.452679 11843504 3
-0.116447 0.121217 0.454241 13816781 3
-0.110429 0.122819 0.460246 9541263 3
-0.104550 0.124823 0.467753 10727844 3
-0.141013 0.124042 0.437887 11186601 3
-0.134387 0.124565 0.439732 11646125 3
-0.128864 0.126227 0.445600 10066067 3
-0.123012 0.127748 0.450969 11908785 3
-0.116046 0.128232 0.452679 12106164 3
-0.109146 0.128861 0.454899 9343885 3
-0.102686 0.130139 0.459410 10595234 3
-0.141013 0.131232 0.437887 11186089 3
-0.134387 0.131785 0.439732 11711406 3
-0.128635 0.133306 0.444808 13354948 3
-0.122990 0.135128 0.450887 11118756 3
-0.115942 0.135543 0.452271 9868691 3
-0.109146 0.136330 0.454899 9540496 3
-0.102271 0.137127 0.457557 10462879 3
-0.122439 0.141893 0.448868 13025985 3
-0.115691 0.142659 0.451292 11578539 3
-0.108496 0.142943 0.452189 11118758 3
-0.101364 0.143357 0.453499 11449261 3
0.834523 0.215784 1.072592 2763057 3
0.829410 0.210029 1.043989 3092283 3
0.828846 0.231807 1.065295 2631469 3
0.807867 0.221270 1.016873 3947079 3
0.829917 0.249620 1.066672 3684156 3
0.802655 0.236431 1.010312 4144710 3
0.817866 0.274855 1.097504 2960946 3
0.824761 0.271197 1.082897 2170917 3
0.810674 0.284042 1.064402 3749949 3
0.807438 0.276937 1.037780 3289141 3
0.317497 0.200665 0.997442 6185573 3
0.333874 0.200665 0.997442 5395285 3
0.321584 0.209053 0.960726 6250337 3
0.331261 0.205275 0.943364 6250337 3
0.346750 0.205275 0.943364 5592153 3
0.357927 0.202831 0.932133 5526360 3
0.373232 0.202831 0.932133 5986654 3
0.388537 0.202831 0.932133 4210752 3
0.357141 0.217657 0.930086 5131603 3
0.370887 0.216765 0.926277 6249571 3
0.382422 0.214703 0.917464 5657687 3
0.396756 0.214309 0.915780 6184540 3
0.221310 0.155962 0.775240 8158845 3
0.205529 0.166222 0.763895 7237230 3
0.212879 0.162265 0.745707 7039851 3
0.220915 0.159232 0.731768 7171696 3
0.232930 0.159232 0.731768 6447973 3
0.210380 0.172460 0.736954 6513509 3
0.219887 0.170450 0.728365 7303025 3
0.230377 0.169370 0.723750 8092798 3
0.242842 0.169776 0.725485 7105646 3
0.276856 0.184506 0.788430 5592407 3
0.208478 0.182892 0.730291 8289666 3
0.218869 0.181565 0.724993 8223873 3
0.229976 0.180938 0.722489 7828858 3
0.240450 0.179899 0.718341 7302512 3
0.252245 0.179899 0.718341 6316130 3
0.284881 0.194100 0.775044 7171439 3
0.208172 0.194596 0.729218 6972779 3
0.218869 0.193468 0.724993 7038572 3
0.230042 0.192855 0.722696 6709605 3
0.240660 0.191861 0.718968 7104363 3
0.249605 0.189687 0.710822 7303023 3
-0.054675 0.101300 0.503532 10529954 3
-0.046557 0.101627 0.505156 9212299 3
-0.062540 0.108868 0.500314 10991016 3
-0.054675 0.109568 0.503532 8753541 3
-0.047012 0.110995 0.510093 8620674 3
-0.039671 0.113965 0.523741 11382953 3
-0.031072 0.113965 0.523741 11908274 3
-0.054305 0.117037 0.500119 9937815 3
-0.047015 0.119377 0.510120 10793126 3
-0.039556 0.122210 0.522225 10133400 3
-0.031202 0.123080 0.525945 10921379 3
-0.023238 0.126742 0.541593 10197656 3
-0.046784 0.127126 0.507619 9345678 3
-0.039206 0.129627 0.517604 10002327 3
-0.030885 0.130374 0.520588 12960708 3
-0.022548 0.131604 0.525498 10658464 3
-0.015193 0.143645 0.573577 10264217 3
-0.005996 0.149118 0.595431 10593182 3
-0.046529 0.134723 0.504854 11056555 3
-0.038772 0.136597 0.511875 9739926 3
-0.030605 0.137664 0.515874 9145227 3
-0.022351 0.139009 0.520914 11184808 3
-0.013795 0.138979 0.520802 9737616 3
-0.046483 0.142869 0.504349 9674905 3
-0.038685 0.144674 0.510721 10331809 3
-0.030504 0.145654 0.514181 10593186 3
-0.022277 0.147073 0.519187 10526878 3
-0.013781 0.147377 0.520261 10527132 3
-0.005265 0.148117 0.522873 9276813 3
-0.038326 0.151639 0.505979 10923178 3
-0.030342 0.153278 0.511449 11514286 3
-0.022254 0.155438 0.518656 10922147 3
-0.013781 0.155919 0.520261 8816260 3
-0.005241 0.155984 0.520478 9342606 3
-0.030037 0.160046 0.506293 9539983 3
-0.022254 0.163954 0.518656 10132120 3
-0.013781 0.164461 0.520261 8289659 3
-0.005240 0.164495 0.520369 8881542 3
-0.021754 0.168596 0.507007 9868691 3
-0.013517 0.169691 0.510302 9868948 3
-0.005170 0.170734 0.513437 10263708 3
-0.021584 0.175532 0.503028 9079175 3
-0.013370 0.176133 0.504751 11053222 3
-0.005103 0.176845 0.506791 10593954 3
-0.021540 0.183423 0.502019 9539472 3
-0.013340 0.184012 0.503633 9540496 3
-0.005087 0.184569 0.505156 10001817 3
-0.070306 0.100014 0.497138 9082508 3
-0.062341 0.100333 0.498721 9478293 3
-0.099178 0.104207 0.478894 10530204 3
-0.085277 0.106486 0.489370 8490107 3
-0.077484 0.106820 0.490904 10726300 3
-0.070083 0.107834 0.495565 9214090 3
-0.098913 0.111771 0.477617 11189160 3
-0.091806 0.112673 0.481472 9743247 3
-0.084437 0.113392 0.484546 9149827 3
-0.077017 0.114187 0.487941 11977388 3
-0.069398 0.114836 0.490716 11122341 3
-0.062094 0.116247 0.496745 10135194 3
-0.098594 0.119226 0.476074 11058087 3
-0.091263 0.119865 0.478622 9480587 3
-0.083998 0.120717 0.482028 9347719 3
-0.076525 0.121418 0.484825 11188385 3
-0.068765 0.121773 0.486242 10661276 3
-0.061715 0.123644 0.493712 9608848 3
-0.054143 0.124875 0.498629 10924708 3
-0.097924 0.126180 0.472841 9873301 3
-0.090985 0.127334 0.477164 9611661 3
-0.083740 0.128237 0.480549 9807759 3
-0.076304 0.129004 0.483422 10529690 3
-0.068605 0.129454 0.485109 10990241 3
-0.061461 0.131208 0.491681 8951431 3
-0.053971 0.132640 0.497046 9805716 3
-0.096290 0.131709 0.464952 10332571 3
-0.090180 0.133974 0.472946 8161653 3
-0.083213 0.135271 0.477525 9872273 3
-0.075748 0.135945 0.479904 8884098 3
-0.068090 0.136389 0.481472 9213063 3
-0.060417 0.136915 0.483328 9543566 3
-0.053018 0.138314 0.488266 9016200 3
-0.095316 0.137933 0.460246 10989990 3
-0.088856 0.139657 0.465998 9476235 3
-0.082211 0.141387 0.471771 11317158 3
-0.074690 0.141814 0.473197 9540749 3
-0.067250 0.142514 0.475532 9607310 3
-0.059499 0.142649 0.475983 9214344 3
-0.051802 0.142975 0.477072 9739155 3
-0.044621 0.145094 0.484141 5858146 3
-0.094208 0.143799 0.454899 10003095 3
-0.087262 0.144666 0.457641 10002068 3
-0.080306 0.145677 0.460840 11449260 3
-0.073523 0.147248 0.465809 12369848 3
-0.066468 0.148574 0.470003 9277065 3
-0.059139 0.149555 0.473107 8160377 3
-0.051479 0.149867 0.474093 8750721 3
-0.043744 0.150037 0.474631 11843771 3
-0.036745 0.153352 0.485119 9673111 3
-0.086598 0.151022 0.454157 10857123 3
-0.079821 0.152319 0.458058 10133400 3
-0.072873 0.153526 0.461689 11843249 3
-0.065851 0.154838 0.465635 12764094 3
-0.058259 0.154982 0.466067 10001300 3
-0.050835 0.155679 0.468162 10328472 3
-0.043480 0.156879 0.471771 12171707 3
-0.035917 0.157681 0.474183 7040364 3
-0.029067 0.162922 0.489943 8552831 3
-0.043309 0.163977 0.469914 12302264 3
-0.035877 0.165280 0.473647 11579309 3
-0.028525 0.167781 0.480815 13222851 3
-0.152902 0.100653 0.500314 11382953 3
-0.146560 0.101956 0.506791 11185572 3
-0.138688 0.102287 0.508436 10660257 3
-0.129499 0.101627 0.505156 9475470 3
-0.120043 0.100653 0.500314 9080712 3
-0.111828 0.100653 0.500314 9936788 3
0.814274 0.211191 1.143054 2565163 3
0.833042 0.211191 1.143054 2169890 3
0.851810 0.211191 1.143054 3156785 3
0.870578 0.211191 1.143054 3025714 3
0.858031 0.203755 1.102806 1644322 3
0.802558 0.226651 1.126607 3025714 3
0.821056 0.226651 1.126607 2894128 3
0.845637 0.228293 1.134771 2499625 3
0.858051 0.226651 1.126607 2697004 3
0.813316 0.254296 1.168645 2565678 3
0.815191 0.243397 1.118560 1710367 3
0.839554 0.245148 1.126607 3026226 3
0.851923 0.243397 1.118560 2631468 3
0.837680 0.263058 1.124093 3158325 3
0.852721 0.262008 1.119608 3223859 3
0.742102 0.217543 1.177432 2368297 3
0.755752 0.215920 1.168645 2631469 3
0.763544 0.212744 1.151459 1447708 3
0.776739 0.211191 1.143054 2368297 3
0.795506 0.211191 1.143054 2959921 3
0.731108 0.233366 1.159988 3092020 3
0.739203 0.229959 1.143054 3486778 3
0.757971 0.229959 1.143054 4539466 3
0.771110 0.228293 1.134771 2105125 3
0.784060 0.226651 1.126607 3552571 3
0.796826 0.243397 1.118560 2434092 3
0.413127 0.183122 0.991129 3881787 3
0.429401 0.183122 0.991129 6644841 3
0.445674 0.183122 0.991129 7105133 3
0.456173 0.180833 0.978740 6052192 3
0.408707 0.189786 0.943364 5526614 3
0.421656 0.188649 0.937715 5987165 3
0.437052 0.188649 0.937715 6579049 3
0.364307 0.183122 0.991129 4539976 3
0.375823 0.180833 0.978740 6382180 3
0.396854 0.183122 0.991129 4869195 3
0.337358 0.193279 0.960726 5263699 3
0.348852 0.190936 0.949081 5066320 3
0.360070 0.188649 0.937715 4539976 3
0.375467 0.188649 0.937715 5460819 3
0.393218 0.189786 0.943364 4737096 3
0.123138 0.147619 0.798972 8224638 3
0.123138 0.160737 0.798972 8487810 3
0.119481 0.168691 0.775240 8158591 3
0.132867 0.169530 0.779097 7829628 3
0.145659 0.169530 0.779097 7500150 3
0.158451 0.169530 0.779097 8224127 3
0.171243 0.169530 0.779097 8816264 3
0.184035 0.169530 0.779097 7697783 3
0.194888 0.167860 0.771421 7632247 3
0.109691 0.166555 0.711718 8224386 3
0.130674 0.179313 0.766235 7500410 3
0.142817 0.178765 0.763895 7105395 3
0.155359 0.178765 0.763895 7960701 3
0.167902 0.178765 0.763895 8158334 3
0.180335 0.178657 0.763433 8026494 3
0.190321 0.176296 0.753345 7105392 3
0.199684 0.173682 0.742173 6644582 3
0.132128 0.194030 0.774765 7697530 3
0.143517 0.192245 0.767639 7499638 3
0.155597 0.191600 0.765065 7499893 3
0.167851 0.191249 0.763663 7566197 3
0.179407 0.190208 0.759504 7303282 3
0.188507 0.186867 0.746165 10460578 3
0.197809 0.184122 0.735204 9407120 3
0.123928 0.193919 0.726683 6840940 3
0.187668 0.198231 0.742841 9013132 3
0.197752 0.196136 0.734989 7301744 3
0.546364 0.184350 1.095094 2565676 3
0.552749 0.180562 1.072592 2960172 3
0.521096 0.199540 1.079989 5000017 3
0.510654 0.189106 1.023519 4473672 3
0.520653 0.186666 1.010312 3157812 3
0.330600 0.184350 1.095094 5658459 3
0.361505 0.181807 1.079989 4671816 3
0.376640 0.180562 1.072592 4934734 3
0.381196 0.174583 1.037076 5000529 3
0.398224 0.174583 1.037076 5921372 3
0.305005 0.186666 1.010312 5921629 3
0.327941 0.190350 1.030253 5001299 3
0.340378 0.187878 1.016873 5724250 3
0.354770 0.186666 1.010312 4803148 3
0.003946 0.104611 0.621422 9867923 3
0.014038 0.103788 0.616529 9999509 3
0.024160 0.103788 0.616529 8486786 3
0.003946 0.114814 0.621422 10657437 3
0.014149 0.114814 0.621422 10394265 3
0.024352 0.114814 0.621422 10986404 3
0.034693 0.115272 0.623898 9276302 3
0.054962 0.114814 0.621422 8289409 3
0.003930 0.124523 0.618966 12762813 3
0.014149 0.125018 0.621422 9999507 3
0.024352 0.125018 0.621422 10197402 3
0.034693 0.125516 0.623898 9407888 3
0.044582 0.124523 0.618966 8157823 3
0.054315 0.123547 0.614111 9736085 3
0.003884 0.133108 0.611713 12171703 3
0.013983 0.133630 0.614111 11645102 3
0.024066 0.133630 0.614111 8947335 3
0.034149 0.133630 0.614111 9144716 3
0.044059 0.133108 0.611713 11380911 3
0.053892 0.132590 0.609332 11642800 3
0.064652 0.134156 0.616529 13287367 3
0.086256 0.136302 0.626394 8948107 3
0.003839 0.141493 0.604627 11053735 3
0.013803 0.141870 0.606238 9474190 3
0.023786 0.142042 0.606971 11052711 3
0.034025 0.143191 0.611880 10723748 3
0.043985 0.142910 0.610678 12038328 3
0.053696 0.142076 0.607118 12431546 3
0.064432 0.143788 0.614432 11312295 3
0.075275 0.145244 0.620655 7828088 3
0.085338 0.145029 0.619734 8750728 3
0.033630 0.151462 0.604790 12171705 3
0.043486 0.151204 0.603761 8355202 3
0.053283 0.150875 0.602447 12430778 3
0.063758 0.152268 0.608011 13220294 3
0.074190 0.153195 0.611713 8486019 3
0.083988 0.152749 0.609929 7105646 3
0.095168 0.154642 0.617487 9079182 3
0.063343 0.161193 0.604047 13220808 3
0.073615 0.161974 0.606971 9801879 3
0.083359 0.161544 0.605359 9868439 3
0.093493 0.161881 0.606624 8091775 3
0.062965 0.170091 0.600446 12037045 3
0.073615 0.171939 0.606971 7827575 3
0.083581 0.171939 0.606971 12564671 3
0.093734 0.172283 0.608185 7695990 3
0.082760 0.180119 0.601010 11510952 3
0.093544 0.181899 0.606950 9273994 3
0.404334 0.174933 1.151459 4211011 3
0.411147 0.169935 1.118560 3224118 3
0.435737 0.172397 1.134771 3355191 3
0.454369 0.172397 1.134771 4211265 3
0.469598 0.171157 1.126607 3750462 3
0.495221 0.173656 1.143054 3946816 3
-0.040747 0.104346 0.686835 7500661 3
-0.069122 0.107163 0.636579 8884617 3
-0.058670 0.107163 0.636579 8159870 3
-0.048023 0.106729 0.634002 8751496 3
-0.037311 0.105872 0.628909 8290431 3
-0.026664 0.104611 0.621422 8750210 3
-0.016460 0.104611 0.621422 9275784 3
-0.006257 0.104611 0.621422 7829108 3
-0.069122 0.117615 0.636579 9937304 3
-0.059640 0.119559 0.647101 9014920 3
-0.048218 0.117615 0.636579 10263706 3
-0.037461 0.116666 0.631445 10132374 3
-0.026664 0.114814 0.621422 10526619 3
-0.016460 0.114814 0.621422 10000277 3
-0.006257 0.114814 0.621422 10461085 3
-0.040393 0.136976 0.680863 10789793 3
-0.026664 0.125018 0.621422 12500411 3
-0.016460 0.125018 0.621422 11908785 3
-0.006257 0.125018 0.621422 10527132 3
-0.026247 0.133108 0.611713 10000277 3
-0.016203 0.133108 0.611713 12303543 3
-0.006184 0.133630 0.614111 11185319 3
-0.015958 0.140983 0.602447 9474701 3
-0.006088 0.141493 0.604627 9343884 3
-0.052025 0.093069 0.686835 4934477 3
-0.006977 0.093892 0.692913 6381412 3
-0.069122 0.096711 0.636579 8028286 3
-0.058670 0.096711 0.636579 5790811 3
-0.048218 0.096711 0.636579 4408390 3
-0.026770 0.094784 0.623898 6249824 3
-0.016460 0.094408 0.621422 8157051 3
-0.006282 0.094784 0.623898 6184031 3
-0.197198 0.061152 0.451292 6118236 3
-0.189789 0.061152 0.451292 6842472 3
-0.181334 0.060801 0.448706 6381919 3
-0.196632 0.068365 0.449995 8421756 3
-0.189243 0.068365 0.449995 6645345 3
-0.181855 0.068365 0.449995 8487806 3
-0.175983 0.068959 0.453908 8422783 3
-0.171009 0.069973 0.460584 9739409 3
-0.163447 0.069973 0.460584 9212552 3
-0.195508 0.075320 0.447424 5658450 3
-0.189243 0.075753 0.449995 6053467 3
-0.181855 0.075753 0.449995 9474703 3
-0.175983 0.076412 0.453908 9212812 3
-0.172021 0.077994 0.463309 10923683 3
-0.165886 0.078693 0.467458 9738128 3
-0.163079 0.081114 0.481841 10790050 3
-0.194397 0.082197 0.444882 7566446 3
-0.187626 0.082431 0.446149 10461596 3
-0.180300 0.082431 0.446149 10527389 3
-0.174466 0.083141 0.449995 11186088 3
-0.166882 0.086887 0.470266 7763826 3
-0.162082 0.088481 0.478894 8947846 3
-0.199997 0.088745 0.441122 10987682 3
-0.193299 0.088996 0.442368 10527131 3
-0.186563 0.089248 0.443622 10856097 3
-0.179788 0.089501 0.444882 11514284 3
-0.173966 0.090271 0.448706 12567227 3
-0.160123 0.095180 0.473107 13159109 3
-0.156128 0.097537 0.484825 10725538 3
-0.199435 0.095718 0.439883 11646125 3
-0.192754 0.095988 0.441122 10198166 3
-0.186036 0.096259 0.442368 13553610 3
-0.179279 0.096531 0.443622 11974578 3
-0.173966 0.097638 0.448706 12829633 3
-0.168043 0.098484 0.452597 14211540 3
-0.161546 0.099057 0.455228 12764351 3
0.208989 0.105359 0.884737 3882049 3
0.212592 0.121952 0.899991 3027509 3
0.212592 0.136729 0.899991 4803918 3
0.204370 0.145647 0.865185 6317668 3
0.226070 0.150640 0.894848 5856604 3
0.215012 0.157246 0.851078 6646120 3
0.236705 0.162546 0.879766 6448995 3
0.206053 0.164086 0.815617 7040878 3
0.236705 0.176991 0.879766 7369327 3
0.116562 0.100803 0.846478 5986399 3
0.130460 0.100803 0.846478 4867403 3
0.145143 0.101350 0.851078 2565163 3
0.160865 0.102464 0.860431 1841703 3
0.177925 0.104181 0.874852 1972776 3
0.194462 0.105359 0.884737 3026229 3
0.116562 0.114701 0.846478 6578789 3
0.130460 0.114701 0.846478 6644582 3
0.146738 0.116592 0.860431 7039340 3
0.162653 0.117887 0.869991 4473673 3
0.180958 0.120566 0.889764 4538953 3
0.197815 0.121952 0.899991 3553083 3
0.109153 0.136729 0.899991 6842474 3
0.116562 0.128599 0.846478 8158332 3
0.129065 0.127224 0.837425 8421502 3
0.148368 0.132171 0.869991 8421502 3
0.163561 0.132910 0.874852 7105644 3
0.180958 0.135175 0.889764 7697783 3
0.196685 0.135948 0.894848 6316387 3
0.109153 0.151506 0.899991 9671830 3
0.117835 0.144055 0.855729 7106157 3
0.127027 0.138748 0.824202 8685187 3
0.143582 0.141731 0.841927 9737616 3
0.158257 0.142498 0.846478 8355711 3
0.174036 0.144055 0.855729 8421506 3
0.188087 0.144055 0.855729 8093568 3
0.106701 0.162546 0.879766 8026748 3
0.113494 0.152280 0.824202 6842733 3
0.137661 0.149140 0.807208 8948359 3
0.152487 0.150694 0.815617 8092539 3
0.168511 0.153086 0.828563 9144716 3
0.183084 0.153900 0.832970 8289920 3
0.198877 0.155555 0.841927 7106157 3
0.111154 0.162394 0.807208 9277072 3
0.137661 0.162394 0.807208 8224638 3
0.150915 0.162394 0.807208 7763576 3
0.163326 0.161561 0.803069 7895162 3
0.178341 0.163235 0.811391 8553092 3
0.193670 0.164945 0.819887 7369075 3
0.067138 0.126307 0.932133 3421498 3
0.082442 0.126307 0.932133 3817025 3
0.096597 0.124822 0.921167 4803920 3
0.067138 0.141612 0.932133 5592407 3
0.082442 0.141612 0.932133 7500661 3
0.096597 0.139946 0.921167 8092798 3
0.082442 0.156917 0.932133 9079436 3
0.097747 0.156917 0.932133 8092798 3
-0.204608 0.061152 0.451292 2499623 3
-0.226186 0.068365 0.449995 6184544 3
-0.216927 0.067780 0.446149 1842463 3
-0.209006 0.067588 0.444882 2894894 3
-0.204020 0.068365 0.449995 5789525 3
-0.224252 0.075106 0.446149 8947850 3
-0.215698 0.074680 0.443622 5856090 3
-0.207825 0.074469 0.442368 7303023 3
-0.202854 0.075320 0.447424 8092791 3
-0.221726 0.081502 0.441122 7302510 3
-0.213880 0.081273 0.439883 11974326 3
-0.206658 0.081273 0.439883 9737616 3
-0.201702 0.082197 0.444882 11184548 3
-0.220483 0.088248 0.438651 10460826 3
-0.212685 0.088001 0.437426 11580079 3
-0.206079 0.088248 0.438651 10856096 3
-0.205503 0.095183 0.437426 11843500 3
0.899680 0.147359 1.087489 2368039 3
0.858011 0.199540 1.079989 2039595 3
0.902521 0.157183 1.159988 2434603 3
0.921567 0.157183 1.159988 2565418 3
0.926881 0.154888 1.143054 2236453 3
0.914791 0.174933 1.151459 1841442 3
0.926881 0.173656 1.143054 2039334 3
0.900587 0.186965 1.110627 2104876 3
0.792687 0.122727 1.195408 4342086 3
0.792687 0.142355 1.195408 2236710 3
0.794128 0.139168 1.168645 1644573 3
0.786682 0.199712 1.186352 2368296 3
0.794128 0.196732 1.168645 3092019 3
0.613169 0.114838 1.118560 2697261 3
0.669810 0.121798 1.186352 2434349 3
0.622056 0.135134 1.134771 2697261 3
0.674923 0.142355 1.195408 2500144 3
0.612298 0.156027 1.151459 3289137 3
0.645441 0.159546 1.177432 2170917 3
0.607828 0.173656 1.143054 3091758 3
0.650331 0.180234 1.186352 2434089 3
0.640624 0.196732 1.168645 3289141 3
0.314429 0.119980 1.168645 3750714 3
0.309805 0.137121 1.151459 4802887 3
0.309805 0.156027 1.151459 4013373 3
0.341257 0.161982 1.195408 4276804 3
0.328710 0.174933 1.151459 3487288 3
0.358150 0.180234 1.186352 4211013 3
0.377629 0.180234 1.186352 5264469 3
0.388283 0.176228 1.159988 4803402 3
0.356050 0.188300 1.118560 5132883 3
0.263748 0.124323 1.043989 3158325 3
0.260278 0.139603 1.030253 4342599 3
0.256898 0.154486 1.016873 5263701 3
0.273594 0.154486 1.016873 4211265 3
0.298031 0.175747 1.043989 5000527 3
0.288417 0.186666 1.010312 5856090 3
0.003946 0.084205 0.621422 5657946 3
0.014038 0.083542 0.616529 6184801 3
0.024160 0.083542 0.616529 3158064 3
0.037213 0.090682 0.669224 6052705 3
0.003946 0.094408 0.621422 8026748 3
0.014038 0.093665 0.616529 7631988 3
0.024160 0.093665 0.616529 7105646 3
-0.043413 0.099157 0.731768 6119010 3
-0.031398 0.099157 0.731768 4736587 3
-0.018685 0.095584 0.705398 6183263 3
-0.097113 0.075515 0.557290 3552571 3
-0.088912 0.076330 0.563304 3882563 3
-0.081721 0.078301 0.577854 2567469 3
-0.097113 0.084665 0.557290 9342608 3
-0.088593 0.085272 0.561285 5132883 3
-0.081122 0.087146 0.573621 6450024 3
-0.071440 0.093333 0.505156 9016973 3
0.806161 0.121798 1.186352 1841953 3
0.813316 0.119980 1.168645 2434351 3
0.826338 0.119091 1.159988 2894904 3
0.801356 0.137121 1.151459 2236970 3
0.814274 0.136120 1.143054 2697523 3
0.827006 0.135134 1.134771 2960182 3
0.806161 0.160755 1.186352 1644573 3
0.819431 0.159546 1.177432 1842466 3
0.826338 0.157183 1.159988 1644833 3
0.839167 0.156027 1.151459 2433579 3
0.858073 0.156027 1.151459 2763057 3
0.883475 0.157183 1.159988 2500396 3
0.806161 0.180234 1.186352 2697261 3
0.813316 0.177544 1.168645 2565676 3
0.832504 0.177544 1.168645 2565676 3
0.845383 0.176228 1.159988 2827821 3
0.864429 0.176228 1.159988 2499370 3
0.883475 0.176228 1.159988 2565935 3
0.895885 0.174933 1.151459 1381663 3
0.807292 0.195274 1.159988 3223348 3
0.820262 0.193839 1.151459 2368039 3
0.839167 0.193839 1.151459 3024686 3
0.858073 0.193839 1.151459 2104098 3
0.870578 0.192424 1.143054 3026488 3
0.870288 0.188300 1.118560 1513251 3
0.888654 0.188300 1.118560 1052188 3
0.710829 0.105516 1.223425 2894900 3
0.754494 0.108920 1.262890 2105384 3
0.775229 0.108920 1.262890 2434602 3
0.789597 0.108049 1.252787 1908256 3
0.798785 0.103893 1.204603 3618364 3
0.710829 0.125604 1.223425 2171949 3
0.754494 0.129655 1.262890 2829877 3
0.775229 0.129655 1.262890 3092532 3
0.789597 0.128618 1.252787 2500647 3
0.797408 0.126593 1.233058 3684410 3
0.710829 0.145691 1.223425 1908524 3
0.748458 0.149188 1.252787 2236970 3
0.769027 0.149188 1.252787 3882048 3
0.777162 0.146838 1.233058 3290163 3
0.791178 0.145691 1.223425 4342338 3
0.722112 0.168410 1.242845 2631477 3
0.754494 0.171126 1.262890 2500144 3
0.769027 0.169757 1.252787 2895153 3
0.777162 0.167084 1.233058 2697772 3
0.797408 0.167084 1.233058 2368550 3
0.798785 0.163228 1.204603 2236710 3
0.727888 0.190327 1.252787 1710118 3
0.754494 0.191862 1.262890 1579044 3
0.775229 0.191862 1.262890 2039845 3
0.777162 0.187330 1.233058 2303016 3
0.797408 0.187330 1.233058 2697261 3
0.798785 0.183007 1.204603 3157812 3
0.513980 0.102319 1.186352 2105124 3
0.521604 0.100045 1.159988 3618106 3
0.525496 0.119980 1.168645 3025969 3
0.532757 0.117352 1.143054 2236713 3
0.547528 0.116502 1.134771 2500396 3
0.554114 0.114023 1.110627 5001299 3
0.572350 0.114023 1.110627 3289652 3
0.590585 0.114023 1.110627 2960174 3
0.525496 0.139168 1.168645 4407622 3
0.532757 0.136120 1.143054 2565675 3
0.547528 0.135134 1.134771 3026740 3
0.554114 0.132259 1.110627 3750977 3
0.572350 0.132259 1.110627 3486777 3
0.594803 0.133203 1.118560 2499621 3
0.513980 0.160755 1.186352 3617851 3
0.513989 0.154888 1.143054 4473415 3
0.532757 0.154888 1.143054 2170917 3
0.551525 0.154888 1.143054 2895154 3
0.562087 0.152659 1.126607 2960947 3
0.580585 0.152659 1.126607 2829101 3
0.506594 0.171157 1.126607 4998989 3
0.532757 0.173656 1.143054 5460055 3
0.551525 0.173656 1.143054 5263189 3
0.562087 0.171157 1.126607 3158326 3
0.580585 0.171157 1.126607 2565929 3
0.528896 0.191029 1.134771 4802125 3
0.547528 0.191029 1.134771 3552573 3
0.594803 0.188300 1.118560 3289650 3
0.513970 0.106347 1.233058 1249816 3
0.530684 0.130710 1.273158 3552570 3
0.534215 0.126593 1.233058 2697004 3
0.534215 0.146838 1.233058 5526361 3
0.509954 0.165779 1.223425 3684156 3
0.408582 0.152856 1.283594 3159093 3
0.433208 0.154120 1.294202 4342597 3
0.454458 0.154120 1.294202 3158325 3
0.419345 0.169757 1.252787 4737609 3
0.426274 0.164493 1.213941 4605771 3
0.460485 0.169757 1.252787 3882049 3
0.489867 0.165779 1.223425 4144961 3
0.479671 0.112551 1.304987 1710366 3
0.415392 0.133977 1.304987 2764337 3
0.444222 0.136248 1.327105 3355192 3
0.462096 0.135103 1.315953 3289399 3
-0.172114 0.072422 0.534466 7960951 3
-0.163339 0.072422 0.534466 8816773 3
-0.156162 0.073171 0.539995 3092784 3
-0.147806 0.073424 0.541863 3027507 3
-0.136547 0.072176 0.532648 3487805 3
-0.127801 0.072176 0.532648 1710366 3
-0.120283 0.072920 0.538139 2499625 3
-0.115004 0.075247 0.555314 8355200 3
-0.106263 0.075515 0.557290 4144450 3
-0.171529 0.080921 0.532648 9079686 3
-0.162783 0.080921 0.532648 9343117 3
-0.154563 0.081197 0.534466 7171948 3
-0.146287 0.081476 0.536296 7764855 3
-0.135624 0.080374 0.529049 8159872 3
-0.127368 0.080647 0.530842 7237743 3
-0.119871 0.081476 0.536296 6974058 3
-0.114598 0.084067 0.553351 9737364 3
-0.106263 0.084665 0.557290 7302510 3
-0.169796 0.088761 0.527267 10790304 3
-0.161139 0.088761 0.527267 10922147 3
-0.152997 0.089061 0.529049 11711663 3
-0.144310 0.089061 0.529049 11580847 3
-0.135167 0.088761 0.527267 9475984 3
-0.126938 0.089061 0.529049 7633269 3
-0.119055 0.089667 0.532648 8289916 3
-0.114194 0.092824 0.551403 8290431 3
-0.162153 0.093033 0.503532 10198426 3
-0.157429 0.095175 0.515126 11909297 3
-0.149957 0.095805 0.518538 13225157 3
-0.141443 0.095805 0.518538 11186601 3
-0.132055 0.095175 0.515126 9673363 3
-0.122389 0.094245 0.510093 8488575 3
0.802436 0.088902 1.273158 1250329 3
0.816700 0.088185 1.262890 1710626 3
0.716426 0.065856 1.233058 1973539 3
0.766863 0.068555 1.283594 1973541 3
0.710829 0.085429 1.223425 2894641 3
0.760628 0.088902 1.273158 1512990 3
0.781532 0.088902 1.273158 2434090 3
0.621436 0.062416 1.168645 1118742 3
0.640624 0.062416 1.168645 1645086 3
0.612298 0.080404 1.151459 2302503 3
0.631203 0.080404 1.151459 1776159 3
0.603424 0.097870 1.134771 3420984 3
0.622056 0.097870 1.134771 4342086 3
0.521604 0.061953 1.159988 5394774 3
0.532757 0.061049 1.143054 1052436 3
0.551525 0.061049 1.143054 1381144 3
0.570293 0.061049 1.143054 2104095 3
0.597787 0.061953 1.159988 1644827 3
0.510115 0.082217 1.177432 2894641 3
0.525496 0.081604 1.168645 3157812 3
0.532757 0.079817 1.143054 4868431 3
0.551525 0.079817 1.143054 1841695 3
0.566160 0.079238 1.134771 2433830 3
0.589060 0.079817 1.143054 4408131 3
0.532757 0.098585 1.143054 2434090 3
0.547528 0.097870 1.134771 3223606 3
0.562087 0.097166 1.126607 3881535 3
0.580585 0.097166 1.126607 3421238 3
0.722112 0.209223 1.242845 2564914 3
0.754494 0.212597 1.262890 2368560 3
0.775229 0.212597 1.262890 1973798 3
0.771091 0.205953 1.223425 1710880 3
0.779006 0.202785 1.204603 2302504 3
0.707319 0.231466 1.252787 6315879 3
0.733758 0.233332 1.262890 5525852 3
0.766863 0.237158 1.283594 4736593 3
0.775229 0.233332 1.262890 3092279 3
0.703637 0.258233 1.283594 3224119 3
0.794450 0.260367 1.294202 3487037 3
0.703637 0.279308 1.283594 3553853 3
0.710829 0.266216 1.223425 2631728 3
0.730916 0.266216 1.223425 3421244 3
0.751003 0.266216 1.223425 2763314 3
0.771091 0.266216 1.223425 2697262 3
0.791178 0.266216 1.223425 2105125 3