# .PCD v0.7 - Point Cloud Data file format
VERSION 0.7
FIELDS x y z rgb label
SIZE 4 4 4 4 4
TYPE F F F F U
COUNT 1 1 1 1 1
WIDTH 2139
HEIGHT 1
VIEWPOINT 0 0 0 1 0 0 0
POINTS 2139
DATA ascii
-2.85586 -2.95768 3.33188 1.92685e-38 1
-2.85586 -2.90318 3.33188 1.89919e-38 1
-3.29161 -3.41124 3.91496 1.90841e-38 1
-3.39745 -3.59078 4.12101 1.88998e-38 1
-2.91794 -2.91062 3.40431 1.90834e-38 1
-3.29161 -3.34721 3.91496 1.88076e-38 1
-3.31034 -3.43304 4.01534 1.88998e-38 1
-2.53256 -2.47788 2.95469 1.89912e-38 1
-2.80137 -2.7942 3.33188 1.90841e-38 1
-2.74688 -2.7942 3.33188 1.86232e-38 1
-2.34337 -2.43199 2.89997 1.88076e-38 1
-2.39688 -2.2994 2.7964 1.92678e-38 1
-2.2316 -2.18248 2.65421 1.86232e-38 1
-2.26497 -2.25906 2.74734 1.90841e-38 1
-2.14478 -2.18248 2.65421 1.82544e-38 1
-2.27007 -2.17595 2.69997 1.8992e-38 1
-2.22592 -2.17595 2.69997 1.88998e-38 1
-2.14478 -2.13907 2.65421 1.86232e-38 1
0.24649 -0.62095 0.966657 1.89905e-38 1
0.243484 -0.597761 0.954868 1.85303e-38 1
0.249572 -0.596697 0.97874 1.84381e-38 1
0.255979 -0.57513 0.943364 1.86214e-38 1
0.255971 -0.59558 1.00384 1.82537e-38 1
0.259101 -0.566527 0.954868 1.8437e-38 1
0.268177 -0.553038 0.932133 1.86214e-38 1
0.242664 -0.586684 1.01687 1.80693e-38 1
0.255971 -0.579162 1.00384 1.81615e-38 1
0.2623 -0.557712 0.966657 1.82526e-38 1
0.268177 -0.537794 0.932133 1.82526e-38 1
0.262707 -0.577554 1.03025 1.78849e-38 1
0.26894 -0.555622 0.991129 1.7976e-38 1
0.271408 -0.528845 0.943364 1.78838e-38 1
0.203335 -0.583747 1.07259 1.74243e-38 1
0.2224 -0.587773 1.07999 1.76087e-38 1
0.240063 -0.587773 1.07999 1.77009e-38 1
0.269807 -0.575859 1.0581 1.77005e-38 1
0.275926 -0.553423 1.01687 1.74228e-38 1
0.197998 -0.603401 1.14305 1.68711e-38 1
0.203335 -0.566205 1.07259 1.74243e-38 1
0.225511 -0.578084 1.09509 1.77005e-38 1
0.243421 -0.578084 1.09509 1.75161e-38 1
0.269807 -0.558554 1.0581 1.78849e-38 1
0.283284 -0.551106 1.04399 1.76072e-38 1
0.292557 -0.536792 1.01687 1.7515e-38 1
0.199454 -0.589006 1.15146 1.71477e-38 1
0.206159 -0.556283 1.08749 1.72399e-38 1
0.22871 -0.568119 1.11063 1.76083e-38 1
0.246874 -0.568119 1.11063 1.73317e-38 1
0.26621 -0.534032 1.04399 1.70551e-38 1
0.291045 -0.548663 1.07259 1.7054e-38 1
0.300358 -0.534032 1.04399 1.71462e-38 1
0.188959 -0.59649 1.2046 1.67789e-38 1
0.199454 -0.570174 1.15146 1.67789e-38 1
0.218286 -0.570174 1.15146 1.69633e-38 1
0.237118 -0.570174 1.15146 1.68707e-38 1
0.248637 -0.553883 1.11856 1.73317e-38 1
0.266931 -0.553883 1.11856 1.71473e-38 1
0.281207 -0.546082 1.10281 1.67785e-38 1
0.304417 -0.523944 1.0581 1.66863e-38 1
0.542945 -0.66848 1.34999 1.63183e-38 1
0.565024 -0.66848 1.34999 1.64105e-38 1
0.558229 -0.635604 1.28359 1.63183e-38 1
0.194958 -0.5951 1.24284 1.70555e-38 1
0.199454 -0.551342 1.15146 1.65945e-38 1
0.226618 -0.572386 1.19541 1.69633e-38 1
0.251938 -0.585801 1.22343 1.70555e-38 1
0.261723 -0.563779 1.17743 1.71477e-38 1
0.287464 -0.576789 1.2046 1.66871e-38 1
0.297996 -0.559571 1.16864 1.66871e-38 1
0.303518 -0.53559 1.11856 1.65019e-38 1
0.516601 -0.669487 1.3982 1.58573e-38 1
0.539469 -0.669487 1.3982 1.59495e-38 1
0.562336 -0.669487 1.3982 1.58573e-38 1
0.574936 -0.657742 1.37367 1.60417e-38 1
0.577152 -0.635445 1.32711 1.60417e-38 1
0.579221 -0.614611 1.28359 1.59495e-38 1
0.600214 -0.614611 1.28359 1.60417e-38 1
0.621207 -0.614611 1.28359 1.62261e-38 1
0.631842 -0.604698 1.26289 1.63183e-38 1
0.652496 -0.604698 1.26289 1.61339e-38 1
0.67315 -0.604698 1.26289 1.65949e-38 1
0.180357 -0.593618 1.28359 1.67793e-38 1
0.194958 -0.574773 1.24284 1.65949e-38 1
0.197998 -0.528623 1.14305 1.71477e-38 1
0.230131 -0.561406 1.21394 1.66867e-38 1
0.253922 -0.570247 1.23306 1.69633e-38 1
0.265719 -0.552835 1.19541 1.65023e-38 1
0.287464 -0.557088 1.2046 1.65027e-38 1
0.297996 -0.540458 1.16864 1.64105e-38 1
0.360107 -0.613741 1.32711 1.60417e-38 1
0.381811 -0.613741 1.32711 1.62261e-38 1
0.493734 -0.64662 1.3982 1.56722e-38 1
0.525994 -0.658377 1.42362 1.57651e-38 1
0.549277 -0.658377 1.42362 1.57651e-38 1
0.57256 -0.658377 1.42362 1.56729e-38 1
0.636485 -0.676836 1.46354 1.56729e-38 1
0.598856 -0.613741 1.32711 1.60417e-38 1
0.63126 -0.624323 1.34999 1.59495e-38 1
0.642265 -0.613741 1.32711 1.58573e-38 1
0.652903 -0.603512 1.30499 1.60417e-38 1
0.674246 -0.603512 1.30499 1.62261e-38 1
0.67315 -0.584044 1.26289 1.62261e-38 1
0.16202 -0.582169 1.30499 1.65945e-38 1
0.180357 -0.572625 1.28359 1.66867e-38 1
0.194958 -0.554447 1.24284 1.65945e-38 1
0.197998 -0.509929 1.14305 1.67793e-38 1
0.233755 -0.550081 1.23306 1.65949e-38 1
0.253922 -0.550081 1.23306 1.65945e-38 1
0.267763 -0.537387 1.2046 1.63179e-38 1
0.28527 -0.533285 1.19541 1.64105e-38 1
0.297996 -0.521345 1.16864 1.62261e-38 1
0.354105 -0.582169 1.30499 1.60417e-38 1
0.375448 -0.582169 1.30499 1.60417e-38 1
0.502711 -0.635094 1.42362 1.53041e-38 1
0.535735 -0.646855 1.44999 1.53963e-38 1
0.559449 -0.646855 1.44999 1.53048e-38 1
0.583163 -0.646855 1.44999 1.53041e-38 1
0.612549 -0.6529 1.46354 1.55807e-38 1
0.642489 -0.659059 1.47734 1.54885e-38 1
0.666651 -0.659059 1.47734 1.54885e-38 1
0.732261 -0.698603 1.56598 1.56729e-38 1
0.735799 -0.678255 1.52037 1.56729e-38 1
0.687267 -0.61281 1.37367 1.56729e-38 1
0.697496 -0.602244 1.34999 1.59495e-38 1
0.707379 -0.592036 1.32711 1.58573e-38 1
0.705179 -0.572625 1.28359 1.63183e-38 1
0.159364 -0.551632 1.28359 1.65023e-38 1
0.177448 -0.542735 1.26289 1.64101e-38 1
0.183318 -0.502233 1.16864 1.65945e-38 1
0.202431 -0.502233 1.16864 1.65027e-38 1
0.237495 -0.538393 1.25279 1.65027e-38 1
0.255937 -0.53412 1.24284 1.65945e-38 1
0.274088 -0.529915 1.23306 1.62257e-38 1
0.291956 -0.525775 1.22343 1.63183e-38 1
0.309546 -0.521699 1.21394 1.60417e-38 1
0.337243 -0.53412 1.24284 1.61339e-38 1
0.336222 -0.502233 1.16864 1.57651e-38 1
0.502711 -0.611811 1.42362 1.53963e-38 1
0.535735 -0.62314 1.44999 1.49361e-38 1
0.559449 -0.62314 1.44999 1.51204e-38 1
0.583163 -0.62314 1.44999 1.50283e-38 1
0.606877 -0.62314 1.44999 1.48431e-38 1
0.642489 -0.634898 1.47734 1.48431e-38 1
0.660421 -0.628964 1.46354 1.4935e-38 1
0.717903 -0.659796 1.53528 1.49357e-38 1
0.676672 -0.600885 1.3982 1.52123e-38 1
0.699539 -0.600885 1.3982 1.53967e-38 1
0.722407 -0.600885 1.3982 1.58577e-38 1
0.732199 -0.590343 1.37367 1.61339e-38 1
0.741653 -0.580165 1.34999 1.63183e-38 1
0.16202 -0.539484 1.30499 1.62257e-38 1
0.177448 -0.522081 1.26289 1.63179e-38 1
0.183318 -0.48312 1.16864 1.63179e-38 1
0.205498 -0.49044 1.18635 1.63183e-38 1
0.241357 -0.526325 1.27316 1.65027e-38 1
0.264328 -0.53064 1.28359 1.63179e-38 1
0.285321 -0.53064 1.28359 1.62257e-38 1
0.303824 -0.526325 1.27316 1.61339e-38 1
0.324646 -0.526325 1.27316 1.61339e-38 1
0.345468 -0.526325 1.27316 1.59495e-38 1
0.341316 -0.49044 1.18635 1.56729e-38 1
0.493734 -0.578018 1.3982 1.49361e-38 1
0.525994 -0.588528 1.42362 1.47517e-38 1
0.559449 -0.599426 1.44999 1.44762e-38 1
0.583163 -0.599426 1.44999 1.42918e-38 1
0.569937 -0.562939 1.36173 1.41063e-38 1
0.619126 -0.588528 1.42362 1.40137e-38 1
0.630938 -0.578018 1.3982 1.41974e-38 1
0.704098 -0.622481 1.50575 1.41981e-38 1
0.701734 -0.599426 1.44999 1.47513e-38 1
0.699539 -0.578018 1.3982 1.53967e-38 1
0.722407 -0.578018 1.3982 1.59498e-38 1
0.745274 -0.578018 1.3982 1.56729e-38 1
0.164766 -0.526923 1.32711 1.60413e-38 1
0.173256 -0.489582 1.23306 1.61335e-38 1
0.187517 -0.474633 1.19541 1.60413e-38 1
0.218756 -0.501427 1.26289 1.60417e-38 1
0.243335 -0.509647 1.28359 1.63183e-38 1
0.266513 -0.513859 1.2942 1.63183e-38 1
0.287679 -0.513859 1.2942 1.61339e-38 1
0.306314 -0.509647 1.28359 1.59495e-38 1
0.324646 -0.505503 1.27316 1.56729e-38 1
0.339941 -0.497415 1.25279 1.59491e-38 1
0.341316 -0.471037 1.18635 1.54885e-38 1
0.493734 -0.555151 1.3982 1.48439e-38 1
0.516601 -0.555151 1.3982 1.44751e-38 1
0.549277 -0.565245 1.42362 1.44751e-38 1
0.57256 -0.565245 1.42362 1.41985e-38 1
0.613548 -0.560152 1.4108 1.3368e-38 1
0.625354 -0.550238 1.38583 1.37364e-38 1
0.701734 -0.575712 1.44999 1.4474e-38 1
0.699539 -0.555151 1.3982 1.50279e-38 1
0.735541 -0.565245 1.42362 1.52119e-38 1
0.758824 -0.565245 1.42362 1.56729e-38 1
0.167607 -0.513929 1.34999 1.59491e-38 1
0.176028 -0.476926 1.25279 1.57647e-38 1
0.190424 -0.462138 1.21394 1.59491e-38 1
0.227948 -0.500973 1.31595 1.61339e-38 1
0.245347 -0.492692 1.2942 1.60417e-38 1
0.266513 -0.492692 1.2942 1.59495e-38 1
0.297514 -0.509537 1.33845 1.58573e-38 1
0.316698 -0.505218 1.32711 1.55807e-38 1
0.338402 -0.505218 1.32711 1.54885e-38 1
0.3483 -0.488654 1.28359 1.53963e-38 1
0.369293 -0.488654 1.28359 1.53963e-38 1
0.485072 -0.522945 1.37367 1.46595e-38 1
0.507538 -0.522945 1.37367 1.45673e-38 1
0.530004 -0.522945 1.37367 1.42907e-38 1
0.562336 -0.532284 1.3982 1.39219e-38 1
0.595843 -0.541962 1.42362 1.39212e-38 1
0.630592 -0.551998 1.44999 1.34602e-38 1
0.654306 -0.551998 1.44999 1.33677e-38 1
0.704098 -0.573229 1.50575 1.37364e-38 1
0.721784 -0.567769 1.49141 1.42896e-38 1
0.712258 -0.541962 1.42362 1.50279e-38 1
0.735541 -0.541962 1.42362 1.52119e-38 1
0.186471 -0.483514 1.32711 1.57647e-38 1
0.211764 -0.49185 1.34999 1.58569e-38 1
0.233843 -0.49185 1.34999 1.58573e-38 1
0.24947 -0.479451 1.31595 1.58573e-38 1
0.278 -0.49185 1.34999 1.56729e-38 1
0.337953 -0.553928 1.52037 1.54885e-38 1
0.316698 -0.483514 1.32711 1.54885e-38 1
0.338402 -0.483514 1.32711 1.52119e-38 1
0.354105 -0.475455 1.30499 1.53963e-38 1
0.490334 -0.483514 1.32711 1.46588e-38 1
0.520866 -0.49185 1.34999 1.429e-38 1
0.55247 -0.500479 1.37367 1.40141e-38 1
0.60131 -0.523437 1.43668 1.3829e-38 1
0.654845 -0.548602 1.50575 1.3368e-38 1
0.686068 -0.553928 1.52037 1.34598e-38 1
0.704098 -0.548602 1.50575 1.34598e-38 1
0.735799 -0.553928 1.52037 1.42896e-38 1
0.712258 -0.518679 1.42362 1.48435e-38 1
0.722407 -0.509416 1.3982 1.48431e-38 1
0.19646 -0.486549 1.3982 1.5396e-38 1
0.285636 -0.633645 1.82091 1.55804e-38 1
0.400106 -0.626362 1.79998 1.53041e-38 1
0.32781 -0.478013 1.37367 1.54885e-38 1
0.344237 -0.469772 1.34999 1.53041e-38 1
0.366315 -0.469772 1.34999 1.51197e-38 1
0.474257 -0.446668 1.28359 1.44744e-38 1
0.49525 -0.446668 1.28359 1.41978e-38 1
0.533743 -0.461809 1.32711 1.40141e-38 1
0.569937 -0.473857 1.36173 1.39212e-38 1
0.648608 -0.518986 1.49141 1.37368e-38 1
0.679471 -0.523976 1.50575 1.37364e-38 1
0.327529 -0.692432 2.08798 1.53963e-38 1
0.383905 -0.618243 1.86427 1.54885e-38 1
0.424502 -0.633322 1.90974 1.55807e-38 1
0.33973 -0.472113 1.42362 1.53041e-38 1
0.356531 -0.463682 1.3982 1.50275e-38 1
0.327529 -0.658283 2.08798 1.52119e-38 1
0.339072 -0.617141 1.95748 1.51197e-38 1
0.390617 -0.649622 2.06051 1.55807e-38 1
0.413437 -0.632965 2.00767 1.51197e-38 1
0.464122 -0.658283 2.08798 1.53041e-38 1
0.583911 -0.771426 2.44685 1.52119e-38 1
0.345981 -0.659297 2.20561 1.53034e-38 1
0.376747 -0.65014 2.17498 1.54878e-38 1
0.401175 -0.632569 2.11619 1.54878e-38 1
0.429974 -0.624135 2.08798 1.54878e-38 1
0.483461 -0.65014 2.17498 1.53034e-38 1
0.602747 -0.755002 2.52578 1.52112e-38 1
0.366637 -0.660433 2.33729 1.53956e-38 1
0.410997 -0.670439 2.3727 1.53034e-38 1
0.418126 -0.623225 2.20561 1.54878e-38 1
0.454198 -0.623225 2.20561 1.5396e-38 1
0.51954 -0.660433 2.33729 1.52116e-38 1
0.389915 -0.661712 2.48569 1.5119e-38 1
0.452097 -0.694798 2.60997 1.56715e-38 1
0.443088 -0.622207 2.33729 1.58559e-38 1
0.488607 -0.631634 2.3727 1.58559e-38 1
0.580153 -0.694798 2.60997 1.54871e-38 1
0.430959 -0.686434 2.74734 1.5119e-38 1
0.475891 -0.686434 2.74734 1.52105e-38 1
0.486671 -0.641422 2.56719 1.54871e-38 1
0.73291 -0.889244 3.55906 1.54871e-38 1
0.545881 -0.812569 3.47996 1.53027e-38 1
0.630832 -0.850363 3.64182 1.50272e-38 1
-0.0205223 -0.315226 3.07056 1.07894e-38 2
0.0302898 -0.321531 3.13197 1.06057e-38 2
-0.161073 -0.157156 1.82091 1.04206e-38 2
-0.0994984 -0.217991 2.52578 1.08812e-38 2
-0.0644245 -0.241347 2.7964 1.11581e-38 2
-0.0193822 -0.250286 2.89997 1.08816e-38 2
0.0296959 -0.265008 3.07056 1.07904e-38 2
0.0831759 -0.275825 3.19589 1.0699e-38 2
0.150835 -0.307169 3.55906 9.8692e-39 2
0.218997 -0.321796 3.72853 1.01461e-38 2
0.279976 -0.321796 3.72853 9.40857e-39 2
2.96661 -0.466049 5.39995 1.02387e-38 2
2.27161 -0.346549 4.01534 8.39477e-39 2
2.33728 -0.346549 4.01534 1.09755e-38 2
4.26373 -0.337885 3.91496 1.17117e-38 2
3.93432 -0.307169 3.55906 1.09734e-38 2
-1.32252 -0.127375 1.82091 1.12507e-38 2
-1.27788 -0.125911 1.79998 1.00529e-38 2
-1.22038 -0.123082 1.75953 1.02384e-38 2
-1.23317 -0.127375 1.82091 1.04231e-38 2
-1.24689 -0.131979 1.88673 1.02384e-38 2
-0.205168 -0.136929 1.95748 1.03284e-38 2
-0.16893 -0.133589 1.90974 1.04206e-38 2
-0.142926 -0.138662 1.98226 1.0144e-38 2
-0.1164 -0.146057 2.08798 9.96033e-39 2
-0.0881272 -0.15649 2.23712 1.08823e-38 2
-0.0601295 -0.182572 2.60997 1.01447e-38 2
-0.01869 -0.195612 2.7964 1.03295e-38 2
0.0280461 -0.202857 2.89997 1.01451e-38 2
0.0768985 -0.206685 2.95469 1.06068e-38 2
0.132735 -0.219086 3.13197 8.76393e-39 2
0.204397 -0.243429 3.47996 9.77808e-39 2
0.261311 -0.243429 3.47996 1.02394e-38 2
2.27952 -0.353364 5.05156 8.76428e-39 2
1.74348 -0.260816 3.72853 9.77843e-39 2
1.76249 -0.254751 3.64182 9.13342e-39 2
1.82206 -0.254751 3.64182 9.68551e-39 2
1.79799 -0.243429 3.47996 1.00543e-38 2
2.03587 -0.267178 3.81947 1.02387e-38 2
2.09834 -0.267178 3.81947 1.02387e-38 2
2.27161 -0.280879 4.01534 9.77699e-39 2
2.11986 -0.254751 3.64182 1.04227e-38 2
3.29388 -0.21479 3.07056 1.17128e-38 2
3.3441 -0.21479 3.07056 1.18043e-38 2
3.32904 -0.210659 3.01151 1.16191e-38 2
3.3783 -0.210659 3.01151 1.09738e-38 2
3.49475 -0.21479 3.07056 1.12504e-38 2
4.63573 -0.280879 4.01534 1.01444e-38 2
5.91467 -0.353364 5.05156 9.40681e-39 2
7.17034 -0.405714 5.79994 1.06057e-38 2
-1.30731 -0.0964731 1.79998 9.59191e-39 2
-1.24916 -0.0943052 1.75953 9.59299e-39 2
-1.22038 -0.0943052 1.75953 9.3164e-39 2
-1.23317 -0.0975949 1.82091 9.40859e-39 2
-1.24689 -0.101122 1.88673 9.4086e-39 2
-1.23086 -0.102356 1.90974 9.50116e-39 2
-1.26115 -0.107605 2.00767 9.7781e-39 2
-0.207765 -0.106243 1.98226 1.0605e-38 2
-0.171016 -0.103619 1.93331 1.08816e-38 2
-0.0881272 -0.119902 2.23712 9.77629e-39 2
-0.0522865 -0.12164 2.26954 9.5919e-39 2
-0.0177397 -0.142257 2.65421 9.86848e-39 2
0.0270445 -0.149878 2.7964 1.01458e-38 2
0.0754745 -0.155429 2.89997 1.05146e-38 2
0.125222 -0.158361 2.95469 1.02383e-38 2
0.191623 -0.174857 3.26247 9.22526e-39 2
0.250192 -0.178578 3.33188 8.30402e-39 2
0.304684 -0.178578 3.33188 8.94867e-39 2
1.97494 -0.299756 5.5928 9.04014e-39 2
1.65312 -0.239805 4.47424 9.13234e-39 2
1.77707 -0.246858 4.60584 8.7632e-39 2
1.8524 -0.246858 4.60584 8.76428e-39 2
1.92773 -0.246858 4.60584 9.13306e-39 2
1.74625 -0.215209 4.01534 9.13306e-39 2
1.6825 -0.199837 3.72853 8.21146e-39 2
1.62725 -0.186515 3.47996 9.22453e-39 2
1.68416 -0.186515 3.47996 9.9621e-39 2
1.7589 -0.18246 3.40431 1.03305e-38 2
1.81458 -0.18246 3.40431 1.0239e-38 2
1.91182 -0.186515 3.47996 1.07919e-38 2
2.0603 -0.19519 3.64182 1.04227e-38 2
2.07168 -0.190754 3.55906 1.05149e-38 2
2.17942 -0.19519 3.64182 9.86846e-39 2
2.23898 -0.19519 3.64182 1.13439e-38 2
3.11089 -0.155429 2.89997 1.16199e-38 2
3.27979 -0.161407 3.01151 1.2173e-38 2
3.26623 -0.158361 2.95469 1.12504e-38 2
3.31455 -0.158361 2.95469 1.05132e-38 2
3.36288 -0.158361 2.95469 1.09738e-38 2
3.68967 -0.171289 3.19589 1.03291e-38 2
4.95553 -0.226842 4.23239 1.09745e-38 2
6.82279 -0.299756 5.5928 9.59156e-39 2
6.67584 -0.289419 5.39995 9.77595e-39 2
-1.30731 -0.0670348 1.79998 9.03982e-39 2
-1.24916 -0.0655284 1.75953 8.85543e-39 2
-1.24844 -0.0670348 1.79998 9.3164e-39 2
-1.27775 -0.0702654 1.88673 9.77773e-39 2
-1.2621 -0.0711223 1.90974 7.84055e-39 2
-1.21603 -0.0702654 1.88673 8.11786e-39 2
-1.26115 -0.0747696 2.00767 6.73492e-39 2
-0.195398 -0.0694289 1.86427 9.96068e-39 2
-0.162968 -0.0686121 1.84233 1.00529e-38 2
-0.0881272 -0.0833147 2.23712 1.00529e-38 2
-0.0515396 -0.0833147 2.23712 1.0606e-38 2
-0.017444 -0.0972005 2.60997 1.09752e-38 2
0.0261119 -0.100552 2.69997 1.11599e-38 2
0.0702693 -0.100552 2.69997 9.77736e-39 2
0.112487 -0.0988479 2.65421 9.77736e-39 2
0.167234 -0.106037 2.84724 1.02383e-38 2
0.209982 -0.104143 2.7964 9.22454e-39 2
0.255717 -0.104143 2.7964 9.50077e-39 2
0.306932 -0.106037 2.84724 9.31638e-39 2
1.38782 -0.153474 4.12101 8.3033e-39 2
1.57995 -0.166629 4.47424 8.57989e-39 2
1.56377 -0.157622 4.23239 8.57989e-39 2
1.77707 -0.17153 4.60584 8.3955e-39 2
1.90853 -0.176728 4.74541 8.3033e-39 2
1.5067 -0.112154 3.01151 1.02383e-38 2
1.68562 -0.121501 3.26247 9.77734e-39 2
1.73897 -0.121501 3.26247 8.9483e-39 2
1.83046 -0.124086 3.33188 9.59367e-39 2
1.92593 -0.126783 3.40431 1.01468e-38 2
3.00776 -0.106037 2.84724 1.17106e-38 2
3.16958 -0.110038 2.95469 1.19872e-38 2
3.48059 -0.119021 3.19589 1.13429e-38 2
3.6832 -0.124086 3.33188 1.08819e-38 2
3.58513 -0.119021 3.19589 1.06975e-38 2
3.56465 -0.116641 3.13197 1.10663e-38 2
3.61587 -0.116641 3.13197 9.31533e-39 2
3.6671 -0.116641 3.13197 9.86814e-39 2
3.95566 -0.124086 3.33188 8.85507e-39 2
3.08979 -0.095607 2.56719 9.59263e-39 2
6.36794 -0.194401 5.21995 9.68411e-39 2
5.6941 -0.17153 4.60584 9.40752e-39 2
3.11366 -0.0925719 2.48569 9.22277e-39 2
-0.190854 -0.0380337 1.82091 1.03295e-38 2
-0.157412 -0.0371693 1.77953 9.86848e-39 2
-0.0515396 -0.0467271 2.23712 9.03909e-39 2
-0.0153918 -0.0481014 2.30292 9.22383e-39 2
0.0222719 -0.0481014 2.30292 9.87028e-39 2
0.0617518 -0.0495591 2.3727 8.57954e-39 2
0.0975993 -0.0481014 2.30292 9.22418e-39 2
0.129548 -0.046069 2.20561 9.22418e-39 2
0.16562 -0.046069 2.20561 1.09755e-38 2
0.21059 -0.0481014 2.30292 1.0238e-38 2
0.286123 -0.055439 2.65421 9.13162e-39 2
1.31843 -0.0817725 3.91496 7.2888e-39 2
1.57995 -0.0934542 4.47424 7.2888e-39 2
1.65312 -0.0934542 4.47424 7.47319e-39 2
1.4509 -0.0605722 2.89997 9.40965e-39 2
1.57492 -0.0617151 2.95469 1.04234e-38 2
1.62324 -0.0617151 2.95469 9.68587e-39 2
3.00776 -0.0594709 2.84724 1.35542e-38 2
3.23054 -0.0629019 3.01151 1.07883e-38 2
3.6287 -0.0695936 3.33188 1.15266e-38 2
3.84689 -0.0726866 3.47996 1.15266e-38 2
3.73769 -0.0695936 3.33188 1.07901e-38 2
3.56465 -0.065418 3.13197 1.00525e-38 2
3.61587 -0.065418 3.13197 8.94654e-39 2
3.6671 -0.065418 3.13197 8.94654e-39 2
3.44289 -0.0605722 2.89997 7.93311e-39 2
3.03995 -0.0527564 2.52578 8.02567e-39 2
2.93905 -0.0503215 2.40921 9.31532e-39 2
3.17376 -0.0536213 2.56719 8.94689e-39 2
3.16388 -0.0527564 2.52578 9.31531e-39 2
-1.10866 -0.00554506 1.22343 6.92002e-39 2
-1.07191 -0.00545975 1.2046 7.47319e-39 2
-1.0522 -0.00545975 1.2046 8.02601e-39 2
-1.09126 -0.00577047 1.27316 7.84127e-39 2
-0.997457 -0.00537703 1.18635 7.84127e-39 2
-1.05822 -0.00581777 1.28359 8.21005e-39 2
-1.03723 -0.00581777 1.28359 8.67103e-39 2
-1.02464 -0.00586585 1.2942 8.11786e-39 2
-0.987153 -0.00577047 1.27316 7.47141e-39 2
-0.974251 -0.00581777 1.28359 7.84127e-39 2
-0.953258 -0.00581777 1.28359 7.93346e-39 2
-0.924686 -0.00577047 1.27316 8.67174e-39 2
-0.911273 -0.00581777 1.28359 9.04016e-39 2
-0.89028 -0.00581777 1.28359 8.94869e-39 2
-1.03974 -0.00695851 1.53528 8.6721e-39 2
-1.05604 -0.00724253 1.59794 8.76285e-39 2
-1.02991 -0.00724253 1.59794 9.22347e-39 2
-0.136407 -0.0110901 2.44685 1.00529e-38 2
-0.0963891 -0.0110901 2.44685 9.4997e-39 2
-0.0530554 -0.0104378 2.30292 9.31567e-39 2
-0.014952 -0.0101395 2.23712 9.50042e-39 2
0.0210346 -0.00985789 2.17498 9.04052e-39 2
0.0574031 -0.00999673 2.20561 8.67245e-39 2
0.0909144 -0.00972285 2.14518 8.67173e-39 2
0.124296 -0.00959146 2.11619 7.38027e-39 2
0.161082 -0.00972285 2.14518 8.94723e-39 2
0.196166 -0.00972285 2.14518 8.67064e-39 2
0.23125 -0.00972285 2.14518 9.96174e-39 2
0.335214 -0.0122374 2.69997 9.31636e-39 2
0.407473 -0.0131439 2.89997 9.04014e-39 2
0.472397 -0.0136494 3.01151 7.84195e-39 2
0.542516 -0.0141954 3.13197 8.48804e-39 2
0.570902 -0.0136494 3.01151 8.58024e-39 2
0.575858 -0.0126744 2.7964 8.3033e-39 2
0.600158 -0.0122374 2.69997 8.21183e-39 2
0.644316 -0.0122374 2.69997 7.93452e-39 2
0.665524 -0.0118295 2.60997 8.30295e-39 2
0.70821 -0.0118295 2.60997 7.93344e-39 2
0.804531 -0.0126744 2.7964 7.84125e-39 2
1.19037 -0.0177442 3.91496 8.39407e-39 2
2.06641 -0.0253489 5.5928 7.84233e-39 2
2.15787 -0.0253489 5.5928 8.67209e-39 2
2.09939 -0.0236589 5.21995 8.21111e-39 2
2.18476 -0.0236589 5.21995 8.11891e-39 2
2.27013 -0.0236589 5.21995 7.10476e-39 2
1.96292 -0.0197158 4.34996 8.21111e-39 2
1.59187 -0.0154297 3.40431 8.02672e-39 2
1.40347 -0.0131439 2.89997 8.11891e-39 2
1.26368 -0.0114479 2.52578 8.2111e-39 2
1.30499 -0.0114479 2.52578 7.659e-39 2
1.30423 -0.0110901 2.44685 8.67243e-39 2
0.693805 -0.00572394 1.26289 9.04122e-39 2
0.714459 -0.00572394 1.26289 7.01291e-39 2
0.735113 -0.00572394 1.26289 7.65828e-39 2
0.664647 -0.00503382 1.11063 7.2895e-39 2
0.663975 -0.00489495 1.07999 7.01327e-39 2
3.36733 -0.0177442 3.91496 1.06982e-38 2
2.21378 -0.0114479 2.52578 1.07904e-38 2
1.2596 -0.00639431 1.4108 1.03284e-38 2
1.28267 -0.00639431 1.4108 1.07894e-38 2
1.30575 -0.00639431 1.4108 1.11589e-38 2
1.32882 -0.00639431 1.4108 1.00525e-38 2
1.36418 -0.00645244 1.42362 1.14358e-38 2
1.38747 -0.00645244 1.42362 1.03291e-38 2
1.41075 -0.00645244 1.42362 1.08816e-38 2
1.44719 -0.00651163 1.43668 9.95925e-39 2
1.44419 -0.00639431 1.4108 1.08816e-38 2
1.93888 -0.00844962 1.86427 1.18957e-38 2
3.78998 -0.0157726 3.47996 1.01451e-38 2
3.84689 -0.0157726 3.47996 1.09748e-38 2
3.65982 -0.0147868 3.26247 1.0606e-38 2
3.56465 -0.0141954 3.13197 1.0238e-38 2
3.61587 -0.0141954 3.13197 1.0883e-38 2
3.6671 -0.0141954 3.13197 9.77738e-39 2
3.44289 -0.0131439 2.89997 1.06993e-38 2
2.85571 -0.0107541 2.3727 8.76322e-39 2
2.85132 -0.0105936 2.33729 8.48699e-39 2
3.17376 -0.0116355 2.56719 8.76358e-39 2
-1.10866 0.0144638 1.22343 7.2888e-39 2
-1.08865 0.0144638 1.22343 7.56539e-39 2
-1.06864 0.0144638 1.22343 7.10441e-39 2
-1.09126 0.0150517 1.27316 6.36649e-39 2
-0.96812 0.013613 1.15146 7.10406e-39 2
-0.949288 0.013613 1.15146 7.38064e-39 2
-0.930456 0.013613 1.15146 8.48699e-39 2
-0.911624 0.013613 1.15146 8.02602e-39 2
-0.892792 0.013613 1.15146 7.47177e-39 2
-0.873961 0.013613 1.15146 7.56504e-39 2
-0.937883 0.0149303 1.26289 8.11821e-39 2
-0.924686 0.0150517 1.27316 7.28917e-39 2
-1.04882 0.0174657 1.47734 7.65723e-39 2
-1.06484 0.0181506 1.53528 6.82818e-39 2
-1.03974 0.0181506 1.53528 7.6583e-39 2
-1.05604 0.0188915 1.59794 7.65686e-39 2
-0.0907191 0.0272259 2.30292 8.76214e-39 2
-0.0515396 0.026448 2.23712 9.59262e-39 2
-0.0141438 0.0250184 2.11619 9.68481e-39 2
0.0204661 0.0250184 2.11619 9.4093e-39 2
0.0582232 0.026448 2.23712 9.04052e-39 2
0.0948107 0.026448 2.23712 9.87027e-39 2
0.124296 0.0250184 2.11619 9.22418e-39 2
0.161082 0.0253611 2.14518 9.59332e-39 2
0.185976 0.0240437 2.03375 9.13234e-39 2
0.219237 0.0240437 2.03375 8.94795e-39 2
0.313587 0.0298607 2.52578 9.04014e-39 2
0.379371 0.03192 2.69997 1.00543e-38 2
0.511764 0.0385701 3.26247 8.02634e-39 2
0.589691 0.040247 3.40431 8.11926e-39 2
0.645368 0.040247 3.40431 8.11926e-39 2
0.620155 0.0356031 3.01151 8.11963e-39 2
0.600158 0.03192 2.69997 7.47426e-39 2
0.622839 0.030856 2.60997 8.30331e-39 2
0.665524 0.030856 2.60997 8.11856e-39 2
0.685364 0.0298607 2.52578 8.11784e-39 2
0.834328 0.0342845 2.89997 7.93345e-39 2
2.06641 0.0661201 5.5928 8.2111e-39 2
2.15787 0.0661201 5.5928 8.57989e-39 2
2.09939 0.0617121 5.21995 8.30331e-39 2
2.18476 0.0617121 5.21995 8.3955e-39 2
2.43228 0.0661201 5.5928 8.67209e-39 2
2.20828 0.0578551 4.8937 7.93452e-39 2
1.83065 0.0462841 3.91496 9.13199e-39 2
1.64755 0.040247 3.40431 8.94867e-39 2
0.67315 0.0149303 1.26289 8.76463e-39 2
0.672123 0.0144638 1.22343 8.85683e-39 2
0.692132 0.0144638 1.22343 9.13377e-39 2
0.646483 0.0131302 1.11063 9.31816e-39 2
0.659966 0.0130378 1.10281 8.21146e-39 2
0.659427 0.0126806 1.07259 8.21181e-39 2
0.663339 0.0124253 1.051 9.50326e-39 2
0.671514 0.0122607 1.03708 9.68729e-39 2
4.12913 0.0578551 4.8937 9.31638e-39 2
2.24489 0.030856 2.60997 9.59261e-39 2
1.59598 0.0215275 1.82091 9.4997e-39 2
1.2596 0.0166789 1.4108 1.04209e-38 2
1.28267 0.0166789 1.4108 9.96068e-39 2
1.29409 0.01653 1.3982 1.07904e-38 2
1.31695 0.01653 1.3982 1.1067e-38 2
1.35189 0.0166789 1.4108 1.01454e-38 2
1.37497 0.0166789 1.4108 1.18971e-38 2
1.38556 0.01653 1.3982 1.0699e-38 2
1.40842 0.01653 1.3982 1.23585e-38 2
1.39395 0.0160988 1.36173 1.12521e-38 2
1.69652 0.019285 1.63123 1.08834e-38 2
3.84689 0.0411414 3.47996 1.06068e-38 2
3.65982 0.0385701 3.26247 1.05146e-38 2
3.6374 0.0377829 3.19589 8.48626e-39 2
3.4768 0.0356031 3.01151 7.7487e-39 2
2.61935 0.026448 2.23712 9.22455e-39 2
2.65594 0.026448 2.23712 9.31675e-39 2
2.85571 0.0280509 2.3727 7.28845e-39 2
2.89452 0.0280509 2.3727 7.19625e-39 2
3.073 0.0293867 2.48569 8.02637e-39 2
-1.12626 0.0350198 1.24284 7.1966e-39 2
-1.08865 0.0344726 1.22343 8.11856e-39 2
-1.06864 0.0344726 1.22343 7.65758e-39 2
-1.08246 0.0355846 1.26289 7.10476e-39 2
-0.940459 0.0315178 1.11856 7.1966e-39 2
-0.909177 0.0310739 1.10281 7.65758e-39 2
-0.891141 0.0310739 1.10281 7.47319e-39 2
-0.873105 0.0310739 1.10281 7.84198e-39 2
-0.855069 0.0310739 1.10281 8.20968e-39 2
-0.781965 0.0290296 1.03025 7.10441e-39 2
-0.855129 0.0324448 1.15146 7.381e-39 2
-0.0994984 0.0711692 2.52578 9.13164e-39 2
-0.0487537 0.0596283 2.11619 9.03944e-39 2
-0.0113765 0.0479619 1.70216 9.68409e-39 2
0.0164619 0.0479619 1.70216 9.03944e-39 2
0.055076 0.0596283 2.11619 9.68481e-39 2
0.0975993 0.0648896 2.30292 9.50077e-39 2
0.32404 0.0735415 2.60997 6.91965e-39 2
0.895779 0.122569 4.34996 7.93523e-39 2
0.725191 0.0919269 3.26247 8.21182e-39 2
0.644316 0.0760775 2.69997 8.11891e-39 2
0.665524 0.0735415 2.60997 7.84233e-39 2
0.685364 0.0711692 2.52578 8.48662e-39 2
0.618934 0.0317446 1.12661 8.11926e-39 2
0.628319 0.0312943 1.11063 7.38205e-39 2
0.637441 0.0308566 1.09509 7.10546e-39 2
0.641885 0.0302226 1.07259 1.02401e-38 2
0.64615 0.029614 1.051 7.01327e-39 2
0.737593 0.0329291 1.16864 8.85753e-39 2
0.714074 0.0310739 1.10281 9.41071e-39 2
0.675063 0.0286526 1.01687 8.85825e-39 2
0.669942 0.0277515 0.984896 8.39799e-39 2
4.12913 0.13789 4.8937 7.01256e-39 2
1.92419 0.0630356 2.23712 7.56611e-39 2
1.52505 0.0490277 1.73998 7.93309e-39 2
1.42669 0.0450254 1.59794 8.11712e-39 2
1.27122 0.0393973 1.3982 1.09759e-38 2
1.29409 0.0393973 1.3982 8.67066e-39 2
1.31695 0.0393973 1.3982 9.68481e-39 2
1.33982 0.0393973 1.3982 9.9614e-39 2
1.36269 0.0393973 1.3982 1.04224e-38 2
1.36125 0.0387061 1.37367 1.01472e-38 2
1.35986 0.0380387 1.34999 9.68624e-39 2
1.37012 0.0377136 1.33845 9.87028e-39 2
1.69652 0.0459635 1.63123 1.00547e-38 2
2.18279 0.0525297 1.86427 9.777e-39 2
2.21328 0.0525297 1.86427 9.22383e-39 2
2.41637 0.0565704 2.00767 9.50077e-39 2
2.72912 0.0630356 2.23712 9.59297e-39 2
3.073 0.0700396 2.48569 9.13163e-39 2
-0.940459 0.0498116 1.11856 7.10441e-39 2
-0.909177 0.04911 1.10281 7.47319e-39 2
-0.891141 0.04911 1.10281 7.38099e-39 2
-0.873105 0.04911 1.10281 7.19661e-39 2
-0.855069 0.04911 1.10281 7.01113e-39 2
-0.781965 0.0458791 1.03025 7.47319e-39 2
-0.0439972 0.0850442 1.90974 8.48555e-39 2
-0.0100638 0.0670541 1.50575 8.30151e-39 2
0.0140231 0.0645706 1.44999 8.85469e-39 2
0.0433577 0.0741875 1.66594 9.31566e-39 2
0.0975993 0.102553 2.30292 8.21003e-39 2
0.966922 0.193712 4.34996 7.65865e-39 2
0.778548 0.145284 3.26247 8.3955e-39 2
0.713062 0.124529 2.7964 8.11891e-39 2
0.7869 0.129141 2.89997 7.84125e-39 2
0.623894 0.04911 1.10281 6.275e-39 2
0.633014 0.0484279 1.08749 9.04122e-39 2
0.637518 0.0474396 1.0653 6.4601e-39 2
0.64615 0.0468028 1.051 8.85683e-39 2
0.696038 0.04911 1.10281 8.76463e-39 2
0.667096 0.0458791 1.03025 7.75048e-39 2
0.649748 0.0435851 0.97874 6.18423e-39 2
0.645581 0.0422644 0.949081 8.02886e-39 2
0.665134 0.0425221 0.954868 6.73811e-39 2
0.680751 0.0425221 0.954868 7.3824e-39 2
0.696367 0.0425221 0.954868 7.28985e-39 2
1.40056 0.0711594 1.59794 9.50185e-39 2
1.37074 0.0683689 1.53528 9.40893e-39 2
1.25997 0.0617135 1.38583 8.3955e-39 2
1.29409 0.0622645 1.3982 9.68588e-39 2
1.31695 0.0622645 1.3982 8.02636e-39 2
1.33982 0.0622645 1.3982 9.13271e-39 2
1.36269 0.0622645 1.3982 7.47319e-39 2
1.37329 0.0617135 1.38583 7.10368e-39 2
1.35986 0.0601174 1.34999 9.68516e-39 2
1.40618 0.0611721 1.37367 9.03979e-39 2
1.42865 0.0611721 1.37367 9.22418e-39 2
1.62183 0.0683689 1.53528 9.68588e-39 2
1.4552 0.0553462 1.24284 1.03305e-38 2
1.41921 0.0532338 1.19541 8.48662e-39 2
-0.0340356 0.0899505 1.47734 8.02636e-39 2
-0.00830666 0.0756726 1.24284 8.57846e-39 2
0.0120198 0.0756726 1.24284 1.0422e-38 2
0.0377372 0.0882848 1.44999 9.68444e-39 2
0.934258 0.238369 3.91496 7.84233e-39 2
0.907533 0.216699 3.55906 7.56574e-39 2
0.690561 0.072233 1.18635 7.93452e-39 2
0.633211 0.064424 1.0581 6.92109e-39 2
0.71848 0.0711549 1.16864 8.2111e-39 2
0.705982 0.0681054 1.11856 7.84195e-39 2
0.667096 0.0627286 1.03025 6.09168e-39 2
0.633901 0.0581387 0.954868 4.89278e-39 2
0.641692 0.0574383 0.943364 5.90657e-39 2
0.661103 0.0577864 0.949081 6.73633e-39 2
0.676625 0.0577864 0.949081 7.56609e-39 2
0.687977 0.0574383 0.943364 8.30401e-39 2
0.711984 0.0581387 0.954868 6.09131e-39 2
0.736583 0.0588565 0.966657 8.58024e-39 2
0.766589 0.059967 0.984896 8.48732e-39 2
0.824164 0.0631441 1.03708 9.31745e-39 2
0.858175 0.064424 1.0581 8.30402e-39 2
0.899799 0.0662136 1.08749 7.93452e-39 2
0.930508 0.0671462 1.10281 7.74869e-39 2
0.962095 0.0681054 1.11856 8.94867e-39 2
1.16317 0.080803 1.32711 9.41e-39 2
1.29459 0.0882848 1.44999 8.76463e-39 2
1.23806 0.0829109 1.36173 8.94903e-39 2
1.26033 0.0829109 1.36173 9.31745e-39 2
1.20901 0.0781537 1.28359 8.85648e-39 2
1.23 0.0781537 1.28359 1.03305e-38 2
1.25099 0.0781537 1.28359 1.06071e-38 2
1.27199 0.0781537 1.28359 9.22382e-39 2
1.29298 0.0781537 1.28359 9.59296e-39 2
1.31397 0.0781537 1.28359 9.22418e-39 2
1.38022 0.080803 1.32711 9.31745e-39 2
1.33409 0.0768932 1.26289 9.04014e-39 2
1.31241 0.0744903 1.22343 9.68516e-39 2
1.33241 0.0744903 1.22343 8.57881e-39 2
1.4552 0.0756726 1.24284 7.56574e-39 2
1.40845 0.072233 1.18635 8.94867e-39 2
1.41712 0.0716899 1.17743 7.93452e-39 2
-0.0286331 0.0959991 1.24284 7.84197e-39 2
-0.00769588 0.0889403 1.15146 7.47247e-39 2
0.011136 0.0889403 1.15146 8.11784e-39 2
0.0323462 0.0959991 1.24284 8.21003e-39 2
0.998286 0.302397 3.91496 7.56538e-39 2
0.649297 0.0719993 0.932133 6.36755e-39 2
0.66061 0.0715733 0.926618 5.81437e-39 2
0.67179 0.0711523 0.921167 6.09096e-39 2
0.678868 0.0703249 0.910456 7.2895e-39 2
0.710277 0.0719993 0.932133 8.02707e-39 2
0.781331 0.0775377 1.00384 9.31673e-39 2
0.829658 0.0806392 1.04399 1.01461e-38 2
0.869931 0.0828485 1.07259 9.68515e-39 2
0.906091 0.0845866 1.09509 7.56322e-39 2
0.930508 0.0851823 1.10281 1.37385e-38 2
0.962095 0.0863992 1.11856 5.99734e-39 2
0.879836 0.0775377 1.00384 6.64378e-39 2
0.907893 0.0785447 1.01687 8.2111e-39 2
1.01698 0.0863992 1.11856 9.40965e-39 2
1.03527 0.0863992 1.11856 1.01472e-38 2
1.05356 0.0863992 1.11856 9.04087e-39 2
1.07186 0.0863992 1.11856 7.74941e-39 2
1.05987 0.0839992 1.08749 6.73525e-39 2
1.07765 0.0839992 1.08749 7.5643e-39 2
1.11087 0.0851823 1.10281 7.74905e-39 2
1.25238 0.0944991 1.22343 8.21003e-39 2
1.31343 0.0975474 1.26289 6.64378e-39 2
1.2924 0.0944991 1.22343 6.55086e-39 2
1.31241 0.0944991 1.22343 9.86991e-39 2
1.33241 0.0944991 1.22343 8.85575e-39 2
1.38488 0.0967671 1.25279 9.77735e-39 2
1.39422 0.0959991 1.24284 9.03979e-39 2
-0.0225486 0.0916063 0.97874 7.10368e-39 2
-0.0065415 0.0916063 0.97874 7.38027e-39 2
0.011136 0.107772 1.15146 7.93344e-39 2
0.0299678 0.107772 1.15146 7.28915e-39 2
0.652596 0.0837544 0.894848 7.2895e-39 2
0.648696 0.0814279 0.869991 7.65829e-39 2
0.63811 0.0783798 0.837425 7.75013e-39 2
0.781331 0.0939552 1.00384 7.8416e-39 2
0.852389 0.100391 1.07259 8.57952e-39 2
0.882013 0.101785 1.08749 7.47281e-39 2
0.912472 0.103218 1.10281 9.8699e-39 2
0.930508 0.103218 1.10281 9.49933e-39 2
0.955271 0.10395 1.11063 9.77843e-39 2
0.85784 0.0916063 0.97874 9.04158e-39 2
0.873847 0.0916063 0.97874 7.75084e-39 2
0.86815 0.089372 0.954868 9.22633e-39 2
0.883767 0.089372 0.954868 7.84268e-39 2
0.867641 0.0862177 0.921167 8.11926e-39 2
0.862414 0.0842357 0.899991 9.59331e-39 2
0.857422 0.0823428 0.879766 8.76391e-39 2
0.764445 0.072202 0.771421 9.59295e-39 2
0.866722 0.0805331 0.860431 9.50112e-39 2
0.880794 0.0805331 0.860431 7.8416e-39 2
1.16333 0.104693 1.11856 7.56609e-39 2
1.2924 0.114508 1.22343 9.13234e-39 2
1.29222 0.112746 1.2046 8.02599e-39 2
1.31192 0.112746 1.2046 8.11854e-39 2
1.36307 0.11541 1.23306 8.67136e-39 2
-0.0065415 0.107613 0.97874 7.28736e-39 2
0.0299678 0.126604 1.15146 8.02564e-39 2
1.03373 0.159427 1.44999 8.39585e-39 2
0.641568 0.0946052 0.860431 9.31781e-39 2
0.63811 0.0920756 0.837425 6.92072e-39 2
0.781331 0.110373 1.00384 6.82744e-39 2
0.84087 0.116339 1.0581 7.65828e-39 2
0.87593 0.118746 1.07999 8.21218e-39 2
0.906091 0.120407 1.09509 8.30509e-39 2
0.924001 0.120407 1.09509 9.13377e-39 2
0.948544 0.121255 1.10281 8.02706e-39 2
0.826834 0.103724 0.943364 7.38242e-39 2
0.812881 0.100105 0.910456 7.56645e-39 2
0.691149 0.0835832 0.760186 8.67315e-39 2
0.703582 0.0835832 0.760186 7.1973e-39 2
0.726596 0.0848184 0.771421 8.94902e-39 2
0.728447 0.0835832 0.760186 8.9483e-39 2
0.74088 0.0835832 0.760186 1.01468e-38 2
0.753312 0.0835832 0.760186 1.15294e-38 2
0.82158 0.0896778 0.815617 9.96245e-39 2
0.83492 0.0896778 0.815617 9.50147e-39 2
0.848259 0.0896778 0.815617 8.76463e-39 2
0.870668 0.0906218 0.824202 6.64413e-39 2
1.06322 0.108976 0.991129 7.56609e-39 2
1.09326 0.110373 1.00384 8.39585e-39 2
1.07349 0.190185 1.50575 8.48804e-39 2
1.05745 0.183141 1.44999 6.64305e-39 2
0.781331 0.12679 1.00384 6.09168e-39 2
0.619148 0.0984044 0.779097 8.9501e-39 2
0.63189 0.0984044 0.779097 6.55301e-39 2
0.632054 0.0964843 0.763895 8.48876e-39 2
0.644547 0.0964843 0.763895 6.36791e-39 2
0.65704 0.0964843 0.763895 8.02707e-39 2
0.779855 0.112382 0.889764 8.3955e-39 2
0.678716 0.0960159 0.760186 8.94868e-39 2
0.691149 0.0960159 0.760186 7.93452e-39 2
0.703582 0.0960159 0.760186 7.56574e-39 2
0.723034 0.0969572 0.767639 7.75048e-39 2
0.724928 0.0955521 0.756514 8.67279e-39 2
0.733756 0.0950927 0.752877 8.58059e-39 2
0.746069 0.0950927 0.752877 8.58059e-39 2
0.765745 0.0960159 0.760186 9.41036e-39 2
0.817881 0.100915 0.798972 9.0405e-39 2
0.848259 0.103017 0.815617 7.6572e-39 2
0.861598 0.103017 0.815617 8.57989e-39 2
0.874937 0.103017 0.815617 7.56609e-39 2
-0.00550863 0.117581 0.824202 7.84125e-39 2
0.007971 0.117581 0.824202 7.56466e-39 2
1.21351 0.242831 1.70216 9.41036e-39 2
1.14204 0.223404 1.56598 7.84195e-39 2
0.607067 0.108978 0.763895 9.13485e-39 2
0.61956 0.108978 0.763895 8.30473e-39 2
0.635152 0.109512 0.767639 8.30437e-39 2
0.644547 0.108978 0.763895 9.5022e-39 2
0.653851 0.108449 0.760186 7.84268e-39 2
0.666283 0.108449 0.760186 7.56574e-39 2
0.67219 0.107406 0.752877 7.28915e-39 2
0.684503 0.107406 0.752877 6.45939e-39 2
0.693482 0.106892 0.749275 6.55159e-39 2
0.705736 0.106892 0.749275 6.36719e-39 2
0.711185 0.105879 0.742173 7.3817e-39 2
0.719911 0.105379 0.738672 8.39585e-39 2
0.721778 0.103909 0.728365 9.31888e-39 2
0.733691 0.103909 0.728365 8.48912e-39 2
0.735342 0.102479 0.718341 9.22596e-39 2
0.822554 0.11283 0.790901 8.94794e-39 2
0.835489 0.11283 0.790901 9.31673e-39 2
0.848424 0.11283 0.790901 7.8416e-39 2
0.60412 0.120881 0.760186 8.30472e-39 2
0.616553 0.120881 0.760186 8.12033e-39 2
0.635152 0.122066 0.767639 6.27535e-39 2
0.641418 0.120881 0.760186 8.11926e-39 2
0.641397 0.118579 0.745707 8.85575e-39 2
0.650495 0.118017 0.742173 8.85575e-39 2
0.656411 0.116909 0.735204 7.01149e-39 2
0.668435 0.116909 0.735204 7.38027e-39 2
0.677279 0.116362 0.731768 7.38027e-39 2
0.686042 0.115821 0.728365 6.7349e-39 2
0.697954 0.115821 0.728365 6.55051e-39 2
0.709866 0.115821 0.728365 7.19588e-39 2
0.715126 0.114754 0.721652 7.93487e-39 2
0.726928 0.114754 0.721652 7.84339e-39 2
0.735342 0.114227 0.718341 9.8717e-39 2
0.79061 0.120881 0.760186 9.41e-39 2
0.803043 0.120881 0.760186 9.59367e-39 2
-0.33617 0.0963602 0.549468 7.28986e-39 2
-0.3103 0.0966995 0.551403 6.55266e-39 2
-0.302346 0.0970412 0.553351 8.11818e-39 2
0.564295 0.127142 0.724993 9.50255e-39 2
0.570866 0.125976 0.718341 9.22703e-39 2
0.582614 0.125976 0.718341 8.94937e-39 2
0.588959 0.12483 0.711811 6.18315e-39 2
0.61744 0.12833 0.731768 8.76356e-39 2
0.62648 0.127733 0.728365 9.59332e-39 2
0.618263 0.123706 0.705398 6.73525e-39 2
0.6298 0.123706 0.705398 8.94795e-39 2
0.647167 0.12483 0.711811 7.10368e-39 2
0.658808 0.12483 0.711811 7.74905e-39 2
0.66441 0.123706 0.705398 7.10333e-39 2
0.675946 0.123706 0.705398 7.7487e-39 2
0.687483 0.123706 0.705398 9.31638e-39 2
0.702182 0.124265 0.70859 8.3033e-39 2
0.713771 0.124265 0.70859 7.38206e-39 2
0.722093 0.123706 0.705398 8.11962e-39 2
0.768234 0.129541 0.738672 8.58061e-39 2
-0.328111 0.102821 0.536296 7.47461e-39 2
-0.321543 0.10353 0.539995 5.99948e-39 2
-0.31598 0.104613 0.545639 7.93595e-39 2
-0.30599 0.104249 0.543745 7.10619e-39 2
-0.297097 0.104249 0.543745 7.84339e-39 2
-0.291238 0.105347 0.549468 8.94938e-39 2
-0.0765103 0.121064 0.631445 7.93417e-39 2
-0.0646198 0.118204 0.616529 8.02672e-39 2
1.64755 0.652691 3.40431 7.19695e-39 2
0.542393 0.136472 0.711811 9.22452e-39 2
0.549043 0.135242 0.705398 8.76499e-39 2
0.555575 0.134035 0.6991 9.96425e-39 2
0.567008 0.134035 0.6991 9.04229e-39 2
0.533214 0.123555 0.644438 9.96353e-39 2
0.546001 0.124065 0.647101 6.73561e-39 2
0.585623 0.130538 0.680863 6.18171e-39 2
0.586557 0.128307 0.669224 9.59295e-39 2
0.607894 0.130538 0.680863 7.84088e-39 2
0.619029 0.130538 0.680863 8.02564e-39 2
0.632916 0.131108 0.683836 8.4859e-39 2
0.6413 0.130538 0.680863 8.39263e-39 2
0.655284 0.131108 0.683836 7.93309e-39 2
0.666468 0.131108 0.683836 9.13307e-39 2
0.683623 0.132263 0.689861 6.82817e-39 2
0.704212 0.134035 0.6991 8.39478e-39 2
0.715645 0.134035 0.6991 8.39477e-39 2
0.74709 0.137724 0.718341 7.8416e-39 2
-0.329239 0.111976 0.538139 7.01328e-39 2
-0.322655 0.112751 0.541863 6.18352e-39 2
-0.31598 0.113536 0.545639 5.16937e-39 2
-0.30599 0.113142 0.543745 7.38206e-39 2
-0.297097 0.113142 0.543745 7.84304e-39 2
-0.292263 0.114736 0.551403 5.81437e-39 2
-0.284246 0.115141 0.553351 7.93559e-39 2
-0.275196 0.115141 0.553351 6.92144e-39 2
-0.266146 0.115141 0.553351 7.93487e-39 2
-0.0995736 0.134648 0.647101 8.48662e-39 2
-0.0868374 0.131391 0.631445 8.11856e-39 2
-0.074703 0.128287 0.616529 8.57954e-39 2
-0.0636179 0.126298 0.606971 8.21075e-39 2
-0.0520763 0.1225 0.588716 8.11783e-39 2
-0.0437642 0.126298 0.606971 8.30222e-39 2
0.530752 0.148113 0.711811 8.5788e-39 2
0.497194 0.135771 0.652493 6.73489e-39 2
0.4975 0.133 0.639177 7.19623e-39 2
0.499794 0.130863 0.628909 7.3817e-39 2
0.51008 0.130863 0.628909 6.45974e-39 2
0.520365 0.130863 0.628909 7.93379e-39 2
0.532791 0.131391 0.631445 8.57952e-39 2
0.585623 0.141674 0.680863 8.9483e-39 2
0.596758 0.141674 0.680863 6.36647e-39 2
0.607894 0.141674 0.680863 8.48697e-39 2
0.619029 0.141674 0.680863 9.04014e-39 2
0.630164 0.141674 0.680863 8.76177e-39 2
0.630337 0.139252 0.669224 8.4859e-39 2
0.663983 0.144181 0.692913 7.93345e-39 2
0.681345 0.145468 0.6991 7.93452e-39 2
0.692778 0.145468 0.6991 9.50112e-39 2
0.704212 0.145468 0.6991 9.8699e-39 2
0.715645 0.145468 0.6991 9.13233e-39 2
-0.58627 0.181165 0.807208 6.36649e-39 2
-0.337919 0.106827 0.475983 5.90551e-39 2
-0.330134 0.106827 0.475983 6.92002e-39 2
-0.323332 0.107153 0.477434 6.82782e-39 2
-0.333827 0.12246 0.545639 5.16902e-39 2
-0.323775 0.122035 0.543745 5.5378e-39 2
-0.313793 0.121613 0.541863 5.35269e-39 2
-0.304931 0.121613 0.541863 4.98391e-39 2
-0.297097 0.122035 0.543745 6.1828e-39 2
-0.291238 0.12332 0.549468 7.56609e-39 2
-0.280285 0.12246 0.545639 6.64413e-39 2
-0.271361 0.12246 0.545639 7.75013e-39 2
-0.264279 0.12332 0.549468 6.73525e-39 2
-0.255292 0.12332 0.549468 7.10403e-39 2
-0.106632 0.140584 0.626394 8.57881e-39 2
-0.0963873 0.140584 0.626394 8.57989e-39 2
-0.0854591 0.139468 0.621422 8.57954e-39 2
-0.0735448 0.136225 0.606971 8.21076e-39 2
-0.0603435 0.129213 0.575729 8.30295e-39 2
-0.0484346 0.122888 0.547547 8.30331e-39 2
-0.0392054 0.122035 0.543745 8.67209e-39 2
0.507675 0.152809 0.680863 9.40749e-39 2
0.518811 0.152809 0.680863 6.36431e-39 2
0.489509 0.141149 0.628909 9.77591e-39 2
0.495812 0.140024 0.623898 7.5643e-39 2
0.504007 0.139468 0.621422 8.67065e-39 2
0.512138 0.138917 0.618966 9.03943e-39 2
0.522261 0.138917 0.618966 7.74904e-39 2
0.608982 0.147673 0.657977 9.40892e-39 2
0.619743 0.147673 0.657977 9.03979e-39 2
0.635848 0.148924 0.663553 8.57881e-39 2
0.6467 0.148924 0.663553 7.65793e-39 2
0.657552 0.148924 0.663553 8.94795e-39 2
0.668404 0.148924 0.663553 1.01465e-38 2
-1.29008 0.342793 1.42362 8.76463e-39 2
-1.2668 0.342793 1.42362 8.11891e-39 2
-0.592216 0.172969 0.718341 7.47284e-39 2
-0.55992 0.166846 0.692913 6.82747e-39 2
-0.539047 0.163944 0.680863 6.55088e-39 2
-0.599472 0.194367 0.807208 6.91966e-39 2
-0.366892 0.121636 0.505156 6.55088e-39 2
-0.338949 0.114961 0.477434 6.82782e-39 2
-0.328139 0.113919 0.473107 7.01222e-39 2
-0.320402 0.113919 0.473107 7.37992e-39 2
-0.307097 0.111891 0.464684 5.53529e-39 2
-0.332668 0.130928 0.543745 6.08953e-39 2
-0.322655 0.130475 0.541863 5.07538e-39 2
-0.311636 0.129578 0.538139 5.3509e-39 2
-0.302835 0.129578 0.538139 3.96796e-39 2
-0.295048 0.130025 0.539995 5.35197e-39 2
-0.288204 0.130928 0.543745 5.35304e-39 2
-0.277385 0.130025 0.539995 9.22381e-39 2
-0.268554 0.130025 0.539995 1.38336e-38 2
-0.260621 0.130475 0.541863 6.82745e-39 2
-0.252633 0.130928 0.543745 8.30366e-39 2
-0.240401 0.129134 0.536296 7.10367e-39 2
-0.23163 0.129134 0.536296 5.62819e-39 2
-0.117524 0.120087 0.498721 9.22417e-39 2
-0.110068 0.120856 0.501918 8.48732e-39 2
-0.127121 0.150829 0.626394 7.2895e-39 2
-0.116876 0.150829 0.626394 7.84232e-39 2
-0.105785 0.149632 0.621422 9.04087e-39 2
-0.0956223 0.149632 0.621422 8.30331e-39 2
-0.0834716 0.146152 0.606971 8.11928e-39 2
-0.0697594 0.138629 0.575729 8.48734e-39 2
-0.0582036 0.133713 0.555314 7.93417e-39 2
-0.0480982 0.130928 0.543745 8.85684e-39 2
-0.0386684 0.129134 0.536296 8.94904e-39 2
-0.0303126 0.130928 0.543745 9.04087e-39 2
0.50984 0.168336 0.6991 8.85503e-39 2
0.507675 0.163944 0.680863 8.39261e-39 2
0.477306 0.150829 0.626394 1.20801e-38 2
0.489509 0.151434 0.628909 1.02365e-38 2
0.493844 0.149632 0.621422 1.10667e-38 2
0.502015 0.14904 0.618966 8.11639e-39 2
0.510122 0.148454 0.616529 7.01112e-39 2
0.520205 0.148454 0.616529 7.93308e-39 2
0.662788 0.158434 0.657977 8.30257e-39 2
-1.29008 0.366076 1.42362 9.22453e-39 2
-1.20127 0.347141 1.34999 9.31638e-39 2
-0.822902 0.251677 0.97874 8.02529e-39 2
-0.592216 0.184717 0.718341 7.3792e-39 2
-0.55992 0.178178 0.692913 7.47176e-39 2
-0.525343 0.170628 0.663553 7.28845e-39 2
-0.527912 0.17508 0.680863 6.73528e-39 2
-0.516777 0.17508 0.680863 6.91859e-39 2
-0.36343 0.125838 0.48937 7.19517e-39 2
-0.353219 0.125057 0.486331 7.28773e-39 2
-0.338949 0.122769 0.477434 7.01222e-39 2
-0.324221 0.120204 0.467458 7.28845e-39 2
-0.308294 0.117059 0.455228 6.45761e-39 2
-0.299109 0.116382 0.452597 7.56359e-39 2
-0.2892 0.115382 0.448706 5.53529e-39 2
-0.281861 0.115382 0.448706 7.19553e-39 2
-0.332668 0.139821 0.543745 5.81295e-39 2
-0.321543 0.138856 0.539995 5.90334e-39 2
-0.309509 0.137435 0.534466 5.99483e-39 2
-0.299745 0.136967 0.532648 7.01221e-39 2
-0.291034 0.136967 0.532648 1.07919e-38 2
-0.287207 0.139337 0.541863 7.74904e-39 2
-0.276432 0.138379 0.538139 8.76247e-39 2
-0.259602 0.134228 0.521995 9.59295e-39 2
-0.25275 0.135129 0.525498 8.21038e-39 2
-0.252633 0.139821 0.543745 8.11926e-39 2
-0.233991 0.134228 0.521995 7.9338e-39 2
-0.218181 0.129898 0.505156 7.10332e-39 2
-0.209919 0.129898 0.505156 8.02527e-39 2
-0.123324 0.125838 0.48937 9.59295e-39 2
-0.11532 0.125838 0.48937 9.22489e-39 2
-0.107992 0.12663 0.492448 8.21038e-39 2
-0.101211 0.128243 0.498721 7.8416e-39 2
-0.115949 0.159795 0.621422 9.22454e-39 2
-0.105785 0.159795 0.621422 8.30223e-39 2
-0.0933985 0.156079 0.606971 7.65686e-39 2
-0.0780278 0.1459 0.567386 8.30187e-39 2
-0.0672856 0.142795 0.555314 8.57954e-39 2
-0.056991 0.139821 0.543745 8.76393e-39 2
-0.0471166 0.136967 0.532648 8.94832e-39 2
-0.0376372 0.134228 0.521995 8.94868e-39 2
-0.029694 0.136967 0.532648 9.04087e-39 2
0.50984 0.179769 0.6991 8.48518e-39 2
0.507675 0.17508 0.680863 1.00536e-38 2
0.467947 0.157915 0.614111 8.94723e-39 2
0.477991 0.157915 0.614111 7.37847e-39 2
0.488034 0.157915 0.614111 1.02372e-38 2
0.496132 0.157298 0.611713 8.30114e-39 2
-1.2668 0.389359 1.42362 8.48662e-39 2
-1.17919 0.369219 1.34999 8.76285e-39 2
-1.01686 0.324466 1.18635 8.57846e-39 2
-0.844002 0.274548 1.00384 7.84018e-39 2
-0.694103 0.230266 0.841927 8.02457e-39 2
-0.580468 0.196465 0.718341 7.47176e-39 2
-0.488114 0.16862 0.616529 7.19518e-39 2
-0.421596 0.148713 0.543745 7.10298e-39 2
-0.371433 0.133842 0.48937 6.91859e-39 2
-0.354566 0.130578 0.477434 6.73419e-39 2
-0.342579 0.129004 0.471682 6.64236e-39 2
-0.325074 0.125232 0.45789 6.64308e-39 2
-0.313914 0.123785 0.452597 6.45869e-39 2
-0.306512 0.123785 0.452597 5.72004e-39 2
-0.296538 0.12272 0.448706 7.84018e-39 2
-0.285923 0.12133 0.443622 8.30116e-39 2
-0.278667 0.12133 0.443622 5.44416e-39 2
-0.272183 0.121675 0.444882 8.20967e-39 2
-0.277522 0.127469 0.466067 1.13411e-38 2
-0.281634 0.133011 0.486331 8.75853e-39 2
-0.277123 0.134684 0.492448 1.00536e-38 2
-0.269069 0.134684 0.492448 7.10367e-39 2
-0.266035 0.137274 0.501918 8.20929e-39 2
-0.259489 0.13816 0.505156 9.22344e-39 2
-0.251228 0.13816 0.505156 7.10402e-39 2
-0.242966 0.13816 0.505156 1.31893e-38 2
-0.234704 0.13816 0.505156 6.45974e-39 2
-0.226442 0.13816 0.505156 7.10403e-39 2
-0.214038 0.135536 0.495565 8.671e-39 2
-0.205933 0.135536 0.495565 8.94758e-39 2
-0.197828 0.135536 0.495565 7.1973e-39 2
-0.192156 0.137274 0.501918 9.5022e-39 2
-0.149199 0.135536 0.495565 8.39513e-39 2
-0.141094 0.135536 0.495565 7.84123e-39 2
-0.131327 0.133842 0.48937 9.59187e-39 2
-0.123324 0.133842 0.48937 8.94723e-39 2
-0.11532 0.133842 0.48937 8.39477e-39 2
-0.107992 0.134684 0.492448 8.57917e-39 2
-0.0999378 0.134684 0.492448 8.11819e-39 2
-0.0924654 0.135536 0.495565 8.48662e-39 2
-0.0906733 0.145678 0.532648 8.7632e-39 2
-0.0825233 0.146676 0.536296 8.8554e-39 2
-0.0732506 0.145678 0.532648 8.67101e-39 2
-0.0632485 0.142765 0.521995 8.67173e-39 2
-0.0532903 0.139057 0.508436 8.67173e-39 2
-0.0446848 0.13816 0.505156 8.85612e-39 2
-0.0357315 0.135536 0.495565 8.94868e-39 2
-0.0276267 0.135536 0.495565 8.94867e-39 2
0.824637 1.18971 4.34996 7.65758e-39 2
0.826873 1.09819 4.01534 7.381e-39 2
0.502897 0.192925 0.705398 7.93273e-39 2
0.50984 0.191203 0.6991 5.62783e-39 2
0.521274 0.191203 0.6991 7.19623e-39 2
0.46072 0.165365 0.604627 9.68551e-39 2
0.470609 0.165365 0.604627 7.74761e-39 2
0.492286 0.166006 0.606971 8.39333e-39 2
-1.16123 0.378255 1.30499 9.13164e-39 2
-1.03626 0.343868 1.18635 8.30188e-39 2
-1.01686 0.343868 1.18635 8.39372e-39 2
-0.421596 0.157606 0.543745 7.74763e-39 2
-0.373769 0.142738 0.492448 7.37885e-39 2
-0.350294 0.136719 0.471682 7.28701e-39 2
-0.332563 0.132721 0.45789 7.4714e-39 2
-0.317644 0.129687 0.447424 6.64308e-39 2
-0.310326 0.129687 0.447424 5.90551e-39 2
-0.303009 0.129687 0.447424 6.73455e-39 2
-0.294849 0.129318 0.446149 6.82603e-39 2
-0.283513 0.127502 0.439883 7.47175e-39 2
-0.276319 0.127502 0.439883 7.65649e-39 2
-0.270645 0.128222 0.442368 6.64161e-39 2
-0.272653 0.132721 0.45789 1.18928e-38 2
-0.269899 0.135091 0.466067 1.48424e-38 2
-0.267046 0.137547 0.474541 7.28662e-39 2
-0.260866 0.138386 0.477434 1.00532e-38 2
-0.256182 0.140094 0.483328 1.25421e-38 2
-0.25138 0.141846 0.48937 9.5933e-39 2
-0.243377 0.141846 0.48937 9.13232e-39 2
-0.236854 0.142738 0.492448 8.02669e-39 2
-0.2288 0.142738 0.492448 7.65791e-39 2
-0.220746 0.142738 0.492448 9.31672e-39 2
-0.211363 0.141846 0.48937 9.40928e-39 2
-0.203359 0.141846 0.48937 1.09766e-38 2
-0.196584 0.142738 0.492448 8.48732e-39 2
-0.18853 0.142738 0.492448 7.1973e-39 2
-0.179348 0.141846 0.48937 9.40928e-39 2
-0.171345 0.141846 0.48937 8.67099e-39 2
-0.163341 0.141846 0.48937 9.13269e-39 2
-0.156315 0.142738 0.492448 8.11926e-39 2
-0.149199 0.143641 0.495565 9.41e-39 2
-0.140207 0.142738 0.492448 8.39478e-39 2
-0.131327 0.141846 0.48937 8.94723e-39 2
-0.123324 0.141846 0.48937 7.74941e-39 2
-0.11532 0.141846 0.48937 7.28807e-39 2
-0.107317 0.141846 0.48937 7.56466e-39 2
-0.0999378 0.142738 0.492448 8.48662e-39 2
-0.0918839 0.142738 0.492448 7.65685e-39 2
-0.0843606 0.143641 0.495565 9.13198e-39 2
-0.0767414 0.144556 0.498721 9.31638e-39 2
-0.068585 0.144556 0.498721 9.13199e-39 2
-0.0604285 0.144556 0.498721 8.30295e-39 2
-0.052272 0.144556 0.498721 8.76393e-39 2
-0.0438364 0.143641 0.495565 8.94868e-39 2
-0.0350657 0.140965 0.486331 9.04087e-39 2
-0.0267792 0.139235 0.480363 8.67209e-39 2
-0.0191581 0.140965 0.486331 8.67209e-39 2
0.706832 1.08073 3.72853 6.91894e-39 2
0.749955 1.05559 3.64182 8.94797e-39 2
0.486973 0.202637 0.6991 6.7349e-39 2
0.498407 0.202637 0.6991 7.74834e-39 2
0.50984 0.202637 0.6991 7.28808e-39 2
0.521274 0.202637 0.6991 9.22418e-39 2
0.509942 0.193977 0.669224 8.94795e-39 2
-0.33497 0.115269 0.376438 8.76286e-39 2
-0.328814 0.115269 0.376438 8.85469e-39 2
-0.860419 0.307383 1.00384 8.7625e-39 2
-0.342052 0.141034 0.460584 7.19481e-39 2
-0.326829 0.137792 0.449995 7.10262e-39 2
-0.315839 0.136226 0.444882 6.54944e-39 2
-0.308563 0.136226 0.444882 8.02457e-39 2
-0.301287 0.136226 0.444882 8.48482e-39 2
-0.295691 0.137005 0.447424 9.683e-39 2
-0.290031 0.137792 0.449995 9.31458e-39 2
-0.282671 0.137792 0.449995 7.93308e-39 2
-0.275312 0.137792 0.449995 7.0104e-39 2
-0.267952 0.137792 0.449995 7.65325e-39 2
-0.260593 0.137792 0.449995 1.2446e-38 2
-0.253233 0.137792 0.449995 8.85538e-39 2
-0.248732 0.139395 0.455228 1.07911e-38 2
-0.244126 0.141034 0.460584 9.96064e-39 2
-0.236593 0.141034 0.460584 9.5011e-39 2
-0.231787 0.142713 0.466067 8.85645e-39 2
-0.226866 0.144433 0.471682 1.11613e-38 2
-0.221824 0.146194 0.477434 1.01472e-38 2
-0.215329 0.147091 0.480363 7.47173e-39 2
-0.208753 0.147999 0.483328 9.31708e-39 2
-0.202096 0.148918 0.486331 9.50255e-39 2
-0.195356 0.149849 0.48937 9.40927e-39 2
-0.187352 0.149849 0.48937 6.55229e-39 2
-0.179348 0.149849 0.48937 8.58059e-39 2
-0.171345 0.149849 0.48937 8.85611e-39 2
-0.163341 0.149849 0.48937 6.08988e-39 2
-0.155338 0.149849 0.48937 9.22598e-39 2
-0.148261 0.150792 0.492448 8.21111e-39 2
-0.140207 0.150792 0.492448 9.03979e-39 2
-0.131327 0.149849 0.48937 6.91893e-39 2
-0.123324 0.149849 0.48937 8.76356e-39 2
-0.11532 0.149849 0.48937 8.76428e-39 2
-0.107317 0.149849 0.48937 8.02672e-39 2
-0.0993131 0.149849 0.48937 8.85648e-39 2
-0.0913096 0.149849 0.48937 8.30222e-39 2
-0.0833061 0.149849 0.48937 8.94759e-39 2
-0.0753025 0.149849 0.48937 8.8554e-39 2
-0.067299 0.149849 0.48937 8.48662e-39 2
-0.0592955 0.149849 0.48937 8.85648e-39 2
-0.0512919 0.149849 0.48937 8.76428e-39 2
-0.0430195 0.148918 0.486331 8.85648e-39 2
-0.0344243 0.146194 0.477434 8.3955e-39 2
-0.0264546 0.145308 0.474541 8.30295e-39 2
-0.0186936 0.145308 0.474541 9.13307e-39 2
0.659709 1.06559 3.47996 7.84125e-39 2
0.716623 1.06559 3.47996 7.01114e-39 2
0.482664 0.212176 0.692913 8.21003e-39 2
0.493996 0.212176 0.692913 8.39407e-39 2
0.505328 0.212176 0.692913 7.10441e-39 2
0.503299 0.206688 0.674993 8.8554e-39 2
-0.341127 0.121425 0.376438 8.02601e-39 2
-0.32865 0.119134 0.369336 8.02601e-39 2
-0.313731 0.115855 0.359171 9.13128e-39 2
-0.316569 0.119134 0.369336 8.48592e-39 2
-0.323115 0.143502 0.444882 7.56359e-39 2
-0.315839 0.143502 0.444882 6.82603e-39 2
-0.30682 0.142692 0.442368 8.39191e-39 2
-0.299585 0.142692 0.442368 8.11496e-39 2
-0.294011 0.143502 0.444882 7.74618e-39 2
-0.286735 0.143502 0.444882 8.39226e-39 2
-0.279459 0.143502 0.444882 9.9603e-39 2
-0.272183 0.143502 0.444882 7.84088e-39 2
-0.264907 0.143502 0.444882 9.03763e-39 2
-0.257631 0.143502 0.444882 7.74689e-39 2
-0.250355 0.143502 0.444882 6.08988e-39 2
-0.244468 0.144322 0.447424 7.56536e-39 2
-0.237151 0.144322 0.447424 8.94865e-39 2
-0.229833 0.144322 0.447424 1.061e-38 2
-0.223795 0.145152 0.449995 1.00557e-38 2
-0.218952 0.14684 0.455228 7.19658e-39 2
-0.217839 0.151236 0.468858 1.21748e-38 2
-0.212719 0.153069 0.474541 8.57772e-39 2
-0.207472 0.154947 0.480363 7.28806e-39 2
-0.199616 0.154947 0.480363 1.03309e-38 2
-0.192944 0.155904 0.483328 7.38061e-39 2
-0.185039 0.155904 0.483328 9.9628e-39 2
-0.176048 0.154947 0.480363 8.85646e-39 2
-0.168191 0.154947 0.480363 7.56537e-39 2
-0.162327 0.156872 0.486331 7.10476e-39 2
-0.154373 0.156872 0.486331 9.31745e-39 2
-0.147334 0.157853 0.48937 7.28808e-39 2
-0.140207 0.158845 0.492448 1.21741e-38 2
-0.132153 0.158845 0.492448 7.5643e-39 2
-0.123324 0.157853 0.48937 8.67101e-39 2
-0.114604 0.156872 0.486331 7.84125e-39 2
-0.105992 0.155904 0.483328 7.75048e-39 2
-0.0980871 0.155904 0.483328 8.30366e-39 2
-0.0901823 0.155904 0.483328 7.1966e-39 2
-0.0822776 0.155904 0.483328 7.56574e-39 2
-0.0743729 0.155904 0.483328 1.0055e-38 2
-0.066881 0.156872 0.486331 1.01458e-38 2
-0.0589272 0.156872 0.486331 9.13198e-39 2
-0.0506587 0.155904 0.483328 8.67101e-39 2
-0.0422326 0.154003 0.477434 8.4877e-39 2
-0.0338059 0.151236 0.468858 9.77843e-39 2
-0.0261378 0.151236 0.468858 9.40965e-39 2
0.631637 1.07474 3.33188 6.55159e-39 2
0.686129 1.07474 3.33188 7.84125e-39 2
0.475539 0.225504 0.6991 7.93488e-39 2
0.47843 0.221548 0.686835 7.47427e-39 2
0.489663 0.221548 0.686835 8.67245e-39 2
0.488052 0.215867 0.669224 7.19912e-39 2
0.494769 0.214037 0.663553 6.36756e-39 2
-0.336277 0.125768 0.371086 8.67138e-39 2
-0.313846 0.119536 0.352699 8.21041e-39 2
-0.305327 0.118469 0.34955 8.8547e-39 2
-0.29961 0.118469 0.34955 7.748e-39 2
-0.326829 0.152511 0.449995 7.65507e-39 2
-0.315839 0.150778 0.444882 8.66886e-39 2
-0.30682 0.149926 0.442368 8.48411e-39 2
-0.297902 0.149084 0.439883 8.85324e-39 2
-0.285889 0.146613 0.432592 6.36432e-39 2
-0.278814 0.146613 0.432592 5.53564e-39 2
-0.271739 0.146613 0.432592 7.28771e-39 2
-0.269125 0.149084 0.439883 5.81186e-39 2
-0.263411 0.149926 0.442368 6.54798e-39 2
-0.256176 0.149926 0.442368 4.98282e-39 2
-0.248941 0.149926 0.442368 9.9621e-39 2
-0.243079 0.150778 0.444882 9.96245e-39 2
-0.235803 0.150778 0.444882 6.18386e-39 2
-0.228528 0.150778 0.444882 1.08862e-38 2
-0.221252 0.150778 0.444882 7.65864e-39 2
-0.215198 0.15164 0.447424 6.91928e-39 2
-0.210284 0.153393 0.452597 1.12517e-38 2
-0.207684 0.157024 0.463309 6.82708e-39 2
-0.204958 0.16083 0.474541 7.93415e-39 2
-0.197197 0.16083 0.474541 7.28878e-39 2
-0.189436 0.16083 0.474541 8.85466e-39 2
-0.181675 0.16083 0.474541 8.11817e-39 2
-0.163976 0.15164 0.447424 8.94758e-39 2
-0.155768 0.150778 0.444882 7.38026e-39 2
-0.148492 0.150778 0.444882 9.03978e-39 2
-0.141216 0.150778 0.444882 6.45866e-39 2
-0.13394 0.150778 0.444882 1.04231e-38 2
-0.138465 0.164826 0.486331 7.65649e-39 2
-0.130512 0.164826 0.486331 4.79878e-39 2
-0.122558 0.164826 0.486331 1.00543e-38 2
-0.113897 0.163809 0.483328 7.38062e-39 2
-0.105992 0.163809 0.483328 9.59439e-39 2
-0.0963036 0.16083 0.474541 9.77878e-39 2
-0.0885426 0.16083 0.474541 9.59404e-39 2
-0.080295 0.159861 0.471682 7.38134e-39 2
-0.0739166 0.162804 0.480363 9.59439e-39 2
-0.0660604 0.162804 0.480363 9.96138e-39 2
-0.0582041 0.162804 0.480363 1.06068e-38 2
-0.0500409 0.161811 0.477434 8.39442e-39 2
-0.0422326 0.161811 0.477434 7.93452e-39 2
-0.0344243 0.161811 0.477434 8.11891e-39 2
0.618478 1.10571 3.26247 1.01472e-38 2
0.701045 1.15378 3.40431 8.21003e-39 2
0.467197 0.232781 0.686835 7.84197e-39 2
0.466162 0.226812 0.669224 8.48662e-39 2
0.473064 0.22489 0.663553 7.93417e-39 2
0.483916 0.22489 0.663553 7.38173e-39 2
-0.330021 0.129384 0.364182 8.11857e-39 2
-0.311044 0.124185 0.34955 8.02566e-39 2
-0.305327 0.124185 0.34955 8.39372e-39 2
-0.295651 0.122544 0.34493 8.11642e-39 2
-0.288737 0.122007 0.343418 9.22204e-39 2
-0.314054 0.157161 0.442368 8.11533e-39 2
-0.303391 0.155405 0.437426 7.0097e-39 2
-0.285089 0.149557 0.420963 8.67029e-39 2
-0.273788 0.147183 0.414282 8.11856e-39 2
-0.265607 0.146408 0.412101 6.36684e-39 2
-0.258867 0.146408 0.412101 6.45831e-39 2
-0.25755 0.149557 0.420963 4.61403e-39 2
-0.257589 0.153688 0.432592 8.20894e-39 2
-0.253313 0.155405 0.437426 4.43036e-39 2
-0.246159 0.155405 0.437426 6.64449e-39 2
-0.239005 0.155405 0.437426 5.99911e-39 2
-0.230563 0.154542 0.434996 6.73668e-39 2
-0.223449 0.154542 0.434996 8.67279e-39 2
-0.217543 0.155405 0.437426 5.81365e-39 2
-0.210389 0.155405 0.437426 9.22417e-39 2
-0.204377 0.156278 0.439883 1.0884e-38 2
-0.199424 0.158054 0.444882 8.67099e-39 2
-0.197766 0.162676 0.45789 7.28877e-39 2
-0.191397 0.163633 0.460584 9.50183e-39 2
-0.183864 0.163633 0.460584 6.82671e-39 2
-0.168406 0.156278 0.439883 8.30149e-39 2
-0.159421 0.154542 0.434996 5.81293e-39 2
-0.152307 0.154542 0.434996 9.40928e-39 2
-0.14439 0.153688 0.432592 1.07908e-38 2
-0.136561 0.152844 0.430215 7.28841e-39 2
-0.123421 0.145642 0.409943 8.85575e-39 2
-0.115507 0.144132 0.405695 6.73489e-39 2
-0.106662 0.141206 0.397458 9.96173e-39 2
-0.0976822 0.137711 0.38762 8.9483e-39 2
-0.109179 0.164601 0.463309 9.9621e-39 2
-0.104065 0.168591 0.474541 8.11926e-39 2
-0.0963036 0.168591 0.474541 8.85683e-39 2
-0.0880093 0.167576 0.471682 9.59439e-39 2
-0.0798142 0.166572 0.468858 9.31781e-39 2
-0.0725808 0.167576 0.471682 8.30366e-39 2
-0.0660604 0.17066 0.480363 9.86919e-39 2
-0.0582041 0.17066 0.480363 8.76284e-39 2
-0.0497376 0.168591 0.474541 8.3937e-39 2
-0.0417238 0.167576 0.471682 7.01149e-39 2
-0.0330151 0.162676 0.45789 9.03979e-39 2
0.618478 1.15906 3.26247 7.93379e-39 2
0.686129 1.18373 3.33188 8.85683e-39 2
0.466162 0.237757 0.669224 6.92364e-39 2
0.469089 0.233761 0.657977 7.11273e-39 2
-0.311044 0.129902 0.34955 8.30296e-39 2
-0.310879 0.132264 0.355906 8.20933e-39 2
-0.305058 0.132264 0.355906 8.20861e-39 2
-0.288019 0.150767 0.405695 9.40643e-39 2
-0.281384 0.150767 0.405695 7.93273e-39 2
-0.27618 0.151553 0.407808 7.01257e-39 2
-0.26951 0.151553 0.407808 6.73562e-39 2
-0.261479 0.150767 0.405695 8.48662e-39 2
-0.254844 0.150767 0.405695 8.02528e-39 2
-0.249501 0.151553 0.407808 6.73453e-39 2
-0.246686 0.153958 0.414282 7.10403e-39 2
-0.245098 0.157287 0.423239 6.36826e-39 2
-0.238176 0.157287 0.423239 5.44631e-39 2
-0.230011 0.156441 0.420963 7.47425e-39 2
-0.218428 0.153148 0.412101 9.87133e-39 2
-0.211689 0.153148 0.412101 8.02778e-39 2
-0.208237 0.155605 0.418712 8.30437e-39 2
-0.201389 0.155605 0.418712 7.84267e-39 2
-0.195587 0.156441 0.420963 7.01326e-39 2
-0.187693 0.155605 0.418712 7.47317e-39 2
-0.176135 0.151553 0.407808 7.84303e-39 2
-0.169466 0.151553 0.407808 9.68694e-39 2
-0.162796 0.151553 0.407808 1.04231e-38 2
-0.15777 0.153148 0.412101 8.9465e-39 2
-0.151829 0.153958 0.414282 7.28878e-39 2
-0.146605 0.155605 0.418712 7.56716e-39 2
-0.139757 0.155605 0.418712 9.50075e-39 2
-0.129448 0.151553 0.407808 1.00543e-38 2
-0.12089 0.149221 0.401534 5.81329e-39 2
-0.110361 0.14405 0.38762 9.86954e-39 2
-0.100538 0.139225 0.374637 1.06993e-38 2
-0.0900995 0.132868 0.357531 7.93415e-39 2
-0.0838692 0.132264 0.355906 1.04231e-38 2
-0.0981181 0.166275 0.447424 6.09096e-39 2
-0.0739166 0.178516 0.480363 9.04087e-39 2
-0.0329816 0.138562 0.372853 7.56466e-39 2
-0.0267563 0.137906 0.371086 8.30222e-39 2
-0.0206873 0.137906 0.371086 8.85575e-39 2
0.0166753 0.146222 0.393463 8.94723e-39 2
0.0226549 0.14334 0.38571 9.87063e-39 2
0.0289631 0.14334 0.38571 7.47426e-39 2
0.618478 1.21242 3.26247 5.62889e-39 2
0.671835 1.21242 3.26247 7.93415e-39 2
-0.32261 0.143296 0.369336 8.39335e-39 2
-0.322657 0.146051 0.376438 8.02349e-39 2
-0.331034 0.155788 0.401534 8.6685e-39 2
-0.324467 0.155788 0.401534 7.65435e-39 2
-0.321194 0.157402 0.405695 8.76214e-39 2
-0.314559 0.157402 0.405695 7.7487e-39 2
-0.307924 0.157402 0.405695 7.47211e-39 2
-0.295171 0.154207 0.397458 7.74798e-39 2
-0.288671 0.154207 0.397458 6.91822e-39 2
-0.275186 0.15039 0.38762 7.56359e-39 2
-0.268847 0.15039 0.38762 8.20968e-39 2
-0.266465 0.152657 0.393463 7.74978e-39 2
-0.261343 0.153428 0.395451 7.28915e-39 2
-0.254876 0.153428 0.395451 7.56609e-39 2
-0.248408 0.153428 0.395451 5.25868e-39 2
-0.243169 0.154207 0.397458 1.04209e-38 2
-0.236668 0.154207 0.397458 4.43144e-39 2
-0.224471 0.15039 0.38762 7.01435e-39 2
-0.215993 0.148915 0.38382 9.22668e-39 2
-0.208693 0.148189 0.381947 4.52291e-39 2
-0.202446 0.148189 0.381947 1.05153e-38 2
-0.193369 0.146051 0.376438 9.77771e-39 2
-0.187213 0.146051 0.376438 7.38206e-39 2
-0.181931 0.146757 0.378257 9.41144e-39 2
-0.179208 0.149649 0.38571 7.29057e-39 2
-0.172899 0.149649 0.38571 5.99983e-39 2
-0.166591 0.149649 0.38571 5.99911e-39 2
-0.161076 0.15039 0.38762 7.65756e-39 2
-0.154737 0.15039 0.38762 7.65612e-39 2
-0.148398 0.15039 0.38762 6.36538e-39 2
-0.141358 0.149649 0.38571 6.92179e-39 2
-0.141315 0.156591 0.403604 9.87098e-39 2
-0.134715 0.156591 0.403604 9.40856e-39 2
-0.126163 0.154207 0.397458 8.76498e-39 2
-0.113334 0.146051 0.376438 9.59367e-39 2
-0.102732 0.139994 0.360826 8.85539e-39 2
-0.0955107 0.138085 0.355906 7.19623e-39 2
-0.0884834 0.136227 0.351118 8.67208e-39 2
-0.0823716 0.135619 0.34955 9.77843e-39 2
-0.0766548 0.135619 0.34955 9.50184e-39 2
-0.070938 0.135619 0.34955 1.12528e-38 2
-0.0830087 0.172606 0.444882 8.21003e-39 2
-0.0684569 0.172606 0.444882 9.13199e-39 2
-0.043124 0.138085 0.355906 9.77664e-39 2
-0.0373032 0.138085 0.355906 7.19588e-39 2
-0.0314825 0.138085 0.355906 9.13199e-39 2
-0.0256617 0.138085 0.355906 9.50077e-39 2
-0.0199316 0.138715 0.357531 1.04216e-38 2
-0.0140842 0.138715 0.357531 7.01112e-39 2
-0.00954437 0.160734 0.414282 9.13198e-39 2
-0.00276889 0.160734 0.414282 8.30186e-39 2
0.0039855 0.159888 0.412101 6.91929e-39 2
0.0101384 0.151138 0.389548 9.77771e-39 2
0.0163467 0.149649 0.38571 1.02387e-38 2
0.0226549 0.149649 0.38571 7.28807e-39 2
0.0288211 0.148915 0.38382 9.31673e-39 2
0.0350984 0.148915 0.38382 6.45974e-39 2
0.0415795 0.149649 0.38571 1.04224e-38 2
-0.327241 0.15148 0.374637 6.82603e-39 2
-0.324216 0.152943 0.378257 1.17117e-38 2
-0.337601 0.162355 0.401534 8.11604e-39 2
-0.331034 0.162355 0.401534 7.74726e-39 2
-0.324467 0.162355 0.401534 9.68301e-39 2
-0.314672 0.160707 0.397458 7.4714e-39 2
-0.300544 0.156729 0.38762 8.94724e-39 2
-0.287098 0.152943 0.378257 7.19553e-39 2
-0.275587 0.150044 0.371086 7.01042e-39 2
-0.246717 0.13735 0.339693 8.30116e-39 2
-0.238063 0.135586 0.335329 5.25942e-39 2
-0.232578 0.135586 0.335329 5.99698e-39 2
-0.247787 0.14794 0.365884 8.21003e-39 2
-0.25873 0.158296 0.391496 8.48769e-39 2
-0.254876 0.159895 0.395451 7.01291e-39 2
-0.248408 0.159895 0.395451 9.31708e-39 2
-0.241941 0.159895 0.395451 8.21002e-39 2
-0.23081 0.156729 0.38762 8.30401e-39 2
-0.217996 0.152208 0.376438 1.04259e-38 2
-0.210826 0.15148 0.374637 5.72325e-39 2
-0.204698 0.15148 0.374637 8.11853e-39 2
-0.198571 0.15148 0.374637 8.8561e-39 2
-0.191528 0.150758 0.372853 7.6572e-39 2
-0.18543 0.150758 0.372853 9.04087e-39 2
-0.179332 0.150758 0.372853 6.18387e-39 2
-0.174063 0.15148 0.374637 5.26191e-39 2
-0.172052 0.155192 0.38382 8.58131e-39 2
-0.166591 0.155957 0.38571 8.21181e-39 2
-0.161076 0.156729 0.38762 9.40927e-39 2
-0.153975 0.155957 0.38571 6.27318e-39 2
-0.146943 0.155192 0.38382 9.04013e-39 2
-0.1393 0.153686 0.380093 7.93594e-39 2
-0.133083 0.153686 0.380093 8.57845e-39 2
-0.126254 0.152943 0.378257 1.19882e-38 2
-0.117236 0.149336 0.369336 7.10546e-39 2
-0.106667 0.143255 0.354295 9.59367e-39 2
-0.0999683 0.14197 0.351118 7.10332e-39 2
-0.0938052 0.141336 0.34955 1.16213e-38 2
-0.0876969 0.140708 0.347996 6.18172e-39 2
-0.0816426 0.140085 0.346457 6.55159e-39 2
-0.0759764 0.140085 0.346457 8.02671e-39 2
-0.0703102 0.140085 0.346457 1.11606e-38 2
-0.064644 0.140085 0.346457 9.87098e-39 2
-0.0595043 0.141336 0.34955 8.30258e-39 2
-0.0537875 0.141336 0.34955 7.84125e-39 2
-0.0482863 0.14197 0.351118 7.84125e-39 2
-0.0425438 0.14197 0.351118 9.77735e-39 2
-0.0369672 0.142609 0.352699 7.93344e-39 2
-0.0311989 0.142609 0.352699 8.48662e-39 2
-0.0254305 0.142609 0.352699 8.67101e-39 2
-0.0196622 0.142609 0.352699 8.20894e-39 2
-0.0138939 0.142609 0.352699 9.13162e-39 2
-0.00819948 0.143906 0.355906 9.22382e-39 2
-0.00244542 0.14794 0.365884 8.94723e-39 2
0.00369388 0.154435 0.381947 8.02528e-39 2
0.0100385 0.155957 0.38571 6.64306e-39 2
0.0163467 0.155957 0.38571 6.64306e-39 2
0.0226549 0.155957 0.38571 7.93344e-39 2
0.0288211 0.155192 0.38382 7.65684e-39 2
0.0350984 0.155192 0.38382 8.30366e-39 2
0.0413757 0.155192 0.38382 8.39298e-39 2
-0.324216 0.15913 0.378257 9.22347e-39 2
-0.31803 0.15913 0.378257 9.03944e-39 2
-0.314886 0.160682 0.381947 9.40822e-39 2
-0.308639 0.160682 0.381947 8.20896e-39 2
-0.299471 0.15913 0.378257 8.76106e-39 2
-0.287725 0.156113 0.371086 6.82603e-39 2
-0.276415 0.153208 0.364182 7.56431e-39 2
-0.255599 0.14479 0.344172 7.6565e-39 2
-0.247253 0.143217 0.340431 6.64271e-39 2
-0.238573 0.141373 0.336048 7.10441e-39 2
-0.233077 0.141373 0.336048 8.8554e-39 2
-0.236725 0.147053 0.34955 9.13234e-39 2
-0.219262 0.139575 0.331776 9.31708e-39 2
-0.252327 0.164699 0.391496 9.22668e-39 2
-0.23715 0.163068 0.38762 8.304e-39 2
-0.217868 0.153924 0.365884 6.27642e-39 2
-0.211884 0.153924 0.365884 8.02813e-39 2
-0.2059 0.153924 0.365884 9.68801e-39 2
-0.199916 0.153924 0.365884 1.00564e-38 2
-0.194842 0.154647 0.367602 8.21181e-39 2
-0.18883 0.154647 0.367602 8.58059e-39 2
-0.181964 0.153924 0.365884 8.3033e-39 2
-0.172751 0.1511 0.359171 7.01291e-39 2
-0.164612 0.149049 0.354295 6.82853e-39 2
-0.158817 0.149049 0.354295 8.11926e-39 2
-0.163372 0.15913 0.378257 7.3817e-39 2
-0.160283 0.162265 0.38571 1.01468e-38 2
-0.151732 0.159902 0.380093 1.06997e-38 2
-0.142744 0.156856 0.372853 9.40891e-39 2
-0.135999 0.156113 0.371086 8.11926e-39 2
-0.12871 0.154647 0.367602 8.20823e-39 2
-0.120994 0.152499 0.362496 8.48409e-39 2
-0.112462 0.149049 0.354295 7.19623e-39 2
-0.105239 0.147053 0.34955 7.28842e-39 2
-0.0990797 0.146399 0.347996 7.47245e-39 2
-0.0929751 0.145751 0.346457 6.45795e-39 2
-0.0873088 0.145751 0.346457 9.03835e-39 2
-0.081283 0.145109 0.34493 7.65649e-39 2
-0.0753099 0.144473 0.343418 7.93487e-39 2
-0.0696934 0.144473 0.343418 9.68659e-39 2
-0.0640769 0.144473 0.343418 9.22417e-39 2
-0.0587179 0.145109 0.34493 8.4866e-39 2
-0.0533115 0.145751 0.346457 9.22453e-39 2
-0.0480707 0.147053 0.34955 9.22418e-39 2
-0.0423539 0.147053 0.34955 9.03943e-39 2
-0.0368014 0.147712 0.351118 8.30151e-39 2
-0.031059 0.147712 0.351118 8.30151e-39 2
-0.0253165 0.147712 0.351118 9.40821e-39 2
-0.0194867 0.147053 0.34955 9.95994e-39 2
-0.0137699 0.147053 0.34955 9.03835e-39 2
-0.00808917 0.147712 0.351118 7.65649e-39 2
-0.00236796 0.149049 0.354295 9.68372e-39 2
0.00348961 0.151796 0.360826 8.30042e-39 2
0.00989228 0.159902 0.380093 1.03302e-38 2
0.0163467 0.162265 0.38571 8.30258e-39 2
0.0228803 0.16388 0.389548 1.01458e-38 2
0.0289631 0.162265 0.38571 7.47102e-39 2
0.0350984 0.16147 0.38382 7.93452e-39 2
0.0413757 0.16147 0.38382 7.74761e-39 2
-0.316501 0.164521 0.376438 6.82782e-39 2
-0.310344 0.164521 0.376438 9.68589e-39 2
-0.301291 0.162954 0.372853 8.30188e-39 2
-0.289675 0.159908 0.365884 9.59262e-39 2
-0.266271 0.150089 0.343418 6.82639e-39 2
-0.260655 0.150089 0.343418 6.55016e-39 2
-0.255038 0.150089 0.343418 8.48734e-39 2
-0.247253 0.148784 0.340431 8.76428e-39 2
-0.237554 0.146241 0.334612 7.56574e-39 2
-0.232081 0.146241 0.334612 7.75013e-39 2
-0.23463 0.151418 0.346457 8.21073e-39 2
-0.218799 0.144695 0.331075 1.12532e-38 2
-0.213858 0.15277 0.34955 7.75118e-39 2
-0.208141 0.15277 0.34955 1.04252e-38 2
-0.204248 0.154146 0.352699 6.73668e-39 2
-0.199378 0.154843 0.354295 1.21769e-38 2
-0.193584 0.154843 0.354295 7.38349e-39 2
-0.189504 0.156257 0.357531 6.55265e-39 2
-0.183657 0.156257 0.357531 6.09203e-39 2
-0.177809 0.156257 0.357531 7.01291e-39 2
-0.169638 0.154146 0.352699 9.68515e-39 2
-0.163135 0.153455 0.351118 1.05156e-38 2
-0.157393 0.153455 0.351118 7.10511e-39 2
-0.15165 0.153455 0.351118 9.96245e-39 2
-0.145908 0.153455 0.351118 8.67171e-39 2
-0.141434 0.154843 0.354295 7.93415e-39 2
-0.136878 0.156257 0.357531 8.85574e-39 2
-0.131031 0.156257 0.357531 6.92e-39 2
-0.124614 0.155547 0.355906 7.10188e-39 2
-0.117724 0.154146 0.352699 9.49896e-39 2
-0.110956 0.15277 0.34955 6.82852e-39 2
-0.104307 0.151418 0.346457 1.02383e-38 2
-0.097776 0.150089 0.343418 1.10674e-38 2
-0.091757 0.149434 0.341918 7.3799e-39 2
-0.0861651 0.149434 0.341918 9.13054e-39 2
-0.0802227 0.148784 0.340431 1.08833e-38 2
-0.0743319 0.14814 0.338958 7.8416e-39 2
-0.0687883 0.14814 0.338958 8.4866e-39 2
-0.0632447 0.14814 0.338958 1.03294e-38 2
-0.0582051 0.149434 0.341918 7.65684e-39 2
-0.0530767 0.150751 0.34493 8.85503e-39 2
-0.0476453 0.151418 0.346457 9.03979e-39 2
-0.0419791 0.151418 0.346457 8.57845e-39 2
-0.0363129 0.151418 0.346457 9.03943e-39 2
-0.0309203 0.15277 0.34955 1.05146e-38 2
-0.0252035 0.15277 0.34955 7.74869e-39 2
-0.0194867 0.15277 0.34955 1.11592e-38 2
-0.0137699 0.15277 0.34955 8.76176e-39 2
-0.00805306 0.15277 0.34955 8.85396e-39 2
-0.00234673 0.153455 0.351118 7.74618e-39 2
0.00341102 0.154146 0.352699 1.06957e-38 2
0.00934775 0.156974 0.359171 8.11639e-39 2
0.0156527 0.161417 0.369336 1.0055e-38 2
0.0228803 0.170251 0.389548 8.48625e-39 2
0.0282669 0.164521 0.376438 5.9037e-39 2
0.0344234 0.164521 0.376438 8.94759e-39 2
0.04058 0.164521 0.376438 8.94579e-39 2
-0.316501 0.170678 0.376438 8.21003e-39 2
-0.307388 0.169052 0.372853 8.11928e-39 2
-0.295659 0.165892 0.365884 8.6721e-39 2
-0.271293 0.155365 0.342666 7.56431e-39 2
-0.265689 0.155365 0.342666 7.65471e-39 2
-0.265309 0.158486 0.34955 7.74798e-39 2
-0.255038 0.155706 0.343418 9.3171e-39 2
-0.246717 0.154017 0.339693 6.36719e-39 2
-0.245963 0.157084 0.346457 7.74941e-39 2
-0.239238 0.156392 0.34493 8.67279e-39 2
-0.233597 0.156392 0.34493 8.5806e-39 2
-0.21742 0.149164 0.328988 8.39585e-39 2
-0.212039 0.149164 0.328988 7.65756e-39 2
-0.207094 0.149478 0.329681 8.58059e-39 2
-0.202555 0.15011 0.331075 6.64448e-39 2
-0.205391 0.156392 0.34493 7.84195e-39 2
-0.201525 0.157782 0.347996 7.29057e-39 2
-0.195833 0.157782 0.347996 7.47496e-39 2
-0.190142 0.157782 0.347996 5.53886e-39 2
-0.184451 0.157782 0.347996 9.22561e-39 2
-0.177968 0.157084 0.346457 8.48732e-39 2
-0.170045 0.155026 0.341918 5.07643e-39 2
-0.164453 0.155026 0.341918 4.6151e-39 2
-0.160261 0.156392 0.34493 7.65684e-39 2
-0.155994 0.157782 0.347996 8.39477e-39 2
-0.150302 0.157782 0.347996 7.93487e-39 2
-0.145256 0.158486 0.34955 6.09096e-39 2
-0.13954 0.158486 0.34955 5.90585e-39 2
-0.134423 0.159197 0.351118 9.5933e-39 2
-0.128681 0.159197 0.351118 7.84158e-39 2
-0.122389 0.158486 0.34955 1.06064e-38 2
-0.116672 0.158486 0.34955 1.17124e-38 2
-0.109974 0.157084 0.346457 8.94758e-39 2
-0.102941 0.155026 0.341918 8.5788e-39 2
-0.0969258 0.154352 0.340431 1.01447e-38 2
-0.0897964 0.151713 0.334612 8.39261e-39 2
-0.0839651 0.151068 0.333188 6.54798e-39 2
-0.0772018 0.148539 0.327612 9.77627e-39 2
-0.0718438 0.148539 0.327612 9.22453e-39 2
-0.0664858 0.148539 0.327612 1.05149e-38 2
-0.0616436 0.149793 0.330376 9.03798e-39 2
-0.056719 0.151068 0.333188 9.1309e-39 2
-0.0514889 0.151713 0.334612 8.57772e-39 2
-0.0460164 0.151713 0.334612 1.15276e-38 2
-0.0405439 0.151713 0.334612 9.77555e-39 2
-0.0350714 0.151713 0.334612 1.06053e-38 2
-0.0299833 0.153684 0.338958 1.00521e-38 2
-0.0246532 0.155026 0.341918 1.01447e-38 2
-0.0192291 0.156392 0.34493 8.30186e-39 2
-0.0135879 0.156392 0.34493 7.74761e-39 2
-0.00801727 0.157782 0.347996 9.31422e-39 2
-0.00232587 0.157782 0.347996 9.683e-39 2
0.00336553 0.157782 0.347996 8.6692e-39 2
0.00905694 0.157782 0.347996 8.57845e-39 2
0.0146831 0.157084 0.346457 6.55086e-39 2
0.0196536 0.151713 0.334612 1.06075e-38 2
0.0251261 0.151713 0.334612 9.03978e-39 2
0.0312667 0.155026 0.341918 6.73453e-39 2
0.0368587 0.155026 0.341918 7.932e-39 2
-0.307388 0.17515 0.372853 5.99806e-39 2
-0.294284 0.171077 0.364182 8.11856e-39 2
-0.271293 0.160969 0.342666 5.62748e-39 2
-0.265689 0.160969 0.342666 9.31458e-39 2
-0.26413 0.163473 0.347996 1.00536e-38 2
-0.257295 0.16275 0.346457 8.85647e-39 2
-0.251629 0.16275 0.346457 4.24705e-39 2
-0.244879 0.162033 0.34493 1.06068e-38 2
-0.239238 0.162033 0.34493 7.38098e-39 2
-0.232572 0.161322 0.343418 7.01256e-39 2
-0.217878 0.15487 0.329681 4.15485e-39 2
-0.212486 0.15487 0.329681 8.02634e-39 2
-0.20797 0.155524 0.331075 8.94938e-39 2
-0.203415 0.156185 0.332481 6.09096e-39 2
-0.200964 0.158541 0.337497 5.16756e-39 2
-0.195444 0.158541 0.337497 6.18315e-39 2
-0.18911 0.157861 0.336048 9.77878e-39 2
-0.183614 0.157861 0.336048 7.56609e-39 2
-0.175853 0.155854 0.331776 5.99769e-39 2
-0.168288 0.153898 0.327612 7.84088e-39 2
-0.161578 0.15262 0.324893 8.76426e-39 2
-0.154343 0.150744 0.320898 8.21037e-39 2
-0.149095 0.150744 0.320898 8.57772e-39 2
-0.144439 0.151364 0.322219 6.18171e-39 2
-0.148978 0.162033 0.34493 7.2895e-39 2
-0.143971 0.16275 0.346457 8.39585e-39 2
-0.138919 0.163473 0.347996 9.59295e-39 2
-0.133823 0.164203 0.34955 7.38061e-39 2
-0.128106 0.164203 0.34955 6.73524e-39 2
-0.121845 0.163473 0.347996 5.26011e-39 2
-0.114626 0.161322 0.343418 7.10367e-39 2
-0.108061 0.15992 0.340431 1.14369e-38 2
-0.100741 0.157186 0.334612 1.05135e-38 2
-0.0944616 0.155854 0.331776 8.11458e-39 2
-0.0871882 0.15262 0.324893 1.1524e-38 2
-0.0818747 0.15262 0.324893 9.9585e-39 2
-0.0753112 0.150129 0.319589 8.94579e-39 2
-0.0700844 0.150129 0.319589 9.9621e-39 2
-0.0648576 0.150129 0.319589 7.65649e-39 2
-0.06037 0.15199 0.32355 6.27356e-39 2
-0.0555374 0.153256 0.326247 7.3799e-39 2
-0.0506236 0.154544 0.328988 1.08833e-38 2
-0.045243 0.154544 0.328988 9.03798e-39 2
-0.0396957 0.153898 0.327612 9.95814e-39 2
-0.0341946 0.153256 0.326247 1.13422e-38 2
-0.0288589 0.153256 0.326247 9.31457e-39 2
-0.0237209 0.154544 0.328988 1.09755e-38 2
-0.0189783 0.15992 0.340431 8.76356e-39 2
-0.0134107 0.15992 0.340431 9.77699e-39 2
-0.00794663 0.162033 0.34493 9.22203e-39 2
-0.00230537 0.162033 0.34493 8.66705e-39 2
0.00329237 0.15992 0.340431 8.94579e-39 2
0.00867153 0.156517 0.333188 8.48553e-39 2
0.0138266 0.153256 0.326247 8.48697e-39 2
0.0190827 0.15262 0.324893 7.3817e-39 2
0.0244979 0.153256 0.326247 9.04014e-39 2
0.0302113 0.155196 0.330376 8.85503e-39 2
-0.290234 0.174597 0.359171 9.68481e-39 2
-0.279236 0.171451 0.352699 9.86848e-39 2
-0.268628 0.168416 0.346457 8.02564e-39 2
-0.262962 0.168416 0.346457 6.55051e-39 2
-0.257295 0.168416 0.346457 7.65686e-39 2
-0.251629 0.168416 0.346457 8.48662e-39 2
-0.231557 0.16621 0.341918 7.74976e-39 2
-0.217878 0.160261 0.329681 7.65828e-39 2
-0.212934 0.160599 0.330376 6.55121e-39 2
-0.209297 0.161966 0.333188 8.48804e-39 2
-0.204282 0.162312 0.333899 7.84268e-39 2
-0.198822 0.162312 0.333899 1.06068e-38 2
-0.192132 0.16128 0.331776 7.84088e-39 2
-0.185137 0.159925 0.328988 8.76284e-39 2
-0.179004 0.159256 0.327612 4.52149e-39 2
-0.171493 0.157281 0.32355 7.74726e-39 2
-0.164167 0.155355 0.319589 1.21741e-38 2
-0.157653 0.154097 0.317001 5.9966e-39 2
-0.149443 0.15104 0.310711 1.00532e-38 2
-0.143225 0.149851 0.308265 8.577e-39 2
-0.138183 0.149851 0.308265 7.01148e-39 2
-0.132102 0.14868 0.305856 6.55194e-39 2
-0.127099 0.14868 0.305856 6.82745e-39 2
-0.137696 0.167674 0.34493 1.06982e-38 2
-0.133228 0.169165 0.347996 7.19442e-39 2
-0.127537 0.169165 0.347996 7.19479e-39 2
-0.120242 0.166939 0.343418 8.66992e-39 2
-0.111686 0.162658 0.334612 8.11782e-39 2
-0.103992 0.159256 0.327612 8.02455e-39 2
-0.0982229 0.158592 0.326247 7.00932e-39 2
-0.0921195 0.157281 0.32355 1.17084e-38 2
-0.0840495 0.152248 0.313197 1.05092e-38 2
-0.0783008 0.15104 0.310711 1.17095e-38 2
-0.0720751 0.14868 0.305856 9.77555e-39 2
-0.0670729 0.14868 0.305856 5.72075e-39 2
-0.0620707 0.14868 0.305856 8.20859e-39 2
-0.0570685 0.14868 0.305856 8.85396e-39 2
-0.0528927 0.15104 0.310711 9.77699e-39 2
-0.0495819 0.156634 0.322219 8.76176e-39 2
-0.0443121 0.156634 0.322219 8.3919e-39 2
-0.0390423 0.156634 0.322219 9.12802e-39 2
-0.0336341 0.155992 0.320898 9.58936e-39 2
-0.0283858 0.155992 0.320898 9.31422e-39 2
-0.0231376 0.155992 0.320898 9.13234e-39 2
-0.017963 0.156634 0.322219 8.20966e-39 2
-0.0128519 0.158592 0.326247 7.83981e-39 2
-0.00767611 0.161966 0.333188 6.73238e-39 2
-0.00222689 0.161966 0.333188 1.01425e-38 2
0.00316839 0.159256 0.327612 9.49824e-39 2
0.00838605 0.156634 0.322219 1.01443e-38 2
0.0134893 0.154724 0.318289 1.03302e-38 2
0.0184696 0.15286 0.314455 7.47354e-39 2
0.0236125 0.15286 0.314455 1.05149e-38 2
0.0302113 0.160599 0.330376 7.10332e-39 2
-0.268357 0.170314 0.338958 8.85648e-39 2
-0.262813 0.170314 0.338958 5.62999e-39 2
-0.25727 0.170314 0.338958 6.55159e-39 2
-0.256162 0.173316 0.34493 7.28771e-39 2
-0.251629 0.174082 0.346457 9.31601e-39 2
-0.22374 0.166003 0.330376 5.35266e-39 2
-0.213826 0.162573 0.32355 6.73595e-39 2
-0.211152 0.164614 0.327612 7.47245e-39 2
-0.205794 0.164614 0.327612 7.84195e-39 2
-0.202555 0.166354 0.331075 9.50112e-39 2
-0.194265 0.163928 0.326247 5.35052e-39 2
-0.18893 0.163928 0.326247 1.09745e-38 2
-0.182832 0.163247 0.324893 8.76104e-39 2
-0.176785 0.162573 0.32355 5.16542e-39 2
-0.168705 0.159929 0.318289 9.86668e-39 2
-0.160883 0.157371 0.313197 5.53492e-39 2
-0.153914 0.155504 0.309483 8.39297e-39 2
-0.147108 0.153682 0.305856 7.93127e-39 2
-0.142106 0.153682 0.305856 7.74725e-39 2
-0.137104 0.153682 0.305856 6.55014e-39 2
-0.131588 0.153084 0.304666 7.19695e-39 2
-0.125627 0.151902 0.302314 7.84088e-39 2
-0.107511 0.154285 0.307056 1.13429e-38 2
-0.103299 0.155504 0.309483 9.68407e-39 2
-0.0982374 0.155504 0.309483 8.66956e-39 2
-0.0931759 0.155504 0.309483 1.19864e-38 2
-0.0877674 0.154892 0.308265 1.38282e-38 2
-0.0820795 0.153682 0.305856 1.10627e-38 2
-0.0767774 0.153084 0.304666 8.3901e-39 2
-0.0712403 0.151902 0.302314 7.56178e-39 2
-0.066296 0.151902 0.302314 8.3937e-39 2
-0.0611158 0.151318 0.301151 1.03291e-38 2
-0.0561905 0.151318 0.301151 1.05113e-38 2
-0.0512653 0.151318 0.301151 7.65325e-39 2
-0.046881 0.153084 0.304666 9.68264e-39 2
-0.0428998 0.156744 0.311949 1.02355e-38 2
-0.0377979 0.156744 0.311949 8.29863e-39 2
-0.0326961 0.156744 0.311949 9.86668e-39 2
-0.0273761 0.155504 0.309483 9.59081e-39 2
-0.0223145 0.155504 0.309483 8.94615e-39 2
-0.0173215 0.156122 0.310711 9.77555e-39 2
-0.0122399 0.156122 0.310711 7.65398e-39 2
-0.00721554 0.157371 0.313197 8.20716e-39 2
-0.002136 0.160582 0.319589 1.05124e-38 2
0.0030908 0.160582 0.319589 9.31422e-39 2
0.00818398 0.158003 0.314455 1.07901e-38 2
0.0131161 0.155504 0.309483 5.7193e-39 2
0.0181061 0.154892 0.308265 7.10224e-39 2
0.0230569 0.154285 0.307056 5.53636e-39 2
0.027969 0.153682 0.305856 8.20894e-39 2
-0.244057 0.159934 0.308265 8.57881e-39 2
-0.239015 0.159934 0.308265 6.6445e-39 2
-0.233056 0.159307 0.307056 9.40893e-39 2
-0.227144 0.158684 0.305856 1.06068e-38 2
-0.221277 0.158067 0.304666 7.3799e-39 2
-0.215456 0.157454 0.303485 6.73489e-39 2
-0.210492 0.157454 0.303485 5.81293e-39 2
-0.207135 0.158684 0.305856 8.30292e-39 2
-0.202133 0.158684 0.305856 7.84158e-39 2
-0.204313 0.164466 0.317001 5.81365e-39 2
-0.202407 0.167174 0.322219 8.94758e-39 2
-0.197137 0.167174 0.322219 1.06071e-38 2
-0.191081 0.166489 0.320898 8.57701e-39 2
-0.185832 0.166489 0.320898 8.66848e-39 2
-0.179847 0.165809 0.319589 8.39261e-39 2
-0.17391 0.165135 0.318289 1.30024e-38 2
-0.164037 0.160566 0.309483 1.08815e-38 2
-0.157729 0.159307 0.307056 9.9621e-39 2
-0.15211 0.158684 0.305856 7.7476e-39 2
-0.146536 0.158067 0.304666 1.09723e-38 2
-0.136041 0.157454 0.303485 6.82817e-39 2
-0.130571 0.156846 0.302314 7.2895e-39 2
-0.0910173 0.156846 0.302314 1.35538e-38 2
-0.0860731 0.156846 0.302314 7.83549e-39 2
-0.0811288 0.156846 0.302314 1.31832e-38 2
-0.0761845 0.156846 0.302314 9.03547e-39 2
-0.0712403 0.156846 0.302314 7.74618e-39 2
-0.066041 0.156243 0.301151 7.56287e-39 2
-0.0611158 0.156243 0.301151 8.57665e-39 2
-0.0561905 0.156243 0.301151 1.16151e-38 2
-0.0512653 0.156243 0.301151 1.00482e-38 2
-0.0417358 0.157454 0.303485 8.85217e-39 2
-0.0367724 0.157454 0.303485 6.45436e-39 2
-0.0319327 0.158067 0.304666 7.92877e-39 2
-0.02695 0.158067 0.304666 6.17922e-39 2
-0.022053 0.158684 0.305856 8.39298e-39 2
-0.0170508 0.158684 0.305856 1.11578e-38 2
-0.0120486 0.158684 0.305856 1.12485e-38 2
-0.00710191 0.159934 0.308265 1.13418e-38 2
-0.00209328 0.162493 0.313197 9.22203e-39 2
0.00304115 0.163145 0.314455 5.62676e-39 2
0.00818398 0.163145 0.314455 1.06975e-38 2
0.0131161 0.160566 0.309483 9.49933e-39 2
0.0181061 0.159934 0.308265 9.40641e-39 2
0.0230569 0.159307 0.307056 6.82638e-39 2
0.027969 0.158684 0.305856 6.08988e-39 2
0.228073 0.369302 0.711811 8.85539e-39 2
0.239714 0.369302 0.711811 7.74939e-39 2
-0.236225 0.16305 0.304666 7.56429e-39 2
-0.231242 0.16305 0.304666 7.0104e-39 2
-0.225383 0.162418 0.303485 9.95994e-39 2
-0.220419 0.162418 0.303485 7.93236e-39 2
-0.214624 0.161791 0.302314 9.1309e-39 2
-0.20968 0.161791 0.302314 7.28733e-39 2
-0.205529 0.162418 0.303485 8.11817e-39 2
-0.186398 0.16305 0.304666 9.59116e-39 2
-0.164037 0.165628 0.309483 8.76177e-39 2
-0.155895 0.162418 0.303485 7.56322e-39 2
-0.150931 0.162418 0.303485 1.10659e-38 2
-0.145968 0.162418 0.303485 9.12837e-39 2
-0.0808168 0.161168 0.301151 1.04166e-38 2
-0.0761845 0.161791 0.302314 1.22609e-38 2
-0.0712403 0.161791 0.302314 7.09936e-39 2
-0.066041 0.161168 0.301151 8.48374e-39 2
-0.0611158 0.161168 0.301151 8.48266e-39 2
0.18475 0.364381 0.680863 1.10681e-38 2
0.195886 0.364381 0.680863 9.40749e-39 2
0.212566 0.374141 0.6991 1.12507e-38 2
0.232296 0.387998 0.724993 4.70515e-39 2
0.246435 0.391624 0.731768 1.17124e-38 2
0.258403 0.391624 0.731768 7.01147e-39 2
0.270371 0.391624 0.731768 8.11854e-39 2
0.282339 0.391624 0.731768 8.58024e-39 2
0.291582 0.387998 0.724993 8.02527e-39 2
-0.230346 0.167381 0.303485 8.02059e-39 2
-0.225383 0.167381 0.303485 7.93127e-39 2
-0.218724 0.166094 0.301151 1.17117e-38 2
-0.213799 0.166094 0.301151 6.64125e-39 2
-0.208873 0.166094 0.301151 9.03833e-39 2
-0.204735 0.166735 0.302314 9.86809e-39 2
-0.196363 0.168032 0.304666 1.23577e-38 2
-0.0709663 0.166094 0.301151 7.83549e-39 2
0.18475 0.375516 0.680863 8.94723e-39 2
0.199353 0.382162 0.692913 9.68372e-39 2
0.212566 0.385574 0.6991 8.20715e-39 2
0.226018 0.389048 0.705398 1.10659e-38 2
0.239714 0.392585 0.711811 7.47103e-39 2
0.258403 0.403592 0.731768 6.36503e-39 2
0.270371 0.403592 0.731768 9.86954e-39 2
0.282339 0.403592 0.731768 9.31673e-39 2
0.291582 0.399855 0.724993 8.48662e-39 2
0.17854 0.373655 0.657977 9.13018e-39 2
0.195886 0.386651 0.680863 6.17885e-39 2
0.210685 0.393495 0.692913 7.46959e-39 2
0.224 0.397008 0.6991 9.03763e-39 2
0.237554 0.400585 0.705398 8.20823e-39 2
0.251356 0.404226 0.711811 7.56322e-39 2
0.267867 0.411712 0.724993 6.64234e-39 2
0.279725 0.411712 0.724993 9.9621e-39 2
0.288907 0.407935 0.718341 7.93452e-39 2
0.300655 0.407935 0.718341 6.45939e-39 2
-0.184247 0.175944 0.301151 5.07322e-39 2
-0.175748 0.177308 0.303485 1.05138e-38 2
-0.169471 0.175944 0.301151 5.90477e-39 2
0.0879233 0.476515 0.815617 9.68014e-39 2
0.0875784 0.412121 0.705398 8.20645e-39 2
0.0973608 0.404827 0.692913 6.36397e-39 2
0.10774 0.401276 0.686835 7.1001e-39 2
0.11494 0.387673 0.663553 7.0079e-39 2
0.166381 0.381212 0.652493 1.18939e-38 2
0.181592 0.390987 0.669224 1.0789e-38 2
0.195886 0.397787 0.680863 6.73274e-39 2
0.212566 0.408442 0.6991 7.74654e-39 2
0.224 0.408442 0.6991 8.57702e-39 2
0.237554 0.412121 0.705398 8.20967e-39 2
0.249091 0.412121 0.705398 8.0242e-39 2
0.262997 0.415868 0.711811 8.57702e-39 2
0.274639 0.415868 0.711811 7.19516e-39 2
0.28628 0.415868 0.711811 6.73418e-39 2
0.300655 0.419683 0.718341 1.03305e-38 2
0.0399804 0.566579 0.943364 7.56e-39 2
0.0554089 0.566579 0.943364 9.86705e-39 2
0.0708374 0.566579 0.943364 7.19301e-39 2
0.0753692 0.495011 0.824202 1.03259e-38 2
0.077437 0.431431 0.718341 7.92879e-39 2
0.0867964 0.419875 0.6991 8.29757e-39 2
0.0973608 0.41616 0.692913 7.37706e-39 2
0.10774 0.412509 0.686835 1.005e-38 2
0.116922 0.405397 0.674993 8.02171e-39 2
0.125792 0.398526 0.663553 7.93058e-39 2
0.135496 0.395177 0.657977 7.28593e-39 2
0.15571 0.391884 0.652493 8.66743e-39 2
0.167779 0.395177 0.657977 7.37525e-39 2
0.183158 0.405397 0.674993 9.12803e-39 2
0.201133 0.419875 0.6991 9.77484e-39 2
0.212566 0.419875 0.6991 8.57702e-39 2
0.224 0.419875 0.6991 7.65614e-39 2
0.237554 0.423658 0.705398 7.84089e-39 2
0.249091 0.423658 0.705398 9.77592e-39 2
0.260628 0.423658 0.705398 8.5763e-39 2
0.272164 0.423658 0.705398 9.59117e-39 2
0.28628 0.427509 0.711811 8.3937e-39 2
0.0708374 0.582007 0.943364 9.31352e-39 2
0.078154 0.447283 0.724993 8.75855e-39 2
0.0875784 0.435195 0.705398 8.5738e-39 2
0.0982301 0.431309 0.6991 8.85147e-39 2
0.109664 0.431309 0.6991 7.74512e-39 2
0.118973 0.423742 0.686835 7.37526e-39 2
0.130206 0.423742 0.686835 9.03621e-39 2
0.137812 0.412877 0.669224 9.31351e-39 2
0.146257 0.405938 0.657977 8.29864e-39 2
0.157018 0.405938 0.657977 6.45401e-39 2
0.170647 0.412877 0.669224 7.00646e-39 2
0.186371 0.423742 0.686835 9.31207e-39 2
0.201133 0.431309 0.6991 8.75998e-39 2
0.214481 0.435195 0.705398 8.6685e-39 2
0.226018 0.435195 0.705398 7.47067e-39 2
0.239714 0.439151 0.711811 7.74726e-39 2
0.251356 0.439151 0.711811 8.11532e-39 2
0.260628 0.435195 0.705398 8.48411e-39 2
0.269734 0.431309 0.6991 6.9175e-39 2
0.283701 0.435195 0.705398 8.20824e-39 2
0.100016 0.450792 0.711811 8.39157e-39 2
0.112682 0.454928 0.718341 7.74548e-39 2
0.12443 0.454928 0.718341 7.83732e-39 2
0.132531 0.442742 0.6991 8.66779e-39 2
0.141439 0.434975 0.686835 9.58975e-39 2
0.148757 0.423822 0.669224 7.4696e-39 2
0.159702 0.423822 0.669224 8.85217e-39 2
0.172118 0.427475 0.674993 9.68158e-39 2
0.186371 0.434975 0.686835 6.54585e-39 2
0.202945 0.446731 0.705398 5.99376e-39 2
0.216431 0.450792 0.711811 9.12912e-39 2
0.228073 0.450792 0.711811 7.47068e-39 2
0.239714 0.450792 0.711811 7.10154e-39 2
0.251356 0.450792 0.711811 7.83839e-39 2
0.258301 0.442742 0.6991 9.77378e-39 2
0.269734 0.442742 0.6991 7.10082e-39 2
0.126756 0.475399 0.731768 9.49792e-39 2
0.134941 0.462434 0.711811 9.59047e-39 2
0.139 0.438515 0.674993 7.65365e-39 2
0.146257 0.42746 0.657977 8.85219e-39 2
0.157018 0.42746 0.657977 9.12913e-39 2
0.167779 0.42746 0.657977 7.74548e-39 2
0.186371 0.446208 0.686835 7.92951e-39 2
0.20479 0.462434 0.711811 8.85147e-39 2
-0.192882 0.204503 0.307056 8.8554e-39 2
-0.12812 0.299703 0.449995 7.56141e-39 2
-0.120761 0.299703 0.449995 8.8536e-39 2
-0.113401 0.299703 0.449995 1.1434e-38 2
0.132531 0.46561 0.6991 8.66816e-39 2
0.201133 0.46561 0.6991 7.92916e-39 2
-0.142009 0.321861 0.471682 7.3781e-39 2
-0.12961 0.310633 0.455228 8.8536e-39 2
-0.122165 0.310633 0.455228 6.548e-39 2
-0.113401 0.307062 0.449995 7.74654e-39 2
-0.142009 0.329575 0.471682 1.08812e-38 2
-0.12812 0.314422 0.449995 7.83981e-39 2
-0.119388 0.310849 0.444882 6.64091e-39 2
-0.111479 0.309093 0.442368 8.30008e-39 2
-0.104244 0.309093 0.442368 8.66994e-39 2
-0.137055 0.325523 0.455228 8.75998e-39 2
-0.126664 0.318125 0.444882 1.02358e-38 2
-0.119388 0.318125 0.444882 1.18024e-38 2
-0.109015 0.309337 0.432592 5.8101e-39 2
-0.101941 0.309337 0.432592 1.08801e-38 2
-0.0923154 0.301021 0.420963 1.05106e-38 2
-0.136263 0.331044 0.452597 1.5858e-38 2
-0.126664 0.325401 0.444882 1.70569e-38 2
-0.118714 0.323562 0.442368 1.75175e-38 2
-0.109015 0.316412 0.432592 1.70565e-38 2
-0.0992002 0.307906 0.420963 1.65956e-38 2
-0.0913333 0.304631 0.416485 1.65034e-38 2
-0.082761 0.298284 0.407808 1.66874e-38 2
-0.0366304 0.221122 0.302314 1.55814e-38 2
-0.00712998 0.226366 0.309483 1.36457e-38 2
-0.00205223 0.22459 0.307056 1.30936e-38 2
0.00299306 0.226366 0.309483 1.30014e-38 2
0.00831759 0.233757 0.319589 1.30936e-38 2
-0.136263 0.338446 0.452597 1.77019e-38 2
-0.126664 0.332677 0.444882 1.71487e-38 2
-0.118047 0.328939 0.439883 1.72399e-38 2
-0.109015 0.323487 0.432592 1.7148e-38 2
-0.0986697 0.313108 0.418712 1.66874e-38 2
-0.0894306 0.304954 0.407808 1.64108e-38 2
-0.0806604 0.297214 0.397458 1.63186e-38 2
-0.0737855 0.295713 0.395451 1.56733e-38 2
-0.0643912 0.282856 0.378257 1.6042e-38 2
-0.0319327 0.227825 0.304666 1.46591e-38 2
-0.00825577 0.267969 0.358349 1.2817e-38 2
-0.00223641 0.250218 0.334612 1.22638e-38 2
0.00323609 0.250218 0.334612 1.27248e-38 2
-1.09644 2.78287 3.64182 1.68718e-38 2
-0.126664 0.339953 0.444882 1.71477e-38 2
-0.118047 0.336133 0.439883 1.64105e-38 2
-0.110234 0.334255 0.437426 1.65949e-38 2
-0.0992002 0.321676 0.420963 1.7148e-38 2
-0.0903719 0.314904 0.412101 1.6503e-38 2
-0.082761 0.311623 0.407808 1.64108e-38 2
-0.0745385 0.305264 0.399486 1.62264e-38 2
-0.00846894 0.2809 0.367602 1.20794e-38 2
-0.00245115 0.280242 0.366741 1.19879e-38 2
0.00357191 0.282225 0.369336 1.22638e-38 2
