# .PCD v0.7 - Point Cloud Data file format
VERSION 0.7
FIELDS x y z rgb label
SIZE 4 4 4 4 4
TYPE F F F F U
COUNT 1 1 1 1 1
WIDTH 716
HEIGHT 1
VIEWPOINT 0 0 0 1 0 0 0
POINTS 716
DATA ascii
1.001 -0.859087 1.18635 1.88065e-38 1
1.0204 -0.859087 1.18635 1.88987e-38 1
-2.69475 -3.63084 5.79994 2.12943e-38 1
-2.2737 -2.98349 4.8937 2.11099e-38 1
-2.42059 -3.29212 5.39995 2.12932e-38 1
-2.33228 -3.29212 5.39995 2.11089e-38 1
-2.16916 -3.18239 5.21995 2.12011e-38 1
-1.78611 -2.72776 4.47424 2.12011e-38 1
0.099977 -1.03773 1.70216 2.23067e-38 1
-1.91469 -2.44501 4.12101 2.12932e-38 1
-1.84729 -2.44501 4.12101 2.1017e-38 1
-1.93246 -2.65458 4.47424 2.1017e-38 1
-1.91397 -2.73266 4.60584 2.09245e-38 1
-1.83864 -2.73266 4.60584 2.09245e-38 1
-1.81675 -2.81547 4.74541 2.06479e-38 1
0.0174079 -1.06794 1.79998 2.12925e-38 1
0.0491039 -1.1194 1.88673 2.18457e-38 1
0.099977 -1.0099 1.70216 2.2123e-38 1
-1.79993 -2.31665 4.01534 2.09248e-38 1
-1.87878 -2.5097 4.34996 2.07404e-38 1
-1.91397 -2.65733 4.60584 2.06479e-38 1
-1.95356 -2.82342 4.8937 2.07401e-38 1
-1.87352 -2.82342 4.8937 2.05557e-38 1
-1.63976 -2.58141 4.47424 2.08323e-38 1
-0.0424444 -1.06293 1.84233 2.04642e-38 1
-0.0121702 -1.05057 1.82091 2.07401e-38 1
0.0176104 -1.05057 1.82091 2.09245e-38 1
0.0491039 -1.08855 1.88673 2.14776e-38 1
0.0799609 -1.08855 1.88673 2.1662e-38 1
-2.04958 -2.66025 4.74541 2.02802e-38 1
-2.16916 -2.92627 5.21995 1.99114e-38 1
-2.14117 -3.13529 5.5928 2.03724e-38 1
-0.0515396 -1.25412 2.23712 2.04642e-38 1
0.0172101 -0.997593 1.77953 2.05568e-38 1
0.0463139 -0.997593 1.77953 2.11099e-38 1
0.0729313 -0.964706 1.72086 2.13854e-38 1
0.586708 -0.581379 1.03708 2.02802e-38 1
-0.153158 -1.49521 2.74734 2.00961e-38 1
-0.10113 -1.39717 2.56719 2.00954e-38 1
-0.0522865 -1.23517 2.26954 2.01876e-38 1
-0.158728 -1.50302 2.84724 2.0004e-38 1
-0.114239 -1.53085 2.89997 2.02798e-38 1
-0.0546632 -1.25251 2.3727 2.0372e-38 1
5.09472 -2.17542 4.12101 1.88058e-38 1
-0.262585 -1.8629 3.64182 1.98199e-38 1
-0.167885 -1.54048 3.01151 1.97274e-38 1
-0.118633 -1.54048 3.01151 2.00032e-38 1
-0.0655958 -1.45645 2.84724 1.98188e-38 1
5.37776 -2.22513 4.34996 1.8898e-38 1
5.02975 -2.05397 4.01534 1.84366e-38 1
-0.194001 -1.72319 3.47996 1.96352e-38 1
-0.137087 -1.72319 3.47996 1.98188e-38 1
-0.0680711 -1.46309 2.95469 2.02798e-38 1
5.53141 -2.21553 4.47424 1.83448e-38 1
5.16212 -2.04062 4.12101 1.84366e-38 1
-0.146879 -1.7853 3.72853 1.9911e-38 1
-0.073628 -1.53026 3.19589 2.00032e-38 1
6.24514 -2.41879 5.05156 1.90824e-38 1
5.30163 -2.02656 4.23239 1.84366e-38 1
-0.0767611 -1.54088 3.33188 1.98196e-38 1
5.88991 -2.26317 4.8937 1.8437e-38 1
5.78903 -2.19459 4.74541 1.816e-38 1
6.24514 -2.33617 5.05156 1.88054e-38 1
6.32775 -2.33617 5.05156 1.82522e-38 1
-0.0819948 -1.58773 3.55906 1.97274e-38 1
5.5562 -2.11698 4.74541 1.89898e-38 1
5.80987 -2.18313 4.8937 1.85292e-38 1
5.71142 -2.11698 4.74541 1.85292e-38 1
5.78903 -2.11698 4.74541 1.8437e-38 1
6.04998 -2.18313 4.8937 1.8621e-38 1
6.32775 -2.25356 5.05156 1.8621e-38 1
5.47859 -2.03937 4.74541 1.86214e-38 1
5.5562 -2.03937 4.74541 1.85292e-38 1
5.80987 -2.1031 4.8937 1.89902e-38 1
5.88991 -2.1031 4.8937 1.87136e-38 1
5.96994 -2.1031 4.8937 1.85292e-38 1
6.04998 -2.1031 4.8937 1.90824e-38 1
6.32775 -2.17094 5.05156 1.84366e-38 1
5.5562 -1.96176 4.74541 1.85292e-38 1
5.80987 -2.02306 4.8937 1.86214e-38 1
5.71142 -1.96176 4.74541 1.83448e-38 1
5.78903 -1.96176 4.74541 1.80682e-38 1
5.86664 -1.96176 4.74541 1.91745e-38 1
5.94425 -1.96176 4.74541 1.89902e-38 1
5.39279 -1.82873 4.60584 1.83459e-38 1
5.80987 -1.94303 4.8937 1.86221e-38 1
5.71142 -1.88415 4.74541 1.79767e-38 1
5.78903 -1.88415 4.74541 1.85292e-38 1
5.86664 -1.88415 4.74541 1.81604e-38 1
5.94425 -1.88415 4.74541 1.81611e-38 1
5.31746 -1.7534 4.60584 1.86221e-38 1
5.23871 -1.70331 4.47424 1.82537e-38 1
5.46811 -1.7534 4.60584 1.76079e-38 1
5.54344 -1.7534 4.60584 1.81615e-38 1
5.61877 -1.7534 4.60584 1.08769e-38 1
5.6941 -1.7534 4.60584 1.8437e-38 1
5.76942 -1.7534 4.60584 1.78845e-38 1
5.16553 -1.63013 4.47424 1.83455e-38 1
5.23871 -1.63013 4.47424 1.85299e-38 1
5.46811 -1.67808 4.60584 1.83459e-38 1
5.54344 -1.67808 4.60584 1.77927e-38 1
5.61877 -1.67808 4.60584 1.11535e-38 1
5.6941 -1.67808 4.60584 1.15223e-38 1
5.76942 -1.67808 4.60584 1.86225e-38 1
5.47859 -1.65132 4.74541 1.83455e-38 1
5.23871 -1.55696 4.47424 1.84377e-38 1
5.46811 -1.60275 4.60584 1.80693e-38 1
5.71142 -1.65132 4.74541 1.77927e-38 1
5.61877 -1.60275 4.60584 1.17989e-38 1
5.6941 -1.60275 4.60584 1.88983e-38 1
5.76942 -1.60275 4.60584 1.63176e-38 1
5.47859 -1.57371 4.74541 1.85292e-38 1
5.23871 -1.48378 4.47424 1.76079e-38 1
5.46811 -1.52742 4.60584 1.80693e-38 1
5.71142 -1.57371 4.74541 1.82537e-38 1
5.78903 -1.57371 4.74541 1.25375e-38 1
5.86664 -1.57371 4.74541 1.80693e-38 1
5.76942 -1.52742 4.60584 1.75161e-38 1
5.47859 -1.4961 4.74541 1.81604e-38 1
5.23871 -1.41061 4.47424 1.79771e-38 1
5.63381 -1.4961 4.74541 1.74239e-38 1
5.88991 -1.54285 4.8937 1.86225e-38 1
5.96994 -1.54285 4.8937 1.73317e-38 1
6.04998 -1.54285 4.8937 1.81615e-38 1
6.13001 -1.54285 4.8937 1.72395e-38 1
6.02645 -1.56034 5.21995 1.82529e-38 1
5.5562 -1.41849 4.74541 1.77927e-38 1
5.80987 -1.46282 4.8937 1.80682e-38 1
6.0799 -1.51 5.05156 1.7976e-38 1
6.36794 -1.56034 5.21995 1.65934e-38 1
6.67584 -1.61414 5.39995 1.82529e-38 1
7.2652 -1.73371 5.79994 1.86224e-38 1
6.11182 -1.47497 5.21995 1.78849e-38 1
6.41089 -1.52583 5.39995 1.77916e-38 1
6.49921 -1.52583 5.39995 1.76994e-38 1
7.07549 -1.63885 5.79994 1.81607e-38 1
-4.21246 -1.35428 5.79994 1.18936e-38 1
-4.49703 -1.25942 5.79994 9.68198e-39 1
-4.06201 -1.21445 5.5928 1.06961e-38 1
-4.49703 -1.16457 5.79994 8.85402e-39 1
-4.21246 -1.16457 5.79994 1.0511e-38 1
-4.49703 -1.06971 5.79994 8.66962e-39 2
-4.21246 -1.06971 5.79994 1.01422e-38 1
-4.21246 -0.974855 5.79994 9.68233e-39 2
-2.03075 -0.974855 5.79994 1.37372e-38 1
-1.80239 -0.907623 5.39995 1.37372e-38 1
-1.65694 -0.877369 5.21995 1.41974e-38 1
-1.57157 -0.877369 5.21995 1.41052e-38 1
-1.43825 -0.849067 5.05156 1.41052e-38 1
-1.35564 -0.849067 5.05156 1.43818e-38 1
-1.46161 -0.974855 5.79994 1.4013e-38 1
-1.82768 -0.791998 5.21995 8.94404e-39 2
-1.58392 -0.719998 4.74541 1.02348e-38 2
-1.462 -0.698822 4.60584 9.58941e-39 2
-1.38668 -0.698822 4.60584 1.21709e-38 2
-1.27388 -0.678856 4.47424 9.12772e-39 1
-1.16735 -0.659998 4.34996 1.41985e-38 1
-1.23324 -0.742498 4.8937 1.24468e-38 1
-1.23008 -0.791998 5.21995 1.40144e-38 1
-2.12561 -0.785141 5.79994 9.22062e-39 2
-1.71345 -0.662463 4.8937 7.65401e-39 2
-1.53733 -0.623494 4.60584 8.11499e-39 2
-1.462 -0.623494 4.60584 8.8529e-39 2
-1.38668 -0.623494 4.60584 8.11498e-39 2
-1.27388 -0.60568 4.47424 8.48341e-39 2
-1.16735 -0.588856 4.34996 8.75999e-39 2
-1.19587 -0.642388 4.74541 8.8529e-39 2
-1.1532 -0.662463 4.8937 8.76179e-39 2
-1.2719 -0.785141 5.79994 9.22241e-39 2
5.71142 -0.642388 4.74541 9.12662e-39 2
5.78903 -0.642388 4.74541 1.0972e-38 2
-2.22047 -0.690284 5.79994 8.6678e-39 2
-1.91305 -0.621256 5.21995 9.0373e-39 2
-1.66153 -0.564778 4.74541 8.11534e-39 2
-1.53733 -0.548167 4.60584 7.83983e-39 2
-1.462 -0.548167 4.60584 1.24471e-38 2
-1.38668 -0.548167 4.60584 1.23538e-38 2
-1.27388 -0.532505 4.47424 8.11211e-39 2
-1.16735 -0.517713 4.34996 7.55929e-39 2
-1.19587 -0.564778 4.74541 6.72953e-39 2
-1.11826 -0.564778 4.74541 7.19087e-39 2
-1.18418 -0.642679 5.39995 7.56038e-39 2
-1.17704 -0.690284 5.79994 1.04177e-38 2
5.16433 -0.517713 4.34996 8.01848e-39 2
5.09397 -0.503721 4.23239 9.12518e-39 2
5.16319 -0.503721 4.23239 8.48161e-39 2
-2.50704 -0.574163 5.5928 8.4852e-39 2
-2.24396 -0.554364 5.39995 9.31496e-39 2
-1.95356 -0.502392 4.8937 9.22276e-39 2
-1.93396 -0.518598 5.05156 9.22204e-39 2
-1.68799 -0.47284 4.60584 9.31423e-39 2
-1.56658 -0.45933 4.47424 8.48555e-39 2
-1.45192 -0.446571 4.34996 9.03873e-39 2
-1.38078 -0.446571 4.34996 9.31424e-39 2
-1.34706 -0.45933 4.47424 8.66779e-39 2
-1.2385 -0.446571 4.34996 9.12877e-39 2
-1.1358 -0.434501 4.23239 8.39084e-39 2
-1.16069 -0.47284 4.60584 7.92986e-39 2
-1.08537 -0.47284 4.60584 9.12913e-39 2
-1.07317 -0.502392 4.8937 8.20789e-39 2
-1.05934 -0.535885 5.21995 8.48448e-39 2
-1.08219 -0.595428 5.79994 7.83839e-39 2
4.89252 -0.423067 4.12101 8.66564e-39 2
4.83274 -0.412219 4.01534 1.08783e-38 2
4.89841 -0.412219 4.01534 1.04181e-38 2
-2.42059 -0.466049 5.39995 9.49935e-39 2
-1.59421 -0.375428 4.34996 8.02457e-39 2
-1.4819 -0.365282 4.23239 8.85433e-39 2
-1.41268 -0.365282 4.23239 7.65615e-39 2
-1.34346 -0.365282 4.23239 9.03944e-39 2
-1.27424 -0.365282 4.23239 8.48627e-39 2
-1.17331 -0.355669 4.12101 8.11749e-39 2
-1.10591 -0.355669 4.12101 8.11676e-39 2
-1.09621 -0.375428 4.34996 7.93237e-39 2
-0.997364 -0.365282 4.23239 8.48626e-39 2
-0.981181 -0.386155 4.47424 8.02564e-39 2
-0.973969 -0.450514 5.21995 7.9313e-39 2
2.36975 -0.229075 2.65421 6.73455e-39 2
2.03395 -0.193077 2.23712 7.28772e-39 2
2.10055 -0.195876 2.26954 7.47211e-39 2
2.13767 -0.195876 2.26954 7.10368e-39 2
2.17478 -0.195876 2.26954 6.18173e-39 2
2.24443 -0.198756 2.30292 7.19588e-39 2
4.89252 -0.355669 4.12101 9.03729e-39 2
4.95992 -0.355669 4.12101 9.58975e-39 2
4.89841 -0.346549 4.01534 9.31388e-39 2
-1.24071 -0.288271 4.12101 6.64236e-39 2
2.18462 -0.171161 2.44685 6.73634e-39 2
1.69496 -0.130408 1.86427 7.7487e-39 2
2.07054 -0.15649 2.23712 6.82674e-39 2
2.10713 -0.15649 2.23712 7.01114e-39 2
2.14372 -0.15649 2.23712 8.11748e-39 2
5.23547 -0.304286 4.34996 5.5353e-39 2
5.16319 -0.296062 4.23239 7.19483e-39 2
-0.464664 -0.0711285 1.32711 9.03909e-39 2
2.05611 -0.123429 2.30292 7.01221e-39 2
1.75774 -0.103619 1.93331 7.10368e-39 2
2.07054 -0.119902 2.23712 6.7349e-39 2
2.10713 -0.119902 2.23712 7.84125e-39 2
2.14372 -0.119902 2.23712 5.99698e-39 2
-0.534306 -0.0498464 1.33845 6.2743e-39 2
-0.393002 -0.0438498 1.17743 7.8409e-39 2
-0.301256 -0.0394056 1.0581 7.28737e-39 2
-0.283951 -0.0394056 1.0581 8.30152e-39 2
1.80224 -0.0738231 1.98226 7.65614e-39 2
2.07054 -0.0833147 2.23712 7.19588e-39 2
2.10713 -0.0833147 2.23712 7.47247e-39 2
2.11352 -0.0821413 2.20561 7.47247e-39 2
2.14959 -0.0821413 2.20561 7.38027e-39 2
1.80224 -0.0414038 1.98226 7.10297e-39 2
2.07054 -0.0467271 2.23712 7.19516e-39 2
2.10713 -0.0467271 2.23712 7.10333e-39 2
2.08417 -0.0454291 2.17498 7.47247e-39 2
2.14959 -0.046069 2.20561 6.55051e-39 2
-0.535856 -0.00541808 1.19541 7.56324e-39 2
-0.516306 -0.00541808 1.19541 6.91823e-39 2
-0.512401 -0.00558872 1.23306 7.28701e-39 2
-0.488389 -0.00554506 1.22343 7.10226e-39 2
-0.46838 -0.00554506 1.22343 5.71933e-39 2
-0.459132 -0.00567814 1.25279 7.19446e-39 2
-0.418552 -0.00541808 1.19541 7.19517e-39 2
-0.393002 -0.0053366 1.17743 6.73455e-39 2
-0.335866 -0.00479573 1.0581 7.19517e-39 2
-0.318561 -0.00479573 1.0581 7.01114e-39 2
-0.287651 -0.00457915 1.01031 7.65651e-39 2
-0.269389 -0.0045498 1.00384 6.36685e-39 2
-0.125457 -0.00788631 1.73998 6.91858e-39 2
-0.0970003 -0.00788631 1.73998 7.37956e-39 2
-0.0685433 -0.00788631 1.73998 8.02493e-39 2
0.0963854 -0.00581777 1.28359 7.28666e-39 2
0.111876 -0.00554506 1.22343 6.91752e-39 2
0.127888 -0.00537703 1.18635 7.2863e-39 2
0.145093 -0.00529678 1.16864 7.10156e-39 2
0.171903 -0.00554506 1.22343 7.10228e-39 2
0.276263 -0.00563308 1.24284 7.93204e-39 2
0.266931 -0.00506977 1.11856 7.93204e-39 2
0.255971 -0.0045498 1.00384 8.6696e-39 2
0.255979 -0.00427571 0.943364 9.03767e-39 2
0.26194 -0.00412656 0.910456 9.13058e-39 2
0.26162 -0.00389982 0.860431 9.22277e-39 2
0.266893 -0.00377536 0.83297 8.94727e-39 2
2.06343 -0.0102865 2.26954 7.19588e-39 2
2.10055 -0.0102865 2.26954 7.7487e-39 2
2.07745 -0.00999673 2.20561 7.47247e-39 2
2.11352 -0.00999673 2.20561 7.10368e-39 2
-0.488311 0.0124253 1.051 7.84018e-39 2
-0.516156 0.013613 1.15146 7.3792e-39 2
-0.508542 0.01392 1.17743 7.19481e-39 2
-0.496755 0.0141325 1.19541 7.3792e-39 2
-0.470028 0.01392 1.17743 8.02422e-39 2
-0.450772 0.01392 1.17743 7.19446e-39 2
-0.431515 0.01392 1.17743 7.74763e-39 2
-0.412258 0.01392 1.17743 7.65615e-39 2
-0.38718 0.0137138 1.15999 7.56431e-39 2
-0.310676 0.011571 0.97874 8.11749e-39 2
-0.284018 0.0111528 0.943364 6.08918e-39 2
-0.270217 0.0112204 0.949081 6.82674e-39 2
-0.253161 0.0111528 0.943364 6.64343e-39 2
-0.237732 0.0111528 0.943364 6.91929e-39 2
-0.223651 0.0112204 0.949081 5.99842e-39 2
-0.120119 0.0196953 1.66594 7.74834e-39 2
-0.0928727 0.0196953 1.66594 8.76249e-39 2
-0.0656266 0.0196953 1.66594 7.47175e-39 2
-0.0400863 0.0205707 1.73998 7.7487e-39 2
-0.0116293 0.0205707 1.73998 6.91894e-39 2
0.0948307 0.0149303 1.26289 7.47105e-39 2
0.108486 0.0140255 1.18635 7.65508e-39 2
0.12598 0.0138161 1.16864 7.3785e-39 2
0.142959 0.013613 1.15146 7.19375e-39 2
0.164205 0.0138161 1.16864 7.19448e-39 2
0.198102 0.0149303 1.26289 6.91789e-39 2
0.285321 0.0151751 1.28359 8.11608e-39 2
0.274782 0.013613 1.15146 8.39302e-39 2
0.255971 0.0118677 1.00384 8.39302e-39 2
0.252932 0.01102 0.932133 8.76108e-39 2
0.250298 0.0102853 0.869991 9.22206e-39 2
0.25327 0.00984767 0.83297 9.40717e-39 2
-0.487525 0.0267424 0.949081 7.46925e-39 2
-0.472003 0.0267424 0.949081 6.08847e-39 2
-0.459265 0.0269054 0.954868 6.08846e-39 2
-0.44637 0.0270705 0.960726 7.74834e-39 2
-0.490889 0.0308566 1.09509 6.54944e-39 2
-0.508542 0.0331766 1.17743 6.73383e-39 2
-0.492992 0.033428 1.18635 6.36505e-39 2
-0.466521 0.0329291 1.16864 6.91787e-39 2
-0.447408 0.0329291 1.16864 6.54909e-39 2
-0.409939 0.0315178 1.11856 7.65615e-39 2
-0.351477 0.0282852 1.00384 7.56431e-39 2
-0.32265 0.0272376 0.966657 6.73383e-39 2
-0.273122 0.0242445 0.860431 7.47212e-39 2
-0.256234 0.0239809 0.851078 7.10333e-39 2
-0.268589 0.0265813 0.943364 6.55124e-39 2
-0.248667 0.0261094 0.926618 7.01222e-39 2
-0.0928727 0.0469414 1.66594 6.27356e-39 2
-0.0656266 0.0469414 1.66594 6.91929e-39 2
-0.112743 0.13789 4.8937 7.65686e-39 2
-0.0327075 0.13789 4.8937 6.64343e-39 2
0.0708374 0.0265813 0.943364 7.47069e-39 2
0.0862659 0.0265813 0.943364 5.99556e-39 2
0.101085 0.0264221 0.937715 6.91752e-39 2
0.124631 0.0282852 1.00384 6.82497e-39 2
0.161791 0.0324448 1.15146 6.82569e-39 2
0.198102 0.0355846 1.26289 7.19448e-39 2
0.306314 0.036168 1.28359 8.57633e-39 2
0.293614 0.0324448 1.15146 8.66889e-39 2
0.252932 0.0262648 0.932133 9.03659e-39 2
0.239647 0.0234707 0.83297 9.03767e-39 2
-0.497023 0.0417582 0.937715 6.36397e-39 2
-0.481687 0.0417582 0.937715 7.65471e-39 2
-0.466351 0.0417582 0.937715 4.42894e-39 2
-0.451015 0.0417582 0.937715 6.91822e-39 2
-0.435678 0.0417582 0.937715 7.19552e-39 2
-0.512394 0.0528305 1.18635 6.82639e-39 2
-0.492992 0.0528305 1.18635 6.45761e-39 2
-0.357222 0.0398493 0.894848 6.91894e-39 2
-0.338715 0.039399 0.884737 7.37992e-39 2
-0.345732 0.0420098 0.943364 7.19553e-39 2
-0.297991 0.0379001 0.851078 5.3509e-39 2
-0.284072 0.0379001 0.851078 6.08846e-39 2
-0.270153 0.0379001 0.851078 5.35126e-39 2
-0.253478 0.0374926 0.841927 6.0899e-39 2
-0.254776 0.0398493 0.894848 4.89136e-39 2
-0.242917 0.04031 0.905193 6.6438e-39 2
-0.034888 0.232454 5.21995 6.82782e-39 2
0.0857494 0.0417582 0.937715 7.10192e-39 2
0.101085 0.0417582 0.937715 6.82533e-39 2
0.117833 0.0422644 0.949081 7.19375e-39 2
0.148673 0.0471191 1.0581 7.28667e-39 2
0.253111 0.0391777 0.879766 9.49757e-39 2
-0.506296 0.0564187 0.926618 5.35196e-39 2
-0.491141 0.0564187 0.926618 6.73418e-39 2
-0.475986 0.0564187 0.926618 7.01114e-39 2
-0.460832 0.0564187 0.926618 6.64235e-39 2
-0.443055 0.0560868 0.921167 6.73455e-39 2
-0.353185 0.0538687 0.884737 6.73455e-39 2
-0.33307 0.0529709 0.869991 6.18245e-39 2
-0.31191 0.0518193 0.851078 6.64308e-39 2
-0.297991 0.0518193 0.851078 6.73419e-39 2
-0.284072 0.0518193 0.851078 7.01078e-39 2
-0.270153 0.0518193 0.851078 6.1821e-39 2
-0.245557 0.0496602 0.815617 6.82747e-39 2
-0.234662 0.0501829 0.824202 6.0899e-39 2
0.050483 0.317825 5.21995 7.01221e-39 2
0.100484 0.0567545 0.932133 6.91788e-39 2
0.117833 0.0577864 0.949081 6.82569e-39 2
0.148673 0.064424 1.0581 7.37887e-39 2
-0.479785 0.0699184 0.905193 5.44345e-39 2
-0.462309 0.0695166 0.899991 6.45797e-39 2
-0.447589 0.0695166 0.899991 6.45796e-39 2
-0.482817 0.0775377 1.00384 7.28772e-39 2
-0.32941 0.0664609 0.860431 6.73527e-39 2
-0.298914 0.0629994 0.815617 5.99771e-39 2
-0.285575 0.0629994 0.815617 6.91859e-39 2
-0.272236 0.0629994 0.815617 5.81224e-39 2
-0.258896 0.0629994 0.815617 6.0899e-39 2
-0.23692 0.0607833 0.786927 5.53673e-39 2
-0.220722 0.0598806 0.77524 6.27465e-39 2
0.054089 0.431996 5.5928 5.62928e-39 2
0.109227 0.0679544 0.879766 7.01008e-39 2
-0.468942 0.082808 0.884737 7.37956e-39 2
-0.346731 0.0631768 0.674993 7.47211e-39 2
-0.332823 0.0626368 0.669224 7.01221e-39 2
-0.482817 0.0939552 1.00384 6.45904e-39 2
-0.275012 0.067234 0.718341 6.27429e-39 2
-0.263264 0.067234 0.718341 5.99771e-39 2
-0.256217 0.0684907 0.731768 6.36541e-39 2
-0.244249 0.0684907 0.731768 6.08883e-39 2
-0.232281 0.0684907 0.731768 6.0899e-39 2
-0.220313 0.0684907 0.731768 6.55088e-39 2
-0.220722 0.0725595 0.77524 6.27465e-39 2
-0.208043 0.0725595 0.77524 6.45904e-39 2
0.145558 0.523465 5.5928 8.11748e-39 2
0.207398 0.458032 4.8937 7.7487e-39 2
-0.407986 0.0797136 0.724993 7.56251e-39 2
-0.390703 0.0786217 0.715061 8.11676e-39 2
-0.364047 0.0755182 0.686835 7.01077e-39 2
-0.346731 0.0742161 0.674993 6.82674e-39 2
-0.332823 0.0735818 0.669224 5.35269e-39 2
-0.482817 0.110373 1.00384 5.81367e-39 2
-0.258417 0.0742161 0.674993 5.72112e-39 2
-0.247377 0.0742161 0.674993 6.1821e-39 2
-0.249229 0.0782643 0.711811 5.90443e-39 2
-0.233345 0.0768667 0.6991 5.81224e-39 2
-0.221911 0.0768667 0.6991 5.62785e-39 2
-0.187837 0.0685982 0.623898 5.35162e-39 2
0.237027 0.614934 5.5928 6.55016e-39 2
0.328496 0.614934 5.5928 7.65579e-39 2
-0.415992 0.0907306 0.718341 7.10297e-39 2
-0.400569 0.0899058 0.711811 7.84018e-39 2
-0.383695 0.0886963 0.702235 7.47211e-39 2
-0.362458 0.0863724 0.683836 5.44416e-39 2
-0.345243 0.0848896 0.672096 5.07538e-39 2
-0.32586 0.0827585 0.655223 5.53601e-39 2
-0.315144 0.0827585 0.655223 6.18245e-39 2
-0.252965 0.0834569 0.660753 6.18102e-39 2
-0.245263 0.0845268 0.669224 6.91787e-39 2
-0.23038 0.0831062 0.657977 5.90444e-39 2
-0.219619 0.0831062 0.657977 5.62785e-39 2
-0.199631 0.0794348 0.628909 6.3647e-39 2
-0.188588 0.0791171 0.626394 6.18102e-39 2
-0.41221 0.101547 0.711811 7.56466e-39 2
-0.400569 0.101547 0.711811 6.8271e-39 2
-0.36881 0.0962949 0.674993 9.13199e-39 2
-0.348751 0.0938673 0.657977 5.53636e-39 2
-0.342305 0.0950656 0.666376 6.55051e-39 2
-0.320496 0.0919358 0.644438 6.91894e-39 2
-0.308686 0.091559 0.641797 6.36685e-39 2
-0.277197 0.091559 0.641797 5.62964e-39 2
-0.263461 0.090447 0.634002 6.27429e-39 2
-0.253092 0.090447 0.634002 5.72112e-39 2
-0.247738 0.0923157 0.647101 5.99627e-39 2
-0.237155 0.0923157 0.647101 5.81224e-39 2
-0.222888 0.0908147 0.636579 6.08883e-39 2
-0.209917 0.0897205 0.628909 5.99771e-39 2
-0.199631 0.0897205 0.628909 5.62714e-39 2
-0.187837 0.0890056 0.623898 5.07468e-39 2
-0.176229 0.088302 0.618966 5.16687e-39 2
-0.164159 0.0872672 0.611713 4.79917e-39 2
-2.65864 0.673015 4.23239 6.91929e-39 2
-0.365658 0.106417 0.669224 6.18173e-39 2
-0.340855 0.105515 0.663553 6.3654e-39 2
-0.315306 0.100816 0.634002 7.19481e-39 2
-0.303707 0.100409 0.631445 6.45797e-39 2
-0.294568 0.100816 0.634002 6.64235e-39 2
-0.284199 0.100816 0.634002 5.07575e-39 2
-0.262399 0.100409 0.631445 6.18138e-39 2
-0.252072 0.100409 0.631445 6.36541e-39 2
-0.246719 0.102475 0.644438 5.25906e-39 2
-0.235211 0.102055 0.641797 5.62785e-39 2
-0.222888 0.101226 0.636579 5.90552e-39 2
-0.209917 0.100006 0.628909 5.81332e-39 2
-0.198832 0.0996061 0.626394 6.18031e-39 2
-0.187837 0.0992093 0.623898 5.16687e-39 2
-0.176229 0.098425 0.618966 4.88993e-39 2
-0.16352 0.0968931 0.609332 5.99736e-39 2
-0.151783 0.0957751 0.602302 4.98248e-39 2
-2.73249 0.762852 4.34996 6.36684e-39 2
-0.283053 0.110737 0.631445 6.0899e-39 2
-0.2603 0.109851 0.626394 6.91859e-39 2
-0.250055 0.109851 0.626394 6.18102e-39 2
-0.24371 0.111637 0.636579 6.08883e-39 2
-0.230488 0.110292 0.628909 6.45869e-39 2
-0.220202 0.110292 0.628909 5.99736e-39 2
-0.207418 0.108979 0.621422 5.90588e-39 2
-0.197254 0.108979 0.621422 5.72005e-39 2
-0.186352 0.108548 0.618966 5.35127e-39 2
-0.174164 0.107276 0.611713 5.81224e-39 2
-0.161634 0.105626 0.602302 5.44418e-39 2
-0.151202 0.105221 0.599994 6.54981e-39 2
-0.138211 0.102856 0.586511 6.7342e-39 2
-2.9809 0.909812 4.74541 6.73527e-39 2
-0.280789 0.120095 0.626394 6.64308e-39 2
-0.270544 0.120095 0.626394 6.55089e-39 2
-0.258234 0.119142 0.621422 6.45833e-39 2
-0.24709 0.118671 0.618966 6.91859e-39 2
-0.239811 0.120095 0.626394 6.64129e-39 2
-0.226844 0.118671 0.618966 6.64165e-39 2
-0.216721 0.118671 0.618966 6.18175e-39 2
-0.206598 0.118671 0.618966 6.36614e-39 2
-0.196475 0.118671 0.618966 6.18175e-39 2
-0.185618 0.118204 0.616529 6.08955e-39 2
-3.64332 1.20685 5.79994 6.91966e-39 2
-0.267336 0.128794 0.618966 7.65688e-39 2
-0.2562 0.128287 0.616529 7.74872e-39 2
-0.244194 0.127285 0.611713 7.748e-39 2
-0.239811 0.13034 0.626394 7.47141e-39 2
-0.229566 0.13034 0.626394 7.37922e-39 2
-0.210763 0.131391 0.631445 6.91896e-39 2
-3.39205 1.21193 5.39995 4.89136e-39 2
-3.30374 1.21193 5.39995 6.82747e-39 2
-3.10824 1.17154 5.21995 6.64308e-39 2
-2.74807 1.06503 4.74541 5.35234e-39 2
-2.14939 0.857221 3.81947 6.55088e-39 2
-1.82051 0.747788 3.33188 6.2743e-39 2
-1.76602 0.747788 3.33188 6.91859e-39 2
-3.27899 1.25691 5.21995 5.26014e-39 2
-3.30374 1.30025 5.39995 5.62893e-39 2
-3.10824 1.25691 5.21995 5.16795e-39 2
-2.74807 1.14264 4.74541 6.55089e-39 2
-2.04942 0.876911 3.64182 7.38029e-39 2
-1.86009 0.819722 3.40431 6.73492e-39 2
-1.80441 0.819722 3.40431 6.642e-39 2
-2.50704 1.34669 5.5928 7.3803e-39 2
-1.9893 1.10904 4.60584 8.1175e-39 2
0.03479 0.11156 0.463309 4.33746e-39 2
4.92948 1.17835 4.8937 8.4852e-39 2
-2.89322 1.18436 4.60584 5.90552e-39 2
-2.8179 1.18436 4.60584 6.08991e-39 2
-2.66421 1.15052 4.47424 6.82747e-39 2
-2.21186 0.982154 3.81947 6.82712e-39 2
-2.00284 0.915189 3.55906 7.01151e-39 2
-1.94464 0.915189 3.55906 6.36614e-39 2
-1.88643 0.915189 3.55906 6.54981e-39 2
-2.41557 1.43815 5.5928 7.28774e-39 2
-1.7125 1.05969 4.12101 7.47141e-39 2
-1.6451 1.05969 4.12101 7.56361e-39 2
-1.42744 0.95877 3.72853 7.37922e-39 2
0.0337903 0.115714 0.449995 7.10297e-39 2
0.0409147 0.115052 0.447424 4.15235e-39 2
-2.66135 1.18971 4.34996 6.55089e-39 2
-2.27433 1.04462 3.81947 6.36649e-39 2
-2.1592 1.01975 3.72853 6.45834e-39 2
-2.04942 0.996034 3.64182 6.18175e-39 2
-2.03724 1.01975 3.72853 6.36614e-39 2
-1.84451 0.951766 3.47996 7.01043e-39 2
-1.9893 1.25969 4.60584 7.2881e-39 2
-1.7125 1.12709 4.12101 7.6558e-39 2
-1.48842 1.01975 3.72853 7.47141e-39 2
-1.5777 1.12709 4.12101 8.02459e-39 2
0.0262048 0.122021 0.446149 8.0249e-39 2
0.0335015 0.122021 0.446149 7.93235e-39 2
0.0407981 0.122021 0.446149 6.45795e-39 2
0.0480948 0.122021 0.446149 9.13127e-39 2
-2.22017 1.08073 3.72853 4.89101e-39 2
-2.1592 1.08073 3.72853 7.10371e-39 2
-2.09822 1.08073 3.72853 6.36579e-39 2
-2.03724 1.08073 3.72853 5.90481e-39 2
-1.97626 1.08073 3.72853 7.56361e-39 2
-1.7799 1.19449 4.12101 7.84055e-39 2
-1.47898 1.0316 3.55906 7.84055e-39 2
-1.359 0.986752 3.40431 7.28737e-39 2
-1.36256 1.0316 3.55906 7.6558e-39 2
0.0108683 0.121042 0.417596 6.91856e-39 2
0.0182328 0.124699 0.430215 6.82636e-39 2
0.0254789 0.125736 0.433791 8.76175e-39 2
0.0335972 0.129687 0.447424 6.826e-39 2
0.0409147 0.129687 0.447424 6.36503e-39 2
0.0480948 0.129318 0.446149 6.45652e-39 2
0.0553915 0.129318 0.446149 6.45652e-39 2
0.0630474 0.130059 0.448706 6.27356e-39 2
-1.75493 1.19879 3.91496 7.47105e-39 2
-1.53718 1.08981 3.55906 8.393e-39 2
-1.41467 1.04243 3.40431 7.74835e-39 2
-1.07782 0.826754 2.69997 7.56396e-39 2
-1.07058 0.856281 2.7964 6.73384e-39 2
-1.43479 1.19879 3.91496 7.47177e-39 2
0.00404944 0.128213 0.418712 4.89099e-39 2
0.0108683 0.127871 0.417596 9.31601e-39 2
0.0177929 0.128557 0.419835 6.64234e-39 2
0.0247255 0.128902 0.420963 5.35052e-39 2
0.0332175 0.135457 0.442368 9.40678e-39 2
0.0406822 0.136226 0.444882 8.20787e-39 2
0.0479582 0.136226 0.444882 7.10117e-39 2
0.0552341 0.136226 0.444882 6.91606e-39 2
0.06251 0.136226 0.444882 6.36431e-39 2
0.069786 0.136226 0.444882 6.08774e-39 2
0.0766265 0.135457 0.442368 7.56287e-39 2
-1.6536 1.14802 3.55906 6.82712e-39 2
-1.52603 1.09811 3.40431 8.67031e-39 2
-1.25252 0.935423 2.89997 7.93274e-39 2
-1.08458 0.841881 2.60997 8.20932e-39 2
-0.976778 0.789263 2.44685 8.30152e-39 2
-0.966978 0.814723 2.52578 8.20933e-39 2
-1.30435 1.14802 3.55906 6.91967e-39 2
-0.00967231 0.135423 0.419835 4.24634e-39 2
-0.002806 0.135423 0.419835 6.3654e-39 2
0.00404944 0.135061 0.418712 5.90479e-39 2
0.0108974 0.135061 0.418712 5.44416e-39 2
0.0176509 0.134343 0.416485 5.16613e-39 2
0.0244625 0.134343 0.416485 4.3353e-39 2
0.0403384 0.14229 0.441122 6.54979e-39 2
0.0475529 0.14229 0.441122 6.54655e-39 2
0.0547673 0.14229 0.441122 8.66561e-39 2
-1.34738 0.982851 2.89997 7.10298e-39 2
-1.16995 0.884566 2.60997 7.65579e-39 2
-1.05681 0.829281 2.44685 7.4714e-39 2
-1.0168 0.829281 2.44685 8.30116e-39 2
-0.91932 0.7805 2.30292 8.48555e-39 2
-0.93676 0.829281 2.44685 7.65615e-39 2
-1.06281 0.982851 2.89997 8.57919e-39 2
-1.37076 1.32685 3.91496 6.91967e-39 2
-0.178861 0.276427 0.815617 6.36721e-39 2
-0.165522 0.276427 0.815617 5.7204e-39 2
-0.0213448 0.129765 0.382881 3.87397e-39 2
-0.0150829 0.129765 0.382881 4.70445e-39 2
-0.00877803 0.129134 0.381018 2.86234e-39 2
0.0188544 0.150778 0.444882 6.08809e-39 2
0.0472865 0.148667 0.438651 7.19193e-39 2
-1.71181 1.26443 3.55906 7.93274e-39 2
-1.21264 0.927252 2.60997 7.28701e-39 2
-1.09683 0.869298 2.44685 6.45725e-39 2
-0.994648 0.818163 2.30292 1.1528e-38 2
-0.956984 0.818163 2.30292 7.3792e-39 2
-0.91932 0.818163 2.30292 6.82603e-39 2
-0.93676 0.869298 2.44685 7.65615e-39 2
-1.30435 1.26443 3.55906 6.91859e-39 2
-0.178861 0.289766 0.815617 6.08774e-39 2
-0.165522 0.289766 0.815617 1.05124e-38 2
-0.152183 0.289766 0.815617 6.73275e-39 2
-0.0214497 0.136696 0.384763 6.08595e-39 2
-0.0150461 0.135695 0.381947 4.70374e-39 2
-0.00865173 0.133418 0.375536 5.53421e-39 2
-1.25445 1.00338 2.69997 8.02494e-39 2
-1.06359 0.881761 2.3727 8.20932e-39 2
-0.994648 0.855827 2.30292 6.91967e-39 2
-0.956984 0.855827 2.30292 7.84162e-39 2
-0.91932 0.855827 2.30292 7.65723e-39 2
-0.881656 0.855827 2.30292 8.67138e-39 2
-0.1922 0.303105 0.815617 4.88884e-39 2
-0.178861 0.303105 0.815617 4.61189e-39 2
-0.165522 0.303105 0.815617 5.62641e-39 2
-0.152183 0.303105 0.815617 6.64164e-39 2
-0.0149731 0.141253 0.380093 7.74654e-39 2
-0.00848887 0.136932 0.368467 3.9658e-39 2
0.0035139 0.135026 0.363337 6.73346e-39 2
0.317625 0.139895 0.376438 7.47249e-39 2
-1.01053 0.843852 2.17498 6.91967e-39 2
-1.00282 0.867962 2.23712 4.0616e-39 2
-0.994648 0.893491 2.30292 7.38065e-39 2
-0.956984 0.893491 2.30292 6.73492e-39 2
-0.1922 0.316445 0.815617 5.25907e-39 2
-0.00844911 0.142289 0.366741 5.16542e-39 2
0.00349767 0.140317 0.361659 6.82314e-39 2
0.00939083 0.139994 0.360826 7.83764e-39 2
0.303363 0.136841 0.352699 6.55053e-39 2
0.307745 0.136227 0.351118 6.2743e-39 2
-1.02479 0.959371 2.3727 6.64308e-39 2
-0.00840972 0.147596 0.365031 7.37775e-39 2
-0.00240607 0.14556 0.359996 5.06998e-39 2
0.00348159 0.14556 0.359996 8.85108e-39 2
0.00934775 0.145226 0.359171 7.19156e-39 2
0.0152219 0.145226 0.359171 4.97887e-39 2
0.300655 0.141336 0.34955 5.53709e-39 2
0.306371 0.141336 0.34955 8.48771e-39 2
0.310701 0.140708 0.347996 5.53673e-39 2
-0.00829372 0.151447 0.359996 4.61117e-39 2
-0.00238415 0.150067 0.356716 4.51646e-39 2
0.00344986 0.150067 0.356716 7.19121e-39 2
0.00928388 0.150067 0.356716 5.80863e-39 2
0.0151179 0.150067 0.356716 7.55892e-39 2
0.0209043 0.149726 0.355906 6.36145e-39 2
0.0266041 0.149049 0.354295 5.99301e-39 2
0.296681 0.145109 0.34493 4.43038e-39 2
0.302322 0.145109 0.34493 5.81439e-39 2
-0.00816238 0.154843 0.354295 3.87469e-39 2
-0.00236262 0.154494 0.353495 8.20573e-39 2
0.0091587 0.153799 0.351907 5.80827e-39 2
0.014914 0.153799 0.351907 6.17491e-39 2
0.0264247 0.153799 0.351907 3.50266e-39 2
0.0375139 0.152091 0.347996 6.26997e-39 2
0.282906 0.149434 0.341918 4.24491e-39 2
0.288498 0.149434 0.341918 6.82603e-39 2
0.294734 0.149761 0.342666 5.35091e-39 2
0.00320188 0.15011 0.331075 5.25582e-39 2
0.0144592 0.154688 0.341173 7.65076e-39 2
0.0314038 0.155706 0.343418 8.85145e-39 2
0.0368587 0.155026 0.341918 6.26962e-39 2
0.0428247 0.156392 0.34493 7.46996e-39 2
0.282906 0.155026 0.341918 7.10371e-39 2
0.288498 0.155026 0.341918 7.47177e-39 2
0.29409 0.155026 0.341918 4.70518e-39 2
-0.00220345 0.15487 0.329681 3.59667e-39 2
0.0031884 0.15487 0.329681 5.62533e-39 2
0.00863479 0.155854 0.331776 6.54728e-39 2
0.0141811 0.157186 0.334612 6.63768e-39 2
0.0196536 0.157186 0.334612 6.9132e-39 2
0.0253974 0.158883 0.338226 8.94078e-39 2
0.030929 0.158883 0.338226 6.08416e-39 2
0.0362259 0.157861 0.336048 4.23952e-39 2
0.289129 0.160969 0.342666 6.54945e-39 2
0.00865312 0.161622 0.332481 7.93095e-39 2
0.0140908 0.161622 0.332481 6.91571e-39 2
0.0196117 0.162312 0.333899 9.58615e-39 2
0.0253427 0.164061 0.337497 1.11531e-38 2
0.030929 0.164415 0.338226 9.95494e-39 2
0.0360711 0.162658 0.334612 6.54155e-39 2
0.0139135 0.164959 0.328299 2.39921e-39 2
0.0252339 0.168853 0.336048 1.02322e-38 2
0.0307299 0.168853 0.336048 7.09724e-39 2
0.0359942 0.167772 0.333899 4.60472e-39 2
0.0413668 0.167415 0.333188 5.52991e-39 2
0.019823 0.1751 0.337497 3.87146e-39 2
0.0251799 0.173975 0.335329 9.03334e-39 2
0.0305334 0.173233 0.333899 6.63626e-39 2
0.0359176 0.172865 0.333188 5.89797e-39 2
0.543894 1.5496 2.44685 6.17852e-39 2
