# .PCD v0.7 - Point Cloud Data file format
VERSION 0.7
FIELDS x y z rgb label
SIZE 4 4 4 4 4
TYPE F F F F U
COUNT 1 1 1 1 1
WIDTH 1176
HEIGHT 1
VIEWPOINT 0 0 0 1 0 0 0
POINTS 1176
DATA ascii
-0.0879944 -3.20311 3.81947 2.04664e-38 1
-0.0243405 -3.05413 3.64182 2.0282e-38 1
0.0352207 -3.05413 3.64182 2.0282e-38 1
0.0947819 -3.05413 3.64182 2.03742e-38 1
0.135444 -2.68015 3.19589 2.01898e-38 1
-0.154223 -3.21916 3.91496 2.00976e-38 1
-0.0901943 -3.21916 3.91496 2.0282e-38 1
-0.0255278 -3.14064 3.81947 2.00054e-38 1
0.0360593 -3.06586 3.72853 2.0282e-38 1
0.0970386 -3.06586 3.72853 2.0743e-38 1
0.141207 -2.73971 3.33188 2.03742e-38 1
0.218997 -3.06586 3.72853 2.05586e-38 1
-0.230872 -2.10342 2.60997 2.00965e-38 1
-0.136038 -1.52054 1.88673 2.01887e-38 1
-0.103929 -1.50244 1.86427 2.00965e-38 1
-0.0717314 -1.4675 1.82091 2.02809e-38 1
0.039855 -3.32119 4.12101 2.06497e-38 1
0.107253 -3.32119 4.12101 2.11107e-38 1
0.154343 -2.935 3.64182 2.09263e-38 1
0.287434 -3.94391 4.8937 2.06497e-38 1
-0.219878 -1.9626 2.48569 2.00043e-38 1
-0.16364 -1.79194 2.26954 2.00043e-38 1
-0.106464 -1.50785 1.90974 2.03731e-38 1
-0.0693135 -1.38926 1.75953 2.01887e-38 1
0.154343 -2.87544 3.64182 2.06508e-38 1
0.317168 -4.26359 5.39995 2.0743e-38 1
-0.223424 -1.95295 2.52578 2.00043e-38 1
-0.16364 -1.75482 2.26954 2.00965e-38 1
-0.109125 -1.51354 1.95748 2.04653e-38 1
-0.0709069 -1.39176 1.79998 2.04653e-38 1
-0.234785 -2.00884 2.65421 2.03731e-38 1
-0.168525 -1.76898 2.33729 2.06497e-38 1
-0.110507 -1.50028 1.98226 2.06497e-38 1
-0.0725753 -1.39437 1.84233 2.06497e-38 1
-0.168525 -1.73076 2.33729 2.07419e-38 1
-0.114869 -1.5258 2.06051 2.06497e-38 1
-0.0752305 -1.41415 1.90974 2.10185e-38 1
-0.0424444 -1.36424 1.84233 2.06508e-38 1
-0.194675 -1.95516 2.69997 2.0743e-38 1
-0.12125 -1.57499 2.17498 2.06497e-38 1
-0.0801156 -1.47272 2.03375 2.08341e-38 1
-0.0429496 -1.34999 1.86427 2.1295e-38 1
-0.0920731 -1.6543 2.33729 2.12029e-38 1
1.02369 -3.02718 5.39995 2.03734e-38 1
1.112 -3.02718 5.39995 1.99121e-38 1
1.24319 -3.13529 5.5928 1.97281e-38 1
0.957643 -2.74926 5.05156 2.01891e-38 1
1.04026 -2.74926 5.05156 1.95437e-38 1
1.12288 -2.74926 5.05156 1.93593e-38 1
0.802349 -2.23421 4.23239 2.01901e-38 1
0.871569 -2.23421 4.23239 2.04667e-38 1
0.966922 -2.29628 4.34996 1.00486e-38 1
0.742173 -2.00262 3.91496 2.05589e-38 1
0.826873 -2.05397 4.01534 9.31141e-39 1
0.892543 -2.05397 4.01534 8.02067e-39 1
0.724071 -1.89131 3.81947 1.04174e-38 1
0.767811 -1.84628 3.72853 8.39017e-39 1
0.82879 -1.84628 3.72853 9.49616e-39 1
0.678145 -1.87456 3.91496 1.98203e-38 1
0.674703 -1.70415 3.55906 5.90017e-39 1
0.658124 -1.53026 3.19589 8.48165e-39 1
0.710392 -1.53026 3.19589 8.75823e-39 1
0.441873 -1.64594 3.55906 2.0649e-38 1
0.661605 -1.76638 3.81947 2.06493e-38 1
0.645368 -1.57438 3.40431 2.03734e-38 1
0.632315 -1.42003 3.07056 1.26301e-38 1
0.682533 -1.42003 3.07056 7.83592e-39 1
0.732751 -1.42003 3.07056 9.86279e-39 1
0.78297 -1.42003 3.07056 8.29546e-39 1
0.793812 -0.452634 0.97874 4.05984e-39 1
0.771256 -0.43108 0.932133 4.51974e-39 1
0.422032 -1.74651 3.91496 2.07412e-38 1
0.48606 -1.74651 3.91496 2.05568e-38 1
0.50008 -1.58773 3.55906 2.04646e-38 1
0.558288 -1.58773 3.55906 2.03727e-38 1
0.645852 -1.66334 3.72853 2.06493e-38 1
0.631637 -1.48639 3.33188 2.01883e-38 1
0.620155 -1.34347 3.01151 1.97281e-38 1
0.710392 -1.42572 3.19589 1.90834e-38 1
0.747406 -1.39721 3.13197 1.24443e-38 1
0.798629 -1.39721 3.13197 6.54374e-39 1
0.751344 -0.459607 1.03025 5.35023e-39 1
0.778436 -0.465735 1.04399 5.4417e-39 1
0.774847 -0.453638 1.01687 4.42755e-39 1
0.771441 -0.442154 0.991129 4.33535e-39 1
0.784012 -0.431236 0.966657 4.05876e-39 1
0.771256 -0.415835 0.932133 4.05876e-39 1
0.468924 -1.86942 4.34996 2.04646e-38 1
0.511642 -1.77103 4.12101 2.04646e-38 1
0.646439 -1.77103 4.12101 2.02805e-38 1
0.713837 -1.77103 4.12101 2.0188e-38 1
0.899604 -2.03937 4.74541 2.00958e-38 1
0.871569 -1.8189 4.23239 1.97281e-38 1
0.966922 -1.86942 4.34996 1.93593e-38 1
0.983429 -1.77103 4.12101 1.11546e-38 1
1.10921 -1.86942 4.34996 6.17604e-39 1
0.754345 -0.454724 1.0581 4.33536e-39 1
0.77165 -0.454724 1.0581 4.42863e-39 1
0.788955 -0.454724 1.0581 5.25731e-39 1
0.785043 -0.442758 1.03025 4.24316e-39 1
0.781331 -0.431405 1.00384 4.42683e-39 1
0.768202 -0.415427 0.966657 3.96621e-39 1
0.784012 -0.415427 0.966657 3.68962e-39 1
0.780548 -0.405417 0.943364 4.33535e-39 1
0.786501 -0.40059 0.932133 4.61194e-39 1
0.562709 -2.15793 5.21995 2.04649e-38 1
1.19437 -2.3977 5.79994 1.94511e-38 1
1.28923 -2.3977 5.79994 1.91749e-38 1
1.33465 -2.31207 5.5928 1.86224e-38 1
1.37695 -2.23235 5.39995 1.06936e-38 1
0.786219 -0.455902 1.10281 5.44099e-39 1
0.793085 -0.44957 1.08749 4.42898e-39 1
0.799763 -0.443411 1.07259 7.00902e-39 1
0.80626 -0.437419 1.0581 3.87366e-39 1
0.791478 -0.420377 1.01687 4.24172e-39 1
0.768202 -0.399617 0.966657 5.07148e-39 1
0.784012 -0.399617 0.966657 4.98036e-39 1
0.780548 -0.389988 0.943364 4.42719e-39 1
0.786501 -0.385345 0.932133 4.51974e-39 1
0.817305 -0.425869 1.07259 3.87437e-39 1
0.801892 -0.409059 1.03025 4.70269e-39 1
0.777805 -0.388606 0.97874 4.88708e-39 1
0.784012 -0.383808 0.966657 4.70377e-39 1
0.780548 -0.37456 0.943364 4.61157e-39 1
0.786501 -0.370101 0.932133 5.44133e-39 1
3.29458 -1.98719 5.21995 1.68714e-38 1
0.817305 -0.408327 1.07259 4.33535e-39 1
0.777805 -0.372599 0.97874 5.62465e-39 1
0.774451 -0.363511 0.954868 4.51938e-39 1
0.771256 -0.354856 0.932133 6.45549e-39 1
0.777248 -0.350681 0.921167 5.53353e-39 1
3.29458 -1.90182 5.21995 1.68711e-38 1
0.777805 -0.356591 0.97874 4.42719e-39 1
0.76512 -0.343703 0.943364 5.25695e-39 1
0.762182 -0.335616 0.921167 5.16475e-39 1
0.777248 -0.335616 0.921167 5.34914e-39 1
0.777805 -0.340584 0.97874 5.16475e-39 1
0.756011 -0.324366 0.932133 5.07255e-39 1
0.75332 -0.316823 0.910456 4.70377e-39 1
0.76821 -0.316823 0.910456 5.99451e-39 1
0.792313 -0.32055 0.921167 5.62465e-39 1
0.78765 -0.328686 0.991129 4.88888e-39 1
0.756011 -0.309121 0.932133 4.5201e-39 1
0.744661 -0.298462 0.899991 5.44133e-39 1
0.777248 -0.305485 0.921167 5.81012e-39 1
0.792313 -0.305485 0.921167 6.82427e-39 1
0.797748 -0.316482 1.00384 4.4279e-39 1
0.76512 -0.297417 0.943364 5.53425e-39 1
0.744661 -0.283743 0.899991 4.88816e-39 1
0.777248 -0.290419 0.921167 6.2711e-39 1
0.801746 -0.293876 0.932133 7.10086e-39 1
0.808109 -0.303962 1.01687 5.07255e-39 1
0.76512 -0.281989 0.943364 5.34914e-39 1
0.75332 -0.272152 0.910456 6.63988e-39 1
0.786501 -0.278632 0.932133 6.82355e-39 1
0.801746 -0.278632 0.932133 7.28525e-39 1
-1.23528 -0.491655 1.73998 1.39201e-38 1
0.829658 -0.294993 1.04399 5.34914e-39 1
0.771256 -0.263387 0.932133 5.80904e-39 1
-1.24916 -0.468403 1.75953 1.39194e-38 1
-1.354 -0.465794 1.86427 1.40123e-38 1
-1.24916 -0.439626 1.75953 1.39201e-38 1
-1.49653 -0.481126 2.06051 1.37364e-38 1
-1.33946 -0.440549 1.88673 1.40123e-38 1
-1.3086 -0.440549 1.88673 1.31833e-38 1
-1.39543 -0.481126 2.06051 1.29067e-38 1
5.61606 -1.26088 5.39995 1.1156e-38 1
5.70437 -1.26088 5.39995 1.1617e-38 1
5.5996 -1.21885 5.21995 1.0695e-38 1
5.68497 -1.21885 5.21995 1.22624e-38 1
5.77034 -1.21885 5.21995 1.14326e-38 1
5.01918 -1.04473 4.47424 1.1156e-38 1
4.81709 -0.988259 4.23239 1.13408e-38 1
5.6498 -1.14267 4.8937 1.12486e-38 2
5.72984 -1.14267 4.8937 1.04199e-38 2
-1.53698 -0.45952 2.11619 1.34598e-38 1
-1.42532 -0.435955 2.00767 1.32758e-38 1
-1.27781 -0.400053 1.84233 1.30911e-38 1
-1.24768 -0.400053 1.84233 1.20776e-38 1
5.84235 -1.25942 5.79994 1.04188e-38 2
5.93721 -1.25942 5.79994 1.11564e-38 2
5.25373 -1.09692 5.05156 1.09716e-38 2
5.33635 -1.09692 5.05156 1.03263e-38 2
5.09054 -1.03044 4.74541 1.07872e-38 2
5.50158 -1.09692 5.05156 1.09716e-38 2
5.09148 -1.00013 4.60584 1.09716e-38 2
4.74787 -0.91904 4.23239 1.14323e-38 2
4.69033 -0.894854 4.12101 1.19858e-38 2
5.16553 -0.971556 4.47424 1.10645e-38 2
4.58387 -0.850112 3.91496 1.07876e-38 2
-1.56585 -0.442864 2.20561 1.32755e-38 1
-1.24844 -0.361418 1.79998 1.29067e-38 1
-1.219 -0.361418 1.79998 1.24457e-38 1
4.0447 -0.806239 4.01534 1.03277e-38 2
5.17112 -1.0143 5.05156 1.06958e-38 2
5.08955 -0.982604 4.8937 1.04185e-38 2
5.16959 -0.982604 4.8937 1.06028e-38 2
4.79966 -0.898381 4.47424 1.13404e-38 2
5.01615 -0.924804 4.60584 1.12482e-38 2
4.94601 -0.898381 4.47424 1.0695e-38 2
4.50439 -0.806239 4.01534 1.08794e-38 2
4.57006 -0.806239 4.01534 1.08794e-38 2
4.16715 -0.714621 3.55906 1.10645e-38 2
3.44289 -0.582284 2.89997 1.07887e-38 2
3.84647 -0.641701 3.19589 9.86672e-39 2
4.54853 -0.748651 3.72853 8.94477e-39 2
5.23241 -0.84982 4.23239 1.00515e-38 2
-1.3086 -0.347978 1.88673 1.21691e-38 1
-1.27775 -0.347978 1.88673 1.18003e-38 1
3.84976 -0.995938 5.39995 6.91859e-39 2
3.68401 -0.931684 5.05156 6.82567e-39 2
3.24348 -0.802283 4.34996 6.45617e-39 2
3.61595 -0.875218 4.74541 7.46997e-39 2
4.35313 -1.03151 5.5928 7.37742e-39 2
4.4446 -1.03151 5.5928 7.56181e-39 2
3.66845 -0.671679 3.64182 9.31355e-39 2
4.00761 -0.722055 3.91496 9.77453e-39 2
4.07164 -0.722055 3.91496 9.866e-39 2
4.59519 -0.802283 4.34996 1.04188e-38 2
4.66633 -0.802283 4.34996 1.03266e-38 2
4.87283 -0.825206 4.47424 1.02344e-38 2
4.80862 -0.802283 4.34996 1.06032e-38 2
4.50439 -0.740569 4.01534 1.06958e-38 2
4.24363 -0.687671 3.72853 1.09724e-38 2
4.30461 -0.687671 3.72853 1.03277e-38 2
4.16715 -0.656414 3.55906 1.05121e-38 2
3.64541 -0.566318 3.07056 1.00515e-38 2
3.69563 -0.566318 3.07056 1.03281e-38 2
4.54853 -0.687671 3.72853 1.03281e-38 2
5.09472 -0.760058 4.12101 1.00515e-38 2
3.7555 -0.974855 5.79994 7.65651e-39 2
3.71285 -0.940038 5.5928 7.74798e-39 2
3.94522 -0.974855 5.79994 7.47175e-39 2
3.63607 -0.877369 5.21995 6.82603e-39 2
3.28362 -0.774149 4.60584 4.98212e-39 2
3.26298 -0.752031 4.47424 6.54836e-39 2
3.15582 -0.71138 4.23239 7.00934e-39 2
3.40933 -0.752031 4.47424 7.56252e-39 2
3.69356 -0.797608 4.74541 8.57596e-39 2
3.77117 -0.797608 4.74541 7.93132e-39 2
4.37965 -0.907623 5.39995 7.83912e-39 2
4.17971 -0.849067 5.05156 7.65545e-39 2
4.4044 -0.877369 5.21995 8.30047e-39 2
4.48978 -0.877369 5.21995 8.48414e-39 2
3.58508 -0.598206 3.55906 9.49866e-39 2
3.72801 -0.612118 3.64182 9.49866e-39 2
3.07294 -0.496624 2.95469 9.95964e-39 2
4.35334 -0.69266 4.12101 9.49794e-39 2
4.42074 -0.69266 4.12101 9.40575e-39 2
4.73747 -0.731141 4.34996 9.59014e-39 2
4.67866 -0.71138 4.23239 1.04199e-38 2
4.30461 -0.626692 3.72853 9.68341e-39 2
4.16715 -0.598206 3.55906 9.68305e-39 2
3.71832 -0.526421 3.13197 9.31427e-39 2
3.76954 -0.526421 3.13197 9.22207e-39 2
4.44275 -0.612118 3.64182 9.22207e-39 2
4.83998 -0.658027 3.91496 9.22207e-39 2
3.09151 -0.879998 5.79994 9.499e-39 2
3.07256 -0.848569 5.5928 9.03838e-39 2
3.16403 -0.848569 5.5928 7.93274e-39 2
3.2555 -0.848569 5.5928 7.93239e-39 2
3.34697 -0.848569 5.5928 9.40716e-39 2
2.83166 -0.698822 4.60584 8.39372e-39 2
3.08867 -0.742498 4.8937 7.65723e-39 2
3.27092 -0.76645 5.05156 7.10298e-39 2
3.05764 -0.698822 4.60584 5.2587e-39 2
3.13297 -0.698822 4.60584 7.56431e-39 2
3.03005 -0.659998 4.34996 8.48627e-39 2
2.93798 -0.625262 4.12101 8.02349e-39 2
3.00537 -0.625262 4.12101 7.8391e-39 2
2.91913 -0.593999 3.91496 7.4714e-39 2
2.98316 -0.593999 3.91496 7.84018e-39 2
3.20757 -0.625262 4.12101 7.19446e-39 2
3.19099 -0.609229 4.01534 6.91752e-39 2
3.62885 -0.678856 4.47424 7.83984e-39 2
3.70203 -0.678856 4.47424 7.37886e-39 2
4.004 -0.719998 4.74541 7.47106e-39 2
4.08161 -0.719998 4.74541 7.56254e-39 2
3.42921 -0.516521 3.40431 8.66925e-39 2
2.81236 -0.416841 2.74734 8.76217e-39 2
2.76044 -0.402711 2.65421 8.85509e-39 2
2.71192 -0.389507 2.56719 8.85329e-39 2
4.09727 -0.579511 3.81947 9.31427e-39 2
4.60944 -0.642161 4.23239 9.49902e-39 2
4.2222 -0.579511 3.81947 9.59121e-39 2
4.28467 -0.579511 3.81947 1.02366e-38 2
3.87462 -0.516521 3.40431 1.00522e-38 2
4.10895 -0.539999 3.55906 9.03876e-39 2
3.6671 -0.475199 3.13197 8.39339e-39 2
3.44289 -0.439999 2.89997 9.03768e-39 2
3.76954 -0.475199 3.13197 9.12988e-39 2
4.44275 -0.552557 3.64182 9.7756e-39 2
4.60951 -0.565713 3.72853 9.03804e-39 2
2.34081 -0.7571 5.5928 7.65544e-39 2
2.43228 -0.7571 5.5928 7.74764e-39 2
2.20828 -0.662463 4.8937 7.65508e-39 2
2.03406 -0.588856 4.34996 7.748e-39 2
2.29658 -0.642388 4.74541 7.56361e-39 2
2.52737 -0.683833 5.05156 7.47141e-39 2
2.69698 -0.706627 5.21995 8.20898e-39 2
2.6926 -0.683833 5.05156 8.30117e-39 2
2.68849 -0.662463 4.8937 8.39337e-39 2
2.76853 -0.662463 4.8937 7.93274e-39 2
3.03847 -0.706627 5.21995 6.91824e-39 2
3.12384 -0.706627 5.21995 8.67031e-39 2
2.75075 -0.60568 4.47424 8.39372e-39 2
2.90698 -0.623494 4.60584 8.02494e-39 2
3.07268 -0.642388 4.74541 7.84054e-39 2
2.80972 -0.572941 4.23239 7.93274e-39 2
2.87894 -0.572941 4.23239 7.28845e-39 2
2.79697 -0.543559 4.01534 7.10513e-39 2
2.86264 -0.543559 4.01534 7.01114e-39 2
2.78547 -0.517044 3.81947 7.10333e-39 2
2.59479 -0.471085 3.47996 7.37992e-39 2
2.6517 -0.471085 3.47996 7.01079e-39 2
2.90209 -0.504734 3.72853 7.10263e-39 2
2.96307 -0.504734 3.72853 7.37921e-39 2
3.4327 -0.572941 4.23239 7.84127e-39 2
3.50192 -0.572941 4.23239 7.10335e-39 2
3.88624 -0.623494 4.60584 7.37994e-39 2
2.54452 -0.336489 2.48569 9.22171e-39 2
2.58517 -0.336489 2.48569 9.03876e-39 2
2.54503 -0.326136 2.40921 9.50045e-39 2
2.89634 -0.365497 2.69997 8.57778e-39 2
3.76327 -0.460844 3.40431 9.3139e-39 2
3.19402 -0.385433 2.84724 9.49937e-39 2
3.24059 -0.385433 2.84724 9.40681e-39 2
3.4112 -0.399978 2.95469 9.8678e-39 2
3.21675 -0.371909 2.74734 9.31462e-39 2
3.26168 -0.371909 2.74734 8.02496e-39 2
3.69563 -0.415663 3.07056 9.03911e-39 2
4.24529 -0.471085 3.47996 9.13131e-39 2
4.50231 -0.492996 3.64182 9.03911e-39 2
-2.32115 -0.380361 3.19589 1.08791e-38 1
-2.26888 -0.380361 3.19589 1.05103e-38 1
-2.4685 -0.423584 3.55906 1.03259e-38 1
1.09952 -0.690284 5.79994 6.5498e-39 2
1.112 -0.642679 5.39995 8.30152e-39 2
1.16031 -0.621256 5.21995 7.74835e-39 2
1.28863 -0.642679 5.39995 6.08883e-39 2
1.37695 -0.642679 5.39995 7.47141e-39 2
1.41642 -0.621256 5.21995 6.27395e-39 2
1.50179 -0.621256 5.21995 7.84127e-39 2
1.58716 -0.621256 5.21995 7.19483e-39 2
1.61858 -0.601215 5.05156 7.10263e-39 2
1.7012 -0.601215 5.05156 6.54945e-39 2
1.72807 -0.582428 4.8937 7.28737e-39 2
1.65312 -0.532505 4.47424 8.11713e-39 2
1.77707 -0.548167 4.60584 6.91859e-39 2
1.8524 -0.548167 4.60584 5.99663e-39 2
1.92773 -0.548167 4.60584 7.01079e-39 2
2.12825 -0.582428 4.8937 7.6558e-39 2
1.96292 -0.517713 4.34996 7.37922e-39 2
1.97909 -0.503721 4.23239 7.19411e-39 2
2.1052 -0.517713 4.34996 8.20826e-39 2
2.30436 -0.548167 4.60584 8.39265e-39 2
2.60998 -0.601215 5.05156 9.59119e-39 2
2.59899 -0.465942 3.91496 8.20861e-39 2
2.66302 -0.465942 3.91496 8.02601e-39 2
2.72705 -0.465942 3.91496 7.01258e-39 2
2.723 -0.454578 3.81947 7.10406e-39 2
2.71915 -0.443754 3.72853 7.7487e-39 2
2.53838 -0.405167 3.40431 7.28737e-39 2
2.90209 -0.443754 3.72853 6.91859e-39 2
2.96307 -0.443754 3.72853 6.73492e-39 2
3.4327 -0.503721 4.23239 6.82712e-39 2
2.50386 -0.295836 2.48569 7.93169e-39 2
2.35742 -0.274084 2.30292 8.48486e-39 2
2.32665 -0.266253 2.23712 8.209e-39 2
2.26612 -0.255311 2.14518 8.5785e-39 2
2.39983 -0.266253 2.23712 9.13095e-39 2
2.43642 -0.266253 2.23712 8.94584e-39 2
3.21675 -0.326977 2.74734 9.22242e-39 2
3.26168 -0.326977 2.74734 8.02496e-39 2
3.69563 -0.365445 3.07056 9.03911e-39 2
4.24529 -0.414171 3.47996 8.39446e-39 2
4.50231 -0.433434 3.64182 8.67105e-39 2
-2.58388 -0.34949 3.40431 1.13401e-38 1
-2.32595 -0.321531 3.13197 1.1156e-38 1
-2.23013 -0.315226 3.07056 1.12486e-38 1
-1.95044 -0.282045 2.74734 1.06947e-38 1
-2.08873 -0.309164 3.01151 9.58834e-39 1
-2.07947 -0.315226 3.07056 9.77273e-39 1
0.948472 -0.47284 4.60584 7.93274e-39 2
0.994548 -0.45933 4.47424 7.56361e-39 2
1.03806 -0.446571 4.34996 8.39337e-39 2
1.17445 -0.47284 4.60584 7.47141e-39 2
1.24978 -0.47284 4.60584 8.57884e-39 2
1.36526 -0.487168 4.74541 7.74908e-39 2
1.44287 -0.487168 4.74541 7.93347e-39 2
1.32042 -0.423067 4.12101 7.748e-39 2
1.46492 -0.446571 4.34996 8.11713e-39 2
1.49455 -0.434501 4.23239 7.47177e-39 2
1.56377 -0.434501 4.23239 8.11713e-39 2
1.54924 -0.412219 4.01534 7.74835e-39 2
1.61491 -0.412219 4.01534 7.19518e-39 2
1.68058 -0.412219 4.01534 7.47176e-39 2
1.84065 -0.434501 4.23239 8.39372e-39 2
1.90987 -0.434501 4.23239 8.20897e-39 2
1.87759 -0.412219 4.01534 8.57596e-39 2
1.89468 -0.401914 3.91496 8.8529e-39 2
2.17634 -0.446571 4.34996 9.40608e-39 2
2.21191 -0.342054 3.33188 7.19446e-39 2
2.2664 -0.342054 3.33188 7.56396e-39 2
1.88072 -0.277182 2.69997 6.36649e-39 2
2.22174 -0.22643 2.20561 8.02388e-39 2
2.25781 -0.22643 2.20561 7.103e-39 2
2.26202 -0.223285 2.17498 8.67033e-39 2
2.17667 -0.211534 2.06051 8.48666e-39 2
2.23984 -0.214354 2.08798 8.67069e-39 2
2.24407 -0.211534 2.06051 8.02496e-39 2
2.16388 -0.200957 1.95748 7.56398e-39 2
2.22369 -0.203501 1.98226 7.84057e-39 2
-2.6413 -0.300343 3.47996 1.37375e-38 2
-2.32595 -0.270308 3.13197 1.32772e-38 2
-2.18724 -0.259912 3.01151 1.08812e-38 2
-1.91681 -0.233024 2.69997 9.58905e-39 2
-2.01137 -0.250286 2.89997 8.94296e-39 2
-1.96394 -0.250286 2.89997 9.21955e-39 2
0.464122 -0.180206 2.08798 8.76215e-39 2
0.485329 -0.175525 2.03375 7.28702e-39 2
1.18035 -0.375428 4.34996 8.02567e-39 2
0.750895 -0.225257 2.60997 8.11786e-39 2
1.36042 -0.386155 4.47424 7.47249e-39 2
1.19467 -0.321796 3.72853 6.73492e-39 2
1.28627 -0.329644 3.81947 6.73492e-39 2
1.38246 -0.337885 3.91496 7.10406e-39 2
1.44648 -0.337885 3.91496 7.84162e-39 2
1.47367 -0.329644 3.81947 6.36649e-39 2
1.46469 -0.314312 3.64182 6.82639e-39 2
1.23666 -0.255008 2.95469 7.01078e-39 2
1.62152 -0.321796 3.72853 7.56396e-39 2
1.70293 -0.314312 3.64182 8.20897e-39 2
0.814917 -0.145327 1.68385 8.57776e-39 2
0.842456 -0.145327 1.68385 8.39372e-39 2
2.16087 -0.185143 2.14518 7.6551e-39 2
2.19595 -0.185143 2.14518 8.02531e-39 2
2.20089 -0.182641 2.11619 8.85507e-39 2
2.09401 -0.171081 1.98226 8.11751e-39 2
2.02395 -0.162836 1.88673 7.74909e-39 2
2.10554 -0.166857 1.93331 8.39446e-39 2
2.06084 -0.160898 1.86427 9.03983e-39 2
2.11652 -0.162836 1.88673 8.39409e-39 2
2.08171 -0.145327 1.68385 6.82749e-39 2
-2.82372 -0.254751 3.64182 1.14333e-38 2
-2.70133 -0.248961 3.55906 1.04195e-38 2
-2.32595 -0.219086 3.13197 1.04195e-38 2
-1.91681 -0.188867 2.69997 9.86563e-39 2
-1.9748 -0.199169 2.84724 9.03551e-39 2
0.470394 -0.148031 2.11619 8.39372e-39 2
0.485329 -0.142264 2.03375 8.48592e-39 2
0.539614 -0.148031 2.11619 8.57883e-39 2
0.693134 -0.168528 2.40921 7.748e-39 2
1.09078 -0.238137 3.40431 8.48664e-39 2
1.01417 -0.210659 3.01151 7.93419e-39 2
1.34874 -0.267178 3.81947 8.57811e-39 2
1.4112 -0.267178 3.81947 8.30116e-39 2
1.37319 -0.248961 3.55906 7.9331e-39 2
1.34003 -0.23307 3.33188 7.01186e-39 2
1.17041 -0.195612 2.7964 7.10298e-39 2
1.06412 -0.171161 2.44685 7.01079e-39 2
0.743842 -0.115308 1.6484 8.02422e-39 2
0.804683 -0.120377 1.72086 7.84019e-39 2
0.814917 -0.117788 1.68385 7.19446e-39 2
0.816129 -0.114107 1.63123 8.02314e-39 2
1.93138 -0.131979 1.88673 7.65653e-39 2
1.98617 -0.133589 1.90974 7.65653e-39 2
1.96937 -0.130408 1.86427 7.65653e-39 2
1.97633 -0.128874 1.84233 8.57848e-39 2
2.03035 -0.130408 1.86427 7.01116e-39 2
2.03659 -0.128874 1.84233 7.01188e-39 2
2.06672 -0.128874 1.84233 7.10444e-39 2
-3.19584 -0.199837 3.72853 9.49865e-39 2
-2.53201 -0.161407 3.01151 9.77415e-39 2
-2.48275 -0.161407 3.01151 9.22134e-39 2
-2.69238 -0.178578 3.33188 9.9589e-39 2
-2.81775 -0.190754 3.55906 9.5894e-39 2
-2.96146 -0.204711 3.81947 9.49792e-39 2
0.470394 -0.113421 2.11619 8.11642e-39 2
0.455736 -0.102356 1.90974 7.47177e-39 2
0.539614 -0.113421 2.11619 7.56396e-39 2
0.693134 -0.129126 2.40921 7.6558e-39 2
0.976613 -0.155429 2.89997 7.84127e-39 2
1.28554 -0.178578 3.33188 5.90443e-39 2
1.16633 -0.155429 2.89997 5.72112e-39 2
0.97825 -0.125271 2.33729 6.27322e-39 2
0.716883 -0.088349 1.6484 7.01079e-39 2
0.779002 -0.0892889 1.66594 7.28737e-39 2
0.806248 -0.0892889 1.66594 7.01007e-39 2
1.59337 -0.0847794 1.5818 7.93311e-39 2
1.90839 -0.0999186 1.86427 7.56433e-39 2
1.93888 -0.0999186 1.86427 7.84127e-39 2
1.9462 -0.0987431 1.84233 7.01151e-39 2
1.9309 -0.0964731 1.79998 7.74908e-39 2
1.96033 -0.0964731 1.79998 8.02566e-39 2
1.98977 -0.0964731 1.79998 5.44455e-39 2
2.04269 -0.0975949 1.82091 6.91968e-39 2
2.09685 -0.0987431 1.84233 7.19626e-39 2
-2.68451 -0.116641 3.13197 7.6558e-39 2
-2.48423 -0.110038 2.95469 8.48485e-39 2
-2.48275 -0.112154 3.01151 7.47069e-39 2
0.539614 -0.0788112 2.11619 6.54981e-39 2
0.693134 -0.0897235 2.40921 7.83983e-39 2
1.47367 -0.142245 3.81947 7.01078e-39 2
0.728253 -0.0648003 1.73998 7.84055e-39 2
0.814917 -0.06271 1.68385 8.11713e-39 2
1.88594 -0.0686121 1.84233 6.73492e-39 2
1.89379 -0.0678143 1.82091 6.82712e-39 2
1.92357 -0.0678143 1.82091 7.28845e-39 2
1.90895 -0.0662731 1.77953 7.47284e-39 2
1.85379 -0.0633916 1.70216 7.01186e-39 2
1.58384 -0.0490086 1.31595 5.99806e-39 2
-1.78967 -0.043612 2.08798 8.02422e-39 2
-1.77925 -0.0442013 2.11619 7.10226e-39 2
-1.74464 -0.0442013 2.11619 6.54944e-39 2
0.72025 -0.0359439 1.72086 7.56396e-39 2
1.57064 -0.0272575 1.30499 5.90479e-39 2
-2.28885 -0.0114479 2.52578 7.19481e-39 2
-1.99068 -0.0101395 2.23712 5.07467e-39 2
-1.89981 -0.00985789 2.17498 5.81224e-39 2
-1.56076 -0.00825312 1.82091 6.45761e-39 2
-1.49619 -0.00806555 1.77953 7.65579e-39 2
-1.4033 -0.00771487 1.70216 7.10262e-39 2
-1.26542 -0.00709768 1.56598 7.93238e-39 2
-1.23981 -0.00709768 1.56598 6.73383e-39 2
-0.113945 -0.00375539 0.828563 9.22206e-39 2
-0.100394 -0.00375539 0.828563 9.31318e-39 2
-0.0863864 -0.00373562 0.824202 9.3139e-39 2
0.682737 -0.00739342 1.63123 8.20968e-39 2
1.83657 -0.0122374 2.69997 6.18066e-39 2
1.81803 -0.0118295 2.60997 6.82603e-39 2
1.64181 -0.0104378 2.30292 6.27429e-39 2
1.46416 -0.00909959 2.00767 6.0899e-39 2
1.21631 -0.00739342 1.63123 5.44453e-39 2
1.24298 -0.00739342 1.63123 4.79917e-39 2
1.26966 -0.00739342 1.63123 5.62893e-39 2
1.0723 -0.00554506 1.22343 6.73455e-39 2
1.0755 -0.00545975 1.2046 7.10333e-39 2
1.09521 -0.00545975 1.2046 6.91894e-39 2
1.13233 -0.00554506 1.22343 8.11856e-39 2
1.36573 -0.00657193 1.44999 7.74942e-39 2
1.42914 -0.0067597 1.49141 5.81403e-39 2
1.42637 -0.00663335 1.46354 6.73599e-39 2
1.41075 -0.00645244 1.42362 7.65723e-39 2
1.43403 -0.00645244 1.42362 6.09026e-39 2
1.29278 -0.00572394 1.26289 6.27501e-39 2
1.38022 -0.00601498 1.32711 5.99842e-39 2
1.16498 -0.00499837 1.10281 7.01258e-39 2
1.17474 -0.00496341 1.09509 6.92002e-39 2
1.20105 -0.00499837 1.10281 5.81367e-39 2
1.19386 -0.00489495 1.07999 7.10368e-39 2
1.26382 -0.00510624 1.12661 5.44524e-39 2
1.33009 -0.00529678 1.16864 6.64343e-39 2
1.39072 -0.00545975 1.2046 6.64343e-39 2
1.44374 -0.00558872 1.23306 7.74833e-39 2
1.47552 -0.00563308 1.24284 6.08846e-39 2
1.53233 -0.00577047 1.27316 6.91894e-39 2
1.55316 -0.00577047 1.27316 5.62928e-39 2
1.62688 -0.00596444 1.31595 5.62963e-39 2
-2.08689 0.0272259 2.30292 7.19517e-39 2
-1.93538 0.0257134 2.17498 7.47212e-39 2
-1.75367 0.0237354 2.00767 7.7487e-39 2
-1.49139 0.0205707 1.73998 6.36577e-39 2
-1.41575 0.0199071 1.68385 6.36505e-39 2
-1.30407 0.0187006 1.5818 7.10261e-39 2
-1.17169 0.0171422 1.44999 8.85469e-39 2
-1.14797 0.0171422 1.44999 7.65651e-39 2
-0.113945 0.00979557 0.828563 8.57669e-39 2
-0.0998661 0.00974401 0.824202 8.66888e-39 2
-0.0863864 0.00974401 0.824202 8.20863e-39 2
0.662048 0.0187006 1.5818 7.28772e-39 2
1.79241 0.03192 2.69997 6.45796e-39 2
1.83657 0.03192 2.69997 5.53529e-39 2
1.60415 0.0272259 2.30292 5.90407e-39 2
1.43132 0.0237354 2.00767 6.2743e-39 2
1.24135 0.0201235 1.70216 6.73455e-39 2
1.14476 0.0181506 1.53528 5.99699e-39 2
0.994387 0.015428 1.30499 5.99699e-39 2
1.05076 0.01596 1.34999 7.01078e-39 2
1.0723 0.0144638 1.22343 7.01114e-39 2
1.13461 0.0142412 1.2046 6.36684e-39 2
1.15431 0.0142412 1.2046 7.01293e-39 2
1.15622 0.0140255 1.18635 6.36756e-39 2
1.17562 0.0140255 1.18635 5.99878e-39 2
1.14307 0.0134157 1.13477 7.01293e-39 2
1.12891 0.0130378 1.10281 7.10441e-39 2
1.14694 0.0130378 1.10281 7.65758e-39 2
1.16498 0.0130378 1.10281 6.45904e-39 2
1.12744 0.0124253 1.051 5.0761e-39 2
1.15236 0.0125092 1.0581 7.10476e-39 2
1.41894 0.0151751 1.28359 7.01149e-39 2
1.4167 0.0149303 1.26289 7.01256e-39 2
1.39244 0.0144638 1.22343 6.275e-39 2
1.36965 0.0140255 1.18635 7.2888e-39 2
1.36832 0.0138161 1.16864 7.37992e-39 2
1.40845 0.0140255 1.18635 6.8253e-39 2
1.53233 0.0150517 1.27316 6.08881e-39 2
1.54063 0.0149303 1.26289 5.26012e-39 2
1.61333 0.015428 1.30499 8.11819e-39 2
-2.15013 0.066856 2.3727 6.82639e-39 2
-1.83352 0.0580591 2.06051 6.91894e-39 2
-1.55439 0.050142 1.77953 7.28772e-39 2
-1.42793 0.0469414 1.66594 7.7487e-39 2
-1.38594 0.0464473 1.6484 7.3792e-39 2
-1.30407 0.0445706 1.5818 7.84053e-39 2
-1.09088 0.0380387 1.34999 7.28808e-39 2
-1.14797 0.0408564 1.44999 5.81259e-39 2
1.46899 0.0580591 2.06051 4.98356e-39 2
1.18963 0.0459635 1.63123 5.16723e-39 2
0.973045 0.0367708 1.30499 5.44381e-39 2
0.903989 0.033428 1.18635 6.73419e-39 2
0.896233 0.0324448 1.15146 6.27322e-39 2
1.13682 0.033428 1.18635 7.10441e-39 2
1.15622 0.033428 1.18635 6.36684e-39 2
1.12451 0.0319746 1.13477 6.55195e-39 2
0.917113 0.025654 0.910456 6.27536e-39 2
0.937454 0.0258041 0.91578 7.1966e-39 2
0.952431 0.0258041 0.91578 6.55159e-39 2
0.973099 0.0259558 0.921167 5.90586e-39 2
0.982386 0.0258041 0.91578 6.45939e-39 2
1.27275 0.0329291 1.16864 7.38062e-39 2
1.27287 0.0324448 1.15146 7.8416e-39 2
1.21994 0.0306423 1.08749 6.36755e-39 2
1.22077 0.0302226 1.07259 6.1828e-39 2
1.17398 0.0286526 1.01687 5.44489e-39 2
1.17535 0.0282852 1.00384 5.07575e-39 2
1.20725 0.0286526 1.01687 5.2587e-39 2
1.42786 0.033428 1.18635 6.64199e-39 2
1.49249 0.0344726 1.22343 8.3937e-39 2
1.59999 0.0364669 1.2942 6.91857e-39 2
-2.15013 0.105661 2.3727 6.91966e-39 2
-1.99068 0.0996232 2.23712 7.10441e-39 2
-1.48681 0.0758003 1.70216 6.45904e-39 2
-1.42793 0.0741875 1.66594 6.82747e-39 2
-1.24212 0.0657889 1.47734 7.10333e-39 2
-1.09409 0.0590985 1.32711 6.91894e-39 2
-1.09088 0.0601174 1.34999 6.27357e-39 2
0.276263 0.0553462 1.24284 6.36541e-39 2
0.283108 0.0528305 1.18635 7.56431e-39 2
0.269807 0.0471191 1.0581 7.37992e-39 2
0.431381 0.0477645 1.07259 7.75013e-39 2
1.50269 0.0917582 2.06051 5.81368e-39 2
1.0615 0.0633966 1.42362 6.36685e-39 2
0.903989 0.0528305 1.18635 6.45905e-39 2
0.812584 0.0464908 1.04399 6.27466e-39 2
0.78765 0.0441369 0.991129 6.08883e-39 2
1.11985 0.052042 1.16864 5.81367e-39 2
1.09015 0.0498116 1.11856 5.44489e-39 2
1.02094 0.0458791 1.03025 5.16867e-39 2
0.998376 0.0441369 0.991129 7.65794e-39 2
0.937454 0.0407814 0.91578 6.45904e-39 2
0.952431 0.0407814 0.91578 6.6427e-39 2
0.973099 0.0410213 0.921167 6.64306e-39 2
0.959931 0.0398493 0.894848 6.7349e-39 2
1.13699 0.0464908 1.04399 8.67101e-39 2
1.15407 0.0464908 1.04399 8.02527e-39 2
1.14072 0.0452833 1.01687 6.91964e-39 2
1.14252 0.0447027 1.00384 6.18172e-39 2
1.12996 0.0435851 0.97874 5.25977e-39 2
1.14597 0.0435851 0.97874 7.19732e-39 2
1.16197 0.0435851 0.97874 6.18137e-39 2
1.22388 0.0452833 1.01687 6.08918e-39 2
1.49249 0.0544814 1.22343 5.99734e-39 2
-2.15013 0.144466 2.3727 6.0899e-39 2
-2.04923 0.140217 2.30292 5.99771e-39 2
-1.84847 0.128848 2.11619 6.55088e-39 2
-1.26628 0.0899505 1.47734 6.08991e-39 2
-0.927213 0.0671462 1.10281 5.99771e-39 2
-1.02463 0.0756726 1.24284 6.64308e-39 2
-1.09088 0.0821961 1.34999 5.16687e-39 2
0.824637 0.264854 4.34996 7.19553e-39 2
0.310077 0.0916803 1.50575 6.45796e-39 2
0.267763 0.0733443 1.2046 6.36577e-39 2
0.252502 0.064424 1.0581 6.18066e-39 2
0.262707 0.0627286 1.03025 6.64199e-39 2
0.265579 0.0595922 0.97874 6.82782e-39 2
0.431381 0.0653065 1.07259 6.27428e-39 2
0.448923 0.0653065 1.07259 7.10404e-39 2
0.374197 0.0523888 0.860431 6.8271e-39 2
0.388269 0.0523888 0.860431 6.7349e-39 2
0.79551 0.063565 1.04399 6.45869e-39 2
0.771441 0.0603465 0.991129 6.08955e-39 2
0.768202 0.0588565 0.966657 6.54981e-39 2
1.10338 0.0701085 1.15146 6.73455e-39 2
1.04535 0.0653065 1.07259 6.5498e-39 2
0.982167 0.0603465 0.991129 5.81332e-39 2
0.973725 0.0588565 0.966657 5.1683e-39 2
0.989534 0.0588565 0.966657 5.72075e-39 2
0.958034 0.0560868 0.921167 4.61513e-39 2
0.978857 0.0564187 0.926618 4.79952e-39 2
0.959931 0.0544843 0.894848 5.90586e-39 2
0.985833 0.0551142 0.905193 5.72219e-39 2
1.00064 0.0551142 0.905193 6.73598e-39 2
1.02732 0.0557588 0.91578 4.61548e-39 2
1.11395 0.0595922 0.97874 6.73562e-39 2
1.12996 0.0595922 0.97874 6.27465e-39 2
1.13182 0.0588565 0.966657 6.82854e-39 2
1.14763 0.0588565 0.966657 7.10333e-39 2
1.22388 0.061914 1.01687 6.36612e-39 2
-2.08689 0.177881 2.30292 6.73419e-39 2
-2.04923 0.177881 2.30292 6.45761e-39 2
-0.844002 0.0775377 1.00384 7.10406e-39 2
-0.827584 0.0775377 1.00384 6.36649e-39 2
0.674703 0.274906 3.55906 6.36577e-39 2
0.310077 0.116307 1.50575 6.55016e-39 2
0.267763 0.0930453 1.2046 6.45797e-39 2
0.252502 0.081729 1.0581 7.56359e-39 2
0.249572 0.0755993 0.97874 5.81188e-39 2
0.223645 0.0636625 0.824202 6.45796e-39 2
0.349898 0.0671994 0.869991 6.7349e-39 2
0.364126 0.0671994 0.869991 6.55051e-39 2
0.374197 0.0664609 0.860431 6.36612e-39 2
0.388269 0.0664609 0.860431 6.18137e-39 2
0.727601 0.0737554 0.954868 5.35199e-39 2
0.743217 0.0737554 0.954868 6.27395e-39 2
0.758834 0.0737554 0.954868 6.27287e-39 2
1.12754 0.0975474 1.26289 6.18138e-39 2
1.1482 0.0975474 1.26289 6.45869e-39 2
1.10074 0.0902678 1.16864 7.10405e-39 2
1.07186 0.0863992 1.11856 6.45869e-39 2
1.04535 0.0828485 1.07259 7.47284e-39 2
0.994758 0.0775377 1.00384 6.91894e-39 2
0.973725 0.0746659 0.966657 7.84053e-39 2
0.989534 0.0746659 0.966657 7.56394e-39 2
1.00534 0.0746659 0.966657 6.73418e-39 2
1.02115 0.0746659 0.966657 6.18245e-39 2
1.04992 0.0755993 0.97874 6.73634e-39 2
1.06593 0.0755993 0.97874 6.09097e-39 2
1.01234 0.0707362 0.91578 5.72183e-39 2
1.02732 0.0707362 0.91578 7.28951e-39 2
-0.527234 0.10621 1.13477 6.91859e-39 2
-0.449982 0.0939552 1.00384 6.64308e-39 2
-0.397859 0.0862177 0.921167 5.90551e-39 2
-0.357554 0.0805331 0.860431 5.35234e-39 2
-0.343482 0.0805331 0.860431 5.62893e-39 2
-0.312253 0.0763386 0.815617 6.09062e-39 2
0.824637 0.407139 4.34996 5.72112e-39 2
0.474236 0.215544 2.30292 6.27322e-39 2
0.283108 0.111038 1.18635 6.91822e-39 2
0.262707 0.0964277 1.03025 6.45725e-39 2
0.341368 0.0763386 0.815617 5.72039e-39 2
0.354708 0.0763386 0.815617 4.89099e-39 2
1.15234 0.114508 1.22343 6.2743e-39 2
1.02115 0.0904754 0.966657 7.01114e-39 2
1.03696 0.0904754 0.966657 6.09026e-39 2
1.05277 0.0904754 0.966657 5.72219e-39 2
1.00645 0.0852152 0.910456 6.09025e-39 2
-0.527234 0.124769 1.13477 5.07468e-39 2
-0.449982 0.110373 1.00384 5.90516e-39 2
-0.397859 0.101283 0.921167 5.07576e-39 2
-0.353668 0.0935769 0.851078 4.79917e-39 2
-0.325593 0.0896778 0.815617 4.43039e-39 2
-0.305881 0.0878477 0.798972 5.35126e-39 2
-0.292814 0.0878477 0.798972 2.12549e-39 2
-0.2701 0.0848184 0.771421 5.07647e-39 2
0.207976 0.0896778 0.815617 7.65614e-39 2
-1.91469 0.520507 4.12101 5.62678e-39 2
-0.396798 0.120605 0.954868 4.6137e-39 2
-0.336096 0.10634 0.841927 5.07288e-39 2
-0.309034 0.101955 0.807208 5.34875e-39 2
-0.281331 0.0969572 0.767639 3.50663e-39 2
-0.267465 0.0964843 0.763895 4.52329e-39 2
-0.251294 0.0950927 0.752877 5.35341e-39 2
-0.234472 0.0932985 0.738672 5.53815e-39 2
-0.212374 0.0890958 0.705398 5.62963e-39 2
-0.200837 0.0890958 0.705398 7.47282e-39 2
-0.196377 0.0924265 0.731768 6.08881e-39 2
-0.177764 0.0890958 0.705398 6.8271e-39 2
-0.164743 0.0883003 0.6991 4.43109e-39 2
-0.15331 0.0883003 0.6991 4.89243e-39 2
-0.14062 0.0875189 0.692913 5.72147e-39 2
-0.130442 0.0883003 0.6991 5.25942e-39 2
-2.59851 0.797872 5.5928 4.70482e-39 2
-0.381182 0.136222 0.954868 4.2442e-39 2
-0.322326 0.12011 0.841927 4.70339e-39 2
-0.2786 0.108449 0.760186 7.19481e-39 2
-0.251515 0.102479 0.718341 5.99878e-39 2
-0.233345 0.099734 0.6991 5.07682e-39 2
-0.218018 0.0979842 0.686835 6.55159e-39 2
-0.206785 0.0979842 0.686835 6.92037e-39 2
-0.190538 0.0954718 0.669224 5.62891e-39 2
-0.18595 0.0988514 0.692913 5.99734e-39 2
-0.174618 0.0988514 0.692913 4.52328e-39 2
-0.163285 0.0988514 0.692913 4.524e-39 2
-0.146758 0.0954718 0.669224 7.01293e-39 2
-0.117704 0.0827422 0.579994 6.18138e-39 2
-0.106251 0.0812378 0.569449 5.3509e-39 2
-2.68998 0.889341 5.5928 6.45654e-39 2
-1.91469 0.655304 4.12101 6.27287e-39 2
-1.75493 0.622538 3.91496 5.25836e-39 2
-0.308556 0.133879 0.841927 5.81259e-39 2
-0.261097 0.118579 0.745707 7.1966e-39 2
-0.235447 0.112169 0.705398 6.73563e-39 2
-0.218018 0.109217 0.686835 6.27536e-39 2
-0.20322 0.107334 0.674993 4.89206e-39 2
-0.190538 0.106417 0.669224 5.53743e-39 2
-0.179593 0.106417 0.669224 6.18173e-39 2
-0.174618 0.110184 0.692913 5.07645e-39 2
-0.157703 0.106417 0.669224 6.27535e-39 2
-0.126721 0.0918876 0.577854 5.44524e-39 2
-0.115986 0.0908815 0.571527 6.27357e-39 2
-0.105484 0.0898972 0.565337 5.71968e-39 2
-0.0962381 0.0898972 0.565337 5.25942e-39 2
-0.0873073 0.090223 0.567386 6.08918e-39 2
-0.0780278 0.090223 0.567386 5.16795e-39 2
-2.42528 0.915422 5.21995 6.08956e-39 2
-1.75493 0.686567 3.91496 4.79882e-39 2
-1.87878 0.762852 4.34996 6.27143e-39 2
-0.221911 0.122601 0.6991 5.35269e-39 2
-0.201483 0.117362 0.669224 5.72219e-39 2
-0.188923 0.116367 0.663553 5.26085e-39 2
-0.176574 0.115389 0.657977 4.89171e-39 2
-0.125333 0.100229 0.571527 6.36684e-39 2
-0.115564 0.0998642 0.569449 3.59918e-39 2
-0.105484 0.0991432 0.565337 4.79809e-39 2
-0.0962381 0.0991432 0.565337 5.81259e-39 2
-0.0873073 0.0995024 0.567386 4.52293e-39 2
-0.0780278 0.0995024 0.567386 4.98356e-39 2
-1.08873 0.34118 1.77953 8.85328e-39 2
-2.33991 1.00079 5.21995 6.36506e-39 2
-2.25453 1.00079 5.21995 5.44311e-39 2
-0.499605 0.250198 1.30499 6.64308e-39 2
-0.494754 0.258826 1.34999 6.91929e-39 2
-0.125792 0.109977 0.573621 5.44381e-39 2
-0.116411 0.109977 0.573621 5.99627e-39 2
-0.106639 0.109576 0.571527 4.89136e-39 2
-0.0972918 0.109576 0.571527 5.81367e-39 2
-0.0885912 0.110382 0.575729 5.44489e-39 2
-0.0791753 0.110382 0.575729 4.98356e-39 2
-0.902473 0.298944 1.43668 8.39302e-39 2
-1.08873 0.370283 1.77953 8.66889e-39 2
-1.41284 0.493711 2.3727 8.29975e-39 2
-1.37403 0.493711 2.3727 8.11608e-39 2
-1.16205 0.581874 2.7964 5.99736e-39 2
-0.529778 0.276143 1.32711 6.55088e-39 2
-0.499605 0.271541 1.30499 7.56431e-39 2
-0.478263 0.271541 1.30499 6.36505e-39 2
-0.489557 0.290937 1.3982 6.73383e-39 2
-0.512444 0.31946 1.53528 6.82674e-39 2
-0.12719 0.120685 0.579994 5.81259e-39 2
-0.117704 0.120685 0.579994 6.36577e-39 2
-0.108621 0.121134 0.58215 6.18245e-39 2
-0.0895792 0.121134 0.58215 6.36685e-39 2
-0.0800583 0.121134 0.58215 5.72112e-39 2
-1.02468 0.366105 1.63123 8.57741e-39 2
-1.49701 0.549157 2.44685 8.20791e-39 2
-1.41284 0.532516 2.3727 8.20791e-39 2
-1.37403 0.532516 2.3727 7.65545e-39 2
-1.33523 0.532516 2.3727 7.83985e-39 2
-0.538912 0.302983 1.34999 6.09026e-39 2
-0.508073 0.297848 1.32711 5.35126e-39 2
-0.494754 0.302983 1.34999 2.76907e-39 2
-0.507689 0.325426 1.44999 3.78357e-39 2
-0.502589 0.337943 1.50575 6.64271e-39 2
-0.0892475 0.130171 0.579994 5.62892e-39 2
-0.0785974 0.12827 0.571527 6.45869e-39 2
-1.41284 0.571321 2.3727 8.66924e-39 2
-1.33362 0.554518 2.30292 8.39302e-39 2
-1.29596 0.554518 2.30292 7.65653e-39 2
-1.25829 0.554518 2.30292 7.47214e-39 2
-0.558159 0.336671 1.3982 6.82747e-39 2
-0.535291 0.336671 1.3982 6.36685e-39 2
-0.531403 0.349141 1.44999 6.45797e-39 2
-0.527215 0.362569 1.50575 5.8126e-39 2
-0.512444 0.369678 1.53528 6.55195e-39 2
-1.45699 0.629192 2.44685 7.93167e-39 2
-1.33362 0.592181 2.30292 7.748e-39 2
-1.22396 0.559282 2.17498 8.20862e-39 2
-0.683232 0.479385 1.86427 5.90514e-39 2
-0.559494 0.410901 1.59794 5.62963e-39 2
-0.622253 0.479385 1.86427 6.6445e-39 2
-1.36646 1.01975 3.72853 6.27357e-39 2
-0.945351 0.738439 2.69997 5.99806e-39 2
-1.79348 1.41846 4.8937 4.7059e-39 2
-1.71345 1.41846 4.8937 3.41588e-39 2
-0.623029 0.295998 0.966657 7.47141e-39 2
0.00972702 0.114443 0.373743 6.27395e-39 2
-0.015578 0.127558 0.395451 6.1821e-39 2
-0.00246849 0.119134 0.369336 6.82712e-39 2
0.00357191 0.119134 0.369336 5.99772e-39 2
0.00963504 0.119416 0.370209 7.28846e-39 2
-0.753226 0.315916 0.932133 7.65615e-39 2
-0.737982 0.315916 0.932133 8.57774e-39 2
-0.0139884 0.120349 0.355098 6.27322e-39 2
-0.00825577 0.121451 0.358349 6.45761e-39 2
-0.00243972 0.123716 0.365031 5.53673e-39 2
0.00356351 0.12488 0.368467 5.62929e-39 2
0.0095897 0.12488 0.368467 6.45906e-39 2
0.0540627 0.130403 0.384763 5.44346e-39 2
-0.0197066 0.125587 0.353495 6.45834e-39 2
-0.0139253 0.125587 0.353495 6.18103e-39 2
-0.00812561 0.125304 0.352699 6.64236e-39 2
-0.00238959 0.127021 0.357531 6.1821e-39 2
0.00353028 0.129686 0.365031 6.82783e-39 2
0.00954478 0.130293 0.366741 4.98392e-39 2
0.0350984 0.136361 0.38382 5.35055e-39 2
0.0467365 0.133738 0.376438 5.1676e-39 2
0.0530206 0.13406 0.377346 5.53565e-39 2
0.059192 0.13406 0.377346 4.70554e-39 2
0.0653634 0.13406 0.377346 5.6275e-39 2
0.0718812 0.13471 0.379173 5.07433e-39 2
-0.77773 0.35058 0.943364 4.24599e-39 2
-0.165165 0.147706 0.397458 5.99628e-39 2
-0.158263 0.147332 0.396452 4.70554e-39 2
-0.0194867 0.129902 0.34955 5.35234e-39 2
-0.0137699 0.129902 0.34955 6.91859e-39 2
-0.00808917 0.130485 0.351118 5.7204e-39 2
-0.00237333 0.131964 0.355098 6.0899e-39 2
0.00350577 0.134714 0.362496 6.92003e-39 2
0.00954478 0.136291 0.366741 4.98356e-39 2
0.0155064 0.135972 0.365884 6.7342e-39 2
0.0215407 0.136291 0.366741 7.00899e-39 2
0.0276683 0.136932 0.368467 7.65364e-39 2
0.0337739 0.137255 0.369336 7.74764e-39 2
0.0404827 0.139559 0.375536 4.52295e-39 2
0.0466245 0.139559 0.375536 5.81297e-39 2
0.0530206 0.140232 0.377346 6.36542e-39 2
0.0593349 0.140571 0.378257 6.36614e-39 2
0.0658393 0.141253 0.380093 4.43004e-39 2
0.072231 0.141597 0.381018 5.99592e-39 2
0.210292 0.123822 0.333188 5.44418e-39 2
0.214373 0.123036 0.331075 3.87686e-39 2
-0.77773 0.366008 0.943364 4.89136e-39 2
-0.16994 0.152657 0.393463 3.69211e-39 2
-0.143971 0.134419 0.346457 6.27359e-39 2
-0.138305 0.134419 0.346457 7.01151e-39 2
-0.133525 0.135317 0.348772 6.45797e-39 2
-0.128393 0.135923 0.350332 6.08846e-39 2
-0.122663 0.135923 0.350332 4.70589e-39 2
-0.117459 0.136533 0.351907 5.25907e-39 2
-0.111704 0.136533 0.351907 4.24492e-39 2
-0.106187 0.136841 0.352699 5.90443e-39 2
-0.100873 0.13746 0.354295 2.40208e-39 2
-0.0876969 0.135016 0.347996 4.61442e-39 2
-0.0540287 0.136227 0.351118 4.24564e-39 2
-0.0482863 0.136227 0.351118 5.44311e-39 2
-0.0295989 0.129823 0.334612 7.01186e-39 2
-0.0244397 0.131509 0.338958 8.67138e-39 2
-0.0191869 0.133533 0.344172 6.45905e-39 2
-0.0136179 0.134122 0.345692 6.18246e-39 2
-0.00805306 0.135619 0.34955 6.55089e-39 2
-0.0023573 0.136841 0.352699 5.62785e-39 2
0.00346565 0.139033 0.358349 6.09027e-39 2
0.00943431 0.140642 0.362496 6.82639e-39 2
0.0153629 0.140642 0.362496 5.53529e-39 2
0.0214403 0.141626 0.365031 7.56252e-39 2
0.0276033 0.142623 0.367602 2.49248e-39 2
0.0336945 0.142958 0.368467 7.28809e-39 2
0.040098 0.144317 0.371968 4.89101e-39 2
0.0461815 0.144317 0.371968 4.98213e-39 2
0.0523894 0.14466 0.372853 4.79702e-39 2
0.0589081 0.145701 0.375536 5.35091e-39 2
0.0653634 0.146403 0.377346 6.54981e-39 2
0.072231 0.147828 0.381018 6.45725e-39 2
0.0786538 0.148189 0.381947 7.5618e-39 2
0.199819 0.129547 0.333899 5.26051e-39 2
0.203115 0.12818 0.330376 4.33856e-39 2
0.208959 0.128451 0.331075 5.99808e-39 2
0.213471 0.12791 0.329681 5.26051e-39 2
-0.148978 0.139468 0.34493 5.07432e-39 2
-0.143337 0.139468 0.34493 6.91824e-39 2
-0.137393 0.139162 0.344172 5.99663e-39 2
-0.132639 0.140085 0.346457 7.01114e-39 2
-0.127537 0.140708 0.347996 2.401e-39 2
-0.121845 0.140708 0.347996 4.5215e-39 2
-0.116672 0.141336 0.34955 5.62785e-39 2
-0.111704 0.142289 0.351907 5.44453e-39 2
-0.104771 0.140708 0.347996 3.78502e-39 2
-0.099522 0.141336 0.34955 2.30953e-39 2
-0.0915571 0.137949 0.341173 3.13821e-39 2
-0.0859773 0.137949 0.341173 4.06053e-39 2
-0.0807494 0.138553 0.342666 2.03187e-39 2
-0.0753099 0.138856 0.343418 2.76943e-39 2
-0.0698466 0.139162 0.344172 4.88993e-39 2
-0.064644 0.140085 0.346457 2.21734e-39 2
-0.0589778 0.140085 0.346457 5.72113e-39 2
-0.0531938 0.139776 0.345692 4.98393e-39 2
-0.0401153 0.133866 0.331075 4.79917e-39 2
-0.0345546 0.133302 0.329681 6.36649e-39 2
-0.0292242 0.133583 0.330376 6.82747e-39 2
-0.0238714 0.133866 0.331075 6.1821e-39 2
-0.0186141 0.135007 0.333899 6.55089e-39 2
-0.00807107 0.141652 0.350332 4.52151e-39 2
-0.00232587 0.140708 0.347996 5.258e-39 2
0.00343422 0.143579 0.355098 4.33748e-39 2
0.00926278 0.143906 0.355906 6.27287e-39 2
0.0150835 0.143906 0.355906 6.8246e-39 2
0.0210961 0.145226 0.359171 6.3647e-39 2
0.0273465 0.147252 0.364182 5.44311e-39 2
0.0333027 0.147252 0.364182 6.82604e-39 2
0.0396274 0.148635 0.367602 5.25871e-39 2
0.0458547 0.149336 0.369336 5.0754e-39 2
0.0520178 0.149689 0.370209 7.19482e-39 2
0.0589081 0.151843 0.375536 5.44346e-39 2
0.0650499 0.151843 0.375536 2.67867e-39 2
0.0718812 0.153314 0.379173 4.89028e-39 2
0.0780825 0.153314 0.379173 5.07324e-39 2
0.167301 0.139776 0.345692 6.27357e-39 2
0.191345 0.136757 0.338226 7.56504e-39 2
0.196877 0.136757 0.338226 5.35199e-39 2
0.199819 0.135007 0.333899 4.24636e-39 2
0.202687 0.133302 0.329681 4.61442e-39 2
0.208518 0.133583 0.330376 3.50808e-39 2
-0.157145 0.142289 0.338226 5.3527e-39 2
-0.151614 0.142289 0.338226 6.91967e-39 2
-0.146398 0.142597 0.338958 5.16687e-39 2
-0.141467 0.143217 0.340431 8.30008e-39 2
-0.136196 0.143529 0.341173 5.99627e-39 2
-0.130332 0.143217 0.340431 6.18138e-39 2
-0.125036 0.143529 0.341173 6.45761e-39 2
-0.119717 0.143842 0.341918 2.95418e-39 2
-0.116154 0.146399 0.347996 5.81224e-39 2
-0.0911599 0.142906 0.339693 3.59848e-39 2
-0.0856043 0.142906 0.339693 2.76979e-39 2
-0.0800487 0.142906 0.339693 7.47284e-39 2
-0.0746551 0.143217 0.340431 4.79881e-39 2
-0.0692379 0.143529 0.341173 1.84856e-39 2
-0.0639367 0.144157 0.342666 4.98357e-39 2
-0.0582051 0.143842 0.341918 3.78538e-39 2
-0.0521576 0.142597 0.338958 5.72148e-39 2
-0.0454339 0.138987 0.330376 5.2605e-39 2
-0.0400307 0.138987 0.330376 7.381e-39 2
-0.034482 0.138403 0.328988 7.56503e-39 2
-0.0291015 0.138403 0.328988 6.73527e-39 2
-0.0236712 0.138112 0.328299 6.91931e-39 2
-0.018379 0.138694 0.329681 6.36542e-39 2
-0.00233625 0.147053 0.34955 4.88922e-39 2
0.00338812 0.147382 0.350332 5.53496e-39 2
0.0150835 0.149726 0.355906 7.00864e-39 2
0.0209043 0.149726 0.355906 5.62714e-39 2
0.0268471 0.15041 0.357531 6.36435e-39 2
0.0327692 0.150754 0.358349 6.17996e-39 2
0.0387185 0.1511 0.359171 5.25872e-39 2
0.0523894 0.156856 0.372853 3.59954e-39 2
0.0587671 0.157607 0.374637 5.35234e-39 2
0.0648942 0.157607 0.374637 3.60099e-39 2
0.0715348 0.158746 0.377346 4.6137e-39 2
0.0771485 0.157607 0.374637 5.99663e-39 2
0.160584 0.144473 0.343418 7.84197e-39 2
0.1662 0.144473 0.343418 5.99771e-39 2
0.176658 0.143842 0.341918 6.7342e-39 2
0.181853 0.143529 0.341173 5.62785e-39 2
0.185413 0.141982 0.337497 5.44346e-39 2
0.188496 0.140169 0.333188 6.36506e-39 2
0.193533 0.139872 0.332481 4.15237e-39 2
0.198549 0.139575 0.331776 4.61334e-39 2
0.202261 0.138403 0.328988 4.88993e-39 2
0.207642 0.138403 0.328988 5.35091e-39 2
-0.16163 0.146869 0.336048 6.91966e-39 2
-0.156134 0.146869 0.336048 7.56503e-39 2
-0.150638 0.146869 0.336048 6.6438e-39 2
-0.145454 0.147184 0.336771 5.71968e-39 2
-0.14116 0.148462 0.339693 9.95852e-39 2
-0.135899 0.148784 0.340431 6.82495e-39 2
-0.130332 0.148784 0.340431 6.08918e-39 2
-0.0986413 0.151418 0.346457 1.47977e-39 2
-0.0909626 0.14814 0.338958 7.74835e-39 2
-0.0852345 0.14782 0.338226 1.84855e-39 2
-0.0788514 0.146241 0.334612 3.41623e-39 2
-0.0733789 0.146241 0.334612 3.87721e-39 2
-0.0677616 0.145929 0.333899 5.25979e-39 2
-0.0621682 0.145619 0.333188 4.61514e-39 2
-0.0563593 0.144695 0.331075 5.53782e-39 2
-0.0508372 0.14439 0.330376 8.39588e-39 2
-0.0453383 0.144086 0.329681 7.38065e-39 2
-0.0399464 0.144086 0.329681 5.44453e-39 2
-0.0343377 0.143181 0.327612 7.01186e-39 2
-0.0289797 0.143181 0.327612 5.90552e-39 2
-0.0236217 0.143181 0.327612 4.79881e-39 2
-0.018302 0.143482 0.328299 5.81296e-39 2
-0.0129599 0.143783 0.328988 5.72112e-39 2
-0.00224601 0.146869 0.336048 4.9832e-39 2
0.00328523 0.148462 0.339693 2.4925e-39 2
0.156466 0.146241 0.334612 5.16723e-39 2
0.165114 0.149108 0.341173 3.87721e-39 2
0.170694 0.149108 0.341173 2.9549e-39 2
0.175129 0.14814 0.338958 5.81261e-39 2
0.179894 0.147502 0.337497 7.74764e-39 2
0.186905 0.14439 0.330376 5.71934e-39 2
0.192308 0.14439 0.330376 5.44383e-39 2
0.197295 0.144086 0.329681 6.45834e-39 2
-0.177968 0.157084 0.346457 5.44311e-39 2
-0.165001 0.150428 0.331776 7.01079e-39 2
-0.160596 0.15139 0.333899 9.03909e-39 2
-0.155135 0.15139 0.333899 6.91787e-39 2
-0.149674 0.15139 0.333899 6.36614e-39 2
-0.144213 0.15139 0.333899 6.17923e-39 2
-0.139049 0.151713 0.334612 5.16471e-39 2
-0.134728 0.153021 0.337497 6.27286e-39 2
-0.129487 0.153352 0.338226 7.19553e-39 2
-0.0778533 0.149793 0.330376 5.35199e-39 2
-0.0726032 0.15011 0.331075 3.78538e-39 2
-0.0674739 0.150747 0.332481 3.60027e-39 2
-0.0616436 0.149793 0.330376 4.24564e-39 2
-0.0562404 0.149793 0.330376 5.44418e-39 2
-0.0506236 0.149164 0.328988 3.87686e-39 2
-0.045243 0.149164 0.328988 4.15345e-39 2
-0.0398625 0.149164 0.328988 2.58684e-39 2
-0.0341946 0.147921 0.326247 6.55053e-39 2
-0.0288589 0.147921 0.326247 4.33783e-39 2
-0.0235233 0.147921 0.326247 4.246e-39 2
-0.0182255 0.148229 0.326928 5.07505e-39 2
-0.0128787 0.148229 0.326928 4.33819e-39 2
-0.00756346 0.148851 0.328299 4.70769e-39 2
-0.0022081 0.149793 0.330376 6.09027e-39 2
0.00319513 0.149793 0.330376 2.77016e-39 2
0.00861653 0.15011 0.331075 5.3502e-39 2
0.149714 0.150428 0.331776 4.15237e-39 2
0.15547 0.150747 0.332481 3.50843e-39 2
0.162634 0.152365 0.336048 4.89101e-39 2
0.168491 0.152692 0.336771 3.9687e-39 2
0.172515 0.15139 0.333899 5.25944e-39 2
0.17722 0.150747 0.332481 5.6257e-39 2
0.181502 0.149793 0.330376 4.05838e-39 2
0.185341 0.148539 0.327612 3.32154e-39 2
0.189904 0.147921 0.326247 4.05947e-39 2
-0.156469 0.1582 0.336771 6.45761e-39 2
-0.150315 0.157523 0.335329 4.98248e-39 2
-0.144831 0.157523 0.335329 6.73348e-39 2
-0.138457 0.156517 0.333188 5.07288e-39 2
-0.13415 0.157861 0.336048 4.42931e-39 2
-0.128654 0.157861 0.336048 6.27322e-39 2
-0.0768801 0.153256 0.326247 2.77051e-39 2
-0.0557698 0.153898 0.327612 4.43075e-39 2
-0.0502017 0.153256 0.326247 4.61514e-39 2
-0.00218962 0.153898 0.327612 2.95527e-39 2
0.00316839 0.153898 0.327612 3.23185e-39 2
0.00854428 0.15422 0.328299 5.53351e-39 2
0.15547 0.156185 0.332481 4.24492e-39 2
0.160907 0.156185 0.332481 2.30881e-39 2
0.166345 0.156185 0.332481 6.91824e-39 2
0.170695 0.155196 0.330376 1.3865e-39 2
0.176098 0.155196 0.330376 2.95311e-39 2
0.179983 0.153898 0.327612 5.71898e-39 2
-0.138752 0.162312 0.333899 6.73348e-39 2
-0.133862 0.163007 0.335329 5.71969e-39 2
0.148768 0.160261 0.329681 2.86163e-39 2
0.15547 0.161622 0.332481 6.45726e-39 2
0.160907 0.161622 0.332481 5.62785e-39 2
0.165641 0.160939 0.331075 5.35127e-39 2
0.168913 0.158923 0.326928 9.03874e-39 2
0.173897 0.158592 0.326247 4.24529e-39 2
2.71197 1.7883 3.55906 6.82425e-39 2
0.393689 0.436809 0.841927 5.07505e-39 2
0.434997 0.436809 0.841927 7.2881e-39 2
0.439726 0.455476 0.851078 5.90481e-39 2
-1.95823 3.81635 5.5928 8.29975e-39 2
-1.79348 3.41934 4.8937 8.48379e-39 2
-1.82768 3.64729 5.21995 7.83842e-39 2
-1.71345 3.49937 4.8937 8.29832e-39 2
-1.9359 4.14741 5.79994 8.39087e-39 2
-1.82768 3.81804 5.21995 9.58906e-39 2
-1.80239 3.94969 5.39995 1.03266e-38 2
-0.0303887 0.564242 0.771421 1.38293e-38 2
-0.0174288 0.553339 0.756514 1.39215e-38 2
-0.00500785 0.548044 0.749275 1.39215e-38 2
-1.53733 3.44418 4.60584 1.1617e-38 2
-1.27457 3.00262 4.01534 1.23546e-38 2
-0.108221 0.914861 1.22343 1.26322e-38 2
-0.071463 0.741153 0.991129 1.29996e-38 2
-0.0501726 0.673001 0.899991 1.34606e-38 2
-0.0300922 0.57123 0.763895 1.38293e-38 2
-0.0174288 0.565711 0.756514 1.41059e-38 2
-0.00503192 0.562991 0.752877 1.41981e-38 2
0.00738776 0.57123 0.763895 1.42907e-38 2
-1.8907 4.12632 5.39995 1.17092e-38 2
-1.34024 3.06829 4.01534 1.17092e-38 2
-0.130265 0.949709 1.24284 1.25401e-38 2
-0.0887967 0.767073 1.00384 1.25401e-38 2
-0.0656463 0.695717 0.910456 1.30918e-38 2
-0.0469357 0.643351 0.841927 1.34602e-38 2
-0.0300922 0.583724 0.763895 1.35524e-38 2
-0.0174288 0.578084 0.756514 1.37368e-38 2
-0.00505623 0.578084 0.756514 1.41056e-38 2
0.00738776 0.583724 0.763895 1.44751e-38 2
0.0201763 0.592393 0.77524 1.39219e-38 2
