# .PCD v0.7
VERSION 0.7
FIELDS x y z rgb label
SIZE 4 4 4 4 4
TYPE F F F U U
COUNT 1 1 1 1 1
WIDTH 1255
HEIGHT 1
VIEWPOINT 0 0 0 1 0 0 0
POINTS 1255
DATA ascii
0.138561 0.200392 0.548465 9078405 3
0.189188 0.217157 0.594350 8026748 3
0.184093 0.200944 0.549974 8684935 3
0.100265 0.204752 0.536296 9276811 3
0.108561 0.203794 0.533788 10395035 3
0.117074 0.203359 0.532648 8882053 3
0.126412 0.204317 0.535156 8553088 3
0.136129 0.205723 0.538839 9538956 3
0.156425 0.221968 0.581388 9144198 3
0.180351 0.216317 0.566588 9538704 3
0.182809 0.208509 0.546138 9737364 3
0.190030 0.206611 0.541166 9474194 3
0.196545 0.204150 0.534719 9474705 3
0.108329 0.212104 0.532648 8815749 3
0.117074 0.212104 0.532648 7895160 3
0.125820 0.212104 0.532648 8487297 3
0.135199 0.213103 0.535156 9013128 3
0.144977 0.214570 0.538839 8816003 3
0.155636 0.217098 0.545187 9671058 3
0.166100 0.219093 0.550198 8880774 3
0.173842 0.217476 0.546138 9999255 3
0.180293 0.214484 0.538624 9539472 3
0.187439 0.212558 0.533788 9868952 3
0.194875 0.211119 0.530173 9211533 3
0.107100 0.218346 0.526608 8618883 3
0.115503 0.217886 0.525498 8750982 3
0.125292 0.219924 0.530413 8750982 3
0.135199 0.221890 0.535156 9342093 3
0.144977 0.223417 0.538839 8947335 3
0.155636 0.226049 0.545187 7960440 3
0.164511 0.225944 0.544933 7894647 3
0.173080 0.225451 0.543745 8551809 3
0.180293 0.223328 0.538624 7960440 3
0.187439 0.221323 0.533788 8289407 3
0.194875 0.219824 0.530173 8619142 3
-0.296532 0.208731 0.571288 4539204 3
-0.220141 0.216633 0.592913 5066063 3
-0.208379 0.214545 0.587200 5855066 3
-0.276826 0.210268 0.550744 3157551 3
-0.243147 0.204752 0.536296 5657689 3
-0.231185 0.227656 0.596289 5395028 3
-0.221184 0.227440 0.595722 5921372 3
-0.208917 0.224765 0.588716 5263440 3
-0.200336 0.225990 0.591923 6645093 3
-0.298713 0.229165 0.575491 4276032 3
-0.275375 0.218161 0.547858 4407618 3
-0.248982 0.203913 0.512076 5460819 3
-0.243378 0.206289 0.518043 5855579 3
-0.242742 0.213201 0.535402 6447205 3
-0.235437 0.214555 0.538801 5328722 3
-0.218800 0.215596 0.541417 5658198 3
-0.214954 0.220776 0.554425 5658200 3
-0.207654 0.222710 0.559280 7039851 3
-0.299482 0.231893 0.559280 3815994 3
-0.287488 0.229647 0.553864 3486770 3
-0.295264 0.237680 0.551403 6185055 3
-0.282139 0.234299 0.543560 5395024 3
0.061713 0.205359 0.588504 8158334 3
0.070152 0.201838 0.578415 8224125 3
0.062655 0.218304 0.597487 8816262 3
0.070487 0.212346 0.581181 8487297 3
0.078489 0.208258 0.569993 8816775 3
0.084941 0.201367 0.551132 9014154 3
0.071010 0.223534 0.585492 9014154 3
0.076611 0.212410 0.556354 9342608 3
0.083985 0.208049 0.544933 9079434 3
0.091857 0.205640 0.538624 8618881 3
0.071372 0.234337 0.588479 8816262 3
0.076251 0.220504 0.553740 8289920 3
0.083405 0.215497 0.541166 7829367 3
0.091229 0.213019 0.534944 7697779 3
0.099583 0.212104 0.532648 9539983 3
0.083013 0.223328 0.538624 9342606 3
0.091032 0.221323 0.533788 8092537 3
0.099121 0.219824 0.530173 9277324 3
0.091429 0.231090 0.536115 9408397 3
-0.053211 0.201466 0.577348 8026746 3
-0.044854 0.206638 0.592170 8882055 3
-0.078242 0.202142 0.553253 8354684 3
-0.070964 0.207420 0.567700 7302764 3
-0.062058 0.208819 0.571527 8223866 3
-0.053211 0.210946 0.577348 6513505 3
-0.044618 0.215223 0.589057 8289916 3
-0.083450 0.201851 0.528698 7762032 3
-0.159789 0.217505 0.623311 6119008 3
-0.147090 0.213921 0.613040 5855836 3
-0.173766 0.219538 0.600865 6447714 3
-0.193268 0.229132 0.600155 8684678 3
-0.183542 0.229292 0.600572 5000270 3
-0.198551 0.204712 0.586649 4934216 3
-0.189584 0.205433 0.588716 3881787 3
-0.162456 0.207826 0.595573 5395024 3
-0.198551 0.214344 0.586649 5921111 3
-0.189584 0.215099 0.588716 6381923 3
-0.181807 0.217357 0.594895 5855579 3
-0.163430 0.218908 0.599141 5658196 3
-0.151640 0.216125 0.591525 5000527 3
-0.134463 0.204758 0.560412 5658457 3
-0.172851 0.228197 0.597704 4999755 3
-0.160528 0.224684 0.588504 5460558 3
-0.145380 0.216515 0.567106 7105644 3
-0.130400 0.207494 0.543478 7631990 3
-0.198471 0.222710 0.559280 5987163 3
-0.195115 0.229566 0.576497 8026744 3
-0.189142 0.233885 0.587343 8618883 3
-0.179918 0.234431 0.588716 5526614 3
-0.169379 0.233228 0.585695 6644582 3
-0.155446 0.226927 0.569872 7829108 3
-0.140958 0.218957 0.549857 8289918 3
-0.129235 0.214484 0.538624 8093052 3
-0.190315 0.222363 0.536296 6974056 3
-0.186857 0.228914 0.552098 7500400 3
-0.185650 0.239031 0.576497 7435122 3
-0.178576 0.242276 0.584322 7369075 3
-0.164803 0.236284 0.569872 8224127 3
-0.149986 0.227985 0.549857 8882053 3
-0.139391 0.225451 0.543745 8092539 3
-0.169926 0.239670 0.556020 7961466 3
-0.159014 0.237013 0.549857 8355713 3
-0.365034 0.230802 0.661417 4473924 3
-0.346508 0.225806 0.647101 4408133 3
-0.392098 0.238310 0.652242 5131852 3
-0.372089 0.232499 0.636338 4868680 3
-0.353032 0.226964 0.621190 3750453 3
-0.334862 0.221687 0.606748 3881785 3
-0.370492 0.235297 0.616301 4079166 3
-0.333361 0.247904 0.622548 3487031 3
0.104562 0.185978 0.559280 9736083 3
0.113745 0.185978 0.559280 7894649 3
0.123536 0.186898 0.562046 7895162 3
0.139394 0.196232 0.590115 8421506 3
0.101658 0.189740 0.543745 7894133 3
0.110061 0.188840 0.541166 8289407 3
0.119256 0.189331 0.542573 7368818 3
0.129685 0.191577 0.549010 7302510 3
0.142594 0.196958 0.564429 7170924 3
0.198915 0.188840 0.541166 8355713 3
0.101176 0.197726 0.541166 9736337 3
0.109306 0.196369 0.537452 10592673 3
0.118435 0.196875 0.538839 9539985 3
0.127555 0.197298 0.539995 9671058 3
0.190447 0.198160 0.542355 10592675 3
0.197550 0.196369 0.537452 9934743 3
0.195562 0.194443 0.509294 8488578 3
-0.055087 0.198756 0.597704 5132367 3
-0.062058 0.199435 0.571527 7631986 3
-0.097825 0.187448 0.513036 7170410 3
-0.091434 0.191709 0.524698 7367789 3
-0.084693 0.196048 0.536574 7565168 3
-0.096948 0.194115 0.508436 7434350 3
-0.089810 0.196767 0.515381 7630959 3
-0.067925 0.208018 0.625557 4934986 3
-0.046254 0.203059 0.610646 6052958 3
-0.039944 0.223893 0.673297 8553090 3
-0.036227 0.213086 0.610646 8224638 3
-0.028889 0.234947 0.673297 7500915 3
-0.035947 0.221385 0.605920 8159611 3
-0.028114 0.239397 0.655218 8948875 3
-0.018095 0.249597 0.683135 9013900 3
-0.038636 0.248641 0.651252 8750980 3
-0.029058 0.258557 0.677226 8685187 3
-0.018254 0.263109 0.689147 7698292 3
-0.202888 0.220760 0.663876 6118747 3
-0.201026 0.231152 0.695129 5329231 3
-0.224008 0.220273 0.631242 6052445 3
-0.264688 0.250058 0.654965 7039851 3
-0.258997 0.245240 0.615860 7500404 3
-0.193216 0.199517 0.599994 5526610 3
-0.126536 0.197547 0.566117 5921883 3
-0.111794 0.188368 0.539812 5723991 3
-0.119543 0.195411 0.534829 6185055 3
-0.106630 0.188121 0.514878 7631988 3
-0.115314 0.196968 0.515909 8289918 3
-0.104659 0.192941 0.505361 6184540 3
-0.489078 0.222024 0.667677 3224116 3
-0.496342 0.230488 0.693131 2763565 3
-0.486964 0.231440 0.695993 3815994 3
-0.475536 0.231440 0.695993 5395026 3
-0.487154 0.226983 0.650471 3816253 3
-0.488535 0.232728 0.666937 3092784 3
-0.489733 0.238648 0.683901 3355445 3
-0.489138 0.243952 0.699100 3618617 3
-0.477659 0.243952 0.699100 3816507 3
-0.456201 0.227550 0.622795 3158577 3
-0.466370 0.237956 0.651276 2631722 3
-0.477659 0.255430 0.699100 3684667 3
-0.416652 0.246501 0.674661 4342340 3
-0.462537 0.241079 0.631445 4672330 3
-0.473609 0.252509 0.661384 4605258 3
-0.480891 0.262409 0.687313 4408392 3
-0.476338 0.266170 0.697167 3026737 3
-0.436522 0.262873 0.688530 4999757 3
-0.406148 0.251084 0.657651 3222830 3
-0.448083 0.243589 0.611713 4079679 3
-0.469193 0.260913 0.655218 4605258 3
0.307187 0.182613 0.577682 8026748 3
0.353204 0.168377 0.532648 5526873 3
0.361950 0.168377 0.532648 6842220 3
0.368973 0.167595 0.530173 7039599 3
0.375138 0.166467 0.526608 6513769 3
0.321837 0.174343 0.524290 5855836 3
0.330168 0.174197 0.523850 6842731 3
0.339623 0.174636 0.525171 6776938 3
0.344919 0.172967 0.520153 4868943 3
0.352362 0.172430 0.518538 3947328 3
0.360875 0.172430 0.518538 5657946 3
0.368400 0.171969 0.517149 5461081 3
0.387379 0.176754 0.531539 4605258 3
0.325809 0.180384 0.516933 7172466 3
0.334992 0.180760 0.518010 7106673 3
0.338179 0.177961 0.509989 7106673 3
0.345497 0.177419 0.508436 7632247 3
0.353774 0.177383 0.508334 4802380 3
0.360949 0.176809 0.506689 3486777 3
0.381349 0.182594 0.523266 4342086 3
0.315334 0.182800 0.500314 7699069 3
0.323549 0.182800 0.500314 6646381 3
0.331764 0.182800 0.500314 7041393 3
0.340727 0.183203 0.501417 6579559 3
0.349309 0.183386 0.501918 7631477 3
0.357550 0.183386 0.501918 6907756 3
0.323549 0.191014 0.500314 7370104 3
0.082327 0.188992 0.597863 7961464 3
0.062172 0.197152 0.592882 8947850 3
0.070507 0.193316 0.581347 9737364 3
0.079463 0.191892 0.577062 9079945 3
0.087848 0.189541 0.569993 9014152 3
0.095812 0.186821 0.561813 8619396 3
0.078881 0.199893 0.572840 8816773 3
0.086787 0.196497 0.563107 9540498 3
0.093558 0.191434 0.548599 9935256 3
0.092730 0.198668 0.543745 8685189 3
0.081717 0.212987 0.673770 7105644 3
0.059506 0.223729 0.672805 8421252 3
0.048274 0.233878 0.670231 8158080 3
0.053251 0.210097 0.602082 7895162 3
0.026199 0.244268 0.668549 8948110 3
0.034099 0.224051 0.613218 8750730 3
0.044059 0.223501 0.611713 9671573 3
0.053814 0.222310 0.608452 8026746 3
0.026395 0.257151 0.673542 9079693 3
0.034099 0.234120 0.613218 9803159 3
0.044059 0.233545 0.611713 10000536 3
0.054103 0.233545 0.611713 9474705 3
0.063805 0.232300 0.608452 8487810 3
0.024031 0.244188 0.613218 8224384 3
0.034015 0.243589 0.611713 9342608 3
0.044059 0.243589 0.611713 7566708 3
0.054396 0.244907 0.615024 8947848 3
0.064652 0.245507 0.616529 9276813 3
0.472619 0.164672 0.549468 6184031 3
0.473602 0.161924 0.540298 6118236 3
0.477470 0.160245 0.534695 6184029 3
0.489276 0.161242 0.538024 5855068 3
0.499544 0.161706 0.539572 4736844 3
0.457572 0.168164 0.531974 7565943 3
0.465215 0.167771 0.530730 6118236 3
0.472629 0.167310 0.529274 5591892 3
0.484387 0.168377 0.532648 6907754 3
0.493133 0.168377 0.532648 6052704 3
0.465215 0.176485 0.530730 7499889 3
0.472629 0.176000 0.529274 7631475 3
0.484387 0.177122 0.532648 8092028 3
0.493028 0.177085 0.532535 6250083 3
0.443188 0.183297 0.525279 4737098 3
0.449176 0.182227 0.522214 5723482 3
0.460629 0.183373 0.525498 4473411 3
0.469456 0.183450 0.525720 4407618 3
0.481114 0.184612 0.529049 5329235 3
0.489698 0.184573 0.528937 3816253 3
0.434622 0.188212 0.515126 3355445 3
0.443356 0.188329 0.515447 4867403 3
0.458135 0.190962 0.522653 5920343 3
0.467885 0.191440 0.523961 5460819 3
0.437685 0.194275 0.508855 4473926 3
0.453594 0.197565 0.517472 5197136 3
0.459911 0.196633 0.515031 4670790 3
0.409107 0.205222 0.684773 4868430 3
0.419890 0.204998 0.684023 6119010 3
0.434446 0.206578 0.689299 7632249 3
0.450092 0.208585 0.695993 6513768 3
0.460116 0.207950 0.693876 7434357 3
0.406882 0.215288 0.681049 4934223 3
0.203891 0.202406 0.675378 5985882 3
0.222531 0.209516 0.699100 7499889 3
0.204759 0.203414 0.611713 8158591 3
0.213606 0.202281 0.608306 8684678 3
0.201657 0.210224 0.602447 8553349 3
0.210978 0.209657 0.600822 8882057 3
0.193899 0.203558 0.679219 8486016 3
0.155483 0.204656 0.615447 8487297 3
0.170000 0.210108 0.631842 8618372 3
0.176846 0.205998 0.619483 9143946 3
0.184671 0.203414 0.611713 9143946 3
0.194715 0.203414 0.611713 7829367 3
0.161897 0.209973 0.601726 7368305 3
0.172605 0.210985 0.604627 7893879 3
0.182532 0.210985 0.604627 7696500 3
0.192413 0.210934 0.604482 8553092 3
0.161470 0.219272 0.600138 8552577 3
0.171941 0.220063 0.602302 9012614 3
0.181786 0.220010 0.602157 8288637 3
0.173321 0.231797 0.607135 8815235 3
0.182889 0.231291 0.605808 10920359 3
0.113479 0.181905 0.606971 5262931 3
0.102766 0.190487 0.602593 6908778 3
0.113479 0.191871 0.606971 7960442 3
0.124107 0.192902 0.610231 8947596 3
0.134815 0.193892 0.613362 7631990 3
0.145063 0.194128 0.614111 7237232 3
0.155566 0.194654 0.615774 7566708 3
0.165880 0.194893 0.616529 8420993 3
0.175057 0.193846 0.613218 8091258 3
0.185169 0.193892 0.613362 8354430 3
0.194906 0.193560 0.612313 7631475 3
-0.242431 0.237736 0.793265 5328974 3
-0.222795 0.230885 0.770404 6513248 3
-0.204689 0.224890 0.750400 7039851 3
-0.257166 0.252440 0.798575 6118747 3
-0.239983 0.248229 0.785255 6645091 3
-0.219389 0.239811 0.758625 7566193 3
-0.200544 0.232407 0.735204 7105642 3
0.269411 0.169721 0.599141 5592407 3
0.284248 0.166881 0.589113 6710377 3
0.285427 0.162059 0.572090 4999757 3
0.237530 0.170782 0.569854 7171696 3
0.253877 0.175618 0.585990 7368818 3
0.266103 0.177353 0.591782 5065809 3
0.275777 0.177327 0.591693 4999759 3
0.274697 0.170622 0.569320 8552581 3
0.283144 0.170081 0.567514 7697270 3
0.298911 0.173831 0.580029 4670792 3
0.209780 0.180413 0.570724 7763576 3
0.208213 0.171409 0.542239 6909296 3
0.214736 0.169530 0.536296 8224384 3
0.225676 0.171149 0.541417 7500915 3
0.246371 0.179763 0.568666 7106157 3
0.260802 0.183344 0.579994 8684424 3
0.270078 0.183176 0.579465 8815498 3
0.275638 0.180585 0.571268 10065565 3
0.283080 0.179358 0.567386 8947339 3
0.295352 0.181171 0.573122 7039340 3
0.205909 0.186282 0.560192 8553092 3
0.206374 0.178720 0.537452 8422535 3
0.214736 0.178335 0.536296 8224384 3
0.225676 0.180038 0.541417 7961466 3
0.240201 0.184364 0.554425 7435122 3
0.257891 0.190714 0.573521 7171185 3
0.269898 0.192562 0.579078 5591643 3
0.272776 0.187993 0.565337 7039087 3
0.281932 0.187908 0.565084 8486788 3
0.289252 0.186645 0.561285 9013130 3
0.299528 0.187308 0.563278 7631990 3
0.206374 0.187544 0.537452 8159359 3
0.213732 0.186266 0.533788 8816775 3
0.224126 0.187630 0.537699 8093052 3
0.235066 0.189331 0.542573 8553603 3
0.246869 0.191577 0.549010 9605780 3
0.254545 0.190575 0.546138 8421253 3
0.261733 0.189289 0.542451 7894909 3
0.289657 0.190079 0.544715 7631990 3
0.204968 0.195030 0.533788 9409680 3
0.212285 0.193709 0.530173 8619396 3
0.216047 0.189377 0.518316 9079945 3
0.222444 0.187595 0.513437 8750980 3
0.231589 0.188176 0.515028 8487299 3
0.243394 0.190801 0.522214 8619144 3
0.253553 0.192001 0.525498 8684424 3
0.258045 0.188972 0.517206 8947339 3
0.263409 0.186754 0.511138 8683397 3
0.271246 0.186372 0.510093 8618372 3
0.200329 0.191014 0.500314 9211531 3
0.208544 0.191014 0.500314 8421502 3
0.216715 0.190976 0.500215 8421245 3
0.241934 0.191435 0.501417 8552581 3
0.250417 0.191627 0.501918 8814984 3
0.287570 0.188027 0.663761 5921370 3
0.281548 0.171119 0.604075 6381412 3
0.202387 0.181203 0.604627 6841961 3
0.251732 0.188415 0.628691 6382180 3
0.203962 0.192618 0.609332 8158332 3
0.212831 0.191595 0.606098 8355713 3
0.276700 0.223216 0.787986 6908524 3
0.285669 0.220158 0.777187 5724250 3
0.287116 0.211811 0.747724 6184801 3
0.213927 0.238289 0.795108 6381410 3
0.246373 0.210271 0.701619 7566197 3
0.289640 0.236155 0.787989 7631990 3
0.004877 0.217587 0.768114 7697779 3
0.018152 0.225832 0.797218 5790295 3
0.004906 0.231555 0.772638 6908006 3
0.018134 0.238691 0.796449 7106157 3
0.005034 0.250602 0.792761 7434096 3
0.018192 0.252565 0.798972 7960955 3
0.031310 0.252565 0.798972 6382182 3
0.005073 0.265683 0.798972 5526099 3
0.018192 0.265683 0.798972 6315876 3
0.031310 0.265683 0.798972 6974320 3
0.005073 0.278802 0.798972 8289918 3
0.018192 0.278802 0.798972 8092287 3
0.031310 0.278802 0.798972 7566203 3
0.044428 0.278802 0.798972 6579308 3
0.004972 0.286082 0.782992 9408397 3
0.017828 0.286082 0.782992 9145229 3
-0.236351 0.245450 0.866473 6118749 3
-0.220575 0.243738 0.860431 4539719 3
-0.283332 0.250888 0.837146 5855316 3
-0.267723 0.249153 0.831360 5855316 3
-0.295694 0.263401 0.833249 5920861 3
-0.283146 0.264459 0.836598 5723478 3
-0.398797 0.217643 0.768309 6316639 3
-0.397775 0.222625 0.742842 4079166 3
-0.394003 0.227489 0.759071 5132365 3
-0.398269 0.235113 0.743764 5263440 3
-0.398572 0.242735 0.767876 4868680 3
-0.396139 0.246003 0.739787 4342338 3
-0.393036 0.251796 0.757209 3947578 3
-0.393884 0.260582 0.783632 4539717 3
-0.359724 0.263838 0.793423 4211013 3
-0.345595 0.263000 0.790901 4474185 3
-0.330323 0.261192 0.785464 4473926 3
-0.330323 0.274088 0.785464 6842474 3
-0.312020 0.260897 0.714064 7368307 3
-0.333670 0.289893 0.793423 3750203 3
-0.310828 0.271581 0.711337 6315619 3
-0.618297 0.224042 0.790901 1710109 3
-0.618297 0.237028 0.790901 1578268 3
-0.631283 0.250014 0.790901 2105378 3
-0.618297 0.250014 0.790901 3092020 3
-0.609558 0.251768 0.796449 2566188 3
-0.007778 0.206129 0.772437 6776679 3
-0.085562 0.223216 0.787986 7500402 3
-0.071673 0.220292 0.777662 7500402 3
-0.058325 0.218126 0.770014 7763576 3
-0.044647 0.213181 0.752561 7763061 3
-0.032423 0.214060 0.755662 7763574 3
-0.020410 0.218273 0.770536 6381921 3
-0.007753 0.218126 0.770014 6184029 3
-0.099150 0.237713 0.793187 5921883 3
-0.084441 0.233061 0.777662 6185055 3
-0.070032 0.227727 0.759865 4474183 3
-0.057027 0.225633 0.752877 5461078 3
-0.044373 0.224155 0.747947 5986650 3
-0.032423 0.226467 0.755662 5723991 3
-0.020410 0.230925 0.770536 5658198 3
-0.007804 0.232263 0.775001 7696754 3
-0.082772 0.240969 0.762288 6975339 3
-0.068051 0.233407 0.738365 6513766 3
-0.055428 0.231321 0.731768 4605258 3
-0.043982 0.234351 0.741351 7368818 3
-0.032208 0.237286 0.750636 6644582 3
-0.020350 0.242854 0.768251 5262931 3
-0.007833 0.245901 0.777891 8419712 3
-0.031583 0.244767 0.736072 3618617 3
-0.020491 0.257240 0.773581 4802380 3
-0.007995 0.264023 0.793978 6578021 3
-0.020046 0.264078 0.756776 9013643 3
-0.007995 0.277059 0.793978 9078923 3
-0.007582 0.275103 0.752943 8289918 3
-0.007711 0.292385 0.765828 8948359 3
-0.170743 0.203850 0.763895 3750460 3
-0.169093 0.214301 0.756514 5658457 3
-0.191451 0.223818 0.746822 6908267 3
-0.178921 0.223484 0.745707 7039853 3
-0.166678 0.223484 0.745707 6250594 3
-0.187813 0.231593 0.732629 7895419 3
-0.174812 0.230313 0.728577 8290179 3
-0.198737 0.242275 0.728577 4802887 3
-0.187592 0.243336 0.731768 5724250 3
-0.472635 0.204227 0.765310 3289650 3
-0.461469 0.204849 0.767639 2763565 3
-0.448865 0.204849 0.767639 2697772 3
-0.442260 0.207666 0.778194 2565927 3
-0.431863 0.208817 0.782508 2894892 3
-0.415253 0.206941 0.775481 3487542 3
-0.410265 0.210923 0.790401 4474437 3
-0.486344 0.201638 0.711811 3552311 3
-0.474657 0.201638 0.711811 2893865 3
-0.471894 0.205525 0.725532 2499621 3
-0.463935 0.207291 0.731768 2565927 3
-0.455825 0.209082 0.738091 3223859 3
-0.460766 0.217121 0.766469 2171428 3
-0.447360 0.216724 0.765065 2369061 3
-0.433871 0.216261 0.763433 5921368 3
-0.417518 0.214301 0.756514 5394767 3
-0.405219 0.214366 0.756744 6316126 3
-0.498031 0.213325 0.711811 2434600 3
-0.487871 0.213995 0.714046 2500134 3
-0.475334 0.213630 0.712827 2697254 3
-0.467370 0.215353 0.718576 2697254 3
-0.461931 0.218359 0.728607 4408131 3
-0.455123 0.220861 0.736954 3355445 3
-0.451384 0.225029 0.750864 4276804 3
-0.442360 0.226723 0.756514 3618615 3
-0.428390 0.225906 0.753788 5789271 3
-0.412047 0.223752 0.746601 4473411 3
-0.496629 0.224379 0.709807 4868682 3
-0.487871 0.225719 0.714046 5723478 3
-0.479845 0.227472 0.719592 5000009 3
-0.469370 0.228123 0.721652 5460817 3
-0.459246 0.228983 0.724372 4802889 3
-0.453513 0.232136 0.734347 3684410 3
-0.444726 0.233856 0.739787 4144961 3
-0.442360 0.239144 0.756514 4013373 3
-0.428390 0.238282 0.753788 4802891 3
-0.412047 0.236010 0.746601 3815485 3
-0.470154 0.234454 0.705058 5855318 3
-0.465217 0.237849 0.715266 3881785 3
-0.458322 0.240392 0.722914 3223857 3
-0.452205 0.243490 0.732230 2763308 3
-0.444864 0.246079 0.740016 4539719 3
-0.444373 0.252710 0.759957 5395026 3
-0.428390 0.250659 0.753788 4342340 3
-0.411926 0.248196 0.746382 4473926 3
-0.470666 0.246298 0.705826 3487542 3
-0.465890 0.249954 0.716301 4473924 3
-0.455422 0.250666 0.718341 3618617 3
-0.446452 0.252261 0.722914 4539719 3
-0.430384 0.249824 0.715930 4737096 3
-0.424244 0.253175 0.725532 4605508 3
-0.400694 0.246030 0.705056 5066059 3
-0.491194 0.256504 0.702039 2960944 3
-0.469068 0.257012 0.703430 3882814 3
-0.458799 0.257731 0.705398 3355443 3
-0.444471 0.256149 0.701068 3026480 3
-0.469068 0.268562 0.703430 2961712 3
-0.458799 0.269313 0.705398 3487031 3
0.242146 0.225391 0.899991 7039599 3
0.254916 0.223630 0.892960 7368305 3
0.262524 0.217779 0.869597 7434098 3
0.273885 0.215483 0.860431 6974058 3
0.288012 0.215483 0.860431 7896189 3
0.209897 0.237123 0.888582 7170926 3
0.217837 0.230100 0.862262 6841963 3
0.226448 0.224598 0.841646 7236719 3
0.237323 0.221846 0.831332 7828856 3
0.251051 0.221915 0.831593 8684165 3
0.264092 0.221402 0.829668 6579300 3
0.275885 0.219943 0.824202 6053987 3
0.289418 0.219943 0.824202 5658459 3
0.207241 0.248527 0.877337 7039853 3
0.214465 0.240476 0.848914 6184290 3
0.225312 0.237221 0.837425 6907754 3
0.238188 0.236354 0.834362 6117468 3
0.251467 0.235959 0.832970 7433328 3
0.262280 0.233411 0.823976 6842472 3
0.269628 0.228180 0.805508 7368818 3
-0.111178 0.222741 0.889411 5263442 3
-0.185391 0.238886 0.895189 5724250 3
-0.134756 0.227829 0.853752 5132115 3
-0.119230 0.224982 0.843084 6382182 3
-0.107556 0.229611 0.860431 6645095 3
-0.192693 0.227499 0.803102 5460821 3
-0.168001 0.229797 0.811216 6447973 3
-0.145153 0.235959 0.832970 6776938 3
-0.129593 0.232580 0.821040 6184803 3
-0.115346 0.231044 0.815617 6908526 3
-0.100524 0.227802 0.804173 7368816 3
-0.145153 0.249636 0.832970 6250337 3
-0.129593 0.246061 0.821040 5921118 3
-0.115346 0.244435 0.815617 5329494 3
-0.389836 0.251812 1.005493 4538436 3
-0.392858 0.264986 1.058097 4275518 3
-0.382656 0.270047 1.078304 5657169 3
-0.311829 0.270039 1.078274 4933448 3
-0.356627 0.268178 1.004956 6249306 3
-0.333795 0.291466 1.092221 5919830 3
-0.307817 0.284042 1.064402 5920343 3
-0.397355 0.219488 0.876423 2960172 3
-0.360218 0.223227 0.891353 3946553 3
-0.388241 0.228514 0.856320 6250335 3
-0.379291 0.231635 0.868014 4670790 3
-0.358180 0.236516 0.886308 4867655 3
-0.397144 0.239464 0.845343 4803402 3
-0.385996 0.241171 0.851369 5263699 3
-0.373922 0.242406 0.855729 4934477 3
-0.360247 0.242659 0.856620 4736585 3
-0.351586 0.246447 0.869991 5328722 3
-0.337538 0.246620 0.870602 6052445 3
-0.326646 0.249216 0.879766 6381408 3
-0.397997 0.245315 0.818553 5132367 3
-0.385965 0.246213 0.821549 4737355 3
-0.386662 0.255590 0.852838 5264469 3
-0.373922 0.256457 0.855729 5723993 3
-0.360375 0.256815 0.856924 5920859 3
-0.353550 0.262188 0.874852 5197649 3
-0.339186 0.262188 0.874852 6578789 3
-0.324487 0.261917 0.873950 5197134 3
-0.301735 0.254821 0.850272 5065802 3
-0.393759 0.256000 0.809836 3750714 3
-0.379228 0.255169 0.807208 3553851 3
-0.365974 0.255169 0.807208 3619646 3
-0.352721 0.255169 0.807208 3092532 3
-0.337086 0.253379 0.801546 4144961 3
-0.324201 0.253595 0.802228 3881789 3
-0.329969 0.269037 0.851078 6184290 3
-0.311372 0.265101 0.838629 5592153 3
-0.437042 0.210865 0.841989 1776670 3
-0.427761 0.220326 0.879766 1908510 3
-0.411728 0.219480 0.876387 2632231 3
-0.429580 0.228068 0.854648 3948093 3
-0.416788 0.228748 0.857198 2500647 3
-0.402023 0.228356 0.855729 6382434 3
-0.415958 0.234423 0.827547 4803400 3
-0.405280 0.236118 0.833530 4606023 3
-0.409961 0.244435 0.815617 5395537 3
-0.403019 0.253461 0.801805 4737609 3
0.611136 0.210464 0.899352 4276034 3
0.612095 0.205821 0.879512 2894381 3
0.623216 0.204731 0.874852 4933966 3
0.632736 0.203175 0.868206 4473672 3
0.644740 0.202469 0.865185 4933966 3
0.653995 0.200947 0.858684 2828590 3
0.604486 0.207723 0.829442 2763308 3
0.632097 0.212425 0.848219 5592153 3
0.641053 0.210790 0.841691 5723482 3
0.651336 0.209652 0.837146 4143681 3
0.661985 0.208676 0.833249 3617334 3
0.677521 0.209249 0.835536 3946299 3
0.619969 0.222009 0.831944 3092019 3
0.637803 0.223472 0.837425 2631211 3
0.650910 0.223251 0.836598 3025200 3
0.654798 0.219943 0.824202 2498855 3
0.658856 0.216825 0.812519 2696234 3
0.606648 0.230605 0.814068 6052704 3
0.631054 0.234711 0.828563 5789020 3
0.644446 0.234634 0.828291 5656920 3
0.655014 0.233553 0.824475 5525333 3
0.607380 0.244265 0.815050 6842221 3
0.627940 0.247090 0.824475 7039087 3
0.644446 0.248233 0.828291 7301491 3
0.654798 0.247008 0.824202 7235952 3
0.658856 0.243507 0.812519 8551811 3
0.561644 0.203242 0.868489 4012609 3
0.584255 0.206189 0.881082 3947069 3
0.597006 0.220023 0.878558 2828590 3
0.595965 0.214458 0.856336 3026480 3
0.588967 0.207055 0.826774 2631722 3
0.563969 0.216249 0.810361 5460821 3
0.584175 0.213904 0.801572 4605771 3
0.409107 0.160249 0.684773 4276036 3
0.420360 0.160253 0.684790 3552058 3
0.401533 0.168318 0.672096 3486520 3
0.411356 0.167823 0.670122 3025714 3
0.432302 0.171774 0.685897 2170405 3
0.452102 0.175080 0.699100 2762542 3
0.403373 0.180175 0.675176 8092288 3
0.416140 0.180906 0.677915 5921119 3
0.433891 0.183709 0.688419 5460568 3
0.449845 0.185627 0.695610 5592154 3
0.456074 0.183538 0.687781 6184033 3
0.472015 0.185363 0.694620 6250083 3
0.401823 0.195909 0.691588 8026237 3
0.409107 0.193979 0.684773 7894908 3
0.419775 0.193713 0.683836 7302771 3
0.434225 0.195162 0.688949 6973806 3
0.461283 0.197056 0.695636 6644841 3
0.453885 0.189211 0.667940 6973806 3
0.394291 0.163429 0.698360 2434343 3
0.399062 0.160732 0.686835 4605510 3
0.355141 0.172586 0.689139 7170928 3
0.359419 0.169272 0.675906 8355202 3
0.372228 0.170054 0.679028 4670794 3
0.383268 0.170006 0.678836 4341827 3
0.392607 0.169226 0.675725 6052445 3
0.355301 0.178303 0.668164 7960444 3
0.367448 0.178876 0.670309 10065820 3
0.380587 0.179884 0.674088 7302512 3
0.392181 0.180126 0.674993 7697270 3
0.325440 0.207196 0.885386 6382180 3
0.333723 0.203385 0.869100 6777192 3
0.301934 0.215337 0.859846 6646124 3
0.312619 0.212998 0.850506 6908526 3
0.323289 0.210849 0.841927 6711147 3
0.334647 0.209307 0.835769 7499893 3
0.347203 0.208606 0.832970 7434609 3
0.350753 0.202753 0.809596 6579811 3
0.303152 0.220089 0.824750 7961214 3
0.319850 0.222283 0.832970 5658459 3
0.333526 0.222283 0.832970 5789532 3
0.347203 0.222283 0.832970 6118749 3
0.350753 0.216045 0.809596 7171435 3
0.329286 0.232960 0.822381 6382182 3
0.341037 0.231769 0.818178 7500402 3
0.309958 0.241915 0.807208 7105903 3
0.005498 0.202610 0.865789 9078923 3
0.020003 0.205594 0.878541 7435118 3
0.034659 0.206971 0.884426 6514534 3
0.049084 0.206566 0.882695 6184803 3
0.005530 0.218109 0.870913 6908776 3
0.020144 0.221571 0.884737 7764853 3
0.034671 0.221571 0.884737 7040878 3
0.049343 0.222226 0.887354 6778221 3
0.005137 0.215910 0.809088 8027257 3
0.019774 0.231761 0.868489 6712167 3
0.034070 0.232003 0.869394 6909292 3
0.047862 0.229690 0.860728 7040880 3
0.062554 0.231761 0.868489 6514020 3
0.077843 0.234867 0.880129 7697781 3
0.031633 0.228662 0.807208 6514534 3
0.046105 0.234870 0.829126 7172466 3
0.061635 0.242406 0.855729 7106673 3
0.075764 0.242659 0.856620 7040110 3
0.031532 0.241144 0.804634 7105903 3
0.045208 0.243648 0.812989 7105905 3
0.060315 0.250967 0.837412 5922401 3
0.076107 0.257888 0.860504 6250594 3
0.044743 0.254355 0.804634 6711147 3
0.058556 0.256996 0.812989 7632250 3
0.075443 0.269644 0.852999 7500150 3
0.089867 0.270905 0.856989 6513509 3
0.044743 0.267567 0.804634 6776941 3
0.058140 0.268422 0.807208 7894908 3
-0.095452 0.205717 0.879066 5526612 3
-0.079712 0.202399 0.864888 5592146 3
-0.064929 0.200600 0.857198 5724504 3
-0.050959 0.201012 0.858962 5855064 3
-0.036919 0.201356 0.860431 7763061 3
-0.022791 0.201356 0.860431 8618885 3
-0.008667 0.201426 0.860728 8816521 3
-0.094075 0.216976 0.866390 6315617 3
-0.079301 0.215483 0.860431 6249822 3
-0.064929 0.214674 0.857198 7368303 3
-0.051153 0.215934 0.862230 6315615 3
-0.037123 0.216674 0.865185 7500402 3
-0.022831 0.215856 0.861916 7829880 3
-0.008670 0.215633 0.861028 7829880 3
-0.092893 0.228295 0.855500 7039853 3
-0.076314 0.220962 0.828021 6052956 3
-0.061442 0.216465 0.811170 6513507 3
-0.049507 0.222689 0.834494 5591892 3
-0.036445 0.226667 0.849399 7895160 3
-0.021763 0.219256 0.821627 6711399 3
-0.298610 0.256184 1.094720 4802889 3
-0.285370 0.262002 1.046179 4868684 3
-0.267631 0.261453 1.043989 5723993 3
-0.250490 0.261453 1.043989 5066063 3
-0.233349 0.261453 1.043989 4539976 3
-0.283507 0.277356 1.039348 4802891 3
-0.398256 0.221615 0.947001 3156526 3
-0.394826 0.226286 0.903567 4472643 3
-0.380402 0.226532 0.904547 5656658 3
-0.382343 0.242615 0.909163 4933448 3
-0.361712 0.248964 0.932952 6512226 3
-0.360624 0.259192 0.971280 6249308 3
-0.324978 0.259414 0.915769 4276286 3
-0.316466 0.264875 0.935046 5592144 3
-0.315184 0.277252 0.978740 6840930 3
0.207348 0.205275 0.943364 6645091 3
0.224188 0.206519 0.949081 7105644 3
0.239771 0.206519 0.949081 5723993 3
0.260083 0.210343 0.966657 5855579 3
0.279404 0.212973 0.978740 5329233 3
0.293639 0.211650 0.972661 5263440 3
0.208605 0.222102 0.949081 8224125 3
0.224274 0.222186 0.949443 6776679 3
0.241326 0.223542 0.955235 5855325 3
0.259584 0.225781 0.964804 7434611 3
0.278326 0.228159 0.974964 7829367 3
0.295023 0.228693 0.977248 7237230 3
0.298970 0.219798 0.939238 6646124 3
0.205880 0.234579 0.936681 6381408 3
0.217515 0.230610 0.920830 7894649 3
0.229437 0.227441 0.908176 7762810 3
0.201439 0.244567 0.916477 6184029 3
0.136480 0.215668 0.991129 5987424 3
0.150844 0.212973 0.978740 7237491 3
0.159918 0.204046 0.937715 6579561 3
0.174271 0.202831 0.932133 5131856 3
0.190711 0.204046 0.937715 5395026 3
0.151441 0.229949 0.982612 5855838 3
0.162104 0.222442 0.950535 6776940 3
0.175380 0.219525 0.938068 5921372 3
0.191932 0.220848 0.943721 6974058 3
0.153325 0.249144 0.994838 6119008 3
0.162766 0.239022 0.954419 7566456 3
0.175644 0.235280 0.939480 6447716 3
0.190711 0.234838 0.937715 6973799 3
0.118704 0.261182 0.978740 7631990 3
0.134774 0.261182 0.978740 7829626 3
0.150844 0.261182 0.978740 7040110 3
0.162766 0.254692 0.954419 6908524 3
0.175451 0.250430 0.938446 6579302 3
0.187345 0.245819 0.921167 6776166 3
0.114947 0.268478 0.947764 6710888 3
0.113224 0.279780 0.933554 6316641 3
-0.115148 0.200445 0.921167 4539978 3
-0.116061 0.217279 0.928472 5132115 3
-0.134431 0.238058 0.950570 4868943 3
-0.182073 0.254812 0.954868 4935502 3
-0.157397 0.241034 0.903236 6513766 3
-0.180620 0.268332 0.947250 6118749 3
-0.417833 0.256208 1.177432 3947069 3
-0.456245 0.264199 1.128970 2630182 3
-0.464448 0.280338 1.197937 2697002 3
-0.431571 0.272014 1.162363 3486518 3
-0.408617 0.269462 1.151459 3880506 3
-0.402076 0.278012 1.187996 3946553 3
-0.491954 0.212973 0.978740 2764337 3
-0.475884 0.212973 0.978740 2764335 3
-0.491954 0.229043 0.978740 2895921 3
-0.444461 0.213919 0.914113 2106405 3
-0.446013 0.222168 0.949364 3355443 3
-0.447605 0.231036 0.987258 2828590 3
-0.436905 0.233986 0.999865 2827820 3
-0.499683 0.226744 0.905393 2039331 3
-0.456667 0.227531 0.908538 2895405 3
0.591670 0.135795 0.674993 2038045 1
0.586613 0.145622 0.669224 3420725 3
0.597487 0.185369 0.694640 2302757 3
0.588760 0.193900 0.684495 4736585 3
0.581415 0.187895 0.663294 4144446 3
0.587557 0.186388 0.657977 2828588 3
0.581773 0.181221 0.639736 5196883 3
0.512247 0.181953 0.607130 6579300 3
0.359268 0.160737 0.798972 3882818 3
0.366772 0.158314 0.786927 4343369 3
0.368499 0.143856 0.715061 4341059 3
0.380240 0.143856 0.715061 3617337 1
0.346879 0.167860 0.771421 3290163 3
0.349223 0.163041 0.749275 3158325 3
0.363396 0.158491 0.728365 4538953 3
0.370189 0.156310 0.718341 4670794 3
0.381984 0.156310 0.718341 5591641 3
0.393778 0.156310 0.718341 5920606 3
0.398265 0.153494 0.705398 5197395 3
0.336247 0.174993 0.747776 5461078 3
0.340965 0.171197 0.731556 4868684 3
0.350318 0.169908 0.726047 4473672 3
0.360567 0.169124 0.722696 2434092 3
0.369456 0.167771 0.716918 3617851 3
0.378511 0.166576 0.711811 2696749 3
0.389979 0.166483 0.711410 3749437 3
0.334342 0.186209 0.743538 5066574 3
0.335867 0.180469 0.720617 7763576 3
0.343865 0.178479 0.712672 7236719 3
0.353137 0.177260 0.707803 7105135 3
0.326481 0.193752 0.726057 7040364 3
0.329010 0.188375 0.705905 7565684 3
0.340273 0.188194 0.705228 6315617 3
0.106633 0.204574 1.016873 7236721 3
0.123329 0.204574 1.016873 4934736 3
0.138230 0.201951 1.003836 4605772 3
0.114038 0.236636 1.087489 5394515 3
0.121748 0.218433 1.003836 6250083 3
0.112001 0.249946 1.068062 7893879 3
0.127126 0.245291 1.048175 5789275 3
0.142412 0.242022 1.034204 5790043 3
0.109605 0.261760 1.045215 4802378 3
0.126007 0.260192 1.038954 5789275 3
0.141868 0.258013 1.030253 5855836 3
-0.494425 0.204574 1.016873 2105637 3
-0.497096 0.212868 1.058097 3157553 3
-0.479723 0.212868 1.058097 2434089 3
-0.459247 0.211439 1.050996 2631211 3
-0.441991 0.211439 1.050996 1907488 3
-0.490468 0.227171 1.043989 2763308 3
-0.473327 0.227171 1.043989 3684156 3
-0.456185 0.227171 1.043989 3748922 3
-0.436137 0.225666 1.037076 4670024 3
-0.609571 0.215784 1.072592 1841952 3
-0.693079 0.255828 1.093199 2763304 3
-0.644955 0.251069 1.072861 3618874 3
-0.689822 0.272491 1.088062 2500134 3
-0.668497 0.271088 1.082459 3684406 3
-0.629808 0.262374 1.047665 3553081 3
0.573713 0.159852 0.865185 2500396 1
0.576900 0.175025 0.869991 4013121 1
0.597827 0.176991 0.879766 5263188 1
0.545302 0.188263 0.865185 5591643 3
0.512590 0.190323 0.813283 4407369 3
0.360362 0.166283 0.899991 1644833 1
0.368780 0.163465 0.884737 1250075 1
0.381154 0.162546 0.879766 2171947 1
0.352264 0.176991 0.879766 4671051 3
0.356689 0.172155 0.855729 4342599 3
0.370739 0.172155 0.855729 5461078 3
0.325201 0.192518 0.884737 6381921 3
0.334065 0.189309 0.869991 5460821 3
0.342639 0.186206 0.855729 7895162 3
0.347203 0.181253 0.832970 4210752 3
0.357081 0.179345 0.824202 2961196 3
0.341359 0.199508 0.852532 5592407 3
0.354751 0.199167 0.851078 6118749 3
0.348445 0.188213 0.804269 5987161 3
0.078327 0.200925 1.087489 2367784 1
0.077254 0.215784 1.072592 4868173 3
0.096183 0.218781 1.087489 5722712 3
0.077787 0.235004 1.079989 5987165 3
0.096183 0.236636 1.087489 5789273 3
0.072552 0.235729 1.007311 5197647 3
0.093193 0.246582 1.053689 5657939 3
0.089393 0.253122 1.010722 5460819 3
0.005650 0.164393 0.889764 2630441 1
0.020492 0.166283 0.899991 2302757 1
0.005586 0.176991 0.879766 2959406 3
0.020259 0.179002 0.889764 5723991 3
0.035067 0.180025 0.894848 3355451 3
0.005555 0.190367 0.874852 7170926 3
0.020259 0.193611 0.889764 7303021 3
0.035067 0.194718 0.894848 6974319 3
0.050046 0.195837 0.899991 4408393 3
-0.053393 0.166283 0.899991 1446943 1
-0.038396 0.165333 0.894848 2367788 1
-0.023435 0.163465 0.884737 919572 1
-0.008959 0.164393 0.889764 2564395 1
-0.068170 0.181060 0.899991 1644574 3
-0.053088 0.180025 0.894848 2170405 3
-0.038396 0.180025 0.894848 2433577 3
-0.023303 0.176991 0.879766 2367784 3
-0.008859 0.176991 0.879766 3222578 3
-0.097724 0.195837 0.899991 3224116 3
-0.082947 0.195837 0.899991 4276545 3
-0.067015 0.192518 0.884737 5131856 3
-0.052786 0.193611 0.889764 7039340 3
-0.038177 0.193611 0.889764 8420993 3
-0.023173 0.190367 0.874852 8749958 3
-0.008809 0.190367 0.874852 8421506 3
-0.282508 0.217543 1.177432 2236710 1
-0.293086 0.267549 1.143284 5197138 3
-0.280399 0.273484 1.168645 4802380 3
-0.266737 0.279269 1.193366 4473926 3
-0.231509 0.279957 1.117875 5066320 3
-0.219558 0.288368 1.151459 3487542 3
-0.200653 0.288368 1.151459 4276804 3
-0.323605 0.219191 1.186352 2960685 3
-0.304127 0.219191 1.186352 2302503 3
-0.362563 0.238670 1.186352 3223346 3
-0.340504 0.236875 1.177432 3025967 3
-0.311795 0.229959 1.143054 3881274 3
-0.301840 0.236875 1.177432 2828847 3
-0.384958 0.260119 1.195408 4275264 3
-0.359837 0.256208 1.177432 3880760 3
-0.335460 0.252412 1.159988 4144446 3
-0.307309 0.245148 1.126607 3289137 3
-0.304127 0.258149 1.186352 4933966 3
-0.385521 0.280156 1.197158 4603968 3
-0.359503 0.275285 1.176341 4340796 3
-0.330010 0.267048 1.141142 3683895 3
-0.383308 0.283630 1.132542 4999239 3
-0.375331 0.291888 1.165515 4340026 3
-0.341397 0.279761 1.117094 5261130 3
-0.375476 0.296050 1.109401 4867651 3
-0.547001 0.183122 0.991129 1578781 3
-0.517623 0.178600 0.966657 2565678 3
-0.501752 0.178600 0.966657 2236713 3
-0.530728 0.199395 0.991129 2434092 3
-0.508024 0.196903 0.978740 2697262 3
-0.695762 0.208153 1.126607 1907233 3
-0.672427 0.206666 1.118560 986643 3
-0.673298 0.212744 1.151459 1644827 3
-0.695762 0.226651 1.126607 3223605 3
-0.672427 0.225032 1.118560 2565929 3
-0.673298 0.231650 1.151459 1710620 3
-0.695762 0.245148 1.126607 1973792 3
-0.662956 0.239969 1.102806 1842463 3
-0.673298 0.250556 1.151459 1841952 3
-0.644908 0.246925 1.134771 3026226 3
-0.679615 0.257527 1.100461 2369059 3
-0.799758 0.211191 1.143054 920601 1
-0.753491 0.203755 1.102806 2104362 1
-0.735384 0.203755 1.102806 1315096 1
-0.727524 0.206666 1.118560 2170656 3
-0.719435 0.209661 1.134771 1578521 3
-0.793963 0.228293 1.134771 1578529 3
-0.753491 0.221862 1.102806 1578272 3
-0.727524 0.225032 1.118560 2631207 3
-0.714260 0.226651 1.126607 2302244 3
-0.751255 0.245148 1.126607 1906719 3
-0.732757 0.245148 1.126607 2039072 3
-0.719435 0.246925 1.134771 2500134 3
-0.731118 0.263056 1.124087 3223346 3
-0.728283 0.280421 1.119727 2631211 3
-0.719566 0.295229 1.106326 3683127 3
-1.951582 0.425489 2.302918 1249815 1
-1.971763 0.438382 2.372703 1578268 1
-1.951582 0.463300 2.302918 1250069 3
-1.971763 0.477340 2.372703 1578268 3
-1.932806 0.477340 2.372703 1643293 3
0.734141 0.118748 0.705398 1446168 1
0.700434 0.144516 0.718341 1644314 1
0.718823 0.145854 0.724993 2104612 1
0.734126 0.146532 0.728365 1644063 1
0.749571 0.147217 0.731768 3354681 1
0.758044 0.146532 0.728365 1314582 1
0.718823 0.157757 0.724993 3026226 1
0.734126 0.158491 0.728365 4013122 3
0.761586 0.159232 0.731768 2433577 1
0.718208 0.169516 0.724372 4738125 3
0.737342 0.171197 0.731556 4803150 3
0.709771 0.116646 0.692913 1774879 1
0.709771 0.128023 0.692913 1906465 1
0.727587 0.129166 0.699100 1972512 1
0.739065 0.140645 0.699100 1578268 1
0.707481 0.145622 0.669224 2565675 1
0.750544 0.152123 0.699100 2170917 1
0.736946 0.145104 0.620054 1840676 1
0.735290 0.142805 0.610231 853779 1
0.731089 0.156208 0.623743 1315098 1
0.732420 0.154331 0.616246 1577504 1
0.734926 0.152749 0.609929 1445918 1
0.737407 0.151204 0.603761 2169639 1
0.743750 0.160347 0.600876 1314328 1
0.698394 0.116646 0.692913 1840674 1
0.611201 0.124177 0.672096 1511961 1
0.611734 0.122081 0.660753 2105124 1
0.612250 0.120055 0.649786 2302244 1
0.693151 0.129166 0.699100 1775649 1
0.698394 0.128023 0.692913 1644065 1
0.602753 0.135795 0.674993 1708826 1
0.611201 0.135212 0.672096 2367270 1
0.616941 0.134061 0.666376 2236710 1
0.638754 0.136383 0.677915 2697515 1
0.600166 0.146247 0.672096 2894383 3
0.608589 0.145622 0.669224 2565165 1
0.616941 0.145003 0.666376 2499883 1
0.641532 0.148155 0.680863 2302503 1
0.600006 0.157240 0.671917 2434089 3
0.606809 0.156152 0.667266 3420987 3
0.618125 0.156243 0.667655 3157302 3
0.648066 0.160957 0.687798 3355192 3
0.610301 0.174366 0.696248 4210754 3
0.608659 0.170700 0.681608 5328981 3
0.612855 0.168773 0.673915 3486780 3
0.620408 0.167823 0.670122 2828337 3
0.619727 0.164718 0.657722 2828335 3
0.625514 0.163408 0.652493 4078657 3
0.604041 0.183892 0.689106 3487029 3
0.618585 0.184857 0.692723 2894894 3
0.610908 0.179267 0.671774 3420987 3
0.659005 0.119827 0.711811 2039331 1
0.670692 0.119827 0.711811 3223605 1
0.682379 0.119827 0.711811 2104867 1
0.623232 0.136478 0.738672 2170405 1
0.635360 0.136478 0.738672 2499625 1
0.647488 0.136478 0.738672 2564389 1
0.647401 0.133950 0.724993 2234400 1
0.679292 0.130920 0.708590 986384 1
0.694067 0.131515 0.711811 2169888 1
0.635360 0.148606 0.738672 2236451 1
0.679292 0.142554 0.708590 2499621 1
0.623232 0.160734 0.738672 2631722 3
0.612256 0.154889 0.711811 2829099 3
0.676232 0.153494 0.705398 2697515 1
0.694067 0.154889 0.711811 4013375 1
0.645298 0.182535 0.780005 4144959 3
0.615288 0.170659 0.729257 3552822 3
0.612256 0.166576 0.711811 3158062 3
0.614804 0.164136 0.701384 3881787 3
0.673773 0.164475 0.702834 4671305 3
0.694666 0.166720 0.712426 4276804 3
0.645298 0.195342 0.780005 3026480 3
0.615288 0.182633 0.729257 3486777 3
0.608464 0.177160 0.707402 4802891 3
0.621422 0.196546 0.736527 3158066 3
0.619753 0.146456 0.869991 2695983 1
0.601205 0.163465 0.884737 1249815 1
0.622768 0.165333 0.894848 1315096 1
0.619753 0.160740 0.869991 2103331 1
0.684496 0.162546 0.879766 2631720 1
0.676150 0.157246 0.851078 2632233 1
0.682703 0.155555 0.841927 2697772 1
0.674760 0.150694 0.815617 986643 1
0.608851 0.176002 0.874852 3289141 1
0.609593 0.172155 0.855729 2038305 1
0.634038 0.175025 0.869991 2301477 1
0.670678 0.181060 0.899991 3420472 1
0.655325 0.173101 0.860431 1644316 1
0.655056 0.169379 0.841927 2828588 1
0.654798 0.165813 0.824202 2697772 1
0.668330 0.165813 0.824202 2763565 1
0.674760 0.164086 0.815617 2960433 1
0.681057 0.162394 0.807208 1578523 1
0.604620 0.193611 0.889764 5855066 3
0.612272 0.191436 0.879766 6118240 3
0.623216 0.190367 0.874852 3748922 3
0.627070 0.187229 0.860431 3354934 3
0.641198 0.187229 0.860431 2302246 3
0.655325 0.187229 0.860431 3025969 3
0.648087 0.181253 0.832970 3289139 3
0.654798 0.179345 0.824202 3618617 3
0.661368 0.177477 0.815617 2631722 3
0.667804 0.175647 0.807208 3618617 3
0.653620 0.196594 0.840082 4670024 3
0.661985 0.194995 0.833249 3552311 3
0.677521 0.195530 0.835536 3815996 3
0.618681 0.153268 0.910456 2105638 1
0.633630 0.153268 0.910456 2762544 1
0.663528 0.153268 0.910456 2564397 1
0.686459 0.155071 0.921167 920338 1
0.693425 0.153268 0.910456 1973279 1
0.663528 0.168216 0.910456 2695981 1
0.686459 0.170195 0.921167 2433063 1
0.693425 0.168216 0.910456 2433832 1
0.185300 0.166848 0.991129 2697004 1
0.166914 0.180833 0.978740 3224370 1
0.178521 0.176422 0.954868 3618617 1
0.194199 0.176422 0.954868 2499883 1
0.152754 0.199395 0.991129 4803150 3
0.166914 0.196903 0.978740 4276804 3
0.176370 0.189786 0.943364 4013375 3
0.191859 0.189786 0.943364 3420984 3
-0.286904 0.216082 1.283594 2236710 1
-0.223678 0.216082 1.283594 3288886 1
-0.282277 0.233332 1.262890 2368297 1
-0.265829 0.237158 1.283594 1644574 1
-0.244754 0.237158 1.283594 2828335 1
-0.223678 0.237158 1.283594 2039074 1
-0.293543 0.246128 1.223425 3947328 3
-0.273456 0.246128 1.223425 4671052 3
-0.257390 0.250035 1.242845 3355192 3
-0.244754 0.258233 1.283594 2894383 3
-0.216577 0.250035 1.242845 3881278 3
-0.289027 0.262120 1.204603 5263188 3
-0.273456 0.266216 1.223425 3618363 3
-0.253368 0.266216 1.223425 4079427 3
-0.236984 0.270441 1.242845 3421238 3
-0.213193 0.266216 1.223425 3157553 3
-0.252150 0.284927 1.217543 5066320 3
-0.233281 0.286303 1.223425 5131854 3
-0.213193 0.286303 1.223425 5789786 3
-0.896166 0.205953 1.223425 1775649 1
-0.876079 0.205953 1.223425 1315096 1
-0.849172 0.209223 1.242845 1907237 1
-0.815816 0.205953 1.223425 1973539 1
-0.876079 0.226041 1.223425 854547 1
-0.855991 0.266216 1.223425 1446684 3
-0.835904 0.266216 1.223425 2367786 3
-0.848751 0.290703 1.242228 2893614 3
-0.807187 0.283275 1.210485 3025200 3
-0.304480 0.204694 0.586600 4079164 3
-0.320826 0.218908 0.599141 3684410 3
-0.350338 0.228745 0.599141 2434080 3
-0.339524 0.228089 0.597421 5460817 3
-0.327687 0.226686 0.593746 4474435 3
-0.320750 0.228691 0.598999 3749690 3
-0.300533 0.221055 0.578997 2631207 3
-0.361701 0.233223 0.585682 4670790 3
-0.333829 0.221130 0.555314 2763306 3
-0.327923 0.223318 0.560807 4868423 3
-0.329280 0.230720 0.579396 4473922 3
-0.328440 0.236978 0.595112 3421749 3
-0.334943 0.224875 0.542355 2960172 3
-0.326170 0.224965 0.542573 3487031 3
-0.321460 0.227943 0.549753 5395024 3
-0.320063 0.233508 0.563177 5461330 3
-0.309702 0.232672 0.561159 2698026 3
-0.310589 0.235570 0.546508 6448227 3
-0.303984 0.237419 0.550798 3290677 3
-2.194081 0.411907 2.446850 1709854 1
-2.153906 0.411907 2.446850 1052437 1
-2.194081 0.452082 2.446850 2433579 1
-2.153906 0.452082 2.446850 1381402 1
-2.194081 0.492257 2.446850 1315098 1
0.301120 0.151534 0.997442 1973802 1
0.301120 0.167911 0.997442 2236974 1
0.317497 0.167911 0.997442 1775908 1
0.341549 0.163739 0.972661 2566186 1
0.353132 0.161730 0.960726 2566179 1
0.309609 0.179710 0.972661 3487039 1
0.325579 0.179710 0.972661 3619906 1
0.331261 0.174297 0.943364 2500393 1
0.340595 0.171203 0.926618 3289391 1
0.351648 0.169200 0.915780 3289652 1
0.303945 0.192100 0.954868 3750977 3
0.319623 0.192100 0.954868 5264729 3
0.327318 0.187526 0.932133 2434600 3
0.336612 0.184236 0.915780 4079166 3
0.347582 0.182106 0.905193 3223859 3
0.321575 0.199273 0.915780 7238259 3
0.279404 0.132623 0.978740 2434349 1
0.266667 0.150575 0.991129 2764082 1
0.279404 0.148693 0.978740 2566707 1
0.201574 0.166848 0.991129 2697262 1
0.217847 0.166848 0.991129 2697521 1
0.234120 0.166848 0.991129 1973798 1
0.247264 0.164763 0.978740 2368809 1
0.263334 0.164763 0.978740 1974566 1
0.279404 0.164763 0.978740 1185054 1
0.212468 0.178600 0.966657 1973539 1
0.228340 0.178600 0.966657 3026227 1
0.244211 0.178600 0.966657 2434090 1
0.263334 0.180833 0.978740 2829107 1
0.279404 0.180833 0.978740 2303017 1
0.293639 0.179710 0.972661 2697264 1
0.209877 0.192100 0.954868 2434343 3
0.226939 0.193279 0.960726 4868682 3
0.242713 0.193279 0.960726 3026226 3
0.260083 0.194472 0.966657 5328981 3
0.279404 0.196903 0.978740 4210500 3
0.291826 0.194472 0.966657 3618617 3
-0.755696 0.115114 0.966657 920853 1
-0.721998 0.112340 0.943364 1710369 1
-0.706509 0.112340 0.943364 1183512 1
-0.721998 0.127829 0.943364 1512990 1
-0.706509 0.127829 0.943364 1117719 1
-0.739825 0.146857 0.966657 1776421 1
-0.723953 0.146857 0.966657 1052187 1
-1.828092 0.217260 2.116195 1314332 1
-1.843161 0.223295 2.174978 787473 1
-1.878872 0.259006 2.174978 1314332 1
-1.843161 0.259006 2.174978 1182491 1
-1.843161 0.294717 2.174978 1380639 1
-0.742281 0.052935 0.991129 921112 1
-0.781213 0.068343 0.978740 1248022 1
-0.765143 0.068343 0.978740 1643295 1
-0.749073 0.068343 0.978740 1381150 1
-0.742281 0.069208 0.991129 789526 1
-0.708082 0.067499 0.966657 986905 1
-0.781213 0.084413 0.978740 1116949 1
-0.765143 0.084413 0.978740 787986 1
-0.739825 0.083371 0.966657 1117978 1
-0.706509 0.081362 0.943364 1513249 1
-0.755696 0.099242 0.966657 1183514 1
-0.730803 0.098032 0.954868 1446943 1
-0.706509 0.096851 0.943364 1512736 1
-0.839921 0.036661 0.991129 1248535 1
-0.823648 0.036661 0.991129 1182742 1
-0.807375 0.036661 0.991129 1379608 1
-0.823648 0.052935 0.991129 1445916 1
-0.807375 0.052935 0.991129 721678 1
-0.807375 0.069208 0.991129 1050643 1
-3.102566 0.100666 4.893701 1710369 1
-3.182915 0.181016 4.893701 656398 1
-3.102566 0.181016 4.893701 920851 1
-1.074185 0.182828 1.535279 920338 1
-1.069957 0.186485 1.565984 525066 1
-1.065556 0.190290 1.597943 1116436 1
-1.039319 0.190290 1.597943 1642780 1
-1.013083 0.190290 1.597943 590094 1
-0.929546 0.004644 1.118560 1643547 1
-0.998913 0.023343 1.134771 1775651 1
-0.951979 0.024040 1.168645 787984 1
-0.932791 0.024040 1.168645 1116949 1
-0.998913 0.041975 1.134771 1315100 1
-0.913603 0.043228 1.168645 919572 1
-0.980281 0.060607 1.134771 1051160 1
-0.896673 0.004393 1.058097 1314582 1
-0.861738 0.020918 1.016873 1577500 1
-0.867576 0.021475 1.043989 1380121 1
-0.867172 0.037131 1.003836 1841442 1
-0.801244 0.037131 1.003836 1840159 1
-0.961492 0.005001 1.204603 1315096 1
-0.951203 0.005160 1.242845 1249816 1
-0.940240 0.005329 1.283594 920342 1
-0.941714 0.024779 1.204603 1512477 1
-0.930797 0.025566 1.242845 460302 1
-0.910391 0.025566 1.242845 920342 1
-0.910391 0.045972 1.242845 854549 1
-0.919164 0.047480 1.283594 920342 1
-1.843161 -0.598057 2.174978 1051410 1
-1.807450 -0.598057 2.174978 722191 1
-1.807450 -0.562346 2.174978 1248535 1
-1.843161 -0.526635 2.174978 196615 1
-1.807450 -0.526635 2.174978 1116949 1
