# .PCD v0.7
VERSION 0.7
FIELDS x y z rgb label
SIZE 4 4 4 4 4
TYPE F F F U U
COUNT 1 1 1 1 1
WIDTH 1095
HEIGHT 1
VIEWPOINT 0 0 0 1 0 0 0
POINTS 1095
DATA ascii
0.249320 0.182583 0.499720 9276302 3
0.257010 0.182218 0.498721 8684165 3
0.265199 0.182218 0.498721 8947339 3
0.216241 0.190558 0.499120 8487549 3
0.223545 0.189802 0.497138 8618885 3
0.232214 0.190217 0.498226 9079695 3
0.240633 0.190406 0.498721 8289666 3
0.248279 0.189991 0.497633 8815753 3
0.314844 0.174313 0.499536 7369592 3
0.376050 0.168658 0.483328 4737357 3
0.383174 0.168301 0.482306 4671305 3
0.389892 0.167784 0.480825 4211011 3
0.398354 0.168024 0.481511 4474183 3
0.389518 0.175510 0.480363 3618874 3
0.398354 0.175929 0.481511 5395285 3
0.157428 0.204177 0.585116 7368818 3
0.170224 0.208075 0.596289 7697783 3
0.180442 0.208569 0.597704 7631475 3
0.190757 0.209119 0.599278 8947335 3
0.138699 0.200592 0.549010 8881542 3
0.150558 0.204455 0.559585 8355200 3
0.167559 0.214455 0.586954 8881544 3
0.180357 0.218280 0.597421 8420991 3
0.188814 0.216729 0.593176 8288891 3
0.195028 0.212880 0.582642 9145229 3
0.108329 0.203359 0.532648 10132122 3
0.117626 0.204317 0.535156 9211020 3
0.127891 0.206707 0.541417 8816262 3
0.137369 0.207596 0.543745 9539983 3
0.148437 0.210632 0.551698 9078921 3
0.160032 0.214025 0.560585 8881028 3
0.181133 0.229071 0.599994 10985891 3
0.188522 0.204972 0.536872 9606805 3
0.107371 0.210230 0.527939 9079693 3
0.116283 0.210671 0.529049 7961466 3
0.126147 0.212655 0.534031 8422017 3
0.136781 0.215596 0.541417 9014152 3
0.146297 0.216523 0.543745 8947335 3
0.157495 0.219691 0.551698 10196888 3
0.167645 0.221130 0.555314 9275786 3
0.174645 0.218482 0.548662 9539472 3
0.181734 0.216197 0.542926 9539987 3
0.189619 0.215030 0.539995 9474705 3
0.195719 0.212033 0.532469 9145740 3
0.107371 0.218898 0.527939 8553349 3
0.115747 0.218346 0.526608 8619142 3
0.124708 0.218898 0.527939 8685189 3
0.134281 0.220384 0.531523 9079947 3
0.143311 0.220850 0.532648 8487299 3
0.152056 0.220850 0.532648 7697270 3
0.163894 0.225097 0.542891 7564914 3
0.173458 0.225944 0.544933 8289407 3
0.181575 0.224915 0.542451 8158332 3
0.052050 0.205359 0.588504 7698040 3
0.043154 0.218908 0.599141 9211020 3
0.052588 0.217246 0.594591 8355711 3
0.060945 0.212346 0.581181 8618883 3
0.068455 0.206222 0.564421 8750469 3
0.076268 0.202365 0.553864 8882055 3
0.043154 0.228745 0.599141 10197913 3
0.061863 0.225233 0.589941 8158843 3
0.068449 0.215474 0.564379 9211533 3
0.075372 0.208976 0.547360 9211533 3
0.083405 0.206611 0.541166 9343119 3
0.091229 0.204235 0.534944 8289918 3
0.099583 0.203359 0.532648 9342606 3
0.023472 0.238514 0.598969 8422017 3
0.033016 0.236434 0.593746 9474703 3
0.059191 0.224771 0.564457 9277326 3
0.066876 0.219573 0.551403 8619396 3
0.075204 0.217476 0.546138 8618883 3
0.083013 0.214484 0.538624 8224125 3
0.090610 0.211573 0.531313 8092539 3
0.098454 0.209699 0.526608 9342606 3
0.082245 0.221262 0.533641 9211022 3
0.089808 0.218346 0.526608 8158591 3
0.098247 0.217886 0.525498 9013900 3
-0.292680 0.203189 0.582286 4671044 3
-0.285542 0.204928 0.587268 4079677 3
-0.289718 0.210597 0.576393 3223598 3
-0.280739 0.210961 0.577390 5000268 3
-0.296596 0.218159 0.571411 3157805 3
-0.286293 0.217459 0.569579 3618613 3
-0.326136 0.206208 0.590937 5263440 3
-0.316286 0.206112 0.590661 4473924 3
-0.302877 0.203617 0.583513 3289137 3
-0.315097 0.214999 0.588441 3289650 3
-0.300989 0.211869 0.579875 4802376 3
-0.308290 0.219807 0.575729 3882300 3
-0.396687 0.220593 0.553964 4013373 3
-0.380533 0.220335 0.531406 3684408 3
-0.371492 0.220148 0.530955 5855577 3
-0.363931 0.220850 0.532648 5132367 3
-0.356858 0.221890 0.535156 3026991 3
-0.350619 0.223514 0.539073 4079166 3
-0.344730 0.225451 0.543745 4145472 3
-0.336829 0.226140 0.545407 2632233 3
-0.336023 0.234533 0.544102 5000779 3
0.103821 0.184659 0.555314 9473679 3
0.112938 0.184659 0.555314 7895160 3
0.122656 0.185566 0.558041 8026746 3
0.137615 0.193728 0.582583 8421504 3
0.181133 0.199517 0.599994 8882055 3
0.190985 0.199517 0.599994 8355198 3
0.101176 0.188840 0.541166 7894901 3
0.109306 0.187544 0.537452 8289405 3
0.119002 0.188928 0.541417 7631988 3
0.129685 0.191577 0.549010 7434609 3
0.142080 0.196247 0.562391 7434609 3
0.100481 0.196369 0.537452 9802898 3
0.109071 0.195946 0.536296 10263195 3
0.117876 0.195946 0.536296 9539472 3
0.127891 0.197817 0.541417 9407886 3
0.060492 0.191824 0.576860 9145229 3
0.068814 0.188674 0.567386 9736853 3
0.077744 0.187741 0.564579 9474194 3
0.085970 0.185490 0.557810 9013900 3
0.094703 0.184659 0.555314 8553603 3
0.060053 0.199837 0.572678 8224127 3
0.068474 0.197010 0.564579 8553092 3
0.076812 0.194648 0.557810 9013643 3
0.085585 0.193777 0.555314 9935256 3
0.093347 0.191002 0.547360 10001049 3
0.084171 0.199542 0.546138 9145740 3
0.092290 0.197726 0.541166 8685187 3
-0.381177 0.229669 0.690668 5000268 3
-0.362428 0.225068 0.676832 4013375 3
-0.322676 0.228395 0.686835 5132881 3
-0.351562 0.215862 0.618604 4802891 3
-0.307024 0.228046 0.653519 3816253 3
-0.308100 0.237133 0.679559 4144707 3
-0.305699 0.244125 0.699597 5526614 3
-0.470498 0.223614 0.672460 3355704 3
-0.468304 0.227920 0.685407 5855325 3
-0.487109 0.226962 0.650411 3553081 3
-0.481681 0.229463 0.657579 2039583 3
-0.475673 0.231797 0.664268 3158323 3
-0.472789 0.235798 0.675733 2895151 3
-0.475174 0.242682 0.695463 4276293 3
-0.499022 0.228429 0.625199 2435119 3
-0.497796 0.232653 0.636761 1711649 3
-0.489190 0.233536 0.639177 2040612 3
-0.495639 0.242055 0.634002 1580063 3
-0.493640 0.251446 0.631445 3882818 3
-0.472937 0.246069 0.617941 5067092 3
-0.491658 0.260763 0.628909 3685439 3
0.104321 0.193370 0.611713 7500661 3
0.113756 0.192340 0.608452 7960440 3
0.123444 0.191871 0.606971 9014154 3
0.133410 0.191871 0.606971 7500915 3
0.144146 0.192902 0.610231 7040364 3
0.157967 0.197659 0.625279 7960953 3
0.169893 0.199608 0.631445 8290177 3
0.174088 0.192773 0.609823 7829369 3
0.181922 0.190492 0.602607 8355711 3
0.093755 0.215227 0.680856 7237232 3
0.048607 0.224411 0.674855 7764603 3
0.035353 0.221849 0.635761 6974058 3
0.043259 0.209580 0.600600 7961212 3
0.014780 0.237167 0.649114 9408658 3
0.024024 0.223986 0.613040 9211020 3
0.033573 0.220596 0.603761 8684676 3
0.024024 0.234052 0.613040 9014152 3
0.033573 0.230509 0.603761 10000534 3
0.053143 0.229403 0.600865 9277324 3
0.004008 0.251322 0.631132 8290945 3
0.013997 0.244797 0.614747 7895673 3
0.413743 0.207548 0.692533 5986652 3
0.421967 0.206012 0.687407 6776170 3
0.438787 0.208643 0.696187 7500150 3
0.449341 0.203081 0.677627 6382180 3
0.408547 0.216169 0.683836 5592153 3
0.419890 0.216229 0.684023 5131602 3
0.467494 0.166691 0.588441 5395028 3
0.473706 0.165485 0.584187 5657946 3
0.477744 0.163584 0.577473 4802125 3
0.479591 0.161020 0.568425 5131345 3
0.483325 0.159176 0.561916 5328724 3
0.485937 0.157039 0.554370 3420727 3
0.488101 0.154838 0.546600 3223348 3
0.492556 0.153430 0.541630 4998989 3
0.498217 0.152441 0.538139 3552313 3
0.448380 0.176434 0.588716 6645095 3
0.457939 0.176393 0.588578 7237232 3
0.464658 0.175282 0.584871 7500404 3
0.470744 0.173982 0.580534 7829115 3
0.474246 0.171798 0.573245 7434100 3
0.478714 0.170042 0.567386 6841961 3
0.479312 0.160863 0.536757 6314847 3
0.485937 0.160142 0.534352 5327952 3
0.493133 0.159631 0.532648 4604231 3
0.456224 0.185360 0.586374 6776940 3
0.463901 0.184584 0.583918 6908013 3
0.468571 0.182667 0.577854 5921118 3
0.473066 0.180759 0.571818 7105392 3
0.476986 0.178710 0.565337 6446435 3
0.494711 0.168915 0.534352 5854296 3
0.442274 0.189026 0.568444 6053217 3
0.464007 0.194216 0.584052 6973549 3
0.470306 0.192866 0.579994 6776427 3
0.473831 0.190456 0.572744 6184290 3
0.494711 0.177689 0.534352 6578789 3
0.301853 0.165924 0.585737 6052447 3
0.312699 0.176234 0.588048 6249822 3
0.305904 0.181850 0.575269 8289920 3
0.301742 0.188693 0.567443 8026233 3
0.341821 0.180345 0.542338 6645355 3
0.352362 0.172430 0.518538 4211011 3
0.360875 0.172430 0.518538 5329492 3
0.367643 0.171615 0.516087 5000529 3
0.370037 0.168841 0.507744 4604999 3
0.330683 0.178435 0.511347 6909296 3
0.333498 0.175498 0.502930 7304052 3
0.341068 0.175145 0.501918 7238259 3
0.351640 0.176314 0.505268 5855836 3
0.361021 0.176845 0.506791 2698026 3
0.367709 0.176063 0.504550 4276032 3
0.276773 0.162492 0.573621 6053215 3
0.286191 0.162492 0.573621 4210500 3
0.250593 0.167016 0.557290 5658457 3
0.261789 0.168332 0.561679 4672330 3
0.273764 0.170042 0.567386 8487556 3
0.285219 0.171327 0.571672 7434357 3
0.299401 0.174116 0.580978 4802378 3
0.273764 0.179358 0.567386 9473940 3
0.283080 0.179358 0.567386 9013130 3
0.294605 0.180713 0.571672 7039340 3
0.200836 0.199517 0.599994 8486784 3
0.210134 0.198994 0.598420 8684676 3
0.281043 0.187316 0.563304 8684165 3
0.290292 0.187316 0.563304 8618372 3
0.204968 0.195030 0.533788 9474705 3
0.211794 0.193262 0.528949 8422531 3
0.217232 0.190416 0.521159 8882566 3
0.221413 0.186725 0.511058 8816262 3
0.245125 0.185618 0.508029 8750217 3
0.200329 0.191014 0.500314 9146506 3
0.208544 0.191014 0.500314 8553599 3
0.254321 0.226328 0.798972 7302764 3
0.267612 0.226474 0.799486 7631988 3
0.213875 0.238231 0.794916 6841961 3
0.204543 0.214732 0.716504 7960440 3
0.239968 0.214851 0.716901 6578787 3
0.280648 0.239523 0.799227 7237489 3
0.005022 0.224042 0.790901 7171437 3
0.018134 0.225614 0.796449 6184542 3
0.004972 0.234658 0.782992 6973547 3
0.017952 0.236287 0.788430 6974060 3
0.031211 0.238691 0.796449 7040110 3
0.005019 0.249858 0.790407 7368307 3
0.017828 0.247514 0.782992 8289666 3
0.031114 0.250987 0.793978 6513766 3
0.004923 0.257792 0.775240 5855325 3
0.017773 0.259564 0.780569 5921118 3
0.031114 0.264023 0.793978 7105646 3
0.004923 0.270521 0.775240 8092541 3
0.017651 0.270521 0.775240 8026748 3
0.028329 0.252254 0.722894 7829367 3
0.004590 0.264123 0.722894 9145486 3
-0.085263 0.222436 0.785230 7500915 3
-0.071449 0.219606 0.775240 7171437 3
-0.058325 0.218126 0.770014 7829369 3
-0.045541 0.217453 0.767639 7631729 3
-0.033089 0.218454 0.771175 8092537 3
-0.084983 0.234557 0.782656 5789784 3
-0.070968 0.230769 0.770014 5526612 3
-0.058293 0.230644 0.769598 5723480 3
-0.047400 0.239447 0.798972 5460817 3
-0.034293 0.239524 0.799228 5657939 3
-0.007984 0.237636 0.792929 7565686 3
-0.081973 0.238645 0.754936 7237232 3
-0.067415 0.231226 0.731466 6315617 3
-0.055265 0.230641 0.729616 4802378 3
-0.047400 0.252565 0.798972 7368816 3
-0.034293 0.252646 0.799228 6908267 3
-0.008053 0.252810 0.799748 7828858 3
-0.030048 0.232874 0.700305 3223857 3
-0.019871 0.249463 0.750193 5065552 3
-0.007782 0.257002 0.772865 6381412 3
-0.018790 0.247534 0.709368 9211022 3
-0.007648 0.265041 0.759538 9013643 3
-0.007586 0.275275 0.753414 8026748 3
-0.395541 0.222916 0.786927 5066574 3
-0.382620 0.222916 0.786927 5461332 3
-0.368429 0.222150 0.784222 5658198 3
-0.355106 0.221872 0.783238 5263438 3
-0.346369 0.224544 0.792673 5066061 3
-0.391605 0.233490 0.779097 5001295 3
-0.377524 0.232696 0.776445 5329744 3
-0.364209 0.232334 0.775240 4737607 3
-0.351700 0.232480 0.775724 5197645 3
-0.343539 0.235618 0.786196 4934475 3
-0.391364 0.246131 0.778617 3684406 3
-0.375081 0.243856 0.771421 4342847 3
-0.362304 0.243781 0.771184 3685689 3
-0.348141 0.242735 0.767876 4013886 3
-0.337399 0.244085 0.772144 3224370 3
-0.330737 0.248607 0.786450 4211011 3
-0.323093 0.252728 0.799486 4474185 3
-0.321220 0.235597 0.708496 4276804 3
-0.315887 0.240392 0.722914 3750460 3
-0.306851 0.242632 0.729651 4671562 3
-0.313477 0.257942 0.775692 4671564 3
-0.308733 0.266582 0.763952 5855326 3
-0.308000 0.277212 0.794417 5329492 3
0.402932 0.185063 0.693496 7894651 3
0.468015 0.183793 0.688735 6118751 3
0.478002 0.183286 0.686835 5987165 3
0.489279 0.183286 0.686835 5987165 3
0.459939 0.196482 0.693609 6184801 3
0.457229 0.190605 0.672861 5921629 3
0.465745 0.189574 0.669224 5329492 3
0.482433 0.191841 0.677226 6053215 3
0.496203 0.192871 0.680863 6184544 3
0.445737 0.196584 0.655949 5855836 3
0.490997 0.197461 0.658875 6184801 3
0.191723 0.232771 0.872275 6184031 3
0.199895 0.225824 0.846240 7236717 3
0.121314 0.249563 0.880992 6513509 3
0.133071 0.244585 0.863419 6579302 3
0.146738 0.243738 0.860431 5987165 3
0.196214 0.252881 0.892704 7039853 3
0.118884 0.258738 0.863342 5987165 3
0.125207 0.243470 0.812395 5131856 3
0.152618 0.244645 0.816318 5197649 3
0.167624 0.247008 0.824202 5197906 3
0.102428 0.266970 0.844539 6447203 3
-0.228405 0.237761 0.890973 5065550 3
-0.297983 0.251653 0.839700 4737096 3
-0.288047 0.255063 0.851078 5263188 3
-0.275390 0.256288 0.855167 5789532 3
-0.265879 0.260731 0.869991 5131602 3
-0.294721 0.262534 0.830509 4803148 3
-0.284474 0.265699 0.840520 5328981 3
-0.271126 0.266144 0.841927 6053218 3
-0.449768 0.211191 0.791405 1973790 3
-0.440671 0.213076 0.798467 2828588 3
-0.417744 0.208183 0.780134 4210754 3
-0.494433 0.215342 0.760186 3486520 3
-0.482397 0.215541 0.760889 3486518 3
-0.476408 0.218524 0.771421 3092271 3
-0.465321 0.219268 0.774046 2171428 3
-0.454860 0.220357 0.777891 3421495 3
-0.444576 0.221597 0.782269 5066063 3
-0.436496 0.224042 0.790901 5262929 3
-0.417744 0.220992 0.780134 5921372 3
-0.404025 0.220496 0.778381 6382948 3
-0.497565 0.223621 0.746165 2631211 3
-0.478325 0.220401 0.735421 3354934 3
-0.470119 0.222230 0.741522 3947069 3
-0.462871 0.224620 0.749500 3684408 3
-0.455896 0.227278 0.758368 4145218 3
-0.450386 0.230836 0.770239 4013635 3
-0.440178 0.232122 0.774531 5131602 3
-0.432131 0.234658 0.782992 4473415 3
-0.416421 0.233061 0.777662 4605512 3
-0.402520 0.232407 0.775481 5067088 3
-0.489411 0.226432 0.716301 5723739 3
-0.479289 0.227208 0.718757 5723739 3
-0.471543 0.229179 0.724993 5065297 3
-0.461244 0.229980 0.727524 4604999 3
-0.451920 0.231321 0.731768 3158064 3
-0.443157 0.233031 0.737177 3553083 3
-0.444004 0.240033 0.759326 3618366 3
-0.437210 0.243188 0.769308 4144708 3
-0.429316 0.245901 0.777891 4408133 3
-0.417189 0.246282 0.779097 4539719 3
-0.404397 0.246282 0.779097 4408131 3
-0.473986 0.236365 0.710804 5526360 3
-0.462970 0.236700 0.711811 4539208 3
-0.454526 0.238401 0.716927 3420725 3
-0.449818 0.242204 0.728365 3815994 3
-0.439657 0.243199 0.731355 4474186 3
-0.439739 0.250075 0.752032 4868433 3
-0.427899 0.250372 0.752926 4342086 3
-0.475655 0.248909 0.713308 3684156 3
-0.467217 0.250666 0.718341 3947069 3
0.614408 0.202029 0.806707 5986650 3
0.637908 0.205330 0.819887 4867655 3
0.651369 0.205330 0.819887 3618617 3
0.660095 0.203867 0.814046 2499883 3
0.613229 0.214862 0.805160 2828586 3
0.634380 0.217582 0.815353 3552309 3
0.644619 0.216524 0.811391 2105378 3
0.254916 0.223630 0.892960 7566195 3
0.268613 0.222830 0.889764 7106157 3
0.282452 0.222224 0.887346 6974569 3
0.284881 0.213141 0.851078 7764087 3
0.212559 0.224524 0.841367 6184029 3
0.220763 0.218959 0.820514 6381410 3
0.229624 0.214649 0.804362 7697781 3
0.242518 0.214373 0.803328 8684676 3
0.257111 0.215548 0.807734 6382432 3
0.273011 0.217652 0.815617 6118751 3
0.286403 0.217652 0.815617 5987422 3
0.200215 0.240102 0.847594 6710373 3
0.210368 0.235881 0.832695 6052443 3
0.220392 0.232041 0.819137 6447716 3
0.229624 0.227856 0.804362 5921370 3
0.241590 0.226691 0.800252 6907752 3
0.283450 0.228662 0.807208 6579559 3
0.299433 0.230765 0.814634 5330262 3
-0.197329 0.221095 0.882838 4671303 3
-0.139316 0.221045 0.882636 5658457 3
-0.122106 0.216232 0.863419 4605771 3
-0.106752 0.213873 0.854001 5593434 3
-0.199770 0.222184 0.832601 4605512 3
-0.184223 0.219943 0.824202 4342340 3
-0.175848 0.226590 0.849109 5329746 3
-0.164066 0.229611 0.860431 4277058 3
-0.149938 0.229611 0.860431 6842731 3
-0.133803 0.226216 0.847709 5526871 3
-0.117343 0.221421 0.829741 6644841 3
-0.102289 0.218368 0.818300 5855836 3
-0.172658 0.236168 0.833705 6185055 3
-0.161737 0.240279 0.848219 6776677 3
-0.147212 0.239307 0.844787 6776681 3
-0.130967 0.235045 0.829741 5394774 3
-0.115725 0.231804 0.818300 7039853 3
-0.101231 0.229406 0.809836 7303282 3
-0.173214 0.250660 0.836388 5329746 3
-0.160537 0.252320 0.841927 6579041 3
-0.146714 0.252320 0.841927 6512996 3
-0.130035 0.246899 0.823839 5855326 3
-0.114528 0.242703 0.809836 5592407 3
-0.100195 0.240218 0.801546 6316130 3
-0.370303 0.204546 0.816757 2960434 3
-0.353292 0.202482 0.808515 4078915 3
-0.339688 0.202286 0.807734 5657434 3
-0.381601 0.216756 0.812260 5855579 3
-0.364215 0.214373 0.803328 5921372 3
-0.352721 0.215408 0.807208 4671305 3
-0.339800 0.215620 0.808001 4802380 3
-0.331337 0.218792 0.819887 4735815 3
-0.347795 0.239385 0.897056 6380894 3
-0.337518 0.227349 0.802573 4408133 3
-0.329612 0.231044 0.815617 5723478 3
-0.317463 0.231952 0.818822 5526612 3
-0.310540 0.236928 0.836388 5987161 3
-0.336985 0.240146 0.801305 5592407 3
-0.329612 0.244435 0.815617 5395028 3
-0.317463 0.245396 0.818822 6118751 3
-0.308254 0.248815 0.830230 4737096 3
-0.314075 0.256078 0.810084 5658457 3
-0.303528 0.258423 0.817502 5987422 3
-0.311256 0.266961 0.802813 4013632 3
-0.442683 0.200878 0.802112 2170658 3
-0.441726 0.206590 0.824920 2829101 3
-0.445571 0.214980 0.858422 3289909 3
-0.451275 0.224845 0.897811 1842204 3
-0.402577 0.214602 0.856909 3157553 3
-0.416804 0.214285 0.802999 4869195 3
-0.420626 0.223314 0.836834 4474437 3
-0.409515 0.224757 0.842241 3158066 3
0.410481 0.165331 0.706489 4671052 3
0.453206 0.177523 0.758587 2302503 3
0.473388 0.180468 0.771175 3947329 3
0.427942 0.179388 0.716301 4539208 3
0.441211 0.180003 0.718757 3486265 3
0.459539 0.182596 0.729112 2302504 3
0.476339 0.179899 0.718341 2434343 3
0.485083 0.178775 0.713852 2763308 3
0.495384 0.178264 0.711811 2763308 3
0.419539 0.187395 0.702235 8157823 3
0.433028 0.188247 0.705426 6644329 3
0.454969 0.192633 0.721861 5526361 3
0.468711 0.193413 0.724784 5000270 3
0.465433 0.187304 0.701894 6645095 3
0.419539 0.198925 0.702235 8157821 3
0.432901 0.199771 0.705219 6841963 3
0.360977 0.158860 0.678836 2762542 3
0.377270 0.161057 0.688226 2894641 3
0.393728 0.163195 0.697363 3947842 3
0.336214 0.174508 0.696815 7237491 3
0.341575 0.171456 0.684628 7236979 3
0.350875 0.170513 0.680863 7236721 3
0.357799 0.168509 0.672861 8026237 3
0.371240 0.169602 0.677226 4736587 3
0.385672 0.171072 0.683094 4407367 3
0.399969 0.172400 0.688396 5394517 3
0.360532 0.175509 0.657693 10460578 3
0.389090 0.183903 0.689147 7433845 3
0.352214 0.176845 0.755692 4934734 3
0.347603 0.168591 0.720420 3618874 3
0.349617 0.194717 0.777508 4737607 3
0.336753 0.180945 0.722520 7040878 3
0.331498 0.196730 0.737214 7040362 3
0.341293 0.207998 0.888813 6842474 3
0.344522 0.201356 0.860431 6381669 3
0.329029 0.214593 0.856876 6974058 3
0.337113 0.210849 0.841927 7829115 3
0.345857 0.207798 0.829741 7566195 3
0.354523 0.204932 0.818300 6185053 3
0.300399 0.218091 0.817261 6908524 3
0.323289 0.224673 0.841927 6316130 3
0.337113 0.224673 0.841927 5986911 3
0.348370 0.223030 0.835769 6513507 3
0.353206 0.217557 0.815259 6974569 3
0.323289 0.238497 0.841927 5395287 3
0.005652 0.208295 0.890082 8553090 3
0.020478 0.210469 0.899371 7171948 3
0.005622 0.221729 0.885369 7171437 3
0.020478 0.225235 0.899371 7895671 3
0.005346 0.224673 0.841927 8026746 3
0.019637 0.230152 0.862457 7237743 3
0.034868 0.237439 0.889764 6909292 3
0.032226 0.232950 0.822346 6579813 3
0.049691 0.253136 0.893606 7238257 3
0.045728 0.246452 0.822346 7369845 3
0.045728 0.259954 0.822346 7040110 3
0.063314 0.277878 0.879047 7304052 3
0.079600 0.284499 0.899991 6908524 3
0.092214 0.277979 0.879366 6645095 3
0.045393 0.271452 0.816318 6908524 3
-0.082478 0.209422 0.894899 5527893 3
-0.065534 0.202469 0.865185 5658200 3
-0.051524 0.203242 0.868489 5789271 3
-0.037617 0.205166 0.876712 7697268 3
-0.023303 0.205881 0.879766 8486786 3
-0.008865 0.206027 0.880391 8947339 3
-0.091730 0.211566 0.844787 5856604 3
-0.077884 0.211633 0.845056 5724504 3
-0.064183 0.212208 0.847350 7039853 3
-0.051046 0.215483 0.860431 5855066 3
-0.037344 0.217966 0.870345 7566197 3
-0.023173 0.219095 0.874852 7632247 3
-0.008815 0.219250 0.875469 8158591 3
-0.088562 0.217652 0.815617 7566708 3
-0.075171 0.217652 0.815617 6514020 3
-0.062453 0.220027 0.824517 6908267 3
-0.049701 0.223559 0.837751 6118236 3
-0.036395 0.226352 0.848219 7960953 3
-0.022544 0.227115 0.851078 6316641 3
-0.008506 0.225436 0.844787 7040364 3
-0.021817 0.233324 0.823666 6118747 3
-0.008092 0.227659 0.803669 7039851 3
-0.021265 0.240598 0.802813 6118238 3
-0.021272 0.253860 0.803069 5065552 3
0.717457 0.129565 0.595431 920340 1
0.727234 0.129565 0.595431 1381404 1
0.714740 0.138814 0.593176 591375 1
0.717045 0.137389 0.587089 1512477 1
0.707347 0.149048 0.595150 1775647 1
0.711875 0.147958 0.590799 2696749 1
0.719032 0.147436 0.588716 2104614 1
0.734413 0.148592 0.593333 986133 1
0.538675 0.181253 0.832970 5592407 3
0.552351 0.181253 0.832970 4474437 3
0.587918 0.188263 0.865185 5329235 3
0.592306 0.185194 0.851078 5723739 3
0.525201 0.195005 0.833293 5197395 3
0.539575 0.195256 0.834362 4342338 3
0.555532 0.196052 0.837768 3684921 3
0.593318 0.199508 0.852532 3749949 3
0.305810 0.209053 0.960726 4343365 3
0.310167 0.201631 0.926618 4671816 3
0.309169 0.227297 0.971280 6777706 3
0.327614 0.229043 0.978740 7304050 3
0.340767 0.227098 0.970433 6448227 3
0.346588 0.220660 0.942922 6316130 3
0.318423 0.227097 0.906804 6448743 3
0.331915 0.226145 0.903004 7303536 3
0.207348 0.205275 0.943364 6710375 3
0.222838 0.205275 0.943364 7171439 3
0.241233 0.207778 0.954868 6250335 3
0.261698 0.211650 0.972661 5789273 3
0.275954 0.210343 0.966657 5131856 3
0.295474 0.212973 0.978740 4408390 3
0.213484 0.227297 0.971280 8420477 3
0.228888 0.226758 0.968977 6907752 3
0.238327 0.220764 0.943364 5723989 3
0.255944 0.222615 0.951273 7631988 3
0.272589 0.223456 0.954868 7960953 3
0.288267 0.223456 0.954868 6711399 3
0.206107 0.234838 0.937715 6972777 3
0.220597 0.233877 0.933878 7631475 3
0.231724 0.229708 0.917230 8420991 3
0.243026 0.226210 0.903261 7434096 3
0.135622 0.214312 0.984896 6316389 3
0.147165 0.207778 0.954868 7303284 3
0.159918 0.204046 0.937715 6710888 3
0.175314 0.204046 0.937715 5263442 3
0.188454 0.201631 0.926618 5723482 3
0.136332 0.231689 0.990050 5132115 3
0.148643 0.225700 0.964456 6119010 3
0.159843 0.219339 0.937277 6316130 3
0.173369 0.217007 0.927311 6974060 3
0.193109 0.222202 0.949508 6906984 3
0.102398 0.244548 0.976484 4539719 3
0.116972 0.241535 0.964456 6052704 3
0.131191 0.238596 0.952720 5526360 3
0.146273 0.237685 0.949081 5986911 3
0.159222 0.233817 0.933638 7631736 3
0.173113 0.231890 0.925941 6118497 3
0.186528 0.229688 0.917151 7104363 3
0.111273 0.244830 0.917464 7894908 3
0.126151 0.244471 0.916117 7763322 3
0.141971 0.245819 0.921167 7039599 3
0.157096 0.245819 0.921167 7039599 3
0.172220 0.245819 0.921167 6973806 3
0.186946 0.245295 0.919204 6578789 3
0.110186 0.257356 0.908502 6776427 3
0.168672 0.255567 0.902187 7434611 3
0.187345 0.260943 0.921167 6316130 3
0.111244 0.274888 0.917230 6381669 3
-0.188987 0.215668 0.991129 4276545 3
-0.172714 0.215668 0.991129 3881535 3
-0.154485 0.212973 0.978740 3750463 3
-0.138415 0.212973 0.978740 2830130 3
-0.119361 0.207778 0.954868 3290681 3
-0.102434 0.205275 0.943364 4080195 3
-0.188987 0.231942 0.991129 4737609 3
-0.171229 0.229949 0.982612 6053215 3
-0.154485 0.229043 0.978740 5132115 3
-0.136094 0.225202 0.962328 5330264 3
-0.117407 0.219798 0.939238 4672332 3
-0.100396 0.216371 0.924594 5199187 3
-0.186841 0.225941 0.902187 5329746 3
-0.175647 0.230694 0.921167 4014402 3
-0.159239 0.228850 0.913803 4803918 3
-0.304127 0.258149 1.186352 4210243 3
-0.325161 0.278962 1.192055 4671303 3
-0.341213 0.295486 1.179882 5460308 3
-0.309383 0.284048 1.134212 5000270 3
-0.343393 0.299846 1.123626 6381412 3
-0.475884 0.212973 0.978740 3158066 3
-0.448599 0.207778 0.954868 2631468 3
-0.443744 0.212973 0.978740 3749950 3
-0.468527 0.218136 0.932133 3026737 3
-0.456977 0.219943 0.939854 2960687 3
-0.443194 0.220764 0.943364 3092020 3
-0.427705 0.220764 0.943364 2763057 3
-0.422843 0.226455 0.967685 3223095 3
-0.442682 0.228012 0.910456 2039585 3
0.710518 0.135212 0.672096 1511709 1
0.709375 0.143779 0.660753 3223095 1
0.718166 0.135221 0.621422 1776160 1
0.727032 0.133108 0.611713 1183514 1
0.766141 0.134686 0.618966 1907748 1
0.701112 0.162785 0.695610 5197138 3
0.701241 0.146149 0.624523 2039585 1
0.707963 0.145424 0.621422 2368550 1
0.708389 0.143444 0.612963 1710366 1
0.711258 0.142008 0.606824 1315608 1
0.716032 0.140986 0.602458 1973028 1
0.570747 0.133493 0.663553 1775132 1
0.564637 0.145622 0.669224 3158066 3
0.570747 0.144388 0.663553 2828590 1
0.558147 0.157883 0.674661 2894641 3
0.559852 0.155283 0.663553 3223859 3
0.501420 0.190605 0.672861 4934477 3
0.503808 0.187384 0.661491 6118751 3
0.508566 0.185162 0.653648 5591892 3
0.106633 0.204574 1.016873 7038570 3
0.122534 0.203254 1.010312 5065809 3
0.139122 0.203254 1.010312 5132115 3
0.106633 0.221270 1.016873 5723480 3
0.122534 0.219843 1.010312 6315876 3
0.106633 0.237966 1.016873 7565682 3
0.122733 0.236816 1.011958 6841963 3
0.040373 0.207266 1.030253 3289398 3
0.058443 0.211439 1.050996 5526103 3
0.076210 0.212868 1.058097 5657434 3
0.091724 0.208639 1.037076 5920091 3
0.057289 0.224182 1.030253 5066063 3
0.074696 0.225666 1.037076 5855325 3
0.089937 0.221270 1.016873 6118238 3
0.072769 0.236431 1.010312 5658457 3
0.089756 0.237486 1.014823 5526612 3
-0.222131 0.215784 1.072592 2566188 3
-0.239742 0.233395 1.072592 4934477 3
-0.213363 0.224182 1.030253 4145218 3
-0.258548 0.252171 1.077574 5394517 3
-0.225226 0.235807 1.007648 4671305 3
-0.268826 0.262621 1.048650 5789275 3
0.666789 0.126346 0.683836 1183514 1
0.678017 0.126346 0.683836 854296 1
0.686248 0.125797 0.680863 1775398 1
0.697427 0.125797 0.680863 1643042 1
0.624605 0.138177 0.686835 1118232 1
0.635882 0.138177 0.686835 789013 1
0.647159 0.138177 0.686835 2039080 1
0.658436 0.138177 0.686835 2038823 1
0.666789 0.137574 0.683836 1841444 1
0.678017 0.137574 0.683836 2828339 1
0.689245 0.137574 0.683836 1775651 1
0.697427 0.136976 0.680863 1774881 1
0.621505 0.151447 0.695993 2959407 3
0.624605 0.149454 0.686835 2828848 3
0.633105 0.148802 0.683836 2697262 1
0.647159 0.149454 0.686835 2105125 3
0.658436 0.149454 0.686835 1183510 3
0.669713 0.149454 0.686835 4275781 3
0.683990 0.150113 0.689861 3091507 3
0.695317 0.150113 0.689861 4539208 3
0.647159 0.160732 0.686835 3881536 3
0.658617 0.160776 0.687024 4012609 3
0.672850 0.161484 0.690052 4341574 3
0.689116 0.162649 0.695031 4341829 3
0.689116 0.174061 0.695031 5657689 3
0.633839 0.164393 0.889764 2301991 1
0.601205 0.177991 0.884737 4934223 1
0.608851 0.176002 0.874852 3947329 1
0.609593 0.172155 0.855729 2696749 1
0.606280 0.185194 0.851078 5197136 3
0.603845 0.180294 0.828563 3618104 3
0.661763 0.181253 0.832970 3816255 3
0.606280 0.199167 0.851078 5526101 3
0.619030 0.198774 0.849399 5328722 3
0.611593 0.192059 0.820704 5262159 3
0.617975 0.189880 0.811391 3485748 3
0.638576 0.192069 0.820747 3552311 3
0.661763 0.194930 0.832970 3947328 3
0.666422 0.192327 0.821849 3815743 3
0.542570 0.200925 1.087489 3749950 1
0.578281 0.200925 1.087489 3157815 1
0.524715 0.218781 1.087489 5461081 3
0.560426 0.218781 1.087489 3288886 3
0.510533 0.230241 1.058097 4474185 3
0.560426 0.236636 1.087489 4802125 3
0.375139 0.166283 0.899991 1315868 1
0.379024 0.161638 0.874852 1053466 1
0.360362 0.181060 0.899991 4539468 3
0.370876 0.179002 0.889764 4737357 3
0.376919 0.175025 0.869991 5461080 3
0.380630 0.170294 0.846478 4211528 3
0.316031 0.195837 0.899991 7829369 3
0.325201 0.192518 0.884737 6447203 3
0.334065 0.189309 0.869991 5131602 3
0.346425 0.188263 0.865185 7105393 3
0.358649 0.187229 0.860431 4013121 3
0.370739 0.186206 0.855729 3421749 3
0.364852 0.176558 0.811391 3158323 3
0.355969 0.199851 0.854001 5789786 3
0.360719 0.194843 0.832601 6447712 3
0.366401 0.190686 0.814835 6185053 3
-0.231651 0.206666 1.118560 1710879 1
-0.284648 0.238670 1.186352 3289141 3
-0.257370 0.231650 1.151459 4210500 3
-0.268382 0.243397 1.118560 4144450 3
-0.297977 0.272014 1.162363 4144450 3
-0.387919 0.222563 1.204603 3552060 1
-0.373893 0.226041 1.223425 3486520 1
-0.359421 0.229629 1.242845 3354932 1
-0.393980 0.246128 1.223425 4012609 3
-0.373893 0.246128 1.223425 3223346 3
-0.353805 0.246128 1.223425 3223344 3
-0.333718 0.246128 1.223425 3091758 3
-0.313630 0.246128 1.223425 2697004 3
-0.393980 0.266216 1.223425 3288371 3
-0.373893 0.266216 1.223425 3880506 3
-0.353805 0.266216 1.223425 3618356 3
-0.328584 0.262120 1.204603 4079166 3
-0.393980 0.286303 1.223425 4867655 3
-0.373893 0.286303 1.223425 4209723 3
-0.350063 0.283275 1.210485 4473665 3
1.768002 0.269000 1.597943 1249307 1
1.758354 0.263620 1.565984 1578783 1
1.784066 0.263620 1.565984 1907494 1
1.741765 0.295237 1.597943 1907237 1
1.758354 0.289332 1.565984 1381404 1
1.784066 0.289332 1.565984 1315611 1
0.591458 0.127971 0.760186 2236710 1
0.577713 0.143234 0.775240 2235171 1
0.578976 0.140453 0.760186 2696235 1
0.570634 0.157522 0.782992 2301476 1
0.572049 0.154433 0.767639 3485237 1
0.557333 0.147217 0.731768 3025199 1
0.572049 0.167037 0.767639 3025197 3
0.578976 0.165416 0.760186 3025197 3
0.508536 0.196935 0.786366 3815996 3
0.551765 0.193976 0.774551 3223859 3
0.244211 0.162729 0.966657 1840926 1
0.284743 0.167911 0.997442 1775647 1
0.297332 0.165799 0.984896 1513500 1
0.215064 0.168216 0.910456 3684156 1
0.244211 0.178600 0.966657 2565675 1
0.264990 0.181970 0.984896 3156532 1
0.281161 0.181970 0.984896 2499370 1
0.293639 0.179710 0.972661 1644573 1
0.202470 0.185320 0.921167 2039331 3
0.220185 0.187526 0.932133 4539465 3
0.241233 0.192100 0.954868 3158066 3
0.264990 0.198141 0.984896 4341574 3
0.281161 0.198141 0.984896 3815230 3
0.295474 0.196903 0.978740 3420984 3
0.174271 0.156917 0.932133 2565929 1
0.166914 0.180833 0.978740 2368807 1
0.174271 0.172222 0.932133 3684667 1
0.152754 0.199395 0.991129 5330264 3
0.166914 0.196903 0.978740 5066320 3
0.174271 0.187526 0.932133 4145218 3
0.189575 0.187526 0.932133 3223606 3
0.129202 0.179334 1.065295 3486778 1
0.146693 0.179334 1.065295 2830130 1
0.160901 0.175747 1.043989 1843235 1
0.171194 0.168987 1.003836 2039842 1
0.108752 0.191611 1.037076 2893613 1
0.125779 0.191611 1.037076 3289398 1
0.142807 0.191611 1.037076 3224888 1
0.157746 0.189106 1.023519 2369579 1
-0.024116 0.153268 0.910456 2565426 1
-0.009168 0.153268 0.910456 2433577 1
-0.083912 0.168216 0.910456 2697774 1
-0.068564 0.167244 0.905193 1578270 1
-0.053702 0.167244 0.905193 1906467 1
-0.039294 0.169200 0.915780 1906214 1
-0.024257 0.169200 0.915780 919319 1
-0.009221 0.169200 0.915780 1972258 1
-0.083912 0.183165 0.910456 2434602 1
-0.068963 0.183165 0.910456 2038821 1
-0.054330 0.184236 0.915780 1972512 1
-0.039294 0.184236 0.915780 1840672 3
-0.024400 0.185320 0.921167 2038053 3
-0.009275 0.185320 0.921167 3090993 3
-0.068963 0.198114 0.910456 4802637 3
-0.494417 0.205953 1.223425 658456 1
-0.486811 0.222563 1.204603 2895418 3
-0.467033 0.222563 1.204603 2304297 3
-0.454242 0.226041 1.223425 3290677 3
-0.434155 0.226041 1.223425 1974049 3
-0.407697 0.222563 1.204603 2894640 3
-0.486811 0.242342 1.204603 3816004 3
-0.467033 0.242342 1.204603 2303784 3
-0.461453 0.250035 1.242845 3224368 3
-0.441046 0.250035 1.242845 3289650 3
-0.420640 0.250035 1.242845 4012864 3
-0.486811 0.262120 1.204603 3223606 3
-0.467033 0.262120 1.204603 3026478 3
-0.454242 0.266216 1.223425 3881785 3
-0.441046 0.270441 1.242845 3684149 3
-0.414068 0.266216 1.223425 3749690 3
-0.467033 0.281898 1.204603 2696486 3
-0.452059 0.284927 1.217543 4012344 3
-0.434155 0.286303 1.223425 3814965 3
-0.414068 0.286303 1.223425 4012860 3
-0.594854 0.205953 1.223425 920593 1
-0.593308 0.212597 1.262890 1579034 1
-0.572573 0.212597 1.262890 1381912 1
-0.551837 0.212597 1.262890 1710626 1
-0.522672 0.209223 1.242845 1711147 1
-0.522672 0.229629 1.242845 1776940 3
-0.084899 0.200445 0.921167 3488058 3
-0.054649 0.200445 0.921167 7302512 3
-0.039525 0.200445 0.921167 8486786 3
-0.024400 0.200445 0.921167 8420995 3
-0.009275 0.200445 0.921167 8355200 3
0.309609 0.147769 0.972661 3684156 1
0.307697 0.162729 0.966657 1710877 1
0.313881 0.157857 0.937715 1973792 1
0.325381 0.155988 0.926618 2960174 1
0.303945 0.176422 0.954868 3092530 1
0.312013 0.172222 0.932133 3487031 1
0.321575 0.169200 0.915780 2038302 1
0.334654 0.168216 0.910456 3157555 1
0.347582 0.167244 0.905193 3157812 1
0.362445 0.167244 0.905193 1776419 1
0.305810 0.193279 0.960726 4539976 3
0.310167 0.186417 0.926618 6118751 3
0.321575 0.184236 0.915780 3157553 3
0.332720 0.182106 0.905193 2828590 3
0.347582 0.182106 0.905193 3026226 3
-0.154485 0.148693 0.978740 2828596 1
-0.170555 0.164763 0.978740 3157300 1
-0.154485 0.164763 0.978740 2631217 1
-0.138415 0.164763 0.978740 2236970 1
-0.122345 0.164763 0.978740 3223606 1
-0.172714 0.183122 0.991129 1973026 1
-0.154485 0.180833 0.978740 3223608 1
-0.138415 0.180833 0.978740 2106152 1
-0.119361 0.176422 0.954868 3026739 1
-0.102434 0.174297 0.943364 2697774 1
-0.172714 0.199395 0.991129 3552313 1
-0.154485 0.196903 0.978740 2697775 1
-0.138415 0.196903 0.978740 4869458 1
-0.119361 0.192100 0.954868 3158325 1
-0.103683 0.192100 0.954868 3619644 1
1.827411 0.230648 1.702157 1511709 1
1.896589 0.235774 1.739982 1249818 1
1.827411 0.258596 1.702157 1577504 1
1.855358 0.258596 1.702157 1051926 1
1.868020 0.292912 1.739982 1708577 1
1.855358 0.286544 1.702157 722963 1
0.304974 0.221038 1.631234 2499882 1
0.331757 0.221038 1.631234 3421244 1
0.358540 0.221038 1.631234 2631471 1
0.304974 0.247821 1.631234 2302757 1
0.331757 0.247821 1.631234 2303017 1
0.358540 0.247821 1.631234 2237224 1
0.009944 0.212197 1.565984 2105125 1
0.035656 0.212197 1.565984 2829361 1
0.061367 0.212197 1.565984 1250843 1
0.087079 0.212197 1.565984 2039332 1
0.009561 0.228758 1.505754 2697004 1
0.035656 0.237908 1.565984 3487290 1
0.061367 0.237908 1.565984 1447708 1
-0.433903 0.158356 1.168645 1447197 1
-0.402695 0.153766 1.134771 987157 1
-0.453091 0.177544 1.168645 1776673 1
-0.421326 0.172397 1.134771 1645087 1
-0.459956 0.199712 1.186352 2171945 1
-0.427522 0.193839 1.151459 2500395 1
-0.408617 0.193839 1.151459 1842465 1
-1.792332 0.331557 2.446850 1578529 1
-1.752157 0.331557 2.446850 986646 1
-1.711982 0.331557 2.446850 1249303 1
-1.752157 0.371732 2.446850 986646 1
-1.711982 0.371732 2.446850 920338 1
0.215826 0.211914 1.779528 1644574 1
0.245044 0.211914 1.779528 3091507 1
0.262338 0.202701 1.702157 2039332 1
0.211030 0.235774 1.739982 1907746 1
0.239599 0.235774 1.739982 2434090 1
-0.391351 0.167541 1.102806 1118742 1
-0.384063 0.172397 1.134771 2171430 1
-0.370805 0.174933 1.151459 2236713 1
-0.389711 0.193839 1.151459 2631468 1
-0.370805 0.193839 1.151459 1973539 1
-0.362563 0.199712 1.186352 2368297 1
-0.961649 0.116502 1.134771 1973030 1
-0.943017 0.116502 1.134771 920338 1
-0.980281 0.135134 1.134771 1446686 1
-0.947911 0.133203 1.118560 1315100 1
-0.943017 0.135134 1.134771 1446684 1
-0.966277 0.151569 1.118560 1380893 1
-0.947911 0.151569 1.118560 2236200 1
-0.998913 0.172397 1.134771 657938 1
-0.966277 0.169935 1.118560 328716 1
-0.929546 0.169935 1.118560 1051926 1
-0.063993 0.104142 1.491413 1249815 1
-0.038767 0.102195 1.463537 2302503 1
-0.014737 0.102195 1.463537 2039332 1
-0.039132 0.127416 1.477344 1579294 1
-0.015017 0.128629 1.491413 1513247 1
-0.089331 0.105143 1.505754 2236710 1
-0.091082 0.132413 1.535279 1776413 1
-0.064608 0.129866 1.505754 1973538 1
-0.091082 0.157620 1.535279 1841695 1
-0.065235 0.156090 1.520373 1578780 1
-0.015768 0.160773 1.565984 1316640 1
-0.015768 0.186485 1.565984 1777191 1
-0.605657 0.113905 1.631234 2103844 1
-0.673249 0.143682 1.665941 1248788 1
-0.632440 0.140688 1.631234 2301993 1
-0.618543 0.143682 1.665941 1644576 1
-0.686006 0.167472 1.631234 1512475 1
-0.659223 0.167472 1.631234 1644316 1
-0.632440 0.167472 1.631234 1051926 1
-0.605657 0.167472 1.631234 1644833 1
-0.686006 0.194255 1.631234 2236451 1
-0.659223 0.194255 1.631234 1380372 1
-0.632440 0.194255 1.631234 2170407 1
-0.605657 0.194255 1.631234 920853 1
-1.445888 0.147769 2.116195 1907748 1
-1.411142 0.147769 2.116195 1973030 1
-1.480633 0.182515 2.116195 328714 1
-1.445888 0.182515 2.116195 920340 1
-1.411142 0.182515 2.116195 2170409 1
-0.529969 0.203167 0.677915 3157812 3
-0.578384 0.220012 0.695993 1973026 3
-0.566956 0.220012 0.695993 2434343 3
-0.575825 0.230416 0.692913 3289398 3
-0.561980 0.229408 0.689884 2894894 3
-0.514379 0.214296 0.644438 3421495 3
-0.506672 0.215519 0.648115 2368809 3
-0.507188 0.221734 0.635430 3224119 3
-0.506159 0.225931 0.647459 3224888 3
-0.505201 0.230341 0.660097 2434602 3
-0.502238 0.240232 0.629228 1645601 3
-0.502110 0.250500 0.629068 3356219 3
-0.500102 0.259785 0.626551 2632496 3
-0.500228 0.270140 0.626709 3093047 3
0.009040 0.052659 1.423622 1578270 1
0.033637 0.054646 1.477344 1710880 1
0.057894 0.054646 1.477344 1579293 1
0.009040 0.076034 1.423622 1315608 1
0.033637 0.078903 1.477344 1118742 1
0.057894 0.078903 1.477344 1315609 1
-0.085233 0.053142 1.436683 1842984 1
-0.062215 0.053634 1.449985 1579291 1
-0.037709 0.052659 1.423622 1052439 1
-0.014335 0.052659 1.423622 1445914 1
-0.085233 0.076731 1.436683 1448222 1
-0.062215 0.077442 1.449985 1710879 1
-0.037709 0.076034 1.423622 1841952 1
-0.014335 0.076034 1.423622 1249816 1
0.005849 0.200445 0.921167 7763574 3
0.020974 0.200445 0.921167 7237743 3
0.039088 0.217042 0.997442 6711913 3
0.036220 0.216297 0.924278 6910057 3
0.053294 0.224283 0.958400 5988444 3
0.036220 0.231473 0.924278 7238511 3
0.053045 0.238900 0.953934 6449252 3
0.071785 0.249600 0.996658 6317409 3
0.087109 0.246654 0.984896 5987676 3
0.051310 0.246236 0.922730 7107184 3
0.067540 0.250235 0.937715 6448227 3
0.082936 0.250235 0.937715 7435122 3
0.097139 0.247199 0.926338 7763833 3
0.066891 0.263079 0.928706 7566454 3
0.081776 0.261914 0.924594 6513766 3
0.096209 0.259894 0.917464 5790045 3
0.064906 0.270068 0.901145 6184803 3
0.083125 0.281668 0.939854 5724252 3
0.098115 0.280406 0.935643 6250596 3
0.607802 0.016778 0.815617 1775908 1
0.627732 0.016954 0.824202 1643295 1
0.607802 0.030169 0.815617 1775397 1
0.627732 0.030487 0.824202 1577502 1
0.600667 0.044019 0.824202 1380125 1
0.607802 0.043561 0.815617 1445916 1
0.634410 0.044488 0.832970 1248537 1
0.600667 0.057552 0.824202 1511711 1
0.607802 0.056953 0.815617 1314332 1
0.621194 0.056953 0.815617 1709088 1
0.600667 0.071085 0.824202 1249054 1
-0.877632 0.020133 0.978740 919824 1
-0.810882 0.018949 0.921167 2433579 1
-0.877632 0.036203 0.978740 1314069 1
-0.861562 0.036203 0.978740 986133 1
-0.888741 0.052935 0.991129 788237 1
0.566028 0.003458 0.832970 1709854 1
0.573602 0.003422 0.824202 1184022 1
0.587135 0.003422 0.824202 920851 1
0.552351 0.017135 0.832970 1643295 1
0.566028 0.017135 0.832970 1314328 1
0.573602 0.016954 0.824202 1973026 1
0.581019 0.016778 0.815617 788752 1
0.594410 0.016778 0.815617 1118232 1
0.527452 0.030169 0.815617 2235179 1
0.546537 0.030487 0.824202 1774883 1
0.566028 0.030811 0.832970 1840672 1
0.579704 0.030811 0.832970 1314582 1
0.587135 0.030487 0.824202 985363 1
0.594410 0.030169 0.815617 1183771 1
0.527452 0.043561 0.815617 1840421 1
0.552351 0.044488 0.832970 1709090 1
0.566028 0.044488 0.832970 1380891 1
0.579704 0.044488 0.832970 1907488 1
0.587135 0.044019 0.824202 1578270 1
0.579704 0.058164 0.832970 1184023 1
0.587135 0.057552 0.824202 986135 1
-0.688966 0.010486 2.525781 1907494 1
-0.647495 0.010486 2.525781 1248535 1
-0.688966 0.051957 2.525781 920853 1
-0.647495 0.051957 2.525781 854545 1
-0.688966 0.093428 2.525781 1578781 1
-0.647495 0.093428 2.525781 1249558 1
-0.771556 0.003780 0.910456 723472 1
-0.756607 0.003780 0.910456 1249818 1
-0.765143 0.004063 0.978740 1445916 1
-0.786505 0.018729 0.910456 526093 1
-0.771556 0.018729 0.910456 1447197 1
-0.756607 0.018729 0.910456 855060 1
-0.750384 0.018949 0.921167 1446686 1
-0.762159 0.019642 0.954868 1511709 1
-0.765143 0.020133 0.978740 1116949 1
-0.786505 0.033677 0.910456 1315096 1
-0.771556 0.033677 0.910456 526095 1
-0.750384 0.034074 0.921167 459789 1
-0.735259 0.034074 0.921167 1445914 1
-0.733003 0.036203 0.978740 1447197 1
-0.795758 0.049198 0.921167 1315098 1
-0.720134 0.049198 0.921167 853777 1
-0.749073 0.052273 0.978740 1314328 1
0.519550 0.138092 0.551403 2236710 3
0.506268 0.145926 0.546836 3552570 3
0.514119 0.145607 0.545639 3355191 3
0.523078 0.145607 0.545639 3947069 3
0.529506 0.144914 0.543043 3025967 3
0.507052 0.152441 0.538139 5328724 3
0.518343 0.153166 0.540699 3749690 3
0.525746 0.152738 0.539188 2762795 3
0.501878 0.159631 0.532648 4605001 3
0.511932 0.160040 0.534012 3881276 3
0.501878 0.168377 0.532648 5460308 3
0.034956 0.107205 1.535279 2105637 1
0.060164 0.107205 1.535279 2170918 1
0.085372 0.107205 1.535279 2105127 1
0.035656 0.135061 1.565984 2171430 1
0.060164 0.132413 1.535279 1118230 1
0.085372 0.132413 1.535279 1381402 1
0.009944 0.160773 1.565984 1776673 1
0.035656 0.160773 1.565984 2303017 1
0.061367 0.160773 1.565984 1841953 1
0.085372 0.157620 1.535279 1973539 1
0.009944 0.186485 1.565984 2829107 1
0.035656 0.186485 1.565984 1513501 1
0.062620 0.190290 1.597943 1908773 1
0.088856 0.190290 1.597943 1645086 1
-1.635451 -1.639865 2.007672 788754 1
-1.602487 -1.639865 2.007672 1117721 1
-1.635451 -1.606901 2.007672 131083 1
-1.666587 -1.671177 2.087979 789013 1
-1.632304 -1.671177 2.087979 1117980 1
