# .PCD v0.7
VERSION 0.7
FIELDS x y z rgb label
SIZE 4 4 4 4 4
TYPE F F F U U
COUNT 1 1 1 1 1
WIDTH 1135
HEIGHT 1
VIEWPOINT 0 0 0 1 0 0 0
POINTS 1135
DATA ascii
0.215382 0.181639 0.497138 8684935 3
0.223634 0.181712 0.497336 8421506 3
0.206769 0.189389 0.496056 8026748 3
0.214700 0.189201 0.495565 8092539 3
0.222881 0.189239 0.495663 8093052 3
0.231707 0.189802 0.497138 9079693 3
0.239965 0.189877 0.497336 8223873 3
0.249070 0.190596 0.499219 8157568 3
0.256399 0.189953 0.497534 8880523 3
0.058635 0.204299 0.559156 8750467 3
0.067590 0.203617 0.557290 8684676 3
0.076183 0.202138 0.553243 8816775 3
0.084723 0.200849 0.549715 8750982 3
0.067590 0.212767 0.557290 8882568 3
0.076350 0.211687 0.554460 9014154 3
0.084723 0.209875 0.549715 9079947 3
0.091857 0.205640 0.538624 8487808 3
0.099796 0.203794 0.533788 9276811 3
0.083476 0.215680 0.541626 8093052 3
0.091032 0.212558 0.533788 7435120 3
0.099121 0.211119 0.530173 9014152 3
0.090610 0.220297 0.531313 8289918 3
0.098454 0.218346 0.526608 9277326 3
0.091429 0.231090 0.536115 9342606 3
-0.068964 0.201574 0.551698 7303534 3
-0.060594 0.203891 0.558041 7829365 3
-0.052059 0.206380 0.564853 6250333 3
-0.042977 0.207306 0.567386 8289659 3
-0.082987 0.200731 0.525764 7894131 3
-0.077372 0.208879 0.547106 6907234 3
-0.297802 0.216473 0.592476 3748922 3
-0.288414 0.216729 0.593176 5262931 3
-0.294641 0.216720 0.567644 2235684 3
-0.287272 0.218203 0.571527 2959407 3
-0.273794 0.214988 0.563107 2302246 3
-0.258961 0.210447 0.551214 7697783 3
-0.248248 0.209047 0.547547 4868430 3
-0.222390 0.228679 0.598969 5527125 3
-0.211604 0.227656 0.596289 5264471 3
-0.280185 0.221972 0.557427 4012864 3
-0.268011 0.219498 0.551214 5065550 3
-0.256010 0.216996 0.544933 5855577 3
-0.244203 0.214484 0.538624 6381669 3
-0.234342 0.213557 0.536296 5131856 3
-0.225536 0.213557 0.536296 7368818 3
-0.232534 0.229129 0.575401 5066061 3
-0.228789 0.234986 0.590110 6514016 3
-0.213138 0.228592 0.574051 7238257 3
-0.201347 0.225937 0.567386 6119778 3
-0.291355 0.225599 0.544102 3750714 3
-0.280289 0.223896 0.539995 3552313 3
-0.272718 0.224965 0.542573 4539206 3
-0.263126 0.224382 0.541166 5526612 3
-0.250155 0.220776 0.532469 7697779 3
-0.242120 0.221424 0.534031 8290177 3
-0.231098 0.219285 0.528872 7961212 3
-0.224117 0.220964 0.532922 6777192 3
-0.216731 0.222363 0.536296 8290431 3
-0.221898 0.237305 0.572335 7369327 3
-0.207103 0.231278 0.557798 6975085 3
-0.291355 0.234533 0.544102 5132365 3
-0.280289 0.232762 0.539995 5329235 3
-0.314952 0.214900 0.588171 3750201 3
-0.301406 0.212162 0.580678 4538436 3
-0.399238 0.223088 0.584322 2894894 3
-0.351145 0.211459 0.553864 3750462 3
-0.340531 0.210519 0.551403 4079166 3
-0.333094 0.211546 0.554091 2631209 3
-0.327923 0.214110 0.560807 2564646 3
-0.320063 0.215015 0.563177 4276545 3
-0.309911 0.214389 0.561538 4210752 3
-0.303480 0.216377 0.566745 4276547 3
-0.388535 0.221130 0.555314 5263442 3
-0.377580 0.220060 0.552625 5066063 3
-0.366805 0.219043 0.550073 5132883 3
-0.358245 0.219332 0.550798 4145735 3
-0.349585 0.219573 0.551403 4605769 3
-0.340759 0.219719 0.551771 5000268 3
-0.334869 0.221819 0.557044 2565416 3
-0.323564 0.220349 0.553351 4406850 3
-0.314548 0.220398 0.553474 3750201 3
-0.398296 0.225451 0.543745 3947839 3
-0.389368 0.225451 0.543745 4276804 3
-0.380440 0.225451 0.543745 5855579 3
-0.371513 0.225451 0.543745 5131856 3
-0.360866 0.224382 0.541166 2961714 3
-0.357191 0.227704 0.549177 3619644 3
-0.350743 0.229384 0.553230 3684921 3
-0.340682 0.228728 0.551647 3158064 3
-0.333755 0.230197 0.555191 2368037 3
-0.323492 0.229384 0.553230 4736585 3
-0.311797 0.227478 0.548633 5789784 3
-0.301136 0.226237 0.545639 3684919 3
-0.322780 0.237942 0.552012 4144448 3
-0.311797 0.236486 0.548633 6119262 3
-0.301136 0.235195 0.545639 4540996 3
-0.491028 0.203807 0.557810 4276294 3
-0.494370 0.209094 0.572281 2960433 3
-0.498854 0.215079 0.588661 3486777 3
-0.464996 0.201675 0.528238 3092019 3
-0.488251 0.215786 0.565198 2565675 3
-0.448711 0.228745 0.599141 3947841 3
-0.435541 0.227008 0.594591 4934734 3
-0.420407 0.224144 0.587089 4276804 3
-0.408832 0.223088 0.584322 4539719 3
-0.455951 0.214249 0.538034 3223605 3
-0.438642 0.233228 0.585695 3224116 3
-0.423692 0.230329 0.578415 5263699 3
-0.402221 0.223671 0.561693 3750460 3
-0.464404 0.241241 0.581828 3158064 3
-0.444312 0.240707 0.580539 4671305 3
-0.436742 0.241793 0.583159 2039842 3
-0.113346 0.190983 0.547306 5131856 3
-0.101310 0.185402 0.531313 6973547 3
-0.119267 0.194959 0.533593 6184542 3
-0.108829 0.192001 0.525498 7434611 3
-0.100201 0.192001 0.525498 7565682 3
-0.114836 0.196152 0.513771 8092798 3
-0.104387 0.192439 0.504046 5987676 3
-0.142663 0.207483 0.594591 5460821 3
-0.129258 0.201796 0.578292 6316128 3
-0.148611 0.211808 0.579707 4539466 3
-0.133810 0.203764 0.557692 5460821 3
-0.173267 0.228745 0.599141 5525333 3
-0.159717 0.223548 0.585528 5459540 3
-0.143645 0.213931 0.560338 7762810 3
-0.129809 0.206554 0.541017 7434357 3
-0.195972 0.230574 0.579030 7566197 3
-0.189142 0.233885 0.587343 8158334 3
-0.179918 0.234431 0.588716 5789273 3
-0.168518 0.232044 0.582720 6841191 3
-0.152845 0.223131 0.560338 7894649 3
-0.137415 0.213453 0.536034 7368564 3
-0.192043 0.224382 0.541166 7106673 3
-0.191076 0.234083 0.564562 7500402 3
-0.187305 0.241162 0.581637 7829880 3
-0.179499 0.243528 0.587343 7434096 3
-0.166011 0.238017 0.574051 8091512 3
-0.148937 0.226391 0.546011 8355198 3
-0.372926 0.235792 0.675717 4407618 3
-0.340745 0.222051 0.636338 4144959 3
-0.327757 0.220343 0.631445 5197134 3
-0.317389 0.220343 0.631445 4868171 3
-0.360988 0.232079 0.635188 4210493 3
-0.335173 0.221893 0.607312 4539204 3
-0.305101 0.237280 0.649425 5263442 3
0.050052 0.188183 0.565910 7565944 3
0.060457 0.191715 0.576531 9408401 3
0.090715 0.195726 0.588594 8948107 3
0.085782 0.194222 0.556589 9540498 3
0.092771 0.198755 0.543982 8948361 3
-0.060728 0.185978 0.559280 4342338 3
-0.052059 0.187831 0.564853 5789784 3
-0.093503 0.187238 0.536574 7170156 3
-0.085233 0.188432 0.539995 9472911 3
-0.077856 0.192107 0.550526 8026744 3
-0.069415 0.193777 0.555314 7435120 3
-0.060594 0.194729 0.558041 7039849 3
-0.051801 0.196126 0.562046 7829365 3
-0.042880 0.197545 0.566110 9144968 3
-0.091573 0.192001 0.525498 7170156 3
-0.084117 0.194713 0.532922 7696754 3
-0.076568 0.197817 0.541417 8552829 3
-0.097581 0.195384 0.511760 7368816 3
-0.089991 0.197163 0.516420 7630961 3
0.241629 0.217521 0.688111 8158330 3
0.203962 0.202622 0.609332 8618881 3
0.213966 0.202622 0.609332 8553090 3
0.202436 0.211036 0.604774 8816262 3
0.213137 0.211803 0.606971 9342608 3
-0.186028 0.203344 0.643266 7500915 3
-0.180846 0.209579 0.662989 6974060 3
-0.176196 0.217269 0.687313 8421252 3
-0.195511 0.212733 0.639736 5395285 3
-0.181605 0.208821 0.627972 4934475 3
-0.170864 0.208296 0.626394 4276547 3
-0.157991 0.204939 0.616300 5723740 3
-0.160166 0.221978 0.667538 5723993 3
-0.190871 0.217939 0.624554 5000016 3
-0.177780 0.214516 0.614747 3487031 3
-0.166859 0.213458 0.611713 5394515 3
-0.154346 0.210097 0.602082 6250084 3
-0.196990 0.223501 0.611713 5065810 3
-0.185950 0.222310 0.608452 6842220 3
-0.175531 0.221769 0.606971 5789273 3
-0.163828 0.219441 0.600600 6512998 3
-0.194993 0.231178 0.605512 7894908 3
-0.184516 0.230509 0.603761 5920861 3
-0.219860 0.215819 0.682729 5658459 3
-0.203271 0.210256 0.665129 6184801 3
-0.228361 0.224368 0.674727 6513507 3
-0.213020 0.219967 0.661491 5724252 3
-0.239440 0.235447 0.674727 5789786 3
-0.223881 0.230828 0.661491 5000527 3
-0.206015 0.223236 0.639736 4013635 3
-0.239965 0.236140 0.646305 5855577 3
-0.217612 0.224051 0.613218 5329492 3
-0.207034 0.223501 0.611713 5790045 3
-0.258875 0.254924 0.667709 6579809 3
-0.203362 0.229403 0.600865 6381923 3
-0.487557 0.215229 0.680863 2632747 3
-0.483929 0.218641 0.691655 4343365 3
-0.495002 0.219787 0.660950 3947328 3
-0.493289 0.223936 0.673427 3750714 3
-0.486897 0.226102 0.679942 3290677 3
-0.483929 0.229997 0.691655 2829612 3
-0.469122 0.218581 0.626394 2434089 3
-0.484918 0.231005 0.661999 3816507 3
-0.487557 0.237588 0.680863 3684919 3
-0.486797 0.242784 0.695754 3355956 3
-0.476634 0.227542 0.622771 1973538 3
-0.458127 0.223501 0.611713 3289398 3
-0.450509 0.224711 0.615024 3290163 3
-0.446345 0.227739 0.623311 2500645 3
-0.456142 0.238199 0.651940 2632233 3
-0.453371 0.242442 0.663553 3355704 3
-0.488053 0.243463 0.637691 3157812 3
-0.479016 0.238978 0.600134 3816253 3
-0.497654 0.253491 0.636579 4736844 3
-0.462017 0.240387 0.603673 4605258 3
-0.474920 0.251885 0.607499 4013375 3
-0.524558 0.216660 0.685389 2631468 3
-0.517258 0.218329 0.690668 1447194 3
-0.500103 0.215819 0.682729 2829358 3
-0.512229 0.217883 0.655223 3092530 3
-0.501471 0.217883 0.655223 2565675 3
-0.534361 0.215852 0.618576 2434090 3
-0.541664 0.223041 0.639177 3815485 3
-0.531305 0.223099 0.639341 4473672 3
-0.522943 0.224013 0.641962 2828847 3
-0.517585 0.226279 0.648455 2434600 3
-0.513709 0.229301 0.657116 3816253 3
-0.500751 0.228312 0.654282 3355191 3
-0.524743 0.230711 0.631445 3881535 3
-0.514506 0.230769 0.631605 2237221 3
-0.509019 0.233005 0.637724 2303014 3
-0.504584 0.235826 0.645443 1645084 3
-0.521486 0.234940 0.615367 2039331 3
-0.524743 0.241079 0.631445 1776672 3
-0.514506 0.241140 0.631605 2566188 3
-0.507723 0.242856 0.636100 2303784 3
-0.501733 0.245031 0.641797 2303016 3
-0.522636 0.250437 0.628909 3092019 3
-0.509440 0.249034 0.625387 3421495 3
-0.500365 0.254683 0.614246 3815994 3
0.493133 0.159631 0.532648 3881023 3
0.467398 0.165458 0.523415 5855066 3
0.479596 0.166711 0.527379 6381410 3
0.489698 0.167204 0.528937 5657947 3
0.496809 0.166676 0.527267 6184291 3
0.467398 0.174052 0.523415 7499891 3
0.479495 0.175333 0.527267 7763063 3
0.488152 0.175333 0.527267 6184290 3
0.455501 0.177997 0.510093 4999757 3
0.463971 0.178034 0.510197 6249824 3
0.473794 0.178579 0.511760 4934223 3
0.439192 0.183066 0.501042 5986399 3
0.449642 0.183975 0.503532 5197138 3
0.459854 0.184757 0.505670 5065550 3
0.147494 0.201109 0.671048 4934475 3
0.165139 0.209516 0.699100 7763574 3
0.162016 0.202725 0.641305 8092280 3
0.178063 0.209207 0.661810 8157821 3
0.193252 0.201886 0.607118 8158330 3
0.181830 0.210174 0.602302 8092026 3
0.192228 0.210732 0.603900 8684676 3
0.113479 0.181905 0.606971 5460817 3
0.123775 0.182392 0.608594 5723480 3
0.103264 0.191410 0.605512 7434868 3
0.113479 0.191871 0.606971 8026235 3
0.123775 0.192384 0.608594 9210507 3
0.138835 0.199673 0.631652 7895158 3
0.145566 0.194802 0.616243 7171178 3
0.178280 0.197414 0.624506 7828856 3
0.182576 0.191177 0.604774 8947335 3
0.193159 0.191825 0.606824 7434607 3
-0.252576 0.235057 0.784323 6118497 3
-0.231779 0.227291 0.758410 4868684 3
-0.211622 0.219306 0.731768 6974056 3
-0.206334 0.226697 0.756430 6974058 3
-0.200887 0.234850 0.783632 6645095 3
-0.246988 0.230687 0.729762 5395026 3
-0.257085 0.240903 0.724452 5789784 3
-0.268980 0.252798 0.724452 6381921 3
-0.284598 0.268202 0.734055 4605508 3
0.303037 0.166575 0.588035 6118497 3
0.300858 0.174963 0.583806 4671051 3
0.313042 0.176428 0.588693 6315877 3
0.309313 0.183877 0.581680 8224387 3
0.359116 0.175542 0.555314 4934477 3
0.368234 0.175542 0.555314 5920859 3
0.375525 0.174692 0.552625 7303023 3
0.302421 0.189117 0.568719 7500151 3
0.331619 0.184579 0.555072 8355972 3
0.333779 0.180812 0.543745 5329495 3
0.341082 0.179955 0.541166 6513769 3
0.349210 0.179565 0.539995 7237232 3
0.358810 0.171443 0.515570 5658198 3
0.365831 0.170769 0.513543 5395285 3
0.332392 0.184029 0.527379 6645871 3
0.342059 0.184573 0.528937 6908527 3
0.346090 0.182124 0.521919 7500663 3
0.347756 0.178579 0.511760 7303025 3
0.354568 0.177782 0.509475 5263440 3
0.360587 0.176632 0.506181 3223857 3
0.358700 0.183975 0.503532 7368816 3
0.265447 0.224642 0.793019 7434609 3
0.274947 0.221802 0.782992 6645352 3
0.287803 0.221802 0.782992 5790043 3
0.226577 0.213325 0.711811 7566193 3
0.238264 0.213325 0.711811 6316126 3
0.263429 0.224828 0.750193 7566195 3
0.290077 0.236512 0.789180 7303282 3
0.264803 0.227734 0.720420 7631988 3
0.275834 0.227077 0.718341 7237743 3
-0.047400 0.226328 0.798972 7237232 3
-0.034293 0.226401 0.799228 7829369 3
-0.007932 0.223147 0.787742 6645095 3
-0.059891 0.236965 0.790691 5723991 3
-0.046700 0.235911 0.787175 6316130 3
-0.034065 0.237931 0.793915 5395028 3
-0.021157 0.239371 0.798718 5855066 3
-0.007976 0.237404 0.792156 7302512 3
-0.071673 0.245829 0.777662 6250335 3
-0.058776 0.245294 0.775970 4933962 3
-0.046685 0.248758 0.786927 7303023 3
-0.033893 0.249701 0.789910 7105133 3
-0.021056 0.251283 0.794916 5262161 3
-0.007976 0.250411 0.792156 7828088 3
-0.053801 0.236192 0.710285 6184029 3
-0.045992 0.257792 0.775240 8026746 3
-0.033492 0.259564 0.780569 3421238 3
-0.021031 0.264023 0.793978 4933966 3
-0.033762 0.274572 0.786851 7303025 3
-0.289821 0.242574 0.856320 6249824 3
-0.281844 0.247925 0.875210 6314849 3
-0.269911 0.250184 0.883184 4406850 3
-0.251027 0.245890 0.868026 4736585 3
-0.226299 0.235011 0.829621 5197136 3
-0.209087 0.231044 0.815617 4671305 3
-0.294227 0.248481 0.829117 4999757 3
-0.283426 0.250971 0.837425 6579302 3
-0.292483 0.260541 0.824202 5328720 3
0.605977 0.207840 0.778848 3354679 3
0.610420 0.200885 0.752786 1644316 3
0.612256 0.201638 0.711811 4670792 3
0.602369 0.237028 0.790901 6908267 3
0.615355 0.237028 0.790901 7697529 3
0.615636 0.232235 0.774909 7433847 3
0.602467 0.222666 0.742978 7565433 3
0.600569 0.213325 0.711811 6249824 3
0.612256 0.213325 0.711811 6512996 3
0.608516 0.252565 0.798972 6381412 3
0.621242 0.252406 0.798467 6249826 3
0.602369 0.263000 0.790901 6644841 3
0.615355 0.263000 0.790901 5657946 3
0.566919 0.207586 0.777895 5197649 3
0.543835 0.211386 0.746221 5592405 3
0.575943 0.218933 0.772865 5460821 3
0.590441 0.219606 0.775240 7105392 3
0.599105 0.218126 0.770014 5920606 3
0.590268 0.210467 0.742978 5920608 3
0.585892 0.204677 0.722537 4407367 3
0.586922 0.200967 0.709443 4276036 3
0.546038 0.224543 0.749242 6316641 3
0.587542 0.236287 0.788430 6185055 3
0.594041 0.215194 0.718048 7236721 3
0.517012 0.224255 0.709415 5987165 3
0.591677 0.250987 0.793978 6381410 3
0.295629 0.158122 0.592537 7105135 3
0.280823 0.164870 0.582016 6513255 3
0.289371 0.164298 0.579994 5657946 3
0.254563 0.169662 0.566120 5328982 3
0.269327 0.173179 0.577854 4605259 3
0.278815 0.173179 0.577854 8750218 3
0.288303 0.173179 0.577854 7565943 3
0.276647 0.181246 0.573360 9605526 3
0.284109 0.180010 0.569449 8881803 3
0.297195 0.182302 0.576699 7171698 3
0.282058 0.187993 0.565337 8750217 3
0.292066 0.188461 0.566745 8816010 3
0.287193 0.194467 0.557290 7697272 3
0.233329 0.182910 0.500617 8816523 3
0.244281 0.184979 0.506280 8618631 3
0.250627 0.183539 0.502338 9078925 3
0.257935 0.182873 0.500516 8749190 3
0.267757 0.183975 0.503532 9143949 3
0.043406 0.208306 0.780595 7172718 3
0.004947 0.220698 0.779097 7500402 3
0.017947 0.223286 0.788231 6119260 3
0.042809 0.218080 0.769854 6843499 3
0.005022 0.237028 0.790901 6579302 3
0.018031 0.237334 0.791920 7237230 3
0.056371 0.234557 0.782656 5922401 3
0.005027 0.250254 0.791662 7763061 3
0.043230 0.245756 0.777431 7105906 3
0.052849 0.231947 0.733747 7105652 3
0.018000 0.288847 0.790560 9539987 3
-0.395534 0.261182 0.978740 4736583 3
-0.379464 0.261182 0.978740 6511965 3
-0.366556 0.263455 0.987258 6446685 3
-0.351721 0.264489 0.991129 6249308 3
-0.335447 0.264489 0.991129 4999755 3
-0.398010 0.226077 0.847186 5986650 3
-0.367891 0.238497 0.841927 5197395 3
-0.354068 0.238497 0.841927 4737098 3
-0.337756 0.236752 0.835769 5460560 3
-0.323056 0.236038 0.833249 6380892 3
-0.313236 0.238984 0.843649 6446687 3
-0.302645 0.241587 0.852838 3947067 3
-0.338831 0.241462 0.805696 5460821 3
-0.333191 0.247090 0.824475 5789782 3
-0.322414 0.249223 0.831593 6775652 3
-0.309169 0.249553 0.832695 4736583 3
-0.328876 0.257251 0.813796 5329231 3
-0.320711 0.261489 0.827200 6249822 3
-0.306522 0.260972 0.825565 4802378 3
-0.351596 0.267567 0.804634 3684667 3
-0.329088 0.270788 0.814322 5263438 3
-0.319972 0.274437 0.825295 3815481 3
-0.302148 0.270609 0.813784 4604997 3
-0.355818 0.284149 0.814296 5526873 3
-0.325599 0.281146 0.805689 6118747 3
-0.317568 0.285824 0.819095 5328720 3
-0.354519 0.296433 0.811324 7237492 3
-0.339319 0.294801 0.806856 4276806 3
-0.390884 0.207524 0.777662 4539719 3
-0.374397 0.205483 0.770014 2763308 3
-0.389666 0.219606 0.775240 5000270 3
-0.374397 0.218126 0.770014 5132113 3
-0.361972 0.218257 0.770478 5855836 3
-0.353370 0.220786 0.779408 6052958 3
-0.391605 0.233490 0.779097 5066574 3
-0.377524 0.232696 0.776445 4474183 3
-0.365455 0.233129 0.777891 5132883 3
-0.353451 0.233637 0.779586 5000527 3
-0.347477 0.238319 0.795208 4868941 3
-0.393563 0.247514 0.782992 4868680 3
-0.379405 0.246667 0.780314 4079168 3
-0.367279 0.247129 0.781775 3881789 3
-0.355219 0.247670 0.783486 3947839 3
-0.347799 0.251608 0.795945 3355702 3
-0.332609 0.250014 0.790901 3421495 3
-0.385718 0.247108 0.743111 5132106 3
-0.371286 0.245632 0.738672 5526612 3
-0.359157 0.245632 0.738672 5658200 3
-0.356385 0.252254 0.758587 4868684 3
-0.354387 0.259924 0.781652 4737609 3
-0.332466 0.262886 0.790560 4671562 3
-0.340557 0.244411 0.700417 4473672 3
-0.350604 0.260415 0.746281 3684410 3
-0.353774 0.272286 0.780299 4276806 3
-0.333571 0.276783 0.793187 6316387 3
-0.339693 0.273751 0.749242 5000529 3
-0.318445 0.287906 0.787986 3355441 3
-0.312365 0.272923 0.714853 6184290 3
-0.448642 0.210662 0.789423 2368296 3
-0.434302 0.209996 0.786927 3552824 3
-0.421382 0.209996 0.786927 4408642 3
-0.407057 0.209274 0.784222 4803148 3
-0.460143 0.222916 0.786927 2762795 3
-0.445685 0.222150 0.784222 5460819 3
-0.432131 0.221802 0.782992 4539715 3
-0.419275 0.221802 0.782992 5527123 3
-0.403652 0.220292 0.777662 6513509 3
-0.479011 0.215282 0.718341 2762793 3
-0.485928 0.223904 0.747110 2960172 3
-0.465156 0.219883 0.733694 4670792 3
-0.451832 0.219264 0.731625 4078657 3
-0.453028 0.225849 0.753598 4341827 3
-0.448181 0.229706 0.766469 3223344 3
-0.437875 0.230907 0.770478 5460819 3
-0.428120 0.232480 0.775724 4802889 3
-0.419275 0.234658 0.782992 4408644 3
-0.405029 0.233855 0.780314 5066061 3
-0.483203 0.223559 0.707214 5658198 3
-0.479011 0.227077 0.718341 5789271 3
-0.467217 0.227077 0.718341 5526101 3
-0.457131 0.227929 0.721037 5131856 3
-0.455817 0.233316 0.738079 3749690 3
-0.448968 0.236087 0.746844 3618102 3
-0.446676 0.241477 0.763895 3749688 3
-0.437210 0.243188 0.769308 4473411 3
-0.428120 0.245216 0.775724 4144446 3
-0.419275 0.247514 0.782992 5329233 3
-0.406419 0.247514 0.782992 4540228 3
-0.483063 0.235103 0.707009 4473926 3
-0.478328 0.238530 0.717316 5789786 3
-0.467351 0.238940 0.718548 3618363 3
-0.457922 0.240182 0.722284 3158066 3
-0.456338 0.245715 0.738921 3420723 3
-0.446699 0.247094 0.743069 4868169 3
-0.442767 0.251796 0.757209 4604997 3
-0.436261 0.255264 0.767639 4670790 3
-0.420830 0.253561 0.762516 5065548 3
-0.404372 0.251115 0.755161 4934473 3
-0.484975 0.247688 0.709807 4408390 3
-0.486971 0.254831 0.730278 3749949 3
-0.493393 0.264710 0.758587 3882049 3
-0.493369 0.271552 0.778194 2763567 3
-0.486913 0.275123 0.788430 4539717 3
-0.472184 0.274088 0.785464 4408133 3
-0.451671 0.269543 0.772437 4604997 3
-0.424943 0.260919 0.747724 3947067 3
-0.476915 0.261311 0.715197 3553084 3
-0.493393 0.277165 0.758587 3158074 3
-0.480243 0.276764 0.757490 3947841 3
-0.481101 0.284630 0.779019 4013373 3
-0.472184 0.286985 0.785464 4276547 3
-0.419187 0.261928 0.716884 4078653 3
0.507485 0.191662 0.765310 3158066 3
0.596004 0.180420 0.720420 2631209 3
0.531583 0.199133 0.746221 6118240 3
0.586922 0.189319 0.709443 2697004 3
0.595496 0.188347 0.705799 2960174 3
0.595496 0.199935 0.705799 6184031 3
0.427715 0.174497 0.696771 4012609 3
0.432254 0.171755 0.685820 2828590 3
0.406188 0.186559 0.699100 8092028 3
0.415011 0.185373 0.694656 8025982 3
0.419676 0.182442 0.683675 6381157 3
0.426585 0.180615 0.676827 6710377 3
0.435277 0.179616 0.673083 5986911 3
0.427555 0.172061 0.644772 5789786 3
0.448301 0.176051 0.659722 6052704 3
0.486537 0.186559 0.699100 6184033 3
0.406188 0.198037 0.699100 8157821 3
0.415011 0.196778 0.694656 8092030 3
0.423473 0.195420 0.689861 7368307 3
0.432189 0.194247 0.685719 7171185 3
0.442231 0.193713 0.683836 7039853 3
0.449427 0.191991 0.677757 5987422 3
0.458678 0.191209 0.674993 6250594 3
0.469760 0.191209 0.674993 5395026 3
0.492649 0.195903 0.691567 5987161 3
0.303157 0.206551 0.824764 6514538 3
0.311563 0.203202 0.811391 6908778 3
0.323734 0.202482 0.808515 7500402 3
0.351716 0.211318 0.843799 6842472 3
0.364597 0.210755 0.841552 6381921 3
0.364045 0.202753 0.809596 5329233 3
0.353551 0.235629 0.882981 6381921 3
0.372820 0.229638 0.860532 6974058 3
0.337136 0.248712 0.877988 5592918 3
0.256923 0.225391 0.899991 7763322 3
0.259649 0.215394 0.860072 7369329 3
0.267995 0.210849 0.841927 7106155 3
0.280782 0.210074 0.838832 7501690 3
0.291921 0.208196 0.831332 6909296 3
0.206045 0.232771 0.872275 7039338 3
0.213790 0.225824 0.846240 6447462 3
0.224720 0.222884 0.835221 6447205 3
0.234364 0.219080 0.820969 7565686 3
0.246309 0.217723 0.815884 8486784 3
0.260979 0.218792 0.819887 6316126 3
0.271523 0.216465 0.811170 5790811 3
0.283450 0.215408 0.807208 5922401 3
0.296515 0.215271 0.806694 7237491 3
0.201382 0.241501 0.852532 7039338 3
0.213423 0.239307 0.844787 6315617 3
0.223906 0.235740 0.832197 6446435 3
0.233979 0.232178 0.819620 6183263 3
0.244483 0.229406 0.809836 7499375 3
0.256943 0.228662 0.807208 7368557 3
0.220522 0.245635 0.819620 6643814 3
0.232837 0.244435 0.815617 7631479 3
0.241902 0.240141 0.801286 6184029 3
-0.222421 0.249210 0.995100 4605512 3
-0.203496 0.246082 0.982612 4737358 3
-0.270225 0.264362 0.990657 5657687 3
-0.244670 0.254692 0.954419 5329233 3
-0.220918 0.245705 0.920740 4473924 3
-0.203502 0.242960 0.910456 4342597 3
0.603987 0.208002 0.888832 3354934 3
0.606317 0.203878 0.871210 4078404 3
0.616118 0.202399 0.864888 4933713 3
0.627070 0.201356 0.860431 5722712 3
0.606317 0.218183 0.871210 3091509 3
0.616118 0.216600 0.864888 2236202 3
0.627070 0.215483 0.860431 2894383 3
0.638572 0.214601 0.856908 6118238 3
0.644961 0.212076 0.846823 5986654 3
0.654583 0.206343 0.823933 4012609 3
0.637477 0.228279 0.855438 2829101 3
0.644592 0.225850 0.846338 2368039 3
0.661545 0.222209 0.832695 2630956 3
0.005526 0.203664 0.870295 9210761 3
0.020081 0.206395 0.881962 7171435 3
0.034868 0.208220 0.889764 6317155 3
0.005496 0.216749 0.865485 6842731 3
0.019899 0.218869 0.873951 8027259 3
0.034635 0.221340 0.883815 7238511 3
0.048632 0.219026 0.874577 6711913 3
0.005269 0.221433 0.829784 7829626 3
0.019170 0.224673 0.841927 6711399 3
0.032839 0.223625 0.838000 6383200 3
0.059711 0.221231 0.829028 6645606 3
0.031536 0.227961 0.804735 6777190 3
0.059711 0.234843 0.829028 6777708 3
0.077349 0.247737 0.874548 7368816 3
0.091566 0.247353 0.873190 5723478 3
0.031859 0.243648 0.812989 6908778 3
0.044717 0.241006 0.804173 7434870 3
0.072621 0.246075 0.821087 6513766 3
0.088947 0.254206 0.848219 7039853 3
0.018415 0.255669 0.808790 8223612 3
0.031462 0.253792 0.802853 6381669 3
0.005162 0.270345 0.812989 5788503 3
0.018439 0.269296 0.809836 6184290 3
0.005126 0.281676 0.807208 8157823 3
0.018250 0.279700 0.801546 7829115 3
0.005126 0.294930 0.807208 9474194 3
-0.094902 0.204532 0.874002 5131854 3
-0.079274 0.201287 0.860137 5395026 3
-0.064817 0.200256 0.855729 6119010 3
-0.050959 0.201012 0.858962 5264469 3
-0.037059 0.202121 0.863699 7762547 3
-0.022917 0.202469 0.865185 8552577 3
-0.008715 0.202539 0.865485 8816775 3
-0.094044 0.216902 0.866096 6645093 3
-0.078841 0.214233 0.855438 6776679 3
-0.064487 0.213214 0.851369 7171437 3
-0.050959 0.215116 0.858962 6381921 3
-0.036919 0.215483 0.860431 7368816 3
-0.022878 0.216302 0.863699 7500402 3
-0.008712 0.216674 0.865185 7895673 3
-0.092734 0.227903 0.854031 6974058 3
-0.076364 0.221107 0.828563 5329233 3
-0.063456 0.223559 0.837751 6645093 3
-0.049765 0.223847 0.838832 5921370 3
-0.035932 0.223472 0.837425 7697781 3
-0.022065 0.222294 0.833014 6579813 3
-0.008113 0.214998 0.805669 7500915 3
-0.088854 0.231804 0.818300 7237230 3
-0.074638 0.229406 0.809836 7434609 3
-0.060713 0.227058 0.801546 7763574 3
-0.021265 0.227417 0.802813 6776681 3
-0.089151 0.246061 0.821040 6250335 3
-0.074116 0.241006 0.804173 4934475 3
-0.087020 0.253336 0.801409 6842472 3
-0.008102 0.267567 0.804634 5920089 3
-0.021313 0.280778 0.804634 9078925 3
-0.008128 0.281676 0.807208 9012360 3
-0.123166 0.203809 0.870913 4606539 3
-0.110594 0.207044 0.884737 4539719 3
-0.137252 0.217770 0.869561 5527639 3
-0.121518 0.215190 0.859259 4868943 3
-0.108563 0.217502 0.868489 6118751 3
-0.135754 0.229515 0.860072 5330260 3
-0.119147 0.224826 0.842499 6316387 3
-0.106423 0.227193 0.851369 6447716 3
-0.194308 0.229406 0.809836 5789786 3
-0.181716 0.230299 0.812989 5855836 3
-0.171383 0.234423 0.827547 5658459 3
-0.158829 0.235959 0.832970 6710888 3
-0.146226 0.237704 0.839128 6382180 3
-0.132890 0.238497 0.841927 6184801 3
-0.119066 0.238497 0.841927 7105646 3
-0.103720 0.235045 0.829741 7237230 3
-0.192455 0.240388 0.802112 6974060 3
-0.181716 0.243648 0.812989 6513766 3
-0.171383 0.248011 0.827547 6184801 3
-0.158829 0.249636 0.832970 6908265 3
-0.146226 0.251481 0.839128 6710634 3
-0.132890 0.252320 0.841927 6447975 3
-0.119066 0.252320 0.841927 5855579 3
-0.104473 0.250475 0.835769 5789784 3
-0.180577 0.255385 0.807893 7500402 3
-0.143922 0.213381 0.911818 5461332 3
-0.186625 0.245112 0.978740 3158325 3
-0.165844 0.238343 0.951708 4277574 3
-0.190078 0.244925 0.917820 5790045 3
-0.175647 0.245819 0.921167 4736844 3
-0.157985 0.241934 0.906609 6711145 3
-0.333812 0.255612 1.092276 3813433 3
-0.317539 0.256956 1.098019 4932937 3
-0.369365 0.273313 1.091344 5986136 3
-0.345407 0.268616 1.072592 4011065 3
-0.327796 0.268616 1.072592 6050395 3
-0.310185 0.268616 1.072592 5393235 3
-0.327836 0.271666 1.018027 5327695 3
-0.312046 0.272474 1.021054 6182750 3
0.410735 0.163041 0.749275 5723229 3
0.442074 0.170378 0.782992 4933711 3
0.464215 0.173855 0.798972 5328469 3
0.404923 0.172862 0.738672 2499883 3
0.417051 0.172862 0.738672 2236453 3
0.443786 0.178746 0.763812 4341829 3
0.469587 0.183940 0.786007 3354681 3
0.488903 0.186383 0.796449 3617851 3
0.406842 0.185867 0.742173 4671051 3
0.416323 0.184667 0.737382 3749949 3
0.425792 0.183531 0.732842 5131343 3
0.437183 0.183262 0.731768 3814716 3
0.491606 0.190379 0.760186 3092019 3
0.414431 0.195880 0.734031 7368564 3
0.311544 0.212973 0.978740 5001295 3
0.327614 0.212973 0.978740 4408907 3
0.343684 0.212973 0.978740 7303285 3
0.301684 0.221794 0.947764 6712424 3
0.319623 0.223456 0.954868 7370105 3
0.335301 0.223456 0.954868 6185318 3
0.342956 0.218348 0.933040 6842733 3
0.383966 0.245819 0.921167 5921370 3
0.212468 0.210343 0.966657 6907752 3
0.228340 0.210343 0.966657 7237230 3
0.241233 0.207778 0.954868 5987424 3
0.256911 0.207778 0.954868 6249826 3
0.272589 0.207778 0.954868 5395026 3
0.288267 0.207778 0.954868 5000779 3
0.212468 0.226215 0.966657 8420475 3
0.226425 0.224318 0.958552 6973029 3
0.241233 0.223456 0.954868 6053217 3
0.254783 0.221605 0.946959 6776428 3
0.267101 0.218957 0.935643 7237489 3
0.281404 0.218136 0.932133 6646374 3
0.207285 0.236181 0.943076 6644064 3
0.222421 0.235811 0.941599 8091512 3
0.234471 0.232431 0.928104 8158080 3
0.245686 0.228686 0.913149 6908013 3
0.117239 0.210343 0.966657 5986652 3
0.132294 0.209053 0.960726 6381669 3
0.144521 0.204046 0.937715 7171186 3
0.134230 0.228117 0.974784 5723993 3
0.144521 0.219442 0.937715 6184290 3
0.157346 0.215913 0.922635 6315876 3
0.177753 0.222494 0.950758 6316128 3
0.196597 0.226215 0.966657 7171178 3
0.104048 0.248488 0.992218 4867655 3
0.120169 0.248136 0.990815 6447205 3
0.135039 0.245594 0.980664 5921118 3
0.150786 0.245017 0.978360 6250083 3
0.163052 0.239441 0.956093 7105392 3
0.176370 0.236253 0.943364 6513255 3
0.193468 0.238234 0.951273 6447201 3
0.114329 0.251555 0.942662 7828858 3
0.128453 0.248932 0.932835 7960701 3
0.147232 0.254927 0.955301 7697529 3
0.160259 0.250768 0.939714 6908013 3
0.170280 0.243049 0.910789 6908267 3
0.186115 0.244205 0.915119 5986650 3
0.198032 0.240431 0.900977 6776420 3
0.112636 0.263079 0.928706 6908013 3
0.126304 0.259828 0.917230 7302771 3
-0.408617 0.250556 1.151459 4078907 3
-0.433689 0.273348 1.168067 3749170 3
-0.408617 0.269462 1.151459 3222828 3
-0.472279 0.292672 1.168645 4275518 3
-0.448510 0.289713 1.156830 4340796 3
-0.415103 0.279991 1.118010 4472382 3
0.638683 0.138786 0.689861 2302503 1
0.650010 0.138786 0.689861 2433832 1
0.664263 0.139400 0.692913 2301476 1
0.669713 0.138177 0.686835 2039332 1
0.624280 0.152123 0.699100 4013375 3
0.627356 0.150113 0.689861 2631469 3
0.635882 0.149454 0.686835 2631468 1
0.644333 0.148802 0.683836 2893613 3
0.655561 0.148802 0.683836 2169890 3
0.645216 0.160249 0.684773 3354164 3
0.655561 0.160030 0.683836 4603718 3
0.635449 0.174995 0.698759 3288888 3
0.614023 0.166096 0.663225 3420472 3
0.621634 0.160737 0.798972 2697264 1
0.625184 0.158314 0.786927 2236711 1
0.638104 0.158314 0.786927 3815743 1
0.635068 0.154433 0.767639 2959921 1
0.647672 0.154433 0.767639 2828335 1
0.635360 0.148606 0.738672 2169890 1
0.635498 0.145854 0.724993 3420209 1
0.647318 0.143202 0.711811 1973281 1
0.615355 0.172099 0.790901 3617853 3
0.618963 0.169530 0.779097 3026229 3
0.628627 0.168691 0.775240 3749952 3
0.619875 0.163041 0.749275 3025716 3
0.632178 0.163041 0.749275 3025716 3
0.629422 0.159232 0.731768 2828590 3
0.623943 0.154889 0.711811 3486518 3
0.634753 0.186973 0.798972 2565676 3
0.626249 0.180733 0.772307 3749950 3
0.618657 0.174999 0.747802 3025714 3
0.625637 0.173529 0.741522 3881023 3
0.626694 0.170505 0.728597 2236453 3
0.622892 0.166296 0.710612 3947069 3
0.630795 0.165309 0.706396 3355445 3
0.639508 0.164567 0.703224 3947329 3
0.649248 0.164110 0.701273 3749692 3
0.611206 0.196735 0.785568 3946302 3
0.611929 0.188991 0.754647 3289141 3
0.606786 0.180109 0.719181 3552311 3
0.629239 0.183208 0.731556 4736585 3
0.638453 0.182409 0.728365 3618104 3
0.648342 0.181829 0.726047 4933966 3
0.612965 0.190171 0.712635 2762795 3
0.637530 0.194087 0.727311 3223344 3
0.652502 0.194993 0.730705 2236451 3
0.637374 0.187033 0.700877 2696751 3
0.447102 0.164086 0.815617 2828339 1
0.460494 0.164086 0.815617 3157302 1
0.478874 0.165813 0.824202 2960436 1
0.492407 0.165813 0.824202 2828596 1
0.487277 0.177477 0.815617 4276296 3
0.056545 0.204574 1.016873 4342086 3
0.073241 0.204574 1.016873 5723482 3
0.089357 0.203254 1.010312 5525331 3
0.072302 0.218433 1.003836 5526614 3
0.089357 0.219843 1.010312 5657685 3
0.039088 0.200665 0.997442 3487037 3
0.020974 0.200445 0.921167 7303025 3
0.037419 0.207778 0.954868 7369077 3
0.055114 0.215668 0.991129 4539719 3
0.050567 0.212810 0.909374 6119008 3
0.069127 0.224599 0.959753 6053215 3
0.086396 0.228598 0.976840 6315615 3
0.068543 0.238325 0.951639 6645606 3
0.085004 0.240694 0.961097 5131595 3
0.080192 0.241956 0.906694 7303021 3
0.096743 0.246189 0.922554 7697268 3
-0.186909 0.215784 1.072592 2894640 3
-0.160504 0.204574 1.016873 3355445 1
-0.199066 0.227171 1.043989 2828848 3
-0.177200 0.221270 1.016873 3750203 3
-0.195511 0.239949 1.025347 4605772 3
-0.175638 0.235869 1.007910 5724250 3
-0.204520 0.215784 1.072592 3026227 3
-0.222131 0.233395 1.072592 4341574 3
-0.277384 0.253215 1.082034 4604481 3
-0.254962 0.248674 1.062627 5394513 3
-0.234334 0.245344 1.048398 4407622 3
-0.216208 0.244312 1.043989 5592156 3
-0.292575 0.268616 1.072592 5854296 3
-0.267502 0.261327 1.043484 5855318 3
-0.242837 0.253465 1.012091 5329233 3
-0.294072 0.271358 1.016873 5196368 3
1.022638 0.158974 0.860431 1841703 1
1.072110 0.164393 0.889764 1578018 1
1.000646 0.169379 0.841927 2104873 1
1.036765 0.173101 0.860431 1183514 1
1.000646 0.183202 0.841927 1973028 1
1.014470 0.183202 0.841927 1643293 1
0.821157 0.137124 0.742173 1511711 1
0.801376 0.147908 0.735204 1248537 1
0.821157 0.149310 0.742173 722193 1
0.841540 0.148606 0.738672 1972260 1
0.809646 0.159232 0.731768 1315098 1
0.841540 0.160734 0.738672 1643293 1
0.811458 0.166683 0.712267 2565676 1
0.889529 0.180124 0.769701 1117717 1
0.772414 0.137124 0.742173 1380121 1
0.720717 0.143856 0.715061 1644322 1
0.732458 0.143856 0.715061 1446943 1
0.751057 0.145182 0.721652 1709856 1
0.766438 0.145854 0.724993 2432809 1
0.789304 0.147908 0.735204 1774879 1
0.707789 0.152805 0.702235 3026486 1
0.722560 0.153494 0.705398 4210760 1
0.737463 0.154188 0.708590 2433577 1
0.759406 0.156310 0.718341 2894128 1
0.789304 0.159979 0.735204 2630956 1
0.797631 0.159232 0.731768 1117719 1
0.787516 0.169075 0.722489 3420472 1
0.794338 0.168009 0.717933 3354679 1
0.796765 0.166058 0.709597 1052437 1
0.368625 0.146127 0.790901 1184535 1
0.353852 0.158314 0.786927 4408392 3
0.359545 0.155194 0.771421 4803148 3
0.353852 0.171234 0.786927 2895405 3
0.359545 0.167860 0.771421 3355445 3
0.365019 0.164616 0.756514 3223859 3
0.384292 0.162265 0.745707 4933711 3
0.398433 0.163041 0.749275 5262678 3
0.342653 0.185085 0.790901 5461332 3
0.355199 0.184856 0.789922 5724504 3
0.357057 0.179277 0.766082 4670790 3
0.357993 0.173630 0.741954 3947069 3
0.366170 0.171752 0.733926 2762797 3
0.375903 0.170699 0.729428 3749437 3
0.387656 0.170601 0.729009 2499883 3
0.359443 0.193137 0.771200 7170926 3
0.341151 0.177070 0.707046 7499893 3
0.365094 0.183262 0.731768 7434100 3
0.369041 0.179341 0.716113 7104880 3
0.335118 0.198878 0.745265 7105644 3
0.393026 0.191327 0.716969 10197663 3
0.362634 0.160740 0.869991 1709854 1
0.364760 0.155555 0.841927 2171430 1
0.362972 0.149140 0.807208 2566188 1
0.330808 0.181060 0.899991 2960434 3
0.345585 0.181060 0.899991 2828847 3
0.356267 0.179002 0.889764 4604231 3
0.356689 0.172155 0.855729 4341829 3
0.360879 0.167577 0.832970 5197908 3
0.328918 0.194718 0.894848 6119010 3
0.323289 0.183202 0.841927 5460821 3
0.337113 0.183202 0.841927 7828086 3
0.341749 0.178406 0.819887 4078653 3
0.351530 0.176558 0.811391 3487542 3
0.319850 0.194930 0.832970 6776679 3
0.330898 0.193394 0.826406 5986136 3
0.333933 0.187480 0.801134 6184029 3
0.005954 0.173253 0.937715 1972763 1
0.021741 0.176422 0.954868 2236453 1
0.005815 0.184236 0.915780 3288623 3
0.020974 0.185320 0.921167 6118240 3
0.005815 0.199273 0.915780 7828854 3
-0.133412 0.174297 0.943364 2368810 1
-0.115829 0.171203 0.926618 2894641 1
-0.131044 0.186417 0.926618 4934736 1
-0.114475 0.184236 0.915780 4012609 1
-0.143707 0.198114 0.910456 4474183 3
-0.128758 0.198114 0.910456 3224118 3
-0.113809 0.198114 0.910456 5131602 3
-0.290904 0.209661 1.134771 3222578 3
-0.276276 0.212744 1.151459 2761515 3
-0.257370 0.212744 1.151459 2762028 1
-0.238464 0.212744 1.151459 2038305 1
-0.216376 0.209661 1.134771 2828335 1
-0.286748 0.225032 1.118560 2629928 3
-0.268382 0.225032 1.118560 3617336 3
-0.250017 0.225032 1.118560 4472646 3
-0.231651 0.225032 1.118560 3157300 3
-0.282709 0.239969 1.102806 4472643 3
-0.264602 0.239969 1.102806 4604229 3
-0.246495 0.239969 1.102806 4802380 3
-0.309535 0.209661 1.134771 3157555 3
-0.357151 0.235108 1.168645 3289141 3
-0.328167 0.228293 1.134771 3091762 3
-0.305114 0.225032 1.118560 3617334 3
-0.389711 0.250556 1.151459 3881276 3
-0.370805 0.250556 1.151459 4143681 3
-0.341845 0.243397 1.118560 4275267 3
-0.323479 0.243397 1.118560 4801610 3
-0.305114 0.243397 1.118560 3814713 3
-0.382056 0.264169 1.128841 4209725 3
-0.356723 0.259228 1.107729 4669512 3
-0.300816 0.258076 1.102806 4999241 3
-0.391351 0.276183 1.102806 4933446 3
-0.782662 0.307800 1.665941 3289909 3
-0.739573 0.301388 1.631234 2566186 3
-0.712790 0.301388 1.631234 1974568 3
-0.766356 0.328171 1.631234 3553081 3
-0.766356 0.354954 1.631234 2500134 3
0.362016 0.165799 0.984896 2237223 1
0.366657 0.160744 0.954868 2039845 1
0.309609 0.179710 0.972661 3355194 1
0.321584 0.177504 0.960726 4144710 1
0.329278 0.173253 0.937715 2763057 1
0.340595 0.171203 0.926618 2894641 1
0.353716 0.170195 0.921167 2697262 1
0.362445 0.167244 0.905193 2038819 1
0.303945 0.192100 0.954868 4342599 3
0.315772 0.189786 0.943364 5065812 3
0.325381 0.186417 0.926618 2697262 3
0.212468 0.162729 0.966657 2039332 1
0.212468 0.178600 0.966657 1973538 1
0.231194 0.180833 0.978740 2764082 1
0.247264 0.180833 0.978740 2171431 1
0.263334 0.180833 0.978740 3354681 1
0.279404 0.180833 0.978740 1906719 1
0.295474 0.180833 0.978740 2038819 1
0.212468 0.194472 0.966657 2236710 3
0.231194 0.196903 0.978740 4145218 3
0.244211 0.194472 0.966657 3487290 3
0.263334 0.196903 0.978740 5065297 3
0.279404 0.196903 0.978740 4736587 3
0.295474 0.196903 0.978740 3421238 3
-0.099438 0.154164 0.915780 3355192 1
-0.054014 0.153268 0.910456 3092533 1
-0.039525 0.155071 0.921167 2894389 1
-0.098860 0.168216 0.910456 3355192 1
-0.083912 0.168216 0.910456 2566189 1
-0.068564 0.167244 0.905193 1909288 1
-0.054014 0.168216 0.910456 1251104 1
-0.039065 0.168216 0.910456 2038821 1
-0.024116 0.168216 0.910456 1775647 1
-0.009386 0.172222 0.932133 2433060 1
-0.023977 0.182106 0.905193 1775902 3
-0.009221 0.184236 0.915780 3091760 3
-0.024116 0.198114 0.910456 8684165 3
-0.009221 0.199273 0.915780 8750471 3
0.609593 0.130005 0.855729 1643295 1
0.613585 0.127908 0.841927 1906465 1
0.617450 0.125877 0.828563 2630188 1
0.624446 0.124559 0.819887 1907235 1
0.602124 0.145647 0.865185 1642782 1
0.612943 0.144846 0.860431 2695472 1
0.613585 0.141731 0.841927 2301225 1
0.620734 0.140224 0.832970 2038051 1
0.627732 0.138748 0.824202 1446684 1
0.637908 0.138021 0.819887 2038819 1
0.647977 0.137302 0.815617 2170918 1
0.602124 0.159852 0.865185 1313817 1
0.609593 0.158105 0.855729 2168356 1
0.616901 0.156396 0.846478 3287091 1
0.624053 0.154723 0.837425 2695468 1
0.631054 0.153086 0.828563 2236200 1
0.637908 0.151483 0.819887 2565676 1
0.638008 0.148376 0.803069 2697261 1
0.651193 0.148376 0.803069 1907745 1
0.606280 0.171220 0.851078 2695470 1
0.610304 0.168473 0.837425 2892333 1
0.620734 0.167577 0.832970 2695722 1
0.621194 0.164086 0.815617 3552058 1
0.601205 0.192518 0.884737 5394517 3
0.602124 0.188263 0.865185 5262678 3
0.612943 0.187229 0.860431 4472394 3
0.616901 0.184192 0.846478 3485238 3
0.617450 0.180294 0.828563 3419444 3
0.624446 0.178406 0.819887 2630442 3
0.636406 0.199851 0.854001 5459540 3
0.646313 0.198587 0.848598 3354165 3
0.624654 0.187882 0.802853 4867920 3
0.570561 0.130719 0.860431 1644833 1
0.581493 0.130005 0.855729 2367786 1
0.595543 0.130005 0.855729 2761776 1
0.560793 0.149784 0.889764 2368807 1
0.572151 0.148938 0.884737 2302757 1
0.573713 0.145647 0.865185 2170920 1
0.587918 0.145647 0.865185 2236202 1
0.525603 0.162546 0.879766 3355453 1
0.540047 0.162546 0.879766 2434349 1
0.563998 0.165333 0.894848 2237223 1
0.575402 0.164393 0.889764 1513752 1
0.583382 0.162546 0.879766 1710620 1
0.591184 0.160740 0.869991 854545 1
0.540047 0.176991 0.879766 3223608 1
0.567239 0.181060 0.899991 2894640 1
0.578690 0.180025 0.894848 3552822 1
0.586678 0.177991 0.884737 3091760 1
0.594487 0.176002 0.874852 4209988 1
0.598815 0.173101 0.860431 3024948 1
0.511321 0.181253 0.832970 4276294 3
0.548331 0.189309 0.869991 6052704 3
0.575402 0.193611 0.889764 5000270 3
0.590011 0.193611 0.889764 5460306 3
0.534343 0.198400 0.847798 5262931 3
0.302058 0.160749 1.058097 2959921 1
0.315172 0.158606 1.043989 2170918 1
0.327941 0.156519 1.030253 3223608 1
0.344857 0.156519 1.030253 2105125 1
0.364168 0.157555 1.037076 3420984 1
0.373770 0.154486 1.016873 3486778 1
0.305005 0.170078 1.010312 1644061 1
0.321594 0.170078 1.010312 986644 1
0.338182 0.170078 1.010312 2631728 1
0.352496 0.168987 1.003836 2105638 1
0.150844 0.148693 0.978740 2828850 1
0.166914 0.148693 0.978740 3420985 1
0.182984 0.148693 0.978740 2104867 1
0.199054 0.148693 0.978740 3091762 1
0.148982 0.162729 0.966657 1908005 1
0.164854 0.162729 0.966657 2763054 1
0.178521 0.160744 0.954868 2500136 1
0.194199 0.160744 0.954868 2039074 1
0.101367 0.178600 0.966657 3091244 1
0.117239 0.178600 0.966657 3947580 1
0.133110 0.178600 0.966657 3289399 1
0.148982 0.178600 0.966657 3092022 1
0.162843 0.176422 0.954868 2894641 1
0.178521 0.176422 0.954868 3552822 1
0.194199 0.176422 0.954868 2565418 1
0.117239 0.194472 0.966657 4473926 3
0.132294 0.193279 0.960726 4736845 3
0.144521 0.188649 0.937715 4736847 3
0.156177 0.184236 0.915780 4736845 3
0.173239 0.186417 0.926618 4342340 3
0.194199 0.192100 0.954868 3485750 3
0.155269 0.198114 0.910456 6447462 3
0.169234 0.196969 0.905193 5329233 3
0.184096 0.196969 0.905193 5393745 3
0.295240 0.158356 1.168645 2961463 1
0.276053 0.177544 1.168645 2171949 1
0.290899 0.174933 1.151459 2632498 1
0.296714 0.167541 1.102806 3354679 1
0.260500 0.185648 1.102806 1448224 1
0.278607 0.185648 1.102806 1842980 1
-0.090447 0.112871 0.832970 1907746 1
-0.077596 0.114084 0.841927 2433577 1
-0.091419 0.127908 0.841927 2368297 1
-0.077596 0.127908 0.841927 2565676 1
-0.064465 0.129298 0.851078 2500396 1
-0.078439 0.143272 0.851078 2631469 1
-0.064465 0.143272 0.851078 2171945 1
-0.097724 0.181060 0.899991 3486777 1
-0.082947 0.181060 0.899991 2303786 1
-0.067395 0.179002 0.889764 1777702 1
-0.053393 0.181060 0.899991 2501425 1
-0.038616 0.181060 0.899991 2630442 3
-0.097166 0.194718 0.894848 3750203 3
-0.082004 0.193611 0.889764 4408390 3
-0.066638 0.191436 0.879766 4606286 3
-0.053393 0.195837 0.899991 6777455 3
-0.038616 0.195837 0.899991 8420225 3
-0.766356 0.221038 1.631234 1578523 1
-0.739573 0.221038 1.631234 1907488 1
-0.727955 0.225741 1.665941 1184023 1
-0.766356 0.247821 1.631234 1907999 1
-0.739573 0.247821 1.631234 1381401 1
-0.712790 0.247821 1.631234 789265 1
-0.782662 0.280447 1.665941 1447446 1
-0.739573 0.274605 1.631234 1973538 1
-0.712790 0.274605 1.631234 2105638 1
-0.953165 -0.284397 2.567187 1577502 1
-0.911014 -0.284397 2.567187 1906467 1
-0.953165 -0.242246 2.567187 1906467 1
-0.911014 -0.242246 2.567187 919572 1
-0.911014 -0.200096 2.567187 984852 1
-2.162122 -0.773412 2.654211 1643293 1
-2.155069 -0.786747 2.699973 1445916 1
-2.110738 -0.786747 2.699973 1775651 1
-2.126087 -0.717669 2.609974 1380121 1
-2.118543 -0.729833 2.654211 985363 1
0.139173 0.201277 0.550886 8684417 3
0.159638 0.216786 0.593333 8618370 3
0.170426 0.218123 0.596994 8881542 3
0.180399 0.218331 0.597562 8026233 3
0.189532 0.217553 0.595431 7960953 3
0.108260 0.203231 0.532311 10592414 3
0.115600 0.200798 0.525941 8750210 3
0.134415 0.203131 0.532052 9539472 3
0.148194 0.210289 0.550798 8815749 3
0.107377 0.210241 0.527968 9276811 3
0.112483 0.203787 0.511760 8092537 3
0.120886 0.203787 0.511760 8487297 3
0.131685 0.207565 0.521247 9079434 3
0.146297 0.216523 0.543745 8882055 3
0.155326 0.216666 0.544102 9671058 3
0.180293 0.214484 0.538624 9408147 3
0.106385 0.216887 0.523090 9013639 3
0.133291 0.218759 0.527604 8750471 3
0.145016 0.223477 0.538983 8816264 3
0.155159 0.225356 0.543514 7697270 3
0.165880 0.227824 0.549468 7565684 3
0.173649 0.226193 0.545533 8553092 3
0.182008 0.225451 0.543745 8026748 3
