# .PCD v0.7
VERSION 0.7
FIELDS x y z rgb label
SIZE 4 4 4 4 4
TYPE F F F U U
COUNT 1 1 1 1 1
WIDTH 1258
HEIGHT 1
VIEWPOINT 0 0 0 1 0 0 0
POINTS 1258
DATA ascii
-0.340385 0.228667 0.598937 4737348 3
-0.326603 0.225936 0.591782 4210750 3
-0.317632 0.226468 0.593176 3881528 3
-0.306301 0.225297 0.590110 2499873 3
-0.361905 0.221573 0.556425 4605508 3
-0.344730 0.216523 0.543745 5131854 3
-0.332639 0.214484 0.538624 4276547 3
-0.323925 0.214570 0.538839 3092273 3
-0.318790 0.217098 0.545187 4737094 3
-0.315764 0.221250 0.555613 4211004 3
-0.313312 0.226063 0.567700 2960683 3
-0.310750 0.231090 0.580324 3684406 3
-0.379353 0.230209 0.555220 3882300 3
-0.358389 0.222842 0.537452 3290163 3
-0.347181 0.221323 0.533788 3881785 3
-0.337694 0.220850 0.532648 4342338 3
-0.328949 0.220850 0.532648 2960687 3
-0.321711 0.221890 0.535156 3026478 3
-0.315078 0.223417 0.538839 4802887 3
-0.308353 0.224965 0.542573 5263438 3
-0.301534 0.226535 0.546359 3750201 3
-0.297324 0.216125 0.591525 3618356 3
-0.279116 0.209741 0.574051 5263440 3
-0.262659 0.204273 0.559086 4473926 3
-0.251769 0.202895 0.555314 6052192 3
-0.218583 0.215099 0.588716 5987163 3
-0.207845 0.213995 0.585695 5987163 3
-0.288541 0.219166 0.574051 4144959 3
-0.270532 0.212426 0.556397 2500393 3
-0.256576 0.208509 0.546138 7828854 3
-0.245355 0.206611 0.541166 5394517 3
-0.235958 0.206164 0.539995 5657689 3
-0.229275 0.208146 0.545187 6249824 3
-0.225655 0.213183 0.558380 7170924 3
-0.218396 0.215063 0.563304 5723991 3
-0.212319 0.218325 0.571846 6053469 3
-0.204308 0.219807 0.575729 5263953 3
-0.297254 0.228045 0.572678 4276286 3
-0.279667 0.221562 0.556397 4144959 3
-0.265543 0.217476 0.546138 5000527 3
-0.251868 0.213485 0.536115 5789784 3
-0.239265 0.210147 0.527732 6381923 3
-0.231771 0.211215 0.530413 4802891 3
-0.225057 0.213103 0.535156 7434609 3
-0.218800 0.215596 0.541417 5460819 3
-0.211827 0.217564 0.546359 6908265 3
-0.204282 0.219093 0.550198 7435122 3
-0.299000 0.231519 0.558380 3947580 3
-0.286765 0.229069 0.552471 4408129 3
-0.271331 0.223821 0.539812 5724504 3
-0.258336 0.220297 0.531313 5329492 3
-0.247401 0.218346 0.526608 7697781 3
-0.238252 0.217886 0.525498 8618881 3
-0.231771 0.219924 0.530413 7434607 3
-0.221935 0.218812 0.527732 7039849 3
-0.214354 0.219924 0.530413 8487295 3
-0.205552 0.219824 0.530173 7369329 3
-0.200180 0.223547 0.539152 7106671 3
-0.289155 0.232762 0.539995 5395539 3
-0.282984 0.235001 0.545187 5526612 3
0.158728 0.205863 0.589948 7039340 3
0.156316 0.212274 0.580985 8552831 3
0.190256 0.218383 0.597704 7960442 3
0.100827 0.205900 0.539303 9145227 3
0.133381 0.201568 0.527958 9276813 3
0.106319 0.208170 0.522766 9013641 3
0.113597 0.205804 0.516826 7829880 3
0.122083 0.205804 0.516826 8093052 3
0.132187 0.208356 0.523235 9079434 3
0.145364 0.215142 0.540277 8684676 3
0.106363 0.216842 0.522981 8882055 3
0.114352 0.215714 0.520261 8684935 3
0.122894 0.215714 0.520261 8816521 3
0.133048 0.218360 0.526641 9145229 3
0.145867 0.224789 0.542147 8618885 3
0.062030 0.206413 0.591525 8553088 3
0.070875 0.203920 0.584382 8487299 3
0.062764 0.218683 0.598526 8553088 3
0.067590 0.203617 0.557290 8816262 3
0.076183 0.202138 0.553243 8750982 3
0.084741 0.200893 0.549833 9145229 3
0.067590 0.212767 0.557290 9277072 3
0.076166 0.211176 0.553122 9211533 3
0.084629 0.209644 0.549110 9013902 3
0.092510 0.207102 0.542451 8355459 3
0.069396 0.227849 0.572187 8487299 3
0.075301 0.217757 0.546844 8553090 3
0.081886 0.211573 0.531313 7829369 3
0.090224 0.210671 0.529049 7631990 3
0.098454 0.209699 0.526608 9276813 3
0.073163 0.220297 0.531313 9145229 3
0.081537 0.219358 0.529049 9211020 3
0.089808 0.218346 0.526608 8027259 3
0.098247 0.217886 0.525498 9277324 3
-0.197764 0.203900 0.584322 4605512 3
-0.187041 0.202677 0.580818 3947841 3
-0.169586 0.204628 0.586411 3289652 3
-0.161803 0.206989 0.593176 5789786 3
-0.152063 0.206989 0.593176 6118497 3
-0.142324 0.206989 0.593176 5986911 3
-0.198786 0.214597 0.587343 5658198 3
-0.187653 0.212908 0.582720 5329494 3
-0.177253 0.211912 0.579994 6316389 3
-0.166047 0.209785 0.574173 6381923 3
-0.155121 0.207778 0.568680 5987165 3
-0.144023 0.205270 0.561813 5263188 3
-0.131628 0.200442 0.548599 5921372 3
-0.198915 0.224386 0.587724 6316128 3
-0.186228 0.220786 0.578292 8355459 3
-0.173795 0.217116 0.568680 5723993 3
-0.164084 0.216621 0.567386 5460821 3
-0.153248 0.214494 0.561813 4999755 3
-0.140636 0.209449 0.548599 7368303 3
-0.128994 0.205258 0.537621 7434611 3
-0.194735 0.218517 0.548752 5921883 3
-0.187124 0.220164 0.552886 7895160 3
-0.180597 0.223318 0.560807 8421506 3
-0.172152 0.224312 0.563304 6052958 3
-0.162103 0.223210 0.560537 6316130 3
-0.149643 0.218457 0.548599 7828854 3
-0.138079 0.214484 0.538624 8355711 3
-0.128234 0.212823 0.534452 7763576 3
-0.113025 0.201361 0.505667 8026746 3
-0.192958 0.225451 0.543745 7633015 3
-0.184915 0.226535 0.546359 7434609 3
-0.177180 0.228127 0.550198 7040110 3
-0.169337 0.229741 0.554091 7434868 3
-0.159815 0.229133 0.552625 8026746 3
-0.147575 0.224320 0.541017 8158332 3
-0.137482 0.222363 0.536296 7895158 3
-0.177180 0.237161 0.550198 6974571 3
-0.168515 0.237680 0.551403 8422017 3
-0.159462 0.237680 0.551403 8750982 3
-0.396011 0.243154 0.696815 4671301 3
-0.377844 0.238902 0.684628 3947321 3
-0.362426 0.236179 0.676827 5000009 3
-0.350361 0.235539 0.674993 4079164 3
-0.339278 0.235539 0.674993 3947580 3
-0.336254 0.241323 0.691567 4473924 3
-0.385712 0.247974 0.678694 4408129 3
-0.348516 0.230727 0.631488 3881528 3
-0.327558 0.223501 0.611713 3814965 3
-0.312516 0.219982 0.602082 4934214 3
-0.304198 0.254357 0.696164 7302514 3
-0.496341 0.204379 0.585695 3354679 3
-0.490642 0.206024 0.590409 4539465 3
-0.483202 0.206989 0.593176 3684410 3
-0.475947 0.208075 0.596289 3092782 3
-0.467263 0.208569 0.597704 3092269 3
-0.457449 0.208569 0.597704 2500393 3
-0.498901 0.215099 0.588716 3026227 3
-0.491783 0.216219 0.591782 3618363 3
-0.483202 0.216729 0.593176 2171428 3
-0.475947 0.217866 0.596289 2632231 3
-0.467263 0.218383 0.597704 2236962 3
-0.455066 0.217246 0.594591 2368809 3
-0.446575 0.217866 0.596289 2961461 3
-0.478646 0.207596 0.543745 3223865 3
-0.493817 0.218246 0.571642 1644833 3
-0.498155 0.228863 0.599450 2237224 3
-0.458549 0.228745 0.599141 2764082 3
-0.445304 0.227008 0.594591 4606798 3
-0.474138 0.214484 0.538624 2303017 3
-0.456166 0.237343 0.596028 3948611 3
-0.444244 0.236207 0.593176 3685437 3
-0.496704 0.247824 0.597704 4079427 3
-0.486890 0.247824 0.597704 3092530 3
-0.477076 0.247824 0.597704 2829358 3
-0.464829 0.246533 0.594591 3751230 3
-0.440413 0.238595 0.575445 3553335 3
-0.424929 0.235253 0.567386 3026989 3
-0.428601 0.242605 0.585116 3158828 3
-0.492941 0.255686 0.593176 3750460 3
-0.483202 0.255686 0.593176 2895151 3
-0.471015 0.254364 0.590110 2895405 3
-0.455549 0.251179 0.582720 3422263 3
-0.424821 0.239262 0.555072 2698024 3
-0.407224 0.234379 0.543745 3487021 3
-0.466181 0.256076 0.572281 3223344 3
-0.449397 0.251934 0.563026 3816505 3
0.071570 0.196230 0.590110 9605780 3
0.080651 0.194762 0.585695 9540244 3
0.090056 0.194306 0.584322 8816264 3
0.097186 0.189501 0.569872 8684167 3
0.076999 0.195122 0.559169 8685189 3
0.085624 0.193865 0.555566 9539987 3
0.093257 0.190819 0.546836 9934234 3
0.092831 0.198884 0.544337 8618374 3
-0.191747 0.198000 0.595431 5526871 3
-0.181971 0.198000 0.595431 5921629 3
-0.174665 0.199435 0.571527 4342599 3
-0.118194 0.193204 0.528792 5723991 3
-0.113966 0.194665 0.509876 8026746 3
0.175222 0.205869 0.651252 8552581 3
0.162130 0.200381 0.602593 8355202 3
0.173232 0.201788 0.606824 8749958 3
0.182532 0.201058 0.604627 8684676 3
0.192459 0.201058 0.604627 8092537 3
0.172397 0.210732 0.603900 7960442 3
0.182049 0.210427 0.603028 8157819 3
0.191719 0.210174 0.602302 8421504 3
0.171735 0.219799 0.601580 8618370 3
0.181308 0.219431 0.600572 8881544 3
0.182753 0.231119 0.605359 10789025 3
0.082327 0.214578 0.678804 7039853 3
0.057762 0.217172 0.653087 7829367 3
0.063291 0.200702 0.603556 9145227 3
0.048641 0.235657 0.675331 8092541 3
0.053657 0.211698 0.606669 7697781 3
0.048641 0.246745 0.675331 9605780 3
0.055401 0.228865 0.626394 8355709 3
0.060547 0.261362 0.684573 9474192 3
0.066637 0.242611 0.635459 8092539 3
0.036737 0.263077 0.660653 9474190 3
0.048201 0.266490 0.669224 7764085 3
0.059189 0.266490 0.669224 8882055 3
0.067090 0.254765 0.639778 8882055 3
0.467821 0.159947 0.533702 5789273 3
0.474029 0.159090 0.530842 5262931 3
0.482745 0.159090 0.530842 5788506 3
0.491671 0.159158 0.531069 4209990 3
0.460629 0.166117 0.525498 6118236 3
0.469356 0.166152 0.525609 5986652 3
0.479495 0.166676 0.527267 6052447 3
0.487025 0.166291 0.526051 5197396 3
0.496393 0.166536 0.526826 5526363 3
0.451529 0.174562 0.524949 6907754 3
0.460533 0.174708 0.525388 7499889 3
0.467786 0.174197 0.523850 7565682 3
0.478992 0.175149 0.526714 8092030 3
0.486924 0.174892 0.525941 5921119 3
0.444820 0.180460 0.517149 6118240 3
0.457463 0.182113 0.521886 4539206 3
0.462472 0.180721 0.517900 5131341 3
0.468937 0.179939 0.515658 5526101 3
0.472653 0.178149 0.510527 5000270 3
0.451549 0.184755 0.505667 6381921 3
0.410339 0.205840 0.686835 6052445 3
0.423010 0.206521 0.689106 6513255 3
0.436604 0.207605 0.692723 7763322 3
0.446005 0.206690 0.689672 7171699 3
0.454080 0.205222 0.684773 6646124 3
0.460555 0.203119 0.677757 5330262 3
0.470275 0.202513 0.675733 5922399 3
0.498370 0.209665 0.699597 5461848 3
0.406771 0.215229 0.680863 5591896 3
0.300516 0.174764 0.583142 5328722 3
0.313452 0.176659 0.589464 6578019 3
0.311316 0.185067 0.585446 8486016 3
0.304634 0.190501 0.572880 8092028 3
0.315008 0.175333 0.527267 8750217 3
0.323733 0.175370 0.527379 5921119 3
0.333586 0.176000 0.529274 6908527 3
0.344241 0.177010 0.532311 7040110 3
0.349563 0.175296 0.527157 4803918 3
0.356943 0.174672 0.525279 4342597 3
0.361332 0.172649 0.519194 5723739 3
0.363524 0.169693 0.510305 5790045 3
0.383698 0.175074 0.526489 5067090 3
0.312900 0.182760 0.523741 7895419 3
0.320763 0.182341 0.522540 8225156 3
0.328999 0.182150 0.521995 6646124 3
0.337224 0.181964 0.521460 7106673 3
0.339563 0.178689 0.512076 7107186 3
0.343965 0.176632 0.506181 7500661 3
0.377321 0.180665 0.517738 4145990 3
0.318328 0.184535 0.505065 7962241 3
0.325630 0.183975 0.503532 6909292 3
0.318386 0.192863 0.505156 7699323 3
0.132226 0.180290 0.601580 5263699 3
0.143795 0.182437 0.608745 7500661 3
0.102347 0.189711 0.600138 7368307 3
0.112579 0.190350 0.602157 8223098 3
0.132226 0.190167 0.601580 7764087 3
0.141898 0.189894 0.600715 6711399 3
0.152866 0.191276 0.605087 7961466 3
0.178827 0.198021 0.626425 8025467 3
0.183240 0.191871 0.606971 8815749 3
0.192693 0.191362 0.605359 7105642 3
0.121589 0.179171 0.597847 5197395 3
0.122025 0.189666 0.599994 8750469 3
0.104797 0.186397 0.560537 9407372 3
0.113191 0.185072 0.556553 7763574 3
0.122056 0.184659 0.555314 7960953 3
0.130225 0.183323 0.551295 8750469 3
0.139649 0.183814 0.552770 8421504 3
0.101990 0.190360 0.545521 7828340 3
0.109475 0.187834 0.538283 7828854 3
0.116137 0.184380 0.528385 7829367 3
0.124602 0.184068 0.527491 6974058 3
0.135838 0.187626 0.537687 7500402 3
0.101636 0.198625 0.543627 9802130 3
0.109355 0.196457 0.537695 10526367 3
0.116137 0.193056 0.528385 9802644 3
0.124575 0.192688 0.527379 9605265 3
0.135033 0.195289 0.534497 8684163 3
0.123716 0.199958 0.523741 8882055 3
0.194112 0.193001 0.505518 8751233 3
-0.201729 0.221638 0.739549 7368818 3
-0.206135 0.225324 0.712795 7039599 3
-0.200840 0.232750 0.736288 7105392 3
-0.296648 0.265683 0.798972 4934475 3
-0.200795 0.244785 0.736124 4868430 3
-0.396296 0.236287 0.788430 4869195 3
-0.384552 0.237028 0.790901 5395537 3
-0.371567 0.237028 0.790901 4276797 3
-0.359043 0.237334 0.791920 4802889 3
-0.393686 0.247592 0.783238 4803402 3
-0.382620 0.248758 0.786927 4342851 3
-0.369699 0.248758 0.786927 4803402 3
-0.357120 0.248996 0.787680 4079166 3
-0.349346 0.252728 0.799486 4013375 3
-0.388217 0.241083 0.724993 4671303 3
-0.376314 0.241083 0.724993 5460819 3
-0.364410 0.241083 0.724993 4079166 3
-0.354269 0.242289 0.728618 5921883 3
-0.367851 0.260370 0.782992 4540230 3
-0.356679 0.261605 0.786706 3947582 3
-0.334752 0.264694 0.795997 5000270 3
-0.319623 0.263000 0.790901 4868684 3
-0.308789 0.264845 0.796449 3815994 3
-0.332544 0.247001 0.707839 3947839 3
-0.339134 0.261018 0.748008 4276293 3
-0.335302 0.278220 0.797304 6249824 3
-0.319623 0.275986 0.790901 6447201 3
-0.306638 0.275986 0.790901 6184542 3
-0.328573 0.285464 0.781303 4539206 3
-0.317426 0.286985 0.785464 4078653 3
-0.488237 0.209130 0.697812 2039844 3
-0.473564 0.207719 0.693106 2697261 3
-0.463853 0.208470 0.695610 2762279 3
-0.447340 0.206124 0.687781 2894379 3
-0.443539 0.209665 0.699597 4078653 3
-0.480443 0.217066 0.686673 4013632 3
-0.467487 0.216288 0.684212 5723993 3
-0.459894 0.218014 0.689672 6052443 3
-0.445384 0.216466 0.684773 5723732 3
-0.437872 0.218326 0.690659 5328722 3
-0.494826 0.229784 0.691014 3158323 3
-0.476189 0.226319 0.680593 2829358 3
-0.463465 0.225565 0.678326 5066063 3
-0.465421 0.232094 0.697960 6184029 3
-0.442840 0.226408 0.680863 3947321 3
-0.434627 0.227964 0.685541 3354932 3
-0.473069 0.220420 0.631664 2566703 3
-0.478222 0.227815 0.652857 2106405 3
-0.471544 0.229785 0.658502 2960944 3
-0.470387 0.234600 0.672300 3224116 3
-0.472512 0.241323 0.691567 4539719 3
-0.466181 0.243952 0.699100 3552309 3
-0.454702 0.243952 0.699100 4605249 3
-0.443224 0.243952 0.699100 3289137 3
-0.449766 0.224341 0.614010 2961714 3
-0.462988 0.236231 0.646553 2566186 3
-0.468550 0.244679 0.669675 2368807 3
-0.469606 0.251124 0.687313 3421238 3
-0.462055 0.253170 0.692913 3289137 3
-0.450678 0.253170 0.692913 4078905 3
-0.439301 0.253170 0.692913 3683895 3
-0.430551 0.254724 0.697167 3486520 3
-0.417710 0.253876 0.694847 4342086 3
-0.402727 0.251643 0.688735 4606023 3
-0.490635 0.229952 0.602302 2039844 3
-0.480746 0.229952 0.602302 1776670 3
-0.470857 0.229952 0.602302 2434600 3
-0.446265 0.232598 0.609231 5132367 3
-0.459194 0.244824 0.641255 4342338 3
-0.467351 0.255020 0.667962 4342338 3
-0.461188 0.257705 0.674993 4934475 3
-0.434887 0.248991 0.652171 3092271 3
-0.417432 0.245031 0.641797 3947321 3
-0.421363 0.253744 0.664619 4736583 3
-0.499331 0.239269 0.600865 3355704 3
-0.490635 0.239841 0.602302 3882048 3
-0.480746 0.239841 0.602302 3355702 3
-0.470857 0.239841 0.602302 3948609 3
-0.446265 0.242601 0.609231 4803398 3
-0.445595 0.259699 0.652171 4474437 3
-0.401620 0.239834 0.602283 4540230 3
0.500591 0.203758 0.719293 5263699 3
0.521908 0.207538 0.732639 6184801 3
0.556345 0.216248 0.763385 5986911 3
0.570838 0.216993 0.766015 5000017 3
0.575149 0.213918 0.755161 6908014 3
0.581935 0.211875 0.747947 4802891 3
0.573922 0.204639 0.722403 4736585 3
0.532597 0.219016 0.730800 6974571 3
0.580587 0.233490 0.779097 6711148 3
0.595419 0.234293 0.781775 6974066 3
0.597850 0.225526 0.752522 6578791 3
0.570077 0.210695 0.703034 7894651 3
0.510256 0.221325 0.700145 5461848 3
0.584102 0.273512 0.783814 5000016 3
0.287243 0.163090 0.575729 5197136 3
0.287243 0.172543 0.575729 7763065 3
0.286191 0.181329 0.573621 9276304 3
0.299401 0.183655 0.580978 7039342 3
0.219960 0.198994 0.598420 8947848 3
0.282058 0.187993 0.565337 8355202 3
0.293533 0.189408 0.569593 8947339 3
0.208791 0.189740 0.543745 8685187 3
0.259399 0.194210 0.556553 8223873 3
0.267939 0.193777 0.555314 7960701 3
0.277735 0.194251 0.556672 7170928 3
0.288609 0.195425 0.560036 7565686 3
0.212059 0.193503 0.529609 8488835 3
0.218954 0.191925 0.525290 9079947 3
0.226058 0.190642 0.521779 8750469 3
0.233167 0.189458 0.518538 8421763 3
0.241731 0.189497 0.518646 9013389 3
0.251026 0.190087 0.520261 8750217 3
0.257228 0.188374 0.515570 9013132 3
0.261085 0.185106 0.506627 8355202 3
0.200971 0.191627 0.501918 9343887 3
0.209674 0.192050 0.503028 8158332 3
0.217628 0.191781 0.502322 8618883 3
0.242470 0.191859 0.502526 8092288 3
0.251222 0.192243 0.503532 8815498 3
0.259233 0.192053 0.503034 9209742 3
0.004977 0.222035 0.783814 7171696 3
0.004973 0.234732 0.783238 7171439 3
0.017958 0.236374 0.788720 6776681 3
0.004985 0.248158 0.785031 8223612 3
0.044263 0.251625 0.795997 7105646 3
0.056574 0.248295 0.785464 7697529 3
0.069252 0.247514 0.782992 7368818 3
0.082108 0.247514 0.782992 6776679 3
0.043817 0.262030 0.787986 6908267 3
0.052871 0.244097 0.734055 7763322 3
0.005073 0.278802 0.798972 7895160 3
0.018192 0.278802 0.798972 8092539 3
0.031310 0.278802 0.798972 7697781 3
0.043817 0.274968 0.787986 6974060 3
0.005073 0.291920 0.798972 9737362 3
0.017941 0.287906 0.787986 9342604 3
0.030684 0.286082 0.782992 9145227 3
0.043540 0.286082 0.782992 8553090 3
0.004646 0.279329 0.731633 9014150 3
0.016519 0.277000 0.725532 10066840 3
-0.340775 0.259995 0.917820 5657171 3
-0.340939 0.272156 0.960749 4276032 3
-0.331254 0.277252 0.978740 6184029 3
-0.315184 0.277252 0.978740 5657685 3
-0.325165 0.287930 0.960749 6513507 3
-0.309899 0.288404 0.962328 5658711 3
-0.396461 0.230981 0.815394 4934475 3
-0.378505 0.228226 0.805669 5197645 3
-0.384957 0.240522 0.849078 5723478 3
-0.369033 0.239237 0.844539 5526099 3
-0.350301 0.235959 0.832970 4868171 3
-0.336625 0.235959 0.832970 5459538 3
-0.343602 0.251050 0.886242 5854550 3
-0.352950 0.242073 0.807734 5329233 3
-0.343003 0.244435 0.815617 5987163 3
-0.329612 0.244435 0.815617 5395024 3
-0.320846 0.248011 0.827547 6446685 3
-0.311558 0.251481 0.839128 5526353 3
-0.318106 0.268647 0.896405 4210239 3
-0.339467 0.255169 0.807208 3618617 3
-0.328550 0.256996 0.812989 4671305 3
-0.316220 0.257827 0.815617 6447712 3
-0.302828 0.257827 0.815617 6316126 3
-0.351025 0.267132 0.803328 4473926 3
-0.353977 0.282679 0.810084 5065552 3
-0.448069 0.205525 0.725532 3026480 3
-0.455016 0.214412 0.756905 2697261 3
-0.454860 0.220357 0.777891 3223859 3
-0.438357 0.212725 0.709807 4144961 3
-0.430607 0.214671 0.716301 4671305 3
-0.423086 0.216844 0.723552 3223859 3
-0.429578 0.226532 0.755879 5460821 3
-0.430251 0.233637 0.779586 4539719 3
-0.421250 0.235763 0.786681 4473926 3
-0.406419 0.234658 0.782992 4539976 3
-0.436504 0.223430 0.706806 4012864 3
-0.430607 0.226432 0.716301 4276547 3
-0.423341 0.228862 0.723988 3881787 3
-0.432009 0.240295 0.760156 5066061 3
-0.427985 0.245139 0.775481 4210752 3
-0.417189 0.246282 0.779097 4474437 3
-0.405787 0.247129 0.781775 5000781 3
-0.433820 0.233590 0.702459 2433832 3
-0.428046 0.236776 0.712042 4144961 3
-0.418241 0.237849 0.715266 4671303 3
-0.408967 0.239294 0.719612 4868682 3
-0.407199 0.245348 0.737817 4342338 3
-0.434419 0.245462 0.703430 4341829 3
-0.424053 0.246149 0.705398 4868430 3
-0.412471 0.246149 0.705398 4539717 3
-0.408266 0.141973 0.501185 2039074 3
-0.425217 0.156439 0.521995 1841695 3
-0.412878 0.155023 0.517273 2763308 3
-0.406398 0.155795 0.519848 2763054 3
-0.442935 0.171885 0.543745 1710109 3
-0.453899 0.179763 0.568666 2105376 3
-0.489235 0.195767 0.588716 2499625 3
-0.474684 0.193773 0.582720 2829101 3
-0.467727 0.194860 0.585990 2500132 3
-0.460236 0.195767 0.588716 3092523 3
0.005227 0.219676 0.823201 8093566 3
0.020455 0.239739 0.898384 6514534 3
0.034858 0.237369 0.889504 6711397 3
0.049390 0.237019 0.888193 7566706 3
0.064132 0.237609 0.890403 6711913 3
0.079600 0.240168 0.899991 7632501 3
0.094376 0.240168 0.899991 7960442 3
0.018842 0.234423 0.827547 5855836 3
0.032642 0.235959 0.832970 6185055 3
0.046661 0.237704 0.839128 7106157 3
0.061094 0.240279 0.848219 6909292 3
0.075273 0.241089 0.851078 7171437 3
0.088588 0.239307 0.844787 5920859 3
0.031962 0.244435 0.815617 6514020 3
0.045354 0.244435 0.815617 7237743 3
0.058329 0.242703 0.809836 5987676 3
0.073504 0.249069 0.831077 6184542 3
0.087642 0.250475 0.835769 6579300 3
0.098190 0.242631 0.809596 6382434 3
0.018571 0.257827 0.815617 7631990 3
0.031736 0.256000 0.809836 6250337 3
0.005162 0.270345 0.812989 6118749 3
0.018439 0.269296 0.809836 6381921 3
0.031411 0.266539 0.801546 7105646 3
-0.007780 0.206177 0.772614 7106157 3
-0.060492 0.226230 0.798625 8026748 3
-0.046282 0.220992 0.780134 7039851 3
-0.033316 0.219954 0.776469 7764087 3
-0.021036 0.224968 0.794171 6645606 3
-0.007857 0.221043 0.780314 7105644 3
-0.058696 0.232235 0.774909 5658200 3
-0.046328 0.234031 0.780899 6579300 3
-0.033776 0.235911 0.787175 5527125 3
-0.020943 0.236954 0.790653 6118749 3
-0.007921 0.235763 0.786681 7565682 3
-0.071443 0.245040 0.775166 7171696 3
-0.057097 0.238286 0.753800 4342086 3
-0.046328 0.246852 0.780899 7171439 3
-0.033882 0.249621 0.789659 6710888 3
-0.020943 0.249935 0.790653 5263188 3
-0.007921 0.248680 0.786681 7960442 3
-0.031883 0.247093 0.743065 3815743 3
-0.020695 0.259808 0.781303 4802638 3
-0.019957 0.262904 0.753414 9408148 3
-0.007970 0.276214 0.791555 8881803 3
-0.032243 0.274556 0.751446 8948107 3
-0.020535 0.283249 0.775240 8948107 3
-0.007970 0.289210 0.791555 7960955 3
-0.007806 0.295978 0.775240 8751750 3
-0.168280 0.200910 0.752877 4342338 3
-0.199882 0.220872 0.779709 4736583 3
-0.179577 0.212014 0.748438 5921370 3
-0.168280 0.213271 0.752877 5526612 3
-0.187267 0.218927 0.730502 7105644 3
-0.174761 0.218286 0.728365 6974058 3
-0.163852 0.219696 0.733067 6645606 3
-0.188256 0.232140 0.734357 8289666 3
-0.173200 0.228189 0.721861 7960701 3
-0.163089 0.230652 0.729651 6710888 3
-0.184648 0.239517 0.720282 6052704 3
-0.172357 0.238873 0.718347 5592153 3
0.619539 0.203523 0.869691 5525848 3
0.627939 0.201635 0.861623 5591641 3
0.637694 0.200256 0.855729 4407369 3
0.651744 0.200256 0.855729 3617851 3
0.665344 0.200120 0.855151 4933964 3
0.615908 0.216526 0.864594 1973281 3
0.623644 0.214306 0.855729 3223093 3
0.637694 0.214306 0.855729 5591641 3
0.651744 0.214306 0.855729 5723482 3
0.665344 0.214161 0.855151 4407620 3
0.672269 0.211918 0.846193 3421236 3
0.671244 0.207311 0.827796 3750203 3
0.634228 0.227115 0.851078 2763055 3
0.648202 0.227115 0.851078 2105124 3
0.659275 0.226120 0.847350 3026480 3
0.665302 0.223472 0.837425 1710620 3
0.667551 0.219687 0.823241 2171171 3
0.600776 0.254847 0.806189 5657947 3
0.630800 0.281481 0.846478 4539466 3
0.624136 0.272503 0.819480 7039087 3
0.621194 0.284610 0.815617 5328724 3
0.630087 0.282593 0.809836 5131603 3
0.553392 0.200256 0.855729 4342338 3
0.567835 0.200394 0.856320 3092532 3
0.587716 0.202399 0.864888 3421497 3
0.599231 0.201496 0.861028 3684156 3
0.595954 0.214454 0.856320 2434089 3
0.596256 0.218328 0.818150 4934224 3
0.329874 0.210019 0.897449 6382182 3
0.339608 0.206971 0.884426 6513255 3
0.352264 0.205881 0.879766 6052447 3
0.366709 0.205881 0.879766 5986650 3
0.372609 0.201265 0.860043 5723991 3
0.311784 0.222362 0.887897 6514538 3
0.323945 0.220715 0.881320 7303284 3
0.332714 0.216997 0.866473 6973806 3
0.341947 0.213873 0.854001 7499638 3
0.352128 0.211566 0.844787 6974060 3
0.362092 0.209307 0.835769 6119260 3
0.371845 0.207097 0.826942 5329231 3
0.303287 0.230483 0.863699 6514538 3
0.317905 0.230800 0.864888 7698042 3
0.325509 0.226216 0.847709 6644841 3
0.337113 0.224673 0.841927 6512743 3
0.350936 0.224673 0.841927 6776681 3
0.359480 0.221421 0.829741 7435122 3
0.303957 0.234252 0.826942 5329492 3
0.318798 0.235183 0.830230 6645095 3
0.333526 0.235959 0.832970 6250084 3
0.344690 0.234252 0.826942 6776681 3
0.302950 0.247008 0.824202 7697783 3
0.309958 0.255169 0.807208 7303025 3
-0.096597 0.208186 0.889616 5526871 3
-0.080352 0.204024 0.871831 4869195 3
-0.066013 0.203949 0.871510 5526612 3
-0.051613 0.203593 0.869991 5723991 3
-0.037472 0.204375 0.873333 7895160 3
-0.023173 0.204731 0.874852 8553090 3
-0.008825 0.205098 0.876423 8750469 3
-0.092699 0.213801 0.853714 6118497 3
-0.078015 0.211989 0.846478 6316130 3
-0.064205 0.212282 0.847647 7303023 3
-0.051524 0.217502 0.868489 6315615 3
-0.037329 0.217878 0.869991 7369329 3
-0.023133 0.218715 0.873333 7369329 3
-0.008825 0.219488 0.876423 8158845 3
-0.092387 0.227051 0.850838 7368564 3
-0.075479 0.218546 0.818965 6579302 3
-0.060743 0.214002 0.801941 6513507 3
-0.050136 0.225516 0.845086 6447201 3
-0.035319 0.219660 0.823140 7895673 3
-0.021329 0.214875 0.805210 6975085 3
-0.090724 0.236683 0.835524 7895162 3
-0.075418 0.231804 0.818300 7171439 3
-0.091048 0.251297 0.838511 5329235 3
-0.073852 0.240147 0.801308 4605512 3
-0.008077 0.266728 0.802112 6710377 3
-0.169595 0.208142 0.889428 5460819 3
-0.159947 0.210074 0.838832 4013375 3
-0.145929 0.209722 0.837425 4474183 3
-0.132179 0.209722 0.837425 5264471 3
-0.119351 0.211353 0.843936 4738127 3
-0.107191 0.214752 0.857508 5065810 3
-0.197121 0.219238 0.821560 4144446 3
-0.167957 0.216421 0.811004 5658198 3
-0.159679 0.223472 0.837425 3947582 3
-0.145929 0.223472 0.837425 6908524 3
-0.132406 0.223855 0.838863 5264471 3
-0.121683 0.229611 0.860431 6974319 3
-0.107556 0.229611 0.860431 6381669 3
-0.167323 0.228869 0.807941 6185055 3
-0.167615 0.249012 0.879047 6644582 3
-0.154409 0.251006 0.886087 6645352 3
-0.137802 0.247312 0.873046 5922401 3
-0.122106 0.244585 0.863419 7171698 3
-0.107556 0.243738 0.860431 7236978 3
-0.178736 0.258652 0.863054 5790297 3
-0.239418 0.233513 0.997842 5920857 3
-0.233467 0.243685 0.973041 5460306 3
-0.218764 0.245112 0.978740 5262927 3
-0.251799 0.262114 0.982232 4736583 3
-0.294099 0.272603 0.962328 5197134 3
-0.275338 0.269704 0.952093 4737098 3
-0.485809 0.226182 0.966515 2630956 3
-0.485819 0.233824 0.999174 2828847 3
-0.469738 0.233986 0.999865 3224116 3
-0.456309 0.243244 0.971280 2631720 3
-0.451566 0.249433 0.995994 2960685 3
-0.441545 0.250806 0.939854 6447712 3
-0.427705 0.251742 0.943364 5526099 3
-0.422843 0.258232 0.967685 4867401 3
-0.411604 0.261182 0.978740 4998476 3
-0.444174 0.200256 0.855729 3815232 3
-0.432048 0.215265 0.859559 2894383 3
-0.430068 0.221514 0.884512 1710620 3
-0.472807 0.222009 0.831944 2039331 3
-0.460482 0.222654 0.834362 3486777 3
-0.447677 0.223100 0.836033 3684156 3
-0.436279 0.224298 0.840520 3618106 3
-0.423186 0.224673 0.841927 4934477 3
-0.412104 0.226178 0.847565 3618615 3
-0.460396 0.229483 0.810107 5460821 3
-0.451617 0.231804 0.818300 4342340 3
-0.436745 0.231044 0.815617 6316130 3
-0.425017 0.231952 0.818822 6711145 3
-0.414277 0.233476 0.824202 4803148 3
0.403721 0.155596 0.715061 5592153 3
0.411702 0.154188 0.708590 5526360 3
0.421429 0.153494 0.705398 5065809 3
0.402346 0.166767 0.712625 2762797 3
0.410198 0.165217 0.706002 4539206 3
0.480457 0.178392 0.762302 4934477 3
0.456820 0.176907 0.706396 2829358 3
0.401219 0.189636 0.710630 7302512 3
0.448635 0.189951 0.711811 6645095 3
0.458506 0.189202 0.709004 5197908 3
0.355639 0.172099 0.790901 3356474 3
0.385521 0.157757 0.724993 5789533 3
0.395593 0.157030 0.721652 4868431 3
0.347949 0.181083 0.773799 5329492 3
0.382534 0.168347 0.719376 1446682 3
0.392542 0.167577 0.716086 2499625 3
0.354527 0.190496 0.760654 6776681 3
0.351950 0.182676 0.729428 7303025 3
0.362581 0.182000 0.726732 7499891 3
0.361889 0.175865 0.702235 7302512 3
0.384544 0.175681 0.701497 4868173 3
0.397933 0.176510 0.704810 4276293 3
0.307697 0.210343 0.966657 4474953 3
0.312013 0.202831 0.932133 5264982 3
0.300739 0.221099 0.944798 6448743 3
0.312255 0.218305 0.932856 6976370 3
0.320174 0.213375 0.911791 6778221 3
0.204880 0.202831 0.932133 6841961 3
0.220185 0.202831 0.932133 6907754 3
0.235489 0.202831 0.932133 5986912 3
0.253816 0.205275 0.943364 6052705 3
0.272589 0.207778 0.954868 5262929 3
0.288267 0.207778 0.954868 5395026 3
0.206442 0.219798 0.939238 8683649 3
0.220185 0.218136 0.932133 6643812 3
0.233585 0.216371 0.924594 5921119 3
0.247844 0.215569 0.921167 7105392 3
0.265526 0.217666 0.930127 7895162 3
0.288158 0.223371 0.954507 6908265 3
0.201604 0.229708 0.917230 6447201 3
0.215064 0.228012 0.910456 7959672 3
0.103934 0.215668 0.991129 6314849 3
0.120207 0.215668 0.991129 5854813 3
0.136480 0.215668 0.991129 5921372 3
0.152754 0.215668 0.991129 7434609 3
0.166914 0.212973 0.978740 6447716 3
0.180725 0.210343 0.966657 5460567 3
0.196597 0.210343 0.966657 5065809 3
0.102634 0.229043 0.978740 7301744 3
0.119737 0.231036 0.987258 6117985 3
0.136480 0.231942 0.991129 5920859 3
0.151441 0.229949 0.982612 6184031 3
0.166914 0.229043 0.978740 6644582 3
0.181431 0.227098 0.970433 6315619 3
0.194948 0.224318 0.958552 7236719 3
0.102435 0.244637 0.976840 3881278 3
0.118704 0.245112 0.978740 5525848 3
0.134774 0.245112 0.978740 5921118 3
0.150844 0.245112 0.978740 5723993 3
0.165497 0.243032 0.970433 7105133 3
0.179210 0.240057 0.958552 6315617 3
0.191020 0.235220 0.939238 6184542 3
0.124921 0.242088 0.907186 7960955 3
0.140320 0.242960 0.910456 7697783 3
0.155269 0.242960 0.910456 6710375 3
0.170218 0.242960 0.910456 7039340 3
0.183703 0.241040 0.903261 6579300 3
-0.154485 0.212973 0.978740 3882818 3
-0.136706 0.210343 0.966657 3487291 3
-0.117923 0.205275 0.943364 4671564 3
-0.101214 0.202831 0.932133 4013632 3
-0.128533 0.212691 0.908866 5198423 3
-0.117923 0.220764 0.943364 5197908 3
-0.199360 0.241080 0.962637 5066061 3
-0.177084 0.278327 0.928706 6381410 3
-0.405026 0.102023 0.468858 1775133 3
-0.406676 0.106486 0.489370 1184023 3
-0.413501 0.109928 0.469740 1642780 3
-0.405026 0.109721 0.468858 2630442 3
-0.423647 0.118320 0.472453 1183514 3
-0.412724 0.117419 0.468858 1905438 3
-0.405026 0.117419 0.468858 2300196 3
-0.410398 0.122134 0.457678 2498604 3
-0.408251 0.123761 0.463776 2498089 3
-0.406704 0.125636 0.470799 2563368 3
-0.401387 0.126396 0.473647 2103844 3
-0.402314 0.131926 0.465718 1775133 3
-0.403073 0.134736 0.475637 1841442 3
-0.405335 0.138169 0.487756 2499370 3
-0.408529 0.141729 0.472912 3683644 3
0.057289 0.207266 1.030253 5262929 3
0.074696 0.208639 1.037076 6051929 3
0.093583 0.212868 1.058097 6117211 3
0.074205 0.224182 1.030253 6052956 3
0.093583 0.230241 1.058097 6446433 3
0.090277 0.238867 1.020720 6644582 3
-0.354506 0.233366 1.159988 3881274 3
-0.328167 0.228293 1.134771 3881274 3
-0.349330 0.248727 1.143054 3749174 3
-0.371475 0.269949 1.153541 4472897 3
-0.358354 0.278685 1.112795 3617075 3
-0.373061 0.294146 1.102265 5131341 3
-0.345776 0.104319 0.518538 2105637 3
-0.351176 0.109217 0.501918 1447195 3
-0.354290 0.112833 0.518538 2368296 3
-0.352785 0.115120 0.529049 855311 3
-0.353612 0.118273 0.505400 2368296 3
-0.352133 0.120608 0.515381 2961198 3
-0.355613 0.124799 0.533289 2499623 3
-0.352895 0.126972 0.542573 3157553 3
-0.355211 0.127143 0.507685 2302246 3
-0.362922 0.133025 0.531171 2697000 3
-0.360084 0.135234 0.539995 2894381 3
-0.352895 0.135880 0.542573 2894381 3
-0.349772 0.138165 0.551698 2762795 3
-0.383871 0.153620 0.575665 3223344 3
-0.361988 0.148519 0.556553 2433830 3
-0.374580 0.157666 0.590828 2433830 3
-0.399675 0.141845 0.500732 2302757 3
-0.340751 0.100333 0.498721 1776160 3
-0.399722 0.102637 0.471682 1446168 3
-0.398641 0.106486 0.489370 1645086 3
-0.390606 0.106486 0.489370 2565675 3
-0.382571 0.106486 0.489370 1644314 3
-0.374536 0.106486 0.489370 1841693 3
-0.366501 0.106486 0.489370 1250069 3
-0.363004 0.107834 0.495565 986897 3
-0.357128 0.108521 0.498721 2038819 3
-0.397328 0.109721 0.468858 1644061 3
-0.392877 0.110635 0.472765 1381401 3
-0.394866 0.113437 0.484736 855570 3
-0.390606 0.114521 0.489370 2236964 3
-0.382571 0.114521 0.489370 1644827 3
-0.374536 0.114521 0.489370 1513241 3
-0.364936 0.114032 0.487280 1579034 3
-0.356240 0.113810 0.486331 2894640 3
-0.354355 0.115803 0.494849 2565165 3
-0.398974 0.117905 0.470799 2367016 3
-0.394204 0.118798 0.474362 1709854 3
-0.394866 0.121396 0.484736 2894383 3
-0.390606 0.122556 0.489370 2763308 3
-0.382571 0.122556 0.489370 2960687 3
-0.374536 0.122556 0.489370 2105124 3
-0.366501 0.122556 0.489370 3025969 3
-0.358466 0.122556 0.489370 3486265 3
-0.355035 0.124166 0.495799 1709854 3
-0.399373 0.128246 0.480582 1775647 3
-0.397103 0.130087 0.487482 2368039 3
-0.390606 0.130591 0.489370 2368550 3
-0.382571 0.130591 0.489370 2434089 3
-0.374536 0.130591 0.489370 1118229 3
-0.368086 0.131156 0.491486 1841695 3
-0.362290 0.131984 0.494591 2696749 3
-0.396670 0.125312 0.442368 1380891 3
-0.395597 0.127304 0.449400 1906206 3
-0.389882 0.141275 0.498721 2368296 3
-0.381693 0.141275 0.498721 1841952 3
-0.392238 0.131094 0.437426 920340 3
-0.392663 0.133684 0.446067 1511961 3
0.559852 0.122598 0.663553 1578781 1
0.565951 0.121568 0.657977 1973539 1
0.576754 0.121568 0.657977 2894383 1
0.575625 0.134634 0.669224 1315608 1
0.586613 0.134634 0.669224 3092019 1
0.589844 0.152123 0.699100 2894641 3
0.549781 0.139084 0.639177 3223605 1
0.567221 0.140808 0.647101 3289398 1
0.586143 0.162575 0.694713 2697262 3
0.541223 0.147250 0.629228 2368809 3
0.556456 0.148559 0.634820 3487290 3
0.593191 0.155455 0.664285 2499883 3
0.589844 0.175080 0.699100 3618364 3
0.578366 0.186559 0.699100 2170917 3
0.589844 0.186559 0.699100 3157813 3
0.597664 0.185424 0.694847 3157812 3
0.566659 0.197958 0.698819 5723482 3
0.569790 0.195101 0.688735 4868173 3
0.576032 0.193400 0.682729 5460310 3
0.592762 0.195218 0.689147 4539719 3
0.551805 0.199894 0.666995 7368307 3
0.555148 0.197191 0.657977 6381412 3
0.559608 0.194982 0.650603 5986652 3
0.608851 0.161638 0.874852 2433832 1
0.630258 0.163465 0.884737 2959921 1
0.630800 0.156396 0.846478 2630958 1
0.609593 0.172155 0.855729 3157300 1
0.616901 0.170294 0.846478 2301991 1
0.630800 0.170294 0.846478 2894130 1
0.627732 0.165813 0.824202 2630188 1
0.609593 0.186206 0.855729 4078402 3
0.613585 0.183202 0.841927 4341574 3
0.617450 0.180294 0.828563 2762544 3
0.648202 0.185194 0.851078 3157302 3
0.672269 0.198024 0.846193 3881789 3
0.673651 0.194413 0.830763 3421497 3
0.023770 0.192888 1.043989 1051924 1
0.040912 0.192888 1.043989 2828590 1
0.059238 0.196825 1.065295 2499623 1
0.077254 0.198173 1.072592 2433314 1
0.094865 0.198173 1.072592 2827561 1
-0.049948 0.155555 0.841927 2236453 1
-0.037748 0.162546 0.879766 1775902 1
-0.023303 0.162546 0.879766 1775649 1
-0.053088 0.180025 0.894848 2499621 3
-0.038396 0.180025 0.894848 2433830 3
-0.023703 0.180025 0.894848 2368039 3
-0.053393 0.195837 0.899991 7039338 3
-0.038396 0.194718 0.894848 8223612 3
-0.023703 0.194718 0.894848 8749956 3
-0.009062 0.195837 0.899991 8552577 3
-0.085909 0.172222 0.932133 2631981 1
-0.069774 0.170195 0.921167 2565675 1
-0.088545 0.193279 0.960726 2500393 1
-0.069774 0.185320 0.921167 1447448 1
-0.009221 0.184236 0.915780 4078402 3
-0.154485 0.180833 0.978740 3158326 1
-0.101214 0.172222 0.932133 2631981 1
-0.154485 0.196903 0.978740 2566189 3
-0.138415 0.196903 0.978740 5395288 3
-0.117923 0.189786 0.943364 2895153 1
-0.101214 0.187526 0.932133 3487290 1
0.700473 0.115118 0.683836 1709337 1
0.700473 0.126346 0.683836 1578519 1
0.711700 0.126346 0.683836 1710359 1
0.726099 0.126900 0.686835 2170142 1
0.700473 0.137574 0.683836 854796 1
0.711700 0.137574 0.683836 1512980 1
0.722928 0.137574 0.683836 2038043 1
0.724663 0.135795 0.674993 1182993 1
0.726353 0.134061 0.666376 1643547 1
0.724955 0.131818 0.655223 1117721 1
0.703545 0.149454 0.686835 4144448 1
0.714822 0.149454 0.686835 3881274 1
0.726099 0.149454 0.686835 2301215 1
0.737376 0.149454 0.686835 2104095 1
0.720224 0.143779 0.660753 2564649 1
0.721934 0.141982 0.652493 1380891 1
0.724955 0.153334 0.655223 3091507 1
0.730564 0.152261 0.650638 2169890 1
0.749411 0.153938 0.657804 2828335 1
0.755060 0.152895 0.653347 1512477 1
0.771443 0.154024 0.658172 1381402 1
0.796953 0.156919 0.670543 1446937 1
0.795922 0.167711 0.669675 1578268 1
0.689245 0.115118 0.683836 2631211 1
0.607994 0.125797 0.680863 2038819 1
0.655561 0.126346 0.683836 855319 1
0.669713 0.126900 0.686835 1644833 1
0.678017 0.126346 0.683836 1381402 1
0.689245 0.126346 0.683836 1775902 1
0.607994 0.136976 0.680863 2959921 1
0.632933 0.140020 0.695993 1446684 1
0.658715 0.140645 0.699100 1710115 1
0.664263 0.139400 0.692913 1842212 1
0.675640 0.139400 0.692913 1644833 1
0.680990 0.138177 0.686835 1841440 1
0.692268 0.138177 0.686835 2565418 1
0.600166 0.146247 0.672096 2894641 1
0.613836 0.146878 0.674993 2828337 1
0.641509 0.150777 0.692913 1841701 1
0.655788 0.151447 0.695993 1710115 1
0.667215 0.151447 0.695993 1710626 1
0.678643 0.151447 0.695993 3026740 1
0.687017 0.150777 0.692913 2434089 1
0.698394 0.150777 0.692913 3289652 1
0.618883 0.159259 0.680544 3092022 3
0.644564 0.162926 0.696213 2565426 3
0.654708 0.162606 0.694847 3289147 3
0.664263 0.162154 0.692913 4539979 3
0.675640 0.162154 0.692913 4145220 3
0.684936 0.161663 0.690815 4013632 3
0.695317 0.161440 0.689861 4210754 3
0.601323 0.175080 0.699100 5263701 3
0.609073 0.174015 0.694847 4736845 3
0.618755 0.173531 0.692913 4473675 3
0.630132 0.173531 0.692913 3683646 3
0.641157 0.173436 0.692533 2301995 3
0.647159 0.172009 0.686835 2630958 3
0.658617 0.172056 0.687024 4605259 3
0.672664 0.172766 0.689861 5132113 3
0.683990 0.172766 0.689861 5198160 3
0.607378 0.184908 0.692913 3420984 3
0.618755 0.184908 0.692913 2631469 3
0.630132 0.184908 0.692913 2696751 3
0.633839 0.182697 0.684628 3485497 3
0.630318 0.178516 0.668962 3486265 3
0.636116 0.177073 0.663553 3223605 3
0.639598 0.175044 0.655949 3092784 3
0.607378 0.196285 0.692913 3947328 3
0.618755 0.196285 0.692913 2762542 3
0.622598 0.193938 0.684628 4867920 3
0.615786 0.188414 0.665129 3683646 3
0.552462 0.151506 0.899991 2105637 1
0.560793 0.149784 0.889764 2303016 1
0.572151 0.148938 0.884737 1776159 1
0.586678 0.148938 0.884737 2302503 1
0.516966 0.164393 0.889764 3355705 1
0.522666 0.161638 0.874852 2237738 1
0.537030 0.161638 0.874852 2171431 1
0.551395 0.161638 0.874852 2236710 1
0.562616 0.160740 0.869991 1512987 1
0.573713 0.159852 0.865185 2368039 1
0.591184 0.160740 0.869991 1840925 1
0.505939 0.165813 0.824202 3816255 1
0.524998 0.167577 0.832970 2170917 1
0.559507 0.174058 0.865185 2829101 1
0.570561 0.173101 0.860431 3289141 1
0.584688 0.173101 0.860431 4868173 1
0.595543 0.172155 0.855729 3618106 1
0.508761 0.175647 0.807208 5789786 3
0.553392 0.186206 0.855729 4934477 3
0.567443 0.186206 0.855729 4605258 3
0.581493 0.186206 0.855729 5131602 3
0.595543 0.186206 0.855729 5460310 3
0.556888 0.141612 0.932133 2368809 1
0.573835 0.138319 0.910456 1776159 1
0.536523 0.164763 0.978740 2631469 1
0.545771 0.162729 0.966657 2499885 1
0.541584 0.156917 0.932133 2302506 1
0.543937 0.153268 0.910456 1842465 1
0.520453 0.180833 0.978740 2105638 1
0.517131 0.174297 0.943364 1973798 1
0.520087 0.170195 0.921167 2500396 1
0.514028 0.194472 0.966657 3815745 3
0.263334 0.148693 0.978740 2893614 1
0.275954 0.146857 0.966657 2828848 1
0.295474 0.148693 0.978740 2960946 1
0.247264 0.164763 0.978740 1776162 1
0.263334 0.164763 0.978740 2433062 1
0.279404 0.164763 0.978740 2499625 1
0.293639 0.163739 0.972661 1776159 1
0.209877 0.176422 0.954868 2434092 1
0.225555 0.176422 0.954868 2697264 1
0.244211 0.178600 0.966657 3158072 1
0.260083 0.178600 0.966657 2697004 1
0.275954 0.178600 0.966657 2236451 1
0.288267 0.176422 0.954868 2368035 1
0.204880 0.187526 0.932133 3157300 3
0.220185 0.187526 0.932133 4802380 3
0.238327 0.189786 0.943364 3684670 3
0.256911 0.192100 0.954868 4605259 3
0.275954 0.194472 0.966657 4670792 3
0.290036 0.193279 0.960726 2960172 3
0.440103 0.132623 0.978740 1908259 1
0.418798 0.146857 0.966657 2763054 1
0.440103 0.148693 0.978740 2435117 1
0.402927 0.162729 0.966657 2368809 1
0.418798 0.162729 0.966657 2500395 1
0.440103 0.164763 0.978740 2896181 1
0.461948 0.166848 0.991129 2566707 1
0.402927 0.178600 0.966657 1052947 1
0.418798 0.178600 0.966657 1514268 1
0.440103 0.180833 0.978740 593426 1
0.461948 0.183122 0.991129 1711396 1
0.440103 0.196903 0.978740 4935251 3
0.499091 0.183165 0.910456 2960434 1
-0.039885 0.204035 1.505754 2302503 1
-0.092904 0.237908 1.565984 2170405 1
-0.065875 0.233244 1.535279 2696749 1
-0.039885 0.228758 1.505754 2960434 1
-0.015162 0.228758 1.505754 2894640 1
-0.092904 0.263620 1.565984 2828590 1
0.362634 0.103603 0.869991 1710109 1
0.372777 0.102464 0.860431 2170660 1
0.391203 0.103603 0.869991 2105125 1
0.376919 0.117887 0.869991 2828590 1
0.358303 0.180025 0.894848 4407879 3
0.372995 0.180025 0.894848 4473924 3
0.325201 0.192518 0.884737 5724252 3
0.337819 0.191436 0.879766 5197395 3
0.346425 0.188263 0.865185 7763065 3
0.360631 0.188263 0.865185 4671303 3
0.379151 0.130177 1.864267 1184023 1
0.348541 0.160787 1.864267 1578523 1
0.379151 0.160787 1.864267 1578523 1
0.310538 0.186945 1.820912 1644574 1
0.370333 0.186945 1.820912 2301474 1
-0.365316 0.026636 0.498721 591634 1
-0.350431 0.026137 0.489370 1249566 1
-0.358466 0.034172 0.489370 1315357 1
-0.346105 0.033750 0.483328 2038823 1
-0.335067 0.033440 0.478894 1117980 1
-0.358466 0.042207 0.489370 855060 1
-0.346105 0.041685 0.483328 1249305 1
-0.338169 0.041685 0.483328 986133 1
-0.356240 0.049929 0.486331 1907748 1
-0.343982 0.049317 0.480363 1775133 1
-0.358466 0.058276 0.489370 1249305 1
-0.340270 0.073885 0.486331 1315096 1
-0.330234 0.073429 0.483328 1117717 1
-0.322298 0.073429 0.483328 1578780 1
-0.340270 0.081870 0.486331 1512475 1
-0.330234 0.081364 0.483328 393994 1
-0.322298 0.081364 0.483328 1381401 1
-0.314362 0.081364 0.483328 1184274 1
-0.342396 0.090416 0.489370 1578268 3
-0.334361 0.090416 0.489370 2104614 3
-0.326326 0.090416 0.489370 987157 3
-0.312433 0.088752 0.480363 856340 3
-0.354867 0.099698 0.495565 2565418 3
-0.346731 0.099698 0.495565 1709854 3
-0.298713 0.220311 1.095094 3224116 3
-0.280732 0.220311 1.095094 2237224 3
-0.253875 0.212868 1.058097 3092019 3
-0.236502 0.212868 1.058097 4933964 3
-0.294072 0.221270 1.016873 4538690 3
-0.277376 0.221270 1.016873 3815996 3
-0.260680 0.221270 1.016873 3815742 3
-0.242410 0.219843 1.010312 4933964 3
-0.230278 0.224182 1.030253 4276032 3
-0.213363 0.224182 1.030253 4604999 3
-0.292175 0.236431 1.010312 4932935 3
-0.275476 0.236336 1.009908 5460308 3
-0.257235 0.234822 1.003436 5788503 3
-0.226377 0.237013 1.012799 4934216 3
-0.208736 0.235869 1.007910 5723991 3
-0.294072 0.254662 1.016873 5327952 3
-0.276035 0.253431 1.011958 5197136 3
-0.256838 0.250909 1.001888 6249824 3
-0.297700 0.274706 1.029417 5065550 3
-0.275819 0.269835 1.011164 5131856 3
-3.584664 0.100666 4.893701 1578270 1
-3.504314 0.100666 4.893701 1249307 1
-3.584664 0.181016 4.893701 1446684 1
-3.504314 0.181016 4.893701 789015 1
-0.494425 0.204574 1.016873 3486777 3
-0.477728 0.204574 1.016873 3487031 3
-0.494425 0.221270 1.016873 3289398 3
-0.459185 0.237013 1.012799 2829101 3
-0.479755 0.256935 1.097928 2960174 3
-0.442556 0.253642 1.012799 4341057 3
0.224683 0.222728 0.889357 8223616 3
0.233128 0.216997 0.866473 7894908 3
0.245630 0.215483 0.860431 7631477 3
0.262114 0.217439 0.868239 7697270 3
0.283222 0.222830 0.889764 7171696 3
0.299001 0.223705 0.893259 7172725 3
0.200970 0.227038 0.850791 7433328 3
0.213778 0.225812 0.846193 6973547 3
0.225691 0.223847 0.838832 6776681 3
0.239062 0.223472 0.837425 8157821 3
0.252983 0.223623 0.837991 8749958 3
0.269627 0.226042 0.847056 6382180 3
0.287520 0.229219 0.858962 5659229 3
0.211563 0.237221 0.837425 6184031 3
0.225237 0.237142 0.837146 6052447 3
0.237790 0.235959 0.832970 6051677 3
0.250552 0.235101 0.829940 7301742 3
0.263741 0.234711 0.828563 7763574 3
0.278359 0.235569 0.831593 7566454 3
0.292497 0.235959 0.832970 6974317 3
0.222855 0.248233 0.828291 6776170 3
0.294831 0.253558 0.802112 7763576 3
0.109153 0.240168 0.899991 7631736 3
0.190424 0.231194 0.866364 6447201 3
0.102111 0.238497 0.841927 6447716 3
0.115087 0.236752 0.835769 6842474 3
0.136588 0.251050 0.886242 6250337 3
0.146184 0.242819 0.857185 6184031 3
0.153501 0.232580 0.821040 7105133 3
0.165878 0.231044 0.815617 6513509 3
0.970411 0.004063 0.978740 1116438 1
0.986481 0.004063 0.978740 1314332 1
0.990174 0.004013 0.966657 1183773 1
0.986481 0.020133 0.978740 1117721 1
0.990174 0.019885 0.966657 1446686 1
0.986481 0.036203 0.978740 1117721 1
0.938272 -0.012007 0.978740 1643293 1
0.954341 -0.012007 0.978740 2564136 1
0.970411 -0.012007 0.978740 1313817 1
0.990174 -0.011858 0.966657 854808 1
0.993777 -0.011714 0.954868 1579044 1
0.114414 0.143318 0.943364 3289398 1
0.128356 0.141612 0.932133 2697000 1
0.143661 0.141612 0.932133 2960685 1
0.115809 0.160744 0.954868 2828847 1
0.129903 0.158807 0.943364 3025965 1
0.143661 0.156917 0.932133 2302755 1
0.174271 0.156917 0.932133 2105124 1
0.194199 0.160744 0.954868 2303017 1
0.120207 0.183122 0.991129 2762542 1
0.134774 0.180833 0.978740 2829099 1
0.150844 0.180833 0.978740 3619128 1
0.166914 0.180833 0.978740 2895153 1
0.180725 0.178600 0.966657 3487291 1
0.194199 0.176422 0.954868 2697264 1
0.103934 0.199395 0.991129 7367024 3
0.120207 0.199395 0.991129 4867918 3
0.136480 0.199395 0.991129 5066061 3
0.152754 0.199395 0.991129 5789784 3
0.166914 0.196903 0.978740 4407879 3
0.180725 0.194472 0.966657 4210501 3
0.194199 0.192100 0.954868 3552573 3
0.054425 0.212973 0.978740 4605510 3
0.005717 0.210690 0.900316 8816775 3
0.020610 0.211831 0.905193 7040364 3
0.035472 0.211831 0.905193 6250848 3
0.050487 0.212473 0.907936 6250848 3
0.068954 0.224037 0.957351 6316641 3
0.005721 0.225638 0.900978 6711913 3
0.020851 0.229345 0.915780 7633015 3
0.035744 0.228428 0.912120 6975339 3
0.050762 0.228616 0.912870 6842983 3
0.068464 0.238054 0.950555 6317155 3
0.086027 0.243590 0.972661 5592664 3
0.098925 0.143318 0.943364 2763568 1
0.005990 0.174297 0.943364 2236200 1
0.005849 0.185320 0.921167 2894128 3
0.020974 0.185320 0.921167 5657434 3
0.038116 0.195680 0.972661 3881278 3
0.005781 0.198114 0.910456 7697783 3
0.020851 0.199273 0.915780 7960955 3
0.035887 0.199273 0.915780 7434611 3
0.246607 0.004334 1.043989 1644061 1
0.256898 0.004222 1.016873 1709856 1
0.270086 0.004167 1.003836 1117719 1
0.286568 0.004167 1.003836 1184023 1
0.253604 0.020649 1.003836 1841442 1
-0.257370 0.212744 1.151459 2565418 3
-0.231651 0.206666 1.118560 1906205 1
-0.210281 0.203755 1.102806 2827821 1
-0.228388 0.221862 1.102806 3551543 3
-0.210281 0.221862 1.102806 3748923 3
0.362240 0.127829 0.943364 2433579 1
0.373232 0.126307 0.932133 1447195 1
0.388537 0.126307 0.932133 2170660 1
0.355312 0.146857 0.966657 2697004 1
0.371184 0.146857 0.966657 2631471 1
0.382335 0.145066 0.954868 3092533 1
0.393218 0.143318 0.943364 2828847 1
0.309609 0.163739 0.972661 1315862 1
0.325579 0.163739 0.972661 1776159 1
0.339441 0.162729 0.966657 2894381 1
0.355312 0.162729 0.966657 2565675 1
0.366657 0.160744 0.954868 1908005 1
0.382335 0.160744 0.954868 1448222 1
0.302103 0.175353 0.949081 3289909 1
0.317686 0.175353 0.949081 3487288 1
0.329278 0.173253 0.937715 2960944 1
0.344674 0.173253 0.937715 2960433 1
0.360070 0.173253 0.937715 3157812 1
0.373232 0.172222 0.932133 1973538 1
0.300283 0.189786 0.943364 4211011 3
0.315772 0.189786 0.943364 5790813 3
0.323467 0.185320 0.921167 2566186 3
0.332720 0.182106 0.905193 3158325 3
0.347582 0.182106 0.905193 3355191 3
0.394450 0.183165 0.910456 5526871 3
0.317858 0.196969 0.905193 6777708 3
0.394450 0.198114 0.910456 2829612 3
0.592269 0.167535 0.715905 3553084 3
0.506737 0.191379 0.764181 2501165 3
0.540194 0.199085 0.794953 2500395 3
0.579994 0.175573 0.701068 3684156 3
0.509273 0.195277 0.731768 5986911 3
0.528114 0.197834 0.741351 5789532 3
0.416275 0.163057 0.696771 4012864 3
0.425705 0.162290 0.693496 3420725 3
0.401606 0.173106 0.691215 5329235 3
0.406771 0.170513 0.680863 4670792 3
0.419320 0.171072 0.683094 3750201 3
0.433750 0.172349 0.688195 2763308 3
0.401047 0.184198 0.690252 7895162 3
0.406771 0.181692 0.680863 8092026 3
0.421428 0.183204 0.686530 5987165 3
0.462036 0.185937 0.696771 6448745 3
0.472505 0.185556 0.695342 6382182 3
0.402593 0.196285 0.692913 8355198 3
0.413970 0.196285 0.692913 8486786 3
0.429648 0.198270 0.699920 7960955 3
0.461910 0.197324 0.696581 5922399 3
0.469440 0.195695 0.690832 6185571 3
