# .PCD v0.7
VERSION 0.7
FIELDS x y z rgb label
SIZE 4 4 4 4 4
TYPE F F F U U
COUNT 1 1 1 1 1
WIDTH 1391
HEIGHT 1
VIEWPOINT 0 0 0 1 0 0 0
POINTS 1391
DATA ascii
0.207179 0.189764 0.497040 7895160 3
0.214700 0.189201 0.495565 8552577 3
0.223323 0.189614 0.496646 8685187 3
0.231707 0.189802 0.497138 8684935 3
0.239917 0.189839 0.497237 8487045 3
0.248822 0.190406 0.498721 8749191 3
0.256909 0.190331 0.498524 9275021 3
0.161431 0.219220 0.599994 8552577 3
0.171282 0.219220 0.599994 8749442 3
0.181090 0.219167 0.599851 8617856 3
0.188960 0.216896 0.593634 8092539 3
0.184093 0.200944 0.549974 8750471 3
0.106943 0.200757 0.525832 10329242 3
0.155019 0.219973 0.576165 9078921 3
0.171282 0.229071 0.599994 9012101 3
0.181133 0.229071 0.599994 10723232 3
0.189824 0.206387 0.540578 9606291 3
0.197550 0.205193 0.537452 9211531 3
0.106143 0.207825 0.521901 9144968 3
0.112483 0.203787 0.511760 7500400 3
0.121158 0.204246 0.512913 8553088 3
0.130301 0.205383 0.515767 8816773 3
0.140965 0.208632 0.523929 8947335 3
0.179631 0.213696 0.536644 9474451 3
0.187039 0.212104 0.532648 9408912 3
0.106875 0.217886 0.525498 8750469 3
0.115503 0.217886 0.525498 8750469 3
0.123001 0.215902 0.520713 9014154 3
0.131684 0.216122 0.521244 9408912 3
0.142253 0.219220 0.528717 8618885 3
0.152905 0.222083 0.535621 7499891 3
0.164117 0.225402 0.543627 7893879 3
0.172072 0.224138 0.540578 8486786 3
0.179675 0.222562 0.536777 8158332 3
0.184528 0.217886 0.525498 8158332 3
0.193156 0.217886 0.525498 8947850 3
-0.119817 0.195858 0.536055 6250337 3
-0.108852 0.192042 0.525609 7500404 3
-0.100603 0.192770 0.527604 7433328 3
-0.116080 0.198276 0.519333 8224638 3
-0.105339 0.194195 0.508644 5790297 3
-0.171951 0.217246 0.594591 5987674 3
-0.161803 0.216729 0.593176 5856088 3
-0.151277 0.215608 0.590110 5066063 3
-0.136398 0.207705 0.568479 5395028 3
-0.197764 0.223088 0.584322 6578789 3
-0.189142 0.224241 0.587343 8355711 3
-0.180855 0.225936 0.591782 5855577 3
-0.170655 0.225297 0.590110 6052956 3
-0.158950 0.222476 0.582720 5131854 3
-0.144334 0.214957 0.563026 7039338 3
-0.130712 0.207992 0.544782 7369329 3
-0.189511 0.212655 0.534031 5658198 3
-0.187793 0.220951 0.554864 7434611 3
-0.185096 0.228881 0.574778 8684676 3
-0.177253 0.230958 0.579994 5658198 3
-0.167730 0.230958 0.579994 6316128 3
-0.153579 0.224201 0.563026 7960953 3
-0.139005 0.215924 0.542239 8223612 3
-0.128308 0.212947 0.534762 8224638 3
-0.113122 0.201534 0.506103 7567222 3
-0.181509 0.222363 0.536296 7237228 3
-0.174353 0.224486 0.541417 7237230 3
-0.170284 0.231027 0.557191 7171437 3
-0.161315 0.231283 0.557810 8026746 3
-0.147908 0.224827 0.542239 8618883 3
-0.168605 0.237807 0.551698 8158332 3
-0.160592 0.239366 0.555314 8487297 3
-0.291424 0.211837 0.579788 3420723 3
-0.274433 0.206222 0.564421 4605512 3
-0.283700 0.215489 0.564421 3618617 3
-0.266740 0.209449 0.548599 2894640 3
-0.255452 0.207596 0.543745 7303025 3
-0.246524 0.207596 0.543745 5394517 3
-0.299529 0.229791 0.577062 4210752 3
-0.278332 0.220504 0.553740 4079425 3
-0.264380 0.216523 0.543745 5395287 3
-0.251868 0.213485 0.536115 6316130 3
-0.240371 0.211119 0.530173 6447462 3
-0.224983 0.205028 0.514878 5065550 3
-0.213820 0.202463 0.508436 8026233 3
-0.205472 0.202463 0.508436 5526610 3
-0.294403 0.235171 0.567187 3618615 3
-0.276380 0.227985 0.549857 5263699 3
-0.260670 0.222288 0.536115 5330262 3
-0.250239 0.220850 0.532648 7369329 3
-0.285408 0.237013 0.549857 4934986 3
0.100957 0.188432 0.539995 7565682 3
0.124124 0.183363 0.525469 7236719 3
0.100957 0.197298 0.539995 9605519 3
0.123432 0.190920 0.522540 9407886 3
0.133381 0.192901 0.527961 9144198 3
0.191353 0.199102 0.544933 10724259 3
0.199863 0.198668 0.543745 9934743 3
0.114471 0.198837 0.520802 8947589 3
0.122614 0.198177 0.519076 8553088 3
0.131629 0.198921 0.521024 9539983 3
0.195593 0.194474 0.509375 8948359 3
0.032222 0.202205 0.579465 7105646 3
0.042173 0.213934 0.585528 9803155 3
0.050038 0.206709 0.565753 8158841 3
0.057941 0.201879 0.552534 9014150 3
0.066641 0.200759 0.549468 8684676 3
0.033223 0.228107 0.597470 9737362 3
0.041661 0.220832 0.578415 9868948 3
0.049679 0.214448 0.561693 9672082 3
0.057913 0.210848 0.552265 8488578 3
0.066177 0.208319 0.545639 9211533 3
0.074924 0.207732 0.544102 9342606 3
0.083189 0.206076 0.539763 9079434 3
0.091032 0.203794 0.533788 8553601 3
0.099520 0.203231 0.532311 9079432 3
0.023297 0.236732 0.594494 8619396 3
0.057270 0.217476 0.546138 9146254 3
0.065961 0.216570 0.543863 8750471 3
0.075087 0.217137 0.545286 8552577 3
0.082446 0.213019 0.534944 8355711 3
0.090838 0.212104 0.532648 7369327 3
0.099059 0.210987 0.529842 9211531 3
0.073849 0.222363 0.536296 9144200 3
0.082268 0.221323 0.533788 9079434 3
0.090416 0.219824 0.530173 7830648 3
0.098454 0.218346 0.526608 9211531 3
0.082446 0.230585 0.534944 8092026 3
-0.395935 0.243107 0.696681 3947580 3
-0.361973 0.228867 0.655871 4737096 3
-0.337997 0.220260 0.631207 4737609 3
-0.325135 0.218581 0.626394 4078653 3
-0.389906 0.236977 0.648596 4473926 3
-0.371119 0.231893 0.634680 4999757 3
-0.351150 0.225754 0.617879 4144959 3
-0.334031 0.221137 0.605242 3815994 3
-0.325280 0.252974 0.692378 4605512 3
-0.392897 0.230629 0.604075 4012860 3
-0.384814 0.231735 0.606971 4604999 3
-0.376862 0.232979 0.610231 3289398 3
-0.367733 0.233545 0.611713 3486777 3
-0.357690 0.233545 0.611713 2631722 3
-0.342172 0.229868 0.602082 5066059 3
-0.479944 0.201532 0.577536 3947067 3
-0.473013 0.202625 0.580668 4079164 3
-0.462108 0.202025 0.578951 3289650 3
-0.449595 0.204989 0.587443 2763567 3
-0.479944 0.211014 0.577536 2697000 3
-0.469443 0.210558 0.576286 3026476 3
-0.457339 0.209348 0.572976 2368548 3
-0.439285 0.205307 0.561916 2105635 3
-0.430471 0.205504 0.562454 2039844 3
-0.471302 0.204411 0.535402 2763565 3
-0.452854 0.204020 0.534379 1907486 3
-0.454644 0.208873 0.547092 1973279 3
-0.448097 0.210015 0.550081 2697002 3
-0.422948 0.210986 0.552625 1908258 3
-0.411963 0.210012 0.550073 4013634 3
-0.402489 0.209781 0.549468 4736844 3
-0.459122 0.207691 0.521565 2237221 3
-0.445942 0.205563 0.516221 2303014 3
-0.453708 0.213195 0.535387 2828588 3
-0.453670 0.217390 0.545920 3749690 3
-0.455692 0.222760 0.559405 3354930 3
-0.450231 0.224617 0.564071 3487542 3
-0.439782 0.224012 0.562551 3684669 3
-0.451504 0.216709 0.522661 2500393 3
-0.455050 0.222643 0.536971 2500136 3
-0.469806 0.234404 0.565337 4670790 3
-0.460524 0.234404 0.565337 4473411 3
-0.451242 0.234404 0.565337 3355441 3
-0.440768 0.233772 0.563813 4539976 3
-0.428521 0.232152 0.559906 4342597 3
-0.473223 0.245459 0.569449 3552309 3
-0.462510 0.244737 0.567775 3223598 3
-0.449619 0.242810 0.563304 3289648 3
-0.438014 0.241510 0.560290 2303014 3
-0.425100 0.239419 0.555437 3026737 3
0.134489 0.203469 0.611880 7631990 3
0.145063 0.204212 0.614111 8487299 3
0.154729 0.203663 0.612462 8684163 3
0.164584 0.203414 0.611713 8684424 3
0.174543 0.203315 0.611416 9013130 3
0.183240 0.201837 0.606971 8749958 3
0.193159 0.201788 0.606824 8027259 3
0.172563 0.210934 0.604482 8091258 3
0.181830 0.210174 0.602302 7696754 3
0.191214 0.209620 0.600715 8553090 3
0.059283 0.187993 0.565337 8882568 3
0.040757 0.197462 0.565873 8158332 3
0.049577 0.195600 0.560537 7698292 3
0.058648 0.195161 0.559280 8422015 3
0.084835 0.192077 0.550442 9868950 3
0.092391 0.189047 0.541758 9671571 3
0.075300 0.199797 0.546836 8553601 3
0.084058 0.199274 0.545403 9013639 3
0.092190 0.197511 0.540578 8750467 3
0.053527 0.201250 0.605205 7961466 3
0.015863 0.254546 0.696681 9211020 3
0.025423 0.237035 0.648755 9211018 3
0.033823 0.222235 0.608248 9145227 3
0.025287 0.246361 0.645282 8816262 3
0.004020 0.252085 0.633050 8553349 3
0.014298 0.250063 0.627972 7829626 3
0.102347 0.189711 0.600138 7105644 3
0.112905 0.190901 0.603900 7565682 3
0.123325 0.191686 0.606386 8750982 3
0.134652 0.193656 0.612618 7566454 3
0.145063 0.194128 0.614111 6973806 3
0.154729 0.193607 0.612462 7566195 3
0.164584 0.193370 0.611713 8223873 3
0.174118 0.192806 0.609929 7960444 3
0.183240 0.191871 0.606971 8552579 3
0.192600 0.191270 0.605070 7434609 3
-0.208885 0.216062 0.683498 5921883 3
-0.201911 0.219697 0.660679 5329746 3
-0.202899 0.230206 0.630062 5000268 3
-0.231161 0.248697 0.651400 5921372 3
-0.227748 0.244261 0.613400 7040364 3
-0.496463 0.219161 0.693300 3815996 3
-0.498601 0.226347 0.680678 3158066 3
-0.485711 0.225551 0.678285 3421495 3
-0.483232 0.229666 0.690659 3421238 3
-0.484395 0.241586 0.692321 3750460 3
-0.454294 0.237235 0.649300 3026737 3
-0.435274 0.250849 0.686562 3223857 3
-0.413133 0.244419 0.668962 3815996 3
0.402605 0.177561 0.592476 6513766 3
0.412530 0.177646 0.592759 6053217 3
0.417909 0.175815 0.586649 5461078 3
0.470966 0.164096 0.547547 6381669 3
0.487948 0.157953 0.527047 4012611 3
0.493486 0.156962 0.523741 4538955 3
0.459627 0.168919 0.534364 6644841 3
0.462491 0.166788 0.527622 5855325 3
0.467786 0.165596 0.523850 6118240 3
0.477885 0.166117 0.525498 5920606 3
0.486311 0.166047 0.525279 5460568 3
0.491841 0.165009 0.521995 5789533 3
0.457967 0.177051 0.532434 6381669 3
0.460258 0.174604 0.525074 7236978 3
0.463332 0.172538 0.518863 7960444 3
0.476387 0.174197 0.523850 8355200 3
0.486311 0.174672 0.525279 6183778 3
0.454022 0.177419 0.508436 4670792 3
0.462559 0.177492 0.508644 5393999 3
0.459851 0.184755 0.505667 5196618 3
-0.198717 0.205933 0.687144 6645093 3
-0.184565 0.201746 0.638210 7303023 3
-0.172679 0.200115 0.633050 7631986 3
-0.164633 0.203010 0.642209 8487297 3
-0.182609 0.209976 0.631445 4539715 3
-0.171294 0.208821 0.627972 4539715 3
-0.158840 0.206041 0.619612 5723991 3
-0.150388 0.208426 0.626784 6052956 3
-0.195591 0.223328 0.639997 5000268 3
-0.177780 0.214516 0.614747 3355441 3
-0.166859 0.213458 0.611713 5724502 3
-0.155157 0.211200 0.605242 6250335 3
-0.144513 0.210174 0.602302 6842474 3
-0.136811 0.213587 0.612083 6447716 3
-0.127682 0.215138 0.616529 5000270 3
-0.183550 0.219441 0.600600 6184542 3
0.302331 0.166187 0.586664 6381669 3
0.314307 0.167435 0.591071 6184544 3
0.302331 0.175820 0.586664 4144450 3
0.313979 0.176955 0.590454 5789273 3
0.392320 0.177310 0.591637 7106157 3
0.300082 0.184073 0.582301 6908013 3
0.311471 0.185159 0.585738 8487297 3
0.372699 0.177670 0.562046 5264469 3
0.382781 0.178067 0.563304 7171696 3
0.304634 0.190501 0.572880 7960442 3
0.341521 0.180187 0.541863 6448743 3
0.348540 0.179221 0.538960 6844014 3
0.352381 0.176709 0.531406 4671562 3
0.373803 0.174491 0.524734 5658457 3
0.381940 0.174272 0.524077 5395026 3
0.334434 0.185160 0.530619 6711915 3
0.340192 0.183566 0.526051 7107186 3
0.346004 0.182079 0.521790 7304052 3
0.352362 0.180944 0.518538 7040880 3
0.359243 0.180126 0.516192 5132367 3
0.365310 0.178946 0.512812 3026478 3
0.374845 0.179480 0.514342 5066059 3
0.281871 0.165485 0.584187 6315876 3
0.290446 0.164908 0.582150 5197395 3
0.219459 0.171283 0.571527 6579561 3
0.244984 0.169466 0.565465 6908267 3
0.255367 0.170198 0.567907 5460308 3
0.269767 0.173462 0.578796 5328469 3
0.280888 0.174467 0.582150 8618119 3
0.290446 0.174467 0.582150 8289409 3
0.227681 0.187436 0.592940 7303284 3
0.228198 0.180158 0.569918 8159361 3
0.239847 0.181896 0.575414 7501431 3
0.252568 0.184284 0.582970 7171185 3
0.262748 0.184712 0.584322 8684167 3
0.272216 0.184626 0.584052 8223874 3
0.279783 0.183301 0.579860 9539734 3
0.288303 0.182667 0.577854 8684424 3
0.218896 0.198031 0.595526 9145229 3
0.211732 0.183359 0.551403 8684935 3
0.224061 0.186080 0.559585 8422533 3
0.238360 0.190157 0.571846 7500661 3
0.250702 0.192423 0.578661 7039853 3
0.262140 0.193856 0.582970 6842220 3
0.272154 0.194171 0.583918 5263189 3
0.278624 0.192023 0.577458 7302772 3
0.285146 0.190051 0.571527 8355459 3
0.294530 0.190051 0.571527 8816010 3
0.210251 0.191067 0.547547 8027259 3
0.220303 0.191992 0.550198 8750728 3
0.232096 0.194302 0.556818 7829626 3
0.242305 0.195161 0.559280 8421763 3
0.251488 0.195161 0.559280 10066329 3
0.260670 0.195161 0.559280 7894908 3
0.269853 0.195161 0.559280 8158081 3
0.208791 0.198668 0.543745 9737875 3
0.217719 0.198668 0.543745 8421763 3
0.225572 0.197726 0.541166 8948107 3
0.232875 0.196392 0.537515 8487810 3
0.224973 0.182800 0.500314 8093050 3
0.234835 0.184091 0.503848 8487045 3
0.246423 0.186602 0.510721 8750218 3
0.252505 0.184915 0.506103 8946569 3
0.259490 0.183975 0.503532 9275021 3
0.267757 0.183975 0.503532 8684165 3
0.279579 0.225539 0.796183 7105905 3
0.293060 0.225853 0.797294 5526873 3
0.211825 0.235948 0.787297 6709607 3
0.259376 0.232227 0.774881 7039853 3
0.261745 0.223390 0.745395 7171185 3
0.267672 0.218245 0.728225 7434870 3
-0.200723 0.221802 0.782992 4276545 3
-0.241598 0.236920 0.790540 5263442 3
-0.252039 0.247408 0.782656 5066574 3
-0.281561 0.263838 0.793423 5723991 3
-0.264036 0.259419 0.780134 5460821 3
-0.238526 0.246305 0.740695 5856090 3
-0.281561 0.276866 0.793423 5987165 3
-0.262267 0.270405 0.774909 5592407 3
-0.227991 0.247050 0.707980 4408131 3
-0.283530 0.291920 0.798972 5592407 3
-0.242929 0.262252 0.717772 5460567 3
-0.274566 0.282003 0.708179 5987674 3
-0.299920 0.251026 0.886159 6447455 3
-0.290715 0.257425 0.858962 6381919 3
-0.276356 0.257187 0.858167 6118751 3
-0.288420 0.269386 0.852182 6710886 3
-0.299075 0.281083 0.805508 5723991 3
-0.299075 0.294308 0.805508 5855579 3
-0.399556 0.225180 0.794916 4934475 3
-0.386504 0.225180 0.794916 4802889 3
-0.374763 0.225969 0.797704 5395026 3
-0.362592 0.226548 0.799748 5198160 3
-0.395665 0.235911 0.787175 6053215 3
-0.384552 0.237028 0.790901 4868941 3
-0.371567 0.237028 0.790901 4539976 3
-0.359043 0.237334 0.791920 4738123 3
-0.394923 0.248369 0.785697 4605510 3
-0.382620 0.248758 0.786927 4013632 3
-0.369699 0.248758 0.786927 4342597 3
-0.357120 0.248996 0.787680 4145472 3
-0.349011 0.252485 0.798718 2961198 3
-0.333137 0.250411 0.792156 4145472 3
-0.396296 0.262178 0.788430 5460819 3
-0.384552 0.263000 0.790901 5395285 3
-0.369012 0.261192 0.785464 4737355 3
-0.355564 0.260787 0.784247 4869195 3
-0.333670 0.263838 0.793423 4342597 3
-0.322503 0.265369 0.798026 4606021 3
-0.366286 0.254289 0.728725 4802376 3
-0.376938 0.270521 0.775240 4408133 3
-0.366713 0.272380 0.780569 4737098 3
-0.355564 0.273664 0.784247 5197647 3
-0.334208 0.277312 0.794704 6118751 3
-0.320248 0.276525 0.792446 6908778 3
-0.353193 0.284630 0.779019 4670792 3
-0.345595 0.288971 0.790901 7631479 3
-0.332609 0.288971 0.790901 4078914 3
-0.311845 0.272469 0.713665 6249056 3
-0.533687 0.206388 0.728577 3552571 3
-0.527408 0.208636 0.736514 3815742 3
-0.517288 0.209435 0.739334 3421238 3
-0.511340 0.212001 0.748395 3552824 3
-0.526189 0.215282 0.718341 2237223 3
-0.514395 0.215282 0.718341 2763308 3
-0.503039 0.215470 0.718968 1973792 3
0.632538 0.212466 0.796183 2171171 3
0.642143 0.211325 0.791907 2697515 3
0.650620 0.209865 0.786437 2302503 3
0.657339 0.207906 0.779097 2631468 3
0.662955 0.205680 0.770754 2434089 3
0.634641 0.221707 0.782656 5723993 3
0.637033 0.218126 0.770014 4342086 3
0.622584 0.209030 0.737904 4868430 3
0.643372 0.237784 0.793423 8026748 3
0.645405 0.233801 0.780134 6644841 3
0.601928 0.213808 0.713422 6184290 3
0.606595 0.251768 0.796449 6315877 3
0.621634 0.252565 0.798972 5986914 3
0.634753 0.252565 0.798972 6776940 3
0.643372 0.250811 0.793423 6184803 3
0.569742 0.213428 0.799787 6447462 3
0.525764 0.209071 0.738052 5724250 3
0.518696 0.213300 0.711726 6513766 3
0.574035 0.243503 0.770305 5855579 3
0.538656 0.240363 0.722828 5921372 3
0.530092 0.248222 0.711337 5329233 3
0.004955 0.208231 0.780314 7764603 3
0.017767 0.208238 0.780339 6843499 3
0.031280 0.213009 0.798219 6909546 3
0.043815 0.210265 0.787936 7435890 3
0.004926 0.219746 0.775736 7303282 3
0.017393 0.216392 0.763895 5856090 3
0.030036 0.217121 0.766469 6514018 3
0.004970 0.234585 0.782749 6710888 3
0.017739 0.233490 0.779097 7040364 3
0.031067 0.237585 0.792761 7171950 3
0.004977 0.247749 0.783737 7960955 3
0.017651 0.245063 0.775240 8289920 3
0.030380 0.245063 0.775240 6579302 3
0.044016 0.250221 0.791555 7236979 3
0.004923 0.257792 0.775240 6249824 3
0.017532 0.256054 0.770014 6381921 3
0.029684 0.251890 0.757490 6776679 3
0.041591 0.248716 0.747947 6973806 3
0.051096 0.235902 0.709411 8092287 3
0.004874 0.267868 0.767639 8223873 3
0.017135 0.262607 0.752561 8158332 3
0.027675 0.246436 0.706221 7697781 3
0.004644 0.267238 0.731418 9408147 3
0.016160 0.270977 0.709757 10000795 3
-0.008035 0.212944 0.797973 7303536 3
-0.007919 0.222788 0.786475 6513509 3
-0.007971 0.237256 0.791661 7302512 3
-0.057019 0.237960 0.752769 4605001 3
-0.043677 0.232730 0.736225 7171439 3
-0.007987 0.250733 0.793175 8025468 3
-0.030960 0.239941 0.721559 3223605 3
-0.020037 0.251537 0.756430 4736332 3
-0.007782 0.257002 0.772865 5985884 3
-0.007514 0.260394 0.746221 8749958 3
-0.007462 0.270774 0.741097 8355198 3
-0.123432 0.232910 0.872793 6645095 3
-0.107519 0.229532 0.860137 6842474 3
-0.188381 0.238745 0.842804 5658457 3
-0.123432 0.247240 0.872793 7171439 3
-0.105966 0.240135 0.847709 7368816 3
-0.452947 0.201066 0.753463 3156786 3
-0.447503 0.204227 0.765310 2827820 3
-0.436396 0.204912 0.767876 1972511 3
-0.433274 0.209499 0.785064 4341057 3
-0.488240 0.207408 0.732181 2960687 3
-0.449180 0.200699 0.708496 2631211 3
-0.454300 0.208383 0.735622 2499370 3
-0.454781 0.214301 0.756514 1973538 3
-0.442494 0.214366 0.756744 3815485 3
-0.432425 0.215541 0.760889 5985882 3
-0.426009 0.218660 0.771900 5591894 3
-0.418623 0.221457 0.781775 5658711 3
-0.406806 0.222013 0.783737 6645095 3
-0.497510 0.218223 0.728154 1710620 3
-0.483169 0.217151 0.724577 2960687 3
-0.467217 0.215282 0.718341 2762793 3
-0.458455 0.216716 0.723125 4078657 3
-0.452856 0.219760 0.733283 2302504 3
-0.444055 0.221375 0.738672 3947841 3
-0.434885 0.222892 0.743731 4276034 3
-0.427623 0.225502 0.752440 4868171 3
-0.421851 0.229075 0.764365 4999755 3
-0.414614 0.232049 0.774287 4869195 3
-0.404651 0.233637 0.779586 5066574 3
-0.492590 0.222554 0.704034 4013375 3
-0.490105 0.226753 0.717316 6250337 3
-0.478875 0.227012 0.718136 5394515 3
-0.465351 0.226170 0.715473 5131854 3
-0.459246 0.228983 0.724372 4539717 3
-0.453513 0.232136 0.734347 3421238 3
-0.444320 0.233643 0.739111 3487031 3
-0.440385 0.238076 0.753137 4210239 3
-0.431505 0.240015 0.759271 4868684 3
-0.421851 0.241626 0.764365 4868684 3
-0.414614 0.244762 0.774287 4671564 3
-0.404523 0.246359 0.779340 3684408 3
-0.482924 0.235035 0.706806 4934477 3
-0.474523 0.236633 0.711610 5460308 3
-0.461406 0.235900 0.709406 5131854 3
-0.459382 0.240948 0.724587 3421236 3
-0.454176 0.244551 0.735421 3355445 3
-0.444320 0.245778 0.739111 3881789 3
-0.438923 0.249610 0.750636 4736583 3
-0.429293 0.251187 0.755377 4276545 3
-0.418164 0.251954 0.757684 5263442 3
-0.415124 0.257792 0.775240 5066320 3
-0.405161 0.259564 0.780569 4802889 3
-0.481962 0.246149 0.705398 3487031 3
-0.470381 0.246149 0.705398 4013375 3
-0.458799 0.246149 0.705398 4934475 3
-0.450012 0.247688 0.709807 3881787 3
-0.442368 0.249954 0.716301 5526614 3
-0.431834 0.250666 0.718341 4934477 3
-0.420039 0.250666 0.718341 5065548 3
-0.479297 0.256306 0.701497 3618874 3
-0.470381 0.257731 0.705398 4144961 3
-0.455982 0.256149 0.701068 2631720 3
0.574750 0.206824 0.825852 3223606 3
0.583713 0.205207 0.819398 2960433 3
0.590765 0.203008 0.810615 3289652 3
0.591523 0.216595 0.811655 5723993 3
0.588162 0.228615 0.807043 5395028 3
0.405649 0.174848 0.698172 5327955 3
0.405898 0.170147 0.679402 3552058 3
0.413846 0.168839 0.674178 3617851 3
0.408547 0.182486 0.683836 8091775 3
0.421274 0.183137 0.686278 6250083 3
0.436724 0.184908 0.692913 5855579 3
0.448101 0.184908 0.692913 5000268 3
0.459478 0.184908 0.692913 6118751 3
0.468015 0.183793 0.688735 6644841 3
0.485172 0.186035 0.697138 6184291 3
0.405675 0.192352 0.679028 8223616 3
0.420470 0.194034 0.684969 7434611 3
0.435527 0.195747 0.691014 6974060 3
0.448101 0.196285 0.692913 7171696 3
0.453984 0.193938 0.684628 5790043 3
0.459924 0.191728 0.676827 6447975 3
0.469760 0.191209 0.674993 5592666 3
0.418219 0.198863 0.663553 7434868 3
0.426269 0.197544 0.659154 7435638 3
0.240254 0.223630 0.892960 7894396 3
0.254003 0.222830 0.889764 7434357 3
0.257749 0.213818 0.853781 7500404 3
0.266561 0.209722 0.837425 7171948 3
0.280218 0.209652 0.837146 7764603 3
0.291433 0.207848 0.829940 6842733 3
0.206560 0.233353 0.874454 7302764 3
0.215981 0.228139 0.854915 6710375 3
0.224720 0.222884 0.835221 6710122 3
0.234441 0.219151 0.821236 8026237 3
0.246631 0.218008 0.816951 8553092 3
0.259705 0.217723 0.815884 6250333 3
0.274441 0.218792 0.819887 6579559 3
0.286872 0.218008 0.816951 5526873 3
0.298535 0.216738 0.812191 7632249 3
0.206053 0.231044 0.815617 6710375 3
0.220235 0.231875 0.818553 7038573 3
0.233142 0.231347 0.816687 6184033 3
0.244084 0.229032 0.808515 6512996 3
0.256943 0.228662 0.807208 7171435 3
0.268301 0.227058 0.801546 7303282 3
0.230374 0.241850 0.806990 8091260 3
0.242518 0.240752 0.803328 6184031 3
0.256943 0.241915 0.807208 7697522 3
-0.393980 0.306391 1.223425 2761766 3
-0.373893 0.306391 1.223425 5393745 3
-0.349953 0.303055 1.210106 5328720 3
-0.392086 0.324908 1.217543 5130573 3
-0.369938 0.323025 1.210485 6314847 3
-0.352104 0.324908 1.217543 5591892 3
-0.397677 0.211989 0.846478 3158316 3
-0.385212 0.212781 0.849641 2763308 3
-0.371890 0.213141 0.851078 4473415 3
-0.359510 0.214090 0.854867 6314849 3
-0.349765 0.216749 0.865485 4472386 3
-0.337538 0.218031 0.870602 4932165 3
-0.398646 0.218792 0.819887 3223855 3
-0.385184 0.218792 0.819887 5131852 3
-0.372093 0.219010 0.820705 5526612 3
-0.363978 0.222283 0.832970 4802891 3
-0.353010 0.224002 0.839412 4868173 3
-0.345014 0.227823 0.853729 3814713 3
-0.337538 0.232325 0.870602 6117209 3
-0.326646 0.234771 0.879766 6446172 3
-0.357101 0.231501 0.817232 4539976 3
-0.345143 0.232485 0.820705 4802891 3
-0.338324 0.237151 0.837177 5460306 3
-0.332117 0.242659 0.856620 5657171 3
-0.322905 0.246361 0.869691 6051927 3
-0.304720 0.243243 0.858684 3947319 3
-0.355247 0.243648 0.812989 5001295 3
-0.344582 0.245560 0.819370 5263699 3
-0.337199 0.250062 0.834393 5460819 3
-0.332001 0.256634 0.856320 6315615 3
-0.321122 0.259201 0.864888 5065802 3
-0.304193 0.256897 0.857198 5460558 3
-0.325146 0.254334 0.804567 4342849 3
-0.328409 0.267765 0.847056 5789782 3
-0.317722 0.270507 0.855729 6381919 3
-0.303671 0.270507 0.855729 6184542 3
-0.350800 0.266961 0.802813 4474183 3
-0.320711 0.275070 0.827200 3750199 3
-0.300082 0.268758 0.808219 5395026 3
-0.350912 0.280232 0.803069 5263442 3
-0.317358 0.285635 0.818553 6118749 3
-0.411221 0.204888 0.818124 2763306 3
-0.415792 0.214161 0.855151 2302753 3
-0.428661 0.213624 0.800521 3158066 3
-0.418317 0.215063 0.805915 4802891 3
-0.407447 0.216317 0.810615 4079166 3
-0.417042 0.173737 0.693737 3288372 3
-0.487922 0.181828 0.681372 1249816 3
-0.405993 0.162473 0.608841 3223857 3
-0.419298 0.181180 0.678945 3815232 3
-0.446725 0.194563 0.686835 3223346 3
-0.494349 0.197821 0.660079 1908258 3
0.323681 0.206076 0.880601 6447973 3
0.303254 0.206617 0.825028 7105905 3
0.313186 0.204260 0.815617 7236978 3
0.324263 0.202813 0.809836 7500402 3
0.334104 0.200736 0.801546 7105644 3
0.308368 0.214304 0.803069 6381669 3
0.320426 0.213552 0.800252 6184801 3
0.337801 0.216264 0.810415 6776679 3
0.319850 0.235959 0.832970 5197908 3
0.331113 0.234252 0.826942 5921629 3
0.005494 0.202469 0.865185 8618885 3
0.019699 0.202469 0.865185 6447712 3
0.033773 0.201682 0.861823 6316637 3
0.005406 0.213214 0.851369 6646122 3
0.019557 0.215116 0.858962 7896187 3
0.033035 0.211115 0.842987 7501681 3
0.045148 0.203335 0.811922 6185823 3
0.064611 0.224656 0.897056 5856090 3
0.057956 0.214729 0.804662 6710886 3
0.073702 0.222373 0.833309 7171437 3
0.090698 0.230807 0.864912 7960953 3
0.045184 0.230176 0.812554 7369075 3
0.060036 0.236118 0.833530 7105644 3
0.075046 0.240361 0.848509 7237230 3
0.090472 0.244397 0.862758 5592407 3
0.045065 0.242876 0.810415 7500663 3
0.060965 0.253669 0.846426 6316387 3
0.076319 0.258607 0.862903 6776938 3
0.058371 0.256183 0.810415 7566197 3
0.074293 0.265534 0.839997 7434868 3
0.089922 0.271069 0.857508 6382180 3
-0.082478 0.209423 0.894902 5263188 3
-0.065898 0.203593 0.869991 5986650 3
-0.051578 0.203454 0.869394 5328204 3
-0.036919 0.201356 0.860431 8026487 3
-0.022799 0.201426 0.860728 8618881 3
-0.008712 0.202469 0.865185 8750980 3
-0.096552 0.222687 0.889193 6513509 3
-0.080716 0.219328 0.875783 5987165 3
-0.065534 0.216674 0.865185 7368816 3
-0.051311 0.216600 0.864888 6381408 3
-0.036894 0.215337 0.859846 6710373 3
-0.022544 0.213141 0.851078 7500915 3
-0.008570 0.213141 0.851078 8225152 3
-0.092918 0.228356 0.855729 7368818 3
-0.077708 0.224998 0.843145 6842472 3
-0.063518 0.223777 0.838569 6645093 3
-0.050716 0.228126 0.854866 5986650 3
-0.036089 0.224450 0.841092 8157819 3
-0.021684 0.218454 0.818622 6842472 3
-0.090096 0.235045 0.829741 7566195 3
-0.075962 0.233476 0.824202 7105644 3
-0.061545 0.230166 0.812519 7829369 3
-0.047952 0.228963 0.808270 7565684 3
-0.035330 0.233249 0.823401 7763063 3
-0.021327 0.228081 0.805160 6579302 3
-0.076215 0.247829 0.826942 5329235 3
-0.061116 0.241810 0.806856 5987165 3
-0.047751 0.241222 0.804896 6184031 3
-0.034792 0.243013 0.810871 5526101 3
-0.021258 0.240522 0.802559 5657687 3
-0.074363 0.255058 0.806856 6118749 3
-0.034458 0.253860 0.803069 7039599 3
-0.021265 0.253779 0.802813 5460055 3
0.563758 0.164616 0.756514 2367269 3
0.511469 0.185085 0.790901 4473673 3
0.591091 0.185621 0.793192 5131343 3
0.597668 0.183640 0.784728 2959406 3
0.534187 0.196872 0.786113 3157813 3
0.591263 0.198702 0.793423 6315617 3
0.345179 0.167037 0.767639 3224118 3
0.344282 0.160734 0.738672 2828847 3
0.354737 0.159979 0.735204 4013122 3
0.389124 0.159232 0.731768 5460568 3
0.343746 0.185675 0.793423 5855836 3
0.345442 0.179778 0.768223 5066320 3
0.340474 0.170950 0.730502 4473413 3
0.351437 0.170450 0.728365 4407879 3
0.363396 0.170450 0.728365 1907746 3
0.371804 0.168838 0.721474 3486780 3
0.382094 0.168153 0.718548 1710367 3
0.395480 0.168831 0.721445 2763568 3
0.347278 0.193414 0.772307 5198160 3
0.344113 0.184900 0.738309 7698040 3
0.351437 0.182409 0.728365 6973806 3
0.363291 0.182357 0.728154 7434870 3
0.368947 0.179295 0.715930 6842734 3
0.378619 0.178314 0.712014 7698043 3
0.391980 0.179078 0.715061 4802638 3
0.399970 0.177414 0.708418 3881536 3
0.325059 0.192908 0.722894 7171437 3
0.335215 0.191928 0.719220 7434611 3
0.307697 0.210343 0.966657 4211265 3
0.319623 0.207778 0.954868 4935504 3
0.301684 0.221794 0.947764 7171948 3
0.316287 0.221124 0.944902 7369845 3
0.319706 0.213063 0.910456 6185571 3
0.212468 0.210343 0.966657 7039338 3
0.225555 0.207778 0.954868 7565166 3
0.238327 0.205275 0.943364 6644582 3
0.253816 0.205275 0.943364 5920861 3
0.269305 0.205275 0.943364 5855579 3
0.288267 0.207778 0.954868 4605510 3
0.216226 0.230216 0.983756 7960694 3
0.228166 0.226042 0.965920 7170408 3
0.239235 0.221605 0.946959 6447203 3
0.251738 0.218957 0.935643 7303025 3
0.266099 0.218136 0.932133 7500402 3
0.281404 0.218136 0.932133 6514018 3
0.212148 0.241722 0.965201 6118490 3
0.221014 0.234319 0.935643 7368555 3
0.229907 0.227906 0.910035 8354430 3
0.200998 0.244032 0.914472 6710884 3
0.152754 0.215668 0.991129 7632247 3
0.169027 0.215668 0.991129 6579561 3
0.178521 0.207778 0.954868 5132115 3
0.196597 0.210343 0.966657 5526871 3
0.168895 0.231761 0.990355 6645354 3
0.182203 0.228064 0.974561 6316389 3
0.197973 0.227799 0.973426 6842985 3
0.165799 0.243475 0.972200 7368818 3
0.179616 0.240601 0.960726 5921372 3
0.196220 0.241622 0.964804 6645095 3
0.114947 0.252916 0.947764 7237232 3
0.127787 0.247641 0.927995 7764087 3
0.144064 0.249442 0.934744 7764087 3
0.160881 0.251742 0.943364 6776681 3
0.174927 0.249682 0.935643 6710888 3
0.189367 0.248472 0.931111 6184544 3
0.111722 0.260943 0.921167 6250337 3
0.125832 0.258857 0.913803 6842985 3
0.140637 0.258492 0.912513 6579813 3
0.160881 0.267231 0.943364 6052958 3
0.111722 0.276068 0.921167 5855838 3
-0.136706 0.210343 0.966657 4276804 3
-0.116519 0.202831 0.932133 3947841 3
-0.194271 0.219525 0.938068 5526103 3
-0.179879 0.220764 0.943364 5065809 3
-0.193042 0.233440 0.932133 5262931 3
-0.178907 0.234976 0.938266 3684669 3
-0.155714 0.247064 0.986531 5658457 3
-0.133349 0.236142 0.942922 4539719 3
-0.113757 0.227906 0.910035 5723993 3
-0.188110 0.263261 0.986531 5066320 3
-0.161716 0.247647 0.928019 6908524 3
-0.142571 0.241040 0.903261 5658457 3
-0.195657 0.267626 0.944756 5724250 3
-0.186625 0.277252 0.978740 6184801 3
-0.162374 0.263954 0.931795 7171696 3
-0.142571 0.255871 0.903261 5789786 3
-0.249346 0.211650 0.972661 4736585 3
-0.229107 0.207778 0.954868 3815485 3
-0.247149 0.225614 0.964090 4999755 3
-0.229107 0.223456 0.954868 6249824 3
-0.213189 0.223205 0.953796 5065552 3
-0.271371 0.249149 0.994858 5328720 3
-0.244420 0.238778 0.953448 6118749 3
-0.223652 0.233440 0.932133 5658200 3
-0.208347 0.233440 0.932133 5065552 3
-0.243030 0.252985 0.948022 5263953 3
-0.220954 0.245745 0.920891 4013375 3
-0.222283 0.265383 0.994480 3947582 3
-0.294072 0.221270 1.016873 4473413 3
-0.273820 0.218433 1.003836 4209723 3
-0.273840 0.234933 1.003911 5393997 3
-0.296108 0.289684 1.085546 5000268 3
-0.213363 0.274929 1.030253 5789275 3
-0.280419 0.291215 1.028030 5855577 3
1.510807 0.242342 1.204603 1907494 1
1.534413 0.266216 1.223425 1315098 1
1.554501 0.266216 1.223425 2170918 1
1.599581 0.270441 1.242845 1644837 1
1.568443 0.292653 1.250558 1840926 1
0.601323 0.140645 0.699100 1907237 1
0.612801 0.140645 0.699100 2302506 1
0.601323 0.152123 0.699100 3815232 1
0.612801 0.152123 0.699100 3617853 1
0.698394 0.150777 0.692913 3289141 1
0.612801 0.163602 0.699100 3420472 3
0.691624 0.163241 0.697560 4276034 3
0.695317 0.161440 0.689861 4144195 3
0.646901 0.171940 0.686562 3222579 3
0.666797 0.174193 0.695556 4077885 3
0.678480 0.174260 0.695826 4999239 3
0.682688 0.172437 0.688547 5788503 3
0.622598 0.182697 0.684628 3420474 3
0.615786 0.177493 0.665129 4143427 3
0.433406 0.154433 0.767639 2960947 1
0.401139 0.159232 0.731768 5329495 3
0.411232 0.158491 0.728365 5395288 3
0.423191 0.158491 0.728365 4671052 3
0.435150 0.158491 0.728365 4144707 3
0.440956 0.156310 0.718341 3881535 3
0.483822 0.167037 0.767639 5460568 3
0.405573 0.168105 0.718341 2829361 3
0.417367 0.168105 0.718341 4341574 3
0.426479 0.167054 0.713852 3486520 3
0.441028 0.168132 0.718459 3486777 3
0.481830 0.178902 0.764480 3618363 3
0.444593 0.176658 0.705398 2894381 3
0.456175 0.176658 0.705398 3157553 3
0.470680 0.177762 0.709807 2829101 3
0.042616 0.218781 1.087489 3947069 3
0.059643 0.215784 1.072592 5131343 3
0.078327 0.218781 1.087489 4999504 3
0.096183 0.218781 1.087489 5525334 3
0.057668 0.225666 1.037076 5000270 3
0.077787 0.235004 1.079989 5263188 3
0.095519 0.235004 1.079989 6052447 3
0.094788 0.250801 1.071718 6184544 3
-0.365218 0.254068 1.262890 3354932 3
-0.328584 0.242342 1.204603 3880760 3
-0.318609 0.250035 1.242845 2696232 3
-0.385954 0.274803 1.262890 3947069 3
-0.375747 0.287723 1.229494 4406850 3
-0.427425 0.254068 1.262890 3289648 3
-0.441046 0.270441 1.242845 3289391 3
-0.420640 0.270441 1.242845 3355441 3
-0.406689 0.274803 1.262890 4210239 3
-0.400234 0.290848 1.242845 4670790 3
0.829412 0.136478 0.738672 789013 1
0.837311 0.150021 0.745707 1578783 1
0.825067 0.162265 0.745707 1578268 1
0.861938 0.167037 0.767639 1183512 1
0.874542 0.167037 0.767639 1776162 1
0.806814 0.170648 0.729209 2564648 1
0.854242 0.178037 0.760785 2170405 1
0.874542 0.179641 0.767639 2170405 1
0.707789 0.129745 0.702235 1644063 1
0.704999 0.155962 0.775240 1447708 1
0.700434 0.144516 0.718341 2302246 1
0.705754 0.143202 0.711811 2696749 1
0.710978 0.141912 0.705398 2696749 1
0.794790 0.144516 0.718341 920340 1
0.558290 0.155555 0.841927 2235430 1
0.598815 0.158974 0.860431 1775133 1
0.561308 0.170294 0.846478 4472392 1
0.575206 0.170294 0.846478 4998990 1
0.585938 0.169379 0.841927 4867404 1
0.596554 0.168473 0.837425 3419957 1
0.538675 0.181253 0.832970 4473160 3
0.552351 0.181253 0.832970 5394262 3
0.578333 0.185194 0.851078 5196883 3
0.592306 0.185194 0.851078 4868173 3
0.599761 0.183202 0.841927 4802380 3
0.542557 0.191473 0.818201 3617851 3
0.578137 0.199100 0.850791 3618106 3
0.589105 0.198091 0.846478 3552313 3
0.370876 0.164393 0.889764 921880 1
0.389916 0.166283 0.899991 2040359 1
0.307203 0.176002 0.874852 2237991 3
0.318014 0.174058 0.865185 2763567 3
0.330394 0.173101 0.860431 3355192 3
0.344522 0.173101 0.860431 5000017 3
0.354751 0.171220 0.851078 3750463 3
0.364760 0.169379 0.841927 5198423 3
0.391203 0.175025 0.869991 4606541 3
0.303809 0.188263 0.865185 7304052 3
0.318014 0.188263 0.865185 6776938 3
0.323289 0.183202 0.841927 5789532 3
0.335310 0.182223 0.837425 7960442 3
0.345366 0.180294 0.828563 4145218 3
0.347925 0.174747 0.803069 2698544 3
0.321453 0.195907 0.837146 6579302 3
0.332096 0.194094 0.829398 6578787 3
0.337902 0.189708 0.810656 6776679 3
0.131894 0.200925 1.087489 2960172 1
0.114038 0.218781 1.087489 6709605 3
0.121748 0.201951 1.003836 4999755 3
0.138230 0.201951 1.003836 4868682 3
0.127468 0.228695 1.050996 5855064 3
0.144724 0.228695 1.050996 6119262 3
0.114737 0.256050 1.094150 7433582 3
0.128567 0.248072 1.060056 6578787 3
0.144604 0.245748 1.050126 5724504 3
0.154967 0.235302 1.005487 5724250 3
0.107715 0.257247 1.027192 5066061 3
0.126280 0.260756 1.041204 5789786 3
0.141868 0.258013 1.030253 5658711 3
0.155923 0.253365 1.011692 5263953 3
-0.335802 0.100463 0.543745 1380374 3
-0.326874 0.100463 0.543745 2499623 3
-0.324711 0.102600 0.555314 1710366 3
-0.311179 0.101165 0.547547 1512988 3
-0.302189 0.101165 0.547547 2434090 3
-0.344730 0.109390 0.543745 2301991 3
-0.333486 0.108636 0.539995 2827820 3
-0.326874 0.109390 0.543745 2170658 3
-0.317946 0.109390 0.543745 2171431 3
-0.333486 0.117502 0.539995 1709854 3
-0.324620 0.117502 0.539995 2960433 3
-0.315754 0.117502 0.539995 2631469 3
-0.344730 0.127246 0.543745 2302504 3
-0.335802 0.127246 0.543745 2828335 3
-0.326874 0.127246 0.543745 2763055 3
-0.356914 0.137428 0.548752 2829101 3
-0.347140 0.137126 0.547547 2104612 3
-0.338150 0.137126 0.547547 2827567 3
-0.356914 0.146438 0.548752 3289139 3
-0.347140 0.146116 0.547547 3157300 3
-0.351106 0.196193 0.513878 4342340 3
-0.458227 0.101878 0.551403 1644576 1
-0.449173 0.101878 0.551403 525841 1
-0.434007 0.100463 0.543745 1776162 1
-0.425079 0.100463 0.543745 1381150 1
-0.416151 0.100463 0.543745 1578783 1
-0.412959 0.101878 0.551403 1578781 1
-0.406770 0.102600 0.555314 1710369 1
-0.470594 0.111718 0.555314 1841953 3
-0.458227 0.110931 0.551403 1512990 3
-0.442935 0.109390 0.543745 1446945 3
-0.434007 0.109390 0.543745 1249566 3
-0.425079 0.109390 0.543745 1644322 3
-0.416151 0.109390 0.543745 2302506 3
-0.410071 0.110155 0.547547 2763055 3
-0.403906 0.110931 0.551403 2631471 3
-0.470594 0.120835 0.555314 1907488 3
-0.458227 0.119985 0.551403 2170407 3
-0.442935 0.118318 0.543745 656916 3
-0.434007 0.118318 0.543745 920088 3
-0.425079 0.118318 0.543745 1775651 3
-0.419062 0.119145 0.547547 1380889 3
-0.412959 0.119985 0.551403 1249558 3
-0.488854 0.134995 0.576860 1907233 3
-0.464612 0.130836 0.559086 1051926 3
-0.448009 0.128704 0.549974 788754 3
-0.434955 0.127524 0.544933 2828335 3
-0.425079 0.127246 0.543745 1117719 3
-0.416151 0.127246 0.543745 1380889 3
-0.407224 0.127246 0.543745 1578523 3
-0.484164 0.143081 0.571326 2104098 3
-0.466878 0.140699 0.561813 2498855 3
-0.453369 0.139381 0.556553 2368037 3
-0.438979 0.137734 0.549974 2894381 3
-0.426008 0.136471 0.544933 3025969 3
-0.418152 0.136828 0.546359 1709854 3
-0.412057 0.137790 0.550198 2762542 3
-0.405875 0.138765 0.554091 2499370 3
-0.499189 0.157193 0.589057 1971999 3
-0.482973 0.155092 0.581181 2761768 3
-0.459777 0.150619 0.564421 3091244 3
-0.442085 0.147802 0.553864 2564646 3
-0.431066 0.147145 0.551403 3157555 3
-0.422013 0.147145 0.551403 2236710 3
-0.412959 0.147145 0.551403 2039332 3
-0.405875 0.147862 0.554091 1710367 3
-0.466472 0.162214 0.572639 2367008 3
-0.447411 0.158786 0.560537 2104349 3
-0.432991 0.156896 0.553864 1973279 3
-0.422013 0.156199 0.551403 2763054 3
-0.421242 0.159332 0.562463 3289398 3
-0.452718 0.169982 0.567187 2433828 3
-0.438207 0.167990 0.560537 2434343 3
-0.423897 0.165990 0.553864 2105635 3
-0.440370 0.178067 0.563304 2236964 3
-0.437175 0.180568 0.571213 2829360 3
-0.450637 0.187741 0.564579 3025965 3
-0.440370 0.187316 0.563304 3026737 3
-0.438416 0.190486 0.572835 2763567 3
-0.478646 0.189740 0.543745 2236710 3
-0.469718 0.189740 0.543745 2105124 3
-0.462042 0.190256 0.545222 2894383 3
-0.440569 0.196654 0.563559 3092530 3
-0.478542 0.198625 0.543627 3026480 3
-0.468194 0.198023 0.541981 3026480 3
-0.462042 0.199208 0.545222 3881278 3
-0.451310 0.199460 0.522436 2500393 3
0.667299 0.133142 0.790901 1907237 1
0.629422 0.123187 0.731768 986392 1
0.617407 0.135202 0.731768 1972262 1
0.617873 0.132721 0.718341 2302254 1
0.641437 0.135202 0.731768 3552319 1
0.617407 0.147217 0.731768 2367788 1
0.688861 0.155194 0.771421 1512990 1
0.697024 0.151464 0.752877 1446682 1
0.683112 0.145854 0.724993 1907488 1
0.688640 0.144516 0.718341 2236451 1
0.628341 0.172099 0.790901 3223606 1
0.647871 0.173855 0.798972 4210501 1
0.628902 0.165416 0.760186 3420987 1
0.663945 0.171234 0.786927 3025716 1
0.647401 0.157757 0.724993 3223606 1
0.653256 0.156310 0.718341 3355192 1
0.665051 0.156310 0.718341 2433577 1
0.670692 0.154889 0.711811 2697004 1
0.679292 0.154188 0.708590 2762793 1
0.690926 0.154188 0.708590 3881276 1
0.699396 0.153494 0.705398 3025967 1
0.617503 0.185731 0.793661 3288886 3
0.631531 0.186024 0.794916 4342599 3
0.642344 0.185378 0.792156 3684669 1
0.654107 0.185027 0.790653 4013122 1
0.663945 0.184155 0.786927 3552571 3
0.624930 0.170025 0.726546 2433577 3
0.630106 0.165129 0.705625 2696749 3
0.648621 0.166912 0.713244 3552571 3
0.664861 0.168057 0.718136 3222579 3
0.669563 0.166296 0.710612 4012092 3
0.675103 0.164800 0.704221 4538690 3
0.684729 0.164335 0.702235 4472897 3
0.602561 0.198134 0.791152 5855068 3
0.618479 0.199076 0.794916 3946301 3
0.631531 0.199076 0.794916 3092019 3
0.642344 0.198385 0.792156 3421238 3
0.654107 0.198008 0.790653 3157812 3
0.663945 0.197075 0.786927 3749949 3
0.672345 0.195759 0.781671 5000016 3
0.650557 0.185867 0.742173 4342086 3
0.659830 0.185050 0.738911 4736332 3
0.659305 0.181565 0.724993 4407369 3
0.669710 0.181159 0.723374 2498602 3
0.653003 0.198798 0.744964 3289398 3
0.651283 0.194629 0.729340 2565163 3
0.602836 0.198536 0.700860 4342086 3
0.307697 0.162729 0.966657 1314581 1
0.323569 0.162729 0.966657 2500136 1
0.300283 0.174297 0.943364 3223605 1
0.312013 0.172222 0.932133 2698542 1
0.323467 0.170195 0.921167 2435370 1
0.350979 0.176422 0.954868 2960947 1
0.347582 0.167244 0.905193 2499885 1
0.362445 0.167244 0.905193 789267 1
0.311544 0.196903 0.978740 4276547 3
0.308342 0.185320 0.921167 5264469 3
0.126846 0.155071 0.921167 2763308 1
0.134774 0.180833 0.978740 3618615 1
0.150844 0.180833 0.978740 2565929 1
0.164854 0.178600 0.966657 3355191 1
0.176370 0.174297 0.943364 2894640 1
0.191859 0.174297 0.943364 3158326 1
0.152754 0.199395 0.991129 5395028 3
0.164854 0.194472 0.966657 4539465 3
0.178521 0.192100 0.954868 4473672 3
0.194199 0.192100 0.954868 3487290 3
-0.023703 0.150640 0.894848 2433832 1
-0.009062 0.151506 0.899991 2433830 1
-0.038177 0.164393 0.889764 2104865 1
-0.023435 0.163465 0.884737 1446935 1
-0.009062 0.166283 0.899991 1972509 1
-0.053393 0.181060 0.899991 2631720 3
-0.038177 0.179002 0.889764 2631207 3
-0.023435 0.177991 0.884737 2302242 3
-0.009062 0.181060 0.899991 3486516 3
-0.068170 0.195837 0.899991 4079168 3
-0.053088 0.194718 0.894848 7368303 3
-0.037962 0.192518 0.884737 8092026 3
-0.023303 0.191436 0.879766 8947848 3
-0.009062 0.195837 0.899991 8487297 3
-0.261175 0.100618 0.597704 2039591 1
-0.291163 0.100463 0.543745 1842465 3
-0.282235 0.100463 0.543745 1514270 3
-0.273308 0.100463 0.543745 2368807 3
-0.264380 0.100463 0.543745 2236449 3
-0.260887 0.102600 0.555314 2959406 3
-0.262959 0.107160 0.579994 1907746 3
-0.291163 0.109390 0.543745 2368809 3
-0.282235 0.109390 0.543745 1448988 3
-0.281116 0.112516 0.559280 3026991 3
-0.271933 0.112516 0.559280 3354930 3
-0.526145 0.100618 0.597704 1644063 1
-0.516331 0.100618 0.597704 1445914 1
-0.522159 0.109596 0.593176 1511707 1
-0.512420 0.109596 0.593176 1511707 1
-0.535959 0.120246 0.597704 1249303 3
-0.522159 0.119335 0.593176 2827821 3
-0.501032 0.116683 0.579994 1117203 3
-0.526145 0.130060 0.597704 1182996 3
-0.512420 0.129074 0.593176 2893614 3
-0.516331 0.139873 0.597704 2893613 3
0.739065 0.106209 0.699100 1183514 1
0.743902 0.105269 0.692913 986135 1
0.748653 0.104346 0.686835 854547 1
0.757911 0.102547 0.674993 1184025 1
0.700473 0.115118 0.683836 1249566 1
0.711700 0.115118 0.683836 1249566 1
0.716669 0.114121 0.677915 1578272 1
0.724663 0.113629 0.674993 2038823 1
0.748653 0.115623 0.686835 722961 1
0.759931 0.115623 0.686835 986133 1
0.771208 0.115623 0.686835 1184025 1
0.700473 0.126346 0.683836 657427 1
0.708606 0.125797 0.680863 1315870 1
0.716669 0.125252 0.677915 1973541 1
0.712380 0.122598 0.663553 1183512 1
0.729457 0.123646 0.669224 1906465 1
0.773501 0.129166 0.699100 1973541 1
0.706644 0.138786 0.689861 1973541 1
0.717971 0.138786 0.689861 1907748 1
0.726099 0.138177 0.686835 2105127 1
0.718469 0.134634 0.669224 920340 1
0.755279 0.139400 0.692913 1182742 1
0.703545 0.149454 0.686835 4209988 1
0.714822 0.149454 0.686835 3157302 1
0.722928 0.148802 0.683836 3157304 1
0.721553 0.146247 0.672096 2630188 1
0.762022 0.152123 0.699100 1840672 1
0.721553 0.157282 0.672096 4735566 1
0.748188 0.160632 0.686408 3287859 1
0.740117 0.158137 0.631445 2235684 1
0.740127 0.151762 0.605987 2433062 1
0.284794 0.143318 0.943364 2236711 1
0.244962 0.153268 0.910456 1512477 1
0.262968 0.155071 0.921167 1907746 1
0.288267 0.160744 0.954868 1512730 1
0.208605 0.175353 0.949081 2368039 1
0.224188 0.175353 0.949081 2762025 1
0.239771 0.175353 0.949081 2368037 1
0.279404 0.180833 0.978740 2367784 1
0.297332 0.181970 0.984896 2565416 1
0.212468 0.194472 0.966657 3025967 3
0.225555 0.192100 0.954868 4801862 3
0.238327 0.189786 0.943364 3157553 3
0.263334 0.196903 0.978740 4670539 3
0.272589 0.192100 0.954868 4802380 3
0.288267 0.192100 0.954868 3355445 3
0.026609 0.177544 1.168645 2828590 1
0.082935 0.174933 1.151459 3092020 1
0.026217 0.193839 1.151459 3091760 1
0.044469 0.191029 1.134771 2697515 1
0.063101 0.191029 1.134771 3354932 1
0.081733 0.191029 1.134771 2630958 1
0.006293 0.150575 0.991129 3157555 1
0.005781 0.153268 0.910456 2235681 1
0.005748 0.167244 0.905193 2038556 1
0.021741 0.176422 0.954868 2564646 1
0.020730 0.183165 0.910456 6446687 3
0.020610 0.196969 0.905193 7368814 3
-0.009980 0.150575 0.991129 2369579 1
-0.084899 0.170195 0.921167 2895668 1
-0.068963 0.168216 0.910456 2106407 1
-0.053702 0.167244 0.905193 2302757 1
-0.084899 0.185320 0.921167 2368810 3
-0.068963 0.183165 0.910456 1316889 3
-0.099438 0.199273 0.915780 3289911 3
-0.083912 0.198114 0.910456 4342599 3
-0.271423 0.082037 0.539995 1184025 1
-0.262556 0.082037 0.539995 1644573 1
-0.251953 0.081476 0.536296 1446937 1
-0.282235 0.091535 0.543745 1841953 1
-0.273308 0.091535 0.543745 921363 1
-0.264380 0.091535 0.543745 1118483 1
-0.255452 0.091535 0.543745 1775132 1
-0.251769 0.093482 0.555314 1776159 1
-0.425006 0.084365 0.555314 1512477 1
-0.421872 0.085579 0.563304 1183510 1
-0.434007 0.091535 0.543745 1447197 1
-0.425079 0.091535 0.543745 1513249 1
-0.416151 0.091535 0.543745 2039332 1
-0.410071 0.092175 0.547547 1512987 1
-0.412623 0.094827 0.563304 1974052 1
0.209324 0.112273 0.828563 2368299 1
0.219445 0.110519 0.815617 2368809 1
0.240347 0.114084 0.841927 1645601 1
0.210437 0.126547 0.832970 1907233 1
0.226524 0.127908 0.841927 2828850 1
0.240347 0.127908 0.841927 2499883 1
0.205506 0.146456 0.869991 2498855 1
0.227369 0.151506 0.899991 1972511 1
0.113494 0.111682 0.824202 3091762 1
0.125704 0.110519 0.815617 1775902 1
0.139095 0.110519 0.815617 2170918 1
0.152487 0.110519 0.815617 1841955 1
0.197813 0.113474 0.837425 1907237 1
0.103221 0.129298 0.851078 3223346 1
0.114702 0.126547 0.832970 3355445 1
0.127027 0.125215 0.824202 2894894 1
0.139095 0.123911 0.815617 3881535 1
0.152487 0.123911 0.815617 2301993 1
0.137131 0.149784 0.889764 1907745 1
0.150035 0.148101 0.879766 2104867 1
0.162653 0.146456 0.869991 2170660 1
0.176937 0.146456 0.869991 3355192 1
0.191221 0.146456 0.869991 2762797 1
0.087348 0.112871 0.832970 2170660 1
0.099962 0.111682 0.824202 1973026 1
0.005650 0.179002 0.889764 3617588 3
0.005650 0.193611 0.889764 8157821 3
0.045500 0.191485 0.818252 6119008 3
0.103361 0.158356 1.168645 1184022 1
0.102595 0.176228 1.159988 2894128 1
0.100365 0.191029 1.134771 2894130 1
0.115644 0.185648 1.102806 2828590 1
0.133751 0.185648 1.102806 2499621 1
-0.836851 0.139168 1.168645 262921 1
-0.817663 0.139168 1.168645 1381404 1
-0.819352 0.151569 1.118560 1315096 1
-0.800986 0.151569 1.118560 1249818 1
-0.800986 0.169935 1.118560 1249818 1
-0.855991 0.125604 1.223425 723220 1
-0.835904 0.125604 1.223425 1644065 1
-0.815816 0.125604 1.223425 2169639 1
-0.821397 0.129655 1.262890 1512479 1
-0.823044 0.143450 1.204603 788754 1
-0.803265 0.143450 1.204603 1183512 1
-0.168739 0.030977 0.359171 1447708 1
-0.167450 0.031854 0.369336 1117978 1
-0.161338 0.035257 0.343418 1579294 1
-0.157077 0.035569 0.346457 986392 1
-0.159878 0.037564 0.365884 1249816 1
-0.161338 0.040896 0.343418 1513501 1
-0.156385 0.041076 0.344930 1644574 1
-0.151389 0.041258 0.346457 1578523 1
0.091740 0.061089 0.874852 2105125 1
0.071393 0.069619 0.807208 1776160 1
0.085529 0.070344 0.815617 1973538 1
0.098920 0.070344 0.815617 1775649 1
0.018571 0.083736 0.815617 2235684 1
0.031962 0.083736 0.815617 1841693 1
0.045354 0.083736 0.815617 1578780 1
0.058140 0.082873 0.807208 1777189 1
0.072137 0.083736 0.815617 2105637 1
0.085529 0.083736 0.815617 1973538 1
0.098920 0.083736 0.815617 1907233 1
0.058745 0.097127 0.815617 2501165 1
0.072137 0.097127 0.815617 1513500 1
0.085529 0.097127 0.815617 2697261 1
0.098920 0.097127 0.815617 1841440 1
-1.393624 0.127150 1.820912 1512988 1
-1.363726 0.127150 1.820912 1775908 1
-1.365586 0.130177 1.864267 1381150 1
-1.303931 0.127150 1.820912 328975 1
-1.319271 0.158895 1.842334 1052698 1
-1.393624 0.186945 1.820912 2038051 1
0.004520 0.038017 0.711811 1842465 1
0.017308 0.040600 0.760186 920593 1
0.030380 0.041404 0.775240 1906719 1
0.043979 0.042241 0.790901 1512225 1
0.056965 0.042241 0.790901 1644324 1
0.070665 0.042672 0.798972 1841955 1
0.004520 0.049704 0.711811 1645086 1
0.016661 0.051098 0.731768 1841695 1
0.029790 0.053082 0.760186 1314582 1
0.043979 0.055227 0.790901 2104616 1
0.056965 0.055227 0.790901 1973287 1
0.070665 0.055790 0.798972 1841953 1
0.004647 0.063113 0.731768 2105125 1
0.017308 0.065564 0.760186 2499625 1
0.030994 0.068213 0.790901 1775132 1
0.044428 0.068909 0.798972 1644574 1
0.057547 0.068909 0.798972 1842212 1
0.004827 0.078045 0.760186 1710369 1
-0.396687 0.202402 0.553964 2434600 3
-0.320826 0.218908 0.599141 4013884 3
-0.307036 0.216125 0.591525 4144446 3
-0.393295 0.209689 0.549229 4013375 3
-0.368730 0.201205 0.527007 5131856 3
-0.380657 0.217943 0.570846 3487031 3
-0.328153 0.227008 0.594591 4013625 3
-0.314373 0.224144 0.587089 3881785 3
-0.300231 0.220832 0.578415 2368035 3
-0.391630 0.217781 0.546904 3487031 3
-0.355737 0.202463 0.508436 5855579 3
-0.347389 0.202463 0.508436 4868684 3
-0.342108 0.204295 0.513036 4737098 3
-0.347841 0.212962 0.534801 3552309 3
-0.353255 0.221878 0.557191 5131854 3
-0.349614 0.225429 0.566110 4276547 3
-0.346297 0.229389 0.576054 2763567 3
-0.340883 0.232143 0.582970 3881535 3
-0.332080 0.232682 0.584322 4408129 3
-0.322486 0.232682 0.584322 2631972 3
-0.311298 0.231497 0.581347 3289648 3
-0.395727 0.229133 0.552625 4868941 3
-0.343254 0.224486 0.541417 4079166 3
-0.339053 0.227634 0.549010 2631979 3
-0.336396 0.232019 0.559585 3487290 3
-0.334378 0.237103 0.571846 5197906 3
-0.328862 0.239929 0.578661 5527125 3
-0.320097 0.240481 0.579994 4277056 3
-0.309004 0.239265 0.577062 3948093 3
-0.335802 0.234379 0.543745 4079679 3
-0.330039 0.236648 0.549010 3619644 3
-0.322424 0.237680 0.551403 3750462 3
-0.313371 0.237680 0.551403 5000781 3
-0.308833 0.241207 0.559585 4474435 3
-0.301636 0.242810 0.563304 4737609 3
-0.041849 0.037674 0.705398 986133 1
-0.030267 0.037674 0.705398 1249305 1
-0.018685 0.037674 0.705398 1644063 1
-0.007167 0.038017 0.711811 1710879 1
-0.030267 0.049256 0.705398 2038821 1
-0.018685 0.049256 0.705398 2104612 1
-0.007167 0.049704 0.711811 1776672 1
-0.041849 0.060838 0.705398 1380893 1
-0.030542 0.061391 0.711811 986131 1
-0.018855 0.061391 0.711811 1512730 1
-0.007233 0.061955 0.718341 1316122 1
-0.053916 0.073079 0.711811 920338 1
-0.043011 0.074432 0.724993 2301995 1
-0.031107 0.074432 0.724993 1709854 1
-0.019204 0.074432 0.724993 2433832 1
-0.007438 0.075836 0.738672 2105384 1
-0.074579 0.036683 0.686835 1774883 1
-0.063302 0.036683 0.686835 1248537 1
-0.052954 0.037338 0.699100 1314582 1
-0.085856 0.047960 0.686835 2038821 1
-0.073930 0.047543 0.680863 1182746 1
-0.063302 0.047960 0.686835 1643295 1
-0.052485 0.048384 0.692913 1380375 1
-0.041475 0.048816 0.699100 1775649 1
-0.074579 0.059237 0.686835 1117721 1
-0.063862 0.059761 0.692913 1578272 1
-0.052954 0.060295 0.699100 1775647 1
0.109153 0.033290 0.899991 1446945 1
0.122522 0.032912 0.889764 2433838 1
0.135590 0.032542 0.879766 1644576 1
0.139095 0.030169 0.815617 1249816 1
0.152487 0.030169 0.815617 1578529 1
0.107303 0.047253 0.884737 1118232 1
0.121145 0.046987 0.879766 657938 1
0.125704 0.043561 0.815617 1447197 1
0.104355 0.060082 0.860431 1184025 1
0.113494 0.057552 0.824202 1973541 1
0.127027 0.057552 0.824202 2105127 1
0.139095 0.056953 0.815617 1052185 1
0.114095 0.071461 0.828563 2038821 1
0.127027 0.071085 0.824202 2368299 1
0.143582 0.072613 0.841927 1578783 1
0.157406 0.072613 0.841927 1907494 1
0.170314 0.072225 0.837425 1906465 1
0.183084 0.071841 0.832970 2103846 1
0.112312 0.083736 0.815617 1380891 1
0.125704 0.083736 0.815617 2565165 1
0.142814 0.085975 0.837425 2828850 1
0.157406 0.086437 0.841927 1710369 1
0.170314 0.085975 0.837425 1907233 1
0.184063 0.085975 0.837425 2104616 1
0.197813 0.085975 0.837425 1183261 1
0.112312 0.097127 0.815617 2104612 1
0.125704 0.097127 0.815617 2170405 1
0.139095 0.097127 0.815617 2697262 1
0.155731 0.099194 0.832970 2368297 1
0.170314 0.099724 0.837425 2434343 1
0.184063 0.099724 0.837425 2367786 1
0.197813 0.099724 0.837425 1972776 1
-0.328438 0.025859 0.699100 854545 1
-0.316960 0.025859 0.699100 1051926 1
-0.339917 0.037338 0.699100 789265 1
-0.328438 0.037338 0.699100 1776160 1
-0.316960 0.037338 0.699100 723220 1
-0.305481 0.037338 0.699100 1249303 1
-0.336909 0.048384 0.692913 920851 1
-0.325532 0.048384 0.692913 1184023 1
-0.316960 0.048816 0.699100 1052185 1
-0.305481 0.048816 0.699100 262921 1
-0.333953 0.059237 0.686835 1710367 1
-0.305481 0.060295 0.699100 855058 1
-0.333953 0.070514 0.686835 920851 1
-1.334977 0.038349 1.864267 1379612 1
-1.319271 0.068147 1.842334 1182491 1
-1.396196 0.099568 1.864267 1381150 1
-1.365586 0.099568 1.864267 394257 1
-1.319271 0.098396 1.842334 657429 1
1.335897 0.005329 1.283594 1250077 1
1.356972 0.005329 1.283594 1118232 1
1.314821 0.026404 1.283594 2170920 1
1.313451 0.025167 1.223425 789265 1
1.333539 0.025167 1.223425 1447197 1
1.313451 0.045254 1.223425 920851 1
1.333539 0.045254 1.223425 460300 1
1.353626 0.045254 1.223425 1381404 1
1.313894 0.066379 1.242845 920338 1
1.313451 0.065341 1.223425 1907488 1
0.607410 0.217512 0.815091 2434343 3
0.612622 0.214649 0.804362 2433832 3
0.622631 0.213552 0.800252 2960176 3
0.616434 0.234325 0.827200 5329235 3
0.622062 0.231367 0.816757 6118497 3
0.629060 0.229032 0.808515 5197138 3
0.640888 0.228516 0.806694 4802891 3
0.605727 0.243601 0.812833 6776938 3
0.637803 0.250971 0.837425 6776427 3
0.644480 0.248247 0.828334 7105392 3
0.651402 0.245727 0.819928 6381923 3
0.612829 0.267567 0.804634 5789532 3
2.123888 -0.879934 1.864267 1051156 1
2.129150 -0.869581 1.842334 1907235 1
2.159399 -0.869581 1.842334 657168 1
2.189649 -0.869581 1.842334 1051926 1
2.194085 -0.859470 1.820912 1051924 1
2.123888 -0.849324 1.864267 1445914 1
2.154497 -0.849324 1.864267 1841442 1
0.068186 -1.592629 1.739982 919572 1
0.096755 -1.592629 1.739982 526095 1
0.066704 -1.530059 1.702157 919572 1
0.096755 -1.564060 1.739982 723474 1
0.096755 -1.535491 1.739982 986646 1
0.096755 -1.506922 1.739982 591888 1
