# .PCD v0.7
VERSION 0.7
FIELDS x y z rgb label
SIZE 4 4 4 4 4
TYPE F F F U U
COUNT 1 1 1 1 1
WIDTH 1145
HEIGHT 1
VIEWPOINT 0 0 0 1 0 0 0
POINTS 1145
DATA ascii
0.065733 0.206922 0.541981 9079432 3
0.074826 0.207462 0.543394 9277324 3
0.082921 0.205411 0.538024 9079947 3
0.091460 0.204752 0.536296 8619396 3
0.066105 0.217042 0.545047 9013382 3
0.074861 0.216483 0.543643 8816775 3
0.082092 0.212104 0.532648 7961466 3
0.090416 0.211119 0.530173 7764087 3
0.098454 0.209699 0.526608 9211533 3
0.081919 0.220384 0.531523 8882057 3
0.090416 0.219824 0.530173 7895160 3
0.098454 0.218346 0.526608 8882568 3
-0.435142 0.208138 0.545166 1777951 3
-0.428240 0.209139 0.547788 1447705 3
-0.421920 0.210473 0.551282 2171430 3
-0.412158 0.210111 0.550333 3355702 3
-0.435710 0.217373 0.545878 2764333 3
-0.429648 0.218851 0.549589 4803148 3
-0.421920 0.219525 0.551282 5000527 3
-0.411510 0.218803 0.549468 3882046 3
-0.403463 0.219332 0.550798 4869195 3
-0.422764 0.229033 0.552384 3882300 3
-0.410252 0.227128 0.547788 2500647 3
-0.403729 0.228527 0.551162 3092784 3
-0.432400 0.238415 0.553109 3092780 3
-0.420440 0.236794 0.549348 2961194 3
-0.409089 0.235452 0.546235 4342849 3
0.171282 0.219220 0.599994 8420993 3
0.181090 0.219167 0.599851 8486786 3
0.190256 0.218383 0.597704 8158334 3
0.199546 0.217812 0.596141 9014154 3
0.133960 0.202443 0.530250 9408140 3
0.156177 0.221616 0.580467 8815749 3
0.170875 0.228527 0.598568 8881544 3
0.181090 0.229016 0.599851 10789541 3
0.190256 0.228197 0.597704 9342093 3
0.198073 0.225919 0.591739 9934745 3
0.190914 0.207572 0.543683 9474194 3
0.106013 0.207570 0.521262 9013643 3
0.112186 0.203248 0.510407 7698294 3
0.122235 0.206061 0.517472 8487810 3
0.132689 0.209146 0.525219 9013382 3
0.146529 0.216867 0.544607 8947337 3
0.157067 0.219093 0.550198 9276302 3
0.166464 0.219573 0.551403 9210509 3
0.174674 0.218517 0.548752 9605265 3
0.182405 0.216996 0.544933 9210511 3
0.188978 0.214304 0.538171 9737366 3
0.191805 0.207794 0.521823 9277326 3
0.106385 0.216887 0.523090 8948107 3
0.115262 0.217432 0.524403 8619910 3
0.124131 0.217886 0.525498 8422531 3
0.133490 0.219086 0.528392 9408397 3
0.146021 0.225026 0.542719 8684165 3
0.154657 0.224628 0.541758 7894649 3
0.163020 0.223896 0.539995 7697270 3
0.171886 0.223896 0.539995 8552577 3
0.179901 0.222842 0.537452 8223614 3
0.188161 0.222175 0.535843 8289407 3
0.191805 0.216362 0.521823 8421763 3
0.100373 0.196157 0.536872 9605519 3
0.123716 0.191359 0.523741 9144714 3
0.114853 0.199500 0.522540 8750982 3
0.123303 0.199292 0.521995 9014154 3
0.188911 0.196219 0.513947 9606291 3
0.192885 0.191781 0.502322 8620164 3
-0.293226 0.203569 0.583373 4803402 3
-0.282005 0.202389 0.579994 4211011 3
-0.273944 0.203476 0.583107 3289909 3
-0.294667 0.214194 0.586238 2303016 3
-0.282333 0.212159 0.580668 4671564 3
-0.295912 0.224765 0.588716 3224886 3
-0.311298 0.202861 0.581347 4671814 3
-0.301121 0.202436 0.580129 4013373 3
-0.312892 0.213494 0.584322 3553849 3
-0.303369 0.213544 0.584459 4803148 3
-0.394852 0.219573 0.551403 4342851 3
-0.389524 0.221693 0.556726 5197645 3
-0.392091 0.227028 0.547547 3619128 3
-0.383101 0.227028 0.547547 5527123 3
-0.398558 0.234533 0.544102 4671816 3
-0.385769 0.232213 0.538719 4672330 3
-0.375632 0.231416 0.536872 4277056 3
-0.479222 0.222538 0.669224 3684408 3
-0.468487 0.222658 0.669585 3158064 3
-0.465599 0.226603 0.681449 5395026 3
-0.464255 0.231513 0.696213 5986650 3
-0.453313 0.231763 0.696964 5065550 3
-0.497957 0.227039 0.650632 2500395 3
-0.489569 0.228108 0.653696 2697774 3
-0.487636 0.232300 0.665709 2368550 3
-0.479222 0.233526 0.669224 3224370 3
-0.468487 0.233652 0.669585 2631720 3
-0.464072 0.237012 0.679214 4539717 3
-0.460164 0.240803 0.690077 3947067 3
-0.449190 0.240994 0.690626 5065550 3
-0.435934 0.239939 0.687602 4472645 3
-0.431745 0.243952 0.699100 5393747 3
-0.420267 0.243952 0.699100 5197647 3
-0.406301 0.242467 0.694847 4802889 3
-0.485229 0.231645 0.634002 1645086 3
-0.484924 0.247423 0.677186 2434854 3
-0.488180 0.254930 0.697731 2829099 3
-0.437878 0.252349 0.690668 3748922 3
-0.416693 0.246525 0.674727 4012092 3
-0.450498 0.264441 0.692636 4078655 3
-0.425300 0.256115 0.670828 4933964 3
-0.476473 0.277696 0.697363 5592403 3
-0.463215 0.276616 0.694653 5460306 3
0.157157 0.196645 0.622073 7698042 3
0.165597 0.194561 0.615479 8355202 3
0.173237 0.191830 0.606841 8026237 3
0.183018 0.191640 0.606238 8355198 3
0.193205 0.191871 0.606971 7566193 3
0.114129 0.211550 0.669224 7303282 3
0.125117 0.211550 0.669224 7828856 3
0.140283 0.218043 0.689764 8947848 3
0.192459 0.201058 0.604627 7960953 3
0.181874 0.210224 0.602447 7697270 3
0.192459 0.210985 0.604627 8816262 3
0.466042 0.156409 0.521897 5723480 3
0.474306 0.156309 0.521562 5131345 3
0.486211 0.157390 0.525171 4473160 3
0.498487 0.158553 0.529049 4999504 3
0.453028 0.163375 0.516826 6447201 3
0.459433 0.162639 0.514497 6184029 3
0.468167 0.162739 0.514812 6052445 3
0.479971 0.163883 0.518431 5657946 3
0.486971 0.163375 0.516826 6052705 3
0.444542 0.171861 0.516826 7565684 3
0.453028 0.171861 0.516826 7631477 3
0.459433 0.171086 0.514497 7828854 3
0.468167 0.171191 0.514812 7894647 3
0.479971 0.172395 0.518431 6579048 3
0.440493 0.175357 0.502526 4605001 3
0.448651 0.175321 0.502422 4407620 3
0.456442 0.175145 0.501918 5657685 3
0.463662 0.174760 0.500816 4737096 3
0.439084 0.183021 0.500919 5986399 3
0.448201 0.183386 0.501918 4999757 3
0.455439 0.182983 0.500816 4342079 3
0.446769 0.191014 0.500314 4736587 3
0.405010 0.203167 0.677915 5657687 3
0.416253 0.203222 0.678099 5986652 3
0.433028 0.205904 0.687049 7632247 3
0.444660 0.206067 0.687593 6448743 3
0.453092 0.204776 0.683283 7171950 3
0.457324 0.201694 0.673002 5921631 3
0.464642 0.200087 0.667639 5986914 3
0.405010 0.214298 0.677915 5526101 3
0.416140 0.214298 0.677915 5789786 3
0.125607 0.220732 0.736527 4868171 3
0.133079 0.213325 0.711811 5591378 3
0.154719 0.227991 0.760748 5723732 3
0.172099 0.234658 0.782992 5395285 3
0.162891 0.234270 0.741097 7632247 3
0.177630 0.237711 0.751982 7303282 3
0.303118 0.166620 0.588191 6381412 3
0.303118 0.176277 0.588191 5130575 3
0.315006 0.177534 0.592386 6184031 3
0.301297 0.184818 0.584658 7236719 3
0.313898 0.186602 0.590303 7829369 3
0.348463 0.166117 0.525498 5921629 3
0.370159 0.164258 0.519618 6710894 3
0.309423 0.193496 0.581887 8092028 3
0.332322 0.175333 0.527267 6645354 3
0.340696 0.175188 0.526829 7500663 3
0.344134 0.172574 0.518969 3882046 3
0.351199 0.171861 0.516826 4145218 3
0.359684 0.171861 0.516826 6053217 3
0.366288 0.170982 0.514184 5395288 3
0.386575 0.176387 0.530436 5394517 3
0.324737 0.179791 0.515233 7040882 3
0.333821 0.180128 0.516199 6777455 3
0.335179 0.176382 0.505465 7566454 3
0.341068 0.175145 0.501918 7369075 3
0.350858 0.175922 0.504144 5197906 3
0.359857 0.176275 0.505156 2895153 3
0.385078 0.184380 0.528383 4802378 3
0.332096 0.182983 0.500816 6908526 3
0.356765 0.182983 0.500816 6908524 3
0.280823 0.164870 0.582016 6776428 3
0.289438 0.164336 0.580129 4210243 3
0.238112 0.171200 0.571251 7106157 3
0.243228 0.168251 0.561411 7369077 3
0.254218 0.169432 0.565351 4803151 3
0.268461 0.172622 0.575996 4605518 3
0.279848 0.173821 0.579994 8487048 3
0.289438 0.173861 0.580129 7697017 3
0.216286 0.186008 0.588424 7303023 3
0.217926 0.179405 0.567535 7172464 3
0.219241 0.173087 0.547547 8225152 3
0.238770 0.181079 0.572830 7829880 3
0.253154 0.184712 0.584322 7763576 3
0.264106 0.185667 0.587343 8158594 3
0.273950 0.185802 0.587772 8290696 3
0.276773 0.181329 0.573621 10000544 3
0.286914 0.181787 0.575070 8750218 3
0.209813 0.198689 0.597505 8684676 3
0.205978 0.186344 0.560380 8487297 3
0.203525 0.176252 0.530030 8488324 3
0.207626 0.172430 0.518538 8357251 3
0.230138 0.183598 0.552121 7895673 3
0.249572 0.191556 0.576054 6776681 3
0.262140 0.193856 0.582970 6776941 3
0.271789 0.193911 0.583136 5658460 3
0.272776 0.187993 0.565337 6974066 3
0.282186 0.188078 0.565594 8158081 3
0.297195 0.191771 0.576699 8684165 3
0.206761 0.196289 0.562511 8355711 3
0.208642 0.189605 0.543357 8225152 3
0.206222 0.179721 0.515031 8752009 3
0.213055 0.178362 0.511138 8027259 3
0.235645 0.189797 0.543909 7763574 3
0.251488 0.195161 0.559280 9935004 3
0.251558 0.188339 0.539729 8290179 3
0.256241 0.185317 0.531069 7763323 3
0.200300 0.199102 0.544933 10000536 3
0.200790 0.191055 0.522908 9277840 3
0.205583 0.187595 0.513437 8094079 3
0.212580 0.186338 0.509999 8882566 3
0.219787 0.185354 0.507305 8882053 3
0.230510 0.187299 0.512628 8355970 3
0.241482 0.189302 0.518111 8552838 3
0.250974 0.190048 0.520153 8684425 3
0.254680 0.186507 0.510462 8881291 3
0.200329 0.191014 0.500314 9080461 3
0.208544 0.191014 0.500314 8159359 3
0.216758 0.191014 0.500314 8553088 3
0.224973 0.191014 0.500314 8421502 3
0.233188 0.191014 0.500314 8881803 3
0.241548 0.191130 0.500617 8355460 3
0.250372 0.191592 0.501827 8552326 3
0.271793 0.192285 0.678794 6645606 3
0.261678 0.177837 0.627789 6447973 3
0.266335 0.174142 0.614747 5987424 3
0.275065 0.173283 0.611713 5790046 3
0.284247 0.172759 0.609865 6250084 3
0.255269 0.199232 0.664786 6579813 3
0.241046 0.180416 0.602003 6842983 3
-0.219321 0.242352 0.855538 4013886 3
-0.293437 0.259836 0.867004 6250587 3
-0.289438 0.269362 0.898789 6447714 3
-0.255843 0.265133 0.884681 6644834 3
-0.224721 0.246899 0.823839 7171178 3
-0.290341 0.271179 0.857856 6053467 3
-0.286531 0.281266 0.889764 5987163 3
-0.511995 0.207291 0.731768 3815483 3
-0.516830 0.214277 0.756430 3487031 3
-0.511885 0.217453 0.767639 2368037 3
-0.502679 0.218933 0.772865 3814967 3
-0.530151 0.216903 0.723750 2565416 3
-0.514843 0.215470 0.718968 2631207 3
-0.506698 0.223679 0.707593 3552822 3
0.196989 0.239164 0.896230 6381662 3
0.108530 0.253488 0.894848 6316387 3
0.120869 0.248647 0.877759 6974317 3
0.132080 0.242763 0.856989 6315876 3
0.145143 0.241089 0.851078 6052704 3
0.157940 0.239307 0.844787 7565684 3
0.171229 0.238497 0.841927 6710884 3
0.182375 0.235045 0.829741 7039851 3
0.193295 0.231804 0.818300 6710888 3
0.109153 0.269722 0.899991 6579561 3
0.116755 0.254106 0.847886 6119008 3
0.123498 0.240147 0.801308 4671305 3
0.190253 0.241380 0.805422 7763835 3
-0.465914 0.212629 0.796795 2500134 3
-0.491496 0.219606 0.775240 2762025 3
-0.482058 0.221116 0.780569 3551543 3
-0.469089 0.221043 0.780314 2499882 3
-0.457131 0.221457 0.781775 2303268 3
-0.498462 0.213510 0.712426 2631720 3
-0.493210 0.216337 0.721861 3092784 3
-0.483447 0.217276 0.724993 3552309 3
-0.487280 0.224527 0.749188 3354416 3
-0.471063 0.222676 0.743011 4209471 3
-0.458501 0.222500 0.742425 2697004 3
-0.451802 0.225238 0.751559 4276806 3
-0.451921 0.231623 0.772865 3684667 3
-0.453072 0.238921 0.797218 5658198 3
-0.427831 0.239447 0.798972 4606019 3
-0.497327 0.224694 0.710804 4210752 3
-0.486483 0.225077 0.712014 6316128 3
-0.478328 0.226753 0.717316 5723478 3
-0.464297 0.225658 0.713852 4539206 3
-0.454260 0.226497 0.716508 5131345 3
-0.445801 0.228189 0.721861 3025714 3
-0.443889 0.233416 0.738396 3619646 3
-0.453471 0.245151 0.775516 4342597 3
-0.452286 0.251574 0.795836 4605769 3
-0.444483 0.233133 0.701086 3157555 3
-0.443123 0.238599 0.717523 2894383 3
-0.437250 0.241867 0.727351 4211011 3
-0.445135 0.253143 0.761260 4474183 3
-0.448558 0.262460 0.789277 3947580 3
-0.416982 0.258946 0.778711 4802887 3
-0.481962 0.257731 0.705398 3223857 3
-0.470381 0.257731 0.705398 3618102 3
-0.455982 0.256149 0.701068 3355445 3
-0.491861 0.268395 0.702992 5526610 3
-0.493930 0.276001 0.722914 4079164 3
-0.474464 0.271651 0.711522 3223344 3
0.660989 0.200092 0.798972 2236451 3
0.660989 0.213210 0.798972 2368037 3
0.645526 0.225509 0.796080 5592153 3
0.641327 0.250014 0.790901 6382183 3
0.641082 0.244959 0.774909 6644841 3
0.632390 0.277764 0.795997 4343114 3
0.304860 0.207712 0.829398 7368818 3
0.313699 0.204595 0.816951 7039340 3
0.324057 0.202684 0.809321 7237232 3
0.302263 0.219444 0.822331 7500404 3
0.311970 0.216807 0.812450 6250337 3
0.258714 0.214618 0.856977 7171439 3
0.266561 0.209722 0.837425 7171950 3
0.280311 0.209722 0.837425 7961982 3
0.293963 0.209652 0.837146 6382950 3
0.210176 0.237439 0.889764 7630959 3
0.217922 0.230189 0.862596 6776166 3
0.225469 0.223627 0.838005 6973294 3
0.234441 0.219151 0.821236 7763065 3
0.247599 0.218864 0.820157 8487299 3
0.262439 0.220016 0.824475 6250335 3
0.277345 0.221107 0.828563 6119778 3
0.290949 0.221107 0.828563 5987422 3
0.206053 0.231044 0.815617 6118238 3
0.221033 0.232716 0.821519 6643815 3
0.234364 0.232560 0.820969 6052447 3
0.246228 0.231044 0.815617 6907754 3
0.259620 0.231044 0.815617 6776679 3
0.271076 0.229406 0.809836 7698040 3
0.281462 0.227058 0.801546 6579559 3
0.218290 0.243149 0.811324 6578021 3
0.233602 0.245239 0.818300 8222846 3
0.246228 0.244435 0.815617 6447203 3
0.259620 0.244435 0.815617 7565682 3
0.270124 0.241850 0.806990 7303536 3
-0.140876 0.223521 0.892524 5461846 3
-0.119107 0.210921 0.842211 5000527 3
-0.106607 0.213582 0.852838 5395028 3
-0.184184 0.237330 0.889357 5526614 3
-0.166471 0.232977 0.873046 4868941 3
-0.149338 0.228692 0.856989 7040364 3
-0.130486 0.220609 0.826699 5395539 3
-0.115346 0.217652 0.815617 6316387 3
-0.170134 0.232716 0.821519 6447201 3
-0.157158 0.233476 0.824202 6118751 3
-0.143625 0.233476 0.824202 6777192 3
-0.129161 0.231804 0.818300 5921883 3
-0.157158 0.247008 0.824202 6578789 3
-0.144675 0.248815 0.830230 6381921 3
-0.129593 0.246061 0.821040 6250335 3
-0.115346 0.244435 0.815617 5197906 3
-0.343737 0.254349 1.015623 5393745 3
-0.379568 0.285430 1.069603 5854550 3
-0.329065 0.287335 1.076743 5657171 3
-0.337938 0.297267 1.049396 6380894 3
-0.323367 0.299732 1.058097 5131341 3
-0.378711 0.217050 0.866687 2762797 3
-0.364103 0.216825 0.865789 6052447 3
-0.353550 0.219095 0.874852 4342340 3
-0.397339 0.233869 0.876387 5000529 3
-0.382278 0.233459 0.874852 4539208 3
-0.368174 0.233624 0.875469 5065552 3
-0.357545 0.236097 0.884737 4079166 3
-0.343263 0.236266 0.885369 6249308 3
-0.393222 0.245686 0.867307 5067092 3
-0.382278 0.247823 0.874852 4934223 3
-0.369466 0.248869 0.878541 4078657 3
-0.357545 0.250624 0.884737 5395026 3
-0.343018 0.250624 0.884737 6118751 3
-0.327109 0.249569 0.881012 5921370 3
-0.310901 0.248177 0.876101 3355443 3
-0.392769 0.250554 0.836033 4409158 3
-0.385512 0.254830 0.850303 4738384 3
-0.377405 0.258845 0.863699 4934736 3
-0.366644 0.261282 0.871831 6249826 3
-0.353550 0.262188 0.874852 5789784 3
-0.337890 0.261186 0.871510 6513509 3
-0.322795 0.260552 0.869394 4473924 3
-0.305340 0.257866 0.860431 5658196 3
-0.396570 0.257827 0.815617 3948861 3
-0.389315 0.261956 0.828679 4014913 3
-0.336020 0.273971 0.866687 5067090 3
-0.319910 0.272370 0.861623 5461846 3
-0.303671 0.270507 0.855729 5462100 3
-0.424051 0.218415 0.872138 1842465 3
-0.419848 0.223808 0.893671 2303017 3
-0.401459 0.221756 0.885476 2368297 3
-0.468080 0.219789 0.823626 3157551 3
-0.459714 0.222283 0.832970 3420723 3
-0.447677 0.223100 0.836033 4408131 3
-0.436427 0.224373 0.840804 5066572 3
-0.425618 0.225964 0.846765 4474437 3
-0.418527 0.229703 0.860776 2763565 3
-0.411175 0.233555 0.875210 5395287 3
-0.464514 0.231535 0.817352 5658198 3
-0.454456 0.233261 0.823444 4868423 3
-0.434623 0.229921 0.811655 5855575 3
-0.425017 0.231952 0.818822 6975337 3
-0.414552 0.233631 0.824750 4475205 3
-0.408279 0.237866 0.839700 5461846 3
-0.401478 0.242078 0.854570 5659227 3
-0.443784 0.240986 0.804106 4539715 3
-0.416309 0.240369 0.802047 5067339 3
-0.406133 0.242153 0.808001 5396305 3
-0.400355 0.246768 0.823402 4804170 3
-0.445353 0.255087 0.806950 3618613 3
-0.430025 0.253860 0.803069 5132106 3
-0.416840 0.253860 0.803069 4342589 3
-0.405349 0.254926 0.806440 4277054 3
-0.407711 0.284269 0.899264 3751232 3
-0.443211 0.267046 0.803069 5131852 3
0.614021 0.206469 0.882280 2894894 3
0.612356 0.201163 0.859608 5197649 3
0.617246 0.207434 0.828291 5921118 3
0.627324 0.206276 0.823666 5263442 3
0.634793 0.204327 0.815884 4605512 3
0.649037 0.204595 0.816951 3750203 3
0.656263 0.202684 0.809321 3289652 3
0.634793 0.217723 0.815884 3749949 3
0.651369 0.218792 0.819887 2697515 3
0.661607 0.217730 0.815911 1710620 3
0.607068 0.230764 0.814631 5197649 3
0.624651 0.232330 0.820157 6842220 3
0.641477 0.233553 0.824475 5197395 3
0.665561 0.237314 0.837751 5394774 3
0.630800 0.253684 0.846478 6974060 3
0.644698 0.253684 0.846478 6381669 3
0.658596 0.253684 0.846478 6908014 3
0.672269 0.253599 0.846193 6447465 3
0.654257 0.241807 0.806847 8026495 3
0.651744 0.270507 0.855729 6513255 3
0.665568 0.270415 0.855438 6513515 3
0.643281 0.255959 0.809707 6776941 3
0.641198 0.286121 0.860431 5987165 3
0.655325 0.286121 0.860431 5723993 3
0.640983 0.273953 0.823840 4868944 3
0.645685 0.289588 0.829883 4211014 3
-0.094108 0.202820 0.866687 5461848 3
-0.079739 0.202469 0.865185 5133135 3
-0.065603 0.202682 0.866096 5526612 3
-0.052193 0.205881 0.879766 5591894 3
-0.037748 0.205881 0.879766 8026744 3
-0.023125 0.204308 0.873046 8816773 3
-0.008763 0.203664 0.870295 9078921 3
-0.092950 0.214380 0.856023 6316387 3
-0.079301 0.215483 0.860431 5725272 3
-0.065219 0.215633 0.861028 7500400 3
-0.051812 0.218715 0.873333 6448225 3
-0.037829 0.220797 0.881648 6908776 3
-0.023255 0.219869 0.877941 7303021 3
-0.008815 0.219250 0.875469 7829365 3
-0.035790 0.222592 0.834128 7434609 3
-0.021604 0.217652 0.815617 6645093 3
-0.008213 0.217652 0.815617 7236717 3
-0.381366 0.212216 0.906838 3092019 3
-0.372032 0.215433 0.920585 3684410 3
-0.335388 0.241054 0.903311 7038824 3
-0.329360 0.259689 0.973143 4933448 3
-0.301673 0.249986 0.936785 5196107 3
-0.305725 0.255885 0.903311 6184540 3
0.810301 0.157030 0.721652 2170918 1
0.814642 0.155596 0.715061 1447197 1
0.837860 0.157757 0.724993 920342 1
0.817135 0.170304 0.727738 1710366 1
0.818379 0.168105 0.718341 2565676 1
0.827567 0.167577 0.716086 2959925 1
0.892863 0.178266 0.761764 854547 1
0.405010 0.147513 0.677915 3881536 3
0.404792 0.158559 0.677552 3683646 3
0.411356 0.156820 0.670122 2631211 3
0.408949 0.166841 0.666200 3618106 3
0.418330 0.166222 0.663729 3157553 3
0.430600 0.166754 0.665851 2499621 3
0.438542 0.165624 0.661341 2696484 3
0.401426 0.179305 0.671917 8223616 3
0.410805 0.178586 0.669224 6315619 3
0.430735 0.182372 0.683412 6973547 3
0.443209 0.182889 0.685349 6249822 3
0.445219 0.179170 0.671411 6381662 3
0.449001 0.176326 0.660753 6249824 3
0.475237 0.182226 0.682863 5723740 3
0.406661 0.192819 0.680678 8092030 3
0.416140 0.192036 0.677915 7302512 3
0.437809 0.196773 0.694635 7105646 3
0.449498 0.196897 0.695073 7434611 3
0.448811 0.191728 0.676827 6184542 3
0.455982 0.190085 0.671027 6513509 3
0.467246 0.190185 0.671380 5000017 3
0.469479 0.197510 0.659040 4934224 3
0.392955 0.151447 0.695993 5065810 3
0.399062 0.149454 0.686835 5986912 3
0.368895 0.162345 0.693728 2367784 3
0.378166 0.161440 0.689861 2762542 3
0.389280 0.161352 0.689484 2565163 3
0.397104 0.159943 0.683466 4078402 3
0.337317 0.175080 0.699100 7302512 3
0.358009 0.173980 0.694706 7171185 3
0.357874 0.168544 0.673002 8026494 3
0.369620 0.168862 0.674271 3618363 3
0.382645 0.169729 0.677733 4341574 3
0.391972 0.168953 0.674633 5196883 3
0.399711 0.167554 0.669046 4341574 3
0.310568 0.184309 0.690668 7632249 3
0.310874 0.177991 0.666995 7302771 3
0.317474 0.175585 0.657977 6842220 3
0.330190 0.176608 0.661810 7039599 3
0.342955 0.177591 0.665494 7171185 3
0.354446 0.177874 0.666554 8158080 3
0.369128 0.179693 0.673373 9737112 3
0.383892 0.181446 0.679942 7170928 3
0.395273 0.181546 0.680315 7894396 3
0.337682 0.179888 0.635030 6184544 3
0.372835 0.192665 0.680135 6579302 3
0.378463 0.189886 0.670325 7434100 3
0.398845 0.194457 0.686462 7894651 3
0.209877 0.207778 0.954868 6513509 3
0.225555 0.207778 0.954868 6974058 3
0.244211 0.210343 0.966657 5527641 3
0.260083 0.210343 0.966657 5658457 3
0.275954 0.210343 0.966657 4605512 3
0.291826 0.210343 0.966657 4934477 3
0.207348 0.220764 0.943364 7960694 3
0.222838 0.220764 0.943364 6710625 3
0.238327 0.220764 0.943364 6119008 3
0.253816 0.220764 0.943364 7303282 3
0.269305 0.220764 0.943364 7566197 3
0.284794 0.220764 0.943364 7040364 3
0.205651 0.234319 0.935643 6118488 3
0.220185 0.233440 0.932133 7959922 3
0.231724 0.229708 0.917230 8749956 3
0.244962 0.228012 0.910456 7828858 3
0.257857 0.226210 0.903261 7434357 3
-0.140167 0.215668 0.991129 3750714 3
-0.116519 0.202831 0.932133 4276806 3
-0.116997 0.219031 0.935960 5263701 3
-0.186625 0.245112 0.978740 4276804 3
-0.173561 0.249433 0.995994 4080193 3
-0.258884 0.206519 0.949081 3223344 3
-0.281943 0.215894 0.922554 4734784 3
-0.272814 0.220764 0.943364 4603198 3
-0.258578 0.221839 0.947958 4604483 3
-0.297851 0.231633 0.924915 4143419 3
-0.283505 0.232321 0.927665 5854037 3
-0.273950 0.237237 0.947295 5788755 3
-0.258884 0.237685 0.949081 4868423 3
-0.243394 0.237775 0.949443 6118749 3
-0.229020 0.239044 0.954507 5395026 3
-0.212381 0.237960 0.950180 4737098 3
-0.201913 0.244167 0.974964 4802891 3
-0.261369 0.255699 0.958191 5987161 3
-0.242294 0.252219 0.945151 4934475 3
-0.226262 0.251648 0.943011 3618615 3
-0.205406 0.245234 0.918974 4210754 3
-0.257325 0.267231 0.943364 6184283 3
-0.299114 0.293322 0.978740 4671303 3
0.591670 0.135795 0.674993 1973026 1
0.590773 0.149454 0.686835 3881278 1
0.591670 0.146878 0.674993 3223348 1
0.594914 0.158826 0.678694 3749949 3
0.594070 0.172969 0.690668 4210241 3
0.594070 0.184309 0.690668 2170658 3
0.368580 0.153680 0.763895 5723740 3
0.346150 0.173855 0.798972 3750462 3
0.357444 0.172973 0.794916 2434602 3
0.354309 0.165416 0.760186 2631468 3
0.354737 0.159979 0.735204 3618106 3
0.365094 0.159232 0.731768 4735817 3
0.370189 0.156310 0.718341 4276293 3
0.375101 0.153494 0.705398 5921119 3
0.384949 0.152805 0.702235 4736845 3
0.332837 0.186865 0.798506 6908267 3
0.342653 0.185085 0.790901 5395285 3
0.354270 0.184372 0.787856 5132113 3
0.343481 0.172460 0.736954 4210241 3
0.350318 0.169908 0.726047 4998987 3
0.360464 0.169075 0.722489 2827820 3
0.366530 0.166443 0.711240 3552570 3
0.341390 0.197341 0.787986 6711147 3
0.335195 0.186685 0.745436 4474185 3
0.338625 0.181951 0.726536 7434098 3
0.349870 0.175620 0.701255 7565686 3
0.312160 0.192275 0.720519 7500663 3
0.074696 0.208639 1.037076 5788757 3
0.091121 0.207266 1.030253 5525331 3
0.073720 0.222716 1.023519 5920859 3
0.089937 0.221270 1.016873 5328722 3
0.089357 0.236431 1.010312 5395026 3
-0.244771 0.220311 1.095094 4538953 3
-0.253875 0.230241 1.058097 4604999 3
-0.238111 0.231807 1.065295 4736844 3
-0.261851 0.239036 1.021442 5723478 3
-0.245679 0.239620 1.023940 4868169 3
-0.234896 0.245932 1.050911 4145218 3
-0.299166 0.276059 1.034488 5263181 3
-0.291816 0.285844 1.009071 4868423 3
-0.474330 0.246128 1.223425 2435117 3
-0.474330 0.266216 1.223425 4013121 3
-0.476582 0.279308 1.283594 3157812 3
-0.400234 0.270441 1.242845 4735558 3
-0.465611 0.281040 1.200936 2697004 3
-0.454242 0.286303 1.223425 3880506 3
-0.448835 0.295983 1.264791 3617334 3
-0.497096 0.212868 1.058097 2499885 3
-0.479723 0.212868 1.058097 2500144 3
-0.462350 0.212868 1.058097 3421244 3
-0.473327 0.227171 1.043989 3749952 3
-0.462350 0.230241 1.058097 3026229 3
0.789410 0.128023 0.692913 1446945 1
0.748653 0.138177 0.686835 1578781 1
0.766656 0.139400 0.692913 1381661 1
0.778033 0.139400 0.692913 1052439 1
0.743902 0.150777 0.692913 3025969 1
0.762022 0.152123 0.699100 1907746 1
0.712229 0.132721 0.718341 1972512 1
0.708976 0.143856 0.715061 1775902 1
0.720717 0.143856 0.715061 2565418 1
0.708976 0.155596 0.715061 3157812 1
0.717441 0.154889 0.711811 4276293 3
0.745723 0.153494 0.705398 2894383 1
0.784001 0.154188 0.708590 1776160 1
0.702560 0.165823 0.708590 3486778 3
0.711983 0.165309 0.706396 5066323 3
0.631531 0.146869 0.794916 2761774 1
0.682379 0.131515 0.711811 1447194 1
0.694067 0.131515 0.711811 1184022 1
0.621634 0.160737 0.798972 2301223 1
0.628341 0.159113 0.790901 2104614 1
0.641327 0.159113 0.790901 2828335 1
0.641411 0.150021 0.745707 2499370 1
0.679292 0.142554 0.708590 2302503 1
0.690926 0.142554 0.708590 1776159 1
0.618479 0.172973 0.794916 3091507 3
0.625184 0.171234 0.786927 3025969 1
0.682379 0.154889 0.711811 2697002 1
0.690926 0.154188 0.708590 4144450 1
0.672491 0.164163 0.701497 4802378 3
0.688008 0.165122 0.705598 5262931 3
0.616177 0.182896 0.730310 3486518 3
0.616177 0.194887 0.730310 3420725 3
0.169027 0.183122 0.991129 3157812 1
0.182984 0.180833 0.978740 2697774 1
0.199054 0.180833 0.978740 2631469 1
0.152754 0.199395 0.991129 4802891 3
0.166914 0.196903 0.978740 4605258 3
0.182984 0.196903 0.978740 3750463 3
0.196597 0.194472 0.966657 3749950 3
-0.098860 0.168216 0.910456 3289912 1
-0.055631 0.173253 0.937715 2103836 1
-0.039525 0.170195 0.921167 2104612 1
-0.009168 0.168216 0.910456 2368039 1
-0.084402 0.184236 0.915780 1381402 3
-0.069774 0.185320 0.921167 1643546 3
-0.054649 0.185320 0.921167 2498596 3
-0.039294 0.184236 0.915780 2169890 3
-0.023977 0.182106 0.905193 3157555 3
-0.009221 0.184236 0.915780 3485748 3
-0.083912 0.198114 0.910456 4145218 3
-0.039294 0.199273 0.915780 8157819 3
-0.023977 0.196969 0.905193 8486784 3
-0.009115 0.196969 0.905193 8354430 3
-0.446428 0.212744 1.151459 2237993 3
-0.463779 0.221862 1.102806 2829361 3
-0.458590 0.228293 1.134771 3026739 3
-0.463779 0.239969 1.102806 4539466 3
-0.458590 0.246925 1.134771 3355191 3
-0.725170 0.200925 1.087489 1776159 3
-0.743025 0.218781 1.087489 1710367 3
-0.722944 0.230241 1.058097 1776159 3
-0.705571 0.230241 1.058097 2170917 3
-0.740317 0.247614 1.058097 2696234 3
-0.722944 0.247614 1.058097 1841952 3
-0.740317 0.264986 1.058097 1906716 3
-0.722944 0.264986 1.058097 2434343 3
-0.711473 0.271358 1.016873 1511958 3
-1.036176 0.209661 1.134771 1446937 1
-1.017545 0.209661 1.134771 1512475 1
-1.013603 0.212744 1.151459 986133 1
-1.005360 0.219191 1.186352 1118230 1
-1.032508 0.231650 1.151459 1907233 3
-1.024839 0.238670 1.186352 1709856 3
0.635758 0.117688 0.699100 2499631 1
0.647237 0.117688 0.699100 2039334 1
0.612801 0.129166 0.699100 2367784 1
0.624280 0.129166 0.699100 2696753 1
0.630132 0.128023 0.692913 2697264 1
0.633105 0.126346 0.683836 1512736 1
0.655788 0.128592 0.695993 1710369 1
0.605362 0.136383 0.677915 1578270 1
0.621877 0.137574 0.683836 920853 1
0.635882 0.138177 0.686835 1446943 1
0.658715 0.140645 0.699100 2434090 1
0.605362 0.147513 0.677915 3354679 1
0.621877 0.148802 0.683836 3486265 1
0.633105 0.148802 0.683836 2894128 1
0.658715 0.152123 0.699100 2894383 1
0.610023 0.159866 0.683135 2959921 3
0.628405 0.161710 0.691014 3420472 3
0.641509 0.162154 0.692913 3354934 3
0.652886 0.162154 0.692913 2828588 3
0.602050 0.172009 0.686835 5394515 3
0.620857 0.174120 0.695267 4999759 3
0.635758 0.175080 0.699100 4867918 3
0.639430 0.172969 0.690668 3025969 3
0.643290 0.170980 0.682729 3157555 3
0.653617 0.170750 0.681808 4276034 3
0.678643 0.174302 0.695993 5131343 3
0.687971 0.173772 0.693876 5263701 3
0.602050 0.183286 0.686835 3025967 3
0.620857 0.185536 0.695267 2039074 3
0.628090 0.184309 0.690668 2170405 3
0.628344 0.181113 0.678694 2894383 3
0.591016 0.157857 0.937715 2631209 1
0.599236 0.155988 0.926618 2170660 1
0.591016 0.173253 0.937715 1644573 1
0.599236 0.171203 0.926618 1644061 1
0.510768 0.199395 0.991129 4078914 3
0.591016 0.188649 0.937715 2697515 1
-0.286821 0.201237 1.195408 2631471 1
-0.295182 0.212744 1.151459 3289399 3
-0.270313 0.208153 1.126607 2630956 3
-0.251815 0.208153 1.126607 1907235 3
-0.264602 0.221862 1.102806 2960176 3
-0.308805 0.202785 1.204603 2566703 1
-0.379828 0.250035 1.242845 2499621 3
-0.359421 0.250035 1.242845 3355443 3
-0.339015 0.250035 1.242845 4078655 3
-0.318609 0.250035 1.242845 3354934 3
-0.373893 0.266216 1.223425 4077626 3
-0.353805 0.266216 1.223425 4012344 3
-0.308805 0.262120 1.204603 4012862 3
-0.467099 0.173434 1.030253 1907746 1
-0.405676 0.168987 1.003836 1447708 1
-0.404762 0.175747 1.043989 2501163 1
-0.479723 0.195495 1.058097 1512990 3
-0.450183 0.190350 1.030253 1973798 3
-0.433267 0.190350 1.030253 1907748 3
-0.421903 0.192888 1.043989 2895154 3
-0.644689 0.171182 1.016873 1052436 1
-0.644739 0.175747 1.043989 1184535 1
-0.679022 0.192888 1.043989 1776413 3
-0.644689 0.187878 1.016873 1249558 3
-0.619942 0.185469 1.003836 1775902 3
0.641162 0.133656 0.879766 2039080 1
0.641198 0.130719 0.860431 1512479 1
0.634585 0.137302 0.815617 1577754 1
0.641297 0.135887 0.807208 2629928 1
0.661368 0.137302 0.815617 2631211 1
0.641124 0.166283 0.899991 2499374 1
0.670678 0.166283 0.899991 2039334 1
0.670051 0.162546 0.879766 2170407 1
0.634585 0.150694 0.815617 2630188 1
0.651193 0.148376 0.803069 2367786 1
0.688152 0.150694 0.815617 1842466 1
0.623216 0.176002 0.874852 3288888 1
0.630535 0.174058 0.865185 2828850 1
0.637694 0.172155 0.855729 2697264 1
0.621194 0.164086 0.815617 1841442 1
0.674760 0.164086 0.815617 2960434 1
0.688152 0.164086 0.815617 3092533 1
0.626347 0.195837 0.899991 5329235 3
0.612943 0.187229 0.860431 4802637 3
0.613585 0.183202 0.841927 4210501 3
0.617450 0.180294 0.828563 2105125 3
0.617975 0.176558 0.811391 2368297 3
0.651193 0.174747 0.803069 4210500 1
0.610134 0.195918 0.837191 4934223 3
0.618273 0.194157 0.829668 5328981 3
0.627732 0.192878 0.824202 2763054 3
0.641055 0.192815 0.823933 3486777 3
0.649037 0.191181 0.816951 4079168 3
0.656681 0.189516 0.809836 4013375 3
0.621293 0.145956 0.960726 2236198 1
0.625554 0.143318 0.943364 3092019 1
0.629664 0.140774 0.926618 2039072 1
0.644878 0.140774 0.926618 2761774 1
0.648579 0.138319 0.910456 986394 1
0.614450 0.155988 0.926618 2434343 1
0.625960 0.155071 0.921167 2697000 1
0.641085 0.155071 0.921167 2301477 1
0.648579 0.153268 0.910456 2499633 1
0.671334 0.155071 0.921167 2236461 1
0.682444 0.154164 0.915780 1052185 1
0.693425 0.153268 0.910456 1709854 1
0.610835 0.170195 0.921167 2302503 1
0.625960 0.170195 0.921167 1842204 1
0.637336 0.169200 0.915780 1183761 1
0.667408 0.169200 0.915780 1513249 1
0.602802 0.187526 0.932133 3091507 1
0.614450 0.186417 0.926618 3223605 1
0.625960 0.185320 0.921167 4737096 1
0.637336 0.184236 0.915780 2829099 1
0.304757 0.138319 0.910456 2170917 1
0.319706 0.138319 0.910456 2236964 1
0.346750 0.143318 0.943364 3289652 1
0.371184 0.146857 0.966657 3355192 1
0.396854 0.150575 0.991129 2960434 1
0.303945 0.160744 0.954868 1644061 1
0.315772 0.158807 0.943364 2434089 1
0.323467 0.155071 0.921167 2829101 1
0.338592 0.155071 0.921167 2171171 1
0.353716 0.155071 0.921167 1644573 1
0.382335 0.160744 0.954868 1841440 1
0.307697 0.178600 0.966657 3420985 1
0.315772 0.174297 0.943364 3881535 1
0.323467 0.170195 0.921167 2565675 1
0.338592 0.170195 0.921167 3157812 1
0.307697 0.194472 0.966657 4145220 3
0.306539 0.184236 0.915780 6316389 3
-0.287115 0.228758 1.505754 2500395 1
-0.262392 0.228758 1.505754 2565678 1
-0.287115 0.253481 1.505754 2697004 1
-0.262392 0.253481 1.505754 2762544 1
-0.237669 0.253481 1.505754 2894132 1
-0.287115 0.278204 1.505754 2434090 1
-0.433087 0.150575 0.991129 1315096 1
-0.411604 0.148693 0.978740 1841440 1
-0.400541 0.150575 0.991129 855571 1
-0.433087 0.166848 0.991129 1183512 1
-0.416814 0.166848 0.991129 2038821 1
0.456173 0.132623 0.978740 1841955 1
0.466413 0.130986 0.966657 2039080 1
0.413127 0.150575 0.991129 2368296 1
0.429401 0.150575 0.991129 2368807 1
0.445674 0.150575 0.991129 2566189 1
0.461948 0.150575 0.991129 1446943 1
0.478221 0.150575 0.991129 1841955 1
0.402927 0.162729 0.966657 2170917 1
0.424033 0.164763 0.978740 2237221 1
0.445674 0.166848 0.991129 2106152 1
0.461948 0.166848 0.991129 2894902 1
0.478221 0.166848 0.991129 1052696 1
0.418798 0.178600 0.966657 1447707 1
0.445674 0.183122 0.991129 1184536 1
0.461948 0.183122 0.991129 987673 1
0.478221 0.183122 0.991129 1907748 1
0.494494 0.183122 0.991129 2696749 1
0.424196 0.189786 0.943364 4737357 3
0.439685 0.189786 0.943364 4408393 3
0.494494 0.199395 0.991129 5328469 3
0.305497 0.117887 0.869991 1841695 1
0.337819 0.162546 0.879766 2631211 1
0.352264 0.162546 0.879766 1776159 1
0.366709 0.162546 0.879766 1249815 1
0.312440 0.179002 0.889764 3026226 3
0.323374 0.176991 0.879766 3223605 3
0.332220 0.174058 0.865185 3618106 3
0.346425 0.174058 0.865185 3881789 3
0.352833 0.170294 0.846478 4802637 3
0.360879 0.167577 0.832970 5132115 3
0.309465 0.183202 0.841927 6710888 3
0.323289 0.183202 0.841927 5328722 3
0.337113 0.183202 0.841927 7697783 3
0.341749 0.178406 0.819887 3552824 3
0.309362 0.196960 0.841646 6579559 3
0.320384 0.195256 0.834362 6315617 3
0.331779 0.193908 0.828606 5789784 3
0.235287 0.111682 0.824202 2170918 1
0.246228 0.110519 0.815617 1841442 1
0.259620 0.110519 0.815617 2038819 1
0.273011 0.110519 0.815617 1973281 1
0.283342 0.184192 0.846478 5330262 3
0.297240 0.184192 0.846478 6908524 3
0.297140 0.198024 0.846193 6777708 3
-0.368368 0.208036 1.535279 2104614 1
-0.336561 0.204035 1.505754 2565165 1
-0.311838 0.204035 1.505754 1645086 1
-0.336561 0.228758 1.505754 2499372 1
-0.311838 0.228758 1.505754 2565676 1
-0.317952 0.258451 1.535279 2302506 1
-0.317952 0.283659 1.535279 2630958 3
-0.966277 0.151569 1.118560 853781 1
-0.934560 0.149434 1.102806 2761523 1
-0.929546 0.151569 1.118560 1709088 1
-0.980281 0.172397 1.134771 2499120 1
-0.961649 0.172397 1.134771 1248537 1
-0.994697 0.193839 1.151459 1051674 1
-1.083275 0.160755 1.186352 1511447 1
-1.063797 0.160755 1.186352 2037792 1
-1.044318 0.160755 1.186352 787986 1
-1.067107 0.177544 1.168645 1577753 1
-1.047919 0.177544 1.168645 854031 1
-1.013603 0.174933 1.151459 1116951 1
-1.067107 0.196732 1.168645 985616 1
-1.032508 0.193839 1.151459 1051410 1
-1.013603 0.193839 1.151459 657170 1
-1.005360 0.199712 1.186352 854549 1
0.218489 0.139168 1.168645 2433581 1
0.230787 0.135134 1.134771 1841190 1
0.212156 0.153766 1.134771 2433579 1
0.227490 0.151569 1.118560 1710115 1
0.209125 0.169935 1.118560 1776160 1
0.005404 0.101350 0.851078 1249305 1
0.019170 0.100261 0.841927 2564648 1
0.032993 0.100261 0.841927 2564646 1
0.047326 0.101350 0.851078 2039332 1
0.061973 0.102464 0.860431 2172200 1
0.020259 0.149784 0.889764 2762542 1
-0.008664 0.102464 0.860431 1841953 1
-0.081083 0.148101 0.879766 3552570 1
-0.066638 0.148101 0.879766 3025967 1
-0.009062 0.151506 0.899991 1907488 1
-0.081083 0.162546 0.879766 2565678 1
-0.066638 0.162546 0.879766 2564648 1
-0.023839 0.166283 0.899991 1710367 1
-0.097166 0.180025 0.894848 2960947 1
-0.096068 0.192518 0.884737 4014404 3
0.217847 0.101755 0.991129 1907237 1
0.231194 0.100483 0.978740 1710367 1
0.250794 0.126307 0.932133 2105378 1
0.247264 0.148693 0.978740 2631468 1
0.260083 0.146857 0.966657 2829101 1
0.266099 0.141612 0.932133 3092020 1
0.281404 0.141612 0.932133 2762544 1
0.289808 0.138319 0.910456 3354679 1
0.201574 0.166848 0.991129 1841952 1
0.215124 0.164763 0.978740 2894643 1
0.231194 0.164763 0.978740 2104873 1
0.244211 0.162729 0.966657 1512988 1
0.260083 0.162729 0.966657 1710620 1
0.272589 0.160744 0.954868 1710367 1
0.288267 0.160744 0.954868 1315098 1
0.212468 0.178600 0.966657 2630958 1
0.231194 0.180833 0.978740 1775649 1
0.244211 0.178600 0.966657 2763055 1
0.263334 0.180833 0.978740 2697772 1
0.275954 0.178600 0.966657 2302757 1
0.291826 0.178600 0.966657 2170660 1
0.212468 0.194472 0.966657 3486778 3
0.228340 0.194472 0.966657 3684156 3
0.244211 0.194472 0.966657 3224118 3
0.263334 0.196903 0.978740 5263699 3
0.275954 0.194472 0.966657 4210754 3
0.295474 0.196903 0.978740 3749949 3
0.200531 0.110118 1.072592 1183514 1
0.206809 0.104398 1.016873 2235434 1
0.235752 0.145340 1.072592 2105127 1
0.253604 0.136023 1.003836 2565929 1
0.218141 0.162951 1.072592 2763055 1
0.223505 0.154486 1.016873 3157815 1
0.237122 0.152505 1.003836 1776162 1
0.199301 0.119980 1.168645 2236710 1
0.133751 0.131327 1.102806 2105124 1
0.160925 0.139168 1.168645 2170666 1
0.180113 0.139168 1.168645 2499883 1
0.199301 0.139168 1.168645 1776672 1
0.154028 0.151569 1.118560 2170920 1
0.177464 0.156027 1.151459 2237223 1
0.196370 0.156027 1.151459 2434602 1
0.118140 0.171157 1.126607 3486777 1
0.151858 0.167541 1.102806 2631211 1
0.172393 0.169935 1.118560 3092273 1
0.190759 0.169935 1.118560 3092532 1
0.116465 0.186965 1.110627 2763054 1
-0.021604 0.070344 0.815617 1249556 1
-0.008213 0.070344 0.815617 1775647 1
-0.036919 0.088337 0.860431 1512477 1
-0.022544 0.087376 0.851078 1578523 1
-0.008478 0.086437 0.841927 1709856 1
0.217847 0.069208 0.991129 1841953 1
0.228340 0.067499 0.966657 1316122 1
0.235489 0.065089 0.932133 1710626 1
0.201574 0.085482 0.991129 1314328 1
0.215124 0.084413 0.978740 2631471 1
0.228340 0.083371 0.966657 1645087 1
0.235489 0.095698 0.932133 1710620 1
-0.498524 0.113905 1.631234 1250329 1
-0.471740 0.113905 1.631234 1447195 1
-0.498524 0.140688 1.631234 1315611 1
-0.498524 0.167472 1.631234 920853 1
-0.471740 0.167472 1.631234 196876 1
-0.444957 0.167472 1.631234 1511961 1
-0.481777 0.198388 1.665941 1380891 1
-0.444957 0.194255 1.631234 2038819 1
0.433878 0.044966 0.841927 1379862 1
0.406928 0.056953 0.815617 1643034 1
0.406928 0.070344 0.815617 1905954 1
0.433878 0.072613 0.841927 1840926 1
0.406928 0.083736 0.815617 2432813 1
0.420319 0.083736 0.815617 2169637 1
0.401909 0.099194 0.832970 1249307 1
0.415586 0.099194 0.832970 1973030 1
0.424744 0.098150 0.824202 2038051 1
0.433711 0.097127 0.815617 1776160 1
0.246228 0.043561 0.815617 1183765 1
0.259620 0.043561 0.815617 1775898 1
0.273011 0.043561 0.815617 1709339 1
0.286403 0.043561 0.815617 1248535 1
0.299795 0.043561 0.815617 1511961 1
0.239394 0.062130 0.889764 1973026 1
0.232837 0.056953 0.815617 1380893 1
0.286403 0.056953 0.815617 985365 1
0.299795 0.056953 0.815617 1051156 1
0.224785 0.076739 0.889764 986643 1
0.219445 0.070344 0.815617 1249816 1
0.286403 0.070344 0.815617 985881 1
0.299795 0.070344 0.815617 1446684 1
0.286403 0.083736 0.815617 2170155 1
0.286403 0.097127 0.815617 1973026 1
0.313186 0.030169 0.815617 1512477 1
0.313186 0.043561 0.815617 1445914 1
0.313186 0.056953 0.815617 1314328 1
0.326578 0.056953 0.815617 1840672 1
0.319850 0.071841 0.832970 1841442 1
0.333526 0.071841 0.832970 1248535 1
0.306173 0.085517 0.832970 1775649 1
0.323289 0.086437 0.841927 2828335 1
0.388233 0.085517 0.832970 1973541 1
0.397678 0.084617 0.824202 1774883 1
0.072137 0.030169 0.815617 1051928 1
0.072896 0.044019 0.824202 1512477 1
0.059364 0.057552 0.824202 1973287 1
0.073672 0.058164 0.832970 1447195 1
0.093304 0.062130 0.889764 1052436 1
0.005179 0.070344 0.815617 1907235 1
0.045831 0.071085 0.824202 1380891 1
0.059995 0.071841 0.832970 1776673 1
0.075273 0.073403 0.851078 1842466 1
0.093304 0.076739 0.889764 2039331 1
0.005289 0.085517 0.832970 1051158 1
0.018766 0.084617 0.824202 2169890 1
0.032299 0.084617 0.824202 1183765 1
0.046319 0.085517 0.832970 2236711 1
0.061300 0.087376 0.851078 1711649 1
0.076101 0.088337 0.860431 1842465 1
0.005561 0.204949 0.875784 9145227 3
0.020338 0.209038 0.893259 7040364 3
0.035067 0.209410 0.894848 6185055 3
0.005624 0.221809 0.885690 6842985 3
0.005251 0.220666 0.826910 7829880 3
0.020055 0.249514 0.880819 5527125 3
0.047532 0.242140 0.854789 7106671 3
0.093837 0.253488 0.894848 5395028 3
0.031962 0.244435 0.815617 6842985 3
0.045354 0.244435 0.815617 7238259 3
0.060501 0.251742 0.839997 6251364 3
0.078884 0.267297 0.891900 6053215 3
0.018571 0.257827 0.815617 7829367 3
0.031962 0.257827 0.815617 6118751 3
0.045354 0.257827 0.815617 7303025 3
0.059605 0.261598 0.827547 7566197 3
0.074773 0.267248 0.845420 7171185 3
0.089071 0.268506 0.849399 7039599 3
0.099962 0.260541 0.824202 6776427 3
0.018571 0.271219 0.815617 6381921 3
0.031962 0.271219 0.815617 6908267 3
0.018571 0.284610 0.815617 8355713 3
0.031962 0.284610 0.815617 7631990 3
0.005179 0.298002 0.815617 9408661 3
0.018571 0.298002 0.815617 9211281 3
0.031962 0.298002 0.815617 9079182 3
0.052143 0.204046 0.937715 5066063 3
0.050863 0.214053 0.914687 5921629 3
0.070811 0.230071 0.983134 5855579 3
0.020581 0.226369 0.903896 7830648 3
0.035679 0.228012 0.910456 7041132 3
0.050927 0.229360 0.915840 6119776 3
0.068309 0.237512 0.948393 6053983 3
0.085496 0.242086 0.966657 5132367 3
0.020813 0.243937 0.914116 6580581 3
0.035744 0.243404 0.912120 6843753 3
0.050665 0.243139 0.911125 7369843 3
0.066372 0.245910 0.921508 6448741 3
0.081955 0.247273 0.926618 7435122 3
0.096387 0.245285 0.919167 7829367 3
0.035533 0.256858 0.906745 6712167 3
0.065576 0.257909 0.910456 7106671 3
0.080148 0.256701 0.906191 7106157 3
0.095405 0.272662 0.909802 6052958 3
0.118704 0.212973 0.978740 6118240 3
0.134774 0.212973 0.978740 6578789 3
0.148982 0.210343 0.966657 7171185 3
0.166914 0.212973 0.978740 6250083 3
0.180725 0.210343 0.966657 5000529 3
0.194199 0.207778 0.954868 5197908 3
0.120402 0.232317 0.992734 6512998 3
0.134722 0.228954 0.978360 5525848 3
0.149271 0.226654 0.968533 5723740 3
0.164854 0.226215 0.966657 7105392 3
0.179210 0.224318 0.958552 5855838 3
0.192591 0.221605 0.946959 6842474 3
0.101800 0.243120 0.970785 4605510 3
0.117466 0.242556 0.968533 6250337 3
0.131994 0.240057 0.958552 5986912 3
0.147165 0.239134 0.954868 5657949 3
0.161494 0.237153 0.946959 7171445 3
0.176370 0.236253 0.943364 5855838 3
0.191859 0.236253 0.943364 7105903 3
0.111068 0.244381 0.915780 7434868 3
0.126151 0.244471 0.916117 8092801 3
0.141971 0.245819 0.921167 7631737 3
0.158381 0.247831 0.928706 6447463 3
0.174017 0.248384 0.930779 6776427 3
0.185167 0.242960 0.910456 6053469 3
0.108036 0.207266 1.030253 6644584 3
0.124952 0.207266 1.030253 4868173 3
0.138230 0.201951 1.003836 4670790 3
0.107330 0.222716 1.023519 5920859 3
0.106897 0.238556 1.019392 7697268 3
0.606280 0.003533 0.851078 1709856 1
0.620254 0.003533 0.851078 789264 1
0.634228 0.003533 0.851078 1381401 1
0.607057 0.017135 0.832970 1710367 1
0.620734 0.017135 0.832970 1118230 1
0.085496 0.115114 0.966657 2105635 1
0.005748 0.167244 0.905193 2235683 1
0.020610 0.167244 0.905193 2827820 1
0.035887 0.169200 0.915780 2630441 1
0.052457 0.174297 0.943364 2762025 1
0.005781 0.183165 0.910456 3617336 3
0.020730 0.183165 0.910456 4933964 3
0.035887 0.184236 0.915780 3618104 3
0.052143 0.188649 0.937715 4802378 3
0.005748 0.196969 0.905193 7565682 3
0.020730 0.198114 0.910456 7434611 3
0.035887 0.199273 0.915780 7039853 3
0.130087 0.110118 1.072592 2038819 1
0.109477 0.124323 1.043989 2039331 1
0.108036 0.139603 1.030253 2170917 1
0.130087 0.145340 1.072592 2763054 1
0.130087 0.162951 1.072592 2697261 1
0.131894 0.183070 1.087489 2302503 1
0.145702 0.178122 1.058097 2828588 1
0.156721 0.171182 1.016873 2697515 1
0.173417 0.171182 1.016873 2434600 1
0.190113 0.171182 1.016873 1644573 1
0.110956 0.195495 1.058097 2827821 1
0.127468 0.194183 1.050996 3749692 1
0.143759 0.192888 1.043989 3223344 1
0.154712 0.185469 1.003836 3552822 1
0.089937 0.137790 1.016873 1710877 1
0.057289 0.173434 1.030253 2894379 1
0.076729 0.179334 1.065295 3025967 1
0.094220 0.179334 1.065295 3025967 1
0.076729 0.196825 1.065295 2959145 1
0.092955 0.194183 1.050996 3551543 1
-1.486580 -1.179559 1.720862 920338 1
-1.458325 -1.179559 1.720862 855060 1
-1.445960 -1.192666 1.739982 1447456 1
-1.486580 -1.151305 1.720862 1051924 1
-1.401815 -1.151305 1.720862 1184284 1
-1.414526 -1.110843 1.702157 1512736 1
-1.401815 -1.123050 1.720862 1776421 1
