# .PCD v0.7
VERSION 0.7
FIELDS x y z rgb label
SIZE 4 4 4 4 4
TYPE F F F U U
COUNT 1 1 1 1 1
WIDTH 1203
HEIGHT 1
VIEWPOINT 0 0 0 1 0 0 0
POINTS 1203
DATA ascii
-0.137736 0.209742 0.574054 5855836 3
-0.122902 0.200901 0.549857 5921370 3
-0.153168 0.228114 0.597487 7105646 3
-0.134170 0.213493 0.559192 6777192 3
-0.195676 0.219573 0.551403 6250846 3
-0.193275 0.227400 0.571059 7698294 3
-0.188707 0.233346 0.585990 8487810 3
-0.179918 0.234431 0.588716 5066574 3
-0.172039 0.236892 0.594895 6645093 3
-0.133980 0.222359 0.558400 8224638 3
-0.112890 0.201121 0.505065 7962234 3
-0.186622 0.228626 0.551403 7171948 3
-0.183899 0.236777 0.571059 7500915 3
-0.179085 0.242967 0.585990 6645606 3
-0.167730 0.250004 0.579994 8421502 3
-0.297539 0.216282 0.591954 3158066 3
-0.279165 0.209778 0.574154 3947839 3
-0.276333 0.214907 0.588191 4079427 3
-0.267921 0.215911 0.590937 5789532 3
-0.258341 0.216013 0.591218 7105644 3
-0.293172 0.222684 0.583264 3684667 3
-0.275875 0.216621 0.567386 3027507 3
-0.266559 0.216621 0.567386 7631990 3
-0.258534 0.217709 0.570233 5263442 3
-0.212555 0.228679 0.598969 5592914 3
-0.201814 0.227656 0.596289 6381921 3
-0.287171 0.227506 0.571326 3882046 3
-0.270532 0.221562 0.556397 5001295 3
-0.256576 0.217476 0.546138 6184542 3
-0.246524 0.216523 0.543745 6776679 3
-0.237597 0.216523 0.543745 4868682 3
-0.251127 0.237789 0.597148 7697781 3
-0.209576 0.224771 0.564457 6842983 3
-0.281648 0.232331 0.560338 6250848 3
-0.265543 0.226443 0.546138 4606537 3
-0.253046 0.223328 0.538624 7566193 3
-0.240888 0.220297 0.531313 8289916 3
-0.231175 0.219358 0.529049 7500400 3
-0.222489 0.219358 0.529049 7171689 3
-0.279001 0.239262 0.555072 5592918 3
-0.307893 0.216729 0.593176 4342338 3
-0.389190 0.202850 0.531313 4934988 3
-0.380198 0.202706 0.530938 4670792 3
-0.393246 0.214583 0.562046 4868684 3
-0.319159 0.227557 0.596028 4276032 3
-0.304734 0.224144 0.587089 1710620 3
-0.382270 0.217564 0.546359 5131856 3
-0.375922 0.219093 0.550198 4671303 3
-0.369485 0.220644 0.554091 4013886 3
-0.361182 0.221130 0.555314 4737094 3
-0.352064 0.221130 0.555314 5526610 3
-0.342946 0.221130 0.555314 4934475 3
-0.335468 0.222216 0.558041 3092273 3
-0.335358 0.228381 0.573521 4013373 3
-0.331311 0.232143 0.582970 5066061 3
-0.324153 0.233885 0.587343 3026478 3
-0.313627 0.233228 0.585695 4276545 3
-0.301753 0.231497 0.581347 3487031 3
-0.399338 0.221086 0.533216 2632231 3
-0.387458 0.219316 0.528949 2961196 3
-0.378771 0.219315 0.528945 3421236 3
-0.377008 0.223417 0.538839 5592405 3
-0.370712 0.224965 0.542573 4737609 3
-0.362585 0.225451 0.543745 2895405 3
-0.353657 0.225451 0.543745 3684406 3
-0.344730 0.225451 0.543745 4210750 3
-0.335802 0.225451 0.543745 2171169 3
-0.326874 0.225451 0.543745 2631722 3
-0.321025 0.227634 0.549010 4868682 3
-0.318021 0.232019 0.559585 5658198 3
-0.317218 0.238319 0.574778 3223857 3
-0.310574 0.240481 0.579994 3355443 3
-0.301051 0.240481 0.579994 3684410 3
-0.370712 0.233874 0.542573 4145472 3
-0.362585 0.234379 0.543745 3751228 3
-0.353657 0.234379 0.543745 5197645 3
-0.344730 0.234379 0.543745 4737094 3
-0.335802 0.234379 0.543745 4802889 3
-0.326874 0.234379 0.543745 3881789 3
-0.316439 0.233268 0.541166 4277058 3
-0.308353 0.233874 0.542573 6448227 3
-0.307512 0.240175 0.557191 3619128 3
-0.307781 0.247756 0.574778 5461332 3
-0.301051 0.250004 0.579994 5855577 3
0.167928 0.205269 0.588246 8289918 3
0.181133 0.209368 0.599994 7434607 3
0.190985 0.209368 0.599994 8618883 3
0.155440 0.211085 0.577729 8355198 3
0.169778 0.217295 0.594726 9013382 3
0.179150 0.216819 0.593423 8421245 3
0.179306 0.205814 0.563304 8618370 3
0.187629 0.204803 0.560537 8881544 3
0.108329 0.203359 0.532648 10197915 3
0.117074 0.203359 0.532648 9079434 3
0.127013 0.205287 0.537699 8750469 3
0.137073 0.207148 0.542573 9276813 3
0.146297 0.207596 0.543745 9144968 3
0.155971 0.208594 0.546359 8618624 3
0.166100 0.210059 0.550198 10855586 3
0.173842 0.208509 0.546138 9276554 3
0.182008 0.207596 0.543745 10132124 3
0.107597 0.210671 0.529049 9079434 3
0.116283 0.210671 0.529049 7763574 3
0.125554 0.211657 0.531523 8553090 3
0.135841 0.214116 0.537699 9079434 3
0.145981 0.216057 0.542573 8881542 3
0.155224 0.216523 0.543745 9605265 3
0.164152 0.216523 0.543745 8947335 3
0.173080 0.216523 0.543745 9802644 3
0.180293 0.214484 0.538624 8882057 3
0.187439 0.212558 0.533788 9408658 3
0.107100 0.218346 0.526608 8421763 3
0.115503 0.217886 0.525498 8816521 3
0.124131 0.217886 0.525498 8882314 3
0.132759 0.217886 0.525498 9079693 3
0.142044 0.218898 0.527939 8684163 3
0.153913 0.223547 0.539152 7828854 3
0.161102 0.221262 0.533641 7631475 3
0.171618 0.223547 0.539152 8486784 3
0.180293 0.223328 0.538624 8026748 3
0.187439 0.221323 0.533788 7829626 3
0.061713 0.205359 0.588504 7960953 3
0.070868 0.203900 0.584322 8487808 3
0.062502 0.217771 0.596028 8750980 3
0.070137 0.211291 0.578292 8750980 3
0.077165 0.204746 0.560380 8947848 3
0.069451 0.218627 0.572639 8948361 3
0.075716 0.209929 0.549857 9539987 3
0.083405 0.206611 0.541166 9079436 3
0.091657 0.205193 0.537452 8684676 3
0.099796 0.203794 0.533788 9342606 3
0.072645 0.238514 0.598969 8685189 3
0.077002 0.222675 0.559192 8684678 3
0.083013 0.214484 0.538624 7829369 3
0.090610 0.211573 0.531313 7763574 3
0.098910 0.210671 0.529049 9539985 3
0.083013 0.223328 0.538624 9211022 3
0.090610 0.220297 0.531313 7829367 3
0.098910 0.219358 0.529049 9145740 3
-0.052974 0.200569 0.574778 7631986 3
-0.044618 0.205552 0.589057 9079432 3
-0.077693 0.200723 0.549371 8487036 3
-0.069756 0.203891 0.558041 7434861 3
-0.061334 0.206380 0.564853 7895412 3
-0.053092 0.210473 0.576054 5921622 3
-0.044618 0.215223 0.589057 8092791 3
-0.083548 0.202088 0.529319 7828078 3
-0.077917 0.210349 0.550957 6906974 3
-0.071691 0.218964 0.573521 7171175 3
-0.062978 0.221435 0.579994 6842723 3
-0.054290 0.224895 0.589057 7369068 3
-0.446276 0.207936 0.595888 2829360 3
-0.455022 0.200057 0.547547 3487290 3
-0.446032 0.200057 0.547547 1251355 3
-0.445688 0.204015 0.558380 2633778 3
-0.458859 0.214455 0.586954 1975078 3
-0.457449 0.218383 0.597704 1711907 3
-0.427213 0.208420 0.570435 3684669 3
-0.402709 0.200869 0.549769 3487542 3
-0.463854 0.208976 0.547360 1842465 3
-0.451862 0.207596 0.543745 1513500 3
-0.442935 0.207596 0.543745 1909028 3
-0.436094 0.208594 0.546359 1711649 3
-0.432226 0.211086 0.552886 2237991 3
-0.425006 0.212012 0.555314 1843233 3
-0.409583 0.208798 0.546894 4211011 3
-0.403195 0.225299 0.590115 3552824 3
-0.451862 0.216523 0.543745 2895153 3
-0.442935 0.216523 0.543745 2632751 3
-0.434007 0.216523 0.543745 3948611 3
-0.425644 0.216811 0.544468 3290679 3
-0.424184 0.220703 0.554240 3948607 3
-0.403026 0.214291 0.538139 4211265 3
-0.451862 0.225451 0.543745 3882046 3
-0.442935 0.225451 0.543745 3817023 3
-0.434007 0.225451 0.543745 2830128 3
-0.425359 0.225599 0.544102 4080193 3
-0.419814 0.227435 0.548531 4014400 3
-0.452850 0.234891 0.544933 3816253 3
-0.442935 0.234379 0.543745 3093300 3
-0.434007 0.234379 0.543745 3882816 3
-0.423064 0.233268 0.541166 2501161 3
0.104797 0.186397 0.560537 9473679 3
0.113191 0.185072 0.556553 7828854 3
0.122056 0.184659 0.555314 7829626 3
0.135885 0.191291 0.575257 8816521 3
0.151554 0.199483 0.599893 8092026 3
0.101176 0.188840 0.541166 7829108 3
0.109306 0.187544 0.537452 7960440 3
0.119002 0.188928 0.541417 7829369 3
0.128441 0.189740 0.543745 7434611 3
0.139378 0.192516 0.551698 7170924 3
0.152408 0.197667 0.566460 7039340 3
0.100481 0.196369 0.537452 9605519 3
0.109071 0.195946 0.536296 10328988 3
0.117876 0.195946 0.536296 9539987 3
0.127891 0.197817 0.541417 9408401 3
0.137369 0.198668 0.543745 9275786 3
0.192230 0.182910 0.500617 9607059 3
0.182739 0.198684 0.520402 9342865 3
0.184867 0.192019 0.502946 9277326 3
0.071375 0.195696 0.588504 9803157 3
0.080462 0.194306 0.584322 9079436 3
0.090056 0.194306 0.584322 8948107 3
0.097186 0.189501 0.569872 8750982 3
0.078859 0.199837 0.572678 8816264 3
0.087013 0.197010 0.564579 9672084 3
0.093772 0.191873 0.549857 9606291 3
0.084360 0.199989 0.547360 9211533 3
0.092290 0.197726 0.541166 8882566 3
-0.051585 0.226465 0.681033 6053215 3
-0.038767 0.228026 0.653461 7895671 3
-0.038293 0.235831 0.645459 8158841 3
-0.029971 0.255212 0.698503 8816775 3
-0.046146 0.232598 0.609231 8422013 3
-0.038961 0.250730 0.656723 8225406 3
-0.029135 0.259245 0.679028 8488324 3
-0.061470 0.188250 0.566110 4342849 3
-0.053366 0.192546 0.579030 6053469 3
-0.069911 0.195161 0.559280 7566193 3
-0.061029 0.196126 0.562046 7631986 3
-0.092819 0.194613 0.532648 7104106 3
-0.084469 0.195530 0.535156 8156792 3
-0.098874 0.197972 0.518538 7105133 3
-0.090774 0.198879 0.520914 7564655 3
-0.305022 0.201794 0.606841 4868684 3
-0.386792 0.237494 0.680593 4276547 3
-0.361943 0.228848 0.655817 4342338 3
-0.338885 0.220839 0.632865 4078653 3
-0.319896 0.215059 0.616300 4408131 3
-0.307103 0.213202 0.610980 4473926 3
-0.394141 0.233182 0.638210 4276545 3
-0.380560 0.231297 0.633050 5329233 3
-0.367197 0.229442 0.627972 4934477 3
-0.352135 0.226387 0.619612 4473926 3
-0.338433 0.224051 0.613218 3289137 3
-0.325351 0.221995 0.607590 4012860 3
-0.397864 0.233545 0.611713 2895403 3
-0.383719 0.231075 0.605242 4868680 3
-0.371965 0.229952 0.602302 2960685 3
-0.364005 0.231178 0.605512 3158066 3
-0.354917 0.231735 0.606971 2894379 3
-0.343127 0.230509 0.603761 5394513 3
-0.332408 0.229952 0.602302 4276032 3
0.127704 0.198491 0.627913 8947848 3
0.134453 0.193370 0.611713 7500661 3
0.146880 0.196561 0.621806 6974317 3
0.159126 0.199109 0.629867 8223612 3
0.187025 0.195835 0.619511 8749956 3
0.193159 0.191825 0.606824 7434098 3
0.105808 0.217019 0.686525 7040110 3
0.127258 0.215170 0.680674 7763061 3
0.172789 0.203010 0.642209 8486786 3
0.184730 0.204557 0.647101 8223612 3
0.165076 0.204022 0.613542 8355713 3
0.175749 0.204720 0.615640 9079434 3
0.181874 0.200333 0.602447 8553090 3
0.192459 0.201058 0.604627 7895162 3
0.059386 0.212251 0.671442 7303282 3
0.049153 0.226933 0.682440 7895419 3
0.055081 0.207091 0.622771 7698040 3
0.063137 0.200211 0.602082 9276813 3
0.048468 0.234817 0.672922 7763576 3
0.053938 0.212808 0.609852 7895160 3
0.036934 0.242682 0.664208 8619144 3
0.045346 0.230028 0.629577 9408401 3
0.053936 0.222814 0.609830 8421504 3
0.036934 0.253587 0.664208 9671830 3
0.045850 0.243039 0.636579 10000023 3
0.055683 0.240365 0.629577 9671571 3
0.063291 0.230431 0.603556 8290431 3
-0.210895 0.218141 0.690075 5197649 3
-0.295774 0.202283 0.608312 5658457 3
-0.289646 0.205016 0.616529 4408392 3
-0.280353 0.205624 0.618358 5263701 3
-0.272420 0.207313 0.623438 3684921 3
-0.264484 0.209132 0.628909 4277056 3
-0.254095 0.209080 0.628752 4671816 3
-0.241532 0.207159 0.622976 3618876 3
-0.253799 0.227307 0.683565 5000529 3
-0.233756 0.229669 0.690668 5460821 3
-0.221182 0.228395 0.686835 5658200 3
-0.205013 0.223072 0.670828 6118749 3
-0.291941 0.209521 0.600430 4474183 3
-0.285019 0.211701 0.606679 3487290 3
-0.272354 0.209620 0.600715 4934223 3
-0.262366 0.209521 0.600430 5592405 3
-0.257580 0.213729 0.612492 7105642 3
-0.252133 0.217710 0.623898 6513507 3
-0.252459 0.227223 0.651161 5790043 3
-0.239483 0.225076 0.645008 5921629 3
-0.225902 0.222135 0.636579 5921883 3
-0.215450 0.222135 0.636579 5395026 3
-0.203861 0.220903 0.633050 3881789 3
-0.256897 0.223193 0.610868 4013371 3
-0.255183 0.230711 0.631445 3092271 3
-0.245313 0.231179 0.632727 4408644 3
-0.228825 0.225178 0.616300 5198674 3
-0.217078 0.223501 0.611713 5987674 3
-0.207034 0.223501 0.611713 5790295 3
-0.272440 0.238039 0.623484 6316130 3
-0.269093 0.244294 0.639867 6381921 3
-0.257193 0.242977 0.636418 7039851 3
-0.245502 0.241755 0.633215 6119262 3
-0.228248 0.234703 0.614747 6382432 3
-0.251133 0.247455 0.621422 5460817 3
-0.233400 0.239722 0.602003 6514020 3
-0.491531 0.212120 0.671027 2697000 3
-0.487893 0.215378 0.681332 3421236 3
-0.479049 0.217471 0.653986 4079166 3
-0.470673 0.218568 0.657285 3421236 3
-0.492105 0.219658 0.629482 2370090 3
-0.470740 0.214629 0.615070 2040614 3
-0.468467 0.223168 0.639540 2631720 3
-0.482435 0.235092 0.673711 3618615 3
-0.476378 0.237588 0.680863 2763054 3
-0.470859 0.240479 0.689147 4803148 3
-0.464891 0.243277 0.697167 3750714 3
-0.431745 0.243952 0.699100 5263440 3
-0.420267 0.243952 0.699100 4671303 3
-0.406301 0.242467 0.694847 5395285 3
-0.456036 0.243867 0.667452 3026737 3
-0.443658 0.243090 0.665325 4277826 3
-0.429088 0.241041 0.659719 2895403 3
-0.410099 0.236341 0.646853 3816505 3
-0.405947 0.232422 0.608772 3158577 3
-0.528598 0.218329 0.690668 3290163 3
-0.513834 0.216883 0.686095 1973792 3
-0.546264 0.232360 0.698759 3093298 3
-0.510480 0.221797 0.666995 3027507 3
-0.501537 0.222688 0.669675 2565929 3
-0.550679 0.240747 0.689917 3028020 3
0.487541 0.157821 0.526608 4605258 3
0.496288 0.157853 0.526714 4407620 3
0.489368 0.186988 0.591525 6776170 3
0.484338 0.181465 0.574051 6249824 3
0.486163 0.178671 0.565214 7170408 3
0.462301 0.166719 0.527405 6512478 3
0.465682 0.164851 0.521494 5394767 3
0.482005 0.167549 0.530028 5526099 3
0.483180 0.164978 0.521897 4934477 3
0.490207 0.164461 0.520261 6249822 3
0.476612 0.191573 0.576105 6184033 3
0.466260 0.183765 0.552625 6512996 3
0.481320 0.186080 0.559585 7170410 3
0.470698 0.178565 0.536985 7499373 3
0.465682 0.173413 0.521494 7829108 3
0.470059 0.198268 0.568184 3749692 3
0.447246 0.184975 0.530089 4473415 3
0.448361 0.181896 0.521266 6578789 3
0.454249 0.180833 0.518219 4210239 3
0.458488 0.179164 0.513437 3947578 3
0.465869 0.178762 0.512284 5329233 3
0.472149 0.177959 0.509983 4605510 3
0.451229 0.195403 0.534810 3420984 3
0.461049 0.195845 0.536017 4999759 3
0.458165 0.190974 0.522687 5855066 3
0.456989 0.186981 0.511760 4605510 3
0.462285 0.185733 0.508344 4868682 3
0.448378 0.195293 0.511521 5197908 3
0.451192 0.192906 0.505268 4934477 3
0.211053 0.209516 0.699100 6446687 3
0.220652 0.207746 0.693196 7697268 3
0.244932 0.220493 0.697515 8026748 3
0.202436 0.201106 0.604774 8355200 3
0.213137 0.201837 0.606971 8684678 3
0.200884 0.209419 0.600138 8684165 3
0.211498 0.210174 0.602302 9013643 3
0.139984 0.224393 0.748740 5460821 3
0.157369 0.231895 0.773775 4934477 3
0.162441 0.221488 0.739049 5790043 3
0.177208 0.224828 0.750193 7500661 3
0.185370 0.219899 0.733747 8026233 3
0.193273 0.215282 0.718341 6249308 3
0.122506 0.227077 0.718341 7303282 3
-0.198628 0.205840 0.686835 6447201 3
-0.188490 0.207093 0.691014 7105642 3
-0.190871 0.217939 0.624554 4671303 3
-0.179711 0.216846 0.621422 3552822 3
-0.169508 0.216846 0.621422 5592403 3
-0.158442 0.215672 0.618058 6250594 3
-0.147927 0.215138 0.616529 6316387 3
-0.146788 0.229164 0.656723 6184542 3
-0.195940 0.222310 0.608452 5461078 3
-0.185497 0.221769 0.606971 6185055 3
-0.175531 0.221769 0.606971 5921883 3
-0.165565 0.221769 0.606971 5790295 3
-0.153966 0.219441 0.600600 4276804 3
-0.193497 0.229403 0.600865 8619396 3
-0.185051 0.231178 0.605512 5461332 3
-0.175531 0.231735 0.606971 5197647 3
-0.165565 0.231735 0.606971 5197647 3
-0.164776 0.240547 0.604075 7631988 3
-0.153966 0.239164 0.600600 7895162 3
-0.677079 0.239447 0.798972 1973538 3
-0.622689 0.233801 0.780134 2236960 3
-0.606054 0.232334 0.775240 3421234 3
-0.605812 0.237224 0.791555 2171169 3
-0.693646 0.249092 0.787986 2039332 3
-0.683475 0.250105 0.791190 2170405 3
-0.670880 0.250253 0.791656 2039331 3
-0.662729 0.252096 0.797488 723984 3
-0.627254 0.243411 0.770014 2632233 3
-0.608626 0.241041 0.762516 1842715 3
-0.664580 0.260779 0.784222 2763054 3
-0.646253 0.258597 0.777662 2960946 3
-0.627254 0.256054 0.770014 3092530 3
-0.663538 0.273226 0.782992 2828847 3
-0.641911 0.269543 0.772437 3289911 3
-0.621146 0.266080 0.762516 3817025 3
0.004923 0.219606 0.775240 7171696 3
0.004923 0.232334 0.775240 6710634 3
0.017697 0.232933 0.777238 6908524 3
0.082678 0.236287 0.788430 6250335 3
0.096596 0.238691 0.796449 6316387 3
0.031193 0.251625 0.795997 6842220 3
0.043677 0.248295 0.785464 7040112 3
0.053524 0.234909 0.743118 7040110 3
0.030879 0.262030 0.787986 8026494 3
0.042668 0.255156 0.767313 6645354 3
0.018184 0.278681 0.798625 8092287 3
0.030781 0.274088 0.785464 7697529 3
0.042388 0.266001 0.762288 7105905 3
0.018060 0.289807 0.793187 9210768 3
0.029121 0.271513 0.743118 9342354 3
0.487115 0.206243 0.772865 6184033 3
0.441489 0.203734 0.719209 7170928 3
0.462702 0.207961 0.734130 7039599 3
0.475450 0.208265 0.735204 6973806 3
0.487521 0.208265 0.735204 6644841 3
0.442599 0.210455 0.702235 7236978 3
0.292536 0.212383 0.795870 6842733 3
0.231447 0.205972 0.727110 7237230 3
0.244236 0.206692 0.729651 7039851 3
0.262056 0.211402 0.746281 7171696 3
0.280464 0.216146 0.763026 5461080 3
0.294764 0.217453 0.767639 5658200 3
0.297493 0.210467 0.742978 7039853 3
0.201291 0.211318 0.705113 7959926 3
0.261312 0.223021 0.744163 7237489 3
0.282385 0.230240 0.768251 7500661 3
0.288028 0.224800 0.750099 6842472 3
0.281499 0.210695 0.703034 6579302 3
0.275102 0.236591 0.748438 7566456 3
0.274898 0.226307 0.715905 7238261 3
-0.007792 0.206498 0.773819 7106157 3
-0.059891 0.223983 0.790691 7566454 3
-0.047177 0.225262 0.795208 7434357 3
-0.034044 0.224757 0.793423 7303025 3
-0.020943 0.223972 0.790653 6512996 3
-0.007843 0.220640 0.778892 6776166 3
-0.072861 0.236926 0.790560 4737355 3
-0.058904 0.233061 0.777662 5592664 3
-0.045682 0.230769 0.770014 6513255 3
-0.033390 0.233220 0.778194 5526103 3
-0.020812 0.235469 0.785697 5723480 3
-0.007916 0.235618 0.786196 7828086 3
-0.070719 0.242558 0.767313 5987422 3
-0.057581 0.240305 0.760186 4605771 3
-0.045099 0.240305 0.760186 7237232 3
-0.033301 0.245339 0.776111 6447205 3
-0.020844 0.248758 0.786927 4998989 3
-0.007924 0.248758 0.786927 8025465 3
-0.044447 0.249129 0.749188 8289920 3
-0.033290 0.258000 0.775865 3289139 3
-0.021031 0.264023 0.793978 4670794 3
-0.031554 0.256618 0.735398 7566195 3
-0.020842 0.274572 0.786851 8947596 3
-0.020745 0.286149 0.783177 8948107 3
-0.196213 0.204251 0.765397 5000266 3
-0.167687 0.200201 0.750220 4277058 3
-0.186774 0.206388 0.728577 4737348 3
-0.175733 0.207476 0.732419 5197899 3
-0.165937 0.210301 0.742393 5527123 3
-0.158347 0.216593 0.764603 5461332 3
-0.151205 0.224632 0.792982 6513509 3
-0.183285 0.214271 0.714968 6974310 3
-0.174053 0.217403 0.725416 6776677 3
-0.164090 0.220014 0.734130 6711399 3
-0.162511 0.235172 0.784707 5724250 3
-0.198621 0.230179 0.728154 6645091 3
-0.185161 0.228323 0.722284 7895673 3
-0.171717 0.226236 0.715682 8092798 3
-0.162095 0.229246 0.725203 6710886 3
-0.196227 0.239215 0.719376 5526610 3
-0.184097 0.238803 0.718136 5724250 3
-0.171667 0.237918 0.715473 5658457 3
-0.288650 0.207462 0.777431 6184031 3
-0.256743 0.202433 0.758587 4998987 3
-0.247203 0.204849 0.767639 4931913 3
-0.277732 0.221700 0.782632 4144961 3
-0.259807 0.217453 0.767639 5854296 3
-0.245553 0.216001 0.762516 5853785 3
-0.216910 0.201056 0.709757 4735815 3
-0.263121 0.232991 0.777431 5789275 3
-0.242347 0.225538 0.752561 6052447 3
-0.215527 0.211354 0.705233 5723480 3
-0.274067 0.244136 0.772307 5328981 3
-0.253916 0.237158 0.750232 6249826 3
-0.227106 0.222933 0.705233 6118238 3
-0.213432 0.233300 0.738028 6842472 3
-0.249498 0.233794 0.703072 5592407 3
-0.203446 0.233935 0.703496 4802889 3
0.543125 0.200166 0.799266 3090992 3
0.501186 0.206813 0.775001 5460567 3
0.511855 0.205986 0.771900 5723482 3
0.533077 0.209343 0.784480 6249056 3
0.547660 0.209996 0.786927 5789275 3
0.565041 0.211667 0.793188 5658200 3
0.516512 0.215318 0.760103 6118238 3
0.527996 0.214913 0.758672 5197136 3
0.537841 0.213874 0.755005 5658711 3
0.581288 0.225943 0.797611 6710888 3
0.539075 0.221680 0.739688 6579302 3
-0.159494 0.209480 0.836457 3882046 3
-0.137489 0.218146 0.871063 6053215 3
-0.120358 0.213137 0.851062 5198160 3
-0.111939 0.224265 0.895495 5790043 3
-0.168036 0.216523 0.811384 5132113 3
-0.159045 0.222585 0.834102 4671562 3
-0.148308 0.227115 0.851078 6513766 3
-0.133341 0.225436 0.844787 5790043 3
-0.118196 0.223030 0.835769 6777192 3
-0.103370 0.220674 0.826942 6119262 3
-0.144675 0.235183 0.830230 6579302 3
-0.131476 0.235959 0.832970 5855579 3
-0.117800 0.235959 0.832970 6710886 3
-0.103370 0.234252 0.826942 7237743 3
-0.156145 0.245417 0.818892 6710888 3
-0.144675 0.248815 0.830230 6250337 3
-0.396923 0.219250 0.875469 3091762 3
-0.386462 0.221493 0.884426 3617083 3
-0.367155 0.218643 0.873046 6314085 3
-0.357079 0.221282 0.883585 4208707 3
-0.396642 0.233459 0.874852 5986654 3
-0.383755 0.234361 0.878231 5262676 3
-0.367028 0.232897 0.872746 4998736 3
-0.348204 0.229929 0.861623 3682617 3
-0.329269 0.226634 0.849275 6183263 3
-0.394439 0.246447 0.869991 4802889 3
-0.380154 0.246447 0.869991 5197138 3
-0.365744 0.246361 0.869691 4736332 3
-0.348204 0.244076 0.861623 5065552 3
-0.330532 0.241501 0.852532 6381410 3
-0.306943 0.234183 0.826699 5131856 3
-0.392260 0.259290 0.865185 5526612 3
-0.378185 0.259380 0.865485 4473926 3
-0.365870 0.260731 0.869991 5592153 3
-0.350011 0.259563 0.866096 5921372 3
-0.331772 0.256457 0.855729 6381412 3
-0.317722 0.256457 0.855729 5000016 3
-0.396570 0.257827 0.815617 4145218 3
-0.383178 0.257827 0.815617 4605771 3
-0.369786 0.257827 0.815617 4013632 3
-0.353869 0.256000 0.809836 3750714 3
-0.432940 0.215709 0.861332 2237223 3
-0.427165 0.220019 0.878541 2368807 3
-0.415360 0.221416 0.884119 2434854 3
-0.455830 0.214038 0.802072 3224370 3
-0.453253 0.219159 0.821264 3619124 3
-0.454202 0.226352 0.848219 4606023 3
-0.443419 0.227968 0.854276 4803151 3
-0.432201 0.229459 0.859863 4671564 3
-0.427014 0.234361 0.878231 3158577 3
-0.413171 0.234689 0.879459 6053469 3
-0.443791 0.227787 0.804120 5198156 3
-0.445638 0.235748 0.832226 6316639 3
-0.440275 0.240279 0.848219 6974319 3
-0.429690 0.242162 0.854867 3882046 3
-0.422425 0.246107 0.868793 5395539 3
-0.410864 0.247737 0.874548 5066320 3
-0.440104 0.246315 0.821890 5066572 3
-0.432233 0.249562 0.832725 5461078 3
-0.429541 0.256109 0.854570 5856090 3
-0.419948 0.258845 0.863699 4803400 3
-0.406465 0.259290 0.865185 4539976 3
-0.429984 0.261865 0.828392 4605510 3
-0.424504 0.266973 0.844549 4539719 3
-0.695917 0.209722 0.837425 1775132 3
-0.682167 0.209722 0.837425 2631211 3
-0.692215 0.222283 0.832970 1117972 3
-0.681262 0.223175 0.836314 2499625 3
-0.677033 0.226352 0.848219 3487031 3
-0.696150 0.237301 0.837706 1841693 3
-0.686066 0.238577 0.842211 2434343 3
-0.678168 0.240682 0.849641 2302755 3
-0.665341 0.241089 0.851078 2368548 3
-0.658790 0.243836 0.860776 2565927 3
-0.647958 0.245085 0.865185 2697515 3
-0.692421 0.240218 0.801546 1907233 3
-0.683386 0.246452 0.822346 2302757 3
-0.654978 0.240968 0.804048 2500134 3
-0.741516 0.207097 0.826942 1907488 3
-0.722915 0.205668 0.821236 2104867 3
-0.710829 0.206073 0.822854 2368296 3
-0.703805 0.207990 0.830509 2169890 3
-0.741516 0.220674 0.826942 1710366 3
-0.722915 0.219151 0.821236 1776159 3
-0.708266 0.218792 0.819887 1117972 3
-0.702427 0.221192 0.828882 1511960 3
-0.736223 0.232580 0.821040 1250329 3
-0.718204 0.231119 0.815884 2170918 3
-0.708266 0.232253 0.819887 1841440 3
-0.700328 0.234100 0.826406 1052179 3
-0.712880 0.242703 0.809836 1907746 3
0.581063 0.158090 0.675546 3092019 3
0.538431 0.159819 0.638163 3223606 3
0.531616 0.154785 0.618058 4407879 3
0.597843 0.170807 0.682036 4342086 3
0.525464 0.166196 0.622795 2762797 3
0.530300 0.164524 0.616529 1775902 3
0.595902 0.181414 0.679821 3618106 3
0.538594 0.188153 0.664208 5723482 3
0.512499 0.175484 0.619483 4736587 3
0.516114 0.173283 0.611713 5262931 3
0.529006 0.174221 0.615024 4077885 3
0.544947 0.176109 0.621690 3815483 3
0.537210 0.198548 0.662502 8222846 3
0.500613 0.181349 0.605116 7170158 3
0.522392 0.182014 0.607335 6380894 3
0.539104 0.184319 0.615024 5262413 3
0.550546 0.184770 0.616529 5986650 3
0.550264 0.181341 0.605088 5394515 3
0.640762 0.201219 0.859846 4999757 3
0.606878 0.208545 0.832725 3223859 3
0.634228 0.213141 0.851078 5921118 3
0.648202 0.213141 0.851078 5855068 3
0.661952 0.213069 0.850791 3749690 3
0.672495 0.211989 0.846478 3750199 3
0.691550 0.213582 0.852838 3618617 3
0.629740 0.225508 0.845056 2960433 3
0.647107 0.226731 0.849641 2631211 3
0.662176 0.227115 0.851078 3025967 3
0.676150 0.227115 0.851078 2960426 3
0.692716 0.227968 0.854276 2565416 3
0.626360 0.238098 0.840520 5263188 3
0.646024 0.240279 0.848219 6381412 3
0.625756 0.227829 0.804269 4736585 3
0.635973 0.250251 0.835021 6644584 3
0.256923 0.210614 0.899991 7631477 3
0.271700 0.210614 0.899991 7171439 3
0.286477 0.210614 0.899991 7106925 3
0.223830 0.221883 0.885984 8420991 3
0.227976 0.212201 0.847323 7631990 3
0.236925 0.207848 0.829940 7565684 3
0.254810 0.211379 0.844042 7434096 3
0.271925 0.213942 0.854276 7303021 3
0.287520 0.215116 0.858962 7369075 3
0.294446 0.209997 0.838522 6514538 3
0.202631 0.228915 0.857821 7630961 3
0.212700 0.224673 0.841927 7105133 3
0.225616 0.223773 0.838553 6907756 3
0.236925 0.221474 0.829940 7631477 3
0.250137 0.221107 0.828563 8355198 3
0.263741 0.221107 0.828563 6974056 3
0.277345 0.221107 0.828563 6250594 3
0.290853 0.221034 0.828291 6184803 3
0.202385 0.226930 0.801096 6841961 3
0.224040 0.235881 0.832695 6578789 3
0.235676 0.233862 0.825565 5920089 3
0.247076 0.231839 0.818425 6775652 3
0.005590 0.206027 0.880391 9013641 3
0.020252 0.208147 0.889450 6646374 3
0.034635 0.206828 0.883815 6580840 3
0.048464 0.203957 0.871545 5659225 3
0.005622 0.221729 0.885369 6777192 3
0.020375 0.224103 0.894848 7896441 3
0.034882 0.222918 0.890117 7304561 3
0.048464 0.218267 0.871545 6449254 3
0.005129 0.215542 0.807708 8027775 3
0.019714 0.231049 0.865820 6843499 3
0.034490 0.234863 0.880111 6909546 3
0.047896 0.229851 0.861332 7501942 3
0.063255 0.234361 0.878231 6250848 3
0.078113 0.235683 0.883184 7895160 3
0.092810 0.236181 0.885051 7566195 3
0.018347 0.228263 0.805800 6053469 3
0.033630 0.243097 0.858167 6053983 3
0.045990 0.234286 0.827064 7304052 3
0.062684 0.246533 0.870295 7369075 3
0.077349 0.247737 0.874548 7303023 3
0.091231 0.246447 0.869991 5723991 3
0.031633 0.241915 0.807208 6382434 3
0.044571 0.240218 0.801546 7238259 3
0.060127 0.250183 0.834795 5986911 3
0.071133 0.241034 0.804269 6052956 3
0.005122 0.254993 0.806651 7697272 3
0.018439 0.256000 0.809836 8026494 3
0.005179 0.271219 0.815617 5723482 3
0.018310 0.267413 0.804173 6579048 3
0.005179 0.284610 0.815617 7960444 3
-0.067878 0.209712 0.896137 5921883 3
-0.052768 0.208147 0.889450 5591892 3
-0.037962 0.207044 0.884737 8026233 3
-0.023255 0.205454 0.877941 8420993 3
-0.008812 0.204803 0.875159 8881544 3
-0.082947 0.225391 0.899991 5461078 3
-0.067638 0.223630 0.892960 7500661 3
-0.052768 0.222751 0.889450 6250337 3
-0.037948 0.221493 0.884426 7697781 3
-0.023214 0.219480 0.876387 7435122 3
-0.008846 0.220019 0.878541 8224638 3
-0.089495 0.219943 0.824202 7500915 3
-0.075962 0.219943 0.824202 6711145 3
-0.062886 0.221552 0.830230 6513766 3
-0.049417 0.222283 0.832970 6249824 3
-0.035717 0.222137 0.832422 8355713 3
-0.021757 0.219191 0.821383 6710886 3
-0.088226 0.230166 0.812519 7632501 3
-0.073874 0.227058 0.801546 7434868 3
-0.088226 0.243507 0.812519 5263953 3
-0.008160 0.269489 0.810415 6643812 3
-0.008160 0.282795 0.810415 8420993 3
-0.295544 0.178389 0.762288 3025967 3
-0.272416 0.171700 0.733707 3881276 3
-0.252497 0.166509 0.711522 4012860 3
-0.238742 0.165076 0.705398 3880760 3
-0.272416 0.183747 0.733707 4604997 3
-0.254061 0.179295 0.715930 4473411 3
-0.240912 0.178264 0.711811 5919830 3
-0.265344 0.199534 0.747724 6184031 3
-0.202504 0.198110 0.742388 5460817 3
0.701498 0.151447 0.695993 4210501 1
0.716108 0.152123 0.699100 3354681 1
0.701498 0.162875 0.695993 5394775 3
0.740117 0.158137 0.631445 985614 1
0.746357 0.157267 0.627972 1578005 1
0.745668 0.154981 0.618844 1184015 1
0.335868 0.168691 0.775240 3224116 3
0.345179 0.167037 0.767639 3683897 3
0.352598 0.164616 0.756514 2565676 3
0.375355 0.158491 0.728365 3749949 3
0.387314 0.158491 0.728365 5065558 3
0.332489 0.179595 0.767440 5856088 3
0.337873 0.175839 0.751391 5526101 3
0.346225 0.173838 0.742841 4276036 3
0.353597 0.171498 0.732842 4210754 3
0.362770 0.170157 0.727110 3223859 3
0.369787 0.167922 0.717561 3158325 3
0.372799 0.164062 0.701068 2170920 3
0.389818 0.166414 0.711118 2696751 3
0.327206 0.196592 0.784996 7171437 3
0.325758 0.188304 0.751904 6579300 3
0.329532 0.183531 0.732842 5000268 3
0.340965 0.183208 0.731556 7302512 3
0.347024 0.180119 0.719219 7500404 3
0.316975 0.195240 0.731633 6974058 3
0.316146 0.187619 0.703072 7237230 3
0.335301 0.207778 0.954868 7304054 3
0.350979 0.207778 0.954868 6315876 3
0.302451 0.211451 0.903567 7172979 3
0.327073 0.217972 0.931436 6251366 3
0.343912 0.218957 0.935643 6579302 3
0.357664 0.217975 0.931448 6184031 3
0.368841 0.215569 0.921167 6184544 3
0.102634 0.212973 0.978740 5656919 3
0.142811 0.201631 0.926618 7105905 3
0.157096 0.200445 0.921167 6579302 3
0.172220 0.200445 0.921167 5658198 3
0.189575 0.202831 0.932133 5197647 3
0.116894 0.225550 0.963814 6118240 3
0.126989 0.215811 0.922201 5921632 3
0.144468 0.219360 0.937366 6053217 3
0.157680 0.216371 0.924594 6447973 3
0.172284 0.215649 0.921508 5723991 3
0.189296 0.217814 0.930759 7368557 3
0.111722 0.230694 0.921167 5657946 3
0.127458 0.231806 0.925608 6513769 3
0.144468 0.234751 0.937366 6119011 3
0.157680 0.231552 0.924594 7105905 3
0.172220 0.230694 0.921167 5790045 3
0.187345 0.230694 0.921167 7040362 3
0.124293 0.240870 0.902622 7566457 3
0.141712 0.245370 0.919484 7500664 3
0.156407 0.244742 0.917131 6382182 3
0.170035 0.242700 0.909480 6974319 3
-0.122345 0.212973 0.978740 4079427 3
-0.103683 0.207778 0.954868 4211013 3
-0.138415 0.229043 0.978740 5001297 3
-0.121306 0.227098 0.970433 5724252 3
-0.103781 0.223669 0.955777 5132113 3
-0.166395 0.239134 0.954868 3816253 3
-0.284648 0.258149 1.186352 4605512 3
-0.265169 0.258149 1.186352 4079168 3
-0.206733 0.258149 1.186352 4012860 3
-0.287428 0.280338 1.197937 5197649 3
-0.254752 0.266721 1.139745 4671305 3
-0.236335 0.267056 1.141178 5460821 3
-0.219558 0.269462 1.151459 4670790 3
-0.200653 0.269462 1.151459 6579298 3
-0.746921 0.181253 0.832970 1052179 3
-0.741516 0.193519 0.826942 1052179 3
-0.730832 0.194289 0.830230 2565416 3
-0.714361 0.193519 0.826942 2631209 3
-0.703805 0.194354 0.830509 1775130 3
0.621877 0.137574 0.683836 1579040 1
0.652886 0.139400 0.692913 1842465 1
0.664263 0.139400 0.692913 2894894 1
0.678643 0.140020 0.695993 1512987 1
0.690070 0.140020 0.695993 1315608 1
0.698394 0.139400 0.692913 2434090 1
0.613328 0.149454 0.686835 2894900 1
0.621877 0.148802 0.683836 3026486 1
0.635882 0.149454 0.686835 2894902 1
0.647159 0.149454 0.686835 2828848 1
0.664263 0.150777 0.692913 2105124 1
0.681673 0.152123 0.699100 3617851 1
0.693151 0.152123 0.699100 3289398 1
0.608620 0.162486 0.694330 3618876 3
0.614743 0.161103 0.688420 2631982 3
0.619173 0.159334 0.680863 3093049 3
0.634154 0.160295 0.684969 2697010 3
0.647337 0.160776 0.687024 3815745 3
0.661337 0.161440 0.689861 4275781 3
0.676774 0.162426 0.694077 4341574 3
0.690070 0.162875 0.695993 3618363 3
0.623522 0.174868 0.698252 4276294 3
0.621877 0.171258 0.683836 5132116 3
0.633988 0.171497 0.684790 2302506 3
0.665044 0.173735 0.693728 3091507 3
0.672664 0.172766 0.689861 4998990 3
0.686262 0.173340 0.692152 5131090 3
0.622791 0.186114 0.697433 2763054 3
0.624605 0.183286 0.686835 3026227 3
0.636591 0.183490 0.687602 3881538 3
0.624106 0.197982 0.698906 3486518 3
0.630834 0.196503 0.693685 5131602 3
0.634848 0.194247 0.685719 4671052 3
0.207348 0.205275 0.943364 6645093 3
0.222838 0.205275 0.943364 6184542 3
0.232719 0.200445 0.921167 6316128 3
0.206960 0.220351 0.941599 8289659 3
0.221838 0.219773 0.939131 6842213 3
0.233585 0.216371 0.924594 5986904 3
0.243927 0.212162 0.906609 7368818 3
0.202470 0.230694 0.921167 6447453 3
0.217594 0.230694 0.921167 7565168 3
0.066348 0.200445 0.921167 4934734 3
0.084453 0.207778 0.954868 5657687 3
0.064964 0.211075 0.901960 6053215 3
0.080060 0.211831 0.905193 5460821 3
0.099353 0.221720 0.947450 6973547 3
0.064964 0.225884 0.901960 6514020 3
0.080060 0.226694 0.905193 5395026 3
0.095027 0.226944 0.906192 4605510 3
0.734141 0.130330 0.705398 1578783 1
0.730849 0.141275 0.702235 1315611 1
0.745723 0.153494 0.705398 2301991 1
0.790713 0.167242 0.714657 2434602 1
0.795635 0.165823 0.708590 1578781 1
0.005849 0.170195 0.921167 1840925 1
0.020974 0.170195 0.921167 2302246 1
0.035887 0.169200 0.915780 3223859 1
0.050628 0.168216 0.910456 2631720 1
0.070495 0.180833 0.978740 2500136 1
0.086564 0.180833 0.978740 2565418 1
0.005815 0.184236 0.915780 3156783 3
0.020851 0.184236 0.915780 5658200 3
0.035679 0.183165 0.910456 4276804 3
0.050335 0.182106 0.905193 4934475 3
0.066348 0.185320 0.921167 4539465 3
0.085496 0.194472 0.966657 5460310 3
0.005815 0.199273 0.915780 7895162 3
0.020730 0.198114 0.910456 6974571 3
0.035679 0.198114 0.910456 7040878 3
0.050335 0.196969 0.905193 5329746 3
-0.086945 0.174297 0.943364 2105124 1
-0.069774 0.170195 0.921167 2302503 1
-0.054014 0.168216 0.910456 1907488 1
-0.039294 0.169200 0.915780 1775132 1
-0.024257 0.169200 0.915780 1511960 1
-0.009275 0.170195 0.921167 1380374 1
-0.084899 0.185320 0.921167 2434089 3
-0.069366 0.184236 0.915780 2697515 3
-0.053702 0.182106 0.905193 2827818 3
-0.039065 0.183165 0.910456 2498853 3
-0.023977 0.182106 0.905193 3090992 3
-0.009221 0.184236 0.915780 3485750 3
-0.069366 0.199273 0.915780 4408390 3
-0.054014 0.198114 0.910456 7565682 3
-0.039065 0.198114 0.910456 8420993 3
-0.023977 0.196969 0.905193 8420993 3
-0.009221 0.199273 0.915780 8223616 3
-0.344483 0.233332 1.262890 3025967 1
-0.313630 0.226041 1.223425 2499882 1
-0.365218 0.254068 1.262890 3552570 3
-0.333718 0.246128 1.223425 3683381 3
-0.313630 0.246128 1.223425 2368296 3
-0.365218 0.274803 1.262890 3947582 3
-0.339015 0.270441 1.242845 4276032 3
-0.308805 0.262120 1.204603 4670792 3
0.605469 0.146456 0.869991 2235430 1
0.616329 0.145647 0.865185 2894130 1
0.620254 0.157246 0.851078 2301477 1
0.603845 0.166690 0.828563 2564648 1
0.617450 0.166690 0.828563 3156273 1
0.603845 0.180294 0.828563 4276034 3
0.637694 0.186206 0.855729 2696234 3
0.613402 0.196967 0.841677 4868684 3
0.648202 0.199167 0.851078 3551543 3
0.661952 0.199100 0.850791 4999757 3
0.672495 0.198091 0.846478 4013373 3
0.573713 0.145647 0.865185 2695981 1
0.587918 0.145647 0.865185 2103844 1
0.514061 0.150694 0.815617 855311 1
0.527452 0.150694 0.815617 2105378 1
0.564359 0.157246 0.851078 1907486 1
0.578333 0.157246 0.851078 1512730 1
0.595543 0.158105 0.855729 2499370 1
0.599761 0.155555 0.841927 2301477 1
0.514061 0.164086 0.815617 2894894 1
0.527452 0.164086 0.815617 2434343 1
0.555305 0.168473 0.837425 3881274 1
0.572114 0.169379 0.841927 4868173 1
0.585938 0.169379 0.841927 3091507 1
0.593381 0.167577 0.832970 2630441 1
0.527452 0.177477 0.815617 5723993 3
0.546537 0.179345 0.824202 4341825 3
0.572114 0.183202 0.841927 6381412 3
0.582804 0.182223 0.837425 5525848 3
0.590241 0.180294 0.828563 4539208 3
0.518510 0.187633 0.801788 3552824 3
0.535115 0.188847 0.806977 3222830 3
0.562107 0.193580 0.827200 4538438 3
0.576637 0.193898 0.828563 3552058 3
0.594581 0.195324 0.834655 5131602 3
0.503570 0.134500 0.798972 2697774 1
0.503570 0.173855 0.798972 6184290 3
0.508899 0.197075 0.786927 2828847 3
0.521984 0.197138 0.787175 3618104 3
0.583299 0.188150 0.705063 1841440 3
0.490451 0.134500 0.798972 1645086 1
0.464215 0.147619 0.798972 3158325 1
0.477333 0.147619 0.798972 3684667 1
0.490451 0.147619 0.798972 2697772 1
0.451096 0.160737 0.798972 3289399 1
0.464215 0.160737 0.798972 3092020 1
0.477333 0.160737 0.798972 3355704 1
0.490451 0.160737 0.798972 2631468 1
0.401139 0.159232 0.731768 5328730 3
0.433406 0.167037 0.767639 4605261 3
0.450426 0.168691 0.775240 5197398 3
0.467786 0.170378 0.782992 4670539 3
0.490451 0.173855 0.798972 4670794 3
0.421347 0.174643 0.746281 2828335 3
0.440353 0.177363 0.757902 5065297 3
0.460344 0.180319 0.770536 3222325 3
0.479306 0.182725 0.780815 2696749 3
0.498018 0.184912 0.790164 4539208 3
0.402178 0.178393 0.712328 4933711 3
0.422731 0.182211 0.727572 5525848 3
0.448856 0.188155 0.751306 4077634 3
0.476418 0.194367 0.776111 4078404 3
0.495978 0.197075 0.786927 2762542 3
0.408124 0.187448 0.702433 7762810 3
0.424063 0.189416 0.709807 7960191 3
0.446746 0.194211 0.727774 6315364 3
0.408009 0.198925 0.702235 7763065 3
0.419897 0.199095 0.702834 8420740 3
0.302103 0.159770 0.949081 1710877 1
0.323569 0.162729 0.966657 2631211 1
0.308342 0.170195 0.921167 3553083 1
0.304757 0.183165 0.910456 5527643 3
0.319706 0.183165 0.910456 2960947 3
0.334654 0.183165 0.910456 3553083 3
-0.293543 0.205953 1.223425 2171171 1
-0.273456 0.205953 1.223425 2433832 1
-0.253368 0.205953 1.223425 2433062 1
-0.244754 0.216082 1.283594 2894130 1
-0.293543 0.226041 1.223425 2302503 1
-0.273456 0.226041 1.223425 1381144 1
-0.253368 0.226041 1.223425 2104097 1
-0.236984 0.229629 1.242845 2104098 1
-0.216577 0.229629 1.242845 2959921 1
-0.289027 0.242342 1.204603 3223605 3
-0.273456 0.246128 1.223425 4868173 3
-0.253368 0.246128 1.223425 2959406 3
-0.233281 0.246128 1.223425 3485751 3
-0.213193 0.246128 1.223425 3157553 3
-0.249470 0.262120 1.204603 4736585 3
-0.233281 0.266216 1.223425 3815483 3
0.217847 0.150575 0.991129 2566189 1
0.232648 0.149628 0.984896 2303017 1
0.245728 0.147769 0.972661 2368810 1
0.258487 0.145956 0.960726 2367784 1
0.279404 0.148693 0.978740 2828848 1
0.293639 0.147769 0.972661 2039332 1
0.217847 0.166848 0.991129 2631981 1
0.232648 0.165799 0.984896 2105638 1
0.248819 0.165799 0.984896 1710367 1
0.260083 0.162729 0.966657 1183512 1
0.279404 0.164763 0.978740 2039332 1
0.291826 0.162729 0.966657 1776159 1
0.215124 0.180833 0.978740 1776672 1
0.228340 0.178600 0.966657 2237223 1
0.245728 0.179710 0.972661 2171430 1
0.258487 0.177504 0.960726 2236713 1
0.269305 0.174297 0.943364 2499625 1
0.284794 0.174297 0.943364 1710620 1
0.293218 0.170195 0.921167 3289909 1
0.209877 0.192100 0.954868 2894894 3
0.225555 0.192100 0.954868 4408133 3
0.242713 0.193279 0.960726 3158066 3
0.253816 0.189786 0.943364 4605259 3
0.259911 0.183165 0.910456 4144450 3
0.281404 0.187526 0.932133 4079166 3
0.291503 0.184236 0.915780 3488056 3
0.244962 0.198114 0.910456 5921118 3
0.274859 0.198114 0.910456 5000270 3
0.289808 0.198114 0.910456 4212033 3
0.185167 0.123370 0.910456 1710369 1
0.114414 0.143318 0.943364 2301991 1
0.184135 0.149628 0.984896 3157813 1
0.103934 0.166848 0.991129 3354679 1
0.118704 0.164763 0.978740 2696235 1
0.129903 0.158807 0.943364 2631211 1
0.141971 0.155071 0.921167 2631468 1
0.157096 0.155071 0.921167 2500395 1
0.182984 0.164763 0.978740 2236710 1
0.102634 0.180833 0.978740 3222579 1
0.118704 0.180833 0.978740 3288372 1
0.134774 0.180833 0.978740 2499625 1
0.146273 0.175353 0.949081 3289139 1
0.161856 0.175353 0.949081 3092273 1
0.177439 0.175353 0.949081 3092273 1
0.197818 0.179710 0.972661 2566188 1
0.102634 0.196903 0.978740 7038572 3
0.111068 0.184236 0.915780 5459541 3
0.126105 0.184236 0.915780 5262931 3
0.142811 0.186417 0.926618 4737098 3
0.158025 0.186417 0.926618 5066063 3
0.173239 0.186417 0.926618 4079168 3
0.191859 0.189786 0.943364 3947582 3
0.111068 0.199273 0.915780 6118240 3
0.126105 0.199273 0.915780 6052704 3
-0.591190 0.225741 1.665941 1711131 1
-0.591190 0.253094 1.665941 1513498 1
-0.563837 0.253094 1.665941 1447448 1
-0.536484 0.253094 1.665941 1776159 1
-0.509131 0.253094 1.665941 2434343 1
-0.591190 0.280447 1.665941 1842465 1
-0.552090 0.274605 1.631234 2499882 1
-0.525307 0.274605 1.631234 1644573 1
0.108337 0.238371 0.893259 7500663 3
0.181092 0.237614 0.890421 6185053 3
0.192157 0.233298 0.874247 7039592 3
0.105114 0.245510 0.866687 6382182 3
0.120053 0.246968 0.871831 7039599 3
0.130395 0.239667 0.846058 6513255 3
0.142055 0.235959 0.832970 6381669 3
0.153501 0.232580 0.821040 7500404 3
0.169557 0.236168 0.833705 6974058 3
0.179807 0.231735 0.818058 6908265 3
0.189338 0.227058 0.801546 6908265 3
0.111596 0.242876 0.810415 6315876 3
0.125704 0.244435 0.815617 5000016 3
0.139095 0.244435 0.815617 4079168 3
0.347077 0.174218 0.695656 7434868 3
0.347531 0.168888 0.674373 7698040 3
0.349804 0.164744 0.657826 7828603 3
0.369466 0.168792 0.673990 4275781 3
0.316265 0.181078 0.678560 7170926 3
0.322901 0.178586 0.669224 6513509 3
0.333453 0.178353 0.668349 7105646 3
0.336351 0.174171 0.652678 7500661 3
0.340323 0.170787 0.639996 8025982 3
0.366092 0.178216 0.667836 9933979 3
0.386216 0.182544 0.684057 6578536 3
0.302076 0.175672 0.586170 4933194 3
0.358087 0.175039 0.553722 4276806 3
0.371200 0.176956 0.559787 5197908 3
0.331477 0.179565 0.539995 5658459 3
0.336378 0.177473 0.533702 7105906 3
0.342350 0.176038 0.529387 7303284 3
0.347590 0.174307 0.524181 4737357 3
0.355475 0.173954 0.523120 4079425 3
0.320428 0.182150 0.521995 8225156 3
0.328999 0.182150 0.521995 6776941 3
0.337361 0.182038 0.521672 7237491 3
0.341098 0.179497 0.514392 6711147 3
0.347756 0.178579 0.511760 7040110 3
0.310218 0.184644 0.505361 7830655 3
0.320389 0.185730 0.508334 7566971 3
0.327737 0.185166 0.506791 6645354 3
0.319352 0.193448 0.506689 7106935 3
0.326680 0.192863 0.505156 7698557 3
0.287376 0.163165 0.575996 4868171 3
0.243228 0.168251 0.561411 7105646 3
0.253297 0.168819 0.563304 5329235 3
0.263914 0.169698 0.566239 5263442 3
0.274760 0.170660 0.569449 8749958 3
0.284174 0.170699 0.569579 8092028 3
0.273702 0.179317 0.567258 9539476 3
0.282058 0.178710 0.565337 9012362 3
0.299623 0.183791 0.581410 7105131 3
0.280036 0.186645 0.561285 8551812 3
0.295881 0.190922 0.574147 8684678 3
0.204608 0.186705 0.511002 8422531 3
0.229240 0.186267 0.509805 8092798 3
0.243292 0.190721 0.521995 8684678 3
0.251184 0.190207 0.520588 8486533 3
0.253852 0.185901 0.508803 9209488 3
0.258611 0.183353 0.501827 8618632 3
0.216758 0.191014 0.500314 8487810 3
0.225018 0.191053 0.500415 8882568 3
0.233935 0.191627 0.501918 9014154 3
0.210437 0.112871 0.832970 2631982 1
0.221755 0.111682 0.824202 2105124 1
0.232837 0.110519 0.815617 2039334 1
0.246228 0.110519 0.815617 2434092 1
0.259620 0.110519 0.815617 2105638 1
0.286477 0.136729 0.899991 4013634 1
0.256923 0.195837 0.899991 5131345 3
0.123930 0.121952 0.899991 1709858 1
0.134084 0.117887 0.869991 2630956 1
0.146738 0.116592 0.860431 2302503 1
0.160865 0.116592 0.860431 2894130 1
0.123930 0.136729 0.899991 1906719 1
0.134084 0.132171 0.869991 2894640 1
0.148368 0.132171 0.869991 3092532 1
-0.494757 0.210177 0.741954 3025197 3
-0.480440 0.209247 0.738672 3814452 3
-0.468312 0.209247 0.738672 2959404 3
-0.459170 0.210617 0.743508 2762797 3
-0.450169 0.212128 0.748842 2894640 3
-0.447642 0.216860 0.765547 2895405 3
-0.442261 0.220443 0.778196 5395535 3
-0.499980 0.219306 0.731768 2500136 3
-0.487965 0.219306 0.731768 2367267 3
-0.475950 0.219306 0.731768 3682866 3
-0.464071 0.219371 0.731983 4801862 3
-0.454042 0.220336 0.735204 3025969 3
-0.443668 0.221182 0.738028 4342340 3
-0.440655 0.225849 0.753598 3487542 3
-0.437766 0.230850 0.770286 5198158 3
-0.437058 0.237334 0.791920 4211265 3
-0.498911 0.225410 0.713068 4210754 3
-0.496934 0.229912 0.727311 5920861 3
-0.485695 0.230245 0.728365 5723480 3
-0.473736 0.230245 0.728365 5262411 3
-0.461912 0.230313 0.728577 5526353 3
-0.451920 0.231321 0.731768 3158064 3
-0.440034 0.231389 0.731983 3421236 3
-0.434383 0.234832 0.742873 3882300 3
-0.431399 0.239956 0.759084 4671816 3
-0.430251 0.246437 0.779586 4013884 3
-0.423672 0.250110 0.791204 5197645 3
-0.495712 0.235597 0.708496 3158066 3
-0.493930 0.240392 0.722914 5263188 3
-0.483447 0.241083 0.724993 5197134 3
-0.471543 0.241083 0.724993 4605251 3
-0.461244 0.241925 0.727524 4078907 3
-0.451920 0.243336 0.731768 3487029 3
-0.440034 0.243408 0.731983 4934475 3
-0.431293 0.245271 0.737588 4342851 3
-0.419077 0.245209 0.737401 4803402 3
-0.455755 0.244516 0.700718 4342336 3
-0.458613 0.252422 0.723374 3750199 3
-0.524720 0.212444 0.749957 3355445 3
-0.507088 0.210239 0.742173 3158066 3
-0.543762 0.217595 0.726057 2565927 3
-0.518717 0.212225 0.708140 3354932 3
-0.517238 0.216473 0.722313 3025965 3
-0.511995 0.219306 0.731768 2302755 3
-0.561454 0.227029 0.718190 2369059 3
-0.589313 0.245515 0.738320 2566954 3
0.105806 0.011209 2.699973 1315609 1
0.150137 0.011209 2.699973 855060 1
0.105806 0.055540 2.699973 1775647 1
0.150137 0.055540 2.699973 1183512 1
0.194468 0.055540 2.699973 1314846 1
0.105806 0.099871 2.699973 2169891 1
0.150137 0.099871 2.699973 1774879 1
0.194468 0.099871 2.699973 985367 1
-1.651837 -0.678909 2.205611 984852 1
-1.638704 -0.688607 2.237120 919572 1
-1.651837 -0.642695 2.205611 1708322 1
-1.662453 -0.661323 2.269542 1314330 1
-1.688051 -0.606481 2.205611 591123 1
-1.289479 -0.779830 2.087979 985363 1
-1.255196 -0.779830 2.087979 985365 1
-1.289479 -0.745548 2.087979 2103844 1
-1.255196 -0.745548 2.087979 1840674 1
-1.289479 -0.711265 2.087979 1511707 1
-1.255196 -0.711265 2.087979 1709858 1
-1.689108 -0.790369 2.116195 1381404 1
-1.689108 -0.755623 2.116195 1776419 1
-1.654362 -0.755623 2.116195 1381401 1
-1.664606 -0.740901 2.174978 854800 1
-1.664606 -0.705190 2.174978 1183510 1
-1.189202 -0.859751 2.033746 1117719 1
-1.186631 -0.882678 2.087979 525582 1
-1.152349 -0.882678 2.087979 854547 1
-1.118066 -0.882678 2.087979 1051158 1
-1.189202 -0.826359 2.033746 1511707 1
-1.186631 -0.848395 2.087979 1709854 1
-1.152349 -0.848395 2.087979 657679 1
-1.118066 -0.848395 2.087979 1051410 1
-1.222594 -0.859751 2.033746 1116949 1
-1.272512 -0.837232 2.060506 1840672 1
-1.238680 -0.837232 2.060506 1182744 1
-1.255196 -0.814113 2.087979 1116951 1
-1.220914 -0.814113 2.087979 655887 1
