# .PCD v0.7
VERSION 0.7
FIELDS x y z rgb label
SIZE 4 4 4 4 4
TYPE F F F U U
COUNT 1 1 1 1 1
WIDTH 1113
HEIGHT 1
VIEWPOINT 0 0 0 1 0 0 0
POINTS 1113
DATA ascii
-0.069604 0.203445 0.556818 7500913 3
-0.060728 0.204344 0.559280 8158843 3
-0.051801 0.205355 0.562046 6053465 3
-0.042602 0.205498 0.562439 8290427 3
-0.032680 0.201263 0.550847 7830648 3
-0.024523 0.208819 0.571527 8948361 3
-0.015180 0.209393 0.573098 9079436 3
-0.091573 0.200629 0.525498 7433067 3
-0.083721 0.202506 0.530413 7893872 3
-0.075682 0.204317 0.535156 6380633 3
-0.069013 0.210785 0.552098 7039590 3
-0.061029 0.214583 0.562046 7171948 3
-0.052175 0.216134 0.566110 6711397 3
-0.042901 0.216240 0.566387 8225406 3
-0.032713 0.210519 0.551403 8422783 3
-0.023838 0.212112 0.555575 8553601 3
-0.014814 0.213527 0.559280 7632501 3
-0.005943 0.235028 0.590215 8487299 3
-0.197764 0.213494 0.584322 5790297 3
-0.188170 0.213494 0.584322 5724250 3
-0.180436 0.215718 0.590409 5855838 3
-0.171542 0.216729 0.593176 6316128 3
-0.161803 0.216729 0.593176 6381921 3
-0.151277 0.215608 0.590110 4276547 3
-0.136398 0.207705 0.568479 5329492 3
-0.123205 0.201397 0.551214 6382180 3
-0.194965 0.219931 0.576054 7040364 3
-0.187734 0.222571 0.582970 8487558 3
-0.178576 0.223088 0.584322 5790043 3
-0.168982 0.223088 0.584322 5263440 3
-0.159388 0.223088 0.584322 5066061 3
-0.145380 0.216515 0.567106 7039853 3
-0.131010 0.208465 0.546021 7303025 3
-0.119569 0.204235 0.534944 8158334 3
-0.109292 0.201482 0.527732 5921629 3
-0.100201 0.200629 0.525498 6973545 3
-0.198279 0.212655 0.534031 6711397 3
-0.192132 0.215596 0.541417 5264721 3
-0.186722 0.219691 0.551698 8027259 3
-0.181501 0.224435 0.563613 8487556 3
-0.173400 0.225937 0.567386 6184801 3
-0.164084 0.225937 0.567386 6579300 3
-0.152504 0.222632 0.559086 8158332 3
-0.139657 0.216936 0.544782 7961212 3
-0.126595 0.210102 0.527620 7960955 3
-0.118311 0.210779 0.529319 8092541 3
-0.182100 0.223087 0.538042 7567476 3
-0.175944 0.226535 0.546359 7895673 3
-0.168968 0.229242 0.552886 7435122 3
-0.160592 0.230248 0.555314 7895160 3
-0.148602 0.225881 0.544782 7763574 3
-0.159891 0.238319 0.552886 8355711 3
-0.286246 0.205433 0.588716 3816507 3
-0.285174 0.214293 0.586511 4211011 3
-0.276973 0.215405 0.589554 4605769 3
-0.207358 0.213494 0.584322 5658457 3
-0.295797 0.217571 0.569872 1776924 3
-0.283139 0.215063 0.563304 3355443 3
-0.269912 0.211939 0.555122 2829101 3
-0.256576 0.208509 0.546138 7500404 3
-0.246524 0.207596 0.543745 5131602 3
-0.211631 0.217617 0.569993 5461332 3
-0.201347 0.216621 0.567386 5659225 3
-0.290848 0.223131 0.560338 3882300 3
-0.277157 0.219573 0.551403 4079679 3
-0.265543 0.217476 0.546138 5592407 3
-0.251868 0.213485 0.536115 6513509 3
-0.239265 0.210147 0.527732 6315877 3
-0.224498 0.204587 0.513768 5394774 3
-0.213820 0.202463 0.508436 7565684 3
-0.205472 0.202463 0.508436 5065548 3
-0.202618 0.208106 0.522607 6118490 3
-0.295178 0.235790 0.568680 3817021 3
-0.279667 0.230697 0.556397 5000781 3
-0.261834 0.223280 0.538509 5197906 3
-0.250239 0.220850 0.532648 7566197 3
-0.294506 0.244569 0.567386 5461846 3
-0.277021 0.237563 0.551132 5330260 3
-0.288240 0.248483 0.555314 5790811 3
-0.319604 0.208274 0.596857 4934988 3
-0.309212 0.207876 0.595716 4145218 3
-0.301226 0.209122 0.599289 4803148 3
-0.319604 0.218074 0.596857 3355956 3
-0.309212 0.217657 0.595716 4408390 3
-0.301157 0.218912 0.599151 3224116 3
-0.334192 0.218203 0.571527 2828586 3
-0.331524 0.222714 0.583344 5131854 3
-0.324910 0.224765 0.588716 4342849 3
-0.315097 0.224660 0.588441 4277056 3
-0.332467 0.208821 0.524403 5855577 3
-0.326041 0.210230 0.527939 4671303 3
-0.321035 0.212655 0.534031 3223857 3
-0.318114 0.216637 0.544031 3947580 3
-0.317336 0.222351 0.558380 3947580 3
-0.315600 0.227714 0.571846 3224368 3
-0.309860 0.230428 0.578661 3882298 3
-0.332467 0.217432 0.524403 4408644 3
-0.326041 0.218898 0.527939 3487288 3
-0.318040 0.219358 0.529049 3421495 3
-0.312267 0.221424 0.534031 5000268 3
-0.309181 0.225570 0.544031 5526612 3
-0.305136 0.229242 0.552886 3684919 3
-0.303327 0.234870 0.566460 4277056 3
-0.302189 0.236018 0.547547 3882298 3
-0.300503 0.241897 0.561186 4671814 3
0.105080 0.186898 0.562046 9407888 3
0.116897 0.191132 0.574778 7895162 3
0.181133 0.199517 0.599994 8882055 3
0.190985 0.199517 0.599994 7960953 3
0.100481 0.187544 0.537452 7895162 3
0.108561 0.186266 0.533788 7828858 3
0.118751 0.188530 0.540277 7960442 3
0.130964 0.193467 0.554425 7631477 3
0.100675 0.196748 0.538489 9474192 3
0.108444 0.194821 0.533216 10592164 3
0.118184 0.196459 0.537699 9539476 3
0.128164 0.198240 0.542573 9342095 3
-0.048604 0.175364 0.527362 5592407 3
-0.085825 0.189740 0.543745 10196888 3
-0.077642 0.191577 0.549010 7829367 3
-0.068927 0.192412 0.551403 7764087 3
-0.059873 0.192412 0.551403 6908776 3
-0.050786 0.192287 0.551043 7369327 3
-0.041330 0.190401 0.545639 8816260 3
-0.032467 0.190966 0.547257 8158845 3
-0.092819 0.194613 0.532648 7630961 3
-0.084469 0.195530 0.535156 7894131 3
-0.077312 0.199741 0.546682 8158073 3
-0.234638 0.230536 0.693274 5855577 3
-0.204344 0.211008 0.634550 6184283 3
-0.233112 0.229225 0.656897 6184544 3
-0.206440 0.212845 0.609958 5000781 3
-0.235677 0.231920 0.634755 6447716 3
-0.242119 0.238424 0.624492 6249822 3
-0.393394 0.260258 0.782656 4803148 3
-0.353506 0.259278 0.779708 4473924 3
-0.332466 0.262886 0.790560 4408133 3
-0.316427 0.260370 0.782992 5197649 3
-0.329283 0.273226 0.782992 6447716 3
-0.316427 0.273226 0.782992 6118751 3
-0.303571 0.273226 0.782992 6184031 3
-0.329283 0.286082 0.782992 4933966 3
-0.316427 0.286082 0.782992 3157555 3
-0.309470 0.270393 0.708227 6184033 3
-0.329283 0.298938 0.782992 5591894 3
-0.302195 0.285492 0.747776 6578019 3
0.161801 0.216527 0.684969 6908265 3
0.173519 0.217117 0.686835 7829365 3
0.187064 0.219783 0.695267 8289920 3
0.180991 0.200417 0.634005 7960442 3
0.132274 0.200118 0.601801 7829369 3
0.147701 0.207925 0.625279 8684676 3
0.159525 0.209976 0.631445 8487297 3
0.170842 0.211149 0.634975 8816264 3
0.175372 0.204282 0.614322 9013643 3
0.161665 0.209672 0.600865 7236719 3
0.171859 0.210073 0.602014 8092028 3
0.106249 0.196943 0.623015 7303025 3
0.114608 0.193781 0.613013 7697272 3
0.122850 0.190947 0.604047 8947850 3
0.135738 0.195220 0.617563 7434609 3
0.181830 0.190395 0.602302 8421504 3
0.091421 0.187510 0.593176 7171696 3
0.057915 0.183654 0.552290 9211022 3
0.086817 0.187316 0.563304 9014154 3
0.095594 0.186397 0.560537 8684678 3
0.047110 0.185868 0.532648 7631990 3
0.056251 0.187185 0.536423 8158334 3
0.084946 0.192328 0.551162 9605778 3
0.092493 0.189255 0.542355 10000536 3
0.046487 0.192042 0.525609 8421504 3
0.055679 0.193999 0.530966 8947848 3
0.066004 0.198839 0.544212 8618883 3
0.084168 0.199535 0.546117 8882053 3
0.092290 0.197726 0.541166 8421504 3
-0.198775 0.205605 0.650418 5723478 3
-0.185572 0.202846 0.641689 7236979 3
-0.190389 0.207159 0.622976 5657687 3
-0.181462 0.208657 0.627480 5000016 3
-0.156457 0.216837 0.652080 5395539 3
-0.194429 0.210683 0.603761 4408131 3
-0.184070 0.210174 0.602302 5131856 3
-0.176052 0.212431 0.608772 3552824 3
-0.166859 0.213458 0.611713 5460819 3
-0.155979 0.212320 0.608452 5987165 3
-0.144864 0.210683 0.603761 6382180 3
-0.134624 0.210174 0.602302 6119008 3
-0.126075 0.212431 0.608772 5263442 3
-0.497200 0.219487 0.694330 3421246 3
-0.497932 0.226044 0.679765 3289399 3
-0.485845 0.225614 0.678473 3158326 3
-0.496577 0.236559 0.677915 1841952 3
-0.486394 0.237021 0.679239 3816255 3
-0.492314 0.245564 0.672096 2500393 3
0.484285 0.159597 0.532535 4998987 3
0.491461 0.159090 0.530842 4539206 3
0.471249 0.176561 0.558538 5460057 3
0.481114 0.167239 0.529049 5526099 3
0.489801 0.167239 0.529049 5789271 3
0.498487 0.167239 0.529049 5658200 3
0.465295 0.187024 0.562426 6118240 3
0.465070 0.183296 0.551214 6907501 3
0.467984 0.174271 0.524072 7170926 3
0.481114 0.175926 0.529049 7828854 3
0.488667 0.175518 0.527824 5197647 3
0.457177 0.178652 0.511970 5262929 3
0.472847 0.181440 0.519957 5789271 3
0.410339 0.205840 0.686835 6184544 3
0.423368 0.206695 0.689689 5592664 3
0.471509 0.207950 0.693876 6250594 3
0.468184 0.201612 0.672728 6711145 3
0.484096 0.203660 0.679559 6251362 3
0.409779 0.216821 0.685898 5395028 3
-0.535330 0.205222 0.684773 2039074 3
-0.531401 0.208086 0.694330 2433832 3
-0.549999 0.213432 0.675176 1841953 3
-0.542717 0.214938 0.679942 1973539 3
-0.532273 0.215229 0.680863 3026226 3
-0.524237 0.216527 0.684969 2105125 3
-0.515946 0.217775 0.688915 2302506 3
-0.502293 0.216764 0.685719 1841701 3
-0.546759 0.223195 0.671199 2697262 3
-0.539795 0.224885 0.676281 2697261 3
-0.532273 0.226408 0.680863 3026480 3
-0.521380 0.226533 0.681236 2697261 3
-0.514247 0.228332 0.686648 2499885 3
-0.538913 0.235603 0.675176 2500136 3
-0.529969 0.236559 0.677915 2500134 3
-0.518838 0.236559 0.677915 3157812 3
-0.507707 0.236559 0.677915 2302504 3
-0.512186 0.244514 0.669224 2697772 3
-0.502677 0.245236 0.671199 3750460 3
0.448763 0.201696 0.712014 7434870 3
0.462424 0.202559 0.715061 6579561 3
0.472549 0.201869 0.712625 6842220 3
0.442599 0.210455 0.702235 7434870 3
0.454129 0.210455 0.702235 6711917 3
0.465400 0.210339 0.701845 7105905 3
0.306931 0.168715 0.595589 5789532 3
0.301984 0.175618 0.585990 4868430 3
0.314637 0.177326 0.591692 5986911 3
0.300858 0.184548 0.583806 7434098 3
0.313042 0.186093 0.588693 8026494 3
0.384093 0.187751 0.593936 5198676 3
0.371387 0.168691 0.533641 7105905 3
0.374277 0.166085 0.525399 7369075 3
0.309005 0.193235 0.581101 7565686 3
0.323802 0.175407 0.527491 6316387 3
0.346430 0.173725 0.522432 4539978 3
0.353386 0.172932 0.520046 4474185 3
0.358063 0.171086 0.514497 5132113 3
0.363233 0.169557 0.509896 6250594 3
0.369417 0.168558 0.506894 4079168 3
0.327974 0.181583 0.520369 6975087 3
0.337292 0.182001 0.521565 7172979 3
0.339154 0.178474 0.511459 7500663 3
0.344310 0.176809 0.506689 7369075 3
0.351563 0.176275 0.505156 5132113 3
0.358271 0.175498 0.502930 3158577 3
0.364987 0.174760 0.500816 5000268 3
0.334974 0.184569 0.505156 7566454 3
0.291736 0.165641 0.584736 5131854 3
0.233905 0.168176 0.561159 7434357 3
0.242359 0.167650 0.559405 7105135 3
0.252389 0.168214 0.561285 5197395 3
0.263741 0.169587 0.565869 5657947 3
0.276773 0.171910 0.573621 8224127 3
0.287047 0.172425 0.575337 8092541 3
0.216016 0.177832 0.562560 7304052 3
0.221032 0.174501 0.552020 8093570 3
0.233957 0.177429 0.561285 7434870 3
0.266379 0.180667 0.571527 8618632 3
0.275762 0.180667 0.571527 9473683 3
0.287316 0.182042 0.575877 8749960 3
0.200836 0.199517 0.599994 8158843 3
0.210134 0.198994 0.598420 8684678 3
0.216795 0.196131 0.589810 8684424 3
0.215105 0.186280 0.560188 8290947 3
0.218844 0.181747 0.546555 8225154 3
0.284822 0.189835 0.570878 8486788 3
0.297530 0.191987 0.577348 8881544 3
0.216301 0.196565 0.563304 8093566 3
0.262357 0.189740 0.543745 7631736 3
0.276614 0.193467 0.554425 6644584 3
0.289644 0.196126 0.562046 7959674 3
0.209247 0.199102 0.544933 9277840 3
0.211254 0.192769 0.527599 8422785 3
0.215386 0.188798 0.516731 9079947 3
0.223175 0.188212 0.515126 8618883 3
0.233757 0.189937 0.519848 8224384 3
0.243292 0.190721 0.521995 8750728 3
0.251288 0.190285 0.520802 8553349 3
0.255513 0.187117 0.512131 9144718 3
0.216758 0.191014 0.500314 8684674 3
0.225560 0.191513 0.501619 8684674 3
0.252135 0.192941 0.505361 8684167 3
0.279059 0.225119 0.794704 6975087 3
0.289615 0.223199 0.787923 5330262 3
0.283592 0.209211 0.738545 5395028 3
0.267440 0.239447 0.798972 7039849 3
0.274829 0.234557 0.782656 6842731 3
0.264158 0.215379 0.718665 7501433 3
0.005042 0.224914 0.793978 7434611 3
0.004972 0.234658 0.782992 6973806 3
0.018078 0.237950 0.793978 7105644 3
0.004972 0.247514 0.782992 7302771 3
0.017828 0.247514 0.782992 7631990 3
0.031336 0.252777 0.799641 6316130 3
0.004972 0.260370 0.782992 6118240 3
0.017828 0.260370 0.782992 6645095 3
0.031336 0.265906 0.799641 7171439 3
0.030069 0.267755 0.767313 8026748 3
-0.047379 0.226230 0.798625 6776681 3
-0.033702 0.222502 0.785464 8289920 3
-0.020599 0.220292 0.777662 6052958 3
-0.007860 0.221116 0.780569 6644841 3
-0.046282 0.233801 0.780134 6644582 3
-0.033263 0.232334 0.775240 5657687 3
-0.020535 0.232334 0.775240 5986654 3
-0.007860 0.233932 0.780569 7170928 3
-0.058721 0.245063 0.775240 4933966 3
-0.045378 0.241792 0.764891 7566197 3
-0.032837 0.241924 0.765310 6710888 3
-0.020333 0.242661 0.767639 4802380 3
-0.007836 0.245997 0.778194 7762296 3
-0.032867 0.254723 0.766011 3421238 3
-0.020676 0.259564 0.780569 4802380 3
-0.007884 0.260370 0.782992 6314850 3
0.644613 0.212138 0.794953 1578781 3
0.632794 0.204115 0.764891 2434090 3
0.602369 0.224042 0.790901 6447714 3
0.611125 0.222502 0.785464 5723739 3
0.608516 0.239447 0.798972 6184542 3
0.621634 0.239447 0.798972 7960701 3
0.182127 0.238973 0.895513 6447716 3
0.193104 0.234448 0.878558 6381408 3
0.123930 0.254945 0.899991 6447973 3
0.178051 0.247999 0.875471 6710886 3
0.182025 0.234595 0.828152 6974058 3
0.192725 0.231119 0.815884 7105131 3
-0.172425 0.205858 0.771421 4473926 3
-0.184184 0.217453 0.767639 5592154 3
-0.171580 0.217453 0.767639 5789786 3
-0.163544 0.223701 0.789695 5460819 3
-0.197132 0.216587 0.722696 7500404 3
-0.184999 0.216274 0.721652 6842472 3
-0.190066 0.237404 0.792155 6579048 3
-0.195944 0.227077 0.718341 7697783 3
-0.182999 0.225658 0.713852 8553090 3
-0.172833 0.227706 0.720330 8356224 3
-0.195944 0.238871 0.718341 5000268 3
-0.183994 0.238669 0.717732 6052956 3
-0.162882 0.242324 0.728725 6514020 3
-0.211101 0.234786 0.879823 4605259 3
-0.297279 0.248816 0.878357 5855575 3
-0.242593 0.251932 0.889357 5197647 3
-0.210790 0.232926 0.822262 4671303 3
-0.291475 0.258098 0.861206 5592403 3
-0.274941 0.269617 0.899641 4868169 3
-0.240030 0.248746 0.830000 5789532 3
-0.294031 0.261919 0.828563 5855066 3
-0.273541 0.255488 0.808219 6250335 3
-0.462178 0.210925 0.790407 2894381 3
-0.438988 0.206129 0.772437 1907486 3
-0.462178 0.223902 0.790407 3420723 3
-0.446297 0.222455 0.785298 5986650 3
-0.483332 0.212004 0.707402 2171430 3
-0.473320 0.212725 0.709807 2697004 3
-0.459922 0.229285 0.765065 4078653 3
-0.448181 0.229706 0.766469 4013373 3
-0.445782 0.235077 0.784392 5329233 3
-0.495252 0.223757 0.707839 4671565 3
-0.486344 0.225013 0.711811 6118498 3
-0.477651 0.226432 0.716301 4934223 3
-0.468043 0.227479 0.719612 4671305 3
-0.471519 0.235103 0.743731 4473924 3
-0.462189 0.236577 0.748395 3881274 3
-0.442101 0.232476 0.735421 4078907 3
-0.440576 0.238179 0.753463 4144957 3
-0.444606 0.247302 0.782322 3750199 3
-0.492570 0.234104 0.704006 2566189 3
-0.489411 0.238193 0.716301 5921118 3
-0.479011 0.238871 0.718341 5197395 3
-0.476308 0.243519 0.732319 3552824 3
-0.444055 0.245632 0.738672 4671044 3
-0.431927 0.245632 0.738672 4539715 3
-0.422547 0.247240 0.743508 4539715 3
-0.417047 0.251281 0.755662 4737094 3
-0.408498 0.253677 0.762867 4342338 3
-0.497052 0.260106 0.745395 3487031 3
-0.426428 0.254478 0.729267 4276286 3
0.553443 0.147100 0.587374 3157300 3
0.524907 0.137126 0.547547 3946816 3
0.514119 0.145607 0.545639 3288886 3
0.523078 0.145607 0.545639 4144195 3
0.535775 0.146630 0.549472 2236711 3
0.503955 0.154197 0.544337 3683899 3
0.512334 0.154029 0.543745 4868173 3
0.522511 0.154398 0.545047 2499370 3
0.534662 0.155328 0.548331 2960434 3
0.501347 0.159462 0.532083 4670792 3
0.511822 0.160006 0.533898 3947071 3
0.612829 0.201510 0.804634 5394513 3
0.628043 0.202155 0.807208 4802380 3
0.641091 0.202090 0.806950 3355192 3
0.600767 0.215133 0.806176 3223857 3
0.617975 0.216524 0.811391 3157551 3
0.631297 0.216524 0.811391 2960176 3
0.639870 0.214929 0.805413 2039331 3
0.621194 0.257827 0.815617 6250337 3
0.634585 0.257827 0.815617 6052958 3
0.405231 0.169868 0.678285 4539719 3
0.421631 0.172015 0.686860 3947582 3
0.407107 0.181842 0.681425 8487299 3
0.426793 0.185536 0.695268 6052958 3
0.401374 0.195690 0.690815 8223614 3
0.412491 0.195584 0.690438 8618885 3
0.480669 0.195649 0.690668 5263699 3
0.347538 0.174449 0.696581 7566195 3
0.353187 0.171636 0.685349 7039853 3
0.360487 0.169775 0.677915 8092287 3
0.372830 0.170329 0.680127 4144708 3
0.385882 0.171165 0.683466 3749949 3
0.393879 0.169775 0.677915 5591896 3
0.313332 0.185949 0.696815 6908524 3
0.323941 0.185473 0.695031 7434357 3
0.332077 0.183661 0.688242 6710886 3
0.331060 0.177073 0.663553 7105644 3
0.341686 0.176934 0.663032 7303025 3
0.348512 0.174896 0.655396 8355460 3
0.368202 0.179243 0.671684 9934491 3
0.382748 0.180906 0.677915 7170928 3
0.395056 0.181446 0.679942 7434098 3
0.321365 0.171196 0.604344 5789532 3
0.368202 0.190271 0.671684 6973806 3
0.388570 0.194957 0.688226 7894649 3
0.255849 0.224449 0.896230 7763572 3
0.264065 0.219057 0.874701 7237228 3
0.269443 0.211989 0.846478 6974571 3
0.283342 0.211989 0.846478 7567226 3
0.296042 0.211135 0.843068 6711915 3
0.200982 0.227051 0.850838 7434096 3
0.212207 0.224152 0.839975 6775652 3
0.222492 0.220674 0.826942 6776166 3
0.234441 0.219151 0.821236 7960440 3
0.247681 0.218936 0.820429 8816262 3
0.264705 0.221915 0.831593 6184540 3
0.278820 0.222283 0.832970 5593436 3
0.291433 0.221474 0.829940 6119778 3
0.207132 0.232253 0.819887 6447201 3
0.219804 0.231422 0.816951 6709605 3
0.232761 0.230969 0.815353 5855066 3
0.245113 0.229997 0.811922 7039338 3
0.260979 0.232253 0.819887 7237228 3
0.270570 0.228978 0.808324 6842731 3
0.216069 0.240675 0.803069 6578021 3
0.229254 0.240675 0.803069 8091258 3
0.242440 0.240675 0.803069 6447201 3
0.254729 0.239830 0.800252 7565936 3
-0.181394 0.219354 0.875888 5066061 3
-0.162990 0.214071 0.854789 3553853 3
-0.171101 0.220472 0.826185 5263440 3
-0.161679 0.226271 0.847916 5132115 3
-0.148058 0.226731 0.849641 6777710 3
-0.137448 0.232378 0.870801 5855836 3
-0.125390 0.236605 0.886640 6776938 3
-0.112101 0.239315 0.896795 6710375 3
-0.154172 0.229040 0.808543 5855838 3
-0.147082 0.239096 0.844042 6382182 3
-0.137448 0.246676 0.870801 5921629 3
-0.126384 0.253154 0.893671 6776681 3
-0.112501 0.254945 0.899991 7303025 3
-0.182903 0.245239 0.818300 6052956 3
-0.175293 0.253669 0.846426 5855575 3
-0.165319 0.259836 0.867004 6579561 3
-0.183623 0.259693 0.821519 6448227 3
-0.383441 0.237619 0.948817 4143678 3
-0.365130 0.251316 0.941768 6051929 3
-0.360983 0.259450 0.972247 6644066 3
-0.302756 0.280628 0.990657 4867653 3
-0.303792 0.282720 0.943364 5657937 3
-0.389438 0.215116 0.858962 3684669 3
-0.375849 0.215410 0.860137 3354934 3
-0.359872 0.214306 0.855729 6643814 3
-0.397677 0.225887 0.846478 5724504 3
-0.384040 0.226042 0.847056 5263699 3
-0.373922 0.228356 0.855729 4539208 3
-0.361232 0.229219 0.858962 5393745 3
-0.347722 0.229611 0.860431 4341057 3
-0.308099 0.231686 0.868206 6118490 3
-0.395539 0.238497 0.841927 5198158 3
-0.382106 0.238741 0.842790 5725018 3
-0.373922 0.242406 0.855729 4737098 3
-0.361357 0.243406 0.859259 4538436 3
-0.349643 0.245085 0.865185 5855066 3
-0.335672 0.245256 0.865789 5920343 3
-0.324821 0.247823 0.874852 6381408 3
-0.309271 0.246877 0.871510 4078907 3
-0.398777 0.245796 0.820157 5263699 3
-0.388620 0.247907 0.827200 4605508 3
-0.376035 0.248565 0.829398 4803402 3
-0.367647 0.252153 0.841367 5263440 3
-0.350777 0.249975 0.834102 5328722 3
-0.343943 0.255063 0.851078 5262929 3
-0.329969 0.255063 0.851078 6184029 3
-0.317182 0.256021 0.854276 4407618 3
-0.303671 0.256457 0.855729 4934473 3
-0.394643 0.256574 0.811655 4540230 3
-0.382931 0.257661 0.815091 4145468 3
-0.366093 0.255251 0.807470 4606021 3
-0.354434 0.256408 0.811129 3487542 3
-0.339467 0.255169 0.807208 3487029 3
-0.334609 0.261736 0.827982 5000268 3
-0.324567 0.264633 0.837146 6184031 3
-0.309169 0.263225 0.832695 6052445 3
-0.352721 0.268422 0.807208 4144961 3
-0.315718 0.270788 0.814322 3881276 3
0.595007 0.200075 0.854958 2828337 3
0.593875 0.218869 0.873950 3420984 3
0.595007 0.214113 0.854958 2960433 3
0.584061 0.205330 0.819887 3223606 3
0.588724 0.202307 0.807815 3355191 3
0.587161 0.214998 0.805669 4079168 3
0.597884 0.227274 0.802308 6119262 3
0.598260 0.240598 0.802813 6382434 3
0.596629 0.253087 0.800624 6118751 3
0.303416 0.202207 0.864065 6778221 3
0.305274 0.207994 0.830523 7172464 3
0.312071 0.203533 0.812711 7039340 3
0.326049 0.203930 0.814296 7499375 3
0.337560 0.202813 0.809836 7500402 3
0.303157 0.220093 0.824764 7238257 3
0.309075 0.214795 0.804909 6250337 3
0.050491 0.212486 0.907993 6119260 3
0.035472 0.226694 0.905193 7041132 3
0.050650 0.228115 0.910868 6448995 3
0.068309 0.237512 0.948393 6185569 3
0.085496 0.242086 0.966657 5723991 3
0.035679 0.242960 0.910456 6909544 3
0.051456 0.246937 0.925359 7435890 3
0.067138 0.248745 0.932133 6185569 3
0.082442 0.248745 0.932133 7566195 3
0.097896 0.249124 0.933554 7631477 3
0.067113 0.263952 0.931789 7172464 3
0.080914 0.259155 0.914852 7237230 3
0.094411 0.255037 0.900316 5395028 3
0.081843 0.277324 0.925359 5658711 3
0.097747 0.279355 0.932133 6381923 3
0.005530 0.203809 0.870913 8750728 3
0.020230 0.207927 0.888511 7500915 3
0.035067 0.209410 0.894848 6974571 3
0.005534 0.218267 0.871545 6711399 3
0.020462 0.225070 0.898709 7764085 3
0.005272 0.221552 0.830230 7829626 3
0.020104 0.235621 0.882952 6448225 3
0.018452 0.229570 0.810415 6053469 3
0.032194 0.232716 0.821519 6119260 3
0.048485 0.246994 0.871924 7106671 3
0.031532 0.241144 0.804634 6711397 3
0.045536 0.245417 0.818892 7435122 3
0.063635 0.264780 0.883502 5659225 3
0.045536 0.258862 0.818892 7039853 3
0.061158 0.268414 0.849109 7368818 3
0.076101 0.271993 0.860431 6974060 3
0.088894 0.267972 0.847709 6710888 3
0.099616 0.259640 0.821352 7105646 3
0.045536 0.272307 0.818892 7105646 3
-0.038219 0.208446 0.890728 8487295 3
-0.023125 0.204308 0.873046 8750469 3
-0.008760 0.203593 0.869991 8750471 3
-0.068170 0.225391 0.899991 7106157 3
-0.053374 0.225310 0.899669 6645606 3
-0.037924 0.221353 0.883869 7303536 3
-0.022957 0.217050 0.866687 7434868 3
-0.008715 0.216749 0.865485 7829626 3
-0.068170 0.240168 0.899991 6250848 3
-0.051780 0.232910 0.872793 6513507 3
-0.036109 0.224573 0.841552 8158332 3
-0.021904 0.220674 0.826942 6710888 3
-0.008299 0.219943 0.824202 7303025 3
-0.097724 0.254945 0.899991 7632247 3
-0.082947 0.254945 0.899991 7171696 3
-0.063776 0.238513 0.841984 8026748 3
-0.079268 0.257758 0.860072 4737355 3
-0.061115 0.241807 0.806847 5526101 3
-0.074178 0.254423 0.804850 6316130 3
-0.443670 0.206563 0.882679 3289652 3
-0.420817 0.202539 0.865485 2303014 3
-0.412782 0.205615 0.878630 3092532 3
-0.445900 0.202338 0.807941 2236451 3
-0.447827 0.209444 0.836314 3289652 3
-0.437157 0.210921 0.842211 2368548 3
-0.425764 0.212134 0.847056 2631722 3
-0.416073 0.214306 0.855729 1447705 3
-0.402023 0.214306 0.855729 3093300 3
-0.450136 0.217652 0.815617 3091760 3
-0.448422 0.223472 0.837425 4144961 3
-0.434819 0.223547 0.837706 4802891 3
-0.423329 0.224749 0.842211 4473672 3
-0.411575 0.225887 0.846478 2566186 3
-0.452642 0.232330 0.820157 4934475 3
-0.441488 0.233553 0.824475 5460819 3
-0.430073 0.234711 0.828563 6776938 3
-0.416747 0.234868 0.829117 4276806 3
-0.407310 0.237301 0.837706 5197906 3
-0.443354 0.240752 0.803328 3684408 3
-0.434066 0.242936 0.810615 4474437 3
-0.425431 0.245635 0.819620 4277576 3
-0.410095 0.244515 0.815884 5592666 3
-0.445640 0.255251 0.807470 4802887 3
-0.434623 0.256574 0.811655 5066061 3
-0.423216 0.257743 0.815353 3487288 3
-0.407837 0.256491 0.811391 4145218 3
-0.416707 0.266961 0.802813 4474183 3
0.342665 0.159979 0.735204 2894643 3
0.351437 0.158491 0.728365 3684157 3
0.371895 0.157030 0.721652 4802380 3
0.383744 0.157030 0.721652 5920606 3
0.399273 0.158491 0.728365 4868944 3
0.323105 0.168153 0.718548 6250597 3
0.336252 0.168831 0.721445 4407367 3
0.345512 0.167577 0.716086 3947328 3
0.355644 0.166814 0.712827 2763308 3
0.365683 0.166058 0.709597 3092019 3
0.376799 0.165823 0.708590 2894383 3
0.390872 0.166864 0.713039 3486777 3
0.323072 0.186752 0.745704 6119776 3
0.318093 0.177160 0.707402 5197906 3
0.330828 0.177762 0.709807 7631990 3
0.339233 0.176075 0.703072 7171439 3
0.312038 0.192199 0.720235 7237489 3
0.207348 0.205275 0.943364 6447201 3
0.222838 0.205275 0.943364 6974058 3
0.241233 0.207778 0.954868 6185055 3
0.260083 0.210343 0.966657 5592918 3
0.279404 0.212973 0.978740 4868680 3
0.295474 0.212973 0.978740 4539715 3
0.208139 0.221605 0.946959 8355198 3
0.222838 0.220764 0.943364 6776679 3
0.238327 0.220764 0.943364 6185055 3
0.253816 0.220764 0.943364 7237741 3
0.269305 0.220764 0.943364 7434861 3
0.284794 0.220764 0.943364 6776677 3
0.202844 0.231121 0.922871 6052443 3
0.215855 0.228850 0.913803 8026233 3
0.230013 0.228012 0.910456 8749442 3
0.244962 0.228012 0.910456 7763315 3
0.134774 0.212973 0.978740 6184291 3
0.150844 0.212973 0.978740 7500663 3
0.166914 0.212973 0.978740 6118751 3
0.178521 0.207778 0.954868 5526612 3
0.194199 0.207778 0.954868 5722964 3
0.165497 0.227098 0.970433 5987165 3
0.179210 0.224318 0.958552 6250337 3
0.194199 0.223456 0.954868 7499375 3
0.104515 0.249603 0.996670 4473413 3
0.133630 0.243032 0.970433 5657946 3
0.148297 0.240974 0.962214 5723739 3
0.159531 0.234270 0.935446 6973806 3
0.173239 0.232059 0.926618 5855325 3
0.188454 0.232059 0.926618 6644580 3
0.115513 0.254160 0.952425 7697270 3
0.126151 0.244471 0.916117 7829628 3
0.143133 0.247831 0.928706 7302771 3
0.157680 0.246733 0.924594 6710634 3
0.171343 0.244567 0.916477 7105135 3
0.109351 0.255405 0.901617 6316130 3
0.139816 0.256983 0.907186 6053215 3
0.155213 0.257816 0.910127 6250337 3
0.168565 0.255405 0.901617 7434098 3
0.112137 0.277095 0.924594 6250594 3
-0.088545 0.209053 0.960726 3882046 3
-0.070187 0.201631 0.926618 5132113 3
-0.054649 0.200445 0.921167 7237230 3
-0.085278 0.216532 0.925279 4934734 3
-0.068564 0.211831 0.905193 5724250 3
-0.053663 0.211680 0.904547 5263440 3
-0.098825 0.227929 0.910127 6118751 3
-0.083397 0.226612 0.904868 6053215 3
-0.097795 0.240342 0.900645 6579302 3
-0.083851 0.242786 0.909802 6250594 3
-0.138415 0.212973 0.978740 3487290 3
-0.117923 0.205275 0.943364 3816255 3
-0.102434 0.205275 0.943364 2829360 3
-0.186625 0.229043 0.978740 4737357 3
-0.172039 0.231036 0.987258 6119010 3
-0.155096 0.229949 0.982612 5855836 3
-0.138415 0.229043 0.978740 4803918 3
-0.117865 0.220657 0.942906 5132113 3
-0.100615 0.216845 0.926618 4934734 3
-0.158655 0.228012 0.910456 4145990 3
-0.143707 0.228012 0.910456 5396055 3
-0.127740 0.226210 0.903261 4474183 3
-0.112583 0.225555 0.900645 5329235 3
-0.463015 0.200445 0.921167 2895151 3
-0.450541 0.201631 0.926618 3289909 3
-0.440540 0.204046 0.937715 2434602 3
-0.430297 0.206519 0.949081 3421495 3
-0.412936 0.213141 0.910789 2895154 3
-0.411905 0.220598 0.942653 2894640 3
-0.412049 0.229290 0.979798 2894383 3
0.375139 0.181060 0.899991 4407882 3
0.389916 0.181060 0.899991 5592413 3
0.305497 0.189309 0.869991 7106673 3
0.314539 0.186206 0.855729 6645352 3
0.325037 0.184192 0.846478 5197395 3
0.338935 0.184192 0.846478 8091260 3
0.352833 0.184192 0.846478 3947328 3
0.368725 0.185194 0.851078 3158840 3
0.382699 0.185194 0.851078 3092533 3
0.311034 0.198024 0.846193 6250848 3
0.323181 0.196960 0.841646 6447205 3
0.334084 0.195256 0.834362 5788503 3
0.347203 0.194930 0.832970 6447714 3
0.353077 0.190715 0.814960 5527643 3
0.109477 0.210029 1.043989 6972267 3
0.126618 0.210029 1.043989 4538439 3
0.108752 0.225666 1.037076 6181980 3
0.125779 0.225666 1.037076 6116188 3
0.109027 0.243307 1.039697 8024954 3
0.126566 0.244211 1.043557 6445922 3
0.141467 0.240416 1.027340 5921119 3
0.155098 0.235502 1.006342 5592667 3
0.121803 0.251511 1.004291 5591124 3
-0.186909 0.215784 1.072592 3684156 3
-0.162615 0.207266 1.030253 2828847 3
-0.193896 0.221270 1.016873 3618363 3
-0.179531 0.224182 1.030253 3881535 3
-0.158446 0.218433 1.003836 3487290 3
-0.259128 0.217272 1.079989 3157551 3
-0.236502 0.212868 1.058097 4671562 3
-0.279189 0.222716 1.023519 4473413 3
-0.274964 0.233395 1.072592 4670790 3
-0.253875 0.230241 1.058097 4802887 3
-0.230278 0.224182 1.030253 4013886 3
-0.213363 0.224182 1.030253 4737096 3
-0.285136 0.244624 1.045321 4210754 3
-0.272978 0.249193 1.064845 5131341 3
-0.252599 0.246369 1.052777 5131854 3
-0.230518 0.241349 1.031326 5593432 3
-0.299183 0.259088 1.034545 5394767 3
-0.282663 0.259517 1.036257 5131854 3
-0.271134 0.264875 1.057654 6118751 3
-0.250809 0.261787 1.045321 5723739 3
-0.298822 0.275742 1.033299 4868169 3
-0.275259 0.269288 1.009113 5263440 3
-0.491467 0.235108 1.168645 2434343 3
-0.484240 0.250556 1.151459 3618617 3
-0.472279 0.254296 1.168645 3420725 3
-0.401520 0.258149 1.186352 4012862 3
-0.444406 0.268241 1.146244 3289137 3
-0.431909 0.272227 1.163274 3486518 3
-0.414715 0.273484 1.168645 4144448 3
0.814053 0.133950 0.724993 1644322 1
0.814053 0.145854 0.724993 920599 1
0.849555 0.150021 0.745707 2828598 1
0.803633 0.153494 0.705398 2236459 1
0.815215 0.153494 0.705398 723222 1
0.713580 0.124712 0.674993 1512730 1
0.724663 0.124712 0.674993 1446165 1
0.735746 0.124712 0.674993 1643033 1
0.746828 0.124712 0.674993 1643293 1
0.701498 0.140020 0.695993 1776162 1
0.700473 0.137574 0.683836 1644576 1
0.708606 0.136976 0.680863 1380889 1
0.713580 0.135795 0.674993 2170660 1
0.737376 0.138177 0.686835 2169888 1
0.701498 0.151447 0.695993 4408139 3
0.743902 0.150777 0.692913 2302244 1
0.731072 0.143779 0.660753 1578268 1
0.708683 0.131566 0.604627 1381152 1
0.709014 0.147769 0.631445 1184023 1
0.772371 0.158654 0.677958 1841955 1
0.751627 0.152199 0.650376 789013 1
0.720197 0.143792 0.614450 1710115 1
0.725599 0.142869 0.610507 1446684 1
0.721396 0.152008 0.606971 1447197 1
0.693151 0.129166 0.699100 1776162 1
0.670194 0.140645 0.699100 2105125 1
0.678643 0.140020 0.695993 1908259 1
0.690070 0.140020 0.695993 1579294 1
0.664263 0.150777 0.692913 2368297 3
0.675640 0.150777 0.692913 3816256 3
0.687017 0.150777 0.692913 2829360 3
0.681673 0.163602 0.699100 3750462 3
0.693345 0.163648 0.699296 3553853 3
0.623935 0.174984 0.698713 4736845 3
0.626332 0.172484 0.688735 4407882 3
0.628344 0.169970 0.678694 2959923 3
0.631345 0.162154 0.647486 5394775 3
0.687208 0.173579 0.693106 5395288 3
0.359754 0.180833 0.978740 3289398 1
0.357927 0.172222 0.932133 2565676 1
0.371023 0.171203 0.926618 1513249 1
0.386238 0.171203 0.926618 1841701 1
0.315487 0.199395 0.991129 4672334 3
0.331761 0.199395 0.991129 5790046 3
0.343684 0.196903 0.978740 2039844 3
0.336612 0.184236 0.915780 3421238 3
0.349603 0.183165 0.910456 3223606 3
0.362445 0.182106 0.905193 4736847 3
-0.123893 0.183122 0.991129 2171179 1
-0.107620 0.183122 0.991129 3026486 1
-0.140167 0.199395 0.991129 4803151 1
-0.118637 0.190936 0.949081 2302763 1
-0.103054 0.190936 0.949081 3289912 1
-0.290904 0.209661 1.134771 3091760 3
-0.264602 0.203755 1.102806 2762795 3
-0.242023 0.215920 1.168645 2105125 1
-0.226212 0.219191 1.186352 2828335 1
-0.286748 0.225032 1.118560 2104349 3
-0.235008 0.228293 1.134771 3815742 3
-0.213285 0.225032 1.118560 3618363 3
-0.362563 0.219191 1.186352 3223605 3
-0.337963 0.215920 1.168645 2960434 3
-0.309535 0.209661 1.134771 3091762 3
-0.382041 0.238670 1.186352 3881276 3
-0.357151 0.235108 1.168645 3025967 3
-0.332993 0.231650 1.151459 3486520 3
-0.300816 0.221862 1.102806 4012864 3
-0.382041 0.258149 1.186352 4407104 3
-0.351899 0.250556 1.151459 3288623 3
-0.323479 0.243397 1.118560 4473413 3
-0.395527 0.273484 1.168645 4670790 3
-0.376339 0.273484 1.168645 4275257 3
-0.353540 0.270719 1.156830 3946038 3
-0.325104 0.263078 1.124180 4868169 3
-0.391700 0.276430 1.103790 5722964 3
-0.386231 0.285793 1.141178 5394767 3
-0.367110 0.285494 1.139986 3814706 3
-0.341969 0.280230 1.118965 5920082 3
-0.355137 0.294290 1.102806 5064773 3
0.775877 0.119827 0.711811 1971998 1
0.787564 0.119827 0.711811 985617 1
0.768887 0.141912 0.705398 1709339 1
0.780469 0.141912 0.705398 1183512 1
0.768887 0.153494 0.705398 1577751 1
0.799252 0.154889 0.711811 2170920 1
0.707202 0.164199 0.701652 4276807 3
0.674108 0.134500 0.798972 1315608 1
0.647318 0.119827 0.711811 1512988 1
0.656023 0.119285 0.708590 1775900 1
0.661669 0.118215 0.702235 2236453 1
0.674108 0.147619 0.798972 2236710 1
0.612256 0.131515 0.711811 2697261 1
0.623943 0.131515 0.711811 2565676 1
0.641462 0.132721 0.718341 2631469 1
0.650273 0.132115 0.715061 2170920 1
0.659005 0.131515 0.711811 1183765 1
0.667657 0.130920 0.708590 2894640 1
0.673199 0.129745 0.702235 855058 1
0.684729 0.129745 0.702235 1644833 1
0.605427 0.159921 0.794916 2368037 1
0.660989 0.160737 0.798972 2697262 1
0.641384 0.152934 0.760186 2499882 1
0.615052 0.143856 0.715061 2039331 1
0.626792 0.143856 0.715061 3223606 1
0.638533 0.143856 0.715061 2039332 1
0.650273 0.143856 0.715061 1776162 1
0.662014 0.143856 0.715061 1973026 1
0.670692 0.143202 0.711811 2236711 1
0.612263 0.171234 0.786927 3354934 3
0.641327 0.172099 0.790901 4407879 3
0.628902 0.165416 0.760186 2763054 3
0.600569 0.154889 0.711811 3420984 3
0.612256 0.154889 0.711811 3157812 3
0.629667 0.156310 0.718341 3355192 3
0.638533 0.155596 0.715061 3026227 3
0.647318 0.154889 0.711811 2763057 3
0.659005 0.154889 0.711811 2367784 3
0.664650 0.153494 0.705398 2499883 3
0.616734 0.185499 0.792673 4670792 3
0.648299 0.187097 0.799499 4408133 3
0.635816 0.179853 0.768543 3355191 3
0.613324 0.170114 0.726928 4144707 3
0.604739 0.164531 0.703072 2434089 3
0.613676 0.163835 0.700098 3749950 3
0.638533 0.167337 0.715061 3223606 3
0.650460 0.167385 0.715266 4210503 3
0.664861 0.168057 0.718136 3091509 3
0.667309 0.165736 0.708220 3223606 3
0.671133 0.163831 0.700080 3684157 3
0.646243 0.199589 0.796964 3684156 3
0.635816 0.192471 0.768543 3355191 3
0.617111 0.183174 0.731418 4144707 3
0.614011 0.178775 0.713852 5066322 3
0.616283 0.176075 0.703072 3289911 3
0.617111 0.195183 0.731418 3157813 3
0.617522 0.191585 0.717933 2434602 3
0.616283 0.187619 0.703072 2960433 3
0.644336 0.192552 0.721559 2039332 3
0.605469 0.146456 0.869991 2565163 1
0.641124 0.151506 0.899991 2630958 1
0.604653 0.136591 0.811391 1644061 1
0.605469 0.160740 0.869991 2038819 1
0.619753 0.160740 0.869991 2367788 1
0.627070 0.158974 0.860431 3024946 1
0.604653 0.149913 0.811391 2235684 1
0.655325 0.158974 0.860431 1907488 1
0.669452 0.158974 0.860431 2499625 1
0.683580 0.158974 0.860431 1841955 1
0.697707 0.158974 0.860431 2828850 1
0.628043 0.162394 0.807208 3025969 1
0.668879 0.169379 0.841927 2039332 1
0.661368 0.164086 0.815617 2565676 1
0.647977 0.177477 0.815617 4736844 3
0.636991 0.187633 0.801788 3750203 3
0.546537 0.138748 0.824202 1644322 1
0.566028 0.140224 0.832970 1644061 1
0.552351 0.153900 0.832970 1183771 1
0.572114 0.155555 0.841927 1447197 1
0.540844 0.164086 0.815617 4013124 1
0.566028 0.167577 0.832970 4868431 1
0.579704 0.167577 0.832970 2367784 1
0.587135 0.165813 0.824202 2104616 1
0.585266 0.161561 0.803069 2038051 1
0.554235 0.177477 0.815617 5328981 3
0.570599 0.178406 0.819887 6315366 3
0.581019 0.177477 0.815617 4341576 3
0.571637 0.196861 0.841225 4078914 3
0.581969 0.191181 0.816951 5065299 3
0.585703 0.188073 0.803669 5788506 3
0.475883 0.130505 0.775240 2038305 1
0.488612 0.130505 0.775240 1841440 1
0.477333 0.147619 0.798972 3420472 1
0.485497 0.146127 0.790901 2302246 1
0.498483 0.146127 0.790901 2236198 1
0.472511 0.159113 0.790901 4078657 1
0.485497 0.159113 0.790901 2762797 1
0.498483 0.159113 0.790901 3092019 1
0.411232 0.158491 0.728365 5066323 3
0.433267 0.162265 0.745707 5131603 3
0.449794 0.163825 0.752877 4605258 3
0.462156 0.163825 0.752877 5131602 3
0.474517 0.163825 0.752877 6118497 3
0.402459 0.166814 0.712827 3158325 3
0.412286 0.166058 0.709597 4078657 3
0.422025 0.165309 0.706396 4013121 3
0.434358 0.165589 0.707593 3355191 3
0.442492 0.164296 0.702066 4473413 3
0.454902 0.164615 0.703430 5197136 3
0.497430 0.175548 0.750147 3355443 3
0.442599 0.175865 0.702235 2368039 3
0.455536 0.176410 0.704410 2631211 3
0.480144 0.181336 0.724079 2960174 3
0.450812 0.190873 0.715266 6447462 3
0.464545 0.191693 0.718341 5460310 3
0.475935 0.191531 0.717732 6052958 3
0.480016 0.188506 0.706396 6381669 3
0.496093 0.190223 0.712830 6118497 3
0.430835 0.198817 0.701854 7434611 3
0.479749 0.199993 0.706002 6184544 3
0.209877 0.160744 0.954868 2762795 1
0.231194 0.164763 0.978740 2236964 1
0.247264 0.164763 0.978740 2368550 1
0.263334 0.164763 0.978740 2169891 1
0.279404 0.164763 0.978740 1841952 1
0.207348 0.174297 0.943364 2500136 1
0.228340 0.178600 0.966657 3026480 1
0.247264 0.180833 0.978740 2500393 1
0.263334 0.180833 0.978740 2171430 1
0.279404 0.180833 0.978740 2499882 1
0.299214 0.183122 0.991129 1315862 1
0.209877 0.192100 0.954868 2960687 3
0.225555 0.192100 0.954868 4737355 3
0.244211 0.194472 0.966657 3224886 3
0.263334 0.196903 0.978740 4605769 3
0.279404 0.196903 0.978740 4737096 3
0.295474 0.196903 0.978740 3750201 3
0.005650 0.149784 0.889764 2763055 1
0.005618 0.163465 0.884737 2630956 1
0.020492 0.166283 0.899991 1709854 1
0.005618 0.177991 0.884737 2565676 3
0.020492 0.181060 0.899991 5065809 3
0.005682 0.194718 0.894848 7829115 3
-0.038616 0.151506 0.899991 3420984 1
-0.023568 0.164393 0.889764 1578268 1
-0.008909 0.163465 0.884737 1841442 1
-0.023568 0.179002 0.889764 2368039 3
-0.008909 0.177991 0.884737 3815230 3
-0.023568 0.193611 0.889764 8618885 3
-0.009010 0.194718 0.894848 8421252 3
-0.072327 0.160744 0.954868 2763308 1
-0.055300 0.156917 0.932133 2763308 1
-0.071455 0.174297 0.943364 2697774 1
-0.054330 0.169200 0.915780 2500136 1
-0.038839 0.167244 0.905193 2499625 1
-0.089091 0.194472 0.966657 1974051 1
-0.070187 0.186417 0.926618 1710879 3
-0.054649 0.185320 0.921167 1973279 3
-0.038839 0.182106 0.905193 2368037 3
-0.038839 0.196969 0.905193 8289918 3
-0.406689 0.212597 1.262890 1974568 1
-0.427425 0.233332 1.262890 2895154 3
-0.494417 0.246128 1.223425 3092273 3
-0.497658 0.258233 1.283594 2105124 3
-0.476582 0.258233 1.283594 3157813 3
-0.434155 0.246128 1.223425 2960434 3
-0.414068 0.246128 1.223425 3289398 3
-0.467033 0.262120 1.204603 3749690 3
-0.454242 0.266216 1.223425 3881278 3
-0.434155 0.266216 1.223425 3947071 3
0.182984 0.148693 0.978740 2697002 1
0.182984 0.164763 0.978740 2302755 1
0.194199 0.160744 0.954868 2697002 1
0.166914 0.180833 0.978740 3091760 1
0.178521 0.176422 0.954868 3552309 1
0.191859 0.174297 0.943364 3157553 1
0.134774 0.196903 0.978740 4802638 3
0.150844 0.196903 0.978740 4934223 3
0.166914 0.196903 0.978740 5065548 3
0.178521 0.192100 0.954868 4604997 3
0.194199 0.192100 0.954868 3420725 3
0.501341 0.130505 0.775240 2237224 1
0.516688 0.147619 0.798972 2039332 1
0.516688 0.160737 0.798972 2565676 1
0.592375 0.159921 0.794916 1906718 1
0.506354 0.170378 0.782992 4670794 3
0.529806 0.173855 0.798972 4934223 3
0.582279 0.173855 0.798972 4011841 3
0.580587 0.169530 0.779097 3748922 3
0.590441 0.168691 0.775240 2565416 3
0.585332 0.183812 0.785464 5985882 3
0.598406 0.183867 0.785697 2302242 3
0.592564 0.199140 0.795169 5526101 3
0.501511 0.199427 0.704006 5790043 3
-3.289316 0.220097 4.121011 1907235 1
-3.289316 0.287760 4.121011 854547 1
-3.221653 0.287760 4.121011 1775133 1
0.147967 0.204379 0.585696 7170924 3
0.180442 0.208569 0.597704 7697268 3
0.190256 0.208569 0.597704 8618370 3
0.140674 0.203448 0.556827 9144716 3
0.161238 0.218958 0.599278 8355200 3
0.171241 0.219167 0.599851 8947337 3
0.180442 0.218383 0.597704 8486784 3
0.189758 0.217812 0.596141 8355198 3
0.199309 0.217553 0.595431 9013643 3
0.108329 0.203359 0.532648 10658468 3
0.117074 0.203359 0.532648 8816264 3
0.127013 0.205287 0.537699 9079436 3
0.137733 0.208146 0.545187 9013130 3
0.157021 0.222814 0.583604 9341579 3
0.171282 0.229071 0.599994 8881028 3
0.181090 0.229016 0.599851 10986404 3
0.182728 0.219167 0.574054 9209993 3
0.185816 0.211939 0.555122 10066329 3
0.190870 0.207525 0.543560 9605778 3
0.197357 0.204992 0.536926 9145740 3
0.106875 0.209257 0.525498 8882057 3
0.116039 0.210230 0.527939 7895419 3
0.125554 0.211657 0.531523 7895419 3
0.135841 0.214116 0.537699 8947337 3
0.146685 0.217098 0.545187 9144200 3
0.158613 0.221250 0.555613 9802130 3
0.168842 0.222710 0.559280 9407372 3
0.174625 0.218457 0.548599 9802130 3
0.181145 0.215497 0.541166 9539472 3
0.188726 0.214017 0.537452 9803157 3
0.195294 0.211573 0.531313 9079947 3
0.106875 0.217886 0.525498 8487299 3
0.116039 0.218898 0.527939 8816521 3
0.168402 0.219358 0.529049 8420991 3
0.177317 0.219641 0.529733 7960955 3
0.075646 0.200715 0.549348 8618881 3
0.066730 0.210059 0.550198 9277072 3
0.075713 0.209920 0.549833 9342606 3
0.084040 0.208184 0.545286 9276813 3
0.091873 0.205677 0.538719 8816262 3
0.099904 0.204014 0.534364 9277326 3
0.075880 0.219429 0.551043 8553090 3
0.083104 0.214720 0.539216 8289918 3
0.091032 0.212558 0.533788 7632501 3
0.098664 0.210147 0.527732 9211533 3
0.074358 0.223896 0.539995 9276302 3
0.082833 0.222842 0.537452 9013128 3
0.090194 0.219285 0.528872 8158845 3
0.098247 0.217886 0.525498 8817543 3
0.060472 0.200925 1.087489 3354934 1
0.078327 0.200925 1.087489 2960176 1
0.058053 0.210029 1.043989 5066063 3
0.076210 0.212868 1.058097 5985882 3
0.092335 0.210029 1.043989 5526101 3
0.056180 0.219843 1.010312 5000268 3
0.075194 0.227171 1.043989 6446687 3
0.091724 0.225666 1.037076 6184031 3
0.072075 0.234176 1.000678 6052443 3
0.091121 0.241097 1.030253 6118749 3
0.150796 0.184350 1.095094 3552824 1
0.168777 0.184350 1.095094 2368296 1
0.180448 0.178122 1.058097 2565675 1
0.111711 0.196825 1.065295 2959407 1
0.129202 0.196825 1.065295 3025200 1
0.145702 0.195495 1.058097 3026226 1
0.160901 0.192888 1.043989 3158066 1
0.200069 0.208569 0.597704 8618883 3
0.209833 0.208520 0.597562 8882057 3
0.210743 0.200069 0.573344 8158080 3
0.208119 0.216547 0.592680 10197663 3
0.201704 0.200497 0.548752 10132124 3
0.201286 0.208740 0.524199 8224638 3
0.201286 0.217347 0.524199 9013900 3
-0.231144 0.226897 0.717772 5460560 3
-0.296003 0.265105 0.797233 5394515 3
-0.277859 0.260370 0.782992 5066063 3
-0.281198 0.264281 0.757358 5723993 3
-0.293633 0.276716 0.757358 4671305 3
0.045457 0.176228 1.159988 2631469 1
0.064029 0.174933 1.151459 2960947 1
0.026217 0.193839 1.151459 3881536 1
0.044469 0.191029 1.134771 2303017 1
0.062647 0.189655 1.126607 2960947 1
0.081145 0.189655 1.126607 2039332 1
