# .PCD v0.7 - Point Cloud Data file format
VERSION 0.7
FIELDS x y z rgb label
SIZE 4 4 4 4 4
TYPE F F F F U
COUNT 1 1 1 1 1
WIDTH 2797
HEIGHT 1
VIEWPOINT 0 0 0 1 0 0 0
POINTS 2797
DATA ascii
-0.215518 0.209785 0.29037 0 3
-0.21027 0.209277 0.289667 0 3
-0.205247 0.208974 0.289248 0 3
-0.200548 0.208995 0.289277 0 3
-0.212618 0.211636 0.286463 0 3
-0.207214 0.210892 0.285457 0 3
-0.202369 0.210697 0.285192 0 3
-0.216998 0.216017 0.286076 0 3
-0.211721 0.215397 0.285254 0 3
-0.207131 0.215464 0.285343 0 3
-0.104286 0.210021 0.297413 1.27226e-38 3
-0.196566 0.209783 0.290368 0 3
-0.197196 0.215652 0.298492 0 3
-0.103834 0.213942 0.296124 1.18929e-38 3
-0.199382 0.212473 0.287596 0 3
-0.19616 0.214078 0.289768 0 3
-0.190938 0.213524 0.289019 0 3
-0.185715 0.212943 0.288233 0 3
-0.181734 0.213791 0.28938 0 3
-0.182811 0.220795 0.298861 0 3
-0.179098 0.215343 0.285183 0 3
-0.0987231 0.203702 0.295288 1.2168e-38 3
-0.0596967 0.202065 0.292915 1.43804e-38 3
-0.0548374 0.201769 0.292486 1.47495e-38 3
-0.0500569 0.201736 0.292438 1.43814e-38 3
-0.0451906 0.201313 0.291824 1.21695e-38 3
-0.0977658 0.206498 0.292425 1.27216e-38 3
-0.0917285 0.203687 0.288443 1.21684e-38 3
-0.0500569 0.206507 0.292438 1.30914e-38 3
-0.0451906 0.206074 0.291824 1.28155e-38 3
-0.0972741 0.210207 0.290954 1.17996e-38 3
-0.0915891 0.208076 0.288005 1.17996e-38 3
-0.0972797 0.219714 0.290971 1.22613e-38 3
-0.347031 0.465934 0.675421 0 3
-0.356825 0.47532 0.673108 0 3
-0.385743 0.481276 0.666151 0 3
-0.390669 0.484771 0.656169 0 3
-0.389475 0.480787 0.636716 0 3
-0.486683 0.440628 0.670451 0 3
-0.485771 0.450721 0.669196 0 3
-0.496208 0.451272 0.654167 0 3
-0.487408 0.463727 0.65669 0 3
-0.450127 0.479001 0.634351 0 3
-0.0781516 0.409796 0.639411 1.38283e-38 3
-0.0781539 0.42024 0.63943 1.36439e-38 3
-0.0885892 0.430686 0.639449 1.25372e-38 3
-0.0887321 0.44183 0.64048 1.23528e-38 3
-0.0887321 0.45228 0.64048 1.39201e-38 3
0.356575 0.419889 0.672274 0 3
0.344047 0.428913 0.669241 0 3
0.305629 0.442554 0.65707 1.18007e-38 3
0.305091 0.452478 0.655914 0 3
0.305091 0.463179 0.655914 1.18007e-38 3
0.306186 0.475582 0.658268 1.18014e-38 3
0.181654 0.421225 0.674414 1.65945e-38 3
0.180953 0.430561 0.671812 1.57655e-38 3
0.180953 0.441522 0.671812 1.32762e-38 3
0.101595 0.441063 0.654856 1.25397e-38 3
-0.0447154 0.180351 0.288756 1.55793e-38 3
-0.0401067 0.180813 0.289496 1.37368e-38 3
-0.0553428 0.189181 0.295182 1.39179e-38 3
-0.0496318 0.18583 0.289954 1.27187e-38 3
-0.0446434 0.184764 0.28829 1.39179e-38 3
-0.0401014 0.185512 0.289457 1.40119e-38 3
-0.060328 0.194542 0.296012 1.40116e-38 3
-0.0549913 0.192765 0.293307 1.36414e-38 3
-0.0498443 0.191377 0.291196 1.39179e-38 3
-0.0449591 0.190808 0.290329 1.57626e-38 3
-0.0402196 0.190795 0.29031 1.45651e-38 3
-0.0883867 0.19732 0.292966 0 3
-0.0646521 0.197825 0.293715 1.2445e-38 3
-0.0598307 0.197729 0.293572 1.33662e-38 3
-0.0550335 0.197702 0.293533 1.5486e-38 3
-0.0501252 0.197233 0.292837 1.63168e-38 3
-0.0450918 0.196121 0.291186 1.41041e-38 3
-0.0918786 0.199306 0.288915 1.2446e-38 3
0.467762 0.410236 0.674438 0 3
0.467762 0.42124 0.674438 1.3645e-38 3
0.423347 0.431837 0.673803 0 3
0.428385 0.436759 0.664564 1.28138e-38 3
0.448438 0.445978 0.662153 1.26301e-38 3
0.444639 0.452911 0.656543 0 3
0.00727278 0.179707 0.295443 1.88979e-38 3
0.0121427 0.180443 0.296653 1.71466e-38 3
0.0170215 0.180855 0.29733 1.63168e-38 3
0.0218453 0.180629 0.296959 1.5576e-38 3
0.0267504 0.181036 0.297627 1.82497e-38 3
0.0317528 0.181874 0.299005 1.91735e-38 3
0.0118862 0.18137 0.290388 1.58548e-38 3
0.0167271 0.182494 0.292187 1.48406e-38 3
0.0217999 0.185089 0.296341 1.57611e-38 3
0.0266998 0.18554 0.297063 1.84348e-38 3
0.0316958 0.186417 0.298469 2.15709e-38 3
0.036687 0.187037 0.29946 1.41978e-38 3
0.0316021 0.190721 0.297586 1.51183e-38 3
0.0365473 0.191192 0.29832 1.46587e-38 3
-0.107922 0.412539 0.696917 0 3
-0.130428 0.423149 0.695666 1.36428e-38 3
-0.191997 0.43901 0.636392 1.2262e-38 3
-0.191994 0.449387 0.636383 0 3
-0.191991 0.459763 0.636373 0 3
-0.303383 0.214477 0.383463 0 3
-0.314743 0.215657 0.374644 0 3
-0.307532 0.214889 0.37331 0 3
-0.311427 0.219433 0.370697 0 3
-0.301157 0.2164 0.365572 0 3
-0.318717 0.226364 0.372147 0 3
-0.309059 0.223767 0.367878 0 3
-0.30001 0.221518 0.36418 0 3
-0.314708 0.229512 0.367466 0 3
-0.304205 0.22616 0.3621 0 3
-0.314708 0.235507 0.367466 0 3
-0.304109 0.231995 0.361986 0 3
-0.303575 0.263878 0.391785 0 3
-0.302336 0.269167 0.390186 0 3
-0.121151 0.196768 0.362371 0 3
-0.109668 0.187257 0.344856 0 3
-0.101363 0.182436 0.335978 0 3
-0.118543 0.198319 0.354573 0 3
-0.109601 0.192765 0.344643 0 3
-0.101363 0.187918 0.335978 0 3
-0.00928402 0.200973 0.381581 1.18007e-38 3
-0.00306698 0.201545 0.382667 1.30914e-38 3
-0.00298036 0.20192 0.371859 1.22617e-38 3
-0.0088176 0.202702 0.362411 0 3
-0.00295207 0.206012 0.368328 1.23528e-38 3
-0.0994626 0.200623 0.348526 0 3
-0.0937517 0.200571 0.348435 0 3
-0.0883083 0.201121 0.349391 1.30911e-38 3
-0.0831081 0.202339 0.351507 1.3274e-38 3
-0.0776971 0.203186 0.352979 1.27208e-38 3
-0.0719412 0.203195 0.352995 1.29974e-38 3
-0.0659259 0.202409 0.351629 1.40123e-38 3
-0.0599499 0.201606 0.350233 1.33666e-38 3
-0.0540901 0.201065 0.349294 1.18914e-38 3
-0.0482515 0.200485 0.348286 1.28148e-38 3
-0.0424947 0.200135 0.347678 1.41056e-38 3
-0.0368227 0.200138 0.347684 1.29992e-38 3
-0.0312779 0.200959 0.34911 1.26294e-38 3
-0.0257831 0.20254 0.351857 1.40123e-38 3
-0.0201651 0.20378 0.354011 1.30907e-38 3
-0.0144326 0.204396 0.355081 1.31825e-38 3
-0.00880192 0.208244 0.361766 1.46577e-38 3
-0.00295195 0.212014 0.368314 0 3
-0.098787 0.204908 0.346159 1.60413e-38 3
-0.0933528 0.205378 0.346952 1.29989e-38 3
-0.0879816 0.206056 0.348098 0 3
-0.0828572 0.207446 0.350445 1.22599e-38 3
-0.0776259 0.208754 0.352656 1.45647e-38 3
-0.0719817 0.209072 0.353193 1.34584e-38 3
-0.0661096 0.208727 0.352609 1.35506e-38 3
-0.060021 0.207566 0.350649 0 3
-0.0311462 0.205785 0.347641 1.30903e-38 3
-0.0985913 0.210139 0.345473 1.49357e-38 3
-0.0931392 0.210556 0.346159 1.29996e-38 3
-0.0877205 0.211107 0.347065 0 3
-0.0827143 0.212796 0.349841 1.35506e-38 3
-0.0767987 0.212222 0.348897 1.2813e-38 3
-0.0707175 0.211062 0.34699 1.45647e-38 3
-0.0981183 0.21474 0.343816 1.32762e-38 3
-0.0926235 0.215007 0.344242 1.23546e-38 3
-0.0869546 0.214877 0.344035 1.32758e-38 3
-0.0809822 0.213928 0.342515 1.19836e-38 3
-0.0753555 0.213819 0.342341 1.23524e-38 3
-0.0699537 0.214382 0.343243 1.41963e-38 3
-0.0642387 0.214 0.34263 1.32729e-38 3
-0.0972789 0.218465 0.340874 1.18018e-38 3
-0.091869 0.218826 0.341438 1.18936e-38 3
-0.0860093 0.218093 0.340295 0 3
-0.0784003 0.212518 0.331595 0 3
-0.0712091 0.207332 0.323504 1.17989e-38 3
-0.0988835 0.215406 0.327758 0 3
-0.0930779 0.214352 0.326153 0 3
-0.0857304 0.209403 0.318623 0 3
-0.0786779 0.204582 0.311288 0 3
-0.0726744 0.202012 0.307377 1.18929e-38 3
-0.0971726 0.205805 0.305563 0 3
-0.0890546 0.210178 0.312055 0 3
-0.0856469 0.214392 0.318313 0 3
-0.0785632 0.209355 0.310834 0 3
-0.0709534 0.202124 0.300098 1.2907e-38 3
-0.0834398 0.261497 0.379068 0 3
-0.0708741 0.266943 0.378022 1.29063e-38 3
-0.217438 0.20958 0.397923 0 3
-0.210926 0.209562 0.397887 0 3
-0.204472 0.2096 0.39796 0 3
-0.213508 0.200211 0.368712 0 3
-0.209055 0.20172 0.371491 0 3
-0.206628 0.205331 0.378141 0 3
-0.202134 0.207047 0.381301 0 3
-0.29393 0.21217 0.379338 0 3
-0.293482 0.216404 0.386907 0 3
-0.288009 0.217037 0.388038 0 3
-0.281579 0.21696 0.387902 0 3
-0.273679 0.215722 0.385687 0 3
-0.265622 0.214298 0.383143 0 3
-0.258545 0.213616 0.381922 0 3
-0.24734 0.209405 0.374395 0 3
-0.237172 0.205881 0.368094 0 3
-0.2305 0.205288 0.367033 0 3
-0.223987 0.204808 0.366176 0 3
-0.217636 0.204454 0.365542 0 3
-0.211901 0.204675 0.365938 0 3
-0.206495 0.205237 0.366942 0 3
-0.202277 0.207047 0.370178 0 3
-0.299541 0.213535 0.370957 0 3
-0.290096 0.211067 0.366669 0 3
-0.282719 0.210031 0.36487 0 3
-0.279836 0.212361 0.368917 0 3
-0.278067 0.215656 0.374642 0 3
-0.273519 0.216897 0.376798 0 3
-0.267359 0.216887 0.37678 0 3
-0.260506 0.216301 0.375763 0 3
-0.253747 0.215768 0.374836 0 3
-0.245064 0.21353 0.370949 0 3
-0.236703 0.211468 0.367366 0 3
-0.230446 0.211226 0.366946 0 3
-0.223756 0.210565 0.365798 0 3
-0.21671 0.209523 0.363987 0 3
-0.210622 0.209375 0.36373 0 3
-0.204863 0.209554 0.364041 0 3
-0.200187 0.210885 0.366353 0 3
-0.294207 0.215677 0.364351 0 3
-0.285185 0.213375 0.360462 0 3
-0.275871 0.210752 0.356031 0 3
-0.269374 0.210215 0.355124 0 3
-0.265049 0.211387 0.357103 0 3
-0.259802 0.21186 0.357902 0 3
-0.253973 0.211868 0.357917 0 3
-0.248134 0.211868 0.357917 0 3
-0.242294 0.211868 0.357917 0 3
-0.23737 0.212689 0.359303 0 3
-0.233303 0.214338 0.362089 0 3
-0.223427 0.210598 0.35577 0 3
-0.216367 0.209383 0.353719 0 3
-0.210363 0.209151 0.353327 0 3
-0.206707 0.211307 0.356969 0 3
-0.202497 0.213004 0.359836 0 3
-0.289712 0.218236 0.358785 0 3
-0.279654 0.215004 0.353471 0 3
-0.272119 0.213616 0.351189 0 3
-0.265552 0.212945 0.350086 0 3
-0.259681 0.212814 0.349872 0 3
-0.253336 0.21228 0.348994 0 3
-0.24721 0.211911 0.348386 0 3
-0.241517 0.211902 0.348372 0 3
-0.235833 0.211902 0.348372 0 3
-0.230112 0.211869 0.348317 0 3
-0.223695 0.211175 0.347177 0 3
-0.214893 0.208137 0.342182 0 3
-0.205881 0.204727 0.336576 0 3
-0.293744 0.222709 0.356573 0 3
-0.284843 0.220323 0.352755 0 3
-0.277369 0.218967 0.350583 0 3
-0.269834 0.217503 0.34824 0 3
-0.260222 0.214268 0.343059 0 3
-0.253934 0.213686 0.342128 0 3
-0.246463 0.212061 0.339526 0 3
-0.238503 0.209931 0.336115 0 3
-0.231652 0.208699 0.334143 0 3
-0.225806 0.208335 0.33356 0 3
-0.220565 0.208526 0.333865 0 3
-0.215577 0.20897 0.334577 0 3
-0.207725 0.20659 0.330767 0 3
-0.200622 0.204848 0.327978 0 3
-0.292219 0.22734 0.354722 0 3
-0.283124 0.224714 0.350626 0 3
-0.276862 0.224276 0.349941 0 3
-0.269823 0.223176 0.348226 0 3
-0.260102 0.219763 0.3429 0 3
-0.25208 0.217667 0.33963 0 3
-0.245207 0.216492 0.337796 0 3
-0.23844 0.215357 0.336026 0 3
-0.231064 0.213607 0.333295 0 3
-0.225071 0.213081 0.332474 0 3
-0.220272 0.213688 0.333421 0 3
-0.2125 0.211369 0.329802 0 3
-0.205123 0.209332 0.326624 0 3
-0.275391 0.228764 0.348082 0 3
-0.268276 0.227546 0.346229 0 3
-0.2549 0.220851 0.336042 0 3
-0.240951 0.213354 0.324636 0 3
-0.235275 0.208908 0.310171 0 3
-0.236207 0.214346 0.318245 0 3
-0.250567 0.275237 0.398985 0 3
-0.296074 0.27563 0.390324 0 3
-0.262708 0.280808 0.397656 0 3
-0.201214 0.220523 0.312286 0 3
-0.288424 0.274713 0.380239 0 3
-0.282999 0.275633 0.373087 0 3
-0.288267 0.280921 0.372029 0 3
-0.238814 0.279874 0.370642 0 3
0.202214 0.200752 0.393347 0 3
0.235335 0.201637 0.395079 0 3
0.210117 0.208645 0.396147 0 3
0.226358 0.205782 0.390711 0 3
0.226474 0.200248 0.380204 1.24446e-38 3
0.208398 0.213348 0.392905 0 3
0.21469 0.213231 0.392689 0 3
0.220442 0.212599 0.391526 0 3
0.222813 0.208834 0.384592 0 3
0.225077 0.205178 0.377859 0 3
0.230735 0.204728 0.377031 0 3
0.236398 0.204306 0.376253 1.22606e-38 3
0.240159 0.202303 0.372565 1.21684e-38 3
0.245515 0.201709 0.371471 1.19829e-38 3
0.25123 0.201432 0.37096 1.28134e-38 3
0.256866 0.201106 0.370359 1.39208e-38 3
0.207025 0.218311 0.390318 1.2262e-38 3
0.21399 0.218921 0.391408 0 3
0.216184 0.214757 0.383963 0 3
0.219524 0.211934 0.378915 0 3
0.226632 0.212803 0.38047 0 3
0.23277 0.212739 0.380355 0 3
0.236974 0.210957 0.377169 0 3
0.24017 0.208391 0.372581 0 3
0.245515 0.20777 0.371471 0 3
0.25123 0.207484 0.37096 0 3
0.256958 0.207222 0.370492 0 3
0.26087 0.205543 0.367488 0 3
0.262592 0.20225 0.361602 0 3
0.266213 0.200534 0.358533 0 3
0.200713 0.217829 0.378417 0 3
0.206218 0.217125 0.377193 1.31833e-38 3
0.208412 0.213076 0.370159 1.64101e-38 3
0.208783 0.207444 0.360376 1.32755e-38 3
0.212352 0.20521 0.356495 0 3
0.221417 0.208266 0.361804 0 3
0.233586 0.214007 0.371778 0 3
0.235835 0.210599 0.365856 0 3
0.235331 0.204961 0.356062 0 3
0.237479 0.201849 0.350655 1.18003e-38 3
0.242705 0.201438 0.349941 0 3
0.248444 0.201462 0.349984 0 3
0.254798 0.201972 0.350869 0 3
0.261004 0.202345 0.351518 0 3
0.265458 0.201373 0.349829 0 3
0.269549 0.200173 0.347744 0 3
0.242998 0.202631 0.342312 0 3
0.254675 0.207596 0.3507 0 3
0.260894 0.207993 0.351371 0 3
0.265237 0.206909 0.349538 0 3
0.268852 0.205314 0.346845 0 3
0.273368 0.204459 0.3454 0 3
0.202086 0.200858 0.330216 1.2168e-38 3
0.208287 0.201647 0.331512 1.29059e-38 3
0.213515 0.201476 0.331231 1.25372e-38 3
0.217982 0.200613 0.329813 1.21684e-38 3
0.20088 0.205016 0.328246 1.36432e-38 3
0.206941 0.205717 0.329369 1.47499e-38 3
0.212804 0.206191 0.330128 1.36435e-38 3
0.217966 0.205979 0.329788 1.22606e-38 3
0.221938 0.20468 0.327708 1.20769e-38 3
0.233399 0.257515 0.39183 1.4196e-38 3
0.233168 0.263646 0.391441 1.41038e-38 3
0.203299 0.207174 0.307596 1.21684e-38 3
0.243193 0.267016 0.387068 0 3
0.202089 0.21093 0.305766 0 3
0.100737 0.203185 0.398113 1.39208e-38 3
0.107356 0.203419 0.398572 1.21688e-38 3
0.113682 0.203103 0.397953 1.31833e-38 3
0.119894 0.202629 0.397023 1.23535e-38 3
0.125852 0.201795 0.395389 1.45669e-38 3
0.132061 0.201427 0.394668 1.27223e-38 3
0.138185 0.200968 0.393769 1.30911e-38 3
0.144328 0.200576 0.393001 1.3551e-38 3
0.150871 0.20075 0.393342 1.38275e-38 3
0.157838 0.201451 0.394716 1.53956e-38 3
0.164595 0.201841 0.395479 1.47506e-38 3
0.172007 0.202973 0.397697 1.39201e-38 3
0.18518 0.203187 0.398117 0 3
0.190369 0.201802 0.395404 0 3
0.100425 0.209031 0.39688 1.21691e-38 3
0.10684 0.208913 0.396657 1.4474e-38 3
0.113118 0.208556 0.395979 1.53038e-38 3
0.119414 0.20827 0.395435 1.25379e-38 3
0.125438 0.207561 0.394089 1.37372e-38 3
0.131619 0.207169 0.393345 1.53038e-38 3
0.136916 0.205488 0.390152 1.38286e-38 3
0.142472 0.204327 0.387948 1.36442e-38 3
0.148519 0.203939 0.387212 1.5396e-38 3
0.154946 0.204083 0.387485 1.33677e-38 3
0.160082 0.202582 0.384635 1.23535e-38 3
0.199251 0.204134 0.387583 0 3
0.105046 0.211768 0.389995 1.26301e-38 3
0.111411 0.211773 0.390004 1.28145e-38 3
0.11781 0.211836 0.390121 1.57647e-38 3
0.124003 0.211543 0.389581 1.26308e-38 3
0.132226 0.214573 0.395161 1.44747e-38 3
0.137934 0.213429 0.393054 1.38293e-38 3
0.142188 0.210237 0.387175 1.58569e-38 3
0.147137 0.2083 0.383608 1.4935e-38 3
0.151997 0.206401 0.38011 1.57637e-38 3
0.156814 0.204594 0.376783 1.36432e-38 3
0.160916 0.202026 0.372055 1.33676e-38 3
0.165601 0.200349 0.368966 1.3552e-38 3
0.172027 0.200824 0.369841 1.24457e-38 3
0.179515 0.202463 0.372859 0 3
0.187651 0.204702 0.376983 0 3
0.198593 0.209763 0.386303 1.25379e-38 3
0.142965 0.208475 0.372732 1.32755e-38 3
0.148961 0.208355 0.372517 1.31822e-38 3
0.153879 0.206796 0.36973 1.31825e-38 3
0.158821 0.205387 0.36721 1.27223e-38 3
0.164074 0.204467 0.365565 1.19847e-38 3
0.170329 0.204816 0.366189 1.29067e-38 3
0.179336 0.208339 0.372487 1.19847e-38 3
0.18994 0.213426 0.381582 1.22613e-38 3
0.19839 0.215845 0.385908 0 3
0.127774 0.200278 0.347926 0 3
0.137205 0.205912 0.357714 1.27223e-38 3
0.14547 0.209408 0.363787 1.41052e-38 3
0.151768 0.20991 0.364659 1.31833e-38 3
0.157327 0.20939 0.363756 0 3
0.162432 0.208325 0.361906 1.36442e-38 3
0.167895 0.207778 0.360956 1.35517e-38 3
0.172836 0.206645 0.358987 0 3
0.178542 0.206471 0.358684 1.31833e-38 3
0.190403 0.213198 0.370372 1.21684e-38 3
0.103365 0.202616 0.342287 1.57655e-38 3
0.108949 0.202616 0.342287 1.40137e-38 3
0.114534 0.202616 0.342287 1.25379e-38 3
0.120157 0.20268 0.342396 1.26308e-38 3
0.126471 0.203853 0.344377 1.20776e-38 3
0.134292 0.207252 0.350119 1.46584e-38 3
0.142207 0.210513 0.355628 1.41052e-38 3
0.146902 0.208938 0.352967 1.5396e-38 3
0.150526 0.206016 0.34803 1.21691e-38 3
0.154786 0.204146 0.344871 1.30911e-38 3
0.158651 0.201903 0.341082 1.29985e-38 3
0.162915 0.200304 0.338381 1.4474e-38 3
0.122475 0.202854 0.333497 0 3
0.12761 0.202369 0.3327 1.3368e-38 3
0.132798 0.202002 0.332097 1.29981e-38 3
0.13784 0.201453 0.331194 0 3
0.142331 0.20017 0.329084 1.22613e-38 3
0.17986 0.200107 0.328981 0 3
0.185258 0.20014 0.329035 1.21691e-38 3
0.19588 0.200023 0.328843 1.2168e-38 3
0.119942 0.203987 0.326599 0 3
0.125252 0.203957 0.32655 0 3
0.130255 0.203449 0.325737 1.34588e-38 3
0.134993 0.202585 0.324354 1.45651e-38 3
0.139405 0.201313 0.322318 1.18918e-38 3
0.144172 0.200628 0.321221 1.28145e-38 3
0.149057 0.200151 0.320458 1.18914e-38 3
0.159645 0.200316 0.320721 1.23524e-38 3
0.165241 0.200756 0.321426 0 3
0.194609 0.204056 0.32671 1.19836e-38 3
0.118461 0.206732 0.322567 1.2539e-38 3
0.123706 0.206701 0.322519 1.20776e-38 3
0.128632 0.206163 0.321679 1.47495e-38 3
0.133013 0.204828 0.319596 1.38275e-38 3
0.137115 0.203178 0.317023 1.29981e-38 3
0.141145 0.201548 0.314479 0 3
0.145189 0.20005 0.312142 1.29981e-38 3
0.151498 0.201669 0.314668 1.17996e-38 3
0.159486 0.205344 0.320401 1.42882e-38 3
0.19714 0.206455 0.322135 0 3
0.118461 0.211995 0.322567 1.30914e-38 3
0.12367 0.211902 0.322425 1.23531e-38 3
0.128006 0.210382 0.320113 1.29045e-38 3
0.131929 0.208329 0.31699 1.42885e-38 3
0.135691 0.206187 0.31373 1.37357e-38 3
0.139511 0.204286 0.310837 1.27226e-38 3
0.183853 0.259772 0.395264 0 3
0.189648 0.203665 0.309893 1.25365e-38 3
0.196731 0.205785 0.313119 1.29059e-38 3
0.135069 0.210338 0.312293 1.47499e-38 3
0.138749 0.208214 0.30914 1.23539e-38 3
0.18565 0.20432 0.303359 1.45648e-38 3
0.189522 0.203165 0.301644 1.17996e-38 3
0.195724 0.204504 0.303631 0 3
0.176725 0.271626 0.393751 1.2445e-38 3
0.195724 0.209458 0.303631 0 3
0.135485 0.221207 0.313254 1.27201e-38 3
0.138433 0.217805 0.308436 1.30914e-38 3
0.122497 0.230734 0.319367 1.21677e-38 3
0.127617 0.230571 0.319142 1.39179e-38 3
0.132541 0.23008 0.318461 1.40101e-38 3
0.13643 0.227896 0.315439 1.26279e-38 3
0.13974 0.224941 0.311348 1.20773e-38 3
0.122607 0.236157 0.319653 1.51179e-38 3
0.129589 0.239421 0.324072 1.57622e-38 3
0.137043 0.243267 0.329278 1.35495e-38 3
0.144972 0.247634 0.335189 1.35506e-38 3
0.153209 0.25219 0.341356 1.47506e-38 3
0.134049 0.25313 0.335225 1.49335e-38 3
0.142115 0.257842 0.341466 1.5209e-38 3
0.0356454 0.202409 0.396593 1.18025e-38 3
0.0417748 0.200769 0.393379 1.2817e-38 3
0.087403 0.202391 0.396557 1.35528e-38 3
0.0941857 0.203065 0.397878 1.30911e-38 3
0.00320456 0.203327 0.38605 1.37368e-38 3
0.00966855 0.206864 0.392766 1.24464e-38 3
0.0162507 0.209102 0.397015 1.35528e-38 3
0.022773 0.209514 0.397797 0 3
0.0291812 0.208926 0.396681 1.34613e-38 3
0.0355574 0.208364 0.395613 1.22627e-38 3
0.0415331 0.205988 0.391103 1.41066e-38 3
0.0474066 0.203806 0.38696 1.35538e-38 3
0.0536804 0.203656 0.386674 1.29103e-38 3
0.0604413 0.20519 0.389588 1.27233e-38 3
0.0671379 0.206236 0.391572 1.33676e-38 3
0.0739124 0.207317 0.393626 1.21691e-38 3
0.0806154 0.208042 0.395002 1.26315e-38 3
0.0875956 0.209322 0.397432 1.34606e-38 3
0.0939935 0.209129 0.397066 1.21691e-38 3
0.00311707 0.203903 0.375511 1.27223e-38 3
0.00933321 0.205876 0.379144 1.29067e-38 3
0.0156736 0.207924 0.382917 1.20769e-38 3
0.0222039 0.210607 0.387856 0 3
0.0289447 0.213652 0.393465 1.22617e-38 3
0.0355511 0.214781 0.395544 1.2262e-38 3
0.0415331 0.21237 0.391103 1.28152e-38 3
0.0473738 0.209974 0.386692 1.30003e-38 3
0.052985 0.207245 0.381665 1.3278e-38 3
0.0588475 0.205968 0.379314 1.32769e-38 3
0.0665939 0.210901 0.388399 1.27223e-38 3
0.0741211 0.214343 0.394737 1.29989e-38 3
0.0806963 0.214702 0.395398 0 3
0.0875738 0.215752 0.397333 0 3
0.0934914 0.214456 0.394945 1.32755e-38 3
0.0990045 0.212459 0.391267 1.33666e-38 3
0.0030792 0.207478 0.370949 0 3
0.00922676 0.209643 0.374819 0 3
0.0155185 0.212053 0.379128 1.39201e-38 3
0.0219333 0.214291 0.383129 1.18918e-38 3
0.0288045 0.219006 0.391559 1.17996e-38 3
0.0482833 0.220436 0.394116 1.32762e-38 3
0.0530902 0.213896 0.382423 1.29078e-38 3
0.0584222 0.210624 0.376573 1.24468e-38 3
0.0649444 0.211858 0.378779 1.34606e-38 3
0.0715353 0.213081 0.380967 1.29067e-38 3
0.0773337 0.211937 0.378922 1.31847e-38 3
0.0839525 0.213045 0.380902 1.26315e-38 3
0.088437 0.208957 0.373593 1.19847e-38 3
0.0920771 0.20353 0.36389 1.36435e-38 3
0.00307813 0.213456 0.37082 0 3
0.0091769 0.214592 0.372794 1.17996e-38 3
0.0154556 0.217354 0.377591 1.34591e-38 3
0.021811 0.219312 0.380993 0 3
0.0287376 0.224871 0.390651 1.18911e-38 3
0.0600094 0.222657 0.386804 1.46595e-38 3
0.0641207 0.215272 0.373975 1.41067e-38 3
0.0692586 0.212318 0.368842 1.90845e-38 3
0.0739426 0.208555 0.362306 1.1894e-38 3
0.0792483 0.206974 0.359559 1.47513e-38 3
0.0848267 0.206273 0.358342 1.28138e-38 3
0.0895517 0.203722 0.35391 1.27216e-38 3
0.0939221 0.200722 0.348697 1.19851e-38 3
0.00913972 0.219781 0.371284 1.41045e-38 3
0.0152518 0.220567 0.372613 1.63172e-38 3
0.0335261 0.220805 0.373013 1.74207e-38 3
0.0722171 0.209462 0.353852 1.24471e-38 3
0.0771442 0.207189 0.350012 1.3184e-38 3
0.0827955 0.207041 0.349761 1.28138e-38 3
0.0878142 0.205432 0.347043 1.35513e-38 3
0.0925311 0.203354 0.343533 0 3
0.0977877 0.202632 0.342314 1.23535e-38 3
0.0688483 0.205195 0.337345 1.29081e-38 3
0.0736523 0.203263 0.334169 1.3645e-38 3
0.0789604 0.202893 0.33356 1.51183e-38 3
0.0843995 0.202885 0.333548 1.49339e-38 3
0.0899262 0.203076 0.333862 1.43818e-38 3
0.0967822 0.206076 0.338794 1.25386e-38 3
0.00929473 0.235829 0.377581 1.6131e-38 3
0.0604322 0.201013 0.321837 1.39215e-38 3
0.0666339 0.203922 0.326495 1.30925e-38 3
0.0719838 0.203987 0.326599 1.54889e-38 3
0.0773125 0.203987 0.326599 1.37354e-38 3
0.0826412 0.203987 0.326599 1.3551e-38 3
0.0153869 0.240921 0.375913 1.50261e-38 3
0.0343747 0.245113 0.382455 1.53938e-38 3
0.058966 0.201259 0.314028 1.51208e-38 3
0.0651937 0.204726 0.319438 1.23546e-38 3
0.0710906 0.206718 0.322546 1.4013e-38 3
0.0765474 0.207244 0.323367 1.55803e-38 3
0.0819552 0.207578 0.323888 1.56725e-38 3
0.0467542 0.250814 0.381635 1.63183e-38 3
0.047555 0.201452 0.306526 1.33694e-38 3
0.0532198 0.203996 0.310397 1.20783e-38 3
0.058966 0.206383 0.314028 1.51201e-38 3
0.0651937 0.209938 0.319438 1.47513e-38 3
0.0710906 0.211981 0.322546 1.30911e-38 3
0.0765474 0.21252 0.323367 1.42889e-38 3
0.0819552 0.212863 0.323888 1.4474e-38 3
0.0467542 0.257041 0.381635 1.39212e-38 3
0.0418423 0.203001 0.301401 1.43829e-38 3
-0.0434348 0.18137 0.35537 1.29059e-38 3
-0.0377764 0.182043 0.356688 1.18003e-38 3
-0.0320037 0.182311 0.357212 1.26308e-38 3
-0.0263229 0.183337 0.359223 1.38301e-38 3
-0.0206914 0.185393 0.363251 1.31843e-38 3
-0.0150418 0.188872 0.370069 1.24464e-38 3
-0.049137 0.186804 0.354678 1.39201e-38 3
-0.0433502 0.186804 0.354678 1.5303e-38 3
-0.0375824 0.186898 0.354857 1.49353e-38 3
-0.0318628 0.18731 0.355639 1.39215e-38 3
-0.0261736 0.188124 0.357185 1.35535e-38 3
-0.0204126 0.188741 0.358356 1.29996e-38 3
-0.0149231 0.193371 0.367146 1.30918e-38 3
-0.0954113 0.181542 0.33433 0 3
-0.093118 0.187922 0.34608 0 3
-0.0896396 0.19258 0.354658 1.19847e-38 3
-0.0838595 0.192594 0.354685 0 3
-0.0780318 0.192494 0.354499 1.18918e-38 3
-0.0721317 0.192184 0.353929 0 3
-0.0662576 0.191896 0.353399 0 3
-0.0604335 0.191711 0.353058 1.35524e-38 3
-0.0546027 0.191464 0.352604 1.429e-38 3
-0.0488312 0.191392 0.35247 1.61328e-38 3
-0.0431452 0.191679 0.353 1.64094e-38 3
-0.0373942 0.191723 0.35308 1.29059e-38 3
-0.0316706 0.191948 0.353494 1.47509e-38 3
-0.0260489 0.193028 0.355484 1.43822e-38 3
-0.0202941 0.193458 0.356276 1.2723e-38 3
-0.0145014 0.193728 0.356773 1.18003e-38 3
-0.00886812 0.197917 0.364487 1.22613e-38 3
-0.095395 0.186964 0.334273 0 3
-0.0927727 0.192851 0.344796 0 3
-0.089013 0.19698 0.352179 1.42896e-38 3
-0.0835182 0.197574 0.353241 1.32747e-38 3
-0.0778526 0.197822 0.353685 1.46577e-38 3
-0.0719577 0.197481 0.353075 1.40123e-38 3
-0.0659312 0.196688 0.351658 1.35513e-38 3
-0.0600303 0.196154 0.350703 1.41978e-38 3
-0.0542367 0.195895 0.35024 1.35524e-38 3
-0.0484558 0.195627 0.349761 1.43811e-38 3
-0.042684 0.195329 0.349227 1.39201e-38 3
-0.0369808 0.1953 0.349176 1.41045e-38 3
-0.0313699 0.195838 0.350138 1.41045e-38 3
-0.0259555 0.198115 0.354208 1.54874e-38 3
-0.0202925 0.199255 0.356248 1.29067e-38 3
-0.0144964 0.19948 0.356649 0 3
-0.0532337 0.194242 0.310997 0 3
-0.062634 0.196964 0.307327 1.33651e-38 3
-0.0663009 0.197956 0.301206 1.30903e-38 3
-0.171923 0.203007 0.397765 1.23549e-38 3
-0.165309 0.202855 0.397467 1.22627e-38 3
-0.198406 0.210052 0.398818 0 3
-0.190109 0.208093 0.395098 0 3
-0.182234 0.206474 0.392025 0 3
-0.176103 0.206785 0.392615 1.2262e-38 3
-0.170604 0.207891 0.394715 0 3
-0.164963 0.208903 0.396636 0 3
-0.19713 0.208334 0.383671 0 3
-0.191564 0.209092 0.385066 0 3
-0.185437 0.209267 0.385389 0 3
-0.179448 0.209615 0.386031 0 3
-0.145715 0.20644 0.380184 0 3
-0.136134 0.201443 0.37098 0 3
-0.129906 0.20117 0.370479 0 3
-0.197179 0.208041 0.371954 0 3
-0.193464 0.210603 0.376536 0 3
-0.190722 0.214427 0.383372 1.21702e-38 3
-0.184983 0.215026 0.384444 0 3
-0.179007 0.215383 0.385083 0 3
-0.142171 0.207471 0.370937 0 3
-0.134936 0.205668 0.367714 0 3
-0.127289 0.203041 0.363017 0 3
-0.194655 0.211369 0.367194 0 3
-0.188951 0.21169 0.367752 0 3
-0.187767 0.217263 0.377434 0 3
-0.185167 0.221519 0.384827 0 3
-0.179179 0.221879 0.385453 0 3
-0.172786 0.221746 0.385221 0 3
-0.132336 0.20759 0.360628 0 3
-0.125053 0.205294 0.35664 0 3
-0.118553 0.20412 0.3546 0 3
-0.111441 0.201718 0.350429 0 3
-0.104984 0.200308 0.347979 0 3
-0.197846 0.214326 0.362069 0 3
-0.19171 0.214072 0.361639 0 3
-0.186629 0.215015 0.363233 0 3
-0.181691 0.216191 0.365219 0 3
-0.181031 0.22271 0.376232 0 3
-0.178886 0.227795 0.384823 0 3
-0.172767 0.228006 0.385178 0 3
-0.166211 0.227634 0.38455 0 3
-0.157554 0.224243 0.378822 0 3
-0.145399 0.215392 0.36387 0 3
-0.137791 0.212812 0.359511 0 3
-0.130432 0.210402 0.35544 0 3
-0.123246 0.208062 0.351486 0 3
-0.116566 0.206387 0.348657 0 3
-0.110201 0.205128 0.34653 0 3
-0.104236 0.204518 0.3455 1.34598e-38 3
-0.197447 0.20172 0.331632 0 3
-0.190978 0.200609 0.329805 0 3
-0.189423 0.204745 0.336605 0 3
-0.189771 0.211245 0.347292 0 3
-0.18784 0.215531 0.354338 0 3
-0.183542 0.217287 0.357224 0 3
-0.178051 0.217699 0.357902 0 3
-0.17219 0.217672 0.357858 0 3
-0.165925 0.217114 0.35694 0 3
-0.159868 0.216798 0.356422 0 3
-0.154793 0.21784 0.358134 0 3
-0.148714 0.217495 0.357568 0 3
-0.142381 0.216736 0.356319 0 3
-0.136502 0.216631 0.356146 0 3
-0.129862 0.215257 0.353887 0 3
-0.123234 0.213774 0.35145 0 3
-0.116566 0.212076 0.348657 0 3
-0.110201 0.210782 0.34653 1.42907e-38 3
-0.104185 0.210052 0.34533 1.18932e-38 3
-0.194775 0.204328 0.327145 0 3
-0.189128 0.203995 0.326611 0 3
-0.18408 0.204306 0.32711 0 3
-0.183301 0.209516 0.335451 0 3
-0.183592 0.216307 0.346324 0 3
-0.181216 0.220288 0.352698 0 3
-0.176397 0.221462 0.354578 0 3
-0.170198 0.220925 0.353719 0 3
-0.164137 0.220535 0.353094 0 3
-0.158421 0.220599 0.353195 0 3
-0.153417 0.221694 0.354949 0 3
-0.147698 0.221803 0.355123 0 3
-0.14057 0.219717 0.351784 0 3
-0.133693 0.217864 0.348817 1.18021e-38 3
-0.126503 0.215313 0.344733 0 3
-0.120166 0.214045 0.342702 0 3
-0.115125 0.215072 0.344347 0 3
-0.109567 0.215191 0.344538 0 3
-0.103726 0.214736 0.343808 0 3
-0.199251 0.208763 0.325737 0 3
-0.19317 0.207938 0.324449 0 3
-0.187565 0.207593 0.323912 0 3
-0.182356 0.20768 0.324046 0 3
-0.178575 0.209446 0.326802 0 3
-0.178128 0.215352 0.336018 0 3
-0.178344 0.22246 0.347108 0 3
-0.174845 0.225249 0.351459 0 3
-0.169478 0.225738 0.352222 0 3
-0.162279 0.223735 0.349098 0 3
-0.153943 0.219963 0.343212 0 3
-0.146941 0.217883 0.339966 0 3
-0.141154 0.217513 0.33939 0 3
-0.135966 0.218073 0.340263 0 3
-0.130957 0.218981 0.341679 0 3
-0.125601 0.219362 0.342274 0 3
-0.120011 0.219353 0.34226 1.1801e-38 3
-0.114286 0.219083 0.341839 0 3
-0.108616 0.218897 0.341548 0 3
-0.102992 0.218786 0.341376 0 3
-0.198142 0.212886 0.323924 0 3
-0.192843 0.212871 0.3239 0 3
-0.187558 0.212871 0.3239 0 3
-0.182301 0.212902 0.323948 0 3
-0.177483 0.213465 0.324804 0 3
-0.173521 0.215123 0.327327 0 3
-0.172623 0.220805 0.335973 0 3
-0.172297 0.227616 0.346336 0 3
-0.169467 0.231469 0.352199 0 3
-0.160812 0.227357 0.345943 0 3
-0.150139 0.219988 0.33473 0 3
-0.141916 0.215789 0.32834 1.19858e-38 3
-0.13604 0.214969 0.327093 0 3
-0.133579 0.219699 0.33429 1.21702e-38 3
-0.130371 0.223551 0.340151 0 3
-0.125382 0.224555 0.341679 0 3
-0.119942 0.224807 0.342063 0 3
-0.113172 0.22247 0.338506 0 3
-0.105619 0.218274 0.332122 0 3
-0.19129 0.216399 0.321292 0 3
-0.186508 0.216934 0.322086 0 3
-0.181994 0.217821 0.323404 0 3
-0.177423 0.218691 0.324695 0 3
-0.172489 0.219152 0.325379 0 3
-0.168755 0.221216 0.328445 0 3
-0.170174 0.230393 0.342069 0 3
-0.170925 0.239256 0.355229 0 3
-0.15757 0.228304 0.338968 0 3
-0.141814 0.212949 0.31617 0 3
-0.133026 0.207294 0.307774 1.22631e-38 3
-0.127358 0.206246 0.306219 1.18936e-38 3
-0.122702 0.206819 0.307069 1.21702e-38 3
-0.12314 0.216393 0.321283 1.18936e-38 3
-0.123465 0.22661 0.336454 1.2446e-38 3
-0.118707 0.228017 0.338542 0 3
-0.110282 0.22217 0.329861 0 3
-0.192801 0.217433 0.315192 0 3
-0.189575 0.219654 0.318412 0 3
-0.185753 0.221289 0.320782 0 3
-0.181697 0.222733 0.322875 0 3
-0.177417 0.22398 0.324683 0 3
-0.172489 0.22446 0.325379 1.25372e-38 3
-0.133026 0.212315 0.307774 0 3
-0.12734 0.211213 0.306176 0 3
-0.122063 0.210727 0.305471 1.19858e-38 3
-0.116885 0.210376 0.304963 1.29999e-38 3
-0.111629 0.209851 0.304201 1.18929e-38 3
-0.105915 0.208372 0.302058 0 3
-0.196091 0.220492 0.312241 0 3
-0.190568 0.219998 0.311542 0 3
-0.185415 0.219915 0.311424 0 3
-0.183744 0.224073 0.317312 0 3
-0.18208 0.228481 0.323555 0 3
-0.177704 0.229649 0.325209 0 3
-0.148289 0.273213 0.3869 0 3
-0.110315 0.212285 0.30062 0 3
-0.196596 0.22044 0.305119 0 3
-0.192275 0.221197 0.306166 0 3
-0.187372 0.221306 0.306317 0 3
-0.183896 0.223152 0.308872 0 3
-0.148289 0.279525 0.3869 0 3
-0.110286 0.217132 0.30054 0 3
-0.125876 0.278159 0.376506 1.21691e-38 3
-0.132877 0.286148 0.378952 0 3
0.24013 0.193858 0.392382 1.17992e-38 3
0.238372 0.187442 0.379395 0 3
0.242615 0.185949 0.376374 0 3
0.247435 0.184962 0.374376 0 3
0.279588 0.186034 0.376546 0 3
0.291865 0.190028 0.38463 0 3
0.298981 0.190564 0.385714 0 3
0.233824 0.195001 0.382078 1.28134e-38 3
0.238424 0.193674 0.379478 1.38275e-38 3
0.24267 0.192133 0.376459 1.22602e-38 3
0.247435 0.191071 0.374376 1.56715e-38 3
0.274097 0.188404 0.369152 0 3
0.282439 0.189964 0.372207 0 3
0.287329 0.189185 0.370682 0 3
0.292722 0.188763 0.369854 0 3
0.298564 0.188641 0.369616 0 3
0.23184 0.199528 0.378837 1.20758e-38 3
0.237644 0.199212 0.378236 1.36432e-38 3
0.24148 0.197303 0.374613 0 3
0.24658 0.196497 0.373082 1.36424e-38 3
0.252202 0.196136 0.372396 1.47495e-38 3
0.257327 0.195413 0.371024 0 3
0.261432 0.193967 0.368279 0 3
0.266628 0.193378 0.36716 0 3
0.27291 0.193585 0.367553 0 3
0.279826 0.194223 0.368764 0 3
0.284432 0.193264 0.366944 0 3
0.289297 0.192518 0.365527 0 3
0.295179 0.192464 0.365425 0 3
0.261247 0.199835 0.368019 1.27223e-38 3
0.265013 0.198161 0.364937 1.25386e-38 3
0.271242 0.198362 0.365307 0 3
0.277544 0.198607 0.365757 0 3
0.279266 0.195632 0.36028 0 3
0.282837 0.194049 0.357364 0 3
0.269363 0.198544 0.354976 0 3
0.272245 0.196444 0.351222 0 3
0.276153 0.195157 0.34892 0 3
0.281132 0.194662 0.348036 0 3
0.274203 0.199431 0.346456 0 3
0.279568 0.199226 0.346099 0 3
0.204989 0.198279 0.334961 1.31822e-38 3
0.210462 0.198287 0.334973 1.29059e-38 3
0.215895 0.198257 0.334922 1.1984e-38 3
0.22076 0.197721 0.334016 0 3
0.224757 0.19645 0.331871 0 3
0.229879 0.1962 0.331448 0 3
0.221938 0.199333 0.327708 0 3
0.101007 0.197216 0.399179 1.18e-38 3
0.191918 0.196775 0.385554 0 3
0.164116 0.199852 0.379453 1.43811e-38 3
0.169574 0.198992 0.377818 1.28138e-38 3
0.175868 0.199139 0.378098 1.48428e-38 3
0.181912 0.199002 0.377837 0 3
0.188323 0.199263 0.378333 0 3
0.10446 0.193476 0.345914 1.30911e-38 3
0.109624 0.192633 0.344407 1.43825e-38 3
0.115115 0.192418 0.344022 1.24464e-38 3
0.121979 0.194411 0.347587 1.29074e-38 3
0.131092 0.199655 0.356962 1.58576e-38 3
0.103989 0.198221 0.344353 1.87157e-38 3
0.109145 0.197385 0.342901 1.25386e-38 3
0.114557 0.19707 0.342354 1.24457e-38 3
0.120512 0.197678 0.343409 1.2262e-38 3
0.167295 0.198948 0.336089 1.22602e-38 3
0.171726 0.197736 0.334042 1.17996e-38 3
0.176025 0.19645 0.331871 1.25379e-38 3
0.180859 0.195821 0.330808 1.36442e-38 3
0.186716 0.196305 0.331625 1.23535e-38 3
0.192936 0.197132 0.333022 1.22613e-38 3
0.199185 0.197942 0.334391 1.3551e-38 3
0.147187 0.199475 0.327941 1.42896e-38 3
0.152168 0.198991 0.327145 1.4658e-38 3
0.157248 0.198666 0.326611 1.42885e-38 3
0.162571 0.198658 0.326599 1.33666e-38 3
0.1679 0.198658 0.326599 0 3
0.173307 0.198749 0.326748 0 3
0.190049 0.199535 0.328039 0 3
0.154062 0.199861 0.319992 1.41041e-38 3
-0.731839 0.457007 0.925013 0 3
-0.721967 0.465731 0.912535 0 3
-0.718371 0.478226 0.907991 0 3
0.313561 0.189273 0.396185 1.21702e-38 3
0.319863 0.189177 0.395984 0 3
0.303675 0.189565 0.383693 0 3
0.304267 0.186099 0.376676 0 3
0.304396 0.182491 0.369375 0 3
0.36166 0.184031 0.372491 0 3
0.302309 0.187226 0.366843 0 3
0.306074 0.185877 0.3642 0 3
0.355451 0.190038 0.372353 0 3
0.360803 0.189658 0.371608 0 3
0.300805 0.19225 0.365018 0 3
0.305241 0.191297 0.363209 0 3
0.304833 0.22592 0.472894 0 3
0.374525 0.230831 0.483173 0 3
0.329202 0.223969 0.453328 0 3
0.3283 0.230731 0.452086 0 3
0.471764 0.378368 0.791997 0 3
0.477408 0.345086 0.722332 0 3
0.488127 0.356093 0.720757 0 3
0.488127 0.367853 0.720757 1.22602e-38 3
0.0488584 0.190527 0.39881 1.26315e-38 3
0.0552296 0.19006 0.397833 1.4107e-38 3
0.0615417 0.18951 0.396681 2.00061e-38 3
0.0678792 0.189135 0.395895 1.40123e-38 3
0.0743351 0.189126 0.395878 1.35528e-38 3
0.0423208 0.196891 0.39852 1.2817e-38 3
0.0482915 0.194748 0.394183 1.56761e-38 3
0.0540829 0.19247 0.389573 1.59527e-38 3
0.0600177 0.191128 0.386857 1.61346e-38 3
0.0660124 0.190215 0.385008 1.57633e-38 3
0.0721776 0.189908 0.384388 1.25379e-38 3
0.0793316 0.192045 0.388711 1.3184e-38 3
0.0874693 0.19607 0.396858 1.41052e-38 3
0.0942051 0.196614 0.39796 1.3552e-38 3
0.047733 0.198853 0.389624 1.47534e-38 3
0.0538651 0.198026 0.388004 1.54921e-38 3
0.0600124 0.197423 0.386823 1.31843e-38 3
0.0660124 0.196496 0.385008 1.52108e-38 3
0.0721776 0.19618 0.384388 1.47506e-38 3
0.0792932 0.198291 0.388523 1.34613e-38 3
0.0955992 0.198515 0.354924 1.44744e-38 3
0.0997881 0.195379 0.349316 1.36442e-38 3
0.0988123 0.199112 0.3459 1.20769e-38 3
0.018942 0.195862 0.330877 1.34591e-38 3
0.0224626 0.180751 0.305349 1.43789e-38 3
0.0422298 0.189992 0.304192 0 3
0.0479314 0.192965 0.308953 1.37379e-38 3
0.0537018 0.195623 0.313208 1.36457e-38 3
0.0420604 0.194173 0.302972 1.30929e-38 3
0.0476303 0.196762 0.307012 1.26319e-38 3
0.0532216 0.198939 0.310407 1.34613e-38 3
0.0418423 0.198084 0.301401 1.47524e-38 3
-0.87495 0.497549 1.04147 0 3
-0.850989 0.493508 1.03301 0 3
-0.838586 0.496142 1.03852 0 3
-0.815782 0.492603 1.03111 0 3
0.0106902 0.200382 0.43427 1.47513e-38 3
0.0177734 0.200357 0.434216 1.27244e-38 3
0.0898673 0.220835 0.478595 1.25393e-38 3
0.0106902 0.207467 0.43427 1.53967e-38 3
0.0177716 0.207421 0.434173 1.44751e-38 3
0.0247063 0.206177 0.431568 1.30932e-38 3
0.0311974 0.202604 0.424089 1.24478e-38 3
0.0106479 0.213704 0.432551 1.48428e-38 3
0.0176171 0.212639 0.430396 1.20776e-38 3
0.0244349 0.210875 0.426826 1.32769e-38 3
0.0303241 0.203657 0.412217 1.1894e-38 3
0.012176 0.252442 0.494626 1.33684e-38 3
0.0167043 0.208281 0.408097 0 3
0.0232141 0.206956 0.405501 1.21713e-38 3
0.0294483 0.204307 0.400311 1.25404e-38 3
0.0361185 0.224765 0.401856 0 3
0.0429251 0.226082 0.404211 0 3
0.0369469 0.236627 0.411074 1.55778e-38 3
0.0447639 0.242644 0.421526 1.29059e-38 3
0.0521919 0.245231 0.42602 1.34606e-38 3
0.0574135 0.238061 0.413564 1.60424e-38 3
0.00376086 0.268192 0.453067 0 3
0.0840219 0.264876 0.447465 1.48435e-38 3
0.00339393 0.248697 0.408864 1.46569e-38 3
0.0807218 0.261487 0.42989 1.29996e-38 3
-0.376709 0.36125 0.782905 0 3
-0.375069 0.384784 0.753931 0 3
-0.32824 0.397369 0.731801 0 3
-0.0318322 0.348588 0.783155 1.29092e-38 3
-0.0318266 0.361303 0.783018 1.32769e-38 3
-0.0318215 0.374019 0.782894 1.33691e-38 3
-0.0177165 0.371632 0.728162 1.20776e-38 3
-0.164866 0.199977 0.449277 0 3
-0.155947 0.19796 0.444746 0 3
-0.148475 0.197673 0.444101 1.20783e-38 3
-0.141468 0.198006 0.44485 0 3
0.501934 0.342554 0.798882 0 3
0.500966 0.354903 0.797342 0 3
0.500974 0.367917 0.797354 0 3
0.597808 0.35144 0.711338 0 3
0.568523 0.382175 0.70382 0 3
0.16319 0.199397 0.465021 0 3
0.166116 0.193955 0.45233 0 3
0.142054 0.198648 0.446292 0 3
0.147799 0.196604 0.4417 0 3
0.150504 0.190894 0.428872 0 3
0.153822 0.186435 0.418854 1.34598e-38 3
0.15968 0.185303 0.416311 0 3
0.166563 0.185403 0.416536 1.2078e-38 3
0.17541 0.187597 0.421465 0 3
0.119958 0.193762 0.419923 1.2629e-38 3
0.126989 0.194036 0.420517 1.2629e-38 3
0.13413 0.194443 0.421398 1.3552e-38 3
0.140958 0.194378 0.421257 1.38286e-38 3
0.146916 0.193174 0.418648 1.38276e-38 3
0.152646 0.191791 0.41565 1.43807e-38 3
0.159096 0.191393 0.414788 1.37368e-38 3
0.166383 0.191992 0.416086 1.44744e-38 3
0.175371 0.19443 0.421371 1.42885e-38 3
0.184888 0.197249 0.42748 1.44726e-38 3
0.116748 0.195245 0.408686 1.23524e-38 3
0.123965 0.196114 0.410505 1.2629e-38 3
0.131455 0.197303 0.412993 1.32755e-38 3
0.138761 0.198114 0.414691 1.32751e-38 3
0.145513 0.198095 0.41465 1.47495e-38 3
0.151826 0.197506 0.413419 1.39197e-38 3
0.158274 0.197136 0.412644 1.37364e-38 3
0.165819 0.198107 0.414676 1.2907e-38 3
0.108085 0.198254 0.40128 1.25375e-38 3
0.115582 0.199896 0.404603 1.53027e-38 3
0.140714 0.211214 0.49258 1.19847e-38 3
0.147924 0.210041 0.489844 0 3
0.155352 0.209281 0.488072 0 3
0.16248 0.20821 0.485575 0 3
0.182572 0.204102 0.475992 0 3
0.196937 0.211178 0.492494 0 3
0.132713 0.21931 0.492712 1.27223e-38 3
0.13446 0.209506 0.470687 1.19836e-38 3
0.136581 0.201314 0.452281 0 3
0.195258 0.20074 0.435045 0 3
0.132206 0.234488 0.49083 1.23531e-38 3
0.174434 0.20023 0.419119 1.44729e-38 3
0.18314 0.202293 0.423438 1.50257e-38 3
0.193539 0.206008 0.431215 1.27223e-38 3
0.123405 0.201895 0.40865 1.2168e-38 3
0.130638 0.202773 0.410426 1.37364e-38 3
0.137755 0.203394 0.411683 1.45658e-38 3
0.144768 0.203811 0.412527 1.48417e-38 3
0.151477 0.203782 0.412468 1.51179e-38 3
0.157739 0.20318 0.41125 1.53027e-38 3
0.164448 0.203179 0.411247 1.40127e-38 3
0.172839 0.205175 0.415287 1.44729e-38 3
0.180621 0.206323 0.417612 1.50257e-38 3
0.187196 0.206061 0.417081 1.29992e-38 3
0.190491 0.202333 0.409536 1.21698e-38 3
0.195085 0.20019 0.405198 1.28148e-38 3
0.179626 0.204258 0.400216 1.23528e-38 3
0.146945 0.254699 0.418731 1.2262e-38 3
0.144528 0.257229 0.411843 1.41059e-38 3
0.143125 0.261387 0.407847 1.30914e-38 3
0.143125 0.268041 0.407847 1.59495e-38 3
0.167384 0.270879 0.40218 1.53938e-38 3
0.167988 0.285027 0.403631 1.2535e-38 3
0.148365 0.291875 0.403994 1.27216e-38 3
0.148365 0.298467 0.403994 1.46577e-38 3
-0.229782 0.211957 0.494311 0 3
-0.221132 0.211397 0.493007 0 3
-0.213076 0.211386 0.49298 0 3
-0.204987 0.211338 0.492869 0 3
-0.231883 0.207469 0.466111 0 3
-0.211807 0.20281 0.455643 0 3
-0.213659 0.212025 0.476346 0 3
-0.204215 0.210303 0.472477 0 3
-0.255964 0.222796 0.482846 0 3
-0.232355 0.208669 0.452228 0 3
-0.21883 0.202968 0.439873 0 3
-0.297484 0.232338 0.486329 0 3
-0.292795 0.234943 0.491781 0 3
-0.28628 0.236187 0.494385 0 3
-0.274732 0.233231 0.488198 0 3
-0.259128 0.226553 0.474219 0 3
-0.239515 0.215851 0.451817 0 3
-0.224136 0.208405 0.436233 0 3
-0.215965 0.207393 0.434114 0 3
-0.209486 0.207993 0.43537 1.21698e-38 3
-0.201099 0.206674 0.432608 0 3
-0.29739 0.228033 0.461553 0 3
-0.294151 0.231409 0.468387 0 3
-0.295346 0.238546 0.482834 0 3
-0.29275 0.242929 0.491704 0 3
-0.285978 0.243996 0.493864 0 3
-0.269545 0.236642 0.47898 0 3
-0.246807 0.22315 0.451672 0 3
-0.229007 0.213429 0.431994 0 3
-0.218986 0.21057 0.426209 0 3
-0.213259 0.211788 0.428674 0 3
-0.207931 0.2135 0.432138 0 3
-0.29739 0.235563 0.461553 0 3
-0.231558 0.216277 0.423764 0 3
-0.21746 0.20936 0.410212 0 3
-0.209778 0.208377 0.408287 0 3
-0.216854 0.246748 0.483469 0 3
-0.272425 0.254968 0.484098 0 3
-0.299873 0.219384 0.404022 0 3
-0.293294 0.219394 0.40404 0 3
-0.286702 0.219394 0.40404 0 3
-0.269652 0.24593 0.452909 0 3
-0.257624 0.269603 0.410223 0 3
-0.248676 0.273813 0.406536 0 3
-0.368299 0.212772 0.496213 0 3
-0.36012 0.212724 0.4961 0 3
-0.352107 0.212772 0.496213 0 3
-0.34549 0.213687 0.498346 0 3
-0.394819 0.222124 0.499034 0 3
-0.38393 0.220546 0.49549 0 3
-0.3739 0.219404 0.492924 0 3
-0.364526 0.218606 0.49113 0 3
-0.355639 0.21807 0.489926 0 3
-0.347705 0.218107 0.490009 0 3
-0.341072 0.218981 0.491974 0 3
-0.336259 0.221095 0.496722 0 3
-0.329871 0.222251 0.499319 0 3
-0.394731 0.230215 0.498923 0 3
-0.382497 0.227777 0.49364 0 3
-0.371668 0.226089 0.489981 0 3
-0.363531 0.226 0.489789 0 3
-0.354215 0.225158 0.487964 0 3
-0.344206 0.223826 0.485078 0 3
-0.335533 0.223322 0.483985 0 3
-0.328841 0.224143 0.485764 0 3
-0.322826 0.225477 0.488656 0 3
-0.31578 0.226141 0.490095 0 3
-0.310215 0.227928 0.493966 0 3
-0.36205 0.228026 0.477302 0 3
-0.350469 0.225584 0.472191 0 3
-0.342691 0.225536 0.47209 0 3
-0.333857 0.224773 0.470494 0 3
-0.325414 0.224245 0.469389 0 3
-0.317739 0.224233 0.469364 0 3
-0.310148 0.224282 0.469465 0 3
-0.303718 0.225193 0.471374 0 3
-0.300005 0.228219 0.477707 0 3
-0.338049 0.220181 0.445661 0 3
-0.332837 0.221551 0.448435 0 3
-0.32711 0.222633 0.450625 0 3
-0.322235 0.224358 0.454116 0 3
-0.321584 0.229174 0.463864 0 3
-0.317456 0.231685 0.468946 0 3
-0.306796 0.229435 0.464392 0 3
-0.332553 0.223754 0.438416 0 3
-0.323259 0.222282 0.43553 0 3
-0.316498 0.222524 0.436005 0 3
-0.315879 0.227195 0.445158 0 3
-0.320073 0.23563 0.461684 0 3
-0.317425 0.239312 0.4689 0 3
-0.306796 0.237012 0.464392 0 3
-0.373687 0.254005 0.48227 0 3
-0.315931 0.219366 0.416502 0 3
-0.307849 0.218452 0.414768 0 3
-0.301594 0.218825 0.415474 0 3
-0.367115 0.257267 0.473788 0 3
-0.30585 0.218945 0.403212 0 3
-0.393979 0.264806 0.460026 0 3
-0.393789 0.27218 0.459803 0 3
-0.398451 0.285151 0.456549 0 3
-0.398451 0.2926 0.456549 0 3
-0.351633 0.286195 0.435468 0 3
-0.42164 0.211104 0.492324 0 3
-0.409221 0.221107 0.496749 0 3
-0.403098 0.2222 0.499204 0 3
-0.41893 0.230093 0.498659 0 3
-0.409221 0.229212 0.496749 0 3
-0.403098 0.230344 0.499204 0 3
-0.401843 0.280067 0.460436 0 3
0.666091 0.320698 0.777495 0 3
0.662965 0.331819 0.773846 0 3
0.662776 0.344347 0.773625 0 3
0.662888 0.357029 0.773755 0 3
0.624311 0.361926 0.757582 0 3
0.607278 0.361773 0.708845 0 3
0.607138 0.373253 0.708682 0 3
0.210493 0.200744 0.486681 1.37364e-38 3
0.203569 0.209732 0.489122 0 3
0.207691 0.205907 0.480203 1.37364e-38 3
0.212557 0.20307 0.473586 0 3
0.224647 0.20088 0.451307 0 3
0.232943 0.201687 0.453121 0 3
0.239494 0.200981 0.451534 0 3
0.246141 0.200395 0.450217 0 3
0.253035 0.200038 0.449414 0 3
0.261334 0.20078 0.451083 0 3
0.27009 0.201823 0.453426 0 3
0.277353 0.201726 0.453206 0 3
0.206402 0.204753 0.443742 0 3
0.214147 0.205237 0.444791 1.23539e-38 3
0.220699 0.204584 0.443375 0 3
0.230267 0.206679 0.447916 0 3
0.238858 0.207795 0.450334 0 3
0.244098 0.206016 0.44648 0 3
0.25029 0.205121 0.444539 0 3
0.259448 0.206638 0.447827 0 3
0.269835 0.209024 0.452998 0 3
0.277586 0.209296 0.453587 0 3
0.204933 0.210484 0.440584 0 3
0.215293 0.213631 0.447171 0 3
0.223003 0.214029 0.448003 0 3
0.230784 0.214467 0.44892 0 3
0.237879 0.21426 0.448489 0 3
0.241311 0.210865 0.441381 0 3
0.247343 0.209873 0.439305 1.30914e-38 3
0.25537 0.210581 0.440787 0 3
0.213661 0.205336 0.415614 1.18936e-38 3
0.235368 0.219239 0.443754 0 3
0.238863 0.215854 0.436904 0 3
0.243863 0.213987 0.433124 0 3
0.247967 0.21146 0.42801 0 3
0.245177 0.203354 0.411603 1.22602e-38 3
0.212692 0.204659 0.401002 0 3
0.22226 0.207483 0.406535 0 3
0.236444 0.214328 0.419946 0 3
0.237718 0.209414 0.410319 0 3
0.219492 0.21145 0.401473 0 3
0.226062 0.211468 0.401507 0 3
0.23891 0.257563 0.412377 1.309e-38 3
0.240025 0.258251 0.402953 0 3
0.0581256 0.325915 0.790141 0 3
0.0709178 0.338332 0.789035 0 3
0.0192652 0.348347 0.782612 1.36453e-38 3
0.0834092 0.349603 0.785436 1.31847e-38 3
0.00370316 0.184013 0.446117 1.34624e-38 3
0.0109658 0.183744 0.445465 1.32776e-38 3
0.0182903 0.184313 0.446844 0 3
0.0255966 0.184426 0.447119 0 3
0.00366071 0.189098 0.441002 1.27248e-38 3
0.010847 0.188943 0.440641 1.26322e-38 3
0.0182084 0.190745 0.444844 1.38297e-38 3
0.0255941 0.191702 0.447075 1.30925e-38 3
0.0328358 0.191395 0.44636 0 3
0.0247738 0.199679 0.432746 1.37393e-38 3
0.0316166 0.198313 0.429786 0 3
0.0383315 0.196787 0.426479 1.22635e-38 3
0.043862 0.190583 0.413033 1.44754e-38 3
0.049467 0.186312 0.403778 0 3
0.0558087 0.185494 0.402005 0 3
0.062362 0.185477 0.401968 1.42896e-38 3
0.0697073 0.187595 0.406558 1.26301e-38 3
0.0375484 0.199583 0.417766 0 3
0.0430596 0.193713 0.405478 0 3
0.0361013 0.198445 0.401665 1.20791e-38 3
-0.110709 0.329615 0.799114 1.53949e-38 3
-0.120691 0.385055 0.779377 0 3
-0.157073 0.393349 0.770713 1.30911e-38 3
-0.0994651 0.201308 0.488046 0 3
-0.0909258 0.200039 0.484972 0 3
-0.0987958 0.207862 0.484762 0 3
-0.0897112 0.205174 0.478493 0 3
-0.0803986 0.201402 0.469697 1.30903e-38 3
-0.0920809 0.201106 0.451814 0 3
-0.084484 0.200571 0.450613 0 3
-0.0771095 0.200513 0.450481 1.47499e-38 3
-0.0697524 0.200492 0.450435 1.22602e-38 3
-0.0622959 0.200147 0.44966 1.43814e-38 3
-0.09852 0.206523 0.447578 0 3
-0.0910947 0.206245 0.446975 1.2723e-38 3
-0.0837567 0.206133 0.446733 0 3
-0.0761267 0.205213 0.44474 0 3
-0.0686779 0.20464 0.443497 1.21695e-38 3
-0.0618038 0.205845 0.446108 1.18007e-38 3
-0.0546344 0.206257 0.447001 0 3
-0.0472937 0.206049 0.446551 1.33684e-38 3
-0.039825 0.205107 0.44451 1.33684e-38 3
-0.0323248 0.203547 0.441129 1.53974e-38 3
-0.0250685 0.20307 0.440094 1.31858e-38 3
-0.0961328 0.208644 0.436733 1.1801e-38 3
-0.0890051 0.208639 0.436722 1.21698e-38 3
-0.0820087 0.208968 0.437411 0 3
-0.0749537 0.209196 0.437887 0 3
-0.067888 0.209439 0.438396 0 3
-0.061377 0.211652 0.443028 1.18014e-38 3
-0.0545668 0.213286 0.446448 0 3
-0.0472877 0.213308 0.446495 1.2907e-38 3
-0.0397578 0.212002 0.443761 1.25386e-38 3
-0.0322349 0.210159 0.439903 1.24471e-38 3
-0.0250139 0.209792 0.439136 1.29081e-38 3
-0.0958586 0.215154 0.435487 0 3
-0.0887668 0.215187 0.435553 1.28152e-38 3
-0.0818587 0.215709 0.43661 1.29996e-38 3
-0.0746396 0.215433 0.436052 1.19851e-38 3
-0.0946333 0.219419 0.429921 0 3
-0.0609165 0.224411 0.439703 1.29059e-38 3
-0.068086 0.23157 0.439674 1.2446e-38 3
-0.0457734 0.255839 0.432197 1.30914e-38 3
-0.0457734 0.26289 0.432197 0 3
-0.18339 0.206138 0.499757 0 3
-0.108674 0.203642 0.493706 0 3
-0.196121 0.210454 0.490806 0 3
-0.185702 0.207755 0.484513 0 3
-0.176572 0.206324 0.481176 0 3
-0.169914 0.207783 0.484577 0 3
-0.163632 0.209866 0.489435 0 3
-0.125151 0.21232 0.495159 0 3
-0.115829 0.210065 0.4899 0 3
-0.10741 0.209235 0.487964 0 3
-0.197102 0.210941 0.473909 0 3
-0.189464 0.211045 0.474144 0 3
-0.176423 0.204884 0.460303 0 3
-0.136699 0.201678 0.4531 0 3
-0.131026 0.20436 0.459125 0 3
-0.123123 0.203679 0.457595 0 3
-0.113662 0.200165 0.4497 0 3
-0.107713 0.20278 0.455575 0 3
-0.100455 0.203134 0.45637 0 3
-0.185903 0.206248 0.446983 0 3
-0.179588 0.207377 0.44943 0 3
-0.172649 0.207852 0.450459 0 3
-0.164787 0.207207 0.44906 0 3
-0.155947 0.205216 0.444746 0 3
-0.148475 0.204918 0.444101 0 3
-0.141468 0.205264 0.44485 0 3
-0.136699 0.209071 0.4531 0 3
-0.130926 0.211691 0.458777 0 3
-0.122588 0.210228 0.455608 0 3
-0.112898 0.206108 0.446678 0 3
-0.105342 0.205585 0.445546 0 3
-0.193713 0.206324 0.431877 0 3
-0.186644 0.206299 0.431824 0 3
-0.17932 0.205979 0.431154 0 3
-0.1721 0.205758 0.43069 0 3
-0.165895 0.206782 0.432836 1.1895e-38 3
-0.161234 0.209909 0.43938 0 3
-0.154619 0.210662 0.440957 1.18028e-38 3
-0.148223 0.211804 0.443348 0 3
-0.141344 0.212337 0.444462 0 3
-0.135415 0.214431 0.448846 0 3
-0.129906 0.217468 0.455202 0 3
-0.120674 0.214262 0.448493 0 3
-0.112142 0.211966 0.443687 0 3
-0.103834 0.209807 0.439166 0 3
-0.198371 0.210832 0.426739 0 3
-0.190146 0.209442 0.423924 0 3
-0.18358 0.209843 0.424736 0 3
-0.174148 0.206871 0.41872 0 3
-0.166711 0.206122 0.417205 0 3
-0.161955 0.208766 0.422557 0 3
-0.157598 0.212182 0.429471 0 3
-0.152901 0.215437 0.436059 0 3
-0.14741 0.217837 0.440916 0 3
-0.141326 0.21956 0.444404 0 3
-0.134818 0.220777 0.446868 0 3
-0.127792 0.221234 0.447793 1.18025e-38 3
-0.120081 0.220491 0.446289 0 3
-0.111888 0.21871 0.442685 1.28156e-38 3
-0.103312 0.215882 0.43696 1.2078e-38 3
-0.161923 0.206814 0.405223 1.18032e-38 3
-0.158845 0.211518 0.414441 0 3
-0.15459 0.215005 0.421272 1.18954e-38 3
-0.150608 0.219214 0.42952 0 3
-0.146312 0.223353 0.43763 1.1894e-38 3
-0.14146 0.227026 0.444825 0 3
-0.13514 0.228612 0.447933 1.24478e-38 3
-0.128265 0.229387 0.449452 0 3
-0.121153 0.229807 0.450275 0 3
-0.112618 0.227407 0.445572 0 3
-0.102911 0.222145 0.435263 1.31833e-38 3
-0.160396 0.211412 0.401401 0 3
-0.156732 0.215378 0.40893 0 3
-0.151151 0.216943 0.411902 0 3
-0.146158 0.219538 0.416829 0 3
-0.142162 0.223957 0.425219 0 3
-0.139469 0.230985 0.438564 0 3
-0.134808 0.23534 0.446832 0 3
-0.128259 0.236708 0.44943 0 3
-0.121081 0.237012 0.450006 0 3
-0.11195 0.233284 0.442928 1.27223e-38 3
-0.185427 0.251976 0.464043 0 3
-0.184473 0.258212 0.461656 0 3
-0.173101 0.259977 0.451638 0 3
-0.179912 0.276702 0.401109 1.18018e-38 3
-0.378061 0.210102 0.509366 0 3
-0.364928 0.207361 0.502723 0 3
-0.358175 0.208204 0.504765 0 3
-0.35507 0.211256 0.512166 0 3
-0.354875 0.216229 0.524222 0 3
-0.352773 0.220256 0.533985 0 3
-0.399343 0.220991 0.515381 0 3
-0.38033 0.214997 0.501401 0 3
-0.342156 0.216726 0.505434 0 3
-0.340292 0.220868 0.515094 0 3
-0.323152 0.223237 0.501535 0 3
-0.319322 0.226323 0.508467 0 3
-0.314638 0.228951 0.514371 0 3
-0.308303 0.230489 0.517827 0 3
-0.301776 0.231966 0.521145 0 3
-0.307026 0.231601 0.501927 0 3
-0.30235 0.234324 0.507829 0 3
-0.396178 0.252608 0.511296 0 3
-0.3901 0.256947 0.503452 0 3
-0.301035 0.273017 0.534938 0 3
0.888296 0.305901 0.772165 0 3
0.877689 0.314697 0.762945 0 3
0.817362 0.327912 0.764735 0 3
0.817362 0.340389 0.764735 0 3
0.550107 0.203899 0.514687 0 3
0.523463 0.211709 0.513264 0 3
0.513598 0.219446 0.511778 0 3
0.510549 0.226444 0.50874 0 3
-0.0930281 0.196569 0.496184 1.20776e-38 3
-0.084918 0.196535 0.4961 1.27216e-38 3
-0.0823659 0.19848 0.48119 1.33669e-38 3
-0.0721323 0.192133 0.465804 1.41952e-38 3
-0.0182109 0.184805 0.448037 0 3
-0.0108989 0.18477 0.447953 1.1894e-38 3
-0.00359111 0.184815 0.448062 1.24471e-38 3
-0.0707023 0.195773 0.456569 1.39187e-38 3
-0.062798 0.194365 0.453284 1.63168e-38 3
-0.0551407 0.193447 0.451144 1.43814e-38 3
-0.0477062 0.193148 0.450446 1.31836e-38 3
-0.0402864 0.192811 0.44966 1.37371e-38 3
-0.0328391 0.192162 0.448147 1.5213e-38 3
-0.0254168 0.19133 0.446208 1.55818e-38 3
-0.0180632 0.190556 0.444402 1.4752e-38 3
-0.0108214 0.190713 0.444768 1.34613e-38 3
-0.00355469 0.190177 0.443518 0 3
-0.0548092 0.1996 0.448432 1.48431e-38 3
-0.0474288 0.199331 0.447827 1.41059e-38 3
-0.0399633 0.198542 0.446053 1.39215e-38 3
-0.032495 0.197384 0.443453 1.41981e-38 3
-0.0251519 0.19654 0.441557 1.43832e-38 3
-0.402899 0.182886 0.461646 0 3
-0.419357 0.197751 0.499168 0 3
-0.402899 0.190418 0.461646 0 3
-0.406897 0.199777 0.484337 0 3
0.463318 0.162182 0.426969 0 3
0.467443 0.161202 0.424389 0 3
0.474039 0.16109 0.424095 0 3
0.480508 0.16094 0.423698 0 3
0.407078 0.191895 0.484386 0 3
0.463318 0.169148 0.426969 0 3
0.467443 0.168126 0.424389 0 3
0.474039 0.16801 0.424095 0 3
0.480508 0.167853 0.423698 0 3
0.444556 0.176965 0.429031 0 3
0.452039 0.177154 0.42949 0 3
0.458778 0.177051 0.429239 0 3
0.464503 0.176565 0.428061 0 3
0.468334 0.175384 0.425198 0 3
0.473775 0.174832 0.423859 0 3
0.478492 0.174032 0.421921 0 3
0.431198 0.181292 0.422797 0 3
0.436428 0.180601 0.421186 0 3
0.442475 0.180265 0.420402 0 3
0.429454 0.187429 0.421086 0 3
0.435507 0.187078 0.420298 0 3
0.442354 0.187073 0.420288 0 3
0.207171 0.189079 0.497778 0 3
0.214839 0.18868 0.496729 1.19854e-38 3
0.22285 0.188601 0.496521 1.25386e-38 3
0.231964 0.189428 0.498699 1.31843e-38 3
0.254983 0.1884 0.495992 1.29067e-38 3
0.206732 0.196782 0.496722 1.19854e-38 3
0.212921 0.195027 0.492293 1.29996e-38 3
0.218738 0.193073 0.487359 1.23542e-38 3
0.226481 0.192895 0.48691 0 3
0.234009 0.192552 0.486045 1.27226e-38 3
0.2393 0.190451 0.480743 0 3
0.245966 0.189544 0.478454 0 3
0.215262 0.19783 0.479615 1.1801e-38 3
0.221909 0.196785 0.477081 1.22617e-38 3
0.227521 0.194924 0.47257 0 3
0.233835 0.193766 0.469764 0 3
0.241396 0.193684 0.469563 0 3
0.245421 0.190856 0.462707 0 3
0.250551 0.189031 0.458283 0 3
0.257463 0.188617 0.45728 0 3
0.265722 0.189185 0.458657 0 3
0.274477 0.190065 0.460791 0 3
0.280637 0.18915 0.458572 0 3
0.216222 0.199326 0.464854 0 3
0.222425 0.198095 0.461985 0 3
0.255943 0.19492 0.45458 0 3
0.263544 0.195056 0.454897 0 3
0.270713 0.194874 0.454473 0 3
0.2776 0.194504 0.45361 0 3
0.201166 0.199664 0.404134 1.29992e-38 3
-0.294666 0.224987 0.592312 0 3
-0.274816 0.216946 0.571143 0 3
-0.256045 0.209222 0.550808 0 3
-0.246928 0.209112 0.550518 0 3
-0.208626 0.226 0.594979 0 3
-0.284371 0.226453 0.571619 0 3
-0.264902 0.218102 0.55054 0 3
-0.250778 0.21372 0.539478 0 3
-0.236983 0.20931 0.528347 0 3
-0.279486 0.231728 0.561798 0 3
-0.257557 0.220788 0.535275 0 3
-0.241316 0.214126 0.519122 0 3
-0.22808 0.209743 0.508496 0 3
-0.21855 0.208566 0.505643 0 3
-0.209515 0.207787 0.503756 0 3
-0.200744 0.207217 0.502373 0 3
-0.267166 0.230276 0.537035 0 3
-0.240836 0.214621 0.500524 0 3
-0.294568 0.232991 0.523448 0 3
-0.293933 0.239429 0.537913 0 3
-0.289648 0.243201 0.546387 0 3
-0.267315 0.231576 0.52027 0 3
-0.296838 0.236534 0.512618 0 3
-0.286794 0.235156 0.509632 0 3
-0.275665 0.23278 0.504483 0 3
-0.228927 0.244393 0.529651 0 3
-0.493087 0.227358 0.598554 0 3
-0.477674 0.224701 0.59156 0 3
-0.477093 0.229432 0.579139 0 3
-0.473072 0.232095 0.585862 0 3
-0.466601 0.233641 0.589764 0 3
-0.463248 0.236846 0.597854 0 3
-0.45666 0.22865 0.554335 0 3
-0.44889 0.229301 0.555913 0 3
-0.439598 0.229186 0.555634 0 3
-0.426324 0.226945 0.550202 0 3
-0.402157 0.218685 0.530176 0 3
-0.422723 0.215757 0.503175 0 3
-0.427736 0.22264 0.519225 0 3
-0.426286 0.226368 0.527921 0 3
-0.416819 0.225905 0.526841 0 3
-0.484731 0.25682 0.576983 0 3
0.795646 0.313718 0.862978 0 3
0.795486 0.327732 0.862805 0 3
0.719283 0.33261 0.839583 0 3
0.485872 0.214333 0.58959 0 3
0.472004 0.217561 0.572763 0 3
0.431684 0.211715 0.534416 0 3
0.409524 0.213429 0.517433 0 3
0.40037 0.221477 0.516515 0 3
0.414973 0.237046 0.513728 0 3
0.208662 0.216153 0.594597 1.44747e-38 3
0.252144 0.211931 0.582982 1.22624e-38 3
0.200058 0.206629 0.52158 1.20794e-38 3
0.201588 0.216786 0.525571 1.26322e-38 3
0.206782 0.213297 0.517114 0 3
0.208304 0.206444 0.5005 1.21698e-38 3
0.294971 0.231347 0.539532 0 3
0.257518 0.238077 0.534874 1.2907e-38 3
-0.120825 0.199545 0.548911 0 3
-0.110018 0.196243 0.539826 0 3
-0.100258 0.194397 0.534748 0 3
-0.10681 0.199072 0.524088 0 3
-0.101913 0.198102 0.500056 0 3
-0.755999 0.362314 0.996657 0 3
-0.751977 0.376561 0.991354 0 3
-0.717594 0.374779 0.946027 0 3
0.354141 0.173218 0.498879 0 3
0.337274 0.181041 0.49801 0 3
0.344681 0.180665 0.496975 0 3
0.35055 0.179518 0.49382 0 3
0.378228 0.181825 0.458968 0 3
0.349019 0.178222 0.432079 0 3
0.355024 0.177699 0.43081 0 3
0.361943 0.177645 0.43068 0 3
0.341802 0.185181 0.431866 0 3
0.348634 0.185068 0.431602 0 3
0.35498 0.184705 0.430758 0 3
0.361348 0.184368 0.429972 0 3
0.339929 0.191174 0.4295 0 3
0.347149 0.191291 0.429763 0 3
0.354783 0.191627 0.430518 0 3
0.361348 0.191384 0.429972 0 3
0.356412 0.199564 0.432496 0 3
0.362521 0.199043 0.431368 0 3
0.476996 0.312253 0.899311 0 3
0.450167 0.308538 0.848728 1.25379e-38 3
0.440103 0.315178 0.829754 1.23524e-38 3
0.433853 0.324048 0.817971 0 3
0.403727 0.347781 0.811072 0 3
0.147089 0.201835 0.581298 0 3
0.146322 0.210217 0.578268 1.26308e-38 3
0.190726 0.217828 0.599204 0 3
0.199766 0.217028 0.597004 1.18932e-38 3
0.100137 0.202567 0.533288 1.29996e-38 3
0.108825 0.202542 0.533223 1.45669e-38 3
0.117583 0.202643 0.533487 1.26308e-38 3
0.127302 0.20427 0.537773 1.22627e-38 3
0.140774 0.211323 0.556341 1.33684e-38 3
0.16141 0.227624 0.599256 1.29067e-38 3
0.19598 0.222472 0.585691 1.39215e-38 3
0.192817 0.208704 0.549446 1.34606e-38 3
0.198132 0.20493 0.53951 1.36457e-38 3
0.108122 0.209878 0.529781 1.29074e-38 3
0.117207 0.210671 0.531783 0 3
0.12628 0.211334 0.533456 1.18014e-38 3
0.136076 0.213044 0.537773 1.26308e-38 3
0.146195 0.215023 0.542766 1.26301e-38 3
0.158991 0.220488 0.556561 1.32755e-38 3
0.1703 0.223411 0.56394 1.28145e-38 3
0.173401 0.215819 0.544775 1.37364e-38 3
0.181342 0.214697 0.541945 1.34606e-38 3
0.188845 0.213185 0.538127 1.3645e-38 3
0.19553 0.210926 0.532425 1.28159e-38 3
0.107654 0.217576 0.527486 1.1801e-38 3
0.115954 0.217002 0.526097 1.19858e-38 3
0.12453 0.21699 0.526065 1.2078e-38 3
0.13305 0.216886 0.525815 1.27234e-38 3
0.14057 0.215264 0.521883 1.26301e-38 3
0.152765 0.220579 0.534767 0 3
0.16602 0.226766 0.549767 0 3
0.168776 0.218714 0.530246 1.18003e-38 3
0.177175 0.218403 0.529492 0 3
0.18511 0.217576 0.527486 1.19854e-38 3
0.193207 0.217002 0.526097 1.19858e-38 3
0.107654 0.226182 0.527486 1.40141e-38 3
0.115926 0.225532 0.525971 1.19858e-38 3
0.124002 0.224617 0.523836 1.20791e-38 3
0.131499 0.222837 0.519685 1.22624e-38 3
0.136049 0.216583 0.5051 0 3
0.100005 0.237058 0.532586 0 3
0.108076 0.235709 0.529556 0 3
0.116232 0.234732 0.52736 1.22624e-38 3
0.123841 0.23286 0.523154 1.28152e-38 3
0.12861 0.226233 0.508267 0 3
0.143744 0.246247 0.533667 1.33673e-38 3
0.0533041 0.20592 0.593064 0 3
0.0531782 0.215087 0.591664 1.2078e-38 3
0.0609939 0.208796 0.574359 1.20776e-38 3
0.0684104 0.202996 0.558404 1.18932e-38 3
0.0536278 0.22664 0.596665 1.33691e-38 3
0.0613471 0.219431 0.577685 0 3
0.0681363 0.211257 0.556167 1.2723e-38 3
0.0757842 0.207355 0.545893 1.23546e-38 3
0.0840631 0.205818 0.541847 1.26308e-38 3
0.0919347 0.203671 0.536196 1.20776e-38 3
0.0536202 0.236342 0.596581 1.23549e-38 3
0.0613471 0.228856 0.577685 1.24464e-38 3
0.0681363 0.220332 0.556167 1.19847e-38 3
0.0757657 0.216209 0.54576 0 3
0.083739 0.213831 0.539758 0 3
0.0916643 0.211795 0.534619 0 3
0.0997248 0.210398 0.531092 1.29996e-38 3
0.0913157 0.219679 0.532586 0 3
0.0994364 0.218429 0.529556 1.25393e-38 3
0.0994487 0.227098 0.529622 0 3
0.00432547 0.231939 0.521085 1.23549e-38 3
0.0468711 0.232119 0.52149 1.36464e-38 3
0.00430838 0.239491 0.519026 1.26308e-38 3
0.00430838 0.247959 0.519026 1.32755e-38 3
0.0043024 0.256071 0.518306 1.36442e-38 3
-0.033541 0.204452 0.588835 0 3
-0.0677737 0.201578 0.554503 0 3
-0.0594122 0.203931 0.560976 0 3
-0.050959 0.206769 0.568783 0 3
-0.0419889 0.208307 0.573014 0 3
-0.0335452 0.214085 0.588907 0 3
-0.0822511 0.201753 0.531147 0 3
-0.0758956 0.208088 0.547825 0 3
-0.0700523 0.217706 0.573146 0 3
-0.0303645 0.219878 0.533069 1.21716e-38 3
-0.151576 0.208227 0.599707 0 3
-0.139578 0.204977 0.590349 0 3
-0.128891 0.203312 0.585553 0 3
-0.180218 0.217154 0.597349 0 3
-0.168677 0.214867 0.591059 0 3
-0.157832 0.213244 0.586595 0 3
-0.146975 0.211393 0.581503 0 3
-0.133682 0.205543 0.565411 0 3
-0.198476 0.225497 0.593656 0 3
-0.187988 0.22454 0.591136 0 3
-0.177769 0.223817 0.589233 0 3
-0.167348 0.222742 0.586402 0 3
-0.155814 0.219966 0.579094 0 3
-0.142451 0.214083 0.563607 0 3
-0.129179 0.207534 0.546366 0 3
-0.117075 0.20203 0.531875 0 3
-0.198636 0.214443 0.541303 0 3
-0.190437 0.215158 0.543107 0 3
-0.183705 0.217681 0.549476 0 3
-0.178575 0.222458 0.561535 0 3
-0.171276 0.224904 0.56771 0 3
-0.161234 0.223822 0.564978 0 3
-0.149082 0.219502 0.554074 0 3
-0.136706 0.214274 0.540877 0 3
-0.124322 0.20831 0.525821 0 3
-0.112451 0.202386 0.510868 1.18018e-38 3
-0.191844 0.20646 0.500539 0 3
-0.177983 0.209369 0.507589 0 3
-0.174267 0.215002 0.521247 0 3
-0.171514 0.222462 0.539333 0 3
-0.16597 0.226912 0.550122 0 3
-0.156743 0.226549 0.549242 0 3
-0.145503 0.223056 0.540772 1.18932e-38 3
-0.132843 0.216793 0.52559 0 3
-0.119874 0.209129 0.507009 1.30925e-38 3
-0.160303 0.216145 0.504078 0 3
-0.158251 0.224917 0.524537 0 3
-0.151223 0.227217 0.529899 1.18018e-38 3
-0.138003 0.219926 0.512896 1.19858e-38 3
-0.22964 0.238491 0.68687 0 3
-0.206425 0.22538 0.649111 0 3
-0.295852 0.22352 0.614862 0 3
-0.234148 0.242753 0.667767 0 3
-0.208612 0.226833 0.623975 0 3
-0.237376 0.245712 0.646873 0 3
-0.249184 0.257562 0.650146 0 3
-0.385018 0.237555 0.684176 0 3
-0.37042 0.235372 0.677889 0 3
-0.3564 0.233434 0.672307 0 3
-0.344245 0.232632 0.669998 0 3
-0.333496 0.23276 0.670366 0 3
-0.326148 0.23535 0.677824 0 3
-0.323977 0.241989 0.696945 0 3
-0.356551 0.230329 0.63359 0 3
-0.358706 0.23864 0.656452 0 3
-0.352813 0.241943 0.665539 0 3
-0.323904 0.229172 0.63041 0 3
-0.304825 0.222746 0.612733 0 3
-0.304391 0.238043 0.654811 0 3
-0.312488 0.253264 0.696681 0 3
-0.343439 0.231816 0.61029 0 3
-0.354305 0.246291 0.648399 0 3
-0.353875 0.253563 0.667543 0 3
-0.321848 0.237938 0.626407 0 3
-0.389895 0.274477 0.692842 0 3
-0.353548 0.256321 0.647013 0 3
-0.350275 0.261764 0.660752 0 3
-0.315149 0.242993 0.613369 0 3
-0.344586 0.276632 0.670662 0 3
-0.341714 0.285177 0.665071 0 3
0.611311 0.173377 0.52396 0 3
0.618089 0.172882 0.522464 0 3
0.612289 0.16893 0.51052 0 3
0.611311 0.181926 0.52396 0 3
0.618158 0.181427 0.522522 0 3
0.613375 0.177574 0.511426 0 3
0.607882 0.173622 0.500043 0 3
0.330953 0.312062 0.943075 1.21698e-38 3
0.329384 0.325896 0.938603 1.30918e-38 3
0.34095 0.3375 0.928398 1.41981e-38 3
0.143661 0.200816 0.606882 0 3
0.157594 0.206088 0.622815 1.1801e-38 3
0.167491 0.205762 0.62183 1.20769e-38 3
0.176152 0.204043 0.616634 1.27223e-38 3
0.184346 0.201998 0.610453 1.19847e-38 3
0.193541 0.201202 0.608049 0 3
0.162757 0.209806 0.604255 0 3
0.173138 0.21044 0.606082 0 3
0.182402 0.209723 0.604016 0 3
0.191484 0.208879 0.601586 1.22613e-38 3
0.162716 0.219609 0.604103 1.19851e-38 3
0.172737 0.219818 0.604678 1.23535e-38 3
0.181708 0.218742 0.601718 1.18003e-38 3
0.173542 0.230754 0.607497 1.29059e-38 3
0.182815 0.229951 0.605382 1.56718e-38 3
0.19115 0.228112 0.600539 1.33669e-38 3
0.106102 0.265348 0.618826 1.30003e-38 3
0.106804 0.277267 0.62292 1.21698e-38 3
0.107122 0.188773 0.570487 1.33676e-38 3
0.116761 0.189309 0.572108 0 3
0.126599 0.190066 0.574393 0 3
0.101794 0.188229 0.542112 0 3
0.11036 0.187754 0.540746 0 3
0.119703 0.188574 0.543107 0 3
0.13033 0.191164 0.550567 0 3
0.101095 0.19572 0.538388 1.37371e-38 3
0.109604 0.19523 0.537041 1.44747e-38 3
0.118849 0.196027 0.539233 1.34606e-38 3
0.128951 0.198029 0.544741 1.29074e-38 3
0.0621804 0.193751 0.585532 1.25386e-38 3
0.0704046 0.190161 0.574682 1.3184e-38 3
0.0823948 0.196392 0.593511 1.28152e-38 3
0.0899993 0.191957 0.58011 1.24464e-38 3
0.0974589 0.188087 0.568415 1.25386e-38 3
0.061055 0.199625 0.574934 0 3
0.0696596 0.197426 0.568602 0 3
0.0790006 0.197586 0.569062 1.20776e-38 3
0.0856888 0.191775 0.552326 1.33691e-38 3
0.0935732 0.189493 0.545752 1.37379e-38 3
0.0763106 0.199827 0.549685 1.28152e-38 3
0.0846689 0.198397 0.545752 1.24471e-38 3
0.0929262 0.197025 0.541979 1.20783e-38 3
0.0613902 0.226013 0.68303 0 3
0.0493983 0.233156 0.671506 0 3
0.0262153 0.232824 0.640456 1.29992e-38 3
0.0355457 0.225719 0.620909 1.26301e-38 3
0.0447328 0.221057 0.608085 1.33687e-38 3
0.0355457 0.235849 0.620909 1.37371e-38 3
0.0447563 0.231099 0.608404 1.43829e-38 3
0.0254124 0.245953 0.620843 1.18014e-38 3
0.0349996 0.242201 0.61137 1.26308e-38 3
0.0444747 0.239509 0.604576 0 3
0.0966409 0.25694 0.62292 1.29996e-38 3
-0.0503039 0.18579 0.561471 0 3
-0.0423533 0.191255 0.577987 0 3
-0.0760688 0.190646 0.549075 0 3
-0.0677466 0.192454 0.554281 0 3
-0.0589028 0.193109 0.556166 0 3
-0.0502626 0.194791 0.561011 0 3
-0.041748 0.197816 0.569725 1.25383e-38 3
-0.0913004 0.193902 0.533386 0 3
-0.0829963 0.194837 0.535959 0 3
-0.0756514 0.19851 0.546062 1.20762e-38 3
-0.0980023 0.198551 0.522715 0 3
-0.0898514 0.199389 0.524921 0 3
-0.0677206 0.211584 0.639424 0 3
-0.0350238 0.203458 0.614866 0 3
-0.0972389 0.218027 0.627933 1.38275e-38 3
-0.0252186 0.215426 0.620443 0 3
-0.0250193 0.223767 0.615541 1.29081e-38 3
-0.0154642 0.231056 0.635592 1.29996e-38 3
0.476795 0.165615 0.52646 0 3
0.486548 0.166012 0.527722 0 3
0.457071 0.17324 0.523546 0 3
0.46356 0.172476 0.521237 0 3
0.47334 0.172942 0.522646 0 3
0.484679 0.173952 0.525696 0 3
0.438207 0.181047 0.521427 0 3
0.442422 0.179307 0.516418 0 3
0.452565 0.17999 0.518384 0 3
0.461772 0.180283 0.519227 0 3
0.470825 0.180505 0.519868 0 3
0.429535 0.185803 0.511108 0 3
0.437881 0.185806 0.511116 0 3
0.450238 0.187479 0.515718 0 3
0.461591 0.18868 0.519023 0 3
0.470825 0.188987 0.519868 0 3
0.420623 0.190114 0.500504 0 3
0.429646 0.190494 0.501504 0 3
0.442822 0.192666 0.507224 0 3
0.457532 0.195415 0.51446 0 3
0.469436 0.196887 0.518335 0 3
0.317609 0.207525 0.659686 1.44729e-38 3
0.325125 0.21613 0.653162 1.18925e-38 3
0.374069 0.202259 0.611244 0 3
0.32087 0.223819 0.644615 0 3
0.371169 0.210587 0.606506 1.18014e-38 3
0.138843 0.19817 0.629945 0 3
0.149589 0.198792 0.631922 0 3
0.158815 0.197444 0.627638 0 3
0.16805 0.19627 0.623906 0 3
0.176577 0.194451 0.618123 0 3
0.185035 0.192755 0.612733 1.18925e-38 3
0.193844 0.191581 0.609001 0 3
0.00661195 0.250576 0.796535 0 3
0.0196874 0.251591 0.799763 0 3
0.00657169 0.261967 0.791685 0 3
0.0194974 0.262086 0.792046 0 3
0.0326068 0.263595 0.796605 0 3
0.0457847 0.26464 0.799763 0 3
0.0583302 0.262377 0.792923 0 3
0.0065288 0.27309 0.786518 0 3
0.0191824 0.270566 0.779249 0 3
0.0317693 0.269488 0.776145 0 3
0.0440724 0.267303 0.769852 0 3
0.00648379 0.283951 0.781096 1.29996e-38 3
0.0174198 0.25725 0.707645 1.29078e-38 3
0.0295396 0.274123 0.721671 1.2723e-38 3
0.0175095 0.281784 0.711288 0 3
-0.0697029 0.244743 0.777995 0 3
-0.0563264 0.241811 0.768674 0 3
-0.0437733 0.241747 0.768468 0 3
-0.0312577 0.24192 0.769021 0 3
-0.0189285 0.244738 0.777979 0 3
-0.00632161 0.248125 0.788745 0 3
-0.0287742 0.234249 0.70792 0 3
-0.0188273 0.256054 0.773816 0 3
-0.00631875 0.260876 0.788389 0 3
-0.0173362 0.247401 0.712533 1.31833e-38 3
-0.00625886 0.271145 0.780916 1.22602e-38 3
-0.0058317 0.264511 0.72762 0 3
-0.0288525 0.269632 0.709848 1.20794e-38 3
-0.170692 0.199568 0.63439 0 3
-0.159014 0.197915 0.629137 0 3
-0.149287 0.19863 0.631409 0 3
-0.187105 0.206251 0.655634 0 3
-0.198406 0.21761 0.657636 0 3
-0.177899 0.206273 0.623374 0 3
-0.165322 0.203314 0.614432 0 3
-0.154788 0.202647 0.612416 0 3
-0.144868 0.202749 0.612723 0 3
-0.187147 0.215382 0.620314 0 3
-0.173195 0.210721 0.606892 0 3
-0.162211 0.209325 0.60287 0 3
-0.192348 0.219879 0.604846 0 3
-0.39556 0.250131 0.795122 0 3
-0.375837 0.245718 0.781091 0 3
-0.358036 0.242295 0.770213 0 3
-0.35388 0.248194 0.788964 0 3
-0.395465 0.239478 0.723723 0 3
-0.392265 0.244851 0.73996 0 3
-0.39415 0.253841 0.767128 0 3
-0.365014 0.242787 0.733721 0 3
-0.340418 0.234104 0.707481 0 3
-0.333963 0.237726 0.718427 0 3
-0.329147 0.242821 0.733823 0 3
-0.320013 0.244994 0.740391 0 3
-0.314903 0.25054 0.757151 0 3
-0.308795 0.255711 0.77278 0 3
-0.322144 0.249373 0.718211 0 3
-0.317509 0.255062 0.734597 0 3
-0.312877 0.261201 0.752278 0 3
-0.304232 0.264354 0.761359 0 3
-0.312415 0.262764 0.722813 0 3
-0.311681 0.27243 0.749403 0 3
-0.304098 0.276655 0.761025 0 3
-0.498676 0.216109 0.686972 0 3
-0.487896 0.2163 0.687577 0 3
-0.478408 0.217084 0.690072 0 3
-0.495364 0.220844 0.667409 0 3
-0.484396 0.220809 0.667302 0 3
-0.475802 0.221878 0.670533 0 3
-0.466934 0.222867 0.673523 0 3
-0.458941 0.224331 0.677947 0 3
-0.458455 0.229628 0.693955 0 3
-0.495131 0.231625 0.667096 0 3
-0.484321 0.23166 0.667198 0 3
-0.474577 0.232219 0.668807 0 3
-0.465403 0.233089 0.671313 0 3
-0.458744 0.235292 0.677657 0 3
-0.458608 0.241031 0.694186 0 3
-0.404719 0.242675 0.698921 0 3
-0.499938 0.225073 0.619132 0 3
-0.466069 0.244391 0.672274 0 3
-0.457383 0.245617 0.675646 0 3
-0.49371 0.237034 0.624029 0 3
-0.405327 0.265881 0.699971 0 3
-0.453573 0.27199 0.686566 0 3
0.424759 0.207019 0.694073 0 3
0.435982 0.206971 0.693913 0 3
0.443628 0.20527 0.688211 0 3
0.456402 0.205968 0.690549 0 3
0.186852 0.235434 0.78934 0 3
0.17831 0.210184 0.704685 0 3
0.14448 0.222702 0.707929 1.25386e-38 3
-0.530864 0.208743 0.699855 0 3
-0.526462 0.213739 0.679437 0 3
-0.516789 0.214325 0.6813 0 3
-0.506883 0.214838 0.68293 0 3
-0.561419 0.225507 0.681501 0 3
-0.541963 0.222091 0.671177 0 3
-0.530039 0.221684 0.669947 0 3
-0.519524 0.221862 0.670484 0 3
-0.508347 0.221758 0.67017 0 3
-0.551588 0.227968 0.656565 0 3
-0.538143 0.226816 0.653246 0 3
-0.528932 0.227439 0.655039 0 3
-0.522668 0.22938 0.660631 0 3
-0.513509 0.230105 0.66272 0 3
-0.505584 0.231427 0.666527 0 3
-0.505055 0.222873 0.613082 0 3
-0.505349 0.2322 0.638739 0 3
-0.507759 0.23822 0.655299 0 3
-0.598557 0.265473 0.698899 0 3
-0.513839 0.232325 0.611631 0 3
-0.50417 0.247153 0.650667 0 3
0.448513 0.201273 0.713856 0 3
0.461736 0.201962 0.716301 0 3
0.471526 0.201153 0.713431 0 3
0.460301 0.230486 0.772752 0 3
0.305606 0.16761 0.594464 0 3
0.303701 0.176204 0.59076 0 3
0.330969 0.174308 0.526774 0 3
0.338078 0.173545 0.524468 0 3
0.342871 0.171661 0.518774 0 3
0.350539 0.171272 0.517598 0 3
0.357519 0.170573 0.515486 0 3
0.363829 0.169594 0.512527 0 3
0.325894 0.180098 0.518696 0 3
0.330244 0.177883 0.512315 0 3
0.333582 0.175245 0.504718 0 3
0.340398 0.174518 0.502623 0 3
0.347991 0.174213 0.501747 0 3
0.326632 0.184205 0.506712 0 3
0.33131 0.18223 0.501281 0 3
0.292575 0.165722 0.58777 0 3
0.290328 0.173966 0.583257 0 3
0.285286 0.180296 0.573128 1.21698e-38 3
0.29876 0.182819 0.581149 0 3
0.293257 0.188759 0.570443 1.24464e-38 3
0.287933 0.19447 0.560087 0 3
0.224613 0.181928 0.50045 1.1801e-38 3
0.236547 0.184873 0.508551 1.23539e-38 3
0.250465 0.189117 0.520225 1.19851e-38 3
0.258344 0.188673 0.519003 1.25379e-38 3
0.262577 0.185678 0.510765 1.23524e-38 3
0.200471 0.198529 0.522657 1.23549e-38 3
0.200597 0.190548 0.501647 1.3001e-38 3
0.241878 0.190831 0.502391 0 3
0.250103 0.190852 0.502446 1.19844e-38 3
0.200574 0.19871 0.501591 1.32769e-38 3
0.00694231 0.235805 0.836334 0 3
0.0213712 0.24478 0.868166 0 3
0.00675169 0.242601 0.813369 0 3
0.0202245 0.245051 0.821583 0 3
0.0337826 0.246169 0.825332 0 3
0.0484369 0.252361 0.846092 0 3
0.0656605 0.266224 0.892569 0 3
0.0327635 0.251802 0.800433 0 3
0.0465353 0.255716 0.812874 0 3
0.0637699 0.272702 0.866869 0 3
0.080135 0.280477 0.891586 0 3
0.0928358 0.275009 0.874203 0 3
-0.19815 0.221044 0.783979 0 3
-0.185393 0.221084 0.784122 0 3
-0.173847 0.222682 0.789789 0 3
-0.18854 0.209003 0.700724 0 3
-0.179127 0.211386 0.708713 0 3
-0.173585 0.218981 0.734179 0 3
-0.169514 0.229696 0.770102 0 3
-0.212684 0.222869 0.790454 0 3
-0.234701 0.232033 0.777938 0 3
-0.206144 0.215452 0.722347 0 3
-0.279767 0.250995 0.797869 0 3
-0.265953 0.250246 0.795487 0 3
-0.24963 0.246938 0.784971 0 3
-0.216926 0.226192 0.719022 0 3
-0.297425 0.25678 0.77601 0 3
-0.284788 0.256802 0.776077 0 3
-0.271936 0.256623 0.775535 0 3
-0.25644 0.253809 0.767031 0 3
-0.235513 0.245056 0.740578 0 3
-0.295037 0.267278 0.76978 0 3
-0.282242 0.267055 0.769136 0 3
-0.255983 0.253479 0.730038 0 3
-0.292446 0.27738 0.763019 0 3
-0.266171 0.263684 0.725343 0 3
0.645628 0.208112 0.78345 0 3
0.6435 0.220166 0.780867 0 3
0.626556 0.210207 0.745546 0 3
0.614984 0.202396 0.71784 0 3
0.615376 0.214244 0.718297 0 3
0.289223 0.2092 0.787546 0 3
0.296015 0.205005 0.771755 0 3
0.233051 0.217592 0.771737 0 3
0.234076 0.207346 0.735398 0 3
0.255344 0.215157 0.763099 0 3
0.27195 0.218496 0.774943 0 3
0.279042 0.214233 0.759824 0 3
0.282735 0.207836 0.737133 0 3
0.208048 0.230383 0.772405 0 3
0.215107 0.224594 0.752998 0 3
0.213634 0.211005 0.707439 0 3
0.225996 0.211773 0.710014 0 3
0.239092 0.213121 0.714533 0 3
0.261791 0.222505 0.745994 0 3
0.278578 0.226254 0.758563 0 3
0.211235 0.237038 0.892342 0 3
0.217999 0.228855 0.861536 0 3
0.227976 0.224831 0.846388 0 3
0.238611 0.221879 0.835277 0 3
0.251814 0.221505 0.83387 1.1801e-38 3
0.265106 0.221244 0.832887 0 3
0.27744 0.220248 0.829135 0 3
0.285902 0.216413 0.8147 0 3
0.20583 0.245159 0.869509 0 3
0.215465 0.240088 0.851522 0 3
0.226627 0.237228 0.841381 0 3
0.237192 0.234107 0.830309 0 3
-0.243523 0.255939 0.963497 0 3
-0.226019 0.253935 0.955951 0 3
-0.2106 0.254149 0.956759 0 3
-0.292745 0.232596 0.875623 0 3
-0.296105 0.238097 0.844462 0 3
-0.279243 0.235496 0.835236 0 3
-0.26508 0.235022 0.833554 0 3
-0.249712 0.233369 0.827693 0 3
-0.230996 0.22822 0.809433 0 3
-0.287756 0.244773 0.820652 0 3
-0.271701 0.242395 0.812679 0 3
-0.255275 0.239425 0.80272 0 3
-0.2981 0.255552 0.812352 0 3
-0.480641 0.208724 0.785754 0 3
-0.497063 0.21751 0.771448 0 3
-0.465137 0.208828 0.740653 0 3
-0.446646 0.205875 0.730179 0 3
-0.44448 0.210491 0.74655 0 3
-0.45202 0.220093 0.780606 0 3
-0.445451 0.223183 0.791566 0 3
-0.436751 0.225358 0.799279 0 3
-0.490216 0.210906 0.707105 0 3
-0.482616 0.212641 0.712921 0 3
-0.47224 0.213207 0.714821 0 3
-0.456862 0.211487 0.709055 0 3
-0.443729 0.210745 0.706564 0 3
-0.435506 0.212356 0.711967 0 3
-0.42798 0.214405 0.718837 0 3
-0.426135 0.219496 0.735904 0 3
-0.432164 0.229056 0.767955 0 3
-0.430186 0.234815 0.787264 0 3
-0.419055 0.235779 0.790497 0 3
-0.410798 0.238473 0.799529 0 3
-0.476321 0.221347 0.703621 0 3
-0.470493 0.224038 0.712177 0 3
-0.456825 0.223038 0.708998 0 3
-0.444104 0.22246 0.707161 0 3
-0.436089 0.224272 0.712921 0 3
-0.427996 0.226142 0.718865 0 3
-0.423145 0.229878 0.730741 0 3
-0.420213 0.234904 0.746717 0 3
-0.423931 0.244058 0.775817 0 3
-0.414852 0.246183 0.78257 0 3
-0.40704 0.249217 0.792214 0 3
-0.455701 0.234029 0.707253 0 3
-0.443656 0.233762 0.706447 0 3
-0.434382 0.234981 0.710131 0 3
-0.426774 0.237192 0.716812 0 3
-0.420844 0.240486 0.726768 0 3
-0.409469 0.24077 0.727625 0 3
-0.457263 0.24641 0.709677 0 3
-0.444028 0.245494 0.70704 0 3
-0.43417 0.246446 0.709783 0 3
-0.421791 0.245981 0.708443 0 3
-0.413844 0.259807 0.714679 0 3
-0.58386 0.213656 0.804321 0 3
-0.592142 0.221669 0.834487 0 3
-0.582274 0.234125 0.881378 0 3
-0.553128 0.228038 0.858461 0 3
-0.505924 0.213996 0.805599 0 3
-0.529484 0.225976 0.801471 0 3
-0.580348 0.207703 0.78191 0 3
-0.539429 0.204916 0.726779 0 3
-0.538018 0.208974 0.741171 0 3
-0.518509 0.206027 0.730719 0 3
-0.510742 0.207717 0.736712 0 3
-0.540523 0.225127 0.79846 0 3
-0.549808 0.21164 0.709567 0 3
-0.521549 0.209589 0.702689 0 3
-0.515292 0.211729 0.709864 0 3
-0.501543 0.210818 0.706809 0 3
-0.597369 0.25849 0.711058 0 3
-0.531942 0.27252 0.74965 0 3
-0.650549 0.227819 0.857639 0 3
-0.612704 0.234765 0.883785 0 3
-0.612518 0.227676 0.807502 0 3
-0.367472 0.220285 0.883545 0 3
-0.338626 0.220276 0.883508 0 3
-0.320662 0.217865 0.873836 0 3
-0.398166 0.227528 0.856541 0 3
-0.388892 0.230312 0.867023 0 3
-0.376791 0.231569 0.871755 0 3
-0.362758 0.23169 0.872211 0 3
-0.346742 0.230504 0.867745 0 3
-0.3298 0.228574 0.860479 0 3
-0.314576 0.227716 0.85725 0 3
-0.303385 0.229834 0.865224 0 3
-0.388171 0.227457 0.806726 0 3
-0.378641 0.22966 0.81454 0 3
-0.377008 0.236988 0.840528 0 3
-0.371022 0.242029 0.858407 0 3
-0.359685 0.243837 0.864822 0 3
-0.343822 0.242601 0.860437 0 3
-0.328238 0.241464 0.856403 0 3
-0.312317 0.239967 0.851094 0 3
-0.399813 0.239708 0.80367 0 3
-0.388026 0.240529 0.806424 0 3
-0.376197 0.241382 0.809282 0 3
-0.368186 0.244835 0.82086 0 3
-0.36286 0.250402 0.839524 0 3
-0.353707 0.253661 0.85045 0 3
-0.33928 0.253249 0.849069 0 3
-0.323366 0.251646 0.843694 0 3
-0.306379 0.249027 0.834914 0 3
-0.348524 0.253665 0.806356 0 3
-0.332872 0.251777 0.800353 0 3
-0.323036 0.254314 0.808418 0 3
-0.314191 0.25788 0.819755 0 3
-0.695252 0.244283 0.979797 0 3
-0.679266 0.244283 0.979797 0 3
-0.66328 0.244283 0.979797 0 3
-0.615376 0.241472 0.909034 0 3
1.17542 0.260216 1.11679 0 3
1.11424 0.276817 1.11029 0 3
1.15974 0.274722 1.10188 0 3
0.909278 0.238226 1.02241 0 3
0.915704 0.252084 1.01109 0 3
0.915753 0.268595 1.01114 0 3
0.919905 0.291639 1.03436 0 3
0.603919 0.20289 0.870755 0 3
0.612144 0.200926 0.862327 0 3
0.627593 0.201369 0.864227 0 3
0.644099 0.202124 0.867468 0 3
0.653058 0.200529 0.860622 0 3
0.608116 0.213581 0.856653 0 3
0.623499 0.214064 0.85859 0 3
0.640016 0.214906 0.861969 0 3
0.64889 0.213201 0.85513 0 3
0.652043 0.209727 0.841198 0 3
0.660753 0.208148 0.834862 0 3
0.668233 0.206252 0.827259 0 3
0.619551 0.226628 0.853153 0 3
0.638612 0.228467 0.860077 0 3
0.648858 0.227142 0.855088 0 3
0.652043 0.223452 0.841198 0 3
0.659317 0.221287 0.833047 0 3
0.664748 0.218603 0.822944 0 3
0.63665 0.241755 0.857435 0 3
0.648473 0.24095 0.85458 0 3
0.651278 0.236898 0.840211 0 3
0.658212 0.234485 0.831651 0 3
0.651632 0.227452 0.806708 0 3
0.635614 0.255328 0.856039 0 3
0.646931 0.254287 0.852548 0 3
0.65302 0.251277 0.842458 0 3
0.69475 0.246574 0.826691 0 3
0.619766 0.282405 0.85345 0 3
0.608648 0.291014 0.83814 0 3
0.569387 0.200732 0.861497 0 3
0.597167 0.205454 0.881763 0 3
0.558442 0.205585 0.824582 0 3
0.595049 0.213908 0.857966 0 3
0.574708 0.215056 0.809592 0 3
0.594251 0.230725 0.818315 0 3
-0.0804513 0.209229 0.897965 0 3
-0.0656462 0.208739 0.89586 0 3
-0.0510167 0.208686 0.895631 0 3
-0.0362871 0.208017 0.892759 0 3
-0.0217565 0.208355 0.894209 1.23542e-38 3
-0.0803094 0.223485 0.896381 0 3
-0.0656429 0.223344 0.895814 0 3
-0.0510167 0.223299 0.895631 0 3
-0.0362871 0.222582 0.892759 0 3
-0.0217565 0.222944 0.894209 0 3
-0.0946203 0.237322 0.893414 0 3
-0.0787316 0.233432 0.87877 0 3
-0.065199 0.236351 0.889757 0 3
-0.0510337 0.237991 0.89593 0 3
-0.0362871 0.237148 0.892759 0 3
-0.021785 0.237845 0.895383 0 3
-0.0900506 0.239734 0.850267 0 3
-0.0750446 0.236167 0.837617 0 3
-0.0610638 0.234957 0.833324 0 3
-0.0469046 0.23217 0.823442 0 3
-0.0331936 0.230256 0.816651 0 3
-0.0198732 0.2303 0.816807 0 3
-0.0065905 0.231847 0.822295 0 3
-0.0891894 0.251181 0.842135 0 3
-0.0747232 0.248763 0.834029 0 3
-0.061058 0.248529 0.833245 0 3
-0.0468705 0.245426 0.822842 0 3
-0.0327871 0.240596 0.806648 0 3
-0.0194711 0.238696 0.800278 0 3
-0.00645258 0.240131 0.805087 0 3
-0.0933834 0.277378 0.881735 0 3
-0.387547 0.217116 0.931813 0 3
-0.370591 0.216095 0.927428 0 3
-0.354618 0.215583 0.925232 0 3
-0.355299 0.2256 0.968224 0 3
-0.360604 0.224995 0.902434 0 3
-0.32161 0.228676 0.917199 0 3
-0.328857 0.24524 0.983637 0 3
-0.302545 0.252715 0.951362 0 3
-0.419951 0.20336 0.872773 0 3
-0.416737 0.208887 0.896493 0 3
-0.460507 0.210115 0.842755 0 3
-0.447002 0.210231 0.843217 0 3
-0.433049 0.210136 0.842836 0 3
-0.4198 0.210388 0.843846 0 3
-0.414181 0.21461 0.860781 0 3
-0.488637 0.218012 0.820718 0 3
-0.47149 0.216288 0.81423 0 3
-0.457738 0.216068 0.8134 0 3
-0.44794 0.217756 0.819755 0 3
-0.437934 0.219444 0.826111 0 3
-0.422807 0.218592 0.822902 0 3
-0.409871 0.218854 0.823888 0 3
-0.40351 0.222763 0.838604 0 3
-0.42655 0.226868 0.804635 0 3
-0.413876 0.227117 0.80552 0 3
-0.400038 0.226723 0.804121 0 3
-0.48056 0.21793 0.935305 0 3
-0.41193 0.213987 0.918384 0 3
-0.401028 0.216188 0.927829 0 3
-0.414294 0.238979 0.958522 0 3
0.738366 0.154408 0.71258 0 1
0.749992 0.154408 0.71258 0 1
0.756193 0.181473 0.778839 0 3
0.600275 0.14899 0.687577 0 3
0.600418 0.160246 0.687741 0 3
0.689697 0.162779 0.698612 0 3
0.602222 0.171983 0.689807 0 3
0.605213 0.169666 0.680514 0 3
0.607334 0.184792 0.695662 0 3
0.607376 0.181415 0.682947 0 3
0.589057 0.14899 0.687577 0 3
0.596007 0.162098 0.695689 0 3
0.542248 0.191806 0.609715 0 3
0.502532 0.173315 0.799834 0 3
0.593456 0.153017 0.70616 0 3
0.501174 0.189057 0.758289 0 3
0.512785 0.196399 0.739355 0 3
0.339984 0.153017 0.70616 0 3
0.342441 0.184483 0.791758 0 3
0.337762 0.175347 0.752551 0 3
0.334955 0.167791 0.720118 0 3
0.31921 0.199025 0.798271 0 3
0.325014 0.1947 0.780923 0 3
0.32401 0.186776 0.749143 0 3
0.321849 0.178786 0.717095 0 3
0.32826 0.175951 0.705724 0 3
0.323921 0.198944 0.748937 0 3
0.321849 0.190486 0.717095 0 3
0.368439 0.190378 0.716688 0 3
0.311868 0.212311 0.979797 0 3
0.327854 0.212311 0.979797 0 3
0.335453 0.207132 0.955899 0 3
0.342691 0.202201 0.93314 0 3
0.307849 0.225355 0.967172 0 3
0.321436 0.223828 0.960617 0 3
0.335064 0.22247 0.95479 0 3
0.343197 0.217746 0.934517 0 3
0.345557 0.209918 0.900919 0 3
0.300488 0.235369 0.944046 0 3
0.316326 0.235693 0.945346 0 3
0.330485 0.234795 0.941742 0 3
0.315659 0.296762 0.943354 0 3
0.2069 0.203411 0.938728 0 3
0.224909 0.205877 0.950106 0 3
0.241877 0.207132 0.955899 0 3
0.26391 0.212311 0.979797 0 3
0.279896 0.212311 0.979797 0 3
0.295882 0.212311 0.979797 0 3
0.210626 0.222667 0.955634 0 3
0.227143 0.223577 0.959542 0 3
0.23965 0.220678 0.947101 0 3
0.256233 0.221656 0.951296 0 3
0.273161 0.222804 0.956222 0 3
0.290804 0.224379 0.962984 0 3
0.204894 0.231775 0.929629 0 3
0.218731 0.230373 0.924006 0 3
0.231723 0.22832 0.915773 1.18003e-38 3
0.245523 0.227263 0.911534 0 3
0.260591 0.227434 0.912219 0 3
0.27942 0.230692 0.925284 0 3
0.200623 0.241794 0.910249 0 3
0.104049 0.212311 0.979797 0 3
0.120035 0.212311 0.979797 0 3
0.136021 0.212311 0.979797 0 3
0.150131 0.20969 0.967701 0 3
0.159047 0.201004 0.927618 0 3
0.174182 0.201004 0.927618 0 3
0.189316 0.201004 0.927618 0 3
0.102811 0.22558 0.968136 0 3
0.119443 0.22717 0.974962 0 3
0.136268 0.22871 0.981572 0 3
0.151263 0.227178 0.974997 0 3
0.162399 0.220695 0.94717 0 3
0.175313 0.217543 0.933646 0 3
0.191908 0.219098 0.940319 0 3
0.102202 0.239945 0.962398 0 3
0.118541 0.241241 0.967597 0 3
0.134528 0.241601 0.969039 0 3
0.150397 0.241694 0.969414 0 3
0.162162 0.235804 0.945789 0 3
0.175266 0.232713 0.933392 0 3
0.190403 0.232601 0.932941 0 3
0.115661 0.250784 0.944092 0 3
0.13093 0.250527 0.943123 0 3
0.145663 0.249405 0.9389 0 3
0.159775 0.247536 0.931863 0 3
0.17336 0.245245 0.92324 0 3
0.186981 0.243369 0.916175 0 3
0.115563 0.265963 0.943293 0 3
0.129086 0.26217 0.929843 0 3
0.142344 0.258693 0.91751 0 3
0.156951 0.258096 0.915393 0 3
0.170433 0.255914 0.907655 0 3
0.183918 0.254085 0.901167 0 3
0.00788672 0.205877 0.950106 0 3
0.0235309 0.207132 0.955899 0 3
0.00756293 0.21229 0.911099 1.2723e-38 3
0.0223719 0.211758 0.908817 0 3
0.0383555 0.218337 0.937051 0 3
0.0545032 0.221833 0.952056 0 3
0.0711689 0.22542 0.967449 0 3
0.0870671 0.225714 0.968713 0 3
0.00756293 0.227155 0.911099 0 3
0.0223066 0.225925 0.906164 0 3
0.0378594 0.230603 0.924929 0 3
0.0537837 0.234233 0.939488 0 3
0.0697175 0.236285 0.947719 0 3
0.0855443 0.237295 0.95177 0 3
0.00756575 0.242111 0.911439 0 3
0.0224953 0.242745 0.913827 0 3
0.0377017 0.244671 0.921078 0 3
0.0527697 0.244856 0.921776 0 3
0.0673639 0.243249 0.915725 0 3
0.0820343 0.24245 0.912718 0 3
0.0988901 0.247364 0.931215 0 3
0.0374221 0.257773 0.914246 0 3
0.0525244 0.258687 0.917491 0 3
0.0670912 0.257144 0.912017 0 3
0.0816704 0.2562 0.908669 0 3
0.0988336 0.262407 0.930682 0 3
0.0813067 0.269819 0.904623 0 3
0.0994107 0.279212 0.936116 0 3
-0.0982428 0.201004 0.927618 0 3
-0.00752368 0.203411 0.938728 0 3
-0.095916 0.21102 0.905648 0 3
-0.0072891 0.211908 0.909459 1.21698e-38 3
-0.0955337 0.224896 0.902039 0 3
-0.0072891 0.226746 0.909459 0 3
-0.00728819 0.241554 0.909346 0 3
-0.137459 0.214998 0.992199 0 3
-0.119755 0.212311 0.979797 0 3
-0.137813 0.231781 0.994752 0 3
-0.113432 0.216243 0.928063 0 3
-0.133368 0.240012 0.962665 0 3
-0.11197 0.228403 0.916105 0 3
-0.197563 0.257503 0.969386 0 3
-0.180892 0.256292 0.964827 0 3
-0.162338 0.251928 0.948398 0 3
-0.144075 0.247143 0.930383 0 3
-0.12602 0.241631 0.909632 0 3
-0.11012 0.239328 0.900964 0 3
-0.169283 0.254575 0.902906 0 3
-0.162105 0.267017 0.947034 0 3
-0.144075 0.262323 0.930383 0 3
-0.125823 0.25607 0.908208 0 3
-0.119436 0.291463 0.977189 0 3
-0.437756 0.184618 0.851997 0 3
-0.423855 0.184618 0.851997 0 3
-0.426167 0.191919 0.885692 0 3
-0.424478 0.198811 0.85325 0 3
-0.738948 0.220583 1.01797 0 3
-0.72234 0.220583 1.01797 0 3
-0.751656 0.246818 1.05929 0 3
-0.768939 0.264101 1.05929 0 3
1.54113 0.257475 1.28498 0 1
1.5621 0.257475 1.28498 0 1
1.54113 0.27844 1.28498 0 1
1.5621 0.27844 1.28498 0 1
0.873006 0.166201 0.829458 0 1
0.886539 0.166201 0.829458 0 1
0.872687 0.176926 0.816498 0 1
0.886009 0.176926 0.816498 0 1
0.659982 0.143434 0.715833 0 1
0.671661 0.143434 0.715833 0 1
0.677157 0.142136 0.709355 0 1
0.68873 0.142136 0.709355 0 1
0.659982 0.155113 0.715833 0 1
0.671661 0.155113 0.715833 0 1
0.671083 0.152331 0.702993 0 1
0.682553 0.152331 0.702993 0 1
0.694023 0.152331 0.702993 0 1
0.653716 0.184834 0.793264 0 3
0.619168 0.171667 0.736755 0 3
0.646028 0.195451 0.783936 0 3
0.620417 0.184058 0.738241 0 3
0.603172 0.175534 0.704053 0 3
0.620604 0.196162 0.738464 0 3
0.606354 0.188008 0.707767 0 3
0.615537 0.198792 0.705058 0 3
0.412832 0.142782 0.71258 0 1
0.426396 0.143434 0.715833 0 1
0.489482 0.160265 0.799834 0 1
0.412832 0.154408 0.71258 0 3
0.426396 0.155113 0.715833 0 3
0.474943 0.168167 0.776077 0 3
0.405833 0.163219 0.700498 0 3
0.420576 0.164516 0.706063 0 3
0.445976 0.1698 0.728744 0 3
0.489001 0.181347 0.778298 0 3
0.441112 0.179708 0.720795 0 3
0.469533 0.18632 0.747313 0 3
0.486283 0.188082 0.754381 0 3
0.434659 0.188668 0.710251 0 3
0.45683 0.193142 0.727094 0 3
0.469787 0.193593 0.728791 0 3
0.477935 0.192088 0.723128 0 3
0.487744 0.191308 0.720191 0 3
0.406448 0.197806 0.70156 0 3
0.41743 0.197586 0.70078 0 3
0.432134 0.199092 0.706124 0 3
0.479703 0.199711 0.708317 0 3
-0.193367 0.206658 1.03137 0 3
-0.168586 0.218139 1.08866 0 3
-0.14012 0.202658 1.0114 0 1
-0.192104 0.222024 1.02462 0 3
-0.175386 0.222024 1.02462 0 3
-0.168586 0.235901 1.08866 0 3
-0.192288 0.23897 1.02561 0 3
-0.177965 0.242252 1.03969 0 3
-0.162748 0.24488 1.05097 0 3
-0.199228 0.264934 1.06263 0 3
-0.178206 0.259567 1.0411 0 3
-0.155908 0.251014 1.0068 0 3
0.600704 0.159415 0.866119 0 1
0.614835 0.159415 0.866119 0 1
0.608116 0.17165 0.856653 0 1
0.625511 0.172593 0.86136 0 1
0.665147 0.179497 0.895814 0 1
0.672082 0.177469 0.885692 0 1
0.611457 0.186647 0.86136 0 3
0.625511 0.186647 0.86136 0 3
0.657631 0.191919 0.885692 0 3
0.653618 0.186647 0.86136 0 3
0.639559 0.178788 0.825092 0 3
0.653021 0.178788 0.825092 0 3
0.650796 0.195628 0.839589 0 3
0.653524 0.192398 0.825727 0 3
0.665395 0.191936 0.823746 0 3
0.51304 0.1543 0.838329 0 1
0.526718 0.1543 0.838329 0 1
0.540396 0.1543 0.838329 0 1
0.566185 0.157673 0.856653 0 1
0.586573 0.159415 0.866119 0 1
0.507713 0.161917 0.80808 0 1
0.534678 0.166201 0.829458 0 1
0.560064 0.169794 0.847392 0 1
0.58335 0.172593 0.86136 0 1
0.594139 0.17165 0.856653 0 1
0.537522 0.18069 0.83387 0 3
0.560064 0.18362 0.847392 0 3
0.586573 0.187678 0.866119 0 3
0.597403 0.186647 0.86136 0 3
0.53174 0.192205 0.824901 0 3
0.367919 0.127673 0.693662 0 1
0.379237 0.127673 0.693662 0 1
0.390554 0.127673 0.693662 0 1
0.353474 0.137772 0.687577 0 3
0.364692 0.137772 0.687577 0 3
0.379237 0.138991 0.693662 0 1
0.390554 0.138991 0.693662 0 1
0.345284 0.150308 0.693662 0 3
0.353474 0.14899 0.687577 0 3
0.364692 0.14899 0.687577 0 3
0.382623 0.151651 0.699855 0 3
0.394041 0.151651 0.699855 0 3
0.335934 0.162578 0.697747 0 3
0.342365 0.16026 0.687797 0 3
0.351455 0.159293 0.68365 0 3
0.356622 0.156663 0.672363 0 3
0.372057 0.158566 0.68053 0 3
0.388644 0.160836 0.690269 0 3
0.334161 0.173044 0.694066 0 3
0.334485 0.167535 0.671967 0 3
0.338683 0.164253 0.658806 0 3
0.346922 0.163074 0.654075 0 3
0.360741 0.164509 0.65983 0 3
0.379631 0.168106 0.67426 0 3
0.397185 0.170927 0.685571 0 3
0.336118 0.168335 0.633705 0 3
0.356554 0.17324 0.652172 1.41052e-38 3
0.379539 0.179064 0.674097 0 3
0.397185 0.182112 0.685571 0 3
0.323436 0.189412 0.671789 0 3
0.321271 0.170781 0.605713 0 3
0.348612 0.179785 0.637645 0 3
0.380807 0.190698 0.67635 0 3
0.320536 0.198576 0.665766 1.18003e-38 3
0.318801 0.179275 0.601055 0 3
0.211977 0.17702 0.961764 0 1
0.231937 0.180339 0.979797 0 1
0.26725 0.182621 0.992199 0 1
0.283439 0.182621 0.992199 0 1
0.295882 0.180339 0.979797 0 1
0.2069 0.188096 0.938728 0 3
0.22628 0.191536 0.955899 0 3
0.247924 0.196325 0.979797 0 3
0.26391 0.196325 0.979797 0 3
0.279896 0.196325 0.979797 0 3
0.295882 0.196325 0.979797 0 3
0.104371 0.213735 1.16124 0 1
0.104371 0.232681 1.16124 0 3
0.103604 0.249777 1.1527 0 3
0.0294586 0.220261 1.1967 0 1
0.0475321 0.213735 1.16124 0 1
0.0664785 0.213735 1.16124 0 1
0.0854249 0.213735 1.16124 0 1
0.0294586 0.239786 1.1967 0 3
0.0475321 0.232681 1.16124 0 3
0.0664785 0.232681 1.16124 0 3
0.0854249 0.232681 1.16124 0 3
0.0478868 0.253505 1.16991 0 3
0.0664785 0.251628 1.16124 0 3
0.0847968 0.249777 1.1527 0 3
-0.224997 0.203199 1.104 0 1
-0.206985 0.203199 1.104 0 1
-0.297917 0.23618 1.1787 0 3
-0.268588 0.227623 1.136 0 3
-0.24301 0.221211 1.104 0 3
-0.289218 0.247954 1.14429 0 3
-0.292921 0.200376 1.08866 0 3
-0.239635 0.200376 1.08866 0 1
-0.210195 0.206658 1.03137 0 3
-0.255622 0.234274 1.08116 0 3
-0.237982 0.234274 1.08116 0 3
-0.208821 0.222024 1.02462 0 3
-0.27685 0.255222 1.09535 0 3
-0.255983 0.25227 1.08268 0 3
-0.239789 0.253827 1.08937 0 3
-0.216764 0.247823 1.0636 0 3
-0.291343 0.269963 1.0828 0 3
-0.266859 0.263238 1.05582 0 3
-0.250352 0.263996 1.05887 0 3
-0.23845 0.270083 1.08328 0 3
-0.221703 0.271218 1.08783 0 3
-0.288625 0.268655 1.01137 0 3
-0.271079 0.267623 1.00748 0 3
-0.328446 0.200376 1.08866 0 3
-0.371223 0.24668 1.05869 0 3
-0.338321 0.265241 1.06386 0 3
-0.302825 0.266629 1.00374 0 3
-0.392639 0.206101 1.11977 0 3
-0.324192 0.209088 1.136 0 3
-0.392639 0.224371 1.11977 0 3
-0.37437 0.224371 1.11977 0 3
-0.3561 0.224371 1.11977 0 3
-0.342726 0.227623 1.136 0 3
-0.333869 0.234418 1.16991 0 3
-0.314781 0.234418 1.16991 0 3
-0.39833 0.246157 1.136 0 3
-0.379795 0.246157 1.136 0 3
-0.361261 0.246157 1.136 0 3
-0.342726 0.246157 1.136 0 3
-0.328959 0.249777 1.1527 0 3
-0.310152 0.249777 1.1527 0 3
-0.369152 0.257274 1.10416 0 3
-0.357193 0.261712 1.12321 0 3
-0.342822 0.264766 1.13632 0 3
-0.32539 0.26567 1.14019 0 3
-0.301386 0.260993 1.12012 0 3
-0.332893 0.275101 1.10341 0 3
-0.314929 0.275134 1.10354 0 3
0.311868 0.164353 0.979797 0 1
0.327854 0.164353 0.979797 0 1
0.34384 0.164353 0.979797 0 1
0.311868 0.180339 0.979797 0 1
0.310394 0.170735 0.927618 0 1
0.325529 0.170735 0.927618 0 1
0.340663 0.170735 0.927618 0 1
0.375812 0.180339 0.979797 0 1
0.311868 0.196325 0.979797 0 3
0.310394 0.18587 0.927618 0 3
0.325529 0.18587 0.927618 0 3
0.342691 0.186976 0.93314 0 3
0.357916 0.186976 0.93314 0 3
0.391798 0.196325 0.979797 0 3
0.353705 0.199822 0.922162 0 3
0.364463 0.197498 0.911439 0 3
0.165919 0.162324 0.967701 0 1
0.181708 0.162324 0.967701 0 1
0.152007 0.180339 0.979797 0 1
0.163896 0.17594 0.955899 0 1
0.179492 0.17594 0.955899 0 1
0.195088 0.17594 0.955899 0 1
0.104049 0.196325 0.979797 0 3
0.121555 0.19881 0.992199 0 3
0.136021 0.196325 0.979797 0 3
0.152007 0.196325 0.979797 0 3
0.159047 0.18587 0.927618 0 3
0.174182 0.18587 0.927618 0 3
0.189316 0.18587 0.927618 0 3
0.155905 0.168567 1.00492 0 1
0.109526 0.18983 1.03137 0 1
0.126353 0.18983 1.03137 0 1
0.145089 0.192361 1.04512 0 1
0.0517487 0.212068 1.26425 0 1
0.0690354 0.20228 1.2059 0 1
0.0887105 0.20228 1.2059 0 1
-0.088335 0.165386 0.985959 0 1
-0.0722485 0.165386 0.985959 0 1
-0.087783 0.180339 0.979797 0 1
-0.068378 0.171751 0.93314 0 1
-0.0531532 0.171751 0.93314 0 1
-0.0379285 0.171751 0.93314 0 1
-0.0228396 0.17278 0.938728 0 1
-0.00761487 0.174874 0.950106 0 1
-0.0826193 0.184776 0.922162 0 1
-0.0675736 0.184776 0.922162 0 1
-0.0525279 0.184776 0.922162 0 3
-0.0374822 0.184776 0.922162 0 3
-0.0225693 0.18587 0.927618 0 3
-0.007569 0.189229 0.944383 0 3
-0.0821361 0.198653 0.916769 0 3
-0.0671784 0.198653 0.916769 0 3
-0.0522207 0.198653 0.916769 0 3
-0.0372631 0.198653 0.916769 1.18932e-38 3
-0.0224366 0.199822 0.922162 1.21698e-38 3
-0.335973 0.168567 1.00492 0 1
-0.335973 0.184963 1.00492 0 3
-0.319577 0.184963 1.00492 0 3
0.160025 0.174549 1.1527 0 1
0.17624 0.172019 1.136 0 1
0.194775 0.172019 1.136 0 1
0.139171 0.190554 1.136 0 1
0.153264 0.185186 1.104 0 1
0.0517487 0.191441 1.26425 0 1
0.0723758 0.191441 1.26425 0 1
0.0930029 0.191441 1.26425 0 1
-0.646746 0.138015 0.911439 0 1
-0.631875 0.138015 0.911439 0 1
-0.646746 0.152886 0.911439 0 1
-0.631875 0.152886 0.911439 0 1
0.307639 0.203662 1.50738 0 1
0.345522 0.211809 1.56768 0 1
0.313671 0.232732 1.53694 0 1
0.345522 0.237387 1.56768 0 1
0.307639 0.25285 1.50738 0 1
0.338747 0.257808 1.53694 0 1
0.3711 0.262964 1.56768 0 1
-0.0930182 0.220634 1.633 0 1
-0.0663748 0.220634 1.633 0 1
-0.0397314 0.220634 1.633 0 1
-0.0930182 0.247278 1.633 0 1
-0.0663748 0.247278 1.633 0 1
-0.0397314 0.247278 1.633 0 1
-0.0930182 0.273921 1.633 0 1
-0.190856 0.137538 1.01797 0 1
-0.190856 0.154147 1.01797 0 1
-0.17654 0.156175 1.03137 0 1
-0.159713 0.156175 1.03137 0 1
-0.142885 0.156175 1.03137 0 1
-0.126058 0.156175 1.03137 0 1
-0.190856 0.170756 1.01797 0 1
-0.17654 0.173003 1.03137 0 1
-0.159713 0.173003 1.03137 0 1
-0.142885 0.173003 1.03137 0 1
-0.124421 0.170756 1.01797 0 1
-0.107116 0.169654 1.0114 0 1
-0.159713 0.18983 1.03137 0 1
-0.142885 0.18983 1.03137 0 1
-0.122826 0.184963 1.00492 0 1
-0.10643 0.184963 1.00492 0 1
-0.204805 0.135775 1.00492 0 1
-0.204805 0.152171 1.00492 0 1
-0.221201 0.168567 1.00492 0 1
-0.207465 0.170756 1.01797 0 1
-0.27139 0.197631 1.07375 0 3
-0.253871 0.197631 1.07375 0 3
-0.556251 0.137538 1.01797 0 1
-0.571084 0.158258 1.04512 0 1
-0.554033 0.158258 1.04512 0 1
-0.536981 0.17531 1.04512 0 1
-0.536981 0.192361 1.04512 0 3
-0.519929 0.192361 1.04512 0 3
-0.716347 0.127596 0.944383 0 1
-0.700939 0.127596 0.944383 0 1
-0.736429 0.19881 0.992199 0 3
-0.720241 0.19881 0.992199 0 3
-0.487434 0.116395 0.979797 0 1
-0.439475 0.116395 0.979797 0 1
-0.455461 0.132381 0.979797 0 1
-0.439475 0.132381 0.979797 0 1
-0.455461 0.148367 0.979797 0 1
-0.471447 0.164353 0.979797 0 1
-0.455461 0.164353 0.979797 0 1
-0.418815 0.195228 0.900963 0 3
1.53901 0.251021 2.44949 0 1
1.57897 0.251021 2.44949 0 1
1.53901 0.290986 2.44949 0 1
1.57897 0.290986 2.44949 0 1
1.45907 0.251021 2.44949 0 1
1.49904 0.251021 2.44949 0 1
1.45907 0.290986 2.44949 0 1
1.49904 0.290986 2.44949 0 1
0.209992 0.125511 1.22475 0 1
0.241285 0.131683 1.28498 0 1
0.209992 0.145493 1.22475 0 1
0.241285 0.152649 1.28498 0 1
0.206761 0.16293 1.2059 0 1
0.237393 0.191441 1.26425 0 1
-0.247643 0.100409 0.979797 0 1
-0.231657 0.100409 0.979797 0 1
-0.263629 0.116395 0.979797 0 1
-0.247643 0.116395 0.979797 0 1
-0.231657 0.116395 0.979797 0 1
-0.295601 0.132381 0.979797 0 1
-0.279615 0.132381 0.979797 0 1
-0.263629 0.132381 0.979797 0 1
-0.247643 0.132381 0.979797 0 1
-0.231657 0.132381 0.979797 0 1
-0.215671 0.132381 0.979797 0 1
-0.284917 0.143004 0.944383 0 1
-0.279615 0.148367 0.979797 0 1
-0.263629 0.148367 0.979797 0 1
-0.247643 0.148367 0.979797 0 1
-0.23459 0.150245 0.992199 0 1
-0.218401 0.150245 0.992199 0 1
-0.284917 0.158412 0.944383 0 1
-0.279615 0.164353 0.979797 0 1
-0.266966 0.166433 0.992199 0 1
-0.250778 0.166433 0.992199 0 1
-0.23459 0.166433 0.992199 0 1
-0.519406 0.100409 0.979797 0 1
-0.560359 0.114958 0.967701 0 1
-0.519406 0.116395 0.979797 0 1
0.115493 0.110718 1.28498 0 1
0.134257 0.108932 1.26425 0 1
0.154884 0.108932 1.26425 0 1
0.115493 0.131683 1.28498 0 1
0.134257 0.129559 1.26425 0 1
0.152426 0.127503 1.24419 0 1
0.170027 0.125511 1.22475 0 1
0.190009 0.125511 1.22475 0 1
0.115493 0.152649 1.28498 0 1
0.134257 0.150187 1.26425 0 1
0.152426 0.147803 1.24419 0 1
0.170027 0.145493 1.22475 0 1
0.190009 0.145493 1.22475 0 1
0.136458 0.173614 1.28498 0 1
0.152426 0.168102 1.24419 0 1
0.170027 0.165476 1.22475 0 1
0.187086 0.16293 1.2059 0 1
0.11363 0.191441 1.26425 0 1
0.134257 0.191441 1.26425 0 1
0.153645 0.189909 1.25414 0 1
0.115324 0.135076 1.56768 0 1
0.110888 0.154475 1.50738 0 1
0.110888 0.179069 1.50738 0 1
0.089746 0.135076 1.56768 0 1
0.089746 0.160654 1.56768 0 1
0.089746 0.186231 1.56768 0 1
