# .PCD v0.7 - Point Cloud Data file format
VERSION 0.7
FIELDS x y z rgb label
SIZE 4 4 4 4 4
TYPE F F F F U
COUNT 1 1 1 1 1
WIDTH 2641
HEIGHT 1
VIEWPOINT 0 0 0 1 0 0 0
POINTS 2641
DATA ascii
0.202883 0.22132 0.299572 0 3
0.207 0.2205 0.298461 0 3
0.210899 0.21949 0.297094 1.2078e-38 3
0.212248 0.215931 0.292276 1.1801e-38 3
0.214338 0.213265 0.288668 0 3
0.206779 0.219955 0.29129 1.26308e-38 3
0.208189 0.216479 0.286687 1.31833e-38 3
0.210748 0.214324 0.283834 0 3
0.21474 0.213689 0.282992 0 3
0.197914 0.216344 0.29945 1.18925e-38 3
0.19786 0.221169 0.299367 0 3
0.146035 0.221532 0.293379 0 3
0.145076 0.213092 0.282201 1.37379e-38 3
0.149569 0.212934 0.281993 1.26312e-38 3
-0.22342 0.212799 0.294542 0 3
-0.216268 0.210515 0.291381 0 3
-0.210583 0.209589 0.290099 0 3
-0.205254 0.208981 0.289258 0 3
-0.200521 0.208968 0.289239 0 3
-0.212335 0.211354 0.286082 0 3
-0.207207 0.210886 0.285448 0 3
-0.202369 0.210697 0.285192 0 3
-0.212335 0.216022 0.286082 0 3
-0.207207 0.215543 0.285448 0 3
-0.104694 0.210843 0.298577 1.30914e-38 3
-0.195828 0.208995 0.289277 0 3
-0.191885 0.209845 0.290453 0 3
-0.104007 0.214298 0.296617 0 3
-0.199251 0.212332 0.287406 0 3
-0.194067 0.211793 0.286676 0 3
-0.188831 0.211168 0.28583 0 3
-0.0989607 0.204193 0.295999 1.21684e-38 3
-0.092394 0.200424 0.290536 1.18929e-38 3
-0.0638726 0.200174 0.290174 1.22602e-38 3
-0.0596472 0.201897 0.292671 1.50261e-38 3
-0.0550373 0.202505 0.293553 1.4564e-38 3
-0.0502444 0.202491 0.293533 1.42885e-38 3
-0.0453595 0.202065 0.292915 1.20765e-38 3
-0.0981319 0.207272 0.29352 1.23528e-38 3
-0.0920552 0.204412 0.289471 1.18007e-38 3
-0.0867589 0.20307 0.28757 1.18014e-38 3
-0.0972775 0.210214 0.290964 1.22606e-38 3
-0.0915891 0.208076 0.288005 0 3
-0.0915891 0.212775 0.288005 0 3
-0.0921931 0.218908 0.289904 1.23538e-38 3
0.332974 0.428714 0.66893 1.44722e-38 3
0.315788 0.441769 0.655904 1.23538e-38 3
0.315783 0.452463 0.655893 0 3
0.305091 0.463179 0.655914 0 3
0.305639 0.474732 0.657092 0 3
0.307315 0.488114 0.660694 1.41059e-38 3
0.345498 0.477189 0.631951 0 3
0.181302 0.431391 0.673108 1.59495e-38 3
0.181302 0.442374 0.673108 1.3645e-38 3
0.101706 0.441543 0.655568 1.27241e-38 3
0.129338 0.437178 0.633737 0 3
0.499584 0.429681 0.687952 1.28145e-38 3
0.420467 0.428899 0.669218 0 3
0.44966 0.43636 0.663958 1.18932e-38 3
0.445283 0.44284 0.657494 1.23542e-38 3
0.443991 0.452251 0.655586 0 3
0.429426 0.458814 0.649733 1.23535e-38 3
0.461556 0.469748 0.650194 1.27234e-38 3
0.483658 0.470891 0.637381 1.18932e-38 3
0.490163 0.477496 0.632357 0 3
-0.0785608 0.401455 0.64276 1.28148e-38 3
-0.078356 0.410868 0.641084 1.36446e-38 3
-0.078356 0.421327 0.641084 1.37361e-38 3
-0.0995063 0.453759 0.642575 1.31843e-38 3
-0.312593 0.435281 0.696917 0 3
-0.308026 0.440124 0.686734 0 3
-0.303726 0.445029 0.677148 0 3
-0.327701 0.469818 0.681052 0 3
-0.346514 0.476243 0.674414 0 3
-0.42487 0.422549 0.676534 0 3
-0.42487 0.433588 0.676534 0 3
-0.436689 0.445423 0.677747 0 3
-0.485658 0.461532 0.66904 0 3
-0.471993 0.459154 0.650215 0 3
-0.417767 0.468437 0.64838 0 3
-0.416414 0.477464 0.64628 0 3
-0.450127 0.479001 0.634351 0 3
0.0219307 0.181335 0.298119 1.54856e-38 3
0.0269143 0.182144 0.29945 1.78824e-38 3
0.0219246 0.186148 0.298037 1.61314e-38 3
0.0268118 0.186318 0.298309 1.84355e-38 3
0.0318 0.191916 0.29945 1.53938e-38 3
0.503385 0.410331 0.693187 0 3
0.578762 0.40766 0.688675 0 3
0.50126 0.41986 0.69026 0 3
0.230729 0.408171 0.689538 1.28145e-38 3
0.22791 0.414297 0.681113 1.39208e-38 3
0.22791 0.425409 0.681113 1.24457e-38 3
-0.119708 0.413977 0.699346 1.18918e-38 3
-0.142267 0.424605 0.698061 1.46559e-38 3
-0.153068 0.434327 0.695391 1.27201e-38 3
-0.152468 0.443924 0.692663 1.21662e-38 3
-0.181606 0.449373 0.636364 0 3
-0.191991 0.459763 0.636373 0 3
-0.191991 0.470146 0.636373 0 3
-0.192304 0.481311 0.63741 1.22627e-38 3
-0.392616 0.401874 0.718509 0 3
-0.328327 0.409417 0.731995 0 3
-0.340947 0.422198 0.733451 0 3
-0.347717 0.427772 0.722652 0 3
-0.326816 0.427641 0.703052 0 3
-0.100766 0.191731 0.353094 0 3
-0.12333 0.196725 0.351724 0 3
-0.116641 0.195136 0.348883 0 3
-0.111891 0.196793 0.351846 0 3
-0.105929 0.196383 0.351112 0 3
-0.100096 0.196178 0.350746 0 3
-0.126565 0.198537 0.344902 0 3
-0.120824 0.19835 0.344578 0 3
-0.115496 0.198856 0.345456 0 3
-0.110172 0.199422 0.34644 0 3
-0.104462 0.199312 0.346249 0 3
-0.19657 0.214556 0.395129 0 3
-0.190401 0.214869 0.395705 0 3
-0.18347 0.214314 0.394683 0 3
-0.177839 0.215293 0.396487 0 3
-0.186307 0.216566 0.387197 0 3
-0.180138 0.216744 0.387516 0 3
-0.197455 0.214409 0.372475 0 3
-0.197075 0.220792 0.383563 0 3
-0.191903 0.222049 0.385748 0 3
-0.185993 0.222508 0.386544 0 3
-0.198247 0.21476 0.362803 0 3
-0.193248 0.215788 0.364539 0 3
-0.187319 0.21581 0.364576 0 3
-0.181739 0.216248 0.365316 0 3
-0.12583 0.202979 0.342901 0 3
-0.120025 0.202624 0.3423 0 3
-0.114548 0.202814 0.342621 0 3
-0.109281 0.203415 0.343637 0 3
-0.103728 0.203521 0.343816 1.33687e-38 3
-0.191046 0.20068 0.329923 0 3
-0.189488 0.204814 0.336719 0 3
-0.190784 0.212373 0.349146 0 3
-0.189017 0.216882 0.356559 0 3
-0.184359 0.218254 0.358815 0 3
-0.178348 0.218063 0.3585 0 3
-0.171755 0.217123 0.356955 0 3
-0.131992 0.209474 0.344381 0 3
-0.12583 0.208574 0.342901 0 3
-0.120025 0.208209 0.3423 0 3
-0.114548 0.208404 0.342621 0 3
-0.109281 0.209022 0.343637 1.41059e-38 3
-0.103728 0.209131 0.343816 0 3
-0.184951 0.205273 0.328658 0 3
-0.183918 0.210221 0.33658 0 3
-0.184074 0.216875 0.347234 0 3
-0.181502 0.220636 0.353254 0 3
-0.175927 0.220872 0.353634 0 3
-0.169413 0.219907 0.352087 0 3
-0.162963 0.218958 0.350569 0 3
-0.131786 0.214757 0.343843 0 3
-0.126127 0.214673 0.343708 0 3
-0.120074 0.213881 0.34244 0 3
-0.114352 0.213628 0.342035 0 3
-0.109113 0.214299 0.34311 0 3
-0.183113 0.208542 0.325391 0 3
-0.179293 0.210288 0.328117 0 3
-0.178331 0.215598 0.336401 0 3
-0.176968 0.220744 0.34443 0 3
-0.173358 0.223333 0.34847 0 3
-0.166922 0.222332 0.346909 0 3
-0.158866 0.219029 0.341754 0 3
-0.125581 0.219327 0.34222 0 3
-0.119552 0.218513 0.34095 0 3
-0.113753 0.218061 0.340244 0 3
-0.108354 0.218369 0.340724 0 3
-0.102826 0.218434 0.340826 0 3
-0.183057 0.213786 0.325293 0 3
-0.178222 0.214353 0.326156 0 3
-0.174082 0.215819 0.328386 0 3
-0.17069 0.218333 0.332211 0 3
-0.168895 0.223121 0.339498 0 3
-0.163914 0.223885 0.340659 0 3
-0.154969 0.219096 0.333372 0 3
-0.119965 0.22485 0.342128 0 3
-0.113548 0.223209 0.33963 0 3
-0.107456 0.222072 0.3379 0 3
-0.101931 0.222046 0.337861 0 3
-0.182755 0.218731 0.324755 1.23546e-38 3
-0.178161 0.2196 0.326045 0 3
-0.173129 0.219965 0.326587 0 3
-0.167935 0.220141 0.326849 0 3
-0.164553 0.222783 0.33077 0 3
-0.160391 0.22451 0.333335 0 3
-0.153787 0.222822 0.330828 0 3
-0.146274 0.219646 0.326113 0 3
-0.116464 0.223707 0.332143 0 3
-0.104261 0.210042 0.311854 0 3
-0.196175 0.21549 0.312376 0 3
-0.192029 0.216562 0.31393 0 3
-0.188865 0.21883 0.317218 0 3
-0.185884 0.221445 0.321009 0 3
-0.182009 0.223115 0.323429 0 3
-0.177868 0.224549 0.325508 0 3
-0.173123 0.225285 0.326575 1.25382e-38 3
-0.167935 0.225474 0.326849 0 3
-0.164553 0.228179 0.33077 0 3
-0.144697 0.272014 0.394314 1.25386e-38 3
-0.10628 0.209091 0.3031 0 3
-0.198712 0.217781 0.308403 0 3
-0.195535 0.219867 0.311357 0 3
-0.192015 0.221669 0.313908 0 3
-0.188865 0.224006 0.317218 0 3
-0.185884 0.226683 0.321009 0 3
-0.182009 0.228392 0.323429 0 3
-0.177868 0.22986 0.325508 0 3
-0.173123 0.230614 0.326575 0 3
-0.142607 0.274426 0.388619 0 3
-0.142563 0.28068 0.388499 0 3
-0.125851 0.278102 0.37643 1.2445e-38 3
-0.126475 0.285653 0.378295 1.22606e-38 3
-0.303365 0.217165 0.399935 0 3
-0.309447 0.216228 0.375635 0 3
-0.300688 0.214353 0.372377 0 3
-0.306679 0.220367 0.372275 0 3
-0.301734 0.22279 0.366272 0 3
-0.348981 0.283591 0.392528 0 3
-0.309026 0.277756 0.367838 0 3
0.609821 0.367895 0.69851 0 3
0.625154 0.374819 0.690273 0 3
0.681371 0.386028 0.690178 0 3
0.61204 0.396146 0.688192 0 3
-0.23807 0.204985 0.389198 0 3
-0.214349 0.200613 0.380898 0 3
-0.215308 0.207528 0.394025 0 3
-0.211725 0.210355 0.399394 0 3
-0.296826 0.217156 0.399917 0 3
-0.290301 0.217156 0.399917 0 3
-0.283724 0.217116 0.399844 0 3
-0.276356 0.216455 0.398626 0 3
-0.268548 0.215408 0.396699 0 3
-0.261092 0.2146 0.395211 0 3
-0.24765 0.208706 0.384356 0 3
-0.23575 0.203839 0.375393 0 3
-0.229128 0.203397 0.374579 0 3
-0.222288 0.202733 0.373356 0 3
-0.215142 0.201744 0.371534 0 3
-0.210416 0.203033 0.373909 0 3
-0.208829 0.207518 0.382169 0 3
-0.207875 0.212928 0.392132 0 3
-0.203445 0.215008 0.395962 0 3
-0.290369 0.2096 0.374743 0 3
-0.280492 0.206825 0.369782 0 3
-0.272391 0.205267 0.366995 0 3
-0.268756 0.20708 0.370237 0 3
-0.268066 0.211297 0.377777 0 3
-0.263194 0.21234 0.379641 0 3
-0.255031 0.210713 0.376732 0 3
-0.247006 0.209122 0.373889 0 3
-0.239906 0.208255 0.372338 0 3
-0.233188 0.207681 0.371313 0 3
-0.226992 0.207555 0.371087 0 3
-0.220811 0.207437 0.370875 0 3
-0.214117 0.206816 0.369766 0 3
-0.208322 0.207053 0.370189 0 3
-0.286715 0.208607 0.362396 0 3
-0.275759 0.20486 0.355886 0 3
-0.268635 0.20386 0.35415 0 3
-0.263885 0.204658 0.355535 0 3
-0.265289 0.210371 0.36546 0 3
-0.264214 0.214336 0.372348 0 3
-0.258691 0.214795 0.373145 0 3
-0.251602 0.213944 0.371667 0 3
-0.244855 0.213348 0.370632 0 3
-0.237445 0.21213 0.368517 0 3
-0.227519 0.208544 0.362286 0 3
-0.222187 0.209089 0.363233 0 3
-0.217043 0.209845 0.364546 0 3
-0.211112 0.209862 0.364576 0 3
-0.20543 0.210134 0.365048 0 3
-0.2009 0.211637 0.367659 0 3
-0.291172 0.213453 0.360593 0 3
-0.278967 0.208722 0.352602 0 3
-0.272768 0.208381 0.352026 0 3
-0.265614 0.207281 0.350167 0 3
-0.260653 0.207881 0.351181 0 3
-0.259885 0.211927 0.358016 0 3
-0.255086 0.212797 0.359485 0 3
-0.248548 0.212222 0.358514 0 3
-0.241603 0.211264 0.356897 0 3
-0.234637 0.21024 0.355166 0 3
-0.226664 0.208238 0.351784 0 3
-0.219198 0.206611 0.349036 0 3
-0.213106 0.206227 0.348386 0 3
-0.207618 0.206422 0.348715 0 3
-0.205081 0.209645 0.354161 0 3
-0.202112 0.2126 0.359153 0 3
-0.284368 0.21421 0.352166 0 3
-0.276256 0.212391 0.349176 0 3
-0.270494 0.21234 0.349092 0 3
-0.264136 0.211809 0.348219 0 3
-0.258649 0.211969 0.348481 0 3
-0.254867 0.213563 0.351103 0 3
-0.249378 0.213768 0.35144 0 3
-0.24303 0.21323 0.350555 0 3
-0.236782 0.212756 0.349775 0 3
-0.229342 0.21116 0.347151 0 3
-0.222514 0.21006 0.345344 0 3
-0.216923 0.210102 0.345413 0 3
-0.211928 0.21074 0.346461 0 3
-0.200596 0.204938 0.336923 0 3
-0.240527 0.211712 0.338967 0 3
-0.232388 0.209362 0.335205 0 3
-0.227389 0.209796 0.3359 0 3
-0.221031 0.208966 0.33457 0 3
-0.212531 0.206018 0.32985 0 3
-0.237954 0.214919 0.335342 0 3
-0.230807 0.213369 0.332924 0 3
-0.22498 0.212996 0.332341 0 3
-0.218594 0.21206 0.330882 0 3
-0.212464 0.211333 0.329747 0 3
-0.237065 0.224734 0.341951 0 3
-0.224741 0.218186 0.331988 0 3
-0.21859 0.217455 0.330875 0 3
-0.25622 0.27432 0.397656 0 3
-0.269355 0.217941 0.30863 0 3
-0.261053 0.215248 0.304815 0 3
-0.230389 0.214481 0.303729 0 3
-0.224455 0.213549 0.30241 0 3
-0.26131 0.272582 0.386008 0 3
-0.200817 0.214653 0.303972 0 3
-0.264602 0.219042 0.303184 0 3
-0.259198 0.218657 0.30265 0 3
-0.264529 0.223927 0.3031 0 3
-0.258006 0.222566 0.301258 0 3
-0.232175 0.226131 0.306083 0 3
-0.257444 0.226986 0.300602 0 3
0.234802 0.20118 0.394185 0 3
0.205249 0.21028 0.399251 0 3
0.222211 0.207866 0.394668 0 3
0.203084 0.214507 0.395039 1.25393e-38 3
0.209965 0.214953 0.39586 0 3
0.216279 0.214809 0.395596 0 3
0.217838 0.210088 0.386901 0 3
0.214864 0.201384 0.370872 0 3
0.21997 0.200522 0.369285 0 3
0.22714 0.201538 0.371156 1.2168e-38 3
0.233877 0.202127 0.372241 1.24446e-38 3
0.239692 0.20191 0.37184 1.2168e-38 3
0.245531 0.201722 0.371495 1.2168e-38 3
0.251544 0.201684 0.371424 1.23524e-38 3
0.256897 0.20113 0.370404 1.33677e-38 3
0.262105 0.200491 0.369228 1.24457e-38 3
0.267871 0.200298 0.368872 1.21695e-38 3
0.200509 0.21815 0.390029 0 3
0.208762 0.220143 0.393593 1.21705e-38 3
0.213206 0.218119 0.389974 0 3
0.214706 0.213289 0.381338 1.18925e-38 3
0.218067 0.210528 0.376401 0 3
0.223682 0.210033 0.375518 0 3
0.228754 0.209069 0.373793 0 3
0.256411 0.206781 0.369703 0 3
0.261686 0.206185 0.368637 0 3
0.265364 0.204386 0.36542 0 3
0.204769 0.215599 0.374543 1.29989e-38 3
0.206986 0.211618 0.367626 1.66867e-38 3
0.209075 0.207734 0.360879 1.33666e-38 3
0.213025 0.205861 0.357626 1.20758e-38 3
0.21806 0.205109 0.356319 0 3
0.224428 0.205617 0.357202 0 3
0.231805 0.207 0.359604 0 3
0.237367 0.206734 0.359143 0 3
0.245671 0.208812 0.362751 0 3
0.244817 0.204147 0.344874 0 3
0.273158 0.204303 0.345136 0 3
0.277391 0.203277 0.343404 0 3
0.281405 0.202136 0.341476 0 3
0.201544 0.20032 0.329331 1.21673e-38 3
0.207268 0.20066 0.32989 1.29049e-38 3
0.212611 0.200622 0.329828 1.26283e-38 3
0.229054 0.200885 0.33026 0 3
0.242333 0.207646 0.341375 0 3
0.205519 0.204304 0.327106 1.4841e-38 3
0.211762 0.205181 0.32851 1.38268e-38 3
0.21608 0.204196 0.326934 1.2168e-38 3
0.221187 0.203987 0.326599 1.26301e-38 3
0.226515 0.203987 0.326599 1.3184e-38 3
0.234324 0.206169 0.330093 1.34606e-38 3
0.233346 0.257457 0.391741 1.46569e-38 3
0.201006 0.204935 0.311825 1.24439e-38 3
0.206977 0.205813 0.313162 1.22602e-38 3
0.231225 0.26145 0.38818 1.42878e-38 3
0.203211 0.207085 0.307464 1.20769e-38 3
0.231225 0.267783 0.38818 1.29049e-38 3
0.248716 0.272463 0.385838 1.1801e-38 3
0.247283 0.277152 0.383615 0 3
0.203846 0.21746 0.300994 0 3
0.209084 0.217801 0.301466 1.26312e-38 3
0.247283 0.283411 0.383615 1.25386e-38 3
0.264467 0.287936 0.38132 1.29074e-38 3
0.100023 0.201746 0.395293 1.42885e-38 3
0.107143 0.203017 0.397784 1.23524e-38 3
0.113235 0.202305 0.396389 1.34595e-38 3
0.119417 0.201822 0.395443 1.25383e-38 3
0.125438 0.201131 0.394089 1.49353e-38 3
0.131642 0.200787 0.393414 1.25383e-38 3
0.158277 0.202012 0.395815 1.50279e-38 3
0.191204 0.202687 0.397138 0 3
0.198652 0.20368 0.399083 0 3
0.106577 0.208398 0.395679 1.48417e-38 3
0.112823 0.208012 0.394945 1.55803e-38 3
0.119001 0.207548 0.394065 1.32755e-38 3
0.125094 0.206993 0.39301 1.44744e-38 3
0.131385 0.206802 0.392647 1.51197e-38 3
0.137228 0.205957 0.391043 1.35524e-38 3
0.142197 0.203933 0.3872 1.4013e-38 3
0.147729 0.202854 0.385153 1.54881e-38 3
0.153558 0.202255 0.384014 1.31833e-38 3
0.159184 0.201445 0.382476 1.24457e-38 3
0.164536 0.200363 0.380423 1.42896e-38 3
0.170494 0.200071 0.379868 1.30911e-38 3
0.178684 0.202328 0.384152 1.49357e-38 3
0.187039 0.204611 0.388487 0 3
0.196316 0.20772 0.394391 0 3
0.104265 0.210194 0.387096 1.31833e-38 3
0.111103 0.211187 0.388925 1.23535e-38 3
0.117297 0.210914 0.388423 1.55803e-38 3
0.146702 0.207684 0.382475 1.50272e-38 3
0.151356 0.20553 0.378507 1.59484e-38 3
0.156452 0.204121 0.375912 1.37357e-38 3
0.160877 0.201977 0.371963 1.32755e-38 3
0.165835 0.200632 0.369488 1.38286e-38 3
0.175945 0.205397 0.378262 1.18932e-38 3
0.186388 0.210215 0.387136 0 3
0.195108 0.212837 0.391964 1.18929e-38 3
0.158904 0.205493 0.367401 1.29989e-38 3
0.158355 0.210758 0.366133 0 3
0.162801 0.208798 0.362728 1.3552e-38 3
0.167491 0.207279 0.360089 1.34598e-38 3
0.171279 0.204783 0.355753 1.20766e-38 3
0.176048 0.203586 0.353674 1.36439e-38 3
0.186248 0.208545 0.362289 1.22602e-38 3
0.19736 0.21419 0.372095 1.21698e-38 3
0.103365 0.202616 0.342287 1.66867e-38 3
0.108949 0.202616 0.342287 1.37364e-38 3
0.164876 0.202715 0.342453 1.39208e-38 3
0.100726 0.202885 0.333548 1.21698e-38 3
0.106168 0.202885 0.333548 1.31833e-38 3
0.100718 0.208312 0.333523 1.33684e-38 3
0.106168 0.208327 0.333548 1.43825e-38 3
0.167221 0.203163 0.325279 1.20755e-38 3
0.173922 0.204804 0.327906 1.17992e-38 3
0.179304 0.204841 0.327965 1.28141e-38 3
0.184628 0.20481 0.327916 1.25372e-38 3
0.189531 0.204328 0.327145 1.28145e-38 3
0.194551 0.203995 0.326611 1.22595e-38 3
0.199872 0.203987 0.326599 1.38268e-38 3
0.123402 0.206193 0.321726 1.21695e-38 3
0.128129 0.205357 0.320423 1.47495e-38 3
0.132795 0.204492 0.319072 1.43796e-38 3
0.137149 0.203229 0.317102 1.34577e-38 3
0.141806 0.202491 0.31595 1.18007e-38 3
0.145995 0.201161 0.313875 1.29992e-38 3
0.152092 0.202459 0.3159 1.17992e-38 3
0.195641 0.204885 0.319685 0 3
0.123384 0.211411 0.321679 1.19851e-38 3
0.127799 0.210042 0.319596 1.25368e-38 3
0.131924 0.208321 0.316978 1.42874e-38 3
0.135691 0.206187 0.31373 1.35499e-38 3
0.139491 0.204257 0.310793 1.32758e-38 3
0.143778 0.203148 0.309107 0 3
0.188741 0.202691 0.30841 1.29974e-38 3
0.195128 0.204109 0.310568 1.29049e-38 3
0.135069 0.210338 0.312293 1.44718e-38 3
0.13873 0.208185 0.309097 1.26304e-38 3
0.143208 0.207367 0.307882 0 3
0.186101 0.204817 0.304097 1.41034e-38 3
0.19209 0.205919 0.305733 0 3
0.197829 0.206703 0.306897 0 3
0.176725 0.271626 0.393751 1.2446e-38 3
0.142988 0.212064 0.307409 0 3
0.185997 0.209662 0.303927 1.23517e-38 3
0.190287 0.208927 0.302862 0 3
0.194382 0.208021 0.301549 0 3
0.199886 0.208631 0.302433 0 3
0.166166 0.281936 0.399253 1.29041e-38 3
0.134608 0.219775 0.311227 1.25364e-38 3
0.138413 0.217773 0.308391 1.36446e-38 3
0.125861 0.227398 0.314749 1.33651e-38 3
0.130682 0.226852 0.313993 1.39183e-38 3
0.135229 0.225891 0.312664 1.27216e-38 3
0.139172 0.224027 0.310083 0 3
0.152613 0.293953 0.397884 1.48421e-38 3
0.126437 0.233598 0.31619 1.58548e-38 3
0.133242 0.23652 0.320145 1.39183e-38 3
0.138792 0.237077 0.3209 1.39197e-38 3
0.141769 0.233359 0.315867 1.47506e-38 3
0.152307 0.299841 0.397086 1.45655e-38 3
0.128772 0.243166 0.32203 1.53938e-38 3
0.137087 0.24872 0.329385 1.53012e-38 3
0.143905 0.251241 0.332723 1.39197e-38 3
0.15044 0.253101 0.335187 1.52116e-38 3
0.157308 0.255374 0.338196 1.49357e-38 3
0.154898 0.24294 0.32173 1.40137e-38 3
0.0424556 0.204041 0.39979 1.27248e-38 3
0.0486709 0.20276 0.39728 1.45691e-38 3
0.0544515 0.200182 0.392228 1.53073e-38 3
0.00324075 0.205623 0.39041 1.3829e-38 3
0.00974398 0.208478 0.395831 1.31833e-38 3
0.0162565 0.209177 0.397157 1.39215e-38 3
0.0228469 0.210194 0.399088 1.1894e-38 3
0.029418 0.210621 0.399899 1.33691e-38 3
0.0359442 0.210631 0.399917 1.22638e-38 3
0.0424614 0.210592 0.399844 1.37389e-38 3
0.0488014 0.209802 0.398344 1.31858e-38 3
0.0543999 0.206385 0.391856 1.32783e-38 3
0.0598601 0.203217 0.385842 1.24468e-38 3
0.0658855 0.202388 0.384268 1.32755e-38 3
0.0721488 0.202371 0.384234 1.1801e-38 3
0.0784457 0.202443 0.384371 1.25393e-38 3
0.0851902 0.203573 0.386518 1.31847e-38 3
0.0919238 0.204524 0.388323 1.22613e-38 3
0.099474 0.207052 0.393123 1.22602e-38 3
0.00312703 0.204554 0.37671 1.34591e-38 3
0.00943392 0.208097 0.383235 1.30903e-38 3
0.0159084 0.211039 0.388652 1.18003e-38 3
0.0225992 0.214356 0.394761 0 3
0.0293599 0.216717 0.39911 1.19854e-38 3
0.048885 0.216672 0.399027 1.27237e-38 3
0.054095 0.211586 0.38966 1.36457e-38 3
0.0594445 0.208058 0.383163 1.30918e-38 3
0.0653702 0.207026 0.381262 1.30918e-38 3
0.0714514 0.206623 0.38052 1.26308e-38 3
0.0776565 0.206614 0.380504 0 3
0.0838942 0.206687 0.380638 0 3
0.0906029 0.20783 0.382743 1.30911e-38 3
0.09726 0.208715 0.384373 1.33666e-38 3
0.00309482 0.20853 0.37283 1.17989e-38 3
0.00932407 0.211854 0.378773 1.17989e-38 3
0.015702 0.21456 0.383611 1.36432e-38 3
0.0222174 0.217066 0.388092 1.18925e-38 3
0.0292302 0.222243 0.397347 0 3
0.0543149 0.218829 0.391244 1.2907e-38 3
0.0592672 0.21367 0.38202 1.23542e-38 3
0.0648692 0.211612 0.37834 1.29081e-38 3
0.0707674 0.210794 0.376877 1.26308e-38 3
0.0769098 0.210776 0.376845 1.30003e-38 3
0.083044 0.21074 0.37678 1.32769e-38 3
0.0888187 0.209859 0.375206 1.22613e-38 3
0.0924922 0.204447 0.36553 1.34591e-38 3
0.0030952 0.21464 0.372876 1.18911e-38 3
0.00932407 0.218034 0.378773 1.29052e-38 3
0.0156964 0.220739 0.383473 1.36435e-38 3
0.0220607 0.221822 0.385354 0 3
0.0284793 0.22285 0.387139 1.17989e-38 3
0.0603601 0.223958 0.389064 1.47517e-38 3
0.064863 0.217764 0.378304 1.41988e-38 3
0.0701399 0.215019 0.373536 1.95462e-38 3
0.075386 0.212626 0.369379 1.19861e-38 3
0.0808345 0.211117 0.366756 1.47513e-38 3
0.0856722 0.208329 0.361914 1.31833e-38 3
0.089505 0.203616 0.353725 1.34591e-38 3
0.0937608 0.200377 0.348099 1.2446e-38 3
0.0390253 0.217534 0.367488 1.39194e-38 3
0.0729467 0.211578 0.357426 1.22627e-38 3
0.0772802 0.207554 0.350629 1.32762e-38 3
0.082604 0.206562 0.348952 1.29989e-38 3
0.0878786 0.205582 0.347297 1.33669e-38 3
0.0926883 0.203699 0.344117 0 3
0.0977915 0.20264 0.342327 1.18932e-38 3
0.0219564 0.233289 0.383533 1.65938e-38 3
0.0697922 0.208008 0.34197 1.30003e-38 3
0.0747307 0.206239 0.339062 1.3645e-38 3
0.0799846 0.205524 0.337887 1.48428e-38 3
0.0854516 0.205414 0.337706 1.48417e-38 3
0.0903059 0.203934 0.335272 1.41052e-38 3
0.0952945 0.202908 0.333586 1.26308e-38 3
0.0219564 0.239547 0.383533 1.47502e-38 3
0.0609328 0.202677 0.324502 1.34606e-38 3
0.0672039 0.205666 0.329288 1.34613e-38 3
0.0727726 0.206222 0.330178 1.52123e-38 3
0.0782882 0.206562 0.330721 1.3552e-38 3
0.0836873 0.206569 0.330733 1.36432e-38 3
0.0891106 0.206632 0.330834 1.65949e-38 3
0.0949622 0.207625 0.332423 1.33684e-38 3
0.034479 0.245857 0.383615 1.55775e-38 3
0.0592471 0.202218 0.315525 1.53038e-38 3
0.0655603 0.205878 0.321234 1.18932e-38 3
0.0713868 0.20758 0.32389 1.44747e-38 3
0.0768645 0.208103 0.324707 1.5396e-38 3
0.0822953 0.20844 0.325232 1.55803e-38 3
0.0471506 0.252941 0.38487 1.59495e-38 3
0.0476656 0.201921 0.307239 1.37382e-38 3
0.0533167 0.204367 0.310962 1.2078e-38 3
0.0592291 0.207304 0.315429 1.51194e-38 3
0.0652545 0.210134 0.319736 1.45669e-38 3
0.0711581 0.212182 0.322853 1.32758e-38 3
0.076859 0.213385 0.324683 1.34602e-38 3
0.0822953 0.213746 0.325232 1.45662e-38 3
0.0471506 0.25922 0.38487 1.3829e-38 3
0.0420363 0.203943 0.302798 1.43832e-38 3
-0.00315913 0.20117 0.394164 1.39215e-38 3
-0.00304388 0.200027 0.379784 1.28148e-38 3
-0.00297018 0.20123 0.370588 1.20773e-38 3
-0.00882665 0.20291 0.362782 0 3
-0.00296062 0.206609 0.369395 0 3
-0.0879924 0.200401 0.348141 1.32755e-38 3
-0.082787 0.201557 0.350149 1.31825e-38 3
-0.0776099 0.202958 0.352583 1.27208e-38 3
-0.0719817 0.20331 0.353193 1.35506e-38 3
-0.0661202 0.203006 0.352666 1.42889e-38 3
-0.0601822 0.202387 0.351591 1.2907e-38 3
-0.0544269 0.202317 0.351468 0 3
-0.048599 0.201929 0.350794 1.2907e-38 3
-0.0426661 0.200942 0.34908 1.41056e-38 3
-0.036903 0.200575 0.348442 1.3368e-38 3
-0.0312954 0.201072 0.349306 0 3
-0.0256491 0.201487 0.350027 1.3829e-38 3
-0.0200403 0.202519 0.35182 1.2907e-38 3
-0.0982478 0.20379 0.344269 1.57651e-38 3
-0.0928712 0.204319 0.345163 1.31833e-38 3
-0.0875179 0.20497 0.346263 0 3
-0.0824851 0.206514 0.348872 1.23528e-38 3
-0.0774874 0.208381 0.352026 1.46569e-38 3
-0.072021 0.209186 0.353386 1.33662e-38 3
-0.0663106 0.209361 0.353681 1.35513e-38 3
-0.0311902 0.206076 0.348132 1.28148e-38 3
-0.0254819 0.205847 0.347746 1.41967e-38 3
-0.09824 0.20939 0.344242 1.52123e-38 3
-0.0927558 0.209689 0.344734 1.25386e-38 3
-0.0874285 0.210404 0.34591 0 3
-0.0822014 0.211476 0.347672 1.38279e-38 3
-0.0767173 0.211997 0.348528 1.28123e-38 3
-0.0822213 0.217201 0.347756 1.1984e-38 3
-0.0523821 0.236154 0.378101 1.38275e-38 3
-0.0974321 0.218809 0.341411 1.18939e-38 3
-0.0918979 0.218895 0.341545 1.18936e-38 3
-0.0858802 0.217766 0.339784 0 3
-0.0808871 0.219259 0.342113 0 3
-0.0583719 0.241582 0.376944 1.39183e-38 3
-0.096512 0.22226 0.338187 0 3
-0.0892032 0.217885 0.33153 0 3
-0.0779643 0.202726 0.308465 0 3
-0.072052 0.200282 0.304745 1.22606e-38 3
-0.0648923 0.26771 0.379107 1.31836e-38 3
-0.0437598 0.182727 0.358029 1.29981e-38 3
-0.0379554 0.182906 0.358379 1.21684e-38 3
-0.0320792 0.182741 0.358055 1.21695e-38 3
-0.0261805 0.182345 0.357279 1.35528e-38 3
-0.0204718 0.183425 0.359396 1.28159e-38 3
-0.0151756 0.190552 0.37336 1.20776e-38 3
-0.00936339 0.196412 0.384843 1.1801e-38 3
-0.0434585 0.18727 0.355564 1.50264e-38 3
-0.0376646 0.187307 0.355633 1.5303e-38 3
-0.0318703 0.187354 0.355723 1.35524e-38 3
-0.0260362 0.187137 0.35531 1.34606e-38 3
-0.0202177 0.186939 0.354934 1.35528e-38 3
-0.014558 0.18864 0.358164 1.32762e-38 3
-0.0089797 0.194386 0.369073 0 3
-0.0950493 0.191819 0.353258 0 3
-0.0894219 0.192112 0.353796 1.21691e-38 3
-0.0836685 0.192156 0.353877 0 3
-0.0778948 0.192156 0.353877 1.18925e-38 3
-0.072121 0.192156 0.353877 1.18914e-38 3
-0.0663473 0.192156 0.353877 0 3
-0.0605736 0.192156 0.353877 1.35513e-38 3
-0.0547998 0.192156 0.353877 1.45655e-38 3
-0.0490261 0.192156 0.353877 1.65016e-38 3
-0.0432307 0.192059 0.3537 1.6686e-38 3
-0.0374028 0.191767 0.353161 1.31825e-38 3
-0.0316361 0.191739 0.353109 1.47509e-38 3
-0.0258948 0.191886 0.353381 1.45669e-38 3
-0.0201261 0.191857 0.353327 1.30918e-38 3
-0.0144815 0.193463 0.356284 0 3
-0.00883546 0.197188 0.363145 1.28145e-38 3
-0.0944909 0.196422 0.351182 0 3
-0.0888533 0.196626 0.351547 1.39208e-38 3
-0.0833304 0.19713 0.352447 1.32755e-38 3
-0.0777163 0.197476 0.353066 1.46573e-38 3
-0.0719528 0.197468 0.353051 1.39197e-38 3
-0.0660756 0.197119 0.352428 1.30903e-38 3
-0.060181 0.196647 0.351584 1.47499e-38 3
-0.0544312 0.196598 0.351497 1.39205e-38 3
-0.0486682 0.196484 0.351293 1.40123e-38 3
-0.0428176 0.19594 0.35032 1.35513e-38 3
-0.0370795 0.195822 0.350109 1.39201e-38 3
-0.0314243 0.196178 0.350745 1.32758e-38 3
-0.0258254 0.197122 0.352434 1.52123e-38 3
-0.0201183 0.197545 0.35319 1.30918e-38 3
-0.0144318 0.198592 0.355061 1.20769e-38 3
-0.0989647 0.199619 0.346781 0 3
-0.0934518 0.199929 0.34732 1.18925e-38 3
-0.0180813 0.187901 0.317428 1.18e-38 3
-0.066189 0.197622 0.300697 1.36421e-38 3
0.384163 0.217401 0.440033 0 3
0.365828 0.23114 0.452887 0 3
0.383271 0.224059 0.439012 0 3
0.350045 0.232944 0.442282 0 3
0.346552 0.237763 0.437869 0 3
0.307874 0.254265 0.454599 0 3
0.352287 0.239102 0.427489 0 3
0.332636 0.247022 0.429132 0 3
0.398641 0.244562 0.424858 0 3
0.332636 0.254024 0.429132 0 3
0.304803 0.194274 0.393225 0 3
0.307671 0.19206 0.388742 1.1801e-38 3
0.303732 0.185772 0.376015 0 3
0.316881 0.176035 0.356308 0 3
0.315602 0.181115 0.354869 0 3
0.302215 0.185794 0.352761 0 3
0.302543 0.188173 0.346543 0 3
0.30594 0.186795 0.344005 0 3
0.303257 0.190721 0.340989 0 3
0.309052 0.190864 0.341245 0 3
0.314887 0.191026 0.341535 0 3
0.320466 0.19103 0.341541 0 3
0.326064 0.191045 0.341568 0 3
0.332207 0.191374 0.342156 0 3
0.323439 0.195035 0.338819 0 3
0.330355 0.195858 0.340248 0 3
0.337752 0.196934 0.342117 0 3
0.343504 0.197032 0.342287 0 3
0.247934 0.185335 0.375131 0 3
0.254526 0.185679 0.375826 0 3
0.259398 0.184782 0.374011 0 3
0.263875 0.183651 0.371721 0 3
0.272074 0.185102 0.374659 0 3
0.284581 0.189357 0.383272 0 3
0.292989 0.19076 0.386111 0 3
0.233122 0.194415 0.38093 1.22602e-38 3
0.237354 0.192805 0.377775 1.38275e-38 3
0.241461 0.191176 0.374584 1.2629e-38 3
0.246302 0.190195 0.372661 1.54871e-38 3
0.253071 0.190714 0.373679 1.28134e-38 3
0.258388 0.190141 0.372554 0 3
0.262979 0.189071 0.370459 0 3
0.268577 0.188758 0.369845 0 3
0.276168 0.189827 0.371941 0 3
0.215541 0.195948 0.37204 0 3
0.220223 0.194721 0.369709 1.19836e-38 3
0.228524 0.196674 0.373417 0 3
0.235237 0.197194 0.374405 1.36432e-38 3
0.239989 0.196085 0.3723 0 3
0.245666 0.195769 0.371699 1.3551e-38 3
0.252081 0.196041 0.372217 1.48417e-38 3
0.257392 0.195463 0.371118 0 3
0.262539 0.194789 0.369839 0 3
0.268497 0.194734 0.369735 0 3
0.28717 0.187242 0.355511 0 3
0.292899 0.187197 0.355424 0 3
0.297889 0.18669 0.354461 1.1801e-38 3
0.279828 0.188108 0.346422 0 3
0.283633 0.18689 0.34418 0 3
0.290206 0.187509 0.34532 0 3
0.296484 0.187917 0.346071 0 3
0.288058 0.191714 0.342764 0 3
0.294219 0.192085 0.343427 0 3
0.299056 0.191594 0.342549 0 3
0.273608 0.198999 0.345704 0 3
0.278146 0.198213 0.344339 0 3
0.281794 0.196837 0.341949 0 3
0.287316 0.196798 0.341881 0 3
0.293709 0.197345 0.342831 1.1801e-38 3
0.298553 0.196851 0.341974 0 3
0.204236 0.19755 0.333729 1.38276e-38 3
0.211908 0.19965 0.337275 1.25368e-38 3
0.217247 0.199498 0.33702 0 3
0.219197 0.19632 0.331651 0 3
0.224029 0.195814 0.330796 0 3
0.232217 0.198196 0.33482 0 3
0.2161 0.198881 0.326965 1.20758e-38 3
0.221187 0.198658 0.326599 0 3
0.100818 0.196848 0.398433 1.21688e-38 3
0.137324 0.199715 0.391315 1.35524e-38 3
0.143266 0.199101 0.390111 1.30911e-38 3
0.150222 0.199888 0.391652 1.3552e-38 3
0.104477 0.193506 0.345969 1.29989e-38 3
0.104005 0.198252 0.344407 1.88994e-38 3
0.167041 0.198645 0.335579 1.2168e-38 3
0.171336 0.197286 0.333282 1.20758e-38 3
0.176205 0.196651 0.33221 1.25379e-38 3
0.182048 0.197109 0.332983 1.35524e-38 3
0.187791 0.197436 0.333535 1.24457e-38 3
0.19324 0.197443 0.333548 1.23524e-38 3
0.198683 0.197443 0.333548 1.3551e-38 3
0.168322 0.199157 0.327419 0 3
0.173947 0.199482 0.327953 0 3
0.179304 0.19949 0.327965 1.17996e-38 3
0.184655 0.19949 0.327965 1.23528e-38 3
0.190035 0.19952 0.328015 0 3
0.19585 0.199993 0.328793 1.26283e-38 3
-0.147761 0.376514 0.788116 0 3
-0.171597 0.385149 0.779568 0 3
-0.171042 0.396581 0.777047 0 3
-0.772397 0.456981 0.956551 0 3
-0.776162 0.474892 0.961213 0 3
-0.775078 0.489889 0.95987 0 3
0.0685004 0.184347 0.399518 1.26294e-38 3
0.0553548 0.190491 0.398735 1.43836e-38 3
0.0617205 0.19006 0.397833 1.96373e-38 3
0.0680138 0.18951 0.396681 1.34591e-38 3
0.0743385 0.189135 0.395895 1.38286e-38 3
0.0808089 0.189161 0.39595 1.28152e-38 3
0.0875678 0.189808 0.397305 1.2262e-38 3
0.0487014 0.196401 0.397529 1.54928e-38 3
0.0549336 0.195498 0.395701 1.57694e-38 3
0.0608561 0.193798 0.392261 1.59502e-38 3
0.0666733 0.192119 0.388862 1.61328e-38 3
0.0728925 0.191789 0.388195 1.20776e-38 3
0.0796841 0.192898 0.390439 1.3184e-38 3
0.0866494 0.194232 0.393138 1.38293e-38 3
0.0935542 0.195255 0.39521 1.32755e-38 3
0.0601402 0.197843 0.387647 1.30929e-38 3
0.0660153 0.196505 0.385025 1.50272e-38 3
0.0721647 0.196145 0.384319 1.45669e-38 3
0.0786779 0.196752 0.385508 1.35535e-38 3
0.0856241 0.198272 0.388487 1.34609e-38 3
0.0926247 0.1997 0.391284 1.27223e-38 3
0.0957763 0.198883 0.355581 1.37364e-38 3
0.0997923 0.195387 0.349331 1.29067e-38 3
0.0988083 0.199104 0.345886 1.18003e-38 3
0.0221489 0.178227 0.301085 1.43804e-38 3
0.0274069 0.180503 0.30493 1.73295e-38 3
0.0319959 0.183266 0.301294 1.90813e-38 3
0.0319121 0.18769 0.300506 2.16631e-38 3
0.0369641 0.188449 0.301722 1.41978e-38 3
0.0424646 0.191049 0.305884 0 3
0.0482383 0.194201 0.310931 1.39223e-38 3
0.0541326 0.197193 0.315721 1.37379e-38 3
0.0368957 0.193014 0.301164 1.44743e-38 3
0.0422559 0.195076 0.30438 1.30936e-38 3
0.047741 0.197219 0.307725 1.28159e-38 3
0.0533185 0.199301 0.310972 1.36453e-38 3
0.0420363 0.199002 0.302798 1.46598e-38 3
0.00360757 0.200535 0.4346 1.26308e-38 3
0.0107779 0.202026 0.437832 1.48439e-38 3
0.0179515 0.202366 0.438568 1.27244e-38 3
0.0248219 0.200067 0.433587 1.39237e-38 3
0.0957117 0.216394 0.468971 1.41988e-38 3
0.00359442 0.206869 0.433017 1.33676e-38 3
0.0106247 0.206196 0.431608 1.53967e-38 3
0.017438 0.203528 0.426023 1.43832e-38 3
0.0240172 0.200426 0.419531 1.29092e-38 3
0.00358588 0.213425 0.431987 1.3829e-38 3
0.0106012 0.212766 0.430652 1.48435e-38 3
0.0171174 0.206608 0.418189 1.18018e-38 3
0.0234256 0.202165 0.409195 1.35546e-38 3
0.0299346 0.201042 0.406923 1.18954e-38 3
0.00340531 0.209371 0.410234 1.41978e-38 3
0.0100409 0.208177 0.407893 1.37371e-38 3
0.0166239 0.207278 0.406133 1.18936e-38 3
0.0232417 0.207202 0.405984 1.254e-38 3
0.0296872 0.205965 0.403559 1.27252e-38 3
0.0360212 0.204543 0.400774 1.20794e-38 3
0.0360532 0.217814 0.40113 1.19854e-38 3
0.0426694 0.21818 0.401803 1.31847e-38 3
0.0364579 0.226877 0.405632 0 3
0.043324 0.228183 0.407968 0 3
0.0494747 0.225875 0.403841 1.32762e-38 3
0.0362479 0.232151 0.403296 1.59466e-38 3
0.0440153 0.238586 0.414477 1.2813e-38 3
0.0507524 0.238467 0.41427 1.39212e-38 3
0.0564046 0.233878 0.406297 1.54892e-38 3
0.0239219 0.247355 0.417866 1.33669e-38 3
0.0852617 0.268785 0.454068 1.5213e-38 3
0.0811941 0.263017 0.432406 1.30918e-38 3
0.084579 0.279125 0.414423 1.37364e-38 3
0.20608 0.204374 0.459157 0 3
0.212903 0.203734 0.457718 1.29992e-38 3
0.220054 0.203441 0.45706 1.22617e-38 3
0.227505 0.203436 0.457048 0 3
0.235017 0.203483 0.457155 0 3
0.241215 0.202425 0.454778 0 3
0.247093 0.20117 0.451958 0 3
0.254393 0.201111 0.451826 0 3
0.262023 0.20131 0.452273 0 3
0.269153 0.201123 0.451853 0 3
0.27589 0.200662 0.450816 0 3
0.226867 0.210302 0.455767 0 3
0.234488 0.210467 0.456126 0 3
0.240633 0.209339 0.453681 0 3
0.246443 0.207995 0.450768 0 3
0.253662 0.207884 0.450528 0 3
0.261464 0.208244 0.451308 0 3
0.269541 0.208796 0.452505 0 3
0.276679 0.208612 0.452105 0 3
0.281387 0.206652 0.447858 0 3
0.285354 0.204261 0.442676 0 3
0.290361 0.202714 0.439324 0 3
0.207227 0.212841 0.445517 1.19858e-38 3
0.218721 0.217033 0.454293 0 3
0.227003 0.217868 0.45604 0 3
0.235256 0.218623 0.45762 0 3
0.241654 0.217661 0.455606 0 3
0.246588 0.215477 0.451034 1.22613e-38 3
0.253662 0.215235 0.450528 1.29989e-38 3
0.261464 0.215607 0.451308 0 3
0.269743 0.216341 0.452844 0 3
0.218969 0.210437 0.425939 0 3
0.23755 0.221271 0.447868 0 3
0.234682 0.212076 0.429256 0 3
0.242745 0.213006 0.431139 0 3
0.297114 0.227719 0.460919 0 3
0.22506 0.246945 0.483854 0 3
0.209385 0.207872 0.407296 0 3
0.218369 0.210122 0.411705 0 3
0.226252 0.21121 0.413837 0 3
0.233221 0.211407 0.414224 0 3
0.238507 0.21011 0.411681 0 3
0.214046 0.212547 0.403555 0 3
0.221242 0.213136 0.404674 0 3
0.233612 0.262497 0.469318 1.24461e-38 3
0.204142 0.259797 0.438885 1.33677e-38 3
0.205028 0.250539 0.411892 1.2629e-38 3
0.202482 0.254065 0.406778 1.2168e-38 3
0.239939 0.258159 0.402809 0 3
0.140765 0.196846 0.442244 0 3
0.142333 0.189333 0.425366 0 3
0.147995 0.187711 0.421722 0 3
0.155278 0.1882 0.422818 1.38286e-38 3
0.163483 0.189715 0.426223 0 3
0.17194 0.191389 0.429984 1.18014e-38 3
0.180141 0.192656 0.43283 0 3
0.194324 0.199985 0.449296 0 3
0.120581 0.194768 0.422103 1.21691e-38 3
0.127674 0.195083 0.422785 1.25379e-38 3
0.134803 0.195419 0.423513 1.36442e-38 3
0.140864 0.194248 0.420976 1.41041e-38 3
0.147199 0.193546 0.419455 1.41956e-38 3
0.154307 0.193878 0.420175 1.36432e-38 3
0.161993 0.194877 0.42234 1.3645e-38 3
0.171375 0.197752 0.428569 1.46591e-38 3
0.102541 0.1936 0.405242 1.25375e-38 3
0.109429 0.19409 0.406268 1.25368e-38 3
0.116748 0.195245 0.408686 1.20769e-38 3
0.123942 0.196077 0.410426 1.25379e-38 3
0.131063 0.196714 0.411761 1.31833e-38 3
0.138502 0.197744 0.413917 1.34588e-38 3
0.146044 0.198817 0.416162 1.56707e-38 3
0.152746 0.198703 0.415923 1.48413e-38 3
0.159656 0.198858 0.416248 1.36442e-38 3
0.108395 0.198823 0.402432 1.29056e-38 3
0.193174 0.19823 0.40123 1.2539e-38 3
0.199917 0.198425 0.401626 1.31843e-38 3
0.133374 0.220402 0.495166 1.22613e-38 3
0.134073 0.208903 0.469332 0 3
0.136678 0.201457 0.452602 0 3
0.12597 0.229712 0.497834 1.19851e-38 3
0.120944 0.207187 0.449018 1.30911e-38 3
0.168448 0.201247 0.421249 1.34606e-38 3
0.176278 0.202346 0.423549 1.43818e-38 3
0.184415 0.203701 0.426385 1.45662e-38 3
0.194362 0.206884 0.433049 1.20776e-38 3
0.115791 0.200258 0.405336 1.50261e-38 3
0.123023 0.20127 0.407385 1.18925e-38 3
0.129963 0.201726 0.408307 1.37368e-38 3
0.137061 0.202369 0.409609 1.45662e-38 3
0.144493 0.203423 0.411742 1.51183e-38 3
0.15198 0.204458 0.413837 1.48417e-38 3
0.159082 0.204909 0.414749 1.51194e-38 3
0.166401 0.205592 0.416132 1.39208e-38 3
0.174309 0.206919 0.418818 1.43818e-38 3
0.181446 0.207266 0.419521 1.50272e-38 3
0.186424 0.205212 0.415362 1.30918e-38 3
0.189807 0.201606 0.408065 1.18014e-38 3
0.17462 0.258189 0.475485 1.64101e-38 3
0.189148 0.254195 0.454474 1.34584e-38 3
0.188689 0.260975 0.45337 1.29059e-38 3
0.149762 0.261357 0.407799 1.23542e-38 3
0.149762 0.26801 0.407799 1.35528e-38 3
0.167384 0.270879 0.40218 1.56704e-38 3
0.153479 0.289092 0.400142 1.25372e-38 3
-0.0926897 0.202436 0.454801 0 3
-0.0851938 0.202256 0.454399 0 3
-0.0777299 0.202126 0.454106 1.47509e-38 3
-0.0701689 0.201689 0.453124 0 3
-0.0625474 0.200955 0.451476 1.41048e-38 3
-0.0549679 0.200178 0.44973 1.41056e-38 3
-0.0999007 0.209417 0.45385 0 3
-0.0921278 0.208584 0.452044 1.29999e-38 3
-0.0847027 0.208462 0.45178 0 3
-0.0773157 0.208419 0.451686 0 3
-0.0697128 0.207723 0.450179 1.24468e-38 3
-0.0621273 0.206922 0.448443 1.19851e-38 3
-0.0547465 0.20668 0.447918 0 3
-0.0473927 0.206481 0.447487 1.40137e-38 3
-0.0397488 0.204715 0.443659 1.29996e-38 3
-0.0322079 0.202811 0.439534 1.50286e-38 3
-0.0249977 0.202496 0.438852 1.35535e-38 3
-0.0177818 0.201864 0.43748 1.34613e-38 3
-0.010601 0.201047 0.435711 1.42903e-38 3
-0.003488 0.20081 0.435197 1.37371e-38 3
-0.0969554 0.210429 0.44047 1.19851e-38 3
-0.0900689 0.211133 0.441942 1.18007e-38 3
-0.0547137 0.21386 0.44765 0 3
-0.047388 0.21376 0.447442 1.3184e-38 3
-0.0397026 0.211707 0.443144 1.32762e-38 3
-0.0321455 0.209576 0.438683 1.29996e-38 3
-0.0249391 0.209164 0.437821 1.34613e-38 3
-0.0177377 0.208483 0.436394 1.33691e-38 3
-0.0105715 0.207575 0.434495 1.3184e-38 3
-0.00347193 0.206952 0.433191 1.39215e-38 3
-0.0318001 0.214404 0.433969 1.32762e-38 3
-0.0234362 0.203272 0.411437 1.34613e-38 3
-0.0164697 0.200189 0.405197 1.27237e-38 3
-0.0102543 0.208224 0.42146 1.19854e-38 3
-0.00346669 0.213697 0.432538 1.26308e-38 3
-0.0614445 0.226356 0.443514 1.25364e-38 3
-0.0611089 0.232317 0.441092 1.41038e-38 3
-0.00365793 0.262718 0.456399 0 3
-0.0458864 0.25647 0.433264 1.35524e-38 3
-0.0458864 0.263539 0.433264 0 3
-0.398968 0.203477 0.457142 0 3
-0.398641 0.207184 0.465469 0 3
-0.387297 0.205197 0.461006 0 3
-0.37414 0.202152 0.454165 0 3
-0.364615 0.200986 0.451545 0 3
-0.356424 0.200523 0.450504 0 3
-0.349202 0.200596 0.45067 0 3
-0.344311 0.202042 0.453917 0 3
-0.341962 0.205074 0.460729 0 3
-0.339273 0.208035 0.467381 0 3
-0.336828 0.211284 0.474681 0 3
-0.333903 0.214379 0.481634 0 3
-0.329968 0.216958 0.487429 0 3
-0.323612 0.218034 0.489845 0 3
-0.315654 0.218058 0.489898 0 3
-0.307945 0.218259 0.49035 0 3
-0.304424 0.221518 0.497674 0 3
-0.397201 0.210002 0.455118 0 3
-0.398217 0.21455 0.464974 0 3
-0.387297 0.212719 0.461006 0 3
-0.37414 0.209562 0.454165 0 3
-0.364615 0.208354 0.451545 0 3
-0.356424 0.207873 0.450504 0 3
-0.349128 0.207906 0.450575 0 3
-0.342963 0.208628 0.452139 0 3
-0.337445 0.209783 0.454644 0 3
-0.330723 0.210225 0.455602 0 3
-0.322251 0.20955 0.454138 0 3
-0.314193 0.209119 0.453203 0 3
-0.307854 0.209838 0.454762 0 3
-0.302504 0.211284 0.457895 0 3
-0.301984 0.216261 0.468683 0 3
-0.301699 0.22167 0.480405 0 3
-0.349056 0.215212 0.450481 0 3
-0.341777 0.215257 0.450575 0 3
-0.33531 0.215827 0.451767 0 3
-0.325449 0.214187 0.448336 0 3
-0.315 0.212078 0.44392 0 3
-0.306966 0.211533 0.442779 0 3
-0.345877 0.220536 0.446379 0 3
-0.33784 0.220044 0.445385 0 3
-0.330489 0.219989 0.445272 0 3
-0.322194 0.219287 0.443852 0 3
-0.314254 0.218801 0.442868 0 3
-0.306951 0.218746 0.442757 0 3
-0.344881 0.227163 0.445094 0 3
-0.334424 0.225013 0.440882 0 3
-0.325 0.223479 0.437876 0 3
-0.316812 0.222745 0.436438 0 3
-0.337771 0.229592 0.435917 0 3
-0.322849 0.224169 0.425621 0 3
-0.310108 0.220056 0.417812 0 3
-0.300756 0.218216 0.41432 0 3
-0.316662 0.258846 0.491463 0 3
-0.376048 0.263528 0.485317 0 3
-0.364383 0.257601 0.460564 0 3
-0.387781 0.265702 0.461582 0 3
-0.386226 0.272137 0.459731 0 3
-0.385341 0.278997 0.458677 0 3
-0.343519 0.271189 0.434194 0 3
-0.311389 0.267925 0.428968 0 3
-0.310332 0.273991 0.427512 0 3
-0.356918 0.283491 0.401456 0 3
0.397393 0.219831 0.512674 0 3
0.392566 0.225424 0.506448 0 3
0.389303 0.231744 0.502237 1.20776e-38 3
0.62238 0.367496 0.857049 0 3
0.622301 0.38143 0.85694 0 3
0.619087 0.39337 0.852514 0 3
0.647729 0.399214 0.835632 0 3
0.310295 0.332732 0.775976 0 3
0.321973 0.356964 0.773615 1.41052e-38 3
0.311388 0.38185 0.748183 1.48435e-38 3
0.319872 0.39862 0.71269 1.18932e-38 3
0.656409 0.322172 0.781069 0 3
0.65358 0.333473 0.777703 0 3
0.653378 0.346054 0.777462 0 3
0.602781 0.351426 0.761614 0 3
0.688908 0.376984 0.7891 0 3
0.637904 0.347988 0.704351 0 3
0.637101 0.359028 0.703465 0 3
0.527659 0.329306 0.798362 0 3
0.519173 0.336826 0.785523 0 3
0.529507 0.34801 0.781857 0 3
0.528786 0.360276 0.780793 0 3
0.589229 0.353254 0.715011 0 3
0.54911 0.369323 0.723637 0 3
0.584577 0.36204 0.709367 0 3
0.531754 0.377192 0.716162 0 3
0.53101 0.388333 0.71516 0 3
0.525915 0.396163 0.708298 0 3
0.0111995 0.187659 0.454957 1.36464e-38 3
0.0190844 0.192314 0.466244 0 3
0.00367339 0.189753 0.442529 1.27237e-38 3
0.0109804 0.191267 0.446059 1.30932e-38 3
0.018467 0.193454 0.451161 1.36464e-38 3
0.0261579 0.195925 0.456924 1.30932e-38 3
0.00365228 0.195841 0.439986 1.21698e-38 3
0.0109347 0.197717 0.444201 1.31843e-38 3
0.0181669 0.197552 0.44383 1.32776e-38 3
0.0253532 0.197124 0.442868 1.43847e-38 3
0.0325773 0.197114 0.442846 1.48457e-38 3
0.0316746 0.198677 0.430575 0 3
0.0383992 0.197135 0.427232 1.18028e-38 3
0.0440956 0.191598 0.415234 1.41988e-38 3
0.0497153 0.187247 0.405804 0 3
0.0559238 0.185877 0.402833 0 3
0.0623421 0.185418 0.40184 1.5303e-38 3
0.0755145 0.185565 0.402159 1.3184e-38 3
0.0304704 0.197882 0.414205 1.21731e-38 3
0.0368373 0.195803 0.409854 0 3
0.0430739 0.193777 0.405612 0 3
0.0491915 0.191826 0.401529 1.21716e-38 3
0.0950758 0.191878 0.401638 0 3
0.0363783 0.199967 0.404747 1.20798e-38 3
0.0426307 0.198332 0.401438 1.26333e-38 3
-0.0635123 0.189096 0.45844 1.55782e-38 3
-0.0554193 0.187026 0.453423 1.29063e-38 3
-0.0479757 0.186848 0.452992 1.26304e-38 3
-0.0404532 0.186242 0.451522 1.48435e-38 3
-0.0330118 0.185822 0.450504 1.29081e-38 3
-0.0256438 0.185694 0.450194 1.29081e-38 3
-0.0634367 0.196341 0.457895 1.6409e-38 3
-0.0553086 0.194036 0.452517 1.47502e-38 3
-0.0478387 0.193684 0.451698 1.2907e-38 3
-0.0403073 0.192911 0.449894 1.39215e-38 3
-0.0327732 0.191776 0.447248 1.5674e-38 3
-0.0253796 0.19105 0.445555 1.53974e-38 3
-0.0180147 0.190044 0.443208 1.46598e-38 3
-0.0107476 0.189413 0.441736 1.35535e-38 3
-0.00353967 0.189373 0.441643 0 3
-0.0475344 0.199775 0.448825 1.38293e-38 3
-0.0399499 0.198475 0.445904 1.37379e-38 3
-0.0324127 0.196884 0.442329 1.36457e-38 3
-0.0250943 0.19609 0.440546 1.39223e-38 3
-0.0178115 0.19505 0.438209 1.32769e-38 3
-0.0106101 0.194104 0.436084 1.37371e-38 3
-0.00349236 0.193952 0.435741 1.25386e-38 3
-0.197499 0.203868 0.494255 1.19854e-38 3
-0.188957 0.203354 0.493007 0 3
-0.181294 0.203781 0.494043 0 3
-0.107743 0.201897 0.489476 0 3
-0.19564 0.209937 0.489601 0 3
-0.185691 0.207744 0.484486 0 3
-0.176572 0.206324 0.481176 0 3
-0.169875 0.207736 0.484468 0 3
-0.163727 0.209988 0.489721 0 3
-0.124207 0.210718 0.491422 0 3
-0.115206 0.208935 0.487264 0 3
-0.105471 0.205459 0.479157 0 3
-0.197091 0.210929 0.473884 0 3
-0.189735 0.211347 0.474823 0 3
-0.180767 0.20993 0.471638 0 3
-0.172293 0.208985 0.469516 0 3
-0.165174 0.209673 0.471061 0 3
-0.157648 0.209885 0.471537 1.19872e-38 3
-0.149229 0.208869 0.469255 0 3
-0.139617 0.205984 0.462773 0 3
-0.130941 0.204228 0.458829 0 3
-0.123879 0.20493 0.460405 1.18014e-38 3
-0.11661 0.205358 0.461367 0 3
-0.109613 0.206355 0.463608 0 3
-0.100932 0.204097 0.458533 0 3
-0.19446 0.207598 0.449909 0 3
-0.187398 0.207907 0.450578 0 3
-0.179758 0.207574 0.449855 0 3
-0.16865 0.203037 0.440023 0 3
-0.145054 0.200196 0.433867 0 3
-0.138806 0.201403 0.436481 0 3
-0.135669 0.207496 0.449687 0 3
-0.13076 0.211421 0.458193 0 3
-0.123335 0.211509 0.458385 0 3
-0.11582 0.211443 0.458241 0 3
-0.107812 0.210405 0.455992 0 3
-0.197064 0.209894 0.439349 0 3
-0.191137 0.211265 0.442219 0 3
-0.183464 0.21074 0.441119 0 3
-0.173086 0.206936 0.433158 0 3
-0.164224 0.204699 0.428475 0 3
-0.157533 0.20509 0.429294 0 3
-0.15097 0.205691 0.43055 0 3
-0.143988 0.205753 0.43068 0 3
-0.136975 0.205773 0.430723 0 3
-0.130473 0.206605 0.432464 1.19869e-38 3
-0.124697 0.208748 0.436951 0 3
-0.118943 0.21119 0.442061 0 3
-0.111957 0.211617 0.442956 0 3
-0.104351 0.210851 0.441353 1.19858e-38 3
-0.195253 0.215067 0.43531 0 3
-0.188615 0.215597 0.436384 0 3
-0.180895 0.214885 0.434942 0 3
-0.171712 0.212305 0.429719 0 3
-0.163472 0.210721 0.426515 0 3
-0.156599 0.210836 0.426747 0 3
-0.15023 0.211674 0.428442 1.18036e-38 3
-0.143219 0.211643 0.428379 0 3
-0.136437 0.211965 0.429031 0 3
-0.129735 0.212452 0.430017 0 3
-0.123266 0.2134 0.431936 0 3
-0.116683 0.214251 0.433659 0 3
-0.109756 0.214542 0.434248 1.23546e-38 3
-0.102694 0.214591 0.434346 1.21695e-38 3
-0.194243 0.221021 0.433059 0 3
-0.186722 0.220483 0.432005 1.18018e-38 3
-0.178325 0.218828 0.428763 1.26312e-38 3
-0.17076 0.218101 0.427338 1.18018e-38 3
-0.161884 0.215565 0.42237 0 3
-0.153963 0.214133 0.419564 0 3
-0.148906 0.216736 0.424664 0 3
-0.143189 0.218585 0.428288 0 3
-0.136437 0.218965 0.429031 0 3
-0.129655 0.219333 0.429753 1.18947e-38 3
-0.122949 0.21988 0.430825 0 3
-0.116239 0.220486 0.432012 0 3
-0.109425 0.220959 0.432939 1.19851e-38 3
-0.10239 0.221021 0.433059 1.2907e-38 3
-0.198147 0.216891 0.411803 0 3
-0.193064 0.218745 0.415323 0 3
-0.188237 0.221034 0.419669 0 3
-0.18272 0.222654 0.422746 0 3
-0.176279 0.223232 0.423842 0 3
-0.170284 0.224445 0.426146 0 3
-0.162043 0.222675 0.422786 0 3
-0.154158 0.221259 0.420097 0 3
-0.151962 0.228255 0.43338 0 3
-0.148332 0.233676 0.443673 0 3
-0.141791 0.234832 0.445868 0 3
-0.133464 0.232995 0.442379 0 3
-0.123636 0.228176 0.43323 0 3
-0.116272 0.227598 0.432132 0 3
-0.178988 0.224864 0.414112 0 3
-0.175569 0.229221 0.422137 0 3
-0.169017 0.229677 0.422977 0 3
-0.163899 0.232203 0.427628 0 3
-0.132359 0.238223 0.438715 0 3
-0.162385 0.247506 0.442514 0 3
-0.165872 0.24912 0.432776 0 3
-0.164586 0.254194 0.429419 0 3
-0.172677 0.262853 0.432136 0 3
-0.172336 0.269369 0.431281 0 3
-0.109176 0.269789 0.431952 1.29074e-38 3
-0.164034 0.27429 0.42798 0 3
-0.156836 0.280887 0.427393 0 3
-0.156125 0.286556 0.425457 1.21705e-38 3
-0.206821 0.205116 0.497279 0 3
-0.243844 0.210174 0.490154 0 3
-0.232984 0.207623 0.484204 0 3
-0.226607 0.209028 0.487481 0 3
-0.219764 0.210089 0.489956 0 3
-0.212496 0.21081 0.491637 0 3
-0.204253 0.210581 0.491103 0 3
-0.261557 0.219614 0.493396 0 3
-0.234736 0.203353 0.456863 0 3
-0.209169 0.200284 0.449968 0 3
-0.206956 0.205373 0.461402 0 3
-0.20357 0.20964 0.470986 0 3
-0.298489 0.225161 0.487972 0 3
-0.297652 0.230683 0.499938 0 3
-0.254733 0.221725 0.480524 0 3
-0.228708 0.205394 0.445131 0 3
-0.217027 0.201296 0.43625 0 3
-0.21243 0.203713 0.441488 0 3
-0.206529 0.205005 0.444288 0 3
-0.200283 0.206037 0.446525 0 3
-0.298776 0.210851 0.441353 0 3
-0.291052 0.210473 0.44056 0 3
-0.285971 0.212035 0.44383 0 3
-0.285148 0.216918 0.454051 0 3
-0.290152 0.226612 0.474342 0 3
-0.22289 0.207247 0.433808 0 3
-0.216122 0.207544 0.434429 0 3
-0.210972 0.209469 0.438458 1.25386e-38 3
-0.204171 0.209831 0.439217 0 3
-0.298657 0.217965 0.441177 0 3
-0.288993 0.216121 0.437443 0 3
-0.280609 0.215165 0.435508 0 3
-0.273994 0.215551 0.436289 0 3
-0.211567 0.210109 0.425274 0 3
-0.207764 0.213328 0.43179 0 3
-0.201548 0.214209 0.433574 0 3
-0.264725 0.215136 0.42153 0 3
-0.2554 0.213095 0.417529 0 3
-0.256705 0.254991 0.49962 0 3
-0.205936 0.21127 0.413955 0 3
-0.204901 0.217336 0.42584 0 3
-0.201238 0.220943 0.432908 0 3
-0.251341 0.210789 0.400218 0 3
-0.207665 0.212873 0.404175 0 3
-0.203331 0.215266 0.408718 0 3
-0.234344 0.263471 0.471059 1.2262e-38 3
-0.238577 0.25733 0.412005 0 3
-0.237814 0.263208 0.410688 0 3
-0.237705 0.269785 0.4105 0 3
-0.236962 0.275618 0.409216 0 3
0.811352 0.3102 0.783017 0 3
0.86233 0.318216 0.771477 0 3
0.842569 0.32801 0.764964 0 3
0.842569 0.340491 0.764964 0 3
0.522484 0.213186 0.53813 0 3
0.558566 0.203921 0.514744 0 3
0.521052 0.221358 0.536655 0 3
0.519721 0.229526 0.535284 0 3
0.53473 0.221281 0.516056 0 3
0.530367 0.227826 0.511845 0 3
0.537391 0.235595 0.510584 0 3
0.294951 0.349202 0.881467 1.31833e-38 3
0.296517 0.365514 0.886146 0 3
0.272686 0.367346 0.856699 0 3
-0.172011 0.334363 0.844009 0 3
-0.168482 0.340992 0.826694 0 3
-0.167295 0.351983 0.82087 0 3
-0.00454106 0.215215 0.566586 1.24471e-38 3
-0.00454106 0.224459 0.566586 1.19862e-38 3
-0.0854233 0.227535 0.551632 1.44718e-38 3
-0.0852918 0.236171 0.550783 1.37353e-38 3
-0.0734437 0.253262 0.530127 0 3
-0.0470613 0.259516 0.525278 1.33684e-38 3
0.414789 0.179424 0.493562 0 3
0.466151 0.161006 0.442897 0 3
0.461029 0.156806 0.431344 0 3
0.47117 0.157846 0.434204 0 3
0.411373 0.185933 0.489498 0 3
0.426514 0.189105 0.497848 0 3
0.460602 0.16623 0.437626 0 3
0.460907 0.163801 0.431231 0 3
0.466099 0.163155 0.429531 0 3
0.472738 0.163028 0.429197 0 3
0.478118 0.162477 0.427745 0 3
0.445892 0.178928 0.451655 0 3
0.452184 0.178503 0.450582 0 3
0.453273 0.17607 0.444442 0 3
0.47287 0.170078 0.429316 0 3
0.478118 0.169456 0.427745 0 3
0.487172 0.17018 0.429574 0 3
0.485785 0.167289 0.422276 0 3
0.476711 0.161869 0.408594 0 3
0.480436 0.160884 0.406108 0 3
0.484848 0.160152 0.404261 0 3
0.491425 0.160146 0.404246 0 3
0.494736 0.15909 0.401579 0 3
0.444885 0.185877 0.450636 0 3
0.452029 0.185791 0.450428 0 3
0.451033 0.182416 0.442245 0 3
0.451295 0.179647 0.435534 0 3
0.456439 0.178879 0.43367 0 3
0.46022 0.177607 0.430588 0 3
0.465804 0.177059 0.42926 0 3
0.471624 0.176616 0.428185 0 3
0.480667 0.16759 0.406303 0 3
0.484944 0.166781 0.404341 0 3
0.489872 0.166215 0.402968 0 3
0.493454 0.165213 0.400539 0 3
0.451715 0.18403 0.429182 0 3
0.454314 0.182263 0.425062 0 3
0.458242 0.181075 0.422291 0 3
0.448353 0.189611 0.425988 0 3
0.454029 0.18908 0.424796 0 3
0.458242 0.187965 0.422291 0 3
0.455411 0.196607 0.426088 0 3
0.460322 0.195739 0.424208 0 3
0.393939 0.173779 0.478033 0 3
0.392599 0.180961 0.476407 0 3
0.342012 0.178244 0.432132 0 3
0.351675 0.179578 0.435367 0 3
0.361695 0.181038 0.438906 0 3
0.339415 0.183888 0.428851 0 3
0.347766 0.184607 0.430528 0 3
0.356129 0.185303 0.432152 0 3
0.333015 0.187285 0.420764 0 3
0.343105 0.189063 0.424757 0 3
0.354466 0.191456 0.430134 0 3
0.452689 0.203729 0.56042 0 3
0.451533 0.212329 0.558989 0 3
0.400112 0.212913 0.516183 0 3
0.410468 0.30993 0.852557 1.22617e-38 3
0.440699 0.315605 0.830878 1.24443e-38 3
0.473308 0.32365 0.816966 0 3
0.216127 0.181658 0.499706 1.19862e-38 3
0.206987 0.188911 0.497336 0 3
0.214573 0.188446 0.496114 0 3
0.222819 0.188574 0.496451 1.25393e-38 3
0.231548 0.189088 0.497804 1.26304e-38 3
0.253922 0.187617 0.49393 1.29063e-38 3
0.212028 0.194209 0.490229 1.26308e-38 3
0.217941 0.192369 0.485582 1.21698e-38 3
0.249163 0.186102 0.469763 0 3
0.252731 0.183133 0.46227 0 3
0.261865 0.184253 0.465098 0 3
0.221383 0.196318 0.475951 1.27226e-38 3
0.226591 0.194127 0.470639 0 3
0.232225 0.192433 0.46653 0 3
0.238241 0.191153 0.463427 0 3
0.243587 0.18943 0.459251 0 3
0.249739 0.188418 0.456797 0 3
0.256625 0.188003 0.455791 0 3
0.264483 0.188302 0.456517 0 3
0.272155 0.188458 0.456894 0 3
0.278191 0.187502 0.454576 0 3
0.283711 0.186257 0.451557 0 3
0.291152 0.186304 0.451671 0 3
0.214849 0.19806 0.461902 0 3
0.22185 0.197584 0.460792 0 3
0.228907 0.197187 0.459865 0 3
0.236266 0.197066 0.459585 0 3
0.242383 0.19595 0.456981 0 3
0.248089 0.194577 0.453779 0 3
0.255135 0.194305 0.453144 0 3
0.262613 0.194367 0.45329 0 3
0.269232 0.193808 0.451986 0 3
0.27589 0.193306 0.450816 0 3
0.280732 0.191591 0.446815 0 3
0.285174 0.189696 0.442397 0 3
0.280732 0.198881 0.446815 0 3
0.285116 0.196874 0.442308 0 3
0.29071 0.195781 0.439851 0 3
-0.016239 0.242633 0.667437 1.29074e-38 3
-0.0158694 0.247752 0.652246 0 3
-0.0158694 0.258394 0.652246 1.24471e-38 3
-0.198543 0.215884 0.593856 0 3
-0.188841 0.21587 0.593816 0 3
-0.197037 0.223862 0.589352 0 3
-0.187371 0.223802 0.589193 0 3
-0.177009 0.222859 0.586711 0 3
-0.19761 0.204254 0.515583 0 3
-0.198499 0.214295 0.540929 0 3
-0.198698 0.224491 0.566667 0 3
-0.194345 0.230288 0.5813 0 3
-0.185949 0.231644 0.584722 0 3
-0.175557 0.230525 0.581899 0 3
-0.163547 0.227032 0.573082 0 3
-0.129585 0.233222 0.588705 0 3
-0.179659 0.21134 0.512369 0 3
-0.18389 0.226874 0.550028 0 3
-0.182768 0.237059 0.574721 0 3
-0.172678 0.236084 0.572357 0 3
-0.159194 0.230092 0.55783 0 3
-0.145294 0.222736 0.539997 0 3
-0.131034 0.213841 0.518432 0 3
-0.118669 0.207027 0.501912 1.29081e-38 3
-0.170133 0.229399 0.534989 0 3
-0.167968 0.238728 0.556746 1.18018e-38 3
-0.152788 0.229568 0.535383 0 3
-0.136234 0.217107 0.506322 0 3
-0.285948 0.208952 0.574787 0 3
-0.272195 0.205647 0.565695 0 3
-0.262653 0.205403 0.565023 0 3
-0.262403 0.212672 0.585019 0 3
-0.209074 0.216758 0.596259 0 3
-0.293022 0.216627 0.570303 0 3
-0.278015 0.212273 0.558841 0 3
-0.264112 0.208496 0.548897 0 3
-0.251911 0.205844 0.541916 0 3
-0.240504 0.203671 0.536196 0 3
-0.232623 0.204434 0.538204 0 3
-0.216528 0.224132 0.590062 0 3
-0.206652 0.223862 0.589352 0 3
-0.296524 0.221596 0.559358 0 3
-0.283975 0.218957 0.552696 0 3
-0.271471 0.21618 0.545689 0 3
-0.259591 0.213729 0.5395 0 3
-0.246466 0.210045 0.530201 0 3
-0.233911 0.206596 0.521496 0 3
-0.220866 0.202439 0.511001 0 3
-0.297404 0.224497 0.544266 0 3
-0.288487 0.224468 0.544197 0 3
-0.278187 0.223327 0.54143 0 3
-0.263564 0.218527 0.529794 0 3
-0.251396 0.215506 0.52247 0 3
-0.240773 0.213644 0.517956 0 3
-0.227718 0.20941 0.507691 1.19862e-38 3
-0.216345 0.206462 0.500542 0 3
-0.297881 0.226974 0.529335 0 3
-0.28695 0.225173 0.525134 0 3
-0.274548 0.222073 0.517903 0 3
-0.259639 0.216682 0.505331 0 3
-0.299419 0.230154 0.517076 0 3
-0.293862 0.232431 0.522192 0 3
-0.282603 0.230201 0.51718 0 3
-0.298612 0.237947 0.515681 0 3
-0.293845 0.240938 0.522163 0 3
-0.282161 0.238265 0.516371 0 3
-0.294628 0.265518 0.55578 0 3
-0.258915 0.248965 0.503922 0 3
-0.303975 0.215072 0.591621 0 3
-0.320188 0.216121 0.568973 0 3
-0.314512 0.218629 0.575575 0 3
-0.307418 0.220275 0.579908 0 3
-0.386699 0.201962 0.509797 0 3
-0.320178 0.213044 0.537773 0 3
-0.314375 0.215077 0.542903 0 3
-0.307826 0.216702 0.547006 0 3
-0.303354 0.219931 0.555156 0 3
-0.320166 0.215893 0.523408 0 3
-0.314597 0.217952 0.528399 0 3
-0.309342 0.22035 0.534212 0 3
-0.304608 0.223268 0.541287 0 3
-0.387238 0.251338 0.586155 0 3
-0.323748 0.215451 0.50246 0 3
-0.315772 0.215603 0.502814 0 3
-0.311272 0.218199 0.508869 0 3
-0.309959 0.223233 0.520609 0 3
-0.30579 0.226436 0.528078 0 3
-0.301711 0.22556 0.506754 0 3
-0.331257 0.262389 0.514115 0 3
-0.227538 0.11395 0.313455 0 3
-0.220191 0.112806 0.310309 0 3
-0.224518 0.11773 0.323852 0 3
-0.231902 0.118681 0.312445 0 3
-0.225401 0.117946 0.310511 0 3
-0.220184 0.117865 0.310298 0 3
-0.224518 0.123014 0.323852 0 3
-0.231935 0.123796 0.312489 0 3
-0.225973 0.123324 0.311299 0 3
-0.221579 0.123707 0.312264 0 3
-0.22577 0.199721 0.379204 0 3
-0.218245 0.198505 0.376894 0 3
-0.313521 0.153558 0.42241 0 3
-0.323948 0.162221 0.427071 0 3
-0.363567 0.193063 0.450248 0 3
-0.354478 0.192118 0.448045 0 3
-0.44364 0.212615 0.584864 0 3
-0.421039 0.21951 0.532175 0 3
-0.476016 0.229581 0.535415 0 3
-0.45231 0.23543 0.549055 0 3
-0.47566 0.238139 0.535015 0 3
-0.475489 0.246779 0.534822 0 3
-0.473948 0.254677 0.533089 0 3
-0.406621 0.245535 0.513952 0 3
-0.405258 0.253069 0.512229 0 3
-0.403521 0.260306 0.510033 0 3
0.200066 0.207599 0.5979 1.25379e-38 3
0.238507 0.226559 0.596451 1.26326e-38 3
0.241569 0.229942 0.580427 1.19861e-38 3
0.288159 0.222059 0.560527 0 3
0.252718 0.232252 0.563067 1.24464e-38 3
0.246201 0.235213 0.548548 1.19854e-38 3
0.259902 0.249088 0.539826 1.27226e-38 3
0.147663 0.202622 0.583567 0 3
0.160987 0.207525 0.597686 0 3
0.140051 0.201208 0.553485 1.20769e-38 3
0.156233 0.21086 0.580034 1.22602e-38 3
0.170568 0.217058 0.597086 1.24457e-38 3
0.100411 0.203121 0.534748 1.28159e-38 3
0.108779 0.202457 0.532998 1.43825e-38 3
0.116578 0.20091 0.528926 1.2262e-38 3
0.125541 0.201445 0.530334 1.21698e-38 3
0.137917 0.207034 0.54505 1.29996e-38 3
0.14889 0.209968 0.552772 1.29978e-38 3
0.158786 0.211135 0.555845 1.23521e-38 3
0.167771 0.211029 0.555565 1.58555e-38 3
0.175096 0.208953 0.550099 1.30911e-38 3
0.182968 0.207701 0.546805 1.3552e-38 3
0.107762 0.209179 0.528017 1.23542e-38 3
0.115102 0.206887 0.52223 0 3
0.123307 0.20636 0.5209 1.18932e-38 3
0.132413 0.207311 0.523299 1.2723e-38 3
0.143976 0.21176 0.53453 1.23524e-38 3
0.156291 0.216744 0.54711 1.32744e-38 3
0.16562 0.217271 0.548441 1.29056e-38 3
0.173032 0.21536 0.543617 1.38286e-38 3
0.10807 0.218416 0.529524 1.18932e-38 3
0.116003 0.217094 0.526319 1.1801e-38 3
0.123437 0.215084 0.521446 1.28152e-38 3
0.132413 0.215848 0.523299 1.30918e-38 3
0.143523 0.219786 0.532846 1.20769e-38 3
0.154811 0.223533 0.541929 0 3
0.165125 0.225543 0.546802 0 3
0.173874 0.22532 0.546262 0 3
0.10766 0.226195 0.527518 1.37379e-38 3
0.115954 0.225586 0.526097 1.24471e-38 3
0.124471 0.225465 0.525815 1.26312e-38 3
0.132024 0.223727 0.52176 1.19858e-38 3
0.139284 0.221732 0.517109 0 3
0.147322 0.221133 0.515713 0 3
0.155727 0.221121 0.515683 0 3
0.197222 0.220479 0.514186 0 3
0.107654 0.234788 0.527486 0 3
0.115954 0.23417 0.526097 1.24471e-38 3
0.124357 0.23383 0.525333 1.2723e-38 3
0.129876 0.228462 0.513273 1.21695e-38 3
0.114721 0.240173 0.520504 0 3
0.122814 0.239393 0.518814 1.21698e-38 3
0.0630952 0.206296 0.594146 0 3
0.0706103 0.200121 0.576362 1.1801e-38 3
0.0630796 0.215936 0.593999 1.25386e-38 3
0.0703278 0.208686 0.574056 0 3
0.0779035 0.203998 0.561159 1.28152e-38 3
0.0853976 0.200104 0.550449 1.25393e-38 3
0.00483664 0.221323 0.582666 1.20783e-38 3
0.070977 0.220065 0.579355 1.28152e-38 3
0.0776091 0.212348 0.559038 1.29074e-38 3
0.0851361 0.208445 0.548763 1.26315e-38 3
0.0925572 0.20505 0.539826 1.19862e-38 3
0.0047972 0.228947 0.577914 0 3
0.0797446 0.227563 0.574421 1.18925e-38 3
0.0848404 0.216643 0.546858 0 3
0.09193 0.212409 0.536168 0 3
0.0997309 0.210411 0.531125 1.28159e-38 3
0.00446015 0.221627 0.53731 1.30925e-38 3
0.0321347 0.231534 0.561327 0 3
0.09193 0.221157 0.536168 0 3
0.0997309 0.219076 0.531125 1.29081e-38 3
0.0997132 0.227701 0.53103 0 3
0.0994487 0.235739 0.529622 0 3
-0.497308 0.222846 0.641812 0 3
-0.477659 0.218645 0.629713 0 3
-0.451725 0.211319 0.608614 0 3
-0.467182 0.223462 0.643587 0 3
-0.480396 0.235066 0.677007 0 3
-0.480059 0.24043 0.692455 0 3
-0.46996 0.220487 0.606517 0 3
-0.457986 0.26171 0.660616 0 3
0.478719 0.174908 0.528585 1.18003e-38 3
0.491253 0.176311 0.532826 0 3
0.430722 0.182768 0.50276 0 3
0.443985 0.184875 0.508556 0 3
0.458253 0.187316 0.51527 0 3
0.440027 0.19145 0.504022 0 3
0.455113 0.194382 0.511739 0 3
0.293405 0.188854 0.570731 1.24457e-38 3
0.277563 0.193611 0.557612 0 3
0.213689 0.18665 0.513438 1.21713e-38 3
0.224425 0.181776 0.500031 0 3
0.234607 0.183357 0.50438 1.23539e-38 3
0.242084 0.190993 0.502818 1.18929e-38 3
0.249694 0.190539 0.501624 1.24453e-38 3
0.107122 0.188773 0.570487 1.29996e-38 3
0.117056 0.189788 0.573554 0 3
0.131464 0.19737 0.596466 0 3
0.101807 0.188252 0.54218 0 3
0.110388 0.187802 0.540883 0 3
0.120303 0.18952 0.54583 0 3
0.132781 0.19476 0.560922 0 3
0.101512 0.196528 0.540611 1.32762e-38 3
0.110326 0.196516 0.540578 1.45662e-38 3
0.119146 0.196516 0.540578 1.32755e-38 3
0.12843 0.19723 0.542541 1.29067e-38 3
0.063669 0.19839 0.59955 1.20776e-38 3
0.0715289 0.193198 0.58386 1.32762e-38 3
0.0795641 0.189644 0.573121 1.32762e-38 3
0.0881375 0.187986 0.56811 1.29078e-38 3
0.097413 0.187999 0.568147 1.18936e-38 3
0.0781831 0.195541 0.563173 1.21698e-38 3
0.0864381 0.193452 0.557155 1.32769e-38 3
0.0941063 0.190572 0.548861 1.38301e-38 3
0.0929668 0.197111 0.542215 1.18018e-38 3
0.060317 0.222062 0.67109 0 3
0.0392771 0.238219 0.686088 0 3
0.0458928 0.21661 0.623853 0 3
0.0546724 0.211206 0.608288 0 3
0.0357448 0.226983 0.624387 1.2262e-38 3
0.0455126 0.22491 0.618685 1.28152e-38 3
0.0546644 0.221098 0.608199 0 3
0.0152619 0.235499 0.619987 1.35535e-38 3
0.0254673 0.236333 0.622182 1.24471e-38 3
0.0356034 0.236232 0.621917 1.32762e-38 3
0.045547 0.235182 0.619153 1.42903e-38 3
0.0554308 0.23426 0.616726 1.32762e-38 3
0.0644859 0.230658 0.607241 0 3
0.0150094 0.241551 0.609729 0 3
0.0252669 0.244545 0.617287 0 3
0.0355999 0.246355 0.621856 1.32769e-38 3
0.0478733 0.257812 0.650776 0 3
0.0600541 0.264701 0.668165 1.19854e-38 3
0.0686226 0.255997 0.646195 1.29996e-38 3
0.0751302 0.242948 0.613256 1.23542e-38 3
0.0976875 0.259723 0.629667 1.24464e-38 3
-0.233464 0.231069 0.698309 0 3
-0.208103 0.216536 0.654387 0 3
-0.298793 0.240028 0.691297 0 3
-0.237002 0.234684 0.675907 0 3
-0.215482 0.223787 0.644524 0 3
-0.279509 0.235087 0.64668 0 3
-0.286171 0.250132 0.688066 0 3
-0.279089 0.253903 0.698438 0 3
-0.235489 0.233288 0.64173 0 3
-0.255905 0.233717 0.615296 0 3
-0.266065 0.252917 0.665844 0 3
-0.238231 0.236099 0.621567 0 3
-0.542822 0.259088 0.782986 0 3
-0.580595 0.254802 0.733848 0 3
-0.560792 0.257676 0.708817 0 3
0.327789 0.207157 0.658514 1.24464e-38 3
0.32631 0.216918 0.655543 0 3
0.303435 0.21883 0.630246 0 3
0.129803 0.217463 0.691275 0 3
0.133465 0.205723 0.653957 1.26308e-38 3
0.141661 0.202192 0.642732 0 3
0.15209 0.202116 0.64249 0 3
0.164195 0.204133 0.6489 0 3
0.145562 0.203474 0.614913 1.21698e-38 3
0.156297 0.204392 0.617689 1.18932e-38 3
0.168397 0.206875 0.625193 1.22613e-38 3
0.175936 0.203793 0.61588 1.30911e-38 3
0.182855 0.200364 0.605517 1.20776e-38 3
0.192494 0.200114 0.604761 0 3
0.171566 0.20853 0.600582 0 3
0.181383 0.208551 0.600642 0 3
0.191131 0.208494 0.600478 0 3
0.106451 0.266219 0.620859 1.30936e-38 3
0.106102 0.275444 0.618826 1.24464e-38 3
-0.188517 0.207807 0.66058 0 3
-0.18607 0.217547 0.691543 0 3
-0.189942 0.208327 0.62958 0 3
-0.179466 0.20809 0.628864 0 3
-0.197343 0.215464 0.620552 0 3
-0.185791 0.213821 0.61582 0 3
0.549025 0.158037 0.529851 0 3
0.552442 0.156556 0.524884 0 3
0.558398 0.155828 0.522445 0 3
0.502404 0.168442 0.535445 0 3
0.557216 0.171875 0.546359 0 3
0.554116 0.168227 0.534764 0 3
0.55969 0.167286 0.531771 0 3
0.560243 0.164895 0.52417 0 3
0.500837 0.176625 0.533774 0 3
0.557933 0.172732 0.522009 0 3
0.590436 0.178206 0.513246 0 3
0.596169 0.17742 0.510982 0 3
0.561295 0.196921 0.541693 0 3
0.54487 0.199738 0.525842 0 3
0.829518 0.263689 0.884072 0 3
0.842683 0.277698 0.882753 0 3
0.840617 0.291385 0.880588 0 3
0.155493 0.227247 0.761892 0 3
0.167729 0.226983 0.761007 0 3
0.180146 0.226983 0.761007 0 3
0.196588 0.231729 0.77692 0 3
0.110689 0.250822 0.797318 0 3
0.117191 0.237629 0.755378 0 3
0.124207 0.22789 0.724421 0 3
-0.224273 0.2344 0.785873 0 3
-0.208947 0.231624 0.776565 0 3
-0.249211 0.246523 0.783651 0 3
-0.215627 0.224837 0.714714 0 3
-0.296604 0.23598 0.713151 0 3
-0.280982 0.25337 0.765703 0 3
-0.253899 0.239602 0.724096 0 3
-0.291578 0.24342 0.701068 0 3
-0.271739 0.257118 0.740517 0 3
-0.282503 0.267949 0.737077 0 3
-0.367459 0.235776 0.790485 0 3
-0.352633 0.230548 0.732869 0 3
-0.331804 0.224544 0.713783 0 3
-0.326859 0.229243 0.728721 0 3
-0.319512 0.23255 0.739232 0 3
-0.309096 0.233793 0.743186 0 3
-0.363612 0.234174 0.707692 0 3
-0.305247 0.233689 0.706227 0 3
-0.307771 0.254863 0.770217 0 3
-0.395989 0.244324 0.703672 0 3
-0.306358 0.266202 0.766681 0 3
0.93981 0.247919 0.879299 0 3
0.940579 0.258533 0.866786 0 3
0.935077 0.271081 0.861716 0 3
0.931513 0.284053 0.858432 0 3
0.953515 0.274268 0.828858 0 3
0.449384 0.218701 0.775671 0 3
0.452603 0.203108 0.720366 0 3
0.46576 0.203722 0.722544 0 3
0.474222 0.202303 0.71751 0 3
0.485308 0.202044 0.716594 0 3
0.498855 0.202799 0.719269 0 3
0.458447 0.229558 0.76964 0 3
0.441303 0.209497 0.702381 0 3
0.454552 0.210325 0.705156 0 3
0.470323 0.21225 0.711611 0 3
0.482589 0.212539 0.71258 0 3
0.473467 0.243381 0.773665 0 3
0.441303 0.220957 0.702381 0 3
0.455019 0.222058 0.705881 0 3
0.293642 0.225442 0.79958 0 3
0.200164 0.233776 0.743132 0 3
0.210453 0.231755 0.736706 0 3
0.105531 0.242873 0.861402 0 3
0.119579 0.242861 0.86136 0 3
0.133797 0.243159 0.862416 0 3
0.151606 0.249307 0.884219 0 3
0.179826 0.248432 0.881117 0 3
0.184747 0.236336 0.838217 0 3
0.192199 0.228923 0.811924 0 3
0.104374 0.25411 0.851957 0 3
0.118279 0.254122 0.851997 0 3
0.132233 0.254223 0.852334 0 3
0.146426 0.254723 0.854009 0 3
0.150413 0.238923 0.801038 0 3
-0.0446204 0.220864 0.783341 0 3
-0.0309518 0.214705 0.761496 0 3
-0.0185322 0.214759 0.761688 0 3
-0.00619037 0.217771 0.772371 0 3
-0.0570294 0.232131 0.778268 0 3
-0.0422404 0.221182 0.741559 0 3
-0.0298036 0.218703 0.733247 0 3
-0.0180599 0.221396 0.742277 0 3
-0.00616171 0.229306 0.768795 0 3
-0.0570294 0.244829 0.778268 0 3
-0.0422404 0.233281 0.741559 0 3
-0.0297832 0.230509 0.732745 0 3
-0.0178683 0.23103 0.734402 0 3
-0.00611913 0.240178 0.763482 0 3
-0.299975 0.25298 0.897248 0 3
-0.26794 0.250404 0.88811 0 3
-0.238224 0.235361 0.83476 0 3
-0.218438 0.228899 0.81184 0 3
-0.204261 0.22786 0.808154 0 3
-0.287293 0.256306 0.859317 0 3
-0.269573 0.252835 0.847682 0 3
-0.245707 0.242913 0.814417 0 3
-0.297586 0.266982 0.848687 0 3
-0.270707 0.25472 0.809707 0 3
0.943234 0.310184 1.1677 0 3
0.946744 0.330461 1.17205 0 3
0.943973 0.34856 1.16862 0 3
0.558252 0.204205 0.768741 0 3
0.517619 0.205591 0.729171 0 3
0.557049 0.216281 0.767085 0 3
0.31882 0.21179 0.797297 0 3
0.330072 0.210669 0.793077 0 3
0.3404 0.209065 0.787038 0 3
0.304925 0.224147 0.794985 0 3
0.00662561 0.212025 0.798181 0 3
0.00648119 0.220143 0.780783 0 3
0.00650618 0.233779 0.783793 0 3
0.0195801 0.237242 0.795403 0 3
0.00654213 0.24793 0.788124 0 3
0.0196563 0.251194 0.7985 0 3
0.0321958 0.24744 0.786566 0 3
0.0449059 0.246762 0.784413 0 3
0.0584123 0.249791 0.794039 0 3
0.0445753 0.257649 0.778637 0 3
0.0560373 0.252063 0.761755 0 3
0.0299134 0.265668 0.730803 1.23542e-38 3
-0.363821 0.241857 0.910486 0 3
-0.352063 0.244004 0.918567 0 3
-0.356785 0.258271 0.972275 0 3
-0.347386 0.263168 0.99071 0 3
-0.389509 0.254088 0.901179 0 3
-0.374928 0.254171 0.901474 0 3
-0.446819 0.210914 0.793997 0 3
-0.465715 0.209087 0.741573 0 3
-0.45641 0.210375 0.746141 0 3
-0.451592 0.213859 0.758497 0 3
-0.446392 0.217352 0.770887 0 3
-0.441453 0.22118 0.784461 0 3
-0.434338 0.224112 0.794863 0 3
-0.423385 0.225185 0.798665 0 3
-0.496974 0.224374 0.752261 0 3
-0.477 0.22081 0.740309 0 3
-0.464473 0.220597 0.739595 0 3
-0.454098 0.221422 0.742361 0 3
-0.444379 0.222621 0.746382 0 3
-0.435552 0.224347 0.752168 0 3
-0.432436 0.229199 0.768438 0 3
-0.427757 0.233489 0.78282 0 3
-0.420051 0.23634 0.792377 0 3
-0.487089 0.231941 0.737298 0 3
-0.470355 0.229644 0.729996 0 3
-0.459758 0.230302 0.732087 0 3
-0.451726 0.232314 0.738485 0 3
-0.442744 0.233935 0.743635 0 3
-0.435267 0.236464 0.751675 0 3
-0.431143 0.241014 0.76614 0 3
-0.426125 0.245322 0.779834 0 3
-0.420004 0.24924 0.792288 0 3
-0.486547 0.237826 0.718728 0 3
-0.481247 0.241045 0.728456 0 3
-0.467933 0.240311 0.726238 0 3
-0.458102 0.241374 0.729452 0 3
-0.451039 0.243991 0.73736 0 3
-0.441333 0.245283 0.741265 0 3
-0.43459 0.248341 0.750506 0 3
-0.42925 0.252401 0.762777 0 3
-0.423468 0.256436 0.774971 0 3
-0.403184 0.251667 0.760559 0 3
-0.477653 0.24499 0.705588 0 3
-0.478588 0.251532 0.72443 0 3
-0.467914 0.252149 0.726208 0 3
-0.4573 0.252832 0.728173 0 3
-0.449788 0.255312 0.735315 0 3
-0.44075 0.257038 0.740286 0 3
-0.425236 0.254977 0.734352 0 3
-0.466497 0.256698 0.706128 0 3
-0.434087 0.272515 0.749638 0 3
-0.501594 0.230098 0.866217 0 3
-0.531297 0.232491 0.824579 0 3
-0.577771 0.254566 0.853483 0 3
-0.563146 0.261694 0.831879 0 3
0.600115 0.201508 0.808231 0 3
0.615327 0.202173 0.810899 0 3
0.633547 0.203778 0.817336 0 3
0.651199 0.205138 0.822791 0 3
0.600828 0.21495 0.809191 0 3
0.631974 0.221231 0.832837 0 3
0.646518 0.221558 0.834069 0 3
0.662086 0.222216 0.836547 0 3
0.605868 0.230066 0.815979 0 3
0.637236 0.236775 0.839772 0 3
0.650007 0.236436 0.838571 0 3
0.665639 0.237131 0.841035 0 3
0.64095 0.251936 0.844666 0 3
0.653502 0.251463 0.843081 0 3
0.667631 0.251604 0.843552 0 3
0.652664 0.270573 0.860103 0 3
0.355831 0.17257 0.692163 0 3
0.355083 0.16691 0.66946 0 3
0.366056 0.166933 0.669552 0 3
0.379623 0.168103 0.674247 0 3
0.392222 0.168791 0.677005 0 3
0.360683 0.175246 0.659725 1.38293e-38 3
0.378151 0.178409 0.671632 0 3
0.392193 0.179823 0.676955 0 3
0.330709 0.187323 0.664381 0 3
0.32969 0.197552 0.662333 0 3
0.303299 0.205907 0.825875 0 3
0.314633 0.204516 0.820295 0 3
0.326315 0.203455 0.81604 0 3
0.300451 0.217322 0.818122 0 3
0.310338 0.214925 0.809097 0 3
-0.250302 0.246906 0.990318 0 3
-0.232508 0.24518 0.983396 0 3
-0.27476 0.25575 0.962785 0 3
-0.247201 0.24405 0.91874 0 3
-0.227815 0.239429 0.901345 0 3
-0.291184 0.258166 0.915639 0 3
-0.392034 0.255018 1.02285 0 3
-0.391629 0.266081 1.06723 0 3
-0.308717 0.269707 1.08177 0 3
-0.351043 0.278916 1.05 0 3
-0.344835 0.28804 1.08434 0 3
-0.310457 0.273349 1.02904 0 3
-0.444847 0.2305 0.924514 0 3
-0.458574 0.245952 0.986492 0 3
-0.448414 0.249251 0.999726 0 3
-0.433189 0.247541 0.931883 0 3
-0.432996 0.256431 0.965351 0 3
-0.423355 0.260186 0.979485 0 3
-0.400605 0.255863 0.963212 0 3
-0.485822 0.221666 0.889081 0 3
-0.42887 0.201703 0.809012 0 3
-0.418755 0.2032 0.815016 0 3
-0.41589 0.208428 0.835986 0 3
-0.438806 0.213316 0.803041 0 3
-0.427163 0.214047 0.805791 0 3
-0.41854 0.216386 0.814597 0 3
-0.414667 0.221415 0.833529 0 3
-0.425458 0.23488 0.884218 0 3
-0.417059 0.228864 0.811715 0 3
-0.412201 0.233616 0.828571 0 3
-0.401817 0.235453 0.835086 0 3
-0.419721 0.256981 0.816896 0 3
-0.403182 0.254951 0.810443 0 3
1.04073 0.22016 0.944877 0 1
1.01897 0.212409 0.911611 0 1
1.04073 0.235577 0.944877 0 3
1.01897 0.227283 0.911611 0 3
1.02911 0.255767 0.962848 0 3
1.07949 0.238979 1.02564 0 3
1.07677 0.255068 1.02305 0 3
1.04096 0.275537 1.03727 0 3
0.404921 0.162852 0.698925 0 3
0.408139 0.17083 0.685183 0 3
0.407383 0.181672 0.683914 0 3
0.414146 0.196031 0.695268 0 3
0.285896 0.209284 0.8982 0 3
0.233757 0.216372 0.867851 0 3
0.243164 0.212225 0.851216 0 3
0.251628 0.207747 0.833254 0 3
0.261694 0.204982 0.822167 0 3
0.276818 0.206256 0.827276 0 3
0.291013 0.206752 0.829262 0 3
0.212748 0.238736 0.898735 0 3
0.216711 0.227502 0.856443 0 3
0.225026 0.221922 0.835437 0 3
0.234504 0.21806 0.820899 0 3
0.246545 0.21687 0.816421 1.1801e-38 3
0.259081 0.216216 0.813958 0 3
0.272124 0.216027 0.813246 0 3
0.286946 0.217203 0.817675 0 3
0.206369 0.229952 0.815573 0 3
0.224055 0.234536 0.831831 0 3
0.234965 0.231909 0.822513 0 3
0.246619 0.23026 0.816665 0 3
0.258234 0.228746 0.811296 0 3
0.269538 0.227117 0.805519 0 3
0.281274 0.225987 0.80151 0 3
0.220686 0.244377 0.819322 0 3
0.233517 0.243816 0.817444 0 3
0.246477 0.243444 0.816195 0 3
0.258281 0.242027 0.811445 0 3
0.27032 0.240957 0.807858 0 3
0.281842 0.239547 0.80313 0 3
0.00741146 0.208038 0.892851 1.20783e-38 3
0.00741146 0.222605 0.892851 0 3
0.0213721 0.230625 0.8682 0 3
0.0360212 0.233765 0.880021 0 3
0.0498714 0.231408 0.87115 0 3
0.0644764 0.232822 0.876473 0 3
0.080392 0.237597 0.894446 0 3
0.0198676 0.227558 0.807085 0 3
0.0339245 0.23368 0.828797 0 3
0.0469868 0.231415 0.820762 0 3
0.0618872 0.237199 0.841277 0 3
0.0779607 0.244563 0.867395 0 3
0.0917301 0.243547 0.863791 0 3
0.0332141 0.242026 0.811441 0 3
0.0462867 0.241158 0.808533 0 3
0.0598986 0.242862 0.814244 0 3
0.0750611 0.249093 0.835134 0 3
0.0902533 0.253492 0.849884 0 3
0.0727748 0.254716 0.809696 0 3
0.0866285 0.256621 0.815751 0 3
0.098804 0.253709 0.806495 0 3
0.0353971 0.286152 0.864773 0 3
0.0345843 0.293367 0.844916 0 3
-0.0912631 0.200783 0.861715 0 3
-0.0495043 0.202499 0.869079 0 3
-0.0355414 0.203742 0.874412 0 3
-0.0211318 0.202372 0.868534 1.2262e-38 3
-0.006986 0.203096 0.871641 1.26308e-38 3
-0.093295 0.219626 0.880901 0 3
-0.0786756 0.218939 0.878144 0 3
-0.0626753 0.213247 0.855317 0 3
-0.0495043 0.216679 0.869079 0 3
-0.0355414 0.218008 0.874412 0 3
-0.0211318 0.216543 0.868534 0 3
-0.006986 0.217317 0.871641 0 3
-0.0948831 0.237982 0.895896 0 3
-0.0357816 0.233845 0.880321 0 3
-0.0213407 0.232994 0.87712 0 3
-0.00654465 0.216911 0.816574 0 3
-0.0904874 0.240896 0.854391 0 3
-0.0749962 0.236015 0.837077 0 3
-0.0601992 0.23163 0.821525 0 3
-0.0739156 0.246074 0.825015 0 3
-0.0739156 0.259535 0.825015 0 3
-0.167104 0.251433 1.07909 0 3
-0.138927 0.233655 1.00279 0 3
-0.178605 0.260147 1.04343 0 3
-0.155111 0.249731 1.00165 0 3
-0.183234 0.284356 1.07047 0 3
-0.160304 0.291871 1.03518 0 3
-0.268086 0.247143 1.06068 0 3
-0.244361 0.240817 1.03353 0 3
-0.232987 0.246626 1.05846 0 3
-0.276132 0.255868 1.02626 0 3
-0.22845 0.258757 1.03785 0 3
-0.223747 0.273719 1.09786 0 3
-0.201464 0.267907 1.07455 0 3
-0.495858 0.240117 1.03053 0 3
-0.477174 0.23918 1.02651 0 3
-0.466255 0.242208 1.0395 0 3
-0.45167 0.243488 1.045 0 3
-0.435551 0.24401 1.04723 0 3
-0.432944 0.252453 1.08347 0 3
-0.4343 0.250519 1.00481 0 3
-0.417952 0.250546 1.00492 0 3
-0.401936 0.250784 1.00587 0 3
0.713762 0.151651 0.699855 0 3
0.72518 0.151651 0.699855 0 1
0.701565 0.162888 0.699079 0 3
0.709023 0.161986 0.695208 0 3
0.718086 0.161474 0.693008 0 3
0.711121 0.173842 0.697265 0 3
0.718636 0.172913 0.693539 0 3
0.584884 0.14517 0.669947 0 3
0.595814 0.14517 0.669947 0 3
0.596076 0.192835 0.64652 0 3
0.570197 0.194553 0.61845 0 3
0.401206 0.154408 0.71258 0 3
0.412832 0.154408 0.71258 0 3
0.420989 0.164677 0.706755 0 3
0.443287 0.168776 0.724349 0 3
0.481113 0.178421 0.765744 0 3
0.434739 0.177112 0.710382 0 3
0.469198 0.186187 0.74678 0 3
0.483112 0.186856 0.749463 0 3
0.482909 0.182167 0.730655 0 3
0.491567 0.180965 0.725835 0 3
0.429569 0.186458 0.701933 0 3
0.455117 0.192418 0.724368 0 3
0.468117 0.192905 0.7262 0 3
0.474465 0.190694 0.717879 0 3
0.485388 0.190384 0.716713 0 3
0.432069 0.199063 0.706019 0 3
0.353974 0.164902 0.761007 0 3
0.349428 0.157267 0.725776 0 3
0.359605 0.156542 0.722431 0 3
0.368 0.155113 0.715833 0 3
0.379679 0.155113 0.715833 0 3
0.391358 0.155113 0.715833 0 3
0.352458 0.182977 0.785294 0 3
0.351407 0.176032 0.755489 0 3
0.350062 0.169415 0.727091 0 3
0.357172 0.167191 0.717544 0 3
0.363823 0.164899 0.707709 0 3
0.371632 0.163257 0.700662 0 3
0.383853 0.163594 0.702106 0 3
0.394213 0.16314 0.70016 0 3
0.340479 0.19627 0.78722 0 3
0.34777 0.193185 0.774849 0 3
0.343197 0.183957 0.737837 0 3
0.349288 0.180877 0.725484 0 3
0.356579 0.178601 0.716353 0 3
0.390844 0.195742 0.736883 0 3
0.202497 0.214998 0.992199 0 3
0.218685 0.214998 0.992199 0 3
0.234873 0.214998 0.992199 0 3
0.244863 0.20969 0.967701 0 3
0.260651 0.20969 0.967701 0 3
0.27644 0.20969 0.967701 0 3
0.292229 0.20969 0.967701 0 3
0.216796 0.22919 0.98363 0 3
0.230124 0.226512 0.972136 0 3
0.238429 0.219554 0.942275 0 3
0.249518 0.215847 0.926365 0 3
0.26162 0.21339 0.915822 0 3
0.275267 0.212391 0.911534 0 3
0.211961 0.239768 0.96169 0 3
0.223777 0.235688 0.945325 0 3
0.2294 0.226031 0.906591 0 3
0.203752 0.245566 0.924449 0 3
0.186308 0.214998 0.992199 0 3
0.170406 0.231576 0.99387 0 3
0.18491 0.229452 0.984754 0 3
0.199988 0.228322 0.979906 0 3
0.154996 0.249085 0.999058 0 3
0.165566 0.240754 0.965642 0 3
0.178593 0.237131 0.951111 0 3
0.194702 0.237853 0.954008 0 3
0.112418 0.243751 0.917616 0 3
0.130396 0.249505 0.939277 0 3
0.148472 0.254216 0.957009 0 3
0.1623 0.251448 0.946589 0 3
0.17592 0.248867 0.936875 0 3
0.189546 0.246707 0.928741 0 3
0.169617 0.254689 0.90331 0 3
0.0381955 0.202201 0.93314 0 3
0.022356 0.211608 0.908172 0 3
0.0371211 0.21131 0.906892 0 3
0.0534013 0.217348 0.932809 0 3
0.022356 0.226425 0.908172 0 3
0.0371211 0.226106 0.906892 0 3
0.0530465 0.231023 0.926612 0 3
0.0730983 0.247743 0.993676 0 3
0.095911 0.239912 0.903161 0 3
-0.0922391 0.188721 0.870931 0 3
-0.0780293 0.188721 0.870931 0 3
-0.0645366 0.190841 0.880716 0 3
-0.0216717 0.19301 0.890724 1.1801e-38 3
-0.0765072 0.198972 0.853942 0 3
-0.062626 0.199135 0.854643 0 3
-0.115427 0.204637 0.944383 0 3
-0.111665 0.212875 0.91361 0 3
-0.125971 0.226701 0.909277 0 3
-0.148084 0.25402 0.956272 0 3
-0.131416 0.251977 0.948582 0 3
-0.114341 0.248502 0.935499 0 3
-0.131107 0.266823 0.946345 0 3
-0.498223 0.249777 1.1527 0 3
-0.479416 0.249777 1.1527 0 3
-0.442689 0.269124 1.15502 0 3
0.605588 0.138991 0.693662 0 1
0.616905 0.138991 0.693662 0 1
0.620683 0.159686 0.685337 0 3
0.640494 0.173201 0.694696 0 3
0.64046 0.17157 0.608511 0 3
0.66028 0.193102 0.647415 0 3
0.637376 0.199797 0.635117 0 3
0.562322 0.151749 0.757331 0 1
0.566469 0.149581 0.746512 0 1
0.581417 0.150296 0.750084 0 1
0.562322 0.164105 0.757331 0 3
0.566469 0.161761 0.746512 0 3
0.581417 0.162535 0.750084 0 3
0.504452 0.182342 0.782568 0 3
0.518247 0.182704 0.784122 0 3
0.534067 0.183745 0.78859 0 3
0.550874 0.185069 0.794273 0 3
0.599667 0.184134 0.790262 0 3
0.507648 0.182489 0.731947 0 3
0.553927 0.194549 0.780318 0 3
0.500152 0.19156 0.721139 0 3
0.518641 0.194076 0.73061 0 3
0.424025 0.176472 0.880716 0 3
0.47092 0.172593 0.86136 0 1
0.484974 0.172593 0.86136 0 1
0.218685 0.19881 0.992199 0 3
0.234873 0.19881 0.992199 0 3
0.299627 0.19881 0.992199 0 3
0.207756 0.203974 1.01797 0 3
0.260972 0.206658 1.03137 0 3
0.275984 0.205307 1.02462 0 3
0.292701 0.205307 1.02462 0 3
0.113251 0.213687 1.06645 0 3
0.129768 0.212243 1.05924 0 3
0.14705 0.212243 1.05924 0 3
0.162141 0.209413 1.04512 0 3
0.176835 0.206658 1.03137 0 3
0.191147 0.203974 1.01797 0 3
0.113251 0.231087 1.06645 0 3
0.128897 0.227985 1.05213 0 3
0.14318 0.223485 1.03137 0 3
0.15793 0.220583 1.01797 0 3
0.172301 0.217755 1.00492 0 3
0.112589 0.247033 1.06021 0 3
0.129491 0.246281 1.05698 0 3
0.144251 0.242109 1.03907 0 3
0.157514 0.236566 1.01529 0 3
0.108052 0.25368 1.01749 0 3
0.126769 0.257986 1.03476 0 3
0.142315 0.255585 1.02513 0 3
0.0411336 0.201359 1.00492 0 3
0.0598307 0.209413 1.04512 0 3
0.0784515 0.213687 1.06645 0 3
0.0958512 0.213687 1.06645 0 3
0.0594344 0.224965 1.0382 0 3
0.0773984 0.227985 1.05213 0 3
0.0952036 0.229525 1.05924 0 3
0.0752594 0.238376 1.02305 0 3
0.0945204 0.245036 1.05164 0 3
0.091185 0.252942 1.01453 0 3
-0.183912 0.237969 1.18763 0 1
-0.197309 0.249777 1.1527 0 3
-0.175915 0.246157 1.136 0 3
-0.155133 0.242641 1.11977 0 3
-0.193866 0.263897 1.13259 0 3
-0.280797 0.237969 1.18763 0 3
-0.222666 0.237969 1.18763 0 3
-0.203289 0.237969 1.18763 0 3
-0.291345 0.249777 1.1527 0 3
-0.272538 0.249777 1.1527 0 3
-0.257518 0.253505 1.16991 0 3
-0.242043 0.257346 1.18763 0 3
-0.219342 0.253505 1.16991 0 3
-0.299866 0.259677 1.11447 0 3
-0.224506 0.256674 1.10158 0 3
-0.211692 0.263086 1.1291 0 3
-0.319551 0.237969 1.18763 0 3
-0.300174 0.237969 1.18763 0 3
-0.333869 0.253505 1.16991 0 3
-0.314781 0.253505 1.16991 0 3
-0.354825 0.274036 1.1761 0 3
-0.327776 0.267619 1.14856 0 3
-0.391729 0.278533 1.11717 0 3
-0.383008 0.285623 1.14561 0 3
-0.36615 0.28706 1.15137 0 3
-0.341145 0.28192 1.13076 0 3
-0.4925 0.257475 1.28498 0 3
-0.471535 0.257475 1.28498 0 3
-0.443302 0.253322 1.26425 0 3
-0.415966 0.249301 1.24419 0 3
-0.489397 0.265388 1.22475 0 3
-0.484557 0.273949 1.26425 0 3
-0.456566 0.269601 1.24419 0 3
-0.429449 0.265388 1.22475 0 3
-0.409467 0.265388 1.22475 0 3
-0.443717 0.281743 1.20917 0 3
-0.429334 0.285295 1.22442 0 3
-0.40902 0.28506 1.22341 0 3
-0.552075 0.237969 1.18763 0 3
-0.532698 0.237969 1.18763 0 3
-0.513321 0.237969 1.18763 0 3
-0.535837 0.249777 1.1527 0 3
-0.51703 0.249777 1.1527 0 3
-0.594171 0.278289 1.19435 0 3
-0.64896 0.237969 1.18763 0 3
-0.629583 0.237969 1.18763 0 3
-0.610206 0.237969 1.18763 0 3
0.701426 0.132969 0.722431 0 1
0.703487 0.142782 0.71258 0 1
0.711877 0.142136 0.709355 0 1
0.705493 0.152331 0.702993 0 3
0.702496 0.19339 0.775671 0 3
0.704124 0.17493 0.70163 0 3
0.672261 0.134206 0.729151 0 1
0.68099 0.133584 0.725776 0 1
0.689639 0.132969 0.722431 0 1
0.651277 0.144092 0.719117 0 1
0.672261 0.146102 0.729151 0 1
0.68099 0.145426 0.725776 0 1
0.689639 0.144756 0.722431 0 1
0.691861 0.142782 0.71258 0 1
0.642436 0.153709 0.709355 0 3
0.669149 0.157267 0.725776 0 3
0.677852 0.156542 0.722431 0 3
0.683341 0.155113 0.715833 0 3
0.685628 0.153017 0.70616 0 3
0.697149 0.153017 0.70616 0 3
0.617068 0.185489 0.796077 0 3
0.669693 0.175456 0.753018 0 3
0.65701 0.166041 0.71261 0 3
0.678618 0.16852 0.723248 0 3
0.684291 0.167024 0.716828 0 3
0.685605 0.164533 0.706136 0 3
0.692219 0.163374 0.701166 0 3
0.666839 0.17719 0.710694 0 3
0.684704 0.178827 0.717261 0 3
0.688384 0.176768 0.708999 0 3
0.695329 0.1756 0.704316 0 3
0.588704 0.163944 0.890724 0 1
0.557053 0.168881 0.842836 0 1
0.570804 0.168881 0.842836 0 1
0.541189 0.186647 0.86136 0 3
0.555242 0.186647 0.86136 0 3
0.560064 0.18362 0.847392 0 3
0.57389 0.18362 0.847392 0 3
0.594139 0.185627 0.856653 0 3
0.592932 0.176926 0.816498 0 3
0.583395 0.19149 0.82183 0 3
0.597937 0.191853 0.82339 0 3
0.59742 0.187475 0.804601 0 3
0.114813 0.198994 1.08116 0 1
0.14705 0.194961 1.05924 0 1
0.164332 0.194961 1.05924 0 1
0.179193 0.192361 1.04512 0 1
0.196245 0.192361 1.04512 0 1
0.0250589 0.187365 1.01797 0 1
0.0416678 0.187365 1.01797 0 1
0.0610517 0.196287 1.06645 0 1
0.0795335 0.198994 1.08116 0 1
0.0971733 0.198994 1.08116 0 1
0.00779227 0.17278 0.938728 0 1
0.00774589 0.186976 0.93314 0 3
0.0238214 0.193901 0.967701 0 3
0.00765476 0.199822 0.922162 0 3
0.0227004 0.199822 0.922162 0 3
-0.0976649 0.169731 0.922162 0 1
-0.0816586 0.167757 0.911439 0 1
-0.0675736 0.169731 0.922162 0 1
-0.0528387 0.170735 0.927618 0 1
-0.0976649 0.184776 0.922162 0 1
-0.0811865 0.181572 0.906171 0 1
-0.0671784 0.183696 0.916769 0 1
-0.0525279 0.184776 0.922162 0 3
-0.0372631 0.183696 0.916769 0 3
-0.0223054 0.183696 0.916769 0 3
-0.00734769 0.183696 0.916769 0 3
-0.051617 0.196357 0.906171 0 3
-0.0368323 0.196357 0.906171 0 3
-0.007221 0.195228 0.900963 0 3
-0.289571 0.225423 1.22475 0 3
-0.265441 0.221955 1.2059 0 1
-0.245766 0.221955 1.2059 0 1
-0.226091 0.221955 1.2059 0 1
-0.206416 0.221955 1.2059 0 1
-0.265441 0.24163 1.2059 0 3
-0.245766 0.24163 1.2059 0 3
-0.349519 0.225423 1.22475 0 3
-0.329536 0.225423 1.22475 0 3
-0.309554 0.225423 1.22475 0 3
-0.389484 0.245406 1.22475 0 3
-0.369502 0.245406 1.22475 0 3
-0.344142 0.24163 1.2059 0 3
-0.389484 0.265388 1.22475 0 3
-0.363817 0.261306 1.2059 0 3
-0.382197 0.280031 1.20183 0 3
-0.589309 0.225423 1.22475 0 3
-0.569327 0.225423 1.22475 0 3
-0.555396 0.23651 1.28498 0 3
-0.534431 0.23651 1.28498 0 3
-0.580243 0.24163 1.2059 0 3
-0.509379 0.245406 1.22475 0 3
-0.513465 0.257475 1.28498 0 3
-0.580243 0.261306 1.2059 0 3
-0.609292 0.225423 1.22475 0 1
-0.609292 0.245406 1.22475 0 3
-0.658944 0.261306 1.2059 0 3
-0.639268 0.261306 1.2059 0 3
-0.629274 0.265388 1.22475 0 3
-0.609292 0.265388 1.22475 0 3
1.46889 0.205441 1.22475 0 1
1.42893 0.225423 1.22475 0 1
1.44891 0.225423 1.22475 0 1
1.46889 0.225423 1.22475 0 1
1.42893 0.245406 1.22475 0 1
1.44891 0.245406 1.22475 0 1
1.46889 0.245406 1.22475 0 1
1.40894 0.265388 1.22475 0 1
1.44681 0.297256 1.27575 0 1
0.617769 0.149411 0.890724 0 1
0.632302 0.149411 0.890724 0 1
0.603236 0.163944 0.890724 0 1
0.617769 0.163944 0.890724 0 1
0.632302 0.163944 0.890724 0 1
0.625511 0.15854 0.86136 0 1
0.639564 0.15854 0.86136 0 1
0.668306 0.162102 0.880716 0 1
0.605547 0.167085 0.83387 0 1
0.639557 0.175102 0.80808 0 3
0.640318 0.18851 0.809042 0 3
0.510076 0.166433 0.992199 0 1
0.51327 0.178112 0.967701 0 1
0.529059 0.178112 0.967701 0 1
0.544847 0.178112 0.967701 0 1
0.507011 0.191536 0.955899 0 1
0.587524 0.182628 0.911439 0 1
0.0104944 0.212068 1.26425 0 1
0.0311216 0.212068 1.26425 0 1
0.0509273 0.208702 1.24419 0 1
-0.0549309 0.226693 1.35144 0 1
-0.0323239 0.222851 1.32854 0 1
-0.0106479 0.222851 1.32854 0 1
-0.0549309 0.248743 1.35144 0 1
-0.0323239 0.244527 1.32854 0 1
-0.0106479 0.244527 1.32854 0 1
-0.479447 0.156526 0.93314 0 1
-0.494672 0.171751 0.93314 0 1
-0.479447 0.171751 0.93314 0 1
0.930974 0.150245 0.992199 0 1
0.947162 0.150245 0.992199 0 1
0.919336 0.164353 0.979797 0 1
0.923775 0.162324 0.967701 0 1
0.939564 0.162324 0.967701 0 1
0.510028 0.155155 1.02462 0 1
0.526745 0.155155 1.02462 0 1
0.573447 0.163715 1.08116 0 1
0.543462 0.171872 1.02462 0 1
0.571383 0.17531 1.04512 0 1
0.42377 0.148367 0.979797 0 1
0.439756 0.148367 0.979797 0 1
0.455742 0.148367 0.979797 0 1
0.418815 0.156526 0.93314 0 1
0.450115 0.162324 0.967701 0 1
0.465904 0.162324 0.967701 0 1
0.481693 0.162324 0.967701 0 1
0.416337 0.170735 0.927618 0 1
0.43404 0.171751 0.93314 0 1
0.460222 0.17594 0.955899 0 1
0.481693 0.178112 0.967701 0 1
0.497481 0.178112 0.967701 0 1
0.470086 0.189229 0.944383 0 3
0.491415 0.191536 0.955899 0 3
0.370712 0.134879 0.890724 0 1
0.370712 0.149411 0.890724 0 1
0.370712 0.178477 0.890724 0 3
0.383069 0.177469 0.885692 0 3
0.370321 0.165326 0.825092 0 3
0.383783 0.165326 0.825092 0 3
0.302277 0.186647 0.86136 0 3
0.326793 0.184618 0.851997 0 3
0.338852 0.18362 0.847392 0 3
0.350782 0.182633 0.842836 0 3
0.353142 0.176926 0.816498 0 3
0.362685 0.175102 0.80808 0 3
0.311456 0.197608 0.848088 0 3
0.32426 0.19698 0.845395 0 3
0.33268 0.193849 0.831957 0 3
0.341065 0.190945 0.81949 0 3
0.348599 0.1878 0.805995 0 3
0.33352 0.199795 0.80136 0 3
0.359826 0.148367 0.979797 0 1
0.349592 0.138015 0.911439 0 1
0.360274 0.136429 0.900963 0 1
0.317827 0.167493 0.998519 0 1
0.329916 0.165386 0.985959 0 1
0.337511 0.161328 0.961764 0 1
0.353203 0.161328 0.961764 0 1
0.349592 0.152886 0.911439 0 1
0.360274 0.151129 0.900963 0 1
0.391926 0.152002 0.906171 0 1
0.311868 0.180339 0.979797 0 1
0.327854 0.180339 0.979797 0 1
0.323614 0.169731 0.922162 0 1
0.338659 0.169731 0.922162 0 1
0.351637 0.168738 0.916769 0 1
0.366594 0.168738 0.916769 0 1
0.377141 0.166787 0.906171 0 1
0.391926 0.166787 0.906171 0 1
0.311868 0.196325 0.979797 0 3
0.327854 0.196325 0.979797 0 3
0.318002 0.181572 0.906171 0 3
0.332787 0.181572 0.906171 0 3
0.347572 0.181572 0.906171 0 3
0.362356 0.181572 0.906171 0 3
0.332787 0.196357 0.906171 0 3
0.311454 0.156175 1.03137 0 1
0.319864 0.152171 1.00492 0 1
0.33626 0.152171 1.00492 0 1
0.352656 0.152171 1.00492 0 1
0.309419 0.171872 1.02462 0 1
0.309419 0.188589 1.02462 0 1
0.250743 0.160396 1.05924 0 1
0.264452 0.158258 1.04512 0 1
0.279639 0.15721 1.0382 0 1
0.294627 0.156175 1.03137 0 1
0.222184 0.182614 1.08866 0 1
0.230348 0.17531 1.04512 0 1
0.2474 0.17531 1.04512 0 1
0.264452 0.17531 1.04512 0 1
0.279639 0.174149 1.0382 0 1
0.294627 0.173003 1.03137 0 1
0.207756 0.187365 1.01797 0 1
0.224365 0.187365 1.01797 0 1
0.240974 0.187365 1.01797 0 1
0.260972 0.18983 1.03137 0 1
0.2778 0.18983 1.03137 0 1
0.292701 0.188589 1.02462 0 1
0.128061 0.182605 1.2059 0 1
0.147736 0.182605 1.2059 0 1
0.167411 0.182605 1.2059 0 1
0.102848 0.173275 1.14429 0 1
0.181501 0.177154 1.16991 0 1
0.194775 0.172019 1.136 0 1
0.100644 0.187832 1.11977 0 1
0.124238 0.196242 1.16991 0 1
0.141218 0.193356 1.1527 0 1
0.157706 0.190554 1.136 0 1
0.17624 0.190554 1.136 0 1
0.191992 0.187832 1.11977 0 1
0.0841778 0.173275 1.14429 0 1
0.0641043 0.187832 1.11977 0 1
0.082374 0.187832 1.11977 0 1
-0.537929 0.144748 0.955899 0 1
-0.537929 0.160344 0.955899 0 1
-0.522333 0.160344 0.955899 0 1
-0.537929 0.17594 0.955899 0 1
-0.51604 0.17382 0.944383 0 1
0.701209 0.127596 0.944383 0 1
0.708086 0.141302 0.93314 0 1
0.723311 0.141302 0.93314 0 1
0.723311 0.156526 0.93314 0 1
0.70649 0.167757 0.911439 0 1
0.685801 0.127596 0.944383 0 1
0.677636 0.141302 0.93314 0 1
0.692861 0.141302 0.93314 0 1
0.677636 0.156526 0.93314 0 1
0.692861 0.156526 0.93314 0 1
0.691619 0.152886 0.911439 0 1
0.213309 0.153485 1.136 0 1
0.231844 0.153485 1.136 0 1
0.243326 0.149161 1.104 0 1
0.261338 0.149161 1.104 0 1
0.210262 0.169562 1.11977 0 1
0.228532 0.169562 1.11977 0 1
0.243326 0.167174 1.104 0 1
0.207301 0.185186 1.104 0 1
0.034456 0.189115 1.39971 0 1
0.05438 0.179499 1.32854 0 1
0.0760559 0.179499 1.32854 0 1
0.972454 0.127556 1.07375 0 1
0.989973 0.127556 1.07375 0 1
0.967723 0.122521 1.03137 0 1
0.98455 0.122521 1.03137 0 1
0.972454 0.145075 1.07375 0 1
0.983239 0.144088 1.06645 0 1
0.967723 0.139348 1.03137 0 1
0.959305 0.135775 1.00492 0 1
0.975701 0.135775 1.00492 0 1
0.970041 0.15932 1.05213 0 1
0.957082 0.183891 1.09628 0 1
0.974969 0.183891 1.09628 0 1
0.965839 0.178887 1.06645 0 1
0.970041 0.176486 1.05213 0 1
0.981835 0.131149 1.104 0 1
0.973225 0.153485 1.136 0 1
0.991759 0.153485 1.136 0 1
0.981835 0.149161 1.104 0 1
0.973225 0.172019 1.136 0 1
0.963822 0.167174 1.104 0 1
0.981835 0.167174 1.104 0 1
0.999847 0.167174 1.104 0 1
0.966223 0.189183 1.12782 0 1
0.759067 0.0750718 0.732558 0 1
0.77102 0.0750718 0.732558 0 1
0.759067 0.087024 0.732558 0 1
0.77102 0.087024 0.732558 0 1
-0.543987 0.0368074 0.687577 0 1
-0.532769 0.0368074 0.687577 0 1
-0.543987 0.0480256 0.687577 0 1
-0.532769 0.0480256 0.687577 0 1
-0.187411 0.0211408 4.61081 0 1
-0.112183 0.0211408 4.61081 0 1
-0.112183 0.0963692 4.61081 0 1
-0.388264 0.235497 0.835242 0 3
-0.386738 0.243104 0.862221 0 3
-0.3512 0.247807 0.878901 0 3
-0.335615 0.246891 0.875652 0 3
-0.327956 0.251983 0.893713 0 3
-0.31518 0.253435 0.898862 0 3
-0.381986 0.254012 0.851626 0 3
-0.38761 0.267482 0.896786 0 3
-0.374249 0.268392 0.89984 0 3
-0.349452 0.260842 0.874526 0 3
-0.332355 0.258641 0.867146 0 3
-0.318295 0.258712 0.867385 0 3
-0.302712 0.257495 0.863305 0 3
-0.321094 0.252786 0.803559 0 3
-0.325845 0.267446 0.850161 0 3
-0.312648 0.268023 0.851997 0 3
-0.31183 0.269216 0.813593 0 3
-0.311093 0.281823 0.811671 0 3
-0.0403745 0.186775 0.291429 1.3551e-38 3
-0.0603339 0.194561 0.296041 1.41023e-38 3
-0.0551145 0.193197 0.293964 1.35495e-38 3
-0.0500285 0.192084 0.292272 1.43796e-38 3
-0.0451263 0.191517 0.291409 1.5947e-38 3
-0.0403745 0.19153 0.291429 1.45651e-38 3
-0.0941923 0.199492 0.296191 0 3
-0.0876538 0.195684 0.290536 0 3
-0.0821884 0.193973 0.287995 0 3
-0.077259 0.193396 0.287139 1.18939e-38 3
-0.072579 0.193409 0.287158 0 3
-0.068062 0.193888 0.287869 1.34602e-38 3
-0.0638726 0.19544 0.290174 1.24446e-38 3
-0.0596472 0.197122 0.292671 1.38265e-38 3
-0.0550373 0.197716 0.293553 1.55782e-38 3
-0.0502444 0.197702 0.293533 1.63168e-38 3
-0.0453595 0.197286 0.292915 1.39197e-38 3
-0.0868872 0.198671 0.287995 1.19865e-38 3
-0.0819439 0.19808 0.287139 0 3
-0.077254 0.198067 0.28712 1.20794e-38 3
-0.072579 0.198094 0.287158 0 3
-0.068062 0.198584 0.287869 1.39212e-38 3
-0.346208 0.230278 0.695919 0 3
-0.332037 0.228341 0.690064 0 3
-0.319958 0.227757 0.688299 0 3
-0.313407 0.231209 0.698732 0 3
-0.374172 0.237757 0.684756 0 3
-0.3523 0.230749 0.664572 0 3
-0.328667 0.222105 0.639679 0 3
-0.31061 0.216787 0.624361 0 3
-0.300181 0.216612 0.623858 0 3
-0.30283 0.226193 0.651453 0 3
-0.305152 0.236219 0.680327 0 3
-0.355925 0.229924 0.632478 0 3
-0.336681 0.223987 0.616146 0 3
-0.321333 0.220356 0.606156 0 3
-0.390408 0.256094 0.674207 0 3
-0.37736 0.244396 0.616911 0 3
-0.378624 0.24868 0.602896 0 3
-0.280905 -1.77606 3.13535 0 1
-0.22975 -1.77606 3.13535 0 1
-0.286638 -1.76011 3.19934 0 1
