# .PCD v0.7 - Point Cloud Data file format
VERSION 0.7
FIELDS x y z rgb label
SIZE 4 4 4 4 4
TYPE F F F F U
COUNT 1 1 1 1 1
WIDTH 1543
HEIGHT 1
VIEWPOINT 0 0 0 1 0 0 0
POINTS 1543
DATA ascii
-0.0822375 0.200219 0.347825 1.36435e-38 3
-0.0770898 0.201598 0.35022 1.24442e-38 3
-0.0715285 0.20203 0.35097 1.33669e-38 3
-0.0657538 0.201881 0.350711 1.41056e-38 3
-0.0599011 0.201442 0.349948 1.29981e-38 3
-0.0541839 0.201414 0.349899 1.18921e-38 3
-0.0483625 0.200946 0.349087 1.2907e-38 3
-0.0980967 0.203476 0.34374 1.62257e-38 3
-0.0926235 0.203773 0.344242 1.36432e-38 3
-0.0871024 0.203997 0.34462 0 3
-0.0818875 0.205018 0.346344 1.2445e-38 3
-0.0769533 0.206945 0.3496 1.47491e-38 3
-0.0715315 0.207764 0.350984 1.34591e-38 3
-0.0658092 0.207778 0.351007 1.32758e-38 3
-0.0599135 0.207194 0.350021 0 3
-0.0542152 0.207242 0.350102 0 3
-0.0978583 0.208576 0.342904 1.56725e-38 3
-0.0924792 0.209064 0.343706 1.3368e-38 3
-0.0869557 0.209266 0.344039 0 3
-0.0818694 0.210622 0.346268 1.32747e-38 3
-0.0769918 0.212756 0.349775 1.22599e-38 3
-0.0716758 0.213922 0.351692 1.42882e-38 3
-0.0659242 0.213878 0.35162 1.30896e-38 3
-0.0973847 0.218702 0.341245 1.19858e-38 3
-0.0922121 0.219643 0.342713 0 3
0.245772 0.20192 0.371859 1.20758e-38 3
0.252151 0.20217 0.37232 1.27212e-38 3
0.257673 0.201738 0.371523 1.41052e-38 3
0.26205 0.200449 0.36915 1.25379e-38 3
0.267351 0.201392 0.360067 0 3
0.274077 0.202019 0.361188 0 3
0.286416 0.200066 0.347558 0 3
-0.0625732 0.379241 0.698416 1.47506e-38 3
-0.0622756 0.388778 0.695094 1.36442e-38 3
-0.0621693 0.399436 0.693908 0 3
0.094308 0.209829 0.398395 1.18932e-38 3
0.087857 0.21645 0.398617 0 3
0.0940805 0.215807 0.397434 1.2723e-38 3
0.0875579 0.222194 0.39726 1.32762e-38 3
-0.185503 0.210178 0.399058 0 3
-0.178616 0.209737 0.39822 1.21698e-38 3
-0.171251 0.208679 0.396211 0 3
-0.163665 0.207258 0.393514 0 3
-0.189735 0.214117 0.394322 0 3
-0.182324 0.212975 0.392218 0 3
-0.175774 0.212793 0.391884 0 3
-0.168863 0.212143 0.390686 0 3
-0.161586 0.210964 0.388515 0 3
-0.198219 0.202893 0.362751 0 3
-0.19399 0.204676 0.36594 0 3
-0.189801 0.206616 0.369407 0 3
-0.189519 0.213075 0.380955 1.25386e-38 3
-0.185643 0.215794 0.385817 0 3
-0.179075 0.215465 0.385229 0 3
-0.173117 0.215874 0.38596 0 3
-0.167259 0.216442 0.386976 0 3
-0.197436 0.207987 0.361319 0 3
-0.193464 0.210076 0.364948 0 3
-0.172862 0.221843 0.385389 0 3
-0.171785 0.22671 0.382989 1.18929e-38 3
-0.109161 0.203192 0.34326 0 3
-0.103547 0.203167 0.343217 1.34606e-38 3
-0.108946 0.208382 0.342585 1.41063e-38 3
-0.103279 0.208225 0.342327 0 3
-0.108496 0.213087 0.341169 0 3
-0.108378 0.218416 0.340799 1.1801e-38 3
-0.102826 0.218434 0.340826 0 3
0.119716 0.202328 0.396434 1.27223e-38 3
0.125614 0.201413 0.394642 1.43822e-38 3
0.131452 0.200497 0.392847 1.29992e-38 3
0.150428 0.200161 0.392188 1.3735e-38 3
0.157809 0.201415 0.394644 1.55793e-38 3
0.164846 0.202148 0.396081 1.46584e-38 3
0.171841 0.202776 0.397312 1.38279e-38 3
0.178944 0.203482 0.398695 1.2445e-38 3
0.185527 0.203568 0.398863 1.18003e-38 3
0.191759 0.203276 0.398292 0 3
0.100625 0.209448 0.397672 1.21691e-38 3
0.106808 0.20885 0.396536 1.47506e-38 3
0.112862 0.208084 0.395082 1.55803e-38 3
0.119114 0.207746 0.39444 1.29067e-38 3
0.124973 0.206792 0.39263 1.34606e-38 3
0.13053 0.205456 0.390091 1.51194e-38 3
0.136044 0.204179 0.387667 1.37364e-38 3
0.142409 0.204236 0.387776 1.39197e-38 3
0.148679 0.204158 0.387627 1.49339e-38 3
0.154095 0.202961 0.385356 1.33677e-38 3
0.159623 0.202001 0.383532 1.20769e-38 3
0.165176 0.201143 0.381904 1.41967e-38 3
0.171337 0.20106 0.381746 1.29059e-38 3
0.178811 0.202471 0.384424 1.53038e-38 3
0.185301 0.202709 0.384877 0 3
0.100183 0.214987 0.395923 1.36442e-38 3
0.105638 0.212962 0.392193 1.38286e-38 3
0.111201 0.211372 0.389267 1.29989e-38 3
0.117517 0.21131 0.389152 1.60413e-38 3
0.123582 0.210826 0.38826 1.21691e-38 3
0.129859 0.210731 0.388086 1.45662e-38 3
0.135292 0.20934 0.385524 1.38286e-38 3
0.140834 0.208234 0.383487 1.61328e-38 3
0.146647 0.207606 0.38233 1.53952e-38 3
0.151848 0.206198 0.379737 1.56715e-38 3
0.156811 0.204589 0.376775 1.39197e-38 3
0.160916 0.202026 0.372055 1.31833e-38 3
0.165615 0.200366 0.368998 1.4013e-38 3
0.172518 0.201397 0.370895 1.22613e-38 3
0.181526 0.204731 0.377037 0 3
0.116712 0.216169 0.386487 1.29992e-38 3
0.144951 0.21137 0.377908 1.30911e-38 3
0.149317 0.208853 0.373408 1.37354e-38 3
0.153613 0.206439 0.369092 1.27212e-38 3
0.158866 0.205444 0.367313 1.23535e-38 3
0.164405 0.204879 0.366302 1.19847e-38 3
0.170607 0.205151 0.366788 1.3552e-38 3
0.178192 0.20701 0.370112 1.24457e-38 3
0.158102 0.21042 0.365546 0 3
0.163185 0.209291 0.363585 1.4013e-38 3
-0.0433637 0.181073 0.354788 1.25382e-38 3
-0.0665548 0.186965 0.354984 0 3
-0.0607626 0.186964 0.354981 1.30903e-38 3
-0.0549398 0.186858 0.354781 1.29059e-38 3
-0.0491751 0.186948 0.354953 1.39201e-38 3
-0.0433006 0.18659 0.354271 1.46587e-38 3
-0.0375172 0.186574 0.354241 1.51197e-38 3
-0.0890475 0.191308 0.352315 1.19847e-38 3
-0.0834471 0.191647 0.35294 0 3
-0.0778364 0.192012 0.353612 0 3
-0.071975 0.191767 0.353161 0 3
-0.0661979 0.191723 0.35308 0 3
-0.0604371 0.191723 0.35308 1.37357e-38 3
-0.0546764 0.191723 0.35308 1.45658e-38 3
-0.0488912 0.191627 0.352903 1.64094e-38 3
-0.0430463 0.19124 0.352191 1.62261e-38 3
-0.037235 0.190907 0.351577 1.30914e-38 3
-0.0996421 0.195288 0.349155 0 3
-0.0939436 0.195285 0.349148 0 3
-0.0882612 0.195316 0.349204 1.41978e-38 3
-0.0828552 0.196005 0.350437 1.3552e-38 3
-0.0775066 0.196943 0.352113 1.41052e-38 3
-0.0717796 0.196992 0.352202 1.38286e-38 3
-0.0657836 0.196248 0.35087 1.31825e-38 3
-0.0599309 0.19583 0.350123 1.44736e-38 3
-0.0542929 0.196098 0.350603 1.39205e-38 3
-0.0484944 0.195783 0.350039 1.39201e-38 3
-0.0426069 0.194976 0.348596 1.31836e-38 3
-0.0368228 0.194466 0.347685 1.34602e-38 3
-0.0987604 0.199206 0.346065 0 3
-0.0931141 0.199206 0.346065 1.23524e-38 3
-0.0874888 0.199254 0.346148 1.36435e-38 3
-0.0424453 0.199902 0.347274 1.37368e-38 3
-0.0366844 0.199387 0.346378 1.29999e-38 3
0.245168 0.187906 0.380335 0 3
0.244859 0.193867 0.379855 1.26286e-38 3
0.272939 0.187608 0.367592 0 3
0.280269 0.188505 0.369349 0 3
0.286045 0.18834 0.369026 0 3
0.292067 0.18834 0.369027 0 3
0.29745 0.187937 0.368237 0 3
0.299409 0.18543 0.363324 0 3
0.244307 0.199613 0.378999 0 3
0.248306 0.197872 0.375693 1.3551e-38 3
0.2538 0.197378 0.374755 1.50261e-38 3
0.258156 0.196043 0.372219 0 3
0.262078 0.194447 0.369189 0 3
0.266653 0.193397 0.367195 0 3
0.271487 0.192576 0.365637 0 3
0.277491 0.192602 0.365687 0 3
0.282237 0.191773 0.364112 0 3
0.286644 0.190752 0.362175 0 3
0.291324 0.189951 0.360654 0 3
0.295223 0.188682 0.358244 0 3
0.265829 0.198771 0.366061 1.23535e-38 3
0.270331 0.197695 0.364079 0 3
0.275892 0.197425 0.36358 0 3
0.27822 0.1949 0.358931 0 3
0.282182 0.1936 0.356537 0 3
0.287509 0.193271 0.355931 0 3
0.292418 0.192679 0.354841 0 3
0.27591 0.199089 0.35595 0 3
0.279055 0.197207 0.352586 0 3
0.282719 0.195762 0.350001 0 3
0.286444 0.194414 0.347592 0 3
0.289498 0.192672 0.344477 0 3
0.294675 0.192383 0.34396 0 3
0.289119 0.198032 0.344026 0 3
-0.0911576 0.368477 0.745823 1.22606e-38 3
-0.0743732 0.358402 0.702239 1.20773e-38 3
-0.0629029 0.369784 0.702096 1.32755e-38 3
0.314012 0.189545 0.396755 1.20776e-38 3
0.318347 0.18828 0.394107 0 3
0.319862 0.171823 0.359659 0 3
0.302888 0.189074 0.382699 0 3
0.303027 0.18534 0.375141 0 3
0.301369 0.180677 0.365702 0 3
0.302472 0.177817 0.359914 0 3
0.306747 0.176897 0.358051 0 3
0.312901 0.177073 0.358408 0 3
0.31906 0.177246 0.358758 0 3
0.325898 0.177783 0.359845 0 3
0.335073 0.179554 0.363429 0 3
0.302048 0.183432 0.359411 0 3
0.33508 0.185487 0.363436 0 3
0.314111 0.18833 0.346831 0 3
0.320406 0.188704 0.347521 0 3
0.328041 0.189841 0.349615 0 3
0.301105 0.192906 0.344896 0 3
0.300637 0.189073 0.338043 0 3
0.302813 0.187011 0.334356 0 3
0.310188 0.188176 0.336438 0 3
0.318091 0.189614 0.33901 0 3
0.321331 0.188272 0.33661 0 3
0.326474 0.188071 0.336251 0 3
0.331164 0.18762 0.335445 0 3
0.335593 0.187038 0.334404 0 3
0.341788 0.187443 0.335129 0 3
0.305896 0.190985 0.331782 0 3
0.312874 0.191945 0.33345 0 3
0.318464 0.192035 0.333607 0 3
0.32385 0.192001 0.333548 0 3
0.329111 0.191896 0.333365 0 3
0.33362 0.191362 0.332438 0 3
0.376996 0.232354 0.486361 0 3
0.387521 0.212059 0.44388 0 3
0.364481 0.232312 0.470216 0 3
0.328558 0.230912 0.452441 0 3
0.384232 0.234598 0.432039 0 3
0.325011 0.250326 0.447557 0 3
0.35114 0.25023 0.434704 0 3
0.376747 0.239458 0.415991 0 3
0.422109 0.380198 0.795829 0 3
0.47847 0.357665 0.723938 0 3
0.436941 0.384918 0.754194 0 3
0.477947 0.369072 0.723146 1.55789e-38 3
0.436351 0.396687 0.753175 0 3
-0.147005 0.374587 0.784083 0 3
-0.14678 0.386787 0.782883 1.34606e-38 3
-0.171304 0.397188 0.778235 0 3
-0.215178 0.206637 0.432532 0 3
-0.206883 0.212242 0.415858 0 3
-0.201174 0.213383 0.418094 0 3
-0.255379 0.261784 0.49704 0 3
-0.203195 0.215122 0.408445 0 3
-0.239122 0.261 0.480662 0 3
-0.24991 0.248387 0.444089 0 3
-0.249773 0.255492 0.443846 0 3
-0.218437 0.270493 0.469906 0 3
-0.217154 0.276527 0.467146 0 3
-0.217139 0.284128 0.467113 0 3
0.00363522 0.202072 0.437931 1.29077e-38 3
0.0107977 0.202396 0.438634 1.45676e-38 3
0.0179851 0.202744 0.439389 1.24479e-38 3
0.0252024 0.203134 0.440234 1.38315e-38 3
0.032354 0.202939 0.43981 0 3
0.00363531 0.209222 0.437942 1.33684e-38 3
0.0107977 0.209553 0.438634 1.5674e-38 3
0.0179833 0.209892 0.439344 1.44762e-38 3
0.0251444 0.209832 0.43922 1.28174e-38 3
0.0322232 0.209265 0.438033 1.20798e-38 3
0.0984883 0.26204 0.482576 0 3
0.098277 0.269334 0.481541 1.34606e-38 3
-0.247836 0.3596 0.779328 0 3
-0.247145 0.371278 0.777157 0 3
-0.296339 0.390594 0.741606 0 3
-0.145039 0.200176 0.433823 0 3
-0.116648 0.212954 0.461515 0 3
-0.109043 0.212807 0.461198 0 3
-0.100877 0.211463 0.458285 0 3
-0.15835 0.206153 0.431519 0 3
-0.151857 0.2069 0.433082 0 3
-0.144935 0.207106 0.433512 0 3
-0.114174 0.215807 0.451726 0 3
-0.106085 0.214356 0.448689 1.18929e-38 3
-0.158712 0.213682 0.432507 0 3
-0.152734 0.215201 0.435582 0 3
-0.145683 0.215284 0.43575 0 3
-0.13799 0.214377 0.433913 0 3
-0.13311 0.21798 0.441206 1.22635e-38 3
-0.127265 0.220323 0.445948 0 3
-0.119325 0.219103 0.443478 0 3
-0.111198 0.21736 0.439952 1.2539e-38 3
-0.103652 0.216593 0.438399 1.22617e-38 3
-0.118338 0.224466 0.43981 0 3
-0.110708 0.22355 0.438016 1.2262e-38 3
-0.103017 0.222375 0.435714 1.31836e-38 3
-0.194228 0.212602 0.403659 0 3
-0.117663 0.237457 0.437304 0 3
-0.131108 0.243063 0.434571 0 3
-0.144902 0.249487 0.433413 0 3
-0.142657 0.252583 0.426698 0 3
-0.142601 0.259443 0.42653 0 3
-0.142299 0.265839 0.425628 1.18007e-38 3
-0.142396 0.272969 0.425918 0 3
0.216678 0.20032 0.450049 1.18929e-38 3
0.226032 0.202118 0.454089 0 3
0.23345 0.202126 0.454106 0 3
0.240413 0.201752 0.453265 0 3
0.248489 0.202307 0.454512 0 3
0.2576 0.203647 0.457523 0 3
0.265065 0.203647 0.457523 0 3
0.271751 0.203065 0.456215 0 3
0.278234 0.202366 0.454646 0 3
0.239467 0.208324 0.451482 0 3
0.248204 0.209481 0.45399 0 3
0.257454 0.210991 0.457262 0 3
0.264862 0.21095 0.457171 0 3
0.272219 0.210871 0.457 0 3
0.279216 0.210525 0.456251 0 3
0.295388 0.232275 0.470141 0 3
0.278993 0.252898 0.495519 0 3
0.294708 0.239394 0.469059 1.35502e-38 3
0.278633 0.260646 0.494879 0 3
0.294578 0.246938 0.468853 1.3274e-38 3
0.296725 0.249952 0.460316 1.23524e-38 3
0.185951 0.191368 0.429937 0 3
0.195758 0.194137 0.436157 0 3
0.18491 0.197272 0.42753 1.38286e-38 3
0.194496 0.199956 0.433346 0 3
0.500435 0.341531 0.796497 0 3
0.599633 0.331707 0.773584 0 3
0.500435 0.354527 0.796497 0 3
0.501948 0.368633 0.798904 0 3
0.580432 0.39489 0.799285 0 3
0.591565 0.370739 0.703909 0 3
0.589652 0.380988 0.701633 0 3
-0.407112 0.240481 0.560835 0 3
-0.400122 0.245346 0.551206 0 3
-0.408608 0.259733 0.562896 0 3
-0.404771 0.272517 0.570432 0 3
0.601417 0.320035 0.775886 0 3
0.66797 0.334324 0.779688 0 3
0.666287 0.346171 0.777723 0 3
0.652801 0.358422 0.776775 0 3
0.609231 0.353185 0.739284 0 3
0.640495 0.337863 0.707213 0 3
0.669957 0.352763 0.714017 0 3
0.603729 0.359659 0.704703 0 3
0.669957 0.364413 0.714017 0 3
0.319903 0.177712 0.430843 0 3
0.327349 0.177939 0.431392 0 3
0.316518 0.182787 0.426283 0 3
0.324852 0.183566 0.4281 0 3
0.364774 0.186116 0.434048 0 3
0.316486 0.189723 0.426241 0 3
0.324088 0.190103 0.427094 0 3
0.330443 0.189751 0.426303 0 3
0.33641 0.189195 0.425054 0 3
0.3444 0.189776 0.426361 0 3
0.354176 0.191299 0.429782 0 3
0.363751 0.192656 0.432831 0 3
0.315149 0.195847 0.424441 0 3
0.320239 0.194731 0.422023 0 3
0.325616 0.193833 0.420075 0 3
0.331995 0.193556 0.419475 0 3
0.341086 0.19484 0.422258 0 3
0.353707 0.198049 0.429213 0 3
0.375224 0.213127 0.516702 0 3
0.372848 0.220155 0.513431 0 3
0.372767 0.228482 0.51332 0 3
0.371589 0.236109 0.511697 0 3
0.592124 0.360635 0.874317 0 3
0.587423 0.371923 0.867375 0 3
0.587423 0.386075 0.867375 0 3
0.586628 0.399686 0.866202 0 3
0.00369904 0.183807 0.445619 1.36457e-38 3
0.0109633 0.183701 0.445362 1.3462e-38 3
0.0182547 0.183954 0.445975 0 3
0.0256764 0.185001 0.448513 1.19869e-38 3
0.0330457 0.18529 0.449214 0 3
0.0399493 0.183336 0.444478 1.26315e-38 3
0.00366699 0.189423 0.441759 1.26315e-38 3
0.0108891 0.189675 0.442347 1.29088e-38 3
0.0181645 0.190285 0.44377 1.36471e-38 3
0.02564 0.192046 0.447878 1.29095e-38 3
0.0330449 0.192614 0.449202 0 3
0.0399493 0.190588 0.444478 0 3
0.00363531 0.194931 0.437942 1.24468e-38 3
0.0107977 0.195239 0.438634 1.38301e-38 3
0.017987 0.195595 0.439433 1.29088e-38 3
0.0252607 0.196404 0.441251 1.43847e-38 3
0.0326753 0.197707 0.444178 1.41092e-38 3
-0.0302202 0.218833 0.530535 1.28159e-38 3
-0.0745152 0.23063 0.537861 1.64083e-38 3
-0.07327 0.252663 0.528873 1.2446e-38 3
-0.0714376 0.254757 0.515646 0 3
-0.0749435 0.199621 0.483957 1.48399e-38 3
-0.0181112 0.183792 0.445582 0 3
-0.010873 0.184331 0.44689 0 3
-0.00358515 0.184508 0.447318 1.2356e-38 3
-0.0550475 0.19312 0.450381 1.43822e-38 3
-0.0475658 0.19258 0.449121 1.29999e-38 3
-0.0400773 0.19181 0.447326 1.41059e-38 3
-0.0325701 0.190588 0.444476 1.54896e-38 3
-0.0252173 0.189829 0.442706 1.5213e-38 3
-0.0179544 0.189408 0.441725 1.46605e-38 3
-0.0107454 0.189373 0.441643 1.30017e-38 3
-0.00354308 0.189556 0.44207 0 3
-0.0547316 0.199317 0.447796 1.46587e-38 3
-0.0472901 0.198748 0.446518 1.42903e-38 3
-0.0397826 0.197644 0.444037 1.38301e-38 3
-0.0323163 0.196298 0.441013 1.36457e-38 3
-0.025066 0.19587 0.44005 1.37389e-38 3
-0.0178238 0.195185 0.438513 1.30014e-38 3
-0.0106545 0.194917 0.437909 1.35546e-38 3
-0.00350965 0.194912 0.437898 1.25393e-38 3
-0.0928819 0.204343 0.495405 0 3
-0.0843454 0.20325 0.492755 1.3735e-38 3
-0.0851938 0.202256 0.454399 0 3
-0.0777219 0.202105 0.454059 1.45665e-38 3
-0.0700547 0.201361 0.452388 1.22609e-38 3
-0.0624306 0.20058 0.450632 1.37353e-38 3
-0.0924175 0.20924 0.453466 1.28156e-38 3
-0.0847275 0.208522 0.451912 0 3
-0.0772742 0.208307 0.451444 0 3
-0.0696528 0.207544 0.449792 1.2446e-38 3
-0.062113 0.206875 0.44834 0 3
-0.0545598 0.205975 0.446391 0 3
-0.0471558 0.205448 0.445249 1.39215e-38 3
-0.0396496 0.204204 0.442552 1.36457e-38 3
-0.0321987 0.202753 0.439408 1.53052e-38 3
-0.0249977 0.202496 0.438852 1.2817e-38 3
-0.0177928 0.201988 0.43775 1.2817e-38 3
-0.0106286 0.201571 0.436845 1.44754e-38 3
-0.00350574 0.201831 0.437411 1.41988e-38 3
-0.0980141 0.212727 0.445279 1.1801e-38 3
-0.0898753 0.210679 0.440992 0 3
-0.0545579 0.213251 0.446375 1.18918e-38 3
-0.0472829 0.213287 0.44645 1.3184e-38 3
-0.039695 0.211667 0.443059 1.26315e-38 3
-0.0321962 0.209907 0.439375 1.31847e-38 3
-0.0249714 0.209435 0.438388 1.33691e-38 3
-0.0177993 0.209206 0.437909 1.34613e-38 3
-0.0106542 0.209201 0.437898 1.33684e-38 3
-0.00350965 0.209201 0.437898 1.41981e-38 3
-0.0964014 0.216373 0.437953 0 3
-0.0893948 0.216709 0.438634 1.30003e-38 3
-0.0609981 0.224712 0.440292 1.30903e-38 3
-0.0921122 0.238045 0.451968 1.18932e-38 3
-0.536794 0.36197 0.877553 0 3
-0.535722 0.375536 0.875801 0 3
-0.586314 0.390235 0.84572 0 3
0.802218 0.316681 0.799376 0 3
0.896167 0.313052 0.790215 0 3
0.871885 0.308244 0.747301 0 3
0.866738 0.337419 0.786907 0 3
0.49037 0.214501 0.541449 0 3
0.486449 0.221549 0.53712 0 3
0.426388 0.221861 0.517409 0 3
0.483364 0.228852 0.533714 0 3
0.208092 0.198076 0.49999 1.21698e-38 3
0.214977 0.19691 0.497047 1.26304e-38 3
0.222009 0.19596 0.494647 1.20769e-38 3
0.230464 0.196287 0.495474 1.18018e-38 3
0.237826 0.195693 0.493973 1.3184e-38 3
0.24233 0.192863 0.486831 0 3
0.248547 0.191533 0.483474 0 3
0.254353 0.189978 0.479548 0 3
0.261384 0.189403 0.478097 0 3
0.222989 0.197742 0.479403 1.25386e-38 3
0.229405 0.196538 0.476483 0 3
0.236381 0.195876 0.474879 0 3
0.243075 0.195031 0.47283 0 3
0.247199 0.192238 0.466059 0 3
0.253031 0.190902 0.462819 0 3
0.261118 0.191294 0.46377 0 3
0.269311 0.19174 0.464852 0 3
0.22208 0.197788 0.461268 0 3
0.258371 0.196769 0.458892 0 3
0.265436 0.196457 0.458163 0 3
0.271824 0.195674 0.456338 0 3
0.278234 0.194948 0.454646 0 3
0.206454 0.197563 0.443855 1.25386e-38 3
0.474073 0.16848 0.443549 0 3
0.480502 0.168197 0.442805 0 3
0.479914 0.165503 0.435711 0 3
0.419203 0.180126 0.454678 0 3
0.426359 0.180015 0.454399 0 3
0.433773 0.180015 0.454399 0 3
0.446345 0.18212 0.459712 0 3
0.454197 0.182261 0.460068 0 3
0.466083 0.172755 0.436073 0 3
0.47255 0.172518 0.435476 0 3
0.479691 0.172532 0.435509 0 3
0.490357 0.173793 0.438694 0 3
0.415934 0.186081 0.451132 0 3
0.422694 0.185818 0.450493 0 3
0.429989 0.185794 0.450435 0 3
0.436631 0.185493 0.449707 0 3
0.44347 0.185285 0.449202 0 3
0.451022 0.185377 0.449424 0 3
0.450856 0.182344 0.442071 0 3
0.450634 0.179384 0.434896 0 3
0.45707 0.179126 0.43427 0 3
0.464431 0.179232 0.434528 0 3
0.472406 0.179569 0.435343 0 3
0.479691 0.179637 0.435509 0 3
0.489112 0.180492 0.437581 0 3
0.482765 0.175586 0.425688 0 3
0.466808 0.167375 0.40578 0 3
0.414409 0.192733 0.449478 0 3
0.422474 0.193067 0.450258 0 3
0.428558 0.1925 0.448936 0 3
0.436595 0.192815 0.44967 0 3
0.448855 0.194953 0.454656 0 3
0.444942 0.190112 0.443366 0 3
0.441962 0.185817 0.43335 0 3
0.447715 0.185272 0.432079 0 3
0.453565 0.184783 0.430939 0 3
0.464067 0.186176 0.434187 0 3
0.47734 0.188621 0.43989 0 3
-0.159286 0.32271 0.849584 0 3
-0.143726 0.33264 0.83966 1.29974e-38 3
-0.113666 0.338418 0.820455 1.62232e-38 3
-0.120457 0.224507 0.591049 0 3
-0.119263 0.23183 0.585191 0 3
-0.118175 0.239175 0.57985 0 3
-0.109954 0.240141 0.539512 0 3
-0.181426 0.238744 0.517409 0 3
-0.146377 0.251024 0.544022 1.18936e-38 3
-0.195703 0.243937 0.510608 0 3
-0.144566 0.256684 0.53729 1.2078e-38 3
-0.19572 0.25229 0.510651 0 3
-0.149711 0.26774 0.5246 1.18025e-38 3
0.0943861 0.20012 0.550493 1.21698e-38 3
0.0853482 0.208964 0.550131 1.29074e-38 3
0.0943861 0.209102 0.550493 1.2262e-38 3
-0.763483 0.358196 0.98533 0 3
-0.747202 0.390242 0.98506 0 3
-0.720542 0.391816 0.949913 0 3
0.476869 0.31217 0.899071 0 3
0.447036 0.316116 0.869575 1.25368e-38 3
0.421718 0.32181 0.847214 1.22613e-38 3
0.461869 0.32498 0.820323 0 3
0.480669 0.332846 0.806945 0 3
0.406036 0.34977 0.81571 0 3
-0.280945 0.21748 0.626358 0 3
-0.276211 0.230591 0.664118 0 3
-0.273011 0.237226 0.683228 0 3
-0.291174 0.227707 0.626378 0 3
-0.275115 0.222975 0.613361 0 3
-0.276211 0.241426 0.664118 0 3
-0.285517 0.206031 0.593383 0 3
-0.257772 0.207074 0.596388 0 3
-0.273271 0.20646 0.567932 0 3
-0.25775 0.216786 0.596337 0 3
-0.258149 0.239436 0.518908 0 3
-0.264154 0.245614 0.514117 0 3
-0.257717 0.255997 0.501591 0 3
-0.326341 0.220533 0.635151 0 3
-0.321905 0.235227 0.647065 0 3
-0.31274 0.238787 0.628643 0 3
-0.392707 0.25793 0.62532 0 3
-0.39201 0.267657 0.624211 0 3
0.295234 0.180661 0.574289 0 3
0.285993 0.184083 0.556314 1.26301e-38 3
0.253022 0.182473 0.525536 0 3
0.262254 0.182932 0.526857 0 3
0.275096 0.1858 0.535117 0 3
0.228539 0.185108 0.509197 0 3
0.239677 0.187319 0.51528 1.2723e-38 3
0.24951 0.188396 0.518241 1.23542e-38 3
0.258477 0.18877 0.51927 1.21691e-38 3
0.208186 0.190005 0.500217 1.18018e-38 3
0.216617 0.190242 0.500841 1.23542e-38 3
0.225117 0.19052 0.501572 1.22613e-38 3
0.234368 0.191391 0.503867 1.24468e-38 3
0.243457 0.192076 0.50567 1.21698e-38 3
0.219771 0.217205 0.690455 0 3
0.207153 0.23818 0.685976 0 3
0.281652 0.210246 0.605523 1.20776e-38 3
-0.237824 0.339887 1.08044 0 3
-0.231571 0.348115 1.05203 0 3
-0.244379 0.358882 1.03361 0 3
-0.327738 0.247894 0.78801 0 3
-0.391708 0.260542 0.787378 0 3
-0.37991 0.261263 0.789558 0 3
-0.369542 0.263053 0.794966 0 3
-0.35652 0.263014 0.79485 0 3
-0.322288 0.246736 0.745655 0 3
-0.389615 0.255189 0.734962 0 3
-0.326158 0.243618 0.701637 0 3
0.406744 0.203669 0.682841 0 3
0.417679 0.203568 0.682504 0 3
0.431777 0.204975 0.687219 0 3
0.443524 0.205222 0.688049 0 3
0.455514 0.205567 0.689205 0 3
0.464208 0.204444 0.685439 0 3
0.47635 0.204856 0.686821 0 3
0.494724 0.207868 0.696918 0 3
0.398853 0.205342 0.68845 0 3
0.32458 0.205129 0.652068 1.27223e-38 3
0.319754 0.21256 0.642373 1.23535e-38 3
0.477333 0.276943 0.928508 0 3
0.496088 0.294231 0.935306 0 3
0.478278 0.29838 0.901728 0 3
0.138069 0.186845 0.626435 0 3
0.149381 0.18822 0.631046 0 3
0.165223 0.194757 0.652962 0 3
0.138069 0.197066 0.626435 0 3
0.149247 0.198338 0.630481 0 3
0.160243 0.199219 0.633281 0 3
-0.176287 0.208034 0.697476 0 3
-0.176287 0.219414 0.697476 1.2262e-38 3
-0.176444 0.231 0.6981 0 3
-0.191706 0.212511 0.712487 0 3
-0.168566 0.21265 0.712953 0 3
-0.172547 0.233806 0.783884 0 3
-0.1904 0.22261 0.707635 0 3
-0.16556 0.220283 0.70024 0 3
-0.189953 0.233606 0.705975 0 3
-0.165544 0.231685 0.700171 0 3
-0.196823 0.270385 0.778727 0 3
-0.220261 0.230207 0.771816 0 3
-0.232054 0.241965 0.769163 0 3
-0.207518 0.228753 0.727163 0 3
-0.294464 0.234278 0.708007 0 3
-0.288507 0.238911 0.722007 0 3
-0.280973 0.242577 0.733086 0 3
-0.273474 0.2466 0.745243 0 3
-0.264897 0.24998 0.755459 0 3
-0.262699 0.260004 0.785752 0 3
-0.253113 0.263369 0.795921 0 3
-0.229259 0.251449 0.7599 0 3
-0.207486 0.24058 0.727051 0 3
-0.273255 0.247545 0.712949 0 3
-0.273309 0.258603 0.744794 0 3
-0.523082 0.225046 0.754512 0 3
-0.50826 0.223939 0.750802 0 3
-0.523774 0.221996 0.705686 0 3
-0.519758 0.225246 0.716015 0 3
-0.51891 0.230049 0.731283 0 3
-0.523 0.237319 0.754394 0 3
-0.507817 0.235983 0.750147 0 3
-0.597853 0.250047 0.755661 0 3
-0.524217 0.233708 0.706284 0 3
-0.519867 0.236978 0.716166 0 3
-0.520791 0.242858 0.733935 0 3
-0.524164 0.250183 0.756073 0 3
-0.506218 0.247441 0.747785 0 3
-0.588242 0.258158 0.743513 0 3
-0.500866 0.256896 0.73988 0 3
-0.574022 0.263755 0.725539 0 3
-0.537948 0.288881 0.794657 0 3
-0.568234 0.284532 0.718224 0 3
-0.785857 0.30901 1.03602 0 3
-0.708988 0.355114 1.07318 0 3
-0.77455 0.354544 1.02111 0 3
-0.540537 0.208071 0.697602 0 3
-0.530839 0.215516 0.685085 0 3
-0.527083 0.218594 0.69487 0 3
-0.524792 0.224111 0.677282 0 3
-0.524604 0.22885 0.691602 0 3
-0.519638 0.232852 0.67063 0 3
-0.551399 0.287473 0.696944 0 3
1.0341 0.253449 0.89891 0 3
1.02996 0.259676 0.870617 0 3
1.02755 0.269521 0.856759 0 3
1.02751 0.28349 0.856729 0 3
1.01814 0.298821 0.860625 0 3
0.600114 0.151376 0.536887 0 3
0.628645 0.156292 0.554322 0 3
0.604516 0.15899 0.533045 0 3
0.606165 0.157162 0.526919 0 3
0.614245 0.15703 0.526476 0 3
0.602126 0.167024 0.530938 0 3
0.604427 0.165284 0.525408 0 3
0.609629 0.164375 0.522519 0 3
0.613318 0.163089 0.518431 0 3
0.600741 0.172796 0.522203 0 3
0.605734 0.171796 0.51918 0 3
0.611682 0.17109 0.517048 0 3
0.603876 0.179714 0.517588 0 3
0.600615 0.187142 0.514793 0 3
0.585922 0.149985 0.531955 0 3
0.511504 0.162598 0.545143 0 3
0.522922 0.163386 0.547786 0 3
0.533863 0.164002 0.54985 0 3
0.5422 0.16381 0.549208 0 3
0.582636 0.157775 0.528972 0 3
0.59573 0.158966 0.532966 0 3
0.504674 0.169203 0.537864 0 3
0.516923 0.170347 0.541503 0 3
0.531859 0.172324 0.547786 0 3
0.542008 0.17271 0.549013 0 3
0.585199 0.167137 0.531299 0 3
0.595756 0.167669 0.532989 0 3
0.504611 0.177956 0.537797 0 3
0.515848 0.178809 0.540376 0 3
0.53009 0.180658 0.545964 0 3
0.54167 0.181554 0.548671 0 3
0.582779 0.175079 0.529102 0 3
0.59419 0.175901 0.531588 0 3
0.598951 0.17476 0.528138 0 3
0.57814 0.182249 0.52489 0 3
0.590446 0.183412 0.528238 0 3
0.596733 0.182698 0.526183 0 3
0.598746 0.180714 0.52047 0 3
0.577549 0.187835 0.5167 0 3
0.592154 0.189815 0.522144 0 3
0.59423 0.187779 0.516544 0 3
0.552384 0.199354 0.524829 0 3
0.827794 0.253149 0.897847 0 3
0.889686 0.264424 0.886534 0 3
0.889686 0.278888 0.886534 0 3
0.891323 0.293892 0.888165 0 3
0.499046 0.155363 0.55103 0 3
0.477556 0.160162 0.536974 0 3
0.487291 0.160482 0.538049 0 3
0.498534 0.16128 0.540723 0 3
0.461752 0.166385 0.528907 0 3
0.471415 0.16675 0.530069 0 3
0.482468 0.167586 0.532724 0 3
0.49355 0.168401 0.535317 0 3
0.452613 0.174818 0.528313 0 3
0.461752 0.175014 0.528907 0 3
0.471415 0.175399 0.530069 0 3
0.482468 0.176277 0.532724 0 3
0.49355 0.177135 0.535317 0 3
0.447943 0.181545 0.522861 0 3
0.458047 0.18217 0.524664 0 3
0.200647 0.223575 0.792958 0 3
0.22574 0.222804 0.790221 0 3
0.230074 0.214813 0.761879 0 3
0.245635 0.217585 0.771714 0 3
0.265861 0.224019 0.794532 0 3
0.27562 0.221444 0.7854 0 3
0.283579 0.217717 0.77218 0 3
0.291431 0.214228 0.759805 0 3
0.297421 0.20971 0.743782 0 3
0.205067 0.214112 0.717854 0 3
0.215293 0.212644 0.712931 0 3
0.228541 0.214159 0.71801 0 3
0.249157 0.222092 0.74461 0 3
0.269252 0.228846 0.767253 0 3
0.281825 0.22889 0.767402 0 3
0.204825 0.225558 0.717007 0 3
0.214822 0.223785 0.711371 1.19854e-38 3
0.175942 0.225073 0.798271 0 3
0.18523 0.220623 0.782488 0 3
0.143498 0.209715 0.703114 0 3
0.192811 0.21351 0.715836 0 3
0.143498 0.221187 0.703114 1.29074e-38 3
0.166186 0.249537 0.885037 0 3
0.170166 0.235086 0.833783 0 3
0.109552 0.266718 0.894226 0 3
0.109552 0.281308 0.894226 0 3
0.00655461 0.222637 0.789628 0 3
0.0195916 0.224396 0.79587 0 3
0.00655461 0.23552 0.789628 0 3
0.0195729 0.237155 0.795112 0 3
0.0326725 0.23808 0.798211 0 3
0.00657594 0.249211 0.792197 0 3
0.0194833 0.248983 0.79147 0 3
0.0322137 0.247577 0.787002 0 3
0.0449099 0.246784 0.784482 0 3
0.0584582 0.249987 0.794664 0 3
0.00657057 0.261922 0.79155 0 3
0.0194764 0.261804 0.791191 0 3
0.032023 0.258876 0.782344 0 3
0.0444855 0.257131 0.777069 0 3
0.0065288 0.27309 0.786518 0 3
0.0191824 0.270566 0.779249 0 3
0.0317693 0.269488 0.776145 0 3
0.00652992 0.285972 0.786654 1.31836e-38 3
0.0191824 0.28328 0.779249 1.3368e-38 3
0.0191842 0.296021 0.77932 1.34609e-38 3
-0.00634973 0.223377 0.792254 0 3
-0.00634943 0.236292 0.792217 0 3
-0.00639045 0.250828 0.797335 0 3
-0.0306771 0.249741 0.754738 0 3
-0.0185738 0.252607 0.763398 0 3
-0.00627008 0.258867 0.782317 0 3
-0.0183023 0.261188 0.752241 1.25383e-38 3
-0.00626583 0.271447 0.781786 1.24461e-38 3
-0.0185133 0.276615 0.760914 1.31843e-38 3
-0.00631398 0.286386 0.787794 0 3
-0.271403 0.253641 0.899591 0 3
-0.211393 0.235816 0.836373 0 3
-0.298205 0.26604 0.891954 0 3
-0.28132 0.263853 0.88462 0 3
-0.249315 0.246481 0.826378 0 3
-0.292936 0.275636 0.876195 0 3
-0.273152 0.270206 0.858935 0 3
0.631628 0.462869 0.781942 0 3
0.666361 0.460423 0.77781 0 3
0.69157 0.452016 0.763607 0 3
0.549429 0.200977 0.756591 0 3
0.532102 0.202055 0.716631 0 3
0.548488 0.203799 0.722817 0 3
0.559431 0.20349 0.72172 0 3
0.569193 0.202772 0.719176 0 3
0.513905 0.211076 0.707674 0 3
0.532102 0.213747 0.716631 0 3
0.548488 0.215592 0.722817 0 3
0.559431 0.215265 0.72172 0 3
0.3018 0.209012 0.786839 0 3
0.30144 0.200245 0.753833 0 3
0.31609 0.201745 0.75948 0 3
0.340516 0.209136 0.787305 0 3
0.351018 0.207749 0.782085 0 3
-0.189868 0.22913 0.862574 0 3
-0.179944 0.234538 0.882931 0 3
-0.151274 0.234758 0.883758 0 3
-0.133149 0.228401 0.85983 0 3
-0.118059 0.226365 0.852164 0 3
-0.104155 0.226365 0.852165 0 3
-0.193048 0.230212 0.816498 0 3
-0.180007 0.230572 0.817774 0 3
-0.133149 0.24243 0.85983 0 3
-0.118013 0.240176 0.851835 0 3
-0.103347 0.238404 0.845551 0 3
-0.456723 0.203773 0.767115 0 3
-0.452074 0.207381 0.7807 0 3
-0.448475 0.211695 0.796939 0 3
-0.454138 0.215065 0.762773 0 3
-0.447098 0.217697 0.772107 0 3
-0.439806 0.220355 0.781535 0 3
-0.434022 0.22395 0.794286 0 3
-0.488928 0.220742 0.740081 0 3
-0.472555 0.218752 0.733412 0 3
-0.461508 0.219188 0.734874 0 3
-0.453796 0.221275 0.741868 0 3
-0.448538 0.224704 0.753366 0 3
-0.442334 0.22784 0.76388 0 3
-0.430907 0.228389 0.76572 0 3
-0.424215 0.231556 0.776337 0 3
-0.41771 0.235022 0.787961 0 3
-0.410555 0.238332 0.799056 0 3
-0.488236 0.232487 0.739035 0 3
-0.472536 0.230709 0.733381 0 3
-0.461508 0.231178 0.734874 0 3
-0.452826 0.23288 0.740282 0 3
-0.444766 0.235003 0.747032 0 3
-0.439829 0.238942 0.759554 0 3
-0.430676 0.240753 0.76531 0 3
-0.424215 0.244222 0.776337 0 3
-0.41771 0.247879 0.787961 0 3
-0.410555 0.251369 0.799056 0 3
-0.444803 0.247212 0.747093 0 3
-0.439829 0.251335 0.759554 0 3
-0.431233 0.253567 0.7663 0 3
-0.422185 0.255659 0.772623 0 3
-0.413675 0.258216 0.780349 0 3
-0.403151 0.259638 0.784647 0 3
-0.512454 0.222539 0.837762 0 3
-0.511866 0.235937 0.8368 0 3
-0.580907 0.244177 0.818655 0 3
-0.504449 0.272884 0.824676 0 3
-0.574069 0.287513 0.828058 0 3
0.722963 0.171258 0.686899 0 3
0.70824 0.165209 0.662639 0 3
0.753375 0.173095 0.69427 0 3
0.782214 0.174474 0.699802 0 3
0.789476 0.173561 0.696137 0 3
0.410098 0.17165 0.688472 0 3
0.447015 0.172895 0.693465 0 3
0.456822 0.172326 0.691184 0 3
0.408021 0.181956 0.684986 0 3
0.421083 0.182775 0.688067 0 3
0.437658 0.185036 0.696579 0 3
0.442481 0.18234 0.68643 0 3
0.449514 0.180666 0.680127 0 3
0.465522 0.182592 0.687379 0 3
0.484799 0.18568 0.699003 0 3
0.402598 0.195932 0.694914 0 3
0.409796 0.193972 0.687964 0 3
0.421818 0.19434 0.689268 0 3
0.437741 0.196439 0.696712 0 3
0.443622 0.194039 0.688202 0 3
0.451013 0.192402 0.682394 0 3
0.46479 0.193502 0.686297 0 3
0.480612 0.195382 0.692966 0 3
0.495376 0.196756 0.697837 0 3
0.3518 0.170615 0.684322 0 3
0.358859 0.168685 0.67658 0 3
0.372145 0.169709 0.68069 0 3
0.387403 0.171548 0.688064 0 3
0.398509 0.171496 0.687856 0 3
0.333689 0.184108 0.693085 0 3
0.333933 0.178204 0.670858 0 3
0.347333 0.179472 0.675632 0 3
0.358777 0.179682 0.676425 0 3
0.372145 0.180815 0.68069 1.44744e-38 3
0.387403 0.182774 0.688064 0 3
0.398121 0.182541 0.687188 0 3
0.328935 0.197099 0.660816 0 3
0.223032 0.219757 0.881424 0 3
0.232127 0.214864 0.861801 0 3
0.246364 0.215017 0.862416 0 3
0.265664 0.219335 0.879732 0 3
0.207903 0.233298 0.878263 0 3
0.217142 0.227955 0.858148 0 3
0.228858 0.2257 0.849662 0 3
0.237943 0.221258 0.832938 0 3
0.249124 0.219139 0.824962 1.1801e-38 3
0.259831 0.216841 0.816312 0 3
0.271098 0.215213 0.810181 0 3
0.283698 0.214745 0.80842 0 3
0.298035 0.215574 0.811542 0 3
0.224936 0.235459 0.835104 0 3
-0.357802 0.25441 1.02042 0 3
-0.357601 0.266675 1.06961 0 3
-0.328192 0.271215 1.08782 0 3
-0.301975 0.26588 1.00092 0 3
-0.395288 0.219721 0.881283 0 3
-0.379967 0.219178 0.879102 0 3
-0.395396 0.225945 0.850583 0 3
-0.380123 0.225119 0.847474 0 3
-0.369948 0.227363 0.855922 0 3
-0.366755 0.234243 0.881821 0 3
-0.354815 0.23587 0.887947 0 3
-0.343166 0.237838 0.895353 0 3
-0.388853 0.235855 0.836509 0 3
-0.374503 0.235413 0.834942 0 3
-0.362583 0.236524 0.838882 0 3
-0.353404 0.23958 0.849721 0 3
-0.349582 0.246665 0.87485 0 3
-0.340523 0.250502 0.888458 0 3
-0.388119 0.240587 0.806618 0 3
-0.377781 0.242398 0.812688 0 3
-0.36563 0.243135 0.815161 0 3
-0.356691 0.246144 0.825249 0 3
-0.35029 0.25121 0.842233 0 3
-0.345603 0.257969 0.864895 0 3
-0.334944 0.260656 0.873902 0 3
-0.324243 0.263547 0.883594 0 3
-0.310822 0.264394 0.886433 0 3
-0.387595 0.253405 0.805528 0 3
-0.374869 0.253687 0.806424 0 3
-0.361883 0.253807 0.806807 0 3
-0.349215 0.254168 0.807954 0 3
-0.319932 0.25187 0.80065 0 3
-0.324095 0.266009 0.845594 0 3
-0.320127 0.274435 0.872379 0 3
-0.307435 0.275818 0.876774 0 3
0.600941 0.206753 0.887335 0 3
0.615655 0.206832 0.887676 0 3
0.625586 0.205338 0.881264 0 3
0.639736 0.205265 0.88095 0 3
0.640415 0.200967 0.862506 0 3
0.639625 0.214774 0.861441 0 3
0.638513 0.209791 0.841454 0 3
0.640949 0.206159 0.826886 0 3
0.652138 0.205434 0.823976 0 3
0.658776 0.203333 0.815552 0 3
0.62632 0.224069 0.843522 0 3
0.632684 0.22148 0.833773 0 3
0.637357 0.218419 0.822251 0 3
0.651531 0.218674 0.82321 0 3
0.662466 0.217853 0.82012 0 3
0.66322 0.213783 0.804797 0 3
0.605131 0.25638 0.814985 0 3
0.0071422 0.20048 0.860414 1.29074e-38 3
0.0212516 0.201154 0.863305 0 3
0.00722798 0.217095 0.870748 0 3
0.0216514 0.219288 0.879547 0 3
0.0363697 0.221529 0.888535 0 3
0.00679246 0.217365 0.818282 0 3
0.0205605 0.221867 0.835233 0 3
0.0336472 0.218358 0.822022 0 3
0.0477675 0.221646 0.834398 0 3
0.0646368 0.233401 0.878653 0 3
0.0327467 0.225567 0.800023 0 3
0.0463972 0.228511 0.810462 0 3
0.0609982 0.233791 0.829191 0 3
0.0785536 0.246423 0.873991 0 3
0.045821 0.238732 0.800398 0 3
0.0596204 0.241734 0.810462 0 3
0.074527 0.24732 0.829191 0 3
0.0927742 0.260573 0.873623 0 3
0.0739289 0.258756 0.822537 0 3
0.0927586 0.27478 0.873476 0 3
-0.0792483 0.206101 0.884537 0 3
-0.0636901 0.202519 0.869164 0 3
-0.0498915 0.204083 0.875878 0 3
-0.0365331 0.209426 0.898809 0 3
-0.0212079 0.203101 0.871662 1.23535e-38 3
-0.0936264 0.220406 0.88403 0 3
-0.0783684 0.218084 0.874716 0 3
-0.0636439 0.216543 0.868534 0 3
-0.049338 0.215951 0.866161 0 3
-0.035227 0.21608 0.866677 0 3
-0.0209697 0.214882 0.861874 0 3
-0.00689236 0.214405 0.859959 0 3
-0.090204 0.226246 0.851715 0 3
-0.0755437 0.223981 0.843188 0 3
-0.0614878 0.222897 0.83911 0 3
-0.0480047 0.223866 0.842755 0 3
-0.0341459 0.223155 0.84008 0 3
-0.0201036 0.219488 0.826275 0 3
-0.0065513 0.217132 0.817405 0 3
-0.0875977 0.233204 0.827106 0 3
-0.0733448 0.230818 0.818644 0 3
-0.0604084 0.232435 0.824381 0 3
-0.0470837 0.233057 0.826585 0 3
-0.0333646 0.231441 0.820857 0 3
-0.0196498 0.22771 0.807623 0 3
-0.087543 0.246544 0.82659 0 3
-0.0722771 0.24062 0.806727 0 3
-0.0589037 0.239761 0.803846 0 3
-0.0463983 0.242954 0.814553 0 3
-0.0328959 0.241395 0.809325 0 3
-0.0195872 0.24012 0.805052 0 3
-0.0722917 0.253833 0.80689 0 3
-0.0587661 0.252285 0.801968 0 3
-0.0460722 0.254443 0.808827 0 3
-0.032861 0.254329 0.808466 0 3
-0.0196127 0.253584 0.806098 0 3
-0.0488771 0.283933 0.858069 0 3
-0.0328842 0.280909 0.809037 0 3
-0.0329066 0.29431 0.80959 1.2356e-38 3
-0.304743 0.409823 0.732721 0 3
-0.36738 0.411592 0.715025 0 3
-0.316259 0.421194 0.731706 0 3
-0.315576 0.432197 0.730126 0 3
-0.32669 0.443026 0.728344 0 3
-0.394028 0.212415 0.911635 0 3
-0.374701 0.224619 0.900928 0 3
-0.369478 0.230532 0.924643 0 3
-0.361176 0.234945 0.942343 0 3
-0.362723 0.246442 0.988457 0 3
-0.333943 0.241735 0.910027 0 3
-0.327127 0.24782 0.932932 0 3
-0.323827 0.257292 0.968592 0 3
-0.315366 0.263425 0.991679 0 3
-0.331406 0.254634 0.903115 0 3
-0.320363 0.257603 0.913645 0 3
-0.307877 0.259644 0.920884 0 3
-0.469648 0.212982 0.914069 0 3
-0.457167 0.214121 0.918957 0 3
-0.414702 0.23233 0.997106 0 3
-0.461624 0.2029 0.870799 0 3
-0.431292 0.208852 0.896344 0 3
-0.416422 0.208728 0.895814 0 3
-0.40232 0.208996 0.896961 0 3
-0.442171 0.207958 0.834103 0 3
-0.43317 0.210194 0.843071 0 3
-0.423919 0.212452 0.852125 0 3
-0.416749 0.21594 0.866118 0 3
-0.407057 0.218322 0.875669 0 3
-0.443953 0.215818 0.812459 0 3
-0.435674 0.218312 0.821847 0 3
-0.426823 0.220668 0.830718 0 3
-0.418543 0.223484 0.841318 0 3
-0.409167 0.225886 0.85036 0 3
-0.424612 0.225837 0.80098 0 3
-0.417732 0.229233 0.813024 0 3
-0.409746 0.232225 0.823637 0 3
-0.400958 0.23495 0.833301 0 3
-0.400337 0.240022 0.804723 0 3
-0.400337 0.253152 0.804723 0 3
-0.442556 0.281209 0.809902 0 3
1.62085 0.292842 1.35144 0 1
1.6429 0.292842 1.35144 0 1
1.66494 0.292842 1.35144 0 1
0.85916 0.171564 0.791755 0 1
0.872078 0.171564 0.791755 0 1
0.827324 0.180358 0.774055 0 3
0.38958 0.154408 0.71258 0 3
0.311598 0.181565 0.779235 0 3
0.315568 0.17667 0.758228 0 3
0.322455 0.173716 0.745547 0 3
0.371477 0.163189 0.70037 0 3
0.383715 0.163535 0.701853 0 3
0.397264 0.164403 0.705578 0 3
0.304236 0.189689 0.760825 0 3
0.311849 0.186813 0.749292 0 3
0.320358 0.184671 0.7407 0 3
0.332612 0.184765 0.741076 0 3
0.341142 0.182856 0.733419 0 3
0.345671 0.179005 0.717973 0 3
0.350078 0.175345 0.703293 0 3
0.348041 0.198762 0.748251 0 3
0.328579 0.185627 0.856653 0 3
0.342555 0.185627 0.856653 0 3
0.350782 0.182633 0.842836 0 3
0.364533 0.182633 0.842836 0 3
0.322486 0.195903 0.840769 0 3
0.307054 0.199589 0.800536 0 3
0.308017 0.20969 0.967701 0 3
0.327854 0.212311 0.979797 0 3
0.325529 0.201004 0.927618 0 3
0.303038 0.221833 0.952056 0 3
0.322569 0.224617 0.964002 0 3
0.331027 0.219789 0.943285 0 3
0.331666 0.210431 0.90312 0 3
0.302815 0.225626 0.904968 0 3
0.213285 0.20969 0.967701 0 3
0.223554 0.204637 0.944383 0 3
0.236118 0.202201 0.93314 0 3
0.251342 0.202201 0.93314 0 3
0.273069 0.207132 0.955899 0 3
0.288665 0.207132 0.955899 0 3
0.208736 0.220669 0.947061 0 3
0.220872 0.217404 0.93305 0 3
0.23445 0.21589 0.92655 0 3
0.248518 0.214982 0.922653 0 3
0.265429 0.216497 0.929156 0 3
0.283926 0.219072 0.940206 0 3
0.203504 0.230202 0.923322 0 3
0.215868 0.227358 0.911913 0 3
0.287272 0.225017 0.902524 0 3
0.105366 0.214998 0.992199 0 3
0.121555 0.214998 0.992199 0 3
0.137743 0.214998 0.992199 0 3
0.153932 0.214998 0.992199 0 3
0.167993 0.212311 0.979797 0 3
0.183979 0.212311 0.979797 0 3
0.199965 0.212311 0.979797 0 3
0.104245 0.228726 0.981639 0 3
0.120947 0.230031 0.987242 0 3
0.137728 0.231161 0.99209 0 3
0.153862 0.231083 0.991754 0 3
0.168843 0.229452 0.984754 0 3
0.183918 0.228221 0.979471 0 3
0.19823 0.226315 0.971293 0 3
0.104127 0.244466 0.98053 0 3
0.120035 0.244283 0.979797 0 3
0.137073 0.246171 0.987372 0 3
0.154729 0.248656 0.997337 0 3
0.166423 0.241999 0.970636 0 3
0.179399 0.2382 0.955401 0 3
0.19218 0.234772 0.941649 0 3
0.114319 0.247875 0.93314 0 3
0.129572 0.247928 0.933341 0 3
0.144717 0.247786 0.932805 0 3
0.158357 0.245339 0.923593 0 3
0.172106 0.243472 0.916564 0 3
0.185129 0.240958 0.907102 0 3
0.198585 0.239338 0.901003 0 3
0.110377 0.254027 0.900963 0 3
0.125103 0.25408 0.90115 0 3
0.140725 0.255751 0.907075 0 3
0.155857 0.256297 0.909013 0 3
0.0381955 0.202201 0.93314 0 3
0.0520418 0.226647 0.909062 0 3
0.0705693 0.239172 0.959297 0 3
0.0885579 0.245655 0.9853 0 3
0.0826678 0.244322 0.919766 0 3
0.0990645 0.2478 0.932857 0 3
0.0956148 0.253861 0.900372 0 3
-0.113378 0.201004 0.927618 0 3
-0.13457 0.226326 0.971341 0 3
-0.114093 0.217503 0.933473 0 3
-0.19328 0.236447 0.948368 0 3
-0.183703 0.244288 0.979819 0 3
-0.169266 0.246545 0.988871 0 3
-0.150383 0.242119 0.97112 0 3
-0.130162 0.234242 0.939524 0 3
-0.110739 0.225891 0.906027 0 3
-0.170046 0.240925 0.906975 0 3
-0.113647 0.277336 0.929825 0 3
-0.148757 0.232669 1.07375 0 3
-0.197254 0.245142 1.05209 0 3
-0.184101 0.250605 1.07554 0 3
-0.157496 0.236976 1.01705 0 3
-0.252375 0.216368 0.998519 0 3
-0.236084 0.216368 0.998519 0 3
-0.251255 0.247845 0.994086 0 3
-0.230337 0.242891 0.974215 0 3
-0.211395 0.23944 0.960372 0 3
-0.244052 0.256495 0.96559 0 3
-0.218472 0.245455 0.924028 0 3
-0.291615 0.258547 0.916993 0 3
-0.262982 0.259822 0.921513 0 3
-0.258776 0.271169 0.961759 0 3
-0.483988 0.242641 1.11977 0 3
-0.479416 0.249777 1.1527 0 3
-0.441895 0.268641 1.15295 0 3
-0.556251 0.220583 1.01797 0 3
-0.539642 0.220583 1.01797 0 3
-0.567063 0.241802 1.03776 0 3
0.716515 0.145426 0.725776 0 1
0.728356 0.145426 0.725776 0 1
0.77238 0.151749 0.757331 0 1
0.784736 0.151749 0.757331 0 1
0.713213 0.156542 0.722431 0 1
0.728356 0.157267 0.725776 0 1
0.747115 0.158737 0.732558 0 1
0.792392 0.165706 0.76472 0 1
0.71264 0.168194 0.721851 0 3
0.727987 0.169023 0.725408 0 3
0.741601 0.169429 0.727152 0 3
0.765982 0.172244 0.739231 0 3
0.796456 0.17632 0.756726 0 3
0.788362 0.16928 0.726511 0 3
0.779335 0.164863 0.707554 0 1
0.782463 0.163109 0.700025 0 1
0.724663 0.180033 0.722096 0 3
0.737546 0.180302 0.723176 0 3
0.747162 0.179777 0.721069 0 3
0.778749 0.176275 0.707022 0 3
0.600275 0.137772 0.687577 0 1
0.600275 0.14899 0.687577 0 1
0.622413 0.151651 0.699855 0 1
0.660305 0.169557 0.680079 0 3
0.667566 0.173454 0.615192 0 3
0.66342 0.182352 0.611372 0 3
0.665702 0.192988 0.613475 0 3
0.123113 0.201359 1.00492 0 3
0.139509 0.201359 1.00492 0 3
0.155905 0.201359 1.00492 0 3
0.0618938 0.216634 1.08116 0 3
0.0795335 0.216634 1.08116 0 3
0.0971733 0.216634 1.08116 0 3
0.0627594 0.23755 1.09628 0 3
0.0806459 0.23755 1.09628 0 3
0.0985324 0.23755 1.09628 0 3
0.0916478 0.237589 1.01968 0 3
0.00726988 0.175486 0.875796 0 3
0.00715005 0.186647 0.86136 0 3
0.0212037 0.186647 0.86136 0 3
-0.24385 0.206658 1.03137 0 3
-0.221201 0.217755 1.00492 0 3
-0.280032 0.242501 1.04076 0 3
-0.255694 0.235718 1.01165 0 3
-0.236489 0.233059 1.00023 0 3
-0.220745 0.233668 1.00285 0 3
-0.204293 0.233565 1.00241 0 3
-0.295376 0.258052 1.03502 0 3
-0.271123 0.251227 1.00765 0 3
-0.292151 0.271937 1.02372 0 3
-0.269276 0.265844 1.00078 0 3
-0.279035 0.221211 1.104 0 3
-0.231519 0.246157 1.136 0 3
-0.219342 0.253505 1.16991 0 3
-0.358305 0.237969 1.18763 0 3
-0.333869 0.234418 1.16991 0 3
-0.305657 0.227623 1.136 0 3
-0.377682 0.257346 1.18763 0 3
-0.352957 0.253505 1.16991 0 3
-0.333869 0.253505 1.16991 0 3
-0.301291 0.242641 1.11977 0 3
-0.374205 0.274176 1.1767 0 3
-0.348766 0.269356 1.15601 0 3
-0.318066 0.259691 1.11453 0 3
-0.350843 0.275059 1.10324 0 3
-0.587692 0.253322 1.26425 0 3
-0.549344 0.245406 1.22475 0 3
-0.521218 0.24163 1.2059 0 3
-0.501543 0.24163 1.2059 0 3
-0.658361 0.234418 1.16991 0 3
-0.639274 0.234418 1.16991 0 3
-0.630146 0.242641 1.11977 0 3
0.588157 0.128813 0.699855 0 1
0.599576 0.128813 0.699855 0 1
0.588157 0.140232 0.699855 0 1
0.589057 0.137772 0.687577 0 1
0.588157 0.151651 0.699855 0 1
0.589057 0.14899 0.687577 0 1
0.562003 0.178173 0.631928 0 3
0.542926 0.185488 0.621886 0 3
0.52599 0.193142 0.613962 0 3
0.587225 0.131155 0.71258 0 1
0.533122 0.191646 0.768677 0 3
0.556601 0.195488 0.784084 0 3
0.50536 0.189106 0.711901 0 3
0.513905 0.199529 0.707674 0 3
0.635915 0.164881 0.895814 0 1
0.617769 0.178477 0.890724 0 1
0.621705 0.175486 0.875796 0 1
0.639567 0.176472 0.880716 0 1
0.607416 0.189775 0.875796 0 3
0.611457 0.186647 0.86136 0 3
0.625511 0.186647 0.86136 0 3
0.639564 0.186647 0.86136 0 3
0.626097 0.178788 0.825092 0 1
0.629618 0.176009 0.812267 0 1
0.628691 0.193047 0.828511 0 3
0.633591 0.190456 0.817393 0 3
0.641374 0.188821 0.810377 0 3
0.646516 0.18649 0.800373 0 3
0.55335 0.162102 0.880716 0 1
0.570927 0.163018 0.885692 0 1
0.544179 0.173547 0.866119 0 1
0.561412 0.174511 0.870931 0 1
0.585378 0.177469 0.885692 0 1
0.599828 0.177469 0.885692 0 1
0.552208 0.185627 0.856653 0 3
0.572441 0.187678 0.866119 0 3
0.599828 0.191919 0.885692 0 3
0.528956 0.186479 0.800324 0 3
0.453305 0.140069 0.761007 0 1
0.465721 0.140069 0.761007 0 1
0.420477 0.145426 0.725776 0 1
0.432319 0.145426 0.725776 0 1
0.465721 0.152485 0.761007 0 1
0.401206 0.154408 0.71258 0 3
0.414717 0.155113 0.715833 0 3
0.426396 0.155113 0.715833 0 3
0.442113 0.156542 0.722431 0 3
0.494956 0.170702 0.787776 0 3
0.405238 0.18367 0.788269 0 3
0.411177 0.165368 0.709723 0 3
0.424766 0.166154 0.713096 0 3
0.443789 0.168968 0.72517 0 3
0.476597 0.176747 0.758555 0 3
0.493575 0.17841 0.765694 0 3
0.428829 0.174704 0.700723 0 3
0.449474 0.17836 0.715386 0 3
0.496494 0.182779 0.733112 0 3
0.552414 0.218592 1.18763 0 1
0.51366 0.237969 1.18763 0 3
0.525082 0.234418 1.16991 0 3
0.552414 0.237969 1.18763 0 3
0.0835226 0.324414 0.786503 1.21705e-38 3
0.0835226 0.337246 0.786503 1.20783e-38 3
0.0705469 0.349369 0.784909 1.3923e-38 3
0.0702819 0.360814 0.78196 1.23557e-38 3
0.0702595 0.373454 0.781711 0 3
0.311868 0.180339 0.979797 0 1
0.327854 0.180339 0.979797 0 1
0.34384 0.180339 0.979797 0 1
0.340663 0.170735 0.927618 0 1
0.355798 0.170735 0.927618 0 1
0.370933 0.170735 0.927618 0 1
0.311868 0.196325 0.979797 0 3
0.327854 0.196325 0.979797 0 3
0.325529 0.18587 0.927618 0 3
0.338659 0.184776 0.922162 0 3
0.351637 0.183696 0.916769 0 3
0.362356 0.181572 0.906171 0 3
0.377141 0.181572 0.906171 0 3
0.338659 0.199822 0.922162 0 3
0.202497 0.182621 0.992199 0 1
0.202497 0.19881 0.992199 0 3
0.215951 0.196325 0.979797 0 3
0.22628 0.191536 0.955899 0 3
0.241877 0.191536 0.955899 0 3
0.260651 0.193901 0.967701 0 3
0.27644 0.193901 0.967701 0 3
0.295882 0.196325 0.979797 0 3
0.0618938 0.198994 1.08116 0 1
0.0795335 0.198994 1.08116 0 1
0.0971733 0.198994 1.08116 0 1
0.00823614 0.182621 0.992199 0 1
0.0235309 0.17594 0.955899 0 1
0.0391271 0.17594 0.955899 0 1
0.0229707 0.186976 0.93314 0 3
0.0381955 0.186976 0.93314 0 3
-0.0069803 0.160301 0.870931 0 1
-0.0510271 0.179497 0.895814 0 1
-0.0359999 0.177469 0.885692 0 3
-0.0215493 0.177469 0.885692 0 3
-0.0069803 0.174511 0.870931 0 3
-0.0510271 0.194113 0.895814 0 3
-0.0359999 0.191919 0.885692 0 3
-0.0215493 0.191919 0.885692 1.18003e-38 3
-0.00694174 0.187678 0.866119 1.18925e-38 3
-0.00684873 0.199105 0.854514 1.25386e-38 3
-0.377233 0.361752 0.783992 0 3
-0.375748 0.37307 0.780907 1.31836e-38 3
-0.35757 0.392583 0.769212 0 3
-0.0872377 0.179219 0.973711 0 1
-0.0700458 0.17594 0.955899 0 1
-0.0544497 0.17594 0.955899 0 1
-0.0988276 0.186976 0.93314 0 1
-0.0836028 0.186976 0.93314 0 1
-0.0679734 0.18587 0.927618 0 1
-0.0976649 0.199822 0.922162 0 3
-0.0816586 0.197498 0.911439 0 3
-0.0664018 0.196357 0.906171 0 3
-0.369502 0.225423 1.22475 0 3
-0.344142 0.221955 1.2059 0 3
-0.324467 0.221955 1.2059 0 3
-0.304792 0.221955 1.2059 0 3
-0.389484 0.245406 1.22475 0 3
-0.408639 0.23651 1.28498 0 3
-0.489397 0.245406 1.22475 0 3
-0.4925 0.257475 1.28498 0 3
-0.471535 0.257475 1.28498 0 3
-0.45057 0.257475 1.28498 0 3
-0.415966 0.249301 1.24419 0 3
-0.481868 0.261306 1.2059 0 3
-0.469414 0.265388 1.22475 0 3
-0.449432 0.265388 1.22475 0 3
-0.429449 0.265388 1.22475 0 3
-0.409467 0.265388 1.22475 0 3
-0.448851 0.285002 1.22316 0 3
-0.428981 0.28506 1.22341 0 3
-0.401805 0.280031 1.20183 0 3
0.65913 0.134165 0.799834 0 1
0.64608 0.147215 0.799834 0 1
0.62689 0.155505 0.776077 0 1
0.603689 0.146785 0.732558 0 1
0.68099 0.145426 0.725776 0 1
0.686475 0.144092 0.719117 0 1
0.698208 0.144092 0.719117 0 1
0.623487 0.170702 0.787776 0 3
0.62689 0.168167 0.776077 0 3
0.603689 0.158737 0.732558 0 3
0.68099 0.157267 0.725776 0 1
0.683341 0.155113 0.715833 0 1
0.69502 0.155113 0.715833 0 1
0.651207 0.184124 0.79022 0 3
0.661339 0.183359 0.786934 0 3
0.665299 0.180944 0.77657 0 3
0.619643 0.165377 0.709761 0 3
0.658812 0.199318 0.799449 0 3
0.664928 0.197263 0.791206 0 3
0.672474 0.195702 0.784946 0 3
0.694982 0.175512 0.703964 0 3
0.362887 0.359988 0.780169 0 3
0.362283 0.372097 0.778871 0 3
0.352245 0.374143 0.75729 1.19854e-38 3
0.369917 0.37928 0.743148 0 3
0.363372 0.38448 0.729999 0 3
0.361537 0.394389 0.726313 1.19847e-38 3
0.639573 0.154685 0.922162 0 1
0.654619 0.154685 0.922162 0 1
0.628482 0.166787 0.906171 0 1
0.0101665 0.205441 1.22475 0 1
0.030149 0.205441 1.22475 0 1
0.0495219 0.2819 1.20985 0 3
-0.0312641 0.215544 1.28498 0 1
-0.0101327 0.212068 1.26425 0 1
-0.0312641 0.23651 1.28498 0 1
-0.584782 0.279749 1.66774 0 1
-0.545956 0.273921 1.633 0 1
-0.519312 0.273921 1.633 0 1
-0.503151 0.279749 1.66774 0 1
0.21914 0.162594 1.07375 0 1
0.205093 0.168567 1.00492 0 1
0.224365 0.170756 1.01797 0 1
0.221489 0.184963 1.00492 0 1
0.237885 0.184963 1.00492 0 1
0.287072 0.184963 1.00492 0 1
0.102848 0.173275 1.14429 0 1
0.100644 0.187832 1.11977 0 1
0.119769 0.189183 1.12782 0 1
0.13621 0.186499 1.11183 0 1
0.15435 0.186499 1.11183 0 1
-0.0549309 0.204644 1.35144 0 1
-0.0328812 0.204644 1.35144 0 1
-0.0108315 0.204644 1.35144 0 1
-0.0990303 0.226693 1.35144 0 1
-0.0769806 0.226693 1.35144 0 1
-0.0530998 0.219137 1.3064 0 1
-0.7963 0.208234 1.37515 0 1
-0.787682 0.211952 1.39971 0 1
-0.787682 0.23479 1.39971 0 1
-0.747631 0.244527 1.32854 0 1
-0.725955 0.244527 1.32854 0 1
-0.0875465 0.207656 1.53694 0 1
-0.0624704 0.207656 1.53694 0 1
-0.0373943 0.207656 1.53694 0 1
-0.0123182 0.207656 1.53694 0 1
-0.0875465 0.232732 1.53694 0 1
-0.595588 0.240692 1.78145 0 1
-0.566522 0.240692 1.78145 0 1
-0.537457 0.240692 1.78145 0 1
-0.595588 0.269758 1.78145 0 1
-0.525513 0.263763 1.74186 0 1
-0.728738 0.211809 1.56768 0 1
-0.703161 0.211809 1.56768 0 1
-0.728738 0.237387 1.56768 0 1
-0.703161 0.237387 1.56768 0 1
-0.799086 0.25285 1.50738 0 1
-0.764602 0.257808 1.53694 0 1
-0.728738 0.262964 1.56768 0 1
-0.799086 0.277444 1.50738 0 1
-0.779894 0.288542 1.56768 0 3
-0.754316 0.288542 1.56768 0 3
-0.728738 0.288542 1.56768 0 3
-0.703161 0.288542 1.56768 0 3
1.30057 0.310386 2.61279 0 1
1.3432 0.310386 2.61279 0 1
1.30057 0.353015 2.61279 0 1
1.3432 0.353015 2.61279 0 1
0.179193 0.124154 1.04512 0 1
0.109526 0.139348 1.03137 0 1
0.15793 0.137538 1.01797 0 1
0.179193 0.141206 1.04512 0 1
0.198897 0.143114 1.05924 0 1
0.109526 0.156175 1.03137 0 1
0.126353 0.156175 1.03137 0 1
0.14318 0.156175 1.03137 0 1
0.160008 0.156175 1.03137 0 1
0.179193 0.158258 1.04512 0 1
0.196245 0.158258 1.04512 0 1
0.160008 0.173003 1.03137 0 1
0.174539 0.170756 1.01797 0 1
0.188697 0.168567 1.00492 0 1
0.130651 0.196287 1.06645 0 1
0.14805 0.196287 1.06645 0 1
0.15793 0.187365 1.01797 0 1
0.172301 0.184963 1.00492 0 1
0.182922 0.202052 0.422934 1.47495e-38 3
0.192686 0.2051 0.429313 1.34598e-38 3
0.199544 0.246541 0.499015 1.38276e-38 3
0.173232 0.20564 0.41623 1.47491e-38 3
0.179538 0.205087 0.41511 1.53023e-38 3
0.185556 0.204256 0.413428 1.30903e-38 3
0.137577 0.245793 0.481598 1.33676e-38 3
0.106731 0.255049 0.484252 1.29996e-38 3
0.134565 0.26347 0.471057 1.2723e-38 3
0.171071 0.260542 0.465822 1.58569e-38 3
0.188264 0.260387 0.452349 1.31833e-38 3
-0.868696 0.238758 2.00984 0 1
-0.835904 0.238758 2.00984 0 1
-0.868696 0.27155 2.00984 0 1
-0.835904 0.27155 2.00984 0 1
-0.690171 0.164807 1.38732 0 1
-0.684117 0.185797 1.37515 0 1
-0.661681 0.185797 1.37515 0 1
0.153932 0.10168 0.992199 0 1
0.120035 0.116395 0.979797 0 1
0.136021 0.116395 0.979797 0 1
0.153932 0.117868 0.992199 0 1
0.121555 0.134056 0.992199 0 1
0.137743 0.134056 0.992199 0 1
0.186308 0.182621 0.992199 0 1
0.17012 0.19881 0.992199 0 3
0.186308 0.19881 0.992199 0 3
0.255608 0.214842 0.59099 1.21702e-38 3
0.233144 0.221465 0.58304 1.31858e-38 3
0.233144 0.230977 0.58304 1.36457e-38 3
0.254631 0.23401 0.56733 1.26301e-38 3
0.25604 0.236033 0.55046 0 3
0.296603 0.232626 0.542516 0 3
0.212129 0.226867 0.509691 0 3
0.21153 0.234519 0.508251 1.37354e-38 3
0.273979 0.245913 0.532945 0 3
0.210089 0.241157 0.504788 1.45651e-38 3
0.274129 0.254747 0.533236 0 3
0.185005 0.216072 0.686853 0 3
0.191755 0.209175 0.602437 1.1801e-38 3
0.196789 0.250427 0.688877 1.23539e-38 3
0.143949 0.230983 0.608097 1.18932e-38 3
0.173784 0.231077 0.608346 1.21684e-38 3
0.14313 0.239535 0.60464 0 3
0.1435 0.250044 0.606202 1.28159e-38 3
0.120035 0.0684365 0.979797 0 1
0.136021 0.0684365 0.979797 0 1
0.118553 0.0833803 0.967701 0 1
0.134342 0.0833803 0.967701 0 1
0.118553 0.099169 0.967701 0 1
0.134342 0.099169 0.967701 0 1
0.131546 0.05748 1.07375 0 1
0.108103 0.0711029 1.01797 0 1
0.108103 0.0877117 1.01797 0 1
0.130062 0.0455806 1.22475 0 1
0.150044 0.0455806 1.22475 0 1
0.130062 0.0655631 1.22475 0 1
